<svg xmlns="http://www.w3.org/2000/svg" xmlns:xlink="http://www.w3.org/1999/xlink" viewBox="0 0 902.83 416.7"><defs><style>.cls-1{isolation:isolate;}.cls-2{fill:#fff;opacity:0.34;mix-blend-mode:soft-light;}.cls-3{fill:url(#linear-gradient);}.cls-4{fill:url(#linear-gradient-2);}.cls-5{fill:url(#linear-gradient-3);}.cls-6{fill:url(#linear-gradient-4);}.cls-7{fill:url(#linear-gradient-5);}.cls-8{fill:url(#linear-gradient-6);}.cls-9{fill:url(#linear-gradient-7);}.cls-10{fill:url(#linear-gradient-8);}.cls-11{fill:url(#linear-gradient-9);}.cls-12{fill:url(#linear-gradient-10);}.cls-13{fill:url(#linear-gradient-11);}.cls-14{fill:url(#linear-gradient-12);}.cls-15{fill:url(#linear-gradient-13);}.cls-16{fill:url(#linear-gradient-14);}.cls-17{fill:url(#linear-gradient-15);}.cls-18{fill:url(#linear-gradient-16);}.cls-19{fill:url(#linear-gradient-17);}.cls-20{fill:url(#linear-gradient-18);}.cls-21{fill:url(#linear-gradient-19);}.cls-22{fill:url(#linear-gradient-20);}.cls-23{fill:url(#linear-gradient-21);}.cls-24{fill:url(#linear-gradient-22);}.cls-25{fill:url(#linear-gradient-23);}.cls-26{fill:url(#linear-gradient-24);}.cls-27{fill:url(#linear-gradient-25);}.cls-28{fill:url(#linear-gradient-26);}.cls-29{fill:url(#linear-gradient-27);}.cls-30{fill:url(#linear-gradient-28);}.cls-31{fill:url(#linear-gradient-29);}.cls-32{fill:url(#linear-gradient-30);}.cls-33{fill:url(#linear-gradient-31);}.cls-34{fill:url(#linear-gradient-32);}.cls-35{fill:url(#linear-gradient-33);}.cls-36{fill:url(#linear-gradient-34);}.cls-37{fill:url(#linear-gradient-35);}.cls-38{fill:url(#linear-gradient-36);}.cls-39{fill:url(#linear-gradient-37);}.cls-40{fill:url(#linear-gradient-38);}.cls-41{fill:url(#linear-gradient-39);}.cls-42{fill:url(#linear-gradient-40);}.cls-43{fill:url(#linear-gradient-41);}.cls-44{fill:url(#linear-gradient-42);}.cls-45{fill:url(#linear-gradient-43);}.cls-46{fill:url(#linear-gradient-44);}.cls-47{fill:url(#linear-gradient-45);}</style><linearGradient id="linear-gradient" x1="1421.46" y1="60.14" x2="415.01" y2="438.12" gradientUnits="userSpaceOnUse"><stop offset="0" stop-color="#2aeaff"/><stop offset="0.11" stop-color="#2ee6fd"/><stop offset="0.23" stop-color="#3cdbf7"/><stop offset="0.36" stop-color="#51c9ed"/><stop offset="0.49" stop-color="#70b0de"/><stop offset="0.62" stop-color="#978fcc"/><stop offset="0.76" stop-color="#c767b6"/><stop offset="0.88" stop-color="#f83e9f"/><stop offset="0.99" stop-color="#f8ba69"/></linearGradient><linearGradient id="linear-gradient-2" x1="1420.17" y1="56.69" x2="413.72" y2="434.67" xlink:href="#linear-gradient"/><linearGradient id="linear-gradient-3" x1="1509.2" y1="293.76" x2="502.75" y2="671.74" xlink:href="#linear-gradient"/><linearGradient id="linear-gradient-4" x1="1507.9" y1="290.32" x2="501.45" y2="668.3" xlink:href="#linear-gradient"/><linearGradient id="linear-gradient-5" x1="1382.6" y1="-43.34" x2="376.15" y2="334.64" xlink:href="#linear-gradient"/><linearGradient id="linear-gradient-6" x1="1381.3" y1="-46.78" x2="374.85" y2="331.2" xlink:href="#linear-gradient"/><linearGradient id="linear-gradient-7" x1="1434.6" y1="95.12" x2="428.14" y2="473.1" xlink:href="#linear-gradient"/><linearGradient id="linear-gradient-8" x1="1441.52" y1="113.56" x2="435.07" y2="491.54" xlink:href="#linear-gradient"/><linearGradient id="linear-gradient-9" x1="1436.05" y1="99" x2="429.6" y2="476.98" xlink:href="#linear-gradient"/><linearGradient id="linear-gradient-10" x1="1363.35" y1="-94.59" x2="356.9" y2="283.39" xlink:href="#linear-gradient"/><linearGradient id="linear-gradient-11" x1="1435.49" y1="97.51" x2="429.05" y2="475.49" xlink:href="#linear-gradient"/><linearGradient id="linear-gradient-12" x1="1395.02" y1="-10.26" x2="388.57" y2="367.72" xlink:href="#linear-gradient"/><linearGradient id="linear-gradient-13" x1="1385.86" y1="-34.66" x2="379.41" y2="343.32" xlink:href="#linear-gradient"/><linearGradient id="linear-gradient-14" x1="1436.89" y1="101.22" x2="430.44" y2="479.2" xlink:href="#linear-gradient"/><linearGradient id="linear-gradient-15" x1="1409.35" y1="27.89" x2="402.9" y2="405.87" xlink:href="#linear-gradient"/><linearGradient id="linear-gradient-16" x1="1403.41" y1="12.09" x2="396.96" y2="390.07" xlink:href="#linear-gradient"/><linearGradient id="linear-gradient-17" x1="1397.48" y1="-3.71" x2="391.03" y2="374.27" xlink:href="#linear-gradient"/><linearGradient id="linear-gradient-18" x1="1406.38" y1="19.99" x2="399.93" y2="397.97" xlink:href="#linear-gradient"/><linearGradient id="linear-gradient-19" x1="1400.45" y1="4.19" x2="394" y2="382.17" xlink:href="#linear-gradient"/><linearGradient id="linear-gradient-20" x1="1448.66" y1="132.57" x2="442.21" y2="510.55" xlink:href="#linear-gradient"/><linearGradient id="linear-gradient-21" x1="1463.43" y1="171.9" x2="456.98" y2="549.88" xlink:href="#linear-gradient"/><linearGradient id="linear-gradient-22" x1="1455.53" y1="150.87" x2="449.08" y2="528.85" xlink:href="#linear-gradient"/><linearGradient id="linear-gradient-23" x1="1471.33" y1="192.93" x2="464.88" y2="570.92" xlink:href="#linear-gradient"/><linearGradient id="linear-gradient-24" x1="1454.52" y1="148.17" x2="448.07" y2="526.15" xlink:href="#linear-gradient"/><linearGradient id="linear-gradient-25" x1="1394.78" y1="-10.89" x2="388.34" y2="367.09" xlink:href="#linear-gradient"/><linearGradient id="linear-gradient-26" x1="1408.15" y1="24.71" x2="401.71" y2="402.69" xlink:href="#linear-gradient"/><linearGradient id="linear-gradient-27" x1="1390.74" y1="-21.64" x2="384.3" y2="356.34" xlink:href="#linear-gradient"/><linearGradient id="linear-gradient-28" x1="1391.9" y1="-18.57" x2="385.45" y2="359.41" xlink:href="#linear-gradient"/><linearGradient id="linear-gradient-29" x1="1393.06" y1="-15.5" x2="386.6" y2="362.49" xlink:href="#linear-gradient"/><linearGradient id="linear-gradient-30" x1="1394.2" y1="-12.42" x2="387.76" y2="365.55" xlink:href="#linear-gradient"/><linearGradient id="linear-gradient-31" x1="1404.11" y1="13.96" x2="397.67" y2="391.94" xlink:href="#linear-gradient"/><linearGradient id="linear-gradient-32" x1="1405.27" y1="17.03" x2="398.82" y2="395.01" xlink:href="#linear-gradient"/><linearGradient id="linear-gradient-33" x1="1406.43" y1="20.11" x2="399.97" y2="398.09" xlink:href="#linear-gradient"/><linearGradient id="linear-gradient-34" x1="1407.57" y1="23.18" x2="401.13" y2="401.16" xlink:href="#linear-gradient"/><linearGradient id="linear-gradient-35" x1="1460.02" y1="185.07" x2="502.27" y2="544.76" xlink:href="#linear-gradient"/><linearGradient id="linear-gradient-36" x1="1488.39" y1="238.36" x2="481.94" y2="616.34" xlink:href="#linear-gradient"/><linearGradient id="linear-gradient-37" x1="1543.44" y1="384.96" x2="537" y2="762.94" xlink:href="#linear-gradient"/><linearGradient id="linear-gradient-38" x1="1506.66" y1="287" x2="500.21" y2="664.98" xlink:href="#linear-gradient"/><linearGradient id="linear-gradient-39" x1="1518.28" y1="317.95" x2="511.83" y2="695.93" xlink:href="#linear-gradient"/><linearGradient id="linear-gradient-40" x1="1503.05" y1="277.39" x2="496.59" y2="655.37" xlink:href="#linear-gradient"/><linearGradient id="linear-gradient-41" x1="1542.39" y1="382.14" x2="535.94" y2="760.13" xlink:href="#linear-gradient"/><linearGradient id="linear-gradient-42" x1="1546.74" y1="393.72" x2="540.28" y2="771.7" xlink:href="#linear-gradient"/><linearGradient id="linear-gradient-43" x1="1551.09" y1="405.3" x2="544.63" y2="783.28" xlink:href="#linear-gradient"/><linearGradient id="linear-gradient-44" x1="1472.46" y1="195.93" x2="466.01" y2="573.91" xlink:href="#linear-gradient"/><linearGradient id="linear-gradient-45" x1="1363.37" y1="-94.54" x2="356.92" y2="283.45" xlink:href="#linear-gradient"/></defs><title>expert-hero-graphics</title><g class="cls-1"><g id="Layer_1" data-name="Layer 1"><path class="cls-2" d="M685,295.16h12a2.5,2.5,0,0,1,0,5H685a2.5,2.5,0,0,1,0-5Zm-24,0h12a2.5,2.5,0,0,1,0,5H661a2.5,2.5,0,0,1,0-5Zm-24,0h12a2.5,2.5,0,0,1,0,5H637a2.5,2.5,0,0,1,0-5Zm-24,0h12a2.5,2.5,0,0,1,0,5H613a2.5,2.5,0,0,1,0-5Zm-26.5,2.5a2.49,2.49,0,0,1,2.5-2.5h12a2.5,2.5,0,0,1,0,5H589A2.49,2.49,0,0,1,586.52,297.66Z" transform="translate(-499.35 -111.69)"/><path class="cls-2" d="M1132.18,339.74a15.12,15.12,0,1,1,11.36-18.12A15.1,15.1,0,0,1,1132.18,339.74Zm89.15-107.86a2.5,2.5,0,0,1,5,0v12a2.5,2.5,0,1,1-5,0Zm0,24a2.5,2.5,0,0,1,5,0v12a2.5,2.5,0,1,1-5,0Zm2.5,21.5a2.49,2.49,0,0,1,2.5,2.5v12a2.5,2.5,0,1,1-5,0v-12A2.5,2.5,0,0,1,1223.83,277.38Zm-144-111a14.07,14.07,0,0,1-14.06,14H996.18a14.06,14.06,0,1,1,0-28.11h69.59A14.07,14.07,0,0,1,1079.83,166.37Zm-83.65-54.68h69.59a14.06,14.06,0,1,1,0,28.11H996.18a14.06,14.06,0,1,1,0-28.11ZM910.07,122h30.44a2.5,2.5,0,0,1,0,5H910.07a2.5,2.5,0,1,1,0-5ZM900.7,130h27.17a2.5,2.5,0,1,1,0,5H900.7a2.5,2.5,0,0,1,0-5Z" transform="translate(-499.35 -111.69)"/><path class="cls-3" d="M521.39,395.57h27.17a2.5,2.5,0,0,0,0-5H521.39a2.5,2.5,0,0,0,0,5Z" transform="translate(-499.35 -111.69)"/><path class="cls-4" d="M563.69,385a2.5,2.5,0,0,0-2.5-2.5H530.76a2.5,2.5,0,0,0,0,5h30.43a1.9,1.9,0,0,0,.25,0A2.49,2.49,0,0,0,563.69,385Z" transform="translate(-499.35 -111.69)"/><path class="cls-5" d="M1319.31,357.48a2.5,2.5,0,0,0,0,5h27.17a2.5,2.5,0,0,0,0-5Z" transform="translate(-499.35 -111.69)"/><path class="cls-6" d="M1328.68,354.41h30.44a2.5,2.5,0,0,0,0-5h-30.44a2.5,2.5,0,0,0,0,5Z" transform="translate(-499.35 -111.69)"/><path class="cls-7" d="M900.7,135h27.17a2.5,2.5,0,1,0,0-5H900.7a2.5,2.5,0,0,0,0,5Z" transform="translate(-499.35 -111.69)"/><path class="cls-8" d="M910.07,127h30.44a2.5,2.5,0,0,0,0-5H910.07a2.5,2.5,0,1,0,0,5Z" transform="translate(-499.35 -111.69)"/><path class="cls-9" d="M1126.57,176.2A17.64,17.64,0,0,0,1114.11,193v49.72a17.63,17.63,0,0,0,17.61,17.61h42.41a17.63,17.63,0,0,0,17.61-17.61V220.39h10.09a2.5,2.5,0,0,0,0-5h-10.09V193a17.66,17.66,0,0,0-12.45-16.83c.17-1.93.26-3.88.26-5.83,0-1.2,0-2.38-.1-3.54-1.14-19.59-11.72-33-26.52-33-12.85,0-22.51,10.08-25.59,25.54a56.13,56.13,0,0,0-1,11C1126.3,172.32,1126.39,174.27,1126.57,176.2Zm26.36-37.34c12.73,0,21.62,13,21.62,31.51,0,1.7-.07,3.4-.21,5.08l-.94,0h-7.67a40.28,40.28,0,0,0,.32-5c0-12-2.23-20-13.12-20-11.26,0-12.18,9-12.18,20,0,.86-.08,1.73-.17,2.65s-.15,1.59-.17,2.4h-8c-.32,0-.63,0-1,0-.14-1.68-.21-3.38-.21-5.08C1131.3,151.82,1140.19,138.86,1152.93,138.86Zm33.81,103.89a12.63,12.63,0,0,1-12.61,12.61h-42.41a12.63,12.63,0,0,1-12.61-12.61V193a12.63,12.63,0,0,1,9.94-12.32,2.29,2.29,0,0,0,.74,0,13.29,13.29,0,0,1,2.67-.27h40.94a13.19,13.19,0,0,1,2.66.27,2.72,2.72,0,0,0,.49.05l.27,0a12.62,12.62,0,0,1,9.92,12.31Zm-41-72.38c0-5.3.32-8.74,1-11,1.08-3.48,3.06-4,6.18-4,2.93,0,5.34.42,6.75,4,.88,2.22,1.37,5.65,1.37,11a33.73,33.73,0,0,1-.38,5h-15.26c0-.61.09-1.26.15-1.93C1145.65,172.49,1145.75,171.46,1145.75,170.37Z" transform="translate(-499.35 -111.69)"/><path class="cls-10" d="M1164.69,211.81a11.76,11.76,0,1,0-18.5,9.84l-5.81,10.7a6.43,6.43,0,0,0,5.65,9.49h13.79a6.42,6.42,0,0,0,5.65-9.49h0l-5.81-10.7A12,12,0,0,0,1164.69,211.81Zm-3.64,24.33a1.41,1.41,0,0,1-1.23.7H1146a1.42,1.42,0,0,1-1.25-2.11l7-12.88a2.5,2.5,0,0,0-1.27-3.51,7,7,0,0,1-4.33-6.53,6.76,6.76,0,1,1,9.18,6.53,2.5,2.5,0,0,0-1.27,3.51l7,12.88h0A1.42,1.42,0,0,1,1161.05,236.14Z" transform="translate(-499.35 -111.69)"/><path class="cls-11" d="M690.53,397.6a2.56,2.56,0,0,0,.93.18,2.5,2.5,0,0,0,.92-4.83l-43.06-17.11a2.5,2.5,0,1,0-1.85,4.64Z" transform="translate(-499.35 -111.69)"/><path class="cls-12" d="M714.68,150.28a3.34,3.34,0,1,0-3.34,3.34A3.34,3.34,0,0,0,714.68,150.28Z" transform="translate(-499.35 -111.69)"/><path class="cls-13" d="M866.94,221c-14.89,4.56-23.28,3.77-28.92,2.87l-1.64-.27a25.79,25.79,0,0,0-4.74-.54,7.14,7.14,0,0,0-4,1.22c-1.07.74-2.87,2-2.91,16.38a295.66,295.66,0,0,0,1.84,30.8c1.47,13.59,6,47.16,16.25,65.29,17.2,30.42,45.43,55.28,66,58.28a2.23,2.23,0,0,0,.57.18l.17,0,.31,0h.21l.25,0,.25,0h.21a2.32,2.32,0,0,0,1-.23c20.59-3,48.81-27.86,66-58.28,10.26-18.13,14.78-51.7,16.25-65.29a292.93,292.93,0,0,0,1.84-30.8c0-14.4-1.83-15.64-2.91-16.38-2.54-1.75-5.29-1.28-8.78-.68-5.64,1-14.17,2.42-30.56-2.6s-28.34-12.94-35.5-17.68a56.81,56.81,0,0,0-5.81-3.6,3.16,3.16,0,0,0-2-.62h-.22a3.57,3.57,0,0,0-.46,0l-.2,0a3.66,3.66,0,0,0-.44.13l-.17.07a2.8,2.8,0,0,0-.56.32l-.55.29c-1.34.71-3.06,1.85-5.26,3.31a167.47,167.47,0,0,1-16.59,10A114.4,114.4,0,0,1,866.94,221Zm118.11,7.53c2.58-.44,4-.66,4.84-.27,3.14,7.14-.51,77.89-16.43,106-15.76,27.87-41.88,51.59-60.66,55.48V341.33a41.14,41.14,0,0,1-4.73.28h-.27v48.18c-18.79-3.89-44.9-27.62-60.67-55.49-.25-.44-.49-.89-.74-1.35-12.86-24.38-17.37-76.86-16.64-97.08.13-3.82.46-6.49,1-7.6a1.8,1.8,0,0,1,.35-.12c.88-.21,2.23,0,4.49.39,5.74,1,15.34,2.62,32.87-2.75,17.05-5.21,29.41-13.4,36.8-18.3.94-.62,1.81-1.2,2.59-1.7v53h.27a43.53,43.53,0,0,1,4.73.27V205.78l2.59,1.7c7.38,4.9,19.75,13.09,36.8,18.3C969.71,231.14,979.32,229.51,985.05,228.53Z" transform="translate(-499.35 -111.69)"/><path class="cls-14" d="M566.22,317.18a15.17,15.17,0,0,0-8.64,2.5,8.9,8.9,0,0,0-4.08,7.11l0,6.36c-.05,5.45,5.46,9.77,12.55,9.83a15.41,15.41,0,0,0,2.15-.12,8.34,8.34,0,0,0,7.93,6h.07a8.34,8.34,0,0,0,8.32-8.25l.43-50.18a23,23,0,0,0,14.62-21.07A22.76,22.76,0,0,0,554,269a22.93,22.93,0,0,0,14.26,21.31l0,2.83L568,317.29A15.57,15.57,0,0,0,566.22,317.18Zm6.78,3.25.28-31.85a2.49,2.49,0,0,0-1.77-2.41,17.76,17.76,0,0,1,5.25-34.73h.16a17.75,17.75,0,0,1,17.6,17.91,17.84,17.84,0,0,1-12.8,16.9,2.51,2.51,0,0,0-1.81,2.38l-.44,52a3.33,3.33,0,0,1-3.32,3.29h0a3.32,3.32,0,0,1-3.29-3.35v-.69a2.49,2.49,0,0,0-2.5-2.52,2.53,2.53,0,0,0-.77.12A10.93,10.93,0,0,1,566,338c-4.07,0-7.61-2.27-7.59-4.78l0-6.37a4.09,4.09,0,0,1,2-3.05,10.06,10.06,0,0,1,5.73-1.6,11.19,11.19,0,0,1,3.51.59,2.5,2.5,0,0,0,3.31-2.34Z" transform="translate(-499.35 -111.69)"/><path class="cls-15" d="M576.67,279.94h.1a10.75,10.75,0,0,0,.09-21.49h-.1a10.75,10.75,0,0,0-.09,21.49Zm.09-16.49h0a5.74,5.74,0,0,1,4,9.84,5.82,5.82,0,0,1-4.08,1.65,5.75,5.75,0,0,1,0-11.49Z" transform="translate(-499.35 -111.69)"/><path class="cls-16" d="M949.51,300.17a41.29,41.29,0,0,0-11.86-29l16-28.38a2.5,2.5,0,0,0-4.35-2.45l-15.44,27.4A41.3,41.3,0,0,0,912.8,259a43.53,43.53,0,0,0-4.73-.27h-.27a41.44,41.44,0,0,0,0,82.87h.27a41.52,41.52,0,0,0,41.44-41.44Zm-41.44-36.44a36.25,36.25,0,0,1,23.29,8.44l-22.17,39.34-16.36-18.86a2.5,2.5,0,1,0-3.78,3.27l18.69,21.55a2.51,2.51,0,0,0,1.89.86h.25a2.5,2.5,0,0,0,1.93-1.26l23.28-41.32a36.43,36.43,0,1,1-27-12Z" transform="translate(-499.35 -111.69)"/><path class="cls-17" d="M685,300.16h12a2.5,2.5,0,0,0,0-5H685a2.5,2.5,0,0,0,0,5Z" transform="translate(-499.35 -111.69)"/><path class="cls-18" d="M637,300.16h12a2.5,2.5,0,0,0,0-5H637a2.5,2.5,0,0,0,0,5Z" transform="translate(-499.35 -111.69)"/><path class="cls-19" d="M603.52,297.66a2.5,2.5,0,0,0-2.5-2.5H589a2.5,2.5,0,0,0,0,5h12A2.5,2.5,0,0,0,603.52,297.66Z" transform="translate(-499.35 -111.69)"/><path class="cls-20" d="M661,300.16h12a2.5,2.5,0,0,0,0-5H661a2.5,2.5,0,0,0,0,5Z" transform="translate(-499.35 -111.69)"/><path class="cls-21" d="M613,300.16h12a2.5,2.5,0,0,0,0-5H613a2.5,2.5,0,0,0,0,5Z" transform="translate(-499.35 -111.69)"/><path class="cls-22" d="M1223.83,222.38a2.49,2.49,0,0,0,2.27-1.46,2.37,2.37,0,0,0,.23-1v-2a2.49,2.49,0,0,0-2.5-2.5h-10a2.5,2.5,0,0,0,0,5h7.56a2.35,2.35,0,0,0,.14.45A2.49,2.49,0,0,0,1223.83,222.38Z" transform="translate(-499.35 -111.69)"/><path class="cls-23" d="M1223.83,270.38a2.49,2.49,0,0,0,2.5-2.5v-12a2.5,2.5,0,0,0-5,0v12A2.49,2.49,0,0,0,1223.83,270.38Z" transform="translate(-499.35 -111.69)"/><path class="cls-24" d="M1223.83,246.38a2.49,2.49,0,0,0,2.5-2.5v-12a2.5,2.5,0,0,0-5,0v12A2.49,2.49,0,0,0,1223.83,246.38Z" transform="translate(-499.35 -111.69)"/><path class="cls-25" d="M1221.33,291.88a2.5,2.5,0,1,0,5,0v-12a2.5,2.5,0,0,0-5,0Z" transform="translate(-499.35 -111.69)"/><path class="cls-26" d="M574,490.48a6.44,6.44,0,0,0,6.42,6.43,6.43,6.43,0,0,0,3.21-.87l24.31-14a6.42,6.42,0,0,0,0-11.12l-24.31-14h0a6.42,6.42,0,0,0-9.63,5.56Zm5.71-29.3a1.52,1.52,0,0,1,.71-.19,1.43,1.43,0,0,1,.71.19h0l24.31,14a1.42,1.42,0,0,1,0,2.46l-24.31,14a1.42,1.42,0,0,1-2.13-1.23V462.41A1.39,1.39,0,0,1,579.7,461.18Z" transform="translate(-499.35 -111.69)"/><path class="cls-27" d="M996.18,139.8h69.59a14.06,14.06,0,1,0,0-28.11H996.18a14.06,14.06,0,1,0,0,28.11Zm69.59-23.11a9.06,9.06,0,1,1,0,18.11H996.18a9.06,9.06,0,1,1,0-18.11Z" transform="translate(-499.35 -111.69)"/><path class="cls-28" d="M1065.77,152.31H996.18a14.06,14.06,0,1,0,0,28.11h69.59a14.06,14.06,0,1,0,0-28.11Zm9.06,14.06a9.06,9.06,0,0,1-9.06,9H996.18a9.06,9.06,0,1,1,0-18.11h69.59A9.06,9.06,0,0,1,1074.83,166.37Z" transform="translate(-499.35 -111.69)"/><path class="cls-29" d="M998.31,128.51a2.77,2.77,0,1,0-2.77-2.77A2.76,2.76,0,0,0,998.31,128.51Z" transform="translate(-499.35 -111.69)"/><path class="cls-30" d="M1007.64,128.51a2.77,2.77,0,1,0-2.76-2.77A2.77,2.77,0,0,0,1007.64,128.51Z" transform="translate(-499.35 -111.69)"/><path class="cls-31" d="M1017,128.51a2.77,2.77,0,1,0-2.77-2.77A2.77,2.77,0,0,0,1017,128.51Z" transform="translate(-499.35 -111.69)"/><path class="cls-32" d="M1026.31,128.51a2.77,2.77,0,1,0-2.77-2.77A2.76,2.76,0,0,0,1026.31,128.51Z" transform="translate(-499.35 -111.69)"/><path class="cls-33" d="M998.31,163.6a2.77,2.77,0,1,0,2.76,2.77A2.77,2.77,0,0,0,998.31,163.6Z" transform="translate(-499.35 -111.69)"/><path class="cls-34" d="M1007.64,163.6a2.77,2.77,0,1,0,2.77,2.77A2.77,2.77,0,0,0,1007.64,163.6Z" transform="translate(-499.35 -111.69)"/><path class="cls-35" d="M1017,163.6a2.77,2.77,0,1,0,2.76,2.77A2.77,2.77,0,0,0,1017,163.6Z" transform="translate(-499.35 -111.69)"/><path class="cls-36" d="M1026.31,163.6a2.77,2.77,0,1,0,2.76,2.77A2.77,2.77,0,0,0,1026.31,163.6Z" transform="translate(-499.35 -111.69)"/><path class="cls-37" d="M1399.68,523.39H1382l2.34-14.68a11.34,11.34,0,0,0,9.14-11.1V446.38a4.12,4.12,0,0,0-4.12-4.11H1280.54v-119a9.68,9.68,0,0,0-9.67-9.67h-44.54v-9.7a2.5,2.5,0,0,0-5,0v9.7H1176.8a9.68,9.68,0,0,0-9.67,9.67V393a2.49,2.49,0,0,0,2.5,2.5h0a2.49,2.49,0,0,0,2.5-2.5V357.37h103.41v84.9h-8.12a4.11,4.11,0,0,0-4.11,4.11v37.27h-91.18V411.7a2.5,2.5,0,0,0-2.5-2.5h0a2.5,2.5,0,0,0-2.5,2.5V517.77a9.68,9.68,0,0,0,1.81,5.62h-20V460a1,1,0,0,0,0-.17,2.45,2.45,0,0,0,0-.27l-.06-.23a2,2,0,0,0-.07-.23,1.51,1.51,0,0,0-.11-.22,1,1,0,0,0-.11-.21,1.43,1.43,0,0,0-.14-.2,1.46,1.46,0,0,0-.16-.19l-.19-.18s-.08-.08-.13-.11l-52.14-38.85V254.34a12.23,12.23,0,0,0-12.21-12.22h-58.3c.52-8,.79-15.43.77-22,0-19.15-2.42-20.79-3.57-21.57h0c-3.16-2.18-6.57-1.59-11.29-.79-7.3,1.25-19.53,3.33-42.07-3.56S930.29,176.51,920.5,170a78.62,78.62,0,0,0-7.9-4.88,3.83,3.83,0,0,0-2.3-.71,3.7,3.7,0,0,0-2.3.71,76.41,76.41,0,0,0-7.9,4.88c-9.8,6.49-26.2,17.36-48.62,24.22-13,4-22.57,5-29.74,4.85a29,29,0,0,0-41.54-25.78,44.79,44.79,0,0,0-59.38-31.45,2.5,2.5,0,0,0-1.45,3.22,2.42,2.42,0,0,0,.33.59,2.49,2.49,0,0,0,2.89.86,39.79,39.79,0,0,1,53.35,31,2.49,2.49,0,0,0,3.82,1.72,24,24,0,0,1,37,19.54c-2.89-.27-5.29-.67-7.32-1-4.72-.8-8.13-1.39-11.29.79-1.09.74-3.28,2.27-3.54,18.76H666.37a29,29,0,0,1,17.81-51.86,28.64,28.64,0,0,1,12.89,3,2.51,2.51,0,0,0,3.39-1.21c.58-1.28.95-2.24,1.25-3a10.25,10.25,0,0,1,2.85-4.45,2.51,2.51,0,0,0,.2-3.2,3.17,3.17,0,0,0-.3-.34,2.51,2.51,0,0,0-3.54.11A15,15,0,0,0,697,162.5l-.17.45a33.65,33.65,0,0,0-12.69-2.46A34,34,0,0,0,664,221.87a2.55,2.55,0,0,0,1.49.48h129c0,6,.3,12.7.76,19.77H732a12.22,12.22,0,0,0-12.21,12.22v40.82H709a2.5,2.5,0,0,0,0,5h10.73v41.43l-8.82-3.53a2.5,2.5,0,0,0-1.92,0,2.45,2.45,0,0,0-1.33,1.37l-4.6,11.46-20.28-8.14a2.5,2.5,0,0,0-3.25,1.39l-8.5,21.17-28.63-11.49a2.53,2.53,0,0,0-1.91,0,2.57,2.57,0,0,0-1.34,1.37l-11,27.43H606a12.54,12.54,0,0,0-12.52,12.52v17.17a10.23,10.23,0,0,0-.31,2.49v10.88c-1.17-.08-2.35-.13-3.54-.13a50.93,50.93,0,0,0-48.79,36.53c-.2.69-.39,1.37-.57,2.07a50.85,50.85,0,0,0,29.79,59.2H501.85a2.5,2.5,0,0,0,0,5h897.83a2.5,2.5,0,0,0,0-5Zm-810-92.8a45.86,45.86,0,1,1-45.86,45.86A45.92,45.92,0,0,1,589.65,430.59ZM606,387.66h20.14l-6.75,16.83H603.54a10.33,10.33,0,0,0-5,1.31V395.18A7.52,7.52,0,0,1,606,387.66ZM801.13,202.59c1.42-.84,3.47-.54,7.44.14,7.74,1.32,20.7,3.53,44.38-3.71,23.11-7.07,39.88-18.19,49.91-24.83a71,71,0,0,1,7.44-4.61,73.16,73.16,0,0,1,7.44,4.61c10,6.64,26.8,17.76,49.91,24.83,23.68,7.24,36.63,5,44.37,3.71,4-.68,6-1,7.44-.14,2,3.48,2.59,28-1.11,60.9-4.2,37.46-11.92,68.33-21.18,84.71-22.52,39.8-60.54,73.45-86.55,76.6-.1,0-.21,0-.31.06h0l-.32-.06c-26-3.15-64-36.8-86.54-76.6-9.27-16.38-17-47.25-21.19-84.71C798.55,230.55,799.1,206.06,801.13,202.59Zm289.65,51.75v4.9h-66.95c.42-4.09.78-8.15,1.09-12.12h58.65A7.23,7.23,0,0,1,1090.78,254.34Zm-294,4.9h-72v-4.9a7.22,7.22,0,0,1,7.21-7.22h63.72C796,251.09,796.34,255.15,796.76,259.24Zm-72,5H797.3c2.22,19.67,8.4,62.78,21.78,86.42a213.71,213.71,0,0,0,42.66,53c16.67,14.86,33.24,24.05,46.77,26a2.51,2.51,0,0,0,1.37.28l.42-.05.41.05h.21a2.46,2.46,0,0,0,1.16-.29c13.54-1.93,30.1-11.12,46.77-26a213.52,213.52,0,0,0,42.67-53c13.37-23.64,19.55-66.75,21.78-86.42h67.48V418.91L1063,439.58H778.1v-44.4a12.46,12.46,0,0,0-4.27-9.39l6.84-17.06a2.51,2.51,0,0,0-1.39-3.25L724.75,343.6Zm447.38,253.53V488.65h91.18V504.8a4.11,4.11,0,0,0,4.11,4.11h8.12v8.86a4.68,4.68,0,0,1-4.67,4.67H1176.8A4.68,4.68,0,0,1,1172.13,517.77Zm96.18-70.5h120.16v50.34a6.31,6.31,0,0,1-6.31,6.3,2.5,2.5,0,0,0-2.47,2.11l-2.4,15.08L1354,504.38a2.56,2.56,0,0,0-1.46-.47h-84.27ZM598.19,414.84a5.36,5.36,0,0,1,5.35-5.35H767.75a5.36,5.36,0,0,1,5.35,5.35V517.17a5.36,5.36,0,0,1-5.35,5.35H611.18a50.84,50.84,0,0,0-13-96.2Zm495.09,78.67-41.31-31h82.67Zm-45.56,29.69,34-32.1,10,7.53a2.46,2.46,0,0,0,1.5.5,2.49,2.49,0,0,0,1.5-.49l11.61-8.7,34.22,33.26ZM778.1,461.7h78.06v44.06H806.62A10.93,10.93,0,0,0,798,523.39H776a10.31,10.31,0,0,0,2.1-6.22Zm173.22,44.06H861.16V462.18h90.16Zm57.59,16.9H806.62a5.95,5.95,0,0,1,0-11.9h202.29a5.95,5.95,0,1,1,0,11.9Zm33.38-60.14h1.35l34,25.54-35.39,33.39ZM778.1,456.7V444.58h278.23l-16.27,12.12Zm230.81,49.06H956.32V461.7h81v61.69h-19.72a10.93,10.93,0,0,0-8.66-17.63ZM771.77,390.92a7.45,7.45,0,0,1,1.33,4.26V406a10.25,10.25,0,0,0-5.35-1.5h-1.42Zm508.77,118h71.23l20.13,14.48h-93.17a9.68,9.68,0,0,0,1.81-5.62Zm-170.1-22L1143,462.52h1v56.94Zm-63.11-29.38,45.78-34.11,45.78,34.11ZM775.1,369.19l-14.16,35.3H740.09l12.45-31a2.5,2.5,0,0,0-1.39-3.25l-43.43-17.43,3.67-9.14ZM747,373.91,734.7,404.49H704.15l8-20a2.49,2.49,0,0,0-1.39-3.25L675.7,367.19l7.56-18.84ZM706.59,385l-7.82,19.51H688.12a2.5,2.5,0,0,0-.93-.66l-43.06-17.11a2.5,2.5,0,1,0-1.85,4.64l33,13.13h-19l-17.34-6.9a2.5,2.5,0,0,0-1.85,4.65l5.65,2.25H624.8l18.08-45.08Zm465.54-61.73a4.68,4.68,0,0,1,4.67-4.67h94.07a4.68,4.68,0,0,1,4.67,4.67v29.12H1172.13Z" transform="translate(-499.35 -111.69)"/><path class="cls-38" d="M1210.41,339.46h30.83a2.5,2.5,0,0,0,0-5h-30.83a2.5,2.5,0,0,0,0,5Z" transform="translate(-499.35 -111.69)"/><path class="cls-39" d="M1218.36,506.56h15.92a2.5,2.5,0,0,0,0-5h-15.92a2.5,2.5,0,0,0,0,5Z" transform="translate(-499.35 -111.69)"/><path class="cls-40" d="M1191.52,405.11h67.62a6.49,6.49,0,0,0,6.48-6.49V386.7a6.49,6.49,0,0,0-6.48-6.49h-67.62a6.5,6.5,0,0,0-6.49,6.49v11.92A6.5,6.5,0,0,0,1191.52,405.11Zm-1.49-6.49V386.7a1.51,1.51,0,0,1,1.49-1.49h67.62a1.51,1.51,0,0,1,1.48,1.49v11.92a1.5,1.5,0,0,1-1.48,1.49h-67.62A1.51,1.51,0,0,1,1190,398.62Z" transform="translate(-499.35 -111.69)"/><path class="cls-41" d="M1259.14,415.52h-67.62A6.5,6.5,0,0,0,1185,422v11.92a6.49,6.49,0,0,0,6.49,6.48h67.62a6.48,6.48,0,0,0,6.48-6.48V422A6.49,6.49,0,0,0,1259.14,415.52Zm1.48,18.41a1.5,1.5,0,0,1-1.48,1.48h-67.62a1.5,1.5,0,0,1-1.49-1.48V422a1.51,1.51,0,0,1,1.49-1.49h67.62a1.5,1.5,0,0,1,1.48,1.49Z" transform="translate(-499.35 -111.69)"/><path class="cls-42" d="M1172.39,402.61a2.77,2.77,0,1,0-2.76,2.76A2.76,2.76,0,0,0,1172.39,402.61Z" transform="translate(-499.35 -111.69)"/><path class="cls-43" d="M1285.92,465.05h84.76a2.5,2.5,0,0,0,0-5h-84.76a2.5,2.5,0,0,0,0,5Z" transform="translate(-499.35 -111.69)"/><path class="cls-44" d="M1370.68,473.26h-84.76a2.5,2.5,0,0,0,0,5h84.76a2.5,2.5,0,0,0,0-5Z" transform="translate(-499.35 -111.69)"/><path class="cls-45" d="M1370.68,486.47h-84.76a2.5,2.5,0,0,0,0,5h84.76a2.5,2.5,0,0,0,0-5Z" transform="translate(-499.35 -111.69)"/><path class="cls-46" d="M1136.83,312.19a15.12,15.12,0,1,0,6.71,9.43A15,15,0,0,0,1136.83,312.19Zm-17.9,15.07a10.15,10.15,0,0,1,7.61-12.13,10.42,10.42,0,0,1,2.28-.26,10.12,10.12,0,1,1-9.89,12.39Z" transform="translate(-499.35 -111.69)"/><path class="cls-47" d="M598.54,200.09a11.36,11.36,0,0,0,6,1.75,11.21,11.21,0,0,0,2.57-.3,11.4,11.4,0,1,0-8.6-1.45Zm4.63-15.91A6.41,6.41,0,0,1,606,196.67a6.41,6.41,0,1,1-2.86-12.49Z" transform="translate(-499.35 -111.69)"/></g></g></svg>