<?xml version="1.0" encoding="UTF-8"?>
<svg width="158px" height="43px" viewBox="0 0 158 43" version="1.1" xmlns="http://www.w3.org/2000/svg" xmlns:xlink="http://www.w3.org/1999/xlink">
    <!-- Generator: Sketch 59.1 (86144) - https://sketch.com -->
    <title>expert-advice-nav</title>
    <desc>Created with Sketch.</desc>
    <g id="Page-1" stroke="none" stroke-width="1" fill="none" fill-rule="evenodd">
        <g id="expert-advice-nav" fill="#5C6670" fill-rule="nonzero">
            <path d="M1,19.2 C1.3643741,19.1977264 1.72708958,19.1507077 2.08,19.06 C2.92284817,18.879387 3.6288012,18.3071934 3.98,17.52 C4.21807574,16.992939 4.3310191,16.4179546 4.31,15.84 L4.31,6.34 C4.28651436,5.3783488 4.46007491,4.4220642 4.82,3.53 C5.41884282,2.04770738 6.63512048,0.900826948 8.15,0.39 C8.89223903,0.129659983 9.67343104,-0.00222957767 10.46,-2.7801395e-05 L13.96,-2.7801395e-05 L13.96,4 L11.32,4 C10.39,4 9.81,4.3 9.57,4.91 C9.32236247,5.54727364 9.20012441,6.226374 9.21,6.91 L9.21,15.91 C9.23244252,16.7349143 9.050362,17.5525589 8.68,18.29 C8.36565277,18.8959096 7.94184407,19.4383848 7.43,19.89 C6.98005011,20.3072396 6.46274982,20.6453443 5.9,20.89 C5.45648832,21.0921073 4.98412759,21.2236935 4.5,21.28 L4.5,21.37 C4.97669227,21.4267285 5.4459987,21.5339985 5.9,21.69 C6.46408961,21.8772345 6.98451116,22.1765619 7.43,22.57 C7.95191166,23.0434211 8.37650113,23.6140694 8.68,24.25 C9.06293783,25.1110808 9.24421118,26.0482298 9.21,26.99 L9.21,35.73 C9.19859849,36.4137503 9.320889,37.093142 9.57,37.73 C9.81,38.34 10.39,38.65 11.32,38.65 L13.96,38.65 L13.96,42.6500278 L10.46,42.6500278 C9.67343104,42.6522296 8.89223903,42.52034 8.15,42.26 C7.40868836,42.0145098 6.7272801,41.615886 6.15,41.09 C5.55858081,40.5284968 5.09477117,39.8464238 4.79,39.09 C4.42870236,38.1983333 4.25508966,37.2417614 4.28,36.28 L4.28,27.14 C4.30304439,26.5003739 4.19058488,25.8631033 3.95,25.27 C3.75678159,24.841242 3.47770116,24.4566555 3.13,24.14 C2.81752339,23.8753941 2.44778088,23.6870993 2.05,23.59 C1.6961711,23.5041503 1.33402355,23.4572052 0.97,23.45 L1,19.2 Z" id="Path"></path>
            <path d="M157.88,23.43 C157.509162,23.4341045 157.140043,23.4810833 156.78,23.57 C156.389168,23.6696284 156.026486,23.8578124 155.72,24.12 C155.372299,24.4366555 155.093218,24.821242 154.9,25.25 C154.659415,25.8431033 154.546956,26.4803739 154.57,27.12 L154.57,36.29 C154.59491,37.2517614 154.421298,38.2083333 154.06,39.1 C153.755229,39.8564238 153.291419,40.5384968 152.7,41.1 C152.12272,41.625886 151.441312,42.0245098 150.7,42.27 C149.957761,42.53034 149.176569,42.6622296 148.39,42.6600278 L144.89,42.6600278 L144.89,38.66 L147.52,38.66 C148.45,38.66 149.03,38.35 149.27,37.74 C149.519111,37.103142 149.641402,36.4237503 149.63,35.74 L149.63,27 C149.595789,26.0582298 149.777062,25.1210808 150.16,24.26 C150.463499,23.6240694 150.888088,23.0534211 151.41,22.58 C151.855489,22.1865619 152.37591,21.8872345 152.94,21.7 C153.394001,21.5439985 153.863308,21.4367285 154.34,21.38 L154.34,21.29 C153.855872,21.2336935 153.383512,21.1021073 152.94,20.9 C152.37725,20.6553443 151.85995,20.3172396 151.41,19.9 C150.898156,19.4483848 150.474347,18.9059096 150.16,18.3 C149.789638,17.5625589 149.607557,16.7449143 149.63,15.92 L149.63,6.92 C149.639876,6.236374 149.517638,5.55727364 149.27,4.92 C149.03,4.31 148.45,4.01 147.52,4.01 L144.92,4.01 L144.92,0.0099721986 L148.42,0.0099721986 C149.206569,0.00777042232 149.987761,0.139659983 150.73,0.4 C152.24488,0.910826948 153.461157,2.05770738 154.06,3.54 C154.419925,4.4320642 154.593486,5.3883488 154.57,6.35 L154.57,15.85 C154.548981,16.4279546 154.661924,17.002939 154.9,17.53 C155.249756,18.3103113 155.946101,18.8807213 156.78,19.07 C157.139109,19.1638366 157.508835,19.2108926 157.88,19.21 L157.88,23.43 Z" id="Path"></path>
            <path d="M24.65,21.23 L24.65,21.56 C24.65,21.67 24.65,21.79 24.65,21.9 L16.98,21.9 C17.0090591,22.2493286 17.1076576,22.5893236 17.27,22.9 C17.4263202,23.1991445 17.6444804,23.4616186 17.91,23.67 C18.1797581,23.891076 18.4837425,24.0667114 18.81,24.19 C19.1465968,24.3127745 19.5017233,24.3770355 19.86,24.38 C20.4138473,24.3950486 20.9630202,24.274917 21.46,24.03 C21.8938028,23.7901815 22.2614235,23.4466107 22.53,23.03 L24.21,24.38 C23.1899419,25.7263356 21.566379,26.4762491 19.88,26.38 C19.1444731,26.3874244 18.4133608,26.2655723 17.72,26.02 C17.0901199,25.8016337 16.5091629,25.4618928 16.01,25.02 C15.5164281,24.5578087 15.1276913,23.9951633 14.87,23.37 C14.3235035,21.9438963 14.3235035,20.3661037 14.87,18.94 C15.1272665,18.3024515 15.5117558,17.7240163 16,17.24 C16.4827834,16.7623658 17.0578085,16.3880891 17.69,16.14 C18.363733,15.8837631 19.0792035,15.7549106 19.8,15.76 C20.462211,15.7513625 21.1201941,15.8666792 21.74,16.1 C22.3211066,16.315071 22.84713,16.6566446 23.28,17.1 C23.7310576,17.5886423 24.0720605,18.1683471 24.28,18.8 C24.5469363,19.5815328 24.6722345,20.4044371 24.65,21.23 L24.65,21.23 Z M22.13,20.14 C22.1298906,19.8280359 22.0826923,19.5178754 21.99,19.22 C21.8228646,18.6262821 21.3911356,18.1428932 20.82,17.91 C20.485337,17.7672993 20.1236524,17.6990569 19.76,17.71 C19.0571737,17.6866001 18.3714332,17.9294665 17.84,18.39 C17.3189644,18.8278705 17.0007775,19.4606283 16.96,20.14 L22.13,20.14 Z" id="Shape"></path>
            <polygon id="Path" points="29.44 20.79 25.8 16.06 28.8 16.06 30.98 19.19 33.23 16.06 36.13 16.06 32.52 20.79 36.63 26.14 33.57 26.14 30.94 22.47 28.32 26.14 25.32 26.14"></polygon>
            <path d="M40.57,16.06 L40.57,17.47 L40.63,17.47 C40.7718292,17.2533618 40.9360674,17.0522538 41.12,16.87 C41.3453824,16.655266 41.5974508,16.4704158 41.87,16.32 C42.1882491,16.1516763 42.5234585,16.0175926 42.87,15.92 C43.2781874,15.8148756 43.6985298,15.7644345 44.12,15.77 C45.4575986,15.755846 46.7378568,16.3123219 47.64,17.3 C48.0787615,17.7901197 48.4183583,18.3606423 48.64,18.98 C48.8840645,19.6460541 49.006016,20.3506627 49,21.06 C49.0033458,21.7715262 48.8849725,22.4783835 48.65,23.15 C48.4283933,23.7753765 48.0889315,24.3524616 47.65,24.85 C46.7283992,25.8809535 45.4025435,26.4580477 44.02,26.43 C43.3276275,26.4465363 42.6415049,26.2955893 42.02,25.99 C41.4611199,25.7250137 40.9842921,25.3138361 40.64,24.8 L40.64,24.8 L40.64,31.14 L38.12,31.14 L38.12,16.06 L40.57,16.06 Z M46.45,21.06 C46.44836,20.6632311 46.3876959,20.2689141 46.27,19.89 C46.1488145,19.528107 45.9661386,19.1898183 45.73,18.89 C45.2003677,18.2332363 44.3932797,17.8630124 43.55,17.89 C43.1178261,17.8824337 42.6909202,17.9857174 42.31,18.19 C41.9560589,18.3799934 41.6406646,18.6343437 41.38,18.94 C41.124,19.2345671 40.9240426,19.573478 40.79,19.94 C40.6566544,20.3190822 40.5890158,20.71815 40.5899637,21.12 C40.5881664,21.5186593 40.6558463,21.9145864 40.79,22.29 C40.9252443,22.6559523 41.1250798,22.9946565 41.38,23.29 C41.6410722,23.592575 41.9565116,23.8435697 42.31,24.03 C42.6942191,24.2233251 43.1199892,24.3194667 43.55,24.31 C43.9944457,24.3243832 44.435153,24.2245354 44.83,24.02 C45.1806703,23.833607 45.4875084,23.5744994 45.73,23.26 C45.9760298,22.9480996 46.1593985,22.5915493 46.27,22.21 C46.3857525,21.837494 46.4463944,21.4500595 46.45,21.06 Z" id="Shape"></path>
            <path d="M61.06,21.23 L61.06,21.56 C61.0699504,21.6731149 61.0699504,21.7868851 61.06,21.9 L53.4,21.9 C53.425677,22.2486765 53.52088,22.5886875 53.68,22.9 C53.8394562,23.1970435 54.0571194,23.4589196 54.32,23.67 C54.591211,23.8889677 54.8948433,24.0643997 55.22,24.19 C55.5565968,24.3127745 55.9117233,24.3770355 56.27,24.38 C56.8239618,24.3962694 57.3734258,24.2760741 57.87,24.03 C58.3038028,23.7901815 58.6714235,23.4466107 58.94,23.03 L60.62,24.38 C59.6101183,25.7333884 57.9853397,26.4856007 56.3,26.38 C55.5611363,26.3883908 54.8265731,26.2665278 54.13,26.02 C53.5001199,25.8016337 52.9191629,25.4618928 52.42,25.02 C51.9295657,24.5572285 51.5442139,23.9945467 51.29,23.37 C50.7435035,21.9438963 50.7435035,20.3661037 51.29,18.94 C51.5399371,18.3010357 51.9215387,17.7218189 52.41,17.24 C52.8943403,16.7643005 53.4689473,16.3902959 54.1,16.14 C54.7739804,15.8846553 55.4892829,15.755833 56.21,15.76 C56.872211,15.7513625 57.5301941,15.8666792 58.15,16.1 C58.732921,16.3172859 59.2617537,16.6584683 59.7,17.1 C60.1442162,17.5936872 60.484327,18.1718756 60.7,18.8 C60.9583136,19.5833974 61.0800856,20.4053582 61.06,21.23 L61.06,21.23 Z M58.52,20.14 C58.5231311,19.8285439 58.4793057,19.5183944 58.39,19.22 C58.3013471,18.9334016 58.1550154,18.6679627 57.96,18.44 C57.7506748,18.2118493 57.4949487,18.0311362 57.21,17.91 C56.8756208,17.766367 56.5137279,17.6980853 56.15,17.71 C55.4471737,17.6866001 54.7614332,17.9294665 54.23,18.39 C53.708851,18.8266461 53.39352,19.4609327 53.36,20.14 L58.52,20.14 Z" id="Shape"></path>
            <path d="M63.52,16.06 L65.93,16.06 L65.93,17.74 L65.98,17.74 C66.2439022,17.1727551 66.6462455,16.6810021 67.15,16.31 C67.6683559,15.947981 68.2878376,15.7589866 68.92,15.77 L69.23,15.77 C69.3320511,15.7702714 69.4333771,15.787159 69.53,15.82 L69.53,18.14 C69.3853646,18.1031683 69.2383435,18.0764371 69.09,18.06 C68.9768721,18.0503492 68.8631279,18.0503492 68.75,18.06 C68.2662209,18.0386429 67.7857416,18.1492568 67.36,18.38 C67.0356221,18.5677268 66.75585,18.823616 66.54,19.13 C66.355462,19.408147 66.220155,19.7159704 66.14,20.04 C66.0806277,20.2790514 66.0471021,20.5237883 66.04,20.77 L66.04,26.14 L63.52,26.14 L63.52,16.06 Z" id="Path"></path>
            <path d="M70.26,18.08 L70.26,16.08 L72.03,16.08 L72.03,13.14 L74.52,13.14 L74.52,16.06 L77.04,16.06 L77.04,18.06 L74.52,18.06 L74.52,22.74 C74.5050976,23.1243202 74.5876586,23.5061649 74.76,23.85 C74.93,24.15 75.29,24.29 75.85,24.29 C76.0312362,24.2918437 76.2121835,24.2750893 76.39,24.24 C76.5730612,24.2107573 76.7513374,24.1569381 76.92,24.08 L77,26.08 C76.740115,26.1713393 76.4722935,26.2382947 76.2,26.28 C75.9090264,26.3269605 75.6147385,26.3503698 75.32,26.35 C74.7597508,26.3726431 74.2009997,26.2772466 73.68,26.07 C73.2834995,25.9031012 72.9384132,25.6339338 72.68,25.29 C72.4288572,24.9554879 72.2547083,24.5696286 72.17,24.16 C72.0793556,23.7056901 72.035792,23.2432453 72.04,22.78 L72.04,18.08 L70.26,18.08 Z" id="Path"></path>
            <path d="M90.36,24.86 L90.3,24.86 C90.0091937,25.3377012 89.5851551,25.7200311 89.08,25.96 C88.4873987,26.255469 87.8320491,26.4030085 87.17,26.39 C86.7416928,26.3891732 86.3151285,26.3354328 85.9,26.23 C85.4652666,26.1317674 85.0519256,25.9555893 84.68,25.71 C84.301657,25.4474672 83.9844345,25.1063677 83.75,24.71 C83.4965185,24.2590267 83.3719752,23.7470154 83.39,23.23 C83.3555255,22.5687722 83.5858293,21.9210428 84.03,21.43 C84.490166,20.9670282 85.056644,20.6237083 85.68,20.43 C86.3998188,20.1773359 87.1494367,20.0193447 87.91,19.96 C88.73,19.88 89.53,19.84 90.32,19.84 L90.32,19.59 C90.3567671,19.0335485 90.0937014,18.499792 89.63,18.19 C89.1475392,17.880504 88.5829658,17.7236781 88.01,17.74 C87.4777392,17.7371132 86.9515685,17.8532808 86.47,18.08 C86.0205066,18.2736965 85.6103795,18.5482445 85.26,18.89 L83.95,17.36 C84.5295243,16.8300282 85.2096605,16.4219465 85.95,16.16 C86.6827361,15.9030003 87.4535017,15.7711589 88.23,15.77 C88.9840167,15.7440087 89.7355662,15.8698338 90.44,16.14 C90.9713653,16.3617328 91.4438296,16.7040982 91.82,17.14 C92.1501288,17.5403649 92.3890083,18.0078862 92.52,18.51 C92.6505446,19.0027929 92.7177527,19.5102141 92.72,20.02 L92.72,26.14 L90.37,26.14 L90.36,24.86 Z M90.36,21.54 L89.79,21.54 C89.38,21.54 88.96,21.54 88.51,21.59 C88.0901971,21.6263551 87.6749156,21.7033831 87.27,21.82 C86.9222644,21.9243977 86.599156,22.0978559 86.32,22.33 C85.925223,22.7233598 85.8357503,23.3293342 86.1,23.82 C86.2082604,23.9769249 86.3478614,24.1097162 86.51,24.21 C86.6864788,24.312324 86.8793181,24.3833701 87.08,24.42 C87.2876446,24.4597761 87.49858,24.4798652 87.71,24.48 C88.4228725,24.5644137 89.135763,24.3225585 89.6501095,23.8217985 C90.164456,23.3210385 90.4253042,22.6148764 90.36,21.9 L90.36,21.54 Z" id="Shape"></path>
            <path d="M105.9,26.14 L103.52,26.14 L103.52,24.63 L103.52,24.63 C103.178147,25.2125066 102.669619,25.6792381 102.06,25.97 C101.438656,26.2781208 100.753523,26.4357013 100.06,26.43 C98.6774565,26.4580477 97.3516008,25.8809535 96.43,24.85 C95.9910685,24.3524616 95.6516067,23.7753765 95.43,23.15 C95.1950275,22.4783835 95.0766542,21.7715262 95.08,21.06 C95.073984,20.3506627 95.1959355,19.6460541 95.44,18.98 C95.6616417,18.3606423 96.0012385,17.7901197 96.44,17.3 C97.3421432,16.3123219 98.6224014,15.755846 99.96,15.77 C100.378211,15.7637619 100.795339,15.8142209 101.2,15.92 C101.546892,16.0121243 101.882331,16.1429454 102.2,16.31 C102.453493,16.4504506 102.688615,16.6217543 102.9,16.82 C103.078676,16.975113 103.239654,17.1495058 103.38,17.34 L103.45,17.34 L103.45,10.26 L105.97,10.26 L105.9,26.14 Z M97.6,21.06 C97.60164,21.4567689 97.6623041,21.8510859 97.78,22.23 C97.8906015,22.6115493 98.0739702,22.9680996 98.32,23.28 C98.5646416,23.5924351 98.8710046,23.8511417 99.22,24.04 C99.614847,24.2445354 100.055554,24.3443832 100.5,24.33 C100.930011,24.3394667 101.355781,24.2433251 101.74,24.05 C102.095242,23.866266 102.411161,23.6148897 102.67,23.31 C102.92492,23.0146565 103.124756,22.6759523 103.26,22.31 C103.394154,21.9345864 103.461834,21.5386593 103.460036,21.14 C103.460984,20.73815 103.393346,20.3390822 103.26,19.96 C103.125957,19.593478 102.926,19.2545671 102.67,18.96 C102.411563,18.6520629 102.095698,18.397333 101.74,18.21 C101.35908,18.0057174 100.932174,17.9024337 100.5,17.91 C100.056058,17.9007379 99.6165994,18.0003028 99.22,18.2 C98.8720807,18.3818141 98.5656323,18.6337828 98.32,18.94 C98.0838614,19.2398183 97.9011855,19.578107 97.78,19.94 C97.6670985,20.3028867 97.6064892,20.6800114 97.6,21.06 L97.6,21.06 Z" id="Shape"></path>
            <polygon id="Path" points="107.45 16.06 110.2 16.06 112.85 23.41 112.85 23.41 115.52 16.06 118.19 16.06 114.19 26.14 111.52 26.14"></polygon>
            <path d="M119.42,12.64 C119.416042,12.2394576 119.5791,11.8553668 119.87,11.58 C120.174753,11.2765445 120.590037,11.1104306 121.02,11.12 C121.449365,11.1091107 121.865867,11.2670943 122.18,11.56 C122.492517,11.8299679 122.665435,12.2273124 122.65,12.64 C122.66114,13.0518654 122.488988,13.4474493 122.18,13.72 C121.864864,14.0102012 121.44815,14.164673 121.02,14.15 C120.591291,14.1633852 120.175771,14.0007904 119.87,13.7 C119.581106,13.4232442 119.418435,13.0400641 119.42,12.64 L119.42,12.64 Z M119.78,16.06 L122.3,16.06 L122.3,26.14 L119.78,26.14 L119.78,16.06 Z" id="Shape"></path>
            <path d="M132.25,18.85 C132.022589,18.544054 131.719257,18.3027671 131.37,18.15 C130.99693,17.9654176 130.586235,17.8695889 130.17,17.87 C129.746386,17.8605234 129.327088,17.9567558 128.95,18.15 C128.610896,18.3323141 128.31436,18.5845405 128.08,18.89 C127.853285,19.1912291 127.680711,19.5296088 127.57,19.89 C127.459733,20.2703123 127.402525,20.6640329 127.4,21.06 C127.40164,21.4567689 127.462304,21.8510859 127.58,22.23 C127.701572,22.5897386 127.880551,22.927436 128.11,23.23 C128.355632,23.5362172 128.662081,23.7881859 129.01,23.97 C129.396649,24.1665251 129.826461,24.262803 130.26,24.25 C130.661461,24.2523919 131.059318,24.1741806 131.43,24.02 C131.799239,23.8825034 132.126544,23.6516668 132.38,23.35 L133.95,24.95 C133.499631,25.4006424 132.952425,25.742646 132.35,25.95 C131.673545,26.1940414 130.959106,26.3159362 130.24,26.31 C129.521936,26.3134743 128.808485,26.1951292 128.13,25.96 C127.481644,25.7319838 126.886299,25.3747767 126.38,24.91 C125.8783,24.4366921 125.479951,23.8647039 125.21,23.23 C124.911481,22.5181472 124.765017,21.7517666 124.78,20.98 C124.767951,20.2214341 124.914409,19.4687082 125.21,18.77 C125.478201,18.1397566 125.87303,17.571338 126.37,17.1 C126.864299,16.6321667 127.445159,16.2653084 128.08,16.02 C129.454015,15.5100078 130.968363,15.5278237 132.33,16.07 C132.965351,16.3080413 133.529712,16.7037821 133.97,17.22 L132.25,18.85 Z" id="Path"></path>
            <path d="M145.23,21.23 L145.23,21.56 C145.23,21.67 145.23,21.79 145.23,21.9 L137.52,21.9 C137.549059,22.2493286 137.647658,22.5893236 137.81,22.9 C137.96632,23.1991445 138.18448,23.4616186 138.45,23.67 C138.718263,23.8932287 139.022624,24.0690819 139.35,24.19 C139.670781,24.3072995 140.008552,24.3714759 140.35,24.38 C140.903847,24.3950486 141.45302,24.274917 141.95,24.03 C142.383803,23.7901815 142.751424,23.4466107 143.02,23.03 L144.7,24.38 C143.679942,25.7263356 142.056379,26.4762491 140.37,26.38 C139.634473,26.3874244 138.903361,26.2655723 138.21,26.02 C137.58012,25.8016337 136.999163,25.4618928 136.5,25.02 C136.006428,24.5578087 135.617691,23.9951633 135.36,23.37 C134.813503,21.9438963 134.813503,20.3661037 135.36,18.94 C135.617266,18.3024515 136.001756,17.7240163 136.49,17.24 C136.972783,16.7623658 137.547809,16.3880891 138.18,16.14 C138.853733,15.8837631 139.569203,15.7549106 140.29,15.76 C140.952211,15.7513625 141.610194,15.8666792 142.23,16.1 C142.811107,16.315071 143.33713,16.6566446 143.77,17.1 C144.221058,17.5886423 144.56206,18.1683471 144.77,18.8 C145.067588,19.5759253 145.223394,20.3989917 145.23,21.23 L145.23,21.23 Z M142.71,20.14 C142.709891,19.8280359 142.662692,19.5178754 142.57,19.22 C142.402865,18.6262821 141.971136,18.1428932 141.4,17.91 C141.065337,17.7672993 140.703652,17.6990569 140.34,17.71 C139.637174,17.6866001 138.951433,17.9294665 138.42,18.39 C137.891498,18.8242538 137.565823,19.4575112 137.52,20.14 L142.71,20.14 Z" id="Shape"></path>
        </g>
    </g>
</svg>