<svg xmlns="http://www.w3.org/2000/svg" xmlns:xlink="http://www.w3.org/1999/xlink" viewBox="0 0 2395.97 416.7"><defs><style>.cls-1{isolation:isolate;}.cls-2{fill:#fff;opacity:0.34;mix-blend-mode:soft-light;}.cls-3{fill:url(#linear-gradient);}.cls-4{fill:url(#linear-gradient-2);}.cls-5{fill:url(#linear-gradient-3);}.cls-6{fill:url(#linear-gradient-4);}.cls-7{fill:url(#linear-gradient-5);}.cls-8{fill:url(#linear-gradient-6);}.cls-9{fill:url(#linear-gradient-7);}.cls-10{fill:url(#linear-gradient-8);}.cls-11{fill:url(#linear-gradient-9);}.cls-12{fill:url(#linear-gradient-10);}.cls-13{fill:url(#linear-gradient-11);}.cls-14{fill:url(#linear-gradient-12);}.cls-15{fill:url(#linear-gradient-13);}.cls-16{fill:url(#linear-gradient-14);}.cls-17{fill:url(#linear-gradient-15);}.cls-18{fill:url(#linear-gradient-16);}.cls-19{fill:url(#linear-gradient-17);}.cls-20{fill:url(#linear-gradient-18);}.cls-21{fill:url(#linear-gradient-19);}.cls-22{fill:url(#linear-gradient-20);}.cls-23{fill:url(#linear-gradient-21);}.cls-24{fill:url(#linear-gradient-22);}.cls-25{fill:url(#linear-gradient-23);}.cls-26{fill:url(#linear-gradient-24);}.cls-27{fill:url(#linear-gradient-25);}.cls-28{fill:url(#linear-gradient-26);}.cls-29{fill:url(#linear-gradient-27);}.cls-30{fill:url(#linear-gradient-28);}.cls-31{fill:url(#linear-gradient-29);}.cls-32{fill:url(#linear-gradient-30);}.cls-33{fill:url(#linear-gradient-31);}.cls-34{fill:url(#linear-gradient-32);}.cls-35{fill:url(#linear-gradient-33);}.cls-36{fill:url(#linear-gradient-34);}.cls-37{fill:url(#linear-gradient-35);}.cls-38{fill:url(#linear-gradient-36);}.cls-39{fill:url(#linear-gradient-37);}.cls-40{fill:url(#linear-gradient-38);}.cls-41{fill:url(#linear-gradient-39);}.cls-42{fill:url(#linear-gradient-40);}.cls-43{fill:url(#linear-gradient-41);}.cls-44{fill:url(#linear-gradient-42);}.cls-45{fill:url(#linear-gradient-43);}.cls-46{fill:url(#linear-gradient-44);}.cls-47{fill:url(#linear-gradient-45);}.cls-48{fill:url(#linear-gradient-46);}.cls-49{fill:url(#linear-gradient-47);}.cls-50{fill:url(#linear-gradient-48);}.cls-51{fill:url(#linear-gradient-49);}.cls-52{fill:url(#linear-gradient-50);}.cls-53{fill:url(#linear-gradient-51);}.cls-54{fill:url(#linear-gradient-52);}.cls-55{fill:url(#linear-gradient-53);}.cls-56{fill:url(#linear-gradient-54);}.cls-57{fill:url(#linear-gradient-55);}.cls-58{fill:url(#linear-gradient-56);}.cls-59{fill:url(#linear-gradient-57);}.cls-60{fill:url(#linear-gradient-58);}.cls-61{fill:url(#linear-gradient-59);}.cls-62{fill:url(#linear-gradient-60);}.cls-63{fill:url(#linear-gradient-61);}.cls-64{fill:url(#linear-gradient-62);}.cls-65{fill:url(#linear-gradient-63);}.cls-66{fill:url(#linear-gradient-64);}.cls-67{fill:url(#linear-gradient-65);}.cls-68{fill:url(#linear-gradient-66);}.cls-69{fill:url(#linear-gradient-67);}.cls-70{fill:url(#linear-gradient-68);}.cls-71{fill:url(#linear-gradient-69);}.cls-72{fill:url(#linear-gradient-70);}.cls-73{fill:url(#linear-gradient-71);}</style><linearGradient id="linear-gradient" x1="964.81" y1="60.14" x2="-41.64" y2="438.12" gradientUnits="userSpaceOnUse"><stop offset="0" stop-color="#2aeaff"/><stop offset="0.11" stop-color="#2ee6fd"/><stop offset="0.23" stop-color="#3cdbf7"/><stop offset="0.36" stop-color="#51c9ed"/><stop offset="0.49" stop-color="#70b0de"/><stop offset="0.62" stop-color="#978fcc"/><stop offset="0.76" stop-color="#c767b6"/><stop offset="0.88" stop-color="#f83e9f"/><stop offset="0.99" stop-color="#f8ba69"/></linearGradient><linearGradient id="linear-gradient-2" x1="963.52" y1="56.69" x2="-42.93" y2="434.67" xlink:href="#linear-gradient"/><linearGradient id="linear-gradient-3" x1="973.6" y1="97.22" x2="-14.13" y2="468.17" xlink:href="#linear-gradient"/><linearGradient id="linear-gradient-4" x1="975.12" y1="115.17" x2="2.76" y2="480.35" xlink:href="#linear-gradient"/><linearGradient id="linear-gradient-5" x1="979.4" y1="99" x2="-27.05" y2="476.98" xlink:href="#linear-gradient"/><linearGradient id="linear-gradient-6" x1="906.7" y1="-94.59" x2="-99.75" y2="283.39" xlink:href="#linear-gradient"/><linearGradient id="linear-gradient-7" x1="978.85" y1="97.51" x2="-27.6" y2="475.49" xlink:href="#linear-gradient"/><linearGradient id="linear-gradient-8" x1="938.37" y1="-10.26" x2="-68.08" y2="367.72" xlink:href="#linear-gradient"/><linearGradient id="linear-gradient-9" x1="929.21" y1="-34.66" x2="-77.24" y2="343.32" xlink:href="#linear-gradient"/><linearGradient id="linear-gradient-10" x1="980.24" y1="101.22" x2="-26.21" y2="479.2" xlink:href="#linear-gradient"/><linearGradient id="linear-gradient-11" x1="952.7" y1="27.89" x2="-53.75" y2="405.87" xlink:href="#linear-gradient"/><linearGradient id="linear-gradient-12" x1="946.76" y1="12.09" x2="-59.68" y2="390.07" xlink:href="#linear-gradient"/><linearGradient id="linear-gradient-13" x1="940.83" y1="-3.71" x2="-65.62" y2="374.27" xlink:href="#linear-gradient"/><linearGradient id="linear-gradient-14" x1="949.73" y1="19.99" x2="-56.72" y2="397.97" xlink:href="#linear-gradient"/><linearGradient id="linear-gradient-15" x1="943.8" y1="4.19" x2="-62.65" y2="382.17" xlink:href="#linear-gradient"/><linearGradient id="linear-gradient-16" x1="992.01" y1="132.57" x2="-14.44" y2="510.55" xlink:href="#linear-gradient"/><linearGradient id="linear-gradient-17" x1="1006.78" y1="171.9" x2="0.34" y2="549.88" xlink:href="#linear-gradient"/><linearGradient id="linear-gradient-18" x1="998.88" y1="150.87" x2="-7.56" y2="528.85" xlink:href="#linear-gradient"/><linearGradient id="linear-gradient-19" x1="1014.68" y1="192.93" x2="8.23" y2="570.92" xlink:href="#linear-gradient"/><linearGradient id="linear-gradient-20" x1="997.87" y1="148.17" x2="-8.58" y2="526.15" xlink:href="#linear-gradient"/><linearGradient id="linear-gradient-21" x1="951.51" y1="24.71" x2="-54.94" y2="402.69" xlink:href="#linear-gradient"/><linearGradient id="linear-gradient-22" x1="947.47" y1="13.96" x2="-58.98" y2="391.94" xlink:href="#linear-gradient"/><linearGradient id="linear-gradient-23" x1="948.62" y1="17.03" x2="-57.82" y2="395.01" xlink:href="#linear-gradient"/><linearGradient id="linear-gradient-24" x1="949.78" y1="20.11" x2="-56.68" y2="398.09" xlink:href="#linear-gradient"/><linearGradient id="linear-gradient-25" x1="950.93" y1="23.18" x2="-55.52" y2="401.16" xlink:href="#linear-gradient"/><linearGradient id="linear-gradient-26" x1="1005.09" y1="163.57" x2="116.03" y2="497.46" xlink:href="#linear-gradient"/><linearGradient id="linear-gradient-27" x1="1031.74" y1="238.36" x2="25.29" y2="616.34" xlink:href="#linear-gradient"/><linearGradient id="linear-gradient-28" x1="1086.8" y1="384.96" x2="80.35" y2="762.94" xlink:href="#linear-gradient"/><linearGradient id="linear-gradient-29" x1="1050.01" y1="287" x2="43.56" y2="664.98" xlink:href="#linear-gradient"/><linearGradient id="linear-gradient-30" x1="1061.63" y1="317.95" x2="55.18" y2="695.93" xlink:href="#linear-gradient"/><linearGradient id="linear-gradient-31" x1="1046.4" y1="277.39" x2="39.95" y2="655.37" xlink:href="#linear-gradient"/><linearGradient id="linear-gradient-32" x1="1015.81" y1="195.93" x2="9.36" y2="573.91" xlink:href="#linear-gradient"/><linearGradient id="linear-gradient-33" x1="906.72" y1="-94.54" x2="-99.73" y2="283.45" xlink:href="#linear-gradient"/><linearGradient id="linear-gradient-34" x1="2503.18" y1="-43.34" x2="1496.73" y2="334.64" xlink:href="#linear-gradient"/><linearGradient id="linear-gradient-35" x1="2501.89" y1="-46.78" x2="1495.44" y2="331.2" xlink:href="#linear-gradient"/><linearGradient id="linear-gradient-36" x1="2582.18" y1="95.12" x2="1575.73" y2="473.1" xlink:href="#linear-gradient"/><linearGradient id="linear-gradient-37" x1="2589.11" y1="113.56" x2="1582.66" y2="491.54" xlink:href="#linear-gradient"/><linearGradient id="linear-gradient-38" x1="2583.64" y1="99" x2="1577.19" y2="476.98" xlink:href="#linear-gradient"/><linearGradient id="linear-gradient-39" x1="2483.93" y1="-94.59" x2="1477.49" y2="283.39" xlink:href="#linear-gradient"/><linearGradient id="linear-gradient-40" x1="2518.08" y1="97.51" x2="1511.63" y2="475.49" xlink:href="#linear-gradient"/><linearGradient id="linear-gradient-41" x1="2542.6" y1="-10.26" x2="1536.15" y2="367.72" xlink:href="#linear-gradient"/><linearGradient id="linear-gradient-42" x1="2533.44" y1="-34.66" x2="1526.99" y2="343.32" xlink:href="#linear-gradient"/><linearGradient id="linear-gradient-43" x1="2519.47" y1="101.22" x2="1513.02" y2="479.2" xlink:href="#linear-gradient"/><linearGradient id="linear-gradient-44" x1="2556.93" y1="27.89" x2="1550.48" y2="405.87" xlink:href="#linear-gradient"/><linearGradient id="linear-gradient-45" x1="2551" y1="12.09" x2="1544.55" y2="390.07" xlink:href="#linear-gradient"/><linearGradient id="linear-gradient-46" x1="2545.06" y1="-3.71" x2="1538.62" y2="374.27" xlink:href="#linear-gradient"/><linearGradient id="linear-gradient-47" x1="2553.96" y1="19.99" x2="1547.51" y2="397.97" xlink:href="#linear-gradient"/><linearGradient id="linear-gradient-48" x1="2548.03" y1="4.19" x2="1541.58" y2="382.17" xlink:href="#linear-gradient"/><linearGradient id="linear-gradient-49" x1="2596.25" y1="132.57" x2="1589.8" y2="510.55" xlink:href="#linear-gradient"/><linearGradient id="linear-gradient-50" x1="2611.02" y1="171.9" x2="1604.57" y2="549.88" xlink:href="#linear-gradient"/><linearGradient id="linear-gradient-51" x1="2603.12" y1="150.87" x2="1596.67" y2="528.85" xlink:href="#linear-gradient"/><linearGradient id="linear-gradient-52" x1="2618.92" y1="192.93" x2="1612.47" y2="570.92" xlink:href="#linear-gradient"/><linearGradient id="linear-gradient-53" x1="2515.37" y1="-10.89" x2="1508.92" y2="367.09" xlink:href="#linear-gradient"/><linearGradient id="linear-gradient-54" x1="2528.74" y1="24.71" x2="1522.29" y2="402.69" xlink:href="#linear-gradient"/><linearGradient id="linear-gradient-55" x1="2511.33" y1="-21.64" x2="1504.89" y2="356.34" xlink:href="#linear-gradient"/><linearGradient id="linear-gradient-56" x1="2512.48" y1="-18.57" x2="1506.04" y2="359.41" xlink:href="#linear-gradient"/><linearGradient id="linear-gradient-57" x1="2513.64" y1="-15.5" x2="1507.18" y2="362.49" xlink:href="#linear-gradient"/><linearGradient id="linear-gradient-58" x1="2514.79" y1="-12.42" x2="1508.35" y2="365.55" xlink:href="#linear-gradient"/><linearGradient id="linear-gradient-59" x1="2524.7" y1="13.96" x2="1518.26" y2="391.94" xlink:href="#linear-gradient"/><linearGradient id="linear-gradient-60" x1="2525.85" y1="17.03" x2="1519.41" y2="395.01" xlink:href="#linear-gradient"/><linearGradient id="linear-gradient-61" x1="2527.01" y1="20.11" x2="1520.55" y2="398.09" xlink:href="#linear-gradient"/><linearGradient id="linear-gradient-62" x1="2528.16" y1="23.18" x2="1521.72" y2="401.16" xlink:href="#linear-gradient"/><linearGradient id="linear-gradient-63" x1="2527.93" y1="188.58" x2="1655.74" y2="516.14" xlink:href="#linear-gradient"/><linearGradient id="linear-gradient-64" x1="2635.97" y1="238.36" x2="1629.52" y2="616.34" xlink:href="#linear-gradient"/><linearGradient id="linear-gradient-65" x1="2691.03" y1="384.96" x2="1684.58" y2="762.94" xlink:href="#linear-gradient"/><linearGradient id="linear-gradient-66" x1="2654.24" y1="287" x2="1647.79" y2="664.98" xlink:href="#linear-gradient"/><linearGradient id="linear-gradient-67" x1="2665.87" y1="317.95" x2="1659.41" y2="695.93" xlink:href="#linear-gradient"/><linearGradient id="linear-gradient-68" x1="2650.64" y1="277.39" x2="1644.18" y2="655.37" xlink:href="#linear-gradient"/><linearGradient id="linear-gradient-69" x1="2620.04" y1="195.93" x2="1613.59" y2="573.91" xlink:href="#linear-gradient"/><linearGradient id="linear-gradient-70" x1="2510.95" y1="-94.54" x2="1504.5" y2="283.45" xlink:href="#linear-gradient"/><linearGradient id="linear-gradient-71" x1="2025.44" y1="369.04" x2="1668.36" y2="503.14" gradientUnits="userSpaceOnUse"><stop offset="0.88" stop-color="#f83e9f"/><stop offset="0.99" stop-color="#f8ba69"/></linearGradient></defs><title>expert-full-hero-graphics</title><g class="cls-1"><g id="Layer_1" data-name="Layer 1"><path class="cls-2" d="M228.37,295.16h12a2.5,2.5,0,0,1,0,5h-12a2.5,2.5,0,1,1,0-5Zm-24,0h12a2.5,2.5,0,0,1,0,5h-12a2.5,2.5,0,0,1,0-5Zm-24,0h12a2.5,2.5,0,0,1,0,5h-12a2.5,2.5,0,0,1,0-5Zm-24,0h12a2.5,2.5,0,0,1,0,5h-12a2.5,2.5,0,0,1,0-5Zm-26.5,2.5a2.5,2.5,0,0,1,2.5-2.5h12a2.5,2.5,0,0,1,0,5h-12A2.5,2.5,0,0,1,129.87,297.66Z" transform="translate(-42.7 -111.69)"/><path class="cls-3" d="M64.74,395.57H91.91a2.5,2.5,0,1,0,0-5H64.74a2.5,2.5,0,1,0,0,5Z" transform="translate(-42.7 -111.69)"/><path class="cls-4" d="M107.05,385a2.5,2.5,0,0,0-2.5-2.5H74.11a2.5,2.5,0,0,0,0,5h30.44l.24,0A2.49,2.49,0,0,0,107.05,385Z" transform="translate(-42.7 -111.69)"/><path class="cls-5" d="M669.92,178.92c-7.2,2-12.45,8-12.45,15v44.42c0,8.68,7.89,15.73,17.6,15.73h42.41c9.71,0,17.61-7.05,17.61-15.73v-18h10.09a2.5,2.5,0,0,0,0-5H735.09V194a14.25,14.25,0,0,0-2-7.22,17.33,17.33,0,0,0-10.47-7.82c.17-1.72.26-3.47.26-5.21,0-1.07,0-2.13-.1-3.16-1.14-17.5-11.72-29.46-26.52-29.46-12.85,0-22.51,9-25.59,22.82a45,45,0,0,0-1,9.8A50.21,50.21,0,0,0,669.92,178.92Zm26.36-33.36c12.73,0,21.62,11.58,21.62,28.15,0,1.52-.07,3-.21,4.54-.31,0-.63,0-.94,0h-7.67a32.39,32.39,0,0,0,.32-4.52c0-10.71-2.23-17.84-13.12-17.84-11.26,0-12.18,8.08-12.18,17.84a21.66,21.66,0,0,1-.17,2.36c-.07.71-.15,1.43-.17,2.16h-8c-.32,0-.63,0-.94,0-.15-1.5-.22-3-.22-4.54C674.65,157.14,683.54,145.56,696.28,145.56Zm33.81,92.82c0,6.21-5.65,11.26-12.61,11.26H675.07c-7,0-12.6-5-12.6-11.26V194c0-5.4,4.26-9.91,9.93-11a2.36,2.36,0,0,0,.75,0,14.7,14.7,0,0,1,2.66-.24h40.94a14.78,14.78,0,0,1,2.66.24,2.83,2.83,0,0,0,.5,0l.26,0c5.66,1.1,9.92,5.61,9.92,11Zm-41-64.67c0-4.74.32-7.81,1-9.8,1.07-3.11,3.06-3.57,6.17-3.57,2.94,0,5.34.37,6.76,3.58.87,2,1.36,5.05,1.36,9.79a27.12,27.12,0,0,1-.38,4.52H688.77c0-.56.08-1.14.14-1.74A26.79,26.79,0,0,0,689.1,173.71Z" transform="translate(-42.7 -111.69)"/><path class="cls-6" d="M708,210.73c0-5.91-5.28-10.72-11.76-10.72s-11.76,4.81-11.76,10.72a10.42,10.42,0,0,0,5,8.8l-5.81,9.56a5.17,5.17,0,0,0,.13,5.67,6.56,6.56,0,0,0,5.52,2.8h13.8a6.57,6.57,0,0,0,5.52-2.8,5.17,5.17,0,0,0,.12-5.67h0L703,219.53A10.43,10.43,0,0,0,708,210.73Zm-3.64,21.74a1.41,1.41,0,0,1-1.22.63h-13.8a1.45,1.45,0,0,1-1.23-.63,1.13,1.13,0,0,1,0-1.25l7-11.51a2,2,0,0,0,.15-1.83,2.37,2.37,0,0,0-1.42-1.31,6.25,6.25,0,0,1-4.33-5.84,6.78,6.78,0,0,1,13.52,0,6.25,6.25,0,0,1-4.34,5.84,2.37,2.37,0,0,0-1.42,1.31,2,2,0,0,0,.16,1.83l7,11.51h0A1.13,1.13,0,0,1,704.4,232.47Z" transform="translate(-42.7 -111.69)"/><path class="cls-7" d="M233.89,397.6a2.47,2.47,0,0,0,.92.18,2.5,2.5,0,0,0,.92-4.83l-43.06-17.11a2.5,2.5,0,1,0-1.84,4.64Z" transform="translate(-42.7 -111.69)"/><path class="cls-8" d="M258,150.28a3.34,3.34,0,1,0-3.34,3.34A3.34,3.34,0,0,0,258,150.28Z" transform="translate(-42.7 -111.69)"/><path class="cls-9" d="M410.3,221c-14.89,4.56-23.29,3.77-28.93,2.87l-1.64-.27a25.79,25.79,0,0,0-4.74-.54,7.09,7.09,0,0,0-4,1.22c-1.08.74-2.88,2-2.91,16.38a292.93,292.93,0,0,0,1.84,30.8c1.46,13.59,6,47.16,16.24,65.29,17.21,30.42,45.43,55.28,66,58.28a2.36,2.36,0,0,0,.57.18l.18,0,.3,0h.21l.25,0,.25,0h.21a2.4,2.4,0,0,0,1.05-.23c20.58-3,48.8-27.86,66-58.28,10.25-18.13,14.77-51.7,16.24-65.29a292.93,292.93,0,0,0,1.84-30.8c0-14.4-1.83-15.64-2.91-16.38-2.54-1.75-5.29-1.28-8.77-.68-5.65,1-14.18,2.42-30.57-2.6s-28.34-12.94-35.5-17.68a56.81,56.81,0,0,0-5.81-3.6,3.16,3.16,0,0,0-2-.62h-.22a3.73,3.73,0,0,0-.46,0l-.19,0a3.81,3.81,0,0,0-.45.13l-.17.07a2.8,2.8,0,0,0-.56.32l-.55.29c-1.34.71-3.06,1.85-5.25,3.31a167.8,167.8,0,0,1-16.6,10A114.63,114.63,0,0,1,410.3,221Zm118.11,7.53c2.57-.44,4-.66,4.84-.27,3.13,7.14-.52,77.89-16.43,106-15.77,27.87-41.89,51.59-60.67,55.48V341.33a41,41,0,0,1-4.73.28h-.27v48.18c-18.79-3.89-44.9-27.62-60.67-55.49-.25-.44-.49-.89-.73-1.35-12.87-24.38-17.38-76.86-16.65-97.08.14-3.82.46-6.49.95-7.6a1.8,1.8,0,0,1,.35-.12c.88-.21,2.24,0,4.49.39,5.74,1,15.34,2.62,32.87-2.75,17.05-5.21,29.41-13.4,36.8-18.3l2.59-1.7v53h.27a43.39,43.39,0,0,1,4.73.27V205.78l2.59,1.7c7.39,4.9,19.75,13.09,36.8,18.3C513.06,231.14,522.67,229.51,528.41,228.53Z" transform="translate(-42.7 -111.69)"/><path class="cls-10" d="M109.57,317.18a15.17,15.17,0,0,0-8.64,2.5,8.89,8.89,0,0,0-4.07,7.11l-.06,6.36c0,5.45,5.47,9.77,12.55,9.83a15.41,15.41,0,0,0,2.15-.12,8.34,8.34,0,0,0,7.93,6h.07a8.34,8.34,0,0,0,8.32-8.25l.43-50.18a23,23,0,0,0,14.63-21.07A22.77,22.77,0,0,0,97.35,269a22.93,22.93,0,0,0,14.26,21.31l0,2.83-.21,24.15A15.57,15.57,0,0,0,109.57,317.18Zm6.78,3.25.28-31.85a2.49,2.49,0,0,0-1.76-2.41,17.76,17.76,0,0,1,5.24-34.73h.16a17.77,17.77,0,0,1,17.61,17.91,17.87,17.87,0,0,1-12.81,16.9,2.51,2.51,0,0,0-1.8,2.38l-.45,52a3.32,3.32,0,0,1-3.32,3.29h0a3.32,3.32,0,0,1-3.29-3.35v-.69a2.51,2.51,0,0,0-1-2,2.46,2.46,0,0,0-1.47-.48,2.59,2.59,0,0,0-.78.12,10.93,10.93,0,0,1-3.52.53c-4.06,0-7.61-2.27-7.59-4.78l.06-6.37a4.05,4.05,0,0,1,1.94-3.05,10.06,10.06,0,0,1,5.73-1.6,11.09,11.09,0,0,1,3.51.59,2.49,2.49,0,0,0,3.31-2.34Z" transform="translate(-42.7 -111.69)"/><path class="cls-11" d="M120,279.94h.1a10.75,10.75,0,0,0,.09-21.49h-.1a10.75,10.75,0,0,0-.09,21.49Zm.1-16.49h0a5.74,5.74,0,0,1,4,9.84,5.74,5.74,0,1,1-4-9.84Z" transform="translate(-42.7 -111.69)"/><path class="cls-12" d="M492.86,300.17a41.33,41.33,0,0,0-11.85-29l16-28.38a2.5,2.5,0,0,0-4.35-2.45l-15.44,27.4A41.3,41.3,0,0,0,456.15,259a43.39,43.39,0,0,0-4.73-.27h-.27a41.44,41.44,0,0,0,0,82.87h.27a41,41,0,0,0,4.73-.28A41.49,41.49,0,0,0,492.86,300.17Zm-41.44-36.44a36.25,36.25,0,0,1,23.29,8.44l-22.17,39.34-16.36-18.86a2.5,2.5,0,1,0-3.78,3.27l18.69,21.55a2.51,2.51,0,0,0,1.89.86h.25a2.5,2.5,0,0,0,1.93-1.26l23.28-41.32a36.43,36.43,0,1,1-27-12Z" transform="translate(-42.7 -111.69)"/><path class="cls-13" d="M228.37,300.16h12a2.5,2.5,0,0,0,0-5h-12a2.5,2.5,0,1,0,0,5Z" transform="translate(-42.7 -111.69)"/><path class="cls-14" d="M180.37,300.16h12a2.5,2.5,0,0,0,0-5h-12a2.5,2.5,0,0,0,0,5Z" transform="translate(-42.7 -111.69)"/><path class="cls-15" d="M146.87,297.66a2.5,2.5,0,0,0-2.5-2.5h-12a2.5,2.5,0,0,0,0,5h12A2.5,2.5,0,0,0,146.87,297.66Z" transform="translate(-42.7 -111.69)"/><path class="cls-16" d="M204.37,300.16h12a2.5,2.5,0,0,0,0-5h-12a2.5,2.5,0,0,0,0,5Z" transform="translate(-42.7 -111.69)"/><path class="cls-17" d="M156.37,300.16h12a2.5,2.5,0,0,0,0-5h-12a2.5,2.5,0,0,0,0,5Z" transform="translate(-42.7 -111.69)"/><path class="cls-18" d="M767.19,222.38a2.48,2.48,0,0,0,2.26-1.46,2.37,2.37,0,0,0,.24-1v-2a2.5,2.5,0,0,0-2.5-2.5h-10a2.5,2.5,0,0,0,0,5h7.56a2.35,2.35,0,0,0,.14.45A2.49,2.49,0,0,0,767.19,222.38Z" transform="translate(-42.7 -111.69)"/><path class="cls-19" d="M767.19,270.38a2.49,2.49,0,0,0,2.5-2.5v-12a2.5,2.5,0,0,0-5,0v12A2.49,2.49,0,0,0,767.19,270.38Z" transform="translate(-42.7 -111.69)"/><path class="cls-20" d="M767.19,246.38a2.49,2.49,0,0,0,2.5-2.5v-12a2.5,2.5,0,0,0-5,0v12A2.49,2.49,0,0,0,767.19,246.38Z" transform="translate(-42.7 -111.69)"/><path class="cls-21" d="M764.69,291.88a2.5,2.5,0,1,0,5,0v-12a2.5,2.5,0,0,0-5,0Z" transform="translate(-42.7 -111.69)"/><path class="cls-22" d="M117.34,490.48a6.44,6.44,0,0,0,6.42,6.43A6.43,6.43,0,0,0,127,496l24.31-14a6.42,6.42,0,0,0,0-11.12l-24.31-14h0a6.42,6.42,0,0,0-9.63,5.56Zm5.71-29.3a1.53,1.53,0,0,1,.72-.19,1.42,1.42,0,0,1,.7.19h0l24.31,14a1.42,1.42,0,0,1,0,2.46l-24.31,14a1.38,1.38,0,0,1-1.42,0,1.4,1.4,0,0,1-.71-1.23V462.41A1.41,1.41,0,0,1,123.05,461.18Z" transform="translate(-42.7 -111.69)"/><path class="cls-23" d="M609.13,152.31h-69.6a14.06,14.06,0,1,0,0,28.11h69.6a14.06,14.06,0,0,0,0-28.11Zm9,14.06a9.06,9.06,0,0,1-9,9h-69.6a9.06,9.06,0,1,1,0-18.11h69.6A9.06,9.06,0,0,1,618.18,166.37Z" transform="translate(-42.7 -111.69)"/><path class="cls-24" d="M541.66,163.6a2.77,2.77,0,1,0,2.77,2.77A2.76,2.76,0,0,0,541.66,163.6Z" transform="translate(-42.7 -111.69)"/><path class="cls-25" d="M551,163.6a2.77,2.77,0,1,0,2.77,2.77A2.77,2.77,0,0,0,551,163.6Z" transform="translate(-42.7 -111.69)"/><path class="cls-26" d="M560.33,163.6a2.77,2.77,0,1,0,2.76,2.77A2.77,2.77,0,0,0,560.33,163.6Z" transform="translate(-42.7 -111.69)"/><path class="cls-27" d="M569.66,163.6a2.77,2.77,0,1,0,2.77,2.77A2.76,2.76,0,0,0,569.66,163.6Z" transform="translate(-42.7 -111.69)"/><path class="cls-28" d="M831.94,523.39H824l-.13-81.12v-119a9.68,9.68,0,0,0-9.67-9.67H769.69v-9.7a2.5,2.5,0,0,0-5,0v9.7H720.15a9.68,9.68,0,0,0-9.67,9.67V393a2.49,2.49,0,0,0,2.5,2.5h0a2.49,2.49,0,0,0,2.5-2.5V357.37H818.89v84.9h-8.12a4.12,4.12,0,0,0-4.11,4.11v37.27H715.48V411.7a2.5,2.5,0,0,0-2.5-2.5h0a2.5,2.5,0,0,0-2.5,2.5V517.77a9.62,9.62,0,0,0,1.82,5.62h-20V460c0-.06,0-.11,0-.17l0-.27a2,2,0,0,0-.06-.23,2,2,0,0,0-.07-.23c0-.08-.07-.15-.1-.22a1.05,1.05,0,0,0-.12-.21,1.43,1.43,0,0,0-.14-.2l-.15-.19-.2-.18-.12-.11-52.15-38.85V254.34a12.23,12.23,0,0,0-12.21-12.22H568.63c.51-8,.78-15.43.77-22,0-19.15-2.43-20.79-3.58-21.57h0c-3.16-2.18-6.57-1.59-11.29-.79-7.3,1.25-19.52,3.33-42.07-3.56S473.65,176.51,463.85,170a78.62,78.62,0,0,0-7.9-4.88,3.83,3.83,0,0,0-2.3-.71,3.7,3.7,0,0,0-2.3.71,76.41,76.41,0,0,0-7.9,4.88c-9.8,6.49-26.2,17.36-48.62,24.22-13,4-22.56,5-29.74,4.85a29,29,0,0,0-41.54-25.78,44.79,44.79,0,0,0-59.38-31.45,2.5,2.5,0,0,0-1.45,3.22,2.42,2.42,0,0,0,.33.59,2.49,2.49,0,0,0,2.89.86,39.79,39.79,0,0,1,53.35,31,2.5,2.5,0,0,0,3.82,1.72,24,24,0,0,1,37,19.54c-2.9-.27-5.3-.67-7.32-1-4.73-.8-8.14-1.39-11.3.79-1.08.74-3.28,2.27-3.54,18.76H209.72a29,29,0,0,1,17.81-51.86,28.64,28.64,0,0,1,12.89,3,2.51,2.51,0,0,0,3.39-1.21c.58-1.28.95-2.24,1.25-3a10.2,10.2,0,0,1,2.86-4.45,2.51,2.51,0,0,0,.19-3.2,3.17,3.17,0,0,0-.3-.34,2.5,2.5,0,0,0-3.53.11,15,15,0,0,0-3.89,6.09l-.17.45a33.61,33.61,0,0,0-12.69-2.46,34,34,0,0,0-20.13,61.38,2.54,2.54,0,0,0,1.48.48h129c0,6,.3,12.7.76,19.77H275.31a12.23,12.23,0,0,0-12.21,12.22v40.82H252.37a2.5,2.5,0,1,0,0,5H263.1v41.43l-8.82-3.53a2.5,2.5,0,0,0-3.25,1.39l-4.6,11.46-20.28-8.14a2.5,2.5,0,0,0-3.25,1.39l-8.49,21.17-28.64-11.49a2.53,2.53,0,0,0-1.91,0,2.57,2.57,0,0,0-1.34,1.37l-11,27.43H149.37a12.54,12.54,0,0,0-12.52,12.52v17.17a10.75,10.75,0,0,0-.31,2.49v10.88c-1.17-.08-2.35-.13-3.53-.13a51,51,0,0,0-48.8,36.53c-.2.69-.39,1.37-.56,2.07a50.8,50.8,0,0,0,29.78,59.2H45.2a2.5,2.5,0,0,0,0,5H831.94a2.5,2.5,0,0,0,0-5ZM133,430.59a45.86,45.86,0,1,1-45.87,45.86A45.91,45.91,0,0,1,133,430.59Zm16.36-42.93h20.14l-6.75,16.83H146.89a10.36,10.36,0,0,0-5,1.31V395.18A7.53,7.53,0,0,1,149.37,387.66ZM344.48,202.59c1.42-.84,3.47-.54,7.44.14,7.75,1.32,20.7,3.53,44.38-3.71,23.11-7.07,39.89-18.19,49.91-24.83a72.05,72.05,0,0,1,7.44-4.61,72.05,72.05,0,0,1,7.44,4.61c10,6.64,26.8,17.76,49.91,24.83,23.68,7.24,36.63,5,44.37,3.71,4-.68,6-1,7.44-.14,2,3.48,2.59,28-1.11,60.9-4.2,37.46-11.92,68.33-21.18,84.71C518,388,480,421.65,454,424.8a3,3,0,0,0-.32.06h0a3,3,0,0,0-.32-.06c-26-3.15-64-36.8-86.54-76.6-9.26-16.38-17-47.25-21.19-84.71C341.9,230.55,342.46,206.06,344.48,202.59Zm289.65,51.75v4.9H567.19c.41-4.09.78-8.15,1.08-12.12h58.65A7.22,7.22,0,0,1,634.13,254.34Zm-294,4.9h-72v-4.9a7.22,7.22,0,0,1,7.21-7.22H339C339.33,251.09,339.69,255.15,340.11,259.24Zm-72,5h72.55c2.22,19.67,8.41,62.78,21.78,86.42a213.71,213.71,0,0,0,42.66,53c16.67,14.86,33.24,24.05,46.78,26a2.48,2.48,0,0,0,1.37.28l.41-.05.41.05h.21a2.43,2.43,0,0,0,1.16-.29c13.54-1.93,30.1-11.12,46.78-26a213.71,213.71,0,0,0,42.66-53c13.37-23.64,19.56-66.75,21.78-86.42h67.48V418.91l-27.74,20.67H321.45v-44.4a12.46,12.46,0,0,0-4.27-9.39L324,368.73a2.5,2.5,0,0,0-1.39-3.25L268.1,343.6ZM715.48,517.77V488.65h91.18V504.8a4.12,4.12,0,0,0,4.11,4.11h8.12v8.86a4.68,4.68,0,0,1-4.67,4.67H720.15A4.68,4.68,0,0,1,715.48,517.77ZM141.54,414.84a5.36,5.36,0,0,1,5.35-5.35H311.1a5.36,5.36,0,0,1,5.35,5.35V517.17a5.36,5.36,0,0,1-5.35,5.35H154.53a50.84,50.84,0,0,0-13-96.2Zm495.09,78.67-41.31-31H678ZM591.07,523.2l34-32.1,10,7.53a2.46,2.46,0,0,0,1.5.5,2.49,2.49,0,0,0,1.5-.49l11.61-8.7L684,523.2ZM321.45,461.7h78.07v44.06H350a10.93,10.93,0,0,0-8.66,17.63h-22a10.25,10.25,0,0,0,2.1-6.22Zm173.22,44.06H404.52V462.18h90.15Zm57.59,16.9H350a5.95,5.95,0,0,1,0-11.9H552.26a6,6,0,0,1,0,11.9Zm33.39-60.14H587l34,25.54-35.38,33.39Zm-264.2-5.82V444.58H599.68L583.41,456.7Zm230.81,49.06H499.67V461.7h81v61.69H560.92a10.93,10.93,0,0,0-8.66-17.63ZM315.12,390.92a7.45,7.45,0,0,1,1.33,4.26V406a10.25,10.25,0,0,0-5.35-1.5h-1.42Zm338.67,96,32.55-24.38h.94v56.94Zm-63.1-29.38,45.77-34.11,45.78,34.11ZM318.45,369.19l-14.16,35.3H283.44l12.45-31a2.5,2.5,0,0,0-1.39-3.25l-43.43-17.43,3.67-9.14Zm-28.13,4.72-12.27,30.58H247.5l8-20a2.5,2.5,0,0,0-1.39-3.25l-35.08-14.08,7.56-18.84ZM249.94,385l-7.82,19.51H231.47a2.5,2.5,0,0,0-.93-.66l-43.06-17.11a2.5,2.5,0,1,0-1.84,4.64l33,13.13h-19l-17.34-6.9a2.5,2.5,0,0,0-1.85,4.65l5.65,2.25H168.15l18.08-45.08Zm465.54-61.73a4.68,4.68,0,0,1,4.67-4.67h94.07a4.67,4.67,0,0,1,4.67,4.67v29.12H715.48Z" transform="translate(-42.7 -111.69)"/><path class="cls-29" d="M753.76,339.46h30.83a2.5,2.5,0,0,0,0-5H753.76a2.5,2.5,0,0,0,0,5Z" transform="translate(-42.7 -111.69)"/><path class="cls-30" d="M761.72,506.56h15.91a2.5,2.5,0,0,0,0-5H761.72a2.5,2.5,0,0,0,0,5Z" transform="translate(-42.7 -111.69)"/><path class="cls-31" d="M734.87,405.11h67.62a6.49,6.49,0,0,0,6.48-6.49V386.7a6.49,6.49,0,0,0-6.48-6.49H734.87a6.5,6.5,0,0,0-6.49,6.49v11.92A6.5,6.5,0,0,0,734.87,405.11Zm-1.49-6.49V386.7a1.51,1.51,0,0,1,1.49-1.49h67.62A1.51,1.51,0,0,1,804,386.7v11.92a1.5,1.5,0,0,1-1.48,1.49H734.87A1.51,1.51,0,0,1,733.38,398.62Z" transform="translate(-42.7 -111.69)"/><path class="cls-32" d="M802.49,415.52H734.87a6.5,6.5,0,0,0-6.49,6.49v11.92a6.49,6.49,0,0,0,6.49,6.48h67.62a6.48,6.48,0,0,0,6.48-6.48V422A6.49,6.49,0,0,0,802.49,415.52ZM804,433.93a1.5,1.5,0,0,1-1.48,1.48H734.87a1.5,1.5,0,0,1-1.49-1.48V422a1.51,1.51,0,0,1,1.49-1.49h67.62A1.5,1.5,0,0,1,804,422Z" transform="translate(-42.7 -111.69)"/><path class="cls-33" d="M715.75,402.61a2.77,2.77,0,1,0-2.77,2.76A2.77,2.77,0,0,0,715.75,402.61Z" transform="translate(-42.7 -111.69)"/><path class="cls-34" d="M680.18,312.19a15.12,15.12,0,1,0,6.71,9.43A15,15,0,0,0,680.18,312.19Zm-17.89,15.07a10.13,10.13,0,0,1,7.6-12.13,10.42,10.42,0,0,1,2.28-.26,10.12,10.12,0,1,1-9.88,12.39Z" transform="translate(-42.7 -111.69)"/><path class="cls-35" d="M141.89,200.09a11.4,11.4,0,1,0-5.06-7.11A11.37,11.37,0,0,0,141.89,200.09Zm4.63-15.91A6.42,6.42,0,0,1,148,184a6.41,6.41,0,0,1,6.23,5,6.41,6.41,0,1,1-7.67-4.82Z" transform="translate(-42.7 -111.69)"/><path class="cls-2" d="M1832.6,295.16h12a2.5,2.5,0,0,1,0,5h-12a2.5,2.5,0,0,1,0-5Zm-24,0h12a2.5,2.5,0,0,1,0,5h-12a2.5,2.5,0,0,1,0-5Zm-24,0h12a2.5,2.5,0,0,1,0,5h-12a2.5,2.5,0,0,1,0-5Zm-24,0h12a2.5,2.5,0,0,1,0,5h-12a2.5,2.5,0,0,1,0-5Zm-26.5,2.5a2.5,2.5,0,0,1,2.5-2.5h12a2.5,2.5,0,0,1,0,5h-12A2.5,2.5,0,0,1,1734.1,297.66Z" transform="translate(-42.7 -111.69)"/><path class="cls-36" d="M2021.29,135h27.16a2.5,2.5,0,0,0,0-5h-27.16a2.5,2.5,0,0,0,0,5Z" transform="translate(-42.7 -111.69)"/><path class="cls-37" d="M2030.65,127h30.44a2.5,2.5,0,0,0,0-5h-30.44a2.5,2.5,0,0,0,0,5Z" transform="translate(-42.7 -111.69)"/><path class="cls-38" d="M2274.15,176.2A17.63,17.63,0,0,0,2261.7,193v49.72a17.63,17.63,0,0,0,17.6,17.61h42.42a17.63,17.63,0,0,0,17.6-17.61V220.39h10.09a2.5,2.5,0,0,0,0-5h-10.09V193a17.46,17.46,0,0,0-2-8.08,17.65,17.65,0,0,0-10.47-8.75c.17-1.93.27-3.88.27-5.83,0-1.2,0-2.38-.11-3.54-1.14-19.59-11.72-33-26.52-33-12.84,0-22.51,10.08-25.58,25.54a56.11,56.11,0,0,0-1,11C2273.88,172.32,2274,174.27,2274.15,176.2Zm26.36-37.34c12.73,0,21.63,13,21.63,31.51,0,1.7-.08,3.4-.22,5.08-.31,0-.62,0-.94,0h-7.67a38.47,38.47,0,0,0,.33-5c0-12-2.24-20-13.13-20-11.26,0-12.18,9-12.18,20,0,.86-.08,1.73-.16,2.65s-.15,1.59-.18,2.4H2280c-.31,0-.63,0-.94,0-.14-1.68-.22-3.38-.22-5.08C2278.88,151.82,2287.78,138.86,2300.51,138.86Zm33.81,103.89a12.62,12.62,0,0,1-12.6,12.61H2279.3a12.62,12.62,0,0,1-12.6-12.61V193a12.62,12.62,0,0,1,9.94-12.32,2.31,2.31,0,0,0,.74,0,13.19,13.19,0,0,1,2.66-.27H2321a13.19,13.19,0,0,1,2.66.27,2.83,2.83,0,0,0,.5.05l.26,0a12.61,12.61,0,0,1,9.92,12.31Zm-41-72.38c0-5.3.32-8.74,1-11,1.07-3.48,3.06-4,6.17-4,2.94,0,5.35.42,6.76,4,.87,2.22,1.37,5.65,1.37,11a35.11,35.11,0,0,1-.38,5H2293c0-.61.08-1.26.14-1.93A30.94,30.94,0,0,0,2293.33,170.37Z" transform="translate(-42.7 -111.69)"/><path class="cls-39" d="M2312.27,211.81a11.76,11.76,0,1,0-18.5,9.84l-5.8,10.7a6.42,6.42,0,0,0,5.64,9.49h13.8a6.43,6.43,0,0,0,5.65-9.49h0l-5.81-10.7A12,12,0,0,0,2312.27,211.81Zm-3.64,24.33a1.39,1.39,0,0,1-1.22.7h-13.8a1.43,1.43,0,0,1-1.25-2.11l7-12.88a2.48,2.48,0,0,0-1.27-3.51,7,7,0,0,1-4.33-6.53,6.76,6.76,0,1,1,13.52,0,7,7,0,0,1-4.33,6.53,2.48,2.48,0,0,0-1.27,3.51l7,12.88h0A1.37,1.37,0,0,1,2308.63,236.14Z" transform="translate(-42.7 -111.69)"/><path class="cls-40" d="M1838.12,397.6a2.47,2.47,0,0,0,.92.18A2.5,2.5,0,0,0,1840,393l-43.06-17.11a2.5,2.5,0,1,0-1.85,4.64Z" transform="translate(-42.7 -111.69)"/><path class="cls-41" d="M1835.26,150.28a3.34,3.34,0,1,0-5.1,2.83,3.3,3.3,0,0,0,1.76.51A3.33,3.33,0,0,0,1835.26,150.28Z" transform="translate(-42.7 -111.69)"/><path class="cls-42" d="M1949.53,221c-14.89,4.56-23.28,3.77-28.93,2.87l-1.64-.27a25.7,25.7,0,0,0-4.74-.54,7.09,7.09,0,0,0-4,1.22c-1.08.74-2.88,2-2.91,16.38a292.93,292.93,0,0,0,1.84,30.8c1.47,13.59,6,47.16,16.24,65.29,17.21,30.42,45.43,55.28,66,58.28a2.23,2.23,0,0,0,.57.18l.17,0,.3,0h.22l.24,0,.25,0h.21a2.4,2.4,0,0,0,1.05-.23c20.58-3,48.8-27.86,66-58.28,10.26-18.13,14.78-51.7,16.24-65.29a292.93,292.93,0,0,0,1.84-30.8c0-14.4-1.83-15.64-2.91-16.38-2.54-1.75-5.29-1.28-8.77-.68-5.64,1-14.17,2.42-30.57-2.6s-28.34-12.94-35.5-17.68a58,58,0,0,0-5.8-3.6,3.19,3.19,0,0,0-2-.62h-.21a3.42,3.42,0,0,0-.46,0l-.2,0a3.19,3.19,0,0,0-.44.13l-.18.07a3.5,3.5,0,0,0-.56.32l-.55.29c-1.34.71-3,1.85-5.25,3.31a168.66,168.66,0,0,1-16.59,10A114.76,114.76,0,0,1,1949.53,221Zm118.11,7.53c2.58-.44,4-.66,4.84-.27,3.14,7.14-.51,77.89-16.43,106-15.77,27.87-41.88,51.59-60.67,55.48V341.33a41,41,0,0,1-4.72.28h-.28v48.18c-18.78-3.89-44.9-27.62-60.66-55.49-.25-.44-.5-.89-.74-1.35-12.87-24.38-17.38-76.86-16.65-97.08.14-3.82.46-6.49,1-7.6a2.06,2.06,0,0,1,.35-.12c.88-.21,2.24,0,4.49.39,5.74,1,15.35,2.62,32.87-2.75,17-5.21,29.41-13.4,36.8-18.3l2.59-1.7v53h.28a43.35,43.35,0,0,1,4.72.27V205.78c.78.5,1.64,1.07,2.59,1.7,7.39,4.9,19.75,13.09,36.8,18.3C2052.3,231.14,2061.9,229.51,2067.64,228.53Z" transform="translate(-42.7 -111.69)"/><path class="cls-43" d="M1713.8,317.18a15.13,15.13,0,0,0-8.63,2.5,8.88,8.88,0,0,0-4.08,7.11l-.06,6.36c0,5.45,5.47,9.77,12.55,9.83a15.24,15.24,0,0,0,2.15-.12,8.34,8.34,0,0,0,7.93,6h.07a8.33,8.33,0,0,0,8.32-8.25l.43-50.18a22.77,22.77,0,1,0-16.63-.15l0,2.83-.21,24.15A15.43,15.43,0,0,0,1713.8,317.18Zm6.79,3.25.27-31.85a2.49,2.49,0,0,0-1.76-2.41,17.76,17.76,0,0,1,5.25-34.73h.15a17.75,17.75,0,0,1,17.61,17.91,17.85,17.85,0,0,1-12.81,16.9,2.51,2.51,0,0,0-1.8,2.38l-.45,52a3.32,3.32,0,0,1-3.32,3.29h0a3.33,3.33,0,0,1-3.29-3.35v-.69a2.47,2.47,0,0,0-1-2,2.51,2.51,0,0,0-1.48-.48,2.64,2.64,0,0,0-.78.12,10.88,10.88,0,0,1-3.52.53c-4.06,0-7.61-2.27-7.59-4.78l.06-6.37a4.05,4.05,0,0,1,1.94-3.05,10.06,10.06,0,0,1,5.73-1.6,11.09,11.09,0,0,1,3.51.59,2.5,2.5,0,0,0,3.32-2.34Z" transform="translate(-42.7 -111.69)"/><path class="cls-44" d="M1724.26,279.94h.09a10.75,10.75,0,0,0,.09-21.49h-.09a10.75,10.75,0,0,0-.09,21.49Zm.09-16.49h.05a5.75,5.75,0,0,1,5.69,5.8,5.65,5.65,0,0,1-1.72,4,5.74,5.74,0,1,1-4-9.84Z" transform="translate(-42.7 -111.69)"/><path class="cls-45" d="M2032.1,300.17a41.29,41.29,0,0,0-11.86-29l16-28.38a2.5,2.5,0,0,0-4.36-2.45l-15.44,27.4a41.3,41.3,0,0,0-21-8.76,43.35,43.35,0,0,0-4.72-.27h-.28a41.44,41.44,0,0,0,0,82.87h.28a41,41,0,0,0,4.72-.28A41.5,41.5,0,0,0,2032.1,300.17Zm-41.44-36.44a36.25,36.25,0,0,1,23.29,8.44l-22.17,39.34-16.37-18.86a2.5,2.5,0,1,0-3.78,3.27l18.69,21.55a2.51,2.51,0,0,0,1.89.86h.25a2.5,2.5,0,0,0,1.93-1.26l23.28-41.32a36.42,36.42,0,1,1-27-12Z" transform="translate(-42.7 -111.69)"/><path class="cls-46" d="M1832.6,300.16h12a2.5,2.5,0,0,0,0-5h-12a2.5,2.5,0,0,0,0,5Z" transform="translate(-42.7 -111.69)"/><path class="cls-47" d="M1784.6,300.16h12a2.5,2.5,0,0,0,0-5h-12a2.5,2.5,0,0,0,0,5Z" transform="translate(-42.7 -111.69)"/><path class="cls-48" d="M1751.1,297.66a2.5,2.5,0,0,0-2.5-2.5h-12a2.5,2.5,0,0,0,0,5h12A2.5,2.5,0,0,0,1751.1,297.66Z" transform="translate(-42.7 -111.69)"/><path class="cls-49" d="M1808.6,300.16h12a2.5,2.5,0,0,0,0-5h-12a2.5,2.5,0,0,0,0,5Z" transform="translate(-42.7 -111.69)"/><path class="cls-50" d="M1760.6,300.16h12a2.5,2.5,0,0,0,0-5h-12a2.5,2.5,0,0,0,0,5Z" transform="translate(-42.7 -111.69)"/><path class="cls-51" d="M2371.42,222.38a2.51,2.51,0,0,0,2.5-2.5v-2a2.5,2.5,0,0,0-2.5-2.5h-10a2.5,2.5,0,0,0,0,5H2369a2.35,2.35,0,0,0,.14.45A2.51,2.51,0,0,0,2371.42,222.38Z" transform="translate(-42.7 -111.69)"/><path class="cls-52" d="M2371.42,270.38a2.49,2.49,0,0,0,2.5-2.5v-12a2.5,2.5,0,0,0-5,0v12A2.49,2.49,0,0,0,2371.42,270.38Z" transform="translate(-42.7 -111.69)"/><path class="cls-53" d="M2371.42,246.38a2.49,2.49,0,0,0,2.5-2.5v-12a2.5,2.5,0,0,0-5,0v12A2.49,2.49,0,0,0,2371.42,246.38Z" transform="translate(-42.7 -111.69)"/><path class="cls-54" d="M2368.92,291.88a2.5,2.5,0,1,0,5,0v-12a2.5,2.5,0,0,0-5,0Z" transform="translate(-42.7 -111.69)"/><path class="cls-55" d="M2116.76,139.8h69.6a14.06,14.06,0,1,0,0-28.11h-69.6a14.06,14.06,0,1,0,0,28.11Zm69.6-23.11a9.06,9.06,0,1,1,0,18.11h-69.6a9.06,9.06,0,1,1,0-18.11Z" transform="translate(-42.7 -111.69)"/><path class="cls-56" d="M2186.36,152.31h-69.6a14.06,14.06,0,1,0,0,28.11h69.6a14.06,14.06,0,1,0,0-28.11Zm9.06,14.06a9.07,9.07,0,0,1-9.06,9h-69.6a9.06,9.06,0,1,1,0-18.11h69.6A9.07,9.07,0,0,1,2195.42,166.37Z" transform="translate(-42.7 -111.69)"/><path class="cls-57" d="M2118.89,128.51a2.77,2.77,0,1,0-2.76-2.77A2.77,2.77,0,0,0,2118.89,128.51Z" transform="translate(-42.7 -111.69)"/><path class="cls-58" d="M2128.23,128.51a2.77,2.77,0,1,0-2.77-2.77A2.77,2.77,0,0,0,2128.23,128.51Z" transform="translate(-42.7 -111.69)"/><path class="cls-59" d="M2137.56,128.51a2.77,2.77,0,1,0-2.76-2.77A2.77,2.77,0,0,0,2137.56,128.51Z" transform="translate(-42.7 -111.69)"/><path class="cls-60" d="M2146.89,128.51a2.77,2.77,0,1,0-2.76-2.77A2.77,2.77,0,0,0,2146.89,128.51Z" transform="translate(-42.7 -111.69)"/><path class="cls-61" d="M2118.89,163.6a2.77,2.77,0,1,0,2.77,2.77A2.77,2.77,0,0,0,2118.89,163.6Z" transform="translate(-42.7 -111.69)"/><path class="cls-62" d="M2128.23,163.6a2.77,2.77,0,1,0,2.76,2.77A2.77,2.77,0,0,0,2128.23,163.6Z" transform="translate(-42.7 -111.69)"/><path class="cls-63" d="M2137.56,163.6a2.77,2.77,0,1,0,2.77,2.77A2.76,2.76,0,0,0,2137.56,163.6Z" transform="translate(-42.7 -111.69)"/><path class="cls-64" d="M2146.89,163.6a2.77,2.77,0,1,0,2.77,2.77A2.77,2.77,0,0,0,2146.89,163.6Z" transform="translate(-42.7 -111.69)"/><path class="cls-65" d="M2436.17,523.39h-7.92l-.12-81.12v-119a9.69,9.69,0,0,0-9.68-9.67h-44.53v-9.7a2.5,2.5,0,0,0-5,0v9.7h-44.53a9.69,9.69,0,0,0-9.68,9.67V393a2.49,2.49,0,0,0,2.5,2.5h0a2.49,2.49,0,0,0,2.5-2.5V357.37h103.42v84.9H2415a4.12,4.12,0,0,0-4.12,4.11v37.27h-91.18V411.7a2.49,2.49,0,0,0-2.5-2.5h0a2.5,2.5,0,0,0-2.5,2.5V517.77a9.62,9.62,0,0,0,1.82,5.62h-47V460c0-.06,0-.11,0-.17a2.48,2.48,0,0,0,0-.27,1,1,0,0,0-.06-.23,2,2,0,0,0-.07-.23,1.47,1.47,0,0,0-.1-.22,2,2,0,0,0-.11-.21l-.15-.2-.15-.19-.2-.18-.12-.11-52.14-38.85V254.34a12.23,12.23,0,0,0-12.22-12.22h-96.29c.52-8,.78-15.43.77-22,0-19.15-2.43-20.79-3.57-21.57h0c-3.16-2.18-6.57-1.59-11.29-.79-7.31,1.25-19.53,3.33-42.07-3.56s-38.82-17.73-48.62-24.22a76.41,76.41,0,0,0-7.9-4.88,3.81,3.81,0,0,0-2.3-.71,3.72,3.72,0,0,0-2.3.71,78.62,78.62,0,0,0-7.9,4.88c-9.8,6.49-26.2,17.36-48.61,24.22-13,4-22.57,5-29.74,4.85,31.49,7.16,43.88-6,43.6-8.8-.74-7.42-12.83-22.89-34.6-19.83-4.33.61-8.65,1-12.55,2.85a44.79,44.79,0,0,0-59.38-31.45,2.5,2.5,0,0,0-1.45,3.22,2.81,2.81,0,0,0,.33.59,2.5,2.5,0,0,0,2.9.86,39.78,39.78,0,0,1,53.34,31,2.5,2.5,0,0,0,3.83,1.72c3.87-2.5,8.38-3.43,13-3.82,16.19-1.36,27.91,7.57,28.19,17.06,0,1.67-9.83,6.68-42.2,6.3-2.89-.27-5.3-.67-7.32-1-4.72-.8-8.13-1.39-11.29.79-1.09.74-3.29,2.27-3.55,18.76H1787a29,29,0,0,1,17.82-51.86,28.63,28.63,0,0,1,12.88,3,2.51,2.51,0,0,0,3.39-1.21c.58-1.28,1-2.24,1.25-3a10.29,10.29,0,0,1,2.86-4.45,2.51,2.51,0,0,0,.19-3.2,2.36,2.36,0,0,0-.3-.34,2.5,2.5,0,0,0-3.53.11,14.87,14.87,0,0,0-3.88,6.09q-.09.21-.18.45a33.6,33.6,0,0,0-12.68-2.46,34,34,0,0,0-20.14,61.38,2.54,2.54,0,0,0,1.48.48h91c0,6,.3,12.7.77,19.77h-25.37a12.23,12.23,0,0,0-12.21,12.22v40.82H1829.6a2.5,2.5,0,0,0,0,5h10.73v41.43l-8.82-3.53a2.5,2.5,0,0,0-3.25,1.39l-4.6,11.46-20.28-8.14a2.51,2.51,0,0,0-3.25,1.39l-5.3,12-4.82-2.3a2.55,2.55,0,0,0-1.92,0,2.51,2.51,0,0,0-1.33,1.37l-11,27.43H1753.6a12.53,12.53,0,0,0-12.51,12.52v17.17a10.23,10.23,0,0,0-.32,2.49v10.88c-1.17-.08-2.34-.13-3.53-.13a51,51,0,0,0-48.8,36.53c-.2.69-.39,1.37-.56,2.07a50.86,50.86,0,0,0,29.78,59.2H1691a2.5,2.5,0,0,0-2.5,2.5c0,1.38,1.12,2.5-24.5,2.5h745.19c28.38,0,29.5-1.12,29.5-2.5A2.5,2.5,0,0,0,2436.17,523.39Zm-698.93-92.8a45.86,45.86,0,1,1-45.86,45.86A45.91,45.91,0,0,1,1737.24,430.59Zm16.36-42.93h20.14L1767,404.49h-15.87a10.32,10.32,0,0,0-5,1.31V395.18A7.52,7.52,0,0,1,1753.6,387.66Zm130.12-185.07c1.42-.84,3.47-.54,7.44.14,7.74,1.32,20.69,3.53,44.37-3.71,23.11-7.07,39.89-18.19,49.91-24.83a72.05,72.05,0,0,1,7.44-4.61,72.05,72.05,0,0,1,7.44,4.61c10,6.64,26.8,17.76,49.91,24.83,23.68,7.24,36.64,5,44.38,3.71,4-.68,6-1,7.44-.14,2,3.48,2.58,28-1.11,60.9-4.2,37.46-11.92,68.33-21.19,84.71-22.52,39.8-60.53,73.45-86.54,76.6l-.32.06h0a3,3,0,0,0-.32-.06c-26-3.15-64-36.8-86.54-76.6-9.26-16.38-17-47.25-21.18-84.71C1881.13,230.55,1881.69,206.06,1883.72,202.59Zm327.65,51.75v4.9H2106.42c.42-4.09.78-8.15,1.08-12.12h96.65A7.23,7.23,0,0,1,2211.37,254.34Zm-332,4.9h-34v-4.9a7.23,7.23,0,0,1,7.21-7.22h25.72C1878.56,251.09,1878.93,255.15,1879.34,259.24Zm-34,5h34.55c2.22,19.67,8.41,62.78,21.78,86.42a213.52,213.52,0,0,0,42.67,53c16.67,14.86,33.23,24.05,46.77,26a2.49,2.49,0,0,0,1.37.28l.41-.05.41.05h.22a2.49,2.49,0,0,0,1.16-.29c13.53-1.93,30.1-11.12,46.77-26a213.71,213.71,0,0,0,42.66-53c13.38-23.64,19.56-66.75,21.78-86.42h105.49V418.91l-27.75,20.67H1898.69v-44.4a12.43,12.43,0,0,0-4.28-9.39l6.85-17.06a2.51,2.51,0,0,0-1.39-3.25l-54.54-21.88Zm474.38,253.53V488.65h91.18V504.8a4.12,4.12,0,0,0,4.12,4.11h8.12v8.86a4.68,4.68,0,0,1-4.68,4.67h-94.06A4.68,4.68,0,0,1,2319.71,517.77ZM1745.77,414.84a5.36,5.36,0,0,1,5.35-5.35h137.21a5.36,5.36,0,0,1,5.36,5.35V517.17a5.36,5.36,0,0,1-5.36,5.35H1758.76a50.84,50.84,0,0,0-13-96.2Zm468.1,78.67-41.31-31h82.67ZM2168.3,523.2l34-32.1,10,7.53a2.44,2.44,0,0,0,1.5.5,2.49,2.49,0,0,0,1.49-.49l11.61-8.7,34.22,33.26Zm-269.61-61.5h78.06v44.06h-49.54a10.93,10.93,0,0,0-8.67,17.63h-22a10.31,10.31,0,0,0,2.1-6.22Zm173.21,44.06h-90.15V462.18h90.15Zm57.59,16.9H1927.21a6,6,0,1,1,0-11.9h202.28a5.95,5.95,0,1,1,0,11.9Zm33.39-60.14h1.34l34.05,25.54-35.39,33.39Zm-264.19-5.82V444.58h278.22l-16.27,12.12Zm230.8,49.06H2076.9V461.7h81v61.69h-19.73a10.93,10.93,0,0,0-8.66-17.63ZM1892.35,390.92a7.46,7.46,0,0,1,1.34,4.26V406a10.31,10.31,0,0,0-5.36-1.5h-1.42Zm338.67,96,32.55-24.38h.95v56.94Zm-63.1-29.38,45.78-34.11,45.77,34.11Zm-272.24-88.33-14.16,35.3h-20.85l12.46-31a2.5,2.5,0,0,0-1.39-3.25l-43.44-17.43,3.67-9.14Zm-28.12,4.72-12.27,30.58h-3.55l8-20a2.5,2.5,0,0,0-1.39-3.25L1799.47,358l4.37-9.66ZM1854.18,385l-7.83,19.51H1835.7a2.5,2.5,0,0,0-.93-.66l-43.06-17.11a2.5,2.5,0,1,0-1.84,4.64l33,13.13h-19l-17.34-6.9a2.5,2.5,0,0,0-1.84,4.65l5.65,2.25h-17.95l18.08-45.08Zm465.53-61.73a4.68,4.68,0,0,1,4.68-4.67h94.06a4.68,4.68,0,0,1,4.68,4.67v29.12H2319.71Z" transform="translate(-42.7 -111.69)"/><path class="cls-66" d="M2358,339.46h30.84a2.5,2.5,0,0,0,0-5H2358a2.5,2.5,0,0,0,0,5Z" transform="translate(-42.7 -111.69)"/><path class="cls-67" d="M2366,506.56h15.91a2.5,2.5,0,0,0,0-5H2366a2.5,2.5,0,0,0,0,5Z" transform="translate(-42.7 -111.69)"/><path class="cls-68" d="M2339.1,405.11h67.62a6.5,6.5,0,0,0,6.49-6.49V386.7a6.5,6.5,0,0,0-6.49-6.49H2339.1a6.49,6.49,0,0,0-6.48,6.49v11.92A6.49,6.49,0,0,0,2339.1,405.11Zm-1.48-6.49V386.7a1.51,1.51,0,0,1,1.48-1.49h67.62a1.51,1.51,0,0,1,1.49,1.49v11.92a1.51,1.51,0,0,1-1.49,1.49H2339.1A1.5,1.5,0,0,1,2337.62,398.62Z" transform="translate(-42.7 -111.69)"/><path class="cls-69" d="M2406.72,415.52H2339.1a6.49,6.49,0,0,0-6.48,6.49v11.92a6.48,6.48,0,0,0,6.48,6.48h67.62a6.49,6.49,0,0,0,6.49-6.48V422A6.5,6.5,0,0,0,2406.72,415.52Zm1.49,18.41a1.5,1.5,0,0,1-1.49,1.48H2339.1a1.5,1.5,0,0,1-1.48-1.48V422a1.5,1.5,0,0,1,1.48-1.49h67.62a1.51,1.51,0,0,1,1.49,1.49Z" transform="translate(-42.7 -111.69)"/><path class="cls-70" d="M2320,402.61a2.77,2.77,0,1,0-2.77,2.76A2.77,2.77,0,0,0,2320,402.61Z" transform="translate(-42.7 -111.69)"/><path class="cls-71" d="M2284.42,312.19a15.12,15.12,0,1,0,6.7,9.43A15,15,0,0,0,2284.42,312.19Zm-17.9,15.07a10.13,10.13,0,0,1,7.6-12.13,10.49,10.49,0,0,1,2.28-.26,10.12,10.12,0,1,1-9.88,12.39Z" transform="translate(-42.7 -111.69)"/><path class="cls-72" d="M1746.12,200.09a11.4,11.4,0,1,0-5.06-7.11A11.37,11.37,0,0,0,1746.12,200.09Zm4.63-15.91a6.42,6.42,0,0,1,1.44-.16,6.41,6.41,0,0,1,1.42,12.65,6.41,6.41,0,0,1-2.86-12.49Z" transform="translate(-42.7 -111.69)"/><path class="cls-73" d="M1748.61,467.29a11.76,11.76,0,1,0-18.5,9.84l-5.81,10.69a6.43,6.43,0,0,0,5.65,9.49h13.8a6.42,6.42,0,0,0,5.64-9.49h0l-5.81-10.7A12,12,0,0,0,1748.61,467.29ZM1745,491.62a1.38,1.38,0,0,1-1.22.69H1730a1.41,1.41,0,0,1-1.25-2.1l7-12.88a2.5,2.5,0,0,0-1.27-3.51,7,7,0,0,1-4.33-6.53,6.76,6.76,0,1,1,13.52,0,7,7,0,0,1-4.34,6.53,2.48,2.48,0,0,0-1.42,1.47,2.51,2.51,0,0,0,.15,2l7,12.88h0A1.41,1.41,0,0,1,1745,491.62Z" transform="translate(-42.7 -111.69)"/></g></g></svg>