<svg id="Layer_1" data-name="Layer 1" xmlns="http://www.w3.org/2000/svg" xmlns:xlink="http://www.w3.org/1999/xlink" viewBox="0 0 2395.99 416.65"><defs><style>.cls-1{opacity:0.5;}.cls-2{fill:#fff;opacity:0.34;isolation:isolate;}.cls-3{fill:url(#linear-gradient);}.cls-4{fill:url(#linear-gradient-2);}.cls-5{fill:url(#linear-gradient-3);}.cls-6{fill:url(#linear-gradient-4);}.cls-7{fill:url(#linear-gradient-5);}.cls-8{fill:url(#linear-gradient-6);}.cls-9{fill:url(#linear-gradient-7);}.cls-10{fill:url(#linear-gradient-8);}.cls-11{fill:url(#linear-gradient-9);}.cls-12{fill:url(#linear-gradient-10);}.cls-13{fill:url(#linear-gradient-11);}.cls-14{fill:url(#linear-gradient-12);}.cls-15{fill:url(#linear-gradient-13);}.cls-16{fill:url(#linear-gradient-14);}.cls-17{fill:url(#linear-gradient-15);}.cls-18{fill:url(#linear-gradient-16);}.cls-19{fill:url(#linear-gradient-17);}.cls-20{fill:url(#linear-gradient-18);}.cls-21{fill:url(#linear-gradient-19);}.cls-22{fill:url(#linear-gradient-20);}.cls-23{fill:url(#linear-gradient-21);}.cls-24{fill:url(#linear-gradient-22);}.cls-25{fill:url(#linear-gradient-23);}.cls-26{fill:url(#linear-gradient-24);}.cls-27{fill:url(#linear-gradient-25);}.cls-28{fill:url(#linear-gradient-26);}.cls-29{fill:url(#linear-gradient-27);}.cls-30{fill:url(#linear-gradient-28);}.cls-31{fill:url(#linear-gradient-29);}.cls-32{fill:url(#linear-gradient-30);}.cls-33{fill:url(#linear-gradient-31);}.cls-34{fill:url(#linear-gradient-32);}.cls-35{fill:url(#linear-gradient-33);}.cls-36{fill:url(#linear-gradient-34);}.cls-37{fill:url(#linear-gradient-35);}.cls-38{fill:url(#linear-gradient-36);}.cls-39{fill:url(#linear-gradient-37);}.cls-40{fill:url(#linear-gradient-38);}.cls-41{fill:url(#linear-gradient-39);}.cls-42{fill:url(#linear-gradient-40);}.cls-43{fill:url(#linear-gradient-41);}.cls-44{fill:url(#linear-gradient-42);}.cls-45{fill:url(#linear-gradient-43);}.cls-46{fill:url(#linear-gradient-44);}.cls-47{fill:url(#linear-gradient-45);}.cls-48{fill:url(#linear-gradient-46);}.cls-49{fill:url(#linear-gradient-47);}.cls-50{fill:url(#linear-gradient-48);}.cls-51{fill:url(#linear-gradient-49);}.cls-52{fill:url(#linear-gradient-50);}.cls-53{fill:url(#linear-gradient-51);}.cls-54{fill:url(#linear-gradient-52);}.cls-55{fill:url(#linear-gradient-53);}.cls-56{fill:url(#linear-gradient-54);}.cls-57{fill:url(#linear-gradient-55);}.cls-58{fill:url(#linear-gradient-56);}.cls-59{fill:url(#linear-gradient-57);}.cls-60{fill:url(#linear-gradient-58);}.cls-61{fill:url(#linear-gradient-59);}.cls-62{fill:url(#linear-gradient-60);}.cls-63{fill:url(#linear-gradient-61);}.cls-64{fill:url(#linear-gradient-62);}.cls-65{fill:url(#linear-gradient-63);}.cls-66{fill:url(#linear-gradient-64);}.cls-67{fill:url(#linear-gradient-65);}.cls-68{fill:url(#linear-gradient-66);}.cls-69{fill:url(#linear-gradient-67);}.cls-70{fill:url(#linear-gradient-68);}.cls-71{fill:url(#linear-gradient-69);}.cls-72{fill:url(#linear-gradient-70);}.cls-73{fill:url(#linear-gradient-71);}</style><linearGradient id="linear-gradient" x1="964.81" y1="357.86" x2="-41.64" y2="-20.12" gradientTransform="matrix(1, 0, 0, -1, -42.7, 306.31)" gradientUnits="userSpaceOnUse"><stop offset="0" stop-color="#2aeaff"/><stop offset="0.11" stop-color="#2ee6fd"/><stop offset="0.23" stop-color="#3cdbf7"/><stop offset="0.36" stop-color="#51c9ed"/><stop offset="0.49" stop-color="#70b0de"/><stop offset="0.62" stop-color="#978fcc"/><stop offset="0.76" stop-color="#c767b6"/><stop offset="0.88" stop-color="#f83e9f"/><stop offset="0.99" stop-color="#f8ba69"/></linearGradient><linearGradient id="linear-gradient-2" x1="963.52" y1="361.3" x2="-42.93" y2="-16.68" xlink:href="#linear-gradient"/><linearGradient id="linear-gradient-3" x1="973.6" y1="320.78" x2="-14.13" y2="-50.17" xlink:href="#linear-gradient"/><linearGradient id="linear-gradient-4" x1="975.11" y1="302.84" x2="2.76" y2="-62.34" xlink:href="#linear-gradient"/><linearGradient id="linear-gradient-5" x1="979.38" y1="319.04" x2="-27.07" y2="-58.93" xlink:href="#linear-gradient"/><linearGradient id="linear-gradient-6" x1="906.7" y1="512.6" x2="-99.75" y2="134.62" xlink:href="#linear-gradient"/><linearGradient id="linear-gradient-7" x1="978.85" y1="320.5" x2="-27.6" y2="-57.48" xlink:href="#linear-gradient"/><linearGradient id="linear-gradient-8" x1="938.44" y1="428.08" x2="-68.01" y2="50.1" xlink:href="#linear-gradient"/><linearGradient id="linear-gradient-9" x1="929.21" y1="452.67" x2="-77.24" y2="74.69" xlink:href="#linear-gradient"/><linearGradient id="linear-gradient-10" x1="980.25" y1="316.75" x2="-26.2" y2="-61.23" xlink:href="#linear-gradient"/><linearGradient id="linear-gradient-11" x1="952.7" y1="390.11" x2="-53.75" y2="12.13" xlink:href="#linear-gradient"/><linearGradient id="linear-gradient-12" x1="946.76" y1="405.91" x2="-59.68" y2="27.93" xlink:href="#linear-gradient"/><linearGradient id="linear-gradient-13" x1="940.83" y1="421.71" x2="-65.62" y2="43.73" xlink:href="#linear-gradient"/><linearGradient id="linear-gradient-14" x1="949.73" y1="398.01" x2="-56.72" y2="20.03" xlink:href="#linear-gradient"/><linearGradient id="linear-gradient-15" x1="943.8" y1="413.81" x2="-62.65" y2="35.83" xlink:href="#linear-gradient"/><linearGradient id="linear-gradient-16" x1="992.02" y1="285.41" x2="-14.43" y2="-92.57" xlink:href="#linear-gradient"/><linearGradient id="linear-gradient-17" x1="1006.78" y1="246.1" x2="0.34" y2="-131.88" xlink:href="#linear-gradient"/><linearGradient id="linear-gradient-18" x1="998.88" y1="267.13" x2="-7.56" y2="-110.85" xlink:href="#linear-gradient"/><linearGradient id="linear-gradient-19" x1="1014.68" y1="225.07" x2="8.23" y2="-152.92" xlink:href="#linear-gradient"/><linearGradient id="linear-gradient-20" x1="997.87" y1="269.82" x2="-8.58" y2="-108.16" xlink:href="#linear-gradient"/><linearGradient id="linear-gradient-21" x1="951.46" y1="393.41" x2="-54.99" y2="15.43" xlink:href="#linear-gradient"/><linearGradient id="linear-gradient-22" x1="947.47" y1="404.04" x2="-58.98" y2="26.06" xlink:href="#linear-gradient"/><linearGradient id="linear-gradient-23" x1="948.62" y1="400.96" x2="-57.82" y2="22.98" xlink:href="#linear-gradient"/><linearGradient id="linear-gradient-24" x1="949.78" y1="397.89" x2="-56.68" y2="19.91" xlink:href="#linear-gradient"/><linearGradient id="linear-gradient-25" x1="950.93" y1="394.82" x2="-55.52" y2="16.84" xlink:href="#linear-gradient"/><linearGradient id="linear-gradient-26" x1="1005.08" y1="254.47" x2="116.02" y2="-79.42" xlink:href="#linear-gradient"/><linearGradient id="linear-gradient-27" x1="1031.74" y1="179.65" x2="25.29" y2="-198.33" xlink:href="#linear-gradient"/><linearGradient id="linear-gradient-28" x1="1086.8" y1="33.04" x2="80.35" y2="-344.94" xlink:href="#linear-gradient"/><linearGradient id="linear-gradient-29" x1="1050.01" y1="131" x2="43.56" y2="-246.98" xlink:href="#linear-gradient"/><linearGradient id="linear-gradient-30" x1="1061.63" y1="100.05" x2="55.18" y2="-277.93" xlink:href="#linear-gradient"/><linearGradient id="linear-gradient-31" x1="1046.4" y1="140.62" x2="39.95" y2="-237.36" xlink:href="#linear-gradient"/><linearGradient id="linear-gradient-32" x1="1015.81" y1="222.06" x2="9.36" y2="-155.92" xlink:href="#linear-gradient"/><linearGradient id="linear-gradient-33" x1="906.72" y1="512.54" x2="-99.73" y2="134.55" xlink:href="#linear-gradient"/><linearGradient id="linear-gradient-34" x1="2503.17" y1="461.37" x2="1496.72" y2="83.39" xlink:href="#linear-gradient"/><linearGradient id="linear-gradient-35" x1="2501.9" y1="464.76" x2="1495.45" y2="86.78" xlink:href="#linear-gradient"/><linearGradient id="linear-gradient-36" x1="2582.16" y1="322.93" x2="1575.71" y2="-55.05" xlink:href="#linear-gradient"/><linearGradient id="linear-gradient-37" x1="2589.18" y1="304.25" x2="1582.73" y2="-73.73" xlink:href="#linear-gradient"/><linearGradient id="linear-gradient-38" x1="2583.63" y1="319.02" x2="1577.18" y2="-58.96" xlink:href="#linear-gradient"/><linearGradient id="linear-gradient-39" x1="2483.93" y1="512.59" x2="1477.49" y2="134.61" xlink:href="#linear-gradient"/><linearGradient id="linear-gradient-40" x1="2518.08" y1="320.5" x2="1511.63" y2="-57.48" xlink:href="#linear-gradient"/><linearGradient id="linear-gradient-41" x1="2542.59" y1="428.28" x2="1536.14" y2="50.3" xlink:href="#linear-gradient"/><linearGradient id="linear-gradient-42" x1="2533.44" y1="452.66" x2="1526.99" y2="74.68" xlink:href="#linear-gradient"/><linearGradient id="linear-gradient-43" x1="2519.46" y1="316.8" x2="1513.01" y2="-61.18" xlink:href="#linear-gradient"/><linearGradient id="linear-gradient-44" x1="2556.93" y1="390.11" x2="1550.48" y2="12.13" xlink:href="#linear-gradient"/><linearGradient id="linear-gradient-45" x1="2551" y1="405.91" x2="1544.55" y2="27.93" xlink:href="#linear-gradient"/><linearGradient id="linear-gradient-46" x1="2545.06" y1="421.71" x2="1538.62" y2="43.73" xlink:href="#linear-gradient"/><linearGradient id="linear-gradient-47" x1="2553.96" y1="398.01" x2="1547.51" y2="20.03" xlink:href="#linear-gradient"/><linearGradient id="linear-gradient-48" x1="2548.03" y1="413.81" x2="1541.58" y2="35.83" xlink:href="#linear-gradient"/><linearGradient id="linear-gradient-49" x1="2596.25" y1="285.44" x2="1589.8" y2="-92.54" xlink:href="#linear-gradient"/><linearGradient id="linear-gradient-50" x1="2611.02" y1="246.1" x2="1604.57" y2="-131.88" xlink:href="#linear-gradient"/><linearGradient id="linear-gradient-51" x1="2603.12" y1="267.13" x2="1596.67" y2="-110.85" xlink:href="#linear-gradient"/><linearGradient id="linear-gradient-52" x1="2618.92" y1="225.07" x2="1612.47" y2="-152.92" xlink:href="#linear-gradient"/><linearGradient id="linear-gradient-53" x1="2515.37" y1="428.89" x2="1508.92" y2="50.91" xlink:href="#linear-gradient"/><linearGradient id="linear-gradient-54" x1="2528.74" y1="393.29" x2="1522.29" y2="15.31" xlink:href="#linear-gradient"/><linearGradient id="linear-gradient-55" x1="2511.33" y1="439.64" x2="1504.89" y2="61.66" xlink:href="#linear-gradient"/><linearGradient id="linear-gradient-56" x1="2512.48" y1="436.57" x2="1506.04" y2="58.59" xlink:href="#linear-gradient"/><linearGradient id="linear-gradient-57" x1="2513.64" y1="433.5" x2="1507.18" y2="55.51" xlink:href="#linear-gradient"/><linearGradient id="linear-gradient-58" x1="2514.79" y1="430.42" x2="1508.35" y2="52.45" xlink:href="#linear-gradient"/><linearGradient id="linear-gradient-59" x1="2524.7" y1="404.04" x2="1518.26" y2="26.06" xlink:href="#linear-gradient"/><linearGradient id="linear-gradient-60" x1="2525.85" y1="400.97" x2="1519.41" y2="22.99" xlink:href="#linear-gradient"/><linearGradient id="linear-gradient-61" x1="2527.01" y1="397.89" x2="1520.55" y2="19.91" xlink:href="#linear-gradient"/><linearGradient id="linear-gradient-62" x1="2528.16" y1="394.82" x2="1521.72" y2="16.84" xlink:href="#linear-gradient"/><linearGradient id="linear-gradient-63" x1="2527.92" y1="229.45" x2="1655.73" y2="-98.11" xlink:href="#linear-gradient"/><linearGradient id="linear-gradient-64" x1="2635.97" y1="179.64" x2="1629.52" y2="-198.34" xlink:href="#linear-gradient"/><linearGradient id="linear-gradient-65" x1="2691.04" y1="33.02" x2="1684.59" y2="-344.96" xlink:href="#linear-gradient"/><linearGradient id="linear-gradient-66" x1="2654.24" y1="131" x2="1647.79" y2="-246.98" xlink:href="#linear-gradient"/><linearGradient id="linear-gradient-67" x1="2665.87" y1="100.05" x2="1659.41" y2="-277.93" xlink:href="#linear-gradient"/><linearGradient id="linear-gradient-68" x1="2650.64" y1="140.61" x2="1644.18" y2="-237.37" xlink:href="#linear-gradient"/><linearGradient id="linear-gradient-69" x1="2620.04" y1="222.07" x2="1613.59" y2="-155.91" xlink:href="#linear-gradient"/><linearGradient id="linear-gradient-70" x1="2510.95" y1="512.54" x2="1504.5" y2="134.55" xlink:href="#linear-gradient"/><linearGradient id="linear-gradient-71" x1="2025.51" y1="48.77" x2="1668.43" y2="-85.33" gradientTransform="matrix(1, 0, 0, -1, -42.7, 306.31)" gradientUnits="userSpaceOnUse"><stop offset="0.88" stop-color="#f83e9f"/><stop offset="0.99" stop-color="#f8ba69"/></linearGradient></defs><title>expert-full-hero-graphics-50</title><g class="cls-1"><g id="Layer_1-2" data-name="Layer 1"><path class="cls-2" d="M185.67,183.47h12a2.5,2.5,0,0,1,0,5h-12a2.5,2.5,0,0,1,0-5Zm-24,0h12a2.5,2.5,0,0,1,0,5h-12a2.5,2.5,0,0,1,0-5Zm-24,0h12a2.5,2.5,0,0,1,0,5h-12a2.5,2.5,0,0,1,0-5Zm-24,0h12a2.5,2.5,0,0,1,0,5h-12a2.5,2.5,0,1,1,0-5ZM87.17,186a2.5,2.5,0,0,1,2.5-2.5h12a2.5,2.5,0,0,1,0,5h-12A2.5,2.5,0,0,1,87.17,186Z" transform="translate(0 0.01)"/><path class="cls-3" d="M22,283.88H49.21a2.5,2.5,0,0,0,0-5H22a2.5,2.5,0,0,0,0,5Z" transform="translate(0 0.01)"/><path class="cls-4" d="M64.35,273.31a2.5,2.5,0,0,0-2.5-2.5H31.41a2.5,2.5,0,0,0,0,5H62.09A2.49,2.49,0,0,0,64.35,273.31Z" transform="translate(0 0.01)"/><path class="cls-5" d="M627.22,67.23c-7.2,2-12.45,8-12.45,15v44.42c0,8.68,7.89,15.73,17.6,15.73h42.41c9.71,0,17.61-7,17.61-15.73v-18h10.09a2.5,2.5,0,0,0,0-5H692.39V82.31a14.25,14.25,0,0,0-2-7.22,17.34,17.34,0,0,0-10.47-7.82c.17-1.72.26-3.47.26-5.21,0-1.07,0-2.13-.1-3.16-1.14-17.5-11.72-29.46-26.52-29.46-12.85,0-22.51,9-25.59,22.82a44.85,44.85,0,0,0-1,9.8A49.57,49.57,0,0,0,627.22,67.23Zm26.36-33.36c12.73,0,21.62,11.58,21.62,28.15,0,1.52-.07,3-.21,4.54h-8.61A32.6,32.6,0,0,0,666.7,62c0-10.71-2.23-17.84-13.12-17.84-11.26,0-12.18,8.08-12.18,17.84a20.64,20.64,0,0,1-.17,2.36c-.07.71-.15,1.43-.17,2.16h-8.94A45.41,45.41,0,0,1,631.9,62c.05-16.57,8.94-28.15,21.68-28.15Zm33.81,92.82c0,6.21-5.65,11.26-12.61,11.26H632.37c-7,0-12.6-5-12.6-11.26V82.31c0-5.4,4.26-9.91,9.93-11a2.36,2.36,0,0,0,.75,0,14.87,14.87,0,0,1,2.66-.24h40.94a14.87,14.87,0,0,1,2.66.24h.76c5.66,1.1,9.92,5.61,9.92,11ZM646.39,62c0-4.74.32-7.81,1-9.8,1.07-3.11,3.06-3.57,6.17-3.57,2.94,0,5.34.37,6.76,3.58.87,2,1.36,5.05,1.36,9.79a27.39,27.39,0,0,1-.38,4.52H646.07c0-.56.08-1.14.14-1.74.11-.92.17-1.85.19-2.78Z" transform="translate(0 0.01)"/><path class="cls-6" d="M665.3,99c0-5.91-5.28-10.72-11.76-10.72S641.78,93.13,641.78,99a10.4,10.4,0,0,0,5,8.8L641,117.4a5.17,5.17,0,0,0,.13,5.67,6.56,6.56,0,0,0,5.52,2.8h13.8a6.56,6.56,0,0,0,5.52-2.8,5.17,5.17,0,0,0,.12-5.67h0l-5.76-9.56A10.44,10.44,0,0,0,665.3,99Zm-3.64,21.74a1.39,1.39,0,0,1-1.22.63h-13.8a1.47,1.47,0,0,1-1.23-.63,1.14,1.14,0,0,1,0-1.25l7-11.51a2,2,0,0,0,.15-1.83,2.39,2.39,0,0,0-1.42-1.31A6.26,6.26,0,0,1,646.81,99a6.78,6.78,0,0,1,13.52,0,6.26,6.26,0,0,1-4.34,5.84,2.39,2.39,0,0,0-1.42,1.31,2,2,0,0,0,.16,1.83l7,11.51h0a1.14,1.14,0,0,1,0,1.25Z" transform="translate(0 0.01)"/><path class="cls-7" d="M191.19,285.91a2.39,2.39,0,0,0,.92.18,2.5,2.5,0,0,0,.92-4.83L150,264.15a2.5,2.5,0,0,0-2.11,4.53l.27.11Z" transform="translate(0 0.01)"/><path class="cls-8" d="M215.3,38.59A3.34,3.34,0,1,0,212,41.93h0A3.35,3.35,0,0,0,215.3,38.59Z" transform="translate(0 0.01)"/><path class="cls-9" d="M367.6,109.31c-14.89,4.56-23.29,3.77-28.93,2.87l-1.64-.27a25.22,25.22,0,0,0-4.74-.54,7.11,7.11,0,0,0-4,1.22c-1.08.74-2.88,2-2.91,16.38a293.59,293.59,0,0,0,1.84,30.8c1.46,13.59,6,47.16,16.24,65.29,17.21,30.42,45.43,55.28,66,58.28a2.7,2.7,0,0,0,.57.18h1.4a2.4,2.4,0,0,0,1.05-.23c20.58-3,48.8-27.86,66-58.28,10.25-18.13,14.77-51.7,16.24-65.29a293.59,293.59,0,0,0,1.84-30.8c0-14.4-1.83-15.64-2.91-16.38-2.54-1.75-5.29-1.28-8.77-.68-5.65,1-14.18,2.42-30.57-2.6S426,96.32,418.81,91.58A55.07,55.07,0,0,0,413,88a3.13,3.13,0,0,0-2-.62h-.22a3.53,3.53,0,0,0-.46,0h-.19a3.81,3.81,0,0,0-.45.13l-.17.07a2.39,2.39,0,0,0-.56.32l-.55.29c-1.34.71-3.06,1.85-5.25,3.31a168.33,168.33,0,0,1-16.6,10A114.74,114.74,0,0,1,367.6,109.31Zm118.11,7.53c2.57-.44,4-.66,4.84-.27,3.13,7.14-.52,77.89-16.43,106-15.77,27.87-41.89,51.59-60.67,55.48V229.64a41.55,41.55,0,0,1-4.73.28h-.27V278.1c-18.79-3.89-44.9-27.62-60.67-55.49-.25-.44-.49-.89-.73-1.35-12.87-24.38-17.38-76.86-16.65-97.08.14-3.82.46-6.49,1-7.6a2.06,2.06,0,0,1,.35-.12c.88-.21,2.24,0,4.49.39,5.74,1,15.34,2.62,32.87-2.75,17.05-5.21,29.41-13.4,36.8-18.3l2.59-1.7v53h.27a41.54,41.54,0,0,1,4.73.27V94.09l2.59,1.7c7.39,4.9,19.75,13.09,36.8,18.3C470.36,119.45,480,117.82,485.71,116.84Z" transform="translate(0 0.01)"/><path class="cls-10" d="M66.87,205.49a15.14,15.14,0,0,0-8.64,2.5,8.91,8.91,0,0,0-4.07,7.11l-.06,6.36c0,5.45,5.47,9.77,12.55,9.83a15.41,15.41,0,0,0,2.15-.12,8.33,8.33,0,0,0,7.93,6h.07a8.34,8.34,0,0,0,8.32-8.25l.43-50.18a22.5,22.5,0,0,0-8.4-43.58,22.51,22.51,0,0,0-8.24,43.46v2.83L68.7,205.6A16,16,0,0,0,66.87,205.49Zm6.78,3.25.28-31.85a2.49,2.49,0,0,0-1.76-2.41,17.76,17.76,0,0,1,5.24-34.73h.16a17.76,17.76,0,0,1,4.8,34.81,2.51,2.51,0,0,0-1.8,2.38l-.45,52a3.32,3.32,0,0,1-3.32,3.29h0a3.32,3.32,0,0,1-3.29-3.35h0v-.69A2.46,2.46,0,0,0,71,225.71a2.59,2.59,0,0,0-.78.12,10.82,10.82,0,0,1-3.52.53c-4.06,0-7.61-2.27-7.59-4.78l.06-6.37a4.06,4.06,0,0,1,1.94-3.05,10,10,0,0,1,5.73-1.6,11.34,11.34,0,0,1,3.51.59,2.49,2.49,0,0,0,3.31-2.34Z" transform="translate(0 0.01)"/><path class="cls-11" d="M77.3,168.25h.1a10.75,10.75,0,0,0,.09-21.49h-.1a10.75,10.75,0,0,0-.09,21.49Zm.1-16.49h0a5.75,5.75,0,1,1-4,1.64A5.74,5.74,0,0,1,77.4,151.76Z" transform="translate(0 0.01)"/><path class="cls-12" d="M450.16,188.48a41.33,41.33,0,0,0-11.85-29l16-28.38a2.5,2.5,0,0,0-4.35-2.45l-15.44,27.4a41.42,41.42,0,0,0-25.8-9h-.27a41.44,41.44,0,0,0,0,82.87h.27a41.52,41.52,0,0,0,41.44-41.43ZM408.72,152A36.25,36.25,0,0,1,432,160.48l-22.17,39.34L393.48,181a2.5,2.5,0,0,0-3.87,3.17l.09.1,18.69,21.55a2.51,2.51,0,0,0,1.89.86h.25a2.5,2.5,0,0,0,1.93-1.26l23.28-41.32a36.42,36.42,0,1,1-27-12Z" transform="translate(0 0.01)"/><path class="cls-13" d="M185.67,188.47h12a2.5,2.5,0,0,0,0-5h-12a2.5,2.5,0,0,0,0,5Z" transform="translate(0 0.01)"/><path class="cls-14" d="M137.67,188.47h12a2.5,2.5,0,0,0,0-5h-12a2.5,2.5,0,0,0,0,5Z" transform="translate(0 0.01)"/><path class="cls-15" d="M104.17,186a2.5,2.5,0,0,0-2.5-2.5h-12a2.5,2.5,0,1,0,0,5h12A2.5,2.5,0,0,0,104.17,186Z" transform="translate(0 0.01)"/><path class="cls-16" d="M161.67,188.47h12a2.5,2.5,0,0,0,0-5h-12a2.5,2.5,0,0,0,0,5Z" transform="translate(0 0.01)"/><path class="cls-17" d="M113.67,188.47h12a2.5,2.5,0,0,0,0-5h-12a2.5,2.5,0,1,0,0,5Z" transform="translate(0 0.01)"/><path class="cls-18" d="M724.49,110.69a2.48,2.48,0,0,0,2.26-1.46,2.45,2.45,0,0,0,.24-1v-2a2.5,2.5,0,0,0-2.5-2.5h-10a2.5,2.5,0,0,0,0,5h7.56a2.35,2.35,0,0,0,.14.45A2.49,2.49,0,0,0,724.49,110.69Z" transform="translate(0 0.01)"/><path class="cls-19" d="M724.49,158.69a2.48,2.48,0,0,0,2.5-2.48v-12a2.5,2.5,0,0,0-5,0h0v12a2.48,2.48,0,0,0,2.48,2.5Z" transform="translate(0 0.01)"/><path class="cls-20" d="M724.49,134.69a2.48,2.48,0,0,0,2.5-2.48v-12a2.5,2.5,0,0,0-5,0v12a2.48,2.48,0,0,0,2.48,2.5Z" transform="translate(0 0.01)"/><path class="cls-21" d="M722,180.19a2.5,2.5,0,1,0,5,0v-12a2.5,2.5,0,0,0-5,0Z" transform="translate(0 0.01)"/><path class="cls-22" d="M74.64,378.79a6.38,6.38,0,0,0,9.66,5.52l24.31-14a6.42,6.42,0,0,0,2.35-8.77,6.31,6.31,0,0,0-2.35-2.35l-24.31-14h0a6.42,6.42,0,0,0-9.63,5.56Zm5.71-29.3a1.52,1.52,0,0,1,.72-.19,1.41,1.41,0,0,1,.7.19h0l24.31,14a1.42,1.42,0,0,1,.52,1.94,1.3,1.3,0,0,1-.52.52L81.77,380a1.39,1.39,0,0,1-1.42,0,1.41,1.41,0,0,1-.71-1.23v-28a1.41,1.41,0,0,1,.71-1.23Z" transform="translate(0 0.01)"/><path class="cls-23" d="M566.43,40.62h-69.6a14.06,14.06,0,0,0-.75,28.11h70.35a14.06,14.06,0,0,0,0-28.11Zm9,14.06a9.05,9.05,0,0,1-9,9h-69.6a9.06,9.06,0,1,1-.6-18.11h70.2a9.06,9.06,0,0,1,9.05,9.07v0Z" transform="translate(0 0.01)"/><path class="cls-24" d="M499,51.91a2.77,2.77,0,1,0,2.77,2.77A2.77,2.77,0,0,0,499,51.91Z" transform="translate(0 0.01)"/><path class="cls-25" d="M508.3,51.91a2.77,2.77,0,1,0,2.77,2.77,2.77,2.77,0,0,0-2.77-2.77Z" transform="translate(0 0.01)"/><path class="cls-26" d="M517.63,51.91a2.77,2.77,0,1,0,2.76,2.78h0A2.77,2.77,0,0,0,517.63,51.91Z" transform="translate(0 0.01)"/><path class="cls-27" d="M527,51.91a2.77,2.77,0,1,0,2.77,2.77A2.77,2.77,0,0,0,527,51.91Z" transform="translate(0 0.01)"/><path class="cls-28" d="M789.24,411.7H781.3l-.13-81.12v-119a9.68,9.68,0,0,0-9.67-9.67H727v-9.7a2.5,2.5,0,0,0-5,0v9.7H677.45a9.68,9.68,0,0,0-9.67,9.67v69.73a2.48,2.48,0,0,0,2.48,2.5h0a2.48,2.48,0,0,0,2.5-2.48V245.68H776.19v84.9h-8.12a4.12,4.12,0,0,0-4.11,4.11V372H672.78V300a2.5,2.5,0,0,0-2.5-2.5h0a2.5,2.5,0,0,0-2.5,2.5V406.08a9.62,9.62,0,0,0,1.82,5.62h-20V347.87l-.06-.23a2,2,0,0,0-.07-.23c0-.08-.07-.15-.1-.22a1.13,1.13,0,0,0-.12-.21,1.43,1.43,0,0,0-.14-.2l-.15-.19-.2-.18-.12-.11-52.15-38.85V142.65a12.24,12.24,0,0,0-12.21-12.22H525.93c.51-8,.78-15.43.77-22,0-19.15-2.43-20.79-3.58-21.57h0c-3.16-2.18-6.57-1.59-11.29-.79-7.3,1.25-19.52,3.33-42.07-3.56S431,64.82,421.15,58.31a78,78,0,0,0-7.9-4.88,3.8,3.8,0,0,0-2.3-.71,3.67,3.67,0,0,0-2.3.71,76.24,76.24,0,0,0-7.9,4.88c-9.8,6.49-26.2,17.36-48.62,24.22-13,4-22.56,5-29.74,4.85A29,29,0,0,0,280.85,61.6a44.79,44.79,0,0,0-54-33.1,44,44,0,0,0-5.38,1.65A2.5,2.5,0,0,0,220,33.37a2.29,2.29,0,0,0,.33.59,2.49,2.49,0,0,0,2.89.86,39.78,39.78,0,0,1,53.35,31,2.5,2.5,0,0,0,2.85,2.09,2.54,2.54,0,0,0,1-.37,24,24,0,0,1,37,19.54c-2.9-.27-5.3-.67-7.32-1-4.73-.8-8.14-1.39-11.3.79-1.08.74-3.28,2.27-3.54,18.76H167a29,29,0,0,1,17.81-51.86,28.67,28.67,0,0,1,12.89,3,2.51,2.51,0,0,0,3.36-1.15l0-.06c.58-1.28.95-2.24,1.25-3a10.24,10.24,0,0,1,2.86-4.45,2.52,2.52,0,0,0,.19-3.2,3.17,3.17,0,0,0-.3-.34,2.51,2.51,0,0,0-3.53.11,15,15,0,0,0-3.89,6.09l-.17.45a33.65,33.65,0,0,0-12.69-2.46,34,34,0,0,0-20.13,61.38,2.54,2.54,0,0,0,1.48.48h129c0,6,.3,12.7.76,19.77H232.61a12.24,12.24,0,0,0-12.21,12.22v40.82H209.67a2.5,2.5,0,0,0,0,5H220.4v41.43l-8.82-3.53a2.5,2.5,0,0,0-3.25,1.39l-4.6,11.46L183.45,231a2.5,2.5,0,0,0-3.25,1.39l-8.49,21.17-28.64-11.49a2.53,2.53,0,0,0-1.91,0,2.57,2.57,0,0,0-1.34,1.37l-11,27.43H106.67a12.54,12.54,0,0,0-12.52,12.52V300.6a11,11,0,0,0-.31,2.49V314c-1.17-.08-2.35-.13-3.53-.13a51,51,0,0,0-48.8,36.53c-.2.69-.39,1.37-.56,2.07a50.81,50.81,0,0,0,29.78,59.2H2.5a2.5,2.5,0,0,0,0,5H789.24a2.5,2.5,0,0,0,0-5ZM90.3,318.9a45.86,45.86,0,1,1-45.87,45.86A45.86,45.86,0,0,1,90.3,318.9ZM106.66,276H126.8l-6.75,16.83H104.19a10.42,10.42,0,0,0-5,1.31V283.49a7.53,7.53,0,0,1,7.48-7.52ZM301.78,90.9c1.42-.84,3.47-.54,7.44.14,7.75,1.32,20.7,3.53,44.38-3.71,23.11-7.07,39.89-18.19,49.91-24.83A70.3,70.3,0,0,1,411,57.89a70.3,70.3,0,0,1,7.44,4.61c10,6.64,26.8,17.76,49.91,24.83,23.68,7.24,36.63,5,44.37,3.71,4-.68,6-1,7.44-.14,2,3.48,2.59,28-1.11,60.9-4.2,37.46-11.92,68.33-21.18,84.71-22.52,39.8-60.52,73.45-86.52,76.6a1.8,1.8,0,0,0-.32.06h0a1.8,1.8,0,0,0-.32-.06c-26-3.15-64-36.8-86.54-76.6-9.26-16.38-17-47.25-21.19-84.71C299.2,118.86,299.76,94.37,301.78,90.9Zm289.65,51.75v4.9H524.49c.41-4.09.78-8.15,1.08-12.12h58.65A7.23,7.23,0,0,1,591.43,142.65Zm-294,4.9h-72v-4.9a7.23,7.23,0,0,1,7.21-7.22H296.3c.33,4,.69,8,1.11,12.12Zm-72,5H298c2.22,19.67,8.41,62.78,21.78,86.42a213.83,213.83,0,0,0,42.66,53c16.67,14.86,33.24,24,46.78,26a2.51,2.51,0,0,0,1.37.28l.41-.05.41.05h.21a2.49,2.49,0,0,0,1.16-.29c13.54-1.93,30.1-11.12,46.78-26a213.83,213.83,0,0,0,42.66-53c13.37-23.64,19.56-66.75,21.78-86.42h67.48V307.22l-27.74,20.67h-285v-44.4a12.48,12.48,0,0,0-4.27-9.39L281.3,257a2.5,2.5,0,0,0-1.39-3.25L225.4,231.91ZM672.78,406.08V377H764v16.15a4.12,4.12,0,0,0,4.11,4.11h8.12v8.86a4.68,4.68,0,0,1-4.67,4.67H677.45A4.68,4.68,0,0,1,672.78,406.08ZM98.84,303.15a5.37,5.37,0,0,1,5.35-5.35H268.4a5.37,5.37,0,0,1,5.35,5.35V405.48a5.37,5.37,0,0,1-5.35,5.35H111.83a50.84,50.84,0,0,0-13-96.2Zm495.09,78.67-41.31-31H635.3Zm-45.56,29.69,34-32.1,10,7.53a2.46,2.46,0,0,0,1.5.5,2.52,2.52,0,0,0,1.5-.49l11.61-8.7,34.32,33.26ZM278.75,350h78.07v44.06H307.3a10.93,10.93,0,0,0-8.66,17.63h-22a10.28,10.28,0,0,0,2.1-6.22ZM452,394.07H361.82V350.49H452ZM509.56,411H307.3a6,6,0,0,1,0-11.9H509.56a6,6,0,0,1,0,11.9ZM543,350.83h1.35l34,25.54-35.38,33.39ZM278.75,345V332.89H557L540.71,345Zm230.81,49.06H457V350h81V411.7H518.22a10.93,10.93,0,0,0-8.66-17.63ZM272.42,279.23a7.46,7.46,0,0,1,1.33,4.26v10.82a10.29,10.29,0,0,0-5.35-1.5H267Zm338.67,96,32.55-24.38h.94v56.94ZM548,345.85l45.77-34.11,45.78,34.11ZM275.75,257.5l-14.16,35.3H240.74l12.45-31a2.5,2.5,0,0,0-1.39-3.25l-43.43-17.43L212,232Zm-28.13,4.72L235.35,292.8H204.8l8-20a2.5,2.5,0,0,0-1.39-3.25l-35.08-14.08,7.56-18.84Zm-40.38,11.09-7.82,19.51H188.77a2.55,2.55,0,0,0-.93-.66l-43.06-17.11a2.5,2.5,0,0,0-2.11,4.53l.27.11,33,13.13h-19l-17.34-6.9a2.5,2.5,0,0,0-1.85,4.65l5.65,2.25h-18l18.08-45.08Zm465.54-61.73a4.68,4.68,0,0,1,4.67-4.67h94.07a4.67,4.67,0,0,1,4.67,4.67V240.7H672.78Z" transform="translate(0 0.01)"/><path class="cls-29" d="M711.06,227.77h30.83a2.5,2.5,0,0,0,0-5H711.06a2.5,2.5,0,0,0,0,5Z" transform="translate(0 0.01)"/><path class="cls-30" d="M719,394.87h15.91a2.5,2.5,0,0,0,0-5H719a2.5,2.5,0,0,0,0,5Z" transform="translate(0 0.01)"/><path class="cls-31" d="M692.17,293.42h67.62a6.49,6.49,0,0,0,6.48-6.49V275a6.49,6.49,0,0,0-6.48-6.49H692.17a6.51,6.51,0,0,0-6.49,6.49v11.92A6.51,6.51,0,0,0,692.17,293.42Zm-1.49-6.49V275a1.51,1.51,0,0,1,1.49-1.49h67.62A1.5,1.5,0,0,1,761.3,275v11.92a1.5,1.5,0,0,1-1.48,1.49H692.17A1.51,1.51,0,0,1,690.68,286.93Z" transform="translate(0 0.01)"/><path class="cls-32" d="M759.79,303.83H692.17a6.51,6.51,0,0,0-6.49,6.49v11.92a6.49,6.49,0,0,0,6.49,6.48h67.62a6.48,6.48,0,0,0,6.48-6.48V310.31A6.49,6.49,0,0,0,759.79,303.83Zm1.51,18.41a1.5,1.5,0,0,1-1.48,1.48H692.17a1.5,1.5,0,0,1-1.49-1.48V310.31a1.51,1.51,0,0,1,1.49-1.49h67.62a1.5,1.5,0,0,1,1.51,1.49h0Z" transform="translate(0 0.01)"/><path class="cls-33" d="M673.05,290.92a2.77,2.77,0,1,0-2.78,2.76h0A2.77,2.77,0,0,0,673.05,290.92Z" transform="translate(0 0.01)"/><path class="cls-34" d="M637.48,200.5a15.12,15.12,0,1,0,6.71,9.43A15.12,15.12,0,0,0,637.48,200.5Zm-17.89,15.07a10.12,10.12,0,0,1,7.6-12.13,10.29,10.29,0,0,1,2.28-.26,10.12,10.12,0,1,1-9.88,12.39Z" transform="translate(0 0.01)"/><path class="cls-35" d="M99.19,88.4a11.4,11.4,0,1,0-5.06-7.11A11.39,11.39,0,0,0,99.19,88.4Zm4.63-15.91a6.12,6.12,0,0,1,1.48-.18,6.49,6.49,0,1,1-1.45.18h0Z" transform="translate(0 0.01)"/><path class="cls-2" d="M1789.9,183.47h12a2.5,2.5,0,0,1,0,5h-12a2.5,2.5,0,0,1,0-5Zm-24,0h12a2.5,2.5,0,0,1,0,5h-12a2.5,2.5,0,0,1,0-5Zm-24,0h12a2.5,2.5,0,0,1,0,5h-12a2.5,2.5,0,0,1,0-5Zm-24,0h12a2.5,2.5,0,0,1,0,5h-12a2.5,2.5,0,0,1,0-5Zm-26.5,2.5a2.5,2.5,0,0,1,2.5-2.5h12a2.5,2.5,0,0,1,0,5h-12A2.5,2.5,0,0,1,1691.4,186Z" transform="translate(0 0.01)"/><path class="cls-36" d="M1978.59,23.31h27.16a2.5,2.5,0,0,0,0-5h-27.16a2.5,2.5,0,0,0,0,5Z" transform="translate(0 0.01)"/><path class="cls-37" d="M1988,15.31h30.44a2.5,2.5,0,0,0,0-5H1988a2.5,2.5,0,0,0,0,5Z" transform="translate(0 0.01)"/><path class="cls-38" d="M2231.45,64.51A17.63,17.63,0,0,0,2219,81.31V131a17.63,17.63,0,0,0,17.6,17.61H2279a17.63,17.63,0,0,0,17.6-17.61V108.7h10.09a2.5,2.5,0,0,0,0-5h-10.09V81.31a17.47,17.47,0,0,0-2-8.08,17.69,17.69,0,0,0-10.47-8.75c.17-1.93.27-3.88.27-5.83,0-1.2,0-2.38-.11-3.54-1.14-19.59-11.72-33-26.52-33-12.84,0-22.51,10.08-25.58,25.54a56.35,56.35,0,0,0-1,11C2231.18,60.63,2231.3,62.58,2231.45,64.51Zm26.36-37.34c12.73,0,21.63,13,21.63,31.51,0,1.7-.08,3.4-.22,5.08h-8.61a38.05,38.05,0,0,0,.33-5c0-12-2.24-20-13.13-20-11.26,0-12.18,9-12.18,20,0,.86-.08,1.73-.16,2.65s-.15,1.59-.18,2.4h-8.93c-.14-1.68-.22-3.38-.22-5.08C2236.18,40.13,2245.08,27.17,2257.81,27.17Zm33.81,103.89a12.62,12.62,0,0,1-12.6,12.61H2236.6a12.62,12.62,0,0,1-12.6-12.61V81.31A12.62,12.62,0,0,1,2233.94,69a2.3,2.3,0,0,0,.74,0,13.27,13.27,0,0,1,2.66-.27h41A13.27,13.27,0,0,1,2281,69a2.73,2.73,0,0,0,.5.05h.26a12.6,12.6,0,0,1,9.92,12.31Zm-41-72.38c0-5.3.32-8.74,1-11,1.07-3.48,3.06-4,6.17-4,2.94,0,5.35.42,6.76,4,.87,2.22,1.37,5.65,1.37,11a35,35,0,0,1-.38,5H2250.3c0-.61.08-1.26.14-1.93.11-1,.18-2,.19-3.07Z" transform="translate(0 0.01)"/><path class="cls-39" d="M2269.57,100.12a11.76,11.76,0,1,0-18.5,9.84l-5.8,10.7a6.42,6.42,0,0,0,5.64,9.49h13.8a6.44,6.44,0,0,0,5.65-9.49h0l-5.81-10.7A12,12,0,0,0,2269.57,100.12Zm-3.64,24.33a1.4,1.4,0,0,1-1.22.7h-13.8a1.42,1.42,0,0,1-1.42-1.44,1.45,1.45,0,0,1,.17-.67l7-12.88a2.48,2.48,0,0,0-1-3.37l-.3-.14a7,7,0,0,1-4.33-6.53,6.76,6.76,0,1,1,13.52,0,7,7,0,0,1-4.33,6.53,2.48,2.48,0,0,0-1.41,3.21c0,.1.09.2.14.3l7,12.88h0a1.35,1.35,0,0,1-.05,1.41Z" transform="translate(0 0.01)"/><path class="cls-40" d="M1795.42,285.91a2.39,2.39,0,0,0,.92.18,2.5,2.5,0,0,0,1-4.78l-43.06-17.11a2.5,2.5,0,1,0-2,4.56l.2.08Z" transform="translate(0 0.01)"/><path class="cls-41" d="M1792.56,38.59a3.33,3.33,0,1,0-3.34,3.34,3.35,3.35,0,0,0,3.34-3.34Z" transform="translate(0 0.01)"/><path class="cls-42" d="M1906.83,109.31c-14.89,4.56-23.28,3.77-28.93,2.87l-1.64-.27a25.22,25.22,0,0,0-4.74-.54,7.11,7.11,0,0,0-4,1.22c-1.08.74-2.88,2-2.91,16.38a293.59,293.59,0,0,0,1.84,30.8c1.47,13.59,6,47.16,16.24,65.29,17.21,30.42,45.43,55.28,66,58.28a1.9,1.9,0,0,0,.57.18h1.39a2.4,2.4,0,0,0,1-.23c20.58-3,48.8-27.86,66-58.28,10.26-18.13,14.78-51.7,16.24-65.29a293.59,293.59,0,0,0,1.84-30.8c0-14.4-1.83-15.64-2.91-16.38-2.54-1.75-5.29-1.28-8.77-.68-5.64,1-14.17,2.42-30.57-2.6s-28.34-12.94-35.5-17.68a59.62,59.62,0,0,0-5.8-3.6,3.19,3.19,0,0,0-2-.62H1950a3.53,3.53,0,0,0-.46,0h-.2a3.19,3.19,0,0,0-.44.13l-.18.07a3.86,3.86,0,0,0-.56.32l-.55.29c-1.34.71-3,1.85-5.25,3.31a167,167,0,0,1-16.59,10A114.84,114.84,0,0,1,1906.83,109.31Zm118.11,7.53c2.58-.44,4-.66,4.84-.27,3.14,7.14-.51,77.89-16.43,106-15.77,27.87-41.88,51.59-60.67,55.48V229.64a41.37,41.37,0,0,1-4.72.28h-.28V278.1c-18.78-3.89-44.9-27.62-60.66-55.49-.25-.44-.5-.89-.74-1.35-12.87-24.38-17.38-76.86-16.65-97.08.14-3.82.46-6.49,1-7.6a2.06,2.06,0,0,1,.35-.12c.88-.21,2.24,0,4.49.39,5.74,1,15.35,2.62,32.87-2.75,17-5.21,29.41-13.4,36.8-18.3l2.59-1.7v53h.28a41.36,41.36,0,0,1,4.72.27V94.09c.78.5,1.64,1.07,2.59,1.7,7.39,4.9,19.75,13.09,36.8,18.3,17.48,5.36,27.08,3.73,32.82,2.75Z" transform="translate(0 0.01)"/><path class="cls-43" d="M1671.1,205.49a15.13,15.13,0,0,0-8.63,2.5,8.88,8.88,0,0,0-4.08,7.11l-.06,6.36c0,5.45,5.47,9.77,12.55,9.83a15.41,15.41,0,0,0,2.15-.12,8.33,8.33,0,0,0,7.93,6h.07a8.32,8.32,0,0,0,8.32-8.25l.43-50.18a22.78,22.78,0,1,0-16.63-.15v2.83l-.21,24.15A16.18,16.18,0,0,0,1671.1,205.49Zm6.79,3.25.27-31.85a2.49,2.49,0,0,0-1.76-2.41,17.76,17.76,0,0,1,5.25-34.73h.15a17.75,17.75,0,0,1,17.61,17.89v0a17.85,17.85,0,0,1-12.81,16.9,2.51,2.51,0,0,0-1.8,2.38l-.45,52a3.32,3.32,0,0,1-3.32,3.29h0a3.33,3.33,0,0,1-3.29-3.35v-.69a2.49,2.49,0,0,0-1-2,2.54,2.54,0,0,0-1.48-.48,2.59,2.59,0,0,0-.78.12,10.82,10.82,0,0,1-3.52.53c-4.06,0-7.61-2.27-7.59-4.78l.06-6.37a4.06,4.06,0,0,1,1.94-3.05,10,10,0,0,1,5.73-1.6,11.34,11.34,0,0,1,3.51.59,2.5,2.5,0,0,0,3.18-1.54,2.45,2.45,0,0,0,.14-.8Z" transform="translate(0 0.01)"/><path class="cls-44" d="M1681.56,168.25h.09a10.75,10.75,0,0,0,.09-21.49h-.09a10.75,10.75,0,0,0-.09,21.49Zm.09-16.49h0a5.75,5.75,0,0,1,5.69,5.8,5.69,5.69,0,0,1-1.72,4,5.74,5.74,0,1,1-4-9.84Z" transform="translate(0 0.01)"/><path class="cls-45" d="M1989.4,188.48a41.28,41.28,0,0,0-11.86-29l16-28.38a2.5,2.5,0,0,0-4.36-2.45l-15.44,27.4a41.1,41.1,0,0,0-25.72-9h-.28a41.44,41.44,0,0,0,0,82.87h.28a41.47,41.47,0,0,0,41.38-41.41ZM1948,152a36.25,36.25,0,0,1,23.29,8.44l-22.17,39.34L1932.71,181a2.5,2.5,0,0,0-3.87,3.17l.09.1,18.69,21.55a2.51,2.51,0,0,0,1.89.86h.25a2.5,2.5,0,0,0,1.93-1.26L1975,164.06a36.42,36.42,0,1,1-27-12Z" transform="translate(0 0.01)"/><path class="cls-46" d="M1789.9,188.47h12a2.5,2.5,0,0,0,0-5h-12a2.5,2.5,0,0,0,0,5Z" transform="translate(0 0.01)"/><path class="cls-47" d="M1741.9,188.47h12a2.5,2.5,0,0,0,0-5h-12a2.5,2.5,0,0,0,0,5Z" transform="translate(0 0.01)"/><path class="cls-48" d="M1708.4,186a2.5,2.5,0,0,0-2.5-2.5h-12a2.5,2.5,0,0,0,0,5h12A2.5,2.5,0,0,0,1708.4,186Z" transform="translate(0 0.01)"/><path class="cls-49" d="M1765.9,188.47h12a2.5,2.5,0,0,0,0-5h-12a2.5,2.5,0,0,0,0,5Z" transform="translate(0 0.01)"/><path class="cls-50" d="M1717.9,188.47h12a2.5,2.5,0,0,0,0-5h-12a2.5,2.5,0,0,0,0,5Z" transform="translate(0 0.01)"/><path class="cls-51" d="M2328.72,110.69a2.51,2.51,0,0,0,2.5-2.5v-2a2.5,2.5,0,0,0-2.5-2.5h-10a2.5,2.5,0,0,0,0,5h7.58a2.35,2.35,0,0,0,.14.45A2.51,2.51,0,0,0,2328.72,110.69Z" transform="translate(0 0.01)"/><path class="cls-52" d="M2328.72,158.69a2.48,2.48,0,0,0,2.5-2.48v-12a2.5,2.5,0,0,0-5,0h0v12a2.48,2.48,0,0,0,2.48,2.5Z" transform="translate(0 0.01)"/><path class="cls-53" d="M2328.72,134.69a2.48,2.48,0,0,0,2.5-2.48v-12a2.5,2.5,0,0,0-5,0v12a2.48,2.48,0,0,0,2.48,2.5Z" transform="translate(0 0.01)"/><path class="cls-54" d="M2326.22,180.19a2.5,2.5,0,1,0,5,0v-12a2.5,2.5,0,0,0-5,0Z" transform="translate(0 0.01)"/><path class="cls-55" d="M2074.06,28.11h69.6A14.06,14.06,0,0,0,2144.41,0h-70.35a14.06,14.06,0,1,0-.75,28.11Q2073.69,28.13,2074.06,28.11ZM2143.66,5a9.06,9.06,0,1,1,.6,18.11q-.3,0-.6,0h-69.6a9.06,9.06,0,1,1-.6-18.11h70.2Z" transform="translate(0 0.01)"/><path class="cls-56" d="M2143.66,40.62h-69.6a14.06,14.06,0,1,0-.75,28.11h70.35a14.06,14.06,0,1,0,.75-28.11Zm9.06,14.06a9.07,9.07,0,0,1-9.06,9h-69.6a9.06,9.06,0,1,1-.6-18.11h70.2a9.07,9.07,0,0,1,9.06,9.08v0Z" transform="translate(0 0.01)"/><path class="cls-57" d="M2076.19,16.82a2.77,2.77,0,1,0-2.76-2.78h0A2.77,2.77,0,0,0,2076.19,16.82Z" transform="translate(0 0.01)"/><path class="cls-58" d="M2085.53,16.82a2.77,2.77,0,1,0-2.77-2.77,2.77,2.77,0,0,0,2.77,2.77Z" transform="translate(0 0.01)"/><path class="cls-59" d="M2094.86,16.82A2.77,2.77,0,1,0,2092.1,14h0A2.77,2.77,0,0,0,2094.86,16.82Z" transform="translate(0 0.01)"/><path class="cls-60" d="M2104.19,16.82a2.77,2.77,0,1,0-2.76-2.78h0A2.77,2.77,0,0,0,2104.19,16.82Z" transform="translate(0 0.01)"/><path class="cls-61" d="M2076.19,51.91a2.77,2.77,0,1,0,2.77,2.77,2.77,2.77,0,0,0-2.77-2.77Z" transform="translate(0 0.01)"/><path class="cls-62" d="M2085.53,51.91a2.77,2.77,0,1,0,2.76,2.78h0A2.77,2.77,0,0,0,2085.53,51.91Z" transform="translate(0 0.01)"/><path class="cls-63" d="M2094.86,51.91a2.77,2.77,0,1,0,2.77,2.77,2.77,2.77,0,0,0-2.77-2.77Z" transform="translate(0 0.01)"/><path class="cls-64" d="M2104.19,51.91a2.77,2.77,0,1,0,2.77,2.77,2.77,2.77,0,0,0-2.77-2.77Z" transform="translate(0 0.01)"/><path class="cls-65" d="M2393.47,411.7h-7.92l-.12-81.12v-119a9.69,9.69,0,0,0-9.68-9.67h-44.53v-9.7a2.5,2.5,0,0,0-5,0v9.7h-44.53a9.69,9.69,0,0,0-9.68,9.67v69.73a2.48,2.48,0,0,0,2.48,2.5h0a2.48,2.48,0,0,0,2.5-2.48V245.68h103.42v84.9h-8.13a4.12,4.12,0,0,0-4.12,4.11V372H2277V300a2.48,2.48,0,0,0-2.48-2.5h0a2.5,2.5,0,0,0-2.5,2.5V406.08a9.62,9.62,0,0,0,1.82,5.62h-47V347.87a.86.86,0,0,0-.06-.23,2,2,0,0,0-.07-.23,1.47,1.47,0,0,0-.1-.22,2.12,2.12,0,0,0-.11-.21l-.15-.2-.15-.19-.2-.18-.12-.11-52.14-38.85V142.65a12.23,12.23,0,0,0-12.22-12.22h-96.29c.52-8,.78-15.43.77-22,0-19.15-2.43-20.79-3.57-21.57h0c-3.16-2.18-6.57-1.59-11.29-.79-7.31,1.25-19.53,3.33-42.07-3.56s-38.82-17.73-48.62-24.22a76.24,76.24,0,0,0-7.9-4.88,3.8,3.8,0,0,0-2.3-.71,3.73,3.73,0,0,0-2.3.71,78,78,0,0,0-7.9,4.88c-9.8,6.49-26.2,17.36-48.61,24.22-13,4-22.57,5-29.74,4.85,31.49,7.16,43.88-6,43.6-8.8-.74-7.42-12.83-22.89-34.6-19.83-4.33.61-8.65,1-12.55,2.85a44.79,44.79,0,0,0-54-33.1,44,44,0,0,0-5.38,1.65,2.5,2.5,0,0,0-1.45,3.22,3.08,3.08,0,0,0,.33.59,2.49,2.49,0,0,0,2.9.86A39.77,39.77,0,0,1,1851.79,58a39.32,39.32,0,0,1,2.08,7.83,2.5,2.5,0,0,0,3.83,1.72c3.87-2.5,8.38-3.43,13-3.82,16.19-1.36,27.91,7.57,28.19,17.06,0,1.67-9.83,6.68-42.2,6.3-2.89-.27-5.3-.67-7.32-1-4.72-.8-8.13-1.39-11.29.79-1.09.74-3.29,2.27-3.55,18.76H1744.3a29,29,0,0,1,17.82-51.86,28.63,28.63,0,0,1,12.88,3,2.51,2.51,0,0,0,3.36-1.15l0-.06c.58-1.28,1-2.24,1.25-3a10.33,10.33,0,0,1,2.86-4.45,2.52,2.52,0,0,0,.19-3.2,2.43,2.43,0,0,0-.3-.34,2.51,2.51,0,0,0-3.53.11,14.86,14.86,0,0,0-3.88,6.09q-.09.21-.18.45a33.6,33.6,0,0,0-12.68-2.46A34,34,0,0,0,1742,110.12a2.54,2.54,0,0,0,1.48.48h91c0,6,.3,12.7.77,19.77h-25.37a12.24,12.24,0,0,0-12.21,12.22v40.82H1786.9a2.5,2.5,0,0,0,0,5h10.73v41.43l-8.82-3.53a2.5,2.5,0,0,0-3.25,1.39l-4.6,11.46L1760.68,231a2.51,2.51,0,0,0-3.25,1.39l-5.3,12-4.82-2.3a2.55,2.55,0,0,0-1.92,0,2.51,2.51,0,0,0-1.33,1.37l-11,27.43H1710.9a12.53,12.53,0,0,0-12.51,12.52V300.6a9.94,9.94,0,0,0-.32,2.49V314c-1.17-.08-2.34-.13-3.53-.13a51,51,0,0,0-48.8,36.53c-.2.69-.39,1.37-.56,2.07a50.86,50.86,0,0,0,29.78,59.2H1648.3a2.5,2.5,0,0,0-2.5,2.5c0,1.38,1.12,2.5-24.5,2.5h745.19c28.38,0,29.5-1.12,29.5-2.5A2.49,2.49,0,0,0,2393.47,411.7Zm-698.93-92.8a45.86,45.86,0,1,1-45.86,45.86h0a45.91,45.91,0,0,1,45.86-45.86ZM1710.9,276H1731l-6.74,16.83h-15.87a10.42,10.42,0,0,0-5,1.31V283.49a7.53,7.53,0,0,1,7.47-7.52ZM1841,90.9c1.42-.84,3.47-.54,7.44.14,7.74,1.32,20.69,3.53,44.37-3.71,23.11-7.07,39.89-18.19,49.91-24.83a70.3,70.3,0,0,1,7.44-4.61,70.3,70.3,0,0,1,7.44,4.61c10,6.64,26.8,17.76,49.91,24.83,23.68,7.24,36.64,5,44.38,3.71,4-.68,6-1,7.44-.14,2,3.48,2.58,28-1.11,60.9-4.2,37.46-11.92,68.33-21.19,84.71-22.52,39.8-60.53,73.45-86.54,76.6l-.32.06h0a1.8,1.8,0,0,0-.32-.06c-26-3.15-64-36.8-86.54-76.6-9.26-16.38-17-47.25-21.18-84.71-3.72-32.94-3.16-57.43-1.13-60.9Zm327.65,51.75v4.9h-105c.42-4.09.78-8.15,1.08-12.12h96.65a7.23,7.23,0,0,1,7.22,7.22Zm-332,4.9h-34v-4.9a7.23,7.23,0,0,1,7.21-7.22h25.72c.26,4,.63,8,1,12.12Zm-34,5h34.55c2.22,19.67,8.41,62.78,21.78,86.42a213.69,213.69,0,0,0,42.67,53c16.67,14.86,33.23,24,46.77,26a2.51,2.51,0,0,0,1.37.28l.41-.05.41.05h.22A2.49,2.49,0,0,0,1952,318c13.53-1.93,30.1-11.12,46.77-26a213.83,213.83,0,0,0,42.66-53c13.38-23.64,19.56-66.75,21.78-86.42h105.49V307.22L2141,327.89H1856v-44.4a12.44,12.44,0,0,0-4.28-9.39l6.85-17.06a2.51,2.51,0,0,0-1.39-3.25l-54.54-21.88Zm474.38,253.53V377h91.18v16.15a4.12,4.12,0,0,0,4.12,4.11h8.12v8.86a4.68,4.68,0,0,1-4.68,4.67h-94.06a4.69,4.69,0,0,1-4.72-4.64v0Zm-574-102.93a5.37,5.37,0,0,1,5.35-5.35h137.21a5.36,5.36,0,0,1,5.36,5.35V405.48a5.36,5.36,0,0,1-5.36,5.35H1716.06a50.84,50.84,0,0,0-13-96.2Zm468.1,78.67-41.31-31h82.67Zm-45.57,29.69,34-32.1,10,7.53a2.46,2.46,0,0,0,1.5.5,2.49,2.49,0,0,0,1.49-.49l11.61-8.7,34.22,33.26ZM1856,350h78.06v44.06h-49.54a10.93,10.93,0,0,0-8.67,17.63h-22a10.28,10.28,0,0,0,2.1-6.22Zm173.21,44.06h-90.15V350.49h90.15Zm57.59,16.9H1884.51a6,6,0,0,1-1.55-11.9,5.75,5.75,0,0,1,1.55,0h202.28a6,6,0,1,1,0,11.9Zm33.39-60.14h1.34l34.05,25.54-35.39,33.39ZM1856,345V332.89h278.22L2117.94,345Zm230.8,49.06H2034.2V350h81V411.7h-19.73a10.93,10.93,0,0,0-8.66-17.63ZM1849.65,279.23a7.47,7.47,0,0,1,1.34,4.26v10.82a10.35,10.35,0,0,0-5.36-1.5h-1.42Zm338.67,96,32.55-24.38h1v56.94Zm-63.1-29.38L2171,311.74l45.77,34.11ZM1853,257.52l-14.16,35.3H1818l12.46-31a2.5,2.5,0,0,0-1.39-3.25l-43.44-17.43,3.67-9.14Zm-28.12,4.72-12.27,30.58H1809l8-20a2.5,2.5,0,0,0-1.39-3.25l-58.88-23.26,4.37-9.66Zm-13.38,11.07-7.83,19.51H1793a2.55,2.55,0,0,0-.93-.66L1749,275.05a2.5,2.5,0,0,0-2.11,4.53l.27.11,33,13.13h-19l-17.34-6.9a2.5,2.5,0,1,0-1.84,4.65h0l5.65,2.25h-18l18.08-45.08ZM2277,211.58a4.68,4.68,0,0,1,4.68-4.67h94.06a4.68,4.68,0,0,1,4.68,4.67V240.7H2277Z" transform="translate(0 0.01)"/><path class="cls-66" d="M2315.3,227.77h30.84a2.5,2.5,0,0,0,0-5H2315.3a2.5,2.5,0,0,0,0,5Z" transform="translate(0 0.01)"/><path class="cls-67" d="M2323.3,394.87h15.91a2.5,2.5,0,0,0,0-5H2323.3a2.5,2.5,0,0,0,0,5Z" transform="translate(0 0.01)"/><path class="cls-68" d="M2296.4,293.42H2364a6.51,6.51,0,0,0,6.49-6.49V275a6.51,6.51,0,0,0-6.49-6.49H2296.4a6.49,6.49,0,0,0-6.48,6.49v11.92A6.49,6.49,0,0,0,2296.4,293.42Zm-1.48-6.49V275a1.52,1.52,0,0,1,1.48-1.49H2364a1.51,1.51,0,0,1,1.49,1.49v11.92a1.51,1.51,0,0,1-1.49,1.49H2296.4A1.5,1.5,0,0,1,2294.92,286.93Z" transform="translate(0 0.01)"/><path class="cls-69" d="M2364,303.83H2296.4a6.49,6.49,0,0,0-6.48,6.49v11.92a6.48,6.48,0,0,0,6.48,6.48H2364a6.49,6.49,0,0,0,6.49-6.48V310.31A6.5,6.5,0,0,0,2364,303.83Zm1.49,18.41a1.5,1.5,0,0,1-1.49,1.48H2296.4a1.5,1.5,0,0,1-1.48-1.48V310.31a1.5,1.5,0,0,1,1.48-1.49H2364a1.51,1.51,0,0,1,1.49,1.49Z" transform="translate(0 0.01)"/><path class="cls-70" d="M2277.3,290.92a2.77,2.77,0,1,0-2.78,2.76h0A2.77,2.77,0,0,0,2277.3,290.92Z" transform="translate(0 0.01)"/><path class="cls-71" d="M2241.72,200.5a15.12,15.12,0,1,0,6.7,9.43A15.12,15.12,0,0,0,2241.72,200.5Zm-17.9,15.07a10.12,10.12,0,0,1,7.6-12.13,10.29,10.29,0,0,1,2.28-.26,10.12,10.12,0,1,1-9.88,12.39Z" transform="translate(0 0.01)"/><path class="cls-72" d="M1703.42,88.4a11.4,11.4,0,1,0-5.06-7.11A11.4,11.4,0,0,0,1703.42,88.4Zm4.63-15.91a6.41,6.41,0,1,1-4.66,7.43,6.36,6.36,0,0,1,4.66-7.43Z" transform="translate(0 0.01)"/><path class="cls-73" d="M1705.91,355.6a11.76,11.76,0,1,0-18.5,9.84l-5.81,10.69a6.43,6.43,0,0,0,5.65,9.49h13.8a6.42,6.42,0,0,0,5.64-9.49h0l-5.81-10.7A12,12,0,0,0,1705.91,355.6Zm-3.61,24.33a1.39,1.39,0,0,1-1.22.69H1687.3a1.41,1.41,0,0,1-1.43-1.39,1.47,1.47,0,0,1,.18-.71l7-12.88a2.51,2.51,0,0,0-1-3.39l-.26-.12a7,7,0,0,1-4.33-6.53,6.76,6.76,0,0,1,13.52,0,7,7,0,0,1-4.34,6.53,2.47,2.47,0,0,0-1.27,3.47l7,12.88h0A1.4,1.4,0,0,1,1702.3,379.93Z" transform="translate(0 0.01)"/></g></g></svg>