<svg xmlns="http://www.w3.org/2000/svg" xmlns:xlink="http://www.w3.org/1999/xlink" width="325" height="150" xmlns:v="https://vecta.io/nano"><g fill="#374356"><path d="M84.197 37.061v7.949H50.984V2.208h32.417v7.949H60.85v9.294h19.916v7.704H60.85v9.906z"/><path d="M115.994 45.01l-10.356-14.858L95.466 45.01H84.068l15.871-21.768L84.864 2.208H96.14l9.866 13.88 9.682-13.88h10.724L111.46 22.875l15.994 22.135zM147.24 2.208c3.799 0 7.098.632 9.897 1.896s4.953 3.057 6.465 5.381 2.267 5.075 2.267 8.255c0 3.139-.756 5.88-2.267 8.224s-3.667 4.138-6.465 5.381-6.097 1.865-9.897 1.865h-8.64v11.8h-9.927V2.208h18.568zm-.552 22.93c2.982 0 5.25-.642 6.802-1.926s2.329-3.108 2.329-5.473c0-2.405-.776-4.25-2.329-5.534s-3.82-1.926-6.802-1.926h-8.089v14.858h8.089zm56.738 11.923v7.949h-33.213V2.208h32.417v7.949h-22.551v9.294h19.916v7.704h-19.916v9.906zm32.532 7.949l-8.273-11.923h-.49-8.64V45.01h-9.927V2.208h18.568c3.799 0 7.098.632 9.897 1.896s4.953 3.057 6.465 5.381 2.267 5.075 2.267 8.255-.766 5.921-2.298 8.224-3.707 4.066-6.526 5.289l9.621 13.758h-10.663zm-.184-27.271c0-2.405-.776-4.25-2.329-5.534s-3.82-1.926-6.802-1.926h-8.089v14.919h8.089c2.982 0 5.25-.652 6.802-1.957s2.329-3.139 2.329-5.503zm23.463-7.46H245.51V2.208h37.38v8.071h-13.727V45.01h-9.927zM79.235 95.186H59.319l-3.799 9.172H45.347l19.119-42.802h9.805l19.18 42.802H83.034l-3.799-9.172zm-3.125-7.521l-6.802-16.387-6.802 16.387H76.11zm19.111-26.109h19.487c4.657 0 8.773.887 12.348 2.66s6.353 4.27 8.334 7.49 2.972 6.971 2.972 11.251-.991 8.03-2.972 11.251-4.759 5.717-8.334 7.49-7.691 2.66-12.348 2.66H95.221V61.556zm18.997 34.669c4.29 0 7.711-1.192 10.264-3.577s3.83-5.615 3.83-9.692-1.277-7.307-3.83-9.692-5.975-3.577-10.264-3.577h-9.069v26.537h9.069zm68.748-34.669l-18.568 42.802h-9.805l-18.506-42.802h10.724l13.053 30.573L173.1 61.556zm.851 0h9.927v42.802h-9.927zm37.925 43.535c-4.371 0-8.324-.948-11.858-2.843s-6.312-4.525-8.334-7.888-3.033-7.164-3.033-11.404 1.011-8.041 3.033-11.404 4.8-5.992 8.334-7.888 7.507-2.843 11.919-2.843c3.718 0 7.078.652 10.08 1.957s5.525 3.18 7.568 5.625l-6.373 5.87c-2.901-3.343-6.496-5.014-10.785-5.014-2.655 0-5.025.581-7.108 1.743a12.4 12.4 0 0 0-4.872 4.861c-1.164 2.079-1.746 4.443-1.746 7.093s.582 5.014 1.746 7.093a12.4 12.4 0 0 0 4.872 4.861c2.084 1.162 4.453 1.743 7.108 1.743 4.29 0 7.885-1.692 10.785-5.075l6.373 5.87c-2.043 2.487-4.576 4.382-7.599 5.687s-6.393 1.957-10.111 1.957zm54.899-8.682v7.949h-33.213V61.556h32.417v7.949h-22.551v9.294h19.916v7.704h-19.916v9.906z"/></g><g fill="#f58320"><path d="M19.667 41.967c0 3.048-.484 5.352-1.453 6.913s-2.533 2.676-4.693 3.345c2.16.669 3.725 1.784 4.693 3.345s1.453 3.865 1.453 6.913v24.419c0 5.798 2.756 8.697 8.269 8.697h2.794v8.809h-4.917c-5.587 0-9.796-1.394-12.627-4.181S8.94 93.332 8.94 87.905V62.26c0-3.717-1.676-5.575-5.029-5.575H0v-8.92h3.911c3.352 0 5.029-1.858 5.029-5.575V16.545c0-5.426 1.415-9.533 4.246-12.321S20.226.043 25.813.043h4.917v8.809h-2.794c-5.513 0-8.269 2.899-8.269 8.697v24.419zM304.631 62.44c0-3.048.484-5.352 1.453-6.913s2.533-2.676 4.693-3.345c-2.16-.669-3.725-1.784-4.693-3.345s-1.453-3.865-1.453-6.913V17.506c0-5.798-2.756-8.697-8.269-8.697h-2.794V0h4.917c5.587 0 9.796 1.394 12.627 4.181s4.246 6.894 4.246 12.321v25.645c0 3.717 1.676 5.575 5.029 5.575h3.911v8.92h-3.911c-3.352 0-5.029 1.858-5.029 5.575v25.645c0 5.426-1.415 9.533-4.246 12.321s-7.04 4.181-12.627 4.181h-4.917v-8.809h2.794c5.513 0 8.269-2.899 8.269-8.697V62.44zM21.425 129.184v8.179h12.022v2.883H21.425v9.486H18v-23.464h16.921v2.916zM48.587 150c-2.42 0-4.601-.52-6.542-1.559s-3.465-2.475-4.573-4.307-1.661-3.877-1.661-6.134.554-4.302 1.661-6.134 2.632-3.268 4.573-4.307S46.167 126 48.587 126c2.398 0 4.567.52 6.508 1.559s3.459 2.469 4.556 4.291 1.644 3.872 1.644 6.151-.548 4.33-1.644 6.151-2.615 3.251-4.556 4.291S50.985 150 48.587 150zm0-2.983c1.758 0 3.34-.391 4.744-1.173s2.512-1.86 3.322-3.235 1.216-2.911 1.216-4.609-.405-3.235-1.216-4.609a8.71 8.71 0 0 0-3.322-3.235c-1.404-.782-2.986-1.173-4.744-1.173s-3.351.391-4.778 1.173-2.546 1.86-3.357 3.235-1.216 2.911-1.216 4.609.405 3.235 1.216 4.609 1.93 2.453 3.357 3.235 3.02 1.173 4.778 1.173z"/><use xlink:href="#B"/><path d="M95.513 126.268h10.104c2.535 0 4.784.492 6.748 1.475s3.488 2.363 4.573 4.14 1.627 3.816 1.627 6.117-.542 4.341-1.627 6.117-2.609 3.156-4.573 4.14-4.213 1.475-6.748 1.475H95.513v-23.464zm9.899 20.547c1.941 0 3.648-.369 5.121-1.106s2.609-1.771 3.408-3.101 1.199-2.866 1.199-4.609-.4-3.279-1.199-4.609-1.935-2.363-3.408-3.101-3.18-1.106-5.121-1.106h-6.474v17.631h6.474zm34.08.001v2.916h-17.4v-23.464h16.921v2.916h-13.495v7.207h12.022v2.849h-12.022v7.575zm24.319-20.548l-10.515 23.464h-3.391l-10.55-23.464h3.699l8.632 19.274 8.7-19.274zm18.736 20.548v2.916h-17.4v-23.464h16.921v2.916h-13.495v7.207h12.022v2.849h-12.022v7.575zm3.836-20.548h3.425v20.547h12.982v2.916h-16.407zM215.395 150c-2.42 0-4.601-.52-6.542-1.559s-3.465-2.475-4.573-4.307-1.661-3.877-1.661-6.134.554-4.302 1.661-6.134 2.632-3.268 4.573-4.307 4.122-1.559 6.542-1.559c2.398 0 4.567.52 6.508 1.559s3.459 2.469 4.556 4.291 1.644 3.872 1.644 6.151-.548 4.33-1.644 6.151-2.615 3.251-4.556 4.291-4.11 1.559-6.508 1.559zm0-2.983c1.758 0 3.34-.391 4.744-1.173s2.512-1.86 3.322-3.235 1.216-2.911 1.216-4.609-.405-3.235-1.216-4.609a8.71 8.71 0 0 0-3.322-3.235c-1.404-.782-2.986-1.173-4.744-1.173s-3.351.391-4.778 1.173-2.546 1.86-3.357 3.235-1.216 2.911-1.216 4.609.405 3.235 1.216 4.609 1.93 2.453 3.357 3.235 3.02 1.173 4.778 1.173zm25.586-20.749c3.106 0 5.549.726 7.33 2.179s2.672 3.453 2.672 6-.891 4.547-2.672 6-4.224 2.179-7.33 2.179h-5.926v7.106h-3.425v-23.464h9.351zm-.103 13.441c2.169 0 3.825-.453 4.967-1.358s1.713-2.207 1.713-3.905-.571-3-1.713-3.905-2.797-1.358-4.967-1.358h-5.823v10.525h5.823zm30.827 7.107v2.916h-17.4v-23.464h16.921v2.916H257.73v7.207h12.022v2.849H257.73v7.575z"/><use xlink:href="#B" x="210.719"/><path d="M305.718 150c-1.804 0-3.545-.274-5.223-.821s-2.997-1.257-3.956-2.128l1.267-2.615c.913.804 2.084 1.458 3.511 1.961s2.894.754 4.401.754c1.987 0 3.471-.33 4.453-.989s1.473-1.536 1.473-2.631c0-.804-.268-1.458-.805-1.961s-1.199-.888-1.987-1.156-1.901-.57-3.34-.905c-1.804-.425-3.26-.849-4.367-1.274a7.22 7.22 0 0 1-2.843-1.961c-.788-.883-1.182-2.073-1.182-3.57 0-1.251.337-2.38 1.01-3.385s1.695-1.81 3.066-2.413 3.071-.905 5.104-.905a16.48 16.48 0 0 1 4.179.536c1.37.358 2.546.872 3.528 1.542l-1.13 2.682c-1.005-.626-2.078-1.101-3.22-1.425a12.26 12.26 0 0 0-3.357-.486c-1.941 0-3.397.346-4.367 1.039s-1.456 1.587-1.456 2.682c0 .804.274 1.458.822 1.961s1.227.894 2.038 1.173 1.912.575 3.305.888c1.804.425 3.254.849 4.35 1.274s2.038 1.073 2.826 1.944 1.182 2.045 1.182 3.52a5.9 5.9 0 0 1-1.028 3.369c-.685 1.017-1.724 1.821-3.117 2.413s-3.106.888-5.138.888z"/></g><defs ><path id="B" d="M80.853 149.732l-5.172-7.207-1.507.067h-5.926v7.14h-3.425v-23.464h9.351c3.106 0 5.549.726 7.33 2.179s2.672 3.453 2.672 6c0 1.81-.457 3.352-1.37 4.626s-2.215 2.201-3.905 2.782l5.686 7.877h-3.733zm-6.782-9.989c2.169 0 3.825-.458 4.967-1.374s1.713-2.223 1.713-3.922-.571-3-1.713-3.905-2.797-1.358-4.967-1.358h-5.823v10.559h5.823z"/></defs></svg>