<svg xmlns="http://www.w3.org/2000/svg" width="464" height="512" xmlns:v="https://vecta.io/nano"><path d="M231.992 199.988c-26.801 0-48.605 21.777-48.605 48.547s21.805 48.547 48.605 48.547 48.605-21.777 48.605-48.547-21.805-48.547-48.605-48.547h0zm0 82.109c-18.531 0-33.605-15.059-33.605-33.562s15.074-33.566 33.605-33.566 33.605 15.059 33.605 33.566-15.074 33.562-33.605 33.562h0z" fill="#374356"/><path d="M320.465 181.863l-21.723-21.695a7.51 7.51 0 0 0-9.809-.691l-16.363 12.281a86.47 86.47 0 0 0-14.918-6.172l-2.875-20.238a7.5 7.5 0 0 0-7.426-6.441h-30.719c-3.738 0-6.902 2.746-7.43 6.441l-2.875 20.238a86.4 86.4 0 0 0-14.914 6.172l-16.363-12.281c-2.988-2.242-7.168-1.945-9.812.691l-21.719 21.695c-2.641 2.641-2.937 6.816-.695 9.797l12.297 16.348c-2.52 4.762-4.59 9.746-6.18 14.895l-20.266 2.875c-3.699.523-6.445 3.688-6.445 7.418v30.68c0 3.73 2.746 6.895 6.445 7.418l20.266 2.875c1.59 5.148 3.656 10.133 6.18 14.895l-12.297 16.348a7.49 7.49 0 0 0 .695 9.797l21.719 21.695c2.645 2.637 6.824 2.93 9.813.691l16.363-12.281a86.75 86.75 0 0 0 14.914 6.172l2.875 20.238a7.5 7.5 0 0 0 7.43 6.438h30.719a7.5 7.5 0 0 0 7.426-6.437l2.875-20.238a86.78 86.78 0 0 0 14.918-6.172l16.363 12.281a7.51 7.51 0 0 0 9.809-.691l21.723-21.695c2.641-2.641 2.934-6.816.691-9.797l-12.297-16.348a86.01 86.01 0 0 0 6.18-14.895l20.266-2.875c3.699-.523 6.449-3.687 6.449-7.418v-30.68c0-3.73-2.75-6.895-6.449-7.418l-20.266-2.875c-1.59-5.148-3.656-10.133-6.18-14.895l12.297-16.348a7.49 7.49 0 0 0-.691-9.797h0zm6.289 57.832v17.676l-18.684 2.652a7.5 7.5 0 0 0-6.234 5.637 71.17 71.17 0 0 1-8.332 20.094c-1.594 2.617-1.43 5.938.414 8.387l11.336 15.07-12.516 12.496-15.086-11.32a7.5 7.5 0 0 0-8.398-.414 71.61 71.61 0 0 1-20.121 8.324 7.5 7.5 0 0 0-5.645 6.223l-2.648 18.66h-17.699l-2.652-18.66c-.43-3.031-2.668-5.496-5.645-6.223a71.59 71.59 0 0 1-20.117-8.324 7.5 7.5 0 0 0-8.398.414l-15.086 11.32-12.516-12.5 11.336-15.066a7.49 7.49 0 0 0 .414-8.387 71.27 71.27 0 0 1-8.336-20.098c-.727-2.973-3.195-5.207-6.23-5.637l-18.684-2.648v-17.676l18.684-2.648c3.035-.43 5.504-2.664 6.23-5.637 1.738-7.098 4.543-13.855 8.336-20.094a7.49 7.49 0 0 0-.414-8.387l-11.336-15.07 12.516-12.5 15.086 11.324c2.453 1.836 5.777 2.004 8.398.414a71.36 71.36 0 0 1 20.117-8.324c2.977-.73 5.211-3.191 5.645-6.227l2.652-18.66h17.699l2.648 18.66a7.51 7.51 0 0 0 5.645 6.227c7.105 1.734 13.875 4.535 20.121 8.324 2.621 1.59 5.945 1.422 8.398-.414l15.086-11.324 12.516 12.5-11.336 15.07c-1.844 2.445-2.008 5.77-.414 8.387a71.26 71.26 0 0 1 8.332 20.09c.727 2.977 3.195 5.211 6.23 5.641l18.688 2.648zM231.988 58.914c4.145 0 7.5-3.352 7.5-7.488V7.492c0-4.141-3.355-7.492-7.5-7.492s-7.5 3.352-7.5 7.492v43.934c0 4.137 3.359 7.488 7.5 7.488zm224.489 165.301h-43.988c-4.145 0-7.5 3.352-7.5 7.488s3.355 7.492 7.5 7.492h43.988c4.141 0 7.5-3.352 7.5-7.492s-3.359-7.488-7.5-7.488h0zm-404.989 0H7.5c-4.141 0-7.5 3.352-7.5 7.488a7.5 7.5 0 0 0 7.5 7.492h43.988c4.141 0 7.5-3.352 7.5-7.492a7.49 7.49 0 0 0-7.5-7.488zm47.563-114.692c2.891 2.887 7.719 2.887 10.605 0 2.93-2.926 2.93-7.668 0-10.594L78.555 67.863a7.52 7.52 0 0 0-10.609 0c-2.926 2.926-2.926 7.668 0 10.598l31.105 31.063zM66.66 158.969l-15.199-5.949c-3.859-1.508-8.207.391-9.719 4.242a7.49 7.49 0 0 0 4.246 9.707l15.203 5.949c3.809 1.488 8.227-.441 9.719-4.242 1.512-3.855-.391-8.199-4.25-9.707zm92.5-92.387c1.492 3.801 5.91 5.73 9.719 4.242 3.855-1.508 5.758-5.855 4.25-9.707l-6.133-15.625c-1.508-3.855-5.859-5.754-9.719-4.246a7.49 7.49 0 0 0-4.246 9.707l6.129 15.629zm135.934 4.242c3.809 1.488 8.227-.441 9.719-4.242l6.133-15.625c1.508-3.855-.391-8.199-4.25-9.711a7.51 7.51 0 0 0-9.719 4.242l-6.129 15.629a7.49 7.49 0 0 0 4.246 9.707h0zm64.527 40.895a7.48 7.48 0 0 0 5.305-2.195l31.102-31.062a7.49 7.49 0 0 0 0-10.598c-2.93-2.922-7.676-2.922-10.605 0L354.316 98.93c-2.93 2.926-2.93 7.668 0 10.594a7.48 7.48 0 0 0 5.305 2.195zm62.613 45.543c-1.512-3.855-5.863-5.75-9.719-4.242l-15.203 5.949c-3.855 1.508-5.758 5.852-4.246 9.707 1.492 3.801 5.91 5.73 9.719 4.242l15.203-5.949a7.49 7.49 0 0 0 4.246-9.707z" fill="#f58320"/><path d="M233.359 77.152c-31.246-.266-61.738 8.633-88.121 25.723a7.49 7.49 0 0 0-2.211 10.363c2.25 3.469 6.898 4.457 10.371 2.207 23.574-15.266 50.73-23.316 78.629-23.316l1.211.004c38.617.324 74.871 15.586 102.086 42.984 27.23 27.41 42.227 63.773 42.227 102.391 0 47.227-23.113 91.684-61.832 118.926-12.773 8.984-21.125 22.75-23.223 37.801H266.84c-4.145 0-7.5 3.355-7.5 7.492s3.355 7.492 7.5 7.492h25.137v38.414c0 9.492-7.734 17.215-17.238 17.215h-85.492c-9.504 0-17.238-7.723-17.238-17.215v-38.414h64.832c4.145 0 7.5-3.355 7.5-7.492s-3.355-7.492-7.5-7.492h-65.363c-2.07-15.07-10.301-28.762-22.922-37.598-38.898-27.227-62.121-71.758-62.121-119.125 0-39.449 15.828-76.477 44.574-104.262 2.977-2.879 3.055-7.621.172-10.594s-7.625-3.051-10.605-.172c-31.687 30.633-49.141 71.484-49.141 115.027 0 52.246 25.613 101.367 68.512 131.395 10.684 7.477 17.063 19.746 17.063 32.82v45.906c0 15.57 11.125 28.594 25.852 31.559C191.008 499.004 210.172 512 231.992 512s40.984-12.996 49.129-32.809c14.727-2.965 25.852-15.988 25.852-31.559v-45.887c.004-13.055 6.5-25.406 17.387-33.066 42.695-30.043 68.188-79.078 68.188-131.168 0-42.598-16.539-82.707-46.574-112.945-30.02-30.219-70.012-47.059-112.613-47.414h0zm-1.367 419.867c-13.191 0-25.031-6.613-31.934-17.191h63.867c-6.902 10.578-18.742 17.191-31.934 17.191h0z" fill="#334155"/></svg>