<svg xmlns="http://www.w3.org/2000/svg" xmlns:xlink="http://www.w3.org/1999/xlink" width="630" height="630" xmlns:v="https://vecta.io/nano"><defs><circle id="A" cx="315" cy="315" r="315"/><path d="M315 630V0C141.03 0 0 141.03 0 315s141.03 315 315 315z" id="B"/></defs><g fill="none" fill-rule="evenodd"><mask id="C" fill="#fff"><use xlink:href="#A"/></mask><g mask="url(#C)"><use fill="#3871c8" xlink:href="#B"/><path d="M630 630V0C456.03 0 315 141.03 315 315s141.03 315 315 315z" fill="#3368b8" transform="matrix(-1 0 0 -1 945 630)"/></g><path fill-opacity=".2" fill="#000" mask="url(#C)" d="M160 232.16l114.305-108.977L472.5 168.38l260.848 250.484-283.188 303.56-195.172-194.258 42.087-103.014-38.607-31.592 15.92-43.376z"/><path d="M368.594 395.05c0-15.234 2.588-27.588 7.764-37.06s17.627-22.02 37.354-37.646c28.32-22.266 47.07-41.113 56.25-56.543s13.77-31.445 13.77-48.047c0-40.04-17.773-72.07-53.32-96.094C404.238 101.887 369.863 93 327.285 93c-54.687 0-95.264 12.744-121.73 38.232S163.906 190.363 160 232.16h0l113.672 14.063c2.54-22.852 8.35-38.867 17.432-48.047s20.557-13.77 34.424-13.77c12.89 0 22.5 2.98 28.857 8.936s9.52 14.307 9.52 25.05-7.9 22.56-23.73 35.45c-29.687 24.61-48.78 41.797-57.275 51.563s-14.893 20.557-19.19 32.373-6.445 27.197-6.445 46.143h0v11.133h111.328zm4.102 134.766V424.64H253.457v105.176h119.238z" fill="#fff" fill-rule="nonzero" mask="url(#C)"/></g></svg>