<svg xmlns="http://www.w3.org/2000/svg" width="2140" height="2500" viewBox="0 0 256 299" preserveAspectRatio="xMidYMid"><path d="M208.752 58.06l25.77-6.636.192.283.65 155.607-.843.846-5.3.227-20.16-3.138-.302-.794V58.06M59.705 218.97l.095.007 68.027 19.767.173.133.296.236-.096 59.232-.2.252-68.295-33.178v-46.45" fill="#7a3e65"/><path d="M208.752 204.456l-80.64 19.312-40.488-9.773-27.92 4.976L128 238.878l105.405-28.537 1.118-2.18-25.77-3.705" fill="#cfb2c1"/><path d="M196.295 79.626l-.657-.75-66.904-19.44-.734.283-.672-.343L22.052 89.734l-.575.703.845.463 24.075 3.53.85-.29 80.64-19.31 40.488 9.773 27.92-4.977" fill="#512843"/><path d="M47.248 240.537l-25.77 6.22-.045-.15-1.015-155.026 1.06-1.146 25.77 3.704v146.396" fill="#c17b9e"/><path d="M82.04 180.403l45.96 5.39.345-.515.187-71.887-.532-.59-45.96 5.392v62.208" fill="#7a3e65"/><path d="M173.96 180.403l-45.96 5.39v-72.99l45.96 5.392v62.208m22.335-100.777L128 59.72V0l68.295 33.177v46.45" fill="#c17b9e"/><path d="M128 0L0 61.793v175.01l21.477 9.954V90.437L128 59.72V0" fill="#7a3e65"/><path d="M234.523 51.425V208.16L128 238.878v59.72l128-61.794V61.793l-21.477-10.368" fill="#c17b9e"/></svg>