<svg xmlns="http://www.w3.org/2000/svg" viewBox="0 0 512 512" width="256" height="256"><defs><clipPath id="A"><path d="M-1018.62 565.7H862.62v1175.78h-1881.24z" fill="none"/></clipPath><clipPath id="B"><path d="M0 0h512v512H0z" fill="none"/></clipPath></defs><g clip-path="url(#A)" stroke-width="1.51"><path d="M-42.82,358l245,24.8,199.4,2Z" fill="#b17c81" stroke="#b17c81"/><path d="M-42.82 358l444.44 26.8 227.18-2z" fill="#a2747c" stroke="#a2747c"/><path d="M401.62 384.74l163.7 138.9 63.5-140.87z" fill="#996976" stroke="#996976"/><path d="M202.22,382.76l54.56,14.88,144.84-12.9Z" fill="#aa787e" stroke="#aa787e"/><path d="M401.62 384.74L356 537.52l209.32-13.9z" fill="#b2777e" stroke="#b2777e"/><path d="M256.78,397.64L356,537.52l45.63-152.78Z" fill="#b27a7f" stroke="#b27a7f"/><path d="M256.78 397.64l-92.26 135.9 191.47 4z" fill="#c78485" stroke="#c78485"/><path d="M202.22 382.76l-37.7 150.8 92.26-135.9z" fill="#c08184" stroke="#c08184"/><path d="M-42.82 358l207.34 175.55 37.7-150.8z" fill="#c48485" stroke="#c48485"/><path d="M-42.82 358l-51.6 137.9 258.93 37.7z" fill="#d58b88" stroke="#d58b88"/><path d="M-94.4 495.85L-33.9 598l198.4-64.48z" fill="#e09790" stroke="#e09790"/></g><g clip-path="url(#B)"><path d="M438.48 152a3.79 3.79 0 0 1-3.32-1.89L377.4 49.94a3.91 3.91 0 0 0-3.39-1.89H138.33a3.79 3.79 0 0 0-3.33 1.89L75 153.9a0 0 0 0 0 0 0L17.17 254.1a3.88 3.88 0 0 0 0 3.82L135 462a3.79 3.79 0 0 0 3.32 1.89H374a3.91 3.91 0 0 0 3.36-1.89l57.84-100.1a3.79 3.79 0 0 1 3.32-1.89h71.93a4.32 4.32 0 0 0 4.32-4.32V156.32a4.32 4.32 0 0 0-4.32-4.32h-72z" fill="#4d4d4d"/><path d="M88.1 245.5l-64.57 23.44-6.35-11a3.8 3.8 0 0 1 0-3.83l29.23-50.63z" fill="#e1e1e1"/><path d="M472.2 264.2l42.56-6.08v49.36L472.2 264.2z" fill="#c8c8c8"/><path d="M472.2 264.2l42.55 43.28v48.2a4.27 4.27 0 0 1-4.24 4.28H461z" fill="#c2c2c2"/><path d="M472.2 264.2L461 359.98h-59.54l-18.04-43.45 88.8-52.32z" fill="#c7c7c7"/><path d="M472.2 264.2l42.56-51.8v45.72l-42.56 6.08z" fill="#cecece"/><path d="M514.77 156.33v56.08l-42.55 51.8-32.1-112.2h70.33a4.32 4.32 0 0 1 4.32 4.33z" fill="#d3d3d3"/><path d="M401.46 359.98h-31.4l-8.14-11.67 21.5-31.78 18.04 43.45z" fill="#c6c6c6"/><path d="M472.2 264.2l-117.8-49.8 61.95-62.4h23.75l32.1 112.2z" fill="#d5d5d5"/><path d="M354.42 214.42l29 102.1 88.8-52.32z" fill="#d0d0d0"/><path d="M370.06 359.98h-8.52l.38-11.67 8.14 11.67z" fill="#bfbfbf"/><path d="M416.37 152l-61.95 62.4-11.18-55.82 23.92-6.6h49.2z" fill="#d9d9d9"/><path d="M354.42 214.42l-143 33 150.5 100.9z" fill="#d4d4d4"/><path d="M354.42 214.42l7.5 133.9 21.5-31.78z" fill="#d0d0d0"/><path d="M343.24 158.6l-131.77 88.8 143-33z" fill="#d9d9d9"/><path d="M211.47 247.4l-61.97 112.6h-35.3L88.1 245.5l123.37 1.9z" fill="#d8d8d8"/><path d="M147.94 152L88.1 245.5l-15.25-87.86 2.15-3.7v-.07a3.91 3.91 0 0 1 3.33-1.87h69.6z" fill="#e2e2e2"/><path d="M114.2 360H78.33a3.84 3.84 0 0 1-3.33-2l-51.47-89.06L88.1 245.5z" fill="#d8d8d8"/><path d="M88.1 245.5l-41.7-42.03 26.44-45.83L88.1 245.5z" fill="#e4e4e4"/><g fill="#dedede"><path d="M276.77 152H172.4l39.08 95.38 131.77-88.8-39.72-6.6h-26.75z"/><path d="M156.1 152h-8.15L88.1 245.5l123.37 1.9L172.4 152h-16.3z"/></g><path d="M333.23 359.98h28.3l.38-11.67-28.7 11.67z" fill="#c5c5c5"/><path d="M361.92 348.3L211.47 247.4l27.1 112.6h94.66l28.7-11.67z" fill="#d0d0d0"/><path d="M149.5 359.98h89.07l-27.1-112.6-61.97 112.6z" fill="#d1d1d1"/><path d="M343.65 152l-.4 6.6 23.92-6.6h-23.5z" fill="#ddd"/><path d="M303.52 152l39.72 6.6-3.66-6.6h-36.06z" fill="#e3e3e3"/><path d="M339.58 152l3.66 6.6.4-6.6h-4.07z" fill="#e2e2e2"/><path d="M235.15 153.8L177 254.46a3.38 3.38 0 0 0-.42 1.64h-40.5l79.74-138.18a3.14 3.14 0 0 1 1.19 1.15l.1.1 18.08 31.4a3.49 3.49 0 0 1-.04 3.22z" fill="#00b8e3"/><path d="M235.08 361.9l-18 31.27a3.51 3.51 0 0 1-1.22 1.15L136 256.14h40.6a3.09 3.09 0 0 0 .38 1.57.37.37 0 0 0 .07.17l58 100.58a3.41 3.41 0 0 1 .03 3.43z" fill="#33c6e9"/><path d="M215.8 117.92l-99.74 172.84-19.1-33.12a3.09 3.09 0 0 1-.38-1.57 3.38 3.38 0 0 1 .42-1.64l78.05-135.17a3.4 3.4 0 0 1 3-1.75h36.04a3.58 3.58 0 0 1 1.71.41z" fill="#008aaa"/><path d="M215.8 394.3a3.58 3.58 0 0 1-1.71.45H178a3.4 3.4 0 0 1-3-1.75l-53.72-93-5.28-9.22 20-34.66z" fill="#00b8e3"/><path d="M376.2 256.1l-79.8 138.2a3.73 3.73 0 0 1-1.19-1.15l-.07-.1L277 361.72a3.49 3.49 0 0 1 0-3.22l58.06-100.65a3.38 3.38 0 0 0 .49-1.75h40.57z" fill="#008aaa"/><g fill="#00b8e3"><path d="M415.68 256.1a3.38 3.38 0 0 1-.49 1.75l-78.13 135.3a3.42 3.42 0 0 1-2.9 1.61h-36a3.72 3.72 0 0 1-1.75-.45l99.78-172.84 19 32.9a3.35 3.35 0 0 1 .49 1.71z"/><path d="M376.2 256.1h-40.56a3.35 3.35 0 0 0-.49-1.71l-58-100.55a3.41 3.41 0 0 1 0-3.46l18.08-31.3a3.73 3.73 0 0 1 1.19-1.15z"/></g><path d="M396.2 221.44h0l-20 34.62-79.8-138.14a3.72 3.72 0 0 1 1.75-.45h36a3.42 3.42 0 0 1 2.9 1.61z" fill="#33c6e9"/></g></svg>