<svg width="216" height="82" viewBox="0 0 216 82" fill="none" xmlns="http://www.w3.org/2000/svg">
<g clip-path="url(#clip0)">
<g style="mix-blend-mode:multiply">
<path d="M53 42C53 31.5066 43.8218 23 32.5 23C21.1782 23 12 31.5066 12 42C12 52.4934 21.1782 61 32.5 61C43.8218 61 53 52.4934 53 42Z" fill="white"/>
</g>
<path d="M58.9817 54.898C58.5792 53.693 57.5422 52.6934 56.9025 51.6537C55.7082 49.7077 56.1534 47.4099 56.6066 45.3173C57.1397 42.8594 57.1397 41.6412 57.353 39.1354C57.7509 34.372 57.5629 29.5779 56.7932 24.8603C56.0361 20.2299 54.5433 15.7675 53.6769 11.1664C53.1678 8.50063 52.2321 6.18943 51.1844 3.70229C50.8725 2.95588 50.6513 3.07051 50.2594 3.61699C48.6087 6.06045 47.1497 8.62814 45.8956 11.297C45.5597 11.9901 42.2542 19.1316 42.6061 19.2356C40.7214 18.6865 37.9543 17.7694 32.3536 17.7694C27.1394 17.7694 24.543 18.5238 22.6236 19.2356C22.637 19.2356 21.8239 17.2816 21.7546 17.151C19.8833 13.3896 17.9879 9.63624 15.8233 6.06148C15.5567 5.61896 14.5837 3.26777 13.9067 3.64364C12.6537 4.3394 12.1766 7.2344 11.8274 8.51929C10.3585 13.8854 8.89505 19.5182 8.18862 25.0469C7.29293 32.0845 6.8984 39.1567 7.71146 46.2183C7.83675 47.3059 8.03135 48.5881 7.75411 49.6518C7.31959 51.3205 5.73081 52.4081 5.15234 54.0236C4.58987 55.5857 5.62151 56.8573 7.11166 56.9559C7.48753 56.9799 10.7078 56.1109 10.5958 55.5724C10.7557 56.3481 10.8624 56.9266 10.9983 57.4971C11.8594 61.1198 15.2928 72.0387 18.3078 73.7581C20.2511 74.8724 21.8479 73.7394 21.8692 71.3936C21.8692 71.0124 21.8292 70.6285 21.8026 70.1407C25.1823 71.383 28.7503 72.0358 32.3509 72.0707C36.1214 72.0483 39.8619 71.3988 43.4191 70.1487C43.3925 70.6365 43.3472 71.0204 43.3525 71.4016C43.3738 73.7474 44.9706 74.8671 46.9139 73.7661C48.7133 72.7318 49.665 70.1727 50.3794 68.2773C51.4244 65.5103 52.512 61.3331 53.2024 58.4434C53.3384 57.8729 53.4423 57.2945 53.6049 56.5187C53.541 56.8253 56.3 57.8143 56.6226 57.8516C57.7182 58.0035 58.9098 57.6597 59.1124 56.3428C59.1864 55.8577 59.1416 55.3619 58.9817 54.898ZM24.2284 34.3904C24.8395 34.3803 25.4398 34.5524 25.9528 34.8846C26.4658 35.2169 26.8684 35.6943 27.1091 36.2561C27.3498 36.8179 27.4179 37.4387 27.3047 38.0393C27.1915 38.6399 26.902 39.1933 26.4732 39.6288C26.0445 40.0644 25.4958 40.3625 24.897 40.4852C24.2982 40.6078 23.6765 40.5495 23.111 40.3176C22.5454 40.0858 22.0617 39.6908 21.7215 39.1831C21.3812 38.6754 21.1997 38.0778 21.2001 37.4666C21.197 37.0658 21.2728 36.6683 21.4233 36.2967C21.5737 35.9252 21.7959 35.587 22.0771 35.3013C22.3583 35.0156 22.6931 34.7882 23.0622 34.6319C23.4313 34.4756 23.8276 34.3935 24.2284 34.3904V34.3904ZM16.9376 50.4701L15.9619 50.0863C15.9619 50.0863 16.3351 48.7827 16.4684 48.2949L17.8466 44.0777L20.3098 51.2752C19.1679 51.0879 18.0409 50.8189 16.9376 50.4701V50.4701ZM20.9709 51.3712C22.0132 49.3372 24.0285 46.3542 24.9695 44.7068L25.6493 46.5542C26.2384 48.2949 27.0008 50.2676 27.4993 52.0696C25.1028 51.9203 22.9009 51.6857 20.9709 51.3712ZM33.044 52.2349C31.4446 52.2349 29.8691 52.1949 28.3683 52.1176L32.7268 44.7335C33.9051 47.2046 35.046 49.6944 36.1923 52.1976C35.1633 52.2189 34.113 52.2349 33.044 52.2349ZM37.1653 52.1442C38.3889 49.5505 39.3245 46.9274 40.4548 44.7335C41.5984 47.3726 42.2062 48.9533 43.4245 51.6164C41.5211 51.8643 39.4125 52.0456 37.1653 52.1442ZM41.3079 40.5456C40.6973 40.5535 40.0981 40.3797 39.5865 40.0462C39.075 39.7128 38.6741 39.2347 38.4349 38.6729C38.1958 38.111 38.129 37.4907 38.2433 36.8909C38.3575 36.291 38.6476 35.7386 39.0765 35.304C39.5055 34.8694 40.054 34.5722 40.6523 34.4501C41.2507 34.328 41.8718 34.3866 42.4367 34.6184C43.0016 34.8503 43.4849 35.2448 43.825 35.752C44.1651 36.2591 44.3468 36.856 44.3468 37.4666C44.35 37.8685 44.2738 38.267 44.1227 38.6394C43.9716 39.0118 43.7485 39.3507 43.4662 39.6367C43.1839 39.9227 42.8479 40.1502 42.4776 40.3062C42.1072 40.4621 41.7097 40.5435 41.3079 40.5456V40.5456ZM49.6356 50.3529C47.9294 50.8584 46.1872 51.2336 44.4241 51.4751L48.7133 44.0724L49.7183 50.2169C49.6967 50.2656 49.6689 50.3113 49.6356 50.3529Z" fill="black"/>
<path d="M96.8066 37.9863C97.5845 38.9262 98.7008 39.4034 100.127 39.4034C101.076 39.424 102.008 39.148 102.793 38.6138C103.212 38.3374 103.556 37.9614 103.793 37.5196C104.031 37.0777 104.156 36.5837 104.156 36.0819C104.156 35.5801 104.031 35.0861 103.793 34.6442C103.556 34.2024 103.212 33.8264 102.793 33.55C102.009 33.0139 101.076 32.7368 100.127 32.7576H87.4365C86.4764 32.7366 85.5331 33.0123 84.7354 33.5471C84.3101 33.8192 83.9617 34.1957 83.7232 34.6407C83.4848 35.0857 83.3643 35.5843 83.3733 36.0891V51.5613C83.3671 52.0647 83.4911 52.5611 83.7333 53.0025C83.9755 53.4438 84.3277 53.8151 84.7556 54.0802C85.5378 54.6254 86.4716 54.9107 87.4249 54.8958H100.115C101.067 54.9108 102 54.6265 102.781 54.0831C103.205 53.8142 103.553 53.4412 103.791 52.9997C104.03 52.5583 104.151 52.063 104.144 51.5613C104.149 51.059 104.027 50.5634 103.791 50.1202C103.554 49.677 103.21 49.3004 102.79 49.025C102.012 48.4639 101.074 48.1688 100.115 48.1834C98.6864 48.1834 97.5701 48.6664 96.7921 49.6294H91.468V37.9863H96.8066Z" fill="black"/>
<path d="M122.829 45.7137C123.769 45.7318 124.691 45.4491 125.46 44.9068C125.891 44.6523 126.246 44.289 126.491 43.8534C126.737 43.4178 126.863 42.9253 126.857 42.4255V36.1152C126.862 35.6096 126.737 35.1113 126.496 34.6671C126.255 34.2229 125.904 33.8474 125.478 33.576C124.705 33.0277 123.776 32.7409 122.829 32.7575H110.104C109.14 32.7511 108.197 33.0386 107.4 33.5818C106.992 33.8649 106.66 34.2441 106.433 34.6859C106.206 35.1277 106.091 35.6185 106.099 36.1152V51.5439C106.086 52.0487 106.204 52.5482 106.442 52.9933C106.681 53.4385 107.031 53.814 107.458 54.0831C108.232 54.6265 109.158 54.9119 110.104 54.8987H122.829C123.773 54.9169 124.698 54.6321 125.469 54.086C125.904 53.8217 126.261 53.4476 126.504 53.0013C126.748 52.555 126.87 52.0523 126.857 51.5439C126.86 51.042 126.734 50.5476 126.493 50.1075C126.252 49.6673 125.902 49.2958 125.478 49.0279C124.705 48.4787 123.777 48.1918 122.829 48.2095C121.4 48.2095 120.29 48.6924 119.526 49.6555H114.19V45.7224L122.829 45.7137ZM114.19 37.9631H118.774V40.5081H114.19V37.9631Z" fill="black"/>
<path d="M145.444 33.5471C144.65 33.0153 143.713 32.7397 142.757 32.7575H133.367C132.411 32.7394 131.472 33.0161 130.678 33.55C130.252 33.8219 129.903 34.1983 129.664 34.6433C129.425 35.0883 129.304 35.587 129.313 36.092V51.5642C129.306 52.0679 129.431 52.5646 129.673 53.0061C129.916 53.4475 130.269 53.8185 130.698 54.0831C131.486 54.6139 132.415 54.8974 133.366 54.8974C134.316 54.8974 135.245 54.6139 136.034 54.0831C136.457 53.8136 136.804 53.4405 137.042 52.9991C137.281 52.5578 137.402 52.0629 137.396 51.5613V37.9689H139.463C140.253 38.9088 141.361 39.386 142.757 39.386C143.705 39.4067 144.636 39.1318 145.421 38.5994C145.85 38.334 146.204 37.9621 146.447 37.5197C146.691 37.0773 146.815 36.5795 146.809 36.0747C146.815 35.5721 146.692 35.0765 146.454 34.6343C146.215 34.1921 145.867 33.8179 145.444 33.5471V33.5471Z" fill="black"/>
<path d="M167.967 33.5471C167.182 33.011 166.248 32.7339 165.298 32.7547H156.639V29.0414C156.644 28.5383 156.522 28.0421 156.285 27.5984C156.048 27.1547 155.703 26.7777 155.283 26.5022C154.501 25.9501 153.564 25.6632 152.608 25.6838C151.645 25.6615 150.701 25.9472 149.912 26.4993C149.491 26.7753 149.146 27.1528 148.909 27.597C148.672 28.0412 148.551 28.5379 148.556 29.0414V51.5642C148.55 52.0676 148.674 52.5641 148.916 53.0054C149.158 53.4467 149.51 53.818 149.938 54.0831C150.72 54.6283 151.654 54.9136 152.608 54.8987H165.298C166.25 54.9141 167.182 54.6298 167.964 54.086C168.388 53.8173 168.736 53.4444 168.975 53.0029C169.214 52.5615 169.336 52.0661 169.329 51.5642V36.092C169.338 35.5869 169.217 35.0878 168.979 34.6424C168.741 34.1969 168.392 33.8199 167.967 33.5471V33.5471ZM161.246 49.6208H156.639V37.9863H161.246V49.6208Z" fill="black"/>
<path d="M191.302 33.5471C190.518 33.011 189.586 32.7339 188.636 32.7547H175.946C174.989 32.7366 174.05 33.0132 173.256 33.5471C172.831 33.8192 172.483 34.1957 172.244 34.6407C172.006 35.0857 171.885 35.5844 171.894 36.0892V51.5613C171.887 52.0648 172.011 52.5615 172.254 53.0029C172.496 53.4444 172.848 53.8155 173.277 54.0802C174.059 54.6258 174.993 54.9111 175.946 54.8958H188.636C189.588 54.9108 190.521 54.6265 191.302 54.0831C191.725 53.8136 192.073 53.4405 192.311 52.9992C192.549 52.5578 192.671 52.0629 192.665 51.5613V36.092C192.673 35.5869 192.553 35.0878 192.315 34.6424C192.076 34.1969 191.728 33.8199 191.302 33.5471V33.5471ZM184.581 49.6208H179.974V37.9863H184.581V49.6208Z" fill="black"/>
<path d="M214.647 42.0004C213.87 41.4368 212.931 41.1404 211.971 41.1559H203.307V37.9747H208.513C209.343 39.3918 210.505 40.109 211.983 40.109C213.036 40.0623 214.034 39.6229 214.78 38.8773C215.525 38.1317 215.965 37.1339 216.012 36.0805C216.021 35.576 215.9 35.0776 215.662 34.6327C215.425 34.1878 215.077 33.8111 214.652 33.5384C213.867 33.0023 212.934 32.7252 211.983 32.746H199.281C198.325 32.7283 197.386 33.0049 196.592 33.5384C196.167 33.8109 195.819 34.1875 195.58 34.6324C195.342 35.0773 195.221 35.5758 195.23 36.0805V43.1109C195.224 43.6145 195.349 44.111 195.591 44.5524C195.834 44.9937 196.187 45.3648 196.615 45.6298C197.4 46.1636 198.332 46.4396 199.281 46.4193H207.934V49.6005H202.584C201.821 48.6462 200.71 48.1545 199.281 48.1545C198.317 48.1365 197.371 48.424 196.58 48.9759C196.161 49.2573 195.819 49.638 195.583 50.0842C195.348 50.5303 195.226 51.0278 195.23 51.5324C195.224 52.0358 195.348 52.5322 195.59 52.9736C195.832 53.4149 196.184 53.7862 196.612 54.0513C197.394 54.5965 198.328 54.8818 199.281 54.8668H211.983C212.935 54.8822 213.868 54.598 214.649 54.0542C215.073 53.7853 215.421 53.4123 215.659 52.9708C215.898 52.5293 216.019 52.0341 216.012 51.5324V44.5366C216.016 44.0331 215.893 43.5366 215.655 43.0931C215.416 42.6497 215.069 42.2738 214.647 42.0004V42.0004Z" fill="black"/>
</g>
<defs>
<clipPath id="clip0">
<rect width="216" height="81.0134" fill="white"/>
</clipPath>
</defs>
</svg>
