<svg xmlns="http://www.w3.org/2000/svg" xmlns:xlink="http://www.w3.org/1999/xlink" width="159" height="38"><defs><path id="A" d="M5.662 9.12V.166H.152V9.12h5.51z"/></defs><path d="M49.104 14.556h-2.747c-.25 0-.406.155-.406.405v8.145c0 .273.17.457.42.457.263 0 .433-.18.433-.457v-3.4c0-.023.002-.025.025-.025h2.276c1.72 0 2.787-.977 2.787-2.55 0-1.582-1.068-2.564-2.787-2.564m-.026 4.307h-2.25c-.023 0-.025-.002-.025-.025V15.4c0-.023.003-.025.025-.025h2.25c1.246 0 1.96.64 1.96 1.756 0 1.124-.696 1.742-1.96 1.742m7.146-4.447c-1.476 0-2.5.7-2.928 2.027-.163.486-.264 1.087-.264 2.58s.1 2.093.264 2.58c.44 1.327 1.453 2.028 2.93 2.028 1.467 0 2.475-.7 2.915-2.028.163-.486.264-1.087.264-2.58s-.1-2.094-.264-2.58c-.44-1.326-1.448-2.027-2.916-2.027m2.094 6.946c-.325.968-1.03 1.46-2.094 1.46-1.074 0-1.783-.5-2.108-1.46-.102-.305-.22-.846-.22-2.34s.117-2.034.22-2.338c.325-.97 1.034-1.46 2.108-1.46 1.066 0 1.77.5 2.094 1.46.102.306.22.847.22 2.34s-.117 2.033-.22 2.34m11.243-6.87c-.214 0-.362.116-.418.327l-1.665 7.033-1.972-6.906c-.085-.3-.235-.455-.47-.455-.245 0-.398.145-.483.455l-1.934 6.906-1.704-7.035c-.057-.2-.205-.326-.418-.326-.28 0-.406.2-.406.405 0 .04 0 .07.015.143l2 8.054c.082.33.214.457.47.457.286 0 .395-.182.47-.455l2-6.88 1.976 6.88c.074.273.183.456.47.456.256 0 .388-.128.47-.457l1.988-8a.89.89 0 0 0 .028-.195c0-.195-.128-.405-.407-.405m2.475.86h4.2c.267 0 .433-.155.433-.405s-.165-.404-.433-.404H71.58c-.255 0-.42.158-.42.404v8.145c0 .245.165.404.42.404h4.657c.267 0 .433-.155.433-.404s-.165-.405-.433-.405h-4.2c-.023 0-.025-.002-.025-.025v-3.28c0-.023.003-.025.025-.025h3.584c.267 0 .432-.155.432-.405s-.165-.405-.432-.405h-3.584c-.023 0-.025-.002-.025-.024V15.4c0-.023.003-.025.025-.025m11.88 1.68c0-1.542-1.053-2.5-2.748-2.5H78.4c-.255 0-.42.16-.42.405v8.145c0 .273.168.457.42.457.263 0 .433-.18.433-.457V19.58c0-.023.002-.025.025-.025h2.386l1.832 3.746c.1.173.236.26.4.26.276 0 .42-.204.42-.405a.52.52 0 0 0-.045-.206l-1.75-3.506c1.15-.302 1.808-1.17 1.808-2.4m-2.76 1.7h-2.3c-.023 0-.025-.002-.025-.025V15.4c0-.023.002-.025.025-.025h2.3c1.248 0 1.9.584 1.9 1.7s-.66 1.7-1.9 1.7m5.15-3.4h4.2c.267 0 .433-.155.433-.405s-.166-.404-.433-.404h-4.657c-.255 0-.42.158-.42.404v8.145c0 .245.165.404.42.404H90.5c.267 0 .433-.155.433-.404s-.166-.405-.433-.405h-4.2c-.023 0-.025-.002-.025-.025v-3.28c0-.023.002-.025.025-.025h3.584c.267 0 .433-.155.433-.405s-.166-.405-.433-.405H86.3c-.023 0-.025-.002-.025-.024V15.4c0-.023.002-.025.025-.025m8.714-.82h-2.342c-.255 0-.42.16-.42.405v8.145c0 .246.165.404.42.404h2.342c1.6 0 2.632-.686 3.073-2.04.205-.64.264-1.185.264-2.436s-.06-1.798-.264-2.437c-.44-1.354-1.473-2.04-3.073-2.04m2.25 6.633c-.355 1.073-1.038 1.512-2.356 1.512h-1.78c-.023 0-.025-.002-.025-.025V15.4c0-.023.003-.025.025-.025h1.78c1.318 0 2 .438 2.356 1.5.176.554.233 1.078.233 2.157s-.057 1.603-.233 2.156m9.542-2.3c.814-.3 1.28-1.016 1.28-1.984 0-1.476-1-2.357-2.644-2.357h-2.747c-.255 0-.42.16-.42.405v8.145c0 .245.164.404.42.404h2.76c1.763 0 2.774-.902 2.774-2.473 0-.86-.446-1.87-1.422-2.14h0zm-3.68-3.506c0-.023.002-.025.025-.025h2.276c1.146 0 1.804.578 1.804 1.586 0 1-.67 1.6-1.8 1.6h-2.3c-.023 0-.025-.002-.025-.025V15.4zm2.366 7.3h-2.34c-.024 0-.025-.001-.025-.025v-3.3c0-.023.002-.025.025-.025h2.34c1.197 0 1.882.6 1.882 1.677 0 1.058-.686 1.664-1.882 1.664h0zm8.888-8.197a.4.4 0 0 0-.375.223l-2.223 4.14-2.263-4.14a.41.41 0 0 0-.373-.221c-.232 0-.42.176-.42.4 0 .076.03.163.06.22l2.545 4.724v3.266c0 .272.168.456.42.456.263 0 .433-.18.433-.456V19.84l2.546-4.726a.54.54 0 0 0 .058-.219c0-.22-.178-.4-.406-.4m6.5.73c.837 0 1.473.367 1.9 1.093.103.175.225.26.373.26.247 0 .406-.16.406-.405 0-.077-.032-.167-.057-.23-.43-.942-1.432-1.527-2.613-1.527-1.47 0-2.44.677-2.9 2.014-.147.452-.238 1.043-.238 2.593s.1 2.14.24 2.592c.448 1.337 1.42 2.015 2.9 2.015 1.18 0 2.182-.585 2.614-1.53a.67.67 0 0 0 .056-.228c0-.246-.16-.405-.406-.405-.148 0-.27.085-.373.26-.416.725-1.052 1.092-1.9 1.092-1.05 0-1.727-.47-2.068-1.434-.116-.346-.193-.88-.193-2.364s.077-2.018.193-2.364c.34-.965 1.018-1.434 2.068-1.434m6.98-.807c-1.476 0-2.5.7-2.93 2.027-.163.486-.264 1.087-.264 2.58s.1 2.093.264 2.58c.44 1.327 1.453 2.028 2.93 2.028 1.467 0 2.476-.7 2.915-2.028.164-.487.265-1.1.265-2.58s-.1-2.093-.264-2.58c-.44-1.326-1.448-2.027-2.915-2.027m2.094 6.946c-.325.968-1.03 1.46-2.094 1.46-1.074 0-1.783-.5-2.108-1.46-.102-.306-.22-.847-.22-2.34s.117-2.033.22-2.338c.325-.97 1.034-1.46 2.108-1.46 1.066 0 1.77.5 2.094 1.46.102.305.22.846.22 2.34s-.118 2.033-.22 2.34m7.5-6.818h-4.657c-.255 0-.42.16-.42.405v8.145c0 .278.17.457.433.457.25 0 .42-.184.42-.457v-3.63c0-.006 0-.012.025-.012h3.584c.267 0 .433-.155.433-.405s-.166-.404-.433-.404h-3.584c-.023 0-.025-.002-.025-.025V15.4c0-.023.003-.025.025-.025h4.2c.267 0 .433-.155.433-.404s-.166-.405-.433-.405m6.833-.01h-4.657c-.255 0-.42.16-.42.405v8.145c0 .278.17.457.433.457.25 0 .42-.184.42-.457v-3.63c0-.006 0-.012.025-.012h3.584c.267 0 .433-.155.433-.405s-.166-.404-.433-.404h-3.584c-.023 0-.025-.002-.025-.025V15.4c0-.023.002-.025.025-.025h4.2c.267 0 .433-.155.433-.404s-.166-.405-.433-.405m2.628.8h4.2c.267 0 .433-.155.433-.405s-.165-.404-.433-.404h-4.657c-.255 0-.42.158-.42.404v8.145c0 .245.164.404.42.404h4.657c.267 0 .433-.155.433-.404s-.165-.405-.433-.405h-4.2c-.023 0-.025-.002-.025-.025v-3.28c0-.023.003-.025.025-.025h3.584c.267 0 .433-.155.433-.405s-.165-.405-.433-.405h-3.584c-.023 0-.025-.002-.025-.024V15.4c0-.023.003-.025.025-.025" fill="#000"/><g transform="translate(152.723 14.39)"><mask id="B" fill="#000"><use xlink:href="#A"/></mask><path d="M5.23 8.31h-4.2c-.023 0-.025-.002-.025-.025v-3.28c0-.023.003-.025.025-.025h3.584c.267 0 .433-.155.433-.404s-.166-.405-.433-.405H1.03c-.023 0-.025-.002-.025-.025V1c0-.022.003-.025.025-.025h4.2c.267 0 .433-.155.433-.404S5.496.166 5.23.166H.572c-.255 0-.42.16-.42.405v8.145c0 .245.165.404.42.404H5.23c.267 0 .433-.155.433-.404s-.166-.405-.433-.405" fill="#000" mask="url(#B)"/></g><path d="M36.728 27.988l-8.372-4.715v-8.905l8.372-4.715a.89.89 0 0 0 .339-1.231.93.93 0 0 0-.8-.452c-.16 0-.32.042-.462.12l-8.373 4.715-7.912-4.456V.9c0-.497-.415-.9-.924-.9s-.924.404-.924.9v7.97a.9.9 0 0 0 .462.78l8.374 4.715.002 8.907-7.912 4.454-7.912-4.456.001-9.43a.9.9 0 0 0-.462-.781L1.386 8.09a.94.94 0 0 0-1.262.33.89.89 0 0 0 .339 1.231l8.373 4.7v8.913L.463 27.988a.9.9 0 0 0-.462.78v8.234c0 .497.414.9.924.9s.924-.405.924-.9V29.3l7.913-4.455 8.373 4.714a.96.96 0 0 0 .923 0l8.375-4.714 8.37 4.714c.142.08.297.12.46.12.33 0 .638-.173.802-.45a.89.89 0 0 0-.339-1.231" fill="#000"/></svg>