<?xml version="1.0" encoding="UTF-8"?>
<svg width="72px" height="72px" viewBox="0 0 72 72" version="1.1" xmlns="http://www.w3.org/2000/svg" xmlns:xlink="http://www.w3.org/1999/xlink">
    <title>fedCM-dark@1x</title>
    <defs>
        <linearGradient x1="0.516280594%" y1="99.4837194%" x2="100%" y2="0%" id="linearGradient-1">
            <stop stop-color="#102E39" offset="0%"></stop>
            <stop stop-color="#116162" offset="100%"></stop>
        </linearGradient>
    </defs>
    <g id="fedCM-dark" stroke="none" fill="none" fill-rule="evenodd" stroke-width="1">
        <g id="Group">
            <rect id="Rectangle-Copy-6" fill="url(#linearGradient-1)" x="0" y="0" width="72" height="72" rx="11.3684206"></rect>
            <g id="shield-lock-fill-copy-3" transform="translate(20.8421, 18)" fill="#2DD4BF" fill-rule="nonzero">
                <path d="M14.6689304,0.0363531821 C14.9248418,-0.0121177274 15.5102939,-0.0121177274 15.6468591,0.0363531821 L29.3378608,5.70546969 C29.8856946,5.85287473 30.3157895,6.47941638 30.3157895,7.5951752 C30.3157895,15.2598319 30.024023,18.6060917 28.3599321,22.7128192 C26.5869701,27.9160965 22.7046312,32.1295093 15.6468591,35.9407569 C15.5235786,36.0197477 14.7922108,36.0197477 14.6689304,35.9407569 C7.66989537,32.1618226 3.80462054,27.9340474 1.95585739,22.7128192 C0.331567789,18.5773685 0,15.0587664 0,7.5951752 C0,6.4758262 0.426304711,5.85107921 0.977928693,5.70546969 C2.78904157,4.89602324 12.7818944,0.854972878 14.6689304,0.0363531821 Z M15.1578947,11.3684211 C13.0649685,11.3684211 11.3684211,13.06421 11.3684211,15.1578943 C11.3684211,16.5031574 12.2074106,17.4448638 13.2631579,18.1174958 L13.2631579,22.7368418 C13.2631579,23.7827358 14.1114316,24.6315789 15.1578947,24.6315789 C16.2043569,24.6315789 17.0526316,23.7827358 17.0526316,22.7368418 L17.0526316,18.1174958 C18.1085677,17.4467593 18.9473684,16.5031574 18.9473684,15.1578943 C18.9473684,13.06421 17.250821,11.3684211 15.1578947,11.3684211 Z" id="Combined-Shape"></path>
            </g>
        </g>
    </g>
</svg>