<svg xmlns="http://www.w3.org/2000/svg" width="42" height="42" fill-rule="evenodd"><path d="M21 33.553A12.57 12.57 0 0 1 8.447 21 12.57 12.57 0 0 1 21 8.447c6.92 0 12.554 5.632 12.554 12.553S27.922 33.553 21 33.553M41.125 17.5h-4.997c-.348-1.383-.794-2.917-1.36-4.08l3.558-3.557a.88.88 0 0 0 0-1.239l-4.95-4.95a.88.88 0 0 0-1.237 0l-3.56 3.557c-1.163-.567-2.697-1.01-4.077-1.36V.875c0-.483-.392-.875-.875-.875h-5.25c-.484 0-.875.392-.875.875v4.997c-1.383.35-2.917.794-4.08 1.36l-3.56-3.557a.88.88 0 0 0-1.237 0l-4.95 4.95a.88.88 0 0 0 0 1.237l3.558 3.558C6.67 14.58 6.22 16.116 5.87 17.5H.875c-.484 0-.875.392-.875.875v5.25c0 .484.39.875.875.875H5.87c.35 1.384.8 2.92 1.363 4.08l-3.56 3.56c-.164.164-.256.386-.256.62a.88.88 0 0 0 .256.619l4.95 4.95a.9.9 0 0 0 1.237 0l3.557-3.558c1.16.565 2.697 1.012 4.08 1.363v4.995c0 .484.39.875.875.875h5.25c.483 0 .875-.39.875-.875V36.13c1.383-.35 2.92-.798 4.078-1.36l3.56 3.556c.34.342.895.342 1.237 0l4.95-4.95a.88.88 0 0 0 0-1.237l-3.558-3.56c.565-1.16 1.012-2.696 1.362-4.08h4.996c.483 0 .875-.39.875-.875v-5.25c0-.483-.392-.875-.875-.875" fill="#919a9c"/><path d="M21.388 24.853h-2.33V23.22c0-1.346.973-2.496 2.314-2.734 1.577-.28 2.345-1.135 2.348-2.617.003-1.174-.732-2.235-1.783-2.578-.906-.293-1.803-.163-2.532.366a2.73 2.73 0 0 0-1.123 2.202h-2.33a5.07 5.07 0 0 1 2.084-4.089c1.328-.964 3-1.22 4.622-.696 2.004.652 3.4 2.626 3.395 4.8-.007 2.6-1.603 4.435-4.273 4.907-.226.04-.4.225-.4.44v1.632zm.16 3.007a1.33 1.33 0 1 1-1.33-1.33 1.33 1.33 0 0 1 1.33 1.33" fill="#02b6d3"/></svg>