<svg xmlns="http://www.w3.org/2000/svg" width="90" height="90"><style><![CDATA[.G{stroke-linecap:round}.H{stroke-miterlimit:10}]]></style><circle cx="45" cy="45" r="45" fill="#147894"/><path d="M53.7 64.1c-.3-.3-.5-.6-.7-1h-9.4v-2H52c-.1-.1-.1-.3-.2-.4-.3-1-.5-2.1-.5-3.3a10.3 10.3 0 0 1 .6-3.5l.3-.8H18.6V57c0 2.3 1.8 4.2 4 4.2h19v2h-13a.94.94 0 0 0-1 1 .94.94 0 0 0 1 1h26l-.9-1.1zm-11.1-6h-.4c-.3-.1-.5-.2-.7-.3-.5-.4-.9-1-.9-1.7s.4-1.3.9-1.7c.2-.1.5-.2.7-.3h.8c.3.1.5.2.7.3.5.4.9 1 .9 1.7s-.4 1.3-.9 1.7c-.2.1-.5.2-.7.3h-.4zM62 46.9c.4 0 .8 0 1.2.1 1.2.1 2.3.5 3.4 1V27.3c0-2.3-1.8-4.2-4-4.2h-40c-2.2 0-4 1.9-4 4.2v23.8h34.8c2-2.5 5.1-4.2 8.6-4.2z" fill="#02b6d3"/><circle cx="62" cy="57.5" r="9.4" fill="#13ebf2"/><path d="M54.3 30.7c0-1.5-1.2-2.8-2.8-2.8H33.7c-1.5 0-2.8 1.2-2.8 2.8v1.7h23.3v-1.7zm-19.5.6c-.3 0-.6-.2-.6-.6s.2-.6.6-.6c.3 0 .6.2.6.6s-.2.6-.6.6zm2.3 0c-.3 0-.6-.2-.6-.6s.2-.6.6-.6c.3 0 .6.2.6.6s-.3.6-.6.6zm2.2 0c-.3 0-.6-.2-.6-.6s.2-.6.6-.6c.3 0 .6.2.6.6s-.3.6-.6.6zm15 2.2H31V44c0 1.5 1.2 2.8 2.8 2.8h17.6c1.5 0 2.8-1.2 2.8-2.8l.1-10.5z" fill="#147894"/><g fill="none" class="G H"><path d="M52.2 36.3h-6.6m-5.9 0H33m6.7 3.8H33m19.2 0h-6.6m6.6 3.9H33" stroke="#13ebf2"/><g stroke="#147894" stroke-width="1.5"><path d="M61.9 51.8v11.3"/><path d="M67.7 57.5H56.3"/></g></g></svg>