<?xml version="1.0" encoding="utf-8"?>
<!-- Generator: Adobe Illustrator 24.3.0, SVG Export Plug-In . SVG Version: 6.00 Build 0)  -->
<svg version="1.1" id="Layer_1" xmlns="http://www.w3.org/2000/svg" xmlns:xlink="http://www.w3.org/1999/xlink" x="0px" y="0px"
	 viewBox="0 0 90 90" style="enable-background:new 0 0 90 90;" xml:space="preserve">
<style type="text/css">
	.st0{fill:#147894;}
	.st1{fill:#13EBF2;}
	.st2{fill:#02B6D3;}
	.st3{fill:none;}
</style>
<g>
	<circle class="st0" cx="45" cy="45" r="45"/>
	<g>
		<g>
			<path class="st1" d="M67.4,57.1c-0.1,0.8-0.3,1.5-0.6,2.2c0,0.1-0.1,0.1-0.1,0.1c-0.1,0.1-0.1,0.2-0.2,0.3
				c-1,1.9-2.9,3.2-5.2,3.4v5.5c8.2-2.4,9.6-7.5,9.7-7.7c0-0.1,0-0.1,0-0.1v-3.7H67.4z"/>
			<path class="st1" d="M60.4,49.9v-4.2c-1,1.3-2.7,2-4.3,2c-1.5,0-2.9-0.5-4.6-1.7c-0.2-0.1-0.4-0.1-0.5-0.1
				c-0.2,0.1-0.3,0.3-0.3,0.4V56h3.7C54.6,52.8,57.1,50.2,60.4,49.9z"/>
			<path class="st1" d="M54.4,57.2c0-0.1,0-0.1,0-0.1l0,0h-3.7v3.7c0,0.1,0,0.1,0,0.1c0.1,0.2,1.5,5.3,9.7,7.7v-5.5
				C57.2,62.8,54.7,60.3,54.4,57.2z"/>
			<path class="st1" d="M61.4,49.9v-4.2c1,1.3,2.7,2,4.3,2c1.5,0,2.9-0.5,4.6-1.7c0.2-0.1,0.4-0.1,0.5-0.1c0.2,0.1,0.3,0.3,0.3,0.4
				V56h-3.7C67.2,52.8,64.7,50.2,61.4,49.9z"/>
		</g>
		<path class="st2" d="M60.9,26.4c0-2.8-2.2-5-5-5h-32c-2.8,0-5,2.2-5,5v3h42V26.4z M25.9,27.4c-0.6,0-1-0.4-1-1c0-0.6,0.4-1,1-1
			c0.6,0,1,0.4,1,1C26.9,27,26.5,27.4,25.9,27.4z M29.9,27.4c-0.6,0-1-0.4-1-1c0-0.6,0.4-1,1-1c0.6,0,1,0.4,1,1
			C30.9,27,30.5,27.4,29.9,27.4z M33.9,27.4c-0.6,0-1-0.4-1-1c0-0.6,0.4-1,1-1c0.6,0,1,0.4,1,1C34.9,27,34.5,27.4,33.9,27.4z"/>
		<path class="st3" d="M48.4,38.4l-11.6,0c-0.3-0.9-0.8-1.6-1.5-2.3c-2.5-2.5-6.5-2.5-9,0c-2.5,2.5-2.5,6.5,0,9c2.5,2.5,6.5,2.5,9,0
			c0.6-0.6,1.1-1.4,1.5-2.3l3.5,0l1.1,1.1l1.1-1.1h0.2l1.1,1.1l1.1-1.1H45l1.1,1.1l1.1-1.1h1.2l2.2-2.2L48.4,38.4z M29.6,41.8
			c-0.7,0.7-1.7,0.7-2.4,0c-0.7-0.7-0.7-1.7,0-2.4c0.7-0.7,1.7-0.7,2.4,0C30.3,40.1,30.3,41.2,29.6,41.8z"/>
		<path class="st2" d="M49.6,43.3c0.2-0.1,0.5-0.1,0.7,0.1c2.2,1.5,4,2.2,5.8,2.2c1.8,0,3.5-0.7,4.8-1.9V31.4h-42v19
			c0,2.8,2.2,5,5,5h25v0c0,0,0,0,0,0h0.3V43.9C49.2,43.7,49.4,43.5,49.6,43.3z M48.4,42.8h-1.2l-1.1,1.1L45,42.8h-0.2l-1.1,1.1
			l-1.1-1.1h-0.2l-1.1,1.1l-1.1-1.1l-3.5,0c-0.3,0.9-0.8,1.6-1.5,2.3c-2.5,2.5-6.5,2.5-9,0c-2.5-2.5-2.5-6.5,0-9
			c2.5-2.5,6.5-2.5,9,0c0.6,0.6,1.1,1.4,1.5,2.3l11.6,0l2.2,2.2L48.4,42.8z"/>
		<circle class="st2" cx="28.4" cy="40.6" r="1.7"/>
		<g>
			<path class="st2" d="M63.2,56.6c0.2,0.1,0.4,0.2,0.7,0.2c0.5,0.2,1.1,0.3,1.6,0.5c0.1,0,0.1,0.1,0,0.1c-0.1,0.2-0.1,0.4-0.2,0.6
				c-0.1,0.2-0.1,0.3-0.2,0.5c0,0.1,0,0.1-0.1,0.1c-0.7-0.2-1.4-0.5-2.1-0.7c0,0-0.1,0-0.1,0c0,0,0,0.1,0,0.1
				c0.4,0.5,0.8,1.1,1.2,1.6c0,0.1,0.1,0.1,0.1,0.2c0,0.1,0,0.1,0,0.1c-0.3,0.2-0.6,0.5-1,0.7c-0.1,0.1-0.1,0-0.2,0
				c-0.4-0.6-0.9-1.2-1.3-1.8c0,0,0-0.1-0.1-0.1c0,0,0,0.1,0,0.1c0,0.7,0,1.5,0,2.2c0,0.1,0,0.1-0.1,0.1c-0.4,0-0.8,0-1.2,0
				c-0.1,0-0.1,0-0.1-0.1c0-0.8,0-1.6,0-2.3c0,0,0-0.1,0-0.1c0,0,0.1-0.1,0.1-0.1c0.2-0.2,0.3-0.5,0.5-0.7c0.1-0.1,0.1-0.1,0.2,0
				c0.2,0.2,0.3,0.5,0.5,0.7c0,0,0,0.1,0.1,0.1c0-0.1,0-0.1,0-0.1c0-0.3,0-0.6,0-0.9c0-0.1,0-0.1,0.1-0.1c0.3,0.1,0.6,0.2,0.9,0.3
				c0,0,0.1,0,0.1,0c0,0,0-0.1,0-0.1c-0.2-0.2-0.4-0.5-0.5-0.7c-0.1-0.1,0-0.1,0-0.1c0.2-0.1,0.4-0.1,0.6-0.2c0.1,0,0.2,0,0.3-0.1
				C63.1,56.6,63.2,56.6,63.2,56.6z"/>
			<path class="st2" d="M58.6,56.6c-0.2-0.1-0.4-0.2-0.7-0.2c-0.5-0.2-1.1-0.3-1.6-0.5c-0.1,0-0.1-0.1,0-0.1
				c0.1-0.2,0.1-0.4,0.2-0.6c0.1-0.2,0.1-0.3,0.2-0.5c0-0.1,0-0.1,0.1-0.1c0.7,0.2,1.4,0.5,2.1,0.7c0,0,0.1,0.1,0.1,0
				c0,0,0-0.1,0-0.1c-0.4-0.5-0.8-1.1-1.2-1.6c-0.1-0.1-0.1-0.1-0.2-0.2c0,0,0-0.1,0-0.1c0.3-0.2,0.7-0.5,1-0.7c0.1-0.1,0.1,0,0.1,0
				c0.3,0.4,0.6,0.9,0.9,1.3c0.1,0.2,0.3,0.4,0.4,0.6c0,0,0-0.1,0-0.1c0-0.7,0-1.5,0-2.2c0-0.1,0-0.1,0.1-0.1c0.4,0,0.8,0,1.2,0
				c0.1,0,0.1,0,0.1,0.1c0,0.8,0,1.6,0,2.3c0,0,0,0.1,0,0.1c0,0-0.1,0.1-0.1,0.1c-0.2,0.2-0.3,0.5-0.5,0.7c-0.1,0.1-0.1,0.1-0.2,0
				c-0.2-0.2-0.3-0.5-0.5-0.7c0,0,0-0.1-0.1-0.1c0,0.1,0,0.1,0,0.1c0,0.3,0,0.6,0,0.9c0,0.1,0,0.1-0.1,0.1c-0.3-0.1-0.6-0.2-0.9-0.3
				c0,0-0.1,0-0.1,0c0,0,0,0.1,0,0.1c0.2,0.2,0.4,0.5,0.5,0.7c0.1,0.1,0,0.1,0,0.1c-0.2,0.1-0.4,0.1-0.6,0.2c-0.1,0-0.2,0-0.3,0.1
				C58.7,56.6,58.6,56.6,58.6,56.6z"/>
			<path class="st2" d="M61.6,54.5c0,0,0-0.1,0-0.1c0.1,0,0.1,0,0.1-0.1c0.4-0.6,0.8-1.2,1.3-1.7c0.1-0.1,0.1-0.1,0.2,0
				c0.3,0.2,0.6,0.4,0.9,0.6c0.1,0.1,0.1,0.1,0,0.2c-0.4,0.6-0.9,1.2-1.3,1.7c0,0,0,0,0,0c0,0,0,0,0,0.1c0,0,0,0,0.1,0
				c0.2-0.1,0.4-0.1,0.6-0.2c0.5-0.2,1.1-0.3,1.6-0.5c0.1,0,0.1,0,0.1,0.1c0.1,0.4,0.2,0.7,0.4,1.1c0,0.1,0,0.1-0.1,0.2
				c-0.7,0.2-1.4,0.5-2.1,0.7c0,0-0.1,0-0.1,0.1c0,0-0.1,0-0.1,0c0,0,0,0-0.1,0c-0.3-0.1-0.6-0.2-0.9-0.3c-0.1,0-0.1,0,0-0.1
				c0.2-0.2,0.3-0.5,0.5-0.7c0,0,0.1-0.1,0-0.1c0,0-0.1,0-0.1,0c-0.3,0.1-0.5,0.2-0.8,0.3c-0.2,0.1-0.2,0-0.2-0.1
				C61.6,55.1,61.6,54.8,61.6,54.5z"/>
			<path class="st2" d="M58.6,56.6c0,0,0.1,0,0.1,0c0,0,0,0,0.1,0c0.3,0.1,0.6,0.2,0.9,0.3c0.1,0,0.1,0.1,0.1,0.2
				c-0.2,0.2-0.3,0.5-0.5,0.7c0,0-0.1,0.1,0,0.1c0,0,0.1,0,0.1,0c0.3-0.1,0.5-0.2,0.8-0.3c0.2-0.1,0.2,0,0.2,0.1c0,0.3,0,0.6,0,1
				c0,0,0,0.1,0,0.1c-0.1,0-0.1,0-0.1,0c-0.4,0.6-0.8,1.2-1.3,1.7c0,0,0,0,0,0c-0.1,0.1-0.1,0.1-0.2,0c-0.3-0.2-0.6-0.4-0.9-0.6
				c-0.1-0.1-0.1-0.1,0-0.2c0.4-0.6,0.9-1.2,1.3-1.7c0,0,0,0,0,0c0,0,0,0,0-0.1c0,0,0,0-0.1,0c-0.3,0.1-0.7,0.2-1,0.3
				c-0.4,0.1-0.8,0.3-1.2,0.4c-0.1,0-0.1,0-0.1-0.1c-0.1-0.4-0.2-0.7-0.4-1.1c0-0.1,0-0.1,0.1-0.2c0.7-0.2,1.4-0.5,2.1-0.7
				C58.5,56.6,58.6,56.6,58.6,56.6z"/>
		</g>
	</g>
</g>
</svg>
