<svg xmlns="http://www.w3.org/2000/svg" viewBox="0 0 90 90"><circle cx="45" cy="45" r="45" fill="#59558e"/><path d="M64.43 39.9A12.57 12.57 0 1 0 77 52.47 12.56 12.56 0 0 0 64.43 39.9zm-4.25 8.68a3 3 0 0 0-.77.06.53.53 0 0 0-.25.21 1 1 0 0 0-.08.47v1.3a3.07 3.07 0 0 1-.14.86 1.5 1.5 0 0 1-.29.55 1.91 1.91 0 0 1-.53.45 1.84 1.84 0 0 1 .52.43 1.94 1.94 0 0 1 .31.59 4.17 4.17 0 0 1 .14.94q0 .9 0 1.14a1 1 0 0 0 .09.5.54.54 0 0 0 .26.21 2.35 2.35 0 0 0 .76.08v1.3h-.3a4 4 0 0 1-1.11-.12 1.45 1.45 0 0 1-.66-.38 1.5 1.5 0 0 1-.36-.67 6.13 6.13 0 0 1-.09-1.24 6.48 6.48 0 0 0-.1-1.24 1.12 1.12 0 0 0-.36-.62 1.3 1.3 0 0 0-.74-.21v-1.3a1.51 1.51 0 0 0 .6-.12.86.86 0 0 0 .34-.32 1.52 1.52 0 0 0 .2-.58 6.22 6.22 0 0 0 0-.9 7.59 7.59 0 0 1 .1-1.45 1.31 1.31 0 0 1 .35-.67 1.78 1.78 0 0 1 .74-.39 3.71 3.71 0 0 1 1-.1h.3zm2 4.65h-1.54V51.7h1.52zm3.07 0H63.7V51.7h1.52zm3.06 0h-1.53V51.7h1.5zm4.08-.1a1.41 1.41 0 0 0-.59.12.8.8 0 0 0-.34.32 1.53 1.53 0 0 0-.21.58 8.11 8.11 0 0 0 0 .89 8 8 0 0 1-.09 1.46 1.39 1.39 0 0 1-.35.67 1.76 1.76 0 0 1-.75.39 3.66 3.66 0 0 1-1 .1h-.3v-1.3a2.35 2.35 0 0 0 .76-.08.46.46 0 0 0 .26-.21 1 1 0 0 0 .09-.46v-1.26a3.35 3.35 0 0 1 .15-.9 1.66 1.66 0 0 1 .82-1 2 2 0 0 1-.58-.51 2.1 2.1 0 0 1-.35-.9 16.3 16.3 0 0 1-.09-1.66 1.3 1.3 0 0 0-.07-.54.42.42 0 0 0-.24-.21 2.6 2.6 0 0 0-.79-.07V47.3H69a4.5 4.5 0 0 1 1.12.11 1.6 1.6 0 0 1 .65.39 1.5 1.5 0 0 1 .36.67 6.13 6.13 0 0 1 .09 1.24 6.62 6.62 0 0 0 .05 1.3 1.12 1.12 0 0 0 .36.62 1.39 1.39 0 0 0 .74.21z" fill="#c8c8fc"/><path d="M58.3 39.4v-4.5a.77.77 0 0 0-.22-.54L49 25.22a.77.77 0 0 0-.54-.22h-25.9a.77.77 0 0 0-.77.76v25.87a.77.77 0 0 0 .77.76H50a14.45 14.45 0 0 1 8.31-13zm-9.9-13.63l9.13 9.13H48.4zM30.14 31.1H40.8a.77.77 0 0 1 .76.77.76.76 0 0 1-.76.76H30.16a.76.76 0 0 1-.76-.76.77.77 0 0 1 .76-.77zm0 4.57H40.8a.76.76 0 0 1 0 1.52H30.16a.76.76 0 1 1 0-1.52zm0 4.57h19.78a.76.76 0 0 1 0 1.52H30.16a.76.76 0 1 1 0-1.52zm-.76 5.32a.76.76 0 0 1 .76-.76h19.78a.77.77 0 0 1 0 1.53H30.16a.76.76 0 0 1-.76-.77z" fill="#8989ce"/></svg>