<svg xmlns="http://www.w3.org/2000/svg" viewBox="0 0 90 90"><circle cx="45" cy="45" r="45" fill="#59558e"/><path d="M38.9 15.9v-4.4h12.2v4.4c-.1.1-.2.1-.4.1h-1.5c-.3 0-.3 0-.3.3v2c0 .2.1.3.3.3h1.6c.1 0 .3 0 .4.1.1.3.1.6 0 1-.1.1-.2.1-.4.1h-1.4c-.5 0-.5 0-.5.4v3c0 .1 0 .3-.1.4-.2 0-.1-.2-.1-.3v-3.2c0-.4 0-.4-.4-.4h-9c-.1 0-.3 0-.4-.1-.1-.3-.1-.6 0-1 .1-.1.2-.1.4-.1h1.6c.3 0 .3 0 .3-.3v-2c0-.3 0-.3-.3-.3h-1.5c-.2 0-.3.1-.5 0z" fill="#8989ce"/><path d="M24.4 66.7h0V38.6c.1.1.1.1.1.2v27.4c0 .2.1.4-.1.5zm41.2-.1h0c-.1-.1-.1-.2-.1-.2V39.2c0-.2-.1-.4.1-.5v27.9zM52 78.6H39.2v-.1c.1-.1.3 0 .4 0h11.9c.2-.1.4-.1.5.1 0-.1 0-.1 0 0z" fill="#82abc0"/><path d="M39.2 78.5h-5.6c.1-.1.2-.1.3-.1h4.9c.2 0 .3 0 .4.1z" fill="#bbd1dd"/><path d="M52 78.6s0-.1 0 0c.1-.1.2-.1.3-.1H56c.1 0 .2 0 .3.1H52z" fill="#b8cfdb"/><path d="M56.4 78.5H33.7c-2.3-.1-4.2-.9-5.8-2.5-1.2-1.2-2-2.6-2.5-4.2-.6-1.7-.8-3.4-.9-5.1V38.6c.2-2.7 1.3-5 3.3-7 1-1 2.1-1.8 3.4-2.4 1.4-.8 2.8-1.6 3.8-2.9.7-.8 1.2-1.6 1.3-2.6v-4.8c0-.2-.1-.2-.2-.2h-1.7c-.2 0-.3-.1-.3-.3v-2.3c0-.2.1-.2.2-.2h4.5c.2.1.2.2.2.3v2.1c0 .1 0 .2-.1.3v.9c.1.1.1.2.1.3v3.6c0 .9-.3 1.8-.7 2.6-.8 1.6-2 2.8-3.4 3.9-.8.6-1.7 1.1-2.6 1.6-1.3.7-2.4 1.5-3.3 2.6-1 1.3-1.6 2.7-1.8 4.3-.1.5 0 1 0 1.5v27c.1 2 .5 3.9 1.4 5.7.6 1.1 1.4 2.1 2.7 2.7.8.4 1.6.6 2.4.6h22.7c1.3 0 2.4-.5 3.4-1.2 1.1-.9 1.8-2.1 2.3-3.4s.7-2.6.8-3.9c.1-.5 0-1.1 0-1.6V40c0-.5.1-1 0-1.4-.1-1.3-.5-2.4-1.2-3.5-.9-1.6-2.3-2.7-3.9-3.6-1.2-.6-2.3-1.3-3.4-2.2-1.5-1.3-2.7-2.8-3.2-4.7-.1-.4-.2-.9-.2-1.4v-3.4c0-.1 0-.3.1-.4v-.9c-.1 0-.1-.1-.1-.2v-2.1c0-.1 0-.2.1-.3h4.5c.2 0 .3 0 .2.2v2.3c0 .2-.1.3-.3.3h-1.6c-.2 0-.2 0-.2.2v4.5c0 .9.4 1.7.9 2.4.9 1.2 2.1 2.2 3.4 2.9l2.2 1.2c2.7 1.8 4.5 4.2 5.2 7.2.1.5.2.9.2 1.4v28c-.1 2.5-.6 5-1.8 7.3-1.1 2.1-2.8 3.6-5.2 4.3-.7.3-1.5.4-2.2.4z" fill="#8989ce"/><path d="M41.2 19.6c.1-.1.2 0 .3 0h7c.2 0 .3.1.3.3v3.7c.1.1.1.3.1.4 0 .7 0 1.3.2 2 .4 1.3 1.1 2.3 2 3.3 1.2 1.3 2.7 2.3 4.4 3.2.9.4 1.7 1 2.4 1.6 1.3 1.2 2.2 2.7 2.7 4.5.1.6.2 1.2.2 1.8v26.9c0 1.4-.3 2.8-1 4.1-.9 1.6-2.3 2.5-4.2 2.7-.5-.1-.9-.1-1.4-.1H35.3c-1.1 0-2.2-.2-3.1-.7-1.1-.6-1.8-1.5-2.2-2.6-.5-1.2-.7-2.4-.7-3.6V40.4c0-2.1.8-4 2.2-5.6.9-1.1 2.1-1.9 3.3-2.5 1.5-.8 2.8-1.7 4-2.9 1.2-1.3 2.1-2.7 2.4-4.4v-5c-.1-.2-.1-.3 0-.4z" fill="#c8c8fc"/><path d="M41.2 19.6v4.6c0 1.5-.6 2.8-1.4 4.1-1.2 1.7-2.8 2.9-4.6 3.9l-2.6 1.6c-2 1.7-3.1 3.8-3.2 6.4v27c0 1.5.3 3 1.1 4.4s2.1 2.1 3.7 2.4c1 .2 2 .1 3 .1h18.1c2.4-.2 4-1.4 4.8-3.6.5-1.4.6-2.9.6-4.4V40.5c0-2.3-.9-4.3-2.6-5.9-.9-1-2.1-1.6-3.3-2.3-1.7-.9-3.2-2.1-4.4-3.6-.9-1.2-1.5-2.4-1.6-3.8v-4.7c0-.2 0-.3.3-.3h2v3.7c0 1.4.5 2.6 1.2 3.7 1.2 1.8 2.8 3 4.7 4.1l2.4 1.4c1.8 1.4 3 3.1 3.4 5.3.1.6.2 1.3.1 1.9v27.2c-.1 2-.5 4-1.5 5.8-.6 1.1-1.4 2.1-2.7 2.7-.9.5-2 .7-3 .7H34.9c-.7 0-1.5 0-2.2-.1-1.8-.4-3-1.4-3.9-2.8-.8-1.2-1.2-2.6-1.4-4-.3-1.5-.3-3-.3-4.5V40.2c0-1.4.2-2.7.8-4 .9-1.9 2.4-3.3 4.3-4.3 1.6-.8 3.1-1.8 4.3-3.1 1.2-1.2 2-2.6 2.3-4.2.1-.3.1-.6.1-1v-3.7h2.2c0-.4.1-.4.1-.3z" fill="#59558e"/><path d="M45 18.6h-3.5c-.2 0-.3 0-.3-.2v-2.3c0-.2 0-.2.2-.2h7c.2 0 .2 0 .2.2v2.3c0 .2-.1.2-.3.2H45z" fill="#c8c8fc"/><g fill="#59558e"><path d="M38.9 18.6v-2.7H41c.1 0 .2 0 .2.2v2.4c0 .1-.1.2-.2.2-.7-.1-1.4-.1-2.1-.1zm12.2-2.7v2.7H49c-.1 0-.2 0-.2-.2V16c0-.1 0-.2.2-.2.7.1 1.4.1 2.1.1z"/><path d="M38.9 18.5h12.2v1.1H38.9z"/></g></svg>