<?xml version="1.0" encoding="utf-8"?>
<!-- Generator: Adobe Illustrator 24.3.0, SVG Export Plug-In . SVG Version: 6.00 Build 0)  -->
<svg version="1.1" id="Layer_1" xmlns="http://www.w3.org/2000/svg" xmlns:xlink="http://www.w3.org/1999/xlink" x="0px" y="0px"
	 viewBox="0 0 90 90" style="enable-background:new 0 0 90 90;" xml:space="preserve">
<style type="text/css">
	.st0{fill:#59558E;}
	.st1{fill:#8989CE;}
	.st2{fill:#82ABC0;}
	.st3{fill:#BBD1DD;}
	.st4{fill:#B8CFDB;}
	.st5{fill:#C8C8FC;}
</style>
<circle class="st0" cx="45" cy="45" r="45"/>
<g>
	<path class="st1" d="M38.9,15.9c0-1.2,0-2.4,0-3.6c0-0.3,0-0.6,0-0.8c4.1,0,8.2,0,12.2,0c0,1.4,0,2.7,0,4.1c0,0.1,0,0.2,0,0.3
		c0,0,0,0,0,0c-0.1,0.1-0.2,0.1-0.4,0.1c-0.5,0-1,0-1.5,0c-0.3,0-0.3,0-0.3,0.3c0,0.7,0,1.3,0,2c0,0.2,0.1,0.3,0.3,0.3
		c0.5,0,1,0,1.6,0c0.1,0,0.3,0,0.4,0.1c0.1,0.3,0.1,0.6,0,1c-0.1,0.1-0.2,0.1-0.4,0.1c-0.5,0-0.9,0-1.4,0c-0.5,0-0.5,0-0.5,0.4
		c0,1,0,2,0,3c0,0.1,0,0.3-0.1,0.4c-0.2,0-0.1-0.2-0.1-0.3c0-0.7,0-1.3,0-2c0-0.4,0-0.8,0-1.2c0-0.4,0-0.4-0.4-0.4
		c-1.3,0-2.6,0-3.9,0c-1.1,0-2.1,0-3.2,0c-0.6,0-1.3,0-1.9,0c-0.1,0-0.3,0-0.4-0.1c-0.1-0.3-0.1-0.6,0-1c0.1-0.1,0.2-0.1,0.4-0.1
		c0.5,0,1,0,1.6,0c0.3,0,0.3,0,0.3-0.3c0-0.7,0-1.3,0-2c0-0.3,0-0.3-0.3-0.3c-0.5,0-1,0-1.5,0C39.2,15.9,39.1,16,38.9,15.9
		C38.9,15.9,38.9,15.9,38.9,15.9z"/>
	<path class="st2" d="M24.4,66.7L24.4,66.7L24.4,66.7c0-9.4,0-18.7,0-28.1l0,0l0,0c0.1,0.1,0.1,0.1,0.1,0.2c0,0.1,0,0.2,0,0.3
		c0,9,0,18.1,0,27.1C24.5,66.4,24.6,66.6,24.4,66.7z"/>
	<path class="st2" d="M65.6,66.6L65.6,66.6L65.6,66.6c-0.1-0.1-0.1-0.2-0.1-0.2c0-0.1,0-0.2,0-0.3c0-9,0-18,0-26.9
		c0-0.2-0.1-0.4,0.1-0.5c0,0,0,0,0,0C65.6,47.9,65.6,57.2,65.6,66.6z"/>
	<path class="st2" d="M52,78.6c-4.3,0-8.5,0-12.8,0c0,0,0-0.1,0-0.1c0.1-0.1,0.3,0,0.4,0c4,0,8,0,11.9,0
		C51.7,78.4,51.9,78.4,52,78.6C52,78.5,52,78.5,52,78.6z"/>
	<path class="st3" d="M39.2,78.5C39.2,78.5,39.2,78.5,39.2,78.5c-1.9,0-3.7,0-5.6,0c0,0,0,0,0,0c0.1-0.1,0.2-0.1,0.3-0.1
		c1.6,0,3.3,0,4.9,0C39,78.4,39.1,78.4,39.2,78.5z"/>
	<path class="st4" d="M52,78.6C52,78.6,52,78.5,52,78.6c0.1-0.1,0.2-0.1,0.3-0.1c1.2,0,2.5,0,3.7,0c0.1,0,0.2,0,0.3,0.1c0,0,0,0,0,0
		C54.9,78.6,53.5,78.6,52,78.6z"/>
	<path class="st1" d="M56.4,78.5c-1.5,0-2.9,0-4.4,0c-0.1,0-0.2,0-0.2,0c-4.1,0-8.2,0-12.3,0c-0.1,0-0.1,0-0.2,0c-1.9,0-3.8,0-5.6,0
		c-2.3-0.1-4.2-0.9-5.8-2.5c-1.2-1.2-2-2.6-2.5-4.2c-0.6-1.7-0.8-3.4-0.9-5.1c0-0.7,0-1.4,0-2.1c0-8.3,0-16.6,0-24.8
		c0-0.4,0-0.8,0-1.2c0.2-2.7,1.3-5,3.3-7c1-1,2.1-1.8,3.4-2.4c1.4-0.8,2.8-1.6,3.8-2.9c0.7-0.8,1.2-1.6,1.3-2.6c0-0.2,0-0.4,0-0.6
		c0-1.4,0-2.8,0-4.2c0-0.2-0.1-0.2-0.2-0.2c-0.6,0-1.1,0-1.7,0c-0.2,0-0.3-0.1-0.3-0.3c0-0.8,0-1.5,0-2.3c0-0.2,0.1-0.2,0.2-0.2
		c1.5,0,3,0,4.5,0c0,0,0,0,0,0C39,16,39,16.1,39,16.2c0,0.7,0,1.4,0,2.1c0,0.1,0,0.2-0.1,0.3c0,0.3,0,0.6,0,0.9
		c0.1,0.1,0.1,0.2,0.1,0.3c0,1.2,0,2.4,0,3.6c0,0.9-0.3,1.8-0.7,2.6c-0.8,1.6-2,2.8-3.4,3.9c-0.8,0.6-1.7,1.1-2.6,1.6
		c-1.3,0.7-2.4,1.5-3.3,2.6c-1,1.3-1.6,2.7-1.8,4.3c-0.1,0.5,0,1,0,1.5c0,7.9,0,15.7,0,23.6c0,1.1,0,2.2,0,3.4
		c0.1,2,0.5,3.9,1.4,5.7c0.6,1.1,1.4,2.1,2.7,2.7c0.8,0.4,1.6,0.6,2.4,0.6c7.6,0,15.1,0,22.7,0c1.3,0,2.4-0.5,3.4-1.2
		c1.1-0.9,1.8-2.1,2.3-3.4c0.5-1.3,0.7-2.6,0.8-3.9c0.1-0.5,0-1.1,0-1.6c0-8.6,0-17.2,0-25.8c0-0.5,0.1-1,0-1.4
		c-0.1-1.3-0.5-2.4-1.2-3.5c-0.9-1.6-2.3-2.7-3.9-3.6c-1.2-0.6-2.3-1.3-3.4-2.2c-1.5-1.3-2.7-2.8-3.2-4.7c-0.1-0.4-0.2-0.9-0.2-1.4
		c0-1.1,0-2.2,0-3.4c0-0.1,0-0.3,0.1-0.4c0-0.3,0-0.6,0-0.9C51,18.5,51,18.4,51,18.3c0-0.7,0-1.4,0-2.1c0-0.1,0-0.2,0.1-0.3
		c0,0,0,0,0,0c1.5,0,3,0,4.5,0c0.2,0,0.3,0,0.2,0.2c0,0.8,0,1.5,0,2.3c0,0.2-0.1,0.3-0.3,0.3c-0.5,0-1.1,0-1.6,0
		c-0.2,0-0.2,0-0.2,0.2c0,1.5,0,3,0,4.5c0,0.9,0.4,1.7,0.9,2.4c0.9,1.2,2.1,2.2,3.4,2.9c0.7,0.4,1.5,0.8,2.2,1.2
		c2.7,1.8,4.5,4.2,5.2,7.2c0.1,0.5,0.2,0.9,0.2,1.4c0,0.4,0,0.8,0,1.2c0,8.3,0,16.6,0,24.9c0,0.6,0,1.2,0,1.9
		c-0.1,2.5-0.6,5-1.8,7.3c-1.1,2.1-2.8,3.6-5.2,4.3C57.9,78.4,57.1,78.5,56.4,78.5z"/>
	<path class="st5" d="M41.2,19.6c0.1-0.1,0.2,0,0.3,0c2.3,0,4.7,0,7,0c0.2,0,0.3,0.1,0.3,0.3c0,1.1,0,2.3,0,3.4c0,0.1,0,0.2,0,0.3
		c0.1,0.1,0.1,0.3,0.1,0.4c0,0.7,0,1.3,0.2,2c0.4,1.3,1.1,2.3,2,3.3c1.2,1.3,2.7,2.3,4.4,3.2c0.9,0.4,1.7,1,2.4,1.6
		c1.3,1.2,2.2,2.7,2.7,4.5c0.1,0.6,0.2,1.2,0.2,1.8c0,9,0,17.9,0,26.9c0,1.4-0.3,2.8-1,4.1c-0.9,1.6-2.3,2.5-4.2,2.7
		C55.1,74,54.7,74,54.2,74c-6.3,0-12.6,0-18.9,0c-1.1,0-2.2-0.2-3.1-0.7c-1.1-0.6-1.8-1.5-2.2-2.6c-0.5-1.2-0.7-2.4-0.7-3.6
		c0-1.1,0-2.1,0-3.2c-0.1-7.8,0-15.7,0-23.5c0-2.1,0.8-4,2.2-5.6c0.9-1.1,2.1-1.9,3.3-2.5c1.5-0.8,2.8-1.7,4-2.9
		c1.2-1.3,2.1-2.7,2.4-4.4c0-0.2,0-0.3,0-0.5c0-1.5,0-3,0-4.5C41.1,19.8,41.1,19.7,41.2,19.6z"/>
	<path class="st0" d="M41.2,19.6c0,1.5,0,3,0,4.6c0,1.5-0.6,2.8-1.4,4.1c-1.2,1.7-2.8,2.9-4.6,3.9c-0.9,0.5-1.8,1-2.6,1.6
		c-2,1.7-3.1,3.8-3.2,6.4c0,0.2,0,0.3,0,0.5c0,7.3,0,14.7,0,22c0,1.5,0,3,0,4.5c0,1.5,0.3,3,1.1,4.4c0.8,1.4,2.1,2.1,3.7,2.4
		c1,0.2,2,0.1,3,0.1c5.2,0,10.5,0,15.7,0c0.8,0,1.6,0,2.4,0c2.4-0.2,4-1.4,4.8-3.6c0.5-1.4,0.6-2.9,0.6-4.4c0-0.9,0-1.7,0-2.6
		c0-7.7,0-15.4,0-23c0-2.3-0.9-4.3-2.6-5.9c-0.9-1-2.1-1.6-3.3-2.3c-1.7-0.9-3.2-2.1-4.4-3.6c-0.9-1.2-1.5-2.4-1.6-3.8
		c0-0.4,0-0.7,0-1.1c0-1.2,0-2.4,0-3.6c0-0.2,0-0.3,0.3-0.3c0.7,0,1.3,0,2,0c0,1.2,0,2.5,0,3.7c0,1.4,0.5,2.6,1.2,3.7
		c1.2,1.8,2.8,3,4.7,4.1c0.8,0.5,1.6,0.9,2.4,1.4c1.8,1.4,3,3.1,3.4,5.3c0.1,0.6,0.2,1.3,0.1,1.9c0,0.1,0,0.2,0,0.2c0,8,0,16,0,24.1
		c0,1,0,1.9,0,2.9c-0.1,2-0.5,4-1.5,5.8c-0.6,1.1-1.4,2.1-2.7,2.7c-0.9,0.5-2,0.7-3,0.7c-2.4,0-4.8,0-7.1,0c-4.6,0-9.2,0-13.7,0
		c-0.7,0-1.5,0-2.2-0.1c-1.8-0.4-3-1.4-3.9-2.8c-0.8-1.2-1.2-2.6-1.4-4c-0.3-1.5-0.3-3-0.3-4.5c0-0.2,0-0.4,0-0.6
		c0-8.1,0-16.1,0-24.2c0-1.4,0.2-2.7,0.8-4c0.9-1.9,2.4-3.3,4.3-4.3c1.6-0.8,3.1-1.8,4.3-3.1c1.2-1.2,2-2.6,2.3-4.2
		c0.1-0.3,0.1-0.6,0.1-1c0-1.2,0-2.5,0-3.7c0.7,0,1.4,0,2.2,0C41.1,19.5,41.2,19.5,41.2,19.6z"/>
	<path class="st5" d="M45,18.6c-1.2,0-2.3,0-3.5,0c-0.2,0-0.3,0-0.3-0.2c0-0.8,0-1.5,0-2.3c0-0.2,0-0.2,0.2-0.2c2.3,0,4.7,0,7,0
		c0.2,0,0.2,0,0.2,0.2c0,0.8,0,1.6,0,2.3c0,0.2-0.1,0.2-0.3,0.2C47.3,18.6,46.2,18.6,45,18.6z"/>
	<path class="st0" d="M38.9,18.6c0-0.9,0-1.8,0-2.7c0.7,0,1.4,0,2.1,0c0.1,0,0.2,0,0.2,0.2c0,0.8,0,1.6,0,2.4c0,0.1-0.1,0.2-0.2,0.2
		C40.3,18.6,39.6,18.6,38.9,18.6z"/>
	<path class="st0" d="M51.1,15.9c0,0.9,0,1.8,0,2.7c-0.7,0-1.4,0-2.1,0c-0.1,0-0.2,0-0.2-0.2c0-0.8,0-1.6,0-2.4c0-0.1,0-0.2,0.2-0.2
		C49.7,15.9,50.4,15.9,51.1,15.9z"/>
</g>
<rect x="38.9" y="18.5" class="st0" width="12.2" height="1.1"/>
</svg>
