<?xml version="1.0" encoding="UTF-8"?>
<svg width="120px" height="120px" viewBox="0 0 120 120" version="1.1" xmlns="http://www.w3.org/2000/svg" xmlns:xlink="http://www.w3.org/1999/xlink">
    <title>auth-kubernetes</title>
    <defs>
        <filter x="-5.5%" y="-5.5%" width="111.0%" height="111.0%" filterUnits="objectBoundingBox" id="filter-1">
            <feOffset dx="0" dy="1" in="SourceAlpha" result="shadowOffsetOuter1"></feOffset>
            <feGaussianBlur stdDeviation="0.5" in="shadowOffsetOuter1" result="shadowBlurOuter1"></feGaussianBlur>
            <feColorMatrix values="0 0 0 0 0   0 0 0 0 0   0 0 0 0 0  0 0 0 0.19761391 0" type="matrix" in="shadowBlurOuter1" result="shadowMatrixOuter1"></feColorMatrix>
            <feMerge>
                <feMergeNode in="shadowMatrixOuter1"></feMergeNode>
                <feMergeNode in="SourceGraphic"></feMergeNode>
            </feMerge>
        </filter>
    </defs>
    <g id="auth-kubernetes" stroke="none" stroke-width="1" fill="none" fill-rule="evenodd">
        <g id="Oval-2" fill="#334155">
            <circle id="Oval" cx="60" cy="60" r="60"></circle>
        </g>
        <g id="steering-wheel" filter="url(#filter-1)" transform="translate(23.000000, 23.000000)" fill-rule="nonzero">
            <path d="M24.9736842,26.4144737 C25.7689324,26.4144737 26.4144737,25.7689324 26.4144737,24.9736842 C26.4144737,24.1880037 25.7785003,23.5328947 24.9736842,23.5328947 C24.178436,23.5328947 23.5328947,24.178436 23.5328947,24.9736842 C23.5328947,25.7785003 24.1880037,26.4144737 24.9736842,26.4144737 Z" id="Path" fill="#F58320"></path>
            <path d="M4.27734375,40.7773438 L14.0929565,40.7773438 C14.674408,43.826622 15.8835373,46.7377778 17.6373596,49.3136521 L10.4393921,56.5105056 C8.76799778,58.1819 8.76744087,60.8886567 10.4393921,62.5606079 C12.1107864,64.2320022 14.817543,64.2325591 16.4894944,62.5606079 L23.6863479,55.3626404 C26.2622222,57.1170196 29.173378,58.325592 32.2226562,58.9070435 L32.2226562,68.7226562 C32.2226562,71.0813218 34.1413345,73 36.5,73 C38.8586655,73 40.7773438,71.0813218 40.7773438,68.7226562 L40.7773438,58.9070435 C43.826622,58.3250351 46.7377778,57.1164627 49.3136521,55.3626404 L56.5105056,62.5606079 C58.1819,64.2320022 60.8886567,64.2325591 62.5606079,62.5606079 C64.2320022,60.8892136 64.2325591,58.182457 62.5606079,56.5105056 L55.3626404,49.3136521 C57.1170196,46.7377778 58.325592,43.826622 58.9070435,40.7773438 L68.7226562,40.7773438 C71.0813218,40.7773438 73,38.8586655 73,36.5 C73,34.1413345 71.0813218,32.2226562 68.7226562,32.2226562 L58.9070435,32.2226562 C58.325592,29.173378 57.1164627,26.2622222 55.3626404,23.6863479 L62.5606079,16.4894944 C64.2320022,14.8181 64.2325591,12.1113433 62.5606079,10.4393921 C60.8892136,8.76799778 58.182457,8.76744087 56.5105056,10.4393921 L49.3136521,17.6373596 C46.7377778,15.8829804 43.826622,14.674408 40.7773438,14.0929565 L40.7773438,4.27734375 C40.7773438,1.91867825 38.8586655,0 36.5,0 C34.1413345,0 32.2226562,1.91867825 32.2226562,4.27734375 L32.2226562,14.0929565 C29.173378,14.674408 26.2622222,15.8835373 23.6863479,17.6373596 L16.4894944,10.4393921 C14.8181,8.76799778 12.1113433,8.76744087 10.4393921,10.4393921 C8.76799778,12.1107864 8.76744087,14.817543 10.4393921,16.4894944 L17.6373596,23.6863479 C15.8829804,26.2622222 14.674408,29.173378 14.0929565,32.2226562 L4.27734375,32.2226562 C1.91867825,32.2226562 0,34.1413345 0,36.5 C0,38.8586655 1.91867825,40.7773438 4.27734375,40.7773438 Z M20.6342849,24.4003525 C21.7175445,22.9840393 22.9840393,21.7169876 24.4003525,20.6342849 C27.1550064,18.5273589 30.4187088,17.1728668 33.838913,16.7156143 C34.7110901,16.5986557 35.6066589,16.5390625 36.5,16.5390625 C47.4690476,16.5390625 56.4609375,25.4563218 56.4609375,36.5 C56.4609375,47.7051926 47.2512817,56.5550613 36.3574219,56.4637222 C25.3727798,56.3718262 16.5390625,47.4256057 16.5390625,36.5 C16.5390625,35.6066589 16.5986557,34.7110901 16.7161713,33.8372422 C17.1728667,30.4181519 18.5273589,27.1550064 20.6342849,24.4003525 Z M14.4727935,60.5444641 C13.9158477,61.1014099 13.0130386,61.1014099 12.4560928,60.5444641 C11.8985901,59.9875183 11.8985901,59.0841523 12.4555359,58.5272065 L19.400093,51.5837632 C20.0299988,52.2966538 20.7033462,52.9700012 21.4162368,53.599907 L14.4727935,60.5444641 Z M36.5,70.1484375 C35.7135925,70.1484375 35.0742188,69.5090637 35.0742188,68.7226562 L35.0742188,59.2668305 C35.5481797,59.2963486 36.0243682,59.3125 36.5,59.3125 C36.9756318,59.3125 37.4518203,59.2963486 37.9257813,59.2668305 L37.9257813,68.7226562 C37.9257813,69.5090637 37.2864075,70.1484375 36.5,70.1484375 Z M60.5444641,60.5444641 C59.9875183,61.1014099 59.0841523,61.1014099 58.5272065,60.5444641 L51.5837632,53.599907 C52.2966538,52.9700012 52.9700012,52.2966538 53.599907,51.5837632 L60.5444641,58.5272065 C61.1014099,59.0841523 61.1014099,59.9869614 60.5444641,60.5444641 L60.5444641,60.5444641 Z M70.1484375,36.5 C70.1484375,37.2864075 69.5090637,37.9257813 68.7226562,37.9257813 L59.2668305,37.9257813 C59.2963486,37.4518203 59.3125,36.9756318 59.3125,36.5 C59.3125,36.0243682 59.2963486,35.5481797 59.2668305,35.0742188 L68.7226562,35.0742188 C69.5090637,35.0742188 70.1484375,35.7135925 70.1484375,36.5 Z M58.5272065,12.4555359 C59.0841523,11.8985901 59.9869614,11.8985901 60.5439072,12.4555359 C61.1014099,13.0124817 61.1014099,13.9158477 60.5444641,14.4727935 L53.599907,21.4162368 C52.9700012,20.7033462 52.2966538,20.0299988 51.5837632,19.400093 L58.5272065,12.4555359 Z M36.5,2.8515625 C37.2864075,2.8515625 37.9257813,3.49093628 37.9257813,4.27734375 L37.9257813,13.7337265 C36.9778594,13.6752471 36.0215835,13.6752471 35.0742188,13.7337265 L35.0742188,4.27734375 C35.0742188,3.49093628 35.7135925,2.8515625 36.5,2.8515625 Z M12.4555359,12.4555359 C13.0124817,11.8985901 13.9158477,11.8985901 14.4727935,12.4555359 L21.4162368,19.400093 C20.7033462,20.0299988 20.0299988,20.7033462 19.400093,21.4162368 L12.4555359,14.4727935 C11.8985901,13.9158477 11.8985901,13.0130386 12.4555359,12.4555359 Z M4.27734375,35.0725479 L13.7331695,35.0725479 C13.7036514,35.5470657 13.6875,36.0226975 13.6875,36.4983291 C13.6875,36.9739609 13.7036514,37.4518203 13.7331695,37.9257813 L4.27734375,37.9257813 C3.49093628,37.9257813 2.8515625,37.2864075 2.8515625,36.5 C2.8515625,35.7135925 3.49093628,35.0725479 4.27734375,35.0725479 Z" id="Shape" fill="#FFFFFF"></path>
            <path d="M36.6200658,53.7894737 C46.0855961,53.7894737 53.7894737,46.0895085 53.7894737,36.6200658 C53.7894737,27.1668313 46.0995686,19.4506579 36.6200658,19.4506579 C34.1793495,19.4506579 31.7246607,19.9821718 29.521477,20.987633 C28.8027315,21.3157071 28.4858353,22.1646763 28.8139095,22.8834217 C29.1419838,23.6021671 29.990953,23.9190634 30.7096983,23.5909891 C32.1125374,22.9510486 33.6388931,22.5424927 35.1892818,22.3860007 L35.1892818,29.610342 C34.2777159,29.7958969 33.4287467,30.1569462 32.6781441,30.6543673 L30.230721,28.2069442 C29.671821,27.648603 28.7658442,27.648603 28.2069442,28.2069442 C27.6480442,28.7658442 27.6480442,29.671821 28.2069442,30.230721 L30.6543673,32.6781441 C30.1569462,33.4287467 29.7958969,34.2777159 29.610342,35.1898407 L22.3854418,35.1898407 C22.5424927,33.6388931 22.9510486,32.1125374 23.5909891,30.7102572 C23.9190634,29.9915118 23.6021671,29.1425427 22.8834217,28.8144684 C22.1646763,28.4858353 21.3157071,28.8027315 20.987633,29.5220358 C19.9821718,31.7246607 19.4506579,34.1793495 19.4506579,36.6200658 C19.4506579,46.0733003 27.140563,53.7894737 36.6200658,53.7894737 Z M36.6200658,32.3277138 C38.9864483,32.3277138 40.9124178,34.2508887 40.9124178,36.6200658 C40.9124178,38.9864483 38.9892429,40.9124178 36.6200658,40.9124178 C34.2536833,40.9124178 32.3277138,38.9892429 32.3277138,36.6200658 C32.3277138,34.2531243 34.2531243,32.3277138 36.6200658,32.3277138 Z M50.8563665,35.1892818 L43.6309073,35.1892818 C43.4492649,34.2905706 43.0960401,33.4393659 42.588,32.6753497 L47.6935514,27.5697982 C49.4294948,29.6902647 50.5696508,32.315977 50.8563665,35.1892818 Z M47.6935514,45.6703334 L42.588,40.564223 C43.0960401,39.8002067 43.4492649,38.9478842 43.6309073,38.049173 L50.8569254,38.049173 C50.5696508,40.9230369 49.4294948,43.5498669 47.6935514,45.6703334 Z M32.6759085,42.588 C33.4399249,43.0960401 34.2905706,43.4492649 35.1892818,43.6309073 L35.1892818,50.8569254 C32.315977,50.5702097 29.6902647,49.4294948 27.5697982,47.6935514 L32.6759085,42.588 Z M38.0508498,43.6309073 C38.949561,43.4492649 39.8007657,43.0960401 40.5647819,42.588 L45.6703334,47.6935514 C43.5498669,49.4294948 40.9241546,50.5702097 38.0508498,50.8569254 L38.0508498,43.6309073 Z M40.564223,30.6521316 C39.8002067,30.1440915 38.949561,29.7908667 38.0508498,29.6092242 L38.0508498,22.3832062 C40.9241546,22.6699219 43.5498669,23.8106367 45.6703334,25.5465802 L40.564223,30.6521316 Z M30.6521316,40.5647819 L25.5465802,45.6703334 C23.8106367,43.5498669 22.6699219,40.9241546 22.3832062,38.0508498 L29.6092242,38.0508498 C29.7908667,38.949561 30.1440915,39.8007657 30.6521316,40.5647819 L30.6521316,40.5647819 Z" id="Shape" fill="#F58320"></path>
        </g>
    </g>
</svg>