<?xml version="1.0" encoding="utf-8"?>
<!-- Generator: Adobe Illustrator 24.0.1, SVG Export Plug-In . SVG Version: 6.00 Build 0)  -->
<svg version="1.1" id="Layer_1" xmlns="http://www.w3.org/2000/svg" xmlns:xlink="http://www.w3.org/1999/xlink" x="0px" y="0px"
	 viewBox="0 0 90 90" style="enable-background:new 0 0 90 90;" xml:space="preserve">
<style type="text/css">
	.st0{fill:#59558E;}
	.st1{fill:#C8C8FC;}
	.st2{fill:#8989CE;}
</style>
<circle class="st0" cx="45" cy="45" r="45"/>
<g>
	<path class="st1" d="M45.6,28.9c-0.6,0-1,0.4-1,1c0,0.6,0.4,1,1,1s1-0.4,1-1C46.6,29.4,46.2,28.9,45.6,28.9z"/>
	<path class="st1" d="M49.7,28.9c-0.6,0-1,0.4-1,1c0,0.6,0.4,1,1,1c0.6,0,1-0.4,1-1C50.7,29.4,50.2,28.9,49.7,28.9z"/>
	<polygon class="st1" points="36.8,57.3 37.2,57.5 37.5,57 37.8,57.5 38.1,57.3 37.8,56.8 38.5,56.8 38.5,56.4 37.8,56.4 38.1,55.9 
		37.8,55.7 37.5,56.2 37.2,55.7 36.8,55.9 37.2,56.4 36.5,56.4 36.5,56.8 37.2,56.8 	"/>
	<polygon class="st1" points="31.8,55.9 31.4,55.7 31.1,56.2 30.8,55.7 30.5,55.9 30.8,56.4 30.2,56.4 30.2,56.8 30.8,56.8 
		30.5,57.3 30.8,57.5 31.1,57 31.4,57.5 31.8,57.3 31.5,56.8 32.1,56.8 32.1,56.4 31.5,56.4 	"/>
	<polygon class="st1" points="40,57.3 40.4,57.5 40.7,57 41,57.5 41.3,57.3 41,56.8 41.6,56.8 41.6,56.4 41,56.4 41.3,55.9 41,55.7 
		40.7,56.2 40.4,55.7 40,55.9 40.3,56.4 39.7,56.4 39.7,56.8 40.3,56.8 	"/>
	<polygon class="st1" points="28.6,55.9 28.3,55.7 27.9,56.2 27.6,55.7 27.3,55.9 27.6,56.4 27,56.4 27,56.8 27.6,56.8 27.3,57.3 
		27.6,57.5 27.9,57 28.3,57.5 28.6,57.3 28.3,56.8 28.9,56.8 28.9,56.4 28.3,56.4 	"/>
	<path class="st1" d="M20.3,35c-0.6,0-1,0.4-1,1c0,0.6,0.4,1,1,1c0.6,0,1-0.4,1-1C21.3,35.4,20.8,35,20.3,35z"/>
	<path class="st1" d="M41.6,28.9c-0.6,0-1,0.4-1,1c0,0.6,0.4,1,1,1c0.6,0,1-0.4,1-1C42.6,29.4,42.2,28.9,41.6,28.9z"/>
	<path class="st1" d="M24.3,35c-0.6,0-1,0.4-1,1c0,0.6,0.4,1,1,1c0.6,0,1-0.4,1-1C25.3,35.4,24.8,35,24.3,35z"/>
	<path class="st1" d="M28.3,35c-0.6,0-1,0.4-1,1c0,0.6,0.4,1,1,1c0.6,0,1-0.4,1-1C29.3,35.4,28.8,35,28.3,35z"/>
	<polygon class="st1" points="61.1,50.7 61.7,50.7 61.4,51.3 61.7,51.5 62,50.9 62.4,51.5 62.7,51.3 62.4,50.7 63,50.7 63,50.3 
		62.4,50.3 62.7,49.8 62.4,49.6 62,50.2 61.7,49.6 61.4,49.8 61.7,50.3 61.1,50.3 	"/>
	<polygon class="st1" points="57.9,50.7 58.5,50.7 58.2,51.3 58.5,51.5 58.8,50.9 59.2,51.5 59.5,51.3 59.2,50.7 59.8,50.7 
		59.8,50.3 59.2,50.3 59.5,49.8 59.2,49.6 58.8,50.2 58.5,49.6 58.2,49.8 58.5,50.3 57.9,50.3 	"/>
	<path class="st1" d="M65.3,52.3v-3.5c0-0.4-0.4-0.7-0.7-0.7h-9.1v0.7h9.2v3.5h-9.2V53h9.2C64.9,53,65.3,52.6,65.3,52.3z"/>
	<polygon class="st1" points="56,51.5 56.3,51.3 56,50.7 56.6,50.7 56.6,50.3 56,50.3 56.3,49.8 56,49.6 55.7,50.2 55.4,49.7 
		55.4,51.4 55.7,50.9 	"/>
	<path class="st1" d="M65.3,45.2v-3.5c0-0.4-0.4-0.7-0.7-0.7h-9.2v0.7h9.2v3.5h-9.2v0.7h9.2C65,45.9,65.3,45.5,65.3,45.2z"/>
	<path class="st1" d="M43.2,54.2h-8.6h-9.2c-0.3,0-0.7,0.4-0.7,0.7v3.5c0,0.4,0.4,0.7,0.7,0.7h14.2h3.7c0.3,0,0.7-0.4,0.7-0.7v-3.5
		C43.9,54.5,43.6,54.2,43.2,54.2z M43.3,58.3H37H25.4v-3.5h9.3h8.6V58.3z"/>
	<path class="st1" d="M43.2,47.1h-8.7h-9.2c-0.3,0-0.7,0.4-0.7,0.7v3.5c0,0.4,0.4,0.7,0.7,0.7h9.1h8.7c0.3,0,0.7-0.4,0.7-0.7v-3.5
		C44,47.4,43.6,47.1,43.2,47.1z M43.3,51.2h-8.7h-9.1v-3.5h9.1h8.7V51.2z"/>
	<path class="st1" d="M34.3,56.2L34,55.7l-0.3,0.2l0.3,0.5h-0.6v0.4H34l-0.3,0.5l0.3,0.2l0.3-0.5l0.3,0.5l0.3-0.2l-0.3-0.5h0.6v-0.2
		c0-0.1-0.1-0.1-0.1-0.2h-0.5l0.3-0.5c0,0,0,0,0-0.1l-0.3-0.2L34.3,56.2z"/>
	<path class="st2" d="M54.4,32.9h22.4v-3h0c0-2.8-2.3-5-5-5H39.6c-2.8,0-5,2.3-5,5v1H18.2c-2.8,0-5,2.3-5,5v3h21.4h20.8v2H34.6H13.2
		v13.3v5.8c0,2.8,2.2,5,5,5H33l0,0l2.6,0h14.8c2.8,0,5-2.2,5-5V59l1.5,0h14.8c2.8,0,5-2.2,5-5v-5.8V34.9H55.3
		C55.2,34.2,54.8,33.5,54.4,32.9z"/>
	<path class="st1" d="M20.3,37c-0.6,0-1-0.4-1-1c0-0.6,0.4-1,1-1c0.6,0,1,0.4,1,1C21.3,36.5,20.8,37,20.3,37z"/>
	<path class="st1" d="M24.3,37c-0.6,0-1-0.4-1-1c0-0.6,0.4-1,1-1c0.6,0,1,0.4,1,1C25.3,36.5,24.8,37,24.3,37z"/>
	<path class="st1" d="M28.3,37c-0.6,0-1-0.4-1-1c0-0.6,0.4-1,1-1c0.6,0,1,0.4,1,1C29.3,36.5,28.8,37,28.3,37z"/>
	<path class="st1" d="M41.6,30.9c-0.6,0-1-0.4-1-1c0-0.6,0.4-1,1-1c0.6,0,1,0.4,1,1C42.6,30.5,42.2,30.9,41.6,30.9z"/>
	<path class="st1" d="M45.6,30.9c-0.6,0-1-0.4-1-1c0-0.6,0.4-1,1-1s1,0.4,1,1C46.6,30.5,46.2,30.9,45.6,30.9z"/>
	<path class="st1" d="M49.7,30.9c-0.6,0-1-0.4-1-1c0-0.6,0.4-1,1-1c0.6,0,1,0.4,1,1C50.7,30.5,50.2,30.9,49.7,30.9z"/>
	<path class="st1" d="M43.9,58.3c0,0.4-0.4,0.7-0.7,0.7h-3.7H25.4c-0.4,0-0.7-0.4-0.7-0.7v-3.5c0-0.4,0.4-0.7,0.7-0.7h9.2h8.6
		c0.4,0,0.7,0.4,0.7,0.7V58.3z"/>
	<path class="st1" d="M44,51.2c0,0.4-0.4,0.7-0.7,0.7h-8.7h-9.1c-0.4,0-0.7-0.4-0.7-0.7v-3.5c0-0.4,0.4-0.7,0.7-0.7h9.2h8.7
		c0.4,0,0.7,0.4,0.7,0.7V51.2z"/>
	<path class="st1" d="M55.4,45.2h9.2v-3.5h-9.2V41h9.2c0.4,0,0.7,0.4,0.7,0.7v3.5c0,0.4-0.4,0.7-0.7,0.7h-9.2V45.2z"/>
	<path class="st1" d="M55.4,52.3h9.2v-3.5h-9.2v-0.7h9.1c0.4,0,0.7,0.4,0.7,0.7v3.5c0,0.4-0.4,0.7-0.7,0.7h-9.2V52.3z"/>
	<polygon class="st0" points="25.4,47.8 25.4,51.2 34.6,51.2 43.3,51.2 43.3,47.8 34.6,47.8 	"/>
	<path class="st0" d="M25.4,54.9v3.5H37h6.2v-3.5h-8.6H25.4z M28.9,56.8h-0.6l0.3,0.5l-0.3,0.2L27.9,57l-0.3,0.5l-0.3-0.2l0.3-0.5
		H27v-0.4h0.6l-0.3-0.5l0.3-0.2l0.3,0.5l0.3-0.5l0.3,0.2l-0.3,0.5h0.6V56.8z M32.1,56.8h-0.6l0.3,0.5l-0.3,0.2L31.1,57l-0.3,0.5
		l-0.3-0.2l0.3-0.5h-0.6v-0.4h0.6l-0.3-0.5l0.3-0.2l0.3,0.5l0.3-0.5l0.3,0.2l-0.3,0.5h0.6V56.8z M39.7,56.4h0.6L40,55.9l0.3-0.2
		l0.3,0.5l0.3-0.5l0.3,0.2L41,56.4h0.6v0.4H41l0.3,0.5L41,57.5L40.7,57l-0.3,0.5L40,57.3l0.3-0.5h-0.6V56.4z M36.5,56.4h0.6
		l-0.3-0.5l0.3-0.2l0.3,0.5l0.3-0.5l0.3,0.2l-0.3,0.5h0.6v0.4h-0.6l0.3,0.5l-0.3,0.2L37.5,57l-0.3,0.5l-0.3-0.2l0.3-0.5h-0.6V56.4z
		 M34.9,55.9l-0.3,0.5h0.5c0,0.1,0.1,0.1,0.1,0.2v0.2h-0.6l0.3,0.5l-0.3,0.2L34.3,57L34,57.5l-0.3-0.2l0.3-0.5h-0.6v-0.4H34
		l-0.3-0.5l0.3-0.2l0.3,0.5l0.3-0.5L34.9,55.9C34.9,55.9,34.9,55.9,34.9,55.9z"/>
	<polygon class="st0" points="55.4,41.7 55.4,45.2 60.1,45.2 64.6,45.2 64.6,41.7 60.1,41.7 	"/>
	<polygon class="st0" points="55.4,48.8 55.4,52.3 60.1,52.3 64.6,52.3 64.6,48.8 60.1,48.8 	"/>
	<polygon class="st1" points="55.4,49.7 55.7,50.2 56,49.6 56.3,49.8 56,50.3 56.6,50.3 56.6,50.7 56,50.7 56.3,51.3 56,51.5 
		55.7,50.9 55.4,51.4 	"/>
	<polygon class="st1" points="58.2,49.8 58.5,49.6 58.8,50.2 59.2,49.6 59.5,49.8 59.2,50.3 59.8,50.3 59.8,50.7 59.2,50.7 
		59.5,51.3 59.2,51.5 58.8,50.9 58.5,51.5 58.2,51.3 58.5,50.7 57.9,50.7 57.9,50.3 58.5,50.3 	"/>
	<polygon class="st1" points="61.4,49.8 61.7,49.6 62,50.2 62.4,49.6 62.7,49.8 62.4,50.3 63,50.3 63,50.7 62.4,50.7 62.7,51.3 
		62.4,51.5 62,50.9 61.7,51.5 61.4,51.3 61.7,50.7 61.1,50.7 61.1,50.3 61.7,50.3 	"/>
</g>
</svg>
