<svg xmlns="http://www.w3.org/2000/svg" viewBox="0 0 90 90"><circle cx="45" cy="45" r="45" fill="#c92f13"/><path d="M66.72 55.4H62V45a.94.94 0 0 0-.94-.94H45.94V38a1 1 0 0 0-.94-1h0a1 1 0 0 0-.94.95v6.08H29a.94.94 0 0 0-1 .97v10.4h-4.72a.94.94 0 0 0-.94.94v9.44a1 1 0 0 0 .94 1h9.45a1 1 0 0 0 .94-1v-9.44a.94.94 0 0 0-.94-.94H29.9v-9.45h14.17v9.45H40.3a.94.94 0 0 0-.94.94v9.44a1 1 0 0 0 .94 1h9.44a1 1 0 0 0 .94-1v-9.44a.94.94 0 0 0-.94-.94h-3.78v-9.45H60.1v9.45h-2.84a.94.94 0 0 0-.94.94v9.44a1 1 0 0 0 .94 1h9.45a1 1 0 0 0 .94-1v-9.44a.94.94 0 0 0-.94-.94z" fill="#fdd337"/><path d="M32 35.83a7.34 7.34 0 0 0 12.12-2.63h4l1.25 1.24 1.24-1.24h.3l1.24 1.24 1.24-1.24h.3l1.24 1.24 1.24-1.24h1.4l2.57-2.57-2.57-2.57H44.12A7.35 7.35 0 1 0 32 35.83zm3.8-6.6a2 2 0 1 1-2.77 0 2 2 0 0 1 2.81 0z" fill="#f9902c"/></svg>