<?xml version="1.0" encoding="utf-8"?>
<!-- Generator: Adobe Illustrator 24.0.1, SVG Export Plug-In . SVG Version: 6.00 Build 0)  -->
<svg version="1.1" id="Layer_1" xmlns="http://www.w3.org/2000/svg" xmlns:xlink="http://www.w3.org/1999/xlink" x="0px" y="0px"
	 viewBox="0 0 90 90" style="enable-background:new 0 0 90 90;" xml:space="preserve">
<style type="text/css">
	.st0{fill-rule:evenodd;clip-rule:evenodd;fill:#147894;}
	.st1{fill:#13EBF2;}
	.st2{fill:#02B6D3;}
</style>
<circle class="st0" cx="45" cy="45" r="45"/>
<g>
	<path class="st1" d="M53.7,45.1c-6.1,0-11,4.9-11,11s4.9,11,11,11c6.1,0,11-4.9,11-11S59.8,45.1,53.7,45.1z M58.4,54.8l-5,5
		c-0.2,0.2-0.5,0.3-0.7,0.3c-0.3,0-0.5-0.1-0.7-0.3l-3-3c-0.4-0.4-0.4-1,0-1.4c0.4-0.4,1-0.4,1.4,0l2.3,2.3l4.3-4.3
		c0.4-0.4,1-0.4,1.4,0C58.8,53.8,58.8,54.4,58.4,54.8z"/>
	<path class="st2" d="M47.2,44.4c-0.8-0.4-1.5-0.7-2.2-0.9v-2.7c0.3-0.3,0.8-0.7,1.1-1.5c0,0,0,0,0,0c0.3-0.5,0.5-1.2,0.6-2.1
		c0-0.1,0-0.2,0-0.2c0-0.3,0.1-0.5,0.1-0.8c0.1-0.1,0.2-0.1,0.2-0.2l0,0c0.3-0.3,0.5-0.7,0.7-1.1c0,0,0,0,0,0
		c0.1-0.2,0.1-0.5,0.2-0.7c0,0,0,0,0-0.1c0-0.2,0.1-0.5,0.1-0.7c0-0.6-0.1-1.2-0.4-1.7c-0.1-0.2-0.3-0.4-0.5-0.5
		c0.1-0.2,0.1-0.4,0.2-0.6c0,0,0,0,0,0l0,0c0,0,0,0,0-0.1c0.1-0.3,0.2-0.6,0.3-0.9c0-0.1,0-0.2,0.1-0.2c0.1-0.3,0.1-0.6,0.1-0.8
		c0-0.1,0-0.1,0-0.2c0-0.6,0-1.2-0.1-1.7c-0.3-1.1-1-2-2.2-2.6c0,0-0.1,0-0.1,0c-0.2-0.1-0.5-0.2-0.8-0.3c-0.1,0-0.2-0.1-0.3-0.1
		c-0.2-0.1-0.4-0.1-0.6-0.2c-0.2,0-0.3-0.1-0.5-0.1c-0.2,0-0.5-0.1-0.7-0.1c-0.1,0-0.2,0-0.3,0c-0.4,0-0.7-0.1-1.1-0.1
		c-0.3,0-0.6,0-0.9,0c-0.9,0.1-1.8,0.3-2.7,0.6c0,0,0,0,0,0c-0.2,0.1-0.3,0.1-0.5,0.2c-0.3,0.2-0.6,0.3-0.9,0.5c0,0,0,0-0.1,0
		c-0.2,0.1-0.3,0.3-0.4,0.4c0,0-0.1,0.1-0.1,0.1c-0.1,0.1-0.2,0.3-0.3,0.4c-0.1,0.2-0.2,0.3-0.3,0.5c-0.2,0-0.3,0-0.5,0
		c-0.2,0-0.3,0.1-0.5,0.1c0,0-0.1,0-0.1,0c-0.1,0-0.3,0.1-0.4,0.2c0,0-0.1,0-0.1,0.1c-0.1,0.1-0.2,0.1-0.3,0.2c0,0,0,0,0,0.1
		c-0.1,0.1-0.1,0.2-0.2,0.2c0,0,0,0,0,0c-0.1,0.1-0.2,0.3-0.2,0.4c0,0,0,0.1,0,0.1c0,0.1-0.1,0.2-0.1,0.4c0,0.1,0,0.1,0,0.2
		c0,0.1,0,0.3,0,0.4c0,0,0,0.1,0,0.1c0,0.1,0,0.3,0.1,0.4c0,0,0,0.1,0,0.1c0,0.2,0.1,0.3,0.1,0.5c0,0,0,0,0,0.1
		c0.2,0.6,0.4,1.1,0.6,1.6c-0.2,0.1-0.4,0.3-0.5,0.6c0,0,0,0,0,0c-0.1,0.2-0.2,0.4-0.3,0.7c0,0,0,0.1,0,0.1c0,0,0,0.1,0,0.1
		c-0.1,0.3-0.1,0.5-0.1,0.8c0,0.2,0,0.5,0.1,0.7c0,0,0,0,0,0.1c0,0.2,0.1,0.5,0.2,0.7c0,0,0,0,0,0c0.2,0.5,0.4,0.8,0.7,1.1l0,0
		c0.1,0.1,0.1,0.1,0.2,0.2c0,0.3,0,0.6,0.1,0.8c0,0.1,0,0.2,0,0.2c0.1,0.9,0.4,1.6,0.6,2.1c0,0,0,0,0,0c0.4,0.7,0.8,1.2,1.1,1.5v2.7
		c-3.3,1.4-9.5,4.1-10.3,6c0,0,0,0,0,0c-0.1,0.1-0.1,0.2-0.1,0.4v5.8h14.7C40.3,50.7,43.1,46.6,47.2,44.4z"/>
</g>
</svg>
