<svg xmlns="http://www.w3.org/2000/svg" xmlns:xlink="http://www.w3.org/1999/xlink" width="55" height="55"><g fill="#3e4e50" fill-rule="evenodd"><use xlink:href="#A"/><path d="M8.02 18.333c-.633 0-1.146.514-1.146 1.146s.513 1.146 1.146 1.146 1.146-.514 1.146-1.146-.513-1.146-1.146-1.146"/><use xlink:href="#A" y="13.75"/><path d="M8.02 29.792c1.895 0 3.437 1.542 3.437 3.438s-1.542 3.438-3.437 3.438a3.44 3.44 0 0 1-3.437-3.437c0-1.895 1.542-3.437 3.438-3.437h0zm24.062 1.146c1.264 0 2.292 1.028 2.292 2.292s-1.028 2.292-2.292 2.292S29.8 34.494 29.8 33.23s1.028-2.292 2.292-2.292h0zm6.875 0c1.264 0 2.292 1.028 2.292 2.292s-1.028 2.292-2.292 2.292-2.292-1.028-2.292-2.292 1.028-2.292 2.292-2.292h0zm6.875 0c1.264 0 2.292 1.028 2.292 2.292s-1.028 2.292-2.292 2.292-2.292-1.028-2.292-2.292 1.028-2.292 2.292-2.292h0zM0 38.958h55V27.5H0v11.458zm8.02 4.584c1.895 0 3.437 1.542 3.437 3.438s-1.542 3.438-3.437 3.438a3.44 3.44 0 0 1-3.437-3.437c0-1.895 1.542-3.437 3.438-3.437h0zm24.062 1.146c1.264 0 2.292 1.028 2.292 2.292s-1.028 2.292-2.292 2.292S29.8 48.244 29.8 46.98s1.028-2.292 2.292-2.292h0zm6.875 0c1.264 0 2.292 1.028 2.292 2.292s-1.028 2.292-2.292 2.292-2.292-1.028-2.292-2.292 1.028-2.292 2.292-2.292h0zm6.875 0c1.264 0 2.292 1.028 2.292 2.292s-1.028 2.292-2.292 2.292-2.292-1.028-2.292-2.292 1.028-2.292 2.292-2.292h0zM0 49.27A5.74 5.74 0 0 0 5.729 55h43.54A5.74 5.74 0 0 0 55 49.271v-8.02H0v8.02zm45.833-27.5c-1.264 0-2.292-1.028-2.292-2.292s1.028-2.292 2.292-2.292 2.292 1.028 2.292 2.292-1.028 2.292-2.292 2.292h0zm-6.875 0c-1.264 0-2.292-1.028-2.292-2.292s1.028-2.292 2.292-2.292 2.292 1.028 2.292 2.292-1.028 2.292-2.292 2.292h0zm-6.875 0c-1.264 0-2.292-1.028-2.292-2.292s1.028-2.292 2.292-2.292 2.292 1.028 2.292 2.292-1.028 2.292-2.292 2.292h0zM8.02 22.917a3.44 3.44 0 0 1-3.437-3.437c0-1.895 1.542-3.437 3.438-3.437a3.44 3.44 0 0 1 3.437 3.438c0 1.896-1.542 3.438-3.437 3.438h0zM0 25.208h55V13.75H0v11.458zM40.838.266C40.632.094 40.373 0 40.104 0h-25.2a1.14 1.14 0 0 0-.733.266L.73 11.458h53.54L40.838.266z"/></g><defs><path id="A" d="M8.02 34.375c.633 0 1.146-.514 1.146-1.146s-.513-1.146-1.146-1.146-1.146.514-1.146 1.146.513 1.146 1.146 1.146"/></defs></svg>