<svg height="120" viewBox="0 0 120 120" width="120" xmlns="http://www.w3.org/2000/svg" xmlns:xlink="http://www.w3.org/1999/xlink"><filter id="a" height="111.4%" width="111.4%" x="-5.7%" y="-5.7%"><feOffset dx="0" dy="1" in="SourceAlpha" result="shadowOffsetOuter1"/><feGaussianBlur in="shadowOffsetOuter1" result="shadowBlurOuter1" stdDeviation=".5"/><feColorMatrix in="shadowBlurOuter1" result="shadowMatrixOuter1" type="matrix" values="0 0 0 0 0   0 0 0 0 0   0 0 0 0 0  0 0 0 0.19761391 0"/><feMerge><feMergeNode in="shadowMatrixOuter1"/><feMergeNode in="SourceGraphic"/></feMerge></filter><g fill="none" fill-rule="evenodd"><circle cx="60" cy="60" fill="#334155" r="60"/><g fill-rule="nonzero" filter="url(#a)" transform="translate(24 24)"><path d="m59.3775707 43.8361328c-6.5684221-6.3708203-15.2258771-9.8792969-24.3777-9.8792969s-17.8092779 3.5084766-24.3777 9.8792969c-6.55365679 6.3566016-10.32581016 14.8739063-10.62111845 23.9840234-.0179099.5750391.19331756 1.1197266.5947181 1.5339844.3978459.4104297.95373643.6458594 1.52521267.6458594h45.43099428c.5664177 0 1.025376-.4589648 1.025376-1.0253906s-.4589583-1.0253906-1.025376-1.0253906h-6.2936214l9.5671685-10.847129c.4519858-.5122851.7008104-1.1707226.7008104-1.8541796 0-.7482618-.2912068-1.4514063-.819754-1.9800977-1.0442429-1.0439844-2.7284573-1.0959375-3.8342228-.119082l-11.0337297 9.7321875c-.2743906-.0375977-.5541132-.0586524-.8386283-.0586524-3.0428985 0-5.5754406 2.2211328-6.0651602 5.1269532h-20.0257307c.54057824-13.9253516 12.0357272-25.0878907 26.0908909-25.0878907 14.0551785 0 25.5503275 11.1625391 26.0909057 25.0878907h-8.753977c-.5664177 0-1.025376.4589648-1.025376 1.0253906s.4589583 1.0253906 1.025376 1.0253906h15.5421031c.5714762 0 1.1272301-.2354297 1.5249392-.6457227.401674-.414121.6127648-.9589453.5949916-1.5353515-.295445-9.1088867-4.0674617-17.6261914-10.6213919-23.982793zm-5.4597856 4.2916016c-4.7667681-4.3297461-11.0199213-7.0493555-17.8924017-7.2966797v-4.8063477c8.2440234.2475977 15.707257 3.4685547 21.3427237 8.6526563zm-37.8356921.0001367-3.4501853-3.4502344c5.6354667-5.1842383 13.0987003-8.4051953 21.3427237-8.6527929v4.8063476c-6.8724804.2473242-13.1256336 2.9667969-17.8925384 7.2966797zm32.1471793 6.5583984c.2962653-.2616797.7477042-.2477343 1.0270166.0317188.1413652.1412305.2192938.3294922.2192938.5299219 0 .1834765-.0667178.3602539-.1879856.4976562l-8.9598725 10.1583399c-.5413986-.9357032-1.3215047-1.7158204-2.2570578-2.2570899zm-13.2292649 10.1867774c1.9076096 0 3.5152625 1.309082 3.9717599 3.0761718h-7.9433831c.4563607-1.7670898 2.0640136-3.0761718 3.9716232-3.0761718zm-32.87902438 3.0761719c-.02050752 0-.0382807-.0075196-.05263597-.0224219-.01832005-.0188672-.01753889-.0362305-.01753889-.0414258.2755235-8.4947461 3.69016242-16.1132617 9.11713594-21.7716406l3.4469041 3.4469531c-4.5971025 4.8250781-7.50178777 11.2750586-7.75772163 18.3885352zm65.81068478-.0224219c-.0143553.0149023-.0319918.0224219-.052636.0224219h-4.7360068c-.2559339-7.1134766-3.1606191-13.5634571-7.7577217-18.3885352l3.4470408-3.4469531c5.4269736 5.6581054 8.8414758 13.2762109 9.1169945 21.7701367 0 .0065625.0006492.0240625-.0176708.0429297z" fill="#fff"/><path d="m67.0791018 0h-10.3631338c-1.6101138 0-2.9201343 1.30580078-2.9201343 2.91074219 0 1.60425781 1.3100205 2.909375 2.9201343 2.909375h3.303078l-16.2728544 16.18326171c-.0263864.0266602-.0697256.0263867-.096112.0004102l-10.546471-10.4891993c-1.8767116-1.86621089-4.9301447-1.86607418-6.8067196.0001368l-25.43971612 25.3004882c-.55260933.5505664-.85639448 1.2826954-.85639448 2.0613086 0 .7779297.30474217 1.5088282.85762493 2.058711.55219917.5482422 1.2845911.8501172 2.06223628.8501172.77860221 0 1.511541-.301875 2.06428704-.8508008l24.66753965-24.5324024c.0266598-.0265234.069999-.0263867.0963854-.0002734l10.5456507 10.4870117c.9086199.9052149 2.1173331 1.4036914 3.4034281 1.4036914 1.285138 0 2.493988-.4983398 3.4041118-1.4031445l5.8540768-5.8229883c.4015373-.3993555.4031779-1.0486328.0038281-1.4500391-.3996232-.4016796-1.0488913-.4031835-1.4500184-.0038281l-5.8539402 5.8228516c-.5230785.5200781-1.2184202.8063672-1.9580581.8063672-.7397746 0-1.4344327-.2861524-1.9566909-.8063672l-10.546471-10.4879688c-.8237188-.8185351-2.1640903-.8186718-2.9879458.0004102l-24.66726621 24.5319922c-.16529062.1641992-.38513124.2545703-.61878026.2545703-.232692 0-.45198576-.0903711-.61672951-.2540234-.16269299-.1617383-.2522425-.3765235-.25237922-.6049805-.00013671-.2290039.08982294-.4448828.25237922-.6068945l25.43889588-25.299668c1.0792425-1.0733789 2.8353698-1.0732422 3.9146123-.0001367l10.5466077 10.4893359c.8234453.8186719 2.1636802.8185352 2.9879458-.0001367l17.0956161-17.00166017c.4526694-.45089844.5874721-1.12382812.3435694-1.71431641-.2440395-.59076171-.8148322-.97261718-1.45412-.97261718h-4.4610693c-.4794659 0-.8693822-.38513672-.8693822-.85859375 0-.47427735.3900531-.85996094.8693822-.85996094h10.3631338c.4794658 0 .8695189.38568359.8695189.85996094v10.30449221c0 .4742773-.3901898.8599609-.8695189.8599609-.4802861 0-.8708861-.3856836-.8708861-.8599609v-4.43925784c0-.63710937-.3797992-1.20708984-.9675448-1.45195312-.588019-.24486328-1.2599821-.11320313-1.7131983.33660156l-8.624096 8.5777344c-.4015373.3993554-.4031779 1.0486328-.0038281 1.450039.3993498.4014063 1.0486179.4033203 1.4500184.0038282l7.8078968-7.76603519v3.28890629c0 1.6049414 1.310704 2.9107421 2.9216381 2.9107421 1.6102505 0 2.9202709-1.3058007 2.9202709-2.9107421v-10.30449223c0-1.60480469-1.3100204-2.91060547-2.9204076-2.91060547z" fill="#f58320"/></g></g></svg>