<svg xmlns="http://www.w3.org/2000/svg" viewBox="0 0 90 90"><circle cx="45" cy="45" r="45" fill="#147894"/><path d="M23 54h-2v3.8c0 2.3 1.8 4.2 4 4.2h19v2H31a.94.94 0 0 0-1 1 .94.94 0 0 0 1 1h28a.94.94 0 0 0 1-1 .94.94 0 0 0-1-1H46v-2h19c2.2 0 4-1.9 4-4.2V54H23zm22 1c1.1 0 2 .9 2 2s-.9 2-2 2-2-.9-2-2 .9-2 2-2zm20-31H25c-2.2 0-4 1.9-4 4.2V52h48V28.2c0-2.3-1.8-4.2-4-4.2z" fill="#02b6d3"/><path d="M45.8 29.2h9.5v2.7h-9.5zm7.6 19H36.6a4.23 4.23 0 0 1-4.2-4.2v-5a4.23 4.23 0 0 1 4.2-4.2h16.8a4.23 4.23 0 0 1 4.2 4.2v5a4.23 4.23 0 0 1-4.2 4.2z" fill="#13ebf2"/><path d="M32.4 32.6h25.2v-1.8c0-1.7-1.3-3-3-3H35.4c-1.7 0-3 1.3-3 3h0v1.8zm20.4-1.8a.65.65 0 0 1 .6-.6.65.65 0 0 1 .6.6.65.65 0 0 1-.6.6.65.65 0 0 1-.6-.6zm-2.4 0a.65.65 0 0 1 .6-.6.65.65 0 0 1 .6.6.65.65 0 0 1-.6.6.65.65 0 0 1-.6-.6zm-2.4 0a.65.65 0 0 1 .6-.6.65.65 0 0 1 .6.6.65.65 0 0 1-.6.6.65.65 0 0 1-.6-.6zm9.6 3H32.4v11.4c0 1.7 1.3 3 3 3h19.2c1.7 0 3-1.3 3-3V33.8zm-14.5 3.3c0 .5-.4.9-.9.9h-7c-.5 0-.9-.4-.9-.9s.4-.9.9-.9h7c.5 0 .9.4.9.9zm0 3.9c0 .5-.4.9-.9.9h-7c-.5 0-.9-.4-.9-.9s.4-.9.9-.9h7c.5 0 .9.4.9.9zm12.6-3.9c0 .5-.4.9-.9.9h-7c-.5 0-.9-.4-.9-.9s.4-.9.9-.9h7c.5 0 .9.4.9.9zm0 3.9c0 .5-.4.9-.9.9h-7c-.5 0-.9-.4-.9-.9s.4-.9.9-.9h7c.5 0 .9.4.9.9zm0 3.9c0 .5-.4.9-.9.9H35.2c-.5 0-.9-.4-.9-.9h0c0-.5.4-.9.9-.9h19.6c.5.1.9.4.9.9h0z" fill="#147894"/></svg>