<?xml version="1.0" encoding="utf-8"?>
<!-- Generator: Adobe Illustrator 24.3.0, SVG Export Plug-In . SVG Version: 6.00 Build 0)  -->
<svg version="1.1" id="Layer_1" xmlns="http://www.w3.org/2000/svg" xmlns:xlink="http://www.w3.org/1999/xlink" x="0px" y="0px"
	 viewBox="0 0 90 90" style="enable-background:new 0 0 90 90;" xml:space="preserve">
<style type="text/css">
	.st0{fill:#147894;}
	.st1{fill:#02B6D3;}
	.st2{fill:#13EBF2;}
</style>
<circle class="st0" cx="45" cy="45" r="45"/>
<path class="st1" d="M23,54h-2v3.8c0,2.3,1.8,4.2,4,4.2h19v2H31c-0.6,0-1,0.4-1,1s0.4,1,1,1h28c0.6,0,1-0.4,1-1s-0.4-1-1-1H46v-2h19
	c2.2,0,4-1.9,4-4.2V54h-2H23z M45,55c1.1,0,2,0.9,2,2s-0.9,2-2,2s-2-0.9-2-2S43.9,55,45,55z"/>
<path class="st1" d="M65,24H25c-2.2,0-4,1.9-4,4.2V52h2h44h2V28.2C69,25.9,67.2,24,65,24z"/>
<rect x="45.8" y="29.2" class="st2" width="9.5" height="2.7"/>
<path class="st2" d="M53.4,48.2H36.6c-2.3,0-4.2-1.9-4.2-4.2v-5c0-2.3,1.9-4.2,4.2-4.2h16.8c2.3,0,4.2,1.9,4.2,4.2v5
	C57.6,46.3,55.7,48.2,53.4,48.2z"/>
<path class="st0" d="M32.4,32.6h25.2v-1.8c0-1.7-1.3-3-3-3H35.4c-1.7,0-3,1.3-3,3h0V32.6z M52.8,30.8c0-0.3,0.3-0.6,0.6-0.6
	c0.3,0,0.6,0.3,0.6,0.6c0,0.3-0.3,0.6-0.6,0.6C53.1,31.4,52.8,31.1,52.8,30.8z M50.4,30.8c0-0.3,0.3-0.6,0.6-0.6s0.6,0.3,0.6,0.6
	c0,0.3-0.3,0.6-0.6,0.6S50.4,31.1,50.4,30.8z M48,30.8c0-0.3,0.3-0.6,0.6-0.6c0.3,0,0.6,0.3,0.6,0.6c0,0.3-0.3,0.6-0.6,0.6
	C48.3,31.4,48,31.1,48,30.8z"/>
<path class="st0" d="M57.6,33.8H32.4v8v3.4c0,1.7,1.3,3,3,3h8.8l1.6,0l0,0h8.8c1.7,0,3-1.3,3-3v-3.4V33.8z M43.1,37.1
	c0,0.5-0.4,0.9-0.9,0.9h-7c-0.5,0-0.9-0.4-0.9-0.9s0.4-0.9,0.9-0.9h7C42.7,36.2,43.1,36.6,43.1,37.1z M43.1,41
	c0,0.5-0.4,0.9-0.9,0.9h-7c-0.5,0-0.9-0.4-0.9-0.9s0.4-0.9,0.9-0.9h7C42.7,40.1,43.1,40.5,43.1,41z M55.7,37.1
	c0,0.5-0.4,0.9-0.9,0.9h-7c-0.5,0-0.9-0.4-0.9-0.9s0.4-0.9,0.9-0.9h7C55.3,36.2,55.7,36.6,55.7,37.1z M55.7,41
	c0,0.5-0.4,0.9-0.9,0.9h-7c-0.5,0-0.9-0.4-0.9-0.9s0.4-0.9,0.9-0.9h7C55.3,40.1,55.7,40.5,55.7,41z M55.7,44.9
	c0,0.5-0.4,0.9-0.9,0.9H35.2c-0.5,0-0.9-0.4-0.9-0.9l0,0c0-0.5,0.4-0.9,0.9-0.9h19.6C55.3,44.1,55.7,44.4,55.7,44.9L55.7,44.9z"/>
</svg>
