<svg xmlns="http://www.w3.org/2000/svg" xmlns:xlink="http://www.w3.org/1999/xlink" width="120" height="120"><defs><path id="A" d="M0 0h45.125v19H0z"/><path id="B" d="M0 0h21.375v14.25H0z"/><path id="C" d="M0 57h45.125V0H0z"/></defs><g fill="none" fill-rule="evenodd"><circle fill="#147894" cx="60" cy="60" r="60"/><g transform="translate(37 32)"><mask id="D" fill="#fff"><use xlink:href="#A"/></mask><path d="M40.375 12.125c0 1.826-1.486 3.312-3.312 3.312h-29c-1.826 0-3.312-1.486-3.312-3.312v-5.25c0-1.826 1.486-3.312 3.312-3.312h29c1.826 0 3.312 1.486 3.312 3.312v5.25zM38 0H7.125C3.195 0 0 3.195 0 7.125V19h45.125V7.125C45.125 3.195 41.93 0 38 0h0z" fill="#13ebf2" mask="url(#D)"/><g transform="translate(0 21.375)"><mask id="E" fill="#fff"><use xlink:href="#B"/></mask><path d="M16.625 8.312h-3.562v3.563h-2.375V8.312H7.125V5.937h3.562V2.375h2.375v3.563h3.563v2.375zM0 14.25h21.375V0H0v14.25z" fill="#02b6d3" mask="url(#E)"/></g><mask id="F" fill="#fff"><use xlink:href="#C"/></mask><path d="M28.5 49.875H38V47.5h-9.5v2.375zm0-4.75H38V42.75h-9.5v2.375zm-12.877 4.75l-.843.836-2.892-2.918-2.92 2.92-1.68-1.68 2.928-2.93-2.932-2.958 1.686-1.672 2.925 2.95 2.888-2.888 1.68 1.68-2.895 2.896 2.9 2.925-.843.836zm8.127 5.938h-2.375V38H0v11.875C0 53.803 3.196 57 7.125 57H38c3.928 0 7.125-3.197 7.125-7.125V38H23.75v17.813zm4.75-24.938H38V28.5h-9.5v2.375zm-4.75 4.75h21.375v-14.25H23.75v14.25z" mask="url(#F)" fill="#02b6d3"/></g></g></svg>