<svg xmlns="http://www.w3.org/2000/svg" xmlns:xlink="http://www.w3.org/1999/xlink" width="90" height="90"><defs><path id="A" d="M.001 0h13.124v10.5H.001z"/></defs><g fill="none" fill-rule="evenodd"><circle fill="#147894" cx="45" cy="45" r="45"/><g transform="translate(24 27)"><path d="M16.625 7.875v-7l7 7h-7zm7.875 0a.87.87 0 0 0-.256-.619l-7-7C17.08.092 16.857 0 16.625 0H.875C.392 0 0 .4 0 .875v29.75c0 .484.392.875.875.875H15.75v-21c0-.484.392-.875.875-.875H24.5v-1.75z" fill="#13ebf2"/><path d="M34.125 18.375V12.25l7 6.125h-7zm7.578-.656L34.7 11.6a.88.88 0 0 0-.574-.214H17.5v29.75c0 .484.392.875.875.875h22.75c.483 0 .875-.4.875-.875v-22.75a.88.88 0 0 0-.297-.656h0z" fill="#02b6d3"/><g transform="translate(27.125)"><mask id="B" fill="#fff"><use xlink:href="#A"/></mask><path d="M.257 4.995l3.5 3.5c.17.17.395.256.62.256a.88.88 0 0 0 .62-.256c.342-.342.342-.895 0-1.237l-2-2.008h6.638A1.75 1.75 0 0 1 11.375 7v2.625c0 .484.392.875.875.875s.875-.4.875-.875V7c0-1.93-1.57-3.5-3.5-3.5H2.987l2.006-2.006c.342-.342.342-.895 0-1.237s-.895-.342-1.237 0l-3.5 3.5a1.13 1.13 0 0 0-.2.285.88.88 0 0 0 0 .668.78.78 0 0 0 .2.285" fill="#02b6d3" mask="url(#B)"/></g><path d="M14.618 37.006l-3.5-3.5c-.342-.342-.895-.342-1.237 0s-.342.895 0 1.237l2.006 2.006H5.25A1.75 1.75 0 0 1 3.5 35v-.875c0-.484-.392-.875-.875-.875s-.875.4-.875.875V35c0 1.93 1.57 3.5 3.5 3.5h6.638L9.88 40.506c-.342.342-.342.895 0 1.237.17.17.395.256.62.256a.88.88 0 0 0 .62-.256l3.5-3.5a1.13 1.13 0 0 0 .2-.285.88.88 0 0 0 0-.668.76.76 0 0 0-.2-.285" fill="#13ebf2"/></g></g></svg>