<svg xmlns="http://www.w3.org/2000/svg" xmlns:xlink="http://www.w3.org/1999/xlink" width="90" height="90"><defs><path id="A" d="M0 .224h17.5V21H0z"/></defs><g fill="none" fill-rule="evenodd"><circle fill="#147894" cx="45" cy="45" r="45"/><g transform="translate(27 26)"><path d="M8.313 20.624c0-.052.007-.1.008-.153H0v6.707a.86.86 0 0 0 .032.232c.107.4 2.776 9.482 17.47 13.837V30.642c-5.14-.446-9.187-4.765-9.187-10.018M36.28.48c-.3-.15-.638-.13-.905.06-3.093 2.16-5.644 3.123-8.27 3.123-3.1 0-5.932-1.336-7.853-3.66v10.603a10.09 10.09 0 0 1 9.002 8.116h8.498V1.257c0-.326-.18-.626-.47-.776" fill="#13ebf2"/><path d="M17.5 10.605V0c-1.92 2.326-4.764 3.662-7.853 3.662-2.628 0-5.18-.962-8.27-3.123C1.11.352.76.33.47.48S0 .93 0 1.257V18.72h8.498a10.08 10.08 0 0 1 9.002-8.116" fill="#02b6d3"/><g transform="translate(19.25 20.247)"><mask id="B" fill="#fff"><use xlink:href="#A"/></mask><path d="M9.18.224l.008.153C9.188 5.63 5.14 9.95 0 10.395V21C14.692 16.644 17.362 7.553 17.47 7.163a.86.86 0 0 0 .031-.232V.224H9.18z" fill="#02b6d3" mask="url(#B)"/></g><path d="M21.73 18.108a3.36 3.36 0 0 0-3.354-3.354 3.36 3.36 0 0 0-3.355 3.354c0 1.19.613 2.26 1.618 2.867L15.864 26a.42.42 0 0 0 .415.483h4.193a.42.42 0 0 0 .414-.483l-.775-5.035c1.006-.606 1.62-1.678 1.62-2.867" fill="#02b6d3"/></g></g></svg>