<?xml version="1.0" encoding="utf-8"?>
<!-- Generator: Adobe Illustrator 24.0.1, SVG Export Plug-In . SVG Version: 6.00 Build 0)  -->
<svg version="1.1" id="Layer_1" xmlns="http://www.w3.org/2000/svg" xmlns:xlink="http://www.w3.org/1999/xlink" x="0px" y="0px"
	 viewBox="0 0 90 90" style="enable-background:new 0 0 90 90;" xml:space="preserve">
<style type="text/css">
	.st0{fill:#C92F13;}
	.st1{fill:#F9902C;}
	.st2{fill:#FDD337;}
	.st3{fill:#D62E0D;}
</style>
<circle class="st0" cx="45" cy="45" r="45"/>
<path class="st1" d="M67.7,44.3H23.6c-0.9,0-1.7-0.8-1.7-1.7v-8.1c0-0.9,0.8-1.7,1.7-1.7h44.1c0.9,0,1.7,0.8,1.7,1.7v8.1
	C69.4,43.5,68.6,44.3,67.7,44.3L67.7,44.3z M67.7,42.6L67.7,42.6z M23.6,34.5v8.1h44.1v-8.1H23.6z M66.2,32.3v-2.2
	c0-1.9-1.5-3.5-3.4-3.6H28.5c-1.9,0-3.5,1.6-3.4,3.6v2.2H66.2z M65.3,44.9c0.3,0,0.6,0,0.9,0v-0.2H25.1v5.8h30.7
	C57.7,47,61.3,44.9,65.3,44.9L65.3,44.9z M55.8,60.6h-9.2v-1.7H55c-0.7-2.2-0.7-4.6,0.1-6.8h-30v3.3c0,1.9,1.5,3.5,3.4,3.6h16.2v1.7
	H33.7c-0.5,0-0.8,0.4-0.8,0.8c0,0.5,0.4,0.9,0.8,0.9h23.2C56.5,61.8,56.1,61.2,55.8,60.6L55.8,60.6z M44,54.6c0-0.9,0.8-1.7,1.7-1.7
	c0.9,0,1.7,0.8,1.7,1.7c0,0.9-0.8,1.7-1.7,1.7C44.8,56.3,44,55.6,44,54.6L44,54.6z"/>
<circle class="st2" cx="30.9" cy="38.4" r="1.5"/>
<circle class="st2" cx="36.8" cy="38.4" r="1.5"/>
<circle class="st2" cx="42.7" cy="38.4" r="1.5"/>
<circle class="st2" cx="48.6" cy="38.4" r="1.5"/>
<circle class="st2" cx="54.5" cy="38.4" r="1.5"/>
<circle class="st2" cx="60.4" cy="38.4" r="1.5"/>
<g>
	<circle class="st2" cx="65.1" cy="55.6" r="9.4"/>
	<path class="st3" d="M63.9,49.7l-4.6,8.7c-0.5,0.9,0.2,2.1,1.3,2.1h9.1c1.1,0,1.7-1.1,1.3-2.1l-4.6-8.7
		C65.9,48.7,64.4,48.7,63.9,49.7z"/>
	<g>
		<path class="st2" d="M65.1,59.5c-0.4,0-0.7-0.3-0.7-0.7c0-0.4,0.3-0.7,0.7-0.7c0.4,0,0.7,0.3,0.7,0.7
			C65.8,59.2,65.5,59.5,65.1,59.5z M65.1,51.7c0.3,0,0.7,0.1,0.7,0.4c0,0.1,0,0.3,0,0.4c-0.1,0.9-0.3,2.9-0.4,4.3h-0.4
			c-0.1-1.4-0.3-3.4-0.4-4.3c0-0.1,0-0.4,0-0.5C64.5,51.8,64.8,51.7,65.1,51.7z"/>
	</g>
</g>
</svg>
