<svg xmlns="http://www.w3.org/2000/svg" viewBox="0 0 90 90"><circle cx="45" cy="45" r="45" fill="#c92f13"/><path d="M67.7 44.3H23.6c-.9 0-1.7-.8-1.7-1.7v-8.1c0-.9.8-1.7 1.7-1.7h44.1c.9 0 1.7.8 1.7 1.7v8.1c0 .9-.8 1.7-1.7 1.7h0zm0-1.7h0zm-44.1-8.1v8.1h44.1v-8.1H23.6zm42.6-2.2v-2.2c0-1.9-1.5-3.5-3.4-3.6H28.5a3.42 3.42 0 0 0-3.4 3.6v2.2h41.1zm-.9 12.6h.9v-.2H25.1v5.8h30.7c1.9-3.5 5.5-5.6 9.5-5.6h0zm-9.5 15.7h-9.2v-1.7H55c-.7-2.2-.7-4.6.1-6.8h-30v3.3c0 1.9 1.5 3.5 3.4 3.6h16.2v1.7h-11c-.5 0-.8.4-.8.8 0 .5.4.9.8.9h23.2c-.4-.6-.8-1.2-1.1-1.8h0zm-11.8-6c0-.9.8-1.7 1.7-1.7s1.7.8 1.7 1.7-.8 1.7-1.7 1.7-1.7-.7-1.7-1.7h0z" fill="#f9902c"/><g fill="#fdd337"><circle cx="30.9" cy="38.4" r="1.5"/><circle cx="36.8" cy="38.4" r="1.5"/><circle cx="42.7" cy="38.4" r="1.5"/><circle cx="48.6" cy="38.4" r="1.5"/><circle cx="54.5" cy="38.4" r="1.5"/><circle cx="60.4" cy="38.4" r="1.5"/><circle cx="65.1" cy="55.6" r="9.4"/></g><path d="M63.9 49.7l-4.6 8.7c-.5.9.2 2.1 1.3 2.1h9.1c1.1 0 1.7-1.1 1.3-2.1l-4.6-8.7c-.5-1-2-1-2.5 0z" fill="#d62e0d"/><path d="M65.1 59.5a.68.68 0 1 1 0-1.4.68.68 0 1 1 0 1.4zm0-7.8c.3 0 .7.1.7.4v.4l-.4 4.3H65l-.4-4.3V52c-.1-.2.2-.3.5-.3z" fill="#fdd337"/></svg>