<svg xmlns="http://www.w3.org/2000/svg" width="90" height="90" fill-rule="evenodd"><circle fill="#59558e" cx="45" cy="45" r="45"/><path d="M39.016 33.77c-.474 0-.855-.383-.855-.856s.38-.855.855-.855.856.382.856.855-.383.856-.856.856h0zm-3.422 0c-.473 0-.856-.383-.856-.856s.383-.855.856-.855.856.382.856.855-.383.856-.856.856h0zm-3.422 0c-.473 0-.856-.383-.856-.856s.383-.855.856-.855.856.382.856.855-.383.856-.856.856h0zm29.946-.856c0-2.358-1.92-4.277-4.278-4.277H30.46c-2.36 0-4.278 1.92-4.278 4.277v2.567h35.935v-2.567zm-19.5 23.762c-.215-.794-.127-1.514.237-2.138l3.434-5.942 1.535-.062a2.68 2.68 0 0 1 1.384.371l.523.3.224-.127v-.626c0-1.462 1.2-2.652 2.652-2.652h5.416c1.462 0 2.652 1.2 2.652 2.652v.632l.198.114L62 48.55h.118V37.192H26.182V53.45c0 2.36 1.92 4.277 4.278 4.277h12.598l-.1-.052-.34-.998z" fill="#8989ce"/><path d="M55.302 63.187c-2.525 0-4.58-2.054-4.58-4.58a4.59 4.59 0 0 1 4.58-4.58c2.525 0 4.58 2.055 4.58 4.58s-2.054 4.58-4.58 4.58m11.072-1.893c-.005-.083-.01-.164-.037-.242-.063-.185-.2-.366-.362-.48-.02-.014-.033-.035-.054-.048l-1.45-.837c.043-.354.064-.705.065-1.05v-.03-.03a8.96 8.96 0 0 0-.065-1.051l.013-.008 1.43-.826c.218-.126.378-.334.443-.574.062-.232.037-.487-.09-.712l-2.702-4.68c-.043-.078-.108-.137-.17-.198-.03-.03-.048-.065-.08-.09-.054-.042-.12-.06-.182-.09-.052-.025-.097-.058-.155-.074-.215-.056-.516-.017-.71.096l-.154.09h0l-1.275.74-.44-.3a10.12 10.12 0 0 0-.956-.551l-.47-.236v-1.673a.94.94 0 0 0-.941-.941H52.62a.94.94 0 0 0-.941.941v1.672l-.475.236a9.74 9.74 0 0 0-.979.558l-.44.286-1.43-.822c-.155-.092-.322-.137-.5-.137l-.556.023-2.966 5.132c-.134.23-.16.484-.08.78l.115.335 1.742 1.006-.014.207h.016l-.055.882a8.97 8.97 0 0 0 .067 1.079l-1.45.837c-.074.043-.13.106-.19.166-.03.03-.067.05-.092.082-.047.06-.07.136-.1.207s-.054.15-.065.23c-.025.202.004.435.1.602l2.703 4.682c.17.295.48.477.818.477h.004c.15-.001.335-.05.464-.124l.916-.525.553-.318c.21.153.437.29.665.43l.487.277.728.366v1.686c0 .52.42.942.94.942h5.415c.52 0 .94-.423.94-.942V67.1h.001v-.015c.244-.107.475-.233.708-.358l.49-.283.655-.428 1.445.836a.96.96 0 0 0 .351.114l.01.001c.115.015.224.007.32-.014l.04-.006a1.03 1.03 0 0 0 .569-.435l2.7-4.68c.032-.055.04-.118.062-.178s.052-.12.06-.182c.007-.056-.007-.112-.01-.17" fill="#c8c8fc"/></svg>