<svg xmlns="http://www.w3.org/2000/svg" viewBox="0 0 90 90"><circle cx="45" cy="45" r="45" fill="#c92f13"/><path d="M56.52 44.1a11 11 0 1 0 11 11 11 11 0 0 0-11-11zm4.7 9.7l-5 5a1 1 0 0 1-1.42 0l-3-3a1 1 0 1 1 1.42-1.41l2.3 2.3 4.3-4.3a1 1 0 1 1 1.42 1.41z" fill="#fdd337"/><path d="M41.48 23.92c-.14 0-.55.07-.93.1a20.08 20.08 0 0 0-13.42 6.92 18.68 18.68 0 0 0-2.28 3.27c-.23.43-.27.53-.27.7a.72.72 0 0 0 .76.77 1 1 0 0 0 .34-.07.29.29 0 0 1 .17-.06 1.49 1.49 0 0 0 .22-.3 21.85 21.85 0 0 1 5.33-6 17.22 17.22 0 0 1 9.75-3.6c.94 0 1 0 1.2-.24a1 1 0 0 0 .27-.53.88.88 0 0 0-.61-.93.87.87 0 0 0-.25-.05h-.28zm-8.22 5.5a14.14 14.14 0 0 0-1.39.94 15.22 15.22 0 0 0-5.7 9.45 19.8 19.8 0 0 0-.42 4.24 13.34 13.34 0 0 0 .25 2.76 11.85 11.85 0 0 1 .26 3 12.69 12.69 0 0 1-.07 1.84 6.77 6.77 0 0 1-.38 1.69.87.87 0 0 0 .61 1.28.86.86 0 0 0 .82-.38 12 12 0 0 0 .44-1.35 21.49 21.49 0 0 0-.28-7.82 8.48 8.48 0 0 1-.06-2.24 15.57 15.57 0 0 1 3.31-9 13.7 13.7 0 0 1 3.22-2.91.66.66 0 0 0 .35-.38.69.69 0 0 0 .09-.45.73.73 0 0 0-.71-.66 1.11 1.11 0 0 0-.3 0zm8.3.64a14.15 14.15 0 0 0-8.48 3.68 17.77 17.77 0 0 0-1.9 2 11.63 11.63 0 0 0-2 5.14 13.51 13.51 0 0 0-.2 2.94v1.42l.15.7a15.82 15.82 0 0 1 .38 4 15.54 15.54 0 0 1-.51 3.73 9 9 0 0 1-.66 1.93.77.77 0 0 0-.1.36.79.79 0 0 0 .92.91h.33a6.1 6.1 0 0 0 1.3-2.56 15 15 0 0 0 .53-4 16.83 16.83 0 0 0-.45-4 10.9 10.9 0 0 1-.35-1.82 15 15 0 0 1 .06-3.06 11.39 11.39 0 0 1 .74-2.77 14 14 0 0 1 1.5-2.36 14.29 14.29 0 0 1 2-1.94 12.36 12.36 0 0 1 6.38-2.54 18.3 18.3 0 0 1 3.31 0 3.14 3.14 0 0 0 1.36 0 .77.77 0 0 0 .31-1c-.14-.27-.3-.36-.84-.47a13.22 13.22 0 0 0-2.61-.28H41.6zm-.12 3.13a11.31 11.31 0 0 0-4 1.16 9.59 9.59 0 0 0-3.58 3 11 11 0 0 0-2 5.34l-.05.5.15.45a13.28 13.28 0 0 1 .7 4.05 12.57 12.57 0 0 1-.15 2.53c-.13.74-.14 1 0 1.2a.79.79 0 0 0 .75.46.78.78 0 0 0 .67-.33 1.05 1.05 0 0 0 .13-.21 2.27 2.27 0 0 1 .09-.29c.57-1.4.37-4.54-.47-7.7l-.12-.46.1-.5a8.8 8.8 0 0 1 5.92-7.16 13.47 13.47 0 0 1 2.43-.49 8.32 8.32 0 0 1 4.44 1 10.76 10.76 0 0 1 3.13 2.47.82.82 0 0 0 .66.44.81.81 0 0 0 .84-.46.93.93 0 0 0 0-.75 18.28 18.28 0 0 0-1.77-1.77 11.27 11.27 0 0 0-6.3-2.51 12.13 12.13 0 0 0-1.59 0zm-17.52 3.95a1.14 1.14 0 0 0-.37.25 1.35 1.35 0 0 1-.22.19 20.48 20.48 0 0 0-.61 3 19.28 19.28 0 0 0 .08 6.62 7 7 0 0 0 .84 2.25s.1.07.13.15a.8.8 0 0 0 .4.39.93.93 0 0 0 .83 0 1 1 0 0 0 .37-.68 3.65 3.65 0 0 0-.16-.67 17.32 17.32 0 0 1-.36-9.65c.25-.84.26-.9.24-1a1 1 0 0 0-1.17-.77zm13.16 1.75a3.29 3.29 0 0 0-.9 1 7 7 0 0 0-.83 2.61 11.66 11.66 0 0 0-.08 1.8 15.35 15.35 0 0 0 .23 3c0 .25.13.7.18 1a17 17 0 0 1-1.1 8.51 19.66 19.66 0 0 1-1.15 2.56.85.85 0 0 0 0 .73.79.79 0 0 0 1.07.32c.2-.1.33-.32.7-1A24.24 24.24 0 0 0 37.5 50v-.8l-.17-.7c-.8-3.36-.76-6.16.17-7.94a3.38 3.38 0 0 1 .32-.52 1 1 0 0 0 .25-.7.69.69 0 0 0-1-.5zm-4.53 15a1.34 1.34 0 0 0-.56.81A25.83 25.83 0 0 1 30.46 58c-.24.45-.25.48-.23.72a.84.84 0 0 0 1.08.77.76.76 0 0 0 .32-.2 17.86 17.86 0 0 0 1.16-2.34l.5-1.28a2.85 2.85 0 0 0 .27-1 .61.61 0 0 0-.1-.44.77.77 0 0 0-.91-.28zm8.25 4.92c-.16.08-.22.18-.84 1.28l-.77 1.34A.62.62 0 0 0 39 62a.67.67 0 0 0 .71.64.7.7 0 0 0 .59-.31 2.6 2.6 0 0 1 .24-.29 5.32 5.32 0 0 0 1.08-1.88 1.87 1.87 0 0 0 .15-.9.88.88 0 0 0-.39-.47.72.72 0 0 0-.62 0zm3.2.45a11.17 11.17 0 0 1-1 2c-.26.44-.28.5-.28.7a.79.79 0 0 0 .3.67.85.85 0 0 0 1.32-.35 8.42 8.42 0 0 1 .3-.57c.1-.2.14-.3.2-.44a13.43 13.43 0 0 1-.85-2.02zm-.78-3.87a13.08 13.08 0 0 1 .53-3.67l.06-2.2a32.79 32.79 0 0 0-.37-5.09c-.18-1.3-.2-1.4-.37-1.6a.86.86 0 0 0-1.53.5 1.92 1.92 0 0 0 .07.69c.87 4.28.78 8.8-.23 11.77a3.16 3.16 0 0 0-.14.52.67.67 0 0 1 0 .22.77.77 0 0 0 .24.77.65.65 0 0 0 .39.23.8.8 0 0 0 .95-.49.82.82 0 0 1 .1-.19 6.56 6.56 0 0 0 .33-1.27c-.02-.07-.03-.13-.03-.2zm2.08-9.88v2.75a13.51 13.51 0 0 1 1.34-1.75c0-1-.12-2-.24-3a4 4 0 0 0-.23-1 4.87 4.87 0 0 0-1-1.75 3.57 3.57 0 0 0-1.71-1 5.93 5.93 0 0 0-1.93-.06 4.49 4.49 0 0 0-1.24.43 3.45 3.45 0 0 0-1 1 5.6 5.6 0 0 0-.5 1.27 15.17 15.17 0 0 0 .06 5.85 11 11 0 0 1 .23 2.36 16.47 16.47 0 0 1-.59 4.9 23.21 23.21 0 0 1-1.89 4.93c-.5 1-.5 1-.3 1.42a.82.82 0 0 0 1.19.3c.18-.13.17-.12.68-1.15a19 19 0 0 0 1.1-2.68 22.74 22.74 0 0 0 1-4.77 24.46 24.46 0 0 0-.14-6.57l-.18-1a9.91 9.91 0 0 1-.12-2.25 3.37 3.37 0 0 1 .92-2.3 2.19 2.19 0 0 1 1.65-.71 2 2 0 0 1 1.6.56c.73.77 1.16 2.12 1.3 4.22zm2.9-2.75a10.12 10.12 0 0 1 .24 2.11 14.67 14.67 0 0 1 1.33-.88 13.85 13.85 0 0 0-1.23-4.3 2.76 2.76 0 0 0-.63-.89 8 8 0 0 0-4-2.27 10.63 10.63 0 0 0-2-.09 10.6 10.6 0 0 0-2 .49.77.77 0 0 0-.12 1.28c.24.2.52.22 1.1.06a6.79 6.79 0 0 1 1.79-.28c2.75 0 4.66 1.66 5.53 4.77zm2.94.5a13 13 0 0 1 1.47-.55 20.79 20.79 0 0 0-.36-2.35 1.11 1.11 0 0 1-.12-.18.89.89 0 0 0-1.1-.29 1.29 1.29 0 0 0-.3.27 1.34 1.34 0 0 0 0 1.17 17.1 17.1 0 0 1 .41 1.93zm-2.9-10.15a12.45 12.45 0 0 1 2.56 2 11.64 11.64 0 0 1 2.33 3.21 10.52 10.52 0 0 1 1.11 4 14 14 0 0 1 1.6-.17 10.55 10.55 0 0 0-.34-1.94 15.92 15.92 0 0 0-2.69-5.42A12.36 12.36 0 0 0 51 33a6.29 6.29 0 0 0-2.4-1.19c-.23 0-.3 0-.4.1a.72.72 0 0 0 .06 1.23zm-2.92-4.36a13 13 0 0 1 6 2.34A15.68 15.68 0 0 1 57 39.72a19.1 19.1 0 0 1 .38 2.09v.4a14.63 14.63 0 0 1 1.5.19c-.47-4.18-1.65-7.45-3.5-9.7A18.94 18.94 0 0 0 53 30.4a17.28 17.28 0 0 0-7.05-3.17 13.43 13.43 0 0 0-3.08-.29h-1.53l-.6.06a19.76 19.76 0 0 0-4.16.91c-1 .34-1.2.45-1.24.82a.69.69 0 0 0 .45.8c.2.08.24.08.93-.12a23 23 0 0 1 8.6-.64zm.27-3a2.55 2.55 0 0 0 .81.25c6.16 1.26 10.64 5.32 13 11.78a22.17 22.17 0 0 1 1.15 4.82v.18a15.27 15.27 0 0 1 1.33.52.67.67 0 0 0 .21-.2c.12-.2.13-.22.12-.57a13.94 13.94 0 0 0-.18-1.8 18.78 18.78 0 0 0-6-11.62 21.65 21.65 0 0 0-9.09-4.76l-.73-.18a.41.41 0 0 0-.26 0h-.15a.86.86 0 0 0-.3.2.84.84 0 0 0 .09 1.38z" fill="#f9902c"/></svg>