<?xml version="1.0" encoding="UTF-8"?>
<svg width="120px" height="120px" viewBox="0 0 120 120" version="1.1" xmlns="http://www.w3.org/2000/svg" xmlns:xlink="http://www.w3.org/1999/xlink">
    <title>ciam_iam</title>
    <defs>
        <filter x="-5.5%" y="-5.5%" width="111.0%" height="111.0%" filterUnits="objectBoundingBox" id="filter-1">
            <feOffset dx="0" dy="1" in="SourceAlpha" result="shadowOffsetOuter1"></feOffset>
            <feGaussianBlur stdDeviation="0.5" in="shadowOffsetOuter1" result="shadowBlurOuter1"></feGaussianBlur>
            <feColorMatrix values="0 0 0 0 0   0 0 0 0 0   0 0 0 0 0  0 0 0 0.2 0" type="matrix" in="shadowBlurOuter1" result="shadowMatrixOuter1"></feColorMatrix>
            <feMerge>
                <feMergeNode in="shadowMatrixOuter1"></feMergeNode>
                <feMergeNode in="SourceGraphic"></feMergeNode>
            </feMerge>
        </filter>
    </defs>
    <g id="ciam_iam" stroke="none" stroke-width="1" fill="none" fill-rule="evenodd">
        <g id="Oval-2" fill="#334155">
            <circle id="Oval" cx="60" cy="60" r="60"></circle>
        </g>
        <g id="001-fighting" filter="url(#filter-1)" transform="translate(23.000000, 24.000000)" fill-rule="nonzero">
            <path d="M65.9317203,58.0113132 L65.2842442,58.6619791 L56.9735561,50.3103477 L60.6284677,46.6386461 C61.667176,45.587105 62.0548539,44.0512114 61.6404813,42.6292725 C61.2261088,41.2073337 60.0752187,40.1242286 58.6361402,39.8018808 C57.1970618,39.4795329 55.6973845,39.9689215 54.7213076,41.0794052 L49.0404616,35.8959695 L70.6117014,12.0074092 C70.7611068,11.8423117 70.8624302,11.6390873 70.9045785,11.4199856 L72.8143303,1.4471623 C72.88593,1.05171588 72.7598859,0.646134806 72.4770654,0.361920949 C72.1942449,0.0777070908 71.7906521,-0.0489579623 71.3971444,0.0229944939 L61.4707917,1.94458727 C61.2527641,1.98694322 61.050536,2.08876579 60.8862479,2.23890718 L36.5145228,24.4649249 L12.1427977,2.23404238 C11.9785097,2.083901 11.7762816,1.98207843 11.5582539,1.93972248 L1.63432177,0.020562098 C1.24032665,-0.0529244361 0.835576963,0.0731259553 0.55198074,0.357633418 C0.268384516,0.642140881 0.142261563,1.04866891 0.214715381,1.44472991 L2.1244672,11.4175532 C2.1666155,11.6366549 2.2679389,11.8398793 2.41734423,12.0049768 L23.9897943,35.8898885 L18.307738,41.0733242 C17.3316611,39.9628405 15.8319839,39.473452 14.3929054,39.7957998 C12.9538269,40.1181476 11.8029369,41.2012527 11.3885643,42.6231916 C10.9741918,44.0451304 11.3618696,45.581024 12.4005779,46.6325651 L16.0542793,50.3042667 L7.74480146,58.6558981 L7.0973254,58.0113132 C5.49716512,56.475266 2.9779121,56.475266 1.37775182,58.0113132 C-0.198854676,59.5996797 -0.198854676,62.1706983 1.37775182,63.7590648 L9.39072192,71.8090791 C10.4124253,72.8360332 11.9017058,73.2372204 13.2975659,72.8615172 C14.6934259,72.4858141 15.7838012,71.3902988 16.1579578,69.9876415 C16.5321144,68.5849841 16.1332091,67.0882817 15.1115057,66.0613275 L14.4628194,65.4106616 L22.7735075,57.0590302 L26.4272089,60.731948 C27.4735949,61.7757736 29.0019588,62.1653614 30.4169267,61.7489474 C31.8318946,61.3325334 32.9096898,60.1759734 33.2304574,58.7298052 C33.5512249,57.283637 33.0642355,55.7765714 31.9591959,54.7956858 L36.5108921,49.7569777 L41.0625883,54.7956858 C39.9575487,55.7765714 39.4705593,57.283637 39.7913269,58.7298052 C40.1120944,60.1759734 41.1898897,61.3325334 42.6048575,61.7489474 C44.0198254,62.1653614 45.5481894,61.7757736 46.5945754,60.731948 L50.2482767,57.0590302 L58.5589648,65.4106616 C58.5589648,65.4106616 58.0748706,65.8971408 57.9114887,66.0613275 C56.362382,67.6536506 56.3767101,70.2021562 57.9436219,71.7767875 C59.5105338,73.3514189 62.0465455,73.3658176 63.6310623,71.8090791 L71.6476631,63.7529838 C73.2242696,62.1646173 73.2242696,59.5935987 71.6476631,58.0052322 C70.0463663,56.4732077 67.5297857,56.475885 65.9317203,58.0113132 L65.9317203,58.0113132 Z M53.007614,42.7942443 L48.7487948,47.074045 L43.6065036,41.9064198 L47.4126947,37.6910777 L53.007614,42.7942443 Z M4.43722749,10.6258083 L2.9292739,2.74849412 L10.7679701,4.26387678 L34.7149024,26.1067921 L25.780943,34.2553185 L4.43722749,10.6258083 Z M13.4038633,70.0881589 C12.7684749,70.7252585 11.7398039,70.7252585 11.1044156,70.0881589 L3.089025,62.0332799 C2.67826823,61.6204995 2.51784945,61.0188589 2.66819686,60.4549904 C2.81854428,59.8911219 3.25681653,59.4506905 3.81792071,59.2996024 C4.37902489,59.1485142 4.97771593,59.3097233 5.38847269,59.7225037 L13.4062837,67.778599 C14.0387868,68.4176472 14.0377044,69.4504511 13.4038633,70.0881589 L13.4038633,70.0881589 Z M12.755177,63.6909577 L9.45607464,60.375602 L17.7667627,52.0239707 L21.065865,55.3356777 L12.755177,63.6909577 Z M30.43914,59.0110279 C30.1342935,59.3176058 29.7206957,59.4898588 29.2894161,59.4898588 C28.8581365,59.4898588 28.4445388,59.3176058 28.1396923,59.0110279 L14.1106409,44.9128612 C13.6998841,44.5000808 13.5394653,43.8984402 13.6898127,43.3345717 C13.8401601,42.7707032 14.2784324,42.3302718 14.8395366,42.1791837 C15.4006408,42.0280956 15.9993318,42.1893047 16.4100886,42.6020851 L30.43914,56.7039004 C31.0693836,57.3425436 31.0693836,58.3723847 30.43914,59.0110279 L30.43914,59.0110279 Z M30.2503432,53.0747657 L25.9903138,48.7925327 L33.7261399,40.991839 C34.1841597,40.513984 34.1765542,39.7554061 33.7090463,39.2869222 C33.2415385,38.8184383 32.486661,38.8129412 32.0124463,39.2745674 L24.2766202,47.0728288 L20.0202214,42.7942443 L62.2574449,4.26387678 L70.0961411,2.74849412 L68.5881875,10.6258083 L30.2503432,53.0747657 Z M38.1483409,47.9472751 L41.9775265,43.7088252 L47.0375216,48.7937489 L42.7787024,53.0735495 L38.1483409,47.9472751 Z M44.8869329,59.0146765 C44.251958,59.6527797 43.2224602,59.6527797 42.5874853,59.0146765 C41.9525103,58.3765733 41.9525103,57.3420036 42.5874852,56.7039004 L56.6201673,42.6045175 C57.2551423,41.9664142 58.2846401,41.9664142 58.919615,42.6045175 C59.55459,43.2426207 59.55459,44.2771904 58.919615,44.9152936 L44.8869329,59.0146765 Z M51.9631806,55.3356777 L55.2586522,52.0239707 L63.5693403,60.375602 L60.2738687,63.6909577 L51.9631806,55.3356777 Z M69.9400207,62.0247665 L61.9234199,70.0808618 C61.2884449,70.7189649 60.2589471,70.7189649 59.6239722,70.0808617 C58.9889973,69.4427585 58.9889973,68.4081889 59.6239722,67.7700856 C59.6239722,67.7700856 65.658207,61.7486895 67.640573,59.7139904 C68.2755479,59.0758871 69.3050457,59.0758871 69.9400207,59.7139904 C70.5749956,60.3520936 70.5749956,61.3866633 69.9400207,62.0247665 L69.9400207,62.0247665 Z" id="Shape" fill="#FFFFFF"></path>
            <path d="M29.5411451,0.569067378 C28.962328,0.904920907 28.7640173,1.64871025 29.0981989,2.23039379 L32.123788,7.49653096 C32.3384373,7.87592486 32.7389183,8.11065403 33.1732054,8.11161642 C33.6074925,8.11257291 34.0089967,7.87961551 34.2253039,7.50117369 C34.441611,7.12273187 34.4395549,6.6568319 34.2199161,6.280333 L31.194327,1.01419583 C30.86012,0.432527071 30.119977,0.233239442 29.5411451,0.569067378 Z" id="Path" fill="#F58320"></path>
            <path d="M41.805673,1.01419583 L38.7800839,6.280333 C38.5604451,6.6568319 38.558389,7.12273187 38.7746961,7.50117369 C38.9910033,7.87961551 39.3925075,8.11257291 39.8267946,8.11161642 C40.2610817,8.11065403 40.6615627,7.87592486 40.876212,7.49653096 L43.9018011,2.23039379 C44.2306104,1.64922148 44.0309836,0.910307648 43.4548542,0.57603068 C42.8787248,0.241753712 42.1421255,0.437458202 41.805673,1.01419583 Z" id="Path" fill="#F58320"></path>
            <path d="M71.1914043,24.7896497 L65.951084,27.8301446 C65.5735501,28.0458514 65.3399716,28.4483055 65.339014,28.8847322 C65.3380622,29.3211588 65.5698775,29.724641 65.946464,29.9420139 C66.3230506,30.1593867 66.7866665,30.1573204 67.1613197,29.9365995 L72.4016399,26.8961046 C72.9755501,26.5579946 73.1702952,25.8177663 72.837657,25.2387986 C72.5050188,24.6598309 71.7697275,24.4592206 71.1914043,24.7896497 Z" id="Path" fill="#F58320"></path>
            <path d="M72.4016399,37.5597283 L67.1613197,34.5192334 C66.7866665,34.2985125 66.3230506,34.2964463 65.946464,34.5138191 C65.5698775,34.7311919 65.3380622,35.1346741 65.339014,35.5711008 C65.3399716,36.0075274 65.5735501,36.4099815 65.951084,36.6256883 L71.1914043,39.6661832 C71.7697275,39.9966124 72.5050188,39.7960021 72.837657,39.2170343 C73.1702952,38.6380666 72.9755501,37.8978384 72.4016399,37.5597283 Z" id="Path" fill="#F58320"></path>
            <path d="M1.8085957,39.6661832 L7.04891598,36.6256883 C7.42644993,36.4099815 7.66002835,36.0075274 7.66098603,35.5711008 C7.66193783,35.1346741 7.43012249,34.7311919 7.05353595,34.5138191 C6.67694941,34.2964463 6.2133335,34.2985125 5.83868035,34.5192334 L0.598360076,37.5597283 C0.0244498648,37.8978384 -0.170295197,38.6380666 0.162343001,39.2170343 C0.494981198,39.7960021 1.23027255,39.9966124 1.8085957,39.6661832 Z" id="Path" fill="#F58320"></path>
            <path d="M0.598360076,26.8961046 L5.83868035,29.9365995 C6.2133335,30.1573204 6.67694941,30.1593867 7.05353595,29.9420139 C7.43012249,29.724641 7.66193783,29.3211588 7.66098603,28.8847322 C7.66002835,28.4483055 7.42644993,28.0458514 7.04891598,27.8301446 L1.8085957,24.7896497 C1.23027255,24.4592206 0.494981198,24.6598309 0.162343001,25.2387986 C-0.170295197,25.8177663 0.0244498648,26.5579946 0.598360076,26.8961046 Z" id="Path" fill="#F58320"></path>
            <ellipse id="Oval" fill="#F58320" cx="36.5" cy="36.4846093" rx="1.21023563" ry="1.21619796"></ellipse>
        </g>
    </g>
</svg>