<svg height="120" viewBox="0 0 120 120" width="120" xmlns="http://www.w3.org/2000/svg" xmlns:xlink="http://www.w3.org/1999/xlink"><linearGradient id="a"><stop offset=".101221045" stop-color="#f58320"/><stop offset="1" stop-color="#0f172a"/></linearGradient><linearGradient id="b" x1="17.066222%" x2="183.714215%" xlink:href="#a" y1="16.090902%" y2="156.272812%"/><linearGradient id="c" x1="33.934506%" x2="183.714215%" y1="30.28026%" y2="156.272818%"><stop offset="0" stop-color="#f58320"/><stop offset="1" stop-color="#0f172a"/></linearGradient><linearGradient id="d" x1="17.066222%" x2="183.714215%" xlink:href="#a" y1="45.078253%" y2="65.425003%"/><mask id="e" fill="#fff"><path d="m0 82h83v-82h-83z" fill="#fff" fill-rule="evenodd"/></mask><mask id="f" fill="#fff"><path d="m0 82h83v-82h-83z" fill="#fff" fill-rule="evenodd"/></mask><g fill="none" fill-rule="evenodd"><circle cx="60" cy="60" fill="#0f172a" r="60"/><g stroke-linecap="round" stroke-linejoin="round" transform="matrix(1 0 0 -1 22 98)"><g mask="url(#e)"><path d="m76.281467 20.7594531c9.5385156 13.4515235-3.5630019 23.1826172-3.5630019 33.4310156 0 4.1688672 1.6825332 7.2038282 3.4495254 9.2426172 1.9842187 2.2870313 1.97125 5.6663282.0113476 7.9757813l-3.6440566 4.2953906c-1.451041 1.7104688-4.1226035 1.6047656-5.4697325-.1857812-1.5449023-2.0516016-4.0041015-4.1096094-7.6564257-4.1096094-4.2748243 0-6.8783008 2.8155469-8.3016211 5.1458203-1.1477344 1.8786328-3.1917715 3.0429687-5.4128321 3.0429687h-5.8148632-5.8148633c-2.2208985 0-4.2649356-1.1643359-5.4128321-3.0429687-1.4233203-2.3302734-4.0266347-5.1458203-8.301621-5.1458203-3.6523243 0-6.1115235 2.0580078-7.6564258 4.1096094-1.3471289 1.7905468-4.01869144 1.89625-5.46957034.1857812l-3.64567774-4.2953906c-1.95844336-2.3094531-1.97141211-5.68875.01296875-7.9757813 1.76520899-2.038789 3.44952539-5.07375 3.44952539-9.2426172 0-11.2701953-15.84294921-21.9141796 0-37.5678515 7.92228514-7.82683595 32.83849614-16.6226172 32.83849614-16.6226172s24.9162109 8.79578125 32.8386582 16.6226172c.1538418.1521484.3062246.3058984.4537441.4564453" stroke="#000" stroke-width="2.4156" transform="translate(87.862348 1.201188)"/></g><g mask="url(#f)"><g stroke-width="2.4156" transform="translate(9.64562 1.201172)"><path d="m5.62596991 0c-1.70863281 4.61089844-3.3459375 9.24261719-4.90056641 13.8679297-2.2825 6.7920664.97751954 14.162457 7.58655664 17.1397617 2.32156836 1.0474219 4.69647066 2.0163672 7.05824216 2.8812109 2.3635547.8632422 4.8067051 1.6576172 7.2560157 2.3575 6.9771875 1.9923438 14.3108535-1.500664 17.0602285-8.1247265 1.7169004-4.1432422 3.3848437-8.3361328 4.9947519-12.5546485l-8.7393164-3.1983203c-1.5724609 4.1224219-3.2032812 8.2160157-4.8794922 12.2615625-.9386132 2.2646094-3.4529297 3.4529688-5.8489062 2.7707032-2.232084-.6390235-4.4546035-1.358125-6.605957-2.1460938-1.402084-.5141016-2.8075723-1.0666406-4.201875-1.6544141m-4.1190372-2.4760156c-.91916011-1.2155859-1.23041011-2.8299609-.7165234-4.3578515 1.8284316-5.4403477 3.7722852-10.88726176 5.8181055-16.30054301" stroke="#fff" transform="translate(2.29797 42.793542)"/><path d="m45.8621212.52371094c.0194531.00160156.0405273.00160156.0599805.00320312 4.4628711.25304688 8.0308984 3.76046875 8.3129687 8.16796875.5544141 8.66589449.5560352 17.36237889.0016211 26.01401949-.2820703 4.4075-3.8500977 7.9149219-8.3128066 8.1663672-6.2040879.3491407-12.4305469.5269141-18.5971875.5269141-6.1682618 0-12.3948828-.1777734-18.59864652-.5269141-4.4630332-.2514453-8.03089844-3.7588672-8.31313086-8.1663672-.55441406-8.6516406-.55263086-17.348125.0017832-26.01401949.28190821-4.4075 3.85009766-7.91492187 8.31280664-8.16796875 6.20878904-.35074218 12.42892574-.52691406 18.59718754-.52691406 4.5423047 0 9.113789.09609375 13.6885156.28667969" stroke="#fff"/><g stroke="#f58320"><path d="m0 0 4.211439 4.160699" transform="translate(51.398853 56.660078)"/><path d="m4.211439 0-4.211439 4.160539" transform="translate(51.398772 42.295087)"/><path d="m0 .4026h10.690141" transform="translate(53.018683 51.477806)"/></g></g></g></g><g fill-rule="nonzero" transform="translate(43.026667 61.92)"><path d="m11.1567124 11.7653964c2.4728906 0 4.7022643-1.4333639 5.6484985-3.63167184.9462343-2.19830792.4229691-4.72860508-1.3257815-6.41093942-1.7487507-1.68233433-4.3785719-2.18537156-6.66310063-1.27453062-2.28452872.91084094-3.77382903 3.05617073-3.77339642 5.43555892.00353892 3.24729894 2.73887219 5.87874616 6.11378005 5.88158296zm0-9.70553827c2.1949036 0 3.9742245 1.71204311 3.9742245 3.82395531 0 2.11191221-1.7793209 3.82395532-3.9742245 3.82395532-2.19490351 0-3.9742244-1.71204311-3.9742244-3.82395532.00176973-2.11120647 1.78005436-3.82225249 3.9742244-3.82395531z" fill="url(#b)"/><path d="m24.07 12.2800606c2.5109933 0 4.5465556-1.9585957 4.5465556-4.37464602 0-2.4160503-2.0355623-4.37464605-4.5465556-4.37464605s-4.5465556 1.95859575-4.5465556 4.37464605c.0029475 2.41487462 2.0367842 4.37181002 4.5465556 4.37464602zm0-6.6906351c.9735406 0 1.8512202.56427262 2.223778 1.42969843.3725579.86542581.1666252 1.861574-.521772 2.52394224-.6883972.66236823-1.7236908.86051443-2.623125.50204333-.8994343-.35847111-1.485881-1.20296477-1.485881-2.13969492.0011796-1.27861501 1.0781395-2.31485405 2.407-2.31598908z" fill="url(#c)"/><path d="m24.07 13.484375c-2.1809671.0063599-4.2657873.8644783-5.7768 2.3777488-3.327761-2.6612478-7.9544214-3.2316996-11.87204673-1.4637838-3.91762538 1.7679158-6.42001576 5.5555108-6.42115327 9.7189982 0 .5684824.47895583 1.0293285 1.06977778 1.0293285h20.17600892c.5908219 0 1.0697777-.4608461 1.0697777-1.0293285-.0017981-.6317267-.0615814-1.2620662-.1786528-1.8836711h8.886644c.5908219 0 1.0697777-.4608461 1.0697777-1.0293285-.0047169-4.2617368-3.594124-7.715425-8.0233333-7.7199636zm-21.86732756 9.6036347c.49621312-4.0666519 3.88129093-7.2450653 8.11861636-7.6229618 4.2373254-.3778965 8.1718719 2.1477324 9.436437 6.0573532.1709476.5094748.2895475 1.0338548.3540964 1.5656086zm19.31162846-2.9129996c-.4186011-1.0275401-.9999517-1.9865579-1.723412-2.8430053 1.5164035-1.5573796 3.8149444-2.160557 5.9431276-1.5595808 2.1281832.6009763 3.7233785 2.3037034 4.1245511 4.4025861z" fill="url(#d)"/></g></g></svg>