<svg xmlns="http://www.w3.org/2000/svg" xmlns:xlink="http://www.w3.org/1999/xlink" width="90" height="90"><defs><path id="A" d="M0 .7h25.537v33.507H0z"/></defs><g fill="none" fill-rule="evenodd"><circle fill="#c92f13" cx="45" cy="45" r="45"/><g transform="translate(25.364 24.545)"><g transform="translate(0 .118)"><mask id="B" fill="#fff"><use xlink:href="#A"/></mask><path d="M25.537 22.786l-2.275-.767-3.157-1.078V17.82c.815-.546 2.315-1.942 2.495-4.912.614-.394 1-1.247 1-2.334 0-.954-.297-1.727-.785-2.17.408-1.03 1.074-2.828.615-4.675C22.875 1.494 19.712.7 17.172.7h-.002c-2.248 0-4.986.623-5.968 2.318-.863-.045-1.536.184-2.007.697-1.12 1.217-.5 3.48-.13 4.76a1.98 1.98 0 0 0-.495.619c-.22.42-.34.97-.34 1.54 0 1.063.387 1.896 1.002 2.28.182 2.966 1.68 4.36 2.495 4.906v3.122L8.57 22.02c-3.938 1.3-7.05 2.327-7.69 4.265-.826 2.5-.878 6.89-.88 7.076a.84.84 0 0 0 .243.598c.157.16.37.248.595.248h20.855v-6.5c0-.988.78-1.56 1.56-1.56h1.186c0-1.218.423-2.364 1.098-3.362" fill="#f9902c" mask="url(#B)"/></g><path d="M27.2 27.826h0v-.974c0-2.247 2.376-4.622 4.622-4.622s4.62 2.375 4.62 4.622v.974H27.2zm5.608 6.096c-.046.047-.097.088-.15.127v2.98a.84.84 0 0 1-.837.838.84.84 0 0 1-.838-.838v-2.984c-.313-.246-.523-.62-.532-1.046-.014-.754.588-1.38 1.343-1.395h0c.766 0 1.38.602 1.395 1.343a1.36 1.36 0 0 1-.383.975h0zm6.553-6.298H38.13v-.772c0-3.18-3.12-6.298-6.297-6.298s-6.298 3.12-6.298 6.298v.772h-1.242a.84.84 0 0 0-.838.838V40.19a.84.84 0 0 0 .838.838H39.37a.84.84 0 0 0 .838-.838V28.462a.84.84 0 0 0-.838-.838h0z" fill="#fdd337"/></g></g></svg>