<svg xmlns="http://www.w3.org/2000/svg" viewBox="0 0 90 90" width="90" height="90"><g fill-rule="evenodd"><circle cx="45" cy="45" r="45" fill="#c92f13"/><path d="M51 57.3L47.4 62c-.3.4-.2.9.2 1.2l10.6 8.2c.4.3.9.2 1.2-.2l3.6-4.6c.3-.4.2-.9-.2-1.2l-10.6-8.2c-.4-.3-.9-.3-1.2.1m25.8-22.1c-2.8.4-4.2 1.4-5.1 3.5l-1.8 5c.2.1.5.3.7.4.8.7 1.4 1.5 1.6 2.5.2 1.1 0 2.2-.8 3.2l-5.6 7.3c-.3.4-.8.4-1.2.2-.4-.3-.4-.8-.2-1.2l5.6-7.3c.4-.6.6-1.2.5-1.8s-.5-1.1-1-1.5c-.7-.6-2.3-1.2-3.4.3l-3.1 4c-.1.2-.3.3-.6.3-1.3.2-4.6.9-6.7 3.6l-2 2.7c-.3.4-.2.9.2 1.2l7.3 5.6a.91.91 0 0 0 1 0l5.7-3.7c3-1.9 4.7-3 5.7-4.3 1.2-1.6 1.6-3.6 2.2-7.8.4-2.6.9-6.2 1.9-11.2.1-.5-.2-.9-.7-1h-.2M39 57.3c-.3-.4-.8-.4-1.2-.2l-10.6 8.2c-.4.3-.4.8-.2 1.2l3.6 4.6c.3.4.8.4 1.2.2l10.6-8.2c.4-.3.4-.8.2-1.2L39 57.3M13.2 35.2h-.3c-.5.1-.8.5-.7 1 1 5 1.5 8.6 1.9 11.2.6 4.2.9 6.1 2.2 7.8 1 1.3 2.7 2.4 5.7 4.3l5.7 3.7a.91.91 0 0 0 1 0l7.3-5.6c.4-.3.4-.8.2-1.2l-2-2.7c-2.1-2.7-5.4-3.4-6.7-3.6-.2 0-.4-.1-.6-.3l-3.1-4c-1.1-1.4-2.7-.9-3.4-.3-.5.4-.9 1-1 1.5a2.11 2.11 0 0 0 .5 1.8l5.6 7.3c.3.4.2.9-.2 1.2s-.9.2-1.2-.2l-5.6-7.3c-.7-1-1-2.1-.8-3.2.2-1 .8-1.9 1.6-2.5.2-.2.4-.3.7-.4l-1.8-5c-.8-2.1-2.3-3.1-5-3.5" fill="#f9902c"/></g><g fill="#fdd337"><path d="M50.1 35.8c-.2-.3-.3-.6-.6-.9s-.6-.6-1-.8c-.1-.1-.2-.2-.4-.2-.2-.1-.3-.1-.5-.2s-.5-.2-.8-.3h-.2l-.9-.3c-.2-.1-.3-.1-.3-.3v-3.9c0-.2.1-.3.3-.2s.5.3.7.4c.2.2.4.5.6.7l.3.9c.2.4.5.7.9.8.5.1.9 0 1.2-.3s.5-.6.5-1c0-.2-.1-.5-.1-.7-.1-.2-.2-.4-.2-.6-.1-.3-.3-.5-.5-.7-.3-.3-.6-.7-1-.9-.3-.2-.7-.4-1.1-.5s-.8-.2-1.2-.2c-.2 0-.3-.1-.3-.3v-1.2c0-.3-.3-.7-.7-.7a.65.65 0 0 0-.6.6v1.3c0 .3-.1.3-.3.3-.4 0-.8.1-1.1.2-.2 0-.4.1-.5.2-.3.2-.7.3-1 .6l-.9.9c-.1.2-.2.4-.4.7-.1.2-.2.4-.2.6-.1.3-.1.6-.1.9 0 .7 0 1.4.3 2.1.2.3.3.6.6.9s.6.6 1 .8c.3.2.6.3.8.4s.5.2.7.3.4.2.6.2c.3.1.3.1.3.4v4.4c0 .2-.1.3-.3.2l-.6-.3c-.6-.4-1-1-1.2-1.7l-.3-.8c-.1-.3-.4-.5-.7-.6-.4-.1-.8-.1-1.1.1-.5.3-.7.7-.7 1.3 0 .4.1.8.3 1.2.2.5.5.8.8 1.2a1.38 1.38 0 0 0 .4.3c.3.3.6.5.9.7.4.2.7.4 1.1.5l1.2.3c.2 0 .2 0 .2.2v1.3c0 .3.2.6.5.7.4.1.8-.3.8-.6v-1.4c0-.1 0-.2.2-.2.4 0 .7-.1 1.1-.2.2-.1.5-.1.7-.2.3-.1.6-.2.8-.4.6-.4 1.2-.9 1.5-1.6l.5-1.1c.2-.6.2-1.1.1-1.7.3-.6.1-1.1-.1-1.6zm-5.7-3.3c0 .1 0 .2-.1.2h-.2c-.1-.1-.3-.1-.5-.2-.3-.2-.6-.3-.8-.6-.1-.1-.2-.2-.2-.3-.1-.3-.2-.5-.2-.8v-.5c.1-.4.3-.8.7-1 .2-.2.5-.3.7-.4.1-.1.3-.1.4-.1s.1.1.1.2v1.8c.1.5.1 1.1.1 1.7zm3.6 5.9c-.1.4-.2.7-.4 1s-.5.5-.8.7c-.1.1-.3.2-.5.2-.1 0-.2.1-.3.1h-.1c-.3 0-.3 0-.3-.3v-4.2c0-.1 0-.2.1-.3s.3 0 .4 0c.1.1.2.1.2.1.2.1.3.2.5.2.1.1.2.1.4.2.2.2.5.4.6.7.2.7.3 1.2.2 1.6z"/><path d="M60.4 31.9h-3.8l-1-3.1 2.7-2.7c.1-.1.2-.3.2-.5s-.1-.3-.2-.5l-3.8-3.8c-.3-.3-.7-.3-.9 0L50.8 24c-.9-.4-2.1-.8-3.1-1v-3.8a.68.68 0 0 0-.7-.7h-4a.68.68 0 0 0-.7.7V23l-3.1 1-2.7-2.7c-.3-.3-.7-.3-.9 0l-3.8 3.8c-.3.3-.3.7 0 .9l2.7 2.7c-.4.9-.8 2.1-1 3.1h-3.8a.68.68 0 0 0-.7.7v4a.68.68 0 0 0 .7.7h3.8l1 3.1-2.7 2.7c-.1.1-.2.3-.2.5s.1.3.2.5l3.8 3.8c.3.3.7.3.9 0l2.7-2.7c.9.4 2.1.8 3.1 1V50a.68.68 0 0 0 .7.7h4a.68.68 0 0 0 .7-.7v-3.8l3.1-1 2.7 2.7c.3.3.7.3.9 0l3.8-3.8c.3-.3.3-.7 0-.9l-2.7-2.7c.4-.9.8-2.1 1-3.1h3.8a.68.68 0 0 0 .7-.7v-4c.1-.5-.2-.8-.6-.8zM47 44v.3c0 1-.9 2-2.2 1.9-1-.1-1.8-.7-1.8-1.6v-.5c-4.4-.9-7.6-4.8-7.6-9.4s3.3-8.5 7.6-9.4v-.5c0-.9.8-1.5 1.8-1.6 1.3-.1 2.2.9 2.2 1.9v.3c4.3.9 7.5 4.8 7.5 9.4.1 4.4-3.2 8.2-7.5 9.2z"/></g></svg>