<?xml version="1.0" encoding="utf-8"?>
<!-- Generator: Adobe Illustrator 24.0.1, SVG Export Plug-In . SVG Version: 6.00 Build 0)  -->
<svg version="1.1" id="Layer_1" xmlns="http://www.w3.org/2000/svg" xmlns:xlink="http://www.w3.org/1999/xlink" x="0px" y="0px"
	 viewBox="0 0 90 90" style="enable-background:new 0 0 90 90;" xml:space="preserve" width="90" height="90">
<style type="text/css">
	.st0{fill:#8989CE;}
	.st1{fill:#C92F13;}
	.st2{fill:#FDD337;}
	.st3{fill:#F9902C;}
</style>
<polygon class="st0" points="35.7,118.2 35.5,118.3 35.7,118.3 "/>
<circle class="st1" cx="45" cy="45" r="45"/>
<g>
	<path class="st2" d="M66.7,55.4H62V45c0-0.5-0.4-0.9-0.9-0.9H45.9V38c0-0.5-0.4-0.9-0.9-0.9l0,0c-0.5,0-0.9,0.4-0.9,0.9v6.1H28.9
		c-0.5,0-0.9,0.4-0.9,0.9v10.4h-4.7c-0.5,0-0.9,0.4-0.9,0.9v9.4c0,0.5,0.4,0.9,0.9,0.9h9.4c0.5,0,0.9-0.4,0.9-0.9v-9.4
		c0-0.5-0.4-0.9-0.9-0.9h-2.8v-9.4h14.2v9.4h-3.8c-0.5,0-0.9,0.4-0.9,0.9v9.4c0,0.5,0.4,0.9,0.9,0.9h9.4c0.5,0,0.9-0.4,0.9-0.9v-9.4
		c0-0.5-0.4-0.9-0.9-0.9h-3.8v-9.4h14.2v9.4h-2.8c-0.5,0-0.9,0.4-0.9,0.9v9.4c0,0.5,0.4,0.9,0.9,0.9h9.4c0.5,0,0.9-0.4,0.9-0.9v-9.4
		C67.7,55.8,67.2,55.4,66.7,55.4z"/>
	<g>
		<path class="st3" d="M32,35.8c2.9,2.9,7.5,2.9,10.4,0c0.8-0.8,1.3-1.6,1.7-2.6l4,0l1.2,1.2l1.2-1.2l0.3,0l1.2,1.2l1.2-1.2l0.3,0
			l1.2,1.2l1.2-1.2h1.4l2.6-2.6l-2.6-2.6l-13.4,0c-0.4-1-0.9-1.9-1.7-2.6c-2.9-2.9-7.5-2.9-10.4,0S29.2,33,32,35.8z M35.9,29.2
			c0.8,0.8,0.8,2,0,2.8c-0.8,0.8-2,0.8-2.8,0c-0.8-0.8-0.8-2,0-2.8C33.8,28.5,35.1,28.5,35.9,29.2z"/>
	</g>
</g>
</svg>
