<?xml version="1.0" encoding="utf-8"?>
<!-- Generator: Adobe Illustrator 24.3.0, SVG Export Plug-In . SVG Version: 6.00 Build 0)  -->
<svg version="1.1" id="Layer_1" xmlns="http://www.w3.org/2000/svg" xmlns:xlink="http://www.w3.org/1999/xlink" x="0px" y="0px"
	 viewBox="0 0 90 90" style="enable-background:new 0 0 90 90;" xml:space="preserve" width="90" height="90">
<style type="text/css">
	.st0{fill:#59558E;}
	.st1{fill:#C8C8FC;}
	.st2{fill:#8989CE;}
	.st3{fill:none;stroke:#C8C8FC;stroke-width:2;stroke-linecap:round;stroke-linejoin:round;stroke-miterlimit:10;}
</style>
<circle class="st0" cx="45" cy="45" r="45"/>
<g>
	<g>
		<path class="st1" d="M72.9,37c0-2.8-2.3-5.1-5.1-5.1H35.1c-2.8,0-5.1,2.3-5.1,5.1v3.1h42.9V37z M37.2,38.1c-0.6,0-1-0.5-1-1
			s0.5-1,1-1c0.6,0,1,0.5,1,1S37.7,38.1,37.2,38.1z M41.3,38.1c-0.6,0-1-0.5-1-1s0.5-1,1-1c0.6,0,1,0.5,1,1S41.8,38.1,41.3,38.1z
			 M45.4,38.1c-0.6,0-1-0.5-1-1s0.5-1,1-1c0.6,0,1,0.5,1,1S45.9,38.1,45.4,38.1z"/>
		<path class="st1" d="M72.9,42.1H30h0v19.4c0,2.8,2.3,5.1,5.1,5.1h2.4h27.9h2.4c2.8,0,5.1-2.3,5.1-5.1L72.9,42.1L72.9,42.1z"/>
	</g>
	<g>
		<path class="st2" d="M66.6,29.2c0-3.3-2.6-5.9-5.9-5.9H23c-3.3,0-5.9,2.6-5.9,5.9v3.5h49.6V29.2z M25.3,30.4
			c-0.7,0-1.2-0.5-1.2-1.2s0.5-1.2,1.2-1.2c0.7,0,1.2,0.5,1.2,1.2S26,30.4,25.3,30.4z M30,30.4c-0.7,0-1.2-0.5-1.2-1.2
			s0.5-1.2,1.2-1.2c0.7,0,1.2,0.5,1.2,1.2S30.7,30.4,30,30.4z M34.8,30.4c-0.7,0-1.2-0.5-1.2-1.2s0.5-1.2,1.2-1.2
			c0.7,0,1.2,0.5,1.2,1.2S35.4,30.4,34.8,30.4z"/>
		<path class="st2" d="M66.6,35.1H17.1h0v22.4c0,3.3,2.6,5.9,5.9,5.9h2.8h32.2h2.8c3.3,0,5.9-2.6,5.9-5.9L66.6,35.1L66.6,35.1z"/>
		<g>
			<line class="st3" x1="62.2" y1="41" x2="48.1" y2="41"/>
			<line class="st3" x1="35.5" y1="41" x2="21.5" y2="41"/>
			<line class="st3" x1="35.5" y1="49.3" x2="21.5" y2="49.3"/>
			<line class="st3" x1="62.2" y1="49.3" x2="48.1" y2="49.3"/>
			<line class="st3" x1="62.2" y1="57.5" x2="21.5" y2="57.5"/>
		</g>
	</g>
</g>
</svg>
