<svg xmlns="http://www.w3.org/2000/svg" width="90" height="90"><circle cx="45" cy="45" r="45" fill="#59558e"/><path d="M72.9 37c0-2.8-2.3-5.1-5.1-5.1H35.1c-2.8 0-5.1 2.3-5.1 5.1v3.1h42.9V37zm-35.7 1.1c-.6 0-1-.5-1-1a1.08 1.08 0 0 1 1-1c.6 0 1 .5 1 1a1.08 1.08 0 0 1-1 1zm4.1 0c-.6 0-1-.5-1-1a1.08 1.08 0 0 1 1-1c.6 0 1 .5 1 1a1.08 1.08 0 0 1-1 1zm4.1 0c-.6 0-1-.5-1-1a1.08 1.08 0 0 1 1-1c.6 0 1 .5 1 1a1.08 1.08 0 0 1-1 1zm27.5 4H30v19.4c0 2.8 2.3 5.1 5.1 5.1h32.7c2.8 0 5.1-2.3 5.1-5.1V42.1z" fill="#c8c8fc"/><path d="M66.6 29.2c0-3.3-2.6-5.9-5.9-5.9H23c-3.3 0-5.9 2.6-5.9 5.9v3.5h49.6v-3.5zm-41.3 1.2c-.7 0-1.2-.5-1.2-1.2s.5-1.2 1.2-1.2 1.2.5 1.2 1.2-.5 1.2-1.2 1.2zm4.7 0c-.7 0-1.2-.5-1.2-1.2S29.3 28 30 28s1.2.5 1.2 1.2-.5 1.2-1.2 1.2zm4.8 0c-.7 0-1.2-.5-1.2-1.2s.5-1.2 1.2-1.2 1.2.5 1.2 1.2-.6 1.2-1.2 1.2zm31.8 4.7H17.1v22.4c0 3.3 2.6 5.9 5.9 5.9h37.8c3.3 0 5.9-2.6 5.9-5.9l-.1-22.4z" fill="#8989ce"/><path d="M62.2 41H48.1m-12.6 0h-14m14 8.3h-14m40.7 0H48.1m14.1 8.2H21.5" fill="none" stroke="#c8c8fc" stroke-width="2" stroke-linecap="round" stroke-linejoin="round" stroke-miterlimit="10"/></svg>