<?xml version="1.0" encoding="UTF-8"?>
<svg width="120px" height="120px" viewBox="0 0 120 120" version="1.1" xmlns="http://www.w3.org/2000/svg" xmlns:xlink="http://www.w3.org/1999/xlink">
    <title>cross_platform_gaming_accounts</title>
    <defs>
        <filter x="-8.1%" y="-8.3%" width="116.2%" height="116.7%" filterUnits="objectBoundingBox" id="filter-1">
            <feOffset dx="0" dy="1" in="SourceAlpha" result="shadowOffsetOuter1"></feOffset>
            <feGaussianBlur stdDeviation="1" in="shadowOffsetOuter1" result="shadowBlurOuter1"></feGaussianBlur>
            <feColorMatrix values="0 0 0 0 0   0 0 0 0 0   0 0 0 0 0  0 0 0 0.2 0" type="matrix" in="shadowBlurOuter1" result="shadowMatrixOuter1"></feColorMatrix>
            <feMerge>
                <feMergeNode in="shadowMatrixOuter1"></feMergeNode>
                <feMergeNode in="SourceGraphic"></feMergeNode>
            </feMerge>
        </filter>
    </defs>
    <g id="cross_platform_gaming_accounts" stroke="none" stroke-width="1" fill="none" fill-rule="evenodd">
        <g id="Oval-2" fill="#334155">
            <circle id="Oval" cx="60" cy="60" r="60"></circle>
        </g>
        <g id="molecular" filter="url(#filter-1)" transform="translate(24.000000, 21.000000)" fill-rule="nonzero">
            <path d="M37.2967442,28.7277528 L37.2967442,14.8334834 C40.5430971,13.9982377 42.9493467,11.0426377 42.9493467,7.53470578 C42.9493467,3.37997084 39.5739583,0 35.4248562,0 C31.2760036,0 27.9006152,3.37997084 27.9006152,7.53470578 C27.9006152,11.0426377 30.3068648,13.9979878 33.5529682,14.8332335 L33.5529682,28.7275028 C29.6157638,29.3208222 26.2728214,31.7553309 24.4291366,35.1248049 L16.1953253,28.7152566 C16.3967404,28.1476794 16.5073066,27.5371153 16.5073066,26.9013089 C16.5073066,23.9047213 14.0726043,21.4667137 11.0800794,21.4667137 C8.08755444,21.4667137 5.65285213,23.9047213 5.65285213,26.9013089 C5.65285213,29.8978965 8.08755444,32.3359041 11.0800794,32.3359041 C12.0714312,32.3359041 13.0006364,32.066986 13.8013053,31.6003781 L23.1083324,38.8454221 C22.9710606,39.587946 22.8956859,40.3517134 22.8956859,41.1334754 C22.8956859,43.9176276 23.8071706,46.4918438 25.3453633,48.5754594 L14.8221082,59.1130008 C14.0910736,59.845028 14.0910736,61.0319166 14.8221082,61.7636937 C15.1877504,62.1295823 15.6669537,62.3127766 16.1459074,62.3127766 C16.6248612,62.3127766 17.1040645,62.1298323 17.4697066,61.7636937 L27.9929617,51.2261523 C29.5975441,52.4140406 31.4936418,53.2285426 33.5529682,53.5389481 L33.5529682,67.464208 C31.4799146,68.229475 29.9976289,70.2273667 29.9976289,72.5654048 C29.9976289,75.5619923 32.4323312,78 35.4248562,78 C38.4173811,78 40.8520834,75.5619923 40.8520834,72.5654048 C40.8520834,70.2271167 39.3697977,68.2292251 37.2967442,67.464208 L37.2967442,53.539198 C43.3207293,52.6317243 47.9540264,47.4145629 47.9540264,41.1337253 C47.9540264,34.8523879 43.3204797,29.6352265 37.2967442,28.7277528 Z M11.0800794,28.5872955 C10.1516229,28.5872955 9.39662811,27.8310258 9.39662811,26.9015588 C9.39662811,25.9720918 10.1516229,25.2158221 11.0800794,25.2158221 C12.0085358,25.2158221 12.7635306,25.9720918 12.7635306,26.9015588 C12.7635306,27.8310258 12.0082862,28.5872955 11.0800794,28.5872955 Z M31.6441416,7.53470578 C31.6441416,5.44709143 33.3400721,3.74885852 35.4246066,3.74885852 C37.5091411,3.74885852 39.2053212,5.44709143 39.2053212,7.53470578 C39.2053212,9.62232013 37.5091411,11.320553 35.4246066,11.320553 C33.3400721,11.320553 31.6441416,9.62232013 31.6441416,7.53470578 Z M35.4248562,74.2511415 C34.4963997,74.2511415 33.7414049,73.4948718 33.7414049,72.5654048 C33.7414049,71.7519025 34.3196935,71.0711098 35.0864188,70.9139076 C35.1962363,70.9341515 35.3090487,70.9461478 35.4248562,70.9461478 C35.5406636,70.9461478 35.6534761,70.9341515 35.7632935,70.9139076 C36.5300188,71.0711098 37.1083074,71.7519025 37.1083074,72.5654048 C37.1083074,73.4948718 36.353063,74.2511415 35.4248562,74.2511415 Z M35.4248562,49.9305468 C30.5806597,49.9305468 26.6397115,45.9839985 26.6397115,41.1332255 C26.6397115,40.2772361 26.7647536,39.4502379 26.9933735,38.6672263 C27.0056032,38.6284881 27.0170841,38.5899998 27.0265683,38.5507618 C28.1309822,34.9563562 31.4776684,32.3359041 35.4248562,32.3359041 C40.2690527,32.3359041 44.2102505,36.2824525 44.2102505,41.1332255 C44.2102505,45.9842484 40.2690527,49.9305468 35.4248562,49.9305468 Z" id="Shape" fill="#FFFFFF"></path>
            <path d="M72.4755095,22.9267691 C68.3264073,22.9267691 64.9510189,26.3067399 64.9510189,30.4614749 C64.9510189,30.6551659 64.9607527,30.8463577 64.9752287,31.0362998 L51.4382339,35.6581426 C50.4596109,35.9920409 49.9367302,37.0574665 50.2704254,38.0371682 C50.5357343,38.8166808 51.2630252,39.3072814 52.0419802,39.3072814 C52.242397,39.3072814 52.4460584,39.2747913 52.6462256,39.2065621 L66.1827212,34.5849693 C67.5284839,36.6373444 69.8458812,37.9964306 72.4757591,37.9964306 C76.6246116,37.9964306 80,34.6164597 80,30.4617248 C80,26.3069899 76.624362,22.9267691 72.4755095,22.9267691 Z M72.4755095,34.2475721 C70.3907254,34.2475721 68.6947949,32.5493391 68.6947949,30.4617248 C68.6947949,28.3741104 70.390975,26.6758775 72.4755095,26.6758775 C74.5600439,26.6758775 76.2559744,28.3741104 76.2559744,30.4617248 C76.2559744,32.5490892 74.5600439,34.2475721 72.4755095,34.2475721 Z" id="Shape" fill="#F58320"></path>
            <path d="M7.52449053,61.5367628 C3.37538842,61.5367628 0,64.9169836 0,69.0714686 C0,73.2262036 3.37538842,76.6061744 7.52449053,76.6061744 C11.6733431,76.6061744 15.0487315,73.2262036 15.0487315,69.0714686 C15.0489811,64.9169836 11.6733431,61.5367628 7.52449053,61.5367628 Z M7.52449053,72.8575658 C5.43970649,72.8575658 3.74377597,71.1593329 3.74377597,69.0717185 C3.74377597,66.9841042 5.43995607,65.2858713 7.52449053,65.2858713 C9.609025,65.2858713 11.3049555,66.9841042 11.3049555,69.0717185 C11.3052051,71.159083 9.60927458,72.8575658 7.52449053,72.8575658 Z" id="Shape" fill="#F58320"></path>
        </g>
    </g>
</svg>