<svg xmlns="http://www.w3.org/2000/svg" width="80" height="80" fill-rule="nonzero"><circle fill="#780116" cx="40" cy="40" r="40"/><path d="M37.918 28.455a11.88 11.88 0 0 1 9.478 4.67l-4.353 2.502a6.97 6.97 0 0 0-5.125-2.244c-3.833 0-6.952 3.095-6.952 6.897s3.12 6.897 6.952 6.897a6.97 6.97 0 0 0 5.125-2.244l4.353 2.502c-2.25 2.94-5.722 4.67-9.478 4.67C31.346 52.103 26 46.8 26 40.28s5.346-11.824 11.918-11.824zm9.027 7.883h1.802v1.802h1.802v-1.802h1.802v1.802h1.802v1.802H52.35v1.802h1.802v1.802H52.35v1.802h-1.8v-1.802h-1.802v1.802h-1.802v-1.802h-1.802v-1.802h1.802V39.94h-1.802v-1.8h1.802v-1.802zm1.802 3.604v1.802h1.802V39.94h-1.802z" fill="#fff"/></svg>