<svg xmlns="http://www.w3.org/2000/svg" viewBox="0 0 90 90"><circle cx="45" cy="45" r="45" fill="#c92f13"/><path d="M69 40.83h-6A27.32 27.32 0 0 0 61.39 36l4.23-4.24a1 1 0 0 0 0-1.47l-5.9-5.9a1 1 0 0 0-1.47 0L54 28.6A27.32 27.32 0 0 0 49.17 27v-6a1 1 0 0 0-1-1h-6.3a1 1 0 0 0-1.05 1v6A27.32 27.32 0 0 0 36 28.61l-4.24-4.23a1 1 0 0 0-1.47 0l-5.9 5.9a1 1 0 0 0 0 1.47L28.6 36A27.32 27.32 0 0 0 27 40.83h-6a1 1 0 0 0-1 1.05v6.24a1 1 0 0 0 1 1.05h6A27.32 27.32 0 0 0 28.61 54l-4.24 4.24a1.05 1.05 0 0 0 0 1.47l5.9 5.9a1.06 1.06 0 0 0 1.47 0L36 61.4A27.32 27.32 0 0 0 40.83 63v6a1 1 0 0 0 1.05 1h6.25a1 1 0 0 0 1-1v-6A27.32 27.32 0 0 0 54 61.39l4.24 4.23a1 1 0 0 0 1.47 0l5.9-5.9a1 1 0 0 0 0-1.47L61.4 54A27.32 27.32 0 0 0 63 49.17h6a1 1 0 0 0 1-1.05v-6.24a1 1 0 0 0-1-1.05zm-24 19.1A14.94 14.94 0 1 1 59.94 45 15 15 0 0 1 45 59.94z" fill="#f9902c"/><path d="M39.04 44.1h2.17v1.45h-2.17zm2.66-1.92h2.17v1.45H41.7zm-2.66 0h2.17v1.45h-2.17zm4.5 1.92H41.7v1.45h1.07a6.53 6.53 0 0 1 .78-1.45zm5.2-2a5.8 5.8 0 1 0 5.8 5.8 5.8 5.8 0 0 0-5.8-5.8zm2.84 8.62a.27.27 0 0 1-.18.08.23.23 0 0 1-.16-.06l-2.9-2.66a.25.25 0 0 1-.08-.18v-2.66a.24.24 0 1 1 .48 0v2.55l2.82 2.6a.24.24 0 0 1 .02.34zm-4.8-13.45h-1.7v-.73a.25.25 0 0 0-.25-.24H43.4a.24.24 0 0 0-.24.24v.73H39.3v-.73a.25.25 0 0 0-.25-.24H37.6a.24.24 0 0 0-.24.24v.73h-1.7a.24.24 0 0 0-.24.24v2.17H47V37.5a.24.24 0 0 0-.2-.24zm-8 1h-1v-1.5h1zm5.8 0h-1v-1.5h1zm-.46 4.83a6.81 6.81 0 0 1 1.33-1h-1.33zM41.48 46v.72a.24.24 0 1 1-.48 0V46h-2.18v.72a.24.24 0 0 1-.48 0V46h-1.7a.24.24 0 0 1-.24-.25.24.24 0 0 1 .24-.24h1.7V44h-1.7a.23.23 0 0 1-.24-.24.24.24 0 0 1 .24-.24h1.7V42.1h-1.7a.24.24 0 0 1-.24-.24.23.23 0 0 1 .24-.24h1.7v-.73a.24.24 0 0 1 .48 0v.73H41v-.73a.24.24 0 1 1 .48 0v.73h2.18v-.73a.24.24 0 1 1 .48 0v.73h1.7a.24.24 0 0 1 .23.18 6.68 6.68 0 0 1 1-.34v-1.3H35.44v7.5a.24.24 0 0 0 .24.24h6.4a6.49 6.49 0 0 1 .29-1.9z" fill="#fdd337"/></svg>