<?xml version="1.0" encoding="UTF-8"?>
<svg width="120px" height="120px" viewBox="0 0 120 120" version="1.1" xmlns="http://www.w3.org/2000/svg" xmlns:xlink="http://www.w3.org/1999/xlink">
    <title>benefits of sso</title>
    <defs>
        <filter x="-5.7%" y="-5.6%" width="111.4%" height="111.3%" filterUnits="objectBoundingBox" id="filter-1">
            <feOffset dx="0" dy="1" in="SourceAlpha" result="shadowOffsetOuter1"></feOffset>
            <feGaussianBlur stdDeviation="0.5" in="shadowOffsetOuter1" result="shadowBlurOuter1"></feGaussianBlur>
            <feColorMatrix values="0 0 0 0 0   0 0 0 0 0   0 0 0 0 0  0 0 0 0.101210801 0" type="matrix" in="shadowBlurOuter1" result="shadowMatrixOuter1"></feColorMatrix>
            <feMerge>
                <feMergeNode in="shadowMatrixOuter1"></feMergeNode>
                <feMergeNode in="SourceGraphic"></feMergeNode>
            </feMerge>
        </filter>
    </defs>
    <g id="benefits-of-sso" stroke="none" stroke-width="1" fill="none" fill-rule="evenodd">
        <g id="Oval-2" fill="#334155">
            <circle id="Oval" cx="60" cy="60" r="60"></circle>
        </g>
        <g id="Group-14" filter="url(#filter-1)" transform="translate(24.000000, 25.000000)" fill-rule="nonzero">
            <path d="M64.3621575,5.64129953 C60.7262078,2.00352734 55.8920884,0 50.7502841,0 C45.6084797,0 40.7743603,2.00352734 37.1384107,5.64129953 C33.8998182,8.88177757 31.9188535,13.1790719 31.5605807,17.741645 C31.2314131,21.9303595 32.2798983,26.1125564 34.5214251,29.6235828 L1.21410837,62.948172 C-0.404702789,64.567995 -0.404702789,67.2034488 1.21410837,68.8232718 C1.99828932,69.6077371 3.04109198,70.0401152 4.15014394,70.0401152 C5.2591959,70.0401152 6.30172137,69.6078758 7.08617951,68.8232718 L10.6641957,65.243187 L15.2014406,69.7831567 C15.9856216,70.5676219 17.0284242,71 18.1374762,71 C19.2465281,71 20.2890536,70.5677606 21.0733732,69.783018 C22.6921843,68.163195 22.6920457,65.5277412 21.0733732,63.9080568 L18.671074,61.5046006 L21.3401721,58.8340628 L23.7423326,61.2373804 C24.5265136,62.022123 25.5693162,62.4543624 26.6783682,62.4543624 C27.7874201,62.4543624 28.8299456,62.0222617 29.613988,61.2375191 C30.3981689,60.4530538 30.8303139,59.4096887 30.8303139,58.3000385 C30.8303139,57.1903883 30.3983075,56.1470232 29.6141266,55.3624192 L25.0764658,50.8227269 L40.3922488,35.4988213 C43.4818497,37.4783584 47.0428185,38.5200595 50.7513929,38.5203369 C55.8930586,38.5201982 60.7263464,36.5170869 64.3617417,32.8797307 C67.9975527,29.2418198 70,24.405093 70,19.2605151 C70,14.1159373 67.9979685,9.27921039 64.3621575,5.64129953 Z M62.7605323,31.277519 C59.5527083,34.4872119 55.2887764,36.2544429 50.753056,36.2544429 C47.1937504,36.2541655 43.7903663,35.1685055 40.9094923,33.1142244 C40.4590525,32.7931996 39.8429895,32.8443694 39.451592,33.2357007 L22.6745825,50.0216211 C22.4622521,50.2342046 22.3430589,50.5222255 22.3430589,50.8228656 C22.3430589,51.1235056 22.4623907,51.4113879 22.6745825,51.6241101 L28.0125014,56.9649083 C28.3689725,57.321433 28.5653642,57.7956899 28.5653642,58.3001771 C28.5653642,58.8045258 28.3689725,59.2787827 28.0125014,59.635446 C27.6561689,59.9921094 27.1820291,60.1884684 26.678091,60.1884684 C26.1740143,60.1884684 25.6998744,59.9921094 25.3434034,59.6353074 L22.1404303,56.4307453 C21.6983063,55.9883828 20.9813448,55.9883828 20.5390823,56.4307453 L16.2687749,60.703356 C15.8265124,61.1459958 15.8265124,61.8632053 16.2687749,62.3057064 L19.471748,65.5104072 C20.2076973,66.2464761 20.2076973,67.4445987 19.471748,68.1808063 C19.1154155,68.5374697 18.6412757,68.7339673 18.1373376,68.7339673 C17.6332609,68.7339673 17.159121,68.5374697 16.8027886,68.1808063 L11.4648696,62.8398695 C11.2436691,62.6186882 10.9540017,62.508167 10.6640571,62.508167 C10.3743897,62.508167 10.0844451,62.6186882 9.8632445,62.8398695 L5.48469296,67.2210601 C5.12822188,67.5777235 4.65408207,67.7742211 4.15000534,67.7742211 C3.64592862,67.7742211 3.17178881,67.5777235 2.81545632,67.2210601 C2.07950707,66.4849912 2.07950707,65.2868686 2.81545632,64.550661 L36.7826326,30.5653016 C37.1736143,30.1738317 37.2250337,29.5572977 36.9040434,29.106615 C32.0781013,22.3309818 32.8500857,13.1362224 38.7396201,7.24337257 C41.9478598,4.03354095 46.2131777,2.26589401 50.7502841,2.26589401 C55.2872518,2.26589401 59.5527083,4.03367962 62.7606709,7.24364991 C65.9689107,10.4534815 67.7357433,14.7211002 67.7357433,19.2605151 C67.7357433,23.8000687 65.9687721,28.0676874 62.7605323,31.277519 Z" id="Shape" fill="#FFFFFF"></path>
            <path d="M62.863094,18.6245671 C62.238438,18.5976648 61.7109384,19.0853729 61.6854366,19.7103658 C61.5731731,22.4649385 60.4382036,25.0556015 58.4902249,27.0046309 C56.4229144,29.0734725 53.6742617,30.2126597 50.7502841,30.2126597 C47.8265836,30.2126597 45.0777924,29.0734725 43.0102046,27.0047695 C38.7422534,22.7345161 38.7422534,15.7865141 43.0102046,11.5163994 C45.0776538,9.44755772 47.826445,8.30837049 50.7502841,8.30837049 C53.6742617,8.30837049 56.4229144,9.44755772 58.4903635,11.5162607 C59.6563788,12.6827662 60.5242722,14.0574179 61.069928,15.6022195 C61.2781005,16.1921285 61.9252091,16.5013662 62.5148001,16.2929428 C63.1043911,16.0843807 63.4136006,15.4372003 63.205151,14.8472913 C62.5459844,12.9810489 61.4984694,11.3214271 60.0918501,9.914049 C57.5965524,7.41754411 54.2790984,6.04261515 50.7502841,6.04261515 C47.2214698,6.04261515 43.9040157,7.41754411 41.4087181,9.914049 C36.2577663,15.0677792 36.2577663,23.4535284 41.4087181,28.6072586 C43.9040157,31.1037635 47.2214698,32.4786924 50.7502841,32.4786924 C54.2790984,32.4786924 57.596691,31.1037635 60.0918501,28.6072586 C62.4431455,26.2546948 63.8127596,23.1280662 63.9485845,19.8029984 C63.9738091,19.1775895 63.4880272,18.6500827 62.863094,18.6245671 Z" id="Path" fill="#F58320"></path>
        </g>
    </g>
</svg>