<svg xmlns="http://www.w3.org/2000/svg" viewBox="0 0 90 90"><circle cx="45" cy="45" r="45" fill="#147894"/><path d="M51.44 40.27l-3.2-3.1a.26.26 0 0 0-.19-.07h-5.87a.26.26 0 0 0-.27.25V49.2a.26.26 0 0 0 .27.26h9.07a.26.26 0 0 0 .27-.26v-8.75a.25.25 0 0 0-.08-.18zm-5.87 6.18a.25.25 0 0 1 0 .36.27.27 0 0 1-.38 0l-2.13-2.06a.24.24 0 0 1 0-.36l2.13-2.06a.28.28 0 0 1 .38 0 .25.25 0 0 1 0 .36l-2 1.88zm4.8-1.7l-2.14 2.06a.27.27 0 0 1-.38 0 .25.25 0 0 1 0-.36l2-1.88-2-1.88a.25.25 0 0 1 0-.36.28.28 0 0 1 .38 0l2.14 2.06a.25.25 0 0 1 0 .36zm-2.33-4.3v-3.1l3.2 3.1zM39.5 51.52V39.85h-.7a.34.34 0 0 0-.34.34v12.36a.34.34 0 0 0 .34.34h9.6a.35.35 0 0 0 .35-.34v-.7h-8.93a.34.34 0 0 1-.34-.34zm2.07-1.37a.35.35 0 0 1-.35-.34V38.48h-.68a.35.35 0 0 0-.35.34v12.36h9.62a.35.35 0 0 0 .34-.35v-.68z" fill="#13ebf2"/><path d="M45.94 22l3.28.43-2.33 2.35.6 3.25-2.95-1.5-2.9 1.6.5-3.27-2.4-2.28 3.26-.52 1.42-3 1.5 2.94zm0 42.84l3.28.42-2.33 2.35.6 3.25-2.95-1.5-2.9 1.58.5-3.27-2.4-2.27 3.26-.53 1.42-3 1.5 2.95zM61 28.1l3.28.42-2.33 2.35.6 3.25-2.96-1.5-2.9 1.58.5-3.27-2.4-2.27 3.27-.53 1.42-3L61 28.1zm2.14 28.5l3.28.42-2.33 2.35.6 3.25-2.96-1.5-2.9 1.58.5-3.27-2.4-2.27 3.27-.53 1.42-3 1.5 2.95zm-33.37 0l3.3.42-2.34 2.35.6 3.25-2.95-1.5-2.9 1.58.5-3.27-2.4-2.27 3.26-.53 1.42-3 1.5 2.95zm1.8-28.5l3.28.42-2.33 2.35.6 3.25-2.96-1.5-2.9 1.58.5-3.27-2.4-2.27 3.27-.53 1.42-3 1.5 2.95zm-6.54 13.7l3.28.43-2.34 2.35.6 3.25-2.95-1.5-2.9 1.6.5-3.27-2.4-2.28 3.27-.52 1.4-3L25 41.8zm42.84 0l3.28.43-2.33 2.35.6 3.25-2.96-1.5-2.9 1.6.5-3.27-2.4-2.28 3.27-.52 1.42-3 1.5 2.94z" fill="#02b6d3"/></svg>