<?xml version="1.0" encoding="UTF-8"?>
<svg width="120px" height="120px" viewBox="0 0 120 120" version="1.1" xmlns="http://www.w3.org/2000/svg" xmlns:xlink="http://www.w3.org/1999/xlink">
    <title>oauth-make-users-lives-easier</title>
    <defs>
        <path d="M47.9297846,42.7731586 L47.9297846,46.8162385 L47.2964611,46.0897769 C46.9184265,45.6563465 46.2586503,45.6093614 45.8223919,45.984686 C45.3861334,46.3598716 45.3388266,47.0152996 45.7165813,47.448591 L48.1847936,50.2793725 C48.3832583,50.5070694 48.671578,50.6378769 48.9747335,50.6378769 C49.277889,50.6378769 49.5662087,50.5070694 49.7645334,50.2795115 L52.2328856,47.44873 C52.6107803,47.0154386 52.5633335,46.3600106 52.1272151,45.984825 C51.6909566,45.6096395 51.0310405,45.6566245 50.6532858,46.0899159 L50.0196823,46.8165165 L50.0196823,41.7354556 C50.0196823,41.162321 49.5519326,40.6976136 48.9747335,40.6976136 L38.07709,40.6976136 C37.9607825,40.4537916 37.8040261,40.2245656 37.6012226,40.0231414 L30.8059761,33.2741102 C30.6031726,33.072686 30.372237,32.9169958 30.1267454,32.8014792 L30.1267454,31.3858104 L32.3399487,28.8475041 C32.7177034,28.4142127 32.6702566,27.7587848 32.2341381,27.3835992 C31.7977397,27.0084136 31.1379636,27.0553987 30.7600689,27.4886901 L30.1267454,28.2151517 L30.1267454,25.4203735 L42.1894242,25.4203735 C43.0666997,25.4203735 43.7803609,24.7115661 43.7803609,23.840396 L43.7803609,12.4074528 C43.7803609,11.5361437 43.0666997,10.8273363 42.1894242,10.8273363 L26.1585711,10.8273363 C25.5813719,10.8273363 25.1136222,11.2920438 25.1136222,11.8651783 C25.1136222,12.4383129 25.5813719,12.9030203 26.1585711,12.9030203 L41.6904632,12.9030203 L41.6904632,23.3446895 L16.4732698,23.3446895 L16.4732698,12.9028813 L20.753977,12.9028813 C21.3311762,12.9028813 21.7989259,12.4381739 21.7989259,11.8650393 C21.7989259,11.2919047 21.3311762,10.8273363 20.753977,10.8273363 L15.9743089,10.8273363 C15.0970333,10.8273363 14.3833722,11.5361437 14.3833722,12.4074528 L14.3833722,23.840257 C14.3833722,24.7115661 15.0970333,25.4202345 15.9743089,25.4202345 L28.0369877,25.4202345 L28.0369877,28.2150127 L27.4036641,27.4885511 C27.0256295,27.0551207 26.3658533,27.0081356 25.9295949,27.3834602 C25.4933364,27.7586458 25.4460296,28.4140737 25.8237844,28.8473651 L28.0369877,31.3856714 L28.0369877,32.8013402 C27.7914961,32.9168568 27.5605604,33.072547 27.3577569,33.2739712 L20.5625104,40.0230024 C19.6118953,40.9671523 19.6118953,42.5034809 20.5625104,43.4476308 L27.3577569,50.196662 C27.5605604,50.3980862 27.7914961,50.5537764 28.0369877,50.669293 L28.0369877,61.13793 L27.4036641,60.4114684 C27.0256295,59.978038 26.3658533,59.9310529 25.9295949,60.3063775 C25.4933364,60.6815631 25.4460296,61.336991 25.8237844,61.7702824 L28.2919966,64.6010639 C28.4904613,64.8286218 28.778781,64.9594294 29.0819365,64.9594294 C29.385092,64.9594294 29.6734117,64.8286218 29.8718764,64.6010639 L32.3400886,61.7702824 C32.7178434,61.336991 32.6703966,60.6815631 32.2342781,60.3063775 C31.7978797,59.9311919 31.1381036,59.978177 30.7602089,60.4114684 L30.1268853,61.13793 L30.1268853,50.669293 C30.3723769,50.5537764 30.6033126,50.3980862 30.8061161,50.196662 L37.6013626,43.4476308 C37.8041661,43.2462066 37.9609224,43.0169806 38.07723,42.7731586 L47.9297846,42.7731586 Z M36.1233744,41.9799726 L29.3281279,48.7290039 C29.1923657,48.8638427 28.9713673,48.8638427 28.8356051,48.7290039 L22.0403586,41.9799726 C21.9514833,41.8918409 21.938327,41.7888351 21.938327,41.7353166 C21.938327,41.6817981 21.9514833,41.5787923 22.0403586,41.4906606 L28.8356051,34.7416293 C28.9713673,34.6067905 29.1923657,34.6067905 29.3281279,34.7416293 L36.1233744,41.4906606 C36.2122497,41.5787923 36.225406,41.6817981 36.225406,41.7353166 C36.225406,41.7888351 36.2122497,41.8918409 36.1233744,41.9799726 Z" id="path-1"></path>
        <filter x="-5.2%" y="-1.8%" width="110.5%" height="107.4%" filterUnits="objectBoundingBox" id="filter-2">
            <feOffset dx="0" dy="1" in="SourceAlpha" result="shadowOffsetOuter1"></feOffset>
            <feGaussianBlur stdDeviation="0.5" in="shadowOffsetOuter1" result="shadowBlurOuter1"></feGaussianBlur>
            <feColorMatrix values="0 0 0 0 0   0 0 0 0 0   0 0 0 0 0  0 0 0 0.2 0" type="matrix" in="shadowBlurOuter1"></feColorMatrix>
        </filter>
        <path d="M54.7506441,52.6722753 L43.1988229,52.6722753 C40.8557358,52.6722753 38.949467,54.5655793 38.949467,56.8927308 L38.949467,61.7365032 C38.949467,64.0636547 40.8557358,65.9569588 43.1988229,65.9569588 L54.7506441,65.9569588 C57.0937312,65.9569588 59,64.0636547 59,61.7365032 L59,56.8927308 C59,54.5655793 57.0937312,52.6722753 54.7506441,52.6722753 Z M56.9102423,61.7365032 C56.9102423,62.9191927 55.9415722,63.8812747 54.750784,63.8812747 L43.1989629,63.8812747 C42.0081747,63.8812747 41.0395046,62.9191927 41.0395046,61.7365032 L41.0395046,56.8927308 C41.0395046,55.7100413 42.0081747,54.7479593 43.1989629,54.7479593 L54.750784,54.7479593 C55.9415722,54.7479593 56.9102423,55.7100413 56.9102423,56.8927308 L56.9102423,61.7365032 Z" id="path-3"></path>
        <filter x="-10.0%" y="-7.5%" width="119.9%" height="130.1%" filterUnits="objectBoundingBox" id="filter-4">
            <feOffset dx="0" dy="1" in="SourceAlpha" result="shadowOffsetOuter1"></feOffset>
            <feGaussianBlur stdDeviation="0.5" in="shadowOffsetOuter1" result="shadowBlurOuter1"></feGaussianBlur>
            <feColorMatrix values="0 0 0 0 0   0 0 0 0 0   0 0 0 0 0  0 0 0 0.2 0" type="matrix" in="shadowBlurOuter1"></feColorMatrix>
        </filter>
        <path d="M15.8013171,52.6722753 L4.24935594,52.6722753 C1.90626883,52.6722753 0,54.5655793 0,56.8927308 L0,61.7365032 C0,64.0636547 1.90626883,65.9569588 4.24935594,65.9569588 L15.8013171,65.9569588 C18.1444042,65.9569588 20.050673,64.0636547 20.050673,61.7365032 L20.050673,56.8927308 C20.050673,54.5655793 18.1442642,52.6722753 15.8013171,52.6722753 Z M17.9607753,61.7365032 C17.9607753,62.9191927 16.9921053,63.8812747 15.8013171,63.8812747 L4.24935594,63.8812747 C3.05856775,63.8812747 2.08989766,62.9191927 2.08989766,61.7365032 L2.08989766,56.8927308 C2.08989766,55.7100413 3.05856775,54.7479593 4.24935594,54.7479593 L15.8013171,54.7479593 C16.9921053,54.7479593 17.9607753,55.7100413 17.9607753,56.8927308 L17.9607753,61.7365032 Z" id="path-5"></path>
        <filter x="-10.0%" y="-7.5%" width="119.9%" height="130.1%" filterUnits="objectBoundingBox" id="filter-6">
            <feOffset dx="0" dy="1" in="SourceAlpha" result="shadowOffsetOuter1"></feOffset>
            <feGaussianBlur stdDeviation="0.5" in="shadowOffsetOuter1" result="shadowBlurOuter1"></feGaussianBlur>
            <feColorMatrix values="0 0 0 0 0   0 0 0 0 0   0 0 0 0 0  0 0 0 0.2 0" type="matrix" in="shadowBlurOuter1"></feColorMatrix>
        </filter>
        <path d="M29.0819365,66.8826204 C24.8854858,66.8826204 21.4714171,70.2734696 21.4714171,74.4413797 C21.4714171,78.6092898 24.8854858,82 29.0819365,82 C30.2340954,82 31.3414669,81.7504786 32.3732594,81.2582474 C32.8933545,81.0101161 33.1125334,80.3901355 32.862843,79.8734387 C32.6128726,79.3567418 31.9883666,79.1390535 31.4685515,79.3871848 C30.7212997,79.7436041 29.9184834,79.924316 29.0819365,79.924316 C26.0377847,79.924316 23.5613148,77.4645498 23.5613148,74.4412407 C23.5613148,71.4179316 26.0377847,68.9581654 29.0819365,68.9581654 C32.1260883,68.9581654 34.6025582,71.4179316 34.6025582,74.4412407 C34.6025582,75.0670597 34.4975875,75.6806459 34.2903052,76.2647622 C34.0984187,76.8053686 34.384219,77.3981035 34.9285274,77.5885459 C35.4724158,77.7789884 36.0694895,77.4952708 36.261236,76.9546644 C36.5473163,76.1482726 36.6924559,75.3026801 36.6924559,74.4412407 C36.6924559,70.2734696 33.2782472,66.8826204 29.0819365,66.8826204 L29.0819365,66.8826204 Z" id="path-7"></path>
        <filter x="-13.1%" y="-6.6%" width="126.3%" height="126.5%" filterUnits="objectBoundingBox" id="filter-8">
            <feOffset dx="0" dy="1" in="SourceAlpha" result="shadowOffsetOuter1"></feOffset>
            <feGaussianBlur stdDeviation="0.5" in="shadowOffsetOuter1" result="shadowBlurOuter1"></feGaussianBlur>
            <feColorMatrix values="0 0 0 0 0   0 0 0 0 0   0 0 0 0 0  0 0 0 0.2 0" type="matrix" in="shadowBlurOuter1"></feColorMatrix>
        </filter>
        <path d="M9.14939058,50.2792334 C9.34785528,50.5069304 9.63617494,50.6377379 9.93933046,50.6377379 C10.242486,50.6377379 10.5308057,50.5069304 10.7291304,50.2793725 L13.1974826,47.448591 C13.5753773,47.0152996 13.5279305,46.3598716 13.091812,45.984686 C12.6555536,45.6095005 11.9956375,45.6564855 11.6178827,46.0897769 L10.9842793,46.8163775 L10.9842793,42.7731586 L15.4221627,42.7731586 C15.9993619,42.7731586 16.4671115,42.3084511 16.4671115,41.7353166 C16.4671115,41.162182 15.9993619,40.6974746 15.4221627,40.6974746 L9.93933046,40.6974746 C9.3621313,40.6974746 8.89438163,41.162182 8.89438163,41.7353166 L8.89438163,46.8162385 L8.26105811,46.0897769 C7.88302344,45.6563465 7.22324728,45.6093614 6.78698885,45.984686 C6.35073041,46.3598716 6.30342359,47.0152996 6.68117833,47.448591 L9.14939058,50.2792334 Z" id="path-9"></path>
        <filter x="-19.9%" y="-10.1%" width="139.8%" height="140.2%" filterUnits="objectBoundingBox" id="filter-10">
            <feOffset dx="0" dy="1" in="SourceAlpha" result="shadowOffsetOuter1"></feOffset>
            <feGaussianBlur stdDeviation="0.5" in="shadowOffsetOuter1" result="shadowBlurOuter1"></feGaussianBlur>
            <feColorMatrix values="0 0 0 0 0   0 0 0 0 0   0 0 0 0 0  0 0 0 0.2 0" type="matrix" in="shadowBlurOuter1"></feColorMatrix>
        </filter>
        <filter x="-19.7%" y="-13.8%" width="139.5%" height="131.0%" filterUnits="objectBoundingBox" id="filter-11">
            <feOffset dx="0" dy="1" in="SourceAlpha" result="shadowOffsetOuter1"></feOffset>
            <feGaussianBlur stdDeviation="0.5" in="shadowOffsetOuter1" result="shadowBlurOuter1"></feGaussianBlur>
            <feColorMatrix values="0 0 0 0 0   0 0 0 0 0   0 0 0 0 0  0 0 0 0.2 0" type="matrix" in="shadowBlurOuter1" result="shadowMatrixOuter1"></feColorMatrix>
            <feMerge>
                <feMergeNode in="shadowMatrixOuter1"></feMergeNode>
                <feMergeNode in="SourceGraphic"></feMergeNode>
            </feMerge>
        </filter>
    </defs>
    <g id="oauth-make-users-lives-easier" stroke="none" stroke-width="1" fill="none" fill-rule="evenodd">
        <circle id="Oval" fill="#334155" cx="60" cy="60" r="60"></circle>
        <g id="Group-3" transform="translate(31.000000, 18.000000)">
            <g id="Shape" fill-rule="nonzero">
                <use fill="black" fill-opacity="1" filter="url(#filter-2)" xlink:href="#path-1"></use>
                <use fill="#FFFFFF" xlink:href="#path-1"></use>
            </g>
            <g id="Shape" fill-rule="nonzero">
                <use fill="black" fill-opacity="1" filter="url(#filter-4)" xlink:href="#path-3"></use>
                <use fill="#FFFFFF" xlink:href="#path-3"></use>
            </g>
            <g id="Shape" fill-rule="nonzero">
                <use fill="black" fill-opacity="1" filter="url(#filter-6)" xlink:href="#path-5"></use>
                <use fill="#FFFFFF" xlink:href="#path-5"></use>
            </g>
            <g id="Path" fill-rule="nonzero">
                <use fill="black" fill-opacity="1" filter="url(#filter-8)" xlink:href="#path-7"></use>
                <use fill="#F58320" xlink:href="#path-7"></use>
            </g>
            <g id="Path" fill-rule="nonzero">
                <use fill="black" fill-opacity="1" filter="url(#filter-10)" xlink:href="#path-9"></use>
                <use fill="#F58320" xlink:href="#path-9"></use>
            </g>
            <rect id="Rectangle" fill="#334155" x="11.9752475" y="7.93413859" width="34.4653465" height="24.9679487"></rect>
            <path d="M30.6398142,33.5620797 C30.6398142,32.7218262 29.9315361,32.5432626 29.0818665,32.5432626 C28.2321969,32.5432626 27.5628885,32.7218262 27.5628885,33.5620797 C27.5628885,34.4023331 30.6398142,34.4023331 30.6398142,33.5620797 Z" id="Oval" fill="#FFFFFF"></path>
            <g id="Group-2" filter="url(#filter-11)" transform="translate(15.772277, 0.000000)" stroke="#F58320" stroke-width="2.0328">
                <path d="M12.7054455,14.3213287 C19.7224694,14.3213287 25.4108911,20.0097504 25.4108911,27.0267742 L25.4108911,29.076637 L25.4108911,29.076637 L0,29.076637 L0,27.0267742 C-8.59337575e-16,20.0097504 5.68842173,14.3213287 12.7054455,14.3213287 Z" id="Rectangle" stroke-linejoin="round"></path>
                <ellipse id="Oval" cx="12.7054455" cy="7.52231405" rx="6.57765941" ry="6.50591405"></ellipse>
            </g>
        </g>
    </g>
</svg>