<svg xmlns="http://www.w3.org/2000/svg" width="120" height="120" fill-rule="evenodd"><circle fill="#c92f13" cx="60" cy="60" r="60"/><path d="M76.333 59.667c2.248 0 4.925 1.17 7 3.045V45.667a4.6 4.6 0 0 0-.696-2.42L58.28 58.325a1.16 1.16 0 0 1-1.227 0L32.697 43.247c-.433.708-.697 1.53-.697 2.42v25.667C32 73.907 34.093 76 36.667 76h25.545v-4.384c0-1.377 1.087-2.173 2.174-2.173h1.65c0-5.4 5.952-9.776 10.297-9.776m4.553-18.08A4.6 4.6 0 0 0 78.667 41h-42c-.8 0-1.556.224-2.22.587l23.22 14.373 23.22-14.373z" fill="#f9902c"/><path d="M69.897 71.615h0v-1.358c0-3.13 3.3-6.438 6.437-6.438s6.436 3.3 6.436 6.438v1.358H69.897zm7.8 8.5c-.063.066-.135.12-.207.177v4.15a1.17 1.17 0 0 1-1.167 1.167 1.17 1.17 0 0 1-1.167-1.167v-4.156c-.436-.343-.728-.864-.74-1.456a1.91 1.91 0 0 1 1.87-1.944h0c1.07 0 1.923.84 1.943 1.87a1.89 1.89 0 0 1-.533 1.358h0zm9.127-8.772h-1.73v-1.076c0-4.426-4.344-8.77-8.77-8.77s-8.77 4.345-8.77 8.77v1.076h-1.73a1.17 1.17 0 0 0-1.167 1.167v16.333c0 .645.523 1.167 1.167 1.167h21c.644 0 1.167-.522 1.167-1.167V72.5a1.17 1.17 0 0 0-1.167-1.167h0z" fill="#fdd337"/></svg>