<?xml version="1.0" encoding="utf-8"?>
<!-- Generator: Adobe Illustrator 24.0.1, SVG Export Plug-In . SVG Version: 6.00 Build 0)  -->
<svg version="1.1" id="Layer_1" xmlns="http://www.w3.org/2000/svg" xmlns:xlink="http://www.w3.org/1999/xlink" x="0px" y="0px"
	 viewBox="0 0 90 90" style="enable-background:new 0 0 90 90;" xml:space="preserve" width="90" height="90">
<style type="text/css">
	.st0{fill:#59558E;}
	.st1{fill:#C8C8FC;}
	.st2{fill:#8989CE;}
</style>
<g>
	<circle class="st0" cx="45" cy="45" r="45"/>
	<g>
		<g>
			<path class="st1" d="M67.3,53c-5.4,0-9.9,4.4-9.9,9.9s4.4,9.9,9.9,9.9c5.4,0,9.9-4.4,9.9-9.9S72.8,53,67.3,53z M73.1,62.9
				c0,0.1,0,0.2-0.1,0.3c0,0.1-0.1,0.2-0.2,0.3l0,0l-3.7,3.7c-0.2,0.2-0.4,0.2-0.6,0.2s-0.4-0.1-0.6-0.2c-0.3-0.3-0.3-0.8,0-1.2
				l2.3-2.3h-7.9c-0.5,0-0.8-0.4-0.8-0.8s0.4-0.8,0.8-0.8h7.9L68,59.7c-0.3-0.3-0.3-0.8,0-1.2c0.3-0.3,0.8-0.3,1.2,0l3.7,3.7
				c0,0,0,0,0,0c0.1,0.1,0.1,0.2,0.2,0.3C73.1,62.6,73.1,62.8,73.1,62.9C73.1,62.9,73.1,62.9,73.1,62.9
				C73.1,62.9,73.1,62.9,73.1,62.9z"/>
			<path class="st2" d="M73.1,62.9C73.1,62.9,73.1,62.9,73.1,62.9C73.1,62.9,73.1,62.9,73.1,62.9C73.1,62.9,73.1,62.9,73.1,62.9z"/>
			<path class="st2" d="M72.6,63.6c0.1,0,0.2-0.1,0.3-0.2c0,0,0,0,0,0C72.8,63.5,72.7,63.6,72.6,63.6z"/>
			<polygon class="st2" points="72.8,63.4 72.9,63.4 72.8,63.4 			"/>
			<polygon class="st2" points="72.9,62.3 72.9,62.3 72.8,62.3 			"/>
			<path class="st2" d="M72.9,63.4c0.1-0.1,0.1-0.2,0.2-0.3C73,63.3,72.9,63.4,72.9,63.4C72.9,63.4,72.9,63.4,72.9,63.4z"/>
			<path class="st2" d="M72.3,62c0.1,0,0.2,0,0.3,0.1C72.5,62.1,72.4,62,72.3,62L72.3,62z"/>
		</g>
		<path class="st2" d="M45,36.5c10.2,0,19.3-2.8,22.3-5.8v-2.1c0-5.6-9.8-10.1-22.3-10.1c-12.5,0-22.3,4.4-22.3,10.1
			C22.6,32.3,32.6,36.5,45,36.5z"/>
		<path class="st2" d="M45,46.6c10.2,0,19.3-2.8,22.3-5.8l0-7.3c-4.8,3.2-13.9,5.2-22.3,5.2c-8.9,0-18.2-2.3-22.3-5.9v5.9
			C22.6,42.3,32.6,46.6,45,46.6z"/>
		<path class="st2" d="M67.3,49.8C67.3,49.8,67.3,49.8,67.3,49.8l0-6.2c-4.8,3.2-13.9,5.2-22.3,5.2c-8.9,0-18.2-2.3-22.3-5.9v5.9
			c0,3.5,10,7.8,22.3,7.8c4.2,0,8.2-0.5,11.6-1.2C58.9,52,62.9,49.8,67.3,49.8z"/>
		<path class="st2" d="M55.2,58c-3.3,0.6-6.8,0.9-10.2,0.9c-8.9,0-18.2-2.3-22.3-5.9v4.8c0,5.6,9.8,10.1,22.3,10.1
			c3.6,0,6.9-0.4,9.9-1c-0.4-1.2-0.6-2.6-0.6-4C54.3,61.1,54.6,59.5,55.2,58z"/>
	</g>
</g>
</svg>
