<svg xmlns="http://www.w3.org/2000/svg" width="90" height="90"><circle cx="45" cy="45" r="45" fill="#147894"/><g fill="#13ebf2"><circle cx="27.5" cy="37.8" r="1.5"/><circle cx="33.3" cy="37.8" r="1.5"/><circle cx="39.1" cy="37.8" r="1.5"/><circle cx="44.9" cy="37.8" r="1.5"/><circle cx="50.7" cy="37.8" r="1.5"/><circle cx="56.5" cy="37.8" r="1.5"/></g><path d="M20.4 33.1h43.2c.5 0 .8.4.8.8v7.9c0 .5-.4.8-.8.8H20.4c-.5 0-.8-.4-.8-.8v-7.9c0-.4.3-.8.8-.8z" fill="none" stroke="#02b6d3" stroke-width="2" stroke-miterlimit="10"/><path d="M21.9 31.8h40.3v-2.2c0-1.9-1.5-3.5-3.4-3.5H25.2c-1.9 0-3.4 1.6-3.4 3.5v2.2zM59.4 44H21.9v5.7h28.6c1.5-3.4 4.9-5.7 8.9-5.7zm-8.1 15.5h-8.5v-1.7h7.5a10.57 10.57 0 0 1-.8-4c0-1 .1-1.9.4-2.7h-28v3.2c0 1.9 1.5 3.5 3.3 3.5h15.9v1.7H30.3c-.5 0-.8.4-.8.8s.4.8.8.8h22.5a4.63 4.63 0 0 1-1.5-1.6zm-11-5.8h0c0-.9.7-1.7 1.7-1.7.9 0 1.7.8 1.7 1.7s-.7 1.7-1.7 1.7c-.9-.1-1.7-.8-1.7-1.7z" fill="#02b6d3"/><path d="M59.3 59.6c-3.2 0-5.8-2.6-5.8-5.8s2.6-5.8 5.8-5.8 5.8 2.6 5.8 5.8-2.6 5.8-5.8 5.8h0zm11.5 4.5l-5.6-5.6a7.62 7.62 0 0 0 1.6-4.7c0-4.2-3.4-7.5-7.5-7.5s-7.5 3.4-7.5 7.5 3.4 7.5 7.5 7.5a7.62 7.62 0 0 0 4.7-1.6l5.6 5.6c.3.3.9.3 1.2 0s.3-.9 0-1.2h0z" fill-rule="evenodd" fill="#13ebf2"/></svg>