<?xml version="1.0" encoding="utf-8"?>
<!-- Generator: Adobe Illustrator 24.0.1, SVG Export Plug-In . SVG Version: 6.00 Build 0)  -->
<svg version="1.1" id="Layer_1" xmlns="http://www.w3.org/2000/svg" xmlns:xlink="http://www.w3.org/1999/xlink" x="0px" y="0px"
	 viewBox="0 0 90 90" style="enable-background:new 0 0 90 90;" xml:space="preserve" width="90" height="90">
<style type="text/css">
	.st0{fill:#147894;}
	.st1{fill:#13EBF2;}
	.st2{fill:none;stroke:#02B6D3;stroke-width:2;stroke-miterlimit:10;}
	.st3{fill:none;}
	.st4{fill:#02B6D3;}
	.st5{fill-rule:evenodd;clip-rule:evenodd;fill:#13EBF2;}
</style>
<circle class="st0" cx="45" cy="45" r="45"/>
<g>
	<circle class="st1" cx="27.5" cy="37.8" r="1.5"/>
	<circle class="st1" cx="33.3" cy="37.8" r="1.5"/>
	<circle class="st1" cx="39.1" cy="37.8" r="1.5"/>
	<circle class="st1" cx="44.9" cy="37.8" r="1.5"/>
	<circle class="st1" cx="50.7" cy="37.8" r="1.5"/>
	<circle class="st1" cx="56.5" cy="37.8" r="1.5"/>
</g>
<path class="st2" d="M20.4,33.1h43.2c0.5,0,0.8,0.4,0.8,0.8v7.9c0,0.5-0.4,0.8-0.8,0.8H20.4c-0.5,0-0.8-0.4-0.8-0.8v-7.9
	C19.6,33.5,19.9,33.1,20.4,33.1z"/>
<path class="st3" d="M43.7,53.7c0-0.9-0.8-1.7-1.7-1.7c-0.9,0-1.7,0.8-1.7,1.7h0c0,0.9,0.8,1.7,1.7,1.7
	C42.9,55.3,43.7,54.6,43.7,53.7z"/>
<path class="st3" d="M42.8,59.5h8.5c-0.4-0.5-0.7-1.1-0.9-1.7h-7.5V59.5z"/>
<path class="st3" d="M59.4,46.3c-4.2,0-7.6,3.4-7.6,7.6c0,4.2,3.4,7.6,7.6,7.6c4.2,0,7.6-3.4,7.6-7.6C67,49.7,63.6,46.3,59.4,46.3z"
	/>
<path class="st4" d="M21.9,31.8h40.3v-2.2c0-1.9-1.5-3.5-3.4-3.5H25.2c-1.9,0-3.4,1.6-3.4,3.5c0,0,0,0,0,0V31.8z"/>
<path class="st4" d="M59.4,44H21.9v5.7h28.6C52,46.3,55.4,44,59.4,44z"/>
<path class="st4" d="M51.3,59.5h-8.5v-1.7h7.5c-0.5-1.2-0.8-2.6-0.8-4c0-1,0.1-1.9,0.4-2.7h-28v3.2c0,1.9,1.5,3.5,3.3,3.5h15.9v1.7
	H30.3c-0.5,0-0.8,0.4-0.8,0.8s0.4,0.8,0.8,0.8h22.5C52.2,60.7,51.7,60.2,51.3,59.5z M40.3,53.7L40.3,53.7c0-0.9,0.7-1.7,1.7-1.7
	c0.9,0,1.7,0.8,1.7,1.7c0,0.9-0.7,1.7-1.7,1.7C41.1,55.3,40.3,54.6,40.3,53.7z"/>
<path class="st5" d="M59.3,59.6c-3.2,0-5.8-2.6-5.8-5.8s2.6-5.8,5.8-5.8s5.8,2.6,5.8,5.8S62.5,59.6,59.3,59.6L59.3,59.6z M70.8,64.1
	l-5.6-5.6c1-1.3,1.6-2.9,1.6-4.7c0-4.2-3.4-7.5-7.5-7.5s-7.5,3.4-7.5,7.5s3.4,7.5,7.5,7.5c1.8,0,3.4-0.6,4.7-1.6l5.6,5.6
	c0.3,0.3,0.9,0.3,1.2,0c0,0,0,0,0,0C71.1,65,71.1,64.4,70.8,64.1L70.8,64.1z"/>
</svg>
