<svg xmlns="http://www.w3.org/2000/svg" viewBox="0 0 90 90"><circle cx="45" cy="45" r="45" fill="#147894"/><path d="M37 21v12h.8c4.57 0 8 2.07 8.84 5.27A8 8 0 0 1 46.8 41H52v9.5l9.1-9.5H69V21zm11.17 10.17H46V29h2.17zm6.9 0h-2.16V29h2.16zm6.92 0h-2.17V29H62z" fill="#02b6d3"/><path d="M52.9 62.6c-.86-2-7.4-4.84-10.9-6.26h0v-2.8a3.47 3.47 0 0 0 .55-.58h0l.24-.36a.61.61 0 0 1 .07-.1l.2-.38a1 1 0 0 0 .07-.15 4.17 4.17 0 0 0 .19-.47.5.5 0 0 1 .05-.13c.07-.22.13-.46.2-.7v-.16a6.25 6.25 0 0 0 .12-.65v-.32c0-.25.06-.5.07-.8a1.9 1.9 0 0 0 .4-.35.39.39 0 0 0 .08-.1 2.62 2.62 0 0 0 .33-.49h0a.36.36 0 0 0 0-.09 4.55 4.55 0 0 0 .42-1.89 4.63 4.63 0 0 0 .03-.7v-.18a3.19 3.19 0 0 0-.13-.44s0-.1-.06-.15a3.25 3.25 0 0 0-.25-.45v-.05a2.59 2.59 0 0 0-.4-.41c.08-.2.16-.4.25-.65a8.62 8.62 0 0 0 .27-.92 1.55 1.55 0 0 0 0-.23 6.14 6.14 0 0 0 0-2.86C44.1 36.48 41.4 35 37.78 35h-1a10.46 10.46 0 0 0-2.81.61h0a4.35 4.35 0 0 0-.58.27 5.36 5.36 0 0 0-.81.47l-.1.06a4.31 4.31 0 0 0-.46.39l-.13.2a3.9 3.9 0 0 0-.33.38 3.8 3.8 0 0 0-.36.53 2.73 2.73 0 0 0-.66.05h-.26a2.8 2.8 0 0 0-.38.13l-.17.08a2.32 2.32 0 0 0-.3.22.73.73 0 0 0-.09.08 1.74 1.74 0 0 0-.26.3h0a2.11 2.11 0 0 0-.21.46v.14a2.66 2.66 0 0 0-.07.39.76.76 0 0 0 0 .15 2.08 2.08 0 0 0 0 .43.62.62 0 0 0 0 .13 4 4 0 0 0 .08.48v.1a12.5 12.5 0 0 0 .83 2.28 2.43 2.43 0 0 0-.47.44.18.18 0 0 0 0 .07 2.39 2.39 0 0 0-.29.46l-.07.12a3.7 3.7 0 0 0-.19.59 1.6 1.6 0 0 0-.05.21 4.07 4.07 0 0 0-.07.71 3.57 3.57 0 0 0 .08.74.13.13 0 0 0 0 .06 2.87 2.87 0 0 0 1.06 1.76l.08.06.3.17c0 .3.05.57.1.84v.26a7.22 7.22 0 0 0 .15.73v.07a7.08 7.08 0 0 0 .5 1.36h0A4.23 4.23 0 0 0 32 53.56v2.76c-3.5 1.42-10 4.3-10.9 6.26h0a1.08 1.08 0 0 0-.1.42v6h32v-6a1.08 1.08 0 0 0-.08-.38z" fill="#13ebf2"/></svg>