<svg xmlns="http://www.w3.org/2000/svg" viewBox="0 0 90 90" height="90" width="90"><circle cx="45" cy="45" r="45" fill-rule="evenodd" fill="#007996"/><path d="M49 58.6v.2-.2z" fill="#636466"/><path d="M62.1 32.9h0c0-2.4-1.9-4.3-4.3-4.3H30.5c-2.4 0-4.3 1.9-4.3 4.3v2.6h35.9v-2.6zm-29.9.9c-.5 0-.9-.4-.9-.9s.4-.9.9-.9.9.4.9.9-.5.9-.9.9zm3.4 0c-.5 0-.9-.4-.9-.9s.4-.9.9-.9.9.4.9.9-.4.9-.9.9zm3.4 0c-.5 0-.9-.4-.9-.9s.4-.9.9-.9.9.4.9.9-.4.9-.9.9z" fill="#01b4d1"/><path d="M62.7 47.2c-1.2-.4-2.4-.7-3.7-.7-6.1 0-11.2 5-11.2 11.2v.3C48 64 53 68.9 59 68.9c6.1 0 11.2-5 11.2-11.2-.1-4.8-3.2-8.9-7.5-10.5zm-7.2 13c-.2.3-.5.5-.8.5-.1 0-.3 0-.4-.1l-4.1-2.1c-.1-.1-.2-.1-.3-.2v-.1l-.1-.1v-1s0-.1.1-.1c0-.1.1-.1.1-.1l.2-.2 4.1-2.1c.5-.2 1 0 1.2.4.2.5 0 1-.4 1.2l-2.5 1.3.7.3 1.8.9c.5.5.7 1.1.4 1.5zm3.1 2.2c-.1.4-.5.7-.9.7h-.2a.8.8 0 0 1-.6-1.1l1.1-3.9 1.4-5.1a.8.8 0 0 1 1.1-.6.8.8 0 0 1 .6 1.1l-1.3 4.6-1.2 4.3zm9.6-4.3c0 .1-.1.2-.1.2v.1c-.1.1-.2.1-.3.2l-4.1 2.1c-.1.1-.3.1-.4.1-.3 0-.7-.2-.8-.5-.2-.5 0-1 .4-1.2l2.5-1.3-2.5-1.3-.1-.1c-.4-.3-.5-.7-.3-1.1l.3-.3c.3-.2.6-.2.9-.1l4.1 2.1s.1 0 .1.1c.1 0 .1.1.1.1l.1.1s0 .1.1.1v.7c0-.1 0-.1 0 0z" fill="#00eef4"/><path d="M49.6 48.6c2.5-2.5 6-4.1 9.8-4.1a12.65 12.65 0 0 1 2.8.3v-7.6h-36v16.3c0 2.4 1.9 4.3 4.3 4.3h15.1c.1-1.8.5-3.5 1.2-5.1.6-1.6 1.6-2.9 2.8-4.1z" fill="#01b4d1"/></svg>