<?xml version="1.0" encoding="UTF-8"?>
<svg width="120px" height="120px" viewBox="0 0 120 120" version="1.1" xmlns="http://www.w3.org/2000/svg" xmlns:xlink="http://www.w3.org/1999/xlink">
    <title>gaming-esports</title>
    <g id="gaming-esports" stroke="none" stroke-width="1" fill="none" fill-rule="evenodd">
        <circle id="Oval" fill="#334155" cx="60" cy="60" r="60"></circle>
        <g id="001-video-game-controller" transform="translate(23.000000, 23.000000)" fill-rule="nonzero">
            <path d="M71.5333333,29.8269333 L71.5333333,25.9 C71.5131545,13.3689473 61.6413759,3.06961439 49.1224333,2.51846667 C48.6173203,1.01945456 47.2151432,0.00734931 45.6333333,0 L28.3666667,0 C26.7848569,0.00734931 25.3826797,1.01945456 24.8775667,2.51846667 C12.3586241,3.06961439 2.48684544,13.3689473 2.46666667,25.9 L2.46666667,29.8269333 C0.993633939,30.347714 0.00647671433,31.7376313 0,33.3 L0,45.6333333 C0.00647671433,47.195702 0.993633939,48.5856193 2.46666667,49.1064 L2.46666667,66.6 C2.46666667,69.3246048 4.67539523,71.5333333 7.4,71.5333333 L14.8,71.5333333 C14.8,72.8956357 15.9043643,74 17.2666667,74 L24.6666667,74 C26.0289691,74 27.1333333,72.8956357 27.1333333,71.5333333 L27.1333333,69.0666667 C27.1333333,67.7043643 26.0289691,66.6 24.6666667,66.6 L17.2666667,66.6 C15.9043643,66.6 14.8,67.7043643 14.8,69.0666667 L7.4,69.0666667 C6.03769762,69.0666667 4.93333333,67.9623024 4.93333333,66.6 L4.93333333,49.3333333 L7.4,49.3333333 L7.4,53.2553333 C7.40425667,57.0197755 10.3159783,60.1414127 14.0710218,60.4072909 C17.8260654,60.6731692 21.148591,57.9929518 21.6832333,54.2666667 L22.94,45.4754667 C25.6899714,45.0738777 28.25027,43.8374261 30.2746333,41.9333333 L43.7253667,41.9333333 C45.74973,43.8374261 48.3100286,45.0738777 51.06,45.4754667 L52.3167667,54.2666667 C52.851409,57.9929518 56.1739347,60.6731692 59.9289782,60.4072909 C63.6840217,60.1414127 66.5957434,57.0197755 66.6,53.2553333 L66.6,49.3333333 L70.3,49.3333333 C72.3434535,49.3333333 74,47.6767868 74,45.6333333 L74,33.3 C73.9935233,31.7376313 73.0063661,30.347714 71.5333333,29.8269333 Z M17.2666667,69.0666667 L24.6666667,69.0666667 L24.6666667,71.5333333 L17.2666667,71.5333333 L17.2666667,69.0666667 Z M28.3666667,2.46666667 L45.6333333,2.46666667 C46.3144845,2.46666667 46.8666667,3.01884881 46.8666667,3.7 C46.8666667,4.38115119 46.3144845,4.93333333 45.6333333,4.93333333 L28.3666667,4.93333333 C27.6855155,4.93333333 27.1333333,4.38115119 27.1333333,3.7 C27.1333333,3.01884881 27.6855155,2.46666667 28.3666667,2.46666667 Z M3.7,46.8666667 C3.01884881,46.8666667 2.46666667,46.3144845 2.46666667,45.6333333 L2.46666667,33.3 C2.46666667,32.6188489 3.01884881,32.0666667 3.7,32.0666667 L7.4,32.0666667 L7.4,46.8666667 L3.7,46.8666667 Z M64.1333333,53.2553333 C64.1260688,55.7224095 62.2168141,57.7660937 59.7559313,57.940946 C57.2950485,58.1157981 55.1160151,56.3625975 54.76,53.9213333 L53.3688,44.178 C53.2861131,43.6036248 52.814207,43.1645827 52.2353667,43.1235 C49.5383524,42.9318448 47.0037956,41.76323 45.1067,39.8366667 C44.8750788,39.6003653 44.5582209,39.4670451 44.2273333,39.4666667 L29.7726667,39.4666667 C29.4417791,39.4670451 29.1249212,39.6003653 28.8933,39.8366667 C26.9968955,41.7638653 24.4627809,42.9333555 21.7658667,43.1259667 C21.1870263,43.1670494 20.7151202,43.6060915 20.6324333,44.1804667 L19.24,53.9213333 C18.8839849,56.3625975 16.7049515,58.1157981 14.2440687,57.940946 C11.7831859,57.7660937 9.87393127,55.7224095 9.86666667,53.2553333 L9.86666667,32.0666767 C9.86666667,27.5570815 12.595266,23.4957945 16.7701457,21.7908783 C20.9450252,20.0859622 25.7364443,21.0763217 28.8933,24.2966667 C29.1244401,24.5336751 29.44161,24.6671267 29.7726667,24.6666667 L44.2273333,24.6666667 C44.55839,24.6671267 44.8755599,24.5336751 45.1067,24.2966667 C48.2635557,21.0763217 53.0549748,20.0859622 57.2298543,21.7908783 C61.404734,23.4957945 64.1333333,27.5570815 64.1333333,32.0666767 L64.1333333,53.2553333 Z M53.0333333,18.5 C49.5702918,18.4922693 46.2370056,19.8171049 43.7241333,22.2 L30.2808,22.2 C26.6696888,18.7869447 21.4807658,17.6228717 16.7577351,19.1662617 C12.0347045,20.7096517 8.53444549,24.713172 7.63556667,29.6 L4.93333333,29.6 L4.93333333,25.9 C4.95167512,14.7161222 13.7420079,5.51394598 24.9133333,4.9839 C25.4484457,6.43024059 26.8245262,7.3930054 28.3666667,7.4 L45.6333333,7.4 C47.1754738,7.3930054 48.5515543,6.43024059 49.0866667,4.9839 C60.2579921,5.51394598 69.0483249,14.7161222 69.0666667,25.9 L69.0666667,29.6 L66.3644333,29.6 C65.1703172,23.1743775 59.5689609,18.5104673 53.0333333,18.5 Z M71.5333333,45.6333333 C71.5333333,46.3144845 70.9811511,46.8666667 70.3,46.8666667 L66.6,46.8666667 L66.6,32.0666667 L70.3,32.0666667 C70.9811511,32.0666667 71.5333333,32.6188489 71.5333333,33.3 L71.5333333,45.6333333 Z" id="Shape" fill="#FFFFFF"></path>
            <path d="M24.6666667,30.8333333 L22.2,30.8333333 L22.2,28.3666667 C22.2,27.6855155 21.6478178,27.1333333 20.9666667,27.1333333 C20.2855155,27.1333333 19.7333333,27.6855155 19.7333333,28.3666667 L19.7333333,30.8333333 L17.2666667,30.8333333 C16.5855155,30.8333333 16.0333333,31.3855155 16.0333333,32.0666667 C16.0333333,32.7478178 16.5855155,33.3 17.2666667,33.3 L19.7333333,33.3 L19.7333333,35.7666667 C19.7333333,36.4478178 20.2855155,37 20.9666667,37 C21.6478178,37 22.2,36.4478178 22.2,35.7666667 L22.2,33.3 L24.6666667,33.3 C25.3478178,33.3 25.9,32.7478178 25.9,32.0666667 C25.9,31.3855155 25.3478178,30.8333333 24.6666667,30.8333333 Z" id="Path" fill="#F58320"></path>
            <path d="M53.0333333,34.5333333 C52.3521822,34.5333333 51.8,35.0855155 51.8,35.7666667 L51.8,37 C51.8,37.6811511 52.3521822,38.2333333 53.0333333,38.2333333 C53.7144845,38.2333333 54.2666667,37.6811511 54.2666667,37 L54.2666667,35.7666667 C54.2666667,35.0855155 53.7144845,34.5333333 53.0333333,34.5333333 Z" id="Path" fill="#FFFFFF"></path>
            <path d="M53.0333333,25.9 C52.3521822,25.9 51.8,26.4521822 51.8,27.1333333 L51.8,28.3666667 C51.8,29.0478178 52.3521822,29.6 53.0333333,29.6 C53.7144845,29.6 54.2666667,29.0478178 54.2666667,28.3666667 L54.2666667,27.1333333 C54.2666667,26.4521822 53.7144845,25.9 53.0333333,25.9 Z" id="Path" fill="#FFFFFF"></path>
            <path d="M57.9666667,30.8333333 L56.7333333,30.8333333 C56.0521822,30.8333333 55.5,31.3855155 55.5,32.0666667 C55.5,32.7478178 56.0521822,33.3 56.7333333,33.3 L57.9666667,33.3 C58.6478178,33.3 59.2,32.7478178 59.2,32.0666667 C59.2,31.3855155 58.6478178,30.8333333 57.9666667,30.8333333 Z" id="Path" fill="#F58320"></path>
            <path d="M49.3333333,30.8333333 L48.1,30.8333333 C47.4188489,30.8333333 46.8666667,31.3855155 46.8666667,32.0666667 C46.8666667,32.7478178 47.4188489,33.3 48.1,33.3 L49.3333333,33.3 C50.0144845,33.3 50.5666667,32.7478178 50.5666667,32.0666667 C50.5666667,31.3855155 50.0144845,30.8333333 49.3333333,30.8333333 Z" id="Path" fill="#F58320"></path>
            <path d="M35.7666667,28.3666667 C35.7666667,27.6855155 35.2144845,27.1333333 34.5333333,27.1333333 L32.0666667,27.1333333 C31.3855155,27.1333333 30.8333333,27.6855155 30.8333333,28.3666667 C30.8333333,29.0478178 31.3855155,29.6 32.0666667,29.6 L34.5333333,29.6 C35.2144845,29.6 35.7666667,29.0478178 35.7666667,28.3666667 Z" id="Path" fill="#FFFFFF"></path>
            <path d="M41.9333333,27.1333333 L39.4666667,27.1333333 C38.7855155,27.1333333 38.2333333,27.6855155 38.2333333,28.3666667 C38.2333333,29.0478178 38.7855155,29.6 39.4666667,29.6 L41.9333333,29.6 C42.6144845,29.6 43.1666667,29.0478178 43.1666667,28.3666667 C43.1666667,27.6855155 42.6144845,27.1333333 41.9333333,27.1333333 Z" id="Path" fill="#FFFFFF"></path>
            <path d="M39.4666667,34.5333333 L34.5333333,34.5333333 C33.8521822,34.5333333 33.3,35.0855155 33.3,35.7666667 C33.3,36.4478178 33.8521822,37 34.5333333,37 L39.4666667,37 C40.1478178,37 40.7,36.4478178 40.7,35.7666667 C40.7,35.0855155 40.1478178,34.5333333 39.4666667,34.5333333 Z" id="Path" fill="#F58320"></path>
        </g>
    </g>
</svg>