<svg xmlns="http://www.w3.org/2000/svg" width="90" height="90" fill-rule="evenodd"><circle fill="#59558e" cx="45" cy="45" r="45"/><path d="M30.25 34.875V55a1.75 1.75 0 1 1-3.5 0V28.75h7v2.625c0 .484.392.875.875.875H56.5V34H31.125c-.483 0-.875.4-.875.875M55.286 48c2.512 0 4.8 1.007 6.465 2.636v-15.76c0-.484-.392-.875-.875-.875H58.25v-2.625c0-.484-.392-.875-.875-.875H35.5v-2.625c0-.484-.392-.875-.875-.875h-8.75c-.483 0-.875.4-.875.875V55c0 1.93 1.57 3.5 3.5 3.5h17.6c-.053-.4-.1-.802-.1-1.215A9.3 9.3 0 0 1 55.286 48" fill="#8989ce"/><path d="M55.285 63.07c-3.2 0-5.785-2.595-5.785-5.784s2.595-5.786 5.785-5.786a5.79 5.79 0 0 1 5.783 5.786 5.79 5.79 0 0 1-5.783 5.784m11.458 4.437l-5.555-5.554a7.49 7.49 0 0 0 1.63-4.666c0-4.155-3.38-7.536-7.533-7.536s-7.535 3.38-7.535 7.536 3.38 7.534 7.535 7.534a7.49 7.49 0 0 0 4.666-1.63l5.555 5.555a.87.87 0 0 0 1.237 0c.342-.34.342-.895 0-1.237" fill="#c8c8fc"/></svg>