<svg xmlns="http://www.w3.org/2000/svg" xmlns:xlink="http://www.w3.org/1999/xlink" width="120" height="120"><defs><path id="A" d="M0 0h56v56H0z"/></defs><g fill="none" fill-rule="evenodd"><circle fill="#c92f13" cx="60" cy="60" r="60"/><g transform="translate(32 32)"><path d="M36.124 27l-11.58-6.686a1.17 1.17 0 0 0-1.75 1.01v13.374a1.17 1.17 0 0 0 1.75 1.009L36.124 29a1.17 1.17 0 0 0 0-2.021" fill="#fdd337"/><mask id="B" fill="#fff"><use xlink:href="#A"/></mask><path d="M28 44.738c-9.23 0-16.738-7.51-16.738-16.738S18.77 11.263 28 11.263 44.738 18.77 44.738 28 37.23 44.738 28 44.738m26.833-21.405H48.17c-.464-1.843-1.06-3.9-1.815-5.44L51.1 13.15a1.17 1.17 0 0 0 .342-.825c0-.3-.124-.607-.342-.825l-6.6-6.6a1.17 1.17 0 0 0-1.65 0l-4.745 4.743c-1.55-.756-3.596-1.35-5.437-1.814V1.166C32.667.522 32.144 0 31.5 0h-7c-.645 0-1.167.523-1.167 1.167V7.83c-1.843.465-3.9 1.058-5.44 1.814L13.15 4.9a1.17 1.17 0 0 0-1.65 0l-6.6 6.6a1.17 1.17 0 0 0 0 1.65l4.744 4.744c-.752 1.546-1.35 3.593-1.818 5.44h-6.66C.522 23.333 0 23.856 0 24.5v7c0 .645.52 1.167 1.167 1.167h6.66c.468 1.846 1.065 3.893 1.818 5.44L4.9 42.85c-.218.218-.342.514-.342.825a1.17 1.17 0 0 0 .342.825l6.6 6.6c.438.44 1.213.438 1.65 0l4.743-4.744c1.547.754 3.596 1.35 5.44 1.818v6.66c0 .645.52 1.167 1.167 1.167h7c.644 0 1.167-.522 1.167-1.167v-6.66c1.845-.468 3.892-1.064 5.438-1.815l4.746 4.74c.455.456 1.194.456 1.65 0l6.6-6.6a1.17 1.17 0 0 0 0-1.65l-4.744-4.745c.754-1.546 1.35-3.595 1.816-5.44h6.662c.644 0 1.167-.522 1.167-1.167v-7c0-.644-.523-1.167-1.167-1.167" fill="#f9902c" mask="url(#B)"/></g></g></svg>