<svg xmlns="http://www.w3.org/2000/svg" width="80" height="80" fill-rule="nonzero"><circle fill="#02b6d3" cx="40" cy="40" r="40"/><g fill="#fff"><path d="M12.232 35.35c-.125 0-.156-.086-.094-.216l.657-1.167c.063-.13.22-.216.344-.216h11.164c.125 0 .156.13.094.26l-.532 1.124c-.063.13-.22.26-.313.26l-11.32-.043zm-4.11 3.328c-.123 0-.154-.1-.092-.222l.646-1.2a.4.4 0 0 1 .338-.222h14.02c.123 0 .184.133.154.266l-.246 1.066c-.03.178-.154.266-.277.266l-14.542.044zm7.794 3.242c-.114 0-.142-.13-.085-.26l.582-1.08c.057-.13.17-.26.284-.26h5.7c.114 0 .17.13.17.303L22.5 41.66c0 .173-.114.303-.2.303l-6.386-.043zm30.92-7.363l-5.095 1.346c-.455.122-.485.153-.88-.306-.455-.52-.8-.857-1.425-1.162-1.9-.948-3.76-.673-5.5.46-2.062 1.346-3.124 3.334-3.094 5.812.03 2.447 1.698 4.466 4.094 4.803 2.062.275 3.8-.46 5.156-2.02.273-.337.516-.704.82-1.132H35.07c-.637 0-.8-.398-.576-.918l1.547-3.334c.1-.184.303-.5.758-.5h11.04l-.182 2.478c-.334 2.203-1.153 4.222-2.487 5.996-2.184 2.906-5.035 4.7-8.644 5.2-2.972.398-5.732-.184-8.16-2.02-2.244-1.713-3.518-3.977-3.852-6.8-.394-3.334.576-6.332 2.578-8.963 2.153-2.845 5.004-4.65 8.492-5.292 2.85-.52 5.58-.184 8.037 1.5 1.607 1.07 2.76 2.54 3.518 4.313.182.275.06.428-.303.52z"/><path d="M57.064 51.82c-2.77-.062-5.297-.865-7.428-2.717-1.796-1.575-2.923-3.582-3.288-5.96-.548-3.49.396-6.577 2.466-9.326 2.222-2.964 4.902-4.508 8.524-5.157 3.105-.556 6.028-.247 8.677 1.575 2.405 1.668 3.897 3.922 4.293 6.886.518 4.17-.67 7.566-3.5 10.468-2.01 2.07-4.475 3.366-7.307 3.953-.822.154-1.644.185-2.436.278zM64.3 39.345c-.03-.4-.03-.7-.09-1.02-.548-3.057-3.318-4.786-6.21-4.107-2.83.648-4.658 2.47-5.328 5.373-.548 2.41.61 4.848 2.8 5.836 1.674.74 3.35.648 4.962-.185C62.85 43.977 64.158 42 64.3 39.345z"/></g></svg>