<svg xmlns="http://www.w3.org/2000/svg" viewBox="0 0 90 90"><circle cx="45" cy="45" r="45" fill="#59558e"/><path d="M66.1 49.6h-1.54c.25-11.45-15.9-11.45-15.64 0-.84 0-2.62-.3-2.6 1v14.6a1 1 0 0 0 1 1c.54-.48 20.9 1.15 19.77-1V50.63a1 1 0 0 0-1-1.04zM58 57.4l-.18.16c-.25.94.75 4.83-1 4.74-1.8.1-.8-3.82-1-4.74A1.7 1.7 0 1 1 58 57.4zm4.52-7.57H51c-.5-9.04 12-9.03 11.5 0z" fill="#c8c8fc"/><path d="M44.13 49.6c-.06-2.13 2.77-1.6 4.1-1.6v-1.6c-1.92-1-4-1.86-5.5-2.47h0v-2.67a4.14 4.14 0 0 0 1.15-1.46h0a7.26 7.26 0 0 0 .63-2.11v-.23a6.91 6.91 0 0 0 .08-.82 1.3 1.3 0 0 0 .23-.18h0a3 3 0 0 0 .72-1.14h0a3.13 3.13 0 0 0 .19-.7.07.07 0 0 0 0 0 4.4 4.4 0 0 0 .06-.73 3.08 3.08 0 0 0-.41-1.63 2 2 0 0 0-.47-.53l.22-.54a.25.25 0 0 0 0-.07l.28-.88a2.25 2.25 0 0 1 .05-.22 5.92 5.92 0 0 0 .13-.81V29a5.65 5.65 0 0 0-.14-1.7 4.18 4.18 0 0 0-2.18-2.58l-.1-.05-.76-.34-.33-.1-.6-.17-.5-.1-.74-.12h-.3c-.36 0-.73-.06-1.12-.06h-.92a9.88 9.88 0 0 0-2.68.58h0l-.47.2A5.9 5.9 0 0 0 34 25h-.06a3.23 3.23 0 0 0-.45.38.86.86 0 0 0-.14.13 3.79 3.79 0 0 0-.32.38 2.85 2.85 0 0 0-.34.49 2.79 2.79 0 0 0-.51 0 2.08 2.08 0 0 0-.46.09h-.1a2 2 0 0 0-.36.17l-.1.06-.27.2v.05a2 2 0 0 0-.2.25h0a1.72 1.72 0 0 0-.21.43v.14c0 .12-.06.24-.08.36a.86.86 0 0 1 0 .16v.53l.06.43a.52.52 0 0 1 0 .11l.12.5v.06a16.52 16.52 0 0 0 .6 1.61 1.92 1.92 0 0 0-.51.55h0a2.38 2.38 0 0 0-.29.67v.08a.52.52 0 0 0 0 .11 3.44 3.44 0 0 0-.1.8 4.39 4.39 0 0 0 .07.72.13.13 0 0 0 0 .06 4 4 0 0 0 .18.68h0a3.12 3.12 0 0 0 .71 1.12h0a1.3 1.3 0 0 0 .23.18 6.54 6.54 0 0 0 .08.81v.24a7.09 7.09 0 0 0 .63 2.1h0a4.06 4.06 0 0 0 1.14 1.45v2.62c-3.38 1.5-9.6 4.28-10.4 6.1h0a.93.93 0 0 0-.08.35v5.7h21.3zm7.4-1.24h.15l-.15-.1z" fill="#8989ce"/></svg>