<svg xmlns="http://www.w3.org/2000/svg" viewBox="0 0 180 271"  fill-rule="evenodd" stroke-linejoin="round"><g fill="#d1d3d4" stroke="#000" stroke-width="4.79"><path d="M74.54 50.33c.74-23.487-7.172-37.334-29.917-46.48-6.465 22.614 20.225 43.465 29.917 46.48z"/><path d="M136.223 90.134c.74-19.286-4.13-27.07-7.787-32.636-3.71-5.192-12.61-13.352-23.544-13.694-10.34-.324-12.828 5.392-22.368 5.737C80.96 32.17 94.07 22.636 94.07 22.636s-3.585-5.067-6.55-6.305c-4.266 3.79-16.008 16.436-13.29 32.708-8.778-1.678-14.974-6.702-24.195-4.888-12.562 2.472-22.917 10.067-28.82 26.733s2.083 36.11 3.82 41.664 14.584 29.164 24.653 32.638 10.07 1.91 15.452-.173 13.54-5.902 25.522-1.56c11.975 4.34 13.537 5.38 21 .52 7.47-4.86 17.188-19.962 19.443-24.303s3.473-6.597 4.17-8.853c7.256-3.62.283-3.397.95-20.68z"/></g><path d="M155.714 231.084a18 18 0 0 0 12.769-5.248c3.4-3.377 5.295-7.965 5.295-12.75l.002-64.833a18 18 0 0 0-18-18h-14.838a4 4 0 0 1-4-4v-9.43H19.912l.295 138.213a4 4 0 0 0 1.85 3.365c5.212 3.018 21.92 8.75 57.004 8.75 35.825 0 51.84-7.674 56.424-11.14a3.98 3.98 0 0 0 1.438-3.062l.02-17.924a4 4 0 0 1 4.083-3.999l14.69.057zm-18.772-79.806c0-1.326.527-2.598 1.464-3.536s2.2-1.464 3.536-1.464h12.738c1.326 0 2.598.527 3.536 1.464s1.464 2.2 1.464 3.536v58.185c0 1.326-.527 2.598-1.464 3.536s-2.2 1.464-3.536 1.464h-12.738c-1.326 0-2.598-.527-3.536-1.464s-1.464-2.2-1.464-3.536v-58.185z" fill="#fff" fill-rule="nonzero" stroke="#000" stroke-width="4.79"/><path d="M31.45 115.663V239.65a4 4 0 0 0 2.003 3.467c5.06 2.412 19.743 8.17 45.484 8.17 25.912 0 40.158-6.995 44.928-9.878a3.99 3.99 0 0 0 1.827-3.351l.01-122.393H31.45z" fill="#666666"/><path d="M45.303 136.663v95.816" fill="none" stroke="#bbbbbb" stroke-linecap="round" stroke-linejoin="miter" stroke-width="11.096"/><path d="M98.555 141.106c0-2-1.177-4.388-3.1-5.587-3.145-1.903-5.604-4.822-6.942-8.3-25.59.86-48.95-3.633-60.716-6.806a98.22 98.22 0 0 0-9.171-2.13C11.573 116.886 6.22 110.7 6.22 103.265c0-8.185 6.494-14.836 14.608-15.127 1.565-8.657 9.12-15.23 18.23-15.23C49.3 72.91 57.6 81.213 57.6 91.454c0 2.155-.39 4.218-1.064 6.144l.055.01c2.287-7.153 8.983-12.336 16.896-12.336 7.862 0 14.522 5.122 16.848 12.208-.067-.64-.1-1.29-.1-1.947 0-10.652 8.634-19.286 19.284-19.286 8.622 0 15.92 5.66 18.388 13.462l1.68-.438c2.198-1.24 4.73-1.955 7.432-1.955 8.37 0 15.154 6.785 15.15 15.152 0 7.666-5.69 14-13.08 15.012a22.34 22.34 0 0 0-4.891 1.27c-4.39 1.655-8.88 3.027-13.417 4.16a16.66 16.66 0 0 1-1.909 6.231c-1.84 3.452-2.665 7.355-2.38 11.257l.007 1.7c0 4.956-4.016 7.972-8.976 7.972-4.953 0-8.97-4.015-8.97-8.972z" fill="#fff" stroke="#000" stroke-width="4.79"/></svg>