<?xml version="1.0" encoding="UTF-8"?>
<svg width="120px" height="120px" viewBox="0 0 120 120" version="1.1" xmlns="http://www.w3.org/2000/svg" xmlns:xlink="http://www.w3.org/1999/xlink">
    <title>sso</title>
    <defs>
        <linearGradient x1="34.4250259%" y1="28.6999635%" x2="107.394825%" y2="116.904592%" id="linearGradient-1">
            <stop stop-color="#F58320" offset="0%"></stop>
            <stop stop-color="#0F172A" offset="100%"></stop>
        </linearGradient>
    </defs>
    <g id="sso" stroke="none" stroke-width="1" fill="none" fill-rule="evenodd">
        <circle id="Oval" fill="#0F172A" cx="60" cy="60" r="60"></circle>
        <g id="Group-2" transform="translate(28.000000, 28.000000)">
            <path d="M58.8454011,5.16456999 C55.5211043,1.83421517 51.101338,0 46.4002597,0 C41.6991814,0 37.2794152,1.83421517 33.9551184,5.16456999 C30.9941195,8.13120482 29.1829518,12.0653475 28.855388,16.2423511 C28.5544349,20.0770897 29.5130499,23.9058615 31.5624458,27.1201814 L1.11004193,57.6286081 C-0.370013978,59.1115447 -0.370013978,61.5242841 1.11004193,63.0072207 C1.82700738,63.7253931 2.78042695,64.1212322 3.79441732,64.1212322 C4.80840768,64.1212322 5.76157382,63.7255201 6.4787927,63.0072207 L9.75012176,59.7296783 L13.89846,63.8859885 C14.6154254,64.6041609 15.568845,65 16.5828354,65 C17.5968257,65 18.5499919,64.6042879 19.267084,63.8858616 C20.7471399,62.402925 20.7470132,59.9901856 19.267084,58.507376 L17.0706963,56.3070287 L19.5110145,53.8621702 L21.7072755,56.0623905 C22.424241,56.7808168 23.3776605,57.176529 24.3916509,57.176529 C25.4056413,57.176529 26.3588074,56.7809438 27.0756461,56.0625175 C27.7926116,55.344345 28.1877155,54.3891516 28.1877155,53.3732747 C28.1877155,52.3573977 27.7927383,51.4022043 27.0757729,50.6839049 L22.9270545,46.5278486 L36.9300561,32.4989209 C39.754834,34.3111732 43.0105769,35.2648432 46.4012735,35.2650971 C51.102225,35.2649702 55.521231,33.4311359 58.845021,30.1011619 C62.1691911,26.7706801 64,22.3426907 64,17.632866 C64,12.9230412 62.1695712,8.49505177 58.8454011,5.16456999 Z" id="Path-Copy-2" stroke="url(#linearGradient-1)" stroke-width="3.6900864" stroke-linejoin="round" fill-rule="nonzero"></path>
            <ellipse id="Oval" stroke="#FFFFFF" stroke-width="3.36" cx="46.48" cy="17.6908867" rx="10.08" ry="10.0872414"></ellipse>
        </g>
    </g>
</svg>