<?xml version="1.0" encoding="utf-8"?>
<!-- Generator: Adobe Illustrator 24.3.0, SVG Export Plug-In . SVG Version: 6.00 Build 0)  -->
<svg version="1.1" id="Layer_1" xmlns="http://www.w3.org/2000/svg" xmlns:xlink="http://www.w3.org/1999/xlink" x="0px" y="0px"
	 viewBox="0 0 90 90" style="enable-background:new 0 0 90 90;" xml:space="preserve">
<style type="text/css">
	.st0{fill:#C92F13;}
	.st1{fill:#F9902C;}
	.st2{fill:#FDD337;stroke:#FDD337;stroke-miterlimit:10;}
</style>
<circle class="st0" cx="45.5" cy="45" r="45"/>
<g>
	<path class="st1" d="M58.6,45.5c-0.1,1.5-0.6,2.9-1.2,4.2c0,0.1-0.1,0.1-0.1,0.2c-0.1,0.2-0.2,0.3-0.3,0.5c-1.9,3.6-5.6,6.2-10,6.5
		v10.6C62.7,63,65.5,53.3,65.6,52.9c0-0.1,0-0.2,0-0.2v-7.1H58.6z"/>
	<path class="st1" d="M65.1,24.3c-0.3-0.2-0.7-0.1-1,0.1c-3.3,2.3-6,3.3-8.8,3.3c-3.3,0-6.3-1.4-8.3-3.9v8.1c2.7,0.2,5.2,1.3,7.2,3
		l3.4-4.2c1-1.3,2.9-1.5,4.2-0.5c1.3,1,1.5,2.9,0.5,4.2L57.9,40c0.4,1.1,0.7,2.4,0.7,3.6h7V25.1C65.6,24.8,65.4,24.5,65.1,24.3z"/>
	<path class="st1" d="M45.2,31.9v-8.1c-2,2.5-5.1,3.9-8.3,3.9c-2.8,0-5.5-1-8.8-3.3c-0.3-0.2-0.7-0.2-1-0.1
		c-0.3,0.2-0.5,0.5-0.5,0.8v18.5h7C34,37.4,39,32.3,45.2,31.9z"/>
	<path class="st1" d="M33.7,45.7c0-0.1,0-0.1,0-0.2c0,0,0,0,0,0h-7.1v7.1c0,0.1,0,0.2,0,0.2c0.1,0.4,2.9,10.1,18.5,14.7V57
		C39.1,56.6,34.3,51.8,33.7,45.7z"/>
</g>
<path class="st2" d="M60.7,31.7c-0.5-0.4-1.2-0.3-1.6,0.2l-13.7,17l-4.9-4.9c-0.5-0.5-1.2-0.5-1.6,0c-0.5,0.5-0.5,1.2,0,1.6l5.8,5.8
	c0.2,0.2,0.5,0.3,0.8,0.3c0,0,0,0,0.1,0c0.3,0,0.6-0.2,0.8-0.4l14.5-18C61.3,32.8,61.2,32.1,60.7,31.7z"/>
</svg>
