<?xml version="1.0" encoding="utf-8"?>
<!-- Generator: Adobe Illustrator 24.3.0, SVG Export Plug-In . SVG Version: 6.00 Build 0)  -->
<svg version="1.1" id="Layer_1" xmlns="http://www.w3.org/2000/svg" xmlns:xlink="http://www.w3.org/1999/xlink" x="0px" y="0px"
	 viewBox="0 0 90 90" style="enable-background:new 0 0 90 90;" xml:space="preserve">
<style type="text/css">
	.st0{fill-rule:evenodd;clip-rule:evenodd;fill:#147894;}
	.st1{fill:#02B6D3;}
	.st2{fill:#13EBF2;}
</style>
<circle class="st0" cx="45" cy="45" r="45"/>
<path class="st1" d="M47.2,44.4c-0.8-0.4-1.5-0.7-2.2-0.9v-2.7c0.3-0.3,0.8-0.7,1.1-1.5l0,0c0.3-0.5,0.5-1.2,0.6-2.1
	c0-0.1,0-0.2,0-0.2c0-0.3,0.1-0.5,0.1-0.8c0.1-0.1,0.2-0.1,0.2-0.2l0,0c0.3-0.3,0.5-0.7,0.7-1.1l0,0c0.1-0.2,0.1-0.5,0.2-0.7
	c0,0,0,0,0-0.1c0-0.2,0.1-0.5,0.1-0.7c0-0.6-0.1-1.2-0.4-1.7c-0.1-0.2-0.3-0.4-0.5-0.5c0.1-0.2,0.1-0.4,0.2-0.6l0,0l0,0
	c0,0,0,0,0-0.1c0.1-0.3,0.2-0.6,0.3-0.9c0-0.1,0-0.2,0.1-0.2c0.1-0.3,0.1-0.6,0.1-0.8c0-0.1,0-0.1,0-0.2c0-0.6,0-1.2-0.1-1.7
	c-0.3-1.1-1-2-2.2-2.6h-0.1c-0.2-0.1-0.5-0.2-0.8-0.3c-0.1,0-0.2-0.1-0.3-0.1c-0.2-0.1-0.4-0.1-0.6-0.2c-0.2,0-0.3-0.1-0.5-0.1
	s-0.5-0.1-0.7-0.1c-0.1,0-0.2,0-0.3,0c-0.4,0-0.7-0.1-1.1-0.1c-0.3,0-0.6,0-0.9,0c-0.9,0.1-1.8,0.3-2.7,0.6l0,0
	c-0.2,0.1-0.3,0.1-0.5,0.2c-0.3,0.2-0.6,0.3-0.9,0.5c0,0,0,0-0.1,0c-0.2,0.1-0.3,0.3-0.4,0.4L35.5,25c-0.1,0.1-0.2,0.3-0.3,0.4
	c-0.1,0.2-0.2,0.3-0.3,0.5c-0.2,0-0.3,0-0.5,0S34.1,26,33.9,26h-0.1c-0.1,0-0.3,0.1-0.4,0.2c0,0-0.1,0-0.1,0.1
	c-0.1,0.1-0.2,0.1-0.3,0.2c0,0,0,0,0,0.1c-0.1,0.1-0.1,0.2-0.2,0.2l0,0c-0.1,0.1-0.2,0.3-0.2,0.4v0.1c0,0.1-0.1,0.2-0.1,0.4
	c0,0.1,0,0.1,0,0.2s0,0.3,0,0.4v0.1c0,0.1,0,0.3,0.1,0.4v0.1c0,0.2,0.1,0.3,0.1,0.5c0,0,0,0,0,0.1c0.2,0.6,0.4,1.1,0.6,1.6
	c-0.2,0.1-0.4,0.3-0.5,0.6l0,0c-0.1,0.2-0.2,0.4-0.3,0.7v0.1v0.1c-0.1,0.3-0.1,0.5-0.1,0.8c0,0.2,0,0.5,0.1,0.7c0,0,0,0,0,0.1
	c0,0.2,0.1,0.5,0.2,0.7l0,0c0.2,0.5,0.4,0.8,0.7,1.1l0,0c0.1,0.1,0.1,0.1,0.2,0.2c0,0.3,0,0.6,0.1,0.8c0,0.1,0,0.2,0,0.2
	c0.1,0.9,0.4,1.6,0.6,2.1l0,0c0.4,0.7,0.8,1.2,1.1,1.5v2.7c-3.3,1.4-9.5,4.1-10.3,6l0,0C25,49.6,25,49.7,25,49.9v5.8h14.7
	C40.3,50.7,43.1,46.6,47.2,44.4z"/>
<g>
	<path class="st2" d="M44.3,51.8c0.1,0,0.1,0,0.2,0c0,0,0.1,0,0.1,0c0,0,0.1-0.1,0.1-0.2c0.8-1.4,1.8-2.5,3-3.3
		c1.6-1.2,3.6-1.9,5.4-2c0.5,0,0.5,0,0.7-0.1c0.1-0.1,0.1-0.2,0.2-0.3c0-0.2-0.1-0.4-0.3-0.5c-0.1,0-0.1,0-0.1,0c0,0-0.1,0-0.2,0
		c-0.1,0-0.3,0-0.5,0.1c-2.9,0.3-5.5,1.6-7.4,3.8c-0.5,0.6-0.9,1.2-1.3,1.8c-0.1,0.2-0.1,0.3-0.1,0.4C43.9,51.7,44,51.8,44.3,51.8z"
		/>
	<path class="st2" d="M45.4,55.8c0.1-2,0.7-3.6,1.8-5c0.5-0.6,1.2-1.3,1.8-1.6c0.1-0.1,0.1-0.1,0.2-0.2c0.1-0.1,0.1-0.2,0.1-0.2
		c0-0.2-0.2-0.4-0.4-0.4c-0.1,0-0.1,0-0.2,0c-0.1,0-0.5,0.3-0.8,0.5c-1.6,1.2-2.7,3-3.2,5.2c-0.2,0.8-0.2,1.5-0.2,2.3
		c0,0.7,0,1.1,0.1,1.5c0.1,0.7,0.1,0.9,0.1,1.7c0,0.6,0,0.8,0,1c-0.1,0.4-0.1,0.8-0.2,0.9c-0.2,0.3,0,0.7,0.3,0.7
		c0.2,0,0.4-0.1,0.5-0.2c0-0.1,0.2-0.6,0.2-0.7c0.2-1,0.2-2.6-0.2-4.3C45.3,56.7,45.3,56.4,45.4,55.8z"/>
	<path class="st2" d="M47.9,56l0.1,0.2c0.2,0.7,0.4,1.4,0.4,2.2c0,0.5,0,1-0.1,1.4c-0.1,0.4-0.1,0.6,0,0.7c0.1,0.2,0.2,0.3,0.4,0.3
		c0.2,0,0.3-0.1,0.4-0.2c0-0.1,0.1-0.1,0.1-0.1c0,0,0-0.1,0.1-0.2c0.3-0.8,0.2-2.5-0.3-4.3l-0.1-0.3l0.1-0.3c0.4-2,1.5-3.4,3.3-4
		c0.3-0.1,1-0.2,1.3-0.3c0.1,0,0.1,0,0.2,0c0.1,0,0.1,0,0.2,0c0.4,0,1,0.2,1.3,0.3c0.6,0.2,1.1,0.5,1.6,0.9c0.1,0.1,0.1,0.1,0.2,0.2
		c0.8,0.7,1.3,1.7,1.5,2.9l0.1,0.3l-0.1,0.3c-0.5,1.7-0.6,3.5-0.3,4.3c0,0.1,0.1,0.1,0.1,0.2c0,0,0,0.1,0.1,0.1
		c0.1,0.1,0.2,0.2,0.4,0.2c0.2,0,0.3-0.1,0.4-0.3c0.1-0.1,0-0.3,0-0.7C59.1,59.5,59,59,59,58.5c0-0.8,0.1-1.5,0.4-2.2l0.1-0.2l0-0.3
		c-0.1-1-0.5-2-1-2.8c0,0,0,0,0,0c0,0,0,0,0,0c0,0-0.1-0.1-0.1-0.1c-0.2-0.3-0.4-0.5-0.6-0.7c-0.1-0.1-0.2-0.2-0.2-0.2c0,0,0,0,0,0
		c-0.2-0.2-0.5-0.4-0.7-0.5c0,0,0,0,0,0c-0.1-0.1-0.2-0.1-0.3-0.2c-0.7-0.4-1.5-0.6-2.2-0.6c-0.1,0-0.3,0-0.5,0c-0.2,0-0.4,0-0.5,0
		c-0.7,0.1-1.5,0.3-2.2,0.6c-0.1,0.1-0.2,0.1-0.3,0.2c0,0,0,0,0,0c-0.3,0.2-0.5,0.3-0.7,0.5c0,0,0,0,0,0c-0.2,0.2-0.9,0.9-1,1
		c0,0.1,0,0.1,0,0.2c-0.5,0.8-0.8,1.8-0.9,2.7L47.9,56z"/>
	<path class="st2" d="M44,53.7c0.1-0.5,0.1-0.5,0.1-0.6c-0.1-0.3-0.4-0.5-0.6-0.4c-0.1,0-0.1,0.1-0.2,0.1c-0.1,0.1-0.1,0.1-0.1,0.1
		c0,0-0.3,1-0.3,1.7c-0.2,1.4-0.2,2.7,0,3.7c0.1,0.5,0.4,1.2,0.5,1.2c0,0,0,0,0.1,0.1c0,0.1,0.1,0.2,0.2,0.2c0.1,0.1,0.3,0,0.4,0
		c0.1-0.1,0.2-0.3,0.2-0.4c0,0,0-0.2-0.1-0.4C43.6,57.1,43.6,55.2,44,53.7z"/>
	<path class="st2" d="M51,59.4L50.9,59c-0.5-1.9-0.4-3.4,0.1-4.4c0.1-0.1,0.1-0.2,0.2-0.3c0.1-0.1,0.2-0.3,0.1-0.4
		c0-0.3-0.3-0.4-0.6-0.3c-0.1,0.1-0.4,0.3-0.5,0.5c-0.2,0.4-0.4,0.9-0.5,1.4c0,0.2,0,0.4,0,1c0,0.7,0,1.1,0.1,1.6
		c0,0.1,0.1,0.4,0.1,0.6c0.2,1.3,0,3-0.6,4.7c-0.2,0.6-0.4,1.1-0.6,1.4c-0.1,0.1-0.1,0.3,0,0.4c0.1,0.2,0.4,0.3,0.6,0.2
		c0.1-0.1,0.2-0.2,0.4-0.6c0.7-1.4,1.2-3.2,1.3-5.2L51,59.4z"/>
	<path class="st2" d="M55.8,55.6c-0.2-0.4-0.3-0.7-0.6-1c-0.3-0.3-0.6-0.5-0.9-0.6c-0.2-0.1-0.8-0.1-1.1,0c-0.2,0-0.5,0.1-0.7,0.2
		c-0.2,0.1-0.4,0.4-0.5,0.6c-0.1,0.2-0.2,0.4-0.3,0.7c-0.2,0.8-0.2,2.1,0,3.2c0.1,0.5,0.1,0.7,0.1,1.3c0,1-0.1,1.7-0.3,2.7
		c-0.2,0.9-0.6,1.8-1,2.7c-0.3,0.5-0.3,0.6-0.2,0.8c0.1,0.2,0.4,0.3,0.7,0.2c0.1-0.1,0.1-0.1,0.4-0.6c0.3-0.6,0.4-0.9,0.6-1.5
		c0.3-0.9,0.5-1.7,0.6-2.6c0.1-1.2,0.1-2.6-0.1-3.7c0-0.2-0.1-0.4-0.1-0.6c-0.1-0.4-0.1-0.9-0.1-1.2c0.1-0.6,0.2-1,0.5-1.3
		c0.3-0.3,0.6-0.4,0.9-0.4c0.4,0,0.6,0.1,0.9,0.3c0.4,0.4,0.7,1.2,0.8,2.3c0,0.4,0,1.5,0,1.9c0,0.1,0,0.3,0,0.5c0,0.2,0,0.2,0,0.3
		c0.1,0.2,0.5,0.3,0.6,0.1c0.1-0.1,0.1-0.2,0.1-0.6c0.1-0.9,0-2.1-0.1-3.3C55.9,55.9,55.9,55.8,55.8,55.6z"/>
	<path class="st2" d="M54,63.6c0.1-0.1,0.2-0.9,0.3-1.5c0.1-0.8,0.2-1.6,0.2-2.5c0-1-0.1-1.8-0.2-2.8c-0.1-0.7-0.1-0.8-0.2-0.9
		c-0.1-0.1-0.3-0.2-0.5-0.2c-0.2,0-0.3,0.2-0.4,0.4c0,0.1,0,0.2,0,0.4c0.5,2.4,0.4,4.9-0.1,6.5c0,0.1-0.1,0.3-0.1,0.3
		c0,0,0,0.1,0,0.1c0,0.2,0,0.3,0.1,0.4c0.1,0.1,0.1,0.1,0.2,0.1c0.2,0,0.4-0.1,0.5-0.3C54,63.6,54,63.6,54,63.6z"/>
	<path class="st2" d="M55.8,61.1c-0.1,0-0.1,0-0.2,0c-0.2,0.1-0.2,0.2-0.3,0.6c-0.1,0.7-0.2,1.6-0.4,2.3c-0.2,0.8-0.4,1.4-0.8,2
		c-0.1,0.2-0.2,0.3-0.2,0.4c0,0.2,0.1,0.3,0.2,0.4c0.2,0.2,0.6,0.1,0.7-0.2c0-0.1,0.1-0.2,0.2-0.3c0.4-0.7,0.7-2,0.9-3.6
		c0.1-0.7,0.2-1.2,0.1-1.3C56,61.3,55.9,61.2,55.8,61.1z"/>
	<path class="st2" d="M48.8,62.1c-0.1-0.2-0.3-0.2-0.5-0.2c-0.1,0.1-0.2,0.2-0.3,0.4c-0.2,0.5-0.4,1-0.8,1.8
		C47,64.4,47,64.4,47,64.6c0,0.3,0.3,0.5,0.6,0.4c0.1,0,0.1-0.1,0.2-0.1c0.1-0.1,0.5-0.9,0.6-1.3c0.1-0.2,0.2-0.5,0.3-0.7
		c0.1-0.3,0.1-0.4,0.2-0.6C48.8,62.2,48.8,62.2,48.8,62.1z"/>
	<path class="st2" d="M53.2,64.6c-0.1,0-0.2,0-0.3,0c-0.1,0-0.1,0.1-0.5,0.7c-0.2,0.4-0.4,0.7-0.4,0.7c-0.1,0.1-0.1,0.2-0.1,0.3
		c0,0.2,0.2,0.4,0.4,0.4c0.1,0,0.3-0.1,0.3-0.2c0,0,0.1-0.1,0.1-0.2c0.2-0.3,0.5-0.7,0.6-1c0.1-0.3,0.1-0.4,0.1-0.5
		C53.4,64.8,53.3,64.7,53.2,64.6z"/>
	<path class="st2" d="M63,56.3c0-0.7-0.1-1.1-0.2-1.7c-0.3-1.8-0.9-3.3-1.8-4.4c-0.3-0.3-0.9-0.9-1.4-1.3c-1.1-0.9-2.5-1.5-3.9-1.8
		C55,47,54.8,47,54,47c-0.4,0-0.8,0-0.8,0c0,0-0.2,0-0.3,0c-0.7,0.1-1.5,0.2-2.3,0.5c-0.6,0.2-0.7,0.2-0.7,0.5
		c0,0.2,0.1,0.4,0.3,0.4c0.1,0,0.1,0,0.5-0.1c1.5-0.4,3.3-0.6,4.8-0.4c1.3,0.2,2.4,0.6,3.3,1.3c1.5,1.1,2.7,2.9,3.1,4.8
		c0.1,0.3,0.2,0.8,0.2,1.2c0,0.1,0,0.3,0,0.6c0,0.5,0,0.9-0.1,1.2c-0.3,1.7-0.4,3.4-0.2,4.3c0,0.2,0.2,0.7,0.2,0.7
		c0.1,0.1,0.3,0.2,0.5,0.2c0.3-0.1,0.5-0.4,0.3-0.7c-0.1-0.1-0.2-0.5-0.2-0.9c0-0.2,0-0.5,0-1c0-0.8,0-1,0.1-1.7
		C62.9,57.5,63,57,63,56.3z"/>
	<path class="st2" d="M61.1,61.8c-0.2-0.7-0.2-1.3-0.3-2c0-0.8,0-1.4,0.2-2.2l0.1-0.4l0-0.8c0-0.6,0-0.9-0.1-1.2
		c0-0.3,0-0.6-0.1-0.8c-0.1-0.3-0.2-0.6-0.3-0.9c-0.2-0.6-0.5-1.1-0.8-1.5c0,0,0,0-0.1-0.1c-0.1-0.2-0.2-0.3-0.3-0.5
		c-0.2-0.3-0.7-0.8-1-1c-0.3-0.2-0.7-0.4-0.9-0.5c-0.6-0.4-1.2-0.6-1.9-0.8c-0.1-0.1-0.2-0.1-0.4-0.1c-0.4-0.1-0.7-0.1-1.1-0.1
		c0,0-0.1,0-0.1,0c0,0-0.2,0-0.4,0c-0.2,0-0.4,0-0.4,0c0,0-0.1,0-0.1,0c-0.4,0-0.7,0.1-1.1,0.1c-0.2,0-0.3,0.1-0.4,0.1
		c-1.1,0.3-2.2,0.9-3.1,1.8c-0.3,0.3-0.8,0.8-1.1,1.1c-0.6,0.7-0.9,1.7-1.1,2.8c-0.1,0.6-0.1,0.8-0.1,1.6l0,0.8l0.1,0.4
		c0.2,0.8,0.2,1.4,0.2,2.2c0,0.7-0.1,1.3-0.3,2c-0.1,0.4-0.3,1-0.4,1.1c0,0,0,0.1-0.1,0.2c0,0.3,0.2,0.5,0.5,0.5c0.1,0,0.1,0,0.2,0
		c0.1,0,0.5-0.8,0.7-1.4c0.2-0.7,0.3-1.4,0.3-2.2c0-0.8-0.1-1.7-0.2-2.2c-0.1-0.3-0.1-0.6-0.2-1c-0.1-0.4,0-1.2,0-1.7
		c0.1-0.6,0.3-1.2,0.4-1.5c0.2-0.4,0.5-0.9,0.8-1.3c0.2-0.3,0.8-0.9,1.1-1.1c1-0.8,2.1-1.2,3.5-1.4c0.2,0,0.4,0,0.7,0
		c0.3,0,0.5,0,0.7,0c1.4,0.2,2.5,0.6,3.5,1.4c0.2,0.2,0.4,0.3,0.5,0.5c0.6,0.6,1,1.1,1.3,1.8c0.2,0.4,0.3,0.7,0.4,1
		c0,0.2,0.1,0.4,0.1,0.7c0.1,0.5,0.1,1.3,0,1.7c0,0.2,0,0.4-0.1,0.5c0,0,0,0,0,0c0,0,0,0,0,0c0,0.2-0.1,0.3-0.1,0.5
		c-0.1,0.5-0.2,1.4-0.2,2.2c0,0.8,0.1,1.6,0.3,2.2c0.2,0.6,0.6,1.4,0.7,1.4c0,0,0.1,0,0.2,0c0.3,0,0.5-0.2,0.5-0.5
		c0-0.1,0-0.2-0.1-0.2C61.4,62.8,61.2,62.2,61.1,61.8z"/>
	<path class="st2" d="M64.7,55.8c0,0,0-0.1,0-0.2c0-0.2,0-0.5-0.1-1c0,0,0,0,0,0c0,0,0,0,0-0.1c-0.1-0.6-0.3-1.7-0.4-1.7
		c0,0,0,0,0,0c-0.6-1.8-1.6-3.4-3-4.7c-1.4-1.2-3.2-2.2-5-2.6c-0.2,0-0.4-0.1-0.4-0.1c-0.1,0-0.1,0-0.1,0c0,0-0.1,0-0.1,0
		c0,0-0.1,0.1-0.2,0.1c-0.2,0.2-0.2,0.6,0.1,0.8c0.1,0.1,0.2,0.1,0.4,0.1c3.4,0.7,5.9,3,7.2,6.5c0.2,0.5,0.3,1.1,0.5,1.6
		c0.2,1.3,0.1,2.9-0.4,4.4c0,0.2-0.1,0.3-0.1,0.4c0,0.1,0.1,0.3,0.2,0.4c0.1,0.1,0.3,0.1,0.4,0c0.1-0.1,0.2-0.1,0.2-0.2
		c0,0,0.1-0.2,0.1-0.2c0.1-0.1,0.3-0.6,0.4-1.1C64.7,57.5,64.7,56.7,64.7,55.8z"/>
	<path class="st2" d="M58,63.5c-0.6-1.5-0.8-3-0.7-4.2c0,0,0,0,0,0c0,0,0,0,0,0c0-0.2,0-0.3,0.1-0.5c0-0.2,0.1-0.4,0.1-0.6
		c0.1-0.5,0.1-0.9,0.1-1.6c0-0.6,0-0.8,0-1c-0.1-0.4-0.1-0.7-0.2-1c-0.1-0.2-0.1-0.4-0.2-0.6c-0.1-0.3-0.2-0.3-0.4-0.5
		c-0.6-0.6-1.4-1.1-2.2-1.3c-0.2,0-0.9-0.1-1.1,0c-0.4,0.1-0.9,0.2-1.1,0.3c-0.3,0.1-0.3,0.5-0.1,0.7c0.1,0.1,0.3,0.1,0.6,0
		c0.3-0.1,0.6-0.1,1-0.1c0.9,0,1.6,0.3,2.2,0.9c0,0.1,0.1,0.1,0.1,0.2c0,0.1,0.1,0.2,0.2,0.3c0.5,1,0.5,2.5,0.1,4.4l-0.1,0.4
		c0,0,0,0,0,0c0,0,0,0,0,0l0,0l0,0.4c0.1,2,0.6,3.8,1.3,5.2c0.2,0.4,0.3,0.5,0.4,0.6c0.2,0.1,0.5,0,0.6-0.2c0.1-0.1,0.1-0.3,0-0.4
		C58.4,64.6,58.2,64.1,58,63.5z"/>
	<path class="st2" d="M59.4,62.4c-0.1-0.2-0.2-0.4-0.3-0.4c-0.2-0.1-0.4,0-0.5,0.2c-0.1,0.1-0.1,0.1-0.1,0.2c0,0.1,0,0.2,0.2,0.6
		c0.1,0.2,0.2,0.5,0.3,0.7c0.2,0.4,0.6,1.2,0.6,1.3c0,0,0.1,0.1,0.2,0.1c0.3,0.1,0.6-0.1,0.6-0.4c0-0.1,0-0.1-0.1-0.4
		C59.8,63.4,59.6,62.8,59.4,62.4z"/>
</g>
</svg>
