<?xml version="1.0" encoding="utf-8"?>
<!-- Generator: Adobe Illustrator 24.0.1, SVG Export Plug-In . SVG Version: 6.00 Build 0)  -->
<svg version="1.1" id="Layer_1" xmlns="http://www.w3.org/2000/svg" xmlns:xlink="http://www.w3.org/1999/xlink" x="0px" y="0px"
	 viewBox="0 0 90 90" style="enable-background:new 0 0 90 90;" xml:space="preserve">
<style type="text/css">
	.st0{fill:#C92F13;}
	.st1{fill:#FDD337;}
	.st2{fill:#F9902C;}
</style>
<circle class="st0" cx="45" cy="45" r="45"/>
<g>
	<g>
		<path class="st1" d="M57.5,62.9c0,5.4,4.4,9.9,9.9,9.9c5.4,0,9.9-4.4,9.9-9.9S72.8,53,67.3,53C61.9,53,57.5,57.4,57.5,62.9z
			 M61.5,62.9C61.5,62.9,61.5,62.9,61.5,62.9c0-0.1,0-0.2,0.1-0.3c0-0.1,0.1-0.2,0.2-0.3c0,0,0,0,0,0l3.7-3.7c0.3-0.3,0.8-0.3,1.2,0
			c0.3,0.3,0.3,0.8,0,1.2L64.3,62h7.9c0.5,0,0.8,0.4,0.8,0.8s-0.4,0.8-0.8,0.8h-7.9l2.3,2.3c0.3,0.3,0.3,0.8,0,1.2
			c-0.2,0.2-0.4,0.2-0.6,0.2s-0.4-0.1-0.6-0.2l-3.7-3.7l0,0c-0.1-0.1-0.1-0.2-0.2-0.3C61.6,63.1,61.5,63,61.5,62.9
			C61.5,62.9,61.5,62.9,61.5,62.9z"/>
		<path class="st1" d="M61.5,62.9C61.5,62.9,61.5,62.9,61.5,62.9C61.5,62.9,61.5,62.9,61.5,62.9C61.5,62.9,61.5,62.9,61.5,62.9z"/>
		<path class="st1" d="M62.1,63.6c-0.1,0-0.2-0.1-0.3-0.2c0,0,0,0,0,0C61.9,63.5,62,63.6,62.1,63.6z"/>
		<polygon class="st1" points="61.8,63.4 61.8,63.4 61.8,63.4 		"/>
		<polygon class="st1" points="61.8,62.3 61.8,62.3 61.8,62.3 		"/>
		<path class="st1" d="M61.8,63.4c-0.1-0.1-0.1-0.2-0.2-0.3C61.6,63.3,61.7,63.4,61.8,63.4C61.8,63.4,61.8,63.4,61.8,63.4z"/>
		<path class="st1" d="M62.4,62c-0.1,0-0.2,0-0.3,0.1C62.1,62.1,62.3,62,62.4,62L62.4,62z"/>
	</g>
	<path class="st2" d="M45,36.5c10.2,0,19.3-2.8,22.3-5.8v-2.1c0-5.6-9.8-10.1-22.3-10.1c-12.5,0-22.3,4.4-22.3,10.1
		C22.6,32.3,32.6,36.5,45,36.5z"/>
	<path class="st2" d="M45,46.6c10.2,0,19.3-2.8,22.3-5.8l0-7.3c-4.8,3.2-13.9,5.2-22.3,5.2c-8.9,0-18.2-2.3-22.3-5.9v5.9
		C22.6,42.3,32.6,46.6,45,46.6z"/>
	<path class="st2" d="M67.3,49.8C67.3,49.8,67.3,49.8,67.3,49.8l0-6.2c-4.8,3.2-13.9,5.2-22.3,5.2c-8.9,0-18.2-2.3-22.3-5.9v5.9
		c0,3.5,10,7.8,22.3,7.8c4.2,0,8.2-0.5,11.6-1.2C58.9,52,62.9,49.8,67.3,49.8z"/>
	<path class="st2" d="M55.2,58c-3.3,0.6-6.8,0.9-10.2,0.9c-8.9,0-18.2-2.3-22.3-5.9v4.8c0,5.6,9.8,10.1,22.3,10.1
		c3.6,0,6.9-0.4,9.9-1c-0.4-1.2-0.6-2.6-0.6-4C54.3,61.1,54.6,59.5,55.2,58z"/>
</g>
</svg>
