<svg xmlns="http://www.w3.org/2000/svg" xmlns:xlink="http://www.w3.org/1999/xlink" width="120" height="120"><defs><path id="A" d="M0 0h21v30.333H0z"/></defs><g fill="none" fill-rule="evenodd"><circle fill="#147894" cx="60" cy="60" r="60"/><g transform="translate(32 32)"><path d="M53.595 45.5h-9.26c-.645 0-1.167-.522-1.167-1.167v-8.167A1.17 1.17 0 0 0 42.001 35h-9.333c-.645 0-1.167.523-1.167 1.167v8.167c0 .645-.524 1.167-1.167 1.167H21c-.645 0-1.167.523-1.167 1.167v8.167c0 .645.52 1.167 1.167 1.167h32.594c.644 0 1.167-.522 1.167-1.167v-8.167c0-.644-.523-1.167-1.167-1.167" fill="#02b6d3"/><g transform="translate(35)"><mask id="B" fill="#fff"><use xlink:href="#A"/></mask><path d="M19.833 9.333h-7c-.645 0-1.167-.522-1.167-1.167v-7C11.667.523 11.144 0 10.5 0H1.167C.522 0 0 .523 0 1.167v18.667C0 20.478.522 21 1.167 21h7c.644 0 1.167.523 1.167 1.167v7c0 .645.522 1.167 1.167 1.167h9.333c.644 0 1.167-.52 1.167-1.167V10.5c0-.644-.523-1.167-1.167-1.167" fill="#13ebf2" mask="url(#B)"/></g><path d="M1.167 23.333h28c.644 0 1.167-.52 1.167-1.167v-7a1.17 1.17 0 0 0-1.167-1.167H12.833c-.645 0-1.167-.52-1.167-1.167V7a1.17 1.17 0 0 0-1.167-1.167H1.167C.522 5.833 0 6.356 0 7v15.167c0 .645.522 1.167 1.167 1.167M28 43.167c.644 0 1.167-.522 1.167-1.167V26.833A1.17 1.17 0 0 0 28 25.666H1.167A1.17 1.17 0 0 0 0 26.833v7C0 34.478.522 35 1.167 35h17.5a1.17 1.17 0 0 1 1.167 1.167V42c0 .645.52 1.167 1.167 1.167h7zm-11.667-5.834H1.167C.522 37.333 0 37.855 0 38.5v16.333C0 55.478.522 56 1.167 56h15.167c.645 0 1.167-.522 1.167-1.167V38.5c0-.645-.52-1.167-1.167-1.167" fill="#02b6d3"/></g></g></svg>