<?xml version="1.0" encoding="utf-8"?>
<!-- Generator: Adobe Illustrator 24.0.1, SVG Export Plug-In . SVG Version: 6.00 Build 0)  -->
<svg version="1.1" id="Layer_1" xmlns="http://www.w3.org/2000/svg" xmlns:xlink="http://www.w3.org/1999/xlink" x="0px" y="0px"
	 viewBox="0 0 90 90" style="enable-background:new 0 0 90 90;" xml:space="preserve" width="90" height="90">
<style type="text/css">
	.st0{fill:#147894;}
	.st1{fill:none;}
	.st2{fill:#02B6D3;}
	.st3{fill:#13EBF2;}
</style>
<circle class="st0" cx="45" cy="45" r="45"/>
<path class="st1" d="M43.7,53.7c0-0.9-0.8-1.7-1.7-1.7s-1.7,0.8-1.7,1.7l0,0c0,0.9,0.8,1.7,1.7,1.7C42.9,55.3,43.7,54.6,43.7,53.7z"
	/>
<path class="st1" d="M42.8,59.5h8.5c-0.4-0.5-0.7-1.1-0.9-1.7h-7.5L42.8,59.5L42.8,59.5z"/>
<g>
	<circle class="st1" cx="41.3" cy="55.3" r="1.7"/>
	<path class="st1" d="M47.2,31H35.4c-1.2,0-2.1,1-2.1,2.1v11.7c0,1.2,1,2.1,2.1,2.1h11.7c1.2,0,2.1-1,2.1-2.1V33.1
		C49.3,31.9,48.4,31,47.2,31z"/>
	<path class="st2" d="M56.3,48.9l1.1,0.6c0.5-0.5,1.1-0.8,1.7-1v-1.3c0-0.2,0.2-0.4,0.4-0.4h2.3V30.6c0-2-1.5-3.6-3.4-3.6H24.2
		c-1.9,0-3.4,1.6-3.4,3.6V51h1.7h32.1l1.1-1.9C55.8,48.9,56.1,48.8,56.3,48.9z M49.3,44.9c0,1.2-1,2.1-2.1,2.1H35.4
		c-1.2,0-2.1-1-2.1-2.1V33.1c0-1.2,1-2.1,2.1-2.1h11.7c1.2,0,2.1,1,2.1,2.1V44.9z"/>
	<path class="st3" d="M41.3,32.7c-3.5,0-6.3,2.8-6.3,6.3c0,3.5,2.8,6.3,6.3,6.3s6.3-2.8,6.3-6.3C47.6,35.5,44.8,32.7,41.3,32.7z
		 M40,37.1c0.1-0.2,0.2-0.3,0.3-0.5c0,0,0.1-0.1,0.1-0.1c0.3-0.1,0.6,0.1,0.7,0.4c0,0.1,0,0.2,0,0.3c-0.1,0.1-0.1,0.3-0.2,0.4
		c0,0-0.1,0.1-0.1,0.1c-0.1,0-0.1-0.1-0.2-0.1c0,0,0,0-0.1,0c-0.1-0.1-0.2-0.1-0.3-0.2c-0.1,0-0.1-0.1-0.2-0.1
		C40,37.2,40,37.2,40,37.1z M37,39.8c0-0.3,0-0.5,0-0.8c0-0.1,0-0.1,0.1-0.1c0.3,0,0.5,0,0.8,0c0,0,0,0,0,0c0.3,0,0.5,0,0.8,0
		c0.1,0,0.1,0,0,0.1c-0.2,0.3-0.3,0.5-0.5,0.8c0,0,0,0.1-0.1,0.1C37.8,39.9,37.5,39.9,37,39.8C37,39.9,37,39.9,37,39.8z M38.6,41.6
		c-0.3,0.3-0.7,0.6-1,0.9c-0.1,0.1-0.1,0.1-0.2,0.2c0-0.2,0.1-0.3,0.1-0.5c0-0.2,0.1-0.3,0.1-0.5c0.1-0.2,0.1-0.4,0.2-0.6
		c0-0.1,0-0.1,0.1,0C38.1,41.2,38.3,41.4,38.6,41.6C38.5,41.5,38.6,41.5,38.6,41.6z M38.9,41c-0.1,0.1-0.1,0.2-0.2,0.3
		c0,0,0,0.1-0.1,0c-0.3-0.2-0.5-0.3-0.8-0.5c0,0,0,0,0-0.1c0.1-0.2,0.2-0.3,0.3-0.5c0.1-0.2,0.2-0.3,0.3-0.5
		c0.2-0.3,0.4-0.6,0.5-0.9c0.2-0.3,0.4-0.7,0.6-1c0,0,0,0,0,0c0.1-0.1,0.2-0.3,0.3-0.4c0.1-0.1,0.1-0.1,0.2,0
		c0.1,0.1,0.2,0.1,0.4,0.2c0.1,0,0.2,0.1,0.3,0.2c0,0,0,0.1,0,0.1c-0.1,0.1-0.2,0.3-0.2,0.4c-0.1,0.2-0.2,0.4-0.3,0.5
		c0,0,0,0.1-0.1,0.1c-0.2,0.4-0.5,0.8-0.7,1.2C39.2,40.4,39.1,40.7,38.9,41z M39.7,39.9c0.2-0.3,0.4-0.6,0.5-0.9
		c0,0,0.1-0.1,0.1-0.1c0.6,0,1.3,0,1.9,0c0.1,0,0.1,0,0.1,0.1c0.1,0.3,0.3,0.5,0.4,0.8c0,0,0,0.1,0,0.1
		C41.8,39.9,40.7,39.9,39.7,39.9z M43.1,39.8c-0.2-0.3-0.3-0.5-0.5-0.8c0,0,0-0.1-0.1-0.1c-0.1,0-0.1-0.1-0.1-0.2
		c-0.2-0.4-0.5-0.7-0.7-1.1c0,0,0-0.1,0-0.1c-0.1-0.2-0.2-0.4-0.4-0.7c-0.2-0.3-0.3-0.6-0.5-0.9c0-0.1-0.1-0.2-0.1-0.3
		c0-0.2,0.1-0.4,0.3-0.5c0.1,0,0.2,0,0.3,0c0.2,0.1,0.3,0.3,0.4,0.5c0.3,0.7,0.7,1.4,1.1,2c0,0,0,0,0,0c0.1,0.2,0.2,0.4,0.3,0.6
		c0.2,0.3,0.4,0.6,0.5,0.9c0,0,0,0.1,0,0.1c-0.2,0.1-0.5,0.3-0.7,0.4C43.1,39.9,43.1,39.9,43.1,39.8z M43.7,40.8
		c-0.1-0.2-0.3-0.4-0.4-0.6c0,0,0,0,0,0c0-0.1-0.1-0.1-0.1-0.1c0,0,0.1-0.1,0.1-0.1c0.2-0.1,0.4-0.2,0.6-0.3c0.1,0,0.1,0,0.1,0
		c0.1,0.2,0.3,0.4,0.4,0.6c0,0,0,0,0,0c0.1,0.1,0.1,0.1-0.1,0.2C44.2,40.6,44,40.7,43.7,40.8C43.7,40.8,43.7,40.8,43.7,40.8z
		 M45.2,42.2c0,0.2-0.1,0.3-0.2,0.4c0,0,0,0.1-0.1,0.1c0-0.1-0.1-0.3-0.1-0.4c0-0.1-0.1-0.2-0.2-0.3c-0.1-0.1-0.2-0.1-0.3-0.2
		c-0.1-0.1-0.2-0.2-0.3-0.3c-0.1-0.2-0.2-0.4-0.2-0.7c0,0,0-0.1,0.1-0.1c0.2-0.1,0.4-0.2,0.6-0.3c0,0,0.1,0,0.1,0
		c0.3,0.2,0.5,0.6,0.6,1c0,0,0,0.1,0,0.1C45.2,41.8,45.2,42,45.2,42.2z M45.6,39.8C45.6,39.9,45.6,39.9,45.6,39.8
		c-0.4,0.1-0.8,0.1-1.2,0.1c0,0-0.1,0-0.1-0.1c-0.1-0.3-0.3-0.5-0.4-0.8c0-0.1,0-0.1,0-0.1c0.3,0,0.5,0,0.8,0c0.3,0,0.5,0,0.8,0
		c0.1,0,0.1,0,0.1,0.1C45.6,39.3,45.6,39.6,45.6,39.8z"/>
	<path class="st3" d="M47.2,31H35.4c-1.2,0-2.1,1-2.1,2.1v11.7c0,1.2,1,2.1,2.1,2.1h11.7c1.2,0,2.1-1,2.1-2.1V33.1
		C49.3,31.9,48.4,31,47.2,31z M41.3,45.9c-3.8,0-6.9-3.1-6.9-6.9c0-3.8,3.1-6.9,6.9-6.9s6.9,3.1,6.9,6.9
		C48.2,42.8,45.1,45.9,41.3,45.9z"/>
	<path class="st0" d="M44.6,40.6c0,0-0.1,0-0.1,0c-0.2,0.1-0.4,0.2-0.6,0.3c0,0-0.1,0-0.1,0.1c0,0.2,0,0.5,0.2,0.7
		c0.1,0.1,0.2,0.2,0.3,0.3c0.1,0.1,0.2,0.1,0.3,0.2c0.1,0.1,0.2,0.2,0.2,0.3c0,0.1,0.1,0.3,0.1,0.4c0,0,0,0,0.1-0.1
		c0.1-0.1,0.1-0.3,0.2-0.4c0-0.2,0.1-0.4,0.1-0.6c0,0,0-0.1,0-0.1C45.1,41.1,45,40.8,44.6,40.6z"/>
	<path class="st0" d="M37.8,41.1c-0.1-0.1-0.1-0.1-0.1,0c-0.1,0.2-0.1,0.4-0.2,0.6c0,0.2-0.1,0.3-0.1,0.5c0,0.2-0.1,0.3-0.1,0.5
		c0.1-0.1,0.2-0.1,0.2-0.2c0.3-0.3,0.7-0.6,1-0.9c0,0,0-0.1,0-0.1C38.3,41.4,38.1,41.2,37.8,41.1z"/>
	<path class="st0" d="M43.9,39.3c-0.2-0.3-0.4-0.6-0.5-0.9c-0.1-0.2-0.2-0.4-0.3-0.6c0,0,0,0,0,0c-0.4-0.7-0.8-1.3-1.1-2
		c-0.1-0.2-0.2-0.4-0.4-0.5c-0.1,0-0.2,0-0.3,0c-0.2,0.1-0.3,0.3-0.3,0.5c0,0.1,0,0.2,0.1,0.3c0.2,0.3,0.3,0.6,0.5,0.9
		c0.1,0.2,0.3,0.4,0.4,0.7c0,0,0,0.1,0,0.1c0.2,0.4,0.4,0.7,0.7,1.1c0,0.1,0.1,0.1,0.1,0.2c0,0,0,0.1,0.1,0.1
		c0.1,0.3,0.3,0.5,0.5,0.8c0,0,0,0.1,0.1,0C43.4,39.7,43.6,39.6,43.9,39.3C43.9,39.4,43.9,39.4,43.9,39.3z"/>
	<path class="st0" d="M40.1,38.9c0.1-0.2,0.2-0.4,0.3-0.5c0.1-0.1,0.2-0.3,0.2-0.4c0,0,0-0.1,0-0.1c-0.1-0.1-0.2-0.2-0.3-0.2
		c-0.1-0.1-0.2-0.1-0.4-0.2c-0.1-0.1-0.1-0.1-0.2,0c-0.1,0.1-0.2,0.3-0.3,0.4c0,0,0,0,0,0c-0.2,0.3-0.4,0.7-0.6,1
		c-0.2,0.3-0.3,0.6-0.5,0.9c-0.1,0.2-0.2,0.3-0.3,0.5c-0.1,0.2-0.2,0.3-0.3,0.5c0,0,0,0,0,0.1c0.3,0.2,0.5,0.3,0.8,0.5
		c0,0,0.1,0,0.1,0c0.1-0.1,0.1-0.2,0.2-0.3c0.2-0.3,0.3-0.6,0.5-0.9C39.6,39.8,39.9,39.4,40.1,38.9C40.1,39,40.1,38.9,40.1,38.9z"/>
	<path class="st0" d="M44.4,40.3C44.4,40.3,44.4,40.3,44.4,40.3c-0.1-0.2-0.3-0.4-0.4-0.6c0-0.1-0.1-0.1-0.1,0
		c-0.2,0.1-0.4,0.2-0.6,0.3c-0.1,0-0.1,0.1-0.1,0.1c0,0,0,0.1,0.1,0.1c0,0,0,0,0,0c0.1,0.2,0.3,0.4,0.4,0.6c0,0,0.1,0,0.1,0
		c0.2-0.1,0.4-0.2,0.6-0.3C44.5,40.4,44.5,40.4,44.4,40.3z"/>
	<path class="st0" d="M40.2,37.4c0.1,0.1,0.2,0.1,0.3,0.2c0,0,0,0,0.1,0c0.1,0,0.1,0.1,0.2,0.1c0.1,0,0.1-0.1,0.1-0.1
		c0.1-0.1,0.1-0.3,0.2-0.4c0-0.1,0-0.2,0-0.3c-0.1-0.2-0.4-0.4-0.7-0.4c-0.1,0-0.1,0-0.1,0.1c-0.1,0.1-0.2,0.3-0.3,0.5
		c0,0.1,0,0.1,0,0.1C40.1,37.3,40.2,37.4,40.2,37.4z"/>
	<path class="st0" d="M42.4,39c0,0-0.1-0.1-0.1-0.1c-0.6,0-1.3,0-1.9,0c-0.1,0-0.1,0-0.1,0.1c-0.2,0.3-0.4,0.6-0.5,0.9
		c1.1,0,2.1,0,3.2,0c0,0,0-0.1,0-0.1C42.7,39.5,42.5,39.3,42.4,39z"/>
	<path class="st0" d="M45.5,39c-0.3,0-0.5,0-0.8,0c-0.3,0-0.5,0-0.8,0c-0.1,0-0.1,0,0,0.1c0.1,0.3,0.3,0.5,0.4,0.8
		c0,0,0,0.1,0.1,0.1c0.4,0,0.7,0,1.1,0c0.1,0,0.1,0,0.1-0.1C45.6,39.6,45.6,39.3,45.5,39C45.6,39,45.6,39,45.5,39z"/>
	<path class="st0" d="M38.3,39.8c0.2-0.3,0.3-0.5,0.5-0.8c0-0.1,0-0.1,0-0.1c-0.3,0-0.5,0-0.8,0c0,0,0,0,0,0c-0.3,0-0.5,0-0.8,0
		C37,39,37,39,37,39c0,0.3,0,0.5,0,0.8c0,0.1,0,0.1,0.1,0.1C37.5,39.9,37.8,39.9,38.3,39.8C38.2,39.9,38.3,39.9,38.3,39.8z"/>
	<path class="st0" d="M41.3,32.1c-3.8,0-6.9,3.1-6.9,6.9c0,3.8,3.1,6.9,6.9,6.9s6.9-3.1,6.9-6.9C48.2,35.2,45.1,32.1,41.3,32.1z
		 M41.3,45.3c-3.5,0-6.3-2.8-6.3-6.3c0-3.5,2.8-6.3,6.3-6.3s6.3,2.8,6.3,6.3C47.6,42.5,44.8,45.3,41.3,45.3z"/>
	<path class="st3" d="M69,57.2l-1.1-0.6c0-0.3,0.1-0.6,0.1-1c0-0.3,0-0.6-0.1-1l1.1-0.6c0.2-0.1,0.3-0.4,0.2-0.6l-1.8-3
		c-0.1-0.1-0.2-0.2-0.3-0.2c-0.1,0-0.2,0-0.3,0l-1.1,0.6c-0.5-0.4-1-0.7-1.6-1v-1.3c0-0.2-0.2-0.4-0.4-0.4h-3.5
		c-0.2,0-0.4,0.2-0.4,0.4v1.3c-0.6,0.2-1.2,0.5-1.7,1l-1.1-0.6c-0.2-0.1-0.5,0-0.6,0.2l-1.8,3c-0.1,0.1-0.1,0.2,0,0.3
		c0,0.1,0.1,0.2,0.2,0.3l1.1,0.6c-0.1,0.3-0.1,0.6-0.1,1c0,0.3,0,0.6,0.1,1l-1.1,0.6c-0.2,0.1-0.3,0.4-0.2,0.6l1.8,3
		c0.1,0.2,0.4,0.3,0.6,0.2l1.1-0.6c0.5,0.5,1.1,0.8,1.7,1v1.3c0,0.2,0.2,0.4,0.4,0.4h3.5c0.2,0,0.4-0.2,0.4-0.4v-1.3
		c0.7-0.2,1.2-0.6,1.6-1l1.1,0.6c0.1,0.1,0.2,0.1,0.3,0c0.1,0,0.2-0.1,0.3-0.2l1.7-3C69.3,57.6,69.3,57.3,69,57.2z M61.9,58.6
		c-1.7,0-3.1-1.4-3.1-3.1c0-1.7,1.4-3.1,3.1-3.1c1.7,0,3.1,1.4,3.1,3.1C64.9,57.2,63.6,58.6,61.9,58.6z"/>
	<circle class="st1" cx="41.3" cy="55.3" r="1.7"/>
	<path class="st2" d="M53.4,57.2l1.1-0.6c-0.1-0.3-0.1-0.6-0.1-1c0-0.3,0-0.6,0.1-1l-1.1-0.6c-0.1-0.1-0.2-0.2-0.2-0.3
		c0-0.1,0-0.2,0-0.3l0.4-0.6H22.4h-1.7V56c0,2,1.5,3.6,3.4,3.6h16.3v1.7H29.3c-0.5,0-0.9,0.4-0.9,0.9c0,0.5,0.4,0.9,0.9,0.9h24
		c0.5,0,0.9-0.4,0.9-0.9c0-0.5-0.4-0.9-0.9-0.9H42.2v-1.7h12.1l-0.6-1l-0.5-0.8C53.1,57.6,53.2,57.3,53.4,57.2z M41.3,57
		c-0.9,0-1.7-0.8-1.7-1.7s0.8-1.7,1.7-1.7s1.7,0.8,1.7,1.7S42.3,57,41.3,57z"/>
</g>
</svg>
