<svg xmlns="http://www.w3.org/2000/svg" width="80" height="80" fill-rule="nonzero"><circle fill="#cf1e0a" cx="40" cy="40" r="40"/><path d="M23.073 47.345l3.868-2.352c.746 1.33 1.425 2.455 3.054 2.455 1.56 0 2.545-.613 2.545-3v-16.23h4.75v16.297c0 4.944-2.884 7.194-7.092 7.194-3.8 0-6.006-1.978-7.126-4.364m16.7-.456l3.762-2.224c1 1.652 2.278 2.865 4.555 2.865 1.915 0 3.135-.977 3.135-2.326 0-1.618-1.254-2.2-3.366-3.134l-1.155-.506c-3.334-1.45-5.545-3.27-5.545-7.1 0-3.54 2.64-6.235 6.766-6.235 2.937 0 5.05 1.045 6.568 3.775l-3.598 2.36c-.792-1.45-1.65-2.022-2.97-2.022-1.353 0-2.2.876-2.2 2.022 0 1.415.858 2 2.838 2.865l1.155.505c3.928 1.72 6.14 3.47 6.14 7.414 0 4.247-3.267 6.572-7.657 6.572-4.3 0-7.063-2.1-8.416-4.82" fill="#fff"/></svg>