<svg xmlns="http://www.w3.org/2000/svg" width="80" height="80" fill-rule="nonzero"><circle fill="#f9b928" cx="40" cy="40" r="40"/><path d="M33.606 51.476s-1.814 1.057 1.3 1.414c3.762.43 5.685.368 9.83-.418 0 0 1.1.684 2.612 1.277-9.294 4-21.034-.23-13.734-2.274M32.47 46.27s-2.035 1.508 1.073 1.83c4.02.415 7.192.45 12.684-.6a5.63 5.63 0 0 0 1.954 1.193c-11.237 3.3-23.753.26-15.7-2.413m9.36-9.35c2.37 2.674-.623 5.08-.623 5.08s6.017-3.044 3.254-6.856c-2.58-3.555-4.56-5.32 6.155-11.4 0 0-16.82 4.116-8.786 13.187m12.47 18.1s1.355 1.103-1.492 1.957c-5.414 1.62-22.533 2.1-27.288.065-1.7-.735 1.496-1.755 2.505-1.97 1.052-.225 1.653-.183 1.653-.183-1.9-1.324-12.288 2.6-5.276 3.722 19.123 3.065 34.86-1.38 29.9-3.592M34.26 40.64s-8.708 2.044-3.083 2.786c2.375.314 7.108.243 11.518-.122 3.604-.3 7.222-.94 7.222-.94s-1.27.538-2.2 1.158c-8.843 2.3-25.925 1.23-21.007-1.122 4.16-1.987 7.54-1.762 7.54-1.762m15.62 8.63c9-4.617 4.833-9.053 1.932-8.455-.7.146-1.028.273-1.028.273s.264-.4.768-.585c5.74-1.994 10.153 5.882-1.853 9 0 0 .14-.123.18-.233M44.487 14s4.908 4.96-4.655 12.588c-7.668 6.12-1.75 9.608-.003 13.594-4.476-4.08-7.76-7.672-5.557-11.016C37.506 24.26 46.467 21.88 44.487 14M35.4 61.96c8.525.52 21.615-.288 21.925-4.12 0 0-.596 1.453-7.045 2.607-7.276 1.3-16.25 1.15-21.572.315 0 0 1.1.857 6.692 1.198" fill="#fff"/></svg>