<svg xmlns="http://www.w3.org/2000/svg" viewBox="0 0 90 90"><circle cx="45" cy="45" r="45" fill="#147894"/><g fill="#13ebf2"><path d="M62 24.08a1.27 1.27 0 0 0 0-.28.53.53 0 0 0 0-.12c0-.05 0-.1-.05-.15a.83.83 0 0 0-.07-.13.6.6 0 0 0-.06-.11 1.84 1.84 0 0 0-.17-.22h0a1.2 1.2 0 0 0-.21-.17l-.1-.06-.13-.07-.2-.05h-.12a1.15 1.15 0 0 0-.26 0h-7.1a1.42 1.42 0 1 0 0 2.84h3.67l-8.93 8.92a1.43 1.43 0 0 0 0 2 1.44 1.44 0 0 0 2 0l8.92-8.93v3.67a1.42 1.42 0 1 0 2.84 0zm-24.8-1.42a.71.71 0 0 0 .71-.71v-.7h.7a.71.71 0 1 0 0-1.42h-1.4a.71.71 0 0 0-.71.71V22a.71.71 0 0 0 .71.66zm26.95-2.84h-1.42a.71.71 0 1 0 0 1.42h.7V22a.71.71 0 0 0 1.42 0v-1.47a.71.71 0 0 0-.71-.71zM37.2 26.9a.71.71 0 0 0 .71-.71v-1.4a.71.71 0 1 0-1.42 0v1.4a.71.71 0 0 0 .71.71zm4.25-5.66h1.42a.71.71 0 1 0 0-1.42h-1.42a.71.71 0 1 0 0 1.42zm4.25 0h1.42a.71.71 0 1 0 0-1.42H45.7a.71.71 0 0 0 0 1.42zm4.3 0h1.42a.71.71 0 1 0 0-1.42H50a.71.71 0 0 0 0 1.42zm4.22 0h1.42a.71.71 0 0 0 0-1.42h-1.42a.71.71 0 0 0 0 1.42zm4.26 0h1.4a.71.71 0 0 0 0-1.42h-1.4a.71.71 0 1 0 0 1.42zm-7.1 25.53H50a.71.71 0 0 0 0 1.42h1.42a.71.71 0 0 0 0-1.42zm4.26 0h-1.42a.71.71 0 0 0 0 1.42h1.42a.71.71 0 0 0 0-1.42zm4.26 0h-1.4a.71.71 0 0 0 0 1.42h1.4a.71.71 0 0 0 0-1.42zm4.25-1.42a.71.71 0 0 0-.71.71v.7h-.7a.71.71 0 0 0 0 1.42h1.42a.71.71 0 0 0 .71-.71v-1.42a.71.71 0 0 0-.71-.71zm0-4.25a.71.71 0 0 0-.71.71v1.42a.71.71 0 0 0 1.42 0V41.8a.71.71 0 0 0-.71-.71zm0-4.26a.71.71 0 0 0-.71.71V39a.71.71 0 0 0 1.42 0v-1.45a.71.71 0 0 0-.71-.71zm0-4.24a.71.71 0 0 0-.71.71v1.42a.71.71 0 0 0 1.42 0V33.3a.71.71 0 0 0-.71-.71z"/><path d="M64.15 28.33a.71.71 0 0 0-.71.71v1.42a.71.71 0 0 0 1.42 0V29a.71.71 0 0 0-.71-.67zm-26.95 7.1a.7.7 0 0 0 .71-.7V33.3a.71.71 0 1 0-1.42 0v1.42a.7.7 0 0 0 .71.7zm0-4.25a.71.71 0 0 0 .71-.71V29a.71.71 0 0 0-1.42 0v1.42a.71.71 0 0 0 .71.75zm26.95-7.1a.71.71 0 0 0-.71.71v1.4a.71.71 0 0 0 1.42 0v-1.4a.71.71 0 0 0-.71-.71z"/></g><path d="M31.56 48.12a.74.74 0 0 0 .18.55.76.76 0 0 0 .53.23h14.1a.76.76 0 0 0 .53-.23.74.74 0 0 0 .18-.55 7.82 7.82 0 0 0-3.34-5.61l.68-.9a6.66 6.66 0 0 0 1.29-3.35v-1.42a.7.7 0 0 0-.7-.71h0a.71.71 0 0 0-.71.71v1.42a5.34 5.34 0 0 1-1 2.49l-.8 1a7.57 7.57 0 0 0-6.36 0l-.8-1a5.34 5.34 0 0 1-1-2.49v-1.42a.71.71 0 0 0-.71-.71h0a.71.71 0 0 0-.71.71v1.43a6.64 6.64 0 0 0 1.28 3.34l.68.9a7.85 7.85 0 0 0-3.34 5.61zM48.2 56a4.61 4.61 0 0 1 2.69 1.21l1.42 1.42a.71.71 0 0 0 1-1L51.9 56.2a6 6 0 0 0-3.69-1.62h-1.06v-2.84h1.06A4.55 4.55 0 0 1 50.88 53l1.42 1.42a.7.7 0 0 0 1 0 .71.71 0 0 0 0-1L51.88 52a5.93 5.93 0 0 0-3.69-1.63H30.46A5.93 5.93 0 0 0 26.77 52l-1.42 1.4a.71.71 0 0 0 0 1 .7.7 0 0 0 1 0l1.42-1.4a4.58 4.58 0 0 1 2.69-1.21h1.06v2.84h-1.06a6 6 0 0 0-3.69 1.62l-1.42 1.42a.71.71 0 1 0 1 1l1.42-1.42A4.64 4.64 0 0 1 30.46 56h1.06v2.84h-1.06a6 6 0 0 0-3.69 1.63l-1.42 1.42a.71.71 0 1 0 1 1l1.42-1.42a4.64 4.64 0 0 1 2.69-1.21h1.13c.7 4.13 7 9.52 7.28 9.76a.69.69 0 0 0 .91 0c.3-.24 6.6-5.63 7.28-9.76h1.13a4.61 4.61 0 0 1 2.69 1.21l1.42 1.42a.71.71 0 0 0 1-1l-1.42-1.42a6 6 0 0 0-3.69-1.63h-1.06V56zm-10.46 3.5a.65.65 0 0 1 0 .94.67.67 0 0 1-.48.2.63.63 0 0 1-.47-.2l-3.3-3.2a.64.64 0 0 1-.21-.47.68.68 0 0 1 .21-.48l3.3-3.2a.7.7 0 0 1 .95 0 .66.66 0 0 1 0 .95l-2.82 2.72zm7.45-2.25l-3.3 3.2a.67.67 0 0 1-.48.2.63.63 0 0 1-.47-.2.63.63 0 0 1 0-.94l2.82-2.72-2.82-2.72a.64.64 0 0 1 0-.95.7.7 0 0 1 .95 0l3.3 3.2a.67.67 0 0 1 .2.48.63.63 0 0 1-.2.46z" fill="#02b6d3"/></svg>