<svg xmlns="http://www.w3.org/2000/svg" viewBox="0 0 90 90"><circle cx="45" cy="45" r="45" fill="#59558e"/><path d="M60.08 29.9a4.27 4.27 0 0 0-4.27-4.26H28.5a4.26 4.26 0 0 0-4.26 4.26v2.56h35.82zm-29.85.86a.86.86 0 0 1-.85-.86.85.85 0 0 1 1.7 0 .86.86 0 0 1-.85.86zm3.4 0a.86.86 0 0 1-.85-.86.85.85 0 1 1 1.7 0 .86.86 0 0 1-.85.86zm3.4 0a.86.86 0 0 1-.85-.86.85.85 0 0 1 .85-.85.86.86 0 1 1 0 1.71zm16.2 22.72a8.18 8.18 0 0 1 0-11.55A8.1 8.1 0 0 1 59 39.55a9.63 9.63 0 0 1 1.08.07v-5.45H24.26v16.2a4.26 4.26 0 0 0 4.26 4.26h26.2a8.23 8.23 0 0 1-1.49-1.15zm-12.53-6a1.15 1.15 0 0 1-.62 1l-5.5 3.1a1.21 1.21 0 0 1-1.22 0l-1.65-.95a1 1 0 0 1-.32-.23c.07-.1.2-.1.3-.15a3.83 3.83 0 0 0 .65-.3.15.15 0 0 1 .17 0l1.4.8c.1.06.2 0 .3-.06l5.4-3a.18.18 0 0 0 .1-.17v-6.3a.21.21 0 0 0-.12-.19L34.12 38a.18.18 0 0 0-.22 0l-5.47 3a.22.22 0 0 0-.12.19v6.2a.19.19 0 0 0 .1.17l1.47.83a1.16 1.16 0 0 0 .91.12.7.7 0 0 0 .45-.65v-6.1a.16.16 0 0 1 .17-.16h.7a.16.16 0 0 1 .15.19V48a1.55 1.55 0 0 1-.73 1.41 2.25 2.25 0 0 1-2 0l-1.57-.87a1.15 1.15 0 0 1-.62-1v-6.3a1.17 1.17 0 0 1 .59-1l5.5-3.1a1.22 1.22 0 0 1 1.2 0l5.52 3.12a1.13 1.13 0 0 1 .57 1zm-3.34-2a.61.61 0 0 0-.46-.36c-.95-.3-2-.2-2.92-.54a1.43 1.43 0 0 1-.9-.78 1.62 1.62 0 0 1 .32-1.67 2.61 2.61 0 0 1 1.6-.64h0a4.4 4.4 0 0 1 2.38.36 1.81 1.81 0 0 1 .87 1.55.17.17 0 0 1-.18.13h-.7c-.1 0-.15-.1-.16-.18a1.07 1.07 0 0 0-.51-.73 3.12 3.12 0 0 0-1.39-.2 1.87 1.87 0 0 0-1 .25.63.63 0 0 0-.21.7c.07.18.28.24.44.3 1 .25 2 .23 2.93.56a1.39 1.39 0 0 1 .91.81 1.74 1.74 0 0 1-.3 1.64 2.3 2.3 0 0 1-1.23.67 6.17 6.17 0 0 1-1.87.08 3 3 0 0 1-1.64-.62 1.72 1.72 0 0 1-.56-1.36.16.16 0 0 1 .17-.14h.7a.16.16 0 0 1 .17.16 1.06 1.06 0 0 0 .4.75 3 3 0 0 0 1.61.29 2.24 2.24 0 0 0 1.32-.32.75.75 0 0 0 .21-.75z" fill="#8989ce"/><path d="M54.34 42.87a6.68 6.68 0 0 0 0 9.44 6.49 6.49 0 0 0 2.39 1.53v3.64L55.6 58.6l1.13 1.12V60l-1.12 1.13 1.13 1.13v.26l-1.13 1.13 1.13 1.13V66l2.34 2.33L61.42 66V53.83a6.53 6.53 0 0 0 2.38-1.53 6.68 6.68 0 0 0-9.45-9.43zm6 3.45a1.78 1.78 0 1 1 0-2.52 1.78 1.78 0 0 1-.02 2.52z" fill="#c8c8fc"/></svg>