<svg xmlns="http://www.w3.org/2000/svg" width="53" height="60"><path d="M28.662 11.607c.73-.514-1.08-1.81-.54-.622.54.432.27.703.54.622h0zm-7.567.243c.298-1.162-1.27-1.054-.784-.757.243.243.513.405.784.757h0zm8.92 2.243c1.892-8.324-4.595-8.216-4.702-1.865l1.243.486c.514-5.567 3.946-2.19 2.378 1.08.54.162.81.324 1.08.324v-.027zm-9.865-.514c-1.92-3.216 1.703-5.054 1.757-1.19.27-.108.54-.27.81-.405-.243-7.216-6.027-3.838-3.432 2.46.216-.297.46-.54.865-.865h0zm9.324 4.513c.81-.378 1.08-.46 1.08-1 0-1.838 0-2.108-1.35-2.54-2.703-.595-5.135-2.676-7.567-1.324-1.19.54-4.702 3.513-2.92 4.027 1.432.865 3.027 1.243 4.54 1.27 2.432.027 4.324-2.486 5.946-2.838 1.892-.108-.54.946-1.08 1.297-2.162 1.703-5.676 2.946-8.243 1.757 2.297 4.324 7.162.73 9.594-.65h0zm3.784 30.648c.81-.81-.27-3.513 0-5.676.27-1.892 2.703-2.432 3.784-2.432 3.35-9.135-6.162-15.784-6.486-22.243-4.324 4.946-8.92 6.838-11.35.568-1.568 7.432-6.973 12.513-7.162 20.594.27 3.243 10.946 4.865 5.865 10.27 1.054 1.08 1.35 2.162 2.19 3.243 4.513 1.622 11.54 0 13.162-4.324h0zm8.65 7.297c2.432-2.162 7.567-3.513 7.567-5.676S47.04 48.2 46.23 47.12c-.81-1.35-.81-3.784-2.162-4.054-2.432 2.054-6.73 3.757-6.757-.54-1.892-.54-2.432.54-2.162 2.973.81 4.054-1.892 9.46 0 11.08 2.432 2.162 4.595 1.35 6.757-.54h0zm-25.19-5.676c-2.27-2.297-4.08-8.865-7.027-8.92-1.81 0-2.973 3.243-4.216 3.243-3.35.54-3.65 1.892-2.92 3.513 1.19 2.703-.65 3.513-.676 5.135-.027 2.162 8.81 3.243 10.92 4.054 6.784 2.703 6.703-3.513 3.92-7.027h0zm16 6.757c-2.973-1.892-10.27-1.35-11.892-1.08-1.676 4.054-5.243 4.324-8.054 3.243-4-1.622-7.35-1.622-11.378-3.513-1.216-.54-1.622-1.35-1.27-2.432.65-1.892 1.486-3.243.946-4.865-.595-1.892-.35-4.054 2.19-4.865 3.27-.54 3.378-2.703 4.92-3.243 2.19-12.973 6.865-16.756 9.838-21.027-.135-4.243-.757-7.676-.487-11.892 1.865-11.432 16.27-8.46 17.892.568.54 3.08 0 5.405.54 8.35 1.08 4.81 5.676 7.513 7.297 11.027 1.892 4.054 4.595 10.27 2.432 14.054 1.622.54 1.892 2.162 2.162 3.784.27 2.162 3.243 2.703 4.054 4.324.54 1.08 0 2.162-.81 2.973-2.432 1.892-5.405 2.703-7.838 4.865-2.973 2.973-9.46 4.054-10.54-.27h0z" fill="#3e4e50" fill-rule="evenodd"/></svg>