<svg xmlns="http://www.w3.org/2000/svg" xmlns:xlink="http://www.w3.org/1999/xlink" viewBox="0 0 90 90" height="90" width="90"><circle cx="45" cy="45" r="45" fill="#c92f13"/><path d="M159 100.1c-.1 0-.1.1-.2.1.1.1.1.2.2.3v-.4zM93.8 67.4c.1 0 .1.1.2.1-.1.1-.1.2-.2.3v-.4z" fill="#636466"/><g fill="#fdd337"><use xlink:href="#B"/><use xlink:href="#C"/><path d="M25.4 64.2h0c-4.6 0-9.3-1.2-11.5-3v2.4c0 2.9 5 5.2 11.5 5.2h0c6.4 0 11.5-2.3 11.5-5.2v-2.4c-2.2 1.8-7 3-11.5 3z"/><use xlink:href="#D"/><use xlink:href="#B" x="39.1"/><use xlink:href="#C" x="39.1"/><path d="M64.5 64.2h0c-4.6 0-9.3-1.2-11.5-3v2.4c0 2.9 5 5.2 11.5 5.2h0c6.4 0 11.5-2.3 11.5-5.2v-2.4c-2.2 1.8-6.9 3-11.5 3z"/><use xlink:href="#D" x="39.1"/></g><path d="M25.4 37.8V24.2a.47.47 0 0 1 .5-.5h5.2m33.5 14.1V24.2a.47.47 0 0 0-.5-.5h-5.2" fill="none" stroke="#f9902c" stroke-width="2" stroke-linecap="round" stroke-miterlimit="10"/><path d="M51.8 17.4h-.3V15c0-3.6-2.9-6.6-6.6-6.6-3.6 0-6.6 2.9-6.6 6.6v2.3H38a2.26 2.26 0 0 0-2.3 2.3v11.6a2.26 2.26 0 0 0 2.3 2.3h13.6a2.26 2.26 0 0 0 2.3-2.3V19.7c.3-1.3-.8-2.3-2.1-2.3zM40.7 15c0-2.4 1.9-4.3 4.3-4.3s4.3 1.9 4.3 4.3v2.3h-8.6V15zm5 14.6h-1.8v-.7h.8V26h-.4v-.7h.4v-2.4c-.4-.1-.7-.3-.9-.6 0-.1-.1-.1-.1-.2V22c0-.1-.1-.1-.1-.2V21c0-.1.1-.2.1-.3.2-.6.8-1 1.5-1s1.3.4 1.5 1c0 .1.1.2.1.3v.3c0 .7-.5 1.3-1.1 1.6h0v6.7z" fill="#f9902c"/><defs ><path id="B" d="M25.4 52.7c-5.2 0-9.9-1.4-11.5-3v-1.1c0-2.9 5-5.2 11.5-5.2 6.4 0 11.5 2.3 11.5 5.2 0 1.9-5.1 4.1-11.5 4.1z"/><path id="C" d="M26.4 59h-2c-4.2-.2-8.5-1.3-10.5-3v3c0 1.8 4.9 3.9 11 4h.1c6.1-.1 11.9-2.2 11.9-4v-3c-2 1.7-6.3 2.9-10.5 3z"/><path id="D" d="M26.5 53.9h-2c-4.2-.2-8.5-1.3-10.5-3v3c0 1.8 4.9 3.9 11 4h.1c6.1-.1 11.9-2.2 11.9-4v-3c-2 1.7-6.3 2.8-10.5 3z"/></defs></svg>