<?xml version="1.0" encoding="utf-8"?>
<!-- Generator: Adobe Illustrator 24.0.1, SVG Export Plug-In . SVG Version: 6.00 Build 0)  -->
<svg version="1.1" id="Layer_1" xmlns="http://www.w3.org/2000/svg" xmlns:xlink="http://www.w3.org/1999/xlink" x="0px" y="0px"
	 viewBox="0 0 90 90" style="enable-background:new 0 0 90 90;" xml:space="preserve">
<style type="text/css">
	.st0{fill:#C92F13;}
	.st1{fill:#FEFEFE;}
	.st2{fill:#F9F9F9;}
	.st3{fill:#AAAAAA;}
	.st4{fill:#C0C0C0;}
	.st5{fill:#6D6D6D;}
	.st6{fill:#6C6C6C;}
	.st7{fill:#333333;}
	.st8{fill:#F8F8F8;}
	.st9{fill:#F7F7F7;}
	.st10{fill:#343434;}
	.st11{fill:#F2F2F2;}
	.st12{fill:#F4F4F4;}
	.st13{fill:#F9902C;}
	.st14{fill:#FDD337;}
</style>
<circle class="st0" cx="45" cy="45" r="45"/>
<path class="st1" d="M2697.6,427.4c0-126.1,0-252.2-0.1-378.3c0-3.7,0.8-4.6,4.6-4.6c156.6,0.1,313.2,0.1,469.8,0
	c3.7,0,4.6,0.8,4.6,4.6c-0.1,124.6-0.1,249.2,0,373.8c0,3.7-0.8,4.6-4.6,4.6C3013.8,427.4,2855.7,427.4,2697.6,427.4z"/>
<path class="st2" d="M2736.5,140.3c-2.1,0.1-3.3-2.2-5.5-2.1c-1.2,0-2.3-0.6-1.7-2.2c0.5-1.3,1.4-1.8,2.8-1.3
	c1.2,0.5,2.5,1.1,4.4-0.4c-3.8-0.7-5.4-4-8.4-5.3c-1-0.5-1.5-1.3-0.9-2.4c0.5-0.8,1.4-1.3,2.1-0.6c3.6,3.4,7.9,1.1,11.9,1.5
	c2.1,0.2,4.1-0.1,4.2,2.7c0,0.7-0.7,1.7,0.6,2c1,0.2,2,0,2.4-1.2c0.8-2.4,2.5-3.6,4.9-3.1c2.7,0.6,2.2,2.9,2.2,4.9
	c0,2.7,1.6,4.6,4,7.4c0-8.8,0-16.8,0-24.7c0-1.8-0.1-3.7,0.1-5.5c0.2-1.7,0.9-3.9,2.9-3.4c4.6,1.2,9.9-2.4,13.9,2.4
	c0.5,0.6,2.2,0.4,3.4,0.4c39.9,0,79.8,0,119.7,0c2.2,0,4.3,0,5.6-2.3c0.4-0.7,1.2-1.2,1.9-1.5c1.3-0.4,3.4-0.7,3.7,0.3
	c1.9,4.9,9.4-0.1,10.4,6.1c0.6,3.6,4.5,4,6.7,6.1c0.7,0.7,1.9,0.9,1.8,2.1c-0.1,1.1-1.2,0.9-2,1.1c-1.2,0.4-2.8,0.5-3,2.1
	c-0.2,1.2,1,1.8,2,1.7c1.8-0.1,4.2,1.2,5.3-1.3c0.5-1.2,1.5-2.6,1.5-3.6c-0.1-7.5,5.5-9.3,10.8-11.7c1.7-0.8,2.9-1.5,4.5-0.2
	c1.7,1.5,2.8,0.7,4-0.9c2-2.5,4.3-3.3,6.4-0.1c1.2,1.9,2.9,1.9,4.8,1.9c39.4,0,78.8,0,118.2,0c2.8,0,5.3-1.7,7.8-2.4
	c4.2-1.2,9.1-0.9,13.5-0.2c2.3,0.4,1.8,3.4-1.3,6.8c3.7,1.4,5.7,3.6,3.9,7.8c-0.7,1.7,0,3.4,1.8,4.7c1.7,1.2,3.5,2.6,4.1,4.9
	c0.4,1.5,1.7,1.8,2.8,1.2c1.8-0.9,0.4-1.9-0.3-2.7c-0.9-1-1.2-1.9-0.4-3.1c1.1-1.4,2.1-0.2,3.1,0.1c0.6,0.2,1.2,0.7,1.8,0.7
	c2,0.1,4.3-1.8,5.9,0.7c2,3.2,4.1,6.4,4.1,10.5c-0.1,68.5,0,136.9-0.1,205.4c0,6.1-1.5,7.1-7.6,7c-13.5-0.2-26.9-0.1-40.4-0.1
	c-30.6,0-61.2,0-91.8,0.1c-1.1,0-5.2-2.4-3.5,2.5c0.1,0.2-1,1.3-1.3,1.2c-2.8-0.6-6-0.5-8.4-1.6c-5.7-2.6-8.3-2-10.6,4.3
	c-0.8,2.3-1.5,4.8-2.8,6.8c-2.2,3.2-3.1,7.8-9.3,6.6c-3.2-0.6-5.5,3.8-5.1,7.2c0.5,4.3-1.5,5.6-5.1,6.2c-2.7,0.4-5,1.8-6.4,4.3
	c-1,1.9-2.8,3.2-4.4,2c-3.1-2.3-6.2-0.7-9.1-0.5c-6.8,0.5-8.3,0-11.1-6c-0.9-1.9-2-2.4-4-1.5c-1.1,0.5-2.5,0.7-3.1-0.5
	c-0.8-1.3-0.6-2.8,0.3-4.2c5-7.6,4.3-9.6-4.3-12.5c-0.7-0.2-1.7-1-1.7-1.6c-0.3-4.8-5-5.6-7.1-8.4c-4.6-6.3-10.5-4.3-16-4.3
	c-44.2-0.1-88.4-0.1-132.7-0.1c-1.9,0-4,0.9-5.5-1.1c2.4-1.8,5.1-1.2,7.7-1.2c47.7,0,95.4,0.2,143.1-0.2c11.9-0.1,19.4,5.2,24.7,15
	c1.8,3.4,3.6,6.8,5,10.3c2.3,5.6,6.7,8.3,12.3,8.6c5.7,0.3,10.2-2.1,12.8-7.6c2-4.2,4.1-8.3,6.3-12.4c2-5.3,6.2-8.5,10.6-11.7
	c2.9-1.4,5.9-2,9.1-2.2c41.8-1.9,83.6-0.5,125.4-1c7.6-0.1,15.1,2,22.8,0.3c5.6-1.3,5.7-0.8,5.7-6.8c0-28.4,0-56.7,0-85.1
	c0-4.8-0.3-9.6,0.3-14.4c0.5-1.6,0.7-3.2,0.7-4.9c0-31.9,0-63.8,0-95.7c0-5.2-0.7-5.8-5.7-5.9c-5.9-0.1-6.4,0.5-6.4,7.1
	c0,60.8,0,121.6,0,182.4c0,11.8-0.1,11.9-12,11.9c-41.7,0-83.4,0-125.1,0c-5.5,0-10.9,0.5-16.1,2.3c-11.1,3.8-17,12.8-22.3,22.3
	c-1,1.9-2,3.8-3,5.7c-1.6,2.8-3.3,2.9-5,0.1c-1.8-3-3.3-6.1-4.9-9.2c-4.4-8.8-11.2-15.4-20.1-19.2c-4.6-2-10-1.9-15.2-1.9
	c-40.9,0-81.8,0-122.6,0c-2,0-4,0-6,0c-8.4-0.1-9.5-1.2-9.6-9.5c0-61,0-121.9,0-182.9c0-2.5,0.3-5-0.4-7.4
	C2744.5,132.7,2740.1,134,2736.5,140.3z"/>
<path class="st3" d="M2950.9,361.6c-3.7,6.8-4.9,15.1-12.1,19.8c-7.5,5-18.4,1.3-21.9-7.1c-2.6-6.2-5.4-12.3-9.9-17.5
	c-4-4.7-9-7-15.2-7c-47.3,0-94.6,0-141.9-0.1c-4.1,0-8.3-0.1-12.4-0.2c-0.9-2.4-1-4.8-0.9-7.4c0-65.8,0-131.6,0-197.3
	c0-1.5-0.1-3-0.1-4.5c0.6-7.5,5.3-9.5,13.9-6c1,3.7,0.4,7.5,0.5,11.3c0,13.4,0.2,26.8-0.1,40.1c-3.1,0.4-2.6-2.1-2.8-3.7
	c-0.4-4.5-0.1-9-0.2-13.4c0-8.8,0-17.6,0-26.4c0-2.5,0.1-5.2-3.7-5.2c-3.4,0-4.1,2.2-4.1,4.9c0,1.5,0,3,0,4.5
	c0,63.4,0,126.8,0,190.2c0,1.5,0.1,3,0,4.5c-0.1,3.3,1.5,4.9,4.8,4.9c1.8,0,3.7,0,5.5,0c44.7,0,89.4,0.3,134.1-0.2
	c16.3-0.2,27,6.2,32.8,21.3c0.9,2.3,2,4.6,3.3,6.7c5.2,8.2,15.7,8.2,20.9,0c2-3.1,2.8-6.7,5.1-9.7
	C2947.7,362.8,2948.7,361.2,2950.9,361.6z"/>
<path class="st4" d="M2750.3,186.4c0.1-17.4,0.1-34.7,0.2-52.1c1.7,1.4,1,3.4,1,5.1c0,62.5,0.1,124.9,0.1,187.4c0,7.8,0,7.8,7.7,7.8
	c41.5,0,83.1,0.1,124.6-0.1c6,0,12.1,0,17.8,1.4c8,2,14.1,7.5,19.1,14.1c3.5,4.6,6,9.8,8.3,15.1c0.5,1.1,1,2.1,2.4,2.8
	c2.8-7.1,6.6-13.7,11.3-19.7c7.9-10.2,18.7-13.6,31-13.6c43.4-0.1,86.8,0,130.1,0c6.5,0,6.5,0,6.5-6.7c0-62.5,0-124.9,0.1-187.4
	c0-2.5-1.3-6,2.1-7c3.6-1,7.6-1.2,11.2,0.2c1.8,0.7,1.8,3,1.8,4.8c0,33.1,0,66.1,0,99.2c0,1.2,0.1,2.4-0.9,3.2
	c-2.3-2.1-1.5-5-1.5-7.5c-0.1-29.4,0-58.9,0-88.3c0-2.1,0.2-4.3-0.3-6.4c-0.2-0.5-0.6-0.9-1-1.2c-2.5-1.4-5-1.2-7.5-0.1
	c-2,2.1-1.2,4.7-1.2,7.1c-0.1,60.4,0,120.8,0,181.2c0,10.9-0.3,11.2-11.2,11.2c-41.3,0-82.7-0.1-124,0.1c-6.7,0-13.6,0-19.8,3.5
	c-8.7,4.2-14.9,10.9-19.1,19.6c-1,2.1-2,4.2-3.2,6.2c-1.1,2-2,4.5-4.9,4.3c-2.7-0.2-3.7-2.5-4.7-4.6c-2-4.2-4.4-8.2-6.8-12.1
	c-6.8-11.1-16.9-15.8-29.7-15.8c-26.2,0.1-52.5,0-78.7,0c-17.4,0-34.9,0-52.3,0c-8.3,0-9.5-1.2-9.5-9.6c0-45.2,0-90.3,0-135.5
	C2749,190.8,2748.6,188.4,2750.3,186.4z"/>
<path class="st1" d="M2759.5,142.2c0,1.8,0,3.6,0,5.4c0,55.4-0.1,110.9,0.1,166.3c0,4.9-2.5,10.2,1.6,14.7c0.5,0.5-0.4,2.2-0.8,1.7
	c-2-2.2-6.5-1.5-6.8-5.6c-0.1-1.3,0-2.7,0-4c0-56.9,0.1-113.8-0.1-170.8C2753.3,145.3,2754.3,142.6,2759.5,142.2z"/>
<path class="st5" d="M3123.6,136.4c1.4,1.6,0.7,3.5,0.7,5.2c0,31.5,0,63,0.1,94.5c0,1.6,0.2,3.3,0.3,4.9c0,33.9-0.1,67.7,0,101.6
	c0,4.3-0.7,6.5-6,6.5c-31.7-0.3-63.4-0.2-95.1-0.1c-17.1,0-34.2,0.3-51.3,0.3c-4.6,0-8.8,1.2-13,2.6c-0.2-0.2-0.3-0.5-0.5-0.7
	c0.9-3.2,3.6-3.4,6.1-3.9c1.8-0.3,3.5-0.8,5.3-0.9c47.8-0.2,95.5,0,143.3-0.1c2.3,0,4.7,0.4,6.8-0.6c0.5-0.4,0.9-0.8,1.2-1.3
	c1.1-2.2,0.6-4.6,0.6-6.9c0-64.3,0-128.6,0.1-193C3122.2,141.7,3121.5,138.8,3123.6,136.4z"/>
<path class="st1" d="M3101.9,127.4c1.8,2.6,3.9,4.7,6.4,6.6c2.3,1.7,1.1,4.6,1.1,7c0,0.6-0.7,1.4-1.4,0.9c-4.7-3.5-4,2.2-6.1,3.8
	C3101.9,139.3,3101.9,133.3,3101.9,127.4z"/>
<path class="st6" d="M2950.9,361.6c-0.9,0.7-1.9,1.4-2.8,2.1c-0.5-5.3,4.9-11.5,10.6-12.4c0.2,0.2,0.4,0.4,0.5,0.6
	C2956.8,355.4,2952.5,357.4,2950.9,361.6z"/>
<path class="st7" d="M2483.6,310.8c-5.2,2.7-8.7,6.9-10.6,12.4c-1.5,3.3-3.1,6.6-4.6,9.8c-2.7,5.6-7,8.6-13.4,8.3
	c-6-0.3-9.6-3.9-12-9c-2.2-4.8-4.3-9.6-7.2-14c-5.3-8.1-12.8-11.1-22-11.1c-47.7,0-95.4,0-143.1,0c-7.1,0-7.1,0-7.1-7.2
	c0-66.1,0-132.2,0-198.4c0-6.5,2.6-8.4,9-6.8c2.9,0.8,2.1,3,2.1,4.8c0.1,13.6,0,27.2,0,40.9c0,1.8-0.4,3.7,0.5,5.4
	c-0.1,14.3-0.2,28.6-0.2,42.8c0,33.7,0.1,67.4-0.1,101.2c0,4.7,1.4,6.3,6.3,6.3c44.4-0.1,88.8,0.1,133.1-0.1
	c15.5-0.1,26.1,6.9,33.4,20.1c1.8,3.3,3.5,6.8,5.1,10.2c0.7,1.5,1.5,2.7,3.1,2.9c2.1,0.3,2.3-1.5,2.9-2.8c4.3-9,8.5-18.1,17.1-24
	c1.9-1.3,4-2.3,6-3.5c8.2-3.1,16.9-3,25.5-3c40.4,0,80.8,0,121.2,0c9,0,9,0,9-9.2c0-61.6,0-123.3,0-184.9c0-2.5-1-5.5,2-7.2
	c2.7,0.1,5.6-1,8.2,0.7c0.4,1.5,0.2,3,0.2,4.5c0,67.1,0,134.2,0,201.3c0,1.6,0.4,3.3-0.5,4.9l0,0c-1.7,1-3.6,0.5-5.4,0.5
	c-47.7,0-95.3,0-143,0c-1.8,0-3.7-0.4-5.4,0.4C2490.5,308.7,2486.2,307.4,2483.6,310.8z"/>
<path class="st8" d="M2838.3,176.5c15.8,0,31.6,0,47.4,0c5,0,8.4,2.5,7.8,6.2c-0.6,4.3-3.7,6-7.9,6c-31.6,0-63.1,0-94.7,0
	c-4.4,0-8-2.9-7.6-6.2c0.5-4.3,3.3-6.1,7.6-6C2806.7,176.6,2822.5,176.5,2838.3,176.5z"/>
<path class="st9" d="M2838.3,247.2c14.8,0,29.6,0,44.3,0c2,0,4,0.1,6,0.3c3.2,0.4,4.5,2.5,4.6,5.5c0.1,3-1.2,5.2-4.3,5.8
	c-2.6,0.5-5.3,0.7-7.9,0.7c-28.6,0.1-57.1,0.1-85.7,0.1c-2,0-4-0.2-5.9-0.4c-3.5-0.4-5.9-2.3-6-6c-0.1-3.9,2.6-5.5,6.1-5.7
	c3.8-0.2,7.6-0.2,11.4-0.2C2813.3,247.2,2825.8,247.2,2838.3,247.2z"/>
<path class="st2" d="M2838.8,141.1c15.5,0,30.9,0,46.4,0c5.4,0,7.9,1.9,8.1,5.9c0.1,4-2.8,6.4-8.2,6.4c-30.9,0-61.8,0-92.7,0
	c-1.8,0-3.8,0.3-5.4-0.7c-2.3-1.5-4.3-3.5-3.5-6.6c1-3.4,3.4-5.1,7-5.1c9.1,0,18.3,0,27.4,0C2824.8,141.1,2831.8,141.1,2838.8,141.1
	C2838.8,141.1,2838.8,141.1,2838.8,141.1z"/>
<path class="st2" d="M2838.7,212c15.6,0,31.2,0,46.8,0c5.5,0,7.9,2,7.7,6.1c-0.2,3.8-3.1,6-8.2,6c-30.9,0-61.8,0-92.6,0
	c-1,0-2,0.1-3-0.1c-3.5-0.8-6.4-2.4-6.1-6.5c0.3-3.7,2.8-5.4,6.5-5.4C2806.1,212,2822.4,212,2838.7,212
	C2838.7,212,2838.7,212,2838.7,212z"/>
<path class="st8" d="M2838.2,282.7c15.1,0,30.2,0,45.3,0c2,0,4,0.1,5.9,0.5c2.7,0.6,3.7,2.7,3.8,5.2c0,2.5-0.8,4.5-3.5,5.4
	c-2.8,0.9-5.6,0.8-8.4,0.8c-28.9,0-57.8,0.1-86.7,0.1c-1.8,0-3.7,0-5.5-0.3c-3.4-0.6-6.1-2.4-5.8-6.2c0.3-3.6,2.8-5.4,6.5-5.4
	c7.1,0,14.3-0.1,21.4-0.1C2820.2,282.7,2829.2,282.7,2838.2,282.7z"/>
<path class="st2" d="M3017.7,278.8c-32.6,0.2-60.9-27.1-60.4-61.5c0.5-35.4,28.4-60.3,60.5-60.5c34.7-0.3,62.4,27.8,61.8,61.9
	C3079.1,252,3051.5,279.6,3017.7,278.8z"/>
<path class="st5" d="M3114.6,135.4c-1.4,1.7-1.1,3.7-1.1,5.7c0,62.8,0,125.6,0,188.4c0,7.6-0.5,8.1-8.3,8.1
	c-43.2,0-86.4,0.1-129.7-0.1c-6.4,0-12.4,1.7-18.6,2.2c5.9-3.9,12.7-3.6,19.2-3.6c43-0.2,86-0.2,129,0c5.1,0,6.5-1.6,6.5-6.5
	c-0.1-62.7-0.1-125.4,0-188.2C3111.6,139.1,3110.1,135.6,3114.6,135.4z"/>
<path class="st6" d="M3122.5,346.7c0-40.5,0-81,0.1-121.5c0-29.7,0.1-59.4,0.2-89.1c0.3,0,0.5,0.1,0.7,0.3c0,68.1,0,136.1,0,204.2
	C3123.5,342.6,3124.4,344.9,3122.5,346.7z"/>
<path class="st6" d="M2968.8,347.6c1.9-1.5,4.2-0.9,6.3-0.9c49.2-0.1,98.3-0.1,147.5-0.1c-1.1,1.4-2.7,1-4.2,1
	C3068.5,347.6,3018.6,347.6,2968.8,347.6z"/>
<path class="st10" d="M3018.9,168.9c27.2,0.2,48.9,22.3,48.7,49.8c-0.2,26.6-22.9,48.5-49.9,48.2c-26.7-0.3-48.7-22.8-48.5-49.6
	C2969.3,190.7,2991.9,168.7,3018.9,168.9z"/>
<path class="st11" d="M3024.5,206.3c0,5.5,0,11,0,16.4c0,3.8-1.7,6.7-5.6,6.9c-4.2,0.3-6.5-2.6-6.5-6.6c-0.2-11.4-0.3-22.9-0.1-34.4
	c0.1-3.7,2.5-6.5,6.2-6.5c3.7,0.1,5.9,2.9,6,6.7C3024.6,194.7,3024.5,200.5,3024.5,206.3C3024.5,206.3,3024.5,206.3,3024.5,206.3z"
	/>
<path class="st12" d="M3024.4,246.2c-0.5,3.6-2.4,6.2-6,6.1c-3.5,0-6-2.6-6-6.1c0-3.2,2.2-5.7,5.7-5.8
	C3021.7,240.3,3023.8,242.7,3024.4,246.2z"/>
<path class="st7" d="M2423.9,310.9"/>
<g>
	<path class="st13" d="M18.8,39.8c0-5.2,0-10.3,0-15.5c0-1.1,0-1.1,1.1-1.1c6.6,0,13.3,0,19.9,0c2.5,0,4.4,1.9,4.4,4.3
		c-0.1,10.1,0,20.1,0,30.2c0,0.2,0.1,0.4-0.1,0.6c-0.2,0.1-0.4-0.1-0.5-0.2c-1.4-1.3-3.1-1.7-4.9-1.7c-6.2,0-12.5,0-18.7,0
		c-1,0-1,0-1-1.1C18.8,50.1,18.8,44.9,18.8,39.8z"/>
	<g>
		<path class="st13" d="M71.3,39.8c0,5.1,0,10.3,0,15.4c0,1,0,1-1,1c-6.1,0-12.2,0-18.3,0c-2,0-3.8,0.4-5.4,1.8
			c-0.4,0.3-0.5,0.2-0.6-0.2c0-0.3,0-0.7,0-1c0-9.6,0-19.2,0-28.8c0-1.2,0-2.4,0.9-3.4c0.7-0.8,1.7-1.4,2.8-1.4c7,0,14,0,20.9,0
			c0.6,0,0.7,0.3,0.7,0.8c0,2.9,0,5.8,0,8.7C71.3,35.1,71.3,37.4,71.3,39.8C71.3,39.8,71.3,39.8,71.3,39.8z"/>
		<path class="st14" d="M74.6,26.5h-1.4c-0.1,0-0.2,0.1-0.2,0.2v31.2c0,0.1-0.1,0.2-0.2,0.2H52.1c0,0,0,0,0,0
			c-0.8-0.1-5.1-0.3-6.7,5.8c-0.1,0.5-0.2,0.8-0.3,1c0,0-0.1,0.1-0.1,0.1c-0.1,0-0.1,0-0.1-0.1c-0.1-0.2-0.2-0.5-0.3-1
			c-1.5-6-5.9-5.8-6.7-5.8c0,0,0,0,0,0H17.1c-0.1,0-0.2-0.1-0.2-0.2V26.7c0-0.1-0.1-0.2-0.2-0.2h-1.4c-0.1,0-0.2,0.1-0.2,0.2V58
			c0,1,0.8,1.7,1.7,1.7h20.2l1.2,0c0,0,0,0,0,0c1,0,3.5,0.4,4.5,4.5c0.2,0.7,0.7,2.6,2,2.6c0,0,0.1,0,0.1,0c0,0,0.1,0,0.1,0
			c1.4,0,1.9-1.9,2-2.6c1-4.1,3.5-4.5,4.5-4.5c0,0,0,0,0,0l1.2,0H73c1,0,1.7-0.8,1.7-1.7V26.7C74.8,26.6,74.7,26.5,74.6,26.5z"/>
		<g>
			<path class="st14" d="M37.7,30.7H25.2c-0.4,0-0.8-0.3-0.8-0.8s0.3-0.8,0.8-0.8h12.4c0.4,0,0.8,0.3,0.8,0.8S38.1,30.7,37.7,30.7z"
				/>
			<path class="st14" d="M37.7,35.6H25.2c-0.4,0-0.8-0.3-0.8-0.8s0.3-0.8,0.8-0.8h12.4c0.4,0,0.8,0.3,0.8,0.8S38.1,35.6,37.7,35.6z"
				/>
			<path class="st14" d="M37.7,40.5H25.2c-0.4,0-0.8-0.3-0.8-0.8s0.3-0.8,0.8-0.8h12.4c0.4,0,0.8,0.3,0.8,0.8S38.1,40.5,37.7,40.5z"
				/>
			<path class="st14" d="M37.7,45.5H25.2c-0.4,0-0.8-0.3-0.8-0.8s0.3-0.8,0.8-0.8h12.4c0.4,0,0.8,0.3,0.8,0.8S38.1,45.5,37.7,45.5z"
				/>
			<path class="st14" d="M37.7,50.4H25.2c-0.4,0-0.8-0.3-0.8-0.8s0.3-0.8,0.8-0.8h12.4c0.4,0,0.8,0.3,0.8,0.8S38.1,50.4,37.7,50.4z"
				/>
		</g>
		<g>
			<g>
				<path class="st0" d="M62,41.9l-1.9-5.7c-0.2-0.6-0.5-0.8-1.1-0.8l-0.6,0c-0.9,0-1.1,0.2-1.4,1l-2,6.4c-0.2,0.6,0,1.1,0.6,1.3
					c0.6,0.2,1-0.1,1.2-0.7l0.4-1.3c0-0.2,0.1-0.2,0.3-0.2h2.2c0.2,0,0.3,0.1,0.4,0.3l0.5,1.4c0.2,0.5,0.7,0.7,1.2,0.6
					c0.5-0.2,0.8-0.7,0.6-1.2L62,41.9L62,41.9z"/>
			</g>
			<path class="st0" d="M58.6,48.3c-4.7,0-8.5-3.8-8.5-8.5s3.8-8.5,8.5-8.5s8.5,3.8,8.5,8.5S63.3,48.3,58.6,48.3z M58.6,32.6
				c-4,0-7.2,3.2-7.2,7.2s3.2,7.2,7.2,7.2s7.2-3.2,7.2-7.2S62.6,32.6,58.6,32.6z"/>
		</g>
	</g>
</g>
</svg>
