<svg xmlns="http://www.w3.org/2000/svg" viewBox="0 0 90 90" width="90" height="90"><circle cx="45" cy="45" r="45" fill-rule="evenodd" fill="#c82f12"/><g fill="#f88f2c"><path d="M66.8 27.1c-.5-.6-1.2-.9-2-.9-11.1-.4-17.2-4.5-17.9-5-.3-.3-.6-.5-1-.6-.3-.1-.6-.2-1-.2v1.7c.1 0 .3 0 .4.1.2.1.3.2.4.3.3.2 6.8 5 19 5.4.3 0 .6.1.8.4.2.2.3.5.3.8-.6 8.7-2.1 15.9-4.7 21.9-3.4 7.8-8.7 13.5-15.6 16.8-.2.1-.3.1-.5.1v1.7c.4 0 .9-.1 1.2-.3 7.3-3.5 12.8-9.5 16.4-17.7 2.7-6.2 4.3-13.6 4.9-22.5.1-.7-.2-1.5-.7-2z"/><path d="M44.5 67.8c-6.9-3.4-12.2-9-15.6-16.8-2.6-6-4.2-13.2-4.8-21.9 0-.3.1-.6.3-.8s.5-.3.8-.4c12.2-.4 18.7-5.2 19-5.4.2-.2.5-.3.8-.3v-1.7c-.7 0-1.4.3-1.9.8-.7.5-6.8 4.6-17.9 5-.8 0-1.5.4-2 .9-.5.6-.8 1.3-.7 2.1.6 9 2.2 16.3 4.9 22.5C31 60 36.5 65.9 43.8 69.5c.4.2.8.3 1.3.3v-1.7c-.3-.2-.4-.2-.6-.3z"/><path d="M45 24.3h0c.4.4 7.1 5.1 18.8 5.5-.9 13.5-4.7 29.2-18.8 36h0V68c.2 0 .3 0 .5-.1 6.9-3.4 12.2-9 15.6-16.8 2.6-6 4.2-13.2 4.8-21.9 0-.3-.1-.6-.3-.8s-.5-.3-.8-.4c-12.2-.4-18.7-5.2-19-5.4-.1-.1-.3-.2-.4-.3-.1 0-.2-.1-.4-.1v2.1z"/><path d="M25.2 27.9c-.3 0-.6.1-.8.4-.2.2-.3.5-.3.8.6 8.8 2.1 15.9 4.8 21.9 3.4 7.8 8.6 13.5 15.6 16.8a.9.9 0 0 0 .5.1v-2.2c-14.1-6.8-17.9-22.5-18.8-36 11.6-.4 18.3-5 18.8-5.5V22c-.3 0-.6.1-.8.3-.3.4-6.8 5.2-19 5.6z"/></g><path d="M50.6 39.1H50v-1.8a4.95 4.95 0 0 0-5-5 4.95 4.95 0 0 0-5 5v1.8h-.6c-.8 0-1.4.6-1.4 1.4v9.7c0 .8.6 1.4 1.4 1.4h11.2c.8 0 1.4-.6 1.4-1.4v-9.7c0-.8-.6-1.4-1.4-1.4zm-8.9-1.8A3.33 3.33 0 0 1 45 34a3.33 3.33 0 0 1 3.3 3.3v1.8h-6.6v-1.8zm3.7 11.1H44v-.6h.6v-2.2h-.3V45h.3v-1.9c-.3-.1-.5-.2-.7-.4 0 0-.1-.1-.1-.2v-.1s0-.1-.1-.1v-.7c0-.1 0-.2.1-.2.2-.5.6-.8 1.2-.8s1 .3 1.2.8c0 .1.1.2.1.2v.3a1.3 1.3 0 0 1-.8 1.2h0v5.3z" fill="#fcd236"/></svg>