<?xml version="1.0" encoding="utf-8"?>
<!-- Generator: Adobe Illustrator 24.0.1, SVG Export Plug-In . SVG Version: 6.00 Build 0)  -->
<svg version="1.1" id="Layer_1" xmlns="http://www.w3.org/2000/svg" xmlns:xlink="http://www.w3.org/1999/xlink" x="0px" y="0px"
	 viewBox="0 0 90 90" style="enable-background:new 0 0 90 90;" xml:space="preserve">
<style type="text/css">
	.st0{fill:#59558E;}
	.st1{fill:none;}
	.st2{fill:#8989CE;}
	.st3{fill:#C8C8FC;}
</style>
<circle class="st0" cx="45" cy="45" r="45"/>
<path class="st1" d="M38.9,32h8.7c0.5,0,0.9-0.4,0.9-0.9c0-0.5-0.4-0.9-0.9-0.9h-8.7c-0.5,0-0.9,0.4-0.9,0.9
	C38.1,31.6,38.5,32,38.9,32z"/>
<path class="st1" d="M43.3,64.3c-1,0-1.7,0.8-1.7,1.7c0,1,0.8,1.7,1.7,1.7c1,0,1.7-0.8,1.7-1.7C45,65.1,44.3,64.3,43.3,64.3z"/>
<path class="st1" d="M32.8,35.5v26.1h15.2c1.1-2.6,3.1-4.6,5.7-5.7V35.5H32.8z"/>
<path class="st2" d="M49.8,58.3H34.6V32.1h20.9v20.5c0.6-0.2,1.1-0.4,1.7-0.5V30.4v-2.6c0-2.4-2-4.4-4.4-4.4H37.2
	c-2.4,0-4.4,2-4.4,4.4v2.6V60v2.6c0,2.4,2,4.4,4.4,4.4h12.9c-0.7-1.4-1.1-3-1.1-4.7C49,60.9,49.3,59.5,49.8,58.3z M40.7,26.9h8.7
	c0.5,0,0.9,0.4,0.9,0.9c0,0.5-0.4,0.9-0.9,0.9h-8.7c-0.5,0-0.9-0.4-0.9-0.9C39.8,27.3,40.2,26.9,40.7,26.9z M45,64.4
	c-1,0-1.7-0.8-1.7-1.7c0-1,0.8-1.7,1.7-1.7c1,0,1.7,0.8,1.7,1.7C46.8,63.6,46,64.4,45,64.4z"/>
<path class="st3" d="M59.5,53.1c-5.1,0-9.2,4.1-9.2,9.2s4.1,9.2,9.2,9.2c5.1,0,9.2-4.1,9.2-9.2S64.6,53.1,59.5,53.1z M63.4,61.2
	l-4.2,4.2c-0.2,0.2-0.4,0.2-0.6,0.2c-0.2,0-0.4-0.1-0.6-0.2l-2.5-2.5c-0.3-0.3-0.3-0.9,0-1.2c0.3-0.3,0.9-0.3,1.2,0l1.9,1.9l3.6-3.6
	c0.3-0.3,0.9-0.3,1.2,0C63.7,60.4,63.7,60.9,63.4,61.2z"/>
<g>
	<path class="st3" d="M53.3,34.5H36.8c-0.2,0-0.4,0.2-0.4,0.4v11.5c0,0.2,0.2,0.4,0.4,0.4h4.7v2.5c0,0.1,0.1,0.3,0.2,0.3
		c0,0,0.1,0,0.1,0c0.1,0,0.2,0,0.3-0.1l2.8-2.8h8.5c0.2,0,0.4-0.2,0.4-0.4V34.8C53.6,34.7,53.5,34.5,53.3,34.5z M39.7,42.1
		c-0.8,0-1.5-0.7-1.5-1.5c0-0.8,0.7-1.5,1.5-1.5c0.8,0,1.5,0.7,1.5,1.5C41.2,41.4,40.5,42.1,39.7,42.1z M45,42.1
		c-0.8,0-1.5-0.7-1.5-1.5c0-0.8,0.7-1.5,1.5-1.5s1.5,0.7,1.5,1.5C46.5,41.4,45.8,42.1,45,42.1z M50.4,42.1c-0.8,0-1.5-0.7-1.5-1.5
		c0-0.8,0.7-1.5,1.5-1.5c0.8,0,1.5,0.7,1.5,1.5C51.8,41.4,51.2,42.1,50.4,42.1z"/>
</g>
</svg>
