<svg xmlns="http://www.w3.org/2000/svg" viewBox="0 0 90 90"><circle cx="45" cy="45" r="45" fill="#59558e"/><path d="M38.5 38.3v-4.74a6.39 6.39 0 0 1 .74-3 4.51 4.51 0 0 0-1.57-.63 2.67 2.67 0 1 0-1.58 0 4.42 4.42 0 0 0-3.6 4.36v3.82a.54.54 0 0 0 .53.54h1.25l.8 6.4a.53.53 0 0 0 .53.46h2.57a.53.53 0 0 0 .52-.46l.67-5.34a1.57 1.57 0 0 1-.86-1.4zm15.42-8.37a2.67 2.67 0 1 0-1.58 0 4.46 4.46 0 0 0-1.76.75 6.23 6.23 0 0 1 .66 2.82v4.8a1.58 1.58 0 0 1-.61 1.24l.7 5.5a.53.53 0 0 0 .52.46h2.57a.53.53 0 0 0 .53-.46l.8-6.4H57a.54.54 0 0 0 .53-.54v-3.85a4.41 4.41 0 0 0-3.61-4.32zm-9.05-1.73a3.19 3.19 0 1 0-3.19-3.2 3.21 3.21 0 0 0 3.19 3.19 5.32 5.32 0 0 0-5.31 5.36v4.74a.53.53 0 0 0 .53.53h1.66l1 8a.52.52 0 0 0 .52.47h3.2a.53.53 0 0 0 .53-.47l1-8h1.66a.53.53 0 0 0 .53-.53v-4.8a5.31 5.31 0 0 0-5.31-5.31z" fill="#8989ce"/><path d="M29.9 52.87c-3.9 0-7 1.38-7 3.14 0 1.1 3.1 2.43 7 2.43 3.2 0 6-.87 7-1.8V56c-.04-1.75-3.1-3.13-7-3.13zM23 57.3v1.84c0 1.1 3.1 2.44 7 2.44 3.2 0 6-.88 7-1.8v-2.26a13.93 13.93 0 0 1-7 1.62c-2.85 0-5.76-.7-7-1.84zm0 3.14v1.83c0 1.1 3.1 2.44 7 2.44 3.2 0 6-.88 7-1.8v-2.26a13.93 13.93 0 0 1-7 1.62c-2.85 0-5.76-.7-7-1.83zm0 3.13v1.5c0 1.75 3.06 3.13 7 3.13s7-1.38 7-3.13V63.8a13.92 13.92 0 0 1-7 1.63c-2.85 0-5.76-.7-7-1.84zm22-10.7c-3.9 0-7 1.38-7 3.14 0 1.1 3.1 2.43 7 2.43 3.2 0 6-.87 7-1.8V56c0-1.75-3.1-3.13-7-3.13zm-7 4.43v1.84c0 1.1 3.1 2.44 7 2.44 3.2 0 6-.88 7-1.8v-2.26a13.93 13.93 0 0 1-7 1.62c-2.76 0-5.67-.7-7-1.84zm0 3.14v1.83c0 1.1 3.1 2.44 7 2.44 3.2 0 6-.88 7-1.8v-2.26a13.93 13.93 0 0 1-7 1.62c-2.76 0-5.67-.7-7-1.83zm0 3.13v1.5c0 1.75 3.06 3.13 7 3.13s7-1.38 7-3.13V63.8a13.92 13.92 0 0 1-7 1.63c-2.76 0-5.67-.7-7-1.84zm22.1-10.7c-3.9 0-7 1.38-7 3.14 0 1.1 3.1 2.43 7 2.43 3.2 0 6-.87 7-1.8V56c-.04-1.75-3.1-3.13-7-3.13zm-6.97 4.43v1.84c0 1.1 3.1 2.44 7 2.44 3.2 0 6-.88 7-1.8v-2.26a13.9 13.9 0 0 1-7 1.62c-2.8 0-5.7-.7-7-1.84zm0 3.14v1.83c0 1.1 3.1 2.44 7 2.44 3.2 0 6-.88 7-1.8v-2.26a13.9 13.9 0 0 1-7 1.62c-2.8 0-5.7-.7-7-1.83zm0 3.13v1.5c0 1.75 3.06 3.13 7 3.13s7-1.38 7-3.13V63.8a13.9 13.9 0 0 1-7 1.63c-2.8 0-5.7-.7-7-1.84z" fill="#c8c8fc"/></svg>