<svg xmlns="http://www.w3.org/2000/svg" width="80" height="80" fill-rule="nonzero"><circle fill="#f58320" cx="40" cy="40" r="40"/><path d="M38.3 20.422a3.31 3.31 0 0 1 3.235 0l14.774 8.356c.926.522 1.546 1.554 1.536 2.623v16.763c.007 1.113-.674 2.17-1.65 2.68L41.482 59.16a3.22 3.22 0 0 1-3.27-.09l-4.417-2.557c-.3-.18-.64-.322-.852-.614.188-.253.523-.285.796-.396.614-.196 1.178-.5 1.743-.814.143-.098.317-.06.454.027l3.768 2.18c.27.156.542-.05.772-.18L54.93 48.55a.48.48 0 0 0 .263-.471l.002-16.6a.52.52 0 0 0-.308-.517l-14.67-8.28a.51.51 0 0 0-.576-.001l-14.67 8.283c-.2.1-.334.292-.3.515v16.59a.47.47 0 0 0 .266.465l3.918 2.215c.736.397 1.64.632 2.45.328.715-.257 1.217-.988 1.203-1.748l.005-16.493c-.018-.244.213-.446.45-.423l1.882.002c.262-.006.442.257.4.503l-.004 16.597c.002 1.474-.603 3.08-1.965 3.8-1.678.87-3.752.686-5.4-.15l-4.214-2.332c-.98-.508-1.657-1.57-1.65-2.68V31.4c-.01-1.1.634-2.14 1.6-2.656l14.72-8.323zM42.854 31.8c2.17-.138 4.496-.082 6.45.975 1.513.8 2.352 2.5 2.378 4.17-.042.224-.28.347-.496.332-.63-.001-1.26.008-1.9-.004-.267.01-.423-.233-.456-.467-.18-.794-.62-1.58-1.377-1.964-1.162-.575-2.5-.546-3.776-.534-.925.05-1.92.128-2.703.665-.602.407-.784 1.23-.57 1.9.202.475.758.628 1.212.77 2.617.676 5.4.6 7.957 1.498 1.063.363 2.102 1.068 2.466 2.167.476 1.473.267 3.234-.794 4.416-.86.973-2.114 1.503-3.364 1.8-1.663.366-3.388.376-5.077.213-1.588-.18-3.24-.6-4.466-1.66-1.048-.9-1.56-2.3-1.5-3.652.012-.228.242-.388.464-.37h1.903c.253-.018.44.198.454.434.117.757.405 1.55 1.073 2 1.3.822 2.907.765 4.384.788 1.223-.054 2.596-.07 3.595-.868.527-.455.683-1.218.54-1.873-.154-.553-.74-.8-1.244-.98-2.583-.807-5.387-.514-7.946-1.427-1.04-.363-2.043-1.048-2.442-2.102-.557-1.492-.302-3.337.87-4.48 1.143-1.137 2.793-1.574 4.362-1.73h0z" fill="#fff"/></svg>