<svg xmlns="http://www.w3.org/2000/svg" viewBox="0 0 90 90"><circle cx="45" cy="45" r="45" fill="#c92f13"/><path d="M71.84 46.64l-5-5a1 1 0 0 0-.71-.29V41l-4 4 6.4 6.4 3.3-3.28a1 1 0 0 0 .29-.71 1 1 0 0 0-.27-.77zM48.2 64.06a1 1 0 0 0 1 1.27 1.26 1.26 0 0 0 .27 0l6.42-1.84-5.9-5.86zm2.96-8.137l9.574-9.574 6.406 6.406-9.574 9.574z" fill="#fdd337"/><path d="M57.58 24.67H26a4.16 4.16 0 0 0-4.15 4.16V33h39.9v-4.17a4.17 4.17 0 0 0-4.16-4.16zM28.5 31.32a1.66 1.66 0 1 1 1.66-1.66 1.66 1.66 0 0 1-1.66 1.66zm5 0a1.66 1.66 0 1 1 1.67-1.66 1.67 1.67 0 0 1-1.69 1.66zm5 0a1.66 1.66 0 1 1 1.66-1.66 1.66 1.66 0 0 1-1.69 1.66zM61.74 42v-7.36H21.87V52.1A4.15 4.15 0 0 0 26 56.24h21.5zM36 38h16.6a.84.84 0 0 1 0 1.67H36A.84.84 0 0 1 36 38zm0 5h16.6a.83.83 0 0 1 0 1.66H36A.83.83 0 1 1 36 43zm-5 6.64h-1.66a.83.83 0 0 1 0-1.66H31a.83.83 0 0 1 0 1.66zm0-5h-1.66a.83.83 0 0 1 0-1.66H31a.83.83 0 0 1 0 1.66zm0-5h-1.66a.84.84 0 0 1 0-1.67H31a.84.84 0 0 1 0 1.67zm4.16 9.13a.83.83 0 0 1 .83-.83h16.6a.83.83 0 0 1 0 1.66H36a.83.83 0 0 1-.84-.84z" fill="#f9902c"/></svg>