<svg xmlns="http://www.w3.org/2000/svg" viewBox="0 0 90 90"><circle cx="45" cy="45" r="45" fill="#147894"/><path d="M69 39.6c.3-.1.5-.4.7-.6s.5-.4.8-.4h8.2c.3 0 .3 0 .3-.3v-2.1s.1 0 .1.1l2.2 2.1 1.9 1.9c.1.1.1.1 0 .2l-1.8 1.7-2.4 2.4c-.1.1-.2 0-.2-.1v-1.8c0-.5 0-.5-.4-.5h-6.9c-.2 0-.3.1-.5.2l-2.2 2.1a1.38 1.38 0 0 1-.4.3c-.1.1-.2.2-.2.3-.1.1-.1 0-.2 0L65.9 43c-.1-.1-.3-.1-.3-.3l.8-.8a1.38 1.38 0 0 1 .4-.3c.3-.3.6-.6.9-.8.4-.3.7-.7 1.1-1 .1-.1.1-.2.2-.2z" fill="#13ebf2"/><path d="M69.8 51.1l-1.5-1.4-1.7-1.7c-.1-.1-.2-.1-.2-.2-.2-.2-.3-.4-.5-.5-.8-.6-1.6-1.4-2.4-2.2-.1-.1-.2-.3-.4-.4-.5-.4-1-.9-1.5-1.4-.1-.1-.2-.2-.4-.3 0 0-.1 0-.2 0h-4.5c-.1 0-.3 0-.4-.1s0-.2 0-.3v-2.8c0-.3 0-.4.3-.4h5.9a.76.76 0 0 1 .4.2l2.9 2.9c.1.1.1.1.1.2.5.4 1 .9 1.5 1.4.2.2.4.4.7.6l.4.4h.1c.7.6 1.4 1.3 2.1 2 .2.2.4.4.7.6.1.1.2.1.3.1h3.4c.2 0 .2-.1.2-.3v-1.8c0-.1 0-.2.1-.3s.2 0 .2.1c.7.6 1.3 1.3 2 1.9l2 2c.2.2.2.3 0 .5l-.9.9-1.3 1.2a5.73 5.73 0 0 0-1.1 1.1H76c-.2.2-.5.4-.7.6-.1.1-.2.1-.2-.1v-2c0-.3 0-.3-.2-.3h-4.5c-.3.1-.5 0-.6-.2z" fill="#02b6d3"/><path d="M63.7 45.3c.7.6 1.4 1.4 2.1 2" fill="#7b99c7"/><g fill="#13ebf2"><path d="M65.8 47.3l-2.1 2c-.4.4-.8.7-1.1 1.1-.1.1-.2.1-.3.1h-5.9c-.2 0-.2-.1-.2-.3v-2.8c0-.2.1-.3.2-.3H61c.1 0 .2 0 .2-.1.2-.3.4-.5.7-.7l1.4-1.4M45 52.5s-.1 0 0 0a7.03 7.03 0 0 1-5.3-2.3c-1.4-1.5-2.2-3.5-2.1-5.5s1-3.9 2.4-5.2c1.5-1.3 3.3-2 5.3-1.9 4 .2 7.2 3.5 7.1 7.5 0 1.9-.7 3.8-2.1 5.3-1.4 1.3-3.3 2.1-5.3 2.1zm0-13.9c-1.6 0-3.1.6-4.3 1.7-1.3 1.2-2 2.8-2.1 4.5-.1 1.8.6 3.4 1.8 4.7s2.8 2 4.5 2c1.8 0 3.4-.7 4.7-1.9 1.2-1.2 1.9-2.9 1.8-4.5h0c0-3.4-2.7-6.3-6.1-6.4-.1-.1-.2-.1-.3-.1z"/><path d="M47.5 49.2c-.5 0-.9-.3-1.1-.7l-.4-1.2h-2l-.3 1.1c-.2.7-.8 1.1-1.5.9-.3-.1-.6-.3-.7-.5-.2-.3-.2-.7-.1-1l1.8-5.6c.3-.9.6-1.2 1.6-1.2h.6c.7 0 1 .3 1.3.9l2 5.9c.2.6-.1 1.2-.7 1.5-.3-.1-.4-.1-.5-.1zM44 46.5h1.9c.4 0 .6.2.7.5l.4 1.2c.1.2.4.4.6.3.3-.1.4-.3.3-.6l-.3-.9-1.7-5c-.1-.4-.3-.5-.6-.5h-.6c-.6 0-.7 0-.9.7L42 47.8c-.1.2-.1.4 0 .5s.1.2.3.2c.4.1.6-.2.7-.4l.3-1.1c.2-.5.6-.5.7-.5z"/></g><path d="M45 60.4c-8.7 0-15.8-7.3-15.4-16.2C30 36.4 36.3 30 44 29.6c4.7-.3 8.9 1.5 11.9 4.6l6.6-6.6c.4-.4.4-1 0-1.4l-2.4-2.4a1.09 1.09 0 0 0-1.5 0l-4.4 4.4c-1.4-.7-3.3-1.2-5-1.7v-6.1a1.11 1.11 0 0 0-1.1-1.1h-6.4a1.11 1.11 0 0 0-1.1 1.1v6.1c-1.7.4-3.6 1-5 1.7l-4.4-4.4a1.09 1.09 0 0 0-1.5 0l-6.1 6.1a1.09 1.09 0 0 0 0 1.5l4.4 4.4c-.7 1.4-1.2 3.3-1.7 5h-6.1a1.11 1.11 0 0 0-1.1 1.1v6.4a1.11 1.11 0 0 0 1.1 1.1h6.1c.4 1.7 1 3.6 1.7 5l-4.4 4.4c-.2.2-.3.5-.3.8s.1.6.3.8l6.1 6.1a1.09 1.09 0 0 0 1.5 0l4.4-4.4c1.4.7 3.3 1.2 5 1.7v6.1a1.11 1.11 0 0 0 1.1 1.1h6.4a1.11 1.11 0 0 0 1.1-1.1v-6.1c1.7-.4 3.6-1 5-1.7l4.4 4.4a1.09 1.09 0 0 0 1.5 0l2.1-2.1c.4-.4.4-1 0-1.4l-6.6-6.6c-2.7 2.4-6.4 4-10.6 4z" fill="#02b6d3"/></svg>