<?xml version="1.0" encoding="UTF-8"?>
<svg width="120px" height="120px" viewBox="0 0 120 120" version="1.1" xmlns="http://www.w3.org/2000/svg" xmlns:xlink="http://www.w3.org/1999/xlink">
    <title>tokens</title>
    <defs>
        <linearGradient x1="50%" y1="0%" x2="50%" y2="100%" id="linearGradient-1">
            <stop stop-color="#F58320" offset="0%"></stop>
            <stop stop-color="#F58320" offset="100%"></stop>
        </linearGradient>
    </defs>
    <g id="tokens" stroke="none" stroke-width="1" fill="none" fill-rule="evenodd">
        <circle id="Oval" fill="#0F172A" cx="60" cy="60" r="60"></circle>
        <g id="ticket" transform="translate(24.000000, 28.000000)" fill-rule="nonzero">
            <path d="M24.0833333,22.3923253 C23.3013333,22.3923253 22.6666667,21.7649821 22.6666667,20.9920056 L22.6666667,18.191366 C22.6666667,17.4183895 23.3013333,16.7910462 24.0833333,16.7910462 C24.8653333,16.7910462 25.5,17.4183895 25.5,18.191366 L25.5,20.9920056 C25.5,21.7649821 24.8653333,22.3923253 24.0833333,22.3923253 Z" id="Path" fill="#F8FAFC"></path>
            <path d="M24.0833333,46.0885366 C23.3013333,46.0885366 22.6666667,45.4611934 22.6666667,44.6882168 L22.6666667,39.9523354 C22.6666667,39.1793588 23.3013333,38.5520156 24.0833333,38.5520156 C24.8653333,38.5520156 25.5,39.1765582 25.5,39.9523354 L25.5,44.6910175 C25.5,45.463994 24.8653333,46.0885366 24.0833333,46.0885366 Z M24.0833333,34.2418313 C23.3013333,34.2418313 22.6666667,33.614488 22.6666667,32.8415115 L22.6666667,28.1028294 C22.6666667,27.3298529 23.3013333,26.7025096 24.0833333,26.7025096 C24.8653333,26.7025096 25.5,27.3298529 25.5,28.1028294 L25.5,32.8415115 C25.5,33.614488 24.8653333,34.2418313 24.0833333,34.2418313 Z" id="Shape" fill="#F58320"></path>
            <path d="M24.0833333,56 C23.3013333,56 22.6666667,55.3726567 22.6666667,54.5996802 L22.6666667,51.7990407 C22.6666667,51.0260642 23.3013333,50.3987209 24.0833333,50.3987209 C24.8653333,50.3987209 25.5,51.0260642 25.5,51.7990407 L25.5,54.5996802 C25.5,55.3726567 24.8653333,56 24.0833333,56 Z" id="Path" fill="#F8FAFC"></path>
            <path d="M7.08333333,19.5916858 C6.50816667,19.5916858 5.967,19.2444065 5.75733333,18.6814779 C5.4825,17.9561123 5.85366667,17.1495281 6.5875,16.8806667 L51.6375,0.253269667 C53.8276667,-0.558915804 56.4003333,0.656561762 57.1483333,2.83825998 L62.2568333,17.740463 C62.5061667,18.4742306 62.1095,19.2668116 61.37,19.5160685 C60.6361667,19.7653254 59.8258333,19.3704353 59.5736667,18.6394683 L54.4651667,3.73726527 C54.2158333,3.00909899 53.3601667,2.61140817 52.6263333,2.87466829 L7.57633333,19.5020653 C7.41483333,19.5636794 7.24766667,19.5916858 7.08333333,19.5916858 Z" id="Path" fill="url(#linearGradient-1)"></path>
            <path d="M60.9166667,56 L7.08333333,56 C3.179,56 0,52.8576824 0,48.9984011 L0,43.397122 C0,42.6241455 0.634666667,41.9968022 1.41666667,41.9968022 L2.83333333,41.9968022 C5.9585,41.9968022 8.5,39.4846285 8.5,36.3955231 C8.5,33.3064177 5.9585,30.794244 2.83333333,30.794244 L1.41666667,30.794244 C0.634666667,30.794244 0,30.1669007 0,29.3939242 L0,23.7926451 C0,19.9333638 3.179,16.7910462 7.08333333,16.7910462 L60.9166667,16.7910462 C64.821,16.7910462 68,19.9333638 68,23.7926451 L68,29.3939242 C68,30.1669007 67.3653333,30.794244 66.5833333,30.794244 L65.1666667,30.794244 C62.0415,30.794244 59.5,33.3064177 59.5,36.3955231 C59.5,37.8910646 60.0893333,39.2969857 61.1603333,40.3556274 C62.2285,41.4142692 63.6508333,41.9968022 65.1638333,41.9968022 L66.5805,41.9968022 C67.3625,41.9968022 67.9971667,42.6241455 67.9971667,43.397122 L67.9971667,48.9984011 C68,52.8576824 64.821,56 60.9166667,56 Z M2.83333333,44.7974418 L2.83333333,48.9984011 C2.83333333,51.31453 4.74016667,53.1993604 7.08333333,53.1993604 L60.9166667,53.1993604 C63.2598333,53.1993604 65.1666667,51.31453 65.1666667,48.9984011 L65.1666667,44.7974418 L65.1638333,44.7974418 C62.8943333,44.7974418 60.7608333,43.9236422 59.1571667,42.3384803 C57.5506667,40.7505176 56.6666667,38.6388354 56.6666667,36.3955231 C56.6666667,31.7632653 60.4803333,27.9936045 65.1666667,27.9936045 L65.1666667,23.7926451 C65.1666667,21.4765162 63.2598333,19.5916858 60.9166667,19.5916858 L7.08333333,19.5916858 C4.74016667,19.5916858 2.83333333,21.4765162 2.83333333,23.7926451 L2.83333333,27.9936045 C7.51966667,27.9936045 11.3333333,31.7632653 11.3333333,36.3955231 C11.3333333,41.0277809 7.51966667,44.7974418 2.83333333,44.7974418 Z" id="Shape" fill="#F8FAFC"></path>
        </g>
    </g>
</svg>