<?xml version="1.0" encoding="utf-8"?>
<!-- Generator: Adobe Illustrator 24.3.0, SVG Export Plug-In . SVG Version: 6.00 Build 0)  -->
<svg version="1.1" id="Layer_1" xmlns="http://www.w3.org/2000/svg" xmlns:xlink="http://www.w3.org/1999/xlink" x="0px" y="0px"
	 viewBox="0 0 90 90" style="enable-background:new 0 0 90 90;" xml:space="preserve">
<style type="text/css">
	.st0{fill:#147894;}
	.st1{fill:#13EBF2;}
	.st2{fill:#02B6D3;}
	.st3{fill:#7B99C7;}
	.st4{fill:none;}
</style>
<circle class="st0" cx="45" cy="45" r="45"/>
<g>
	<path class="st1" d="M69,39.6c0.3-0.1,0.5-0.4,0.7-0.6c0.2-0.2,0.5-0.4,0.8-0.4c2.7,0,5.5,0,8.2,0c0.3,0,0.3,0,0.3-0.3
		c0-0.6,0-1.3,0-1.9c0-0.1,0-0.2,0-0.2c0,0,0.1,0,0.1,0.1c0.7,0.7,1.4,1.4,2.2,2.1c0.5,0.5,1,1,1.5,1.5c0.1,0.1,0.3,0.3,0.4,0.4
		c0.1,0.1,0.1,0.1,0,0.2c-0.6,0.6-1.2,1.1-1.8,1.7c-0.4,0.4-0.8,0.8-1.2,1.2c-0.3,0.3-0.6,0.6-0.9,0.9c-0.1,0.1-0.2,0.2-0.3,0.3
		c-0.1,0.1-0.2,0-0.2-0.1c0-0.1,0-0.2,0-0.3c0-0.5,0-1,0-1.5c0-0.5,0-0.5-0.4-0.5c-1.2,0-2.4,0-3.6,0c-1.1,0-2.2,0-3.3,0
		c-0.2,0-0.3,0.1-0.5,0.2c-0.7,0.7-1.5,1.4-2.2,2.1c-0.1,0.1-0.2,0.2-0.4,0.3c-0.1,0.1-0.2,0.2-0.2,0.3c-0.1,0.1-0.1,0-0.2,0
		c-0.7-0.7-1.4-1.3-2.1-2.1c-0.1-0.1-0.3-0.1-0.3-0.3c0.1-0.1,0.2-0.2,0.3-0.3c0.2-0.2,0.3-0.3,0.5-0.5c0.1-0.1,0.2-0.2,0.4-0.3
		c0.3-0.3,0.6-0.6,0.9-0.8c0.4-0.3,0.7-0.7,1.1-1C68.9,39.7,68.9,39.6,69,39.6z"/>
	<path class="st2" d="M69.8,51.1c-0.5-0.5-1-1-1.5-1.4c-0.6-0.6-1.1-1.1-1.7-1.7c-0.1-0.1-0.2-0.1-0.2-0.2c-0.2-0.2-0.3-0.4-0.5-0.5
		c-0.8-0.6-1.6-1.4-2.4-2.2c-0.1-0.1-0.2-0.3-0.4-0.4c-0.5-0.4-1-0.9-1.5-1.4c-0.1-0.1-0.2-0.2-0.4-0.3C61.2,43,61.1,43,61,43
		c-1.5,0-3,0-4.5,0c-0.1,0-0.3,0-0.4-0.1c-0.1-0.1,0-0.2,0-0.3c0-0.9,0-1.8,0-2.8c0-0.3,0-0.4,0.3-0.4c2,0,3.9,0,5.9,0
		c0.1,0,0.3,0.1,0.4,0.2c0.7,0.7,1.4,1.3,2,2c0.3,0.3,0.6,0.6,0.9,0.9c0.1,0.1,0.1,0.1,0.1,0.2c0.5,0.4,1,0.9,1.5,1.4
		c0.2,0.2,0.4,0.4,0.7,0.6c0.1,0.1,0.3,0.3,0.4,0.4c0,0,0.1,0,0.1,0c0.7,0.6,1.4,1.3,2.1,2c0.2,0.2,0.4,0.4,0.7,0.6
		c0.1,0.1,0.2,0.1,0.3,0.1c1.1,0,2.2,0,3.4,0c0.2,0,0.2-0.1,0.2-0.3c0-0.6,0-1.2,0-1.8c0-0.1,0-0.2,0.1-0.3c0.1-0.1,0.2,0,0.2,0.1
		c0.7,0.6,1.3,1.3,2,1.9c0.7,0.7,1.4,1.3,2,2c0.2,0.2,0.2,0.3,0,0.5c-0.3,0.3-0.6,0.6-0.9,0.9c-0.4,0.4-0.9,0.8-1.3,1.2
		c-0.4,0.3-0.8,0.7-1.1,1.1c0,0,0,0-0.1,0c-0.2,0.2-0.5,0.4-0.7,0.6c-0.1,0.1-0.2,0.1-0.2-0.1c0-0.7,0-1.3,0-2c0-0.3,0-0.3-0.2-0.3
		c-1.5,0-3,0-4.5,0C70.1,51.4,69.9,51.3,69.8,51.1z"/>
	<path class="st3" d="M63.7,45.3c0.7,0.6,1.4,1.4,2.1,2"/>
	<path class="st1" d="M65.8,47.3c-0.6,0.6-1.4,1.4-2.1,2c-0.4,0.4-0.8,0.7-1.1,1.1c-0.1,0.1-0.2,0.1-0.3,0.1c-2,0-4,0-5.9,0
		c-0.2,0-0.2-0.1-0.2-0.3c0-0.9,0-1.9,0-2.8c0-0.2,0.1-0.3,0.2-0.3c1.5,0,3.1,0,4.6,0c0.1,0,0.2,0,0.2-0.1c0.2-0.3,0.4-0.5,0.7-0.7
		c0.4-0.4,1-1,1.4-1.4"/>
</g>
<g>
	<path class="st1" d="M45,52.5C45,52.5,44.9,52.5,45,52.5c-2.1,0-3.9-0.8-5.3-2.3c-1.4-1.5-2.2-3.5-2.1-5.5c0.1-2,1-3.9,2.4-5.2
		c1.5-1.3,3.3-2,5.3-1.9c4,0.2,7.2,3.5,7.1,7.5c0,1.9-0.7,3.8-2.1,5.3C48.9,51.7,47,52.5,45,52.5z M45,38.6c-1.6,0-3.1,0.6-4.3,1.7
		c-1.3,1.2-2,2.8-2.1,4.5c-0.1,1.8,0.6,3.4,1.8,4.7c1.2,1.3,2.8,2,4.5,2c1.8,0,3.4-0.7,4.7-1.9c1.2-1.2,1.9-2.9,1.8-4.5v0
		c0-3.4-2.7-6.3-6.1-6.4C45.2,38.6,45.1,38.6,45,38.6z"/>
	<path class="st1" d="M47.5,49.2c-0.5,0-0.9-0.3-1.1-0.7l-0.4-1.2c0,0,0,0,0,0c0,0,0,0,0,0H44l-0.3,1.1c-0.2,0.7-0.8,1.1-1.5,0.9
		c-0.3-0.1-0.6-0.3-0.7-0.5c-0.2-0.3-0.2-0.7-0.1-1l1.8-5.6c0.3-0.9,0.6-1.2,1.6-1.2h0.6c0.7,0,1,0.3,1.3,0.9l2,5.9
		c0.2,0.6-0.1,1.2-0.7,1.5C47.7,49.2,47.6,49.2,47.5,49.2z M44,46.5h1.9c0.4,0,0.6,0.2,0.7,0.5l0.4,1.2c0.1,0.2,0.4,0.4,0.6,0.3
		c0.3-0.1,0.4-0.3,0.3-0.6L47.6,47l-1.7-5c-0.1-0.4-0.3-0.5-0.6-0.5h-0.6c-0.6,0-0.7,0-0.9,0.7l-1.8,5.6c-0.1,0.2-0.1,0.4,0,0.5
		c0.1,0.1,0.1,0.2,0.3,0.2c0.4,0.1,0.6-0.2,0.7-0.4l0.3-1.1C43.5,46.5,43.9,46.5,44,46.5z"/>
</g>
<path class="st4" d="M46.8,27.2c-8.5,0-15.4,6.9-15.4,15.4c0,8.5,6.9,15.4,15.4,15.4c4.1,0,7.9-1.6,10.7-4.3L46.6,42.9l11.1-11.1
	C54.9,29,51.1,27.2,46.8,27.2z"/>
<path class="st2" d="M45,60.4c-8.7,0-15.8-7.3-15.4-16.2c0.4-7.8,6.7-14.2,14.4-14.6c4.7-0.3,8.9,1.5,11.9,4.6l6.6-6.6
	c0.4-0.4,0.4-1,0-1.4l-2.4-2.4c-0.4-0.4-1.1-0.4-1.5,0l-4.4,4.4c-1.4-0.7-3.3-1.2-5-1.7v-6.1c0-0.6-0.5-1.1-1.1-1.1h-6.4
	c-0.6,0-1.1,0.5-1.1,1.1v6.1c-1.7,0.4-3.6,1-5,1.7l-4.4-4.4c-0.4-0.4-1.1-0.4-1.5,0l-6.1,6.1c-0.4,0.4-0.4,1.1,0,1.5l4.4,4.4
	c-0.7,1.4-1.2,3.3-1.7,5h-6.1c-0.6,0-1.1,0.5-1.1,1.1v6.4c0,0.6,0.5,1.1,1.1,1.1h6.1c0.4,1.7,1,3.6,1.7,5l-4.4,4.4
	c-0.2,0.2-0.3,0.5-0.3,0.8s0.1,0.6,0.3,0.8l6.1,6.1c0.4,0.4,1.1,0.4,1.5,0l4.4-4.4c1.4,0.7,3.3,1.2,5,1.7v6.1c0,0.6,0.5,1.1,1.1,1.1
	h6.4c0.6,0,1.1-0.5,1.1-1.1v-6.1c1.7-0.4,3.6-1,5-1.7l4.4,4.4c0.4,0.4,1.1,0.4,1.5,0l2.1-2.1c0.4-0.4,0.4-1,0-1.4l-6.6-6.6
	C52.9,58.8,49.2,60.4,45,60.4z"/>
</svg>
