<svg height="120" viewBox="0 0 120 120" width="120" xmlns="http://www.w3.org/2000/svg" xmlns:xlink="http://www.w3.org/1999/xlink"><filter id="a" height="110.8%" width="113.3%" x="-6.7%" y="-5.4%"><feOffset dx="0" dy="1" in="SourceAlpha" result="shadowOffsetOuter1"/><feGaussianBlur in="shadowOffsetOuter1" result="shadowBlurOuter1" stdDeviation=".5"/><feColorMatrix in="shadowBlurOuter1" result="shadowMatrixOuter1" type="matrix" values="0 0 0 0 0   0 0 0 0 0   0 0 0 0 0  0 0 0 0.19761391 0"/><feMerge><feMergeNode in="shadowMatrixOuter1"/><feMergeNode in="SourceGraphic"/></feMerge></filter><g fill="none" fill-rule="evenodd"><circle cx="60" cy="60" fill="#334155" r="60"/><g fill-rule="nonzero" filter="url(#a)" transform="translate(30 23)"><g fill="#fff"><path d="m58.9085877 31.9162578c.6027848 0 1.0914123-.4898164 1.0914123-1.0942461v-23.79258982c0-3.87575-3.1448009-7.02942188-7.0101473-7.02942188-2.4943066 0-43.03049959 0-45.22211653 0-4.28305803 0-7.76773617 3.49404297-7.76773617 7.78893359v63.19310941c0 1.6639883 1.35013981 3.017957 3.00988786 3.017957h42.06996454c1.6594598 0 3.0097437-1.3536797 3.0097437-3.017957v-19.6931055h9.1934043c1.4981694 0 2.7169996-1.2221563 2.7169996-2.7242695v-13.365961c0-.6044297-.4884834-1.0942461-1.091124-1.0942461-.6027847 0-1.0912681.4898164-1.0912681 1.0942461v13.365961c0 .2954218-.2398455.5359218-.5346075.5359218h-9.1934043c-.0002883-1.762414-.0054772-38.8621406-.0059096-42.07102339 0-2.33287891 1.6547032-4.28564063 3.8489146-4.740625 3.1094872-.64273047 5.8850068 1.70951562 5.8850068 4.740625v23.79258979c-.0002883.6041407.4883392 1.0941016 1.0909798 1.0941016zm-12.4611548-27.60691405c-.7965061 1.89625-.5439765.97544141-.5464268 45.88534765 0 .0244258.0059096 20.7622031.0059096 20.7873516 0 .4574414-.3711551.8296093-.8273516.8296093h-42.06982038c-.45634062 0-.82735161-.3721679-.82735161-.8296093v-63.19310941c0-3.08819921 2.50554931-5.60058593 5.58534406-5.60058593h40.06284413c-.5615613.59243359-1.048315 1.32448437-1.3831474 2.12099609z"/><path d="m10.8739082 9.05965234c-2.04791149 0-3.71414574 1.67063676-3.71414574 3.72413676s1.66623425 3.7241367 3.71414574 3.7241367c2.0479114 0 3.7140015-1.6706367 3.7140015-3.7241367s-1.6660901-3.72413676-3.7140015-3.72413676zm0 5.25992576c-.8445041 0-1.53160949-.6889804-1.53160949-1.535789s.68696129-1.5357891 1.53160949-1.5357891c.8446481 0 1.5316094.6889805 1.5316094 1.5357891s-.6872496 1.535789-1.5316094 1.535789z"/><path d="m21.4929805 11.6896875h-2.0960535c-.6027848 0-1.0912681.4898164-1.0912681 1.0942461s.4884833 1.0942461 1.0912681 1.0942461h2.0960535c.6027847 0 1.0912681-.4898164 1.0912681-1.0942461 0-.6045742-.4884834-1.0942461-1.0912681-1.0942461z"/><path d="m40.698204 11.6896875h-14.8404393c-.6027847 0-1.0912681.4898164-1.0912681 1.0942461s.4884834 1.0942461 1.091124 1.0942461h14.8402952c.6027847 0 1.0912681-.4898164 1.0912681-1.0942461 0-.6045742-.4881951-1.0942461-1.0909799-1.0942461z"/></g><path d="m10.8739082 21.2462383c-2.04791149 0-3.7140016 1.6706367-3.7140016 3.7241367s1.66609011 3.7241367 3.7140016 3.7241367c2.0479114 0 3.7140015-1.6706367 3.7140015-3.7241367s-1.6660901-3.7241367-3.7140015-3.7241367zm0 5.2600703c-.8446482 0-1.53160949-.6889805-1.53160949-1.5357891s.68710539-1.535789 1.53160949-1.535789c.844504 0 1.5316094.6889804 1.5316094 1.535789s-.6872496 1.5357891-1.5316094 1.5357891z" fill="#f58320"/><path d="m40.698204 23.8761289h-21.301277c-.6027848 0-1.0912681.4898164-1.0912681 1.0941016 0 .6044297.4884833 1.0942461 1.0912681 1.0942461h21.301277c.6027848 0 1.0912682-.4898164 1.0912682-1.0942461 0-.6042852-.4884834-1.0941016-1.0912682-1.0941016z" fill="#f58320"/><path d="m10.8739082 33.4326797c-2.04791149 0-3.7140016 1.6706367-3.7140016 3.7241367s1.66609011 3.7241367 3.7140016 3.7241367c2.0479114 0 3.7140015-1.6706367 3.7140015-3.7241367s-1.6660901-3.7241367-3.7140015-3.7241367zm0 5.2602148c-.8446482 0-1.53160949-.6889804-1.53160949-1.535789s.68710539-1.5357891 1.53160949-1.5357891c.844504 0 1.5316094.6889805 1.5316094 1.5357891s-.6872496 1.535789-1.5316094 1.535789z" fill="#fff"/><path d="m40.698204 36.0627148h-2.0961976c-.6027847 0-1.0912681.4898165-1.0912681 1.0942461 0 .6044297.4884834 1.0941016 1.0912681 1.0941016h2.0961976c.6027848 0 1.0912682-.4898164 1.0912682-1.0941016-.0001442-.6044296-.4884834-1.0942461-1.0912682-1.0942461z" fill="#fff"/><path d="m34.2372222 36.0627148h-14.8402952c-.6027848 0-1.0912681.4898165-1.0912681 1.0942461 0 .6044297.4884833 1.0941016 1.0912681 1.0941016h14.8402952c.6027847 0 1.091124-.4898164 1.091124-1.0941016 0-.6044296-.4883393-1.0942461-1.091124-1.0942461z" fill="#fff"/><path d="m10.8739082 45.4435156c-2.04791149 0-3.7140016 1.6706367-3.7140016 3.7241367s1.66609011 3.7241368 3.7140016 3.7241368c2.0479114 0 3.7140015-1.6706368 3.7140015-3.7241368s-1.6660901-3.7241367-3.7140015-3.7241367zm0 5.2600703c-.8446482 0-1.53160949-.6889804-1.53160949-1.535789s.68710539-1.5357891 1.53160949-1.5357891c.844504 0 1.5316094.6889805 1.5316094 1.5357891s-.6872496 1.535789-1.5316094 1.535789z" fill="#f58320"/><path d="m40.698204 48.0735508h-21.301277c-.6027848 0-1.0912681.4898164-1.0912681 1.0942461s.4884833 1.0942461 1.0912681 1.0942461h21.301277c.6027848 0 1.0912682-.4898164 1.0912682-1.0942461s-.4884834-1.0942461-1.0912682-1.0942461z" fill="#f58320"/><path d="m10.8739082 57.6301016c-2.04791149 0-3.7140016 1.6706367-3.7140016 3.7241367s1.66609011 3.7241367 3.7140016 3.7241367c2.0479114 0 3.7140015-1.6706367 3.7140015-3.7241367 0-2.0536446-1.6660901-3.7241367-3.7140015-3.7241367zm0 5.2600703c-.8446482 0-1.53160949-.6889805-1.53160949-1.5357891s.68710539-1.5357891 1.53160949-1.5357891c.844504 0 1.5316094.6889805 1.5316094 1.5357891 0 .8466641-.6872496 1.5357891-1.5316094 1.5357891z" fill="#fff"/><path d="m40.698204 60.2601367h-21.301277c-.6027848 0-1.0912681.4898164-1.0912681 1.0942461s.4884833 1.0942461 1.0912681 1.0942461h21.301277c.6027848 0 1.0912682-.4898164 1.0912682-1.0942461s-.4884834-1.0942461-1.0912682-1.0942461z" fill="#fff"/></g></g></svg>