<svg xmlns="http://www.w3.org/2000/svg" viewBox="0 0 90 90"><circle cx="45" cy="45" r="45" fill="#59558e"/><path d="M29.13 26.23a9.21 9.21 0 1 0 9.21 9.21 9.22 9.22 0 0 0-9.21-9.21zm3.94 8.13l-4.18 4.18a.83.83 0 0 1-1.19 0L25.2 36a.83.83 0 0 1 0-1.18.84.84 0 0 1 1.19 0l1.9 1.92 3.6-3.6a.84.84 0 1 1 1.18 1.19z" fill="#c8c8fc"/><g fill="#8989ce"><path d="M56.57 59.34h-7v-1.57h7V51.5H30v3a3.21 3.21 0 0 0 3.14 3.27H48v1.57H37.82a.79.79 0 1 0 0 1.57h18.75zm-9.34-5.5a1.57 1.57 0 1 1 1.57 1.57 1.57 1.57 0 0 1-1.57-1.57zM68 46.8h-7.63a2.13 2.13 0 0 0-2.13 2.12v17a2.14 2.14 0 0 0 2.13 2.13H68a2.14 2.14 0 0 0 2.13-2.13v-17A2.13 2.13 0 0 0 68 46.79zm-6 1.7h4.26a.43.43 0 0 1 0 .85h-4.2a.43.43 0 0 1 0-.85zm2.2 18.28a.85.85 0 1 1 .85-.85.85.85 0 0 1-.85.85zm5.1-3H59.1V51h10.2z"/><path d="M64.5,28H36.62A10.59,10.59,0,0,1,30,46v3.94h26.6v-1a3.81,3.81,0,0,1,3.8-3.8h7.27V31.23A3.22,3.22,0,0,0,64.5,28Z"/></g></svg>