<?xml version="1.0" encoding="utf-8"?>
<!-- Generator: Adobe Illustrator 24.0.1, SVG Export Plug-In . SVG Version: 6.00 Build 0)  -->
<svg version="1.1" id="Layer_1" xmlns="http://www.w3.org/2000/svg" xmlns:xlink="http://www.w3.org/1999/xlink" x="0px" y="0px"
	 viewBox="0 0 90 90" style="enable-background:new 0 0 90 90;" xml:space="preserve">
<style type="text/css">
	.st0{fill:#C92F13;}
	.st1{fill:none;}
	.st2{fill:#F9902C;}
	.st3{fill:#FDD337;}
</style>
<circle class="st0" cx="45" cy="45" r="45"/>
<g>
	<path class="st1" d="M63.9,55.9L63.9,55.9C63.9,55.9,63.8,55.9,63.9,55.9L63.9,55.9z"/>
	<path class="st2" d="M51.1,55.9v-1c-0.1-0.3-0.3-0.7-0.4-1c-0.5-1.4-1.1-2.9-1.6-4.3c-0.1-0.2,0-0.3,0.2-0.3c2-1.1,3.4-2.8,4.1-5
		c0.4-1.1,0.5-2.2,0.4-3.4c-0.1-1.2-0.4-2.3-0.9-3.3c-1-2.1-2.6-3.6-4.8-4.4c-1-0.4-1.9-0.5-2.9-0.6c-0.7,0-1.4,0.1-2.2,0.3
		c-1.1,0.2-2,0.7-2.9,1.3c-1.6,1-2.7,2.5-3.4,4.2c-0.6,1.4-0.7,2.9-0.5,4.3c0.4,2.8,1.8,4.9,4.2,6.4c0.1,0.1,0.2,0.1,0.3,0.2
		c0.2,0.1,0.2,0.2,0.1,0.4c-0.5,1.2-0.9,2.3-1.4,3.5c-0.7,1.8-1.3,3.6-2,5.3c-0.3,0.9-0.7,1.8-1,2.7c-0.1,0.2-0.2,0.3-0.5,0.2
		c-2.8-1.3-5.2-3.1-7.3-5.4c-1.8-2-3.1-4.3-4.1-6.8c-0.3-0.9-0.6-1.8-0.8-2.7c-0.5-1.9-0.7-3.9-0.6-5.9c0-0.8,0.1-1.6,0.3-2.4
		c0.1-0.9,0.3-1.8,0.6-2.6c0.3-1.1,0.7-2.1,1.1-3.1c1.2-2.6,2.8-4.8,4.8-6.8c1.4-1.4,3-2.5,4.7-3.5c1.3-0.7,2.7-1.3,4.1-1.7
		c2-0.6,4.1-1,6.3-0.8c1-0.1,2.1,0,3.2,0.2c0.9,0.1,1.8,0.3,2.7,0.6c2.8,0.8,5.2,2,7.5,3.8c1.5,1.2,2.9,2.6,4,4.1
		c0.9,1.2,1.7,2.5,2.3,3.8c0.4,1,0.8,1.9,1.1,3c0.2,0.8,0.4,1.5,0.6,2.3c0.2,0.8,0.3,1.6,0.3,2.5c0,1.3,0.1,2.6-0.1,3.9
		c-0.1,0.8-0.2,1.7-0.4,2.5c-0.2,0.9-0.5,1.9-0.8,2.8c-0.1,0.4-0.3,0.7-0.4,1c0.5,0.6,0.9,1.3,1.2,2c0.6-1.1,1-2.3,1.4-3.5
		c0.5-1.7,0.9-3.4,1-5.2c0.1-1.9,0.1-3.8-0.2-5.7c-0.3-2-0.9-3.9-1.7-5.8c-0.9-2.1-2.1-4-3.6-5.7c-0.9-1.1-1.9-2.1-3-2.9
		c-0.8-0.7-1.7-1.3-2.6-1.9c-1.9-1.2-4-2.1-6.1-2.7c-1.9-0.5-3.8-0.8-5.7-0.9c-1.8-0.1-3.5,0.1-5.2,0.4c-2.3,0.4-4.4,1.2-6.5,2.2
		C33,21,32,21.7,31,22.3c-0.1,0-0.3,0.1-0.4,0.2c-0.9,0.8-1.9,1.5-2.7,2.4c-0.3,0.3-0.5,0.7-0.9,1c-0.5,0.5-0.9,1.1-1.3,1.7
		c-0.2,0.4-0.5,0.8-0.7,1.1c-0.6,0.7-0.9,1.5-1.3,2.3c-0.3,0.9-0.8,1.8-1.1,2.8c-0.7,1.8-1,3.7-1.2,5.6c-0.2,1.6-0.1,3.1,0,4.7
		c0.2,2,0.7,4,1.4,5.9c1.1,2.8,2.6,5.3,4.6,7.5c1.8,2,3.9,3.6,6.3,4.9c0.2,0.1,0.3,0.1,0.4,0.3c0.1,0,0.3,0,0.4,0.1
		c0.5,0.3,1.1,0.5,1.7,0.8c0.8,0.3,1.3,0.1,1.6-0.7c0.7-1.9,1.4-3.8,2.1-5.6c1-2.6,2-5.1,2.9-7.7c0.3-0.9,0.2-1.2-0.7-1.6
		c-2.7-1.3-4.1-3.4-4.2-6.5c0-0.8,0.1-1.6,0.4-2.4c0.4-1.2,1.1-2.2,2.1-2.9c0.8-0.8,1.8-1.2,2.8-1.4c1.4-0.3,2.8-0.2,4.2,0.3
		c1.3,0.5,2.3,1.3,3.1,2.5c1.1,1.6,1.5,3.4,1.1,5.4c-0.3,1.5-1,2.7-2.1,3.7c-0.6,0.6-1.3,1-2.1,1.3c-0.7,0.3-0.9,0.8-0.6,1.5
		c0.5,1.3,1,2.7,1.5,4c0.3,0.8,0.6,1.7,1,2.5c0.2-0.1,0.4-0.1,0.6-0.1H51.1z"/>
	<path class="st3" d="M58.8,47.5c2.6,0,4.9,1,6.3,2.6c0.1-0.3,0.3-0.7,0.4-1c0.3-0.9,0.6-1.8,0.8-2.8c0.2-0.8,0.3-1.7,0.4-2.5
		c0.2-1.3,0.1-2.6,0.1-3.9c0-0.8-0.2-1.6-0.3-2.5c-0.2-0.8-0.4-1.5-0.6-2.3c-0.3-1-0.7-2-1.1-3c-0.6-1.4-1.4-2.6-2.3-3.8
		c-1.2-1.6-2.5-2.9-4-4.1c-2.2-1.7-4.7-3-7.5-3.8c-0.9-0.2-1.8-0.5-2.7-0.6c-1.1-0.2-2.1-0.3-3.2-0.2c-2.2-0.1-4.2,0.3-6.3,0.8
		c-1.4,0.4-2.8,1-4.1,1.7c-1.7,0.9-3.3,2.1-4.7,3.5c-2,1.9-3.6,4.2-4.8,6.8c-0.5,1-0.9,2-1.1,3.1c-0.2,0.9-0.4,1.7-0.6,2.6
		c-0.1,0.8-0.2,1.6-0.3,2.4c-0.1,2,0.1,3.9,0.6,5.9c0.2,0.9,0.5,1.8,0.8,2.7c0.9,2.5,2.3,4.8,4.1,6.8c2.1,2.3,4.5,4.1,7.3,5.4
		c0.3,0.1,0.4,0,0.5-0.2c0.3-0.9,0.7-1.8,1-2.7c0.7-1.8,1.3-3.6,2-5.3c0.4-1.2,0.9-2.3,1.4-3.5c0.1-0.2,0-0.3-0.1-0.4
		c-0.1-0.1-0.2-0.1-0.3-0.2c-2.4-1.5-3.8-3.6-4.2-6.4c-0.2-1.5-0.1-2.9,0.5-4.3c0.7-1.7,1.8-3.2,3.4-4.2c0.9-0.6,1.9-1,2.9-1.3
		c0.7-0.1,1.4-0.3,2.2-0.3c1,0.1,2,0.2,2.9,0.6c2.2,0.8,3.8,2.3,4.8,4.4c0.5,1,0.8,2.1,0.9,3.3c0.1,1.2,0,2.3-0.4,3.4
		c-0.7,2.2-2.1,3.8-4.1,5c-0.1,0.1-0.2,0.1-0.2,0.3c0.5,1.4,1.1,2.9,1.6,4.3c0.1,0.3,0.3,0.7,0.4,1v-1.2
		C51.1,50.3,54.6,47.5,58.8,47.5z"/>
	<path class="st2" d="M65.5,57.5h-0.7v-2.1c0-3.3-2.7-5.9-5.9-5.9c-3.3,0-5.9,2.7-5.9,5.9v2.1h-0.7c-0.9,0-1.6,0.7-1.6,1.6v11.5
		c0,0.9,0.7,1.6,1.6,1.6h13.3c0.9,0,1.6-0.7,1.6-1.6V59.1C67.2,58.2,66.4,57.5,65.5,57.5z M55,55.4c0-2.1,1.7-3.9,3.9-3.9
		c2.1,0,3.9,1.7,3.9,3.9v2.1H55V55.4z M59.3,68.5h-0.9v0h-0.7v-0.7h0.7v-2.6h-0.3v-0.7h0.3v-2.2c0,0,0,0,0,0
		c-0.3-0.1-0.6-0.3-0.8-0.5c0,0,0,0,0,0c0-0.1-0.1-0.1-0.1-0.2c0,0,0,0,0-0.1c0-0.1-0.1-0.1-0.1-0.2c0,0,0-0.1,0-0.1
		c0,0,0-0.1,0-0.1c0-0.1,0-0.2,0-0.3c0-0.1,0-0.2,0-0.3c0-0.1,0-0.2,0.1-0.3c0.2-0.6,0.8-0.9,1.4-0.9c0.6,0,1.2,0.4,1.4,0.9
		c0,0.1,0.1,0.2,0.1,0.3c0,0.1,0,0.2,0,0.3c0,0.7-0.4,1.2-1,1.4v0V68.5z"/>
</g>
</svg>
