<svg xmlns="http://www.w3.org/2000/svg" viewBox="0 0 1000 1000"><path d="M343.13 100.45L94.24 211.88c-51.7 22.78-75.24 34.27-78.88 38.1L10 255.53v243.33l2.68 248.5c2.5 4.6 34.65 19.72 252.53 117.55l254.82 112.4c3.06 0 15.9-5.17 28.72-11.3l436.7-217.5c3.83-4.98 3.83-8.42 4.4-247.55l-2.87-248.12c-2.87-4.4-44.42-25.65-230.32-117.36L524.05 22.7c-4.4-.57-44.03 16.47-180.92 77.74zm378.5 63.37l199.5 98.6c1.15 1.15-173.84 86.92-177.1 86.92-2.87 0-411.82-193.94-414.1-196.43-.57-.77-.2-1.53.77-2.1 1.15-.38 44.23-19.53 95.73-42.7L521.58 66c.75-.01 90.92 44.03 200.05 97.83zm-244.1 105.3l208.68 99.36 10.72 5.17-88.64 43.46-88.45 43.65-218.64-98.22-218.45-99.56c0-1.34 191.26-87.5 194.7-87.68 1.34-.2 91.32 42.12 200.07 93.82zM274.4 396.05l222.85 100.13.57 213.85-.96 213.66c-.96 0-101.66-45-224-99.94L50.2 723.62V509.58l.57-213.85c.38 0 100.9 45.18 223.62 100.32zM947.73 511.3l-.57 213.66L541.1 923.7c-.38 0-.58-96.1-.38-213.66l.57-213.66 201.98-99.18 203.5-99.36c.77-.2 1.16 95.9.96 213.46zM107.45 393.18c-4.4 4.6-5.55 7.28-5.55 13.98 0 4.8 1.53 9.96 3.45 12.45 4.98 6.5 116.4 58.58 125.2 58.78 8.42.2 17.8-7.66 19.34-15.7 1.15-6.13-2.5-15.5-7.47-19.72-2.1-1.53-28.72-14.74-59.16-29.1-62.04-29.3-66.06-30.27-75.82-20.7zm4.98 77.15c-11.1 5.93-14.36 22.02-6.13 31 5.17 5.94 116.4 58.6 123.68 58.6 7.85 0 17.04-6.7 18.95-13.8 1.9-7.47-.2-16.27-4.8-20.87-5.16-4.97-117.74-57.24-123.1-57.24-2.68 0-6.5 1.15-8.6 2.3z"/></svg>