<svg xmlns="http://www.w3.org/2000/svg" viewBox="0 0 90 90"><circle cx="45" cy="45" r="45" fill="#c92f13"/><path d="M67.7 44.27H23.63a1.72 1.72 0 0 1-1.71-1.71V34.5a1.71 1.71 0 0 1 1.71-1.71H67.7a1.71 1.71 0 0 1 1.71 1.71v8.07a1.72 1.72 0 0 1-1.71 1.71zm0-1.7h0zM23.63 34.5v8.07H67.7V34.5zm42.57-2.18v-2.2a3.51 3.51 0 0 0-3.43-3.58H28.55a3.51 3.51 0 0 0-3.43 3.58v2.2zm-.94 12.55c.32 0 .63 0 .95.05v-.2H25.1v5.8h30.7a10.73 10.73 0 0 1 9.45-5.64zm-9.5 15.75H46.5V58.9h8.53a10.65 10.65 0 0 1 .09-6.84h-30v3.27a3.51 3.51 0 0 0 3.43 3.57H44.8v1.72H33.68a.85.85 0 0 0-.85.85.86.86 0 0 0 .85.86H56.9a10.77 10.77 0 0 1-1.13-1.71zm-11.77-6a1.72 1.72 0 1 1 1.72 1.72A1.72 1.72 0 0 1 44 54.62z" fill="#f9902c"/><g fill="#fdd337"><circle cx="30.9" cy="38.43" r="1.5"/><circle cx="36.81" cy="38.43" r="1.5"/><circle cx="42.71" cy="38.43" r="1.5"/><circle cx="48.62" cy="38.43" r="1.5"/><circle cx="54.53" cy="38.43" r="1.5"/><circle cx="60.43" cy="38.43" r="1.5"/><path d="M64.07 56.6h1.5l.38-1.97h-1.48l-.4 1.97zM65 46.2a9.42 9.42 0 1 0 9.42 9.41A9.41 9.41 0 0 0 65 46.19zm3.68 8.43h-1.2l-.4 2h1.63v1.48h-1.93l-.53 2.6h-1.5l.5-2.6h-1.5l-.52 2.6H61.7l.53-2.6h-.9v-1.5h1.2l.4-2h-1.6v-1.45h1.9l.53-2.6h1.5l-.53 2.6h1.48l.5-2.6h1.56l-.54 2.6h.93z"/></g></svg>