<svg xmlns="http://www.w3.org/2000/svg" viewBox="0 0 90 90"><circle cx="45" cy="45" r="45" fill="#147894"/><g fill="#13ebf2"><circle cx="27.53" cy="37.8" r="1.47"/><circle cx="33.32" cy="37.8" r="1.47"/><circle cx="39.11" cy="37.8" r="1.47"/><circle cx="44.9" cy="37.8" r="1.47"/><circle cx="50.69" cy="37.8" r="1.47"/><circle cx="56.48" cy="37.8" r="1.47"/></g><rect x="19.57" y="33.09" width="44.87" height="9.59" rx=".84" fill="none" stroke="#02b6d3" stroke-miterlimit="10" stroke-width="2"/><path d="M62.14 31.8v-2.16a3.44 3.44 0 0 0-3.36-3.51H25.22a3.43 3.43 0 0 0-3.35 3.51v2.16zm-.94 12.3h.93V44H21.87v5.67H52a10.51 10.51 0 0 1 9.21-5.56zm-9.3 15.44h-9.07v-1.68h8.36a10.44 10.44 0 0 1 .09-6.71h-29.4v3.2a3.43 3.43 0 0 0 3.35 3.5h15.94v1.68h-10.9a.84.84 0 0 0 0 1.68H53a9.92 9.92 0 0 1-1.09-1.68zm-11.6-5.87a1.68 1.68 0 1 1 1.7 1.68 1.68 1.68 0 0 1-1.68-1.68z" fill="#02b6d3"/><path d="M61.2 45.4a9.23 9.23 0 1 0 9.22 9.23 9.24 9.24 0 0 0-9.22-9.23zm3.94 8.14L61 57.74a.84.84 0 0 1-.59.24.86.86 0 0 1-.6-.24l-2.5-2.52A.83.83 0 1 1 58.44 54l1.93 2 3.6-3.6a.83.83 0 0 1 1.18 1.18z" fill="#13ebf2"/></svg>