<?xml version="1.0" encoding="utf-8"?>
<!-- Generator: Adobe Illustrator 24.0.1, SVG Export Plug-In . SVG Version: 6.00 Build 0)  -->
<svg version="1.1" id="Layer_1" xmlns="http://www.w3.org/2000/svg" xmlns:xlink="http://www.w3.org/1999/xlink" x="0px" y="0px"
	 viewBox="0 0 90 90" style="enable-background:new 0 0 90 90;" xml:space="preserve">
<style type="text/css">
	.st0{fill:#147894;}
	.st1{fill:#13EBF2;}
	.st2{fill:#02B6D3;}
</style>
<circle class="st0" cx="45" cy="45" r="45"/>
<g>
	<path class="st1" d="M54.5,49.8c-5.2,0-9.5,4.3-9.5,9.5s4.3,9.5,9.5,9.5c5.2,0,9.5-4.3,9.5-9.5S59.8,49.8,54.5,49.8z M58.6,58.2
		l-4.3,4.3c-0.2,0.2-0.4,0.3-0.6,0.3c-0.2,0-0.4-0.1-0.6-0.3l-2.6-2.6c-0.3-0.3-0.3-0.9,0-1.2c0.3-0.3,0.9-0.3,1.2,0l2,2l3.7-3.7
		c0.3-0.3,0.9-0.3,1.2,0C58.9,57.3,58.9,57.8,58.6,58.2z"/>
	<path class="st2" d="M54.5,28.3c0-0.4-0.4-0.8-0.8-0.8H45v-1.6c0-2.6-2.1-4.8-4.8-4.8c-2.6,0-4.8,2.1-4.8,4.8v1.6h-8.7
		c-0.4,0-0.8,0.4-0.8,0.8v23h3.3h1.6h1.8v-2.8c0-0.1,0-0.1,0-0.2c0,0,0,0,0,0c0.4-0.9,3.5-2.3,5.2-3v0v-1.3v0
		c-0.2-0.1-0.4-0.4-0.6-0.7c0,0,0,0,0,0c-0.1-0.2-0.2-0.4-0.2-0.6c0,0,0,0,0,0c0-0.1,0-0.2-0.1-0.3c0,0,0-0.1,0-0.1
		c0-0.1,0-0.3,0-0.4c0,0-0.1-0.1-0.1-0.1l0,0c-0.3-0.2-0.4-0.5-0.5-0.8c0,0,0,0,0,0c0-0.1,0-0.2,0-0.4c0-0.1,0-0.2,0-0.3
		c0,0,0-0.1,0-0.1c0-0.1,0.1-0.2,0.1-0.3c0,0,0,0,0-0.1c0-0.1,0.1-0.2,0.1-0.2c0,0,0,0,0,0c0.1-0.1,0.1-0.1,0.2-0.2
		c-0.1-0.3-0.3-0.7-0.4-1.1c0,0,0,0,0,0c0-0.1,0-0.2,0-0.2c0,0,0,0,0-0.1c0-0.1,0-0.1,0-0.2c0,0,0,0,0-0.1c0-0.1,0-0.1,0-0.2
		c0,0,0,0,0-0.1c0-0.1,0.1-0.1,0.1-0.2c0,0,0,0,0,0c0,0,0,0,0,0c0,0,0.1-0.1,0.1-0.1c0,0,0,0,0,0c0,0,0.1-0.1,0.1-0.1
		c0,0,0.1,0,0.1,0c0.1,0,0.1,0,0.2-0.1c0,0,0.1,0,0.1,0c0.1,0,0.2,0,0.3,0c0-0.1,0.1-0.2,0.2-0.2c0-0.1,0.1-0.1,0.2-0.2
		c0,0,0.1,0,0.1-0.1c0.1-0.1,0.1-0.1,0.2-0.2c0,0,0,0,0,0c0.1-0.1,0.2-0.2,0.4-0.2c0.1,0,0.2-0.1,0.3-0.1c0,0,0,0,0,0
		c0.4-0.2,0.9-0.3,1.3-0.3c0.1,0,0.3,0,0.5,0c1.7,0,3,0.7,3.3,1.8c0.1,0.4,0.1,0.9,0,1.4c0,0,0,0.1,0,0.1c0,0.1-0.1,0.3-0.1,0.4
		c0,0.1-0.1,0.2-0.1,0.3c0.1,0.1,0.1,0.1,0.2,0.2c0,0,0,0,0,0c0,0.1,0.1,0.1,0.1,0.2c0,0,0,0,0,0.1c0,0.1,0,0.1,0.1,0.2
		c0,0,0,0.1,0,0.1c0,0.1,0,0.2,0,0.3c0,0.3-0.1,0.6-0.2,0.9c0,0,0,0,0,0c0,0,0,0,0,0c0,0.1-0.1,0.2-0.2,0.2c0,0,0,0,0,0
		c-0.1,0.1-0.1,0.1-0.2,0.2c0,0.1,0,0.3,0,0.4c0,0.1,0,0.1,0,0.2c0,0.1,0,0.2-0.1,0.3c0,0,0,0.1,0,0.1c0,0.1-0.1,0.2-0.1,0.3
		c0,0,0,0,0,0.1c0,0.1-0.1,0.2-0.1,0.2c0,0,0,0,0,0.1c0,0.1-0.1,0.1-0.1,0.2c0,0,0,0,0,0c0,0.1-0.1,0.1-0.1,0.2c0,0,0,0,0,0
		c-0.1,0.1-0.2,0.2-0.3,0.3v0v1.3v0c1.7,0.7,4.8,2,5.2,3c0,0,0,0,0,0c0,0.1,0,0.1,0,0.2v1.6c1.9-1.4,4.2-2.2,6.7-2.2V28.3z
		 M40.2,27.5c-0.9,0-1.6-0.7-1.6-1.6c0-0.9,0.7-1.6,1.6-1.6c0.9,0,1.6,0.7,1.6,1.6C41.8,26.8,41.1,27.5,40.2,27.5z"/>
	<path class="st2" d="M31.6,53l-0.8,0v0h-4.9v5.6c0,0.4,0.4,0.8,0.8,0.8h16.4c0-2.3,0.7-4.5,1.9-6.4H31.6z M37.1,56.1h-6.4v-1.6h6.4
		V56.1z"/>
</g>
</svg>
