<svg xmlns="http://www.w3.org/2000/svg" width="80" height="80" fill-rule="nonzero"><circle fill="#8989ce" cx="40" cy="40" r="40"/><path d="M16.04 50.848l3.346-17.42h7.736c3.345.215 5.018 1.936 5.018 4.947 0 5.162-3.973 8.173-7.528 7.957H20.85l-.836 4.516H16.04zm5.646-7.742h2.5c1.882-.215 3.555-.86 3.764-4.517 0-1.3-1.045-1.936-2.5-1.936h-2.718l-1.046 6.452zM32.14 45.8l3.33-17.42h3.954l-.832 4.516h3.745c3.33.215 4.578 1.936 4.162 4.086L45.042 45.8H40.88l1.457-7.957c.208-1.075.208-1.72-1.248-1.72h-3.12L36.095 45.8H32.14zm13.88 5.62L49.365 34H57.1c3.346.215 5.018 1.936 5.018 4.947 0 5.162-3.973 8.173-7.527 7.957H50.83l-.836 4.516H46.02zm5.645-7.742h2.5c1.882-.215 3.555-.86 3.763-4.517 0-1.3-1.045-1.936-2.5-1.936H52.7l-1.046 6.452z" fill="#fff"/></svg>