<svg xmlns="http://www.w3.org/2000/svg" xmlns:xlink="http://www.w3.org/1999/xlink" width="120" height="120"><defs><path id="A" d="M0 .04h20.246V21H0z"/><path id="B" d="M.445.358h20.178V21H.445z"/></defs><g fill="none" fill-rule="evenodd"><circle fill="#147894" cx="60" cy="60" r="60"/><g transform="translate(32 34)"><g transform="translate(0 35)"><mask id="C" fill="#fff"><use xlink:href="#A"/></mask><path d="M7.194.04L.158 12.207a1.16 1.16 0 0 0 .051 1.249c.258.37.707.564 1.153.485l8.024-1.36 2.785 7.65c.153.424.538.72.986.762l.1.006c.4 0 .79-.215 1.002-.57l5.978-10.04C14.782 8.56 10.184 4.855 7.194.04" fill="#02b6d3" mask="url(#C)"/></g><g transform="translate(35 35)"><mask id="D" fill="#fff"><use xlink:href="#B"/></mask><path d="M20.467 12.208L13.613.358C10.562 5.11 5.927 8.75.445 10.503l5.91 9.927a1.17 1.17 0 0 0 1.003.57c.035 0 .072-.002.108-.006.45-.042.833-.338.987-.763l2.784-7.65 8.025 1.358c.45.078.895-.113 1.153-.484a1.17 1.17 0 0 0 .053-1.25" fill="#02b6d3" mask="url(#D)"/></g><path d="M39.228 19.578l-5.226 4.18 2.12 7.42c.133.464-.034.964-.42 1.253-.208.156-.454.234-.702.234a1.16 1.16 0 0 1-.618-.177L28 28.5l-6.382 4a1.17 1.17 0 0 1-1.321-.057c-.385-.29-.552-.79-.42-1.253l2.12-7.42-5.225-4.18c-.387-.31-.537-.83-.372-1.297s.604-.78 1.1-.78h6.28l3.177-6.355c.396-.79 1.693-.79 2.088 0L32.22 17.5h6.28c.496 0 .937.313 1.1.78s.015.988-.372 1.297m10.94 2.59C50.167 9.945 40.223 0 28 0S5.833 9.945 5.833 22.167 15.777 44.333 28 44.333 50.167 34.4 50.167 22.167" fill="#13ebf2"/></g></g></svg>