<svg xmlns="http://www.w3.org/2000/svg" viewBox="0 0 90 90" width="90" height="90"><g fill-rule="evenodd"><circle cx="45" cy="45" r="45" fill="#157892"/><path d="M51.1 59.7l-2.9 5.1c-.2.4-.1.9.3 1.1l11.6 6.7c.4.2.9.1 1.1-.3l2.9-5.1c.2-.4.1-.9-.3-1.1l-11.6-6.7c-.4-.3-.9-.1-1.1.3m22.6-25.4c-2.7.7-4 1.9-4.6 4.2L68 43.7c.3.1.5.2.7.3.9.5 1.6 1.3 2 2.3.4 1.1.3 2.2-.3 3.3l-4.6 8c-.2.4-.7.5-1.1.3s-.5-.7-.3-1.1l4.6-8c.4-.6.4-1.3.2-1.9s-.7-1.1-1.2-1.4c-.8-.5-2.4-.8-3.3.7l-2.5 4.4c-.1.2-.3.3-.5.4-1.3.3-4.4 1.5-6.2 4.5l-1.7 2.9c-.2.4-.1.9.3 1.1l8 4.6c.3.2.7.1 1-.1l5.2-4.4c2.7-2.3 4.3-3.6 5.1-5.1 1-1.8 1.1-3.8 1.1-8 0-2.6.1-6.2.4-11.3 0-.5-.3-.9-.8-.9h-.4M38.9 59.7c-.2-.4-.7-.5-1.1-.3l-11.6 6.7c-.4.2-.5.7-.3 1.1l2.9 5.1c.2.4.7.5 1.1.3l11.6-6.7c.4-.2.5-.7.3-1.1l-2.9-5.1M16.3 34.3H16c-.5 0-.8.4-.8.9.3 5.1.3 8.7.4 11.3 0 4.2.1 6.2 1.1 8 .8 1.5 2.4 2.8 5.1 5.1L27 64c.3.2.7.3 1 .1l8-4.6c.4-.2.5-.7.3-1.1l-1.7-2.9c-1.7-3-4.9-4.1-6.2-4.5-.2-.1-.4-.2-.5-.4l-2.5-4.4c-.9-1.6-2.5-1.2-3.3-.7-.6.3-1 .8-1.2 1.4s-.2 1.2.2 1.9l4.6 8c.2.4.1.9-.3 1.1s-.9.1-1.1-.3l-4.6-8c-.6-1.1-.7-2.2-.3-3.3.3-.9 1-1.7 2-2.3.2-.1.5-.2.7-.3L21 38.5c-.7-2.3-2-3.4-4.7-4.2" fill="#01b4d1"/></g><path d="M61.4 38l-2.5-1.5c.1-.7.2-1.5.2-2.2s-.1-1.5-.2-2.2l2.5-1.5c.5-.3.6-.9.4-1.4l-4-6.9c-.1-.2-.4-.4-.6-.5-.3-.1-.5 0-.8.1l-2.5 1.5c-1.1-.9-2.2-1.7-3.7-2.2v-2.9a.94.94 0 0 0-1-1h-8a.94.94 0 0 0-1 1v2.9c-1.4.5-2.6 1.2-3.9 2.2L33.7 22c-.5-.3-1.1-.1-1.4.4l-4 6.9c-.1.2-.2.5-.1.8s.2.5.5.6l2.5 1.5c-.1.7-.2 1.5-.2 2.2s.1 1.5.2 2.2L28.6 38c-.5.3-.6.9-.4 1.4l4 6.9c.3.5.9.6 1.4.4l2.6-1.5c1.2 1 2.5 1.8 3.9 2.2v2.9a.94.94 0 0 0 1 1h8a.94.94 0 0 0 1-1v-2.9c1.5-.5 2.6-1.3 3.7-2.2l2.5 1.5c.2.1.5.2.8.1s.5-.2.6-.5l4-6.9c.3-.5.1-1.2-.3-1.4zM45 41.3c-3.9 0-7-3.1-7-7s3.1-7 7-7 7 3.1 7 7-3.1 7-7 7z" fill="#00eef4"/></svg>