<?xml version="1.0" encoding="utf-8"?>
<!-- Generator: Adobe Illustrator 24.0.1, SVG Export Plug-In . SVG Version: 6.00 Build 0)  -->
<svg version="1.1" id="Layer_1" xmlns="http://www.w3.org/2000/svg" xmlns:xlink="http://www.w3.org/1999/xlink" x="0px" y="0px"
	 viewBox="0 0 90 90" style="enable-background:new 0 0 90 90;" xml:space="preserve" width="90" height="90">
<style type="text/css">
	.st0{fill:#59558E;}
	.st1{fill:#C8C8FC;}
	.st2{fill:#8989CE;}
</style>
<circle class="st0" cx="45" cy="45" r="45"/>
<path class="st1" d="M57.8,45.3L57.8,45.3C57.8,45.3,57.8,45.3,57.8,45.3c-0.2,0.3-4.2,3-11.1,3.2c0.5,8,2.8,17.3,11.1,21.3
	c0,0,0,0,0,0v0c8.3-4,10.6-13.3,11.1-21.3C62,48.3,58,45.6,57.8,45.3z"/>
<polygon class="st2" points="35.7,118.2 35.5,118.3 35.7,118.3 "/>
<path class="st2" d="M48.8,46.8c-0.2-0.1-0.4-0.2-0.6-0.3v0c-0.9-0.5-1.9-0.9-2.8-1.3c-0.5-0.2-0.9-0.4-1.4-0.6c0,0,0,0,0,0
	c0,0-0.1,0-0.1,0c-0.4-0.2-0.8-0.3-1.2-0.5v-2.7c0.5-0.4,0.9-0.9,1.2-1.5c0.3-0.7,0.5-1.4,0.6-2.1v-0.2c0-0.3,0.1-0.5,0.1-0.8
	c0.1-0.1,0.2-0.1,0.2-0.2c0.3-0.3,0.6-0.7,0.7-1.1c0.1-0.2,0.2-0.5,0.2-0.7c0-0.2,0.1-0.5,0.1-0.7c0-0.6-0.1-1.1-0.4-1.6
	c-0.1-0.2-0.3-0.4-0.5-0.5l0.2-0.5c0,0,0,0,0-0.1l0.3-0.9c0-0.1,0-0.1,0-0.2c0.1-0.3,0.1-0.5,0.1-0.8V29c0-0.6,0-1.1-0.1-1.7
	c-0.3-1.1-1.1-2.1-2.2-2.6l-0.1,0l-0.8-0.3l-0.3-0.1l-0.6-0.2L41,24l-0.7-0.1h-0.3c-0.4,0-0.7-0.1-1.1-0.1h-0.9
	c-0.9,0.1-1.8,0.3-2.7,0.6l-0.5,0.2c-0.3,0.1-0.5,0.3-0.8,0.4h-0.1c-0.2,0.1-0.3,0.2-0.5,0.4c-0.1,0-0.1,0.1-0.1,0.1
	c-0.1,0.1-0.2,0.2-0.3,0.4c-0.1,0.2-0.2,0.3-0.3,0.5c-0.2,0-0.3,0-0.5,0c-0.2,0-0.3,0-0.5,0.1h-0.1c-0.1,0-0.2,0.1-0.4,0.2l-0.1,0.1
	l-0.3,0.2v0c-0.1,0.1-0.1,0.2-0.2,0.2c-0.1,0.1-0.2,0.3-0.2,0.4v0.1c0,0.1-0.1,0.2-0.1,0.4c0,0.1,0,0.1,0,0.2v0.5l0.1,0.4
	c0,0,0,0.1,0,0.1l0.1,0.5v0.1c0.2,0.5,0.4,1.1,0.6,1.6c-0.2,0.1-0.4,0.3-0.5,0.6c-0.1,0.2-0.2,0.4-0.3,0.7v0.1c0,0,0,0.1,0,0.1
	c-0.1,0.3-0.1,0.5-0.1,0.8c0,0.2,0,0.5,0.1,0.7c0,0,0,0,0,0.1c0,0.2,0.1,0.5,0.2,0.7c0.2,0.4,0.4,0.8,0.7,1.1
	c0.1,0.1,0.1,0.1,0.2,0.2c0,0.3,0,0.5,0.1,0.8v0.2c0.1,0.7,0.3,1.4,0.6,2.1c0.3,0.6,0.7,1.1,1.1,1.4v2.6c-0.9,0.4-1.9,0.9-3,1.4
	c-0.9,0.4-1.8,0.8-2.7,1.3v0c-2.2,1.2-4.2,2.4-4.6,3.4c0,0.1-0.1,0.2-0.1,0.3v5.7h8.8h12.5h2c-0.8-2.8-1.2-5.8-1.4-8.6
	C46.2,47.2,47.6,47,48.8,46.8z"/>
<polygon class="st1" points="51.5,48.4 51.7,48.4 51.5,48.3 "/>
</svg>
