<svg xmlns="http://www.w3.org/2000/svg" width="90" height="90"><circle cx="45" cy="45" r="45" fill="#59558e"/><path d="M57.8 45.3h0c-.2.3-4.2 3-11.1 3.2.5 8 2.8 17.3 11.1 21.3h0c8.3-4 10.6-13.3 11.1-21.3-6.9-.2-10.9-2.9-11.1-3.2z" fill="#c8c8fc"/><path d="M35.7 118.2l-.2.1h.2zm13.1-71.4l-.6-.3c-.9-.5-1.9-.9-2.8-1.3l-1.4-.6h-.1c-.4-.2-.8-.3-1.2-.5v-2.7c.5-.4.9-.9 1.2-1.5a8.3 8.3 0 0 0 .6-2.1v-.2c0-.3.1-.5.1-.8.1-.1.2-.1.2-.2.3-.3.6-.7.7-1.1.1-.2.2-.5.2-.7s.1-.5.1-.7c0-.6-.1-1.1-.4-1.6-.1-.2-.3-.4-.5-.5l.2-.5v-.1l.3-.9v-.2c.1-.3.1-.5.1-.8V29c0-.6 0-1.1-.1-1.7a4.06 4.06 0 0 0-2.2-2.6h-.1l-.8-.3-.9-.3-.4-.1-.7-.1H40c-.4 0-.7-.1-1.1-.1H38c-.9.1-1.8.3-2.7.6l-.5.2c-.3.1-.5.3-.8.4h-.1c-.2.1-.3.2-.5.4-.1 0-.1.1-.1.1a1.38 1.38 0 0 0-.3.4c-.1.2-.2.3-.3.5h-.5c-.2 0-.3 0-.5.1h-.1c-.1 0-.2.1-.4.2l-.1.1-.3.2c-.1.1-.1.2-.2.2a.76.76 0 0 0-.2.4v.1c0 .1-.1.2-.1.4v.7l.1.4v.1l.1.5v.1l.6 1.6c-.2.1-.4.3-.5.6-.1.2-.2.4-.3.7v.2c-.1.3-.1.5-.1.8 0 .2 0 .5.1.7v.1c0 .2.1.5.2.7.2.4.4.8.7 1.1l.2.2c0 .3 0 .5.1.8v.2a8.3 8.3 0 0 0 .6 2.1c.3.6.7 1.1 1.1 1.4v2.6l-3 1.4-2.7 1.3c-2.2 1.2-4.2 2.4-4.6 3.4 0 .1-.1.2-.1.3v5.7h23.3c-.8-2.8-1.2-5.8-1.4-8.6 1.5 0 2.9-.2 4.1-.4z" fill="#8989ce"/><path d="M51.5 48.4h.2l-.2-.1z" fill="#c8c8fc"/></svg>