<svg xmlns="http://www.w3.org/2000/svg" xmlns:xlink="http://www.w3.org/1999/xlink" width="90" height="90"><defs><path id="A" d="M.016 0h27.666v33.4H.016z"/></defs><g fill="none" fill-rule="evenodd"><circle fill="#59558e" cx="45" cy="45" r="45"/><g transform="translate(26 24)"><g transform="translate(12.409 8.591)"><mask id="B" fill="#fff"><use xlink:href="#A"/></mask><path d="M7.485 31.948a2.79 2.79 0 0 0 2.447 1.46h12.192c1.137 0 2.152-.682 2.584-1.737a.94.94 0 0 0 .048-.15l2.902-12.753a.98.98 0 0 0 .024-.211c0-1.342-.705-2.426-1.757-2.752l-9.697-3.48v-9.52C16.228 1.102 15.3 0 13.84 0h-2.765C9.613 0 8.6 1.155 8.6 2.808v14.97L7 15.9c-.517-.66-1.387-1.067-2.288-1.067H4.72l-1.9.036a2.82 2.82 0 0 0-2.425 1.377 2.83 2.83 0 0 0-.054 2.781l7.13 12.93z" fill="#8989ce" mask="url(#B)"/></g><g fill="#c8c8fc"><path d="M5.727 0H1.9A1.91 1.91 0 0 0 0 1.909a1.91 1.91 0 0 0 1.909 1.909h3.818a1.91 1.91 0 0 0 1.909-1.909A1.91 1.91 0 0 0 5.727 0m0 7.636H1.9A1.91 1.91 0 0 0 0 9.545a1.91 1.91 0 0 0 1.909 1.909h3.818a1.91 1.91 0 0 0 1.909-1.909 1.91 1.91 0 0 0-1.909-1.909"/><path d="M5.727 15.273H1.9A1.91 1.91 0 0 0 0 17.182a1.91 1.91 0 0 0 1.909 1.909h3.818a1.91 1.91 0 0 0 1.909-1.909 1.91 1.91 0 0 0-1.909-1.909M15.273 0h-3.818a1.91 1.91 0 0 0-1.909 1.909 1.91 1.91 0 0 0 1.909 1.909h3.818a1.91 1.91 0 0 0 1.909-1.909A1.91 1.91 0 0 0 15.273 0m0 7.636h-3.818a1.91 1.91 0 0 0-1.909 1.909 1.91 1.91 0 0 0 1.909 1.909h3.818a1.91 1.91 0 0 0 1.909-1.909 1.91 1.91 0 0 0-1.909-1.909M11.455 19.1h3.818a1.91 1.91 0 0 0 1.909-1.909 1.91 1.91 0 0 0-1.909-1.909h-3.818a1.91 1.91 0 0 0-1.909 1.909 1.91 1.91 0 0 0 1.909 1.909M21 0a1.91 1.91 0 0 0-1.909 1.909A1.91 1.91 0 0 0 21 3.818h3.818a1.91 1.91 0 0 0 1.909-1.909A1.91 1.91 0 0 0 24.818 0H21z"/></g></g></g></svg>