<svg xmlns="http://www.w3.org/2000/svg" width="80" height="80" fill-rule="nonzero"><circle fill="#147894" cx="40" cy="40" r="40"/><path d="M38.7 22c-9.052 0-8.487 3.917-8.487 3.917l.01 4.058h8.638v1.218H26.79S21 30.537 21 39.65s5.056 8.8 5.056 8.8h3.017v-4.23s-.163-5.044 4.975-5.044h8.567s4.813.078 4.813-4.642V26.73S48.16 22 38.7 22zm-4.763 2.73a1.56 1.56 0 0 1 1.1.454c.292.29.455.685.455 1.097s-.163.806-.455 1.097-.687.454-1.1.454-.808-.163-1.1-.454-.455-.685-.455-1.097.163-.806.455-1.097.687-.454 1.1-.454h0zm5.11 33.015c9.052 0 8.487-3.917 8.487-3.917l-.01-4.058h-8.638v-1.218h12.07s5.792.655 5.792-8.458-5.056-8.8-5.056-8.8h-3.017v4.23s.163 5.044-4.975 5.044h-8.57s-4.813-.078-4.813 4.642v7.803s-.73 4.722 8.73 4.722h0zm4.763-2.73a1.56 1.56 0 0 1-1.1-.454c-.292-.29-.455-.685-.455-1.097s.163-.806.455-1.097.687-.454 1.1-.454.808.163 1.1.454.455.685.455 1.097-.163.806-.455 1.097-.687.454-1.1.454h0z" fill="#fff"/></svg>