<svg xmlns="http://www.w3.org/2000/svg" viewBox="0 0 90 90"><circle cx="45" cy="45" r="45" fill="#c92f13"/><path d="M32.65 48.7a.74.74 0 0 0 .18.55.72.72 0 0 0 .53.23h14.1a.72.72 0 0 0 .53-.23.74.74 0 0 0 .18-.55 7.85 7.85 0 0 0-3.34-5.61l.68-.9a6.61 6.61 0 0 0 1.28-3.34v-1.42a.71.71 0 0 0-.71-.71h0a.7.7 0 0 0-.71.7v1.42a5.21 5.21 0 0 1-1 2.49l-.8 1a7.57 7.57 0 0 0-6.36 0l-.8-1a5.24 5.24 0 0 1-1-2.49V37.4a.71.71 0 0 0-.71-.7h0a.7.7 0 0 0-.7.71v1.42a6.62 6.62 0 0 0 1.29 3.34l.68.9a7.82 7.82 0 0 0-3.34 5.61zm16.63 7.87A4.58 4.58 0 0 1 52 57.78l1.42 1.42a.72.72 0 0 0 1 0 .71.71 0 0 0 0-1L53 56.77a6 6 0 0 0-3.69-1.62h-1.1V52.3h1.06A4.64 4.64 0 0 1 52 53.52l1.42 1.42a.71.71 0 0 0 1-1L53 52.52a6 6 0 0 0-3.69-1.63H31.55a6 6 0 0 0-3.69 1.63l-1.42 1.42a.71.71 0 1 0 1 1l1.42-1.42a4.61 4.61 0 0 1 2.69-1.21h1.06v2.84h-1.06a6 6 0 0 0-3.69 1.62l-1.42 1.42a.71.71 0 0 0 0 1 .73.73 0 0 0 1 0l1.42-1.42a4.55 4.55 0 0 1 2.69-1.21h1.06v2.84h-1.06a6 6 0 0 0-3.69 1.6l-1.42 1.42a.71.71 0 1 0 1 1L28.86 62a4.61 4.61 0 0 1 2.69-1.21h1.13c.7 4.14 7 9.52 7.28 9.76a.65.65 0 0 0 .45.17.66.66 0 0 0 .46-.17c.3-.24 6.6-5.62 7.28-9.76h1.13A4.64 4.64 0 0 1 52 62l1.42 1.42a.71.71 0 0 0 1-1L53 61a6 6 0 0 0-3.69-1.63h-1.1v-2.8zm-10.46 3.5a.63.63 0 0 1 .2.47.67.67 0 0 1-.2.48.7.7 0 0 1-1 0l-3.3-3.2a.65.65 0 0 1 0-.94l3.3-3.2a.71.71 0 0 1 1 0 .67.67 0 0 1 .2.48.63.63 0 0 1-.2.47L36 57.34zm7.45-2.25L43 61a.7.7 0 0 1-1 0 .67.67 0 0 1-.2-.48.63.63 0 0 1 .2-.47l2.82-2.72-2.82-2.7a.63.63 0 0 1-.2-.47.67.67 0 0 1 .2-.48.71.71 0 0 1 1 0l3.3 3.2a.65.65 0 0 1 0 .94z" fill="#f9902c"/><path d="M65.65 18.3h-22.3a.49.49 0 0 0-.49.49v15.5a.49.49 0 0 0 .49.49h6.3v3.4a.49.49 0 0 0 .3.45.58.58 0 0 0 .18 0 .49.49 0 0 0 .35-.15l3.73-3.73h11.44a.48.48 0 0 0 .48-.49V18.8a.48.48 0 0 0-.48-.49zM48.2 23.15h8.73a.49.49 0 1 1 0 1H48.2a.49.49 0 0 1 0-1zm12.6 6.8H48.2a.49.49 0 0 1 0-1h12.6a.49.49 0 1 1 0 1zm0-2.9H48.2a.49.49 0 0 1 0-1h12.6a.49.49 0 1 1 0 1z" fill="#fdd337"/></svg>