<svg xmlns="http://www.w3.org/2000/svg" viewBox="0 0 90 90"><circle cx="45" cy="45" r="45" fill="#c92f13"/><path d="M58.35 24.27H26.8a4.15 4.15 0 0 0-4.15 4.15v4.15H62.5v-4.15a4.16 4.16 0 0 0-4.15-4.15zm-29 6.64A1.66 1.66 0 1 1 31 29.25a1.66 1.66 0 0 1-1.7 1.66zm5 0a1.66 1.66 0 1 1 1.66-1.66 1.66 1.66 0 0 1-1.73 1.66zm5 0a1.66 1.66 0 1 1 1.66-1.66 1.66 1.66 0 0 1-1.75 1.66zm-6.9 13a1.66 1.66 0 1 0 2.35 0 1.66 1.66 0 0 0-2.35 0zm30.04 1.5V34.27H22.66V51.7a4.15 4.15 0 0 0 4.15 4.15h26.82a11 11 0 0 1 8.87-10.44zM51 48.3l-1.05-1h-.25l-1.06 1-1.06-1h-.24l-1.05 1-1.06-1h-3.4a6.09 6.09 0 0 1-1.43 2.24 6.24 6.24 0 1 1 0-8.83 6.14 6.14 0 0 1 1.43 2.23h11.4l2.18 2.18-2.18 2.2h-1.18z" fill="#f9902c"/><path d="M64.6 50a6.21 6.21 0 0 0-4.94 10l8.7-8.7a6.19 6.19 0 0 0-3.77-1.3zm0-3.36a9.55 9.55 0 1 0 9.54 9.54 9.54 9.54 0 0 0-9.54-9.54zm0 17.43a7.89 7.89 0 1 1 7.88-7.89 7.89 7.89 0 0 1-7.88 7.89zm4.93-11.67l-8.7 8.72a6.22 6.22 0 0 0 8.71-8.72z" fill="#fdd337"/></svg>