<svg xmlns="http://www.w3.org/2000/svg" width="80" height="80" fill-rule="nonzero"><circle fill="#59558e" cx="40" cy="40" r="40"/><path d="M41.737 22.005c-.133.024-.26.082-.364.17l-7.127 2.627c-.097.03-.188.08-.267.146l-7.03 6.592a.71.71 0 0 0-.145.17l-4.606 7.93a.99.99 0 0 0-.073.122l-.024.05-.024.024v.05c-.01.015-.018.033-.024.05l-.024.024v.024c-.01.015-.018.033-.024.05v.17a.59.59 0 0 0 0 .146v9.633a.52.52 0 0 0 0 .097v.024a.76.76 0 0 0 .024.219c.158 3.4 1.536 5.376 3.2 6.35 1.582.927 3.28 1.016 4.34 1.046h.34a.78.78 0 0 0 .121-.024h.024L54.9 55.99a.79.79 0 0 0 .17 0 .83.83 0 0 0 .242-.073c.052-.027.1-.06.145-.097h.024c.236-.182.352-.483.29-.778l1.842-24.326c.003-.015-.003-.033 0-.05l.073-.924a.8.8 0 0 0-.024-.316c0-.79-.073-1.575-.267-2.335-.597-2.33-2.394-4.34-5.745-4.938-.048-.012-.097-.02-.145-.024h-.048l-9.48-.122a.79.79 0 0 0-.17 0h-.073zm2.74 1.58l4.048.05-2.23 1.24-1.818-1.29zm-2.618.073l3.54 2.506-2.52 8.052-9.527 8.903-7.782 1.752-1.915-4.622 4.436-7.663 6.836-6.374 6.933-2.554zm9.697.073c2.733.544 3.873 1.934 4.34 3.746.39 1.523.158 3.348-.267 5.036l-8.024-6.592 3.95-2.19zm-4.848 3.454l7.32 6.033-9.406.632 2.085-6.665zm8.242 7.517c-1.62 4.397-4.445 8.134-7.66 11.652l-2.764-10.97 10.424-.68zm-11.83 1.41L45.8 46.89l-10.57-3.43 7.88-7.347zM55.53 37.5L54.32 53.556l-6.28-5.62c2.927-3.144 5.633-6.523 7.49-10.436zm-31.975 6.617l.703 1.63-.703 1.29v-2.92zm10.74.68l11.03 3.552c-4.112 3.713-8.645 6.644-14.35 7.517l3.32-11.07zm-1.648.073l-2.933 9.78-3.54-8.32 6.473-1.46zm-7.636 2.7l3.612 8.5c-.855-.085-1.782-.265-2.618-.754-1.245-.73-2.297-2.074-2.424-5.11l1.43-2.627zm21.9 1.46l6.23 5.546-15.612 1.046c3.52-1.618 6.566-3.993 9.382-6.592z" fill="#fff"/></svg>