<?xml version="1.0" encoding="UTF-8"?>
<svg width="120px" height="120px" viewBox="0 0 120 120" version="1.1" xmlns="http://www.w3.org/2000/svg" xmlns:xlink="http://www.w3.org/1999/xlink">
    <title>saml-oauth</title>
    <defs>
        <filter x="-5.6%" y="-5.7%" width="111.3%" height="111.4%" filterUnits="objectBoundingBox" id="filter-1">
            <feOffset dx="0" dy="1" in="SourceAlpha" result="shadowOffsetOuter1"></feOffset>
            <feGaussianBlur stdDeviation="0.5" in="shadowOffsetOuter1" result="shadowBlurOuter1"></feGaussianBlur>
            <feColorMatrix values="0 0 0 0 0   0 0 0 0 0   0 0 0 0 0  0 0 0 0.19761391 0" type="matrix" in="shadowBlurOuter1" result="shadowMatrixOuter1"></feColorMatrix>
            <feMerge>
                <feMergeNode in="shadowMatrixOuter1"></feMergeNode>
                <feMergeNode in="SourceGraphic"></feMergeNode>
            </feMerge>
        </filter>
    </defs>
    <g id="saml-oauth" stroke="none" stroke-width="1" fill="none" fill-rule="evenodd">
        <circle id="Oval" fill="#334155" cx="60" cy="60" r="60"></circle>
        <g id="diagram" filter="url(#filter-1)" transform="translate(24.000000, 25.000000)" fill-rule="nonzero">
            <path d="M15.5274582,52.8742737 L6.52082832,52.8742737 C5.94338989,52.8742737 5.47537231,53.341575 5.47537231,53.9181295 C5.47537231,54.4941433 5.94338989,54.9614446 6.52082832,54.9614446 L15.5274582,54.9614446 C16.1043548,54.9614446 16.5723724,54.4941433 16.5723724,53.9181295 C16.5723724,53.341575 16.1043548,52.8742737 15.5274582,52.8742737 Z" id="Path" fill="#F58320"></path>
            <path d="M15.5274582,58.1644053 L6.52082832,58.1644053 C5.94338989,58.1644053 5.47537231,58.6317066 5.47537231,59.2077204 C5.47537231,59.7842749 5.94338989,60.2510354 6.52082832,60.2510354 L15.5274582,60.2510354 C16.1043548,60.2510354 16.5723724,59.7842749 16.5723724,59.2077204 C16.5723724,58.6317066 16.1043548,58.1644053 15.5274582,58.1644053 Z" id="Path" fill="#F58320"></path>
            <path d="M15.5274582,63.454537 L6.52082832,63.454537 C5.94338989,63.454537 5.47537231,63.9212974 5.47537231,64.4978521 C5.47537231,65.0738657 5.94338989,65.541167 6.52082832,65.541167 L15.5274582,65.541167 C16.1043548,65.541167 16.5723724,65.0738657 16.5723724,64.4978521 C16.5723724,63.9212974 16.1043548,63.454537 15.5274582,63.454537 Z" id="Path" fill="#F58320"></path>
            <path d="M35.2773666,30.9300439 C33.0607834,30.9300439 31.2569657,32.73056 31.2569657,34.9437508 C31.2569657,37.1569415 33.0607834,38.9579986 35.2773666,38.9579986 C37.4939499,38.9579986 39.2972259,37.1569415 39.2972259,34.9437508 C39.2972259,32.73056 37.4939499,30.9300439 35.2773666,30.9300439 Z M35.2773666,36.8708277 C34.2129517,36.8708277 33.3473357,36.0065366 33.3473357,34.9437508 C33.3473357,33.8809649 34.2129517,33.0166738 35.2773666,33.0166738 C36.3417815,33.0166738 37.2073975,33.8809649 37.2073975,34.9437508 C37.2073975,36.0065366 36.3417815,36.8708277 35.2773666,36.8708277 Z" id="Shape" fill="#F58320"></path>
            <path d="M67.8647156,41.5660156 L60.8850785,41.5660156 L60.8850785,37.394919 C60.8850785,35.6685004 59.6787415,34.2644332 58.1966858,34.2644332 L44.3294983,34.2644332 C44.020195,30.1203795 40.9103699,26.744885 36.8872604,26.0228396 L36.8872604,23.0740822 L41.4677658,23.0740822 C43.1962891,23.0740822 44.6025085,21.6700148 44.6025085,19.9441371 L44.6025085,16.8471844 C44.6025085,15.1213068 43.1962891,13.7172394 41.4677658,13.7172394 L36.8872604,13.7172394 L36.8872604,12.5836011 C36.8872604,12.0081283 37.3558196,11.5397453 37.9321746,11.5397453 L48.350441,11.5397453 L48.350441,18.5930739 C48.350441,20.3189517 49.7572021,21.7230189 51.4857254,21.7230189 L67.2634431,21.7230189 C68.9919662,21.7230189 70.3987273,20.3189517 70.3987273,18.5930739 L70.3987273,3.2694863 C70.3987273,1.54360867 68.9919662,0.13900046 67.2634431,0.13900046 L51.4857254,0.13900046 C49.7572021,0.13900046 48.350441,1.54360867 48.350441,3.2694863 L48.350441,9.45311541 L37.9321746,9.45311541 C36.2031097,9.45311541 34.7968903,10.8571825 34.7968903,12.5836011 L34.7968903,13.7166986 L29.5100251,13.7166986 C27.7815018,13.7166986 26.3752823,15.1213068 26.3752823,16.8471844 L26.3752823,19.9441371 C26.3752823,21.6700148 27.7815018,23.0740822 29.5100251,23.0740822 L34.7968903,23.0740822 L34.7968903,25.8903294 C30.0127106,26.1407467 26.1970672,30.1052356 26.1970672,34.9437508 C26.1970672,35.0232569 26.2014007,35.1022221 26.2030258,35.1811874 L16.1005631,35.1811874 C16.1005631,35.1606348 16.1021882,35.1406231 16.1021882,35.1206114 C16.1021882,32.2308073 13.7474747,29.8796977 10.8537826,29.8796977 C10.8353653,29.8796977 10.8169479,29.8813203 10.7985306,29.8813203 L10.7985306,12.3824021 L21.993576,12.3824021 C23.7220993,12.3824021 25.1288605,10.9777939 25.1288605,9.25191611 L25.1288605,3.13048584 C25.1288605,1.40460808 23.7220993,0 21.993576,0 L12.9241104,0 C12.346672,0 11.8786544,0.467301273 11.8786544,1.04331496 C11.8786544,1.61986961 12.346672,2.08717088 12.9241104,2.08717088 L21.993576,2.08717088 C22.569931,2.08717088 23.0384903,2.55501298 23.0384903,3.13048584 L23.0384903,9.25191611 C23.0384903,9.82738898 22.569931,10.2952312 21.993576,10.2952312 L3.32216641,10.2952312 C2.74581143,10.2952312 2.2772522,9.82738898 2.2772522,9.25191611 L2.2772522,3.13048584 C2.2772522,2.55501298 2.74581143,2.08717088 3.32216641,2.08717088 L8.74391181,2.08717088 C9.32080845,2.08717088 9.78882602,1.61986961 9.78882602,1.04331496 C9.78882602,0.467301273 9.32080845,0 8.74391181,0 L3.32216641,0 C1.59310147,0 0.186881984,1.40460808 0.186881984,3.13048584 L0.186881984,9.25191611 C0.186881984,10.9777939 1.59310147,12.3824021 3.32216641,12.3824021 L8.70870205,12.3824021 L8.70870205,30.339427 C6.8815918,31.1604493 5.6053772,32.9939579 5.6053772,35.1206114 C5.6053772,38.0104154 7.95954902,40.3609841 10.8537826,40.3609841 C12.9809875,40.3609841 14.8156815,39.089427 15.6390457,37.2683582 L26.5009537,37.2683582 C27.3752365,40.5562337 30.0565873,43.1155736 33.4150467,43.8176073 L33.4150467,53.8656663 C31.2000886,54.3643374 29.5127335,56.2638305 29.3377686,58.5792434 L22.0477448,58.5792434 L22.0477448,51.5464674 C22.0477448,49.8200488 20.6415252,48.4159815 18.913002,48.4159815 L3.13528442,48.4159815 C1.40621948,48.4159815 0,49.8200488 0,51.5464674 L0,66.8695142 C0,68.5959327 1.40621948,70 3.13528442,70 L18.913002,70 C20.6415252,70 22.0477448,68.5959327 22.0477448,66.8695142 L22.0477448,60.6664143 L29.6021118,60.6664143 C30.30793,62.7292465 32.2672119,64.2171467 34.5693816,64.2171467 C37.4636154,64.2171467 39.8177872,61.866578 39.8177872,58.976774 C39.8177872,56.4060761 37.9538421,54.2637378 35.5048751,53.821316 L35.5048751,44.0047441 C39.9299163,43.89495 43.5798035,40.6114013 44.2477035,36.3516041 L58.1966858,36.3516041 C58.4350281,36.3516041 58.7952499,36.7675238 58.7952499,37.394919 L58.7952499,41.5660156 L49.193306,41.5660156 C47.4647827,41.5660156 46.0585632,42.9706237 46.0585632,44.6965014 L46.0585632,50.8179318 C46.0585632,52.5443504 47.4647827,53.9484175 49.193306,53.9484175 L52.3751754,53.9484175 C52.9520721,53.9484175 53.4200897,53.4811163 53.4200897,52.9051026 C53.4200897,52.3285481 52.9520721,51.8617876 52.3751754,51.8617876 L49.193306,51.8617876 C48.616951,51.8617876 48.1483918,51.3934047 48.1483918,50.8179318 L48.1483918,44.6965014 C48.1483918,44.1210286 48.616951,43.6531865 49.193306,43.6531865 L67.8647156,43.6531865 C68.4410706,43.6531865 68.9101716,44.1210286 68.9101716,44.6965014 L68.9101716,50.8179318 C68.9101716,51.3934047 68.4410706,51.8617876 67.8647156,51.8617876 L56.5553742,51.8617876 C55.9779358,51.8617876 55.5099182,52.3285481 55.5099182,52.9051026 C55.5099182,53.4811163 55.9779358,53.9484175 56.5553742,53.9484175 L58.7952499,53.9484175 L58.7952499,59.5041105 C56.4188689,60.0038633 54.6296769,62.1126684 54.6296769,64.6314439 C54.6296769,67.521248 56.9838485,69.8718167 59.8780823,69.8718167 C62.772316,69.8718167 65.1264877,67.521248 65.1264877,64.6314439 C65.1264877,62.0861664 63.2988358,59.9595129 60.8850785,59.4889666 L60.8850785,53.9484175 L67.8652572,53.9484175 C69.5937805,53.9484175 71,52.5438095 71,50.8179318 L71,44.6965014 C71,42.9700828 69.5937805,41.5660156 67.8647156,41.5660156 Z M50.4408112,3.2694863 C50.4408112,2.69401344 50.9093705,2.22617134 51.4857254,2.22617134 L67.2634431,2.22617134 C67.839798,2.22617134 68.3083573,2.69401344 68.3083573,3.2694863 L68.3083573,18.5930739 C68.3083573,19.1680059 67.839798,19.6363889 67.2634431,19.6363889 L51.4857254,19.6363889 C50.9093705,19.6363889 50.4408112,19.1680059 50.4408112,18.5930739 L50.4408112,3.2694863 Z M28.4651107,19.9441371 L28.4651107,16.8471844 C28.4651107,16.2717115 28.9336701,15.8038695 29.5100251,15.8038695 L41.4677658,15.8038695 C42.0435791,15.8038695 42.51268,16.2717115 42.51268,16.8471844 L42.51268,19.9441371 C42.51268,20.519069 42.0435791,20.9874521 41.4677658,20.9874521 L29.5100251,20.9874521 C28.9336701,20.9874521 28.4651107,20.519069 28.4651107,19.9441371 L28.4651107,19.9441371 Z M10.8537826,38.2743541 C9.11225898,38.2743541 7.69520576,36.8594697 7.69520576,35.1206114 C7.69520576,33.381753 9.11225898,31.9668686 10.8537826,31.9668686 C12.5953064,31.9668686 14.011818,33.381753 14.011818,35.1206114 C14.011818,36.8594697 12.5953064,38.2743541 10.8537826,38.2743541 Z M19.9579163,66.8695142 C19.9579163,67.444987 19.4888152,67.9128291 18.913002,67.9128291 L3.13528442,67.9128291 C2.55892944,67.9128291 2.08982842,67.444987 2.08982842,66.8695142 L2.08982842,51.5459266 C2.08982842,50.9704537 2.55892944,50.5026116 3.13528442,50.5026116 L18.913002,50.5026116 C19.4888152,50.5026116 19.9579163,50.9704537 19.9579163,51.5459266 L19.9579163,66.8695142 Z M37.727417,58.976774 C37.727417,60.7156323 36.3109054,62.1299759 34.5693816,62.1299759 C32.827858,62.1299759 31.4108048,60.7156323 31.4108048,58.976774 C31.4108048,57.2379157 32.827858,55.8230313 34.5693816,55.8230313 C36.3109054,55.8230313 37.727417,57.2379157 37.727417,58.976774 Z M35.2773666,41.9235227 C31.4227218,41.9235227 28.2868958,38.792496 28.2868958,34.9437508 C28.2868958,31.0950056 31.4227218,27.9645197 35.2773666,27.9645197 C39.1320114,27.9645197 42.2672958,31.0955464 42.2672958,34.9437508 C42.2672958,38.792496 39.1314697,41.9235227 35.2773666,41.9235227 L35.2773666,41.9235227 Z M63.0361175,64.6314439 C63.0361175,66.3703022 61.6196061,67.7851866 59.8780823,67.7851866 C58.1365585,67.7851866 56.7195053,66.3703022 56.7195053,64.6314439 C56.7195053,62.8925856 58.1365585,61.4777012 59.8780823,61.4777012 C61.6196061,61.4777012 63.0361175,62.8925856 63.0361175,64.6314439 Z" id="Shape" fill="#FFFFFF"></path>
            <path d="M54.8712692,6.68500433 L63.8778992,6.68500433 C64.4547958,6.68500433 64.9228134,6.21770305 64.9228134,5.64114854 C64.9228134,5.06513472 64.4547958,4.59783344 63.8778992,4.59783344 L54.8712692,4.59783344 C54.2938309,4.59783344 53.826355,5.06513472 53.826355,5.64114854 C53.826355,6.21770305 54.2938309,6.68500433 54.8712692,6.68500433 L54.8712692,6.68500433 Z" id="Path" fill="#F58320"></path>
            <path d="M54.8712692,11.9745951 L63.8778992,11.9745951 C64.4547958,11.9745951 64.9228134,11.5072939 64.9228134,10.9312802 C64.9228134,10.3547255 64.4547958,9.88796507 63.8778992,9.88796507 L54.8712692,9.88796507 C54.2938309,9.88796507 53.826355,10.3547255 53.826355,10.9312802 C53.826355,11.5072939 54.2938309,11.9745951 54.8712692,11.9745951 L54.8712692,11.9745951 Z" id="Path" fill="#F58320"></path>
            <path d="M54.8712692,17.2647268 L63.8778992,17.2647268 C64.4547958,17.2647268 64.9228134,16.7974255 64.9228134,16.2214118 C64.9228134,15.6448573 64.4547958,15.177556 63.8778992,15.177556 L54.8712692,15.177556 C54.2938309,15.177556 53.826355,15.6448573 53.826355,16.2214118 C53.826355,16.7974255 54.2938309,17.2647268 54.8712692,17.2647268 L54.8712692,17.2647268 Z" id="Path" fill="#F58320"></path>
        </g>
    </g>
</svg>