<?xml version="1.0" encoding="UTF-8"?>
<svg width="120px" height="120px" viewBox="0 0 120 120" version="1.1" xmlns="http://www.w3.org/2000/svg" xmlns:xlink="http://www.w3.org/1999/xlink">
    <title>gaming-entertainment</title>
    <defs>
        <filter x="-5.4%" y="-5.4%" width="110.8%" height="110.8%" filterUnits="objectBoundingBox" id="filter-1">
            <feOffset dx="0" dy="1" in="SourceAlpha" result="shadowOffsetOuter1"></feOffset>
            <feGaussianBlur stdDeviation="0.5" in="shadowOffsetOuter1" result="shadowBlurOuter1"></feGaussianBlur>
            <feColorMatrix values="0 0 0 0 0   0 0 0 0 0   0 0 0 0 0  0 0 0 0.19761391 0" type="matrix" in="shadowBlurOuter1" result="shadowMatrixOuter1"></feColorMatrix>
            <feMerge>
                <feMergeNode in="shadowMatrixOuter1"></feMergeNode>
                <feMergeNode in="SourceGraphic"></feMergeNode>
            </feMerge>
        </filter>
    </defs>
    <g id="gaming-entertainment" stroke="none" stroke-width="1" fill="none" fill-rule="evenodd">
        <circle id="Oval" fill="#334155" cx="60" cy="60" r="60"></circle>
        <g id="001-gamepad" filter="url(#filter-1)" transform="translate(24.000000, 24.000000)" fill-rule="nonzero">
            <path d="M73.1839579,56.8229281 L71.9855405,53.5978641 C71.7075042,52.8497718 70.8759964,52.4684991 70.1275817,52.7465767 C69.3794559,53.0246542 68.9983843,53.8565745 69.2764206,54.6048113 L70.4746935,57.8298753 C71.614151,60.8965334 71.1968076,64.1960309 69.3296001,66.8822834 C67.4623927,69.568536 64.5154101,71.1092361 61.2441482,71.1092361 C57.8040992,71.1092361 54.6715665,69.3612786 52.8646195,66.4335148 L51.4013162,64.0624843 C51.9322441,63.1610446 52.2381708,62.1118943 52.2381708,60.9920684 C52.2381708,57.6448757 49.515467,54.9217677 46.1687711,54.9217677 C43.3200551,54.9217677 40.9248099,56.8953381 40.2746615,59.5467587 L33.7252013,59.5467587 C33.075053,56.8953381 30.6796633,54.9217677 27.8310917,54.9217677 C24.4843959,54.9217677 21.7616921,57.6448757 21.7616921,60.9920684 C21.7616921,62.1117498 22.0676187,63.1609001 22.5984022,64.0623397 L21.1350988,66.4335148 C19.3281519,69.3612786 16.1956191,71.1092361 12.7555701,71.1092361 C9.48445272,71.1092361 6.53747018,69.568536 4.67026274,66.8822834 C2.8030553,64.1960309 2.38556731,60.8965334 3.52516934,57.8298753 L10.4531,39.1846578 C12.2234861,34.42005 16.8277037,31.218689 21.9099589,31.218689 L52.090193,31.218689 C57.1724481,31.218689 61.7766658,34.4199054 63.5470519,39.1846578 L64.7454693,42.4101554 C65.0235056,43.1583923 65.8554469,43.539665 66.6034281,43.2614428 C67.3515539,42.9833653 67.7326255,42.151445 67.4545892,41.4032082 L66.2561717,38.1777106 C64.0671416,32.2863393 58.3741893,28.3280697 52.090193,28.3280697 L48.7226878,28.3280697 C48.0356896,24.3924914 44.5970856,21.3905832 40.4684488,21.3905832 L38.4451711,21.3905832 L38.4451711,20.306601 C38.4451711,16.0429374 34.9769427,12.5741942 30.713912,12.5741942 L15.540413,12.5741942 C12.8710332,12.5741942 10.6993442,10.4021828 10.6993442,7.73240677 C10.6993442,5.06263074 12.8710332,2.89061935 15.540413,2.89061935 L37.0184286,2.89061935 C37.8165547,2.89061935 38.4635238,2.24355421 38.4635238,1.44530968 C38.4635238,0.647065142 37.8165547,0 37.0184286,0 L15.540413,0 C11.2773823,0 7.80915391,3.46874323 7.80915391,7.73240677 C7.80915391,11.9960703 11.2773823,15.4648135 15.540413,15.4648135 L30.713912,15.4648135 C33.3832918,15.4648135 35.5549808,17.6368249 35.5549808,20.306601 L35.5549808,21.3905832 L33.5318476,21.3905832 C29.4032107,21.3905832 25.9646068,24.3924914 25.2776086,28.3280697 L21.9099589,28.3280697 C15.6259626,28.3280697 9.93301025,32.2863393 7.74398012,38.1777106 L0.816049464,56.8229281 C-0.657947588,60.789725 -0.11806004,65.05758 2.29727199,68.5323935 C4.71245952,72.0070625 8.52447601,74 12.7558591,74 C17.2055961,74 21.2574984,71.7389575 23.5946508,67.9519571 L24.6867092,66.182609 C25.6043446,66.7409321 26.6809405,67.0626581 27.8313807,67.0626581 C30.6800968,67.0626581 33.075342,65.0890877 33.7254903,62.4376671 L40.2748061,62.4376671 C40.9249544,65.0890877 43.3203441,67.0626581 46.1689156,67.0626581 C47.3192114,67.0626581 48.3956628,66.7409321 49.3132982,66.1827535 L50.4052121,67.9519571 C52.742509,71.7391021 56.7944113,74 61.2441482,74 C65.4753868,74 69.2874033,72.0070625 71.7025909,68.5323935 C74.1180674,65.05758 74.6579549,60.789725 73.1839579,56.8229281 L73.1839579,56.8229281 Z M33.5318476,24.2812026 L40.4684488,24.2812026 C42.9964983,24.2812026 45.1309038,25.9985195 45.7667457,28.3280697 L28.2334062,28.3280697 C28.8692481,25.9986641 31.0037981,24.2812026 33.5318476,24.2812026 L33.5318476,24.2812026 Z M27.8312362,64.1718942 C26.0781913,64.1718942 24.6520269,62.7455181 24.6520269,60.9922129 C24.6520269,59.2389077 26.0781913,57.8125316 27.8312362,57.8125316 C29.5842812,57.8125316 31.0104456,59.2389077 31.0104456,60.9922129 C31.0104456,62.7453735 29.5842812,64.1718942 27.8312362,64.1718942 Z M42.9898508,60.9922129 C42.9898508,59.2389077 44.4160152,57.8125316 46.1690601,57.8125316 C47.9221051,57.8125316 49.3482695,59.2389077 49.3482695,60.9922129 C49.3482695,62.7455181 47.9221051,64.1718942 46.1690601,64.1718942 C44.4160152,64.1718942 42.9898508,62.7453735 42.9898508,60.9922129 Z" id="XMLID_1480_" fill="#FFFFFF"></path>
            <path d="M50.4173509,44.3468704 C50.4173509,46.8971193 52.491785,48.9718614 55.0416553,48.9718614 C57.5915257,48.9718614 59.6659598,46.8971193 59.6659598,44.3468704 C59.6659598,41.7966215 57.5915257,39.7218794 55.0416553,39.7218794 C52.491785,39.7218794 50.4173509,41.796766 50.4173509,44.3468704 Z M56.7757695,44.3468704 C56.7757695,45.3032318 55.9978748,46.081242 55.0416553,46.081242 C54.0854359,46.081242 53.3075412,45.3032318 53.3075412,44.3468704 C53.3075412,43.390509 54.0854359,42.6124988 55.0416553,42.6124988 C55.9978748,42.6124988 56.7757695,43.3906535 56.7757695,44.3468704 Z" id="XMLID_1498_" fill="#F58320"></path>
            <path d="M37.7005136,44.3468704 C37.7005136,46.8971193 39.7749476,48.9718614 42.324818,48.9718614 C44.8746884,48.9718614 46.9491225,46.8971193 46.9491225,44.3468704 C46.9491225,41.7966215 44.8746884,39.7218794 42.324818,39.7218794 C39.7749476,39.7218794 37.7005136,41.796766 37.7005136,44.3468704 Z M44.0589322,44.3468704 C44.0589322,45.3032318 43.2810375,46.081242 42.324818,46.081242 C41.3685986,46.081242 40.5907039,45.3032318 40.5907039,44.3468704 C40.5907039,43.390509 41.3685986,42.6124988 42.324818,42.6124988 C43.2810375,42.6124988 44.0589322,43.3906535 44.0589322,44.3468704 Z" id="XMLID_1502_" fill="#FFFFFF"></path>
            <path d="M22.7158884,35.9642188 C20.4194877,35.9642188 18.5343611,37.7592934 18.3895626,40.0200468 C16.1291447,40.1650114 14.3343366,42.0502733 14.3343366,44.3470149 C14.3343366,46.6437566 16.1291447,48.529163 18.3895626,48.6739831 C18.5345056,50.9347365 20.4194877,52.7298111 22.7158884,52.7298111 C25.0122891,52.7298111 26.8974157,50.9347365 27.0422143,48.6739831 C29.3026321,48.529163 31.0974403,46.6437566 31.0974403,44.3470149 C31.0974403,42.0502733 29.3026321,40.1650114 27.0422143,40.0200468 C26.8972712,37.7591489 25.0121446,35.9642188 22.7158884,35.9642188 Z M28.20725,44.3468704 C28.20725,45.1438142 27.5589803,45.7921801 26.7621548,45.7921801 L25.6060787,45.7921801 C24.8079527,45.7921801 24.1609836,46.4392452 24.1609836,47.2374898 L24.1609836,48.3937375 C24.1609836,49.1906813 23.5127139,49.8390472 22.7158884,49.8390472 C21.919063,49.8390472 21.2707933,49.1906813 21.2707933,48.3937375 L21.2707933,47.2374898 C21.2707933,46.4392452 20.6238242,45.7921801 19.8256981,45.7921801 L18.669622,45.7921801 C17.8727965,45.7921801 17.2245269,45.1438142 17.2245269,44.3468704 C17.2245269,43.5499267 17.8727965,42.9015607 18.669622,42.9015607 L19.8256981,42.9015607 C20.6238242,42.9015607 21.2707933,42.2544956 21.2707933,41.4562511 L21.2707933,40.3000033 C21.2707933,39.5030596 21.919063,38.8546936 22.7158884,38.8546936 C23.5127139,38.8546936 24.1609836,39.5030596 24.1609836,40.3000033 L24.1609836,41.4562511 C24.1609836,42.2544956 24.8079527,42.9015607 25.6060787,42.9015607 L26.7621548,42.9015607 C27.5589803,42.9015607 28.20725,43.5499267 28.20725,44.3468704 Z" id="XMLID_1508_" fill="#F58320"></path>
            <path d="M66.9206265,48.0030703 C66.9206265,48.3846321 67.0752517,48.7560766 67.3440394,49.0263496 C67.6128271,49.2951772 67.9842165,49.4498253 68.3657216,49.4498253 C68.7457817,49.4498253 69.1186162,49.2951772 69.3874039,49.0263496 C69.6561916,48.7560766 69.8108168,48.3846321 69.8108168,48.0030703 C69.8108168,47.6229539 69.6561916,47.250064 69.3874039,46.9812364 C69.1186162,46.7124088 68.7457817,46.5577606 68.3657216,46.5577606 C67.9842165,46.5577606 67.6128271,46.7124088 67.3440394,46.9812364 C67.0752517,47.250064 66.9206265,47.6230984 66.9206265,48.0030703 Z" id="XMLID_1522_" fill="#F58320"></path>
        </g>
    </g>
</svg>