<?xml version="1.0" encoding="utf-8"?>
<!-- Generator: Adobe Illustrator 24.3.0, SVG Export Plug-In . SVG Version: 6.00 Build 0)  -->
<svg version="1.1" id="Layer_1" xmlns="http://www.w3.org/2000/svg" xmlns:xlink="http://www.w3.org/1999/xlink" x="0px" y="0px"
	 viewBox="0 0 90 90" style="enable-background:new 0 0 90 90;" xml:space="preserve">
<style type="text/css">
	.st0{fill:#59558E;}
	.st1{fill:#8989CE;}
	.st2{fill:#C8C8FC;}
	.st3{fill-rule:evenodd;clip-rule:evenodd;fill:#C8C8FC;}
</style>
<circle class="st0" cx="45" cy="45" r="45"/>
<desc>Created with Sketch.</desc>
<g>
	<path class="st1" d="M63.1,20.2C63.1,20.2,63.1,20.2,63.1,20.2c-0.4-0.5-1-0.8-1.7-0.8c-9.2-0.3-14.3-3.8-14.9-4.2
		c-0.2-0.2-0.5-0.4-0.8-0.5c-0.3-0.1-0.5-0.1-0.8-0.1c-0.6,0-1.2,0.2-1.6,0.6c-0.6,0.4-5.7,3.9-14.9,4.2c-0.6,0-1.2,0.3-1.7,0.8
		c-0.4,0.5-0.6,1.1-0.6,1.7c0.5,7.5,1.8,13.6,4.1,18.7c3,6.8,7.6,11.8,13.6,14.7c0.3,0.2,0.7,0.3,1.1,0.3c0,0,0,0,0,0
		c0.4,0,0.7-0.1,1-0.2c6.1-2.9,10.7-7.9,13.7-14.7c2.2-5.1,3.6-11.3,4.1-18.7C63.8,21.3,63.6,20.6,63.1,20.2z M45,52.3
		c-11.7-5.7-14.8-18.7-15.6-29.9c9.6-0.3,15.3-4.2,15.6-4.6c0,0,0,0,0,0v0c0.3,0.4,5.9,4.2,15.6,4.6C59.9,33.7,56.7,46.7,45,52.3
		L45,52.3C45,52.3,45,52.3,45,52.3z"/>
	<path class="st2" d="M45,17.9L45,17.9C45,17.9,45,17.9,45,17.9c-0.3,0.4-5.9,4.3-15.6,4.6c0.7,11.2,3.9,24.3,15.6,29.9c0,0,0,0,0,0
		v0c11.7-5.7,14.9-18.7,15.6-29.9C50.9,22.1,45.3,18.2,45,17.9z"/>
	<path class="st0" d="M50.3,30.3h-0.6v-1.7c0-2.6-2.1-4.7-4.7-4.7c-2.6,0-4.7,2.1-4.7,4.7v1.7h-0.6c-0.7,0-1.3,0.6-1.3,1.3v9.1
		c0,0.7,0.6,1.3,1.3,1.3h10.5c0.7,0,1.3-0.6,1.3-1.3v-9.1C51.5,30.9,51,30.3,50.3,30.3z M41.9,28.6c0-1.7,1.4-3.1,3.1-3.1
		c1.7,0,3.1,1.4,3.1,3.1v1.7h-6.2V28.6z M45.4,39h-0.7v0h-0.6v-0.5h0.6v-2h-0.3v-0.5h0.3v-1.7c0,0,0,0,0,0c-0.3-0.1-0.5-0.2-0.6-0.4
		c0,0,0,0,0,0c0,0-0.1-0.1-0.1-0.1c0,0,0,0,0-0.1c0,0,0-0.1-0.1-0.1c0,0,0-0.1,0-0.1c0,0,0-0.1,0-0.1c0-0.1,0-0.1,0-0.2
		c0-0.1,0-0.2,0-0.2c0-0.1,0-0.1,0.1-0.2c0.2-0.4,0.6-0.7,1.1-0.7s0.9,0.3,1.1,0.7c0,0.1,0.1,0.1,0.1,0.2c0,0.1,0,0.2,0,0.2
		c0,0.5-0.3,1-0.8,1.1v0V39z"/>
	<path class="st3" d="M51.1,61.1l-3.6,4.7c-0.3,0.4-0.2,0.9,0.2,1.2l10.6,8.2c0.4,0.3,0.9,0.2,1.2-0.2l3.6-4.6
		c0.3-0.4,0.2-0.9-0.2-1.2L52.3,61C51.9,60.7,51.4,60.7,51.1,61.1 M76.9,39c-2.8,0.4-4.2,1.4-5.1,3.5l-1.8,5
		c0.2,0.1,0.5,0.3,0.7,0.4c0.8,0.7,1.4,1.5,1.6,2.5c0.2,1.1,0,2.2-0.8,3.2l-5.6,7.3c-0.3,0.4-0.8,0.4-1.2,0.2
		c-0.4-0.3-0.4-0.8-0.2-1.2l5.6-7.3c0.4-0.6,0.6-1.2,0.5-1.8s-0.5-1.1-1-1.5c-0.7-0.6-2.3-1.2-3.4,0.3l-3.1,4
		c-0.1,0.2-0.3,0.3-0.6,0.3c-1.3,0.2-4.6,0.9-6.7,3.6l-2,2.7c-0.3,0.4-0.2,0.9,0.2,1.2l7.3,5.6c0.3,0.2,0.7,0.2,1,0l5.7-3.7
		c3-1.9,4.7-3,5.7-4.3c1.2-1.6,1.6-3.6,2.2-7.8c0.4-2.6,0.9-6.2,1.9-11.2c0.1-0.5-0.2-0.9-0.7-1H76.9 M39.1,61.1
		c-0.3-0.4-0.8-0.4-1.2-0.2l-10.6,8.2c-0.4,0.3-0.4,0.8-0.2,1.2l3.6,4.6c0.3,0.4,0.8,0.4,1.2,0.2l10.6-8.2c0.4-0.3,0.4-0.8,0.2-1.2
		L39.1,61.1 M13.3,39H13c-0.5,0.1-0.8,0.5-0.7,1c1,5,1.5,8.6,1.9,11.2c0.6,4.2,0.9,6.1,2.2,7.8c1,1.3,2.7,2.4,5.7,4.3l5.7,3.7
		c0.3,0.2,0.7,0.2,1,0l7.3-5.6c0.4-0.3,0.4-0.8,0.2-1.2l-2-2.7c-2.1-2.7-5.4-3.4-6.7-3.6c-0.2,0-0.4-0.1-0.6-0.3l-3.1-4
		c-1.1-1.4-2.7-0.9-3.4-0.3c-0.5,0.4-0.9,1-1,1.5c-0.1,0.6,0.1,1.3,0.5,1.8l5.6,7.3c0.3,0.4,0.2,0.9-0.2,1.2s-0.9,0.2-1.2-0.2
		l-5.6-7.3c-0.7-1-1-2.1-0.8-3.2c0.2-1,0.8-1.9,1.6-2.5c0.2-0.2,0.4-0.3,0.7-0.4l-1.8-5C17.5,40.4,16,39.4,13.3,39"/>
</g>
</svg>
