<svg xmlns="http://www.w3.org/2000/svg" viewBox="0 0 90 90" height="90" width="90"><circle cx="45" cy="45" r="45" fill="#147894"/><path d="M-113.6-30.9c-.3-.1-.5-.1-.8-.2-.7-.1-1.4 0-2 .2h-.1c.1-.1.3-.1.4-.2.4-.1.9-.1 1.3-.1l1.2.3zm3.3 7c0-.3.1-.6.1-.9 0-.5 0-1-.2-1.5v-.1c.1.1.1.3.1.4.1.3.1.7.1 1 .1.4.1.7-.1 1.1h0zm-5.4-2.9l1 .3v-.1c.1 0 .1.1.1.2s-.1 0-.1 0c-.4-.1-.7-.2-1-.4 0 .1 0 0 0 0z" fill="#58595b"/><g fill="#02b6d3"><path d="M45,72.7c-0.6,0-1-0.4-1-1V18.3c0-0.6,0.4-1,1-1s1,0.4,1,1v53.3C46,72.2,45.6,72.7,45,72.7z"/><path d="M71.9,46H18.1c-0.6,0-1-0.4-1-1s0.4-1,1-1h53.8c0.6,0,1,0.4,1,1S72.4,46,71.9,46z"/></g><path d="M68.1 36.5c-.5-1.1-4.1-2.7-6-3.4h0v-1.5c.2-.2.5-.4.7-.8.2-.3.3-.7.4-1.2V29l.1-.1c.2-.2.3-.4.4-.7 0-.1.1-.3.1-.4v-.4c0-.4-.1-.7-.2-.9l-.3-.3c0-.1.1-.2.1-.3h0c.1-.2.1-.3.2-.5v-.1c0-.2.1-.3.1-.5v-.1c0-.3 0-.7-.1-1-.2-.6-.6-1.1-1.3-1.5h-.1c-.1-.1-.3-.1-.4-.2-.1 0-.1 0-.2-.1-.1 0-.2-.1-.3-.1s-.2 0-.3-.1c-.1 0-.3-.1-.4-.1h-1.3a4.53 4.53 0 0 0-1.6.3c-.1 0-.2.1-.3.1-.2.1-.4.2-.5.3s-.2.1-.3.2c0 0-.1 0-.1.1l-.2.2c-.1.1-.1.2-.2.3h-.3c-.1 0-.2 0-.3.1h-.1c-.1 0-.1.1-.2.1h-.1c-.1 0-.1.1-.2.1l-.1.1c-.1.1-.1.2-.1.3v1c0 .1 0 .2.1.3l.3.9-.3.3c-.1.1-.1.2-.2.4v.2c0 .1-.1.3-.1.5v.4c0 .1.1.3.1.4.1.3.2.5.4.6h0l.1.1v.6c.1.5.2.9.4 1.2.2.4.5.7.7.8h0V33c-1.9.8-5.5 2.4-6 3.4V40h17.6v-3.3c.4-.1.4-.2.3-.2z" fill="#13ebf2"/><path d="M67.2 65.2c-.4-1.1-4-2.7-5.7-3.4V60c1.1-.3 2.3-1.1 2.6-2.4v-.1c.1-.5.1-.9.1-1.4 0-.3-.1-.7-.2-1-.1-.4-.3-.8-.4-1.2-.4-.9-1.1-1.7-1.8-2.5-.3-.3-.6-.6-1.1-.7-.2-.1-.5-.2-.7-.2-.8-.1-1.5 0-2.2.2-.1 0-.1.1-.2.1-.6.3-1.1.7-1.3 1.4 0 .1-.1.1-.2.1-.3.1-.6.3-.8.5-.3.3-.3.7-.3 1.2l.3 1.7c.1.5.1 1-.1 1.5-.1.3-.3.6-.6.8h.1c.4 0 .7 0 1.1-.1 0 0 .1-.1.1 0v.1c-.2.6-.5 1-.9 1.4-.1 0-.2.1-.1.2 0 .1.1.1.2.1a8.33 8.33 0 0 0 2.2.3v1.7c-1.7.8-5.3 2.4-5.7 3.4v3.5h15.6v-3.4zM38.5 36.5c-.4-1.1-4-2.7-5.7-3.4v-1.8c1.1-.3 2.3-1.1 2.6-2.4v-.1c.1-.5.1-.9.1-1.4 0-.3-.1-.7-.2-1-.1-.4-.3-.8-.4-1.2-.4-.9-1.1-1.7-1.8-2.5-.3-.3-.6-.6-1.1-.7-.2-.1-.5-.2-.7-.2-.8-.1-1.5 0-2.2.2-.1 0-.1.1-.2.1-.6.3-1.1.7-1.3 1.4 0 .1-.1.1-.2.1-.3.1-.6.3-.8.5-.3.4-.4.9-.3 1.3l.3 1.7c.1.5.1 1-.1 1.5-.1.3-.3.6-.6.8h.1c.4 0 .7 0 1.1-.1 0 0 .1-.1.1 0v.1c-.2.6-.5 1-.9 1.4-.1 0-.2.1-.1.2 0 .1.1.1.2.1a8.33 8.33 0 0 0 2.2.3V33c-1.7.8-5.3 2.4-5.7 3.4V40h15.6v-3.5z" fill="#02b6d3"/><path d="M39.4 65.2c-.5-1.1-4.1-2.7-6-3.4h0v-1.5c.2-.2.5-.4.7-.8.2-.3.3-.7.4-1.2v-.6l.1-.1c.2-.2.3-.4.4-.7 0-.1.1-.3.1-.4v-.4c0-.4-.1-.7-.2-.9l-.3-.3c0-.1.1-.2.1-.3h0c.1-.2.1-.3.2-.5V54c0-.2.1-.3.1-.5v-.1c0-.3 0-.7-.1-1-.2-.6-.6-1.1-1.3-1.5h-.1c-.1-.1-.3-.1-.4-.2-.1 0-.1 0-.2-.1-.1 0-.2-.1-.3-.1s-.2 0-.3-.1c-.1 0-.3-.1-.4-.1h-1.3a4.53 4.53 0 0 0-1.6.3c-.1 0-.2.1-.3.1-.2.1-.4.2-.5.3s-.2.1-.3.2c0 0-.1 0-.1.1l-.2.2c-.1.1-.1.2-.2.3h-.3c-.1 0-.2 0-.3.1h-.1c-.1 0-.1.1-.2.1h-.1c-.1 0-.1.1-.2.1l-.1.1c-.1.1-.1.2-.1.3v1c0 .1 0 .2.1.3l.3.9-.3.3c-.1.1-.1.2-.2.4v.2c0 .1-.1.3-.1.5v.4c0 .1.1.3.1.4.1.3.2.5.4.6h0l.1.1v.6c.1.5.2.9.4 1.2.2.4.5.7.7.8h0v1.5c-1.9.8-5.5 2.4-6 3.4v3.5h17.6v-3.3c.4 0 .4 0 .3-.1z" fill="#13ebf2"/></svg>