<svg xmlns="http://www.w3.org/2000/svg" width="90" height="90"><circle cx="45" cy="45" r="45" fill="#c92f13"/><path d="M66.7 55.4H62V45c0-.5-.4-.9-.9-.9H45.9V38c0-.5-.4-1-.9-1h0c-.5 0-.9.4-.9 1v6H29c-.5 0-1 .4-1 .9v10.5h-4.7c-.5 0-.9.4-.9.9v9.4c0 .5.4 1 .9 1h9.4c.5 0 .9-.5.9-1v-9.4c0-.5-.4-.9-.9-.9h-2.8V46h14.2v9.5h-3.8c-.5 0-.9.4-.9.9v9.4c0 .5.4 1 .9 1h9.4c.5 0 .9-.5.9-1v-9.4c0-.5-.4-.9-.9-.9H46V46h14.1v9.5h-2.8c-.5 0-.9.4-.9.9v9.4c0 .5.4 1 .9 1h9.5c.5 0 .9-.5.9-1v-9.4c0-.6-.5-1-1-1h0z" fill="#fdd337"/><path d="M45 15c-5.1 0-9.2 4.1-9.2 9.2s4.1 9.2 9.2 9.2 9.2-4.1 9.2-9.2c0-5-4.1-9.2-9.2-9.2zm3.9 8.2l-4.1 4.2c-.2.2-.4.2-.6.2s-.4-.1-.6-.2l-2.5-2.5c-.3-.3-.4-.8 0-1.2s.8-.4 1.2 0l1.9 2 3.6-3.6c.3-.3.9-.3 1.2 0s.3.8-.1 1.1h0z" fill="#f9902c"/></svg>