<?xml version="1.0" encoding="utf-8"?>
<!-- Generator: Adobe Illustrator 24.0.1, SVG Export Plug-In . SVG Version: 6.00 Build 0)  -->
<svg version="1.1" id="Layer_1" xmlns="http://www.w3.org/2000/svg" xmlns:xlink="http://www.w3.org/1999/xlink" x="0px" y="0px"
	 viewBox="0 0 90 90" style="enable-background:new 0 0 90 90;" xml:space="preserve" width="90" height="90">
<style type="text/css">
	.st0{fill:#C92F13;}
	.st1{fill:#FDD337;}
	.st2{fill:#F9902C;}
</style>
<circle class="st0" cx="45" cy="45" r="45"/>
<path class="st1" d="M66.7,55.4H62V45c0-0.5-0.4-0.9-0.9-0.9H45.9V38c0-0.5-0.4-1-0.9-1l0,0c-0.5,0-0.9,0.4-0.9,1V44H29
	c-0.5,0-1,0.4-1,0.9c0,0,0,0.1,0,0.1v10.4h-4.7c-0.5,0-0.9,0.4-0.9,0.9v9.4c0,0.5,0.4,1,0.9,1h9.4c0.5,0,0.9-0.5,0.9-1v-9.4
	c0-0.5-0.4-0.9-0.9-0.9h-2.8V46h14.2v9.5h-3.8c-0.5,0-0.9,0.4-0.9,0.9v9.4c0,0.5,0.4,1,0.9,1h9.4c0.5,0,0.9-0.5,0.9-1v-9.4
	c0-0.5-0.4-0.9-0.9-0.9H46V46h14.1v9.5h-2.8c-0.5,0-0.9,0.4-0.9,0.9v9.4c0,0.5,0.4,1,0.9,1h9.5c0.5,0,0.9-0.5,0.9-1v-9.4
	C67.7,55.8,67.2,55.4,66.7,55.4L66.7,55.4L66.7,55.4z"/>
<path class="st2" d="M45,15c-5.1,0-9.2,4.1-9.2,9.2s4.1,9.2,9.2,9.2s9.2-4.1,9.2-9.2c0,0,0,0,0,0C54.2,19.2,50.1,15,45,15z
	 M48.9,23.2l-4.1,4.2c-0.2,0.2-0.4,0.2-0.6,0.2c-0.2,0-0.4-0.1-0.6-0.2l-2.5-2.5c-0.3-0.3-0.4-0.8,0-1.2s0.8-0.4,1.2,0l1.9,2
	l3.6-3.6c0.3-0.3,0.9-0.3,1.2,0C49.3,22.4,49.3,22.9,48.9,23.2L48.9,23.2z"/>
</svg>
