<?xml version="1.0" encoding="utf-8"?>
<!-- Generator: Adobe Illustrator 24.3.0, SVG Export Plug-In . SVG Version: 6.00 Build 0)  -->
<svg version="1.1" id="Layer_1" xmlns="http://www.w3.org/2000/svg" xmlns:xlink="http://www.w3.org/1999/xlink" x="0px" y="0px"
	 viewBox="0 0 90 90" style="enable-background:new 0 0 90 90;" xml:space="preserve">
<style type="text/css">
	.st0{fill:#C92F13;}
	.st1{fill:#636466;}
	.st2{fill:#FDD337;}
	.st3{fill:#F9902C;}
	.st4{fill:none;stroke:#F9902C;stroke-width:2;stroke-linecap:round;stroke-miterlimit:10;}
</style>
<circle class="st0" cx="45" cy="45" r="45"/>
<path class="st1" d="M159,100.1c-0.1,0-0.1,0.1-0.2,0.1c0.1,0.1,0.1,0.2,0.2,0.3V100.1z"/>
<path class="st1" d="M93.8,67.4c0.1,0,0.1,0.1,0.2,0.1c-0.1,0.1-0.1,0.2-0.2,0.3V67.4z"/>
<g>
	<g>
		<path class="st2" d="M25.4,50.7c-5.2,0-9.9-1.4-11.5-3v-1.1c0-2.9,5-5.2,11.5-5.2c6.4,0,11.5,2.3,11.5,5.2
			C36.9,48.5,31.8,50.7,25.4,50.7z"/>
		<path class="st2" d="M26.4,57c-0.3,0-0.7,0-1,0c-0.3,0-0.7,0-1,0c-4.2-0.2-8.5-1.3-10.5-3v3c0,1.8,4.9,3.9,11,4l0,0c0,0,0,0,0.1,0
			c0,0,0,0,0,0l0,0c6.1-0.1,11.9-2.2,11.9-4v-3C34.9,55.7,30.6,56.9,26.4,57z"/>
		<path class="st2" d="M25.4,62.2C25.4,62.2,25.4,62.2,25.4,62.2C25.4,62.2,25.4,62.2,25.4,62.2c-4.6,0-9.3-1.2-11.5-3v2.4
			c0,2.9,5,5.2,11.5,5.2c0,0,0,0,0,0s0,0,0,0c6.4,0,11.5-2.3,11.5-5.2v-2.4C34.7,61,29.9,62.2,25.4,62.2z"/>
		<path class="st2" d="M26.5,51.9c-0.3,0-0.7,0-1,0s-0.7,0-1,0c-4.2-0.2-8.5-1.3-10.5-3v3c0,1.8,4.9,3.9,11,4l0,0c0,0,0,0,0.1,0
			c0,0,0,0,0,0l0,0c6.1-0.1,11.9-2.2,11.9-4v-3C35,50.6,30.7,51.7,26.5,51.9z"/>
		<path class="st2" d="M64.5,50.7c-5.2,0-9.9-1.4-11.5-3v-1.1c0-2.9,5-5.2,11.5-5.2c6.4,0,11.5,2.3,11.5,5.2
			C76,48.5,70.9,50.7,64.5,50.7z"/>
		<path class="st2" d="M65.5,57c-0.3,0-0.7,0-1,0c-0.3,0-0.7,0-1,0c-4.2-0.2-8.5-1.3-10.5-3v3c0,1.8,4.9,3.9,11,4l0,0c0,0,0,0,0.1,0
			c0,0,0,0,0,0l0,0c6.1-0.1,11.9-2.2,11.9-4v-3C74,55.7,69.7,56.9,65.5,57z"/>
		<path class="st2" d="M64.5,62.2C64.5,62.2,64.5,62.2,64.5,62.2C64.5,62.2,64.5,62.2,64.5,62.2c-4.6,0-9.3-1.2-11.5-3v2.4
			c0,2.9,5,5.2,11.5,5.2c0,0,0,0,0,0c0,0,0,0,0,0c6.4,0,11.5-2.3,11.5-5.2v-2.4C73.8,61,69.1,62.2,64.5,62.2z"/>
		<path class="st2" d="M65.6,51.9c-0.3,0-0.7,0-1,0c-0.3,0-0.7,0-1,0c-4.2-0.2-8.5-1.3-10.5-3v3c0,1.8,4.9,3.9,11,4l0,0
			c0,0,0,0,0.1,0c0,0,0,0,0,0l0,0c6.1-0.1,11.9-2.2,11.9-4v-3C74.1,50.6,69.8,51.7,65.6,51.9z"/>
	</g>
	<g>
		<path class="st2" d="M35.2,13.8v-1v-1V11c0-0.3,0.3-0.6,0.6-0.6h3.5c0.2,0,0.4,0.1,0.6,0.3l0.3,0.7c0.1,0.2,0.3,0.3,0.6,0.3h8.5
			c0.3,0,0.6,0.3,0.6,0.6v1.4H35.2z"/>
		<path class="st3" d="M53.8,14.9h-9.1h-8.6c-0.7,0-1.3,0.6-1.3,1.3V28c0,0.1,0,0.1,0,0.2h9.9h10.4c0,0,0-0.1,0-0.2V16.2
			C55.2,15.5,54.6,14.9,53.8,14.9z"/>
	</g>
	<path class="st4" d="M25.4,35.8V22.2c0-0.3,0.2-0.5,0.5-0.5h5.2"/>
	<path class="st4" d="M64.6,35.8V22.2c0-0.3-0.2-0.5-0.5-0.5h-5.2"/>
</g>
</svg>
