<svg xmlns="http://www.w3.org/2000/svg" xmlns:xlink="http://www.w3.org/1999/xlink" viewBox="0 0 90 90"><circle cx="45" cy="45" r="45" fill="#c92f13"/><path d="M159 100.1c-.1 0-.1.1-.2.1.1.1.1.2.2.3v-.4zM93.8 67.4c.1 0 .1.1.2.1-.1.1-.1.2-.2.3v-.4z" fill="#636466"/><g fill="#fdd337"><use xlink:href="#B"/><use xlink:href="#C"/><path d="M25.4 62.2c-4.6 0-9.3-1.2-11.5-3v2.4c0 2.9 5 5.2 11.5 5.2 6.4 0 11.5-2.3 11.5-5.2v-2.4c-2.2 1.8-7 3-11.5 3z"/><use xlink:href="#D"/><use xlink:href="#B" x="39.1"/><use xlink:href="#C" x="39.1"/><path d="M64.5 62.2c-4.6 0-9.3-1.2-11.5-3v2.4c0 2.9 5 5.2 11.5 5.2 6.4 0 11.5-2.3 11.5-5.2v-2.4c-2.2 1.8-6.9 3-11.5 3z"/><use xlink:href="#D" x="39.1"/><path d="M35.2 13.8V11a.65.65 0 0 1 .6-.6h3.5c.2 0 .4.1.6.3l.3.7c.1.2.3.3.6.3h8.5a.65.65 0 0 1 .6.6v1.4H35.2z"/></g><path d="M53.8 14.9H36.1c-.7 0-1.3.6-1.3 1.3v12h20.3v-12c.1-.7-.5-1.3-1.3-1.3z" fill="#f9902c"/><path d="M25.4 35.8V22.2a.47.47 0 0 1 .5-.5h5.2m33.5 14.1V22.2a.47.47 0 0 0-.5-.5h-5.2" fill="none" stroke="#f9902c" stroke-width="2" stroke-linecap="round" stroke-miterlimit="10"/><defs ><path id="B" d="M25.4 50.7c-5.2 0-9.9-1.4-11.5-3v-1.1c0-2.9 5-5.2 11.5-5.2 6.4 0 11.5 2.3 11.5 5.2 0 1.9-5.1 4.1-11.5 4.1z"/><path id="C" d="M26.4 57h-2c-4.2-.2-8.5-1.3-10.5-3v3c0 1.8 4.9 3.9 11 4h.1c6.1-.1 11.9-2.2 11.9-4v-3c-2 1.7-6.3 2.9-10.5 3z"/><path id="D" d="M26.5 51.9h-2c-4.2-.2-8.5-1.3-10.5-3v3c0 1.8 4.9 3.9 11 4h.1c6.1-.1 11.9-2.2 11.9-4v-3c-2 1.7-6.3 2.8-10.5 3z"/></defs></svg>