<?xml version="1.0" encoding="UTF-8"?>
<svg width="120px" height="120px" viewBox="0 0 120 120" version="1.1" xmlns="http://www.w3.org/2000/svg" xmlns:xlink="http://www.w3.org/1999/xlink">
    <title>spikey-game-day-launches</title>
    <defs>
        <filter x="-8.8%" y="-8.8%" width="117.6%" height="117.6%" filterUnits="objectBoundingBox" id="filter-1">
            <feOffset dx="0" dy="1" in="SourceAlpha" result="shadowOffsetOuter1"></feOffset>
            <feGaussianBlur stdDeviation="1" in="shadowOffsetOuter1" result="shadowBlurOuter1"></feGaussianBlur>
            <feColorMatrix values="0 0 0 0 0   0 0 0 0 0   0 0 0 0 0  0 0 0 0.2 0" type="matrix" in="shadowBlurOuter1" result="shadowMatrixOuter1"></feColorMatrix>
            <feMerge>
                <feMergeNode in="shadowMatrixOuter1"></feMergeNode>
                <feMergeNode in="SourceGraphic"></feMergeNode>
            </feMerge>
        </filter>
    </defs>
    <g id="spikey-game-day-launches" stroke="none" stroke-width="1" fill="none" fill-rule="evenodd">
        <g id="Oval-2" fill="#334155">
            <circle id="Oval" cx="60" cy="60" r="60"></circle>
        </g>
        <g id="game-console" filter="url(#filter-1)" transform="translate(23.000000, 25.000000)" fill-rule="nonzero">
            <path d="M72.9163003,17.9644862 C72.3176496,17.9644862 71.8323117,18.4496769 71.8323117,19.048469 L71.8323117,45.8550754 C71.8323117,47.4668856 70.5237207,48.7782157 68.9150816,48.7782157 L61.3715326,48.7782157 C60.873476,48.0049747 60.3365403,47.2766827 59.7666513,46.6037462 L68.5836701,46.6037462 C69.1823209,46.6037462 69.6676587,46.1185555 69.6676587,45.5197634 L69.6676587,5.42627353 C69.6676587,4.82762594 69.1823209,4.3422907 68.5836701,4.3422907 L19.4377946,4.3422907 C18.8391439,4.3422907 18.353806,4.82748141 18.353806,5.42627353 C18.353806,6.02506565 18.8391439,6.51025636 19.4377946,6.51025636 L67.4998261,6.51025636 L67.4998261,44.4357805 L57.5824865,44.4357805 C55.3971655,42.6373807 52.9921561,41.6671438 50.7167918,41.6717688 L39.3914233,41.6717688 C38.7927726,41.6717688 38.3074347,42.1569595 38.3074347,42.7557517 C38.3074347,43.3545438 38.7927726,43.8397345 39.3914233,43.8397345 L44.6094554,43.8397345 L42.4841151,49.8604642 L31.4866893,49.8604642 L29.361349,43.8397345 L34.3195129,43.8397345 C34.9181637,43.8397345 35.4035015,43.3545438 35.4035015,42.7557517 C35.4035015,42.1569595 34.9181637,41.6717688 34.3195129,41.6717688 L23.2563252,41.6717688 C20.9826952,41.6717688 18.5918499,42.6444628 16.4172243,44.4357805 L6.50046288,44.4357805 L6.50046288,6.51025636 L14.3365443,6.51025636 C14.935195,6.51025636 15.4205329,6.02506565 15.4205329,5.42627353 C15.4205329,4.82748141 14.935195,4.3422907 14.3365443,4.3422907 L5.41647427,4.3422907 C4.8178235,4.3422907 4.33248567,4.82748141 4.33248567,5.42627353 L4.33248567,45.5197634 C4.33248567,46.1184109 4.8178235,46.6037462 5.41647427,46.6037462 L14.2334931,46.6037462 C13.6636041,47.2766827 13.1266684,48.0048301 12.6286118,48.7782157 L5.08520736,48.7782157 C3.47656826,48.7782157 2.16797721,47.4668856 2.16797721,45.8550754 L2.16797721,5.09096151 C2.16797721,3.4791513 3.47656826,2.16796567 5.08520736,2.16796567 L68.8860307,2.16796567 C70.4945252,2.16796567 71.8032608,3.4791513 71.8032608,5.09096151 L71.8032608,14.0387339 C71.8032608,14.6373815 72.2885987,15.1227168 72.8872494,15.1227168 C73.4859002,15.1227168 73.971238,14.637526 73.971238,14.0387339 L73.971238,5.09096151 C73.9710935,2.28373503 71.6899479,0 68.8858862,0 L5.08520736,0 C2.28114563,0 0,2.28373503 0,5.09096151 L0,45.8550754 C0,48.6623018 2.28114563,50.9461814 5.08520736,50.9461814 L11.3943101,50.9461814 C10.8424876,52.047508 10.3661108,53.2098266 9.97862099,54.4107351 C7.86672212,60.9566906 8.62565868,67.5701421 11.9121676,71.259297 C12.9198434,72.3902525 14.1161332,73.1854623 15.4677948,73.6225241 C19.9514607,75.0737604 25.1765749,72.2587292 28.6969363,66.5842959 C29.4188727,66.8438736 30.1857585,66.9785766 30.9591482,66.9785766 C32.7717217,66.9785766 34.4670799,66.2644487 35.7331786,64.9675716 C36.0829456,64.6094237 36.5328731,64.4119943 37,64.4119943 C37.4671268,64.4119943 37.9169098,64.6092792 38.2666768,64.9674271 C39.53292,66.2643041 41.2284227,66.9785766 43.0408516,66.9785766 C43.8143859,66.9785766 44.5812717,66.8437291 45.3030636,66.5842959 C48.2069968,71.2652228 52.2706533,74 56.1212699,74 C56.9387418,74 57.7469638,73.8766097 58.531916,73.6225241 C59.8838666,73.1854623 61.0801565,72.3902525 62.0878323,71.259297 C65.3743412,67.5701421 66.1334223,60.9566906 64.0213789,54.4107351 C63.6338891,53.2098266 63.1575122,52.0473634 62.6056898,50.9461814 L68.9147925,50.9461814 C71.7187097,50.9461814 74,48.6624464 74,45.8550754 L74,19.048469 C74,18.4498214 73.5149511,17.9644862 72.9163003,17.9644862 L72.9163003,17.9644862 Z M60.4692205,69.8170217 C59.7214129,70.6563135 58.845261,71.2428205 57.8647572,71.5597771 C54.2296375,72.737416 49.6326586,69.9022951 46.688112,64.6672361 C46.3958687,64.1475025 45.7392606,63.961202 45.2177898,64.2505531 C44.5568458,64.6169393 43.8041242,64.8106109 43.0409962,64.8106109 C41.8173898,64.8106109 40.6728424,64.3284553 39.8179367,63.4528863 C39.0566877,62.6734304 38.0560939,62.2441731 37.0001445,62.2441731 C35.944195,62.2441731 34.9436013,62.6734304 34.1822077,63.4530308 C33.3274465,64.3284553 32.1828991,64.8106109 30.9592928,64.8106109 C30.1961648,64.8106109 29.4434431,64.6169393 28.7824991,64.2505531 C28.2610283,63.9613465 27.6042757,64.1477915 27.312177,64.6672361 C24.3674858,69.9022951 19.7715186,72.7369824 16.1352427,71.5597771 C15.1550279,71.2428205 14.2788761,70.6563135 13.5310685,69.8170217 C10.7888663,66.7390886 10.1903601,60.8151947 12.0419572,55.0763005 C14.144606,48.5596848 18.8569213,43.839879 23.2593603,43.839879 L27.062426,43.839879 L29.6978191,51.3053411 C29.8508783,51.7387897 30.2604814,52.0285744 30.7199481,52.0285744 L43.2511454,52.0285744 C43.7107566,52.0285744 44.1203598,51.7387897 44.2732744,51.3053411 L46.9086675,43.839879 L50.7452645,43.839879 C55.1432231,43.839879 59.855972,48.5601184 61.9584763,55.0763005 C63.8099288,60.8151947 63.2115671,66.7389441 60.4692205,69.8170217 L60.4692205,69.8170217 Z" id="Shape" fill="#FFFFFF"></path>
            <path d="M33.0724924,56.3185449 C32.3449193,55.6405497 31.3978023,55.285437 30.4032789,55.3222924 C29.4094781,55.357847 28.4890995,55.7788659 27.8118234,56.5075915 C26.4144899,58.0110034 26.4991855,60.3722071 28.0007265,61.771123 C28.6950574,62.4181885 29.5897093,62.7699771 30.5333575,62.7699771 C30.5787405,62.7699771 30.6245571,62.7691099 30.6702291,62.7675201 C31.6638854,62.7318209 32.5842639,62.310802 33.26154,61.5819319 C34.6585845,60.0786645 34.5737444,57.7176054 33.0724924,56.3185449 L33.0724924,56.3185449 Z M31.6732799,60.1062699 C31.3905757,60.4103633 31.0066992,60.586113 30.5923265,60.6011442 C30.1780983,60.6132848 29.7823702,60.4684647 29.4787088,60.1851839 C28.8507181,59.5999777 28.8153078,58.6123971 29.3997945,57.9835425 C29.6824987,57.6794492 30.0665197,57.5036994 30.481037,57.4888127 C30.5001152,57.4880901 30.5190488,57.4876565 30.5379825,57.4876565 C30.9315426,57.4876565 31.3047238,57.6346446 31.5945101,57.904484 L31.5945101,57.9046285 C32.2223563,58.4898347 32.2577666,59.4772708 31.6732799,60.1062699 L31.6732799,60.1062699 Z" id="Shape" fill="#FFFFFF"></path>
            <path d="M45.970367,56.3184003 C45.2427938,55.6405497 44.2955323,55.285437 43.3011534,55.3222924 C42.3073527,55.357847 41.3869741,55.7788659 40.709698,56.507736 C39.312509,58.0110034 39.3972046,60.3723516 40.8986011,61.771123 C41.5929319,62.4181885 42.4875839,62.7699771 43.4312321,62.7699771 C43.4766151,62.7699771 43.5224317,62.7691099 43.5681037,62.7675201 C44.5617599,62.7318209 45.4821385,62.310802 46.1594146,61.5819319 C47.5567482,60.0786645 47.471908,57.7176054 45.970367,56.3184003 Z M44.571299,60.1062699 C44.2885948,60.4103633 43.9047183,60.586113 43.4903456,60.6011442 C43.0758283,60.6132848 42.6803893,60.4684647 42.376728,60.1851839 C41.7487372,59.5999777 41.7133269,58.6123971 42.2978136,57.9835425 C42.5805178,57.6794492 42.9645388,57.5036994 43.3790561,57.4888127 C43.3981343,57.4880901 43.417068,57.4876565 43.4360016,57.4876565 C43.8295618,57.4876565 44.2027429,57.6346446 44.4925292,57.904484 L44.4925292,57.9046285 C45.1205199,58.4898347 45.1559302,59.4772708 44.571299,60.1062699 L44.571299,60.1062699 Z" id="Shape" fill="#F58320"></path>
            <path d="M25.2393017,51.3077981 L23.0750823,51.3077981 L23.0750823,49.1392543 C23.0750823,48.5406067 22.5897445,48.0552715 21.9910937,48.0552715 C21.3924429,48.0552715 20.9071051,48.5404622 20.9071051,49.1392543 L20.9071051,51.3077981 L18.7428857,51.3077981 C18.1442349,51.3077981 17.6588971,51.7929888 17.6588971,52.3917809 C17.6588971,52.990573 18.1442349,53.4757638 18.7428857,53.4757638 L20.9071051,53.4757638 L20.9071051,55.6443075 C20.9071051,56.2430997 21.3924429,56.7282904 21.9910937,56.7282904 C22.5897445,56.7282904 23.0750823,56.2430997 23.0750823,55.6443075 L23.0750823,53.4757638 L25.2393017,53.4757638 C25.8379524,53.4757638 26.3232903,52.990573 26.3232903,52.3917809 C26.3232903,51.7929888 25.8379524,51.3077981 25.2393017,51.3077981 Z" id="Path" fill="#F58320"></path>
            <path d="M21.8819722,12.7512514 C15.6725963,12.7512514 10.6209204,17.8089708 10.6209204,24.0258291 C10.6209204,30.2426874 15.6725963,35.3004068 21.8819722,35.3004068 C25.4319626,35.3004068 28.8151633,33.5940733 30.9324098,30.7358274 C31.2518251,30.3046913 31.2075984,29.7044538 30.8283469,29.3247708 L25.2320751,23.7211577 L30.5625529,18.3836262 C30.9540896,17.9913689 30.9868983,17.3669948 30.6384321,16.9361478 C28.4877987,14.2764875 25.2962472,12.7512514 21.8819722,12.7512514 Z M22.9330075,22.9551431 C22.5103965,23.3784745 22.5103965,24.0639853 22.9330075,24.4870277 L28.6016898,30.1631954 C26.8813276,32.0610325 24.4793534,33.1324411 21.8818276,33.1324411 C16.8678745,33.1324411 12.7887531,29.0472712 12.7887531,24.0258291 C12.7887531,19.004387 16.8678745,14.9192171 21.8818276,14.9192171 C24.3128527,14.9192171 26.6046937,15.8777469 28.3033761,17.5775766 L22.9330075,22.9551431 Z" id="Shape" fill="#F58320"></path>
            <path d="M62.5066855,24.7364882 C62.7124988,24.4993128 62.8054327,24.1846687 62.7613505,23.8736379 L62.1004065,19.213668 C61.5777795,15.5294271 58.3808803,12.7512514 54.6638111,12.7512514 C50.9467419,12.7512514 47.7498427,15.5294271 47.2272156,19.2138125 L46.5662717,23.8736379 C46.5221895,24.1845242 46.6151234,24.4993128 46.8209367,24.7364882 C47.0268946,24.9736637 47.3254973,25.1098119 47.6395649,25.1098119 L50.726909,25.1098119 L50.0380704,29.9664886 C49.8475774,31.3097601 50.2482196,32.6674848 51.1373794,33.6916317 C52.0250938,34.7140444 53.3104152,35.3005513 54.6636666,35.3005513 C56.0169179,35.3005513 57.3022394,34.7140444 58.1899538,33.6916317 C59.078969,32.6674848 59.4797557,31.3097601 59.2891182,29.9664886 L58.6002796,25.1098119 L61.6876237,25.1098119 C62.0021249,25.1098119 62.3007276,24.9735192 62.5066855,24.7364882 Z M56.553131,32.2701689 C56.0773322,32.8180861 55.3887827,33.1324411 54.6639556,33.1324411 C53.9391286,33.1324411 53.2504345,32.8180861 52.7747803,32.2701689 C52.2976808,31.7205174 52.0826174,30.9917918 52.1849459,30.2705819 L52.9168551,25.1096674 L56.4112007,25.1096674 L57.1431098,30.2705819 C57.2452938,30.9919364 57.0302305,31.7206619 56.553131,32.2701689 Z M48.8883198,22.9418463 L49.3739467,19.5181949 C49.745827,16.8962572 52.0200351,14.9190725 54.6639556,14.9190725 C57.3078761,14.9190725 59.5820842,16.8961127 59.9539646,19.5180504 L60.4395915,22.9418463 L48.8883198,22.9418463 Z" id="Shape" fill="#FFFFFF"></path>
            <ellipse id="Oval" fill="#FFFFFF" cx="31.0369063" cy="23.9317394" rx="1.08239876" ry="1.08181487"></ellipse>
            <ellipse id="Oval" fill="#F58320" cx="34.9131051" cy="23.9297159" rx="1.08239876" ry="1.08181487"></ellipse>
            <ellipse id="Oval" fill="#FFFFFF" cx="38.8777573" cy="23.9317394" rx="1.08239876" ry="1.08181487"></ellipse>
            <ellipse id="Oval" fill="#F58320" cx="42.9649724" cy="23.9297159" rx="1.08239876" ry="1.08181487"></ellipse>
            <ellipse id="Oval" fill="#FFFFFF" cx="21.3169973" cy="18.7148913" rx="1.08239876" ry="1.08181487"></ellipse>
            <ellipse id="Oval" fill="#FFFFFF" cx="48.7317918" cy="52.39207" rx="1.08239876" ry="1.08181487"></ellipse>
            <ellipse id="Oval" fill="#FFFFFF" cx="55.2284969" cy="52.39207" rx="1.08239876" ry="1.08181487"></ellipse>
            <ellipse id="Oval" fill="#F58320" cx="51.980867" cy="49.1389652" rx="1.08239876" ry="1.08181487"></ellipse>
            <ellipse id="Oval" fill="#F58320" cx="51.980867" cy="55.644163" rx="1.08239876" ry="1.08181487"></ellipse>
        </g>
    </g>
</svg>