<?xml version="1.0" encoding="utf-8"?>
<!-- Generator: Adobe Illustrator 24.0.1, SVG Export Plug-In . SVG Version: 6.00 Build 0)  -->
<svg version="1.1" id="Layer_1" xmlns="http://www.w3.org/2000/svg" xmlns:xlink="http://www.w3.org/1999/xlink" x="0px" y="0px"
	 viewBox="0 0 90 90" style="enable-background:new 0 0 90 90;" xml:space="preserve">
<style type="text/css">
	.st0{fill-rule:evenodd;clip-rule:evenodd;fill:#147894;}
	.st1{fill:none;}
	.st2{fill:#13EBF2;}
	.st3{fill:#02B6D3;}
</style>
<circle class="st0" cx="45" cy="45" r="45"/>
<g>
	<path class="st1" d="M51.3,62.5h-2.7c-0.3,0-0.4,0.2-0.4,0.4v2.7c0,0.3,0.2,0.4,0.4,0.4h2.7c0.3,0,0.4-0.2,0.4-0.4v-2.7
		C51.7,62.7,51.6,62.5,51.3,62.5z"/>
	<path class="st1" d="M51.7,57.6c-0.2-0.1-0.4-0.1-0.6,0l-1.8,2l-0.5-0.5c-0.2-0.2-0.4-0.2-0.6,0c-0.2,0.2-0.2,0.4,0,0.6l0.7,0.8
		c0.1,0.1,0.2,0.2,0.4,0.2s0.3-0.1,0.4-0.2l2.1-2.3C51.9,58.1,51.9,57.8,51.7,57.6z"/>
	<path class="st1" d="M48.8,55.6c0.1,0.1,0.2,0.2,0.4,0.2s0.3-0.1,0.4-0.2l2.1-2.3c0.2-0.2,0.1-0.5,0-0.6c-0.2-0.1-0.4-0.1-0.6,0
		l-1.8,2l-0.5-0.5c-0.2-0.2-0.4-0.2-0.6,0s-0.2,0.4,0,0.6L48.8,55.6z"/>
	<path class="st1" d="M61.5,52.6H56c-0.3,0-0.4,0.2-0.4,0.4s0.2,0.4,0.4,0.4h5.5c0.2,0,0.4-0.2,0.4-0.4S61.7,52.6,61.5,52.6z"/>
	<g>
		<path class="st2" d="M62.7,48.1H47.3c-0.6,0-1,0.4-1,1v20.4c0,0.6,0.4,1,1,1h5.3h4.8h5.3c0.6,0,1-0.4,1-1v-1.9v-1.3v-2.1l0-15.2
			l0,0C63.7,48.6,63.3,48.1,62.7,48.1z M56,52.6h5.5c0.2,0,0.4,0.2,0.4,0.4c0,0.3-0.2,0.4-0.4,0.4H56c-0.2,0-0.4-0.2-0.4-0.4
			C55.6,52.8,55.8,52.6,56,52.6z M54,55.8h7.6c0.2,0,0.4,0.2,0.4,0.4c0,0.3-0.2,0.4-0.4,0.4H54c-0.2,0-0.4-0.2-0.4-0.4
			C53.5,55.9,53.7,55.8,54,55.8z M54,58.9h7.6c0.2,0,0.4,0.2,0.4,0.4c0,0.3-0.2,0.4-0.4,0.4H54c-0.2,0-0.4-0.2-0.4-0.4
			C53.5,59.1,53.7,58.9,54,58.9z M54,62h7.6c0.2,0,0.4,0.2,0.4,0.4c0,0.3-0.2,0.4-0.4,0.4H54c-0.2,0-0.4-0.2-0.4-0.4
			C53.5,62.2,53.7,62,54,62z M54,65.2h6.9h0.6c0.2,0,0.4,0.2,0.4,0.4S61.7,66,61.5,66h-0.6H54c-0.2,0-0.4-0.2-0.4-0.4
			S53.7,65.2,54,65.2z M48.1,54.2c0.2-0.2,0.4-0.1,0.6,0l0.5,0.5l1.8-2c0.2-0.2,0.4-0.2,0.6,0c0.2,0.1,0.2,0.4,0,0.6l-2.1,2.3
			c-0.1,0.1-0.2,0.2-0.4,0.2c-0.2,0-0.3,0-0.4-0.2l-0.7-0.8C47.9,54.7,47.9,54.4,48.1,54.2z M48.1,59.1c0.2-0.2,0.4-0.1,0.6,0
			l0.5,0.5l1.8-2c0.2-0.2,0.4-0.2,0.6,0c0.2,0.1,0.2,0.4,0,0.6l-2.1,2.3c-0.1,0.1-0.2,0.2-0.4,0.2c-0.2,0-0.3,0-0.4-0.2l-0.7-0.8
			C47.9,59.6,47.9,59.3,48.1,59.1z M48.1,65.6v-2.7c0-0.3,0.2-0.4,0.4-0.4h2.7c0.3,0,0.4,0.2,0.4,0.4v2.7c0,0.3-0.2,0.4-0.4,0.4
			h-2.7C48.3,66.1,48.1,65.9,48.1,65.6z"/>
	</g>
	<path class="st3" d="M57.5,27.2c0-0.5-0.4-0.9-0.9-0.9h-9.5v-1.7c0-2.9-2.3-5.2-5.2-5.2c-2.9,0-5.2,2.3-5.2,5.2v1.7h-9.5
		c-0.5,0-0.9,0.4-0.9,0.9v25.1h4.2h1.2H32c-0.1,0-0.3-0.1-0.4-0.1c0,0,0,0,0,0c-0.1-0.1-0.2-0.2-0.2-0.4c0-0.1,0-3,0.6-4.6
		c0.2-0.7,1-1.3,2.1-1.7c0,0,0,0,0,0c0,0,0,0,0,0c0.2-0.1,0.4-0.2,0.6-0.3c0,0,0,0,0,0c0.2-0.1,0.4-0.2,0.6-0.2c0,0,0.1,0,0.1,0
		c0.2-0.1,0.4-0.1,0.7-0.2c0.1,0,0.1,0,0.2-0.1c0,0,0,0,0.1,0c0.1,0,0.2-0.1,0.4-0.1c0.1,0,0.1,0,0.2-0.1c0.7-0.2,1.4-0.5,2.1-0.7
		v-1.4c0,0,0,0,0,0v-0.5v-0.1c-0.4-0.3-1-0.8-1.3-1.7c-0.2-0.4-0.3-0.9-0.3-1.5c-0.2-0.1-0.4-0.4-0.5-0.7c-0.1-0.2-0.2-0.5-0.2-0.8
		c0-0.4,0.1-0.7,0.2-1c0.1-0.2,0.2-0.3,0.3-0.4c-0.2-0.8-0.7-2.3,0.1-3.1c0.1-0.1,0.1-0.1,0.2-0.2c0.3-0.2,0.7-0.3,1.1-0.3
		c0.6-1.1,2.4-1.5,3.9-1.5h0c1.6,0,3.5,0.5,4,1.8c0,0.1,0.1,0.1,0.1,0.2c0.3,1.2-0.1,2.4-0.4,3.1c0.3,0.3,0.5,0.8,0.5,1.4
		c0,0.3-0.1,0.6-0.2,0.9c-0.1,0.3-0.3,0.5-0.5,0.7c0,0.8-0.2,1.4-0.5,1.9c-0.4,0.7-0.8,1.1-1.2,1.3v0.3v1.7c0.7,0.2,1.4,0.5,2.1,0.7
		c0.1,0,0.1,0,0.2,0.1c0.1,0,0.2,0.1,0.4,0.1c0,0,0,0,0.1,0c0.1,0,0.1,0,0.2,0.1c0.2,0.1,0.4,0.2,0.7,0.2c0,0,0.1,0,0.1,0
		c0.2,0.1,0.4,0.2,0.6,0.2c0,0,0,0,0,0c0.2,0.1,0.4,0.2,0.6,0.3c0,0,0,0,0,0c0,0,0,0,0,0c0.6,0.3,1.2,0.6,1.5,0.9h6.3V27.2z
		 M41.9,26.4c-1,0-1.7-0.8-1.7-1.7c0-1,0.8-1.7,1.7-1.7c1,0,1.7,0.8,1.7,1.7C43.6,25.6,42.8,26.4,41.9,26.4z"/>
	<path class="st3" d="M32.5,54.1l-0.9,0v0h-5.3v6.1c0,0.5,0.4,0.9,0.9,0.9h17.5v-6.9H32.5z"/>
</g>
</svg>
