<svg xmlns="http://www.w3.org/2000/svg" viewBox="0 0 90 90" height="90" width="90"><circle cx="45" cy="45" r="45" fill="#59558e"/><path d="M20.8 54.9h-2.2v4.2c0 2.5 2 4.6 4.4 4.6h20.9v2.2H29.6a1.11 1.11 0 0 0-1.1 1.1 1.11 1.11 0 0 0 1.1 1.1h30.7a1.11 1.11 0 0 0 1.1-1.1 1.11 1.11 0 0 0-1.1-1.1H46.1v-2.2H67c2.4 0 4.4-2.1 4.4-4.6v-4.2H20.8zM45 56a2.22 2.22 0 0 1 2.2 2.2 2.22 2.22 0 0 1-2.2 2.2 2.22 2.22 0 0 1-2.2-2.2A2.22 2.22 0 0 1 45 56zm22-34.1H23c-2.4 0-4.4 2.1-4.4 4.6v26.2h52.7V26.5c.1-2.5-1.9-4.6-4.3-4.6z" fill="#8989ce"/><g fill="#c8c8fc"><path d="M37.5 40.6l-.8-.8c-.1-.1-.3-.1-.3 0s0 .2.1.3l2.6 2.4c.1.1.1.1.2.1s.1-.1.1-.1c0-.1 0-.2-.1-.2l-1.8-1.7zm2.3-.4l-1.1 1.2c0 .1-.1.1 0 .1l.2.2c.1.1.1.1.1 0l1.2-1.2c.1-.1.1-.2 0-.3-.2-.2-.3-.1-.4 0z"/><path d="M37.5 40.4c.1.1.1.1.1 0l1.2-1.2c.1-.1.1-.2 0-.3s-.2-.1-.3 0l-1.1 1.2v.1s0 .1.1.2zM35 44.6c.1-.1.1-.2.2-.2l.7-.7c.1-.1.1 0 .2.1.5.3 1.2.3 1.6-.2.3-.3.6-.6.8-.9.1-.1.1-.2 0-.3-.7-.6-1.3-1.3-2-1.9-.1-.1-.2-.1-.4 0-.3.3-.5.6-.8.8-.1.1-.1.2-.2.3-.3.5-.2 1.1.2 1.5v.1l-.9.9s0 .1-.1.1l.5.5c.2 0 .2 0 .2-.1h0zm5.5-6.1l-1.3-1.2c-.1-.1-.1-.1-.2-.1s-.1.1-.1.1c0 .1 0 .2.1.2.6.5 1.1 1.1 1.7 1.6l.8.8c.1.1.3.1.3 0s0-.2-.1-.3c-.4-.3-.8-.7-1.2-1.1z"/><path d="M43.2 35.2s-.1 0 0 0l-.9.9c-.1.1-.1 0-.2-.1-.5-.3-1.2-.3-1.6.2-.3.3-.6.6-.8.9-.1.1-.1.2 0 .3.7.6 1.3 1.3 2 1.9.1.1.2.1.4 0 .3-.3.5-.6.8-.8.1-.1.1-.2.2-.3.3-.5.2-1.1-.2-1.5v-.1c.3-.3.5-.6.8-.8l.2-.2c-.3-.2-.5-.3-.7-.4 0-.1 0 0 0 0h0z"/></g><path d="M49.3 38.1h-2.6c-.2-.7-.4-1.5-.7-2.1l1.8-1.8c.1-.1.2-.2.2-.3s0-.2-.1-.3l-2.5-2.5c-.2-.2-.5-.2-.7 0L42.8 33c-.6-.3-1.4-.5-2.1-.7v-2.6a.47.47 0 0 0-.5-.5h-2.7a.47.47 0 0 0-.5.5v2.6c-.7.2-1.5.4-2.1.7l-1.8-1.9c-.2-.2-.5-.2-.7 0l-2.5 2.5c-.2.2-.2.5 0 .7l1.8 1.8c-.3.6-.5 1.4-.7 2.1h-2.5a.47.47 0 0 0-.5.5v2.7a.47.47 0 0 0 .5.5h2.6c.2.7.4 1.5.7 2.1L30 45.8c-.1.1-.2.2-.2.3s.1.3.2.3l2.5 2.5c.2.2.5.2.7 0l1.8-1.8c.6.3 1.4.5 2.1.7v2.6a.47.47 0 0 0 .5.5h2.7a.47.47 0 0 0 .5-.5v-2.6c.7-.2 1.5-.4 2.1-.7l1.8 1.8c.2.2.5.2.7 0l2.5-2.5c.2-.2.2-.5 0-.7l-1.8-1.8c.3-.6.5-1.4.7-2.1h2.6a.47.47 0 0 0 .5-.5v-2.7c-.2-.3-.4-.5-.6-.5zm-10.2 8.2c-1 0-2-.2-2.8-.7-.5-.2-.9-.5-1.3-.9-.2-.1-.3-.3-.5-.5-1-1-1.6-2.4-1.7-3.9v-.5c0-3.5 2.9-6.4 6.4-6.4 1.6 0 3.1.6 4.2 1.6.2.1.3.3.5.5 1 1.1 1.7 2.6 1.7 4.3-.1 3.6-3 6.5-6.5 6.5zm22.2-16.5h-1.6c-.1-.5-.3-1-.4-1.3l1.2-1.2c.1-.1.1-.1.1-.2s0-.1-.1-.2l-1.6-1.6c-.1-.1-.3-.1-.4 0l-1.2 1.2c-.4-.2-.9-.3-1.3-.4v-1.6c0-.2-.1-.3-.3-.3H54c-.2 0-.3.1-.3.3V26c-.5.1-1 .3-1.3.4l-1.2-1.2c-.1-.1-.3-.1-.4 0l-1.6 1.6c-.1.1-.1.3 0 .4l1.2 1.2c-.2.4-.3.9-.4 1.3h-1.6c-.2 0-.3.1-.3.3v1.7c0 .2.1.3.3.3H50c.1.5.3 1 .4 1.3l-1.2 1.2c-.1.1-.1.1-.1.2s0 .1.1.2l1.6 1.6c.1.1.3.1.4 0l1.2-1.2c.4.2.9.3 1.3.4v1.6c0 .2.1.3.3.3h1.7c.2 0 .3-.1.3-.3v-1.6c.5-.1 1-.3 1.3-.4l1.2 1.2c.1.1.3.1.4 0l1.6-1.6c.1-.1.1-.3 0-.4l-1.2-1.2c.2-.4.3-.9.4-1.3h1.6c.2 0 .3-.1.3-.3V30c0-.1-.1-.2-.3-.2zm-6.5 3.4a2.26 2.26 0 0 1-2.3-2.3 2.26 2.26 0 0 1 2.3-2.3 2.26 2.26 0 0 1 2.3 2.3c0 1.3-1.1 2.3-2.3 2.3z" fill="#59558e"/></svg>