<svg xmlns="http://www.w3.org/2000/svg" viewBox="0 0 90 90"  fill-rule="evenodd" height="90" width="90"><circle cx="45" cy="45" r="45" fill="#59558e"/><path d="M51.2 42.2c-2.5 0-4.6-2.1-4.6-4.6s2.1-4.6 4.6-4.6 4.6 2.1 4.6 4.6-2.1 4.6-4.6 4.6m11.1-1.8v-.2c-.1-.2-.2-.4-.4-.5h-.1l-1.4-.8c0-.4.1-.7.1-1h0c0-.4 0-.7-.1-1.1h0l1.4-.8c.2-.1.4-.3.4-.6.1-.2 0-.5-.1-.7L59.4 30c0-.1-.1-.1-.2-.2 0 0 0-.1-.1-.1s-.1-.1-.2-.1-.1-.1-.2-.1c-.2-.1-.5 0-.7.1v-.1l-1.3.7-.4-.2-1-.6-.5-.2v-1.7c0-.5-.4-.9-.9-.9h-5.4c-.5 0-.9.4-.9.9v1.7l-.5.2-1 .6-.4.3-1.4-.8c-.2-.1-.3-.1-.5-.1h-.6l-3 5.1c-.1.2-.2.5-.1.8l.1.3 1.7 1v.2l-.1.9c0 .4 0 .7.1 1.1l-1.5.8c-.1 0-.1.1-.2.2 0 0-.1 0-.1.1s-.1.1-.1.2-.1.2-.1.2c0 .2 0 .4.1.6l2.7 4.7c.2.3.5.5.8.5h0c.2 0 .3-.1.5-.1l.9-.5.6-.3c.2.2.4.3.7.4l.5.3.7.4V48c0 .5.4.9.9.9h5.4c.5 0 .9-.4.9-.9v-1.7c.2-.1.5-.2.7-.4l.5-.3.7-.4 1.4.8c.1.1.2.1.4.1h.3c.2-.1.4-.2.6-.4l2.7-4.7c0-.1 0-.1.1-.2s.1-.1.1-.2c.2-.1.2-.2.2-.2" fill="#c8c8fc"/><path d="M31.6 46.8h-5.9c-.5 0-.8.4-.8.8V61c0 .5.4.8.8.8h5.9c.5 0 .8-.4.8-.8V47.6c0-.4-.3-.8-.8-.8m33.3 6.9c-2-2-3.7-2.5-5.9-1.9l-5 1.7c0 .3.1.5.1.8 0 1.1-.3 2.1-1 2.8-.7.9-1.8 1.3-3 1.3h-9.2c-.5 0-.8-.4-.8-.8 0-.5.4-.8.8-.8H50c.7 0 1.3-.2 1.7-.7s.6-1.1.6-1.8c0-.9-.5-2.5-2.3-2.5h-5c-.2 0-.4-.1-.6-.2-.9-.9-3.5-3.1-6.9-3.1h-3.3c-.5 0-.8.4-.8.8v9.2c0 .4.2.7.6.8l6.4 2.3c3.4 1.2 5.2 1.9 6.9 1.9 2 0 3.8-1 7.5-3 2.3-1.3 5.4-3.1 10-5.3.4-.2.6-.7.4-1.1-.2-.2-.3-.3-.3-.4" fill="#8989ce"/></svg>