<svg xmlns="http://www.w3.org/2000/svg" xmlns:xlink="http://www.w3.org/1999/xlink" width="120" height="120"><defs><path id="A" d="M0 .53h56V31.5H0z"/><path id="B" d="M.23 0h22.875v23.333H.23z"/></defs><g fill="none" fill-rule="evenodd"><circle fill="#59558e" cx="60" cy="60" r="60"/><g transform="translate(32 32)"><g transform="translate(0 24.5)"><mask id="C" fill="#fff"><use xlink:href="#A"/></mask><path d="M1.167 31.5h11.667c.644 0 1.167-.52 1.167-1.167V18.666c0-.644-.523-1.167-1.167-1.167H8.225C8.818 10.97 14.318 5.833 21 5.833h5.833V17.5h-4.667c-.645 0-1.167.523-1.167 1.167v11.667c0 .645.52 1.167 1.167 1.167h11.667c.644 0 1.167-.52 1.167-1.167V18.666c0-.644-.523-1.167-1.167-1.167h-4.667V5.833H35A12.85 12.85 0 0 1 47.774 17.5h-4.607c-.645 0-1.167.523-1.167 1.167v11.667c0 .645.522 1.167 1.167 1.167h11.667c.644 0 1.167-.52 1.167-1.167V18.666c0-.644-.523-1.167-1.167-1.167h-4.726c-.6-7.818-7.14-14-15.107-14h-5.833V.53h-2.333V3.5H21c-7.97 0-14.51 6.182-15.108 14H1.167C.522 17.5 0 18.022 0 18.666v11.667c0 .645.52 1.167 1.167 1.167" fill="#8989ce" mask="url(#C)"/></g><g transform="translate(16.333)"><mask id="D" fill="#fff"><use xlink:href="#B"/></mask><path d="M11.677 7c2.574 0 4.667 2.093 4.667 4.667s-2.093 4.667-4.667 4.667S7 14.24 7 11.666 9.103 7 11.677 7M.815 9.45l1.616.93a9.44 9.44 0 0 0-.088 1.288c0 .425.032.856.095 1.292l-1.604.926a1.17 1.17 0 0 0-.427 1.595l2.333 4.04a1.16 1.16 0 0 0 .718.546 1.15 1.15 0 0 0 .892-.128l1.518-.91c.66.518 1.384.946 2.143 1.27v1.867c0 .645.523 1.167 1.167 1.167h4.667c.644 0 1.167-.52 1.167-1.167v-1.86c.846-.344 1.643-.8 2.315-1.297l1.662.944c.558.315 1.262.125 1.584-.43l2.354-4.04a1.17 1.17 0 0 0-.423-1.597l-1.596-.924a8.82 8.82 0 0 0 .098-1.295c0-.428-.032-.86-.092-1.29l1.607-.926a1.17 1.17 0 0 0 .428-1.595l-2.332-4.04a1.17 1.17 0 0 0-1.58-.435l-1.703.95c-.674-.5-1.475-.958-2.322-1.303V1.166C15.01.52 14.488 0 13.844 0H9.178C8.534 0 8.01.52 8.01 1.166v1.866a9.56 9.56 0 0 0-2.15 1.276L4.3 3.4c-.27-.157-.6-.202-.89-.123a1.17 1.17 0 0 0-.714.548L.383 7.857A1.17 1.17 0 0 0 .815 9.45" fill="#c8c8fc" mask="url(#D)"/></g></g></g></svg>