<?xml version="1.0" encoding="utf-8"?>
<!-- Generator: Adobe Illustrator 24.3.0, SVG Export Plug-In . SVG Version: 6.00 Build 0)  -->
<svg version="1.1" id="Layer_1" xmlns="http://www.w3.org/2000/svg" xmlns:xlink="http://www.w3.org/1999/xlink" x="0px" y="0px"
	 viewBox="0 0 90 90" style="enable-background:new 0 0 90 90;" xml:space="preserve" width="90" height="90">
<style type="text/css">
	.st0{fill:#C92F13;}
	.st1{fill:#F9902C;}
	.st2{fill:none;stroke:#FDD337;stroke-width:2;stroke-linecap:round;stroke-linejoin:round;stroke-miterlimit:10;}
	.st3{fill:#FDD337;}
	.st4{fill:#FDD337;stroke:#C92F13;stroke-width:4;stroke-miterlimit:10;}
</style>
<circle class="st0" cx="45" cy="45" r="45"/>
<g>
	<path class="st1" d="M64.7,50.7V31.1h0H21.5h0v19.6c0,2.8,2.3,5.1,5.1,5.1H29h18.7c0.1-1.6,0.6-3,1.5-4.2l-23.9,0c-0.6,0-1-0.4-1-1
		s0.4-1,1-1c0,0,0,0,0,0l25.9,0c1.2-0.8,2.7-1.3,4.3-1.3c1.6,0,3,0.5,4.3,1.3l1.1,0c0.6,0,1,0.4,1,1c0,0.2-0.1,0.5-0.3,0.6
		c0.7,0.9,1.2,1.9,1.5,3.1C64.1,53.4,64.7,52.1,64.7,50.7z"/>
	<path class="st1" d="M64.7,26c0-2.8-2.3-5.1-5.1-5.1H26.6c-2.8,0-5.1,2.3-5.1,5.1v3.1h43.2V26z M28.7,27c-0.6,0-1-0.5-1-1
		s0.5-1,1-1c0.6,0,1,0.5,1,1S29.3,27,28.7,27z M32.8,27c-0.6,0-1-0.5-1-1s0.5-1,1-1c0.6,0,1,0.5,1,1S33.4,27,32.8,27z M36.9,27
		c-0.6,0-1-0.5-1-1s0.5-1,1-1c0.6,0,1,0.5,1,1S37.5,27,36.9,27z"/>
	<line class="st2" x1="60.9" y1="36.3" x2="48.6" y2="36.3"/>
	<line class="st2" x1="37.6" y1="36.3" x2="25.3" y2="36.3"/>
	<line class="st2" x1="37.6" y1="43.4" x2="25.3" y2="43.4"/>
	<line class="st2" x1="60.9" y1="43.4" x2="48.6" y2="43.4"/>
	<path class="st3" d="M61.6,51.3c0.2-0.2,0.3-0.4,0.3-0.6c0-0.6-0.4-1-1-1l-1.1,0C60.5,50.1,61.1,50.7,61.6,51.3z"/>
	<path class="st3" d="M51.3,49.6l-25.9,0c0,0,0,0,0,0c-0.6,0-1,0.4-1,1s0.4,1,1,1l23.9,0C49.8,50.9,50.5,50.2,51.3,49.6z"/>
	<g>
		<path class="st4" d="M68,54h-3.1c-0.2-0.9-0.5-1.8-0.8-2.5l2.2-2.2c0.1-0.1,0.2-0.2,0.2-0.4c0-0.1-0.1-0.3-0.2-0.4l-3.1-3.1
			c-0.2-0.2-0.6-0.2-0.8,0l-2.2,2.2c-0.7-0.4-1.7-0.6-2.5-0.8v-3.1c0-0.3-0.2-0.5-0.5-0.5h-3.2c-0.3,0-0.5,0.2-0.5,0.5v3.1
			c-0.9,0.2-1.8,0.5-2.5,0.8l-2.2-2.2c-0.2-0.2-0.6-0.2-0.8,0l-3.1,3.1c-0.2,0.2-0.2,0.6,0,0.8l2.2,2.2c-0.3,0.7-0.6,1.7-0.8,2.5
			h-3.1c-0.3,0-0.5,0.2-0.5,0.5v3.2c0,0.3,0.2,0.5,0.5,0.5h3.1c0.2,0.9,0.5,1.8,0.8,2.5l-2.2,2.2c-0.1,0.1-0.2,0.2-0.2,0.4
			c0,0.1,0.1,0.3,0.2,0.4l3.1,3.1c0.2,0.2,0.6,0.2,0.8,0l2.2-2.2c0.7,0.3,1.7,0.6,2.5,0.8v3.1c0,0.3,0.2,0.5,0.5,0.5h3.2
			c0.3,0,0.5-0.2,0.5-0.5v-3.1c0.9-0.2,1.8-0.5,2.5-0.8l2.2,2.2c0.2,0.2,0.6,0.2,0.8,0l3.1-3.1c0.2-0.2,0.2-0.6,0-0.8L64,60.9
			c0.3-0.7,0.6-1.7,0.8-2.5H68c0.3,0,0.5-0.2,0.5-0.5v-3.2C68.5,54.3,68.3,54,68,54z M55.5,64c-4.3,0-7.8-3.5-7.8-7.8
			c0-4.3,3.5-7.8,7.8-7.8c4.3,0,7.8,3.5,7.8,7.8C63.3,60.5,59.8,64,55.5,64z"/>
		<path class="st3" d="M68,54h-3.1c-0.2-0.9-0.5-1.8-0.8-2.5l2.2-2.2c0.1-0.1,0.2-0.2,0.2-0.4c0-0.1-0.1-0.3-0.2-0.4l-3.1-3.1
			c-0.2-0.2-0.6-0.2-0.8,0l-2.2,2.2c-0.7-0.4-1.7-0.6-2.5-0.8v-3.1c0-0.3-0.2-0.5-0.5-0.5h-3.2c-0.3,0-0.5,0.2-0.5,0.5v3.1
			c-0.9,0.2-1.8,0.5-2.5,0.8l-2.2-2.2c-0.2-0.2-0.6-0.2-0.8,0l-3.1,3.1c-0.2,0.2-0.2,0.6,0,0.8l2.2,2.2c-0.3,0.7-0.6,1.7-0.8,2.5
			h-3.1c-0.3,0-0.5,0.2-0.5,0.5v3.2c0,0.3,0.2,0.5,0.5,0.5h3.1c0.2,0.9,0.5,1.8,0.8,2.5l-2.2,2.2c-0.1,0.1-0.2,0.2-0.2,0.4
			c0,0.1,0.1,0.3,0.2,0.4l3.1,3.1c0.2,0.2,0.6,0.2,0.8,0l2.2-2.2c0.7,0.3,1.7,0.6,2.5,0.8v3.1c0,0.3,0.2,0.5,0.5,0.5h3.2
			c0.3,0,0.5-0.2,0.5-0.5v-3.1c0.9-0.2,1.8-0.5,2.5-0.8l2.2,2.2c0.2,0.2,0.6,0.2,0.8,0l3.1-3.1c0.2-0.2,0.2-0.6,0-0.8L64,60.9
			c0.3-0.7,0.6-1.7,0.8-2.5H68c0.3,0,0.5-0.2,0.5-0.5v-3.2C68.5,54.3,68.3,54,68,54z M55.5,64c-4.3,0-7.8-3.5-7.8-7.8
			c0-4.3,3.5-7.8,7.8-7.8c4.3,0,7.8,3.5,7.8,7.8C63.3,60.5,59.8,64,55.5,64z"/>
		<path class="st3" d="M58.8,51.1c-0.1-0.1-0.1-0.1-0.2-0.1c-0.1,0-0.2,0-0.2,0.1l-1,1c0,0,0,0,0,0l0.4,0.4c0.6,0.3,1,0.8,1.4,1.4
			l0.5,0.5l1-1c0.1-0.1,0.1-0.3,0-0.5L58.8,51.1z"/>
		<path class="st3" d="M51.9,58.5l-0.7,1.6c-0.1,0.1,0,0.3,0.1,0.4c0.1,0.1,0.1,0.1,0.2,0.1c0,0,0.1,0,0.1,0l1.6-0.7
			C52.7,59.5,52.2,59,51.9,58.5z"/>
		<path class="st3" d="M56.9,52.5l-4.1,4.1l2.3,2.3c0,0,0,0,0,0l4.1-4.1L56.9,52.5C56.9,52.5,56.9,52.5,56.9,52.5z"/>
		<path class="st3" d="M58.8,51.1c-0.1-0.1-0.1-0.1-0.2-0.1c-0.1,0-0.2,0-0.2,0.1l-1,1c0,0,0,0,0,0l2.3,2.3l1-1
			c0.1-0.1,0.1-0.3,0-0.5L58.8,51.1z"/>
		<path class="st3" d="M51.2,60.1c-0.1,0.1,0,0.3,0.1,0.4c0.1,0.1,0.1,0.1,0.2,0.1c0,0,0.1,0,0.1,0l3-1.3l-2.1-2.1L51.2,60.1z"/>
	</g>
</g>
</svg>
