<svg xmlns="http://www.w3.org/2000/svg" xmlns:xlink="http://www.w3.org/1999/xlink" width="90" height="90"><circle cx="45" cy="45" r="45" fill="#c92f13"/><path d="M64.7 50.7V31.1H21.5v19.6c0 2.8 2.3 5.1 5.1 5.1h21.1c.1-1.6.6-3 1.5-4.2H25.3a.94.94 0 0 1-1-1 .94.94 0 0 1 1-1h25.9a7.79 7.79 0 0 1 4.3-1.3c1.6 0 3 .5 4.3 1.3h1.1a.94.94 0 0 1 1 1c0 .2-.1.5-.3.6.7.9 1.2 1.9 1.5 3.1a4.84 4.84 0 0 0 1.6-3.6zm0-24.7c0-2.8-2.3-5.1-5.1-5.1h-33c-2.8 0-5.1 2.3-5.1 5.1v3.1h43.2V26zm-36 1c-.6 0-1-.5-1-1a1.08 1.08 0 0 1 1-1c.6 0 1 .5 1 1s-.4 1-1 1zm4.1 0c-.6 0-1-.5-1-1a1.08 1.08 0 0 1 1-1c.6 0 1 .5 1 1s-.4 1-1 1zm4.1 0c-.6 0-1-.5-1-1a1.08 1.08 0 0 1 1-1c.6 0 1 .5 1 1s-.4 1-1 1z" fill="#f9902c"/><path d="M60.9 36.3H48.6m-11 0H25.3m12.3 7.1H25.3m35.6 0H48.6" fill="none" stroke="#fdd337" stroke-width="2" stroke-linecap="round" stroke-linejoin="round" stroke-miterlimit="10"/><g fill="#fdd337"><path d="M61.6 51.3c.2-.2.3-.4.3-.6a.94.94 0 0 0-1-1h-1.1c.7.4 1.3 1 1.8 1.6zm-10.3-1.7H25.4a.94.94 0 0 0-1 1 .94.94 0 0 0 1 1h23.9c.5-.7 1.2-1.4 2-2z"/><use xlink:href="#B" stroke="#c92f13" stroke-width="4" stroke-miterlimit="10"/><use xlink:href="#B"/><path d="M58.8 51.1c-.1-.1-.1-.1-.2-.1s-.2 0-.2.1l-1 1 .4.4c.6.3 1 .8 1.4 1.4l.5.5 1-1c.1-.1.1-.3 0-.5l-1.9-1.8zm-6.9 7.4l-.7 1.6c-.1.1 0 .3.1.4s.1.1.2.1h.1l1.6-.7c-.5-.4-1-.9-1.3-1.4z"/><path d="M56.9 52.5l-4.1 4.1 2.3 2.3 4.1-4.1-2.3-2.3zm1.9-1.4c-.1-.1-.1-.1-.2-.1s-.2 0-.2.1l-1 1 2.3 2.3 1-1c.1-.1.1-.3 0-.5l-1.9-1.8zm-7.6 9c-.1.1 0 .3.1.4s.1.1.2.1h.1l3-1.3-2.1-2.1-1.3 2.9z"/></g><defs ><path id="B" d="M68 54h-3.1c-.2-.9-.5-1.8-.8-2.5l2.2-2.2c.1-.1.2-.2.2-.4a.76.76 0 0 0-.2-.4l-3.1-3.1a.61.61 0 0 0-.8 0l-2.2 2.2c-.7-.4-1.7-.6-2.5-.8v-3.1a.47.47 0 0 0-.5-.5H54a.47.47 0 0 0-.5.5v3.1c-.9.2-1.8.5-2.5.8l-2.2-2.2a.61.61 0 0 0-.8 0l-3.1 3.1a.61.61 0 0 0 0 .8l2.2 2.2c-.3.7-.6 1.7-.8 2.5h-3.1a.47.47 0 0 0-.5.5v3.2a.47.47 0 0 0 .5.5h3.1c.2.9.5 1.8.8 2.5l-2.2 2.2c-.1.1-.2.2-.2.4a.76.76 0 0 0 .2.4l3.1 3.1a.61.61 0 0 0 .8 0l2.2-2.2c.7.3 1.7.6 2.5.8v3.1a.47.47 0 0 0 .5.5h3.2a.47.47 0 0 0 .5-.5v-3.1c.9-.2 1.8-.5 2.5-.8l2.2 2.2a.61.61 0 0 0 .8 0l3.1-3.1a.61.61 0 0 0 0-.8l-2.3-2c.3-.7.6-1.7.8-2.5H68a.47.47 0 0 0 .5-.5v-3.2c0-.4-.2-.7-.5-.7zM55.5 64c-4.3 0-7.8-3.5-7.8-7.8s3.5-7.8 7.8-7.8 7.8 3.5 7.8 7.8-3.5 7.8-7.8 7.8z"/></defs></svg>