<?xml version="1.0" encoding="UTF-8"?>
<svg width="120px" height="120px" viewBox="0 0 120 120" version="1.1" xmlns="http://www.w3.org/2000/svg" xmlns:xlink="http://www.w3.org/1999/xlink">
    <title>tokens-microservices-context-boundary</title>
    <defs>
        <filter x="-6.5%" y="-5.7%" width="112.9%" height="111.4%" filterUnits="objectBoundingBox" id="filter-1">
            <feOffset dx="0" dy="1" in="SourceAlpha" result="shadowOffsetOuter1"></feOffset>
            <feGaussianBlur stdDeviation="0.5" in="shadowOffsetOuter1" result="shadowBlurOuter1"></feGaussianBlur>
            <feColorMatrix values="0 0 0 0 0   0 0 0 0 0   0 0 0 0 0  0 0 0 0.19761391 0" type="matrix" in="shadowBlurOuter1" result="shadowMatrixOuter1"></feColorMatrix>
            <feMerge>
                <feMergeNode in="shadowMatrixOuter1"></feMergeNode>
                <feMergeNode in="SourceGraphic"></feMergeNode>
            </feMerge>
        </filter>
    </defs>
    <g id="tokens-microservices-context-boundary" stroke="none" stroke-width="1" fill="none" fill-rule="evenodd">
        <g id="Oval-2" fill="#334155">
            <circle id="Oval" cx="60" cy="60" r="60"></circle>
        </g>
        <g id="blockchain" filter="url(#filter-1)" transform="translate(29.000000, 25.000000)" fill-rule="nonzero">
            <path d="M28.3852174,42.5644354 L23.4926087,45.2568362 C22.2903641,45.9079442 20.8400707,45.9079442 19.6378261,45.2568362 L4.81173913,37.0180896 C3.53593726,36.3276217 2.72838129,35.0072933 2.69565217,33.5583545 L2.69565217,14.9000166 C2.70508075,13.4554822 3.48627195,12.125979 4.74434783,11.4133575 L19.6378261,3.18807295 C20.8400707,2.53696491 22.2903641,2.53696491 23.4926087,3.18807295 L38.3186957,11.4268195 C39.5986269,12.1196546 40.4068544,13.4462227 40.4347826,14.9000166 L40.4347826,21.2002346 C40.4347826,21.9437206 41.0382249,22.5464351 41.7826087,22.5464351 C42.5269925,22.5464351 43.1304348,21.9437206 43.1304348,21.2002346 L43.1304348,14.9000166 C43.1186524,12.4737179 41.8003778,10.241526 39.68,9.0575068 L24.853913,0.818760208 C22.8454485,-0.272920069 20.4197689,-0.272920069 18.4113043,0.818760208 L3.43695652,9.07096881 C1.32595365,10.2560917 0.013879917,12.4813571 0,14.9000166 L0,33.5583545 C0.0117823954,35.9846533 1.33005701,38.2168452 3.45043478,39.4008644 L18.2765217,47.639611 C19.2847924,48.1887455 20.4168385,48.4714157 21.5652174,48.4610819 C22.6965272,48.4581763 23.808973,48.1711411 24.8,47.626149 L29.706087,44.9337481 C30.3537009,44.5620051 30.5769745,43.7362863 30.2047826,43.0894535 C29.8325907,42.4426207 29.0058748,42.2196164 28.3582609,42.5913594 L28.3852174,42.5644354 Z" id="Path" fill="#FFFFFF"></path>
            <path d="M32.3478368,18.8443839 C32.3497454,18.3615223 32.0925939,17.9146184 31.673913,17.6731895 L22.2391304,12.2883878 C21.8221116,12.0479123 21.3083232,12.0479123 20.8913043,12.2883878 L11.4565217,17.6731895 C11.0378409,17.9146184 10.7806894,18.3615223 10.782598,18.8443839 L10.782598,29.6139873 C10.7806894,30.0968489 11.0378409,30.5437528 11.4565217,30.7851816 L20.8913043,36.1699833 C21.3083232,36.4104589 21.8221116,36.4104589 22.2391304,36.1699833 L31.673913,30.7851816 C32.0925939,30.5437528 32.3497454,30.0968489 32.3478368,29.6139873 L32.3478368,18.8443839 Z M28.3043478,18.8443839 L21.5652174,22.6810551 L14.826087,18.8443839 L21.5652174,15.0077127 L28.3043478,18.8443839 Z M21.5652174,33.4506585 L13.4782609,28.833191 L13.4782609,21.1598486 L20.8913043,25.40038 C21.3083232,25.6408555 21.8221116,25.6408555 22.2391304,25.40038 L29.6521739,21.1598486 L29.6521739,28.833191 L21.5652174,33.4506585 Z" id="Shape" fill="#F58320"></path>
            <path d="M60.6521739,56.5379958 C61.3965577,56.5379958 62,55.9352813 62,55.1917953 L62,47.1145928 C62,44.8841349 60.1896731,43.0759915 57.9565217,43.0759915 L57.9565217,34.998789 C57.9565217,29.0509013 53.1289834,24.2291856 47.173913,24.2291856 C41.2188427,24.2291856 36.3913043,29.0509013 36.3913043,34.998789 L36.3913043,43.0759915 C34.158153,43.0759915 32.3478261,44.8841349 32.3478261,47.1145928 L32.3478261,65.9613987 C32.3478261,68.1918566 34.158153,70 36.3913043,70 L57.9565217,70 C60.1896731,70 62,68.1918566 62,65.9613987 L62,60.576597 C62,59.8331111 61.3965577,59.2303966 60.6521739,59.2303966 C59.9077901,59.2303966 59.3043478,59.8331111 59.3043478,60.576597 L59.3043478,65.9613987 C59.3043478,66.7048847 58.7009055,67.3075992 57.9565217,67.3075992 L36.3913043,67.3075992 C35.6469206,67.3075992 35.0434783,66.7048847 35.0434783,65.9613987 L35.0434783,47.1145928 C35.0434783,46.3711068 35.6469206,45.7683924 36.3913043,45.7683924 L57.9565217,45.7683924 C58.7009055,45.7683924 59.3043478,46.3711068 59.3043478,47.1145928 L59.3043478,55.1917953 C59.3043478,55.9352813 59.9077901,56.5379958 60.6521739,56.5379958 Z M49.8695652,43.0759915 L44.4782609,43.0759915 L44.4782609,34.998789 C44.4782609,33.511817 45.6851455,32.3063881 47.173913,32.3063881 C48.6626806,32.3063881 49.8695652,33.511817 49.8695652,34.998789 L49.8695652,43.0759915 Z M52.5652174,43.0759915 L52.5652174,34.998789 C52.5652174,32.0248451 50.1514482,29.6139873 47.173913,29.6139873 C44.1963779,29.6139873 41.7826087,32.0248451 41.7826087,34.998789 L41.7826087,43.0759915 L39.0869565,43.0759915 L39.0869565,34.998789 C39.0869565,30.5378732 42.7076103,26.9215864 47.173913,26.9215864 C51.6402158,26.9215864 55.2608696,30.5378732 55.2608696,34.998789 L55.2608696,43.0759915 L52.5652174,43.0759915 Z" id="Shape" fill="#FFFFFF"></path>
            <path d="M40.4347826,53.8455949 L40.4347826,59.2303966 C40.4347826,59.9738826 41.0382249,60.576597 41.7826087,60.576597 C42.5269925,60.576597 43.1304348,59.9738826 43.1304348,59.2303966 L43.1304348,53.8455949 C43.1304348,53.1021089 42.5269925,52.4993945 41.7826087,52.4993945 C41.0382249,52.4993945 40.4347826,53.1021089 40.4347826,53.8455949 Z" id="Path" fill="#F58320"></path>
            <path d="M47.173913,52.4993945 C46.4295293,52.4993945 45.826087,53.1021089 45.826087,53.8455949 L45.826087,59.2303966 C45.826087,59.9738826 46.4295293,60.576597 47.173913,60.576597 L52.5652174,60.576597 C53.3096012,60.576597 53.9130435,59.9738826 53.9130435,59.2303966 L53.9130435,53.8455949 C53.9130435,53.1021089 53.3096012,52.4993945 52.5652174,52.4993945 L47.173913,52.4993945 Z M51.2173913,57.8841962 L48.5217391,57.8841962 L48.5217391,55.1917953 L51.2173913,55.1917953 L51.2173913,57.8841962 Z" id="Shape" fill="#F58320"></path>
        </g>
    </g>
</svg>