<svg xmlns="http://www.w3.org/2000/svg" width="80" height="80" fill-rule="nonzero"><circle fill="#f74b01" cx="40" cy="40" r="40"/><path d="M22 30.138v2.1h6.513v19.058h4.622v-19.06h6.513v-2.06l-.05-2.125c0-.04-3.97-.052-8.792-.052l-8.767.04v2.112l-.04-.013zm29.53-1.882a6.04 6.04 0 0 1 3.142 1.854c.465.52 1.156 1.426 1.207 1.66 0 .078-2.174 1.595-3.494 2.438-.05.04-.25-.182-.452-.52-.654-.96-1.32-1.375-2.363-1.452-1.508-.104-2.514.713-2.514 2.075a2.1 2.1 0 0 0 .226.986c.34.713.968 1.14 2.916 2.023 3.595 1.595 5.153 2.645 6.096 4.15 1.068 1.686 1.307 4.33.6 6.315-.804 2.166-2.765 3.63-5.568 4.1-.88.156-2.9.13-3.833-.04-2-.4-3.934-1.426-5.115-2.762-.465-.52-1.357-1.906-1.307-1.997l.478-.3 1.885-1.128 1.42-.856.327.454c.415.674 1.345 1.582 1.885 1.893 1.634.87 3.82.752 4.902-.26a1.97 1.97 0 0 0 .666-1.556c0-.597-.088-.87-.377-1.323-.402-.57-1.207-1.037-3.47-2.075-2.602-1.14-3.708-1.867-4.738-2.983-.6-.674-1.13-1.725-1.383-2.594-.2-.752-.25-2.594-.075-3.333.54-2.594 2.438-4.4 5.153-4.928.88-.182 2.954-.104 3.82.13l-.025.026z" fill="#fff"/></svg>