<svg xmlns="http://www.w3.org/2000/svg" viewBox="0 0 90 90"><circle cx="45" cy="45" r="45" fill="#147894"/><path d="M80.47 45.4a.45.45 0 0 0 0-.11.65.65 0 0 0 0-.13l-.13-.15a.33.33 0 0 0-.06-.1 1 1 0 0 0-.16-.2l-3.83-3.8a1.28 1.28 0 0 0-1.81 1.81l1.65 1.65h-6.5V30.93a1.28 1.28 0 0 0-2.56 0v28.14a1.28 1.28 0 0 0 2.56 0V46.92h6.5l-1.65 1.65a1.28 1.28 0 1 0 1.81 1.81l3.83-3.83a1 1 0 0 0 .16-.2.33.33 0 0 0 .06-.1l.06-.12a.65.65 0 0 0 0-.13.45.45 0 0 0 0-.11 1.06 1.06 0 0 0 .07-.5zM22.93 29.65a1.28 1.28 0 0 0-1.28 1.28v13.43h-7.78l1.65-1.65a1.28 1.28 0 0 0-1.81-1.81l-3.83 3.83a1 1 0 0 0-.16.2.33.33 0 0 0-.06.1l-.06.12a.65.65 0 0 0 0 .13.45.45 0 0 0 0 .11 1.06 1.06 0 0 0 0 .5.45.45 0 0 0 0 .11.65.65 0 0 0 0 .13l.06.12a.33.33 0 0 0 .06.1 1 1 0 0 0 .16.2l3.83 3.83a1.28 1.28 0 0 0 1.81-1.81l-1.65-1.65h7.78v12.15a1.28 1.28 0 0 0 2.56 0V30.93a1.28 1.28 0 0 0-1.28-1.28z" fill="#13ebf2" stroke="#13ebf2" stroke-miterlimit="10" stroke-width="2"/><path d="M30.72 54a3.2 3.2 0 0 0 3.2 3.2h24.3a3.2 3.2 0 0 0 3.2-3.2V40.52h-30.7zm14.07-5.8h5.12a.64.64 0 1 1 0 1.28h-5.1a.64.64 0 0 1 0-1.28zm-7.5-2.75a.63.63 0 0 1 0-.9.65.65 0 0 1 .91 0l3.2 3.2a.63.63 0 0 1 0 .9l-3.2 3.2a.64.64 0 0 1-.91 0 .65.65 0 0 1 0-.91l2.75-2.74zm20.93-12.6h-24.3a3.2 3.2 0 0 0-3.2 3.2v3.2h30.7v-3.2a3.2 3.2 0 0 0-3.2-3.2zM35.84 38a1.28 1.28 0 1 1 1.28-1.28A1.28 1.28 0 0 1 35.84 38zm3.83 0A1.28 1.28 0 1 1 41 36.68 1.28 1.28 0 0 1 39.67 38zm3.84 0a1.28 1.28 0 1 1 1.28-1.28A1.28 1.28 0 0 1 43.51 38z" fill="#02b6d3"/></svg>