<svg xmlns="http://www.w3.org/2000/svg" xmlns:xlink="http://www.w3.org/1999/xlink" width="120" height="120"><defs><path id="A" d="M.35 0h23.333v56H.35z"/></defs><g fill="none" fill-rule="evenodd"><circle fill="#59558e" cx="60" cy="60" r="60"/><g transform="translate(32 32)"><path d="M13.185 36.167v-10.4a14.1 14.1 0 0 1 1.62-6.574 9.61 9.61 0 0 0-3.445-1.365c2.388-.744 4.14-2.95 4.14-5.58 0-3.236-2.63-5.868-5.87-5.868a5.88 5.88 0 0 0-5.867 5.876c0 2.632 1.75 4.837 4.14 5.58C3.415 18.655 0 22.594 0 27.392v8.377c0 .645.522 1.167 1.167 1.167H3.9l1.752 14.028c.072.583.57 1.022 1.157 1.022h5.644c.588 0 1.085-.44 1.157-1.022l1.463-11.7c-1.118-.585-1.9-1.742-1.9-3.088m33.867-18.33c2.4-.744 4.14-2.95 4.14-5.58 0-3.236-2.632-5.868-5.87-5.868s-5.868 2.632-5.868 5.868c0 2.632 1.75 4.837 4.14 5.58-1.42.26-2.73.83-3.86 1.642.924 1.87 1.45 3.968 1.45 6.188v10.5c0 1.115-.534 2.1-1.35 2.74l1.506 12.056a1.17 1.17 0 0 0 1.158 1.022h5.643a1.17 1.17 0 0 0 1.158-1.022l1.752-14.028h2.73c.645 0 1.167-.52 1.167-1.167v-8.464c0-4.72-3.414-8.65-7.902-9.467" fill="#8989ce"/><g transform="translate(15.167)"><mask id="B" fill="#fff"><use xlink:href="#A"/></mask><path d="M12.028 14A7.01 7.01 0 0 0 19.018 7a7.01 7.01 0 0 0-7-7 7.01 7.01 0 0 0-7 7 7.01 7.01 0 0 0 6.988 7.001C5.58 14.007.35 19.237.35 25.776v10.4c0 .645.522 1.167 1.167 1.167h3.637L7.36 54.978A1.17 1.17 0 0 0 8.518 56h7c.588 0 1.085-.44 1.157-1.022l2.206-17.645h3.636c.645 0 1.167-.522 1.167-1.167v-10.5c0-6.43-5.228-11.66-11.656-11.666" fill="#c8c8fc" mask="url(#B)"/></g></g></g></svg>