<svg xmlns="http://www.w3.org/2000/svg" viewBox="0 0 90 90"><circle cx="45" cy="45" r="45" fill="#59558e"/><path d="M56.7 43.6a11 11 0 1 0 11 11 11 11 0 0 0-11-11zm5.7 14.8a7.06 7.06 0 0 1-5.71 2.86 7.15 7.15 0 0 1-7.1-6.41l-.72.72a1 1 0 0 1-1.35-1.35l2.3-2.32.67-.67.68.67 2.3 2.32a.94.94 0 0 1 0 1.35.92.92 0 0 1-.67.28.94.94 0 0 1-.68-.28l-.6-.57a5.22 5.22 0 0 0 9.33 2.3 1 1 0 0 1 1.53 1.14zm3.47-5.73a1 1 0 0 1 0 1.36l-2.32 2.3-.68.67-.67-.67L59.9 54a1 1 0 0 1 1.35-1.36l.6.62A5.22 5.22 0 0 0 52.53 51 1 1 0 0 1 51 49.84a7.14 7.14 0 0 1 12.81 3.56l.72-.73a1 1 0 0 1 1.36 0z" fill="#c8c8fc"/><g fill="#8989ce"><path d="M39.37 24.44l-.83.1a18 18 0 0 0-12.07 6.22 16.9 16.9 0 0 0-2 2.94c-.2.4-.24.48-.24.64a.65.65 0 0 0 .68.69.73.73 0 0 0 .3-.07c.08 0 .15-.07.16-.06a1 1 0 0 0 .19-.26 19.63 19.63 0 0 1 4.8-5.41A15.63 15.63 0 0 1 39.08 26c.85 0 .87 0 1.08-.2a.88.88 0 0 0 .24-.48.8.8 0 0 0-.54-.83l-.23-.05h-.26zm3.98.24h-.14a.8.8 0 0 0-.14 1.4 2 2 0 0 0 .73.22c5.54 1.14 9.57 4.8 11.67 10.6a20.29 20.29 0 0 1 1 4.33.74.74 0 0 0 .13.48.77.77 0 0 0 1.27 0c.1-.16.12-.2.1-.5a12.16 12.16 0 0 0-.16-1.62 16.89 16.89 0 0 0-5.44-10.45 19.44 19.44 0 0 0-8.17-4.27l-.65-.17a.4.4 0 0 0-.24 0zM32 29.4c-.12.05-.8.52-1.26.85a13.76 13.76 0 0 0-5.13 8.5 18.44 18.44 0 0 0-.37 3.81 12.24 12.24 0 0 0 .18 2.45 10.93 10.93 0 0 1 .24 2.72 13.37 13.37 0 0 1-.07 1.65 5.94 5.94 0 0 1-.35 1.52.78.78 0 0 0 .55 1.15.76.76 0 0 0 .74-.34 9 9 0 0 0 .4-1.21 19.36 19.36 0 0 0-.25-7 7.56 7.56 0 0 1-.06-2 14.1 14.1 0 0 1 3-8.15 12 12 0 0 1 2.9-2.61.68.68 0 0 0 .31-.34.63.63 0 0 0 .08-.41.64.64 0 0 0-.64-.59.93.93 0 0 0-.26 0zm7.45.6a12.74 12.74 0 0 0-7.63 3.3 17.89 17.89 0 0 0-1.71 1.83 10.51 10.51 0 0 0-1.82 4.62 12.22 12.22 0 0 0-.19 2.65v1.28l.13.63a14 14 0 0 1 .34 3.63 14.11 14.11 0 0 1-.42 3.29 9 9 0 0 1-.6 1.74.61.61 0 0 0-.09.32.71.71 0 0 0 .83.82h.3a5.44 5.44 0 0 0 1.17-2.3 13.36 13.36 0 0 0 .48-3.64 15.33 15.33 0 0 0-.4-3.58 8.83 8.83 0 0 1-.32-1.64 13.36 13.36 0 0 1 .06-2.75 9.76 9.76 0 0 1 .66-2.49 12.06 12.06 0 0 1 1.35-2.12 13.77 13.77 0 0 1 1.75-1.75 11.23 11.23 0 0 1 5.74-2.29 17.44 17.44 0 0 1 3 0c.78.1 1.06.1 1.22 0a.7.7 0 0 0 .28-.88c-.13-.25-.27-.33-.76-.43a11.44 11.44 0 0 0-2.36-.24zm-.1 2.78a10.26 10.26 0 0 0-3.59 1 8.69 8.69 0 0 0-3.22 2.69 10 10 0 0 0-1.79 4.81v.46l.13.4a11.63 11.63 0 0 1 .63 3.64 11.48 11.48 0 0 1-.13 2.27c-.12.67-.13.92 0 1.1a.71.71 0 0 0 .68.42.69.69 0 0 0 .6-.3.57.57 0 0 0 .11-.19 1.61 1.61 0 0 1 .09-.25c.5-1.27.33-4.1-.42-6.92l-.1-.42.08-.44a7.93 7.93 0 0 1 5.32-6.44 11.69 11.69 0 0 1 2.18-.43 7.32 7.32 0 0 1 4 .88 9.65 9.65 0 0 1 2.81 2.22.77.77 0 0 0 1.36 0 .89.89 0 0 0 0-.68A16.84 16.84 0 0 0 46.4 35a10.09 10.09 0 0 0-5.63-2.23 9.89 9.89 0 0 0-1.43 0zm-15.76 3.56a1 1 0 0 0-.33.22l-.2.18a18 18 0 0 0-.54 2.71 17.19 17.19 0 0 0 .07 5.95 6.15 6.15 0 0 0 .75 2s.08.06.12.14a.72.72 0 0 0 .36.35.86.86 0 0 0 .73-.06.87.87 0 0 0 .33-.61 3.28 3.28 0 0 0-.14-.61 15.53 15.53 0 0 1-.31-8.61c.22-.76.24-.8.2-.95a.85.85 0 0 0-1.05-.68zm11.84 1.56a3 3 0 0 0-.81.87 6.31 6.31 0 0 0-.75 2.35 11.24 11.24 0 0 0-.07 1.62 13.36 13.36 0 0 0 .21 2.67c0 .23.1.64.16.9a15.18 15.18 0 0 1-1 7.65 18.12 18.12 0 0 1-1 2.31.78.78 0 0 0 0 .65.7.7 0 0 0 1 .28c.17-.1.3-.28.62-.9a21.93 21.93 0 0 0 2.07-8.4v-.7l-.15-.62c-.73-3-.68-5.54.15-7.15a3.07 3.07 0 0 1 .29-.46.85.85 0 0 0 .23-.63.62.62 0 0 0-.93-.45zm3.98.7a3.69 3.69 0 0 0-1.11.39 3.3 3.3 0 0 0-.87.91 4.52 4.52 0 0 0-.41 1.14 13.5 13.5 0 0 0 0 5.26 10.13 10.13 0 0 1 .21 2.12 14.76 14.76 0 0 1-.54 4.41A20.43 20.43 0 0 1 35 57.27c-.44.85-.46.94-.28 1.28a.73.73 0 0 0 1.06.27c.17-.12.16-.1.62-1a17.55 17.55 0 0 0 1-2.41 20.25 20.25 0 0 0 .92-4.28 22 22 0 0 0-.15-5.93c0-.3-.12-.7-.16-.93a9 9 0 0 1-.11-2 3 3 0 0 1 .83-2.07 2 2 0 0 1 1.48-.63 1.78 1.78 0 0 1 1.4.56c.7.7 1.1 1.9 1.22 3.8a26.46 26.46 0 0 1 0 3.09c0 .2 0 .52-.05.73 0 .38 0 .4.07.55a.64.64 0 0 0 1 .11c.14-.17.16-.3.2-1a31.9 31.9 0 0 0-.22-5.3 3.39 3.39 0 0 0-.21-.93 4 4 0 0 0-.94-1.56 3.23 3.23 0 0 0-1.53-.93 5.62 5.62 0 0 0-1.74 0zm.6 2.58a.82.82 0 0 0-.6.72 1.75 1.75 0 0 0 .06.63 22.12 22.12 0 0 1-.2 10.58 2.26 2.26 0 0 0-.13.46.55.55 0 0 1 0 .2.7.7 0 0 0 .22.7.55.55 0 0 0 .35.2.71.71 0 0 0 .85-.43l.1-.18a14 14 0 0 0 .54-2.5 26.24 26.24 0 0 0 .28-4.1 28.89 28.89 0 0 0-.33-4.58c-.17-1.15-.2-1.27-.33-1.42a.83.83 0 0 0-.78-.28zm3.14 8.96c-.32.1-.4.3-.46 1a26.05 26.05 0 0 1-.62 3.67 11 11 0 0 1-1.32 3.25c-.24.4-.25.44-.25.64a.73.73 0 0 0 .27.61.75.75 0 0 0 1.18-.31l.27-.52a19 19 0 0 0 1.54-5.78 14.57 14.57 0 0 0 .25-2.12.7.7 0 0 0-.44-.45.48.48 0 0 0-.39 0z"/><path d="M31.35 51.4a1.22 1.22 0 0 0-.51.72 25.09 25.09 0 0 1-1.37 2.92c-.22.4-.23.42-.2.64a.75.75 0 0 0 1 .69.77.77 0 0 0 .29-.17 17.93 17.93 0 0 0 1-2.11l.45-1.15a2.89 2.89 0 0 0 .25-.9.53.53 0 0 0-.1-.39.68.68 0 0 0-.81-.25zm7.4 4.42c-.14.08-.2.17-.75 1.16l-.7 1.2a.56.56 0 0 0-.13.49.61.61 0 0 0 .64.58.62.62 0 0 0 .53-.28 2.18 2.18 0 0 1 .22-.26 4.79 4.79 0 0 0 1-1.69 1.88 1.88 0 0 0 .14-.81.88.88 0 0 0-.35-.42.71.71 0 0 0-.57 0zm5.7.78a2.82 2.82 0 0 1-.28.85.74.74 0 0 0 0 .71.62.62 0 0 0 .6.31.46.46 0 0 0 .14 0 12.36 12.36 0 0 1-.46-1.87zm1.2-12.6a48.44 48.44 0 0 1 0 5A12.1 12.1 0 0 1 47 46.81a17.51 17.51 0 0 0-1.3-8.19 2.37 2.37 0 0 0-.57-.8 7.28 7.28 0 0 0-3.64-2 9.35 9.35 0 0 0-1.81-.08 8.55 8.55 0 0 0-1.76.44.69.69 0 0 0-.11 1.15c.2.18.47.2 1 .05a6.33 6.33 0 0 1 1.63-.2c2.47 0 4.2 1.46 5 4.25a12.59 12.59 0 0 1 .22 2.57zm2.74 1.35a13.35 13.35 0 0 1 1.25-1l-.25-2.84a18.66 18.66 0 0 0-.35-2.27l-.06-.16a.78.78 0 0 0-1-.26.94.94 0 0 0-.28.24 1.2 1.2 0 0 0 0 1 24 24 0 0 1 .69 5.29zm4.96-6.7a15.47 15.47 0 0 1 .34 1.88v2a11.43 11.43 0 0 1 1.44-.27 5 5 0 0 0 0-.51c-.36-4.1-1.45-7.27-3.23-9.42a16.41 16.41 0 0 0-2.23-2.06 15.6 15.6 0 0 0-6.34-2.86 12 12 0 0 0-2.77-.25h-1.33l-.53.05A17.58 17.58 0 0 0 35 28c-.92.3-1.08.4-1.12.73a.62.62 0 0 0 .41.72c.18.08.2.07.84-.1a20.43 20.43 0 0 1 7.73-.59 11.67 11.67 0 0 1 5.43 2.1 14.08 14.08 0 0 1 5.07 7.79zm-7.9-5.93a11.61 11.61 0 0 1 2.3 1.8 10.42 10.42 0 0 1 2.09 2.89 10.25 10.25 0 0 1 1.06 4.25c0 .68.1 1.3.12 1.87a13.79 13.79 0 0 1 1.42-.61 19.57 19.57 0 0 0-.46-3.8 14.53 14.53 0 0 0-2.42-4.87 11.83 11.83 0 0 0-1.64-1.61 5.61 5.61 0 0 0-2.16-1.08c-.2 0-.26 0-.37.08a.65.65 0 0 0 .06 1.08z"/></g></svg>