<?xml version="1.0" encoding="utf-8"?>
<!-- Generator: Adobe Illustrator 24.0.1, SVG Export Plug-In . SVG Version: 6.00 Build 0)  -->
<svg version="1.1" id="Layer_1" xmlns="http://www.w3.org/2000/svg" xmlns:xlink="http://www.w3.org/1999/xlink" x="0px" y="0px"
	 viewBox="0 0 90 90" style="enable-background:new 0 0 90 90;" xml:space="preserve">
<style type="text/css">
	.st0{fill:#636466;}
	.st1{fill-rule:evenodd;clip-rule:evenodd;fill:#FFFFFF;}
	.st2{fill-rule:evenodd;clip-rule:evenodd;fill:#C92F13;}
	.st3{filter:url(#Adobe_OpacityMaskFilter);}
	.st4{mask:url(#mask-2_2_);fill-rule:evenodd;clip-rule:evenodd;fill:#F9902C;}
	.st5{fill-rule:evenodd;clip-rule:evenodd;fill:#FDD337;}
</style>
<path class="st0" d="M159,100.1c-0.1,0-0.1,0.1-0.2,0.1c0.1,0.1,0.1,0.2,0.2,0.3V100.1z"/>
<g>
	<g>
		<polygon id="path-1_5_" class="st1" points="25.4,25.4 50.9,25.4 50.9,58.9 25.4,58.9 		"/>
	</g>
	<desc>Created with Sketch.</desc>
	<g id="Page-1_4_">
		<g id="Website-Icons-and-Stamps-Copy_4_" transform="translate(-104.000000, -266.000000)">
			<g id="Circle-Icon---Complete-Identity_1_" transform="translate(104.000000, 266.000000)">
				<circle id="Oval_4_" class="st2" cx="45" cy="45" r="45"/>
				<g id="Icon---Complete-Identity_1_" transform="translate(25.363636, 24.545455)">
					<g id="Group-3_2_" transform="translate(0.000000, 0.117736)">
						<g id="Clip-2_2_">
						</g>
						<defs>
							<filter id="Adobe_OpacityMaskFilter" filterUnits="userSpaceOnUse" x="0" y="0.7" width="25.5" height="33.5">
								<feColorMatrix  type="matrix" values="1 0 0 0 0  0 1 0 0 0  0 0 1 0 0  0 0 0 1 0"/>
							</filter>
						</defs>
						<mask maskUnits="userSpaceOnUse" x="0" y="0.7" width="25.5" height="33.5" id="mask-2_2_">
							<g class="st3">
								<polygon id="path-1_2_" class="st1" points="0,0.7 25.5,0.7 25.5,34.2 0,34.2 								"/>
							</g>
						</mask>
						<path id="Fill-1_4_" class="st4" d="M25.5,22.8c-0.7-0.3-1.5-0.5-2.3-0.8c-1-0.3-2.1-0.7-3.2-1.1v-3.1
							c0.8-0.5,2.3-1.9,2.5-4.9c0.6-0.4,1-1.2,1-2.3c0-1-0.3-1.7-0.8-2.2c0.4-1,1.1-2.8,0.6-4.7c-0.6-2.2-3.7-3-6.3-3h0
							c-2.2,0-5,0.6-6,2.3c-0.9,0-1.5,0.2-2,0.7C8.1,4.9,8.7,7.2,9.1,8.5C8.9,8.6,8.7,8.8,8.6,9.1c-0.2,0.4-0.3,1-0.3,1.5
							c0,1.1,0.4,1.9,1,2.3c0.2,3,1.7,4.4,2.5,4.9v3.1c-1,0.4-2.1,0.7-3.2,1.1c-3.9,1.3-7,2.3-7.7,4.3C0.1,28.8,0,33.2,0,33.4
							c0,0.2,0.1,0.4,0.2,0.6c0.2,0.2,0.4,0.2,0.6,0.2h20.9v-6.5c0-1,0.8-1.6,1.6-1.6h1.2C24.4,24.9,24.9,23.8,25.5,22.8"/>
					</g>
					<path id="Fill-4_4_" class="st5" d="M27.2,27.8L27.2,27.8v-1c0-2.2,2.4-4.6,4.6-4.6s4.6,2.4,4.6,4.6v1l0,0H27.2z M32.8,33.9
						c0,0-0.1,0.1-0.1,0.1v3c0,0.5-0.4,0.8-0.8,0.8c-0.5,0-0.8-0.4-0.8-0.8v-3c-0.3-0.2-0.5-0.6-0.5-1c0-0.8,0.6-1.4,1.3-1.4l0,0
						c0.8,0,1.4,0.6,1.4,1.3C33.2,33.3,33.1,33.7,32.8,33.9L32.8,33.9z M39.4,27.6h-1.2v-0.8c0-3.2-3.1-6.3-6.3-6.3
						c-3.2,0-6.3,3.1-6.3,6.3v0.8h-1.2c-0.5,0-0.8,0.4-0.8,0.8v11.7c0,0.5,0.4,0.8,0.8,0.8h15.1c0.5,0,0.8-0.4,0.8-0.8V28.5
						C40.2,28,39.8,27.6,39.4,27.6L39.4,27.6z"/>
				</g>
			</g>
		</g>
	</g>
</g>
</svg>
