<?xml version="1.0" encoding="UTF-8"?>
<svg width="120px" height="120px" viewBox="0 0 120 120" version="1.1" xmlns="http://www.w3.org/2000/svg" xmlns:xlink="http://www.w3.org/1999/xlink">
    <title>webauthn_expliained</title>
    <defs>
        <filter x="-5.7%" y="-5.7%" width="111.4%" height="111.4%" filterUnits="objectBoundingBox" id="filter-1">
            <feOffset dx="0" dy="1" in="SourceAlpha" result="shadowOffsetOuter1"></feOffset>
            <feGaussianBlur stdDeviation="0.5" in="shadowOffsetOuter1" result="shadowBlurOuter1"></feGaussianBlur>
            <feColorMatrix values="0 0 0 0 0   0 0 0 0 0   0 0 0 0 0  0 0 0 0.2 0" type="matrix" in="shadowBlurOuter1" result="shadowMatrixOuter1"></feColorMatrix>
            <feMerge>
                <feMergeNode in="shadowMatrixOuter1"></feMergeNode>
                <feMergeNode in="SourceGraphic"></feMergeNode>
            </feMerge>
        </filter>
    </defs>
    <g id="webauthn_expliained" stroke="none" stroke-width="1" fill="none" fill-rule="evenodd">
        <g id="Oval-2" fill="#334155">
            <circle id="Oval" cx="60" cy="60" r="60"></circle>
        </g>
        <g id="fingerprint-(1)" filter="url(#filter-1)" transform="translate(25.000000, 25.000000)" fill-rule="nonzero">
            <path d="M49,53.8461538 C48.6608548,53.7309895 48.2897973,53.755727 47.9689409,53.9148919 C47.6480846,54.0740569 47.4038858,54.3545253 47.2903846,54.6942308 C47.1961538,54.9903846 47.0884615,55.2865385 46.9673077,55.5692308 C46.6779611,56.2532191 46.9972157,57.0423201 47.6807692,57.3326923 C47.8456754,57.4068998 48.0249656,57.4436773 48.2057692,57.4403846 C48.7459541,57.4399444 49.2335588,57.1166413 49.4442308,56.6192308 C49.5923077,56.2557692 49.7269231,55.9057692 49.8480769,55.5557692 C49.9632413,55.216624 49.9385038,54.8455666 49.7793388,54.5247102 C49.6201739,54.2038538 49.3397055,53.959655 49,53.8461538 L49,53.8461538 Z" id="Path" fill="#F58320"></path>
            <path d="M52.5000471,32.3076923 C52.5109481,27.5984263 50.6117514,23.0860126 47.2365385,19.8019231 C46.8902657,19.465269 46.3906936,19.3389221 45.9260061,19.4704761 C45.4613187,19.60203 45.1021131,19.9714987 44.9836985,20.4397068 C44.8652838,20.9079149 45.0056503,21.4037305 45.3519231,21.7403846 C48.2144703,24.5089127 49.8237144,28.325398 49.8076923,32.3076923 L49.8076923,40.6807692 C49.8148419,44.1400736 49.36216,47.5849823 48.4615385,50.925 C48.3671184,51.2713662 48.4149632,51.6410987 48.5944391,51.9520217 C48.773915,52.2629447 49.0701514,52.4892967 49.4173077,52.5807692 L49.7673077,52.5807692 C50.3930926,52.6022048 50.951029,52.1893318 51.1134615,51.5846154 C52.0396575,48.0112578 52.4922501,44.3316795 52.4596154,40.6403846 L52.5000471,32.3076923 Z" id="Path" fill="#FFFFFF"></path>
            <path d="M15.3865385,49.2692533 C15.7443502,49.2712995 16.0882631,49.130828 16.3423077,48.8788462 L17.1230769,48.0846154 C19.0898846,46.1229239 20.1943517,43.4586392 20.1923077,40.6807692 L20.1923077,32.3076923 C20.1884058,27.2187941 22.7979183,22.4844091 27.1026685,19.7703666 C31.4074187,17.0563241 36.804244,16.7429037 41.3942308,18.9403846 C41.8322495,19.1895442 42.3727476,19.1731965 42.7949074,18.8980203 C43.2170673,18.6228441 43.450183,18.1349276 43.3990163,17.6336065 C43.3478496,17.1322854 43.0209702,16.701524 42.5519231,16.5173077 C37.1290116,13.9231283 30.7541434,14.2939525 25.6685948,17.4994057 C20.5830462,20.704859 17.4987186,26.2962255 17.5,32.3076923 L17.5,40.6807692 C17.5044979,42.7482808 16.6802361,44.7313575 15.2115385,46.1865385 L14.4307692,46.9673077 C14.1759253,47.2200704 14.0325792,47.5641418 14.0325792,47.9230769 C14.0325792,48.2820121 14.1759253,48.6260834 14.4307692,48.8788462 C14.6848138,49.130828 15.0287268,49.2712995 15.3865385,49.2692533 L15.3865385,49.2692533 Z" id="Path" fill="#F58320"></path>
            <path d="M47.1153846,36.3461538 C47.1153846,35.6026936 46.512691,35 45.7692308,35 C45.0257705,35 44.4230769,35.6026936 44.4230769,36.3461538 L44.4230769,40.6807692 C44.4377229,47.2516117 42.5690949,53.6890354 39.0384615,59.2307692 C38.6380997,59.8554753 38.8187251,60.6863521 39.4423077,61.0884615 C39.658976,61.2284173 39.9112921,61.3031777 40.1692308,61.3038462 C40.6269124,61.3030837 41.0528522,61.069831 41.3,60.6846154 C45.112625,54.7104851 47.1309541,47.7678066 47.1153846,40.6807692 L47.1153846,36.3461538 Z" id="Path" fill="#F58320"></path>
            <path d="M24.2307692,37.6923077 C24.9742295,37.6923077 25.5769231,37.0896141 25.5769231,36.3461538 L25.5769231,32.3076923 C25.253518,27.1034707 29.2102015,22.6224438 34.4144231,22.2990386 C39.6186447,21.9756334 44.0996716,25.9323168 44.4230769,31.1365385 C44.5197268,31.8799987 45.2007705,32.4043421 45.9442308,32.3076923 C46.687691,32.2110425 47.2120344,31.5299987 47.1153846,30.7865385 C46.6953294,24.0953964 40.9305652,19.011676 34.2394231,19.431731 C27.548281,19.8517861 22.4645605,25.6165502 22.8846154,32.3076923 L22.8846154,36.3461538 C22.8846154,37.0896141 23.487309,37.6923077 24.2307692,37.6923077 L24.2307692,37.6923077 Z" id="Path" fill="#FFFFFF"></path>
            <path d="M24.2307692,40.3846154 C23.8735407,40.3587297 23.5207242,40.4762715 23.2503963,40.7112294 C22.9800685,40.9461872 22.8145195,41.2791874 22.7903846,41.6365385 C22.5630123,44.7922135 21.2056876,47.7601666 18.9673077,49.9961538 L17.3384615,51.6923077 C16.9568316,52.0240656 16.7933153,52.5417112 16.9151168,53.0324954 C17.0369183,53.5232796 17.4234893,53.9044059 17.9159517,54.019234 C18.4084141,54.1340621 18.9236884,53.9632202 19.25,53.5769231 L20.9326923,51.8942308 C23.6430737,49.2067831 25.2922199,45.6312431 25.5769231,41.825 C25.6031018,41.4519514 25.4729187,41.084825 25.217573,40.8116051 C24.9622273,40.5383852 24.6047341,40.383698 24.2307692,40.3846154 L24.2307692,40.3846154 Z" id="Path" fill="#FFFFFF"></path>
            <path d="M39.9942308,45.7692308 C39.6443418,45.697752 39.280389,45.7682313 38.9824764,45.9651566 C38.6845638,46.1620818 38.4771081,46.4693133 38.4057692,46.8192308 C37.4071887,51.5642415 35.2367384,55.9838152 32.0923077,59.675 C31.6090586,60.2400298 31.6753549,61.0898277 32.2403846,61.5730769 C32.8054144,62.056326 33.6552124,61.9900298 34.1384615,61.425 C37.5745216,57.3883735 39.9482425,52.5576432 41.0442308,47.3711538 C41.1197152,47.019279 41.0511623,46.65183 40.8538774,46.3508441 C40.6565926,46.0498582 40.3470039,45.840399 39.9942308,45.7692308 Z" id="Path" fill="#FFFFFF"></path>
            <path d="M30.9615385,32.3076923 C30.9615385,30.0773116 32.7696193,28.2692308 35,28.2692308 C37.2303807,28.2692308 39.0384615,30.0773116 39.0384615,32.3076923 L39.0384615,40.6807692 L39.0384615,41.6230769 C38.9789847,42.3665372 39.5334628,43.0174463 40.2769231,43.0769231 C41.0203833,43.1363999 41.6712924,42.5819218 41.7307692,41.8384615 C41.7307692,41.4480769 41.7307692,41.0711538 41.7307692,40.6807692 L41.7307692,32.3076923 C41.7307692,28.5903911 38.7173012,25.5769231 35,25.5769231 C31.2826988,25.5769231 28.2692308,28.5903911 28.2692308,32.3076923 L28.2692308,40.6807692 C28.3145581,45.6141475 26.3741214,50.3585152 22.8846154,53.8461538 C22.6297714,54.0989166 22.4864253,54.4429879 22.4864253,54.8019231 C22.4864253,55.1608582 22.6297714,55.5049296 22.8846154,55.7576923 C23.1373781,56.0125363 23.4814495,56.1558824 23.8403846,56.1558824 C24.1993198,56.1558824 24.5433911,56.0125363 24.7961538,55.7576923 C28.7844762,51.7585407 31.0049321,46.3286047 30.9615385,40.6807692 L30.9615385,32.3076923 Z" id="Path" fill="#F58320"></path>
            <path d="M27.7980769,56.3634615 C27.4346154,56.7942308 27.0442308,57.1980769 26.6403846,57.6019231 C26.3855407,57.8546858 26.2421946,58.1987572 26.2421946,58.5576923 C26.2421946,58.9166275 26.3855407,59.2606988 26.6403846,59.5134615 C26.8931473,59.7683055 27.2372187,59.9116516 27.5961538,59.9116516 C27.955089,59.9116516 28.2991603,59.7683055 28.5519231,59.5134615 C29.0096154,59.0557692 29.4269231,58.5980769 29.8980769,58.1673077 C30.3813261,57.6022779 30.3150298,56.7524799 29.75,56.2692308 C29.1849702,55.7859816 28.3351722,55.8522779 27.8519231,56.4173077 L27.7980769,56.3634615 Z" id="Path" fill="#FFFFFF"></path>
            <path d="M32.3076923,54.775 C34.95159,50.5497846 36.3512401,45.6650058 36.3461677,40.6807692 L36.3461677,32.3076923 C36.3461677,31.5642321 35.7434602,30.9615385 35,30.9615385 C34.2565398,30.9615385 33.6538462,31.5642321 33.6538462,32.3076923 L33.6538462,40.6807692 C33.6602388,45.1613494 32.4002844,49.5525238 30.0192308,53.3480769 C29.6251969,53.9800181 29.8180589,54.8117353 30.45,55.2057692 C31.0819412,55.5998031 31.9136584,55.4069412 32.3076923,54.775 L32.3076923,54.775 Z" id="Path" fill="#FFFFFF"></path>
            <path d="M16.9480769,20.4615385 C17.2345746,20.6800229 17.5967001,20.7745389 17.9534297,20.7239389 C18.3101593,20.673339 18.6317162,20.4818468 18.8461538,20.1923077 C24.0609838,13.2392011 33.1399982,10.4031305 41.3853684,13.1515873 C49.6307385,15.900044 55.1923077,23.6163091 55.1923077,32.3076923 L55.1923077,39.0384615 C55.1923077,39.7819218 55.7950013,40.3846154 56.5384615,40.3846154 C57.2819218,40.3846154 57.8846225,39.7819218 57.8846225,39.0384615 L57.8846225,32.3076923 C57.8923589,22.4500183 51.5867491,13.6951088 42.23463,10.5787542 C32.8825109,7.46239962 22.5857089,10.6849797 16.6788462,18.5769231 C16.23277,19.1716913 16.3533087,20.0154623 16.9480769,20.4615385 Z" id="Path" fill="#FFFFFF"></path>
            <path d="M14.8076923,32.3076923 C14.8087319,29.6377036 15.3347339,26.9939714 16.3557692,24.5269231 C16.5578035,23.8635602 16.2228492,23.1552561 15.5819233,22.8905258 C14.9409973,22.6257956 14.2038313,22.8912673 13.8788462,23.5038462 C12.7106238,26.2917483 12.1110732,29.2849248 12.1153615,32.3076923 L12.1153615,39.0384615 C12.1153615,39.7819218 12.7180782,40.3846153 13.4615385,40.3846153 C14.2049987,40.3846153 14.8076923,39.7819218 14.8076923,39.0384615 L14.8076923,32.3076923 Z" id="Path" fill="#FFFFFF"></path>
            <path d="M1.34615385,17.5 C2.08961409,17.5 2.69230769,16.8973064 2.69230769,16.1538462 L2.69230769,2.69230769 L16.1538462,2.69230769 C16.8973064,2.69230769 17.5,2.08961409 17.5,1.34615385 C17.5,0.602693606 16.8973064,0 16.1538462,0 L1.34615385,0 C0.602693606,0 0,0.602693606 0,1.34615385 L0,16.1538462 C0,16.8973064 0.602693606,17.5 1.34615385,17.5 Z" id="Path" fill="#FFFFFF"></path>
            <path d="M68.6538462,0 L53.8461538,0 C53.1026936,0 52.5,0.602693606 52.5,1.34615385 C52.5,2.08961409 53.1026936,2.69230769 53.8461538,2.69230769 L67.3076923,2.69230769 L67.3076923,16.1538462 C67.3076923,16.8973064 67.9103859,17.5 68.6538462,17.5 C69.3973064,17.5 70,16.8973064 70,16.1538462 L70,1.34615385 C70,0.602693606 69.3973064,0 68.6538462,0 Z" id="Path" fill="#FFFFFF"></path>
            <path d="M68.6538462,52.5 C67.9103859,52.5 67.3076923,53.1026936 67.3076923,53.8461538 L67.3076923,67.3076923 L53.8461538,67.3076923 C53.1026936,67.3076923 52.5,67.9103859 52.5,68.6538462 C52.5,69.3973064 53.1026936,70 53.8461538,70 L68.6538462,70 C69.3973064,70 70,69.3973064 70,68.6538462 L70,53.8461538 C70,53.1026936 69.3973064,52.5 68.6538462,52.5 Z" id="Path" fill="#FFFFFF"></path>
            <path d="M16.1538462,67.3076923 L2.69230769,67.3076923 L2.69230769,53.8461538 C2.69230769,53.1026936 2.08961409,52.5 1.34615385,52.5 C0.602693606,52.5 0,53.1026936 0,53.8461538 L0,68.6538462 C0,69.3973064 0.602693606,70 1.34615385,70 L16.1538462,70 C16.8973064,70 17.5,69.3973064 17.5,68.6538462 C17.5,67.9103859 16.8973064,67.3076923 16.1538462,67.3076923 Z" id="Path" fill="#FFFFFF"></path>
        </g>
    </g>
</svg>