<?xml version="1.0" encoding="utf-8"?>
<!-- Generator: Adobe Illustrator 24.0.1, SVG Export Plug-In . SVG Version: 6.00 Build 0)  -->
<svg version="1.1" id="Layer_1" xmlns="http://www.w3.org/2000/svg" xmlns:xlink="http://www.w3.org/1999/xlink" x="0px" y="0px"
	 viewBox="0 0 90 90" style="enable-background:new 0 0 90 90;" xml:space="preserve">
<style type="text/css">
	.st0{fill:#59558E;}
	.st1{fill:#8989CE;}
	.st2{fill:#C8C8FC;}
</style>
<circle class="st0" cx="45" cy="45" r="45"/>
<g>
	<path class="st1" d="M43,44.2l-5.3,5.3c-1.4,1.7-1.4,4.1-0.1,5.9c1.5,2.1,4.6,2.5,6.5,0.5l1.6-1.5c0.2-0.2,0.3-0.2,0.5,0l8.9,7.7
		c0.9,0.8,1,2.1,0.3,3.1c-0.1,0.2-0.3,0.4-0.4,0.5c-0.5,0.9-1.9,1.3-2.9,0.5c-0.4-0.3-0.5-0.3-0.7,0l-1.5,2.1
		c-0.9,1.2-2.5,1.4-3.6,0.3c-0.3-0.3-0.5-0.6-0.8-0.7c-0.3-0.1-0.5,0.4-0.7,0.6c-1.5,1.2-3.6,1.1-5-0.3l-5.2-5.1
		C34.3,62.9,34,63,33.7,63c-0.4,0-0.5-0.1-0.5-0.5V48.6c0-0.3,0.1-0.5,0.3-0.6l2.7-3.1c0.5-0.5,1.1-0.9,1.9-0.8h4.5
		C42.8,44.1,42.9,44.1,43,44.2C42.9,44.1,43,44.2,43,44.2z M56.8,61C55.9,60,55,59.3,54,58.5L47.8,53c-0.4-0.4-0.4-0.4,0-0.7
		l1.2-1.2c0.5-0.5,0.5-1.1,0.1-1.5c-0.4-0.5-1-0.5-1.4,0L43,54.3c-1.1,1.1-2.7,1.1-3.7-0.1c-0.7-0.9-0.8-2.6,0-3.4l3.1-3.1l3.2-3.1
		c0.3-0.4,0.6-0.5,1.1-0.5h5.6c0.5,0,0.9,0.2,1.2,0.5l3.2,3.5c0.1,0.1,0.2,0.2,0.2,0.4C56.8,48.5,56.8,61,56.8,61z M30.9,48.3h-5.1
		c-0.4,0-0.5,0.1-0.5,0.5v16c0,0.3,0.1,0.5,0.4,0.4h3.4c1.3,0,2.1-0.9,2.1-2.3V48.6C31.3,48.4,31.2,48.3,30.9,48.3z M28.4,63.1
		c-0.6,0-1-0.5-1-1c0-0.6,0.5-1,1-1.1c0.5,0,0.9,0.5,0.9,1C29.3,62.6,28.9,63.1,28.4,63.1z M64.6,56.8v-8c0-0.4-0.1-0.5-0.5-0.5h-5
		c-0.4,0-0.5,0.1-0.5,0.5v14.3c0.1,1.3,0.8,2,2,2h3.5c0.3,0,0.4-0.1,0.4-0.4C64.6,64.7,64.6,56.8,64.6,56.8z M61.7,63.1
		c-0.6,0-1-0.5-1-1c0-0.6,0.5-1,1-1c0.5,0,0.9,0.5,0.9,1S62.3,63.1,61.7,63.1z"/>
	<path class="st2" d="M53.4,39.3H53V28.7c0-0.2-0.2-0.4-0.4-0.4h-2.2c-0.2,0-0.4,0.2-0.4,0.4v10.6h-1.5v-5.5c0-0.2-0.2-0.4-0.4-0.4
		h-2.2c-0.2,0-0.4,0.2-0.4,0.4v5.5h-1.5v-6.9c0-0.2-0.2-0.4-0.4-0.4h-2.2c-0.2,0-0.4,0.2-0.4,0.4v6.9h-1.5V36c0-0.2-0.2-0.4-0.4-0.4
		h-2.2c-0.2,0-0.4,0.2-0.4,0.4v3.3h-0.4c-0.2,0-0.4,0.2-0.4,0.4c0,0.2,0.2,0.4,0.4,0.4h0.7h2.2h2.2h2.2h2.2h2.2h2.2h2.2h0.7
		c0.2,0,0.4-0.2,0.4-0.4C53.8,39.5,53.6,39.3,53.4,39.3z"/>
	<g>
		<path class="st2" d="M46.3,24c0-0.2,0.1-0.3,0.2-0.5c-0.1-0.3-0.4-0.5-0.9-0.5v2.3l0.1,0c0.3,0.1,0.5,0.1,0.8,0.2
			c0.2,0.1,0.4,0.1,0.5,0.2c0.1,0.1,0.2,0.2,0.4,0.3c0.1,0.1,0.2,0.2,0.3,0.4c0.3,0.3,0.4,0.7,0.4,1.2c0,0.4-0.1,0.8-0.4,1.2
			c-0.2,0.4-0.6,0.7-1,0.9c-0.2,0.1-0.3,0.2-0.5,0.2c-0.2,0.1-0.4,0.1-0.7,0.2v0.8c0,0.3-0.2,0.5-0.5,0.5c-0.3,0-0.5-0.2-0.5-0.5
			v-0.8c-0.9-0.1-1.5-0.3-2-0.7c-0.5-0.4-0.7-0.9-0.7-1.5c0-0.4,0.1-0.7,0.3-0.9c0.2-0.2,0.4-0.3,0.8-0.3c0.2,0,0.4,0.1,0.6,0.2
			c0.2,0.1,0.2,0.3,0.2,0.5c0,0.2,0,0.3-0.1,0.5c-0.1,0.1-0.2,0.2-0.4,0.2c0.1,0.3,0.2,0.5,0.5,0.6c0.2,0.2,0.6,0.2,1,0.3v-2.7
			c-0.3-0.1-0.6-0.2-0.9-0.3c-0.2-0.1-0.4-0.1-0.5-0.2c-0.1-0.1-0.3-0.1-0.4-0.3c-0.1-0.1-0.2-0.2-0.3-0.3c-0.2-0.3-0.3-0.7-0.3-1.1
			c0-0.2,0-0.4,0.1-0.6c0.1-0.2,0.2-0.4,0.3-0.6c0.1-0.2,0.3-0.3,0.4-0.5c0.2-0.1,0.3-0.3,0.5-0.3c0.1-0.1,0.3-0.1,0.5-0.2
			c0.2,0,0.4-0.1,0.6-0.1v-0.8c0-0.3,0.2-0.5,0.5-0.5c0.4,0,0.5,0.2,0.5,0.5V22c0.7,0.1,1.2,0.3,1.7,0.7c0.4,0.3,0.6,0.7,0.6,1.2
			c0,0.3-0.1,0.5-0.2,0.6c-0.2,0.2-0.4,0.2-0.6,0.2c-0.2,0-0.4-0.1-0.5-0.2C46.3,24.4,46.3,24.2,46.3,24z M43.5,24.1
			c0,0.3,0.1,0.5,0.2,0.6c0.2,0.1,0.4,0.3,0.8,0.4V23c-0.3,0-0.6,0.2-0.8,0.4C43.6,23.6,43.5,23.8,43.5,24.1z M46.9,27.7
			c0-0.3-0.1-0.6-0.3-0.8c-0.2-0.2-0.5-0.3-1-0.4V29c0.2,0,0.3-0.1,0.5-0.1c0.1-0.1,0.3-0.1,0.4-0.3C46.7,28.4,46.9,28.1,46.9,27.7z
			"/>
	</g>
</g>
</svg>
