<?xml version="1.0" encoding="utf-8"?>
<!-- Generator: Adobe Illustrator 24.0.1, SVG Export Plug-In . SVG Version: 6.00 Build 0)  -->
<svg version="1.1" id="Layer_1" xmlns="http://www.w3.org/2000/svg" xmlns:xlink="http://www.w3.org/1999/xlink" x="0px" y="0px"
	 viewBox="0 0 90 90" style="enable-background:new 0 0 90 90;" xml:space="preserve">
<style type="text/css">
	.st0{fill:#59558E;}
	.st1{fill:#C8C8FC;}
	.st2{fill:#8989CE;}
</style>
<circle class="st0" cx="45" cy="45" r="45"/>
<g>
	<g>
		<path class="st1" d="M66.7,60H62V49.6c0-0.5-0.4-0.9-0.9-0.9H45.9v-6.1c0-0.5-0.4-0.9-0.9-0.9l0,0c-0.5,0-0.9,0.4-0.9,0.9v6.1
			H28.9c-0.5,0-0.9,0.4-0.9,0.9V60h-4.7c-0.5,0-0.9,0.4-0.9,0.9v9.4c0,0.5,0.4,0.9,0.9,0.9h9.4c0.5,0,0.9-0.4,0.9-0.9v-9.4
			c0-0.5-0.4-0.9-0.9-0.9h-2.8v-9.4h14.2V60h-3.8c-0.5,0-0.9,0.4-0.9,0.9v9.4c0,0.5,0.4,0.9,0.9,0.9h9.4c0.5,0,0.9-0.4,0.9-0.9v-9.4
			c0-0.5-0.4-0.9-0.9-0.9h-3.8v-9.4h14.2V60h-2.8c-0.5,0-0.9,0.4-0.9,0.9v9.4c0,0.5,0.4,0.9,0.9,0.9h9.4c0.5,0,0.9-0.4,0.9-0.9v-9.4
			C67.7,60.4,67.2,60,66.7,60z"/>
	</g>
	<path class="st2" d="M47.3,28.6c1.7-0.8,2.9-2.6,2.9-4.7c0-2.9-2.3-5.2-5.2-5.2s-5.2,2.3-5.2,5.2c0,2.1,1.2,3.8,2.9,4.7
		c-3.2,1-5.6,4-5.6,7.5c0,0.5,0.4,0.9,0.9,0.9H52c0.5,0,0.9-0.4,0.9-0.9C52.8,32.6,50.5,29.6,47.3,28.6z"/>
</g>
</svg>
