<?xml version="1.0" encoding="UTF-8"?>
<svg width="120px" height="120px" viewBox="0 0 120 120" version="1.1" xmlns="http://www.w3.org/2000/svg" xmlns:xlink="http://www.w3.org/1999/xlink">
    <title>why_no_auth_oauth</title>
    <defs>
        <filter x="-16.0%" y="-13.9%" width="132.1%" height="127.9%" filterUnits="objectBoundingBox" id="filter-1">
            <feOffset dx="0" dy="1" in="SourceAlpha" result="shadowOffsetOuter1"></feOffset>
            <feGaussianBlur stdDeviation="1" in="shadowOffsetOuter1" result="shadowBlurOuter1"></feGaussianBlur>
            <feColorMatrix values="0 0 0 0 0   0 0 0 0 0   0 0 0 0 0  0 0 0 0.2 0" type="matrix" in="shadowBlurOuter1" result="shadowMatrixOuter1"></feColorMatrix>
            <feMerge>
                <feMergeNode in="shadowMatrixOuter1"></feMergeNode>
                <feMergeNode in="SourceGraphic"></feMergeNode>
            </feMerge>
        </filter>
    </defs>
    <g id="why_no_auth_oauth" stroke="none" stroke-width="1" fill="none" fill-rule="evenodd">
        <g id="Oval-2" fill="#334155">
            <circle id="Oval" cx="60" cy="60" r="60"></circle>
        </g>
        <g id="Group" filter="url(#filter-1)" transform="translate(30.000000, 25.000000)" fill-rule="nonzero">
            <path d="M50.8798874,68 C47.3548829,68 44.2614363,65.7919767 43.1818328,62.5054466 L39.2555898,50.6727062 L19.6144569,50.6727062 L15.9664739,62.39754 C14.865335,65.7479729 11.7483695,67.9907509 8.20522986,67.9907509 C7.35458167,67.9907509 6.50960067,67.857619 5.69380578,67.5958399 C1.45869978,66.3382366 -0.945614032,61.8294182 0.351893682,57.5507073 L16.9301829,5.60890618 C18.0066695,2.30471895 21.1757733,0 24.6375885,0 L33.4529335,0 C36.9343006,0 40.1031211,2.26548015 41.1586389,5.50940784 L58.5935269,57.4318698 C59.9876605,61.6769474 57.6791226,66.2339735 53.4502506,67.5955601 C52.6140537,67.8640651 51.7495208,68 50.8798874,68 L50.8798874,68 L50.8798874,68 Z" id="Path" stroke="#FFFFFF" stroke-width="5.94" stroke-linejoin="round"></path>
            <g id="question-mark-(2)" transform="translate(20.336170, 12.205128)" fill="#F58320">
                <ellipse id="Oval" cx="9.03828652" cy="27.9446257" rx="2.71146788" ry="2.69273695"></ellipse>
                <path d="M18.0639798,8.50198781 C17.8198874,3.82984985 13.9365231,0.0961606284 9.22332914,0.00179515797 C9.16150767,0.000598385989 9.10022849,0 9.03876856,0 C4.54146768,0 0.71022382,3.29225987 0.0870682463,7.72719763 C0.0292838531,8.13834864 0,8.55841561 0,8.97578984 C0,10.4629585 1.2139543,11.6685268 2.71146788,11.6685268 C4.20898146,11.6685268 5.42293576,10.4629585 5.42293576,8.97578984 C5.42293576,8.80662612 5.43468545,8.63704353 5.45800408,8.4715898 C5.71035135,6.67601296 7.2790259,5.35010929 9.11414736,5.38619196 C10.0192353,5.40432306 10.8832295,5.76556868 11.5471776,6.40350798 C12.2105232,7.0408489 12.6015771,7.88529121 12.6483951,8.7810152 C12.7005155,9.77852464 12.3494708,10.7251114 11.6598542,11.4464657 C10.9695144,12.1684783 10.0385169,12.5661058 9.03816601,12.5661058 C7.54065243,12.5661058 6.32669813,13.771674 6.32669813,15.2588427 L6.32669813,20.584478 C6.32669813,22.0716467 7.54065243,23.277215 9.03816601,23.277215 C10.5356796,23.277215 11.7496339,22.0716467 11.7496339,20.584478 L11.7496339,17.5346243 C13.2001487,17.0796116 14.5309371,16.2649689 15.5925069,15.1546039 C17.3162172,13.3516071 18.1939495,10.9889997 18.0639798,8.50198781 Z" id="Path"></path>
            </g>
        </g>
    </g>
</svg>