<?xml version="1.0" encoding="utf-8"?>
<!-- Generator: Adobe Illustrator 24.0.1, SVG Export Plug-In . SVG Version: 6.00 Build 0)  -->
<svg version="1.1" id="Layer_1" xmlns="http://www.w3.org/2000/svg" xmlns:xlink="http://www.w3.org/1999/xlink" x="0px" y="0px"
	 viewBox="0 0 90 90" style="enable-background:new 0 0 90 90;" xml:space="preserve" width="90" height="90">
<style type="text/css">
	.st0{fill:#59558E;}
	.st1{fill:#8989CE;}
	.st2{fill:#C8C8FC;}
	.st3{fill:none;}
</style>
<circle class="st0" cx="45" cy="45" r="45"/>
<polygon class="st1" points="35.7,118.2 35.5,118.3 35.7,118.3 "/>
<polygon class="st2" points="51.5,48.4 51.7,48.4 51.5,48.3 "/>
<g>
	<path class="st3" d="M26.3,53.4h37.3V31H26.3V53.4z M31.9,38.4c0-0.2,0-0.5,0.1-0.7l-0.8-0.5c-0.1,0-0.1-0.1-0.1-0.2
		c0-0.1,0-0.2,0-0.2l1.2-2.1c0.1-0.1,0.3-0.2,0.4-0.1l0.8,0.5c0.4-0.3,0.8-0.5,1.2-0.7v-0.9c0-0.2,0.1-0.3,0.3-0.3h2.5
		c0.2,0,0.3,0.1,0.3,0.3v0.9c0.2,0.1,0.3,0.1,0.4,0.2h1.9c0.2,0,0.4,0.1,0.5,0.3l0.3,0.6c0.1,0.2,0.3,0.3,0.5,0.3h7.3
		c0.3,0,0.5,0.2,0.5,0.5v1.2H36.6v-0.9v-0.3c-0.1,0-0.2-0.1-0.4-0.1c-1.2,0-2.2,1-2.2,2.2s1,2.2,2.2,2.2l0,0v-1
		c0-0.6,0.5-1.2,1.2-1.2h7.4h7.8c0.6,0,1.2,0.5,1.2,1.2v10.1v0.1h-8.9h-8.5v-0.1v-6h-1.2c-0.2,0-0.3-0.1-0.3-0.3v-0.9
		c-0.4-0.2-0.8-0.4-1.2-0.7l-0.8,0.5c-0.1,0.1-0.3,0-0.4-0.1L31.1,40c-0.1-0.1,0-0.3,0.1-0.4l0.8-0.5C31.9,38.9,31.9,38.6,31.9,38.4
		z"/>
	<path class="st2" d="M31.1,40l1.2,2.1c0.1,0.1,0.3,0.2,0.4,0.1l0.8-0.5c0.4,0.3,0.8,0.5,1.2,0.7v0.9c0,0.2,0.1,0.3,0.3,0.3h1.2
		v-3.1l0,0c-1.2,0-2.2-1-2.2-2.2s1-2.2,2.2-2.2c0.1,0,0.2,0,0.4,0.1v-0.5V35c0-0.3,0.2-0.5,0.5-0.5h1.1c-0.1-0.1-0.3-0.1-0.4-0.2
		v-0.9c0-0.2-0.1-0.3-0.3-0.3H35c-0.2,0-0.3,0.1-0.3,0.3v0.9c-0.4,0.2-0.8,0.4-1.2,0.7l-0.8-0.5c-0.1-0.1-0.3,0-0.4,0.1l-1.2,2.1
		c0,0.1-0.1,0.2,0,0.2c0,0.1,0.1,0.1,0.1,0.2l0.8,0.5c0,0.2-0.1,0.5-0.1,0.7s0,0.5,0.1,0.7l-0.8,0.5C31,39.6,31,39.8,31.1,40z"/>
	<path class="st1" d="M64.6,27.3H25.4c-1.5,0-2.8,1.3-2.8,2.8v24.2c0,1.5,1.3,2.8,2.8,2.8h15.9v3.7h-5.6c-0.5,0-0.9,0.4-0.9,0.9
		s0.4,0.9,0.9,0.9h18.7c0.5,0,0.9-0.4,0.9-0.9s-0.4-0.9-0.9-0.9h-5.6v-3.7h15.9c1.5,0,2.8-1.3,2.8-2.8V30.1
		C67.4,28.5,66.1,27.3,64.6,27.3z M63.7,53.4H26.3V31h37.3v22.4H63.7z"/>
	<path class="st1" d="M36.6,35.1v0.7v0.5v0.3v0.9h12.6v-1.2c0-0.3-0.2-0.5-0.5-0.5h-7.3c-0.2,0-0.4-0.1-0.5-0.3l-0.3-0.6
		c-0.1-0.2-0.3-0.3-0.5-0.3h-1.9h-1.1C36.9,34.6,36.6,34.8,36.6,35.1z"/>
	<path class="st1" d="M36.3,49.7L36.3,49.7l8.5,0.1h8.9v-0.1V39.6c0-0.6-0.5-1.2-1.2-1.2h-7.8h-7.4c-0.6,0-1.2,0.5-1.2,1.2v1v3.1v6
		H36.3z M47.4,45.2l2.2-1.1L47.4,43v-0.7l2.9,1.4v0.6l-2.9,1.4V45.2z M45.9,41.6h0.6l-2.4,5h-0.6L45.9,41.6z M39.7,43.8l2.9-1.4v0.7
		l-2.2,1.1l2.2,1.1V46l-2.9-1.4V43.8z"/>
	<polygon class="st2" points="46.5,41.6 45.9,41.6 43.5,46.6 44.1,46.6 	"/>
	<polygon class="st2" points="42.6,45.2 40.4,44.1 42.6,43.1 42.6,42.4 39.7,43.8 39.7,44.4 42.6,45.9 	"/>
	<polygon class="st2" points="50.3,43.8 47.4,42.4 47.4,43.1 49.6,44.1 47.4,45.2 47.4,45.9 50.3,44.4 	"/>
</g>
</svg>
