<svg xmlns="http://www.w3.org/2000/svg" width="90" height="90" fill-rule="evenodd"><circle fill="#147894" cx="45" cy="45" r="45"/><path d="M42.174 33.17c2.913-.584 2.913.583 2.913.583 1.166 1.165 3.496 0 4.662 0 0 0 .583-4.08-.584-3.496s-2.208.13-2.33-1.167c-.17-1.82 5.17-3.182 5.17-3.182s1.925.367 3.298 1.465c.916.733 2.697 2.592 2.697 2.592s-.676 3.205-3.008 4.37c-2.33-.583-4.66 1.165-4.08 1.165s1.165 2.33 1.165 2.33c.584.583 1.75 0 1.75 0 1.456 1.456-2.332 4.08-2.332 4.66s1.458.875.583 1.75-1.748 1.165-1.748 1.165c0 2.914-2.914 2.914-3.496 2.914s-1.748-2.332-1.748-2.914.583-1.165.583-1.748-1.166-1.75-1.166-1.75c0-2.33-1.748-1.747-3.497-1.747S39.26 37.83 39.26 37.83s0-4.08 2.914-4.66M44.99 51.35h4.687c1.12 0 2.01.39 2.66.996 5.738-1.84 9.905-7.22 9.905-13.56A14.26 14.26 0 0 0 48 24.545a14.26 14.26 0 0 0-14.24 14.24c0 3.515 1.286 6.73 3.404 9.216 3.78.02 6.586 2.18 7.825 3.35" fill="#13ebf2"/><path d="M31.246 48h-5.864a.84.84 0 0 0-.837.838V62.24a.84.84 0 0 0 .837.838h5.864a.84.84 0 0 0 .838-.838V48.838a.84.84 0 0 0-.838-.838m33.262 6.947c-1.97-1.967-3.662-2.512-5.882-1.88l-5.04 1.672c.045.264.068.53.068.8 0 1.073-.347 2.082-.98 2.84-.736.882-1.773 1.348-3 1.348H40.46a.84.84 0 0 1-.838-.838.84.84 0 0 1 .838-.838h9.214c.724 0 1.3-.25 1.712-.745.376-.45.592-1.095.592-1.767 0-.934-.485-2.513-2.304-2.513H44.65a.84.84 0 0 1-.592-.245c-.934-.934-3.48-3.106-6.946-3.106h-3.35a.84.84 0 0 0-.837.838v9.214c0 .36.23.68.572.794l6.422 2.252c3.358 1.22 5.245 1.88 6.937 1.88 2.03 0 3.783-.95 7.46-3.027 2.293-1.294 5.432-3.067 9.977-5.34a.84.84 0 0 0 .218-1.342" fill="#02b6d3"/></svg>