<svg xmlns="http://www.w3.org/2000/svg" viewBox="0 0 90 90" width="90" height="90"><circle cx="45" cy="45" r="45" fill-rule="evenodd" fill="#007996"/><path d="M28.8 27.7c-.7-.6.7.7 0 0h0z"/><path d="M70.5 49.8l-3.4-1.2c-1-.4-2-.8-2.9-1.4-1.1-.7-2.3-1-3.6-.8-.5.1-.6-.2-.7-.6 0-.3 0-.7-.2-.8l-3.2-1.8.3 2.7c0 .4 0 .5-.5.5H47c-.4 0-.6-.1-.6-.5v-7.6c0-.4.1-.6.5-.6 2.4-.1 4.6-.6 6.8-1.5.3-.1.5-.1.6.3l1.2 3.1c.4 1.1.6 2.2.9 3.4l2.5-1.4c.1-.1.2-.4.1-.6l-1.9-5.6c-.2-.5-.1-.6.3-.9l3.3-2.2c.4-.3.7-.3 1 .1 1.4 1.6 2.6 3.3 3.5 5.1.2.4.4.5.8.3.6-.3 1.2-.6 1.9-.8.4-.1.4-.3.2-.7l-1.2-2.2c-1.6-2.5-3.4-4.7-5.7-6.6-.2-.2-.4-.5-.8-.1-.6.6-1.2 1.1-1.9 1.7 0 0 0 .1-.1.2.1.2.2.3.4.5l-5.6 3.4c0-.2-.1-.4-.1-.5l-.5-4c-.1-.5-.3-.9-.6-1.3-.4-.6-1-1.1-1.4-1.6 0 0 0-.1.1-.1.5.1 1 .3 1.5.4v-2.7c0-.4-.2-.6-.6-.7-1.7-.3-3.3-.7-5-.8-3.3-.4-6.6.1-9.8 1.1-.2.1-.4.2-.5.3l-.2 3.2 2.5-.8c-.7 1-1.5 1.9-2.3 2.8-.3.4-.5.9-.6 1.4-.2.8-.2 1.5-.3 2.3 0 .4-.1.8-.2 1.2l-2.5-1.9-2.2-1.6c-.7-.6-1.4-1.3-2.1-2 .7.7-.7-.6 0 0-.3-.3-.6-.3-.9 0-1.8 1.5-3.4 3.3-4.7 5.2-.9 1.3-1.6 2.7-2.5 4.2l2.1 1c.8.4.8.4 1.2-.4 1-2.1 2.3-4 3.9-5.7.3-.3.5-.3.8-.1l2.6 1.8c.4.3.8.5 1.3.8-.1.2-.1.3-.2.5l-1.8 5.3c-.1.2-.1.4-.2.5-.2.8-.2 1.5.9 1.9 0 0 0 .1-.1.1.3 0 .2.1.2.1-.8.3-1.2.9-1.2 1.7 0 .3-.1.6-.1.9 0 .4-.2.5-.5.5H26c-.3 0-.7.1-1 .2l-5.9 2.8c-.3.2-.5.4-.4.7l.4 2.7c1.4 7.3 5.3 13 11.4 17.2 3.1 2.1 6.5 3.3 10.1 3.9 2.9.5 5.7.4 8.6 0 4.1-.6 7.9-2.2 11.3-4.6 1.6-1.1 2.8-2.6 4.1-4 3.7-4.1 5.7-9 6.3-14.5.1-.4 0-.7-.4-.8zM46.4 26.5s0-.1.1-.1c1.2.3 5.3 5.1 6.1 7-1.4.3-2.7.7-4 .9-.6.1-1.2.2-1.8.2-.1 0-.4-.2-.4-.3v-7.7zm-3.2-.3c0 .3.1.5.1.6v7c0 .6-.2.7-.7.6a25.71 25.71 0 0 1-5.5-1.2c1.6-2.6 3.6-4.9 6.1-7zm-14 38.9c-.9-1.1-2-2.2-2.9-3.3-2.5-3.3-3.9-7-4.4-11.1v-.1c-.1-1.1-.1-1.1.9-1.1h6.3c.5 0 .7.1.8.7.2 4 1.3 7.9 3.1 11.5.4.8.6.7-.4 1.3-1.2.6-2.2 1.3-3.4 2.1zm2.9 1.8l2.7-1.6 3.8 4.7c-2.4-.6-4.4-1.7-6.5-3.1zM43.3 69c0 .2 0 .4-.1.7-2.1-1.7-3.8-3.5-5.3-5.8 1.4-.3 2.6-.6 3.8-.8 1.6-.3 1.6-.3 1.6 1.4V69zm0-9.8c0 .4-.1.6-.5.6-2 .4-4 .8-6 1.3-.4.1-.7 0-.9-.4-1.6-3.3-2.6-6.8-2.9-10.5 0-.5.1-.7.6-.7h9c.5 0 .7.2.6.6l.1 9.1zm-.6-12.9h-9c-.5 0-.7-.1-.7-.7.3-3.2 1.1-6.3 2.4-9.3.2-.4.4-.3.7-.2 2.2.8 4.4 1.2 6.7 1.4.5 0 .5.3.5.6v7.5c0 .6-.2.8-.6.7zm3.7 3.8c0-.5.3-.6.7-.6h9.2c.4 0 .6.1.6.6-.3 3.6-1.2 7.1-2.8 10.4-.2.5-.5.6-1 .5-2-.6-4-1-6.1-1.1-.4 0-.5-.2-.5-.6-.1-3.1-.1-6.2-.1-9.2zm.2 19.7c-.1 0-.1-.1-.2-.1v-6.2c0-.3 0-.6.4-.6l4.9.9c.1 0 .1.1.2.1-1.5 2.3-3.2 4.2-5.3 5.9zm4.4.2c.1-.1.2-.3.3-.4l3.3-4.1c.3-.3.4-.5.9-.2.8.5 1.7 1 2.6 1.5-2.2 1.6-4.5 2.6-7.1 3.2zm16.8-19.7c-.4 3.6-1.5 7.1-3.6 10.1-.9 1.4-2.1 2.6-3.1 3.9-.3.3-.5.4-.9.1l-3-1.8-.6-.3c.5-1.3 1.1-2.6 1.6-3.9.9-2.6 1.5-5.3 1.6-8 0-.7.3-.9.9-.9H67c.9 0 .9 0 .8.8z" fill="#00eef4"/><path d="M30.4 40.9c-.2.8-.2 1.5.9 1.9 0 0 0 .1-.1.1 0 0 0-.1.1-.1-1.1-.4-1.1-1.1-.9-1.9zm.5-11.1c.7.6 1.5 1 2.2 1.6-.7-.5-3.6-3-4.3-3.6.7.6 1.3 1.3 2.1 2z"/><path d="M27.6 43c-.6-.3-1-.6-1.5-.8-3.1-1.7-6.2-3.3-9.6-4.5-1-.3-2-.6-3-.6-2.9.1-5 2.2-5.5 5-.5 3.2 1.9 6.3 5.1 6.6 1.5.1 2.9-.4 4.2-.9 1.4-.5 4.1-2 5.5-2.5 1.6-.7 3.1-1.4 4.8-2.3zm-14.2 2.5c-1.4 0-2.5-1.1-2.5-2.5s1.1-2.5 2.6-2.5c1.4 0 2.5 1.1 2.5 2.5s-1.1 2.5-2.6 2.5zm60-8.3c-1 .2-2.1.5-3 .9l-9.1 4.4c-.3.1-.5.3-.8.5l1.8 1c3.2 1.8 6.5 3.4 10 4.5 4.1 1.3 8-1.8 7.6-6.1-.2-3.2-3.3-5.7-6.5-5.2zm1.1 8.3c-1.4 0-2.5-1.1-2.5-2.5s1.1-2.5 2.5-2.5 2.6 1.1 2.6 2.5-1.2 2.5-2.6 2.5zM32.1 28.1l2 1.6c.1-.4.1-.5.1-.7l.4-5-.1-5.3c-.2-2-1.5-3.2-3.4-3.7-1.8-.5-3.5.1-4.7 1.5-1.3 1.6-1.8 4.1.1 6.1 1.7 1.9 3.7 3.7 5.6 5.5zm-2.3-10.8c1.1 0 2 1 2 2.1 0 1-.9 1.9-2 2-1.1 0-2.1-.9-2.1-2 .1-1.2 1-2.1 2.1-2.1zm25.1 12.4c.3-.2.4-.3.6-.4l2.8-2.4 4.6-4.7c1.2-1.4 1.2-3.5.2-5.1-1.1-1.7-3.1-2.5-4.9-2.1-2.1.5-3.6 2.1-3.7 4.3-.1 2.8.1 5.5.2 8.3 0 .6.1 1.3.2 2.1zm4.3-12.4a1.94 1.94 0 0 1 2 2c0 1.1-1 2.1-2.1 2.1s-1.9-.9-1.9-2.1c0-1.1.9-2 2-2zm-14.9 3.3c.1.3.3.6.5 1 .1-.2.2-.3.3-.3l4-7.9c.6-1.3 1-2.6.5-4.1-.8-2.4-3.4-3.8-5.9-3-2.4.7-3.7 3.3-3 5.7.7 2.9 2.2 5.7 3.6 8.6zM45 8.3c1.1 0 2 .9 2 2s-.9 2-2 2-2-1-2-2c0-1.1.9-2 2-2zm26.7 20.2c1.9-.6 2.8-2.8 1.9-4.6-1.1-2.3-4.2-2.7-5.7-.7-1.4 1.9-2.6 4.1-3.8 6.1 0 .1 0 .2-.1.2.1 0 .1.1.2.1 2.6-.1 5.1-.3 7.5-1.1zm-1-4.7c.8 0 1.4.7 1.4 1.4a1.54 1.54 0 0 1-1.5 1.5c-.8 0-1.4-.6-1.4-1.4a1.54 1.54 0 0 1 1.5-1.5zM18 28.6l6.7 1.1h.6l-.3-.6-1.4-2.5-2.2-3.3c-.9-1.2-2.3-1.6-3.6-1.2-1.5.5-2.5 1.8-2.4 3.4 0 1.5 1 2.8 2.6 3.1zm.6-4.9c.8 0 1.4.7 1.4 1.5s-.8 1.5-1.5 1.4c-.8 0-1.4-.7-1.4-1.5 0-.7.7-1.4 1.5-1.4z" fill="#01b4d1"/></svg>