<svg xmlns="http://www.w3.org/2000/svg" viewBox="0 0 90 90" fill-rule="evenodd" width="90" height="90"><circle cx="45" cy="45" r="45" fill="#59548e"/><path d="M42.2 33.2c2.9-.6 2.9.6 2.9.6 1.2 1.2 3.5 0 4.7 0 0 0 .6-4.1-.6-3.5s-2.2.1-2.3-1.2c-.2-1.8 5.2-3.2 5.2-3.2s1.9.4 3.3 1.5c.8.7 2.6 2.6 2.6 2.6s-.7 3.2-3 4.4c-2.3-.6-4.7 1.2-4.1 1.2s1.2 2.3 1.2 2.3c.6.6 1.8 0 1.8 0 1.5 1.5-2.3 4.1-2.3 4.7s1.5.9.6 1.8-1.7 1.2-1.7 1.2c0 2.9-2.9 2.9-3.5 2.9s-1.7-2.3-1.7-2.9.6-1.2.6-1.7-1.2-1.8-1.2-1.8c0-2.3-1.7-1.7-3.5-1.7s-1.7-2.3-1.7-2.3-.2-4.3 2.7-4.9M45 51.3h4.7c1.1 0 2 .4 2.7 1 5.7-1.8 9.9-7.2 9.9-13.6 0-7.9-6.4-14.2-14.2-14.2-7.9 0-14.2 6.4-14.2 14.2 0 3.5 1.3 6.7 3.4 9.2 3.6.1 6.5 2.3 7.7 3.4" fill="#c8c8fc"/><path d="M31.2 48h-5.9c-.5 0-.8.4-.8.8v13.4c0 .5.4.8.8.8h5.9c.5 0 .8-.4.8-.8V48.8c.1-.4-.3-.8-.8-.8m33.3 6.9c-2-2-3.7-2.5-5.9-1.9l-5 1.7c0 .3.1.5.1.8 0 1.1-.3 2.1-1 2.8-.7.9-1.8 1.3-3 1.3h-9.2c-.5 0-.8-.4-.8-.8 0-.5.4-.8.8-.8h9.2c.7 0 1.3-.2 1.7-.7s.6-1.1.6-1.8c0-.9-.5-2.5-2.3-2.5h-5c-.2 0-.4-.1-.6-.2-.9-.9-3.5-3.1-6.9-3.1h-3.3c-.5 0-.8.4-.8.8v9.2c0 .4.2.7.6.8l6.4 2.3c3.4 1.2 5.2 1.9 6.9 1.9 2 0 3.8-1 7.5-3 2.3-1.3 5.4-3.1 10-5.3.4-.2.6-.7.4-1.1-.3-.2-.3-.3-.4-.4" fill="#8989ce"/></svg>