<svg xmlns="http://www.w3.org/2000/svg" viewBox="0 0 90 90"><circle cx="45" cy="45" r="45" fill="#59558e"/><path d="M62.53 46.7h-32.3v-.92a4.62 4.62 0 0 1 4.61-4.62h24.9a7.38 7.38 0 1 0 0-14.76h-12a1.84 1.84 0 0 1-1.85-1.84v-.92a.92.92 0 0 0-1.84 0v.92a3.69 3.69 0 0 0 3.69 3.69h12a5.54 5.54 0 0 1 0 11.07h-24.9a6.46 6.46 0 0 0-6.45 6.46v.92h-.93a4.62 4.62 0 0 0-4.61 4.61V62.4A4.62 4.62 0 0 0 27.47 67h35.06a4.62 4.62 0 0 0 4.61-4.61V51.32a4.62 4.62 0 0 0-4.61-4.61z" fill="#c8c8fc"/><rect x="21.94" y="46.44" width="46.12" height="20.84" rx="5.65" fill="#8989ce"/><path d="M52.38 50.4h1.84v1.84h-1.84zm0 3.7h1.84v1.84h-1.84zm0 3.68h1.84v1.84h-1.84zm-5.54-7.38h1.84v1.84h-1.84zm0 3.7h1.84v1.84h-1.84zm0 3.68h1.84v1.84h-1.84zM41.3 50.4h1.84v1.84H41.3zm0 3.7h1.84v1.84H41.3zm0 3.68h1.84v1.84H41.3zm-5.52-7.38h1.84v1.84h-1.84zm0 3.7h1.84v1.84h-1.84zm0 3.68h1.84v1.84h-1.84zm-5.54-7.38h1.84v1.84h-1.84zm0 3.7h1.84v1.84h-1.84zm0 3.68h1.84v1.84h-1.84zm1.86 3.7h25.83v1.84H32.1zm25.8-3.7h1.84v1.84H57.9zm0-3.68h1.84v1.84H57.9zm0-3.7h1.84v1.84H57.9z" fill="#59558e"/></svg>