<?xml version="1.0" encoding="utf-8"?>
<!-- Generator: Adobe Illustrator 24.3.0, SVG Export Plug-In . SVG Version: 6.00 Build 0)  -->
<svg version="1.1" id="Layer_1" xmlns="http://www.w3.org/2000/svg" xmlns:xlink="http://www.w3.org/1999/xlink" x="0px" y="0px"
	 viewBox="0 0 90 90" style="enable-background:new 0 0 90 90;" xml:space="preserve">
<style type="text/css">
	.st0{fill:#FDD337;}
	.st1{fill:#C92F13;}
	.st2{fill:#F9902C;}
</style>
<g>
	<g>
		<path class="st0" d="M68.6,25.6c-0.6-0.6-1.4-1-2.2-1c-12-0.4-18.6-4.9-19.4-5.4c-0.3-0.3-0.7-0.5-1.1-0.7c-0.3-0.1-0.7-0.2-1-0.2
			c-0.8,0-1.5,0.3-2.1,0.8c-0.8,0.5-7.4,5-19.4,5.4c-0.8,0-1.6,0.4-2.2,1c-0.6,0.6-0.8,1.4-0.8,2.3c0.6,9.7,2.4,17.7,5.3,24.4
			c3.9,8.9,9.8,15.3,17.8,19.2c0.4,0.2,0.9,0.3,1.4,0.3c0,0,0,0,0,0c0.5,0,0.9-0.1,1.3-0.3c7.9-3.8,13.9-10.3,17.8-19.2
			c2.9-6.7,4.7-14.7,5.3-24.4C69.5,27,69.2,26.2,68.6,25.6C68.6,25.6,68.6,25.6,68.6,25.6z"/>
		<path class="st1" d="M45,0C20.1,0,0,20.1,0,45s20.1,45,45,45s45-20.1,45-45S69.9,0,45,0z M64.1,52.2c-3.9,8.9-9.9,15.3-17.8,19.2
			c-0.4,0.2-0.9,0.3-1.3,0.3c0,0,0,0,0,0c-0.5,0-1-0.1-1.4-0.3c-7.9-3.8-13.9-10.3-17.8-19.2c-2.9-6.7-4.7-14.7-5.3-24.4
			c-0.1-0.8,0.2-1.7,0.8-2.3c0.6-0.6,1.4-1,2.2-1c12-0.4,18.6-4.9,19.4-5.4c0.6-0.5,1.3-0.8,2.1-0.8c0.3,0,0.7,0.1,1,0.2
			c0.4,0.1,0.8,0.4,1.1,0.7c0.7,0.5,7.4,5,19.4,5.4c0.8,0,1.6,0.4,2.2,1c0,0,0,0,0,0c0.6,0.6,0.8,1.4,0.8,2.3
			C68.8,37.5,67.1,45.5,64.1,52.2z"/>
	</g>
	<path class="st2" d="M68.6,25.6c-0.6-0.6-1.4-1-2.2-1c-12-0.4-18.6-4.9-19.4-5.4c-0.3-0.3-0.7-0.5-1.1-0.7c-0.3-0.1-0.7-0.2-1-0.2
		v1.9c0.1,0,0.3,0,0.4,0.1c0.2,0.1,0.3,0.2,0.5,0.3c0.3,0.2,7.4,5.4,20.5,5.9c0.3,0,0.6,0.2,0.8,0.4c0.2,0.2,0.3,0.6,0.3,0.9
		c-0.6,9.5-2.3,17.3-5.1,23.8c-3.7,8.5-9.4,14.6-16.9,18.2c-0.2,0.1-0.3,0.1-0.5,0.1c0,0,0,0,0,0v1.9c0,0,0,0,0,0
		c0.5,0,0.9-0.1,1.3-0.3c7.9-3.8,13.9-10.3,17.8-19.2c2.9-6.7,4.7-14.7,5.3-24.4C69.5,27,69.2,26.2,68.6,25.6
		C68.6,25.6,68.6,25.6,68.6,25.6z"/>
	<path class="st2" d="M44.5,69.7C37,66,31.3,59.9,27.6,51.5c-2.8-6.5-4.5-14.3-5.1-23.8c0-0.3,0.1-0.6,0.3-0.9
		c0.2-0.2,0.5-0.4,0.8-0.4c13.2-0.4,20.3-5.7,20.5-5.9c0.2-0.2,0.5-0.4,0.9-0.4v-1.9c-0.8,0-1.5,0.3-2.1,0.8
		c-0.8,0.5-7.4,5-19.4,5.4c-0.8,0-1.6,0.4-2.2,1c-0.6,0.6-0.8,1.4-0.8,2.3c0.6,9.7,2.4,17.7,5.3,24.4c3.9,8.9,9.8,15.3,17.8,19.2
		c0.4,0.2,0.9,0.3,1.4,0.3v-1.9C44.8,69.8,44.6,69.8,44.5,69.7z"/>
	<path class="st2" d="M45,22.5L45,22.5c0.4,0.5,7.7,5.5,20.3,5.9c-1,14.6-5.1,31.6-20.3,39v0c0,0,0,0,0,0v2.3c0,0,0,0,0,0
		c0.2,0,0.4,0,0.5-0.1c7.5-3.6,13.2-9.8,16.9-18.2c2.8-6.5,4.5-14.3,5.1-23.8c0-0.3-0.1-0.6-0.3-0.9c-0.2-0.2-0.5-0.4-0.8-0.4
		c-13.2-0.4-20.2-5.6-20.5-5.9c-0.1-0.1-0.3-0.2-0.5-0.3c-0.1,0-0.3-0.1-0.4-0.1L45,22.5C45,22.5,45,22.5,45,22.5z"/>
	<path class="st2" d="M23.6,26.4c-0.3,0-0.6,0.2-0.8,0.4c-0.2,0.2-0.3,0.6-0.3,0.9c0.6,9.5,2.3,17.3,5.1,23.8
		C31.3,59.9,37,66,44.5,69.7c0.2,0.1,0.4,0.1,0.5,0.1v-2.3c-15.2-7.4-19.4-24.3-20.3-39C37.2,28.1,44.6,23,45,22.5v-2.3
		c-0.3,0-0.6,0.1-0.9,0.4C43.9,20.8,36.8,26,23.6,26.4z"/>
</g>
<g>
	<path class="st1" d="M45.6,39.6c-2.3-0.2-4.5,1-5.5,3.1c-0.1,0.2-0.2,0.4-0.2,0.6c0,0.2,0,0.3,0.2,0.4c0.2,0.1,0.3,0,0.4-0.2
		c0,0,0-0.1,0-0.1l0,0c0.7-2,2.5-3.3,4.6-3.3c0.2,0,0.5,0,0.7,0.1c2.4,0.4,4.1,2.4,4.1,4.8c0,3.1-0.2,6.1-0.7,9.1
		c0,0.2,0.1,0.4,0.2,0.4c0,0,0,0,0.1,0c0.1,0,0.1,0,0.2,0c0.1,0,0.1-0.1,0.1-0.2c0.1-0.9,0.3-1.8,0.4-2.7c0.2-1.5,0.3-3,0.3-4.6
		v-0.4c0-0.3,0-0.6,0-0.9l0,0c0-0.5,0-1-0.1-1.5C49.9,41.7,47.9,39.9,45.6,39.6z"/>
	<path class="st1" d="M52.2,43.2c0.1,0.2,0.1,0.5,0.2,0.8c0,0.2,0.1,0.3,0.3,0.3c0,0,0,0,0,0c0.2,0,0.3-0.2,0.2-0.3c0,0,0,0,0-0.1
		l0,0C52.3,40,48.9,37,45,37c-0.6,0-1.1,0.1-1.7,0.2c-1.7,0.4-3.2,1.3-4.3,2.6c-1.1,1.3-1.8,3-1.9,4.6c0,0.2,0,0.4,0.3,0.4
		c0,0,0,0,0,0c0.1,0,0.1,0,0.2-0.1c0.1-0.1,0.1-0.2,0.1-0.3c0.2-3.2,2.5-5.9,5.7-6.7C47.2,36.9,51.2,39.3,52.2,43.2z"/>
	<path class="st1" d="M46.6,46.1c0-0.4,0-0.8,0-1.1c0-0.7-0.5-1.4-1.2-1.5c-0.7-0.2-1.4,0.1-1.8,0.8c-0.2,0.3-0.2,0.6-0.2,0.9
		c0,1.3-0.1,2.5-0.2,3.7c-0.1,0.6-0.1,1.1-0.2,1.6c0,0.1,0,0.3,0.1,0.4c0.1,0,0.2,0.1,0.3,0c0.1,0,0.2-0.1,0.2-0.3
		c0.3-1.7,0.4-3.5,0.4-5.5c0-0.1,0-0.2,0-0.3c0.1-0.5,0.6-0.8,1.1-0.8c0.5,0,0.9,0.5,0.9,1c0,0.6,0,1.3,0,1.9
		c-0.1,2.6-0.4,5.1-1,7.4c0,0.1-0.1,0.3-0.1,0.4c0,0.1-0.1,0.3-0.1,0.4c0,0.2,0,0.3,0.2,0.4c0,0,0.1,0,0.1,0c0.1,0,0.2-0.1,0.3-0.2
		c0,0,0-0.1,0-0.1l0,0c0.6-2.7,1-5.4,1.2-8.5L46.6,46.1z"/>
	<path class="st1" d="M47.9,36.2c-0.5-0.2-1.1-0.3-1.8-0.4c-0.2,0-0.3,0.1-0.4,0.2c0,0.2,0.1,0.3,0.3,0.3c0,0,0,0,0,0l0,0
		c1.4,0.2,2.7,0.7,3.8,1.4c2.4,1.7,3.7,4,3.8,6.9c0.1,1.6,0,3.2-0.1,5c0,0.1,0,0.1,0,0.2c0,0.1,0,0.3,0,0.4c0,0.2,0.1,0.3,0.3,0.3
		c0,0,0,0,0,0c0.1,0,0.3-0.1,0.3-0.2c0,0,0-0.1,0-0.1l0,0c0-0.6,0.1-1.3,0.1-1.9c0-0.3,0-0.6,0.1-1v0c0-0.2,0-0.3,0-0.5
		c0-0.3,0-0.7,0-1l0,0c0-0.8,0-1.5-0.1-2.3C53.4,39.9,51.3,37.5,47.9,36.2z"/>
	<path class="st1" d="M35.7,40.7c0,0,0.1,0,0.1,0c0.1,0,0.2-0.1,0.3-0.2c0,0,0-0.1,0.1-0.1c0.1-0.1,0.1-0.2,0.2-0.3
		c1.7-2.9,4.2-4.5,7.5-4.9c2.3-0.3,4.5,0.2,6.5,1.5c0.1,0.1,0.2,0.1,0.3,0.2c0.1,0.1,0.1,0.1,0.2,0.1c0.1,0.1,0.3,0.1,0.4-0.1
		c0.1-0.1,0.1-0.3-0.1-0.4c0,0-0.1-0.1-0.1-0.1l0,0c-1.8-1.3-3.8-1.9-6.1-1.9h0c-2.3,0-4.4,0.8-6.3,2.2c-1.3,1-2.3,2.2-3,3.6
		c-0.1,0.1-0.1,0.2,0,0.3C35.6,40.6,35.6,40.7,35.7,40.7z"/>
	<path class="st1" d="M35.9,47c0.2-0.5,0.4-1,0.4-1.6c0-0.2,0-0.3,0-0.5c0-0.4,0-0.8,0.1-1.3c0.5-3.3,2.9-6.1,6.1-7
		c0.7-0.2,1.4-0.3,2.1-0.4c0.2,0,0.3-0.1,0.3-0.3c0-0.1,0-0.2-0.1-0.2c-0.1-0.1-0.1-0.1-0.2-0.1c0,0,0,0,0,0c-0.4,0-0.7,0-1.1,0.1
		c-2.8,0.5-4.9,2-6.4,4.4c-0.9,1.4-1.3,3-1.3,4.8c0,0.6-0.1,1.2-0.4,1.7c-0.1,0.2-0.2,0.4-0.4,0.5c-0.1,0.1-0.2,0.1-0.2,0.2
		c0,0.1,0,0.1,0,0.2c0.1,0.1,0.1,0.1,0.2,0.1c0.1,0,0.1,0,0.2-0.1C35.5,47.5,35.7,47.3,35.9,47z"/>
	<path class="st1" d="M46,41c-0.4-0.1-0.8-0.1-1.1-0.1c-0.2,0-0.3,0.1-0.3,0.3c0,0.2,0.1,0.3,0.3,0.3c0,0,0.1,0,0.1,0l0,0
		c2,0,3.5,1.6,3.5,3.5c0,1.2,0,2.3-0.1,3.6c-0.1,1.3-0.2,2.7-0.4,4c-0.1,0.7-0.2,1.4-0.4,2.2c0,0.1,0,0.2,0.1,0.3
		c0.1,0,0.1,0.1,0.2,0.1c0,0,0,0,0.1,0c0.1,0,0.2-0.1,0.2-0.3c0-0.2,0.1-0.4,0.1-0.6c0.1-0.3,0.1-0.7,0.2-1.1
		c0.3-1.9,0.5-3.9,0.6-6.2V45C49.1,43.1,47.9,41.5,46,41z"/>
	<path class="st1" d="M41.5,45c0-1.5,0.8-2.6,2.2-3.3l0,0c0,0,0.1,0,0.1,0c0.1-0.1,0.2-0.2,0.1-0.3c-0.1-0.1-0.2-0.2-0.3-0.2
		c-0.1,0-0.1,0-0.2,0.1c-1.6,0.7-2.5,2-2.5,3.7c0,0.2,0,0.3,0,0.5c0,0.8-0.1,1.7-0.2,2.5c-0.2,1.7-0.5,3.2-1,4.5
		c-0.1,0.3-0.3,0.6-0.4,1c0,0.1,0,0.2,0,0.3c0.1,0.1,0.1,0.1,0.2,0.1c0,0,0,0,0,0c0.2,0,0.2-0.1,0.3-0.2c0.5-1,0.8-2.2,1.1-3.4
		C41.2,48.7,41.4,47,41.5,45z"/>
	<path class="st1" d="M47.2,46.9c0,0.4,0,0.8-0.1,1.1c0,0.2,0.1,0.3,0.2,0.3c0,0,0.1,0,0.1,0c0.1,0,0.1,0,0.1,0
		c0.1-0.1,0.1-0.2,0.1-0.3l0-0.4c0-0.5,0-1,0.1-1.4c0-0.1,0-0.2,0-0.4c0-0.4,0-0.8,0-1.2c-0.2-1.4-1.4-2.4-2.8-2.4c0,0-0.1,0-0.1,0
		c-1.4,0-2.6,1.2-2.7,2.6c0,0.3,0,0.5,0,0.8c0,0.1,0,0.2,0,0.4c0,0.1,0,0.4,0.3,0.4c0.1,0,0.1,0,0.2-0.1c0.1-0.1,0.1-0.2,0.1-0.3
		c0-0.1,0-0.3,0-0.4c0-0.3,0-0.5,0-0.8c0.2-1.1,1.1-1.9,2.2-1.9c0.1,0,0.1,0,0.2,0c1.2,0.1,2.1,1.1,2.1,2.3c0,0.5,0,0.9,0,1.4h0
		L47.2,46.9z"/>
	<path class="st1" d="M51.3,42.6c-0.2-0.4-0.4-0.8-0.6-1.2c-0.1-0.1-0.2-0.2-0.4-0.1c-0.1,0.1-0.2,0.2-0.2,0.3c0,0,0,0.1,0.1,0.1
		l0,0c0.6,1,0.9,2,0.9,3.1c0,2.2-0.1,4.3-0.3,6.4c0,0.4-0.1,0.9-0.1,1.3c0,0.3-0.1,0.5-0.1,0.8c0,0.1,0,0.2,0.1,0.3
		c0,0.1,0.1,0.1,0.2,0.1c0,0,0,0,0,0c0.2,0,0.3-0.1,0.3-0.3c0-0.1,0-0.2,0-0.3c0.2-1.9,0.4-3.9,0.5-6.3v0c0-0.1,0-0.3,0-0.4
		c0-0.3,0-0.6,0-0.9C51.7,44.4,51.6,43.5,51.3,42.6z"/>
	<path class="st1" d="M38.9,45.1c0-1.5,0.5-2.8,1.4-4c0-0.1,0.1-0.1,0.1-0.3v0c0-0.1-0.1-0.2-0.2-0.2c-0.1-0.1-0.2,0-0.3,0
		c0,0-0.1,0.1-0.1,0.1l0,0c-0.9,1.2-1.4,2.6-1.5,4.1c0,1.1-0.1,1.9-0.2,2.7c-0.2,1.2-0.6,2.2-1.1,3.1c-0.1,0.1-0.1,0.2-0.2,0.3
		c0,0-0.1,0.1-0.1,0.1c-0.1,0.2-0.1,0.3,0.1,0.4c0.1,0,0.1,0.1,0.2,0.1c0.1,0,0.2,0,0.3-0.1c0,0,0,0,0.1-0.1c0.3-0.5,0.6-1,0.8-1.6
		C38.6,48.3,38.9,46.8,38.9,45.1z"/>
	<path class="st1" d="M45.3,46.2c0-0.4,0-0.8,0-1.2c0-0.2-0.1-0.3-0.2-0.3c-0.1,0-0.2,0-0.2,0.1c-0.1,0.1-0.1,0.2-0.1,0.3
		c0,1,0,1.9-0.1,2.8c-0.1,1.6-0.3,3.3-0.7,4.9c-0.2,0.7-0.3,1.5-0.6,2.3c-0.1,0.2,0,0.4,0.2,0.4c0,0,0.1,0,0.1,0
		c0.1,0,0.2-0.1,0.3-0.3c0-0.1,0-0.2,0.1-0.3l0-0.1c0.7-2.5,1.1-5.2,1.2-8.2V46.2z"/>
	<path class="st1" d="M49.7,40.3c-1.3-1.2-2.8-1.9-4.4-2h0c-1.6,0-2.9,0.3-4,1.1c-0.2,0.1-0.3,0.2-0.4,0.3c-0.1,0.1-0.1,0.3,0,0.4
		c0.1,0.1,0.3,0.1,0.4,0.1c0,0,0,0,0.1-0.1l0,0c2.2-1.7,5.1-1.7,7.3,0c0.3,0.2,0.5,0.5,0.7,0.6c0.1,0.1,0.1,0.1,0.2,0.1c0,0,0,0,0,0
		c0.1,0,0.1,0,0.2-0.1C49.9,40.6,49.9,40.5,49.7,40.3C49.8,40.3,49.8,40.3,49.7,40.3L49.7,40.3z"/>
	<path class="st1" d="M52.8,37.9c-0.2-0.2-0.4-0.4-0.6-0.6c-0.1-0.1-0.3-0.1-0.4,0c-0.1,0.1-0.1,0.3,0,0.4c0,0,0,0,0.1,0.1l0,0
		c1.5,1.4,2.4,3.2,2.8,5.2c0.1,0.6,0.2,1.2,0.2,1.9c0,0.3,0.2,0.4,0.3,0.4c0,0,0,0,0,0c0.1,0,0.1,0,0.2-0.1c0.1-0.1,0.1-0.2,0.1-0.3
		v-0.3C55.4,42,54.5,39.8,52.8,37.9z"/>
	<path class="st1" d="M40.2,45.4l0-0.2c0-0.2,0-0.3,0-0.5c0-0.2-0.1-0.3-0.3-0.3c0,0,0,0,0,0c-0.2,0-0.3,0.1-0.3,0.3
		c0,0.1,0,0.1,0,0.2c0,0.8,0,1.5-0.1,2.1c-0.2,1.6-0.5,3.1-1,4.3c-0.2,0.4-0.3,0.8-0.5,1.1c-0.1,0.1-0.1,0.2,0,0.3
		c0.1,0.1,0.1,0.1,0.2,0.1c0,0,0,0,0.1,0c0.1,0,0.2-0.1,0.2-0.2c0.4-0.7,0.6-1.3,0.9-2.1C39.8,49,40.1,47.3,40.2,45.4z"/>
	<path class="st1" d="M42.6,47.6C42.6,47.5,42.6,47.5,42.6,47.6c0-0.1,0-0.2,0-0.3c-0.1-0.1-0.2-0.2-0.3-0.2c-0.2,0-0.2,0.1-0.3,0.3
		c0,0.5-0.1,1.1-0.2,1.6c-0.2,1.7-0.6,3.2-1.1,4.6c0,0.1-0.1,0.2-0.1,0.4c0,0.1-0.1,0.2-0.1,0.3c-0.1,0.2,0,0.3,0.2,0.4
		c0,0,0.1,0,0.1,0c0.1,0,0.2-0.1,0.3-0.2c0,0,0-0.1,0-0.1l0,0C41.9,52.3,42.4,50.1,42.6,47.6L42.6,47.6z"/>
	<path class="st1" d="M52.7,45.1C52.7,45.1,52.7,45.1,52.7,45.1c-0.2,0-0.3,0.1-0.3,0.2c0,0,0,0.1,0,0.1v0c0,2.2-0.1,4.4-0.3,6.5
		c0,0.1,0,0.4,0.2,0.4c0,0,0,0,0.1,0c0.1,0,0.1,0,0.2-0.1c0.1-0.1,0.1-0.2,0.1-0.3c0.1-1.6,0.2-3,0.3-4.3c0-0.7,0-1.6,0-2.3
		c0,0,0-0.1,0-0.1C52.9,45.2,52.8,45.1,52.7,45.1z"/>
	<path class="st1" d="M47.4,49.1C47.4,49.1,47.4,49.1,47.4,49.1c-0.2,0-0.3,0.1-0.3,0.2c0,0,0,0.1,0,0.1l0,0
		c-0.1,1.5-0.3,2.9-0.6,4.2c-0.1,0.3-0.1,0.6-0.2,1L46.2,55c0,0.2,0.1,0.4,0.2,0.4c0,0,0,0,0.1,0c0.1,0,0.3-0.1,0.3-0.3l0,0
		c0.2-1.2,0.4-2.3,0.6-3.4c0.1-0.9,0.2-1.6,0.3-2.3v0C47.7,49.3,47.6,49.1,47.4,49.1z"/>
	<path class="st1" d="M37.6,46.1c0-0.1,0-0.3-0.1-0.3c0-0.1-0.1-0.1-0.2-0.1c0,0,0,0,0,0c-0.2,0-0.3,0.1-0.3,0.3
		c-0.1,0.7-0.2,1.3-0.4,1.8c-0.2,0.7-0.5,1.2-0.9,1.6c-0.1,0.2-0.2,0.3,0,0.4c0.1,0.1,0.1,0.1,0.2,0.1c0,0,0,0,0,0
		c0.1,0,0.2,0,0.3-0.1c0.2-0.2,0.4-0.4,0.5-0.7C37.1,48.3,37.4,47.3,37.6,46.1L37.6,46.1z"/>
	<path class="st1" d="M35,45C35,45,35,45,35,45l0-0.1c0-1.1,0.2-2.1,0.5-3.2c0-0.1,0-0.2,0-0.3c0-0.1-0.1-0.1-0.2-0.1
		c-0.1,0-0.2,0-0.2,0c-0.1,0-0.1,0.1-0.2,0.2c-0.3,0.9-0.5,1.9-0.6,3v0c0,0,0,0.1,0,0.1c0,0.1,0,0.2,0,0.3c0,0.1,0.1,0.3,0.3,0.3
		c0,0,0,0,0,0C34.9,45.3,35,45.2,35,45z"/>
	<path class="st1" d="M43.1,51.6c-0.2,0-0.3,0.1-0.3,0.2c0,0.1-0.1,0.3-0.1,0.4c0,0.2-0.1,0.4-0.2,0.7c-0.2,0.7-0.3,1.3-0.5,1.8l0,0
		c0,0.1,0,0.1,0,0.2c0,0.1,0.1,0.2,0.3,0.2c0,0,0,0,0,0c0.1,0,0.2,0,0.3-0.2c0.2-0.6,0.4-1.2,0.5-1.9c0.1-0.3,0.1-0.6,0.2-0.8
		l0.1-0.3l0,0C43.3,51.7,43.2,51.6,43.1,51.6z"/>
</g>
</svg>
