<?xml version="1.0" encoding="UTF-8"?>
<svg width="498px" height="485px" viewBox="0 0 498 485" version="1.1" xmlns="http://www.w3.org/2000/svg" xmlns:xlink="http://www.w3.org/1999/xlink">
    <!-- Generator: Sketch 57.1 (83088) - https://sketch.com -->
    <title>API 2 Copy</title>
    <desc>Created with Sketch.</desc>
    <defs>
        <filter x="-3.6%" y="-3.7%" width="107.2%" height="107.4%" filterUnits="objectBoundingBox" id="filter-1">
            <feOffset dx="0" dy="3" in="SourceAlpha" result="shadowOffsetOuter1"></feOffset>
            <feGaussianBlur stdDeviation="3" in="shadowOffsetOuter1" result="shadowBlurOuter1"></feGaussianBlur>
            <feColorMatrix values="0 0 0 0 0   0 0 0 0 0   0 0 0 0 0  0 0 0 0.5 0" type="matrix" in="shadowBlurOuter1" result="shadowMatrixOuter1"></feColorMatrix>
            <feMerge>
                <feMergeNode in="shadowMatrixOuter1"></feMergeNode>
                <feMergeNode in="SourceGraphic"></feMergeNode>
            </feMerge>
        </filter>
    </defs>
    <g id="Upgrade-Page" stroke="none" stroke-width="1" fill="none" fill-rule="evenodd">
        <g id="upgrade2" transform="translate(-106.000000, -180.000000)" fill-rule="nonzero">
            <g id="API-2-Copy" filter="url(#filter-1)" transform="translate(112.000000, 183.000000)">
                <g id="API">
                    <g id="Group" transform="translate(6.300000, 6.300000)">
                        <path d="M31.6382309,0.10376 C27.3973957,0.10376 23.2626762,0.9466496 19.3477676,2.6058512 C17.4774797,3.397484 15.6678293,4.3732616 13.9642945,5.5104032 C12.2493902,6.691208 10.6803949,7.9954088 9.33879023,9.3622568 C7.12552148,11.579588 5.29123711,14.0247272 3.86815078,16.6502144 C1.37822344,21.2348504 0.0631476562,26.4421616 0.0631476562,31.7159168 L0.0631476562,428.282185 C0.0631476562,445.711395 14.2276887,459.892443 31.6382309,459.892443 L440.8504,459.892443 C458.260942,459.892443 472.425483,445.711395 472.425483,428.282185 L472.425483,31.7159168 C472.425483,26.4421616 471.110407,21.2348504 468.622375,16.6540112 C467.197393,14.0247272 465.363109,11.579588 463.168789,9.3793424 C461.808236,7.9954088 460.237345,6.691208 458.486437,5.485724 C456.784798,4.3504808 454.978937,3.3747032 453.154127,2.6115464 C449.225954,0.9466496 445.08934,0.10376 440.848505,0.10376 L31.6382309,0.10376 L31.6382309,0.10376 Z" id="Shape" fill="#FFFFFF"></path>
                        <path d="M154.866895,45.6197984 L157.40988,39.3133136 C158.660529,36.2170232 159.293433,32.9232992 159.293433,29.5251632 C159.293433,24.8513024 158.071208,20.2780568 155.757509,16.297112 L151.749749,9.4002248 L440.833345,9.4002248 C453.131388,9.4002248 463.136576,19.4085896 463.136576,31.7102216 L463.136576,45.6197984 L154.866895,45.6197984 Z" id="Path" fill="#F68F6F"></path>
                        <path d="M27.9526078,45.6197984 L25.4096227,39.3133136 C24.1589742,36.2170232 23.5260703,32.9232992 23.5260703,29.5251632 C23.5260703,24.8513024 24.7482949,20.2780568 27.0619945,16.297112 L31.0678594,9.4002248 L31.0678594,9.4002248 C18.7698164,9.4002248 10.4681637,19.4085896 10.4681637,31.7102216 L10.4681637,45.6197984 L27.9526078,45.6197984 Z" id="Path" fill="#F68F6F"></path>
                        <rect id="Rectangle" fill="#4A555F" x="0.0631476562" y="54.6220112" width="472.362335" height="6.3748272"></rect>
                        <path d="M48.7057922,46.747448 C39.2236031,46.747448 31.5093762,39.0190616 31.5093762,29.5175696 C31.5093762,20.0160776 39.2236031,12.2876912 48.7057922,12.2876912 C58.1879813,12.2876912 65.9041031,20.0160776 65.9041031,29.5175696 C65.9041031,39.0190616 58.1879813,46.747448 48.7057922,46.747448 Z M48.7057922,18.6644168 C42.7329984,18.6644168 37.8725238,23.5338128 37.8725238,29.5175696 C37.8725238,35.5013264 42.7329984,40.3707224 48.7057922,40.3707224 C54.6804809,40.3707224 59.5390605,35.5013264 59.5390605,29.5175696 C59.5390605,23.5338128 54.6804809,18.6644168 48.7057922,18.6644168 Z" id="Shape" fill="#4A555F"></path>
                        <path d="M90.7541086,46.747448 C81.2719195,46.747448 73.5576926,39.0190616 73.5576926,29.5175696 C73.5576926,20.017976 81.2719195,12.2895896 90.7541086,12.2895896 C100.238193,12.2895896 107.95242,20.017976 107.95242,29.5175696 C107.95242,39.0190616 100.236298,46.747448 90.7541086,46.747448 Z M90.7541086,18.6644168 C84.7813148,18.6644168 79.9208402,23.5338128 79.9208402,29.5175696 C79.9208402,35.5013264 84.7813148,40.3707224 90.7541086,40.3707224 C96.7287973,40.3707224 101.587377,35.5013264 101.587377,29.5175696 C101.587377,23.5338128 96.7287973,18.6644168 90.7541086,18.6644168 Z" id="Shape" fill="#4A555F"></path>
                        <path d="M132.802425,46.747448 C123.320236,46.747448 115.604114,39.0190616 115.604114,29.5175696 C115.604114,20.017976 123.320236,12.2895896 132.802425,12.2895896 C142.284614,12.2895896 150.000736,20.017976 150.000736,29.5175696 C149.998841,39.0190616 142.284614,46.747448 132.802425,46.747448 Z M132.802425,18.6644168 C126.827736,18.6644168 121.969157,23.5338128 121.969157,29.5175696 C121.969157,35.5013264 126.829631,40.3707224 132.802425,40.3707224 C138.775219,40.3707224 143.635693,35.5013264 143.635693,29.5175696 C143.635693,23.5338128 138.775219,18.6644168 132.802425,18.6644168 Z" id="Shape" fill="#4A555F"></path>
                    </g>
                    <path d="M440.935056,277.121295 L413.826304,208.266327 L380.31082,208.266327 L353.329028,277.121295 L285.555252,247.644838 L264.936607,268.301329 L261.923681,271.446978 L291.30255,339.174296 L222.679849,366.184731 L222.679849,399.782614 L291.323394,426.878478 L271.510091,472.569169 L447.148505,472.569169 C468.064652,472.569169 485.098105,455.525334 485.098105,434.570794 L485.098105,257.888605 L440.935056,277.121295 Z M478.736852,434.572693 C478.736852,452.020887 464.566627,466.19624 447.152295,466.19624 L281.229145,466.19624 L299.769061,423.353149 L229.046787,395.450466 L229.046787,370.522575 L299.789905,342.70532 L269.435152,272.810029 L286.999182,255.213759 L356.851688,285.603346 L384.640717,214.644951 L409.502092,214.644951 L437.418081,285.582464 L478.740642,267.625498 L478.740642,434.572693 L478.736852,434.572693 Z" id="Shape" fill="#4A555F"></path>
                    <path d="M433.342104,295.484518 L404.45023,222.082882 L389.707738,222.082882 L360.942824,295.484518 L288.672398,264.05271 L278.257908,274.486316 L309.652973,346.805864 L236.471091,375.600795 L236.471091,390.39123 L309.652973,419.250706 L287.505127,469.379857 L447.152295,469.383654 C468.091181,469.383654 481.920321,452.58661 481.920321,434.574591 L481.910846,273.688988 L433.342104,295.484518 Z M399.019384,453.190302 C375.516668,453.190302 353.497676,440.588722 341.618411,420.399238 C335.488338,410.197237 332.242337,398.425258 332.242337,386.376114 C332.242337,349.484506 362.193472,319.476498 399.019384,319.476498 C410.642835,319.476498 422.076793,322.536718 432.025133,328.275582 C452.856009,340.15387 465.794536,362.405017 465.794536,386.376114 C465.796431,423.182293 435.845296,453.167521 399.019384,453.190302 Z" id="Shape" fill="#EC8D53"></path>
                    <g id="Group" transform="translate(5.684766, 15.687200)">
                        <path d="M155.48213,36.2325984 L158.025115,29.9261136 C159.275763,26.8298232 159.908667,23.5360992 159.908667,20.1379632 C159.908667,15.4641024 158.686443,10.8908568 156.372743,6.909912 L152.364983,0.0130248 L441.44858,0.0130248 C453.746623,0.0130248 463.75181,10.0213896 463.75181,22.3230216 L463.75181,36.2325984 L155.48213,36.2325984 Z" id="Path" fill="#3F2E61"></path>
                        <path d="M28.5678422,36.2325984 L26.024857,29.9261136 C24.7742086,26.8298232 24.1413047,23.5360992 24.1413047,20.1379632 C24.1413047,15.4641024 25.3635293,10.8908568 27.6772289,6.909912 L31.6830938,0.0130248 L31.6830938,0.0130248 C19.3850508,0.0130248 11.083398,10.0213896 11.083398,22.3230216 L11.083398,36.2325984 L28.5678422,36.2325984 Z" id="Path" fill="#3F2E61"></path>
                        <rect id="Rectangle" fill="#4A555F" x="0.678382031" y="45.2348112" width="472.362335" height="6.3748272"></rect>
                        <path d="M49.3210266,37.360248 C39.8388375,37.360248 32.1246105,29.6318616 32.1246105,20.1303696 C32.1246105,10.6288776 39.8388375,2.9004912 49.3210266,2.9004912 C58.8032156,2.9004912 66.5193375,10.6288776 66.5193375,20.1303696 C66.5193375,29.6318616 58.8032156,37.360248 49.3210266,37.360248 Z M49.3210266,9.2772168 C43.3482328,9.2772168 38.4877582,14.1466128 38.4877582,20.1303696 C38.4877582,26.1141264 43.3482328,30.9835224 49.3210266,30.9835224 C55.2957152,30.9835224 60.1542949,26.1141264 60.1542949,20.1303696 C60.1542949,14.1466128 55.2957152,9.2772168 49.3210266,9.2772168 Z" id="Shape" fill="#4A555F"></path>
                        <path d="M91.369343,37.360248 C81.8871539,37.360248 74.172927,29.6318616 74.172927,20.1303696 C74.172927,10.630776 81.8871539,2.9023896 91.369343,2.9023896 C100.853427,2.9023896 108.567654,10.630776 108.567654,20.1303696 C108.567654,29.6318616 100.851532,37.360248 91.369343,37.360248 Z M91.369343,9.2772168 C85.3965492,9.2772168 80.5360746,14.1466128 80.5360746,20.1303696 C80.5360746,26.1141264 85.3965492,30.9835224 91.369343,30.9835224 C97.3440316,30.9835224 102.202611,26.1141264 102.202611,20.1303696 C102.202611,14.1466128 97.3440316,9.2772168 91.369343,9.2772168 Z" id="Shape" fill="#4A555F"></path>
                        <path d="M133.417659,37.360248 C123.93547,37.360248 116.219348,29.6318616 116.219348,20.1303696 C116.219348,10.630776 123.93547,2.9023896 133.417659,2.9023896 C142.899848,2.9023896 150.61597,10.630776 150.61597,20.1303696 C150.614075,29.6318616 142.899848,37.360248 133.417659,37.360248 Z M133.417659,9.2772168 C127.442971,9.2772168 122.584391,14.1466128 122.584391,20.1303696 C122.584391,26.1141264 127.444866,30.9835224 133.417659,30.9835224 C139.390453,30.9835224 144.250928,26.1141264 144.250928,20.1303696 C144.250928,14.1466128 139.390453,9.2772168 133.417659,9.2772168 Z" id="Shape" fill="#4A555F"></path>
                    </g>
                    <rect id="Rectangle" fill="#4A555F" x="182.443078" y="148.823626" width="246.749147" height="6.3748272"></rect>
                    <rect id="Rectangle" fill="#4A555F" x="60.127766" y="209.06935" width="253.616344" height="6.3748272"></rect>
                    <rect id="Rectangle" fill="#4A555F" x="60.127766" y="269.495422" width="144.506742" height="6.3748272"></rect>
                    <rect id="Rectangle" fill="#4A555F" x="60.127766" y="333.103213" width="123.277932" height="6.3748272"></rect>
                    <rect id="Rectangle" fill="#4A555F" x="60.127766" y="399.820582" width="123.277932" height="6.3748272"></rect>
                    <path d="M120.958548,102.814004 L103.007953,102.814004 L103.007953,129.131523 L103.007953,134.420466 L103.007953,156.267253 L109.371101,156.267253 L109.371101,134.420466 L120.956653,134.420466 C129.654345,134.420466 136.731878,127.33184 136.731878,118.616286 C136.731878,109.900731 129.656239,102.814004 120.958548,102.814004 Z M120.958548,128.045638 L109.372996,128.045638 L109.372996,109.188831 L120.958548,109.188831 C126.146844,109.188831 130.36873,113.418466 130.36873,118.616286 C130.36873,123.816003 126.146844,128.045638 120.958548,128.045638 Z" id="Shape" fill="#4A555F"></path>
                    <path d="M75.6187523,103.011438 C66.4928086,103.011438 59.0685047,110.449369 59.0685047,119.592063 L59.0685047,156.267253 L65.4316523,156.267253 L65.4316523,135.145654 L85.8020625,135.145654 L85.8020625,156.267253 L92.1652105,156.267253 L92.1652105,119.592063 C92.1671051,110.449369 84.7428012,103.011438 75.6187523,103.011438 Z M65.4316523,128.768929 L65.4316523,119.590165 C65.4316523,113.963307 70.0022039,109.386265 75.6168574,109.386265 C81.2334059,109.386265 85.8020625,113.965206 85.8020625,119.590165 L85.8020625,128.768929 L65.4316523,128.768929 Z" id="Shape" fill="#4A555F"></path>
                    <path d="M447.1504,469.41727 C466.329509,469.41727 481.93863,453.788665 481.93863,434.582185 L481.93863,38.0159168 C481.93863,32.2057265 480.486581,26.4602736 477.742197,21.4103782 C476.176936,18.518697 474.158854,15.8232757 471.738312,13.3981643 C470.251724,11.8863086 468.523377,10.4487638 466.604499,9.12728145 C464.698973,7.85401799 462.70817,6.77991068 460.692536,5.93644662 C456.374085,4.10692747 451.823296,3.1808312 447.1504,3.1808312 L37.9382309,3.1808312 C33.262677,3.1808312 28.7122529,4.10606673 24.3967978,5.9350529 C22.335814,6.80719352 20.3458994,7.88203186 18.482544,9.12732996 C16.56526,10.4474456 14.8366617,11.8865541 13.3499216,13.3986877 C10.9358492,15.8154474 8.91624196,18.5117383 7.34586142,21.4111303 C4.60191913,26.4604879 3.15,32.2041042 3.15,38.0159168 L3.15,434.582185 C3.15,453.787986 18.7603377,469.41727 37.9382309,469.41727 L447.1504,469.41727 Z" id="Path" stroke="#EC8D53" stroke-width="6.3"></path>
                    <rect id="Rectangle" fill="#4A555F" x="150.030439" y="104.79973" width="6.36314766" height="51.465624"></rect>
                    <path d="M399.000435,445.334722 C366.50442,445.334722 340.068364,418.861534 340.068364,386.322958 C340.068364,353.784382 366.50442,327.313093 399.000435,327.313093 C431.49645,327.313093 457.932505,353.784382 457.932505,386.322958 C457.932505,418.861534 431.49645,445.334722 399.000435,445.334722 Z M399.000435,333.68792 C370.013815,333.68792 346.431512,357.300219 346.431512,386.322958 C346.431512,415.345698 370.013815,438.957997 399.000435,438.957997 C427.987055,438.957997 451.569357,415.345698 451.569357,386.322958 C451.569357,357.300219 427.987055,333.68792 399.000435,333.68792 Z" id="Shape" fill="#4A555F"></path>
                </g>
            </g>
        </g>
    </g>
</svg>