<?xml version="1.0" encoding="UTF-8"?>
<svg width="300px" height="349px" viewBox="0 0 300 349" version="1.1" xmlns="http://www.w3.org/2000/svg" xmlns:xlink="http://www.w3.org/1999/xlink">
    <!-- Generator: Sketch 57.1 (83088) - https://sketch.com -->
    <title>Group 5</title>
    <desc>Created with Sketch.</desc>
    <g id="Upgrade-Page" stroke="none" stroke-width="1" fill="none" fill-rule="evenodd">
        <g id="upgrade2" transform="translate(-197.000000, -673.000000)">
            <g id="Group-5" transform="translate(197.000000, 673.800000)">
                <path d="M174.6,279.96 L149.28,279.96 C133.68,279.96 121.08,267.36 121.08,251.76 L121.08,55.32 C121.08,39.72 133.68,27.12 149.28,27.12 L299.88,27.12 L299.88,39.36 L149.28,39.36 C140.4,39.36 133.32,46.56 133.32,55.32 L133.32,251.76 C133.32,260.64 140.52,267.72 149.28,267.72 L174.72,267.72 L174.72,279.96 L174.6,279.96 Z M149.28,30.72 C135.72,30.72 124.68,41.76 124.68,55.32 L124.68,251.76 C124.68,265.32 135.72,276.36 149.28,276.36 L171,276.36 L171,271.44 L149.28,271.44 C138.48,271.44 129.6,262.56 129.6,251.76 L129.6,55.32 C129.6,44.52 138.48,35.64 149.28,35.64 L296.28,35.64 L296.28,30.72 L149.28,30.72 Z" id="Shape" fill="#4A555F" fill-rule="nonzero" transform="translate(210.480000, 153.540000) rotate(-180.000000) translate(-210.480000, -153.540000) "></path>
                <path d="M217.08,39.36 L72.24,39.36 L72.24,27.12 L218.52,27.12 L221.88,28.44 L217.08,39.36 Z M75.84,35.76 L214.56,35.76 L216.72,30.84 L75.84,30.84 L75.84,35.76 Z" id="Shape" fill="#4A555F" fill-rule="nonzero" transform="translate(147.060000, 33.240000) rotate(-180.000000) translate(-147.060000, -33.240000) "></path>
                <path d="M84.36,279.96 L84.36,110.52 C84.36,101.64 77.16,94.56 68.4,94.56 L41.88,94.56 L41.88,82.32 L68.4,82.32 C84,82.32 96.6,94.92 96.6,110.52 L96.6,279.96 L93.12,271.08 L87.96,271.08 L84.36,279.96 Z M87.96,267.36 L92.88,267.36 L92.88,110.52 C92.88,96.96 81.84,85.92 68.28,85.92 L45.48,85.92 L45.48,90.84 L68.28,90.84 C79.08,90.84 87.96,99.72 87.96,110.52 L87.96,267.36 Z" id="Shape" fill="#4A555F" fill-rule="nonzero" transform="translate(69.240000, 181.140000) rotate(-180.000000) translate(-69.240000, -181.140000) "></path>
                <g id="Group" transform="translate(48.000000, 47.500000) rotate(-180.000000) translate(-48.000000, -47.500000) " fill-rule="nonzero">
                    <path d="M54.12,95 L43.92,95 L36.96,77.24 L19.32,84.92 L18.36,83.72 L11.16,76.52 L18.72,59 L0.96,52.04 L0.96,41.84 L18.72,34.88 L11.16,17.48 L12.36,16.16 L18.24,10.28 L35.76,17.84 L42.72,0.08 L52.92,0.08 L59.88,17.84 L77.4,10.28 L85.68,18.56 L78,36.08 L95.76,43.04 L95.76,53.24 L78,60.2 L85.68,77.72 L84.36,79.04 L78.48,84.92 L60.96,77.24 L54.12,95 Z M46.44,91.4 L51.6,91.4 L59.04,72.44 L77.76,80.6 L81.48,76.88 L73.32,58.16 L92.28,50.72 L92.28,45.56 L73.32,38.12 L81.48,19.4 L76.68,14.6 L57.96,22.76 L50.52,3.8 L45.36,3.8 L37.92,22.76 L19.2,14.6 L15.6,18.2 L23.76,36.92 L4.8,44.36 L4.8,49.52 L23.76,56.96 L15.6,75.68 L20.4,80.48 L39,72.32 L46.44,91.4 Z M48.48,64.4 C42.6,64.4 37.2,61.28 34.2,56.24 C32.64,53.72 31.92,50.84 31.92,47.84 C31.92,38.72 39.36,31.28 48.48,31.28 C51.36,31.28 54.24,32 56.64,33.44 C61.8,36.32 65.04,41.96 65.04,47.84 C65.04,56.96 57.6,64.4 48.48,64.4 Z M48.48,34.88 C41.4,34.88 35.52,40.64 35.52,47.84 C35.52,50.12 36.12,52.4 37.32,54.44 C39.72,58.4 43.8,60.8 48.48,60.8 C55.56,60.8 61.44,55.04 61.44,47.84 C61.44,43.16 58.92,38.96 54.84,36.56 C52.92,35.48 50.64,34.88 48.48,34.88 Z" id="Shape" fill="#4A555F"></path>
                    <path d="M41.76,67.64 C43.92,68.36 46.2,68.72 48.48,68.72 C51.36,68.72 54.12,68.12 56.64,67.04 L49.08,86.24 L41.76,67.64 Z M20.64,74.72 L29.04,55.4 C29.4,56.48 30,57.44 30.6,58.4 C32.88,62.24 36.36,65.24 40.56,67.04 L21.48,75.32 L20.64,74.72 Z M57.12,66.8 C61.92,64.64 65.64,60.68 67.68,55.88 L76.08,75.08 L57.12,66.8 Z M67.8,55.76 C68.76,53.36 69.36,50.6 69.36,47.84 C69.36,45.32 68.88,42.8 68.04,40.52 L87.24,48.08 L67.8,55.76 Z M9.84,47 L29.4,39.32 L21,20 L40.32,28.4 L48,8.84 L55.68,28.28 C53.4,27.44 51,26.96 48.48,26.96 C36.96,26.96 27.6,36.32 27.6,47.84 C27.6,50.12 27.96,52.28 28.68,54.32 L9.84,47 Z M67.8,40.04 C66.12,35.72 62.88,32.12 58.8,29.72 C57.84,29.12 56.88,28.76 55.8,28.28 L75.72,19.64 L76.44,20.36 L67.8,40.04 Z" id="Shape" fill="#3F2E61"></path>
                </g>
                <path d="M109.92,293.88 L106.32,293.88 L106.32,290.28 L109.92,290.28 L109.92,293.88 Z M109.92,286.56 L106.32,286.56 L106.32,282.96 L109.92,282.96 L109.92,286.56 Z M109.92,279.24 L106.32,279.24 L106.32,275.64 L109.92,275.64 L109.92,279.24 Z M109.92,271.92 L106.32,271.92 L106.32,268.32 L109.92,268.32 L109.92,271.92 Z M109.92,264.6 L106.32,264.6 L106.32,261 L109.92,261 L109.92,264.6 Z M109.92,257.28 L106.32,257.28 L106.32,253.68 L109.92,253.68 L109.92,257.28 Z M109.92,249.96 L106.32,249.96 L106.32,246.36 L109.92,246.36 L109.92,249.96 Z M109.92,242.64 L106.32,242.64 L106.32,240.24 C106.32,239.76 106.32,239.28 106.32,238.92 L109.92,239.16 C109.92,239.52 109.92,239.88 109.92,240.24 L109.92,242.64 Z M110.52,235.92 L107.04,234.96 C107.4,233.64 107.88,232.44 108.48,231.24 L111.72,232.92 C111.12,233.76 110.76,234.84 110.52,235.92 Z M113.52,230.04 L110.64,227.76 C111.48,226.68 112.44,225.72 113.52,224.88 L115.8,227.76 C114.96,228.48 114.12,229.2 113.52,230.04 Z M118.56,225.96 L116.88,222.72 C118.08,222.12 119.28,221.64 120.6,221.16 L121.56,224.64 C120.48,225 119.52,225.48 118.56,225.96 Z M124.8,224.16 L124.56,220.56 C125.04,220.56 125.52,220.56 126.12,220.56 L128.4,220.56 L128.4,224.16 L126.12,224.16 C125.64,224.04 125.16,224.16 124.8,224.16 Z M192.96,224.04 L190.56,224.04 L190.56,220.44 L192.96,220.44 C193.32,220.44 193.68,220.44 194.04,220.44 L194.28,224.04 C193.8,224.04 193.32,224.04 192.96,224.04 Z M186.84,224.04 L183.24,224.04 L183.24,220.44 L186.84,220.44 L186.84,224.04 Z M179.52,224.04 L175.92,224.04 L175.92,220.44 L179.52,220.44 L179.52,224.04 Z M172.2,224.04 L168.6,224.04 L168.6,220.44 L172.2,220.44 L172.2,224.04 Z M164.88,224.04 L161.28,224.04 L161.28,220.44 L164.88,220.44 L164.88,224.04 Z M157.56,224.04 L153.96,224.04 L153.96,220.44 L157.56,220.44 L157.56,224.04 Z M150.24,224.04 L146.64,224.04 L146.64,220.44 L150.24,220.44 L150.24,224.04 Z M142.92,224.04 L139.32,224.04 L139.32,220.44 L142.92,220.44 L142.92,224.04 Z M135.6,224.04 L132,224.04 L132,220.44 L135.6,220.44 L135.6,224.04 Z M198.24,223.32 L197.28,219.84 C198.36,219.6 199.32,219.12 200.28,218.64 L201.96,221.88 C200.76,222.48 199.56,222.96 198.24,223.32 Z M205.32,219.72 L203.04,216.84 C203.88,216.12 204.72,215.4 205.32,214.56 L208.2,216.84 C207.36,217.92 206.4,218.88 205.32,219.72 Z M210.48,213.48 L207.24,211.8 C207.72,210.84 208.2,209.76 208.44,208.8 L211.92,209.76 C211.56,211.08 211.08,212.28 210.48,213.48 Z M212.64,205.8 L209.04,205.56 C209.04,205.2 209.04,204.72 209.04,204.36 L209.04,202.08 L212.64,202.08 L212.64,204.36 C212.76,204.84 212.64,205.32 212.64,205.8 Z M212.76,198.36 L209.16,198.36 L209.16,194.76 L212.76,194.76 L212.76,198.36 Z M212.76,191.04 L209.16,191.04 L209.16,187.44 L212.76,187.44 L212.76,191.04 Z M212.76,183.72 L209.16,183.72 L209.16,182.04 C209.16,181.44 209.16,180.84 209.04,180.24 L212.64,179.88 C212.76,180.6 212.76,181.44 212.76,182.16 L212.76,183.72 Z M208.2,177 C207.84,175.92 207.36,174.96 206.88,174 L210,172.2 C210.72,173.4 211.2,174.6 211.68,175.92 L208.2,177 Z M204.96,171.36 C204.24,170.52 203.4,169.8 202.56,169.08 L204.72,166.2 C205.8,167.04 206.76,167.88 207.72,168.96 L204.96,171.36 Z M199.8,167.52 C198.84,167.04 197.76,166.68 196.68,166.44 L197.52,162.84 C198.84,163.2 200.16,163.56 201.36,164.16 L199.8,167.52 Z M193.44,165.96 C193.32,165.96 193.08,165.96 192.96,165.96 L189.84,165.96 L189.84,162.36 L192.96,162.36 C193.2,162.36 193.44,162.36 193.56,162.36 L193.44,165.96 Z M186.12,165.96 L182.52,165.96 L182.52,162.36 L186.12,162.36 L186.12,165.96 Z M178.8,165.96 L175.2,165.96 L175.2,162.36 L178.8,162.36 L178.8,165.96 Z M171.48,165.96 L167.88,165.96 L167.88,162.36 L171.48,162.36 L171.48,165.96 Z M164.16,165.96 L160.56,165.96 L160.56,162.36 L164.16,162.36 L164.16,165.96 Z M156.84,165.96 L153.24,165.96 L153.24,162.36 L156.84,162.36 L156.84,165.96 Z M149.52,165.96 L145.92,165.96 L145.92,162.36 L149.52,162.36 L149.52,165.96 Z M142.2,165.96 L138.6,165.96 L138.6,162.36 L142.2,162.36 L142.2,165.96 Z M134.88,165.96 L132.36,165.96 C132,165.96 131.52,165.96 131.16,165.96 L131.4,162.36 C131.76,162.36 132,162.36 132.36,162.36 L134.88,162.36 L134.88,165.96 Z M127.2,165.24 C125.88,164.88 124.68,164.4 123.48,163.8 L125.16,160.56 C126.12,161.04 127.2,161.4 128.28,161.76 L127.2,165.24 Z M120,161.64 C118.92,160.8 117.96,159.84 117.12,158.88 L119.88,156.48 C120.6,157.32 121.32,158.04 122.28,158.76 L120,161.64 Z M114.96,155.52 C114.36,154.32 113.76,153.12 113.4,151.8 L116.88,150.72 C117.24,151.8 117.6,152.76 118.08,153.72 L114.96,155.52 Z M112.68,147.84 C112.68,147.24 112.56,146.76 112.56,146.16 L112.56,144 L116.16,144 L116.16,146.16 C116.16,146.64 116.16,147.12 116.16,147.6 L112.68,147.84 Z M116.16,140.4 L112.56,140.4 L112.56,136.8 L116.16,136.8 L116.16,140.4 Z M116.16,133.08 L112.56,133.08 L112.56,129.48 L116.16,129.48 L116.16,133.08 Z M116.16,125.76 L112.56,125.76 L112.56,122.16 L116.16,122.16 L116.16,125.76 Z M116.16,118.44 L112.56,118.44 L112.56,114.84 L116.16,114.84 L116.16,118.44 Z M116.4,111.36 L112.8,110.88 C113.04,109.56 113.28,108.24 113.76,106.92 L117.24,108.12 C116.76,109.2 116.52,110.28 116.4,111.36 Z M118.56,105.24 L115.44,103.32 C115.56,103.08 115.8,102.84 115.92,102.6 C116.52,101.76 117.12,100.92 117.84,100.2 L120.48,102.72 C119.88,103.32 119.4,104.04 118.92,104.76 C118.8,104.76 118.68,105 118.56,105.24 Z M123,100.44 L120.84,97.44 C121.92,96.72 123.12,96 124.32,95.4 L125.76,98.76 C124.92,99.24 123.96,99.84 123,100.44 Z M129,97.8 L128.28,94.2 C129.6,93.96 130.92,93.72 132.24,93.72 L132.24,97.32 C131.16,97.44 130.08,97.56 129,97.8 Z M217.32,97.44 L216.48,97.44 L216.48,93.84 L217.32,93.84 C218.16,93.84 219,93.72 219.84,93.6 L220.44,97.2 C219.36,97.44 218.28,97.44 217.32,97.44 Z M212.76,97.44 L209.16,97.44 L209.16,93.84 L212.76,93.84 L212.76,97.44 Z M205.44,97.44 L201.84,97.44 L201.84,93.84 L205.44,93.84 L205.44,97.44 Z M198.12,97.44 L194.52,97.44 L194.52,93.84 L198.12,93.84 L198.12,97.44 Z M190.8,97.44 L187.2,97.44 L187.2,93.84 L190.8,93.84 L190.8,97.44 Z M183.48,97.44 L179.88,97.44 L179.88,93.84 L183.48,93.84 L183.48,97.44 Z M176.16,97.44 L172.56,97.44 L172.56,93.84 L176.16,93.84 L176.16,97.44 Z M168.84,97.44 L165.24,97.44 L165.24,93.84 L168.84,93.84 L168.84,97.44 Z M161.52,97.44 L157.92,97.44 L157.92,93.84 L161.52,93.84 L161.52,97.44 Z M154.2,97.44 L150.6,97.44 L150.6,93.84 L154.2,93.84 L154.2,97.44 Z M146.88,97.44 L143.28,97.44 L143.28,93.84 L146.88,93.84 L146.88,97.44 Z M139.56,97.44 L135.96,97.44 L135.96,93.84 L139.56,93.84 L139.56,97.44 Z M224.28,96.24 L222.96,92.76 C224.04,92.4 225,91.92 225.96,91.32 L227.88,94.44 C226.68,95.16 225.48,95.76 224.28,96.24 Z M231,91.92 L228.48,89.28 C229.32,88.56 230.04,87.72 230.64,86.76 L233.64,88.8 C232.92,90 231.96,91.08 231,91.92 Z M235.56,85.32 L232.2,83.88 C232.68,82.92 232.92,81.84 233.16,80.76 L236.76,81.48 C236.52,82.8 236.04,84.12 235.56,85.32 Z M237.12,77.52 L233.52,77.52 L233.52,73.92 L237.12,73.92 L237.12,77.52 Z M237.12,70.2 L233.52,70.2 L233.52,66.6 L237.12,66.6 L237.12,70.2 Z M237.12,62.88 L233.52,62.88 L233.52,59.28 L237.12,59.28 L237.12,62.88 Z M237.12,55.56 L233.52,55.56 L233.52,51.96 L237.12,51.96 L237.12,55.56 Z M237.12,48.24 L233.52,48.24 L233.52,44.64 L237.12,44.64 L237.12,48.24 Z M237.12,40.92 L233.52,40.92 L233.52,37.32 L237.12,37.32 L237.12,40.92 Z M237.12,33.6 L233.52,33.6 L233.52,30 L237.12,30 L237.12,33.6 Z M237.12,26.28 L233.52,26.28 L233.52,22.68 L237.12,22.68 L237.12,26.28 Z M237.12,18.96 L233.52,18.96 L233.52,15.36 L237.12,15.36 L237.12,18.96 Z" id="Shape" fill="#4A555F" fill-rule="nonzero" transform="translate(171.720000, 154.620000) rotate(-180.000000) translate(-171.720000, -154.620000) "></path>
                <path d="M279.113973,247.44 C277.793973,246.72 276.353973,246.24 274.793973,246.24 C269.993973,246.24 266.153973,250.08 266.153973,254.88 C266.153973,256.44 266.513973,258 267.353973,259.2 C268.913973,261.96 271.793973,263.52 274.793973,263.52 C279.593973,263.52 283.433973,259.68 283.433973,254.88 C283.553973,251.76 281.873973,248.88 279.113973,247.44 Z M252.233973,38.52 L224.633973,38.52 L224.633973,70.44 C224.633973,86.04 211.913973,98.76 196.313973,98.76 L111.353973,98.76 C108.833973,98.76 106.433973,99.96 104.993973,102.12 C104.153973,103.32 103.673973,104.88 103.673973,106.32 L103.673973,138.84 C103.673973,140.64 104.273973,142.32 105.473973,143.64 C106.913973,145.44 109.073973,146.4 111.353973,146.4 L171.953973,146.4 C187.553973,146.4 200.273973,159.12 200.273973,174.72 L200.273973,196.92 C200.273973,212.52 187.553973,225.24 171.953973,225.24 L104.993973,225.24 C100.793973,225.24 97.4339731,228.6 97.4339731,232.8 L97.4339731,258.24 L223.193973,258.24 L223.193973,245.76 L239.513973,239.4 L232.553973,223.44 L235.913973,219.96 L237.233973,218.64 L239.273973,216.6 L243.953973,211.92 L260.033973,218.88 L264.113973,208.56 L264.113973,50.28 C263.993973,43.8 258.713973,38.52 252.233973,38.52 Z M183.593973,141.24 C175.793973,141.24 169.433973,134.88 169.433973,127.08 C169.433973,119.28 175.793973,112.92 183.593973,112.92 C191.393973,112.92 197.753973,119.28 197.753973,127.08 C197.753973,134.88 191.393973,141.24 183.593973,141.24 Z M193.313973,230.88 L202.313973,215.28 L211.313973,199.68 L220.313973,215.28 L229.313973,230.88 L193.313973,230.88 Z M50.7539731,38.52 C44.2739731,38.52 38.9939731,43.8 38.9939731,50.28 L38.9939731,246.72 C38.9939731,253.2 44.2739731,258.48 50.7539731,258.48 L76.6739731,258.48 L76.6739731,233.04 C76.6739731,217.44 89.3939731,204.72 104.993973,204.72 L171.833973,204.72 C176.033973,204.72 179.393973,201.36 179.393973,197.16 L179.393973,174.84 C179.393973,170.64 176.033973,167.28 171.833973,167.28 L111.353973,167.28 C102.833973,167.28 94.9139731,163.56 89.5139731,156.96 C85.3139731,151.92 83.0339731,145.44 83.0339731,138.96 L83.0339731,106.44 C83.0339731,100.8 84.7139731,95.28 87.8339731,90.6 C93.1139731,82.8 101.873973,78.12 111.353973,78.12 L196.313973,78.12 C200.513973,78.12 203.873973,74.76 203.873973,70.56 L203.873973,38.52 L50.7539731,38.52 Z M86.2739731,177.84 L95.2739731,168.84 L102.113973,175.8 L93.1139731,184.8 L101.993973,193.68 L95.1539731,200.64 L86.2739731,191.76 L77.1539731,200.88 L70.3139731,193.92 L79.4339731,184.8 L70.5539731,175.92 L77.3939731,168.96 L86.2739731,177.84 Z M105.353973,72.36 L79.1939731,72.36 L79.1939731,46.2 L105.353973,46.2 L105.353973,72.36 Z" id="Shape" fill="#EC8D53" fill-rule="nonzero" transform="translate(161.216987, 151.020000) rotate(-180.000000) translate(-161.216987, -151.020000) "></path>
                <polygon id="Path" fill="#4A555F" fill-rule="nonzero" transform="translate(108.920000, 339.720000) rotate(-180.000000) translate(-108.920000, -339.720000) " points="101 348.24 98 345.96 108.92 331.2 119.84 345.96 116.84 348.12 108.92 337.32"></polygon>
                <path d="M138.84,185.88 C132.96,185.88 128.04,181.08 128.04,175.08 C128.04,169.2 132.84,164.28 138.84,164.28 C144.84,164.28 149.64,169.08 149.64,175.08 C149.64,181.08 144.84,185.88 138.84,185.88 Z M138.84,168 C134.88,168 131.76,171.12 131.76,175.08 C131.76,179.04 134.88,182.16 138.84,182.16 C142.8,182.16 145.92,179.04 145.92,175.08 C145.92,171.24 142.8,168 138.84,168 Z" id="Shape" fill="#4A555F" fill-rule="nonzero" transform="translate(138.840000, 175.080000) rotate(-180.000000) translate(-138.840000, -175.080000) "></path>
                <rect id="Rectangle" fill="#4A555F" fill-rule="nonzero" transform="translate(236.153952, 117.278592) rotate(-134.991897) translate(-236.153952, -117.278592) " x="234.353969" y="102.998729" width="3.59996551" height="28.5597264"></rect>
                <rect id="Rectangle" fill="#4A555F" fill-rule="nonzero" transform="translate(236.147292, 117.275580) rotate(-135.000000) translate(-236.147292, -117.275580) " x="221.867429" y="115.475597" width="28.5597261" height="3.59996548"></rect>
                <path d="M111.12,96.12 L98.28,96.12 L111.12,73.92 L123.96,96.12 L111.12,96.12 Z M104.64,92.4 L117.6,92.4 L111.12,81.12 L104.64,92.4 Z" id="Shape" fill="#4A555F" fill-rule="nonzero" transform="translate(111.120000, 85.020000) rotate(-180.000000) translate(-111.120000, -85.020000) "></path>
                <path d="M239.4,252.12 L220.68,252.12 L220.68,233.4 L239.4,233.4 L239.4,252.12 Z M224.28,248.52 L235.68,248.52 L235.68,237.12 L224.28,237.12 L224.28,248.52 Z" id="Shape" fill="#4A555F" fill-rule="nonzero" transform="translate(230.040000, 242.760000) rotate(-180.000000) translate(-230.040000, -242.760000) "></path>
                <path d="M108.5,298.145313 L109,334.645313" id="Path-2" stroke="#4A555F" stroke-width="3.6" stroke-dasharray="4" transform="translate(108.500000, 316.422656) rotate(-180.000000) translate(-108.500000, -316.422656) "></path>
            </g>
        </g>
    </g>
</svg>