<?xml version="1.0" encoding="UTF-8"?>
<svg width="400px" height="400px" viewBox="0 0 400 400" version="1.1" xmlns="http://www.w3.org/2000/svg" xmlns:xlink="http://www.w3.org/1999/xlink">
    <!-- Generator: Sketch 53.2 (72643) - https://sketchapp.com -->
    <title>3.0-home-upgrade-saas-solution</title>
    <desc>Created with Sketch.</desc>
    <g id="3.0-home-upgrade-saas-solution" stroke="none" stroke-width="1" fill="none" fill-rule="evenodd">
        <g id="API" transform="translate(4.000000, 8.000000)" fill-rule="nonzero">
            <path d="M357.220113,225.028608 L335.258168,169.317888 L308.105859,169.317888 L286.24677,225.028608 L231.340371,201.179136 L214.636336,217.892352 L212.195438,220.437504 L235.9965,275.23584 L180.402352,297.090048 L180.402352,324.274176 L236.013387,346.197504 L219.961793,383.165952 L362.253891,383.165952 C379.198945,383.165952 392.998465,369.375744 392.998465,352.421376 L392.998465,209.467392 L357.220113,225.028608 Z M387.844945,352.422912 C387.844945,366.540288 376.365047,378.0096 362.256961,378.0096 L227.835609,378.0096 L242.855578,343.345152 L185.560477,320.769024 L185.560477,300.599808 L242.872465,278.0928 L218.280797,221.540352 L232.51016,207.303168 L289.100625,231.891456 L311.613691,174.478848 L331.754941,174.478848 L354.370863,231.87456 L387.848016,217.345536 L387.848016,352.422912 L387.844945,352.422912 Z" id="Shape" fill="#4A555F"></path>
            <path d="M351.068742,239.886336 L327.662215,180.496896 L315.718699,180.496896 L292.415027,239.886336 L233.865703,214.454784 L225.428484,222.89664 L250.862953,281.41056 L191.575219,304.708608 L191.575219,316.675584 L250.862953,340.025856 L232.920047,380.585472 L362.256961,380.588544 C379.220438,380.588544 390.424008,366.998016 390.424008,352.424448 L390.416332,222.25152 L351.068742,239.886336 Z M323.262457,367.486464 C304.221914,367.486464 286.383398,357.290496 276.759504,340.955136 C271.793273,332.700672 269.163551,323.175936 269.163551,313.426944 C269.163551,283.577856 293.42823,259.298304 323.262457,259.298304 C332.679105,259.298304 341.942238,261.774336 350.001809,266.417664 C366.877781,276.028416 377.359828,294.031872 377.359828,313.426944 C377.361363,343.206912 353.096684,367.468032 323.262457,367.486464 Z" id="Shape" fill="#EC8D53"></path>
            <g id="Group">
                <path d="M130.568109,42.817536 L132.628289,37.714944 C133.641492,35.209728 134.154234,32.544768 134.154234,29.795328 C134.154234,26.013696 133.164059,22.313472 131.289633,19.09248 L128.042777,13.512192 L362.241609,13.512192 C372.204773,13.512192 380.310398,21.609984 380.310398,31.563264 L380.310398,42.817536 L130.568109,42.817536 Z" id="Path" fill="#F68F6F"></path>
                <path d="M27.7494844,42.817536 L25.6893047,37.714944 C24.6761016,35.209728 24.1633594,32.544768 24.1633594,29.795328 C24.1633594,26.013696 25.1535352,22.313472 27.0279609,19.09248 L30.2732813,13.512192 L30.2732813,13.512192 C20.3101172,13.512192 13.5845977,21.609984 13.5845977,31.563264 L13.5845977,42.817536 L27.7494844,42.817536 Z" id="Path" fill="#F68F6F"></path>
                <rect id="Rectangle" fill="#4A555F" x="5.15505469" y="50.101248" width="382.68068" height="5.157888"></rect>
                <path d="M44.5625156,43.72992 C36.8805938,43.72992 30.6309727,37.476864 30.6309727,29.789184 C30.6309727,22.101504 36.8805938,15.848448 44.5625156,15.848448 C52.2444375,15.848448 58.4955937,22.101504 58.4955937,29.789184 C58.4955937,37.476864 52.2444375,43.72992 44.5625156,43.72992 Z M44.5625156,21.007872 C39.7237031,21.007872 35.7860273,24.947712 35.7860273,29.789184 C35.7860273,34.630656 39.7237031,38.570496 44.5625156,38.570496 C49.4028633,38.570496 53.3390039,34.630656 53.3390039,29.789184 C53.3390039,24.947712 49.4028633,21.007872 44.5625156,21.007872 Z" id="Shape" fill="#4A555F"></path>
                <path d="M78.6276328,43.72992 C70.9457109,43.72992 64.6960898,37.476864 64.6960898,29.789184 C64.6960898,22.10304 70.9457109,15.849984 78.6276328,15.849984 C86.3110898,15.849984 92.5607109,22.10304 92.5607109,29.789184 C92.5607109,37.476864 86.3095547,43.72992 78.6276328,43.72992 Z M78.6276328,21.007872 C73.7888203,21.007872 69.8511445,24.947712 69.8511445,29.789184 C69.8511445,34.630656 73.7888203,38.570496 78.6276328,38.570496 C83.4679805,38.570496 87.4041211,34.630656 87.4041211,29.789184 C87.4041211,24.947712 83.4679805,21.007872 78.6276328,21.007872 Z" id="Shape" fill="#4A555F"></path>
                <path d="M112.69275,43.72992 C105.010828,43.72992 98.7596719,37.476864 98.7596719,29.789184 C98.7596719,22.10304 105.010828,15.849984 112.69275,15.849984 C120.374672,15.849984 126.625828,22.10304 126.625828,29.789184 C126.624293,37.476864 120.374672,43.72992 112.69275,43.72992 Z M112.69275,21.007872 C107.852402,21.007872 103.916262,24.947712 103.916262,29.789184 C103.916262,34.630656 107.853938,38.570496 112.69275,38.570496 C117.531563,38.570496 121.469238,34.630656 121.469238,29.789184 C121.469238,24.947712 117.531563,21.007872 112.69275,21.007872 Z" id="Shape" fill="#4A555F"></path>
                <path d="M362.255426,383.164416 L30.7353633,383.164416 C13.7887734,383.164416 0,369.37728 0,352.430592 L0,31.567872 C0,26.44224 1.28185547,21.376512 3.7089375,16.915968 C5.09671875,14.356992 6.88057031,11.977728 9.00983203,9.848832 C10.3131797,8.5248 11.8375898,7.256064 13.5262617,6.094848 C15.2057227,4.973568 16.9604062,4.028928 18.7703555,3.264 C22.5806133,1.6512 26.605793,0.834048 30.7353633,0.834048 L362.255426,0.834048 C366.384996,0.834048 370.410176,1.652736 374.221969,3.265536 C375.993539,4.005888 377.751293,4.952064 379.433824,6.07488 C381.151664,7.256064 382.676074,8.523264 383.994773,9.862656 C386.111754,11.9808 387.895605,14.358528 389.283387,16.91904 C391.708934,21.376512 392.990789,26.443776 392.990789,31.567872 L392.990789,352.430592 C392.992324,369.37728 379.203551,383.164416 362.255426,383.164416 Z M30.7353633,5.991936 C27.2996836,5.991936 23.9499727,6.672384 20.7783398,8.014848 C19.2631406,8.65536 17.7970664,9.444864 16.4169609,10.364928 C15.0276445,11.32032 13.7565352,12.375552 12.6696445,13.481472 C10.876582,15.27552 9.39055078,17.253888 8.23764844,19.378176 C6.22045313,23.087616 5.15505469,27.300864 5.15505469,31.567872 L5.15505469,352.430592 C5.15505469,366.532608 16.6303477,378.006528 30.7353633,378.006528 L362.255426,378.006528 C376.360441,378.006528 387.835734,366.532608 387.835734,352.430592 L387.835734,31.567872 C387.835734,27.300864 386.770336,23.087616 384.754676,19.381248 C383.600238,17.253888 382.114207,15.27552 380.336496,13.495296 C379.234254,12.375552 377.961609,11.32032 376.543125,10.34496 C375.164555,9.426432 373.701551,8.636928 372.223195,8.019456 C369.040816,6.672384 365.68957,5.9904 362.253891,5.9904 L30.7353633,5.9904 L30.7353633,5.991936 Z" id="Shape" fill="#4A555F"></path>
            </g>
            <g id="Group" transform="translate(4.605469, 12.288000)">
                <path d="M125.962641,30.529536 L128.02282,25.426944 C129.036023,22.921728 129.548766,20.256768 129.548766,17.507328 C129.548766,13.725696 128.55859,10.025472 126.684164,6.80448 L123.437309,1.224192 L357.636141,1.224192 C367.599305,1.224192 375.70493,9.321984 375.70493,19.275264 L375.70493,30.529536 L125.962641,30.529536 Z" id="Path" fill="#3F2E61"></path>
                <path d="M23.1440156,30.529536 L21.0838359,25.426944 C20.0706328,22.921728 19.5578906,20.256768 19.5578906,17.507328 C19.5578906,13.725696 20.5480664,10.025472 22.4224922,6.80448 L25.6678125,1.224192 L25.6678125,1.224192 C15.7046484,1.224192 8.97912891,9.321984 8.97912891,19.275264 L8.97912891,30.529536 L23.1440156,30.529536 Z" id="Path" fill="#3F2E61"></path>
                <rect id="Rectangle" fill="#4A555F" x="0.549585938" y="37.813248" width="382.68068" height="5.157888"></rect>
                <path d="M39.9570469,31.44192 C32.275125,31.44192 26.0255039,25.188864 26.0255039,17.501184 C26.0255039,9.813504 32.275125,3.560448 39.9570469,3.560448 C47.6389687,3.560448 53.890125,9.813504 53.890125,17.501184 C53.890125,25.188864 47.6389687,31.44192 39.9570469,31.44192 Z M39.9570469,8.719872 C35.1182344,8.719872 31.1805586,12.659712 31.1805586,17.501184 C31.1805586,22.342656 35.1182344,26.282496 39.9570469,26.282496 C44.7973945,26.282496 48.7335352,22.342656 48.7335352,17.501184 C48.7335352,12.659712 44.7973945,8.719872 39.9570469,8.719872 Z" id="Shape" fill="#4A555F"></path>
                <path d="M74.0221641,31.44192 C66.3402422,31.44192 60.0906211,25.188864 60.0906211,17.501184 C60.0906211,9.81504 66.3402422,3.561984 74.0221641,3.561984 C81.7056211,3.561984 87.9552422,9.81504 87.9552422,17.501184 C87.9552422,25.188864 81.7040859,31.44192 74.0221641,31.44192 Z M74.0221641,8.719872 C69.1833516,8.719872 65.2456758,12.659712 65.2456758,17.501184 C65.2456758,22.342656 69.1833516,26.282496 74.0221641,26.282496 C78.8625117,26.282496 82.7986523,22.342656 82.7986523,17.501184 C82.7986523,12.659712 78.8625117,8.719872 74.0221641,8.719872 Z" id="Shape" fill="#4A555F"></path>
                <path d="M108.087281,31.44192 C100.405359,31.44192 94.1542031,25.188864 94.1542031,17.501184 C94.1542031,9.81504 100.405359,3.561984 108.087281,3.561984 C115.769203,3.561984 122.020359,9.81504 122.020359,17.501184 C122.018824,25.188864 115.769203,31.44192 108.087281,31.44192 Z M108.087281,8.719872 C103.246934,8.719872 99.310793,12.659712 99.310793,17.501184 C99.310793,22.342656 103.248469,26.282496 108.087281,26.282496 C112.926094,26.282496 116.86377,22.342656 116.86377,17.501184 C116.86377,12.659712 112.926094,8.719872 108.087281,8.719872 Z" id="Shape" fill="#4A555F"></path>
            </g>
            <rect id="Rectangle" fill="#4A555F" x="147.804844" y="121.222656" width="199.901906" height="5.157888"></rect>
            <rect id="Rectangle" fill="#4A555F" x="48.712043" y="169.967616" width="205.465312" height="5.157888"></rect>
            <rect id="Rectangle" fill="#4A555F" x="48.712043" y="218.858496" width="117.071016" height="5.157888"></rect>
            <rect id="Rectangle" fill="#4A555F" x="48.712043" y="270.323712" width="99.8726602" height="5.157888"></rect>
            <rect id="Rectangle" fill="#4A555F" x="48.712043" y="324.304896" width="99.8726602" height="5.157888"></rect>
            <path d="M97.9936289,83.99616 L83.4510937,83.99616 L83.4510937,105.289728 L83.4510937,109.569024 L83.4510937,127.245312 L88.6061484,127.245312 L88.6061484,109.569024 L97.9920937,109.569024 C105.038461,109.569024 110.77227,103.8336 110.77227,96.781824 C110.77227,89.730048 105.039996,83.99616 97.9936289,83.99616 Z M97.9936289,104.411136 L88.6076836,104.411136 L88.6076836,89.154048 L97.9936289,89.154048 C102.196887,89.154048 105.617215,92.576256 105.617215,96.781824 C105.617215,100.988928 102.196887,104.411136 97.9936289,104.411136 Z" id="Shape" fill="#4A555F"></path>
            <path d="M61.2619453,84.155904 C53.8686328,84.155904 47.8538906,90.173952 47.8538906,97.571328 L47.8538906,127.245312 L53.0089453,127.245312 L53.0089453,110.155776 L69.511875,110.155776 L69.511875,127.245312 L74.66693,127.245312 L74.6669297,97.571328 C74.6684648,90.173952 68.6537227,84.155904 61.2619453,84.155904 Z M53.0089453,104.996352 L53.0089453,97.569792 C53.0089453,93.017088 56.7117422,89.313792 61.2604102,89.313792 C65.8106133,89.313792 69.511875,93.018624 69.511875,97.569792 L69.511875,104.996352 L53.0089453,104.996352 Z" id="Shape" fill="#4A555F"></path>
            <rect id="Rectangle" fill="#4A555F" x="121.545996" y="85.602816" width="5.15505469" height="41.64096"></rect>
            <path d="M323.247105,361.130496 C296.920711,361.130496 275.503746,339.710976 275.503746,313.383936 C275.503746,287.056896 296.920711,265.638912 323.247105,265.638912 C349.5735,265.638912 370.990465,287.056896 370.990465,313.383936 C370.990465,339.710976 349.5735,361.130496 323.247105,361.130496 Z M323.247105,270.7968 C299.76382,270.7968 280.658801,289.901568 280.658801,313.383936 C280.658801,336.866304 299.76382,355.971072 323.247105,355.971072 C346.730391,355.971072 365.83541,336.866304 365.83541,313.383936 C365.83541,289.901568 346.730391,270.7968 323.247105,270.7968 Z" id="Shape" fill="#4A555F"></path>
        </g>
    </g>
</svg>