<?xml version="1.0" encoding="UTF-8"?>
<svg width="400px" height="400px" viewBox="0 0 400 400" version="1.1" xmlns="http://www.w3.org/2000/svg" xmlns:xlink="http://www.w3.org/1999/xlink">
    <!-- Generator: Sketch 53.2 (72643) - https://sketchapp.com -->
    <title>3.1-home-upgrade-secure-home-grown</title>
    <desc>Created with Sketch.</desc>
    <g id="3.1-home-upgrade-secure-home-grown" stroke="none" stroke-width="1" fill="none" fill-rule="evenodd">
        <g id="GROWING" transform="translate(5.000000, 14.000000)" fill-rule="nonzero">
            <path d="M17.9497908,186 L17.9497908,372 L99.539749,372 L99.539749,186 L17.9497908,186 Z M94.6937826,367.068783 L22.7957572,367.068783 L22.7957572,190.931984 L94.6937826,190.931984 L94.6937826,367.068783 Z" id="Shape" fill="#4A555F"></path>
            <rect id="Rectangle" fill="#EC8D53" x="27.7405858" y="197.421053" width="62.0083682" height="164.789474"></rect>
            <polygon id="Path" fill="#4A555F" points="163.179916 124 163.179916 349.157895 168.025883 349.157895 168.025883 128.917246 239.923908 128.917246 239.923908 274.435627 244.769874 274.435627 244.769874 124"></polygon>
            <polygon id="Path" fill="#4A555F" points="239.900891 354.052632 239.900891 367.126126 226.820084 367.126126 226.820084 372 244.769874 372 244.769874 354.052632"></polygon>
            <polygon id="Path" fill="#EC8D53" points="172.970711 133.789474 172.970711 342.631579 234.979079 281.48415 234.979079 133.789474"></polygon>
            <polygon id="Path" fill="#4A555F" points="308.410042 65.2631579 308.410042 208.222199 313.256008 208.222199 313.256008 70.1641538 385.154034 70.1641538 385.154034 367.099004 313.256008 367.099004 313.256008 292.101962 308.410042 292.101962 308.410042 372 390 372 390 65.2631579"></polygon>
            <polygon id="Path" fill="#EC8D53" points="316.569038 76.6842105 316.569038 209.031362 347.953258 209.031362 347.953258 300.007746 322.918651 275.285679 316.569038 281.560648 316.569038 362.210526 378.577406 362.210526 378.577406 76.6842105"></polygon>
            <path d="M272.606877,213.736842 L292.295138,233.399168 L153.389121,372 L219.256611,372 L325.229647,266.260956 L344.309623,285.278978 L344.309623,213.757429 L272.606877,213.736842 Z M339.391379,273.441323 L325.225826,259.323061 L217.220078,367.092615 L165.25985,367.092615 L299.248387,233.400693 L284.477606,218.650327 L339.390615,218.664052 L339.390615,273.441323 L339.391379,273.441323 Z" id="Shape" fill="#4A555F"></path>
            <polygon id="Path" fill="#3F2E61" points="297.451311 225.157895 306.511074 234.182495 177.866109 362.210526 213.707328 362.210526 324.431301 252.018096 332.887029 260.424782 332.887029 225.163998"></polygon>
            <path d="M78.7883115,55.4407679 L58.7440007,0 L38.7012283,55.4407679 C37.9244065,57.66642 37.5313808,59.960437 37.5313808,62.2590115 C37.5313808,73.8118934 47.0470637,83.2105263 58.7440007,83.2105263 C70.4409378,83.2105263 79.958159,73.8118934 79.958159,62.2590115 C79.958159,59.960437 79.5651333,57.66642 78.7883115,55.4407679 Z M58.7440007,78.3224472 C49.7759388,78.3224472 42.4807357,71.1168033 42.4807357,62.2590115 C42.4807357,60.5027972 42.7837731,58.7443041 43.3713889,57.0579738 L58.7432316,14.5358635 L74.1119978,57.0435413 C74.7065357,58.7519002 75.0080349,60.5065953 75.0080349,62.2590115 C75.008804,71.1168033 67.7120627,78.3224472 58.7440007,78.3224472 Z" id="Shape" fill="#4A555F"></path>
            <path d="M68.0186729,59.8893568 L58.7454878,32.6315789 L49.500301,59.8019583 C49.1377587,60.9064943 48.9539749,62.031373 48.9539749,63.1449502 C48.9539749,68.8115362 53.3468385,73.4210526 58.7454878,73.4210526 C64.1448549,73.4210526 68.5355649,68.8115362 68.5355649,63.1449502 C68.5355649,62.031373 68.351781,60.9064943 68.0186729,59.8893568 Z" id="Path" fill="#FFD452"></path>
            <rect id="Rectangle" fill="#4A555F" x="347.573222" y="35.8947368" width="4.89539749" height="32.6315789"></rect>
            <path d="M217.895777,43.4849876 L204.790794,6.52631579 L191.684319,43.4879919 C191.176351,44.9698839 190.920502,46.4990943 190.920502,48.0328112 C190.920502,55.7344435 197.14218,62 204.790794,62 C212.439408,62 218.661086,55.7344435 218.661086,48.0328112 C218.661832,46.496841 218.403746,44.9661285 217.895777,43.4849876 Z M204.79154,57.1667638 C199.789433,57.1667638 195.721212,53.0695916 195.721212,48.0328112 C195.721212,47.0353694 195.889789,46.0356744 196.215008,45.0870533 L204.79154,20.8998419 L213.362105,45.0735337 C213.693291,46.0431853 213.861868,47.0391249 213.861868,48.0335623 C213.861868,53.0695916 209.792901,57.1667638 204.79154,57.1667638 Z" id="Shape" fill="#4A555F"></path>
            <path d="M360.045667,35.8800835 L350.021288,6.52631579 L339.99691,35.8800835 C339.610421,37.057751 339.414226,38.2708951 339.414226,39.4878953 C339.414226,45.6037456 344.173058,50.5789474 350.020551,50.5789474 C355.868043,50.5789474 360.627613,45.6037456 360.627613,39.4878953 C360.628351,38.2708951 360.432156,37.0569798 360.045667,35.8800835 Z M350.021288,45.6160852 C346.790711,45.6160852 344.161257,42.8666519 344.161257,39.4878953 C344.161257,38.8207817 344.271156,38.149812 344.477677,37.5204887 L350.021288,21.2845644 L355.560475,37.5042929 C355.773634,38.1575243 355.882057,38.8246379 355.882057,39.4871241 C355.882057,42.8666519 353.251866,45.6160852 350.021288,45.6160852 Z" id="Shape" fill="#4A555F"></path>
            <path d="M41.3763158,98.8545433 C40.2344924,97.7121538 38.9000904,96.7645845 37.4117774,96.0383674 L0,78.3157895 L17.7248,115.722035 C18.4503811,117.207823 19.3973515,118.540485 20.5406913,119.685148 C23.3232226,122.467212 27.0239134,123.999242 30.9581245,124 C30.9596409,124 30.9581245,124 30.9596409,124 C34.893852,124 38.5945427,122.46797 41.3755576,119.686665 C44.1580889,116.904601 45.6903766,113.205291 45.6903766,109.270983 C45.6903766,105.335159 44.1573307,101.635849 41.3763158,98.8545433 Z M37.9250672,116.235996 C36.0637282,118.096264 33.5905355,119.121155 30.9588827,119.121155 C30.9588827,119.121155 30.9588827,119.121155 30.9573663,119.121155 C28.3257134,119.121155 25.8510044,118.096264 23.9911817,116.235996 C23.2307243,115.474909 22.5968834,114.581919 22.1207445,113.607818 L10.2597311,88.5745536 L35.283558,100.429024 C36.2790521,100.917212 37.1691589,101.547914 37.9250672,102.304454 C39.7864063,104.16548 40.8107114,106.639015 40.8107114,109.270225 C40.8107114,111.901435 39.7871644,114.37497 37.9250672,116.235996 Z" id="Shape" fill="#4A555F"></path>
            <path d="M34.6625586,105.384299 C34.346968,105.068751 33.9645736,104.800037 33.6121257,104.627291 L22.8451883,99.5263158 L27.9038521,110.203508 C28.1180851,110.642665 28.3883719,111.028079 28.7047304,111.344395 C29.5010015,112.140558 30.5606488,112.578947 31.6870999,112.578947 C32.8112474,112.578947 33.8701268,112.141326 34.6656301,111.344395 C35.4619012,110.548999 35.8995816,109.49103 35.8995816,108.365499 C35.8995816,107.240735 35.4619012,106.182766 34.6625586,105.384299 Z" id="Path" fill="#FFD452"></path>
            <path d="M81.7345815,109.079164 L81.7088033,109.091293 C80.2204903,109.817522 78.8860884,110.765107 77.7457813,111.906758 C74.96325,114.688867 73.4309623,118.388239 73.4309623,122.322612 C73.4309623,126.256985 74.96325,129.956357 77.7457813,132.738467 C80.5283125,135.520576 84.2274869,137.052632 88.1632144,137.052632 C92.0966673,137.052632 95.7973581,135.520576 98.5821639,132.73695 C99.7239874,131.593784 100.670958,130.260342 101.409428,128.748755 L119.121339,91.3684211 L81.7345815,109.079164 Z M97.0127253,126.634503 C96.5236973,127.634395 95.8898564,128.527399 95.1309153,129.287741 C93.2695763,131.148798 90.7948673,132.173706 88.1632144,132.173706 C85.5300452,132.173706 83.0568525,131.148798 81.1955135,129.288499 C79.3341745,127.427442 78.3098694,124.953866 78.3098694,122.322612 C78.3098694,119.691358 79.3341745,117.217024 81.197788,115.355967 C81.95218,114.600173 82.8415286,113.969461 83.8370228,113.481265 L108.86085,101.626597 L97.0127253,126.634503 Z" id="Shape" fill="#4A555F"></path>
            <path d="M85.5910245,117.639529 C85.1486589,117.855282 84.775413,118.11787 84.4551587,118.437276 C82.8108796,120.081139 82.8108796,122.754625 84.4536227,124.396954 C85.2500344,125.193164 86.3091007,125.631579 87.4342146,125.631579 C88.5608644,125.631579 89.6191627,125.193164 90.4186464,124.393882 C90.7342927,124.078316 91.0007872,123.698254 91.1743543,123.343529 L96.2761506,112.578947 L85.5910245,117.639529 Z" id="Path" fill="#FFD452"></path>
            <path d="M237.147835,88.5273548 C211.94232,85.0043431 202.437184,104.687128 202.343096,104.886614 L206.829465,106.837299 C207.116318,106.233691 213.33145,93.5947206 229.743988,92.873335 L202.370634,112.009192 L205.2644,115.842105 L243.138075,89.3643093 L237.147835,88.5273548 Z" id="Path" fill="#4A555F"></path>
            <path d="M202.784785,95.9782421 L205.010075,94.8712875 L202.781656,95.9716224 L207.238494,93.7716882 C207.130553,93.578247 204.529037,88.9900859 198.743283,84.8630946 C193.429963,81.0729706 184.293367,76.9371531 170.936934,78.7597666 L164.811715,79.595315 L203.537238,106.052632 L206.496209,102.22279 L178.443475,83.0581336 C195.508204,83.5391623 202.463311,95.4118932 202.784785,95.9782421 Z" id="Path" fill="#4A555F"></path>
            <rect id="Rectangle" fill="#4A555F" x="55.4811715" y="57.1052632" width="4.89539749" height="133.789474"></rect>
            <path d="M48.7556469,124.110282 L29.5310688,104.421053 L26.1087866,107.873446 L45.3363621,127.566483 C51.9246487,134.283913 55.5537515,143.206975 55.5537515,152.69287 L55.5537515,153.368421 L60.376569,153.368421 L60.376569,152.69287 C60.376569,141.900808 56.2476497,131.749264 48.7556469,124.110282 Z" id="Path" fill="#4A555F"></path>
            <rect id="Rectangle" fill="#4A555F" x="202.343096" y="42.4210526" width="4.89539749" height="84.8421053"></rect>
            <path d="M87.9578713,117.473684 L68.7393792,137.158344 C61.2432081,144.801895 57.1129707,154.954202 57.1129707,165.745502 L57.1129707,166.421053 L61.9355774,166.421053 L61.9355774,165.745502 C61.9355774,156.26113 65.5645214,147.337306 72.1585144,140.615307 L91.3807531,120.926078 L87.9578713,117.473684 Z" id="Path" fill="#4A555F"></path>
        </g>
    </g>
</svg>