<?xml version="1.0" encoding="UTF-8"?>
<svg width="497px" height="485px" viewBox="0 0 497 485" version="1.1" xmlns="http://www.w3.org/2000/svg" xmlns:xlink="http://www.w3.org/1999/xlink">
    <!-- Generator: Sketch 57.1 (83088) - https://sketch.com -->
    <title>Growing Copy</title>
    <desc>Created with Sketch.</desc>
    <defs>
        <filter x="-3.6%" y="-3.7%" width="107.2%" height="107.4%" filterUnits="objectBoundingBox" id="filter-1">
            <feOffset dx="0" dy="3" in="SourceAlpha" result="shadowOffsetOuter1"></feOffset>
            <feGaussianBlur stdDeviation="3" in="shadowOffsetOuter1" result="shadowBlurOuter1"></feGaussianBlur>
            <feColorMatrix values="0 0 0 0 0   0 0 0 0 0   0 0 0 0 0  0 0 0 0.5 0" type="matrix" in="shadowBlurOuter1" result="shadowMatrixOuter1"></feColorMatrix>
            <feMerge>
                <feMergeNode in="shadowMatrixOuter1"></feMergeNode>
                <feMergeNode in="SourceGraphic"></feMergeNode>
            </feMerge>
        </filter>
    </defs>
    <g id="Upgrade-Page" stroke="none" stroke-width="1" fill="none" fill-rule="evenodd">
        <g id="Growing-Copy" filter="url(#filter-1)" transform="translate(6.000000, 3.000000)" fill-rule="nonzero">
            <path d="M447.1504,469.41727 C466.329509,469.41727 481.93863,453.788665 481.93863,434.582185 L481.93863,38.0159168 C481.93863,32.2057265 480.486581,26.4602736 477.742197,21.4103782 C476.176936,18.518697 474.158854,15.8232757 471.738312,13.3981643 C470.251724,11.8863086 468.523377,10.4487638 466.604499,9.12728145 C464.698973,7.85401799 462.70817,6.77991068 460.692536,5.93644662 C456.374085,4.10692747 451.823296,3.1808312 447.1504,3.1808312 L37.9382309,3.1808312 C33.262677,3.1808312 28.7122529,4.10606673 24.3967978,5.9350529 C22.335814,6.80719352 20.3458994,7.88203186 18.482544,9.12732996 C16.56526,10.4474456 14.8366617,11.8865541 13.3499216,13.3986877 C10.9358492,15.8154474 8.91624196,18.5117383 7.34586142,21.4111303 C4.60191913,26.4604879 3.15,32.2041042 3.15,38.0159168 L3.15,434.582185 C3.15,453.787986 18.7603377,469.41727 37.9382309,469.41727 L447.1504,469.41727 Z" id="Path" stroke="#EC8D53" stroke-width="6.3" fill="#FFFFFF"></path>
            <g id="ARTIFICIAL-NOOSPHERE" transform="translate(28.000000, 47.000000)">
                <path d="M289.959812,115.066208 C292.101732,117.437771 294.122777,119.92937 296.002663,122.500161 L296.002663,46.6435018 C296.002663,40.2457012 290.949626,34.6848245 284.463007,34.5656212 C277.753236,34.4264117 272.316446,39.6880297 272.316446,46.1850275 L272.316446,99.3805517 C278.803064,103.904443 284.745328,109.1869 289.959812,115.066208 Z M416.718518,137.827374 C416.496211,137.60814 416.192758,137.488937 415.909592,137.488937 C415.768432,137.488937 415.586698,137.508943 415.303532,137.688164 C411.766913,139.999709 407.765395,143.209029 405.582902,146.956014 C403.54157,150.46376 399.640639,152.496885 395.538533,152.496885 C394.951914,152.496885 394.386427,152.456872 393.840381,152.357675 C388.160997,151.540757 383.755439,146.716774 383.755439,140.877479 C383.755439,140.857472 383.755439,140.857472 383.755439,140.837466 L383.775725,53.9790908 C383.775725,50.8497952 382.543318,47.9197276 380.319407,45.7073806 C378.076055,43.4950337 375.104923,42.2788263 371.931772,42.2788263 C365.383448,42.2788263 360.068377,47.5204381 360.068377,53.9582511 L360.027804,144.464415 C360.027804,149.965273 355.500526,154.429979 349.922575,154.429979 C347.133177,154.429979 344.607503,153.313803 342.768191,151.519918 C340.949165,149.706027 339.817346,147.214427 339.817346,144.464415 L339.797059,24.620063 C339.797059,17.7037696 333.652776,12.1829053 326.457819,13.0998539 C320.515556,13.8367471 316.21143,19.1183712 316.21143,25.0185188 L316.21143,144.444409 C316.21143,148.112203 314.210671,151.32069 311.219252,153.03455 C313.866645,161.963963 315.28163,171.411034 315.28163,181.196543 C315.28163,222.772661 289.594654,258.428625 253.01381,273.576617 L264.816346,289.939982 L384.319235,290 L393.737258,278.241384 L412.229277,254.523258 L412.33071,254.403221 L412.411856,254.284017 L412.613876,254.044777 C415.382988,250.696248 416.939134,246.331572 416.95942,241.84686 L417,138.545095 C417,138.205824 416.920538,138.006596 416.718518,137.827374 Z M247.254971,68.2484786 C243.394613,67.5107518 240,70.4208133 240,74.1077803 L240,84.4317883 C244.142679,85.5279587 248.185616,86.8633693 252.105988,88.4580263 L252.105988,74.3478542 C252.105988,71.4577988 250.144957,68.8069837 247.254971,68.2484786 Z" id="Shape" fill="#DFDFDF"></path>
                <path d="M239.033754,300 L239,380.927698 L411.966246,381 L412,300 L239.033754,300 Z M405.915065,375.037151 L245.054557,374.968174 L245.084091,305.961186 L405.944599,305.961186 L405.915065,375.037151 Z" id="Shape" fill="#4A555F"></path>
                <polygon id="Path" fill="#3F2E61" points="253.023505 313 253 367.936203 398.976495 368 399 313"></polygon>
                <path d="M376.500002,323 C366.854538,323 359.004348,330.846715 359.000002,340.493048 C358.995659,350.141988 366.843242,357.994786 376.493049,358 L376.500002,358 C376.500002,358 376.500002,358 376.50087,358 C386.145463,358 393.995653,350.152416 394.000002,340.506952 C394.003474,330.858012 386.15676,323.004345 376.500002,323 Z M376.500001,351.766076 L376.500001,354.882169 L376.495656,351.766076 C370.283457,351.7626 365.23132,346.706986 365.233057,340.493917 C365.234796,334.284324 370.290408,329.232186 376.504345,329.232186 C382.716545,329.234793 387.76955,334.291276 387.766944,340.504345 C387.764337,346.714807 382.709593,351.767814 376.500001,351.766076 Z" id="Shape" fill="#C5C8CA"></path>
                <path d="M422.544573,127.052977 C417.850321,124.545038 412.390437,124.801875 407.944362,127.735358 C403.311732,130.786349 399.575577,134.095016 396.784013,137.593373 L396.819467,54.2656626 C396.819467,40.5853069 385.60847,29.42632 371.83467,29.4817162 C365.189615,29.4817162 358.939617,32.0534451 354.231859,36.7268742 C353.768428,37.1876703 353.325255,37.6618957 352.903186,38.1503899 L352.901498,24.7444975 C352.901498,18.130521 350.315059,11.9143904 345.616587,7.24431865 C340.918959,2.57256826 334.667272,0 328.015465,0 C314.282183,0 303.110017,11.1002334 303.110017,24.7444975 L303.110017,30.3093026 C298.531412,25.0491769 291.753828,21.7144905 284.177689,21.7144905 C270.444407,21.7144905 259.272241,32.8147239 259.272241,46.4589881 L259.272241,60.6773588 C255.699004,57.3401544 251.070596,55.5095602 246.173751,55.5095602 C235.601766,55.5095602 227,64.0624054 227,74.5742634 L227,82.8425734 L233.055002,82.8425734 L233.055002,74.5742634 C233.055002,67.3819837 238.940332,61.5301253 246.173751,61.5301253 C249.659197,61.5301253 252.949647,62.8923695 255.42888,65.3566632 C257.90727,67.8385831 259.272241,71.1128372 259.272241,74.5742634 L259.272241,93.779136 L265.327243,93.779136 L265.327243,46.4598274 C265.327243,36.1351415 273.783817,27.735895 284.278986,27.735895 C294.662727,27.735895 303.110017,36.1351415 303.110017,46.4598274 L303.110017,140.479014 L309.165019,140.479014 L309.165019,24.7444975 C309.165019,14.4198117 317.621593,6.02056514 328.015465,6.02056514 C333.050748,6.02056514 337.780453,7.96614857 341.335963,11.5014365 C344.889784,15.0350458 346.84734,19.738691 346.84734,24.7444975 L346.866755,155.469575 L352.921757,155.430126 L352.962276,54.2849673 C352.962276,49.2606954 354.932494,44.5385847 358.510795,40.9865101 C362.07559,37.4478648 366.806139,35.5006027 371.840579,35.5006027 L371.874344,35.5006027 C382.291007,35.5006027 390.765309,43.9183146 390.765309,54.3025934 L390.72479,203.936257 L396.779792,203.936257 L396.779792,153.379625 C396.859141,145.981708 401.740791,139.041229 411.290525,132.752076 C413.849951,131.067527 416.98508,130.917285 419.682101,132.355909 C422.35211,133.781943 423.946686,136.435088 423.946686,139.453344 L423.906168,243.459803 C423.888441,249.503869 421.819458,255.389301 418.074862,260.06273 L399.21091,284.466457 L387.665634,298.979435 L261.259342,298.979435 L245.716228,277.187725 L240.776333,280.670135 L258.130966,305 L390.594793,305 L403.985354,288.166255 L422.368992,264.351743 C422.493081,264.220806 422.593533,264.094066 422.675414,263.980756 C427.352783,258.222064 429.938378,250.945011 429.960326,243.469875 L430,139.455862 C430,134.180628 427.2135,129.544969 422.544573,127.052977 Z" id="Path" fill="#4A555F"></path>
                <path d="M157.683553,99.3805517 L157.683553,46.1850275 C157.683553,39.6871961 152.246762,34.4255782 145.536991,34.5656212 C139.049527,34.6848245 133.99649,40.2457012 133.99649,46.6435018 L133.99649,122.500994 C135.876375,119.92937 137.897421,117.438604 140.039341,115.067042 C145.25467,109.1869 151.196089,103.904443 157.683553,99.3805517 Z M114.716676,181.197377 C114.716676,171.411034 116.131662,161.963963 118.779054,153.035384 C115.787636,151.32069 113.786877,148.112203 113.786877,144.445242 L113.786877,25.0185188 C113.786877,19.1183712 109.481905,13.8367471 103.540487,13.0998539 C96.3455301,12.1829053 90.2020917,17.7037696 90.2020917,24.620063 L90.1818052,144.464415 C90.1818052,147.214427 89.0499857,149.706027 87.2309599,151.519918 C85.3916476,153.313803 82.8659742,154.429979 80.0765759,154.429979 C74.4986246,154.429979 69.9713467,149.965273 69.9713467,144.464415 L69.9307736,53.9582511 C69.9307736,47.5204381 64.615702,42.2788263 58.0673782,42.2788263 C54.8942264,42.2788263 51.9230946,43.4950337 49.6797421,45.7073806 C47.4566762,47.9197276 46.2242693,50.8497952 46.2242693,53.9790908 L46.2445559,140.837466 C46.2445559,140.857472 46.2445559,140.857472 46.2445559,140.877479 C46.2445559,146.716774 41.8389971,151.540757 36.1596132,152.357675 C35.6135673,152.456872 35.0480802,152.496885 34.4623066,152.496885 C30.3593553,152.496885 26.4592693,150.46376 24.417937,146.956014 C22.2354441,143.209029 18.2339255,139.999709 14.6973066,137.688164 C14.4141404,137.508943 14.2324069,137.488937 14.0904011,137.488937 C13.8080802,137.488937 13.5046275,137.608973 13.2823209,137.827374 C13.0803009,138.006596 13,138.205824 13,138.545095 L13.0405731,241.84686 C13.0608596,246.331572 14.6170057,250.696248 17.3852722,254.044777 L17.5872923,254.284017 L17.6684384,254.403221 L17.7690258,254.523258 L36.2618911,278.241384 L45.679914,290 L165.182808,289.939982 L176.986189,273.576617 C140.403653,258.429459 114.716676,222.772661 114.716676,181.197377 Z M182.744183,68.2484786 C179.854198,68.8061501 177.894011,71.4577988 177.894011,74.3478542 L177.894011,88.4580263 C181.814384,86.8642029 185.856476,85.5279587 190,84.4317883 L190,74.1077803 C190,70.4216469 186.604542,67.5115854 182.744183,68.2484786 Z" id="Shape" fill="#DFDFDF"></path>
                <path d="M190.966246,300 L18,300 L18.0337536,381 L191,380.927698 L190.966246,300 Z M24.0849352,375.037151 L24.0554008,305.961186 L184.915909,305.961186 L184.945443,374.968174 L24.0849352,375.037151 Z" id="Shape" fill="#4A555F"></path>
                <polygon id="Path" fill="#3F2E61" points="176.976495 313 31 313 31.0235051 368 177 367.936203"></polygon>
                <path d="M53.4926133,323 C48.8189959,323.001738 44.4234666,324.824818 41.1203019,328.131213 C37.8162682,331.437609 35.9973985,335.832812 36.0000028,340.506952 C36.0043507,350.152416 43.8542551,358 53.4995655,358 L53.5073867,358 C58.1818731,357.998262 62.5765334,356.175182 65.8796981,352.868787 C69.1846008,349.562391 71.0026015,345.167188 71.0000028,340.493048 C70.9973873,330.846715 63.1466139,323 53.4926133,323 Z M61.4711334,348.462287 C59.3437598,350.59211 56.5142138,351.764338 53.5047796,351.766945 L53.4995655,354.883038 L53.4995655,351.766945 C47.2895116,351.766945 42.2352612,346.714807 42.2326522,340.504345 C42.2309161,337.495134 43.401493,334.665798 45.5288666,332.537713 C47.6562402,330.40789 50.4857862,329.235662 53.5004345,329.233924 C59.7104884,329.233924 64.7647388,334.286062 64.7673502,340.496524 C64.7699529,343.503997 63.598507,346.333333 61.4711334,348.462287 Z" id="Shape" fill="#C5C8CA"></path>
                <path d="M183.825644,55.5084153 C178.929705,55.5084153 174.30473,57.3373209 170.726474,60.6787035 L170.726474,46.4587324 C170.726474,32.8145433 159.553602,21.714371 145.720885,21.714371 C138.204774,21.714371 131.456819,25.044003 126.890089,30.2982245 L126.890089,24.7443613 C126.890089,11.1001723 115.717217,0 101.984107,0 C95.3332266,0 89.0824625,2.5725541 84.3840489,7.24427878 C79.6864794,11.9143248 77.0992286,18.1295819 77.0992286,24.743522 L77.0975404,38.1510193 C76.6746325,37.6625278 76.2314656,37.1866263 75.7680396,36.7266721 C71.0594964,32.0532687 64.8104206,29.4815539 58.1705138,29.4815539 L58.1266191,29.4815539 C44.3707175,29.4815539 33.1809635,40.5993522 33.1809635,54.3064912 L33.2164168,137.589258 C30.4240431,134.094278 26.6896231,130.785629 22.0587396,127.735495 C17.6084995,124.802028 12.1520594,124.546871 7.45533401,127.052278 C2.78730898,129.543417 0,134.180729 0,139.455094 L0.0405181196,243.476928 C0.0624654344,250.945309 2.64802794,258.221482 7.32618251,263.980142 C7.40721875,264.092613 7.50682579,264.216834 7.62838015,264.346931 L26.0421773,288.201599 L39.4047155,305 L171.86689,305 L189.221307,280.670269 L184.281473,277.187878 L168.738553,298.979468 L42.3355261,298.979468 L30.8190947,284.500982 L11.9891428,260.108301 L11.9351186,260.07221 C8.18550429,255.397128 6.1131713,249.508371 6.09544462,243.466856 L6.0549265,139.454255 C6.0549265,136.435176 7.64948334,133.782046 10.3194586,132.356859 C13.0130694,130.916565 16.1523796,131.064287 18.7126183,132.753024 C28.2672973,139.0455 33.1480425,145.990137 33.2214816,153.361994 L33.2214816,203.935974 L39.2764081,203.935974 L39.2350458,54.2636852 C39.2350458,43.9180729 47.7092417,35.5004073 58.1308398,35.5004073 L58.1646049,35.5004073 C63.1939165,35.5004073 67.9244069,37.4476587 71.4891573,40.9862845 C75.0674138,44.5383396 77.0376073,49.2604242 77.0376073,54.2855079 L77.0781255,155.468719 L83.133052,155.42927 L83.153311,24.743522 C83.153311,19.7369037 85.1108427,15.0341237 88.6646194,11.5005339 C92.2192403,7.96610473 96.9497308,6.01969267 101.983263,6.01969267 C112.377849,6.01969267 120.835162,14.418893 120.835162,24.743522 L120.835162,140.477401 L126.890089,140.477401 L126.890089,46.4587324 C126.890089,36.1341033 135.338117,27.734903 145.821336,27.734903 C156.215078,27.734903 164.671547,36.1341033 164.671547,46.4587324 L164.671547,93.7786199 L170.726474,93.7786199 L170.726474,74.5730137 C170.726474,71.1124458 172.091428,67.8382097 174.563877,65.3630182 C177.048989,62.8903446 180.338553,61.5289473 183.825644,61.5289473 C191.058972,61.5289473 196.945073,67.3807735 196.945073,74.5730137 L196.945073,82.8412781 L203,82.8412781 L203,74.5730137 C203,64.0612135 194.398341,55.5084153 183.825644,55.5084153 Z" id="Path" fill="#4A555F"></path>
                <path d="M215,79 C157.653647,79 111,125.653647 111,183 C111,240.346353 157.653647,287 215,287 C272.346353,287 319,240.346353 319,183 C319,125.653647 272.346353,79 215,79 Z M215,281.311763 C160.791229,281.311763 116.688237,237.208771 116.688237,183 C116.688237,128.791229 160.791229,84.6882368 215,84.6882368 C269.208771,84.6882368 313.311763,128.790387 313.311763,183 C313.311763,237.209613 269.208771,281.311763 215,281.311763 Z" id="Shape" fill="#4A555F"></path>
                <path d="M215.000832,92 C165.374866,92 125,132.598522 125,182.500418 C125,232.402315 165.374866,273 215.000832,273 C264.626798,273 305,232.402315 305,182.500418 C305,132.597685 264.626798,92 215.000832,92 Z" id="Path" fill="#EC8D53"></path>
                <path d="M214.000835,79 C182.570234,79 157,125.65367 157,182.999579 C157,240.345487 182.570234,287 214.000835,287 C245.430601,287 271,240.345487 271,182.999579 C271,125.65367 245.430601,79 214.000835,79 Z M214.000835,281.31022 C185.679067,281.31022 162.639977,237.207896 162.639977,182.999579 C162.639977,128.791262 185.679902,84.6897801 214.000835,84.6897801 C242.320933,84.6897801 265.360858,128.792104 265.360858,182.999579 C265.360858,237.208738 242.321768,281.31022 214.000835,281.31022 Z" id="Shape" fill="#4A555F"></path>
                <rect id="Rectangle" fill="#4A555F" x="115" y="181" width="201" height="5"></rect>
                <path d="M288.075891,114 C287.763985,114.294293 256.377853,143.36842 213.215178,143.36842 C170.183166,143.36842 140.326215,114.342647 140.030326,114.049188 L136,118.027559 C137.275441,119.291434 167.756204,149 213.215178,149 C258.63116,149 290.659649,119.340622 292,118.078415 L288.075891,114 Z" id="Path" fill="#4A555F"></path>
                <path d="M216.785239,214 C171.368659,214 139.340344,243.658799 138,244.92178 L141.924931,249 C142.236835,248.705721 173.622797,219.631312 216.786082,219.631312 C259.817019,219.631312 289.673809,248.656536 289.969696,248.949981 L294,244.972632 C292.723723,243.707984 262.243968,214 216.785239,214 Z" id="Path" fill="#4A555F"></path>
                <rect id="Rectangle" fill="#4A555F" x="213" y="81" width="5" height="201"></rect>
                <path d="M148.412735,120 L145,124.120793 C148.652138,126.646662 152.272466,128.897149 156.06858,131 L159,126.583171 C155.3713,124.572114 151.908341,122.418776 148.412735,120 Z" id="Path" fill="#4A555F"></path>
                <path d="M261.821258,132 C261.169188,132.098421 260.556529,132.279724 260,132.540947 L263,135 L261.821258,132 Z" id="Path" fill="#4A555F"></path>
                <path d="M286.656153,238 L283,242.868116 C287.367583,246.455053 289.793628,248.97434 289.817284,249 L294,244.622178 C293.893986,244.509456 291.328634,241.838957 286.656153,238 Z" id="Path" fill="#4A555F"></path>
            </g>
        </g>
    </g>
</svg>