<?xml version="1.0" encoding="UTF-8"?>
<svg width="400px" height="400px" viewBox="0 0 400 400" version="1.1" xmlns="http://www.w3.org/2000/svg" xmlns:xlink="http://www.w3.org/1999/xlink">
    <!-- Generator: Sketch 53.2 (72643) - https://sketchapp.com -->
    <title>3.2-home-upgrade-simple-open-source</title>
    <desc>Created with Sketch.</desc>
    <g id="3.2-home-upgrade-simple-open-source" stroke="none" stroke-width="1" fill="none" fill-rule="evenodd">
        <g id="ARTIFICIAL-NOOSPHERE" transform="translate(4.000000, 26.000000)" fill-rule="nonzero">
            <path d="M265.863383,105.117472 C267.811325,107.290353 269.649341,109.573215 271.358979,111.928634 L271.358979,42.4269765 C271.358979,36.5651609 266.763557,31.4701548 260.864381,31.3609379 C254.762262,31.2333909 249.81784,36.0542092 249.81784,42.0069116 L249.81784,90.7459035 C255.717015,94.8907991 261.121134,99.7307112 265.863383,105.117472 Z M381.142533,125.971787 C380.940359,125.77092 380.664388,125.661703 380.406866,125.661703 C380.278489,125.661703 380.113214,125.680033 379.855692,125.84424 C376.639358,127.962132 373.000226,130.902586 371.015384,134.335663 C369.15892,137.549542 365.611266,139.412339 361.880656,139.412339 C361.347163,139.412339 360.832887,139.375679 360.336293,139.284792 C355.171247,138.536312 351.164665,134.116465 351.164665,128.766365 C351.164665,128.748035 351.164665,128.748035 351.164665,128.729705 L351.183115,49.1480159 C351.183115,46.2808816 350.062317,43.5962846 348.039809,41.5692803 C345.999619,39.5422759 343.29756,38.4279581 340.411776,38.4279581 C334.456484,38.4279581 329.622757,43.2304462 329.622757,49.1289221 L329.585858,132.052801 C329.585858,137.092816 325.468581,141.183485 320.395782,141.183485 C317.858998,141.183485 315.562055,140.160818 313.889315,138.517219 C312.235025,136.855289 311.205706,134.572427 311.205706,132.052801 L311.187256,22.2485833 C311.187256,15.9117124 305.599413,10.8533665 299.056048,11.6934964 C293.651929,12.3686554 289.737595,17.2078037 289.737595,22.6136579 L289.737595,132.034471 C289.737595,135.39499 287.918029,138.334681 285.19752,139.90496 C287.605159,148.086298 288.892,156.741928 288.892,165.707642 C288.892,203.80066 265.531295,236.469494 232.263295,250.34844 L242.996966,265.340941 L351.677403,265.395931 L360.242508,254.62241 L377.059849,232.891304 L377.152095,232.781324 L377.225893,232.672107 L377.409617,232.452909 C379.927952,229.384907 381.34317,225.385889 381.361619,221.27689 L381.398518,126.62938 C381.399287,126.318532 381.326258,126.135995 381.142533,125.971787 Z M227.025989,62.2219651 C223.515233,61.5460424 220.428044,64.2123092 220.428044,67.5903953 L220.428044,77.0494945 C224.195553,78.0538316 227.872352,79.2773663 231.437687,80.7384286 L231.437687,67.8103566 C231.437687,65.1624198 229.654251,62.7336806 227.025989,62.2219651 Z" id="Shape" fill="#DFDFDF"></path>
            <path d="M219.0087,274.097437 L218.97786,347.994217 L377.01713,348.060237 L377.04797,274.097437 L219.0087,274.097437 Z M371.488165,342.615435 L224.509909,342.55245 L224.536894,279.540721 L371.51515,279.540721 L371.488165,342.615435 Z" id="Shape" fill="#4A555F"></path>
            <polygon id="Path" fill="#3F2E61" points="232.051 285.699445 232.02952 336.399352 365.425015 336.458229 365.446494 285.699445"></polygon>
            <path d="M343.693727,294.400951 C334.901458,294.400951 327.74566,301.553909 327.741699,310.347375 C327.737739,319.143216 334.891161,326.30172 343.68739,326.306473 L343.693727,326.306473 C343.693727,326.306473 343.693727,326.306473 343.694519,326.306473 C352.485997,326.306473 359.641795,319.152722 359.645755,310.360049 C359.648924,301.564207 352.496294,294.404911 343.693727,294.400951 Z M343.693727,320.623712 L343.693727,323.4643 L343.689767,320.623712 C338.02707,320.620544 333.421822,316.011916 333.423406,310.348167 C333.42499,304.687586 338.033407,300.082127 343.697688,300.082127 C349.360384,300.084503 353.966425,304.693923 353.964048,310.357672 C353.961672,316.019045 349.354048,320.625297 343.693727,320.623712 Z" id="Shape" fill="#C5C8CA"></path>
            <path d="M386.182742,115.992366 C381.890309,113.702755 376.897779,113.937234 372.832279,116.615342 C368.596193,119.400728 365.179846,122.421359 362.627233,125.615166 L362.659652,49.5415591 C362.659652,37.0521484 352.408294,26.8646083 339.813503,26.915182 C333.737251,26.915182 328.02224,29.2630288 323.717457,33.5296119 C323.293694,33.9502934 322.888456,34.3832351 322.502515,34.8292034 L322.500972,22.5903624 C322.500972,16.5521665 320.135926,10.8771817 315.839634,6.61366366 C311.544113,2.34861304 305.827558,0 299.745132,0 C287.187391,0 276.971539,10.1339013 276.971539,22.5903624 L276.971539,27.6707228 C272.784853,22.8685179 266.587417,19.8241331 259.65978,19.8241331 C247.102039,19.8241331 236.886187,29.9580343 236.886187,42.4144955 L236.886187,55.3950844 C233.618812,52.3484007 229.386586,50.677169 224.908901,50.677169 C215.241857,50.677169 207.376384,58.4854453 207.376384,68.0821924 L207.376384,75.6307036 L212.91309,75.6307036 L212.91309,68.0821924 C212.91309,61.5160373 218.294648,56.1736132 224.908901,56.1736132 C228.096,56.1736132 231.104794,57.417267 233.37181,59.6670314 C235.638054,61.9328874 236.886187,64.922101 236.886187,68.0821924 L236.886187,85.6151825 L242.422893,85.6151825 L242.422893,42.4152618 C242.422893,32.9893926 250.155602,25.3213435 259.752406,25.3213435 C269.24732,25.3213435 276.971539,32.9893926 276.971539,42.4152618 L276.971539,128.249597 L282.508245,128.249597 L282.508245,22.5903624 C282.508245,13.1644933 290.240954,5.49644414 299.745132,5.49644414 C304.349405,5.49644414 308.674258,7.27265459 311.925423,10.5001776 C315.175044,13.7261681 316.965037,18.020337 316.965037,22.5903624 L316.98279,141.935153 L322.519497,141.899138 L322.556547,49.5591833 C322.556547,44.9722999 324.358119,40.6612731 327.630124,37.4184247 C330.88978,34.1878366 335.215404,32.4100936 339.818906,32.4100936 L339.849781,32.4100936 C349.374799,32.4100936 357.123718,40.0950007 357.123718,49.5752749 L357.086668,186.182563 L362.623374,186.182563 L362.623374,140.027144 C362.695931,133.273254 367.159722,126.936979 375.892018,121.195329 C378.232362,119.657428 381.09913,119.520266 383.565292,120.83365 C386.006753,122.135541 387.464837,124.557715 387.464837,127.313217 L387.427787,222.265381 C387.411578,227.783281 385.519696,233.156356 382.09563,237.422939 L364.846393,259.702197 L354.289369,272.951746 L238.703196,272.951746 L224.490541,253.057116 L219.97349,256.236364 L235.842603,278.44819 L356.967798,278.44819 L369.212155,263.079908 L386.022191,241.338571 C386.135657,241.219034 386.227511,241.103327 386.302384,240.999881 C390.579379,235.742512 392.943653,229.098964 392.963722,222.274577 L393,127.315516 C393,122.499518 390.452019,118.267417 386.182742,115.992366 Z" id="Path" fill="#4A555F"></path>
            <path d="M143.182159,90.7459035 L143.182159,42.0069116 C143.182159,36.0534454 138.237736,31.2326272 132.135618,31.3609379 C126.235673,31.4701548 121.64025,36.5651609 121.64025,42.4269765 L121.64025,111.929398 C123.349889,109.573215 125.187904,107.291117 127.135847,105.118235 C131.878864,99.7307112 137.282214,94.8907991 143.182159,90.7459035 Z M104.10646,165.708405 C104.10646,156.741928 105.393301,148.086298 107.80094,139.905724 C105.080431,138.334681 103.260865,135.39499 103.260865,132.035234 L103.260865,22.6136579 C103.260865,17.2078037 99.3457619,12.3686554 93.9424118,11.6934964 C87.3990464,10.8533665 81.8119717,15.9117124 81.8119717,22.2485833 L81.7935223,132.052801 C81.7935223,134.572427 80.764203,136.855289 79.1099123,138.517219 C77.4371723,140.160818 75.1402296,141.183485 72.6034455,141.183485 C67.5306461,141.183485 63.4133687,137.092816 63.4133687,132.052801 L63.37647,49.1289221 C63.37647,43.2304462 58.5427433,38.4279581 52.5874505,38.4279581 C49.7016665,38.4279581 46.9996071,39.5422759 44.9594177,41.5692803 C42.9376777,43.5962846 41.8168804,46.2808816 41.8168804,49.1480159 L41.8353297,128.729705 C41.8353297,128.748035 41.8353297,128.748035 41.8353297,128.766365 C41.8353297,134.116465 37.8287483,138.536312 32.6637022,139.284792 C32.1671076,139.375679 31.6528322,139.412339 31.1201076,139.412339 C27.3887288,139.412339 23.8418435,137.549542 21.9853788,134.335663 C20.0005374,130.902586 16.3614054,127.962132 13.1450707,125.84424 C12.8875487,125.680033 12.7222733,125.661703 12.593128,125.661703 C12.3363747,125.661703 12.0604033,125.771684 11.8582293,125.971787 C11.6745046,126.135995 11.601476,126.318532 11.601476,126.62938 L11.6383747,221.27689 C11.656824,225.385889 13.072042,229.384907 15.5896081,232.452909 L15.7733327,232.672107 L15.8471301,232.781324 L15.938608,232.891304 L32.7567177,254.62241 L41.3218231,265.395931 L150.002265,265.340941 L160.736705,250.34844 C127.467166,236.470258 104.10646,203.80066 104.10646,165.708405 Z M165.973242,62.2219651 C163.34498,62.7329168 161.562313,65.1624198 161.562313,67.8103566 L161.562313,80.7384286 C165.127648,79.27813 168.803678,78.0538316 172.571956,77.0494945 L172.571956,67.5903953 C172.571956,64.213073 169.483998,61.5468061 165.973242,62.2219651 Z" id="Shape" fill="#DFDFDF"></path>
            <path d="M173.9913,274.097437 L15.9520295,274.097437 L15.9828702,348.060237 L174.02214,347.994217 L173.9913,274.097437 Z M21.5118352,342.615435 L21.4848496,279.540721 L168.463106,279.540721 L168.490091,342.55245 L21.5118352,342.615435 Z" id="Shape" fill="#4A555F"></path>
            <polygon id="Path" fill="#3F2E61" points="160.949 285.699445 27.5535055 285.699445 27.5749848 336.458229 160.97048 336.399352"></polygon>
            <path d="M49.2995397,294.400951 C45.0393286,294.402535 41.0326072,296.064429 38.021625,299.078494 C35.0098506,302.092559 33.3518696,306.099167 33.3542461,310.360049 C33.3582069,319.152722 40.5137455,326.306473 49.305877,326.306473 L49.3130064,326.306473 C53.5740096,326.304888 57.5799389,324.642994 60.5909211,321.628929 C63.6034876,318.614864 65.2606765,314.608256 65.2583,310.347375 C65.2559236,301.553909 58.0995928,294.400951 49.2995397,294.400951 Z M56.5723174,317.612024 C54.6331212,319.553541 52.0538637,320.622128 49.3106299,320.624505 L49.305877,323.465092 L49.305877,320.624505 C43.6451353,320.624505 39.0379602,316.019045 39.0355838,310.357672 C39.0339995,307.614517 40.1010326,305.035333 42.0402287,303.0954 C43.9794249,301.153882 46.5586825,300.085295 49.3066691,300.083711 C54.9674108,300.083711 59.5745859,304.689171 59.5769624,310.350543 C59.5793388,313.092114 58.5115135,315.671299 56.5723174,317.612024 Z" id="Shape" fill="#C5C8CA"></path>
            <path d="M168.090546,50.6761239 C163.613689,50.6761239 159.384603,52.3458138 156.112638,55.396312 L156.112638,42.4142621 C156.112638,29.9578694 145.896141,19.824024 133.247476,19.824024 C126.374728,19.824024 120.204384,22.8637945 116.028557,27.660609 L116.028557,22.5902381 C116.028557,10.1338455 105.812061,0 93.2544767,0 C87.1728979,0 81.4571864,2.34860011 77.1609473,6.61362726 C72.8654802,10.8771219 70.4996928,16.5513091 70.4996928,22.5894718 L70.498149,34.8297779 C70.1114412,34.3838121 69.7062084,33.9493402 69.2824508,33.5294274 C64.9769492,29.2628677 59.2627815,26.9150339 53.1912371,26.9150339 L53.1510997,26.9150339 C40.5726751,26.9150339 30.340741,37.0649709 30.340741,49.5788334 L30.3731597,125.611409 C27.8198074,122.420685 24.405046,119.400071 20.1705567,116.615466 C16.101248,113.937373 11.111868,113.704428 6.81717271,115.991727 C2.54872105,118.266 0,122.49961 0,127.314815 L0.0370498517,222.281016 C0.0571185213,229.099236 2.42136218,235.741981 6.69907631,240.999321 C6.77317601,241.102 6.86425689,241.215407 6.97540645,241.334178 L23.8130203,263.112176 L36.0317526,278.44819 L157.155436,278.44819 L173.024351,256.236486 L168.507357,253.057256 L154.294879,272.951776 L38.7116919,272.951776 L28.1810434,259.733717 L10.9628967,237.464543 L10.9134969,237.431594 C7.48484191,233.163502 5.58989637,227.787391 5.57368706,222.271821 L5.53663721,127.314049 C5.53663721,124.557796 6.99470325,122.135635 9.4361341,120.834518 C11.8991774,119.519608 14.769769,119.654471 17.1108565,121.196195 C25.8476746,126.940878 30.310638,133.280949 30.3777909,140.011048 L30.3777909,186.182304 L35.9144281,186.182304 L35.8766064,49.5397539 C35.8766064,40.09478 43.6254285,32.4099152 53.1549591,32.4099152 L53.1858339,32.4099152 C57.7846468,32.4099152 62.110217,34.1876484 65.369832,37.4182188 C68.6417971,40.6610493 70.4433461,44.9720523 70.4433461,49.5596768 L70.480396,141.934372 L76.0170332,141.898357 L76.0355581,22.5894718 C76.0355581,18.0187052 77.8255291,13.7253263 81.0751098,10.4993536 C84.3254624,7.27261456 88.6510326,5.49564763 93.2537048,5.49564763 C102.758535,5.49564763 110.49192,13.1636546 110.49192,22.5894718 L110.49192,128.248125 L116.028557,128.248125 L116.028557,42.4142621 C116.028557,32.9884448 123.753451,25.3204378 133.339329,25.3204378 C142.843388,25.3204378 150.576,32.9884448 150.576,42.4142621 L150.576,85.6147113 L156.112638,85.6147113 L156.112638,68.0810514 C156.112638,64.9217436 157.360754,61.9325466 159.621567,59.6728331 C161.893958,57.4154185 164.901943,56.1725377 168.090546,56.1725377 C174.704716,56.1725377 180.086979,61.5149325 180.086979,68.0810514 L180.086979,75.6295211 L185.623616,75.6295211 L185.623616,68.0810514 C185.622844,58.4843572 177.758241,50.6761239 168.090546,50.6761239 Z" id="Path" fill="#4A555F"></path>
            <path d="M196.5,72.5125494 C144.123434,72.5125494 101.512915,115.125021 101.512915,167.503989 C101.512915,219.882957 144.123434,262.495429 196.5,262.495429 C248.876566,262.495429 291.487085,219.882957 291.487085,167.503989 C291.487085,115.125021 248.876566,72.5125494 196.5,72.5125494 Z M196.5,257.299912 C146.989105,257.299912 106.708194,217.017154 106.708194,167.503989 C106.708194,117.990824 146.989105,77.7080668 196.5,77.7080668 C246.010895,77.7080668 286.291806,117.990055 286.291806,167.503989 C286.291806,217.017923 246.010895,257.299912 196.5,257.299912 Z" id="Shape" fill="#4A555F"></path>
            <path d="M195.775672,84.1145574 C150.196694,84.1145574 113.114391,121.197968 113.114391,166.779246 C113.114391,212.360524 150.196694,249.44317 195.775672,249.44317 C241.35465,249.44317 278.435424,212.360524 278.435424,166.779246 C278.435424,121.197204 241.35465,84.1145574 195.775672,84.1145574 Z" id="Path" fill="#EC8D53"></path>
            <path d="M195.775672,72.5125494 C166.988196,72.5125494 143.568266,115.125043 143.568266,167.503605 C143.568266,219.882166 166.988196,262.495429 195.775672,262.495429 C224.562384,262.495429 247.98155,219.882166 247.98155,167.503605 C247.98155,115.125043 224.562384,72.5125494 195.775672,72.5125494 Z M195.775672,257.298502 C169.835595,257.298502 148.733955,217.016355 148.733955,167.503605 C148.733955,117.990854 169.83636,77.7094765 195.775672,77.7094765 C221.71422,77.7094765 242.816626,117.991623 242.816626,167.503605 C242.816626,217.017125 221.714985,257.298502 195.775672,257.298502 Z" id="Shape" fill="#4A555F"></path>
            <rect id="Rectangle" fill="#4A555F" x="104.413284" y="165.328613" width="184.173432" height="4.35075297"></rect>
            <path d="M263.259032,104.418071 C262.974882,104.686344 234.381697,131.189921 195.059925,131.189921 C155.857188,131.189921 128.657107,104.730423 128.387548,104.46291 L124.715867,108.089539 C125.877811,109.241671 153.646192,136.323593 195.059925,136.323593 C236.43449,136.323593 265.612871,109.286509 266.833948,108.135898 L263.259032,104.418071 Z" id="Path" fill="#4A555F"></path>
            <path d="M197.940456,195.783884 C156.565346,195.783884 127.387123,222.820439 126.166052,223.971755 L129.741716,227.689405 C130.025865,227.421145 158.618895,200.917311 197.941224,200.917311 C237.142981,200.917311 264.342915,227.376308 264.612472,227.643809 L268.284133,224.018112 C267.121427,222.865276 239.353964,195.783884 197.940456,195.783884 Z" id="Path" fill="#4A555F"></path>
            <rect id="Rectangle" fill="#4A555F" x="194.324723" y="73.9628004" width="4.35055351" height="184.181876"></rect>
            <path d="M135.148351,110.219075 L131.96679,114.022101 C135.371537,116.353193 138.74663,118.430138 142.2856,120.370832 L145.01845,116.294598 C141.635553,114.43862 138.40717,112.451332 135.148351,110.219075 Z" id="Path" fill="#4A555F"></path>
            <path d="M239.591032,120.370832 C238.960617,120.465989 238.368304,120.641278 237.830258,120.893838 L240.730627,123.271334 L239.591032,120.370832 Z" id="Path" fill="#4A555F"></path>
            <path d="M261.506903,217.537648 L258.132841,222.03037 C262.163442,225.340707 264.402305,227.665724 264.424136,227.689405 L268.284133,223.64917 C268.186299,223.545141 265.818877,221.080572 261.506903,217.537648 Z" id="Path" fill="#4A555F"></path>
        </g>
    </g>
</svg>