<?xml version="1.0" encoding="UTF-8"?>
<svg width="497px" height="485px" viewBox="0 0 497 485" version="1.1" xmlns="http://www.w3.org/2000/svg" xmlns:xlink="http://www.w3.org/1999/xlink">
    <!-- Generator: Sketch 57.1 (83088) - https://sketch.com -->
    <title>Growing</title>
    <desc>Created with Sketch.</desc>
    <defs>
        <filter x="-3.6%" y="-3.7%" width="107.2%" height="107.4%" filterUnits="objectBoundingBox" id="filter-1">
            <feOffset dx="0" dy="3" in="SourceAlpha" result="shadowOffsetOuter1"></feOffset>
            <feGaussianBlur stdDeviation="3" in="shadowOffsetOuter1" result="shadowBlurOuter1"></feGaussianBlur>
            <feColorMatrix values="0 0 0 0 0   0 0 0 0 0   0 0 0 0 0  0 0 0 0.5 0" type="matrix" in="shadowBlurOuter1" result="shadowMatrixOuter1"></feColorMatrix>
            <feMerge>
                <feMergeNode in="shadowMatrixOuter1"></feMergeNode>
                <feMergeNode in="SourceGraphic"></feMergeNode>
            </feMerge>
        </filter>
    </defs>
    <g id="Upgrade-Page" stroke="none" stroke-width="1" fill="none" fill-rule="evenodd">
        <g id="Growing" filter="url(#filter-1)" transform="translate(6.000000, 3.000000)" fill-rule="nonzero">
            <path d="M447.1504,469.41727 C466.329509,469.41727 481.93863,453.788665 481.93863,434.582185 L481.93863,38.0159168 C481.93863,32.2057265 480.486581,26.4602736 477.742197,21.4103782 C476.176936,18.518697 474.158854,15.8232757 471.738312,13.3981643 C470.251724,11.8863086 468.523377,10.4487638 466.604499,9.12728145 C464.698973,7.85401799 462.70817,6.77991068 460.692536,5.93644662 C456.374085,4.10692747 451.823296,3.1808312 447.1504,3.1808312 L37.9382309,3.1808312 C33.262677,3.1808312 28.7122529,4.10606673 24.3967978,5.9350529 C22.335814,6.80719352 20.3458994,7.88203186 18.482544,9.12732996 C16.56526,10.4474456 14.8366617,11.8865541 13.3499216,13.3986877 C10.9358492,15.8154474 8.91624196,18.5117383 7.34586142,21.4111303 C4.60191913,26.4604879 3.15,32.2041042 3.15,38.0159168 L3.15,434.582185 C3.15,453.787986 18.7603377,469.41727 37.9382309,469.41727 L447.1504,469.41727 Z" id="Path" stroke="#EC8D53" stroke-width="6.3" fill="#FFFFFF"></path>
            <g id="GROWING" transform="translate(20.000000, 34.000000)">
                <path d="M19.5909091,205.5 L19.5909091,411 L109.149351,411 L109.149351,205.5 L19.5909091,205.5 Z M103.830103,405.5518 L24.9101568,405.5518 L24.9101568,210.949046 L103.830103,210.949046 L103.830103,405.5518 Z" id="Shape" fill="#4A555F"></path>
                <rect id="Rectangle" fill="#EC8D53" x="30.3863636" y="217.081633" width="68.5681818" height="181.734694"></rect>
                <polygon id="Path" fill="#4A555F" points="180.516234 137 180.516234 384.438776 185.835481 384.438776 185.835481 142.40384 264.755428 142.40384 264.755428 302.322239 270.074675 302.322239 270.074675 137"></polygon>
                <polygon id="Path" fill="#4A555F" points="264.760529 391.428571 264.760529 405.685089 250.483766 405.685089 250.483766 411 270.074675 411 270.074675 391.428571"></polygon>
                <polygon id="Path" fill="#EC8D53" points="190.311688 148.183673 190.311688 378.846939 258.87987 311.310435 258.87987 148.183673"></polygon>
                <polygon id="Path" fill="#4A555F" points="341.441558 72.6938776 341.441558 230.366228 346.760806 230.366228 346.760806 78.0992827 425.680752 78.0992827 425.680752 405.594595 346.760806 405.594595 346.760806 322.878876 341.441558 322.878876 341.441558 411 431 411 431 72.6938776"></polygon>
                <polygon id="Path" fill="#EC8D53" points="352 83.877551 352 230.321485 386.704331 230.321485 386.704331 330.988099 359.021334 303.632793 352 310.576132 352 399.816327 420.568182 399.816327 420.568182 83.877551"></polygon>
                <path d="M301.266106,236.255102 L323.056159,257.965089 L169.321429,411 L242.220508,411 L359.506545,294.249149 L380.623377,315.247733 L380.623377,236.277833 L301.266106,236.255102 Z M375.180092,302.177289 L359.502316,286.588732 L239.966568,405.581554 L182.4594,405.581554 L330.751692,257.966773 L314.404077,241.680284 L375.180092,241.695438 L375.180092,302.177289 L375.180092,302.177289 Z" id="Shape" fill="#4A555F"></path>
                <polygon id="Path" fill="#3F2E61" points="328.684851 247.438776 338.74393 257.472487 195.909091 399.816327 235.70369 399.816327 358.640804 277.302424 368.029221 286.649127 368.029221 247.445561"></polygon>
                <path d="M86.8472092,60.5422861 L64.3692674,0 L41.8930506,60.5422861 C41.0219128,62.9727371 40.5811688,65.4778436 40.5811688,67.9879271 C40.5811688,80.6038758 51.2521752,90.8673469 64.3692674,90.8673469 C77.4863595,90.8673469 88.1590909,80.6038758 88.1590909,67.9879271 C88.1590909,65.4778436 87.718347,62.9727371 86.8472092,60.5422861 Z M64.3692674,85.5294793 C54.31237,85.5294793 46.1314376,77.6607904 46.1314376,67.9879271 C46.1314376,66.0701105 46.4712676,64.1498053 47.1302273,62.3083032 L64.3684048,15.8734166 L81.6031324,62.2925426 C82.2698546,64.1581004 82.6079596,66.074258 82.6079596,67.9879271 C82.6088221,77.6607904 74.4261647,85.5294793 64.3692674,85.5294793 Z" id="Shape" fill="#4A555F"></path>
                <path d="M76.3732709,64.8431714 L65.7703014,34.9489796 L55.1993451,64.7473196 C54.7848139,65.958688 54.5746753,67.1923667 54.5746753,68.4136508 C54.5746753,74.6283176 59.5974802,79.6836735 65.7703014,79.6836735 C71.9439434,79.6836735 76.9642857,74.6283176 76.9642857,68.4136508 C76.9642857,67.1923667 76.7541471,65.958688 76.3732709,64.8431714 Z" id="Path" fill="#FFD452"></path>
                <rect id="Rectangle" fill="#4A555F" x="383.422078" y="39.1428571" width="5.5974026" height="36.3469388"></rect>
                <path d="M239.877596,47.9702261 L225.995128,6.98979592 L212.11108,47.9735574 C211.572976,49.6167055 211.301948,51.3123211 211.301948,53.0129335 C211.301948,61.5526399 217.892742,68.5 225.995128,68.5 C234.097514,68.5 240.68831,61.5526399 240.68831,53.0129335 C240.689098,51.3098226 240.4157,49.6125414 239.877596,47.9702261 Z M225.995918,63.1408221 C220.69705,63.1408221 216.387471,58.5978049 216.387471,53.0129335 C216.387471,51.9069524 216.566049,50.7984729 216.910563,49.7466249 L225.995918,22.9274164 L235.074952,49.7316342 C235.425787,50.8068011 235.604365,51.9111165 235.604365,53.0137664 C235.604365,58.5978049 231.293997,63.1408221 225.995918,63.1408221 Z" id="Shape" fill="#4A555F"></path>
                <path d="M398.162328,40.0590197 L386.920866,8.3877551 L375.679403,40.0590197 C375.245989,41.3296647 375.025974,42.6385872 375.025974,43.9516703 C375.025974,50.5503705 380.362588,55.9183673 386.920039,55.9183673 C393.47749,55.9183673 398.814933,50.5503705 398.814933,43.9516703 C398.815758,42.6385872 398.595742,41.3288326 398.162328,40.0590197 Z M386.920866,50.5636844 C383.298056,50.5636844 380.349354,47.5971817 380.349354,43.9516703 C380.349354,43.2318878 380.472595,42.5079446 380.704191,41.8289359 L386.920866,24.3111759 L393.132578,41.8114614 C393.371618,42.5162658 393.493205,43.2360483 393.493205,43.9508382 C393.493205,47.5971817 390.543675,50.5636844 386.920866,50.5636844 Z" id="Shape" fill="#4A555F"></path>
                <path d="M45.6200897,109.299322 C44.3611548,108.040846 42.8898896,106.996987 41.2489273,106.196973 L0,86.6734694 L19.5427493,127.880848 C20.3427498,129.517619 21.3868465,130.985702 22.6474533,132.246684 C25.7153757,135.311454 29.7956289,136.999165 34.1333536,137 C34.1350255,137 34.1333536,137 34.1350255,137 C38.4727501,137 42.5530033,135.312289 45.6192538,132.248354 C48.6871762,129.183584 50.3766234,125.108358 50.3766234,120.774256 C50.3766234,116.438483 48.6863402,112.363257 45.6200897,109.299322 Z M41.8148628,128.447037 C39.762615,130.496341 37.0357586,131.625379 34.1341895,131.625379 C34.1341895,131.625379 34.1341895,131.625379 34.1325176,131.625379 C31.2309485,131.625379 28.5024202,130.496341 26.4518443,128.447037 C25.6133903,127.608609 24.9145393,126.624877 24.3895651,125.551789 L11.3120234,97.9747046 L38.9024264,111.033798 C40.0000237,111.571595 40.9814245,112.266387 41.8148628,113.099804 C43.8671106,115.149943 44.9964739,117.874833 44.9964739,120.77342 C44.9964739,123.672008 43.8679466,126.396898 41.8148628,128.447037 Z" id="Shape" fill="#4A555F"></path>
                <path d="M37.7232044,115.942217 C37.3510813,115.570464 36.9001877,115.253886 36.484605,115.050372 L23.788961,109.040816 L29.753795,121.619818 C30.0064041,122.137197 30.3251081,122.59126 30.6981365,122.963917 C31.6370456,123.901893 32.8865099,124.418367 34.2147448,124.418367 C35.5402635,124.418367 36.7888224,123.902797 37.726826,122.963917 C38.6657351,122.026847 39.1818182,120.780434 39.1818182,119.454424 C39.1818182,118.129319 38.6657351,116.882906 37.7232044,115.942217 Z" id="Path" fill="#FFD452"></path>
                <path d="M90.31762,120.163527 L90.2891978,120.176889 C88.6482355,120.976916 87.1769703,122.020792 85.9197073,123.278454 C82.8517848,126.343275 81.1623377,130.418569 81.1623377,134.752743 C81.1623377,139.086918 82.8517848,143.162211 85.9197073,146.227032 C88.9876297,149.291853 93.066211,150.979592 97.4056075,150.979592 C101.742496,150.979592 105.822749,149.291853 108.89318,146.225361 C110.152115,144.966029 111.196211,143.497086 112.010423,141.831895 L131.538961,100.653061 L90.31762,120.163527 Z M107.162771,139.502798 C106.623586,140.604296 105.924735,141.588045 105.087953,142.425652 C103.035705,144.475825 100.307177,145.604881 97.4056075,145.604881 C94.5023665,145.604881 91.7755101,144.475825 89.7232623,142.426487 C87.6710145,140.376314 86.5416512,137.651379 86.5416512,134.752743 C86.5416512,131.854107 87.6710145,129.128337 89.7257701,127.078164 C90.5575365,126.245568 91.5381014,125.550764 92.6356987,125.012959 L120.226102,111.953649 L107.162771,139.502798 Z" id="Shape" fill="#4A555F"></path>
                <path d="M93.7514718,128.982375 C93.2298642,129.236557 92.7897578,129.545917 92.4121356,129.922215 C90.473313,131.858882 90.473313,135.008566 92.4103245,136.943424 C93.3493993,137.881454 94.5981785,138.397959 95.9248367,138.397959 C97.253306,138.397959 98.5011797,137.881454 99.4438767,136.939806 C99.8160655,136.568031 100.130298,136.120273 100.334956,135.702365 L106.350649,123.020408 L93.7514718,128.982375 Z" id="Path" fill="#FFD452"></path>
                <path d="M262.100048,98.3038918 C234.432836,94.5750766 223.99938,115.407669 223.896104,115.618808 L228.820634,117.683447 C229.135502,117.044577 235.957635,103.667277 253.973104,102.903751 L223.926331,123.157466 L227.102716,127.214286 L268.675325,99.1897386 L262.100048,98.3038918 Z" id="Path" fill="#4A555F"></path>
                <path d="M224.499061,106.765667 L226.99453,105.594048 L224.495553,106.758661 L229.493506,104.430213 C229.372461,104.225472 226.455088,99.3692845 219.96687,95.0012071 C214.008446,90.9896757 203.762554,86.6122565 188.784481,88.5413415 L181.915584,89.4257 L225.342872,117.428571 L228.661099,113.375002 L197.202411,93.0908058 C216.339012,93.5999347 224.138556,106.166234 224.499061,106.765667 Z" id="Path" fill="#4A555F"></path>
                <rect id="Rectangle" fill="#4A555F" x="61.5714286" y="62.9081633" width="5.5974026" height="148.183673"></rect>
                <path d="M53.4312042,137.961614 L33.0199017,116.030612 L29.3863636,119.876088 L49.8008486,141.811331 C56.795827,149.293592 60.6489526,159.232615 60.6489526,169.798553 L60.6489526,170.55102 L65.7694805,170.55102 L65.7694805,169.798553 C65.7694805,157.777731 61.3856849,146.470353 53.4312042,137.961614 Z" id="Path" fill="#4A555F"></path>
                <rect id="Rectangle" fill="#4A555F" x="223.896104" y="47.5306122" width="5.5974026" height="93.6632653"></rect>
                <path d="M95.7197214,130.010204 L75.3148805,151.936115 C67.3559743,160.449945 62.9707792,171.758171 62.9707792,183.778144 L62.9707792,184.530612 L68.0910832,184.530612 L68.0910832,183.778144 C68.0910832,173.213903 71.9440403,163.274032 78.9450774,155.786681 L99.3538961,133.855679 L95.7197214,130.010204 Z" id="Path" fill="#4A555F"></path>
            </g>
        </g>
    </g>
</svg>