<svg height="54" viewBox="0 0 54 54" width="54" xmlns="http://www.w3.org/2000/svg"><g fill="none" transform="translate(12 9)"><path d="m26.2233454 10.57416-1.9744116-1.98926935 2.2026536-2.21922885 1.9744117 1.98926931z" fill="#a5b4fc"/><path d="m12.630706 2.387123h4.738588v4.774246h-4.738588z" fill="#a5b4fc"/><path d="m30 19.8871232c0 8.3461783-6.7161586 15.1128768-15 15.1128768-8.28384142 0-15-6.7666985-15-15.1128768 0-8.3461784 6.71615858-15.11287685 15-15.11287685 8.2838414 0 15 6.76669845 15 15.11287685" fill="#cbd5e1"/><path d="m15.9512106 10.8502524 2.2338307 2.2505621-5.1361739 5.1759011c.0682827.2600107.1046628.5330811.1046628.8146999 0 1.7545355-1.4120991 3.1772609-3.1535302 3.1772609-1.74143105 0-3.15353025-1.4227254-3.15353025-3.1772609 0-1.7545356 1.4120992-3.177261 3.15353025-3.177261.2826275 0 .5565803.0374746.8172299.1077603z" fill="#4338ca" transform="matrix(-1 0 0 1 25.0316 0)"/><path d="m19.7385879 3.1828309h-9.4771758v-3.1828309h9.4771758z" fill="#a5b4fc"/></g></svg>