<?xml version="1.0" encoding="UTF-8"?>
<svg width="54px" height="54px" viewBox="0 0 54 54" version="1.1" xmlns="http://www.w3.org/2000/svg" xmlns:xlink="http://www.w3.org/1999/xlink">
    <title>5-minute</title>
    <g id="5-minute" stroke="none" stroke-width="1" fill="none" fill-rule="evenodd">
        <g id="Group" transform="translate(12, 9)" fill-rule="nonzero">
            <polygon id="Path" fill="#F59E0B" points="26.2233454 10.57416 24.2489338 8.58489065 26.4515874 6.3656618 28.4259991 8.35493111"></polygon>
            <rect id="Rectangle" fill="#F59E0B" x="12.630706" y="2.38712318" width="4.7385879" height="4.77424635"></rect>
            <path d="M30,19.8871232 C30,28.2333015 23.2838414,35 15,35 C6.71615858,35 0,28.2333015 0,19.8871232 C0,11.5409448 6.71615858,4.77424635 15,4.77424635 C23.2838414,4.77424635 30,11.5409448 30,19.8871232" id="Path" fill="#CBD5E1"></path>
            <path d="M20.9512106,10.8502524 L23.1850413,13.1008145 L18.0488674,18.2767156 C18.1171501,18.5367263 18.1535302,18.8097967 18.1535302,19.0914155 C18.1535302,20.845951 16.7414311,22.2686764 15,22.2686764 C13.2585689,22.2686764 11.8464698,20.845951 11.8464698,19.0914155 C11.8464698,17.3368799 13.2585689,15.9141545 15,15.9141545 C15.2826275,15.9141545 15.5565803,15.9516291 15.8172299,16.0219148 L20.9512106,10.8502524 Z" id="Combined-Shape" fill="#4338CA"></path>
            <polygon id="Path" fill="#F59E0B" points="19.7385879 3.1828309 10.2614121 3.1828309 10.2614121 0 19.7385879 0"></polygon>
        </g>
    </g>
</svg>