<?xml version="1.0" encoding="UTF-8"?>
<svg width="76px" height="76px" viewBox="0 0 76 76" version="1.1" xmlns="http://www.w3.org/2000/svg" xmlns:xlink="http://www.w3.org/1999/xlink">
    <title>a-deep-dive-into-different-methods-dark</title>
    <defs>
        <linearGradient x1="2.77555756e-15%" y1="100%" x2="100%" y2="2.77555756e-15%" id="linearGradient-1">
            <stop stop-color="#112C38" offset="0%"></stop>
            <stop stop-color="#19555B" offset="100%"></stop>
        </linearGradient>
        <filter x="-101.4%" y="-93.4%" width="302.8%" height="292.1%" filterUnits="objectBoundingBox" id="filter-2">
            <feOffset dx="0" dy="1" in="SourceAlpha" result="shadowOffsetOuter1"></feOffset>
            <feGaussianBlur stdDeviation="12" in="shadowOffsetOuter1" result="shadowBlurOuter1"></feGaussianBlur>
            <feColorMatrix values="0 0 0 0 0   0 0 0 0 0   0 0 0 0 0  0 0 0 0.5 0" type="matrix" in="shadowBlurOuter1" result="shadowMatrixOuter1"></feColorMatrix>
            <feMerge>
                <feMergeNode in="shadowMatrixOuter1"></feMergeNode>
                <feMergeNode in="SourceGraphic"></feMergeNode>
            </feMerge>
        </filter>
    </defs>
    <g id="a-deep-dive-into-different-methods-dark" stroke="none" stroke-width="1" fill="none" fill-rule="evenodd">
        <rect id="Rectangle-Copy-8" fill="url(#linearGradient-1)" x="0" y="0" width="76" height="76" rx="12"></rect>
        <g id="Group" filter="url(#filter-2)" transform="translate(20, 19)">
            <path d="M34,0 C35.1045695,-2.02906125e-16 36,0.8954305 36,2 L36,14 L36,14 L32,14 L32,2 C32,0.8954305 32.8954305,1.3527075e-16 34,0 Z" id="Rectangle" fill="#5EEAD4"></path>
            <path d="M36,14.4022884 C36.0041346,17.7757064 36.0041346,24.6221882 36,27.9072018 C35.9995364,28.2755211 36.01117,28.7307197 36,29.1060232 C35.9108963,32.1001483 34.6647548,34.602858 32.1514721,36.3541577 C30.2651115,37.66844 28.1633838,38.1960907 25.8686648,37.9352932 C23.7525527,37.6946812 21.9552958,36.801268 20.4750962,35.2778633 C19.1577205,33.9224025 18.3881525,32.2619378 18.0413275,30.4068842 C17.8555284,29.4137543 18.3116352,28.4836034 19.0995833,28.10795 C19.8793403,27.7361319 20.9026339,27.9571638 21.5219643,28.6271228 C21.7938703,28.9214283 21.9229308,29.2833556 21.9878606,29.6662758 C22.4143995,32.1868475 24.2324339,33.8269248 26.7419207,33.9500567 C28.2990372,34.02656 29.649577,33.4048446 30.708632,32.191692 C31.6288371,31.1376017 31.9682701,29.8875096 31.9750628,28.5294246 C31.9928436,24.9652591 31.9962041,17.5656354 32,14.0016718 C33.3227699,13.9952124 34.6774299,14.0100095 36,14.0035501" id="Fill-3" fill="#5EEAD4"></path>
            <path d="M30.5387023,6.00432485 C33.1792555,6.00699373 35.0643364,7.33901121 35.7966663,9.71310794 C35.9401495,10.1779796 35.9995484,10.6561957 35.9992913,11.1412054 C35.9980056,13.3435228 36.0023769,15.5455976 35.9980056,17.7476724 C35.9915771,20.8760938 33.763988,22.9769935 30.4553895,22.9794197 C28.6135078,22.9808755 26.7690548,22.9182779 24.9307731,22.9944625 C22.4043893,23.099277 20.1567434,21.7112129 19.4303277,19.248315 C19.3506148,18.9782721 19.2742447,18.7024062 19.148247,18.4508029 C18.9389364,18.0322728 18.6342275,17.7115211 18.0847229,17.695993 C17.5390755,17.6807076 17.1212257,17.8663166 16.909858,18.3539951 C16.7008046,18.8370637 16.5210649,19.3317784 16.3328397,19.8228537 C15.6395948,21.6304184 13.8553122,22.9088155 11.8164626,22.9537013 C9.61201591,23.0019839 7.40474073,23.0187252 5.20055121,22.9680163 C2.19331877,22.8991105 0.0415854636,20.7982108 0.0138145271,17.9587571 C-0.00855650517,15.6758878 0.000443335382,13.3927759 0.0115002823,11.1099066 C0.0259000272,8.1168706 2.24551785,6.01572827 5.41860449,6.00626586 C9.61587298,5.99413455 13.8133986,6.00335434 18.0106671,6.00335434 C22.1865931,6.00335434 26.3625192,6.00044283 30.5387023,6.00432485 Z" id="Fill-1" fill="#14B8A6"></path>
        </g>
    </g>
</svg>