<?xml version="1.0" encoding="UTF-8"?>
<svg width="72px" height="72px" viewBox="0 0 72 72" version="1.1" xmlns="http://www.w3.org/2000/svg" xmlns:xlink="http://www.w3.org/1999/xlink">
    <title>add-mfa</title>
    <defs>
        <linearGradient x1="-4.65773253e-13%" y1="100%" x2="99.1550911%" y2="-1.37875822e-12%" id="linearGradient-1">
            <stop stop-color="#BCD5E2" offset="0%"></stop>
            <stop stop-color="#E0F2FE" offset="100%"></stop>
        </linearGradient>
    </defs>
    <g id="add-mfa" stroke="none" stroke-width="1" fill="none" fill-rule="evenodd">
        <g id="Docs-Icons-/-Light-/docs-other-use-cases-add-mfa-sky-light">
            <rect id="Rectangle-Copy-6" fill="url(#linearGradient-1)" x="0" y="0" width="72" height="72" rx="12"></rect>
            <path d="M48,17 C49.1045695,17 50,17.8954305 50,19 L50,53 C50,54.1045695 49.1045695,55 48,55 L24,55 C22.8954305,55 22,54.1045695 22,53 L22,19 C22,17.8954305 22.8954305,17 24,17 L48,17 Z M36,29 C33.7908001,29 32,30.7899995 32,33 C32,34.4199995 32.8856001,35.4140229 34,36.1240233 L34,41 C34,42.1039989 34.8954,43 36,43 C37.104599,43 38,42.1039989 38,41 L38,36.1240233 C39.1145992,35.4160237 40,34.4199995 40,33 C40,30.7899995 38.2091999,29 36,29 Z" id="Combined-Shape" fill="#0EA5E9"></path>
        </g>
    </g>
</svg>