<?xml version="1.0" encoding="UTF-8"?>
<svg width="76px" height="76px" viewBox="0 0 76 76" version="1.1" xmlns="http://www.w3.org/2000/svg" xmlns:xlink="http://www.w3.org/1999/xlink">
    <title>add-login</title>
    <defs>
        <linearGradient x1="-3.88578059e-14%" y1="100%" x2="100%" y2="2.77555756e-15%" id="linearGradient-1">
            <stop stop-color="#E7E6F1" offset="0%"></stop>
            <stop stop-color="#F0F1FD" offset="100%"></stop>
        </linearGradient>
    </defs>
    <g id="add-login" stroke="none" stroke-width="1" fill="none" fill-rule="evenodd">
        <rect id="Rectangle-Copy-6" fill="url(#linearGradient-1)" x="0" y="0" width="76" height="76" rx="12"></rect>
        <g id="Group" transform="translate(19, 19)">
            <rect id="Rectangle" stroke="#979797" fill="#D8D8D8" x="4.5" y="8.5" width="3" height="4" rx="1"></rect>
            <path d="M36,0 C37.1045695,0 38,0.8954305 38,2 L38,36 C38,37.1045695 37.1045695,38 36,38 L6,38 C4.8954305,38 4,37.1045695 4,36 L4,26 C4,25.4477153 4.44771525,25 5,25 L7,25 C7.51283584,25 7.93550716,25.3860402 7.99327227,25.8833789 L8,26 L8,34 L30.001,34 L25.1055728,31.5527864 C24.4280048,31.2140024 24,30.5214761 24,29.763932 L24,8.23606798 C24,7.47852386 24.4280048,6.78599762 25.1055728,6.4472136 L29.999,4 L8,4 L8,12 C8,12.5522847 7.55228475,13 7,13 L5,13 C4.44771525,13 4,12.5522847 4,12 L4,2 C4,0.8954305 4.8954305,0 6,0 L36,0 Z" id="Combined-Shape" fill="#6366F1" fill-rule="nonzero"></path>
            <path d="M14.901433,11.6154879 C18.1735648,15.3336999 19.006471,16.2801539 19.5821499,16.9343134 L19.6648126,17.0282453 C19.7190346,17.0898592 19.7718214,17.1498423 19.8251991,17.2104969 L19.9059623,17.3022703 C19.9876752,17.3951229 20.0729973,17.4920767 20.168767,17.6009024 C20.8323465,18.3549458 20.8337075,19.4841982 20.1719475,20.239839 C20.0602162,20.3674211 19.9627052,20.4787655 19.8685554,20.5862718 L19.7884255,20.6777695 C19.7485188,20.7233375 19.7086596,20.7688513 19.6679931,20.815287 L19.5853304,20.9096767 C19.0096515,21.5670243 18.1767453,22.518091 14.9046135,26.2544244 C14.1768918,27.0853846 12.9133304,27.1690758 12.0823702,26.4413541 C11.2514101,25.7136323 11.1677188,24.4500709 11.8954406,23.6191108 C12.8494471,22.5297639 13.5961089,21.6771768 14.1895033,20.9996003 L2,21 C0.8954305,21 5.7935996e-16,20.1045695 0,19 C-1.3527075e-16,17.8954305 0.8954305,17 2,17 L14.3123447,17.000827 C13.7980779,16.4164516 13.1631972,15.6950194 12.3685412,14.7920303 L11.8986211,14.2580473 C11.1688984,13.4288437 11.2495437,12.1650842 12.0787473,11.4353616 C12.907951,10.705639 14.1717104,10.7862842 14.901433,11.6154879 Z" id="Combined-Shape" fill="#4338CA"></path>
        </g>
    </g>
</svg>