<?xml version="1.0" encoding="UTF-8"?>
<svg width="54px" height="54px" viewBox="0 0 54 54" version="1.1" xmlns="http://www.w3.org/2000/svg" xmlns:xlink="http://www.w3.org/1999/xlink">
    <title>add-mfa</title>
    <g id="add-mfa" stroke="none" stroke-width="1" fill="none" fill-rule="evenodd">
        <rect id="Rectangle" fill="#F1F5F9" x="0" y="0" width="54" height="54" rx="5"></rect>
        <g id="icons8-secure-50" transform="translate(6, 6)" fill-rule="nonzero">
            <path d="M41,20.5 C41,31.775 31.775,41 20.5,41 C9.225,41 0,31.775 0,20.5 C0,9.225 9.225,0 20.5,0 C31.775,0 41,9.225 41,20.5 Z" id="Path" fill="#CBD5E1"></path>
            <path d="M25.625,17.425 L23.575,17.425 L23.575,15.375 C23.575,14.8625 23.37,12.3 20.5,12.3 C17.63,12.3 17.425,14.8625 17.425,15.375 L17.425,17.425 L15.375,17.425 L15.375,15.375 C15.375,13.6325 16.4,10.25 20.5,10.25 C24.6,10.25 25.625,13.6325 25.625,15.375 L25.625,17.425 Z" id="Path" fill="#1E293B"></path>
            <path d="M26.855,28.7 L14.145,28.7 C13.12,28.7 12.3,27.88 12.3,26.855 L12.3,18.245 C12.3,17.22 13.12,16.4 14.145,16.4 L26.855,16.4 C27.88,16.4 28.7,17.22 28.7,18.245 L28.7,26.855 C28.7,27.88 27.88,28.7 26.855,28.7" id="Path" fill="#4338CA"></path>
            <path d="M22.55,22.55 C22.55,23.6775 21.6275,24.6 20.5,24.6 C19.3725,24.6 18.45,23.6775 18.45,22.55 C18.45,21.4225 19.3725,20.5 20.5,20.5 C21.6275,20.5 22.55,21.4225 22.55,22.55" id="Path" fill="#FFFFFF"></path>
        </g>
    </g>
</svg>