<svg xmlns="http://www.w3.org/2000/svg" width="54" height="54"><g fill="none" fill-rule="evenodd"><rect width="54" height="54" fill="#F1F5F9" rx="5"/><g fill-rule="nonzero"><path fill="#CBD5E1" d="M47 26.5C47 37.775 37.775 47 26.5 47S6 37.775 6 26.5 15.225 6 26.5 6 47 15.225 47 26.5Z"/><path fill="#1E293B" d="M31.625 23.425h-2.05v-2.05c0-.512-.205-3.075-3.075-3.075s-3.075 2.563-3.075 3.075v2.05h-2.05v-2.05c0-1.742 1.025-5.125 5.125-5.125s5.125 3.383 5.125 5.125v2.05Z"/><path fill="#4338CA" d="M32.855 34.7h-12.71a1.837 1.837 0 0 1-1.845-1.845v-8.61c0-1.025.82-1.845 1.845-1.845h12.71c1.025 0 1.845.82 1.845 1.845v8.61c0 1.025-.82 1.845-1.845 1.845"/><path fill="#FFF" d="M28.55 28.55c0 1.127-.922 2.05-2.05 2.05a2.056 2.056 0 0 1-2.05-2.05c0-1.128.922-2.05 2.05-2.05 1.128 0 2.05.922 2.05 2.05"/></g></g></svg>