<?xml version="1.0" encoding="UTF-8"?>
<svg width="54px" height="54px" viewBox="0 0 54 54" version="1.1" xmlns="http://www.w3.org/2000/svg" xmlns:xlink="http://www.w3.org/1999/xlink">
    <title>add-login</title>
    <g id="add-login" stroke="none" stroke-width="1" fill="none" fill-rule="evenodd">
        <rect id="Rectangle" fill="#F1F5F9" x="0" y="0" width="54" height="54" rx="5"></rect>
        <g id="Group" transform="translate(7, 7)" fill-rule="nonzero">
            <path d="M20,0 C31.0284211,0 40,8.97157895 40,20 C40,31.0284211 31.0284211,40 20,40 C8.97157895,40 0,31.0284211 0,20 C0,8.97157895 8.97157895,0 20,0 Z" id="Path" fill="#CBD5E1"></path>
            <path d="M15.7894737,9.47368421 L28.4210526,20 L15.7894737,30.5263158 L15.789,23.1576842 L0.249059152,23.1582978 C0.0851509728,22.1293162 0,21.0744191 0,20 C0,18.9257037 0.0851315186,17.8709248 0.249002981,16.8420549 L15.789,16.8416842 L15.7894737,9.47368421 Z" id="Combined-Shape" fill="#5D50D8"></path>
        </g>
    </g>
</svg>