<svg xmlns="http://www.w3.org/2000/svg" width="36" height="36"><mask id="a" fill="#fff"><path fill-rule="evenodd" d="M0 0h36v36H0z"/></mask><g fill="#3ddc84" fill-rule="evenodd" mask="url(#a)"><path d="M13.079 2.51a1 1 0 0 0-1.744.98l1.355 2.408a8.99 8.99 0 0 0-3.693 6.78H26.97a8.992 8.992 0 0 0-3.888-6.918l1.277-2.27a1 1 0 1 0-1.743-.98l-1.297 2.306a8.976 8.976 0 0 0-3.335-.639c-1.264 0-2.466.26-3.557.73zm1.417 6.375a.817.817 0 1 1-1.635 0 .817.817 0 0 1 1.635 0zm7.683.818a.817.817 0 1 0 0-1.635.817.817 0 0 0 0 1.635zM6 13.626a2 2 0 0 0-2 2v8a2 2 0 1 0 4 0v-8a2 2 0 0 0-2-2zm20.929.304h-18v8a6.998 6.998 0 0 0 3.555 6.095v6.152a2 2 0 0 0 4 0V28.93h3v5.425a2 2 0 0 0 4 0v-6.393a6.997 6.997 0 0 0 3.445-6.032zm1.038 1.696a2 2 0 0 1 4 0v8a2 2 0 0 1-4 0z"/></g></svg>