<svg width="40" height="40" viewBox="0 0 40 40" fill="none" xmlns="http://www.w3.org/2000/svg">
<path d="M15.04 7.99L17.39 0H21.7767L24.5967 8.46L31.96 4.23L34.9367 7.36333L29.9233 14.8833L39.1667 17.39V21.7767L30.8633 23.6567L34.9367 31.96L31.8033 34.9367L24.2833 31.02L21.62 39.1667H17.5467L14.57 31.02L7.20667 34.9367L4.23 31.96L8.30333 24.44L0 21.62V17.39L8.14667 14.57L4.23 7.36333L7.20667 4.38667L15.04 7.99Z" fill="#14B8A6"/>
<circle cx="19.7399" cy="19.4265" r="14.8833" fill="#5EEAD4"/>
<path d="M10.5358 24.1666H9.16663L13.1266 14.1666H14.4747L18.4347 24.1666H17.0655L13.8428 15.7487H13.7585L10.5358 24.1666ZM11.0413 20.2604H16.56V21.3346H11.0413V20.2604ZM20.1145 24.1666V14.1666H23.7585C24.6046 14.1666 25.2962 14.3082 25.8333 14.5914C26.3739 14.8714 26.7741 15.2506 27.0339 15.7291C27.2937 16.2076 27.4236 16.7415 27.4236 17.3307C27.4236 17.9199 27.2937 18.4554 27.0339 18.9371C26.7777 19.4189 26.381 19.803 25.8438 20.0895C25.3067 20.3727 24.6186 20.5143 23.7796 20.5143H21.1677V19.4401H23.7374C24.3167 19.4401 24.7819 19.3473 25.1329 19.1617C25.484 18.9762 25.7385 18.7256 25.8965 18.4098C26.058 18.0908 26.1387 17.7311 26.1387 17.3307C26.1387 16.9303 26.058 16.5722 25.8965 16.2565C25.7385 15.9407 25.4822 15.6933 25.1276 15.5143C24.7731 15.332 24.3027 15.2408 23.7164 15.2408H21.4204V24.1666H20.1145ZM30.8333 14.1666V24.1666H29.5273V14.1666H30.8333Z" fill="#153E44"/>
</svg>
