<?xml version="1.0" encoding="UTF-8"?>
<svg width="72px" height="72px" viewBox="0 0 72 72" version="1.1" xmlns="http://www.w3.org/2000/svg" xmlns:xlink="http://www.w3.org/1999/xlink">
    <title>articles</title>
    <defs>
        <linearGradient x1="-4.65773253e-13%" y1="100%" x2="99.1550911%" y2="-1.37875822e-12%" id="linearGradient-1">
            <stop stop-color="#BCD5E2" offset="0%"></stop>
            <stop stop-color="#E0F2FE" offset="100%"></stop>
        </linearGradient>
    </defs>
    <g id="articles" stroke="none" stroke-width="1" fill="none" fill-rule="evenodd">
        <g id="Docs-Icons-/-Light-/docs-resources-articles-sky-light">
            <rect id="Rectangle-Copy-6" fill="url(#linearGradient-1)" x="0" y="0" width="72" height="72" rx="12"></rect>
            <g id="Group-2" transform="translate(19, 17)">
                <path d="M28.9333334,0 C31.7315761,-8.8817842e-16 34,2.26842391 34,5.0666666 L34,32.9333334 C34,35.7315761 31.7315761,38 28.9333334,38 L5.0666666,38 C2.26842391,38 -8.8817842e-16,35.7315761 -8.8817842e-16,32.9333334 L0,5.0666666 C0,2.26842391 2.26842391,8.8817842e-16 5.0666666,8.8817842e-16 L28.9333334,0 Z M26,28 L8,28 C6.8954305,28 6,28.8954305 6,30 C6,31.1045695 6.8954305,32 8,32 L26,32 C27.1045695,32 28,31.1045695 28,30 C28,28.8954305 27.1045695,28 26,28 Z M26,20 L8,20 C6.8954305,20 6,20.8954305 6,22 C6,23.1045695 6.8954305,24 8,24 L26,24 C27.1045695,24 28,23.1045695 28,22 C28,20.8954305 27.1045695,20 26,20 Z M26,12 L21,12 C19.8954305,12 19,12.8954305 19,14 C19,15.1045695 19.8954305,16 21,16 L26,16 C27.1045695,16 28,15.1045695 28,14 C28,12.8954305 27.1045695,12 26,12 Z" id="Combined-Shape" fill="#0EA5E9"></path>
                <rect id="Rectangle" fill="#0369A1" x="6" y="6" width="10" height="10" rx="2.5333333"></rect>
            </g>
        </g>
    </g>
</svg>