<?xml version="1.0" encoding="UTF-8"?>
<svg width="75px" height="75px" viewBox="0 0 75 75" version="1.1" xmlns="http://www.w3.org/2000/svg" xmlns:xlink="http://www.w3.org/1999/xlink">
    <title>articles</title>
    <defs>
        <linearGradient x1="-3.88578059e-14%" y1="100%" x2="100%" y2="2.77555756e-15%" id="linearGradient-1">
            <stop stop-color="#F2E4E8" offset="0%"></stop>
            <stop stop-color="#FFF4F6" offset="100%"></stop>
        </linearGradient>
    </defs>
    <g id="articles" stroke="none" stroke-width="1" fill="none" fill-rule="evenodd">
        <rect id="Rectangle-Copy-10" fill="url(#linearGradient-1)" opacity="0" x="0" y="-1" width="76" height="76" rx="12"></rect>
        <g id="Group-2" transform="translate(21, 18)" fill="#0EA5E9">
            <path d="M28.9333334,0 C31.7315761,-5.14028844e-16 34,2.26842391 34,5.0666666 L34,32.9333334 C34,35.7315761 31.7315761,38 28.9333334,38 L5.0666666,38 C2.26842391,38 1.23086432e-15,35.7315761 0,32.9333334 L0,5.0666666 C-3.42685896e-16,2.26842391 2.26842391,5.14028844e-16 5.0666666,0 L28.9333334,0 Z M26,28 L8,28 C6.8954305,28 6,28.8954305 6,30 C6,31.1045695 6.8954305,32 8,32 L26,32 C27.1045695,32 28,31.1045695 28,30 C28,28.8954305 27.1045695,28 26,28 Z M26,20 L8,20 C6.8954305,20 6,20.8954305 6,22 C6,23.1045695 6.8954305,24 8,24 L26,24 C27.1045695,24 28,23.1045695 28,22 C28,20.8954305 27.1045695,20 26,20 Z M13.4666667,6 L8.5333333,6 C7.13421195,6 6,7.13421195 6,8.5333333 L6,13.4666667 C6,14.865788 7.13421195,16 8.5333333,16 L13.4666667,16 C14.865788,16 16,14.865788 16,13.4666667 L16,8.5333333 C16,7.13421195 14.865788,6 13.4666667,6 Z M26,12 L21,12 C19.8954305,12 19,12.8954305 19,14 C19,15.1045695 19.8954305,16 21,16 L26,16 C27.1045695,16 28,15.1045695 28,14 C28,12.8954305 27.1045695,12 26,12 Z" id="Combined-Shape"></path>
        </g>
    </g>
</svg>