<?xml version="1.0" encoding="UTF-8"?>
<svg width="76px" height="76px" viewBox="0 0 76 76" version="1.1" xmlns="http://www.w3.org/2000/svg" xmlns:xlink="http://www.w3.org/1999/xlink">
    <title>auth-system-acquired</title>
    <defs>
        <linearGradient x1="-3.88578059e-14%" y1="100%" x2="100%" y2="2.77555756e-15%" id="linearGradient-1">
            <stop stop-color="#F2E4E8" offset="0%"></stop>
            <stop stop-color="#FFF4F6" offset="100%"></stop>
        </linearGradient>
    </defs>
    <g id="auth-system-acquired" stroke="none" stroke-width="1" fill="none" fill-rule="evenodd">
        <rect id="Rectangle-Copy-10" fill="url(#linearGradient-1)" x="0" y="0" width="76" height="76" rx="12"></rect>
        <g id="question-fill" transform="translate(19, 19)" fill="#F43F5E" fill-rule="nonzero">
            <path d="M0,19 C0,29.4934102 8.50658975,38 19,38 C29.4934102,38 38,29.4934102 38,19 C37.9889236,8.51118117 29.4888188,0.0110763792 19,0 C8.50658975,0 0,8.50658975 0,19 Z M19,31 C17.8954305,31 17,30.1045695 17,29 C17,27.8954305 17.8954305,27 19,27 C20.1045695,27 21,27.8954305 21,29 C21,30.1045695 20.1045695,31 19,31 Z M20.9947917,21.7047526 L20.9947917,23.0236816 C20.9947917,23.9073372 20.2526042,25.0188802 19,25.0188802 C17.7473958,25.0188802 16.9609375,23.9073372 16.9609375,23.0236816 L16.9609375,19.611084 C16.9609375,18.7274284 17.5877389,18.011084 18.3609375,18.011084 C20.6914063,18.1347656 21.8527018,16.9036458 22.0174967,15 C22.0174967,13.0260417 20.1950443,11.8622233 19.0019004,11.9699707 C17.7544759,11.9699707 16.3058675,12.8286133 15.9998372,14.5677897 L15.9998372,15 C15.9998372,15.8836556 15.5884196,17.0298665 14.0300293,17.0298665 C12.471639,17.0298665 12,15.8836556 12,15 L12,14.5677897 C12.2674967,10.9348958 15.1395,8 19,8 C22.8605,8 26.1309408,11.2 26,15.2 C26,17.7211914 24.2465007,20.7638346 20.9947917,21.7047526 Z" id="Shape"></path>
        </g>
    </g>
</svg>