<?xml version="1.0" encoding="UTF-8"?>
<svg width="54px" height="54px" viewBox="0 0 54 54" version="1.1" xmlns="http://www.w3.org/2000/svg" xmlns:xlink="http://www.w3.org/1999/xlink">
    <title>authentication</title>
    <g id="authentication" stroke="none" stroke-width="1" fill="none" fill-rule="evenodd">
        <rect id="Rectangle" fill="#F1F5F9" x="0" y="0" width="54" height="54" rx="5"></rect>
        <path d="M44.133319,11.8753965 L27.8497049,7.05068945 C27.6217035,6.98310352 27.378702,6.98310352 27.1506195,7.05068945 L10.866681,11.8753965 C10.3522995,12.0277852 10,12.4954414 10,13.0258789 L10,30.716418 C10,33.0173828 10.943222,35.3728008 12.8033146,37.717248 C14.223945,39.5077949 16.1894436,41.3057891 18.6449994,43.0613418 C22.770187,46.010459 26.8322932,47.819584 27.0032131,47.8950977 C27.1612412,47.9650059 27.3307017,48 27.5001622,48 C27.6696227,48 27.8390832,47.9650859 27.9971112,47.8950977 C28.1679501,47.819584 32.2299752,46.010459 36.3551628,43.0613418 C38.8107185,41.3057891 40.7761361,39.5077949 42.1968475,37.717248 C44.0569401,35.3728809 45,33.0174629 45,30.716418 L45,13.0258789 C45,12.4954414 44.6478627,12.0277852 44.133319,11.8753965 Z" id="Path" fill="#CBD5E1" fill-rule="nonzero"></path>
        <path d="M32,23 C32,25.209 30.209,27 28,27 C25.791,27 24,25.209 24,23 C24,20.791 25.791,19 28,19 C30.209,19 32,20.791 32,23 M35,33 C35,33 33.062,29 28,29 C22.938,29 21,33 21,33 L21,35 L35,35 L35,33 Z" id="Shape" fill="#312E81" fill-rule="nonzero"></path>
    </g>
</svg>