<?xml version="1.0" encoding="UTF-8"?>
<svg width="54px" height="54px" viewBox="0 0 54 54" version="1.1" xmlns="http://www.w3.org/2000/svg" xmlns:xlink="http://www.w3.org/1999/xlink">
    <title>auth-facade-pattern</title>
    <g id="auth-facade-pattern" stroke="none" stroke-width="1" fill="none" fill-rule="evenodd">
        <rect id="Rectangle" fill="#F1F5F9" x="0" y="0" width="54" height="54" rx="5"></rect>
        <g id="Group" transform="translate(13, 14)">
            <path d="M3.5,17 C1.5701,17 0,15.4299 0,13.5 C0,11.5701 1.5701,10 3.5,10 C5.4299,10 7,11.5701 7,13.5 C7,15.4299 5.4299,17 3.5,17 Z" id="Path" fill="#CBD5E1" fill-rule="nonzero"></path>
            <path d="M3.5,27 C1.5701,27 0,25.4299 0,23.5 C0,21.5701 1.5701,20 3.5,20 C5.4299,20 7,21.5701 7,23.5 C7,25.4299 5.4299,27 3.5,27 Z" id="Path" fill="#CBD5E1" fill-rule="nonzero"></path>
            <path d="M24.5,27 C22.5701,27 21,25.4299 21,23.5 C21,21.5701 22.5701,20 24.5,20 C26.4299,20 28,21.5701 28,23.5 C28,25.4299 26.4299,27 24.5,27 Z" id="Path" fill="#CBD5E1" fill-rule="nonzero"></path>
            <path d="M24.5,7 C22.5701,7 21,5.4299 21,3.5 C21,1.5701 22.5701,0 24.5,0 C26.4299,0 28,1.5701 28,3.5 C28,5.4299 26.4299,7 24.5,7 Z" id="Path" fill="#CBD5E1" fill-rule="nonzero"></path>
            <line x1="4.00093253" y1="3.22164948" x2="13.445377" y2="3.22164948" id="Line" stroke="#0F172A" stroke-width="2.1" stroke-linecap="square"></line>
            <line x1="14.0009325" y1="13.2216495" x2="23.445377" y2="13.2216495" id="Line" stroke="#0F172A" stroke-width="2.1" stroke-linecap="square"></line>
            <line x1="14.2231547" y1="3" x2="14.2231547" y2="13" id="Line" stroke="#0F172A" stroke-width="2.1" stroke-linecap="square"></line>
            <line x1="25" y1="13" x2="14" y2="23" id="Line" stroke="#0F172A" stroke-width="2.1" stroke-linecap="square"></line>
            <g id="Group-2" fill="#4338CA" fill-rule="nonzero">
                <path d="M14.5,7 C12.5701,7 11,5.4299 11,3.5 C11,1.5701 12.5701,0 14.5,0 C16.4299,0 18,1.5701 18,3.5 C18,5.4299 16.4299,7 14.5,7 Z" id="Path"></path>
                <path d="M14.5,17 C12.5701,17 11,15.4299 11,13.5 C11,11.5701 12.5701,10 14.5,10 C16.4299,10 18,11.5701 18,13.5 C18,15.4299 16.4299,17 14.5,17 Z" id="Path"></path>
                <path d="M24.5,17 C22.5701,17 21,15.4299 21,13.5 C21,11.5701 22.5701,10 24.5,10 C26.4299,10 28,11.5701 28,13.5 C28,15.4299 26.4299,17 24.5,17 Z" id="Path"></path>
                <path d="M14.5,27 C12.5701,27 11,25.4299 11,23.5 C11,21.5701 12.5701,20 14.5,20 C16.4299,20 18,21.5701 18,23.5 C18,25.4299 16.4299,27 14.5,27 Z" id="Path"></path>
                <path d="M3.5,7 C1.5701,7 0,5.4299 0,3.5 C0,1.5701 1.5701,0 3.5,0 C5.4299,0 7,1.5701 7,3.5 C7,5.4299 5.4299,7 3.5,7 Z" id="Path"></path>
            </g>
        </g>
    </g>
</svg>