<svg height="70" viewBox="0 0 70 70" width="70" xmlns="http://www.w3.org/2000/svg" xmlns:xlink="http://www.w3.org/1999/xlink"><linearGradient id="a" x1="1.680552%" x2="98.319448%" y1="0%" y2="100%"><stop offset="0" stop-color="#a4aebe"/><stop offset="1" stop-color="#2d53f5"/></linearGradient><path d="m35.4330641.1525667c3.9848454.80003899 6.6781372 4.54826219 6.1732882 8.59129396l-1.6464994 13.20922734h13.2509043c1.4929659.0002757 2.9004342.6984726 3.8064155 1.8882326.9059812 1.1897599 1.2068655 2.7350195.8137238 4.1790637l-6.1677218 22.6746036c-.8978992 3.2802256-3.8696629 5.5557285-7.2622951 5.5607964l-27.0732023.0001124c-.7695854 1.6209479-2.4174068 2.7417776-4.326693 2.7441033h-8.21114796c-2.64402185-.0032207-4.78662405-2.1514328-4.78983634-4.8023775v-30.1863727c.00321229-2.6509446 2.14581449-4.7991568 4.78983634-4.8023775h8.21114796c1.4174542.0017267 2.6907999.6199255 3.5676671 1.6015657 2.1737678-1.786597 4.0899353-3.8730686 5.6899097-6.2002674 1.8703065-2.7210386 3.2817111-5.73185682 4.17775-8.91200518 1.0867902-3.92619521 5.0119077-6.34563771 8.996753-5.54559872zm-22.4320798 23.1726292h-8.21114796c-.3776078.0007248-.68353941.3074574-.68426234.6860539v30.1863727c.00072293.3785965.30665454.6853291.68426234.6860539h8.21114796c.3776078-.0007248.6835395-.3074574.6842624-.6860539v-30.1863727c-.0007229-.3785965-.3066546-.6853291-.6842624-.6860539zm20.9073346-19.2095099c-1.6493791.00096046-3.0930433 1.11113041-3.5215424 2.70804693-1.0198399 3.61216997-2.6239504 7.03207567-4.7483974 10.12341177-2.1482723 3.1254103-4.8003871 5.8705419-7.8476405 8.1228784v27.0694376h26.610141c1.5417594-.0028448 2.8921875-1.036687 3.3010184-2.5271482l6.1677217-22.6759483c.0570307-.2061913.0145575-.4272599-.1147871-.5974558-.1293447-.170196-.3306617-.2699142-.5440754-.2694968h-15.5763288c-.5891074.0006037-1.1500258-.2528184-1.5398178-.6956876-.389792-.4428691-.5708116-1.032413-.4969301-1.6183997l1.9350939-15.52331475c.1295615-1.04223572-.1932981-2.09009419-.8865876-2.87746881-.6932896-.78737462-1.6903111-1.23885474-2.7378679-1.23885474z" fill="url(#a)" transform="translate(6 6)"/></svg>