<?xml version="1.0" encoding="UTF-8"?>
<svg width="54px" height="54px" viewBox="0 0 54 54" version="1.1" xmlns="http://www.w3.org/2000/svg" xmlns:xlink="http://www.w3.org/1999/xlink">
    <title>auth-providers-zero-trust</title>
    <g id="auth-providers-zero-trust" stroke="none" stroke-width="1" fill="none" fill-rule="evenodd">
        <rect id="Rectangle" fill="#F1F5F9" x="0" y="0" width="54" height="54" rx="5"></rect>
        <g id="Group" transform="translate(13, 11)">
            <path d="M28.2818929,3.80541587 L14.7897555,0.0398213692 C14.60084,-0.0129282036 14.3994959,-0.0129282036 14.2105133,0.0398213692 L0.718107139,3.80541587 C0.291905278,3.92435241 0,4.28934945 0,4.7033461 L0,18.5104843 C0,20.3063447 0.781526836,22.1447048 2.3227464,23.9745025 C3.49984015,25.3719912 5.12839616,26.7752923 7.16299946,28.1454687 C10.5810121,30.4472001 13.9467572,31.8591886 14.0883766,31.9181257 C14.2193141,31.9726877 14.3597242,32 14.5001344,32 C14.6405445,32 14.7809546,31.9727502 14.9118921,31.9181257 C15.0534443,31.8591886 18.4191223,30.4472001 21.8371349,28.1454687 C23.8717382,26.7752923 25.500227,25.3719912 26.677388,23.9745025 C28.2186075,22.1447673 29,20.3064072 29,18.5104843 L29,4.7033461 C29,4.28934945 28.7082291,3.92435241 28.2818929,3.80541587 Z" id="Path" fill="#CBD5E1" fill-rule="nonzero"></path>
            <ellipse id="Oval" fill="#E11D48" cx="14" cy="15.5151515" rx="8" ry="7.75757576"></ellipse>
            <polyline id="Path-5" stroke="#FFFFFF" stroke-width="1.972" stroke-linejoin="round" points="10.4373345 16 13.23548 18.5955532 17.1565115 11.5367917"></polyline>
            <path d="M28.2818929,3.80541587 L14.5001344,0 C14.3112189,-0.0524903831 14.3597242,32 14.5001344,32 C14.6405445,32 14.7809546,31.9727502 14.9118921,31.9181257 C15.0534443,31.8591886 18.4191223,30.4472001 21.8371349,28.1454687 C23.8717382,26.7752923 25.500227,25.3719912 26.677388,23.9745025 C28.2186075,22.1447673 29,20.3064072 29,18.5104843 L29,4.7033461 C29,4.28934945 28.7082291,3.92435241 28.2818929,3.80541587 Z" id="Path" fill="#0F172A" fill-rule="nonzero" opacity="0.0838092622"></path>
        </g>
    </g>
</svg>