<svg height="70" viewBox="0 0 70 70" width="70" xmlns="http://www.w3.org/2000/svg" xmlns:xlink="http://www.w3.org/1999/xlink"><linearGradient id="a" x1="0%" x2="100%" y1="0%" y2="100%"><stop offset="0" stop-color="#a4aebe"/><stop offset="1" stop-color="#2d53f5"/></linearGradient><path d="m26.4998961 0c3.4381412 0 6.2352941 2.79714746 6.2352941 6.23528189 0 2.90013353-1.990098 5.34405231-4.6764706 6.03803911v8.1886918c2.1879647.5653322 3.913998 2.2913622 4.4792275 4.4792187h8.1887078c.6939882-2.6863673 3.1380157-4.6764614 6.038051-4.6764614 3.4381412 0 6.2352941 2.7971474 6.2352941 6.2352819 0 3.4381344-2.7971529 6.2352819-6.2352941 6.2352819-1.1546726 0-2.2363922-.3166484-3.1648275-.8659768l-11.7305627 11.7305398c.5493294.9284334.8659784 2.0101509.8659784 3.1648212 0 3.4381344-2.7971529 6.2352819-6.2352941 6.2352819s-6.2352941-2.7971475-6.2352941-6.2352819 2.7971529-6.2352819 6.2352941-6.2352819c1.1546725 0 2.2363922.3166484 3.1648275.8659768l11.7306666-11.7304359c-.2933706-.4958088-.5211666-1.0348489-.6687353-1.6060007h-8.1887078c-.6939883 2.6863672-3.1380157 4.6764614-6.038051 4.6764614-3.4381412 0-6.2352941-2.7971475-6.2352941-6.2352819 0-2.9001335 1.9902019-5.3440523 4.6764706-6.0380392v-8.1886917c-2.1878608-.5652283-3.9138941-2.29136222-4.4791236-4.47921871h-8.1888117c-.6938843 2.68636731-3.13791179 4.67646141-6.03794708 4.67646141-3.43814118 0-6.23529412-2.79714745-6.23529412-6.23528189 0-3.43813443 2.79715294-6.23538581 6.23529412-6.23538581 2.90003529 0 5.34406278 1.99019806 6.03784318 4.67646142h8.1888117c.6938843-2.68636728 3.1379118-4.67646142 6.0379471-4.67646142zm-20.26460198 40.5294362c3.43814117 0 6.23529408 2.7971475 6.23529408 6.2352819s-2.79715291 6.2352819-6.23529408 6.2352819c-3.43814118 0-6.23529412-2.7971475-6.23529412-6.2352819s2.79715294-6.2352819 6.23529412-6.2352819zm40.52941178 0c3.4381412 0 6.2352941 2.7971475 6.2352941 6.2352819s-2.7971529 6.2352819-6.2352941 6.2352819-6.2352941-2.7971475-6.2352941-6.2352819 2.7971529-6.2352819 6.2352941-6.2352819zm-20.2647059 3.117641c-1.7190706 0-3.1176471 1.3985737-3.1176471 3.1176409s1.3985765 3.117641 3.1176471 3.117641 3.1176471-1.3985738 3.1176471-3.117641-1.3985765-3.1176409-3.1176471-3.1176409zm-20.26470588 0c-1.71907059 0-3.11764706 1.3985737-3.11764706 3.1176409s1.39857647 3.117641 3.11764706 3.117641 3.11764706-1.3985738 3.11764706-3.117641-1.39857647-3.1176409-3.11764706-3.1176409zm40.52941178 0c-1.7190706 0-3.1176471 1.3985737-3.1176471 3.1176409s1.3985765 3.117641 3.1176471 3.117641 3.117647-1.3985738 3.117647-3.117641-1.3985764-3.1176409-3.117647-3.1176409zm-40.52941178-23.3823071c3.43814117 0 6.23529408 2.7971474 6.23529408 6.2352819 0 3.4381344-2.79715291 6.2352819-6.23529408 6.2352819-3.43814118 0-6.23529412-2.7971475-6.23529412-6.2352819 0-3.4381345 2.79715294-6.2352819 6.23529412-6.2352819zm20.26470588 3.1176409c-1.7190706 0-3.1176471 1.3985737-3.1176471 3.117641 0 1.7190672 1.3985765 3.1176409 3.1176471 3.1176409s3.1176471-1.3985737 3.1176471-3.1176409c0-1.7190673-1.3985765-3.117641-3.1176471-3.117641zm20.2647059 0c-1.7190706 0-3.1176471 1.3985737-3.1176471 3.117641 0 1.7190672 1.3985765 3.1176409 3.1176471 3.1176409s3.117647-1.3985737 3.117647-3.1176409c0-1.7190673-1.3985764-3.117641-3.117647-3.117641zm-40.52941178 0c-1.71907059 0-3.11764706 1.3985737-3.11764706 3.117641 0 1.7190672 1.39857647 3.1176409 3.11764706 3.1176409s3.11764706-1.3985737 3.11764706-3.1176409c0-1.7190673-1.39857647-3.117641-3.11764706-3.117641zm40.52941178-23.38230708c3.4381412 0 6.2352941 2.79714746 6.2352941 6.23528189 0 3.43813444-2.7971529 6.23528189-6.2352941 6.23528189s-6.2352941-2.79714745-6.2352941-6.23528189c0-3.43813443 2.7971529-6.23528189 6.2352941-6.23528189zm0 3.11764095c-1.7190706 0-3.1176471 1.39857373-3.1176471 3.11764094 0 1.71906722 1.3985765 3.11764095 3.1176471 3.11764095s3.117647-1.39857373 3.117647-3.11764095c0-1.71906721-1.3985764-3.11764094-3.117647-3.11764094zm-40.52941178 0c-1.71907059 0-3.11764706 1.39857373-3.11764706 3.11764094 0 1.71906722 1.39857647 3.11764095 3.11764706 3.11764095s3.11764706-1.39857373 3.11764706-3.11764095c0-1.71906721-1.39857647-3.11764094-3.11764706-3.11764094zm20.26470588 0c-1.7190706 0-3.1176471 1.39857373-3.1176471 3.11764094 0 1.71906722 1.3985765 3.11764095 3.1176471 3.11764095s3.1176471-1.39857373 3.1176471-3.11764095c0-1.71906721-1.3985765-3.11764094-3.1176471-3.11764094z" fill="url(#a)" transform="translate(9 9)"/></svg>