<?xml version="1.0" encoding="UTF-8"?>
<svg width="76px" height="76px" viewBox="0 0 76 76" version="1.1" xmlns="http://www.w3.org/2000/svg" xmlns:xlink="http://www.w3.org/1999/xlink">
    <title>auth-facade-pattern-dark</title>
    <defs>
        <linearGradient x1="-3.88578059e-14%" y1="100%" x2="100%" y2="2.77555756e-15%" id="linearGradient-1">
            <stop stop-color="#1C204A" offset="0%"></stop>
            <stop stop-color="#343D6E" offset="100%"></stop>
        </linearGradient>
        <path d="M30.1918387,4.63496903 C31.5971449,3.27853999 34,4.23921832 34,6.15749866 L34,29.8425013 C34,31.031671 33.0012506,31.9956834 31.7692308,31.9956834 C30.5372109,31.9956834 29.5384615,31.031671 29.5384615,29.8425013 L29.5384615,11.3552802 L8.80816128,31.365031 C7.44418759,32.681565 5.14048148,31.8152878 5.00614927,30.0092417 L5,29.8425013 L5,6.15749866 C5,4.96832905 5.9987494,4.0043166 7.23076923,4.0043166 C8.46278906,4.0043166 9.46153846,4.96832905 9.46153846,6.15749866 L9.46153846,24.6436433 L30.1918387,4.63496903 Z" id="path-2"></path>
        <filter x="-125.9%" y="-126.8%" width="351.7%" height="360.7%" filterUnits="objectBoundingBox" id="filter-3">
            <feOffset dx="0" dy="1" in="SourceAlpha" result="shadowOffsetOuter1"></feOffset>
            <feGaussianBlur stdDeviation="12" in="shadowOffsetOuter1" result="shadowBlurOuter1"></feGaussianBlur>
            <feColorMatrix values="0 0 0 0 0   0 0 0 0 0   0 0 0 0 0  0 0 0 0.5 0" type="matrix" in="shadowBlurOuter1"></feColorMatrix>
        </filter>
    </defs>
    <g id="auth-facade-pattern-dark" stroke="none" stroke-width="1" fill="none" fill-rule="evenodd">
        <rect id="Rectangle-Copy-6" fill="url(#linearGradient-1)" x="0" y="0" width="76" height="76" rx="12"></rect>
        <g id="Group-2" transform="translate(19, 19)" fill-rule="nonzero">
            <g id="Path-11">
                <use fill="black" fill-opacity="1" filter="url(#filter-3)" xlink:href="#path-2"></use>
                <use fill="#A5B4FC" xlink:href="#path-2"></use>
            </g>
            <g id="circles-three-plus-fill" fill="#6366F1">
                <path d="M14,7 C14,10.8659932 10.8659932,14 7,14 C3.13400675,14 0,10.8659932 0,7 C0,3.13400675 3.13400675,0 7,0 C8.85651543,0 10.6369928,0.737497883 11.9497475,2.05025253 C13.2625021,3.36300718 14,5.14348457 14,7 Z M31,14 C34.8659932,14 38,10.8659932 38,7 C38,3.13400675 34.8659932,0 31,0 C27.1340068,0 24,3.13400675 24,7 C24,10.8659932 27.1340068,14 31,14 Z M7,24 C3.13400675,24 0,27.1340068 0,31 C0,34.8659932 3.13400675,38 7,38 C10.8659932,38 14,34.8659932 14,31 C14,27.1340068 10.8659932,24 7,24 Z M31,24 C27.1340068,24 24,27.1340068 24,31 C24,34.8659932 27.1340068,38 31,38 C34.8659932,38 38,34.8659932 38,31 C38,27.1340068 34.8659932,24 31,24 Z" id="Shape"></path>
            </g>
        </g>
    </g>
</svg>