<?xml version="1.0" encoding="UTF-8"?>
<svg width="54px" height="54px" viewBox="0 0 54 54" version="1.1" xmlns="http://www.w3.org/2000/svg" xmlns:xlink="http://www.w3.org/1999/xlink">
    <title>auth-bottleneck-architecture</title>
    <g id="auth-bottleneck-architecture" stroke="none" stroke-width="1" fill="none" fill-rule="evenodd">
        <rect id="Rectangle" fill="#F1F5F9" x="0" y="0" width="54" height="54" rx="5"></rect>
        <g id="Group-2" transform="translate(20, 11)" fill-rule="nonzero">
            <g id="Group">
                <path d="M13.307,14.5537857 C13.7402222,14.2622857 14,13.772 14,13.2463571 L14,9.15907143 C14,8.32542857 13.6725556,7.52635714 13.0884444,6.93707143 L9.33333333,3.14285714 L4.66666667,3.14285714 L0.911555556,6.93628571 C0.327444444,7.52635714 0,8.32542857 0,9.15907143 L0,13.2463571 C0,13.772 0.259777778,14.2622857 0.693,14.5537857 L2.33333333,15.6592857 L2.33333333,16.445 L0.693,17.5497143 C0.259777778,17.8412143 0,18.3315 0,18.8571429 L0,31.4285714 C0,32.2967857 0.696111111,33 1.55555556,33 L12.4444444,33 C13.3038889,33 14,32.2967857 14,31.4285714 L14,18.8571429 C14,18.3315 13.7402222,17.8412143 13.307,17.5497143 L11.6666667,16.445 L11.6666667,15.6592857 L13.307,14.5537857 Z" id="Path" fill="#CBD5E1"></path>
                <path d="M9.33333333,3.14285714 L4.66666667,3.14285714 C4.23733333,3.14285714 3.88888889,2.79085714 3.88888889,2.35714286 L3.88888889,0.785714286 C3.88888889,0.352 4.23733333,0 4.66666667,0 L9.33333333,0 C9.76266667,0 10.1111111,0.352 10.1111111,0.785714286 L10.1111111,2.35714286 C10.1111111,2.79085714 9.76266667,3.14285714 9.33333333,3.14285714 Z" id="Path" fill="#4338CA"></path>
                <path d="M13.307,14.5537857 C13.7402222,14.2622857 14,13.772 14,13.2463571 L14,9.42857143 L0,9.42857143 L0,13.2463571 C0,13.772 0.259777778,14.2622857 0.693,14.5537857 L2.33333333,15.6592857 L2.33333333,16.445 L0.693,17.5497143 C0.259777778,17.8412143 0,18.3315 0,18.8571429 L0,31.4285714 C0,32.2967857 0.696111111,33 1.55555556,33 L12.4444444,33 C13.3038889,33 14,32.2967857 14,31.4285714 L14,18.8571429 C14,18.3315 13.7402222,17.8412143 13.307,17.5497143 L11.6666667,16.445 L11.6666667,15.6592857 L13.307,14.5537857 Z" id="Path" fill="#4338CA"></path>
                <path d="M14,24.6196667 L14,23 L0,23 L0,24.6196667 C0,24.8426667 0,26.777 0,27 L0,32.3333333 C0,32.7016667 0.696111111,33 1.55555556,33 L12.4444444,33 C13.3038889,33 14,32.7016667 14,32.3333333 L14,27 C14,26.777 14,24.8426667 14,24.6196667 Z" id="Path" fill="#0F172A"></path>
            </g>
        </g>
    </g>
</svg>