<?xml version="1.0" encoding="UTF-8"?>
<svg width="76px" height="76px" viewBox="0 0 76 76" version="1.1" xmlns="http://www.w3.org/2000/svg" xmlns:xlink="http://www.w3.org/1999/xlink">
    <title>auth-system-scale</title>
    <defs>
        <linearGradient x1="2.77555756e-15%" y1="100%" x2="100%" y2="2.77555756e-15%" id="linearGradient-1">
            <stop stop-color="#DDEDEB" offset="0%"></stop>
            <stop stop-color="#E6F9F7" offset="100%"></stop>
        </linearGradient>
    </defs>
    <g id="auth-system-scale" stroke="none" stroke-width="1" fill="none" fill-rule="evenodd">
        <rect id="Rectangle-Copy-8" fill="url(#linearGradient-1)" x="0" y="0" width="76" height="76" rx="12"></rect>
        <g id="Group" transform="translate(19, 19)">
            <rect id="Rectangle" fill="#14B8A6" x="0" y="20" width="18" height="18" rx="4"></rect>
            <path d="M34,0 C36.209139,-4.05812251e-16 38,1.790861 38,4 L38,26 C38,28.209139 36.209139,30 34,30 L22.9970703,30 C22.4842345,30.0003298 22.0615632,29.6143132 22.003798,29.1169762 L21.9974255,29.0000001 L22,21.7526245 C21.9988281,21.6587646 21.9980078,21.5399951 21.9975391,21.3963159 L21.9970703,21.0757446 C21.9970703,20.6335144 22.0820618,19.7800293 21.8771057,19.0063782 L21.8520008,18.906333 C23.1029676,17.6666833 24.8098871,15.9752058 26.972759,13.8319007 L26.9728152,19.9989188 C26.9728152,21.0531992 27.7884707,21.9169358 28.8230487,21.9932791 L28.9722703,21.9987644 C30.0765389,21.9987644 30.9717254,21.103403 30.9717254,19.9989188 L30.9717254,8.99984555 C30.9717254,7.89536135 30.0765389,7 28.9722703,7 L17.9755397,7 C16.8712711,7 15.9760846,7.89536135 15.9760846,8.99984555 C15.9760846,10.1043297 16.8712711,10.9996911 17.9755397,10.9996911 L24.2432079,11.0006584 C22.050138,13.1738865 20.3214565,14.8869269 19.0571633,16.1397794 C19.2382517,16.1858665 19.4093851,16.2450909 19.5724593,16.3141282 C19.9722117,16.4795522 20.4312677,16.7452264 20.8677521,17.2077484 L20.7620914,17.1009299 C20.9744726,17.304681 21.1590772,17.5259708 21.3152546,17.7551195 C21.6090231,18.1767932 21.7415089,18.531492 21.8147375,18.7778844 C21.8388865,18.8541584 21.8596474,18.9307972 21.8771057,19.0063782 L21.8520008,18.906333 C21.8406274,18.8683409 21.8287705,18.8251014 21.8147375,18.7778844 C21.7100034,18.4395313 21.5428015,18.0889841 21.3152546,17.7551195 C21.1960515,17.5834507 21.0488933,17.3996953 20.8677521,17.2077484 L20.7620914,17.1009299 C20.4318796,16.7841362 20.0345202,16.5097413 19.5724593,16.3141282 C19.3845299,16.2377314 19.2105742,16.1827283 19.0571633,16.1397794 C18.7271595,16.0494152 18.3678229,16 17.981842,16 L17.6428011,16.0006702 C17.2680031,16.0021263 16.9442979,16.0055642 16.4456073,16.0070202 L15.9700317,16.0076904 C15.5931101,16.0064188 15.1462456,16.0054626 14.6294381,16.0048218 L13.8017696,16.0040971 C13.7039779,16.0040428 13.6042433,16.0039974 13.5025658,16.0039606 L12.1891791,16.0039405 C12.0719588,16.0039739 11.9527956,16.004016 11.8316895,16.0040669 L10.6892779,16.0047615 C10.5565147,16.0048649 10.4218086,16.0049772 10.2851597,16.0050981 L9.44195182,16.0059291 C9.29753146,16.0060852 9.15116823,16.0062499 9.00286215,16.0064235 C8.45057966,16.0080008 8.00158481,15.5615688 8.0000041,15.0092863 L8,4 C8,1.790861 9.790861,4.05812251e-16 12,0 L34,0 Z" id="Combined-Shape" fill="#0F766E"></path>
        </g>
    </g>
</svg>