<?xml version="1.0" encoding="UTF-8"?>
<svg width="76px" height="76px" viewBox="0 0 76 76" version="1.1" xmlns="http://www.w3.org/2000/svg" xmlns:xlink="http://www.w3.org/1999/xlink">
    <title>auth-bottleneck-architecture-dark</title>
    <defs>
        <linearGradient x1="-3.88578059e-14%" y1="100%" x2="100%" y2="2.77555756e-15%" id="linearGradient-1">
            <stop stop-color="#3B1730" offset="0%"></stop>
            <stop stop-color="#5E3448" offset="100%"></stop>
        </linearGradient>
        <filter x="-107.4%" y="-93.4%" width="314.7%" height="292.1%" filterUnits="objectBoundingBox" id="filter-2">
            <feOffset dx="0" dy="1" in="SourceAlpha" result="shadowOffsetOuter1"></feOffset>
            <feGaussianBlur stdDeviation="12" in="shadowOffsetOuter1" result="shadowBlurOuter1"></feGaussianBlur>
            <feColorMatrix values="0 0 0 0 0   0 0 0 0 0   0 0 0 0 0  0 0 0 0.5 0" type="matrix" in="shadowBlurOuter1" result="shadowMatrixOuter1"></feColorMatrix>
            <feMerge>
                <feMergeNode in="shadowMatrixOuter1"></feMergeNode>
                <feMergeNode in="SourceGraphic"></feMergeNode>
            </feMerge>
        </filter>
    </defs>
    <g id="auth-bottleneck-architecture-dark" stroke="none" stroke-width="1" fill="none" fill-rule="evenodd">
        <rect id="Rectangle-Copy-7" fill="url(#linearGradient-1)" x="0" y="0" width="76" height="76" rx="12"></rect>
        <g id="Group" filter="url(#filter-2)" transform="translate(21, 19)">
            <path d="M28.6216135,0 C31.602987,0 34,2.44542473 34,5.48486545 L34,5.55208407 C34,8.85384449 32.4062505,11.4423297 28.4218758,15.5050347 L28.449,15.476 L28.4597716,15.4643398 C28.4717889,15.4422878 27.8984962,15.9848678 27.5298089,16.3494203 L27.3951186,16.4839861 C27.3551075,16.5245028 27.3206063,16.5600942 27.2934872,16.589 C26.8366135,17.0724491 26.4753873,17.5841061 26.097138,18.0783941 C24.3673881,20.3373795 23,22.8521625 23,26 C22.9357482,26 22.8663267,25.9999858 22.7920487,25.9999586 L21.6876333,25.9990939 C21.3632684,25.9987638 21.0064642,25.9983638 20.625673,25.9979289 L19.8346126,25.9970228 C19.1529174,25.9962461 18.4202442,25.9954371 17.6757242,25.9947575 L16.779118,25.9940144 C16.6295707,25.9939044 16.4801756,25.9938022 16.3312458,25.993709 L13.0065428,25.9938746 C12.1563901,25.994817 11.4517506,25.9967108 11,26 C11,22.8499958 9.63473774,20.3373795 7.90286249,18.0783941 C7.52461269,17.5862749 7.16338751,17.0702813 6.70651226,16.589 C6.61159563,16.4878299 6.42648318,16.3050011 6.23121749,16.1157487 L6.06322728,15.9537141 C5.72974138,15.6335177 5.43362517,15.3576153 5.57812525,15.5050347 L5.26045396,15.1789753 C1.51077731,11.3038288 0,8.76249853 0,5.55208407 L0,5.48486545 C0,2.44542473 2.39701246,0 5.37838751,0 Z M17,14 C14.790861,14 13,15.790861 13,18 C13,20.209139 14.790861,22 17,22 C19.209139,22 21,20.209139 21,18 C21,15.790861 19.209139,14 17,14 Z M11,4 C8.790861,4 7,5.790861 7,8 C7,10.209139 8.790861,12 11,12 C13.209139,12 15,10.209139 15,8 C15,5.790861 13.209139,4 11,4 Z M23,4 C20.790861,4 19,5.790861 19,8 C19,10.209139 20.790861,12 23,12 C25.209139,12 27,10.209139 27,8 C27,5.790861 25.209139,4 23,4 Z" id="Combined-Shape" fill="#F43F5E" fill-rule="nonzero"></path>
            <path d="M11,26 L23,26 L23,36 C23,37.1045695 22.1045695,38 21,38 L13,38 C11.8954305,38 11,37.1045695 11,36 L11,26 L11,26 Z" id="Rectangle" fill="#FB9CA7"></path>
        </g>
    </g>
</svg>