<?xml version="1.0" encoding="UTF-8"?>
<svg width="54px" height="54px" viewBox="0 0 54 54" version="1.1" xmlns="http://www.w3.org/2000/svg" xmlns:xlink="http://www.w3.org/1999/xlink">
    <title>authentication</title>
    <g id="authentication" stroke="none" stroke-width="1" fill="none" fill-rule="evenodd">
        <rect id="Rectangle" fill="#F1F5F9" x="0" y="0" width="54" height="54" rx="5"></rect>
        <g id="Group-2" transform="translate(13, 11)" fill-rule="nonzero">
            <g id="Group" transform="translate(0, 0.0003)" fill="#CBD5E1">
                <path d="M28.2818929,3.92406783 L14.7897555,0.0407984977 C14.60084,-0.0135994992 14.3994959,-0.0135994992 14.2105133,0.0407984977 L0.718107139,3.92406783 C0.291905278,4.04672113 0,4.42312433 0,4.85005837 L0,19.0886696 C0,20.9406507 0.781526836,22.8364596 2.3227464,24.7234384 C3.49984015,26.1645986 5.12839616,27.6117529 7.16299946,29.0247473 C10.5810121,31.3984078 13.9467572,32.854521 14.0883766,32.9152998 C14.2193141,32.9715669 14.3597242,32.9997327 14.5001344,32.9997327 C14.6405445,32.9997327 14.7809546,32.9716314 14.9118921,32.9152998 C15.0534443,32.854521 18.4191223,31.3984078 21.8371349,29.0247473 C23.8717382,27.6117529 25.500227,26.1645986 26.677388,24.7234384 C28.2186075,22.836524 29,20.9407152 29,19.0886696 L29,4.85005837 C29,4.42312433 28.7082291,4.04672113 28.2818929,3.92406783 Z" id="Path"></path>
            </g>
            <path d="M17.7222222,12.8782118 C17.7222222,14.656173 16.2794722,16.0976979 14.5,16.0976979 C12.7205278,16.0976979 11.2777778,14.656173 11.2777778,12.8782118 C11.2777778,11.1002506 12.7205278,9.65872564 14.5,9.65872564 C16.2794722,9.65872564 17.7222222,11.1002506 17.7222222,12.8782118 M20.1388889,20.9269271 C20.1388889,20.9269271 18.5777222,17.7074409 14.5,17.7074409 C10.4222778,17.7074409 8.86111111,20.9269271 8.86111111,20.9269271 L8.86111111,22.5366701 L20.1388889,22.5366701 L20.1388889,20.9269271 Z" id="Shape" fill="#312E81"></path>
            <path d="M28.2818929,3.92433511 L14.5001344,0 C14.3112189,-0.0541307076 14.3597242,33 14.5001344,33 C14.6405445,33 14.7809546,32.9718987 14.9118921,32.9155671 C15.0534443,32.8547883 18.4191223,31.3986751 21.8371349,29.0250146 C23.8717382,27.6120202 25.500227,26.1648659 26.677388,24.7237057 C28.2186075,22.8367913 29,20.9409824 29,19.0889369 L29,4.85032566 C29,4.42339162 28.7082291,4.04698842 28.2818929,3.92433511 Z" id="Path" fill="#0F172A" opacity="0.0987185524"></path>
        </g>
    </g>
</svg>