<svg xmlns="http://www.w3.org/2000/svg" width="70" height="70"><linearGradient id="a" x1="0%" x2="100%" y1="0%" y2="100%"><stop offset="0" stop-color="#a4aebe"/><stop offset="1" stop-color="#2d53f5"/></linearGradient><path fill="url(#a)" d="M26.5 0a6.242 6.242 0 0 1 6.235 6.235c0 2.9-1.99 5.344-4.676 6.038v8.189a6.26 6.26 0 0 1 4.479 4.48h8.189a6.247 6.247 0 0 1 6.038-4.677A6.242 6.242 0 0 1 53 26.5a6.242 6.242 0 0 1-6.235 6.235 6.196 6.196 0 0 1-3.165-.866L31.87 43.6c.549.93.865 2.011.865 3.166 0 3.438-2.797 6.235-6.235 6.235s-6.235-2.797-6.235-6.235 2.797-6.236 6.235-6.236a6.2 6.2 0 0 1 3.165.866l11.73-11.73a6.198 6.198 0 0 1-.668-1.606h-8.189a6.247 6.247 0 0 1-6.038 4.676 6.242 6.242 0 0 1-6.235-6.235c0-2.9 1.99-5.344 4.676-6.038v-8.189a6.259 6.259 0 0 1-4.479-4.479h-8.189a6.246 6.246 0 0 1-6.038 4.677A6.242 6.242 0 0 1 0 6.235 6.242 6.242 0 0 1 6.235 0c2.9 0 5.344 1.99 6.038 4.676h8.189A6.246 6.246 0 0 1 26.5 0zM6.235 40.53c3.438 0 6.236 2.797 6.236 6.235S9.673 53 6.235 53C2.797 53 0 50.203 0 46.765s2.797-6.236 6.235-6.236zm40.53 0c3.438 0 6.235 2.797 6.235 6.235S50.203 53 46.765 53s-6.236-2.797-6.236-6.235 2.798-6.236 6.236-6.236zM26.5 43.646c-1.72 0-3.118 1.399-3.118 3.118s1.399 3.117 3.118 3.117 3.118-1.398 3.118-3.117-1.399-3.118-3.118-3.118zm-20.265 0c-1.719 0-3.117 1.399-3.117 3.118s1.398 3.117 3.117 3.117 3.118-1.398 3.118-3.117-1.399-3.118-3.118-3.118zm40.53 0c-1.72 0-3.118 1.399-3.118 3.118s1.399 3.117 3.118 3.117 3.117-1.398 3.117-3.117-1.398-3.118-3.117-3.118zM6.235 20.265a6.242 6.242 0 0 1 6.236 6.235 6.242 6.242 0 0 1-6.236 6.235A6.242 6.242 0 0 1 0 26.5a6.242 6.242 0 0 1 6.235-6.235zM26.5 23.382a3.121 3.121 0 0 0-3.118 3.118c0 1.72 1.399 3.118 3.118 3.118s3.118-1.399 3.118-3.118a3.121 3.121 0 0 0-3.118-3.118zm20.265 0a3.121 3.121 0 0 0-3.118 3.118c0 1.72 1.399 3.118 3.118 3.118s3.117-1.399 3.117-3.118a3.121 3.121 0 0 0-3.117-3.118zm-40.53 0A3.121 3.121 0 0 0 3.118 26.5c0 1.72 1.398 3.118 3.117 3.118s3.118-1.399 3.118-3.118a3.121 3.121 0 0 0-3.118-3.118zM46.765 0A6.242 6.242 0 0 1 53 6.235c0 3.439-2.797 6.236-6.235 6.236s-6.236-2.797-6.236-6.236A6.242 6.242 0 0 1 46.765 0zm0 3.118a3.121 3.121 0 0 0-3.118 3.117c0 1.72 1.399 3.118 3.118 3.118s3.117-1.399 3.117-3.118a3.121 3.121 0 0 0-3.117-3.117zm-40.53 0a3.121 3.121 0 0 0-3.117 3.117c0 1.72 1.398 3.118 3.117 3.118s3.118-1.399 3.118-3.118a3.121 3.121 0 0 0-3.118-3.117zm20.265 0a3.121 3.121 0 0 0-3.118 3.117c0 1.72 1.399 3.118 3.118 3.118s3.118-1.399 3.118-3.118A3.121 3.121 0 0 0 26.5 3.118z" transform="translate(9 9)"/></svg>