<svg xmlns="http://www.w3.org/2000/svg" width="70" height="70"><linearGradient id="a" x1="38.739%" x2="61.261%" y1="0%" y2="100%"><stop offset="0" stop-color="#a4aebe"/><stop offset="1" stop-color="#2d53f5"/></linearGradient><path fill="url(#a)" stroke="url(#a)" stroke-width=".9" d="M22.91 10.39V3.848C22.91 1.726 21.195 0 19.084 0H8.909C6.805 0 5.092 1.725 5.09 3.847v6.543C2.19 10.987 0 13.578 0 16.674v35.913C.001 56.123 2.856 59 6.365 59h15.272C25.145 59 28 56.123 28 52.587V16.674c0-3.096-2.19-5.687-5.09-6.284zM7.636 3.848c0-.707.57-1.283 1.273-1.283H14c2.643 0 4.188 0 5.091-.092v.092a1.28 1.28 0 0 1 1.273 1.283v6.413H7.637zm17.818 48.739c0 2.121-1.713 3.848-3.818 3.848H6.365c-2.105 0-3.818-1.727-3.818-3.848V30.783h22.908zm0-24.37H2.547v-5.13h22.908zm0-7.695H2.547v-3.848c0-2.122 1.713-3.848 3.818-3.848h15.272c2.105 0 3.818 1.726 3.818 3.848z" transform="translate(21 6)"/></svg>