<?xml version="1.0" encoding="UTF-8"?>
<svg width="76px" height="76px" viewBox="0 0 76 76" version="1.1" xmlns="http://www.w3.org/2000/svg" xmlns:xlink="http://www.w3.org/1999/xlink">
    <title>authentication</title>
    <defs>
        <linearGradient x1="-3.88578059e-14%" y1="100%" x2="100%" y2="2.77555756e-15%" id="linearGradient-1">
            <stop stop-color="#E7E6F1" offset="0%"></stop>
            <stop stop-color="#F0F1FD" offset="100%"></stop>
        </linearGradient>
    </defs>
    <g id="authentication" stroke="none" stroke-width="1" fill="none" fill-rule="evenodd">
        <rect id="Rectangle-Copy-6" fill="url(#linearGradient-1)" x="0" y="0" width="76" height="76" rx="12"></rect>
        <g id="shield-lock-fill-copy-3" transform="translate(22, 19)" fill="#6366F1" fill-rule="nonzero">
            <path d="M15.483871,0.0383728033 C15.7539997,-0.0127909344 16.3719769,-0.0127909344 16.516129,0.0383728033 L30.9677419,6.02244023 C31.546011,6.17803444 32,6.83938396 32,8.01712937 C32,16.1076004 31.6920242,19.6397635 29.9354839,23.9746425 C28.064024,29.4669908 23.9659996,33.9144821 16.516129,37.9374656 C16.3859997,38.0208448 15.6140003,38.0208448 15.483871,37.9374656 C8.09600067,33.9485906 4.01598835,29.4859389 2.06451613,23.9746425 C0.349988222,19.6094446 0,15.8953646 0,8.01712937 C0,6.83559432 0.449988306,6.17613917 1.03225806,6.02244023 C2.94398832,5.16802453 13.4919996,0.902471371 15.483871,0.0383728033 Z M16,12 C13.7908001,12 12,13.7899995 12,16 C12,17.4199995 12.8856001,18.4140229 14,19.1240233 L14,24 C14,25.1039989 14.8954,26 16,26 C17.104599,26 18,25.1039989 18,24 L18,19.1240233 C19.1145992,18.4160237 20,17.4199995 20,16 C20,13.7899995 18.2091999,12 16,12 Z" id="Combined-Shape"></path>
        </g>
    </g>
</svg>