<?xml version="1.0" encoding="UTF-8"?>
<svg width="76px" height="76px" viewBox="0 0 76 76" version="1.1" xmlns="http://www.w3.org/2000/svg" xmlns:xlink="http://www.w3.org/1999/xlink">
    <title>authorization-models-light</title>
    <defs>
        <linearGradient x1="-3.88578059e-14%" y1="100%" x2="100%" y2="2.77555756e-15%" id="linearGradient-1">
            <stop stop-color="#DDE7EC" offset="0%"></stop>
            <stop stop-color="#E7F6FD" offset="100%"></stop>
        </linearGradient>
    </defs>
    <g id="authorization-models-light" stroke="none" stroke-width="1" fill="none" fill-rule="evenodd">
        <rect id="Rectangle" fill="url(#linearGradient-1)" x="0" y="0" width="76" height="76" rx="12"></rect>
        <g id="Group" transform="translate(19, 19)">
            <path d="M2.85159407,12.3419266 L15.8515941,18.4595737 C16.5525789,18.7894489 17,19.494487 17,20.2692111 L17,34.8419617 C17,35.9465312 16.1045695,36.8419617 15,36.8419617 C14.7043315,36.8419617 14.4123409,36.7764065 14.1450486,36.6500154 L2.29009721,31.044315 C0.891780174,30.3831106 1.89424075e-16,28.9749726 0,27.4282076 L4.4408921e-16,14.151564 C3.0881846e-16,13.0469945 0.8954305,12.151564 2,12.151564 C2.29441597,12.151564 2.58520099,12.2165652 2.85159407,12.3419266 Z" id="Rectangle" fill="#0EA5E9"></path>
            <path d="M23.8515941,12.3419266 L36.8515941,18.4595737 C37.5525789,18.7894489 38,19.494487 38,20.2692111 L38,34.8419617 C38,35.9465312 37.1045695,36.8419617 36,36.8419617 C35.7043315,36.8419617 35.4123409,36.7764065 35.1450486,36.6500154 L23.2900972,31.044315 C21.8917802,30.3831106 21,28.9749726 21,27.4282076 L21,14.151564 C21,13.0469945 21.8954305,12.151564 23,12.151564 C23.294416,12.151564 23.585201,12.2165652 23.8515941,12.3419266 Z" id="Rectangle" fill="#0EA5E9" transform="translate(29.5, 24.5) scale(-1, 1) translate(-29.5, -24.5)"></path>
            <path d="M19.7343331,0.289868317 L33.2872135,5.63968956 C34.3146346,6.04525051 34.8187519,7.20691198 34.4131909,8.23433307 C34.2099008,8.74933465 33.8022151,9.15702034 33.2872135,9.36031044 L19.7343331,14.7101317 C19.2624928,14.8963844 18.7375072,14.8963844 18.2656669,14.7101317 L4.71278645,9.36031044 C3.68536537,8.95474949 3.18124813,7.79308802 3.58680908,6.76566693 C3.79009918,6.25066535 4.19778487,5.84297966 4.71278645,5.63968956 L18.2656669,0.289868317 C18.7375072,0.103615574 19.2624928,0.103615574 19.7343331,0.289868317 Z" id="Rectangle" fill="#0369A1"></path>
        </g>
    </g>
</svg>