<?xml version="1.0" encoding="UTF-8"?>
<svg width="54px" height="54px" viewBox="0 0 54 54" version="1.1" xmlns="http://www.w3.org/2000/svg" xmlns:xlink="http://www.w3.org/1999/xlink">
    <title>auth-providers-zero-trust</title>
    <g id="auth-providers-zero-trust" stroke="none" stroke-width="1" fill="none" fill-rule="evenodd">
        <rect id="Rectangle" fill="#F1F5F9" x="0" y="0" width="54" height="54" rx="5"></rect>
        <g id="Group" transform="translate(15, 13)">
            <path d="M24.3809421,3.32973889 L12.7497892,0.034843698 C12.586931,-0.0113121781 12.4133585,-0.0113121781 12.2504425,0.034843698 L0.619057878,3.32973889 C0.251642481,3.43380835 0,3.75318077 0,4.11542783 L0,16.1966737 C0,17.7680516 0.673730031,19.3766167 2.00236758,20.9776897 C3.01710358,22.2004923 4.42103117,23.4283808 6.17499954,24.6272851 C9.12156214,26.6413001 12.0230666,27.8767901 12.1451522,27.92836 C12.2580294,27.9761018 12.3790726,28 12.5001158,28 C12.621159,28 12.7422023,27.9761564 12.8550794,27.92836 C12.9771072,27.8767901 15.8785537,26.6413001 18.8251163,24.6272851 C20.5790847,23.4283808 21.9829543,22.2004923 22.9977482,20.9776897 C24.3263858,19.3766714 25,17.7681063 25,16.1966737 L25,4.11542783 C25,3.75318077 24.7484733,3.43380835 24.3809421,3.32973889 Z" id="Path" fill="#CBD5E1" fill-rule="nonzero"></path>
            <ellipse id="Oval" fill="#E11D48" cx="12.0689655" cy="13.5757576" rx="6.89655172" ry="6.78787879"></ellipse>
            <polyline id="Path-5" stroke="#FFFFFF" stroke-width="1.7" stroke-linejoin="round" points="8.99770219 14 11.4098965 16.271109 14.7900961 10.0946928"></polyline>
            <path d="M24.3809421,3.32973889 L12.5001158,0 C12.3372577,-0.0459290852 12.3790726,28 12.5001158,28 C12.621159,28 12.7422023,27.9761564 12.8550794,27.92836 C12.9771072,27.8767901 15.8785537,26.6413001 18.8251163,24.6272851 C20.5790847,23.4283808 21.9829543,22.2004923 22.9977482,20.9776897 C24.3263858,19.3766714 25,17.7681063 25,16.1966737 L25,4.11542783 C25,3.75318077 24.7484733,3.43380835 24.3809421,3.32973889 Z" id="Path" fill="#0F172A" fill-rule="nonzero" opacity="0.0838092622"></path>
        </g>
    </g>
</svg>