<svg xmlns="http://www.w3.org/2000/svg" width="70" height="70"><linearGradient id="a" x1="1.681%" x2="98.319%" y1="0%" y2="100%"><stop offset="0" stop-color="#a4aebe"/><stop offset="1" stop-color="#2d53f5"/></linearGradient><path fill="url(#a)" d="M35.433.153c3.985.8 6.678 4.548 6.173 8.59l-1.646 13.21h13.25c1.494 0 2.901.699 3.807 1.888a4.813 4.813 0 0 1 .814 4.18l-6.168 22.674a7.546 7.546 0 0 1-7.262 5.56H17.328A4.795 4.795 0 0 1 13 59H4.79A4.802 4.802 0 0 1 0 54.198V24.01a4.802 4.802 0 0 1 4.79-4.802H13c1.417.002 2.69.62 3.568 1.601a30.094 30.094 0 0 0 5.69-6.2 30.185 30.185 0 0 0 4.177-8.912c1.087-3.926 5.012-6.345 8.997-5.545zM13.001 23.325H4.79a.686.686 0 0 0-.684.686v30.187c0 .378.306.685.684.686H13a.686.686 0 0 0 .684-.686V24.01a.686.686 0 0 0-.684-.686zm20.907-19.21a3.65 3.65 0 0 0-3.521 2.709 34.356 34.356 0 0 1-4.749 10.123 34.167 34.167 0 0 1-7.847 8.123v27.07H44.4a3.432 3.432 0 0 0 3.3-2.528l6.169-22.676a.686.686 0 0 0-.66-.867H37.635a2.047 2.047 0 0 1-1.54-.695 2.06 2.06 0 0 1-.496-1.619l1.935-15.523a3.67 3.67 0 0 0-.887-2.877 3.648 3.648 0 0 0-2.738-1.24z" transform="translate(6 6)"/></svg>