<svg xmlns="http://www.w3.org/2000/svg" width="70" height="70"><defs><linearGradient id="a" x1="15.513%" x2="84.487%" y1="0%" y2="100%"><stop offset="0%" stop-color="#A4AEBE"/><stop offset="100%" stop-color="#2D53F5"/></linearGradient></defs><path fill="url(#a)" d="M58.787 13.016 35.989 6.073a1.677 1.677 0 0 0-.978 0l-22.798 6.943c-.72.22-1.213.892-1.213 1.655V40.13c0 3.31 1.32 6.7 3.925 10.074 1.989 2.577 4.74 5.164 8.178 7.69 5.775 4.244 11.462 6.847 11.701 6.956a1.68 1.68 0 0 0 1.392 0c.24-.109 5.926-2.712 11.701-6.956 3.438-2.526 6.19-5.113 8.178-7.69C58.68 46.829 60 43.44 60 40.129V14.67c0-.763-.493-1.436-1.213-1.655Zm-2.192 27.113c0 5.86-5.792 11.354-10.65 14.932-4.357 3.207-8.775 5.483-10.445 6.3-1.67-.817-6.088-3.093-10.444-6.3-4.859-3.578-10.65-9.073-10.65-14.932V15.957L35.5 9.533l21.095 6.424V40.13Z"/></svg>