<?xml version="1.0" encoding="UTF-8"?>
<svg width="54px" height="54px" viewBox="0 0 54 54" version="1.1" xmlns="http://www.w3.org/2000/svg" xmlns:xlink="http://www.w3.org/1999/xlink">
    <title>auth-system-scale</title>
    <g id="auth-system-scale" stroke="none" stroke-width="1" fill="none" fill-rule="evenodd">
        <rect id="Rectangle" fill="#F1F5F9" x="0" y="0" width="54" height="54" rx="5"></rect>
        <g id="icons8-scale-tool" transform="translate(13, 13)" fill-rule="nonzero">
            <path d="M26,23.8 L6.2,23.8 C5.0954305,23.8 4.2,22.9045695 4.2,21.8 L4.2,2 C4.2,0.8954305 5.0954305,2.02906125e-16 6.2,0 L26,0 C27.1045695,-2.02906125e-16 28,0.8954305 28,2 L28,21.8 C28,22.9045695 27.1045695,23.8 26,23.8 Z" id="Path" fill="#F58320"></path>
            <path d="M11.3,28 L2,28 C0.8954305,28 1.3527075e-16,27.1045695 0,26 L0,16.7 C-1.3527075e-16,15.5954305 0.8954305,14.7 2,14.7 L11.3,14.7 C12.4045695,14.7 13.3,15.5954305 13.3,16.7 L13.3,26 C13.3,27.1045695 12.4045695,28 11.3,28 Z" id="Path" fill="#CBD5E1"></path>
            <path d="M19.8,7.7 L14.5775654,7.7 C14.301423,7.7 14.0775654,7.92385763 14.0775654,8.2 C14.0775654,8.33258374 14.1302244,8.45973927 14.223962,8.55350339 L15.4916966,9.82159661 C15.6868827,10.0169076 15.6868536,10.3334632 15.4916314,10.5287382 L8.05356858,17.9661618 C7.85828285,18.1614004 7.85826925,18.4779829 8.05352301,18.6732534 C8.05352807,18.6732585 8.05353313,18.6732635 8.05355339,18.6732534 L9.32674661,19.9464466 C9.52199356,20.1417239 9.83857605,20.1417239 10.0338382,19.9464618 C10.0338433,19.9464567 10.0338483,19.9464517 10.0338382,19.9464314 L17.4712618,12.5083686 C17.6665368,12.3131464 17.9830924,12.3131173 18.1784034,12.5083034 L19.4464966,13.776038 C19.6417864,13.9712725 19.9583689,13.9712277 20.1536034,13.775938 C20.247341,13.6821739 20.3,13.5550183 20.3,13.4224346 L20.3,8.2 C20.3,7.92385763 20.0761424,7.7 19.8,7.7 Z" id="Path" fill="#312E81"></path>
        </g>
    </g>
</svg>