<svg height="70" viewBox="0 0 70 70" width="70" xmlns="http://www.w3.org/2000/svg" xmlns:xlink="http://www.w3.org/1999/xlink"><linearGradient id="a"><stop offset="0" stop-color="#a4aebe"/><stop offset="1" stop-color="#2d53f5"/></linearGradient><linearGradient id="b" x1="30.526845%" x2="69.473156%" xlink:href="#a" y1="0%" y2="100%"/><linearGradient id="c" x1="0%" x2="100%" xlink:href="#a" y1="1.868993%" y2="98.131008%"/><g fill="none" fill-rule="nonzero" transform="translate(9 9)"><path d="m7.9353358 19.8499397c-.00611642 0-.01223284 0-.01834927 0-1.12542167-.0100075-2.03065214-.9136853-2.02045811-2.0195146l.00917464-1.0007506c0-.0570428.00305821-.1150863.00917463-.1721291.28237482-2.9111834 2.25084334-4.6955216 3.83397727-6.1295972.53620634-.4863648 1.04386934-.94570928 1.47609654-1.4250688.5270317-.58343758 1.2915845-1.77833375.487275-3.22041532-.926638-1.66524893-3.18971418-2.13660245-4.94818554-1.74130598-1.83696544.41230924-2.51384949 1.95246435-2.75442876 2.83312485-.29154946 1.06780085-1.4098353 1.70127596-2.49753904 1.41606204-1.08770373-.28621466-1.73298627-1.38403802-1.44245622-2.45183887.81246474-2.97923443 2.92059157-5.05579185 5.78307712-5.69927446 3.85232654-.86364774 7.73217694.66449837 9.43560054 3.72179134 1.4179905 2.54590944 1.0295977 5.53314987-1.0143067 7.7968476-.5678078.6284714-1.174353 1.1788842-1.7615295 1.7102828-1.4628443 1.3259944-2.3772494 2.2126594-2.5321988 3.4926194l-.00815523.9036778c-.00815523 1.1018263-.91950213 1.9854891-2.03676857 1.9854891zm-.0010194 6.0005004c-.53008992 0-1.06017984-.2101577-1.4373592-.5804354-.38737341-.3702777-.60144818-.890668-.60144818-1.4210658 0-.5203903.21407477-1.0407805.60144818-1.4110583.75435872-.7405554 2.12035967-.7405554 2.8747184 0 .3873734.3702778.60144817.890668.60144817 1.4110583 0 .5303978-.21407477 1.0407806-.59125414 1.4210658-.3873734.3702777-.90726928.5804354-1.44755323.5804354z" fill="url(#b)" transform="translate(18.693572 13.843194)"/><path d="m26.4272041 52c-2.3191434 0-4.6178987-.2962222-6.833063-.8816612-9.5456961-2.5208907-17.01996394-10.2837128-19.04144145-19.7778334-2.06021485-9.6722542 1.7421609-19.8398799 9.68841265-25.90342759 4.593433-3.50562922 10.3867042-5.43707781 16.3135172-5.43707781 4.1030999 0 8.1776564.93670253 11.7843067 2.70703027 8.90653 4.37428071 14.6610638 13.51313483 14.6610638 23.28346263 0 7.971979-3.8319385 15.6557418-10.2501041 20.553415-4.6097435 3.518639-10.4070922 5.4560921-16.3226918 5.4560921zm.1284448-47.99699775c-5.0246408 0-9.9300113 1.63122342-13.8108811 4.59444584-6.72500617 5.13184891-9.94428302 13.73730301-8.20008331 21.92344261 1.71055939 8.0310232 8.03392051 14.5989492 16.10963651 16.7315486 1.8695863.4933701 3.8125698.7445584 5.7728831.7445584h.0010194c5.0134273 0 9.9208367-1.6382286 13.8200558-4.61346 5.4324022-4.1451089 8.6751254-10.6469853 8.6751254-17.3930448 0-8.2672004-4.8696915-16.00100078-12.4071623-19.70277711-3.0439394-1.49412059-6.4874851-2.28471354-9.9605935-2.28471354z" fill="url(#c)"/></g></svg>