<svg xmlns="http://www.w3.org/2000/svg" xmlns:xlink="http://www.w3.org/1999/xlink" width="70" height="70"><linearGradient id="a"><stop offset="0" stop-color="#a4aebe"/><stop offset="1" stop-color="#2d53f5"/></linearGradient><linearGradient xlink:href="#a" id="b" x1="30.527%" x2="69.473%" y1="0%" y2="100%"/><linearGradient xlink:href="#a" id="c" x1="0%" x2="100%" y1="1.869%" y2="98.131%"/><g fill="none"><path fill="url(#b)" d="M7.935 19.85h-.018c-1.125-.01-2.03-.914-2.02-2.02l.009-1c0-.057.003-.115.009-.172.282-2.912 2.25-4.696 3.834-6.13.536-.486 1.044-.946 1.476-1.425.527-.584 1.292-1.778.487-3.22-.926-1.666-3.19-2.137-4.948-1.742-1.837.412-2.514 1.953-2.754 2.833C3.718 8.042 2.6 8.676 1.512 8.39.424 8.104-.22 7.006.07 5.94.882 2.959 2.99.883 5.853.239c3.852-.863 7.732.665 9.435 3.722 1.418 2.546 1.03 5.533-1.014 7.797-.568.628-1.174 1.179-1.762 1.71-1.462 1.326-2.377 2.213-2.532 3.493l-.008.903c-.008 1.102-.92 1.986-2.037 1.986zm0 6c-.53 0-1.06-.21-1.438-.58a1.967 1.967 0 0 1 0-2.832c.754-.74 2.12-.74 2.875 0 .387.37.601.89.601 1.41 0 .531-.214 1.042-.591 1.422a2.1 2.1 0 0 1-1.448.58z" transform="translate(27.694 22.843)"/><path fill="url(#c)" d="M26.427 52c-2.319 0-4.618-.296-6.833-.882-9.546-2.52-17.02-10.283-19.041-19.777-2.06-9.673 1.742-19.84 9.688-25.904C14.835 1.931 20.628 0 26.555 0c4.103 0 8.177.937 11.784 2.707C47.245 7.081 53 16.22 53 25.99c0 7.972-3.832 15.656-10.25 20.554C38.14 50.063 32.343 52 26.427 52zm.129-47.997c-5.025 0-9.93 1.631-13.811 4.594C6.02 13.73 2.8 22.335 4.545 30.521c1.71 8.03 8.034 14.599 16.11 16.731a22.64 22.64 0 0 0 5.772.745h.001c5.014 0 9.921-1.638 13.82-4.613 5.433-4.146 8.675-10.647 8.675-17.394 0-8.267-4.87-16-12.407-19.702-3.044-1.494-6.487-2.285-9.96-2.285z" transform="translate(9 9)"/></g></svg>