<svg xmlns="http://www.w3.org/2000/svg" width="70" height="70"><linearGradient id="a" x1="0%" x2="100%" y1="12.842%" y2="87.158%"><stop offset="0" stop-color="#a4aebe"/><stop offset="1" stop-color="#2d53f5"/></linearGradient><path fill="url(#a)" d="M29 0c1.815 0 3.525.968 4.462 2.526l23.79 39.553a5.242 5.242 0 0 1 .076 5.266A5.216 5.216 0 0 1 52.79 50H5.209a5.216 5.216 0 0 1-4.537-2.655 5.243 5.243 0 0 1 .075-5.266l23.79-39.553A5.236 5.236 0 0 1 29 0zm0 3.786c-.5 0-.97.266-1.228.695L3.98 44.034a1.436 1.436 0 0 0 1.228 2.18H52.79a1.436 1.436 0 0 0 1.228-2.18L30.229 4.481A1.441 1.441 0 0 0 29 3.786zm.053 32.264c1.436 0 2.662 1.23 2.662 2.705 0 1.44-1.226 2.704-2.662 2.704-1.542 0-2.698-1.264-2.698-2.704 0-1.475 1.156-2.705 2.698-2.705zm-.035-20.475c1.366 0 2.522.773 2.522 2.142 0 4.18-.49 10.185-.49 14.365 0 1.089-1.192 1.545-2.032 1.545-1.121 0-2.067-.456-2.068-1.545 0-4.18-.49-10.185-.49-14.365 0-1.37 1.121-2.142 2.558-2.142z" transform="translate(6 10)"/></svg>