<?xml version="1.0" encoding="UTF-8"?>
<svg width="76px" height="76px" viewBox="0 0 76 76" version="1.1" xmlns="http://www.w3.org/2000/svg" xmlns:xlink="http://www.w3.org/1999/xlink">
    <title>avoiding-authentication-system-lock-in</title>
    <defs>
        <linearGradient x1="-3.88578059e-14%" y1="100%" x2="100%" y2="2.77555756e-15%" id="linearGradient-1">
            <stop stop-color="#F2E4E8" offset="0%"></stop>
            <stop stop-color="#FFF4F6" offset="100%"></stop>
        </linearGradient>
    </defs>
    <g id="avoiding-authentication-system-lock-in" stroke="none" stroke-width="1" fill="none" fill-rule="evenodd">
        <rect id="Rectangle-Copy-10" fill="url(#linearGradient-1)" x="0" y="0" width="76" height="76" rx="12"></rect>
        <path d="M39.4162773,20.3327149 C39.936902,20.6103191 40.363147,21.0365642 40.6407513,21.5571889 L56.6662319,51.6117091 C57.438727,53.0604625 56.8905114,54.8611402 55.4417579,55.6336353 C55.0112664,55.8631793 54.530898,55.9832476 54.0430318,55.9832476 L21.9920705,55.9832476 C20.3502315,55.9832476 19.0192581,54.6522742 19.0192581,53.0104352 C19.0192581,52.522569 19.1393264,52.0422006 19.3688704,51.6117091 L35.394351,21.5571889 C36.1668461,20.1084355 37.9675239,19.5602198 39.4162773,20.3327149 Z M38,35 C35.7908001,35 34,36.7899995 34,39 C34,40.4199995 34.8856001,41.4140229 36,42.1240233 L36,47 C36,48.1039989 36.8954,49 38,49 C39.104599,49 40,48.1039989 40,47 L40,42.1240233 C41.1145992,41.4160237 42,40.4199995 42,39 C42,36.7899995 40.2091999,35 38,35 Z" id="Combined-Shape" fill="#F43F5E"></path>
    </g>
</svg>