<svg height="70" viewBox="0 0 70 70" width="70" xmlns="http://www.w3.org/2000/svg" xmlns:xlink="http://www.w3.org/1999/xlink"><linearGradient id="a" x1="0%" x2="100%" y1="12.841855%" y2="87.158145%"><stop offset="0" stop-color="#a4aebe"/><stop offset="1" stop-color="#2d53f5"/></linearGradient><path d="m28.9999499 0c1.8151063 0 3.524861.96800936 4.4621504 2.52620462l23.7906593 39.55301678c.9687817 1.6103206.9974418 3.6281045.0749922 5.2657938-.9226762 1.6376892-2.6612043 2.6549848-4.5371427 2.6549848h-47.58131848c-1.87593835 0-3.6143532-1.0172956-4.5370294-2.6548713-.92244964-1.6375756-.89378947-3.6553596.07487894-5.2659073l23.79054594-39.55290322c.9374028-1.55830882 2.6471575-2.52631818 4.4622638-2.52631818zm.0001133 3.78561614c-.4996839 0-.9703677.2665319-1.2284225.69545862l-23.79077251 39.55301684c-.2665509.4432356-.27448059.9987848-.02050392 1.4496292.2538634.4507307.7324769.7307766 1.24892635.7307766h47.58131848c.5164495 0 .995063-.2801594 1.2490397-.7308902.2539766-.4507308.2460469-1.0061665-.0207305-1.4495156l-23.790546-39.55301684c-.2580548-.42892672-.7287386-.69545862-1.2283091-.69545862zm.0526758 32.26478306c1.4362936 0 2.662677 1.2292038 2.662677 2.7043846 0 1.4399764-1.2262701 2.7043847-2.662677 2.7043847-1.541532 0-2.697681-1.2644083-2.697681-2.7043847 0-1.4751808 1.1562623-2.7043846 2.697681-2.7043846zm-.0352305-20.4754875c1.366399 0 2.5224347.7727949 2.5224347 2.1424759 0 4.1794519-.4903947 10.1851074-.4903947 14.3644458 0 1.0887266-1.1911529 1.5452491-2.0319267 1.5452491-1.1210318 0-2.067044-.4565225-2.0671572-1.5452491 0-4.179452-.4903948-10.1851074-.4903948-14.3644458 0-1.3697946 1.1210318-2.1424759 2.5574387-2.1424759z" fill="url(#a)" transform="translate(6 10)"/></svg>