<?xml version="1.0" encoding="UTF-8"?>
<svg width="54px" height="54px" viewBox="0 0 54 54" version="1.1" xmlns="http://www.w3.org/2000/svg" xmlns:xlink="http://www.w3.org/1999/xlink">
    <title>avoiding-authentication-system-lock-in</title>
    <g id="avoiding-authentication-system-lock-in" stroke="none" stroke-width="1" fill="none" fill-rule="evenodd">
        <rect id="Rectangle" fill="#F1F5F9" x="0" y="0" width="54" height="54" rx="5"></rect>
        <g id="icons8-error" transform="translate(12, 14)" fill-rule="nonzero">
            <path d="M28.3330014,26.8965517 L1.66616525,26.8965517 C1.06866145,26.8965517 0.518657956,26.5746336 0.221156065,26.0526724 C-0.0755124874,25.5307112 -0.0738458102,24.888556 0.226989435,24.3682759 L13.5604075,0.833793103 C13.8587427,0.317715517 14.4070796,0 14.9995833,0 C15.5920871,0 16.1404239,0.317715517 16.4395925,0.833793103 L29.7730106,24.3682759 C30.0738458,24.888556 30.0755125,25.5307112 29.7788439,26.0526724 C29.4821754,26.5746336 28.9296719,26.8965517 28.3330014,26.8965517 Z" id="Path" fill="#FCD34D"></path>
            <path d="M13.3329061,21.9728017 C13.3329061,21.7467026 13.372073,21.5399353 13.4520735,21.3457759 C13.5304073,21.1541379 13.642908,20.9877155 13.787909,20.8481897 C13.9304099,20.7069828 14.1062443,20.596875 14.3079123,20.5178664 C14.5112469,20.4405388 14.7395817,20.3993534 14.9945833,20.3993534 C15.2495849,20.3993534 15.4795864,20.4405388 15.6845877,20.5178664 C15.8929223,20.596875 16.0687568,20.7069828 16.2112577,20.8481897 C16.357092,20.9877155 16.4695927,21.1541379 16.5470932,21.3457759 C16.6270937,21.5399353 16.6662606,21.7467026 16.6662606,21.9728017 C16.6662606,22.1997414 16.6270937,22.4065086 16.5470932,22.5947845 C16.4687593,22.7839009 16.3562586,22.9469612 16.2112577,23.0890086 C16.0687568,23.2285345 15.8929223,23.3378017 15.6845877,23.4184914 C15.4795864,23.495819 15.2495849,23.5344828 14.9945833,23.5344828 C14.7387483,23.5344828 14.5112469,23.495819 14.3079123,23.4176509 C14.1062443,23.3369612 13.9304099,23.227694 13.787909,23.0881681 C13.6420747,22.9461207 13.529574,22.7830603 13.4520735,22.593944 C13.372073,22.4056681 13.3329061,22.1989009 13.3329061,21.9728017 M16.2329245,18.4913793 L13.7554088,18.4913793 L13.4045732,8.40517241 L16.5829267,8.40517241 L16.2329245,18.4913793 Z" id="Shape" fill="#4338CA"></path>
        </g>
    </g>
</svg>