<svg xmlns="http://www.w3.org/2000/svg" xmlns:xlink="http://www.w3.org/1999/xlink" width="66" height="66"><defs><linearGradient id="c" x1="31.712%" x2="93.74%" y1="17.686%" y2="71.486%"><stop offset="0%" stop-color="#6366F1"/><stop offset="100%"/></linearGradient><filter id="b" width="116.7%" height="116.7%" x="-8.3%" y="-6.7%" filterUnits="objectBoundingBox"><feMorphology in="SourceAlpha" operator="dilate" radius=".5" result="shadowSpreadOuter1"/><feOffset dy="1" in="shadowSpreadOuter1" result="shadowOffsetOuter1"/><feGaussianBlur in="shadowOffsetOuter1" result="shadowBlurOuter1" stdDeviation="1"/><feColorMatrix in="shadowBlurOuter1" values="0 0 0 0 0 0 0 0 0 0 0 0 0 0 0 0 0 0 0.11324369 0"/></filter><circle id="a" cx="30" cy="30" r="30"/></defs><g fill="none" fill-rule="evenodd"><g transform="translate(3 2)"><use xlink:href="#a" fill="#000" filter="url(#b)"/><use xlink:href="#a" fill="#F1F5F9"/></g><path fill="url(#c)" fill-rule="nonzero" d="m35.632 13.534-8.325-8.919a1.339 1.339 0 0 0-1.909-.056 1.376 1.376 0 0 0-.055 1.93l7.451 7.982-7.45 7.982a1.376 1.376 0 0 0 .054 1.93 1.339 1.339 0 0 0 1.909-.055l8.325-8.92c.49-.526.49-1.348 0-1.874Zm-24.975 8.919-7.45-7.982 7.45-7.982a1.376 1.376 0 0 0-.055-1.93 1.34 1.34 0 0 0-1.909.056L.368 13.534a1.377 1.377 0 0 0 0 1.874l8.326 8.92a1.339 1.339 0 0 0 1.908.054 1.376 1.376 0 0 0 .055-1.93ZM20.184.016a1.354 1.354 0 0 0-1.538 1.143l-3.96 26.21a1.363 1.363 0 0 0 1.336 1.572c.656 0 1.23-.484 1.333-1.159l3.96-26.21a1.363 1.363 0 0 0-1.13-1.556Z" transform="translate(15 17.53)"/></g></svg>