<svg height="54" viewBox="0 0 54 54" width="54" xmlns="http://www.w3.org/2000/svg" xmlns:xlink="http://www.w3.org/1999/xlink"><mask id="a" fill="#fff"><path d="m13.5687261.75125092-13.33922227 20.96427598c-.3060051.4719755-.3060051 1.046352 0 1.5183275.29000483.4710446.83801396.7661456 1.43302388.7661456h26.67744459c.9190153 0 1.6600277-.6786393 1.6600277-1.5183275 0-.3388541-.1130019-.6339552-.3060051-.8843722l-13.258221-20.84604938c-.2900048-.47197548-.8380139-.75125092-1.4340239-.75125092-.5960099 0-1.1270188.27927544-1.4330239.75125092z" fill="#fff" fill-rule="evenodd"/></mask><g fill="none" fill-rule="evenodd"><rect fill="#f1f5f9" height="54" rx="5" width="54"/><path d="m-1.25 25.2h32.5v-26.4h-32.5z" fill="#e11d48" mask="url(#a)" transform="translate(12 15)"/><path d="m2.73001125 0-.19499188 10.5878084h-2.07741344l-.19499187-10.5878084zm-1.22994875 15c-.41498271 0-.76996792-.1415094-1.06495563-.4245283s-.43998167-.6253024-.43498188-1.0268505c-.00499979-.3967102.13999417-.7365748.43498188-1.0195936.29498771-.2830189.64997292-.4245283 1.06495563-.4245283.40498312 0 .75496854.1415094 1.04995625.4245283.29498771.2830188.44498146.6228834.44998125 1.0195936-.00499979.2660861-.07624682.5091921-.21374109.7293178-.13749428.2201258-.31873672.3955008-.54372735.5261249-.22499062.1306241-.47248031.1959361-.74246906.1959361z" fill="#fff" fill-rule="nonzero" transform="translate(25.2353 21.2857)"/></g></svg>