<svg height="70" viewBox="0 0 70 70" width="70" xmlns="http://www.w3.org/2000/svg" xmlns:xlink="http://www.w3.org/1999/xlink"><linearGradient id="a" x1="0%" x2="100%" y1="0%" y2="100%"><stop offset="0" stop-color="#a4aebe"/><stop offset="1" stop-color="#2d53f5"/></linearGradient><path d="m52.6432038 0c3.5051955 0 6.3567962 2.85160068 6.3567962 6.35724643v33.90636437c0 3.5051957-2.8516007 6.3567962-6.3567962 6.3567962h-14.668976l-4.8582992 9.7161485c-.8462524 1.6925049-2.1642456 2.6634445-3.6159286 2.6634445s-2.7696762-.9709396-3.6159286-2.6634445l-4.8578491-9.7161485h-14.66897587c-3.50564575 0-6.35724643-2.8516005-6.35724643-6.3567962v-33.90636437c0-3.50564575 2.85160068-6.35724643 6.35724643-6.35724643zm0 3.45703125h-46.28595737c-1.59932718 0-2.90021518 1.300888-2.90021518 2.90021518v33.90636437c0 1.598877 1.300888 2.899765 2.90021518 2.899765h15.73714447c.6544952 0 1.2531738.3700104 1.5457611.9556351l5.3358917 10.6717834c.2151641.4298783.4172745.6414414.5239563.7224656.1066818-.0810242.3087922-.2925873.5239563-.7224656l5.3358917-10.6717834c.2930374-.5856247.8912659-.9556351 1.5462112-.9556351h15.7371446c1.5988769 0 2.899765-1.300888 2.899765-2.899765v-33.90636437c0-1.59932718-1.3008881-2.90021518-2.899765-2.90021518zm-23.1432038 26.74652865c2.9947433 0 5.4317704 2.4365768 5.4317704 5.4313201 0 2.9951936-2.4370271 5.4313203-5.4317704 5.4313203s-5.4313201-2.4365769-5.4313201-5.4313203c0-2.9947433 2.4365768-5.4313201 5.4313201-5.4313201zm0 3.4570313c-1.0884246 0-1.9742889.885414-1.9742889 1.9742888 0 1.0888749.8858643 1.974289 1.9742889 1.974289 1.0888748 0 1.9747391-.8854141 1.9747391-1.974289 0-1.0888748-.8858643-1.9742888-1.9747391-1.9742888zm0-26.25498207c2.9947433 0 5.4317704 2.43657682 5.4317704 5.43132027v7.9867324c0 2.9947433-2.4370271 5.4313202-5.4317704 5.4313202s-5.4313201-2.4365769-5.4313201-5.4313202v-7.9867324c0-2.99474345 2.4365768-5.43132027 5.4313201-5.43132027zm0 3.45703127c-1.0884246 0-1.9742889.8858642-1.9742889 1.974289v7.9862823c0 1.0888748.8858643 1.9747391 1.9742889 1.9747391 1.0888748 0 1.9747391-.8858643 1.9747391-1.9747391v-7.9862823c0-1.0884248-.8858643-1.974289-1.9747391-1.974289z" fill="url(#a)" transform="translate(6 6)"/></svg>