<svg xmlns="http://www.w3.org/2000/svg" width="70" height="70"><linearGradient id="a" x1="0%" x2="100%" y1="0%" y2="100%"><stop offset="0" stop-color="#a4aebe"/><stop offset="1" stop-color="#2d53f5"/></linearGradient><path fill="url(#a)" d="M52.643 0A6.364 6.364 0 0 1 59 6.357v33.907a6.364 6.364 0 0 1-6.357 6.356H37.974l-4.858 9.717C32.27 58.029 30.952 59 29.5 59s-2.77-.97-3.616-2.663l-4.858-9.717H6.357A6.364 6.364 0 0 1 0 40.264V6.357A6.364 6.364 0 0 1 6.357 0zm0 3.457H6.357c-1.6 0-2.9 1.3-2.9 2.9v33.907c0 1.598 1.3 2.9 2.9 2.9h15.737c.655 0 1.254.37 1.546.955l5.336 10.672c.215.43.417.641.524.722.107-.08.309-.292.524-.722l5.336-10.672a1.729 1.729 0 0 1 1.546-.956h15.737c1.6 0 2.9-1.3 2.9-2.9V6.358c0-1.6-1.3-2.9-2.9-2.9zM29.5 30.204a5.438 5.438 0 0 1 5.432 5.43c0 2.996-2.437 5.432-5.432 5.432s-5.431-2.436-5.431-5.431a5.438 5.438 0 0 1 5.431-5.431zm0 3.457a1.976 1.976 0 0 0-1.974 1.974c0 1.089.886 1.974 1.974 1.974a1.977 1.977 0 0 0 1.975-1.974A1.977 1.977 0 0 0 29.5 33.66zm0-26.255a5.438 5.438 0 0 1 5.432 5.43v7.988c0 2.994-2.437 5.431-5.432 5.431s-5.431-2.437-5.431-5.431v-7.987A5.438 5.438 0 0 1 29.5 7.406zm0 3.457a1.977 1.977 0 0 0-1.974 1.974v7.986c0 1.09.886 1.975 1.974 1.975a1.977 1.977 0 0 0 1.975-1.975v-7.986a1.977 1.977 0 0 0-1.975-1.974z" transform="translate(6 6)"/></svg>