<?xml version="1.0" encoding="UTF-8"?>
<svg width="76px" height="76px" viewBox="0 0 76 76" version="1.1" xmlns="http://www.w3.org/2000/svg" xmlns:xlink="http://www.w3.org/1999/xlink">
    <title>breached-password-detection</title>
    <defs>
        <linearGradient x1="-3.88578059e-14%" y1="100%" x2="100%" y2="2.77555756e-15%" id="linearGradient-1">
            <stop stop-color="#F2E4E8" offset="0%"></stop>
            <stop stop-color="#FFF4F6" offset="100%"></stop>
        </linearGradient>
    </defs>
    <g id="breached-password-detection" stroke="none" stroke-width="1" fill="none" fill-rule="evenodd">
        <rect id="Rectangle-Copy-10" fill="url(#linearGradient-1)" x="0" y="0" width="76" height="76" rx="12"></rect>
        <path d="M40.6407513,21.5571889 L56.6662319,51.6117091 C57.438727,53.0604625 56.8905114,54.8611402 55.4417579,55.6336353 C55.0112664,55.8631793 54.530898,55.9832476 54.0430318,55.9832476 L21.9920705,55.9832476 C20.3502315,55.9832476 19.0192581,54.6522742 19.0192581,53.0104352 C19.0192581,52.522569 19.1393264,52.0422006 19.3688704,51.6117091 L35.394351,21.5571889 C36.1668461,20.1084355 37.9675239,19.5602198 39.4162773,20.3327149 C39.936902,20.6103191 40.363147,21.0365642 40.6407513,21.5571889 Z M38,30 C39.1083333,30 40,30.93625 40,32.1 L40,41.9 C40,43.06375 39.1083333,44 38,44 C36.8916667,44 36,43.06375 36,41.9 L36,32.1 C36,30.93625 36.8916667,30 38,30 Z M36,48 C36,46.8954305 36.8954305,46 38,46 C39.1045695,46 40,46.8954305 40,48 C40,49.1045695 39.1045695,50 38,50 C36.8954305,50 36,49.1045695 36,48 Z" id="Combined-Shape" fill="#F43F5E"></path>
    </g>
</svg>