<svg height="54" viewBox="0 0 54 54" width="54" xmlns="http://www.w3.org/2000/svg"><g fill="none" fill-rule="evenodd"><rect fill="#f1f5f9" height="54" rx="5" width="54"/><path d="m.046705 2.553191h19.927348v10.723404h-19.927348z" fill="#6366f1" transform="matrix(1 0 0 -1 12 30.8298)"/><path d="m2.537623 0h7.019861v3.75h-7.019861z" fill="#6366f1" transform="matrix(1 0 0 -1 12 18.75)"/><path d="m10.072652 13.276596h19.927348v10.723404h-19.927348z" fill="#4338ca" transform="matrix(-1 0 0 -1 52.0726 52.2766)"/><path d="m0 13.276596h10.461858v10.723404h-10.461858z" fill="#818cf8" transform="matrix(1 0 0 -1 12 52.2766)"/><path d="m10.961457 0h7.019861v3.75h-7.019861z" fill="#6366f1" transform="matrix(1 0 0 -1 12 18.75)"/><path d="m21.344058 11.473404h7.019861v3.75h-7.019861z" fill="#4338ca" transform="matrix(-1 0 0 -1 61.708 41.6968)"/></g></svg>