<svg xmlns="http://www.w3.org/2000/svg" width="70" height="70"><linearGradient id="a" x1="1.942%" x2="98.058%" y1="0%" y2="100%"><stop offset="0" stop-color="#a4aebe"/><stop offset="1" stop-color="#2d53f5"/></linearGradient><path fill="url(#a)" stroke="url(#a)" stroke-width=".5" d="M50 10.727c0-1.305-.766-2.437-1.878-2.986v-4.4C48.122 1.499 46.597 0 44.723 0h-5.635c-1.873 0-3.398 1.499-3.398 3.34v4.046h-4.474V3.341C31.216 1.499 29.692 0 27.817 0h-5.634c-1.875 0-3.4 1.499-3.4 3.34v4.046H14.31V3.341C14.31 1.499 12.786 0 10.912 0H5.277C3.403 0 1.88 1.499 1.88 3.34v4.4C.766 8.29 0 9.422 0 10.727v16.62c0 .682.21 1.317.568 1.846A3.28 3.28 0 0 0 0 31.04v16.62C0 49.5 1.525 51 3.399 51h43.203C48.475 51 50 49.501 50 47.66V31.04a3.28 3.28 0 0 0-.568-1.847c.358-.53.568-1.164.568-1.846zM3.04 27.347v-16.62a.36.36 0 0 1 .359-.352h43.203a.36.36 0 0 1 .358.352v16.62a.36.36 0 0 1-.358.352H3.399a.36.36 0 0 1-.36-.352zM38.73 3.34a.36.36 0 0 1 .358-.353h5.635a.36.36 0 0 1 .359.353v4.045H38.73zm-16.906 0a.36.36 0 0 1 .359-.353h5.634a.36.36 0 0 1 .36.353v4.045h-6.353zM5.277 2.988h5.635a.36.36 0 0 1 .359.353v4.045H4.919V3.341a.36.36 0 0 1 .358-.353zM46.96 47.66a.36.36 0 0 1-.358.353H3.399a.36.36 0 0 1-.36-.353V31.04a.36.36 0 0 1 .36-.353h43.203a.36.36 0 0 1 .358.353z" transform="translate(10.501 9)"/></svg>