<svg height="70" viewBox="0 0 70 70" width="70" xmlns="http://www.w3.org/2000/svg" xmlns:xlink="http://www.w3.org/1999/xlink"><linearGradient id="a" x1="1.941561%" x2="98.058439%" y1="0%" y2="100%"><stop offset="0" stop-color="#a4aebe"/><stop offset="1" stop-color="#2d53f5"/></linearGradient><path d="m50 10.7270736c0-1.30503836-.7658696-2.43731685-1.8784583-2.98633564v-4.39993296c0-1.84199519-1.5246147-3.340805-3.3983234-3.340805h-5.6353749c-1.8733129 0-3.3979276 1.49880981-3.3979276 3.340805v4.04546364h-4.4737071v-4.04546364c0-1.84199519-1.5246147-3.340805-3.3987192-3.340805h-5.6349791c-1.8741044 0-3.3987192 1.49880981-3.3987192 3.340805v4.04546364h-4.4733113v-4.04546364c0-1.84199519-1.5242189-3.340805-3.3983234-3.340805h-5.63497904c-1.87410443 0-3.39832335 1.49880981-3.39832335 3.340805v4.39954379c-1.11298456.54940796-1.87885411 1.68168645-1.87885411 2.98672481v16.6195908c0 .6824799.20937723 1.3171006.56797045 1.8466645-.35859322.5291748-.56797045 1.1641845-.56797045 1.8466644v16.6192017c0 1.8419952 1.52461469 3.340805 3.39871922 3.340805h43.20295738c1.8737087 0 3.3983234-1.4988098 3.3983234-3.340805v-16.6192017c0-.6824799-.2097731-1.3174896-.5683662-1.8466644.3585931-.5295639.5683662-1.1641846.5683662-1.8466645zm-46.96026978 16.6195908v-16.6195908c0-.1910475.16425628-.3521346.358989-.3521346h43.20295738c.1943369 0 .3585932.1610871.3585932.3521346v16.6195908c0 .1910477-.1642563.3521348-.3585932.3521348h-43.20295738c-.19473272 0-.358989-.1610871-.358989-.3521348zm35.68991588-24.0058594c0-.19104759.1642562-.35252375.3581973-.35252375h5.6353749c.194337 0 .3585931.16147616.3585931.35252375v4.04546364h-6.3521653zm-16.9057288 0c0-.19104759.1642562-.35252375.3585931-.35252375h5.6349791c.1943369 0 .358989.16147616.358989.35252375v4.04546364h-6.3525612zm-16.54673984-.35252375h5.63497904c.1943369 0 .3585932.16147616.3585932.35252375v4.04546364h-6.35216537v-4.04546364c0-.19104759.16386041-.35252375.35859313-.35252375zm41.68309234 44.67091375c0 .1910476-.1642563.3525237-.3585932.3525237h-43.20295738c-.19473272 0-.358989-.1614761-.358989-.3525237v-16.6192017c0-.1914368.16425628-.3529129.358989-.3529129h43.20295738c.1943369 0 .3585932.1614761.3585932.3529129z" fill="url(#a)" stroke="url(#a)" stroke-width=".5" transform="translate(10.500978 9)"/></svg>