<svg xmlns="http://www.w3.org/2000/svg" width="70" height="70"><linearGradient id="a" x1="0%" x2="100%" y1="9.652%" y2="90.348%"><stop offset="0" stop-color="#a4aebe"/><stop offset="1" stop-color="#2d53f5"/></linearGradient><path fill="url(#a)" d="M57.361 49.742h-2.95L40.094 19.537v-8.201h12.35a1.63 1.63 0 0 0 1.64-1.62V1.62A1.63 1.63 0 0 0 52.443 0h-13.99a1.63 1.63 0 0 0-1.638 1.62v17.813l-10.77 17.023-7.54-5.292a1.641 1.641 0 0 0-2.333.46L4.713 49.76H1.64c-.905 0-1.639.725-1.639 1.62S.734 53 1.639 53H57.36c.905 0 1.639-.725 1.639-1.62s-.734-1.619-1.639-1.619zM50.806 8.097H40.094V3.239h10.712zm-32.778 26.7 7.539 5.293a1.641 1.641 0 0 0 2.34-.46l10.345-16.356 12.554 26.468H8.575z" transform="translate(6 8)"/></svg>