<?xml version="1.0" encoding="UTF-8"?>
<svg width="54px" height="54px" viewBox="0 0 54 54" version="1.1" xmlns="http://www.w3.org/2000/svg" xmlns:xlink="http://www.w3.org/1999/xlink">
    <title>challenges-ciam</title>
    <g id="challenges-ciam" stroke="none" stroke-width="1" fill="none" fill-rule="evenodd">
        <rect id="Rectangle" fill="#F1F5F9" x="0" y="0" width="54" height="54" rx="5"></rect>
        <g id="Group" transform="translate(13, 13)">
            <rect id="Rectangle" fill="#4338CA" x="18.0404355" y="1.15334473e-13" width="8.65940902" height="5.89473684" rx="0.736"></rect>
            <rect id="Rectangle" fill="#CBD5E1" x="17.5593572" y="0" width="1.44323484" height="11.7894737"></rect>
            <path d="M8.90045047,17.0655496 L15.7809298,26.8403582 C16.0149007,27.1727509 15.9351141,27.6318793 15.6027214,27.8658502 C15.4787021,27.9531473 15.3307423,28 15.1790796,28 L1.41812103,28 C1.01163945,28 0.682121027,27.6704816 0.682121027,27.264 C0.682121027,27.1123373 0.728973749,26.9643775 0.816270864,26.8403582 L7.69675015,17.0655496 C7.93072106,16.733157 8.38984945,16.6533704 8.72224212,16.8873413 C8.79144922,16.9360561 8.85173566,16.9963425 8.90045047,17.0655496 Z" id="Triangle" fill="#F59E0B"></path>
            <path d="M18.7479103,9.96749677 L28.3747485,26.9002388 C28.5756482,27.2536034 28.452051,27.7029235 28.0986864,27.9038232 C27.9878138,27.9668581 27.8624639,28 27.7349252,28 L8.48124897,28 C8.0747674,28 7.74524897,27.6704816 7.74524897,27.264 C7.74524897,27.1364613 7.7783909,27.0111114 7.84142573,26.9002388 L17.4682639,9.96749677 C17.6691636,9.61413215 18.1184837,9.49053497 18.4718483,9.69143474 C18.5870423,9.75692644 18.6824186,9.85230277 18.7479103,9.96749677 Z" id="Triangle" fill="#CBD5E1"></path>
        </g>
    </g>
</svg>