<?xml version="1.0" encoding="UTF-8"?>
<svg width="76px" height="76px" viewBox="0 0 76 76" version="1.1" xmlns="http://www.w3.org/2000/svg" xmlns:xlink="http://www.w3.org/1999/xlink">
    <title>challenges-ciam</title>
    <defs>
        <linearGradient x1="-3.88578059e-14%" y1="100%" x2="100%" y2="2.77555756e-15%" id="linearGradient-1">
            <stop stop-color="#E7E6F1" offset="0%"></stop>
            <stop stop-color="#F0F1FD" offset="100%"></stop>
        </linearGradient>
    </defs>
    <g id="challenges-ciam" stroke="none" stroke-width="1" fill="none" fill-rule="evenodd">
        <rect id="Rectangle-Copy-6" fill="url(#linearGradient-1)" x="0" y="0" width="76" height="76" rx="12"></rect>
        <g id="flag-fill" transform="translate(23, 19)" fill-rule="nonzero">
            <path d="M13.3376068,1.05069681 C12.1254638,0.572425362 10.6754354,0 8.43781038,0 C6.59489752,0 4.99261734,0.666805427 3.74994155,1.43560404 C3.74994155,3.28018307 3.74994155,22.2320112 3.74994155,26 C4.09582184,25.788182 4.54200357,25.5328463 5.05758907,25.2781293 C6.35769564,24.6358316 7.92510806,24.0845116 9.37526112,24.0845116 C10.7996555,24.0845116 11.6706982,24.3976568 12.8770183,24.8317093 C12.938812,24.8539427 13.0014918,24.8767131 13.065164,24.8995543 C14.4540642,25.397798 16.0975422,25.9371303 18.7501351,25.9371303 C25.2773165,25.9371303 30,21.5288986 30,15.7472795 L30,5.55831553 C30,4.0294667 29.2452394,2.65539378 28.2789731,1.7006518 C27.3127069,0.745910707 25.9223619,0.000452301326 24.3750792,0.000452301326 C23.5998482,0.000452301326 22.8995858,0.191394368 22.3146462,0.394857889 C21.9392847,0.52542261 21.5118085,0.69962925 21.1212266,0.858918108 C20.9463648,0.930230711 20.7788969,0.998834428 20.6268122,1.05883821 C19.5528566,1.48255658 18.4010839,1.85306457 16.8751442,1.85307787 C15.3847362,1.85309086 14.4917541,1.50619141 13.3579055,1.05883821 L13.3376068,1.05069681 Z" id="Vector-399-(Stroke)" fill="#6366F1"></path>
            <path d="M3.99597167,1.36607448 C3.46246724,1.64535684 2.96378138,1.96330901 2.5,2.31601066 C1.59600002,3.00323501 0.565988249,4.13182702 0.187988282,4.86902107 C0.0519882687,5.13406903 0,5.40519727 0,5.70026497 C0,8.31274312 0,23.9876166 0,26.6000956 L0,36.1000165 C0,37.1493765 0.895999949,38 2,38 C3.10400005,38 4,37.1493765 4,36.1000165 C4,30.4001966 4,4.86909559 3.99597167,1.36607448 Z" id="Vector" fill="#4338CA"></path>
        </g>
    </g>
</svg>