<svg xmlns="http://www.w3.org/2000/svg" width="70" height="70"><defs><linearGradient id="a" x1="0%" x2="100%" y1="1.905%" y2="98.095%"><stop offset="0%" stop-color="#A4AEBE"/><stop offset="100%" stop-color="#2D53F5"/></linearGradient></defs><path fill="url(#a)" d="M35 23.21c9.434 0 17.107 7.72 17.107 17.21 0 1.003-.832 1.817-1.857 1.817s-1.857-.814-1.857-1.816c0-7.489-6.007-13.58-13.393-13.58-7.386 0-13.393 6.091-13.393 13.58 0 7.23 7.785 15.403 8.75 16.387l.097.098a1.786 1.786 0 0 1-.013 2.569 1.87 1.87 0 0 1-1.307.525c-.478 0-.956-.18-1.32-.537l-.02-.021-.07-.069c-1.052-1.06-9.832-10.169-9.832-18.952 0-9.49 7.674-17.212 17.108-17.212Zm1.607-7.053c12.638.825 22.54 11.822 22.54 25.034v.414c0 4.92-3.992 8.921-8.897 8.921s-8.894-4.002-8.894-8.921V40.42a6.477 6.477 0 0 0-1.966-4.683 6.258 6.258 0 0 0-4.388-1.791h-.035c-2.092.01-3.5 1.072-4.313 1.96-1.448 1.582-2.166 3.882-1.921 6.148.82 7.549 9.691 14.316 12.132 14.316 1.026 0 1.858.813 1.858 1.816 0 1.002-.832 1.813-1.858 1.813-4.466 0-14.821-8.31-15.824-17.562-.354-3.271.71-6.617 2.845-8.951 1.857-2.03 4.365-3.155 7.062-3.17H35a10 10 0 0 1 7.007 2.848 10.038 10.038 0 0 1 3.063 7.258v1.184c0 2.917 2.322 5.29 5.18 5.29 2.857 0 5.182-2.373 5.182-5.29v-.414c0-11.306-8.376-20.712-19.07-21.41-5.574-.37-10.925 1.514-15.053 5.286-4.283 3.917-6.74 9.515-6.74 15.354A20.87 20.87 0 0 0 19.254 53.6c.64.785.51 1.925-.292 2.552-.8.627-1.968.501-2.61-.286a24.474 24.474 0 0 1-5.497-15.446c0-6.842 2.888-13.406 7.916-18.006 4.886-4.47 11.222-6.694 17.836-6.258ZM34.854 37.42c1.025 0 1.857.814 1.857 1.816 0 7.186 6.177 13.58 11.045 13.58 1.026 0 1.857.813 1.857 1.815 0 1.003-.831 1.816-1.857 1.816-6.645 0-14.76-7.94-14.76-17.211 0-1.002.832-1.816 1.858-1.816ZM35 9c10.236 0 19.838 5.082 25.684 13.594a1.79 1.79 0 0 1-.508 2.52 1.893 1.893 0 0 1-1.035.306 1.862 1.862 0 0 1-1.542-.804c-5.155-7.505-13.604-11.987-22.6-11.987-8.995 0-17.443 4.482-22.598 11.987a1.882 1.882 0 0 1-2.578.496 1.792 1.792 0 0 1-.508-2.52C15.161 14.082 24.764 9 35 9Z"/></svg>