<svg xmlns="http://www.w3.org/2000/svg" xmlns:xlink="http://www.w3.org/1999/xlink" width="70" height="70"><linearGradient id="a"><stop offset="0" stop-color="#a4aebe"/><stop offset="1" stop-color="#2d53f5"/></linearGradient><linearGradient xlink:href="#a" id="b" x1="22.565%" x2="77.435%" y1="0%" y2="100%"/><linearGradient xlink:href="#a" id="c" x1="17.802%" x2="82.198%" y1="0%" y2="100%"/><linearGradient xlink:href="#a" id="d" x1="0%" x2="100%" y1="0%" y2="100%"/><g fill="none" fill-rule="evenodd" transform="translate(8 8)"><g fill-rule="nonzero"><path fill="url(#b)" d="M21.292 12.453c-1.173 0-2.298-.461-3.01-1.234a1.915 1.915 0 0 0-2.699-.11c-.769.708-.768 1.933-.052 2.693 1.44 1.525 3.533 2.398 5.76 2.398 1.355 0 2.666-.425 3.691-1.196 1.044-.785 1.736-1.869 1.95-3.053.336-1.863-.509-4.29-3.886-5.515a67.727 67.727 0 0 1-3.388-1.346.542.542 0 0 1-.166-.493c.05-.338.335-.608.785-.742 1.638-.485 3.186.726 3.202.738l.408.265c.78.507 1.821.355 2.42-.351.68-.8.542-2.005-.31-2.623C24.263.624 21.908-.54 19.187.266c-1.87.554-3.192 2.01-3.452 3.8a4.25 4.25 0 0 0 1.939 4.23c.083.053.171.1.263.14.073.032 1.827.8 3.8 1.516.772.28 1.56.78 1.459 1.342-.084.468-.748 1.159-1.903 1.159z" transform="translate(13.5 19.8)"/><path fill="url(#c)" d="m9.244 1.304-2.68 7.811-2.816-7.858C3.398.281 2.299-.236 1.294.105.289.445-.242 1.512.108 2.489l4.397 12.267.005.013c.314.858 1.152 1.431 2.088 1.431h.016c.942-.006 1.779-.592 2.083-1.458l.004-.013 4.2-12.24c.336-.982-.21-2.042-1.22-2.37-1.01-.327-2.1.204-2.437 1.185z" transform="translate(13.5 19.8)"/></g><circle cx="27" cy="27" r="27" stroke="url(#d)" stroke-width="3.6"/></g></svg>