<?xml version="1.0" encoding="UTF-8"?>
<svg width="76px" height="76px" viewBox="0 0 76 76" version="1.1" xmlns="http://www.w3.org/2000/svg" xmlns:xlink="http://www.w3.org/1999/xlink">
    <title>ciam-dark</title>
    <defs>
        <linearGradient x1="-3.88578059e-14%" y1="100%" x2="100%" y2="2.77555756e-15%" id="linearGradient-1">
            <stop stop-color="#0F2B45" offset="0%"></stop>
            <stop stop-color="#1C4D6E" offset="100%"></stop>
        </linearGradient>
        <path d="M36.9746094,19.0593262 L38.9746094,19.0593262 C47.8111654,19.0593262 54.9746094,26.2227702 54.9746094,35.0593262 L54.9746094,41.0593262 C54.9746094,49.8958822 47.8111654,57.0593262 38.9746094,57.0593262 L36.9746094,57.0593262 C28.1380534,57.0593262 20.9746094,49.8958822 20.9746094,41.0593262 L20.9746094,35.0593262 C20.9746094,26.2227702 28.1380534,19.0593262 36.9746094,19.0593262 Z M34.6059259,41.1290225 C35.6695854,41.1290225 36.5318519,41.9852377 36.5318519,43.0414326 L36.5318519,51.1061446 C36.5318519,52.1623395 35.6695854,53.0185547 34.6059259,53.0185547 C33.5422664,53.0185547 32.68,52.1623395 32.68,51.1061446 L32.68,43.0414326 C32.68,41.9852377 33.5422664,41.1290225 34.6059259,41.1290225 Z M37.9685611,30.5 C40.8902844,30.5 43.2588092,32.8519028 43.2588092,35.753122 L43.2591856,36.4619076 C43.2603567,37.6561566 43.2642613,39.2785231 43.2709057,41.3319982 L43.2709057,45.2006023 C43.2709057,46.2567972 42.4086393,47.1130124 41.3449797,47.1130124 C40.2813202,47.1130124 39.4190538,46.2567972 39.4190538,45.2006023 L39.4190638,41.3381503 C39.4138417,39.7262518 39.4103088,38.3780015 39.4084655,37.2931837 L39.4076276,36.7275891 L39.4074705,36.5943538 L39.4069573,35.753122 C39.4069573,34.9642927 38.7629654,34.3248202 37.9685611,34.3248202 C37.1741568,34.3248202 36.5301649,34.9642927 36.5301649,35.753122 L36.5301649,37.9200439 C36.5301649,38.92823 35.7445048,39.7542031 34.7479731,39.8272085 L34.604239,39.832454 C33.5405795,39.832454 32.6783131,38.9762388 32.6783131,37.9200439 L32.6783131,35.753122 C32.6783131,32.8519028 35.0468378,30.5 37.9685611,30.5 Z M37.9746094,23.0185547 C44.1665895,23.0185547 49.364624,27.0489502 50.5545654,32.7177734 C50.7716063,33.7517457 50.2063167,34.7834928 49.1650391,34.9990234 C48.1237614,35.2145541 47.1249941,34.5622057 46.7962646,33.5518799 C45.4562988,29.4335937 42.3410836,26.8433749 37.9746094,26.8433749 C32.9169611,26.8433749 28.8264612,30.8555241 28.8264612,35.7929227 L28.8264612,43.9236812 C28.8264612,44.9798762 27.9641948,45.8360913 26.9005353,45.8360913 C25.8368758,45.8360913 24.9746094,44.9798762 24.9746094,43.9236812 L24.9746094,35.7929227 C24.9746094,28.7325339 30.8001732,23.0185547 37.9746094,23.0185547 Z M48.9259259,36.5 C49.9895854,36.5 50.8518519,37.3562152 50.8518519,38.4124101 L50.8518519,43.1496405 C50.8518519,44.2058354 49.9895854,45.0620506 48.9259259,45.0620506 C47.8622664,45.0620506 47,44.2058354 47,43.1496405 L47,38.4124101 C47,37.3562152 47.8622664,36.5 48.9259259,36.5 Z" id="path-2"></path>
        <filter x="-107.4%" y="-93.4%" width="314.7%" height="292.1%" filterUnits="objectBoundingBox" id="filter-3">
            <feOffset dx="0" dy="1" in="SourceAlpha" result="shadowOffsetOuter1"></feOffset>
            <feGaussianBlur stdDeviation="12" in="shadowOffsetOuter1" result="shadowBlurOuter1"></feGaussianBlur>
            <feColorMatrix values="0 0 0 0 0   0 0 0 0 0   0 0 0 0 0  0 0 0 0.5 0" type="matrix" in="shadowBlurOuter1"></feColorMatrix>
        </filter>
    </defs>
    <g id="ciam-dark" stroke="none" stroke-width="1" fill="none" fill-rule="evenodd">
        <rect id="Rectangle" fill="url(#linearGradient-1)" x="0" y="0" width="76" height="76" rx="12"></rect>
        <g id="Combined-Shape">
            <use fill="black" fill-opacity="1" filter="url(#filter-3)" xlink:href="#path-2"></use>
            <use fill="#38BDF8" fill-rule="evenodd" xlink:href="#path-2"></use>
        </g>
    </g>
</svg>