<?xml version="1.0" encoding="UTF-8"?>
<svg width="54px" height="54px" viewBox="0 0 54 54" version="1.1" xmlns="http://www.w3.org/2000/svg" xmlns:xlink="http://www.w3.org/1999/xlink">
    <title>ciam</title>
    <g id="ciam" stroke="none" stroke-width="1" fill="none" fill-rule="evenodd">
        <rect id="Rectangle" fill="#F1F5F9" x="0" y="0" width="54" height="54" rx="5"></rect>
        <g id="Group" transform="translate(13, 13)" fill-rule="nonzero">
            <path d="M14.5,0 C8.50440002,0 3.3420199,3.64992733 1.13934798,8.85874893 C0.975578565,9.22750973 1.02347996,9.65600503 1.26463035,9.97944485 C1.50578073,10.3028847 1.90262489,10.4708986 2.3025452,10.4188721 C2.70246551,10.3668457 3.04318096,10.1028811 3.1936598,9.72849337 C5.05544954,5.32578142 9.40867746,2.23212572 14.5,2.23212572 C17.503762,2.23212572 20.242309,3.30598075 22.3752255,5.09421657 C22.6806943,5.35055166 23.0996435,5.42431673 23.4742129,5.28771706 C23.8487823,5.15111739 24.122046,4.82491296 24.1910382,4.43201773 C24.2600304,4.0391225 24.1142659,3.63924741 23.8086687,3.38306554 C21.2904314,1.27177773 18.0368534,0 14.5,0 Z" id="Path" fill="#4338CA"></path>
            <path d="M14.5,4.46425143 C13.3298701,4.46425143 12.2015816,4.66453427 11.1538462,5.03536178 C10.7778594,5.16848015 10.5014235,5.49221617 10.4286909,5.88459612 C10.3559582,6.27697606 10.4979815,6.6783732 10.8012506,6.9375535 C11.1045198,7.1967338 11.5229495,7.27431177 11.8988885,7.14105844 C12.7116135,6.85340875 13.5843607,6.69637715 14.5,6.69637715 C18.824886,6.69637715 22.3076923,10.1813013 22.3076923,14.5088172 C22.3076923,17.8025006 21.2053789,25.3010579 21.2053789,25.3010579 C21.1292356,25.7028705 21.2788065,26.1141758 21.5952131,26.3730642 C21.9116198,26.6319525 22.3441897,26.696963 22.7226424,26.5425044 C23.101095,26.3880457 23.3648213,26.0388544 23.4100057,25.6323891 C23.4100057,25.6323891 24.5384615,18.2731153 24.5384615,14.5088172 C24.5384615,8.97480162 20.0306525,4.46425143 14.5,4.46425143 Z" id="Path" fill="#94A3B8"></path>
            <path d="M26.2158952,6.94705536 C25.8226132,6.95377044 25.4619345,7.16724118 25.2666393,7.50888038 C25.0713442,7.85051957 25.0703025,8.26982387 25.2638977,8.6124304 C26.22295,10.3628959 26.7692308,12.3675568 26.7692308,14.5088172 C26.7692308,15.7323066 26.5893583,16.9088512 26.2551076,18.0226719 C26.1234722,18.4092099 26.2133045,18.8368216 26.4893335,19.1376137 C26.7653626,19.4384057 27.1835196,19.5643559 27.5796234,19.4660122 C27.9757273,19.3676685 28.2865388,19.0607318 28.390024,18.6657149 C28.785236,17.3487507 29,15.9527179 29,14.5088172 C29,11.9871669 28.3535867,9.60866505 27.2201774,7.53996375 C27.0235155,7.16904967 26.6354611,6.93995 26.2158952,6.94705536 Z" id="Path" fill="#94A3B8"></path>
            <path d="M7.4155649,7.89091318 C7.087608,7.90827511 6.78396156,8.06936143 6.58556193,8.33123491 C5.25615218,10.0341651 4.46153846,12.1850247 4.46153846,14.5088172 C4.46153846,19.7584811 3.59232269,23.167023 3.59232269,23.167023 C3.48191349,23.5574012 3.59189461,23.9769843 3.87957114,24.2628893 C4.16724767,24.5487944 4.5873124,24.655993 4.97669525,24.5428706 C5.3660781,24.4297481 5.66345379,24.1141206 5.75338038,23.7185154 C5.75338038,23.7185154 6.69230769,20.0090707 6.69230769,14.5088172 C6.69230769,12.6920164 7.30839395,11.0305805 8.34359982,9.70451476 C8.61897229,9.36145299 8.66722065,8.88852273 8.46680459,8.49686195 C8.26638854,8.10520117 7.85471139,7.8679049 7.4155649,7.89091318 L7.4155649,7.89091318 Z" id="Path" fill="#94A3B8"></path>
            <path d="M14.5,8.92850286 C11.4332322,8.92850286 8.92307692,11.4401845 8.92307692,14.5088172 C8.92307692,22.3416387 7.84472653,26.4367389 7.84472653,26.4367389 C7.72582824,26.8282525 7.83056143,27.2534795 8.11765977,27.5448747 C8.4047581,27.8362699 8.82819151,27.9471142 9.22112133,27.8337334 C9.61405115,27.7203526 9.91347949,27.400925 10.0014274,27.0013094 C10.0014274,27.0013094 11.1538462,22.5508737 11.1538462,14.5088172 C11.1538462,12.6466841 12.6389986,11.1606286 14.5,11.1606286 C16.3610014,11.1606286 17.8461538,12.6466841 17.8461538,14.5088172 C17.8461538,15.8455524 17.7893585,17.2408207 17.7023741,18.5981407 C17.6735212,18.9981409 17.8613474,19.3828826 18.1943949,19.6059925 C18.5274424,19.8291025 18.9545106,19.8562811 19.3131232,19.6771883 C19.6717358,19.4980955 19.9067618,19.140264 19.9287866,18.7398293 C20.018033,17.3471704 20.0769231,15.908668 20.0769231,14.5088172 C20.0769231,11.4401845 17.5667678,8.92850286 14.5,8.92850286 Z" id="Path" fill="#4338CA"></path>
            <path d="M1.09359982,12.4728741 C0.521803054,12.5000718 0.0633908962,12.9559373 0.0326773115,13.5279028 C0.0109095769,13.8521961 0,14.1796032 0,14.5088172 C0,15.7306214 0.152804235,16.9163109 0.437875573,18.048829 C0.530272523,18.4408428 0.826572159,18.7526429 1.2131996,18.8647131 C1.59982705,18.9767832 2.01680884,18.8717391 2.30431133,18.5898453 C2.59181381,18.3079515 2.70523974,17.8929352 2.60111172,17.5038767 C2.35972163,16.544893 2.23076923,15.543692 2.23076923,14.5088172 C2.23076923,14.2286608 2.24070686,13.9522254 2.25908952,13.678309 C2.28512601,13.3582419 2.17213235,13.0424602 1.94898515,12.811665 C1.72583794,12.5808698 1.41415862,12.4574236 1.09359982,12.4728741 L1.09359982,12.4728741 Z" id="Path" fill="#94A3B8"></path>
            <path d="M14.4825721,13.3774955 C13.8674194,13.3871171 13.3761912,13.8932729 13.3846154,14.5088172 C13.3846154,17.5435997 13.2209316,20.0469264 13.007737,22.0204436 C12.9569584,22.420941 13.1262683,22.8176608 13.450504,23.0579171 C13.7747397,23.2981734 14.2033609,23.344516 14.5714038,23.1791091 C14.9394467,23.0137022 15.1895423,22.6623287 15.2254361,22.2602219 C15.4472415,20.2069854 15.6153846,17.623541 15.6153846,14.5088172 C15.6195132,14.207145 15.5014183,13.9166491 15.2880084,13.7035201 C15.0745986,13.4903911 14.7840524,13.3727838 14.4825721,13.3774955 Z" id="Path" fill="#94A3B8"></path>
            <path d="M18.3559192,22.5828336 C17.7832528,22.582162 17.3031052,23.0154998 17.2448924,23.5855466 C16.9864522,25.820074 16.7438404,27.3326405 16.7438404,27.3326405 C16.6806886,27.7267488 16.8324967,28.1246266 17.1420633,28.3763532 C17.4516299,28.6280798 17.8719081,28.6953986 18.2445367,28.5529439 C18.6171653,28.4104891 18.8855134,28.0799107 18.9484673,27.6857707 C18.9484673,27.6857707 19.1990284,26.1215952 19.4625904,23.8427644 C19.5039296,23.5242709 19.4061559,23.2033936 19.1942624,22.9621558 C18.982369,22.720918 18.6768924,22.5827004 18.3559192,22.5828336 Z" id="Path" fill="#94A3B8"></path>
            <path d="M13.4129361,25.5342968 C12.8830485,25.5338564 12.4259768,25.9064777 12.3193361,26.4258395 C12.1492076,27.204194 12.0404899,27.5462628 12.0404899,27.5462628 C11.9197518,27.9270616 12.0116174,28.3433917 12.2813707,28.6379215 C12.551124,28.9324513 12.9576256,29.0602628 13.347258,28.9730558 C13.7368904,28.8858488 14.0502319,28.5969231 14.1688702,28.2154641 C14.1688702,28.2154641 14.3132578,27.7476195 14.4978217,26.9032186 C14.5748057,26.571875 14.4965758,26.2234893 14.2853364,25.9569448 C14.0740969,25.6904003 13.7529089,25.5347959 13.4129361,25.5342968 L13.4129361,25.5342968 Z" id="Path" fill="#94A3B8"></path>
        </g>
    </g>
</svg>