<svg height="70" viewBox="0 0 70 70" width="70" xmlns="http://www.w3.org/2000/svg" xmlns:xlink="http://www.w3.org/1999/xlink"><linearGradient id="a"><stop offset="0" stop-color="#a4aebe"/><stop offset="1" stop-color="#2d53f5"/></linearGradient><linearGradient id="b" x1="22.565158%" x2="77.434842%" xlink:href="#a" y1="0%" y2="100%"/><linearGradient id="c" x1="17.802164%" x2="82.197836%" xlink:href="#a" y1="0%" y2="100%"/><linearGradient id="d" x1="0%" x2="100%" xlink:href="#a" y1="0%" y2="100%"/><g fill="none" fill-rule="evenodd" transform="translate(8 8)"><g fill-rule="nonzero" transform="translate(13.5 19.8)"><path d="m21.2916985 12.4529251c-1.1726362 0-2.2977293-.4612764-3.0094532-1.2340363-.7105851-.7713546-1.923837-.8226908-2.698762-.1096983-.7694209.7079338-.7687567 1.9325085-.0520033 2.6924343 1.4387261 1.5252849 3.5329024 2.3983752 5.7602185 2.3983752 1.3543631 0 2.6649788-.4246479 3.6905255-1.1958152 1.0437667-.7848444 1.7361317-1.8690876 1.949554-3.0530055.3359336-1.8629049-.5084556-4.29013331-3.8854429-5.51564479-1.5009782-.54474463-2.9023151-1.13689094-3.3881852-1.34551454-.1805881-.16337655-.1833401-.37359271-.1660689-.49294003.0490615-.3379946.3352694-.60835281.7851737-.74165833 1.6377241-.48544569 3.1859607.72563919 3.2014289.73781749l.408055.26483113c.7804289.50642983 1.8214437.35541894 2.4211897-.35139073.6788897-.80002048.5411948-2.00426678-.3104065-2.62264327-1.7354675-1.26026646-4.0914633-2.42376229-6.8118617-1.61755898-1.8690817.55401887-3.1915596 2.00979385-3.4511964 3.79925419-.2445483 1.6851017.4981118 3.30565842 1.9381664 4.22933547.0837936.05377186.1716678.10089251.2629582.14089353.0736397.03231933 1.8270426.80020785 3.8008902 1.51647912.7713188.28000714 1.5595293.77950474 1.4580849 1.34204844-.0839834.4672719-.7471203 1.1584371-1.9028649 1.1584371z" fill="url(#b)"/><path d="m9.24400959 1.30388945-2.67976667 7.81151663-2.81659761-7.85814305c-.35007524-.97662683-1.44867357-1.49288801-2.45380288-1.15245899-1.00512931.34014815-1.5361683 1.40759351-1.18609306 2.38422034l4.39709143 12.26733562c.00154175.0044005.00317987.0087073.00472163.0131078.31471118.857252 1.15265619 1.4305322 2.08869551 1.4305322h.01532121c.94210999-.006273 1.77938049-.5923802 2.08349209-1.4584331.0014454-.0041197.00289079-.0083329.00433619-.0125461l4.19916837-12.24093269c.3365848-.98112095-.2091008-2.04154426-1.2188554-2.36858457-1.0099473-.32713395-2.10112595.20326496-2.43771081 1.18438591z" fill="url(#c)"/></g><circle cx="27" cy="27" r="27" stroke="url(#d)" stroke-width="3.6"/></g></svg>