<?xml version="1.0" encoding="UTF-8"?>
<svg width="76px" height="76px" viewBox="0 0 76 76" version="1.1" xmlns="http://www.w3.org/2000/svg" xmlns:xlink="http://www.w3.org/1999/xlink">
    <title>ciam-vs-iam-dark</title>
    <defs>
        <linearGradient x1="-3.88578059e-14%" y1="100%" x2="100%" y2="2.77555756e-15%" id="linearGradient-1">
            <stop stop-color="#0F2B45" offset="0%"></stop>
            <stop stop-color="#1C4D6E" offset="100%"></stop>
        </linearGradient>
        <filter x="-96.1%" y="-93.4%" width="292.1%" height="292.1%" filterUnits="objectBoundingBox" id="filter-2">
            <feOffset dx="0" dy="1" in="SourceAlpha" result="shadowOffsetOuter1"></feOffset>
            <feGaussianBlur stdDeviation="12" in="shadowOffsetOuter1" result="shadowBlurOuter1"></feGaussianBlur>
            <feColorMatrix values="0 0 0 0 0   0 0 0 0 0   0 0 0 0 0  0 0 0 0.5 0" type="matrix" in="shadowBlurOuter1" result="shadowMatrixOuter1"></feColorMatrix>
            <feMerge>
                <feMergeNode in="shadowMatrixOuter1"></feMergeNode>
                <feMergeNode in="SourceGraphic"></feMergeNode>
            </feMerge>
        </filter>
    </defs>
    <g id="ciam-vs-iam-dark" stroke="none" stroke-width="1" fill="none" fill-rule="evenodd">
        <rect id="Rectangle" fill="url(#linearGradient-1)" x="0" y="0" width="76" height="76" rx="12"></rect>
        <g id="exclude" filter="url(#filter-2)" transform="translate(19, 19)" fill-rule="nonzero">
            <path d="M8.44443729,12.9491453 C8.66402781,10.4919899 10.7021387,8.53617299 13.1947413,8.44445876 L29.5555305,8.44445876 L29.5,25.0159912 C29.5,27.7372131 27.326256,29.5522072 24.6025092,29.5522072 L8.44443729,29.5522072 L8.44443729,12.9491453 Z" id="Subtract" fill="#7DD3FC"></path>
            <path d="M4.35913086,0 C1.63790861,0 0,1.6626885 0,4.38391113 L0,25.1246338 C0,27.8458557 1.63790861,29.5522072 4.35913086,29.5522072 L8.44444433,29.5555573 L8.44444433,13.3928771 C8.44444433,10.6716542 10.6716542,8.44444467 13.3928762,8.44444467 L29.5555547,8.44444467 L29.5555547,4.38391113 C29.5555547,1.6626885 27.7707836,0 25.0495605,0 L4.35913086,0 Z M29.5555547,8.44444467 L29.5,25.0159912 C29.5,27.7372131 27.3507396,29.5 24.6295166,29.5 L8.44444433,29.5555573 L8.44444433,33.0515696 C8.44444433,35.7727895 10.6716542,38 13.3928762,38 L33.0515681,38 C35.7727911,38 38,35.7727895 38,33.0515696 L38,13.3928771 C38,10.6716542 35.7727911,8.44444467 33.0515681,8.44444467 L29.5555547,8.44444467 Z" id="Vector" fill="#0EA5E9"></path>
        </g>
    </g>
</svg>