<?xml version="1.0" encoding="UTF-8"?>
<svg width="54px" height="54px" viewBox="0 0 54 54" version="1.1" xmlns="http://www.w3.org/2000/svg" xmlns:xlink="http://www.w3.org/1999/xlink">
    <title>ciam</title>
    <g id="ciam" stroke="none" stroke-width="1" fill="none" fill-rule="evenodd">
        <rect id="Rectangle" fill="#F1F5F9" x="0" y="0" width="54" height="54" rx="5"></rect>
        <g id="icons8-fingerprint" transform="translate(8, 9)" fill-rule="nonzero">
            <polygon id="Path" fill="#BAE6FD" points="0 22 38 22 38 36 0 36"></polygon>
            <path d="M9,34 L2,34 L2,27 L4,27 L4,32 L9,32 L9,34 Z M36,34 L29,34 L29,32 L34,32 L34,27 L36,27 L36,34 Z" id="Shape" fill="#0EA5E9"></path>
            <path d="M36,7 L34,7 L34,2 L29,2 L29,0 L36,0 L36,7 Z M4,7 L2,7 L2,0 L9,0 L9,2 L4,2 L4,7 Z" id="Shape" fill="#CBD5E1"></path>
            <path d="M27.1,26.3 C27.3,26.4 27.4,26.4 27.6,26.4 C28.1,26.4 28.5,26.1 28.8,25.6 C29.1,25 28.8,24.2 28.1,24 C27.8,23.9 27.6,23.8 27.4,23.7 L22.8,23.7 C23.9,24.6 25.3,25.5 27.1,26.3 Z M27.7,27.1 C27.7,27.1 27.7,27.1 27.7,27.1 C27.6,27.1 27.5,27.1 27.4,27.1 C24.7,27.1 22.3,25.9 20.5,23.6 L17.4,23.6 C19.7,27.4 23.3,29.6 27.4,29.6 C27.5,29.6 27.6,29.6 27.7,29.6 C28.4,29.6 28.9,29 28.9,28.3 C29,27.7 28.4,27.1 27.7,27.1 Z M22.4,29.6 C19.5,28.3 18,27.2 16.2,24.7 C16,24.4 15.8,24 15.6,23.7 L12.8,23.7 C13.2,24.6 13.7,25.5 14.2,26.2 C16.2,29 18.1,30.5 21.4,31.9 C21.6,32 21.7,32 21.9,32 C22.4,32 22.8,31.7 23.1,31.2 C23.4,30.6 23.1,29.9 22.4,29.6 Z" id="Shape" fill="#F58320"></path>
            <path d="M8.3,16.9 C8.2,16.9 8.2,16.9 8.3,16.9 C7.5,16.8 7,16.2 7,15.5 C7,15.2 7.5,9.1 12.3,5.5 C15.8,3 19.5,3 21.3,3 L21.6,3 C22.3,3 22.9,3.6 22.9,4.3 C22.9,5 22.3,5.6 21.6,5.6 L21.3,5.6 C19.7,5.6 16.7,5.6 13.9,7.7 C10,10.6 9.6,15.8 9.6,15.8 C9.5,16.4 8.9,16.9 8.3,16.9 Z M21.8,17 C21.8,16.3 21.3,15.7 20.6,15.7 C19.9,15.7 19.3,16.2 19.3,16.9 C19.3,17.1 19.3,19.4 21.4,22 L25.1,22 C21.9,19.7 21.8,17.2 21.8,17 Z" id="Shape" fill="#F59E0B"></path>
            <path d="M29.3,20.4 C27.6,19.5 26.7,17.7 25.8,16 C24.6,13.6 23,10.4 18.8,12.2 C17.5,12.8 16.5,13.8 16,15.2 C15.1,17.5 15.7,20.2 16.6,21.9 C16.6,22 16.7,22 16.7,22.1 L19.6,22.1 C19.4,21.7 19.1,21.3 18.9,20.8 C18.1,19.2 17.9,17.3 18.4,16 C18.7,15.2 19.2,14.7 19.9,14.4 C21.7,13.6 22.2,14.2 23.6,17.1 C24.4,18.8 25.4,20.7 27.3,22.1 L30,22.1 C30.2,21.4 29.9,20.7 29.3,20.4 Z" id="Path" fill="#F59E0B"></path>
            <path d="M14.9,22 C14.1,20 13.7,17.6 14.1,15.5 C14.5,13.6 15.6,12.2 17.3,11.2 C19.2,10.1 20.9,9.9 22.5,10.5 C25.4,11.6 27.4,15.3 28.6,18.2 C28.9,18.8 29.6,19.2 30.2,18.9 C30.8,18.6 31.2,17.9 30.9,17.3 C29.6,13.9 27.2,9.6 23.4,8.2 C21.1,7.4 18.7,7.7 16.2,9.1 C13.9,10.4 12.3,12.4 11.7,15 C11.2,17.3 11.5,19.9 12.2,22.1 L14.9,22.1 L14.9,22 Z" id="Path" fill="#F59E0B"></path>
            <polygon id="Path" fill="#0EA5E9" points="0 22 38 22 38 24 0 24"></polygon>
        </g>
    </g>
</svg>