<?xml version="1.0" encoding="UTF-8"?>
<svg width="54px" height="54px" viewBox="0 0 54 54" version="1.1" xmlns="http://www.w3.org/2000/svg" xmlns:xlink="http://www.w3.org/1999/xlink">
    <title>ciam-vs-iam</title>
    <g id="ciam-vs-iam" stroke="none" stroke-width="1" fill="none" fill-rule="evenodd">
        <rect id="Rectangle" fill="#F1F5F9" x="0" y="0" width="54" height="54" rx="5"></rect>
        <g id="Group" transform="translate(12, 15)" fill-rule="nonzero">
            <path d="M5.46202562,14.5223898 L17.146759,1.65044131 C17.540074,1.21717913 18.064494,0.920665329 18.6408098,0.806934007 L22.5725942,0.027062086 C23.5285682,-0.162490117 24.371191,0.672893521 24.1799962,1.62065454 L23.3933661,5.51730625 C23.2786493,6.08867075 22.979566,6.60858537 22.5425493,6.99852133 L9.55905697,18.5842228 L5.46202562,14.5223898 Z" id="Path" fill="#CBD5E1"></path>
            <path d="M10.3252018,19.1786043 L4.86249337,13.7628271 C4.06220658,12.9694157 2.766179,12.9694157 1.96589221,13.7628271 C1.16560542,14.5548845 1.16560542,15.8424855 1.96589221,16.634543 L3.24826302,17.9072506 L0.600215092,20.5325486 C-0.200071697,21.324606 -0.200071697,22.6122071 0.600215092,23.4042645 C0.998992809,23.8023241 1.52341282,24 2.04783283,24 C2.57225285,24 3.09667286,23.8023241 3.49681625,23.4056184 L6.14486418,20.7789665 L7.42723499,22.0503202 C7.82737838,22.4483798 8.3517984,22.6460557 8.87621841,22.6460557 C9.40063842,22.6460557 9.92505843,22.4483798 10.3252018,22.0516741 C11.1241229,21.2582628 11.1241229,19.9720157 10.3252018,19.1786043 Z" id="Path" fill="#4338CA"></path>
            <path d="M29.3996141,20.5325486 L26.7515662,17.9072506 L28.033937,16.6358969 C28.8342238,15.8438395 28.8342238,14.5562385 28.033937,13.764181 C27.2336502,12.9707697 25.9376226,12.9707697 25.1373358,13.764181 L19.6746274,19.1799583 C18.8743406,19.9720157 18.8743406,21.2596167 19.6746274,22.0516741 C20.0747707,22.4483798 20.5991908,22.6460557 21.1236108,22.6460557 C21.6480308,22.6460557 22.1724508,22.4483798 22.5725942,22.0516741 L23.854965,20.7803204 L26.5030129,23.4056184 C26.9031563,23.8023241 27.4275763,24 27.9519963,24 C28.4764164,24 29.0008364,23.8023241 29.4009798,23.4056184 C30.1999009,22.6122071 30.1999009,21.32596 29.3996141,20.5325486 Z" id="Path" fill="#A5B4FC"></path>
            <path d="M24.4585943,14.4357374 L12.8517045,1.65044131 C12.4583895,1.21717913 11.9353351,0.920665329 11.3576537,0.806934007 L7.42723499,0.027062086 C6.47126101,-0.162490117 5.62863823,0.672893521 5.81983302,1.62065454 L6.60646304,5.5186602 C6.72117992,6.0900247 7.02026321,6.60993931 7.45727989,6.99987527 L20.3533689,18.5070479 L24.4585943,14.4357374 Z" id="Path" fill="#4338CA"></path>
        </g>
    </g>
</svg>