<?xml version="1.0" encoding="UTF-8"?>
<svg width="76px" height="76px" viewBox="0 0 76 76" version="1.1" xmlns="http://www.w3.org/2000/svg" xmlns:xlink="http://www.w3.org/1999/xlink">
    <title> combining-sso-and-mfa-in-fusionauth-dark</title>
    <defs>
        <linearGradient x1="-3.88578059e-14%" y1="100%" x2="100%" y2="2.77555756e-15%" id="linearGradient-1">
            <stop stop-color="#0F2B45" offset="0%"></stop>
            <stop stop-color="#1C4D6E" offset="100%"></stop>
        </linearGradient>
        <filter x="-96.1%" y="-93.4%" width="292.1%" height="292.1%" filterUnits="objectBoundingBox" id="filter-2">
            <feOffset dx="0" dy="1" in="SourceAlpha" result="shadowOffsetOuter1"></feOffset>
            <feGaussianBlur stdDeviation="12" in="shadowOffsetOuter1" result="shadowBlurOuter1"></feGaussianBlur>
            <feColorMatrix values="0 0 0 0 0   0 0 0 0 0   0 0 0 0 0  0 0 0 0.5 0" type="matrix" in="shadowBlurOuter1" result="shadowMatrixOuter1"></feColorMatrix>
            <feMerge>
                <feMergeNode in="shadowMatrixOuter1"></feMergeNode>
                <feMergeNode in="SourceGraphic"></feMergeNode>
            </feMerge>
        </filter>
    </defs>
    <g id="-combining-sso-and-mfa-in-fusionauth-dark" stroke="none" stroke-width="1" fill="none" fill-rule="evenodd">
        <rect id="Rectangle" fill="url(#linearGradient-1)" x="0" y="0" width="76" height="76" rx="12"></rect>
        <g id="seal-check-fill" filter="url(#filter-2)" transform="translate(19, 19)" fill="#38BDF8" fill-rule="nonzero">
            <path d="M35.60125,14.7283929 C34.9616964,14.06 34.3000893,13.37125 34.0507143,12.765625 C33.82,12.2108929 33.8064286,11.2914286 33.7928571,10.4008036 C33.7674107,8.74508929 33.7402679,6.86883929 32.4357143,5.56428571 C31.1311607,4.25973214 29.2549107,4.23258929 27.5991964,4.20714286 C26.7085714,4.19357143 25.7891071,4.18 25.234375,3.94928571 C24.6304464,3.69991071 23.94,3.03830357 23.2716071,2.39875 C22.1010714,1.27401786 20.7710714,0 19,0 C17.2289286,0 15.900625,1.27401786 14.7283929,2.39875 C14.06,3.03830357 13.37125,3.69991071 12.765625,3.94928571 C12.2142857,4.18 11.2914286,4.19357143 10.4008036,4.20714286 C8.74508929,4.23258929 6.86883929,4.25973214 5.56428571,5.56428571 C4.25973214,6.86883929 4.24107143,8.74508929 4.20714286,10.4008036 C4.19357143,11.2914286 4.18,12.2108929 3.94928571,12.765625 C3.69991071,13.3695536 3.03830357,14.06 2.39875,14.7283929 C1.27401786,15.8989286 0,17.2289286 0,19 C0,20.7710714 1.27401786,22.099375 2.39875,23.2716071 C3.03830357,23.94 3.69991071,24.62875 3.94928571,25.234375 C4.18,25.7891071 4.19357143,26.7085714 4.20714286,27.5991964 C4.23258929,29.2549107 4.25973214,31.1311607 5.56428571,32.4357143 C6.86883929,33.7402679 8.74508929,33.7674107 10.4008036,33.7928571 C11.2914286,33.8064286 12.2108929,33.82 12.765625,34.0507143 C13.3695536,34.3000893 14.06,34.9616964 14.7283929,35.60125 C15.8989286,36.7259821 17.2289286,38 19,38 C20.7710714,38 22.099375,36.7259821 23.2716071,35.60125 C23.94,34.9616964 24.62875,34.3000893 25.234375,34.0507143 C25.7891071,33.82 26.7085714,33.8064286 27.5991964,33.7928571 C29.2549107,33.7674107 31.1311607,33.7402679 32.4357143,32.4357143 C33.7402679,31.1311607 33.7674107,29.2549107 33.7928571,27.5991964 C33.8064286,26.7085714 33.82,25.7891071 34.0507143,25.234375 C34.3000893,24.6304464 34.9616964,23.94 35.60125,23.2716071 C36.7259821,22.1010714 38,20.7710714 38,19 C38,17.2289286 36.7259821,15.900625 35.60125,14.7283929 Z M23.8542492,13.5676051 C24.6453396,12.7967292 25.9115635,12.8131163 26.6824395,13.6042067 C27.4533154,14.3952971 27.4369283,15.6615211 26.6458379,16.432397 C22.844782,20.1363256 22.844782,20.1363256 20.4259282,22.4933711 C19.4756642,23.4193533 19.4756642,23.4193533 18.8709508,24.0086146 C18.6333848,24.2401102 18.6333848,24.2401102 18.4822064,24.3874255 C18.464209,24.4049631 18.4492112,24.4195777 18.436613,24.431854 L18.3850203,24.4821283 C18.3688227,24.497912 18.3634234,24.5031733 18.352625,24.5136958 C17.5724698,25.2739159 16.327404,25.2699978 15.5520489,24.5048828 L15.5061982,24.4596377 L15.4745984,24.4284552 C15.4595386,24.4135943 15.4469888,24.4012102 15.4358732,24.3902414 L15.3777853,24.3329207 C15.3487414,24.3042604 15.3132433,24.269231 15.242247,24.1991724 C14.8808115,23.8425103 14.8808115,23.8425103 14.3128413,23.2820413 C12.8670991,21.855393 12.8670991,21.855393 10.5952185,19.613517 C9.80899542,18.8376775 9.80057785,17.5713755 10.5764174,16.7851524 C11.3522569,15.9989292 12.6185589,15.9905117 13.404782,16.7663512 C14.7029995,18.0474232 15.2593784,18.596454 15.767586,19.0979497 L16.0529447,19.3795397 C16.2780516,19.6016737 16.518833,19.8392751 16.8333768,20.1496647 L16.9650003,20.2800011 L16.9744105,20.2716452 C17.1014611,20.1478412 17.2575325,19.9957578 17.4669213,19.7917195 L17.6343395,19.6285792 C18.4406241,18.8428974 18.9781472,18.3191095 19.4772757,17.832735 L19.8195233,17.4992328 C20.6929502,16.6481243 21.6126008,15.7519733 23.8542492,13.5676051 Z" id="Shape"></path>
        </g>
    </g>
</svg>