<?xml version="1.0" encoding="UTF-8"?>
<svg width="76px" height="76px" viewBox="0 0 76 76" version="1.1" xmlns="http://www.w3.org/2000/svg" xmlns:xlink="http://www.w3.org/1999/xlink">
    <title>common-authentication-risks</title>
    <defs>
        <linearGradient x1="-3.88578059e-14%" y1="100%" x2="100%" y2="2.77555756e-15%" id="linearGradient-1">
            <stop stop-color="#E7E6F1" offset="0%"></stop>
            <stop stop-color="#F0F1FD" offset="100%"></stop>
        </linearGradient>
        <path d="M7.33162433,16.9237882 C3.04253837,17.9992367 0,21.4208 0,25.4844735 L0,28.4948245 C0,29.3261322 0.734507851,30 1.640625,30 L24.609375,30 C25.5154914,30 26.25,29.3261322 26.25,28.4948245 L26.25,25.4844735 C26.25,21.4208 23.2074612,17.9992367 18.9183757,16.9237882 C18.5507114,16.8315205 18.1894449,16.8741174 17.8417969,17.0178616 C16.3398052,17.6388964 14.7408508,17.9585963 13.125,17.9585963 C11.5091484,17.9585963 9.91019558,17.6388964 8.40820312,17.0178616 C8.06055509,16.8741174 7.69928858,16.8315205 7.33162433,16.9237882 Z" id="path-2"></path>
        <filter x="-312.4%" y="-609.5%" width="724.8%" height="1349.5%" filterUnits="objectBoundingBox" id="filter-3">
            <feOffset dx="0" dy="2" in="SourceAlpha" result="shadowOffsetOuter1"></feOffset>
            <feGaussianBlur stdDeviation="27" in="shadowOffsetOuter1" result="shadowBlurOuter1"></feGaussianBlur>
            <feColorMatrix values="0 0 0 0 0   0 0 0 0 0   0 0 0 0 0  0 0 0 0.5 0" type="matrix" in="shadowBlurOuter1"></feColorMatrix>
        </filter>
        <path d="M13.125,0 C9.50066221,0 6.5625,2.93816252 6.5625,6.5625 C6.5625,10.1868378 9.50066221,13.125 13.125,13.125 C16.7493378,13.125 19.6875,10.1868378 19.6875,6.5625 C19.6875,2.93816252 16.7493378,0 13.125,0 Z" id="path-4"></path>
        <filter x="-624.8%" y="-609.5%" width="1349.5%" height="1349.5%" filterUnits="objectBoundingBox" id="filter-5">
            <feOffset dx="0" dy="2" in="SourceAlpha" result="shadowOffsetOuter1"></feOffset>
            <feGaussianBlur stdDeviation="27" in="shadowOffsetOuter1" result="shadowBlurOuter1"></feGaussianBlur>
            <feColorMatrix values="0 0 0 0 0   0 0 0 0 0   0 0 0 0 0  0 0 0 0.5 0" type="matrix" in="shadowBlurOuter1"></feColorMatrix>
        </filter>
        <path d="M7.33162433,16.9237882 C7.69928858,16.8315205 8.06055509,16.8741174 8.40820312,17.0178616 C9.24071626,17.3620841 10.1030174,17.6137311 10.9814734,17.7696754 C9.09799916,19.9157295 7.99480519,22.5921791 7.99480519,25.4969913 L7.99480519,29.8221332 C7.99480519,29.8821957 7.997526,29.9416862 8.00286276,30.0005104 L1.640625,30 C0.734507851,30 0,29.3261322 0,28.4948245 L0,25.4844735 C0,21.4208 3.04253837,17.9992367 7.33162433,16.9237882 Z M13.125,0 C14.2456136,0 15.3006293,0.280886089 16.2234819,0.776093009 C15.0013517,2.41276212 14.2800731,4.43163558 14.2800731,6.61572866 C14.2800731,8.76617677 14.9793008,10.7564562 16.1669432,12.3792575 C15.2578085,12.8553918 14.2228863,13.125 13.125,13.125 C9.50066221,13.125 6.5625,10.1868378 6.5625,6.5625 C6.5625,2.93816252 9.50066221,0 13.125,0 Z" id="path-6"></path>
        <filter x="-505.4%" y="-266.7%" width="1110.9%" height="646.7%" filterUnits="objectBoundingBox" id="filter-7">
            <feOffset dx="0" dy="2" in="SourceAlpha" result="shadowOffsetOuter1"></feOffset>
            <feGaussianBlur stdDeviation="27" in="shadowOffsetOuter1" result="shadowBlurOuter1"></feGaussianBlur>
            <feColorMatrix values="0 0 0 0 0   0 0 0 0 0   0 0 0 0 0  0 0 0 0.5 0" type="matrix" in="shadowBlurOuter1"></feColorMatrix>
        </filter>
    </defs>
    <g id="common-authentication-risks" stroke="none" stroke-width="1" fill="none" fill-rule="evenodd">
        <rect id="Rectangle-Copy-6" fill="url(#linearGradient-1)" x="0" y="0" width="76" height="76" rx="12"></rect>
        <g id="Group" transform="translate(19, 23)">
            <g id="person-fill" transform="translate(11.7455, 0)">
                <g id="Vector">
                    <use fill="black" fill-opacity="1" filter="url(#filter-3)" xlink:href="#path-2"></use>
                    <use fill="#6366F1" fill-rule="evenodd" xlink:href="#path-2"></use>
                </g>
                <g id="Vector">
                    <use fill="black" fill-opacity="1" filter="url(#filter-5)" xlink:href="#path-4"></use>
                    <use fill="#6366F1" fill-rule="evenodd" xlink:href="#path-4"></use>
                </g>
            </g>
            <g id="Combined-Shape">
                <use fill="black" fill-opacity="1" filter="url(#filter-7)" xlink:href="#path-6"></use>
                <use fill="#4338CA" fill-rule="evenodd" xlink:href="#path-6"></use>
            </g>
        </g>
    </g>
</svg>