<svg height="70" viewBox="0 0 70 70" width="70" xmlns="http://www.w3.org/2000/svg" xmlns:xlink="http://www.w3.org/1999/xlink"><linearGradient id="a" x1="0%" x2="100%" y1="0%" y2="100%"><stop offset="0" stop-color="#a4aebe"/><stop offset="1" stop-color="#2d53f5"/></linearGradient><path d="m50.3596725 8.64032748c-5.571762-5.57176214-12.980072-8.64032748-20.8596725-8.64032748-7.8800506 0-15.2879105 3.06856534-20.85967252 8.64032748-5.57176214 5.57176202-8.64032748 12.97962192-8.64032748 20.85967252 0 7.8796005 3.06856534 15.2879105 8.64032748 20.8596725 5.57176202 5.5717622 12.97962192 8.6403275 20.85967252 8.6403275 7.8796005 0 15.2879105-3.0685653 20.8596725-8.6403275 5.5717622-5.571762 8.6403275-12.980072 8.6403275-20.8596725 0-7.8800506-3.0685653-15.2879105-8.6403275-20.85967252zm-35.5705108 42.33782962c1.233818-7.1040193 7.3898544-12.3440323 14.7108383-12.3440323 7.321434 0 13.4770203 5.240013 14.7108383 12.3440323-4.1884994 2.8777084-9.2561111 4.5648117-14.7108383 4.5648117s-10.5223389-1.6871033-14.7108383-4.5648117zm5.3309402-25.1809616c0-5.172493 4.2078553-9.3798981 9.3798981-9.3798981s9.3798981 4.2078552 9.3798981 9.3798981c0 5.1720428-4.2078553 9.379898-9.3798981 9.379898s-9.3798981-4.2078552-9.3798981-9.379898zm27.0850296 22.7830962c-.9304276-3.3071365-2.7782288-6.3077316-5.3683013-8.6515808-1.5889741-1.438179-3.3976136-2.5729675-5.3421936-3.3728561 3.5146484-2.2925338 5.8427429-6.258667 5.8427429-10.7586593 0-7.0783616-5.759018-12.8369294-12.8373795-12.8369294s-12.8369294 5.7585678-12.8369294 12.8369294c0 4.4999923 2.3280946 8.4661255 5.8422928 10.7586593-1.9441298.7998886-3.7532195 1.934227-5.3421936 3.372406-2.5896224 2.3438492-4.4378737 5.3444443-5.3683013 8.6520309-5.12477884-4.7597197-8.33783725-11.5513457-8.33783725-19.0802917 0-14.3601838 11.68278495-26.04296875 26.04296875-26.04296875s26.0429688 11.68278495 26.0429688 26.04296875c0 7.5293961-3.2130585 14.3210221-8.3378373 19.0802917z" fill="url(#a)" transform="translate(6 6)"/></svg>