<svg xmlns="http://www.w3.org/2000/svg" width="70" height="70"><linearGradient id="a" x1="0%" x2="100%" y1="0%" y2="100%"><stop offset="0" stop-color="#a4aebe"/><stop offset="1" stop-color="#2d53f5"/></linearGradient><path fill="url(#a)" d="M50.36 8.64C44.788 3.07 37.38 0 29.5 0 21.62 0 14.212 3.069 8.64 8.64 3.07 14.212 0 21.62 0 29.5c0 7.88 3.069 15.288 8.64 20.86C14.212 55.93 21.62 59 29.5 59c7.88 0 15.288-3.069 20.86-8.64C55.93 44.788 59 37.38 59 29.5c0-7.88-3.069-15.288-8.64-20.86zM14.79 50.978A14.895 14.895 0 0 1 29.5 38.634c7.321 0 13.477 5.24 14.71 12.344-4.188 2.878-9.255 4.565-14.71 4.565s-10.522-1.687-14.71-4.565zm5.33-25.18c0-5.173 4.208-9.38 9.38-9.38s9.38 4.207 9.38 9.38c0 5.171-4.208 9.38-9.38 9.38s-9.38-4.209-9.38-9.38zM47.205 48.58a18.375 18.375 0 0 0-5.368-8.651 18.373 18.373 0 0 0-5.342-3.373c3.514-2.293 5.842-6.259 5.842-10.759 0-7.078-5.759-12.837-12.837-12.837s-12.837 5.76-12.837 12.837c0 4.5 2.328 8.466 5.842 10.759a18.378 18.378 0 0 0-5.342 3.372 18.378 18.378 0 0 0-5.368 8.652C6.67 43.82 3.457 37.03 3.457 29.5 3.457 15.14 15.14 3.457 29.5 3.457S55.543 15.14 55.543 29.5c0 7.53-3.213 14.321-8.338 19.08z" transform="translate(6 6)"/></svg>