<?xml version="1.0" encoding="UTF-8"?>
<svg width="54px" height="54px" viewBox="0 0 54 54" version="1.1" xmlns="http://www.w3.org/2000/svg" xmlns:xlink="http://www.w3.org/1999/xlink">
    <title>common-authentication-risks</title>
    <g id="common-authentication-risks" stroke="none" stroke-width="1" fill="none" fill-rule="evenodd">
        <rect id="Rectangle" fill="#F1F5F9" x="0" y="0" width="54" height="54" rx="5"></rect>
        <g id="icons8-authentication" transform="translate(12, 12)" fill-rule="nonzero">
            <circle id="Oval" fill="#CBD5E1" cx="15" cy="15" r="15"></circle>
            <path d="M15.75,20.25 L15.75,17.673 C15.75,16.42575 13.25175,15.75 12,15.75 C10.74825,15.75 8.25,16.42575 8.25,17.673 L8.25,20.25 L15.75,20.25 Z" id="Path" fill="#4338CA"></path>
            <circle id="Oval" fill="#4338CA" cx="12" cy="12" r="2.25"></circle>
            <path d="M21.75,17.67 L21.75,20.25 L17.25,20.25 L17.25,17.67 C17.25,16.9725 16.98,16.4025 16.56,15.945 C17.085,15.8175 17.6025,15.75 18,15.75 C19.2525,15.75 21.75,16.425 21.75,17.67 Z" id="Path" fill="#BE123C"></path>
            <circle id="Oval" fill="#BE123C" cx="18" cy="12" r="2.25"></circle>
        </g>
    </g>
</svg>