<svg height="70" viewBox="0 0 70 70" width="70" xmlns="http://www.w3.org/2000/svg" xmlns:xlink="http://www.w3.org/1999/xlink"><linearGradient id="a" x1="0%" x2="100%" y1="0%" y2="100%"><stop offset="0" stop-color="#a4aebe"/><stop offset="1" stop-color="#2d53f5"/></linearGradient><path d="m4.85289063 30.735332h14.55877927c2.6801758 0 4.8528906 2.1727149 4.8528906 4.8528907v14.5587793c0 2.6801757-2.1727148 4.8528906-4.8528906 4.8528906h-14.55877928c-2.68017578 0-4.85289062-2.1726074-4.85289062-4.8527832v-14.5588867c0-2.6801758 2.17271484-4.8528907 4.85289062-4.8528907zm0 3.2352246c-.89342774 0-1.61766602.7242383-1.61766602 1.6176661v14.5587793c0 .8934277.72423828 1.617666 1.61766602 1.617666h14.55877927c.8934278 0 1.617666-.7242383 1.617666-1.617666v-14.5587793c0-.8934278-.7242382-1.6176661-1.617666-1.6176661zm38.01477537-3.2352246c6.7005469 0 12.132334 5.4317871 12.132334 12.132334s-5.4317871 12.132334-12.132334 12.132334-12.132334-5.4317871-12.132334-12.132334 5.4317871-12.132334 12.132334-12.132334zm0 3.2352246c-4.9136914 0-8.8971094 3.9833106-8.8971094 8.8971094s3.9833106 8.897002 8.8971094 8.897002 8.897002-3.9833106 8.897002-8.897002-3.9833106-8.8971094-8.897002-8.8971094zm-38.01477537-33.9705566h45.29411137c2.6802832 0 4.852998 2.17271484 4.852998 4.85289063v14.55877927c0 2.6801758-2.1727148 4.8528906-4.8528906 4.8528906h-45.29421878c-2.68017578 0-4.85289062-2.1727148-4.85289062-4.8528906v-14.55877927c0-2.68017579 2.17271484-4.85289063 4.85289062-4.85289063zm0 3.23522461c-.89342774 0-1.61766602.7243457-1.61766602 1.61777344v14.55877925c0 .8934278.72423828 1.6176661 1.61766602 1.6176661h45.29411137c.8934277 0 1.617666-.7242383 1.617666-1.6176661v-14.55888668c0-.89342773-.7242383-1.61766601-1.617666-1.61766601zm7.27944337 3.23533203h12.9412207c3.1269433 0 5.6617773 2.53483399 5.6617773 5.66177736 0 3.1269433-2.534834 5.6617773-5.6617773 5.6617773h-12.9412207c-3.12694337 0-5.66177736-2.534834-5.66177736-5.6617773 0-3.12694338 2.53483399-5.66177736 5.66177736-5.66177736zm0 3.23533203c-1.3400879 0-2.42644533 1.08635743-2.42644533 2.42644533s1.08635743 2.4264453 2.42644533 2.4264453h12.9412207c1.3400879 0 2.4264453-1.0863574 2.4264453-2.4264453s-1.0863574-2.42644533-2.4264453-2.42644533zm3.7090625 29.59139653c.631748-.6317481 1.6560156-.6317481 2.2876562 0 .6317481.631748.6317481 1.6560156 0 2.2876562l-5.6617773 5.6617773c-.6317481.6317481-1.6560156.6317481-2.2876563 0l-3.23533199-3.235332c-.63174805-.631748-.63174805-1.6560156 0-2.2876562.63174805-.6317481 1.65601562-.6317481 2.28765625 0l2.09139644 2.0913965zm27.0262695-2.0913965c3.1269434 0 5.6617774 2.534834 5.6617774 5.6617773 0 3.1269434-2.534834 5.6617774-5.6617774 5.6617774-3.1269433 0-5.6617773-2.534834-5.6617773-5.6617774 0-3.1269433 2.534834-5.6617773 5.6617773-5.6617773zm0 3.235332c-1.3400879 0-2.4264453 1.0863574-2.4264453 2.4264453s1.0863574 2.4264453 2.4264453 2.4264453 2.4264453-1.0863574 2.4264453-2.4264453-1.0863574-2.4264453-2.4264453-2.4264453z" fill="url(#a)" stroke="url(#a)" stroke-width=".5" transform="translate(8 8)"/></svg>