<?xml version="1.0" encoding="UTF-8"?>
<svg width="76px" height="76px" viewBox="0 0 76 76" version="1.1" xmlns="http://www.w3.org/2000/svg" xmlns:xlink="http://www.w3.org/1999/xlink">
    <title>how-fusionauth-simplifies-compliance-with-mfa-requirements-dark</title>
    <defs>
        <linearGradient x1="-3.88578059e-14%" y1="100%" x2="100%" y2="2.77555756e-15%" id="linearGradient-1">
            <stop stop-color="#1C204A" offset="0%"></stop>
            <stop stop-color="#343D6E" offset="100%"></stop>
        </linearGradient>
        <filter x="-107.4%" y="-93.4%" width="314.7%" height="292.1%" filterUnits="objectBoundingBox" id="filter-2">
            <feOffset dx="0" dy="1" in="SourceAlpha" result="shadowOffsetOuter1"></feOffset>
            <feGaussianBlur stdDeviation="12" in="shadowOffsetOuter1" result="shadowBlurOuter1"></feGaussianBlur>
            <feColorMatrix values="0 0 0 0 0   0 0 0 0 0   0 0 0 0 0  0 0 0 0.5 0" type="matrix" in="shadowBlurOuter1" result="shadowMatrixOuter1"></feColorMatrix>
            <feMerge>
                <feMergeNode in="shadowMatrixOuter1"></feMergeNode>
                <feMergeNode in="SourceGraphic"></feMergeNode>
            </feMerge>
        </filter>
    </defs>
    <g id="how-fusionauth-simplifies-compliance-with-mfa-requirements-dark" stroke="none" stroke-width="1" fill="none" fill-rule="evenodd">
        <rect id="Rectangle-Copy-8" fill="url(#linearGradient-1)" x="0" y="0" width="76" height="76" rx="12"></rect>
        <g id="Group" filter="url(#filter-2)" transform="translate(21, 19)">
            <path d="M23.1180136,2.25842178 L23.4477366,2.28453491 C27.8751357,2.63517228 31.4017155,6.2626797 31.7701883,10.8451643 C34.7432706,14.3075215 34.7432706,19.5262912 31.7701883,22.9886494 C31.5291596,25.9861753 29.9368342,28.575083 27.6250016,30.1055024 L27.2473145,30.3807196 L27.2473145,35.8166485 C27.2473145,39.2305056 24.3618937,37.8342349 22.6914307,36.898695 C20.8157427,35.8234128 19.1079491,34.8343992 17.5689426,33.9301289 C17.2206772,33.7263022 16.7893848,33.726872 16.4416593,33.9316184 L16.27331,34.0310636 C15.2303936,34.6474737 13.5873778,35.6033508 11.3442627,36.898695 C8.31475423,38.6666694 6.8,38.3059872 6.8,35.8166485 L6.8,30.3807196 L6.37500038,30.1055024 C4.06316731,28.575083 2.47084062,25.9861753 2.2298132,22.9886494 C-0.743271067,19.5262912 -0.743271067,14.3075215 2.2298132,10.8451643 C2.59828503,6.2626797 6.12486688,2.63517228 10.5522665,2.28453491 L10.8819885,2.25842178 C14.4424169,-0.752807261 19.5575841,-0.752807261 23.1180136,2.25842178 Z M17,4 C9.8202979,4 4,9.8202979 4,17 C4,24.1797013 9.8202979,30 17,30 C24.1797013,30 30,24.1797013 30,17 C30,9.8202979 24.1797013,4 17,4 Z" id="Combined-Shape" fill="#6366F1"></path>
            <path d="M17,4 C24.1797013,4 30,9.8202979 30,17 C30,24.1797013 24.1797013,30 17,30 C9.8202979,30 4,24.1797013 4,17 C4,9.8202979 9.8202979,4 17,4 Z M24.6824395,11.6042067 C23.9115635,10.8131163 22.6453396,10.7967292 21.8542492,11.5676051 C19.6126008,13.7519733 18.6929502,14.6481243 17.8195233,15.4992328 L17.4772757,15.832735 C16.9781472,16.3191095 16.4406241,16.8428974 15.6343395,17.6285792 L15.4669213,17.7917195 C15.2575325,17.9957578 15.1014611,18.1478412 14.9744105,18.2716452 L14.9650003,18.2800011 L14.8333768,18.1496647 C14.518833,17.8392751 14.2780516,17.6016737 14.0529447,17.3795397 L13.767586,17.0979497 C13.2593784,16.596454 12.7029995,16.0474232 11.404782,14.7663512 C10.6185589,13.9905117 9.3522569,13.9989292 8.57641737,14.7851524 C7.80057785,15.5713755 7.80899542,16.8376775 8.59521855,17.613517 C10.8670991,19.855393 10.8670991,19.855393 12.3128413,21.2820413 C12.8808115,21.8425103 12.8808115,21.8425103 13.242247,22.1991724 C13.3132433,22.269231 13.3487414,22.3042604 13.3777853,22.3329207 L13.4358732,22.3902414 C13.4469888,22.4012102 13.4595386,22.4135943 13.4745984,22.4284552 L13.5061982,22.4596377 L13.5520489,22.5048828 C14.327404,23.2699978 15.5724698,23.2739159 16.352625,22.5136958 C16.3634234,22.5031733 16.3688227,22.497912 16.3850203,22.4821283 L16.436613,22.431854 C16.4492112,22.4195777 16.464209,22.4049631 16.4822064,22.3874255 C16.6333848,22.2401102 16.6333848,22.2401102 16.8709508,22.0086146 C17.4756642,21.4193533 17.4756642,21.4193533 18.4259282,20.4933711 C20.844782,18.1363256 20.844782,18.1363256 24.6458379,14.432397 C25.4369283,13.6615211 25.4533154,12.3952971 24.6824395,11.6042067 Z" id="Combined-Shape" fill="#A5B4FC" fill-rule="nonzero"></path>
        </g>
    </g>
</svg>