<?xml version="1.0" encoding="UTF-8"?>
<svg width="76px" height="76px" viewBox="0 0 76 76" version="1.1" xmlns="http://www.w3.org/2000/svg" xmlns:xlink="http://www.w3.org/1999/xlink">
    <title>components-jwt-explained-dark</title>
    <defs>
        <linearGradient x1="-3.88578059e-14%" y1="100%" x2="100%" y2="2.77555756e-15%" id="linearGradient-1">
            <stop stop-color="#0F2B45" offset="0%"></stop>
            <stop stop-color="#1C4D6E" offset="100%"></stop>
        </linearGradient>
        <filter x="-96.1%" y="-98.6%" width="292.1%" height="302.8%" filterUnits="objectBoundingBox" id="filter-2">
            <feOffset dx="0" dy="1" in="SourceAlpha" result="shadowOffsetOuter1"></feOffset>
            <feGaussianBlur stdDeviation="12" in="shadowOffsetOuter1" result="shadowBlurOuter1"></feGaussianBlur>
            <feColorMatrix values="0 0 0 0 0   0 0 0 0 0   0 0 0 0 0  0 0 0 0.5 0" type="matrix" in="shadowBlurOuter1" result="shadowMatrixOuter1"></feColorMatrix>
            <feMerge>
                <feMergeNode in="shadowMatrixOuter1"></feMergeNode>
                <feMergeNode in="SourceGraphic"></feMergeNode>
            </feMerge>
        </filter>
    </defs>
    <g id="components-jwt-explained-dark" stroke="none" stroke-width="1" fill="none" fill-rule="evenodd">
        <rect id="Rectangle" fill="url(#linearGradient-1)" x="0" y="0" width="76" height="76" rx="12"></rect>
        <g id="Group" filter="url(#filter-2)" transform="translate(19, 20)">
            <path d="M4,0 L16,0 C17.1045695,-2.02906125e-16 18,0.8954305 18,2 L18,34 C18,35.1045695 17.1045695,36 16,36 L4,36 C1.790861,36 2.705415e-16,34.209139 0,32 L0,4 C-2.705415e-16,1.790861 1.790861,4.05812251e-16 4,0 Z" id="Rectangle" fill="#0EA5E9"></path>
            <path d="M26,0 L36,0 C37.1045695,-2.02906125e-16 38,0.8954305 38,2 L38,14 C38,15.1045695 37.1045695,16 36,16 L24,16 C22.8954305,16 22,15.1045695 22,14 L22,4 C22,1.790861 23.790861,4.05812251e-16 26,0 Z" id="Rectangle" fill="#0EA5E9" transform="translate(30, 8) scale(-1, 1) translate(-30, -8)"></path>
            <path d="M24,20 L36,20 C37.1045695,20 38,20.8954305 38,22 L38,34 C38,35.1045695 37.1045695,36 36,36 L26,36 C23.790861,36 22,34.209139 22,32 L22,22 C22,20.8954305 22.8954305,20 24,20 Z" id="Rectangle" fill="#7DD3FC" transform="translate(30, 28) scale(-1, 1) translate(-30, -28)"></path>
        </g>
    </g>
</svg>