<svg xmlns="http://www.w3.org/2000/svg" width="70" height="70"><linearGradient id="a" x1="0%" x2="100%" y1="0%" y2="100%"><stop offset="0" stop-color="#a4aebe"/><stop offset="1" stop-color="#2d53f5"/></linearGradient><path fill="url(#a)" stroke="url(#a)" stroke-width=".5" d="M4.853 30.735h14.559a4.853 4.853 0 0 1 4.853 4.853v14.559A4.853 4.853 0 0 1 19.412 55H4.852A4.853 4.853 0 0 1 0 50.147V35.588a4.853 4.853 0 0 1 4.853-4.853zm0 3.236c-.894 0-1.618.724-1.618 1.617v14.559c0 .893.724 1.618 1.618 1.618h14.559c.893 0 1.617-.725 1.617-1.618V35.588c0-.893-.724-1.617-1.617-1.617zm38.015-3.236c6.7 0 12.132 5.432 12.132 12.133S49.568 55 42.868 55s-12.133-5.432-12.133-12.132 5.432-12.133 12.133-12.133zm0 3.236a8.897 8.897 0 1 0 0 17.794 8.897 8.897 0 0 0 0-17.794zM4.853 0h45.294A4.853 4.853 0 0 1 55 4.853v14.559a4.853 4.853 0 0 1-4.853 4.853H4.853A4.853 4.853 0 0 1 0 19.412V4.852A4.853 4.853 0 0 1 4.853 0zm0 3.235c-.894 0-1.618.725-1.618 1.618v14.559c0 .893.724 1.617 1.618 1.617h45.294c.893 0 1.618-.724 1.618-1.617V4.852c0-.893-.725-1.617-1.618-1.617zm7.28 3.236h12.94a5.662 5.662 0 1 1 0 11.323h-12.94a5.662 5.662 0 1 1 0-11.323zm0 3.235a2.426 2.426 0 0 0 0 4.853h12.94a2.426 2.426 0 0 0 0-4.853zm3.708 29.591a1.618 1.618 0 1 1 2.288 2.288l-5.662 5.662a1.618 1.618 0 0 1-2.287 0L6.944 44.01a1.618 1.618 0 1 1 2.288-2.287l2.091 2.091zm27.027-2.091a5.662 5.662 0 1 1 0 11.323 5.662 5.662 0 0 1 0-11.323zm0 3.235a2.426 2.426 0 1 0 0 4.853 2.426 2.426 0 0 0 0-4.853z" transform="translate(8 8)"/></svg>