<svg height="70" viewBox="0 0 70 70" width="70" xmlns="http://www.w3.org/2000/svg" xmlns:xlink="http://www.w3.org/1999/xlink"><linearGradient id="a" x1="0%" x2="100%" y1="0%" y2="100%"><stop offset="0" stop-color="#a4aebe"/><stop offset="1" stop-color="#2d53f5"/></linearGradient><path d="m26.5 0c-14.6458435 0-26.5 11.8521347-26.5 26.5 0 14.6458435 11.8521347 26.5 26.5 26.5 14.6458435 0 26.5-11.8521347 26.5-26.5 0-14.6458435-11.8521347-26.5-26.5-26.5zm0 48.859375c-12.3575821 0-22.359375-10.0001755-22.359375-22.359375 0-12.3575821 10.0001755-22.359375 22.359375-22.359375 11.7263794 0 21.2320251 8.9755325 22.2639465 20.2890625h-4.0233611c-1.0319214-9.1506196-8.8186418-16.28632352-18.2405854-16.28632352-10.1218872 0-18.35663602 8.23474882-18.35663602 18.35663602 0 1.1435242.92678833 2.0703125 2.07031252 2.0703125 1.1435241 0 2.0703125-.9267883 2.0703125-2.0703125 0-7.8388824 6.3771286-14.216011 14.216011-14.216011s14.216011 6.3771286 14.216011 14.216011c0 1.1435242.9267884 2.0703125 2.0703125 2.0703125h5.977623c-1.0319214 11.3123169-10.5359497 20.2890625-22.2639465 20.2890625zm2.0703125-15.926445v-10.5044098c0-1.1435241-.9267883-2.0703125-2.0703125-2.0703125s-2.0703125.9267884-2.0703125 2.0703125v10.5044098c-2.3711548.8515778-4.0714798 3.121643-4.0714798 5.7819138 0 3.3869018 2.7552948 6.1417922 6.1417923 6.1417922s6.1417923-2.7552947 6.1417923-6.1417922c0-2.6602708-1.700325-4.930336-4.0714798-5.7819138zm-2.0703125 7.783081c-1.1034927 0-2.0011673-.8976745-2.0011673-2.0011672 0-1.1034928.8976746-2.0011673 2.0011673-2.0011673s2.0011673.8976745 2.0011673 2.0011673c0 1.1034927-.8976746 2.0011672-2.0011673 2.0011672z" fill="url(#a)" transform="translate(9 8)"/></svg>