<?xml version="1.0" encoding="UTF-8"?>
<svg width="76px" height="76px" viewBox="0 0 76 76" version="1.1" xmlns="http://www.w3.org/2000/svg" xmlns:xlink="http://www.w3.org/1999/xlink">
    <title>complete-list-oauth-2-grants</title>
    <defs>
        <linearGradient x1="2.77555756e-15%" y1="100%" x2="100%" y2="2.77555756e-15%" id="linearGradient-1">
            <stop stop-color="#DDEDEB" offset="0%"></stop>
            <stop stop-color="#E6F9F7" offset="100%"></stop>
        </linearGradient>
    </defs>
    <g id="complete-list-oauth-2-grants" stroke="none" stroke-width="1" fill="none" fill-rule="evenodd">
        <rect id="Rectangle-Copy-8" fill="url(#linearGradient-1)" x="0" y="0" width="76" height="76" rx="12"></rect>
        <g id="Group" transform="translate(19, 20)">
            <rect id="Rectangle" fill="#14B8A6" x="20" y="0" width="18" height="8" rx="2"></rect>
            <rect id="Rectangle" fill="#14B8A6" x="20" y="12" width="14" height="4" rx="2"></rect>
            <rect id="Rectangle" fill="#14B8A6" x="20" y="20" width="18" height="8" rx="2"></rect>
            <rect id="Rectangle" fill="#14B8A6" x="20" y="32" width="14" height="4" rx="2"></rect>
            <circle id="Oval" fill="#0F766E" cx="8" cy="8" r="8"></circle>
            <path d="M8,20 C12.418278,20 16,23.581722 16,28 C16,32.418278 12.418278,36 8,36 C3.581722,36 0,32.418278 0,28 C0,23.581722 3.581722,20 8,20 Z M8,24 C5.790861,24 4,25.790861 4,28 C4,30.209139 5.790861,32 8,32 C10.209139,32 12,30.209139 12,28 C12,25.790861 10.209139,24 8,24 Z" id="Oval" fill="#0F766E" fill-rule="nonzero"></path>
        </g>
    </g>
</svg>