<svg height="54" viewBox="0 0 54 54" width="54" xmlns="http://www.w3.org/2000/svg"><g fill="none" fill-rule="evenodd"><rect fill="#f1f5f9" height="54" rx="5" width="54"/><g transform="translate(12 13)"><rect fill="#f59e0b" height="11.756757" rx="1.52" width="29.737609"/><rect fill="#fb7185" height="14.108108" rx="1.52" width="13.381924" y="14.891892"/><path d="m9.03026697 18.7714813c.7720724.1651234.85464239.3116304.93479318.4467268.08985525.1514535.13901435.3289411.14637945.5178948-.0021973.3730917-.1062818.6132329-.28724974.8141689-.29914527.3309833-.59821691.6622284-.89730358.99349-.44627218.494281-.89257783.988599-1.33908392 1.4819998l-.76405597.8436974c-.34010736.3751729-.68023699.7503697-1.01961925 1.1268062-1.26132374-.906466-1.97585906-1.8104848-2.68907453-2.7155019-.23984321-.3036134-.31669875-.6582926-.19693978-1.0508611.06127528-.1999416.15885723-.3541525.28152597-.4664959.13274562-.1215722.29642844-.1971404.48843602-.2212149.3198928-.0406392.59033728.092474.8123347.3755046.16740452.2135296.33533736.4265226.50327674.6395245.18204596.2308936.36409921.461798.54562426.6932249.70137847-.6562242 1.29666333-1.3150242 1.89221002-1.9736055.36892264-.407846.73784773-.8156897 1.10964236-1.2198758.14774986-.1604124.31105709-.2515033.47910407-.2854828z" fill="#e11d48" stroke="#e11d48" stroke-linejoin="round" stroke-width=".57"/><rect fill="#4338ca" height="11.828108" rx="5.550962" stroke="#a5b4fc" stroke-width="2.28" width="11.101924" x="17.758076" y="16.031892"/><rect fill="#fcd34d" height="7.054054" rx="3.527027" width="14.125364" x="2.973761" y="2.351351"/></g></g></svg>