<svg height="54" viewBox="0 0 54 54" width="54" xmlns="http://www.w3.org/2000/svg"><g fill="none" fill-rule="evenodd"><rect fill="#f1f5f9" height="54" rx="5" width="54"/><g fill-rule="nonzero" transform="translate(16 14)"><path d="m2 0h18c1.1045695 0 2 .8954305 2 2v22c0 1.1045695-.8954305 2-2 2h-18c-1.1045695 0-2-.8954305-2-2v-22c0-1.1045695.8954305-2 2-2z" fill="#818cf8"/><path d="m3.88235294 14.3h2.5882353v2.6h-2.5882353zm0-5.2h2.5882353v2.6h-2.5882353zm0 10.4h2.5882353v2.6h-2.5882353zm0-15.6h2.5882353v2.6h-2.5882353zm5.17647059 10.4h9.05882357v2.6h-9.05882357zm0-5.2h9.05882357v2.6h-9.05882357zm0 10.4h9.05882357v2.6h-9.05882357zm0-15.6h9.05882357v2.6h-9.05882357z" fill="#312e81"/></g></g></svg>