<?xml version="1.0" encoding="UTF-8"?>
<svg width="76px" height="76px" viewBox="0 0 76 76" version="1.1" xmlns="http://www.w3.org/2000/svg" xmlns:xlink="http://www.w3.org/1999/xlink">
    <title>complete-auth-provider-needs</title>
    <defs>
        <linearGradient x1="-3.88578059e-14%" y1="100%" x2="100%" y2="2.77555756e-15%" id="linearGradient-1">
            <stop stop-color="#DDE7EC" offset="0%"></stop>
            <stop stop-color="#E7F6FD" offset="100%"></stop>
        </linearGradient>
    </defs>
    <g id="complete-auth-provider-needs" stroke="none" stroke-width="1" fill="none" fill-rule="evenodd">
        <rect id="Rectangle" fill="url(#linearGradient-1)" x="0" y="0" width="76" height="76" rx="12"></rect>
        <path d="M38,19 C48.4936996,19 57,27.5066819 57,38 C57,48.4933263 48.4936996,57 38,57 C27.5063004,57 19,48.4933263 19,38 C19,27.5066819 27.5063004,19 38,19 Z M38,45.4781494 C34.2190004,45.4781494 30.7671779,46.7612699 28.1071777,49.0460205 C30.7671779,51.3307693 34.2190004,53.0314941 38,53.0314941 C41.7809996,53.0314941 45.3441511,51.3307693 48.0041504,49.0460205 C45.3441511,46.7612699 41.7809996,45.4781494 38,45.4781494 Z M48.7175144,27.7824856 C47.9247224,26.9896936 46.650077,26.9561735 45.8167126,27.7062015 L35.3910477,37.0892999 C35.3539638,37.1226753 35.317764,37.15702 35.2824856,37.1922984 C34.1709529,38.3038311 34.1709529,40.1059817 35.2824856,41.2175144 C35.317764,41.2527928 35.3539638,41.2871375 35.3910477,41.320513 C36.5594649,42.3720885 38.3591246,42.2773696 39.4107001,41.1089523 L48.7937985,30.6832874 C49.5438265,29.849923 49.5103064,28.5752776 48.7175144,27.7824856 Z M51,36 C49.8954305,36 49,36.8954305 49,38 C49,39.1045695 49.8954305,40 51,40 C52.1045695,40 53,39.1045695 53,38 C53,36.8954305 52.1045695,36 51,36 Z M25,36 C23.8954305,36 23,36.8954305 23,38 C23,39.1045695 23.8954305,40 25,40 C26.1045695,40 27,39.1045695 27,38 C27,36.8954305 26.1045695,36 25,36 Z M29,27 C27.8954305,27 27,27.8954305 27,29 C27,30.1045695 27.8954305,31 29,31 C30.1045695,31 31,30.1045695 31,29 C31,27.8954305 30.1045695,27 29,27 Z M38,23 C36.8954305,23 36,23.8954305 36,25 C36,26.1045695 36.8954305,27 38,27 C39.1045695,27 40,26.1045695 40,25 C40,23.8954305 39.1045695,23 38,23 Z" id="Combined-Shape" fill="#0EA5E9" fill-rule="nonzero"></path>
    </g>
</svg>