<svg xmlns="http://www.w3.org/2000/svg" width="70" height="70"><linearGradient id="a" x1="0%" x2="100%" y1="0%" y2="100%"><stop offset="0" stop-color="#a4aebe"/><stop offset="1" stop-color="#2d53f5"/></linearGradient><path fill="url(#a)" d="M26.5 0C11.854 0 0 11.852 0 26.5 0 41.146 11.852 53 26.5 53 41.146 53 53 41.148 53 26.5 53 11.854 41.148 0 26.5 0zm0 48.86c-12.358 0-22.36-10-22.36-22.36 0-12.358 10-22.36 22.36-22.36 11.726 0 21.232 8.976 22.264 20.29H44.74C43.709 15.28 35.92 8.143 26.5 8.143c-10.122 0-18.357 8.235-18.357 18.357a2.07 2.07 0 1 0 4.141 0c0-7.839 6.377-14.216 14.216-14.216S40.716 18.661 40.716 26.5a2.07 2.07 0 0 0 2.07 2.07h5.978C47.732 39.883 38.228 48.86 26.5 48.86zm2.07-15.927V22.429a2.07 2.07 0 1 0-4.14 0v10.504a6.152 6.152 0 0 0-4.072 5.782c0 3.387 2.756 6.142 6.142 6.142s6.142-2.756 6.142-6.142c0-2.66-1.7-4.93-4.072-5.782zm-2.07 7.783a2.003 2.003 0 0 1-2.001-2.001c0-1.104.898-2.001 2.001-2.001s2.001.897 2.001 2a2.003 2.003 0 0 1-2.001 2.002z" transform="translate(9 8)"/></svg>