<svg height="70" viewBox="0 0 70 70" width="70" xmlns="http://www.w3.org/2000/svg" xmlns:xlink="http://www.w3.org/1999/xlink"><linearGradient id="a" x1="20.317108%" x2="79.682892%" y1="0%" y2="100%"><stop offset="0" stop-color="#a4aebe"/><stop offset="1" stop-color="#2d53f5"/></linearGradient><path d="m34.3762776 0c1.6612686 0 3.0128194 1.33616211 3.0128194 2.97851562v.59570313h2.9896809c1.7699712 0 3.4335295.68255664 4.6844522 1.92185742 1.2509226 1.23918164 1.9388095 2.88641992 1.9367739 4.63814453l-.0496644 44.3203125c-.0039769 3.609127-2.9742553 6.5454668-6.6212129 6.5454668h-33.70790567c-1.76997114 0-3.43365002-.6825566-4.68457264-1.9218574-1.25080211-1.2393008-1.93856852-2.8865391-1.93664436-4.6381446l.04953479-44.3203125c.00409744-3.60912691 2.97437584-6.54546675 6.62121297-6.54546675h3.00040659v-.59570313c0-1.64235351 1.35155082-2.97851562 3.01281942-2.97851562zm-24.70511922 7.1484375h-3.00040659c-1.65777376 0-3.00787839 1.33461328-3.00968608 2.9752988l-.04953246 44.3203125c-.00084188.7960977.31176826 1.5447774.88034754 2.1081934.56857928.5632969 1.32479695.873539 2.12934024.873539h33.70790567c1.6576532 0 3.0077578-1.3346132 3.009686-2.9752988l.0496535-44.3203125c.0009619-.79609763-.3117687-1.54489646-.880348-2.10819334-.5685793-.56329687-1.324797-.87353906-2.1293403-.87353906h-2.9896809v.59570312c0 1.64235352-1.3515508 2.97851558-3.0128194 2.97851558h-21.6922998c-1.6612686 0-3.01281942-1.33616206-3.01281942-2.97851558zm6.74943852 34.7645195c.7059639-.6978066 1.8505942-.6978066 2.5565581.0001192.7059638.6979258.7059638 1.8295234 0 2.52733l-5.447057 5.3850372c-.3388819.3352617-.7987587.5235039-1.2781585.5235039-.4795203 0-.9392766-.1883614-1.278279-.5235039l-2.26118126-2.2355547c-.70596384-.698045-.70596384-1.8295235 0-2.5273301.70596385-.6979258 1.85047366-.6979258 2.55643756 0l.9829022.9717109zm20.5887643 2.1690743c.9984484 0 1.8076917.8001484 1.8076917 1.7871093 0 .986961-.8093638 1.7871094-1.8076917 1.7871094h-12.8948671c-.9983278 0-1.8076916-.8001484-1.8076916-1.7871094 0-.9869609.8093638-1.7871093 1.8076916-1.7871093zm-20.5887643-14.0831368c.7059639-.6978066 1.8505942-.6978066 2.5565581.0001192.7059638.6979258.7059638 1.8295234 0 2.52733l-5.447057 5.3850372c-.3388819.3352617-.7987587.5235039-1.2781585.5235039-.4795203 0-.9392766-.1883614-1.278279-.5235039l-2.26118126-2.2355547c-.70596384-.698045-.70596384-1.8295235 0-2.5273301.70596385-.6979258 1.85047366-.6979258 2.55643756 0l.9829022.9717109zm20.5370643 2.1690743c.9983279 0 1.8076917.8001484 1.8076917 1.7871093 0 .986961-.8093638 1.7871094-1.8076917 1.7871094h-12.8431671c-.9983278 0-1.8076916-.8001484-1.8076916-1.7871094 0-.9869609.8093638-1.7871093 1.8076916-1.7871093zm-20.5370643-14.9930137c.7060844-.6979258 1.8505942-.6979258 2.5565581.0001191.7059638.6979258.7059638 1.8295235 0 2.5273301l-5.447057 5.384918c-.3390024.3352617-.7987587.5235039-1.2781585.5235039-.4795203 0-.9392766-.1883614-1.278279-.5235039l-2.26118126-2.2355547c-.70596384-.6979258-.70596384-1.8295235 0-2.5273301.70596385-.6979258 1.85047366-.6979258 2.55643756 0l.9829022.9718301zm20.5370643 3.0789512c.9983279 0 1.8076917.8001484 1.8076917 1.7871093 0 .986961-.8093638 1.7871094-1.8076917 1.7871094h-12.8431671c-.9983278 0-1.8076916-.8001484-1.8076916-1.7871094 0-.9869609.8093638-1.7871093 1.8076916-1.7871093zm-3.1839475-16.67968755h-20.487172v3.57421875h20.487172z" fill="url(#a)" transform="translate(12 4)"/></svg>