<svg xmlns="http://www.w3.org/2000/svg" width="70" height="70"><linearGradient id="a" x1="20.317%" x2="79.683%" y1="0%" y2="100%"><stop offset="0" stop-color="#a4aebe"/><stop offset="1" stop-color="#2d53f5"/></linearGradient><path fill="url(#a)" d="M34.376 0c1.662 0 3.013 1.336 3.013 2.979v.595h2.99c1.77 0 3.433.683 4.684 1.922A6.475 6.475 0 0 1 47 10.134l-.05 44.32C46.946 58.065 43.976 61 40.33 61H6.62a6.613 6.613 0 0 1-4.684-1.922A6.476 6.476 0 0 1 0 54.44l.05-44.32c.004-3.61 2.974-6.546 6.62-6.546h3.001V2.98c0-1.644 1.352-2.98 3.013-2.98zM9.671 7.148h-3c-1.658 0-3.008 1.335-3.01 2.976l-.05 44.32c0 .796.312 1.545.88 2.108a3.006 3.006 0 0 0 2.13.874H40.33c1.658 0 3.008-1.335 3.01-2.976l.05-44.32a2.943 2.943 0 0 0-.88-2.108 3.006 3.006 0 0 0-2.13-.874h-2.99v.596c0 1.642-1.351 2.979-3.013 2.979H12.684c-1.661 0-3.013-1.337-3.013-2.979zm6.75 34.765a1.823 1.823 0 0 1 2.556 0c.706.698.706 1.83 0 2.527l-5.447 5.385a1.818 1.818 0 0 1-2.556 0L8.712 47.59a1.773 1.773 0 0 1 0-2.527 1.822 1.822 0 0 1 2.557 0l.983.971zm20.588 2.169c.999 0 1.808.8 1.808 1.787 0 .987-.81 1.787-1.808 1.787H24.114c-.998 0-1.807-.8-1.807-1.787 0-.987.81-1.787 1.807-1.787zM16.421 29.999a1.823 1.823 0 0 1 2.556 0c.706.698.706 1.83 0 2.527l-5.447 5.385a1.818 1.818 0 0 1-2.556 0l-2.262-2.235a1.773 1.773 0 0 1 0-2.528 1.822 1.822 0 0 1 2.557 0l.983.972zm20.537 2.169c.998 0 1.807.8 1.807 1.787 0 .987-.809 1.787-1.807 1.787H24.114c-.998 0-1.807-.8-1.807-1.787 0-.987.81-1.787 1.807-1.787zM16.42 17.175a1.822 1.822 0 0 1 2.556 0c.706.698.706 1.83 0 2.527l-5.447 5.385a1.818 1.818 0 0 1-2.556 0l-2.262-2.235a1.773 1.773 0 0 1 0-2.528 1.822 1.822 0 0 1 2.557 0l.983.972zm20.537 3.079c.998 0 1.807.8 1.807 1.787 0 .987-.809 1.787-1.807 1.787H24.114c-.998 0-1.807-.8-1.807-1.787 0-.987.81-1.787 1.807-1.787zm-3.184-16.68H13.287v3.574h20.487z" transform="translate(12 4)"/></svg>