<?xml version="1.0" encoding="UTF-8"?>
<svg width="76px" height="76px" viewBox="0 0 76 76" version="1.1" xmlns="http://www.w3.org/2000/svg" xmlns:xlink="http://www.w3.org/1999/xlink">
    <title>how-fusionauth-simplifies-compliance-with-mfa-requirements</title>
    <defs>
        <linearGradient x1="-3.88578059e-14%" y1="100%" x2="100%" y2="2.77555756e-15%" id="linearGradient-1">
            <stop stop-color="#E7E6F1" offset="0%"></stop>
            <stop stop-color="#F0F1FD" offset="100%"></stop>
        </linearGradient>
    </defs>
    <g id="how-fusionauth-simplifies-compliance-with-mfa-requirements" stroke="none" stroke-width="1" fill="none" fill-rule="evenodd">
        <rect id="Rectangle-Copy-8" fill="url(#linearGradient-1)" x="0" y="0" width="76" height="76" rx="12"></rect>
        <path d="M44.1180136,21.2584218 L44.4477366,21.2845349 C48.8751357,21.6351723 52.4017155,25.2626797 52.7701883,29.8451643 C55.7432706,33.3075215 55.7432706,38.5262912 52.7701883,41.9886494 C52.5291596,44.9861753 50.9368342,47.575083 48.6250016,49.1055024 L48.2473145,49.3807196 L48.2473145,54.8166485 C48.2473145,58.2305056 45.3618937,56.8342349 43.6914307,55.898695 C41.8157427,54.8234128 40.1079491,53.8343992 38.5689426,52.9301289 C38.2206772,52.7263022 37.7893848,52.726872 37.4416593,52.9316184 L37.27331,53.0310636 C36.2303936,53.6474737 34.5873778,54.6033508 32.3442627,55.898695 C29.3147542,57.6666694 27.8,57.3059872 27.8,54.8166485 L27.8,49.3807196 L27.3750004,49.1055024 C25.0631673,47.575083 23.4708406,44.9861753 23.2298132,41.9886494 C20.2567289,38.5262912 20.2567289,33.3075215 23.2298132,29.8451643 C23.598285,25.2626797 27.1248669,21.6351723 31.5522665,21.2845349 L31.8819885,21.2584218 C35.4424169,18.2471927 40.5575841,18.2471927 44.1180136,21.2584218 Z M38,23 C30.8202979,23 25,28.8202979 25,36 C25,43.1797013 30.8202979,49 38,49 C45.1797013,49 51,43.1797013 51,36 C51,28.8202979 45.1797013,23 38,23 Z" id="Combined-Shape" fill="#4338CA"></path>
        <path d="M38,23 C45.1797013,23 51,28.8202979 51,36 C51,43.1797013 45.1797013,49 38,49 C30.8202979,49 25,43.1797013 25,36 C25,28.8202979 30.8202979,23 38,23 Z M45.6824395,30.6042067 C44.9115635,29.8131163 43.6453396,29.7967292 42.8542492,30.5676051 C40.6126008,32.7519733 39.6929502,33.6481243 38.8195233,34.4992328 L38.4772757,34.832735 C37.9781472,35.3191095 37.4406241,35.8428974 36.6343395,36.6285792 L36.4669213,36.7917195 C36.2575325,36.9957578 36.1014611,37.1478412 35.9744105,37.2716452 L35.9650003,37.2800011 L35.8333768,37.1496647 C35.518833,36.8392751 35.2780516,36.6016737 35.0529447,36.3795397 L34.767586,36.0979497 C34.2593784,35.596454 33.7029995,35.0474232 32.404782,33.7663512 C31.6185589,32.9905117 30.3522569,32.9989292 29.5764174,33.7851524 C28.8005778,34.5713755 28.8089954,35.8376775 29.5952185,36.613517 C31.8670991,38.855393 31.8670991,38.855393 33.3128413,40.2820413 C33.8808115,40.8425103 33.8808115,40.8425103 34.242247,41.1991724 C34.3132433,41.269231 34.3487414,41.3042604 34.3777853,41.3329207 L34.4358732,41.3902414 C34.4469888,41.4012102 34.4595386,41.4135943 34.4745984,41.4284552 L34.5061982,41.4596377 L34.5520489,41.5048828 C35.327404,42.2699978 36.5724698,42.2739159 37.352625,41.5136958 C37.3634234,41.5031733 37.3688227,41.497912 37.3850203,41.4821283 L37.436613,41.431854 C37.4492112,41.4195777 37.464209,41.4049631 37.4822064,41.3874255 C37.6333848,41.2401102 37.6333848,41.2401102 37.8709508,41.0086146 C38.4756642,40.4193533 38.4756642,40.4193533 39.4259282,39.4933711 C41.844782,37.1363256 41.844782,37.1363256 45.6458379,33.432397 C46.4369283,32.6615211 46.4533154,31.3952971 45.6824395,30.6042067 Z" id="Combined-Shape" fill="#6366F1" fill-rule="nonzero"></path>
    </g>
</svg>