<?xml version="1.0" encoding="UTF-8"?>
<svg width="54px" height="54px" viewBox="0 0 54 54" version="1.1" xmlns="http://www.w3.org/2000/svg" xmlns:xlink="http://www.w3.org/1999/xlink">
    <title>complete-list-oauth-2-grants</title>
    <g id="complete-list-oauth-2-grants" stroke="none" stroke-width="1" fill="none" fill-rule="evenodd">
        <rect id="Rectangle" fill="#F1F5F9" x="0" y="0" width="54" height="54" rx="5"></rect>
        <g id="icons8-list" transform="translate(16, 14)" fill-rule="nonzero">
            <path d="M2,0 L20,0 C21.1045695,-2.02906125e-16 22,0.8954305 22,2 L22,24 C22,25.1045695 21.1045695,26 20,26 L2,26 C0.8954305,26 6.76353751e-17,25.1045695 0,24 L0,2 C-1.3527075e-16,0.8954305 0.8954305,1.3527075e-16 2,0 Z" id="Path" fill="#818CF8"></path>
            <path d="M3.88235294,14.3 L6.47058824,14.3 L6.47058824,16.9 L3.88235294,16.9 L3.88235294,14.3 Z M3.88235294,9.1 L6.47058824,9.1 L6.47058824,11.7 L3.88235294,11.7 L3.88235294,9.1 Z M3.88235294,19.5 L6.47058824,19.5 L6.47058824,22.1 L3.88235294,22.1 L3.88235294,19.5 Z M3.88235294,3.9 L6.47058824,3.9 L6.47058824,6.5 L3.88235294,6.5 L3.88235294,3.9 Z M9.05882353,14.3 L18.1176471,14.3 L18.1176471,16.9 L9.05882353,16.9 L9.05882353,14.3 Z M9.05882353,9.1 L18.1176471,9.1 L18.1176471,11.7 L9.05882353,11.7 L9.05882353,9.1 Z M9.05882353,19.5 L18.1176471,19.5 L18.1176471,22.1 L9.05882353,22.1 L9.05882353,19.5 Z M9.05882353,3.9 L18.1176471,3.9 L18.1176471,6.5 L9.05882353,6.5 L9.05882353,3.9 Z" id="Shape" fill="#312E81"></path>
        </g>
    </g>
</svg>