<svg height="54" viewBox="0 0 54 54" width="54" xmlns="http://www.w3.org/2000/svg"><g fill="none" fill-rule="evenodd"><rect fill="#f1f5f9" height="54" rx="5" width="54"/><g fill-rule="nonzero" transform="translate(13 13)"><g fill="#0f172a" transform="translate(5.5815 6.4279)"><path d="m.69755504 18.5721191c-.16046511 0-.32232558-.0564286-.45348837-.1721429-.29302325-.2564285-.3272093-.7071428-.07534884-1.0064285l4.18604652-5c.25046511-.3007143.69139534-.3342857.98302325-.0771429.29302326.2564286.3272093.7071429.07534884 1.0064286l-4.18604651 5c-.13744186.165-.33348837.2492857-.52953489.2492857z"/><path d="m9.45267132 4.70140481c-.03488372 0-.06976744-.00285714-.10465116-.00857142-.38162791-.05857143-.64325581-.42285715-.58534884-.81285715l.48418605-3.27214286c.0572093-.39071428.41023256-.65999999.79395353-.59928571.3816279.05857143.6432558.42285714.5853488.81285714l-.4841861 3.27214286c-.0523255.355-.35023251.60785714-.68930228.60785714z"/><path d="m13.2549969 8.37783339c-.3174419 0-.6048837-.22357143-.6795349-.55357143-.0865116-.385.147907-.76785715.5232558-.85642857l4.4490698-1.04785715c.3795349-.09.75.15214286.8365116.53571429.0865117.385-.1479069.76785714-.5232558.85642857l-4.4490698 1.04785714c-.0530232.01214286-.1053488.01785715-.1569767.01785715z"/><path d="m14.5310434 17.8578334c-.2260465 0-.4486046-.1121429-.5825581-.32l-2.7662791-4.2857143c-.2127907-.3292857-.124186-.7728571.1967442-.99.3216279-.2178571.7534884-.1278571.9669767.2014286l2.7662791 4.2857143c.2127907.3292857.1241861.7728571-.1967442.99-.1186046.08-.2518604.1185714-.3844186.1185714z"/></g><path d="m14.3023256 20.7142857c-2.8855814 0-5.23255816-2.4028571-5.23255816-5.3571428 0-2.9542858 2.34697676-5.3571429 5.23255816-5.3571429s5.2325581 2.4028571 5.2325581 5.3571429c0 2.9542857-2.3469767 5.3571428-5.2325581 5.3571428z" fill="#6366f1"/><path d="m16.0465116 7.14285714c-1.9234883 0-3.4883721-1.60214285-3.4883721-3.57142857 0-1.96928571 1.5648838-3.57142857 3.4883721-3.57142857 1.9234884 0 3.4883721 1.60214286 3.4883721 3.57142857 0 1.96928572-1.5648837 3.57142857-3.4883721 3.57142857z" fill="#f58320"/><path d="m26.5116279 15.7142857c-1.9234884 0-3.4883721-1.6021428-3.4883721-3.5714286 0-1.9692857 1.5648837-3.57142853 3.4883721-3.57142853s3.4883721 1.60214283 3.4883721 3.57142853c0 1.9692858-1.5648837 3.5714286-3.4883721 3.5714286z" fill="#cbd5e1"/><path d="m3.48837209 10c-1.92348837 0-3.48837209-1.60214286-3.48837209-3.57142857 0-1.96928572 1.56488372-3.57142857 3.48837209-3.57142857 1.92348838 0 3.4883721 1.60214285 3.4883721 3.57142857 0 1.96928571-1.56488372 3.57142857-3.4883721 3.57142857z" fill="#5d50d8"/><path d="m4.18604651 30c-1.92348837 0-3.48837209-1.6021429-3.48837209-3.5714286s1.56488372-3.5714285 3.48837209-3.5714285 3.48837209 1.6021428 3.48837209 3.5714285-1.56488372 3.5714286-3.48837209 3.5714286z" fill="#4338ca"/><path d="m22.3255814 30c-1.9234884 0-3.4883721-1.6021429-3.4883721-3.5714286s1.5648837-3.5714285 3.4883721-3.5714285 3.4883721 1.6021428 3.4883721 3.5714285-1.5648837 3.5714286-3.4883721 3.5714286z" fill="#a5b4fc"/></g></g></svg>