<svg height="70" viewBox="0 0 70 70" width="70" xmlns="http://www.w3.org/2000/svg" xmlns:xlink="http://www.w3.org/1999/xlink"><linearGradient id="a" x1="3.570248%" x2="96.429752%" y1="0%" y2="100%"><stop offset="0" stop-color="#a4aebe"/><stop offset="1" stop-color="#2d53f5"/></linearGradient><path d="m44.077451 32.3313431c-2.6452647 0-5.0241327 1.1442556-6.6595908 2.9567813l-3.7006305-2.2086968c.6846939-1.5344111 1.0658042-3.2296324 1.0658042-5.0113281 0-3.3906575-1.3779776-6.4687179-3.6089682-8.7183424l5.2735669-6.6310319c.8405087.3733977 1.7711573.5829773 2.7508447.5829773 3.7120475 0 6.732116-2.9835293 6.732116-6.65090494 0-3.66737565-3.0198511-6.65079756-6.7318985-6.65079756-3.7120475 0-6.7320072 2.98352933-6.7320072 6.65090498 0 .47405181.0514309.93639465.1472249 1.38262425.2145309.99805469.6567494 1.91328728 1.2695705 2.69177207l-5.2730233 6.6303875c-1.8873933-1.1124588-4.0915268-1.7527994-6.4446249-1.7527994-3.1950205 0-6.1159241 1.1799196-8.3412607 3.121244l-3.2133963-2.7750239c.3094551-.6824499.4829935-1.4375167.4829935-2.2322222 0-.3905852-.0422973-.7715024-.1213464-1.1392068-.5322497-2.4768213-2.76247923-4.34090948-5.42568489-4.34090948-3.05877755 0-5.54714001 2.45834478-5.54714001 5.48011628 0 3.0217714 2.48836246 5.4802236 5.54714001 5.4802236 1.06917491 0 2.06821683-.3012103 2.91611941-.8210237l3.21230898 2.7739496c-1.342748 1.9807481-2.1269328 4.3605677-2.1269328 6.9183849 0 3.4858331 1.4564831 6.6414519 3.7990341 8.9057932l-3.99453664 5.2491597c-.80593151-.3377338-1.69167328-.5247549-2.62079966-.5247549-3.71204745 0-6.7323334 2.9835294-6.7323334 6.650905 0 3.6673757 3.02006848 6.6504753 6.73222466 6.6504753 3.71215614 0 6.73211594-2.9835293 6.73211594-6.650905 0-.4358097-.0439283-.8615217-.1252608-1.2743432-.2147484-1.0881815-.6982855-2.0821541-1.3801523-2.9114494l3.9946454-5.2491597c1.8350926 1.029959 3.9553927 1.6191668 6.2125881 1.6191668 3.9862729 0 7.5460937-1.8362659 9.8600478-4.6970123l3.7007392 2.2088043c-.3684973.9652911-.5717199 2.0099668-.5717199 3.1010486 0 .5777137.0581724 1.1418923.1660358 1.6888834.7999512 4.0551679 4.4210976 7.1259236 8.7562958 7.1259236 4.9198574 0 8.9224403-3.9542989 8.9224403-8.814807s-4.0026917-8.814807-8.922549-8.814807zm-4.8787562-29.10772635c1.9128369 0 3.4691372 1.53741887 3.4691372 3.42728823 0 1.88986935-1.5561916 3.42728822-3.4691372 3.42728822s-3.4690284-1.53752629-3.4690284-3.42728822c0-1.88976194 1.5560828-3.42728823 3.4690284-3.42728823zm-33.65166353 12.74955515c-1.25956699 0-2.28405251-1.0123417-2.28405251-2.2564995 0-1.2442651 1.02459425-2.256392 2.28405251-2.256392s2.28405251 1.0122343 2.28405251 2.256392c.00010874 1.2441578-1.02448551 2.2564995-2.28405251 2.2564995zm1.18497593 35.8031039c-1.9128369 0-3.46913717-1.5374188-3.46913717-3.4272882 0-1.8897619 1.55619154-3.4272882 3.46913717-3.4272882 1.91283689 0 3.4691372 1.5374188 3.4691372 3.4272882-.0001088 1.8898694-1.55630031 3.4272882-3.4691372 3.4272882zm15.4338276-14.4666905c-5.1580922 0-9.3543292-4.1457243-9.3543292-9.2414858 0-5.0957616 4.1964545-9.2415933 9.3543292-9.2415933 5.1578746 0 9.3543291 4.1458317 9.3543291 9.2415933 0 5.0957615-4.1963458 9.2414858-9.3543291 9.2414858zm21.9117249 9.4276476c-3.1206468 0-5.6594615-2.5081884-5.6594615-5.5911902 0-3.0828944 2.5388147-5.5910828 5.6594615-5.5910828s5.6594615 2.5081884 5.6594615 5.5910828-2.5388147 5.5911902-5.6594615 5.5911902z" fill="url(#a)" transform="translate(9 8)"/></svg>