<svg xmlns="http://www.w3.org/2000/svg" width="70" height="70"><linearGradient id="a" x1="3.57%" x2="96.43%" y1="0%" y2="100%"><stop offset="0" stop-color="#a4aebe"/><stop offset="1" stop-color="#2d53f5"/></linearGradient><path fill="url(#a)" d="M44.077 32.331a8.95 8.95 0 0 0-6.66 2.957l-3.7-2.209a12.266 12.266 0 0 0 1.066-5.01c0-3.392-1.378-6.47-3.609-8.72l5.274-6.63a6.76 6.76 0 0 0 2.75.583c3.713 0 6.733-2.984 6.733-6.651C45.93 2.983 42.91 0 39.199 0s-6.732 2.984-6.732 6.65a6.58 6.58 0 0 0 1.416 4.075l-5.273 6.63a12.656 12.656 0 0 0-6.444-1.752c-3.195 0-6.116 1.18-8.341 3.121L10.61 15.95a5.39 5.39 0 0 0 .362-3.371C10.44 10.1 8.21 8.237 5.547 8.237 2.488 8.237 0 10.695 0 13.717c0 3.022 2.488 5.48 5.547 5.48 1.07 0 2.068-.301 2.916-.82l3.213 2.773a12.287 12.287 0 0 0-2.127 6.918c0 3.486 1.456 6.642 3.799 8.906l-3.995 5.25a6.766 6.766 0 0 0-2.62-.525C3.02 41.699 0 44.682 0 48.349 0 52.018 3.02 55 6.732 55s6.732-2.984 6.732-6.65a6.585 6.585 0 0 0-1.505-4.187l3.995-5.249a12.658 12.658 0 0 0 6.212 1.62c3.986 0 7.546-1.837 9.86-4.698l3.7 2.21a8.675 8.675 0 0 0-.405 4.789c.8 4.055 4.421 7.126 8.757 7.126 4.92 0 8.922-3.954 8.922-8.815s-4.003-8.815-8.923-8.815zM39.2 3.224c1.913 0 3.469 1.537 3.469 3.427 0 1.89-1.556 3.427-3.47 3.427S35.73 8.541 35.73 6.651c0-1.89 1.556-3.427 3.469-3.427zM5.547 15.974c-1.26 0-2.284-1.013-2.284-2.257 0-1.245 1.025-2.257 2.284-2.257s2.284 1.013 2.284 2.257c0 1.244-1.024 2.256-2.284 2.256zm1.185 35.802c-1.913 0-3.47-1.537-3.47-3.427 0-1.89 1.557-3.427 3.47-3.427 1.913 0 3.47 1.537 3.47 3.427-.001 1.89-1.557 3.427-3.47 3.427zM22.166 37.31c-5.158 0-9.354-4.146-9.354-9.242 0-5.096 4.196-9.241 9.354-9.241 5.158 0 9.354 4.145 9.354 9.241s-4.196 9.242-9.354 9.242zm21.912 9.427c-3.121 0-5.66-2.508-5.66-5.591s2.539-5.591 5.66-5.591 5.659 2.508 5.659 5.591-2.539 5.591-5.66 5.591z" transform="translate(9 8)"/></svg>