<?xml version="1.0" encoding="UTF-8"?>
<svg width="54px" height="54px" viewBox="0 0 54 54" version="1.1" xmlns="http://www.w3.org/2000/svg" xmlns:xlink="http://www.w3.org/1999/xlink">
    <title>cross-platform-gaming-accounts</title>
    <g id="cross-platform-gaming-accounts" stroke="none" stroke-width="1" fill="none" fill-rule="evenodd">
        <rect id="Rectangle" fill="#F1F5F9" x="0" y="0" width="54" height="54" rx="5"></rect>
        <g id="icons8-mind-map" transform="translate(13, 13)" fill-rule="nonzero">
            <g id="Group-2" transform="translate(5.5815, 6.4279)" fill="#0F172A">
                <path d="M0.697555043,18.5721191 C0.537089927,18.5721191 0.375229462,18.5156905 0.244066671,18.3999762 C-0.0489565848,18.1435477 -0.0831426313,17.6928334 0.168717834,17.3935477 L4.35476435,12.3935477 C4.60522946,12.0928334 5.04615969,12.059262 5.3377876,12.3164048 C5.63081086,12.5728334 5.6649969,13.0235477 5.41313644,13.3228334 L1.22708993,18.3228334 C1.08964807,18.4878334 0.893601555,18.5721191 0.697555043,18.5721191 Z" id="Path"></path>
                <path d="M9.45267132,4.70140481 C9.4177876,4.70140481 9.38290388,4.69854767 9.34802016,4.69283339 C8.96639225,4.63426196 8.70476435,4.26997624 8.76267132,3.87997624 L9.24685737,0.607833385 C9.30406667,0.2171191 9.65708993,-0.0521666145 10.0408109,0.00854767119 C10.4224388,0.0671190998 10.6840667,0.431404814 10.6261597,0.821404814 L10.1419736,4.09354767 C10.0896481,4.44854767 9.79174109,4.70140481 9.45267132,4.70140481 Z" id="Path"></path>
                <path d="M13.2549969,8.37783339 C12.937555,8.37783339 12.6501132,8.15426196 12.575462,7.82426196 C12.4889504,7.43926196 12.723369,7.05640481 13.0987178,6.96783339 L17.5477876,5.91997624 C17.9273225,5.82997624 18.2977876,6.0721191 18.3842992,6.45569053 C18.4708109,6.84069053 18.2363923,7.22354767 17.8610434,7.3121191 L13.4119736,8.35997624 C13.3589504,8.3721191 13.3066248,8.37783339 13.2549969,8.37783339 Z" id="Path"></path>
                <path d="M14.5310434,17.8578334 C14.3049969,17.8578334 14.0824388,17.7456905 13.9484853,17.5378334 L11.1822062,13.2521191 C10.9694155,12.9228334 11.0580202,12.479262 11.3789504,12.2621191 C11.7005783,12.044262 12.1324388,12.134262 12.3459271,12.4635477 L15.1122062,16.749262 C15.3249969,17.0785477 15.2363923,17.5221191 14.915462,17.739262 C14.7968574,17.819262 14.6636016,17.8578334 14.5310434,17.8578334 Z" id="Path"></path>
            </g>
            <path d="M14.3023256,20.7142857 C11.4167442,20.7142857 9.06976744,18.3114286 9.06976744,15.3571429 C9.06976744,12.4028571 11.4167442,10 14.3023256,10 C17.187907,10 19.5348837,12.4028571 19.5348837,15.3571429 C19.5348837,18.3114286 17.187907,20.7142857 14.3023256,20.7142857 Z" id="Path" fill="#6366F1"></path>
            <path d="M16.0465116,7.14285714 C14.1230233,7.14285714 12.5581395,5.54071429 12.5581395,3.57142857 C12.5581395,1.60214286 14.1230233,0 16.0465116,0 C17.97,0 19.5348837,1.60214286 19.5348837,3.57142857 C19.5348837,5.54071429 17.97,7.14285714 16.0465116,7.14285714 Z" id="Path" fill="#F58320"></path>
            <path d="M26.5116279,15.7142857 C24.5881395,15.7142857 23.0232558,14.1121429 23.0232558,12.1428571 C23.0232558,10.1735714 24.5881395,8.57142857 26.5116279,8.57142857 C28.4351163,8.57142857 30,10.1735714 30,12.1428571 C30,14.1121429 28.4351163,15.7142857 26.5116279,15.7142857 Z" id="Path" fill="#CBD5E1"></path>
            <path d="M3.48837209,10 C1.56488372,10 0,8.39785714 0,6.42857143 C0,4.45928571 1.56488372,2.85714286 3.48837209,2.85714286 C5.41186047,2.85714286 6.97674419,4.45928571 6.97674419,6.42857143 C6.97674419,8.39785714 5.41186047,10 3.48837209,10 Z" id="Path" fill="#5D50D8"></path>
            <path d="M4.18604651,30 C2.26255814,30 0.697674419,28.3978571 0.697674419,26.4285714 C0.697674419,24.4592857 2.26255814,22.8571429 4.18604651,22.8571429 C6.10953488,22.8571429 7.6744186,24.4592857 7.6744186,26.4285714 C7.6744186,28.3978571 6.10953488,30 4.18604651,30 Z" id="Path" fill="#4338CA"></path>
            <path d="M22.3255814,30 C20.402093,30 18.8372093,28.3978571 18.8372093,26.4285714 C18.8372093,24.4592857 20.402093,22.8571429 22.3255814,22.8571429 C24.2490698,22.8571429 25.8139535,24.4592857 25.8139535,26.4285714 C25.8139535,28.3978571 24.2490698,30 22.3255814,30 Z" id="Path" fill="#A5B4FC"></path>
        </g>
    </g>
</svg>