<?xml version="1.0" encoding="UTF-8"?>
<svg width="54px" height="54px" viewBox="0 0 54 54" version="1.1" xmlns="http://www.w3.org/2000/svg" xmlns:xlink="http://www.w3.org/1999/xlink">
    <title>developer-guide-gdpr</title>
    <g id="developer-guide-gdpr" stroke="none" stroke-width="1" fill="none" fill-rule="evenodd">
        <rect id="Rectangle" fill="#F1F5F9" x="0" y="0" width="54" height="54" rx="5"></rect>
        <g id="icons8-compass" transform="translate(12, 12)" fill-rule="nonzero">
            <path d="M30,15 C30,23.2845 23.2845,30 15,30 C6.7155,30 0,23.2845 0,15 C0,6.7155 6.7155,0 15,0 C23.2845,0 30,6.7155 30,15" id="Path" fill="#0EA5E9"></path>
            <path d="M27,15 C27,21.62775 21.62775,27 15,27 C8.37225,27 3,21.62775 3,15 C3,8.37225 8.37225,3 15,3 C21.62775,3 27,8.37225 27,15" id="Path" fill="#CBD5E1"></path>
            <polygon id="Path" fill="#0EA5E9" points="7.57575 22.42425 16.59075 16.59075 13.40925 13.40925"></polygon>
            <polygon id="Path" fill="#4338CA" points="13.40925 13.40925 16.59075 16.59075 22.42425 7.57575"></polygon>
            <path d="M16.125,15 C16.125,15.62175 15.62175,16.125 15,16.125 C14.37825,16.125 13.875,15.62175 13.875,15 C13.875,14.37825 14.379,13.875 15,13.875 C15.62175,13.875 16.125,14.37825 16.125,15" id="Path" fill="#FFFFFF"></path>
        </g>
    </g>
</svg>