<svg xmlns="http://www.w3.org/2000/svg" width="70" height="70"><linearGradient id="a" x1="0%" x2="100%" y1="0%" y2="100%"><stop offset="0" stop-color="#a4aebe"/><stop offset="1" stop-color="#2d53f5"/></linearGradient><path fill="url(#a)" d="M29.5 0c7.88 0 15.288 3.068 20.86 8.64C55.932 14.212 59 21.62 59 29.5s-3.068 15.288-8.64 20.86C44.788 55.932 37.38 59 29.5 59s-15.288-3.068-20.86-8.64C3.068 44.788 0 37.38 0 29.5S3.068 14.212 8.64 8.64C14.212 3.068 21.62 0 29.5 0zm0 3.688C15.267 3.688 3.687 15.267 3.687 29.5S15.268 55.313 29.5 55.313 55.313 43.733 55.313 29.5 43.733 3.687 29.5 3.687zM43.71 15.29c.521.522.682 1.304.408 1.988l-7.375 18.438c-.187.468-.559.84-1.027 1.027l-18.438 7.375a1.84 1.84 0 0 1-1.988-.408 1.844 1.844 0 0 1-.408-1.989l7.375-18.437c.187-.469.558-.84 1.027-1.027l18.437-7.375a1.844 1.844 0 0 1 1.989.408zM24.642 27.249l-4.739 11.848 11.847-4.74zm14.455-7.346-11.848 4.739 7.108 7.108z" transform="translate(6 6)"/></svg>