<?xml version="1.0" encoding="UTF-8"?>
<svg width="54px" height="54px" viewBox="0 0 54 54" version="1.1" xmlns="http://www.w3.org/2000/svg" xmlns:xlink="http://www.w3.org/1999/xlink">
    <title>developer-benefits-single-sign-on</title>
    <g id="developer-benefits-single-sign-on" stroke="none" stroke-width="1" fill="none" fill-rule="evenodd">
        <rect id="Rectangle" fill="#F1F5F9" x="0" y="0" width="54" height="54" rx="5"></rect>
        <g id="Group" transform="translate(12, 14)" fill-rule="nonzero">
            <path d="M18.5261905,9.29624037 C17.6404762,9.96480675 16.9761905,10.7819434 16.3857143,11.6733653 C15.7952381,8.9248146 14.5404762,6.47340454 12.547619,4.39342024 C9.44761905,1.27344379 5.16666667,-0.137974131 0.738095238,0.0105961765 C0.442857143,4.46770539 1.8452381,8.7762443 4.87142857,11.9705059 C7.30714286,14.4962011 10.5547619,15.907619 14.0238095,16.2790448 L14.0238095,25.2571485 L16.9761905,25.2571485 L16.9761905,18.7304549 C19.5595238,18.5818846 21.9952381,17.6904627 23.9880952,16.0561893 C26.7928571,13.7533496 28.2690476,10.4105177 28.4166667,6.77054515 C24.8738095,6.25054908 21.3309524,7.06768576 18.5261905,9.29624037 Z" id="Path" fill="#4338CA"></path>
            <path d="M18.5261905,9.29624037 C17.6404762,9.96480675 16.9761905,10.7819434 16.3857143,11.6733653 C15.7952381,8.9248146 14.5404762,6.47340454 12.547619,4.39342024 C9.44761905,1.27344379 5.16666667,-0.137974131 0.738095238,0.0105961765 C0.442857143,4.46770539 1.8452381,8.7762443 4.87142857,11.9705059 C7.30714286,14.4962011 10.5547619,15.907619 14.0238095,16.2790448 L14.0238095,25.2571485 L16.9761905,25.2571485 L16.9761905,18.7304549 C19.5595238,18.5818846 21.9952381,17.6904627 23.9880952,16.0561893 C26.7928571,13.7533496 28.2690476,10.4105177 28.4166667,6.77054515 C24.8738095,6.25054908 21.3309524,7.06768576 18.5261905,9.29624037 Z" id="Path" fill="#14B8A6"></path>
            <rect id="Rectangle" fill="#CBD5E1" x="0" y="21.5428908" width="31" height="4.45710921"></rect>
            <path d="M15.5,21.5428908 C14.9833333,21.5428908 14.5404762,21.5428908 14.0238095,21.5986047 L14.0238095,26 L16.9761905,26 L16.9761905,21.5986047 C16.4595238,21.5428908 16.0166667,21.5428908 15.5,21.5428908 Z" id="Path" fill="#94A3B8"></path>
        </g>
        <rect id="Rectangle" fill-opacity="0.402353994" fill="#F1F5F9" x="29" y="15" width="16" height="20"></rect>
    </g>
</svg>