<svg xmlns="http://www.w3.org/2000/svg" width="70" height="70"><linearGradient id="a" x1="50%" x2="50%" y1="0%" y2="100%"><stop offset="0" stop-color="#9c9ff9"/><stop offset="1" stop-color="#6366f1"/></linearGradient><path fill="none" stroke="url(#a)" stroke-linejoin="round" stroke-width="3.6" d="M57.65 12.29C54.847 9.525 51.118 8 47.15 8s-7.695 1.524-10.5 4.29a14.565 14.565 0 0 0-4.303 9.204 14.519 14.519 0 0 0 2.284 9.037L8.937 55.876a3.133 3.133 0 0 0 0 4.468c.605.597 1.409.926 2.265.926s1.66-.329 2.264-.926l2.76-2.722 3.5 3.453a3.21 3.21 0 0 0 2.266.925c.855 0 1.66-.329 2.265-.926a3.133 3.133 0 0 0 0-4.468l-1.854-1.828 2.06-2.031 1.853 1.828a3.201 3.201 0 0 0 2.264.926c.856 0 1.66-.33 2.265-.926.605-.597.938-1.39.938-2.234s-.333-1.638-.938-2.234l-3.5-3.453L39.16 34.999a14.895 14.895 0 0 0 7.991 2.298c3.967 0 7.695-1.523 10.5-4.29C60.454 30.24 62 26.562 62 22.65s-1.544-7.592-4.35-10.358z"/></svg>