<svg height="70" viewBox="0 0 70 70" width="70" xmlns="http://www.w3.org/2000/svg" xmlns:xlink="http://www.w3.org/1999/xlink"><linearGradient id="a" x1="50%" x2="50%" y1="0%" y2="100%"><stop offset="0" stop-color="#9c9ff9"/><stop offset="1" stop-color="#6366f1"/></linearGradient><path d="m57.6508072 12.2905658c-2.8048755-2.76675628-6.5340533-4.2905658-10.5005881-4.2905658s-7.6957126 1.52380952-10.500588 4.2905658c-2.4983428 2.464589-4.0265155 5.7329537-4.3028975 9.2030797-.2539292 3.1857829.5549022 6.3666087 2.28408 9.0369667l-25.69421572 25.3454623c-1.24879717 1.231978-1.24879717 3.2364077 0 4.4683858.60493959.5966355 1.40938732.9254864 2.26494172.9254864s1.6597883-.3287454 2.2649417-.9254864l2.7601839-2.7228814 3.5001604 3.4529346c.6049396.5966356 1.4093874.9254865 2.2649417.9254865.8555544 0 1.6597883-.3287455 2.2648348-.9255919 1.2487972-1.2319781 1.2486903-3.2364078 0-4.4682804l-1.8532021-1.8279808 2.0590185-2.0311132 1.8530952 1.8278753c.6049396.5968465 1.4093874.925592 2.2649417.925592.8555544 0 1.6597884-.32864 2.264621-.9254865.6049396-.5966356.9383086-1.3901809.9383086-2.2341402s-.3332621-1.6375046-.9382017-2.2342456l-3.5004811-3.4527237 11.8150326-11.6548015c2.3834064 1.5055635 5.1304394 2.2978432 7.9913397 2.2980541 3.9664279-.0001054 7.6949642-1.5235986 10.4994119-4.2900385 2.8047685-2.7668618 4.3495136-6.4454991 4.3495136-10.3582766s-1.5444243-7.5914149-4.3491928-10.3582767z" fill="none" stroke="url(#a)" stroke-linejoin="round" stroke-width="3.6"/></svg>