<?xml version="1.0" encoding="UTF-8"?>
<svg width="76px" height="76px" viewBox="0 0 76 76" version="1.1" xmlns="http://www.w3.org/2000/svg" xmlns:xlink="http://www.w3.org/1999/xlink">
    <title>difference-oauth2-2.1-dark</title>
    <defs>
        <linearGradient x1="-3.88578059e-14%" y1="100%" x2="100%" y2="2.77555756e-15%" id="linearGradient-1">
            <stop stop-color="#3B1730" offset="0%"></stop>
            <stop stop-color="#5E3448" offset="100%"></stop>
        </linearGradient>
        <filter x="-95.4%" y="-93.4%" width="290.7%" height="292.1%" filterUnits="objectBoundingBox" id="filter-2">
            <feOffset dx="0" dy="1" in="SourceAlpha" result="shadowOffsetOuter1"></feOffset>
            <feGaussianBlur stdDeviation="12" in="shadowOffsetOuter1" result="shadowBlurOuter1"></feGaussianBlur>
            <feColorMatrix values="0 0 0 0 0   0 0 0 0 0   0 0 0 0 0  0 0 0 0.5 0" type="matrix" in="shadowBlurOuter1" result="shadowMatrixOuter1"></feColorMatrix>
            <feMerge>
                <feMergeNode in="shadowMatrixOuter1"></feMergeNode>
                <feMergeNode in="SourceGraphic"></feMergeNode>
            </feMerge>
        </filter>
    </defs>
    <g id="difference-oauth2-2.1-dark" stroke="none" stroke-width="1" fill="none" fill-rule="evenodd">
        <rect id="Rectangle-Copy-7" fill="url(#linearGradient-1)" x="0" y="0" width="76" height="76" rx="12"></rect>
        <g id="Group-2" filter="url(#filter-2)" transform="translate(19, 19)">
            <rect id="Rectangle" fill="#FB9CA7" x="13.9989014" y="0" width="8" height="10" rx="4"></rect>
            <rect id="Rectangle" fill="#FB9CA7" x="13.9989014" y="21" width="8" height="17" rx="4"></rect>
            <g id="Group" transform="translate(0, 4)" fill="#F43F5E">
                <path d="M5.99890137,0 L32.7525546,0 C33.3706251,-1.13537706e-16 33.9539725,0.285763673 34.3328128,0.77411917 L37.5234146,4.88705959 C37.8032424,5.24777999 37.8032424,5.75222001 37.5234146,6.11294041 L34.3328128,10.2258808 C33.9539725,10.7142363 33.3706251,11 32.7525546,11 L5.99890137,11 C4.89433187,11 3.99890137,10.1045695 3.99890137,9 L3.99890137,2 C3.99890137,0.8954305 4.89433187,2.02906125e-16 5.99890137,0 Z" id="Rectangle"></path>
                <path d="M5.23120269,15 L32,15 C33.1045695,15 34,15.8954305 34,17 L34,24 C34,25.1045695 33.1045695,26 32,26 L5.23120269,26 C4.61172402,26 4.02721217,25.7129392 3.64849049,25.222711 L0.472297514,21.1113555 C0.19410565,20.7512559 0.19410565,20.2487441 0.472297514,19.8886445 L3.64849049,15.777289 C4.02721217,15.2870608 4.61172402,15 5.23120269,15 Z" id="Rectangle"></path>
            </g>
        </g>
    </g>
</svg>