<svg height="54" viewBox="0 0 54 54" width="54" xmlns="http://www.w3.org/2000/svg"><g fill="none" fill-rule="evenodd"><rect fill="#f1f5f9" height="54" rx="5" width="54"/><g fill-rule="nonzero" transform="translate(15 15)"><path d="m12.803125 9.36568421-6.17-6.23494737 1.91125-1.93136842c.43875-.44273684.128125-1.19936842-.490625-1.19936842h-6.66375c-.7675 0-1.39.62905263-1.39 1.40463158v6.73326316c0 .62589473.74875.93915789 1.186875.49642105l1.91125-1.93136842 6.17 6.23431583c.46875.4736842.7325 1.1166315.7325 1.7861052v1.6976842h5v-1.696421c-.000625-2.0103158-.790625-3.9378948-2.1975-5.35894739z" fill="#f58320"/><path d="m23.61 0h-6.66375c-.619375 0-.929375.75663158-.49125 1.19936842l1.91125 1.93136842-6.17 6.23494737c-1.40625 1.42105259-2.19625 3.34863159-2.19625 5.35894739v8.0122105c0 .6978947.559375 1.2631579 1.25 1.2631579h2.5c.690625 0 1.25-.5652632 1.25-1.2631579v-8.0122105c0-.6701053.263125-1.3124211.7325-1.7861053l6.17-6.23431577 1.91125 1.93136842c.4375.44210526 1.18625.12821052 1.18625-.49705263v-6.73389474c0-.77557895-.6225-1.40463158-1.39-1.40463158z" fill="#4338ca"/></g></g></svg>