<svg xmlns="http://www.w3.org/2000/svg" width="70" height="70"><linearGradient id="a" x1="0%" x2="100%" y1="7.133%" y2="92.867%"><stop offset="0" stop-color="#a4aebe"/><stop offset="1" stop-color="#2d53f5"/></linearGradient><path fill="url(#a)" d="M53.699 11.506a1.791 1.791 0 0 0-.225-2.261L44.671.467a1.804 1.804 0 0 0-2.482.057 1.791 1.791 0 0 0-.065 2.474l5.733 5.717h-7.074a15.586 15.586 0 0 0-13.78 8.31 15.586 15.586 0 0 0-13.78-8.31H6.147l5.733-5.717a1.791 1.791 0 0 0-.065-2.474A1.804 1.804 0 0 0 9.334.467L.53 9.245c-.338.335-.529.79-.531 1.265 0 .478.19.937.531 1.274l8.803 8.778c.337.334.794.52 1.269.52a1.8 1.8 0 0 0 1.663-1.104 1.79 1.79 0 0 0-.385-1.956l-5.733-5.717h7.074c6.615.005 11.975 5.35 11.98 11.946v23.954c0 .991.806 1.795 1.8 1.795s1.8-.804 1.8-1.795V24.251c.006-6.596 5.366-11.941 11.98-11.946h7.075l-5.733 5.717a1.792 1.792 0 0 0 0 2.54 1.805 1.805 0 0 0 2.547 0l8.803-8.778a1.63 1.63 0 0 0 .225-.278z" transform="translate(8 10)"/></svg>