<svg height="70" viewBox="0 0 70 70" width="70" xmlns="http://www.w3.org/2000/svg" xmlns:xlink="http://www.w3.org/1999/xlink"><linearGradient id="a" x1="0%" x2="100%" y1="7.133059%" y2="92.866941%"><stop offset="0" stop-color="#a4aebe"/><stop offset="1" stop-color="#2d53f5"/></linearGradient><path d="m53.6989724 11.5062397c.4741638-.7112725.3800529-1.65718647-.2250208-2.2616991l-8.802815-8.77754664c-.7100885-.64387907-1.8019073-.61901963-2.4817813.05650726-.6798739.67552689-.7086696 1.76411681-.0654546 2.47444178l5.7335309 5.71707281h-7.074655c-5.7844868.00475974-11.0902066 3.20462489-13.7802759 8.31084679-2.6900694-5.1062219-7.9957891-8.30608705-13.7802759-8.31084679h-7.07465504l5.73353084-5.71707281c.643215-.71032497.6144194-1.79891489-.0654546-2.47444178-.6798739-.67552689-1.7716927-.70038633-2.48178123-.05650726l-8.80281503 8.77754664c-.33806031.33508176-.52903948.7901795-.53104974 1.2654745 0 .4784074.19078277.9371724.53104974 1.2744495l8.80281503 8.7775467c.33751588.3337989.79374293.520928 1.26911753.5205498.7273845.0005751 1.3836404-.4353967 1.663264-1.1049595.2796235-.6695628.1276608-1.4411288-.3851457-1.9555144l-5.73353084-5.7170728h7.07465504c6.6143744.0049497 11.9751453 5.3503325 11.9801092 11.9457205v23.9542658c0 .9913507.8059621 1.7949993 1.8001667 1.7949993s1.8001666-.8036486 1.8001666-1.7949993v-23.9542658c.0049639-6.595388 5.3657348-11.9407708 11.9801093-11.9457205h7.074655l-5.7335309 5.7170728c-.7033997.7013807-.7033997 1.8385434 0 2.5399241.7033998.7013806 1.8438361.7013806 2.5472359 0l8.802815-8.7775467c.0851521-.084107.1606261-.1774261.2250208-.2782249z" fill="url(#a)" transform="translate(8 10)"/></svg>