<!DOCTYPE svg PUBLIC "-//W3C//DTD SVG 1.1//EN" "http://www.w3.org/Graphics/SVG/1.1/DTD/svg11.dtd">
<!-- Uploaded to: SVG Repo, www.svgrepo.com, Transformed by: SVG Repo Mixer Tools -->
<svg width="64px" height="64px" viewBox="0 0 64 64" xmlns="http://www.w3.org/2000/svg" xmlns:xlink="http://www.w3.org/1999/xlink" aria-hidden="true" role="img" class="iconify iconify--emojione-monotone" preserveAspectRatio="xMidYMid meet" fill="#000000">
<g id="SVGRepo_bgCarrier" stroke-width="0"/>
<g id="SVGRepo_tracerCarrier" stroke-linecap="round" stroke-linejoin="round"/>
<g id="SVGRepo_iconCarrier">
<path d="M32 2C15.432 2 2 15.432 2 32s13.432 30 30 30s30-13.432 30-30S48.568 2 32 2m10 40.326V48H22a15.421 15.421 0 0 1 1.949-6.098c1.083-1.922 3.221-4.467 6.416-7.643c2.571-2.564 4.148-4.303 4.731-5.217c.784-1.26 1.177-2.508 1.177-3.738c0-1.363-.342-2.41-1.025-3.143s-1.627-1.098-2.832-1.098c-1.191 0-2.14.385-2.843 1.152c-.704.768-1.11 2.045-1.218 3.826l-5.686-.609c.338-3.361 1.401-5.773 3.188-7.238C27.645 16.732 29.878 16 32.559 16c2.936 0 5.246.848 6.924 2.543S42 22.348 42 24.869c0 1.434-.24 2.801-.721 4.098c-.48 1.299-1.242 2.656-2.284 4.076c-.691.941-1.937 2.297-3.737 4.064c-1.799 1.77-2.94 2.943-3.42 3.523a10.48 10.48 0 0 0-1.168 1.695H42z" fill="#000000"/>
</g>
</svg>