<?xml version="1.0" encoding="UTF-8"?>
<svg width="76px" height="76px" viewBox="0 0 76 76" version="1.1" xmlns="http://www.w3.org/2000/svg" xmlns:xlink="http://www.w3.org/1999/xlink">
    <title>diligence-auth-vendors</title>
    <defs>
        <linearGradient x1="-3.88578059e-14%" y1="100%" x2="100%" y2="2.77555756e-15%" id="linearGradient-1">
            <stop stop-color="#E7E6F1" offset="0%"></stop>
            <stop stop-color="#F0F1FD" offset="100%"></stop>
        </linearGradient>
    </defs>
    <g id="diligence-auth-vendors" stroke="none" stroke-width="1" fill="none" fill-rule="evenodd">
        <rect id="Rectangle-Copy-6" fill="url(#linearGradient-1)" x="0" y="0" width="76" height="76" rx="12"></rect>
        <g id="Group" transform="translate(19, 20)">
            <path d="M15.989138,2 L15.9890544,1.98758301 C15.9793545,1.78930685 15.9578536,1.59077671 15.913765,1.46543884 C14.2944054,2.9549618 11.8602994,5.19541838 8.61144682,8.18680859 L6.21544992,6.09400454 C5.38395286,5.36754276 4.12137747,5.45314859 3.39540886,6.28521052 C2.66944025,7.11727245 2.75498797,8.38070555 3.58648503,9.10716733 L7.33125553,12.3788959 C8.09896115,13.0496244 9.24803986,13.034903 9.99833393,12.3447266 C12.6657411,9.891047 14.6662964,8.05078728 16,6.82394746 L15.989,6.833 L15.9898963,4.6102384 C15.990113,4.75705588 15.9903916,4.89702831 15.9907497,5.0343543 L15.9920807,5.44259157 C15.9936858,5.85128672 15.9961664,6.2739513 16,6.82394746 L15.989,6.833 L15.989138,14 C15.989138,15.1045695 15.0937075,16 13.989138,16 L2,16 C0.8954305,16 1.3527075e-16,15.1045695 0,14 L0,2 C-1.3527075e-16,0.8954305 0.8954305,2.02906125e-16 2,0 L13.989138,0 C15.0893562,-2.02106798e-16 15.9820799,0.888389489 15.9890964,1.98695578 C16.0029888,2.27241626 15.9925698,2.55672537 15.9897756,2.62277425 L15.989138,2 Z" id="Combined-Shape" fill="#4338CA"></path>
            <rect id="Rectangle" fill="#6366F1" x="20" y="0" width="18" height="8" rx="2"></rect>
            <rect id="Rectangle" fill="#6366F1" x="20" y="12" width="14" height="4" rx="2"></rect>
            <path d="M15.989138,22 L15.9890544,21.987583 C15.9793545,21.7893069 15.9578536,21.5907767 15.913765,21.4654388 C14.2944054,22.9549618 11.8602994,25.1954184 8.61144682,28.1868086 L6.21544992,26.0940045 C5.38395286,25.3675428 4.12137747,25.4531486 3.39540886,26.2852105 C2.66944025,27.1172724 2.75498797,28.3807056 3.58648503,29.1071673 L7.33125553,32.3788959 C8.09896115,33.0496244 9.24803986,33.034903 9.99833393,32.3447266 C12.6657411,29.891047 14.6662964,28.0507873 16,26.8239475 L15.989,26.833 L15.9898963,24.6102384 C15.990113,24.7570559 15.9903916,24.8970283 15.9907497,25.0343543 L15.9920807,25.4425916 C15.9936858,25.8512867 15.9961664,26.2739513 16,26.8239475 L15.989,26.833 L15.989138,34 C15.989138,35.1045695 15.0937075,36 13.989138,36 L2,36 C0.8954305,36 1.3527075e-16,35.1045695 0,34 L0,22 C-1.3527075e-16,20.8954305 0.8954305,20 2,20 L13.989138,20 C15.0893562,20 15.9820799,20.8883895 15.9890964,21.9869558 C16.0029888,22.2724163 15.9925698,22.5567254 15.9897756,22.6227743 L15.989138,22 Z" id="Combined-Shape" fill="#4338CA"></path>
            <rect id="Rectangle" fill="#6366F1" x="20" y="20" width="18" height="8" rx="2"></rect>
            <rect id="Rectangle" fill="#6366F1" x="20" y="32" width="14" height="4" rx="2"></rect>
        </g>
    </g>
</svg>