<svg xmlns="http://www.w3.org/2000/svg" width="70" height="70"><linearGradient id="a" x1="0%" x2="100%" y1="0%" y2="100%"><stop offset="0" stop-color="#a4aebe"/><stop offset="1" stop-color="#2d53f5"/></linearGradient><path fill="url(#a)" fill-rule="evenodd" d="M13.697.703a2.4 2.4 0 0 1 0 3.394L10.594 7.2l3.103 3.103a2.4 2.4 0 0 1-3.394 3.394L7.2 10.594l-3.103 3.103a2.4 2.4 0 1 1-3.394-3.394L3.806 7.2.703 4.097A2.4 2.4 0 0 1 4.097.703L7.2 3.806 10.303.703a2.4 2.4 0 0 1 3.394 0zM19.2 7.2a2.4 2.4 0 0 1 2.4-2.4h24a2.4 2.4 0 1 1 0 4.8h-24a2.4 2.4 0 0 1-2.4-2.4zm-12 14.4a2.4 2.4 0 1 0 0 4.8 2.4 2.4 0 0 0 0-4.8zM0 24a7.2 7.2 0 1 1 14.4 0A7.2 7.2 0 0 1 0 24zm19.2 0a2.4 2.4 0 0 1 2.4-2.4h24a2.4 2.4 0 1 1 0 4.8h-24a2.4 2.4 0 0 1-2.4-2.4zm-12 14.4a2.4 2.4 0 1 0 0 4.8 2.4 2.4 0 0 0 0-4.8zM0 40.8a7.2 7.2 0 1 1 14.4 0 7.2 7.2 0 0 1-14.4 0zm19.2 0a2.4 2.4 0 0 1 2.4-2.4h24a2.4 2.4 0 1 1 0 4.8h-24a2.4 2.4 0 0 1-2.4-2.4z" transform="translate(12 12)"/></svg>