<svg height="54" viewBox="0 0 54 54" width="54" xmlns="http://www.w3.org/2000/svg"><g fill="none" fill-rule="evenodd"><rect fill="#f1f5f9" height="54" rx="5" width="54"/><g fill-rule="nonzero" transform="translate(12 13)"><path d="m0 2.744786h15.376046v4.524533h-15.376046z" fill="#4338ca"/><path d="m0 21.47628h15.376046v4.524533h-15.376046z" fill="#c2410c"/><g fill="#4338ca"><path d="m23.2249092 8.13737275-3.4259394-3.45674328 2.3873672-2.39800253 1.0576801 1.06778981 3.3697397-3.35041675 2.3693833 2.41496953z"/><path d="m0 12.323734h15.376046v4.524533h-15.376046z"/><path d="m23.2249092 17.7163201-3.4259394-3.4567433 2.3873672-2.3980025 1.0576801 1.0677898 3.3697397-3.35041673 2.3693833 2.41496953z"/></g><path d="m29 25.5986041-1.6623899-1.6853886 1.64553-1.6356187-2.3693833-2.4149695-1.647778 1.64693-1.6084381-1.629963-2.443567 2.308643 1.6691339 1.7012244-1.652274 1.6514546 2.2940756 2.4590837 1.7174657-1.7068801 1.6578939 1.6899131z" fill="#c2410c"/></g></g></svg>