<svg height="70" viewBox="0 0 70 70" width="70" xmlns="http://www.w3.org/2000/svg" xmlns:xlink="http://www.w3.org/1999/xlink"><linearGradient id="a" x1="0%" x2="100%" y1="0%" y2="100%"><stop offset="0" stop-color="#a4aebe"/><stop offset="1" stop-color="#2d53f5"/></linearGradient><path d="m13.697064.702936c.937248.937272.937248 2.456856 0 3.394128l-3.10296 3.102936 3.10296 3.102936c.937248.937272.937248 2.456856 0 3.394128-.937272.937248-2.456856.937248-3.394128 0l-3.102936-3.10296-3.102936 3.102936c-.937272.937272-2.456856.937272-3.394128 0-.937248-.937248-.937248-2.456856 0-3.394104l3.102936-3.102936-3.102936-3.102936c-.937248-.937248-.937248-2.456856 0-3.394104.937272-.937272 2.456856-.937272 3.394128 0l3.102936 3.102936 3.102936-3.10296c.937272-.937248 2.456856-.937248 3.394128 0zm5.502936 6.497064c0-1.325472 1.07448-2.4 2.4-2.4h24c1.32552 0 2.4 1.074528 2.4 2.4 0 1.325496-1.07448 2.4-2.4 2.4h-24c-1.32552 0-2.4-1.074528-2.4-2.4zm-12 14.4c-1.325472 0-2.4 1.07448-2.4 2.4s1.074528 2.4 2.4 2.4 2.4-1.07448 2.4-2.4-1.074528-2.4-2.4-2.4zm-7.2 2.4c0-3.97656 3.22356-7.2 7.2-7.2s7.2 3.22344 7.2 7.2-3.22356 7.2-7.2 7.2-7.2-3.22344-7.2-7.2zm19.2 0c0-1.32552 1.07448-2.4 2.4-2.4h24c1.32552 0 2.4 1.07448 2.4 2.4s-1.07448 2.4-2.4 2.4h-24c-1.32552 0-2.4-1.07448-2.4-2.4zm-12 14.4c-1.325472 0-2.4 1.07448-2.4 2.4s1.074528 2.4 2.4 2.4 2.4-1.07448 2.4-2.4-1.074528-2.4-2.4-2.4zm-7.2 2.4c0-3.97656 3.22356-7.2 7.2-7.2s7.2 3.22344 7.2 7.2-3.22356 7.2-7.2 7.2-7.2-3.22344-7.2-7.2zm19.2 0c0-1.32552 1.07448-2.4 2.4-2.4h24c1.32552 0 2.4 1.07448 2.4 2.4s-1.07448 2.4-2.4 2.4h-24c-1.32552 0-2.4-1.07448-2.4-2.4z" fill="url(#a)" fill-rule="evenodd" transform="translate(12 12)"/></svg>