<?xml version="1.0" encoding="UTF-8"?>
<svg width="75px" height="75px" viewBox="0 0 75 75" version="1.1" xmlns="http://www.w3.org/2000/svg" xmlns:xlink="http://www.w3.org/1999/xlink">
    <title>dl-backend-api</title>
    <defs>
        <linearGradient x1="-3.88578059e-14%" y1="100%" x2="100%" y2="2.77555756e-15%" id="linearGradient-1">
            <stop stop-color="#DDE7EC" offset="0%"></stop>
            <stop stop-color="#E7F6FD" offset="100%"></stop>
        </linearGradient>
    </defs>
    <g id="dl-backend-api" stroke="none" stroke-width="1" fill="none" fill-rule="evenodd">
        <rect id="Rectangle" fill="url(#linearGradient-1)" x="-1" y="0" width="76" height="76" rx="12"></rect>
        <g id="Group" transform="translate(19, 18)">
            <path d="M34,0 C36.209139,-4.05812251e-16 38,1.790861 38,4 L38,10 C38,11.1045695 37.1045695,12 36,12 L2,12 C0.8954305,12 1.3527075e-16,11.1045695 0,10 L0,4 C-2.705415e-16,1.790861 1.790861,4.05812251e-16 4,0 L34,0 Z M6,4 C4.8954305,4 4,4.8954305 4,6 C4,7.1045695 4.8954305,8 6,8 C7.1045695,8 8,7.1045695 8,6 C8,4.8954305 7.1045695,4 6,4 Z M12,4 C10.8954305,4 10,4.8954305 10,6 C10,7.1045695 10.8954305,8 12,8 C13.1045695,8 14,7.1045695 14,6 C14,4.8954305 13.1045695,4 12,4 Z" id="Combined-Shape" fill="#0369A1"></path>
            <path d="M36,16 C37.1045695,16 38,16.8954305 38,18 L38,34 C38,36.209139 36.209139,38 34,38 L4,38 C1.790861,38 2.705415e-16,36.209139 0,34 L0,18 C-1.3527075e-16,16.8954305 0.8954305,16 2,16 L36,16 Z M15.4058372,21.5774594 C14.6201897,20.8010369 13.3538818,20.8085153 12.5774594,21.5941628 L8.57745936,25.6416889 C7.80099818,26.4273756 7.80852173,27.6937602 8.59426325,28.4701659 L12.5942632,32.4226399 C13.3799655,33.1990068 14.6462729,33.1914391 15.4226399,32.4057368 C16.1990068,31.6200345 16.1914391,30.3537271 15.4057368,29.5773601 L12.829,27.03 L15.4225406,24.4058372 C16.1989631,23.6201897 16.1914847,22.3538818 15.4058372,21.5774594 Z M22.5941628,21.5774594 C21.8085153,22.3538818 21.8010369,23.6201897 22.5774594,24.4058372 L25.171,27.03 L22.5942632,29.5773601 C21.8085609,30.3537271 21.8009932,31.6200345 22.5773601,32.4057368 C23.3537271,33.1914391 24.6200345,33.1990068 25.4057368,32.4226399 L29.4057368,28.4701659 C30.1914783,27.6937602 30.1990018,26.4273756 29.4225406,25.6416889 L25.4225406,21.5941628 C24.6461182,20.8085153 23.3798103,20.8010369 22.5941628,21.5774594 Z" id="Combined-Shape" fill="#0EA5E9" fill-rule="nonzero"></path>
        </g>
    </g>
</svg>