<svg xmlns="http://www.w3.org/2000/svg" width="54" height="54"><g fill="none" fill-rule="evenodd"><rect width="54" height="54" fill="#F1F5F9" rx="5"/><g transform="translate(6 6)"><rect width="42" height="42" fill="#CBD5E1" rx="4"/><path fill="#475569" fill-rule="nonzero" d="M4 9.208h33.333v28.125H4z"/><path fill="#FFEB3B" fill-rule="nonzero" d="m11.813 23.167 3.645 2.187v2.604l-6.25-3.854v-2.187l6.25-3.334v2.605l-3.646 1.979Zm7.812 6.875h-2.083l4.166-14.584h2.084l-4.167 14.584Zm9.896-6.771-3.646-2.084v-2.604l6.25 3.542v2.188l-6.25 3.645v-2.604l3.646-2.083Z"/></g><path fill="#90A4AE" fill-rule="nonzero" d="M11.897 9.042a2.083 2.083 0 1 0 0 4.166 2.083 2.083 0 0 0 0-4.166Z"/><path fill="#475569" fill-rule="nonzero" d="M18.147 9.042a2.083 2.083 0 1 0 0 4.166 2.083 2.083 0 0 0 0-4.166Z"/></g></svg>