<?xml version="1.0" encoding="UTF-8"?>
<svg width="76px" height="76px" viewBox="0 0 76 76" version="1.1" xmlns="http://www.w3.org/2000/svg" xmlns:xlink="http://www.w3.org/1999/xlink">
    <title>dl-single-page-app</title>
    <defs>
        <linearGradient x1="-3.88578059e-14%" y1="100%" x2="100%" y2="2.77555756e-15%" id="linearGradient-1">
            <stop stop-color="#F2E4E8" offset="0%"></stop>
            <stop stop-color="#FFF4F6" offset="100%"></stop>
        </linearGradient>
    </defs>
    <g id="dl-single-page-app" stroke="none" stroke-width="1" fill="none" fill-rule="evenodd">
        <rect id="Rectangle-Copy-10" fill="url(#linearGradient-1)" x="0" y="0" width="76" height="76" rx="12"></rect>
        <g id="Group" transform="translate(19, 20)">
            <path d="M34,0 C36.209139,-4.05812251e-16 38,1.790861 38,4 L38,10 C38,11.1045695 37.1045695,12 36,12 L2,12 C0.8954305,12 1.3527075e-16,11.1045695 0,10 L0,4 C-2.705415e-16,1.790861 1.790861,4.05812251e-16 4,0 L34,0 Z M6,4 C4.8954305,4 4,4.8954305 4,6 C4,7.1045695 4.8954305,8 6,8 C7.1045695,8 8,7.1045695 8,6 C8,4.8954305 7.1045695,4 6,4 Z M12,4 C10.8954305,4 10,4.8954305 10,6 C10,7.1045695 10.8954305,8 12,8 C13.1045695,8 14,7.1045695 14,6 C14,4.8954305 13.1045695,4 12,4 Z" id="Combined-Shape" fill="#BE123C"></path>
            <path d="M2,16 L7,16 C8.1045695,16 9,16.8954305 9,18 L9,34 C9,35.1045695 8.1045695,36 7,36 L4,36 C1.790861,36 2.705415e-16,34.209139 0,32 L0,18 C-1.3527075e-16,16.8954305 0.8954305,16 2,16 Z" id="Rectangle" fill="#F43F5E"></path>
            <path d="M36,16 C37.1045695,16 38,16.8954305 38,18 L38,32 C38,34.209139 36.209139,36 34,36 L15,36 C13.8954305,36 13,35.1045695 13,34 L13,18 C13,16.8954305 13.8954305,16 15,16 L36,16 Z M33,28 L18,28 C17.4477153,28 17,28.4477153 17,29 L17,31 C17,31.5522847 17.4477153,32 18,32 L33,32 C33.5522847,32 34,31.5522847 34,31 L34,29 C34,28.4477153 33.5522847,28 33,28 Z M33,20 L18,20 C17.4477153,20 17,20.4477153 17,21 L17,23 C17,23.5522847 17.4477153,24 18,24 L33,24 C33.5522847,24 34,23.5522847 34,23 L34,21 C34,20.4477153 33.5522847,20 33,20 Z" id="Combined-Shape" fill="#F43F5E"></path>
        </g>
    </g>
</svg>