<svg xmlns="http://www.w3.org/2000/svg" width="54" height="54"><g fill="none" fill-rule="evenodd"><rect width="54" height="54" fill="#F1F5F9" rx="5"/><g fill-rule="nonzero"><path fill="#475569" d="M45.5 21.542H8V11.125A3.125 3.125 0 0 1 11.125 8h31.25a3.125 3.125 0 0 1 3.125 3.125v10.417Z"/><path fill="#CBD5E1" d="M8 18.417h37.5v23.958a3.125 3.125 0 0 1-3.125 3.125h-31.25A3.125 3.125 0 0 1 8 42.375V18.417Z"/><path fill="#8BC34A" d="M13.208 11.125a2.083 2.083 0 1 0 0 4.167 2.083 2.083 0 0 0 0-4.167Z"/><path fill="#FFF" d="M19.458 11.125a2.083 2.083 0 1 0 0 4.167 2.083 2.083 0 0 0 0-4.167Zm22.917 3.125a1.04 1.04 0 0 1-1.042 1.042H25.708a1.04 1.04 0 0 1-1.041-1.042v-2.083a1.04 1.04 0 0 1 1.041-1.042h15.625a1.04 1.04 0 0 1 1.042 1.042v2.083Z"/><path fill="#4338CA" d="M11.125 22.583H26.75v18.75H11.125v-18.75Zm18.75 4.167h12.5v2.083h-12.5V26.75Zm0 4.167h12.5V33h-12.5v-2.083Zm0 4.166h12.5v2.084h-12.5v-2.084Zm0 4.167h12.5v2.083h-12.5V39.25Zm0-16.667h12.5v2.084h-12.5v-2.084Z"/></g></g></svg>