<svg height="36" viewBox="0 0 36 36" width="36" xmlns="http://www.w3.org/2000/svg" xmlns:xlink="http://www.w3.org/1999/xlink"><linearGradient id="a" x1="49.996128%" x2="49.996128%" y1="-19.516006%" y2="129.625184%"><stop offset="0" stop-color="#0994dc"/><stop offset=".35001" stop-color="#66cef5"/><stop offset=".84616" stop-color="#127bca"/><stop offset="1" stop-color="#127bca"/></linearGradient><linearGradient id="b" x1="50.001476%" x2="50.001476%" y1="-19.516021%" y2="129.623469%"><stop offset="0" stop-color="#0e76bc"/><stop offset=".36" stop-color="#36aee8"/><stop offset=".84616" stop-color="#00adef"/><stop offset="1" stop-color="#00adef"/></linearGradient><linearGradient id="c" x1="49.999223%" x2="49.999223%" y1="110.921831%" y2="-6.214016%"><stop offset="0" stop-color="#1c63b7"/><stop offset=".5" stop-color="#33bdf2"/><stop offset="1" stop-color="#33bdf2" stop-opacity=".42"/></linearGradient><linearGradient id="d" x1="50%" x2="50%" y1="-19.514947%" y2="129.62656%"><stop offset="0" stop-color="#166ab8"/><stop offset=".39999" stop-color="#36aee8"/><stop offset=".84616" stop-color="#0798dd"/><stop offset="1" stop-color="#0798dd"/></linearGradient><linearGradient id="e" x1="49.999395%" x2="49.999395%" y1="-19.521034%" y2="129.627374%"><stop offset="0" stop-color="#124379"/><stop offset=".39" stop-color="#1487cb"/><stop offset=".78023" stop-color="#165197"/><stop offset="1" stop-color="#165197"/></linearGradient><linearGradient id="f" x1="0%" x2="100%" y1="50.000914%" y2="50.000914%"><stop offset="0" stop-color="#33bdf2" stop-opacity=".698"/><stop offset="1" stop-color="#1dacd8"/></linearGradient><linearGradient id="g" x1="50.010264%" x2="50.010264%" y1="94.686112%" y2="-3.02501%"><stop offset="0" stop-color="#136ab4"/><stop offset=".6" stop-color="#59caf5" stop-opacity=".549"/><stop offset="1" stop-color="#59caf5" stop-opacity=".235"/></linearGradient><linearGradient id="h" x1="-.001%" x2="99.999019%" y1="49.999822%" y2="49.999822%"><stop offset="0" stop-color="#05a1e6" stop-opacity=".247"/><stop offset="1" stop-color="#05a1e6"/></linearGradient><linearGradient id="i" x1="49.997912%" x2="49.997912%" y1="124.314138%" y2="-9.421035%"><stop offset="0" stop-color="#318ed5"/><stop offset="1" stop-color="#38a7e4"/></linearGradient><linearGradient id="j" x1="49.998916%" x2="49.998916%" y1="91.201008%" y2="-76.7854%"><stop offset="0" stop-color="#05a1e6"/><stop offset="1" stop-color="#05a1e6" stop-opacity=".549"/></linearGradient><linearGradient id="k" x1="50.000202%" x2="50.000202%" y1="100.010453%" y2=".010017%"><stop offset="0" stop-color="#1959a6"/><stop offset=".5" stop-color="#05a1e6"/><stop offset=".91759" stop-color="#7ec5ea"/><stop offset="1" stop-color="#7ec5ea"/></linearGradient><linearGradient id="l" x1="55.282912%" x2="34.901382%" y1="94.567509%" y2="9.715911%"><stop offset="0" stop-color="#165096"/><stop offset="1" stop-color="#0d82ca"/></linearGradient><linearGradient id="m" x1="49.994611%" x2="49.994611%" y1="76.997976%" y2="-3.299017%"><stop offset="0" stop-color="#05a1e6"/><stop offset=".87363" stop-color="#0495d6"/><stop offset="1" stop-color="#0495d6"/></linearGradient><linearGradient id="n" x1="55.975538%" x2="28.156994%" y1="-4.160996%" y2="94.555584%"><stop offset="0" stop-color="#38a7e4" stop-opacity=".329"/><stop offset=".96153" stop-color="#0e88d3"/><stop offset="1" stop-color="#0e88d3"/></linearGradient><linearGradient id="o" x1="50.017087%" x2="50.017087%" y1="-.296002%" y2="101.882053%"><stop offset="0" stop-color="#168cd4"/><stop offset=".5" stop-color="#1c87cc"/><stop offset="1" stop-color="#154b8d"/></linearGradient><linearGradient id="p" x1="16.674465%" x2="18.012809%" y1="45.567575%" y2="52.6175%"><stop offset="0" stop-color="#97d6ee"/><stop offset=".70329" stop-color="#55c1ea"/><stop offset="1" stop-color="#55c1ea"/></linearGradient><linearGradient id="q" x1="6.889927%" x2="14.308206%" y1="53.492859%" y2="41.598843%"><stop offset="0" stop-color="#7accec"/><stop offset="1" stop-color="#3fb7ed"/></linearGradient><linearGradient id="r" x1="49.996607%" x2="49.996607%" y1="6.363044%" y2="127.96132%"><stop offset="0" stop-color="#1da7e7"/><stop offset="1" stop-color="#37abe7" stop-opacity="0"/></linearGradient><mask id="s" fill="#fff"><path d="m0 0h36v36h-36z" fill="#fff" fill-rule="evenodd"/></mask><g fill="none" mask="url(#s)"><g transform="translate(0 11)"><path d="m12.5035 3.08402903c1.2973 3.9675 1.7888 11.04518997 5.5828 11.04518997.2888 0 .5807-.0283.8736-.0841-3.4489-.8041-3.8577-7.80474997-5.9621-11.43008997-.1678.1531-.3327.30946-.4944.469" fill="url(#a)"/><path d="m12.9978 2.61499903c2.1045 3.62534 2.5132 10.62601997 5.962 11.43011997.271-.0497.5425-.125.8146-.22-3.0956-1.5166-3.9512-8.31482997-6.3413-11.58752997-.1475.12303-.2926.2489-.4353.37755" fill="url(#b)"/><path d="m16.0299.45890142c-.2882 0-.5807.02832761-.8741.08410761-.7677.14468-1.5476.47523-2.3337.97538.2147.21192.419.45442.6113.71915.7995-.66352 1.5938-1.15376 2.3853-1.44849.2889-.10808.5866-.19083.8898-.24732-.2219-.05581-.4498-.08363-.6786-.08282761z" fill="#14559a"/><path d="m22.1909 12.426919c.3298-.2635.6474-.5419.9519-.8343-1.3182-3.94907997-1.7901-11.12797997-5.6106-11.12797997-.2733 0-.5489.02548-.8239.07644 3.48.86553 3.9258 8.437 5.4828 11.88583997" fill="url(#c)"/><path d="m16.7084.54134903c-.2219-.05574-.4498-.08351-.6786-.08268l1.5025.00552c-.2732 0-.5489.02549-.8239.07702" fill="#3092c4"/><path d="m22.1243 13.266019c-.1494-.1424-.2912-.2987-.4308-.4654-.6427.4549-1.2829.8001-1.9192 1.0246.2271.1116.4676.1935.7156.2438.2006.0406.4049.0608.6096.0603091.7139 0 1.2783-.0845091 1.7589-.3150091-.2647-.143-.5072-.3284-.7341-.5483z" fill="#1969bc"/><path d="m15.8185.78935903c3.117 1.63026 3.3879 9.01316 5.8751 12.01095997.1692-.1196.3349-.2441.4969-.3735-1.557-3.44876997-2.0022-11.02080997-5.4816-11.88576997-.3034.05711-.6013.14018-.8904.24831z" fill="url(#d)"/><path d="m13.4331 2.23740903c2.3899 3.2727 3.2457 10.07080997 6.3413 11.58750997.6363-.2245 1.2766-.5696 1.9192-1.0246-2.4872-2.99779997-2.7581-10.38070997-5.8751-12.01097997-.7914.29418-1.5858.78442-2.3854 1.44793" fill="url(#e)"/><path d="m10.9743 2.98848903c-.3746.84698-.7573 1.96025-1.21991 3.41342.92001-1.29617 1.83711-2.41312 2.74901-3.31772-.1255-.38619-.2604-.74223-.4058-1.05962-.3915.30088-.7665.6227-1.1232.96406" fill="url(#f)"/><path d="m12.4298 1.78006903c-.1119.07965-.2226.16111-.3318.24434.1453.31724.2796.67328.4053 1.05947.162-.15924.3268-.3156.4943-.46901-.1765-.30337-.3641-.58353-.5678-.8348z" fill="#2b74b1"/><path d="m12.822 1.51823903c-.1327.08434-.2635.17156-.3924.26162.2038.25127.3913.53143.5685.83537.1423-.12913.2875-.25515.4353-.37798-.1921-.26458-.3964-.50722-.6113-.71915" fill="#125a9e"/><path d="m34.0831.15662203c-1.7629 6.798667-5.445 12.25929697-8.5321 13.63599697h-.0057c-.0562.0255-.1118.0487-.1667.0712-.0077.0047-.0146.0052-.0204.0079-.0162.0065-.0312.0116-.0474.0181-.0077.0046-.0145.0061-.0214.0088-.0261.0094-.0516.0171-.077.0273-.0111.0047-.0214.0075-.0319.0112-.0125.0048-.0253.009-.0382.0125-.0116.0045-.0238.0079-.0371.013-.011.0045-.0227.0065-.033.011-.0226.0065-.0433.0121-.066.0199-.0093 0-.0179.0051-.0277.0076-.014.0045-.0297.0078-.0447.012-.0104.0046-.019.0061-.03.0084-.0156.0045-.033.0088-.0487.0124l-.0591.0131c.1414.0521.291.0784.4417.0775224 2.9273 0 5.8786-5.24581237 10.7622-13.96947637h-1.9175z" fill="url(#g)"/><path d="m9.11877.73458903c.00184 0 .00425-.00453.00524-.00453.00241 0 .00595 0 .00708-.00453h.00368c.01614-.00566.03114-.01203.04742-.01812.00425 0 .00637 0 .00935-.00453.0041 0 .00807-.00467.01217-.00524.01727-.00552.03468-.01203.05096-.01798h.00269c.03879-.01161.07475-.02605.11227-.0395.00537 0 .01047-.00453.01684-.00453.01557-.00509.03185-.01061.04813-.01429.00751-.00468.01501-.00468.02195-.00708.0167-.00496.03298-.01062.04855-.0143.00708 0 .01331-.00467.01855-.0051.05379-.01486.10716-.02873.16096-.04162.0075 0 .01387-.00467.02194-.00509.01557-.00453.03015-.00708.047-.00935.00694-.00453.01501-.00453.02307-.00693.01558-.00453.03072-.0051.04757-.00878h.0109c.03256-.00665.06555-.01203.09796-.01812h.01968c.01557-.00453.02945-.0051.04516-.00793.00851 0 .01731-.00453.02551-.00453.0144 0 .0289-.00467.0433-.00651.0076 0 .015 0 .0238-.00467.0341-.00453.0693-.00637.1053-.0092-.1035-.01041-.20743-.01584-.31144-.01628-3.29649 0-7.83846 6.1166-9.88436 14.03776997h.394259c.654741-1.1677 1.242941-2.2723 1.780891-3.3093 1.43278-5.61060997 4.35128-9.43682997 6.94376-10.45057997" fill="url(#h)"/><path d="m10.9744 2.98840903c.3567-.34136.7315-.66318 1.123-.96405-.0796-.1771-.1689-.34969-.2674-.517-.3015.36595-.5772.84882-.8556 1.48105z" fill="#0d82ca"/><path d="m11.2453.78117903c.2151.18064.4081.42894.5846.72665.0557-.06837.1119-.13151.1702-.19054-.2449-.22863-.5094-.41621-.7966-.55749.0116.00637.0232.01161.0352.01671 0 0 .0046.00453.0066.00453" fill="#0d82ca"/><path d="m2.17493 11.185119c3.00599-5.79236997 4.43013-9.45833997 6.94391-10.45070997-2.59192 1.01446-5.51099 4.84068-6.94377 10.45070997" fill="url(#i)"/><path d="m11.9999 1.31692903c-.0584.0596-.1139.12217-.1701.19055.0986.16732.188.33985.268.51685.1092-.08318.2199-.16459.3318-.2442-.1322-.16425-.2758-.31902-.4297-.4632z" fill="#127bca"/><path d="m3.53947 14.468119c-.01855.0047-.03709.0047-.05451.0065h-.01033c-.01571 0-.03199.0047-.04643.0047h-.00751c-.03765.0045-.07474.0045-.11056.0073h-.01161c3.04238-.085 4.43297-1.6083 5.12324-3.8175.5245-1.67489997.95514-3.08587997 1.3327-4.26978997-1.27437 1.79363-2.5544 3.93168997-3.84137 6.32678997-.62062 1.1544-1.5643 1.6365-2.37376 1.7399" fill="url(#j)"/><path d="m3.53957 14.466919c.80933-.1031 1.753-.5847 2.37362-1.7398 1.28697-2.3945 2.56771-4.53307997 3.84066-6.32670997.46325-1.45387.84545-2.56657 1.22055-3.41356-2.53753 2.41539-5.08499 6.43157-7.43497 11.47896997" fill="url(#k)"/><path d="m2.17493 11.185319c-.53795 1.0368-1.12615 2.1415-1.780887 3.3092h1.146817c.14483-1.1146.35657-2.2194.63407-3.3086" fill="#05a1e6"/><path d="m10.0904.48428903c-.0094 0-.0163.00453-.0244.00453-.0139.00467-.0283.00467-.0429.00609-.0085 0-.0167 0-.02545.00467-.01558.00453-.03002.00495-.04516.00793-.00694 0-.01388 0-.01968.00453-.03298.00552-.0654.0116-.09768.01712h-.01104c-.01685.00468-.032.00708-.04757.00935-.00807.00453-.01614.00453-.02378.00637-.01557.00467-.03115.00651-.04629.00934-.00807.00453-.01444.00453-.02195.00496-.05379.01302-.10716.02689-.16096.04176-.00566 0-.0116.00453-.01854.00552-.01614.00453-.03185.0092-.0487.0143-.00694.00467-.015.00467-.02194.00651-.01613.00446-.03218.00923-.04813.0143-.00623 0-.01147.00453-.01727.00453-.03709.01387-.07362.02789-.11184.03935-.01614.0051-.03355.01161-.05096.0177-.00694.00453-.01317.00566-.02124.00878-.01628.00509-.03256.0116-.04757.01755-.00566.00467-.0116.0051-.01557.0075-2.51377.99237-3.93805 4.6582-6.94391 10.45063997-.27774 1.0891-.48944 2.1941-.63392 3.3088h.16095c.4533 0 .58127-.0047 1.1028-.0047h.50553c.03581-.0045.0729-.0045.11042-.0075h.00707c.01558 0 .03115-.0045.0463-.0045h.01104c.0167 0 .03581-.0046.05436-.0065 2.34998-5.04739997 4.8973-9.06359997 7.43498-11.47897997.2789-.63209.554-1.11497.8551-1.48035-.1761-.29757-.3689-.54644-.5843-.72708 0 0-.0058 0-.0062-.00467-.0123-.00495-.0238-.01104-.036-.01699-.0121-.00665-.0226-.01175-.0353-.01812-.0119-.00498-.0235-.01056-.0347-.0167-.015-.00467-.0272-.01119-.0405-.01713-.0111-.00467-.0208-.00934-.0319-.01387-.0224-.00871-.0446-.01801-.0665-.02789-.0099-.00453-.0191-.00708-.0283-.01062-.0169-.00613-.0335-.01274-.05-.01982-.0081-.00467-.0173-.00566-.0266-.00892-.0236-.00793-.0469-.01628-.0688-.02364h-.0058c-.0266-.00878-.0527-.01529-.0799-.02265-.0063-.00467-.0116-.00467-.0179-.00566-.0238-.00637-.0446-.01274-.0671-.01883-.0057 0-.0111-.00467-.0156-.00467-.0554-.01419-.1112-.02637-.1675-.03653-.0056 0-.0114-.00467-.0172-.00467-.024-.00476-.0481-.00863-.0724-.01161-.0059-.00453-.0093-.00453-.0144-.00453-.0285-.00436-.0571-.00809-.0858-.01118h-.015c-.0232-.00453-.0446-.00495-.066-.00736-.0365.00453-.0712.00651-.1055.00977" fill="url(#l)"/><path d="m27.1971 3.92035903c-.5783 1.85266-1.0467 3.381-1.4543 4.63852 1.5869-2.18378 3.1501-4.93099 4.6387-8.1012-1.7363.54531-2.6627 1.79363-3.1844 3.46268z" fill="url(#m)"/><path d="m25.7931 13.676719c-.081.0413-.1621.0805-.2421.1158 3.0871-1.3767 6.7692-6.83732997 8.5321-13.63598897h-.3573c-4.0501 7.235109-5.3528 12.07858897-7.9327 13.52018897z" fill="url(#n)"/><path d="m23.7774 13.069019c.6715-.8198 1.2187-2.2134 1.9656-4.51014997-.8616 1.18345-1.7288 2.20064997-2.5967 3.03034997 0 .0045 0 .0045-.0046.0074.1893.5674.3971 1.0681.634 1.4722" fill="#079ae1"/><path d="m23.7774 13.069019c-.2286.2789-.4707.4915-.7399.6489-.0591.0343-.1187.0666-.1794.0963.2921.1582.6118.2589.9418.2968.051.0051.1014.0098.1541.0135h.0093c.0236 0 .0485 0 .074.0045h.2513c.0092 0 .0188 0 .0282-.0045.018 0 .0369 0 .0555-.0047h.0274c.019 0 .0398-.0045.0602-.0065h.0045c.0061 0 .0126-.0045.0186-.0045.0212-.0047.0436-.0065.0642-.0098h.0192c.0235-.0045.048-.0075.0722-.012h.0117c.0486-.0094.096-.0184.1441-.0306-.3983-.1458-.7319-.4898-1.019-.9796" fill="#1969bc"/><path d="m18.0862 14.129019c.2889 0 .5807-.0283.8737-.0845.271-.0491.5425-.1246.8146-.2194.2269.1114.4672.1934.7149.2438.2009.0406.4053.0607.6103.0601z" fill="#1e5cb3"/><path d="m21.0997 14.129019c.7133 0 1.2783-.0846 1.7582-.315.2922.1583.6119.2591.942.2971.051.005.1014.0097.154.0133h.0094c.0236 0 .0485 0 .074.0047h.0867-3.0263.002z" fill="#1e5cb3"/><path d="m24.1257 14.129119h.165c.0098 0 .019 0 .0283-.0045.018 0 .037 0 .0563-.0047h.0273c.0189 0 .0398-.0045.0596-.0064h.0051c.0061 0 .012-.0045.0181-.0045.0212-.0047.0434-.0065.0641-.0099.0071 0 .0126 0 .02-.0045.0236-.0046.0481-.007.0725-.0115h.0116c.0485-.0094.0959-.0186.1439-.0306.1414.0521.291.0784.4417.0776l-1.1127.0045z" fill="#1d60b5"/><path d="m23.1436 11.596919v-.0047c-.3044.2924-.622.5707-.9518.8342-.1622.1292-.328.2537-.4973.3735.1395.1667.2813.323.4308.4656.2269.2198.4694.4051.734.5481.0603-.0297.1203-.062.179-.0961.2696-.1574.5117-.3699.7403-.6489-.2367-.4042-.4445-.9049-.6339-1.4723" fill="#175fab"/><path d="m32.5947.15653003h-1.798c-.0971.004671-.1916.007927-.2847.013873-.044.094424-.0892.188846-.1327.283836-1.4884 3.17021-3.0515 5.91742-4.6385 8.1012-.7463 2.29657997-1.2939 3.69017997-1.9655 4.50997997.2871.4898.6212.8342 1.0183.9802.0116-.0047.021-.0047.0313-.0071h.0065c.0069 0 .0144-.0045.0219-.0045.0162-.0047.0336-.0075.0499-.0125.0103-.0046.0189-.0051.0294-.0085.0152-.0045.0307-.0077.0446-.0114.0094-.0047.0186-.0061.0278-.008.0232-.0075.044-.013.0661-.0199.0103-.0045.0214-.0085.033-.0112.0127-.0045.0254-.0078.037-.0133.0134-.0047.0267-.0071.0383-.012.0103-.0047.0212-.0075.0311-.0116.0261-.0094.0515-.0172.0776-.0274.0071 0 .014-.0065.0215-.0079.0156-.0065.0319-.0116.0474-.0185.0057-.0047.0128-.0051.0203-.0075.0545-.0227.1105-.0459.1667-.0712h.0058c.0816-.0364.1622-.075.2416-.1159 2.5803-1.4415 3.8831-6.28500997 7.9333-13.52012297h-1.1313l.0014-.000566z" fill="url(#o)"/><path d="m10.1958.47455903c.0064 0 .0122 0 .0184.00453.0157 0 .0314 0 .047.0051h.0156c.0284.00453.0567.00708.0858.01118.0052 0 .0099 0 .0144.00453.0238.00453.0481.0085.0723.01203.0053 0 .0122.00468.018.00468.0557.01104.1124.02265.1668.03695.0051 0 .0105.00467.015.00467.0232.00552.044.01245.0672.01897.0071 0 .0121.00453.0184.00566.0274.00694.0528.01387.0793.02265.0013 0 .0028 0 .006.00453.0226.00694.0457.01571.0693.02364.0095.00453.0181.00651.0268.00878.0163.00708.0342.01387.0498.02038.0092 0 .0184.00652.0283.00991.0214.00963.0439.01841.066.02761.0116.00467.0214.00991.0326.01401.0127.00652.0259.01246.0397.01699.0116.00566.0244.01161.0354.01671.0122.00665.0237.0116.0354.01812.2871.14128.5517.32942.7966.55762.0877-.09234.1821-.17808.2824-.25652-.5355-.37996-1.1421-.59655-1.8422-.59655-.0811 0-.162.00467-.2443.01076" fill="#7dcbec"/><path d="m11.9999 1.31699903c.1538.14417.2974.29895.4296.4632.1288-.09036.2596-.17769.3924-.2619-.1666-.16779-.3473-.32101-.54-.45796-.1003.07829-.1946.16403-.282.25652" fill="#5ec5ed"/><path d="m10.1956.47449903c.0821-.00693.1632-.00991.2443-.00991.6999 0 1.3066.2166 1.8422.59599.5651-.44593 1.2482-.60165 2.1971-.60165h-4.59523c.10618 0 .20963.00637.31163.01557z" fill="url(#p)"/><path d="m14.4793.45886903c-.9489 0-1.6319.15573-2.1971.60166.1925.13705.3731.29021.5397.45782.7867-.50015 1.566-.83141 2.3344-.97609.2879-.05476.5803-.08268.8734-.08339z" fill="url(#q)"/><path d="m25.7428 8.55989903c.4081-1.25852.8754-2.78643 1.4549-4.63966.5224-1.66976 1.4468-2.91794 3.1831-3.46268.0458-.09329.0892-.189413.1337-.283695-2.8304.169595-4.1533 1.609455-4.8191 3.741705-1.1642 3.7226-1.8695 6.13574997-2.5486 7.67334997.8674-.829 1.7346-1.84679997 2.596-3.02901997z" fill="url(#r)"/></g></g></svg>