<svg xmlns="http://www.w3.org/2000/svg" width="36" height="36"><linearGradient id="b" x1="49.996%" x2="49.996%" y1="-19.516%" y2="129.625%"><stop offset="0" stop-color="#0994dc"/><stop offset=".35" stop-color="#66cef5"/><stop offset=".846" stop-color="#127bca"/><stop offset="1" stop-color="#127bca"/></linearGradient><linearGradient id="c" x1="50.001%" x2="50.001%" y1="-19.516%" y2="129.623%"><stop offset="0" stop-color="#0e76bc"/><stop offset=".36" stop-color="#36aee8"/><stop offset=".846" stop-color="#00adef"/><stop offset="1" stop-color="#00adef"/></linearGradient><linearGradient id="d" x1="49.999%" x2="49.999%" y1="110.922%" y2="-6.214%"><stop offset="0" stop-color="#1c63b7"/><stop offset=".5" stop-color="#33bdf2"/><stop offset="1" stop-color="#33bdf2" stop-opacity=".42"/></linearGradient><linearGradient id="e" x1="50%" x2="50%" y1="-19.515%" y2="129.627%"><stop offset="0" stop-color="#166ab8"/><stop offset=".4" stop-color="#36aee8"/><stop offset=".846" stop-color="#0798dd"/><stop offset="1" stop-color="#0798dd"/></linearGradient><linearGradient id="f" x1="49.999%" x2="49.999%" y1="-19.521%" y2="129.627%"><stop offset="0" stop-color="#124379"/><stop offset=".39" stop-color="#1487cb"/><stop offset=".78" stop-color="#165197"/><stop offset="1" stop-color="#165197"/></linearGradient><linearGradient id="g" x1="0%" x2="100%" y1="50.001%" y2="50.001%"><stop offset="0" stop-color="#33bdf2" stop-opacity=".698"/><stop offset="1" stop-color="#1dacd8"/></linearGradient><linearGradient id="h" x1="50.01%" x2="50.01%" y1="94.686%" y2="-3.025%"><stop offset="0" stop-color="#136ab4"/><stop offset=".6" stop-color="#59caf5" stop-opacity=".549"/><stop offset="1" stop-color="#59caf5" stop-opacity=".235"/></linearGradient><linearGradient id="i" x1="-.001%" x2="99.999%" y1="50%" y2="50%"><stop offset="0" stop-color="#05a1e6" stop-opacity=".247"/><stop offset="1" stop-color="#05a1e6"/></linearGradient><linearGradient id="j" x1="49.998%" x2="49.998%" y1="124.314%" y2="-9.421%"><stop offset="0" stop-color="#318ed5"/><stop offset="1" stop-color="#38a7e4"/></linearGradient><linearGradient id="k" x1="49.999%" x2="49.999%" y1="91.201%" y2="-76.785%"><stop offset="0" stop-color="#05a1e6"/><stop offset="1" stop-color="#05a1e6" stop-opacity=".549"/></linearGradient><linearGradient id="l" x1="50%" x2="50%" y1="100.01%" y2=".01%"><stop offset="0" stop-color="#1959a6"/><stop offset=".5" stop-color="#05a1e6"/><stop offset=".918" stop-color="#7ec5ea"/><stop offset="1" stop-color="#7ec5ea"/></linearGradient><linearGradient id="m" x1="55.283%" x2="34.901%" y1="94.568%" y2="9.716%"><stop offset="0" stop-color="#165096"/><stop offset="1" stop-color="#0d82ca"/></linearGradient><linearGradient id="n" x1="49.995%" x2="49.995%" y1="76.998%" y2="-3.299%"><stop offset="0" stop-color="#05a1e6"/><stop offset=".874" stop-color="#0495d6"/><stop offset="1" stop-color="#0495d6"/></linearGradient><linearGradient id="o" x1="55.976%" x2="28.157%" y1="-4.161%" y2="94.556%"><stop offset="0" stop-color="#38a7e4" stop-opacity=".329"/><stop offset=".962" stop-color="#0e88d3"/><stop offset="1" stop-color="#0e88d3"/></linearGradient><linearGradient id="p" x1="50.017%" x2="50.017%" y1="-.296%" y2="101.882%"><stop offset="0" stop-color="#168cd4"/><stop offset=".5" stop-color="#1c87cc"/><stop offset="1" stop-color="#154b8d"/></linearGradient><linearGradient id="q" x1="16.674%" x2="18.013%" y1="45.568%" y2="52.617%"><stop offset="0" stop-color="#97d6ee"/><stop offset=".703" stop-color="#55c1ea"/><stop offset="1" stop-color="#55c1ea"/></linearGradient><linearGradient id="r" x1="6.89%" x2="14.308%" y1="53.493%" y2="41.599%"><stop offset="0" stop-color="#7accec"/><stop offset="1" stop-color="#3fb7ed"/></linearGradient><linearGradient id="s" x1="49.997%" x2="49.997%" y1="6.363%" y2="127.961%"><stop offset="0" stop-color="#1da7e7"/><stop offset="1" stop-color="#37abe7" stop-opacity="0"/></linearGradient><mask id="a" fill="#fff"><path fill-rule="evenodd" d="M0 0h36v36H0z"/></mask><g fill="none" mask="url(#a)"><path fill="url(#b)" d="M12.504 3.084c1.297 3.968 1.788 11.045 5.582 11.045.29 0 .581-.028.874-.084-3.449-.804-3.858-7.805-5.962-11.43-.168.153-.333.31-.495.469" transform="translate(0 11)"/><path fill="url(#c)" d="M12.998 2.615c2.104 3.625 2.513 10.626 5.962 11.43a5.47 5.47 0 0 0 .814-.22c-3.095-1.516-3.95-8.315-6.34-11.587-.148.123-.293.248-.436.377" transform="translate(0 11)"/><path fill="#14559a" d="M16.03 11.459c-.288 0-.58.028-.874.084-.768.145-1.548.475-2.334.975a5.8 5.8 0 0 1 .611.72c.8-.664 1.594-1.154 2.386-1.449a5.32 5.32 0 0 1 .89-.247 2.742 2.742 0 0 0-.68-.083z"/><path fill="url(#d)" d="M22.19 12.427c.33-.264.648-.542.953-.834-1.318-3.95-1.79-11.128-5.61-11.128a4.52 4.52 0 0 0-.825.076c3.48.866 3.926 8.437 5.483 11.886" transform="translate(0 11)"/><path fill="#3092c4" d="M16.708 11.541a2.744 2.744 0 0 0-.678-.082l1.502.005c-.273 0-.549.026-.824.077"/><path fill="#1969bc" d="M22.124 24.266a5.66 5.66 0 0 1-.43-.465c-.643.455-1.283.8-1.92 1.024a2.954 2.954 0 0 0 1.325.304c.714 0 1.279-.084 1.76-.315a3.338 3.338 0 0 1-.735-.548z"/><path fill="url(#e)" d="M15.819.79c3.116 1.63 3.387 9.013 5.875 12.01.169-.12.335-.244.497-.373C20.634 8.978 20.188 1.406 16.709.54a5.39 5.39 0 0 0-.89.248z" transform="translate(0 11)"/><path fill="url(#f)" d="M13.433 2.237c2.39 3.273 3.246 10.071 6.341 11.588.637-.225 1.277-.57 1.92-1.025C19.206 9.803 18.936 2.42 15.819.79c-.792.294-1.586.784-2.386 1.447" transform="translate(0 11)"/><path fill="url(#g)" d="M10.974 2.988c-.374.847-.757 1.96-1.22 3.414.92-1.296 1.837-2.413 2.75-3.318a9.93 9.93 0 0 0-.406-1.06 13.58 13.58 0 0 0-1.124.965" transform="translate(0 11)"/><path fill="#2b74b1" d="M12.43 12.78c-.112.08-.223.161-.332.244.145.318.28.674.405 1.06.162-.16.327-.316.495-.47a6.567 6.567 0 0 0-.568-.834z"/><path fill="#125a9e" d="M12.822 12.518c-.133.085-.264.172-.392.262a6.6 6.6 0 0 1 .568.835c.142-.129.288-.255.435-.378a5.777 5.777 0 0 0-.61-.719"/><path fill="url(#h)" d="M34.083.157c-1.763 6.798-5.445 12.259-8.532 13.636h-.006a4.872 4.872 0 0 1-.166.07c-.008.006-.015.006-.02.009l-.048.018-.022.009-.077.027c-.01.005-.021.007-.031.011a.396.396 0 0 1-.039.013l-.037.013-.033.01-.066.02c-.01 0-.018.006-.027.008-.014.005-.03.008-.045.012-.01.005-.02.006-.03.009a.939.939 0 0 1-.049.012l-.059.013c.141.052.291.078.442.078 2.927 0 5.878-5.246 10.762-13.97h-1.918z" transform="translate(0 11)"/><path fill="url(#i)" d="M9.119.735c.002 0 .004-.005.005-.005.002 0 .006 0 .007-.004h.004l.047-.019c.004 0 .007 0 .01-.004.004 0 .008-.005.012-.005l.05-.018h.003c.04-.012.075-.026.113-.04.005 0 .01-.004.016-.004.016-.005.032-.011.049-.015.007-.004.015-.004.022-.007L9.505.6c.007 0 .013-.005.019-.005.053-.015.107-.029.16-.042.008 0 .014-.004.023-.005a.31.31 0 0 1 .047-.01c.006-.004.015-.004.023-.006.015-.005.03-.005.047-.009h.011l.098-.018h.02C9.968.5 9.983.5 9.998.497c.008 0 .017-.004.025-.004.015 0 .03-.005.044-.007.007 0 .015 0 .024-.005.034-.004.069-.006.105-.009a3.25 3.25 0 0 0-.312-.016C6.588.456 2.046 6.572 0 14.494h.394a114.955 114.955 0 0 0 1.781-3.31C3.608 5.574 6.526 1.747 9.12.734" transform="translate(0 11)"/><path fill="#0d82ca" d="M10.974 13.988c.357-.341.732-.663 1.123-.964a5.31 5.31 0 0 0-.267-.517c-.302.366-.577.85-.856 1.481z"/><path fill="#0d82ca" d="M11.245 11.781c.215.18.408.43.585.727.056-.069.112-.132.17-.19a3.306 3.306 0 0 0-.755-.537"/><path fill="url(#j)" d="M2.175 11.185C5.18 5.393 6.605 1.727 9.119.735c-2.592 1.014-5.511 4.84-6.944 10.45" transform="translate(0 11)"/><path fill="#127bca" d="M12 12.317c-.058.06-.114.122-.17.19.098.168.188.34.268.517.109-.083.22-.164.332-.244a4.507 4.507 0 0 0-.43-.463z"/><path fill="url(#k)" d="M3.54 14.468c-.02.005-.038.005-.055.007h-.01c-.016 0-.032.004-.047.004h-.007c-.038.005-.075.005-.11.008h-.012c3.042-.085 4.432-1.609 5.123-3.818.524-1.675.955-3.086 1.332-4.27-1.274 1.794-2.554 3.932-3.84 6.327-.622 1.155-1.565 1.637-2.375 1.74" transform="translate(0 11)"/><path fill="url(#l)" d="M3.54 14.467c.809-.103 1.753-.585 2.373-1.74C7.2 10.333 8.481 8.194 9.753 6.4c.464-1.453.846-2.566 1.221-3.413C8.437 5.402 5.89 9.418 3.54 14.466" transform="translate(0 11)"/><path fill="#05a1e6" d="M2.175 22.185a115.232 115.232 0 0 1-1.781 3.31h1.147a28.03 28.03 0 0 1 .634-3.31"/><path fill="url(#m)" d="M10.09.484c-.009 0-.016.005-.024.005-.014.004-.028.004-.043.006-.008 0-.017 0-.025.005-.016.004-.03.005-.046.008-.006 0-.013 0-.02.004l-.097.017h-.01a.37.37 0 0 1-.048.01c-.009.004-.017.004-.024.006-.016.005-.031.006-.047.01-.008.004-.014.004-.021.004a5.155 5.155 0 0 0-.161.042c-.006 0-.012.004-.019.005l-.049.015c-.007.004-.015.004-.022.006l-.048.015c-.006 0-.011.004-.017.004a2.124 2.124 0 0 1-.112.04l-.05.017c-.008.005-.014.006-.022.009l-.048.017c-.005.005-.011.006-.015.008-2.514.992-3.938 4.658-6.944 10.45a27.906 27.906 0 0 0-.634 3.31h.16c.454 0 .582-.005 1.104-.005h.505c.036-.005.073-.005.11-.008h.008c.015 0 .03-.004.046-.004h.011c.017 0 .036-.005.054-.007C5.892 9.426 8.44 5.41 10.977 2.994c.28-.632.554-1.115.855-1.48a2.803 2.803 0 0 0-.584-.727s-.006 0-.006-.005a.292.292 0 0 1-.036-.017l-.035-.018a.367.367 0 0 1-.035-.017.178.178 0 0 1-.04-.017c-.012-.004-.021-.01-.032-.014a1.363 1.363 0 0 1-.067-.028l-.028-.01a.936.936 0 0 1-.05-.02C10.91.636 10.9.635 10.892.632l-.069-.024h-.005l-.08-.022C10.73.58 10.726.58 10.72.58l-.067-.019c-.006 0-.011-.004-.016-.004A2.373 2.373 0 0 0 10.47.52c-.006 0-.012-.005-.018-.005a.993.993 0 0 0-.072-.011c-.006-.005-.01-.005-.014-.005a1.942 1.942 0 0 0-.086-.01h-.015c-.023-.005-.045-.006-.066-.008l-.106.01" transform="translate(0 11)"/><path fill="url(#n)" d="M27.197 3.92c-.578 1.853-1.047 3.381-1.454 4.639 1.587-2.184 3.15-4.931 4.639-8.101-1.737.545-2.663 1.793-3.185 3.462z" transform="translate(0 11)"/><path fill="url(#o)" d="M25.793 13.677a4.82 4.82 0 0 1-.242.116c3.087-1.377 6.77-6.838 8.532-13.636h-.357c-4.05 7.235-5.353 12.078-7.933 13.52z" transform="translate(0 11)"/><path fill="#079ae1" d="M23.777 24.069c.672-.82 1.22-2.213 1.966-4.51-.862 1.183-1.729 2.2-2.597 3.03 0 .005 0 .005-.004.008.189.567.397 1.068.634 1.472"/><path fill="#1969bc" d="M23.777 24.069a2.752 2.752 0 0 1-.919.745 2.6 2.6 0 0 0 1.096.31h.01a.42.42 0 0 1 .073.005h.252c.009 0 .018 0 .028-.004.018 0 .037 0 .055-.005h.028c.019 0 .04-.005.06-.007h.004c.006 0 .013-.004.019-.004.021-.005.044-.007.064-.01h.02l.072-.012h.011c.049-.01.096-.018.144-.03-.398-.146-.732-.49-1.019-.98"/><path fill="#1e5cb3" d="M18.086 25.129c.29 0 .58-.028.874-.084.27-.05.542-.125.815-.22a2.963 2.963 0 0 0 1.325.304z"/><path fill="#1e5cb3" d="M21.1 25.129c.713 0 1.278-.085 1.758-.315a2.602 2.602 0 0 0 1.096.31h.01c.023 0 .048 0 .073.005h.087-3.026.002z"/><path fill="#1d60b5" d="M24.126 25.13h.165c.01 0 .019 0 .028-.005.018 0 .037 0 .056-.005h.028c.019 0 .04-.005.06-.006h.004c.006 0 .012-.005.018-.005.022-.005.044-.006.064-.01.008 0 .013 0 .02-.004.024-.005.049-.007.073-.012h.012c.048-.01.096-.018.144-.03.14.052.29.078.441.077l-1.113.005z"/><path fill="#175fab" d="M23.144 22.597v-.005c-.305.293-.622.57-.952.834-.162.13-.328.254-.497.374.139.167.28.323.43.466.227.22.47.405.734.548.06-.03.12-.062.18-.096.269-.158.511-.37.74-.65-.237-.404-.445-.904-.634-1.472"/><path fill="url(#p)" d="M32.595.157h-1.798c-.097.004-.192.007-.285.013l-.133.284c-1.488 3.17-3.051 5.918-4.638 8.101-.746 2.297-1.294 3.69-1.966 4.51.287.49.622.835 1.019.98.011-.004.02-.004.03-.006h.007c.007 0 .015-.005.022-.005.016-.005.034-.007.05-.012.01-.005.02-.006.03-.009l.044-.011c.01-.005.019-.006.028-.008l.066-.02a.191.191 0 0 1 .033-.011c.013-.005.025-.008.037-.014.013-.004.027-.007.038-.012l.031-.011.078-.028c.007 0 .014-.006.022-.008l.047-.018c.006-.005.013-.005.02-.008l.167-.07h.006a4.78 4.78 0 0 0 .241-.117c2.58-1.441 3.883-6.285 7.934-13.52h-1.132.002z" transform="translate(0 11)"/><path fill="#7dcbec" d="M10.196 11.475c.006 0 .012 0 .018.004.016 0 .032 0 .047.005h.016c.028.005.057.007.086.011.005 0 .01 0 .014.005l.072.012c.006 0 .013.005.018.005.056.01.113.022.167.037.005 0 .01.004.015.004l.067.02c.007 0 .012.004.019.005a1.125 1.125 0 0 1 .085.027l.07.024a.13.13 0 0 0 .026.008c.016.008.034.014.05.02.01 0 .018.007.028.01.022.01.044.02.066.028l.033.014a2.04 2.04 0 0 0 .075.034l.035.018c.287.141.552.33.797.558a2.59 2.59 0 0 1 .282-.257 3.109 3.109 0 0 0-2.086-.586"/><path fill="#5ec5ed" d="M12 12.317c.154.144.297.299.43.463.128-.09.26-.177.392-.262a4.144 4.144 0 0 0-.54-.458c-.1.079-.195.164-.282.257"/><path fill="url(#q)" d="M10.196.474a3.113 3.113 0 0 1 2.087.586c.563-.444 1.247-.6 2.195-.6H9.884c.106 0 .21.006.312.015z" transform="translate(0 11)"/><path fill="url(#r)" d="M14.48.459c-.95 0-1.633.156-2.198.602.193.137.373.29.54.457.787-.5 1.566-.831 2.334-.976a4.74 4.74 0 0 1 .874-.083z" transform="translate(0 11)"/><path fill="url(#s)" d="M25.743 8.56c.408-1.259.875-2.787 1.455-4.64.522-1.67 1.446-2.918 3.183-3.462.046-.094.089-.19.133-.284-2.83.17-4.153 1.61-4.819 3.742-1.164 3.722-1.87 6.135-2.548 7.673.867-.83 1.734-1.847 2.596-3.03z" transform="translate(0 11)"/></g></svg>