<?xml version="1.0" encoding="UTF-8"?>
<svg width="72px" height="72px" viewBox="0 0 72 72" version="1.1" xmlns="http://www.w3.org/2000/svg" xmlns:xlink="http://www.w3.org/1999/xlink">
    <title>download-docs</title>
    <defs>
        <linearGradient x1="100%" y1="6.52256027e-14%" x2="4.96130914e-14%" y2="100%" id="linearGradient-1">
            <stop stop-color="#E0E7FF" offset="0%"></stop>
            <stop stop-color="#CAC9E8" offset="100%"></stop>
        </linearGradient>
    </defs>
    <g id="download-docs" stroke="none" stroke-width="1" fill="none" fill-rule="evenodd">
        <g id="Group-2">
            <rect id="Rectangle-Copy-6" fill="url(#linearGradient-1)" x="0" y="0" width="72" height="72" rx="12"></rect>
            <g id="Group" transform="translate(21, 17)">
                <path d="M30,36 C30,37.1045695 29.1045695,38 28,38 L4,38 C1.790861,38 0,36.209139 0,34 L0,4 C0,1.790861 1.790861,4.4408921e-16 4,0 L28,0 C29.1045695,0 30,0.8954305 30,2 L30,30 L6,30 C4.8954305,30 4,30.8954305 4,32 C4,33.1045695 4.8954305,34 6,34 L30,34 L30,36 Z" id="Combined-Shape" fill="#6366F1"></path>
                <path d="M20.1604703,9 C21.1804909,9 22.0073809,9.82807762 22.0073809,10.8495631 L22.0073809,21.022089 C22.0073809,22.0435745 21.1804909,22.8716521 20.1604703,22.8716521 L20.0226332,22.866579 C19.0669864,22.7959727 18.3135597,21.9971433 18.3135597,21.022089 L18.313,15.319 L11.0975657,22.4705763 C10.4230808,23.1395012 9.35848863,23.1738204 8.64726876,22.5756016 L8.52557893,22.4634678 C7.81928788,21.7512509 7.82565809,20.599725 8.53980722,19.8914403 L15.797,12.699 L10.0027136,12.6991263 C9.03126543,12.6991263 8.23499235,11.9480355 8.16135965,10.9941054 L8.15580298,10.8495631 C8.15580298,9.82807762 8.98269302,9 10.0027136,9 Z" id="Combined-Shape-Copy" fill="#4338CA" fill-rule="nonzero" transform="translate(15.0035, 16) scale(-1, 1) rotate(135) translate(-15.0035, -16)"></path>
            </g>
        </g>
    </g>
</svg>