<?xml version="1.0" encoding="UTF-8"?>
<svg width="76px" height="76px" viewBox="0 0 76 76" version="1.1" xmlns="http://www.w3.org/2000/svg" xmlns:xlink="http://www.w3.org/1999/xlink">
    <title>download-fusionauth</title>
    <defs>
        <linearGradient x1="2.77555756e-15%" y1="100%" x2="100%" y2="2.77555756e-15%" id="linearGradient-1">
            <stop stop-color="#DDEDEB" offset="0%"></stop>
            <stop stop-color="#E6F9F7" offset="100%"></stop>
        </linearGradient>
    </defs>
    <g id="download-fusionauth" stroke="none" stroke-width="1" fill="none" fill-rule="evenodd">
        <rect id="Rectangle-Copy-8" fill="url(#linearGradient-1)" opacity="0" x="0" y="0" width="76" height="76" rx="12"></rect>
        <path d="M33.0681429,20.0012495 C33.9914117,19.978148 34.8949475,20.2759734 35.6304286,20.8458356 C36.3702552,21.4209122 36.8950966,22.2367851 37.1178571,23.158063 L37.6866455,25.3211311 L52.9285714,25.3211311 C55.1771593,25.3211311 57,27.3991945 57,29.6932208 L57,51.846298 C57,54.1403243 55.1771593,56 52.9285714,56 L23.0714286,56 C20.8228407,56 19,54.1403243 19,51.846298 L19,24.1549515 C19,21.8609252 20.8228407,20.0012495 23.0714286,20.0012495 Z M37.9868541,31.8472236 C36.9838402,31.8514136 36.1741113,32.6701228 36.1782579,33.6758778 L36.2237478,43.8934809 L32.1271378,39.7955782 C31.4402358,39.1086762 30.3461275,39.0767098 29.6195708,39.6991365 L29.5134407,39.7974084 C28.7911828,40.5196663 28.7903634,41.6898584 29.5116106,42.4111055 L36.6940666,49.5935615 C37.4153137,50.3148086 38.5855057,50.3139892 39.3077636,49.5917313 L46.5004131,42.3990818 C47.222671,41.6768239 47.2234904,40.5066319 46.5022433,39.7853848 L46.4011929,39.6915084 C45.6755406,39.0657027 44.5779742,39.0977869 43.8885462,39.7872149 L39.8554482,43.8199418 L39.8105086,33.6607624 C39.8065772,32.7108827 39.0780807,31.9338796 38.1521886,31.8539804 L37.9868541,31.8472236 Z" id="Combined-Shape" fill="#14B8A6" fill-rule="nonzero"></path>
    </g>
</svg>