<?xml version="1.0" encoding="UTF-8"?>
<svg width="72px" height="72px" viewBox="0 0 72 72" version="1.1" xmlns="http://www.w3.org/2000/svg" xmlns:xlink="http://www.w3.org/1999/xlink">
    <title>download-fusionauth</title>
    <defs>
        <linearGradient x1="2.77555756e-15%" y1="100%" x2="100%" y2="2.77555756e-15%" id="linearGradient-1">
            <stop stop-color="#B6D6D6" offset="0%"></stop>
            <stop stop-color="#CEF9F1" offset="100%"></stop>
        </linearGradient>
    </defs>
    <g id="download-fusionauth" stroke="none" stroke-width="1" fill="none" fill-rule="evenodd">
        <g id="Docs-Icons-/-Light-/docs-resources-download-fusionauth-teal-light">
            <rect id="Rectangle-Copy-6" fill="url(#linearGradient-1)" x="0" y="0" width="72" height="72" rx="12"></rect>
            <path d="M31.0681429,18.0012495 C31.9914117,17.978148 32.8949475,18.2759734 33.6304286,18.8458356 C34.3702552,19.4209122 34.8950966,20.2367851 35.1178571,21.158063 L35.6866455,23.3211311 L50.9285714,23.3211311 C53.1771593,23.3211311 55,25.3991945 55,27.6932208 L55,49.846298 C55,52.1403243 53.1771593,54 50.9285714,54 L21.0714286,54 C18.8228407,54 17,52.1403243 17,49.846298 L17,22.1549515 C17,19.8609252 18.8228407,18.0012495 21.0714286,18.0012495 Z M35.9868541,29.8472236 C34.9838402,29.8514136 34.1741113,30.6701228 34.1782579,31.6758778 L34.2238426,41.8935758 L30.1271378,37.7955782 C29.4402358,37.1086762 28.3461275,37.0767098 27.6195708,37.6991365 L27.5134407,37.7974084 C26.7911828,38.5196663 26.7903634,39.6898584 27.5116106,40.4111055 L34.6940666,47.5935615 C35.4153137,48.3148086 36.5855057,48.3139892 37.3077636,47.5917313 L44.5004131,40.3990818 C45.222671,39.6768239 45.2234904,38.5066319 44.5022433,37.7853848 L44.4011929,37.6915084 C43.6755406,37.0657027 42.5779742,37.0977869 41.8885462,37.7872149 L37.8555431,41.8200367 L37.8105086,31.6607624 C37.8065772,30.7108827 37.0780807,29.9338796 36.1521886,29.8539804 L35.9868541,29.8472236 Z" id="Combined-Shape" fill="#14B8A6" fill-rule="nonzero"></path>
        </g>
    </g>
</svg>