<svg xmlns="http://www.w3.org/2000/svg" width="36" height="36"><mask id="a" fill="#fff"><path fill-rule="evenodd" d="M0 0h36v36H0z"/></mask><g fill="#009dde" mask="url(#a)"><path d="M18.007 0C27.945.003 36 8.061 36 18v.007c-.003 9.94-8.065 17.996-18.007 17.993C8.053 35.997-.003 27.934 0 17.993.003 8.053 8.065-.003 18.007 0zM17.5 5c-.495 1.811-2.165 3.42-3.913 5.11C10.973 12.644 8 15.51 8 19.817c.007 5.064 4.249 9.17 9.488 9.183 5.25 0 9.507-4.11 9.512-9.183 0-4.306-2.964-7.172-5.587-9.707l-.235-.227C19.518 8.276 17.971 6.732 17.5 5zm.056 14a53.147 53.147 0 0 1 2.664 2.766 1.5 1.5 0 0 1 .155.206c.936 1.234.81 2.897-.304 3.999-1.312 1.299-3.525 1.379-4.946.179-1.42-1.2-1.507-3.225-.196-4.524.745-.805 1.645-1.597 2.627-2.626zm-4.21-5 .46.453 2.134 2.276c.08.096.08.238 0 .334l-2.232 2.572-.78.99a6.065 6.065 0 0 0-.75 1.23.234.234 0 0 1-.163.145h-.079c-.216-.02-.464-.436-.464-.436l-.04-.062a2.824 2.824 0 0 1-.142-.26l-.042-.094a6.138 6.138 0 0 1-.072-3.19l.03-.108a8.384 8.384 0 0 1 1.106-2.443c.319-.49.665-.96 1.034-1.407zm4.604-4a40.79 40.79 0 0 0 1.67 1.89l.012.041a25.253 25.253 0 0 1 3.139 3.864A7.581 7.581 0 0 1 24 19.875c0 .633-.088 1.261-.261 1.866l-.009.025a.362.362 0 0 1-.269.234h-.056a.513.513 0 0 1-.284-.247l-.093-.151a16.527 16.527 0 0 0-1.688-2.256l-.801-.916-2.672-3.01c-.451-.469-1.258-1.31-1.597-1.769a.456.456 0 0 0-.039-.071 1.626 1.626 0 0 1-.212-.451v-.09a1.597 1.597 0 0 1 .105-.868c.075-.172.177-.329.302-.462.517-.56 1.034-1.108 1.524-1.709z"/></g></svg>