<svg height="36" viewBox="0 0 36 36" width="36" xmlns="http://www.w3.org/2000/svg" xmlns:xlink="http://www.w3.org/1999/xlink"><mask id="a" fill="#fff"><path d="m0 0h36v36h-36z" fill="#fff" fill-rule="evenodd"/></mask><g fill="#009dde" mask="url(#a)"><path d="m18.0066819.00000104c9.9385777.00334221 17.9933191 8.06142256 17.9933191 17.99999996v.0066804c-.0033411 9.9402474-8.0647618 17.9966577-18.0066797 17.9933196-9.94024781-.0033421-17.99665832-8.0664327-17.99332026-18.0066802.00334221-9.94024754 8.06476293-17.99665782 18.00668086-17.99331976zm-.5066809 5c-.4951576 1.81107666-2.1646417 3.42002424-3.9127487 5.10982346-2.6146328 2.5338903-5.58725126 5.4008893-5.58725126 9.7070475.00669131 5.0645466 4.24898746 9.1701928 9.48829016 9.183129 5.2493397 0 9.5066914-4.1104973 9.5117098-9.183129 0-4.3061582-2.9642542-7.1715401-5.5872512-9.7070475l-.2342587-.22651776c-1.6611431-1.60763324-3.2071016-3.15177739-3.6784901-4.8833057zm.0560494 13.99999996c1.1619326 1.1329782 1.899724 1.9138364 2.6642473 2.7664229.0570273.0635772.1087085.1320448.1550432.2054031.9356052 1.2340496.8090757 2.8968377-.3047401 3.9988423-1.3116294 1.299257-3.5250042 1.379136-4.9453421.1793203-1.420338-1.1998157-1.5076611-3.2245046-.1960316-4.5237616.74492-.8053111 1.6448832-1.5975807 2.6268233-2.626227zm-4.2103812-5 .4597262.4530943 2.1342037 2.2759676c.0805359.0962169.0805359.2379182 0 .3341351l-2.2315179 2.571616-.7801924.9901597c-.2969765.37787-.5486514.7889787-.7499914 1.2298272-.0285232.0734748-.0889252.1277061-.1627498.1452001h-.0788582c-.2164404-.0192434-.4647597-.4356003-.4647597-.4356003l-.0394626-.0623625c-.0515431-.0837472-.0987909-.1699577-.1417434-.2595268l-.0419458-.0944675c-.3053656-1.0356441-.3288553-2.1395146-.0721468-3.1891538l.0289033-.1091432c.2369433-.8712898.610888-1.6975657 1.1069897-2.4432294.3187882-.4898317.6644218-.9586704 1.0335451-1.4065165zm4.6044288-4c.5235938.6430958 1.1136023 1.287862 1.6696311 1.8891983l.0123562.0417594c1.1630271 1.1709354 2.2133038 2.4654789 3.1384741 3.8635858.7846186 1.1926502 1.2139964 2.6158128 1.2294416 4.0807349 0 .6330735-.0880378 1.2611359-.2610246 1.8658129l-.0085691.0249476c-.0465451.1225808-.147814.2120374-.2694454.2339611h-.0556028c-.120473-.0417594-.220867-.1286191-.2841925-.2472161l-.0931509-.151234c-.5008071-.8035116-1.0655152-1.5577598-1.6876861-2.2557816l-.8016083-.9153673-2.6720277-3.0100224c-.4510011-.4693763-1.2572431-1.3112472-1.5970384-1.7689309-.0108118-.0250557-.023168-.048441-.0386132-.0718263-.0926715-.136971-.1637196-.2889755-.2115998-.4510022v-.0902005c-.0463359-.2939866-.0092673-.5963251.1050276-.8669265.0741372-.172049.1760757-.3290645.3011823-.4626948.5174157-.5595769 1.0348315-1.1074611 1.5244459-1.7087974z" transform="translate(-.000001 -.000001)"/></g></svg>