<svg xmlns="http://www.w3.org/2000/svg" width="70" height="70"><defs><linearGradient id="a" x1="13.462%" x2="86.538%" y1="0%" y2="100%"><stop offset="0%" stop-color="#A4AEBE"/><stop offset="100%" stop-color="#2D53F5"/></linearGradient></defs><path fill="url(#a)" d="M4.676 39.784a1.845 1.845 0 0 0 3.69 0V25.359a1.845 1.845 0 0 0-3.15-1.305L.54 28.73a1.845 1.845 0 1 0 2.61 2.61l1.526-1.526v9.97ZM15.574 7.826 17.1 6.3v9.97a1.845 1.845 0 0 0 3.69 0V1.845A1.845 1.845 0 0 0 17.64.541l-4.675 4.675a1.845 1.845 0 1 0 2.609 2.61Zm21.045 15.828a1.846 1.846 0 0 0-2.01.4l-4.676 4.676a1.845 1.845 0 1 0 2.61 2.61l1.525-1.526v9.97a1.845 1.845 0 0 0 3.69 0V25.359c0-.746-.449-1.419-1.139-1.705ZM28.6 46.365a1.846 1.846 0 0 0-2.011.4l-4.676 4.676a1.845 1.845 0 1 0 2.61 2.61l1.525-1.526v5.461a1.845 1.845 0 0 0 3.691 0V48.07c0-.747-.45-1.42-1.14-1.705Zm-3.13-11.078v-5.431a6.35 6.35 0 0 0-6.342-6.342h-.09a6.35 6.35 0 0 0-6.343 6.342v5.431a6.35 6.35 0 0 0 6.342 6.342h.091a6.35 6.35 0 0 0 6.342-6.342Zm-3.69 0a2.654 2.654 0 0 1-2.652 2.651h-.09a2.654 2.654 0 0 1-2.652-2.65v-5.432a2.654 2.654 0 0 1 2.651-2.651h.091a2.654 2.654 0 0 1 2.651 2.651v5.431Zm26.877-11.773h-.09a6.35 6.35 0 0 0-6.343 6.342v5.43a6.35 6.35 0 0 0 6.342 6.343h.091A6.35 6.35 0 0 0 55 35.287v-5.431a6.35 6.35 0 0 0-6.342-6.342Zm2.651 11.773a2.654 2.654 0 0 1-2.65 2.651h-.092a2.654 2.654 0 0 1-2.651-2.65v-5.432a2.654 2.654 0 0 1 2.651-2.651h.091a2.654 2.654 0 0 1 2.651 2.651v5.431ZM31.553 0h-.09a6.35 6.35 0 0 0-6.343 6.342v5.431a6.35 6.35 0 0 0 6.342 6.342h.091a1.845 1.845 0 0 0 0-3.69h-.09a2.654 2.654 0 0 1-2.652-2.652V6.342a2.654 2.654 0 0 1 2.651-2.651h.091a2.654 2.654 0 0 1 2.651 2.65 1.845 1.845 0 0 0 3.691 0A6.349 6.349 0 0 0 31.553 0Zm17.105 0h-.09a6.35 6.35 0 0 0-6.343 6.342v5.431a6.35 6.35 0 0 0 6.342 6.342h.091A6.35 6.35 0 0 0 55 11.773V6.342A6.35 6.35 0 0 0 48.658 0Zm2.651 11.773a2.654 2.654 0 0 1-2.65 2.652h-.092a2.654 2.654 0 0 1-2.651-2.652V6.342a2.654 2.654 0 0 1 2.651-2.651h.091a2.654 2.654 0 0 1 2.651 2.65v5.432ZM10.506 46.225h-.09a6.35 6.35 0 0 0-6.342 6.341v5.432a6.35 6.35 0 0 0 6.342 6.341h.09a6.35 6.35 0 0 0 6.342-6.341v-5.432a6.349 6.349 0 0 0-6.342-6.341Zm2.652 11.773a2.654 2.654 0 0 1-2.651 2.651h-.091a2.654 2.654 0 0 1-2.652-2.651v-5.432a2.654 2.654 0 0 1 2.652-2.65h.09a2.654 2.654 0 0 1 2.652 2.65v5.432Z" transform="translate(7.98 3)"/></svg>