<svg xmlns="http://www.w3.org/2000/svg" width="70" height="70"><defs><linearGradient id="a" x1=".007%" x2="99.993%" y1="0%" y2="100%"><stop offset="0%" stop-color="#A4AEBE"/><stop offset="100%" stop-color="#2D53F5"/></linearGradient></defs><path fill="url(#a)" fill-rule="evenodd" d="M27.506 0c12.437 0 23.35 8.342 26.56 20.387 3.21 12.01-2.045 24.723-12.836 30.93a27.442 27.442 0 0 1-33.193-4.403 2.116 2.116 0 0 1 2.997-2.987 23.21 23.21 0 0 0 28.08 3.724c9.13-5.25 13.58-16.007 10.864-26.172C47.264 11.294 38.034 4.232 27.506 4.232a2.116 2.116 0 1 1 0-4.232Zm-1.918 15.206c1.169 0 2.116.947 2.116 2.116v10.547l7.023 6.997a2.116 2.116 0 0 1-2.987 2.998l-7.645-7.617a2.116 2.116 0 0 1-.623-1.5V17.323c0-1.169.947-2.116 2.116-2.116ZM9.536 7.363a2.116 2.116 0 1 1 0 4.232h-.029a2.116 2.116 0 1 1 0-4.232h.029Zm8.124-5.98a2.116 2.116 0 1 1 0 4.231h-.028a2.116 2.116 0 0 1 0-4.232h.028ZM0 27.477c0-1.168.947-2.116 2.116-2.116h.028a2.116 2.116 0 1 1 0 4.232h-.028A2.116 2.116 0 0 1 0 27.478Zm1.918 9.536c0-1.169.948-2.116 2.116-2.116h.028a2.116 2.116 0 0 1 0 4.232h-.028a2.116 2.116 0 0 1-2.116-2.116Zm0-19.325c0-1.169.948-2.116 2.116-2.116h.028a2.116 2.116 0 0 1 0 4.232h-.028a2.116 2.116 0 0 1-2.116-2.116Z" transform="translate(7.75 7.767)"/></svg>