<svg xmlns="http://www.w3.org/2000/svg" width="70" height="70"><defs><linearGradient id="a" x1="0%" x2="100%" y1="7.986%" y2="92.014%"><stop offset="0%" stop-color="#A4AEBE"/><stop offset="100%" stop-color="#2D53F5"/></linearGradient></defs><path fill="url(#a)" stroke="url(#a)" stroke-width=".5" d="M48.698 0A6.307 6.307 0 0 1 55 6.302v37.813a6.307 6.307 0 0 1-6.302 6.302H6.302A6.307 6.307 0 0 1 0 44.115V6.302A6.307 6.307 0 0 1 6.302 0h42.396Zm2.864 11.458H3.437v32.657a2.869 2.869 0 0 0 2.865 2.864h42.396a2.869 2.869 0 0 0 2.864-2.864V11.458Zm-34.879 9.669 7.448 7.448a1.72 1.72 0 0 1 0 2.431l-7.448 7.448a1.705 1.705 0 0 1-1.214.504 1.72 1.72 0 0 1-1.215-2.936l6.231-6.23-6.233-6.234a1.72 1.72 0 1 1 2.431-2.431ZM39.531 35.52a1.72 1.72 0 0 1 0 3.437H29.22a1.72 1.72 0 0 1 0-3.437h10.31Zm9.167-32.084H6.302a2.869 2.869 0 0 0-2.864 2.865L3.437 8.02h48.125V6.302a2.869 2.869 0 0 0-2.864-2.864Z" transform="translate(8 9.334)"/></svg>