<?xml version="1.0" encoding="UTF-8"?>
<svg width="70px" height="70px" viewBox="0 0 70 70" version="1.1" xmlns="http://www.w3.org/2000/svg" xmlns:xlink="http://www.w3.org/1999/xlink">
    <title>dt-JWT-decoder</title>
    <defs>
        <linearGradient x1="0%" y1="7.98611111%" x2="100%" y2="92.0138889%" id="linearGradient-1">
            <stop stop-color="#A4AEBE" offset="0%"></stop>
            <stop stop-color="#2D53F5" offset="100%"></stop>
        </linearGradient>
    </defs>
    <g id="dt-JWT-decoder" stroke="none" stroke-width="1" fill="none" fill-rule="evenodd">
        <g id="001-web-programming" transform="translate(8.000000, 9.333536)" fill="url(#linearGradient-1)" fill-rule="nonzero" stroke="url(#linearGradient-1)" stroke-width="0.5">
            <path d="M48.6979167,0 C52.174375,0 55,2.825625 55,6.30208333 L55,44.1145833 C55,47.5910417 52.174375,50.4166667 48.6979167,50.4166667 L6.30208333,50.4166667 C2.825625,50.4166667 0,47.5910417 0,44.1145833 L0,6.30208333 C0,2.825625 2.825625,0 6.30208333,0 L48.6979167,0 Z M51.562,11.458 L3.437,11.458 L3.4375,44.1145833 C3.4375,45.6935417 4.723125,46.9791667 6.30208333,46.9791667 L48.6979167,46.9791667 C50.276875,46.9791667 51.5625,45.6935417 51.5625,44.1145833 L51.562,11.458 Z M16.6833333,21.126875 L24.13125,28.5747917 C24.8027083,29.24625 24.8027083,30.3347917 24.13125,31.00625 L16.6833333,38.4541667 C16.34875,38.7910417 15.90875,38.9583333 15.46875,38.9583333 C15.02875,38.9583333 14.58875,38.7910417 14.2541667,38.4541667 C13.5827083,37.7827083 13.5827083,36.6941667 14.2541667,36.0227083 L20.4852083,29.7916667 L14.251875,23.5583333 C13.5804167,22.886875 13.5804167,21.7983333 14.251875,21.126875 C14.9233333,20.4554167 16.011875,20.4554167 16.6833333,21.126875 Z M39.53125,35.5208333 C40.48,35.5208333 41.25,36.2908333 41.25,37.2395833 C41.25,38.1883333 40.48,38.9583333 39.53125,38.9583333 L29.21875,38.9583333 C28.27,38.9583333 27.5,38.1883333 27.5,37.2395833 C27.5,36.2908333 28.27,35.5208333 29.21875,35.5208333 L39.53125,35.5208333 Z M48.6979167,3.4375 L6.30208333,3.4375 C4.723125,3.4375 3.4375,4.723125 3.4375,6.30208333 L3.437,8.02 L51.562,8.02 L51.5625,6.30208333 C51.5625,4.723125 50.276875,3.4375 48.6979167,3.4375 Z" id="Combined-Shape"></path>
        </g>
    </g>
</svg>