<?xml version="1.0" encoding="UTF-8"?>
<svg width="70px" height="70px" viewBox="0 0 70 70" version="1.1" xmlns="http://www.w3.org/2000/svg" xmlns:xlink="http://www.w3.org/1999/xlink">
    <title>dt-uuid-generator</title>
    <defs>
        <linearGradient x1="0%" y1="0%" x2="100%" y2="100%" id="linearGradient-1">
            <stop stop-color="#A4AEBE" offset="0%"></stop>
            <stop stop-color="#2D53F5" offset="100%"></stop>
        </linearGradient>
    </defs>
    <g id="dt-uuid-generator" stroke="none" stroke-width="1" fill="none" fill-rule="evenodd">
        <g id="003-password" transform="translate(6.000000, 6.000000)" fill="url(#linearGradient-1)" fill-rule="nonzero">
            <path d="M45.4502331,59 L13.5497669,59 C-4.5234654,58.314266 -4.50971121,32.4849886 13.5497669,31.8057074 L45.4502331,31.8057074 C63.5234654,32.4914415 63.5097112,58.3207188 45.4502331,59 Z M13.5497669,36.4149096 C1.60304226,36.8682246 1.61217319,53.9418616 13.5497669,54.3907979 L45.4502331,54.3907979 C57.3969577,53.9374828 57.3878268,36.8638458 45.4502331,36.4149096 L13.5497669,36.4149096 Z M27.188372,45.4028537 C27.188372,46.9938351 25.8946694,48.283605 24.298837,48.283605 C20.4700876,48.142333 20.4711278,42.6627983 24.298837,42.5221024 C25.8946694,42.5221024 27.188372,43.8118724 27.188372,45.4028537 Z M13.8965111,42.5221024 C12.3006787,42.5221024 11.0069761,43.8118724 11.0069761,45.4028537 C11.1486789,49.2199645 16.6449212,49.2189274 16.7860461,45.4028537 C16.7860461,43.8118724 15.4923435,42.5221024 13.8965111,42.5221024 Z M34.701163,42.5221024 C33.1053306,42.5221024 31.811628,43.8118724 31.811628,45.4028537 C31.9533308,49.2199645 37.4495731,49.2189274 37.590698,45.4028537 C37.590698,43.8118724 36.2969954,42.5221024 34.701163,42.5221024 Z M45.1034889,42.5221024 C43.5076565,42.5221024 42.2139539,43.8118724 42.2139539,45.4028537 C42.3556567,49.2199645 47.851899,49.2189274 47.9930239,45.4028537 C47.9930239,43.8118724 46.6993213,42.5221024 45.1034889,42.5221024 Z M25.1059419,25.4685154 C24.7335387,25.4685154 24.3559342,25.378636 24.005607,25.1891978 C11.769351,18.5234849 16.4577949,0.111911731 30.3475584,0.00221272018 C39.9590764,-0.176163402 46.9519822,10.4655625 42.4458102,19.0966392 C41.0097113,21.7971707 37.0522042,19.8867716 38.2836085,17.090023 C41.2772823,11.4132144 36.6253621,4.50690119 30.3472117,4.61153008 C21.2270302,4.6905779 18.1518715,16.7631154 26.2104378,21.1378243 C27.332502,21.744741 27.7485951,23.1437491 27.1398278,24.2625177 C26.7210764,25.0319087 25.9263387,25.4685154 25.1059419,25.4685154 L25.1059419,25.4685154 Z M44.6412789,25.4680545 C44.6412789,24.1952233 43.6063631,23.1634534 42.3296509,23.1634534 L36.1779465,23.1634534 C35.8735051,23.1634534 35.6259298,22.9165154 35.6259298,22.6131147 L35.6259298,16.4801103 C35.5123132,13.4255921 31.1152501,13.4278967 31.0026738,16.4801103 L31.0026738,22.6131147 C31.0026738,25.4581447 33.3242418,27.7726556 36.1779465,27.7726556 L42.3296509,27.7726556 C43.6063631,27.7726556 44.6412789,26.7408857 44.6412789,25.4680545 Z" id="Shape"></path>
        </g>
    </g>
</svg>