<svg xmlns="http://www.w3.org/2000/svg" width="70" height="70"><defs><linearGradient id="a" x1="0%" x2="100%" y1="0%" y2="100%"><stop offset="0%" stop-color="#A4AEBE"/><stop offset="100%" stop-color="#2D53F5"/></linearGradient></defs><path fill="url(#a)" d="M45.45 59h-31.9c-18.073-.686-18.06-26.515 0-27.194h31.9c18.073.685 18.06 26.515 0 27.194Zm-31.9-22.585c-11.947.453-11.938 17.527 0 17.976h31.9c11.947-.454 11.938-17.527 0-17.976h-31.9Zm13.638 8.988a2.885 2.885 0 0 1-2.89 2.88c-3.828-.14-3.827-5.62 0-5.76a2.884 2.884 0 0 1 2.89 2.88Zm-13.291-2.88a2.885 2.885 0 0 0-2.89 2.88c.142 3.817 5.638 3.816 5.779 0a2.885 2.885 0 0 0-2.89-2.88Zm20.804 0a2.885 2.885 0 0 0-2.89 2.88c.142 3.817 5.639 3.816 5.78 0a2.885 2.885 0 0 0-2.89-2.88Zm10.402 0a2.885 2.885 0 0 0-2.889 2.88c.142 3.817 5.638 3.816 5.779 0a2.885 2.885 0 0 0-2.89-2.88ZM25.106 25.468a2.3 2.3 0 0 1-1.1-.28C11.769 18.523 16.458.112 30.348.002c9.611-.178 16.604 10.464 12.098 19.095-1.436 2.7-5.394.79-4.162-2.007 2.993-5.677-1.659-12.583-7.937-12.478-9.12.079-12.195 12.151-4.137 16.526a2.301 2.301 0 0 1 .93 3.125 2.313 2.313 0 0 1-2.034 1.206Zm19.535 0a2.308 2.308 0 0 0-2.311-2.306h-6.152a.552.552 0 0 1-.552-.55V16.48c-.114-3.054-4.51-3.052-4.623 0v6.133c0 2.845 2.321 5.16 5.175 5.16h6.152a2.308 2.308 0 0 0 2.311-2.305Z" transform="translate(6 6)"/></svg>