<svg xmlns="http://www.w3.org/2000/svg" width="70" height="70"><defs><linearGradient id="a" x1="0%" x2="100%" y1="1.98%" y2="98.02%"><stop offset="0%" stop-color="#A4AEBE"/><stop offset="100%" stop-color="#2D53F5"/></linearGradient></defs><path fill="url(#a)" d="M13.074 19.29a2.48 2.48 0 0 1 0 3.544l-5.298 5.217c-3.581 3.527-3.581 9.528 0 13.054l.241.237c3.581 3.526 9.676 3.527 13.257 0l5.297-5.216a2.573 2.573 0 0 1 3.6 0 2.48 2.48 0 0 1 0 3.544l-5.298 5.217c-5.569 5.484-14.886 5.484-20.455 0l-.241-.237c-5.57-5.485-5.57-14.66 0-20.144l5.297-5.216a2.573 2.573 0 0 1 3.6 0Zm16.853-3.306a2.573 2.573 0 0 1 3.6-.031 2.48 2.48 0 0 1 .031 3.544L20.073 33.013a2.573 2.573 0 0 1-3.6.032 2.48 2.48 0 0 1-.031-3.545ZM45.582 4.113l.24.237c5.57 5.484 5.57 14.66.001 20.144l-5.298 5.216a2.573 2.573 0 0 1-3.6 0 2.48 2.48 0 0 1 0-3.544l5.299-5.217c3.58-3.527 3.58-9.527 0-13.054l-.241-.237c-3.581-3.527-9.676-3.527-13.257 0l-5.298 5.216a2.573 2.573 0 0 1-3.6 0 2.48 2.48 0 0 1 0-3.544l5.299-5.217c5.569-5.484 14.886-5.484 20.455 0Z" transform="translate(10 10)"/></svg>