<?xml version="1.0" encoding="UTF-8"?>
<svg width="54px" height="54px" viewBox="0 0 54 54" version="1.1" xmlns="http://www.w3.org/2000/svg" xmlns:xlink="http://www.w3.org/1999/xlink">
    <title>enterprise-sign-on</title>
    <g id="enterprise-sign-on" stroke="none" stroke-width="1" fill="none" fill-rule="evenodd">
        <rect id="Rectangle" fill="#F1F5F9" x="0" y="0" width="54" height="54" rx="5"></rect>
        <g id="icons8-mind-map" transform="translate(8, 8)" fill-rule="nonzero">
            <g id="Group-2" transform="translate(7.256, 8.142)">
                <path d="M0.906821556,23.5246842 C0.698216905,23.5246842 0.4877983,23.453208 0.317286672,23.3066366 C-0.0636435603,22.9818271 -0.108085421,22.4109223 0.219333184,22.0318271 L5.66119365,15.6984937 C5.9867983,15.317589 6.5600076,15.2750651 6.93912388,15.6007794 C7.32005411,15.925589 7.36449597,16.4964937 7.03707737,16.875589 L1.5952169,23.2089223 C1.41654249,23.4179223 1.16168202,23.5246842 0.906821556,23.5246842 Z" id="Path" fill="#F59E0B"></path>
                <path d="M12.2884727,5.95511276 C12.2431239,5.95511276 12.197775,5.95149372 12.1524262,5.94425562 C11.6563099,5.87006515 11.3161936,5.40863657 11.3914727,4.91463657 L12.0209146,0.769922288 C12.0952867,0.275017526 12.5542169,-0.0660777117 13.0530541,0.0108270502 C13.5491704,0.0850175264 13.8892867,0.546446098 13.8140076,1.0404461 L13.1845657,5.18516038 C13.1165425,5.63482705 12.7292634,5.95511276 12.2884727,5.95511276 Z" id="Path" fill="#F59E0B"></path>
                <path d="M17.231496,10.6119223 C16.8188216,10.6119223 16.4451471,10.3287318 16.3481006,9.91073181 C16.2356355,9.42306515 16.5403797,8.93811276 17.0283332,8.82592229 L22.8121239,7.49863657 C23.3055192,7.38463657 23.7871239,7.69135086 23.899589,8.177208 C24.0120541,8.66487467 23.7073099,9.14982705 23.2193564,9.26201753 L17.4355657,10.5893032 C17.3666355,10.6046842 17.2986123,10.6119223 17.231496,10.6119223 Z" id="Path" fill="#CBD5E1"></path>
                <path d="M18.8903564,22.6199223 C18.596496,22.6199223 18.3071704,22.4778747 18.1330309,22.214589 L14.5368681,16.7860175 C14.2602402,16.3689223 14.3754262,15.8070651 14.7926355,15.5320175 C15.2107518,15.2560651 15.7721704,15.3700651 16.0497053,15.7871604 L19.6458681,21.2157318 C19.922496,21.6328271 19.8073099,22.1946842 19.3901006,22.4697318 C19.2359146,22.5710651 19.062682,22.6199223 18.8903564,22.6199223 Z" id="Path" fill="#CBD5E1"></path>
            </g>
            <path d="M18.5930233,26.2380952 C14.8417674,26.2380952 11.7906977,23.1944762 11.7906977,19.452381 C11.7906977,15.7102857 14.8417674,12.6666667 18.5930233,12.6666667 C22.3442791,12.6666667 25.3953488,15.7102857 25.3953488,19.452381 C25.3953488,23.1944762 22.3442791,26.2380952 18.5930233,26.2380952 Z" id="Path" fill="#F59E0B"></path>
            <path d="M20.8604651,9.04761905 C18.3599302,9.04761905 16.3255814,7.0182381 16.3255814,4.52380952 C16.3255814,2.02938095 18.3599302,0 20.8604651,0 C23.361,0 25.3953488,2.02938095 25.3953488,4.52380952 C25.3953488,7.0182381 23.361,9.04761905 20.8604651,9.04761905 Z" id="Path" fill="#F59E0B"></path>
            <path d="M34.4651163,19.9047619 C31.9645814,19.9047619 29.9302326,17.875381 29.9302326,15.3809524 C29.9302326,12.8865238 31.9645814,10.8571429 34.4651163,10.8571429 C36.9656512,10.8571429 39,12.8865238 39,15.3809524 C39,17.875381 36.9656512,19.9047619 34.4651163,19.9047619 Z" id="Path" fill="#5D50D8"></path>
            <path d="M4.53488372,12.6666667 C2.03434884,12.6666667 0,10.6372857 0,8.14285714 C0,5.64842857 2.03434884,3.61904762 4.53488372,3.61904762 C7.0354186,3.61904762 9.06976744,5.64842857 9.06976744,8.14285714 C9.06976744,10.6372857 7.0354186,12.6666667 4.53488372,12.6666667 Z" id="Path" fill="#5D50D8"></path>
            <path d="M5.44186047,38 C2.94132558,38 0.906976744,35.970619 0.906976744,33.4761905 C0.906976744,30.9817619 2.94132558,28.952381 5.44186047,28.952381 C7.94239535,28.952381 9.97674419,30.9817619 9.97674419,33.4761905 C9.97674419,35.970619 7.94239535,38 5.44186047,38 Z" id="Path" fill="#F59E0B"></path>
            <path d="M29.0232558,38 C26.5227209,38 24.4883721,35.970619 24.4883721,33.4761905 C24.4883721,30.9817619 26.5227209,28.952381 29.0232558,28.952381 C31.5237907,28.952381 33.5581395,30.9817619 33.5581395,33.4761905 C33.5581395,35.970619 31.5237907,38 29.0232558,38 Z" id="Path" fill="#5D50D8"></path>
        </g>
    </g>
</svg>