<svg xmlns="http://www.w3.org/2000/svg" width="54" height="54"><g fill="none" fill-rule="evenodd"><rect width="54" height="54" fill="#F1F5F9" rx="5"/><g fill-rule="nonzero"><path fill="#F59E0B" d="M16.163 39.667a.902.902 0 0 1-.59-.218.9.9 0 0 1-.098-1.275l5.442-6.334a.906.906 0 0 1 1.376 1.178l-5.442 6.333a.904.904 0 0 1-.688.316Zm11.381-17.57a.904.904 0 0 1-.897-1.04l.63-4.145a.902.902 0 0 1 1.032-.76.904.904 0 0 1 .761 1.03l-.63 4.145a.906.906 0 0 1-.896.77Z"/><path fill="#CBD5E1" d="M32.487 26.754a.905.905 0 0 1-.203-1.786l5.784-1.327a.904.904 0 1 1 .407 1.763l-5.783 1.327a.934.934 0 0 1-.205.023Zm1.659 12.008a.906.906 0 0 1-.757-.405l-3.596-5.429a.904.904 0 0 1 .256-1.254.908.908 0 0 1 1.257.255l3.596 5.429a.904.904 0 0 1-.756 1.404Z"/><path fill="#F59E0B" d="M26.593 34.238c-3.751 0-6.802-3.044-6.802-6.786 0-3.742 3.05-6.785 6.802-6.785 3.751 0 6.802 3.043 6.802 6.785s-3.05 6.786-6.802 6.786Zm2.267-17.19c-2.5 0-4.534-2.03-4.534-4.524A4.534 4.534 0 0 1 28.86 8a4.535 4.535 0 0 1 4.535 4.524 4.534 4.534 0 0 1-4.535 4.524Z"/><path fill="#5D50D8" d="M42.465 27.905c-2.5 0-4.535-2.03-4.535-4.524a4.534 4.534 0 0 1 4.535-4.524c2.5 0 4.535 2.03 4.535 4.524a4.534 4.534 0 0 1-4.535 4.524Zm-29.93-7.238c-2.5 0-4.535-2.03-4.535-4.524a4.534 4.534 0 0 1 4.535-4.524c2.5 0 4.535 2.03 4.535 4.524a4.534 4.534 0 0 1-4.535 4.524Z"/><path fill="#F59E0B" d="M13.442 46c-2.5 0-4.535-2.03-4.535-4.524a4.534 4.534 0 0 1 4.535-4.524c2.5 0 4.535 2.03 4.535 4.524A4.534 4.534 0 0 1 13.442 46Z"/><path fill="#5D50D8" d="M37.023 46c-2.5 0-4.535-2.03-4.535-4.524a4.534 4.534 0 0 1 4.535-4.524c2.5 0 4.535 2.03 4.535 4.524A4.534 4.534 0 0 1 37.023 46Z"/></g></g></svg>