<?xml version="1.0" encoding="UTF-8"?>
<svg width="54px" height="54px" viewBox="0 0 54 54" version="1.1" xmlns="http://www.w3.org/2000/svg" xmlns:xlink="http://www.w3.org/1999/xlink">
    <title>fast-path</title>
    <g id="fast-path" stroke="none" stroke-width="1" fill="none" fill-rule="evenodd">
        <g id="Group" transform="translate(12, 9)" fill-rule="nonzero">
            <polygon id="Path" fill="#A5B4FC" points="26.2233454 10.57416 24.2489338 8.58489065 26.4515874 6.3656618 28.4259991 8.35493111"></polygon>
            <rect id="Rectangle" fill="#A5B4FC" x="12.630706" y="2.38712318" width="4.7385879" height="4.77424635"></rect>
            <path d="M30,19.8871232 C30,28.2333015 23.2838414,35 15,35 C6.71615858,35 0,28.2333015 0,19.8871232 C0,11.5409448 6.71615858,4.77424635 15,4.77424635 C23.2838414,4.77424635 30,11.5409448 30,19.8871232" id="Path" fill="#CBD5E1"></path>
            <path d="M15.9512106,10.8502524 L18.1850413,13.1008145 L13.0488674,18.2767156 C13.1171501,18.5367263 13.1535302,18.8097967 13.1535302,19.0914155 C13.1535302,20.845951 11.7414311,22.2686764 10,22.2686764 C8.25856895,22.2686764 6.84646975,20.845951 6.84646975,19.0914155 C6.84646975,17.3368799 8.25856895,15.9141545 10,15.9141545 C10.2826275,15.9141545 10.5565803,15.9516291 10.8172299,16.0219148 L15.9512106,10.8502524 Z" id="Combined-Shape" fill="#4338CA" transform="translate(12.5158, 16.5595) scale(-1, 1) translate(-12.5158, -16.5595)"></path>
            <polygon id="Path" fill="#A5B4FC" points="19.7385879 3.1828309 10.2614121 3.1828309 10.2614121 0 19.7385879 0"></polygon>
        </g>
    </g>
</svg>