<?xml version="1.0" encoding="UTF-8"?>
<svg width="76px" height="76px" viewBox="0 0 76 76" version="1.1" xmlns="http://www.w3.org/2000/svg" xmlns:xlink="http://www.w3.org/1999/xlink">
    <title>fusionauth-cloud</title>
    <defs>
        <linearGradient x1="-3.88578059e-14%" y1="100%" x2="100%" y2="2.77555756e-15%" id="linearGradient-1">
            <stop stop-color="#DDE7EC" offset="0%"></stop>
            <stop stop-color="#E7F6FD" offset="100%"></stop>
        </linearGradient>
    </defs>
    <g id="fusionauth-cloud" stroke="none" stroke-width="1" fill="none" fill-rule="evenodd">
        <rect id="Rectangle" fill="url(#linearGradient-1)" x="0" y="0" width="76" height="76" rx="12"></rect>
        <g id="Group" transform="translate(19, 19)">
            <path d="M25,22 C25,18.6862915 22.3137085,16 19,16 C15.6862915,16 13,18.6862915 13,22 L13,28 L10.0928223,28 C4.51442206,28 0,23.4238094 0,18.1563793 C0,14.3396785 2.30851116,11.1634914 5.99641113,9.73376042 C7.44231098,3.8153378 12.9846002,0.0441162724 19,0.000366844171 C26.2029007,-0.0521324658 32.3570013,5.53729468 32.3,12.2502061 C32.3,12.2672684 32.3005346,12.3197679 32.3010024,12.395246 L32.3010915,12.7901804 L32.3,12.9064478 C35.623101,14.1541823 38,16.9488956 38,20.1251035 C38,24.5297951 33.6945986,28 28.5,28 L25,28 Z" id="Combined-Shape" fill="#0EA5E9" fill-rule="nonzero"></path>
            <path d="M8.5,36 C7.3954305,36 6.5,35.1045695 6.5,34 C6.5,32.8954305 7.3954305,32 8.5,32 L17,32 L17,22 C17,20.8954305 17.8954305,20 19,20 C20.1045695,20 21,20.8954305 21,22 L21,32 L29.5,32 C30.6045695,32 31.5,32.8954305 31.5,34 C31.5,35.1045695 30.6045695,36 29.5,36 L8.5,36 Z" id="Combined-Shape" fill="#0369A1" fill-rule="nonzero"></path>
            <rect id="Rectangle" fill="#0EA5E9" x="15" y="30" width="8" height="8" rx="4"></rect>
        </g>
    </g>
</svg>