<?xml version="1.0" encoding="UTF-8"?>
<svg width="54px" height="54px" viewBox="0 0 54 54" version="1.1" xmlns="http://www.w3.org/2000/svg" xmlns:xlink="http://www.w3.org/1999/xlink">
    <title>fusionauth-cloud</title>
    <g id="fusionauth-cloud" stroke="none" stroke-width="1" fill="none" fill-rule="evenodd">
        <rect id="Rectangle" fill="#F1F5F9" x="0" y="0" width="54" height="54" rx="5"></rect>
        <g id="icons8-cloud-storage-50" transform="translate(10, 10)" fill-rule="nonzero">
            <path d="M0,22.7368421 L0,32.2105263 C0,34.3032632 1.69418919,36 3.78378378,36 L30.2702702,36 C32.3598648,36 34.054054,34.3032632 34.054054,32.2105263 L34.054054,22.7368421 L0,22.7368421 Z" id="Path" fill="#607799"></path>
            <path d="M34.054054,22.7368421 C34.054054,24.8295789 32.3598648,26.5263158 30.2702702,26.5263158 L3.78378378,26.5263158 C1.69418919,26.5263158 0,24.8295789 0,22.7368421 L2.83783783,11.3684211 C3.04499999,9.38463158 4.53202702,7.57894737 6.62162161,7.57894737 L27.4324324,7.57894737 C29.522027,7.57894737 30.921081,9.23684211 31.2162161,11.3684211 L34.054054,22.7368421 Z" id="Path" fill="#9DB1C8"></path>
            <path d="M27.4324324,29.3684211 C26.3875693,29.3684211 25.5405405,30.2167236 25.5405405,31.2631579 C25.5405405,32.3095922 26.3875693,33.1578947 27.4324324,33.1578947 C28.4772954,33.1578947 29.3243243,32.3095922 29.3243243,31.2631579 C29.3243243,30.2167236 28.4772954,29.3684211 27.4324324,29.3684211 Z" id="Path" fill="#FFFFFF"></path>
            <path d="M18.4695946,0 C21.0599842,0 23.2102139,1.83921592 23.6240373,4.25258261 L23.7649177,4.09401746 C24.5124171,3.30532816 25.57207,2.84210526 26.6993243,2.84210526 C28.1271797,2.84210526 29.4465725,3.58532066 30.1605002,4.79178946 C30.3968608,5.19121616 30.5549694,5.62132892 30.6348258,6.06180922 C30.8532439,6.02045552 31.0795422,5.99968421 31.3108107,5.99968421 C32.6288311,5.99968421 33.8467322,6.68602087 34.5057424,7.80015787 C35.1647525,8.91429488 35.1647525,10.2869683 34.5057424,11.4011053 C33.8467322,12.5152423 32.6288311,13.2015789 31.3108107,13.2015789 C30.8667918,13.2015789 30.441094,13.1250134 30.0468191,12.9846706 C29.9853424,13.4427606 29.8315072,13.8920692 29.5868234,14.3057369 C28.9278133,15.4198739 27.7099122,16.1062105 26.3918918,16.1062105 C25.3826621,16.1062105 24.4321344,15.7037965 23.7462771,15.01504 C23.6540035,15.3194218 23.5231045,15.6164551 23.3557986,15.8992106 C22.5869533,17.1985974 21.1660688,17.9990526 19.6283783,17.9990526 C18.0906879,17.9990526 16.6698033,17.1985974 15.9009581,15.8992106 C15.5164472,15.2493678 15.3242359,14.5241095 15.3243242,13.7988685 C14.8357592,13.9854821 14.3069303,14.0854737 13.7635135,14.0854737 C12.2258231,14.0854737 10.8049385,13.2848379 10.0360933,11.9851579 C9.26724804,10.685478 9.26724804,9.08420624 10.0360933,7.78452629 C10.7237826,6.62203478 11.9331235,5.85879398 13.281112,5.71061782 C13.2558076,5.51061281 13.2432432,5.30705418 13.2432432,5.10063158 C13.2432432,2.28363054 15.5831604,0 18.4695946,0 Z" id="Combined-Shape" fill="#6366F1"></path>
        </g>
    </g>
</svg>