<svg xmlns="http://www.w3.org/2000/svg" width="54" height="54"><g fill="none" fill-rule="evenodd"><rect width="54" height="54" fill="#F1F5F9" rx="5"/><g fill-rule="nonzero"><path fill="#607799" d="M10 32.737v9.474A3.787 3.787 0 0 0 13.784 46H40.27a3.787 3.787 0 0 0 3.784-3.79v-9.473H10Z"/><path fill="#9DB1C8" d="M44.054 32.737a3.787 3.787 0 0 1-3.784 3.79H13.784A3.787 3.787 0 0 1 10 32.736l2.838-11.369c.207-1.983 1.694-3.79 3.784-3.79h20.81c2.09 0 3.49 1.659 3.784 3.79l2.838 11.369Z"/><path fill="#FFF" d="M37.432 39.368a1.893 1.893 0 0 0-1.891 1.895c0 1.047.847 1.895 1.891 1.895a1.893 1.893 0 0 0 1.892-1.895 1.893 1.893 0 0 0-1.892-1.895Z"/><path fill="#6366F1" d="M28.47 10c2.59 0 4.74 1.84 5.154 4.253l.14-.159a4.043 4.043 0 0 1 2.935-1.252c1.428 0 2.748.743 3.462 1.95.236.4.394.83.474 1.27.218-.042.445-.062.676-.062 1.318 0 2.536.686 3.195 1.8a3.526 3.526 0 0 1 0 3.601 3.707 3.707 0 0 1-3.195 1.8 3.77 3.77 0 0 1-1.264-.216 3.511 3.511 0 0 1-.46 1.32 3.707 3.707 0 0 1-3.195 1.801c-1.01 0-1.96-.402-2.646-1.091a4.039 4.039 0 0 1-.39.884c-.769 1.3-2.19 2.1-3.728 2.1-1.537 0-2.958-.8-3.727-2.1a4.119 4.119 0 0 1-.577-2.1 4.375 4.375 0 0 1-1.56.286c-1.538 0-2.96-.8-3.728-2.1a4.113 4.113 0 0 1 0-4.2 4.312 4.312 0 0 1 3.245-2.074 4.858 4.858 0 0 1-.038-.61c0-2.817 2.34-5.101 5.227-5.101Z"/></g></g></svg>