<svg xmlns="http://www.w3.org/2000/svg" width="70" height="70"><defs><linearGradient id="a" x1="0%" x2="100%" y1="32.473%" y2="67.527%"><stop offset="0%" stop-color="#A4AEBE"/><stop offset="100%" stop-color="#2D53F5"/></linearGradient></defs><path fill="url(#a)" d="M47.654 0c6.64 0 11.511 4.755 12.773 10.118l4.357 18.517c1.182 5.024-2.63 9.849-7.8 9.849a6.32 6.32 0 0 1-5.396-3.055l-3.355-5.592a3.21 3.21 0 0 0-2.74-1.552H19.508a3.21 3.21 0 0 0-2.74 1.551l-3.356 5.594a6.319 6.319 0 0 1-5.393 3.054c-5.163 0-8.986-4.816-7.801-9.85l4.356-18.516C5.746 5.129 10.344 0 17.346 0h30.308Zm0 3.809H17.346a9.278 9.278 0 0 0-9.066 7.18L3.924 29.508c-.621 2.638 1.385 5.168 4.092 5.168.869 0 1.684-.462 2.13-1.204l3.356-5.594a7.037 7.037 0 0 1 6.005-3.4h25.987a7.036 7.036 0 0 1 6.005 3.4l3.355 5.593a2.493 2.493 0 0 0 2.128 1.205c2.713 0 4.715-2.531 4.095-5.168L56.72 10.99a9.278 9.278 0 0 0-9.066-7.181Zm-27.392 4.35c1.051 0 1.904.852 1.904 1.904v2.175h2.175a1.904 1.904 0 1 1 0 3.809h-2.175v2.175a1.904 1.904 0 0 1-3.809 0v-2.175h-2.175a1.904 1.904 0 1 1 0-3.809h2.175v-2.175c0-1.052.853-1.904 1.905-1.904Zm24.476 8.158a1.905 1.905 0 1 1 0 3.81 1.905 1.905 0 0 1 0-3.81Zm-4.079-4.079a1.904 1.904 0 1 1 0 3.809 1.904 1.904 0 0 1 0-3.809Zm8.159 0a1.904 1.904 0 1 1 0 3.809 1.904 1.904 0 0 1 0-3.809Zm-4.08-4.08a1.904 1.904 0 1 1 0 3.81 1.904 1.904 0 0 1 0-3.81Z" transform="translate(2.001 17.499)"/></svg>