<?xml version="1.0" encoding="UTF-8"?>
<svg width="54px" height="54px" viewBox="0 0 54 54" version="1.1" xmlns="http://www.w3.org/2000/svg" xmlns:xlink="http://www.w3.org/1999/xlink">
    <title>gaming-entertainment</title>
    <g id="gaming-entertainment" stroke="none" stroke-width="1" fill="none" fill-rule="evenodd">
        <rect id="Rectangle" fill="#F1F5F9" x="0" y="0" width="54" height="54" rx="5"></rect>
        <g id="Group" transform="translate(9, 15)" fill-rule="nonzero">
            <path d="M28.5,15 L7.5,15 L7.5,0 L28.5,0 C32.625,0 36,3.375 36,7.5 L36,7.5 C36,11.625 32.625,15 28.5,15 Z" id="Path" fill="#CBD5E1"></path>
            <path d="M30.75,24 L30.75,24 C33.675,24 36,21.675 36,18.75 L36,7.5 C36,3.375 32.625,0 28.5,0 L28.5,0 C23.175,0 19.575,5.475 21.6,10.425 L25.95,20.775 C26.775,22.725 28.65,24 30.75,24 Z" id="Path" fill="#F58320"></path>
            <path d="M36,7.5 C36,3.375 32.625,0 28.5,0 C23.175,0 19.575,5.475 21.6,10.425 L23.55,15 L28.5,15 C32.625,15 36,11.625 36,7.5 Z" id="Path" fill="#F58320"></path>
            <path d="M5.25,24 L5.25,24 C2.325,24 0,21.675 0,18.75 L0,7.5 C0,3.375 3.375,0 7.5,0 L7.5,0 C12.825,0 16.425,5.475 14.4,10.425 L10.05,20.775 C9.225,22.725 7.35,24 5.25,24 Z" id="Path" fill="#CBD5E1"></path>
            <circle id="Oval" fill="#FFFFFF" cx="28.5" cy="4.5" r="1.5"></circle>
            <rect id="Rectangle" fill="#4338CA" x="5.25" y="3.75" width="3" height="7.5"></rect>
            <rect id="Rectangle" fill="#4338CA" x="3" y="6" width="7.5" height="3"></rect>
            <circle id="Oval" fill="#FFFFFF" cx="28.5" cy="10.5" r="1.5"></circle>
            <circle id="Oval" fill="#FFFFFF" cx="31.5" cy="7.5" r="1.5"></circle>
            <circle id="Oval" fill="#FFFFFF" cx="25.5" cy="7.5" r="1.5"></circle>
        </g>
    </g>
</svg>