<?xml version="1.0" encoding="UTF-8"?>
<svg width="76px" height="76px" viewBox="0 0 76 76" version="1.1" xmlns="http://www.w3.org/2000/svg" xmlns:xlink="http://www.w3.org/1999/xlink">
    <title>gaming-entertainment-dark</title>
    <defs>
        <linearGradient x1="2.77555756e-15%" y1="100%" x2="100%" y2="2.77555756e-15%" id="linearGradient-1">
            <stop stop-color="#112C38" offset="0%"></stop>
            <stop stop-color="#19555B" offset="100%"></stop>
        </linearGradient>
        <filter x="-96.1%" y="-126.8%" width="292.1%" height="360.7%" filterUnits="objectBoundingBox" id="filter-2">
            <feOffset dx="0" dy="1" in="SourceAlpha" result="shadowOffsetOuter1"></feOffset>
            <feGaussianBlur stdDeviation="12" in="shadowOffsetOuter1" result="shadowBlurOuter1"></feGaussianBlur>
            <feColorMatrix values="0 0 0 0 0   0 0 0 0 0   0 0 0 0 0  0 0 0 0.5 0" type="matrix" in="shadowBlurOuter1" result="shadowMatrixOuter1"></feColorMatrix>
            <feMerge>
                <feMergeNode in="shadowMatrixOuter1"></feMergeNode>
                <feMergeNode in="SourceGraphic"></feMergeNode>
            </feMerge>
        </filter>
    </defs>
    <g id="gaming-entertainment-dark" stroke="none" stroke-width="1" fill="none" fill-rule="evenodd">
        <rect id="Rectangle-Copy-8" fill="url(#linearGradient-1)" x="0" y="0" width="76" height="76" rx="12"></rect>
        <g id="controller-fill" filter="url(#filter-2)" transform="translate(19, 24)" fill-rule="nonzero">
            <path d="M10.417528,0 C6.70803718,0 3.2762916,2.71602052 2.64480071,6.23352051 L0.0538916154,20.6710205 L0,21 C0,24.8657494 3.09337271,28 6.90909091,28 C9.33418231,28 11.8074633,26.6717503 13.1704545,24.5 C14.0104264,24.4930005 23.6441177,24.4947495 24.8295455,24.5 C25.9707543,26.5650005 28.6193536,28 31.0909091,28 C34.9066285,28 38,24.8657494 38,21 L37.9461084,20.6710205 L35.3551993,6.23352051 C34.7237074,2.71602052 31.2919632,0 27.582472,0 C25.436854,0 12.563146,0 10.417528,0 Z" id="Vector" fill="#14B8A6"></path>
            <path d="M12.0909091,7.00384521 C11.1369364,7.00384521 10.3636364,7.78784513 10.3636364,8.75384521 L10.3636364,10.5038452 L8.63636364,10.5038452 C7.68239095,10.5038452 6.90909091,11.2878451 6.90909091,12.2538452 C6.90909091,13.2198453 7.68239095,14.0038452 8.63636364,14.0038452 L10.3636364,14.0038452 L10.3636364,15.7538452 C10.3636364,16.7198453 11.1369364,17.5038452 12.0909091,17.5038452 C13.0448818,17.5038452 13.8181818,16.7198453 13.8181818,15.7538452 L13.8181818,14.0038452 L15.5454545,14.0038452 C16.4994264,14.0038452 17.2727273,13.2198453 17.2727273,12.2538452 C17.2727273,11.2878451 16.4994264,10.5038452 15.5454545,10.5038452 L13.8181818,10.5038452 L13.8181818,8.75384521 C13.8181818,7.78784513 13.0448818,7.00384521 12.0909091,7.00384521 Z M25.9090909,7.00384521 C24.955119,7.00384521 24.1818182,7.78784513 24.1818182,8.75384521 C24.1818182,9.71984529 24.955119,10.5038452 25.9090909,10.5038452 C26.8630628,10.5038452 27.6363636,9.71984529 27.6363636,8.75384521 C27.6363636,7.78784513 26.8630628,7.00384521 25.9090909,7.00384521 Z M22.4545455,10.5038452 C21.5005736,10.5038452 20.7272727,11.2878451 20.7272727,12.2538452 C20.7272727,13.2198453 21.5005736,14.0038452 22.4545455,14.0038452 C23.4085173,14.0038452 24.1818182,13.2198453 24.1818182,12.2538452 C24.1818182,11.2878451 23.4085173,10.5038452 22.4545455,10.5038452 Z M29.3636364,10.5038452 C28.4096645,10.5038452 27.6363636,11.2878451 27.6363636,12.2538452 C27.6363636,13.2198453 28.4096645,14.0038452 29.3636364,14.0038452 C30.3176082,14.0038452 31.0909091,13.2198453 31.0909091,12.2538452 C31.0909091,11.2878451 30.3176082,10.5038452 29.3636364,10.5038452 Z M25.9090909,14.0038452 C24.955119,14.0038452 24.1818182,14.7878451 24.1818182,15.7538452 C24.1818182,16.7198453 24.955119,17.5038452 25.9090909,17.5038452 C26.8630628,17.5038452 27.6363636,16.7198453 27.6363636,15.7538452 C27.6363636,14.7878451 26.8630628,14.0038452 25.9090909,14.0038452 Z" id="Vector" fill="#5EEAD4"></path>
        </g>
    </g>
</svg>