<?xml version="1.0" encoding="UTF-8"?>
<svg width="54px" height="54px" viewBox="0 0 54 54" version="1.1" xmlns="http://www.w3.org/2000/svg" xmlns:xlink="http://www.w3.org/1999/xlink">
    <title>gaming-entertaiment</title>
    <defs>
        <polygon id="path-1" points="0 0 41 0 41 29 0 29"></polygon>
    </defs>
    <g id="gaming-entertaiment" stroke="none" stroke-width="1" fill="none" fill-rule="evenodd">
        <rect id="Rectangle" fill="#F1F5F9" x="0" y="0" width="54" height="54" rx="5"></rect>
        <g id="Group-14" transform="translate(7, 12)">
            <g id="Group-3">
                <mask id="mask-2" fill="white">
                    <use xlink:href="#path-1"></use>
                </mask>
                <g id="Clip-2"></g>
                <path d="M20.4912858,0.126078916 C23.0633343,0.126078916 25.6582737,-0.0916811479 28.2027595,0.170309021 C33.9200664,0.759170453 38.6086786,5.3933142 39.4568924,11.0140821 C39.9636094,14.3721796 40.4468126,17.7338217 40.9275242,21.095772 C41.4133746,24.4948633 39.4156262,27.6624785 36.1622972,28.678384 C32.9236059,29.6898201 29.5284148,28.258275 27.9324274,25.1939147 C27.1670573,23.7246122 26.4177264,22.2469876 25.6831891,20.7622739 C25.5123629,20.4169093 25.3110153,20.2743558 24.9092544,20.2766675 C21.9737525,20.2933115 19.0380948,20.2928492 16.1027486,20.2771298 C15.7086181,20.2749722 15.4945013,20.3984158 15.3208721,20.7497909 C14.5875805,22.2346587 13.8332666,23.7093551 13.0731911,25.1808152 C11.5225185,28.1829143 8.26591931,29.6190828 5.04793899,28.7298573 C1.85207109,27.8469504 -0.339083095,24.8949377 0.0432126562,21.5804538 C0.493558608,17.6775709 1.01102043,13.7668282 1.8104935,9.922816 C2.98042751,4.29773296 8.37165406,0.107123157 14.1909584,0.016043045 C16.2905485,-0.016782782 18.3909172,0.0108032417 20.4909744,0.0108032417 C20.4911301,0.0491770958 20.4911301,0.0877050618 20.4912858,0.126078916" id="Fill-1" fill="#CBD5E1" mask="url(#mask-2)"></path>
            </g>
            <path d="M14.6846686,9.33844352 C15.3057456,9.33844352 15.8157557,9.32239999 16.3243736,9.34183734 C17.3142294,9.37978646 17.9945523,10.0577799 18,10.9869164 C18.0053805,11.9277769 17.3563049,12.6023766 16.3526817,12.6585289 C15.8210151,12.688302 15.2862547,12.6639282 14.6848233,12.6639282 C14.6848233,13.2435008 14.6927125,13.7269664 14.6832764,14.2101235 C14.6627028,15.2492507 13.9980035,15.9733693 13.0516153,15.9992858 C12.10631,16.0252023 11.3979884,15.3436607 11.328997,14.301294 C11.2954295,13.7940716 11.3232735,13.2828383 11.3232735,12.6668592 C10.7311235,12.6668592 10.2217321,12.6852167 9.71435172,12.6630026 C8.65705141,12.6168774 7.98539115,11.9449003 8.0002413,10.9761178 C8.01509146,10.0085695 8.69727059,9.36883367 9.76416162,9.33828925 C10.2471011,9.32455969 10.7308141,9.33597528 11.3214172,9.33597528 C11.3214172,8.75316315 11.3064124,8.24810044 11.324511,7.74411759 C11.3621005,6.69666011 12.0379374,6.0009262 12.9962366,6 C13.930095,5.99922929 14.6453776,6.72920996 14.6817295,7.74041523 C14.6990547,8.22573206 14.6846686,8.71197447 14.6846686,9.33844352" id="Fill-4" fill="#607799"></path>
            <path d="M31.5453113,14.3611364 C31.5332317,15.2685308 30.8070933,15.9974165 29.9125948,16 C29.0165863,16.0027202 28.2653827,15.2548927 28.2727815,14.3675009 C28.2801803,13.472684 29.028666,12.7244018 29.9133498,12.7272727 C30.8224949,12.7303117 31.55724,13.4658649 31.5453113,14.3611364" id="Fill-6" fill="#607799"></path>
            <path d="M28.2742074,7.57078591 C28.3129906,6.68634684 29.1004251,5.96127297 29.9784041,6.00160521 C30.8932044,6.04344801 31.5906982,6.79858224 31.5431624,7.6957101 C31.4957775,8.59193161 30.7223773,9.3099058 29.8457565,9.27123519 C28.9582704,9.23226247 28.2355751,8.45024009 28.2742074,7.57078591" id="Fill-8" fill="#312E81"></path>
            <path d="M26.6544501,9.45459638 C27.5912347,9.46175357 28.2763708,10.1595033 28.2727273,11.1027293 C28.269207,12.0136719 27.5404782,12.7309136 26.6218318,12.7272727 C25.6984604,12.7234518 24.99229,12.0060579 25.0000636,11.0792781 C25.0075322,10.1640717 25.7370231,9.44759147 26.6544501,9.45459638" id="Fill-10" fill="#2DADFC"></path>
            <path d="M34.818086,11.1070948 C34.8086405,12.0374995 34.0980924,12.7354171 33.1684689,12.7272009 C32.2514902,12.7191369 31.5380476,11.9920063 31.5455126,11.073165 C31.5528253,10.1613228 32.2831785,9.44879865 33.2048799,9.45458039 C34.1375504,9.46020999 34.8275315,10.1671045 34.818086,11.1070948" id="Fill-12" fill="#F43F5E"></path>
        </g>
    </g>
</svg>