<svg xmlns="http://www.w3.org/2000/svg" width="36" height="36"><mask id="a" fill="#fff"><path fill-rule="evenodd" d="M0 0h36v36H0z"/></mask><g fill="none" mask="url(#a)"><g transform="translate(3 3)"><circle cx="15.5" cy="15.5" r="15.5" fill="#639"/><path fill="#fff" d="M6.864 24.136C4.54 21.81 3.321 18.71 3.321 15.72L15.39 27.68c-3.1-.111-6.2-1.218-8.525-3.543zm11.293 3.21L3.654 12.843C4.87 7.418 9.743 3.32 15.5 3.32c4.096 0 7.64 1.993 9.854 4.983l-1.661 1.439C21.81 7.196 18.82 5.536 15.5 5.536c-4.318 0-7.971 2.768-9.41 6.643L18.82 24.91c3.211-1.107 5.647-3.875 6.422-7.197h-5.314V15.5h7.75c0 5.757-4.097 10.629-9.522 11.846z"/></g></g></svg>