<svg xmlns="http://www.w3.org/2000/svg" width="36" height="36"><mask id="a" fill="#fff"><path fill-rule="evenodd" d="M0 0h36v36H0z"/></mask><g fill="#00acd7" fill-rule="evenodd" mask="url(#a)"><path d="M22.426 14.91c-.64.163-1.166.303-1.702.445-.427.114-.861.229-1.363.358l-.03.008c-.245.066-.27.073-.499-.19-.274-.31-.474-.51-.857-.693-1.15-.566-2.263-.402-3.303.273-1.24.803-1.879 1.989-1.86 3.467.018 1.46 1.021 2.664 2.462 2.864 1.241.165 2.28-.273 3.102-1.204.122-.149.233-.308.358-.484l.135-.19h-3.522c-.383 0-.474-.238-.346-.548.237-.566.675-1.515.93-1.989a.493.493 0 0 1 .456-.292h5.872c.263-.835.691-1.625 1.262-2.372 1.332-1.751 2.937-2.663 5.108-3.047 1.861-.328 3.613-.146 5.2.93 1.442.986 2.336 2.318 2.573 4.07.31 2.463-.402 4.47-2.098 6.185-1.205 1.222-2.682 1.988-4.38 2.335-.323.06-.647.088-.965.116-.166.015-.331.03-.494.048-1.66-.036-3.174-.51-4.451-1.605-.899-.777-1.517-1.731-1.825-2.842a7.7 7.7 0 0 1-.766 1.236c-1.314 1.733-3.029 2.81-5.2 3.102-1.788.237-3.448-.11-4.908-1.205-1.35-1.021-2.116-2.371-2.317-4.05-.237-1.989.347-3.777 1.55-5.346 1.296-1.696 3.011-2.773 5.11-3.156 1.715-.31 3.357-.11 4.834.894.967.639 1.66 1.514 2.117 2.572.11.165.036.256-.183.31zm-20.598.329c-.073 0-.091-.036-.055-.091l.383-.493c.037-.055.128-.091.201-.091h6.514c.072 0 .09.055.054.11l-.31.474c-.036.055-.128.11-.182.11zm-2.755 1.679c-.073 0-.091-.037-.055-.092l.383-.492c.037-.055.128-.091.201-.091h8.32c.073 0 .11.054.09.109l-.145.438c-.018.073-.091.11-.164.11zm4.36 1.569c-.036.054-.018.11.055.11l3.978.017c.054 0 .127-.054.127-.127l.037-.438c0-.073-.037-.128-.11-.128H3.871c-.073 0-.146.055-.182.11zm29.362-1.053.012.195c-.09 1.57-.875 2.737-2.317 3.485-.967.493-1.97.547-2.973.11-1.314-.584-2.007-2.026-1.68-3.449.402-1.715 1.497-2.791 3.194-3.175 1.733-.4 3.393.62 3.722 2.427.026.13.033.258.042.407z"/></g></svg>