<svg height="36" viewBox="0 0 36 36" width="36" xmlns="http://www.w3.org/2000/svg" xmlns:xlink="http://www.w3.org/1999/xlink"><mask id="a" fill="#fff"><path d="m0 0h36v36h-36z" fill="#fff" fill-rule="evenodd"/></mask><g fill="#00acd7" fill-rule="evenodd" mask="url(#a)"><path d="m23.426328 3.91064016c-.6395.16241-1.1661.30223-1.7022.44459v.00002c-.4275.11352-.8611.22866-1.363.35816l-.0301.00808c-.2452.06587-.2708.07273-.499-.19053-.2736-.31016-.4743-.51085-.8575-.6933-1.1494-.56559-2.2623-.40138-3.3023.27367-1.2406.80277-1.8792 1.98868-1.8609 3.46651.0182 1.45958 1.0217 2.66376004 2.463 2.86446004 1.2407.1642 2.2806-.2737 3.1016-1.20419004.1218-.14884.2335-.30773.3576-.48409l.0004-.00055c.0431-.06126.0876-.12462.1346-.19041h-3.5212c-.3832 0-.4744-.23719-.3467-.54735.2372-.56558.6751-1.51431.9305-1.98868.0548-.10946.1825-.29191.4561-.29191h5.8714c.2637-.83544.6915-1.62487 1.2623-2.37182 1.3318-1.7515 2.9374-2.663734 5.1085-3.046874 1.861-.3284061 3.6124-.145958 5.1997.930484 1.4414.98522 2.3354 2.31708 2.5726 4.06858.3101 2.46304-.4014 4.46997-2.0982 6.18501004-1.2041 1.2224-2.682 1.9886-4.3787 2.3353-.3237.0599-.6474.0884-.9659.1163-.1662.0146-.331.0291-.4937.0478998-1.6603-.0364998-3.1746-.5108998-4.4517-1.6054998-.8982-.7765-1.517-1.7307-1.8244-2.84160004-.2134.43085-.4685.84350004-.7663 1.23600004-1.3136 1.7333-3.0286 2.8097-5.1998 3.1016-1.788.2372-3.4482-.1094-4.9078-1.2041-1.3501-1.0217-2.1164-2.3718-2.31709995-4.05037004-.2372-1.98867.34669995-3.77666 1.55079995-5.34571 1.2954-1.69676 3.0104-2.773204 5.1085-3.156344 1.7151-.310161 3.3571-.1094685 4.8349.893994.967.63857 1.6603 1.51431 2.1164 2.57251.1095.1642.0365.25543-.1824.31016zm-20.59829995.32838c-.07298371 0-.09123-.03649-.05474-.09122l.38314-.49261c.03649-.05474.12772-.09122.20069-.09122h6.51341c.07296296 0 .0912.05473.0547.10946l-.31015.47437c-.03649.05473-.12772.10947-.18245.10947zm-2.755049 1.67855c-.07297904 0-.091224-.03649-.054734-.09122l.38314-.49261c.036489-.05474.127713-.09123.200692-.09123h8.319611c.07298 0 .10947.05474.09122.10947l-.14596.43788c-.01824.07298-.09122.10946-.1642.10946zm4.360469 1.56908c-.03649.05473-.0182463.10947.05473.10947l3.97736.01824c.05474 0 .12771-.05473.12771-.12771l.03649-.43788c0-.07297-.03649-.12771-.10946-.12771h-3.64896c-.07298 0-.14595.05474-.18244.10947zm29.36137995-1.05263c.0035.06128.0073.12585.0126.19509-.0912 1.56905-.8757 2.73672-2.317 3.48479004-.967.4926-1.9705.5473-2.9739.1094-1.3137-.58380004-2.007-2.02514004-1.6786-3.44823004.4014-1.71501 1.4961-2.79145 3.1929-3.17459 1.7332-.40138 3.3935.62032 3.7219 2.42656.0258.12918.0334.25837.0421.40698z" transform="translate(-1 11)"/></g></svg>