<svg xmlns="http://www.w3.org/2000/svg" xmlns:xlink="http://www.w3.org/1999/xlink" width="70" height="70"><linearGradient id="a"><stop offset="0" stop-color="#a4aebe"/><stop offset="1" stop-color="#2d53f5"/></linearGradient><linearGradient xlink:href="#a" id="b" x1="12.444%" x2="87.556%" y1="0%" y2="100%"/><linearGradient xlink:href="#a" id="c" x1="0%" x2="100%" y1="0%" y2="100%"/><g fill="none"><path fill="url(#b)" d="M46.8 0C49.668 0 52 2.35 52 5.238v49.524C52 57.65 49.668 60 46.8 60H8.982C4.029 60 0 55.941 0 50.952V9.048C0 4.058 4.03 0 8.982 0zm0 2.857H10.399v54.285h36.4a2.375 2.375 0 0 0 2.365-2.38V5.238A2.375 2.375 0 0 0 46.8 2.857zM2.836 9.047v41.905a6.193 6.193 0 0 0 4.727 6.024V3.024a6.193 6.193 0 0 0-4.727 6.023zm36.4 40.477c.783 0 1.419.64 1.419 1.428 0 .79-.636 1.429-1.419 1.429H20.327c-.783 0-1.418-.64-1.418-1.429 0-.788.635-1.428 1.418-1.428zm3.782-5.715c.783 0 1.418.64 1.418 1.429s-.635 1.428-1.418 1.428H16.545c-.783 0-1.418-.64-1.418-1.428s.635-1.429 1.418-1.429z" transform="translate(9 5)"/><path fill="url(#c)" stroke="url(#c)" d="M22.192 3.808A12.915 12.915 0 0 0 13 0a12.915 12.915 0 0 0-9.192 3.808A12.915 12.915 0 0 0 0 13c0 3.472 1.352 6.737 3.808 9.192A12.915 12.915 0 0 0 13 26c3.472 0 6.737-1.352 9.192-3.808S26 16.472 26 13a12.91 12.91 0 0 0-3.808-9.192zM6.517 22.465A6.564 6.564 0 0 1 13 17.025a6.564 6.564 0 0 1 6.483 5.44c-1.846 1.268-4.08 2.012-6.483 2.012s-4.637-.744-6.483-2.012zm2.35-11.097c0-2.28 1.854-4.133 4.133-4.133s4.134 1.854 4.134 4.133c0 2.28-1.855 4.134-4.134 4.134s-4.134-1.855-4.134-4.134zm11.935 10.04a8.097 8.097 0 0 0-2.365-3.812 8.097 8.097 0 0 0-2.355-1.487 5.657 5.657 0 0 0 2.575-4.74A5.663 5.663 0 0 0 13 5.71a5.663 5.663 0 0 0-5.657 5.657 5.657 5.657 0 0 0 2.575 4.741 8.099 8.099 0 0 0-2.355 1.487 8.099 8.099 0 0 0-2.365 3.812A11.448 11.448 0 0 1 1.523 13C1.523 6.672 6.672 1.523 13 1.523S24.477 6.672 24.477 13c0 3.318-1.416 6.311-3.675 8.408z" transform="translate(26 15)"/></g></svg>