<?xml version="1.0" encoding="UTF-8"?>
<svg width="54px" height="54px" viewBox="0 0 54 54" version="1.1" xmlns="http://www.w3.org/2000/svg" xmlns:xlink="http://www.w3.org/1999/xlink">
    <title>guide-user-data-security</title>
    <g id="guide-user-data-security" stroke="none" stroke-width="1" fill="none" fill-rule="evenodd">
        <rect id="Rectangle" fill="#F1F5F9" x="0" y="0" width="54" height="54" rx="5"></rect>
        <g id="Group" transform="translate(14, 12)" fill-rule="nonzero">
            <g id="icons8-audio-book">
                <path d="M23.1111111,30 L4.33333333,30 L4.33333333,0 L23.1111111,0 C24.7,0 26,1.35 26,3 L26,27 C26,28.65 24.7,30 23.1111111,30" id="Path" fill="#CBD5E1"></path>
                <path d="M2.88888889,0 L4.33333333,0 L4.33333333,30 L2.88888889,30 C1.3,30 0,28.65 0,27 L0,3 C0,1.35 1.3,0 2.88888889,0" id="Path" fill="#E11D48"></path>
            </g>
            <g id="icons8-user-32" transform="translate(7.4286, 7.5)">
                <ellipse id="Oval" fill="#E11D48" cx="7.42857143" cy="7.5" rx="7.42857143" ry="7.5"></ellipse>
                <ellipse id="Oval" fill="#FFFFFF" cx="7.42857143" cy="5.625" rx="2.78571429" ry="2.8125"></ellipse>
                <path d="M10.2072573,10.4347826 L4.64988558,10.4347826 C3.31982129,10.4347826 2.21019941,11.3578696 1.9378882,12.5886522 C3.29388689,14.0659565 5.24822927,15 7.42857143,15 C9.60891359,15 11.563256,14.0659565 12.9192547,12.5886522 C12.6469434,11.3578696 11.5373216,10.4347826 10.2072573,10.4347826 Z" id="Path" fill="#FFFFFF"></path>
            </g>
        </g>
    </g>
</svg>