<?xml version="1.0" encoding="UTF-8"?>
<svg width="76px" height="76px" viewBox="0 0 76 76" version="1.1" xmlns="http://www.w3.org/2000/svg" xmlns:xlink="http://www.w3.org/1999/xlink">
    <title>icon-customize-docs</title>
    <defs>
        <linearGradient x1="-3.88578059e-14%" y1="100%" x2="100%" y2="2.77555756e-15%" id="linearGradient-1">
            <stop stop-color="#DDE7EC" offset="0%"></stop>
            <stop stop-color="#E7F6FD" offset="100%"></stop>
        </linearGradient>
        <polygon id="path-2" points="0 0 31.6551781 0 31.6551781 31.6519446 0 31.6519446"></polygon>
        <polygon id="path-4" points="0 0 12.6813779 0 12.6813779 12.7269385 0 12.7269385"></polygon>
    </defs>
    <g id="icon-customize-docs" stroke="none" stroke-width="1" fill="none" fill-rule="evenodd">
        <rect id="Rectangle" fill="url(#linearGradient-1)" opacity="0" x="0" y="0" width="76" height="76" rx="12"></rect>
        <g id="Group" transform="translate(19, 19)">
            <g id="Group-3" transform="translate(0, 6.3481)">
                <mask id="mask-3" fill="white">
                    <use xlink:href="#path-2"></use>
                </mask>
                <g id="Clip-2"></g>
                <path d="M0.0354539662,29.5762864 C0.449758206,27.1434539 0.91120741,24.7184793 1.34598876,22.2889805 C1.4045628,21.962047 1.56337943,21.7167874 1.79600888,21.4846242 C8.87156335,14.4166232 15.9447368,7.34624112 23.0069573,0.264905666 C23.3574492,-0.0867918516 23.5567438,-0.0896492451 23.9069975,0.264429434 C26.3804415,2.76583933 28.8662669,5.25534342 31.371617,7.72508388 C31.7733017,8.12083288 31.7304426,8.34251899 31.3551877,8.71659942 C24.3103489,15.7438825 17.2771773,22.7828333 10.2454343,29.8232128 C9.98756563,30.0815688 9.72302999,30.2894442 9.35039428,30.3544499 C6.93790546,30.7756773 4.52708338,31.2054769 2.11507076,31.6293236 C1.97958851,31.6531352 1.83934415,31.6483729 1.78315116,31.6519446 C0.545952983,31.6459917 -0.171936259,30.7942503 0.0354539662,29.5762864 Z" id="Fill-1" fill="#14B8A6" mask="url(#mask-3)"></path>
            </g>
            <g id="Group-11" transform="translate(25.3186, 0)">
                <mask id="mask-5" fill="white">
                    <use xlink:href="#path-4"></use>
                </mask>
                <g id="Clip-10"></g>
                <path d="M11.6289585,9.46823531 C10.6181991,10.4995162 10.649033,10.3744656 9.63874978,11.4062228 C9.38159542,11.6686267 9.21039729,11.6510061 8.95943369,11.3988412 C6.40574808,8.83242556 3.84515739,6.27267721 1.27909027,3.71864365 C1.01479274,3.45576345 0.980505492,3.27146157 1.27028035,2.99072266 C2.30651716,1.98753942 2.23306223,2.07068164 3.27929948,1.07868986 C4.77008043,-0.334767461 6.72350111,-0.366913138 8.22166333,1.02773301 C9.40743064,2.13163937 10.5401003,3.29412229 11.6663412,4.45970073 C12.3997073,5.21857682 12.686863,6.018647 12.6809103,6.97206397 C12.6968634,7.95834096 12.3037506,8.77984159 11.6289585,9.46823531 Z" id="Fill-9" fill="#14B8A6" mask="url(#mask-5)"></path>
            </g>
        </g>
        <path d="M51.2010387,44.1146854 C52.3921312,45.2730136 54.7810229,47.6298218 56.2511767,49.131958 C56.3871523,49.2708917 56.750017,49.8139619 56.750017,50.359436 C56.750017,53.8037625 53.8475612,57 50.2577098,57 C47.6411101,57 45.4579526,56.5818685 43.9206633,56.1604479 C43.151085,55.9494815 42.5399675,55.7367666 42.1131846,55.5729735 C41.875927,55.4819181 41.6391064,55.3871149 41.4100015,55.2781921 C40.9387879,55.0521419 40.6123635,54.6261915 40.528693,54.1314922 C40.4450225,53.6367921 40.6143074,53.1336597 40.9836615,52.779279 C41.6544171,52.1357136 42.182008,51.3884845 42.6841475,50.5625688 C42.8555184,50.2806993 43.0490027,49.9436666 43.2510611,49.5916987 C43.5662544,49.0426595 43.7994998,48.1761507 44.1050264,47.7071241 C44.6620263,46.8520514 45.3614296,45.9639231 46.363192,45.3010587 C47.3976709,44.6165459 48.7436466,43.7188721 50.2577098,43.7188721 C50.6793101,43.7188721 51.0605799,43.9780903 51.2010387,44.1146854 Z" id="Subtract" fill="#0F766E" fill-rule="nonzero" transform="translate(48.6289, 50.3594) scale(-1, 1) translate(-48.6289, -50.3594)"></path>
        <path d="M25.7990809,19.3067732 C29.1441527,19.3067732 31.8558691,22.0184897 31.8558691,25.3635614 C31.8558691,25.536781 31.8484382,25.7099208 31.8335969,25.8825034 L31.3475541,31.5344507 C31.2530812,32.633028 30.2873031,33.4479031 29.1884948,33.3561565 L21.9429371,32.7511784 C20.9663407,32.6696361 20.192682,31.8924727 20.1155545,30.9155177 L19.7185138,25.8863013 C19.4533942,22.5280968 21.9608349,19.5908123 25.3190394,19.3256927 C25.4787427,19.3130846 25.6388807,19.3067732 25.7990809,19.3067732 Z" id="Rectangle" fill="#0F766E" transform="translate(25.7991, 26.4145) scale(-1, 1) rotate(40) translate(-25.7991, -26.4145)"></path>
    </g>
</svg>