<?xml version="1.0" encoding="UTF-8"?>
<svg width="72px" height="72px" viewBox="0 0 72 72" version="1.1" xmlns="http://www.w3.org/2000/svg" xmlns:xlink="http://www.w3.org/1999/xlink">
    <title>icon-life-cycle-docs</title>
    <defs>
        <linearGradient x1="-3.88578059e-14%" y1="100%" x2="100%" y2="2.77555756e-15%" id="linearGradient-1">
            <stop stop-color="#EDC6D0" offset="0%"></stop>
            <stop stop-color="#FDE6E8" offset="100%"></stop>
        </linearGradient>
    </defs>
    <g id="icon-life-cycle-docs" stroke="none" stroke-width="1" fill="none" fill-rule="evenodd">
        <g id="Docs-Icons-/-Light-/docs-categories-get-started-life-cycle-docs-rose-light">
            <rect id="Rectangle-Copy-6" fill="url(#linearGradient-1)" x="0" y="0" width="72" height="72" rx="12"></rect>
            <g id="Group" transform="translate(17, 19)" fill-rule="nonzero">
                <path d="M7.05521984,13.330822 C7.66493019,11.627602 8.65471973,10.0259501 10.0483434,8.65868631 C14.9972911,3.77560132 23.0185455,3.77560132 27.9674932,8.65868631 L29.3215253,10.0025113 L26.6055428,10.0025113 C25.2040008,10.0025113 24.0716816,11.1197611 24.0716816,12.5026508 C24.0716816,13.8855405 25.2040008,15.0027903 26.6055428,15.0027903 L35.4344655,15.0027903 C35.4344655,15.0027903 35.4344655,15.0027903 35.4344655,15.0027903 L35.4661388,15.0027903 C36.8676808,15.0027903 38,13.8855405 38,12.5026508 L38,3.75216251 C38,2.36927284 36.8676808,1.25202299 35.4661388,1.25202299 C34.0645968,1.25202299 32.9322776,2.36927284 32.9322776,3.75216251 L32.9322776,6.50231598 L31.5465722,5.12723924 C24.6180454,-1.70907975 13.3898729,-1.70907975 6.46134611,5.12723924 C4.52927693,7.03359562 3.13565326,9.27590825 2.2804751,11.6744796 C1.81329444,12.9792399 2.51010627,14.4011943 3.82454678,14.8621575 C5.13898729,15.3231207 6.58803917,14.6355823 7.05521984,13.338635 L7.05521984,13.330822 Z" id="Path" fill="#F43F5E"></path>
                <path d="M1.82121275,20.1046375 C1.42529694,20.2218316 1.04521775,20.4327808 0.736403417,20.7452983 C0.419670765,21.0578157 0.205876224,21.4328367 0.0950197958,21.8391093 C0.0712648468,21.9328646 0.0475098979,22.0344327 0.0316732653,22.1360009 C0.00791831632,22.2688208 0,22.4016407 0,22.5344606 L0,31.2536972 C0,32.6365869 1.13231923,33.7538367 2.53386122,33.7538367 C3.93540321,33.7538367 5.06772244,32.6365869 5.06772244,31.2536972 L5.06772244,28.5113567 L6.46134611,29.8786205 L6.46134611,29.8786205 C13.3898729,36.7071265 24.6180454,36.7071265 31.5386539,29.8786205 C33.4707231,27.9722641 34.8722651,25.7299514 35.7274432,23.339193 C36.1946239,22.0344327 35.497812,20.6124784 34.1833715,20.1515152 C32.868931,19.6905519 31.4198791,20.3780903 30.9526985,21.6750377 C30.3429881,23.3782577 29.3531986,24.9799096 27.9595749,26.3471734 C23.0106272,31.2302584 14.9893728,31.2302584 10.0404251,26.3471734 L10.0325068,26.3393605 L8.67847468,25.0033484 L11.4023755,25.0033484 C12.8039175,25.0033484 13.9362367,23.8860986 13.9362367,22.5032089 C13.9362367,21.1203192 12.8039175,20.0030694 11.4023755,20.0030694 L2.56553449,20.0030694 C2.43884143,20.0030694 2.31214836,20.0108823 2.1854553,20.0265082 C2.05876224,20.042134 1.9399875,20.0655729 1.82121275,20.1046375 Z" id="Path" fill="#BE123C"></path>
            </g>
        </g>
    </g>
</svg>