<?xml version="1.0" encoding="UTF-8"?>
<svg width="76px" height="76px" viewBox="0 0 76 76" version="1.1" xmlns="http://www.w3.org/2000/svg" xmlns:xlink="http://www.w3.org/1999/xlink">
    <title>icon-life-cycle-docs</title>
    <defs>
        <linearGradient x1="-3.88578059e-14%" y1="100%" x2="100%" y2="2.77555756e-15%" id="linearGradient-1">
            <stop stop-color="#0F2B45" offset="0%"></stop>
            <stop stop-color="#1C4D6E" offset="100%"></stop>
        </linearGradient>
        <linearGradient x1="2.77555756e-15%" y1="100%" x2="100%" y2="2.77555756e-15%" id="linearGradient-2">
            <stop stop-color="#DDEDEB" offset="0%"></stop>
            <stop stop-color="#E6F9F7" offset="100%"></stop>
        </linearGradient>
        <rect id="path-3" x="0" y="0" width="76" height="76" rx="12"></rect>
    </defs>
    <g id="icon-life-cycle-docs" stroke="none" stroke-width="1" fill="none" fill-rule="evenodd">
        <g id="Rectangle" opacity="0">
            <use fill="url(#linearGradient-1)" xlink:href="#path-3"></use>
            <use fill="url(#linearGradient-2)" xlink:href="#path-3"></use>
        </g>
        <path d="M26.0552198,34.330822 C26.6649302,32.627602 27.6547197,31.0259501 29.0483434,29.6586863 C33.9972911,24.7756013 42.0185455,24.7756013 46.9674932,29.6586863 L48.3215253,31.0025113 L45.6055428,31.0025113 C44.2040008,31.0025113 43.0716816,32.1197611 43.0716816,33.5026508 C43.0716816,34.8855405 44.2040008,36.0027903 45.6055428,36.0027903 L54.4344655,36.0027903 C54.4344655,36.0027903 54.4344655,36.0027903 54.4344655,36.0027903 L54.4661388,36.0027903 C55.8676808,36.0027903 57,34.8855405 57,33.5026508 L57,24.7521625 C57,23.3692728 55.8676808,22.252023 54.4661388,22.252023 C53.0645968,22.252023 51.9322776,23.3692728 51.9322776,24.7521625 L51.9322776,27.502316 L50.5465722,26.1272392 C43.6180454,19.2909203 32.3898729,19.2909203 25.4613461,26.1272392 C23.5292769,28.0335956 22.1356533,30.2759083 21.2804751,32.6744796 C20.8132944,33.9792399 21.5101063,35.4011943 22.8245468,35.8621575 C24.1389873,36.3231207 25.5880392,35.6355823 26.0552198,34.338635 L26.0552198,34.330822 Z" id="Path" fill="#F43F5E" fill-rule="nonzero"></path>
        <path d="M20.8212128,41.1046375 C20.4252969,41.2218316 20.0452178,41.4327808 19.7364034,41.7452983 C19.4196708,42.0578157 19.2058762,42.4328367 19.0950198,42.8391093 C19.0712648,42.9328646 19.0475099,43.0344327 19.0316733,43.1360009 C19.0079183,43.2688208 19,43.4016407 19,43.5344606 L19,52.2536972 C19,53.6365869 20.1323192,54.7538367 21.5338612,54.7538367 C22.9354032,54.7538367 24.0677224,53.6365869 24.0677224,52.2536972 L24.0677224,49.5113567 L25.4613461,50.8786205 L25.4613461,50.8786205 C32.3898729,57.7071265 43.6180454,57.7071265 50.5386539,50.8786205 C52.4707231,48.9722641 53.8722651,46.7299514 54.7274432,44.339193 C55.1946239,43.0344327 54.497812,41.6124784 53.1833715,41.1515152 C51.868931,40.6905519 50.4198791,41.3780903 49.9526985,42.6750377 C49.3429881,44.3782577 48.3531986,45.9799096 46.9595749,47.3471734 C42.0106272,52.2302584 33.9893728,52.2302584 29.0404251,47.3471734 L29.0325068,47.3393605 L27.6784747,46.0033484 L30.4023755,46.0033484 C31.8039175,46.0033484 32.9362367,44.8860986 32.9362367,43.5032089 C32.9362367,42.1203192 31.8039175,41.0030694 30.4023755,41.0030694 L21.5655345,41.0030694 C21.4388414,41.0030694 21.3121484,41.0108823 21.1854553,41.0265082 C21.0587622,41.042134 20.9399875,41.0655729 20.8212128,41.1046375 Z" id="Path" fill="#BE123C" fill-rule="nonzero"></path>
    </g>
</svg>