<?xml version="1.0" encoding="UTF-8"?>
<svg width="72px" height="72px" viewBox="0 0 72 72" version="1.1" xmlns="http://www.w3.org/2000/svg" xmlns:xlink="http://www.w3.org/1999/xlink">
    <title>icon-extend-docs</title>
    <defs>
        <linearGradient x1="-4.65773253e-13%" y1="100%" x2="99.1550911%" y2="-1.37875822e-12%" id="linearGradient-1">
            <stop stop-color="#BCD5E2" offset="0%"></stop>
            <stop stop-color="#E0F2FE" offset="100%"></stop>
        </linearGradient>
    </defs>
    <g id="icon-extend-docs" stroke="none" stroke-width="1" fill="none" fill-rule="evenodd">
        <g id="Docs-Icons-/-Light-/docs-categories-get-started-extend-docs-sky-light">
            <rect id="Rectangle-Copy-6" fill="url(#linearGradient-1)" x="0" y="0" width="72" height="72" rx="12"></rect>
            <g id="Group" transform="translate(17, 17)" fill-rule="nonzero">
                <path d="M7.94590455,-1.27599568 C9.0317864,-1.2804575 9.91572082,-0.402492695 9.92022735,0.685045178 L9.98679423,15.3309294 C9.99128346,16.4184673 9.11465555,17.3037498 8.0287737,17.3082805 C6.94289185,17.3127766 6.05895742,16.4348118 6.0544509,15.3472739 L5.98788401,0.701389629 C5.98339479,-0.386148244 6.8600227,-1.27143071 7.94590455,-1.27599568 Z" id="Path-4" fill="#0369A1" transform="translate(7.9873, 8.0161) rotate(-45) translate(-7.9873, -8.0161)"></path>
                <path d="M12.9961858,0 C14.1004543,0 14.9956409,0.89536135 14.9956409,1.99984555 C14.9956409,3.10432975 14.1004543,3.9996911 12.9961858,3.9996911 L3.99891022,3.9996911 L3.99891022,12.9989188 C3.99891022,14.0531992 3.18325471,14.9169358 2.14867679,14.9932791 L1.99945511,14.9987644 C0.895186544,14.9987644 0,14.103403 0,12.9989188 L0,1.99984555 C0,0.89536135 0.895186544,0 1.99945511,0 L12.9961858,0 Z" id="Path-5" fill="#0EA5E9"></path>
                <path d="M29.9673372,-1.27600175 C31.0532191,-1.28046357 31.9371535,-0.402498764 31.94166,0.685039109 L32.0082269,15.3309234 C32.0127161,16.4184612 31.1360882,17.3037437 30.0502064,17.3082744 C28.9643245,17.3127705 28.0803901,16.4348057 28.0758836,15.3472678 L28.009334,0.70138356 C28.0048275,-0.386154313 28.8814554,-1.27143678 29.9673372,-1.27600175 Z" id="Path-4" fill="#0369A1" transform="translate(30.0088, 8.0161) scale(-1, 1) rotate(-45) translate(-30.0088, -8.0161)"></path>
                <path d="M35.9966705,0 C37.100939,0 37.9961256,0.89536135 37.9961256,1.99984555 C37.9961256,3.10432975 37.100939,3.9996911 35.9966705,3.9996911 L26.9993949,3.9996911 L26.9993949,12.9989188 C26.9993949,14.0531992 26.1837394,14.9169358 25.1491615,14.9932791 L24.9999398,14.9987644 C23.8956712,14.9987644 23.0004847,14.103403 23.0004847,12.9989188 L23.0004847,1.99984555 C23.0004847,0.89536135 23.8956712,0 24.9999398,0 L35.9966705,0 Z" id="Path-5" fill="#0EA5E9" transform="translate(30.4983, 7.4994) scale(-1, 1) translate(-30.4983, -7.4994)"></path>
                <path d="M7.94590455,20.6917192 C9.0317864,20.6872574 9.91572082,21.5652222 9.92022735,22.6527601 L9.98679423,37.2986444 C9.99128346,38.3861822 9.11465555,39.2714647 8.0287737,39.2759954 C6.94289185,39.2804915 6.05895742,38.4025267 6.0544509,37.3149888 L5.98788401,22.6691046 C5.98339479,21.5815667 6.8600227,20.6962842 7.94590455,20.6917192 Z" id="Path-4" fill="#0369A1" transform="translate(7.9873, 29.9839) scale(1, -1) rotate(-45) translate(-7.9873, -29.9839)"></path>
                <path d="M12.9961858,23.0012356 C14.1004543,23.0012356 14.9956409,23.896597 14.9956409,25.0010812 C14.9956409,26.1055654 14.1004543,27.0009267 12.9961858,27.0009267 L3.99891022,27.0009267 L3.99891022,36.0001545 C3.99891022,37.0544348 3.18325471,37.9181714 2.14867679,37.9945147 L1.99945511,38 C0.895186544,38 0,37.1046386 0,36.0001545 L0,25.0010812 C0,23.896597 0.895186544,23.0012356 1.99945511,23.0012356 L12.9961858,23.0012356 Z" id="Path-5" fill="#0EA5E9" transform="translate(7.4978, 30.5006) scale(1, -1) translate(-7.4978, -30.5006)"></path>
                <path d="M29.9673519,20.6917192 C31.0532337,20.6872574 31.9371681,21.5652222 31.9416747,22.6527601 L32.0082415,37.2986444 C32.0127308,38.3861822 31.1361029,39.2714647 30.050221,39.2759954 C28.9643392,39.2804915 28.0804047,38.4025267 28.0758982,37.3149888 L28.0093313,22.6691046 C28.0048421,21.5815667 28.88147,20.6962842 29.9673519,20.6917192 Z" id="Path-4" fill="#0369A1" transform="translate(30.0088, 29.9839) scale(-1, -1) rotate(-45) translate(-30.0088, -29.9839)"></path>
                <path d="M35.9966705,23.0012356 C37.100939,23.0012356 37.9961256,23.896597 37.9961256,25.0010812 C37.9961256,26.1055654 37.100939,27.0009267 35.9966705,27.0009267 L26.9993949,27.0009267 L26.9993949,36.0001545 C26.9993949,37.0544348 26.1837394,37.9181714 25.1491615,37.9945147 L24.9999398,38 C23.8956712,38 23.0004847,37.1046386 23.0004847,36.0001545 L23.0004847,25.0010812 C23.0004847,23.896597 23.8956712,23.0012356 24.9999398,23.0012356 L35.9966705,23.0012356 Z" id="Path-5" fill="#0EA5E9" transform="translate(30.4983, 30.5006) scale(-1, -1) translate(-30.4983, -30.5006)"></path>
            </g>
        </g>
    </g>
</svg>