<?xml version="1.0" encoding="UTF-8"?>
<svg width="72px" height="72px" viewBox="0 0 72 72" version="1.1" xmlns="http://www.w3.org/2000/svg" xmlns:xlink="http://www.w3.org/1999/xlink">
    <title>icon-operate-docs</title>
    <defs>
        <linearGradient x1="100%" y1="7.07767178e-14%" x2="0%" y2="100%" id="linearGradient-1">
            <stop stop-color="#FAE8FF" offset="0%"></stop>
            <stop stop-color="#E2C4E5" offset="100%"></stop>
        </linearGradient>
        <rect id="path-2" x="0" y="0" width="72" height="72" rx="12"></rect>
    </defs>
    <g id="icon-operate-docs" stroke="none" stroke-width="1" fill="none" fill-rule="evenodd">
        <g id="Docs-Icons-/-Light-/docs-categories-get-started-operate-docs-fucsia-light">
            <g id="Rectangle-Copy-6">
                <use fill="#5EEAD4" xlink:href="#path-2"></use>
                <use fill="url(#linearGradient-1)" xlink:href="#path-2"></use>
            </g>
            <g id="gear-fill" transform="translate(16, 17)">
                <path d="M6.5,4.42096187 C8.65600014,2.43399462 11.1019878,0.977918886 13.9379883,0.0884392035 C14.8019886,-0.18494207 15.7639999,0.195437802 16.25,0.954169816 C18.1480007,3.91778166 21.7559891,3.86428258 23.6879883,0.892746497 C24.1719875,0.147881596 25.0819874,-0.169093898 25.9379883,0.0884392035 C28.7239876,0.928393253 31.3820114,2.45974797 33.5620117,4.42096187 C34.2540131,5.04300298 34.3979874,6.02954136 33.9379883,6.83581812 C32.283989,9.72811352 34.1800117,13.0205753 37.5620117,13.0265179 C38.4980125,13.0284997 39.2960014,13.6703629 39.5,14.5737099 C39.8219986,16.0040092 40,17.4758974 40,18.9695896 C40,20.7069481 39.9080124,21.9450754 39.5620117,23.3654702 C39.348011,24.2410821 38.5360222,24.8353899 37.6240234,24.8512389 C34.1880226,24.9086872 32.2739868,27.9634272 33.9379883,31.2895658 C34.3339882,32.081975 34.1599998,33.0467558 33.5,33.6410655 C31.3579998,35.5765253 28.7740002,37.048408 26,37.9121327 C25.1599998,38.1756078 24.2479992,37.8289489 23.75,37.1078552 C21.6380005,34.0491554 18.4119873,34.0610426 16.1879883,37.1078552 C15.6839886,37.7992347 14.757988,38.1062911 13.9379883,37.8507395 C11.0639877,36.9592806 8.62400055,35.5884125 6.5,33.6410655 C5.86600018,33.0606229 5.70201159,32.1295312 6.06201172,31.3509892 C7.68601179,27.846558 5.88599968,25.1008658 2.25,24.7898457 C1.37,24.7125847 0.617988288,24.0964919 0.437988281,23.2406889 C0.14798829,21.8698208 0,20.3305542 0,18.9695896 C0,17.3471317 0.14199999,16.1109654 0.5,14.6351031 C0.708000004,13.7812818 1.48997664,13.1335053 2.37597656,13.0879413 C5.98797655,12.9076688 7.66401196,9.76971486 6.06201172,6.83581812 C5.63001156,6.04142759 5.83400011,5.03705986 6.5,4.42096187 Z M20.0019531,30.8824168 C26.6293697,30.8824168 32.0019531,25.5608062 32.0019531,18.9962677 C32.0019531,12.4317283 26.6293697,7.1101187 20.0019531,7.1101187 C13.3745365,7.1101187 8.00195312,12.4317283 8.00195312,18.9962677 C8.00195312,25.5608062 13.3745365,30.8824168 20.0019531,30.8824168 Z" id="Subtract" fill="#D946EF"></path>
                <path d="M20.0019531,11.741998 C15.9518648,11.741998 12.6686198,14.994093 12.6686198,19.0057558 C12.6686198,23.0174182 15.9518648,26.2695135 20.0019531,26.2695135 C24.0520411,26.2695135 27.3352865,23.0174182 27.3352865,19.0057558 C27.3352865,14.994093 24.0520411,11.741998 20.0019531,11.741998 Z M8.00195312,18.9962682 C8.00195312,12.4317293 13.374536,7.11011917 20.0019531,7.11011917 C26.6293697,7.11011917 32.0019531,12.4317293 32.0019531,18.9962682 C32.0019531,25.5608067 26.6293697,30.8824172 20.0019531,30.8824172 C13.374536,30.8824172 8.00195312,25.5608067 8.00195312,18.9962682 Z" id="Ellipse-263-(Stroke)" fill="#A21CAF"></path>
            </g>
        </g>
    </g>
</svg>