<?xml version="1.0" encoding="UTF-8"?>
<svg width="72px" height="72px" viewBox="0 0 72 72" version="1.1" xmlns="http://www.w3.org/2000/svg" xmlns:xlink="http://www.w3.org/1999/xlink">
    <title>icon-customize-docs</title>
    <defs>
        <linearGradient x1="2.77555756e-15%" y1="100%" x2="100%" y2="2.77555756e-15%" id="linearGradient-1">
            <stop stop-color="#B6D6D6" offset="0%"></stop>
            <stop stop-color="#CEF9F1" offset="100%"></stop>
        </linearGradient>
        <polygon id="path-2" points="0 0 31.6551781 0 31.6551781 31.6519446 0 31.6519446"></polygon>
        <polygon id="path-4" points="0 0 12.6813779 0 12.6813779 12.7269385 0 12.7269385"></polygon>
    </defs>
    <g id="icon-customize-docs" stroke="none" stroke-width="1" fill="none" fill-rule="evenodd">
        <g id="Docs-Icons-/-Light-/docs-categories-get-started-customize-docs-teal-light">
            <rect id="Rectangle-Copy-6" fill="url(#linearGradient-1)" x="0" y="0" width="72" height="72" rx="12"></rect>
            <g id="Group-2" transform="translate(15, 16)">
                <g id="Group" transform="translate(2.8255, 2.2727)">
                    <g id="Group-3" transform="translate(0, 6.3481)">
                        <mask id="mask-3" fill="white">
                            <use xlink:href="#path-2"></use>
                        </mask>
                        <g id="Clip-2"></g>
                        <path d="M0.0354539662,29.5762864 C0.449758206,27.1434539 0.91120741,24.7184793 1.34598876,22.2889805 C1.4045628,21.962047 1.56337943,21.7167874 1.79600888,21.4846242 C8.87156335,14.4166232 15.9447368,7.34624112 23.0069573,0.264905666 C23.3574492,-0.0867918516 23.5567438,-0.0896492451 23.9069975,0.264429434 C26.3804415,2.76583933 28.8662669,5.25534342 31.371617,7.72508388 C31.7733017,8.12083288 31.7304426,8.34251899 31.3551877,8.71659942 C24.3103489,15.7438825 17.2771773,22.7828333 10.2454343,29.8232128 C9.98756563,30.0815688 9.72302999,30.2894442 9.35039428,30.3544499 C6.93790546,30.7756773 4.52708338,31.2054769 2.11507076,31.6293236 C1.97958851,31.6531352 1.83934415,31.6483729 1.78315116,31.6519446 C0.545952983,31.6459917 -0.171936259,30.7942503 0.0354539662,29.5762864 Z" id="Fill-1" fill="#14B8A6" mask="url(#mask-3)"></path>
                    </g>
                    <g id="Group-11" transform="translate(25.3186, 0)">
                        <mask id="mask-5" fill="white">
                            <use xlink:href="#path-4"></use>
                        </mask>
                        <g id="Clip-10"></g>
                        <path d="M11.6289585,9.46823531 C10.6181991,10.4995162 10.649033,10.3744656 9.63874978,11.4062228 C9.38159542,11.6686267 9.21039729,11.6510061 8.95943369,11.3988412 C6.40574808,8.83242556 3.84515739,6.27267721 1.27909027,3.71864365 C1.01479274,3.45576345 0.980505492,3.27146157 1.27028035,2.99072266 C2.30651716,1.98753942 2.23306223,2.07068164 3.27929948,1.07868986 C4.77008043,-0.334767461 6.72350111,-0.366913138 8.22166333,1.02773301 C9.40743064,2.13163937 10.5401003,3.29412229 11.6663412,4.45970073 C12.3997073,5.21857682 12.686863,6.018647 12.6809103,6.97206397 C12.6968634,7.95834096 12.3037506,8.77984159 11.6289585,9.46823531 Z" id="Fill-9" fill="#14B8A6" mask="url(#mask-5)"></path>
                    </g>
                </g>
                <path d="M35.0265876,27.3874263 C36.2176802,28.5457545 38.6065719,30.9025627 40.0767257,32.4046989 C40.2127013,32.5436326 40.575566,33.0867028 40.575566,33.6321769 C40.575566,37.0765034 37.6731102,40.2727409 34.0832588,40.2727409 C31.4666591,40.2727409 29.2835016,39.8546094 27.7462123,39.4331888 C26.9766339,39.2222224 26.3655165,39.0095075 25.9387335,38.8457144 C25.7014759,38.754659 25.4646554,38.6598558 25.2355505,38.550933 C24.7643368,38.3248828 24.4379124,37.8989324 24.3542419,37.4042331 C24.2705714,36.9095329 24.4398564,36.4064006 24.8092105,36.0520199 C25.479966,35.4084545 26.0075569,34.6612254 26.5096965,33.8353097 C26.6810673,33.5534402 26.8745517,33.2164075 27.0766101,32.8644396 C27.3918034,32.3154004 27.6250487,31.4488916 27.9305754,30.979865 C28.4875753,30.1247923 29.1869786,29.236664 30.1887409,28.5737996 C31.2232198,27.8892868 32.5691955,26.991613 34.0832588,26.991613 C34.5048591,26.991613 34.8861288,27.2508312 35.0265876,27.3874263 Z" id="Subtract" fill="#0F766E" fill-rule="nonzero" transform="translate(32.4544, 33.6322) scale(-1, 1) translate(-32.4544, -33.6322)"></path>
                <path d="M9.62462987,2.57951411 C12.9697016,2.57951411 15.6814181,5.29123056 15.6814181,8.63630233 C15.6814181,8.80952189 15.6739872,8.98266173 15.6591458,9.15524432 L15.1731031,14.8071916 C15.0786302,15.9057689 14.1128521,16.720644 13.0140438,16.6288974 L5.76848607,16.0239193 C4.79188967,15.942377 4.01823093,15.1652136 3.94110343,14.1882586 L3.54406274,9.15904217 C3.27894315,5.80083768 5.78638389,2.86355315 9.14458839,2.59843355 C9.30429167,2.58582549 9.46442968,2.57951411 9.62462987,2.57951411 Z" id="Rectangle" fill="#0F766E" transform="translate(9.6246, 9.6872) scale(-1, 1) rotate(40) translate(-9.6246, -9.6872)"></path>
            </g>
        </g>
    </g>
</svg>