<?xml version="1.0" encoding="UTF-8"?>
<svg width="89px" height="68px" viewBox="0 0 89 68" version="1.1" xmlns="http://www.w3.org/2000/svg" xmlns:xlink="http://www.w3.org/1999/xlink">
    <title>icons8-menu-100</title>
    <g id="Articles" stroke="none" stroke-width="1" fill="none" fill-rule="evenodd">
        <g id="icons8-menu-100" fill="#FFFFFF" fill-rule="nonzero">
            <path d="M4.05696996,0.000401727374 C2.61442629,-0.0199994308 1.2726445,0.737902912 0.545419071,1.98389313 C-0.181806357,3.22988334 -0.181806357,4.77092011 0.545419071,6.01691033 C1.2726445,7.26290054 2.61442629,8.02080289 4.05696996,8.00040173 L84.05697,8.00040173 C85.4995136,8.02080289 86.8412954,7.26290054 87.5685208,6.01691033 C88.2957463,4.77092011 88.2957463,3.22988334 87.5685208,1.98389313 C86.8412954,0.737902912 85.4995136,-0.0199994308 84.05697,0.000401727374 L4.05696996,0.000401727374 Z M4.05696996,30.0004017 C2.61442629,29.9800006 1.2726445,30.7379029 0.545419071,31.9838931 C-0.181806357,33.2298833 -0.181806357,34.7709201 0.545419071,36.0169103 C1.2726445,37.2629005 2.61442629,38.0208029 4.05696996,38.0004017 L84.05697,38.0004017 C85.4995136,38.0208029 86.8412954,37.2629005 87.5685208,36.0169103 C88.2957463,34.7709201 88.2957463,33.2298833 87.5685208,31.9838931 C86.8412954,30.7379029 85.4995136,29.9800006 84.05697,30.0004017 L4.05696996,30.0004017 Z M4.05696996,60.0004017 C2.61442629,59.9800006 1.2726445,60.7379029 0.545419071,61.9838931 C-0.181806357,63.2298833 -0.181806357,64.7709201 0.545419071,66.0169103 C1.2726445,67.2629005 2.61442629,68.0208029 4.05696996,68.0004017 L84.05697,68.0004017 C85.4995136,68.0208029 86.8412954,67.2629005 87.5685208,66.0169103 C88.2957463,64.7709201 88.2957463,63.2298833 87.5685208,61.9838931 C86.8412954,60.7379029 85.4995136,59.9800006 84.05697,60.0004017 L4.05696996,60.0004017 Z" id="Shape"></path>
        </g>
    </g>
</svg>