<?xml version="1.0" encoding="UTF-8"?>
<svg width="76px" height="76px" viewBox="0 0 76 76" version="1.1" xmlns="http://www.w3.org/2000/svg" xmlns:xlink="http://www.w3.org/1999/xlink">
    <title>icon-get-started-docs</title>
    <defs>
        <linearGradient x1="-3.88578059e-14%" y1="100%" x2="100%" y2="2.77555756e-15%" id="linearGradient-1">
            <stop stop-color="#E7E6F1" offset="0%"></stop>
            <stop stop-color="#F0F1FD" offset="100%"></stop>
        </linearGradient>
        <polygon id="path-2" points="0 0 11.1764668 0 11.1764668 13.4117134 0 13.4117134"></polygon>
        <polygon id="path-4" points="0 0 11.1764668 0 11.1764668 13.4117134 0 13.4117134"></polygon>
    </defs>
    <g id="icon-get-started-docs" stroke="none" stroke-width="1" fill="none" fill-rule="evenodd">
        <rect id="Rectangle-Copy-6" fill="url(#linearGradient-1)" opacity="0" x="0" y="0" width="76" height="76" rx="12"></rect>
        <g id="Group" transform="translate(19, 19)">
            <g id="Group-6" transform="translate(15.6471, 24.5883)">
                <mask id="mask-3" fill="white">
                    <use xlink:href="#path-2"></use>
                </mask>
                <g id="Clip-5"></g>
                <path d="M0,5.50671085 C3.44513949,3.80551102 6.89027899,2.10387397 10.3358631,0.403329953 C10.6135464,0.266044744 10.8941198,0.134443318 11.1735816,0 C11.1733593,2.10562282 11.1833639,4.21146425 11.1673565,6.31686847 C11.1624654,6.96569411 11.096435,7.60643128 10.8056347,8.21962398 C10.4052284,9.06388429 9.8051747,9.65477907 8.94411215,10.0629184 C6.80090456,11.0792224 4.68370894,12.1484294 2.55450779,13.1931523 C1.28970407,13.8139962 0.0275682303,13.0528066 0.0195645506,11.6596241 C0.0075590309,9.60865299 0.00600275983,7.55768192 0,5.50671085" id="Fill-4" fill="#4338CA" mask="url(#mask-3)"></path>
            </g>
            <g id="Group-6" transform="translate(6.7059, 16.7648) scale(1, -1) rotate(90) translate(-6.7059, -16.7648)translate(1.1176, 10.0589)">
                <mask id="mask-5" fill="white">
                    <use xlink:href="#path-4"></use>
                </mask>
                <g id="Clip-5"></g>
                <path d="M0,5.50671085 C3.44513949,3.80551102 6.89027899,2.10387397 10.3358631,0.403329953 C10.6135464,0.266044744 10.8941198,0.134443318 11.1735816,0 C11.1733593,2.10562282 11.1833639,4.21146425 11.1673565,6.31686847 C11.1624654,6.96569411 11.096435,7.60643128 10.8056347,8.21962398 C10.4052284,9.06388429 9.8051747,9.65477907 8.94411215,10.0629184 C6.80090456,11.0792224 4.68370894,12.1484294 2.55450779,13.1931523 C1.28970407,13.8139962 0.0275682303,13.0528066 0.0195645506,11.6596241 C0.0075590309,9.60865299 0.00600275983,7.55768192 0,5.50671085" id="Fill-4" fill="#4338CA" mask="url(#mask-5)"></path>
            </g>
            <g id="Group-3" transform="translate(4.9436, 0)" fill="#6366F1">
                <path d="M25.075777,11.9858422 C25.1189188,9.82663138 23.3575639,8.00980589 21.191156,7.97785703 C18.9461876,7.9448432 17.1845664,9.68605637 17.1499465,11.9722639 C17.1171907,14.1314748 18.8822739,15.9168839 21.073182,15.9405793 C23.2816664,15.9645409 25.0310374,14.2361073 25.075777,11.9858422 M8.54776158,32.580114 C7.19438913,33.1959284 6.08229087,33.0289956 5.03996506,32.0082293 C3.63759211,30.6349606 2.24746929,29.2481136 0.875455341,27.8444934 C-0.101358935,26.8450264 -0.24276798,25.7843241 0.361482726,24.5263375 C0.60888198,24.0114283 0.847759407,23.4922592 1.09036513,22.9749538 C1.74414895,21.8777765 2.24027899,20.7017921 2.80325211,19.5588214 C4.41946962,16.2774067 5.24575483,13.9272683 6.8678311,10.6485159 C8.06141932,8.92354345 9.30107866,7.23557839 10.7971917,5.75261854 C14.8314773,1.75368554 19.6838581,-0.163246395 25.366318,0.0108749221 C27.3100932,0.0705128044 29.2469444,0.178606466 31.1643552,0.531108949 C32.0223965,0.688723353 32.3132038,0.913696614 32.4940263,1.7659326 C32.8383614,3.39079866 32.9752432,5.04042508 33.0327655,6.69830496 C33.13556,9.66928322 32.9323677,12.5875458 31.8370468,15.4038383 C30.6850025,18.3662969 28.8711852,20.8420677 26.5609715,22.9916939 C25.3000076,24.1647498 23.8965694,25.1471774 22.4960606,26.1365272 C22.1613126,26.3002652 21.8252331,26.460542 21.4926156,26.6277411 C17.3653889,28.6988263 14.0387467,29.8447587 9.91205262,31.9166426 C9.45746648,32.138421 9.00794017,32.3705827 8.54776158,32.580114 Z" id="Fill-1"></path>
            </g>
        </g>
    </g>
</svg>