<svg height="70" viewBox="0 0 70 70" width="70" xmlns="http://www.w3.org/2000/svg" xmlns:xlink="http://www.w3.org/1999/xlink"><linearGradient id="a" x1="0%" x2="100%" y1="0%" y2="100%"><stop offset="0" stop-color="#a4aebe"/><stop offset="1" stop-color="#2d53f5"/></linearGradient><g style="stroke-width:3.312;stroke:url(#a);fill:none;fill-rule:evenodd;stroke-linecap:round;stroke-linejoin:round" transform="translate(9 9)"><path d="m49.7012448 36.3962656h-13.3049792v13.3049792c0 1.8217925-1.4769627 3.2987552-3.2987552 3.2987552h-13.1950208c-1.8217925 0-3.2987552-1.4769627-3.2987552-3.2987552v-13.3049792h-13.30497921c-1.82179253 0-3.29875519-1.4769627-3.29875519-3.2987552v-13.1950208c0-1.8217925 1.47696266-3.2987552 3.29875519-3.2987552h13.30497921v-13.30497921c0-1.82179253 1.4769627-3.29875519 3.2987552-3.29875519h13.1950208c1.8217925 0 3.2987552 1.47696266 3.2987552 3.29875519v13.30497921h13.3049792c1.8217925 0 3.2987552 1.4769627 3.2987552 3.2987552v13.1950208c0 1.8217925-1.4769627 3.2987552-3.2987552 3.2987552z"/><path d="m42.9937759 29.7987552 3.2987552-3.2987552-3.2987552-3.2987552m-32.9875518 6.5975104-3.29875522-3.2987552 3.29875522-3.2987552m13.1950207 19.7925311 3.2987552 3.2987552 3.2987552-3.2987552m-6.5975104-32.9875518 3.2987552-3.29875522 3.2987552 3.29875522"/></g></svg>