<svg xmlns="http://www.w3.org/2000/svg" width="70" height="70"><defs><linearGradient id="a" x1="0%" x2="100%" y1="21.567%" y2="78.433%"><stop offset="0%" stop-color="#A4AEBE"/><stop offset="100%" stop-color="#2D53F5"/></linearGradient></defs><path fill="url(#a)" d="M59.213 7.707h-2.145v-5.9c0-.998-.8-1.807-1.787-1.807H45.75c-.987 0-1.787.809-1.787 1.806v5.9h-5.957v-5.9c0-.997-.8-1.806-1.787-1.806h-9.532C25.701 0 24.9.809 24.9 1.806v5.9h-2.025c-.987 0-1.787.81-1.787 1.807v15.534h-4.05v-5.9c0-.998-.801-1.807-1.788-1.807H5.719c-.987 0-1.787.809-1.787 1.807v5.9H1.787C.8 25.047 0 25.856 0 26.853v17.34C0 45.192.8 46 1.787 46h57.426C60.2 46 61 45.191 61 44.194V9.514c0-.998-.8-1.807-1.787-1.807ZM47.537 3.613h5.957v4.094h-5.957V3.613Zm-19.062 0h5.957v4.094h-5.957V3.613Zm-3.813 7.706h32.764v13.728H24.662V11.32ZM7.506 20.953h5.957v4.094H7.506v-4.094ZM3.574 28.66h35.623v13.727H3.574V28.66Zm53.852 13.727H42.77V28.66h14.655v13.727Z" transform="translate(5 12)"/></svg>