<?xml version="1.0" encoding="UTF-8"?>
<svg width="76px" height="76px" viewBox="0 0 76 76" version="1.1" xmlns="http://www.w3.org/2000/svg" xmlns:xlink="http://www.w3.org/1999/xlink">
    <title>identity-basics-dark</title>
    <defs>
        <linearGradient x1="-3.88578059e-14%" y1="100%" x2="100%" y2="2.77555756e-15%" id="linearGradient-1">
            <stop stop-color="#3B1730" offset="0%"></stop>
            <stop stop-color="#5E3448" offset="100%"></stop>
        </linearGradient>
        <filter x="-96.1%" y="-110.9%" width="292.1%" height="328.1%" filterUnits="objectBoundingBox" id="filter-2">
            <feOffset dx="0" dy="1" in="SourceAlpha" result="shadowOffsetOuter1"></feOffset>
            <feGaussianBlur stdDeviation="12" in="shadowOffsetOuter1" result="shadowBlurOuter1"></feGaussianBlur>
            <feColorMatrix values="0 0 0 0 0   0 0 0 0 0   0 0 0 0 0  0 0 0 0.5 0" type="matrix" in="shadowBlurOuter1" result="shadowMatrixOuter1"></feColorMatrix>
            <feMerge>
                <feMergeNode in="shadowMatrixOuter1"></feMergeNode>
                <feMergeNode in="SourceGraphic"></feMergeNode>
            </feMerge>
        </filter>
    </defs>
    <g id="identity-basics-dark" stroke="none" stroke-width="1" fill="none" fill-rule="evenodd">
        <rect id="Rectangle-Copy-7" fill="url(#linearGradient-1)" x="0" y="0" width="76" height="76" rx="12"></rect>
        <g id="Group" filter="url(#filter-2)" transform="translate(19, 22)" fill-rule="nonzero">
            <path d="M19.196694,0 L23.196694,0 C24.3012635,-2.02906125e-16 25.196694,0.8954305 25.196694,2 L25.196694,4 L25.196694,4 L17.196694,4 L17.196694,2 C17.196694,0.8954305 18.0921245,2.02906125e-16 19.196694,0 Z" id="Rectangle" fill="#FB9CA7"></path>
            <path d="M2,18 L24,18 L24,18 L24,32 L4,32 C1.790861,32 -1.06172613e-15,30.209139 0,28 L0,20 C-1.3527075e-16,18.8954305 0.8954305,18 2,18 Z" id="Rectangle" fill="#F43F5E"></path>
            <path d="M24,18 L38,18 L38,32 L28,32 C25.790861,32 24,30.209139 24,28 L24,18 L24,18 Z" id="Rectangle" fill="#FB9CA7" transform="translate(31, 25) scale(-1, 1) translate(-31, -25)"></path>
            <path d="M5,14 L9,14 C10.1045695,14 11,14.8954305 11,16 L11,18 L11,18 L3,18 L3,16 C3,14.8954305 3.8954305,14 5,14 Z" id="Rectangle" fill="#FB9CA7"></path>
            <path d="M28.7302083,0 L32.7302083,0 C33.8347778,-2.02906125e-16 34.7302083,0.8954305 34.7302083,2 L34.7302083,4 L34.7302083,4 L26.7302083,4 L26.7302083,2 C26.7302083,0.8954305 27.6256388,2.02906125e-16 28.7302083,0 Z" id="Rectangle" fill="#FB9CA7"></path>
            <path d="M16,4 L36,4 C37.1045695,4 38,4.8954305 38,6 L38,18 L38,18 L14,18 L14,6 C14,4.8954305 14.8954305,4 16,4 Z" id="Rectangle" fill="#F43F5E"></path>
        </g>
    </g>
</svg>