<svg xmlns="http://www.w3.org/2000/svg" width="70" height="70"><linearGradient id="a" x1="0%" x2="100%" y1="0%" y2="100%"><stop offset="0" stop-color="#a4aebe"/><stop offset="1" stop-color="#2d53f5"/></linearGradient><path fill="url(#a)" d="M38.214 18.99a2.07 2.07 0 0 1 0 2.928L24.325 35.807a2.07 2.07 0 0 1-2.928 0l-6.611-6.612a2.07 2.07 0 1 1 2.927-2.928l5.148 5.148L35.286 18.99a2.07 2.07 0 0 1 2.928 0zM53 26.5C53 41.148 41.146 53 26.5 53 11.852 53 0 41.146 0 26.5 0 11.852 11.854 0 26.5 0 41.148 0 53 11.854 53 26.5zm-4.14 0c0-12.36-10.002-22.36-22.36-22.36-12.36 0-22.36 10.002-22.36 22.36 0 12.36 10.002 22.36 22.36 22.36 12.36 0 22.36-10.002 22.36-22.36z" transform="translate(9 9)"/></svg>