<svg height="54" viewBox="0 0 54 54" width="54" xmlns="http://www.w3.org/2000/svg"><g fill="none" fill-rule="evenodd"><rect fill="#f1f5f9" height="54" rx="5" width="54"/><g fill-rule="nonzero" transform="translate(14 14)"><path d="m12.9837703 0c-7.1735331 0-12.9837703 5.8102372-12.9837703 12.9837703s5.8102372 13.0162297 13.0162297 13.0162297c7.1410737 0 12.9837703-5.8102372 12.9837703-13.0162297 0-7.1735331-5.8426966-12.9837703-13.0162297-12.9837703zm8.4719101 14.3795256c0 .7790262-.6167291 1.5905119-1.3957553 1.5905119h-4.1223471v4.0898876c0 .7790262-.7465668 1.4282147-1.525593 1.4282147h-2.82397c-.7790262 0-1.4931336-.6167291-1.4931336-1.4282147v-4.0898876h-4.18726592c-.77902622 0-1.33083645-.8114857-1.33083645-1.5905119v-2.82397c0-.7790263.55181023-1.4282148 1.33083645-1.4282148h4.18726592v-4.18726589c0-.77902622.7141074-1.33083646 1.4931336-1.33083646h2.82397c.7790262 0 1.525593.51935081 1.525593 1.33083646v4.18726589h4.1223471c.7790262 0 1.3957553.6491885 1.3957553 1.4282148z" fill="#4338ca"/><circle cx="12.98377" cy="13.01623" fill="#f58320" r="1.460674"/></g></g></svg>