<svg height="70" viewBox="0 0 70 70" width="70" xmlns="http://www.w3.org/2000/svg" xmlns:xlink="http://www.w3.org/1999/xlink"><linearGradient id="a" x1="0%" x2="100%" y1="0%" y2="100%"><stop offset="0" stop-color="#a4aebe"/><stop offset="1" stop-color="#2d53f5"/></linearGradient><path d="m38.2142486 18.9896823c.8087158.8087158.8087158 2.1196442 0 2.9279557l-13.8888854 13.8892899c-.8087158.8083113-2.1192399.8083113-2.9279557 0l-6.6116561-6.6120606c-.8087158-.8083115-.8087158-2.1192399 0-2.9275513.8083114-.8087158 2.1192398-.8087158 2.9275513 0l5.1478804 5.1478806 12.4251099-12.4255143c.8087158-.8083114 2.1196442-.8083114 2.9279556 0zm14.7857514 7.5103177c0 14.6478653-11.8541565 26.5-26.5 26.5-14.6478653 0-26.5-11.8541565-26.5-26.5 0-14.6478653 11.8541565-26.5 26.5-26.5 14.6478653 0 26.5 11.8541565 26.5 26.5zm-4.140625 0c0-12.3591995-10.0017929-22.359375-22.359375-22.359375-12.3591995 0-22.359375 10.0017929-22.359375 22.359375 0 12.3591995 10.0017929 22.359375 22.359375 22.359375 12.3591995 0 22.359375-10.0017929 22.359375-22.359375z" fill="url(#a)" transform="translate(9 9)"/></svg>