<svg xmlns="http://www.w3.org/2000/svg" width="70" height="70"><linearGradient id="a" x1="0%" x2="100%" y1="0%" y2="100%"><stop offset="0" stop-color="#a4aebe"/><stop offset="1" stop-color="#2d53f5"/></linearGradient><g style="stroke-width:3.312;stroke:url(#a);fill:none;fill-rule:evenodd;stroke-linecap:round;stroke-linejoin:round" transform="translate(9 9)"><path d="M49.701 36.396H36.396v13.305A3.299 3.299 0 0 1 33.098 53H19.902a3.299 3.299 0 0 1-3.298-3.299V36.396H3.299A3.299 3.299 0 0 1 0 33.098V19.902a3.299 3.299 0 0 1 3.299-3.298h13.305V3.299A3.299 3.299 0 0 1 19.902 0h13.196a3.299 3.299 0 0 1 3.298 3.299v13.305h13.305A3.299 3.299 0 0 1 53 19.902v13.196a3.299 3.299 0 0 1-3.299 3.298z"/><path d="m42.994 29.799 3.299-3.299-3.3-3.299M10.007 29.8l-3.3-3.3 3.3-3.299M23.2 42.994l3.299 3.299 3.299-3.3M23.2 10.007l3.3-3.3 3.299 3.3"/></g></svg>