<?xml version="1.0" encoding="UTF-8"?>
<svg width="76px" height="76px" viewBox="0 0 76 76" version="1.1" xmlns="http://www.w3.org/2000/svg" xmlns:xlink="http://www.w3.org/1999/xlink">
    <title>identity-provider-gaming-esports</title>
    <defs>
        <linearGradient x1="-3.88578059e-14%" y1="100%" x2="100%" y2="2.77555756e-15%" id="linearGradient-1">
            <stop stop-color="#DDE7EC" offset="0%"></stop>
            <stop stop-color="#E7F6FD" offset="100%"></stop>
        </linearGradient>
    </defs>
    <g id="identity-provider-gaming-esports" stroke="none" stroke-width="1" fill="none" fill-rule="evenodd">
        <rect id="Rectangle" fill="url(#linearGradient-1)" x="0" y="0" width="76" height="76" rx="12"></rect>
        <g id="Group" transform="translate(19, 19)">
            <g id="joystick-fill" transform="translate(0, 16.7955)" fill="#0EA5E9" fill-rule="nonzero">
                <path d="M16.3942871,0.0563551224 L1.20833552,5.82473567 C0.494027048,6.16514117 0,6.8969702 0,7.74486236 L0,11.5867961 C0,12.3911303 0.451782783,13.1264299 1.16699353,13.4861386 L18.0558813,20.980269 C18.6502172,21.2791865 19.3497808,21.2791865 19.9441167,20.980269 L36.8330076,13.4861386 C37.5482167,13.1264299 38,12.3911303 38,11.5867961 L38,7.74486236 C38,6.89922401 37.5519494,6.16735502 36.8330076,5.82472453 L21.8127441,0.0563551224 C21.4849306,0.319459238 21.5872116,-0.156022206 21.2222222,0.0563551224 L21.2222222,4.17174225 L30.383527,7.53136895 C30.5131565,7.57890661 30.5797052,7.72252902 30.5321675,7.85215858 C30.5087742,7.91594941 30.4604243,7.96747095 30.3982463,7.9948647 L19.201767,12.9276984 C19.0732269,12.9843293 18.9267943,12.9842813 18.7982913,12.927566 L7.63107743,7.99887695 C7.5047619,7.94312715 7.44755708,7.79553404 7.50330688,7.66921851 C7.53109062,7.60626729 7.58359254,7.5575509 7.64844321,7.5345469 L17.12854,4.17174225 L17.12854,4.17174225 L16.7777778,0.0563551224 C16.4127884,-0.156022269 16.7220997,0.319459349 16.3942871,0.0563551224 Z" id="Subtract"></path>
            </g>
            <path d="M19,0 C23.9705627,0 28,4.02943725 28,9 C28,12.9184405 25.4958532,16.2520062 22.000578,17.4876786 L22,23 C22,24.6568542 20.6568542,26 19,26 C17.3431458,26 16,24.6568542 16,23 L16.0004159,17.4880298 C12.5046215,16.252638 10,12.9188119 10,9 C10,4.02943725 14.0294373,0 19,0 Z" id="Combined-Shape" fill="#0369A1"></path>
        </g>
    </g>
</svg>