<?xml version="1.0" encoding="UTF-8"?>
<svg width="54px" height="54px" viewBox="0 0 54 54" version="1.1" xmlns="http://www.w3.org/2000/svg" xmlns:xlink="http://www.w3.org/1999/xlink">
    <title>identity-provider-gaming-esports</title>
    <g id="identity-provider-gaming-esports" stroke="none" stroke-width="1" fill="none" fill-rule="evenodd">
        <rect id="Rectangle" fill="#F1F5F9" x="0" y="0" width="54" height="54" rx="5"></rect>
        <g id="Group" transform="translate(14, 14)" fill-rule="nonzero">
            <path d="M12.9837703,0 C5.8102372,0 0,5.8102372 0,12.9837703 C0,20.1573034 5.8102372,26 13.0162297,26 C20.1573034,26 26,20.1897628 26,12.9837703 C26,5.8102372 20.1573034,0 12.9837703,0 Z M21.4556804,14.3795256 C21.4556804,15.1585518 20.8389513,15.9700375 20.0599251,15.9700375 L15.937578,15.9700375 L15.937578,20.0599251 C15.937578,20.8389513 15.1910112,21.4881398 14.411985,21.4881398 L11.588015,21.4881398 C10.8089888,21.4881398 10.0948814,20.8714107 10.0948814,20.0599251 L10.0948814,15.9700375 L5.90761548,15.9700375 C5.12858926,15.9700375 4.57677903,15.1585518 4.57677903,14.3795256 L4.57677903,11.5555556 C4.57677903,10.7765293 5.12858926,10.1273408 5.90761548,10.1273408 L10.0948814,10.1273408 L10.0948814,5.94007491 C10.0948814,5.16104869 10.8089888,4.60923845 11.588015,4.60923845 L14.411985,4.60923845 C15.1910112,4.60923845 15.937578,5.12858926 15.937578,5.94007491 L15.937578,10.1273408 L20.0599251,10.1273408 C20.8389513,10.1273408 21.4556804,10.7765293 21.4556804,11.5555556 L21.4556804,14.3795256 Z" id="Shape" fill="#4338CA"></path>
            <circle id="Oval" fill="#F58320" cx="12.9837703" cy="13.0162297" r="1.46067416"></circle>
        </g>
    </g>
</svg>