<svg height="54" viewBox="0 0 54 54" width="54" xmlns="http://www.w3.org/2000/svg"><g fill="none" fill-rule="evenodd"><rect fill="#f1f5f9" height="54" rx="5" width="54"/><g fill-rule="nonzero" transform="translate(13 14)"><path d="m26.9285714 16.8c0 1.4267077-1.1483112 2.5846154-2.5646258 2.5846154h-21.79931975c-1.41631463 0-2.56462585-1.1579077-2.56462585-2.5846154v-14.21538462c0-1.428 1.14831122-2.58461538 2.56462585-2.58461538h21.79931975c1.4163146 0 2.5646258 1.15661538 2.5646258 2.58461538z" fill="#cbd5e1"/><path d="m10.3571429 7.96153846c0 1.33753846-1.08206254 2.42307694-2.41666671 2.42307694s-2.41666667-1.08553848-2.41666667-2.42307694c0-1.33814423 1.0820625-2.42307692 2.41666667-2.42307692s2.41666671 1.08493269 2.41666671 2.42307692z" fill="#4338ca"/><path d="m12.4285714 13.8461538s-1.2425612-2.076923-4.48809521-2.076923c-3.24681633 0-4.48809524 2.076923-4.48809524 2.076923v1.3846154h8.97619045z" fill="#4338ca"/><g fill="#fff"><path d="m23.6666667 6h-9.6666667v1.38461538h9.6666667z"/><path d="m23.6666667 9h-9.6666667v1.3846154h9.6666667z"/><path d="m18.8333333 12h-4.8333333v1.3846154h4.8333333z"/></g><path d="m29 20.4230769c0 3.6173077-2.9517857 6.5769231-6.5595238 6.5769231s-6.5595238-2.9596154-6.5595238-6.5769231 2.9517857-6.5769231 6.5595238-6.5769231 6.5595238 2.9596154 6.5595238 6.5769231z" fill="#14b8a6"/><path d="m25.547619 17.3076923-3.7482993 3.5244755-1.7755102-1.6993007-1.3809524 1.3846154 3.1564626 3.020979 5.1292517-4.9090909z" fill="#fff"/></g></g></svg>