<svg xmlns="http://www.w3.org/2000/svg" width="54" height="54"><g fill="none" fill-rule="evenodd"><rect width="54" height="54" fill="#F1F5F9" rx="5"/><g fill-rule="nonzero"><path fill="#607799" d="M10 32.718v9.487A3.787 3.787 0 0 0 13.778 46h26.444C42.31 46 44 44.3 44 42.205v-9.487H10Z"/><path fill="#9DB1C8" d="M44 32.718a3.787 3.787 0 0 1-3.778 3.795H13.778A3.787 3.787 0 0 1 10 32.718l2.833-17.077c.207-1.987 1.692-3.795 3.778-3.795H37.39c2.086 0 3.483 1.66 3.778 3.795L44 32.718Z"/><path fill="#FFF" d="M37.389 39.359c-1.043 0-1.889.85-1.889 1.897 0 1.048.846 1.898 1.889 1.898 1.043 0 1.889-.85 1.889-1.898a1.893 1.893 0 0 0-1.89-1.897Z"/><path fill="#6366F1" d="M29.831 9v14.46h4.725L27 31.05l-7.557-7.59h4.722V9h5.665Z"/></g></g></svg>