<?xml version="1.0" encoding="UTF-8"?>
<svg width="54px" height="54px" viewBox="0 0 54 54" version="1.1" xmlns="http://www.w3.org/2000/svg" xmlns:xlink="http://www.w3.org/1999/xlink">
    <title>install-locally</title>
    <g id="install-locally" stroke="none" stroke-width="1" fill="none" fill-rule="evenodd">
        <rect id="Rectangle" fill="#F1F5F9" x="0" y="0" width="54" height="54" rx="5"></rect>
        <g id="icons8-software-installer-50" transform="translate(10, 9)" fill-rule="nonzero">
            <path d="M0,23.7179487 L0,33.2051282 C0,35.3008462 1.6915,37 3.77777778,37 L30.2222222,37 C32.3085,37 34,35.3008462 34,33.2051282 L34,23.7179487 L0,23.7179487 Z" id="Path" fill="#607799"></path>
            <path d="M34,23.7179487 C34,25.8136667 32.3085,27.5128205 30.2222222,27.5128205 L3.77777778,27.5128205 C1.6915,27.5128205 0,25.8136667 0,23.7179487 L2.83333333,6.64102564 C3.04016667,4.65441026 4.52483333,2.84615385 6.61111111,2.84615385 L27.3888889,2.84615385 C29.4751667,2.84615385 30.872,4.50641026 31.1666667,6.64102564 L34,23.7179487 Z" id="Path" fill="#9DB1C8"></path>
            <path d="M27.3888889,30.3589744 C26.3456844,30.3589744 25.5,31.2084853 25.5,32.2564103 C25.5,33.3043352 26.3456844,34.1538462 27.3888889,34.1538462 C28.4320934,34.1538462 29.2777778,33.3043352 29.2777778,32.2564103 C29.2777778,31.2084853 28.4320934,30.3589744 27.3888889,30.3589744 Z" id="Path" fill="#FFFFFF"></path>
            <path d="M19.8314444,0 L19.8314444,14.46 L24.5555556,14.460359 L17.0009444,22.0501026 L9.44444444,14.460359 L14.1664444,14.46 L14.1666667,0 L19.8314444,0 Z" id="Combined-Shape" fill="#6366F1"></path>
        </g>
    </g>
</svg>