<?xml version="1.0" encoding="UTF-8"?>
<svg width="76px" height="76px" viewBox="0 0 76 76" version="1.1" xmlns="http://www.w3.org/2000/svg" xmlns:xlink="http://www.w3.org/1999/xlink">
    <title>install-locally</title>
    <defs>
        <linearGradient x1="2.77555756e-15%" y1="100%" x2="100%" y2="2.77555756e-15%" id="linearGradient-1">
            <stop stop-color="#DDEDEB" offset="0%"></stop>
            <stop stop-color="#E6F9F7" offset="100%"></stop>
        </linearGradient>
    </defs>
    <g id="install-locally" stroke="none" stroke-width="1" fill="none" fill-rule="evenodd">
        <rect id="Rectangle-Copy-8" fill="url(#linearGradient-1)" x="0" y="0" width="76" height="76" rx="12"></rect>
        <g id="Group" transform="translate(19, 19.2806)">
            <path d="M10.1942192,4.88569158 C11.3444012,4.906524 12.1745666,5.64875964 12.1876876,6.73707406 C12.2019801,7.83049745 11.3993285,8.61014666 10.2600488,8.65711463 C10.0603962,8.66563782 9.88691904,8.66941819 9.64716547,8.67018577 L9.32173161,8.66977147 L9.12406098,8.66868732 L9.02332031,8.66806765 L8.5631122,8.66749906 C8.4854605,8.66799614 8.41298411,8.6688918 8.34071458,8.67025108 C7.34695213,8.68841944 6.89148685,9.03864719 6.71290252,9.89860453 C6.60846442,10.4017594 6.50201037,10.9165253 6.39263394,11.4471895 C6.14080914,12.6689737 5.87996114,13.9433893 5.56721981,15.4781764 L5.5459307,15.5826759 L5.49406755,15.8373667 C5.25468532,17.0131758 4.74511274,19.5187419 4.74840427,19.5025677 C4.66461376,19.9143044 4.58778398,20.2915924 4.51486183,20.6493814 L4.50825009,20.6785864 L10.1359593,20.6785352 L10.2646693,20.6778861 C10.3179835,20.6775928 10.3663903,20.6773588 10.4108831,20.6771951 L10.6388167,20.677145 C10.7372449,20.6776302 10.8183244,20.6789468 10.9088725,20.6813929 C11.8618027,20.7061332 12.5109873,21.1512672 12.8233864,22.0257064 C13.1532334,22.9513425 13.4740101,23.6043079 13.8198242,24.6306743 C14.1066662,25.4849479 14.5040376,25.7288928 15.4329674,25.7370773 C17.834708,25.7586655 20.2261012,25.7584665 22.6070557,25.7362804 C23.5124784,25.7281395 23.9644187,25.458899 24.2419434,24.6306743 C24.5739237,23.6394487 24.8402718,23.0012144 25.1760632,22.0479958 C25.4946328,21.1412287 26.1507576,20.6877024 27.1313018,20.6836139 C27.7535555,20.6809397 28.3688984,20.6792094 29.021332,20.6783176 L31.5261762,20.6784527 C32.0587559,20.6790669 32.6306359,20.6799992 33.2548537,20.6812183 L33.314376,20.6814367 C33.3708677,20.6819093 33.4202289,20.683251 33.4801094,20.6864237 L33.4953319,20.6866023 L33.4724029,20.5700078 C33.4032774,20.2124657 33.3568191,19.975099 33.3093718,19.7385401 L33.2854562,19.6197753 C33.014305,18.2837426 32.7830496,17.1460833 32.3157178,14.8483499 C31.8075659,12.3499167 31.61262,11.3910012 31.3459605,10.0774294 C31.1344911,9.03903126 30.6437913,8.65692808 29.487699,8.65758646 L29.3501805,8.6578066 L29.0953197,8.65871404 L28.9783366,8.65898077 C28.7741932,8.65921994 28.6127473,8.65794281 28.4568145,8.65428311 C28.398317,8.65304796 28.3516215,8.65245343 28.2422714,8.65136323 L28.1969067,8.65090389 L28.1700041,8.65061656 C27.8143036,8.64666527 27.603407,8.63532393 27.3685974,8.59757204 C26.4601513,8.45109288 25.8145591,7.64118938 25.8414645,6.71155397 C25.8691637,5.78662458 26.5960698,4.95794104 27.5003634,4.92501386 C27.6580439,4.91903431 27.6580439,4.91903431 27.8170274,4.91275398 C28.1786876,4.89847504 28.3476728,4.89237958 28.5544775,4.88697052 C29.4155884,4.8644478 30.0652531,4.88889157 30.6945535,4.98846976 C33.0776024,5.36716055 34.7139237,7.03658789 35.2194723,9.52864048 L35.316689,10.0078576 C35.4795125,10.8102014 35.6508286,11.6530278 35.8983564,12.8699405 C35.9520159,13.1337401 35.9520159,13.1337401 36.0056783,13.3975443 C36.7442187,17.0282138 37.169244,19.1234823 37.5650703,21.0942761 L37.6678539,21.6065003 C37.7532665,22.032547 37.8384677,22.4585093 37.9263782,22.8988826 C37.9875913,23.2045505 38.0027112,23.489942 37.9984949,23.9357768 C37.9977728,24.0042688 37.9977728,24.0042688 37.9969175,24.0714994 C37.9951383,24.2117035 37.9945967,24.2712622 37.9947378,24.3459971 L37.9950369,24.5555505 L37.9951444,24.6306743 L37.9960713,25.2816357 C37.9968775,25.8586058 37.99757,26.3899844 37.998142,26.8839398 L37.9989086,27.5978266 C37.9990211,27.7124701 37.9991257,27.82503 37.9992225,27.9356338 L38,28.8817003 L38,30.5396549 L37.9991256,31.2928949 C37.9982667,31.9491901 37.9968219,32.5783166 37.994736,33.2456205 C37.9870903,35.9094185 35.8732379,37.9120514 33.1134616,37.9129401 C23.6936247,37.9169249 14.2729449,37.9169249 4.85315607,37.9129401 C2.15591181,37.9120491 0.0240622457,35.8904244 0.0173507531,33.2851543 L0.0169839557,33.1339907 L0.016155561,32.8367536 C0.0147923797,32.3883157 0.0128091796,31.9052418 0.0091615002,31.0768089 C0.00537737606,30.2173877 0.00381499589,29.8351603 0.0023142421,29.3574082 C0.00158976538,29.1267772 0.00101196977,28.9022337 0.000567760644,28.6832129 L0,27.4308424 C0.00178122065,25.9369248 0.0133486192,24.6901248 0.0385406097,23.4521893 C0.0518650541,22.7992062 0.143223909,22.2914787 0.402773249,21.1803233 C0.470235983,20.891509 0.509565341,20.7203202 0.54266713,20.566787 L0.580802015,20.3846239 C0.970849775,18.4632855 1.29044502,16.9000295 1.99047168,13.4840928 C2.13999223,12.7544773 2.13999223,12.7544773 2.28946688,12.0248991 C2.51115679,10.9426979 2.68861669,10.0754225 2.85933994,9.23948677 C3.37512323,6.71150747 5.55449921,4.9503789 8.21991943,4.88735592 C8.82316716,4.87258009 9.45197925,4.87296514 10.1942192,4.88569158 Z M8,28.7194347 L6,28.7194347 C4.8954305,28.7194347 4,29.6148652 4,30.7194347 C4,31.8240042 4.8954305,32.7194347 6,32.7194347 L8,32.7194347 C9.1045695,32.7194347 10,31.8240042 10,30.7194347 C10,29.6148652 9.1045695,28.7194347 8,28.7194347 Z" id="Combined-Shape" fill="#14B8A6"></path>
            <path d="M24.8635418,3.33317601 C25.9310738,3.33317601 26.7964795,4.24253691 26.7964795,5.36429042 L26.7964795,16.5353412 C26.7964795,17.6570947 25.9310738,18.5664556 24.8635418,18.5664556 L24.7192844,18.5608846 C23.7191246,18.4833476 22.9306041,17.6061059 22.9306041,16.5353412 L22.9302804,10.398176 L14.3228901,18.9366699 C13.5081093,19.7453946 12.2805679,19.8441453 11.5043836,19.1904741 L11.3857051,19.0810038 C10.6212278,18.3094069 10.6967595,16.9938089 11.5544113,16.1425075 L20.3732804,7.39517601 L14.2326478,7.39540483 C13.21364,7.39540483 12.378801,6.56683426 12.3050119,5.51587487 L12.2997101,5.36429042 C12.2997101,4.24253691 13.1651158,3.33317601 14.2326478,3.33317601 Z" id="Combined-Shape" fill="#0F766E" fill-rule="nonzero" transform="translate(19.0059, 11.5017) rotate(135) translate(-19.0059, -11.5017)"></path>
        </g>
    </g>
</svg>