<?xml version="1.0" encoding="UTF-8"?>
<svg width="76px" height="76px" viewBox="0 0 76 76" version="1.1" xmlns="http://www.w3.org/2000/svg" xmlns:xlink="http://www.w3.org/1999/xlink">
    <title>integrating-third-party-services-for-enhanced-identity-management</title>
    <defs>
        <linearGradient x1="-3.88578059e-14%" y1="100%" x2="100%" y2="2.77555756e-15%" id="linearGradient-1">
            <stop stop-color="#F2E4E8" offset="0%"></stop>
            <stop stop-color="#FFF4F6" offset="100%"></stop>
        </linearGradient>
    </defs>
    <g id="integrating-third-party-services-for-enhanced-identity-management" stroke="none" stroke-width="1" fill="none" fill-rule="evenodd">
        <rect id="Rectangle-Copy-10" fill="url(#linearGradient-1)" x="0" y="0" width="76" height="76" rx="12"></rect>
        <g id="gear-fill" transform="translate(19, 20)">
            <path d="M6.175,4.18827966 C8.22320013,2.30588964 10.5468884,0.926449471 13.2410889,0.0837845086 C14.0618892,-0.175208277 14.9757999,0.185151602 15.4375,0.903950352 C17.2406007,3.71158263 20.6681896,3.66089928 22.5035889,0.84575984 C22.9633882,0.140098355 23.827888,-0.160194219 24.6410889,0.0837845086 C27.2877882,0.87953045 29.8129108,2.33028755 31.8839111,4.18827966 C32.5413124,4.77758177 32.678088,5.71219708 32.2410889,6.47603822 C30.6697895,9.21610755 32.4710112,12.3352818 35.6839111,12.3409117 C36.5731119,12.3427892 37.3312014,12.9508701 37.525,13.8066726 C37.8308987,15.1616929 38,16.5561134 38,17.9711901 C38,19.6171087 37.9126118,20.7900714 37.5839111,22.1357086 C37.3806105,22.9652357 36.6092211,23.5282641 35.7428223,23.5432789 C32.4786215,23.5977037 30.6602875,26.4916679 32.2410889,29.6427465 C32.6172888,30.39345 32.4519999,31.3074528 31.825,31.8704831 C29.7900998,33.7040766 27.3353002,35.0984918 24.7,35.9167573 C23.9019999,36.1663653 23.0355992,35.8379516 22.5625,35.1548102 C20.5561005,32.2570946 17.4913879,32.2683561 15.3785889,35.1548102 C14.8997891,35.8098013 14.0200886,36.1006969 13.2410889,35.8585953 C10.5107883,35.0140553 8.19280052,33.7153382 6.175,31.8704831 C5.57270017,31.3205901 5.41691101,30.4385033 5.75891113,29.7009371 C7.3017112,26.3809497 5.5916997,23.7797676 2.1375,23.485117 C1.3015,23.4119224 0.587088874,22.8282555 0.416088867,22.0174947 C0.140588875,20.7187776 0,19.260525 0,17.9711901 C0,16.4341247 0.13489999,15.2630199 0.475,13.8648345 C0.672600004,13.0559512 1.41547781,12.4422682 2.25717773,12.3991023 C5.68857772,12.2283178 7.28081136,9.25551934 5.75891113,6.47603822 C5.34851098,5.72345772 5.54230011,4.77195145 6.175,4.18827966 Z M19.0018555,29.2570264 C25.2979012,29.2570264 30.4018555,24.2155006 30.4018555,17.9964642 C30.4018555,11.7774268 25.2979012,6.73590192 19.0018555,6.73590192 C12.7058097,6.73590192 7.60185547,11.7774268 7.60185547,17.9964642 C7.60185547,24.2155006 12.7058097,29.2570264 19.0018555,29.2570264 Z" id="Subtract" fill="#F43F5E"></path>
            <path d="M19.0018555,10.4894231 C14.8044912,10.4894231 11.4018555,13.8504399 11.4018555,17.9964646 C11.4018555,22.1424889 14.8044912,25.5035061 19.0018555,25.5035061 C23.1992193,25.5035061 26.6018555,22.1424889 26.6018555,17.9964646 C26.6018555,13.8504399 23.1992193,10.4894231 19.0018555,10.4894231 Z M7.60185547,17.9964646 C7.60185547,11.7774277 12.7058092,6.73590237 19.0018555,6.73590237 C25.2979012,6.73590237 30.4018555,11.7774277 30.4018555,17.9964646 C30.4018555,24.2155011 25.2979012,29.2570269 19.0018555,29.2570269 C12.7058092,29.2570269 7.60185547,24.2155011 7.60185547,17.9964646 Z" id="Ellipse-263-(Stroke)" fill="#BE123C"></path>
        </g>
    </g>
</svg>