<?xml version="1.0" encoding="UTF-8"?>
<svg width="36px" height="36px" viewBox="0 0 36 36" version="1.1" xmlns="http://www.w3.org/2000/svg" xmlns:xlink="http://www.w3.org/1999/xlink">
    <title>javascript</title>
    <defs>
        <rect id="path-1" x="0" y="0" width="36" height="36"></rect>
    </defs>
    <g id="Articles" stroke="none" stroke-width="1" fill="none" fill-rule="evenodd">
        <g id="javascript">
            <rect id="Rectangle" fill="#E2E8F0" x="2" y="2" width="32" height="32" rx="4"></rect>
            <mask id="mask-2" fill="white">
                <use xlink:href="#path-1"></use>
            </mask>
            <g id="Mask"></g>
            <g id="ex" transform="translate(7, 12)" fill="#000000" fill-rule="nonzero">
                <path d="M0.88989702,6.11152416 L0.88989702,6.24535316 C0.88989702,6.91449814 0.98116851,7.55390335 1.16371149,8.16356877 C1.34625447,8.7732342 1.61626596,9.30855019 1.97374596,9.76951673 C2.33122595,10.2304833 2.77997744,10.5947955 3.32000042,10.8624535 C3.8600234,11.1301115 4.48751489,11.2639405 5.20247489,11.2639405 C6.37379233,11.2639405 7.30171914,10.9628253 7.98625531,10.3605948 C8.67079148,9.75836431 9.14236084,8.92193309 9.40096339,7.85130112 L10.2680425,7.85130112 C10.00944,9.18959108 9.45040212,10.2156134 8.59092893,10.929368 C7.73145574,11.6431227 6.5943651,12 5.17965702,12 C4.31257787,12 3.5557851,11.8475836 2.90927872,11.5427509 C2.26277234,11.2379182 1.72274936,10.8215613 1.28920979,10.2936803 C0.855670212,9.76579926 0.532417021,9.14126394 0.319450212,8.42007435 C0.106483404,7.69888476 0,6.92193309 0,6.08921933 C0,5.28624535 0.110286383,4.51672862 0.330859149,3.78066914 C0.551431914,3.04460967 0.882291063,2.39776952 1.32343659,1.8401487 C1.76458213,1.28252788 2.31601404,0.836431227 2.97773234,0.501858736 C3.63945063,0.167286245 4.41906127,0 5.31656425,0 C6.13800765,0 6.86437659,0.148698885 7.49567106,0.446096654 C8.12696552,0.743494424 8.65557957,1.14869888 9.08151318,1.66171004 C9.5074468,2.17472119 9.83069999,2.76951673 10.0512728,3.44609665 C10.2718455,4.12267658 10.3821319,4.84758364 10.3821319,5.62081784 C10.3821319,5.69516729 10.3783289,5.78066914 10.370723,5.87732342 C10.363117,5.9739777 10.359314,6.05204461 10.359314,6.11152416 L0.88989702,6.11152416 Z M9.49223488,5.37546468 C9.46181105,4.75092937 9.35532765,4.1598513 9.17278467,3.60223048 C8.99024169,3.04460967 8.7202302,2.55390335 8.3627502,2.13011152 C8.0052702,1.7063197 7.57173063,1.36802974 7.06213148,1.11524164 C6.55253233,0.862453532 5.97067659,0.73605948 5.31656425,0.73605948 C4.61681617,0.73605948 4.00073361,0.866171004 3.46831659,1.12639405 C2.93589957,1.3866171 2.48714808,1.72862454 2.12206213,2.15241636 C1.75697617,2.57620818 1.47555574,3.07063197 1.27780085,3.63568773 C1.08004596,4.20074349 0.958350637,4.78066914 0.912714893,5.37546468 L9.49223488,5.37546468 Z" id="Shape"></path>
                <polygon id="Path" points="15.2042604 5.71003717 10.9145004 0.267657993 12.1238477 0.267657993 15.7975251 5.06319703 19.4940204 0.267657993 20.6120962 0.267657993 16.3679719 5.71003717 21 11.732342 19.8134706 11.732342 15.7975251 6.35687732 11.6903081 11.732342 10.5950502 11.732342"></polygon>
            </g>
        </g>
    </g>
</svg>