<svg width="199" height="198" viewBox="0 0 199 198" fill="none" xmlns="http://www.w3.org/2000/svg">
	<g clip-path="url(#clip0_2_35)">
		<path
			d="M147.637 155.14H146.904V154.73H148.879V155.14H148.15V157.188H147.637V155.14ZM151.577 155.247H151.565L150.838 157.188H150.506L149.783 155.247H149.774V157.188H149.291V154.73H150.002L150.672 156.471L151.339 154.73H152.048V157.188H151.576L151.577 155.247Z"
			fill="#5382A1" />
		<path
			d="M81.9652 104.877C81.9652 104.877 76.8611 107.845 85.5976 108.849C96.1816 110.057 101.591 109.883 113.255 107.676C113.255 107.676 116.321 109.599 120.604 111.264C94.4568 122.47 61.4282 110.615 81.9652 104.877Z"
			fill="#5382A1" />
		<path
			d="M78.7702 90.2534C78.7702 90.2534 73.0454 94.491 81.7884 95.3953C93.0946 96.5617 102.023 96.6571 117.473 93.6821C117.473 93.6821 119.61 95.8486 122.971 97.0333C91.3576 106.277 56.1463 97.7623 78.7702 90.2534Z"
			fill="#5382A1" />
		<path
			d="M105.705 65.4477C112.148 72.8651 104.012 79.5399 104.012 79.5399C104.012 79.5399 120.371 71.095 112.858 60.52C105.841 50.6582 100.461 45.7582 129.591 28.8638C129.591 28.8638 83.8659 40.2837 105.705 65.4477Z"
			fill="#F8981D" />
		<path
			d="M140.286 115.693C140.286 115.693 144.063 118.805 136.126 121.213C121.034 125.785 73.3108 127.165 60.0534 121.395C55.2877 119.322 64.2247 116.445 67.036 115.841C69.9678 115.205 71.6432 115.323 71.6432 115.323C66.3433 111.59 37.3867 122.655 56.9347 125.823C110.245 134.469 154.114 121.93 140.286 115.693Z"
			fill="#5382A1" />
		<path
			d="M84.4196 75.1021C84.4196 75.1021 60.1445 80.8679 75.8232 82.9616C82.4432 83.848 95.6401 83.6474 107.933 82.6175C117.979 81.77 128.066 79.9682 128.066 79.9682C128.066 79.9682 124.524 81.4853 121.961 83.2352C97.3102 89.7185 49.689 86.7024 63.3985 80.0708C74.9927 74.4664 84.4196 75.1021 84.4196 75.1021Z"
			fill="#5382A1" />
		<path
			d="M127.966 99.4431C153.025 86.4216 141.439 73.908 133.352 75.5939C131.37 76.0064 130.486 76.3639 130.486 76.3639C130.486 76.3639 131.222 75.2112 132.627 74.7122C148.626 69.0876 160.93 91.3014 127.463 100.099C127.463 100.099 127.85 99.7531 127.966 99.4431Z"
			fill="#5382A1" />
		<path
			d="M112.858 1.58362C112.858 1.58362 126.736 15.4663 99.6955 36.8139C78.0117 53.9384 94.7509 63.7023 99.6865 74.858C87.0293 63.4381 77.7406 53.3851 83.9722 44.0287C93.1187 30.2943 118.458 23.6354 112.858 1.58362Z"
			fill="#F8981D" />
		<path
			d="M86.882 134.729C110.935 136.268 147.872 133.874 148.747 122.493C148.747 122.493 147.065 126.807 128.868 130.234C108.338 134.097 83.0171 133.646 67.9989 131.17C67.9989 131.17 71.0733 133.715 86.882 134.729Z"
			fill="#5382A1" />
		<path
			d="M82.94 178.217C80.671 180.185 78.2744 181.29 76.1238 181.29C73.0541 181.29 71.3956 179.45 71.3956 176.497C71.3956 173.304 73.1725 170.969 80.3016 170.969H82.9397L82.94 178.217ZM89.2012 185.282V163.414C89.2012 157.828 86.0152 154.142 78.3335 154.142C73.849 154.142 69.9206 155.25 66.7278 156.662L67.6494 160.533C70.1633 159.61 73.4173 158.751 76.6112 158.751C81.0364 158.751 82.94 160.533 82.94 164.216V166.98H80.7314C69.98 166.98 65.1301 171.153 65.1301 177.418C65.1301 182.824 68.3262 185.897 74.344 185.897C78.2122 185.897 81.0997 184.3 83.799 181.963L84.289 185.282L89.2012 185.282Z"
			fill="#5382A1" />
		<path
			d="M110.097 185.282H102.288L92.8897 154.696H99.7092L105.541 173.488L106.837 179.14C109.787 170.968 111.874 162.678 112.918 154.696H119.551C117.774 164.768 114.576 175.823 110.097 185.282Z"
			fill="#5382A1" />
		<path
			d="M140.054 178.217C137.78 180.185 135.379 181.29 133.229 181.29C130.164 181.29 128.502 179.45 128.502 176.497C128.502 173.304 130.283 170.969 137.411 170.969H140.054V178.217ZM146.314 185.282V163.414C146.314 157.828 143.12 154.142 135.447 154.142C130.96 154.142 127.03 155.25 123.839 156.662L124.759 160.533C127.274 159.61 130.534 158.751 133.725 158.751C138.147 158.751 140.054 160.533 140.054 164.216V166.98H137.841C127.087 166.98 122.239 171.153 122.239 177.418C122.239 182.824 125.433 185.897 131.449 185.897C135.32 185.897 138.206 184.3 140.91 181.963L141.402 185.282L146.314 185.282Z"
			fill="#5382A1" />
		<path
			d="M58.2649 190.476C56.48 193.082 53.5972 195.143 50.441 196.31L47.3497 192.672C49.752 191.439 51.8123 189.449 52.7695 187.594C53.5975 185.945 53.9402 183.82 53.9402 178.737V143.819H60.5923V178.258C60.592 185.054 60.0487 187.799 58.2649 190.476Z"
			fill="#5382A1" />
	</g>
	<defs>
		<clipPath id="clip0_2_35">
			<rect width="198.13" height="197.58" fill="white" />
		</clipPath>
	</defs>
</svg>