<svg xmlns="http://www.w3.org/2000/svg" width="36" height="36"><mask id="a" fill="#fff"><path fill-rule="evenodd" d="M0 0h36v36H0z"/></mask><g mask="url(#a)"><path d="M13.203 10.219v11.343c-.008 1.844-.867 2.829-2.398 2.829-1.414 0-2.399-.844-2.407-2.172H6c0 2.703 2.031 4.218 4.742 4.218 2.938 0 4.86-1.796 4.867-4.875V10.22zM28 14.422h2.328C30.258 11.859 27.992 10 24.742 10c-3.211 0-5.672 1.836-5.672 4.594 0 2.226 1.594 3.531 4.164 4.226l1.89.516c1.712.453 3.032 1.016 3.032 2.437 0 1.563-1.492 2.594-3.547 2.594-1.86 0-3.406-.828-3.547-2.57H18.64c.156 2.898 2.399 4.687 5.985 4.687 3.757 0 5.921-1.976 5.921-4.687 0-2.883-2.57-4-4.601-4.5l-1.563-.406c-1.25-.32-2.914-.907-2.906-2.438 0-1.36 1.242-2.367 3.211-2.367 1.836 0 3.14.86 3.313 2.336z"/></g></svg>