<!DOCTYPE svg PUBLIC "-//W3C//DTD SVG 1.1//EN" "http://www.w3.org/Graphics/SVG/1.1/DTD/svg11.dtd">
<!-- Uploaded to: SVG Repo, www.svgrepo.com, Transformed by: SVG Repo Mixer Tools -->
<svg width="64px" height="64px" viewBox="0 -7.17 272.075 272.075" xmlns="http://www.w3.org/2000/svg" fill="#000000">
<g id="SVGRepo_bgCarrier" stroke-width="0"/>
<g id="SVGRepo_tracerCarrier" stroke-linecap="round" stroke-linejoin="round"/>
<g id="SVGRepo_iconCarrier">
<defs>
<style>.a{fill:#ffffff;}.b{fill:#211715;}.c{fill:#3d8dcc;}</style>
</defs>
<path class="a" d="M32.384,170.293c-.012-28.959-.027-67.343-.036-91.845a8.675,8.675,0,0,1,8.678-8.679c37.39-.011,145.732-.048,190.065-.064a8.68,8.68,0,0,1,8.685,8.681c0,32.87.014,86.255.027,120.266,6.865,9.649,21.6,29.954,28.8,42.254a7.951,7.951,0,0,1,1.086,4.031c0,1.255-.026,2.774-.026,4.343a6.027,6.027,0,0,1-6.026,6.019H7.52a5.024,5.024,0,0,1-5.026-5.023c0-7.75-.029,2.275-.029-5.329a8,8,0,0,1,1.09-4.047c7.281-12.434,22.071-33.379,28.84-42.882C32.392,191.008,32.388,181.336,32.384,170.293Z"/>
<path class="a" d="M46.079,87.767c.011,27.623.034,82.081.042,99.253a5.316,5.316,0,0,0,5.322,5.315c35.039-.013,134.825-.047,169.31-.057a5.32,5.32,0,0,0,5.321-5.322c-.012-30.2-.03-72.812-.042-99.24a5.317,5.317,0,0,0-5.317-5.321C195.1,82.4,84.253,82.441,51.4,82.45A5.315,5.315,0,0,0,46.079,87.767Z"/>
<path class="b" d="M34.784,170.293,34.763,117.3q0-12.775-.01-25.55,0-5.613,0-11.227a11.034,11.034,0,0,1,.53-4.635A6.372,6.372,0,0,1,38.463,72.7c1.995-.894,4.535-.533,6.678-.534l6.692,0,15.891,0,38.932-.013,43.7-.015,42.139-.014,34.377-.012c2.5,0,5.3-.407,7.533.944a6.173,6.173,0,0,1,2.64,3.328,15.042,15.042,0,0,1,.326,4.68q0,11.187,0,22.376,0,25.549.011,51.1,0,12.447.008,24.894,0,5.722,0,11.445,0,2.684,0,5.367c0,.8-.054,1.617,0,2.412a4.864,4.864,0,0,0,1.245,2.5c8.645,12.116,17.447,24.167,25.345,36.791.862,1.377,1.748,2.753,2.536,4.174,1.115,2.011.749,4.427.733,6.642a3.875,3.875,0,0,1-1.8,3.646,4.994,4.994,0,0,1-2.678.494H9.914c-1.2,0-2.773.25-3.816-.416-1.8-1.149-1.084-3.547-1.211-5.346-.179-2.549-4.1-3.439-4.714-.638a14.472,14.472,0,0,0-.1,1.493h4.8a11.59,11.59,0,0,1,.4-5.175,45.971,45.971,0,0,1,3.977-6.627c3.113-4.936,6.352-9.792,9.632-14.618q4.869-7.166,9.861-14.247,2.1-2.983,4.209-5.957a10.306,10.306,0,0,0,1.763-2.712c.377-1.367.085-3.208.084-4.613l-.009-23.75c0-3.089-4.8-3.094-4.8,0q0,13.863.011,27.725l.328-1.212c-9.437,13.251-18.936,26.549-27.391,40.456C1.586,239.477.313,241.587.1,244.239a21.28,21.28,0,0,0-.028,3.753,2.4,2.4,0,0,0,4.8,0c.045-.393.2-1.447-.07-.217l-4.715-.638c.056.789.007,1.6.007,2.387a8.166,8.166,0,0,0,1.948,5.755c1.9,2.114,4.442,2.42,7.1,2.42H260.683a18.477,18.477,0,0,0,5.359-.35,8.612,8.612,0,0,0,4.776-3.674c1.241-2,1.235-4.164,1.254-6.438.023-2.687-.057-5.132-1.4-7.542-.847-1.522-1.795-3-2.721-4.469-2.077-3.31-4.234-6.57-6.421-9.809-4.611-6.828-9.368-13.557-14.152-20.265q-2.751-3.856-5.5-7.711l.328,1.211q-.009-23.455-.016-46.913-.008-25.15-.01-50.3,0-10.947,0-21.894c0-3.809-1.06-7.328-4.149-9.782-2.821-2.241-5.95-2.458-9.4-2.457l-33.2.012-41.224.014-43.28.015-39.37.013-29.589.009c-3.528,0-6.845,1.007-9.233,3.747-2.68,3.076-2.78,6.6-2.779,10.465l.009,23.623.021,52.972q0,6.059.005,12.117C29.985,173.381,34.785,173.387,34.784,170.293Z"/>
<path class="b" d="M248.857,239.17H31.077c-2.947,0-5.9-.059-8.847,0-.127,0-.254,0-.381,0-3.089,0-3.094,4.8,0,4.8h217.78c2.946,0,5.9.059,8.846,0,.127,0,.255,0,.382,0,3.088,0,3.093-4.8,0-4.8Z"/>
<path class="c" d="M107.24,157.974a30.731,30.731,0,0,1-2.434-5.52,50.941,50.941,0,0,1-2.467-14.5c-.3-9.438-.061-18.183-.027-27.754a2.94,2.94,0,0,1,2.344-2.88c4.567-.928,10.975-2.247,14.191-3.2a126.816,126.816,0,0,0,16.109-5.978,2.94,2.94,0,0,1,2.323-.037c2.972,1.238,10.98,4.521,16.027,6.015,3.216.951,9.624,2.27,14.191,3.2a2.94,2.94,0,0,1,2.344,2.88c.034,9.571.278,18.316-.027,27.754a53,53,0,0,1-1.523,11.256,32,32,0,0,1-14.954,19.661c-4.686,2.753-10.05,5.42-14.788,7.608a5.88,5.88,0,0,1-4.944,0,158.256,158.256,0,0,1-17.457-9.235A26.1,26.1,0,0,1,107.24,157.974Z"/>
<path class="b" d="M109.312,156.762c-4.078-7.293-4.573-15.7-4.689-23.87-.061-4.26-.033-8.521.008-12.781.02-2.158.044-4.316.061-6.474a28.91,28.91,0,0,1,.019-3.185c.049-.406.035-.585.417-.769a10.58,10.58,0,0,1,2.329-.485q1.352-.277,2.7-.561c1.727-.364,3.453-.737,5.173-1.136a96.946,96.946,0,0,0,10.326-3.056q2.826-1,5.6-2.131,1.423-.58,2.835-1.187a5.863,5.863,0,0,1,2.168-.828,5.677,5.677,0,0,1,1.484.585q.9.371,1.8.737,2.158.874,4.329,1.717c2.975,1.15,5.972,2.292,9.039,3.175,3.113.9,6.3,1.542,9.472,2.206q1.341.281,2.682.555c.54.111,1.75.137,2.159.494.344.3.214.752.216,1.177q.008,1.71.023,3.419c.036,4.278.095,8.557.1,12.835.006,8.21.319,16.839-2.611,24.652a29.771,29.771,0,0,1-12.5,14.757c-3.477,2.1-7.112,3.955-10.76,5.736-1.556.759-3.371,1.991-5.1,2.252-1.7.258-3.411-.937-4.876-1.641-3.692-1.773-7.344-3.64-10.893-5.686a33.814,33.814,0,0,1-8.615-6.44,23.872,23.872,0,0,1-2.9-4.067c-1.546-2.672-5.7-.258-4.145,2.423a29.441,29.441,0,0,0,7.917,8.858,77.578,77.578,0,0,0,11.017,6.47q2.966,1.533,5.983,2.962c1.979.941,3.943,2.029,6.2,1.947s4.227-1.2,6.22-2.156q3.071-1.468,6.093-3.038a61.173,61.173,0,0,0,10.652-6.593,34.323,34.323,0,0,0,7.431-8.522c4.656-7.545,5.469-16.356,5.627-25.024.083-4.58.056-9.161.013-13.741-.022-2.4-.049-4.8-.067-7.2-.016-2.286.244-4.66-1.38-6.5-1.333-1.51-3.235-1.736-5.094-2.119-1.881-.387-3.76-.78-5.635-1.194a84.13,84.13,0,0,1-9.558-2.616c-3.339-1.162-6.634-2.456-9.909-3.786a14.246,14.246,0,0,0-4.172-1.423c-2.127-.141-4.2,1.219-6.116,2.006a127.613,127.613,0,0,1-22.876,6.776c-1.736.361-3.8.486-5.286,1.52-2.06,1.429-2.313,3.55-2.326,5.87-.026,4.7-.1,9.4-.114,14.1-.031,9.221-.238,18.678,2.772,27.52a35.569,35.569,0,0,0,2.6,5.882C106.675,161.882,110.823,159.464,109.312,156.762Z"/>
<path class="a" d="M128.71,123.832a7.525,7.525,0,0,1,2.014-5.119,7.647,7.647,0,0,1,10.7-.013c.172.176.338.359.5.549-.233-.283.174.244.214.3a9.693,9.693,0,0,1,.506.849s.322.67.176.328a7.543,7.543,0,0,1,.631,3.1c.039,3.086,4.84,3.1,4.8,0a12.159,12.159,0,0,0-7.935-11.387,12.109,12.109,0,0,0-16.4,11.387c-.04,3.09,4.76,3.091,4.8,0Z"/>
<path class="a" d="M119.041,127.359c0,6.166,0,13.212-.006,19.411a5.107,5.107,0,0,0,5.108,5.111c6.95,0,16.663.008,23.859.01a5.105,5.105,0,0,0,5.11-5.108c0-6.2,0-13.243.006-19.409a5.107,5.107,0,0,0-5.106-5.112l-23.86-.01A5.106,5.106,0,0,0,119.041,127.359Z"/>
<path class="c" d="M133.789,135.111c0,4.76,0,3.059-.006,7.428a2.255,2.255,0,0,0,2.25,2.256h.068a2.254,2.254,0,0,0,2.263-2.254c0-4.372,0-2.69,0-7.42C137.829,135.121,134.48,135.111,133.789,135.111Z"/>
<path class="c" d="M136.076,129.226a4.627,4.627,0,0,0-4.719,4.689,4.72,4.72,0,1,0,9.439,0A4.623,4.623,0,0,0,136.076,129.226Z"/>
<path class="b" d="M43.679,87.767q.012,31.886.027,63.771l.012,28.086,0,4.99c0,2.148-.087,4.26,1,6.207a8.005,8.005,0,0,0,7.254,3.914l4.589,0,53.245-.018,63.51-.022,27.908-.009,11.354,0h4.89c1.831,0,3.843.2,5.6-.359a7.832,7.832,0,0,0,5.39-7.014c.176-2.9.009-5.864.008-8.769q0-9.48-.008-18.961-.009-19.815-.017-39.629l-.008-18.586,0-8.507c0-2.716.42-5.811-.717-8.344A7.83,7.83,0,0,0,220.6,80c-1.039-.021-2.081,0-3.121,0l-8.044,0-49.5.016-59.906.02-46.13.014a14.382,14.382,0,0,0-5.134.472,7.862,7.862,0,0,0-5.088,7.246c-.1,3.09,4.7,3.086,4.8,0,.12-3.782,4.89-2.918,7.466-2.919l9.288,0,23.575-.008,57.512-.018,52.971-.018,17.9-.005c1.018,0,2.036-.006,3.054,0a3.062,3.062,0,0,1,3.388,3.23c.047,5.358,0,10.717.007,16.075q.017,37.594.032,75.189l0,4.436a16.826,16.826,0,0,1-.088,3.953c-.508,2-2.322,2.2-4.068,2.2l-9.588,0-24.736.008-61.159.021-56.639.019-10.627,0-4.434,0c-1.965,0-3.7-.662-3.813-2.915-.163-3.156,0-6.365,0-9.525l-.006-13-.027-63.652q0-6.535-.005-13.072C48.477,84.678,43.677,84.673,43.679,87.767Z"/>
<path class="b" d="M247.607,16.836l2.025-2.493a1.971,1.971,0,0,0-1.023-3.147l-3.1-.826a1.971,1.971,0,0,1-1.461-2.01l.174-3.207a1.971,1.971,0,0,0-2.677-1.945l-3,1.156a1.971,1.971,0,0,1-2.364-.768L234.438.9a1.971,1.971,0,0,0-3.309,0l-1.745,2.7a1.969,1.969,0,0,1-2.363.768l-3-1.156a1.971,1.971,0,0,0-2.677,1.945l.173,3.207a1.969,1.969,0,0,1-1.46,2.01l-3.1.826a1.971,1.971,0,0,0-1.022,3.147l2.025,2.493a1.969,1.969,0,0,1,0,2.484l-2.025,2.493a1.971,1.971,0,0,0,1.022,3.147l3.1.826a1.969,1.969,0,0,1,1.46,2.01L221.348,31a1.971,1.971,0,0,0,2.677,1.945l3-1.156a1.969,1.969,0,0,1,2.363.768l1.745,2.7a1.971,1.971,0,0,0,3.309,0l1.744-2.7a1.971,1.971,0,0,1,2.364-.768l3,1.156A1.971,1.971,0,0,0,244.219,31l-.174-3.207a1.971,1.971,0,0,1,1.461-2.01l3.1-.826a1.971,1.971,0,0,0,1.023-3.147l-2.025-2.493A1.969,1.969,0,0,1,247.607,16.836Z"/>
<path class="b" d="M211.511,38.673q-2.41,2.052-4.775,4.156c-.382.34-4.726,3.984-4.6,4.2,0-.007.566-.23.556-.224.225-.132.314.425.091.031a4.735,4.735,0,0,0-.93-.852l-2.2-2.01q-2.1-1.913-4.2-3.819-8.965-8.13-18.068-16.106c-2.972-2.589-5.962-5.158-9-7.668a2.468,2.468,0,0,0-3.394,0,2.419,2.419,0,0,0,0,3.394c6.2,5.12,12.22,10.451,18.215,15.8q4.89,4.367,9.741,8.775,2.285,2.073,4.561,4.155c1.558,1.425,3.035,3.169,5.332,3.072a5.277,5.277,0,0,0,3.4-1.821q1.37-1.276,2.763-2.526,2.917-2.623,5.905-5.167a2.421,2.421,0,0,0,0-3.394,2.449,2.449,0,0,0-3.394,0Z"/>
</g>
</svg>