<svg xmlns="http://www.w3.org/2000/svg" width="36" height="36"><mask id="a" fill="#fff"><path fill-rule="evenodd" d="M0 0h36v36H0z"/></mask><mask id="b" fill="#fff"><path fill-rule="evenodd" d="M0 0h33v34H0z"/></mask><g fill="none" fill-rule="evenodd" mask="url(#a)"><path fill="#ff2d20" d="M33.983 9.24a.503.503 0 0 1 .017.13v6.869a.501.501 0 0 1-.251.434l-5.75 3.32v6.578a.502.502 0 0 1-.25.435l-12 6.927c-.028.016-.058.026-.088.037-.011.003-.022.01-.034.013a.503.503 0 0 1-.256 0c-.013-.003-.026-.01-.039-.016-.027-.01-.056-.019-.082-.034l-12-6.927A.5.5 0 0 1 3 26.57V5.965c0-.045.006-.089.017-.131.004-.015.013-.028.018-.042.01-.027.018-.053.032-.078.01-.016.023-.03.034-.044.014-.02.028-.041.044-.059.015-.014.034-.025.05-.037.018-.015.034-.031.055-.043l6-3.464a.5.5 0 0 1 .5 0l6 3.464c.02.012.037.028.055.042.017.013.035.024.05.038.017.018.03.039.044.059.01.015.025.028.034.044.014.025.022.051.032.078.005.014.014.027.018.042a.507.507 0 0 1 .017.131v12.87l5-2.886v-6.58c0-.043.006-.088.017-.13.005-.015.013-.028.018-.042.01-.027.018-.054.032-.078.01-.016.023-.03.034-.044.015-.02.027-.041.045-.059.014-.014.032-.025.049-.037.018-.015.034-.031.054-.043h.001l6-3.464a.499.499 0 0 1 .5 0l6 3.464c.02.012.037.028.056.042.015.013.034.024.048.038.017.018.03.039.045.059.011.015.025.028.034.044.014.024.022.051.032.078.006.014.014.027.017.042zM33 15.948v-5.712l-2.1 1.212-2.9 1.675v5.712l5-2.887zM27 26.28v-5.715L24.147 22.2 16 26.862v5.77zM4 6.832v19.45l11 6.35v-5.769l-5.747-3.26-.002-.002-.002-.001c-.02-.012-.036-.028-.054-.042-.015-.012-.034-.022-.047-.036l-.002-.002c-.016-.016-.027-.035-.04-.053-.013-.016-.028-.03-.038-.048v-.002c-.012-.019-.019-.042-.027-.063-.008-.019-.019-.036-.024-.056-.006-.025-.007-.05-.01-.074-.002-.019-.007-.038-.007-.056V9.719L6.1 8.044 4 6.833zM9.5 3.08 4.501 5.965 9.5 8.85l4.999-2.885-5-2.885zm2.6 18.007 2.9-1.674V6.833l-2.1 1.211L10 9.72V22.3zM27.5 6.485 22.502 9.37l4.998 2.885 4.998-2.886zm-.5 6.639-2.9-1.675-2.1-1.212v5.712l2.9 1.674 2.1 1.212zM15.5 25.995l7.331-4.197 3.665-2.097-4.995-2.883-5.75 3.32-5.241 3.025z"/><path stroke="#ff2d20" stroke-width=".5" d="M31.983 8.24a.503.503 0 0 1 .017.13v6.869a.501.501 0 0 1-.251.434l-5.75 3.32v6.578a.502.502 0 0 1-.25.435l-12 6.927c-.028.016-.058.026-.088.037-.011.003-.022.01-.034.013a.503.503 0 0 1-.256 0c-.013-.003-.026-.01-.039-.016-.027-.01-.056-.019-.082-.034l-12-6.927A.5.5 0 0 1 1 25.57V4.965c0-.045.006-.089.017-.131.004-.015.013-.028.018-.042.01-.027.018-.053.032-.078.01-.016.023-.03.034-.044.014-.02.028-.041.044-.059.015-.014.034-.025.05-.037.018-.015.034-.031.055-.043l6-3.464a.5.5 0 0 1 .5 0l6 3.464c.02.012.037.028.055.042.017.013.035.024.05.038.017.018.03.039.044.059.01.015.025.028.034.044.014.025.022.051.032.078.005.014.014.027.018.042a.507.507 0 0 1 .017.131v12.87l5-2.886v-6.58c0-.043.006-.088.017-.13.005-.015.013-.028.018-.042.01-.027.018-.054.032-.078.01-.016.023-.03.034-.044.015-.02.027-.041.045-.059.014-.014.032-.025.049-.037.018-.015.034-.031.054-.043h.001l6-3.464a.499.499 0 0 1 .5 0l6 3.464c.02.012.037.028.056.042.015.013.034.024.048.038.017.018.03.039.045.059.011.015.025.028.034.044.014.024.022.051.032.078.006.014.014.027.017.042zM31 14.948V9.237l-2.1 1.212-2.9 1.675v5.712l5-2.887zM25 25.28v-5.715L22.147 21.2 14 25.862v5.77zM2 5.832v19.45l11 6.35v-5.769l-5.747-3.26-.002-.002-.002-.001c-.02-.012-.036-.028-.054-.042-.015-.012-.034-.022-.047-.036l-.002-.002c-.016-.016-.027-.035-.04-.053-.013-.016-.028-.03-.038-.048v-.002c-.012-.019-.019-.042-.027-.063-.008-.019-.019-.036-.024-.056-.006-.025-.007-.05-.01-.074-.002-.019-.007-.038-.007-.056V8.719L4.1 7.044 2 5.833zM7.5 2.08 2.501 4.965 7.5 7.85l4.999-2.885-5-2.885zm2.6 18.007 2.9-1.674V5.833l-2.1 1.211L8 8.72V21.3zM25.5 5.485 20.502 8.37l4.998 2.885 4.998-2.886zm-.5 6.639-2.9-1.675L20 9.237v5.712l2.9 1.674 2.1 1.212zM13.5 24.995l7.331-4.197 3.665-2.097-4.995-2.883-5.75 3.32-5.241 3.025z" mask="url(#b)" transform="translate(2 1)"/></g></svg>