<svg xmlns="http://www.w3.org/2000/svg" width="70" height="70"><defs><linearGradient id="a" x1="0%" x2="100%" y1="0%" y2="100%"><stop offset="0%" stop-color="#C0CBDA"/><stop offset="100%" stop-color="#2D53F5"/></linearGradient></defs><path fill="url(#a)" d="M34.284 0c2.235 0 5.098 1.18 6.656 2.763L51.237 13.06C52.82 14.643 54 17.506 54 19.716v14.568c0 2.235-1.18 5.098-2.763 6.656L40.94 51.237C39.357 52.82 36.52 54 34.284 54H19.716c-2.235 0-5.098-1.18-6.656-2.763L2.763 40.94C1.18 39.357 0 36.494 0 34.284V19.716c0-2.235 1.18-5.098 2.763-6.656L13.06 2.763C14.643 1.18 17.506 0 19.716 0h14.568Zm0 3.767H19.716c-1.23 0-3.14.779-3.993 1.658L5.425 15.723c-.854.879-1.658 2.763-1.658 3.993v14.568c0 1.23.779 3.14 1.658 3.993l10.298 10.298c.879.854 2.763 1.658 3.993 1.658h14.568c1.23 0 3.14-.779 3.993-1.658l10.298-10.298c.854-.879 1.658-2.763 1.658-3.993V19.716c0-1.23-.779-3.14-1.658-3.993L38.277 5.425c-.879-.854-2.763-1.658-3.993-1.658Zm2.838 13.111a1.895 1.895 0 0 1 0 2.662L29.662 27l7.46 7.46a1.895 1.895 0 0 1 0 2.662 1.863 1.863 0 0 1-1.332.552c-.477 0-.954-.175-1.33-.552l-7.461-7.46-7.459 7.46a1.863 1.863 0 0 1-1.33.552c-.478 0-.955-.175-1.332-.552a1.895 1.895 0 0 1 0-2.662L24.337 27l-7.459-7.46a1.895 1.895 0 0 1 0-2.662 1.895 1.895 0 0 1 2.662 0L27 24.337l7.46-7.459a1.895 1.895 0 0 1 2.663 0Z" transform="translate(6 8)"/></svg>