<?xml version="1.0" encoding="UTF-8"?>
<svg width="54px" height="54px" viewBox="0 0 54 54" version="1.1" xmlns="http://www.w3.org/2000/svg" xmlns:xlink="http://www.w3.org/1999/xlink">
    <title>login-authentication-workflows</title>
    <defs>
        <polygon id="path-1" points="0 0 20 0 20 10 0 10"></polygon>
        <polygon id="path-3" points="0 0 18.6537 0 18.6537 10 0 10"></polygon>
    </defs>
    <g id="login-authentication-workflows" stroke="none" stroke-width="1" fill="none" fill-rule="evenodd">
        <rect id="Rectangle" fill="#F1F5F9" x="0" y="0" width="54" height="54" rx="5"></rect>
        <path d="M26.8079,25.6475 C26.3669,25.6475 26.0089,25.2185 26.0089,24.6885 L26.0089,18.5565 C26.0089,18.0265 26.3669,17.5975 26.8079,17.5975 C27.2489,17.5975 27.6069,18.0265 27.6069,18.5565 L27.6069,24.6885 C27.6069,25.2185 27.2489,25.6475 26.8079,25.6475" id="Fill-1" stroke="#CBD5E1" fill="#CBD5E1"></path>
        <path d="M37.288,36.4564 C36.847,36.4564 36.489,36.0984 36.489,35.6574 L36.489,28.9494 C36.489,28.7504 36.451,28.6044 36.387,28.5484 C36.298,28.4704 36.093,28.4754 36.075,28.4744 C36.037,28.4794 36,28.4824 35.962,28.4824 L17.581,28.4824 C17.402,28.4824 17.267,28.5164 17.209,28.5764 C17.142,28.6454 17.123,28.7914 17.125,28.8504 L17.126,35.6284 C17.126,36.0694 16.768,36.4274 16.327,36.4274 C15.886,36.4274 15.528,36.0694 15.528,35.6284 L15.528,28.8954 C15.523,28.8694 15.481,28.0894 16.033,27.4914 C16.291,27.2144 16.768,26.8834 17.581,26.8834 L35.922,26.8834 C36.161,26.8604 36.871,26.8514 37.435,27.3404 C37.732,27.5984 38.087,28.0884 38.087,28.9494 L38.087,35.6574 C38.087,36.0984 37.729,36.4564 37.288,36.4564" id="Fill-13" stroke="#CBD5E1" fill="#CBD5E1"></path>
        <g id="Group-5" transform="translate(17, 9)">
            <mask id="mask-2" fill="white">
                <use xlink:href="#path-1"></use>
            </mask>
            <g id="Clip-4"></g>
            <path d="M1.62917816,10 C0.729453877,10 0,9.13422896 0,8.06636812 L0,1.93363188 C0,0.865771041 0.729453877,0 1.62917816,0 L18.3708218,0 C19.2705461,0 20,0.865771041 20,1.93363188 L20,8.06636812 C20,9.13422896 19.2705461,10 18.3708218,10 L1.62917816,10 Z" id="Fill-3" fill="#4338CA" mask="url(#mask-2)"></path>
        </g>
        <g id="Group-8" transform="translate(7, 35.657)">
            <mask id="mask-4" fill="white">
                <use xlink:href="#path-3"></use>
            </mask>
            <g id="Clip-7"></g>
            <path d="M16.9697,10 L1.6837,10 C0.7537,10 -0.0003,9.13422896 -0.0003,8.06636812 L-0.0003,1.93363188 C-0.0003,0.865771041 0.7537,0 1.6837,0 L16.9697,0 C17.8997,0 18.6537,0.865771041 18.6537,1.93363188 L18.6537,8.06636812 C18.6537,9.13422896 17.8997,10 16.9697,10" id="Fill-6" fill="#F59E0B" mask="url(#mask-4)"></path>
        </g>
        <path d="M29.9241,28.5857 L27.7101,30.7997 C27.2121,31.2977 26.4031,31.2977 25.9051,30.7997 L23.6911,28.5857 C23.1921,28.0867 23.1921,27.2787 23.6911,26.7797 L25.9051,24.5667 C26.4031,24.0677 27.2121,24.0677 27.7101,24.5667 L29.9241,26.7797 C30.4231,27.2787 30.4231,28.0867 29.9241,28.5857" id="Fill-9" fill="#607799"></path>
        <path d="M44.931,45.657 L29.645,45.657 C28.715,45.657 27.961,44.791229 27.961,43.7233681 L27.961,37.5906319 C27.961,36.522771 28.715,35.657 29.645,35.657 L44.931,35.657 C45.861,35.657 46.615,36.522771 46.615,37.5906319 L46.615,43.7233681 C46.615,44.791229 45.861,45.657 44.931,45.657" id="Fill-11" fill="#A5B4FC"></path>
    </g>
</svg>