<svg xmlns="http://www.w3.org/2000/svg" width="70" height="70"><linearGradient id="a" x1="0%" x2="100%" y1="6.55%" y2="93.45%"><stop offset="0" stop-color="#a4aebe"/><stop offset="1" stop-color="#2d53f5"/></linearGradient><path fill="url(#a)" d="M54.542 38.9H46.89v-6.89c0-3.018-2.462-5.475-5.487-5.475h-4.665l-5.624-5.61v-4.823h11.863c2.74 0 4.968-2.223 4.968-4.956v-6.19C47.945 2.223 45.717 0 42.977 0H16.023c-2.74 0-4.968 2.223-4.968 4.956v6.19c0 2.733 2.228 4.956 4.968 4.956h11.863v4.822l-5.624 5.611h-4.665c-3.025 0-5.487 2.457-5.487 5.474v6.892H4.458A4.458 4.458 0 0 0 0 43.348v7.204C0 53.005 2 55 4.458 55h18.531a4.458 4.458 0 0 0 4.458-4.448v-7.204c0-2.452-2-4.447-4.458-4.447h-7.652v-6.892a2.26 2.26 0 0 1 2.26-2.254h4.665l6.097 6.083a1.616 1.616 0 0 0 2.282 0l6.097-6.083h4.665a2.26 2.26 0 0 1 2.26 2.254v6.892H36.01a4.458 4.458 0 0 0-4.458 4.447v7.204c0 2.453 2 4.448 4.458 4.448h18.531A4.458 4.458 0 0 0 59 50.552v-7.204c0-2.452-2-4.447-4.458-4.447zm-40.26-27.754v-6.19c0-.957.78-1.736 1.741-1.736h26.954c.96 0 1.74.778 1.74 1.736v6.19a1.74 1.74 0 0 1-1.74 1.736H16.023a1.74 1.74 0 0 1-1.74-1.736zm9.938 32.202v7.204a1.23 1.23 0 0 1-1.23 1.228H4.457a1.23 1.23 0 0 1-1.23-1.228v-7.204a1.23 1.23 0 0 1 1.23-1.227h18.531c.68 0 1.23.551 1.23 1.227zm5.28-10.926-4.286-4.277L29.5 23.87l4.286 4.276zm26.272 18.13a1.23 1.23 0 0 1-1.23 1.228H36.011a1.23 1.23 0 0 1-1.23-1.228v-7.204a1.23 1.23 0 0 1 1.23-1.227h18.531c.68 0 1.23.551 1.23 1.227z" transform="translate(6 7)"/></svg>