<?xml version="1.0" encoding="UTF-8"?>
<svg width="76px" height="76px" viewBox="0 0 76 76" version="1.1" xmlns="http://www.w3.org/2000/svg" xmlns:xlink="http://www.w3.org/1999/xlink">
    <title>login-authentication-workflows</title>
    <defs>
        <linearGradient x1="-3.88578059e-14%" y1="100%" x2="100%" y2="2.77555756e-15%" id="linearGradient-1">
            <stop stop-color="#DDE7EC" offset="0%"></stop>
            <stop stop-color="#E7F6FD" offset="100%"></stop>
        </linearGradient>
    </defs>
    <g id="login-authentication-workflows" stroke="none" stroke-width="1" fill="none" fill-rule="evenodd">
        <rect id="Rectangle" fill="url(#linearGradient-1)" x="0" y="0" width="76" height="76" rx="12"></rect>
        <g id="Group" transform="translate(19, 19)">
            <path d="M10.0603027,26.3408456 L10.0603027,20.5084865 L28.0245361,20.5084865 L28.0245361,26.3408456 C28.6338025,26.1307416 29.3729808,26.0164189 30.0559896,26.0164189 C30.7389984,26.0164189 31.3946398,26.1307416 32.0039063,26.3408456 L32.0039063,18.3749235 C32.0039063,17.3253052 31.1317951,16.4744214 30.0559896,16.4744214 L20.9953613,16.4744214 L20.9953613,11.1506083 C20.386094,11.3607117 19.6830088,11.4750349 19,11.4750349 C18.3169912,11.4750349 17.6151267,11.3607117 17.0058594,11.1506083 L17.0058594,16.4744214 L8,16.4744214 C6.92419528,16.4744214 6.05208333,17.3253052 6.05208333,18.3749235 L6.05208333,26.3408456 C6.6613506,26.1307416 7.31699144,26.0164189 8,26.0164189 C8.68300856,26.0164189 9.45103541,26.1307416 10.0603027,26.3408456 Z" id="Subtract" fill="#0369A1" fill-rule="nonzero" transform="translate(19.028, 18.7457) scale(1, -1) translate(-19.028, -18.7457)"></path>
            <rect id="Rectangle" fill="#0EA5E9" x="22" y="0" width="16" height="12" rx="4"></rect>
            <rect id="Rectangle" fill="#0EA5E9" x="11" y="26" width="16" height="12" rx="4"></rect>
            <rect id="Rectangle" fill="#0EA5E9" x="0" y="0" width="16" height="12" rx="4"></rect>
        </g>
    </g>
</svg>