<?xml version="1.0" encoding="UTF-8"?>
<svg width="54px" height="54px" viewBox="0 0 54 54" version="1.1" xmlns="http://www.w3.org/2000/svg" xmlns:xlink="http://www.w3.org/1999/xlink">
    <title>login-authentication-workflows</title>
    <defs>
        <polygon id="path-1" points="0 0 16.1554967 0 16.1554967 8.18397578 0 8.18397578"></polygon>
        <polygon id="path-3" points="0 0 15.0679894 0 15.0679894 8.18397578 0 8.18397578"></polygon>
    </defs>
    <g id="login-authentication-workflows" stroke="none" stroke-width="1" fill="none" fill-rule="evenodd">
        <rect id="Rectangle" fill="#F1F5F9" x="0" y="0" width="54" height="54" rx="5"></rect>
        <g id="Group" transform="translate(11, 12)">
            <path d="M16.0003231,13.6242737 C15.6440944,13.6242737 15.354911,13.2731811 15.354911,12.8394304 L15.354911,7.82101645 C15.354911,7.38726573 15.6440944,7.03617317 16.0003231,7.03617317 C16.3565518,7.03617317 16.6457352,7.38726573 16.6457352,7.82101645 L16.6457352,12.8394304 C16.6457352,13.2731811 16.3565518,13.6242737 16.0003231,13.6242737" id="Fill-1" stroke="#CBD5E1" stroke-width="0.81" fill="#CBD5E1"></path>
            <path d="M24.4658841,22.4702512 C24.1096554,22.4702512 23.820472,22.1772649 23.820472,21.8163516 L23.820472,16.3265406 C23.820472,16.1636795 23.7897766,16.0441935 23.738079,15.9983632 C23.6661871,15.9345282 23.5005932,15.9386202 23.4860533,15.9378018 C23.4553578,15.9418938 23.4254702,15.944349 23.3947747,15.944349 L8.54706551,15.944349 C8.40247381,15.944349 8.29342421,15.9721745 8.24657327,16.0212783 C8.19245235,16.0777478 8.17710463,16.1972338 8.17872018,16.2455193 L8.17952796,21.7926181 C8.17952796,22.1535314 7.89034457,22.4465177 7.53411587,22.4465177 C7.17788716,22.4465177 6.88870377,22.1535314 6.88870377,21.7926181 L6.88870377,16.2823472 C6.8846649,16.2610688 6.85073836,15.6227187 7.29663006,15.133317 C7.50503597,14.9066208 7.89034457,14.6357312 8.54706551,14.6357312 L23.3624637,14.6357312 C23.5555219,14.6169081 24.129042,14.6095425 24.584627,15.0097389 C24.8245362,15.2208855 25.1112962,15.6219003 25.1112962,16.3265406 L25.1112962,21.8163516 C25.1112962,22.1772649 24.8221128,22.4702512 24.4658841,22.4702512" id="Fill-13" stroke="#CBD5E1" stroke-width="0.81" fill="#CBD5E1"></path>
            <g id="Group-5" transform="translate(8.0777, 0)">
                <mask id="mask-2" fill="white">
                    <use xlink:href="#path-1"></use>
                </mask>
                <g id="Clip-4"></g>
                <path d="M1.31600911,8.18397578 C0.589234484,8.18397578 0,7.47543085 0,6.60149613 L0,1.58247964 C0,0.708544923 0.589234484,0 1.31600911,0 L14.8394875,0 C15.5662622,0 16.1554967,0.708544923 16.1554967,1.58247964 L16.1554967,6.60149613 C16.1554967,7.47543085 15.5662622,8.18397578 14.8394875,8.18397578 L1.31600911,8.18397578 Z" id="Fill-3" fill="#4338CA" mask="url(#mask-2)"></path>
            </g>
            <g id="Group-8" transform="translate(0, 21.816)">
                <mask id="mask-4" fill="white">
                    <use xlink:href="#path-3"></use>
                </mask>
                <g id="Clip-7"></g>
                <path d="M13.7076966,8.18397578 L1.36005049,8.18397578 C0.608819891,8.18397578 -0.00024233245,7.47543085 -0.00024233245,6.60149613 L-0.00024233245,1.58247964 C-0.00024233245,0.708544923 0.608819891,0 1.36005049,0 L13.7076966,0 C14.4589272,0 15.0679894,0.708544923 15.0679894,1.58247964 L15.0679894,6.60149613 C15.0679894,7.47543085 14.4589272,8.18397578 13.7076966,8.18397578" id="Fill-6" fill="#F59E0B" mask="url(#mask-4)"></path>
            </g>
            <path d="M18.517511,16.0288894 L16.7290976,17.8408217 C16.3268257,18.2483837 15.6733359,18.2483837 15.271064,17.8408217 L13.4826505,16.0288894 C13.0795709,15.620509 13.0795709,14.9592438 13.4826505,14.5508634 L15.271064,12.7397496 C15.6733359,12.3313692 16.3268257,12.3313692 16.7290976,12.7397496 L18.517511,14.5508634 C18.9205907,14.9592438 18.9205907,15.620509 18.517511,16.0288894" id="Fill-9" fill="#4338CA"></path>
            <path d="M30.6397072,30 L18.2920611,30 C17.5408305,30 16.9317683,29.2914551 16.9317683,28.4175204 L16.9317683,23.3985039 C16.9317683,22.5245691 17.5408305,21.8160242 18.2920611,21.8160242 L30.6397072,21.8160242 C31.3909378,21.8160242 32,22.5245691 32,23.3985039 L32,28.4175204 C32,29.2914551 31.3909378,30 30.6397072,30" id="Fill-11" fill="#CBD5E1"></path>
        </g>
    </g>
</svg>