<?xml version="1.0" encoding="UTF-8"?>
<svg width="76px" height="76px" viewBox="0 0 76 76" version="1.1" xmlns="http://www.w3.org/2000/svg" xmlns:xlink="http://www.w3.org/1999/xlink">
    <title>login-failures-dark</title>
    <defs>
        <linearGradient x1="-3.88578059e-14%" y1="100%" x2="100%" y2="2.77555756e-15%" id="linearGradient-1">
            <stop stop-color="#3B1730" offset="0%"></stop>
            <stop stop-color="#5E3448" offset="100%"></stop>
        </linearGradient>
        <filter x="-96.1%" y="-93.4%" width="292.1%" height="292.1%" filterUnits="objectBoundingBox" id="filter-2">
            <feOffset dx="0" dy="1" in="SourceAlpha" result="shadowOffsetOuter1"></feOffset>
            <feGaussianBlur stdDeviation="12" in="shadowOffsetOuter1" result="shadowBlurOuter1"></feGaussianBlur>
            <feColorMatrix values="0 0 0 0 0   0 0 0 0 0   0 0 0 0 0  0 0 0 0.5 0" type="matrix" in="shadowBlurOuter1" result="shadowMatrixOuter1"></feColorMatrix>
            <feMerge>
                <feMergeNode in="shadowMatrixOuter1"></feMergeNode>
                <feMergeNode in="SourceGraphic"></feMergeNode>
            </feMerge>
        </filter>
    </defs>
    <g id="login-failures-dark" stroke="none" stroke-width="1" fill="none" fill-rule="evenodd">
        <rect id="Rectangle-Copy-7" fill="url(#linearGradient-1)" x="0" y="0" width="76" height="76" rx="12"></rect>
        <g id="circle-exclamation-solid" filter="url(#filter-2)" transform="translate(19, 19)" fill="#F43F5E" fill-rule="nonzero">
            <path d="M19,38 C29.4934102,38 38,29.4934102 38,19 C38,8.50658975 29.4934102,0 19,0 C8.50658975,0 0,8.50658975 0,19 C0,29.4934102 8.50658975,38 19,38 Z M19,8 C20.1083333,8 21,9.07 21,10.4 L21,21.6 C21,22.93 20.1083333,24 19,24 C17.8916667,24 17,22.93 17,21.6 L17,10.4 C17,9.07 17.8916667,8 19,8 Z M17,28 C17,26.8954305 17.8954305,26 19,26 C20.1045695,26 21,26.8954305 21,28 C21,29.1045695 20.1045695,30 19,30 C17.8954305,30 17,29.1045695 17,28 Z" id="Shape"></path>
        </g>
    </g>
</svg>