<svg height="70" viewBox="0 0 70 70" width="70" xmlns="http://www.w3.org/2000/svg" xmlns:xlink="http://www.w3.org/1999/xlink"><linearGradient id="a" x1="0%" x2="100%" y1="6.549842%" y2="93.450158%"><stop offset="0" stop-color="#a4aebe"/><stop offset="1" stop-color="#2d53f5"/></linearGradient><path d="m54.5420788 38.9005855h-7.6519256v-6.8911007c0-3.0179157-2.4619913-5.4742389-5.4868709-5.4742389h-4.6657768l-5.6237199-5.6107728v-4.8224825h11.8632604c2.7395623 0 4.9678774-2.223185 4.9678774-4.9564402v-6.18911012c0-2.73325527-2.2283151-4.95644028-4.9678774-4.95644028h-26.954092c-2.7395623 0-4.9678774 2.22318501-4.9678774 4.95644028v6.18911012c0 2.7332552 2.2283151 4.9564402 4.9678774 4.9564402h11.8632604v4.8224825l-5.6237199 5.6107728h-4.6657768c-3.0248796 0-5.4868709 2.4563232-5.4868709 5.4742389v6.8911007h-7.65192557c-2.45811817 0-4.45792123 1.995199-4.45792123 4.4476581v7.2040983c0 2.452459 1.99980306 4.4476581 4.45792123 4.4476581h18.53142227c2.4581182 0 4.4579213-1.9951991 4.4579213-4.4476581v-7.2040983c0-2.4524591-1.9998031-4.4476581-4.4579213-4.4476581h-7.6519256v-6.8911007c0-1.2429743 1.0134574-2.2540984 2.2592998-2.2540984h4.6657768l6.0962364 6.0822014c.3021006.3014052.7126477.4714286 1.1412691.4714286s.8391685-.1700234 1.1412691-.4714286l6.0962364-6.0822014h4.6657768c1.2458424 0 2.2592998 1.0111241 2.2592998 2.2540984v6.8911007h-7.6519256c-2.4581182 0-4.4579213 1.995199-4.4579213 4.4476581v7.2040983c0 2.452459 1.9998031 4.4476581 4.4579213 4.4476581h18.5314223c2.4581181 0 4.4579212-1.9951991 4.4579212-4.4476581v-7.2040983c0-2.4524591-1.9998031-4.4476581-4.4579212-4.4476581zm-40.2594311-27.7550351v-6.18911012c0-.95702576.7797812-1.73629976 1.7403063-1.73629976h26.954092c.9592341 0 1.7403063.77798594 1.7403063 1.73629976v6.18911012c0 .9570257-.7797812 1.7362997-1.7403063 1.7362997h-26.954092c-.9592341 0-1.7403063-.7779859-1.7403063-1.7362997zm9.937046 32.2026932v7.2040983c0 .6775176-.5525602 1.2275176-1.2303502 1.2275176h-18.53142227c-.67908097 0-1.23035011-.5512881-1.23035011-1.2275176v-7.2040983c0-.6775176.55256017-1.2275176 1.23035011-1.2275176h18.53142227c.679081 0 1.2303502.5512881 1.2303502 1.2275176zm5.2803063-10.9265808-4.2862144-4.2763466 4.2862144-4.2763466 4.2862144 4.2763466zm26.2724289 18.1306791c0 .6775176-.5525602 1.2275176-1.2303501 1.2275176h-18.5314223c-.679081 0-1.2303502-.5512881-1.2303502-1.2275176v-7.2040983c0-.6775176.5525602-1.2275176 1.2303502-1.2275176h18.5314223c.6790809 0 1.2303501.5512881 1.2303501 1.2275176z" fill="url(#a)" transform="translate(6 7)"/></svg>