<svg height="54" viewBox="0 0 54 54" width="54" xmlns="http://www.w3.org/2000/svg"><g fill="none" fill-rule="evenodd"><rect fill="#f1f5f9" height="54" rx="5" width="54"/><g fill-rule="nonzero" transform="translate(12 12)"><path d="m5.89268461 26.0987402-3.48752519 3.4883013c-.27547926.2748359-.63550459.4129585-.99623447.4129585s-.72075521-.1381226-.99623447-.4129585c-.55025397-.5503764-.55025397-1.4425359 0-1.9929123l3.48752519-3.4883013h1.99246894z" fill="#0f172a"/><g fill="#fcd34d"><path d="m26.5586662 19.8435785c.4965009.4966114 1.1822757.8039069 1.939371.8039069-.7570953 0-1.4428701.3072954-1.939371.8039068s-.803728 1.1825388-.803728 1.9398026c0-1.5152135-1.2282226-2.7437094-2.743099-2.7437094.7570953 0 1.4428701-.3072955 1.939371-.8039069s.803728-1.1825388.803728-1.9398026c0 .7572638.3072271 1.4431912.803728 1.9398026z"/><path d="m19.015144 24.7593913c.4965009.4966114 1.1822756.8039068 1.939371.8039068-.7570954 0-1.4428701.3072955-1.939371.8039069s-.803728 1.1825388-.803728 1.9398026c0-1.5152136-1.2282226-2.7437095-2.743099-2.7437095.7570953 0 1.44287-.3072954 1.939371-.8039068.4965009-.4966115.803728-1.1825388.803728-1.9398026 0 .7572638.3072271 1.4431911.803728 1.9398026z"/><path d="m7.20051656 4.94896592c.672345.67249462 1.60099831 1.08862388 2.62623156 1.08862388-1.02523325 0-1.95388656.41612927-2.62623156 1.08862389-.67234499.67249461-1.08838167 1.60135458-1.08838167 2.62681599 0-2.05185167-1.66321808-3.71543988-3.71461323-3.71543988 1.02523325 0 1.95388656-.41612926 2.62623155-1.08862388.672345-.67249462 1.08838168-1.60135459 1.08838168-2.626816 0 1.02546141.41603668 1.95432138 1.08838167 2.626816z"/></g><path d="m24.8465033 5.14779115c.550254.55108114.550254 1.44324062 0 1.99361705l-2.7075877 2.70748558-16.24623099 16.24984642-1.99246894-1.9929123 16.24623103-16.24984646 2.7068832-2.70819029c.5502539-.55037643 1.4422149-.55037643 1.9931734 0z" fill="#64748b"/><path d="m26.3876464 7.39452636 3.6123536 4.84116274-6.0394806-.0770199-3.4873011 4.9323542-1.8554585-5.6023503-5.7049807-1.95977132 4.9312569-3.48807714-.0770028-6.04082464 4.8400856 3.61315745 5.7203812-1.94028527z" fill="#fcd34d"/></g></g></svg>