<svg xmlns="http://www.w3.org/2000/svg" width="70" height="70"><defs><linearGradient id="a" x1="100%" x2="0%" y1="100%" y2="0%"><stop offset="0%" stop-color="#A4AEBE"/><stop offset="100%" stop-color="#2D53F5"/></linearGradient></defs><path fill="none" stroke="url(#a)" stroke-linecap="round" stroke-linejoin="round" stroke-width="2.4" d="M33.526 23.36c.11-.706 1.054-.856 1.377-.22l3.742 7.387a.732.732 0 0 0 .768.393l8.143-1.297c.702-.112 1.135.744.633 1.25l-5.83 5.86a.74.74 0 0 0-.134.857l3.743 7.386c.322.636-.353 1.315-.986.991l-7.346-3.763a.73.73 0 0 0-.851.135l-5.83 5.862c-.502.505-1.353.069-1.242-.636l1.29-8.188a.738.738 0 0 0-.392-.772l-7.346-3.764c-.632-.324-.483-1.273.218-1.384l8.144-1.297a.735.735 0 0 0 .609-.613ZM.698.698c.931-.93 2.44-.93 3.372 0l28.33 29.11-3.206 2.739L.698 4.067a2.382 2.382 0 0 1 0-3.37Zm20.214 44.674L18.3 46.71m27.075-25.936 1.332-2.627m3.272 31.854 4.147 4.169m-14.163.962.924 2.912m-13.452-4.68-2.662 5.253m28.62-31.394 5.224-2.677M55.083 39.93l2.895.929" transform="rotate(-180 32.404 32.404)"/></svg>