<?xml version="1.0" encoding="UTF-8"?>
<svg width="76px" height="76px" viewBox="0 0 76 76" version="1.1" xmlns="http://www.w3.org/2000/svg" xmlns:xlink="http://www.w3.org/1999/xlink">
    <title>magic-links</title>
    <defs>
        <linearGradient x1="2.77555756e-15%" y1="100%" x2="100%" y2="2.77555756e-15%" id="linearGradient-1">
            <stop stop-color="#DDEDEB" offset="0%"></stop>
            <stop stop-color="#E6F9F7" offset="100%"></stop>
        </linearGradient>
    </defs>
    <g id="magic-links" stroke="none" stroke-width="1" fill="none" fill-rule="evenodd">
        <rect id="Rectangle-Copy-8" fill="url(#linearGradient-1)" x="0" y="0" width="76" height="76" rx="12"></rect>
        <g id="Group" transform="translate(19, 19)" fill-rule="nonzero">
            <g id="magic-wand-fill" transform="translate(0, 2.0004)" fill="#0F766E">
                <path d="M27.32431,0 C28.0709304,0 28.7869618,0.298599856 29.3148419,0.830092849 L32.9528624,4.49217618 C33.480863,5.02354784 33.7775008,5.74431529 33.7775008,6.4958741 C33.7775008,7.24743291 33.480863,7.96820036 32.9528624,8.49957202 L8.44548202,33.1690512 C7.34641646,34.2746613 5.56524284,34.2746613 4.46617728,33.1690512 L0.824638455,29.5069678 C0.296637809,28.9755962 0,28.2548287 0,27.5032699 C0,26.7517111 0.296637809,26.0309437 0.824638455,25.499572 L25.333778,0.830092849 C25.8616581,0.298599856 26.5776895,0 27.32431,0 Z M28.363961,4.7066788 C27.9734367,4.31615451 27.3402718,4.31615451 26.9497475,4.7066788 L22.7071068,8.94931948 C22.3165825,9.33984378 22.3165825,9.97300875 22.7071068,10.363533 L23.4142136,11.0706398 C23.8047379,11.4611641 24.4379028,11.4611641 24.8284271,11.0706398 L29.0710678,6.82799914 C29.4615921,6.43747485 29.4615921,5.80430987 29.0710678,5.41378558 Z" id="Shape"></path>
            </g>
            <path d="M8.25,0 C9.3545695,0 10.25,0.8954305 10.25,2 L10.25,4.25 L12.5,4.25 C13.6045695,4.25 14.5,5.1454305 14.5,6.25 C14.5,7.3545695 13.6045695,8.25 12.5,8.25 L10.25,8.25 L10.25,10.5 C10.25,11.6045695 9.3545695,12.5 8.25,12.5 C7.1454305,12.5 6.25,11.6045695 6.25,10.5 L6.25,8.25 L4,8.25 C2.8954305,8.25 2,7.3545695 2,6.25 C2,5.1454305 2.8954305,4.25 4,4.25 L6.25,4.25 L6.25,2 C6.25,0.8954305 7.1454305,0 8.25,0 Z" id="Combined-Shape" fill="#14B8A6"></path>
            <path d="M31.75,17 C32.8545695,17 33.75,17.8954305 33.75,19 L33.75,21.25 L36,21.25 C37.1045695,21.25 38,22.1454305 38,23.25 C38,24.3545695 37.1045695,25.25 36,25.25 L33.75,25.25 L33.75,27.5 C33.75,28.6045695 32.8545695,29.5 31.75,29.5 C30.6454305,29.5 29.75,28.6045695 29.75,27.5 L29.75,25.25 L27.5,25.25 C26.3954305,25.25 25.5,24.3545695 25.5,23.25 C25.5,22.1454305 26.3954305,21.25 27.5,21.25 L29.75,21.25 L29.75,19 C29.75,17.8954305 30.6454305,17 31.75,17 Z" id="Combined-Shape" fill="#14B8A6"></path>
            <path d="M22,28 C23.1045695,28 24,28.8954305 24,30 L23.999,31 L25,31 C26.1045695,31 27,31.8954305 27,33 C27,34.1045695 26.1045695,35 25,35 L23.999,35 L24,36 C24,37.1045695 23.1045695,38 22,38 C20.8954305,38 20,37.1045695 20,36 L19.999,35 L19,35 C17.8954305,35 17,34.1045695 17,33 C17,31.8954305 17.8954305,31 19,31 L19.999,31 L20,30 C20,28.8954305 20.8954305,28 22,28 Z" id="Combined-Shape" fill="#14B8A6"></path>
        </g>
    </g>
</svg>