<?xml version="1.0" encoding="UTF-8"?>
<svg width="76px" height="76px" viewBox="0 0 76 76" version="1.1" xmlns="http://www.w3.org/2000/svg" xmlns:xlink="http://www.w3.org/1999/xlink">
    <title>manage-permissions</title>
    <defs>
        <linearGradient x1="-3.88578059e-14%" y1="100%" x2="100%" y2="2.77555756e-15%" id="linearGradient-1">
            <stop stop-color="#E7E6F1" offset="0%"></stop>
            <stop stop-color="#F0F1FD" offset="100%"></stop>
        </linearGradient>
    </defs>
    <g id="manage-permissions" stroke="none" stroke-width="1" fill="none" fill-rule="evenodd">
        <rect id="Rectangle-Copy-6" fill="url(#linearGradient-1)" opacity="0" x="0" y="0" width="76" height="76" rx="12"></rect>
        <g id="Group" transform="translate(19, 19)">
            <rect id="Rectangle" fill="#0EA5E9" x="0" y="0" width="16.946214" height="17" rx="3.98734448"></rect>
            <rect id="Rectangle" fill="#0EA5E9" x="20.9335585" y="0" width="16.946214" height="17" rx="3.98734448"></rect>
            <rect id="Rectangle" fill="#0EA5E9" x="0" y="21" width="16.946214" height="17" rx="3.98734448"></rect>
            <path d="M34.630546,23.6672654 C35.4274383,22.9050325 36.6894039,22.9351798 37.4492252,23.7346013 C38.2090466,24.5340228 38.1789946,25.7999938 37.3821024,26.5622268 L29.3300086,34.2050839 C28.4629567,35.034425 27.0677739,34.9148154 26.3535715,33.9499126 L21.4467958,29.1542819 C20.7903849,28.2674566 20.9748982,27.0147276 21.8589176,26.3562333 C22.7429371,25.6977391 23.9917026,25.8828379 24.6481135,26.7696632 L28.209521,29.7486032 L34.630546,23.6672654 Z" id="Path-24" fill="#0369A1" fill-rule="nonzero"></path>
        </g>
    </g>
</svg>