<svg xmlns="http://www.w3.org/2000/svg" width="54" height="54"><g fill="none" transform="translate(6 7)"><path fill="#6366F1" d="M4.451 10.818 0 6.364l3.87-3.87L6.415 5.04 11.218 0l3.87 3.87-6.739 6.92c-1.527.012-2.37.017-3.898.028Zm18.387-5.475H42v5.475H22.838zM4.451 24.505 0 20.051l3.87-3.87 2.544 2.546 4.804-5.04 3.87 3.87-6.739 6.92c-1.527.012-2.37.017-3.898.028Zm18.387-5.475H42v5.475H22.838z"/><path fill="#F58320" d="M22.838 32.717H42v5.475H22.838z"/><circle cx="6.414" cy="35.455" r="5.475" fill="#F58320"/></g></svg>