<?xml version="1.0" encoding="UTF-8"?>
<svg width="54px" height="54px" viewBox="0 0 54 54" version="1.1" xmlns="http://www.w3.org/2000/svg" xmlns:xlink="http://www.w3.org/1999/xlink">
    <title>marketplace</title>
    <g id="marketplace" stroke="none" stroke-width="1" fill="none" fill-rule="evenodd">
        <rect id="Rectangle" fill="#F1F5F9" x="0" y="0" width="54" height="54" rx="5"></rect>
        <g id="Group-2" transform="translate(7, 11)" fill-rule="nonzero">
            <path d="M5.38285714,12.4864865 L33.84,12.4864865 C35.8282251,12.4864865 37.44,14.0982614 37.44,16.0864865 L37.44,29.4 C37.44,31.3882251 35.8282251,33 33.84,33 L5.38285714,33 C3.39463204,33 1.78285714,31.3882251 1.78285714,29.4 L1.78285714,16.0864865 C1.78285714,14.0982614 3.39463204,12.4864865 5.38285714,12.4864865 Z" id="Path" fill="#CBD5E1"></path>
            <g id="Group">
                <path d="M35.2857143,0 L3.71428571,0 C2.69285714,0 1.85714286,0.836148649 1.85714286,1.85810811 L1.85714286,3.71621622 L37.1428571,3.71621622 L37.1428571,1.85810811 C37.1428571,0.836148649 36.3071429,0 35.2857143,0 Z" id="Path" fill="#F58320"></path>
                <path d="M36.2142857,9.29054054 L2.78571429,9.29054054 L0,12.0777027 L0,13.0067568 C0,14.0333615 0.831071429,14.8648649 1.85714286,14.8648649 L37.1428571,14.8648649 C38.1689286,14.8648649 39,14.0333615 39,13.0067568 L39,12.0777027 L36.2142857,9.29054054 Z" id="Path" fill="#C2410C"></path>
                <polygon id="Path" fill="#F58320" points="37.1428571 3.71621622 1.85714286 3.71621622 0 12.0777027 39 12.0777027"></polygon>
                <path d="M19.5371429,18.5810811 L28.8228571,18.5810811 C29.3354286,18.5810811 29.7514286,19.0728565 29.7514286,19.6787942 L29.7514286,32.8513514 L19.5371429,32.8513514 L19.5371429,18.5810811 Z" id="Path" fill="#4338CA"></path>
                <path d="M9.28571429,18.5810811 L18.5714286,18.5810811 L18.5714286,32.8513514 L8.35714286,32.8513514 L8.35714286,19.6787942 C8.35714286,19.0728565 8.77314286,18.5810811 9.28571429,18.5810811 Z" id="Path" fill="#4338CA"></path>
                <ellipse id="Oval" fill="#FFFFFF" cx="22.3228571" cy="26.9425676" rx="1" ry="1"></ellipse>
                <ellipse id="Oval" fill="#FFFFFF" cx="15.7857143" cy="26.9425676" rx="1" ry="1"></ellipse>
                <polygon id="Path" fill="#CBD5E1" points="18.72 17.8378378 19.6114286 17.8378378 19.6114286 33 18.72 33"></polygon>
            </g>
        </g>
    </g>
</svg>