<?xml version="1.0" encoding="UTF-8"?>
<svg width="75px" height="75px" viewBox="0 0 75 75" version="1.1" xmlns="http://www.w3.org/2000/svg" xmlns:xlink="http://www.w3.org/1999/xlink">
    <title>marketplace</title>
    <defs>
        <linearGradient x1="-3.88578059e-14%" y1="100%" x2="100%" y2="2.77555756e-15%" id="linearGradient-1">
            <stop stop-color="#F2E4E8" offset="0%"></stop>
            <stop stop-color="#FFF4F6" offset="100%"></stop>
        </linearGradient>
    </defs>
    <g id="marketplace" stroke="none" stroke-width="1" fill="none" fill-rule="evenodd">
        <rect id="Rectangle-Copy-10" fill="url(#linearGradient-1)" x="0" y="-1" width="76" height="76" rx="12"></rect>
        <g id="Group" transform="translate(19, 18)">
            <path d="M10.5468072,27.5555556 C9.38087281,27.5555556 8.44445839,26.6131784 8.4446644,25.447244 C8.44517306,22.5683773 8.44685893,19.6583001 8.45244786,18.7387501 C7.76760189,18.9040746 7.06068939,19 6.33339776,19 C4.83873121,19 3.41584227,18.645359 2.11117554,18.0753581 C2.11117554,24.1363587 2.11117554,30.5625561 2.11117554,33.7777778 L19,33.7777778 L35.8889573,33.7777778 L35.8889573,18.0753581 C34.5779567,18.6538029 33.1613961,19 31.6667291,19 C30.9416841,19 30.23788,18.9036785 29.5555556,18.7387501 C29.5555556,19.708505 29.5555556,22.5439432 29.5555556,25.4469923 C29.5555556,26.6129267 28.6183053,27.5555556 27.4523709,27.5555556 C23.351915,27.5555556 14.5767173,27.5555556 10.5468072,27.5555556 Z" id="Vector" fill="#F43F5E" fill-rule="nonzero"></path>
            <path d="M6.33333333,0 C5.53322233,0 4.77743189,0.472913629 4.4206543,1.18646918 L0,8.44444444 C0.0759999967,12.4260003 3.21944439,14.7777778 6.33333333,14.7777778 C7.97577752,14.7777778 9.43033335,14.1549878 10.5555556,13.1289876 C11.6807778,14.1549878 13.1353336,14.7777778 14.7777778,14.7777778 C16.420222,14.7777778 17.8747778,14.1549878 19,13.1289876 C20.1252222,14.1549878 21.579778,14.7777778 23.2222222,14.7777778 C24.8646664,14.7777778 26.3192222,14.2204446 27.4444444,13.1944444 C28.5696667,14.2204446 30.0242225,14.7777778 31.6666667,14.7777778 C34.7805564,14.7777778 37.9809984,12.3457779 38,8.44444444 L33.5793457,1.18646918 C33.2225686,0.472913629 32.4667772,0 31.6666667,0 L6.33333333,0 Z M0,35.8888889 C0,34.7229555 0.945176582,33.7777778 2.11111111,33.7777778 L35.8888889,33.7777778 C37.0548223,33.7777778 38,34.7229555 38,35.8888889 C38,37.0548223 37.0548223,38 35.8888889,38 L2.11111111,38 C0.945176582,38 0,37.0548223 0,35.8888889 Z M8.45245139,18.7387506 C8.93682886,18.6218201 9.63788539,18.3788703 10.555621,18.0099013 C12.3711785,18.6699671 13.7785869,19 14.7778462,19 C16.2767352,19 17.6785141,18.590456 19.0000685,18.0099013 C20.3089591,18.590456 21.7233977,19 23.2222866,19 C24.7232876,19 26.1292863,18.5883461 27.4445089,18.0099013 C28.1235307,18.3085399 28.8273102,18.5627206 29.5555576,18.7387506 L29.5555576,25.4472429 C29.5555576,26.6131784 28.6103799,27.5555556 27.4444444,27.5555556 L10.5571219,27.5555556 C9.39057748,27.5555556 8.4451481,26.6094255 8.4460071,25.4428821 L8.45245139,18.7387506 Z" id="Union" fill="#BE123C"></path>
        </g>
    </g>
</svg>