<svg xmlns="http://www.w3.org/2000/svg" width="54" height="54"><g fill="none" fill-rule="evenodd"><rect width="54" height="54" fill="#F1F5F9" rx="5"/><g fill-rule="nonzero"><path fill="#CBD5E1" d="M12.383 23.486H40.84a3.6 3.6 0 0 1 3.6 3.6V40.4a3.6 3.6 0 0 1-3.6 3.6H12.383a3.6 3.6 0 0 1-3.6-3.6V27.086a3.6 3.6 0 0 1 3.6-3.6Z"/><g transform="translate(7 11)"><path fill="#F58320" d="M35.286 0H3.714a1.863 1.863 0 0 0-1.857 1.858v1.858h35.286V1.858A1.863 1.863 0 0 0 35.286 0Z"/><path fill="#C2410C" d="M36.214 9.29H2.786L0 12.079v.929c0 1.026.831 1.858 1.857 1.858h35.286A1.857 1.857 0 0 0 39 13.007v-.93l-2.786-2.786Z"/><path fill="#F58320" d="M37.143 3.716H1.857L0 12.078h39z"/><path fill="#4338CA" d="M19.537 18.581h9.286c.512 0 .928.492.928 1.098V32.85H19.537V18.58Zm-10.251 0h9.285v14.27H8.357V19.68c0-.606.416-1.098.929-1.098Z"/><circle cx="22.323" cy="26.943" r="1" fill="#FFF"/><circle cx="15.786" cy="26.943" r="1" fill="#FFF"/><path fill="#CBD5E1" d="M18.72 17.838h.891V33h-.891z"/></g></g></g></svg>