<svg xmlns="http://www.w3.org/2000/svg" width="70" height="70"><linearGradient id="a" x1="0%" x2="100%" y1="8.989%" y2="91.011%"><stop offset="0" stop-color="#a4aebe"/><stop offset="1" stop-color="#2d53f5"/></linearGradient><path fill="url(#a)" fill-rule="evenodd" d="M21.912.068a2.667 2.667 0 0 1 1.99 3.196l-2.248 9.842h13.52L37.692 2.07A2.65 2.65 0 0 1 40.869.068a2.667 2.667 0 0 1 1.989 3.196l-2.247 9.842h9.739A2.658 2.658 0 0 1 53 15.773a2.658 2.658 0 0 1-2.65 2.666H39.394L36.88 29.45h10.672a2.658 2.658 0 0 1 2.65 2.667 2.658 2.658 0 0 1-2.65 2.666h-11.89L33.118 45.93a2.65 2.65 0 0 1-3.176 2.002 2.667 2.667 0 0 1-1.99-3.196l2.272-9.953H16.705L14.161 45.93a2.65 2.65 0 0 1-3.177 2.002 2.667 2.667 0 0 1-1.989-3.196l2.272-9.953H2.65A2.658 2.658 0 0 1 0 32.117a2.658 2.658 0 0 1 2.65-2.667h9.835l2.513-11.01h-9.55a2.658 2.658 0 0 1-2.65-2.667 2.658 2.658 0 0 1 2.65-2.667h10.768l2.52-11.036A2.65 2.65 0 0 1 21.912.068zM20.437 18.44l-2.514 11.01h13.519l2.514-11.01z" transform="translate(9 12)"/></svg>