<svg height="54" viewBox="0 0 54 54" width="54" xmlns="http://www.w3.org/2000/svg"><g fill="none" fill-rule="evenodd"><g fill-rule="nonzero" transform="translate(17)"><path d="m0 0h34v40h-34z" fill="#b2ebf2"/><path d="m6 22h4v4h-4zm0-8h4v4h-4zm0 16h4v4h-4zm0-24h4v4h-4zm8 16h14v4h-14zm0-8h14v4h-14zm0 16h14v4h-14zm0-24h14v4h-14z" fill="#00acc1"/></g><rect fill="#f1f5f9" height="54" rx="5" width="54"/><g fill="#e11d48" fill-rule="nonzero" transform="translate(13 13)"><path d="m0 17.1108086h28v4.6667963h-28zm0-10.88919133h28v4.66679633h-28z"/><path d="m17.1111111 0h4.6666667v28h-4.6666667zm-10.88888888 0h4.66666668v28h-4.66666668z"/></g></g></svg>