<?xml version="1.0" encoding="UTF-8"?>
<svg width="76px" height="76px" viewBox="0 0 76 76" version="1.1" xmlns="http://www.w3.org/2000/svg" xmlns:xlink="http://www.w3.org/1999/xlink">
    <title>math-password-hashing-dark</title>
    <defs>
        <linearGradient x1="-3.88578059e-14%" y1="100%" x2="100%" y2="2.77555756e-15%" id="linearGradient-1">
            <stop stop-color="#0F2B45" offset="0%"></stop>
            <stop stop-color="#1C4D6E" offset="100%"></stop>
        </linearGradient>
        <filter x="-96.1%" y="-93.4%" width="292.1%" height="292.1%" filterUnits="objectBoundingBox" id="filter-2">
            <feOffset dx="0" dy="1" in="SourceAlpha" result="shadowOffsetOuter1"></feOffset>
            <feGaussianBlur stdDeviation="12" in="shadowOffsetOuter1" result="shadowBlurOuter1"></feGaussianBlur>
            <feColorMatrix values="0 0 0 0 0   0 0 0 0 0   0 0 0 0 0  0 0 0 0.5 0" type="matrix" in="shadowBlurOuter1" result="shadowMatrixOuter1"></feColorMatrix>
            <feMerge>
                <feMergeNode in="shadowMatrixOuter1"></feMergeNode>
                <feMergeNode in="SourceGraphic"></feMergeNode>
            </feMerge>
        </filter>
    </defs>
    <g id="math-password-hashing-dark" stroke="none" stroke-width="1" fill="none" fill-rule="evenodd">
        <rect id="Rectangle" fill="url(#linearGradient-1)" x="0" y="0" width="76" height="76" rx="12"></rect>
        <g id="Group" filter="url(#filter-2)" transform="translate(19, 19.4908)">
            <path d="M15.4414116,12.5173198 C16.2031303,8.56915044 16.8307345,5.2387745 17.3242241,2.52619197 C17.4049431,2.20615926 17.5220695,0.706555643 16.0752617,0.142803378 C14.6764275,-0.38792261 13.6307579,0.678705469 13.4547325,1.40984888 C13.4147443,1.51947841 13.3685661,1.74136877 13.316198,2.07551996 L12.9274651,4.23134331 L11.4,12.5173198 L15.4414116,12.5173198 Z" id="Combined-Shape" fill="#0EA5E9"></path>
            <path d="M36,9.51536418 C37.1045695,9.51536418 38,10.4113784 38,11.5166679 C38,12.6219575 37.1045695,13.5179717 36,13.5179717 L5,13.5179717 C3.8954305,13.5179717 3,12.6219575 3,11.5166679 C3,10.4113784 3.8954305,9.51536418 5,9.51536418 L36,9.51536418 Z" id="Line" fill="#7DD3FC" fill-rule="nonzero"></path>
            <path d="M25.04123,13.5179717 L26.5686951,5.23199518 L26.957428,3.07617183 C27.0097961,2.74202064 27.0559743,2.52013028 27.0959625,2.41050076 C27.2719879,1.67935734 28.3176575,0.612729261 29.7164917,1.14345525 C31.1632996,1.70720751 31.0461731,3.20681114 30.9654541,3.52684384 C30.4719645,6.23942637 29.8443604,9.56980231 29.0826416,13.5179717 L28.9827718,14.0751608 C26.5017393,27.9177732 25.1990967,35.2267446 25.074844,36.002075 C24.8972631,37.3734517 23.758606,38.3196248 22.3188477,37.899307 C21.3272719,37.484771 20.8947564,36.7353407 21.0213013,35.6510162 L25.0327148,13.5179717 Z" id="Combined-Shape" fill="#0EA5E9"></path>
            <path d="M33,25.5257941 C34.1045695,25.5257941 35,26.4218083 35,27.5270979 C35,28.6323874 34.1045695,29.5284016 33,29.5284016 L2,29.5284016 C0.8954305,29.5284016 0,28.6323874 0,27.5270979 C0,26.4218083 0.8954305,25.5257941 2,25.5257941 L33,25.5257941 Z" id="Path" fill="#7DD3FC" fill-rule="nonzero"></path>
            <path d="M11.0327148,13.5179717 L7.02130127,35.6510162 C6.8947564,36.7353407 7.32727186,37.484771 8.31884766,37.899307 C9.75860596,38.3196248 10.8972631,37.3734517 11.074844,36.002075 C11.2007534,35.2164069 12.536686,27.7217058 15.0826416,13.5179717 L11.0327148,13.5179717 Z" id="Path-17" fill="#0EA5E9"></path>
        </g>
    </g>
</svg>