<?xml version="1.0" encoding="UTF-8"?>
<svg width="76px" height="76px" viewBox="0 0 76 76" version="1.1" xmlns="http://www.w3.org/2000/svg" xmlns:xlink="http://www.w3.org/1999/xlink">
    <title>migrating</title>
    <defs>
        <linearGradient x1="-3.88578059e-14%" y1="100%" x2="100%" y2="2.77555756e-15%" id="linearGradient-1">
            <stop stop-color="#E7E6F1" offset="0%"></stop>
            <stop stop-color="#F0F1FD" offset="100%"></stop>
        </linearGradient>
    </defs>
    <g id="migrating" stroke="none" stroke-width="1" fill="none" fill-rule="evenodd">
        <rect id="Rectangle-Copy-6" fill="url(#linearGradient-1)" opacity="0" x="0" y="0" width="76" height="76" rx="12"></rect>
        <g id="Group-2" transform="translate(19, 19)">
            <path d="M31.2246994,27.6710884 L31.4270039,27.6182118 C31.8979908,27.4753612 32.3252548,27.3374217 32.7090326,27.1884308 L32.6599169,27.2073425 C32.8073793,27.1478392 32.9527511,27.0852616 33.0959044,27.0197048 L33.2545319,26.9432526 C33.3335394,26.9054879 33.411838,26.8675678 33.4898939,26.8286042 C33.6882279,26.7275136 33.8818033,26.620213 34.0702398,26.5072959 C34.1090647,26.4841207 34.1476958,26.4604172 34.1865112,26.4363912 L34.0702398,26.5072959 C34.1407839,26.4650237 34.2106078,26.4219643 34.279692,26.3781323 L34.1865112,26.4363912 C34.2607592,26.390433 34.3356814,26.3432945 34.4108239,26.2939168 L34.279692,26.3781323 C34.3484231,26.3345243 34.4164219,26.2901515 34.4836693,26.2450282 L34.6955392,26.0940813 C34.361689,25.1012752 33.754037,24.1689436 32.9002245,23.4385732 L32.7090326,23.2816092 C31.3546634,22.2149574 29.6704146,21.8217977 28.0763432,22.0693983 L28.06,22.07301 L28.059082,18.11201 C28.059082,14.7983015 25.3727905,12.11201 22.059082,12.11201 C21.0047202,12.11201 20.0138779,12.3839692 19.1528769,12.861566 L19.0329351,12.931101 C16.7068632,11.5883713 13.5251926,11.7748542 11.4405868,14.2117855 C8.2593327,17.930713 8.2593327,17.930713 6.23489829,20.2973032 C4.78887371,21.9877247 4.78887371,21.9877247 4.4996688,22.325809 C3.78091596,23.1660405 3.33485462,24.1476094 3.15308109,25.1626679 C3.15013094,25.1791421 3.14359457,25.2416679 3.15308109,25.2499542 C3.17668309,25.266425 3.20243034,25.2902857 3.22830387,25.3140189 C3.49152602,25.5442097 3.73078024,25.7454467 3.95889995,25.9236366 C4.39696029,26.2576404 4.86440993,26.557491 5.35611924,26.8186802 C5.66124446,26.9765927 6.0004459,27.1324676 6.40133667,27.3044281 L6.24198504,27.2359505 C6.32675346,27.270993 6.41210422,27.3049287 6.49801892,27.3377366 C7.0336253,27.5209221 7.5288351,27.6676781 7.98517591,27.7785364 C8.21608899,27.8272793 8.45149307,27.8689911 8.68956575,27.9023653 C8.89914962,27.9232948 9.09950193,27.9472207 9.30516052,27.9583845 C9.65602701,27.9774305 10.1583921,27.9846937 10.8122559,27.980174 L16.0581298,27.979 L16.058,27.999 L10.0928223,28 C9.61660041,28 9.14813267,27.9666494 8.68956575,27.9023653 C8.60400913,27.8926922 8.51655826,27.8841568 8.42663574,27.8770399 C8.28376271,27.8481584 8.13660943,27.815324 7.98517591,27.7785364 C7.47305327,27.6683651 6.97678012,27.5205595 6.49801892,27.3377366 C6.46695465,27.3271219 6.43421803,27.3158418 6.40133667,27.3044281 L6.24198504,27.2359505 C5.93897544,27.1106889 5.64340666,26.9712833 5.35611924,26.8186802 C4.91945463,26.5941195 4.55035005,26.3653872 4.16471863,26.080246 C4.09692737,26.0301202 4.02843087,25.977949 3.95889995,25.9236366 C3.70503445,25.7315475 3.46153878,25.52796 3.22830387,25.3140189 C3.20424983,25.2945944 3.17877645,25.2723987 3.15308109,25.2499542 C1.20994116,23.4250488 0,20.883346 0,18.1563793 C0,14.3396785 2.30851116,11.1634914 5.99641113,9.73376042 C7.44231098,3.8153378 12.9846002,0.0441162724 19,0.000366844171 C26.2029007,-0.0521324658 32.3570013,5.53729468 32.3,12.2502061 C32.3,12.2672684 32.3005346,12.3197679 32.3010024,12.395246 L32.3010915,12.7901804 L32.3,12.9064478 C35.623101,14.1541823 38,16.9488956 38,20.1251035 C38,22.6173735 36.6216078,24.8104637 34.4836693,26.2450282 L34.6955392,26.0940813 C34.6008917,26.1656818 34.5056822,26.2315835 34.4108239,26.2939168 C34.3675672,26.321872 34.3237803,26.3501595 34.279692,26.3781323 C34.2486565,26.3977912 34.2175251,26.4171942 34.1865112,26.4363912 C34.1482012,26.4602048 34.1093311,26.4838712 34.0702398,26.5072959 C34.0607563,26.5137388 34.0508465,26.5198133 34.0409546,26.5258789 C33.8545929,26.6401536 33.6729102,26.737247 33.4898939,26.8286042 C33.3605513,26.895047 33.2291895,26.9586672 33.0959044,27.0197048 L33.2545319,26.9432526 C33.0789708,27.0271685 32.9018689,27.1135675 32.7090326,27.1884308 L32.6599169,27.2073425 C32.2629246,27.3675351 31.8507809,27.5054467 31.4259841,27.6192227 C31.2211116,27.6806591 31.0068638,27.7440449 30.7842407,27.8097028 C30.7026953,27.8337529 30.1674408,27.9766773 29.3130493,27.980174 L29.1500706,27.9817949 C28.9351205,27.9938689 28.7183458,28 28.5,28 L19.4863618,27.9994592 C18.4808637,28.007442 17.3384372,28.0178593 16.059082,28.0307111 L16.058,27.999 L19.4863618,27.9994592 C20.8689215,27.9884829 21.9926008,27.9821094 22.8573995,27.9803388 L23.0868352,27.97997 L23.4883425,27.979899 L23.6716309,27.980174 C24.273142,27.981457 24.8481132,27.9824193 25.3918133,27.9830608 L26.5603725,27.9839629 C26.8074386,27.9840431 27.0457997,27.9840431 27.2748646,27.9839629 L28.2409102,27.9830608 C28.4407555,27.98274 28.6304173,27.9823391 28.8093043,27.981858 L29.1500706,27.9817949 C29.8649044,27.941642 30.5595577,27.8357645 31.2246994,27.6710884 Z" id="Combined-Shape" fill="#0EA5E9" fill-rule="nonzero"></path>
            <g id="Group" transform="translate(7, 16)" fill="#0369A1" fill-rule="nonzero">
                <path d="M7.4812833,0.698123031 C8.70691155,-0.718644039 11,0.165334624 11,2.05457768 L11,19.9495407 C11,21.0819781 10.0997361,22 8.98920426,22 C7.87867243,22 6.97840851,21.0819781 6.97840851,19.9495407 L6.97748559,7.47804252 L6.91852708,7.54771895 C6.50257015,8.02854507 6.07045956,8.52804405 5.42835129,9.27029019 L5.2633371,9.46103864 C4.02488929,10.8926245 3.84141554,11.1047113 3.63449793,11.3438981 L3.57927853,11.407729 C3.56022208,11.4297573 3.54027928,11.4528103 3.51874106,11.4777074 C2.78408319,12.3269364 1.51340611,12.4080671 0.680604362,11.6589179 C-0.152197387,10.9097687 -0.231758723,9.61402713 0.502899143,8.76479811 C0.79366515,8.42868665 0.79366515,8.42868665 2.24749518,6.74812934 C3.03902487,5.83315925 3.52273745,5.27401086 4.00645004,4.71486248 L4.21465286,4.47419007 C4.91464509,3.66503285 5.70437993,2.75213752 7.4812833,0.698123031 Z" id="Path-15"></path>
                <path d="M20.4812833,0.698123031 C21.7069115,-0.718644039 24,0.165334624 24,2.05457768 L24,19.9495407 C24,21.0819781 23.0997361,22 21.9892043,22 C20.8786724,22 19.9784085,21.0819781 19.9784085,19.9495407 L19.9774856,7.47804252 L19.9185271,7.54771895 C19.5025701,8.02854507 19.0704596,8.52804405 18.4283513,9.27029019 L18.2633371,9.46103864 C17.0248893,10.8926245 16.8414155,11.1047113 16.6344979,11.3438981 L16.5792785,11.407729 C16.5602221,11.4297573 16.5402793,11.4528103 16.5187411,11.4777074 C15.7840832,12.3269364 14.5134061,12.4080671 13.6806044,11.6589179 C12.8478026,10.9097687 12.7682413,9.61402713 13.5028991,8.76479811 C13.7936651,8.42868665 13.7936651,8.42868665 15.2474952,6.74812934 C16.0390249,5.83315925 16.5227375,5.27401086 17.00645,4.71486248 L17.2146529,4.47419007 C17.9146451,3.66503285 18.7043799,2.75213752 20.4812833,0.698123031 Z" id="Path-15" transform="translate(18.5, 11) scale(-1, -1) translate(-18.5, -11)"></path>
            </g>
            <path d="M32.5987854,27.0408325 L34.6701202,26.0383148 L34.6955392,26.0940813 L34.7200012,26.1500092 C33.4495748,26.8890737 32.8143616,27.258606 32.8143616,27.258606 C32.8143616,27.258606 32.2095744,27.4287974 31,27.7691803 L30.976593,27.6191406 L32.5987854,27.0408325 Z" id="Path-16" fill="#ECECF8"></path>
            <polygon id="Path-17" fill="#EBEBF7" points="24.02 27.8839111 24.02 28.0594025 26.18 28.0307111 26.2622986 27.9245911"></polygon>
            <polygon id="Path-18" fill="#EBEAF6" points="18 27.89505 18 28.0973206 20 28.0973206 20 27.89505"></polygon>
            <polygon id="Path-19" fill="#EAEAF5" points="13.9761047 27.8020935 13.9761047 28.2111511 9.7494812 28.0307111 9.96725464 27.92453"></polygon>
            <path d="M2.99255371,25.1010742 C3.06888835,25.1309814 3.12979126,25.1121826 3.17526245,25.0446777 C3.24346924,24.9434204 4.1907959,25.4177246 4.1907959,25.4177246 C4.1907959,25.4177246 5.04762777,25.9996745 6.7612915,27.1635742 C7.35390218,27.4654948 7.65020752,27.6164551 7.65020752,27.6164551 C7.65020752,27.6164551 7.69046021,27.6534831 7.77096558,27.7275391 L7,27.6164551 L5.86437988,27.5066223 C5.15504964,26.9681905 4.80038452,26.6989746 4.80038452,26.6989746 C4.80038452,26.6989746 3.50537109,25.8168335 3.50537109,25.8168335 C3.50537109,25.8168335 3.33443197,25.5782471 2.99255371,25.1010742 Z" id="Path-20" fill="#EAEAF5"></path>
            <path d="M18.9003296,12.8590393 C18.9895426,12.9276225 19.077652,12.9276225 19.1646576,12.8590393 C19.2516632,12.7904561 19.3099467,12.8330587 19.3395081,12.9868469 C19.061059,13.1131185 18.9218345,13.1762543 18.9218345,13.1762543 C18.9218345,13.1762543 18.9146662,13.070516 18.9003296,12.8590393 Z" id="Path-21" fill="#ECECF7"></path>
            <path d="M28.0351918,21.667572 C28.0364905,21.9793803 28.1974386,22.0985616 28.5180359,22.025116 C28.8386332,21.9516703 28.8214111,22.1339417 28.4663696,22.5719299 C27.704895,22.4415588 27.3241577,22.3763733 27.3241577,22.3763733 C27.3241577,22.3763733 27.5611691,22.1401062 28.0351918,21.667572 Z" id="Path-22" fill="#ECECF7"></path>
            <path d="M34.5540894,25.7609558 C34.6571086,25.9733785 34.8067118,26.0128988 35.0028992,25.8795166 C35.2971802,25.6794434 34.931427,26.513031 34.931427,26.513031 C34.931427,26.513031 33.9907532,26.1526794 33.9907532,26.1526794 C33.9907532,26.1526794 34.1785319,26.0221049 34.5540894,25.7609558 Z" id="Path-23" fill="#EDEDF8"></path>
        </g>
    </g>
</svg>