<svg xmlns="http://www.w3.org/2000/svg" width="54" height="54"><defs><linearGradient id="a" x1="50%" x2="50%" y1="0%" y2="100%"><stop offset="0%" stop-color="#7869E7"/><stop offset="100%" stop-color="#4338CA"/></linearGradient></defs><g fill="none" fill-rule="evenodd"><rect width="54" height="54" fill="#F1F5F9" rx="5"/><g fill-rule="nonzero"><path fill="url(#a)" d="M5.429 0A5.434 5.434 0 0 0 0 5.429a5.434 5.434 0 0 0 5.429 5.428 5.434 5.434 0 0 0 5.428-5.428A5.434 5.434 0 0 0 5.43 0Z" transform="translate(8 8)"/><path fill="#F59E0B" d="M27 8a5.434 5.434 0 0 0-5.429 5.429A5.434 5.434 0 0 0 27 18.857a5.434 5.434 0 0 0 5.429-5.428A5.434 5.434 0 0 0 27 8Z"/><path fill="#EAD40E" d="M40.571 8a5.434 5.434 0 0 0-5.428 5.429 5.434 5.434 0 0 0 5.428 5.428A5.434 5.434 0 0 0 46 13.43 5.434 5.434 0 0 0 40.571 8ZM13.429 21.571A5.434 5.434 0 0 0 8 27a5.434 5.434 0 0 0 5.429 5.429A5.434 5.434 0 0 0 18.857 27a5.434 5.434 0 0 0-5.428-5.429Z"/><path fill="url(#a)" d="M19 13.571A5.434 5.434 0 0 0 13.571 19 5.434 5.434 0 0 0 19 24.429 5.434 5.434 0 0 0 24.429 19 5.434 5.434 0 0 0 19 13.571Z" transform="translate(8 8)"/><path fill="#F59E0B" d="M40.571 21.571A5.434 5.434 0 0 0 35.143 27a5.434 5.434 0 0 0 5.428 5.429A5.434 5.434 0 0 0 46 27a5.434 5.434 0 0 0-5.429-5.429ZM13.429 35.143A5.434 5.434 0 0 0 8 40.57 5.434 5.434 0 0 0 13.429 46a5.434 5.434 0 0 0 5.428-5.429 5.434 5.434 0 0 0-5.428-5.428Z"/><path fill="#EAD40E" d="M27 35.143a5.434 5.434 0 0 0-5.429 5.428A5.434 5.434 0 0 0 27 46a5.434 5.434 0 0 0 5.429-5.429A5.434 5.434 0 0 0 27 35.143Z"/><path fill="url(#a)" d="M32.571 27.143a5.434 5.434 0 0 0-5.428 5.428A5.434 5.434 0 0 0 32.57 38 5.434 5.434 0 0 0 38 32.571a5.434 5.434 0 0 0-5.429-5.428Z" transform="translate(8 8)"/></g></g></svg>