<?xml version="1.0" encoding="UTF-8"?>
<svg width="54px" height="54px" viewBox="0 0 54 54" version="1.1" xmlns="http://www.w3.org/2000/svg" xmlns:xlink="http://www.w3.org/1999/xlink">
    <title>mobile-native-applications</title>
    <defs>
        <linearGradient x1="50%" y1="0%" x2="50%" y2="100%" id="linearGradient-1">
            <stop stop-color="#7869E7" offset="0%"></stop>
            <stop stop-color="#4338CA" offset="100%"></stop>
        </linearGradient>
    </defs>
    <g id="mobile-native-applications" stroke="none" stroke-width="1" fill="none" fill-rule="evenodd">
        <rect id="Rectangle" fill="#F1F5F9" x="0" y="0" width="54" height="54" rx="5"></rect>
        <g id="icons8-circled-menu-50" transform="translate(8, 8)" fill-rule="nonzero">
            <path d="M5.42857143,0 C2.43471429,0 0,2.43471429 0,5.42857143 C0,8.42242857 2.43471429,10.8571429 5.42857143,10.8571429 C8.42242857,10.8571429 10.8571429,8.42242857 10.8571429,5.42857143 C10.8571429,2.43471429 8.42242857,0 5.42857143,0 Z" id="Path" fill="url(#linearGradient-1)"></path>
            <path d="M19,0 C16.0061429,0 13.5714286,2.43471429 13.5714286,5.42857143 C13.5714286,8.42242857 16.0061429,10.8571429 19,10.8571429 C21.9938571,10.8571429 24.4285714,8.42242857 24.4285714,5.42857143 C24.4285714,2.43471429 21.9938571,0 19,0 Z" id="Path" fill="#F59E0B"></path>
            <path d="M32.5714286,0 C29.5775714,0 27.1428571,2.43471429 27.1428571,5.42857143 C27.1428571,8.42242857 29.5775714,10.8571429 32.5714286,10.8571429 C35.5652857,10.8571429 38,8.42242857 38,5.42857143 C38,2.43471429 35.5652857,0 32.5714286,0 Z" id="Path" fill="#EAD40E"></path>
            <path d="M5.42857143,13.5714286 C2.43471429,13.5714286 0,16.0061429 0,19 C0,21.9938571 2.43471429,24.4285714 5.42857143,24.4285714 C8.42242857,24.4285714 10.8571429,21.9938571 10.8571429,19 C10.8571429,16.0061429 8.42242857,13.5714286 5.42857143,13.5714286 Z" id="Path" fill="#EAD40E"></path>
            <path d="M19,13.5714286 C16.0061429,13.5714286 13.5714286,16.0061429 13.5714286,19 C13.5714286,21.9938571 16.0061429,24.4285714 19,24.4285714 C21.9938571,24.4285714 24.4285714,21.9938571 24.4285714,19 C24.4285714,16.0061429 21.9938571,13.5714286 19,13.5714286 Z" id="Path" fill="url(#linearGradient-1)"></path>
            <path d="M32.5714286,13.5714286 C29.5775714,13.5714286 27.1428571,16.0061429 27.1428571,19 C27.1428571,21.9938571 29.5775714,24.4285714 32.5714286,24.4285714 C35.5652857,24.4285714 38,21.9938571 38,19 C38,16.0061429 35.5652857,13.5714286 32.5714286,13.5714286 Z" id="Path" fill="#F59E0B"></path>
            <path d="M5.42857143,27.1428571 C2.43471429,27.1428571 0,29.5775714 0,32.5714286 C0,35.5652857 2.43471429,38 5.42857143,38 C8.42242857,38 10.8571429,35.5652857 10.8571429,32.5714286 C10.8571429,29.5775714 8.42242857,27.1428571 5.42857143,27.1428571 Z" id="Path" fill="#F59E0B"></path>
            <path d="M19,27.1428571 C16.0061429,27.1428571 13.5714286,29.5775714 13.5714286,32.5714286 C13.5714286,35.5652857 16.0061429,38 19,38 C21.9938571,38 24.4285714,35.5652857 24.4285714,32.5714286 C24.4285714,29.5775714 21.9938571,27.1428571 19,27.1428571 Z" id="Path" fill="#EAD40E"></path>
            <path d="M32.5714286,27.1428571 C29.5775714,27.1428571 27.1428571,29.5775714 27.1428571,32.5714286 C27.1428571,35.5652857 29.5775714,38 32.5714286,38 C35.5652857,38 38,35.5652857 38,32.5714286 C38,29.5775714 35.5652857,27.1428571 32.5714286,27.1428571 Z" id="Path" fill="url(#linearGradient-1)"></path>
        </g>
    </g>
</svg>