<?xml version="1.0" encoding="UTF-8"?>
<svg width="76px" height="76px" viewBox="0 0 76 76" version="1.1" xmlns="http://www.w3.org/2000/svg" xmlns:xlink="http://www.w3.org/1999/xlink">
    <title>mobile-native-applications</title>
    <defs>
        <linearGradient x1="2.77555756e-15%" y1="100%" x2="100%" y2="2.77555756e-15%" id="linearGradient-1">
            <stop stop-color="#DDEDEB" offset="0%"></stop>
            <stop stop-color="#E6F9F7" offset="100%"></stop>
        </linearGradient>
    </defs>
    <g id="mobile-native-applications" stroke="none" stroke-width="1" fill="none" fill-rule="evenodd">
        <rect id="Rectangle-Copy-8" fill="url(#linearGradient-1)" x="0" y="0" width="76" height="76" rx="12"></rect>
        <g id="Group" transform="translate(19, 19)">
            <path d="M36.0756838,27.4882815 L31.5745852,27.4882815 L31.5745852,22.8081057 C31.5745852,21.8692216 30.4388843,21.0000002 29.5000002,21.0000002 C28.5611161,21.0000002 27.4854738,21.8692216 27.4854738,22.8081057 L27.4854738,27.4882815 L22.8437502,27.4882815 C21.9048661,27.4882815 21.0000002,28.5611161 21.0000002,29.5000002 C21.0000002,30.4388843 21.9048661,31.548218 22.8437502,31.548218 L27.4854738,31.548218 L27.4854738,36.1289065 C27.4854738,37.0677905 28.5611161,38.0000002 29.5000002,38.0000002 C30.4388843,38.0000002 31.5745852,37.0677905 31.5745852,36.1289065 L31.5745852,31.548218 L36.0756838,31.548218 C37.0145679,31.548218 38.0000002,30.4388843 38.0000002,29.5000002 C38.0000002,28.5611161 37.0145679,27.4882815 36.0756838,27.4882815 Z" id="Path" fill="#0F766E"></path>
            <rect id="Rectangle" fill="#14B8A6" x="0" y="0" width="17" height="17" rx="4"></rect>
            <rect id="Rectangle" fill="#14B8A6" x="21" y="0" width="17" height="17" rx="4"></rect>
            <rect id="Rectangle" fill="#14B8A6" x="0" y="21" width="17" height="17" rx="4"></rect>
        </g>
    </g>
</svg>