<svg xmlns="http://www.w3.org/2000/svg" width="70" height="70"><linearGradient id="a" x1="0%" x2="100%" y1="17.29%" y2="82.71%"><stop offset="0" stop-color="#a4aebe"/><stop offset="1" stop-color="#2d53f5"/></linearGradient><path fill="url(#a)" d="M57.986 6.562h-4.205V2.208c0-.996-.73-1.843-1.716-1.99-.172-.027-4.269-.622-9.203.276-5.5 1-9.887 3.469-12.862 7.2-2.975-3.731-7.362-6.2-12.862-7.2C12.204-.404 8.106.191 7.934.217A2.013 2.013 0 0 0 6.22 2.208v4.354H2.013A2.014 2.014 0 0 0 0 8.576v37.94a2.013 2.013 0 0 0 2.676 1.901c.15-.052 15.238-5.201 26.488-.07.531.243 1.14.243 1.672 0 11.218-5.117 26.338.018 26.488.07a2.01 2.01 0 0 0 1.829-.26c.531-.378.847-.989.847-1.64V8.575a2.014 2.014 0 0 0-2.014-2.014zm-53.96 37.26V10.589H6.22v26.813a2.014 2.014 0 0 0 2.309 1.992c.11-.017 8.857-1.217 15.248 3.167-7.872-1.346-15.75.211-19.75 1.26zm23.96-3.077c-2.814-2.543-6.48-4.262-10.848-5.057a31.597 31.597 0 0 0-6.892-.469V4.057c3.87-.174 13.283.24 17.74 7.796zm4.027-28.892c4.442-7.524 13.87-7.957 17.74-7.79v31.156a31.917 31.917 0 0 0-6.89.469c-4.37.795-8.035 2.514-10.85 5.057zm4.204 30.71c6.392-4.388 15.143-3.186 15.252-3.17a2.013 2.013 0 0 0 2.312-1.99V10.588h2.192v33.233c-4-1.05-11.882-2.608-19.756-1.26z" transform="translate(5 10.39)"/></svg>