<svg height="54" viewBox="0 0 54 54" width="54" xmlns="http://www.w3.org/2000/svg" xmlns:xlink="http://www.w3.org/1999/xlink"><mask id="a" fill="#fff"><path d="m0 0h15.0019526v22.857086h-15.0019526z" fill="#fff" fill-rule="evenodd"/></mask><g fill="none" fill-rule="evenodd"><rect fill="#f1f5f9" height="54" rx="5" width="54"/><g transform="translate(12 14)"><path d="m12.3651165.01449301c.5132663-.0020856 1.0272301.01598964 1.5391017-.01181843.5272138-.02850326.8975187.168934 1.0983621.68268799v19.26334143c-.24687.5109731-.6499514.6680887-1.1890206.6653079-3.5217324-.0145992-7.0434649-.0055616-10.56519736-.0118184-.21130395-.0006952-.31381775.0458833-.39889722.2697382-.46514764 1.2221644-1.6618393 2.0425023-2.84528088 1.9820198.00069737-1.9771534.00209211-3.9543068.00348686-5.9307649 0 0-.0076711-.0180753-.0076711-.0180753.0871716.0027808.17504056.0090376.26290953.0090376 3.66887812.0006952 7.33775623.0006952 11.00663437 0 .7740837 0 1.0920857-.3350871 1.0927831-1.1429114.0006974-5.2522482.0020921-10.50449633.0027895-15.75674449" fill="#475569" mask="url(#a)" transform="translate(14.998 3.1429)"/><path d="m2.63746379 3.15580807c.00418424.1313931.01185534.26278621.01185534.39417931.00069737 5.10277981.00069737 10.20625482.00069737 15.30903462 0 .8801253.30056767 1.1957468 1.13811236 1.1957468 3.62215413.0006952 7.24430824 0 10.86646244.0006952.1171586 0 .2336198.006952.3507785.010428-.0013948 1.9771534-.0020921 3.9543068-.0034869 5.9314602-1.1834416.0326744-2.3396856-.7369138-2.8090175-1.9145853-.1143691-.2857278-.2531463-.3524672-.5334902-.351772-3.51406131.0111232-7.02812267.0076472-10.54148666.006952-.80337342 0-1.11788854-.3260495-1.11788854-1.1547299 0-6.1038701 0-12.2077402 0-18.31161035 0-.79739624.31033088-1.11579858 1.08580939-1.11649378.51675322 0 1.03420381.0006952 1.5516544.0006952" fill="#64748b"/><path d="m14.9978381 20.0478168c.0013948-6.6822779.0020922-13.36455577.0034869-20.04683364-3.784642-.0006952-7.56928398-.0013904-11.35392597-.0006952-.62693811 0-1.00282203.38027528-1.00909839 1.03098399-.00627635.70841044-.00139474 1.41612568-.00069737 2.12453612.00418424.1313931.01185534.26278621.01185534.39417931.00069737 5.10277981.00069737 10.20625482.00069737 15.30903462 0 .8801253.30056766 1.1957468 1.13811235 1.1957468 3.62215414 0 7.24430827 0 10.86646237.0006952.1171587 0 .2336199.006952.3507785.010428z" fill="#fcd34d"/><path d="m21.1649844 16.4071155c-.6046221-.0006952-1.2099417.0048664-1.8145639-.0020856.6046222.006952 1.2099418.0013904 1.8145639.0020856.6046222 0 1.2099418.0048664 1.814564-.0013904-.6046222.0062568-1.2099418.0013904-1.814564.0013904m-.0006973-3.6463325c.6053195 0 1.2099417.0048664 1.8145639-.0013904-.6046222.0062568-1.2092444.0013904-1.8145639.0013904-.6046222 0-1.2092444.0048664-1.8138666-.0020856.6046222.006952 1.2092444.0020856 1.8138666.0020856m-.0041843-3.64424681c.5850958 0 1.1701915.00417121 1.7552873-.0013904-.5850958.00556161-1.1701915.0013904-1.7552873.0013904-.5760299 0-1.1513624.00417121-1.7266949-.0013904.5753325.00556161 1.150665.0013904 1.7266949.0013904m6.2010387-8.14498206c-.0041843-.56797971-.400292-.97119665-.9442428-.97119665-3.8055631-.0006952-7.6104289 0-11.4159921.0006952-.0006974 6.68227788-.0020921 13.36455572-.0027895 20.04683362.0871716.003476.1750406.0090376.2622122.0090376 3.6695754.0005214 7.3384536.0005214 11.0073317 0 .7740837 0 1.0920857-.334392 1.0927831-1.1429114.0006974-5.2522482.0020921-10.50449635.0027895-15.75674451 0-.72857129.0041842-1.45714257-.0020921-2.18571386" fill="#fbbf24"/></g></g></svg>