<?xml version="1.0" encoding="UTF-8"?>
<svg width="76px" height="76px" viewBox="0 0 76 76" version="1.1" xmlns="http://www.w3.org/2000/svg" xmlns:xlink="http://www.w3.org/1999/xlink">
    <title>modern-guide-oauth-2.0-dark</title>
    <defs>
        <linearGradient x1="-3.88578059e-14%" y1="100%" x2="100%" y2="2.77555756e-15%" id="linearGradient-1">
            <stop stop-color="#1C204A" offset="0%"></stop>
            <stop stop-color="#343D6E" offset="100%"></stop>
        </linearGradient>
        <filter x="-96.1%" y="-110.9%" width="292.1%" height="328.1%" filterUnits="objectBoundingBox" id="filter-2">
            <feOffset dx="0" dy="1" in="SourceAlpha" result="shadowOffsetOuter1"></feOffset>
            <feGaussianBlur stdDeviation="12" in="shadowOffsetOuter1" result="shadowBlurOuter1"></feGaussianBlur>
            <feColorMatrix values="0 0 0 0 0   0 0 0 0 0   0 0 0 0 0  0 0 0 0.5 0" type="matrix" in="shadowBlurOuter1" result="shadowMatrixOuter1"></feColorMatrix>
            <feMerge>
                <feMergeNode in="shadowMatrixOuter1"></feMergeNode>
                <feMergeNode in="SourceGraphic"></feMergeNode>
            </feMerge>
        </filter>
    </defs>
    <g id="modern-guide-oauth-2.0-dark" stroke="none" stroke-width="1" fill="none" fill-rule="evenodd">
        <rect id="Rectangle-Copy-6" fill="url(#linearGradient-1)" x="0" y="0" width="76" height="76" rx="12"></rect>
        <g id="Group" filter="url(#filter-2)" transform="translate(19, 22)">
            <path d="M7.74023438,4 L7.74023437,15.2958169 C7.74023437,16.9294597 8.7336667,18.3989346 10.2496428,19.0077081 L19,22.5216064 L19,22.3349609 L28.5332713,19.2745554 C30.06387,18.783197 31.1516138,17.4232932 31.2947454,15.822144 L32.3515625,4 L36,4 C37.1045695,4 38,4.8954305 38,6 L38,28 C38,29.1045695 37.1045695,30 36,30 L22.384013,30.0001108 C22.1009698,30.0042063 21.8656148,30.1218859 21.677948,30.3531494 L21.5980595,30.5010262 C21.0791995,31.3971623 20.1099999,32 19,32 C17.8136925,32 16.7882096,31.3114285 16.3014179,30.3121523 L16.3402619,30.3531495 C16.1492117,30.1177165 15.9087383,30 15.6188416,30 L2,30 C0.8954305,30 1.3527075e-16,29.1045695 0,28 L0,6 C-1.3527075e-16,4.8954305 0.8954305,4 2,4 L7.74023438,4 Z" id="Combined-Shape" fill="#A5B4FC"></path>
            <path d="M13,0 C15.209139,-4.05812251e-16 17,1.790861 17,4 L17.0006863,20.080137 C17.1260448,21.3757521 17.7924827,22.0235596 19,22.0235596 C20.2100461,22.0235596 20.8767441,21.3730359 21.0000942,20.0719885 L21,4 C21,1.790861 22.790861,-4.82366169e-16 25,0 L32,0 C33.1045695,-2.02906125e-16 34,0.8954305 34,2 L34,24 C34,25.1045695 33.1045695,26 32,26 L21,26 C19.8954305,26 19,25.1045695 19,24 C19,25.1045695 18.1045695,26 17,26 L6,26 C4.8954305,26 4,25.1045695 4,24 L4,2 C4,0.8954305 4.8954305,2.02906125e-16 6,0 L13,0 Z" id="Combined-Shape" fill="#6366F1"></path>
        </g>
    </g>
</svg>