<svg height="70" viewBox="0 0 70 70" width="70" xmlns="http://www.w3.org/2000/svg" xmlns:xlink="http://www.w3.org/1999/xlink"><linearGradient id="a" x1="0%" x2="100%" y1="17.290258%" y2="82.709742%"><stop offset="0" stop-color="#a4aebe"/><stop offset="1" stop-color="#2d53f5"/></linearGradient><path d="m57.9864714 6.5622561-4.2058444-.00020202v-4.35372271c0-.99676432-.7292905-1.84363016-1.7151457-1.99110441-.1721207-.0258585-4.2694806-.62100801-9.2034034.27676675-5.5003855 1.00080471-9.8870374 3.46887721-12.8621789 7.19997575-2.9753435-3.73109854-7.3619954-6.19917104-12.8621789-7.19997575-4.9341248-.89757274-9.03148477-.30262525-9.20340338-.27676675-.98585527.14767627-1.71514574.99454211-1.71514574 1.99110441v4.35372271h-4.20584443c-1.11171342 0-2.01332655.90161313-2.01332655 2.01352858v37.94027634c0 .6519169.31555449 1.26343.84706786 1.6412065.53151336.3777766 1.2129252.4747459 1.82847869.2602012.1511106-.0523231 15.23853455-5.2013966 26.48879965-.0696967.5309074.2422214 1.1404002.2422214 1.6713076 0 11.2187501-5.1171545 26.3384971.0177777 26.4887997.0696967.2157568.0751513.4391904.1121208.6618159.1121208.4127259 0 .8212094-.1268682 1.1666627-.3721199.5315134-.3777765.8470679-.9892896.8470679-1.6412066v-37.94027632c0-1.11191545-.9016131-2.01352858-2.0135286-2.01352858zm-53.95961627 37.2596725v-33.2330194h2.19231585v26.8132431c0 .5850485.25595873 1.1406022.69858351 1.5230251.44262477.382423 1.03130965.5539376 1.60989357.4684833.11111073-.0161616 8.85774794-1.2169656 15.24802944 3.1674641-7.8716906-1.3460561-15.75004796.2109084-19.74882237 1.2608038zm23.95971727-3.0765553c-2.8145359-2.5430217-6.4805842-4.2626119-10.8488523-5.0573567-2.1022152-.382625-4.0525116-.4941397-5.6121023-.4941397-.4630288 0-.8917142.0098989-1.2793897.0254544v-31.16211727h-.000202c3.8696839-.17454486 13.2831876.23919112 17.7405463 7.79532727zm4.0266531-28.89263c4.4413992-7.52381301 13.8696503-7.95633681 17.7405464-7.79047878v31.15706678c-1.6935297-.0682826-4.1656426-.0274746-6.891694.4686853-4.3682681.7947448-8.0343164 2.514133-10.8488524 5.0573567zm4.2042283 30.7095936c6.3910896-4.3870559 15.1423733-3.1850398 15.2514638-3.1688782.5799981.0870704 1.1682789-.0834341 1.6123178-.465655.4440389-.382625.6993916-.9393908.6993916-1.5256514v-26.8130411h2.1923159v33.2328174c-3.9999866-1.0502995-11.8815762-2.60787-19.7554891-1.2595917z" fill="url(#a)" transform="translate(5.000657 10.389223)"/></svg>