<svg height="70" viewBox="0 0 70 70" width="70" xmlns="http://www.w3.org/2000/svg" xmlns:xlink="http://www.w3.org/1999/xlink"><linearGradient id="a" x1="22.191899%" x2="77.808101%" y1="0%" y2="100%"><stop offset="0" stop-color="#a4aebe"/><stop offset="1" stop-color="#2d53f5"/></linearGradient><path d="m22 0c8.0886667 0 14.6666667 6.615375 14.6666667 14.75l-.0006667 7.375h1.834c3.0311111 0 5.5 2.4804583 5.5 5.53125v25.8125c0 3.0507917-2.4688889 5.53125-5.5 5.53125h-33c-3.03111111 0-5.5-2.4804583-5.5-5.53125v-25.8125c0-3.0507917 2.46888889-5.53125 5.5-5.53125h1.833l.00033333-7.375c0-8.134625 6.57799997-14.75 14.66666667-14.75zm16.5 25.8125h-33c-1.00955556 0-1.83333333.826-1.83333333 1.84375v25.8125c0 1.01775.82377777 1.84375 1.83333333 1.84375h33c1.0095556 0 1.8333333-.826 1.8333333-1.84375v-25.8125c0-1.01775-.8237777-1.84375-1.8333333-1.84375zm-16.5 6.1458333c2.6962222 0 4.8888889 2.205125 4.8888889 4.9166667 0 2.0596113-1.2650585 3.8270457-3.0549479 4.5578698l-.0006077 5.8900469c0 1.01775-.8213333 1.84375-1.8333333 1.84375s-1.8333333-.826-1.8333333-1.84375l-.0006077-5.8900469c-1.7898894-.7308241-3.0549479-2.4982585-3.0549479-4.5578698 0-2.7115417 2.1926667-4.9166667 4.8888889-4.9166667zm0 3.6875c-.6722222 0-1.2222222.5506667-1.2222222 1.2291667s.55 1.2291667 1.2222222 1.2291667 1.2222222-.5506667 1.2222222-1.2291667-.55-1.2291667-1.2222222-1.2291667zm0-31.9583333c-6.0646667 0-11 4.963375-11 11.0625l-.001 7.375h22.001v-7.375c0-6.099125-4.9353333-11.0625-11-11.0625z" fill="url(#a)" transform="translate(13 6)"/></svg>