<?xml version="1.0" encoding="UTF-8"?>
<svg width="76px" height="76px" viewBox="0 0 76 76" version="1.1" xmlns="http://www.w3.org/2000/svg" xmlns:xlink="http://www.w3.org/1999/xlink">
    <title>multi-tenancy-single-tenant-architecture-dark</title>
    <defs>
        <linearGradient x1="-3.88578059e-14%" y1="100%" x2="100%" y2="2.77555756e-15%" id="linearGradient-1">
            <stop stop-color="#3B1730" offset="0%"></stop>
            <stop stop-color="#5E3448" offset="100%"></stop>
        </linearGradient>
        <path d="M40.6214932,21.5746733 L56.6469739,51.6291935 C57.419469,53.0779469 56.8712533,54.8786246 55.4224999,55.6511197 C54.9920083,55.8806637 54.5116399,56.000732 54.0237737,56.000732 L21.9728124,56.000732 C20.3309735,56.000732 19,54.6697586 19,53.0279196 C19,52.5400534 19.1200683,52.059685 19.3496123,51.6291935 L35.375093,21.5746733 C36.1475881,20.1259199 37.9482658,19.5777042 39.3970192,20.3501993 C39.9176439,20.6278036 40.343889,21.0540486 40.6214932,21.5746733 Z M37.9807419,30.0174844 C39.0890753,30.0174844 39.9807419,30.9537344 39.9807419,32.1174844 L39.9807419,41.9174844 C39.9807419,43.0812344 39.0890753,44.0174844 37.9807419,44.0174844 C36.8724086,44.0174844 35.9807419,43.0812344 35.9807419,41.9174844 L35.9807419,32.1174844 C35.9807419,30.9537344 36.8724086,30.0174844 37.9807419,30.0174844 Z M35.9807419,48.0174844 C35.9807419,46.9129149 36.8761724,46.0174844 37.9807419,46.0174844 C39.0853114,46.0174844 39.9807419,46.9129149 39.9807419,48.0174844 C39.9807419,49.1220539 39.0853114,50.0174844 37.9807419,50.0174844 C36.8761724,50.0174844 35.9807419,49.1220539 35.9807419,48.0174844 Z" id="path-2"></path>
        <filter x="-96.1%" y="-98.6%" width="292.1%" height="302.8%" filterUnits="objectBoundingBox" id="filter-3">
            <feOffset dx="0" dy="1" in="SourceAlpha" result="shadowOffsetOuter1"></feOffset>
            <feGaussianBlur stdDeviation="12" in="shadowOffsetOuter1" result="shadowBlurOuter1"></feGaussianBlur>
            <feColorMatrix values="0 0 0 0 0   0 0 0 0 0   0 0 0 0 0  0 0 0 0.5 0" type="matrix" in="shadowBlurOuter1"></feColorMatrix>
        </filter>
    </defs>
    <g id="multi-tenancy-single-tenant-architecture-dark" stroke="none" stroke-width="1" fill="none" fill-rule="evenodd">
        <rect id="Rectangle-Copy-7" fill="url(#linearGradient-1)" x="0" y="0" width="76" height="76" rx="12"></rect>
        <g id="Combined-Shape">
            <use fill="black" fill-opacity="1" filter="url(#filter-3)" xlink:href="#path-2"></use>
            <use fill="#F43F5E" fill-rule="evenodd" xlink:href="#path-2"></use>
        </g>
    </g>
</svg>