<?xml version="1.0" encoding="UTF-8"?>
<svg width="76px" height="76px" viewBox="0 0 76 76" version="1.1" xmlns="http://www.w3.org/2000/svg" xmlns:xlink="http://www.w3.org/1999/xlink">
    <title>multi-tenancy-single-tenant-architecture</title>
    <defs>
        <linearGradient x1="-3.88578059e-14%" y1="100%" x2="100%" y2="2.77555756e-15%" id="linearGradient-1">
            <stop stop-color="#F2E4E8" offset="0%"></stop>
            <stop stop-color="#FFF4F6" offset="100%"></stop>
        </linearGradient>
    </defs>
    <g id="multi-tenancy-single-tenant-architecture" stroke="none" stroke-width="1" fill="none" fill-rule="evenodd">
        <rect id="Rectangle-Copy-10" fill="url(#linearGradient-1)" x="0" y="0" width="76" height="76" rx="12"></rect>
        <g id="Group" transform="translate(21, 19)">
            <g id="Group-3" transform="translate(4, 7.0439)" fill="#BE123C" fill-rule="nonzero">
                <path d="M4.12121212,23.6940369 L0,23.6940369 L0,0 L4.12121212,0 L4.12113529,13.2912144 C6.25831028,12.1217344 9.06415797,11.9586294 12.3950977,12.8393019 C16.6057304,13.9525579 19.5658252,12.2027005 21.7942329,7 L25.5997065,8.53548149 C22.6301482,15.4685587 17.6946069,18.3861996 11.3119335,16.6986743 C7.25162985,15.6251641 5.16350306,16.4837338 4.18201961,19.4998532 L4.12121212,19.6937407 L4.12121212,23.6940369 Z" id="Combined-Shape"></path>
            </g>
            <rect id="Rectangle" fill="#F43F5E" x="0" y="0" width="12" height="12" rx="6"></rect>
            <rect id="Rectangle" fill="#F43F5E" x="0" y="26" width="12" height="12" rx="6"></rect>
            <rect id="Rectangle" fill="#F43F5E" x="22" y="9.08322529" width="12" height="12" rx="6"></rect>
        </g>
    </g>
</svg>