<svg xmlns="http://www.w3.org/2000/svg" width="70" height="70"><linearGradient id="a" x1="22.192%" x2="77.808%" y1="0%" y2="100%"><stop offset="0" stop-color="#a4aebe"/><stop offset="1" stop-color="#2d53f5"/></linearGradient><path fill="url(#a)" d="M22 0c8.089 0 14.667 6.615 14.667 14.75l-.001 7.375H38.5c3.031 0 5.5 2.48 5.5 5.531V53.47c0 3.049-2.469 5.53-5.5 5.53h-33C2.469 59 0 56.52 0 53.469V27.656c0-3.05 2.469-5.531 5.5-5.531h1.833V14.75C7.333 6.615 13.911 0 22 0zm16.5 25.813h-33a1.84 1.84 0 0 0-1.833 1.843V53.47A1.84 1.84 0 0 0 5.5 55.312h33a1.84 1.84 0 0 0 1.833-1.843V27.656a1.84 1.84 0 0 0-1.833-1.843zM22 31.957c2.696 0 4.889 2.205 4.889 4.917a4.924 4.924 0 0 1-3.055 4.558v5.89c0 1.018-.822 1.844-1.834 1.844s-1.833-.826-1.833-1.844v-5.89a4.924 4.924 0 0 1-3.056-4.558c0-2.712 2.193-4.917 4.889-4.917zm0 3.688c-.672 0-1.222.55-1.222 1.229s.55 1.23 1.222 1.23 1.222-.551 1.222-1.23-.55-1.23-1.222-1.23zm0-31.959c-6.065 0-11 4.964-11 11.063l-.001 7.375H33V14.75c0-6.1-4.935-11.063-11-11.063z" transform="translate(13 6)"/></svg>