<?xml version="1.0" encoding="UTF-8"?>
<svg width="76px" height="76px" viewBox="0 0 76 76" version="1.1" xmlns="http://www.w3.org/2000/svg" xmlns:xlink="http://www.w3.org/1999/xlink">
    <title>multi-factor-authentication-dark</title>
    <defs>
        <linearGradient x1="2.77555756e-15%" y1="100%" x2="100%" y2="2.77555756e-15%" id="linearGradient-1">
            <stop stop-color="#112C38" offset="0%"></stop>
            <stop stop-color="#19555B" offset="100%"></stop>
        </linearGradient>
        <filter x="-121.7%" y="-93.4%" width="343.3%" height="292.1%" filterUnits="objectBoundingBox" id="filter-2">
            <feOffset dx="0" dy="1" in="SourceAlpha" result="shadowOffsetOuter1"></feOffset>
            <feGaussianBlur stdDeviation="12" in="shadowOffsetOuter1" result="shadowBlurOuter1"></feGaussianBlur>
            <feColorMatrix values="0 0 0 0 0   0 0 0 0 0   0 0 0 0 0  0 0 0 0.5 0" type="matrix" in="shadowBlurOuter1" result="shadowMatrixOuter1"></feColorMatrix>
            <feMerge>
                <feMergeNode in="shadowMatrixOuter1"></feMergeNode>
                <feMergeNode in="SourceGraphic"></feMergeNode>
            </feMerge>
        </filter>
    </defs>
    <g id="multi-factor-authentication-dark" stroke="none" stroke-width="1" fill="none" fill-rule="evenodd">
        <rect id="Rectangle-Copy-8" fill="url(#linearGradient-1)" x="0" y="0" width="76" height="76" rx="12"></rect>
        <g id="lock-fill-copy-3" filter="url(#filter-2)" transform="translate(23, 18)" fill-rule="nonzero">
            <g id="Group-5">
                <path d="M26,12 C28.209139,12 30,13.790861 30,16 L30,34 C30,36.209139 28.209139,38 26,38 L4,38 C1.790861,38 -1.06172613e-15,36.209139 0,34 L0,16 C-2.705415e-16,13.790861 1.790861,12 4,12 L26,12 Z M15,18 C12.7908001,18 11,19.7899995 11,22 C11,23.4199995 11.8856001,24.4140229 13,25.1240233 L13,30 C13,31.1039989 13.8954,32 15,32 C16.104599,32 17,31.1039989 17,30 L17,25.1240233 C18.1145992,24.4160237 19,23.4199995 19,22 C19,19.7899995 17.2091999,18 15,18 Z" id="Combined-Shape" fill="#14B8A6"></path>
                <path d="M15,3.99035645 C12.0176625,3.99035645 10.0050049,6.1242782 10.0050049,8.96459961 L10.0050049,12 L6,12 L6,8.57142857 C6,3.83755956 10.0294375,0 15,0 C19.9705625,0 24,3.83755956 24,8.57142857 L24,12 L20.0215454,12 L20.0215454,8.96459961 C20.0215454,6.1242782 17.9823375,3.99035645 15,3.99035645 Z" id="Vector-533-(Stroke)" fill="#5EEAD4"></path>
            </g>
        </g>
    </g>
</svg>