<svg xmlns="http://www.w3.org/2000/svg" width="70" height="70"><linearGradient id="a" x1="10.494%" x2="89.506%" y1="0%" y2="100%"><stop offset="0" stop-color="#a4aebe"/><stop offset="1" stop-color="#2d53f5"/></linearGradient><path fill="url(#a)" d="M9.6 17.508C4.307 17.508 0 21.766 0 27s4.307 9.492 9.6 9.492a9.626 9.626 0 0 0 7.239-3.264l12.65 7.644a9.346 9.346 0 0 0-.689 3.53c0 5.259 4.32 9.598 9.6 9.598 5.276 0 9.6-4.336 9.6-9.598 0-5.234-4.307-9.492-9.6-9.492a9.626 9.626 0 0 0-7.239 3.264l-12.65-7.644c.444-1.091.689-2.283.689-3.53s-.245-2.439-.69-3.53l12.651-7.644A9.626 9.626 0 0 0 38.4 19.09c5.293 0 9.6-4.258 9.6-9.492C48 4.339 43.68 0 38.4 0c-5.276 0-9.6 4.336-9.6 9.598a9.33 9.33 0 0 0 .69 3.53l-12.651 7.644A9.626 9.626 0 0 0 9.6 17.508zm28.8 20.566c3.53 0 6.4 2.839 6.4 6.328 0 3.488-2.93 6.434-6.4 6.434S32 47.89 32 44.402c0-3.49 2.87-6.328 6.4-6.328zm0-34.91c3.47 0 6.4 2.946 6.4 6.434 0 3.49-2.87 6.328-6.4 6.328S32 13.087 32 9.598c0-3.488 2.93-6.434 6.4-6.434zM9.6 33.328c-3.53 0-6.4-2.838-6.4-6.328s2.87-6.328 6.4-6.328c3.53 0 6.4 2.838 6.4 6.328s-2.87 6.328-6.4 6.328z" transform="translate(12 8)"/></svg>