<svg height="70" viewBox="0 0 70 70" width="70" xmlns="http://www.w3.org/2000/svg" xmlns:xlink="http://www.w3.org/1999/xlink"><linearGradient id="a" x1="10.493827%" x2="89.506173%" y1="0%" y2="100%"><stop offset="0" stop-color="#a4aebe"/><stop offset="1" stop-color="#2d53f5"/></linearGradient><path d="m9.6 17.5078125c-5.29333333 0-9.6 4.2583008-9.6 9.4921875s4.30666667 9.4921875 9.6 9.4921875c2.8854166 0 5.4774999-1.265213 7.23875-3.2641754l12.6504167 7.6440125c-.4441667 1.0917663-.6891667 2.2832336-.6891667 3.5303192 0 5.2581939 4.32 9.5976562 9.6 9.5976562 5.2758334 0 9.6-4.3357544 9.6-9.5976562 0-5.2338868-4.3066667-9.4921876-9.6-9.4921876-2.8854166 0-5.4774999 1.2652131-7.23875 3.2641755l-12.6504167-7.6440125c.4441667-1.0917663.6891667-2.2832336.6891667-3.5303192s-.245-2.4385529-.6891667-3.5303192l12.6504167-7.6440125c1.7612501 1.9989624 4.3533334 3.2641755 7.23875 3.2641755 5.2933333 0 9.6-4.2583008 9.6-9.49218755 0-5.258194-4.32-9.59765625-9.6-9.59765625-5.2758334 0-9.6 4.33575439-9.6 9.59765625 0 1.24708555.245 2.43855285.6891667 3.53031915l-12.6504167 7.6440125c-1.7612501-1.9989624-4.3533334-3.2641754-7.23875-3.2641754zm28.8 20.5664062c3.5291667 0 6.4 2.8385925 6.4 6.328125 0 3.4874726-2.9308333 6.4335938-6.4 6.4335938s-6.4-2.9461212-6.4-6.4335938c0-3.4895325 2.8708333-6.328125 6.4-6.328125zm0-34.9101562c3.4691667 0 6.4 2.94612124 6.4 6.43359375 0 3.48953255-2.8708333 6.32812505-6.4 6.32812505s-6.4-2.8385925-6.4-6.32812505c0-3.48747251 2.9308333-6.43359375 6.4-6.43359375zm-28.8 30.1640625c-3.52916672 0-6.4-2.8385925-6.4-6.328125s2.87083328-6.328125 6.4-6.328125c3.5291667 0 6.4 2.8385925 6.4 6.328125s-2.8708333 6.328125-6.4 6.328125z" fill="url(#a)" transform="translate(12 8)"/></svg>