<svg height="54" viewBox="0 0 54 54" width="54" xmlns="http://www.w3.org/2000/svg"><g fill="none" fill-rule="evenodd"><rect fill="#f1f5f9" height="54" rx="5" width="54"/><g transform="translate(12 15)"><path d="m23.1069304 4.58788485-16.64864863 8.41211515 16.64864863 8.1849943" stroke="#cbd5e1" stroke-width="2"/><g fill-rule="nonzero"><path d="m4.50270278 7.95679095c-1.60866075 0-3.0951246.87551326-3.89945499 2.29674245-.80433039 1.4212292-.80433039 3.1722559 0 4.5934851s2.29079424 2.2967424 3.89945499 2.2967424 3.09512461-.8755132 3.89945499-2.2967424c.80433039-1.4212292.80433039-3.1722559 0-4.5934851-.80433038-1.42122919-2.29079424-2.29674245-3.89945499-2.29674245z" fill="#4338ca"/><path d="m23.4972973 0c-2.486774 0-4.5027027 2.05657328-4.5027027 4.59348499s2.0159287 4.59348499 4.5027027 4.59348499 4.5027027-2.05657328 4.5027027-4.59348499-2.0159287-4.59348499-4.5027027-4.59348499z" fill="#fcd34d"/><path d="m23.4972973 16.81303c-2.486774 0-4.5027027 2.0565733-4.5027027 4.593485s2.0159287 4.593485 4.5027027 4.593485 4.5027027-2.0565733 4.5027027-4.593485-2.0159287-4.593485-4.5027027-4.593485z" fill="#f43f5e"/></g></g></g></svg>