<?xml version="1.0" encoding="UTF-8"?>
<svg width="54px" height="54px" viewBox="0 0 54 54" version="1.1" xmlns="http://www.w3.org/2000/svg" xmlns:xlink="http://www.w3.org/1999/xlink">
    <title>multi-factor-authentication</title>
    <g id="multi-factor-authentication" stroke="none" stroke-width="1" fill="none" fill-rule="evenodd">
        <rect id="Rectangle" fill="#F1F5F9" x="0" y="0" width="54" height="54" rx="5"></rect>
        <g id="Group" transform="translate(15, 13)" fill-rule="nonzero">
            <path d="M19.5,10.8888889 L16.5,10.8888889 L16.5,7.77777778 C16.5,7 16.2,3.11111111 12,3.11111111 C7.8,3.11111111 7.5,7 7.5,7.77777778 L7.5,10.8888889 L4.5,10.8888889 L4.5,7.77777778 C4.5,5.13333333 6,0 12,0 C18,0 19.5,5.13333333 19.5,7.77777778 L19.5,10.8888889 Z" id="Path" fill="#CBD5E1"></path>
            <path d="M21.3,28 L2.7,28 C1.2,28 0,26.7555556 0,25.2 L0,12.1333333 C0,10.5777778 1.2,9.33333333 2.7,9.33333333 L21.3,9.33333333 C22.8,9.33333333 24,10.5777778 24,12.1333333 L24,25.2 C24,26.7555556 22.8,28 21.3,28" id="Path" fill="#F43F5E"></path>
            <path d="M15,18.6666667 C15,20.3777778 13.65,21.7777778 12,21.7777778 C10.35,21.7777778 9,20.3777778 9,18.6666667 C9,16.9555556 10.35,15.5555556 12,15.5555556 C13.65,15.5555556 15,16.9555556 15,18.6666667" id="Path" fill="#FFFFFF"></path>
        </g>
    </g>
</svg>