<svg height="54" viewBox="0 0 54 54" width="54" xmlns="http://www.w3.org/2000/svg"><g fill="none" fill-rule="evenodd"><rect fill="#f1f5f9" height="54" rx="5" width="54"/><g fill-rule="nonzero" transform="translate(16 10)"><path d="m0 29.75v-25.5c0-2.348125 1.969-4.25 4.4-4.25h13.2c2.431 0 4.4 1.901875 4.4 4.25v25.5c0 2.348125-1.969 4.25-4.4 4.25h-13.2c-2.431 0-4.4-1.901875-4.4-4.25z" fill="#6a2eff"/><path d="m0 4.25v25.5h8.8c0 1.173.9856 2.125 2.2 2.125s2.2-.952 2.2-2.125h8.8v-25.5z" fill="#a5b4fc"/></g><ellipse cx="27" cy="26.451613" fill="#cdffd4" rx="5.5" ry="5.483871"/><ellipse cx="27" cy="26.451613" fill="#a5b4fc" rx="2.2" ry="2.193548"/></g></svg>