<svg xmlns="http://www.w3.org/2000/svg" xmlns:xlink="http://www.w3.org/1999/xlink" width="66" height="66"><defs><linearGradient id="c" x1="31.148%" x2="68.852%" y1="0%" y2="100%"><stop offset="0%" stop-color="#6366F1"/><stop offset="100%"/></linearGradient><linearGradient id="d" x1="-9.325%" x2="109.968%" y1="-54.65%" y2="153.724%"><stop offset="0%" stop-color="#6366F1"/><stop offset="100%"/></linearGradient><filter id="b" width="116.7%" height="116.7%" x="-8.3%" y="-6.7%" filterUnits="objectBoundingBox"><feMorphology in="SourceAlpha" operator="dilate" radius=".5" result="shadowSpreadOuter1"/><feOffset dy="1" in="shadowSpreadOuter1" result="shadowOffsetOuter1"/><feGaussianBlur in="shadowOffsetOuter1" result="shadowBlurOuter1" stdDeviation="1"/><feColorMatrix in="shadowBlurOuter1" values="0 0 0 0 0 0 0 0 0 0 0 0 0 0 0 0 0 0 0.11324369 0"/></filter><circle id="a" cx="30" cy="30" r="30"/></defs><g fill="none" fill-rule="evenodd"><g transform="translate(3 2)"><use xlink:href="#a" fill="#000" filter="url(#b)"/><use xlink:href="#a" fill="#F1F5F9"/></g><path fill="url(#c)" d="M19.955 0c2.624 0 4.75 2.145 4.75 4.79v30.655c0 2.646-2.126 4.79-4.75 4.79H4.75c-2.623 0-4.75-2.144-4.75-4.79V4.79C0 2.145 2.127 0 4.751 0h15.204Zm0 1.916-.951-.001v.959c0 1.587-1.276 2.874-2.85 2.874H8.552c-1.574 0-2.85-1.287-2.85-2.874L5.7 1.915l-.95.001c-1.574 0-2.85 1.287-2.85 2.874v30.655c0 1.588 1.276 2.874 2.85 2.874h15.204c1.574 0 2.85-1.286 2.85-2.874V4.79c0-1.587-1.276-2.874-2.85-2.874Zm-2.85 0H7.601v.958c0 .529.425.958.95.958h7.602c.525 0 .95-.429.95-.958v-.958Z" transform="translate(21.353 11.882)"/><g stroke-width="2" transform="translate(25.588 19.647)"><rect width="5.144" height="5.144" x="1" y="1" stroke="#CBD5E1" rx="1.83"/><rect width="5.144" height="5.144" x="1" y="10.092" stroke="url(#d)" rx="1.83"/><rect width="5.144" height="5.144" x="10.092" y="1" stroke="url(#d)" rx="1.83"/><rect width="5.144" height="5.144" x="10.092" y="10.092" stroke="#CBD5E1" rx="1.83"/><rect width="5.144" height="5.144" x="1" y="19.353" stroke="#CBD5E1" rx="1.83"/><rect width="5.144" height="5.144" x="10.092" y="19.353" stroke="url(#d)" rx="1.83"/></g></g></svg>