<svg xmlns="http://www.w3.org/2000/svg" width="36" height="36"><mask id="a" fill="#fff"><path fill-rule="evenodd" d="M0 0h36v36H0z"/></mask><g fill="#0070f3" mask="url(#a)"><path d="M8.631 13H7.218v6.943h-.087L2.32 13H1v9.455h1.426V15.52h.088l4.806 6.934h1.311zm2.23 9.455h5.984v-1.228h-4.557v-2.895h4.192v-1.223h-4.192v-2.881h4.501V13h-5.927zM19.838 13h-1.652l2.996 4.727-3.015 4.728h1.662l2.271-3.647h.074l2.272 3.647h1.662l-2.964-4.728L26.088 13h-1.653l-2.262 3.698H22.1zm7.35 1.228h2.945v8.227h1.422v-8.227h2.95V13h-7.317z"/></g></svg>