<svg height="54" viewBox="0 0 54 54" width="54" xmlns="http://www.w3.org/2000/svg"><g fill="none" fill-rule="evenodd"><rect fill="#f1f5f9" height="54" rx="5" width="54"/><g fill-rule="nonzero" transform="translate(13 13)"><path d="m28 14c0 7.7308-6.2692 14-14 14s-14-6.2692-14-14 6.2692-14 14-14 14 6.2692 14 14z" fill="#f43f5e"/><path d="m13.8306 19.0015c-.5089 0-.9296.1638-1.2579.4977-.3283.3311-.4921.7518-.4921 1.2635 0 .5033.161.9191.4816 1.2467.3227.3283.7441.4921 1.2712.4921.525 0 .9464-.1638 1.2691-.4921.3199-.3283.4816-.7441.4816-1.2467 0-.511-.1638-.9324-.4921-1.2635-.3262-.3283-.756-.4977-1.2614-.4977zm3.7982-11.5913c-.8505-.7413-2.0426-1.1102-3.5798-1.1102-1.5232 0-2.7265.3913-3.6064 1.1704-.8337.7385-1.2768 1.7528-1.3314 3.0296h-.0112v.7h3.15l.0056-.4921c.014-.5768.1834-1.0311.5061-1.3587.3199-.3311.7518-.4949 1.288-.4949 1.1319 0 1.6954.6097 1.6954 1.8319 0 .4046-.1064.7903-.3255 1.1536-.2163.364-.6538.8365-1.3097 1.4189-.6566.5796-1.1074 1.1704-1.3538 1.7689-.2485.5985-.3717 1.4602-.3717 2.4717h2.786l.0441-.7161c.0791-.7084.3941-1.3237.9464-1.8515l.8834-.8337c.686-.6643 1.1704-1.2691 1.4441-1.813.2765-.5467.4158-1.1263.4158-1.7388-.0042-1.3503-.4277-2.3947-1.2754-3.136z" fill="#fefefe"/></g></g></svg>