<svg height="70" viewBox="0 0 70 70" width="70" xmlns="http://www.w3.org/2000/svg" xmlns:xlink="http://www.w3.org/1999/xlink"><linearGradient id="a" x1="0%" x2="100%" y1="0%" y2="100%"><stop offset="0" stop-color="#a4aebe"/><stop offset="1" stop-color="#2d53f5"/></linearGradient><path d="m40.5 0c7.4430804 0 13.5 6.05597792 13.5 13.5v27c0 7.4440221-6.0569196 13.5-13.5 13.5h-27c-7.44308036 0-13.5-6.0559779-13.5-13.5v-27c0-7.44402208 6.05691964-13.5 13.5-13.5zm0 3.85714286h-27c-5.31675495 0-9.64285714 4.32610219-9.64285714 9.64285714v27c0 5.3167549 4.32610219 9.6428571 9.64285714 9.6428571h27c5.3167549 0 9.6428571-4.3261022 9.6428571-9.6428571v-27c0-5.31675495-4.3261022-9.64285714-9.6428571-9.64285714zm-13.4623327 34.71428574c1.0659878 0 1.9285714.8635253 1.9285714 1.9285714 0 1.065046-.8625836 1.9285714-1.9285714 1.9285714-1.0641043 0-1.9379882-.8635254-1.9379882-1.9285714 0-1.0650461.8550502-1.9285714 1.9191546-1.9285714zm2.0001396-26.766462c3.186663.7354561 5.717913 3.2685895 6.4505441 6.4552522.8324498 3.6188966-.6120954 7.2707521-3.6763393 9.3038505-1.8061522 1.1978238-2.8834403 3.3128489-2.8834403 5.6576452 0 1.0650461-.8625836 1.9285715-1.9285714 1.9285715s-1.9285714-.8635254-1.9285714-1.9285715c0-3.6405552 1.723284-6.9571708 4.6086076-8.8716168 1.7138672-1.1366142 2.5180665-3.1876047 2.0491071-5.2254116-.3973912-1.7308175-1.8268695-3.1621791-3.557687-3.560512-1.5217634-.3531318-3.0077427-.0226003-4.1942662.9200265-1.1695731.9322686-1.8419363 2.3203125-1.8419363 3.809117 0 1.0650461-.8625837 1.9285715-1.9285714 1.9285715-1.0659878 0-1.9285715-.8635254-1.9285715-1.9285715 0-2.6706195 1.2015905-5.1585519 3.2977654-6.8272182 2.0943246-1.6667829 4.8120283-2.2694615 7.4619306-1.6611328z" fill="url(#a)" transform="translate(8 8)"/></svg>