<svg xmlns="http://www.w3.org/2000/svg" width="70" height="70"><linearGradient id="a" x1="0%" x2="100%" y1="0%" y2="100%"><stop offset="0" stop-color="#a4aebe"/><stop offset="1" stop-color="#2d53f5"/></linearGradient><path fill="url(#a)" d="M40.5 0C47.943 0 54 6.056 54 13.5v27C54 47.944 47.943 54 40.5 54h-27C6.057 54 0 47.944 0 40.5v-27C0 6.056 6.057 0 13.5 0zm0 3.857h-27c-5.317 0-9.643 4.326-9.643 9.643v27c0 5.317 4.326 9.643 9.643 9.643h27c5.317 0 9.643-4.326 9.643-9.643v-27c0-5.317-4.326-9.643-9.643-9.643zM27.038 38.571a1.928 1.928 0 1 1 0 3.858A1.937 1.937 0 0 1 25.1 40.5c0-1.065.855-1.929 1.919-1.929zm2-26.766a8.654 8.654 0 0 1 6.45 6.455c.833 3.62-.612 7.271-3.676 9.304-1.806 1.198-2.883 3.313-2.883 5.658a1.928 1.928 0 1 1-3.858 0c0-3.64 1.724-6.957 4.609-8.872 1.714-1.137 2.518-3.188 2.05-5.225-.398-1.731-1.828-3.162-3.559-3.56-1.521-.354-3.007-.023-4.194.92a4.85 4.85 0 0 0-1.842 3.808 1.928 1.928 0 1 1-3.857 0 8.683 8.683 0 0 1 3.298-6.827c2.094-1.667 4.812-2.27 7.462-1.661z" transform="translate(8 8)"/></svg>