<?xml version="1.0" encoding="UTF-8"?>
<svg width="76px" height="76px" viewBox="0 0 76 76" version="1.1" xmlns="http://www.w3.org/2000/svg" xmlns:xlink="http://www.w3.org/1999/xlink">
    <title>oauth-authorization-grant-dark</title>
    <defs>
        <linearGradient x1="2.77555756e-15%" y1="100%" x2="100%" y2="2.77555756e-15%" id="linearGradient-1">
            <stop stop-color="#112C38" offset="0%"></stop>
            <stop stop-color="#19555B" offset="100%"></stop>
        </linearGradient>
        <path d="M50,19 C51.1045695,19 52,19.8954305 52,21 L52,55 C52,56.1045695 51.1045695,57 50,57 L26,57 C24.8954305,57 24,56.1045695 24,55 L24,21 C24,19.8954305 24.8954305,19 26,19 L50,19 Z M44.5888672,34.6318359 C43.8078194,33.8898397 42.4929619,33.8898397 41.7119141,34.6318359 L37.2105713,38.8050537 L34.6862793,36.4829102 C33.9052308,35.740914 32.5730407,35.740914 31.7919922,36.4829102 C31.0109435,37.2249063 30.9882414,38.461733 31.7692901,39.2037294 L35.6870728,42.8461914 C36.4681215,43.5881873 37.8465757,43.7163611 38.6276245,42.9743652 L44.5016479,37.465332 C45.2826967,36.7233359 45.369916,35.373832 44.5888672,34.6318359 Z" id="path-2"></path>
        <filter x="-130.4%" y="-93.4%" width="360.7%" height="292.1%" filterUnits="objectBoundingBox" id="filter-3">
            <feOffset dx="0" dy="1" in="SourceAlpha" result="shadowOffsetOuter1"></feOffset>
            <feGaussianBlur stdDeviation="12" in="shadowOffsetOuter1" result="shadowBlurOuter1"></feGaussianBlur>
            <feColorMatrix values="0 0 0 0 0   0 0 0 0 0   0 0 0 0 0  0 0 0 0.5 0" type="matrix" in="shadowBlurOuter1"></feColorMatrix>
        </filter>
    </defs>
    <g id="oauth-authorization-grant-dark" stroke="none" stroke-width="1" fill="none" fill-rule="evenodd">
        <rect id="Rectangle-Copy-8" fill="url(#linearGradient-1)" x="0" y="0" width="76" height="76" rx="12"></rect>
        <g id="Combined-Shape">
            <use fill="black" fill-opacity="1" filter="url(#filter-3)" xlink:href="#path-2"></use>
            <use fill="#5EEAD4" fill-rule="evenodd" xlink:href="#path-2"></use>
        </g>
    </g>
</svg>