<svg height="70" viewBox="0 0 70 70" width="70" xmlns="http://www.w3.org/2000/svg" xmlns:xlink="http://www.w3.org/1999/xlink"><linearGradient id="a" x1="14.542936%" x2="85.457064%" y1="0%" y2="100%"><stop offset="0" stop-color="#a4aebe"/><stop offset="1" stop-color="#2d53f5"/></linearGradient><path d="m12.9333294.71991999c1.702178.71062077 3.1563378 1.91011809 4.1792375 3.44737502.6659503 1.00080106 1.1297395 2.11561415 1.3723316 3.28162542l11.3629115.00055493c4.7629653 0 13.7596775 2.41256865 13.7596775 11.55912014 0 9.1465515-8.9967122 11.5591201-13.7596775 11.5591201h-11.7485419c-.3969138 0-9.79053985.1325588-9.79053985 7.5823587 0 7.340244 9.11937445 7.5768773 9.76725045 7.5822497l11.4400213-.000324.0520338-.2390842c.396844-1.6855565 1.2533561-3.230373 2.4770908-4.4596894 1.3053171-1.311536 2.9694443-2.205512 4.7822818-2.5687229 1.8125729-.363476 3.692092-.1794845 5.4004089.5278488 1.7083169.7075985 3.1686949 1.9072549 4.1961724 3.4467918 1.0274775 1.539537 1.5760123 3.3500239 1.5760123 5.2021343 0 2.4775224-.980377 4.85377-2.726533 6.6080521-1.7458914 1.7545471-4.1149375 2.7434352-6.5877103 2.7506317-1.8485597.005264-3.6571635-.5392872-5.1966597-1.5644963-1.5394963-1.024944-2.740822-2.4846806-3.4518268-4.194423-.2070299-.4977642-.3697955-1.0102066-.4876959-1.5314365l-11.4503062-.000412c-4.7629654 0-13.75967761-2.4125687-13.75967761-11.5591201 0-9.1465515 8.99671221-11.5591202 13.75967761-11.5591202l11.8064437-.0005268c.8834522-.0136005 9.732638-.3511437 9.732638-7.5818318s-8.8491858-7.5682313-9.732638-7.5818318l-11.4551936-.0001917c-.1181114.5223556-.2810386 1.0348313-.4876297 1.5315929-.4743649 1.1406678-1.1695197 2.1758984-2.0452967 3.0459873-.8758035.8700889-1.9148973 1.557777-3.0573474 2.0233762-1.1424502.4656258-2.3656061.6999366-3.59892308.6894379-1.84395556-.0157214-3.64200143-.577903-5.16760568-1.6157317-1.52557779-1.0378552-2.71044479-2.504909-3.40525559-4.2162951-.69483725-1.7113861-.86852672-3.59053842-.49918522-5.40068073.36931503-1.8101158 1.26514943-3.47022815 2.57456797-4.77110637 1.30941855-1.30090474 2.97386324-2.18435557 4.78357837-2.53905618 1.80974159-.35470062 3.68375673-.164797 5.38590823.54582377zm25.7524273 41.53947451c-1.0467939 0-2.069773.3109827-2.9400726.8937109-.8702996.582463-1.5487576 1.4106898-1.9493759 2.3794289-.4003537.9690043-.5051389 2.0350415-.3011252 3.0636971.2042783 1.0283905.7083588 1.9732691 1.4484706 2.7148025.7401119.7415335 1.6831791 1.2465822 2.7095981 1.4512529 1.0266836.2044055 2.0906772.099419 3.0578237-.3019688.966882-.4011227 1.7935211-1.0808838 2.3748674-1.952855.581611-.8719713.8919976-1.8969153.8919976-2.9457198 0-1.4061829-.5575315-2.7551004-1.5500806-3.7492908-.992549-.9944555-2.338616-1.5530579-3.7421031-1.5530579zm-29.42443538-38.28295753c-1.04668809 0-2.06987889.31095624-2.94017849.89360483-.87029961.58262207-1.54859879 1.41074289-1.94916417 2.37961455-.40053892.96887166-.50535062 2.0349884-.30115171 3.06356455.2041989 1.0285496.70825294 1.9733221 1.44836482 2.714882.74013835.7415335 1.68309964 1.2465557 2.70967743 1.4511468 1.02660425.2045911 2.0906772.0995781 3.0576914-.3017301.9670143-.4013348 1.7935475-1.0809634 2.3750527-1.9529081.5815316-.8719712.8918917-1.8971273.8918917-2.94582584 0-.69633094-.1368823-1.38582185-.402841-2.02912931-.2659587-.64330745-.655781-1.22783837-1.1471867-1.72021447-.4914322-.49234959-1.0748425-.88292059-1.7169167-1.14939013-.6420742-.26646953-1.33024326-.40361478-2.02523928-.40361478z" fill="url(#a)" transform="translate(11 6)"/></svg>