<svg xmlns="http://www.w3.org/2000/svg" width="70" height="70"><defs><linearGradient id="a" x1="14.543%" x2="85.457%" y1="0%" y2="100%"><stop offset="0%" stop-color="#A4AEBE"/><stop offset="100%" stop-color="#2D53F5"/></linearGradient></defs><path fill="none" stroke="url(#a)" stroke-linejoin="round" stroke-width="3.564" d="M52.394 64c-2.868 0-5.385-1.85-6.263-4.606l-3.194-9.918h-15.98l-2.967 9.828c-.896 2.808-3.432 4.688-6.315 4.688a6.5 6.5 0 0 1-2.043-.33c-3.445-1.055-5.401-4.834-4.346-8.421l13.488-43.54C25.649 8.932 28.228 7 31.044 7h7.172c2.832 0 5.41 1.899 6.269 4.618l14.184 43.523c1.135 3.559-.744 7.379-4.184 8.52a6.646 6.646 0 0 1-2.091.339Z"/></svg>