<?xml version="1.0" encoding="UTF-8"?>
<svg width="76px" height="76px" viewBox="0 0 76 76" version="1.1" xmlns="http://www.w3.org/2000/svg" xmlns:xlink="http://www.w3.org/1999/xlink">
    <title>oauth</title>
    <defs>
        <linearGradient x1="-3.88578059e-14%" y1="100%" x2="100%" y2="2.77555756e-15%" id="linearGradient-1">
            <stop stop-color="#E7E6F1" offset="0%"></stop>
            <stop stop-color="#F0F1FD" offset="100%"></stop>
        </linearGradient>
    </defs>
    <g id="oauth" stroke="none" stroke-width="1" fill="none" fill-rule="evenodd">
        <rect id="Rectangle-Copy-6" fill="url(#linearGradient-1)" x="0" y="0" width="76" height="76" rx="12"></rect>
        <g id="Group" transform="translate(19, 19)" fill="#6366F1">
            <path d="M19,0 C29.4934102,-1.92760819e-15 38,8.50658975 38,19 C38,29.4934102 29.4934102,38 19,38 C8.50658975,38 6.42536064e-16,29.4934102 0,19 C-1.28507213e-15,8.50658975 8.50658975,1.28507213e-15 19,0 Z M20.0870238,5 L17.6721443,5 C15.1156978,5.00249941 13.0271418,6.46990194 12.2454306,8.84190092 L8.6244082,19.8486331 C7.93832909,21.925569 7.6350963,22.8519453 7.26438039,24.0163755 C6.6382717,25.9726933 7.13762064,27.9436635 8.62017064,29.3947856 C10.0601909,30.8046949 12.0159371,31.3147272 13.9996984,30.8084939 L14.2462085,30.7399632 C16.0318939,30.2031247 17.3497106,29.0109554 17.9225895,27.210012 L18.3049499,26.0146484 L19.7556152,26.0146484 L19.8918484,26.4115203 C20.0176654,26.7749067 20.1413613,27.1280105 20.2643108,27.4745905 C21.03479,29.6473735 23.1115454,31 25.4568939,31 C25.8796599,31 26.3033525,30.952637 26.7174044,30.8592921 C28.2414268,30.5142031 29.519367,29.5985537 30.2828893,28.2856667 C31.0708986,26.9338821 31.2126258,25.3340188 30.6924461,23.8274745 C30.5962072,23.54868 30.5002339,23.2706911 30.4042766,22.9927857 L30.1162037,22.1585982 C28.8178478,18.3993849 27.4769607,14.5238277 25.4797913,8.75573342 C24.6751651,6.43350029 22.6024505,5.00250195 20.0870238,5 Z M20.0698013,9 C20.9309898,9.00085619 21.508493,9.39866401 21.7644721,10.1357791 C23.952058,16.4395703 25.3409079,20.4452228 26.7608553,24.5488533 L26.9030304,24.9597645 C27.0617125,25.4183028 27.0231084,25.8530956 26.8058203,26.2250006 C26.5920325,26.5917804 26.2321618,26.8490475 25.757632,26.9562546 C25.6294305,26.9850906 25.4967571,27 25.3665428,27 C24.6684011,27 24.0576054,26.5792508 23.8413202,25.9706934 C23.5458136,25.1395749 23.2448722,24.2665876 22.9177457,23.2949792 L22.4798106,21.994255 L21.0934157,21.9987679 C20.6590853,22.0001816 20.2174672,22.0011484 19.7590015,22.0017053 L15.4906041,22.0012458 L15.066334,23.3226005 L14.263168,25.8239952 C14.0665757,26.4406097 13.7096819,26.7790926 13.1127167,26.9314827 C12.4538795,27.0992308 11.913122,26.9585267 11.4582287,26.5141499 C11.0168067,26.08306 10.9009065,25.6266245 11.0820756,25.0618243 C11.4429754,23.9307911 11.7391453,23.0280331 12.4120833,20.9954693 L15.9829098,10.1658042 C16.2334972,9.40714599 16.8130745,9.00085817 17.6924861,9 Z" id="Combined-Shape"></path>
        </g>
    </g>
</svg>