<svg height="54" viewBox="0 0 54 54" width="54" xmlns="http://www.w3.org/2000/svg"><g fill="none" fill-rule="evenodd"><rect fill="#f1f5f9" height="54" rx="5" width="54"/><g fill-rule="nonzero" transform="translate(12 15)"><rect fill="#94a3b8" height="5.952381" rx=".6" width="6" x="12" y="19.047619"/><path d="m27 0h-24c-1.65613319.0017257-2.99826049 1.3332012-3 2.97619048v14.28571432c.00173951 1.6429892 1.34386681 2.9744647 3 2.9761905h26.3999999c.1591582 0 .3118242-.0625914.4243661-.17424.1125419-.1116487.175634-.2631031.175634-.4209982v-16.66666662c-.0017396-1.64298928-1.3438669-2.97446478-3-2.97619048z" fill="#a5b4fc"/><rect fill="#cbd5e1" height="13.095238" rx="1.8" width="8.4" x="21.6" y="11.904762"/><path d="m21.6 14.285714h8.4v8.333333h-8.4z" fill="#94a3b8"/><path d="m19.2 25h-8.4c-.3313709 0-.6-.2664972-.6-.5952381s.2686291-.5952381.6-.5952381h8.4c.3313708 0 .5999999.2664972.5999999.5952381s-.2686291.5952381-.5999999.5952381z" fill="#64748b"/></g></g></svg>