<svg xmlns="http://www.w3.org/2000/svg" width="70" height="70"><linearGradient id="a" x1="0%" x2="100%" y1="1.869%" y2="98.131%"><stop offset="0" stop-color="#a4aebe"/><stop offset="1" stop-color="#2d53f5"/></linearGradient><path fill="url(#a)" d="M18.218 0c.914 0 1.656.728 1.656 1.625v6.499l22.083.001c.914 0 1.656.728 1.656 1.625v6.366l8.902 8.733a1.604 1.604 0 0 1 0 2.3l-8.902 8.732v6.369c0 .897-.742 1.625-1.656 1.625h-22.22C18.945 48.48 14.851 52 9.936 52 4.458 52 0 47.625 0 42.25s4.458-9.75 9.937-9.75c4.915 0 9.008 3.52 9.8 8.125H40.3l-.001-4.746-8.898-8.73a1.604 1.604 0 0 1 0-2.3l8.898-8.731v-4.743l-20.426-.001v6.501c0 .897-.742 1.625-1.656 1.625H1.656C.742 19.5 0 18.772 0 17.875V1.625C0 .728.742 0 1.656 0zm-8.28 35.75c-3.653 0-6.626 2.916-6.626 6.5s2.973 6.5 6.625 6.5c3.653 0 6.625-2.916 6.625-6.5s-2.972-6.5-6.625-6.5zm32.019-16.66L34.915 26l7.042 6.91L48.999 26zM16.562 3.25H3.312v13h13.25z" transform="translate(9 9)"/></svg>