<svg xmlns="http://www.w3.org/2000/svg" width="70" height="70"><linearGradient id="a" x1="0%" x2="100%" y1="10.494%" y2="89.506%"><stop offset="0" stop-color="#a4aebe"/><stop offset="1" stop-color="#2d53f5"/></linearGradient><path fill="url(#a)" d="M50.448 10.382V4.786C50.448 2.147 48.285 0 45.627 0H4.821C2.163 0 0 2.147 0 4.786v24.665c0 2.639 2.163 4.786 4.821 4.786H16.12l-.625 5.03h-2.802c-2.425 0-4.398 1.958-4.398 4.366 0 2.408 1.973 4.367 4.398 4.367h36.25C51.732 48 54 45.748 54 42.979V15.175c0-2.248-1.496-4.156-3.552-4.793zM3.375 29.45V4.786c0-.791.649-1.435 1.446-1.435h40.806c.797 0 1.446.644 1.446 1.435v5.368H35.776c-2.79 0-5.058 2.253-5.058 5.021v15.712H4.821a1.443 1.443 0 0 1-1.446-1.436zm16.145 4.786h11.198v5.029H18.894zm-7.851 9.396c0-.55.468-1.016 1.023-1.016h18.026v.362c0 .585.102 1.147.289 1.67H12.692a1.034 1.034 0 0 1-1.023-1.016zm38.956-.654c0 .921-.755 1.67-1.683 1.67H35.776a1.678 1.678 0 0 1-1.683-1.67V15.175c0-.92.755-1.67 1.683-1.67h13.166c.928 0 1.683.75 1.683 1.67zm-5.814-3.189c0 1.341-1.102 2.434-2.452 2.434s-2.452-1.093-2.452-2.434 1.102-2.433 2.452-2.433 2.452 1.093 2.452 2.433z" transform="translate(8 12)"/></svg>