<svg height="54" viewBox="0 0 54 54" width="54" xmlns="http://www.w3.org/2000/svg" xmlns:xlink="http://www.w3.org/1999/xlink"><mask id="a" fill="#fff"><path d="m0 0h30v30h-30z" fill="#fff" fill-rule="evenodd"/></mask><g fill="none" fill-rule="evenodd"><rect fill="#f1f5f9" height="54" rx="5" width="54"/><g transform="translate(12 12)"><path d="m15.0000749-.00014986c8.284337 0 15.0003747 6.71607121 15.0003747 15.00044956 0 8.2843784-6.7160377 14.9997003-15.0003747 14.9997003-8.28433696 0-15.00037462-6.7153219-15.00037462-14.9997003 0-8.28437835 6.71603766-15.00044956 15.00037462-15.00044956" fill="#f59e0b" mask="url(#a)"/><path d="m15.0000749 3.26077509c6.4830033 0 11.7393911 5.25566479 11.7393911 11.73944971 0 6.4830356-5.2563878 11.7387004-11.7393911 11.7387004-6.48300319 0-11.73939103-5.2556648-11.73939103-11.7387004 0-6.48378492 5.25638784-11.73944971 11.73939103-11.73944971" fill="#fcd34d"/><path d="m6.51852037 16.8991278 5.22042113 1.3614974 1.3622399 5.2211965c.2045608.7852776 1.2753203.8931783 1.633489.1648484l7.3814222-15.0266755c.2307865-.47056707-.2652546-.96661071-.7358194-.73507373l-15.02585104 7.38145903c-.72907561.3574212-.62117541 1.4281861.16409821 1.6327479" fill="#4338ca"/></g></g></svg>