<?xml version="1.0" encoding="UTF-8"?>
<svg width="54px" height="54px" viewBox="0 0 54 54" version="1.1" xmlns="http://www.w3.org/2000/svg" xmlns:xlink="http://www.w3.org/1999/xlink">
    <title>oauth</title>
    <g id="oauth" stroke="none" stroke-width="1" fill="none" fill-rule="evenodd">
        <rect id="Rectangle" fill="#F1F5F9" x="0" y="0" width="54" height="54" rx="5"></rect>
        <circle id="Oval" stroke="#F59E0B" stroke-width="3" fill="#CBD5E1" fill-rule="nonzero" cx="27" cy="27" r="20"></circle>
        <path d="M36.833187,33.8936951 C35.1032845,28.6759728 33.3690046,23.459126 31.6347248,18.2440301 C31.104198,16.6498233 29.7787565,15.6964509 28.087374,15.6947 L25.6807434,15.6947 C23.9613463,15.6964509 22.6271502,16.6734607 22.1106307,18.3053121 L18.4993716,29.7344001 C18.044134,31.1692737 17.5888965,32.6041473 17.1485418,34.0442737 C16.7440808,35.3600852 17.0522415,36.6242448 18.0143685,37.6047563 C18.9616127,38.5703851 20.2100141,38.9109378 21.5345801,38.5590042 C22.7899851,38.2245797 23.663691,37.3596284 24.0611484,36.0586997 L24.8735722,33.4183221 L25.2649014,33.4183221 C26.5518228,33.420073 27.8404952,33.420073 29.1291675,33.4156957 C29.4373283,34.3708191 29.7507418,35.323316 30.0737854,36.2714357 C30.567543,37.7211921 31.9227501,38.6947 33.4451694,38.6947 C33.7218137,38.6947 34.0002089,38.6623081 34.272476,38.5983998 C35.2713722,38.3629019 36.0907997,37.7518331 36.5793046,36.8772518 C37.0826922,35.9781577 37.1728642,34.9179795 36.833187,33.8936951" id="Fill-1" fill="#312E81"></path>
    </g>
</svg>