<svg height="70" viewBox="0 0 70 70" width="70" xmlns="http://www.w3.org/2000/svg" xmlns:xlink="http://www.w3.org/1999/xlink"><linearGradient id="a" x1="0%" x2="100%" y1="1.868993%" y2="98.131008%"><stop offset="0" stop-color="#a4aebe"/><stop offset="1" stop-color="#2d53f5"/></linearGradient><path d="m18.2181807 0c.9142214 0 1.6561982.728 1.6561982 1.625l-.0003789 6.499 22.0830222.001c.9142214 0 1.6561982.728 1.6561982 1.625l-.0002204 6.366 8.9017339 8.7335c.6470215.6348333.6470215 1.664 0 2.2988333l-8.9017339 8.7326667.0002204 6.369c0 .897-.7419768 1.625-1.6561982 1.625l-22.2206105-.0005397c-.7906974 4.6052558-4.8844606 8.1255397-9.79922224 8.1255397-5.47870379 0-9.93718946-4.3745-9.93718946-9.75s4.45848567-9.75 9.93718946-9.75c4.91440444 0 9.00792984 3.5197723 9.79904974 8.1245357l20.5645847.0004643-.0008239-4.746-8.8984813-8.7306667c-.6470214-.6348333-.6470214-1.664 0-2.2988333l8.8984813-8.7315.0008239-4.743-20.4268239-.001.0003789 6.501c0 .897-.7419768 1.625-1.6561982 1.625h-16.56198246c-.91422143 0-1.65619824-.728-1.65619824-1.625v-16.25c0-.897.74197681-1.625 1.65619824-1.625zm-8.28099124 35.75c-3.65246919 0-6.62479297 2.9163333-6.62479297 6.5s2.97232378 6.5 6.62479297 6.5c3.65246924 0 6.62479294-2.9163333 6.62479294-6.5s-2.9723237-6.5-6.62479294-6.5zm32.01983274-16.6595-7.042155 6.9095 7.042155 6.9095 7.0421549-6.9095zm-25.3950398-15.8405h-13.24958591v13h13.24958591z" fill="url(#a)" transform="translate(9 9)"/></svg>