<svg height="70" viewBox="0 0 70 70" width="70" xmlns="http://www.w3.org/2000/svg" xmlns:xlink="http://www.w3.org/1999/xlink"><linearGradient id="a" x1="0%" x2="100%" y1="10.493827%" y2="89.506173%"><stop offset="0" stop-color="#a4aebe"/><stop offset="1" stop-color="#2d53f5"/></linearGradient><path d="m50.4482344 10.3816978v-5.59547682c0-2.63916447-2.1627422-4.78622098-4.8211875-4.78622098h-40.8058594c-2.65844531 0-4.8211875 2.14705651-4.8211875 4.78622098v24.66455512c0 2.6391645 2.16274219 4.7863257 4.8211875 4.7863257h11.2981289l-.6257461 5.0290291h-2.80125c-2.4255703 0-4.39878514 1.9590085-4.39878514 4.3669869 0 2.4078737 1.97321484 4.3668822 4.39878514 4.3668822h23.083207 13.1668243c2.7888046 0 5.0576484-2.2523886 5.0576484-5.0209669v-27.8036804c0-2.2482004-1.4960742-4.155904-3.5517656-4.7936549zm-47.0732344 19.0690783v-24.66455512c0-.79166558.64873828-1.43569877 1.4461875-1.43569877h40.8057539c.7974492 0 1.4461875.64403319 1.4461875 1.43569877v5.36826952h-11.2976016c-2.7886992 0-5.0575429 2.2523885-5.0575429 5.0209669v15.7111222h-25.8967969c-.79744922 0-1.4461875-.6441379-1.4461875-1.4358035zm16.1449453 4.786221h11.1980391v5.0290291h-11.8236797zm-7.8514101 9.396016c0-.5509515.4688086-1.0164647 1.0237851-1.0164647h18.0256641v.3622753c0 .5855037.1025156 1.1474491.2888789 1.6704447h-18.314543c-.5548711 0-1.0237851-.4654085-1.0237851-1.0162553zm38.9564648-.6540847c0 .9210795-.7548398 1.6704447-1.6826484 1.6704447h-13.1668243c-.9277031 0-1.6825429-.7493652-1.6825429-1.6704447v-27.8035757c0-.9210795.7548398-1.6704447 1.6825429-1.6704447h13.1668243c.9278086 0 1.6826484.7493652 1.6826484 1.6704447zm-5.8142813-3.1884407c0 1.340523-1.1013046 2.4339449-2.4517265 2.4339449s-2.4517266-1.0934219-2.4517266-2.4339449 1.1014102-2.433945 2.4517266-2.433945 2.4517265 1.0933173 2.4517265 2.433945z" fill="url(#a)" transform="translate(8 12)"/></svg>