<?xml version="1.0" encoding="UTF-8"?>
<svg width="54px" height="54px" viewBox="0 0 54 54" version="1.1" xmlns="http://www.w3.org/2000/svg" xmlns:xlink="http://www.w3.org/1999/xlink">
    <title>oauth</title>
    <g id="oauth" stroke="none" stroke-width="1" fill="none" fill-rule="evenodd">
        <rect id="Rectangle" fill="#F1F5F9" x="0" y="0" width="54" height="54" rx="5"></rect>
        <g id="Group" transform="translate(11, 11)">
            <circle id="Oval" stroke="#94A3B8" stroke-width="2.376" fill-rule="nonzero" cx="16" cy="16" r="16"></circle>
            <path d="M23.2216176,20.888742 C21.9951766,17.2590221 20.7656323,13.6299113 19.5360881,10.0020184 C19.159963,8.89300505 18.2202709,8.22978946 17.0211393,8.22857143 L15.3149217,8.22857143 C14.0959288,8.22978946 13.15003,8.90944841 12.7838356,10.0446494 L10.2235781,17.9953193 C9.90083044,18.9934923 9.57808283,19.9916652 9.26588658,20.9934923 C8.97913774,21.9088394 9.19761305,22.7882547 9.87972771,23.4703497 C10.551291,24.1420915 11.4363643,24.3789977 12.3754357,24.1341744 C13.2654743,23.9015312 13.8849015,23.299826 14.166685,22.3948321 L14.7426653,20.5580477 L15.0201041,20.5580477 C15.9324868,20.5592657 16.8461108,20.5592657 17.7597348,20.5562206 C17.9782102,21.2206543 18.2004095,21.8832608 18.4294361,22.5428223 C18.7794932,23.5513485 19.740288,24.2285714 20.8196305,24.2285714 C21.0157617,24.2285714 21.2131343,24.2060379 21.4061622,24.16158 C22.114345,23.9977554 22.6952907,23.572664 23.0416237,22.9642596 C23.3985081,22.3388029 23.4624369,21.6012876 23.2216176,20.888742" id="Fill-1" stroke="#4338CA" stroke-width="2.025" stroke-linecap="round" stroke-linejoin="round"></path>
        </g>
    </g>
</svg>