<svg height="54" viewBox="0 0 54 54" width="54" xmlns="http://www.w3.org/2000/svg"><g fill="none" fill-rule="evenodd"><rect fill="#f1f5f9" height="54" rx="5" width="54"/><g transform="translate(14 13)"><path d="m4.83794651 4.93402778h13.73616389c.8748191 0 1.584.70918095 1.584 1.584v16.16533332c0 .8748191-.7091809 1.584-1.584 1.584h-12.92983948" stroke="#cbd5e1" stroke-width="1.584"/><path d="m16.9087769 9.6659111 6.5032802-.00310204c.8748182-.00192769 1.5843374.70691494 1.5847547 1.58173384.0000002.0005037.0000002.0010074-.0015104.0015104l-.0031021 6.5032802c-.0019288.8742282-.7105272 1.5828265-1.5847553 1.5847554l-6.5032802.003102c-.8748183.0019277-1.5843374-.7069149-1.5847547-1.5817338-.0000002-.0005037-.0000002-.0010074.0015104-.0015104l.003102-6.5032802c.0019289-.8742282.7105273-1.58282654 1.5847554-1.5847554z" fill="#6366f1" transform="matrix(.70710678 .70710678 -.70710678 .70710678 16.157219 -10.006978)"/><rect fill="#0ea5e9" height="9.666667" rx="1.584" width="9.675893"/><rect fill="#f58320" height="9.666667" rx="4.752" width="9.675893" y="19.333333"/></g></g></svg>