<svg xmlns="http://www.w3.org/2000/svg" width="70" height="70"><linearGradient id="a" x1="14.543%" x2="85.457%" y1="0%" y2="100%"><stop offset="0" stop-color="#a4aebe"/><stop offset="1" stop-color="#2d53f5"/></linearGradient><path fill="url(#a)" d="M12.933.72a9.345 9.345 0 0 1 5.552 6.729h11.363c4.763 0 13.76 2.413 13.76 11.56 0 9.146-8.997 11.559-13.76 11.559H18.099c-.397 0-9.79.132-9.79 7.582 0 7.34 9.12 7.577 9.767 7.582h11.44l.052-.24a9.363 9.363 0 0 1 2.477-4.459 9.334 9.334 0 0 1 10.183-2.04 9.345 9.345 0 0 1 4.196 3.446 9.372 9.372 0 0 1-1.15 11.81 9.331 9.331 0 0 1-15.237-3.008 9.372 9.372 0 0 1-.487-1.531H18.1c-4.764 0-13.76-2.413-13.76-11.56 0-9.146 8.996-11.559 13.76-11.559h11.806c.883-.014 9.732-.352 9.732-7.582s-8.849-7.569-9.732-7.582H18.45a9.37 9.37 0 0 1-2.533 4.577 9.339 9.339 0 0 1-6.657 2.713 9.328 9.328 0 0 1-5.167-1.616 9.355 9.355 0 0 1-3.406-4.216A9.375 9.375 0 0 1 2.764 2.713 9.335 9.335 0 0 1 12.934.72zm25.753 41.54a5.28 5.28 0 0 0-2.94.893 5.3 5.3 0 0 0-2.25 5.443 5.307 5.307 0 0 0 1.448 2.715 5.29 5.29 0 0 0 5.767 1.15 5.308 5.308 0 0 0 1.717-8.648 5.287 5.287 0 0 0-3.742-1.554zM9.26 3.975A5.285 5.285 0 0 0 4.372 7.25a5.312 5.312 0 0 0 1.147 5.778 5.29 5.29 0 0 0 5.768 1.15 5.31 5.31 0 0 0 0-9.797 5.283 5.283 0 0 0-2.026-.405z" transform="translate(11 6)"/></svg>