<?xml version="1.0" encoding="UTF-8"?>
<svg width="76px" height="76px" viewBox="0 0 76 76" version="1.1" xmlns="http://www.w3.org/2000/svg" xmlns:xlink="http://www.w3.org/1999/xlink">
    <title>oauth-v1-signed-requests-dark</title>
    <defs>
        <linearGradient x1="2.77555756e-15%" y1="100%" x2="100%" y2="2.77555756e-15%" id="linearGradient-1">
            <stop stop-color="#112C38" offset="0%"></stop>
            <stop stop-color="#19555B" offset="100%"></stop>
        </linearGradient>
        <filter x="-96.1%" y="-93.4%" width="292.1%" height="292.1%" filterUnits="objectBoundingBox" id="filter-2">
            <feOffset dx="0" dy="1" in="SourceAlpha" result="shadowOffsetOuter1"></feOffset>
            <feGaussianBlur stdDeviation="12" in="shadowOffsetOuter1" result="shadowBlurOuter1"></feGaussianBlur>
            <feColorMatrix values="0 0 0 0 0   0 0 0 0 0   0 0 0 0 0  0 0 0 0.5 0" type="matrix" in="shadowBlurOuter1" result="shadowMatrixOuter1"></feColorMatrix>
            <feMerge>
                <feMergeNode in="shadowMatrixOuter1"></feMergeNode>
                <feMergeNode in="SourceGraphic"></feMergeNode>
            </feMerge>
        </filter>
    </defs>
    <g id="oauth-v1-signed-requests-dark" stroke="none" stroke-width="1" fill="none" fill-rule="evenodd">
        <rect id="Rectangle-Copy-8" fill="url(#linearGradient-1)" x="0" y="0" width="76" height="76" rx="12"></rect>
        <g id="Group" filter="url(#filter-2)" transform="translate(19, 19)">
            <path d="M19,0 C29.4936996,0 38,8.50630045 38,19 C38,29.4936996 29.4936996,38 19,38 C8.50630045,38 0,29.4936996 0,19 C0,8.50630045 8.50630045,0 19,0 Z M28.3979522,11.9810419 C28.8927817,10.494647 27.505357,9.10721828 26.0189664,9.60204882 L14.5998355,13.4084379 C14.0307821,13.5987572 13.5987447,14.0307379 13.408426,14.599793 L9.60204851,26.0189588 C9.10721948,27.5053539 10.4946439,28.8927829 11.9810343,28.3979519 C12.0121506,28.3875521 12.0466477,28.3760266 12.0843783,28.3634244 L12.5072847,28.222258 C12.7305123,28.1477739 12.99841,28.0584166 13.3015556,27.9573241 L14.0391392,27.711387 C14.652895,27.5067597 15.3529561,27.2734017 16.0888257,27.0281317 L16.7271629,26.8153754 C18.3390405,26.2781531 20.049096,25.7082987 21.360459,25.2713036 L21.8198587,25.1182143 C22.5531331,24.8738591 23.1170243,24.6859446 23.4001663,24.5915639 C23.9692193,24.4012446 24.4012572,23.9692635 24.5915758,23.4002088 Z" id="Combined-Shape" fill="#5EEAD4"></path>
            <circle id="Oval" fill="#14B8A6" cx="19" cy="19" r="2"></circle>
        </g>
    </g>
</svg>