<?xml version="1.0" encoding="UTF-8"?>
<svg width="54px" height="54px" viewBox="0 0 54 54" version="1.1" xmlns="http://www.w3.org/2000/svg" xmlns:xlink="http://www.w3.org/1999/xlink">
    <title>oauth-authorization-grant</title>
    <g id="oauth-authorization-grant" stroke="none" stroke-width="1" fill="none" fill-rule="evenodd">
        <rect id="Rectangle" fill="#F1F5F9" x="0" y="0" width="54" height="54" rx="5"></rect>
        <g id="Group" transform="translate(14, 13)">
            <path d="M4.83794651,4.93402778 L18.5741104,4.93402778 C19.4489295,4.93402778 20.1581104,5.64320873 20.1581104,6.51802778 L20.1581104,22.6833611 C20.1581104,23.5581802 19.4489295,24.2673611 18.5741104,24.2673611 L5.64427092,24.2673611 L5.64427092,24.2673611" id="Path-4" stroke="#CBD5E1" stroke-width="1.584"></path>
            <path d="M16.9087769,9.6659111 L23.4120571,9.66280906 C24.2868753,9.66088137 24.9963945,10.369724 24.9968118,11.2445429 C24.996812,11.2450466 24.996812,11.2455503 24.9953014,11.2460533 L24.9921993,17.7493335 C24.9902705,18.6235617 24.2816721,19.33216 23.407444,19.3340889 L16.9041638,19.3371909 C16.0293455,19.3391186 15.3198264,18.630276 15.3194091,17.7554571 C15.3194089,17.7549534 15.3194089,17.7544497 15.3209195,17.7539467 L15.3240215,11.2506665 C15.3259504,10.3764383 16.0345488,9.66783996 16.9087769,9.6659111 Z" id="Rectangle-Copy" fill="#6366F1" transform="translate(20.1581, 14.5) rotate(-315) translate(-20.1581, -14.5)"></path>
            <rect id="Rectangle" fill="#0EA5E9" x="0" y="0" width="9.67589301" height="9.66666667" rx="1.584"></rect>
            <rect id="Rectangle-Copy-2" fill="#F58320" x="0" y="19.3333333" width="9.67589301" height="9.66666667" rx="4.752"></rect>
        </g>
    </g>
</svg>