<svg width="199" height="198" viewBox="0 0 199 198" fill="none" xmlns="http://www.w3.org/2000/svg">
    <g clip-path="url(#clip0_2_35)">
        <path
            d="M52.3162 113.871H0.0791931C0.0890934 114.128 0.0956935 114.382 0.108894 114.637C0.128694 115.128 0.164995 115.617 0.194696 116.108C0.207896 116.32 0.217797 116.531 0.234297 116.739C0.273898 117.306 0.323399 117.874 0.376201 118.438C0.389401 118.567 0.399301 118.696 0.412502 118.818C0.471903 119.448 0.541205 120.078 0.613807 120.702C0.617107 120.762 0.623707 120.824 0.633607 120.884C0.716109 121.557 0.801912 122.233 0.900914 122.903C0.900914 122.913 0.900914 122.923 0.904214 122.93C1.50648 127.103 2.40864 131.228 3.60368 135.272C3.61028 135.288 3.61688 135.305 3.62018 135.321C3.80829 135.962 4.00629 136.595 4.2076 137.226C4.2208 137.262 4.234 137.302 4.2439 137.338C4.2538 137.374 4.267 137.41 4.2802 137.45C4.46501 138.021 4.65971 138.589 4.85442 139.159C4.90392 139.301 4.95342 139.447 5.00622 139.592C5.18112 140.084 5.35933 140.575 5.54413 141.07C5.62993 141.291 5.71244 141.512 5.79494 141.737C5.95664 142.146 6.11175 142.552 6.27345 142.958C6.39555 143.265 6.52096 143.572 6.64966 143.875C6.78166 144.195 6.91367 144.509 7.04897 144.829C7.21397 145.218 7.38888 145.605 7.56048 145.994C7.66279 146.225 7.76839 146.453 7.87069 146.684C8.0819 147.149 8.2997 147.614 8.52081 148.076C8.59341 148.225 8.66271 148.373 8.73531 148.519C8.99272 149.053 9.25343 149.578 9.51743 150.103C9.56363 150.182 9.59994 150.264 9.64284 150.343C9.93984 150.924 10.2435 151.502 10.557 152.076C10.5702 152.102 10.5867 152.126 10.5966 152.155C10.6626 152.274 10.7352 152.39 10.8012 152.508L55.415 125.636L55.58 125.537C53.8211 121.827 52.7254 117.881 52.3162 113.871Z"
            fill="#93D500" />
        <path
            d="M65.1569 137.853L65.0315 137.978L28.2355 174.771C28.4236 174.946 28.6117 175.127 28.8064 175.295C29.1496 175.609 29.4995 175.916 29.846 176.223C30.0275 176.381 30.2024 176.54 30.3839 176.698C30.7997 177.058 31.2221 177.407 31.6412 177.761C31.7567 177.856 31.8656 177.949 31.9811 178.044C32.5159 178.484 33.056 178.918 33.6015 179.345C34.1229 179.757 34.6476 180.156 35.1822 180.559C35.2053 180.572 35.2218 180.585 35.2416 180.602C37.4617 182.261 39.7589 183.813 42.1256 185.255C42.2048 185.308 42.2873 185.354 42.3698 185.407C42.8219 185.674 43.2707 185.941 43.7261 186.205L44.5577 186.681C44.8217 186.833 45.0824 186.978 45.3465 187.123C45.825 187.384 46.3035 187.644 46.7853 187.898C46.8513 187.935 46.9173 187.971 46.9866 188.004C48.3231 188.704 49.6828 189.354 51.0556 189.981L52.3624 186.809L70.8693 141.872L70.9353 141.707C68.9157 140.625 66.9785 139.344 65.1569 137.853Z"
            fill="#4D5A31" />
        <path
            d="M61.3255 134.186C60.93 133.746 60.5471 133.295 60.177 132.833C59.847 132.427 59.5302 132.018 59.2233 131.602C58.8702 131.127 58.527 130.645 58.2003 130.157C57.8736 129.665 57.5502 129.17 57.2465 128.669L12.5766 155.574C13.263 156.716 13.9758 157.825 14.7085 158.92C14.7316 158.96 14.7547 159 14.7811 159.036C14.7877 159.052 14.7976 159.062 14.8075 159.079C14.8306 159.112 14.8537 159.151 14.8768 159.188C14.8801 159.191 14.8834 159.194 14.8834 159.201C14.9428 159.287 15.0022 159.373 15.0616 159.462C15.0649 159.465 15.0682 159.472 15.0748 159.478C15.0814 159.485 15.0781 159.481 15.0781 159.485C15.8536 160.63 16.6522 161.758 17.4739 162.861C17.4904 162.884 17.5102 162.907 17.5267 162.93C17.5465 162.953 17.563 162.976 17.5795 162.999C17.9393 163.471 18.2957 163.943 18.6653 164.412C18.7148 164.474 18.761 164.534 18.8138 164.593C19.19 165.078 19.5761 165.557 19.9688 166.029C20.0612 166.141 20.1569 166.253 20.2493 166.369C20.6024 166.791 20.9555 167.21 21.3152 167.626C21.4703 167.804 21.6287 167.986 21.7871 168.161C22.0941 168.51 22.3977 168.86 22.7112 169.203C22.8828 169.392 23.061 169.583 23.2359 169.771C23.3151 169.86 23.3943 169.943 23.4768 170.032C23.7045 170.279 23.9322 170.527 24.1632 170.771C24.2556 170.867 24.3546 170.962 24.447 171.061C24.8529 171.484 25.2654 171.91 25.6812 172.325L62.5333 135.48C62.1109 135.057 61.7149 134.622 61.3255 134.186Z"
            fill="#6BA43A" />
        <path
            d="M110.17 137.833C109.764 138.16 109.355 138.48 108.939 138.787L109.028 138.942L135.897 183.536C137.142 182.724 138.373 181.886 139.574 181.005C142.174 179.087 144.689 177.008 147.114 174.771L110.315 137.978L110.17 137.833Z"
            fill="#4D5A31" />
        <path
            d="M131.993 183.902L131.083 182.387L106.002 140.763C105.494 141.067 104.976 141.344 104.458 141.621C103.933 141.905 103.408 142.166 102.874 142.42C98.0554 144.704 92.8413 145.872 87.6172 145.872C84.195 145.872 80.7761 145.377 77.4695 144.39C76.9051 144.222 76.354 144.001 75.7996 143.803C75.2419 143.608 74.6776 143.436 74.1298 143.212L55.6361 188.12L54.9134 189.879L54.293 191.387L54.2897 191.393C54.3359 191.413 54.3854 191.43 54.4316 191.449C54.4844 191.469 54.5339 191.486 54.5834 191.509H54.59C54.6032 191.515 54.6164 191.519 54.6263 191.522C55.0619 191.703 55.5008 191.855 55.9397 192.027C56.4908 192.241 57.0386 192.459 57.5898 192.661C57.8736 192.763 58.1508 192.882 58.4313 192.981H58.4346C64.2303 195.026 70.2239 196.461 76.3177 197.261C76.5586 197.291 76.7929 197.324 77.0339 197.357C77.2814 197.386 77.5322 197.409 77.783 197.439C78.2516 197.492 78.7202 197.545 79.1921 197.591L79.5419 197.621C80.1194 197.677 80.6969 197.726 81.2712 197.766C81.4692 197.782 81.6672 197.789 81.8619 197.805C82.3668 197.838 82.8717 197.868 83.3766 197.891C83.6868 197.911 83.997 197.918 84.3072 197.931C84.7098 197.944 85.1092 197.96 85.5118 197.974C86.0893 197.987 86.6734 197.99 87.2542 197.993C87.3928 197.993 87.5281 197.997 87.6667 198C92.5344 198 97.402 197.594 102.217 196.786C102.296 196.772 102.378 196.759 102.461 196.749C102.969 196.66 103.477 196.565 103.986 196.472C104.276 196.416 104.57 196.36 104.854 196.304C105.151 196.241 105.451 196.182 105.748 196.116C106.243 196.013 106.738 195.904 107.236 195.789C107.325 195.769 107.414 195.753 107.504 195.726C114.823 194.023 121.892 191.383 128.532 187.889V187.885C128.967 187.658 129.393 187.397 129.825 187.159C130.34 186.879 130.852 186.585 131.366 186.291C131.72 186.09 132.079 185.902 132.432 185.691C132.436 185.687 132.439 185.684 132.442 185.684H132.446C132.452 185.681 132.455 185.678 132.462 185.674L132.469 185.668C132.472 185.668 132.475 185.664 132.479 185.664C132.485 185.661 132.488 185.658 132.495 185.654C132.515 185.641 132.535 185.631 132.554 185.618C132.667 185.549 132.782 185.483 132.898 185.414L131.993 183.902ZM65.1766 82.8469C65.5826 82.5169 65.9951 82.2001 66.4076 81.8899L66.3185 81.7381L39.4492 37.1407C38.2018 37.9559 36.9708 38.7974 35.7663 39.6785C33.1691 41.5926 30.6512 43.6683 28.2322 45.9025L65.0315 82.6984L65.1766 82.8469Z"
            fill="#93D500" />
        <path
            d="M25.6813 48.3544C25.2621 48.7735 24.8661 49.2058 24.4569 49.6283C24.051 50.054 23.6352 50.4764 23.2359 50.9054C20.5492 53.8099 18.0619 56.8926 15.7909 60.1324C15.682 60.2809 15.5764 60.4393 15.4675 60.5911C15.2167 60.9607 14.9659 61.3271 14.7217 61.6967C14.4643 62.0795 14.2102 62.4689 13.9627 62.855C13.8703 62.9969 13.7778 63.1421 13.6887 63.284C5.22403 76.5602 0.689717 91.6185 0.079202 106.802C0.0561014 107.393 0.0429011 107.984 0.0297008 108.571C0.0198005 109.158 0 109.749 0 110.337H52.1182C52.1182 109.749 52.171 109.162 52.204 108.571C52.2337 107.98 52.2403 107.39 52.2997 106.802C52.9729 100.017 55.5932 93.3907 60.1605 87.8267C60.5301 87.3746 60.9492 86.9489 61.3486 86.5133C61.7413 86.0744 62.1109 85.6223 62.5333 85.1999L25.6813 48.3544ZM133.214 35.4181C133.145 35.3752 133.069 35.3323 133 35.2894C132.541 35.0089 132.079 34.7383 131.614 34.4677C131.347 34.3126 131.076 34.1608 130.809 34.009C130.535 33.8572 130.268 33.7054 129.994 33.5568C129.522 33.3004 129.05 33.0452 128.578 32.7912C128.502 32.7549 128.429 32.7153 128.353 32.6757C125.298 31.0785 122.159 29.6727 118.955 28.4516C118.872 28.4186 118.79 28.3856 118.707 28.3559C118.008 28.0952 117.308 27.8345 116.602 27.5903C110.907 25.6038 105.023 24.2071 99.0421 23.4223L98.3095 23.3233C98.062 23.2936 97.8178 23.2705 97.5736 23.2441C97.1017 23.188 96.633 23.1352 96.1578 23.089C96.0291 23.0758 95.8971 23.0692 95.7618 23.0527C95.2041 23.0032 94.6398 22.9537 94.0788 22.9108L93.4221 22.8712C92.9436 22.8415 92.4551 22.8052 91.9766 22.7854C91.7192 22.7722 91.4618 22.7623 91.2077 22.7557V74.9927C93.8874 75.2699 96.5439 75.8408 99.1213 76.7153L137.571 38.2727C136.142 37.2826 134.7 36.319 133.214 35.4181Z"
            fill="#4D5A31" />
        <path
            d="M85.9078 22.7127C85.3171 22.7259 84.7263 22.7259 84.1389 22.749C80.4527 22.8975 76.7731 23.2737 73.1233 23.8875C73.044 23.9007 72.9648 23.9139 72.8823 23.9271C72.3708 24.0162 71.8626 24.1086 71.3544 24.2043C71.0673 24.2604 70.7769 24.3132 70.4865 24.3693C70.1862 24.4287 69.8892 24.4914 69.5889 24.5574C69.0939 24.6597 68.5988 24.7686 68.1071 24.8841C68.0147 24.9006 67.9256 24.9237 67.8365 24.9435C60.5209 26.6516 53.4533 29.2865 46.8051 32.7845C46.3728 33.0156 45.9504 33.2763 45.5181 33.5106C45.0032 33.7944 44.4884 34.0848 43.9769 34.3785C43.5974 34.5996 43.2113 34.8009 42.8318 35.0253C42.8285 35.0286 42.8219 35.0319 42.8186 35.0319C42.7922 35.0484 42.7658 35.0649 42.7394 35.0781C42.6404 35.1408 42.5381 35.1903 42.4391 35.2497L42.4424 35.2563L43.3565 36.7711L69.3447 79.913C69.8529 79.6094 70.371 79.3289 70.8891 79.0517C71.4105 78.7712 71.9385 78.5072 72.4698 78.2564C76.1426 76.5035 80.0901 75.3972 84.1389 74.986C84.7263 74.9266 85.3138 74.8771 85.9045 74.8474C86.4919 74.8177 87.0826 74.788 87.6733 74.788V22.6764C87.0826 22.6764 86.4952 22.7028 85.9078 22.7127Z"
            fill="#6BA43A" />
        <path
            d="M175.238 106.03C175.211 105.561 175.185 105.096 175.152 104.624C175.14 104.391 175.124 104.158 175.106 103.925C175.069 103.373 175.023 102.822 174.97 102.271C174.961 102.129 174.947 101.987 174.934 101.845C174.875 101.228 174.809 100.615 174.736 100.001C174.73 99.9512 174.726 99.9017 174.72 99.8522L174.71 99.7829C174.631 99.1196 174.541 98.4563 174.449 97.7963L174.439 97.7336C173.838 93.568 172.938 89.451 171.746 85.4144C171.736 85.3847 171.73 85.3616 171.72 85.3352C171.532 84.7049 171.337 84.0811 171.142 83.4574C171.113 83.3749 171.086 83.2924 171.06 83.2099C170.875 82.6456 170.687 82.0846 170.492 81.5236L170.334 81.0682C170.162 80.583 169.984 80.0979 169.806 79.6128C169.717 79.3818 169.631 79.1508 169.539 78.9231C169.387 78.5205 169.232 78.1212 169.07 77.7252C168.945 77.4051 168.816 77.0916 168.687 76.7814C168.558 76.4678 168.426 76.1609 168.298 75.8507C168.126 75.4547 167.951 75.0587 167.776 74.666C167.677 74.4449 167.578 74.2205 167.476 73.9961C167.261 73.5275 167.04 73.0556 166.819 72.5869C166.75 72.4483 166.681 72.3031 166.611 72.1612C166.354 71.6266 166.09 71.0887 165.819 70.5607C165.783 70.4881 165.743 70.4122 165.707 70.3396C165.407 69.7555 165.097 69.1681 164.786 68.5905C164.773 68.5707 164.763 68.5476 164.75 68.5278C163.235 65.7428 161.57 63.0416 159.764 60.436L121.304 98.8952C122.179 101.473 122.747 104.129 123.024 106.806H175.271C175.258 106.545 175.251 106.284 175.238 106.03Z"
            fill="#4D5A31" />
        <path
            d="M123.228 110.337C123.228 110.927 123.172 111.515 123.143 112.105C123.113 112.696 123.103 113.287 123.044 113.871C122.37 120.659 119.753 127.286 115.186 132.853C114.817 133.305 114.397 133.728 113.998 134.166C113.602 134.602 113.236 135.054 112.813 135.477L149.665 172.322C150.085 171.903 150.477 171.471 150.886 171.045C151.296 170.619 151.711 170.2 152.107 169.768C154.833 166.814 157.328 163.725 159.572 160.514C159.665 160.386 159.747 160.26 159.836 160.135C160.11 159.742 160.374 159.343 160.645 158.947C160.879 158.59 161.113 158.237 161.341 157.878C161.457 157.706 161.569 157.528 161.678 157.356C170.129 144.087 174.654 129.045 175.261 113.871C175.284 113.284 175.297 112.693 175.307 112.102C175.32 111.515 175.337 110.927 175.337 110.337H123.228Z"
            fill="#6BA43A" />
        <path
            d="M190.821 7.19904C181.287 -2.3349 165.829 -2.3349 156.295 7.19904C148.689 14.8024 147.167 26.1712 151.698 35.2993L98.5141 88.4801C89.3861 83.9524 78.014 85.4704 70.4073 93.0738C60.8733 102.608 60.8766 118.065 70.4073 127.599C79.9445 137.133 95.4054 137.13 104.939 127.599C112.546 119.993 114.064 108.624 109.533 99.4958L162.717 46.3182C171.849 50.8459 183.214 49.3279 190.821 41.7212C200.355 32.1906 200.355 16.733 190.821 7.19904Z"
            fill="#424143" />
    </g>
    <defs>
        <clipPath id="clip0_2_35">
            <rect width="198.13" height="197.58" fill="white" />
        </clipPath>
    </defs>
</svg>