<svg height="70" viewBox="0 0 70 70" width="70" xmlns="http://www.w3.org/2000/svg" xmlns:xlink="http://www.w3.org/1999/xlink"><linearGradient id="a" x1="8.387196%" x2="91.612804%" y1="0%" y2="100%"><stop offset="0" stop-color="#a4aebe"/><stop offset="1" stop-color="#2d53f5"/></linearGradient><path d="m21.401794 1.22384399c2.8362318-1.63173632 6.3602918-1.63184765 9.196412 0l16.7949957 9.66339261c2.841588 1.6349648 4.6067983 4.6839082 4.6067983 7.9568437v19.3117559c0 3.2730469-1.7652103 6.3219902-4.6069099 7.9568437l-16.7948841 9.6633926c-2.8357854 1.631625-6.3597339 1.6321816-9.196412 0l-16.79499572-9.6633926c-2.84158798-1.6348535-4.60679828-4.6837968-4.60679828-7.9568437v-19.3117559c0-3.2730469 1.7652103-6.3219902 4.60690987-7.9568437zm6.9667725 3.85841016c-1.4604635-.84041602-3.276-.84075-4.737133 0l-16.79488414 9.66339255c-1.46381116.842086-2.37303005 2.4125918-2.37303005 4.0984336v19.3117559c0 1.6859531.90921889 3.2563476 2.37291846 4.0985449l16.79499573 9.6633926c1.4610214.84075 3.276.84075 4.7370214 0l16.7949957-9.6633926c1.4638112-.8420859 2.3730301-2.4125918 2.3730301-4.0985449v-19.3117559c0-1.6859531-.9092189-3.2563476-2.3729185-4.0985449zm9.4827468 28.18917185c1.2326009 0 2.2317597.9969434 2.2317597 2.2268965s-.9992704 2.2268965-2.2317597 2.2268965h-10.0423605c-1.2326009 0-2.2317597-.9969434-2.2317597-2.2268965s.9991588-2.2268965 2.2317597-2.2268965zm-25.4063519-13.208414c.7961802-.9389414 2.2045322-1.0559473 3.1453304-.2615098l8.288867 6.9984199c1.0514936.8878418 1.0545064 2.5096699 0 3.399961l-8.288867 6.9984199c-.9385665.7925449-2.3472532.6795468-3.1453304-.2613985-.7960687-.9389414-.6787897-2.3440136.2621201-3.1384511l6.275485-5.2984395-6.275485-5.2985508c-.9409098-.7944375-1.0583004-2.1995097-.2621201-3.1384511z" fill="url(#a)" transform="translate(9 7)"/></svg>