<svg xmlns="http://www.w3.org/2000/svg" width="70" height="70"><linearGradient id="a" x1="8.387%" x2="91.613%" y1="0%" y2="100%"><stop offset="0" stop-color="#a4aebe"/><stop offset="1" stop-color="#2d53f5"/></linearGradient><path fill="url(#a)" d="M21.402 1.224a9.25 9.25 0 0 1 9.196 0l16.795 9.663A9.206 9.206 0 0 1 52 18.844v19.312a9.206 9.206 0 0 1-4.607 7.957l-16.795 9.663a9.25 9.25 0 0 1-9.196 0L4.607 46.113A9.206 9.206 0 0 1 0 38.156V18.844a9.206 9.206 0 0 1 4.607-7.957zm6.967 3.858a4.765 4.765 0 0 0-4.738 0L6.837 14.746a4.742 4.742 0 0 0-2.373 4.098v19.312c0 1.686.909 3.256 2.372 4.098l16.795 9.664c1.461.84 3.276.84 4.737 0l16.795-9.664a4.742 4.742 0 0 0 2.373-4.098V18.844a4.741 4.741 0 0 0-2.372-4.098zm9.482 28.19c1.233 0 2.232.996 2.232 2.226s-1 2.227-2.232 2.227H27.81c-1.233 0-2.232-.997-2.232-2.227s1-2.227 2.232-2.227zm-25.406-13.21a2.235 2.235 0 0 1 3.145-.261l8.29 6.998a2.225 2.225 0 0 1 0 3.4l-8.29 6.998a2.235 2.235 0 0 1-3.145-.261 2.224 2.224 0 0 1 .262-3.139l6.276-5.298-6.276-5.299a2.224 2.224 0 0 1-.262-3.138z" transform="translate(9 7)"/></svg>