<?xml version="1.0" encoding="UTF-8"?>
<svg width="76px" height="76px" viewBox="0 0 76 76" version="1.1" xmlns="http://www.w3.org/2000/svg" xmlns:xlink="http://www.w3.org/1999/xlink">
    <title>outsource-auth-sell-decision-to-company</title>
    <defs>
        <linearGradient x1="-3.88578059e-14%" y1="100%" x2="100%" y2="2.77555756e-15%" id="linearGradient-1">
            <stop stop-color="#DDE7EC" offset="0%"></stop>
            <stop stop-color="#E7F6FD" offset="100%"></stop>
        </linearGradient>
    </defs>
    <g id="outsource-auth-sell-decision-to-company" stroke="none" stroke-width="1" fill="none" fill-rule="evenodd">
        <rect id="Rectangle" fill="url(#linearGradient-1)" x="0" y="0" width="76" height="76" rx="12"></rect>
        <g id="building2-fill" transform="translate(19, 19)">
            <path d="M10.0139646,18.236052 L4.00558583,21.236052 L4.00558583,33.9999828 L10.0139646,33.9999828 L10.0139646,36.0000515 C10.0139646,37.0984688 10.9021632,37.990984 12,37.9999828 L2.00279292,37.9999828 C0.896680876,37.9999828 0,37.1045532 0,35.9999828 L0,19.9999843 C0,19.2424402 0.428602432,18.5499139 1.10711671,18.2111297 L10.0139646,13.763916 L10.0139646,18.236052 Z" id="Subtract" fill="#0369A1" fill-rule="nonzero"></path>
            <path d="M29,0.25 C29.2980003,0.0840000063 29.6599998,0 30,0 L36,0 C37.1039963,0 38,0.896000981 38,2 L38,36 C38,37.1040001 37.1039963,38 36,38 C35.9969737,37.992691 33.3264008,37.9832509 27.9882813,37.9716797 L27.9882813,35.9550171 C27.9882813,34.8504486 27.0928516,33.9550171 25.9882813,33.9550171 L21.9882813,33.9550171 C20.8837118,33.9550171 19.9882813,34.8504486 19.9882813,35.9550171 L19.9882813,37.9833374 L12,38 C10.8959991,38 10,37.1040001 10,36 L10,12 C10,11.2740011 10.3660002,10.6020012 11,10.250001 L29,0.25 Z M19.9882813,27.9828491 C21.0928507,27.9828491 21.9882813,27.0874195 21.9882813,25.9828491 C21.9882813,24.8782787 21.0928507,23.9828491 19.9882813,23.9828491 C18.8837118,23.9828491 17.9882813,24.8782787 17.9882813,25.9828491 C17.9882813,27.0874195 18.8837118,27.9828491 19.9882813,27.9828491 Z M29.9882813,25.9828491 C29.9882813,27.0874195 29.0928516,27.9828491 27.9882813,27.9828491 C26.8837109,27.9828491 25.9882813,27.0874195 25.9882813,25.9828491 C25.9882813,24.8782787 26.8837109,23.9828491 27.9882813,23.9828491 C29.0928516,23.9828491 29.9882813,24.8782787 29.9882813,25.9828491 Z M27.9882813,19.9828491 C29.0928516,19.9828491 29.9882813,19.0874195 29.9882813,17.9828491 C29.9882813,16.8782787 29.0928516,15.9828491 27.9882813,15.9828491 C26.8837109,15.9828491 25.9882813,16.8782787 25.9882813,17.9828491 C25.9882813,19.0874195 26.8837109,19.9828491 27.9882813,19.9828491 Z M21.9882813,17.9828491 C21.9882813,19.0874195 21.0928507,19.9828491 19.9882813,19.9828491 C18.8837118,19.9828491 17.9882813,19.0874195 17.9882813,17.9828491 C17.9882813,16.8782787 18.8837118,15.9828491 19.9882813,15.9828491 C21.0928507,15.9828491 21.9882813,16.8782787 21.9882813,17.9828491 Z M27.9882813,11.9828491 C29.0928516,11.9828491 29.9882813,11.0874186 29.9882813,9.98284912 C29.9882813,8.87827969 29.0928516,7.98284912 27.9882813,7.98284912 C26.8837109,7.98284912 25.9882813,8.87827969 25.9882813,9.98284912 C25.9882813,11.0874186 26.8837109,11.9828491 27.9882813,11.9828491 Z" id="Subtract" fill="#0EA5E9"></path>
        </g>
    </g>
</svg>