<svg xmlns="http://www.w3.org/2000/svg" width="70" height="70"><linearGradient id="a" x1="0%" x2="100%" y1="15.513%" y2="84.487%"><stop offset="0" stop-color="#a4aebe"/><stop offset="1" stop-color="#2d53f5"/></linearGradient><path fill="url(#a)" fill-rule="evenodd" d="M31.467 0a3.94 3.94 0 0 1 2.78 1.148A3.913 3.913 0 0 1 35.4 3.92v11.759l15.733.001a3.94 3.94 0 0 1 2.782 1.148 3.913 3.913 0 0 1 1.152 2.772l-.001 25.479 1.967.001c1.087 0 1.967.877 1.967 1.96S58.12 49 57.033 49h-23.6l-.025-.001H5.924L5.9 49l-.025-.001L1.967 49C.88 49 0 48.123 0 47.04s.88-1.96 1.967-1.96l1.966-.001V3.92c0-1.04.415-2.037 1.152-2.772A3.94 3.94 0 0 1 7.867 0zm19.666 19.6L35.4 19.599v25.48h15.733zM31.467 3.92h-23.6l-.001 41.159h23.6zm-9.834 31.36c1.087 0 1.967.877 1.967 1.96s-.88 1.96-1.967 1.96h-7.866c-1.086 0-1.967-.877-1.967-1.96s.88-1.96 1.967-1.96zm23.6 0c1.087 0 1.967.877 1.967 1.96s-.88 1.96-1.967 1.96H41.3c-1.086 0-1.967-.877-1.967-1.96s.88-1.96 1.967-1.96zm-19.666-9.8c1.086 0 1.966.877 1.966 1.96s-.88 1.96-1.966 1.96H17.7c-1.086 0-1.967-.877-1.967-1.96s.88-1.96 1.967-1.96zm19.666 0c1.087 0 1.967.877 1.967 1.96s-.88 1.96-1.967 1.96H41.3c-1.086 0-1.967-.877-1.967-1.96s.88-1.96 1.967-1.96zM21.633 9.8c1.087 0 1.967.878 1.967 1.96s-.88 1.96-1.967 1.96h-7.866c-1.086 0-1.967-.878-1.967-1.96s.88-1.96 1.967-1.96z" transform="translate(6 11)"/></svg>