<svg height="54" viewBox="0 0 54 54" width="54" xmlns="http://www.w3.org/2000/svg"><g fill="none" fill-rule="evenodd"><rect fill="#f1f5f9" height="54" rx="5" width="54"/><g fill-rule="nonzero" transform="translate(17 12)"><path d="m2.41666667 0h16.11111113v3.15789474h-16.11111113z" fill="#a5b4fc"/><path d="m20.9444444 28.4210526h-20.9444444v-24.47368418c0-.86842105.725-1.57894737 1.61111111-1.57894737h17.72222219c.8861111 0 1.6111111.71052632 1.6111111 1.57894737z" fill="#4338ca"/><path d="m0 28.4210526h20.9444444v1.5789474h-20.9444444z" fill="#6366f1"/><path d="m8.86111111 22.1052632h3.22222219v4.7368421h-3.22222219zm-5.63888889 0h3.22222222v4.7368421h-3.22222222zm11.27777778 0h3.2222222v4.7368421h-3.2222222zm-5.63888889-11.0526316h3.22222219v3.1578947h-3.22222219zm-5.63888889 0h3.22222222v3.1578947h-3.22222222zm11.27777778 0h3.2222222v3.1578947h-3.2222222zm-5.63888889 5.5263158h3.22222219v3.1578947h-3.22222219zm-5.63888889 0h3.22222222v3.1578947h-3.22222222zm11.27777778 0h3.2222222v3.1578947h-3.2222222zm-5.63888889-11.05263161h3.22222219v3.15789474h-3.22222219zm-5.63888889 0h3.22222222v3.15789474h-3.22222222zm11.27777778 0h3.2222222v3.15789474h-3.2222222z" fill="#a5b4fc"/></g></g></svg>