<svg height="70" viewBox="0 0 70 70" width="70" xmlns="http://www.w3.org/2000/svg" xmlns:xlink="http://www.w3.org/1999/xlink"><linearGradient id="a" x1="0%" x2="100%" y1="15.512784%" y2="84.487216%"><stop offset="0" stop-color="#a4aebe"/><stop offset="1" stop-color="#2d53f5"/></linearGradient><path d="m31.4666667 0c1.04312 0 2.0435633.4129916 2.78126 1.1481484.7376966.7351372 1.1520733 1.7322088 1.1520733 2.7718516v11.759l15.7333333.001c1.04312 0 2.0435634.412972 2.78126 1.148168.7376967.735196 1.1520734 1.732248 1.1520734 2.771832l-.0006667 25.479 1.9673333.001c1.08619 0 1.9666667.877492 1.9666667 1.96s-.8804767 1.96-1.9666667 1.96l-23.5748472-.000157c-.0083718.0001046-.0167561.000157-.0251528.000157l-.0253333-.001-27.48368764.0008533c-.00809245.0000977-.01619666.0001467-.02431236.0001467l-.025-.001-3.90833333.001c-1.08615067 0-1.96666667-.877492-1.96666667-1.96s.880516-1.96 1.96666667-1.96l1.96633333-.001.00033333-41.159c0-1.0396428.41439634-2.0367144 1.15205367-2.7718516.73763767-.7351568 1.73810067-1.1481484 2.78127967-1.1481484zm19.6666666 19.6-15.7333333-.001v25.48h15.733zm-19.6666666-15.68h-23.60000003l-.00066667 41.159h23.6zm-9.8333334 31.36c1.08619 0 1.9666667.877492 1.9666667 1.96s-.8804767 1.96-1.9666667 1.96h-7.8666666c-1.0861507 0-1.9666667-.877492-1.9666667-1.96s.880516-1.96 1.9666667-1.96zm23.6 0c1.08619 0 1.9666667.877492 1.9666667 1.96s-.8804767 1.96-1.9666667 1.96h-3.9333333c-1.08619 0-1.9666667-.877492-1.9666667-1.96s.8804767-1.96 1.9666667-1.96zm-19.6666666-9.8c1.08619 0 1.9666666.877492 1.9666666 1.96s-.8804766 1.96-1.9666666 1.96h-7.8666667c-1.0861507 0-1.9666667-.877492-1.9666667-1.96s.880516-1.96 1.9666667-1.96zm19.6666666 0c1.08619 0 1.9666667.877492 1.9666667 1.96s-.8804767 1.96-1.9666667 1.96h-3.9333333c-1.08619 0-1.9666667-.877492-1.9666667-1.96s.8804767-1.96 1.9666667-1.96zm-23.6-15.68c1.08619 0 1.9666667.8775312 1.9666667 1.96s-.8804767 1.96-1.9666667 1.96h-7.8666666c-1.0861507 0-1.9666667-.8775312-1.9666667-1.96s.880516-1.96 1.9666667-1.96z" fill="url(#a)" fill-rule="evenodd" transform="translate(6 11)"/></svg>