<?xml version="1.0" encoding="UTF-8"?>
<svg width="76px" height="76px" viewBox="0 0 76 76" version="1.1" xmlns="http://www.w3.org/2000/svg" xmlns:xlink="http://www.w3.org/1999/xlink">
    <title>passwordless-sso-dark</title>
    <defs>
        <linearGradient x1="2.77555756e-15%" y1="100%" x2="100%" y2="2.77555756e-15%" id="linearGradient-1">
            <stop stop-color="#112C38" offset="0%"></stop>
            <stop stop-color="#19555B" offset="100%"></stop>
        </linearGradient>
        <path d="M50,19 C51.1045695,19 52,19.8954305 52,21 L52,55 C52,56.1045695 51.1045695,57 50,57 L26,57 C24.8954305,57 24,56.1045695 24,55 L24,21 C24,19.8954305 24.8954305,19 26,19 L50,19 Z M38,31 C35.7908001,31 34,32.7899995 34,35 C34,36.4199995 34.8856001,37.4140229 36,38.1240233 L36,43 C36,44.1039989 36.8954,45 38,45 C39.104599,45 40,44.1039989 40,43 L40,38.1240233 C41.1145992,37.4160237 42,36.4199995 42,35 C42,32.7899995 40.2091999,31 38,31 Z" id="path-2"></path>
        <filter x="-87.5%" y="-61.8%" width="275.0%" height="228.9%" filterUnits="objectBoundingBox" id="filter-3">
            <feOffset dx="0" dy="1" in="SourceAlpha" result="shadowOffsetOuter1"></feOffset>
            <feGaussianBlur stdDeviation="8" in="shadowOffsetOuter1" result="shadowBlurOuter1"></feGaussianBlur>
            <feColorMatrix values="0 0 0 0 0.117647059   0 0 0 0 0.160784314   0 0 0 0 0.231372549  0 0 0 0.239483173 0" type="matrix" in="shadowBlurOuter1"></feColorMatrix>
        </filter>
    </defs>
    <g id="passwordless-sso-dark" stroke="none" stroke-width="1" fill="none" fill-rule="evenodd">
        <rect id="Rectangle-Copy-8" fill="url(#linearGradient-1)" x="0" y="0" width="76" height="76" rx="12"></rect>
        <g id="Combined-Shape">
            <use fill="black" fill-opacity="1" filter="url(#filter-3)" xlink:href="#path-2"></use>
            <use fill="#5EEAD4" fill-rule="evenodd" xlink:href="#path-2"></use>
        </g>
    </g>
</svg>