<svg xmlns="http://www.w3.org/2000/svg" width="70" height="70"><linearGradient id="a" x1="11.161%" x2="88.839%" y1="0%" y2="100%"><stop offset="0" stop-color="#a4aebe"/><stop offset="1" stop-color="#2d53f5"/></linearGradient><path fill="url(#a)" d="M50.027 29.16c1.09 0 1.973.88 1.973 1.966v25.907A1.97 1.97 0 0 1 50.027 59H1.973A1.97 1.97 0 0 1 0 57.033V31.126a1.97 1.97 0 0 1 1.973-1.967zm-1.973 3.932H3.946v21.975h44.108zm-35.783 5.6c2.98 0 5.405 2.417 5.405 5.388s-2.425 5.388-5.405 5.388c-2.98 0-5.406-2.417-5.406-5.388s2.425-5.388 5.406-5.388zm13.73 0c2.98 0 5.406 2.417 5.406 5.388S28.98 49.468 26 49.468s-5.405-2.417-5.405-5.388S23.02 38.692 26 38.692zm13.728 0c2.98 0 5.406 2.417 5.406 5.388s-2.425 5.388-5.406 5.388c-2.98 0-5.404-2.417-5.404-5.388s2.424-5.388 5.404-5.388zm-27.458 3.933a1.46 1.46 0 0 0-1.46 1.455 1.46 1.46 0 0 0 2.919 0 1.46 1.46 0 0 0-1.46-1.455zm13.73 0a1.46 1.46 0 0 0-1.46 1.455 1.46 1.46 0 0 0 2.92 0A1.46 1.46 0 0 0 26 42.625zm13.728 0c-.803 0-1.458.653-1.458 1.455a1.459 1.459 0 0 0 2.919 0 1.46 1.46 0 0 0-1.46-1.455zM26 0c-4.07 0-7.38 3.3-7.38 7.358V8.71h-1.874a1.97 1.97 0 0 0-1.973 1.966v12.797a1.97 1.97 0 0 0 1.973 1.967h18.508a1.97 1.97 0 0 0 1.973-1.967V10.676a1.97 1.97 0 0 0-1.973-1.966H33.38V7.358C33.381 3.3 30.07 0 26.001 0zm-3.435 7.358a3.436 3.436 0 0 1 6.871 0V8.71h-6.87zm10.716 14.149H18.72v-8.864h14.56z" transform="translate(9 6)"/></svg>