<?xml version="1.0" encoding="UTF-8"?>
<svg width="54px" height="54px" viewBox="0 0 54 54" version="1.1" xmlns="http://www.w3.org/2000/svg" xmlns:xlink="http://www.w3.org/1999/xlink">
    <title>passwordless-authentication-image</title>
    <g id="passwordless-authentication-image" stroke="none" stroke-width="1" fill="none" fill-rule="evenodd">
        <rect id="Rectangle" fill="#F1F5F9" x="0" y="0" width="54" height="54" rx="5"></rect>
        <path d="M34.6865764,13 C36.1165994,13 37.2758621,14.1592627 37.2758621,15.5892857 L37.2758621,38.4107143 C37.2758621,39.8407373 36.1165994,41 34.6865764,41 L19.5892857,41 C18.1592627,41 17,39.8407373 17,38.4107143 L17,15.5892857 C17,14.1592627 18.1592627,13 19.5892857,13 L34.6865764,13 Z M31.9091797,24.5181949 C31.3435933,23.9714608 30.3914552,23.9714608 29.8258688,24.5181949 L26.5662758,27.5931975 L24.7383402,25.8821443 C24.1727533,25.3354103 23.208064,25.3354103 22.6424771,25.8821443 C22.0768901,26.4288783 22.0604507,27.3402243 22.6260377,27.8869585 L25.4630527,30.5708779 C26.0286397,31.1176117 27.0268307,31.2120556 27.5924177,30.6653218 L31.8460209,26.6060341 C32.411608,26.0593002 32.4747667,25.0649289 31.9091797,24.5181949 Z" id="Combined-Shape" fill="#14B8A6"></path>
    </g>
</svg>