<svg height="70" viewBox="0 0 70 70" width="70" xmlns="http://www.w3.org/2000/svg" xmlns:xlink="http://www.w3.org/1999/xlink"><linearGradient id="a" x1="11.160586%" x2="88.839414%" y1="0%" y2="100%"><stop offset="0" stop-color="#a4aebe"/><stop offset="1" stop-color="#2d53f5"/></linearGradient><path d="m50.0271584 29.159098c1.0904488 0 1.9728416.880575 1.9728416 1.9666667v25.9075686c0 1.0860917-.8823928 1.9666667-1.9728613 1.9666667h-48.05429714c-1.08950175 0-1.97284156-.880575-1.97284156-1.9666667v-25.9075686c0-1.0860917.88333981-1.9666667 1.97284156-1.9666667zm-1.9728415 3.9333333h-44.10863378v21.9742354h44.10863378zm-35.7837751 5.5994147c2.9804704 0 5.4050927 2.4170333 5.4050927 5.388175s-2.424642 5.388175-5.4050927 5.388175c-2.98045062 0-5.40509263-2.4170333-5.40509263-5.388175s2.42462228-5.388175 5.40509263-5.388175zm13.7299317 0c2.9804506 0 5.4060396 2.4170333 5.4060396 5.388175s-2.425589 5.388175-5.4060396 5.388175c-2.9804507 0-5.4050927-2.4170333-5.4050927-5.388175s2.424642-5.388175 5.4050927-5.388175zm13.7289847 0c2.9804506 0 5.4060396 2.4170333 5.4060396 5.388175s-2.425589 5.388175-5.4060396 5.388175c-2.9804507 0-5.404126-2.4170333-5.404126-5.388175s2.4236753-5.388175 5.404126-5.388175zm-27.4589164 3.933353c-.8043472 0-1.4594095.6529923-1.4594095 1.4548417 0 .8018493.6550426 1.4548416 1.4594095 1.4548416.804367 0 1.4594096-.6529923 1.4594096-1.4548416 0-.8018494-.6550623-1.4548417-1.4594096-1.4548417zm13.7299317 0c-.8043473 0-1.4594096.6529923-1.4594096 1.4548417 0 .8018493.6550623 1.4548416 1.4594096 1.4548416.8053139 0 1.4603565-.6529923 1.4603565-1.4548416 0-.8018494-.6550426-1.4548417-1.4603565-1.4548417zm13.7289847 0c-.8034003 0-1.4584429.6529923-1.4584429 1.4548417 0 .8018493.6550426 1.4548416 1.4584429 1.4548416.8053139 0 1.4603565-.6529923 1.4603565-1.4548416 0-.8018494-.6550426-1.4548417-1.4603565-1.4548417zm-13.7289847-42.625199c-4.0699524 0-7.3808146 3.30049933-7.3808146 7.357713v1.35208333h-1.8736273c-1.0895018 0-1.9728416.880575-1.9728416 1.96666667v12.7967853c0 1.0860917.8833398 1.9666667 1.9728416 1.9666667h18.5079171c1.0904487 0 1.9728416-.880575 1.9728416-1.9666667v-12.7967853c0-1.08609167-.8823929-1.96666667-1.9728416-1.96666667h-1.8726606v-1.35208333c.0000197-4.05721367-3.3118289-7.357713-7.3808146-7.357713zm-3.4351315 7.357713c0-1.88792133 1.5412825-3.42437967 3.4351315-3.42437967s3.4351314 1.53645834 3.4351314 3.42437967v1.35208333h-6.8702629zm10.7157652 14.1488687h-14.5622341v-8.863452h14.5622341z" fill="url(#a)" transform="translate(9 6)"/></svg>