<svg height="54" viewBox="0 0 54 54" width="54" xmlns="http://www.w3.org/2000/svg"><g fill="none" fill-rule="evenodd"><rect fill="#f1f5f9" height="54" rx="5" width="54"/><g fill-rule="nonzero" transform="translate(11 15)"><path d="m27.7189565 1.38888889h-2.5690435l-4.2803478 9.72222221c0 3.0680556 2.4918261 5.5555556 5.5652174 5.5555556s5.5652174-2.4875 5.5652174-5.5555556zm-4.5565217 9.72222221 3.2716522-7.28472221 3.2187826 7.28472221z" fill="#94a3b8"/><path d="m11.1304348 11.1111111-4.2810435-9.72222221h-2.56973913l-4.27965217 9.72222221c0 3.0680556 2.49182609 5.5555556 5.56521739 5.5555556 3.07339131 0 5.56521741-2.4875 5.56521741-5.5555556zm-8.83756523 0 3.27165217-7.28472221 3.21878261 7.28472221z" fill="#4338ca"/><path d="m17.3913043 5.18402778c.832-.48055556 1.3913044-1.37777778 1.3913044-2.40625 0-1.53402778-1.245913-2.77777778-2.7826087-2.77777778s-2.7826087 1.24375-2.7826087 2.77777778c0 1.02847222.5593044 1.92569444 1.3913044 2.40625v15.83888892l-6.26086961 3.9770833h15.30434781l-6.2608696-3.9770833z" fill="#1e293b"/><path d="m13.2173913 2.77777778c0 .50833333.1467826.97916666.386087 1.38888889h4.7930434c.2393044-.40972223.386087-.88055556.386087-1.38888889 0-.50833334-.1467826-.97916667-.386087-1.38888889h-4.7937391c-.2386087.40972222-.3853913.88055555-.3853913 1.38888889z" fill="#1e293b"/><path d="m26.2810435 4.16666667h.3033043 2.3554783l-1.2208696-2.77777778h-2.5697391l-1.2222609 2.77777778z" fill="#eb7900"/><g fill="#1e293b"><path d="m5.456 4.16666667h.30330435 2.35547826l-1.22086957-2.77777778h-2.56973913l-1.22295652 2.77777778z"/><path d="m28.9398261 4.16666667h-24.41808697v-2.77777778h23.19721737z"/></g></g></g></svg>