<svg height="70" viewBox="0 0 70 70" width="70" xmlns="http://www.w3.org/2000/svg" xmlns:xlink="http://www.w3.org/1999/xlink"><linearGradient id="a" x1="0%" x2="100%" y1="10.165385%" y2="89.834615%"><stop offset="0" stop-color="#a4aebe"/><stop offset="1" stop-color="#2d53f5"/></linearGradient><path d="m60 32.8009859c-.0010436-.0512695-.0033325-.1029966-.0083678-.154266-.0009156-.0119019-.0027467-.0228882-.0036621-.0347901-.0054933-.0466917-.0123597-.0929257-.0215149-.1396176-.0018311-.0100707-.0041198-.0201416-.0064087-.03067-.0091553-.0416564-.0201416-.0833129-.0320434-.1245115-.0045777-.0160217-.009613-.0325011-.0146484-.0485229-.0132751-.0407408-.0279235-.0814818-.0444031-.1217649l-.0041198-.0105285c-.001831-.0045776-.0036621-.0086975-.0054931-.0128173l-10.5372395-25.75784914c-.0004578-.00183093-.0013732-.0036621-.0022888-.0050353-.0077819-.01922609-.0164795-.03707875-.0251769-.0558471-.0132752-.02883897-.0265503-.05767804-.0411987-.08560166-.009613-.0183105-.0196838-.03616316-.0297545-.05401594-.0169372-.02975454-.03479-.05859362-.0531005-.0874327-.0086975-.01373282-.0178528-.0279235-.027008-.04165643-.0288391-.04211406-.0590514-.08285502-.0910948-.12176482-.0018311-.00228879-.0036621-.00411984-.0054932-.00640874-.0311278-.03707875-.0636289-.07278418-.0975034-.10711641-.0105286-.01052857-.021057-.02059929-.0315856-.03112786-.027008-.02609245-.0544738-.05081169-.0828551-.07507309-.0123595-.01052857-.0242614-.02105714-.036621-.03067013-.0338744-.02746576-.0686644-.0535582-.1043698-.07827745-.0064088-.00457756-.0128175-.00961298-.0196838-.01419055-.0402832-.02700803-.0819396-.05172727-.1240538-.07553082-.0173949-.0096131-.0347899-.0183105-.052185-.02700802-.0279235-.01419068-.0563047-.0279235-.084686-.04074097-.019226-.00869741-.0384521-.01739493-.0581359-.02517686-.0334167-.01373294-.0677488-.02563471-.102081-.0375366-.0173951-.00549315-.0343323-.01190177-.0517273-.01693719-.0434874-.01327509-.0878904-.02471913-.1327511-.03433223-.0178528-.00366211-.0361633-.00686647-.0544738-.01007072-.0357054-.00686647-.071411-.01235963-.108032-.0169372-.0169372-.00183116-.0338744-.00411995-.0508116-.00549326-.0531006-.00503531-.1062009-.00823967-.1597592-.00823967h-10.8869702c-.7823164-3.02901572-3.5385056-5.27342624-6.8083045-5.27342624-3.2702567 0-6.0264459 2.24441052-6.8087623 5.27342624h-10.8865125c-.0540159 0-.1071164.00320436-.1602168.00823967-.0173951.00137331-.0343323.0036621-.0512695.00549326-.0361632.00457757-.0723265.01007073-.108032.01647934-.0183105.00366211-.0361632.00640874-.0544737.01052858-.044403.0096131-.0888059.02105714-.1322934.03387449-.0178528.00549316-.03479.01144404-.052185.01739493-.0343323.01144404-.0682066.02380366-.1016233.03707875-.0196838.00823978-.0389099.01647957-.0581359.02517697-.0288391.01281736-.0567626.0265503-.0846861.04074085-.017395.00915538-.0352478.01785278-.052185.02746588-.0425719.02380355-.0842283.04852279-.1245114.07553082-.0064086.00457757-.0128174.00961299-.0196838.01419055-.0357055.02471925-.0704954.05081169-.1043698.07781972-.0123596.01007072-.0242615.02059929-.0361633.03067013-.0283813.02426139-.0558471.04943837-.0828551.07553082-.0105285.01007072-.0215148.02014155-.0315856.03067013-.0338744.03478996-.0663756.07003766-.0975035.10757414-.001831.00183117-.0036621.00411995-.0054931.005951-.0320433.03936754-.0622557.0801085-.0910948.12222256-.009613.0132752-.0183105.02746587-.0274658.04165643-.0183105.02838135-.0361633.05767816-.0526426.08697497-.0105286.01785266-.0201417.03570543-.0297547.05401594-.0146484.02838135-.0283812.05722042-.0416564.08605939-.0082397.0183105-.0173949.03662101-.0251769.05538937-.0004578.00183093-.0013733.0036621-.0022887.00549303l-10.53723952 25.75739144c-.00183105.0045775-.00320437.0086974-.00503542.0128172l-.00457757.0109863c-.01647957.0398254-.03067013.0810241-.04394522.1217649-.00549327.0160218-.01007084.0325012-.01510626.0485229-.01190177.0411986-.02288807.0828551-.03158559.1245115-.00228879.0100707-.00457757.0205993-.00686647.03067-.00869741.0462341-.01556388.0929259-.02105703.1396176-.00137332.0114441-.00274661.0228882-.00411989.0343322-.00457763.0517273-.0073242.1034544-.00823973.1547239v.011444c0 6.1385977 5.51970251 11.1327887 12.3046612 11.1327887 6.7849587 0 12.3046612-4.994191 12.3046612-11.1327887 0-.0041198-.0004577-.0077819-.0004577-.011444-.0004577-.0512695-.0032044-.1029966-.0077819-.1547239-.0013734-.011444-.0027467-.0228881-.00412-.0343322-.0054931-.0466917-.0123596-.0933835-.021057-.1396176-.0022889-.0100707-.0045777-.0205993-.0068665-.03067-.0086975-.0416564-.0196838-.0833129-.0315856-.1245115-.0050354-.0160217-.009613-.0325011-.0151062-.0485229-.0132751-.0407408-.0274657-.0814818-.0439453-.1217649l-.0045775-.0109863c-.0018311-.0041198-.0032044-.0082397-.0050354-.0128172l-9.5457255-23.33399567h8.2681099c.6376634 2.46734097 2.5840703 4.41374787 5.0509535 5.05095347v36.1989584h-6.4452988c-.9704569 0-1.7578087.7868941-1.7578087 1.7578088 0 .9709146.7873518 1.7578087 1.7578087 1.7578087h16.406215c.9709146 0 1.7578087-.7868941 1.7578087-1.7578087 0-.9709147-.7868941-1.7578088-1.7578087-1.7578088h-6.4452987v-36.1989584c2.4673409-.6376634 4.4137478-2.5836125 5.0509535-5.05095347h8.2681098l-9.5457254 23.33445337c-.0018311.0041198-.0032044.0086974-.0054932.0128173l-.0041198.0105285c-.0164796.0402831-.0306701.0810241-.0444031.1222227-.0050354.0160217-.009613.0320434-.0146484.0480651-.0119018.0416564-.0228881.0828551-.0320433.1249692-.0022889.0100707-.0041198.0201416-.0064088.03067-.0091552.0462342-.0160216.0929259-.021057.1396177-.0013733.0114441-.0032043.0228881-.0041199.0343323-.0050353.0512694-.0073242.1029965-.007782.1547237 0 .0036621-.0004577.0073242-.0004577.0109863 0 6.1385977 5.5197025 11.1327887 12.3046612 11.1327887 6.7845009 0 12.3047894-4.994191 12.3047894-11.1327887 0-.0036621 0-.0073242 0-.011444zm-47.6948811 7.6286152c-4.14870328 0-7.63502395-2.5035041-8.55283813-5.8593624h17.10567633c-.9182719 3.3558583-4.4045926 5.8593624-8.5528382 5.8593624zm-7.92890754-9.3749799 7.92890754-19.3807569 7.9284499 19.3807569zm25.62418234-20.5077687c-1.938625 0-3.5156175-1.57699248-3.5156175-3.51561752s1.5769925-3.51561749 3.5156175-3.51561749c1.9381673 0 3.5156174 1.57699245 3.5156174 3.51561749s-1.5774501 3.51561752-3.5156174 3.51561752zm17.6952747 1.1270118 7.9284498 19.3807569h-15.8573574zm0 28.7557368c-4.1487034 0-7.6350241-2.5035041-8.5528382-5.8593624h17.1056763c-.9182719 3.3558583-4.4045926 5.8593624-8.5528381 5.8593624z" fill="url(#a)" transform="translate(5.000657 8.498523)"/></svg>