<svg xmlns="http://www.w3.org/2000/svg" width="70" height="70"><linearGradient id="a" x1="0%" x2="100%" y1="10.165%" y2="89.835%"><stop offset="0" stop-color="#a4aebe"/><stop offset="1" stop-color="#2d53f5"/></linearGradient><path fill="url(#a)" d="M60 32.801a1.997 1.997 0 0 0-.008-.154l-.004-.035a1.839 1.839 0 0 0-.022-.14l-.006-.03a1.987 1.987 0 0 0-.091-.295l-.004-.01-.006-.014L49.322 6.366a.017.017 0 0 0-.002-.005l-.025-.056c-.014-.03-.027-.058-.042-.086l-.03-.054a2.116 2.116 0 0 0-.17-.25l-.006-.007a1.803 1.803 0 0 0-.098-.107l-.031-.031a1.829 1.829 0 0 0-.083-.075l-.037-.031a1.722 1.722 0 0 0-.104-.078l-.02-.015a1.907 1.907 0 0 0-.124-.075c-.017-.01-.034-.018-.052-.027a2.05 2.05 0 0 0-.085-.04 1.536 1.536 0 0 0-.16-.064l-.052-.017a1.612 1.612 0 0 0-.295-.06l-.05-.006a1.69 1.69 0 0 0-.16-.009H36.809C36.026 2.244 33.27 0 30 0s-6.026 2.244-6.808 5.273H12.305c-.054 0-.107.004-.16.009l-.051.005c-.037.005-.073.01-.108.017l-.055.01c-.044.01-.089.021-.132.034l-.052.017a1.918 1.918 0 0 0-.245.103l-.052.028a1.801 1.801 0 0 0-.124.075l-.02.015a1.93 1.93 0 0 0-.105.077l-.036.031a1.84 1.84 0 0 0-.083.076l-.031.03c-.034.035-.067.07-.098.108l-.005.006a1.84 1.84 0 0 0-.091.122c-.01.013-.019.028-.028.042a1.689 1.689 0 0 0-.124.227l-.025.055a.028.028 0 0 1-.002.006L.14 32.123l-.006.013-.004.01a1.68 1.68 0 0 0-.044.123l-.015.048a1.71 1.71 0 0 0-.032.125l-.007.03a2.054 2.054 0 0 0-.02.14l-.005.034a2.204 2.204 0 0 0-.008.155v.011c0 6.139 5.52 11.133 12.305 11.133s12.304-4.994 12.304-11.133v-.011c0-.051-.003-.103-.008-.155l-.004-.034a2.054 2.054 0 0 0-.021-.14l-.007-.03a1.71 1.71 0 0 0-.032-.125l-.015-.048a1.763 1.763 0 0 0-.044-.122l-.004-.011-.005-.013-9.546-23.334h8.268a7.058 7.058 0 0 0 5.051 5.051v36.199h-6.445a1.758 1.758 0 0 0 0 3.516h16.406a1.758 1.758 0 1 0 0-3.516h-6.445V13.84a7.057 7.057 0 0 0 5.05-5.051h8.269L35.53 32.123l-.005.013-.005.01c-.016.041-.03.082-.044.123l-.015.048a2 2 0 0 0-.032.125l-.006.03c-.01.047-.016.094-.021.14l-.004.035a1.742 1.742 0 0 0-.008.154v.011c0 6.139 5.52 11.133 12.304 11.133C54.48 43.945 60 38.951 60 32.812v-.011zM12.305 40.43c-4.149 0-7.635-2.504-8.553-5.86h17.106c-.918 3.356-4.405 5.86-8.553 5.86zm-7.929-9.375 7.93-19.381 7.928 19.38zM30 10.547c-1.938 0-3.515-1.577-3.515-3.516S28.062 3.516 30 3.516c1.939 0 3.516 1.577 3.516 3.515S31.939 10.547 30 10.547zm17.696 1.127 7.928 19.38H39.767zm0 28.756c-4.149 0-7.635-2.504-8.553-5.86h17.106c-.919 3.356-4.405 5.86-8.553 5.86z" transform="translate(5 8.499)"/></svg>