<?xml version="1.0" encoding="UTF-8"?>
<svg width="76px" height="76px" viewBox="0 0 76 76" version="1.1" xmlns="http://www.w3.org/2000/svg" xmlns:xlink="http://www.w3.org/1999/xlink">
    <title>protecting-apis</title>
    <defs>
        <linearGradient x1="2.77555756e-15%" y1="100%" x2="100%" y2="2.77555756e-15%" id="linearGradient-1">
            <stop stop-color="#DDEDEB" offset="0%"></stop>
            <stop stop-color="#E6F9F7" offset="100%"></stop>
        </linearGradient>
    </defs>
    <g id="protecting-apis" stroke="none" stroke-width="1" fill="none" fill-rule="evenodd">
        <rect id="Rectangle-Copy-8" fill="url(#linearGradient-1)" opacity="0" x="0" y="0" width="76" height="76" rx="12"></rect>
        <g id="shield-lock-fill-copy-3" transform="translate(22, 19)" fill="#14B8A6" fill-rule="nonzero">
            <path d="M15.9677419,0.0383728033 C16.2463122,-0.0127909344 16.8836011,-0.0127909344 17.0322581,0.0383728033 L31.9354839,6.02244023 C32.5318238,6.17803444 33,6.83938396 33,8.01712937 C33,16.1076004 32.6824,19.6397635 30.8709677,23.9746425 C28.9410247,29.4669908 24.7149371,33.9144821 17.0322581,37.9374656 C16.8980622,38.0208448 16.1019378,38.0208448 15.9677419,37.9374656 C8.34900069,33.9485906 4.14148799,29.4859389 2.12903226,23.9746425 C0.360925354,19.6094446 0,15.8953646 0,8.01712937 C0,6.83559432 0.46405044,6.17613917 1.06451613,6.02244023 C3.03598796,5.16802453 13.9136246,0.902471371 15.9677419,0.0383728033 Z M23.437703,15.4850686 C22.6322474,14.7430724 21.2763007,14.7430724 20.4708451,15.4850686 L15.8288354,19.6582864 L13.2256592,17.3361428 C12.4202029,16.5941466 11.046382,16.5941466 10.2409257,17.3361428 C9.43546924,18.0781389 9.4120577,19.3149657 10.2175141,20.056962 L14.2577275,23.6994241 C15.063184,24.4414199 16.4847149,24.5695938 17.2901715,23.8275979 L23.3477582,18.3185647 C24.1532147,17.5765686 24.2431596,16.2270647 23.437703,15.4850686 Z" id="Combined-Shape"></path>
        </g>
    </g>
</svg>