<svg xmlns="http://www.w3.org/2000/svg" width="36" height="36"><linearGradient id="b" x1="13.124%" x2="79.507%" y1="11.7%" y2="78.454%"><stop offset="0" stop-color="#387eb8"/><stop offset="1" stop-color="#366994"/></linearGradient><linearGradient id="c" x1="19.265%" x2="90.561%" y1="20.316%" y2="88.773%"><stop offset="0" stop-color="#ffe052"/><stop offset="1" stop-color="#ffc331"/></linearGradient><mask id="a" fill="#fff"><path fill-rule="evenodd" d="M0 0h36v36H0z"/></mask><g fill="none" mask="url(#a)"><path fill="url(#b)" d="M15.885 0C7.76 0 8.268 3.523 8.268 3.523l.01 3.65h7.752v1.095H5.198S0 7.678 0 15.876c0 8.196 4.537 7.906 4.537 7.906h2.708v-3.804s-.146-4.537 4.465-4.537h7.689s4.32.07 4.32-4.175V4.247S24.373 0 15.884 0zM11.61 2.454a1.394 1.394 0 1 1 0 2.79 1.394 1.394 0 1 1 0-2.79z" transform="translate(2 2)"/><path fill="url(#c)" d="M16.115 31.833c8.124 0 7.617-3.523 7.617-3.523l-.01-3.65H15.97v-1.095h10.832S32 24.155 32 15.958c0-8.197-4.537-7.906-4.537-7.906h-2.708v3.803s.146 4.537-4.465 4.537h-7.688s-4.32-.07-4.32 4.175v7.019s-.656 4.247 7.833 4.247zm4.275-2.454a1.394 1.394 0 1 1 0-2.789 1.393 1.393 0 1 1 0 2.789z" transform="translate(2 2)"/></g></svg>