<svg xmlns="http://www.w3.org/2000/svg" width="70" height="70"><defs><linearGradient id="a" x1="0%" x2="100%" y1="24.17%" y2="75.83%"><stop offset="0%" stop-color="#A4AEBE"/><stop offset="100%" stop-color="#2D53F5"/></linearGradient></defs><path fill="url(#a)" d="M40.93 0C53.671 0 64 10.297 64 23c-.016 12.696-10.335 22.984-23.07 23-12.74 0-23.07-10.297-23.07-23S28.19 0 40.93 0ZM20.093 38.58a2.23 2.23 0 0 1 2.233 2.226c0 1.23-1 2.226-2.233 2.226h-8.93a2.23 2.23 0 0 1-2.233-2.226c0-1.229 1-2.225 2.233-2.225h8.93ZM40.93 4.453c-10.275 0-18.604 8.304-18.604 18.548 0 10.244 8.33 18.548 18.604 18.548 10.275 0 18.605-8.304 18.605-18.548 0-10.244-8.33-18.548-18.605-18.548ZM14.14 29.677a2.23 2.23 0 0 1 2.232 2.226c0 1.23-1 2.226-2.232 2.226H5.21a2.23 2.23 0 0 1-2.233-2.226c0-1.23 1-2.226 2.232-2.226h8.93ZM40.93 8.903a2.23 2.23 0 0 1 2.233 2.226V22.08l5.298 5.283a2.22 2.22 0 0 1 0 3.145c-.416.42-.985.656-1.577.653a2.206 2.206 0 0 1-1.578-.653l-5.953-5.935A2.222 2.222 0 0 1 38.698 23V11.129c0-1.23 1-2.226 2.232-2.226ZM14.14 20.774A2.23 2.23 0 0 1 16.372 23c0 1.23-1 2.226-2.232 2.226H2.233A2.23 2.23 0 0 1 0 23c0-1.23 1-2.226 2.233-2.226H14.14Zm0-8.903a2.23 2.23 0 0 1 2.232 2.226c0 1.23-1 2.226-2.232 2.226H5.21a2.23 2.23 0 0 1-2.233-2.226c0-1.23 1-2.226 2.232-2.226h8.93Zm5.953-8.903a2.23 2.23 0 0 1 2.233 2.226c0 1.229-1 2.225-2.233 2.225h-8.93A2.23 2.23 0 0 1 8.93 5.194c0-1.23 1-2.226 2.233-2.226h8.93Z" transform="translate(3 12)"/></svg>