<?xml version="1.0" encoding="UTF-8"?>
<svg width="54px" height="54px" viewBox="0 0 54 54" version="1.1" xmlns="http://www.w3.org/2000/svg" xmlns:xlink="http://www.w3.org/1999/xlink">
    <title>quickstart</title>
    <g id="quickstart" stroke="none" stroke-width="1" fill="none" fill-rule="evenodd">
        <rect id="Rectangle" fill="#F1F5F9" x="0" y="0" width="54" height="54" rx="5"></rect>
        <g id="Group" transform="translate(13, 11)" fill-rule="nonzero">
            <polygon id="Rectangle" fill="#194FC6" transform="translate(24.0008, 8) rotate(134.999) translate(-24.0008, -8)" points="21.1727493 5.9999162 26.8288475 6.00001437 26.8289169 10.0000838 21.1728187 9.99998563"></polygon>
            <rect id="Rectangle" fill="#F58320" x="12.0004166" y="0" width="4.00013885" height="6"></rect>
            <path d="M14.000486,4 C6.26821758,4 0,10.268 0,18 C0,25.732 6.26821758,32 14.000486,32 C21.7327544,32 28.000972,25.732 28.000972,18 C28.000972,10.268 21.7327544,4 14.000486,4 Z" id="Path" fill="#CBD5E1"></path>
            <polygon id="Rectangle" fill="#F58320" transform="translate(26.3788, 5.6207) rotate(45.001) translate(-26.3788, -5.6207)" points="23.2577749 3.62072652 29.4998832 3.62061819 29.4998138 7.62068761 23.2577054 7.62079595"></polygon>
            <rect id="Rectangle" fill="#4338CA" x="12.0004166" y="8" width="4.00013885" height="12"></rect>
        </g>
    </g>
</svg>