<svg xmlns="http://www.w3.org/2000/svg" width="36" height="36"><mask id="a" fill="#fff"><path fill-rule="evenodd" d="M0 0h36v36H0z"/></mask><g fill="none" fill-rule="evenodd" mask="url(#a)"><g transform="translate(3 5)"><g stroke="#53c1de" stroke-width="1.5"><path d="M20.177 10.295c2.135 3.697 3.406 7.385 3.758 10.338.176 1.478.118 2.735-.149 3.705-.265.965-.72 1.594-1.307 1.933-.587.339-1.358.418-2.327.165-.973-.254-2.091-.832-3.283-1.723-2.382-1.782-4.94-4.727-7.074-8.424C7.661 12.593 6.39 8.905 6.037 5.952c-.176-1.479-.118-2.736.149-3.705.265-.965.72-1.594 1.307-1.933S8.852-.104 9.82.149c.973.253 2.091.831 3.283 1.723 2.382 1.782 4.94 4.726 7.074 8.423z"/><path d="M9.795 10.295C7.661 13.992 6.39 17.68 6.037 20.633c-.176 1.478-.118 2.735.15 3.705.265.965.72 1.594 1.306 1.933.587.339 1.359.418 2.327.165.973-.254 2.091-.832 3.283-1.723 2.382-1.782 4.94-4.727 7.074-8.424 2.135-3.696 3.406-7.384 3.758-10.337.176-1.479.118-2.736-.149-3.705-.265-.965-.72-1.594-1.307-1.933s-1.358-.418-2.327-.165c-.973.253-2.091.831-3.283 1.723-2.381 1.782-4.94 4.726-7.074 8.423z"/><path d="M14.986 7.298c-4.269 0-8.098.743-10.832 1.915-1.368.586-2.427 1.265-3.134 1.981-.703.712-1.02 1.42-1.02 2.098 0 .678.317 1.386 1.02 2.099.707.715 1.766 1.394 3.134 1.98 2.734 1.172 6.563 1.915 10.832 1.915s8.098-.743 10.832-1.914c1.368-.587 2.428-1.266 3.134-1.981.703-.713 1.02-1.421 1.02-2.099 0-.677-.317-1.386-1.02-2.098-.706-.716-1.766-1.395-3.134-1.981-2.734-1.172-6.563-1.915-10.832-1.915z"/></g><circle cx="14.986" cy="13.292" r="2.81" fill="#53c1de" fill-rule="nonzero"/></g></g></svg>