<svg width="40" height="47" viewBox="0 0 40 47" fill="none" xmlns="http://www.w3.org/2000/svg">
<path d="M3.33333 5C3.33333 3.17667 6.66667 3.33333 6.66667 3.33333H36.6667C36.6667 2.41333 35.1767 0 33.3333 0H6.66667C2.22333 0 0 1.49 0 3.33333V43.3333C0 45.1767 1.49 46.6667 3.33333 46.6667H36.6667C38.51 46.6667 40 45.1767 40 43.3333V10C40 10 40 6.66667 36.6667 6.66667C33.3333 6.66667 29.4733 6.66667 23.3333 6.66667V30L16.6633 23.3333L10 30V6.66667H6.66667C6.66667 6.66667 3.33333 6.66667 3.33333 5Z" fill="#2DAEFC"/>
</svg>
