<?xml version="1.0" encoding="UTF-8"?>
<svg width="76px" height="76px" viewBox="0 0 76 76" version="1.1" xmlns="http://www.w3.org/2000/svg" xmlns:xlink="http://www.w3.org/1999/xlink">
    <title>reference</title>
    <defs>
        <linearGradient x1="2.77555756e-15%" y1="100%" x2="100%" y2="2.77555756e-15%" id="linearGradient-1">
            <stop stop-color="#DDEDEB" offset="0%"></stop>
            <stop stop-color="#E6F9F7" offset="100%"></stop>
        </linearGradient>
    </defs>
    <g id="reference" stroke="none" stroke-width="1" fill="none" fill-rule="evenodd">
        <rect id="Rectangle-Copy-8" fill="url(#linearGradient-1)" opacity="0" x="0" y="0" width="76" height="76" rx="12"></rect>
        <path d="M43.5978372,29 C42.7599118,29 42.2884439,29.4768686 42.1834336,30.4306059 L42.1834336,45.8723508 C42.1834336,46.2309786 41.8927083,46.5217039 41.5340805,46.5217039 C41.3587063,46.5217039 41.1907888,46.4507679 41.0685302,46.3250343 L37.9984609,43.167703 L34.9283915,46.3250343 C34.8061329,46.4507679 34.6382154,46.5217039 34.4628412,46.5217039 C34.1042134,46.5217039 33.8134882,46.2309786 33.8134882,45.8723508 L33.813,30.408 L33.7925826,30.2573685 C33.6511912,29.4191228 33.1877179,29 32.4021628,29 Z" id="Combined-Shape" fill="#A5B4FC"></path>
        <g id="Group" transform="translate(23, 19)">
            <path d="M30,36 C30,37.1045695 29.1045695,38 28,38 L4,38 C1.790861,38 -6.17636919e-16,36.209139 0,34 L0,4 C-2.705415e-16,1.790861 1.790861,4.05812251e-16 4,0 L28,0 C29.1045695,-2.02906125e-16 30,0.8954305 30,2 L30,30 L6,30 C4.8954305,30 4,30.8954305 4,32 C4,33.1045695 4.8954305,34 6,34 L30,34 L30,36 Z" id="Combined-Shape" fill="#F43F5E"></path>
            <path d="M15.1834336,16.8723508 C15.1834336,17.2309786 14.8927083,17.5217039 14.5340805,17.5217039 C14.3587063,17.5217039 14.1907888,17.4507679 14.0685302,17.3250343 L10.9984609,14.167703 L7.92839151,17.3250343 C7.80613292,17.4507679 7.63821541,17.5217039 7.46284123,17.5217039 C7.10421344,17.5217039 6.81348817,17.2309786 6.81348817,16.8723508 L6.81348817,0 L15.1834336,0 L15.1834336,16.8723508 Z" id="Combined-Shape" fill="#BE123C"></path>
        </g>
    </g>
</svg>