<?xml version="1.0" encoding="UTF-8"?>
<svg width="72px" height="72px" viewBox="0 0 72 72" version="1.1" xmlns="http://www.w3.org/2000/svg" xmlns:xlink="http://www.w3.org/1999/xlink">
    <title>reference</title>
    <defs>
        <linearGradient x1="100%" y1="7.07767178e-14%" x2="0%" y2="100%" id="linearGradient-1">
            <stop stop-color="#FAE8FF" offset="0%"></stop>
            <stop stop-color="#E2C4E5" offset="100%"></stop>
        </linearGradient>
        <rect id="path-2" x="0" y="0" width="72" height="72" rx="12"></rect>
    </defs>
    <g id="reference" stroke="none" stroke-width="1" fill="none" fill-rule="evenodd">
        <g id="Docs-Icons-/-Light-/docs-resources-reference-fucsia-light">
            <g id="Rectangle-Copy-6">
                <use fill="#5EEAD4" xlink:href="#path-2"></use>
                <use fill="url(#linearGradient-1)" xlink:href="#path-2"></use>
            </g>
            <g id="Group" transform="translate(21, 17)">
                <path d="M30,36 C30,37.1045695 29.1045695,38 28,38 L4,38 C1.790861,38 0,36.209139 0,34 L0,4 C0,1.790861 1.790861,4.4408921e-16 4,0 L28,0 C29.1045695,0 30,0.8954305 30,2 L30,30 L6,30 C4.8954305,30 4,30.8954305 4,32 C4,33.1045695 4.8954305,34 6,34 L30,34 L30,36 Z" id="Combined-Shape" fill="#D946EF"></path>
                <path d="M15.1834336,16.8723508 C15.1834336,17.2309786 14.8927083,17.5217039 14.5340805,17.5217039 C14.3587063,17.5217039 14.1907888,17.4507679 14.0685302,17.3250343 L10.9984609,14.167703 L7.92839151,17.3250343 C7.80613292,17.4507679 7.63821541,17.5217039 7.46284123,17.5217039 C7.10421344,17.5217039 6.81348817,17.2309786 6.81348817,16.8723508 L6.81348817,0 L15.1834336,0 L15.1834336,16.8723508 Z" id="Combined-Shape" fill="#A21CAF"></path>
            </g>
        </g>
    </g>
</svg>