<svg xmlns="http://www.w3.org/2000/svg" width="70" height="70"><linearGradient id="a" x1="3.635%" x2="96.365%" y1="0%" y2="100%"><stop offset="0" stop-color="#a4aebe"/><stop offset="1" stop-color="#2d53f5"/></linearGradient><path fill="url(#a)" d="m50.469 31.292-2.232-1.85a3.177 3.177 0 0 1 0-4.885l2.232-1.85a4.225 4.225 0 0 0 .966-5.366L47.028 9.66a4.166 4.166 0 0 0-5.1-1.842l-2.708 1.02c-1.854.7-3.878-.48-4.203-2.443l-.476-2.87A4.186 4.186 0 0 0 30.407 0h-8.814a4.186 4.186 0 0 0-4.134 3.525l-.476 2.87c-.325 1.967-2.352 3.141-4.203 2.443l-2.707-1.02a4.166 4.166 0 0 0-5.1 1.84L.564 17.342a4.224 4.224 0 0 0 .966 5.367l2.232 1.85a3.177 3.177 0 0 1 0 4.885L1.53 31.293a4.224 4.224 0 0 0-.966 5.366l4.407 7.683a4.166 4.166 0 0 0 5.1 1.842l2.708-1.021c1.854-.7 3.878.48 4.203 2.443l.476 2.87A4.186 4.186 0 0 0 21.593 54h8.814a4.186 4.186 0 0 0 4.134-3.525l.475-2.87c.326-1.966 2.353-3.141 4.204-2.443l2.707 1.02a4.166 4.166 0 0 0 5.1-1.84l4.408-7.684a4.225 4.225 0 0 0-.966-5.366zm-7.071 10.94-2.707-1.02c-4.328-1.632-9.05 1.12-9.809 5.7l-.475 2.87h-8.814l-.475-2.87c-.76-4.588-5.49-7.33-9.809-5.7l-2.707 1.02-4.407-7.683 2.232-1.85c3.568-2.955 3.56-8.449 0-11.399l-2.232-1.85 4.407-7.682 2.707 1.02c4.328 1.632 9.05-1.12 9.809-5.7l.475-2.87h8.814l.475 2.87c.76 4.589 5.49 7.329 9.809 5.7l2.707-1.02 4.408 7.682h-.001l-2.232 1.85c-3.568 2.956-3.56 8.45 0 11.4l2.232 1.849zM26 16.594c-5.7 0-10.339 4.668-10.339 10.406S20.3 37.406 26 37.406 36.339 32.738 36.339 27 31.7 16.594 26 16.594zm0 16.594c-3.39 0-6.147-2.776-6.147-6.188S22.61 20.812 26 20.812s6.147 2.776 6.147 6.188S29.39 33.188 26 33.188z" transform="translate(9 8)"/></svg>