<svg xmlns="http://www.w3.org/2000/svg" width="70" height="70"><linearGradient id="a" x1="0%" x2="100%" y1="1.869%" y2="98.131%"><stop offset="0" stop-color="#a4aebe"/><stop offset="1" stop-color="#2d53f5"/></linearGradient><path fill="url(#a)" d="M26.5 0c8.173 0 14.823 6.526 14.823 14.548 0 .357-.03.707-.055 1.057H47.7c2.923 0 5.3 2.333 5.3 5.202v25.991C53 49.667 50.623 52 47.7 52H5.3C2.377 52 0 49.667 0 46.798V20.807c0-2.869 2.377-5.202 5.3-5.202h6.432c-.026-.35-.055-.7-.055-1.056C11.677 6.526 18.327 0 26.5 0zM12.42 19.073H5.3c-.974 0-1.767.777-1.767 1.734v25.991c0 .957.793 1.734 1.767 1.734h42.4c.974 0 1.767-.777 1.767-1.734V20.807c0-.957-.793-1.734-1.767-1.734h-7.12c-1.945 5.81-7.517 10.022-14.08 10.022s-12.135-4.211-14.08-10.022zM32.463 42.14c.976 0 1.767.776 1.767 1.734s-.79 1.734-1.766 1.734H20.536c-.975 0-1.766-.776-1.766-1.734s.79-1.734 1.766-1.734zm5.94-11.517c2.67 0 4.843 2.131 4.843 4.753 0 2.62-2.173 4.75-4.842 4.75H14.597c-2.67 0-4.842-2.13-4.842-4.75 0-2.622 2.173-4.753 4.842-4.753zm0 3.467H14.598c-.72 0-1.308.576-1.308 1.286 0 .707.587 1.283 1.308 1.283h23.806c.72 0 1.308-.576 1.308-1.283 0-.71-.587-1.286-1.308-1.286zM26.5 20.478c-2.662 0-5.142.986-7.028 2.725 1.93 1.513 4.371 2.424 7.028 2.424s5.098-.91 7.028-2.424a10.311 10.311 0 0 0-7.028-2.725zm0-17.01c-6.225 0-11.29 4.971-11.29 11.08 0 2.255.694 4.351 1.877 6.103 2.533-2.324 5.853-3.64 9.413-3.64s6.88 1.316 9.413 3.64a10.865 10.865 0 0 0 1.876-6.102c0-6.11-5.064-11.081-11.289-11.081zm0 1.918c2.93 0 5.313 2.339 5.313 5.214 0 2.875-2.384 5.215-5.313 5.215s-5.313-2.34-5.313-5.215 2.384-5.214 5.313-5.214zm0 3.468c-.982 0-1.78.784-1.78 1.746 0 .963.798 1.747 1.78 1.747s1.78-.784 1.78-1.747c0-.962-.798-1.746-1.78-1.746z" transform="translate(9 8)"/></svg>