<svg height="70" viewBox="0 0 70 70" width="70" xmlns="http://www.w3.org/2000/svg" xmlns:xlink="http://www.w3.org/1999/xlink"><linearGradient id="a" x1="0%" x2="100%" y1="1.868993%" y2="98.131008%"><stop offset="0" stop-color="#a4aebe"/><stop offset="1" stop-color="#2d53f5"/></linearGradient><path d="m26.4999823 0c8.1734304 0 14.8225807 6.5258329 14.8225807 14.5484869 0 .3566453-.028673.7063029-.0545547 1.0566021h6.4319917c2.9225967 0 5.3 2.3333223 5.3 5.2016905v25.99153c0 2.8683855-2.3774033 5.2016905-5.3 5.2016905h-42.4c-2.92259667 0-5.3-2.333305-5.3-5.2016905v-25.9915126c0-2.8683856 2.37740333-5.2016906 5.3-5.2016906h6.431974c-.025864-.3502992-.0545547-.6999568-.0545547-1.056602 0-8.0226714 6.6491327-14.5485043 14.822563-14.5485043zm-14.079079 19.0728827h-7.1209033c-.97391033 0-1.76666667.7772019-1.76666667 1.7338968v25.99153c0 .9566949.79275634 1.7338968 1.76666667 1.7338968h42.4c.9739103 0 1.7666667-.7772019 1.7666667-1.7338968v-25.9915126c0-.956695-.7927564-1.7339142-1.7666667-1.7339142h-7.1209033c-1.94404 5.8108432-7.515983 10.0224093-14.0790967 10.0224093s-12.1350567-4.2115661-14.0790967-10.0224093zm20.0415967 23.0672608c.9756417 0 1.7666667.7755201 1.7666667 1.7338969s-.791025 1.7338968-1.7666667 1.7338968h-11.925c-.9756417 0-1.7666667-.77552-1.7666667-1.7338968s.791025-1.7338969 1.7666667-1.7338969zm5.9400633-11.5175312c2.6698574 0 4.8419387 2.1318089 4.8419387 4.7529754 0 2.6194674-2.172099 4.7512762-4.8419387 4.7512762h-23.8051266c-2.6698397 0-4.8419387-2.1318088-4.8419387-4.7512762 0-2.6211665 2.172099-4.7529754 4.8419387-4.7529754zm0 3.4677937h-23.8051266c-.7211534 0-1.3086054.5757058-1.3086054 1.2851817 0 .7077767.587452 1.2834825 1.3086054 1.2834825h23.8051266c.721171 0 1.3086054-.5757058 1.3086054-1.2834825 0-.7094759-.587452-1.2851817-1.3086054-1.2851817zm-11.9025633-13.6121132c-2.662296 0-5.1424663.9854776-7.028383 2.7250963 1.9305603 1.5130331 4.3714753 2.4241092 7.028383 2.4241092s5.0978227-.9110935 7.028383-2.4241265c-1.8859167-1.7396014-4.366087-2.725079-7.028383-2.725079zm0-17.01048176c-6.224744 0-11.2892297 4.97141171-11.2892297 11.08069326 0 2.2542566.6933284 4.3509367 1.8763237 6.1025019 2.5326757-2.324202 5.853055-3.6405071 9.412906-3.6405071s6.8802303 1.3161837 9.4129237 3.6405071c1.1829776-1.7515652 1.8763236-3.8482453 1.8763236-6.1025019 0-6.10928155-5.0645033-11.08069326-11.2892473-11.08069326zm0 1.91847017c2.9294867 0 5.312932 2.33840265 5.312932 5.21355039 0 2.8751478-2.3834453 5.2152323-5.312932 5.2152323s-5.312932-2.3400672-5.312932-5.2152323c0-2.87516508 2.3834453-5.21355039 5.312932-5.21355039zm0 3.4677937c-.981666 0-1.7795987.78398146-1.7795987 1.74575669 0 .9634571.7979327 1.7474386 1.7795987 1.7474386s1.7795987-.7839815 1.7795987-1.7474386c0-.96177523-.7979327-1.74575669-1.7795987-1.74575669z" fill="url(#a)" transform="translate(9 8)"/></svg>