<svg height="70" viewBox="0 0 70 70" width="70" xmlns="http://www.w3.org/2000/svg" xmlns:xlink="http://www.w3.org/1999/xlink"><linearGradient id="a" x1="3.635117%" x2="96.364883%" y1="0%" y2="100%"><stop offset="0" stop-color="#a4aebe"/><stop offset="1" stop-color="#2d53f5"/></linearGradient><path d="m50.4688237 31.2920508-2.2319237-1.8492891c-1.5288154-1.2667851-1.526091-3.6212695.0001048-4.8855234l2.2318189-1.8492891c1.5882286-1.3161445 1.9944806-3.5729648.9659096-5.3664609l-4.407054-7.68297658c-1.0287806-1.79339063-3.1741518-2.56753125-5.1003125-1.84127344l-2.7071244 1.02083203c-1.8542781.69904688-3.8787272-.47998828-4.203666-2.44276172l-.4752007-2.87022656c-.3382464-2.04250781-2.0769465-3.52508203-4.1342982-3.52508203h-8.8140031c-2.0574564 0-3.7962613 1.48257422-4.134403 3.5251875l-.4753054 2.87012109c-.3255675 1.96625391-2.352741 3.14064844-4.2035612 2.44286719l-2.7071244-1.0209375c-1.92626548-.72625781-4.07142712.04798828-5.10031254 1.84127344l-4.40694917 7.68287108c-1.02867584 1.7932852-.62252859 4.050211.96590954 5.366461l2.23181897 1.849289c1.52902495 1.2668906 1.52598618 3.6211641 0 4.8855234l-2.23192375 1.8492891c-1.58833335 1.31625-1.99458539 3.5731758-.96590954 5.3664609l4.40705395 7.6829766c1.02878063 1.7932852 3.17352314 2.5675313 5.10031254 1.8412735l2.7070196-1.0208321c1.8545924-.6993633 3.8786224.4805156 4.2035612 2.4427617l.4753055 2.8700157c.3382464 2.0428242 2.0770513 3.5253984 4.1344029 3.5253984h8.8140032c2.0573516 0 3.7961565-1.4825742 4.1342982-3.5251875l.4752006-2.8700156c.3254627-1.9657266 2.3525315-3.1409649 4.203666-2.4427617l2.7072292 1.0207265c1.9266846.7263633 4.0715319-.0478828 5.1003125-1.8412734l4.4071588-7.683082c1.0284662-1.7932852.6222142-4.050211-.9660144-5.3663555zm-7.0710069 10.9400625-2.7071244-1.020832c-4.327522-1.6317071-9.0502936 1.1211328-9.8084142 5.6998476l-.4752007 2.8701211h-8.8140031l-.4753054-2.8701211c-.7595876-4.5875742-5.489275-7.3283906-9.8084142-5.6998476l-2.70712446 1.020832-4.40694917-7.6829766 2.23181897-1.849289c3.56782966-2.9562891 3.56038991-8.4495235 0-11.3996954l-2.23181897-1.849289 4.40705395-7.6829766 2.70701968 1.0208321c4.3276268 1.6316015 9.0502936-1.1211329 9.8084142-5.69984771l.4752006-2.87012109h8.8140032l.4752006 2.87012109c.7596924 4.58810161 5.4895894 7.32807421 9.8084142 5.69984771l2.7071245-1.0208321 4.407997 7.6819219s0 .0003164-.0011527.0009492l-2.2317141 1.8492891c-3.5677249 2.9560781-3.5605995 8.4494179-.0001048 11.3996953l2.2319237 1.8492891zm-17.3977932-25.6383985c-5.7008362 0-10.3388367 4.6682579-10.3388367 10.4062852s4.6380005 10.4062852 10.3388367 10.4062852 10.3388367-4.6682579 10.3388367-10.4062852-4.6380005-10.4062852-10.3388367-10.4062852zm0 16.5938204c-3.3896949 0-6.1474306-2.7757266-6.1474306-6.1875352s2.7577357-6.1875352 6.1474306-6.1875352 6.1474305 2.7757266 6.1474305 6.1875352-2.7577356 6.1875352-6.1474305 6.1875352z" fill="url(#a)" transform="translate(9 8)"/></svg>