<?xml version="1.0" encoding="UTF-8"?>
<svg width="54px" height="54px" viewBox="0 0 54 54" version="1.1" xmlns="http://www.w3.org/2000/svg" xmlns:xlink="http://www.w3.org/1999/xlink">
    <title>registration-traffic-game-launches</title>
    <g id="registration-traffic-game-launches" stroke="none" stroke-width="1" fill="none" fill-rule="evenodd">
        <rect id="Rectangle" fill="#F1F5F9" x="0" y="0" width="54" height="54" rx="5"></rect>
        <g id="Group" transform="translate(11, 17)" fill-rule="nonzero">
            <path d="M7.27272727,3.63201912 C5.26441909,3.63201912 3.63636364,5.25812946 3.63636364,7.26403823 C3.63636364,9.269947 5.26441909,10.8960573 7.27272727,10.8960573 C9.28103545,10.8960573 10.9090909,9.269947 10.9090909,7.26403823 C10.9090909,5.25812946 9.28103545,3.63201912 7.27272727,3.63201912 L7.27272727,3.63201912 Z" id="Path" fill="#FFA726"></path>
            <path d="M0,17.2157706 C0,17.2157706 2.03636364,12.6394265 7.27272727,12.6394265 C12.5090909,12.6394265 14.5454545,17.2157706 14.5454545,17.2157706 L14.5454545,19.6129032 L0,19.6129032 L0,17.2157706 Z M32,17.2157706 C32,17.2157706 29.9636364,12.6394265 24.7272727,12.6394265 C19.4909091,12.6394265 17.4545455,17.2157706 17.4545455,17.2157706 L17.4545455,19.6129032 L32,19.6129032 L32,17.2157706 Z" id="Shape" fill="#CBD5E1"></path>
            <path d="M16,0 C14.4410229,0 13.0004686,0.830710691 12.22098,2.17921145 C11.4414914,3.52771221 11.4414914,5.18913367 12.22098,6.53763443 C13.0004686,7.88613519 14.4410229,8.71684588 16,8.71684588 C17.5589771,8.71684588 18.9995314,7.88613519 19.77902,6.53763443 C20.5585086,5.18913367 20.5585086,3.52771221 19.77902,2.17921145 C18.9995314,0.830710691 17.5589771,0 16,0 Z" id="Path" fill="#F58320"></path>
            <path d="M24.7272727,16.7799283 C24.7272727,16.7799283 22.3272727,11.3318996 16,11.3318996 C9.67272727,11.3318996 7.27272727,16.7799283 7.27272727,16.7799283 L7.27272727,19.6129032 L24.7272727,19.6129032 L24.7272727,16.7799283 Z" id="Path" fill="#6366F1"></path>
            <path d="M24.7272727,3.63201912 C22.7189645,3.63201912 21.0909091,5.25812946 21.0909091,7.26403823 C21.0909091,9.269947 22.7189645,10.8960573 24.7272727,10.8960573 C26.7355809,10.8960573 28.3636364,9.269947 28.3636364,7.26403823 C28.3636364,5.25812946 26.7355809,3.63201912 24.7272727,3.63201912 Z" id="Path" fill="#FFA726"></path>
            <path d="M7.27272727,3.63201912 C5.26441909,3.63201912 3.63636364,5.25812946 3.63636364,7.26403823 C3.63636364,9.269947 5.26441909,10.8960573 7.27272727,10.8960573 C9.28103545,10.8960573 10.9090909,9.269947 10.9090909,7.26403823 C10.9090909,5.25812946 9.28103545,3.63201912 7.27272727,3.63201912 L7.27272727,3.63201912 Z M24.7272727,3.63201912 C22.7189645,3.63201912 21.0909091,5.25812946 21.0909091,7.26403823 C21.0909091,9.269947 22.7189645,10.8960573 24.7272727,10.8960573 C26.7355809,10.8960573 28.3636364,9.269947 28.3636364,7.26403823 C28.3636364,5.25812946 26.7355809,3.63201912 24.7272727,3.63201912 Z" id="Shape" fill="#6366F1"></path>
        </g>
    </g>
</svg>