<svg height="54" viewBox="0 0 54 54" width="54" xmlns="http://www.w3.org/2000/svg"><g fill="none" fill-rule="evenodd"><rect fill="#f1f5f9" height="54" rx="5" width="54"/><g fill-rule="nonzero" transform="translate(12 12)"><g fill="#4338ca"><path d="m12 0h6v6h-6z"/><path d="m12 24h6v6h-6z"/><path d="m24 12h6v6h-6z" transform="matrix(0 1 -1 0 42 -12)"/><path d="m0 12h6v6h-6z" transform="matrix(0 1 -1 0 18 12)"/><path d="m20.4855 20.4855h6v6h-6z" transform="matrix(-.70709444 .70711912 -.70711912 -.70709444 56.699013 23.48492)"/><path d="m3.5145 3.5145h6v6h-6z" transform="matrix(-.70709444 .70711912 -.70711912 -.70709444 15.727394 6.514339)"/><path d="m20.4855 3.5145h6v6h-6z" transform="matrix(.70709444 .70711912 -.70711912 .70709444 11.485561 -14.698913)"/><path d="m3.51471968 20.4849697h6v6h-6z" transform="matrix(.70709444 .70711912 -.70711912 .70709444 18.514884 2.272218)"/><circle cx="15" cy="15" r="12.75"/></g><circle cx="15" cy="15" fill="#818cf8" r="10.5"/><path d="m24.43425 19.8465-7.93425-5.622v-9.7245h-3v9.66375.06075l-7.93425 5.622 1.734 2.448 7.70025-5.45625 7.70025 5.45625z" fill="#4338ca"/><circle cx="15" cy="15" fill="#6366f1" r="7.5"/><path d="m16.5 14.2245v-6.58125c-.48225-.10875-.98475-.16725-1.5-.16725s-1.01775.05775-1.5.16725v6.58125l-5.3625 3.7995c.39075.942.9885 1.776 1.7355 2.4465l5.127-3.63225 5.1405 3.642c.74775-.6705 1.34475-1.50525 1.7355-2.4465z" fill="#312e81"/><circle cx="15" cy="15" fill="#818cf8" r="3.75"/></g></g></svg>