<svg height="54" viewBox="0 0 54 54" width="54" xmlns="http://www.w3.org/2000/svg"><g fill="none" fill-rule="evenodd"><rect fill="#f1f5f9" height="54" rx="5" width="54"/><g fill-rule="nonzero" transform="translate(11 17)"><path d="m7.27272727 3.63201912c-2.00830818 0-3.63636363 1.62611034-3.63636363 3.63201911s1.62805545 3.63201907 3.63636363 3.63201907 3.63636363-1.6261103 3.63636363-3.63201907-1.62805545-3.63201911-3.63636363-3.63201911z" fill="#ffa726"/><path d="m0 17.2157706s2.03636364-4.5763441 7.27272727-4.5763441 7.27272723 4.5763441 7.27272723 4.5763441v2.3971326h-14.5454545zm32 0s-2.0363636-4.5763441-7.2727273-4.5763441c-5.2363636 0-7.2727272 4.5763441-7.2727272 4.5763441v2.3971326h14.5454545z" fill="#cbd5e1"/><path d="m16 0c-1.5589771 0-2.9995314.83071069-3.77902 2.17921145s-.7794886 3.00992222 0 4.35842298 2.2200429 2.17921145 3.77902 2.17921145 2.9995314-.83071069 3.77902-2.17921145.7794886-3.00992222 0-4.35842298-2.2200429-2.17921145-3.77902-2.17921145z" fill="#f58320"/><path d="m24.7272727 16.7799283s-2.4-5.4480287-8.7272727-5.4480287c-6.32727273 0-8.72727273 5.4480287-8.72727273 5.4480287v2.8329749h17.45454543z" fill="#6366f1"/><path d="m24.7272727 3.63201912c-2.0083082 0-3.6363636 1.62611034-3.6363636 3.63201911s1.6280554 3.63201907 3.6363636 3.63201907 3.6363637-1.6261103 3.6363637-3.63201907-1.6280555-3.63201911-3.6363637-3.63201911z" fill="#ffa726"/><path d="m7.27272727 3.63201912c-2.00830818 0-3.63636363 1.62611034-3.63636363 3.63201911s1.62805545 3.63201907 3.63636363 3.63201907 3.63636363-1.6261103 3.63636363-3.63201907-1.62805545-3.63201911-3.63636363-3.63201911zm17.45454543 0c-2.0083082 0-3.6363636 1.62611034-3.6363636 3.63201911s1.6280554 3.63201907 3.6363636 3.63201907 3.6363637-1.6261103 3.6363637-3.63201907-1.6280555-3.63201911-3.6363637-3.63201911z" fill="#6366f1"/></g></g></svg>