<?xml version="1.0" encoding="UTF-8"?>
<svg width="72px" height="72px" viewBox="0 0 72 72" version="1.1" xmlns="http://www.w3.org/2000/svg" xmlns:xlink="http://www.w3.org/1999/xlink">
    <title>release-notes</title>
    <defs>
        <linearGradient x1="-3.88578059e-14%" y1="100%" x2="100%" y2="2.77555756e-15%" id="linearGradient-1">
            <stop stop-color="#EDC6D0" offset="0%"></stop>
            <stop stop-color="#FDE6E8" offset="100%"></stop>
        </linearGradient>
    </defs>
    <g id="release-notes" stroke="none" stroke-width="1" fill="none" fill-rule="evenodd">
        <g id="Docs-Icons-/-Light-/docs-resources-release-notes-rose-light">
            <rect id="Rectangle-Copy-6" fill="url(#linearGradient-1)" x="0" y="0" width="72" height="72" rx="12"></rect>
            <g id="Group-2" transform="translate(17, 17)">
                <g id="Group">
                    <path d="M32.9333334,0 C35.7315761,-8.8817842e-16 38,2.26842391 38,5.0666666 L38,20 L29.0484619,20 C23.2475842,20 20.0029548,23.2395814 20.0029548,29.0345459 L20.0029548,38 L5.0666666,38 C2.26842391,38 -8.8817842e-16,35.7315761 -8.8817842e-16,32.9333334 L0,5.0666666 C0,2.26842391 2.26842391,0 5.0666666,0 L32.9333334,0 Z M23.9685059,38 L24.002,37.966 L24.0029548,29.0345459 C24.0029548,25.5334747 25.3885633,24.0686016 28.801243,24.0023614 L29.0484619,24 L38,24 L38,24.0148926 L24.002,37.966 L24.0029548,38 L23.9685059,38 Z" id="Combined-Shape" fill="#F43F5E"></path>
                    <path d="M23.9814869,36.7781222 C24.0042253,34.4610675 24.0155945,32.204145 24.0155945,30.0073547 C23.9685059,24.9717102 25.4505005,23.8789673 30.0440063,24.0148926 C32.2926913,24.0148926 34.5413762,24.0148926 36.7900611,24.0148926 C37.0662035,24.0148926 37.2900611,24.2387502 37.2900611,24.5148926 C37.2900611,24.6477877 37.2371552,24.7752155 37.1430287,24.8690309 L24.8349186,37.135895 C24.6396025,37.3311032 24.3230201,37.3310158 24.1278118,37.1356997 C24.0330933,37.0409289 23.9803753,36.9121069 23.9814798,36.7781222 Z" id="Rectangle-2" fill="#BE123C"></path>
                    <rect id="Rectangle" fill="#F4D4DA" x="23" y="36" width="2" height="2"></rect>
                    <rect id="Rectangle" fill="#F6D9DE" x="36" y="23" width="2" height="2"></rect>
                    <path d="M23.9814869,36.7781222 C24.0042253,34.4610675 24.0155945,32.204145 24.0155945,30.0073547 C23.9685059,24.9717102 25.4505005,23.8789673 30.0440063,24.0148926 C32.2926913,24.0148926 34.5413762,24.0148926 36.7900611,24.0148926 C37.0662035,24.0148926 37.2900611,24.2387502 37.2900611,24.5148926 C37.2900611,24.6477877 37.2371552,24.7752155 37.1430287,24.8690309 L24.8349186,37.135895 C24.6396025,37.3311032 24.3230201,37.3310158 24.1278118,37.1356997 C24.0330933,37.0409289 23.9803753,36.9121069 23.9814798,36.7781222 Z" id="Rectangle-2" fill="#BE123C"></path>
                </g>
                <path d="M19,38 C19.6686365,37.9875488 20.0029548,37.6774089 20.0029548,37.0695801 C20.0029548,36.4617513 20.3274093,36.4617513 20.9763184,37.0695801 L22.0618896,38 L20.5309448,38 L19,38 Z" id="Path-6" fill="#F4D4DA"></path>
                <path d="M37,20 C37.6686365,19.9875488 38.0029548,19.6774089 38.0029548,19.0695801 C38.0029548,18.4617513 38.0029548,18.8778483 38.0029548,20.3178711 L37.7392578,21.0252686 L37,21.0252686 L37,20 Z" id="Path-6" fill="#F7DADF"></path>
            </g>
        </g>
    </g>
</svg>