<?xml version="1.0" encoding="UTF-8"?>
<svg width="36px" height="38px" viewBox="0 0 36 38" version="1.1" xmlns="http://www.w3.org/2000/svg" xmlns:xlink="http://www.w3.org/1999/xlink">
    <title>remix</title>
    <defs>
        <path d="M6,32 L6,27.6523539 L13.8072809,27.6523539 C15.1113708,27.6523539 15.3945169,28.6326519 15.3945169,29.2171128 L15.3945169,32 L6,32 Z M28.945618,25.5927987 C29.1942472,28.8278367 29.1942472,30.3444828 29.1942472,32 L21.8103371,32 C21.8103371,31.6391541 21.816809,31.3094722 21.8232809,30.9748697 C21.843236,29.9355242 21.8642697,28.8513463 21.6981573,26.6616679 C21.4781124,23.4561537 20.1168539,22.7437565 17.612764,22.7437565 L6,22.7437565 L6,16.9111749 L17.9644045,16.9111749 C21.1270112,16.9111749 22.7083146,15.9357976 22.7083146,13.3535626 C22.7083146,11.0829672 21.1270112,9.70737899 17.9644045,9.70737899 L6,9.70737899 L6,4 L19.2819775,4 C26.4420674,4 30,7.42803585 30,12.9041454 C30,17.0002929 27.4964494,19.6716459 24.1137978,20.1166891 C26.9689888,20.6956827 28.6382022,22.3429988 28.945618,25.5927987 Z" id="path-1"></path>
        <filter x="-29.2%" y="-17.9%" width="158.3%" height="150.0%" filterUnits="objectBoundingBox" id="filter-2">
            <feOffset dx="0" dy="2" in="SourceAlpha" result="shadowOffsetOuter1"></feOffset>
            <feGaussianBlur stdDeviation="2" in="shadowOffsetOuter1" result="shadowBlurOuter1"></feGaussianBlur>
            <feColorMatrix values="0 0 0 0 0.215686275   0 0 0 0 0.57254902   0 0 0 0 0.996078431  0 0 0 0.181948789 0" type="matrix" in="shadowBlurOuter1"></feColorMatrix>
        </filter>
    </defs>
    <g id="Docs" stroke="none" stroke-width="1" fill="none" fill-rule="evenodd">
        <g id="quickstart-secondary-page" transform="translate(-722, -1565)">
            <g id="remix" transform="translate(722, 1565)">
                <g id="Shape" fill-rule="nonzero">
                    <use fill="black" fill-opacity="1" filter="url(#filter-2)" xlink:href="#path-1"></use>
                    <use fill="#3792FE" xlink:href="#path-1"></use>
                </g>
                <rect id="Rectangle" x="0" y="0" width="36" height="36"></rect>
            </g>
        </g>
    </g>
</svg>