<svg height="70" viewBox="0 0 70 70" width="70" xmlns="http://www.w3.org/2000/svg" xmlns:xlink="http://www.w3.org/1999/xlink"><linearGradient id="a" x1="0%" x2="100%" y1="0%" y2="100%"><stop offset="0" stop-color="#a4aebe"/><stop offset="1" stop-color="#2d53f5"/></linearGradient><path d="m27.5 55c15.1627095 0 27.5-12.3361714 27.5-27.5 0-7.3516846-2.8589885-14.2585754-8.0504862-19.44951379-5.1920573-5.19149769-12.0978292-8.05048621-19.4495138-8.05048621-15.1638286 0-27.5 12.3361714-27.5 27.5 0 7.3516846 2.85898852 14.2585754 8.05048621 19.4495138 5.19093839 5.1914977 12.09782919 8.0504862 19.44951379 8.0504862zm0-4.5833333c-5.3554281 0-10.4271952-1.8205771-14.508667-5.1674398l32.2578939-32.2578939c3.3468627 4.0814718 5.1674398 9.1532389 5.1674398 14.508667 0 12.6360575-10.2806092 22.9166667-22.9166667 22.9166667zm0-45.83333337c5.354309 0 10.4271952 1.82057706 14.5075479 5.16743978l-32.25677479 32.25789389c-3.34686272-4.0814718-5.16743978-9.1532389-5.16743978-14.508667 0-12.6360575 10.28060917-22.91666667 22.91666667-22.91666667z" fill="url(#a)" transform="translate(7 7)"/></svg>