<?xml version="1.0" encoding="UTF-8"?>
<svg width="76px" height="76px" viewBox="0 0 76 76" version="1.1" xmlns="http://www.w3.org/2000/svg" xmlns:xlink="http://www.w3.org/1999/xlink">
    <title>revoking-jwts-dark</title>
    <defs>
        <linearGradient x1="-3.88578059e-14%" y1="100%" x2="100%" y2="2.77555756e-15%" id="linearGradient-1">
            <stop stop-color="#3B1730" offset="0%"></stop>
            <stop stop-color="#5E3448" offset="100%"></stop>
        </linearGradient>
        <filter x="-96.1%" y="-93.4%" width="292.1%" height="292.1%" filterUnits="objectBoundingBox" id="filter-2">
            <feOffset dx="0" dy="1" in="SourceAlpha" result="shadowOffsetOuter1"></feOffset>
            <feGaussianBlur stdDeviation="12" in="shadowOffsetOuter1" result="shadowBlurOuter1"></feGaussianBlur>
            <feColorMatrix values="0 0 0 0 0   0 0 0 0 0   0 0 0 0 0  0 0 0 0.5 0" type="matrix" in="shadowBlurOuter1" result="shadowMatrixOuter1"></feColorMatrix>
            <feMerge>
                <feMergeNode in="shadowMatrixOuter1"></feMergeNode>
                <feMergeNode in="SourceGraphic"></feMergeNode>
            </feMerge>
        </filter>
    </defs>
    <g id="revoking-jwts-dark" stroke="none" stroke-width="1" fill="none" fill-rule="evenodd">
        <rect id="Rectangle-Copy-7" fill="url(#linearGradient-1)" x="0" y="0" width="76" height="76" rx="12"></rect>
        <g id="x-circle-fill" filter="url(#filter-2)" transform="translate(21, 19)" fill="#F43F5E" fill-rule="nonzero">
            <path d="M19,0 C29.4936996,0 38,8.50630045 38,19 C38,29.4936996 29.4936996,38 19,38 C8.50630045,38 0,29.4936996 0,19 C0,8.50630045 8.50630045,0 19,0 Z M26.3751611,11.6248389 C25.5420426,10.7917204 24.1912907,10.7917204 23.3581722,11.6248389 L19,15.983 L14.6418278,11.6248389 C13.8087093,10.7917204 12.4579574,10.7917204 11.6248389,11.6248389 C10.7917204,12.4579574 10.7917204,13.8087093 11.6248389,14.6418278 L15.983,19 L11.6248389,23.3581722 C10.7917204,24.1912907 10.7917204,25.5420426 11.6248389,26.3751611 L11.7535595,26.4938805 C12.5917385,27.2061968 13.8503652,27.1666237 14.6418278,26.3751611 L19,22.017 L23.3581722,26.3751611 C24.1912907,27.2082796 25.5420426,27.2082796 26.3751611,26.3751611 C27.2082796,25.5420426 27.2082796,24.1912907 26.3751611,23.3581722 L22.017,19 L26.3751611,14.6418278 C27.2082796,13.8087093 27.2082796,12.4579574 26.3751611,11.6248389 Z" id="Combined-Shape"></path>
        </g>
    </g>
</svg>