<svg xmlns="http://www.w3.org/2000/svg" width="70" height="70"><linearGradient id="a" x1="0%" x2="100%" y1="0%" y2="100%"><stop offset="0" stop-color="#a4aebe"/><stop offset="1" stop-color="#2d53f5"/></linearGradient><path fill="url(#a)" d="M27.5 55C42.663 55 55 42.664 55 27.5c0-7.352-2.859-14.259-8.05-19.45C41.757 2.86 34.852 0 27.5 0 12.336 0 0 12.336 0 27.5c0 7.352 2.859 14.259 8.05 19.45C13.241 52.14 20.148 55 27.5 55zm0-4.583c-5.355 0-10.427-1.82-14.509-5.168L45.25 12.991c3.347 4.082 5.168 9.154 5.168 14.509 0 12.636-10.28 22.917-22.917 22.917zm0-45.834c5.354 0 10.427 1.82 14.508 5.168L9.75 42.009C6.404 37.927 4.583 32.855 4.583 27.5c0-12.636 10.28-22.917 22.917-22.917z" transform="translate(7 7)"/></svg>