<svg xmlns="http://www.w3.org/2000/svg" width="36" height="36"><mask id="a" fill="#fff"><path fill-rule="evenodd" d="M0 0h36v36H0z"/></mask><g fill="#c00" fill-rule="evenodd" mask="url(#a)"><path d="m25.24 14.536.06-.944c.48.03.975.09 1.485.195l-.06.929a8.36 8.36 0 0 0-1.484-.18zm-5.336-5.622h-.15c-.435 0-.87.015-1.304.06l-.285-.884c.495-.06.974-.09 1.44-.09zm.914 6.552-.345-1.035c.375-.165.81-.33 1.32-.48l.33.99a9.49 9.49 0 0 0-1.305.525zm-7.825-6.012.675 1.035c-.39.194-.765.42-1.155.66l-.69-1.05c.405-.24.795-.45 1.17-.645zm4.467 8.86-.72-1.08c.27-.344.585-.689.93-1.004l.675 1.02c-.33.344-.63.69-.885 1.064zm-1.679 4.707-1.214-.96c.12-.539.255-1.094.45-1.648l1.08.854c-.15.585-.256 1.17-.316 1.754zm-8.844-9.01 1.064.93c-.36.375-.705.78-1.02 1.184l-1.154-.99c.345-.374.72-.749 1.11-1.124zM1.75 21.012l1.724.63c-.24.555-.555 1.29-.75 1.799L1 22.81c.15-.404.465-1.154.75-1.799zm12.772 6.746a15.22 15.22 0 0 1-.18-1.889l1.62.585c.09.705.224 1.364.359 1.949zm-.63 1.11H2.05s.435-4.438 3.583-9.685c3.148-5.247 8.515-9.22 12.893-9.609C27.205 8.704 35 16.485 35 16.485s-.255.18-.525.405c-8.208-6.07-13.338-3.53-15.16-2.627a29.25 29.25 0 0 1-.19.093c-7.496 4.183-5.233 14.512-5.233 14.512zM26.785 9.409l-.06 1.005c-.48-.195-.96-.375-1.454-.54l.06-.99c.944.27 1.319.45 1.454.525z"/></g></svg>