<?xml version="1.0" encoding="UTF-8"?>
<svg width="36px" height="36px" viewBox="0 0 36 36" version="1.1" xmlns="http://www.w3.org/2000/svg" xmlns:xlink="http://www.w3.org/1999/xlink">
    <title>spring</title>
    <defs>
        <rect id="path-1" x="0" y="0" width="36" height="36"></rect>
    </defs>
    <g id="Quickstarts" stroke="none" stroke-width="1" fill="none" fill-rule="evenodd">
        <g id="quickstart-secondary-page" transform="translate(-1108, -2443)">
            <g id="spring-api" transform="translate(1088, 2431)">
                <g id="spring" transform="translate(20, 12)">
                    <mask id="mask-2" fill="white">
                        <use xlink:href="#path-1"></use>
                    </mask>
                    <g id="Mask"></g>
                    <path d="M6.60694316,15.3213063 C7.1351307,15.3201376 7.56323323,14.8911931 7.55763407,14.3689491 C7.55180161,13.8492708 7.11320065,13.4256911 6.58874588,13.4333883 C6.06242473,13.4413187 5.6494866,13.8714295 5.65788534,14.4032367 C5.66581748,14.9103195 6.09205363,15.3224701 6.60694316,15.3213063 L6.60694316,15.3213063 Z M25.9436463,27.8115423 C25.9385137,27.2906978 25.4975798,26.863386 24.9770911,26.8748152 C24.4659343,26.8857779 24.0553292,27.3072584 24.0543936,27.8222717 C24.0532295,28.3515132 24.4757329,28.7739267 25.0032205,28.7711415 C25.5304749,28.7680955 25.9487789,28.3414835 25.9436463,27.8115423 L25.9436463,27.8115423 Z M17.0022501,5.77932984 C17.003419,6.28314719 17.428022,6.70929269 17.9373124,6.7174564 C18.4615339,6.72585335 18.8943024,6.30087409 18.8968823,5.77466486 C18.8996682,5.24845564 18.4724989,4.81741191 17.9494439,4.818808 C17.4333879,4.82021089 17.001086,5.25848533 17.0022501,5.77932984 L17.0022501,5.77932984 Z M29.3106085,13.479105 C28.7793881,13.4735071 28.3557183,13.8905559 28.3543149,14.4202638 C28.3529187,14.9343441 28.7635238,15.3595566 29.2735141,15.3723853 C29.7921364,15.385214 30.2379696,14.9600015 30.2501011,14.4412562 C30.2622327,13.9183125 29.8385628,13.4844697 29.3106085,13.479105 L29.3106085,13.479105 Z M11.8568567,27.7919494 C11.8643222,27.2788021 11.4217552,26.8316642 10.9052326,26.8307289 C10.38801,26.8295649 9.95220867,27.2666731 9.95033629,27.7886839 C9.94847589,28.2843375 10.3831108,28.7240115 10.8858688,28.7352074 C11.3956258,28.7466366 11.8493911,28.3057964 11.8568567,27.7919494 L11.8568567,27.7919494 Z M15.3780291,13.7016244 L15.3780291,15.8925301 C15.4426528,15.90186 15.4827801,15.9128227 15.5229074,15.9128227 C16.6973315,15.9132892 17.8724555,15.9328821 19.0461796,15.900927 C19.4308886,15.8904308 19.8389275,15.8069278 20.1888751,15.6506511 C20.881538,15.3415965 20.9356632,14.5511164 20.3279209,14.0909166 C19.9777401,13.8254795 19.5722675,13.7041901 19.1343664,13.7025574 C18.2508654,13.6995251 17.3671312,13.7016244 16.4836302,13.7016244 C16.1220177,13.7016244 15.7606385,13.7016244 15.3780291,13.7016244 L15.3780291,13.7016244 Z M8.43833546,13.6433122 C8.56804936,13.9421038 8.69473038,14.2238684 8.81347926,14.5091316 C9.04724424,15.0705614 8.87833621,15.5076696 8.32215287,15.7623772 C7.76433643,16.0175514 7.20558681,16.2710928 6.63913834,16.5059743 C6.42963639,16.5929761 6.33585044,16.710067 6.32255243,16.9391173 C6.24533067,18.2677023 6.3272184,19.5792601 6.67203341,20.8705253 C6.72265916,21.0599233 6.79871443,21.118702 6.98908591,21.1154365 C7.63462253,21.1044739 8.28039246,21.1112381 8.92592908,21.1112381 C9.29804,21.1112381 9.67038422,21.1112381 10.0613923,21.1112381 L10.0613923,13.6433122 L8.43833546,13.6433122 Z M18.322488,24.8511489 L8.55918402,24.8511489 C8.88790144,25.2367091 9.15689448,25.5389995 9.40955663,25.8541186 C9.53017189,26.0047973 9.65755281,26.0390849 9.84092534,25.9964003 C10.357448,25.876044 10.8774701,25.7715485 11.3958591,25.6591226 C12.0831561,25.5103099 12.4816297,25.7647843 12.6251082,26.445171 C12.7538889,27.055583 12.8747375,27.667861 13.0203157,28.2740746 C13.0492447,28.3941977 13.1511961,28.5451097 13.25828,28.5910597 C16.3707138,29.9280416 19.4959789,29.952766 22.6233437,28.6426076 C22.7318275,28.5971241 22.8433441,28.4555421 22.8718065,28.3389177 C23.0171514,27.7432004 23.1347338,27.1407188 23.2635145,26.5410362 C23.424957,25.7904417 23.802667,25.5485627 24.5492219,25.7130031 C25.0671443,25.8270617 25.5848334,25.9415869 26.1046222,26.0472486 C26.2000412,26.0668415 26.3479524,26.0866676 26.3971783,26.0353529 C26.7433931,25.672651 27.0700109,25.2915225 27.403161,24.9162253 C27.3847304,24.8924339 27.3662998,24.8686425 27.3481026,24.8448512 C27.2246877,24.8448512 27.1010396,24.8448512 26.9776247,24.8448512 C25.5405067,24.8448512 24.1029221,24.8572133 22.6662706,24.8341217 C22.3907452,24.82969 22.073926,24.7492192 21.8515927,24.5950417 C21.2898102,24.205283 20.9141998,23.6557489 20.7541571,22.9795607 C20.5600528,22.1601578 20.4021098,21.3311917 20.1776768,20.5206522 C19.9149828,19.5720294 19.2225532,19.078475 18.2378007,19.0728771 C17.3731969,19.0679788 16.5088264,19.0712443 15.6444559,19.0726438 C15.554636,19.0728771 15.4650494,19.0847727 15.3731299,19.0913037 L15.3731299,21.2269295 C15.5093761,21.2269295 15.621826,21.2269295 15.7342758,21.2269295 C16.4423364,21.2269295 17.1506303,21.2266962 17.8586908,21.2269295 C18.3222547,21.2271627 18.322488,21.227396 18.322488,21.6745339 C18.3227213,22.4139325 18.322488,23.1533311 18.322488,23.8924964 L18.322488,24.8511489 Z M29.6761871,18.7593907 C29.6761871,18.1195893 29.6883186,17.527604 29.6647555,16.9370181 C29.6605561,16.8313564 29.5303756,16.6874419 29.4225918,16.6363604 C28.8216151,16.3508639 28.2082737,16.0919578 27.6021645,15.8171907 C27.016119,15.5517536 26.8493106,15.1118464 27.1085051,14.5163623 C27.4278906,13.7823284 27.7601075,13.0536593 28.070161,12.3156602 C28.1172873,12.2034675 28.1247529,12.0226997 28.0654951,11.9252017 C26.2919608,9.00819258 23.733844,7.18092171 20.4014099,6.43335939 C20.2145379,6.39137462 20.095789,6.43569188 19.9639755,6.56631119 C19.5202419,7.00621838 19.0655434,7.43492962 18.6113114,7.86387411 C18.1272173,8.3210417 17.6643533,8.30658028 17.1979898,7.82258908 C16.8079149,7.41743596 16.4106078,7.01858056 16.0380303,6.59803303 C15.8828868,6.42262995 15.7333426,6.39650609 15.5212744,6.44502183 C13.1745259,6.9819605 11.1602277,8.10388709 9.49727682,9.84882115 C9.44385149,9.90480086 9.3997581,9.96964402 9.31413759,10.0771717 L9.73734085,10.0771717 C13.6327239,10.0771717 17.5278737,10.073673 21.4232568,10.0790377 C22.7371933,10.0809037 23.889454,10.5292078 24.864408,11.4108882 C26.4139758,12.81248 26.470434,14.8081565 24.9906224,16.2752913 C24.6600386,16.6030058 24.270197,16.8712419 23.9069514,17.1658351 C23.8381284,17.2218148 23.765106,17.272663 23.6780857,17.3379727 C24.2995926,17.8172989 24.8742065,18.3064216 25.1427329,19.040922 C25.2920439,19.4491073 25.3869964,19.8768856 25.5153105,20.2932346 C25.5664028,20.458608 25.5992979,20.6615344 25.7140807,20.7697619 C26.172512,21.2022051 26.7270623,21.2525868 27.3161407,21.0893127 C27.8419952,20.9435322 28.156948,20.5934258 28.2463013,20.0669833 C28.3018263,19.741368 28.3069589,19.4045568 28.3076588,19.0728771 C28.3083587,18.8447598 28.3902464,18.7507605 28.6188788,18.7570582 C28.9608943,18.7663882 29.303143,18.7593907 29.6761871,18.7593907 L29.6761871,18.7593907 Z M17.8138976,2 L18.1890414,2 C18.3047574,2.14274825 18.4328382,2.27756604 18.5336231,2.43011073 C18.7342597,2.73403388 18.9180988,3.04868648 19.1119698,3.35704135 C19.2864769,3.63437414 19.5480044,3.66283049 19.7715043,3.42748248 C20.0295323,3.15574766 20.2828943,2.87934787 20.5392893,2.60574706 C20.9865223,2.12852007 21.3290043,2.20129369 21.5611362,2.82266842 C21.6917833,3.17324132 21.818231,3.52568021 21.9526109,3.87485362 C22.0589949,4.15055367 22.3277547,4.23032475 22.5717848,4.05818716 C22.9033018,3.82423864 23.2299195,3.58305941 23.56027,3.34701165 C23.9916387,3.03889003 24.3537178,3.187003 24.4363054,3.70364903 C24.5004625,4.10413717 24.5646196,4.50462531 24.6297098,4.9048802 C24.677536,5.19993989 24.922266,5.34128865 25.191259,5.22279827 C25.5528715,5.06348936 25.9107512,4.89601674 26.2707306,4.7332091 C26.8280805,4.48130043 27.1292687,4.69402331 27.0994065,5.31306555 C27.0819091,5.67693363 27.0709441,6.04126821 27.0625453,6.40560279 C27.0534467,6.79909347 27.2403187,6.9451072 27.6317934,6.85390693 C27.9861736,6.77133686 28.339854,6.68550132 28.6942342,6.60199826 C29.2933445,6.46088275 29.5422738,6.7169899 29.3980954,7.32553594 C29.3143413,7.67960758 29.2298873,8.03367921 29.147533,8.3879841 C29.0612126,8.75908289 29.2088905,8.9480144 29.5842676,8.93961744 C29.9591781,8.93122049 30.3338553,8.9193248 30.7082992,8.90253089 C31.305543,8.87570728 31.5211107,9.18126317 31.2784804,9.71843509 C31.1158714,10.0785712 30.949763,10.4370746 30.7890204,10.7979104 C30.660473,11.0864391 30.7964859,11.3243529 31.1130719,11.3747346 C31.5136452,11.4386448 31.9144518,11.5016219 32.3147918,11.5678646 C32.8119507,11.6499682 32.9603284,12.0122035 32.6656726,12.4304186 C32.4319076,12.7623316 32.1892773,13.0879468 31.9545791,13.4189268 C31.7705067,13.6782995 31.8493615,13.9418706 32.1447173,14.0545297 C32.4944316,14.187948 32.8467121,14.3143689 33.1971263,14.4456879 C33.7971697,14.6705398 33.8704254,15.0204129 33.4089612,15.4528561 C33.1278367,15.716194 32.8439126,15.9769661 32.5653543,16.2428697 C32.34932,16.4490616 32.3794155,16.7205632 32.6341773,16.8817381 C32.9946233,17.1096222 33.3620683,17.3272433 33.7183149,17.5618915 C34.096025,17.810768 34.0932254,18.1923629 33.7138822,18.4386737 C33.3648678,18.6651582 33.0065215,18.8774146 32.6535411,19.0980679 C32.3609849,19.280935 32.3318226,19.5431066 32.5793522,19.7768219 C32.8670091,20.0485567 33.1597986,20.3149268 33.4467556,20.5873613 C33.8454625,20.9654576 33.7698738,21.3279262 33.2493851,21.5280536 C32.8709752,21.6736009 32.4883658,21.8077189 32.1101891,21.9539659 C31.8488949,22.0549626 31.7688736,22.3208662 31.9296162,22.54945 C32.1750461,22.8986234 32.4309744,23.2400996 32.6747712,23.5904393 C32.9537961,23.9911607 32.7974862,24.347798 32.3124588,24.4282688 C31.9121188,24.4947447 31.5113122,24.5577219 31.1107389,24.6211656 C30.7764223,24.6741131 30.6509078,24.9082948 30.7925199,25.2220144 C30.9593282,25.5912472 31.1326689,25.9581475 31.2964444,26.3290131 C31.5012804,26.7934114 31.2798802,27.1122625 30.7682568,27.0961683 C30.3623177,27.0831064 29.9566118,27.064913 29.5506726,27.0562828 C29.218689,27.049052 29.0598128,27.244981 29.1330685,27.5701298 C29.2224218,27.9657197 29.3229734,28.3585106 29.4137264,28.7536341 C29.527576,29.2483547 29.2506509,29.5266205 28.7544252,29.4141946 C28.3487193,29.3225278 27.9462796,29.2163996 27.5403404,29.1265988 C27.2526835,29.0631552 27.0522802,29.2273623 27.0571795,29.5193898 C27.0644117,29.946235 27.0837755,30.3726138 27.093574,30.799459 C27.104539,31.2741203 26.7881864,31.4933741 26.3563511,31.3049091 C25.9658096,31.1344043 25.5820338,30.9478053 25.1926588,30.7742682 C24.922266,30.6539118 24.6742698,30.7919951 24.6266769,31.083556 C24.5597203,31.4943071 24.4985961,31.905758 24.4279067,32.3158093 C24.3448525,32.7967683 23.9816069,32.9500127 23.5849996,32.6712804 C23.2446173,32.4317339 22.9114672,32.1816913 22.5715515,31.941445 C22.3137568,31.7592777 22.0545623,31.8437138 21.9400128,32.1441382 C21.7918683,32.5327307 21.6525891,32.9245886 21.5011785,33.3117815 C21.331104,33.7467905 20.9491945,33.8223631 20.6244432,33.4848521 C20.3358531,33.184661 20.0565949,32.8753731 19.7705711,32.5723829 C19.5470712,32.3358687 19.2827442,32.3601266 19.1101034,32.6337274 C18.8880033,32.9856998 18.674302,33.3430369 18.4503355,33.6936098 C18.1869417,34.1055271 17.8050322,34.1015619 17.539772,33.6849796 C17.3165054,33.3337069 17.1030374,32.9763698 16.880704,32.6243974 C16.7206613,32.3710893 16.4460691,32.3421664 16.2400667,32.5586213 C15.9526431,32.8599787 15.6738515,33.169733 15.385728,33.4703907 C15.0446458,33.8263283 14.6713683,33.7558872 14.4928951,33.3005856 C14.3410178,32.9136259 14.2026719,32.5213015 14.0535942,32.1331755 C13.9395113,31.8353168 13.68125,31.760444 13.4173895,31.947976 C13.0865724,32.1830907 12.7608879,32.4254362 12.428671,32.6589182 C12.010367,32.9532782 11.6492211,32.8042322 11.5678,32.3067126 C11.5020098,31.9064577 11.4385527,31.5057363 11.3743956,31.1052482 C11.3237699,30.7889628 11.0851056,30.6536786 10.7965155,30.7821986 C10.4451681,30.9387086 10.0954539,31.0989505 9.7450397,31.2575596 C9.16925929,31.5178652 8.87087066,31.3067751 8.90259924,30.6669737 C8.92009662,30.3133686 8.93082835,29.9595302 8.93922709,29.6056918 C8.94925892,29.1891095 8.76961916,29.0505597 8.35551454,29.148291 C8.00136759,29.231794 7.64722065,29.3152971 7.2928404,29.3985669 C6.71216073,29.5345509 6.45973188,29.2751783 6.59947761,28.6857587 C6.68579801,28.3216573 6.7739848,27.9580225 6.85797222,27.5932214 C6.93822686,27.2447478 6.78494982,27.0488188 6.43360246,27.0562828 C6.04842683,27.0644465 5.6632512,27.0782081 5.27830887,27.0945356 C4.70229516,27.1190267 4.48346128,26.8088058 4.71652637,26.2902938 C4.87843544,25.9299244 5.04524379,25.5716543 5.20668627,25.2110517 C5.34036624,24.9124933 5.21531831,24.6741131 4.90153198,24.6234981 C4.50119196,24.5586549 4.10038534,24.4952112 3.69981201,24.4308346 C3.1977539,24.3498973 3.03981089,23.9906942 3.32956748,23.5776106 C3.56869832,23.2368341 3.8176277,22.9028219 4.05745844,22.5627452 C4.22986594,22.3183005 4.14984459,22.0535631 3.86965324,21.9455689 C3.4718795,21.7925577 3.06943979,21.6514422 2.67236594,21.4967983 C2.25359534,21.3339906 2.1728741,20.9523957 2.49319278,20.6398423 C2.78388257,20.3562118 3.08553737,20.0837772 3.38229292,19.8066777 C3.68068155,19.5281787 3.65245244,19.2935304 3.30880393,19.0684453 C2.86856988,18.7801499 2.43580138,18.4804252 2,18.1855987 C2,18.0605774 2,17.9355561 2,17.8105347 C2.14301191,17.6953098 2.27809167,17.567956 2.43066881,17.4674258 C2.72579127,17.2728963 3.03164545,17.094461 3.33166717,16.9073955 C3.644287,16.7121662 3.6725161,16.4553593 3.40818904,16.2074159 C3.10466784,15.9223859 2.79414769,15.6445866 2.49575906,15.3541919 C2.17474049,15.0414053 2.25429524,14.6637755 2.67516552,14.4979357 C3.07153947,14.3418922 3.47421248,14.2014765 3.87198622,14.0489318 C4.15381067,13.9407043 4.23406531,13.6799322 4.06072461,13.4333883 C3.82136047,13.0930783 3.5724311,12.7592993 3.33306696,12.4187561 C3.04191058,12.0047395 3.1977539,11.6455364 3.69934542,11.5652989 C4.11018387,11.4995227 4.52148892,11.4367788 4.93186077,11.3684369 C5.20108711,11.3234199 5.33919975,11.067546 5.22744982,10.8161038 C5.05434242,10.4268116 4.8695701,10.0426509 4.69786249,9.65265894 C4.50165856,9.20738703 4.72352532,8.88270474 5.21205213,8.89599992 C5.61799132,8.90719586 6.0234639,8.92865475 6.42940309,8.9384512 C6.7879827,8.94684815 6.94265953,8.75745015 6.86333808,8.40967623 C6.77538459,8.02458251 6.67739927,7.64182128 6.58851259,7.25696081 C6.46813062,6.73634955 6.73852345,6.46368174 7.25761235,6.58287186 C7.65258651,6.67360563 8.04546099,6.7743691 8.44090174,6.86393663 C8.74722252,6.93344476 8.94902562,6.77203661 8.94295986,6.4606495 C8.93479442,6.04430044 8.91636385,5.62841789 8.90376573,5.21230208 C8.88883464,4.72014717 9.20682033,4.49762784 9.65405333,4.69332356 C10.0347963,4.85986318 10.4108733,5.037832 10.7899832,5.20833685 C11.0830059,5.3401224 11.3249363,5.21136908 11.3753288,4.89974872 C11.4401857,4.49926058 11.5038762,4.09877244 11.5687332,3.69851755 C11.6503876,3.19679945 12.0089672,3.03958977 12.4223719,3.32881825 C12.7634542,3.56743174 13.0975375,3.81607493 13.4376865,4.05562142 C13.6861493,4.23032475 13.9455771,4.15265291 14.0535942,3.87088839 C14.1912403,3.51191854 14.320021,3.14944994 14.455334,2.78978034 C14.6723015,2.21295613 15.0292481,2.13808327 15.445919,2.58125594 C15.6955482,2.84669304 15.944011,3.11329639 16.1924738,3.38013298 C16.471732,3.67985765 16.7052636,3.65210105 16.9303966,3.30829236 C17.2187534,2.86815193 17.5187751,2.4357087 17.8138976,2 L17.8138976,2 Z" id="Fill-1" fill="#000000" mask="url(#mask-2)"></path>
                </g>
            </g>
        </g>
    </g>
</svg>