<svg xmlns="http://www.w3.org/2000/svg" width="70" height="70"><linearGradient id="a" x1="0%" x2="100%" y1="12.021%" y2="87.979%"><stop offset="0" stop-color="#a4aebe"/><stop offset="1" stop-color="#2d53f5"/></linearGradient><path fill="url(#a)" d="M59.736 49.382 31.676.965c-.743-1.283-2.605-1.29-3.353 0L.263 49.382c-.747 1.29.185 2.91 1.677 2.91h56.12c1.49 0 2.425-1.619 1.676-2.91zm-29.175-.966h-1.176c-10.306-.421-16.738-11.383-12.168-20.557l.902-1.557c2.556-3.829 6.915-6.356 11.854-6.356 7.853 0 14.242 6.388 14.242 14.241 0 7.656-6.073 13.92-13.654 14.229zM30 5.802l6.702 11.564a18.11 18.11 0 0 0-13.387-.03zM5.303 48.416l6.74-11.628a18.124 18.124 0 0 0 6.726 11.628zm35.874 0a18.123 18.123 0 0 0 6.737-11.703l6.782 11.703z" transform="translate(5 8.887)"/></svg>