<svg height="70" viewBox="0 0 70 70" width="70" xmlns="http://www.w3.org/2000/svg" xmlns:xlink="http://www.w3.org/1999/xlink"><linearGradient id="a" x1="0%" x2="100%" y1="12.021406%" y2="87.978594%"><stop offset="0" stop-color="#a4aebe"/><stop offset="1" stop-color="#2d53f5"/></linearGradient><path d="m59.7364485 49.3822004-28.0597039-48.41691906c-.7435937-1.28316047-2.605575-1.29091726-3.3536347 0l-28.05970387 48.41691906c-.74723707 1.2893894.18416491 2.9098525 1.67687613 2.9098525h56.11940764c1.4903607 0 2.4250535-1.6187002 1.6767587-2.9098525zm-29.1755058-.9663075h-1.1759758c-10.3064183-.4208645-16.7376167-11.3828487-12.1679294-20.5566587l.9022552-1.556881c2.5555085-3.8291492 6.9147048-6.3566862 11.8536621-6.3566862 7.8529233 0 14.2416944 6.3887711 14.2416944 14.2415769 0 7.6558304-6.0725058 13.9190827-13.6537065 14.228649zm-.5609567-42.61378528 6.7016282 11.56360528c-4.1797325-1.6779339-8.9968142-1.7694875-13.3863325-.0290292zm-24.6965494 42.61378528 6.7390018-11.6281277c.6780136 4.696499 3.1632409 8.8161751 6.7266615 11.6281277zm35.8732556 0c3.5824599-2.826996 6.0749739-6.9757013 6.7372389-11.7032275l6.7824868 11.7032275z" fill="url(#a)" transform="translate(5.000419 8.887233)"/></svg>