<?xml version="1.0" encoding="UTF-8"?>
<svg width="76px" height="76px" viewBox="0 0 76 76" version="1.1" xmlns="http://www.w3.org/2000/svg" xmlns:xlink="http://www.w3.org/1999/xlink">
    <title>saml-vs-oauth</title>
    <defs>
        <linearGradient x1="-3.88578059e-14%" y1="100%" x2="100%" y2="2.77555756e-15%" id="linearGradient-1">
            <stop stop-color="#E7E6F1" offset="0%"></stop>
            <stop stop-color="#F0F1FD" offset="100%"></stop>
        </linearGradient>
    </defs>
    <g id="saml-vs-oauth" stroke="none" stroke-width="1" fill="none" fill-rule="evenodd">
        <rect id="Rectangle-Copy-6" fill="url(#linearGradient-1)" x="0" y="0" width="76" height="76" rx="12"></rect>
        <g id="Group" transform="translate(19, 20)">
            <circle id="Oval" fill="#6366F1" cx="8.00001447" cy="12" r="8"></circle>
            <circle id="Oval" fill="#4338CA" cx="30.0000145" cy="8" r="8"></circle>
            <line x1="2.00001444" y1="27.9999999" x2="36.0000145" y2="21.0000001" id="Line" fill="#4338CA" transform="translate(19, 24.5) rotate(-0) translate(-19, -24.5)"></line>
            <path d="M35.5114741,19.0414805 C36.5879205,18.8187569 37.6402124,19.5151761 37.8618337,20.5969763 C38.0834551,21.6787765 37.3904824,22.7363019 36.3140359,22.9590255 L2.48474374,29.9585195 C1.40829728,30.1812431 0.356005421,29.4848239 0.134384091,28.4030237 C-0.0872372395,27.3212235 0.605735448,26.2636981 1.68218191,26.0409745 L35.5114741,19.0414805 Z" id="Line" fill="#6366F1" fill-rule="nonzero" transform="translate(18.9981, 24.5) rotate(1) translate(-18.9981, -24.5)"></path>
            <path d="M20.7888689,23.5777088 L25.5528009,33.1055728 C26.0467794,34.0935298 25.6463307,35.2948759 24.6583737,35.7888544 C24.3806628,35.9277098 24.0744367,36 23.7639465,36 L14.2360824,36 C13.1315129,36 12.2360824,35.1045695 12.2360824,34 C12.2360824,33.6895098 12.3083726,33.3832837 12.4472281,33.1055728 L17.2111601,23.5777088 C17.7051386,22.5897518 18.9064847,22.1893031 19.8944417,22.6832816 C20.2814965,22.876809 20.5953414,23.190654 20.7888689,23.5777088 Z" id="Triangle" fill="#6366F1"></path>
        </g>
    </g>
</svg>