<svg width="46" height="45" viewBox="0 0 46 45" fill="none" xmlns="http://www.w3.org/2000/svg">
<path d="M37.8333 14.1667L43.6667 17.6667L38.6667 20.8246V33.5L22.8333 43.5L7 33.5L7 20.8246L2 17.6667L7.83333 14.1667L11.1667 12.1667V1.83337H34.5V12.1667L37.8333 14.1667Z" fill="#20244A"/>
<path d="M37.8333 14.1667L43.6667 17.6667L38.6667 20.8246M37.8333 14.1667L34.5 16.426M37.8333 14.1667L34.5 12.1667M22.8333 24.3334L27.8333 27.6667L38.6667 20.8246M22.8333 24.3334V43.5M22.8333 24.3334L17.8333 27.6667L7 20.8246M22.8333 24.3334L11.1667 16.426M22.8333 24.3334L34.5 16.426M22.8333 43.5L38.6667 33.5V20.8246M22.8333 43.5L7 33.5L7 20.8246M7.83333 14.1667L2 17.6667L7 20.8246M7.83333 14.1667L11.1667 16.426M7.83333 14.1667L11.1667 12.1667M11.1667 16.426V12.1667M34.5 16.426V12.1667M34.5 12.1667V1.83337H11.1667V12.1667" stroke="#585BEF" stroke-width="1.66667"/>
<path d="M11.1666 15.5926L22.8333 23.5L34.5 15.5926V11.3333V1H11.1666V11.3333V15.5926Z" fill="#9BABFC" stroke="#585BEF" stroke-width="1.66667"/>
<path d="M17.7499 7.70454C17.7093 7.38468 17.5448 7.13636 17.2564 6.95959C16.968 6.78283 16.6142 6.69444 16.195 6.69444C15.8885 6.69444 15.6204 6.74074 15.3905 6.83333C15.1629 6.92592 14.9849 7.05324 14.8565 7.21528C14.7303 7.37731 14.6672 7.56145 14.6672 7.76767C14.6672 7.94023 14.7111 8.08859 14.799 8.21275C14.8891 8.3348 15.0041 8.43687 15.1438 8.51894C15.2835 8.5989 15.43 8.66519 15.5832 8.7178C15.7364 8.7683 15.8773 8.80934 16.0057 8.8409L16.7088 9.01767C16.8891 9.06186 17.0896 9.12289 17.3105 9.20075C17.5336 9.27861 17.7465 9.38488 17.9493 9.51956C18.1544 9.65214 18.3234 9.82259 18.4564 10.0309C18.5893 10.2393 18.6558 10.4949 18.6558 10.798C18.6558 11.1473 18.5578 11.4629 18.3617 11.7449C18.1679 12.0269 17.884 12.251 17.5099 12.4173C17.1381 12.5836 16.6863 12.6667 16.1545 12.6667C15.6587 12.6667 15.2294 12.5919 14.8666 12.4425C14.506 12.2931 14.2221 12.0848 14.0148 11.8175C13.8097 11.5503 13.6937 11.2399 13.6666 10.8864H14.532C14.5545 11.1305 14.6424 11.3325 14.7956 11.4924C14.9511 11.6502 15.1472 11.7681 15.3838 11.8459C15.6226 11.9217 15.8795 11.9596 16.1545 11.9596C16.4744 11.9596 16.7618 11.9112 17.0164 11.8144C17.271 11.7155 17.4727 11.5787 17.6215 11.404C17.7702 11.2273 17.8445 11.021 17.8445 10.7853C17.8445 10.5707 17.7803 10.396 17.6519 10.2614C17.5234 10.1267 17.3544 10.0172 17.1448 9.93307C16.9353 9.84889 16.7088 9.77524 16.4654 9.71211L15.6136 9.48484C15.0728 9.33964 14.6446 9.13236 14.3291 8.863C14.0137 8.59364 13.8559 8.24116 13.8559 7.80555C13.8559 7.4436 13.9607 7.12794 14.1703 6.85858C14.3821 6.58712 14.666 6.37668 15.0221 6.22727C15.3804 6.07576 15.7804 6 16.2221 6C16.6682 6 17.0649 6.07471 17.4119 6.22412C17.7589 6.37142 18.0338 6.57344 18.2367 6.83018C18.4417 7.08691 18.5499 7.37836 18.5612 7.70454H17.7499ZM22.1703 12.553H20.0341V6.08838H22.265C22.9365 6.08838 23.5112 6.2178 23.9889 6.47664C24.4666 6.73337 24.8328 7.10269 25.0875 7.5846C25.3421 8.06439 25.4694 8.63889 25.4694 9.30807C25.4694 9.98147 25.341 10.5612 25.0841 11.0473C24.8272 11.5313 24.4531 11.9038 23.9619 12.1648C23.4706 12.4236 22.8734 12.553 22.1703 12.553ZM20.8723 11.8586H22.1163C22.6886 11.8586 23.163 11.7555 23.5393 11.5492C23.9156 11.343 24.1962 11.0494 24.381 10.6685C24.5658 10.2877 24.6582 9.83416 24.6582 9.30807C24.6582 8.78619 24.5669 8.3369 24.3844 7.96022C24.2019 7.58143 23.9292 7.29103 23.5664 7.08902C23.2036 6.88489 22.7517 6.78283 22.2109 6.78283H20.8723V11.8586ZM26.8756 12.553V6.08838H27.7139V9.29545H27.795L30.9048 6.08838H32L29.093 9.00504L32 12.553H30.9859L28.5792 9.54797L27.7139 10.4571V12.553H26.8756Z" fill="#232951"/>
</svg>
