<?xml version="1.0" encoding="UTF-8"?>
<svg width="72px" height="72px" viewBox="0 0 72 72" version="1.1" xmlns="http://www.w3.org/2000/svg" xmlns:xlink="http://www.w3.org/1999/xlink">
    <title>sdks</title>
    <defs>
        <linearGradient x1="-4.65773253e-13%" y1="100%" x2="99.1550911%" y2="-1.37875822e-12%" id="linearGradient-1">
            <stop stop-color="#BCD5E2" offset="0%"></stop>
            <stop stop-color="#E0F2FE" offset="100%"></stop>
        </linearGradient>
    </defs>
    <g id="sdks" stroke="none" stroke-width="1" fill="none" fill-rule="evenodd">
        <g id="Docs-Icons-/-Light-/docs-resources-sdks-sky-light">
            <rect id="Rectangle-Copy-6" fill="url(#linearGradient-1)" x="0" y="0" width="72" height="72" rx="12"></rect>
            <g id="box-seam-fill" transform="translate(17, 17)" fill-rule="nonzero">
                <path d="M0,10.55555 L0,25.2024174 C0,27.7547517 1.73005675,30.5266647 4.02420137,31.666666 L16.8888909,38 L16.8888909,18.801565 C16.3041132,18.7213426 15.2314586,18.4004646 14.5797584,18.0753535 L1.18750013,11.412673 C0.66647785,11.15371 0.270644475,10.8680023 0,10.55555 Z M38,10.55555 C37.7293571,10.8680023 37.3335251,11.15371 36.812504,11.412673 L23.4202456,18.0753535 C22.7685464,18.4004646 21.6958918,18.7213426 21.1111131,18.801565 L21.1111131,38 L33.9758032,31.666666 C36.2699485,30.5266647 38,27.7547517 38,25.2024174 L38,10.55555 Z" id="Vector" fill="#0EA5E9"></path>
                <path d="M18.9670019,0.000801552061 C17.4556651,0.0175792343 15.9921361,0.319589794 14.8685231,0.852281138 C13.5714602,1.46886095 9.31898954,3.54439595 2.11111111,7.07888613 C3.70684515,7.86953442 5.79204474,8.90975093 8.45681899,10.2247023 L25.3127088,1.83586044 C24.5791454,1.47514035 23.8015878,1.08087711 23.3294656,0.852281138 C22.0434027,0.22940974 20.4781268,-0.0159761302 18.9670019,0.000801552061 Z M29.8735827,4.06517047 L12.9516957,12.4540114 C13.9615088,12.9510508 16.2389835,14.148607 16.5211558,14.2870227 C17.8370436,14.9413524 20.2289526,14.9413524 21.5448404,14.2870227 L35.8888889,7.07888613 C33.6193824,5.93099655 31.6142803,4.92642466 29.8735827,4.06517047 Z" id="Vector" fill="#0369A1"></path>
            </g>
        </g>
    </g>
</svg>