<?xml version="1.0" encoding="UTF-8"?>
<svg width="54px" height="54px" viewBox="0 0 54 54" version="1.1" xmlns="http://www.w3.org/2000/svg" xmlns:xlink="http://www.w3.org/1999/xlink">
    <title>securing-gaming-user-accounts</title>
    <g id="securing-gaming-user-accounts" stroke="none" stroke-width="1" fill="none" fill-rule="evenodd">
        <rect id="Rectangle" fill="#F1F5F9" x="0" y="0" width="54" height="54" rx="5"></rect>
        <path d="M40.3066552,14.9240996 L27.2797639,11.0407988 C27.0973628,10.9864004 26.9029616,10.9864004 26.7204956,11.0407988 L13.6933448,14.9240996 C13.2818396,15.0467539 13,15.4231602 13,15.8500977 L13,30.0888242 C13,31.9408203 13.7545776,33.8366445 15.2426517,35.7236387 C16.379156,37.1648105 17.9515549,38.6119766 19.9159995,40.0249824 C23.2161496,42.3986621 26.4658345,43.8547871 26.6025705,43.9155664 C26.7289929,43.971834 26.8645613,44 27.0001297,44 C27.1356981,44 27.2712665,43.9718984 27.3976889,43.9155664 C27.5343601,43.8547871 30.7839801,42.3986621 34.0841302,40.0249824 C36.0485748,38.6119766 37.6209089,37.1648105 38.757478,35.7236387 C40.2455521,33.836709 41,31.9408848 41,30.0888242 L41,15.8500977 C41,15.4231602 40.7182902,15.0467539 40.3066552,14.9240996 Z" id="Path" fill="#CBD5E1" fill-rule="nonzero"></path>
        <g id="Group" transform="translate(20, 20)" fill="#4338CA" fill-rule="nonzero">
            <path d="M7,0 C3.1339,0 0,3.1339 0,7 C0,10.8661 3.1339,14 7,14 C10.8661,14 14,10.8661 14,7 C14,3.1339 10.8661,0 7,0 Z M7,1.925 C8.2565,1.925 9.275,2.9435 9.275,4.2 C9.275,5.4565 8.2565,6.475 7,6.475 C5.7435,6.475 4.725,5.4565 4.725,4.2 C4.725,2.9435 5.7435,1.925 7,1.925 Z M7,12.6 C5.061,12.6 3.353,11.6144 2.3478,10.1171 C3.1325,8.9761 5.6322,8.4 7,8.4 C8.3678,8.4 10.8675,8.9761 11.6522,10.1171 C10.647,11.6144 8.939,12.6 7,12.6 Z" id="Shape"></path>
        </g>
        <path d="M40.3066552,14.9240996 L27.2797639,11.0407988 C27.0973628,10.9864004 27.182466,10.9864004 27,11.0407988 C27,33.0135996 27,44 27,44 C27.0002595,44 27.2712665,43.9718984 27.3976889,43.9155664 C27.5343601,43.8547871 30.7839801,42.3986621 34.0841302,40.0249824 C36.0485748,38.6119766 37.6209089,37.1648105 38.757478,35.7236387 C40.2455521,33.836709 41,31.9408848 41,30.0888242 L41,15.8500977 C41,15.4231602 40.7182902,15.0467539 40.3066552,14.9240996 Z" id="Path" fill="#4338CA" fill-rule="nonzero" opacity="0.113887969"></path>
    </g>
</svg>