<svg height="70" viewBox="0 0 70 70" width="70" xmlns="http://www.w3.org/2000/svg" xmlns:xlink="http://www.w3.org/1999/xlink"><linearGradient id="a" x1="0%" x2="100%" y1="0%" y2="100%"><stop offset="0" stop-color="#a4aebe"/><stop offset="1" stop-color="#2d53f5"/></linearGradient><path d="m23.1875 0c12.7857531 0 23.1875 10.4017469 23.1875 23.1875 0 1.3460228-.1176873 2.6899347-.3511389 4.0123138 2.1697833 1.0870714 3.6636389 3.3349171 3.6636389 5.9251862v1.65625c1.8260156 0 3.3125 1.4856563 3.3125 3.3125v11.59375c0 1.8268438-1.4864844 3.3125-3.3125 3.3125h-13.25c-1.8260156 0-3.3125-1.4856562-3.3125-3.3125l-.00042-5.548826c-3.0843611 1.4694881-6.4700039 2.236326-9.93708 2.236326-6.0827853 0-11.6259858-2.3542828-15.76626408-6.199511-.01652535-.012538-.03223084-.0263903-.04766499-.040532l-.06303234-.0629465c-4.49790624-4.2319625-7.31053859-10.2359189-7.31053859-16.8845105 0-12.7857531 10.4017469-23.1875 23.1875-23.1875zm13.999884 38.0943591-.749884-.0006091v11.59375h13.2516562l-.0016562-11.59375-12.4482161.001202c-.0173297.0000761-.0346316-.0001224-.0518999-.0005929zm-13.9997184-9.9379435c-6.1853257 0-11.4679518 4.2195012-12.8808567 10.1547226 3.4716828 2.9619354 7.9711939 4.7513618 12.8806911 4.7513618 3.515557 0 6.9322664-.9192962 9.9376426-2.6661639l-.0001426-2.3025861c0-1.2618857.7092472-2.3609805 1.749733-2.9200945-2.2664829-4.265122-6.7472286-7.0172399-11.6870674-7.0172399zm-.0001656-24.8439156c-10.9597375 0-19.875 8.9160906-19.875 19.875 0 4.6911823 1.63382078 9.0080301 4.3623138 12.4113949 1.64085909-4.4183283 5.0703087-7.8729427 9.3603399-9.5811762-2.303976-1.8210436-3.7851537-4.6401721-3.7851537-7.7989687 0-5.4798688 4.4576313-9.9375 9.9375-9.9375 5.4798688 0 9.9375 4.4576312 9.9375 9.9375 0 3.1637804-1.4858552 5.9868199-3.7964383 7.8079915 2.8982821 1.1597341 5.4269688 3.1222456 7.2675237 5.662004.6359904-2.8757364 3.1482996-5.0545232 6.1831206-5.1827705.1887567-1.0936118.283294-2.2050996.283294-3.318475 0-10.9589094-8.9152625-19.875-19.875-19.875zm19.875 26.5c-1.8260156 0-3.3125 1.4856563-3.3125 3.3125v1.65625h6.625v-1.65625c0-1.5572268-1.0800933-2.8665436-2.5298896-3.2190988-.0450492-.0054912-.0895443-.0145389-.1340229-.025495l-.0334548-.0106331c-.1993832-.0376008-.40501-.0572731-.6151327-.0572731zm-19.875-18.21875c-3.653025 0-6.625 2.971975-6.625 6.625s2.971975 6.625 6.625 6.625 6.625-2.971975 6.625-6.625-2.971975-6.625-6.625-6.625z" fill="url(#a)" transform="translate(9 8)"/></svg>