<?xml version="1.0" encoding="UTF-8"?>
<svg width="70px" height="70px" viewBox="0 0 70 70" version="1.1" xmlns="http://www.w3.org/2000/svg" xmlns:xlink="http://www.w3.org/1999/xlink">
    <title>security</title>
    <defs>
        <linearGradient x1="22.1918989%" y1="0%" x2="77.8081011%" y2="100%" id="linearGradient-1">
            <stop stop-color="#A4AEBE" offset="0%"></stop>
            <stop stop-color="#2D53F5" offset="100%"></stop>
        </linearGradient>
    </defs>
    <g id="security" stroke="none" stroke-width="1" fill="none" fill-rule="evenodd">
        <g id="006-padlock" transform="translate(13.000000, 6.000000)" fill="url(#linearGradient-1)" fill-rule="nonzero">
            <path d="M22,0 C30.0886667,0 36.6666667,6.615375 36.6666667,14.75 L36.666,22.124 L38.5,22.125 C41.5311111,22.125 44,24.6054583 44,27.65625 L44,53.46875 C44,56.5195417 41.5311111,59 38.5,59 L5.5,59 C2.46888889,59 0,56.5195417 0,53.46875 L0,27.65625 C0,24.6054583 2.46888889,22.125 5.5,22.125 L7.333,22.124 L7.33333333,14.75 C7.33333333,6.615375 13.9113333,0 22,0 Z M38.5,25.8125 L5.5,25.8125 C4.49044444,25.8125 3.66666667,26.6385 3.66666667,27.65625 L3.66666667,53.46875 C3.66666667,54.4865 4.49044444,55.3125 5.5,55.3125 L38.5,55.3125 C39.5095556,55.3125 40.3333333,54.4865 40.3333333,53.46875 L40.3333333,27.65625 C40.3333333,26.6385 39.5095556,25.8125 38.5,25.8125 Z M22,3.6875 C15.9353333,3.6875 11,8.650875 11,14.75 L11,22.124 L33,22.124 L33,14.75 C33,8.650875 28.0646667,3.6875 22,3.6875 Z" id="Combined-Shape"></path>
        </g>
    </g>
</svg>