<svg xmlns="http://www.w3.org/2000/svg" width="70" height="70"><linearGradient id="a" x1="0%" x2="100%" y1="0%" y2="100%"><stop offset="0" stop-color="#a4aebe"/><stop offset="1" stop-color="#2d53f5"/></linearGradient><path fill="url(#a)" d="M23.188 0c12.785 0 23.187 10.402 23.187 23.188 0 1.346-.118 2.69-.351 4.012a6.63 6.63 0 0 1 3.663 5.925v1.656A3.316 3.316 0 0 1 53 38.094v11.593A3.316 3.316 0 0 1 49.687 53h-13.25a3.316 3.316 0 0 1-3.312-3.313V44.14a23.07 23.07 0 0 1-9.937 2.236 23.102 23.102 0 0 1-15.767-6.2.677.677 0 0 1-.047-.04l-.063-.063C2.813 35.84 0 29.836 0 23.187 0 10.402 10.402 0 23.188 0zm14 38.094h-.75v11.593h13.251l-.002-11.593-12.448.001h-.052zm-14-9.938a13.203 13.203 0 0 0-12.881 10.155 19.784 19.784 0 0 0 12.88 4.752c3.516 0 6.933-.92 9.938-2.667v-2.302c0-1.262.71-2.361 1.75-2.92a13.251 13.251 0 0 0-11.687-7.018zm0-24.843c-10.96 0-19.875 8.916-19.875 19.875a19.78 19.78 0 0 0 4.362 12.41 16.495 16.495 0 0 1 9.36-9.58 9.924 9.924 0 0 1-3.785-7.8c0-5.48 4.458-9.937 9.938-9.937s9.937 4.458 9.937 9.938a9.925 9.925 0 0 1-3.796 7.808 16.598 16.598 0 0 1 7.267 5.662 6.634 6.634 0 0 1 6.183-5.183 19.5 19.5 0 0 0 .283-3.319c0-10.958-8.915-19.875-19.874-19.875zm19.875 26.5a3.316 3.316 0 0 0-3.313 3.312v1.656h6.625v-1.656a3.318 3.318 0 0 0-2.53-3.22 1.134 1.134 0 0 1-.134-.025l-.033-.01a3.317 3.317 0 0 0-.615-.058zm-19.876-18.22c-3.653 0-6.625 2.973-6.625 6.626s2.972 6.625 6.625 6.625 6.625-2.972 6.625-6.625-2.971-6.625-6.625-6.625z" transform="translate(9 8)"/></svg>