<?xml version="1.0" encoding="UTF-8"?>
<svg width="54px" height="54px" viewBox="0 0 54 54" version="1.1" xmlns="http://www.w3.org/2000/svg" xmlns:xlink="http://www.w3.org/1999/xlink">
    <title>security</title>
    <g id="security" stroke="none" stroke-width="1" fill="none" fill-rule="evenodd">
        <rect id="Rectangle" fill="#F1F5F9" x="0" y="0" width="54" height="54" rx="5"></rect>
        <path d="M44.133319,11.8753965 L27.8497049,7.05068945 C27.6217035,6.98310352 27.378702,6.98310352 27.1506195,7.05068945 L10.866681,11.8753965 C10.3522995,12.0277852 10,12.4954414 10,13.0258789 L10,30.716418 C10,33.0173828 10.943222,35.3728008 12.8033146,37.717248 C14.223945,39.5077949 16.1894436,41.3057891 18.6449994,43.0613418 C22.770187,46.010459 26.8322932,47.819584 27.0032131,47.8950977 C27.1612412,47.9650059 27.3307017,48 27.5001622,48 C27.6696227,48 27.8390832,47.9650859 27.9971112,47.8950977 C28.1679501,47.819584 32.2299752,46.010459 36.3551628,43.0613418 C38.8107185,41.3057891 40.7761361,39.5077949 42.1968475,37.717248 C44.0569401,35.3728809 45,33.0174629 45,30.716418 L45,13.0258789 C45,12.4954414 44.6478627,12.0277852 44.133319,11.8753965 Z" id="Path" fill="#CBD5E1" fill-rule="nonzero"></path>
        <g id="Group" transform="translate(19, 16)" fill-rule="nonzero">
            <path d="M13.25,7.175 L11.2,7.175 L11.2,5.125 C11.2,4.6125 10.995,2.05 8.125,2.05 C5.255,2.05 5.05,4.6125 5.05,5.125 L5.05,7.175 L3,7.175 L3,5.125 C3,3.3825 4.025,0 8.125,0 C12.225,0 13.25,3.3825 13.25,5.125 L13.25,7.175 Z" id="Path" fill="#1E293B"></path>
            <path d="M14.555,18.3 L1.845,18.3 C0.82,18.3 0,17.48 0,16.455 L0,7.845 C0,6.82 0.82,6 1.845,6 L14.555,6 C15.58,6 16.4,6.82 16.4,7.845 L16.4,16.455 C16.4,17.48 15.58,18.3 14.555,18.3" id="Path" fill="#E11D48"></path>
            <path d="M10.1,12.05 C10.1,13.1775 9.1775,14.1 8.05,14.1 C6.9225,14.1 6,13.1775 6,12.05 C6,10.9225 6.9225,10 8.05,10 C9.1775,10 10.1,10.9225 10.1,12.05" id="Path" fill="#FFFFFF"></path>
        </g>
    </g>
</svg>