<svg xmlns="http://www.w3.org/2000/svg" width="70" height="70"><defs><linearGradient id="a" x1="22.192%" x2="77.808%" y1="0%" y2="100%"><stop offset="0%" stop-color="#A4AEBE"/><stop offset="100%" stop-color="#2D53F5"/></linearGradient></defs><path fill="url(#a)" d="M22 0c8.089 0 14.667 6.615 14.667 14.75l-.001 7.374 1.834.001c3.031 0 5.5 2.48 5.5 5.531V53.47c0 3.049-2.469 5.53-5.5 5.53h-33C2.469 59 0 56.52 0 53.469V27.656c0-3.05 2.469-5.531 5.5-5.531l1.833-.001V14.75C7.333 6.615 13.911 0 22 0Zm16.5 25.813h-33a1.84 1.84 0 0 0-1.833 1.843V53.47A1.84 1.84 0 0 0 5.5 55.312h33a1.84 1.84 0 0 0 1.833-1.843V27.656a1.84 1.84 0 0 0-1.833-1.843ZM22 3.688c-6.065 0-11 4.963-11 11.062v7.374h22V14.75c0-6.1-4.935-11.063-11-11.063Z" transform="translate(13 6)"/></svg>