<?xml version="1.0" encoding="UTF-8"?>
<svg width="54px" height="54px" viewBox="0 0 54 54" version="1.1" xmlns="http://www.w3.org/2000/svg" xmlns:xlink="http://www.w3.org/1999/xlink">
    <title>security</title>
    <g id="security" stroke="none" stroke-width="1" fill="none" fill-rule="evenodd">
        <rect id="Rectangle" fill="#F1F5F9" x="0" y="0" width="54" height="54" rx="5"></rect>
        <g id="Group-2" transform="translate(13, 11)" fill-rule="nonzero">
            <path d="M28.2818929,3.92409961 L14.7897555,0.0407988281 C14.60084,-0.0135996094 14.3994959,-0.0135996094 14.2105133,0.0407988281 L0.718107139,3.92409961 C0.291905278,4.04675391 0,4.42316016 0,4.85009766 L0,19.0888242 C0,20.9408203 0.781526836,22.8366445 2.3227464,24.7236387 C3.49984015,26.1648105 5.12839616,27.6119766 7.16299946,29.0249824 C10.5810121,31.3986621 13.9467572,32.8547871 14.0883766,32.9155664 C14.2193141,32.971834 14.3597242,33 14.5001344,33 C14.6405445,33 14.7809546,32.9718984 14.9118921,32.9155664 C15.0534443,32.8547871 18.4191223,31.3986621 21.8371349,29.0249824 C23.8717382,27.6119766 25.500227,26.1648105 26.677388,24.7236387 C28.2186075,22.836709 29,20.9408848 29,19.0888242 L29,4.85009766 C29,4.42316016 28.7082291,4.04675391 28.2818929,3.92409961 Z" id="Path" fill="#CBD5E1"></path>
            <g id="Group" transform="translate(8.0556, 7.2439)">
                <path d="M10.4722222,5.63414634 L8.86111111,5.63414634 L8.86111111,4.02439024 C8.86111111,3.62195122 8.7,1.6097561 6.44444444,1.6097561 C4.18888889,1.6097561 4.02777778,3.62195122 4.02777778,4.02439024 L4.02777778,5.63414634 L2.41666667,5.63414634 L2.41666667,4.02439024 C2.41666667,2.65609756 3.22222222,0 6.44444444,0 C9.66666667,0 10.4722222,2.65609756 10.4722222,4.02439024 L10.4722222,5.63414634 Z" id="Path" fill="#312E81"></path>
                <path d="M11.4388889,14.4878049 L1.45,14.4878049 C0.644444444,14.4878049 0,13.8439024 0,13.0390244 L0,6.27804878 C0,5.47317073 0.644444444,4.82926829 1.45,4.82926829 L11.4388889,4.82926829 C12.2444444,4.82926829 12.8888889,5.47317073 12.8888889,6.27804878 L12.8888889,13.0390244 C12.8888889,13.8439024 12.2444444,14.4878049 11.4388889,14.4878049" id="Path" fill="#F43F5E"></path>
                <path d="M8.05555556,9.65853659 C8.05555556,10.5439024 7.33055556,11.2682927 6.44444444,11.2682927 C5.55833333,11.2682927 4.83333333,10.5439024 4.83333333,9.65853659 C4.83333333,8.77317073 5.55833333,8.04878049 6.44444444,8.04878049 C7.33055556,8.04878049 8.05555556,8.77317073 8.05555556,9.65853659" id="Path" fill="#FFFFFF"></path>
            </g>
            <path d="M28.2839603,3.92409961 L14.8306669,0.0407316753 C14.6422953,-0.0135996094 14.4018737,33 14.5418796,33 C14.6818855,33 14.8218914,32.9718984 14.9524519,32.9155664 C15.0935966,32.8547871 18.4495847,31.3986621 21.8577569,29.0249824 C23.8865025,27.6119766 25.5103029,26.1648105 26.6840748,24.7236387 C28.2208572,22.836709 29,20.9408848 29,19.0888242 L29,4.85009766 C29,4.42316016 28.7090691,4.04675391 28.2839603,3.92409961 Z" id="Path" fill="#0F172A" opacity="0.0772763207"></path>
        </g>
    </g>
</svg>