<svg height="54" viewBox="0 0 54 54" width="54" xmlns="http://www.w3.org/2000/svg"><g fill="none" fill-rule="evenodd"><rect fill="#f1f5f9" height="54" rx="5" width="54"/><g fill-rule="nonzero"><path d="m40.3066552 14.9240996-13.0268913-3.8833008c-.1824011-.0543984-.3768023-.0543984-.5592683 0l-13.0271508 3.8833008c-.4115052.1226543-.6933448.4990606-.6933448.9259981v14.2387265c0 1.8519961.7545776 3.7478203 2.2426517 5.6348145 1.1365043 1.4411718 2.7089032 2.8883379 4.6733478 4.3013437 3.3001501 2.3736797 6.549835 3.8298047 6.686571 3.890584.1264224.0562676.2619908.0844336.3975592.0844336s.2711368-.0281016.3975592-.0844336c.1366712-.0607793 3.3862912-1.5169043 6.6864413-3.890584 1.9644446-1.4130058 3.5367787-2.8601719 4.6733478-4.3013437 1.4880741-1.8869297 2.242522-3.7827539 2.242522-5.6348145v-14.2387265c0-.4269375-.2817098-.8033438-.6933448-.9259981z" fill="#cbd5e1"/><path d="m7 0c-3.8661 0-7 3.1339-7 7s3.1339 7 7 7 7-3.1339 7-7-3.1339-7-7-7zm0 1.925c1.2565 0 2.275 1.0185 2.275 2.275s-1.0185 2.275-2.275 2.275-2.275-1.0185-2.275-2.275 1.0185-2.275 2.275-2.275zm0 10.675c-1.939 0-3.647-.9856-4.6522-2.4829.7847-1.141 3.2844-1.7171 4.6522-1.7171s3.8675.5761 4.6522 1.7171c-1.0052 1.4973-2.7132 2.4829-4.6522 2.4829z" fill="#4338ca" transform="translate(20 20)"/><path d="m40.3066552 14.9240996-13.0268913-3.8833008c-.1824011-.0543984-.0972979-.0543984-.2797639 0v32.9592012c.0002595 0 .2712665-.0281016.3976889-.0844336.1366712-.0607793 3.3862912-1.5169043 6.6864413-3.890584 1.9644446-1.4130058 3.5367787-2.8601719 4.6733478-4.3013437 1.4880741-1.8869297 2.242522-3.7827539 2.242522-5.6348145v-14.2387265c0-.4269375-.2817098-.8033438-.6933448-.9259981z" fill="#4338ca" opacity=".113888"/></g></g></svg>