<?xml version="1.0" encoding="UTF-8"?>
<svg width="54px" height="54px" viewBox="0 0 54 54" version="1.1" xmlns="http://www.w3.org/2000/svg" xmlns:xlink="http://www.w3.org/1999/xlink">
    <title>self-hosting-reduce-latency-gaming</title>
    <g id="self-hosting-reduce-latency-gaming" stroke="none" stroke-width="1" fill="none" fill-rule="evenodd">
        <rect id="Rectangle" fill="#F1F5F9" x="0" y="0" width="54" height="54" rx="5"></rect>
        <g id="icons8-speed" transform="translate(13, 13)" fill-rule="nonzero">
            <path d="M14,28 C6.3,28 0,21.7 0,14 C0,6.3 6.3,0 14,0 C21.7,0 28,6.3 28,14 C28,21.7 21.7,28 14,28 Z" id="Path" fill="#0EA5E9"></path>
            <path d="M14,25.2 C7.84,25.2 2.8,20.16 2.8,14 C2.8,7.84 7.84,2.8 14,2.8 C20.16,2.8 25.2,7.84 25.2,14 C25.2,20.16 20.16,25.2 14,25.2 Z" id="Path" fill="#E2E8F0"></path>
            <path d="M22.47,14 L20.37,14 C20.37,10.5 17.5,7.63 14,7.63 C10.5,7.63 7.63,10.5 7.63,14 L5.53,14 C5.53,9.31 9.31,5.53 14,5.53 C18.69,5.53 22.47,9.31 22.47,14 Z" id="Path" fill="#6366F1"></path>
            <path d="M14,16.1 C12.81,16.1 11.9,15.19 11.9,14 C11.9,12.81 12.81,11.9 14,11.9 C15.19,11.9 16.1,12.81 16.1,14 C16.1,15.19 15.19,16.1 14,16.1 Z" id="Path" fill="#C2410C" transform="translate(14, 14) scale(-1, 1) translate(-14, -14)"></path>
            <polygon id="Rectangle" fill="#F58320" transform="translate(12.4458, 12.7985) scale(-1, 1) rotate(-45.001) translate(-12.4458, -12.7985)" points="5.7607541 11.7485036 19.1307541 11.7485036 19.1307541 13.8485036 5.7607541 13.8485036"></polygon>
            <path d="M14.56,11.97 L11.97,14.56 C12.18,15.26 12.74,15.82 13.44,16.03 L16.03,13.44 C15.82,12.74 15.26,12.18 14.56,11.97 Z" id="Path" fill="#F58320" transform="translate(14, 14) scale(-1, 1) translate(-14, -14)"></path>
            <path d="M8.68,7.35 L7.21,8.82 C7.77,9.24 8.26,9.73 8.68,10.29 L10.15,8.82 C9.73,8.26 9.24,7.77 8.68,7.35 Z" id="Path" fill="#F58320" transform="translate(8.68, 8.82) scale(-1, 1) translate(-8.68, -8.82)"></path>
        </g>
    </g>
</svg>