<svg xmlns="http://www.w3.org/2000/svg" width="70" height="70"><linearGradient id="a" x1="0%" x2="100%" y1="9.153%" y2="90.847%"><stop offset="0" stop-color="#a4aebe"/><stop offset="1" stop-color="#2d53f5"/></linearGradient><path fill="url(#a)" d="M44.293 45.113a6.463 6.463 0 0 1-8.827.282l-2.223-1.95a2.218 2.218 0 0 1-.712-2.078c.145-.772.685-1.406 1.417-1.664s1.543-.101 2.13.413l2.225 1.952c.85.755 2.129.72 2.938-.079 6.234-6.264 8.13-15.722 4.803-23.958-3.326-8.237-11.22-13.625-19.992-13.65-8.773-.025-16.695 5.32-20.067 13.537-3.371 8.218-1.526 17.687 4.673 23.985a2.18 2.18 0 0 0 3.023.167l2.225-1.954a2.146 2.146 0 0 1 3.058.226c.783.92.683 2.308-.223 3.103l-2.224 1.952a6.519 6.519 0 0 1-8.928-.385C-.217 37.067-2.219 24.982 2.6 14.886 7.42 4.789 18.005-1.112 28.99.175c9.929 1.163 18.321 8 21.585 17.585 3.264 9.585.822 20.22-6.281 27.353zm-18.301-23.12c-.38 0-.757.05-1.123.149l-8.18-8.3a2.145 2.145 0 0 0-3.038.027 2.222 2.222 0 0 0-.027 3.082l8.181 8.3c-.48 1.82.234 3.747 1.778 4.794s3.573.98 5.046-.166a4.435 4.435 0 0 0 1.467-4.902c-.597-1.784-2.247-2.985-4.104-2.985z" transform="translate(9 12)"/></svg>