<svg height="54" viewBox="0 0 54 54" width="54" xmlns="http://www.w3.org/2000/svg"><g fill="none" fill-rule="evenodd"><rect fill="#f1f5f9" height="54" rx="5" width="54"/><g fill-rule="nonzero" transform="translate(13 13)"><path d="m14 28c-7.7 0-14-6.3-14-14s6.3-14 14-14 14 6.3 14 14-6.3 14-14 14z" fill="#0ea5e9"/><path d="m14 25.2c-6.16 0-11.2-5.04-11.2-11.2s5.04-11.2 11.2-11.2 11.2 5.04 11.2 11.2-5.04 11.2-11.2 11.2z" fill="#e2e8f0"/><path d="m22.47 14h-2.1c0-3.5-2.87-6.37-6.37-6.37s-6.37 2.87-6.37 6.37h-2.1c0-4.69 3.78-8.47 8.47-8.47s8.47 3.78 8.47 8.47z" fill="#6366f1"/><path d="m14 16.1c-1.19 0-2.1-.91-2.1-2.1s.91-2.1 2.1-2.1 2.1.91 2.1 2.1-.91 2.1-2.1 2.1z" fill="#c2410c" transform="matrix(-1 0 0 1 28 0)"/><g fill="#f58320"><path d="m5.7607541 11.7485036h13.37v2.1h-13.37z" transform="matrix(-.70709444 -.70711912 -.70711912 .70709444 30.29622 12.549415)"/><path d="m14.56 11.97-2.59 2.59c.21.7.77 1.26 1.47 1.47l2.59-2.59c-.21-.7-.77-1.26-1.47-1.47z" transform="matrix(-1 0 0 1 28 0)"/><path d="m8.68 7.35-1.47 1.47c.56.42 1.05.91 1.47 1.47l1.47-1.47c-.42-.56-.91-1.05-1.47-1.47z" transform="matrix(-1 0 0 1 17.36 0)"/></g></g></g></svg>