<svg height="70" viewBox="0 0 70 70" width="70" xmlns="http://www.w3.org/2000/svg" xmlns:xlink="http://www.w3.org/1999/xlink"><linearGradient id="a" x1="0%" x2="100%" y1="9.153107%" y2="90.846894%"><stop offset="0" stop-color="#a4aebe"/><stop offset="1" stop-color="#2d53f5"/></linearGradient><path d="m44.2925459 45.113293c-2.4244813 2.403208-6.2579991 2.5254384-8.8264274.2814275l-2.2234015-1.9502045c-.586081-.5137188-.8575147-1.3056436-.7120546-2.0774639.14546-.7718203.6857149-1.4062782 1.4172559-1.6643797s1.5432296-.1006347 2.1293106.4130841l2.2255686 1.9524032c.850132.7546968 2.129065.7202478 2.9385307-.0791515 6.2332865-6.2635194 8.1294309-15.7221104 4.8028832-23.9583583-3.3265477-8.23624789-11.2194111-13.62502069-19.9924122-13.64961753-8.773001-.02459685-16.69509846 5.31983557-20.06646116 13.53730453-3.37136269 8.217469-1.52677156 17.6865479 4.67230006 23.9849239.8040842.8612939 2.1314961.9346661 3.023046.1670975l2.2255686-1.9546018c.9060026-.7941404 2.27499-.6927503 3.0577189.2264612.7827288.9192115.6827957 2.3081578-.223207 3.1022983l-2.2234016 1.9524031c-2.6200534 2.2523083-6.5059104 2.0848473-8.92827906-.3847641-7.80658217-7.9447782-9.8077034-20.0293604-4.98869423-30.1262536 4.81900917-10.09689312 15.40421839-15.99787935 26.38839229-14.71086079 9.9291409 1.16314305 18.3212847 7.999854 21.5854072 17.58468289 3.2641224 9.584829.8218959 20.2195642-6.2816433 27.3535695zm-18.3008051-23.1210266c-.3789961.0000761-.7563617.0503367-1.1225361.1495084l-8.1806441-8.2999121c-.8503078-.8332281-2.2019147-.8213117-3.0378222.0267827-.8359075.8480945-.8476526 2.2194068-.0263978 3.0821115l8.1806441 8.2999121c-.4809095 1.8195814.2340112 3.7478218 1.7777017 4.7947086s3.5731641.9798162 5.0464324-.1667758c1.4732682-1.146592 2.0629912-3.1179485 1.4663888-4.90192-.5966025-1.7839716-2.2469737-2.9841843-4.1037668-2.9844154z" fill="url(#a)" transform="translate(9 12)"/></svg>