<svg xmlns="http://www.w3.org/2000/svg" width="54" height="54"><g fill="none" fill-rule="evenodd"><rect width="54" height="54" fill="#F1F5F9" rx="5"/><g fill-rule="nonzero"><path fill="#6254DB" d="m31.504 22.658-2.11-2.154 1.564-1.596 2.041-2.086-1.437-1.467a1.44 1.44 0 0 1 0-2.015l3.81-3.892a1.44 1.44 0 0 1 2.059 0l4.942 5.047a1.44 1.44 0 0 1 0 2.014l-3.811 3.893a1.44 1.44 0 0 1-2.036.021l-.022-.021-1.396-1.426-1.887 1.93-1.717 1.752Zm4.898-9.952-1.608 1.641 2.74 2.797 1.606-1.641-2.738-2.797Z"/><path fill="#FEAE42" d="M23.822 19.998 10.895 31.409h32.997L30.97 19.999a5.4 5.4 0 0 0-7.148-.001Z"/><path fill="#6366F1" d="M47 30.775v4.144h-2.94L41.429 45H13.57l-2.63-10.081H8v-4.144h39Z"/></g></g></svg>