<?xml version="1.0" encoding="UTF-8"?>
<svg width="54px" height="54px" viewBox="0 0 54 54" version="1.1" xmlns="http://www.w3.org/2000/svg" xmlns:xlink="http://www.w3.org/1999/xlink">
    <title>shared-sandbox</title>
    <g id="shared-sandbox" stroke="none" stroke-width="1" fill="none" fill-rule="evenodd">
        <rect id="Rectangle" fill="#F1F5F9" x="0" y="0" width="54" height="54" rx="5"></rect>
        <g id="icons8-sandbox-50" transform="translate(8, 9)" fill-rule="nonzero">
            <path d="M23.5035645,13.6584211 L21.3942857,11.5042699 L22.9575984,9.90769948 L24.9992857,7.822 L23.5621323,6.35466344 C23.0140156,5.79488617 23.0139869,4.89961947 23.5620678,4.33980713 L27.3727038,0.447605946 C27.9290728,-0.120671941 28.8407793,-0.130325981 29.4090572,0.426043043 C29.4162988,0.433132878 29.4234653,0.440298964 29.4305556,0.447540101 L34.3725224,5.49464157 C34.9206391,6.05441884 34.9206677,6.94968554 34.3725868,7.50949788 L30.5619508,11.4016991 C30.0055818,11.9699769 29.0938754,11.979631 28.5255975,11.423262 L28.504099,11.4017649 L27.1082857,9.976 L25.2205233,11.9056976 L23.5035645,13.6584211 Z M28.4015961,3.70575484 L26.794278,5.34726684 L29.5330586,8.14431188 L31.1403767,6.50279989 L28.4015961,3.70575484 Z" id="Combined-Shape" fill="#6254DB"></path>
            <path d="M15.8224164,10.9976611 L2.89482546,22.4089628 L2.89482546,22.4089628 L35.8916031,22.4089628 L22.9704119,10.9984211 C20.9288872,9.19557621 17.8643245,9.1952504 15.8224164,10.9976611 Z" id="Path" fill="#FEAE42"></path>
            <path d="M39,21.775002 L39,25.9192181 L36.06,25.919002 L33.4285714,36 L5.57142857,36 L2.939,25.919002 L0,25.9192181 L0,21.775002 L39,21.775002 Z" id="Combined-Shape" fill="#6366F1"></path>
        </g>
    </g>
</svg>