<?xml version="1.0" encoding="UTF-8"?>
<svg width="76px" height="76px" viewBox="0 0 76 76" version="1.1" xmlns="http://www.w3.org/2000/svg" xmlns:xlink="http://www.w3.org/1999/xlink">
    <title>shared-sandbox</title>
    <defs>
        <linearGradient x1="-3.88578059e-14%" y1="100%" x2="100%" y2="2.77555756e-15%" id="linearGradient-1">
            <stop stop-color="#E7E6F1" offset="0%"></stop>
            <stop stop-color="#F0F1FD" offset="100%"></stop>
        </linearGradient>
    </defs>
    <g id="shared-sandbox" stroke="none" stroke-width="1" fill="none" fill-rule="evenodd">
        <rect id="Rectangle-Copy-6" fill="url(#linearGradient-1)" x="0" y="0" width="76" height="76" rx="12"></rect>
        <g id="Group-4" transform="translate(19, 18.8078)">
            <g id="Group-2" transform="translate(3, -0)">
                <path d="M27,2.18166522 C28.1045695,2.18166522 29,3.07709572 29,4.18166522 L29,6.18166522 C29,7.28623472 28.1045695,8.18166522 27,8.18166522 L25,8.18066522 L25,16.1137375 L21,16.1137375 L21,8.18066522 L19,8.18166522 C17.8954305,8.18166522 17,7.28623472 17,6.18166522 L17,4.18166522 C17,3.07709572 17.8954305,2.18166522 19,2.18166522 L27,2.18166522 Z" id="Combined-Shape" fill="#6366F1" transform="translate(23, 9.1477) rotate(35) translate(-23, -9.1477)"></path>
                <path d="M10.9986259,10.1428494 C14.7477553,10.1428494 18.0587563,11.8971105 20.0442608,14.5757821 C21.0204381,14.2425529 22.0755105,14.0609763 23.1759318,14.0609763 C27.1990808,14.0609763 30.6353813,16.3021346 31.8634202,19.6759708 L31.8277107,19.6786587 C31.9380766,19.9051768 32,20.1596388 32,20.4285637 C32,21.3753375 31.2324881,22.1428494 30.2857143,22.1428494 L1.71428571,22.1428494 C0.767511857,22.1428494 1.15946357e-16,21.3753375 0,20.4285637 C0,14.7479205 4.92425256,10.1428494 10.9986259,10.1428494 Z" id="Combined-Shape" fill="#4338CA"></path>
            </g>
            <g id="Group-3" transform="translate(0, 26.1922)" fill="#6366F1">
                <rect id="Rectangle" x="0" y="0" width="38" height="4" rx="2"></rect>
                <path d="M3,1.94177624 L35,1.94177624 L33.3215535,10.3340085 C33.1345839,11.2688569 32.3137542,11.9417762 31.3603922,11.9417762 L6.63960781,11.9417762 C5.68624577,11.9417762 4.86541613,11.2688569 4.67844645,10.3340085 L3,1.94177624 L3,1.94177624 Z" id="Rectangle"></path>
            </g>
        </g>
    </g>
</svg>