<?xml version="1.0" encoding="UTF-8"?>
<svg width="54px" height="54px" viewBox="0 0 54 54" version="1.1" xmlns="http://www.w3.org/2000/svg" xmlns:xlink="http://www.w3.org/1999/xlink">
    <title>shared-sandbox</title>
    <g id="shared-sandbox" stroke="none" stroke-width="1" fill="none" fill-rule="evenodd">
        <g id="icons8-sandbox-50" transform="translate(4, 5)" fill-rule="nonzero">
            <path d="M28.3248084,16.303101 L25.7828571,13.7290144 L27.6668493,11.8212049 L30.1268571,9.329 L28.4055843,7.5858546 C27.7409896,6.91285806 27.740955,5.83060918 28.4055066,5.15757011 L32.9980343,0.506388469 C33.6685648,-0.172705801 34.7626519,-0.179648096 35.4417461,0.490882417 L35.4571745,0.506309772 L41.4131021,6.53753201 C42.0776968,7.21052854 42.0777314,8.29277743 41.4131798,8.96581649 L36.8206521,13.6169981 C36.1501216,14.2960924 35.0560345,14.3030347 34.3769403,13.6325042 C34.3717651,13.6273943 34.3666222,13.6222517 34.3615119,13.6170768 L32.6688571,11.903 L30.393964,14.2086975 L28.3248084,16.303101 Z M34.2275645,4.4102385 L32.2905401,6.37175072 L35.5911219,9.71405832 L37.5281463,7.7525461 L34.2275645,4.4102385 Z" id="Combined-Shape" fill="#6254DB"></path>
            <path d="M19.1068598,13.0896695 L3.48863581,26.7594939 L3.48863581,26.7594939 L43.2539832,26.7594939 L27.6434867,13.0905761 C25.2001976,10.9511747 21.5506033,10.9507871 19.1068598,13.0896695 Z" id="Path" fill="#FEAE42"></path>
            <path d="M47,26.0019473 L47,30.9540467 L43.457,30.9539473 L40.2857143,43 L6.71428571,43 L3.542,30.9539473 L0,30.9540467 L0,26.0019473 L47,26.0019473 Z" id="Combined-Shape" fill="#6366F1"></path>
        </g>
    </g>
</svg>