<svg xmlns="http://www.w3.org/2000/svg" xmlns:xlink="http://www.w3.org/1999/xlink" width="63" height="63"><defs><linearGradient id="e" x1="97.835%" x2="0%" y1="12.616%" y2="85.513%"><stop offset="0%"/><stop offset="100%" stop-color="#6366F1"/></linearGradient><linearGradient id="f" x1="40.158%" x2="73.538%" y1="0%" y2="83.245%"><stop offset="0%" stop-color="#6366F1"/><stop offset="100%"/></linearGradient><linearGradient id="g" x1="32.997%" x2="72.726%" y1="21.637%" y2="77.57%"><stop offset="0%" stop-color="#6366F1"/><stop offset="100%"/></linearGradient><filter id="b" width="111.9%" height="111.9%" x="-5.9%" y="-4.2%" filterUnits="objectBoundingBox"><feMorphology in="SourceAlpha" operator="dilate" radius=".5" result="shadowSpreadOuter1"/><feOffset dy="1" in="shadowSpreadOuter1" result="shadowOffsetOuter1"/><feGaussianBlur in="shadowOffsetOuter1" result="shadowBlurOuter1" stdDeviation=".5"/><feColorMatrix in="shadowBlurOuter1" values="0 0 0 0 0 0 0 0 0 0 0 0 0 0 0 0 0 0 0.11324369 0"/></filter><circle id="a" cx="29.5" cy="29.5" r="29.5"/><path id="c" d="M0 38.176h38.176V0H0z"/></defs><g fill="none" fill-rule="evenodd"><g transform="translate(2 1)"><use xlink:href="#a" fill="#000" filter="url(#b)"/><use xlink:href="#a" fill="#F1F5F9"/></g><g transform="matrix(1 0 0 -1 13.106 50.282)"><mask id="d" fill="#fff"><use xlink:href="#c"/></mask><g mask="url(#d)"><path stroke="url(#e)" stroke-linecap="round" stroke-linejoin="round" stroke-width="2.24" d="M33.334 0H2.593A2.593 2.593 0 0 0 0 2.593v25.88a2.593 2.593 0 0 0 2.593 2.593h30.74a2.593 2.593 0 0 0 2.594-2.593V2.593A2.593 2.593 0 0 0 33.334 0Zm2.593 22.347H0" transform="translate(1.125 3.555)"/><path fill="#4338CA" fill-rule="nonzero" d="M5.622 31.27a1.126 1.126 0 1 0 0-2.251 1.126 1.126 0 0 0 0 2.251m4.577 0a1.126 1.126 0 1 0 0-2.251 1.126 1.126 0 0 0 0 2.251m4.786 0a1.126 1.126 0 1 0 0-2.251 1.126 1.126 0 0 0 0 2.251"/></g></g><g fill-rule="nonzero" stroke-width=".7"><path fill="url(#f)" stroke="url(#g)" d="M17.862 6.817 13.69 2.324a.669.669 0 0 0-.957-.028.695.695 0 0 0-.027.972l3.735 4.02-3.735 4.02a.695.695 0 0 0 .027.973.67.67 0 0 0 .957-.028l4.174-4.492a.696.696 0 0 0 0-.944ZM10.118.007a.68.68 0 0 0-.77.577L7.361 13.785a.686.686 0 0 0 .67.791.68.68 0 0 0 .668-.583L10.685.79a.686.686 0 0 0-.567-.783Z" transform="translate(23.518 28.07)"/><path fill="#4338CA" stroke="#4338CA" d="m28.86 39.379-3.735-4.02 3.735-4.02a.695.695 0 0 0-.028-.972.67.67 0 0 0-.956.028l-4.174 4.492a.696.696 0 0 0 0 .944l4.174 4.492a.67.67 0 0 0 .956.028.695.695 0 0 0 .028-.972Z"/></g></g></svg>