<?xml version="1.0" encoding="UTF-8"?>
<svg width="76px" height="76px" viewBox="0 0 76 76" version="1.1" xmlns="http://www.w3.org/2000/svg" xmlns:xlink="http://www.w3.org/1999/xlink">
    <title>slow-migration-user-data</title>
    <defs>
        <linearGradient x1="-3.88578059e-14%" y1="100%" x2="100%" y2="2.77555756e-15%" id="linearGradient-1">
            <stop stop-color="#F2E4E8" offset="0%"></stop>
            <stop stop-color="#FFF4F6" offset="100%"></stop>
        </linearGradient>
    </defs>
    <g id="slow-migration-user-data" stroke="none" stroke-width="1" fill="none" fill-rule="evenodd">
        <rect id="Rectangle-Copy-10" fill="url(#linearGradient-1)" x="0" y="0" width="76" height="76" rx="12"></rect>
        <path d="M38,19 C48.4936996,19 57,27.5066819 57,38 C57,48.4933263 48.4936996,57 38,57 C27.5063004,57 19,48.4933263 19,38 C19,27.5066819 27.5063004,19 38,19 Z M38,45.4781494 C34.2190004,45.4781494 30.7671779,46.7612699 28.1071777,49.0460205 C30.7671779,51.3307693 34.2190004,53.0314941 38,53.0314941 C41.7809996,53.0314941 45.3441511,51.3307693 48.0041504,49.0460205 C45.3441511,46.7612699 41.7809996,45.4781494 38,45.4781494 Z M27.2824856,27.7824856 C26.4896936,28.5752776 26.4561735,29.849923 27.2062015,30.6832874 L36.5892999,41.1089523 C37.6408754,42.2773696 39.4405351,42.3720885 40.6089523,41.320513 C40.6460362,41.2871375 40.682236,41.2527928 40.7175144,41.2175144 C41.8290471,40.1059817 41.8290471,38.3038311 40.7175144,37.1922984 C40.682236,37.15702 40.6460362,37.1226753 40.6089523,37.0892999 L30.1832874,27.7062015 C29.349923,26.9561735 28.0752776,26.9896936 27.2824856,27.7824856 Z M25,36 C23.8954305,36 23,36.8954305 23,38 C23,39.1045695 23.8954305,40 25,40 C26.1045695,40 27,39.1045695 27,38 C27,36.8954305 26.1045695,36 25,36 Z M51,36 C49.8954305,36 49,36.8954305 49,38 C49,39.1045695 49.8954305,40 51,40 C52.1045695,40 53,39.1045695 53,38 C53,36.8954305 52.1045695,36 51,36 Z M47,27 C45.8954305,27 45,27.8954305 45,29 C45,30.1045695 45.8954305,31 47,31 C48.1045695,31 49,30.1045695 49,29 C49,27.8954305 48.1045695,27 47,27 Z M38,23 C36.8954305,23 36,23.8954305 36,25 C36,26.1045695 36.8954305,27 38,27 C39.1045695,27 40,26.1045695 40,25 C40,23.8954305 39.1045695,23 38,23 Z" id="Combined-Shape" fill="#F43F5E" fill-rule="nonzero"></path>
    </g>
</svg>