<svg height="70" viewBox="0 0 70 70" width="70" xmlns="http://www.w3.org/2000/svg" xmlns:xlink="http://www.w3.org/1999/xlink"><linearGradient id="a" x1="0%" x2="100%" y1="10.679957%" y2="89.320043%"><stop offset="0" stop-color="#a4aebe"/><stop offset="1" stop-color="#2d53f5"/></linearGradient><path d="m45.1336635 45.1116143c-2.4732721 2.4053463-6.3839364 2.5276854-9.0040523.2816779l-2.2681457-1.9519397c-.5978754-.5141759-.8747715-1.3068052-.7263842-2.0793122.1483874-.772507.6995145-1.4075295 1.4457772-1.6658606.7462626-.2583311 1.5742858-.1007243 2.1721612.4134516l2.2703564 1.9541403c.8681476.7561309 2.1744104.7206764 2.999877-.0814225 6.3576345-6.269789 8.2906898-15.7366918 4.8964256-23.9796481-3.3942642-8.24295625-11.4461543-13.63561822-20.3954236-13.65960325-8.9492693-.02398502-17.03021325 5.32543917-20.46901685 13.55008205-3.4388036 8.2246429-1.55698566 17.70177 4.76664155 24.0055462.8202657.8620603 2.1743908.9354977 3.0838823.1672462l2.2703565-1.9563409c.9242352-.794847 2.3207724-.6933667 3.119253.2266627.7984807.9200294.6965364 2.3102114-.2276988 3.1050585l-2.2703564 1.9541403c-2.6715096 2.256667-6.6373487 2.0879826-9.10574303-.3873071-5.1115127-5.1510449-7.88631346-12.1577509-7.68093132-19.3952764.20538215-7.2375254 3.37310515-14.0771293 8.76858015-18.93272073 15.5211026-14.11910373 41.4610852-4.51564851 43.9923005 16.25149333 1.0863693 8.1762653-1.7409306 16.386592-7.6378592 22.1799324zm-18.6690944-23.1415983c-2.2537376-.0001535-4.1468976 1.6872157-4.3948087 3.917083l-10.7593229 4.7004996c-.7482045.2983409-1.2740003.9783916-1.37218345 1.7747468-.09818315.7963551.24680855 1.5827909.90033405 2.0523827.6535256.4695918 1.5120001.5479085 2.2403841.2043852l10.7593229-4.7004996c1.542425 1.1019266 3.6204997 1.0963731 5.1569588-.0137816 1.5364592-1.1101547 2.1857313-3.075221 1.6112364-4.8765167-.574495-1.8012958-2.2435449-3.0336838-4.1419212-3.0582994z" fill="url(#a)" transform="translate(9 11)"/></svg>