<svg xmlns="http://www.w3.org/2000/svg" width="70" height="70"><linearGradient id="a" x1="0%" x2="100%" y1="10.68%" y2="89.32%"><stop offset="0" stop-color="#a4aebe"/><stop offset="1" stop-color="#2d53f5"/></linearGradient><path fill="url(#a)" d="M45.134 45.112a6.685 6.685 0 0 1-9.004.281l-2.269-1.952a2.196 2.196 0 0 1 .72-3.745 2.22 2.22 0 0 1 2.172.414l2.27 1.954c.869.756 2.175.72 3-.082a21.933 21.933 0 0 0 4.897-23.98C43.525 9.76 35.474 4.368 26.524 4.344 17.575 4.32 9.494 9.67 6.055 17.893A21.933 21.933 0 0 0 10.822 41.9c.82.862 2.174.935 3.084.167l2.27-1.956a2.219 2.219 0 0 1 3.12.226c.798.92.696 2.31-.228 3.105l-2.27 1.954a6.734 6.734 0 0 1-9.106-.387A26.468 26.468 0 0 1 .01 25.613 26.482 26.482 0 0 1 8.779 6.68C24.3-7.439 50.24 2.165 52.772 22.932a26.243 26.243 0 0 1-7.638 22.18zM26.464 21.97a4.414 4.414 0 0 0-4.394 3.917l-10.76 4.7a2.196 2.196 0 0 0-.472 3.827 2.22 2.22 0 0 0 2.241.205l10.76-4.7a4.422 4.422 0 0 0 5.156-.014 4.375 4.375 0 0 0 1.611-4.877 4.404 4.404 0 0 0-4.141-3.058z" transform="translate(9 11)"/></svg>