<svg height="54" viewBox="0 0 54 54" width="54" xmlns="http://www.w3.org/2000/svg"><g fill="none" fill-rule="evenodd"><rect fill="#f1f5f9" height="54" rx="5" width="54"/><g fill-rule="nonzero" transform="translate(12 12)"><path d="m15 30c-8.25 0-15-6.75-15-15s6.75-15 15-15 15 6.75 15 15-6.75 15-15 15z" fill="#be123c"/><path d="m15 27c-6.6 0-12-5.4-12-12s5.4-12 12-12 12 5.4 12 12-5.4 12-12 12z" fill="#fb9ca7"/><path d="m24.075 15h-2.25c0-3.75-3.075-6.825-6.825-6.825s-6.825 3.075-6.825 6.825h-2.25c0-5.025 4.05-9.075 9.075-9.075s9.075 4.05 9.075 9.075z" fill="#f43f5e"/><g fill="#5d50d8"><path d="m15 17.25c-1.275 0-2.25-.975-2.25-2.25s.975-2.25 2.25-2.25 2.25.975 2.25 2.25-.975 2.25-2.25 2.25z" transform="matrix(-1 0 0 1 30 0)"/><path d="m6.17223654 12.5876824h14.32499996v2.25h-14.32499996z" transform="matrix(-.70709444 -.70711912 -.70711912 .70709444 32.460105 13.445747)"/></g></g></g></svg>