<?xml version="1.0" encoding="UTF-8"?>
<svg width="54px" height="54px" viewBox="0 0 54 54" version="1.1" xmlns="http://www.w3.org/2000/svg" xmlns:xlink="http://www.w3.org/1999/xlink">
    <title>social-sign-on</title>
    <defs>
        <linearGradient x1="50%" y1="0%" x2="50%" y2="100%" id="linearGradient-1">
            <stop stop-color="#E7ECF2" offset="0%"></stop>
            <stop stop-color="#CBD5E1" offset="100%"></stop>
        </linearGradient>
    </defs>
    <g id="social-sign-on" stroke="none" stroke-width="1" fill="none" fill-rule="evenodd">
        <rect id="Rectangle" fill="#F1F5F9" x="0" y="0" width="54" height="54" rx="5"></rect>
        <polyline id="Path-2" stroke="url(#linearGradient-1)" stroke-width="4" points="37.5341581 16.9995417 15.5341581 28 37.5341581 38.7034541"></polyline>
        <g id="icons8-share-50" transform="translate(7, 11)" fill-rule="nonzero">
            <path d="M5.9500001,10.4050343 C3.82426982,10.4050343 1.86001402,11.5499363 0.797148865,13.4084668 C-0.265716288,15.2669973 -0.265716288,17.5568013 0.797148865,19.4153318 C1.86001402,21.2738624 3.82426982,22.4187643 5.9500001,22.4187643 C8.07573039,22.4187643 10.0399862,21.2738624 11.1028513,19.4153318 C12.1657165,17.5568013 12.1657165,15.2669973 11.1028513,13.4084668 C10.0399862,11.5499363 8.07573039,10.4050343 5.9500001,10.4050343 L5.9500001,10.4050343 Z" id="Path" fill="#5D50D8"></path>
            <path d="M31.05,0 C27.7639058,0 25.1,2.68936506 25.1,6.00686499 C25.1,9.32436492 27.7639058,12.01373 31.05,12.01373 C34.3360943,12.01373 37,9.32436492 37,6.00686499 C37,2.68936506 34.3360943,0 31.05,0 Z" id="Path" fill="#EAD40E"></path>
            <path d="M31.05,21.98627 C27.7639058,21.98627 25.1,24.6756351 25.1,27.993135 C25.1,31.3106349 27.7639058,34 31.05,34 C34.3360943,34 37,31.3106349 37,27.993135 C37,24.6756351 34.3360943,21.98627 31.05,21.98627 L31.05,21.98627 Z" id="Path" fill="#F59E0B"></path>
        </g>
    </g>
</svg>