<svg xmlns="http://www.w3.org/2000/svg" width="54" height="54"><defs><linearGradient id="a" x1="50%" x2="50%" y1="0%" y2="100%"><stop offset="0%" stop-color="#E7ECF2"/><stop offset="100%" stop-color="#CBD5E1"/></linearGradient></defs><g fill="none" fill-rule="evenodd"><rect width="54" height="54" fill="#F1F5F9" rx="5"/><path stroke="url(#a)" stroke-width="4" d="m37.534 17-22 11 22 10.703"/><g fill-rule="nonzero"><path fill="#5D50D8" d="M12.95 21.405a5.94 5.94 0 0 0-5.153 3.003 6.057 6.057 0 0 0 0 6.007 5.94 5.94 0 0 0 5.153 3.004 5.94 5.94 0 0 0 5.153-3.004 6.057 6.057 0 0 0 0-6.007 5.94 5.94 0 0 0-5.153-3.003Z"/><path fill="#EAD40E" d="M38.05 11c-3.286 0-5.95 2.69-5.95 6.007 0 3.317 2.664 6.007 5.95 6.007S44 20.324 44 17.007C44 13.689 41.336 11 38.05 11Z"/><path fill="#F59E0B" d="M38.05 32.986c-3.286 0-5.95 2.69-5.95 6.007 0 3.318 2.664 6.007 5.95 6.007S44 42.31 44 38.993c0-3.317-2.664-6.007-5.95-6.007Z"/></g></g></svg>