<svg xmlns="http://www.w3.org/2000/svg" width="36" height="36"><mask id="a" fill="#fff"><path fill-rule="evenodd" d="M0 0h36v36H0z"/></mask><g fill="none" mask="url(#a)"><g transform="translate(2 2)"><circle cx="16" cy="16" r="16" fill="#87b940"/><g fill="#fff"><path stroke="#87b940" d="M7.692 24.923c-1.025-.512-3.077-2.338-3.077-5.538 0-4 2.154-7.077 8-8.308 5.847-1.23 11.693.308 16.616-8.615 0 0 6.258 15.29-1.231 22.154-3.692 3.384-11.692 2.153-14.462 2.153-1.465 0-2.786.09-3.573.18-.255.05-.5.092-.734.128.07-.035.332-.081.734-.127 5.56-1.07 15.845-5.3 17.727-14.95 0 0-4.307 11.077-20 12.923z"/><circle cx="7.077" cy="26.769" r="1.538"/></g></g></g></svg>