<?xml version="1.0" encoding="UTF-8"?>
<svg width="54px" height="54px" viewBox="0 0 54 54" version="1.1" xmlns="http://www.w3.org/2000/svg" xmlns:xlink="http://www.w3.org/1999/xlink">
    <title>sso-works-why-care</title>
    <g id="sso-works-why-care" stroke="none" stroke-width="1" fill="none" fill-rule="evenodd">
        <rect id="Rectangle" fill="#F1F5F9" x="0" y="0" width="54" height="54" rx="5"></rect>
        <g id="icons8-key" transform="translate(27, 27.5) scale(-1, 1) translate(-27, -27.5)translate(12, 13)" fill-rule="nonzero">
            <polygon id="Path" fill="#0EA5E9" points="28.690356 23.5190783 14.3855362 8.87180183 8.66377015 14.7305467 12.8901574 19.0572849 16.1835512 19.0572849 16.1835512 22.3715233 19.4203019 22.3715233 19.4203019 25.6857616 22.6570526 25.6857616 22.6570526 29 27.884405 29 29.8345473 27.0346566"></polygon>
            <path d="M2.36990841,2.42726532 C-0.789969469,5.66361909 -0.789969469,10.9084013 2.36990841,14.1455836 C5.53059547,17.3811088 10.6527535,17.3811088 13.8142497,14.1455836 C16.9741276,10.9092299 16.9741276,5.66444765 13.8142497,2.42726532 C10.6527535,-0.809088442 5.53059547,-0.809088442 2.36990841,2.42726532 Z M7.3803985,7.55770632 C6.43283973,8.5279496 4.89538314,8.5279496 3.94701519,7.55770632 C2.99945642,6.58746304 2.99945642,5.01319981 3.94701519,4.04212797 C4.89538314,3.07188469 6.43283973,3.07188469 7.3803985,4.04212797 C8.32795727,5.01319981 8.32795727,6.58746304 7.3803985,7.55770632 Z" id="Shape" fill="#0EA5E9"></path>
            <polygon id="Path" fill="#083148" transform="translate(22.1095, 20.2971) rotate(-45.001) translate(-22.1095, -20.2971)" points="21.4116701 10.0708225 23.049418 10.0514506 22.8072691 30.523283 21.1695211 30.5426549"></polygon>
            <path d="M17.1861348,11.738618 L15.9027631,10.4253511 C15.5483389,11.787503 14.8564834,13.0759132 13.8134405,14.1447551 C12.7695884,15.2135969 11.5104924,15.9220154 10.180997,16.2840959 L11.4684146,17.6015057 C12.7623057,17.1109984 13.9526208,16.3454094 14.9584411,15.3163383 C15.9796359,14.2706961 16.7151875,13.0444279 17.1861348,11.738618 Z" id="Path" fill="#083148"></path>
        </g>
    </g>
</svg>