<?xml version="1.0" encoding="UTF-8"?>
<svg width="76px" height="76px" viewBox="0 0 76 76" version="1.1" xmlns="http://www.w3.org/2000/svg" xmlns:xlink="http://www.w3.org/1999/xlink">
    <title>why-sso-is-a-gateway-to-personalized-user-experiences-dark</title>
    <defs>
        <linearGradient x1="-3.88578059e-14%" y1="100%" x2="100%" y2="2.77555756e-15%" id="linearGradient-1">
            <stop stop-color="#0F2B45" offset="0%"></stop>
            <stop stop-color="#1C4D6E" offset="100%"></stop>
        </linearGradient>
        <filter x="-96.1%" y="-93.4%" width="292.1%" height="292.1%" filterUnits="objectBoundingBox" id="filter-2">
            <feOffset dx="0" dy="1" in="SourceAlpha" result="shadowOffsetOuter1"></feOffset>
            <feGaussianBlur stdDeviation="12" in="shadowOffsetOuter1" result="shadowBlurOuter1"></feGaussianBlur>
            <feColorMatrix values="0 0 0 0 0   0 0 0 0 0   0 0 0 0 0  0 0 0 0.5 0" type="matrix" in="shadowBlurOuter1" result="shadowMatrixOuter1"></feColorMatrix>
            <feMerge>
                <feMergeNode in="shadowMatrixOuter1"></feMergeNode>
                <feMergeNode in="SourceGraphic"></feMergeNode>
            </feMerge>
        </filter>
    </defs>
    <g id="why-sso-is-a-gateway-to-personalized-user-experiences-dark" stroke="none" stroke-width="1" fill="none" fill-rule="evenodd">
        <rect id="Rectangle" fill="url(#linearGradient-1)" x="0" y="0" width="76" height="76" rx="12"></rect>
        <g id="Group-Copy-3" filter="url(#filter-2)" transform="translate(19, 19)">
            <g id="key-fill" transform="translate(0, 0)">
                <path d="M17.0997051,20.9000687 C15.168709,22.829858 3.7997731,34.2000382 1.44194824,36.5569889 C3.36601759,38.4810039 7.21415563,38.4810039 9.13822476,36.5569889 C11.0622939,34.6329739 9.86667802,31.9797576 11.0622943,30.7849437 C12.9863644,28.8609269 14.910434,30.7849412 16.8345031,28.8609244 C18.4292342,27.2664505 19.7302006,26.6997122 20.8996857,26.5929062 C21.7388391,26.5162686 22.4731151,26.6668076 23.0149092,26.8004 C21.6375764,25.4272483 19.6658417,23.4604712 17.0997051,20.9000687 Z" id="Vector" fill="#7DD3FC" fill-rule="nonzero"></path>
                <path d="M20.8631518,0.000394966574 C29.9836274,0.889590633 37.1099971,8.01615858 37.9996028,17.1359947 C38.0367289,17.5182319 35.4712025,20.1438683 30.3030237,25.012904 C27.5688376,27.7470148 25.6982461,27.459234 23.87303,27.0123877 L23.5691072,26.9369314 C23.3786943,26.8893275 23.1882796,26.8417218 22.9969318,26.7973813 L17.099706,20.9001847 L9.27576572,28.7241625 C9.09569051,28.9042382 8.91872002,29.0812091 8.74485423,29.2550753 L5.95057829,32.0493531 C5.81396898,32.1859622 5.68046437,32.3194666 5.55006447,32.4498662 L4.4602924,33.5396346 C4.34852074,33.6514057 4.23985378,33.7600721 4.13429153,33.8656337 L3.26805831,34.7318598 C3.18112429,34.8187929 3.09729498,34.9026212 3.01657038,34.9833448 L2.28305998,35.7168427 C2.22406832,35.775833 2.16818136,35.8317186 2.11539911,35.8844994 L1.89883576,36.1010559 C1.85536763,36.1445224 1.8150042,36.1848842 1.77774548,36.2221413 L1.44239681,36.5574546 C-0.481672541,34.6334 -0.482092013,30.7849428 1.44890406,28.8551533 L9.13826009,21.1648726 C11.9486481,18.3498779 11.5662683,16.4493572 11.1001266,14.5739378 L10.9867585,14.1178262 C10.5399581,12.2916688 10.2524226,10.4210311 12.9863993,7.68713056 C17.8557042,2.52564262 20.4812884,-0.0366025829 20.8631518,0.000394966574 Z M24.5333333,9.38666667 C22.3241943,9.38666667 20.5333333,11.1775277 20.5333333,13.3866667 C20.5333333,15.5958057 22.3241943,17.3866667 24.5333333,17.3866667 C26.7424723,17.3866667 28.5333333,15.5958057 28.5333333,13.3866667 C28.5333333,11.1775277 26.7424723,9.38666667 24.5333333,9.38666667 Z" id="Combined-Shape" fill="#0EA5E9"></path>
            </g>
        </g>
    </g>
</svg>