<svg height="54" viewBox="0 0 54 54" width="54" xmlns="http://www.w3.org/2000/svg"><g fill="none" fill-rule="evenodd"><rect fill="#f1f5f9" height="54" rx="5" width="54"/><g fill-rule="nonzero" transform="translate(13.0099 12.9914)"><path d="m7.47581128 1.26143117c-1.50282067-1.62592351-3.72960465-1.52813082-5.00552908.27328262-.53321488.73606658-1.00938423 1.58829253-1.29524216 2.45979941-1.29588089 3.93146714-.47911086 7.6296431.88959507 11.308214.11405743.3097749.20908287.6195581.30410832.9293414.07600186.2904275.36140596.4645792.64691091.4063624l5.74810417-1.0288047c.28550495-.0582168.47593404-.3100325.4760601-.6004933-.01884709-.4260007-.01865379-.8713739.01959507-1.2973996.15325597-2.3043883.28748836-4.62813237.25042451-6.93243758-.0562219-2.01383617-.62633255-3.96935577-2.03402691-5.51786465z" fill="#f43f5e" transform="matrix(.98768834276 -.15643445868 .15643445868 .98768834276 -.54425194686 4.38954548551)"/><path d="m10.4205074 17.7442835c-.0569615-.3097998-.3423488-.5226797-.66591769-.4644463l-5.57680792 1.0093659c-.30453693.0582251-.51401481.3487773-.45706173.6779412l.39868833 2.2654192c.32272849 1.8781714 2.09215659 3.1360616 3.93840177 2.8060666 1.84624519-.3299951 3.08410564-2.1313919 2.76137714-4.0095633z" fill="#e11d48" transform="matrix(.98768834276 -.15643445868 .15643445868 .98768834276 -1.37715900248 4.65151800094)"/><g fill="#6366f1" transform="matrix(.9961947 .08715574 -.08715574 .9961947 15.102669 .003581)"><path d="m9.64296984 16.3704822c.09487305-.3096946.1897461-.6193892.30365348-.9290654 1.34789148-3.6774091 2.18183758-7.37467822.88371538-11.30635441-.2863546-.87155248-.7630151-1.70456613-1.29670396-2.46018843-1.27701651-1.78251113-3.50412576-1.88147874-4.98723556-.25653698-1.40704714 1.54756884-1.97619214 3.502545-2.01233874 5.49676125-.05488235 2.30398469.09963153 4.62753407.25412675 6.93172177.01944486.4259754.03890838.8713126.02028459 1.2972511-.01875441.2904068.19086575.5423116.47643659.6006735l5.74935497 1.0317424c.26653652.0583434.53284911-.1156534.6087065-.4060048z" transform="matrix(.98768834 .15643447 -.15643447 .98768834 1.420032 -.990222)"/><path d="m7.04573096 17.525313-5.57802738-1.0122147c-.30460517-.0583803-.60894909.1543029-.6657535.4640345l-.3975375 2.2649291c-.32177343 1.8777694.9171931 3.6796053 2.76383979 4.010544 1.84664669.3309386 3.61562591-.9258544 3.93739933-2.8036237l.39753751-2.2649291c.07583873-.3097131-.13381875-.6003413-.45745825-.6587401z" transform="matrix(.98768834 .15643447 -.15643447 .98768834 3.16221 -.370684)"/></g></g></g></svg>