<svg xmlns="http://www.w3.org/2000/svg" width="70" height="70"><linearGradient id="a" x1="0%" x2="100%" y1="1.77%" y2="98.23%"><stop offset="0" stop-color="#a4aebe"/><stop offset="1" stop-color="#2d53f5"/></linearGradient><path fill="url(#a)" d="M25.487 42.992a4.013 4.013 0 0 0-1.995-2.505 4.14 4.14 0 0 0-3.23-.276l-7.12 2.35a4.052 4.052 0 0 0-2.406 2.133 3.944 3.944 0 0 0-.052 3.185c.388.917.755 1.78 1.093 2.57C12.98 53.267 15.8 55 18.77 55a7.704 7.704 0 0 0 2.544-.436c3.854-1.272 5.99-5.27 4.862-9.103a90.333 90.333 0 0 1-.69-2.469zm-5.272 8.35-.16.053c-2.027.668-4.263-.325-5.09-2.261-.337-.788-.702-1.647-1.088-2.56a.58.58 0 0 1 .007-.474.596.596 0 0 1 .359-.318l7.12-2.349a.631.631 0 0 1 .481.041.588.588 0 0 1 .296.37c.215.817.456 1.679.715 2.561.612 2.078-.548 4.247-2.64 4.937zm2.425-19.834c-.043-1.083-.04-2.1-.039-3.084.005-2.444.01-4.971-.673-8.531-1.073-5.595-3.775-10.005-7.412-12.102-2.308-1.33-4.799-1.613-7.204-.82C4.086 8.035 1.72 10.48.652 13.854c-1.091 3.444-.809 7.782.817 12.542.848 2.484 2.108 5.815 3.746 9.9.628 1.567 2.154 2.532 3.78 2.532.428 0 .865-.067 1.293-.208l9.586-3.162c1.699-.56 2.836-2.185 2.766-3.95zm-3.866.728-9.586 3.162a.609.609 0 0 1-.756-.347c-1.616-4.032-2.856-7.308-3.685-9.736-1.393-4.079-1.667-7.693-.794-10.451.74-2.338 2.282-3.953 4.459-4.67a5.051 5.051 0 0 1 1.59-.262c.925 0 1.85.264 2.765.791 2.734 1.576 4.888 5.24 5.764 9.8.622 3.244.618 5.503.613 7.894a75.276 75.276 0 0 0 .041 3.224.596.596 0 0 1-.411.595zm24.084 3.793-7.12-2.349a4.14 4.14 0 0 0-3.23.275 4.013 4.013 0 0 0-1.995 2.506 89.914 89.914 0 0 1-.69 2.468c-1.128 3.833 1.008 7.832 4.862 9.104a7.7 7.7 0 0 0 2.544.436c2.97 0 5.79-1.734 6.994-4.55.338-.792.705-1.654 1.093-2.57a3.944 3.944 0 0 0-.052-3.186 4.052 4.052 0 0 0-2.406-2.134zm-.734 4.014a1205.3 1205.3 0 0 1-1.089 2.56c-.827 1.936-3.063 2.93-5.09 2.26l-.16-.052c-2.092-.69-3.252-2.859-2.64-4.937.26-.883.5-1.744.715-2.56a.588.588 0 0 1 .296-.37.63.63 0 0 1 .482-.042l7.12 2.349a.596.596 0 0 1 .366.792zm13.224-32.72C54.28 3.949 51.914 1.504 48.688.44c-2.405-.793-4.896-.51-7.204.82-3.637 2.096-6.339 6.507-7.412 12.102-.683 3.56-.678 6.086-.673 8.53.002.984.003 2.002-.04 3.085-.07 1.765 1.068 3.39 2.767 3.95l9.586 3.162c.429.141.864.208 1.294.208 1.625 0 3.151-.965 3.779-2.531 1.637-4.085 2.898-7.416 3.746-9.9 1.626-4.762 1.908-9.099.817-12.543zm-4.095 11.46c-.83 2.43-2.07 5.706-3.685 9.737a.608.608 0 0 1-.756.347l-9.586-3.163a.597.597 0 0 1-.412-.595 74.88 74.88 0 0 0 .042-3.224c-.005-2.39-.01-4.65.613-7.894.875-4.56 3.03-8.224 5.764-9.8 1.44-.83 2.905-1.007 4.355-.53 2.177.719 3.719 2.334 4.459 4.672.873 2.758.599 6.372-.794 10.45z" transform="translate(7 7)"/></svg>