<svg height="70" viewBox="0 0 70 70" width="70" xmlns="http://www.w3.org/2000/svg" xmlns:xlink="http://www.w3.org/1999/xlink"><linearGradient id="a" x1="0%" x2="100%" y1="1.76977%" y2="98.23023%"><stop offset="0" stop-color="#a4aebe"/><stop offset="1" stop-color="#2d53f5"/></linearGradient><path d="m25.4865307 42.9923206c-.2812143-1.0669264-1.0082223-1.9802372-1.9944315-2.5056571-.987477-.526213-2.1645431-.626471-3.2296998-.2751714l-7.1199073 2.3487562c-1.0645805.3511862-1.941531 1.1290071-2.4061108 2.1340794-.4644646 1.0050724-.4835964 2.1660261-.0523243 3.1851459.3877069.9162563.7547837 1.7790416 1.0928171 2.5701169 1.2034587 2.8166269 4.0229775 4.5503821 6.9940524 4.5503821.8452563.002351 1.715407-.14662 2.5440671-.4359521 3.8544795-1.2715208 5.9899792-5.2701726 4.8616646-9.1029739-.2507878-.8520231-.4829049-1.6825219-.6901275-2.468726zm-5.2719608 8.3498493-.1600847.0527913c-2.0265867.6685-4.2623554-.3247907-5.0897477-2.2612995-.3365351-.7877901-.7021137-1.6469502-1.0882071-2.559468-.087937-.207653-.0328467-.3863049.0078372-.4742147.0406838-.0880231.1412986-.2462835.3582024-.3177669l7.1199073-2.3487562c.1514408-.0607213.3812528-.0225439.4819829.0408962.0858625.0457675.2382253.1546352.2951597.3703315.2152903.816678.4560512 1.6781038.7157134 2.5607141.611641 2.078003-.5481374 4.2465214-2.6407634 4.9367722zm2.4258188-19.8340924c-.0429889-1.0832396-.0409143-2.1004336-.0389551-3.0842082.0048406-2.4439163.0099117-4.9710978-.6730702-8.5309934-1.0734548-5.5945101-3.7753015-10.00529595-7.412762-12.10165122-2.3074553-1.32986299-4.7985066-1.61341755-7.20346486-.82007651-3.22647273 1.06432087-5.59189964 3.50857713-6.66039861 6.88257053-1.09085781 3.4446839-.80826052 7.7818339.81713491 12.5426732.84790712 2.4832265 2.10830025 5.8141714 3.74637337 9.9003932.62777628 1.566064 2.15347894 2.5317129 3.77910487 2.5317129.42908226 0 .86531014-.0672918 1.29358562-.2085593l9.5858338-3.1621489c1.6990413-.560312 2.8366913-2.184605 2.7666182-3.9497123zm-3.8665809.7277485-9.58594903 3.1622622c-.30587814.1004845-.63745743-.0517717-.75582098-.3469947-1.61629053-4.0320712-2.85628411-7.3076192-3.68528994-9.7357888-1.39270214-4.0791981-1.66723181-7.6932444-.79385405-10.4513025.74026198-2.3375409 2.28221514-3.9526577 4.45909019-4.6706637.52877503-.1744602 1.05939408-.26157706 1.59035891-.26157706.9245495 0 1.8495601.26429596 2.7643132.79141516 2.7341173 1.5756934 4.8887487 5.2391323 5.7638552 9.7996821.62259 3.2443944.6180952 5.5030883.6132546 7.8943268-.0020745 1.0179869-.0041491 2.070526.0414906 3.2233232.010949.2713197-.1544373.5105795-.4114487.5953173zm24.0838154 3.793038c-.0001153 0-.0001153 0 0 0l-7.1200226-2.3487563c-1.0652719-.3514128-2.242338-.2510415-3.2295845.2750582-.9863245.5254199-1.7132173 1.4387307-1.9945468 2.5057704-.2071074.7855243-.4392244 1.6161364-.689897 2.4684994-1.1284299 3.8330279 1.0069546 7.8316797 4.8613188 9.1030872.8290059.289672 1.6986956.4384163 2.5444129.4361761 2.9706139 0 5.7905937-1.7339792 6.9938219-4.5503796.3381487-.790962.704995-1.6537473 1.0929324-2.5702301.431272-1.0191198.4121402-2.1799602-.0522091-3.1849193-.4645798-1.0051856-1.3415303-1.7830065-2.406226-2.134306zm-.7339231 4.0138321c-.3863239.9125178-.7517872 1.7717912-1.0884376 2.5595812-.8273923 1.9366222-3.0628152 2.9297996-5.0895172 2.2614128l-.160661-.0530178c-2.0922802-.6901376-3.2520586-2.8585426-2.6400718-4.9368855.2596622-.8828369.5004231-1.7442627.7154829-2.5602609.0568191-.2158096.2092971-.3246774.2951597-.3704449.1008453-.0635533.3303115-.1016174.4819828-.0408962l7.1199073 2.348643c.2170191.0715966.3176339.229857.3582025.3178802.0405686.0880231.0957742.2665616.0079524.4739881zm13.224562-32.72013512c-1.068499-3.37399346-3.4338107-5.81824968-6.6602834-6.88268384-2.4051888-.79334104-4.8958943-.50978648-7.2035801.82007651-3.6374605 2.09624198-6.3393072 6.50714114-7.412762 12.10165115-.6830972 3.5597824-.6780261 6.0867373-.6730702 8.5306536.0019592.9838879.0039185 2.0013084-.0389551 3.0846614-.0698426 1.7651073 1.0678074 3.3891737 2.766503 3.949599l9.585949 3.1622621c.428506.1412675.8643881.2085593 1.2935856.2085593 1.6255107 0 3.1515591-.9657621 3.7792201-2.5315996 1.6374969-4.0849757 2.8980053-7.4159205 3.7462582-9.9005065 1.6253954-4.7609525 1.9079927-9.0981026.8171349-12.54267312zm-4.0951252 11.46124612c-.8293516 2.4293025-2.0693452 5.7049638-3.6852899 9.7359021-.1182483.295223-.4498276.4478191-.755821.3468814l-9.585949-3.1622622c-.2568962-.0847378-.4223977-.3241109-.4116793-.5953173.045755-1.1527972.0436804-2.2055629.0416059-3.2236631-.0048406-2.3912384-.0093354-4.6498191.6131393-7.8941002.8751065-4.5606631 3.0298532-8.224102 5.7639705-9.79968206 1.4398401-.8298191 2.9050356-1.00801779 4.3546721-.52983808 2.1768751.71811921 3.7188282 2.33323605 4.4589749 4.67077697.8736083 2.75817137.5991939 6.37221767-.7936235 10.45130247z" fill="url(#a)" transform="translate(7 7)"/></svg>