<svg xmlns="http://www.w3.org/2000/svg" width="70" height="70"><linearGradient id="a" x1="0%" x2="100%" y1="0%" y2="100%"><stop offset="0" stop-color="#a4aebe"/><stop offset="1" stop-color="#2d53f5"/></linearGradient><path fill="url(#a)" d="M32.635 1.255c1.673-1.672 4.293-1.674 5.967 0l20.114 20.114A4.052 4.052 0 0 1 60 24.262a4.277 4.277 0 0 1-1.256 3.1l-31.35 31.353A4.052 4.052 0 0 1 24.41 60a4.285 4.285 0 0 1-3.011-1.258l-4.311-4.31a2.12 2.12 0 0 1-.193-2.778c1.79-2.367 1.53-5.799-.602-7.983-2.082-2.134-5.506-2.37-7.966-.554a2.119 2.119 0 0 1-2.759-.206l-4.284-4.284A4.055 4.055 0 0 1 0 35.734a4.278 4.278 0 0 1 1.256-3.1zM35.62 4.27l-5.85 5.849 3.82 3.87-3.016 2.978-3.801-3.851L4.27 35.618l3.123 3.122c3.951-1.95 8.813-1.227 11.934 1.969 3.132 3.21 3.84 8.047 1.938 11.903l3.117 3.117 22.503-22.504-3.778-3.73 2.979-3.019 3.798 3.75 5.846-5.845zm1.497 13.171 5.511 5.512-2.997 2.998-5.512-5.512z" transform="translate(5 5)"/></svg>