<?xml version="1.0" encoding="UTF-8"?>
<svg width="54px" height="54px" viewBox="0 0 54 54" version="1.1" xmlns="http://www.w3.org/2000/svg" xmlns:xlink="http://www.w3.org/1999/xlink">
    <title>storing-oauth-tokens</title>
    <g id="storing-oauth-tokens" stroke="none" stroke-width="1" fill="none" fill-rule="evenodd">
        <rect id="Rectangle" fill="#F1F5F9" x="0" y="0" width="54" height="54" rx="5"></rect>
        <g id="icons8-ticket" transform="translate(27, 26.5) scale(-1, -1) rotate(-45) translate(-27, -26.5)translate(14, 17)" fill-rule="nonzero">
            <path d="M22.4293333,12.0909091 C20.993393,12.0909091 19.8293333,10.9309196 19.8293333,9.5 C19.8293333,8.06908042 20.993393,6.90909091 22.4293333,6.90909091 L26,6.90909091 L26,0.863636364 C26,0.386663171 25.6119801,0 25.1333333,0 L0.866666667,0 C0.388019883,0 0,0.386663171 0,0.863636364 L0,18.1363636 C0,18.6133368 0.388019883,19 0.866666667,19 L25.1333333,19 C25.6119801,19 26,18.6133368 26,18.1363636 L26,12.0909091 L22.4293333,12.0909091 Z" id="Path" fill="#FCD34D"></path>
            <path d="M8.66666667,5.18181818 L3.46666667,5.18181818 C2.98801988,5.18181818 2.6,4.79515501 2.6,4.31818182 C2.6,3.84120863 2.98801988,3.45454545 3.46666667,3.45454545 L8.66666667,3.45454545 C9.14531345,3.45454545 9.53333333,3.84120863 9.53333333,4.31818182 C9.53333333,4.79515501 9.14531345,5.18181818 8.66666667,5.18181818 Z" id="Path" fill="#FFFFFF"></path>
            <path d="M6.93333333,8.63636364 L3.46666667,8.63636364 C2.98801988,8.63636364 2.6,8.24970047 2.6,7.77272727 C2.6,7.29575408 2.98801988,6.90909091 3.46666667,6.90909091 L6.93333333,6.90909091 C7.41198012,6.90909091 7.8,7.29575408 7.8,7.77272727 C7.8,8.24970047 7.41198012,8.63636364 6.93333333,8.63636364 Z" id="Path" fill="#FFFFFF"></path>
            <path d="M13,6.04545455 C12.5213532,6.04545455 12.1333333,5.65879137 12.1333333,5.18181818 L12.1333333,3.45454545 C12.1333333,2.97757226 12.5213532,2.59090909 13,2.59090909 C13.4786468,2.59090909 13.8666667,2.97757226 13.8666667,3.45454545 L13.8666667,5.18181818 C13.8666667,5.65879137 13.4786468,6.04545455 13,6.04545455 Z" id="Path" fill="#F59E0B"></path>
            <path d="M13,11.2272727 C12.5213532,11.2272727 12.1333333,10.8406096 12.1333333,10.3636364 L12.1333333,8.63636364 C12.1333333,8.15939044 12.5213532,7.77272727 13,7.77272727 C13.4786468,7.77272727 13.8666667,8.15939044 13.8666667,8.63636364 L13.8666667,10.3636364 C13.8666667,10.8406096 13.4786468,11.2272727 13,11.2272727 Z" id="Path" fill="#F59E0B"></path>
            <path d="M13,16.4090909 C12.5213532,16.4090909 12.1333333,16.0224277 12.1333333,15.5454545 L12.1333333,13.8181818 C12.1333333,13.3412086 12.5213532,12.9545455 13,12.9545455 C13.4786468,12.9545455 13.8666667,13.3412086 13.8666667,13.8181818 L13.8666667,15.5454545 C13.8666667,16.0224277 13.4786468,16.4090909 13,16.4090909 Z" id="Path" fill="#F59E0B"></path>
            <rect id="Rectangle" fill="#C2410C" x="2.6" y="10.3636364" width="5.2" height="5.18181818" rx="0.875"></rect>
        </g>
    </g>
</svg>