<svg height="70" viewBox="0 0 70 70" width="70" xmlns="http://www.w3.org/2000/svg" xmlns:xlink="http://www.w3.org/1999/xlink"><linearGradient id="a" x1="0%" x2="100%" y1="0%" y2="100%"><stop offset="0" stop-color="#a4aebe"/><stop offset="1" stop-color="#2d53f5"/></linearGradient><path d="m32.6353754 1.25461227c1.6721717-1.67205454 4.2926379-1.673578 5.9662159 0l20.1148115 20.11481143c.804269.7555184 1.2586112 1.7809233 1.282635 2.8925794.0248441 1.1476331-.4324279 2.277688-1.2557987 3.1003557l-31.3510227 31.353132c-.7554011.804269-1.7809232 1.2587285-2.8925793 1.2827523-.0296489.0007031-.0601181.0014062-.0897669.0014062-1.1165781 0-2.2091324-.4558657-3.011292-1.2573222l-4.3110366-4.3110366c-.7483698-.7483698-.8304022-1.9328003-.1921902-2.7773824 1.788775-2.3668689 1.5293182-5.7986355-.6028209-7.9831581-2.0812789-2.1335453-5.505311-2.3703846-7.96546248-.5533671-.8431758.623329-2.01705934.5370778-2.75910093-.20637l-4.2842003-4.2842003c-.80356588-.7554012-1.25872848-1.7809233-1.28275225-2.8925794-.02554723-1.14693.4324279-2.277688 1.25579875-3.1010588zm2.9838697 3.01492481-5.8502451 5.84946292 3.8209387 3.8695645-3.0167813 2.9782024-3.8011574-3.8507669-22.50155098 22.50163 3.12297319 3.1223873c3.95056289-1.9506132 8.81215399-1.2269703 11.93372089 1.9688946 3.1322312 3.2099275 3.8395848 8.0474949 1.9378395 11.9026658l3.1173481 3.1173481 22.5026693-22.5039258-3.7783036-3.730754 2.9788611-3.0178725 3.7984425 3.7496265 5.8464237-5.8452843zm1.4963215 13.17192532 5.5118936 5.5118937-2.9977866 2.9977866-5.5118937-5.5118936z" fill="url(#a)" transform="translate(5 5.000624)"/></svg>