<svg xmlns="http://www.w3.org/2000/svg" width="36" height="36"><mask id="a" fill="#fff"><path fill-rule="evenodd" d="M0 0h36v36H0z"/></mask><g mask="url(#a)"><path d="M27.476 32.711c-1.736 1.685-3.65 1.422-5.476.628-1.941-.81-3.715-.861-5.765 0-2.552 1.102-3.907.781-5.444-.628-8.678-8.934-7.397-22.545 2.466-23.057 2.392.128 4.067 1.322 5.476 1.422 2.095-.426 4.1-1.646 6.341-1.486 2.693.218 4.708 1.28 6.053 3.193-5.54 3.33-4.228 10.632.861 12.681-1.018 2.674-2.325 5.316-4.515 7.27zM18.54 9.558C18.28 5.587 21.5 2.32 25.201 2c.51 4.58-4.163 8.006-6.661 7.558z"/></g></svg>