<svg height="36" viewBox="0 0 36 36" width="36" xmlns="http://www.w3.org/2000/svg" xmlns:xlink="http://www.w3.org/1999/xlink"><mask id="a" fill="#fff"><path d="m0 0h36v36h-36z" fill="#fff" fill-rule="evenodd"/></mask><g mask="url(#a)"><path d="m22.475817 30.7114c-1.7357 1.6845-3.6507 1.4219-5.4761.6276-1.9407-.8102-3.7149-.8614-5.7644 0-2.55235996 1.1017-3.90698996.7814-5.44415996-.6276-8.6786-8.9348-7.39763-22.54519 2.46587-23.05758 2.39218996.1281 4.06708996 1.32261 5.47618996 1.42189 2.0944-.42593 4.0991-1.64606 6.3408-1.48593 2.6933.21776 4.7076 1.28097 6.0526 3.19282-5.5402 3.3305-4.2272 10.6321.8615 12.6817-1.0184 2.674-2.325 5.316-4.5155 7.2695zm-8.9348-23.15365c-.2594-3.97102 2.9591-7.237506 6.6611-7.55775.5092 4.57948-4.1632 8.00609-6.6611 7.55775z" transform="translate(5 2)"/></g></svg>