<svg xmlns="http://www.w3.org/2000/svg" width="70" height="70"><linearGradient id="a" x1="0%" x2="100%" y1="0%" y2="100%"><stop offset="0" stop-color="#a4aebe"/><stop offset="1" stop-color="#2d53f5"/></linearGradient><path fill="url(#a)" d="M26.5 0c.855 0 1.698.046 2.535.128a2.208 2.208 0 0 1 1.988 1.988c1.012 10.523 9.34 18.852 19.864 19.866a2.208 2.208 0 0 1 1.987 1.987A26.6 26.6 0 0 1 53 26.5C53 41.136 41.136 53 26.5 53S0 41.136 0 26.5 11.864 0 26.5 0zm.375 4.417H26.5c-12.196 0-22.083 9.887-22.083 22.083S14.304 48.583 26.5 48.583c12.19-.013 22.07-9.892 22.083-22.083v-.375A26.513 26.513 0 0 1 26.875 4.417zM20.98 28.708a3.313 3.313 0 1 1 0 6.625 3.313 3.313 0 0 1 0-6.625zm11.042 0a3.312 3.312 0 1 1 0 6.625 3.312 3.312 0 0 1 0-6.625zM20.979 17.667a3.312 3.312 0 1 1 0 6.625 3.312 3.312 0 0 1 0-6.625zm26.5-6.625a3.312 3.312 0 1 1 0 6.625 3.312 3.312 0 0 1 0-6.625zM40.854 0a3.313 3.313 0 1 1 0 6.625 3.313 3.313 0 0 1 0-6.625z" transform="translate(9 9)"/></svg>