<?xml version="1.0" encoding="UTF-8"?>
<svg width="54px" height="54px" viewBox="0 0 54 54" version="1.1" xmlns="http://www.w3.org/2000/svg" xmlns:xlink="http://www.w3.org/1999/xlink">
    <title>third-party-cookies-ciam-system</title>
    <g id="third-party-cookies-ciam-system" stroke="none" stroke-width="1" fill="none" fill-rule="evenodd">
        <rect id="Rectangle" fill="#F1F5F9" x="0" y="0" width="54" height="54" rx="5"></rect>
        <g id="icons8-cookie" transform="translate(13, 13)" fill-rule="nonzero">
            <path d="M26.25,13.3 C25.3407,13.3 24.5273,12.9087 23.9526,12.2927 C23.0076,12.9262 21.8736,13.3 20.65,13.3 C17.3642,13.3 14.7,10.6358 14.7,7.35 C14.7,6.1264 15.0703,4.9896 15.7038,4.0439 C15.0892,3.4692 14.7,2.6579 14.7,1.75 C14.7,1.127 14.8869,0.5495 15.1991,0.0602 C14.8029,0.0266 14.4046,0 14,0 C6.2678,0 0,6.2678 0,14 C0,21.7322 6.2678,28 14,28 C21.7322,28 28,21.7322 28,14 C28,13.5947 27.9769,13.1957 27.9426,12.7988 C27.4533,13.1124 26.8744,13.3 26.25,13.3 Z" id="Path" fill="#FDBA74"></path>
            <path d="M21.35,4.9 C20.9748711,4.9 20.6282377,5.10012886 20.4406733,5.42499999 C20.2531089,5.74987113 20.2531089,6.15012887 20.4406733,6.47500001 C20.6282377,6.79987114 20.9748711,7 21.35,7 C21.7251289,7 22.0717623,6.79987114 22.2593267,6.47500001 C22.4468911,6.15012887 22.4468911,5.74987113 22.2593267,5.42499999 C22.0717623,5.10012886 21.7251289,4.9 21.35,4.9 L21.35,4.9 Z M26.95,7 C26.370101,7 25.9,7.47010101 25.9,8.05 C25.9,8.62989899 26.370101,9.1 26.95,9.1 C27.529899,9.1 28,8.62989899 28,8.05 C28,7.47010101 27.529899,7 26.95,7 L26.95,7 Z M22.4,0 C21.6268014,0 21,0.62680135 21,1.4 C21,2.17319865 21.6268014,2.8 22.4,2.8 C23.1731986,2.8 23.8,2.17319865 23.8,1.4 C23.8,0.62680135 23.1731986,0 22.4,0 Z" id="Shape" fill="#4338CA"></path>
            <path d="M6.3,10.5 C5.54974225,10.5 4.85647548,10.9002577 4.4813466,11.55 C4.10621772,12.1997423 4.10621772,13.0002577 4.4813466,13.65 C4.85647548,14.2997423 5.54974225,14.7 6.3,14.7 C7.05025775,14.7 7.74352452,14.2997423 8.1186534,13.65 C8.49378228,13.0002577 8.49378228,12.1997423 8.1186534,11.55 C7.74352452,10.9002577 7.05025775,10.5 6.3,10.5 L6.3,10.5 Z M16.8,19.6 C15.640202,19.6 14.7,20.540202 14.7,21.7 C14.7,22.859798 15.640202,23.8 16.8,23.8 C17.959798,23.8 18.9,22.859798 18.9,21.7 C18.9,20.540202 17.959798,19.6 16.8,19.6 L16.8,19.6 Z M8.75,18.9 C7.78350169,18.9 7,19.6835017 7,20.65 C7,21.6164983 7.78350169,22.4 8.75,22.4 C9.71649831,22.4 10.5,21.6164983 10.5,20.65 C10.5,19.6835017 9.71649831,18.9 8.75,18.9 Z M12.95,13.3 C12.370101,13.3 11.9,13.770101 11.9,14.35 C11.9,14.929899 12.370101,15.4 12.95,15.4 C13.529899,15.4 14,14.929899 14,14.35 C14,13.770101 13.529899,13.3 12.95,13.3 Z M21.35,15.4 C20.770101,15.4 20.3,15.870101 20.3,16.45 C20.3,17.029899 20.770101,17.5 21.35,17.5 C21.929899,17.5 22.4,17.029899 22.4,16.45 C22.4,15.870101 21.929899,15.4 21.35,15.4 Z M10.15,5.6 C9.57010101,5.6 9.1,6.07010101 9.1,6.65 C9.1,7.22989899 9.57010101,7.7 10.15,7.7 C10.729899,7.7 11.2,7.22989899 11.2,6.65 C11.2,6.07010101 10.729899,5.6 10.15,5.6 Z" id="Shape" fill="#4338CA"></path>
        </g>
    </g>
</svg>