<?xml version="1.0" encoding="UTF-8"?>
<svg width="76px" height="76px" viewBox="0 0 76 76" version="1.1" xmlns="http://www.w3.org/2000/svg" xmlns:xlink="http://www.w3.org/1999/xlink">
    <title>third-party-cookies-ciam-system</title>
    <defs>
        <linearGradient x1="2.77555756e-15%" y1="100%" x2="100%" y2="2.77555756e-15%" id="linearGradient-1">
            <stop stop-color="#DDEDEB" offset="0%"></stop>
            <stop stop-color="#E6F9F7" offset="100%"></stop>
        </linearGradient>
    </defs>
    <g id="third-party-cookies-ciam-system" stroke="none" stroke-width="1" fill="none" fill-rule="evenodd">
        <rect id="Rectangle-Copy-8" fill="url(#linearGradient-1)" x="0" y="0" width="76" height="76" rx="12"></rect>
        <g id="cookie-fill" transform="translate(19, 19)" fill="#14B8A6" fill-rule="nonzero">
            <path d="M36.5384615,17.5384615 C32.5025345,17.5384615 29.2307692,14.2666962 29.2307692,10.2307692 C29.2307692,9.42358383 28.5764162,8.76923077 27.7692308,8.76923077 C23.7333038,8.76923077 20.4615385,5.49746548 20.4615385,1.46153846 C20.4615385,0.654353058 19.8071854,1.29810692e-15 19,1.29810692e-15 C8.50658975,1.29810692e-15 1.29810692e-15,8.50658975 1.29810692e-15,19 C1.29810692e-15,29.4934102 8.50658975,38 19,38 C29.4934102,38 38,29.4934102 38,19 C38,18.6123759 37.8460169,18.2406279 37.5719253,17.9665362 C37.2978337,17.6924446 36.9260856,17.5384615 36.5384615,17.5384615 Z M9.35391886,13.7390064 C10.135682,12.959953 11.4007491,12.9614172 12.1807068,13.7422782 C12.9606645,14.5231391 12.9606645,15.788207 12.1807068,16.569068 C11.4007491,17.3499289 10.135682,17.3513931 9.35391886,16.5723397 C8.97734316,16.1970693 8.76567506,15.6873094 8.76567506,15.1556731 C8.76567506,14.6240368 8.97734316,14.1142768 9.35391886,13.7390064 Z M13.6525821,26.8059602 C12.8701666,27.5856637 11.6040438,27.5841982 10.8234352,26.8026857 C10.0428266,26.0211731 10.0428266,24.7550495 10.8234352,23.9735369 C11.6040438,23.1920244 12.8701666,23.1905589 13.6525821,23.9702624 C14.0280077,24.3461545 14.2386031,24.8558731 14.2379788,25.3871347 C14.2373516,25.9183963 14.025556,26.4276174 13.649246,26.802624 L13.6525821,26.8059602 Z M18.1236218,19.4973093 C17.3445684,18.7152207 17.3460326,17.4496269 18.1268935,16.6693444 C18.9077545,15.889062 20.1728224,15.889062 20.9536834,16.6693444 C21.7345443,17.4496269 21.7360085,18.7152207 20.9569551,19.4973093 C20.5812419,19.8736005 20.0712328,20.084757 19.5395964,20.0841326 C19.00796,20.0835055 18.498449,19.8711491 18.1236218,19.4939746 L18.1236218,19.4973093 Z M25.3420427,28.2646474 C24.5602795,29.0437008 23.2952124,29.0422366 22.5152547,28.2613757 C21.7352971,27.4805147 21.7352971,26.2154468 22.5152547,25.4345859 C23.2952124,24.6537249 24.5602795,24.6522607 25.3420427,25.4313141 C25.7171552,25.8068928 25.9275751,26.3161864 25.9269513,26.847005 C25.9263247,27.3778236 25.7147056,27.8866201 25.3387093,28.2613141 L25.3420427,28.2646474 Z" id="Shape"></path>
        </g>
    </g>
</svg>