<?xml version="1.0" encoding="UTF-8"?>
<svg width="54px" height="54px" viewBox="0 0 54 54" version="1.1" xmlns="http://www.w3.org/2000/svg" xmlns:xlink="http://www.w3.org/1999/xlink">
    <title>tokens</title>
    <g id="tokens" stroke="none" stroke-width="1" fill="none" fill-rule="evenodd">
        <rect id="Rectangle" fill="#F1F5F9" x="0" y="0" width="54" height="54" rx="5"></rect>
        <g id="icons8-key" transform="translate(9, 9)" fill-rule="nonzero">
            <polygon id="Path" fill="#6366F1" points="35.45575 28.3855 17.77775 10.7075 10.70675 17.7785 15.92975 23.0005 19.99975 23.0005 19.99975 27.0005 23.99975 27.0005 23.99975 31.0005 27.99975 31.0005 27.99975 35.0005 34.45975 35.0005 36.86975 32.6285"></polygon>
            <path d="M2.92875,2.9295 C-0.97625,6.8355 -0.97625,13.1655 2.92875,17.0725 C6.83475,20.9775 13.16475,20.9775 17.07175,17.0725 C20.97675,13.1665 20.97675,6.8365 17.07175,2.9295 C13.16475,-0.9765 6.83475,-0.9765 2.92875,2.9295 Z M9.12075,9.1215 C7.94975,10.2925 6.04975,10.2925 4.87775,9.1215 C3.70675,7.9505 3.70675,6.0505 4.87775,4.8785 C6.04975,3.7075 7.94975,3.7075 9.12075,4.8785 C10.29175,6.0505 10.29175,7.9505 9.12075,9.1215 Z" id="Shape" fill="#6366F1"></path>
            <g id="Group" transform="translate(12.5818, 12.5825)" fill="#4338CA">
                <polygon id="Path" transform="translate(14.7413, 11.9143) rotate(-45.001) translate(-14.7413, -11.9143)" points="13.7412929 -0.585707094 15.7412929 -0.585707094 15.7412929 24.4142929 13.7412929 24.4142929"></polygon>
                <path d="M8.657,1.585 L7.071,0 C6.633,1.644 5.778,3.199 4.489,4.489 C3.199,5.779 1.643,6.634 0,7.071 L1.591,8.661 C3.19,8.069 4.661,7.145 5.904,5.903 C7.166,4.641 8.075,3.161 8.657,1.585 Z" id="Path"></path>
            </g>
        </g>
    </g>
</svg>