<svg xmlns="http://www.w3.org/2000/svg" width="70" height="70"><defs><linearGradient id="a" x1="0%" x2="100%" y1="0%" y2="100%"><stop offset="0%" stop-color="#A4AEBE"/><stop offset="100%" stop-color="#2A49D0"/></linearGradient></defs><path fill="url(#a)" d="M53.44 5.56c-7.415-7.414-19.48-7.414-26.894 0a19.014 19.014 0 0 0-4.63 19.3L.505 46.27A1.728 1.728 0 0 0 0 47.491v9.78A1.73 1.73 0 0 0 1.729 59h9.78a1.73 1.73 0 0 0 1.222-.506l2.445-2.446c.374-.373.556-.897.495-1.422l-.305-2.625 3.64-.343a1.729 1.729 0 0 0 1.558-1.56l.343-3.64 2.626.306a1.728 1.728 0 0 0 1.928-1.717v-3.22h3.161a1.73 1.73 0 0 0 1.216-.499l4.295-4.245a19.014 19.014 0 0 0 19.306-4.629c7.415-7.414 7.415-19.479 0-26.893Zm-2.446 24.45c-4.363 4.363-10.908 5.725-16.674 3.47a1.729 1.729 0 0 0-1.845.38l-4.563 4.51h-4.18c-.954 0-1.728.774-1.728 1.729v3.006l-2.452-.284a1.73 1.73 0 0 0-1.921 1.554l-.375 3.975-3.974.374a1.729 1.729 0 0 0-1.555 1.921l.413 3.55-1.348 1.348H3.457v-7.335l21.676-21.675a1.729 1.729 0 0 0 .387-1.852c-2.255-5.766-.893-12.312 3.47-16.675 6.067-6.067 15.938-6.067 22.004 0 6.067 6.066 6.067 15.937 0 22.003Z" transform="translate(6 5)"/></svg>