<?xml version="1.0" encoding="UTF-8"?>
<svg width="54px" height="54px" viewBox="0 0 54 54" version="1.1" xmlns="http://www.w3.org/2000/svg" xmlns:xlink="http://www.w3.org/1999/xlink">
    <title>tokens</title>
    <g id="tokens" stroke="none" stroke-width="1" fill="none" fill-rule="evenodd">
        <rect id="Rectangle" fill="#F1F5F9" x="0" y="0" width="54" height="54" rx="5"></rect>
        <g id="icons8-key" transform="translate(12, 13)" fill-rule="nonzero">
            <polygon id="Path" fill="#6366F1" points="28.690356 23.5190783 14.3855362 8.87180183 8.66377015 14.7305467 12.8901574 19.0572849 16.1835512 19.0572849 16.1835512 22.3715233 19.4203019 22.3715233 19.4203019 25.6857616 22.6570526 25.6857616 22.6570526 29 27.884405 29 29.8345473 27.0346566"></polygon>
            <path d="M2.36990841,2.42726532 C-0.789969469,5.66361909 -0.789969469,10.9084013 2.36990841,14.1455836 C5.53059547,17.3811088 10.6527535,17.3811088 13.8142497,14.1455836 C16.9741276,10.9092299 16.9741276,5.66444765 13.8142497,2.42726532 C10.6527535,-0.809088442 5.53059547,-0.809088442 2.36990841,2.42726532 Z M7.3803985,7.55770632 C6.43283973,8.5279496 4.89538314,8.5279496 3.94701519,7.55770632 C2.99945642,6.58746304 2.99945642,5.01319981 3.94701519,4.04212797 C4.89538314,3.07188469 6.43283973,3.07188469 7.3803985,4.04212797 C8.32795727,5.01319981 8.32795727,6.58746304 7.3803985,7.55770632 Z" id="Shape" fill="#6366F1"></path>
            <g id="Group" transform="translate(10.181, 10.4254)" fill="#4338CA">
                <polygon id="Path" transform="translate(11.9285, 9.8717) rotate(-45.001) translate(-11.9285, -9.8717)" points="11.230673 -0.354528574 12.868421 -0.37390049 12.626272 20.0979319 10.9885241 20.1173038"></polygon>
                <path d="M7.00513771,1.31326695 L5.72176606,0 C5.36734186,1.36215197 4.67548639,2.65056213 3.63244348,3.71940401 C2.58859138,4.78824588 1.32949535,5.49666433 0,5.85874488 L1.28741759,7.17615463 C2.58130869,6.68564735 3.77162376,5.92005828 4.77744404,4.89098727 C5.79863889,3.84534507 6.53419049,2.61907687 7.00513771,1.31326695 Z" id="Path"></path>
            </g>
        </g>
    </g>
</svg>