<svg xmlns="http://www.w3.org/2000/svg" width="70" height="70"><linearGradient id="a" x1="0%" x2="100%" y1="0%" y2="100%"><stop offset="0" stop-color="#a4aebe"/><stop offset="1" stop-color="#2d53f5"/></linearGradient><path fill="url(#a)" fill-rule="evenodd" d="M12.151 0a7.034 7.034 0 0 1 7.035 7.035v.639h18.547a9.598 9.598 0 0 1 6.784 2.81 9.598 9.598 0 0 1 2.809 6.783l-.001.639.64.001a7.034 7.034 0 0 1 7.031 6.798l.004.237v5.116a7.034 7.034 0 0 1-7.035 7.035H42.85a7.034 7.034 0 0 1-7.035-7.035l-.001-.64H17.267a5.754 5.754 0 0 0-3.863 1.49l-.207.196a5.754 5.754 0 0 0-1.685 4.07l-.001.639.64.001a7.034 7.034 0 0 1 7.035 7.035v.639h11.356l-1.84-1.841a1.916 1.916 0 0 1 0-2.712 1.916 1.916 0 0 1 2.712 0l5.116 5.116a1.927 1.927 0 0 1 .497.858l.009.034c.01.042.02.084.027.127l.007.042c.006.037.01.074.014.112l.004.05c.003.04.005.08.005.12v.037c0 .041-.002.083-.006.125l-.003.035a1.492 1.492 0 0 1-.016.13l-.007.031a1.54 1.54 0 0 1-.027.129l-.01.035c-.01.036-.02.073-.033.11l-.021.057-.023.058-.022.052a1.9 1.9 0 0 1-.014.029l.036-.08a1.918 1.918 0 0 1-.09.188l-.029.049a1.61 1.61 0 0 1-.057.093c-.01.012-.018.024-.027.037a1.619 1.619 0 0 1-.214.254l.115-.123a2.173 2.173 0 0 1-.13.14l-5.101 5.1a1.917 1.917 0 0 1-2.712 0 1.916 1.916 0 0 1 0-2.713l1.842-1.842H19.186v.64a7.034 7.034 0 0 1-6.798 7.031l-.237.004H7.035A7.034 7.034 0 0 1 0 47.965V42.85a7.034 7.034 0 0 1 7.035-7.035l.639-.001v-.639a9.598 9.598 0 0 1 2.81-6.784 9.598 9.598 0 0 1 6.783-2.809h18.546l.001-.64a7.034 7.034 0 0 1 6.798-7.03l.237-.004.639-.001v-.639A5.754 5.754 0 0 0 42 13.404l-.196-.207a5.754 5.754 0 0 0-4.07-1.685l-18.547-.001v.64a7.034 7.034 0 0 1-6.798 7.031l-.237.004H7.035A7.034 7.034 0 0 1 0 12.151V7.035A7.034 7.034 0 0 1 7.035 0zm0 39.651H7.035a3.199 3.199 0 0 0-3.198 3.198v5.116a3.199 3.199 0 0 0 3.198 3.198h5.116a3.199 3.199 0 0 0 3.198-3.198V42.85a3.199 3.199 0 0 0-3.198-3.198zm35.814-17.907H42.85a3.199 3.199 0 0 0-3.198 3.198v5.116a3.199 3.199 0 0 0 3.198 3.198h5.116a3.199 3.199 0 0 0 3.198-3.198v-5.116a3.199 3.199 0 0 0-3.198-3.198zM12.151 3.837H7.035a3.199 3.199 0 0 0-3.198 3.198v5.116a3.199 3.199 0 0 0 3.198 3.198h5.116a3.199 3.199 0 0 0 3.198-3.198V7.035a3.199 3.199 0 0 0-3.198-3.198z" transform="translate(7.667 7.667)"/></svg>