<svg height="54" viewBox="0 0 54 54" width="54" xmlns="http://www.w3.org/2000/svg" xmlns:xlink="http://www.w3.org/1999/xlink"><mask id="a" fill="#fff"><path d="m0 0h5.65725v6.53235h-5.65725z" fill="#fff" fill-rule="evenodd"/></mask><mask id="b" fill="#fff"><path d="m0 0h5.65725v6.53235h-5.65725z" fill="#fff" fill-rule="evenodd"/></mask><g fill="none" fill-rule="evenodd"><rect fill="#f1f5f9" height="54" rx="5" width="54"/><g transform="translate(12 13)"><path d="m21.5118931 21h6.9773803c.5522847 0 1 .4477153 1 1v7c0 .5522847-.4477153 1-1 1h-6.9773803c-.5522847 0-1-.4477153-1-1v-7c0-.5522847.4477153-1 1-1z" fill="#6366f1" fill-rule="nonzero"/><g transform="translate(9 4.7954)"><path d="m0 0h19.0084227s2.1996032 0 1.9755538 3.2330415v4.38648476s.345871 3.01201704-2.5437705 2.87600204h-1.9534044" stroke="#cbd5e1" stroke-width="1.85"/><path d="m5.65725 3.26625v-2.40006307c0-.27614237-.22385763-.5-.5-.5-.08779572 0-.1740437.02311755-.25006993.06702768l-2.07811216 1.20024617c-.00004527.00002615-.00009055.00005229-.00013583.00007842l-2.07860255 1.19966006c-.23916732.1380348-.32115143.44381753-.18311663.68298485.04389839.07606097.10705566.13921823.18311663.18311663l2.07860255 1.19966006c.00004528.00002613.00009056.00005227.00013583.00007842l2.07811216 1.20024617c.23912401.13810981.54493244.05622162.68304225-.18290239.04391014-.07602623.06702768-.16227422.06702768-.25006993z" fill="#cbd5e1" mask="url(#a)" transform="translate(11.4003 7.2338)"/></g><g transform="matrix(-1 0 0 1 20.0998 15.2954)"><path d="m2.09970689 0h16.00842271s2.1996032 0 1.9755538 3.2330415v4.38648476s.345871 3.01201704-2.5437705 2.87600204h-12.45340442" stroke="#cbd5e1" stroke-width="1.85"/><path d="m5.65725 3.26625v-2.40006307c0-.27614237-.22385763-.5-.5-.5-.08779572 0-.1740437.02311755-.25006993.06702768l-2.07811216 1.20024617c-.00004527.00002615-.00009055.00005229-.00013583.00007842l-2.07860255 1.19966006c-.23916732.1380348-.32115143.44381753-.18311663.68298485.04389839.07606097.10705566.13921823.18311663.18311663l2.07860255 1.19966006c.00004528.00002613.00009055.00005227.00013583.00007842l2.07811216 1.20024617c.23912401.13810981.54493244.05622162.68304225-.18290239.04391014-.07602623.06702768-.16227422.06702768-.25006993z" fill="#cbd5e1" mask="url(#b)" transform="translate(0 7.2338)"/></g><g fill-rule="nonzero"><path d="m1.26189311 0h6.97738024c.55228475 0 1 .44771525 1 1v7c0 .55228475-.44771525 1-1 1h-6.97738024c-.55228475 0-1-.44771525-1-1v-7c0-.55228475.44771525-1 1-1z" fill="#4338ca"/><path d="m13.9850162 20.0760878-4.44334981-4.4545454c-.31738213-.3181818-.31738213-.7954546 0-1.1136364l4.44334981-4.4545454c.3173821-.31818186.7934553-.31818186 1.1108375 0l4.4433498 4.4545454c.3173821.3181818.3173821.7954546 0 1.1136364l-4.4433498 4.4545454c-.3173822.3181819-.7934554.3181819-1.1108375 0z" fill="#f59e0b"/></g></g></g></svg>