<svg height="70" viewBox="0 0 70 70" width="70" xmlns="http://www.w3.org/2000/svg" xmlns:xlink="http://www.w3.org/1999/xlink"><linearGradient id="a" x1="0%" x2="100%" y1="0%" y2="100%"><stop offset="0" stop-color="#a4aebe"/><stop offset="1" stop-color="#2d53f5"/></linearGradient><path d="m12.1511628 0c3.8858139 0 7.0348837 3.14906977 7.0348837 7.03488372l-.0000465.63911628 18.5465581.0004186c2.5453489 0 4.9832559 1.01046512 6.7841861 2.8088372 1.7983721 1.8009302 2.8088372 4.2388372 2.8088372 6.7841861l-.0005814.6385581.6401163.0009767c3.8065116 0 6.9060434 3.0218479 7.0309695 6.7979178l.0039142.236966v5.116279c0 3.885814-3.1490698 7.0348838-7.0348837 7.0348838h-5.1162791c-3.8858139 0-7.0348837-3.1490698-7.0348837-7.0348838l-.0009535-.6401395-18.5455581.0006047c-1.4317588 0-2.8073084.5328624-3.8631686 1.4889796l-.2068314.1968343c-1.0795349 1.0795349-1.685814 2.5427907-1.685814 4.07l-.0006279.6385814.6401628.0009535c3.8858139 0 7.0348837 3.1490698 7.0348837 7.0348837l-.0000465.6391628 11.3556279.0003721-1.8393023-1.8418605c-.7495349-.7469767-.7495349-1.9646511 0-2.7116279.7469767-.7495349 1.9646511-.7495349 2.7116279 0l5.1162791 5.1162791c.0525829.0524035.1014769.1071235.1466821.1638351.0586764.0736058.1114604.1510758.1580978.2315046.0117274.0201349.0231493.0407026.0341636.0614317.0163147.0307619.0317876.0618986.0463814.0933874.0055413.0119837.0109076.0239021.0161458.0358634.0160683.0365565.0309776.073668.0446995.1111699.0070653.0197234.0139589.0396375.0205148.0596389.0111589.0333086.0212306.0670207.0303657.100971.0027369.0114396.0056619.022782.0084816.0341454.0107889.0417577.019816.0839443.0274144.126393.0019809.0141571.0043043.0281316.0064725.0421257.0063846.0370961.0111325.0747357.014763.1125071.0009012.0169391.0022682.0336347.0034176.0503426.0034947.0392691.0050331.0790097.0053328.1188108-.0007422.0129686-.000777.0253079-.0009301.037646.0003576.0413577-.0015181.083414-.0047887.1254479-.001749.0115415-.0027296.0228619-.0038104.0341744-.0033044.0433044-.0089626.0867181-.0161314.1300114-.0024752.010364-.0043299.0210668-.0062759.0317561-.0071591.0431492-.01649.0858485-.0273218.1283365-.0036245.0118916-.0067145.0235984-.0099171.0352807-.0094652.0364498-.0207245.0730708-.0331281.1094681-.0070641.0194983-.0138661.0385128-.0209777.0574365-.0068788.0192847-.0146065.0388409-.0226747.0583158l-.0225199.0514254c-.0043621.0097191-.0088093.0194089-.0133416.0290685l.0358615-.0804939c-.0269767.0651163-.0572939.1281818-.0907034.1890313-.0092455.0160889-.0185624.032456-.02814.0487109-.0182831.031864-.0375767.0626151-.0576717.0927161-.0087598.0121543-.0174078.0247454-.0262233.0372538-.0255381.0373615-.0527721.0733322-.0811681.1082201-.0418077.0499339-.0859584.0987446-.1330702.1456957l.1144282-.1231457c-.0411946.0490626-.0847195.095904-.1303694.1403871l-5.1003379 5.0990377c-.7469768.7495349-1.9646512.7495349-2.7116279 0-.7495349-.7469768-.7495349-1.9646512 0-2.7116279l1.8416744-1.8424419h-11.358l.0000465.6401163c0 3.8065116-3.0218479 6.9060434-6.7979178 7.0309695l-.2369659.0039142h-5.11627908c-3.88581395 0-7.03488372-3.1490698-7.03488372-7.0348837v-5.1162791c0-3.8858139 3.14906977-7.0348837 7.03488372-7.0348837l.63911628-.0009535.0004186-.6385814c0-2.5453488 1.01046512-4.9832558 2.8088372-6.784186 1.8009302-1.7983721 4.2388372-2.8088373 6.7841861-2.8088373l18.5455581-.0003953.0009535-.6391395c0-3.8065117 3.0218479-6.9060434 6.7979178-7.0309696l.2369659-.0039142.6391628-.0009767.0003721-.6385581c0-1.4317588-.5328625-2.8073084-1.4889796-3.8631686l-.1968344-.2068314c-1.0795348-1.0795349-2.5427907-1.685814-4.07-1.685814l-18.5465581-.0006279.0000465.6401628c0 3.8065116-3.0218479 6.9060434-6.7979178 7.0309695l-.2369659.0039142h-5.11627908c-3.88581395 0-7.03488372-3.1490698-7.03488372-7.0348837v-5.11627908c0-3.88581395 3.14906977-7.03488372 7.03488372-7.03488372zm0 39.6511628h-5.11627908c-1.76511628 0-3.19767442 1.4325581-3.19767442 3.1976744v5.1162791c0 1.7651163 1.43255814 3.1976744 3.19767442 3.1976744h5.11627908c1.7651163 0 3.1976744-1.4325581 3.1976744-3.1976744v-5.1162791c0-1.7651163-1.4325581-3.1976744-3.1976744-3.1976744zm35.8139535-17.9069768h-5.1162791c-1.7651163 0-3.1976744 1.4325582-3.1976744 3.1976745v5.116279c0 1.7651163 1.4325581 3.1976745 3.1976744 3.1976745h5.1162791c1.7651163 0 3.1976744-1.4325582 3.1976744-3.1976745v-5.116279c0-1.7651163-1.4325581-3.1976745-3.1976744-3.1976745zm-35.8139535-17.9069767h-5.11627908c-1.76511628 0-3.19767442 1.43255814-3.19767442 3.19767442v5.11627908c0 1.7651163 1.43255814 3.1976744 3.19767442 3.1976744h5.11627908c1.7651163 0 3.1976744-1.4325581 3.1976744-3.1976744v-5.11627908c0-1.76511628-1.4325581-3.19767442-3.1976744-3.19767442z" fill="url(#a)" fill-rule="evenodd" transform="translate(7.666667 7.666667)"/></svg>