<?xml version="1.0" encoding="UTF-8"?>
<svg width="76px" height="76px" viewBox="0 0 76 76" version="1.1" xmlns="http://www.w3.org/2000/svg" xmlns:xlink="http://www.w3.org/1999/xlink">
    <title>time-based-one-time-passwords</title>
    <defs>
        <linearGradient x1="-3.88578059e-14%" y1="100%" x2="100%" y2="2.77555756e-15%" id="linearGradient-1">
            <stop stop-color="#F2E4E8" offset="0%"></stop>
            <stop stop-color="#FFF4F6" offset="100%"></stop>
        </linearGradient>
    </defs>
    <g id="time-based-one-time-passwords" stroke="none" stroke-width="1" fill="none" fill-rule="evenodd">
        <rect id="Rectangle-Copy-10" fill="url(#linearGradient-1)" x="0" y="0" width="76" height="76" rx="12"></rect>
        <g id="clock-fill" transform="translate(19, 19)" fill="#F43F5E" fill-rule="nonzero">
            <path d="M19,0 C29.4933208,0 38,8.50630045 38,19 C38,29.4936996 29.4933208,38 19,38 C8.5064898,38 0,29.4936996 0,19 C0,8.50630045 8.50668006,0 19,0 Z M18.9730957,7.6020874 C17.9237546,7.6020874 17.0730957,8.45274633 17.0730957,9.5020874 L17.0730957,19.0020874 C17.0730957,19.5059985 17.2732736,19.9892711 17.6295928,20.3455899 L23.3295927,26.0455899 C24.0715891,26.7875872 25.2746019,26.7875872 26.0165982,26.0455899 C26.7585941,25.3035945 26.7585941,24.1005803 26.0165982,23.3585849 L20.8730957,18.2150824 L20.8730957,9.5020874 C20.8730957,8.45274633 20.0224368,7.6020874 18.9730957,7.6020874 Z" id="Combined-Shape"></path>
        </g>
    </g>
</svg>