<svg xmlns="http://www.w3.org/2000/svg" width="70" height="70"><linearGradient id="a" x1="0%" x2="100%" y1="0%" y2="100%"><stop offset="0" stop-color="#a4aebe"/><stop offset="1" stop-color="#2d53f5"/></linearGradient><path fill="url(#a)" d="M29.5 0c.955 0 1.729.774 1.729 1.729v4.136a23.599 23.599 0 0 1 13.754 5.708l2.932-2.933a1.729 1.729 0 0 1 2.445 2.445l-2.933 2.932a23.599 23.599 0 0 1 5.708 13.754h4.136a1.729 1.729 0 0 1 0 3.458h-4.136a23.598 23.598 0 0 1-5.708 13.754l2.932 2.932a1.728 1.728 0 0 1-2.444 2.445l-2.932-2.933a23.599 23.599 0 0 1-13.755 5.708v4.136a1.728 1.728 0 1 1-3.457 0v-4.136a23.598 23.598 0 0 1-13.754-5.708l-2.932 2.933c-.338.337-.78.506-1.222.506a1.728 1.728 0 0 1-1.222-2.95l2.932-2.933a23.6 23.6 0 0 1-5.708-13.754H1.73a1.729 1.729 0 0 1 0-3.458h4.136a23.6 23.6 0 0 1 5.708-13.754L8.64 11.085a1.728 1.728 0 1 1 2.445-2.445l2.932 2.933a23.599 23.599 0 0 1 13.754-5.708V1.73c0-.956.774-1.73 1.729-1.73zm0 9.259c-11.161 0-20.241 9.08-20.241 20.241s9.08 20.241 20.241 20.241 20.241-9.08 20.241-20.241S40.661 9.259 29.5 9.259zm0 3.474c9.245 0 16.767 7.522 16.767 16.767S38.745 46.267 29.5 46.267 12.733 38.745 12.733 29.5 20.255 12.733 29.5 12.733zM21.68 31.23h-5.377c.776 5.959 5.51 10.692 11.468 11.468V37.32a8.033 8.033 0 0 1-6.091-6.091zm21.017 0H37.32a8.033 8.033 0 0 1-6.091 6.091v5.377c5.959-.776 10.692-5.51 11.468-11.468zM29.5 24.947c-2.51 0-4.553 2.042-4.553 4.553s2.042 4.553 4.553 4.553 4.553-2.042 4.553-4.553-2.042-4.553-4.553-4.553zm1.729-8.644v5.377a8.033 8.033 0 0 1 6.091 6.091h5.377c-.776-5.959-5.51-10.692-11.468-11.468zm-3.458 0c-5.959.776-10.692 5.51-11.468 11.468h5.377a8.033 8.033 0 0 1 6.091-6.091z" transform="translate(6 6)"/></svg>