<?xml version="1.0" encoding="UTF-8"?>
<svg width="76px" height="76px" viewBox="0 0 76 76" version="1.1" xmlns="http://www.w3.org/2000/svg" xmlns:xlink="http://www.w3.org/1999/xlink">
    <title>types-kubernetes-auth</title>
    <defs>
        <linearGradient x1="-3.88578059e-14%" y1="100%" x2="100%" y2="2.77555756e-15%" id="linearGradient-1">
            <stop stop-color="#DDE7EC" offset="0%"></stop>
            <stop stop-color="#E7F6FD" offset="100%"></stop>
        </linearGradient>
    </defs>
    <g id="types-kubernetes-auth" stroke="none" stroke-width="1" fill="none" fill-rule="evenodd">
        <rect id="Rectangle" fill="url(#linearGradient-1)" x="0" y="0" width="76" height="76" rx="12"></rect>
        <path d="M38.0794052,19.0000767 C39.1885331,18.9998717 40.0874926,19.9023026 40.0872876,21.0157126 L40.0878337,23.1655103 C43.3894593,23.6074921 46.3528758,25.1231985 48.6182505,27.3514011 L50.4064373,25.9783805 C51.2864123,25.3030582 52.5483076,25.4722785 53.2249594,26.3563445 C53.9016112,27.2404106 53.7367852,28.5045445 52.8568103,29.1798668 L51.0913216,30.5345296 C52.3934832,32.7714795 53.1396893,35.3743797 53.1396893,38.1522416 C53.1396893,38.7224257 53.1082504,39.2852383 53.0470179,39.8390278 L55.5890864,40.5227082 C56.6603686,40.8106819 57.2959429,41.9160155 57.0086815,42.99154 C56.72142,44.0670646 55.6201028,44.7055007 54.5488206,44.417527 L52.0729752,43.7520646 C50.9349236,46.615855 48.9498978,49.0483585 46.4286224,50.7376456 L47.6429086,53.4562099 C48.0969693,54.4722105 47.6447304,55.6650479 46.6328048,56.1204867 C45.6208791,56.5759256 44.4324624,56.1215005 43.9784017,55.1054998 L42.8176627,52.5085718 C41.3273432,53.004166 39.7338386,53.2724278 38.0779201,53.2724278 C36.513889,53.2724278 35.0055372,53.0331118 33.5872184,52.5889668 L32.3796349,55.3039451 C31.9273108,56.3207255 30.7396716,56.7771962 29.7269685,56.3235009 C28.7142654,55.8698056 28.2599885,54.6777496 28.7123127,53.6609692 L29.9482416,50.882942 C27.3219581,49.189288 25.2539688,46.6990274 24.0828651,43.7520646 L21.6070197,44.417527 C20.5357375,44.7055007 19.4344203,44.0670646 19.1471588,42.99154 C18.8598973,41.9160155 19.4954717,40.8106819 20.5667539,40.5227082 L23.1088224,39.8390278 C23.0475898,39.2852383 23.0161509,38.7224257 23.0161509,38.1522416 C23.0161509,35.272216 23.818254,32.5802581 25.2104372,30.2892135 L23.2276208,28.6179552 C22.3796727,27.9027172 22.2730141,26.632142 22.9893922,25.7800461 C23.7057703,24.9279501 24.9739073,24.8170048 25.8218554,25.5322427 L27.7436109,27.1525479 C29.9817648,25.0326691 32.8667549,23.5936173 36.0700051,23.1652429 L36.0707803,21.0164551 C36.0709853,19.9030451 36.9702773,19.0002818 38.0794052,19.0000767 Z M38.0779201,44.2003161 C37.8279197,44.2003161 37.5814757,44.1850298 37.3394652,44.1553375 L35.2413802,48.8713334 C36.1465509,49.1120948 37.0973123,49.2403782 38.0779201,49.2403782 C39.1481604,49.2403782 40.1828486,49.0875716 41.1615167,48.8025059 L39.067805,44.1190724 C38.7457453,44.1725152 38.4150668,44.2003161 38.0779201,44.2003161 Z M32.971393,41.3630998 L28.0010313,42.6991784 C28.7996004,44.479951 30.0528074,46.0109095 31.6122198,47.1430454 L33.7350259,42.3704013 L33.7441203,42.3536081 C33.4538633,42.0519404 33.1945739,41.7200507 32.971393,41.3630998 Z M42.5912916,42.1586379 L42.6202052,42.217471 L44.7521621,46.9878781 C46.2148443,45.872688 47.3921572,44.3998571 48.154809,42.6991784 L43.1844472,41.3630998 C43.0083638,41.644724 42.8098037,41.9107482 42.5912916,42.1586379 Z M38.0779201,36.1362168 C36.9688021,36.1362168 36.0696842,37.0388219 36.0696842,38.1522416 C36.0696842,39.2656614 36.9688021,40.1682664 38.0779201,40.1682664 C39.1870382,40.1682664 40.086156,39.2656614 40.086156,38.1522416 C40.086156,37.0388219 39.1870382,36.1362168 38.0779201,36.1362168 Z M27.0326227,38.1522416 C27.0326227,38.3629052 27.0384749,38.5721967 27.0500248,38.7799612 L31.9806973,37.4545017 C32.019123,37.4441724 32.0575874,37.435035 32.0960514,37.427067 C32.142072,37.0405143 32.2244514,36.6649692 32.339659,36.3041769 L28.3345884,32.9249377 C27.5037642,34.4823106 27.0326227,36.2620422 27.0326227,38.1522416 Z M47.865763,33.0092453 L43.7669122,36.156503 C43.9080972,36.5621208 44.0074534,36.9874464 44.0597907,37.4272698 C44.0970583,37.4347515 44.1361205,37.444012 44.175143,37.4545017 L49.1058154,38.7799612 C49.1173654,38.5721967 49.1232175,38.3629052 49.1232175,38.1522416 C49.1232175,36.2960634 48.6688833,34.5464121 47.865763,33.0092453 Z M30.8471624,29.7700916 L34.78124,33.0891401 C35.179734,32.8271242 35.6110381,32.61124 36.0676232,32.4490458 L36.0694359,27.2469804 C34.0949121,27.6111253 32.3041135,28.5023973 30.8471624,29.7700916 Z M40.0864044,27.2469804 L40.0855208,32.4480887 C40.4947264,32.593231 40.8836463,32.781492 41.246864,33.007434 L45.382221,29.8346523 C43.9121724,28.5326572 42.0942805,27.6172762 40.0864044,27.2469804 Z" id="Combined-Shape" fill="#0EA5E9" fill-rule="nonzero"></path>
    </g>
</svg>