<svg height="70" viewBox="0 0 70 70" width="70" xmlns="http://www.w3.org/2000/svg" xmlns:xlink="http://www.w3.org/1999/xlink"><linearGradient id="a" x1="0%" x2="100%" y1="0%" y2="100%"><stop offset="0" stop-color="#a4aebe"/><stop offset="1" stop-color="#2d53f5"/></linearGradient><path d="m29.5 0c.9547168 0 1.7285156.77391406 1.7285156 1.72851563v4.13656835c5.2364805.37935157 10.0068379 2.4669375 13.7541446 5.70778902l2.9324843-2.93248433c.675043-.67492773 1.7695391-.67492773 2.4444668 0 .675043.67504297.675043 1.76953903 0 2.44446683l-2.9324843 2.9324843c3.2408515 3.7473067 5.3283222 8.5176641 5.7076738 13.7541446h4.1366836c.9546015 0 1.7285156.7740293 1.7285156 1.7286308 0 .9546016-.7739141 1.7285157-1.7285156 1.7285157h-4.1369141c-.3792363 5.2364804-2.4668223 10.0067226-5.7076738 13.7541445l2.9324844 2.9324844c.6750429.6750429.6750429 1.769539 0 2.4444668-.3374063.3375214-.7799063.5063398-1.2221758.5063398-.4422696 0-.8846543-.1688184-1.2221758-.5063398l-2.9324844-2.9324844c-3.7473066 3.2408516-8.517664 5.3283223-13.7541445 5.7076738v4.1365684c0 .9546015-.7737988 1.7285156-1.7285156 1.7285156-.9546016 0-1.7285157-.7739141-1.7285157-1.7285156v-4.1366836c-5.2364804-.3792363-10.0067226-2.4668223-13.7541445-5.7076738l-2.9324844 2.9324843c-.3374062.3375215-.7799062.5063399-1.22217575.5063399-.44226953 0-.88465429-.1688184-1.22217578-.5063399-.67504297-.6750429-.67504297-1.769539 0-2.4444668l2.93248433-2.9324843c-3.24073628-3.7473067-5.32832222-8.5176641-5.70767378-13.7541446h-4.13668359c-.95460157 0-1.72851563-.773914-1.72851563-1.7285156s.77391406-1.7285156 1.72851563-1.7285156h4.13668359c.37935156-5.2364805 2.46682226-10.0068379 5.70767378-13.7542598l-2.93248433-2.9324844c-.67504297-.6750429-.67504297-1.76953903 0-2.44446676.67504297-.67492774 1.76953903-.67492774 2.44446683 0l2.9324843 2.93259956c3.7473067-3.24085152 8.5176641-5.32832222 13.7541446-5.70767378v-4.13668359c0-.95460157.773914-1.72851563 1.7285156-1.72851563zm0 9.25885156c-11.1610254 0-20.24114844 9.08012304-20.24114844 20.24114844s9.08012304 20.2411484 20.24114844 20.2411484 20.2411484-9.080123 20.2411484-20.2411484-9.080123-20.24114844-20.2411484-20.24114844zm0 3.47454684c9.2451387 0 16.7666016 7.5214629 16.7666016 16.7666016s-7.5214629 16.7666016-16.7666016 16.7666016-16.7666016-7.5214629-16.7666016-16.7666016 7.5214629-16.7666016 16.7666016-16.7666016zm-7.8203809 18.4951172h-5.3770664c.776334 5.9593457 5.509586 10.6927129 11.4689317 11.4689317v-5.3770664c-3.0314707-.669627-5.4222383-3.0605098-6.0918653-6.0918653zm21.0178282 0h-5.3770664c-.669627 3.0314707-3.0603946 5.4222383-6.0918653 6.0918653v5.3770664c5.9593457-.7762188 10.6925977-5.509586 11.4689317-11.4689317zm-13.1974473-6.2817715c-2.5107266 0-4.5532559 2.0426446-4.5532559 4.5532559s2.0425293 4.5532559 4.5532559 4.5532559 4.5531406-2.0426446 4.5531406-4.5532559-2.042414-4.5532559-4.5531406-4.5532559zm1.7285156-8.6441914v5.3770664c3.0314707.669627 5.4222383 3.0605098 6.0918653 6.0918653h5.3770664c-.776334-5.9593457-5.509586-10.6927129-11.4689317-11.4689317zm-3.4570312 0c-5.9593457.7762188-10.6925977 5.509586-11.4689317 11.4689317h5.3770664c.669627-3.0314707 3.0605098-5.4222383 6.0918653-6.0918653z" fill="url(#a)" transform="translate(6 6)"/></svg>