<?xml version="1.0" encoding="UTF-8"?>
<svg width="54px" height="54px" viewBox="0 0 54 54" version="1.1" xmlns="http://www.w3.org/2000/svg" xmlns:xlink="http://www.w3.org/1999/xlink">
    <title>types-kubernetes-auth</title>
    <g id="types-kubernetes-auth" stroke="none" stroke-width="1" fill="none" fill-rule="evenodd">
        <rect id="Rectangle" fill="#F1F5F9" x="0" y="0" width="54" height="54" rx="5"></rect>
        <circle id="Oval" fill="#4338CA" cx="26.5" cy="27.5" r="12.5"></circle>
        <g id="icons8-kubernetes" transform="translate(12, 12)">
            <path d="M15.8490253,14.9811347 C15.9198072,15.0736708 15.9496466,15.2071771 15.9295224,15.330794 L15.7379948,16.184104 C15.7178706,16.3176102 15.6269644,16.4207421 15.5166279,16.4821973 L14.7408026,16.8523417 C14.6297721,16.913797 14.4889022,16.913797 14.3778718,16.8523417 L13.6020465,16.4821973 C13.491016,16.4207421 13.4008038,16.3176102 13.3806795,16.184104 L13.189152,15.330794 C13.1690277,15.2071771 13.1995611,15.0736708 13.2696491,14.9811347 L13.8136983,14.2924119 C13.8837863,14.18928 14.0052258,14.1278248 14.1356866,14.1278248 L14.9822938,14.1278248 C15.1134485,14.1278248 15.2341942,14.18928 15.3049761,14.2924119 L15.8490253,14.9811347 Z" id="Path" fill="#CBD5E1" fill-rule="nonzero"></path>
            <path d="M15.4583369,8.70987169 L15.491646,8.9747651 C15.584634,9.70728366 15.6512523,10.4475724 15.7178706,11.180091 C15.7442403,11.4718269 15.771304,11.7572054 15.7907343,12.0489413 C15.8039192,12.2728646 16.050268,12.3880049 16.2299985,12.2594433 C16.4562231,12.0899115 16.689387,11.9203797 16.9287964,11.7572054 C17.527667,11.3432653 18.1195981,10.9293252 18.7316534,10.5288064 L18.957878,10.3861171 C18.0064858,9.50384552 16.7955599,8.89988856 15.4583369,8.70987169 Z M15.4583369,8.70987169 L15.491646,8.9747651 C15.584634,9.70728366 15.6512523,10.4475724 15.7178706,11.180091 C15.7442403,11.4718269 15.771304,11.7572054 15.7907343,12.0489413 C15.8039192,12.2728646 16.050268,12.3880049 16.2299985,12.2594433 C16.4562231,12.0899115 16.689387,11.9203797 16.9287964,11.7572054 C17.527667,11.3432653 18.1195981,10.9293252 18.7316534,10.5288064 L18.957878,10.3861171 C18.0064858,9.50384552 16.7955599,8.89988856 15.4583369,8.70987169 Z M15.4583369,8.70987169 L15.491646,8.9747651 C15.584634,9.70728366 15.6512523,10.4475724 15.7178706,11.180091 C15.7442403,11.4718269 15.771304,11.7572054 15.7907343,12.0489413 C15.8039192,12.2728646 16.050268,12.3880049 16.2299985,12.2594433 C16.4562231,12.0899115 16.689387,11.9203797 16.9287964,11.7572054 C17.527667,11.3432653 18.1195981,10.9293252 18.7316534,10.5288064 L18.957878,10.3861171 C18.0064858,9.50384552 16.7955599,8.89988856 15.4583369,8.70987169 Z M15.4583369,8.70987169 L15.491646,8.9747651 C15.584634,9.70728366 15.6512523,10.4475724 15.7178706,11.180091 C15.7442403,11.4718269 15.771304,11.7572054 15.7907343,12.0489413 C15.8039192,12.2728646 16.050268,12.3880049 16.2299985,12.2594433 C16.4562231,12.0899115 16.689387,11.9203797 16.9287964,11.7572054 C17.527667,11.3432653 18.1195981,10.9293252 18.7316534,10.5288064 L18.957878,10.3861171 C18.0064858,9.50384552 16.7955599,8.89988856 15.4583369,8.70987169 Z M15.4583369,8.70987169 L15.491646,8.9747651 C15.584634,9.70728366 15.6512523,10.4475724 15.7178706,11.180091 C15.7442403,11.4718269 15.771304,11.7572054 15.7907343,12.0489413 C15.8039192,12.2728646 16.050268,12.3880049 16.2299985,12.2594433 C16.4562231,12.0899115 16.689387,11.9203797 16.9287964,11.7572054 C17.527667,11.3432653 18.1195981,10.9293252 18.7316534,10.5288064 L18.957878,10.3861171 C18.0064858,9.50384552 16.7955599,8.89988856 15.4583369,8.70987169 Z M20.1819887,11.8921244 L20.0022582,12.0892051 C19.5033151,12.6324132 18.9911871,13.1544298 18.4783652,13.6771528 C18.1522133,14.0162163 17.7996916,14.3418586 17.4603547,14.6745648 C17.9128038,14.7897051 18.3652529,14.9119092 18.817702,15.0475347 C19.5164999,15.2509728 20.2083585,15.4480535 20.900217,15.6783342 L21.1465658,15.7595681 C21.1535052,15.6507852 21.1535052,15.5356449 21.1535052,15.4205046 C21.1535052,14.1249992 20.8009835,12.9170853 20.1819887,11.8921244 Z M20.1819887,11.8921244 L20.0022582,12.0892051 C19.5033151,12.6324132 18.9911871,13.1544298 18.4783652,13.6771528 C18.1522133,14.0162163 17.7996916,14.3418586 17.4603547,14.6745648 C17.9128038,14.7897051 18.3652529,14.9119092 18.817702,15.0475347 C19.5164999,15.2509728 20.2083585,15.4480535 20.900217,15.6783342 L21.1465658,15.7595681 C21.1535052,15.6507852 21.1535052,15.5356449 21.1535052,15.4205046 C21.1535052,14.1249992 20.8009835,12.9170853 20.1819887,11.8921244 Z M15.4583369,8.70987169 L15.491646,8.9747651 C15.584634,9.70728366 15.6512523,10.4475724 15.7178706,11.180091 C15.7442403,11.4718269 15.771304,11.7572054 15.7907343,12.0489413 C15.8039192,12.2728646 16.050268,12.3880049 16.2299985,12.2594433 C16.4562231,12.0899115 16.689387,11.9203797 16.9287964,11.7572054 C17.527667,11.3432653 18.1195981,10.9293252 18.7316534,10.5288064 L18.957878,10.3861171 C18.0064858,9.50384552 16.7955599,8.89988856 15.4583369,8.70987169 Z M15.4583369,8.70987169 L15.491646,8.9747651 C15.584634,9.70728366 15.6512523,10.4475724 15.7178706,11.180091 C15.7442403,11.4718269 15.771304,11.7572054 15.7907343,12.0489413 C15.8039192,12.2728646 16.050268,12.3880049 16.2299985,12.2594433 C16.4562231,12.0899115 16.689387,11.9203797 16.9287964,11.7572054 C17.527667,11.3432653 18.1195981,10.9293252 18.7316534,10.5288064 L18.957878,10.3861171 C18.0064858,9.50384552 16.7955599,8.89988856 15.4583369,8.70987169 Z M20.5345104,17.6738645 C19.8093428,17.6265368 19.0904206,17.5587241 18.3652529,17.4909114 C18.0522858,17.4640689 17.7462582,17.4301625 17.433985,17.3955498 C17.2341302,17.3687073 17.0745239,17.5721454 17.1480816,17.7685197 C17.2611939,18.0736769 17.3673667,18.3795405 17.4742335,18.6917615 C17.7073975,19.3840163 17.9468069,20.0826285 18.1660921,20.7883045 L18.2389558,21.0327128 C19.3964483,20.2253177 20.295101,19.058374 20.7669804,17.6872857 L20.5345104,17.6738645 Z M20.1819887,11.8921244 L20.0022582,12.0892051 C19.5033151,12.6324132 18.9911871,13.1544298 18.4783652,13.6771528 C18.1522133,14.0162163 17.7996916,14.3418586 17.4603547,14.6745648 C17.9128038,14.7897051 18.3652529,14.9119092 18.817702,15.0475347 C19.5164999,15.2509728 20.2083585,15.4480535 20.900217,15.6783342 L21.1465658,15.7595681 C21.1535052,15.6507852 21.1535052,15.5356449 21.1535052,15.4205046 C21.1535052,14.1249992 20.8009835,12.9170853 20.1819887,11.8921244 Z M20.1819887,11.8921244 L20.0022582,12.0892051 C19.5033151,12.6324132 18.9911871,13.1544298 18.4783652,13.6771528 C18.1522133,14.0162163 17.7996916,14.3418586 17.4603547,14.6745648 C17.9128038,14.7897051 18.3652529,14.9119092 18.817702,15.0475347 C19.5164999,15.2509728 20.2083585,15.4480535 20.900217,15.6783342 L21.1465658,15.7595681 C21.1535052,15.6507852 21.1535052,15.5356449 21.1535052,15.4205046 C21.1535052,14.1249992 20.8009835,12.9170853 20.1819887,11.8921244 Z M20.5345104,17.6738645 C19.8093428,17.6265368 19.0904206,17.5587241 18.3652529,17.4909114 C18.0522858,17.4640689 17.7462582,17.4301625 17.433985,17.3955498 C17.2341302,17.3687073 17.0745239,17.5721454 17.1480816,17.7685197 C17.2611939,18.0736769 17.3673667,18.3795405 17.4742335,18.6917615 C17.7073975,19.3840163 17.9468069,20.0826285 18.1660921,20.7883045 L18.2389558,21.0327128 C19.3964483,20.2253177 20.295101,19.058374 20.7669804,17.6872857 L20.5345104,17.6738645 Z M15.4583369,8.70987169 L15.491646,8.9747651 C15.584634,9.70728366 15.6512523,10.4475724 15.7178706,11.180091 C15.7442403,11.4718269 15.771304,11.7572054 15.7907343,12.0489413 C15.8039192,12.2728646 16.050268,12.3880049 16.2299985,12.2594433 C16.4562231,12.0899115 16.689387,11.9203797 16.9287964,11.7572054 C17.527667,11.3432653 18.1195981,10.9293252 18.7316534,10.5288064 L18.957878,10.3861171 C18.0064858,9.50384552 16.7955599,8.89988856 15.4583369,8.70987169 Z M15.4583369,8.70987169 L15.491646,8.9747651 C15.584634,9.70728366 15.6512523,10.4475724 15.7178706,11.180091 C15.7442403,11.4718269 15.771304,11.7572054 15.7907343,12.0489413 C15.8039192,12.2728646 16.050268,12.3880049 16.2299985,12.2594433 C16.4562231,12.0899115 16.689387,11.9203797 16.9287964,11.7572054 C17.527667,11.3432653 18.1195981,10.9293252 18.7316534,10.5288064 L18.957878,10.3861171 C18.0064858,9.50384552 16.7955599,8.89988856 15.4583369,8.70987169 Z M20.5345104,17.6738645 C19.8093428,17.6265368 19.0904206,17.5587241 18.3652529,17.4909114 C18.0522858,17.4640689 17.7462582,17.4301625 17.433985,17.3955498 C17.2341302,17.3687073 17.0745239,17.5721454 17.1480816,17.7685197 C17.2611939,18.0736769 17.3673667,18.3795405 17.4742335,18.6917615 C17.7073975,19.3840163 17.9468069,20.0826285 18.1660921,20.7883045 L18.2389558,21.0327128 C19.3964483,20.2253177 20.295101,19.058374 20.7669804,17.6872857 L20.5345104,17.6738645 Z M20.1819887,11.8921244 L20.0022582,12.0892051 C19.5033151,12.6324132 18.9911871,13.1544298 18.4783652,13.6771528 C18.1522133,14.0162163 17.7996916,14.3418586 17.4603547,14.6745648 C17.9128038,14.7897051 18.3652529,14.9119092 18.817702,15.0475347 C19.5164999,15.2509728 20.2083585,15.4480535 20.900217,15.6783342 L21.1465658,15.7595681 C21.1535052,15.6507852 21.1535052,15.5356449 21.1535052,15.4205046 C21.1535052,14.1249992 20.8009835,12.9170853 20.1819887,11.8921244 Z M20.1819887,11.8921244 L20.0022582,12.0892051 C19.5033151,12.6324132 18.9911871,13.1544298 18.4783652,13.6771528 C18.1522133,14.0162163 17.7996916,14.3418586 17.4603547,14.6745648 C17.9128038,14.7897051 18.3652529,14.9119092 18.817702,15.0475347 C19.5164999,15.2509728 20.2083585,15.4480535 20.900217,15.6783342 L21.1465658,15.7595681 C21.1535052,15.6507852 21.1535052,15.5356449 21.1535052,15.4205046 C21.1535052,14.1249992 20.8009835,12.9170853 20.1819887,11.8921244 Z M20.5345104,17.6738645 C19.8093428,17.6265368 19.0904206,17.5587241 18.3652529,17.4909114 C18.0522858,17.4640689 17.7462582,17.4301625 17.433985,17.3955498 C17.2341302,17.3687073 17.0745239,17.5721454 17.1480816,17.7685197 C17.2611939,18.0736769 17.3673667,18.3795405 17.4742335,18.6917615 C17.7073975,19.3840163 17.9468069,20.0826285 18.1660921,20.7883045 L18.2389558,21.0327128 C19.3964483,20.2253177 20.295101,19.058374 20.7669804,17.6872857 L20.5345104,17.6738645 Z M15.4583369,8.70987169 L15.491646,8.9747651 C15.584634,9.70728366 15.6512523,10.4475724 15.7178706,11.180091 C15.7442403,11.4718269 15.771304,11.7572054 15.7907343,12.0489413 C15.8039192,12.2728646 16.050268,12.3880049 16.2299985,12.2594433 C16.4562231,12.0899115 16.689387,11.9203797 16.9287964,11.7572054 C17.527667,11.3432653 18.1195981,10.9293252 18.7316534,10.5288064 L18.957878,10.3861171 C18.0064858,9.50384552 16.7955599,8.89988856 15.4583369,8.70987169 Z M16.3562957,21.6296059 C15.9704648,21.0051639 15.6110038,20.3609431 15.2515427,19.7230798 C15.0919364,19.4447652 14.9385756,19.1664505 14.7921542,18.8817784 C14.6859813,18.6846977 14.4125688,18.6846977 14.3063959,18.8817784 C14.1530351,19.1735143 13.9934288,19.4588928 13.8275771,19.7365011 C13.4618706,20.3743644 13.0954701,21.0122277 12.7096392,21.6366698 L12.5430936,21.9079206 C13.1620883,22.1050013 13.8206377,22.2067204 14.4993113,22.2067204 C15.1981093,22.2067204 15.8767829,22.0979375 16.5089625,21.8874355 L16.3562957,21.6296059 Z M15.4583369,8.70987169 L15.491646,8.9747651 C15.584634,9.70728366 15.6512523,10.4475724 15.7178706,11.180091 C15.7442403,11.4718269 15.771304,11.7572054 15.7907343,12.0489413 C15.8039192,12.2728646 16.050268,12.3880049 16.2299985,12.2594433 C16.4562231,12.0899115 16.689387,11.9203797 16.9287964,11.7572054 C17.527667,11.3432653 18.1195981,10.9293252 18.7316534,10.5288064 L18.957878,10.3861171 C18.0064858,9.50384552 16.7955599,8.89988856 15.4583369,8.70987169 Z M20.5345104,17.6738645 C19.8093428,17.6265368 19.0904206,17.5587241 18.3652529,17.4909114 C18.0522858,17.4640689 17.7462582,17.4301625 17.433985,17.3955498 C17.2341302,17.3687073 17.0745239,17.5721454 17.1480816,17.7685197 C17.2611939,18.0736769 17.3673667,18.3795405 17.4742335,18.6917615 C17.7073975,19.3840163 17.9468069,20.0826285 18.1660921,20.7883045 L18.2389558,21.0327128 C19.3964483,20.2253177 20.295101,19.058374 20.7669804,17.6872857 L20.5345104,17.6738645 Z M20.1819887,11.8921244 L20.0022582,12.0892051 C19.5033151,12.6324132 18.9911871,13.1544298 18.4783652,13.6771528 C18.1522133,14.0162163 17.7996916,14.3418586 17.4603547,14.6745648 C17.9128038,14.7897051 18.3652529,14.9119092 18.817702,15.0475347 C19.5164999,15.2509728 20.2083585,15.4480535 20.900217,15.6783342 L21.1465658,15.7595681 C21.1535052,15.6507852 21.1535052,15.5356449 21.1535052,15.4205046 C21.1535052,14.1249992 20.8009835,12.9170853 20.1819887,11.8921244 Z M20.1819887,11.8921244 L20.0022582,12.0892051 C19.5033151,12.6324132 18.9911871,13.1544298 18.4783652,13.6771528 C18.1522133,14.0162163 17.7996916,14.3418586 17.4603547,14.6745648 C17.9128038,14.7897051 18.3652529,14.9119092 18.817702,15.0475347 C19.5164999,15.2509728 20.2083585,15.4480535 20.900217,15.6783342 L21.1465658,15.7595681 C21.1535052,15.6507852 21.1535052,15.5356449 21.1535052,15.4205046 C21.1535052,14.1249992 20.8009835,12.9170853 20.1819887,11.8921244 Z M20.5345104,17.6738645 C19.8093428,17.6265368 19.0904206,17.5587241 18.3652529,17.4909114 C18.0522858,17.4640689 17.7462582,17.4301625 17.433985,17.3955498 C17.2341302,17.3687073 17.0745239,17.5721454 17.1480816,17.7685197 C17.2611939,18.0736769 17.3673667,18.3795405 17.4742335,18.6917615 C17.7073975,19.3840163 17.9468069,20.0826285 18.1660921,20.7883045 L18.2389558,21.0327128 C19.3964483,20.2253177 20.295101,19.058374 20.7669804,17.6872857 L20.5345104,17.6738645 Z M15.4583369,8.70987169 L15.491646,8.9747651 C15.584634,9.70728366 15.6512523,10.4475724 15.7178706,11.180091 C15.7442403,11.4718269 15.771304,11.7572054 15.7907343,12.0489413 C15.8039192,12.2728646 16.050268,12.3880049 16.2299985,12.2594433 C16.4562231,12.0899115 16.689387,11.9203797 16.9287964,11.7572054 C17.527667,11.3432653 18.1195981,10.9293252 18.7316534,10.5288064 L18.957878,10.3861171 C18.0064858,9.50384552 16.7955599,8.89988856 15.4583369,8.70987169 Z M16.3562957,21.6296059 C15.9704648,21.0051639 15.6110038,20.3609431 15.2515427,19.7230798 C15.0919364,19.4447652 14.9385756,19.1664505 14.7921542,18.8817784 C14.6859813,18.6846977 14.4125688,18.6846977 14.3063959,18.8817784 C14.1530351,19.1735143 13.9934288,19.4588928 13.8275771,19.7365011 C13.4618706,20.3743644 13.0954701,21.0122277 12.7096392,21.6366698 L12.5430936,21.9079206 C13.1620883,22.1050013 13.8206377,22.2067204 14.4993113,22.2067204 C15.1981093,22.2067204 15.8767829,22.0979375 16.5089625,21.8874355 L16.3562957,21.6296059 Z M11.6853833,17.3008945 C11.3724162,17.3418647 11.0663885,17.3891923 10.7541154,17.4230987 C10.0289477,17.5113965 9.31696495,17.5996943 8.5917973,17.667507 L8.23233621,17.7014134 C8.71809445,19.0859229 9.6361775,20.2662879 10.8137942,21.0673256 L10.9067823,20.7819471 C11.1330068,20.076271 11.3724162,19.3840163 11.618765,18.6854041 C11.7318773,18.3463405 11.851929,18.0136344 11.9782261,17.6745708 C12.0580293,17.4767838 11.8914836,17.2669882 11.6853833,17.3008945 Z M16.3562957,21.6296059 C15.9704648,21.0051639 15.6110038,20.3609431 15.2515427,19.7230798 C15.0919364,19.4447652 14.9385756,19.1664505 14.7921542,18.8817784 C14.6859813,18.6846977 14.4125688,18.6846977 14.3063959,18.8817784 C14.1530351,19.1735143 13.9934288,19.4588928 13.8275771,19.7365011 C13.4618706,20.3743644 13.0954701,21.0122277 12.7096392,21.6366698 L12.5430936,21.9079206 C13.1620883,22.1050013 13.8206377,22.2067204 14.4993113,22.2067204 C15.1981093,22.2067204 15.8767829,22.0979375 16.5089625,21.8874355 L16.3562957,21.6296059 Z M15.4583369,8.70987169 L15.491646,8.9747651 C15.584634,9.70728366 15.6512523,10.4475724 15.7178706,11.180091 C15.7442403,11.4718269 15.771304,11.7572054 15.7907343,12.0489413 C15.8039192,12.2728646 16.050268,12.3880049 16.2299985,12.2594433 C16.4562231,12.0899115 16.689387,11.9203797 16.9287964,11.7572054 C17.527667,11.3432653 18.1195981,10.9293252 18.7316534,10.5288064 L18.957878,10.3861171 C18.0064858,9.50384552 16.7955599,8.89988856 15.4583369,8.70987169 Z M20.5345104,17.6738645 C19.8093428,17.6265368 19.0904206,17.5587241 18.3652529,17.4909114 C18.0522858,17.4640689 17.7462582,17.4301625 17.433985,17.3955498 C17.2341302,17.3687073 17.0745239,17.5721454 17.1480816,17.7685197 C17.2611939,18.0736769 17.3673667,18.3795405 17.4742335,18.6917615 C17.7073975,19.3840163 17.9468069,20.0826285 18.1660921,20.7883045 L18.2389558,21.0327128 C19.3964483,20.2253177 20.295101,19.058374 20.7669804,17.6872857 L20.5345104,17.6738645 Z M20.1819887,11.8921244 L20.0022582,12.0892051 C19.5033151,12.6324132 18.9911871,13.1544298 18.4783652,13.6771528 C18.1522133,14.0162163 17.7996916,14.3418586 17.4603547,14.6745648 C17.9128038,14.7897051 18.3652529,14.9119092 18.817702,15.0475347 C19.5164999,15.2509728 20.2083585,15.4480535 20.900217,15.6783342 L21.1465658,15.7595681 C21.1535052,15.6507852 21.1535052,15.5356449 21.1535052,15.4205046 C21.1535052,14.1249992 20.8009835,12.9170853 20.1819887,11.8921244 Z M20.1819887,11.8921244 L20.0022582,12.0892051 C19.5033151,12.6324132 18.9911871,13.1544298 18.4783652,13.6771528 C18.1522133,14.0162163 17.7996916,14.3418586 17.4603547,14.6745648 C17.9128038,14.7897051 18.3652529,14.9119092 18.817702,15.0475347 C19.5164999,15.2509728 20.2083585,15.4480535 20.900217,15.6783342 L21.1465658,15.7595681 C21.1535052,15.6507852 21.1535052,15.5356449 21.1535052,15.4205046 C21.1535052,14.1249992 20.8009835,12.9170853 20.1819887,11.8921244 Z M20.5345104,17.6738645 C19.8093428,17.6265368 19.0904206,17.5587241 18.3652529,17.4909114 C18.0522858,17.4640689 17.7462582,17.4301625 17.433985,17.3955498 C17.2341302,17.3687073 17.0745239,17.5721454 17.1480816,17.7685197 C17.2611939,18.0736769 17.3673667,18.3795405 17.4742335,18.6917615 C17.7073975,19.3840163 17.9468069,20.0826285 18.1660921,20.7883045 L18.2389558,21.0327128 C19.3964483,20.2253177 20.295101,19.058374 20.7669804,17.6872857 L20.5345104,17.6738645 Z M15.4583369,8.70987169 L15.491646,8.9747651 C15.584634,9.70728366 15.6512523,10.4475724 15.7178706,11.180091 C15.7442403,11.4718269 15.771304,11.7572054 15.7907343,12.0489413 C15.8039192,12.2728646 16.050268,12.3880049 16.2299985,12.2594433 C16.4562231,12.0899115 16.689387,11.9203797 16.9287964,11.7572054 C17.527667,11.3432653 18.1195981,10.9293252 18.7316534,10.5288064 L18.957878,10.3861171 C18.0064858,9.50384552 16.7955599,8.89988856 15.4583369,8.70987169 Z M16.3562957,21.6296059 C15.9704648,21.0051639 15.6110038,20.3609431 15.2515427,19.7230798 C15.0919364,19.4447652 14.9385756,19.1664505 14.7921542,18.8817784 C14.6859813,18.6846977 14.4125688,18.6846977 14.3063959,18.8817784 C14.1530351,19.1735143 13.9934288,19.4588928 13.8275771,19.7365011 C13.4618706,20.3743644 13.0954701,21.0122277 12.7096392,21.6366698 L12.5430936,21.9079206 C13.1620883,22.1050013 13.8206377,22.2067204 14.4993113,22.2067204 C15.1981093,22.2067204 15.8767829,22.0979375 16.5089625,21.8874355 L16.3562957,21.6296059 Z M11.6853833,17.3008945 C11.3724162,17.3418647 11.0663885,17.3891923 10.7541154,17.4230987 C10.0289477,17.5113965 9.31696495,17.5996943 8.5917973,17.667507 L8.23233621,17.7014134 C8.71809445,19.0859229 9.6361775,20.2662879 10.8137942,21.0673256 L10.9067823,20.7819471 C11.1330068,20.076271 11.3724162,19.3840163 11.618765,18.6854041 C11.7318773,18.3463405 11.851929,18.0136344 11.9782261,17.6745708 C12.0580293,17.4767838 11.8914836,17.2669882 11.6853833,17.3008945 Z M11.6853833,17.3008945 C11.3724162,17.3418647 11.0663885,17.3891923 10.7541154,17.4230987 C10.0289477,17.5113965 9.31696495,17.5996943 8.5917973,17.667507 L8.23233621,17.7014134 C8.71809445,19.0859229 9.6361775,20.2662879 10.8137942,21.0673256 L10.9067823,20.7819471 C11.1330068,20.076271 11.3724162,19.3840163 11.618765,18.6854041 C11.7318773,18.3463405 11.851929,18.0136344 11.9782261,17.6745708 C12.0580293,17.4767838 11.8914836,17.2669882 11.6853833,17.3008945 Z M16.3562957,21.6296059 C15.9704648,21.0051639 15.6110038,20.3609431 15.2515427,19.7230798 C15.0919364,19.4447652 14.9385756,19.1664505 14.7921542,18.8817784 C14.6859813,18.6846977 14.4125688,18.6846977 14.3063959,18.8817784 C14.1530351,19.1735143 13.9934288,19.4588928 13.8275771,19.7365011 C13.4618706,20.3743644 13.0954701,21.0122277 12.7096392,21.6366698 L12.5430936,21.9079206 C13.1620883,22.1050013 13.8206377,22.2067204 14.4993113,22.2067204 C15.1981093,22.2067204 15.8767829,22.0979375 16.5089625,21.8874355 L16.3562957,21.6296059 Z M15.4583369,8.70987169 L15.491646,8.9747651 C15.584634,9.70728366 15.6512523,10.4475724 15.7178706,11.180091 C15.7442403,11.4718269 15.771304,11.7572054 15.7907343,12.0489413 C15.8039192,12.2728646 16.050268,12.3880049 16.2299985,12.2594433 C16.4562231,12.0899115 16.689387,11.9203797 16.9287964,11.7572054 C17.527667,11.3432653 18.1195981,10.9293252 18.7316534,10.5288064 L18.957878,10.3861171 C18.0064858,9.50384552 16.7955599,8.89988856 15.4583369,8.70987169 Z M20.5345104,17.6738645 C19.8093428,17.6265368 19.0904206,17.5587241 18.3652529,17.4909114 C18.0522858,17.4640689 17.7462582,17.4301625 17.433985,17.3955498 C17.2341302,17.3687073 17.0745239,17.5721454 17.1480816,17.7685197 C17.2611939,18.0736769 17.3673667,18.3795405 17.4742335,18.6917615 C17.7073975,19.3840163 17.9468069,20.0826285 18.1660921,20.7883045 L18.2389558,21.0327128 C19.3964483,20.2253177 20.295101,19.058374 20.7669804,17.6872857 L20.5345104,17.6738645 Z M20.1819887,11.8921244 L20.0022582,12.0892051 C19.5033151,12.6324132 18.9911871,13.1544298 18.4783652,13.6771528 C18.1522133,14.0162163 17.7996916,14.3418586 17.4603547,14.6745648 C17.9128038,14.7897051 18.3652529,14.9119092 18.817702,15.0475347 C19.5164999,15.2509728 20.2083585,15.4480535 20.900217,15.6783342 L21.1465658,15.7595681 C21.1535052,15.6507852 21.1535052,15.5356449 21.1535052,15.4205046 C21.1535052,14.1249992 20.8009835,12.9170853 20.1819887,11.8921244 Z M20.1819887,11.8921244 L20.0022582,12.0892051 C19.5033151,12.6324132 18.9911871,13.1544298 18.4783652,13.6771528 C18.1522133,14.0162163 17.7996916,14.3418586 17.4603547,14.6745648 C17.9128038,14.7897051 18.3652529,14.9119092 18.817702,15.0475347 C19.5164999,15.2509728 20.2083585,15.4480535 20.900217,15.6783342 L21.1465658,15.7595681 C21.1535052,15.6507852 21.1535052,15.5356449 21.1535052,15.4205046 C21.1535052,14.1249992 20.8009835,12.9170853 20.1819887,11.8921244 Z M20.5345104,17.6738645 C19.8093428,17.6265368 19.0904206,17.5587241 18.3652529,17.4909114 C18.0522858,17.4640689 17.7462582,17.4301625 17.433985,17.3955498 C17.2341302,17.3687073 17.0745239,17.5721454 17.1480816,17.7685197 C17.2611939,18.0736769 17.3673667,18.3795405 17.4742335,18.6917615 C17.7073975,19.3840163 17.9468069,20.0826285 18.1660921,20.7883045 L18.2389558,21.0327128 C19.3964483,20.2253177 20.295101,19.058374 20.7669804,17.6872857 L20.5345104,17.6738645 Z M15.4583369,8.70987169 L15.491646,8.9747651 C15.584634,9.70728366 15.6512523,10.4475724 15.7178706,11.180091 C15.7442403,11.4718269 15.771304,11.7572054 15.7907343,12.0489413 C15.8039192,12.2728646 16.050268,12.3880049 16.2299985,12.2594433 C16.4562231,12.0899115 16.689387,11.9203797 16.9287964,11.7572054 C17.527667,11.3432653 18.1195981,10.9293252 18.7316534,10.5288064 L18.957878,10.3861171 C18.0064858,9.50384552 16.7955599,8.89988856 15.4583369,8.70987169 Z M16.3562957,21.6296059 C15.9704648,21.0051639 15.6110038,20.3609431 15.2515427,19.7230798 C15.0919364,19.4447652 14.9385756,19.1664505 14.7921542,18.8817784 C14.6859813,18.6846977 14.4125688,18.6846977 14.3063959,18.8817784 C14.1530351,19.1735143 13.9934288,19.4588928 13.8275771,19.7365011 C13.4618706,20.3743644 13.0954701,21.0122277 12.7096392,21.6366698 L12.5430936,21.9079206 C13.1620883,22.1050013 13.8206377,22.2067204 14.4993113,22.2067204 C15.1981093,22.2067204 15.8767829,22.0979375 16.5089625,21.8874355 L16.3562957,21.6296059 Z M11.6853833,17.3008945 C11.3724162,17.3418647 11.0663885,17.3891923 10.7541154,17.4230987 C10.0289477,17.5113965 9.31696495,17.5996943 8.5917973,17.667507 L8.23233621,17.7014134 C8.71809445,19.0859229 9.6361775,20.2662879 10.8137942,21.0673256 L10.9067823,20.7819471 C11.1330068,20.076271 11.3724162,19.3840163 11.618765,18.6854041 C11.7318773,18.3463405 11.851929,18.0136344 11.9782261,17.6745708 C12.0580293,17.4767838 11.8914836,17.2669882 11.6853833,17.3008945 Z M11.3127373,14.2062332 C11.0865128,13.9957313 10.8672277,13.7852293 10.6472486,13.5613061 C10.1281812,13.0385831 9.61605323,12.5229239 9.11017073,11.9867797 L8.89713105,11.7628565 C8.23164227,12.8146599 7.84581145,14.0699014 7.84581145,15.4205046 C7.84581145,15.5497726 7.85275085,15.6712703 7.85275085,15.7934745 L8.16571794,15.6846916 C8.85133099,15.4339258 9.5431895,15.2163601 10.2281086,14.9860794 C10.5542606,14.8772965 10.8804125,14.7826413 11.2058705,14.6809222 C11.4126648,14.6201733 11.4723436,14.3552799 11.3127373,14.2062332 Z M11.6853833,17.3008945 C11.3724162,17.3418647 11.0663885,17.3891923 10.7541154,17.4230987 C10.0289477,17.5113965 9.31696495,17.5996943 8.5917973,17.667507 L8.23233621,17.7014134 C8.71809445,19.0859229 9.6361775,20.2662879 10.8137942,21.0673256 L10.9067823,20.7819471 C11.1330068,20.076271 11.3724162,19.3840163 11.618765,18.6854041 C11.7318773,18.3463405 11.851929,18.0136344 11.9782261,17.6745708 C12.0580293,17.4767838 11.8914836,17.2669882 11.6853833,17.3008945 Z M16.3562957,21.6296059 C15.9704648,21.0051639 15.6110038,20.3609431 15.2515427,19.7230798 C15.0919364,19.4447652 14.9385756,19.1664505 14.7921542,18.8817784 C14.6859813,18.6846977 14.4125688,18.6846977 14.3063959,18.8817784 C14.1530351,19.1735143 13.9934288,19.4588928 13.8275771,19.7365011 C13.4618706,20.3743644 13.0954701,21.0122277 12.7096392,21.6366698 L12.5430936,21.9079206 C13.1620883,22.1050013 13.8206377,22.2067204 14.4993113,22.2067204 C15.1981093,22.2067204 15.8767829,22.0979375 16.5089625,21.8874355 L16.3562957,21.6296059 Z M15.4583369,8.70987169 L15.491646,8.9747651 C15.584634,9.70728366 15.6512523,10.4475724 15.7178706,11.180091 C15.7442403,11.4718269 15.771304,11.7572054 15.7907343,12.0489413 C15.8039192,12.2728646 16.050268,12.3880049 16.2299985,12.2594433 C16.4562231,12.0899115 16.689387,11.9203797 16.9287964,11.7572054 C17.527667,11.3432653 18.1195981,10.9293252 18.7316534,10.5288064 L18.957878,10.3861171 C18.0064858,9.50384552 16.7955599,8.89988856 15.4583369,8.70987169 Z M20.5345104,17.6738645 C19.8093428,17.6265368 19.0904206,17.5587241 18.3652529,17.4909114 C18.0522858,17.4640689 17.7462582,17.4301625 17.433985,17.3955498 C17.2341302,17.3687073 17.0745239,17.5721454 17.1480816,17.7685197 C17.2611939,18.0736769 17.3673667,18.3795405 17.4742335,18.6917615 C17.7073975,19.3840163 17.9468069,20.0826285 18.1660921,20.7883045 L18.2389558,21.0327128 C19.3964483,20.2253177 20.295101,19.058374 20.7669804,17.6872857 L20.5345104,17.6738645 Z M20.1819887,11.8921244 L20.0022582,12.0892051 C19.5033151,12.6324132 18.9911871,13.1544298 18.4783652,13.6771528 C18.1522133,14.0162163 17.7996916,14.3418586 17.4603547,14.6745648 C17.9128038,14.7897051 18.3652529,14.9119092 18.817702,15.0475347 C19.5164999,15.2509728 20.2083585,15.4480535 20.900217,15.6783342 L21.1465658,15.7595681 C21.1535052,15.6507852 21.1535052,15.5356449 21.1535052,15.4205046 C21.1535052,14.1249992 20.8009835,12.9170853 20.1819887,11.8921244 Z M20.1819887,11.8921244 L20.0022582,12.0892051 C19.5033151,12.6324132 18.9911871,13.1544298 18.4783652,13.6771528 C18.1522133,14.0162163 17.7996916,14.3418586 17.4603547,14.6745648 C17.9128038,14.7897051 18.3652529,14.9119092 18.817702,15.0475347 C19.5164999,15.2509728 20.2083585,15.4480535 20.900217,15.6783342 L21.1465658,15.7595681 C21.1535052,15.6507852 21.1535052,15.5356449 21.1535052,15.4205046 C21.1535052,14.1249992 20.8009835,12.9170853 20.1819887,11.8921244 Z M18.3652529,17.4909114 C18.0522858,17.4640689 17.7462582,17.4301625 17.433985,17.3955498 C17.2341302,17.3687073 17.0745239,17.5721454 17.1480816,17.7685197 C17.2611939,18.0736769 17.3673667,18.3795405 17.4742335,18.6917615 C17.7073975,19.3840163 17.9468069,20.0826285 18.1660921,20.7883045 L18.2389558,21.0327128 C19.3964483,20.2253177 20.295101,19.058374 20.7669804,17.6872857 L20.5338165,17.6738645 C19.8093428,17.6265368 19.0911145,17.5587241 18.3652529,17.4909114 Z M18.957878,10.3861171 C18.0064858,9.50384552 16.7955599,8.89988856 15.4583369,8.70987169 L15.491646,8.9747651 C15.584634,9.70728366 15.6512523,10.4475724 15.7178706,11.180091 C15.7442403,11.4718269 15.771304,11.7572054 15.7907343,12.0489413 C15.8039192,12.2728646 16.050268,12.3880049 16.2299985,12.2594433 C16.4562231,12.0899115 16.689387,11.9203797 16.9287964,11.7572054 C17.527667,11.3432653 18.1195981,10.9293252 18.7316534,10.5288064 L18.957878,10.3861171 Z M15.2515427,19.7230798 C15.0919364,19.4447652 14.9385756,19.1664505 14.7921542,18.8817784 C14.6859813,18.6846977 14.4125688,18.6846977 14.3063959,18.8817784 C14.1530351,19.1735143 13.9934288,19.4588928 13.8275771,19.7365011 C13.4618706,20.3743644 13.0954701,21.0122277 12.7096392,21.6366698 L12.5430936,21.9079206 C13.1620883,22.1050013 13.8206377,22.2067204 14.4993113,22.2067204 C15.1981093,22.2067204 15.8767829,22.0979375 16.5089625,21.8874355 L16.3556017,21.6296059 C15.9704648,21.0058703 15.6110038,20.3609431 15.2515427,19.7230798 Z M11.6853833,17.3008945 C11.3724162,17.3418647 11.0663885,17.3891923 10.7541154,17.4230987 C10.0289477,17.5113965 9.31696495,17.5996943 8.5917973,17.667507 L8.23233621,17.7014134 C8.71809445,19.0859229 9.6361775,20.2662879 10.8137942,21.0673256 L10.9067823,20.7819471 C11.1330068,20.076271 11.3724162,19.3840163 11.618765,18.6854041 C11.7318773,18.3463405 11.851929,18.0136344 11.9782261,17.6745708 C12.0580293,17.4767838 11.8914836,17.2669882 11.6853833,17.3008945 Z M11.2065645,14.6809222 C11.4126648,14.6201733 11.4730376,14.3552799 11.3127373,14.2062332 C11.0865128,13.9957313 10.8672277,13.7852293 10.6472486,13.5613061 C10.1281812,13.0385831 9.61605323,12.5229239 9.11017073,11.9867797 L8.89713105,11.7628565 C8.23164227,12.8146599 7.84581145,14.0699014 7.84581145,15.4205046 C7.84581145,15.5497726 7.85275085,15.6712703 7.85275085,15.7934745 L8.16571794,15.6846916 C8.85133099,15.4339258 9.5431895,15.2163601 10.2281086,14.9860794 C10.5542606,14.8780029 10.8804125,14.7833476 11.2065645,14.6809222 Z M28.9582521,17.7826474 L26.4163487,6.39576292 C26.3032364,5.88716759 25.970839,5.46616367 25.5114505,5.23517663 L15.2251729,0.173240286 C14.7657844,-0.0577467619 14.2335322,-0.0577467619 13.7748376,0.173240286 L3.48856011,5.23517663 C3.02917161,5.46616367 2.69677419,5.88646121 2.58366192,6.39576292 L0.0417584814,17.7826474 C-0.0713537926,18.2912427 0.0486978847,18.8210295 0.360971034,19.2215483 L7.48010489,28.3550729 C7.79931745,28.7619491 8.28507568,29 8.79095818,29 L20.2083585,29 C20.714241,29 21.1999992,28.7626555 21.5192117,28.3550729 L28.6383456,19.2215483 C28.9513127,18.8203231 29.0713644,18.2912427 28.9582521,17.7826474 Z M25.4052776,18.2573363 C25.2054228,18.304664 25.0062619,18.2573363 24.8466556,18.1556173 C24.5205037,17.931694 24.1749214,17.8094899 23.8286452,17.7077708 C23.655854,17.6604432 23.4761235,17.619473 23.3033323,17.5926305 C23.1305412,17.538239 22.9306864,17.5926305 22.7308316,17.6872857 C22.5309767,17.8024261 22.3512462,17.7826474 22.1652702,17.7685197 L22.1451459,17.7685197 C21.5726451,19.7025947 20.3152253,21.33787 18.6518503,22.3762522 L18.6518503,22.383316 C18.7052837,22.5599116 18.7649626,22.7294434 18.7115292,22.9604304 C18.6650352,23.1843536 18.6580958,23.3877918 18.7517777,23.5509661 C18.8246414,23.7141404 18.9051385,23.8836722 18.9911871,24.0397827 C19.1709177,24.3583612 19.3707725,24.677646 19.6629214,24.9425394 C19.9557642,25.2208541 19.9758884,25.6821218 19.7094154,25.987279 C19.4366968,26.2860788 18.9842477,26.3058575 18.6844655,26.0346066 C18.5311047,25.8919174 18.4513015,25.7019005 18.4513015,25.5055262 C18.4381167,25.1050074 18.3381893,24.7525226 18.2181376,24.3993314 C18.1584587,24.2297996 18.0918404,24.0602678 18.0120373,23.890736 C17.9523584,23.7141404 17.7927522,23.5919363 17.5991428,23.4767959 C17.4131668,23.3750769 17.3194849,23.2323876 17.2264968,23.0762771 C16.3750321,23.395562 15.456949,23.5650937 14.4986174,23.5650937 C13.5541646,23.5650937 12.6492664,23.395562 11.8102926,23.0904048 C11.7304894,23.2394515 11.6375014,23.3750769 11.4508315,23.4775023 C11.2579161,23.5862852 11.0983098,23.7148468 11.0386309,23.8914424 C10.9588278,24.0546168 10.8852701,24.2241485 10.8255912,24.3936803 C10.7055396,24.7468715 10.5993667,25.0993563 10.5924273,25.4998752 C10.5792424,25.9067514 10.2399056,26.2260363 9.8408899,26.212615 C9.44187421,26.1991937 9.12890712,25.8601302 9.14209199,25.4525475 C9.14903139,25.2420456 9.2420194,25.0590925 9.3815014,24.9298246 C9.67434422,24.6585737 9.87419904,24.3463527 10.060175,24.0341317 C10.1469176,23.8709573 10.2267207,23.7084894 10.2995845,23.5389576 C10.3925725,23.3828471 10.386327,23.1723451 10.3460785,22.9484219 C10.2995845,22.7379199 10.3460785,22.5683882 10.3995119,22.4122777 C8.72919749,21.3873168 7.45165334,19.7591053 6.86666164,17.8250303 C6.71330083,17.8384516 6.56757336,17.8384516 6.39408828,17.7501538 C6.187988,17.661856 5.99507258,17.6074645 5.8215875,17.6689198 C5.64185696,17.7028261 5.46906581,17.7501538 5.29627467,17.8045452 C4.94999845,17.9196855 4.61066162,18.0489535 4.29144907,18.2792342 C3.96529712,18.5165787 3.51284802,18.4353447 3.28037801,18.1026386 C3.05415346,17.7699325 3.12701719,17.3086648 3.45316915,17.0776777 C3.61971483,16.9554736 3.82581511,16.9145034 4.01179112,16.9484097 C4.39137648,17.0296437 4.75708303,17.0028012 5.11654413,16.9554736 C5.29627467,16.9349885 5.47600522,16.9010821 5.64879636,16.8537545 C5.82852691,16.8403332 5.98813318,16.7047078 6.13455459,16.535176 C6.26085173,16.3861293 6.40727314,16.3246741 6.55369455,16.2702826 C6.52732482,15.9919679 6.51344601,15.7072958 6.51344601,15.4219173 C6.51344601,13.684923 7.04569825,12.0764903 7.95753584,10.753436 C7.83748416,10.6312318 7.72437189,10.5090277 7.67787789,10.2921683 C7.61819902,10.0753089 7.53839588,9.88529202 7.38503507,9.78357296 C7.24555306,9.6613688 7.10537711,9.55258591 6.95895571,9.45086684 C6.65292802,9.24742871 6.33996093,9.05741184 5.96731497,8.94227151 C5.58148415,8.83348862 5.3552596,8.41954852 5.46837187,8.03315735 C5.58148415,7.63970235 5.98049984,7.41577912 6.36633066,7.52456201 C6.55924607,7.5853109 6.71885235,7.7216427 6.80559489,7.89117448 C6.98532544,8.24436569 7.23167426,8.52197397 7.49120794,8.77980355 C7.61750508,8.90907153 7.75768103,9.03056931 7.89716303,9.1393522 C8.02346017,9.27497762 8.22331499,9.3159478 8.44260013,9.32936907 C8.67576408,9.33643289 8.82149155,9.43815196 8.97485237,9.53987102 L8.98179177,9.54693485 C10.2329662,8.3121784 11.8824624,7.49771948 13.712383,7.32112388 C13.7325073,7.13817083 13.7456921,6.95451141 13.8851742,6.77155836 C14.0184107,6.58860532 14.1113987,6.40494589 14.0912744,6.22199285 C14.0982138,6.03903981 14.0912744,5.85538038 14.0780896,5.66536351 C14.037841,5.29875104 13.9851016,4.93213857 13.8317407,4.56623249 C13.6721345,4.19326257 13.8449256,3.75883739 14.2113261,3.59566306 C14.5770327,3.43955254 15.003112,3.60908432 15.1627183,3.98276062 C15.2425214,4.17984131 15.235582,4.38963688 15.1627183,4.56623249 C15.0093575,4.93284496 14.956618,5.29875104 14.9163695,5.66536351 C14.9031846,5.85538038 14.8962452,6.03833342 14.9031846,6.22199285 C14.8830603,6.40494589 14.9760484,6.58860532 15.1092849,6.77155836 C15.2487669,6.95451141 15.2626457,7.13817083 15.282076,7.32112388 C17.1584907,7.50407692 18.8482354,8.3524422 20.1125947,9.64159009 C20.2659555,9.53987102 20.411683,9.43108813 20.6448469,9.42473069 C20.8641321,9.41130943 21.0639869,9.37033925 21.190284,9.23471382 C21.329766,9.11957349 21.4630026,8.99736933 21.5962391,8.86810135 C21.8488334,8.61027177 22.0951822,8.33195711 22.2749128,7.97947228 C22.4546433,7.61285981 22.8939075,7.47087695 23.2464292,7.66089382 C23.6058903,7.84384686 23.7453723,8.29169331 23.5593963,8.65194834 C23.4664083,8.8419652 23.306802,8.97123319 23.1201321,9.02491825 C22.7474861,9.13370114 22.434519,9.33007545 22.1354308,9.53351358 C21.9890093,9.64229647 21.8425879,9.75037298 21.7093514,9.87257714 C21.5559906,9.97429621 21.4761874,10.1643131 21.4165086,10.3811725 C21.3700146,10.6121595 21.2437174,10.7407211 21.1174203,10.8763465 C21.9820699,12.1725583 22.481707,13.7400208 22.481707,15.4226237 C22.481707,15.6804533 22.4685221,15.9382829 22.4483978,16.189755 L22.4553372,16.189755 C22.6281284,16.2441465 22.8016135,16.2914741 22.9542803,16.4744271 C23.1076412,16.6376015 23.2672474,16.7590992 23.446978,16.7732269 C23.6267085,16.8141971 23.7994997,16.8410396 23.9792302,16.8615247 C24.3449368,16.895431 24.7043979,16.9088523 25.0902287,16.8205545 C25.4829989,16.7322567 25.8688297,16.9837288 25.9548783,17.3835413 C26.0437027,17.7755835 25.7973539,18.1690385 25.4052776,18.2573363 Z M20.0022582,12.0892051 C19.5033151,12.6324132 18.9911871,13.1544298 18.4783652,13.6771528 C18.1522133,14.0162163 17.7996916,14.3418586 17.4603547,14.6745648 C17.9128038,14.7897051 18.3652529,14.9119092 18.817702,15.0475347 C19.5164999,15.2509728 20.2083585,15.4480535 20.900217,15.6783342 L21.1465658,15.7595681 C21.1535052,15.6507852 21.1535052,15.5356449 21.1535052,15.4205046 C21.1535052,14.1242929 20.8009835,12.9163789 20.1819887,11.8921244 L20.0022582,12.0892051 Z M18.3652529,17.4909114 C18.0522858,17.4640689 17.7462582,17.4301625 17.433985,17.3955498 C17.2341302,17.3687073 17.0745239,17.5721454 17.1480816,17.7685197 C17.2611939,18.0736769 17.3673667,18.3795405 17.4742335,18.6917615 C17.7073975,19.3840163 17.9468069,20.0826285 18.1660921,20.7883045 L18.2389558,21.0327128 C19.3964483,20.2253177 20.295101,19.058374 20.7669804,17.6872857 L20.5338165,17.6738645 C19.8093428,17.6265368 19.0911145,17.5587241 18.3652529,17.4909114 Z M18.957878,10.3861171 C18.0064858,9.50384552 16.7955599,8.89988856 15.4583369,8.70987169 L15.491646,8.9747651 C15.584634,9.70728366 15.6512523,10.4475724 15.7178706,11.180091 C15.7442403,11.4718269 15.771304,11.7572054 15.7907343,12.0489413 C15.8039192,12.2728646 16.050268,12.3880049 16.2299985,12.2594433 C16.4562231,12.0899115 16.689387,11.9203797 16.9287964,11.7572054 C17.527667,11.3432653 18.1195981,10.9293252 18.7316534,10.5288064 L18.957878,10.3861171 Z M15.2515427,19.7230798 C15.0919364,19.4447652 14.9385756,19.1664505 14.7921542,18.8817784 C14.6859813,18.6846977 14.4125688,18.6846977 14.3063959,18.8817784 C14.1530351,19.1735143 13.9934288,19.4588928 13.8275771,19.7365011 C13.4618706,20.3743644 13.0954701,21.0122277 12.7096392,21.6366698 L12.5430936,21.9079206 C13.1620883,22.1050013 13.8206377,22.2067204 14.4993113,22.2067204 C15.1981093,22.2067204 15.8767829,22.0979375 16.5089625,21.8874355 L16.3556017,21.6296059 C15.9704648,21.0058703 15.6110038,20.3609431 15.2515427,19.7230798 Z M13.28214,11.180091 C13.3487583,10.446866 13.4153765,9.70728366 13.5083646,8.9747651 L13.5416737,8.70987169 C12.2578841,8.89282474 11.0934522,9.4565179 10.1614903,10.2843981 L10.3675906,10.4136661 C10.9865854,10.8071211 11.5854559,11.2210612 12.1843264,11.6350012 C12.5306026,11.8589245 12.8560606,12.1096902 13.1822126,12.3477411 C13.2092763,11.9599372 13.2425854,11.5664822 13.28214,11.180091 Z M11.6853833,17.3008945 C11.3724162,17.3418647 11.0663885,17.3891923 10.7541154,17.4230987 C10.0289477,17.5113965 9.31696495,17.5996943 8.5917973,17.667507 L8.23233621,17.7014134 C8.71809445,19.0859229 9.6361775,20.2662879 10.8137942,21.0673256 L10.9067823,20.7819471 C11.1330068,20.076271 11.3724162,19.3840163 11.618765,18.6854041 C11.7318773,18.3463405 11.851929,18.0136344 11.9782261,17.6745708 C12.0580293,17.4767838 11.8914836,17.2669882 11.6853833,17.3008945 Z M11.2065645,14.6809222 C11.4126648,14.6201733 11.4730376,14.3552799 11.3127373,14.2062332 C11.0865128,13.9957313 10.8672277,13.7852293 10.6472486,13.5613061 C10.1281812,13.0385831 9.61605323,12.5229239 9.11017073,11.9867797 L8.89713105,11.7628565 C8.23164227,12.8146599 7.84581145,14.0699014 7.84581145,15.4205046 C7.84581145,15.5497726 7.85275085,15.6712703 7.85275085,15.7934745 L8.16571794,15.6846916 C8.85133099,15.4339258 9.5431895,15.2163601 10.2281086,14.9860794 C10.5542606,14.8780029 10.8804125,14.7833476 11.2065645,14.6809222 Z M11.3127373,14.2062332 C11.0865128,13.9957313 10.8672277,13.7852293 10.6472486,13.5613061 C10.1281812,13.0385831 9.61605323,12.5229239 9.11017073,11.9867797 L8.89713105,11.7628565 C8.23164227,12.8146599 7.84581145,14.0699014 7.84581145,15.4205046 C7.84581145,15.5497726 7.85275085,15.6712703 7.85275085,15.7934745 L8.16571794,15.6846916 C8.85133099,15.4339258 9.5431895,15.2163601 10.2281086,14.9860794 C10.5542606,14.8772965 10.8804125,14.7826413 11.2058705,14.6809222 C11.4126648,14.6201733 11.4723436,14.3552799 11.3127373,14.2062332 Z M11.6853833,17.3008945 C11.3724162,17.3418647 11.0663885,17.3891923 10.7541154,17.4230987 C10.0289477,17.5113965 9.31696495,17.5996943 8.5917973,17.667507 L8.23233621,17.7014134 C8.71809445,19.0859229 9.6361775,20.2662879 10.8137942,21.0673256 L10.9067823,20.7819471 C11.1330068,20.076271 11.3724162,19.3840163 11.618765,18.6854041 C11.7318773,18.3463405 11.851929,18.0136344 11.9782261,17.6745708 C12.0580293,17.4767838 11.8914836,17.2669882 11.6853833,17.3008945 Z M16.3562957,21.6296059 C15.9704648,21.0051639 15.6110038,20.3609431 15.2515427,19.7230798 C15.0919364,19.4447652 14.9385756,19.1664505 14.7921542,18.8817784 C14.6859813,18.6846977 14.4125688,18.6846977 14.3063959,18.8817784 C14.1530351,19.1735143 13.9934288,19.4588928 13.8275771,19.7365011 C13.4618706,20.3743644 13.0954701,21.0122277 12.7096392,21.6366698 L12.5430936,21.9079206 C13.1620883,22.1050013 13.8206377,22.2067204 14.4993113,22.2067204 C15.1981093,22.2067204 15.8767829,22.0979375 16.5089625,21.8874355 L16.3562957,21.6296059 Z M15.4583369,8.70987169 L15.491646,8.9747651 C15.584634,9.70728366 15.6512523,10.4475724 15.7178706,11.180091 C15.7442403,11.4718269 15.771304,11.7572054 15.7907343,12.0489413 C15.8039192,12.2728646 16.050268,12.3880049 16.2299985,12.2594433 C16.4562231,12.0899115 16.689387,11.9203797 16.9287964,11.7572054 C17.527667,11.3432653 18.1195981,10.9293252 18.7316534,10.5288064 L18.957878,10.3861171 C18.0064858,9.50384552 16.7955599,8.89988856 15.4583369,8.70987169 Z M20.5345104,17.6738645 C19.8093428,17.6265368 19.0904206,17.5587241 18.3652529,17.4909114 C18.0522858,17.4640689 17.7462582,17.4301625 17.433985,17.3955498 C17.2341302,17.3687073 17.0745239,17.5721454 17.1480816,17.7685197 C17.2611939,18.0736769 17.3673667,18.3795405 17.4742335,18.6917615 C17.7073975,19.3840163 17.9468069,20.0826285 18.1660921,20.7883045 L18.2389558,21.0327128 C19.3964483,20.2253177 20.295101,19.058374 20.7669804,17.6872857 L20.5345104,17.6738645 Z M20.1819887,11.8921244 L20.0022582,12.0892051 C19.5033151,12.6324132 18.9911871,13.1544298 18.4783652,13.6771528 C18.1522133,14.0162163 17.7996916,14.3418586 17.4603547,14.6745648 C17.9128038,14.7897051 18.3652529,14.9119092 18.817702,15.0475347 C19.5164999,15.2509728 20.2083585,15.4480535 20.900217,15.6783342 L21.1465658,15.7595681 C21.1535052,15.6507852 21.1535052,15.5356449 21.1535052,15.4205046 C21.1535052,14.1249992 20.8009835,12.9170853 20.1819887,11.8921244 Z M20.1819887,11.8921244 L20.0022582,12.0892051 C19.5033151,12.6324132 18.9911871,13.1544298 18.4783652,13.6771528 C18.1522133,14.0162163 17.7996916,14.3418586 17.4603547,14.6745648 C17.9128038,14.7897051 18.3652529,14.9119092 18.817702,15.0475347 C19.5164999,15.2509728 20.2083585,15.4480535 20.900217,15.6783342 L21.1465658,15.7595681 C21.1535052,15.6507852 21.1535052,15.5356449 21.1535052,15.4205046 C21.1535052,14.1249992 20.8009835,12.9170853 20.1819887,11.8921244 Z M20.5345104,17.6738645 C19.8093428,17.6265368 19.0904206,17.5587241 18.3652529,17.4909114 C18.0522858,17.4640689 17.7462582,17.4301625 17.433985,17.3955498 C17.2341302,17.3687073 17.0745239,17.5721454 17.1480816,17.7685197 C17.2611939,18.0736769 17.3673667,18.3795405 17.4742335,18.6917615 C17.7073975,19.3840163 17.9468069,20.0826285 18.1660921,20.7883045 L18.2389558,21.0327128 C19.3964483,20.2253177 20.295101,19.058374 20.7669804,17.6872857 L20.5345104,17.6738645 Z M15.4583369,8.70987169 L15.491646,8.9747651 C15.584634,9.70728366 15.6512523,10.4475724 15.7178706,11.180091 C15.7442403,11.4718269 15.771304,11.7572054 15.7907343,12.0489413 C15.8039192,12.2728646 16.050268,12.3880049 16.2299985,12.2594433 C16.4562231,12.0899115 16.689387,11.9203797 16.9287964,11.7572054 C17.527667,11.3432653 18.1195981,10.9293252 18.7316534,10.5288064 L18.957878,10.3861171 C18.0064858,9.50384552 16.7955599,8.89988856 15.4583369,8.70987169 Z M16.3562957,21.6296059 C15.9704648,21.0051639 15.6110038,20.3609431 15.2515427,19.7230798 C15.0919364,19.4447652 14.9385756,19.1664505 14.7921542,18.8817784 C14.6859813,18.6846977 14.4125688,18.6846977 14.3063959,18.8817784 C14.1530351,19.1735143 13.9934288,19.4588928 13.8275771,19.7365011 C13.4618706,20.3743644 13.0954701,21.0122277 12.7096392,21.6366698 L12.5430936,21.9079206 C13.1620883,22.1050013 13.8206377,22.2067204 14.4993113,22.2067204 C15.1981093,22.2067204 15.8767829,22.0979375 16.5089625,21.8874355 L16.3562957,21.6296059 Z M11.6853833,17.3008945 C11.3724162,17.3418647 11.0663885,17.3891923 10.7541154,17.4230987 C10.0289477,17.5113965 9.31696495,17.5996943 8.5917973,17.667507 L8.23233621,17.7014134 C8.71809445,19.0859229 9.6361775,20.2662879 10.8137942,21.0673256 L10.9067823,20.7819471 C11.1330068,20.076271 11.3724162,19.3840163 11.618765,18.6854041 C11.7318773,18.3463405 11.851929,18.0136344 11.9782261,17.6745708 C12.0580293,17.4767838 11.8914836,17.2669882 11.6853833,17.3008945 Z M11.3127373,14.2062332 C11.0865128,13.9957313 10.8672277,13.7852293 10.6472486,13.5613061 C10.1281812,13.0385831 9.61605323,12.5229239 9.11017073,11.9867797 L8.89713105,11.7628565 C8.23164227,12.8146599 7.84581145,14.0699014 7.84581145,15.4205046 C7.84581145,15.5497726 7.85275085,15.6712703 7.85275085,15.7934745 L8.16571794,15.6846916 C8.85133099,15.4339258 9.5431895,15.2163601 10.2281086,14.9860794 C10.5542606,14.8772965 10.8804125,14.7826413 11.2058705,14.6809222 C11.4126648,14.6201733 11.4723436,14.3552799 11.3127373,14.2062332 Z M11.6853833,17.3008945 C11.3724162,17.3418647 11.0663885,17.3891923 10.7541154,17.4230987 C10.0289477,17.5113965 9.31696495,17.5996943 8.5917973,17.667507 L8.23233621,17.7014134 C8.71809445,19.0859229 9.6361775,20.2662879 10.8137942,21.0673256 L10.9067823,20.7819471 C11.1330068,20.076271 11.3724162,19.3840163 11.618765,18.6854041 C11.7318773,18.3463405 11.851929,18.0136344 11.9782261,17.6745708 C12.0580293,17.4767838 11.8914836,17.2669882 11.6853833,17.3008945 Z M16.3562957,21.6296059 C15.9704648,21.0051639 15.6110038,20.3609431 15.2515427,19.7230798 C15.0919364,19.4447652 14.9385756,19.1664505 14.7921542,18.8817784 C14.6859813,18.6846977 14.4125688,18.6846977 14.3063959,18.8817784 C14.1530351,19.1735143 13.9934288,19.4588928 13.8275771,19.7365011 C13.4618706,20.3743644 13.0954701,21.0122277 12.7096392,21.6366698 L12.5430936,21.9079206 C13.1620883,22.1050013 13.8206377,22.2067204 14.4993113,22.2067204 C15.1981093,22.2067204 15.8767829,22.0979375 16.5089625,21.8874355 L16.3562957,21.6296059 Z M15.4583369,8.70987169 L15.491646,8.9747651 C15.584634,9.70728366 15.6512523,10.4475724 15.7178706,11.180091 C15.7442403,11.4718269 15.771304,11.7572054 15.7907343,12.0489413 C15.8039192,12.2728646 16.050268,12.3880049 16.2299985,12.2594433 C16.4562231,12.0899115 16.689387,11.9203797 16.9287964,11.7572054 C17.527667,11.3432653 18.1195981,10.9293252 18.7316534,10.5288064 L18.957878,10.3861171 C18.0064858,9.50384552 16.7955599,8.89988856 15.4583369,8.70987169 Z M20.5345104,17.6738645 C19.8093428,17.6265368 19.0904206,17.5587241 18.3652529,17.4909114 C18.0522858,17.4640689 17.7462582,17.4301625 17.433985,17.3955498 C17.2341302,17.3687073 17.0745239,17.5721454 17.1480816,17.7685197 C17.2611939,18.0736769 17.3673667,18.3795405 17.4742335,18.6917615 C17.7073975,19.3840163 17.9468069,20.0826285 18.1660921,20.7883045 L18.2389558,21.0327128 C19.3964483,20.2253177 20.295101,19.058374 20.7669804,17.6872857 L20.5345104,17.6738645 Z M20.1819887,11.8921244 L20.0022582,12.0892051 C19.5033151,12.6324132 18.9911871,13.1544298 18.4783652,13.6771528 C18.1522133,14.0162163 17.7996916,14.3418586 17.4603547,14.6745648 C17.9128038,14.7897051 18.3652529,14.9119092 18.817702,15.0475347 C19.5164999,15.2509728 20.2083585,15.4480535 20.900217,15.6783342 L21.1465658,15.7595681 C21.1535052,15.6507852 21.1535052,15.5356449 21.1535052,15.4205046 C21.1535052,14.1249992 20.8009835,12.9170853 20.1819887,11.8921244 Z M20.1819887,11.8921244 L20.0022582,12.0892051 C19.5033151,12.6324132 18.9911871,13.1544298 18.4783652,13.6771528 C18.1522133,14.0162163 17.7996916,14.3418586 17.4603547,14.6745648 C17.9128038,14.7897051 18.3652529,14.9119092 18.817702,15.0475347 C19.5164999,15.2509728 20.2083585,15.4480535 20.900217,15.6783342 L21.1465658,15.7595681 C21.1535052,15.6507852 21.1535052,15.5356449 21.1535052,15.4205046 C21.1535052,14.1249992 20.8009835,12.9170853 20.1819887,11.8921244 Z M20.5345104,17.6738645 C19.8093428,17.6265368 19.0904206,17.5587241 18.3652529,17.4909114 C18.0522858,17.4640689 17.7462582,17.4301625 17.433985,17.3955498 C17.2341302,17.3687073 17.0745239,17.5721454 17.1480816,17.7685197 C17.2611939,18.0736769 17.3673667,18.3795405 17.4742335,18.6917615 C17.7073975,19.3840163 17.9468069,20.0826285 18.1660921,20.7883045 L18.2389558,21.0327128 C19.3964483,20.2253177 20.295101,19.058374 20.7669804,17.6872857 L20.5345104,17.6738645 Z M15.4583369,8.70987169 L15.491646,8.9747651 C15.584634,9.70728366 15.6512523,10.4475724 15.7178706,11.180091 C15.7442403,11.4718269 15.771304,11.7572054 15.7907343,12.0489413 C15.8039192,12.2728646 16.050268,12.3880049 16.2299985,12.2594433 C16.4562231,12.0899115 16.689387,11.9203797 16.9287964,11.7572054 C17.527667,11.3432653 18.1195981,10.9293252 18.7316534,10.5288064 L18.957878,10.3861171 C18.0064858,9.50384552 16.7955599,8.89988856 15.4583369,8.70987169 Z M16.3562957,21.6296059 C15.9704648,21.0051639 15.6110038,20.3609431 15.2515427,19.7230798 C15.0919364,19.4447652 14.9385756,19.1664505 14.7921542,18.8817784 C14.6859813,18.6846977 14.4125688,18.6846977 14.3063959,18.8817784 C14.1530351,19.1735143 13.9934288,19.4588928 13.8275771,19.7365011 C13.4618706,20.3743644 13.0954701,21.0122277 12.7096392,21.6366698 L12.5430936,21.9079206 C13.1620883,22.1050013 13.8206377,22.2067204 14.4993113,22.2067204 C15.1981093,22.2067204 15.8767829,22.0979375 16.5089625,21.8874355 L16.3562957,21.6296059 Z M11.6853833,17.3008945 C11.3724162,17.3418647 11.0663885,17.3891923 10.7541154,17.4230987 C10.0289477,17.5113965 9.31696495,17.5996943 8.5917973,17.667507 L8.23233621,17.7014134 C8.71809445,19.0859229 9.6361775,20.2662879 10.8137942,21.0673256 L10.9067823,20.7819471 C11.1330068,20.076271 11.3724162,19.3840163 11.618765,18.6854041 C11.7318773,18.3463405 11.851929,18.0136344 11.9782261,17.6745708 C12.0580293,17.4767838 11.8914836,17.2669882 11.6853833,17.3008945 Z M16.3562957,21.6296059 C15.9704648,21.0051639 15.6110038,20.3609431 15.2515427,19.7230798 C15.0919364,19.4447652 14.9385756,19.1664505 14.7921542,18.8817784 C14.6859813,18.6846977 14.4125688,18.6846977 14.3063959,18.8817784 C14.1530351,19.1735143 13.9934288,19.4588928 13.8275771,19.7365011 C13.4618706,20.3743644 13.0954701,21.0122277 12.7096392,21.6366698 L12.5430936,21.9079206 C13.1620883,22.1050013 13.8206377,22.2067204 14.4993113,22.2067204 C15.1981093,22.2067204 15.8767829,22.0979375 16.5089625,21.8874355 L16.3562957,21.6296059 Z M15.4583369,8.70987169 L15.491646,8.9747651 C15.584634,9.70728366 15.6512523,10.4475724 15.7178706,11.180091 C15.7442403,11.4718269 15.771304,11.7572054 15.7907343,12.0489413 C15.8039192,12.2728646 16.050268,12.3880049 16.2299985,12.2594433 C16.4562231,12.0899115 16.689387,11.9203797 16.9287964,11.7572054 C17.527667,11.3432653 18.1195981,10.9293252 18.7316534,10.5288064 L18.957878,10.3861171 C18.0064858,9.50384552 16.7955599,8.89988856 15.4583369,8.70987169 Z M20.5345104,17.6738645 C19.8093428,17.6265368 19.0904206,17.5587241 18.3652529,17.4909114 C18.0522858,17.4640689 17.7462582,17.4301625 17.433985,17.3955498 C17.2341302,17.3687073 17.0745239,17.5721454 17.1480816,17.7685197 C17.2611939,18.0736769 17.3673667,18.3795405 17.4742335,18.6917615 C17.7073975,19.3840163 17.9468069,20.0826285 18.1660921,20.7883045 L18.2389558,21.0327128 C19.3964483,20.2253177 20.295101,19.058374 20.7669804,17.6872857 L20.5345104,17.6738645 Z M20.1819887,11.8921244 L20.0022582,12.0892051 C19.5033151,12.6324132 18.9911871,13.1544298 18.4783652,13.6771528 C18.1522133,14.0162163 17.7996916,14.3418586 17.4603547,14.6745648 C17.9128038,14.7897051 18.3652529,14.9119092 18.817702,15.0475347 C19.5164999,15.2509728 20.2083585,15.4480535 20.900217,15.6783342 L21.1465658,15.7595681 C21.1535052,15.6507852 21.1535052,15.5356449 21.1535052,15.4205046 C21.1535052,14.1249992 20.8009835,12.9170853 20.1819887,11.8921244 Z M20.1819887,11.8921244 L20.0022582,12.0892051 C19.5033151,12.6324132 18.9911871,13.1544298 18.4783652,13.6771528 C18.1522133,14.0162163 17.7996916,14.3418586 17.4603547,14.6745648 C17.9128038,14.7897051 18.3652529,14.9119092 18.817702,15.0475347 C19.5164999,15.2509728 20.2083585,15.4480535 20.900217,15.6783342 L21.1465658,15.7595681 C21.1535052,15.6507852 21.1535052,15.5356449 21.1535052,15.4205046 C21.1535052,14.1249992 20.8009835,12.9170853 20.1819887,11.8921244 Z M20.5345104,17.6738645 C19.8093428,17.6265368 19.0904206,17.5587241 18.3652529,17.4909114 C18.0522858,17.4640689 17.7462582,17.4301625 17.433985,17.3955498 C17.2341302,17.3687073 17.0745239,17.5721454 17.1480816,17.7685197 C17.2611939,18.0736769 17.3673667,18.3795405 17.4742335,18.6917615 C17.7073975,19.3840163 17.9468069,20.0826285 18.1660921,20.7883045 L18.2389558,21.0327128 C19.3964483,20.2253177 20.295101,19.058374 20.7669804,17.6872857 L20.5345104,17.6738645 Z M15.4583369,8.70987169 L15.491646,8.9747651 C15.584634,9.70728366 15.6512523,10.4475724 15.7178706,11.180091 C15.7442403,11.4718269 15.771304,11.7572054 15.7907343,12.0489413 C15.8039192,12.2728646 16.050268,12.3880049 16.2299985,12.2594433 C16.4562231,12.0899115 16.689387,11.9203797 16.9287964,11.7572054 C17.527667,11.3432653 18.1195981,10.9293252 18.7316534,10.5288064 L18.957878,10.3861171 C18.0064858,9.50384552 16.7955599,8.89988856 15.4583369,8.70987169 Z M16.3562957,21.6296059 C15.9704648,21.0051639 15.6110038,20.3609431 15.2515427,19.7230798 C15.0919364,19.4447652 14.9385756,19.1664505 14.7921542,18.8817784 C14.6859813,18.6846977 14.4125688,18.6846977 14.3063959,18.8817784 C14.1530351,19.1735143 13.9934288,19.4588928 13.8275771,19.7365011 C13.4618706,20.3743644 13.0954701,21.0122277 12.7096392,21.6366698 L12.5430936,21.9079206 C13.1620883,22.1050013 13.8206377,22.2067204 14.4993113,22.2067204 C15.1981093,22.2067204 15.8767829,22.0979375 16.5089625,21.8874355 L16.3562957,21.6296059 Z M16.3562957,21.6296059 C15.9704648,21.0051639 15.6110038,20.3609431 15.2515427,19.7230798 C15.0919364,19.4447652 14.9385756,19.1664505 14.7921542,18.8817784 C14.6859813,18.6846977 14.4125688,18.6846977 14.3063959,18.8817784 C14.1530351,19.1735143 13.9934288,19.4588928 13.8275771,19.7365011 C13.4618706,20.3743644 13.0954701,21.0122277 12.7096392,21.6366698 L12.5430936,21.9079206 C13.1620883,22.1050013 13.8206377,22.2067204 14.4993113,22.2067204 C15.1981093,22.2067204 15.8767829,22.0979375 16.5089625,21.8874355 L16.3562957,21.6296059 Z M15.4583369,8.70987169 L15.491646,8.9747651 C15.584634,9.70728366 15.6512523,10.4475724 15.7178706,11.180091 C15.7442403,11.4718269 15.771304,11.7572054 15.7907343,12.0489413 C15.8039192,12.2728646 16.050268,12.3880049 16.2299985,12.2594433 C16.4562231,12.0899115 16.689387,11.9203797 16.9287964,11.7572054 C17.527667,11.3432653 18.1195981,10.9293252 18.7316534,10.5288064 L18.957878,10.3861171 C18.0064858,9.50384552 16.7955599,8.89988856 15.4583369,8.70987169 Z M20.5345104,17.6738645 C19.8093428,17.6265368 19.0904206,17.5587241 18.3652529,17.4909114 C18.0522858,17.4640689 17.7462582,17.4301625 17.433985,17.3955498 C17.2341302,17.3687073 17.0745239,17.5721454 17.1480816,17.7685197 C17.2611939,18.0736769 17.3673667,18.3795405 17.4742335,18.6917615 C17.7073975,19.3840163 17.9468069,20.0826285 18.1660921,20.7883045 L18.2389558,21.0327128 C19.3964483,20.2253177 20.295101,19.058374 20.7669804,17.6872857 L20.5345104,17.6738645 Z M20.1819887,11.8921244 L20.0022582,12.0892051 C19.5033151,12.6324132 18.9911871,13.1544298 18.4783652,13.6771528 C18.1522133,14.0162163 17.7996916,14.3418586 17.4603547,14.6745648 C17.9128038,14.7897051 18.3652529,14.9119092 18.817702,15.0475347 C19.5164999,15.2509728 20.2083585,15.4480535 20.900217,15.6783342 L21.1465658,15.7595681 C21.1535052,15.6507852 21.1535052,15.5356449 21.1535052,15.4205046 C21.1535052,14.1249992 20.8009835,12.9170853 20.1819887,11.8921244 Z M20.1819887,11.8921244 L20.0022582,12.0892051 C19.5033151,12.6324132 18.9911871,13.1544298 18.4783652,13.6771528 C18.1522133,14.0162163 17.7996916,14.3418586 17.4603547,14.6745648 C17.9128038,14.7897051 18.3652529,14.9119092 18.817702,15.0475347 C19.5164999,15.2509728 20.2083585,15.4480535 20.900217,15.6783342 L21.1465658,15.7595681 C21.1535052,15.6507852 21.1535052,15.5356449 21.1535052,15.4205046 C21.1535052,14.1249992 20.8009835,12.9170853 20.1819887,11.8921244 Z M20.5345104,17.6738645 C19.8093428,17.6265368 19.0904206,17.5587241 18.3652529,17.4909114 C18.0522858,17.4640689 17.7462582,17.4301625 17.433985,17.3955498 C17.2341302,17.3687073 17.0745239,17.5721454 17.1480816,17.7685197 C17.2611939,18.0736769 17.3673667,18.3795405 17.4742335,18.6917615 C17.7073975,19.3840163 17.9468069,20.0826285 18.1660921,20.7883045 L18.2389558,21.0327128 C19.3964483,20.2253177 20.295101,19.058374 20.7669804,17.6872857 L20.5345104,17.6738645 Z M15.4583369,8.70987169 L15.491646,8.9747651 C15.584634,9.70728366 15.6512523,10.4475724 15.7178706,11.180091 C15.7442403,11.4718269 15.771304,11.7572054 15.7907343,12.0489413 C15.8039192,12.2728646 16.050268,12.3880049 16.2299985,12.2594433 C16.4562231,12.0899115 16.689387,11.9203797 16.9287964,11.7572054 C17.527667,11.3432653 18.1195981,10.9293252 18.7316534,10.5288064 L18.957878,10.3861171 C18.0064858,9.50384552 16.7955599,8.89988856 15.4583369,8.70987169 Z M16.3562957,21.6296059 C15.9704648,21.0051639 15.6110038,20.3609431 15.2515427,19.7230798 C15.0919364,19.4447652 14.9385756,19.1664505 14.7921542,18.8817784 C14.6859813,18.6846977 14.4125688,18.6846977 14.3063959,18.8817784 C14.1530351,19.1735143 13.9934288,19.4588928 13.8275771,19.7365011 C13.4618706,20.3743644 13.0954701,21.0122277 12.7096392,21.6366698 L12.5430936,21.9079206 C13.1620883,22.1050013 13.8206377,22.2067204 14.4993113,22.2067204 C15.1981093,22.2067204 15.8767829,22.0979375 16.5089625,21.8874355 L16.3562957,21.6296059 Z M15.4583369,8.70987169 L15.491646,8.9747651 C15.584634,9.70728366 15.6512523,10.4475724 15.7178706,11.180091 C15.7442403,11.4718269 15.771304,11.7572054 15.7907343,12.0489413 C15.8039192,12.2728646 16.050268,12.3880049 16.2299985,12.2594433 C16.4562231,12.0899115 16.689387,11.9203797 16.9287964,11.7572054 C17.527667,11.3432653 18.1195981,10.9293252 18.7316534,10.5288064 L18.957878,10.3861171 C18.0064858,9.50384552 16.7955599,8.89988856 15.4583369,8.70987169 Z M20.5345104,17.6738645 C19.8093428,17.6265368 19.0904206,17.5587241 18.3652529,17.4909114 C18.0522858,17.4640689 17.7462582,17.4301625 17.433985,17.3955498 C17.2341302,17.3687073 17.0745239,17.5721454 17.1480816,17.7685197 C17.2611939,18.0736769 17.3673667,18.3795405 17.4742335,18.6917615 C17.7073975,19.3840163 17.9468069,20.0826285 18.1660921,20.7883045 L18.2389558,21.0327128 C19.3964483,20.2253177 20.295101,19.058374 20.7669804,17.6872857 L20.5345104,17.6738645 Z M20.1819887,11.8921244 L20.0022582,12.0892051 C19.5033151,12.6324132 18.9911871,13.1544298 18.4783652,13.6771528 C18.1522133,14.0162163 17.7996916,14.3418586 17.4603547,14.6745648 C17.9128038,14.7897051 18.3652529,14.9119092 18.817702,15.0475347 C19.5164999,15.2509728 20.2083585,15.4480535 20.900217,15.6783342 L21.1465658,15.7595681 C21.1535052,15.6507852 21.1535052,15.5356449 21.1535052,15.4205046 C21.1535052,14.1249992 20.8009835,12.9170853 20.1819887,11.8921244 Z M20.1819887,11.8921244 L20.0022582,12.0892051 C19.5033151,12.6324132 18.9911871,13.1544298 18.4783652,13.6771528 C18.1522133,14.0162163 17.7996916,14.3418586 17.4603547,14.6745648 C17.9128038,14.7897051 18.3652529,14.9119092 18.817702,15.0475347 C19.5164999,15.2509728 20.2083585,15.4480535 20.900217,15.6783342 L21.1465658,15.7595681 C21.1535052,15.6507852 21.1535052,15.5356449 21.1535052,15.4205046 C21.1535052,14.1249992 20.8009835,12.9170853 20.1819887,11.8921244 Z M20.5345104,17.6738645 C19.8093428,17.6265368 19.0904206,17.5587241 18.3652529,17.4909114 C18.0522858,17.4640689 17.7462582,17.4301625 17.433985,17.3955498 C17.2341302,17.3687073 17.0745239,17.5721454 17.1480816,17.7685197 C17.2611939,18.0736769 17.3673667,18.3795405 17.4742335,18.6917615 C17.7073975,19.3840163 17.9468069,20.0826285 18.1660921,20.7883045 L18.2389558,21.0327128 C19.3964483,20.2253177 20.295101,19.058374 20.7669804,17.6872857 L20.5345104,17.6738645 Z M15.4583369,8.70987169 L15.491646,8.9747651 C15.584634,9.70728366 15.6512523,10.4475724 15.7178706,11.180091 C15.7442403,11.4718269 15.771304,11.7572054 15.7907343,12.0489413 C15.8039192,12.2728646 16.050268,12.3880049 16.2299985,12.2594433 C16.4562231,12.0899115 16.689387,11.9203797 16.9287964,11.7572054 C17.527667,11.3432653 18.1195981,10.9293252 18.7316534,10.5288064 L18.957878,10.3861171 C18.0064858,9.50384552 16.7955599,8.89988856 15.4583369,8.70987169 Z M15.4583369,8.70987169 L15.491646,8.9747651 C15.584634,9.70728366 15.6512523,10.4475724 15.7178706,11.180091 C15.7442403,11.4718269 15.771304,11.7572054 15.7907343,12.0489413 C15.8039192,12.2728646 16.050268,12.3880049 16.2299985,12.2594433 C16.4562231,12.0899115 16.689387,11.9203797 16.9287964,11.7572054 C17.527667,11.3432653 18.1195981,10.9293252 18.7316534,10.5288064 L18.957878,10.3861171 C18.0064858,9.50384552 16.7955599,8.89988856 15.4583369,8.70987169 Z M20.1819887,11.8921244 L20.0022582,12.0892051 C19.5033151,12.6324132 18.9911871,13.1544298 18.4783652,13.6771528 C18.1522133,14.0162163 17.7996916,14.3418586 17.4603547,14.6745648 C17.9128038,14.7897051 18.3652529,14.9119092 18.817702,15.0475347 C19.5164999,15.2509728 20.2083585,15.4480535 20.900217,15.6783342 L21.1465658,15.7595681 C21.1535052,15.6507852 21.1535052,15.5356449 21.1535052,15.4205046 C21.1535052,14.1249992 20.8009835,12.9170853 20.1819887,11.8921244 Z M20.1819887,11.8921244 L20.0022582,12.0892051 C19.5033151,12.6324132 18.9911871,13.1544298 18.4783652,13.6771528 C18.1522133,14.0162163 17.7996916,14.3418586 17.4603547,14.6745648 C17.9128038,14.7897051 18.3652529,14.9119092 18.817702,15.0475347 C19.5164999,15.2509728 20.2083585,15.4480535 20.900217,15.6783342 L21.1465658,15.7595681 C21.1535052,15.6507852 21.1535052,15.5356449 21.1535052,15.4205046 C21.1535052,14.1249992 20.8009835,12.9170853 20.1819887,11.8921244 Z M15.4583369,8.70987169 L15.491646,8.9747651 C15.584634,9.70728366 15.6512523,10.4475724 15.7178706,11.180091 C15.7442403,11.4718269 15.771304,11.7572054 15.7907343,12.0489413 C15.8039192,12.2728646 16.050268,12.3880049 16.2299985,12.2594433 C16.4562231,12.0899115 16.689387,11.9203797 16.9287964,11.7572054 C17.527667,11.3432653 18.1195981,10.9293252 18.7316534,10.5288064 L18.957878,10.3861171 C18.0064858,9.50384552 16.7955599,8.89988856 15.4583369,8.70987169 Z M15.4583369,8.70987169 L15.491646,8.9747651 C15.584634,9.70728366 15.6512523,10.4475724 15.7178706,11.180091 C15.7442403,11.4718269 15.771304,11.7572054 15.7907343,12.0489413 C15.8039192,12.2728646 16.050268,12.3880049 16.2299985,12.2594433 C16.4562231,12.0899115 16.689387,11.9203797 16.9287964,11.7572054 C17.527667,11.3432653 18.1195981,10.9293252 18.7316534,10.5288064 L18.957878,10.3861171 C18.0064858,9.50384552 16.7955599,8.89988856 15.4583369,8.70987169 Z M20.1819887,11.8921244 L20.0022582,12.0892051 C19.5033151,12.6324132 18.9911871,13.1544298 18.4783652,13.6771528 C18.1522133,14.0162163 17.7996916,14.3418586 17.4603547,14.6745648 C17.9128038,14.7897051 18.3652529,14.9119092 18.817702,15.0475347 C19.5164999,15.2509728 20.2083585,15.4480535 20.900217,15.6783342 L21.1465658,15.7595681 C21.1535052,15.6507852 21.1535052,15.5356449 21.1535052,15.4205046 C21.1535052,14.1249992 20.8009835,12.9170853 20.1819887,11.8921244 Z M20.1819887,11.8921244 L20.0022582,12.0892051 C19.5033151,12.6324132 18.9911871,13.1544298 18.4783652,13.6771528 C18.1522133,14.0162163 17.7996916,14.3418586 17.4603547,14.6745648 C17.9128038,14.7897051 18.3652529,14.9119092 18.817702,15.0475347 C19.5164999,15.2509728 20.2083585,15.4480535 20.900217,15.6783342 L21.1465658,15.7595681 C21.1535052,15.6507852 21.1535052,15.5356449 21.1535052,15.4205046 C21.1535052,14.1249992 20.8009835,12.9170853 20.1819887,11.8921244 Z M15.4583369,8.70987169 L15.491646,8.9747651 C15.584634,9.70728366 15.6512523,10.4475724 15.7178706,11.180091 C15.7442403,11.4718269 15.771304,11.7572054 15.7907343,12.0489413 C15.8039192,12.2728646 16.050268,12.3880049 16.2299985,12.2594433 C16.4562231,12.0899115 16.689387,11.9203797 16.9287964,11.7572054 C17.527667,11.3432653 18.1195981,10.9293252 18.7316534,10.5288064 L18.957878,10.3861171 C18.0064858,9.50384552 16.7955599,8.89988856 15.4583369,8.70987169 Z M15.4583369,8.70987169 L15.491646,8.9747651 C15.584634,9.70728366 15.6512523,10.4475724 15.7178706,11.180091 C15.7442403,11.4718269 15.771304,11.7572054 15.7907343,12.0489413 C15.8039192,12.2728646 16.050268,12.3880049 16.2299985,12.2594433 C16.4562231,12.0899115 16.689387,11.9203797 16.9287964,11.7572054 C17.527667,11.3432653 18.1195981,10.9293252 18.7316534,10.5288064 L18.957878,10.3861171 C18.0064858,9.50384552 16.7955599,8.89988856 15.4583369,8.70987169 Z M15.4583369,8.70987169 L15.491646,8.9747651 C15.584634,9.70728366 15.6512523,10.4475724 15.7178706,11.180091 C15.7442403,11.4718269 15.771304,11.7572054 15.7907343,12.0489413 C15.8039192,12.2728646 16.050268,12.3880049 16.2299985,12.2594433 C16.4562231,12.0899115 16.689387,11.9203797 16.9287964,11.7572054 C17.527667,11.3432653 18.1195981,10.9293252 18.7316534,10.5288064 L18.957878,10.3861171 C18.0064858,9.50384552 16.7955599,8.89988856 15.4583369,8.70987169 Z" id="Shape" fill="#CBD5E1" fill-rule="nonzero"></path>
            <path d="M6.86804952,17.8229111 C6.71468871,17.8363324 6.56896124,17.8363324 6.39547616,17.7480346 C6.18937588,17.6597368 5.99646047,17.6053454 5.82297538,17.6668006 C5.64324484,17.700707 5.47045369,17.7480346 5.29766255,17.8024261 C4.95138633,17.9175664 4.6120495,18.0468344 4.29283695,18.277115 C3.966685,18.5144595 3.5142359,18.4332255 3.28176589,18.1005194 C3.05554134,17.7678133 3.12840508,17.3065456 3.45455703,17.0755586 C3.62110271,16.9533544 3.82720299,16.9123842 4.013179,16.9462906 C4.39276436,17.0275246 4.75847091,17.000682 5.11793201,16.9533544 C5.29766255,16.9328693 5.4773931,16.898963 5.65018424,16.8516353 C5.82991479,16.8382141 5.98952106,16.7025886 6.13594247,16.5330569 C6.26223961,16.3840102 6.40866102,16.3225549 6.55508243,16.2681635 C6.61545524,16.7986567 6.71538265,17.3206733 6.86804952,17.8229111 Z" id="Path"></path>
            <path d="M11.8116804,23.088992 C11.7318773,23.2380387 11.6388893,23.3736641 11.4522194,23.4760896 C11.2593039,23.5848725 11.0996977,23.7134341 11.0400188,23.8900297 C10.9602157,24.053204 10.886658,24.2227358 10.8269791,24.3922675 C10.7069274,24.7454588 10.6007546,25.0979436 10.5938152,25.4984624 C10.5806303,25.9053387 10.2412935,26.2246235 9.84227778,26.2112023 C9.44326209,26.197781 9.130295,25.8587174 9.14347987,25.4511348 C9.15041927,25.2406328 9.24340728,25.0576798 9.38288928,24.9284118 C9.6757321,24.657161 9.87558692,24.3449399 10.0615629,24.0327189 C10.1483055,23.8695446 10.2281086,23.7070766 10.3009723,23.5375448 C10.3939603,23.3814343 10.3877149,23.1709324 10.3474663,22.9470091 C10.3009723,22.7365072 10.3474663,22.5669754 10.4008997,22.4108649 C10.8471034,22.6821157 11.3196767,22.9123964 11.8116804,23.088992 Z" id="Path"></path>
            <path d="M19.7094154,25.9865726 C19.4366968,26.2853724 18.9842477,26.3051511 18.6844655,26.0339003 C18.5311047,25.891211 18.4513015,25.7011942 18.4513015,25.5048198 C18.4381167,25.104301 18.3381893,24.7518162 18.2181376,24.398625 C18.1584587,24.2290932 18.0918404,24.0595614 18.0120373,23.8900297 C17.9523584,23.7134341 17.7927522,23.5912299 17.5991428,23.4760896 C17.4131668,23.3743705 17.3194849,23.2316813 17.2264968,23.0755707 C17.7254399,22.8926177 18.2042588,22.6545668 18.6504624,22.3769585 L18.6504624,22.3840224 C18.7038958,22.560618 18.7635747,22.7301497 18.7101413,22.9611368 C18.6636473,23.18506 18.6567079,23.3884981 18.7503898,23.5516725 C18.8232536,23.7148468 18.9037506,23.8843786 18.9897992,24.0404891 C19.1695298,24.3590676 19.3693846,24.6783524 19.6615335,24.9432458 C19.9557642,25.2194413 19.9758884,25.6814154 19.7094154,25.9865726 Z" id="Path"></path>
            <path d="M25.4052776,18.2573363 C25.2054228,18.304664 25.0062619,18.2573363 24.8466556,18.1556173 C24.5205037,17.931694 24.1749214,17.8094899 23.8286452,17.7077708 C23.655854,17.6604432 23.4761235,17.619473 23.3033323,17.5926305 C23.1305412,17.538239 22.9306864,17.5926305 22.7308316,17.6872857 C22.5309767,17.8024261 22.3512462,17.7826474 22.1652702,17.7685197 L22.1451459,17.7685197 C22.2985067,17.2599244 22.3977402,16.7301376 22.4511736,16.1876359 L22.458113,16.1876359 C22.6309041,16.2420273 22.8043892,16.2893549 22.9570561,16.472308 C23.1104169,16.6354823 23.2700232,16.7569801 23.4497537,16.7711077 C23.6294843,16.8120779 23.8022754,16.8389205 23.982006,16.8594055 C24.3477125,16.8933119 24.7071736,16.9067332 25.0930044,16.8184354 C25.4857747,16.7301376 25.8716055,16.9816097 25.9576541,17.3814221 C26.0437027,17.7755835 25.7973539,18.1690385 25.4052776,18.2573363 Z" id="Path"></path>
        </g>
    </g>
</svg>