<?xml version="1.0" encoding="UTF-8"?>
<svg width="72px" height="72px" viewBox="0 0 72 72" version="1.1" xmlns="http://www.w3.org/2000/svg" xmlns:xlink="http://www.w3.org/1999/xlink">
    <title>user-registration</title>
    <defs>
        <linearGradient x1="100%" y1="6.52256027e-14%" x2="4.96130914e-14%" y2="100%" id="linearGradient-1">
            <stop stop-color="#E0E7FF" offset="0%"></stop>
            <stop stop-color="#CAC9E8" offset="100%"></stop>
        </linearGradient>
    </defs>
    <g id="user-registration" stroke="none" stroke-width="1" fill="none" fill-rule="evenodd">
        <g id="Docs-Icons-/-Light-/docs-other-use-cases-user-registration-indigo-light">
            <rect id="Rectangle-Copy-6" fill="url(#linearGradient-1)" x="0" y="0" width="72" height="72" rx="12"></rect>
            <path d="M36.0304104,17 C37.6528683,17 38.8890346,17.1349 40.3648969,17.475 C41.2187182,17.6726 41.8664947,18.4154778 41.9120587,19.2571777 C42.0923312,22.6885777 45.2302851,24.2808114 48.1641819,22.7589111 C48.9585724,22.348511 49.9629401,22.5423001 50.5790381,23.175 C52.5660054,25.2232001 54.0220811,27.5468884 54.9115608,30.2410889 C55.1849421,31.0618892 54.8045622,31.9757999 54.0458302,32.4375 C51.0822183,34.2406007 51.1357174,37.6681896 54.1072535,39.5035889 C54.8521184,39.9633882 55.1690939,40.827888 54.9115608,41.6410889 C54.0716067,44.2877882 52.540252,46.8129108 50.5790381,48.8839111 C49.956997,49.5413124 48.9704586,49.678088 48.1641819,49.2410889 C45.2718865,47.6697895 41.9794247,49.4710112 41.9734821,52.6839111 C41.9715003,53.5731119 41.3296371,54.3312014 40.4262901,54.525 C38.9959908,54.8308987 37.5241026,55 36.0304104,55 C34.2930519,55 33.0549246,54.9126118 31.6345298,54.5839111 C30.7589179,54.3806105 30.1646101,53.6092211 30.1487611,52.7428223 C30.0913128,49.4786215 27.0365728,47.6602875 23.7104342,49.2410889 C22.918025,49.6172888 21.9532442,49.4519999 21.3589345,48.825 C19.4234747,46.7900998 17.951592,44.3353002 17.0878673,41.7 C16.8243922,40.9019999 17.1710511,40.0355992 17.8921448,39.5625 C20.9508446,37.5561005 20.9389574,34.4913879 17.8921448,32.3785889 C17.2007653,31.8997891 16.8937089,31.0200886 17.1492605,30.2410889 C18.0407194,27.5107883 19.4115875,25.1928005 21.3589345,23.175 C21.9393771,22.5727002 22.8704688,22.416911 23.6490108,22.7589111 C27.153442,24.3017112 29.8991342,22.5916997 30.2101543,19.1375 C30.2874153,18.3015 30.9035081,17.5870889 31.7593111,17.4160889 C33.1301792,17.1405889 34.6694458,17 36.0304104,17 Z M38.875,35.9442204 C37.9595003,36.3227559 36.9848995,36.5176206 36,36.5176206 C35.0151,36.5176206 34.0405002,36.3227559 33.125,35.9442204 C32.9131002,35.8566049 32.6928997,35.8306411 32.4687996,35.8868804 C29.8544996,36.5423919 28,38.6279162 28,41.104822 L28,42.9397026 C28,43.4464044 28.4477,43.8571429 29,43.8571429 L43,43.8571429 C43.5522995,43.8571429 44,43.4464044 44,42.9397026 L44,41.104822 C44,38.6279162 42.1455002,36.5423919 39.5312004,35.8868804 C39.3071003,35.8306411 39.0868998,35.8566049 38.875,35.9442204 Z M36,25.8571429 C33.7908798,25.8571429 32,27.6480229 32,29.8571429 C32,32.066263 33.7908798,33.8571429 36,33.8571429 C38.2091202,33.8571429 40,32.066263 40,29.8571429 C40,27.6480229 38.2091202,25.8571429 36,25.8571429 Z" id="Combined-Shape" fill="#6366F1"></path>
        </g>
    </g>
</svg>