<?xml version="1.0" encoding="UTF-8"?>
<svg width="76px" height="76px" viewBox="0 0 76 76" version="1.1" xmlns="http://www.w3.org/2000/svg" xmlns:xlink="http://www.w3.org/1999/xlink">
    <title>user-registration</title>
    <defs>
        <linearGradient x1="-3.88578059e-14%" y1="100%" x2="100%" y2="2.77555756e-15%" id="linearGradient-1">
            <stop stop-color="#DDE7EC" offset="0%"></stop>
            <stop stop-color="#E7F6FD" offset="100%"></stop>
        </linearGradient>
    </defs>
    <g id="user-registration" stroke="none" stroke-width="1" fill="none" fill-rule="evenodd">
        <rect id="Rectangle" fill="url(#linearGradient-1)" opacity="0" x="0" y="0" width="76" height="76" rx="12"></rect>
        <path d="M38.0304104,19 C39.6528683,19 40.8890346,19.1349 42.3648969,19.475 C43.2187182,19.6726 43.8664947,20.4154778 43.9120587,21.2571777 C44.0923312,24.6885777 47.2302851,26.2808114 50.1641819,24.7589111 C50.9585724,24.348511 51.9629401,24.5423001 52.5790381,25.175 C54.5660054,27.2232001 56.0220811,29.5468884 56.9115608,32.2410889 C57.1849421,33.0618892 56.8045622,33.9757999 56.0458302,34.4375 C53.0822183,36.2406007 53.1357174,39.6681896 56.1072535,41.5035889 C56.8521184,41.9633882 57.1690939,42.827888 56.9115608,43.6410889 C56.0716067,46.2877882 54.540252,48.8129108 52.5790381,50.8839111 C51.956997,51.5413124 50.9704586,51.678088 50.1641819,51.2410889 C47.2718865,49.6697895 43.9794247,51.4710112 43.9734821,54.6839111 C43.9715003,55.5731119 43.3296371,56.3312014 42.4262901,56.525 C40.9959908,56.8308987 39.5241026,57 38.0304104,57 C36.2930519,57 35.0549246,56.9126118 33.6345298,56.5839111 C32.7589179,56.3806105 32.1646101,55.6092211 32.1487611,54.7428223 C32.0913128,51.4786215 29.0365728,49.6602875 25.7104342,51.2410889 C24.918025,51.6172888 23.9532442,51.4519999 23.3589345,50.825 C21.4234747,48.7900998 19.951592,46.3353002 19.0878673,43.7 C18.8243922,42.9019999 19.1710511,42.0355992 19.8921448,41.5625 C22.9508446,39.5561005 22.9389574,36.4913879 19.8921448,34.3785889 C19.2007653,33.8997891 18.8937089,33.0200886 19.1492605,32.2410889 C20.0407194,29.5107883 21.4115875,27.1928005 23.3589345,25.175 C23.9393771,24.5727002 24.8704688,24.416911 25.6490108,24.7589111 C29.153442,26.3017112 31.8991342,24.5916997 32.2101543,21.1375 C32.2874153,20.3015 32.9035081,19.5870889 33.7593111,19.4160889 C35.1301792,19.1405889 36.6694458,19 38.0304104,19 Z M40.875,37.9442204 C39.9595003,38.3227559 38.9848995,38.5176206 38,38.5176206 C37.0151,38.5176206 36.0405002,38.3227559 35.125,37.9442204 C34.9131002,37.8566049 34.6928997,37.8306411 34.4687996,37.8868804 C31.8544996,38.5423919 30,40.6279162 30,43.104822 L30,44.9397026 C30,45.4464044 30.4477,45.8571429 31,45.8571429 L45,45.8571429 C45.5522995,45.8571429 46,45.4464044 46,44.9397026 L46,43.104822 C46,40.6279162 44.1455002,38.5423919 41.5312004,37.8868804 C41.3071003,37.8306411 41.0868998,37.8566049 40.875,37.9442204 Z M38,27.8571429 C35.7908798,27.8571429 34,29.6480229 34,31.8571429 C34,34.066263 35.7908798,35.8571429 38,35.8571429 C40.2091202,35.8571429 42,34.066263 42,31.8571429 C42,29.6480229 40.2091202,27.8571429 38,27.8571429 Z" id="Combined-Shape" fill="#14B8A6"></path>
    </g>
</svg>