<?xml version="1.0" encoding="UTF-8"?>
<svg width="76px" height="76px" viewBox="0 0 76 76" version="1.1" xmlns="http://www.w3.org/2000/svg" xmlns:xlink="http://www.w3.org/1999/xlink">
    <title>user-signup-process-dark</title>
    <defs>
        <linearGradient x1="-3.88578059e-14%" y1="100%" x2="100%" y2="2.77555756e-15%" id="linearGradient-1">
            <stop stop-color="#0F2B45" offset="0%"></stop>
            <stop stop-color="#1C4D6E" offset="100%"></stop>
        </linearGradient>
        <filter x="-96.0%" y="-93.4%" width="292.0%" height="292.1%" filterUnits="objectBoundingBox" id="filter-2">
            <feOffset dx="0" dy="1" in="SourceAlpha" result="shadowOffsetOuter1"></feOffset>
            <feGaussianBlur stdDeviation="12" in="shadowOffsetOuter1" result="shadowBlurOuter1"></feGaussianBlur>
            <feColorMatrix values="0 0 0 0 0   0 0 0 0 0   0 0 0 0 0  0 0 0 0.5 0" type="matrix" in="shadowBlurOuter1" result="shadowMatrixOuter1"></feColorMatrix>
            <feMerge>
                <feMergeNode in="shadowMatrixOuter1"></feMergeNode>
                <feMergeNode in="SourceGraphic"></feMergeNode>
            </feMerge>
        </filter>
    </defs>
    <g id="user-signup-process-dark" stroke="none" stroke-width="1" fill="none" fill-rule="evenodd">
        <rect id="Rectangle" fill="url(#linearGradient-1)" x="0" y="0" width="76" height="76" rx="12"></rect>
        <g id="Group-11" filter="url(#filter-2)" transform="translate(19, 19)">
            <path d="M30.6530017,4.79861111 C32.9038858,4.79861111 34.7285879,6.62331321 34.7285879,8.87419732 L34.7285879,28.7230249 C34.7285879,30.973909 32.9038858,32.7986111 30.6530017,32.7986111 L10.9391142,32.7986111 C9.83454468,32.7986111 8.93911418,31.9031806 8.93911418,30.7986111 C8.93911418,29.6940416 9.83454468,28.7986111 10.9391142,28.7986111 L30.6530017,28.7986111 C30.6947468,28.7986111 30.7285879,28.76477 30.7285879,28.7230249 L30.7285879,8.87419732 C30.7285879,8.83245221 30.6947468,8.79861111 30.6530017,8.79861111 L9.72858786,8.79861111 C8.62401836,8.79861111 7.72858786,7.90318061 7.72858786,6.79861111 C7.72858786,5.69404161 8.62401836,4.79861111 9.72858786,4.79861111 L30.6530017,4.79861111 Z" id="Path-4" fill="#0EA5E9" fill-rule="nonzero" transform="translate(21.2286, 18.7986) scale(-1, 1) translate(-21.2286, -18.7986)"></path>
            <path d="M6.93894046,11.6865106 L12.8702116,11.7156481 C15.0639922,11.7264251 16.8397365,13.5021694 16.8505135,15.69595 L16.879651,21.6272211 C16.8905034,23.8363335 15.1084615,25.6359704 12.8993492,25.6468228 C12.8862493,25.6468871 12.8731493,25.6468871 12.8600494,25.6468228 L6.92877824,25.6176852 C4.73499772,25.6069082 2.9592534,23.8311639 2.94847639,21.6373834 L2.91933884,15.7061122 C2.9084865,13.4969998 4.69052834,11.6973629 6.89964069,11.6865106 C6.91274053,11.6864462 6.92584061,11.6864462 6.93894046,11.6865106 Z" id="Rectangle-Copy" fill="#7DD3FC" transform="translate(9.8995, 18.6667) scale(-1, 1) rotate(-315) translate(-9.8995, -18.6667)"></path>
            <rect id="Rectangle-Copy-2" fill="#0EA5E9" transform="translate(31, 7) scale(-1, 1) translate(-31, -7)" x="24" y="0" width="14" height="14" rx="7"></rect>
            <path d="M26.4590179,24.7251485 C27.1630446,23.8740931 28.4236131,23.7549646 29.2745764,24.4590676 L35.273884,29.4230069 C36.23613,30.2191872 36.2413515,31.6928972 35.2847715,32.4958775 L29.2854639,37.5318664 C28.4395113,38.241983 27.1781303,38.1317919 26.4680906,37.2857477 C25.7580508,36.4397036 25.86823,35.1781861 26.7141826,34.4680695 L30.8764912,30.974004 L26.72507,27.5410118 C25.9166549,26.872114 25.7687323,25.7008829 26.359576,24.8557584 L26.4590179,24.7251485 Z" id="Path" fill="#0EA5E9" fill-rule="nonzero"></path>
        </g>
    </g>
</svg>