<?xml version="1.0" encoding="UTF-8"?>
<svg width="76px" height="76px" viewBox="0 0 76 76" version="1.1" xmlns="http://www.w3.org/2000/svg" xmlns:xlink="http://www.w3.org/1999/xlink">
    <title>user-centric-security-dark</title>
    <defs>
        <linearGradient x1="2.77555756e-15%" y1="100%" x2="100%" y2="2.77555756e-15%" id="linearGradient-1">
            <stop stop-color="#112C38" offset="0%"></stop>
            <stop stop-color="#19555B" offset="100%"></stop>
        </linearGradient>
    </defs>
    <g id="user-centric-security-dark" stroke="none" stroke-width="1" fill="none" fill-rule="evenodd">
        <rect id="Rectangle-Copy-8" fill="url(#linearGradient-1)" x="0" y="0" width="76" height="76" rx="12"></rect>
        <path d="M26.6,30.075659 C26.00572,30.285707 25.3662073,30.4 24.7,30.4 C24.0337927,30.4 23.3942799,30.285707 22.8,30.075659 L22.8,45.924341 C23.3942799,45.7142925 24.0337927,45.6 24.7,45.6 C25.3662073,45.6 26.00572,45.7142925 26.6,45.924341 L26.6,30.075659 Z M30.075659,26.6 L45.924341,26.6 C45.7142925,26.00572 45.6,25.3662073 45.6,24.7 C45.6,24.0337927 45.7142925,23.3942799 45.924341,22.8 L30.075659,22.8 C30.285707,23.3942799 30.4,24.0337927 30.4,24.7 C30.4,25.3662073 30.285707,26.00572 30.075659,26.6 Z M49.4,30.0756594 C49.9942791,30.285707 50.6337925,30.4 51.3,30.4 C51.9662075,30.4 52.6057209,30.285707 53.2,30.0756594 L53.2,45.924341 C52.6057209,45.7142925 51.9662075,45.6 51.3,45.6 C50.6337925,45.6 49.9942791,45.7142925 49.4,45.924341 L49.4,30.0756594 Z M45.924341,49.4 L30.0756594,49.4 C30.285707,49.9942791 30.4,50.6337925 30.4,51.3 C30.4,51.9662075 30.285707,52.6057209 30.0756594,53.2 L45.924341,53.2 C45.7142925,52.6057209 45.6,51.9662075 45.6,51.3 C45.6,50.6337925 45.7142925,49.9942791 45.924341,49.4 Z" id="Subtract" fill="#5EEAD4"></path>
        <path d="M24.7,30.4 C27.8480229,30.4 30.4,27.8480229 30.4,24.7 C30.4,21.5519769 27.8480229,19 24.7,19 C21.5519769,19 19,21.5519769 19,24.7 C19,27.8480229 21.5519769,30.4 24.7,30.4 Z" id="Union" fill="#14B8A6"></path>
        <path d="M51.3,30.4 C54.4480238,30.4 57,27.8480229 57,24.7 C57,21.5519769 54.4480238,19 51.3,19 C48.1519762,19 45.6,21.5519769 45.6,24.7 C45.6,27.8480229 48.1519762,30.4 51.3,30.4 Z" id="Union" fill="#14B8A6"></path>
        <path d="M30.4,51.3 C30.4,54.4480238 27.8480229,57 24.7,57 C21.5519769,57 19,54.4480238 19,51.3 C19,48.1519762 21.5519769,45.6 24.7,45.6 C27.8480229,45.6 30.4,48.1519762 30.4,51.3 Z" id="Union" fill="#14B8A6"></path>
        <path d="M51.3,57 C54.4480238,57 57,54.4480238 57,51.3 C57,48.1519762 54.4480238,45.6 51.3,45.6 C48.1519762,45.6 45.6,48.1519762 45.6,51.3 C45.6,54.4480238 48.1519762,57 51.3,57 Z" id="Union" fill="#14B8A6"></path>
        <rect id="Rectangle" fill="#14B8A6" x="31" y="31" width="14" height="14" rx="7"></rect>
    </g>
</svg>