<?xml version="1.0" encoding="UTF-8"?>
<svg width="54px" height="54px" viewBox="0 0 54 54" version="1.1" xmlns="http://www.w3.org/2000/svg" xmlns:xlink="http://www.w3.org/1999/xlink">
    <title>user-signup-process</title>
    <g id="user-signup-process" stroke="none" stroke-width="1" fill="none" fill-rule="evenodd">
        <rect id="Rectangle" fill="#F1F5F9" x="0" y="0" width="54" height="54" rx="5"></rect>
        <g id="Group" transform="translate(13, 14)" fill-rule="nonzero">
            <path d="M25.8464029,17.1817624 C26.5257575,17.1817624 27.0771177,17.7315837 27.0771177,18.4090421 L27.0771177,25.7727203 C27.0771177,26.4501787 26.5257575,27 25.8464029,27 L18.462114,27 C17.7827594,27 17.2313992,26.4501787 17.2313992,25.7727203 L17.2313992,18.4090421 C17.2313992,17.7315837 17.7827594,17.1817624 18.462114,17.1817624 L25.8464029,17.1817624 Z" id="Path" fill="#F58320"></path>
            <polygon id="Path" fill="#CBD5E1" points="23.3849733 15.3408428 20.9235436 15.3408428 20.9235436 12.8862834 23.3849733 12.8862834"></polygon>
            <path d="M27.6395544,4.96173842 C28.1201485,5.44099114 28.1201485,6.21785919 27.6395544,6.69711192 L23.0243738,11.2994108 C22.5431643,11.7792772 21.7647372,11.7786635 21.2841431,11.2994108 L16.6689625,6.69711192 C16.1883684,6.21785919 16.1883684,5.44099114 16.6689625,4.96173842 L21.2841431,0.359439542 C21.7647372,-0.119813181 22.5437797,-0.119813181 23.0243738,0.359439542 L27.6395544,4.96173842 Z" id="Path" fill="#6366F1"></path>
            <polygon id="Path" fill="#CBD5E1" points="14.7699695 6.74988494 12.3085399 6.74988494 12.3085399 4.29532554 14.7699695 4.29532554"></polygon>
            <path d="M5.84728708,0.61348644 C8.73146726,0.61348644 11.0778251,2.95329519 11.0778251,5.82942517 C11.0778251,8.70555515 8.73146726,11.0453639 5.84728708,11.0453639 C2.9631069,11.0453639 0.616749099,8.70555515 0.616749099,5.82942517 C0.616749099,2.95329519 2.9631069,0.61348644 5.84728708,0.61348644 Z" id="Path" fill="#0EA5E9"></path>
            <polygon id="Path" fill="#CBD5E1" points="6.7703232 15.3408428 4.30889356 15.3408428 4.30889356 12.8862834 6.7703232 12.8862834"></polygon>
            <path d="M10.9129093,25.1590804 C11.3842731,25.9752215 10.7947607,27 9.84711025,27 L1.23210651,27 C0.286302169,27 -0.306902374,25.9770624 0.166307474,25.1590804 L4.47380934,17.7186973 C4.94640383,16.9025563 6.13158221,16.9001017 6.60602277,17.7186973 L10.9129093,25.1590804 Z" id="Path" fill="#6366F1"></path>
        </g>
    </g>
</svg>