<svg xmlns="http://www.w3.org/2000/svg" width="70" height="70"><linearGradient id="a" x1="0%" x2="100%" y1="0%" y2="100%"><stop offset="0" stop-color="#a4aebe"/><stop offset="1" stop-color="#2d53f5"/></linearGradient><path fill="url(#a)" fill-rule="evenodd" d="M47.453 36.977A5.545 5.545 0 0 1 53 42.523v4.93A5.545 5.545 0 0 1 47.453 53h-4.93a5.545 5.545 0 0 1-5.546-5.547v-4.93a5.545 5.545 0 0 1 5.546-5.546zM28.965 18.488a5.545 5.545 0 0 1 5.547 5.547v4.93a5.545 5.545 0 0 1-5.547 5.547h-4.93a5.545 5.545 0 0 1-5.547-5.547v-.617H6.779c-.75 0-1.47.274-2.03.764l-.15.14a3.087 3.087 0 0 0-.901 2.178v8.628c0 .819.325 1.6.902 2.18a3.09 3.09 0 0 0 2.18.902l20.187-.001-1.774-1.774a1.847 1.847 0 0 1-.113-2.49l.113-.123a1.846 1.846 0 0 1 2.614 0l4.93 4.93c.722.722.722 1.89 0 2.613l-4.93 4.93a1.846 1.846 0 0 1-2.614 0 1.846 1.846 0 0 1 0-2.613l.044-.043.31-.312.246-.244.608-.61.566-.565H6.779a6.79 6.79 0 0 1-4.795-1.985A6.79 6.79 0 0 1 0 40.058V31.43a6.79 6.79 0 0 1 1.984-4.794A6.79 6.79 0 0 1 6.78 24.65h11.709v-.616c0-1.38.514-2.705 1.435-3.723l.19-.2a5.545 5.545 0 0 1 3.922-1.624zm18.488 22.186h-4.93c-.49 0-.961.195-1.306.543a1.841 1.841 0 0 0-.543 1.306v4.93c0 .491.195.962.543 1.307.345.348.816.542 1.306.542h4.93a1.84 1.84 0 0 0 1.307-.542 1.84 1.84 0 0 0 .542-1.307v-4.93c0-.49-.194-.961-.542-1.306a1.841 1.841 0 0 0-1.307-.543zM10.477 0a5.545 5.545 0 0 1 5.546 5.547v.615h30.198a6.79 6.79 0 0 1 4.795 1.985A6.79 6.79 0 0 1 53 12.942v8.628a6.79 6.79 0 0 1-1.984 4.794 6.79 6.79 0 0 1-4.795 1.985l-2.933-.001 1.774 1.776c.682.68.72 1.764.114 2.489l-.114.124a1.846 1.846 0 0 1-2.613 0l-4.977-4.979a1.853 1.853 0 0 1-.324-.48l-.011-.027a1.456 1.456 0 0 1-.047-.112l-.01-.033a1.846 1.846 0 0 1 0-1.212l.011-.033c.013-.038.029-.076.045-.112l.013-.027c.082-.177.191-.34.323-.48l4.977-4.979a1.846 1.846 0 0 1 2.613 0c.723.72.723 1.893 0 2.613l-.252.253-.218.218-.417.417-.32.32-.341.342-.226.226h2.933c.818 0 1.6-.326 2.18-.903a3.09 3.09 0 0 0 .901-2.18v-8.627c0-.819-.325-1.6-.902-2.18a3.087 3.087 0 0 0-2.18-.902H16.024v.617c0 1.38-.513 2.705-1.435 3.722l-.19.2a5.545 5.545 0 0 1-3.921 1.624h-4.93A5.545 5.545 0 0 1 0 10.477v-4.93A5.545 5.545 0 0 1 5.547 0zm18.488 22.186h-4.93c-.49 0-.962.195-1.307.542a1.841 1.841 0 0 0-.542 1.307v4.93c0 .49.195.962.542 1.307.345.347.816.542 1.307.542h4.93c.49 0 .962-.195 1.307-.542.347-.345.542-.816.542-1.307v-4.93c0-.49-.195-.962-.542-1.307a1.841 1.841 0 0 0-1.307-.542zM10.477 3.698h-4.93a1.84 1.84 0 0 0-1.307.542 1.841 1.841 0 0 0-.542 1.307v4.93c0 .49.194.961.542 1.306a1.84 1.84 0 0 0 1.307.543h4.93c.49 0 .961-.195 1.306-.543a1.84 1.84 0 0 0 .543-1.306v-4.93a1.84 1.84 0 0 0-.543-1.307 1.841 1.841 0 0 0-1.306-.542z" transform="translate(9 9)"/></svg>