<svg height="70" viewBox="0 0 70 70" width="70" xmlns="http://www.w3.org/2000/svg" xmlns:xlink="http://www.w3.org/1999/xlink"><linearGradient id="a" x1="0%" x2="100%" y1="0%" y2="100%"><stop offset="0" stop-color="#a4aebe"/><stop offset="1" stop-color="#2d53f5"/></linearGradient><path d="m47.4534884 36.9767442c1.4716744 0 2.8817209.5842325 3.922 1.6245116 1.040279 1.0402791 1.6245116 2.4503256 1.6245116 3.922v4.9302326c0 1.4716744-.5842326 2.8817209-1.6245116 3.922-1.0402791 1.040279-2.4503256 1.6245116-3.922 1.6245116h-4.9302326c-1.4716744 0-2.8817209-.5842326-3.922-1.6245116-1.0402791-1.0402791-1.6245116-2.4503256-1.6245116-3.922v-4.9302326c0-1.4716744.5842325-2.8817209 1.6245116-3.922s2.4503256-1.6245116 3.922-1.6245116zm-18.4883721-18.4883721c1.4716744 0 2.8817209.5842326 3.922 1.6245116 1.040279 1.0402791 1.6245116 2.4503256 1.6245116 3.922v4.9302326c0 1.4716744-.5842326 2.8817209-1.6245116 3.922-1.0402791 1.040279-2.4503256 1.6245116-3.922 1.6245116h-4.9302326c-1.4716744 0-2.8817209-.5842326-3.922-1.6245116-1.040279-1.0402791-1.6245116-2.4503256-1.6245116-3.922l-.0003721-.6171163-11.70893023.0008372c-.75021706 0-1.46936337.2734225-2.03022155.7633044l-.14894124.1389282c-.57683721.5793023-.90223256 1.3607442-.90223256 2.1791628v8.6279069c0 .8184186.32539535 1.5998605.90223256 2.1791628.57930232.5768372 1.36074418.9022326 2.17916279.9022326l20.18793023-.0005349-1.7735116-1.7743488c-.6821525-.6798243-.7200498-1.764232-.1136921-2.48901l.1136921-.1240133c.7198139-.7222791 1.8932093-.7222791 2.6130232 0l4.9302326 4.9302326c.7222791.722279.7222791 1.8907442 0 2.6130232l-4.9302326 4.9302326c-.7198139.722279-1.8932093.722279-2.6130232 0-.7222791-.719814-.7222791-1.8932093 0-2.6130233 0 0 .0150728-.0150831.0432737-.0433031l.3111817-.3113936c.0729332-.0729829.1551047-.1552102.2445694-.2447359l.6087493-.6091636c.1821246-.1822487.3734354-.3736897.5653086-.5656935l-20.18750133-.000594c-1.79706977 0-3.52265117-.7148837-4.79465117-1.9844186-1.26953488-1.272-1.9844186-2.9975814-1.9844186-4.7946512v-8.6279069c0-1.7970698.71488372-3.5226512 1.9844186-4.7946512 1.272-1.2695349 2.9975814-1.9844186 4.79465117-1.9844186l11.70893023-.0001628.0003721-.6161163c0-1.3796947.5134856-2.7052244 1.4348349-3.7226897l.1896767-.1993103c1.0402791-1.040279 2.4503256-1.6245116 3.922-1.6245116zm18.4883721 22.1860465h-4.9302326c-.4905581 0-.9613953.1947442-1.3065116.5423256-.3475814.3451163-.5423256.8159535-.5423256 1.3065116v4.9302326c0 .4905581.1947442.9613953.5423256 1.3065116.3451163.3475814.8159535.5423256 1.3065116.5423256h4.9302326c.4905581 0 .9613953-.1947442 1.3065116-.5423256.3475814-.3451163.5423256-.8159535.5423256-1.3065116v-4.9302326c0-.4905581-.1947442-.9613953-.5423256-1.3065116-.3451163-.3475814-.8159535-.5423256-1.3065116-.5423256zm-36.9767442-40.6744186c1.4716744 0 2.8817209.58423256 3.922 1.62451163s1.6245116 2.45032558 1.6245116 3.922l-.0002558.61548837 30.1979302.0007907c1.7970698 0 3.5226512.71488372 4.7946512 1.9844186 1.2695349 1.272 1.9844186 2.9975814 1.9844186 4.7946512v8.6279069c0 1.7970698-.7148837 3.5226512-1.9844186 4.7946512-1.272 1.2695349-2.9975814 1.9844186-4.7946512 1.9844186l-2.9329302-.0008372 1.7743256 1.7757209c.6821524.6798243.7200498 1.764232.1136921 2.48901l-.1136921.1240133c-.719814.7222791-1.8932093.7222791-2.6130233 0l-4.9777781-4.9782812c-.1313796-.1412843-.240934-.3031358-.323279-.48017-.0036404-.0094363-.0077207-.0184107-.0117254-.0274104-.0169136-.0362586-.0321298-.0736407-.0461349-.1116074-.0034626-.0115757-.0074028-.0226043-.0112348-.0336618-.0665511-.189265-.1024059-.3932775-.1024059-.6056134s.0358548-.4163484.1018364-.6063092c.0044015-.0103617.0083417-.0213903.0123901-.0323883.0134193-.0385444.0286355-.0759265.0450159-.1126768.0045379-.008508.0086182-.0174824.0127741-.0264305.0818295-.1775224.1913839-.3393739.3227635-.4806582l4.9777781-4.9782812c.719814-.7222791 1.8932093-.7222791 2.6130233 0 .7222791.719814.7222791 1.8932093 0 2.6130233l-.2522274.252399c-.0632088.0632519-.1366282.1367213-.2183134.2184621l-.4168134.4170971c-.1021065.102176-.2095614.2097041-.3204199.320638l-.3408412.3410733c-.0749422.0749931-.1504961.1505985-.2261335.2262874l2.9333534-.0010732c.8184186 0 1.5998605-.3253954 2.1791628-.9022326.5768372-.5793023.9022326-1.3607442.9022326-2.1791628v-8.6279069c0-.8184186-.3253954-1.5998605-.9022326-2.1791628-.5793023-.5768372-1.3607442-.90223258-2.1791628-.90223258l-30.1979302-.00046512.0002558.6167442c0 1.3796948-.5134856 2.7052244-1.4348349 3.7226897l-.1896767.1993103c-1.0402791 1.0402791-2.4503256 1.6245116-3.922 1.6245116h-4.93023257c-1.47167442 0-2.88172093-.5842325-3.922-1.6245116s-1.62451163-2.4503256-1.62451163-3.922v-4.93023257c0-1.47167442.58423256-2.88172093 1.62451163-3.922s2.45032558-1.62451163 3.922-1.62451163zm18.4883721 22.1860465h-4.9302326c-.4905581 0-.9613953.1947442-1.3065116.5423256-.3475814.3451163-.5423256.8159535-.5423256 1.3065116v4.9302326c0 .4905581.1947442.9613953.5423256 1.3065116.3451163.3475814.8159535.5423256 1.3065116.5423256h4.9302326c.4905581 0 .9613953-.1947442 1.3065116-.5423256.3475814-.3451163.5423256-.8159535.5423256-1.3065116v-4.9302326c0-.4905581-.1947442-.9613953-.5423256-1.3065116-.3451163-.3475814-.8159535-.5423256-1.3065116-.5423256zm-18.4883721-18.48837208h-4.93023257c-.49055814 0-.96139535.19474418-1.30651163.54232558-.3475814.34511628-.54232558.81595349-.54232558 1.30651163v4.93023257c0 .4905581.19474418.9613953.54232558 1.3065116.34511628.3475814.81595349.5423256 1.30651163.5423256h4.93023257c.4905581 0 .9613953-.1947442 1.3065116-.5423256.3475814-.3451163.5423256-.8159535.5423256-1.3065116v-4.93023257c0-.49055814-.1947442-.96139535-.5423256-1.30651163-.3451163-.3475814-.8159535-.54232558-1.3065116-.54232558z" fill="url(#a)" fill-rule="evenodd" transform="translate(9 9)"/></svg>