<svg xmlns="http://www.w3.org/2000/svg" xmlns:xlink="http://www.w3.org/1999/xlink" width="36" height="36"><defs><path id="a" d="M0 0h36v36H0z"/></defs><g fill="none" fill-rule="evenodd"><mask id="b" fill="#fff"><use xlink:href="#a"/></mask><g fill-rule="nonzero" mask="url(#b)"><path fill="#1E293B" d="M14.667 17.542c3.682 0 6.666-3.032 6.666-6.771C21.333 7.03 18.35 4 14.667 4 10.985 4 8 7.031 8 10.77c0 3.74 2.985 6.772 6.667 6.772Zm-2.381 2.538C7.156 20.08 3 24.303 3 29.513a1.56 1.56 0 0 0 1.547 1.571h18.9A3.428 3.428 0 0 1 23 29.391V22.62c0-.111.005-.222.016-.333a9.176 9.176 0 0 0-5.97-2.206h-4.76Z"/><path fill="#6366F1" d="M27.167 14.156c2.302 0 4.166 1.894 4.166 4.232v2.54c.922 0 1.667.756 1.667 1.692v6.77c0 .937-.745 1.693-1.667 1.693H23a1.678 1.678 0 0 1-1.667-1.692V22.62c0-.936.745-1.693 1.667-1.693v-2.539c0-2.338 1.865-4.232 4.167-4.232Zm0 2.54c-.922 0-1.667.756-1.667 1.692v2.54h3.333v-2.54c0-.936-.744-1.693-1.666-1.693Z"/></g></g></svg>