<svg height="70" viewBox="0 0 70 70" width="70" xmlns="http://www.w3.org/2000/svg" xmlns:xlink="http://www.w3.org/1999/xlink"><linearGradient id="a" x1="16.178349%" x2="83.821651%" y1="0%" y2="100%"><stop offset="0" stop-color="#a4aebe"/><stop offset="1" stop-color="#2d53f5"/></linearGradient><path d="m23.6512615.28107436c.6301175-.37476581 1.4149226-.37476581 2.0450401 0l22.6736829 13.48887374c.6060941.3605861.9773443 1.0136724.9773443 1.7189071v7.7000428c0 16.2642267-9.4055906 31.0448589-23.9514961 36.6761898-.4646487.1800001-.9800395.1797657-1.4442194 0-14.58129623-5.6453934-23.9516133-20.458135-23.9516133-36.6761898v-7.7000428c0-.7051175.37148456-1.358321.97746142-1.7189071zm1.0225787 4.04613478-20.67364294 12.29906846v6.5626204c0 14.9144604 8.59816824 27.6310682 20.67352574 32.6560707 12.0683262-5.0219556 20.6737601-17.732704 20.6737601-32.6560707v-6.5626204zm7.0524643 18.35028236c.7810551-.7809378 2.047501-.7809378 2.8284389 0 .7810551.7810551.7810551 2.0473838 0 2.8283217l-12.5348498 12.5352015c-.7810551.781055-2.0473839.781055-2.8284389 0l-4.3992209-4.3991038c-.7809379-.781055-.7809379-2.0475009 0-2.8284388.7810551-.7809379 2.047501-.7809379 2.8284389 0l2.9848842 2.9847671z" fill="url(#a)" transform="translate(10 5)"/></svg>