<svg height="54" viewBox="0 0 54 54" width="54" xmlns="http://www.w3.org/2000/svg"><g fill="none" fill-rule="evenodd"><rect fill="#f1f5f9" height="54" rx="5" width="54"/><g fill-rule="nonzero" transform="translate(13 13)"><path d="m21.4071405 16.8435347 2.7976214.0002946.0012521 11.8898911-2.7976214-.0002946z" fill="#4338ca" transform="matrix(.70709444 -.70711912 .70711912 .70709444 -9.434075 22.801891)"/><path d="m11.1916641 0c-6.18098541 0-11.1916641 5.00962351-11.1916641 11.1893073 0 6.1796838 5.01067869 11.1893073 11.1916641 11.1893073 6.1809854 0 11.1916641-5.0096235 11.1916641-11.1893073 0-6.17968379-5.0106787-11.1893073-11.1916641-11.1893073z" fill="#4338ca"/><path d="m22.5360597 19.6683527 2.7976214.0002946.0009059 8.6026859-2.7976214-.0002946z" fill="#1e293b" transform="matrix(.70709444 -.70711912 .70711912 .70709444 -9.938721 23.945996)"/><path d="m11.1916641 2.09799512c-5.02205065 0-9.09322708 4.0703191-9.09322708 9.09131218 0 5.0209931 4.07117643 9.0913122 9.09322708 9.0913122 5.0220506 0 9.0932271-4.0703191 9.0932271-9.0913122 0-5.02099308-4.0711765-9.09131218-9.0932271-9.09131218z" fill="#6366f1"/><path d="m16.0180692 7.13318339c-1.1891143-1.39866341-2.9378118-2.23786145-4.8264051-2.23786145-1.88859333 0-3.63729084.83919804-4.82640515 2.23786145-.2797916.27973269-.2098437.76926488.0699479.97906439.2797916.27973268.76942691.20979951.97927061-.06993317.97927061-1.11893073 2.30828072-1.74832926 3.77718664-1.74832926 1.4689059 0 2.797916.62939853 3.7771866 1.74832926.1398958.13986634.3497395.27973268.5595832.27973268.1398958 0 .3497395-.06993317.4196874-.13986634.2797916-.27973268.2797916-.76926487.0699479-1.04899756z" fill="#a5b4fc"/></g></g></svg>