<svg xmlns="http://www.w3.org/2000/svg" width="70" height="70"><linearGradient id="a" x1="0%" x2="100%" y1="0%" y2="100%"><stop offset="0" stop-color="#a4aebe"/><stop offset="1" stop-color="#2d53f5"/></linearGradient><path fill="url(#a)" d="M22.9 0c12.627 0 22.9 10.273 22.9 22.9a22.796 22.796 0 0 1-5.29 14.622l10.87 10.87a2.113 2.113 0 1 1-2.988 2.989l-10.87-10.87A22.796 22.796 0 0 1 22.9 45.799C10.273 45.8 0 35.527 0 22.9 0 10.274 10.273 0 22.9 0zm0 4.228c-10.296 0-18.672 8.376-18.672 18.672S12.604 41.572 22.9 41.572c10.295 0 18.672-8.377 18.672-18.672S33.195 4.228 22.9 4.228z" transform="translate(9 9)"/></svg>