<svg xmlns="http://www.w3.org/2000/svg" width="70" height="70"><linearGradient id="a" x1="16.178%" x2="83.822%" y1="0%" y2="100%"><stop offset="0" stop-color="#a4aebe"/><stop offset="1" stop-color="#2d53f5"/></linearGradient><path fill="url(#a)" d="M23.651.281a2 2 0 0 1 2.045 0L48.37 13.77a2 2 0 0 1 .977 1.719v7.7c0 16.264-9.405 31.045-23.951 36.676a2 2 0 0 1-1.444 0C9.37 54.22 0 39.407 0 23.19v-7.7a2 2 0 0 1 .977-1.72zm1.023 4.046L4 16.627v6.562c0 14.914 8.598 27.631 20.674 32.656 12.068-5.022 20.673-17.733 20.673-32.656v-6.563zm7.052 18.35a2 2 0 0 1 2.829 2.829L22.02 38.04a2 2 0 0 1-2.829 0l-4.399-4.4a2 2 0 0 1 2.829-2.828l2.985 2.985z" transform="translate(10 5)"/></svg>