<?xml version="1.0" encoding="UTF-8"?>
<svg width="76px" height="76px" viewBox="0 0 76 76" version="1.1" xmlns="http://www.w3.org/2000/svg" xmlns:xlink="http://www.w3.org/1999/xlink">
    <title>value-auth-provider-commit-dark</title>
    <defs>
        <linearGradient x1="-3.88578059e-14%" y1="100%" x2="100%" y2="2.77555756e-15%" id="linearGradient-1">
            <stop stop-color="#0F2B45" offset="0%"></stop>
            <stop stop-color="#1C4D6E" offset="100%"></stop>
        </linearGradient>
    </defs>
    <g id="value-auth-provider-commit-dark" stroke="none" stroke-width="1" fill="none" fill-rule="evenodd">
        <rect id="Rectangle" fill="url(#linearGradient-1)" x="0" y="0" width="76" height="76" rx="12"></rect>
        <g id="Group" transform="translate(19, 19)">
            <path d="M28.8539171,17.9093278 C29.9529225,17.9093278 30.8438424,18.8002477 30.8438424,19.8992531 L30.8438424,37.808581 C30.8438424,38.9075864 29.9529225,39.7985063 28.8539171,39.7985063 C27.7549117,39.7985063 26.8639917,38.9075864 26.8639917,37.808581 L26.8639917,19.8992531 C26.8639917,18.8002477 27.7549117,17.9093278 28.8539171,17.9093278 Z" id="Rectangle" fill="#7DD3FC" transform="translate(28.8539, 28.8539) scale(-1, 1) rotate(45) translate(-28.8539, -28.8539)"></path>
            <path d="M16.9143652,0 C26.2559111,0 33.8287303,7.57281923 33.8287303,16.9143652 C33.8287303,26.2559111 26.2559111,33.8287303 16.9143652,33.8287303 C7.57281923,33.8287303 0,26.2559111 0,16.9143652 C0,7.57281923 7.57281923,0 16.9143652,0 Z M16.9546639,8 C15.965559,8 15.0292969,8.98294103 15.0292969,9.9720459 L15.0292969,14.9901733 L10.0094604,14.9901733 C9.02035559,14.9901733 8,15.965559 8,16.9546639 C8,17.9437688 9.02035559,19 10.0094604,19 L15.0292969,19 L15.0292969,24.0415649 C15.0292969,25.0306698 15.965559,25.9093278 16.9546639,25.9093278 C17.9437688,25.9093278 19.0176597,25.0306698 19.0176597,24.0415649 L19.0176597,19 L24.0025635,19 C24.9916683,19 25.9093278,17.9437688 25.9093278,16.9546639 C25.9093278,15.965559 24.9916683,14.9901733 24.0025635,14.9901733 L19.0176597,14.9901733 L19.0176597,9.9720459 C19.0176597,8.98294103 17.9437688,8 16.9546639,8 Z" id="Combined-Shape" fill="#0EA5E9"></path>
        </g>
    </g>
</svg>