<svg height="70" viewBox="0 0 70 70" width="70" xmlns="http://www.w3.org/2000/svg" xmlns:xlink="http://www.w3.org/1999/xlink"><linearGradient id="a" x1="0%" x2="100%" y1="0%" y2="100%"><stop offset="0" stop-color="#a4aebe"/><stop offset="1" stop-color="#2d53f5"/></linearGradient><path d="m22.8996919 0c12.6272595 0 22.899692 10.2731484 22.899692 22.8997031 0 5.5541399-1.9874138 10.6526898-5.2884641 14.6218721l10.869727 10.8701123c.8258043.8250938.8258043 2.1638906 0 2.9889844-.4129529.4128515-.9540777.6193281-1.4944915.6193281-.5411247 0-1.0816401-.2064766-1.4944914-.6193281l-10.870107-10.8697323c-3.9691803 3.3010519-9.0677277 5.2884667-14.621865 5.2884667-12.6265485 0-22.8996919-10.2724375-22.8996919-22.8997032 0-12.6265547 10.2731434-22.8997031 22.8996919-22.8997031zm0 4.22764062c-10.2956902 0-18.67205334 8.37646878-18.67205334 18.67216408s8.37636314 18.6720625 18.67205334 18.6720625c10.2956903 0 18.6720534-8.3764688 18.6720534-18.6721641s-8.3763631-18.67206248-18.6720534-18.67206248z" fill="url(#a)" transform="translate(9 9)"/></svg>