<svg xmlns="http://www.w3.org/2000/svg" xmlns:xlink="http://www.w3.org/1999/xlink" width="66" height="66"><defs><linearGradient id="c" x1="14.816%" x2="88.322%" y1="6.587%" y2="85.249%"><stop offset="0%" stop-color="#6366F1"/><stop offset="100%"/></linearGradient><filter id="b" width="116.7%" height="116.7%" x="-8.3%" y="-6.7%" filterUnits="objectBoundingBox"><feMorphology in="SourceAlpha" operator="dilate" radius=".5" result="shadowSpreadOuter1"/><feOffset dy="1" in="shadowSpreadOuter1" result="shadowOffsetOuter1"/><feGaussianBlur in="shadowOffsetOuter1" result="shadowBlurOuter1" stdDeviation="1"/><feColorMatrix in="shadowBlurOuter1" values="0 0 0 0 0 0 0 0 0 0 0 0 0 0 0 0 0 0 0.11324369 0"/></filter><circle id="a" cx="30" cy="30" r="30"/></defs><g fill="none" fill-rule="evenodd"><g transform="translate(3 2)"><use xlink:href="#a" fill="#000" filter="url(#b)"/><use xlink:href="#a" fill="#F1F5F9"/></g><path fill="url(#c)" fill-rule="nonzero" d="M40.092 10.662C33.662-.718 17.934-3.495 7.98 4.797c-.508.491-1.338.875-1.35 1.668a1.095 1.095 0 0 0 1.09 1.098 1.09 1.09 0 0 0 .743-.296 19.281 19.281 0 0 1 8.149-4.46C14.72 5.161 13.24 8.84 12.419 13.32c-3.993-.923-6.598-2.244-7.876-3.122-.42-.259-1.034-.205-1.362.188-8.853 13.902 1.9 32.926 18.365 32.67 16.479.177 26.949-18.456 18.546-32.394Zm-2.465.108c-1.418.812-3.787 1.813-6.955 2.549-.821-4.487-2.306-8.17-4.202-10.524 4.478 1.107 8.708 4.183 11.157 7.975ZM21.546 2.166c2.724 0 5.682 4.5 6.98 11.582-4.02.76-9.941.76-13.963 0 1.3-7.084 4.258-11.582 6.983-11.582Zm-7.31 13.752c4.232.789 10.387.789 14.619 0 .462 3.69.507 7.91-.07 11.686a40.53 40.53 0 0 1-14.49.002c-.515-3.556-.538-8.095-.058-11.688Zm-9.854-3.242c1.641.94 4.255 2.037 7.7 2.82-.488 3.638-.506 7.962-.048 11.622a39.077 39.077 0 0 1-9.702-3.799 19.254 19.254 0 0 1 2.05-10.643ZM2.778 26.031a41.235 41.235 0 0 0 9.596 3.41c.807 4.58 2.296 8.35 4.213 10.751-6.781-1.661-12.374-7.623-13.809-14.16Zm18.606 14.813c-2.6-.168-5.37-4.365-6.697-10.959a42.1 42.1 0 0 0 13.678.002c-.346 1.657-.766 3.299-1.332 4.9a1.095 1.095 0 1 0 2.042.788c.709-2 1.231-4.056 1.616-6.135a41.286 41.286 0 0 0 9.676-3.451c-1.893 8.704-10.456 15.128-18.983 14.855Zm9.659-13.728c.507-3.78.442-7.927-.035-11.62 3.468-.787 6.092-1.895 7.73-2.837a19.433 19.433 0 0 1 2.055 10.633 39.023 39.023 0 0 1-9.75 3.824Z" transform="translate(11.47 10.47)"/></g></svg>