<svg xmlns="http://www.w3.org/2000/svg" xmlns:xlink="http://www.w3.org/1999/xlink" width="91" height="91"><defs><linearGradient id="c" x1="14.816%" x2="88.322%" y1="6.587%" y2="85.249%"><stop offset="0%" stop-color="#6366F1"/><stop offset="100%"/></linearGradient><filter id="b" width="111.8%" height="111.8%" x="-5.9%" y="-4.7%" filterUnits="objectBoundingBox"><feMorphology in="SourceAlpha" operator="dilate" radius=".5" result="shadowSpreadOuter1"/><feOffset dy="1" in="shadowSpreadOuter1" result="shadowOffsetOuter1"/><feGaussianBlur in="shadowOffsetOuter1" result="shadowBlurOuter1" stdDeviation="1"/><feColorMatrix in="shadowBlurOuter1" values="0 0 0 0 0 0 0 0 0 0 0 0 0 0 0 0 0 0 0.11324369 0"/></filter><circle id="a" cx="42.5" cy="42.5" r="42.5"/></defs><g fill="none" fill-rule="evenodd"><g transform="translate(3 2)"><use xlink:href="#a" fill="#000" filter="url(#b)"/><use xlink:href="#a" fill="#FFF"/></g><path fill="url(#c)" fill-rule="nonzero" d="M56.797 15.105c-9.109-16.123-31.39-20.056-45.49-8.309-.72.696-1.896 1.24-1.914 2.363a1.551 1.551 0 0 0 1.545 1.556c.39-.002.767-.151 1.052-.42 3.284-3.046 7.354-5.222 11.545-6.318-2.68 3.335-4.778 8.546-5.94 14.893-5.659-1.307-9.35-3.18-11.16-4.423-.594-.366-1.464-.29-1.93.267-12.54 19.693 2.693 46.644 26.018 46.282 23.346.25 38.178-26.146 26.274-45.891Zm-3.492.153c-2.009 1.15-5.365 2.567-9.853 3.61C42.29 12.513 40.185 7.295 37.5 3.96c6.344 1.568 12.336 5.925 15.806 11.298ZM30.523 3.068c3.86 0 8.05 6.374 9.89 16.408-5.697 1.078-14.085 1.078-19.781 0 1.84-10.036 6.031-16.408 9.891-16.408ZM20.17 22.551c5.994 1.117 14.714 1.117 20.709 0 .655 5.226.719 11.205-.1 16.555a57.416 57.416 0 0 1-20.527.002c-.729-5.038-.762-11.468-.082-16.557ZM6.21 17.958c2.324 1.33 6.027 2.886 10.908 3.995-.692 5.153-.717 11.28-.068 16.464a55.36 55.36 0 0 1-13.746-5.381A27.283 27.283 0 0 1 6.21 17.958Zm-2.273 18.92a58.417 58.417 0 0 0 13.594 4.83c1.143 6.488 3.252 11.828 5.968 15.231-9.607-2.354-17.53-10.8-19.562-20.061Zm26.358 20.984c-3.682-.238-7.608-6.184-9.487-15.525a59.641 59.641 0 0 0 19.376.002c-.49 2.349-1.085 4.674-1.886 6.944a1.55 1.55 0 1 0 2.893 1.115c1.004-2.835 1.744-5.746 2.29-8.692a58.488 58.488 0 0 0 13.707-4.888c-2.682 12.33-14.813 21.43-26.893 21.044Zm13.683-19.447c.72-5.356.626-11.23-.05-16.462 4.914-1.115 8.632-2.686 10.952-4.02a27.53 27.53 0 0 1 2.912 15.063 55.283 55.283 0 0 1-13.814 5.419Z" transform="translate(15 14)"/></g></svg>