<svg xmlns="http://www.w3.org/2000/svg" width="70" height="70"><linearGradient id="a" x1="0%" x2="100%" y1="7.262%" y2="92.738%"><stop offset="0" stop-color="#a4aebe"/><stop offset="1" stop-color="#2d53f5"/></linearGradient><path fill="url(#a)" d="M37.262 11.06C51.132 11.982 62 24.256 62 39.004v.462c0 5.492-4.38 9.959-9.764 9.959s-9.761-4.467-9.761-9.959v-1.321c0-1.995-.767-3.849-2.158-5.227a6.809 6.809 0 0 0-4.816-2h-.038c-2.296.011-3.842 1.197-4.734 2.19-1.59 1.764-2.377 4.331-2.108 6.86.9 8.427 10.636 15.98 13.315 15.98 1.126 0 2.039.909 2.039 2.028A2.031 2.031 0 0 1 41.936 60c-4.902 0-16.267-9.275-17.367-19.604-.389-3.651.78-7.386 3.122-9.991 2.038-2.265 4.791-3.522 7.75-3.538h.058c2.886 0 5.614 1.127 7.69 3.178 2.169 2.143 3.362 5.022 3.362 8.102v1.322c0 3.256 2.549 5.905 5.685 5.905 3.136 0 5.688-2.649 5.688-5.905v-.462c0-12.621-9.194-23.12-20.93-23.899-6.118-.413-11.99 1.69-16.52 5.9-4.702 4.373-7.398 10.62-7.398 17.14 0 5.361 1.826 10.585 5.142 14.71a2.02 2.02 0 0 1-.32 2.848 2.04 2.04 0 0 1-2.865-.32C11.144 50.547 9 44.424 9 38.146c0-7.638 3.169-14.964 8.688-20.099 5.362-4.989 12.316-7.472 19.574-6.986zM35.5 18.932c10.353 0 18.775 8.619 18.775 19.213 0 1.119-.913 2.027-2.038 2.027s-2.038-.908-2.038-2.027c0-8.36-6.593-15.159-14.7-15.159S20.8 29.786 20.8 38.145c0 8.559 9.611 18.304 9.71 18.401a2.017 2.017 0 0 1-.014 2.868A2.034 2.034 0 0 1 29.06 60a2.04 2.04 0 0 1-1.449-.6c-.445-.446-10.889-11.048-10.889-21.255 0-10.594 8.422-19.213 18.776-19.213zm-.16 15.864c1.124 0 2.037.908 2.037 2.027 0 8.021 6.78 15.159 12.123 15.159 1.125 0 2.039.908 2.039 2.027s-.914 2.026-2.039 2.026c-7.293 0-16.199-8.864-16.199-19.212 0-1.119.913-2.027 2.038-2.027z"/></svg>