<svg height="70" viewBox="0 0 70 70" width="70" xmlns="http://www.w3.org/2000/svg" xmlns:xlink="http://www.w3.org/1999/xlink"><linearGradient id="a" x1="0%" x2="100%" y1="7.262371%" y2="92.737629%"><stop offset="0" stop-color="#a4aebe"/><stop offset="1" stop-color="#2d53f5"/></linearGradient><path d="m37.2623186 11.0600133c13.8702764.9215603 24.7376814 13.1964192 24.7376814 27.9440865v.4621314c0 5.4915265-4.3806594 9.9587968-9.7640876 9.9587968s-9.76137-4.4672703-9.76137-9.9587968v-1.3215337c0-1.9944619-.7663437-3.8483925-2.1577193-5.2266792-1.3044148-1.2918059-3.0137415-1.9998669-4.8154643-1.9998669h-.0380455c-2.2963134.0108101-3.8425883 1.1972176-4.7339383 2.1890435-1.5897555 1.7647474-2.3778393 4.3321442-2.1088038 6.8617056.8995026 8.4264663 10.6364149 15.9800177 13.3159001 15.9800177 1.1250577 0 2.038148.9080477 2.038148 2.0268922 0 1.1188444-.9130903 2.0241896-2.038148 2.0241896-4.9024253 0-16.2671384-9.2750585-17.3677383-19.6041009-.3886069-3.6511084.7799313-7.385995 3.1224427-9.9912271 2.038148-2.2647142 4.7910065-3.5213873 7.7503974-3.5376024h.0570681c2.8860176 0 5.6144183 1.126952 7.6906117 3.1781669 2.1685895 2.1431006 3.3615854 5.0212875 3.3615854 8.1021635v1.3215337c0 3.2565401 2.5490438 5.9050125 5.6850741 5.9050125 3.1360304 0 5.6877916-2.6484724 5.6877916-5.9050125v-.4621314c0-12.6207818-9.1934061-23.1200832-20.9304209-23.8984098-6.1171615-.4134859-11.9897452 1.6890768-16.5198688 5.8996075-4.701328 4.372682-7.3971183 10.6209149-7.3971183 17.1394 0 5.3618054 1.8261805 10.5857821 5.1415679 14.709832.7011229.8756175.5598113 2.1485057-.3206686 2.8484592-.8777624.6999534-2.1604369.5594222-2.8642773-.3188977-3.8887863-4.8402185-6.032918-10.9641353-6.032918-17.242096 0-7.6373296 3.1686407-14.9638691 8.6879454-20.0986626 5.361688-4.9888572 12.3158489-7.4724757 19.5743732-6.9860216zm-1.7636774 7.8724491c10.3537918 0 18.7754192 8.6183455 18.7754192 19.2122351 0 1.1188445-.9130903 2.0268922-2.038148 2.0268922s-2.038148-.9080477-2.038148-2.0268922c0-8.3589032-6.5927293-15.1584508-14.6991232-15.1584508s-14.6991232 6.7995476-14.6991232 15.1584508c0 8.55889 9.6119059 18.3041874 9.709737 18.4014783.7935189.7945417.7880839 2.0782401-.0135877 2.8673767-.3967594.3918659-.9158078.5864475-1.4348561.5864475-.5244835 0-1.0489669-.1999867-1.4484439-.5999601-.445675-.4459163-10.8891452-11.0479135-10.8891452-21.2553424 0-10.5938896 8.4216274-19.2122351 18.7754191-19.2122351zm-.1603343 15.8638093c1.1250577 0 2.038148.9080477 2.038148 2.0268921 0 8.0210879 6.7802389 15.1584508 12.1229042 15.1584508 1.1250577 0 2.038148.9080477 2.038148 2.0268922s-.9130903 2.0268921-2.038148 2.0268921c-7.2938523 0-16.1992002-8.864275-16.1992002-19.2122351 0-1.1188444.9130903-2.0268921 2.038148-2.0268921z" fill="url(#a)"/></svg>