<?xml version="1.0" encoding="UTF-8"?>
<svg width="54px" height="54px" viewBox="0 0 54 54" version="1.1" xmlns="http://www.w3.org/2000/svg" xmlns:xlink="http://www.w3.org/1999/xlink">
    <title>website-application</title>
    <g id="website-application" stroke="none" stroke-width="1" fill="none" fill-rule="evenodd">
        <rect id="Rectangle" fill="#F1F5F9" x="0" y="0" width="54" height="54" rx="5"></rect>
        <g id="icons8-web-50" transform="translate(8, 8)" fill-rule="nonzero">
            <path d="M37.5,13.5416667 L0,13.5416667 L0,3.125 C0,1.39895833 1.39895833,0 3.125,0 L34.375,0 C36.1010417,0 37.5,1.39895833 37.5,3.125 L37.5,13.5416667 Z" id="Path" fill="#475569"></path>
            <path d="M0,10.4166667 L37.5,10.4166667 L37.5,34.375 C37.5,36.1010417 36.1010417,37.5 34.375,37.5 L3.125,37.5 C1.39895833,37.5 0,36.1010417 0,34.375 L0,10.4166667 Z" id="Path" fill="#CBD5E1"></path>
            <path d="M5.20833333,3.125 C4.0577401,3.125 3.125,4.0577401 3.125,5.20833333 C3.125,6.35892656 4.0577401,7.29166667 5.20833333,7.29166667 C6.35892656,7.29166667 7.29166667,6.35892656 7.29166667,5.20833333 C7.29166667,4.0577401 6.35892656,3.125 5.20833333,3.125 Z" id="Path" fill="#FFFFFF"></path>
            <path d="M11.4583333,3.125 C10.3077401,3.125 9.375,4.0577401 9.375,5.20833333 C9.375,6.35892656 10.3077401,7.29166667 11.4583333,7.29166667 C12.6089266,7.29166667 13.5416667,6.35892656 13.5416667,5.20833333 C13.5416667,4.0577401 12.6089266,3.125 11.4583333,3.125 Z" id="Path" fill="#FFEB3B"></path>
            <path d="M34.375,6.25 C34.375,6.82604167 33.909375,7.29166667 33.3333333,7.29166667 L17.7083333,7.29166667 C17.1322917,7.29166667 16.6666667,6.82604167 16.6666667,6.25 L16.6666667,4.16666667 C16.6666667,3.590625 17.1322917,3.125 17.7083333,3.125 L33.3333333,3.125 C33.909375,3.125 34.375,3.590625 34.375,4.16666667 L34.375,6.25 Z" id="Path" fill="#FFFFFF"></path>
            <path d="M3.125,13.5416667 L20.8333333,13.5416667 L20.8333333,25 L3.125,25 L3.125,13.5416667 Z M3.125,28.125 L20.8333333,28.125 L20.8333333,34.375 L3.125,34.375 L3.125,28.125 Z M23.9583333,13.5416667 L34.375,13.5416667 L34.375,34.375 L23.9583333,34.375 L23.9583333,13.5416667 Z" id="Shape" fill="#4338CA"></path>
        </g>
    </g>
</svg>