<svg xmlns="http://www.w3.org/2000/svg" width="54" height="54"><g fill="none" fill-rule="evenodd"><rect width="54" height="54" fill="#F1F5F9" rx="5"/><g fill-rule="nonzero"><path fill="#475569" d="M45.5 21.542H8V11.125A3.125 3.125 0 0 1 11.125 8h31.25a3.125 3.125 0 0 1 3.125 3.125v10.417Z"/><path fill="#CBD5E1" d="M8 18.417h37.5v23.958a3.125 3.125 0 0 1-3.125 3.125h-31.25A3.125 3.125 0 0 1 8 42.375V18.417Z"/><path fill="#FFF" d="M13.208 11.125a2.083 2.083 0 1 0 0 4.167 2.083 2.083 0 0 0 0-4.167Z"/><path fill="#FFEB3B" d="M19.458 11.125a2.083 2.083 0 1 0 0 4.167 2.083 2.083 0 0 0 0-4.167Z"/><path fill="#FFF" d="M42.375 14.25a1.04 1.04 0 0 1-1.042 1.042H25.708a1.04 1.04 0 0 1-1.041-1.042v-2.083a1.04 1.04 0 0 1 1.041-1.042h15.625a1.04 1.04 0 0 1 1.042 1.042v2.083Z"/><path fill="#4338CA" d="M11.125 21.542h17.708V33H11.125V21.542Zm0 14.583h17.708v6.25H11.125v-6.25Zm20.833-14.583h10.417v20.833H31.958V21.542Z"/></g></g></svg>