<svg xmlns="http://www.w3.org/2000/svg" width="70" height="70"><defs><linearGradient id="a" x1="0%" x2="100%" y1="3.076%" y2="96.924%"><stop offset="0%" stop-color="#A4AEBE"/><stop offset="100%" stop-color="#2D53F5"/></linearGradient></defs><path fill="url(#a)" stroke="url(#a)" stroke-width=".5" d="M28.34 0c3.32 0 6.02 2.687 6.02 5.99 0 2.787-1.926 5.137-4.523 5.8v11.045c4.82.721 8.526 4.868 8.526 9.861 0 4.992-3.706 9.14-8.526 9.86v11.07a4.328 4.328 0 0 1 2.845 4.054c0 2.382-1.948 4.32-4.342 4.32-2.394 0-4.342-1.938-4.342-4.32a4.328 4.328 0 0 1 2.844-4.055V42.557a10 10 0 0 1-4.448-1.839l-8.418 8.376a1.497 1.497 0 0 1-1.06.437c-.382 0-.766-.146-1.058-.437a1.484 1.484 0 0 1 0-2.107l8.418-8.376a9.886 9.886 0 0 1-1.79-7.734l-7.445-5.759a4.33 4.33 0 0 1-2.177.585c-2.394 0-4.342-1.938-4.342-4.32 0-2.382 1.948-4.32 4.342-4.32 2.394 0 4.342 1.938 4.342 4.32 0 .505-.089.99-.25 1.442l6.587 5.095a10.048 10.048 0 0 1 7.3-5.085V11.79c-2.598-.664-4.523-3.014-4.523-5.802C22.32 2.687 25.02 0 28.34 0ZM6.02 48.914c3.319 0 6.02 2.687 6.019 5.989 0 3.302-2.7 5.99-6.02 5.99C2.7 60.892 0 58.204 0 54.902s2.7-5.99 6.02-5.99Zm22.59 7.453a1.5 1.5 0 0 1-.54 0 1.344 1.344 0 0 0-1.077 1.313c0 .739.604 1.34 1.347 1.34.742 0 1.347-.601 1.347-1.34 0-.646-.463-1.188-1.076-1.313ZM6.02 51.894a3.02 3.02 0 0 0-3.025 3.01 3.02 3.02 0 0 0 3.025 3.008 3.02 3.02 0 0 0 3.024-3.009 3.02 3.02 0 0 0-3.024-3.01Zm22.32-26.191a7.036 7.036 0 0 0-6.745 5.032 6.94 6.94 0 0 0-.283 1.96c0 3.856 3.153 6.993 7.028 6.993 3.875 0 7.028-3.136 7.028-6.992s-3.153-6.993-7.028-6.993Zm-19.476-5.66c-.743 0-1.347.601-1.347 1.34 0 .74.604 1.34 1.347 1.34s1.347-.6 1.347-1.34c0-.739-.604-1.34-1.347-1.34ZM28.34 2.98a3.02 3.02 0 0 0-3.025 3.01 3.02 3.02 0 0 0 3.025 3.008 3.02 3.02 0 0 0 3.024-3.009 3.02 3.02 0 0 0-3.024-3.01Zm29.64 15.244c-3.319 0-6.02 2.686-6.02 5.989 0 .154.009.306.02.457l-10.83 3.674a1.488 1.488 0 0 0 .484 2.9c.16 0 .323-.026.483-.08l10.83-3.673a6.026 6.026 0 0 0 5.034 2.711c3.319 0 6.019-2.686 6.019-5.989 0-3.302-2.7-5.99-6.02-5.99Zm0 8.998a3.02 3.02 0 0 1-3.024-3.009 3.02 3.02 0 0 1 3.024-3.01 3.02 3.02 0 0 1 3.025 3.01 3.02 3.02 0 0 1-3.025 3.01Z" transform="translate(3 4)"/></svg>