<svg xmlns="http://www.w3.org/2000/svg" width="70" height="70"><defs><linearGradient id="a" x1="44.62%" x2="55.38%" y1="0%" y2="100%"><stop offset="0%" stop-color="#A4AEBE"/><stop offset="100%" stop-color="#2D53F5"/></linearGradient></defs><path fill="url(#a)" fill-rule="evenodd" d="M25 3h9.617c1.219 0 5.667 9.971 5.328 13.332-.339 3.36-2.094 4.006-2.094 5.815 0 1.809 7.858 11.028 8.075 12.24.217 1.211-.36 4.603-3.17 5.685-2.811 1.083-2.019 4.46-1.408 5.832.612 1.373-.418 3.134-2.26 3.874 1.302 1.002 1.559 1.908 1.208 2.492-.351.585-1.647 1.625-1.647 1.963 0 .338 1.387 4.535.295 6.879-1.093 2.344-3.544 5.806-7.832 5.806H25.09L25 3Z"/></svg>