<svg xmlns="http://www.w3.org/2000/svg" xmlns:xlink="http://www.w3.org/1999/xlink" width="70" height="70"><linearGradient id="a"><stop offset="0" stop-color="#a4aebe"/><stop offset="1" stop-color="#2d53f5"/></linearGradient><linearGradient xlink:href="#a" id="b" x1="14.543%" x2="85.457%" y1="0%" y2="100%"/><linearGradient xlink:href="#a" id="c" x1="31.474%" x2="68.526%" y1="0%" y2="100%"/><g fill="none"><path stroke="url(#b)" stroke-linejoin="round" stroke-width="3.564" d="M41.394 57c-2.868 0-5.385-1.85-6.263-4.606l-3.194-9.918h-15.98l-2.967 9.828c-.896 2.808-3.432 4.688-6.315 4.688a6.5 6.5 0 0 1-2.043-.33C1.187 55.606-.769 51.827.286 48.24L13.774 4.7c.875-2.768 3.454-4.7 6.27-4.7h7.172c2.832 0 5.41 1.899 6.269 4.618l14.184 43.523c1.135 3.559-.744 7.379-4.184 8.52a6.646 6.646 0 0 1-2.091.339z" transform="translate(11 7)"/><path fill="url(#c)" d="M6.886 17.661H6.87a1.775 1.775 0 0 1-1.753-1.797l.008-.89c0-.05.003-.102.008-.153.245-2.59 1.953-4.178 3.327-5.454.466-.433.906-.841 1.281-1.268.458-.519 1.121-1.582.423-2.865-.804-1.482-2.768-1.901-4.294-1.55-1.594.367-2.182 1.738-2.39 2.521a1.77 1.77 0 0 1-2.168 1.26A1.784 1.784 0 0 1 .06 5.284C.765 2.633 2.595.785 5.08.213c3.342-.769 6.71.591 8.187 3.311 1.231 2.265.894 4.923-.88 6.937-.493.56-1.019 1.05-1.529 1.522-1.269 1.18-2.063 1.969-2.197 3.108l-.007.804a1.773 1.773 0 0 1-1.768 1.766zm0 5.339c-.46 0-.92-.187-1.248-.516a1.777 1.777 0 0 1-.522-1.265c0-.463.186-.926.522-1.255.655-.66 1.84-.66 2.495 0 .336.33.522.792.522 1.255 0 .472-.186.926-.513 1.265A1.8 1.8 0 0 1 6.886 23z" transform="translate(28 19)"/></g></svg>