<svg height="54" viewBox="0 0 54 54" width="54" xmlns="http://www.w3.org/2000/svg"><g fill="none" fill-rule="evenodd"><rect fill="#f1f5f9" height="54" rx="5" width="54"/><g transform="translate(14 14)"><path d="m5.35294118 26h-5.35294118v-5.3529412h1.52941176v3.8235294h3.82352942zm20.64705882 0h-5.3529412v-1.5294118h3.8235294v-3.8235294h1.5294118z" fill="#cbd5e1" fill-rule="nonzero"/><path d="m26 5.35294118h-1.5294118v-3.82352942h-3.8235294v-1.52941176h5.3529412zm-24.47058824 0h-1.52941176v-5.35294118h5.35294118v1.52941176h-3.82352942z" fill="#cbd5e1" fill-rule="nonzero"/><path d="m0 0h3.85818477c.48904308 0 2.2735087 4.05591539 2.13750739 5.42307331-.13600132 1.36675115-.84007892 1.62952533-.84007892 2.36537439s3.15250244 4.4858725 3.23955933 4.9788792c.08705689.4925999-.14442618 1.8723677-1.2717527 2.3124941-1.12772771.4405332-.80999013 1.8141995-.56486682 2.3722895.2455245.5584968-.16769483 1.2748209-.90667543 1.5758316.52234133.4075847.62544558.7761194.48463006 1.0136737-.14081552.2379612-.66074975.6610032-.66074975.7984918 0 .1374887.55644195 1.8447073.11834922 2.798179-.43849391.9534716-1.42179545 2.3617134-3.14207166 2.3617134h-2.41592895z" fill="#312e81" transform="translate(10.7059)"/></g></g></svg>