<?xml version="1.0" encoding="UTF-8"?>
<svg width="76px" height="76px" viewBox="0 0 76 76" version="1.1" xmlns="http://www.w3.org/2000/svg" xmlns:xlink="http://www.w3.org/1999/xlink">
    <title>what-is-oidc-dark</title>
    <defs>
        <linearGradient x1="-3.88578059e-14%" y1="100%" x2="100%" y2="2.77555756e-15%" id="linearGradient-1">
            <stop stop-color="#0F2B45" offset="0%"></stop>
            <stop stop-color="#1C4D6E" offset="100%"></stop>
        </linearGradient>
        <polygon id="path-2" points="0 0 15 0 15 9 0 9"></polygon>
    </defs>
    <g id="what-is-oidc-dark" stroke="none" stroke-width="1" fill="none" fill-rule="evenodd">
        <rect id="Rectangle" fill="url(#linearGradient-1)" x="0" y="0" width="76" height="76" rx="12"></rect>
        <g id="Group" transform="translate(19, 19)">
            <g id="Group-6" transform="translate(0, 11)">
                <path d="M17.3081719,25.3802155 C17.2148181,25.4142999 17.0285733,25.0345132 16.9668463,25.1538086 L16.8180542,25.1538086 C16.8093295,24.9887684 16.7351799,25.3255011 16.617397,25.3142891 C14.6499862,25.1301886 12.7281617,24.7003217 10.8623931,24.0529426 C8.32024533,23.1710092 5.62806005,21.495587 3.58823454,19.6409031 C1.97308186,18.1723594 0.774531691,16.4580493 0.211573005,14.3008665 C0.128252502,13.9819981 0.149627919,13.6398088 0,13.3370856 L0,11.5833094 C0.158352579,11.1198066 0.181691044,10.6262557 0.322376187,10.1544561 C0.723710547,8.80677741 1.38852964,7.61965413 2.28258917,6.56214122 C4.31063639,4.16367681 6.9057865,2.6637396 9.7663844,1.58694209 C11.7939954,0.823407003 13.8804978,0.323128947 16.028291,0.0811746556 C16.3382345,0.0461933123 16.6459969,0.00829685706 16.9574673,0 C16.960739,1.22815908 16.9637927,2.45631817 16.9668463,3.68470149 C15.8066846,3.70196792 14.706505,4.03339373 13.6069797,4.36526801 C11.1946112,5.09359752 9.03394919,6.2647998 7.33831152,8.21635512 C6.45210418,9.23619582 5.85599179,10.4221979 5.72228637,11.8010459 C5.52074673,13.8790722 6.30487555,15.5994367 7.68162689,17.0493685 C9.02020785,18.4591615 10.9583644,19.9018232 12.7480103,20.5904624 C14.213535,21.1542002 15.7200657,21.5250921 17.270874,21.717041 C17.2833067,22.9380244 17.2957393,24.1592321 17.3081719,25.3802155 Z" id="Fill-1" fill="#0EA5E9"></path>
                <g id="Group-5" transform="translate(23, 0)">
                    <mask id="mask-3" fill="white">
                        <use xlink:href="#path-2"></use>
                    </mask>
                    <g id="Clip-4"></g>
                    <path d="M0.00176372287,0 C2.35942026,0.151870115 4.6388116,0.716788249 6.8688187,1.55183205 C8.31308726,2.09280887 9.68989343,2.79266893 11.0010009,3.64512459 C11.1928058,3.76990959 11.3083296,3.7716024 11.4955047,3.6429481 C12.5519747,2.91697026 13.5575663,2.25995969 14.6124878,1.53044128 C14.885498,1.34164429 14.9993607,1.46607971 14.9993607,1.69886554 C14.9993607,3.99913262 14.9940695,6.29970779 15.0001531,8.59976617 C15.0006834,8.86432971 14.9550471,9.00072262 14.6719696,9 C11.0655973,8.99129119 7.69958175,9 4.10517883,9 C3.91897583,9 3.92475891,8.78553772 4.06776428,8.71395874 C4.62928955,8.32533569 4.78960991,8.1801887 5.31431746,7.82155274 C5.83704083,7.46412594 6.35733907,7.10162069 6.88976291,6.76184758 C7.25595587,6.52799662 7.04673425,6.3976495 6.83376471,6.27044619 C5.72217837,5.60661901 4.56760129,5.05040681 3.35217577,4.65791446 C2.25425829,4.30338964 1.13451473,4.05406147 0,3.88671415 C0.000661396075,2.59122338 0.00132279215,1.29549077 0.00176372287,0 Z" id="Fill-3" fill="#0EA5E9" mask="url(#mask-3)"></path>
                </g>
            </g>
            <path d="M15.9336231,4.45357716 L19.9336231,1.93258106 C20.868085,1.34363735 22.1030493,1.6237352 22.691993,2.55819712 C22.8932182,2.87747605 23,3.24717422 23,3.62457405 L23,31.9074452 C23,32.5981816 22.6435771,33.2400258 22.0572395,33.6051627 L18.0572395,36.0961295 C17.119616,36.6800267 15.8861797,36.393275 15.3022825,35.4556515 C15.1047192,35.1384038 15,34.7721464 15,34.398412 L15,6.14557014 C15,5.45866775 15.3525061,4.81982559 15.9336231,4.45357716 Z" id="Rectangle" fill="#7DD3FC"></path>
        </g>
    </g>
</svg>