<?xml version="1.0" encoding="UTF-8"?>
<svg width="76px" height="76px" viewBox="0 0 76 76" version="1.1" xmlns="http://www.w3.org/2000/svg" xmlns:xlink="http://www.w3.org/1999/xlink">
    <title>what-is-scim</title>
    <defs>
        <linearGradient x1="-3.88578059e-14%" y1="100%" x2="100%" y2="2.77555756e-15%" id="linearGradient-1">
            <stop stop-color="#E7E6F1" offset="0%"></stop>
            <stop stop-color="#F0F1FD" offset="100%"></stop>
        </linearGradient>
    </defs>
    <g id="what-is-scim" stroke="none" stroke-width="1" fill="none" fill-rule="evenodd">
        <rect id="Rectangle-Copy-6" fill="url(#linearGradient-1)" x="0" y="0" width="76" height="76" rx="12"></rect>
        <g id="Group" transform="translate(19, 19)" fill-rule="nonzero">
            <path d="M15.9973145,0 L21.1084595,0 L21.1084595,0 C21.4692584,0 21.5303658,0.122304244 21.6972288,0.337699156 C22.6920522,1.62186561 24.5802392,6.21488839 24.4100193,7.92603022 C24.2112482,9.9235896 23.1822117,10.3076442 23.1822117,11.3831159 C23.1822117,12.4585876 27.7897152,17.9393911 27.9169522,18.6599393 C28.0441892,19.379893 27.7058678,21.3964767 26.0582367,22.0397384 C24.4100193,22.6835946 24.874405,24.6912607 25.2326622,25.5069307 C25.5915057,26.3231953 24.9875697,27.3701305 23.9075211,27.8100692 C24.6709431,28.4057699 24.8216339,28.9443976 24.6158266,29.2915923 C24.4100193,29.6393818 23.6501154,30.2576739 23.6501154,30.4586188 C23.6501154,30.6595638 24.4633767,33.1547295 23.8230874,34.548265 C23.1822117,35.9418004 21.7450786,38 19.2308288,38 L15.9973145,38 C15.4450297,38 14.9973145,37.5522847 14.9973145,37 L14.9973145,1 C14.9973145,0.44771525 15.4450297,-1.00876996e-15 15.9973145,0 Z" id="Path" fill="#4338CA"></path>
            <path d="M8,0 C9.1045695,0 10,0.8954305 10,2 C10,3.1045695 9.1045695,4 8,4 L4,4 L4,8 C4,9.0543618 3.18412221,9.91816512 2.14926234,9.99451426 L2,10 C0.8954305,10 0,9.1045695 0,8 L0,2 C0,0.8954305 0.8954305,0 2,0 L8,0 Z" id="Path-10" fill="#6366F1"></path>
            <path d="M36,0 C37.1045695,0 38,0.8954305 38,2 C38,3.1045695 37.1045695,4 36,4 L32,4 L32,8 C32,9.0543618 31.1841222,9.91816512 30.1492623,9.99451426 L30,10 C28.8954305,10 28,9.1045695 28,8 L28,2 C28,0.8954305 28.8954305,0 30,0 L36,0 Z" id="Path-10" fill="#6366F1" transform="translate(33, 5) scale(-1, 1) translate(-33, -5)"></path>
            <path d="M8,28 C9.1045695,28 10,28.8954305 10,30 C10,31.1045695 9.1045695,32 8,32 L4,32 L4,36 C4,37.0543618 3.18412221,37.9181651 2.14926234,37.9945143 L2,38 C0.8954305,38 0,37.1045695 0,36 L0,30 C0,28.8954305 0.8954305,28 2,28 L8,28 Z" id="Path-10" fill="#6366F1" transform="translate(5, 33) scale(1, -1) translate(-5, -33)"></path>
            <path d="M36,28 C37.1045695,28 38,28.8954305 38,30 C38,31.1045695 37.1045695,32 36,32 L32,32 L32,36 C32,37.0543618 31.1841222,37.9181651 30.1492623,37.9945143 L30,38 C28.8954305,38 28,37.1045695 28,36 L28,30 C28,28.8954305 28.8954305,28 30,28 L36,28 Z" id="Path-10" fill="#6366F1" transform="translate(33, 33) scale(-1, -1) translate(-33, -33)"></path>
        </g>
    </g>
</svg>