<svg height="70" viewBox="0 0 70 70" width="70" xmlns="http://www.w3.org/2000/svg" xmlns:xlink="http://www.w3.org/1999/xlink"><linearGradient id="a"><stop offset="0" stop-color="#a4aebe"/><stop offset="1" stop-color="#2d53f5"/></linearGradient><linearGradient id="b" x1="14.542936%" x2="85.457064%" xlink:href="#a" y1="0%" y2="100%"/><linearGradient id="c" x1="31.47448%" x2="68.52552%" xlink:href="#a" y1="0%" y2="100%"/><g fill="none" fill-rule="nonzero" transform="translate(11 7)"><path d="m41.3938067 57c-2.8678003 0-5.3845026-1.8508431-6.2628241-4.6057286l-3.1942316-9.9186206h-15.9792267l-2.9678506 9.8281695c-.8958419 2.8084511-3.43167816 4.6884267-6.31423245 4.6884267-.69205277 0-1.37949494-.1115958-2.04319248-.3310282-3.44550996-1.0541675-5.40156188-4.8336183-4.34596238-8.4201847l13.48742171-43.53945098c.8757857-2.76968635 3.4540396-4.70158312 6.2704317-4.70158312h7.1718061c2.8322986 0 5.4103221 1.89900542 6.2690484 4.6181801l14.1843157 43.5232402c1.1342104 3.5583739-.7439221 7.378234-4.1843604 8.5195639-.6802958.2250704-1.3836445.3390158-2.0911429.3390158z" stroke="url(#b)" stroke-linejoin="round" stroke-width="3.564"/><path d="m6.88639993 17.6611544c-.00530792 0-.01061584 0-.01592376 0-.97665731-.008904-1.76222949-.8129363-1.75338296-1.7968296l.00796188-.8904012c0-.0507529.00265396-.1023962.00796188-.1531491.24504898-2.5901771 1.95331462-4.1777624 3.3271813-5.45370733.46532766-.43273498.90588504-.84142914 1.28097806-1.26793131.45736577-.5191039 1.12085577-1.58224294.42286427-2.86531107-.80414987-1.48162761-2.76808033-1.90100657-4.29410738-1.5492981-1.59414536.3668453-2.18155519 1.73717275-2.39033338 2.52072581-.25301086.95005808-1.2234756 1.51368204-2.16740074 1.2599177-.94392513-.25465474-1.50391071-1.23142486-1.2517845-2.18148295.70506873-2.65072438 2.53453188-4.49830688 5.01863852-5.07083485 3.34310505-.76841624 6.71009578.5912264 8.18835148 3.31140207 1.2305529 2.26518067.8934999 4.92302826-.8802301 6.93711583-.4927519.5591719-1.0191206 1.0488926-1.528681 1.5216956-1.26947755 1.1797816-2.06301161 1.9686771-2.19747892 3.1075002l-.00707723.8040323c-.00707723.9803317-.79795733 1.766556-1.76753742 1.766556zm-.00088465 5.3388456c-.46001975 0-.92003949-.1869843-1.24736124-.5164327-.33616828-.3294484-.52194548-.7924571-.52194548-1.2643697 0-.4630086.1857772-.9260173.52194548-1.2554657.65464349-.6588969 1.84007899-.6588969 2.49472248 0 .33616828.3294484.52194548.7924571.52194548 1.2554657 0 .4719126-.1857772.9260172-.51309895 1.2643697-.33616827.3294484-.78734149.5164327-1.25620777.5164327z" fill="url(#c)" transform="translate(17 12)"/></g></svg>