<?xml version="1.0" encoding="UTF-8"?>
<svg width="76px" height="76px" viewBox="0 0 76 76" version="1.1" xmlns="http://www.w3.org/2000/svg" xmlns:xlink="http://www.w3.org/1999/xlink">
    <title>what-is-ciam</title>
    <defs>
        <linearGradient x1="-3.88578059e-14%" y1="100%" x2="100%" y2="2.77555756e-15%" id="linearGradient-1">
            <stop stop-color="#E7E6F1" offset="0%"></stop>
            <stop stop-color="#F0F1FD" offset="100%"></stop>
        </linearGradient>
        <path d="M23.9879036,20.0008209 L24.0010254,20.0000069 C24.1672988,20.0004491 24.3350295,20.0220638 24.5038009,20.0669095 C24.5118279,20.0690406 24.5198516,20.0711784 24.5278719,20.073323 C24.6321612,20.0965868 24.7383425,20.1259541 24.8471832,20.1589508 C25.2120525,20.2695664 25.7118225,20.4322357 26.1230011,20.601532 C26.2446407,20.6516152 26.3628745,20.7025066 26.4773366,20.753624 C27.0902972,21.0203487 27.6764167,21.3295205 28.231293,21.6766849 C28.2589141,21.6945301 28.2833036,21.7087417 28.3046875,21.7209778 L28.387936,21.7762341 C28.74183,22.0046621 29.0825812,22.2487236 29.4091196,22.5073437 C29.893198,22.8833541 30.3034617,23.2545515 30.6415173,23.6212906 C31.4508029,24.4565732 32.1355683,25.3965736 32.6713412,26.4170539 C32.7444344,26.545792 32.8195597,26.6970092 32.8985832,26.8746579 C33.3413151,27.8146223 33.6597172,28.8160672 33.8370213,29.8621104 C33.8561703,29.9618476 33.8744587,30.0636526 33.8920101,30.1667105 C33.9610065,30.7072629 34,31.2529138 34,31.807278 L34,35.9357593 C34,37.0758384 33.0486364,38 31.875,38 L2.125,38 C0.95136255,38 0,37.0758384 0,35.9357593 L0,31.807278 C0,26.23424 3.9408116,21.5418103 9.49619913,20.0669095 C9.97241187,19.940371 10.440338,19.9987896 10.890625,20.1959245 C12.8360628,21.0476293 14.9070875,21.4860749 17,21.4860749 C17.3150764,21.4860749 17.6296567,21.4761382 17.9433873,21.4563505 C17.9471892,21.4497558 17.9537261,21.4458402 17.9635034,21.4451042 C18.6286161,21.3950375 19.1989169,21.3284057 19.7285898,21.2360174 C20.2375258,21.1419439 20.7430816,21.0215373 21.2429081,20.8751925 C21.8193264,20.6993275 22.4144358,20.4776642 23.109375,20.1959245 C23.4094893,20.0563112 23.6850613,20.0005936 23.9568651,20.0005814 C23.668642,20.0062198 23.3856875,20.0749554 23.109375,20.1959245 C22.498531,20.4633497 21.8753053,20.6900323 21.2429081,20.8751925 C20.7420082,21.0267635 20.2553935,21.1441296 19.7285898,21.2360174 C19.1377476,21.3449474 18.542115,21.4185876 17.9433873,21.4563505 C17.9285059,21.4747941 17.9356574,21.5148204 17.9264519,21.5386431 C17.1647397,23.5098516 17.4695254,25.8245827 18.9224518,27.5593079 L22.5184038,31.8527039 C24.6420146,34.3881943 28.4169198,34.7270881 30.958183,32.6103888 C32.4794925,31.3432416 33.4574349,30.5286821 33.8920101,30.1667105 C33.8705945,30.0686988 33.854493,29.9651881 33.8370213,29.8621104 C33.6448903,28.8451905 33.3773877,27.9570331 33.0346375,27.1968231 C32.9878411,27.0807974 32.9426072,26.973626 32.8985832,26.8746579 C32.8266912,26.7209287 32.7506485,26.5681096 32.6713412,26.4170539 C32.3103084,25.7840865 31.9945549,25.7008098 31.4802856,25.7175903 C30.6605651,25.7443376 30.9950896,26.475658 30.6721802,26.7095947 C30.4074097,27.1143417 30.958183,25.1832886 30.849823,23.8575439 C30.7837348,23.7789995 30.7142996,23.7002484 30.6415173,23.6212906 C30.2576512,23.2256183 29.8461125,22.8534443 29.4091196,22.5073437 C29.0766641,22.2475955 28.7079846,21.9853553 28.3046875,21.7209778 L28.387936,21.7762341 C28.3360036,21.7427132 28.2837881,21.7095291 28.231293,21.6766849 C27.9373312,21.5058221 27.3062332,21.1237994 26.4773366,20.753624 C25.8539577,20.4818316 25.2028781,20.2538114 24.5278719,20.073323 C24.3497204,20.0312372 24.1763572,20.0049803 24.0019121,20.0010854 C23.9940279,19.9999883 23.987033,20.0000072 23.9800407,20.0000634 Z" id="path-2"></path>
        <filter x="-304.4%" y="-558.3%" width="708.8%" height="1250.0%" filterUnits="objectBoundingBox" id="filter-3">
            <feOffset dx="0" dy="3" in="SourceAlpha" result="shadowOffsetOuter1"></feOffset>
            <feGaussianBlur stdDeviation="34" in="shadowOffsetOuter1" result="shadowBlurOuter1"></feGaussianBlur>
            <feColorMatrix values="0 0 0 0 0   0 0 0 0 0   0 0 0 0 0  0 0 0 0.5 0" type="matrix" in="shadowBlurOuter1"></feColorMatrix>
        </filter>
        <path d="M17,0 C12.5817596,0 9,3.58176003 9,8 C9,12.4182404 12.5817596,16 17,16 C21.4182404,16 25,12.4182404 25,8 C25,3.58176003 21.4182404,0 17,0 Z" id="path-4"></path>
        <filter x="-646.9%" y="-628.1%" width="1393.8%" height="1393.8%" filterUnits="objectBoundingBox" id="filter-5">
            <feOffset dx="0" dy="3" in="SourceAlpha" result="shadowOffsetOuter1"></feOffset>
            <feGaussianBlur stdDeviation="34" in="shadowOffsetOuter1" result="shadowBlurOuter1"></feGaussianBlur>
            <feColorMatrix values="0 0 0 0 0   0 0 0 0 0   0 0 0 0 0  0 0 0 0.5 0" type="matrix" in="shadowBlurOuter1"></feColorMatrix>
        </filter>
    </defs>
    <g id="what-is-ciam" stroke="none" stroke-width="1" fill="none" fill-rule="evenodd">
        <rect id="Rectangle-Copy-6" fill="url(#linearGradient-1)" x="0" y="0" width="76" height="76" rx="12"></rect>
        <g id="Group" transform="translate(19, 19)">
            <g id="Combined-Shape">
                <use fill="black" fill-opacity="1" filter="url(#filter-3)" xlink:href="#path-2"></use>
                <use fill="#6366F1" fill-rule="evenodd" xlink:href="#path-2"></use>
            </g>
            <g id="Vector">
                <use fill="black" fill-opacity="1" filter="url(#filter-5)" xlink:href="#path-4"></use>
                <use fill="#6366F1" fill-rule="evenodd" xlink:href="#path-4"></use>
            </g>
            <path d="M34.2422121,19.9783908 C35.0909334,19.2714637 36.3520356,19.3864107 37.0589627,20.235132 C37.7658898,21.0838533 37.6509428,22.3449555 36.8022215,23.0518826 L28.3981736,30.0518826 C27.5510858,30.757449 26.2927841,30.6444844 25.5849138,29.7993209 L21.9889618,25.5059249 C21.2797264,24.6591316 21.3912392,23.3977211 22.2380326,22.6884857 C23.0848259,21.9792504 24.3462364,22.0907631 25.0554718,22.9375565 L27.3702168,25.7011367 L34.2422121,19.9783908 Z" id="Path-14" fill="#4338CA" fill-rule="nonzero"></path>
        </g>
    </g>
</svg>