<?xml version="1.0" encoding="UTF-8"?>
<svg width="54px" height="54px" viewBox="0 0 54 54" version="1.1" xmlns="http://www.w3.org/2000/svg" xmlns:xlink="http://www.w3.org/1999/xlink">
    <title>what-is-ciam</title>
    <g id="what-is-ciam" stroke="none" stroke-width="1" fill="none" fill-rule="evenodd">
        <rect id="Rectangle" fill="#F1F5F9" x="0" y="0" width="54" height="54" rx="5"></rect>
        <g id="icons8-mind-map" transform="translate(12, 12)" fill-rule="nonzero">
            <g id="Group-2" transform="translate(5.7676, 6.4279)">
                <path d="M0.720806878,18.5721191 C0.554992924,18.5721191 0.38773711,18.5156905 0.252202227,18.3999762 C-0.050588471,18.1435477 -0.0859140524,17.6928334 0.174341762,17.3935477 L4.49992316,12.3935477 C4.75873711,12.0928334 5.21436502,12.059262 5.51571385,12.3164048 C5.81850455,12.5728334 5.85383013,13.0235477 5.59357432,13.3228334 L1.26799292,18.3228334 C1.12596967,18.4878334 0.923388273,18.5721191 0.720806878,18.5721191 Z" id="Path" fill="#38BDF8"></path>
                <path d="M9.76776037,4.70140481 C9.73171385,4.70140481 9.69566734,4.69854767 9.65962083,4.69283339 C9.26527199,4.63426196 8.99492316,4.26997624 9.05476037,3.87997624 L9.55508595,0.607833385 C9.61420223,0.2171191 9.97899292,-0.0521666145 10.3755046,0.00854767119 C10.7698534,0.0671190998 11.0402022,0.431404814 10.980365,0.821404814 L10.4800394,4.09354767 C10.4259697,4.44854767 10.1181325,4.70140481 9.76776037,4.70140481 Z" id="Path" fill="#38BDF8"></path>
                <path d="M13.6968301,8.37783339 C13.3688069,8.37783339 13.0717836,8.15426196 12.9946441,7.82426196 C12.9052487,7.43926196 13.1474813,7.05640481 13.5353418,6.96783339 L18.1327139,5.91997624 C18.5248999,5.82997624 18.9077139,6.0721191 18.9971092,6.45569053 C19.0865046,6.84069053 18.844272,7.22354767 18.4564115,7.3121191 L13.8590394,8.35997624 C13.8042487,8.3721191 13.750179,8.37783339 13.6968301,8.37783339 Z" id="Path" fill="#CBD5E1"></path>
                <path d="M15.0154115,17.8578334 C14.7818301,17.8578334 14.5518534,17.7456905 14.4134348,17.5378334 L11.5549464,13.2521191 C11.3350627,12.9228334 11.4266208,12.479262 11.7582487,12.2621191 C12.0905976,12.044262 12.5368534,12.134262 12.757458,12.4635477 L15.6159464,16.749262 C15.8358301,17.0785477 15.744272,17.5221191 15.4126441,17.739262 C15.2900859,17.819262 15.1523883,17.8578334 15.0154115,17.8578334 Z" id="Path" fill="#CBD5E1"></path>
            </g>
            <path d="M14.7790698,20.7142857 C11.7973023,20.7142857 9.37209302,18.3114286 9.37209302,15.3571429 C9.37209302,12.4028571 11.7973023,10 14.7790698,10 C17.7608372,10 20.1860465,12.4028571 20.1860465,15.3571429 C20.1860465,18.3114286 17.7608372,20.7142857 14.7790698,20.7142857 Z" id="Path" fill="#38BDF8"></path>
            <path d="M16.5813953,7.14285714 C14.5937907,7.14285714 12.9767442,5.54071429 12.9767442,3.57142857 C12.9767442,1.60214286 14.5937907,0 16.5813953,0 C18.569,0 20.1860465,1.60214286 20.1860465,3.57142857 C20.1860465,5.54071429 18.569,7.14285714 16.5813953,7.14285714 Z" id="Path" fill="#38BDF8"></path>
            <path d="M27.3953488,15.7142857 C25.4077442,15.7142857 23.7906977,14.1121429 23.7906977,12.1428571 C23.7906977,10.1735714 25.4077442,8.57142857 27.3953488,8.57142857 C29.3829535,8.57142857 31,10.1735714 31,12.1428571 C31,14.1121429 29.3829535,15.7142857 27.3953488,15.7142857 Z" id="Path" fill="#5D50D8"></path>
            <path d="M3.60465116,10 C1.61704651,10 0,8.39785714 0,6.42857143 C0,4.45928571 1.61704651,2.85714286 3.60465116,2.85714286 C5.59225581,2.85714286 7.20930233,4.45928571 7.20930233,6.42857143 C7.20930233,8.39785714 5.59225581,10 3.60465116,10 Z" id="Path" fill="#5D50D8"></path>
            <path d="M4.3255814,30 C2.33797674,30 0.720930233,28.3978571 0.720930233,26.4285714 C0.720930233,24.4592857 2.33797674,22.8571429 4.3255814,22.8571429 C6.31318605,22.8571429 7.93023256,24.4592857 7.93023256,26.4285714 C7.93023256,28.3978571 6.31318605,30 4.3255814,30 Z" id="Path" fill="#38BDF8"></path>
            <path d="M23.0697674,30 C21.0821628,30 19.4651163,28.3978571 19.4651163,26.4285714 C19.4651163,24.4592857 21.0821628,22.8571429 23.0697674,22.8571429 C25.0573721,22.8571429 26.6744186,24.4592857 26.6744186,26.4285714 C26.6744186,28.3978571 25.0573721,30 23.0697674,30 Z" id="Path" fill="#5D50D8"></path>
        </g>
    </g>
</svg>