<?xml version="1.0" encoding="UTF-8"?>
<svg width="76px" height="76px" viewBox="0 0 76 76" version="1.1" xmlns="http://www.w3.org/2000/svg" xmlns:xlink="http://www.w3.org/1999/xlink">
    <title>why-adaptive-mfa-is-a-game-changer-for-ux</title>
    <defs>
        <linearGradient x1="2.77555756e-15%" y1="100%" x2="100%" y2="2.77555756e-15%" id="linearGradient-1">
            <stop stop-color="#DDEDEB" offset="0%"></stop>
            <stop stop-color="#E6F9F7" offset="100%"></stop>
        </linearGradient>
    </defs>
    <g id="why-adaptive-mfa-is-a-game-changer-for-ux" stroke="none" stroke-width="1" fill="none" fill-rule="evenodd">
        <rect id="Rectangle-Copy-8" fill="url(#linearGradient-1)" x="0" y="0" width="76" height="76" rx="12"></rect>
        <path d="M51.9703464,19.00058 C54.2840061,18.9643678 56.3610499,20.6284149 56.8640725,22.7311676 C56.9761537,23.1999684 56.9956886,23.6995984 56.996177,24.1850373 C57.0044793,31.3406111 56.9905607,38.7280183 57.0111312,45.8835922 C57.0162002,47.6247125 56.3554336,48.993924 55.0097261,50.0634064 C54.1213784,50.7695437 53.0828565,51.0129972 51.9864626,51.0178907 C48.6091299,51.0333054 45.2317971,51.0098164 41.8547085,51.0423584 C41.4459416,51.0462732 40.9729539,51.2089833 40.6425706,51.4521921 C37.7272372,53.5992312 35.8721282,54.5326776 32.9558181,56.6784934 C32.6530278,56.9011493 32.1639238,57.0526043 31.8115638,56.9828714 C31.2621459,56.8742349 31.2418785,56.3100101 31.2406575,55.8306882 C31.2357738,54.0367177 31.1865471,53.5309664 31.2148726,51.7374853 C31.2234191,51.2006643 31.0590822,51.0355074 30.5208968,51.0423584 C28.3442253,51.0695175 26.1670653,51.0660921 23.9901496,51.0499434 C21.6242341,51.0325713 19.696632,49.5319683 19.1396444,47.260878 C19.0202375,46.7732371 19.0014352,46.2513414 19.0007027,45.7453498 C18.9924004,38.6918062 19.0614061,31.3763339 19.0115922,24.3232797 C18.9930341,21.6702488 20.629811,19.7370572 22.6206573,19.1828642 C23.0819241,19.0544089 23.5834816,19.0301859 24.0667251,19.0289625 C28.8886606,19.0184414 33.710352,19.0226009 38.5322875,19.0230902 C43.3539788,19.0233349 47.1496318,19.0759404 51.9703464,19.00058 Z M45.9316446,35.2185008 C44.9509369,34.7249012 43.7433295,35.0957993 43.2343778,36.046925 C42.233272,37.9177853 40.2321561,39.1194706 38.0079677,39.1194706 C35.7901063,39.1194706 33.7889904,37.9177853 32.7878846,36.046925 C32.2789329,35.0957993 31.0713254,34.7249012 30.0906177,35.2185008 C29.10991,35.7121005 28.7274762,36.8832818 29.2364278,37.8344075 C30.9197975,40.9802783 34.2831549,43 38.0079677,43 C41.7391075,43 45.1024649,40.9802783 46.7858345,37.8344075 C47.2947862,36.8832818 46.9123523,35.7121005 45.9316446,35.2185008 Z M32.5111312,32 C33.8918431,32 35.0111312,30.8807119 35.0111312,29.5 C35.0111312,28.1192881 33.8918431,27 32.5111312,27 C31.1304193,27 30.0111312,28.1192881 30.0111312,29.5 C30.0111312,30.8807119 31.1304193,32 32.5111312,32 Z M43.5111312,32 C44.8918431,32 46.0111312,30.8807119 46.0111312,29.5 C46.0111312,28.1192881 44.8918431,27 43.5111312,27 C42.1304193,27 41.0111312,28.1192881 41.0111312,29.5 C41.0111312,30.8807119 42.1304193,32 43.5111312,32 Z" id="Combined-Shape" fill="#14B8A6"></path>
    </g>
</svg>