<?xml version="1.0" encoding="UTF-8"?>
<svg width="40px" height="40px" viewBox="0 0 40 40" version="1.1" xmlns="http://www.w3.org/2000/svg" xmlns:xlink="http://www.w3.org/1999/xlink">
    <title>Group 8</title>
    <g id="Page-1" stroke="none" stroke-width="1" fill="none" fill-rule="evenodd">
        <g id="blog-main-copy" transform="translate(-301, -1082)">
            <g id="Group-8" transform="translate(301, 1082)">
                <circle id="Oval-Copy-2" stroke="#CBD5E1" cx="20" cy="20" r="19.5"></circle>
                <g id="icons8-github" transform="translate(10, 10)" fill="#4338CA" fill-rule="nonzero">
                    <path d="M10,0 C4.4775,0 0,4.4775 0,10 C0,14.6858333 3.22666667,18.6066667 7.57666667,19.6916667 C7.53,19.5566667 7.5,19.4 7.5,19.2058333 L7.5,17.4966667 C7.09416667,17.4966667 6.41416667,17.4966667 6.24333333,17.4966667 C5.55916667,17.4966667 4.95083333,17.2025 4.65583333,16.6558333 C4.32833333,16.0483333 4.27166667,15.1191667 3.46,14.5508333 C3.21916667,14.3616667 3.4025,14.1458333 3.68,14.175 C4.1925,14.32 4.6175,14.6716667 5.0175,15.1933333 C5.41583333,15.7158333 5.60333333,15.8341667 6.3475,15.8341667 C6.70833333,15.8341667 7.24833333,15.8133333 7.75666667,15.7333333 C8.03,15.0391667 8.5025,14.4 9.08,14.0983333 C5.75,13.7558333 4.16083333,12.0991667 4.16083333,9.85 C4.16083333,8.88166667 4.57333333,7.945 5.27416667,7.15583333 C5.04416667,6.3725 4.755,4.775 5.3625,4.16666667 C6.86083333,4.16666667 7.76666667,5.13833333 7.98416667,5.40083333 C8.73083333,5.145 9.55083333,5 10.4125,5 C11.2758333,5 12.0991667,5.145 12.8475,5.4025 C13.0625,5.14166667 13.9691667,4.16666667 15.4708333,4.16666667 C16.0808333,4.77583333 15.7883333,6.38 15.5558333,7.16166667 C16.2525,7.94916667 16.6625,8.88333333 16.6625,9.85 C16.6625,12.0975 15.0758333,13.7533333 11.7508333,14.0975 C12.6658333,14.575 13.3333333,15.9166667 13.3333333,16.9275 L13.3333333,19.2058333 C13.3333333,19.2925 13.3141667,19.355 13.3041667,19.4291667 C17.2008333,18.0633333 20,14.3633333 20,10 C20,4.4775 15.5225,0 10,0 Z" id="Path"></path>
                </g>
            </g>
        </g>
    </g>
</svg>