<svg xmlns="http://www.w3.org/2000/svg" width="40" height="40"><g fill="none" fill-rule="evenodd"><circle cx="20" cy="20" r="19.5" stroke="#CBD5E1"/><path fill="#4338CA" fill-rule="nonzero" d="M20 10c-5.523 0-10 4.477-10 10 0 4.686 3.227 8.607 7.577 9.692a1.46 1.46 0 0 1-.077-.486v-1.71h-1.257c-.684 0-1.292-.293-1.587-.84-.328-.608-.384-1.537-1.196-2.105-.24-.19-.058-.405.22-.376.512.145.938.497 1.338 1.018.398.523.585.641 1.33.641.36 0 .9-.02 1.409-.1.273-.695.745-1.334 1.323-1.636-3.33-.342-4.92-1.999-4.92-4.248 0-.968.413-1.905 1.114-2.694-.23-.784-.519-2.381.089-2.99 1.498 0 2.404.972 2.621 1.235A7.494 7.494 0 0 1 20.412 15a7.49 7.49 0 0 1 2.436.402c.215-.26 1.121-1.235 2.623-1.235.61.609.317 2.213.085 2.995.697.787 1.107 1.721 1.107 2.688 0 2.247-1.587 3.903-4.912 4.247.915.478 1.582 1.82 1.582 2.83v2.279c0 .087-.019.149-.029.223C27.201 28.063 30 24.363 30 20c0-5.523-4.477-10-10-10Z"/></g></svg>