<?xml version="1.0" encoding="UTF-8"?>
<svg width="40px" height="40px" viewBox="0 0 40 40" version="1.1" xmlns="http://www.w3.org/2000/svg" xmlns:xlink="http://www.w3.org/1999/xlink">
    <title>Group 7</title>
    <g id="Page-1" stroke="none" stroke-width="1" fill="none" fill-rule="evenodd">
        <g id="blog-main-copy" transform="translate(-301, -1012)">
            <g id="Group-7" transform="translate(301, 1012)">
                <circle id="Oval-Copy" stroke="#CBD5E1" cx="20" cy="20" r="19.5"></circle>
                <g id="icons8-linkedin" transform="translate(10, 10)" fill-rule="nonzero">
                    <path d="M20,17.2222222 C20,18.7566667 18.7566667,20 17.2222222,20 L2.77777778,20 C1.24388889,20 0,18.7566667 0,17.2222222 L0,2.77777778 C0,1.24333333 1.24388889,0 2.77777778,0 L17.2222222,0 C18.7566667,0 20,1.24333333 20,2.77777778 L20,17.2222222 Z" id="Path" fill="#4338CA"></path>
                    <path d="M13.3333333,17.2222222 L13.3333333,11.6116667 C13.3333333,10.6733333 12.8783333,10.1127778 12.1155556,10.1127778 C11.6627778,10.1127778 11.33,10.3677778 11.1272222,10.8705556 C11.1177778,10.9061111 11.1044444,11.0511111 11.11,11.4894444 L11.1111111,17.2222222 L7.22222222,17.2222222 L7.22222222,6.66666667 L11.1111111,6.66666667 L11.1111111,7.25611111 C11.6788889,6.86444444 12.375,6.66666667 13.1877778,6.66666667 C15.7138889,6.66666667 17.2216667,8.385 17.2216667,11.2633333 L17.2222222,17.2222222 L13.3333333,17.2222222 Z M2.77777778,17.2222222 L2.77777778,6.66666667 L4.69833333,6.66666667 C3.58555556,6.66666667 2.77777778,5.84888889 2.77777778,4.72166667 C2.77777778,3.59555556 3.59888889,2.77777778 4.73,2.77777778 C5.84777778,2.77777778 6.64388889,3.57277778 6.66666667,4.71055556 C6.66666667,5.84611111 5.845,6.66666667 4.71388889,6.66666667 L6.66666667,6.66666667 L6.66666667,17.2222222 L2.77777778,17.2222222 Z" id="Shape" fill="#000000" opacity="0.05"></path>
                    <path d="M13.6111111,16.9444444 L13.6111111,11.6116667 C13.6111111,10.5155556 13.0383333,9.835 12.1155556,9.835 C11.3961111,9.835 11.0405556,10.3416667 10.8694444,10.7666667 C10.8238889,10.8772222 10.83,11.3161111 10.8322222,11.5033333 L10.8333333,16.9444444 L7.5,16.9444444 L7.5,6.94444444 L10.8333333,6.94444444 L10.8333333,7.85444444 C11.275,7.39722222 11.9861111,6.94444444 13.1877778,6.94444444 C15.5394444,6.94444444 16.9438889,8.55888889 16.9438889,11.2633333 L16.9444444,16.9444444 L13.6111111,16.9444444 Z M3.05555556,16.9444444 L3.05555556,6.94444444 L6.38888889,6.94444444 L6.38888889,16.9444444 L3.05555556,16.9444444 Z M4.69833333,6.38888889 C3.74666667,6.38888889 3.05555556,5.68777778 3.05555556,4.72166667 C3.05555556,3.75611111 3.76,3.05555556 4.73,3.05555556 C5.68777778,3.05555556 6.36944444,3.73833333 6.38888889,4.71611111 C6.38888889,5.68777778 5.68444444,6.38888889 4.71388889,6.38888889 L4.69833333,6.38888889 Z" id="Shape" fill="#000000" opacity="0.07"></path>
                    <path d="M3.33333333,7.22222222 L6.11111111,7.22222222 L6.11111111,16.6666667 L3.33333333,16.6666667 L3.33333333,7.22222222 Z M4.71388889,6.11111111 L4.69833333,6.11111111 C3.86944444,6.11111111 3.33333333,5.49333333 3.33333333,4.72166667 C3.33333333,3.93333333 3.88611111,3.33333333 4.73,3.33333333 C5.575,3.33333333 6.09555556,3.93333333 6.11111111,4.72166667 C6.11111111,5.49277778 5.575,6.11111111 4.71388889,6.11111111 Z M16.6666667,16.6666667 L13.8888889,16.6666667 L13.8888889,11.6116667 C13.8888889,10.3905556 13.2083333,9.55722222 12.1155556,9.55722222 C11.2816667,9.55722222 10.8305556,10.1194444 10.6116667,10.6627778 C10.5316667,10.8572222 10.5555556,11.395 10.5555556,11.6666667 L10.5555556,16.6666667 L7.77777778,16.6666667 L7.77777778,7.22222222 L10.5555556,7.22222222 L10.5555556,8.67555556 C10.9561111,8.05555556 11.5833333,7.22222222 13.1877778,7.22222222 C15.1755556,7.22222222 16.6661111,8.47222222 16.6661111,11.2633333 L16.6666667,16.6666667 L16.6666667,16.6666667 Z" id="Shape" fill="#FFFFFF"></path>
                </g>
            </g>
        </g>
    </g>
</svg>