<svg xmlns="http://www.w3.org/2000/svg" width="40" height="40"><g fill="none" fill-rule="evenodd"><circle cx="20" cy="20" r="19.5" stroke="#CBD5E1"/><g fill-rule="nonzero"><path fill="#4338CA" d="M30 27.222A2.777 2.777 0 0 1 27.222 30H12.778A2.778 2.778 0 0 1 10 27.222V12.778A2.778 2.778 0 0 1 12.778 10h14.444A2.777 2.777 0 0 1 30 12.778v14.444Z"/><path fill="#000" d="M23.333 27.222v-5.61c0-.939-.455-1.5-1.217-1.5-.453 0-.786.256-.989.759-.01.035-.023.18-.017.618l.001 5.733h-3.889V16.667h3.89v.59c.567-.393 1.263-.59 2.076-.59 2.526 0 4.034 1.718 4.034 4.596v5.96h-3.889Zm-10.555 0V16.667h1.92c-1.112 0-1.92-.818-1.92-1.945 0-1.126.82-1.944 1.952-1.944 1.118 0 1.914.795 1.937 1.933 0 1.135-.822 1.956-1.953 1.956h1.953v10.555h-3.89Z" opacity=".05"/><path fill="#000" d="M23.611 26.944v-5.332c0-1.096-.573-1.777-1.495-1.777-.72 0-1.075.507-1.247.932-.045.11-.039.55-.037.736l.001 5.441H17.5v-10h3.333v.91c.442-.457 1.153-.91 2.355-.91 2.351 0 3.756 1.615 3.756 4.32v5.68h-3.333Zm-10.555 0v-10h3.333v10h-3.333Zm1.642-10.555c-.951 0-1.642-.701-1.642-1.667 0-.966.704-1.666 1.674-1.666.958 0 1.64.682 1.659 1.66 0 .972-.705 1.673-1.675 1.673h-.016Z" opacity=".07"/><path fill="#FFF" d="M13.333 17.222h2.778v9.445h-2.778v-9.445Zm1.38-1.11h-.015c-.829 0-1.365-.619-1.365-1.39 0-.789.553-1.389 1.397-1.389.845 0 1.366.6 1.381 1.389 0 .77-.536 1.39-1.397 1.39Zm11.954 10.555h-2.778v-5.055c0-1.221-.68-2.055-1.773-2.055-.834 0-1.285.562-1.504 1.106-.08.194-.056.732-.056 1.004v5h-2.778v-9.445h2.778v1.454c.4-.62 1.027-1.454 2.632-1.454 1.988 0 3.478 1.25 3.478 4.041v5.404Z"/></g></g></svg>