<?xml version="1.0" encoding="UTF-8"?>
<svg width="40px" height="40px" viewBox="0 0 40 40" version="1.1" xmlns="http://www.w3.org/2000/svg" xmlns:xlink="http://www.w3.org/1999/xlink">
    <title>reddit</title>
    <g id="Page-1" stroke="none" stroke-width="1" fill="none" fill-rule="evenodd">
        <g id="reddit">
            <g id="Group-6-Copy-3" stroke="#CBD5E1">
                <circle id="Oval" cx="20" cy="20" r="19.5"></circle>
            </g>
            <g id="icons8-reddit" transform="translate(9, 10)" fill="#4338CA" fill-rule="nonzero">
                <path d="M12.9541102,0 C11.4147396,0 10.2659542,1.30198389 10.2659542,2.78320314 L10.2659542,5.34671871 C8.24711516,5.45763038 6.40082626,6.01491618 4.92691743,6.88898428 C4.35892749,6.3242678 3.59838587,6.07350048 2.86097976,6.0740625 C2.06146581,6.07467187 1.24412856,6.36151388 0.680347387,7.018125 L0.667444233,7.03296856 L0.654541087,7.04781288 C0.113717584,7.74761328 -0.10042953,8.68508772 0.0437919853,9.61578144 C0.175502819,10.4657404 0.650960176,11.3189984 1.47747536,11.8779686 C1.47206184,11.9723241 1.45740376,12.0647097 1.45740376,12.16 C1.45740376,15.93112 5.73835926,19 11,19 C16.2616408,19 20.5425963,15.93112 20.5425963,12.16 C20.5425963,12.0647097 20.5279382,11.9723241 20.5225246,11.8779686 C21.3490397,11.3189984 21.8244973,10.4657404 21.9562079,9.61578144 C22.1004296,8.68508772 21.8862827,7.74761328 21.345459,7.04781288 L21.3325559,7.03296856 L21.3196529,7.018125 C20.7557985,6.36142344 19.9385999,6.07467187 19.1390206,6.0740625 C18.4015534,6.07350048 17.6409042,6.32406108 17.073083,6.88898428 C15.599174,6.01491618 13.7528849,5.45763038 11.7340459,5.34671871 L11.7340459,2.78320314 C11.7340459,2.0391424 12.1489389,1.52 12.9541102,1.52 C13.336319,1.52 13.8019295,1.71828719 14.5311622,1.983125 C15.1476242,2.20700747 15.9498974,2.43329078 16.9755922,2.50117186 C17.220947,3.25210642 17.9020968,3.8 18.7074817,3.8 C19.7167947,3.8 20.5425963,2.945 20.5425963,1.9 C20.5425963,0.855 19.7167947,0 18.7074817,0 C18.0183689,0 17.4210942,0.403120036 17.1074907,0.988593712 C16.2306868,0.938318344 15.5864933,0.755977928 15.0171806,0.549218712 C14.3537448,0.308276596 13.7441733,0 12.9541102,0 Z M2.86097976,7.59406241 C3.15103064,7.59384096 3.426606,7.6726522 3.65380663,7.80039072 C2.84342645,8.5007292 2.22857128,9.31898396 1.85740142,10.2125 C1.66032031,9.96062612 1.54155991,9.67784152 1.49467949,9.37531288 C1.41557386,8.86482468 1.56312192,8.3341942 1.79718669,8.02007784 C2.01837423,7.7735802 2.42227864,7.59439576 2.86097976,7.59406241 Z M19.137587,7.59406241 C19.5764129,7.59439652 19.9816928,7.7736524 20.2028131,8.02007784 C20.4368783,8.3341942 20.5844259,8.86482468 20.5053207,9.37531288 C20.4584402,9.67784152 20.3396796,9.96062612 20.1425986,10.2125 C19.771429,9.31898396 19.1565739,8.5007292 18.3461931,7.80039072 C18.5728767,7.67280192 18.8476514,7.59384096 19.137587,7.59406241 Z M7.3297707,9.12 C8.14089139,9.12 8.79786244,9.8002 8.79786244,10.64 C8.79786244,11.4798 8.14089139,12.16 7.3297707,12.16 C6.51865002,12.16 5.86167897,11.4798 5.86167897,10.64 C5.86167897,9.8002 6.51865002,9.12 7.3297707,9.12 Z M14.6702294,9.12 C15.4813501,9.12 16.1383211,9.8002 16.1383211,10.64 C16.1383211,11.4798 15.4813501,12.16 14.6702294,12.16 C13.8591087,12.16 13.2021376,11.4798 13.2021376,10.64 C13.2021376,9.8002 13.8591087,9.12 14.6702294,9.12 Z M14.8451386,13.3252343 C14.3760833,14.7441543 12.8762213,15.96 11,15.96 C9.1237788,15.96 7.62391683,14.7447364 7.15486137,13.4276564 C7.99901427,14.1367364 9.40565242,14.6433593 11,14.6433593 C12.5943477,14.6433593 14.0009858,14.1361543 14.8451386,13.3252343 Z" id="Shape"></path>
            </g>
        </g>
    </g>
</svg>