<?xml version="1.0" encoding="UTF-8"?>
<svg width="40px" height="40px" viewBox="0 0 40 40" version="1.1" xmlns="http://www.w3.org/2000/svg" xmlns:xlink="http://www.w3.org/1999/xlink">
    <title>Group 6</title>
    <g id="Page-1" stroke="none" stroke-width="1" fill="none" fill-rule="evenodd">
        <g id="blog-main-copy" transform="translate(-301, -942)">
            <g id="Group-6" transform="translate(301, 942)">
                <circle id="Oval" stroke="#CBD5E1" cx="20" cy="20" r="19.5"></circle>
                <g id="icons8-twitter" transform="translate(10, 12.436)" fill="#4338CA" fill-rule="nonzero">
                    <path d="M20,1.92377216 C19.2638745,2.25068267 18.4731356,2.4706742 17.6431676,2.56990116 C18.4908273,2.06222838 19.1408023,1.25841314 19.4469443,0.299988462 C18.6546671,0.769970386 17.7762394,1.11149571 16.8408907,1.296104 C16.092458,0.498442368 15.0263451,0 13.8463905,0 C11.5803238,0 9.7434714,1.83762163 9.7434714,4.10291912 C9.7434714,4.42444521 9.78039306,4.7382793 9.84962117,5.03749856 C6.43975232,4.86673589 3.41679166,3.23295258 1.39225414,0.749971155 C1.03996,1.35610169 0.83766009,2.06068997 0.83766009,2.81373793 C0.83766009,4.23676012 1.5614784,5.49286566 2.6622053,6.22822199 C1.98992346,6.20668436 1.35687089,6.02207607 0.803815238,5.7151648 C0.803815238,5.73285643 0.803815238,5.74900965 0.803815238,5.76670128 C0.803815238,7.75508634 2.21760702,9.4134841 4.09522711,9.78962348 C3.75139418,9.88346602 3.38833122,9.9334641 3.01373024,9.9334641 C2.74989423,9.9334641 2.49221184,9.90731126 2.24222145,9.86038999 C2.76450906,11.4903273 4.27983539,12.6772047 6.07515096,12.7102804 C4.67135879,13.8110073 2.90219607,14.4671359 0.979193108,14.4671359 C0.648436599,14.4671359 0.321526095,14.4479058 0,14.4094458 C1.816084,15.5732472 3.97215492,16.2524518 6.28975809,16.2524518 C13.8371601,16.2524518 17.9631553,10.0003846 17.9631553,4.57828545 C17.9631553,4.40059998 17.9593093,4.2236837 17.9516172,4.04753663 C18.7538941,3.46832814 19.4500212,2.74604823 20,1.92377216 Z" id="Path"></path>
                </g>
            </g>
        </g>
    </g>
</svg>