<svg xmlns="http://www.w3.org/2000/svg" width="40" height="40"><g fill="none" fill-rule="evenodd"><circle cx="20" cy="20" r="19.5" stroke="#CBD5E1"/><path fill="#4338CA" fill-rule="nonzero" d="M30 14.36a8.19 8.19 0 0 1-2.357.646 4.11 4.11 0 0 0 1.804-2.27c-.792.47-1.67.811-2.606.996a4.103 4.103 0 0 0-6.991 3.741 11.648 11.648 0 0 1-8.458-4.287 4.093 4.093 0 0 0-.554 2.064 4.1 4.1 0 0 0 1.824 3.414 4.095 4.095 0 0 1-1.858-.513v.052a4.104 4.104 0 0 0 3.291 4.023 4.105 4.105 0 0 1-1.853.07 4.108 4.108 0 0 0 3.833 2.85 8.23 8.23 0 0 1-6.075 1.7 11.616 11.616 0 0 0 6.29 1.842c7.547 0 11.673-6.252 11.673-11.674 0-.177-.004-.354-.011-.53A8.35 8.35 0 0 0 30 14.36Z"/></g></svg>