<?xml version="1.0" encoding="UTF-8"?>
<svg width="141px" height="239px" viewBox="0 0 141 239" version="1.1" xmlns="http://www.w3.org/2000/svg" xmlns:xlink="http://www.w3.org/1999/xlink">
    <title>Group 25 Copy</title>
    <defs>
        <rect id="path-1" x="0" y="2.3896645e-15" width="239" height="140"></rect>
        <linearGradient x1="89.3893248%" y1="17.9819595%" x2="9.04488188%" y2="20.3343687%" id="linearGradient-3">
            <stop stop-color="#4338CA" stop-opacity="0.703971809" offset="0%"></stop>
            <stop stop-color="#4338CA" stop-opacity="0.148546766" offset="37.7125571%"></stop>
            <stop stop-color="#4338CA" stop-opacity="0.161112325" offset="48.5511703%"></stop>
            <stop stop-color="#4338CA" stop-opacity="0.50038243" offset="100%"></stop>
        </linearGradient>
        <linearGradient x1="48.7324531%" y1="-5.40736333%" x2="118.499443%" y2="45.3381412%" id="linearGradient-4">
            <stop stop-color="#D946EF" stop-opacity="0.15854458" offset="0%"></stop>
            <stop stop-color="#CC3CE0" stop-opacity="0.100961538" offset="16.1735318%"></stop>
            <stop stop-color="#A21CAF" stop-opacity="0.799715909" offset="67.4085752%"></stop>
            <stop stop-color="#A21CAF" stop-opacity="0.160893794" offset="100%"></stop>
        </linearGradient>
        <linearGradient x1="95.1840535%" y1="24.2364621%" x2="6.2832743%" y2="24.2364621%" id="linearGradient-5">
            <stop stop-color="#4338CA" stop-opacity="0.118689904" offset="0%"></stop>
            <stop stop-color="#4338CA" stop-opacity="0.340772509" offset="49.4151087%"></stop>
            <stop stop-color="#4338CA" stop-opacity="0.0832604895" offset="100%"></stop>
        </linearGradient>
        <linearGradient x1="1.26738582%" y1="4.98499095%" x2="96.9793903%" y2="30.1162468%" id="linearGradient-6">
            <stop stop-color="#D946EF" stop-opacity="0.15977382" offset="0%"></stop>
            <stop stop-color="#A21CAF" stop-opacity="0.701786495" offset="49.8961976%"></stop>
            <stop stop-color="#A21CAF" stop-opacity="0.236314467" offset="100%"></stop>
        </linearGradient>
    </defs>
    <g id="Free-Trial-+-Get-Demo" stroke="none" stroke-width="1" fill="none" fill-rule="evenodd">
        <g id="Group-25-Copy" transform="translate(70.5, 119.5) scale(-1, -1) rotate(90) translate(-70.5, -119.5)translate(-49, 49.5)">
            <mask id="mask-2" fill="white">
                <use xlink:href="#path-1" transform="translate(119.5, 70) scale(1, -1) translate(-119.5, -70)"></use>
            </mask>
            <g id="Mask" transform="translate(119.5, 70) scale(1, -1) translate(-119.5, -70)"></g>
            <g id="Group-25" mask="url(#mask-2)">
                <g transform="translate(-205.9288, -0)" id="Oval">
                    <path d="M208.23455,415.502008 C323.239317,415.502008 416.469101,322.488715 416.469101,207.751004 C416.469101,93.0132927 323.239317,0 208.23455,0 C93.2297838,0 0,93.0132927 0,207.751004 C0,322.488715 93.2297838,415.502008 208.23455,415.502008 Z" stroke="url(#linearGradient-3)" stroke-width="1.5" stroke-linecap="round" stroke-linejoin="round" stroke-dasharray="2.625,4.375"></path>
                    <ellipse stroke="url(#linearGradient-4)" stroke-width="2" opacity="0.538457961" cx="207.967727" cy="207.582329" rx="165.967727" ry="165.582329"></ellipse>
                    <path d="M208.404832,332.231898 C277.111724,332.231898 332.809665,276.663295 332.809665,208.115949 C332.809665,139.568603 277.111724,84 208.404832,84 C139.697941,84 84,139.568603 84,208.115949 C84,276.663295 139.697941,332.231898 208.404832,332.231898 Z" stroke="url(#linearGradient-5)" stroke-width="1.5" stroke-linecap="round" stroke-linejoin="round" stroke-dasharray="3,4"></path>
                    <ellipse stroke="url(#linearGradient-6)" stroke-width="0.8" opacity="0.687872024" cx="208.23455" cy="207.751004" rx="84.2518681" ry="84.0562249"></ellipse>
                </g>
            </g>
        </g>
    </g>
</svg>