<?xml version="1.0" encoding="UTF-8"?>
<svg width="119.748062px" height="74.9129288px" viewBox="0 0 119.748062 74.9129288" version="1.1" xmlns="http://www.w3.org/2000/svg" xmlns:xlink="http://www.w3.org/1999/xlink">
    <title>Group Copy 2</title>
    <g id="Expert-Advice" stroke="none" stroke-width="1" fill="none" fill-rule="evenodd">
        <g id="Group-Copy-2" fill-rule="nonzero">
            <g id="logo-all-white-vertical">
                <polygon id="Path" fill="#FFFFFF" points="0 42.4110888 11.4157212 42.4110888 11.4157212 45.3035791 3.14656479 45.3035791 3.14656479 50.0235423 10.9395702 50.0235423 10.9395702 52.9200668 3.14656479 52.9200668 3.14656479 60.3832566 0 60.3832566"></polygon>
                <path d="M23.4028236,60.3872907 L20.5419495,60.3872907 L20.5419495,58.4307248 L20.4903664,58.4307248 C20.1939153,59.0615559 19.7480803,59.6077058 19.1928549,60.0201825 C18.4938087,60.5049847 17.6569811,60.7417895 16.8120997,60.6938866 C16.1128123,60.7113969 15.4181744,60.5737298 14.776554,60.290471 C14.2460358,60.0505609 13.7794579,59.6854513 13.4155556,59.2254536 C13.0719021,58.7694747 12.8246845,58.2461845 12.6894252,57.6884399 C12.5371629,57.0999201 12.4611297,56.4937072 12.4632102,55.8851719 L12.4632102,48.2001035 L15.463005,48.2001035 L15.463005,54.368329 C15.463005,54.7071982 15.463005,55.0864089 15.5106201,55.4978929 C15.5428206,55.8985276 15.631001,56.2924544 15.7725032,56.6677983 C15.9090131,57.0244983 16.1330322,57.3397492 16.423243,57.5835519 C16.7799971,57.8482657 17.2164316,57.9781 17.6572677,57.9506601 C18.0913905,57.9644223 18.5228967,57.8775083 18.919068,57.6965083 C19.2494894,57.5361448 19.5398212,57.3016577 19.768204,57.0107016 C19.99733,56.7182216 20.1635919,56.3801475 20.2562588,56.0182991 C20.357166,55.6381964 20.4078715,55.2461312 20.40704,54.8524278 L20.40704,48.2001035 L23.4028236,48.2001035 L23.4028236,60.3872907 Z" id="Path" fill="#FFFFFF"></path>
                <path d="M32.6679293,51.5766926 C32.148252,50.7797845 31.2631112,50.3092705 30.3228854,50.3301382 C29.9073157,50.33113 29.4984181,50.4364464 29.1325078,50.6367341 C28.7635943,50.8238856 28.5425389,51.2191821 28.5730303,51.637205 C28.5578322,51.9789991 28.7453976,52.296826 29.0491814,52.4440363 C29.4267823,52.6376706 29.8266603,52.7826744 30.239559,52.8756911 C30.7236459,52.9926816 31.2434441,53.1177405 31.7989536,53.2427993 C32.3434554,53.3658388 32.8692644,53.5625771 33.3623162,53.827752 C33.837337,54.0877695 34.2452095,54.4582174 34.5526938,54.908906 C34.8952301,55.4703244 35.0600446,56.1250973 35.0248769,56.7847889 C35.0474916,57.4313746 34.8877881,58.0710533 34.5645976,58.6283984 C34.2650485,59.119856 33.857609,59.5340963 33.37422,59.8386454 C32.8602125,60.1510492 32.2981872,60.3733385 31.7116593,60.496213 C31.1044392,60.632571 30.4844614,60.7015552 29.8626061,60.701955 C28.989542,60.7122055 28.1207984,60.5759023 27.2913905,60.2985393 C26.4764158,60.0041438 25.7523376,59.4962044 25.192358,58.8260721 L27.1763206,56.9219502 C27.534048,57.3415391 27.9512974,57.7045685 28.4143133,57.99907 C28.9024178,58.2871359 29.4614308,58.4271221 30.025291,58.4024857 C30.2509063,58.4020234 30.4757864,58.376319 30.6958704,58.3258367 C30.9254566,58.2794846 31.1455469,58.1935265 31.3466102,58.0716848 C31.5378627,57.9598606 31.704084,57.8087261 31.834665,57.6279276 C31.9599214,57.4461206 32.0252176,57.2286 32.0211575,57.0066675 C32.0441848,56.628239 31.8614011,56.26741 31.5450064,56.066709 C31.1750889,55.8412387 30.7737579,55.6739465 30.3546288,55.5705077 C29.8745099,55.4454489 29.3507437,55.3284583 28.7952342,55.2155019 C28.2535814,55.1126953 27.7287106,54.9334603 27.2358395,54.6829932 C26.7638076,54.441859 26.355585,54.089078 26.0454619,53.6542833 C25.7027657,53.1108537 25.5375218,52.4713164 25.5732788,51.8268103 C25.5522121,51.2127688 25.6889741,50.6037526 25.9700713,50.0598497 C26.235689,49.57221 26.6059334,49.1516626 27.0533149,48.829432 C27.5239603,48.4992841 28.0496307,48.2587156 28.6047738,48.1194204 C29.1840178,47.9666458 29.7800187,47.8894134 30.3784364,47.8894134 C31.1887478,47.8861271 31.9937483,48.0225333 32.7591916,48.2928891 C33.523109,48.5590815 34.1861945,49.0611707 34.6558599,49.7290489 L32.6679293,51.5766926 Z" id="Path" fill="#FFFFFF"></path>
                <path d="M36.3422282,44.0610588 C36.3345293,43.5710056 36.5287549,43.1000087 36.8778981,42.7620604 C37.2386615,42.3980634 37.73089,42.2010954 38.2388965,42.2174492 C38.7524328,42.2099084 39.2488353,42.4051317 39.6237024,42.7620604 C39.9824408,43.09884 40.1864579,43.5726941 40.1864579,44.0691271 C40.1864579,44.5655602 39.9824408,45.0394143 39.6237024,45.3761939 C39.2451368,45.7243242 38.7491584,45.9107115 38.2388965,45.8966001 C37.73089,45.9129539 37.2386615,45.7159859 36.8778981,45.3519889 C36.5315969,45.0153941 36.3377054,44.548128 36.3422282,44.0610588 Z M36.7667962,48.2001035 L39.7625798,48.2001035 L39.7625798,60.3872907 L36.7667962,60.3872907 L36.7667962,48.2001035 Z" id="Shape" fill="#FFFFFF"></path>
                <path d="M41.4370443,54.2916801 C41.4315127,53.3880798 41.6126545,52.4933664 41.9687463,51.6654441 C42.6188439,50.1217035 43.8706745,48.9220389 45.4248093,48.3534015 C47.0709244,47.7403657 48.8774782,47.7403657 50.5235933,48.3534015 C52.0777281,48.9220389 53.3295587,50.1217035 53.9796563,51.6654441 C54.6587285,53.3454114 54.6587285,55.2298804 53.9796563,56.9098477 C53.3295587,58.4535883 52.0777281,59.6532529 50.5235933,60.2218903 C48.8774782,60.8349261 47.0709244,60.8349261 45.4248093,60.2218903 C43.8729828,59.656021 42.6215257,58.4610967 41.9687463,56.9219502 C41.6121098,56.0927842 41.4309563,55.1966381 41.4370443,54.2916801 L41.4370443,54.2916801 Z M44.4328131,54.2916801 C44.4315542,54.7596208 44.5121686,55.2240607 44.6709034,55.6632933 C44.8233115,56.0973439 45.0609062,56.4953698 45.3692583,56.8331987 C46.0393941,57.5547162 46.972338,57.9636169 47.9484098,57.9636169 C48.9244816,57.9636169 49.8574255,57.5547162 50.5275612,56.8331987 C50.8359133,56.4953698 51.073508,56.0973439 51.2259161,55.6632933 C51.5431804,54.778717 51.5431804,53.8086772 51.2259161,52.924101 C51.073508,52.4900504 50.8359133,52.0920245 50.5275612,51.7541955 C49.8574255,51.032678 48.9244816,50.6237774 47.9484098,50.6237774 C46.972338,50.6237774 46.0393941,51.032678 45.3692583,51.7541955 C45.0609062,52.0920245 44.8233115,52.4900504 44.6709034,52.924101 C44.5124684,53.3620172 44.4318561,53.8250792 44.4328131,54.2916801 Z" id="Shape" fill="#FFFFFF"></path>
                <path d="M56.0707529,48.2001035 L58.9197233,48.2001035 L58.9197233,50.1526353 L58.9673384,50.1526353 C59.2679351,49.5244442 59.714665,48.9802512 60.2688179,48.5672118 C60.9676102,48.0818545 61.804627,47.8449962 62.6495731,47.8935076 C63.3491308,47.8726844 64.0444717,48.0104909 64.6851188,48.2969233 C65.2117516,48.5434162 65.6769503,48.9074466 66.0461172,49.3619406 C66.3999329,49.8096647 66.654398,50.329842 66.7920872,50.8868519 C66.9443495,51.4753717 67.0203827,52.0815846 67.0183022,52.6901199 L67.0183022,60.3872998 L64.0224753,60.3872998 L64.0224753,54.2190652 C64.0224753,53.8801961 64.0224753,53.5009854 63.9708923,53.0854672 C63.9420672,52.6856186 63.8537691,52.2925261 63.7090092,51.919596 C63.5709153,51.5605592 63.3423943,51.2447499 63.0463657,51.0038424 C62.6923921,50.7427323 62.2609559,50.6131348 61.8242447,50.6367341 C61.3901219,50.622972 60.9586157,50.709886 60.5624444,50.890886 C60.2326759,51.0523102 59.9425598,51.2866231 59.7133084,51.5766926 C59.4849691,51.8681742 59.3187636,52.2047598 59.2252536,52.565061 C59.1244124,52.9465515 59.0737112,53.3399403 59.0744724,53.7349664 L59.0744724,60.3872998 L56.0786888,60.3872998 L56.0707529,48.2001035 Z" id="Path" fill="#FFFFFF"></path>
                <path d="M75.8786362,42.4110888 L78.600633,42.4110888 L86.2190496,60.3872907 L82.6201414,60.3872907 L80.9734523,56.272451 L73.3153564,56.272451 L71.7281863,60.3872907 L68.2086365,60.3872907 L75.8786362,42.4110888 Z M79.874337,53.5332586 L77.1523402,46.2193326 L74.3747925,53.5332586 L79.874337,53.5332586 Z" id="Shape" fill="#F58320"></path>
                <path d="M97.6308029,60.3872907 L94.7818325,60.3872907 L94.7818325,58.4307248 L94.7421533,58.4307248 C94.4430832,59.0598479 93.9977334,59.6054034 93.4446417,60.0201825 C92.745343,60.504432 91.9087033,60.7411836 91.0638865,60.6938866 C90.3645992,60.7113969 89.6699612,60.5737298 89.0283408,60.290471 C88.4978227,60.0505609 88.0312447,59.6854513 87.6673424,59.2254536 C87.3118547,58.7737134 87.0560918,58.2495219 86.9174045,57.6884399 C86.7651422,57.0999201 86.689109,56.4937072 86.6911895,55.8851719 L86.6911895,48.2001035 L89.6870164,48.2001035 L89.6870164,54.368329 C89.6870164,54.7071982 89.6870164,55.0864089 89.7385994,55.4978929 C89.7669658,55.8991176 89.8552727,56.2936094 90.0004825,56.6677983 C90.1369924,57.0244983 90.3610114,57.3397492 90.6512222,57.5835519 C91.0079764,57.8482657 91.4444109,57.9781 91.885247,57.9506601 C92.322647,57.9631277 92.7570314,57.8734206 93.1549831,57.6884399 C93.4854045,57.5280764 93.7757363,57.2935894 94.0041191,57.0026333 C94.2332451,56.7101533 94.399507,56.3720792 94.492174,56.0102308 C94.5930812,55.6301281 94.6437866,55.2380629 94.6429551,54.8443595 L94.6429551,48.2001035 L97.6387388,48.2001035 L97.6308029,60.3872907 Z" id="Path" fill="#F58320"></path>
                <path d="M98.6545276,50.7900321 L98.6545276,48.2001035 L101.126545,48.2001035 L101.126545,44.6702165 L104.126297,44.6702165 L104.126297,48.2001035 L107.439514,48.2001035 L107.439514,50.7900321 L104.146136,50.7900321 L104.146136,56.1231872 C104.120642,56.6269581 104.236217,57.1277483 104.479442,57.5674152 C104.705614,57.9264552 105.150021,58.1039581 105.816633,58.1039581 C106.110892,58.0998603 106.404266,58.0701682 106.693544,58.0152066 C106.9606,57.9744821 107.215407,57.8738898 107.439514,57.7207132 L107.439514,60.2864368 C107.072161,60.4538713 106.681157,60.5614225 106.28088,60.6051352 C105.878223,60.6589911 105.472789,60.6886265 105.066695,60.6938866 C104.403458,60.7132851 103.741506,60.6233701 103.10654,60.4276323 C102.644147,60.275461 102.232165,59.9962217 101.916162,59.620801 C101.609965,59.2243457 101.40422,58.757503 101.317006,58.2612902 C101.202218,57.6429587 101.147726,57.01462 101.154321,56.3854074 L101.154321,50.7900321 L98.6545276,50.7900321 Z" id="Path" fill="#F58320"></path>
                <path d="M111.804232,49.8984835 L111.855815,49.8984835 C112.138298,49.3335239 112.564388,48.855748 113.08984,48.5147677 C113.771823,48.0762189 114.569112,47.8594968 115.375365,47.8935076 C116.074988,47.8718675 116.770505,48.0097087 117.410911,48.2969233 C117.938187,48.5423319 118.403608,48.9065362 118.771909,49.3619406 C119.125886,49.8101223 119.381574,50.3300348 119.521847,50.8868519 C119.674109,51.4753717 119.750143,52.0815846 119.748062,52.6901199 L119.748062,60.3872907 L116.748267,60.3872907 L116.748267,54.2190652 C116.748267,53.8801961 116.748267,53.5009854 116.700652,53.0854672 C116.668027,52.6862076 116.579854,52.2936728 116.438769,51.919596 C116.298106,51.560923 116.06844,51.245421 115.772158,51.0038424 C115.417897,50.7433257 114.986672,50.6137916 114.550037,50.6367341 C114.115914,50.622972 113.684408,50.709886 113.288236,50.890886 C112.957815,51.0512495 112.667483,51.2857366 112.4391,51.5766926 C112.210761,51.8681742 112.044556,52.2047598 111.951045,52.565061 C111.850204,52.9465515 111.799503,53.3399403 111.800264,53.7349664 L111.800264,60.3872907 L108.804481,60.3872907 L108.804481,41.1887393 L111.804232,41.1887393 L111.804232,49.8984835 Z" id="Path" fill="#F58320"></path>
                <path d="M51.392569,36.5655958 C49.9648348,35.7313467 48.6620236,34.6934372 47.5238418,33.4835001 C47.1937421,33.9044541 46.7902213,34.2600095 46.3334642,34.5323808 C46.0811801,34.6772005 45.8153406,34.7961223 45.5398791,34.8873866 C51.697869,41.7241782 61.6767594,43.3471167 69.6251859,38.8045527 C70.0010346,38.5851454 70.232791,38.1781507 70.232791,37.7375183 C70.232791,37.2968858 70.0010346,36.8898911 69.6251859,36.6704839 L69.6251859,36.6704839 C69.2604355,36.4480187 68.8066478,36.4403293 68.4348083,36.6503131 C63.1396225,39.6903915 56.658262,39.6581725 51.392569,36.5655958 Z" id="Path" fill="#FFFFFF"></path>
                <path d="M51.388601,6.32555761 C52.816792,5.48809706 54.3563256,4.86445032 55.959651,4.47387971 C55.7604255,3.9599966 55.6581236,3.41257812 55.6580887,2.86021706 C55.6588343,2.56220209 55.6880698,2.26496638 55.7453831,1.9727026 C46.8456345,3.98187581 40.4801263,11.9595892 40.3815761,21.2277322 C40.3829954,21.6680358 40.6149785,22.0742386 40.9903893,22.2937653 C41.3658001,22.513292 41.8277994,22.5129049 42.2028539,22.2927496 L42.2028539,22.2927496 C42.5711086,22.082393 42.8021384,21.689381 42.8099465,21.2600055 C42.8748314,15.0909377 46.1356725,9.41418957 51.388601,6.32555761 Z" id="Path" fill="#FFFFFF"></path>
                <path d="M77.1444044,21.4455767 C77.1438527,23.1214584 76.9059823,24.78853 76.4381137,26.3954869 C76.9716853,26.4749985 77.4858365,26.6556288 77.9538612,26.9279956 C78.2050072,27.0740932 78.4427179,27.2428631 78.6641198,27.4322651 C81.3956056,18.5914598 77.7794258,9.00237536 69.9346841,4.28427435 C69.5589669,4.08415695 69.10777,4.09788058 68.7444914,4.32047532 C68.3812127,4.54307007 68.1585176,4.94226583 68.1569883,5.37349664 L68.1569883,5.37349664 C68.1526498,5.80203145 68.3714871,6.20097903 68.7324027,6.42237737 C73.9485394,9.56899181 77.1458372,15.2791239 77.1444044,21.4455767 Z" id="Path" fill="#FFFFFF"></path>
                <path d="M59.9791594,13.1432813 C63.2823548,13.1416505 66.2611887,15.1634046 67.5263792,18.2656299 C68.7915697,21.3678552 68.093902,24.9394815 65.7587575,27.3147576 C63.423613,29.6900336 59.9109639,30.4010824 56.8590553,29.1162817 C53.8071466,27.831481 51.817137,24.8039083 51.817137,21.4455767 C51.8215075,16.8637625 55.4725704,13.1499527 59.9791594,13.1432813 M59.9791594,10.6784119 C54.130247,10.6784119 49.3887667,15.4990362 49.3887667,21.4455767 C49.3887667,27.3921172 54.130247,32.2127408 59.9791594,32.2127408 C65.8280718,32.2127408 70.5695529,27.3921172 70.5695529,21.4455767 C70.5706052,18.5896191 69.455173,15.8503267 67.4688608,13.8308596 C65.4825486,11.8113925 62.7882289,10.677342 59.9791594,10.6784119 Z" id="Shape" fill="#FFFFFF"></path>
                <ellipse id="Oval" fill="#F58320" cx="59.9751915" cy="2.87231953" rx="2.82516284" ry="2.87231953"></ellipse>
                <ellipse id="Oval" fill="#F58320" cx="44.1550731" cy="30.7281711" rx="2.82516284" ry="2.87231953"></ellipse>
                <ellipse id="Oval" fill="#F58320" cx="75.7953098" cy="30.7281711" rx="2.82516284" ry="2.87231953"></ellipse>
                <path d="M62.3202495,19.4809424 C62.3217976,18.3225366 61.5028314,17.3312134 60.3802931,17.1327262 C59.2577549,16.9342391 58.1576793,17.5862374 57.7744677,18.67716 C57.3912561,19.7680825 57.83621,20.9810773 58.828461,21.5504648 L58.0904269,25.3546745 C58.0662874,25.4747791 58.097172,25.5995272 58.1743615,25.6937007 C58.2515511,25.7878743 58.3666703,25.8412552 58.4872195,25.8388561 L61.4909389,25.8388561 C61.6114881,25.8412552 61.7266073,25.7878743 61.8037969,25.6937007 C61.8809864,25.5995272 61.911871,25.4747791 61.8877315,25.3546745 L61.1457294,21.5504648 C61.8747108,21.1254675 62.3231542,20.3352937 62.3202495,19.4809424 L62.3202495,19.4809424 Z" id="Path" fill="#F58320"></path>
            </g>
            <g id="Auth,-Built-for-Devs-Copy-2" transform="translate(0.184969, 65.260870)" fill="#FFFFFF">
                <path d="M2.90082066,0.574527312 L3.92740979,0.574527312 L6.7999757,7.35394959 L5.44374786,7.35394959 L4.82214343,5.80272585 L1.93074102,5.80272585 L1.32797309,7.35394959 L0,7.35394959 L2.90082066,0.574527312 Z M4.40774048,4.76857669 L3.38115135,2.01084559 L2.33572572,4.76857669 L4.40774048,4.76857669 Z" id="Shape"></path>
                <path d="M11.2051027,7.35394959 L10.1314223,7.35394959 L10.1314223,6.61663954 L10.1125858,6.61663954 C10.0058457,6.84645047 9.84259605,7.04593912 9.62283691,7.21510549 C9.40307776,7.38427187 9.10483322,7.46885506 8.72810326,7.46885506 C8.4267193,7.46885506 8.17085687,7.41938187 7.96051598,7.3204355 C7.75017508,7.22148913 7.5790769,7.08743276 7.44722141,6.91826638 C7.31536593,6.74910001 7.22118344,6.55599499 7.16467395,6.33895134 C7.10816445,6.12190769 7.07990971,5.89528858 7.07990971,5.65909402 L7.07990971,2.7577311 L8.21009957,2.7577311 L8.21009957,5.08456671 C8.21009957,5.21223945 8.2163784,5.35427537 8.22893607,5.51067447 C8.24149374,5.66707357 8.27445761,5.81389721 8.32782768,5.95114541 C8.38119776,6.0883936 8.46282258,6.20329906 8.57270215,6.29586179 C8.68258172,6.38842453 8.83798283,6.43470589 9.03890547,6.43470589 C9.22727045,6.43470589 9.38581098,6.40278771 9.51452704,6.33895134 C9.64324311,6.27511497 9.74998327,6.18893588 9.83474751,6.08041405 C9.91951175,5.97189223 9.98073036,5.84741131 10.0184034,5.7069713 C10.0560764,5.56653129 10.0749129,5.41970764 10.0749129,5.26650036 L10.0749129,2.7577311 L11.2051027,2.7577311 L11.2051027,7.35394959 Z" id="Path"></path>
                <path d="M11.5980557,3.73442753 L11.5980557,2.7577311 L12.5304624,2.7577311 L12.5304624,1.42674282 L13.6606522,1.42674282 L13.6606522,2.7577311 L14.9038611,2.7577311 L14.9038611,3.73442753 L13.6606522,3.73442753 L13.6606522,5.74527312 C13.6606522,5.97508404 13.7030343,6.15701769 13.7877986,6.29107407 C13.8725628,6.42513044 14.0405216,6.49215862 14.2916749,6.49215862 C14.3921362,6.49215862 14.5020158,6.48098726 14.6213136,6.45864453 C14.7406114,6.4363018 14.8347939,6.39959589 14.9038611,6.3485268 L14.9038611,7.31564777 C14.7845633,7.3731005 14.6385804,7.41299823 14.4659125,7.43534096 C14.2932446,7.45768369 14.1409829,7.46885506 14.0091274,7.46885506 C13.7077435,7.46885506 13.4612993,7.43534096 13.2697949,7.36831278 C13.0782905,7.30128459 12.9275985,7.1991464 12.8177189,7.06189821 C12.7078394,6.92465002 12.6324934,6.75388773 12.591681,6.54961136 C12.5508686,6.34533498 12.5304624,6.10914042 12.5304624,5.84102767 L12.5304624,3.73442753 L11.5980557,3.73442753 Z" id="Path"></path>
                <path d="M16.5682777,3.3992866 L16.5871142,3.3992866 C16.6750178,3.20777749 16.8304189,3.03382339 17.0533175,2.87742429 C17.276216,2.72102519 17.5634726,2.64282563 17.9150873,2.64282563 C18.2164712,2.64282563 18.4723337,2.69389473 18.6826745,2.79603292 C18.8930154,2.89817111 19.0641136,3.03222748 19.1959691,3.19820204 C19.3278246,3.36417659 19.4220071,3.5556857 19.4785166,3.77272935 C19.5350261,3.989773 19.5632808,4.21639211 19.5632808,4.45258667 L19.5632808,7.35394959 L18.4330909,7.35394959 L18.4330909,5.02711398 C18.4330909,4.89944124 18.4268121,4.75740532 18.4142544,4.60100622 C18.4016968,4.44460712 18.3687329,4.29778348 18.3153628,4.16053528 C18.2619928,4.02328709 18.1787982,3.90838163 18.0657792,3.8158189 C17.9527603,3.72325616 17.7989289,3.6769748 17.604285,3.6769748 C17.4159201,3.6769748 17.2573795,3.70889298 17.1286635,3.77272935 C16.9999474,3.83656572 16.8932073,3.92274481 16.808443,4.03126664 C16.7236788,4.13978846 16.6624602,4.26426938 16.6247872,4.40470939 C16.5871142,4.5451494 16.5682777,4.69197305 16.5682777,4.84518033 L16.5682777,7.35394959 L15.4380878,7.35394959 L15.4380878,0.114905462 L16.5682777,0.114905462 L16.5682777,3.3992866 Z" id="Path"></path>
                <polygon id="Path" points="20.8603857 6.03253678 22.0094121 6.03253678 21.2088609 8.56045695 20.2011083 8.56045695"></polygon>
                <path d="M25.441846,0.574527312 L28.0412827,0.574527312 C28.292436,0.574527312 28.5404499,0.604849587 28.7853243,0.665494136 C29.0301988,0.726138686 29.2483883,0.825085056 29.4398926,0.962333247 C29.631397,1.09958144 29.7867981,1.27672736 29.906096,1.49377101 C30.0253938,1.71081466 30.0850427,1.97254377 30.0850427,2.27895834 C30.0850427,2.66197655 29.9783025,2.97796657 29.7648222,3.2269284 C29.5513419,3.47589024 29.2719339,3.65463207 28.9265981,3.76315389 L28.9265981,3.7823048 C29.1337996,3.80783935 29.3268737,3.86688799 29.5058204,3.95945072 C29.6847671,4.05201346 29.8370288,4.17011074 29.9626055,4.31374257 C30.0881821,4.4573744 30.1870737,4.62334895 30.2592803,4.81166624 C30.3314869,4.99998352 30.3675902,5.20266399 30.3675902,5.41970764 C30.3675902,5.78995858 30.2953836,6.09796905 30.1509704,6.34373907 C30.0065573,6.58950909 29.8166226,6.78740183 29.5811664,6.93741729 C29.3457102,7.08743276 29.0757204,7.19435867 28.771197,7.25819504 C28.4666736,7.32203141 28.1574411,7.35394959 27.8434995,7.35394959 L25.441846,7.35394959 L25.441846,0.574527312 Z M26.6285454,3.33225841 L27.711644,3.33225841 C28.1072104,3.33225841 28.4038853,3.25405886 28.6016685,3.09765976 C28.7994517,2.94126066 28.8983433,2.73538837 28.8983433,2.4800429 C28.8983433,2.1863956 28.7963123,1.96775604 28.5922502,1.82412422 C28.3881882,1.68049239 28.0601192,1.60867647 27.6080432,1.60867647 L26.6285454,1.60867647 L26.6285454,3.33225841 Z M26.6285454,6.31980043 L27.7210622,6.31980043 C27.8717542,6.31980043 28.0334341,6.31022498 28.206102,6.29107407 C28.3787699,6.27192316 28.5373105,6.2272377 28.6817236,6.15701769 C28.8261368,6.08679769 28.9454346,5.98625541 29.0396171,5.85539085 C29.1337996,5.7245263 29.1808908,5.54738038 29.1808908,5.32395309 C29.1808908,4.96646943 29.0663021,4.71750759 28.8371247,4.57706759 C28.6079473,4.43662758 28.2516236,4.36640757 27.7681535,4.36640757 L26.6285454,4.36640757 L26.6285454,6.31980043 Z" id="Shape"></path>
                <path d="M35.2059566,7.35394959 L34.1322763,7.35394959 L34.1322763,6.61663954 L34.1134398,6.61663954 C34.0066996,6.84645047 33.84345,7.04593912 33.6236908,7.21510549 C33.4039317,7.38427187 33.1056871,7.46885506 32.7289572,7.46885506 C32.4275732,7.46885506 32.1717108,7.41938187 31.9613699,7.3204355 C31.751029,7.22148913 31.5799308,7.08743276 31.4480753,6.91826638 C31.3162198,6.74910001 31.2220373,6.55599499 31.1655279,6.33895134 C31.1090184,6.12190769 31.0807636,5.89528858 31.0807636,5.65909402 L31.0807636,2.7577311 L32.2109535,2.7577311 L32.2109535,5.08456671 C32.2109535,5.21223945 32.2172323,5.35427537 32.22979,5.51067447 C32.2423476,5.66707357 32.2753115,5.81389721 32.3286816,5.95114541 C32.3820517,6.0883936 32.4636765,6.20329906 32.5735561,6.29586179 C32.6834356,6.38842453 32.8388367,6.43470589 33.0397594,6.43470589 C33.2281244,6.43470589 33.3866649,6.40278771 33.515381,6.33895134 C33.644097,6.27511497 33.7508372,6.18893588 33.8356014,6.08041405 C33.9203657,5.97189223 33.9815843,5.84741131 34.0192573,5.7069713 C34.0569303,5.56653129 34.0757668,5.41970764 34.0757668,5.26650036 L34.0757668,2.7577311 L35.2059566,2.7577311 L35.2059566,7.35394959 Z" id="Path"></path>
                <path d="M36.1451681,2.7577311 L37.2753579,2.7577311 L37.2753579,7.35394959 L36.1451681,7.35394959 L36.1451681,2.7577311 Z M35.9850578,1.1969319 C35.9850578,1.01180643 36.0525553,0.850619603 36.1875502,0.713371412 C36.3225451,0.576123221 36.4936433,0.507499126 36.7008447,0.507499126 C36.9080462,0.507499126 37.0822838,0.572931403 37.2235576,0.703795957 C37.3648313,0.834660511 37.4354682,0.999039159 37.4354682,1.1969319 C37.4354682,1.39482464 37.3648313,1.55920329 37.2235576,1.69006784 C37.0822838,1.8209324 36.9080462,1.88636467 36.7008447,1.88636467 C36.4936433,1.88636467 36.3225451,1.81774058 36.1875502,1.68049239 C36.0525553,1.5432442 35.9850578,1.38205737 35.9850578,1.1969319 Z" id="Shape"></path>
                <polygon id="Path" points="38.2334059 0.114905462 39.3635957 0.114905462 39.3635957 7.35394959 38.2334059 7.35394959"></polygon>
                <path d="M39.7848035,3.73442753 L39.7848035,2.7577311 L40.7172101,2.7577311 L40.7172101,1.42674282 L41.8474,1.42674282 L41.8474,2.7577311 L43.0906088,2.7577311 L43.0906088,3.73442753 L41.8474,3.73442753 L41.8474,5.74527312 C41.8474,5.97508404 41.8897821,6.15701769 41.9745463,6.29107407 C42.0593106,6.42513044 42.2272693,6.49215862 42.4784226,6.49215862 C42.578884,6.49215862 42.6887635,6.48098726 42.8080614,6.45864453 C42.9273592,6.4363018 43.0215417,6.39959589 43.0906088,6.3485268 L43.0906088,7.31564777 C42.971311,7.3731005 42.8253281,7.41299823 42.6526602,7.43534096 C42.4799924,7.45768369 42.3277307,7.46885506 42.1958752,7.46885506 C41.8944912,7.46885506 41.648047,7.43534096 41.4565426,7.36831278 C41.2650382,7.30128459 41.1143463,7.1991464 41.0044667,7.06189821 C40.8945871,6.92465002 40.8192411,6.75388773 40.7784287,6.54961136 C40.7376163,6.34533498 40.7172101,6.10914042 40.7172101,5.84102767 L40.7172101,3.73442753 L39.7848035,3.73442753 Z" id="Path"></path>
                <path d="M46.4476968,3.73442753 L45.5152901,3.73442753 L45.5152901,2.7577311 L46.4476968,2.7577311 L46.4476968,2.10660014 C46.4476968,1.7874183 46.4696727,1.49855874 46.5136245,1.24002145 C46.5575763,0.981484158 46.6407709,0.759652779 46.7632081,0.574527312 C46.8856453,0.389401845 47.0567435,0.247365926 47.2765027,0.148419556 C47.4962618,0.0494731852 47.7819487,0 48.1335633,0 C48.3909954,0 48.6295911,0.0223427288 48.8493502,0.0670281864 L48.7740042,1.04372462 C48.6923794,1.02457371 48.613894,1.00861461 48.538548,0.995847341 C48.463202,0.983080067 48.3847166,0.97669643 48.3030918,0.97669643 C48.146121,0.97669643 48.0205443,1.00223098 47.9263618,1.05330007 C47.8321793,1.10436917 47.7584031,1.17299326 47.705033,1.25917236 C47.6516629,1.34535146 47.6171293,1.44589374 47.6014322,1.5607992 C47.5857352,1.67570466 47.5778866,1.79699376 47.5778866,1.92466649 L47.5778866,2.7577311 L48.6233122,2.7577311 L48.6233122,3.73442753 L47.5778866,3.73442753 L47.5778866,7.35394959 L46.4476968,7.35394959 L46.4476968,3.73442753 Z" id="Path"></path>
                <path d="M48.7713908,5.05584034 C48.7713908,4.69197305 48.8357488,4.36161984 48.9644649,4.06478073 C49.0931809,3.76794162 49.2674185,3.51419206 49.4871777,3.30353204 C49.7069368,3.09287203 49.9675084,2.93008929 50.2688923,2.81518383 C50.5702763,2.70027837 50.8904968,2.64282563 51.2295537,2.64282563 C51.5686107,2.64282563 51.8888312,2.70027837 52.1902151,2.81518383 C52.4915991,2.93008929 52.7521706,3.09287203 52.9719298,3.30353204 C53.1916889,3.51419206 53.3659265,3.76794162 53.4946426,4.06478073 C53.6233587,4.36161984 53.6877167,4.69197305 53.6877167,5.05584034 C53.6877167,5.41970764 53.6233587,5.75006085 53.4946426,6.04689996 C53.3659265,6.34373907 53.1916889,6.59748863 52.9719298,6.80814865 C52.7521706,7.01880866 52.4915991,7.1815914 52.1902151,7.29649686 C51.8888312,7.41140232 51.5686107,7.46885506 51.2295537,7.46885506 C50.8904968,7.46885506 50.5702763,7.41140232 50.2688923,7.29649686 C49.9675084,7.1815914 49.7069368,7.01880866 49.4871777,6.80814865 C49.2674185,6.59748863 49.0931809,6.34373907 48.9644649,6.04689996 C48.8357488,5.75006085 48.7713908,5.41970764 48.7713908,5.05584034 Z M49.9015806,5.05584034 C49.9015806,5.23458218 49.9314051,5.40694037 49.991054,5.57291493 C50.0507029,5.73888948 50.1386066,5.88571313 50.254765,6.01338586 C50.3709234,6.1410586 50.5106274,6.24319679 50.673877,6.31980043 C50.8371267,6.39640407 51.0223523,6.43470589 51.2295537,6.43470589 C51.4367552,6.43470589 51.6219808,6.39640407 51.7852304,6.31980043 C51.9484801,6.24319679 52.0881841,6.1410586 52.2043425,6.01338586 C52.3205009,5.88571313 52.4084045,5.73888948 52.4680535,5.57291493 C52.5277024,5.40694037 52.5575268,5.23458218 52.5575268,5.05584034 C52.5575268,4.87709851 52.5277024,4.70474032 52.4680535,4.53876576 C52.4084045,4.37279121 52.3205009,4.22596756 52.2043425,4.09829483 C52.0881841,3.97062209 51.9484801,3.8684839 51.7852304,3.79188026 C51.6219808,3.71527662 51.4367552,3.6769748 51.2295537,3.6769748 C51.0223523,3.6769748 50.8371267,3.71527662 50.673877,3.79188026 C50.5106274,3.8684839 50.3709234,3.97062209 50.254765,4.09829483 C50.1386066,4.22596756 50.0507029,4.37279121 49.991054,4.53876576 C49.9314051,4.70474032 49.9015806,4.87709851 49.9015806,5.05584034 Z" id="Shape"></path>
                <path d="M54.3820536,2.7577311 L55.5122435,2.7577311 L55.5122435,3.48546569 L55.53108,3.48546569 C55.6566567,3.21735295 55.8356034,3.00988475 56.0679202,2.8630611 C56.300237,2.71623746 56.5670874,2.64282563 56.8684714,2.64282563 C56.9375385,2.64282563 57.005036,2.64920927 57.0709637,2.66197655 C57.1368914,2.67474382 57.2043889,2.69070291 57.2734561,2.70985382 L57.2734561,3.82060662 C57.1792736,3.79507208 57.0866608,3.77432526 56.9956177,3.75836617 C56.9045746,3.74240707 56.8151013,3.73442753 56.7271976,3.73442753 C56.4634867,3.73442753 56.2515761,3.78390071 56.0914658,3.88284708 C55.9313556,3.98179345 55.8089184,4.09510301 55.7241541,4.22277574 C55.6393899,4.35044848 55.5828804,4.47812121 55.5546256,4.60579395 C55.5263709,4.73346669 55.5122435,4.82922124 55.5122435,4.89305761 L55.5122435,7.35394959 L54.3820536,7.35394959 L54.3820536,2.7577311 Z" id="Path"></path>
                <path d="M60.216141,0.574527312 L62.8438325,0.574527312 C63.2833508,0.574527312 63.707172,0.643151408 64.1152961,0.780399599 C64.5234202,0.91764779 64.8844531,1.1267119 65.1983947,1.40759191 C65.5123363,1.68847193 65.7634896,2.04116787 65.9518546,2.46567971 C66.1402196,2.89019156 66.2344021,3.38971114 66.2344021,3.96423845 C66.2344021,4.5451494 66.1260922,5.0478608 65.9094725,5.47237265 C65.6928528,5.89688449 65.4134447,6.24798452 65.0712483,6.52567272 C64.729052,6.80336092 64.3491826,7.01082911 63.9316402,7.14807731 C63.5140979,7.2853255 63.104404,7.35394959 62.7025587,7.35394959 L60.216141,7.35394959 L60.216141,0.574527312 Z M62.2881558,6.2623477 C62.6586069,6.2623477 63.0086518,6.21925815 63.3382905,6.13307905 C63.6679293,6.04689996 63.9551859,5.91284359 64.2000603,5.73090994 C64.4449348,5.54897629 64.6380089,5.31278173 64.7792826,5.02232625 C64.9205564,4.73187078 64.9911932,4.37917484 64.9911932,3.96423845 C64.9911932,3.5556857 64.9284049,3.20458567 64.8028283,2.91093838 C64.6772516,2.61729109 64.503014,2.37950062 64.2801154,2.19756697 C64.0572169,2.01563332 63.7935059,1.88157695 63.4889825,1.79539785 C63.1844591,1.70921875 62.8501113,1.6661292 62.485939,1.6661292 L61.4028404,1.6661292 L61.4028404,6.2623477 L62.2881558,6.2623477 Z" id="Shape"></path>
                <path d="M67.8046362,5.45800946 C67.8423092,5.80272585 67.9741647,6.0708386 68.2002026,6.2623477 C68.4262406,6.4538568 68.6993698,6.54961136 69.0195903,6.54961136 C69.3021378,6.54961136 69.5391637,6.49056272 69.7306681,6.37246543 C69.9221725,6.25436815 70.0901313,6.1059486 70.2345444,5.92720677 L71.0445138,6.54961136 C70.7808028,6.88156047 70.4856977,7.11775503 70.1591984,7.25819504 C69.8326991,7.39863505 69.4905027,7.46885506 69.1326093,7.46885506 C68.7935523,7.46885506 68.4733319,7.41140232 68.1719479,7.29649686 C67.8705639,7.1815914 67.6099924,7.01880866 67.3902332,6.80814865 C67.1704741,6.59748863 66.9962365,6.34373907 66.8675204,6.04689996 C66.7388044,5.75006085 66.6744463,5.41970764 66.6744463,5.05584034 C66.6744463,4.69197305 66.7388044,4.36161984 66.8675204,4.06478073 C66.9962365,3.76794162 67.1704741,3.51419206 67.3902332,3.30353204 C67.6099924,3.09287203 67.8705639,2.93008929 68.1719479,2.81518383 C68.4733319,2.70027837 68.7935523,2.64282563 69.1326093,2.64282563 C69.4465509,2.64282563 69.7338075,2.69868246 69.9943791,2.8103961 C70.2549506,2.92210974 70.4778492,3.08329657 70.6630747,3.29395659 C70.8483003,3.5046166 70.9927134,3.7647498 71.0963142,4.07435619 C71.1999149,4.38396257 71.2517153,4.73985032 71.2517153,5.14201944 L71.2517153,5.45800946 L67.8046362,5.45800946 Z M70.1215254,4.5962185 C70.1152466,4.25788575 70.0116458,3.99136891 69.8107232,3.79666799 C69.6098006,3.60196706 69.3303925,3.5046166 68.972499,3.5046166 C68.6334421,3.5046166 68.365022,3.60356297 68.1672388,3.80145571 C67.9694555,3.99934845 67.848588,4.26426938 67.8046362,4.5962185 L70.1215254,4.5962185 Z" id="Shape"></path>
                <polygon id="Path" points="71.3338661 2.7577311 72.5676567 2.7577311 73.7731925 5.97508404 73.792029 5.97508404 75.0069831 2.7577311 76.1654277 2.7577311 74.3853787 7.35394959 73.1798428 7.35394959"></polygon>
                <path d="M78.8846882,4.03126664 C78.6649291,3.71846844 78.3698239,3.56206933 77.9993728,3.56206933 C77.8486808,3.56206933 77.7011283,3.60037115 77.5567151,3.6769748 C77.412302,3.75357844 77.3400954,3.87805936 77.3400954,4.05041755 C77.3400954,4.19085756 77.3997443,4.29299575 77.5190421,4.35683212 C77.6383399,4.42066848 77.7890319,4.4749294 77.9711181,4.51961485 C78.1532042,4.56430031 78.3494177,4.61058168 78.5597586,4.65845895 C78.7700995,4.70633623 78.966313,4.77974805 79.1483992,4.87869442 C79.3304853,4.97764079 79.4811773,5.11329308 79.6004751,5.28565127 C79.7197729,5.45800946 79.7794219,5.69420402 79.7794219,5.99423495 C79.7794219,6.26873134 79.7213427,6.50013817 79.6051843,6.68845546 C79.4890258,6.87677274 79.3383339,7.02838412 79.1531083,7.14328958 C78.9678827,7.25819504 78.7591116,7.34118232 78.5267948,7.39225141 C78.2944779,7.44332051 78.0621611,7.46885506 77.8298443,7.46885506 C77.4782297,7.46885506 77.1548698,7.41778596 76.8597647,7.31564777 C76.5646596,7.21350958 76.3009486,7.02838412 76.0686318,6.76027137 L76.8220917,6.04211223 C76.9665049,6.20808679 77.121906,6.34373907 77.288295,6.44906908 C77.4546841,6.55439908 77.6571764,6.60706409 77.8957721,6.60706409 C77.9773969,6.60706409 78.0621611,6.59748863 78.1500648,6.57833772 C78.2379685,6.55918681 78.3195933,6.52726863 78.3949393,6.48258317 C78.4702853,6.43789771 78.5315039,6.38204089 78.5785951,6.3150127 C78.6256864,6.24798452 78.649232,6.16978497 78.649232,6.08041405 C78.649232,5.92082313 78.5895831,5.80272585 78.4702853,5.72612221 C78.3509874,5.64951857 78.2002955,5.58727811 78.0182093,5.53940083 C77.8361232,5.49152356 77.6399096,5.4468381 77.4295688,5.40534446 C77.2192279,5.36385082 77.0230143,5.29682263 76.8409282,5.2042599 C76.6588421,5.11169717 76.5081501,4.98242852 76.3888523,4.81645396 C76.2695544,4.65047941 76.2099055,4.42066848 76.2099055,4.12702119 C76.2099055,3.87167572 76.2617059,3.64984434 76.3653066,3.46152705 C76.4689074,3.27320977 76.605472,3.11840658 76.7750005,2.99711748 C76.9445289,2.87582838 77.1391727,2.78645746 77.3589319,2.72900473 C77.578691,2.671552 77.8015896,2.64282563 78.0276276,2.64282563 C78.3290115,2.64282563 78.6272561,2.69549064 78.9223612,2.80082065 C79.2174663,2.90615065 79.456062,3.08648839 79.6381481,3.34183386 L78.8846882,4.03126664 Z" id="Path"></path>
                <polygon id="Path" points="80.671542 6.03253678 81.8205684 6.03253678 81.0200172 8.56045695 80.0122646 8.56045695"></polygon>
                <path d="M85.1494016,0.114905462 L86.2795915,0.114905462 L86.2795915,3.34183386 L86.3078462,3.34183386 C86.3643557,3.26523022 86.4365623,3.18703067 86.5244659,3.10723521 C86.6123696,3.02743975 86.7191097,2.95243202 86.8446864,2.88221201 C86.970263,2.81199201 87.1146762,2.75453928 87.2779258,2.70985382 C87.4411755,2.66516836 87.6295405,2.64282563 87.8430208,2.64282563 C88.1632412,2.64282563 88.4583464,2.70506609 88.7283362,2.82954701 C88.998326,2.95402793 89.2290731,3.12479021 89.4205775,3.34183386 C89.6120819,3.55887752 89.7612041,3.81422299 89.8679443,4.10787028 C89.9746844,4.40151757 90.0280545,4.71750759 90.0280545,5.05584034 C90.0280545,5.3941731 89.9778239,5.71016312 89.8773625,6.00381041 C89.7769012,6.2974577 89.6293486,6.55280317 89.4347048,6.76984683 C89.240061,6.98689048 89.0046048,7.15765276 88.7283362,7.28213368 C88.4520675,7.4066146 88.1412653,7.46885506 87.7959295,7.46885506 C87.4757091,7.46885506 87.1774645,7.40501869 86.9011959,7.27734595 C86.6249273,7.14967322 86.4051681,6.94539684 86.2419185,6.66451682 L86.223082,6.66451682 L86.223082,7.35394959 L85.1494016,7.35394959 L85.1494016,0.114905462 Z M88.8978646,5.05584034 C88.8978646,4.87709851 88.8680402,4.70474032 88.8083913,4.53876576 C88.7487424,4.37279121 88.6608387,4.22596756 88.5446803,4.09829483 C88.4285219,3.97062209 88.2888179,3.8684839 88.1255682,3.79188026 C87.9623186,3.71527662 87.777093,3.6769748 87.5698916,3.6769748 C87.3626901,3.6769748 87.1774645,3.71527662 87.0142149,3.79188026 C86.8509652,3.8684839 86.7112612,3.97062209 86.5951028,4.09829483 C86.4789444,4.22596756 86.3910407,4.37279121 86.3313918,4.53876576 C86.2717429,4.70474032 86.2419185,4.87709851 86.2419185,5.05584034 C86.2419185,5.23458218 86.2717429,5.40694037 86.3313918,5.57291493 C86.3910407,5.73888948 86.4789444,5.88571313 86.5951028,6.01338586 C86.7112612,6.1410586 86.8509652,6.24319679 87.0142149,6.31980043 C87.1774645,6.39640407 87.3626901,6.43470589 87.5698916,6.43470589 C87.777093,6.43470589 87.9623186,6.39640407 88.1255682,6.31980043 C88.2888179,6.24319679 88.4285219,6.1410586 88.5446803,6.01338586 C88.6608387,5.88571313 88.7487424,5.73888948 88.8083913,5.57291493 C88.8680402,5.40694037 88.8978646,5.23458218 88.8978646,5.05584034 Z" id="Shape"></path>
                <path d="M90.1102053,2.7577311 L91.3534142,2.7577311 L92.6154595,5.94635768 L92.634296,5.94635768 L93.7644859,2.7577311 L94.941767,2.7577311 L92.8038245,8.34022148 C92.7221997,8.55726513 92.6327263,8.74717832 92.5354044,8.90996106 C92.4380825,9.0727438 92.3234938,9.20999199 92.1916383,9.32170564 C92.0597828,9.43341928 91.9043817,9.51640656 91.725435,9.57066747 C91.5464883,9.62492838 91.3314382,9.65205884 91.0802849,9.65205884 C90.7851798,9.65205884 90.4963535,9.61375702 90.213806,9.53715338 L90.3550798,8.50300422 C90.4429834,8.5349224 90.5355962,8.56205286 90.6329181,8.58439559 C90.73024,8.60673831 90.8291316,8.61790968 90.929593,8.61790968 C91.0677273,8.61790968 91.1838857,8.60514241 91.2780682,8.57960786 C91.3722506,8.55407331 91.4523058,8.51417558 91.5182335,8.45991467 C91.5841612,8.40565376 91.639101,8.33543375 91.6830529,8.24925465 C91.7270047,8.16307556 91.7740959,8.05934146 91.8243266,7.93805236 L92.0409463,7.39225141 L90.1102053,2.7577311 Z" id="Path"></path>
                <path d="M97.7808512,0.574527312 L100.408543,0.574527312 C100.848061,0.574527312 101.271882,0.643151408 101.680006,0.780399599 C102.08813,0.91764779 102.449163,1.1267119 102.763105,1.40759191 C103.077047,1.68847193 103.3282,2.04116787 103.516565,2.46567971 C103.70493,2.89019156 103.799112,3.38971114 103.799112,3.96423845 C103.799112,4.5451494 103.690802,5.0478608 103.474183,5.47237265 C103.257563,5.89688449 102.978155,6.24798452 102.635959,6.52567272 C102.293762,6.80336092 101.913893,7.01082911 101.49635,7.14807731 C101.078808,7.2853255 100.669114,7.35394959 100.267269,7.35394959 L97.7808512,7.35394959 L97.7808512,0.574527312 Z M99.852866,6.2623477 C100.223317,6.2623477 100.573362,6.21925815 100.903001,6.13307905 C101.232639,6.04689996 101.519896,5.91284359 101.764771,5.73090994 C102.009645,5.54897629 102.202719,5.31278173 102.343993,5.02232625 C102.485267,4.73187078 102.555903,4.37917484 102.555903,3.96423845 C102.555903,3.5556857 102.493115,3.20458567 102.367538,2.91093838 C102.241962,2.61729109 102.067724,2.37950062 101.844826,2.19756697 C101.621927,2.01563332 101.358216,1.88157695 101.053693,1.79539785 C100.749169,1.70921875 100.414821,1.6661292 100.050649,1.6661292 L98.9675506,1.6661292 L98.9675506,6.2623477 L99.852866,6.2623477 Z" id="Shape"></path>
                <path d="M105.369346,5.45800946 C105.407019,5.80272585 105.538875,6.0708386 105.764913,6.2623477 C105.990951,6.4538568 106.26408,6.54961136 106.5843,6.54961136 C106.866848,6.54961136 107.103874,6.49056272 107.295378,6.37246543 C107.486883,6.25436815 107.654841,6.1059486 107.799255,5.92720677 L108.609224,6.54961136 C108.345513,6.88156047 108.050408,7.11775503 107.723909,7.25819504 C107.397409,7.39863505 107.055213,7.46885506 106.697319,7.46885506 C106.358263,7.46885506 106.038042,7.41140232 105.736658,7.29649686 C105.435274,7.1815914 105.174703,7.01880866 104.954943,6.80814865 C104.735184,6.59748863 104.560947,6.34373907 104.432231,6.04689996 C104.303515,5.75006085 104.239157,5.41970764 104.239157,5.05584034 C104.239157,4.69197305 104.303515,4.36161984 104.432231,4.06478073 C104.560947,3.76794162 104.735184,3.51419206 104.954943,3.30353204 C105.174703,3.09287203 105.435274,2.93008929 105.736658,2.81518383 C106.038042,2.70027837 106.358263,2.64282563 106.697319,2.64282563 C107.011261,2.64282563 107.298518,2.69868246 107.559089,2.8103961 C107.819661,2.92210974 108.042559,3.08329657 108.227785,3.29395659 C108.41301,3.5046166 108.557424,3.7647498 108.661024,4.07435619 C108.764625,4.38396257 108.816425,4.73985032 108.816425,5.14201944 L108.816425,5.45800946 L105.369346,5.45800946 Z M107.686236,4.5962185 C107.679957,4.25788575 107.576356,3.99136891 107.375433,3.79666799 C107.174511,3.60196706 106.895103,3.5046166 106.537209,3.5046166 C106.198152,3.5046166 105.929732,3.60356297 105.731949,3.80145571 C105.534166,3.99934845 105.413298,4.26426938 105.369346,4.5962185 L107.686236,4.5962185 Z" id="Shape"></path>
                <polygon id="Path" points="108.898576 2.7577311 110.132367 2.7577311 111.337903 5.97508404 111.356739 5.97508404 112.571693 2.7577311 113.730138 2.7577311 111.950089 7.35394959 110.744553 7.35394959"></polygon>
                <path d="M116.449398,4.03126664 C116.229639,3.71846844 115.934534,3.56206933 115.564083,3.56206933 C115.413391,3.56206933 115.265838,3.60037115 115.121425,3.6769748 C114.977012,3.75357844 114.904806,3.87805936 114.904806,4.05041755 C114.904806,4.19085756 114.964454,4.29299575 115.083752,4.35683212 C115.20305,4.42066848 115.353742,4.4749294 115.535828,4.51961485 C115.717914,4.56430031 115.914128,4.61058168 116.124469,4.65845895 C116.33481,4.70633623 116.531023,4.77974805 116.713109,4.87869442 C116.895196,4.97764079 117.045887,5.11329308 117.165185,5.28565127 C117.284483,5.45800946 117.344132,5.69420402 117.344132,5.99423495 C117.344132,6.26873134 117.286053,6.50013817 117.169894,6.68845546 C117.053736,6.87677274 116.903044,7.02838412 116.717818,7.14328958 C116.532593,7.25819504 116.323822,7.34118232 116.091505,7.39225141 C115.859188,7.44332051 115.626871,7.46885506 115.394555,7.46885506 C115.04294,7.46885506 114.71958,7.41778596 114.424475,7.31564777 C114.12937,7.21350958 113.865659,7.02838412 113.633342,6.76027137 L114.386802,6.04211223 C114.531215,6.20808679 114.686616,6.34373907 114.853005,6.44906908 C115.019394,6.55439908 115.221887,6.60706409 115.460482,6.60706409 C115.542107,6.60706409 115.626871,6.59748863 115.714775,6.57833772 C115.802679,6.55918681 115.884303,6.52726863 115.959649,6.48258317 C116.034995,6.43789771 116.096214,6.38204089 116.143305,6.3150127 C116.190397,6.24798452 116.213942,6.16978497 116.213942,6.08041405 C116.213942,5.92082313 116.154293,5.80272585 116.034995,5.72612221 C115.915698,5.64951857 115.765006,5.58727811 115.582919,5.53940083 C115.400833,5.49152356 115.20462,5.4468381 114.994279,5.40534446 C114.783938,5.36385082 114.587725,5.29682263 114.405638,5.2042599 C114.223552,5.11169717 114.07286,4.98242852 113.953562,4.81645396 C113.834265,4.65047941 113.774616,4.42066848 113.774616,4.12702119 C113.774616,3.87167572 113.826416,3.64984434 113.930017,3.46152705 C114.033618,3.27320977 114.170182,3.11840658 114.339711,2.99711748 C114.509239,2.87582838 114.703883,2.78645746 114.923642,2.72900473 C115.143401,2.671552 115.3663,2.64282563 115.592338,2.64282563 C115.893722,2.64282563 116.191966,2.69549064 116.487071,2.80082065 C116.782177,2.90615065 117.020772,3.08648839 117.202858,3.34183386 L116.449398,4.03126664 Z" id="Path"></path>
                <path d="M117.859522,6.68366773 C117.859522,6.47939135 117.933299,6.30384134 118.080851,6.15701769 C118.228404,6.01019405 118.405781,5.93678222 118.612982,5.93678222 C118.813905,5.93678222 118.989712,6.00700223 119.140404,6.14744224 C119.291096,6.28788225 119.366442,6.46024044 119.366442,6.66451682 C119.366442,6.8687932 119.292666,7.04434321 119.145113,7.19116685 C118.997561,7.3379905 118.820184,7.41140232 118.612982,7.41140232 C118.512521,7.41140232 118.416769,7.39225141 118.325726,7.35394959 C118.234683,7.31564777 118.154627,7.26457868 118.08556,7.20074231 C118.016493,7.13690594 117.961553,7.0603023 117.920741,6.97093138 C117.879928,6.88156047 117.859522,6.78580592 117.859522,6.68366773 Z" id="Path"></path>
            </g>
        </g>
    </g>
</svg>