<svg xmlns="http://www.w3.org/2000/svg" width="119.748" height="74.913"><g fill="none"><path fill="#FFF" d="M0 42.411h11.416v2.893h-8.27v4.72h7.794v2.896H3.147v7.463H0zm23.403 17.976h-2.861v-1.956h-.052a4.209 4.209 0 0 1-1.297 1.59 3.798 3.798 0 0 1-2.38.673 4.74 4.74 0 0 1-2.036-.404 3.659 3.659 0 0 1-1.361-1.065 4.197 4.197 0 0 1-.727-1.537 7.103 7.103 0 0 1-.226-1.803V48.2h3v6.168c0 .34 0 .718.048 1.13.032.4.12.794.262 1.17.136.356.36.672.65.916a1.88 1.88 0 0 0 1.234.367 2.82 2.82 0 0 0 1.262-.254c.33-.16.62-.395.85-.686.228-.293.395-.63.487-.993.101-.38.152-.772.151-1.166V48.2h2.996v12.187Zm9.265-8.81a2.73 2.73 0 0 0-2.345-1.247 2.49 2.49 0 0 0-1.19.307c-.37.187-.59.582-.56 1a.853.853 0 0 0 .476.807c.378.194.778.339 1.19.432.485.117 1.004.242 1.56.367.544.123 1.07.32 1.563.585.475.26.883.63 1.19 1.08a3.27 3.27 0 0 1 .473 1.877 3.437 3.437 0 0 1-.46 1.843 3.71 3.71 0 0 1-1.19 1.21 5.289 5.289 0 0 1-1.663.658 8.463 8.463 0 0 1-1.85.206 7.816 7.816 0 0 1-2.57-.403 4.911 4.911 0 0 1-2.1-1.473l1.984-1.904c.358.42.775.783 1.238 1.077a2.918 2.918 0 0 0 1.611.403c.226 0 .45-.026.67-.076.23-.047.45-.132.652-.254.19-.112.357-.263.488-.444.125-.182.19-.4.186-.621.023-.379-.16-.74-.476-.94a4.238 4.238 0 0 0-1.19-.496 29.85 29.85 0 0 0-1.56-.355 5.85 5.85 0 0 1-1.56-.533 3.316 3.316 0 0 1-1.19-1.029 3.105 3.105 0 0 1-.472-1.827 3.582 3.582 0 0 1 .397-1.767 3.691 3.691 0 0 1 1.083-1.23c.471-.33.997-.571 1.552-.71a6.954 6.954 0 0 1 1.773-.23 7.061 7.061 0 0 1 2.381.403 3.883 3.883 0 0 1 1.897 1.436l-1.988 1.848Zm3.674-7.516a1.77 1.77 0 0 1 .536-1.299c.36-.364.853-.56 1.36-.545a1.966 1.966 0 0 1 1.386.545c.358.337.562.81.562 1.307 0 .497-.204.97-.562 1.307a1.965 1.965 0 0 1-1.385.52c-.508.017-1-.18-1.361-.544a1.777 1.777 0 0 1-.536-1.29Zm.425 4.14h2.996v12.186h-2.996V48.2Zm4.67 6.091a6.547 6.547 0 0 1 .532-2.627 5.994 5.994 0 0 1 3.456-3.312 7.298 7.298 0 0 1 5.099 0 5.994 5.994 0 0 1 3.456 3.312 7.007 7.007 0 0 1 0 5.245 5.994 5.994 0 0 1-3.456 3.312 7.298 7.298 0 0 1-5.1 0 5.994 5.994 0 0 1-3.455-3.3 6.547 6.547 0 0 1-.532-2.63Zm2.996 0c-.001.468.08.932.238 1.371.152.434.39.832.698 1.17a3.52 3.52 0 0 0 2.58 1.13 3.52 3.52 0 0 0 2.579-1.13c.308-.338.546-.736.698-1.17a4.06 4.06 0 0 0 0-2.739 3.412 3.412 0 0 0-.698-1.17 3.52 3.52 0 0 0-2.58-1.13 3.52 3.52 0 0 0-2.579 1.13 3.412 3.412 0 0 0-.698 1.17 3.997 3.997 0 0 0-.238 1.368ZM56.07 48.2h2.85v1.953h.047a4.28 4.28 0 0 1 1.302-1.586 3.79 3.79 0 0 1 2.38-.673c.7-.021 1.395.116 2.036.403.527.246.992.61 1.361 1.065.354.448.608.968.746 1.525.152.588.228 1.195.226 1.803v7.697h-2.996V54.22c0-.339 0-.718-.051-1.134a4.021 4.021 0 0 0-.262-1.165 2.197 2.197 0 0 0-.663-.916 1.886 1.886 0 0 0-1.222-.367 2.82 2.82 0 0 0-1.262.254c-.33.161-.62.396-.849.686a2.704 2.704 0 0 0-.488.988c-.1.382-.151.775-.15 1.17v6.652h-2.996L56.07 48.2Z"/><path fill="#F58320" d="M75.879 42.411H78.6l7.618 17.976H82.62l-1.647-4.115h-7.658l-1.587 4.115h-3.52l7.67-17.976Zm3.995 11.122-2.722-7.314-2.777 7.314h5.5Zm17.756 6.854h-2.848v-1.956h-.04a4.296 4.296 0 0 1-1.297 1.59c-.7.483-1.536.72-2.381.673-.7.017-1.394-.12-2.036-.404a3.659 3.659 0 0 1-1.36-1.065 4.061 4.061 0 0 1-.75-1.537 7.103 7.103 0 0 1-.227-1.803V48.2h2.996v6.168c0 .34 0 .718.052 1.13.028.401.116.796.261 1.17.137.356.361.672.651.916a1.88 1.88 0 0 0 1.234.367 2.82 2.82 0 0 0 1.27-.263c.33-.16.62-.394.85-.685.228-.293.395-.63.487-.993.101-.38.152-.772.151-1.166V48.2h2.996l-.008 12.187Zm1.025-9.597V48.2h2.472v-3.53h3v3.53h3.313v2.59h-3.294v5.333c-.025.504.09 1.005.333 1.444.227.36.671.537 1.338.537.294-.004.587-.034.877-.089a1.8 1.8 0 0 0 .746-.294v2.565a3.784 3.784 0 0 1-1.16.32 10.15 10.15 0 0 1-1.213.088 6.052 6.052 0 0 1-1.96-.266 2.632 2.632 0 0 1-1.19-.807 3.103 3.103 0 0 1-.6-1.36 9.72 9.72 0 0 1-.163-1.876V50.79h-2.5Zm13.149-.892h.052a3.53 3.53 0 0 1 1.234-1.383 3.919 3.919 0 0 1 2.285-.621 4.62 4.62 0 0 1 2.036.403c.527.245.993.61 1.36 1.065.355.448.61.968.75 1.525.153.588.23 1.195.227 1.803v7.697h-3V54.22c0-.339 0-.718-.047-1.134a4.308 4.308 0 0 0-.262-1.165 2.233 2.233 0 0 0-.667-.916 1.894 1.894 0 0 0-1.222-.367 2.82 2.82 0 0 0-1.262.254c-.33.16-.62.395-.849.686a2.704 2.704 0 0 0-.488.988c-.1.382-.151.775-.15 1.17v6.652h-2.997V41.19h3v8.71Z"/><path fill="#FFF" d="M51.393 36.566a17.285 17.285 0 0 1-3.87-3.082c-.33.42-.733.776-1.19 1.048a4.329 4.329 0 0 1-.793.355c6.158 6.837 16.137 8.46 24.085 3.918.376-.22.608-.627.608-1.067 0-.441-.232-.848-.608-1.068a1.173 1.173 0 0 0-1.19-.02 16.937 16.937 0 0 1-17.042-.084Zm-.004-30.24a16.983 16.983 0 0 1 4.57-1.852 4.466 4.466 0 0 1-.214-2.501c-8.9 2.009-15.265 9.987-15.363 19.255.001.44.233.846.608 1.066.376.22.838.219 1.213-.001.368-.21.6-.604.607-1.033.065-6.17 3.326-11.846 8.579-14.934Zm25.755 15.12a17.73 17.73 0 0 1-.706 4.95c.534.079 1.048.26 1.516.532.251.146.489.315.71.504 2.732-8.84-.885-18.43-8.73-23.148a1.197 1.197 0 0 0-1.19.036 1.239 1.239 0 0 0-.587 1.053c-.004.429.214.828.575 1.05 5.217 3.146 8.414 8.856 8.412 15.023ZM59.98 13.143c3.302-.001 6.281 2.02 7.546 5.123 1.266 3.102.568 6.673-1.767 9.049a8.068 8.068 0 0 1-8.9 1.801c-3.052-1.285-5.042-4.312-5.042-7.67.005-4.582 3.656-8.296 8.162-8.303m0-2.465c-5.849 0-10.59 4.821-10.59 10.768 0 5.946 4.741 10.767 10.59 10.767 5.85 0 10.59-4.82 10.59-10.767a10.855 10.855 0 0 0-3.1-7.615 10.499 10.499 0 0 0-7.49-3.153Z"/><ellipse cx="59.975" cy="2.872" fill="#F58320" rx="2.825" ry="2.872"/><ellipse cx="44.155" cy="30.728" fill="#F58320" rx="2.825" ry="2.872"/><ellipse cx="75.795" cy="30.728" fill="#F58320" rx="2.825" ry="2.872"/><path fill="#F58320" d="M62.32 19.48c.002-1.157-.817-2.149-1.94-2.347a2.337 2.337 0 0 0-2.606 1.544 2.398 2.398 0 0 0 1.054 2.873l-.738 3.805a.408.408 0 0 0 .084.339.394.394 0 0 0 .313.145h3.004a.394.394 0 0 0 .313-.145.408.408 0 0 0 .084-.34l-.742-3.804a2.384 2.384 0 0 0 1.174-2.07Z"/><path fill="#FFF" d="M3.086 65.835h1.026l2.873 6.78H5.629l-.622-1.551H2.116l-.603 1.55H.185l2.9-6.779Zm1.507 4.194-1.027-2.757-1.045 2.757h2.072Zm6.797 2.586h-1.074v-.737h-.018c-.107.23-.27.429-.49.598-.22.17-.518.254-.895.254-.301 0-.557-.05-.768-.149a1.386 1.386 0 0 1-.513-.402 1.577 1.577 0 0 1-.282-.58 2.688 2.688 0 0 1-.085-.679v-2.901h1.13v2.326c0 .128.006.27.019.427.012.156.045.303.099.44a.842.842 0 0 0 .245.345c.11.092.265.139.466.139.188 0 .347-.032.475-.096a.917.917 0 0 0 .32-.259c.085-.108.147-.233.184-.373.038-.14.057-.287.057-.44v-2.51h1.13v4.597Zm.393-3.62v-.976h.932v-1.331h1.13v1.33h1.244v.977h-1.243v2.011c0 .23.042.412.127.546.085.134.252.201.504.201.1 0 .21-.011.33-.033a.684.684 0 0 0 .282-.11v.967a1.47 1.47 0 0 1-.438.12 3.61 3.61 0 0 1-.457.033c-.301 0-.548-.034-.74-.1a.975.975 0 0 1-.451-.307 1.173 1.173 0 0 1-.226-.513 3.647 3.647 0 0 1-.062-.708v-2.107h-.932Zm4.97-.335h.02c.087-.191.242-.365.465-.522.223-.156.51-.234.862-.234.301 0 .557.05.768.153a1.454 1.454 0 0 1 .795.977c.057.217.085.443.085.68v2.9h-1.13v-2.326c0-.128-.006-.27-.019-.426a1.551 1.551 0 0 0-.099-.44.824.824 0 0 0-.25-.345c-.112-.093-.266-.14-.46-.14-.19 0-.348.033-.476.097a.917.917 0 0 0-.32.258 1.035 1.035 0 0 0-.184.374c-.038.14-.057.287-.057.44v2.509h-1.13v-7.24h1.13v3.285Zm4.292 2.633h1.15l-.801 2.528h-1.008zm4.582-5.458h2.6c.25 0 .498.03.743.091s.463.16.655.297c.191.137.347.315.466.532.12.217.179.478.179.785 0 .383-.107.699-.32.948a1.777 1.777 0 0 1-.838.536v.02c.207.025.4.084.579.176.179.093.331.211.457.355a1.684 1.684 0 0 1 .405 1.106c0 .37-.073.678-.217.924a1.735 1.735 0 0 1-.57.593c-.235.15-.505.257-.81.321a4.51 4.51 0 0 1-.928.096h-2.401v-6.78Zm1.187 2.758h1.083c.395 0 .692-.078.89-.234a.75.75 0 0 0 .296-.618c0-.294-.102-.512-.306-.656-.204-.144-.532-.215-.984-.215h-.98v1.723Zm0 2.988h1.092c.15 0 .312-.01.485-.03.173-.018.331-.063.476-.133a.942.942 0 0 0 .358-.302c.094-.13.14-.308.14-.531 0-.358-.114-.607-.343-.747-.23-.14-.585-.21-1.069-.21h-1.14v1.953Zm8.576 1.034h-1.073v-.737h-.019c-.106.23-.27.429-.49.598-.22.17-.517.254-.894.254-.301 0-.557-.05-.768-.149a1.386 1.386 0 0 1-.513-.402 1.577 1.577 0 0 1-.283-.58 2.688 2.688 0 0 1-.084-.679v-2.901h1.13v2.326c0 .128.006.27.019.427.012.156.045.303.099.44a.842.842 0 0 0 .245.345c.11.092.265.139.466.139.188 0 .347-.032.475-.096a.917.917 0 0 0 .32-.259c.085-.108.147-.233.184-.373.038-.14.057-.287.057-.44v-2.51h1.13v4.597Zm.94-4.596h1.13v4.596h-1.13v-4.596Zm-.16-1.561c0-.185.068-.347.203-.484a.69.69 0 0 1 .513-.206.74.74 0 0 1 .523.197c.14.13.211.295.211.493s-.07.362-.211.493a.74.74 0 0 1-.523.196.69.69 0 0 1-.513-.206.667.667 0 0 1-.203-.483Zm2.248-1.082h1.13v7.239h-1.13zm1.552 3.619v-.976h.932v-1.331h1.13v1.33h1.244v.977h-1.244v2.011c0 .23.043.412.128.546.084.134.252.201.503.201.1 0 .21-.011.33-.033a.684.684 0 0 0 .283-.11v.967a1.48 1.48 0 0 1-.438.12 3.61 3.61 0 0 1-.457.033c-.302 0-.548-.034-.74-.1a.975.975 0 0 1-.452-.307 1.173 1.173 0 0 1-.226-.513 3.647 3.647 0 0 1-.06-.708v-2.107h-.933Zm6.663 0H45.7v-.976h.933v-.652c0-.319.022-.608.066-.866.044-.259.127-.48.25-.666.122-.185.293-.327.512-.426.22-.099.506-.148.858-.148.257 0 .496.022.715.067l-.075.977a3.844 3.844 0 0 0-.235-.048 1.408 1.408 0 0 0-.236-.02.792.792 0 0 0-.377.077.58.58 0 0 0-.221.206.762.762 0 0 0-.104.302 2.69 2.69 0 0 0-.023.364v.833h1.045v.976h-1.045v3.62h-1.13v-3.62Zm2.323 1.322c0-.364.065-.695.193-.991.13-.297.303-.55.523-.762.22-.21.48-.373.782-.488.301-.115.621-.172.96-.172.34 0 .66.057.961.172.302.115.562.278.782.488.22.211.394.465.523.762.128.296.193.627.193.99 0 .365-.065.695-.193.992-.13.297-.303.55-.523.761-.22.21-.48.373-.782.488a2.674 2.674 0 0 1-.96.173c-.34 0-.66-.058-.961-.173a2.298 2.298 0 0 1-.782-.488 2.318 2.318 0 0 1-.523-.761 2.466 2.466 0 0 1-.193-.991Zm1.13 0c0 .178.03.35.09.517a1.302 1.302 0 0 0 .683.747 1.3 1.3 0 0 0 .556.115 1.293 1.293 0 0 0 .974-.422c.116-.127.204-.274.264-.44a1.517 1.517 0 0 0 0-1.034 1.302 1.302 0 0 0-.683-.747 1.293 1.293 0 0 0-.555-.115 1.293 1.293 0 0 0-.975.421 1.302 1.302 0 0 0-.264.44c-.06.167-.09.339-.09.518Zm4.481-2.298h1.13v.727h.019c.126-.268.305-.475.537-.622a1.466 1.466 0 0 1 1.003-.201c.066.013.133.029.202.048v1.11a3.122 3.122 0 0 0-.277-.062 1.553 1.553 0 0 0-.269-.024c-.264 0-.475.05-.636.149a1.14 1.14 0 0 0-.537.723 1.466 1.466 0 0 0-.042.287v2.46h-1.13V68.02Zm5.834-2.184h2.628c.44 0 .863.069 1.271.206.408.138.77.347 1.083.627.314.281.565.634.754 1.059.188.424.282.924.282 1.498 0 .581-.108 1.084-.325 1.508a3.219 3.219 0 0 1-.838 1.054 3.556 3.556 0 0 1-1.14.622 3.922 3.922 0 0 1-1.228.206H60.4v-6.78Zm2.072 5.688c.37 0 .72-.043 1.05-.13.33-.085.617-.22.862-.401.245-.182.438-.418.58-.709.14-.29.211-.643.211-1.058 0-.408-.063-.76-.188-1.053a1.83 1.83 0 0 0-.523-.714 2.168 2.168 0 0 0-.791-.402 3.675 3.675 0 0 0-1.003-.129h-1.083v4.596h.885Zm5.517-.804c.037.345.17.613.395.804.226.192.5.287.82.287.282 0 .52-.059.71-.177a1.98 1.98 0 0 0 .505-.445l.81.622c-.264.332-.56.569-.886.71-.326.14-.669.21-1.026.21-.34 0-.66-.058-.961-.173a2.298 2.298 0 0 1-.782-.488 2.318 2.318 0 0 1-.523-.761 2.466 2.466 0 0 1-.193-.991c0-.364.065-.695.193-.991.13-.297.303-.55.523-.762.22-.21.48-.373.782-.488a2.67 2.67 0 0 1 .96-.172c.315 0 .602.056.862.167.26.112.484.273.669.484.185.21.33.47.433.78.104.31.156.666.156 1.068v.316H67.99Zm2.316-.862c-.006-.338-.11-.605-.31-.8-.201-.194-.48-.292-.839-.292-.339 0-.607.1-.805.297-.198.198-.318.463-.362.795h2.316Zm1.213-1.838h1.234l1.205 3.217h.019l1.215-3.217h1.158l-1.78 4.596h-1.205zm7.551 1.273a1.03 1.03 0 0 0-.886-.47.934.934 0 0 0-.442.116.392.392 0 0 0-.217.373c0 .14.06.243.179.307.12.064.27.118.452.162.182.045.378.091.589.14.21.047.406.12.588.22.182.099.333.234.452.407.12.172.18.408.18.708 0 .275-.059.506-.175.694a1.38 1.38 0 0 1-.452.455 1.987 1.987 0 0 1-.626.25 3.238 3.238 0 0 1-.697.076 2.95 2.95 0 0 1-.97-.153 1.842 1.842 0 0 1-.791-.556l.753-.718c.144.166.3.302.466.407.167.105.37.158.608.158.081 0 .166-.01.254-.029a.818.818 0 0 0 .245-.096.586.586 0 0 0 .184-.167.398.398 0 0 0 .07-.235c0-.16-.06-.277-.179-.354a1.58 1.58 0 0 0-.452-.187 9.713 9.713 0 0 0-.588-.134 2.255 2.255 0 0 1-.59-.2 1.242 1.242 0 0 1-.451-.389c-.12-.166-.18-.395-.18-.69 0-.254.053-.476.156-.665a1.38 1.38 0 0 1 .41-.464c.17-.121.364-.21.584-.268a2.633 2.633 0 0 1 1.563.072c.295.105.534.285.716.54l-.753.69Zm1.787 2.001h1.149l-.801 2.528h-1.008zm4.477-5.917h1.13v3.227h.029a1.625 1.625 0 0 1 .537-.46c.125-.07.27-.128.433-.172.163-.045.352-.067.565-.067a2.064 2.064 0 0 1 1.578.699c.191.217.34.472.447.766.107.293.16.61.16.948 0 .338-.05.654-.15.948a2.223 2.223 0 0 1-.443.766 2.08 2.08 0 0 1-.707.512 2.245 2.245 0 0 1-.932.187c-.32 0-.619-.064-.895-.192a1.463 1.463 0 0 1-.66-.613h-.018v.69h-1.074v-7.24Zm3.749 4.94c0-.178-.03-.35-.09-.516a1.302 1.302 0 0 0-.682-.747 1.293 1.293 0 0 0-.556-.115 1.293 1.293 0 0 0-.975.421 1.302 1.302 0 0 0-.264.44 1.517 1.517 0 0 0 0 1.034 1.302 1.302 0 0 0 .683.748c.163.076.349.115.556.115a1.293 1.293 0 0 0 .975-.422c.116-.127.204-.274.263-.44.06-.166.09-.339.09-.517Zm1.212-2.297h1.243l1.262 3.188h.02l1.13-3.188h1.177L92.989 73.6a3.54 3.54 0 0 1-.269.57 1.63 1.63 0 0 1-.343.412 1.291 1.291 0 0 1-.467.249 2.241 2.241 0 0 1-.645.08c-.295 0-.584-.037-.866-.114l.141-1.034c.088.032.18.059.278.081.097.023.196.034.297.034.138 0 .254-.013.348-.039a.633.633 0 0 0 .24-.12.651.651 0 0 0 .165-.21c.044-.086.091-.19.141-.311l.217-.546-1.93-4.634Zm7.671-2.184h2.628c.439 0 .863.069 1.271.206.408.138.77.347 1.083.627.314.281.565.634.754 1.059.188.424.282.924.282 1.498 0 .581-.108 1.084-.325 1.508a3.219 3.219 0 0 1-.838 1.054 3.556 3.556 0 0 1-1.14.622 3.922 3.922 0 0 1-1.229.206h-2.486v-6.78Zm2.072 5.688c.37 0 .72-.043 1.05-.13.33-.085.617-.22.862-.401.245-.182.438-.418.579-.709.141-.29.212-.643.212-1.058 0-.408-.063-.76-.188-1.053a1.83 1.83 0 0 0-.523-.714 2.168 2.168 0 0 0-.791-.402 3.675 3.675 0 0 0-1.003-.129h-1.083v4.596h.885Zm5.516-.804c.038.345.17.613.396.804.226.192.499.287.82.287.282 0 .519-.059.71-.177.192-.118.36-.266.504-.445l.81.622c-.264.332-.559.569-.885.71-.327.14-.669.21-1.027.21-.339 0-.659-.058-.96-.173a2.298 2.298 0 0 1-.782-.488 2.318 2.318 0 0 1-.523-.761 2.466 2.466 0 0 1-.193-.991c0-.364.064-.695.193-.991.129-.297.303-.55.523-.762.22-.21.48-.373.782-.488.301-.115.621-.172.96-.172.314 0 .601.056.862.167.26.112.484.273.669.484.185.21.33.47.433.78.104.31.155.666.155 1.068v.316h-3.447Zm2.317-.862c-.006-.338-.11-.605-.31-.8-.202-.194-.48-.292-.839-.292-.339 0-.607.1-.805.297-.198.198-.319.463-.363.795h2.317Zm1.213-1.838h1.233l1.206 3.217h.019l1.215-3.217h1.158l-1.78 4.596h-1.205zm7.55 1.273a1.03 1.03 0 0 0-.885-.47.934.934 0 0 0-.443.116.392.392 0 0 0-.216.373c0 .14.06.243.179.307s.27.118.452.162c.182.045.378.091.588.14.21.047.407.12.59.22.181.099.332.234.451.407.12.172.18.408.18.708 0 .275-.059.506-.175.694a1.38 1.38 0 0 1-.452.455 1.987 1.987 0 0 1-.627.25 3.238 3.238 0 0 1-.696.076 2.95 2.95 0 0 1-.97-.153 1.842 1.842 0 0 1-.792-.556l.754-.718c.144.166.3.302.466.407.166.105.369.158.607.158.082 0 .167-.01.255-.029a.818.818 0 0 0 .245-.096.586.586 0 0 0 .183-.167.398.398 0 0 0 .07-.235c0-.16-.059-.277-.178-.354a1.58 1.58 0 0 0-.452-.187 9.713 9.713 0 0 0-.589-.134 2.255 2.255 0 0 1-.588-.2 1.242 1.242 0 0 1-.452-.389c-.12-.166-.18-.395-.18-.69 0-.254.052-.476.156-.665a1.38 1.38 0 0 1 .41-.464c.17-.121.364-.21.584-.268a2.633 2.633 0 0 1 1.563.072c.295.105.534.285.716.54l-.754.69Zm1.41 2.653c0-.205.074-.38.222-.527a.727.727 0 0 1 .532-.22c.2 0 .377.07.527.21a.68.68 0 0 1 .226.517c0 .205-.073.38-.22.527a.727.727 0 0 1-.533.22.739.739 0 0 1-.287-.057.817.817 0 0 1-.24-.153.712.712 0 0 1-.227-.517Z"/></g></svg>