<?xml version="1.0" encoding="UTF-8"?>
<svg width="535px" height="310px" viewBox="0 0 535 310" version="1.1" xmlns="http://www.w3.org/2000/svg" xmlns:xlink="http://www.w3.org/1999/xlink">
    <!-- Generator: Sketch 60.1 (88133) - https://sketch.com -->
    <title>all-client-logos</title>
    <desc>Created with Sketch.</desc>
    <defs>
        <path d="M248.872576,175.243902 C253.664239,175.552042 256.060241,178.016104 256.060241,182.329003 C256.060241,189.721892 250.370163,194.03444 245.278572,193.7263 L239.888421,193.7263 L238.69042,200.195122 L233,200.195122 L237.792005,175.243902 L248.872576,175.243902 Z M246.476915,179.86459 L242.583668,179.86459 L241.086422,189.105964 L244.680084,189.105964 C247.37533,188.797825 249.771333,187.873758 250.070577,182.636791 C250.070577,180.788657 248.573332,179.86459 246.476915,179.86459 L246.476915,179.86459 Z M256.060241,192.95122 L260.828609,168 L266.491365,168 L265.299188,174.468561 L270.663474,174.468561 C275.432182,174.776705 277.220278,177.240802 276.624359,180.321538 L274.538134,192.95122 L268.577589,192.95122 L270.663814,181.553762 C270.961603,180.013394 270.961603,179.089314 268.875719,179.089314 L264.40514,179.089314 L261.722997,192.95122 L256.060241,192.95122 L256.060241,192.95122 Z M291.8121,176.04878 C296.604033,176.35692 299,178.820982 299,183.133881 C299,190.52677 293.309664,194.839318 288.218491,194.531178 L282.827737,194.531178 L281.629753,201 L275.939759,201 L280.731351,176.04878 L291.8121,176.04878 Z M289.416474,180.669468 L285.522943,180.669468 L284.02572,189.910842 L287.61967,189.910842 C290.314877,189.602703 292.710843,188.678636 293.010083,183.441669 C293.010083,181.593535 291.51286,180.669468 289.416474,180.669468 L289.416474,180.669468 Z" id="path-1"></path>
        <filter x="-10.6%" y="-15.2%" width="121.2%" height="142.4%" filterUnits="objectBoundingBox" id="filter-2">
            <feOffset dx="0" dy="2" in="SourceAlpha" result="shadowOffsetOuter1"></feOffset>
            <feGaussianBlur stdDeviation="2" in="shadowOffsetOuter1" result="shadowBlurOuter1"></feGaussianBlur>
            <feColorMatrix values="0 0 0 0 0   0 0 0 0 0   0 0 0 0 0  0 0 0 0.5 0" type="matrix" in="shadowBlurOuter1"></feColorMatrix>
        </filter>
        <filter x="-20.7%" y="-18.8%" width="141.4%" height="137.5%" filterUnits="objectBoundingBox" id="filter-3">
            <feOffset dx="0" dy="2" in="SourceAlpha" result="shadowOffsetOuter1"></feOffset>
            <feGaussianBlur stdDeviation="2" in="shadowOffsetOuter1" result="shadowBlurOuter1"></feGaussianBlur>
            <feColorMatrix values="0 0 0 0 0   0 0 0 0 0   0 0 0 0 0  0 0 0 0.5 0" type="matrix" in="shadowBlurOuter1" result="shadowMatrixOuter1"></feColorMatrix>
            <feMerge>
                <feMergeNode in="shadowMatrixOuter1"></feMergeNode>
                <feMergeNode in="SourceGraphic"></feMergeNode>
            </feMerge>
        </filter>
        <path d="M32.6809101,0 C15.9675548,0 17.0111083,7.23177439 17.0111083,7.23177439 L17.0296696,14.7241139 L32.9789209,14.7241139 L32.9789209,16.9735134 L10.6948769,16.9735134 C10.6948769,16.9735134 0,15.7632876 0,32.5894132 C0,49.4160533 9.33475127,48.8193001 9.33475127,48.8193001 L14.9056978,48.8193001 L14.9056978,41.0110929 C14.9056978,41.0110929 14.6053668,31.6971128 24.0914437,31.6971128 L39.9102509,31.6971128 C39.9102509,31.6971128 48.7977281,31.840385 48.7977281,23.1267592 L48.7977281,8.71928467 C48.7977281,8.71928467 50.1475419,0 32.6809101,0 Z M23.8864968,5.03844795 C24.6476807,5.03776581 25.3778853,5.33916954 25.9161238,5.8762104 C26.4543623,6.41325125 26.7564382,7.14183105 26.7557546,7.90132121 C26.7564382,8.66081137 26.4543623,9.38939117 25.9161238,9.92643203 C25.3778853,10.4634729 24.6476807,10.7648766 23.8864968,10.7641945 C23.1253129,10.7648766 22.3951083,10.4634729 21.8568698,9.92643203 C21.3186312,9.38939117 21.0165554,8.66081137 21.017239,7.90132121 C21.0165554,7.14183105 21.3186312,6.41325125 21.8568698,5.8762104 C22.3951083,5.33916954 23.1253129,5.03776581 23.8864968,5.03844795 L23.8864968,5.03844795 Z" id="path-4"></path>
        <filter x="-14.3%" y="-10.2%" width="128.7%" height="128.7%" filterUnits="objectBoundingBox" id="filter-5">
            <feOffset dx="0" dy="2" in="SourceAlpha" result="shadowOffsetOuter1"></feOffset>
            <feGaussianBlur stdDeviation="2" in="shadowOffsetOuter1" result="shadowBlurOuter1"></feGaussianBlur>
            <feColorMatrix values="0 0 0 0 0   0 0 0 0 0   0 0 0 0 0  0 0 0 0.5 0" type="matrix" in="shadowBlurOuter1"></feColorMatrix>
        </filter>
        <path d="M33.3193397,66 C50.0326991,66 48.9891453,58.7682256 48.9891453,58.7682256 L48.9705841,51.2761434 L33.021071,51.2761434 L33.021071,49.0267439 L55.3051205,49.0267439 C55.3051205,49.0267439 66,50.2369697 66,33.4103296 C66,16.5839468 56.6652464,17.1807 56.6652464,17.1807 L51.0942985,17.1807 L51.0942985,24.9886499 C51.0942985,24.9886499 51.3946296,34.30263 41.9085504,34.30263 L26.0897393,34.30263 C26.0897393,34.30263 17.2022599,34.1593578 17.2022599,42.8732408 L17.2022599,57.2809726 C17.2022599,57.2809726 15.8527036,66 33.3190819,66 L33.3193397,66 Z M42.1137551,60.9620665 C41.352571,60.9627486 40.6223663,60.6613449 40.0841276,60.1243041 C39.545889,59.5872632 39.243813,58.8586834 39.2444964,58.0991932 C39.2437445,57.3396585 39.5457902,56.6110126 40.0840363,56.0739161 C40.6222824,55.5368195 41.3525263,55.2353805 42.1137551,55.2360628 C42.8749392,55.2353806 43.605144,55.5367844 44.1433827,56.0738252 C44.6816213,56.6108661 44.9836973,57.3394459 44.9830136,58.098936 C44.9836973,58.8584262 44.6816213,59.587006 44.1433827,60.1240468 C43.605144,60.6610877 42.8749392,60.9624914 42.1137551,60.9618081 L42.1137551,60.9620665 Z" id="path-6"></path>
        <filter x="-14.3%" y="-10.2%" width="128.7%" height="128.7%" filterUnits="objectBoundingBox" id="filter-7">
            <feOffset dx="0" dy="2" in="SourceAlpha" result="shadowOffsetOuter1"></feOffset>
            <feGaussianBlur stdDeviation="2" in="shadowOffsetOuter1" result="shadowBlurOuter1"></feGaussianBlur>
            <feColorMatrix values="0 0 0 0 0   0 0 0 0 0   0 0 0 0 0  0 0 0 0.5 0" type="matrix" in="shadowBlurOuter1"></feColorMatrix>
        </filter>
        <path d="M29,43.0281924 L29,46.0016584 L38.2264017,46.0016584 L38.2264017,73 L44.7735983,73 L44.7735983,46.0016584 L54,46.0016584 L54,43.0829187 C54,41.4411277 54,40.1094527 53.9290277,40.0729685 C53.9290277,40.0182421 48.3044713,40 41.4733854,40 L29.0532292,40.0547264 L29.0532292,43.0464345 L29,43.0281924 Z M70.8344456,40.3625606 C72.6505548,40.8034741 74.0393442,41.6485581 75.2856937,42.9896698 C75.9444784,43.7245255 76.923753,45.010523 76.994973,45.3412081 C76.994973,45.4514364 73.9147093,47.6008894 72.0451851,48.7950299 C71.9739651,48.8501441 71.6890852,48.5378304 71.4042053,48.0601742 C70.4783457,46.7006912 69.5346811,46.1128066 68.0568667,46.0025782 C65.9202676,45.8556071 64.4958682,47.0130048 64.4958682,48.9420011 C64.4958682,49.5298857 64.6026981,49.8605707 64.8163581,50.3382269 C65.2970929,51.3486536 66.1873425,51.9549095 68.9471163,53.2041642 C74.0393442,55.4638455 76.2471633,56.9519284 77.5825378,59.0830099 C79.0959621,61.471291 79.434257,65.2190552 78.4193724,68.0298783 C77.2798529,71.0979009 74.502274,73.1738683 70.5317607,73.8536098 C69.2854112,74.0740665 66.4366124,74.0373237 65.1012379,73.7984956 C62.2524391,73.2473538 59.5282753,71.7776424 57.8546059,69.8853889 C57.1958212,69.1505332 55.9316667,67.1847942 56.0028867,67.0561944 L56.6794764,66.615281 L59.3502253,65.0169698 L61.3621895,63.8044579 L61.8251193,64.4474567 C62.4126841,65.4027691 63.7302535,66.6887666 64.4958682,67.12968 C66.8105172,68.3605633 69.9085859,68.1952208 71.4398153,66.7622522 C72.0986,66.1376248 72.3834799,65.4762547 72.3834799,64.557685 C72.3834799,63.7126009 72.258845,63.3268017 71.8493301,62.6838029 C71.2795704,61.8754617 70.1400508,61.2140915 66.9351522,59.7443801 C63.2495187,58.1276975 61.6826794,57.0988995 60.22267,55.5189597 C59.3858353,54.5636473 58.6202206,53.0755645 58.2641208,51.8446812 C57.9970459,50.7791404 57.9080209,48.1704026 58.1572908,47.1232332 C58.9229055,43.4489546 61.6114594,40.8769596 65.4573378,40.1421039 C66.7036873,39.8849044 69.6415111,39.9951328 70.8700555,40.3258178 L70.8344456,40.3625606 L70.8344456,40.3625606 Z" id="path-8"></path>
        <filter x="-14.0%" y="-14.7%" width="128.0%" height="141.2%" filterUnits="objectBoundingBox" id="filter-9">
            <feOffset dx="0" dy="2" in="SourceAlpha" result="shadowOffsetOuter1"></feOffset>
            <feGaussianBlur stdDeviation="2" in="shadowOffsetOuter1" result="shadowBlurOuter1"></feGaussianBlur>
            <feColorMatrix values="0 0 0 0 0   0 0 0 0 0   0 0 0 0 0  0 0 0 0.5 0" type="matrix" in="shadowBlurOuter1"></feColorMatrix>
        </filter>
        <path d="M343.000319,134.940936 L349.257975,131.135704 C350.465425,133.286418 351.563629,135.106227 354.197978,135.106227 C356.723081,135.106227 358.315445,134.113837 358.315445,130.253402 L358.315445,104 L366,104 L366,130.362526 C366,138.359739 361.334389,142 354.527311,142 C348.379859,142 344.811494,138.801051 343,134.940294 M370.000311,134.203363 L376.086012,130.60533 C377.688215,133.276967 379.770428,135.23953 383.453911,135.23953 C386.551132,135.23953 388.525847,133.658312 388.525847,131.477475 C388.525847,128.860723 386.497072,127.933693 383.080157,126.407678 L381.212007,125.58915 C375.819444,123.245558 372.242526,120.301396 372.242526,114.086294 C372.242526,108.361675 376.513515,104 383.187343,104 C387.938962,104 391.355878,105.690355 393.811534,110.106282 L387.991779,113.922906 C386.710202,111.57868 385.322682,110.651967 383.187032,110.651967 C380.997945,110.651967 379.609803,112.06948 379.609803,113.922906 C379.609803,116.212563 380.997945,117.139911 384.201109,118.557424 L386.06957,119.375 C392.423082,122.155774 396,124.990482 396,131.368655 C396,138.238579 390.714624,142 383.613914,142 C376.673518,142 372.188777,138.619924 370,134.20368" id="path-10"></path>
        <filter x="-13.2%" y="-13.2%" width="126.4%" height="136.8%" filterUnits="objectBoundingBox" id="filter-11">
            <feOffset dx="0" dy="2" in="SourceAlpha" result="shadowOffsetOuter1"></feOffset>
            <feGaussianBlur stdDeviation="2" in="shadowOffsetOuter1" result="shadowBlurOuter1"></feGaussianBlur>
            <feColorMatrix values="0 0 0 0 0   0 0 0 0 0   0 0 0 0 0  0 0 0 0.5 0" type="matrix" in="shadowBlurOuter1"></feColorMatrix>
        </filter>
        <filter x="-20.7%" y="-15.2%" width="141.4%" height="130.4%" filterUnits="objectBoundingBox" id="filter-12">
            <feOffset dx="0" dy="2" in="SourceAlpha" result="shadowOffsetOuter1"></feOffset>
            <feGaussianBlur stdDeviation="2" in="shadowOffsetOuter1" result="shadowBlurOuter1"></feGaussianBlur>
            <feColorMatrix values="0 0 0 0 0   0 0 0 0 0   0 0 0 0 0  0 0 0 0.5 0" type="matrix" in="shadowBlurOuter1" result="shadowMatrixOuter1"></feColorMatrix>
            <feMerge>
                <feMergeNode in="shadowMatrixOuter1"></feMergeNode>
                <feMergeNode in="SourceGraphic"></feMergeNode>
            </feMerge>
        </filter>
        <path d="M30.3154916,0.00700532609 C30.1107043,0.0443694565 29.9152262,0.133109565 29.7569809,0.268554239 L18.8101724,4.30388033 C18.6612363,4.35058609 18.5216092,4.42531435 18.400598,4.52806511 L7.60272562,14.6537445 C7.51429447,14.7284727 7.43982638,14.8172128 7.37932136,14.9152934 L0.304853277,27.0959999 C0.262965277,27.1567163 0.225731234,27.2174339 0.193151149,27.2828205 L0.155917106,27.3575488 C0.141954043,27.3715607 0.132646128,27.3809011 0.118683064,27.3949129 C0.118683064,27.4182652 0.118683064,27.4462889 0.118683064,27.4696412 C0.10472,27.4929935 0.0907581277,27.5210172 0.0814490213,27.5443695 C0.0674859574,27.5583813 0.0581780426,27.5677217 0.0442149787,27.5817336 C0.0442149787,27.5957454 0.0442149787,27.6050859 0.0442149787,27.6190977 C0.0302519149,27.64245 0.0162900426,27.6704737 0.00698093617,27.693826 C0.00698093617,27.7078378 0.00698093617,27.7171783 0.00698093617,27.7311901 C0.00698093617,27.7545424 0.00698093617,27.7825661 0.00698093617,27.8059184 C0.00698093617,27.8199302 0.00698093617,27.8292707 0.00698093617,27.8432825 C0.00698093617,27.8666348 0.00698093617,27.8946585 0.00698093617,27.9180108 C0.00698093617,27.9320226 0.00698093617,27.941363 0.00698093617,27.9553749 C-0.00232697872,28.0301032 -0.00232697872,28.1048314 0.00698093617,28.1795597 L0.00698093617,42.9757553 C0.00232697872,43.0271313 0.00232697872,43.0738359 0.00698093617,43.1252118 L0.00698093617,43.162576 C0.00232697872,43.2746684 0.0162900426,43.391431 0.0442149787,43.4988532 C0.286236255,48.7064791 2.40392272,51.756326 4.9591086,53.2508912 C7.38863047,54.6753984 9.99501345,54.8108442 11.6240022,54.8575488 C11.7496674,54.862219 11.9218746,54.8528786 12.0335767,54.8575488 L12.1452788,54.8575488 C12.210439,54.8482084 12.270944,54.8388667 12.331449,54.8201847 L12.3686831,54.8201847 L50.5335767,52.2046955 C50.6220078,52.2140372 50.7057838,52.2140372 50.794215,52.2046955 C50.9245341,52.1860135 51.0501993,52.1486493 51.1665554,52.0926032 C51.2456774,52.0505688 51.3201455,51.9991928 51.3899597,51.9431466 C51.4039227,51.9431466 51.4132306,51.9431466 51.4271937,51.9431466 C51.7902262,51.6629157 51.9670873,51.2005342 51.8740022,50.7474945 L54.7037894,13.383364 C54.7084434,13.3600117 54.6991355,13.331988 54.7037894,13.3086358 L54.8154916,11.8887988 C54.8341086,11.7253304 54.8244813,11.5618633 54.7782575,11.4030651 C54.7782575,10.1887309 54.6665554,8.98373826 54.3686831,7.81610859 C53.4517951,4.2384937 50.691822,1.15128152 45.544215,0.231190109 C45.4697469,0.212508043 45.3952788,0.198496196 45.3208107,0.193825978 C45.2975397,0.193825978 45.2696136,0.193825978 45.2463426,0.193825978 L30.687832,0.00700532609 C30.5994009,-0.0023351087 30.5156249,-0.0023351087 30.4271937,0.00700532609 C30.3899597,0.00700532609 30.3527256,0.00700532609 30.3154916,0.00700532609 Z M34.5229384,2.4356738 L40.7410235,2.51040207 L37.3154916,4.41597272 L34.5229384,2.4356738 Z M30.5016618,2.5477662 L35.937832,6.39627163 L32.0654916,18.7637988 L17.4325129,32.4390705 L5.48038519,35.1292879 L2.53889583,28.0301032 L9.35272562,16.2604021 L19.8527256,6.47099989 L30.5016618,2.5477662 Z M45.3952788,2.65985859 C49.5934177,3.4958813 51.3434177,5.63030696 52.0601724,8.41393467 C52.6605711,10.753863 52.3021937,13.5561728 51.650598,16.1483097 L39.3261299,6.02263033 L45.3952788,2.65985859 Z M37.9484703,7.96556511 L49.1931511,17.2318695 L34.7463426,18.2033368 L37.9484703,7.96556511 Z M50.6080448,19.5110814 C48.1180179,26.2646486 43.7802519,32.0047128 38.8420873,37.4084999 L34.5974065,20.5572771 L50.6080448,19.5110814 Z M32.437832,21.678201 L36.5708107,38.2305108 L20.3367682,32.9621684 L32.437832,21.678201 Z M51.5016618,23.8079564 L49.6399597,48.4682825 L39.9963426,39.8371684 C44.4923539,35.0078551 48.6486036,29.8189112 51.5016618,23.8079564 Z M2.38995966,33.9709999 L3.46974689,36.4743966 L2.38995966,38.4546955 L2.38995966,33.9709999 Z M18.8846405,35.0171955 L35.8261299,40.4723586 C29.5103057,46.1750587 22.5475397,50.6774364 13.7835767,52.0178749 L18.8846405,35.0171955 Z M16.3527256,35.1292879 L11.8474065,50.1496684 L6.41123626,37.3711358 L16.3527256,35.1292879 Z M4.62400221,39.2767064 L10.1718746,52.3167879 C8.85937515,52.1860135 7.43517243,51.9104527 6.15059796,51.1584999 C4.23769872,50.037576 2.62267302,47.9732084 2.4271937,43.3120325 L4.62400221,39.2767064 Z M38.2463426,41.5185542 L47.8154916,50.037576 L23.8367682,51.6442336 C29.2450134,49.1595189 33.9225397,45.511846 38.2463426,41.5185542 Z" id="path-13"></path>
        <filter x="-12.8%" y="-9.1%" width="125.5%" height="125.5%" filterUnits="objectBoundingBox" id="filter-14">
            <feOffset dx="0" dy="2" in="SourceAlpha" result="shadowOffsetOuter1"></feOffset>
            <feGaussianBlur stdDeviation="2" in="shadowOffsetOuter1" result="shadowBlurOuter1"></feGaussianBlur>
            <feColorMatrix values="0 0 0 0 0   0 0 0 0 0   0 0 0 0 0  0 0 0 0.5 0" type="matrix" in="shadowBlurOuter1"></feColorMatrix>
        </filter>
        <path d="M21.1669988,0 C27.8368084,0 34.0036265,3.0693355 38,8.29199175 L30.2690835,12.735352 C27.9470532,10.2128915 24.6465995,8.75 21.1669988,8.75 C14.3593833,8.75 8.81958285,14.2460938 8.81958285,21 C8.81958285,27.7539062 14.3593833,33.25 21.1669988,33.25 C24.6465995,33.25 27.9470532,31.7871102 30.2690835,29.264648 L38,33.7080082 C34.0036265,38.9306645 27.8368084,42 21.1669988,42 C9.49483305,42 0,32.580079 0,21 C0,9.41992275 9.49483305,0 21.1669988,0 Z" id="path-15"></path>
        <filter x="-18.4%" y="-11.9%" width="136.8%" height="133.3%" filterUnits="objectBoundingBox" id="filter-16">
            <feOffset dx="0" dy="2" in="SourceAlpha" result="shadowOffsetOuter1"></feOffset>
            <feGaussianBlur stdDeviation="2" in="shadowOffsetOuter1" result="shadowBlurOuter1"></feGaussianBlur>
            <feColorMatrix values="0 0 0 0 0   0 0 0 0 0   0 0 0 0 0  0 0 0 0.5 0" type="matrix" in="shadowBlurOuter1"></feColorMatrix>
        </filter>
        <path d="M40.4,14 L40.4,17.2 L43.6,17.2 L43.6,14 L46.8,14 L46.8,17.2 L50,17.2 L50,20.4 L46.8,20.4 L46.8,23.6 L50,23.6 L50,26.8 L46.8,26.8 L46.8,30 L43.6,30 L43.6,26.8 L40.4,26.8 L40.4,30 L37.2,30 L37.2,26.8 L34,26.8 L34,23.6 L37.2,23.6 L37.2,20.4 L34,20.4 L34,17.2 L37.2,17.2 L37.2,14 L40.4,14 Z M43.6,20.4 L40.4,20.4 L40.4,23.6 L43.6,23.6 L43.6,20.4 Z" id="path-17"></path>
        <filter x="-43.8%" y="-31.2%" width="187.5%" height="187.5%" filterUnits="objectBoundingBox" id="filter-18">
            <feOffset dx="0" dy="2" in="SourceAlpha" result="shadowOffsetOuter1"></feOffset>
            <feGaussianBlur stdDeviation="2" in="shadowOffsetOuter1" result="shadowBlurOuter1"></feGaussianBlur>
            <feColorMatrix values="0 0 0 0 0   0 0 0 0 0   0 0 0 0 0  0 0 0 0.5 0" type="matrix" in="shadowBlurOuter1"></feColorMatrix>
        </filter>
    </defs>
    <g id="Page-1" stroke="none" stroke-width="1" fill="none" fill-rule="evenodd">
        <g id="all-client-logos">
            <circle id="Oval" fill="#E76F00" cx="480" cy="55" r="55"></circle>
            <circle id="Oval-Copy-2" fill="#007ACC" cx="55" cy="55" r="55"></circle>
            <circle id="Oval-Copy" fill="#8CC84B" cx="160" cy="121" r="55"></circle>
            <circle id="Oval-Copy-3" fill="#F7DF1E" cx="372" cy="121" r="55"></circle>
            <circle id="Oval-Copy-5" fill="#8993BE" cx="265" cy="186" r="55"></circle>
            <circle id="Oval-Copy-6" fill="#A22716" cx="265" cy="55" r="55"></circle>
            <circle id="Oval-Copy-7" fill="#366F9F" cx="480" cy="185" r="55"></circle>
            <g id="Shape-Copy" fill-rule="nonzero">
                <use fill="black" fill-opacity="1" filter="url(#filter-2)" xlink:href="#path-1"></use>
                <use fill="#FFFFFF" xlink:href="#path-1"></use>
            </g>
            <g id="nodejs-icon" filter="url(#filter-3)" transform="translate(132.000000, 90.000000)" fill="#FFFFFF" fill-rule="nonzero">
                <path d="M26.3831176,0.682789855 C27.967914,-0.225544018 30.0321102,-0.229646907 31.6155408,0.682789855 C39.5816352,5.19004055 47.5502336,9.69022515 55.5149623,14.2002111 C57.0130296,15.0451781 58.0150798,16.7145978 58,18.4430534 L58,45.5604096 C58.0109824,47.3604378 56.9099109,49.0697467 55.3294396,49.8955669 C47.3895232,54.3779723 39.4537042,58.8658483 31.5151536,63.3482537 C29.8975778,64.2743667 27.791952,64.2030221 26.2249112,63.2010056 C23.8445297,61.819244 21.4600508,60.4443205 19.0794417,59.0639266 C18.5929852,58.7735333 18.044612,58.5424039 17.7011104,58.0701159 C18.0047758,57.6602829 18.5476858,57.6092248 18.9888429,57.4302932 C19.9824706,57.113915 20.8950602,56.6060686 21.8078774,56.1132661 C22.0386995,55.955077 22.3205119,56.0157085 22.5417733,56.1572582 C24.5772875,57.3258975 26.5948184,58.5284997 28.6371616,59.68597 C29.0728554,59.9378418 29.5140124,59.6034564 29.8864236,59.3955767 C37.6779219,54.9861115 45.4789808,50.5932858 53.2691132,46.182453 C53.5577547,46.0434107 53.7173269,45.7366058 53.6938805,45.4199996 C53.6993438,36.4745635 53.6952463,27.5275319 53.6966121,18.5820958 C53.7296192,18.2228651 53.5220159,17.8925826 53.1976357,17.7455624 C45.2852632,13.2836715 37.3769881,8.81494232 29.4659814,4.35191165 C29.1854284,4.15877799 28.8151599,4.15823461 28.5340428,4.35054402 C20.6230361,8.81494232 12.7161268,13.2877743 4.8051201,17.7494374 C4.48187809,17.8966855 4.26494173,18.2214975 4.30341208,18.5820958 C4.30477789,27.5275319 4.30341208,36.4745635 4.30341208,45.4213672 C4.27531659,45.7377591 4.44699779,46.0381918 4.73364264,46.1742472 C6.84473165,47.3729744 8.95855228,48.5632679 11.0710071,49.7578922 C12.261084,50.3993104 13.7222745,50.7804231 15.0334533,50.2889883 C16.1905231,49.8734569 17.0015874,48.6911413 16.9795068,47.4609586 C16.9904333,38.5677203 16.9740436,29.6731145 16.9877017,20.7812439 C16.958792,20.3864548 17.3327967,20.0602752 17.7161344,20.0974292 C18.7304769,20.090591 19.7461852,20.0837529 20.7605278,20.1001644 C21.1839293,20.090591 21.4753024,20.5156958 21.4229463,20.913448 C21.4188488,29.862987 21.4338727,38.812754 21.4161172,47.7622929 C21.4188488,50.1474386 20.440245,52.7427434 18.2369637,53.9097872 C15.5226414,55.3177617 12.1677536,55.0191626 9.48621071,53.6690844 C7.16478676,52.5088788 4.94944083,51.1396538 2.66921885,49.8967066 C1.0846501,49.0754451 -0.0109582,47.3592981 0,45.5606375 L0,18.4430534 C-0.0164214452,16.6788115 1.02546495,14.9790761 2.57019753,14.1464177 C10.5087481,9.66036524 18.4459329,5.17089373 26.3831176,0.682789855 Z" id="Path"></path>
                <path d="M33.7340714,19.0884585 C37.2467234,18.8651342 41.0071779,18.956152 44.1681028,20.6654156 C46.615412,21.9752503 47.9722056,24.7242609 48.0153921,27.4098555 C47.9470328,27.7721017 47.5636664,27.9719302 47.2135559,27.9470657 C46.1944019,27.945697 45.1750169,27.9607525 44.1558628,27.9402222 C43.7235364,27.9566465 43.4722698,27.5629205 43.417998,27.1853906 C43.1251616,25.9004204 42.4157028,24.6277683 41.1912399,24.0079806 C39.31159,23.0784131 37.1321754,23.1251767 35.082551,23.1445664 C33.5862675,23.2230379 31.9772835,23.3510102 30.7096341,24.2201273 C29.7364378,24.8784664 29.44083,26.2074628 29.7881692,27.2777771 C30.1156472,28.0462956 31.0137868,28.2942563 31.7486493,28.5228272 C35.9818454,29.6164092 40.4676937,29.5075985 44.6200594,30.9467743 C46.3392035,31.5334853 48.0209347,32.6740589 48.609379,34.4519851 C49.379114,36.8348715 49.0417054,39.6831119 47.3253326,41.596082 C45.9334356,43.1703017 43.9062128,44.0271006 41.8843016,44.4924546 C39.1945016,45.0848685 36.4030865,45.0999241 33.6714857,44.8369078 C31.1029311,44.5476584 28.4299899,43.8811072 26.4471083,42.1524538 C24.7515204,40.6982224 23.9233567,38.4323589 24.0055726,36.245423 C24.0252028,35.8761053 24.3974839,35.6185638 24.7556774,35.648903 C25.7819907,35.6406909 26.808304,35.6379535 27.8346174,35.6502717 C28.2445422,35.6213012 28.548464,35.9712291 28.5694799,36.3528651 C28.7588536,37.5771568 29.2246668,38.862127 30.3054828,39.5879881 C32.3913653,40.9172126 35.0086491,40.8261948 37.3970677,40.8633775 C39.3757924,40.7766939 41.5970078,40.7504607 43.2117654,39.458647 C44.0637163,38.7218365 44.3161377,37.4891045 44.0858869,36.4285992 C43.8364678,35.5332489 42.8882134,35.1160271 42.0739063,34.8432018 C37.8949821,33.5374732 33.359019,34.0112674 29.2205098,32.5346809 C27.5403952,31.9481979 25.9157071,30.8393322 25.2702197,29.1344028 C24.3695397,26.7214053 24.7822359,23.7367522 26.6785137,21.8883386 C28.5274481,20.049734 31.1964632,19.3416659 33.7340714,19.0882304 L33.7340714,19.0884585 Z" id="Path"></path>
            </g>
            <g id="integrate-go" transform="translate(0.000000, 131.000000)" fill-rule="nonzero">
                <circle id="Oval-Copy-13" fill="#3ABCAF" cx="55" cy="55" r="55"></circle>
                <path d="M12.1827411,46.9473684 C12,46.9473684 11.9543147,46.8421053 12.0456853,46.6842106 L13.0050761,45.2631579 C13.0964467,45.1052631 13.3248731,45 13.5076142,45 L29.8172588,45 C30,45 30.0456853,45.1578947 29.9543147,45.3157894 L29.1776649,46.6842106 C29.0862944,46.8421053 28.857868,47 28.7208121,47 L12.1827411,46.9473684 Z" id="Shape" fill="#FFFFFF"></path>
                <path d="M6.17804582,52 C6,52 5.95548854,51.891892 6.04451146,51.7297298 L6.97925192,50.2702703 C7.0682748,50.108108 7.2908321,50 7.46887786,50 L27.7660997,50 C27.9441455,50 28.0331684,50.1621622 27.988657,50.3243243 L27.6325653,51.6216217 C27.5880539,51.8378378 27.4100081,51.945946 27.2319623,51.945946 L6.17804582,52 Z" id="Shape" fill="#FFFFFF"></path>
                <path d="M17.1684376,55.9473684 C17,55.9473684 16.9578906,55.7894737 17.0421094,55.631579 L17.9043725,54.3157894 C17.9885914,54.1578947 18.1570289,54 18.3254664,54 L26.7473436,54 C26.9157812,54 27,54.1578947 27,54.368421 L26.9157812,55.631579 C26.9157812,55.8421053 26.7473436,56 26.6210155,56 L17.1684376,55.9473684 Z" id="Shape" fill="#FFFFFF"></path>
                <g id="Group" transform="translate(29.000000, 37.000000)" fill="#FFFFFF">
                    <path d="M32.1531965,9.35928335 C29.4115719,10.0579222 27.5403042,10.5819014 24.8421975,11.2805402 C24.1894296,11.4551999 24.1459118,11.4988649 23.5801797,10.8438909 C22.9274119,10.1015871 22.4487156,9.62127293 21.5348407,9.18462365 C18.793216,7.8310109 16.1386271,8.22399521 13.6581095,9.8395976 C10.6988956,11.7608544 9.17577074,14.5990748 9.21928861,18.135934 C9.26280648,21.6291281 11.6562883,24.5110134 15.0941986,24.9913276 C18.0534125,25.384312 20.5339301,24.3363537 22.4922334,22.1094424 C22.8838941,21.6291281 23.2320369,21.105149 23.6672154,20.4938401 C22.1005728,20.4938401 20.1422695,20.4938401 15.26827,20.4938401 C14.3543951,20.4938401 14.1368058,19.9261959 14.4414308,19.1838922 C15.0071629,17.8302794 16.0515914,15.5597032 16.6608413,14.4244151 C16.7913948,14.1624254 17.0960198,13.7257762 17.7487876,13.7257762 C19.9681981,13.7257762 28.1495542,13.7257762 33.5892857,13.7257762 C33.50225,14.9047292 33.50225,16.0836824 33.3281786,17.2626354 C32.8494822,20.4065102 31.6745002,23.2883954 29.7597147,25.8209613 C26.6264294,29.9691294 22.5357513,32.5453602 17.3571269,33.243999 C13.0923774,33.8116432 9.13225288,32.9820095 5.65082474,30.3621138 C2.4305037,27.9168778 0.602753922,24.6856732 0.12405755,20.6684998 C-0.441674526,15.9090227 0.950896739,11.6298597 3.82307496,7.87467581 C6.91284248,3.81383749 11.0035206,1.23760674 16.0080735,0.320643241 C20.0987517,-0.421660538 24.0153582,0.0586536725 27.5403042,2.46022472 C29.8467504,3.9884972 31.5004288,6.08441372 32.588375,8.61697958 C32.8494822,9.00996395 32.6754108,9.22828856 32.1531965,9.35928335 Z" id="Shape"></path>
                    <path d="M46.8285349,34 C42.8533867,33.9118466 39.2277021,32.7658533 36.1698958,30.121253 C33.592602,27.8733429 31.9763329,25.0083594 31.4521375,21.6144558 C30.6658445,16.6337921 32.0200158,12.2261251 34.9904562,8.3033015 C38.1793114,4.07194121 42.0234106,1.86810772 47.2216814,0.942497651 C51.677342,0.149117595 55.8709049,0.589884296 59.6713213,3.19040781 C63.1222739,5.57054798 65.2627387,8.7881449 65.8306169,13.0195052 C66.5732271,18.9698557 64.8695921,23.8182893 60.8070782,27.9614962 C57.9240034,30.9146331 54.3856846,32.7658533 50.3231706,33.60331 C49.1437311,33.8236934 47.9642915,33.86777 46.8285349,34 Z M57.2250762,16.1930254 C57.1813933,15.6200287 57.1813933,15.179262 57.0940274,14.7384953 C56.3077344,10.374905 52.3325862,7.90661148 48.1827062,8.87629822 C44.1201921,9.8019083 41.4992153,12.4024318 40.5381905,16.5456387 C39.7518975,19.9836189 41.4118494,23.4656759 44.5570216,24.8761294 C46.9595837,25.9339694 49.3621458,25.8017394 51.677342,24.6116693 C55.1282947,22.8045259 57.0066616,19.9836189 57.2250762,16.1930254 Z" id="Shape"></path>
                </g>
            </g>
            <g id="python-5" transform="translate(446.000000, 152.000000)" fill-rule="nonzero">
                <g id="Shape">
                    <use fill="black" fill-opacity="1" filter="url(#filter-5)" xlink:href="#path-4"></use>
                    <use fill="#FFFFFF" xlink:href="#path-4"></use>
                </g>
                <g id="Shape">
                    <use fill="black" fill-opacity="1" filter="url(#filter-7)" xlink:href="#path-6"></use>
                    <use fill="#FFFFFF" xlink:href="#path-6"></use>
                </g>
            </g>
            <g id="Shape-Copy-2" fill-rule="nonzero">
                <use fill="black" fill-opacity="1" filter="url(#filter-9)" xlink:href="#path-8"></use>
                <use fill="#FFFFFF" xlink:href="#path-8"></use>
            </g>
            <g id="Shape-Copy-3" fill-rule="nonzero">
                <use fill="black" fill-opacity="1" filter="url(#filter-11)" xlink:href="#path-10"></use>
                <use fill="#FFFFFF" xlink:href="#path-10"></use>
            </g>
            <g id="java-14" filter="url(#filter-12)" transform="translate(449.000000, 9.000000)" fill="#FFFFFF" fill-rule="nonzero">
                <path d="M19.0618069,61.5491985 C19.0618069,61.5491985 16.0822318,63.2844051 21.1823668,63.8715492 C27.3611812,64.5773882 30.5188807,64.476328 37.3280159,63.1856057 C37.3280159,63.1856057 39.1182895,64.309703 41.6181255,65.2834534 C26.3542934,71.834734 7.07261777,64.9038558 19.0618069,61.5491985 M17.1965811,53 C17.1965811,53 13.8546618,55.4774453 18.9586348,56.0060333 C25.5589424,56.6879073 30.7712799,56.7437504 39.7908273,55.0044744 C39.7908273,55.0044744 41.0383749,56.2710056 43,56.9637317 C24.5448302,62.3680804 3.9891932,57.3899029 17.1965811,53" id="Shape"></path>
                <path d="M32.5699521,37.6575728 C36.4621984,42.048565 31.5473613,46 31.5473613,46 C31.5473613,46 41.4300692,41.000725 36.8913735,34.7402416 C32.6524228,28.9023741 29.4014859,26.0012973 47,16 C47,16 19.3762647,22.7604795 32.5699521,37.6573439" id="Path"></path>
                <path d="M53.0494018,67.3869048 C53.0494018,67.3869048 55.2746099,69.1989432 50.5986426,70.6009254 C41.7073787,73.2632505 13.5918836,74.0671497 5.78144164,70.706986 C2.97390193,69.5000113 8.23903565,67.8246583 9.89512639,67.4729242 C11.6222999,67.1027253 12.6094839,67.1718561 12.6094839,67.1718561 C9.48708422,64.9977253 -7.57231356,71.4406285 3.94422666,73.2855435 C35.3511708,78.319709 61.1958919,71.0188629 53.0494018,67.3869048 M20.1362785,43.7513669 C20.1362785,43.7513669 5.83520935,47.1088284 15.0720902,48.3277378 C18.9720711,48.8438546 26.7467439,48.7272104 33.9887519,48.1273259 C39.9072999,47.6341776 45.8502256,46.5848302 45.8502256,46.5848302 C45.8502256,46.5848302 43.7633098,47.4682186 42.2534854,48.4871665 C27.7307384,52.2623403 -0.324609798,50.506147 7.75216456,46.6445034 C14.582713,43.381168 20.1365064,43.7513669 20.1365064,43.7513669 M45.7912178,57.9247632 C60.5545526,50.3424398 53.7285607,43.0560054 48.9641957,44.0377982 C47.796343,44.2778421 47.2757532,44.4859101 47.2757532,44.4859101 C47.2757532,44.4859101 47.7093122,43.8148682 48.5372437,43.5243836 C57.9625393,40.2491135 65.2113822,53.1840096 45.4945842,58.306897 C45.4945842,58.307122 45.7230969,58.1053591 45.7912178,57.9247632" id="Shape"></path>
                <path d="M36.9319446,0 C36.9319446,0 44.9923207,8.14730392 29.2870865,20.6745127 C16.6932963,30.7237847 26.4152953,36.4535173 29.2819206,43 C21.9306204,36.2985186 16.535624,30.3990363 20.155123,24.9084965 C25.4672404,16.8483368 40.1839909,12.94069 36.9319446,0" id="Path"></path>
                <path d="M21.9910442,78.7677279 C35.9915758,79.6194692 57.4908406,78.2952276 58,72 C58,72 57.0212976,74.3866722 46.4293425,76.2818071 C34.4796291,78.4186466 19.7414692,78.1692417 11,76.7996538 C11,76.7996538 12.7894858,78.2071017 21.9912693,78.7677279" id="Path"></path>
            </g>
            <g id="icons8-ruby-programming-language" transform="translate(237.000000, 27.000000)" fill-rule="nonzero">
                <g id="Shape">
                    <use fill="black" fill-opacity="1" filter="url(#filter-14)" xlink:href="#path-13"></use>
                    <use fill="#FFFFFF" xlink:href="#path-13"></use>
                </g>
            </g>
            <g id="integrate-net" transform="translate(105.000000, 200.000000)" fill-rule="nonzero">
                <circle id="Oval-Copy-13" fill="#632294" cx="55" cy="55" r="55"></circle>
                <g id="Group-5" transform="translate(15.000000, 39.000000)" fill="#FFFFFF">
                    <polygon id="Fill-2" points="25.1634473 0 25.1634473 22.7690341 11.3037982 0 7.72180451 0 7.72180451 29 11.0700218 29 11.0700218 6.21147381 24.9292845 29 28.5112782 29 28.5112782 0"></polygon>
                    <polygon id="Fill-3" points="34.4511278 0 34.4511278 29 55.2406015 29 55.2406015 25.5778036 38.1378326 25.5778036 38.1378326 15.7067886 53.5496209 15.7067886 53.5496209 12.3044664 38.1378326 12.3044664 38.1378326 3.42219645 54.594806 3.42219645 54.594806 0"></polygon>
                    <polygon id="Fill-4" points="58.2105263 0 58.2105263 3.42219645 66.8513948 3.42219645 66.8513948 29 70.3226442 29 70.3226442 3.42219645 79 3.42219645 79 0"></polygon>
                    <ellipse id="Oval" cx="2.07894737" cy="26.97" rx="2.07894737" ry="2.03"></ellipse>
                </g>
            </g>
            <circle id="Oval-Copy-4" fill="#CC2FF6" cx="370" cy="255" r="55"></circle>
            <g id="Group-10-Copy" transform="translate(348.000000, 235.000000)" fill-rule="nonzero">
                <g id="Group-10">
                    <g id="Path">
                        <use fill="black" fill-opacity="1" filter="url(#filter-16)" xlink:href="#path-15"></use>
                        <use fill="#FFFFFF" xlink:href="#path-15"></use>
                    </g>
                    <g id="Combined-Shape">
                        <use fill="black" fill-opacity="1" filter="url(#filter-18)" xlink:href="#path-17"></use>
                        <use fill="#FFFFFF" xlink:href="#path-17"></use>
                    </g>
                </g>
            </g>
        </g>
    </g>
</svg>