<svg xmlns="http://www.w3.org/2000/svg" viewBox="0 0 44.34 44.31"><path d="M38.77 4.62A4.62 4.62 0 0 0 34.16 0H4.62A4.62 4.62 0 0 0 0 4.62v2.76h38.77zm-32.3.92a.93.93 0 1 1 .92-.92.92.92 0 0 1-.92.92zm3.7 0a.93.93 0 0 1 0-1.85.93.93 0 1 1 0 1.85zm3.7 0a.93.93 0 1 1 .92-.92.93.93 0 0 1-.92.92zM0 9.23v17.54a4.62 4.62 0 0 0 4.62 4.62h13.9a13.82 13.82 0 0 1 20.26-11.32V9.23zM17.84 27.7H2.2v-2.93a.39.39 0 0 1 0-.18h0c.42-.95 3.62-2.36 5.33-3.06h0v-1.36A2 2 0 0 1 7 19.4h0a3.87 3.87 0 0 1-.32-1.08v-.54l-.12-.1a1.68 1.68 0 0 1-.36-.58h0a1.4 1.4 0 0 1-.1-.35h0a2.21 2.21 0 0 1 0-.37 1.84 1.84 0 0 1 0-.41.43.43 0 0 1 0-.05 1 1 0 0 1 .15-.34h0a.88.88 0 0 1 .26-.28 8 8 0 0 1-.31-.83h0l-.06-.25v-.56a.19.19 0 0 0 0-.08 1.16 1.16 0 0 1 0-.18.24.24 0 0 1 0-.08A1.07 1.07 0 0 1 6.2 13h0a.53.53 0 0 1 .1-.12h0l.14-.1.2-.1h.3a1.11 1.11 0 0 1 .26 0 2.2 2.2 0 0 1 .17-.25l.17-.2.15-.23.24-.2a3.42 3.42 0 0 1 .46-.26l.25-.1A5.06 5.06 0 0 1 10 11.1a3.62 3.62 0 0 1 .47 0 5.49 5.49 0 0 1 .58 0h.16l.38.06.25.06.3.1a.85.85 0 0 1 .17.06 3.52 3.52 0 0 1 .39.17h0a2.15 2.15 0 0 1 1.13 1.33 2.84 2.84 0 0 1 .07.88.37.37 0 0 0 0 .11 3.07 3.07 0 0 1-.07.42v.1a2.59 2.59 0 0 1-.14.45.08.08 0 0 1 0 0h0c0 .1-.08.2-.1.28a1.05 1.05 0 0 1 .24.27 1.56 1.56 0 0 1 .21.84 2.31 2.31 0 0 1 0 .37h0c0 .13-.06.24-.1.36h0a1.7 1.7 0 0 1-.37.58h0l-.12.1a2.72 2.72 0 0 1 0 .42v.12a3.87 3.87 0 0 1-.32 1.08h0a2.24 2.24 0 0 1-.6.75h0v1.5c1.72.7 4.9 2.1 5.33 3.06h0a.39.39 0 0 1 0 .18z" fill="#979797"/><path d="M32.34 44.3a12 12 0 1 0-12-12 12 12 0 0 0 12 12zm0-19a4 4 0 0 1 2.07 7.42l.92 6a.51.51 0 0 1-.11.4.49.49 0 0 1-.38.18h-5a.46.46 0 0 1-.38-.18.48.48 0 0 1-.12-.4l.93-6a4 4 0 0 1 2.07-7.42z" fill="#02b6d3"/></svg>