<svg xmlns="http://www.w3.org/2000/svg" viewBox="0 0 54.79 44.31"><path d="M54.47 24L49 18.5a1.08 1.08 0 0 0-.77-.31v-.45l-4.35 4.35 7 7 3.58-3.6a1.07 1.07 0 0 0 0-1.53zM28.7 42.92A1.09 1.09 0 0 0 29 44a1.05 1.05 0 0 0 .76.32 1.45 1.45 0 0 0 .3 0l7-2-6.35-6.34zm3.233-8.854L42.37 23.63l6.98 6.98-10.437 10.437z" fill="#02b6d3"/><path d="M38.93 0H4.53A4.53 4.53 0 0 0 0 4.53v4.52h43.46V4.53A4.54 4.54 0 0 0 38.93 0zM7.24 7.24a1.81 1.81 0 1 1 1.81-1.81 1.81 1.81 0 0 1-1.81 1.81zm5.43 0a1.81 1.81 0 1 1 1.82-1.81 1.82 1.82 0 0 1-1.82 1.81zm5.44 0a1.81 1.81 0 1 1 1.81-1.81 1.81 1.81 0 0 1-1.81 1.81zM43.46 18.9v-8H0v19a4.53 4.53 0 0 0 4.53 4.49H28zM15.4 14.5h18.1a.91.91 0 0 1 0 1.81H15.4a.91.91 0 0 1 0-1.81zm0 5.43h18.1a.91.91 0 0 1 0 1.81H15.4a.91.91 0 0 1 0-1.81zM10 27.16H8.15a.91.91 0 1 1 0-1.81H10a.91.91 0 0 1 0 1.81zm0-5.43H8.15a.91.91 0 1 1 0-1.81H10a.91.91 0 0 1 0 1.81zm0-5.43H8.15a.91.91 0 1 1 0-1.81H10a.91.91 0 0 1 0 1.81zm4.53 10a.9.9 0 0 1 .9-.9H33.5a.91.91 0 0 1 0 1.81H15.4a.9.9 0 0 1-.9-.96z" fill="#979797"/></svg>