<svg xmlns="http://www.w3.org/2000/svg" viewBox="0 0 71.38 38.5"><path d="M44.74.5H16.5a5 5 0 0 0-5 5v5h29.74zm-25.23 8a2 2 0 1 1 2-2 2 2 0 0 1-2 2zm6 0a2 2 0 1 1 2-2 2 2 0 0 1-2 2zm6 0a2 2 0 1 1 2-2 2 2 0 0 1-2 2zm18.85 2h9.15v-5a5 5 0 0 0-5-5h-7.1zm-37.9 13l6.16 3.92 8.14-7.54 9.97 3.57 3.82-10.95H11.5v11h.95zm40.94-2.63l6.1 2.4V12.5h-8.56l2.45 8.37zm-4.1 3.75l-3.5-11.94-6 17.18-11.86-4.25-8.73 8.1-7.7-4.9v4.68a5 5 0 0 0 5 5h38a5 5 0 0 0 5-5v-4.85z" fill="#979797"/><path d="M0 26h11.73l7.18 4.56 8.44-7.82 10.92 3.9L46 4.5l5.36 18.24 9.9 3.9 9.77-2.6" fill="none" stroke="#02b6d3" stroke-miterlimit="10" stroke-width="2.75"/></svg>