<svg xmlns="http://www.w3.org/2000/svg" xmlns:xlink="http://www.w3.org/1999/xlink" width="41" height="42"><defs><path id="A" d="M0 .093h36V6.95H0z"/><path id="B" d="M.633.753h12.97v26.675H.633z"/></defs><g fill="none" fill-rule="evenodd"><g transform="translate(0 .765)"><mask id="C" fill="#fff"><use xlink:href="#A"/></mask><path d="M12.858 5.235c-.475 0-.857-.383-.857-.857s.382-.857.857-.857.857.383.857.857-.384.857-.857.857h0zm-3.43 0c-.475 0-.857-.383-.857-.857s.382-.857.857-.857.857.383.857.857-.384.857-.857.857h0zm-3.43 0c-.475 0-.857-.383-.857-.857S5.526 3.52 6 3.52s.857.383.857.857-.384.857-.857.857h0zm30-.857C36 2.015 34.077.092 31.715.092H4.286A4.29 4.29 0 0 0 0 4.378v2.57h36v-2.57z" fill="#919a9c" mask="url(#C)"/></g><path d="M29.707 28.89c-.663-.368-1.272-.826-1.818-1.372a8.21 8.21 0 0 1 0-11.6 8.15 8.15 0 0 1 5.8-2.4c.795 0 1.57.116 2.31.332V9.43h-36v16.286A4.29 4.29 0 0 0 4.286 30h25.42v-1.11z" fill="#919a9c"/><g transform="translate(26.571 14.479)"><mask id="D" fill="#fff"><use xlink:href="#B"/></mask><path d="M8.342 6.016a1.73 1.73 0 1 1 0-2.447 1.73 1.73 0 0 1 0 2.447M2.53 2.65a6.5 6.5 0 0 0 0 9.177 6.39 6.39 0 0 0 2.321 1.489v3.533l-1.098 1.096 1.098 1.097v.253l-1.098 1.097L4.85 21.5v.254L3.753 22.84l1.098 1.097v1.224l2.267 2.267 2.27-2.267V13.316a6.4 6.4 0 0 0 2.32-1.489 6.5 6.5 0 0 0 0-9.177 6.5 6.5 0 0 0-9.177 0" fill="#02b6d3" mask="url(#D)"/></g></g></svg>