<svg xmlns="http://www.w3.org/2000/svg" xmlns:xlink="http://www.w3.org/1999/xlink" width="41" height="41"><defs><path id="A" d="M0 0h35.875v20.5H0z"/><path id="B" d="M.07.052h22.134v22.156H.07z"/></defs><g fill="none" fill-rule="evenodd"><path d="M12.813 5.125c-.472 0-.854-.382-.854-.854s.382-.854.854-.854.854.382.854.854-.383.854-.854.854h0zm-3.417 0c-.472 0-.854-.382-.854-.854s.382-.854.854-.854.854.382.854.854-.383.854-.854.854h0zm-3.417 0c-.472 0-.854-.382-.854-.854s.382-.854.854-.854.854.382.854.854-.383.854-.854.854h0zm29.896-.854c0-2.355-1.916-4.27-4.27-4.27H4.27C1.916 0 0 1.916 0 4.27v2.563h35.875V4.27z" fill="#919a9c"/><g transform="translate(0 8.542)"><mask id="C" fill="#fff"><use xlink:href="#A"/></mask><path d="M16.42 19.452c-.214-.793-.126-1.512.237-2.135l3.43-5.933 1.533-.062c.51 0 .975.128 1.382.37l.522.3.224-.127v-.624a2.65 2.65 0 0 1 2.648-2.648H31.8a2.65 2.65 0 0 1 2.647 2.648v.63l.198.114 1.114-.647.117-.002V0H0v16.23c0 2.355 1.916 4.27 4.27 4.27h12.578l-.1-.05-.34-.997z" fill="#919a9c" mask="url(#C)"/></g><g transform="translate(17.938 18.792)"><mask id="D" fill="#fff"><use xlink:href="#B"/></mask><path d="M11.134 15.702a4.58 4.58 0 0 1-4.572-4.572 4.58 4.58 0 0 1 4.572-4.571 4.58 4.58 0 0 1 4.572 4.571 4.58 4.58 0 0 1-4.572 4.572m11.054-1.9c-.003-.083-.01-.163-.037-.242-.063-.184-.2-.365-.36-.478-.02-.014-.032-.036-.055-.048l-1.448-.836c.044-.354.064-.705.065-1.05l.001-.03-.001-.028a8.49 8.49 0 0 0-.065-1.05l.013-.008v-.001l1.429-.825a.95.95 0 0 0 .442-.573.94.94 0 0 0-.091-.71l-2.697-4.672c-.043-.077-.108-.136-.17-.197-.028-.028-.048-.065-.08-.088-.053-.042-.12-.062-.18-.09-.05-.025-.097-.058-.154-.074a1.04 1.04 0 0 0-.709.095l-.154.1v-.001l-1.272.74-.44-.29a9.88 9.88 0 0 0-.954-.55l-.47-.237V.992a.94.94 0 0 0-.94-.94H8.455a.94.94 0 0 0-.939.94V2.66l-.474.236a10.59 10.59 0 0 0-.978.558l-.437.284-1.426-.82a.95.95 0 0 0-.489-.138l-.555.023-2.96 5.122c-.134.23-.16.483-.08.78l.114.334 1.74 1.004-.014.207h.015l-.055.88c0 .354.022.715.067 1.078l-1.446.836c-.074.042-.13.105-.19.165-.03.03-.067.05-.09.082-.047.062-.07.136-.102.207s-.054.15-.066.23c-.025.202.004.435.1.6l2.7 4.676c.168.294.48.476.817.476h.004a1.03 1.03 0 0 0 .463-.124l1.467-.842a7 7 0 0 0 .665.43l.485.277.727.365v1.684a.94.94 0 0 0 .939.94h5.406a.94.94 0 0 0 .94-.94v-1.686c.243-.107.474-.233.706-.358l.5-.283.655-.427 1.442.835c.1.06.226.097.35.114l.01.002a.92.92 0 0 0 .318-.015l.04-.005a1.03 1.03 0 0 0 .568-.435l2.695-4.67c.032-.055.04-.118.062-.177s.05-.12.06-.183c.008-.056-.007-.112-.01-.168" fill="#02b6d3" mask="url(#D)"/></g></g></svg>