<svg xmlns="http://www.w3.org/2000/svg" viewBox="0 0 48 47.88"><path d="M24.4 32H30a4.52 4.52 0 0 1 3.18 1.19A17 17 0 1 0 15.06 28a14.21 14.21 0 0 1 9.35 4zM21 10.3c3.48-.7 3.48.7 3.48.7 1.4 1.4 4.18 0 5.57 0 0 0 .7-4.87-.7-4.17s-2.64.15-2.78-1.4c-.2-2.17 6.17-3.8 6.17-3.8a10.25 10.25 0 0 1 3.94 1.76c1.1.87 3.22 3.1 3.22 3.1s-.8 3.82-3.6 5.22c-2.78-.7-5.57 1.4-4.87 1.4s1.4 2.78 1.4 2.78c.7.7 2.1 0 2.1 0 1.74 1.74-2.8 4.87-2.8 5.56s1.74 1 .7 2.1a6 6 0 0 1-2.09 1.39c0 3.48-3.48 3.48-4.17 3.48s-2.1-2.78-2.1-3.48.7-1.4.7-2.08-1.4-2.1-1.4-2.1c0-2.78-2.1-2.1-4.18-2.1s-2.08-2.78-2.08-2.78S17.57 11 21 10.3z" fill="#02b6d3"/><g fill="#979797"><rect y="28" width="9" height="18" rx="1"/><path d="M47.7 36.3c-2.35-2.34-4.38-3-7-2.24l-6 2a6 6 0 0 1 .08 1 5.3 5.3 0 0 1-1.17 3.39A4.52 4.52 0 0 1 30 42H19a1 1 0 0 1 0-2h11a2.52 2.52 0 0 0 2-.89 3.33 3.33 0 0 0 .75-2.11A2.77 2.77 0 0 0 30 34h-6a1 1 0 0 1-.71-.29A12.18 12.18 0 0 0 15 30h-4a1 1 0 0 0-1 1v11a1 1 0 0 0 .68 1l7.67 2.7c4 1.45 6.26 2.24 8.28 2.24 2.43 0 4.52-1.13 8.9-3.6 2.73-1.55 6.48-3.66 11.9-6.38a1 1 0 0 0 .54-.73 1 1 0 0 0-.28-.92z"/></g></svg>