<svg xmlns="http://www.w3.org/2000/svg" viewBox="0 0 48.71 49.28"><path d="M43.7 5.2a5.2 5.2 0 0 0-5.2-5.2H5.2A5.2 5.2 0 0 0 0 5.2v3.12h43.7zm-36.4 1a1 1 0 1 1 1-1 1 1 0 0 1-1 1.04zm4.16 0a1 1 0 1 1 1-1 1 1 0 0 1-1 1.04zm4.16 0a1 1 0 1 1 1-1 1 1 0 0 1-1 1.04z" fill="#979797"/><g fill="#02b6d3"><circle cx="36.23" cy="36.8" r="3.12"/><path d="M36.23 24.3A12.49 12.49 0 1 0 48.71 36.8a12.5 12.5 0 0 0-12.48-12.49zm5.2 16.7a1.79 1.79 0 0 1-2-1.49 4.15 4.15 0 0 1-7.34-2.67 4.15 4.15 0 0 1 7.28-2.75v-.38a.53.53 0 0 1 .52-.52.52.52 0 0 1 .52.52v5.2c0 .53 0 1 1 1 1.5 0 2.3-1.82 2.3-3.53A6.21 6.21 0 0 0 42 32.14 7.83 7.83 0 0 0 36.23 30a6.77 6.77 0 1 0 3.38 12.62.52.52 0 0 1 .71.19.51.51 0 0 1-.19.71 7.73 7.73 0 0 1-3.9 1.05 7.81 7.81 0 0 1 0-15.61 8.83 8.83 0 0 1 6.56 2.43 7.22 7.22 0 0 1 2 5c-.02 2.6-1.42 4.6-3.36 4.6z"/></g><path d="M0,10.4V30.17a5.2,5.2,0,0,0,5.2,5.2H21.73a14.65,14.65,0,0,1,22-10.71V10.4Zm26.77,11H8.32V18.63H26.77Zm0-4.06H8.32V14.56H26.77Z" fill="#979797"/><rect x="8.32" y="22.89" width="9.56" height="2.28" rx="1.14" fill="#02b6d3" stroke="#fff" stroke-miterlimit="10" stroke-width=".25"/></svg>