<svg xmlns="http://www.w3.org/2000/svg" xmlns:xlink="http://www.w3.org/1999/xlink" viewBox="0 0 59.88 39"><g fill="#02b6d3"><circle cx="11.32" cy="15.26" r="1.89"/><circle cx="17.71" cy="15.26" r="2.45"/><circle cx="25.11" cy="15.26" r="2.45"/><circle cx="34.77" cy="15.26" r="2.45"/><circle cx="42.17" cy="15.26" r="2.45"/><circle cx="48.56" cy="15.26" r="1.89"/><use xlink:href="#A"/></g><path d="M14.54 20.47H2.16V10.3h12.38a17 17 0 0 1 .9-2.16H2.16A2.16 2.16 0 0 0 0 10.29v10.18a2.16 2.16 0 0 0 2.16 2.16h13.28a15.84 15.84 0 0 1-.9-2.16zM57.72 8.13H44.44a17 17 0 0 1 .9 2.16h12.38v10.18H45.34a15.84 15.84 0 0 1-.9 2.16h13.28a2.16 2.16 0 0 0 2.16-2.16V10.3a2.16 2.16 0 0 0-2.16-2.16z" fill="#979797"/><use xlink:href="#A" fill="#02b6d3"/><defs><path id="A" d="M53.24 36l-8.73-8.73-2.5-2.55a15.32 15.32 0 1 0-2.5 2.5l2.5 2.53 8.73 8.73a1.77 1.77 0 0 0 2.51 0 1.78 1.78 0 0 0 0-2.48zM30 27a11.72 11.72 0 1 1 11.74-11.74A11.73 11.73 0 0 1 30 27z"/></defs></svg>