<svg xmlns="http://www.w3.org/2000/svg" viewBox="0 0 44.39 42.75"><path d="M43.3 26h-1.55c.24-11.5-15.9-11.48-15.64 0-.83 0-2.62-.3-2.58 1v14.57a1 1 0 0 0 1 1c.53-.47 20.9 1.16 19.77-1V27a1 1 0 0 0-1-1zm-8.14 7.82L35 34c-.24.93.75 4.82-1 4.74-1.8.1-.8-3.82-1-4.75a1.7 1.7 0 1 1 2.27-.15zm4.5-7.57H28.2c-.5-9.07 11.98-9.06 11.48-.03z" fill="#02b6d3"/><path d="M21.32 26c-.05-2.13 2.78-1.6 4.1-1.65v-1.6c-1.9-1-4-1.87-5.5-2.48h0v-2.63a4.12 4.12 0 0 0 1.15-1.46h0a7.2 7.2 0 0 0 .62-2.1v-.23c0-.26.06-.53.08-.82.08 0 .15-.12.23-.18h0a3 3 0 0 0 .71-1.13h0A5 5 0 0 0 23 11a.07.07 0 0 1 0 0 4.49 4.49 0 0 0 .06-.73 3 3 0 0 0-.42-1.64 2.32 2.32 0 0 0-.45-.63l.2-.54a.64.64 0 0 0 0-.07 7.25 7.25 0 0 0 .27-.87 1.74 1.74 0 0 0 .05-.22l.14-.8a1.62 1.62 0 0 0 0-.22 5.32 5.32 0 0 0-.14-1.7A4.1 4.1 0 0 0 20.58 1l-.1-.06a7.77 7.77 0 0 0-.77-.34l-.3-.1-.6-.17-.48-.1c-.25 0-.5-.1-.75-.12h-.3A10.42 10.42 0 0 0 16.14 0a9.1 9.1 0 0 0-.91 0 9.85 9.85 0 0 0-2.69.57h0l-.47.2a5.9 5.9 0 0 0-.89.51h-.05a5.81 5.81 0 0 0-.46.38l-.14.14-.32.37a5.36 5.36 0 0 0-.34.49h-.5a2.88 2.88 0 0 0-.46.09h-.1a1.82 1.82 0 0 0-.37.18h-.1a2.13 2.13 0 0 0-.34.41h0a2 2 0 0 0-.19.24 0 0 0 0 0 0 0 1.78 1.78 0 0 0-.21.44.57.57 0 0 0 0 .14 2.29 2.29 0 0 0-.07.36.81.81 0 0 0 0 .16 2.41 2.41 0 0 0 0 .38.76.76 0 0 0 0 .15 3.41 3.41 0 0 0 .06.43.52.52 0 0 0 0 .11 4.37 4.37 0 0 0 .12.49v.06A14.3 14.3 0 0 0 8.27 8a2 2 0 0 0-.5.54h0a2.64 2.64 0 0 0-.29.66v.2a3.38 3.38 0 0 0-.09.8 4.37 4.37 0 0 0 .06.72.09.09 0 0 1 0 .05 4.5 4.5 0 0 0 .19.68h0a3 3 0 0 0 .71 1.12h0l.23.18c0 .3 0 .55.08.8V14a7.3 7.3 0 0 0 .62 2.1h0a4.07 4.07 0 0 0 1.15 1.45v2.62C7.1 21.53.9 24.27.07 26.17h0a1 1 0 0 0-.08.36v5.7h21.33zm7.4-1.27h.15l-.15-.1a.4.4 0 0 0 0 .11z" fill="#979797"/></svg>