<svg xmlns="http://www.w3.org/2000/svg" width="21" height="26"  fill-rule="evenodd"><path d="M13 22.75h4.334v-1.083H13v1.083zm0-2.167h4.334V19.5H13v1.083zM7.127 22.75l-.385.382L5.423 21.8 4.09 23.133l-.766-.766 1.336-1.336-1.337-1.349.768-.763 1.334 1.346 1.318-1.318.384.383.382.384-1.321 1.32 1.322 1.334-.383.382zm3.707 2.708H9.75v-8.125H0v5.417C0 24.542 1.458 26 3.25 26h14.084c1.792 0 3.25-1.458 3.25-3.25v-5.417h-9.75v8.125zM13 14.083h4.334V13H13v1.083zm-2.166 2.167h9.75v-6.5h-9.75v6.5zm-3.25-2.708H5.959v1.625H4.875v-1.625H3.25v-1.084h1.625v-1.625h1.084v1.625h1.625v1.084zM0 16.25h9.75v-6.5H0v6.5z" fill="#919a9c"/><path d="M18.417 5.531c0 .833-.678 1.511-1.511 1.511H3.678c-.833 0-1.511-.678-1.511-1.511V3.135c0-.833.678-1.51 1.511-1.51h13.228c.833 0 1.511.677 1.511 1.51v2.396zM17.334 0H3.25C1.458 0 0 1.458 0 3.25v5.417h20.584V3.25c0-1.792-1.458-3.25-3.25-3.25h0z" fill="#02b6d3"/></svg>