<svg xmlns="http://www.w3.org/2000/svg" width="20" height="20"  fill-rule="evenodd"><path d="M9.1 14.827c0-2.975 2.494-5.395 5.559-5.395A5.65 5.65 0 0 1 17 9.941V6H0v10.656c0 .19.158.344.354.344h9.22a5.23 5.23 0 0 1-.475-2.173m2.943-11.97h1.417V.714h-1.417v2.143zm-8.5 0h1.417V.714H3.542v2.143zm13.104-1.429h-2.479V.357c0-.198-.159-.357-.354-.357h-2.125c-.195 0-.354.16-.354.357v1.071H5.667V.357C5.667.16 5.508 0 5.313 0H3.188c-.196 0-.354.16-.354.357v1.071H.354c-.196 0-.354.16-.354.357V5h17V1.786c0-.198-.159-.357-.354-.357h0z" fill="#919a9c"/><path d="M15 14.667a1.27 1.27 0 0 1 1.267 1.267c0 .582-.398 1.069-.934 1.217v.339c0 .184-.149.333-.333.333s-.333-.149-.333-.333v-.339c-.537-.148-.934-.635-.934-1.217 0-.184.15-.334.334-.334s.333.15.333.334a.6.6 0 0 0 1.2 0 .6.6 0 0 0-.6-.6 1.27 1.27 0 0 1-1.267-1.266c0-.582.397-1.069.934-1.217v-.339c0-.184.149-.333.333-.333s.333.15.333.333v.339c.536.147.934.635.934 1.217 0 .184-.15.334-.334.334s-.333-.15-.333-.334a.6.6 0 0 0-1.2 0 .6.6 0 0 0 .6.6M15 10c-2.758 0-5 2.243-5 5s2.242 5 5 5 5-2.243 5-5-2.243-5-5-5" fill="#02b6d3"/></svg>