<svg xmlns="http://www.w3.org/2000/svg" xmlns:xlink="http://www.w3.org/1999/xlink" width="34" height="42"><defs><path id="A" d="M.705.18h25.02v32.17H.705z"/></defs><g fill="none" fill-rule="evenodd"><g transform="translate(8.043 .713)"><mask id="B" fill="#fff"><use xlink:href="#A"/></mask><path d="M22.6 29.67H3.833c-.247 0-.447-.2-.447-.447V3.308c0-.247.2-.447.447-.447H16.1v6.5c0 .247.2.447.447.447h6.5v19.416c0 .247-.2.447-.447.447h0zM17.423.18H1.6c-.493 0-.894.4-.894.894v30.383c0 .493.4.894.894.894h23.234c.493 0 .894-.4.894-.894V8.483L17.423.18z" fill="#02b6d3" mask="url(#B)"/></g><path d="M26.794 34.678H8.028c-.493 0-.894-.4-.894-.894V5.188H5.347c-.493 0-.894.4-.894.894v30.383c0 .493.4.894.894.894H28.58c.493 0 .894-.4.894-.894v-1.787h-2.68zM22.34 39.14H3.575c-.493 0-.894-.4-.894-.894V9.65H.894c-.493 0-.894.4-.894.894v30.383c0 .494.4.894.894.894h23.234c.493 0 .894-.4.894-.894V39.14h-2.68z" fill="#919a9c"/><path d="M28.64 17.966l-4.17-4.023c-.33-.32-.87-.32-1.204 0-.164.158-.255.37-.255.597s.1.438.255.596l3.553 3.426-3.553 3.426c-.164.158-.255.37-.255.597s.1.438.255.596a.86.86 0 0 0 .601.241.86.86 0 0 0 .602-.241l4.17-4.022a.82.82 0 0 0 .001-1.193m-9.133-3.426c0-.227-.1-.44-.255-.597-.332-.32-.87-.32-1.203 0l-4.172 4.023a.82.82 0 0 0 0 1.192l4.17 4.022c.16.156.374.242.602.242s.44-.085.6-.24.256-.37.256-.597-.1-.44-.255-.597l-3.55-3.426 3.55-3.425c.164-.16.256-.37.256-.597" fill="#02b6d3"/></g></svg>