<svg xmlns="http://www.w3.org/2000/svg" viewBox="0 0 46.21 46.21"><path d="M45 0H1.2A1.19 1.19 0 0 0 0 1.19V45a1.18 1.18 0 0 0 1.19 1.18H45A1.18 1.18 0 0 0 46.21 45V1.2A1.18 1.18 0 0 0 45 0zm-8.9 13.8a2.69 2.69 0 1 1-2.7 2.69 2.68 2.68 0 0 1 2.73-2.69zM8.3 6.6H20V4.8a.9.9 0 0 1 .9-.9h3.6a.9.9 0 0 1 .9.9v1.8h2.7a.9.9 0 0 1 0 1.8h-2.7v1.8a.9.9 0 0 1-.9.9h-3.63a.9.9 0 0 1-.9-.9V8.4H8.3a.9.9 0 0 1 0-1.8zm0 18h8.08v-1.83a.9.9 0 0 1 .9-.9h3.6a.9.9 0 0 1 .9.9v1.8h6.3a.9.9 0 0 1 0 1.8h-6.3v1.8a.9.9 0 0 1-.9.9h-3.6a.9.9 0 0 1-.9-.9v-1.8H8.3a.9.9 0 0 1 0-1.8zM42.2 41a.71.71 0 0 1-.71.71H4.72A.71.71 0 0 1 4 41v-6.74a.71.71 0 0 1 .72-.71H41.5a.71.71 0 0 1 .71.71z" fill="#979797"/><g fill="#02b6d3"><circle cx="10.12" cy="37.65" r="1.34"/><circle cx="31.29" cy="37.65" r="1.34"/><circle cx="36.58" cy="37.65" r="1.34"/><circle cx="15.42" cy="37.65" r="1.34"/><circle cx="20.71" cy="37.65" r="1.34"/><circle cx="26" cy="37.65" r="1.34"/><circle cx="36.13" cy="25.46" r="2.69"/><path d="M15.47 12.9a.9.9 0 0 1 .9.9v1.8h11.68a.9.9 0 0 1 0 1.8H16.37v1.8a.9.9 0 0 1-.9.9h-3.6a.9.9 0 0 1-.9-.9v-1.8H8.3a.9.9 0 0 1 0-1.8H11v-1.8a.9.9 0 0 1 .9-.9z"/><circle cx="36.13" cy="7.5" r="2.69"/></g></svg>