<svg xmlns="http://www.w3.org/2000/svg" viewBox="0 0 54.09 46.75"><path d="M2.67 20.26h20.25a.53.53 0 0 0 .53-.54v-17a.53.53 0 0 0-.53-.54H2.67a.54.54 0 0 0-.54.54v17a.54.54 0 0 0 .54.54zM13.86 9.6h4.26a.54.54 0 1 1 0 1.07h-4.26a.54.54 0 0 1 0-1.07zM7.62 7.3a.54.54 0 0 1 0-.76.53.53 0 0 1 .75 0L11 9.22a.53.53 0 0 1 0 .78l-2.63 2.64a.53.53 0 0 1-.37.15.53.53 0 0 1-.38-.91l2.3-2.3zM25.05 0H.53A.53.53 0 0 0 0 .53v21.32a.54.54 0 0 0 .53.54h24.52a.54.54 0 0 0 .54-.54V.53a.54.54 0 0 0-.54-.53zm-.53 21.32H1.07V1.07h23.45zM2.67 44.62h20.25a.53.53 0 0 0 .53-.53V27a.53.53 0 0 0-.53-.53H2.67a.54.54 0 0 0-.54.53v17.1a.54.54 0 0 0 .54.53zM13.86 34h4.26a.54.54 0 1 1 0 1.07h-4.26a.54.54 0 0 1 0-1.07zm-6.24-2.33a.53.53 0 1 1 .75-.75L11 33.58a.54.54 0 0 1 0 .76L8.37 37a.5.5 0 0 1-.37.16.51.51 0 0 1-.38-.16.53.53 0 0 1 0-.75L9.9 34zm17.43-7.3H.53a.53.53 0 0 0-.53.53v21.32a.53.53 0 0 0 .53.53h24.52a.54.54 0 0 0 .54-.53V24.9a.53.53 0 0 0-.54-.53zm-.53 21.32H1.07V25.43h23.45zm6.65-1.07h20.25a.53.53 0 0 0 .53-.53V27a.53.53 0 0 0-.53-.53H31.17a.54.54 0 0 0-.54.53v17.1a.54.54 0 0 0 .54.53zM42.36 34h4.26a.54.54 0 1 1 0 1.07h-4.26a.54.54 0 0 1 0-1.07zm-6.24-2.3a.53.53 0 0 1 .75-.75l2.67 2.66a.54.54 0 0 1 0 .76L36.87 37a.5.5 0 0 1-.37.16.51.51 0 0 1-.38-.16.53.53 0 0 1 0-.75L38.4 34zm17.43-7.33H29a.53.53 0 0 0-.53.53v21.32a.53.53 0 0 0 .53.53h24.55a.54.54 0 0 0 .54-.53V24.9a.53.53 0 0 0-.54-.53zM53 45.7H29.57V25.43H53z" fill="#979797"/><path d="M30.63 20.26H50.9a.54.54 0 0 0 .53-.54v-17a.54.54 0 0 0-.53-.54H30.63a.54.54 0 0 0-.53.54v17a.54.54 0 0 0 .53.54zM41.83 9.6h4.26a.54.54 0 0 1 0 1.07h-4.26a.54.54 0 1 1 0-1.07zM35.6 7.3a.54.54 0 0 1 0-.76.53.53 0 0 1 .75 0L39 9.22a.54.54 0 0 1 0 .78l-2.67 2.67a.54.54 0 0 1-.38.15.53.53 0 0 1-.37-.15.54.54 0 0 1 0-.76l2.28-2.3zM53 0H28.5a.53.53 0 0 0-.5.53v21.32a.54.54 0 0 0 .53.54H53a.54.54 0 0 0 .53-.54V.53A.53.53 0 0 0 53 0zm-.53 21.32H29V1.07h23.5z" fill="#02b6d3"/></svg>