<svg xmlns="http://www.w3.org/2000/svg" viewBox="0 0 70.3 48"><path d="M65.3 0h-38a5 5 0 0 0-5 5v5h48V5a5 5 0 0 0-5-5zm-35 8a2 2 0 1 1 2-2 2 2 0 0 1-2 2zm6 0a2 2 0 1 1 2-2 2 2 0 0 1-2 2zm6 0a2 2 0 1 1 2-2 2 2 0 0 1-2 2z" fill="#979797"/><g fill="#02b6d3"><circle cx="29.15" cy="19.77" r="5.65"/><path d="M29.15 26.83c-4.75 0-8.47 6.2-8.47 14.1v.7h4.94V48h7.06v-6.35h4.94v-.7c0-7.94-3.72-14.1-8.47-14.1z"/></g><path d="M22.3 28.57a10.53 10.53 0 0 1 2.6-2.45 7.66 7.66 0 0 1-2.6-3zm0-16.57v4.4a7.64 7.64 0 1 1 11.1 9.73c3.17 2.06 5.44 6.4 6.05 11.88H65.3a5 5 0 0 0 5-5V12z" fill="#979797"/><g fill="#02b6d3"><circle cx="12" cy="8" r="8"/><path d="M12 18C5.27 18 0 26.8 0 38v1h7v9h10v-9h7v-1c0-11.2-5.27-20-12-20z"/></g></svg>