<svg xmlns="http://www.w3.org/2000/svg" viewBox="0 0 65.38 47.5"><path d="M43 0H5a5 5 0 0 0-5 5v5h48V5a5 5 0 0 0-5-5zM8 8a2 2 0 1 1 2-2 2 2 0 0 1-2 2zm6 0a2 2 0 1 1 2-2 2 2 0 0 1-2 2zm6 0a2 2 0 1 1 2-2 2 2 0 0 1-2 2z" fill="#979797"/><path d="M64.7 27.1l-6.5-4.7a1.67 1.67 0 0 0-1.55-.25 1.66 1.66 0 0 0-1 1.11l-2.27 8a1.66 1.66 0 1 0 3.19.91l1-3.6a13 13 0 0 1-4.7 13.08 12.39 12.39 0 0 1-11.93 1.74 1.66 1.66 0 1 0-1.17 3.1 15.65 15.65 0 0 0 12-.34 15.92 15.92 0 0 0 3.14-1.86 16.42 16.42 0 0 0 6-15.81l1.86 1.34a1.66 1.66 0 0 0 1.64.18 1.59 1.59 0 0 0 .66-.55 1.65 1.65 0 0 0-.37-2.34zm-27.86 4.58a1.66 1.66 0 0 0-2.05 1.14l-1.22 4.28a12.47 12.47 0 0 1-.86-6.34 13.25 13.25 0 0 1 5.06-8.94 12.46 12.46 0 0 1 12.71-1.42 1.66 1.66 0 0 0 1.37-3 15.74 15.74 0 0 0-16.09 1.8 16.61 16.61 0 0 0-6.35 11.19 16.13 16.13 0 0 0 .38 5.85l-1.5-1a1.66 1.66 0 1 0-1.9 2.72l6.76 4.73a1.69 1.69 0 0 0 1.51.2h.12a1.7 1.7 0 0 0 .92-1.06l2.27-8a1.66 1.66 0 0 0-1.14-2.15z" fill="#02b6d3"/><path d="M38.32 38H43a5 5 0 0 0 5-5V21.14A10.88 10.88 0 0 0 38.68 23 11.53 11.53 0 0 0 35 28h2a1 1 0 0 1 0 2h-2.64l-.16.94V31a3.16 3.16 0 0 1 3.06-.76h0a3.16 3.16 0 0 1 2.17 3.9zm-13.56-3.27a3.14 3.14 0 0 1 3.08-1.32 18.24 18.24 0 0 1 .08-3.22V30H17a1 1 0 0 1 0-2h11.34a18.52 18.52 0 0 1 1.51-4H17a1 1 0 0 1 0-2h14a17.56 17.56 0 0 1 3.79-4H17a1 1 0 0 1 0-2h20a1 1 0 0 1 .65.25A17.23 17.23 0 0 1 48 14.67V12H0v21a5 5 0 0 0 5 5h19.57a3.12 3.12 0 0 1 .19-3.27zM11 30H9a1 1 0 0 1 0-2h2a1 1 0 0 1 0 2zm0-6H9a1 1 0 0 1 0-2h2a1 1 0 0 1 0 2zm0-6H9a1 1 0 0 1 0-2h2a1 1 0 0 1 0 2z" fill="#979797"/></svg>