<svg xmlns="http://www.w3.org/2000/svg" xmlns:xlink="http://www.w3.org/1999/xlink" width="42" height="42"><defs><path id="A" d="M0 0h42v42H0z"/></defs><g fill-rule="evenodd"><mask id="B" fill="#fff"><use xlink:href="#A"/></mask><path d="M21 33.553c-6.92 0-12.553-5.632-12.553-12.554A12.57 12.57 0 0 1 20.999 8.447 12.57 12.57 0 0 1 33.554 21c0 6.92-5.632 12.554-12.554 12.554M41.125 17.5h-4.997c-.348-1.383-.794-2.917-1.36-4.08l3.558-3.557a.88.88 0 0 0 .256-.619c0-.233-.093-.455-.256-.62l-4.95-4.95c-.342-.34-.896-.34-1.237 0l-3.56 3.557c-1.163-.567-2.697-1.01-4.078-1.36V.875c0-.483-.392-.875-.875-.875h-5.25c-.484 0-.875.392-.875.875v4.997c-1.383.35-2.917.794-4.08 1.36l-3.56-3.557c-.34-.34-.895-.34-1.237 0l-4.95 4.95c-.34.34-.34.895 0 1.237l3.558 3.558C6.67 14.58 6.22 16.116 5.87 17.5H.875c-.484 0-.875.392-.875.875v5.25c0 .484.39.875.875.875H5.87c.35 1.384.8 2.92 1.363 4.08l-3.56 3.56c-.164.164-.256.386-.256.62a.88.88 0 0 0 .256.619l4.95 4.95a.9.9 0 0 0 1.237 0l3.557-3.558c1.16.565 2.697 1.012 4.08 1.363v4.995c0 .484.39.875.875.875h5.25c.483 0 .875-.39.875-.875V36.13c1.383-.35 2.918-.798 4.078-1.36l3.56 3.556c.34.342.896.342 1.238 0l4.95-4.95c.34-.342.34-.896 0-1.237l-3.558-3.56c.565-1.16 1.012-2.696 1.362-4.08h4.996c.483 0 .875-.39.875-.875v-5.25c0-.483-.392-.875-.875-.875" fill="#919a9c" mask="url(#B)"/><path d="M29.6 25.283h-.7V16.95c0-.307-.248-.556-.555-.556h-3.334c-.306 0-.556.248-.556.556v8.333h-1.3V14.728c0-.306-.248-.555-.556-.555h-3.333c-.307 0-.556.248-.556.555v10.555H17.4v-5c0-.306-.248-.556-.556-.556H13.5c-.307 0-.556.25-.556.556v5H12.4c-.307 0-.556.25-.556.556s.248.556.556.556H29.6c.307 0 .556-.25.556-.556s-.248-.556-.556-.556" fill="#02b6d3"/></g></svg>