<svg xmlns="http://www.w3.org/2000/svg" viewBox="0 0 117.44 117.25"><path d="M75.6 63C53.2 68.6 15.08 65.62.67 52.92v12.85C-1.47 76.1 42.12 86.4 63.5 82c-.6-6.72 1.63-8.53 8-8a18 18 0 0 1 4.12-11zm-26.22-2.1c22.3 0 42-6.15 48.72-12.57V32.5C77 47.26 20 48 .67 31v12.84c0 7.73 21.73 17.06 48.7 17.06zM49.4 39c22.3 0 42-6.14 48.7-12.56C100.42 9.2 79.3.77 49.4 0c-61.57 1.33-66.34 38.34 0 39z" fill="#979797"/><path d="M98.1 54.4h0z" fill="#58595b"/><path d="M.67 74.84c-6.17 27.68 31.58 35 62.82 31.43v-19.4C43.1 89.74 12 85.17.67 74.84z" fill="#979797"/><path d="M114.9 78h-3.6c.58-26.82-37.22-26.8-36.62 0-2 .1-6.13-.7-6 2.43v34.1a2.43 2.43 0 0 0 2.43 2.44c1.25-1.12 48.9 2.7 46.28-2.44V80.38A2.43 2.43 0 0 0 114.9 78zM95.84 96.26a3.81 3.81 0 0 1-.43.37c-.57 2.2 1.76 11.3-2.43 11.1-4.2.22-1.87-9-2.44-11.1-3-2.1-1.3-7.17 2.36-7.1a4 4 0 0 1 2.94 6.74zm10.57-17.73H79.54c-1.16-21.16 28.04-21.14 26.87 0z" fill="#02b6d3"/></svg>