<svg xmlns="http://www.w3.org/2000/svg" width="41" height="42" fill-rule="evenodd"><g fill="#919a9c"><path d="M17.144 13.714c7.85 0 14.787-2.163 17.143-4.42v-1.58C34.286 3.388 26.756 0 17.144 0S.001 3.388 0 7.714c0 2.717 7.647 6 17.144 6m-.588 15.416l-.08-.234c-.215-.795-.127-1.517.238-2.14L18.82 23.1l-1.677.034c-6.797 0-13.95-1.728-17.143-4.522v4.522c0 2.66 7.335 5.854 16.556 5.987"/><path d="M17.143 21.43l2.697-.085.315-.543 1.535-.063c.474.015.873.1 1.243.297l.896-.132v-.247A2.66 2.66 0 0 1 26.484 18H31.9a2.61 2.61 0 0 1 .8.136c.645-.367 1.178-.746 1.577-1.128v-5.576c-3.662 2.463-10.66 3.996-17.143 3.996-6.797 0-13.95-1.728-17.144-4.52v4.52c0 2.717 7.647 6 17.143 6m17.153-2.282l-.138.094a2.77 2.77 0 0 1 .138.253v-.347zM17.67 31.272l.54-.3v-.12l-1.065.015c-6.797 0-13.95-1.728-17.143-4.522V30c0 4.326 7.53 7.714 17.143 7.714.397 0 .783-.015 1.172-.027l-1.6-2.8a2.67 2.67 0 0 1 .966-3.625"/></g><path d="M29.173 35.42c-2.53 0-4.588-2.058-4.588-4.588s2.06-4.587 4.588-4.587S33.76 28.3 33.76 30.83s-2.06 4.588-4.588 4.588M40.27 33.57a.96.96 0 0 0-.046-.304c-.064-.176-.192-.343-.344-.455-.025-.018-.04-.045-.07-.06l-1.453-.84c.044-.355.064-.707.065-1.053l.001-.03-.001-.03a8.75 8.75 0 0 0-.065-1.053l.013-.008h0l.826-.477.608-.35a.95.95 0 0 0 .444-.574c.062-.23.037-.486-.09-.712l-2.703-4.682c-.04-.077-.105-.135-.165-.197-.03-.03-.05-.07-.086-.096-.057-.044-.13-.068-.195-.098-.05-.02-.09-.053-.143-.07-.107-.028-.236-.033-.362-.016s-.252.055-.35.11l-.35.202-1.082.63h-.001l-.014.01c-.134-.1-.282-.184-.423-.277v-.018l-.004-.003c-.306-.2-.628-.386-.957-.55l-.472-.238v-1.676c0-.52-.423-.942-.943-.942h-5.425c-.52 0-.942.423-.942.942v1.675l-.476.237c-.344.17-.674.36-.98.56l-.44.286-1.43-.824c-.036-.02-.074-.03-.11-.047-.116-.05-.248-.086-.365-.088-.35-.002-.663.18-.83.467l-2.713 4.695c-.135.23-.16.485-.08.782l.115.335.648.375h.002l1.11.64a8.73 8.73 0 0 0-.063 1.017h-.002l-.003.066.02.558.034.53-1.446.836a.95.95 0 0 0-.339 1.288l2.708 4.688c.122.213.32.365.548.435.01.003.016.008.026.01.026.008.054.007.08.01.055.01.108.023.165.023a1.03 1.03 0 0 0 .468-.125l1.472-.845c.2.153.44.293.668.432l.486.277.73.366v1.7c0 .52.423.943.942.943h5.425c.52 0 .943-.423.943-.943V39.33h.001v-.015a9.83 9.83 0 0 0 .71-.36l.495-.285.653-.427 1.447.837a.94.94 0 0 0 .329.111l.04.006a.98.98 0 0 0 .346-.02l.014-.003a1.03 1.03 0 0 0 .561-.435l2.13-3.692.576-1c.028-.047.035-.103.054-.153.025-.07.06-.136.068-.207.005-.038-.007-.077-.007-.117" fill="#02b6d3"/></svg>