<svg xmlns="http://www.w3.org/2000/svg" xmlns:xlink="http://www.w3.org/1999/xlink" width="45" height="41"><defs><path id="A" d="M0 0h21.476v5.857H0z"/><path id="B" d="M.001 0h21.476v5.857H.001z"/></defs><g fill="none" fill-rule="evenodd"><path d="M15.782 3.905c0-.54.436-.976.976-.976h11.388c.54 0 .976.437.976.976v6.833c0 .54-.437.976-.976.976H16.758c-.54 0-.976-.437-.976-.976V3.905zm14.48 9.762h1.952V3.834C32.214 1.684 30.5 0 28.3 0H16.595c-2.2 0-3.905 1.684-3.905 3.834v9.833h17.57zM28.3 17.572h4.88v-1.047a2.79 2.79 0 0 0-.16-.905H11.874c-.096.285-.16.585-.16.905v1.047h4.88c2.613 0 4.772 1.612 5.546 3.905h.622c.774-2.293 2.932-3.905 5.547-3.905" fill="#02b6d3"/><path d="M4.068 23.43c0-.54.436-.976.976-.976h11.388c.54 0 .976.437.976.976v6.833c0 .54-.437.976-.976.976H5.044c-.54 0-.976-.437-.976-.976V23.43zm14.48 9.762H20.5v-9.833c0-2.15-1.715-3.834-3.905-3.834H4.88c-2.19 0-3.905 1.684-3.905 3.834v9.833h17.57z" fill="#919a9c"/><g transform="translate(0 35.143)"><mask id="C" fill="#fff"><use xlink:href="#A"/></mask><path d="M18.548 0H.16C.064.285 0 .585 0 .905V4.88c0 .54.436.976.976.976H20.5c.54 0 .976-.437.976-.976V.905c0-.32-.063-.62-.16-.905h-2.77z" fill="#919a9c" mask="url(#C)"/></g><path d="M40.837 23.43v6.833c0 .54-.437.976-.976.976H28.473c-.54 0-.976-.437-.976-.976V23.43c0-.54.436-.976.976-.976H39.86c.54 0 .976.437.976.976h0zM28.3 19.524c-2.19 0-3.905 1.684-3.905 3.834v9.833H43.93v-9.833c0-2.15-1.715-3.834-3.905-3.834H28.3z" fill="#919a9c"/><g transform="translate(23.429 35.143)"><mask id="D" fill="#fff"><use xlink:href="#B"/></mask><path d="M21.318 0H.16a2.85 2.85 0 0 0-.158.905V4.88c0 .54.436.976.976.976H20.5c.54 0 .976-.437.976-.976V.905A2.85 2.85 0 0 0 21.318 0" fill="#919a9c" mask="url(#D)"/></g></g></svg>