<svg xmlns="http://www.w3.org/2000/svg" viewBox="0 0 61.96 52.1"><path d="M2 40.1H0v3.83a4.09 4.09 0 0 0 4 4.17h19v2H10a1 1 0 0 0 0 2h28a1 1 0 0 0 0-2H25v-2h19a4.09 4.09 0 0 0 4-4.17V40.1H2zm22 1a2 2 0 1 1-2 2 2 2 0 0 1 2-2zm23.6-7.42a.63.63 0 0 1-.19 0 .58.58 0 0 1-.19 0c-12.45-3.5-14.68-11.12-14.77-11.44a.58.58 0 0 1 0-.19v-12H4a4.1 4.1 0 0 0-4 4.18V38.1h48v-4.54z" fill="#979797"/><path d="M61.62.73a.67.67 0 0 0-.67 0 10.49 10.49 0 0 1-6.09 2.3A7.56 7.56 0 0 1 49 .23a.68.68 0 0 0-1 0 7.56 7.56 0 0 1-6 2.84 10.49 10.49 0 0 1-6.07-2.3.65.65 0 0 0-.66 0 .63.63 0 0 0-.35.57v19.04a1.11 1.11 0 0 0 0 .17c.08.3 2.1 7.17 13.33 10.32a.73.73 0 0 0 .34 0c11.24-3.15 13.25-10 13.33-10.32a.52.52 0 0 0 0-.17V1.3a.64.64 0 0 0-.3-.57zm-7.38 15.35H51a.65.65 0 0 0-.65.65V20H46.5v-3.27a.65.65 0 0 0-.64-.65h-3.22v-3.86h3.22a.64.64 0 0 0 .64-.64V8.36h3.86v3.22a.65.65 0 0 0 .65.64h3.22z" fill="#02b6d3"/></svg>