<svg xmlns="http://www.w3.org/2000/svg" viewBox="0 0 40.49 40.27"><path d="M40.47.7a.25.25 0 0 0 0-.07.32.32 0 0 0 0-.09.2.2 0 0 0 0-.08.16.16 0 0 0 0-.07.82.82 0 0 0-.37-.25L40 .1h-5.28a.88.88 0 0 0-.88.89.88.88 0 0 0 .88.89h2.74L29.22 10a.89.89 0 1 0 1.25 1.26L38.72 3v2.77a.89.89 0 1 0 1.77 0V.9a.55.55 0 0 0-.02-.18z" fill="#02b6d3"/><path d="M20.72 11.92h7.82v7.82h-7.82zm19.04 28.33h.32a.85.85 0 0 0 .25-.25v-.07a.59.59 0 0 0 0-.08v-.1a.25.25 0 0 0 0-.07 1.11 1.11 0 0 0 0-.17h0v-5a.89.89 0 0 0-1.78 0v2.74L30.45 29a.89.89 0 0 0-1.25 0 .91.91 0 0 0-.26.63.89.89 0 0 0 .26.63l8.25 8.24H34.7a.89.89 0 0 0 0 1.78h4.88z" fill="#979797"/><path d="M28.55 20.5v7.82h-7.82V20.5zM0 39.54a.14.14 0 0 0 0 .07v.18a.25.25 0 0 0 0 .07.85.85 0 0 0 .25.25h5.52a.89.89 0 1 0 0-1.78H3l8.25-8.25a.89.89 0 0 0-.63-1.51.85.85 0 0 0-.62.43l-8.22 8.22V34.5a.89.89 0 0 0-1.78 0v4.88a1 1 0 0 0 0 .17z" fill="#02b6d3"/><path d="M19.78 28.33h-7.82V20.5h7.82zM.73 0H.56L.48.1.4.15A.85.85 0 0 0 .16.4v.06a.41.41 0 0 0 0 .09v.1A.14.14 0 0 1 0 .71v5.06a.89.89 0 1 0 1.78 0V3L10 11.28a.89.89 0 0 0 1.51-.63.85.85 0 0 0-.26-.63l-8.2-8.24h2.73a.89.89 0 0 0 0-1.78H.9z" fill="#979797"/><path d="M11.94 19.77v-7.82h7.82v7.82z" fill="#02b6d3"/></svg>