<svg xmlns="http://www.w3.org/2000/svg" xmlns:xlink="http://www.w3.org/1999/xlink" viewBox="0 0 67.02 43.93"><g fill="#979797"><use xlink:href="#B"/><path d="M34.54 8.17H4.77a4.74 4.74 0 0 0-2.36.65L26.23 28.1l8.3-6.73z"/></g><path d="M39.2 33.38v-27h-1.6a.79.79 0 0 0-.79.79v28.6a.79.79 0 0 0 .79.8h22.25a.8.8 0 0 0 .8-.8v-1.6H40a.79.79 0 0 1-.79-.79zM44 30.2a.8.8 0 0 1-.8-.8V3.18h-1.6a.79.79 0 0 0-.79.82v28.58h22.25a.79.79 0 0 0 .8-.79v-1.6zM66.84 7.33L59.43.17A.66.66 0 0 0 59 0H45.4a.61.61 0 0 0-.62.6V28a.61.61 0 0 0 .62.6h21a.6.6 0 0 0 .6-.6V7.75a.56.56 0 0 0-.16-.42zm-13.6 14.3a.56.56 0 0 1 0 .84.6.6 0 0 1-.43.18.62.62 0 0 1-.44-.18l-4.94-4.76a.58.58 0 0 1 0-.85l4.94-4.76a.62.62 0 0 1 .87 0 .56.56 0 0 1 0 .84l-4.5 4.34zm11.13-3.92l-4.94 4.76a.63.63 0 0 1-.88 0 .58.58 0 0 1 0-.84l4.5-4.35-4.5-4.34a.58.58 0 0 1 0-.84.63.63 0 0 1 .88 0l4.94 4.76a.59.59 0 0 1 0 .85zM59 7.75V.6l7.42 7.15z" fill="#02b6d3"/><use xlink:href="#B" fill="#979797"/><defs ><path id="B" d="M36.48 38.8a2 2 0 0 1-1.94-1.94V24.43L27 30.55a1.19 1.19 0 0 1-1.51 0L.7 10.5a4.67 4.67 0 0 0-.7 2.45v26.22a4.78 4.78 0 0 0 4.77 4.77h42.9a4.78 4.78 0 0 0 4.77-4.77v-.37z"/></defs></svg>