<svg xmlns="http://www.w3.org/2000/svg" viewBox="0 0 48.02 48"><path d="M20 25a48.64 48.64 0 0 0 11.3-1.31l.77-1.53a3.28 3.28 0 0 1 5.43-.65 10.21 10.21 0 0 0 2.5-1.67v-6.5C35.73 16.2 27.57 18 20 18c-7.93 0-16.28-2-20-5.28V18c0 3.17 8.92 7 20 7zm0 9a51.77 51.77 0 0 0 6.35-.4l3.8-7.6A51.79 51.79 0 0 1 20 27c-7.93 0-16.28-2-20-5.28V27c0 3.17 8.92 7 20 7zm0-18c9.16 0 17.25-2.52 20-5.16V9c0-5-8.78-9-20-9S0 4 0 9c0 3.17 8.92 7 20 7z" fill="#979797"/><path d="M40 22.34a15.46 15.46 0 0 1-1.53.9L40 26.3z" fill="#58595b"/><path d="M20 36c-7.93 0-16.28-2-20-5.28V35c0 5 8.8 9 20 9h1.16l4.12-8.25A51.88 51.88 0 0 1 20 36z" fill="#979797"/><path d="M48 46.7L36.15 23.06s0-.06-.07-.1a1.26 1.26 0 0 0-.65-.53h0a1.24 1.24 0 0 0-1.51.53h0a.47.47 0 0 0-.06.09L22.1 46.55A1 1 0 0 0 23 48h24a1 1 0 0 0 1-1 1 1 0 0 0 0-.3zM34 32.82a1 1 0 1 1 2 0v6.54a1 1 0 0 1-2 0zm1 10.9a1.09 1.09 0 1 1 1.09-1.09A1.09 1.09 0 0 1 35 43.73z" fill="#02b6d3"/></svg>