<svg xmlns="http://www.w3.org/2000/svg" viewBox="0 0 71.78 47.78"><g fill="#02b6d3"><circle cx="10.49" cy="13.89" r="1.75"/><circle cx="17.39" cy="13.89" r="1.75"/><circle cx="24.29" cy="13.89" r="1.75"/><circle cx="31.19" cy="13.89" r="1.75"/><circle cx="38.09" cy="13.89" r="1.75"/><circle cx="44.99" cy="13.89" r="1.75"/></g><path d="M51.74,6.76V4.18a4.09,4.09,0,0,0-4-4.18h-40a4.1,4.1,0,0,0-4,4.18V6.76Z" fill="#979797"/><path d="M43.88 47.78A12.7 12.7 0 0 0 56.56 35.1a12.52 12.52 0 0 0-1.15-5.26L60.3 25h3v-3l.35-.35h3v-3l.35-.35h3v-3l1.7-1.7V7.2H65.5L49.14 23.57a12.4 12.4 0 0 0-5.26-1.15 12.68 12.68 0 1 0 0 25.36zM40.5 35.1a3.38 3.38 0 1 1-3.38 3.38 3.39 3.39 0 0 1 3.38-3.38z" fill="#02b6d3"/><path d="M40.5 40.36a1.84 1.84 0 0 0 1.32-.54h-2.65a1.87 1.87 0 0 0 1.33.54zm0-3.76a1.87 1.87 0 0 0-1.75 1.21h3.5a1.87 1.87 0 0 0-1.76-1.21zm-10 3.2h-1.77v-2H30a13.89 13.89 0 0 1 .77-8h-27v3.82a4.1 4.1 0 0 0 4 4.18h19v2h-13a1 1 0 0 0 0 2H31.4a14.27 14.27 0 0 1-.88-2zm-4.77-7a2 2 0 1 1 2 2 2 2 0 0 1-2-2zm23.07-11l.55-.56h-2.5a13.77 13.77 0 0 1 1.94.56zm-7.93-.56H3.74V28h27.88a14.2 14.2 0 0 1 9.25-6.76zm11-2.52H2V9.28h51.5v7.82l2-2V9.28a2 2 0 0 0-2-2H2a2 2 0 0 0-2 2v9.44a2 2 0 0 0 2 2h47.87z" fill="#979797"/></svg>