<svg xmlns="http://www.w3.org/2000/svg" viewBox="0 0 42.83 49.75"><path d="M23.75 41.18a5.36 5.36 0 1 0-4.67 0 8 8 0 0 0-5.69 7.68.89.89 0 0 0 .89.89h14.28a.89.89 0 0 0 .89-.89 8 8 0 0 0-5.7-7.68z" fill="#979797"/><path d="M10.37 10.17a5.35 5.35 0 1 0-4.68 0A8 8 0 0 0 0 17.85a.89.89 0 0 0 .89.89h14.28a.89.89 0 0 0 .89-.89 8 8 0 0 0-5.69-7.68zm26.77 0a5.35 5.35 0 1 0-4.68 0 8 8 0 0 0-5.69 7.68.89.89 0 0 0 .89.89h14.28a.89.89 0 0 0 .89-.89 8 8 0 0 0-5.69-7.68z" fill="#02b6d3"/><path d="M15.66 21.66l4.86 2.43v4.8a.9.9 0 0 0 1.79 0v-4.8l4.86-2.43a.89.89 0 0 0-.4-1.69 1 1 0 0 0-.4.09l-4.95 2.48-5-2.48a.93.93 0 0 0-.4-.09.91.91 0 0 0-.8.49.9.9 0 0 0 .44 1.2z" fill="#979797"/></svg>