<svg xmlns="http://www.w3.org/2000/svg" viewBox="0 0 42 47.14"><path d="M38.27 23a.79.79 0 0 0 0-.13.89.89 0 0 0 0-.14h0l-4.5-10.1h1a.7.7 0 0 0 0-1.39H23.6a2.77 2.77 0 0 0-5.36 0H8.4a.7.7 0 0 0 0 1.39h1L5 22.77a.7.7 0 0 0 0 .14.79.79 0 0 0 0 .13h0a5.56 5.56 0 0 0 11.11 0h0a.79.79 0 0 0 0-.13.89.89 0 0 0 0-.14h0l-4.55-10.14h6.67a2.78 2.78 0 0 0 2 2v20.22h-4.18a.7.7 0 0 0 0 1.39h10.42a.7.7 0 0 0 0-1.39H21.6V14.62a2.79 2.79 0 0 0 2-2h8.06L27.2 22.77a.7.7 0 0 0 0 .14.79.79 0 0 0 0 .13h0a5.56 5.56 0 0 0 11.11 0zm-24-.7H6.7l3.8-8.68zm14.63 0l3.8-8.68 3.8 8.68zm-6.3-7v6.1h4.12l3.4-7.77h-5.84a3.8 3.8 0 0 1-1.67 1.67zM41.46.55a1 1 0 0 0-1 .07C36.9 3.08 34 4.2 31 4.2A11.55 11.55 0 0 1 22 0v8.32a3.81 3.81 0 0 1 2.28 1.92H34.8a1.7 1.7 0 0 1 .48 3.32l3.4 7.84H42v-20a1 1 0 0 0-.54-.85zm-11 20.8H35l-2.27-5.2-2.27 5.2z" fill="#02b6d3"/><path d="M39.25 23.4a6.54 6.54 0 0 1-13.07 0H22.6v10.45h3.86a1.7 1.7 0 0 1 0 3.39H22v9.9c16.8-5 19.84-15.37 20-15.8a.84.84 0 0 0 0-.27V23.4zM8.22 21.35h4.54l-2.27-5.2-2.27 5.2zm9.33-7.72h-4.47l3.37 7.77h2.77v-6.1a3.75 3.75 0 0 1-1.67-1.67zm-9.62-.07a1.7 1.7 0 0 1 .48-3.32h9.13a3.79 3.79 0 0 1 2.46-2V0a11.55 11.55 0 0 1-9 4.19C8 4.2 5.1 3.1 1.57.62a1 1 0 0 0-1-.07 1 1 0 0 0-.57.89v20h4.5z" fill="#979797"/><path d="M16.05 37.24a1.7 1.7 0 0 1 0-3.39h3.17V23.4H17a6.54 6.54 0 0 1-13 0H0v7.66a.84.84 0 0 0 0 .27c.12.44 3.17 10.83 20 15.8v-9.9z" fill="#02b6d3"/></svg>