<svg xmlns="http://www.w3.org/2000/svg" viewBox="0 0 42 47.14"><path d="M7.6 23.4H0v7.67a.84.84 0 0 0 0 .27c.12.44 3.17 10.83 20 15.8v-11.4A13.39 13.39 0 0 1 7.6 23.39zM41.46.55a1 1 0 0 0-1 .07C36.9 3.08 34 4.2 31 4.2A11.55 11.55 0 0 1 22 0v9.06a13.39 13.39 0 0 1 12.29 12.33H42V1.44a1 1 0 0 0-.54-.89z" fill="#02b6d3"/><path d="M20 9.05V0a11.55 11.55 0 0 1-9 4.19C8 4.2 5.1 3.1 1.57.62a1 1 0 0 0-1-.07 1 1 0 0 0-.57.89v20h7.6A13.39 13.39 0 0 1 20 9.05zM34.3 23.4A13.4 13.4 0 0 1 22 35.73v11.4c16.8-5 19.84-15.37 20-15.8a.84.84 0 0 0 0-.27V23.4z" fill="#979797"/><path d="M19.12 22.6l-.8 5.28a.47.47 0 0 0 .1.36.49.49 0 0 0 .34.15h4.4a.49.49 0 0 0 .34-.15.47.47 0 0 0 .1-.36l-.82-5.28a3.47 3.47 0 0 0 1.7-3 3.52 3.52 0 1 0-7 0 3.48 3.48 0 0 0 1.66 3z" fill="#02b6d3"/></svg>