<svg xmlns="http://www.w3.org/2000/svg" xmlns:xlink="http://www.w3.org/1999/xlink" width="42" height="42"><defs><path id="A" d="M0 .203h27.8v9.842H0z"/></defs><g fill="none" fill-rule="evenodd"><g transform="translate(0 24.4)"><mask id="B" fill="#fff"><use xlink:href="#A"/></mask><path d="M18.042 2.663c0-.905.736-1.64 1.64-1.64s1.64.736 1.64 1.64-.736 1.64-1.64 1.64-1.64-.736-1.64-1.64h0zm9.758 5.74h-7.297v-1.64H27.8V.203H0v3.135c0 1.9 1.472 3.427 3.28 3.427h15.582v1.64H8.2a.82.82 0 1 0 0 1.641h19.6v-1.64z" fill="#919a9c" mask="url(#B)"/></g><path d="M27.8 21.907a3.98 3.98 0 0 1 3.973-3.973h7.592V3.425c0-1.888-1.472-3.425-3.28-3.425H3.28C1.47 0 0 1.537 0 3.425v19.538h27.8v-1.056z" fill="#919a9c"/><path d="M30.44 37.454h10.67V24.13H30.44v13.325zm5.336 3.112a.89.89 0 0 1-.889-.89.89.89 0 0 1 .889-.889.89.89 0 0 1 .889.889.89.89 0 0 1-.889.89h0zm-2.222-19.105H38c.246 0 .445.2.445.445s-.2.444-.445.444h-4.446c-.247 0-.445-.2-.445-.444s.2-.445.445-.445h0zm6.225-1.78h-8.005c-1.225 0-2.222.997-2.222 2.223v17.77c0 1.226.997 2.223 2.223 2.223h8.005c1.225 0 2.222-.998 2.222-2.223v-17.77c0-1.226-.998-2.223-2.222-2.223h0z" fill="#02b6d3"/></g></svg>