<svg xmlns="http://www.w3.org/2000/svg" width="52" height="41" fill-rule="evenodd"><path d="M4.316 30.21h43.158V4.316H4.316V30.21zM48.553 0H3.237A3.24 3.24 0 0 0 0 3.237V31.29a3.24 3.24 0 0 0 3.237 3.237H21.58v4.316h-6.474a1.08 1.08 0 0 0-1.079 1.079A1.08 1.08 0 0 0 15.105 41h21.58a1.08 1.08 0 0 0 1.079-1.079 1.08 1.08 0 0 0-1.079-1.079H30.21v-4.316h18.342a3.24 3.24 0 0 0 3.237-3.237V3.237A3.24 3.24 0 0 0 48.553 0h0z" fill="#919a9c"/><path d="M23.586 15.76l4.72 2.16 4.772-4.184a5.33 5.33 0 0 0-9.622-4.064l-.796 4.115.916 1.97zm-4.892 4.996a5.49 5.49 0 0 0-.104 1.071 5.36 5.36 0 0 0 5.342 5.342c1.78 0 3.423-.882 4.426-2.334l.78-4.114-1.055-2.007-4.737-2.16-4.65 4.202zm-.034-8.18l3.234.76.726-3.682a2.52 2.52 0 0 0-1.556-.518c-1.4 0-2.56 1.14-2.56 2.56a2.56 2.56 0 0 0 .156.88m-.277.78a3.59 3.59 0 0 0-2.455 3.39c0 1.487.915 2.817 2.298 3.336l4.547-4.115-.83-1.78-3.562-.83zM29.2 24.818a2.52 2.52 0 0 0 1.54.536c1.4 0 2.558-1.142 2.558-2.558 0-.312-.052-.606-.155-.88l-3.233-.76-.7 3.664zm.655-4.512l3.562.83a3.61 3.61 0 0 0 2.455-3.39c0-1.488-.915-2.802-2.3-3.337l-4.668 4.08.95 1.816z" fill="#02b6d3"/></svg>