<svg xmlns="http://www.w3.org/2000/svg" viewBox="0 0 59.27 40.48"><path d="M58.56 6.15H30a.71.71 0 0 0-.71.72v32.9a.71.71 0 0 0 .71.72h28.56a.71.71 0 0 0 .71-.72V6.87a.71.71 0 0 0-.71-.72zm-.72 32.9H30.67V7.58h27.17zM32.6 31.93l8.1-2.7V27.3a4.4 4.4 0 0 1-1.42-3.47 2.61 2.61 0 0 1-.93-2.12 2.24 2.24 0 0 1 .33-1.25A1.54 1.54 0 0 1 39 20c-.4-1-1-2.36-.37-3.27a1.64 1.64 0 0 1 1.55-.66C41 14.58 43.2 14 45 14c2 0 4.5.7 5 2.7a5.29 5.29 0 0 1-.43 3.34 1.88 1.88 0 0 1 .35.39 2.29 2.29 0 0 1 .31 1.23 2.64 2.64 0 0 1-.93 2.15 4.4 4.4 0 0 1-1.42 3.47v1.95l8.1 2.7a.72.72 0 0 1 .49.68V9.73A.71.71 0 0 0 55.7 9H32.8a.71.71 0 0 0-.71.72v22.9a.71.71 0 0 1 .49-.68z" fill="#02b6d3"/><path d="M27.74 30H17a1 1 0 0 1 0-2h10.74v-4H17a1 1 0 0 1 0-2h10.74v-4H17a1 1 0 0 1 0-2h10.74v-4H0v21a5 5 0 0 0 5 5h22.74zM11 30H9a1 1 0 0 1 0-2h2a1 1 0 0 1 0 2zm0-6H9a1 1 0 0 1 0-2h2a1 1 0 0 1 0 2zm0-6H9a1 1 0 0 1 0-2h2a1 1 0 0 1 0 2zM27.74 4.65H48A5 5 0 0 0 43 0H5a5 5 0 0 0-5 5v5h27.74zM8 8a2 2 0 1 1 2-2 2 2 0 0 1-2 2zm6 0a2 2 0 1 1 2-2 2 2 0 0 1-2 2zm6 0a2 2 0 1 1 2-2 2 2 0 0 1-2 2z" fill="#979797"/></svg>