<svg xmlns="http://www.w3.org/2000/svg" viewBox="0 0 44.05 47.88"><path d="M20 37.46l-3.5 6a.58.58 0 0 0 .6.86l4-.67 1.38 3.8a.59.59 0 0 0 .49.38H23a.58.58 0 0 0 .49-.28l3-5A12.15 12.15 0 0 1 20 37.46zm24 6.04l-3.4-5.9a12.23 12.23 0 0 1-6.55 5l2.95 5a.58.58 0 0 0 .5.28h0a.56.56 0 0 0 .5-.38l1.4-3.8 4 .67a.58.58 0 0 0 .57-.24.56.56 0 0 0 .04-.62zm-2.66-14.13a11 11 0 1 0-11 11 11 11 0 0 0 11-11zM35.9 28.1l-2.6 2.07 1.06 3.7a.61.61 0 0 1-.21.63.63.63 0 0 1-.35.11.59.59 0 0 1-.31-.09l-3.17-2-3.17 2a.59.59 0 0 1-.66 0 .61.61 0 0 1-.21-.63l1.06-3.7-2.6-2.07a.6.6 0 0 1-.19-.65.58.58 0 0 1 .55-.39h3.12l1.58-3.16a.61.61 0 0 1 1 0l1.58 3.16h3.12a.58.58 0 0 1 .36 1z" fill="#02b6d3"/><path d="M28.44 8.68L20 .25a.84.84 0 0 0-.6-.25H.84A.85.85 0 0 0 0 .84v35.44a.85.85 0 0 0 .84.84h18.6a12.61 12.61 0 0 1 9.25-20.2V9.28a.89.89 0 0 0-.24-.6zm-18.5 6.44L6.1 19a.76.76 0 0 1-.54.23A.78.78 0 0 1 5 19l-2.3-2.34a.77.77 0 0 1 1.08-1.09l1.77 1.77L8.85 14a.77.77 0 0 1 1.09 1.09zm0-6.92L6.1 12a.76.76 0 0 1-.54.23A.78.78 0 0 1 5 12L2.7 9.73a.74.74 0 0 1 0-1.08.76.76 0 0 1 1.08 0l1.77 1.76 3.3-3.3A.77.77 0 1 1 9.94 8.2zm8.7 10.23H12.5a.77.77 0 0 1 0-1.54h6.15a.77.77 0 0 1 0 1.54zm0-6.16H12.5a.77.77 0 0 1 0-1.54h6.15a.77.77 0 1 1 0 1.54zm.77-3V.84l8.44 8.44z" fill="#979797"/></svg>