<svg xmlns="http://www.w3.org/2000/svg" xmlns:xlink="http://www.w3.org/1999/xlink" width="42" height="40"><defs><path id="A" d="M0 .49h41.74v27.337H0z"/><path id="B" d="M0 0h27.825v13.532H0z"/></defs><g fill="none" fill-rule="evenodd"><g transform="translate(0 12.174)"><mask id="C" fill="#fff"><use xlink:href="#A"/></mask><path d="M40.87 17.39h-4.348V7.826a.87.87 0 0 0-.87-.87H21.74V1.358a.87.87 0 0 0-.87-.87.87.87 0 0 0-.87.87v5.598H6.087a.87.87 0 0 0-.87.87v9.565H.87a.87.87 0 0 0-.87.87v8.696a.87.87 0 0 0 .87.87h8.696a.87.87 0 0 0 .87-.87V18.26a.87.87 0 0 0-.87-.87h-2.61V8.695H20v8.696h-3.478a.87.87 0 0 0-.87.87v8.696a.87.87 0 0 0 .87.87h8.696a.87.87 0 0 0 .87-.87V18.26a.87.87 0 0 0-.87-.87H21.74V8.695h13.043v8.696h-2.61a.87.87 0 0 0-.87.87v8.696a.87.87 0 0 0 .87.87h8.696a.87.87 0 0 0 .87-.87V18.26a.87.87 0 0 0-.87-.87" fill="#919a9c" mask="url(#C)"/></g><g transform="translate(6.957)"><mask id="D" fill="#fff"><use xlink:href="#B"/></mask><path d="M5.49 5.5c.704.703.704 1.85 0 2.553a1.81 1.81 0 0 1-2.553 0 1.81 1.81 0 0 1 0-2.553c.704-.704 1.85-.704 2.553 0m-3.5 6.063a6.78 6.78 0 0 0 9.573 0 6.68 6.68 0 0 0 1.552-2.422l3.685.001 1.144 1.144 1.143-1.144h.265l1.143 1.144L21.63 9.13h.264l1.144 1.144 1.144-1.144h1.277l2.365-2.365L25.46 4.4H13.105c-.34-.915-.86-1.727-1.552-2.42a6.78 6.78 0 0 0-9.573 0 6.78 6.78 0 0 0 0 9.573" fill="#02b6d3" mask="url(#D)"/></g></g></svg>