<svg xmlns="http://www.w3.org/2000/svg" viewBox="0 0 69.28 49.24"><g fill="#979797"><path d="M49.38 0h-38a5 5 0 0 0-5 5v5h48V5a5 5 0 0 0-5-5zm-35 8a2 2 0 1 1 2-2 2 2 0 0 1-2 2zm6 0a2 2 0 1 1 2-2 2 2 0 0 1-2 2zm6 0a2 2 0 1 1 2-2 2 2 0 0 1-2 2zM4 12.12v-5a5 5 0 0 1 .39-1.94A5 5 0 0 0 0 10.12v5h48v-3z"/><path d="M44.14 40.12H9a5 5 0 0 1-5-5v-18H0v21a5 5 0 0 0 5 5h38a4.82 4.82 0 0 0 1.14-.12zM30.1 32.55a.77.77 0 0 1 .48-.73L54.38 22V12h-48v21a5 5 0 0 0 5 5h31.4L30.6 33.27a.78.78 0 0 1-.49-.72zm-7-7.84l-5 5a1.001 1.001 0 0 1-1.41-1.42L21 24l-4.3-4.3a1.001 1.001 0 1 1 1.41-1.42l5 5a1 1 0 0 1-.04 1.42zm4.3.3a1 1 0 0 1 1-1h8a1 1 0 0 1 0 2h-8a1 1 0 0 1-1.03-1z"/></g><path d="M36.74 32.1a.7.7 0 0 0-.43.64.71.71 0 0 0 .44.64l11.42 4.44 20-18.7zm11.96 7.1h0v9.36a.7.7 0 0 0 .51.67h.18a.68.68 0 0 0 .61-.33l4.53-7.75 8.3 4.57a.8.8 0 0 0 .33.08.72.72 0 0 0 .29-.06.7.7 0 0 0 .39-.48L69.28 20z" fill="#02b6d3"/></svg>