<svg xmlns="http://www.w3.org/2000/svg" viewBox="0 0 48 48"><path d="M.54.1A1 1 0 0 0 0 1v32a1 1 0 0 0 .42.81L14 43.5V9.06L1.58.2A1 1 0 0 0 .54.11zM39 22a11 11 0 0 1 5 1.2 1.23 1.23 0 0 0 0-.2V11a1 1 0 0 0-.42-.81L30 .5v26.2a11 11 0 0 1 9-4.7zM16 43.52l12-8.58V.5L16 9.06v34.46z" fill="#979797"/><path d="M39 24a9 9 0 0 0-9 9 4.4 4.4 0 0 0 0 .49h0v.34c0 .1.05.23.07.35l.12.5c0 .16.1.33.14.5l.13.36a19.81 19.81 0 0 0 .92 2.15l.2.4.26.5.4.73.12.2a65.58 65.58 0 0 0 5.39 7.65l.4.5a1 1 0 0 0 1.54 0l.4-.47a65.81 65.81 0 0 0 5.4-7.67l.12-.2.4-.73.26-.5.2-.4a19.81 19.81 0 0 0 .92-2.15l.13-.36c0-.17.1-.34.14-.5l.12-.5c0-.12 0-.24.07-.35A6.05 6.05 0 0 0 48 33a9 9 0 0 0-9-9zm0 13a4 4 0 1 1 4-4 4 4 0 0 1-4 4z" fill="#02b6d3"/></svg>