<svg xmlns="http://www.w3.org/2000/svg" viewBox="0 0 48 48"><path d="M47 26h-6v-5a3 3 0 0 0-3-3h-2.92v-7.94A10.09 10.09 0 0 0 25 0h-2a10.09 10.09 0 0 0-10.08 10.06V18H10a3 3 0 0 0-3 3v5H1a1 1 0 0 0-1 1v12a1 1 0 0 0 1 1h6v5a3 3 0 0 0 3 3h28a3 3 0 0 0 3-3v-5h6a1 1 0 0 0 1-1V27a1 1 0 0 0-1-1zM17.42 10.06A5.56 5.56 0 0 1 23 4.5h2a5.56 5.56 0 0 1 5.56 5.56V18H17.42zM46 38H2V28h44z" fill="#979797"/><g fill="#02b6d3"><circle cx="6.75" cy="33" r="1.75"/><circle cx="13.65" cy="33" r="1.75"/><circle cx="20.55" cy="33" r="1.75"/><circle cx="27.45" cy="33" r="1.75"/><circle cx="34.35" cy="33" r="1.75"/><circle cx="41.25" cy="33" r="1.75"/></g></svg>