<svg xmlns="http://www.w3.org/2000/svg" viewBox="0 0 48 46"><g fill="#979797"><circle cx="7" cy="17" r="1"/><path d="M35.64.23A1,1,0,0,0,35,0H13a1,1,0,0,0-.64.23L.64,10H47.36Z"/></g><path d="M48 12H0v10h48zM7 20a3 3 0 1 1 3-3 3 3 0 0 1-3 3zm21-1a2 2 0 1 1 2-2 2 2 0 0 1-2 2zm6 0a2 2 0 1 1 2-2 2 2 0 0 1-2 2zm6 0a2 2 0 1 1 2-2 2 2 0 0 1-2 2z" fill="#02b6d3"/><g fill="#979797"><circle cx="7" cy="29" r="1"/><path d="M48 24H0v10h48zM7 32a3 3 0 1 1 3-3 3 3 0 0 1-3 3zm21-1a2 2 0 1 1 2-2 2 2 0 0 1-2 2zm6 0a2 2 0 1 1 2-2 2 2 0 0 1-2 2zm6 0a2 2 0 1 1 2-2 2 2 0 0 1-2 2z"/><circle cx="7" cy="41" r="1"/></g><path d="M48 36H0v10h48zM7 44a3 3 0 1 1 3-3 3 3 0 0 1-3 3zm21-1a2 2 0 1 1 2-2 2 2 0 0 1-2 2zm6 0a2 2 0 1 1 2-2 2 2 0 0 1-2 2zm6 0a2 2 0 1 1 2-2 2 2 0 0 1-2 2z" fill="#02b6d3"/></svg>