<svg xmlns="http://www.w3.org/2000/svg" viewBox="0 0 47.1 48"><path d="M11.3 31v-8.9a12 12 0 0 1 1.39-5.63 8.08 8.08 0 0 0-2.95-1.17 5 5 0 1 0-3 0A8.29 8.29 0 0 0 0 23.48v7.18a1 1 0 0 0 1 1h2.34l1.5 12a1 1 0 0 0 1 .88h4.83a1 1 0 0 0 1-.88l1.25-10A3 3 0 0 1 11.3 31zm29.03-15.7a5 5 0 1 0-3 0 8.1 8.1 0 0 0-3.31 1.41A12 12 0 0 1 35.3 22v9a3 3 0 0 1-1.16 2.35l1.3 10.33a1 1 0 0 0 1 .88h4.84a1 1 0 0 0 1-.88l1.5-12h2.32a1 1 0 0 0 1-1V23.4a8.26 8.26 0 0 0-6.77-8.11z" fill="#979797"/><path d="M23.3 12a6 6 0 1 0-6-6 6 6 0 0 0 6 6 10 10 0 0 0-10 10.09V31a1 1 0 0 0 1 1h3.12l1.9 15.12a1 1 0 0 0 1 .88h6a1 1 0 0 0 1-.88L29.18 32h3.12a1 1 0 0 0 1-1v-9a10 10 0 0 0-9.99-10z" fill="#02b6d3"/></svg>