<svg xmlns="http://www.w3.org/2000/svg" viewBox="0 0 55.49 47.89"><g fill="#979797"><path d="M37.46 37.5h-8.34v-1.87h8.34v-7.5H5.7v3.58a3.84 3.84 0 0 0 3.75 3.92h17.8v1.87h-12.2a.94.94 0 1 0 0 1.88h22.4zM26.3 30.93a1.88 1.88 0 1 1 1.87 1.87 1.87 1.87 0 0 1-1.87-1.87zm24.85-8.43H42a2.54 2.54 0 0 0-2.54 2.5v20.35A2.54 2.54 0 0 0 42 47.89h9.15a2.54 2.54 0 0 0 2.54-2.54V25a2.54 2.54 0 0 0-2.54-2.5zm-7.12 2h5.1a.505.505 0 1 1 0 1.01H44a.5.5 0 0 1-.5-.5.5.5 0 0 1 .5-.48zm2.54 21.83a1 1 0 1 1 1-1 1 1 0 0 1-1 1.03zm6.1-3.56h-12.2v-15.2h12.2z"/><path d="M5.7 17.84v8.4h31.77V25A4.54 4.54 0 0 1 42 20.5h8.68v-2.66zM50.68 6.4V3.9A3.84 3.84 0 0 0 46.93 0H9.44a3.84 3.84 0 0 0-3.75 3.91v2.5z"/></g><g fill="#02b6d3"><circle cx="10.49" cy="13.09" r="1.75"/><circle cx="17.39" cy="13.09" r="1.75"/><circle cx="24.29" cy="13.09" r="1.75"/><circle cx="31.19" cy="13.09" r="1.75"/><circle cx="38.09" cy="13.09" r="1.75"/><circle cx="44.99" cy="13.09" r="1.75"/></g><rect x="1" y="7.48" width="53.49" height="11.43" rx="1" fill="none" stroke="#979797" stroke-miterlimit="10" stroke-width="2"/></svg>