<svg xmlns="http://www.w3.org/2000/svg" viewBox="0 0 31.48 44.04"><path d="M30.82 36.18h-3.28V29a.65.65 0 0 0-.65-.65H16.4v-4.27a.65.65 0 0 0-.65-.65h0a.66.66 0 0 0-.66.65v4.23H4.6a.66.66 0 0 0-.66.65v7.22H.66a.65.65 0 0 0-.66.65v6.56a.65.65 0 0 0 .66.61H7.2a.65.65 0 0 0 .66-.65v-6.52a.65.65 0 0 0-.66-.65h-2v-6.56h9.83v6.56h-2.58a.66.66 0 0 0-.66.65v6.56a.66.66 0 0 0 .66.65H19a.65.65 0 0 0 .65-.65v-6.56a.65.65 0 0 0-.65-.65h-2.6v-6.56h9.84v6.56h-2a.65.65 0 0 0-.65.65v6.56a.65.65 0 0 0 .65.65h6.56a.66.66 0 0 0 .66-.65v-6.56a.66.66 0 0 0-.63-.65z" fill="#979797"/><path d="M28.2 0H3.28A3.28 3.28 0 0 0 0 3.28v3.28h31.48V3.28A3.28 3.28 0 0 0 28.2 0zM5.25 5.25a1.32 1.32 0 1 1 1.31-1.32 1.32 1.32 0 0 1-1.31 1.32zm3.93 0a1.32 1.32 0 1 1 1.31-1.32 1.32 1.32 0 0 1-1.31 1.32zm3.94 0a1.32 1.32 0 1 1 1.31-1.32 1.32 1.32 0 0 1-1.31 1.32zM0 21.64a3.28 3.28 0 0 0 3.28 3.28H28.2a3.28 3.28 0 0 0 3.28-3.28V7.87H0zM11.15 10.5h13.1a.66.66 0 0 1 .66.66.65.65 0 0 1-.66.65h-13.1a.66.66 0 0 1-.66-.65.67.67 0 0 1 .66-.66zm0 3.94h13.1a.65.65 0 0 1 .66.65.66.66 0 0 1-.66.66h-13.1a.67.67 0 0 1-.66-.66.66.66 0 0 1 .66-.65zm0 3.93h13.1a.66.66 0 1 1 0 1.31h-13.1a.66.66 0 1 1 0-1.31zM5.9 10.5h1.3a.66.66 0 0 1 .66.66.65.65 0 0 1-.66.65H5.9a.65.65 0 0 1-.65-.65.66.66 0 0 1 .65-.66zm0 3.94h1.3a.65.65 0 0 1 .66.65.66.66 0 0 1-.66.66H5.9a.66.66 0 0 1-.65-.66.65.65 0 0 1 .65-.65zm0 3.93h1.3a.66.66 0 1 1 0 1.31H5.9a.66.66 0 0 1 0-1.31z" fill="#02b6d3"/></svg>