<svg xmlns="http://www.w3.org/2000/svg" viewBox="0 0 59.49 48.3"><path d="M48 25.3a11.5 11.5 0 1 0 11.5 11.5A11.5 11.5 0 0 0 48 25.3zm0 21a9.5 9.5 0 1 1 9.5-9.5 9.52 9.52 0 0 1-9.5 9.5zm6-14.04l-10.5 10.5A7.49 7.49 0 0 0 54 32.26zm-6-2.96a7.52 7.52 0 0 0-7.5 7.5 7.41 7.41 0 0 0 1.5 4.54l10.53-10.5A7.41 7.41 0 0 0 48 29.3z" fill="#02b6d3"/><path d="M43 0H5a5 5 0 0 0-5 5v5h48V5a5 5 0 0 0-5-5zM8 8a2 2 0 1 1 2-2 2 2 0 0 1-2 2zm6 0a2 2 0 1 1 2-2 2 2 0 0 1-2 2zm6 0a2 2 0 1 1 2-2 2 2 0 0 1-2 2zm14.06 29.43a14.59 14.59 0 0 1 1.44-6.33H8.24V26h30.62v.5A14.74 14.74 0 0 1 48 22.7V12H0v21a5 5 0 0 0 5 5h29.1l-.03-.57zM8.24 18.9h30.62V24H8.24z" fill="#979797"/></svg>