<svg xmlns="http://www.w3.org/2000/svg" viewBox="0 0 42.2 50.09"><g fill="#02b6d3"><circle cx="8.13" cy="24.96" r="1.31"/><circle cx="28.88" cy="24.96" r="1.31"/><circle cx="34.07" cy="24.96" r="1.31"/><circle cx="13.32" cy="24.96" r="1.31"/><circle cx="18.51" cy="24.96" r="1.31"/><circle cx="23.69" cy="24.96" r="1.31"/></g><rect x="1" y="20.75" width="40.2" height="8.59" rx=".75" fill="none" stroke="#979797" stroke-miterlimit="10" stroke-width="2"/><path d="M17.52 34.62a2.09 2.09 0 1 0-2.68 3.2l3.62 3a16.45 16.45 0 0 1-11.28-8.51H2.62a20.75 20.75 0 0 0 14.22 12.44l-2.5 1.44a2.09 2.09 0 0 0-1 1.81 2 2 0 0 0 .28 1 2.09 2.09 0 0 0 2.85.77l8.73-5.05a2 2 0 0 0 .4-.3 2 2 0 0 0 .68-1.36 2.09 2.09 0 0 0-.73-1.77zM7.3 17.78a15.31 15.31 0 0 1 2.7-3.63 2.1 2.1 0 0 0-3-2.94 19.78 19.78 0 0 0-4.3 6.57zM35 32.3a15.61 15.61 0 0 1-3.55 4.62 2.09 2.09 0 1 0 2.76 3.13 19.83 19.83 0 0 0 5.38-7.75zM22.55 15.73a2.09 2.09 0 1 0 2.68-3.2l-4.3-3.6a15.84 15.84 0 0 1 7.72 2.26 16.8 16.8 0 0 1 6.22 6.58h4.58A21 21 0 0 0 30.8 7.62a20 20 0 0 0-6.91-2.56l2-1.18A2.096 2.096 0 1 0 23.71.3l-8.9 5.34a2.08 2.08 0 0 0-1 1.63v.16A2.11 2.11 0 0 0 14.55 9z" fill="#02b6d3"/></svg>