<svg xmlns="http://www.w3.org/2000/svg" viewBox="0 0 48 44"><path d="M34.7 27.6h-.47V14.1a.46.46 0 0 0-.46-.47H31a.47.47 0 0 0-.46.47v13.5h-1.88v-7a.47.47 0 0 0-.47-.47h-2.8a.47.47 0 0 0-.47.47v7h-1.86v-8.85a.47.47 0 0 0-.47-.46h-2.8a.47.47 0 0 0-.47.46v8.85h-1.86v-4.2A.46.46 0 0 0 17 23h-2.8a.45.45 0 0 0-.46.46v4.2h-.47a.47.47 0 0 0-.47.47.46.46 0 0 0 .47.46H34.7a.46.46 0 0 0 .47-.46.47.47 0 0 0-.47-.51zm-19.08-9.3A1.4 1.4 0 0 0 17 16.9a1.29 1.29 0 0 0-.1-.48l3.58-3a1.33 1.33 0 0 0 .71.2 1.37 1.37 0 0 0 1.09-.54l3.1 1a1.4 1.4 0 0 0 2.79 0 1.35 1.35 0 0 0-.19-.69l3.88-4.53a1.4 1.4 0 1 0-.9-1.3 1.36 1.36 0 0 0 .2.69L27.3 12.8a1.45 1.45 0 0 0-.51-.1 1.4 1.4 0 0 0-1.09.54l-3.1-1a1.39 1.39 0 0 0-1.39-1.37 1.4 1.4 0 0 0-1.4 1.4 1.28 1.28 0 0 0 .09.48l-3.57 3a1.33 1.33 0 0 0-.71-.2 1.4 1.4 0 1 0 0 2.79z" fill="#02b6d3"/><path d="M44 0H4a4 4 0 0 0-4 4v30a4 4 0 0 0 4 4h13.6l-1.33 4H10a1 1 0 0 0 0 2h28a1 1 0 0 0 0-2h-6.28l-1.33-4H44a4 4 0 0 0 4-4V4a4 4 0 0 0-4-4zM24 35a2 2 0 1 1 2-2 2 2 0 0 1-2 2zm20-5H4V4h40z" fill="#979797"/></svg>