<svg xmlns="http://www.w3.org/2000/svg" viewBox="0 0 48 48"><path d="M47,46H46V17a1,1,0,0,0-1-1H39a1,1,0,0,0-1,1V46H34V31a1,1,0,0,0-1-1H27a1,1,0,0,0-1,1V46H22V27a1,1,0,0,0-1-1H15a1,1,0,0,0-1,1V46H10V37a1,1,0,0,0-1-1H3a1,1,0,0,0-1,1v9H1a1,1,0,0,0,0,2H47a1,1,0,0,0,0-2Z" fill="#979797"/><path d="M6 26a3 3 0 0 0 3-3 2.9 2.9 0 0 0-.2-1l7.68-6.4A2.92 2.92 0 0 0 18 16a3 3 0 0 0 2.35-1.16L27 17.06a3 3 0 1 0 5.59-1.55l8.33-9.72a3 3 0 1 0-1.51-1.3l-8.33 9.72a2.94 2.94 0 0 0-3.43.95L21 12.94A3 3 0 1 0 15.2 14l-7.68 6.43A2.92 2.92 0 0 0 6 20a3 3 0 0 0 0 6z" fill="#02b6d3"/></svg>