<svg xmlns="http://www.w3.org/2000/svg" width="49" height="42" fill-rule="evenodd"><path d="M37.492 8.048C34.888 3.137 29.723 0 24.15 0 16.554 0 10.19 5.66 9.194 13.078c-.208-.016-.416-.023-.624-.023A8.59 8.59 0 0 0 0 21.638c0 7.29 6.412 8.388 8.463 8.554l.988.001A13.67 13.67 0 0 1 23.1 16.571 13.67 13.67 0 0 1 36.75 30.22h1.528l.067-.01c.1-.012 9.955-1.407 9.955-11.084 0-6.023-4.825-10.938-10.81-11.08" fill="#919a9c"/><path d="M28.043 28.864l-5.25 5.25c-.205.205-.474.308-.742.308s-.538-.103-.742-.308l-3.15-3.15a1.05 1.05 0 0 1 1.485-1.485l2.408 2.408 4.508-4.508a1.05 1.05 0 0 1 1.485 1.485M23.1 18.67c-6.368 0-11.55 5.182-11.55 11.55s5.182 11.55 11.55 11.55 11.55-5.182 11.55-11.55-5.182-11.55-11.55-11.55" fill="#02b6d3"/></svg>