<svg xmlns="http://www.w3.org/2000/svg" viewBox="0 0 45.07 50.59"><path d="M9 29.57l-4.45 7.7a.75.75 0 0 0 0 .79.73.73 0 0 0 .73.31l5.08-.86 1.76 4.84a.72.72 0 0 0 .63.48h.07a.74.74 0 0 0 .63-.37l3.78-6.35A15.58 15.58 0 0 1 9 29.57zm31.16 7.53l-4.34-7.5a15.54 15.54 0 0 1-8.33 6.4l3.74 6.28a.74.74 0 0 0 .64.36h.07a.74.74 0 0 0 .62-.48l1.76-4.84 5.08.86a.73.73 0 0 0 .73-.31.75.75 0 0 0 .03-.76zm-3.4-15.85a14 14 0 1 0-14 14 14 14 0 0 0 14-14zm-6.92-1.63l-3.3 2.64L27.88 27a.76.76 0 0 1-.27.79.73.73 0 0 1-.44.15.72.72 0 0 1-.4-.12l-4-2.52-4 2.52A.73.73 0 0 1 17.6 27l1.34-4.7-3.3-2.64a.75.75 0 0 1 .46-1.32h4l2-4a.77.77 0 0 1 1.32 0l2 4h4a.75.75 0 0 1 .7.5.74.74 0 0 1-.27.78zM3 38.88l5.94-10.23a15.62 15.62 0 0 1-1.4-3.55H0v8.22a.92.92 0 0 0 0 .29A17.25 17.25 0 0 0 3 39zm15-2.74l-.86 1.45L13 44.7a.83.83 0 0 1-.71.4h-.08a.82.82 0 0 1-.69-.54l-2-5.4-5.62 1c3.06 3.56 8.4 7.78 17.57 10.5V36.8a15.65 15.65 0 0 1-3.47-.66z" fill="#02b6d3"/><path d="M7 21.17A15.67 15.67 0 0 1 21.46 5.56V0a12.39 12.39 0 0 1-9.63 4.49C8.6 4.5 5.48 3.3 1.7.66A1.08 1.08 0 0 0 .58.59a1.06 1.06 0 0 0-.58 1V23h7.1a17.57 17.57 0 0 1-.1-1.83zm28.57 17.97l-2 5.4a.83.83 0 0 1-.7.54h-.08a.83.83 0 0 1-.71-.4l-1.86-3.13a1.15 1.15 0 0 1-.14-.17l-3-5.2a15.29 15.29 0 0 1-3.46.61v13.8c9.17-2.72 14.52-6.94 17.58-10.5zm2.27-14.04a15.87 15.87 0 0 1-1.53 3.76l.93 1.63 4.84 8.38v.07A17.42 17.42 0 0 0 45 33.62a1.36 1.36 0 0 0 0-.29V25.1z" fill="#979797"/><path d="M44.5.6a1.08 1.08 0 0 0-1.11.07C39.6 3.3 36.46 4.5 33.24 4.5A12.4 12.4 0 0 1 23.61 0v5.54a15.68 15.68 0 0 1 14.74 15.63 17.55 17.55 0 0 1-.11 1.83h6.83V1.54a1.07 1.07 0 0 0-.57-.95z" fill="#02b6d3"/></svg>