<svg xmlns="http://www.w3.org/2000/svg" xmlns:xlink="http://www.w3.org/1999/xlink" width="26" height="26"><defs><path id="A" d="M0 0h26v5.417H0z"/><path id="B" d="M0 0h26v6.5H0z"/><path id="C" d="M.345 0h25.309v5.417H.345z"/><path id="D" d="M3.792 16.25a.54.54 0 1 0 0-1.083.54.54 0 1 0 0 1.083"/></defs><g fill="none" fill-rule="evenodd"><use xlink:href="#D" fill="#02b6d3"/><g fill="#919a9c"><path d="M3.792 8.667a.54.54 0 1 0 0 1.083.54.54 0 1 0 0-1.083"/><use xlink:href="#D" y="6.5"/></g><g transform="translate(0 13)"><mask id="E" fill="#fff"><use xlink:href="#A"/></mask><path d="M3.792 1.083a1.63 1.63 0 0 1 1.625 1.625 1.63 1.63 0 0 1-1.625 1.625 1.63 1.63 0 0 1-1.625-1.625 1.63 1.63 0 0 1 1.625-1.625h0zm11.375.542c.597 0 1.083.486 1.083 1.083s-.486 1.083-1.083 1.083-1.083-.486-1.083-1.083.486-1.083 1.083-1.083h0zm3.25 0c.597 0 1.083.486 1.083 1.083s-.486 1.083-1.083 1.083-1.083-.486-1.083-1.083.486-1.083 1.083-1.083h0zm3.25 0c.597 0 1.083.486 1.083 1.083s-.486 1.083-1.083 1.083-1.083-.486-1.083-1.083.486-1.083 1.083-1.083h0zM0 5.417h26V0H0v5.417z" fill="#02b6d3" mask="url(#E)"/></g><g transform="translate(0 19.5)"><mask id="F" fill="#fff"><use xlink:href="#B"/></mask><path d="M3.792 1.083a1.63 1.63 0 0 1 1.625 1.625 1.63 1.63 0 0 1-1.625 1.625 1.63 1.63 0 0 1-1.625-1.625 1.63 1.63 0 0 1 1.625-1.625h0zm11.375.542c.597 0 1.083.486 1.083 1.083s-.486 1.083-1.083 1.083-1.083-.486-1.083-1.083.486-1.083 1.083-1.083h0zm3.25 0c.597 0 1.083.486 1.083 1.083s-.486 1.083-1.083 1.083-1.083-.486-1.083-1.083.486-1.083 1.083-1.083h0zm3.25 0c.597 0 1.083.486 1.083 1.083s-.486 1.083-1.083 1.083-1.083-.486-1.083-1.083.486-1.083 1.083-1.083h0zM0 3.792A2.71 2.71 0 0 0 2.708 6.5h20.583A2.71 2.71 0 0 0 26 3.792V0H0v3.792z" fill="#919a9c" mask="url(#F)"/></g><g transform="translate(0 6.5)"><mask id="G" fill="#fff"><use xlink:href="#C" href="#A"/></mask><path d="M21.667 3.792c-.597 0-1.083-.486-1.083-1.083s.486-1.083 1.083-1.083 1.083.486 1.083 1.083-.486 1.083-1.083 1.083h0zm-3.25 0c-.597 0-1.083-.486-1.083-1.083s.486-1.083 1.083-1.083 1.083.486 1.083 1.083-.486 1.083-1.083 1.083h0zm-3.25 0c-.597 0-1.083-.486-1.083-1.083s.486-1.083 1.083-1.083 1.083.486 1.083 1.083-.486 1.083-1.083 1.083h0zm-11.375.542a1.63 1.63 0 0 1-1.625-1.625 1.63 1.63 0 0 1 1.625-1.625 1.63 1.63 0 0 1 1.625 1.625 1.63 1.63 0 0 1-1.625 1.625h0zM0 5.417h26V0H0v5.417z" fill="#919a9c" mask="url(#G)"/></g><mask id="H" fill="#fff"><use xlink:href="#C"/></mask><path d="M19.305.126A.54.54 0 0 0 18.958 0H7.041a.54.54 0 0 0-.347.126L.345 5.417h25.309L19.305.126z" fill="#919a9c" mask="url(#H)"/></g></svg>