<svg xmlns="http://www.w3.org/2000/svg" viewBox="0 0 48 40"><path d="M9.1 19.63v-1.8a2.23 2.23 0 0 0 .82-.16 1.11 1.11 0 0 0 .48-.46 2 2 0 0 0 .28-.8 8.72 8.72 0 0 0 .06-1.25 10.12 10.12 0 0 1 .14-2 1.89 1.89 0 0 1 .48-.92 2.45 2.45 0 0 1 1-.55 5.55 5.55 0 0 1 1.44-.14h.4v1.8a3.83 3.83 0 0 0-1.07.09.71.71 0 0 0-.35.28 1.48 1.48 0 0 0-.11.66l-.07 1.8a4.58 4.58 0 0 1-.19 1.21 2.38 2.38 0 0 1-.41.76 3 3 0 0 1-.74.62 2.68 2.68 0 0 1 .72.6 2.33 2.33 0 0 1 .43.83 5.56 5.56 0 0 1 .2 1.3v1.6a1.41 1.41 0 0 0 .12.69.77.77 0 0 0 .36.3 3.41 3.41 0 0 0 1.06.1V26h-.4a5.64 5.64 0 0 1-1.55-.16 2 2 0 0 1-.91-.54 1.81 1.81 0 0 1-.5-.92 8.15 8.15 0 0 1-.13-1.74 8.1 8.1 0 0 0-.12-1.79 1.59 1.59 0 0 0-.5-.86 1.87 1.87 0 0 0-.94-.33zm6.63.17v-2.1h2.1v2.1zm4.27 0v-2.1h2.1v2.1zm4.27 0v-2.1h2.1v2.1zm8.63-.17a2.2 2.2 0 0 0-.82.17 1.14 1.14 0 0 0-.48.45 2.35 2.35 0 0 0-.28.8 8.81 8.81 0 0 0-.06 1.25 10.41 10.41 0 0 1-.13 2 1.9 1.9 0 0 1-.49.93 2.49 2.49 0 0 1-1 .55 5.65 5.65 0 0 1-1.44.13h-.4v-1.8a3.29 3.29 0 0 0 1.05-.1.73.73 0 0 0 .37-.29 1.59 1.59 0 0 0 .12-.65l.06-1.75a4.34 4.34 0 0 1 .2-1.25 2.5 2.5 0 0 1 .44-.79 2.71 2.71 0 0 1 .7-.58 3.09 3.09 0 0 1-.81-.7 3.13 3.13 0 0 1-.48-1.26q-.08-.52-.12-2.3a1.93 1.93 0 0 0-.1-.75.56.56 0 0 0-.34-.29 3.47 3.47 0 0 0-1.09-.1v-1.8h.4a5.64 5.64 0 0 1 1.55.16 2 2 0 0 1 1.41 1.47 8 8 0 0 1 .13 1.73 9.28 9.28 0 0 0 .11 1.8 1.57 1.57 0 0 0 .51.86 1.79 1.79 0 0 0 1 .29z" fill="#02b6d3"/><g fill="#979797"><path d="M47 18h-3v9a7 7 0 0 1-7 7H6v1a5 5 0 0 0 5 5h32a5 5 0 0 0 5-5V17a1 1 0 0 1-1 1z"/><path d="M44 8.1V16h3a1 1 0 0 1 1 1v-4a5 5 0 0 0-4-4.9z"/></g><path d="M42 8V5a5 5 0 0 0-5-5H5a5 5 0 0 0-5 5v3h42zM7 6a1 1 0 1 1 1-1 1 1 0 0 1-1 1zm4 0a1 1 0 1 1 1-1 1 1 0 0 1-1 1zm4 0a1 1 0 1 1 1-1 1 1 0 0 1-1 1zm26 4h-2.15v15.1a4.26 4.26 0 0 1-4.25 4.25H7.4a4.26 4.26 0 0 1-4.25-4.25V10H0v17a5 5 0 0 0 5 5h32a5 5 0 0 0 5-5V10z" fill="#02b6d3"/></svg>