<svg xmlns="http://www.w3.org/2000/svg" viewBox="0 0 55.5 48"><path d="M8 36h6v4H8zm0-12h6v4H8zm0 6h6v4H8zm8-12h12v4H16zm-8 0h6v4H8z" fill="#979797"/><path d="M54.76 4.94a2 2 0 0 0-2.82.3L28.34 34.5 19.9 26.1a2 2 0 0 0-2.82 2.82l10 10a2 2 0 0 0 1.41.59h.1a2 2 0 0 0 1.45-.74l25-31a2 2 0 0 0-.3-2.82z" fill="#02b6d3"/><path d="M31.6 40a4 4 0 0 1-1.6 1.18V42H6V16h24v13.27l6-7.44V13a1 1 0 0 0-.29-.71l-12-12A1 1 0 0 0 23 0H1a1 1 0 0 0-1 1v46a1 1 0 0 0 1 1h34a1 1 0 0 0 1-1V34.57zM23 1l12 12H23zm5 30.04V30h-1.04L28 31.04zm-11.1.22a4.06 4.06 0 0 1-.85-1.26H16v4h3.65zm4.43-6.6L24.66 28H28v-4h-7.63a3.77 3.77 0 0 1 .96.67zm-4.7-.67H16v.4a3.58 3.58 0 0 1 .63-.41zm4.7 12H16v4h9.34l-4-4z" fill="#979797"/></svg>