<svg xmlns="http://www.w3.org/2000/svg" width="26" height="26"  fill-rule="evenodd"><path d="M19.615 9.262V2.705l-5.449 1.523v7.583l5.106-2.043c.207-.083.343-.283.343-.506" fill="#919a9c"/><path d="M13.621 3.229c.014 0 .025.008.039.009l5.598-1.565c-.012-.004-.021-.011-.033-.015L13.777.023c-.102-.03-.211-.03-.313 0L8.016 1.658c-.012.004-.021.011-.033.015l5.598 1.565c.014-.001.025-.009.04-.009" fill="#02b6d3"/><path d="M7.97 9.768l5.106 2.043V4.228L7.628 2.706v6.556c0 .223.135.423.342.506m7.285 8.757c0 .206.117.395.302.487l4.057 2.029v-5.396l-4.359-1.488v4.368z" fill="#919a9c"/><path d="M24.709 13.11l-4.358-1.635a.55.55 0 0 0-.384 0l-4.359 1.635 4.535 1.563c.021-.002.027 0 .033 0l4.55-1.553" fill="#02b6d3"/><path d="M20.703 15.645v5.396l4.058-2.029c.184-.093.301-.281.301-.487v-4.368l-4.359 1.488z" fill="#919a9c"/><path d="M7.255 12.014a.55.55 0 0 0-.345 0L1.073 13.96l6.01 2.345 6.009-2.345-5.837-1.946z" fill="#02b6d3"/><path d="M0 23.428c0 .234.149.442.372.517L6.538 26v-8.738L0 14.711v8.717zM7.628 26l6.165-2.056c.223-.074.372-.282.372-.516v-8.717l-6.537 2.551V26z" fill="#919a9c"/></svg>