<svg xmlns="http://www.w3.org/2000/svg" viewBox="0 0 48 48"><path d="M18 36a18 18 0 0 0 11.27-4l15.3 15.4a2 2 0 0 0 2.83.01 2 2 0 0 0 0-2.83l-15.33-15.4A18 18 0 1 0 18 36zm0-32A14 14 0 1 1 4 18 14 14 0 0 1 18 4z" fill="#979797"/><path d="M17.1 24v-5.32a7 7 0 0 1-3.64-2.15A5.4 5.4 0 0 1 12.31 13a4.94 4.94 0 0 1 1.31-3.49 5.34 5.34 0 0 1 3.49-1.63v-1.2H19v1.25a5.45 5.45 0 0 1 3.16 1.38 5.29 5.29 0 0 1 1.52 3l-3.2.42a2.58 2.58 0 0 0-1.52-2v5a8.1 8.1 0 0 1 4.14 2.13 5 5 0 0 1 1.1 3.36A5.66 5.66 0 0 1 22.81 25 6.11 6.11 0 0 1 19 27v2.37h-1.9V27a5.92 5.92 0 0 1-3.56-1.64 6.7 6.7 0 0 1-1.74-3.86l3.3-.36a4.28 4.28 0 0 0 .76 1.75A3.52 3.52 0 0 0 17.11 24zm0-13.3a2.38 2.38 0 0 0-1.19.87 2.24 2.24 0 0 0-.44 1.34 2.14 2.14 0 0 0 .4 1.25 2.93 2.93 0 0 0 1.23.93zM19 24.16a2.61 2.61 0 0 0 1.55-.88 2.51 2.51 0 0 0 .59-1.65 2.25 2.25 0 0 0-.5-1.46 3.19 3.19 0 0 0-1.64-1z" fill="#02b6d3"/></svg>