<svg xmlns="http://www.w3.org/2000/svg" xmlns:xlink="http://www.w3.org/1999/xlink" width="42" height="42"><defs><path id="A" d="M.001.052h28.4v34.285H.001z"/><path id="B" d="M.07.052h17.073v17.09H.07z"/></defs><g fill="none" fill-rule="evenodd"><g transform="translate(0 .805)"><mask id="C" fill="#fff"><use xlink:href="#A"/></mask><path d="M22.45 31.248a2.64 2.64 0 0 1 .255-2.024l2.762-4.778 1.53-.053a2.71 2.71 0 0 1 .986.181c.06-.384.21-.735.417-1.047-1.287-.566-2.864-1.088-4.6-1.66l-3.23-1.104V17.57c.833-.558 2.368-1.988 2.552-5.026.63-.403 1.024-1.275 1.024-2.388 0-.976-.303-1.767-.803-2.22.417-1.055 1.1-2.895.63-4.784-.57-2.288-3.804-3.1-6.403-3.1h-.002c-2.3 0-5.102.637-6.107 2.373-.882-.047-1.57.188-2.054.713-1.146 1.245-.51 3.56-.132 4.87-.2.162-.37.375-.507.634-.225.43-.348 1-.348 1.575 0 1.088.395 1.94 1.025 2.334.186 3.034 1.72 4.46 2.553 5.02v3.195l-3.23 1.104c-4.03 1.33-7.212 2.38-7.87 4.364-.845 2.547-.898 7.05-.9 7.24-.003.23.087.45.248.612s.38.254.61.254h21.526c.08-.658.394-1.28.922-1.72l-.542-.313-.314-1.058z" fill="#919a9c" mask="url(#C)"/></g><g transform="translate(24 24.805)"><mask id="D" fill="#fff"><use xlink:href="#B"/></mask><path d="M8.604 12.25a3.66 3.66 0 0 1-3.653-3.653 3.66 3.66 0 0 1 3.653-3.652c2.015 0 3.653 1.638 3.653 3.652a3.66 3.66 0 0 1-3.653 3.653m8.508-1.84a1.02 1.02 0 0 0-.433-.564l-.945-.545-.017-.01.036-.695a7.13 7.13 0 0 0-.036-.695l.017-.01.936-.54a.93.93 0 0 0 .219-.19c.018-.02.043-.03.058-.052a.93.93 0 0 0 .163-.326 1.01 1.01 0 0 0-.093-.706l-2.03-3.518c-.115-.193-.297-.327-.507-.397-.018-.005-.033-.02-.05-.024-.218-.057-.512-.02-.706.094l-.955.555-.527-.338-.097-.056-.565-.292V.982c0-.513-.418-.93-.93-.93H6.598a.93.93 0 0 0-.655.27.93.93 0 0 0-.275.66h0v1.1l-.452.242-.34.194-.432.26-.958-.55c-.138-.08-.297-.12-.46-.12l-.55.02L.192 6.08c-.122.213-.155.463-.09.703l.112.38 1.26.73-.018.705.018.706-.936.54c-.26.15-.408.41-.446.687-.02.172.004.354.075.5.012.027.012.055.026.08l2.02 3.498a.98.98 0 0 0 1.269.345l.977-.56.536.34.093.053.58.297v1.12a.93.93 0 0 0 .93.931h4.047c.513 0 .93-.417.93-.93v-1.12l.56-.29.105-.06.524-.334.954.552c.1.057.208.1.32.108l.058.008c.113.012.228.01.333-.02.22-.058.452-.237.566-.434l2.017-3.497a.94.94 0 0 0 .098-.713" fill="#02b6d3" mask="url(#D)"/></g></g></svg>