<svg xmlns="http://www.w3.org/2000/svg" width="26" height="26"  fill-rule="evenodd"><path d="M21.034 8.125h1.174V6.952h-1.174v1.173zm-2.933 0h1.174V6.952h-1.174v1.173zm-2.934 0h1.173V6.952h-1.173v1.173zM18.417 0c-3.715 0-6.858 2.462-7.476 5.855-.052.284-.083.556-.105.822.381.086.736.203 1.064.349 1.104.491 1.877 1.302 2.135 2.33.168.674.152 1.394-.027 2.143l-.121.459c.163.285.268.612.319.963.725.432 1.28.619 1.288.621.42.163.856.29 1.3.379l-.002 4.178.924-.925 3.703-3.664C24.206 12.395 26 9.867 26 7.042 26 3.159 22.598 0 18.417 0h0z" fill="#02b6d3"/><path d="M17.28 22.53c-.466-1.059-4.009-2.622-5.905-3.396h0v-1.498a2.33 2.33 0 0 0 .655-.829 4.05 4.05 0 0 0 .358-1.207l.016-.132.044-.463c.047-.032.09-.068.132-.106l.018-.018a1.74 1.74 0 0 0 .408-.648 2.34 2.34 0 0 0 .11-.403l.005-.032a2.48 2.48 0 0 0 .037-.415c0-.362-.082-.684-.238-.932-.076-.118-.164-.219-.266-.299l.123-.31.003-.002.013-.04a4.94 4.94 0 0 0 .154-.497l.03-.127c.035-.158.063-.312.077-.463.005-.04.004-.083.007-.125a3.12 3.12 0 0 0-.078-.969c-.153-.613-.597-1.118-1.245-1.472-.018-.01-.035-.017-.053-.026a3.86 3.86 0 0 0-.436-.195l-.187-.062-.337-.098-.279-.062-.423-.069-.174-.019-.641-.032-.525.021c-.513.041-1.047.146-1.53.327l-.021.008c-.093.035-.179.08-.268.121-.183.088-.356.183-.51.291l-.03.02a2.64 2.64 0 0 0-.259.218l-.08.075a2.07 2.07 0 0 0-.184.215c-.069.089-.14.178-.193.28-.105-.005-.2.001-.289.011a1.47 1.47 0 0 0-.261.051l-.063.018c-.078.027-.147.061-.208.098-.019.01-.037.022-.055.033-.057.039-.109.081-.153.124l-.028.028c-.042.047-.082.094-.111.138-.056.09-.095.172-.124.259-.01.026-.014.054-.02.082-.019.066-.035.134-.042.205l-.006.089c-.004.072-.005.145-.001.22l.007.082a2.09 2.09 0 0 0 .034.245l.012.067.068.278.01.034c.095.327.225.644.34.916a1.19 1.19 0 0 0-.289.313l-.001.001a1.48 1.48 0 0 0-.168.381c-.004.017-.012.033-.016.05s-.008.041-.012.06a2.09 2.09 0 0 0-.052.457c0 .139.014.276.037.41l.004.032a2.42 2.42 0 0 0 .107.389c.098.265.236.487.406.65l.019.017.131.107.043.461.017.136c.075.499.204.893.355 1.199.212.425.46.682.659.835v1.498c-1.897.774-5.44 2.337-5.905 3.396-.038.087-.053.155-.053.22V26h17.333v-3.25a.55.55 0 0 0-.044-.203" fill="#919a9c"/></svg>