<svg xmlns="http://www.w3.org/2000/svg" viewBox="0 0 68 40.5"><path d="M67.48 36l-8.73-8.73-2.53-2.52a15.32 15.32 0 1 0-2.5 2.5l2.52 2.53 8.76 8.7a1.77 1.77 0 0 0 2.51 0 1.78 1.78 0 0 0-.03-2.48zm-23.22-9A11.72 11.72 0 1 1 56 15.26 11.72 11.72 0 0 1 44.26 27zm6.3-7.4c-.43-.85-1.9-1.4-3.92-2.14l-.72-.26v-1.4a2.45 2.45 0 0 0 .87-1.71 1 1 0 0 0 .3-.56 1.29 1.29 0 0 0-.24-1.19 1.21 1.21 0 0 1 0-.14 4.9 4.9 0 0 0 .48-2.43c-.2-1-1.64-1.37-2.8-1.37-.9 0-2 .23-2.35.85a1.12 1.12 0 0 0-.8.43c-.5.7-.14 1.9.06 2.55v.1a1.28 1.28 0 0 0-.25 1.2 1 1 0 0 0 .29.56 2.48 2.48 0 0 0 .87 1.71v1.4l-.72.26c-2 .75-3.5 1.3-3.92 2.14a6.3 6.3 0 0 0-.61 2.5.29.29 0 0 0 .29.29h13.5a.29.29 0 0 0 .29-.29 6.1 6.1 0 0 0-.61-2.5z" fill="#02b6d3"/><path d="M44.57 31.8A16.54 16.54 0 0 1 29.44 8.5H4a4 4 0 0 0-4 4v24a4 4 0 0 0 4 4h40a4 4 0 0 0 4-4v-5.07a16.23 16.23 0 0 1-3.43.36zM9 16.5h4a1 1 0 0 1 0 2H9a1 1 0 0 1 0-2zm0 12h18a1 1 0 0 1 0 2H9a1 1 0 0 1 0-2zm24 6H9a1 1 0 0 1 0-2h24a1 1 0 0 1 0 2z" fill="#979797"/></svg>