<svg xmlns="http://www.w3.org/2000/svg" viewBox="0 0 41.52 45.21"><path d="M14.83 17.67V19c0 6.17.4 11.86 5.16 13.73V43.5h4.32v-6.34H26v6.34h4.32V32.7c4.76-1.87 5.17-7.56 5.17-13.73v-1.3zm10.33-2.57a6.46 6.46 0 1 0-6.46-6.46 6.47 6.47 0 0 0 6.46 6.46z" fill="#979797"/><g fill="#02b6d3"><path d="M1 44.17a1.83 1.83 0 0 0 2.6 0l11.7-11.7a15.83 15.83 0 1 0-2.61-2.6L10.1 32.5 1 41.57a1.83 1.83 0 0 0 0 2.6zm12-24.1a12.18 12.18 0 1 1 12.16 12.17A12.19 12.19 0 0 1 13 20.06z" stroke="#fff" stroke-miterlimit="10"/><path d="M24.9 7.17a13.27 13.27 0 0 1 6.94 2 7 7 0 1 0-13.38-.31 13.32 13.32 0 0 1 6.44-1.69zm0 26.57a13.22 13.22 0 0 1-8.31-2.93 7.09 7.09 0 0 0 3 2.2v11.7h4.7v-7.55H26v7.55h4.8V33a7.24 7.24 0 0 0 3.9-3.59 13.24 13.24 0 0 1-9.78 4.33z"/></g></svg>