<svg xmlns="http://www.w3.org/2000/svg" viewBox="0 0 48 48"><rect width="48" height="48" rx="1" fill="#979797"/><circle cx="14" cy="38" r="3" fill="#02b6d3"/><g fill="#fff"><path d="M18,21a1,1,0,0,1-1,1H15v7a1,1,0,0,1-2,0V22H11a1,1,0,0,1-1-1V17a1,1,0,0,1,1-1h2V7a1,1,0,0,1,2,0v9h2a1,1,0,0,1,1,1Z"/><circle cx="24" cy="38" r="3"/></g><g fill="#02b6d3"><path d="M28,15a1,1,0,0,1-1,1H25V29a1,1,0,0,1-2,0V16H21a1,1,0,0,1-1-1V11a1,1,0,0,1,1-1h2V7a1,1,0,0,1,2,0v3h2a1,1,0,0,1,1,1Z"/><circle cx="34" cy="38" r="3"/></g><path d="M38,25a1,1,0,0,1-1,1H35v3a1,1,0,0,1-2,0V26H31a1,1,0,0,1-1-1V21a1,1,0,0,1,1-1h2V7a1,1,0,0,1,2,0V20h2a1,1,0,0,1,1,1Z" fill="#fff"/></svg>