<svg xmlns="http://www.w3.org/2000/svg" xmlns:xlink="http://www.w3.org/1999/xlink" width="41" height="41"><defs><path id="A" d="M.477 0H35.4v7.474H.477z"/><path id="B" d="M.64.645h20.7v20.708H.64z"/><path id="C" d="M5.232 20.927a.75.75 0 0 0-.747.747.75.75 0 0 0 .747.747.75.75 0 0 0 .747-.747.75.75 0 0 0-.747-.747"/></defs><g fill="none" fill-rule="evenodd"><g fill="#919a9c"><use xlink:href="#C"/><use xlink:href="#C" y="-8.969"/><path d="M5.232 23.916C3.995 23.916 3 22.9 3 21.674s1.005-2.242 2.242-2.242 2.242 1.006 2.242 2.242-1.006 2.242-2.242 2.242m24.555-5.333c2.223 0 4.298.614 6.088 1.666l.001-2.312H0v5.232c0 2.06 1.677 3.737 3.737 3.737h14.587c1.58-4.824 6.116-8.323 11.462-8.323"/></g><mask id="D" fill="#fff"><use xlink:href="#A"/></mask><g fill="#919a9c"><path d="M26.637.173A.75.75 0 0 0 26.158 0H9.716a.75.75 0 0 0-.478.173l-8.76 7.3H35.4l-8.762-7.3z" mask="url(#D)"/><path d="M29.896 14.2c-.824 0-1.495-.67-1.495-1.495s.67-1.495 1.495-1.495 1.495.67 1.495 1.495-.67 1.495-1.495 1.495h0zm-4.485 0a1.5 1.5 0 0 1-1.495-1.495 1.5 1.5 0 0 1 1.495-1.495c.824 0 1.495.67 1.495 1.495s-.67 1.495-1.495 1.495h0zm-4.484 0a1.5 1.5 0 0 1-1.495-1.495 1.5 1.5 0 0 1 1.495-1.495c.824 0 1.495.67 1.495 1.495s-.67 1.495-1.495 1.495h0zm-15.694.747C3.995 14.948 3 13.942 3 12.705s1.005-2.242 2.242-2.242 2.242 1.006 2.242 2.242-1.006 2.242-2.242 2.242h0zM0 16.442h35.874V8.968H0v7.474z"/></g><g transform="translate(18.792 19.646)"><mask id="E" fill="#fff"><use xlink:href="#B"/></mask><path d="M16.685 15.102c-.66.697-1.666.9-2.506.5l.3-.615c.222.035.428.088.636.095.58.02 1.112-.35 1.345-.9a1.44 1.44 0 0 0-.33-1.553 1.45 1.45 0 0 0-1.614-.262l-.495.25-.2-.36-2.785-4.825c-.035-.06-.07-.095-.15-.108a.72.72 0 0 1-.586-.775c.046-.392.37-.664.773-.646.357.017.666.333.665.696 0 .102-.043.202-.06.303-.006.037-.01.083.01.113l2.66 4.6c.003.006.01.01.022.024.598-.2 1.2-.195 1.764.1a2.09 2.09 0 0 1 .91.904c.454.853.265 1.832-.34 2.47M9.162 14.1c-.088-.001-.126.018-.147.113-.237 1.107-1.35 1.844-2.463 1.667-.85-.135-1.614-.797-1.788-1.693a2.1 2.1 0 0 1 .714-2.097l.17-.134.415.594c-.35.255-.556.6-.6 1.014a1.4 1.4 0 0 0 .161.862c.303.563.953.86 1.6.722.407-.086.7-.322.936-.667.233-.354.174-.75.18-1.152h6.042a.26.26 0 0 0 .218-.092c.27-.297.764-.296 1.038-.007.3.304.277.764-.026 1.036a.72.72 0 0 1-1.058-.084c-.05-.065-.1-.083-.178-.083H9.162m-2.33-1.113a.17.17 0 0 0 .112-.065l2.68-4.64a2.23 2.23 0 0 1-.413-2.895c.522-.8 1.538-1.16 2.48-.864.908.286 1.44 1.123 1.482 1.877l-.677.057c-.076-.204-.125-.4-.218-.575-.308-.572-.96-.85-1.603-.7a1.44 1.44 0 0 0-1.099 1.342 1.42 1.42 0 0 0 .717 1.31l.36.208-.75 1.3-2.3 3.962c-.042.07-.032.128-.01.198.115.36-.083.763-.446.9a.73.73 0 0 1-.907-.36.76.76 0 0 1 .583-1.067M10.995.645A10.36 10.36 0 0 0 .641 10.999c0 5.72 4.636 10.354 10.354 10.354S21.35 16.72 21.35 11A10.36 10.36 0 0 0 10.995.645" fill="#02b6d3" mask="url(#E)"/></g></g></svg>