<svg xmlns="http://www.w3.org/2000/svg" xmlns:xlink="http://www.w3.org/1999/xlink" width="41" height="41"><defs><path id="A" d="M.642.645H21.35v20.71H.642z"/></defs><g fill="none" fill-rule="evenodd"><path d="M12.813 5.125c-.472 0-.854-.382-.854-.854s.382-.854.854-.854.854.382.854.854-.382.854-.854.854h0zm-3.417 0c-.472 0-.854-.382-.854-.854s.382-.854.854-.854.854.382.854.854-.382.854-.854.854h0zm-3.417 0c-.472 0-.854-.382-.854-.854s.382-.854.854-.854.854.382.854.854-.382.854-.854.854h0zm29.896-.854c0-2.355-1.916-4.27-4.27-4.27H4.27C1.916 0 0 1.916 0 4.27v2.563h35.875V4.27zm-6.088 14.31c2.222 0 4.298.615 6.088 1.666V8.542H0v16.23a4.27 4.27 0 0 0 4.271 4.271h13.574c.788-5.894 5.837-10.46 11.943-10.46" fill="#919a9c"/><g transform="translate(18.792 19.646)"><mask id="B" fill="#fff"><use xlink:href="#A"/></mask><path d="M15.935 15.618l-.257.065c-.256.066-.513.066-.77.066s-.45-.066-.64-.13-.385-.196-.514-.327-.256-.327-.385-.523-.192-.457-.32-.72l-1.22-3.4-.064.13-1.99 4.902H7.654l3.21-7.647-.192-.654-.193-.523c-.064-.13-.128-.196-.192-.26s-.13-.13-.192-.13c-.128-.066-.385-.066-.642 0-.192.065-.32.065-.45.13l-.45.13V4.962l.193-.13c.193 0 .385-.066.642-.13.513-.065.963-.065 1.348 0 .257.065.514.196.706.327a5.97 5.97 0 0 1 .577.653c.128.262.32.59.45.98l2.44 6.667c0 .196.064.327.128.392a.78.78 0 0 0 .129.196c0 .066.064.066.064.066h.32l.384-.066v1.7zM10.996.645C5.276.645.642 5.28.642 11s4.635 10.354 10.354 10.354A10.36 10.36 0 0 0 21.35 11C21.35 5.28 16.714.645 10.996.645h0z" fill="#02b6d3" mask="url(#B)"/></g></g></svg>