<svg xmlns="http://www.w3.org/2000/svg" width="1200" height="630"><defs><radialGradient id="a" cx="79.487%" cy="90.363%" r="127.473%" fx="79.487%" fy="90.363%" gradientTransform="scale(.525 1) rotate(27.65 1.154 2.365)"><stop offset="0%" stop-color="#2D53F5" stop-opacity=".656"/><stop offset="34.399%" stop-color="#291273" stop-opacity=".755"/><stop offset="100%" stop-color="#0F172A"/></radialGradient><filter id="b" width="102.6%" height="103.6%" x="-1.3%" y="-1.4%" filterUnits="objectBoundingBox"><feOffset dy="2" in="SourceAlpha" result="shadowOffsetOuter1"/><feGaussianBlur in="shadowOffsetOuter1" result="shadowBlurOuter1" stdDeviation="2.5"/><feColorMatrix in="shadowBlurOuter1" result="shadowMatrixOuter1" values="0 0 0 0 0 0 0 0 0 0 0 0 0 0 0 0 0 0 0.5 0"/><feMerge><feMergeNode in="shadowMatrixOuter1"/><feMergeNode in="SourceGraphic"/></feMerge></filter></defs><g fill="none" fill-rule="evenodd"><path fill="#6366F1" d="M0 0h1200v630H0z"/><g fill-rule="nonzero" opacity=".482" transform="translate(402 81)"><path fill="#000" stroke="#CDCDCD" stroke-dasharray="3.5,3.5" stroke-width=".7" d="M55.5 54v370m291-370v370m344-370v370"/><rect width="113" height="53" fill="#D8D8D8" stroke="#979797" stroke-width=".7" rx="2.8"/><text fill="#000" font-family="Helvetica" font-size="9.8">
                <tspan x="34" y="30">API client</tspan>
            </text><rect width="113" height="53" y="423" fill="#D8D8D8" stroke="#979797" stroke-width=".7" rx="2.8"/><text fill="#000" font-family="Helvetica" font-size="9.8">
                <tspan x="34" y="453">API client</tspan>
            </text><rect width="109" height="53" x="293" fill="#D8D8D8" stroke="#979797" stroke-width=".7" rx="2.8"/><text fill="#000" font-family="Helvetica" font-size="9.8">
                <tspan x="326" y="30">Gateway</tspan>
            </text><rect width="109" height="53" x="293" y="423" fill="#D8D8D8" stroke="#979797" stroke-width=".7" rx="2.8"/><text fill="#000" font-family="Helvetica" font-size="9.8">
                <tspan x="326" y="453">Gateway</tspan>
            </text><rect width="113" height="53" x="635" fill="#D8D8D8" stroke="#979797" stroke-width=".7" rx="2.8"/><text fill="#000" font-family="Helvetica" font-size="9.8">
                <tspan x="668" y="30">Products</tspan>
            </text><rect width="113" height="53" x="635" y="423" fill="#D8D8D8" stroke="#979797" stroke-width=".7" rx="2.8"/><text fill="#000" font-family="Helvetica" font-size="9.8">
                <tspan x="668" y="453">Products</tspan>
            </text><path fill="#56666F" stroke="#56666F" stroke-width=".7" d="m331 104 14 5-14 5 5.6-5z"/><path fill="#000" stroke="#56666F" stroke-width=".7" d="M56 108.5h283"/><text fill="#000" font-family="Helvetica" font-size="9.1">
                <tspan x="125" y="92">Request branches/1/products</tspan>
            </text><path fill="#000" stroke="#56666F" stroke-width=".7" d="M347 159.5h55m.5.5v17m-54.5.5h54"/><path fill="#56666F" stroke="#56666F" stroke-width=".7" d="m362 173-14 5 14 5-5.6-5z"/><text fill="#000" font-family="Helvetica" font-size="9.1">
                <tspan x="389" y="144">Generate JWT</tspan>
            </text><path fill="#56666F" stroke="#56666F" stroke-width=".7" d="m675 223 14 5-14 5 5.6-5z"/><path fill="#000" stroke="#56666F" stroke-width=".7" d="M347 228.5h336"/><text fill="#000" font-family="Helvetica" font-size="9.1">
                <tspan x="428" y="213">Request branches/1/products + JWT</tspan>
            </text><path fill="#000" stroke="#56666F" stroke-width=".7" d="M691 280.5h55m-.5.5v17m-53.5-.5h54"/><path fill="#56666F" stroke="#56666F" stroke-width=".7" d="m706 292-14 5 14 5-5.6-5z"/><text fill="#000" font-family="Helvetica" font-size="9.1">
                <tspan x="754" y="263">Verify JWT via middleware</tspan>
            </text><path fill="#56666F" stroke="#56666F" stroke-width=".7" d="m362 344-14 5 14 5-5.6-5z"/><path fill="#000" stroke="#56666F" stroke-width=".7" d="M354 349.5h336"/><text fill="#000" font-family="Helvetica" font-size="9.1">
                <tspan x="421" y="332">branches/1/products data</tspan>
            </text><path fill="#56666F" stroke="#56666F" stroke-width=".7" d="m71 396-14 5 14 5-5.6-5z"/><path fill="#000" stroke="#56666F" stroke-width=".7" d="M63 400.5h283"/><text fill="#000" font-family="Helvetica" font-size="9.1">
                <tspan x="130" y="384">branches/1/products data</tspan>
            </text></g><rect width="1200" height="630" fill="url(#a)" rx="15"/><path fill="#FFF" fill-rule="nonzero" d="M64.24 327.44H78.1V359H64.24v-31.56Zm-.24-9.12c0-.96.19-1.87.57-2.73.38-.86.9-1.61 1.56-2.25.66-.64 1.43-1.15 2.31-1.53.88-.38 1.82-.57 2.82-.57.96 0 1.86.19 2.7.57.84.38 1.59.89 2.25 1.53.66.64 1.18 1.39 1.56 2.25.38.86.57 1.77.57 2.73a6.825 6.825 0 0 1-2.13 5.01c-.66.62-1.41 1.11-2.25 1.47-.84.36-1.74.54-2.7.54-1 0-1.94-.18-2.82-.54-.88-.36-1.65-.85-2.31-1.47a6.825 6.825 0 0 1-2.13-5.01Zm19.322 9.12h13.5v3.48h.12c.8-1.16 1.99-2.17 3.57-3.03 1.58-.86 3.39-1.29 5.43-1.29 2.2 0 4.03.4 5.49 1.2 1.46.8 2.62 1.83 3.48 3.09a11.93 11.93 0 0 1 1.8 4.23c.34 1.56.51 3.12.51 4.68V359h-13.92v-16.8c0-1.6-.25-2.72-.75-3.36-.5-.64-1.25-.96-2.25-.96-.92 0-1.67.37-2.25 1.11-.58.74-.87 1.81-.87 3.21V359h-13.86v-31.56Zm69.425 18.48c-2.04 0-3.68.22-4.92.66-1.24.44-1.86 1.26-1.86 2.46 0 .44.1.81.3 1.11.2.3.46.55.78.75.32.2.67.35 1.05.45.38.1.73.15 1.05.15 1.32 0 2.38-.42 3.18-1.26.8-.84 1.2-1.92 1.2-3.24v-1.08h-.78Zm-.12-6.96c0-.96-.33-1.67-.99-2.13-.66-.46-1.53-.69-2.61-.69-1.28 0-2.49.27-3.63.81-1.14.54-2.15 1.17-3.03 1.89l-6.9-6.84c1.92-1.84 4.2-3.26 6.84-4.26 2.64-1 5.36-1.5 8.16-1.5 3 0 5.48.42 7.44 1.26 1.96.84 3.51 2 4.65 3.48 1.14 1.48 1.94 3.2 2.4 5.16.46 1.96.69 4.04.69 6.24V359h-12.54v-2.52h-.12c-.8 1.2-1.94 2.06-3.42 2.58s-2.92.78-4.32.78c-1.24 0-2.51-.18-3.81-.54-1.3-.36-2.48-.94-3.54-1.74s-1.93-1.84-2.61-3.12c-.68-1.28-1.02-2.86-1.02-4.74 0-2.2.57-3.99 1.71-5.37 1.14-1.38 2.59-2.46 4.35-3.24 1.76-.78 3.73-1.31 5.91-1.59s4.31-.42 6.39-.42v-.12Zm44.765-3.96.66 24h-13.32v-42.48h18.66l7.68 22.86h.3l6.66-22.86h19.26V359h-13.86l.42-23.88-.36-.06-7.92 23.94h-10.08l-7.8-24zm45.902-7.56h13.86V359h-13.86v-31.56Zm-.24-9.12c0-.96.19-1.87.57-2.73.38-.86.9-1.61 1.56-2.25.66-.64 1.43-1.15 2.31-1.53.88-.38 1.82-.57 2.82-.57.96 0 1.86.19 2.7.57.84.38 1.59.89 2.25 1.53.66.64 1.18 1.39 1.56 2.25.38.86.57 1.77.57 2.73a6.825 6.825 0 0 1-2.13 5.01c-.66.62-1.41 1.11-2.25 1.47-.84.36-1.74.54-2.7.54-1 0-1.94-.18-2.82-.54-.88-.36-1.65-.85-2.31-1.47a6.825 6.825 0 0 1-2.13-5.01Zm36.482 41.88c-2.68 0-5.14-.4-7.38-1.2-2.24-.8-4.18-1.94-5.82-3.42-1.64-1.48-2.92-3.26-3.84-5.34-.92-2.08-1.38-4.42-1.38-7.02 0-2.56.47-4.89 1.41-6.99.94-2.1 2.25-3.89 3.93-5.37 1.68-1.48 3.65-2.62 5.91-3.42 2.26-.8 4.71-1.2 7.35-1.2 1.08 0 2.17.09 3.27.27 1.1.18 2.16.43 3.18.75s1.96.68 2.82 1.08c.86.4 1.59.84 2.19 1.32l-6.9 9.96c-.48-.56-1.11-.99-1.89-1.29-.78-.3-1.53-.45-2.25-.45-.68 0-1.34.11-1.98.33-.64.22-1.21.56-1.71 1.02-.5.46-.91 1.02-1.23 1.68-.32.66-.48 1.43-.48 2.31 0 .88.16 1.65.48 2.31.32.66.73 1.2 1.23 1.62.5.42 1.07.74 1.71.96.64.22 1.3.33 1.98.33.8 0 1.58-.15 2.34-.45.76-.3 1.38-.71 1.86-1.23l6.96 9.72c-1.32 1.04-3.03 1.92-5.13 2.64-2.1.72-4.31 1.08-6.63 1.08Zm13.202-32.76h13.32v3.6h.12c.68-1.28 1.69-2.34 3.03-3.18 1.34-.84 2.91-1.26 4.71-1.26 1.08 0 1.96.1 2.64.3l-1.08 11.76c-.44-.12-.93-.21-1.47-.27-.54-.06-1.03-.09-1.47-.09-1.8 0-3.24.52-4.32 1.56s-1.62 2.32-1.62 3.84V359h-13.86v-31.56ZM351.9 343.1c0 2.72-.49 5.14-1.47 7.26s-2.3 3.91-3.96 5.37c-1.66 1.46-3.58 2.57-5.76 3.33-2.18.76-4.47 1.14-6.87 1.14-2.36 0-4.63-.38-6.81-1.14-2.18-.76-4.09-1.87-5.73-3.33-1.64-1.46-2.95-3.25-3.93-5.37s-1.47-4.54-1.47-7.26c0-2.68.49-5.07 1.47-7.17.98-2.1 2.29-3.87 3.93-5.31 1.64-1.44 3.55-2.53 5.73-3.27 2.18-.74 4.45-1.11 6.81-1.11 2.4 0 4.69.37 6.87 1.11 2.18.74 4.1 1.83 5.76 3.27 1.66 1.44 2.98 3.21 3.96 5.31.98 2.1 1.47 4.49 1.47 7.17Zm-18.06-5.22c-1.52 0-2.75.52-3.69 1.56s-1.41 2.26-1.41 3.66c0 1.48.48 2.74 1.44 3.78.96 1.04 2.2 1.56 3.72 1.56s2.76-.52 3.72-1.56c.96-1.04 1.44-2.3 1.44-3.78 0-1.4-.49-2.62-1.47-3.66s-2.23-1.56-3.75-1.56Zm47.823 11.1c0 2.12-.45 3.9-1.35 5.34-.9 1.44-2.04 2.59-3.42 3.45-1.38.86-2.89 1.48-4.53 1.86-1.64.38-3.2.57-4.68.57-2.72 0-5.39-.39-8.01-1.17-2.62-.78-4.89-1.89-6.81-3.33l6.78-7.86c.96.88 2.09 1.59 3.39 2.13 1.3.54 2.55.81 3.75.81.48 0 .93-.09 1.35-.27.42-.18.63-.51.63-.99 0-.52-.37-.93-1.11-1.23-.74-.3-2.03-.67-3.87-1.11-1-.24-2.02-.59-3.06-1.05a11 11 0 0 1-2.85-1.83c-.86-.76-1.57-1.69-2.13-2.79-.56-1.1-.84-2.41-.84-3.93 0-2.04.45-3.78 1.35-5.22.9-1.44 2.04-2.61 3.42-3.51 1.38-.9 2.88-1.56 4.5-1.98 1.62-.42 3.15-.63 4.59-.63 2.44 0 4.86.36 7.26 1.08 2.4.72 4.56 1.72 6.48 3l-6.48 7.74c-1-.64-2.02-1.14-3.06-1.5-1.04-.36-2.06-.54-3.06-.54-.68 0-1.24.09-1.68.27-.44.18-.66.53-.66 1.05 0 .4.25.71.75.93.5.22 1.65.51 3.45.87 1.24.24 2.45.61 3.63 1.11 1.18.5 2.24 1.14 3.18 1.92a8.73 8.73 0 0 1 2.25 2.85c.56 1.12.84 2.44.84 3.96Zm24.722-9.96c0-1.12-.41-2.04-1.23-2.76-.82-.72-1.93-1.08-3.33-1.08-1.52 0-2.7.42-3.54 1.26-.84.84-1.32 1.7-1.44 2.58h9.54Zm11.94 4.5c0 .52-.01 1.05-.03 1.59-.02.54-.05.99-.09 1.35h-21.24c.04.56.23 1.06.57 1.5.34.44.76.82 1.26 1.14.5.32 1.06.56 1.68.72.62.16 1.25.24 1.89.24 1.28 0 2.35-.23 3.21-.69.86-.46 1.51-.97 1.95-1.53l9.84 4.98c-1.4 2.28-3.43 4.08-6.09 5.4-2.66 1.32-5.75 1.98-9.27 1.98-2.28 0-4.5-.36-6.66-1.08-2.16-.72-4.07-1.79-5.73-3.21-1.66-1.42-2.99-3.19-3.99-5.31-1-2.12-1.5-4.58-1.5-7.38 0-2.6.46-4.95 1.38-7.05.92-2.1 2.17-3.88 3.75-5.34s3.44-2.59 5.58-3.39c2.14-.8 4.43-1.2 6.87-1.2 2.48 0 4.74.43 6.78 1.29 2.04.86 3.79 2.06 5.25 3.6s2.59 3.37 3.39 5.49c.8 2.12 1.2 4.42 1.2 6.9Zm3.663-16.08h13.32v3.6h.12c.68-1.28 1.69-2.34 3.03-3.18 1.34-.84 2.91-1.26 4.71-1.26 1.08 0 1.96.1 2.64.3l-1.08 11.76c-.44-.12-.93-.21-1.47-.27-.54-.06-1.03-.09-1.47-.09-1.8 0-3.24.52-4.32 1.56s-1.62 2.32-1.62 3.84V359h-13.86v-31.56Zm24.542 0h15.36l4.5 17.04h.24l4.32-17.04h14.82L473.59 359h-15.06zm40.802 0h13.86V359h-13.86v-31.56Zm-.24-9.12c0-.96.19-1.87.57-2.73.38-.86.9-1.61 1.56-2.25.66-.64 1.43-1.15 2.31-1.53.88-.38 1.82-.57 2.82-.57.96 0 1.86.19 2.7.57.84.38 1.59.89 2.25 1.53.66.64 1.18 1.39 1.56 2.25.38.86.57 1.77.57 2.73a6.825 6.825 0 0 1-2.13 5.01c-.66.62-1.41 1.11-2.25 1.47-.84.36-1.74.54-2.7.54-1 0-1.94-.18-2.82-.54-.88-.36-1.65-.85-2.31-1.47a6.825 6.825 0 0 1-2.13-5.01Zm36.483 41.88c-2.68 0-5.14-.4-7.38-1.2-2.24-.8-4.18-1.94-5.82-3.42-1.64-1.48-2.92-3.26-3.84-5.34-.92-2.08-1.38-4.42-1.38-7.02 0-2.56.47-4.89 1.41-6.99.94-2.1 2.25-3.89 3.93-5.37 1.68-1.48 3.65-2.62 5.91-3.42 2.26-.8 4.71-1.2 7.35-1.2 1.08 0 2.17.09 3.27.27 1.1.18 2.16.43 3.18.75s1.96.68 2.82 1.08c.86.4 1.59.84 2.19 1.32l-6.9 9.96c-.48-.56-1.11-.99-1.89-1.29-.78-.3-1.53-.45-2.25-.45-.68 0-1.34.11-1.98.33-.64.22-1.21.56-1.71 1.02-.5.46-.91 1.02-1.23 1.68-.32.66-.48 1.43-.48 2.31 0 .88.16 1.65.48 2.31.32.66.73 1.2 1.23 1.62.5.42 1.07.74 1.71.96.64.22 1.3.33 1.98.33.8 0 1.58-.15 2.34-.45.76-.3 1.38-.71 1.86-1.23l6.96 9.72c-1.32 1.04-3.03 1.92-5.13 2.64-2.1.72-4.31 1.08-6.63 1.08Zm34.202-21.18c0-1.12-.41-2.04-1.23-2.76-.82-.72-1.93-1.08-3.33-1.08-1.52 0-2.7.42-3.54 1.26-.84.84-1.32 1.7-1.44 2.58h9.54Zm11.94 4.5c0 .52-.01 1.05-.03 1.59-.02.54-.05.99-.09 1.35h-21.24c.04.56.23 1.06.57 1.5.34.44.76.82 1.26 1.14.5.32 1.06.56 1.68.72.62.16 1.25.24 1.89.24 1.28 0 2.35-.23 3.21-.69.86-.46 1.51-.97 1.95-1.53l9.84 4.98c-1.4 2.28-3.43 4.08-6.09 5.4-2.66 1.32-5.75 1.98-9.27 1.98-2.28 0-4.5-.36-6.66-1.08-2.16-.72-4.07-1.79-5.73-3.21-1.66-1.42-2.99-3.19-3.99-5.31-1-2.12-1.5-4.58-1.5-7.38 0-2.6.46-4.95 1.38-7.05.92-2.1 2.17-3.88 3.75-5.34s3.44-2.59 5.58-3.39c2.14-.8 4.43-1.2 6.87-1.2 2.48 0 4.74.43 6.78 1.29 2.04.86 3.79 2.06 5.25 3.6s2.59 3.37 3.39 5.49c.8 2.12 1.2 4.42 1.2 6.9Zm29.523 5.46c0 2.12-.45 3.9-1.35 5.34-.9 1.44-2.04 2.59-3.42 3.45-1.38.86-2.89 1.48-4.53 1.86-1.64.38-3.2.57-4.68.57-2.72 0-5.39-.39-8.01-1.17-2.62-.78-4.89-1.89-6.81-3.33l6.78-7.86c.96.88 2.09 1.59 3.39 2.13 1.3.54 2.55.81 3.75.81.48 0 .93-.09 1.35-.27.42-.18.63-.51.63-.99 0-.52-.37-.93-1.11-1.23-.74-.3-2.03-.67-3.87-1.11-1-.24-2.02-.59-3.06-1.05a11 11 0 0 1-2.85-1.83c-.86-.76-1.57-1.69-2.13-2.79-.56-1.1-.84-2.41-.84-3.93 0-2.04.45-3.78 1.35-5.22.9-1.44 2.04-2.61 3.42-3.51 1.38-.9 2.88-1.56 4.5-1.98 1.62-.42 3.15-.63 4.59-.63 2.44 0 4.86.36 7.26 1.08 2.4.72 4.56 1.72 6.48 3l-6.48 7.74c-1-.64-2.02-1.14-3.06-1.5-1.04-.36-2.06-.54-3.06-.54-.68 0-1.24.09-1.68.27-.44.18-.66.53-.66 1.05 0 .4.25.71.75.93.5.22 1.65.51 3.45.87 1.24.24 2.45.61 3.63 1.11 1.18.5 2.24 1.14 3.18 1.92a8.73 8.73 0 0 1 2.25 2.85c.56 1.12.84 2.44.84 3.96Zm-512.68 83.1c-3.36 0-6.47-.52-9.33-1.56-2.86-1.04-5.34-2.53-7.44-4.47-2.1-1.94-3.75-4.29-4.95-7.05-1.2-2.76-1.8-5.84-1.8-9.24 0-3.4.6-6.48 1.8-9.24 1.2-2.76 2.84-5.12 4.92-7.08s4.52-3.47 7.32-4.53c2.8-1.06 5.8-1.59 9-1.59 3.32 0 6.47.54 9.45 1.62 2.98 1.08 5.41 2.56 7.29 4.44l-8.34 10.02a10.16 10.16 0 0 0-3.12-2.49c-1.2-.62-2.68-.93-4.44-.93-1.16 0-2.29.23-3.39.69-1.1.46-2.07 1.12-2.91 1.98-.84.86-1.52 1.89-2.04 3.09s-.78 2.54-.78 4.02c0 2.96.77 5.37 2.31 7.23 1.54 1.86 4.01 2.79 7.41 2.79.6 0 1.22-.05 1.86-.15.64-.1 1.14-.25 1.5-.45v-3.24h-6.84v-11.22h19.5v23.22c-1 .6-2.15 1.15-3.45 1.65-1.3.5-2.68.93-4.14 1.29-1.46.36-2.99.65-4.59.87-1.6.22-3.2.33-4.8.33Zm39.002-14.16c-2.04 0-3.68.22-4.92.66-1.24.44-1.86 1.26-1.86 2.46 0 .44.1.81.3 1.11.2.3.46.55.78.75.32.2.67.35 1.05.45.38.1.73.15 1.05.15 1.32 0 2.38-.42 3.18-1.26.8-.84 1.2-1.92 1.2-3.24v-1.08h-.78Zm-.12-6.96c0-.96-.33-1.67-.99-2.13-.66-.46-1.53-.69-2.61-.69-1.28 0-2.49.27-3.63.81-1.14.54-2.15 1.17-3.03 1.89l-6.9-6.84c1.92-1.84 4.2-3.26 6.84-4.26 2.64-1 5.36-1.5 8.16-1.5 3 0 5.48.42 7.44 1.26 1.96.84 3.51 2 4.65 3.48 1.14 1.48 1.94 3.2 2.4 5.16.46 1.96.69 4.04.69 6.24V431h-12.54v-2.52h-.12c-.8 1.2-1.94 2.06-3.42 2.58s-2.92.78-4.32.78c-1.24 0-2.51-.18-3.81-.54-1.3-.36-2.48-.94-3.54-1.74s-1.93-1.84-2.61-3.12c-.68-1.28-1.02-2.86-1.02-4.74 0-2.2.57-3.99 1.71-5.37 1.14-1.38 2.59-2.46 4.35-3.24 1.76-.78 3.73-1.31 5.91-1.59s4.31-.42 6.39-.42v-.12Zm30.663 20.88c-4.24 0-7.38-.91-9.42-2.73-2.04-1.82-3.06-4.65-3.06-8.49v-11.28h-4.44v-9.9h4.38v-7.08h13.44v7.08h6.84v9.9h-6.84v8.4c0 1.52.33 2.55.99 3.09.66.54 1.57.81 2.73.81.44 0 .9-.04 1.38-.12.48-.08.86-.16 1.14-.24v9.48c-.72.32-1.73.58-3.03.78-1.3.2-2.67.3-4.11.3Zm31.322-20.82c0-1.12-.41-2.04-1.23-2.76-.82-.72-1.93-1.08-3.33-1.08-1.52 0-2.7.42-3.54 1.26-.84.84-1.32 1.7-1.44 2.58h9.54Zm11.94 4.5c0 .52-.01 1.05-.03 1.59-.02.54-.05.99-.09 1.35h-21.24c.04.56.23 1.06.57 1.5.34.44.76.82 1.26 1.14.5.32 1.06.56 1.68.72.62.16 1.25.24 1.89.24 1.28 0 2.35-.23 3.21-.69.86-.46 1.51-.97 1.95-1.53l9.84 4.98c-1.4 2.28-3.43 4.08-6.09 5.4-2.66 1.32-5.75 1.98-9.27 1.98-2.28 0-4.5-.36-6.66-1.08-2.16-.72-4.07-1.79-5.73-3.21-1.66-1.42-2.99-3.19-3.99-5.31-1-2.12-1.5-4.58-1.5-7.38 0-2.6.46-4.95 1.38-7.05.92-2.1 2.17-3.88 3.75-5.34s3.44-2.59 5.58-3.39c2.14-.8 4.43-1.2 6.87-1.2 2.48 0 4.74.43 6.78 1.29 2.04.86 3.79 2.06 5.25 3.6s2.59 3.37 3.39 5.49c.8 2.12 1.2 4.42 1.2 6.9ZM224.09 431h-13.74l-10.8-31.56h14.82l3.96 16.32h.24l4.08-16.32h13.32l4.38 16.32h.18l3.84-16.32h14.16L247.61 431h-13.8l-4.86-16.2h-.12zm52.982-13.08c-2.04 0-3.68.22-4.92.66-1.24.44-1.86 1.26-1.86 2.46 0 .44.1.81.3 1.11.2.3.46.55.78.75.32.2.67.35 1.05.45.38.1.73.15 1.05.15 1.32 0 2.38-.42 3.18-1.26.8-.84 1.2-1.92 1.2-3.24v-1.08h-.78Zm-.12-6.96c0-.96-.33-1.67-.99-2.13-.66-.46-1.53-.69-2.61-.69-1.28 0-2.49.27-3.63.81-1.14.54-2.15 1.17-3.03 1.89l-6.9-6.84c1.92-1.84 4.2-3.26 6.84-4.26 2.64-1 5.36-1.5 8.16-1.5 3 0 5.48.42 7.44 1.26 1.96.84 3.51 2 4.65 3.48 1.14 1.48 1.94 3.2 2.4 5.16.46 1.96.69 4.04.69 6.24V431h-12.54v-2.52h-.12c-.8 1.2-1.94 2.06-3.42 2.58s-2.92.78-4.32.78c-1.24 0-2.51-.18-3.81-.54-1.3-.36-2.48-.94-3.54-1.74s-1.93-1.84-2.61-3.12c-.68-1.28-1.02-2.86-1.02-4.74 0-2.2.57-3.99 1.71-5.37 1.14-1.38 2.59-2.46 4.35-3.24 1.76-.78 3.73-1.31 5.91-1.59s4.31-.42 6.39-.42v-.12Zm26.642 18.84-12.78-30.36h15.36l4.68 16.62h.24l4.14-16.62h14.82l-12.96 33.48c-.76 1.96-1.62 3.71-2.58 5.25s-2.08 2.85-3.36 3.93c-1.28 1.08-2.79 1.9-4.53 2.46-1.74.56-3.77.84-6.09.84-.72 0-1.46-.03-2.22-.09-.76-.06-1.49-.14-2.19-.24-.7-.1-1.35-.2-1.95-.3-.6-.1-1.1-.21-1.5-.33l1.74-11.4c.52.2 1.15.37 1.89.51s1.41.21 2.01.21c1.52 0 2.65-.31 3.39-.93.74-.62 1.29-1.41 1.65-2.37l.24-.66Z" opacity=".6"/><g fill="#FFF" fill-rule="nonzero"><path d="M75.88 282.2c-1.92 0-3.74-.28-5.46-.84-1.72-.56-3.27-1.32-4.65-2.28a15.68 15.68 0 0 1-3.57-3.42c-1-1.32-1.7-2.74-2.1-4.26l12.24-4.68c.16.64.45 1.21.87 1.71s.99.75 1.71.75c.92 0 1.54-.31 1.86-.93.32-.62.48-1.41.48-2.37v-27.36H91.6v26.76c0 1.92-.21 3.88-.63 5.88-.42 2-1.21 3.82-2.37 5.46-1.16 1.64-2.76 2.98-4.8 4.02-2.04 1.04-4.68 1.56-7.92 1.56Zm44.282-1.2h-14.4l-11.58-42.48h15.12l4.56 23.88h.24l4.92-23.88h14.94l5.34 23.88h.24l4.62-23.88h14.64L146.982 281h-14.4l-6-24h-.24z"/><path d="M182.745 281h-14.28v-30.42h-10.44v-12.06h35.16v12.06h-10.44zm36.725-42.48h15.18L251.21 281h-15.54l-2.22-6.24h-13.5l-2.1 6.24h-15.12l16.74-42.48Zm7.38 14.82-3.48 10.5h6.9l-3.42-10.5ZM285.652 281h-13.5v-3.48h-.12c-.8 1.16-1.99 2.17-3.57 3.03-1.58.86-3.39 1.29-5.43 1.29-2.24 0-4.08-.39-5.52-1.17-1.44-.78-2.59-1.8-3.45-3.06-.86-1.26-1.46-2.68-1.8-4.26-.34-1.58-.51-3.15-.51-4.71v-19.2h13.92v16.68c0 1.6.25 2.72.75 3.36.5.64 1.25.96 2.25.96.92 0 1.67-.37 2.25-1.11.58-.74.87-1.81.87-3.21v-16.68h13.86V281Zm18.902.84c-4.24 0-7.38-.91-9.42-2.73-2.04-1.82-3.06-4.65-3.06-8.49v-11.28h-4.44v-9.9h4.38v-7.08h13.44v7.08h6.84v9.9h-6.84v8.4c0 1.52.33 2.55.99 3.09.66.54 1.57.81 2.73.81.44 0 .9-.04 1.38-.12.48-.08.86-.16 1.14-.24v9.48c-.72.32-1.73.58-3.03.78-1.3.2-2.67.3-4.11.3Zm32.942-33.24c2.2 0 4.03.4 5.49 1.2 1.46.8 2.62 1.83 3.48 3.09a11.93 11.93 0 0 1 1.8 4.23c.34 1.56.51 3.12.51 4.68V281h-13.92v-16.8c0-1.6-.25-2.72-.75-3.36-.5-.64-1.25-.96-2.25-.96-.8 0-1.52.35-2.16 1.05-.64.7-.96 1.81-.96 3.33V281h-13.86v-45.36h13.86v17.28h.12c.8-1.16 1.94-2.17 3.42-3.03 1.48-.86 3.22-1.29 5.22-1.29Zm50.882 16.5c0 2.72-.49 5.14-1.47 7.26s-2.3 3.91-3.96 5.37c-1.66 1.46-3.58 2.57-5.76 3.33-2.18.76-4.47 1.14-6.87 1.14-2.36 0-4.63-.38-6.81-1.14-2.18-.76-4.09-1.87-5.73-3.33-1.64-1.46-2.95-3.25-3.93-5.37s-1.47-4.54-1.47-7.26c0-2.68.49-5.07 1.47-7.17.98-2.1 2.29-3.87 3.93-5.31 1.64-1.44 3.55-2.53 5.73-3.27 2.18-.74 4.45-1.11 6.81-1.11 2.4 0 4.69.37 6.87 1.11 2.18.74 4.1 1.83 5.76 3.27 1.66 1.44 2.98 3.21 3.96 5.31.98 2.1 1.47 4.49 1.47 7.17Zm-18.06-5.22c-1.52 0-2.75.52-3.69 1.56s-1.41 2.26-1.41 3.66c0 1.48.48 2.74 1.44 3.78.96 1.04 2.2 1.56 3.72 1.56s2.76-.52 3.72-1.56c.96-1.04 1.44-2.3 1.44-3.78 0-1.4-.49-2.62-1.47-3.66s-2.23-1.56-3.75-1.56Zm21.962-10.44h13.32v3.6h.12c.68-1.28 1.69-2.34 3.03-3.18 1.34-.84 2.91-1.26 4.71-1.26 1.08 0 1.96.1 2.64.3l-1.08 11.76c-.44-.12-.93-.21-1.47-.27-.54-.06-1.03-.09-1.47-.09-1.8 0-3.24.52-4.32 1.56s-1.62 2.32-1.62 3.84V281h-13.86v-31.56Zm25.563 0h13.86V281h-13.86v-31.56Zm-.24-9.12c0-.96.19-1.87.57-2.73.38-.86.9-1.61 1.56-2.25.66-.64 1.43-1.15 2.31-1.53.88-.38 1.82-.57 2.82-.57.96 0 1.86.19 2.7.57.84.38 1.59.89 2.25 1.53.66.64 1.18 1.39 1.56 2.25.38.86.57 1.77.57 2.73a6.825 6.825 0 0 1-2.13 5.01c-.66.62-1.41 1.11-2.25 1.47-.84.36-1.74.54-2.7.54-1 0-1.94-.18-2.82-.54-.88-.36-1.65-.85-2.31-1.47a6.825 6.825 0 0 1-2.13-5.01Zm18.122 31.02 11.82-11.64h-11.52v-10.26h28.74v9l-12.78 12.3h13.14V281h-29.4zm50.283-3.42c-2.04 0-3.68.22-4.92.66-1.24.44-1.86 1.26-1.86 2.46 0 .44.1.81.3 1.11.2.3.46.55.78.75.32.2.67.35 1.05.45.38.1.73.15 1.05.15 1.32 0 2.38-.42 3.18-1.26.8-.84 1.2-1.92 1.2-3.24v-1.08h-.78Zm-.12-6.96c0-.96-.33-1.67-.99-2.13-.66-.46-1.53-.69-2.61-.69-1.28 0-2.49.27-3.63.81-1.14.54-2.15 1.17-3.03 1.89l-6.9-6.84c1.92-1.84 4.2-3.26 6.84-4.26 2.64-1 5.36-1.5 8.16-1.5 3 0 5.48.42 7.44 1.26 1.96.84 3.51 2 4.65 3.48 1.14 1.48 1.94 3.2 2.4 5.16.46 1.96.69 4.04.69 6.24V281h-12.54v-2.52h-.12c-.8 1.2-1.94 2.06-3.42 2.58s-2.92.78-4.32.78c-1.24 0-2.51-.18-3.81-.54-1.3-.36-2.48-.94-3.54-1.74s-1.93-1.84-2.61-3.12c-.68-1.28-1.02-2.86-1.02-4.74 0-2.2.57-3.99 1.71-5.37 1.14-1.38 2.59-2.46 4.35-3.24 1.76-.78 3.73-1.31 5.91-1.59s4.31-.42 6.39-.42v-.12Zm30.662 20.88c-4.24 0-7.38-.91-9.42-2.73-2.04-1.82-3.06-4.65-3.06-8.49v-11.28h-4.44v-9.9h4.38v-7.08h13.44v7.08h6.84v9.9h-6.84v8.4c0 1.52.33 2.55.99 3.09.66.54 1.57.81 2.73.81.44 0 .9-.04 1.38-.12.48-.08.86-.16 1.14-.24v9.48c-.72.32-1.73.58-3.03.78-1.3.2-2.67.3-4.11.3Zm10.382-32.4h13.86V281h-13.86v-31.56Zm-.24-9.12c0-.96.19-1.87.57-2.73.38-.86.9-1.61 1.56-2.25.66-.64 1.43-1.15 2.31-1.53.88-.38 1.82-.57 2.82-.57.96 0 1.86.19 2.7.57.84.38 1.59.89 2.25 1.53.66.64 1.18 1.39 1.56 2.25.38.86.57 1.77.57 2.73a6.825 6.825 0 0 1-2.13 5.01c-.66.62-1.41 1.11-2.25 1.47-.84.36-1.74.54-2.7.54-1 0-1.94-.18-2.82-.54-.88-.36-1.65-.85-2.31-1.47a6.825 6.825 0 0 1-2.13-5.01Zm54.063 24.78c0 2.72-.49 5.14-1.47 7.26s-2.3 3.91-3.96 5.37c-1.66 1.46-3.58 2.57-5.76 3.33-2.18.76-4.47 1.14-6.87 1.14-2.36 0-4.63-.38-6.81-1.14-2.18-.76-4.09-1.87-5.73-3.33-1.64-1.46-2.95-3.25-3.93-5.37s-1.47-4.54-1.47-7.26c0-2.68.49-5.07 1.47-7.17.98-2.1 2.29-3.87 3.93-5.31 1.64-1.44 3.55-2.53 5.73-3.27 2.18-.74 4.45-1.11 6.81-1.11 2.4 0 4.69.37 6.87 1.11 2.18.74 4.1 1.83 5.76 3.27 1.66 1.44 2.98 3.21 3.96 5.31.98 2.1 1.47 4.49 1.47 7.17Zm-18.06-5.22c-1.52 0-2.75.52-3.69 1.56s-1.41 2.26-1.41 3.66c0 1.48.48 2.74 1.44 3.78.96 1.04 2.2 1.56 3.72 1.56s2.76-.52 3.72-1.56c.96-1.04 1.44-2.3 1.44-3.78 0-1.4-.49-2.62-1.47-3.66s-2.23-1.56-3.75-1.56Zm21.962-10.44h13.5v3.48h.12c.8-1.16 1.99-2.17 3.57-3.03 1.58-.86 3.39-1.29 5.43-1.29 2.2 0 4.03.4 5.49 1.2 1.46.8 2.62 1.83 3.48 3.09a11.93 11.93 0 0 1 1.8 4.23c.34 1.56.51 3.12.51 4.68V281h-13.92v-16.8c0-1.6-.25-2.72-.75-3.36-.5-.64-1.25-.96-2.25-.96-.92 0-1.67.37-2.25 1.11-.58.74-.87 1.81-.87 3.21V281h-13.86v-31.56Z"/></g><path fill="#FFF" fill-rule="nonzero" d="M158.724 65.688h-9.548v-4.84h24.64v4.84h-9.548V92h-5.544zM192.561 92h-5.016v-3.388h-.088c-.47 1.056-1.283 1.987-2.442 2.794-1.159.807-2.53 1.21-4.114 1.21-1.379 0-2.56-.242-3.542-.726-.983-.484-1.79-1.122-2.42-1.914a7.742 7.742 0 0 1-1.386-2.728 11.475 11.475 0 0 1-.44-3.168v-13.2h5.28v11.704c0 .616.044 1.261.132 1.936.088.675.279 1.283.572 1.826.293.543.697.99 1.21 1.342.513.352 1.195.528 2.046.528.821 0 1.547-.169 2.178-.506a4.606 4.606 0 0 0 1.54-1.298 5.747 5.747 0 0 0 .902-1.826 7.3 7.3 0 0 0 .308-2.09V70.88h5.28V92Zm3.389-16.896V70.88h3.696v-6.116h5.192v6.116h5.28v4.224h-5.28v9.812c0 .939.169 1.716.506 2.332.337.616 1.093.924 2.266.924a6.57 6.57 0 0 0 1.144-.11c.41-.073.777-.183 1.1-.33l.176 4.136a8.681 8.681 0 0 1-1.672.418c-.645.103-1.261.154-1.848.154-1.408 0-2.552-.198-3.432-.594-.88-.396-1.577-.939-2.09-1.628a6.027 6.027 0 0 1-1.056-2.376 13.815 13.815 0 0 1-.286-2.882v-9.856h-3.696Zm16.853 6.248c0-1.672.3-3.19.902-4.554.601-1.364 1.415-2.53 2.442-3.498 1.027-.968 2.244-1.716 3.652-2.244a12.676 12.676 0 0 1 4.488-.792c1.584 0 3.08.264 4.488.792 1.408.528 2.625 1.276 3.652 2.244 1.027.968 1.84 2.134 2.442 3.498.601 1.364.902 2.882.902 4.554 0 1.672-.3 3.197-.902 4.576-.601 1.379-1.415 2.56-2.442 3.542-1.027.983-2.244 1.753-3.652 2.31a12.082 12.082 0 0 1-4.488.836c-1.584 0-3.08-.279-4.488-.836-1.408-.557-2.625-1.327-3.652-2.31-1.027-.983-1.84-2.163-2.442-3.542-.601-1.379-.902-2.904-.902-4.576Zm5.368 0c0 .821.125 1.643.374 2.464.25.821.623 1.555 1.122 2.2a5.873 5.873 0 0 0 1.892 1.584c.763.41 1.672.616 2.728.616 1.056 0 1.965-.205 2.728-.616a5.873 5.873 0 0 0 1.892-1.584 6.785 6.785 0 0 0 1.122-2.2 8.227 8.227 0 0 0 0-4.906 6.825 6.825 0 0 0-1.122-2.178 5.635 5.635 0 0 0-1.892-1.562c-.763-.396-1.672-.594-2.728-.594-1.056 0-1.965.198-2.728.594a5.635 5.635 0 0 0-1.892 1.562 6.825 6.825 0 0 0-1.122 2.178 8.227 8.227 0 0 0-.374 2.442Zm22.793-10.472h5.06v3.52h.088c.587-1.232 1.408-2.23 2.464-2.992 1.056-.763 2.288-1.144 3.696-1.144.205 0 .425.007.66.022.235.015.44.051.616.11v4.84a7.37 7.37 0 0 0-.902-.176 6.214 6.214 0 0 0-.726-.044c-1.203 0-2.17.22-2.904.66-.733.44-1.305.968-1.716 1.584a5.673 5.673 0 0 0-.836 1.892c-.147.645-.22 1.159-.22 1.54V92h-5.28V70.88Zm16.193 0h5.28V92h-5.28V70.88Zm-.748-7.172c0-.85.315-1.591.946-2.222.63-.63 1.43-.946 2.398-.946.968 0 1.782.3 2.442.902.66.601.99 1.357.99 2.266 0 .91-.33 1.665-.99 2.266-.66.601-1.474.902-2.442.902-.968 0-1.767-.315-2.398-.946-.63-.63-.946-1.371-.946-2.222Zm25.653 25.608h-.132c-.528.939-1.379 1.709-2.552 2.31s-2.508.902-4.004.902c-.85 0-1.738-.11-2.662-.33a7.923 7.923 0 0 1-2.552-1.1 6.395 6.395 0 0 1-1.936-2.024c-.513-.836-.77-1.87-.77-3.102 0-1.584.447-2.845 1.342-3.784.895-.939 2.046-1.657 3.454-2.156 1.408-.499 2.97-.829 4.686-.99a53.819 53.819 0 0 1 5.038-.242v-.528c0-1.32-.477-2.295-1.43-2.926-.953-.63-2.09-.946-3.41-.946a7.64 7.64 0 0 0-3.212.704c-1.027.47-1.877 1.041-2.552 1.716l-2.728-3.212A11.915 11.915 0 0 1 272.8 71.1a14.18 14.18 0 0 1 4.774-.836c1.877 0 3.425.264 4.642.792 1.217.528 2.178 1.217 2.882 2.068a7.397 7.397 0 0 1 1.474 2.86 12.37 12.37 0 0 1 .418 3.168V92h-4.928v-2.684Zm-.088-6.952h-1.188c-.85 0-1.745.037-2.684.11a11.65 11.65 0 0 0-2.596.484c-.792.25-1.452.601-1.98 1.056-.528.455-.792 1.078-.792 1.87 0 .499.11.917.33 1.254.22.337.506.609.858.814a3.83 3.83 0 0 0 1.188.44c.44.088.88.132 1.32.132 1.819 0 3.197-.484 4.136-1.452.939-.968 1.408-2.288 1.408-3.96v-.748Zm11.353-23.628h5.28V92h-5.28z"/><path stroke="#979797" stroke-linecap="square" d="M127.5 44.5v66"/><g fill="#FFF" fill-rule="nonzero" transform="translate(46 44)"><path d="M16.86 54.807a26.38 26.38 0 0 1-5.924-4.62 6.595 6.595 0 0 1-1.823 1.573 6.7 6.7 0 0 1-1.215.532c9.429 10.247 24.708 12.68 36.878 5.871a1.843 1.843 0 0 0 0-3.199 1.83 1.83 0 0 0-1.823-.03 26.415 26.415 0 0 1-26.094-.127Zm-.007-45.326a26.325 26.325 0 0 1 7-2.775 6.57 6.57 0 0 1-.329-3.75C9.897 5.969.151 17.927 0 31.819a1.85 1.85 0 0 0 .932 1.598 1.867 1.867 0 0 0 1.857-.002c.563-.315.917-.904.93-1.548.099-9.247 5.091-17.755 13.134-22.385ZM56.29 32.144a26.121 26.121 0 0 1-1.082 7.42c.817.119 1.604.39 2.32.798.385.219.749.472 1.088.755 4.182-13.25-1.355-27.624-13.366-34.695a1.867 1.867 0 0 0-1.822.054 1.849 1.849 0 0 0-.9 1.578c-.007.643.329 1.24.881 1.572 7.987 4.717 12.882 13.275 12.88 22.518ZM30.007 19.7c5.057-.002 9.618 3.028 11.556 7.678a12.401 12.401 0 0 1-2.707 13.563 12.547 12.547 0 0 1-13.627 2.7 12.444 12.444 0 0 1-7.72-11.497c.007-6.867 5.597-12.434 12.498-12.444m0-3.694c-8.956 0-16.216 7.225-16.216 16.138 0 8.913 7.26 16.139 16.216 16.139 8.955 0 16.215-7.226 16.215-16.139a16.094 16.094 0 0 0-4.748-11.413 16.249 16.249 0 0 0-11.467-4.725Z"/><ellipse cx="30.001" cy="4.305" rx="4.326" ry="4.305"/><ellipse cx="5.778" cy="46.058" rx="4.326" ry="4.305"/><ellipse cx="54.223" cy="46.058" rx="4.326" ry="4.305"/><path d="M33.591 29.2a3.572 3.572 0 0 0-2.97-3.52 3.587 3.587 0 0 0-3.99 2.315 3.56 3.56 0 0 0 1.614 4.306l-1.13 5.702a.603.603 0 0 0 .607.726h4.6a.603.603 0 0 0 .608-.726l-1.137-5.702A3.559 3.559 0 0 0 33.59 29.2Z"/></g><g filter="url(#b)" transform="translate(651 64)"><rect width="644" height="478" fill="#FFF" rx="20"/><g fill-rule="nonzero" transform="translate(38 32)"><path fill="#000" stroke="#CDCDCD" stroke-dasharray="5.4,5.4" stroke-width="1.08" d="M42.5 41v329m156-329v329m204-329v329"/><rect width="85" height="40" fill="#D8D8D8" stroke="#979797" stroke-width="1.08" rx="4.32"/><text fill="#000" font-family="Helvetica" font-size="15.12">
                    <tspan x="9" y="25">API client</tspan>
                </text><rect width="85" height="40" y="369" fill="#D8D8D8" stroke="#979797" stroke-width="1.08" rx="4.32"/><text fill="#000" font-family="Helvetica" font-size="15.12">
                    <tspan x="9" y="394">API client</tspan>
                </text><rect width="82" height="40" x="158" fill="#D8D8D8" stroke="#979797" stroke-width="1.08" rx="4.32"/><text fill="#000" font-family="Helvetica" font-size="15.12">
                    <tspan x="167" y="25">Gateway</tspan>
                </text><rect width="82" height="40" x="158" y="369" fill="#D8D8D8" stroke="#979797" stroke-width="1.08" rx="4.32"/><text fill="#000" font-family="Helvetica" font-size="15.12">
                    <tspan x="167" y="394">Gateway</tspan>
                </text><rect width="85" height="40" x="360" fill="#D8D8D8" stroke="#979797" stroke-width="1.08" rx="4.32"/><text fill="#000" font-family="Helvetica" font-size="15.12">
                    <tspan x="370" y="25">Products</tspan>
                </text><rect width="85" height="40" x="360" y="369" fill="#D8D8D8" stroke="#979797" stroke-width="1.08" rx="4.32"/><text fill="#000" font-family="Helvetica" font-size="15.12">
                    <tspan x="370" y="394">Products</tspan>
                </text><path fill="#56666F" stroke="#56666F" stroke-width="1.08" d="m187 78 10 4-10 4 4-4z"/><path fill="#000" stroke="#56666F" stroke-width="1.08" d="M42 81.5h151"/><text fill="#000" font-family="Helvetica" font-size="14.04">
                    <tspan x="49" y="72">Request products/1</tspan>
                </text><path fill="#000" stroke="#56666F" stroke-width="1.08" d="M199 120.5h42m-.5-.5v13m-40.5.5h41"/><path fill="#56666F" stroke="#56666F" stroke-width="1.08" d="m210 129-10 4 10 4-4-4z"/><text fill="#000" font-family="Helvetica" font-size="14.04">
                    <tspan x="203" y="111">Generate JWT adding in roles</tspan>
                </text><path fill="#56666F" stroke="#56666F" stroke-width="1.08" d="m391 168 10 4-10 4 4-4z"/><path fill="#000" stroke="#56666F" stroke-width="1.08" d="M199 171.5h198"/><text fill="#000" font-family="Helvetica" font-size="14.04">
                    <tspan x="204" y="162">Request products/1 + JWT</tspan>
                </text><path fill="#000" stroke="#56666F" stroke-width="1.08" d="M403 210.5h42m-.5-.5v13m-40.5.5h41"/><path fill="#56666F" stroke="#56666F" stroke-width="1.08" d="m414 219-10 4 10 4-4-4z"/><text fill="#000" font-family="Helvetica" font-size="14.04">
                    <tspan x="408" y="201">Verify JWT via middleware</tspan>
                </text><path fill="#000" stroke="#56666F" stroke-width="1.08" d="M403 262.5h42m-.5-.5v13m-40.5-.5h41"/><path fill="#56666F" stroke="#56666F" stroke-width="1.08" d="m414 271-10 4 10 4-4-4z"/><text fill="#000" font-family="Helvetica" font-size="14.04">
                    <tspan x="412" y="253">Check roles</tspan>
                </text><path fill="#56666F" stroke="#56666F" stroke-width="1.08" d="m210 310-10 4 10 4-4-4z"/><path fill="#000" stroke="#56666F" stroke-width="1.08" d="M204 313.5h198"/><text fill="#000" font-family="Helvetica" font-size="14.04">
                    <tspan x="217" y="304">products/1 data</tspan>
                </text><path fill="#56666F" stroke="#56666F" stroke-width="1.08" d="m53 348-10 4 10 4-4-4z"/><path fill="#000" stroke="#56666F" stroke-width="1.08" d="M47 352.5h151"/><text fill="#000" font-family="Helvetica" font-size="14.04">
                    <tspan x="60" y="343">products/1 data</tspan>
                </text></g></g></g></svg>