<?xml version="1.0" encoding="UTF-8"?>
<svg width="1200px" height="630px" viewBox="0 0 1200 630" version="1.1" xmlns="http://www.w3.org/2000/svg" xmlns:xlink="http://www.w3.org/1999/xlink">
    <title>jwt-authorization-microservices-gateway</title>
    <defs>
        <radialGradient cx="79.4865232%" cy="90.3628524%" fx="79.4865232%" fy="90.3628524%" r="127.473459%" gradientTransform="translate(0.7949, 0.9036), scale(0.525, 1), rotate(27.6504), translate(-0.7949, -0.9036)" id="radialGradient-1">
            <stop stop-color="#2D53F5" stop-opacity="0.656058785" offset="0%"></stop>
            <stop stop-color="#291273" stop-opacity="0.754578917" offset="34.3992433%"></stop>
            <stop stop-color="#0F172A" offset="100%"></stop>
        </radialGradient>
        <filter x="-1.3%" y="-1.4%" width="102.6%" height="103.6%" filterUnits="objectBoundingBox" id="filter-2">
            <feOffset dx="0" dy="2" in="SourceAlpha" result="shadowOffsetOuter1"></feOffset>
            <feGaussianBlur stdDeviation="2.5" in="shadowOffsetOuter1" result="shadowBlurOuter1"></feGaussianBlur>
            <feColorMatrix values="0 0 0 0 0   0 0 0 0 0   0 0 0 0 0  0 0 0 0.5 0" type="matrix" in="shadowBlurOuter1" result="shadowMatrixOuter1"></feColorMatrix>
            <feMerge>
                <feMergeNode in="shadowMatrixOuter1"></feMergeNode>
                <feMergeNode in="SourceGraphic"></feMergeNode>
            </feMerge>
        </filter>
    </defs>
    <g id="jwt-authorization-microservices-gateway" stroke="none" stroke-width="1" fill="none" fill-rule="evenodd">
        <rect fill="#6366F1" x="0" y="0" width="1200" height="630"></rect>
        <g id="inventory-flow" opacity="0.481935047" transform="translate(402, 81)" fill-rule="nonzero">
            <line x1="55.5" y1="54" x2="55.5" y2="424" id="Path" stroke="#CDCDCD" stroke-width="0.7" fill="#000000" stroke-dasharray="3.5,3.5"></line>
            <line x1="346.5" y1="54" x2="346.5" y2="424" id="Path" stroke="#CDCDCD" stroke-width="0.7" fill="#000000" stroke-dasharray="3.5,3.5"></line>
            <line x1="690.5" y1="54" x2="690.5" y2="424" id="Path" stroke="#CDCDCD" stroke-width="0.7" fill="#000000" stroke-dasharray="3.5,3.5"></line>
            <rect id="Rectangle" stroke="#979797" stroke-width="0.7" fill="#D8D8D8" x="0" y="0" width="113" height="53" rx="2.8"></rect>
            <text id="API-client" fill="#000000" font-family="Helvetica" font-size="9.8" font-weight="normal">
                <tspan x="34" y="30">API client</tspan>
            </text>
            <rect id="Rectangle" stroke="#979797" stroke-width="0.7" fill="#D8D8D8" x="0" y="423" width="113" height="53" rx="2.8"></rect>
            <text id="API-client" fill="#000000" font-family="Helvetica" font-size="9.8" font-weight="normal">
                <tspan x="34" y="453">API client</tspan>
            </text>
            <rect id="Rectangle" stroke="#979797" stroke-width="0.7" fill="#D8D8D8" x="293" y="0" width="109" height="53" rx="2.8"></rect>
            <text id="Gateway" fill="#000000" font-family="Helvetica" font-size="9.8" font-weight="normal">
                <tspan x="326" y="30">Gateway</tspan>
            </text>
            <rect id="Rectangle" stroke="#979797" stroke-width="0.7" fill="#D8D8D8" x="293" y="423" width="109" height="53" rx="2.8"></rect>
            <text id="Gateway" fill="#000000" font-family="Helvetica" font-size="9.8" font-weight="normal">
                <tspan x="326" y="453">Gateway</tspan>
            </text>
            <rect id="Rectangle" stroke="#979797" stroke-width="0.7" fill="#D8D8D8" x="635" y="0" width="113" height="53" rx="2.8"></rect>
            <text id="Products" fill="#000000" font-family="Helvetica" font-size="9.8" font-weight="normal">
                <tspan x="668" y="30">Products</tspan>
            </text>
            <rect id="Rectangle" stroke="#979797" stroke-width="0.7" fill="#D8D8D8" x="635" y="423" width="113" height="53" rx="2.8"></rect>
            <text id="Products" fill="#000000" font-family="Helvetica" font-size="9.8" font-weight="normal">
                <tspan x="668" y="453">Products</tspan>
            </text>
            <polygon id="Path" stroke="#56666F" stroke-width="0.7" fill="#56666F" points="331 104 345 109 331 114 336.6 109"></polygon>
            <line x1="56" y1="108.5" x2="339" y2="108.5" id="Path" stroke="#56666F" stroke-width="0.7" fill="#000000"></line>
            <text id="Request-branches/1/products" fill="#000000" font-family="Helvetica" font-size="9.1" font-weight="normal">
                <tspan x="125" y="92">Request branches/1/products</tspan>
            </text>
            <line x1="347" y1="159.5" x2="402" y2="159.5" id="Path" stroke="#56666F" stroke-width="0.7" fill="#000000"></line>
            <line x1="402.5" y1="160" x2="402.5" y2="177" id="Path" stroke="#56666F" stroke-width="0.7" fill="#000000"></line>
            <line x1="348" y1="177.5" x2="402" y2="177.5" id="Path" stroke="#56666F" stroke-width="0.7" fill="#000000"></line>
            <polygon id="Path" stroke="#56666F" stroke-width="0.7" fill="#56666F" points="362 173 348 178 362 183 356.4 178"></polygon>
            <text id="Generate-JWT" fill="#000000" font-family="Helvetica" font-size="9.1" font-weight="normal">
                <tspan x="389" y="144">Generate JWT</tspan>
            </text>
            <polygon id="Path" stroke="#56666F" stroke-width="0.7" fill="#56666F" points="675 223 689 228 675 233 680.6 228"></polygon>
            <line x1="347" y1="228.5" x2="683" y2="228.5" id="Path" stroke="#56666F" stroke-width="0.7" fill="#000000"></line>
            <text id="Request-branches/1/products-+-JWT" fill="#000000" font-family="Helvetica" font-size="9.1" font-weight="normal">
                <tspan x="428" y="213">Request branches/1/products + JWT</tspan>
            </text>
            <line x1="691" y1="280.5" x2="746" y2="280.5" id="Path" stroke="#56666F" stroke-width="0.7" fill="#000000"></line>
            <line x1="745.5" y1="281" x2="745.5" y2="298" id="Path" stroke="#56666F" stroke-width="0.7" fill="#000000"></line>
            <line x1="692" y1="297.5" x2="746" y2="297.5" id="Path" stroke="#56666F" stroke-width="0.7" fill="#000000"></line>
            <polygon id="Path" stroke="#56666F" stroke-width="0.7" fill="#56666F" points="706 292 692 297 706 302 700.4 297"></polygon>
            <text id="Verify-JWT-via-middleware" fill="#000000" font-family="Helvetica" font-size="9.1" font-weight="normal">
                <tspan x="754" y="263">Verify JWT via middleware</tspan>
            </text>
            <polygon id="Path" stroke="#56666F" stroke-width="0.7" fill="#56666F" points="362 344 348 349 362 354 356.4 349"></polygon>
            <line x1="354" y1="349.5" x2="690" y2="349.5" id="Path" stroke="#56666F" stroke-width="0.7" fill="#000000"></line>
            <text id="branches/1/products-data" fill="#000000" font-family="Helvetica" font-size="9.1" font-weight="normal">
                <tspan x="421" y="332">branches/1/products data</tspan>
            </text>
            <polygon id="Path" stroke="#56666F" stroke-width="0.7" fill="#56666F" points="71 396 57 401 71 406 65.4 401"></polygon>
            <line x1="63" y1="400.5" x2="346" y2="400.5" id="Path" stroke="#56666F" stroke-width="0.7" fill="#000000"></line>
            <text id="branches/1/products-data" fill="#000000" font-family="Helvetica" font-size="9.1" font-weight="normal">
                <tspan x="130" y="384">branches/1/products data</tspan>
            </text>
        </g>
        <rect id="Rectangle-Copy-13" fill="url(#radialGradient-1)" x="0" y="0" width="1200" height="630" rx="15"></rect>
        <g id="in-a-Microservices-G" transform="translate(63.04, 311.24)" fill="#FFFFFF" fill-rule="nonzero" opacity="0.6">
            <path d="M1.2,16.2 L15.06,16.2 L15.06,47.76 L1.2,47.76 L1.2,16.2 Z M0.96,7.08 C0.96,6.12 1.15,5.21 1.53,4.35 C1.91,3.49 2.43,2.74 3.09,2.1 C3.75,1.46 4.52,0.95 5.4,0.57 C6.28,0.19 7.22,0 8.22,0 C9.18,0 10.08,0.19 10.92,0.57 C11.76,0.95 12.51,1.46 13.17,2.1 C13.83,2.74 14.35,3.49 14.73,4.35 C15.11,5.21 15.3,6.12 15.3,7.08 C15.3,8.08 15.11,9.01 14.73,9.87 C14.35,10.73 13.83,11.47 13.17,12.09 C12.51,12.71 11.76,13.2 10.92,13.56 C10.08,13.92 9.18,14.1 8.22,14.1 C7.22,14.1 6.28,13.92 5.4,13.56 C4.52,13.2 3.75,12.71 3.09,12.09 C2.43,11.47 1.91,10.73 1.53,9.87 C1.15,9.01 0.96,8.08 0.96,7.08 Z" id="Shape"></path>
            <path d="M20.28231,16.2 L33.78231,16.2 L33.78231,19.68 L33.90231,19.68 C34.70231,18.52 35.89231,17.51 37.47231,16.65 C39.05231,15.79 40.86231,15.36 42.90231,15.36 C45.10231,15.36 46.93231,15.76 48.39231,16.56 C49.85231,17.36 51.01231,18.39 51.87231,19.65 C52.73231,20.91 53.33231,22.32 53.67231,23.88 C54.01231,25.44 54.18231,27 54.18231,28.56 L54.18231,47.76 L40.26231,47.76 L40.26231,30.96 C40.26231,29.36 40.01231,28.24 39.51231,27.6 C39.01231,26.96 38.26231,26.64 37.26231,26.64 C36.34231,26.64 35.59231,27.01 35.01231,27.75 C34.43231,28.49 34.14231,29.56 34.14231,30.96 L34.14231,47.76 L20.28231,47.76 L20.28231,16.2 Z" id="Path"></path>
            <path d="M89.70693,34.68 C87.66693,34.68 86.02693,34.9 84.78693,35.34 C83.54693,35.78 82.92693,36.6 82.92693,37.8 C82.92693,38.24 83.02693,38.61 83.22693,38.91 C83.42693,39.21 83.68693,39.46 84.00693,39.66 C84.32693,39.86 84.67693,40.01 85.05693,40.11 C85.43693,40.21 85.78693,40.26 86.10693,40.26 C87.42693,40.26 88.48693,39.84 89.28693,39 C90.08693,38.16 90.48693,37.08 90.48693,35.76 L90.48693,34.68 L89.70693,34.68 Z M89.58693,27.72 C89.58693,26.76 89.25693,26.05 88.59693,25.59 C87.93693,25.13 87.06693,24.9 85.98693,24.9 C84.70693,24.9 83.49693,25.17 82.35693,25.71 C81.21693,26.25 80.20693,26.88 79.32693,27.6 L72.42693,20.76 C74.34693,18.92 76.62693,17.5 79.26693,16.5 C81.90693,15.5 84.62693,15 87.42693,15 C90.42693,15 92.90693,15.42 94.86693,16.26 C96.82693,17.1 98.37693,18.26 99.51693,19.74 C100.65693,21.22 101.45693,22.94 101.91693,24.9 C102.37693,26.86 102.60693,28.94 102.60693,31.14 L102.60693,47.76 L90.06693,47.76 L90.06693,45.24 L89.94693,45.24 C89.14693,46.44 88.00693,47.3 86.52693,47.82 C85.04693,48.34 83.60693,48.6 82.20693,48.6 C80.96693,48.6 79.69693,48.42 78.39693,48.06 C77.09693,47.7 75.91693,47.12 74.85693,46.32 C73.79693,45.52 72.92693,44.48 72.24693,43.2 C71.56693,41.92 71.22693,40.34 71.22693,38.46 C71.22693,36.26 71.79693,34.47 72.93693,33.09 C74.07693,31.71 75.52693,30.63 77.28693,29.85 C79.04693,29.07 81.01693,28.54 83.19693,28.26 C85.37693,27.98 87.50693,27.84 89.58693,27.84 L89.58693,27.72 Z" id="Shape"></path>
            <polygon id="Path" points="134.35155 23.76 135.01155 47.76 121.69155 47.76 121.69155 5.28 140.35155 5.28 148.03155 28.14 148.33155 28.14 154.99155 5.28 174.25155 5.28 174.25155 47.76 160.39155 47.76 160.81155 23.88 160.45155 23.82 152.53155 47.76 142.45155 47.76 134.65155 23.76"></polygon>
            <path d="M180.25386,16.2 L194.11386,16.2 L194.11386,47.76 L180.25386,47.76 L180.25386,16.2 Z M180.01386,7.08 C180.01386,6.12 180.20386,5.21 180.58386,4.35 C180.96386,3.49 181.48386,2.74 182.14386,2.1 C182.80386,1.46 183.57386,0.95 184.45386,0.57 C185.33386,0.19 186.27386,0 187.27386,0 C188.23386,0 189.13386,0.19 189.97386,0.57 C190.81386,0.95 191.56386,1.46 192.22386,2.1 C192.88386,2.74 193.40386,3.49 193.78386,4.35 C194.16386,5.21 194.35386,6.12 194.35386,7.08 C194.35386,8.08 194.16386,9.01 193.78386,9.87 C193.40386,10.73 192.88386,11.47 192.22386,12.09 C191.56386,12.71 190.81386,13.2 189.97386,13.56 C189.13386,13.92 188.23386,14.1 187.27386,14.1 C186.27386,14.1 185.33386,13.92 184.45386,13.56 C183.57386,13.2 182.80386,12.71 182.14386,12.09 C181.48386,11.47 180.96386,10.73 180.58386,9.87 C180.20386,9.01 180.01386,8.08 180.01386,7.08 Z" id="Shape"></path>
            <path d="M216.49617,48.96 C213.81617,48.96 211.35617,48.56 209.11617,47.76 C206.87617,46.96 204.93617,45.82 203.29617,44.34 C201.65617,42.86 200.37617,41.08 199.45617,39 C198.53617,36.92 198.07617,34.58 198.07617,31.98 C198.07617,29.42 198.54617,27.09 199.48617,24.99 C200.42617,22.89 201.73617,21.1 203.41617,19.62 C205.09617,18.14 207.06617,17 209.32617,16.2 C211.58617,15.4 214.03617,15 216.67617,15 C217.75617,15 218.84617,15.09 219.94617,15.27 C221.04617,15.45 222.10617,15.7 223.12617,16.02 C224.14617,16.34 225.08617,16.7 225.94617,17.1 C226.80617,17.5 227.53617,17.94 228.13617,18.42 L221.23617,28.38 C220.75617,27.82 220.12617,27.39 219.34617,27.09 C218.56617,26.79 217.81617,26.64 217.09617,26.64 C216.41617,26.64 215.75617,26.75 215.11617,26.97 C214.47617,27.19 213.90617,27.53 213.40617,27.99 C212.90617,28.45 212.49617,29.01 212.17617,29.67 C211.85617,30.33 211.69617,31.1 211.69617,31.98 C211.69617,32.86 211.85617,33.63 212.17617,34.29 C212.49617,34.95 212.90617,35.49 213.40617,35.91 C213.90617,36.33 214.47617,36.65 215.11617,36.87 C215.75617,37.09 216.41617,37.2 217.09617,37.2 C217.89617,37.2 218.67617,37.05 219.43617,36.75 C220.19617,36.45 220.81617,36.04 221.29617,35.52 L228.25617,45.24 C226.93617,46.28 225.22617,47.16 223.12617,47.88 C221.02617,48.6 218.81617,48.96 216.49617,48.96 Z" id="Path"></path>
            <path d="M229.69848,16.2 L243.01848,16.2 L243.01848,19.8 L243.13848,19.8 C243.81848,18.52 244.82848,17.46 246.16848,16.62 C247.50848,15.78 249.07848,15.36 250.87848,15.36 C251.95848,15.36 252.83848,15.46 253.51848,15.66 L252.43848,27.42 C251.99848,27.3 251.50848,27.21 250.96848,27.15 C250.42848,27.09 249.93848,27.06 249.49848,27.06 C247.69848,27.06 246.25848,27.58 245.17848,28.62 C244.09848,29.66 243.55848,30.94 243.55848,32.46 L243.55848,47.76 L229.69848,47.76 L229.69848,16.2 Z" id="Path"></path>
            <path d="M288.86079,31.86 C288.86079,34.58 288.37079,37 287.39079,39.12 C286.41079,41.24 285.09079,43.03 283.43079,44.49 C281.77079,45.95 279.85079,47.06 277.67079,47.82 C275.49079,48.58 273.20079,48.96 270.80079,48.96 C268.44079,48.96 266.17079,48.58 263.99079,47.82 C261.81079,47.06 259.90079,45.95 258.26079,44.49 C256.62079,43.03 255.31079,41.24 254.33079,39.12 C253.35079,37 252.86079,34.58 252.86079,31.86 C252.86079,29.18 253.35079,26.79 254.33079,24.69 C255.31079,22.59 256.62079,20.82 258.26079,19.38 C259.90079,17.94 261.81079,16.85 263.99079,16.11 C266.17079,15.37 268.44079,15 270.80079,15 C273.20079,15 275.49079,15.37 277.67079,16.11 C279.85079,16.85 281.77079,17.94 283.43079,19.38 C285.09079,20.82 286.41079,22.59 287.39079,24.69 C288.37079,26.79 288.86079,29.18 288.86079,31.86 Z M270.80079,26.64 C269.28079,26.64 268.05079,27.16 267.11079,28.2 C266.17079,29.24 265.70079,30.46 265.70079,31.86 C265.70079,33.34 266.18079,34.6 267.14079,35.64 C268.10079,36.68 269.34079,37.2 270.86079,37.2 C272.38079,37.2 273.62079,36.68 274.58079,35.64 C275.54079,34.6 276.02079,33.34 276.02079,31.86 C276.02079,30.46 275.53079,29.24 274.55079,28.2 C273.57079,27.16 272.32079,26.64 270.80079,26.64 Z" id="Shape"></path>
            <path d="M318.6231,37.74 C318.6231,39.86 318.1731,41.64 317.2731,43.08 C316.3731,44.52 315.2331,45.67 313.8531,46.53 C312.4731,47.39 310.9631,48.01 309.3231,48.39 C307.6831,48.77 306.1231,48.96 304.6431,48.96 C301.9231,48.96 299.2531,48.57 296.6331,47.79 C294.0131,47.01 291.7431,45.9 289.8231,44.46 L296.6031,36.6 C297.5631,37.48 298.6931,38.19 299.9931,38.73 C301.2931,39.27 302.5431,39.54 303.7431,39.54 C304.2231,39.54 304.6731,39.45 305.0931,39.27 C305.5131,39.09 305.7231,38.76 305.7231,38.28 C305.7231,37.76 305.3531,37.35 304.6131,37.05 C303.8731,36.75 302.5831,36.38 300.7431,35.94 C299.7431,35.7 298.7231,35.35 297.6831,34.89 C296.6431,34.43 295.6931,33.82 294.8331,33.06 C293.9731,32.3 293.2631,31.37 292.7031,30.27 C292.1431,29.17 291.8631,27.86 291.8631,26.34 C291.8631,24.3 292.3131,22.56 293.2131,21.12 C294.1131,19.68 295.2531,18.51 296.6331,17.61 C298.0131,16.71 299.5131,16.05 301.1331,15.63 C302.7531,15.21 304.2831,15 305.7231,15 C308.1631,15 310.5831,15.36 312.9831,16.08 C315.3831,16.8 317.5431,17.8 319.4631,19.08 L312.9831,26.82 C311.9831,26.18 310.9631,25.68 309.9231,25.32 C308.8831,24.96 307.8631,24.78 306.8631,24.78 C306.1831,24.78 305.6231,24.87 305.1831,25.05 C304.7431,25.23 304.5231,25.58 304.5231,26.1 C304.5231,26.5 304.7731,26.81 305.2731,27.03 C305.7731,27.25 306.9231,27.54 308.7231,27.9 C309.9631,28.14 311.1731,28.51 312.3531,29.01 C313.5331,29.51 314.5931,30.15 315.5331,30.93 C316.4731,31.71 317.2231,32.66 317.7831,33.78 C318.3431,34.9 318.6231,36.22 318.6231,37.74 Z" id="Path"></path>
            <path d="M343.34541,27.78 C343.34541,26.66 342.93541,25.74 342.11541,25.02 C341.29541,24.3 340.18541,23.94 338.78541,23.94 C337.26541,23.94 336.08541,24.36 335.24541,25.2 C334.40541,26.04 333.92541,26.9 333.80541,27.78 L343.34541,27.78 Z M355.28541,32.28 C355.28541,32.8 355.27541,33.33 355.25541,33.87 C355.23541,34.41 355.20541,34.86 355.16541,35.22 L333.92541,35.22 C333.96541,35.78 334.15541,36.28 334.49541,36.72 C334.83541,37.16 335.25541,37.54 335.75541,37.86 C336.25541,38.18 336.81541,38.42 337.43541,38.58 C338.05541,38.74 338.68541,38.82 339.32541,38.82 C340.60541,38.82 341.67541,38.59 342.53541,38.13 C343.39541,37.67 344.04541,37.16 344.48541,36.6 L354.32541,41.58 C352.92541,43.86 350.89541,45.66 348.23541,46.98 C345.57541,48.3 342.48541,48.96 338.96541,48.96 C336.68541,48.96 334.46541,48.6 332.30541,47.88 C330.14541,47.16 328.23541,46.09 326.57541,44.67 C324.91541,43.25 323.58541,41.48 322.58541,39.36 C321.58541,37.24 321.08541,34.78 321.08541,31.98 C321.08541,29.38 321.54541,27.03 322.46541,24.93 C323.38541,22.83 324.63541,21.05 326.21541,19.59 C327.79541,18.13 329.65541,17 331.79541,16.2 C333.93541,15.4 336.22541,15 338.66541,15 C341.14541,15 343.40541,15.43 345.44541,16.29 C347.48541,17.15 349.23541,18.35 350.69541,19.89 C352.15541,21.43 353.28541,23.26 354.08541,25.38 C354.88541,27.5 355.28541,29.8 355.28541,32.28 Z" id="Shape"></path>
            <path d="M358.94772,16.2 L372.26772,16.2 L372.26772,19.8 L372.38772,19.8 C373.06772,18.52 374.07772,17.46 375.41772,16.62 C376.75772,15.78 378.32772,15.36 380.12772,15.36 C381.20772,15.36 382.08772,15.46 382.76772,15.66 L381.68772,27.42 C381.24772,27.3 380.75772,27.21 380.21772,27.15 C379.67772,27.09 379.18772,27.06 378.74772,27.06 C376.94772,27.06 375.50772,27.58 374.42772,28.62 C373.34772,29.66 372.80772,30.94 372.80772,32.46 L372.80772,47.76 L358.94772,47.76 L358.94772,16.2 Z" id="Path"></path>
            <polygon id="Path" points="383.49003 16.2 398.85003 16.2 403.35003 33.24 403.59003 33.24 407.91003 16.2 422.73003 16.2 410.55003 47.76 395.49003 47.76"></polygon>
            <path d="M424.29234,16.2 L438.15234,16.2 L438.15234,47.76 L424.29234,47.76 L424.29234,16.2 Z M424.05234,7.08 C424.05234,6.12 424.24234,5.21 424.62234,4.35 C425.00234,3.49 425.52234,2.74 426.18234,2.1 C426.84234,1.46 427.61234,0.95 428.49234,0.57 C429.37234,0.19 430.31234,0 431.31234,0 C432.27234,0 433.17234,0.19 434.01234,0.57 C434.85234,0.95 435.60234,1.46 436.26234,2.1 C436.92234,2.74 437.44234,3.49 437.82234,4.35 C438.20234,5.21 438.39234,6.12 438.39234,7.08 C438.39234,8.08 438.20234,9.01 437.82234,9.87 C437.44234,10.73 436.92234,11.47 436.26234,12.09 C435.60234,12.71 434.85234,13.2 434.01234,13.56 C433.17234,13.92 432.27234,14.1 431.31234,14.1 C430.31234,14.1 429.37234,13.92 428.49234,13.56 C427.61234,13.2 426.84234,12.71 426.18234,12.09 C425.52234,11.47 425.00234,10.73 424.62234,9.87 C424.24234,9.01 424.05234,8.08 424.05234,7.08 Z" id="Shape"></path>
            <path d="M460.53465,48.96 C457.85465,48.96 455.39465,48.56 453.15465,47.76 C450.91465,46.96 448.97465,45.82 447.33465,44.34 C445.69465,42.86 444.41465,41.08 443.49465,39 C442.57465,36.92 442.11465,34.58 442.11465,31.98 C442.11465,29.42 442.58465,27.09 443.52465,24.99 C444.46465,22.89 445.77465,21.1 447.45465,19.62 C449.13465,18.14 451.10465,17 453.36465,16.2 C455.62465,15.4 458.07465,15 460.71465,15 C461.79465,15 462.88465,15.09 463.98465,15.27 C465.08465,15.45 466.14465,15.7 467.16465,16.02 C468.18465,16.34 469.12465,16.7 469.98465,17.1 C470.84465,17.5 471.57465,17.94 472.17465,18.42 L465.27465,28.38 C464.79465,27.82 464.16465,27.39 463.38465,27.09 C462.60465,26.79 461.85465,26.64 461.13465,26.64 C460.45465,26.64 459.79465,26.75 459.15465,26.97 C458.51465,27.19 457.94465,27.53 457.44465,27.99 C456.94465,28.45 456.53465,29.01 456.21465,29.67 C455.89465,30.33 455.73465,31.1 455.73465,31.98 C455.73465,32.86 455.89465,33.63 456.21465,34.29 C456.53465,34.95 456.94465,35.49 457.44465,35.91 C457.94465,36.33 458.51465,36.65 459.15465,36.87 C459.79465,37.09 460.45465,37.2 461.13465,37.2 C461.93465,37.2 462.71465,37.05 463.47465,36.75 C464.23465,36.45 464.85465,36.04 465.33465,35.52 L472.29465,45.24 C470.97465,46.28 469.26465,47.16 467.16465,47.88 C465.06465,48.6 462.85465,48.96 460.53465,48.96 Z" id="Path"></path>
            <path d="M494.73696,27.78 C494.73696,26.66 494.32696,25.74 493.50696,25.02 C492.68696,24.3 491.57696,23.94 490.17696,23.94 C488.65696,23.94 487.47696,24.36 486.63696,25.2 C485.79696,26.04 485.31696,26.9 485.19696,27.78 L494.73696,27.78 Z M506.67696,32.28 C506.67696,32.8 506.66696,33.33 506.64696,33.87 C506.62696,34.41 506.59696,34.86 506.55696,35.22 L485.31696,35.22 C485.35696,35.78 485.54696,36.28 485.88696,36.72 C486.22696,37.16 486.64696,37.54 487.14696,37.86 C487.64696,38.18 488.20696,38.42 488.82696,38.58 C489.44696,38.74 490.07696,38.82 490.71696,38.82 C491.99696,38.82 493.06696,38.59 493.92696,38.13 C494.78696,37.67 495.43696,37.16 495.87696,36.6 L505.71696,41.58 C504.31696,43.86 502.28696,45.66 499.62696,46.98 C496.96696,48.3 493.87696,48.96 490.35696,48.96 C488.07696,48.96 485.85696,48.6 483.69696,47.88 C481.53696,47.16 479.62696,46.09 477.96696,44.67 C476.30696,43.25 474.97696,41.48 473.97696,39.36 C472.97696,37.24 472.47696,34.78 472.47696,31.98 C472.47696,29.38 472.93696,27.03 473.85696,24.93 C474.77696,22.83 476.02696,21.05 477.60696,19.59 C479.18696,18.13 481.04696,17 483.18696,16.2 C485.32696,15.4 487.61696,15 490.05696,15 C492.53696,15 494.79696,15.43 496.83696,16.29 C498.87696,17.15 500.62696,18.35 502.08696,19.89 C503.54696,21.43 504.67696,23.26 505.47696,25.38 C506.27696,27.5 506.67696,29.8 506.67696,32.28 Z" id="Shape"></path>
            <path d="M536.19927,37.74 C536.19927,39.86 535.74927,41.64 534.84927,43.08 C533.94927,44.52 532.80927,45.67 531.42927,46.53 C530.04927,47.39 528.53927,48.01 526.89927,48.39 C525.25927,48.77 523.69927,48.96 522.21927,48.96 C519.49927,48.96 516.82927,48.57 514.20927,47.79 C511.58927,47.01 509.31927,45.9 507.39927,44.46 L514.17927,36.6 C515.13927,37.48 516.26927,38.19 517.56927,38.73 C518.86927,39.27 520.11927,39.54 521.31927,39.54 C521.79927,39.54 522.24927,39.45 522.66927,39.27 C523.08927,39.09 523.29927,38.76 523.29927,38.28 C523.29927,37.76 522.92927,37.35 522.18927,37.05 C521.44927,36.75 520.15927,36.38 518.31927,35.94 C517.31927,35.7 516.29927,35.35 515.25927,34.89 C514.21927,34.43 513.26927,33.82 512.40927,33.06 C511.54927,32.3 510.83927,31.37 510.27927,30.27 C509.71927,29.17 509.43927,27.86 509.43927,26.34 C509.43927,24.3 509.88927,22.56 510.78927,21.12 C511.68927,19.68 512.82927,18.51 514.20927,17.61 C515.58927,16.71 517.08927,16.05 518.70927,15.63 C520.32927,15.21 521.85927,15 523.29927,15 C525.73927,15 528.15927,15.36 530.55927,16.08 C532.95927,16.8 535.11927,17.8 537.03927,19.08 L530.55927,26.82 C529.55927,26.18 528.53927,25.68 527.49927,25.32 C526.45927,24.96 525.43927,24.78 524.43927,24.78 C523.75927,24.78 523.19927,24.87 522.75927,25.05 C522.31927,25.23 522.09927,25.58 522.09927,26.1 C522.09927,26.5 522.34927,26.81 522.84927,27.03 C523.34927,27.25 524.49927,27.54 526.29927,27.9 C527.53927,28.14 528.74927,28.51 529.92927,29.01 C531.10927,29.51 532.16927,30.15 533.10927,30.93 C534.04927,31.71 534.79927,32.66 535.35927,33.78 C535.91927,34.9 536.19927,36.22 536.19927,37.74 Z" id="Path"></path>
            <path d="M23.52,120.84 C20.16,120.84 17.05,120.32 14.19,119.28 C11.33,118.24 8.85,116.75 6.75,114.81 C4.65,112.87 3,110.52 1.8,107.76 C0.6,105 0,101.92 0,98.52 C0,95.12 0.6,92.04 1.8,89.28 C3,86.52 4.64,84.16 6.72,82.2 C8.8,80.24 11.24,78.73 14.04,77.67 C16.84,76.61 19.84,76.08 23.04,76.08 C26.36,76.08 29.51,76.62 32.49,77.7 C35.47,78.78 37.9,80.26 39.78,82.14 L31.44,92.16 C30.56,91.12 29.52,90.29 28.32,89.67 C27.12,89.05 25.64,88.74 23.88,88.74 C22.72,88.74 21.59,88.97 20.49,89.43 C19.39,89.89 18.42,90.55 17.58,91.41 C16.74,92.27 16.06,93.3 15.54,94.5 C15.02,95.7 14.76,97.04 14.76,98.52 C14.76,101.48 15.53,103.89 17.07,105.75 C18.61,107.61 21.08,108.54 24.48,108.54 C25.08,108.54 25.7,108.49 26.34,108.39 C26.98,108.29 27.48,108.14 27.84,107.94 L27.84,104.7 L21,104.7 L21,93.48 L40.5,93.48 L40.5,116.7 C39.5,117.3 38.35,117.85 37.05,118.35 C35.75,118.85 34.37,119.28 32.91,119.64 C31.45,120 29.92,120.29 28.32,120.51 C26.72,120.73 25.12,120.84 23.52,120.84 Z" id="Path"></path>
            <path d="M62.52231,106.68 C60.48231,106.68 58.84231,106.9 57.60231,107.34 C56.36231,107.78 55.74231,108.6 55.74231,109.8 C55.74231,110.24 55.84231,110.61 56.04231,110.91 C56.24231,111.21 56.50231,111.46 56.82231,111.66 C57.14231,111.86 57.49231,112.01 57.87231,112.11 C58.25231,112.21 58.60231,112.26 58.92231,112.26 C60.24231,112.26 61.30231,111.84 62.10231,111 C62.90231,110.16 63.30231,109.08 63.30231,107.76 L63.30231,106.68 L62.52231,106.68 Z M62.40231,99.72 C62.40231,98.76 62.07231,98.05 61.41231,97.59 C60.75231,97.13 59.88231,96.9 58.80231,96.9 C57.52231,96.9 56.31231,97.17 55.17231,97.71 C54.03231,98.25 53.02231,98.88 52.14231,99.6 L45.24231,92.76 C47.16231,90.92 49.44231,89.5 52.08231,88.5 C54.72231,87.5 57.44231,87 60.24231,87 C63.24231,87 65.72231,87.42 67.68231,88.26 C69.64231,89.1 71.19231,90.26 72.33231,91.74 C73.47231,93.22 74.27231,94.94 74.73231,96.9 C75.19231,98.86 75.42231,100.94 75.42231,103.14 L75.42231,119.76 L62.88231,119.76 L62.88231,117.24 L62.76231,117.24 C61.96231,118.44 60.82231,119.3 59.34231,119.82 C57.86231,120.34 56.42231,120.6 55.02231,120.6 C53.78231,120.6 52.51231,120.42 51.21231,120.06 C49.91231,119.7 48.73231,119.12 47.67231,118.32 C46.61231,117.52 45.74231,116.48 45.06231,115.2 C44.38231,113.92 44.04231,112.34 44.04231,110.46 C44.04231,108.26 44.61231,106.47 45.75231,105.09 C46.89231,103.71 48.34231,102.63 50.10231,101.85 C51.86231,101.07 53.83231,100.54 56.01231,100.26 C58.19231,99.98 60.32231,99.84 62.40231,99.84 L62.40231,99.72 Z" id="Shape"></path>
            <path d="M93.06462,120.6 C88.82462,120.6 85.68462,119.69 83.64462,117.87 C81.60462,116.05 80.58462,113.22 80.58462,109.38 L80.58462,98.1 L76.14462,98.1 L76.14462,88.2 L80.52462,88.2 L80.52462,81.12 L93.96462,81.12 L93.96462,88.2 L100.80462,88.2 L100.80462,98.1 L93.96462,98.1 L93.96462,106.5 C93.96462,108.02 94.29462,109.05 94.95462,109.59 C95.61462,110.13 96.52462,110.4 97.68462,110.4 C98.12462,110.4 98.58462,110.36 99.06462,110.28 C99.54462,110.2 99.92462,110.12 100.20462,110.04 L100.20462,119.52 C99.48462,119.84 98.47462,120.1 97.17462,120.3 C95.87462,120.5 94.50462,120.6 93.06462,120.6 Z" id="Path"></path>
            <path d="M124.38693,99.78 C124.38693,98.66 123.97693,97.74 123.15693,97.02 C122.33693,96.3 121.22693,95.94 119.82693,95.94 C118.30693,95.94 117.12693,96.36 116.28693,97.2 C115.44693,98.04 114.96693,98.9 114.84693,99.78 L124.38693,99.78 Z M136.32693,104.28 C136.32693,104.8 136.31693,105.33 136.29693,105.87 C136.27693,106.41 136.24693,106.86 136.20693,107.22 L114.96693,107.22 C115.00693,107.78 115.19693,108.28 115.53693,108.72 C115.87693,109.16 116.29693,109.54 116.79693,109.86 C117.29693,110.18 117.85693,110.42 118.47693,110.58 C119.09693,110.74 119.72693,110.82 120.36693,110.82 C121.64693,110.82 122.71693,110.59 123.57693,110.13 C124.43693,109.67 125.08693,109.16 125.52693,108.6 L135.36693,113.58 C133.96693,115.86 131.93693,117.66 129.27693,118.98 C126.61693,120.3 123.52693,120.96 120.00693,120.96 C117.72693,120.96 115.50693,120.6 113.34693,119.88 C111.18693,119.16 109.27693,118.09 107.61693,116.67 C105.95693,115.25 104.62693,113.48 103.62693,111.36 C102.62693,109.24 102.12693,106.78 102.12693,103.98 C102.12693,101.38 102.58693,99.03 103.50693,96.93 C104.42693,94.83 105.67693,93.05 107.25693,91.59 C108.83693,90.13 110.69693,89 112.83693,88.2 C114.97693,87.4 117.26693,87 119.70693,87 C122.18693,87 124.44693,87.43 126.48693,88.29 C128.52693,89.15 130.27693,90.35 131.73693,91.89 C133.19693,93.43 134.32693,95.26 135.12693,97.38 C135.92693,99.5 136.32693,101.8 136.32693,104.28 Z" id="Shape"></path>
            <polygon id="Path" points="161.04924 119.76 147.30924 119.76 136.50924 88.2 151.32924 88.2 155.28924 104.52 155.52924 104.52 159.60924 88.2 172.92924 88.2 177.30924 104.52 177.48924 104.52 181.32924 88.2 195.48924 88.2 184.56924 119.76 170.76924 119.76 165.90924 103.56 165.78924 103.56"></polygon>
            <path d="M214.03155,106.68 C211.99155,106.68 210.35155,106.9 209.11155,107.34 C207.87155,107.78 207.25155,108.6 207.25155,109.8 C207.25155,110.24 207.35155,110.61 207.55155,110.91 C207.75155,111.21 208.01155,111.46 208.33155,111.66 C208.65155,111.86 209.00155,112.01 209.38155,112.11 C209.76155,112.21 210.11155,112.26 210.43155,112.26 C211.75155,112.26 212.81155,111.84 213.61155,111 C214.41155,110.16 214.81155,109.08 214.81155,107.76 L214.81155,106.68 L214.03155,106.68 Z M213.91155,99.72 C213.91155,98.76 213.58155,98.05 212.92155,97.59 C212.26155,97.13 211.39155,96.9 210.31155,96.9 C209.03155,96.9 207.82155,97.17 206.68155,97.71 C205.54155,98.25 204.53155,98.88 203.65155,99.6 L196.75155,92.76 C198.67155,90.92 200.95155,89.5 203.59155,88.5 C206.23155,87.5 208.95155,87 211.75155,87 C214.75155,87 217.23155,87.42 219.19155,88.26 C221.15155,89.1 222.70155,90.26 223.84155,91.74 C224.98155,93.22 225.78155,94.94 226.24155,96.9 C226.70155,98.86 226.93155,100.94 226.93155,103.14 L226.93155,119.76 L214.39155,119.76 L214.39155,117.24 L214.27155,117.24 C213.47155,118.44 212.33155,119.3 210.85155,119.82 C209.37155,120.34 207.93155,120.6 206.53155,120.6 C205.29155,120.6 204.02155,120.42 202.72155,120.06 C201.42155,119.7 200.24155,119.12 199.18155,118.32 C198.12155,117.52 197.25155,116.48 196.57155,115.2 C195.89155,113.92 195.55155,112.34 195.55155,110.46 C195.55155,108.26 196.12155,106.47 197.26155,105.09 C198.40155,103.71 199.85155,102.63 201.61155,101.85 C203.37155,101.07 205.34155,100.54 207.52155,100.26 C209.70155,99.98 211.83155,99.84 213.91155,99.84 L213.91155,99.72 Z" id="Shape"></path>
            <path d="M240.55386,118.56 L227.77386,88.2 L243.13386,88.2 L247.81386,104.82 L248.05386,104.82 L252.19386,88.2 L267.01386,88.2 L254.05386,121.68 C253.29386,123.64 252.43386,125.39 251.47386,126.93 C250.51386,128.47 249.39386,129.78 248.11386,130.86 C246.83386,131.94 245.32386,132.76 243.58386,133.32 C241.84386,133.88 239.81386,134.16 237.49386,134.16 C236.77386,134.16 236.03386,134.13 235.27386,134.07 C234.51386,134.01 233.78386,133.93 233.08386,133.83 C232.38386,133.73 231.73386,133.63 231.13386,133.53 C230.53386,133.43 230.03386,133.32 229.63386,133.2 L231.37386,121.8 C231.89386,122 232.52386,122.17 233.26386,122.31 C234.00386,122.45 234.67386,122.52 235.27386,122.52 C236.79386,122.52 237.92386,122.21 238.66386,121.59 C239.40386,120.97 239.95386,120.18 240.31386,119.22 L240.55386,118.56 Z" id="Path"></path>
        </g>
        <g id="JWT-Authorization" transform="translate(60.1, 233.24)" fill="#FFFFFF" fill-rule="nonzero">
            <path d="M15.78,48.96 C13.86,48.96 12.04,48.68 10.32,48.12 C8.6,47.56 7.05,46.8 5.67,45.84 C4.29,44.88 3.1,43.74 2.1,42.42 C1.1,41.1 0.4,39.68 0,38.16 L12.24,33.48 C12.4,34.12 12.69,34.69 13.11,35.19 C13.53,35.69 14.1,35.94 14.82,35.94 C15.74,35.94 16.36,35.63 16.68,35.01 C17,34.39 17.16,33.6 17.16,32.64 L17.16,5.28 L31.5,5.28 L31.5,32.04 C31.5,33.96 31.29,35.92 30.87,37.92 C30.45,39.92 29.66,41.74 28.5,43.38 C27.34,45.02 25.74,46.36 23.7,47.4 C21.66,48.44 19.02,48.96 15.78,48.96 Z" id="Path"></path>
            <polygon id="Path" points="60.06231 47.76 45.66231 47.76 34.08231 5.28 49.20231 5.28 53.76231 29.16 54.00231 29.16 58.92231 5.28 73.86231 5.28 79.20231 29.16 79.44231 29.16 84.06231 5.28 98.70231 5.28 86.88231 47.76 72.48231 47.76 66.48231 23.76 66.24231 23.76"></polygon>
            <polygon id="Path" points="122.64462 47.76 108.36462 47.76 108.36462 17.34 97.92462 17.34 97.92462 5.28 133.08462 5.28 133.08462 17.34 122.64462 17.34"></polygon>
            <path d="M159.36924,5.28 L174.54924,5.28 L191.10924,47.76 L175.56924,47.76 L173.34924,41.52 L159.84924,41.52 L157.74924,47.76 L142.62924,47.76 L159.36924,5.28 Z M166.74924,20.1 L163.26924,30.6 L170.16924,30.6 L166.74924,20.1 Z" id="Shape"></path>
            <path d="M225.55155,47.76 L212.05155,47.76 L212.05155,44.28 L211.93155,44.28 C211.13155,45.44 209.94155,46.45 208.36155,47.31 C206.78155,48.17 204.97155,48.6 202.93155,48.6 C200.69155,48.6 198.85155,48.21 197.41155,47.43 C195.97155,46.65 194.82155,45.63 193.96155,44.37 C193.10155,43.11 192.50155,41.69 192.16155,40.11 C191.82155,38.53 191.65155,36.96 191.65155,35.4 L191.65155,16.2 L205.57155,16.2 L205.57155,32.88 C205.57155,34.48 205.82155,35.6 206.32155,36.24 C206.82155,36.88 207.57155,37.2 208.57155,37.2 C209.49155,37.2 210.24155,36.83 210.82155,36.09 C211.40155,35.35 211.69155,34.28 211.69155,32.88 L211.69155,16.2 L225.55155,16.2 L225.55155,47.76 Z" id="Path"></path>
            <path d="M244.45386,48.6 C240.21386,48.6 237.07386,47.69 235.03386,45.87 C232.99386,44.05 231.97386,41.22 231.97386,37.38 L231.97386,26.1 L227.53386,26.1 L227.53386,16.2 L231.91386,16.2 L231.91386,9.12 L245.35386,9.12 L245.35386,16.2 L252.19386,16.2 L252.19386,26.1 L245.35386,26.1 L245.35386,34.5 C245.35386,36.02 245.68386,37.05 246.34386,37.59 C247.00386,38.13 247.91386,38.4 249.07386,38.4 C249.51386,38.4 249.97386,38.36 250.45386,38.28 C250.93386,38.2 251.31386,38.12 251.59386,38.04 L251.59386,47.52 C250.87386,47.84 249.86386,48.1 248.56386,48.3 C247.26386,48.5 245.89386,48.6 244.45386,48.6 Z" id="Path"></path>
            <path d="M277.39617,15.36 C279.59617,15.36 281.42617,15.76 282.88617,16.56 C284.34617,17.36 285.50617,18.39 286.36617,19.65 C287.22617,20.91 287.82617,22.32 288.16617,23.88 C288.50617,25.44 288.67617,27 288.67617,28.56 L288.67617,47.76 L274.75617,47.76 L274.75617,30.96 C274.75617,29.36 274.50617,28.24 274.00617,27.6 C273.50617,26.96 272.75617,26.64 271.75617,26.64 C270.95617,26.64 270.23617,26.99 269.59617,27.69 C268.95617,28.39 268.63617,29.5 268.63617,31.02 L268.63617,47.76 L254.77617,47.76 L254.77617,2.4 L268.63617,2.4 L268.63617,19.68 L268.75617,19.68 C269.55617,18.52 270.69617,17.51 272.17617,16.65 C273.65617,15.79 275.39617,15.36 277.39617,15.36 Z" id="Path"></path>
            <path d="M328.27848,31.86 C328.27848,34.58 327.78848,37 326.80848,39.12 C325.82848,41.24 324.50848,43.03 322.84848,44.49 C321.18848,45.95 319.26848,47.06 317.08848,47.82 C314.90848,48.58 312.61848,48.96 310.21848,48.96 C307.85848,48.96 305.58848,48.58 303.40848,47.82 C301.22848,47.06 299.31848,45.95 297.67848,44.49 C296.03848,43.03 294.72848,41.24 293.74848,39.12 C292.76848,37 292.27848,34.58 292.27848,31.86 C292.27848,29.18 292.76848,26.79 293.74848,24.69 C294.72848,22.59 296.03848,20.82 297.67848,19.38 C299.31848,17.94 301.22848,16.85 303.40848,16.11 C305.58848,15.37 307.85848,15 310.21848,15 C312.61848,15 314.90848,15.37 317.08848,16.11 C319.26848,16.85 321.18848,17.94 322.84848,19.38 C324.50848,20.82 325.82848,22.59 326.80848,24.69 C327.78848,26.79 328.27848,29.18 328.27848,31.86 Z M310.21848,26.64 C308.69848,26.64 307.46848,27.16 306.52848,28.2 C305.58848,29.24 305.11848,30.46 305.11848,31.86 C305.11848,33.34 305.59848,34.6 306.55848,35.64 C307.51848,36.68 308.75848,37.2 310.27848,37.2 C311.79848,37.2 313.03848,36.68 313.99848,35.64 C314.95848,34.6 315.43848,33.34 315.43848,31.86 C315.43848,30.46 314.94848,29.24 313.96848,28.2 C312.98848,27.16 311.73848,26.64 310.21848,26.64 Z" id="Shape"></path>
            <path d="M332.18079,16.2 L345.50079,16.2 L345.50079,19.8 L345.62079,19.8 C346.30079,18.52 347.31079,17.46 348.65079,16.62 C349.99079,15.78 351.56079,15.36 353.36079,15.36 C354.44079,15.36 355.32079,15.46 356.00079,15.66 L354.92079,27.42 C354.48079,27.3 353.99079,27.21 353.45079,27.15 C352.91079,27.09 352.42079,27.06 351.98079,27.06 C350.18079,27.06 348.74079,27.58 347.66079,28.62 C346.58079,29.66 346.04079,30.94 346.04079,32.46 L346.04079,47.76 L332.18079,47.76 L332.18079,16.2 Z" id="Path"></path>
            <path d="M357.7431,16.2 L371.6031,16.2 L371.6031,47.76 L357.7431,47.76 L357.7431,16.2 Z M357.5031,7.08 C357.5031,6.12 357.6931,5.21 358.0731,4.35 C358.4531,3.49 358.9731,2.74 359.6331,2.1 C360.2931,1.46 361.0631,0.95 361.9431,0.57 C362.8231,0.19 363.7631,-4.54747351e-13 364.7631,-4.54747351e-13 C365.7231,-4.54747351e-13 366.6231,0.19 367.4631,0.57 C368.3031,0.95 369.0531,1.46 369.7131,2.1 C370.3731,2.74 370.8931,3.49 371.2731,4.35 C371.6531,5.21 371.8431,6.12 371.8431,7.08 C371.8431,8.08 371.6531,9.01 371.2731,9.87 C370.8931,10.73 370.3731,11.47 369.7131,12.09 C369.0531,12.71 368.3031,13.2 367.4631,13.56 C366.6231,13.92 365.7231,14.1 364.7631,14.1 C363.7631,14.1 362.8231,13.92 361.9431,13.56 C361.0631,13.2 360.2931,12.71 359.6331,12.09 C358.9731,11.47 358.4531,10.73 358.0731,9.87 C357.6931,9.01 357.5031,8.08 357.5031,7.08 Z" id="Shape"></path>
            <polygon id="Path" points="375.62541 38.1 387.44541 26.46 375.92541 26.46 375.92541 16.2 404.66541 16.2 404.66541 25.2 391.88541 37.5 405.02541 37.5 405.02541 47.76 375.62541 47.76"></polygon>
            <path d="M425.90772,34.68 C423.86772,34.68 422.22772,34.9 420.98772,35.34 C419.74772,35.78 419.12772,36.6 419.12772,37.8 C419.12772,38.24 419.22772,38.61 419.42772,38.91 C419.62772,39.21 419.88772,39.46 420.20772,39.66 C420.52772,39.86 420.87772,40.01 421.25772,40.11 C421.63772,40.21 421.98772,40.26 422.30772,40.26 C423.62772,40.26 424.68772,39.84 425.48772,39 C426.28772,38.16 426.68772,37.08 426.68772,35.76 L426.68772,34.68 L425.90772,34.68 Z M425.78772,27.72 C425.78772,26.76 425.45772,26.05 424.79772,25.59 C424.13772,25.13 423.26772,24.9 422.18772,24.9 C420.90772,24.9 419.69772,25.17 418.55772,25.71 C417.41772,26.25 416.40772,26.88 415.52772,27.6 L408.62772,20.76 C410.54772,18.92 412.82772,17.5 415.46772,16.5 C418.10772,15.5 420.82772,15 423.62772,15 C426.62772,15 429.10772,15.42 431.06772,16.26 C433.02772,17.1 434.57772,18.26 435.71772,19.74 C436.85772,21.22 437.65772,22.94 438.11772,24.9 C438.57772,26.86 438.80772,28.94 438.80772,31.14 L438.80772,47.76 L426.26772,47.76 L426.26772,45.24 L426.14772,45.24 C425.34772,46.44 424.20772,47.3 422.72772,47.82 C421.24772,48.34 419.80772,48.6 418.40772,48.6 C417.16772,48.6 415.89772,48.42 414.59772,48.06 C413.29772,47.7 412.11772,47.12 411.05772,46.32 C409.99772,45.52 409.12772,44.48 408.44772,43.2 C407.76772,41.92 407.42772,40.34 407.42772,38.46 C407.42772,36.26 407.99772,34.47 409.13772,33.09 C410.27772,31.71 411.72772,30.63 413.48772,29.85 C415.24772,29.07 417.21772,28.54 419.39772,28.26 C421.57772,27.98 423.70772,27.84 425.78772,27.84 L425.78772,27.72 Z" id="Shape"></path>
            <path d="M456.45003,48.6 C452.21003,48.6 449.07003,47.69 447.03003,45.87 C444.99003,44.05 443.97003,41.22 443.97003,37.38 L443.97003,26.1 L439.53003,26.1 L439.53003,16.2 L443.91003,16.2 L443.91003,9.12 L457.35003,9.12 L457.35003,16.2 L464.19003,16.2 L464.19003,26.1 L457.35003,26.1 L457.35003,34.5 C457.35003,36.02 457.68003,37.05 458.34003,37.59 C459.00003,38.13 459.91003,38.4 461.07003,38.4 C461.51003,38.4 461.97003,38.36 462.45003,38.28 C462.93003,38.2 463.31003,38.12 463.59003,38.04 L463.59003,47.52 C462.87003,47.84 461.86003,48.1 460.56003,48.3 C459.26003,48.5 457.89003,48.6 456.45003,48.6 Z" id="Path"></path>
            <path d="M466.83234,16.2 L480.69234,16.2 L480.69234,47.76 L466.83234,47.76 L466.83234,16.2 Z M466.59234,7.08 C466.59234,6.12 466.78234,5.21 467.16234,4.35 C467.54234,3.49 468.06234,2.74 468.72234,2.1 C469.38234,1.46 470.15234,0.95 471.03234,0.57 C471.91234,0.19 472.85234,-4.54747351e-13 473.85234,-4.54747351e-13 C474.81234,-4.54747351e-13 475.71234,0.19 476.55234,0.57 C477.39234,0.95 478.14234,1.46 478.80234,2.1 C479.46234,2.74 479.98234,3.49 480.36234,4.35 C480.74234,5.21 480.93234,6.12 480.93234,7.08 C480.93234,8.08 480.74234,9.01 480.36234,9.87 C479.98234,10.73 479.46234,11.47 478.80234,12.09 C478.14234,12.71 477.39234,13.2 476.55234,13.56 C475.71234,13.92 474.81234,14.1 473.85234,14.1 C472.85234,14.1 471.91234,13.92 471.03234,13.56 C470.15234,13.2 469.38234,12.71 468.72234,12.09 C468.06234,11.47 467.54234,10.73 467.16234,9.87 C466.78234,9.01 466.59234,8.08 466.59234,7.08 Z" id="Shape"></path>
            <path d="M520.65465,31.86 C520.65465,34.58 520.16465,37 519.18465,39.12 C518.20465,41.24 516.88465,43.03 515.22465,44.49 C513.56465,45.95 511.64465,47.06 509.46465,47.82 C507.28465,48.58 504.99465,48.96 502.59465,48.96 C500.23465,48.96 497.96465,48.58 495.78465,47.82 C493.60465,47.06 491.69465,45.95 490.05465,44.49 C488.41465,43.03 487.10465,41.24 486.12465,39.12 C485.14465,37 484.65465,34.58 484.65465,31.86 C484.65465,29.18 485.14465,26.79 486.12465,24.69 C487.10465,22.59 488.41465,20.82 490.05465,19.38 C491.69465,17.94 493.60465,16.85 495.78465,16.11 C497.96465,15.37 500.23465,15 502.59465,15 C504.99465,15 507.28465,15.37 509.46465,16.11 C511.64465,16.85 513.56465,17.94 515.22465,19.38 C516.88465,20.82 518.20465,22.59 519.18465,24.69 C520.16465,26.79 520.65465,29.18 520.65465,31.86 Z M502.59465,26.64 C501.07465,26.64 499.84465,27.16 498.90465,28.2 C497.96465,29.24 497.49465,30.46 497.49465,31.86 C497.49465,33.34 497.97465,34.6 498.93465,35.64 C499.89465,36.68 501.13465,37.2 502.65465,37.2 C504.17465,37.2 505.41465,36.68 506.37465,35.64 C507.33465,34.6 507.81465,33.34 507.81465,31.86 C507.81465,30.46 507.32465,29.24 506.34465,28.2 C505.36465,27.16 504.11465,26.64 502.59465,26.64 Z" id="Shape"></path>
            <path d="M524.55696,16.2 L538.05696,16.2 L538.05696,19.68 L538.17696,19.68 C538.97696,18.52 540.16696,17.51 541.74696,16.65 C543.32696,15.79 545.13696,15.36 547.17696,15.36 C549.37696,15.36 551.20696,15.76 552.66696,16.56 C554.12696,17.36 555.28696,18.39 556.14696,19.65 C557.00696,20.91 557.60696,22.32 557.94696,23.88 C558.28696,25.44 558.45696,27 558.45696,28.56 L558.45696,47.76 L544.53696,47.76 L544.53696,30.96 C544.53696,29.36 544.28696,28.24 543.78696,27.6 C543.28696,26.96 542.53696,26.64 541.53696,26.64 C540.61696,26.64 539.86696,27.01 539.28696,27.75 C538.70696,28.49 538.41696,29.56 538.41696,30.96 L538.41696,47.76 L524.55696,47.76 L524.55696,16.2 Z" id="Path"></path>
        </g>
        <g id="Tutorial-Copy" transform="translate(149.176, 58.736)" fill="#FFFFFF" fill-rule="nonzero">
            <polygon id="Path" points="9.548 6.952 0 6.952 0 2.112 24.64 2.112 24.64 6.952 15.092 6.952 15.092 33.264 9.548 33.264"></polygon>
            <path d="M43.385014,33.264 L38.369014,33.264 L38.369014,29.876 L38.281014,29.876 C37.8116807,30.932 36.9976807,31.8633333 35.839014,32.67 C34.6803473,33.4766667 33.309014,33.88 31.725014,33.88 C30.3463473,33.88 29.1656807,33.638 28.183014,33.154 C27.2003473,32.67 26.3936807,32.032 25.763014,31.24 C25.1323473,30.448 24.6703473,29.5386667 24.377014,28.512 C24.0836807,27.4853333 23.937014,26.4293333 23.937014,25.344 L23.937014,12.144 L29.217014,12.144 L29.217014,23.848 C29.217014,24.464 29.261014,25.1093333 29.349014,25.784 C29.437014,26.4586667 29.6276807,27.0673333 29.921014,27.61 C30.2143473,28.1526667 30.6176807,28.6 31.131014,28.952 C31.6443473,29.304 32.3263473,29.48 33.177014,29.48 C33.9983473,29.48 34.7243473,29.3113333 35.355014,28.974 C35.9856807,28.6366667 36.499014,28.204 36.895014,27.676 C37.291014,27.148 37.5916807,26.5393333 37.797014,25.85 C38.0023473,25.1606667 38.105014,24.464 38.105014,23.76 L38.105014,12.144 L43.385014,12.144 L43.385014,33.264 Z" id="Path"></path>
            <path d="M46.774028,16.368 L46.774028,12.144 L50.470028,12.144 L50.470028,6.028 L55.662028,6.028 L55.662028,12.144 L60.942028,12.144 L60.942028,16.368 L55.662028,16.368 L55.662028,26.18 C55.662028,27.1186667 55.8306947,27.896 56.168028,28.512 C56.5053613,29.128 57.2606947,29.436 58.434028,29.436 C58.786028,29.436 59.1673613,29.3993333 59.578028,29.326 C59.9886947,29.2526667 60.3553613,29.1426667 60.678028,28.996 L60.854028,33.132 C60.3846947,33.308 59.8273613,33.4473333 59.182028,33.55 C58.5366947,33.6526667 57.9206947,33.704 57.334028,33.704 C55.926028,33.704 54.782028,33.506 53.902028,33.11 C53.022028,32.714 52.3253613,32.1713333 51.812028,31.482 C51.2986947,30.7926667 50.9466947,30.0006667 50.756028,29.106 C50.5653613,28.2113333 50.470028,27.2506667 50.470028,26.224 L50.470028,16.368 L46.774028,16.368 Z" id="Path"></path>
            <path d="M63.627042,22.616 C63.627042,20.944 63.9277087,19.426 64.529042,18.062 C65.1303753,16.698 65.9443753,15.532 66.971042,14.564 C67.9977087,13.596 69.215042,12.848 70.623042,12.32 C72.031042,11.792 73.527042,11.528 75.111042,11.528 C76.695042,11.528 78.191042,11.792 79.599042,12.32 C81.007042,12.848 82.2243753,13.596 83.251042,14.564 C84.2777087,15.532 85.0917087,16.698 85.693042,18.062 C86.2943753,19.426 86.595042,20.944 86.595042,22.616 C86.595042,24.288 86.2943753,25.8133333 85.693042,27.192 C85.0917087,28.5706667 84.2777087,29.7513333 83.251042,30.734 C82.2243753,31.7166667 81.007042,32.4866667 79.599042,33.044 C78.191042,33.6013333 76.695042,33.88 75.111042,33.88 C73.527042,33.88 72.031042,33.6013333 70.623042,33.044 C69.215042,32.4866667 67.9977087,31.7166667 66.971042,30.734 C65.9443753,29.7513333 65.1303753,28.5706667 64.529042,27.192 C63.9277087,25.8133333 63.627042,24.288 63.627042,22.616 Z M68.995042,22.616 C68.995042,23.4373333 69.1197087,24.2586667 69.369042,25.08 C69.6183753,25.9013333 69.9923753,26.6346667 70.491042,27.28 C70.9897087,27.9253333 71.6203753,28.4533333 72.383042,28.864 C73.1457087,29.2746667 74.055042,29.48 75.111042,29.48 C76.167042,29.48 77.0763753,29.2746667 77.839042,28.864 C78.6017087,28.4533333 79.2323753,27.9253333 79.731042,27.28 C80.2297087,26.6346667 80.6037087,25.9013333 80.853042,25.08 C81.1023753,24.2586667 81.227042,23.4373333 81.227042,22.616 C81.227042,21.7946667 81.1023753,20.9806667 80.853042,20.174 C80.6037087,19.3673333 80.2297087,18.6413333 79.731042,17.996 C79.2323753,17.3506667 78.6017087,16.83 77.839042,16.434 C77.0763753,16.038 76.167042,15.84 75.111042,15.84 C74.055042,15.84 73.1457087,16.038 72.383042,16.434 C71.6203753,16.83 70.9897087,17.3506667 70.491042,17.996 C69.9923753,18.6413333 69.6183753,19.3673333 69.369042,20.174 C69.1197087,20.9806667 68.995042,21.7946667 68.995042,22.616 Z" id="Shape"></path>
            <path d="M91.788056,12.144 L96.848056,12.144 L96.848056,15.664 L96.936056,15.664 C97.5227227,14.432 98.344056,13.4346667 99.400056,12.672 C100.456056,11.9093333 101.688056,11.528 103.096056,11.528 C103.301389,11.528 103.521389,11.5353333 103.756056,11.55 C103.990723,11.5646667 104.196056,11.6013333 104.372056,11.66 L104.372056,16.5 C104.020056,16.412 103.719389,16.3533333 103.470056,16.324 C103.220723,16.2946667 102.978723,16.28 102.744056,16.28 C101.541389,16.28 100.573389,16.5 99.840056,16.94 C99.1067227,17.38 98.5347227,17.908 98.124056,18.524 C97.7133893,19.14 97.4347227,19.7706667 97.288056,20.416 C97.1413893,21.0613333 97.068056,21.5746667 97.068056,21.956 L97.068056,33.264 L91.788056,33.264 L91.788056,12.144 Z" id="Path"></path>
            <path d="M107.98107,12.144 L113.26107,12.144 L113.26107,33.264 L107.98107,33.264 L107.98107,12.144 Z M107.23307,4.972 C107.23307,4.12133333 107.548403,3.38066667 108.17907,2.75 C108.809737,2.11933333 109.60907,1.804 110.57707,1.804 C111.54507,1.804 112.35907,2.10466667 113.01907,2.706 C113.67907,3.30733333 114.00907,4.06266667 114.00907,4.972 C114.00907,5.88133333 113.67907,6.63666667 113.01907,7.238 C112.35907,7.83933333 111.54507,8.14 110.57707,8.14 C109.60907,8.14 108.809737,7.82466667 108.17907,7.194 C107.548403,6.56333333 107.23307,5.82266667 107.23307,4.972 Z" id="Shape"></path>
            <path d="M132.886084,30.58 L132.754084,30.58 C132.226084,31.5186667 131.375417,32.2886667 130.202084,32.89 C129.028751,33.4913333 127.694084,33.792 126.198084,33.792 C125.347417,33.792 124.460084,33.682 123.536084,33.462 C122.612084,33.242 121.761417,32.8753333 120.984084,32.362 C120.206751,31.8486667 119.561417,31.174 119.048084,30.338 C118.534751,29.502 118.278084,28.468 118.278084,27.236 C118.278084,25.652 118.725417,24.3906667 119.620084,23.452 C120.514751,22.5133333 121.666084,21.7946667 123.074084,21.296 C124.482084,20.7973333 126.044084,20.4673333 127.760084,20.306 C129.476084,20.1446667 131.155417,20.064 132.798084,20.064 L132.798084,19.536 C132.798084,18.216 132.321417,17.2406667 131.368084,16.61 C130.414751,15.9793333 129.278084,15.664 127.958084,15.664 C126.843417,15.664 125.772751,15.8986667 124.746084,16.368 C123.719417,16.8373333 122.868751,17.4093333 122.194084,18.084 L119.466084,14.872 C120.668751,13.7573333 122.054751,12.9213333 123.624084,12.364 C125.193417,11.8066667 126.784751,11.528 128.398084,11.528 C130.275417,11.528 131.822751,11.792 133.040084,12.32 C134.257417,12.848 135.218084,13.5373333 135.922084,14.388 C136.626084,15.2386667 137.117417,16.192 137.396084,17.248 C137.674751,18.304 137.814084,19.36 137.814084,20.416 L137.814084,33.264 L132.886084,33.264 L132.886084,30.58 Z M132.798084,23.628 L131.610084,23.628 C130.759417,23.628 129.864751,23.6646667 128.926084,23.738 C127.987417,23.8113333 127.122084,23.9726667 126.330084,24.222 C125.538084,24.4713333 124.878084,24.8233333 124.350084,25.278 C123.822084,25.7326667 123.558084,26.356 123.558084,27.148 C123.558084,27.6466667 123.668084,28.0646667 123.888084,28.402 C124.108084,28.7393333 124.394084,29.0106667 124.746084,29.216 C125.098084,29.4213333 125.494084,29.568 125.934084,29.656 C126.374084,29.744 126.814084,29.788 127.254084,29.788 C129.072751,29.788 130.451417,29.304 131.390084,28.336 C132.328751,27.368 132.798084,26.048 132.798084,24.376 L132.798084,23.628 Z" id="Shape"></path>
            <polygon id="Path" points="144.151098 0 149.431098 0 149.431098 33.264 144.151098 33.264"></polygon>
        </g>
        <line x1="127.5" y1="44.5" x2="127.5" y2="110.5" id="Line" stroke="#979797" stroke-linecap="square"></line>
        <g id="logo-white-only-copy" transform="translate(46, 44)" fill="#FFFFFF" fill-rule="nonzero">
            <path d="M16.8593998,54.8071956 C14.6733354,53.556762 12.6785457,52.0010671 10.9358269,50.1875247 C10.4303973,50.8184813 9.81254937,51.3514138 9.1131891,51.759664 C8.72690631,51.9767304 8.31986807,52.1549791 7.89809722,52.2917727 C17.3268577,62.5392571 32.6059616,64.9718363 44.7761358,58.1631084 C45.3516137,57.8342447 45.7064658,57.2242112 45.7064658,56.563759 C45.7064658,55.9033068 45.3516137,55.2932733 44.7761358,54.9644096 L44.7761358,54.9644096 C44.2176509,54.6309624 43.5228373,54.619437 42.953498,54.9341761 C34.8458135,59.4908685 24.9219267,59.4425764 16.8593998,54.8071956 Z" id="Path"></path>
            <path d="M16.8533244,9.48120948 C19.0400884,8.22596222 21.3973339,7.29119476 23.8522536,6.7057789 C23.5472109,5.93553321 23.3905721,5.11502227 23.3905187,4.28710301 C23.3916603,3.84041633 23.4364241,3.39489765 23.5241788,2.95683127 C9.8973949,5.96832737 0.15089437,17.9259091 0,31.8176813 C0.00217312444,32.4776406 0.35737222,33.0864871 0.932179735,33.4155298 C1.50698725,33.7445725 2.21437394,33.7439924 2.78863586,33.4140074 L2.78863586,33.4140074 C3.3524863,33.0987095 3.70622586,32.5096343 3.71818115,31.8660548 C3.81752919,22.6194038 8.81034183,14.1106775 16.8533244,9.48120948 Z" id="Path"></path>
            <path d="M56.2891313,32.1442026 C56.2882866,34.656137 55.9240731,37.1548661 55.2076996,39.5634908 C56.0246738,39.6826687 56.8119125,39.9534107 57.5285251,40.3616539 C57.9130654,40.5806356 58.2770344,40.8336004 58.6160323,41.1174901 C62.7983265,27.8662429 57.2614397,13.4934202 45.2500216,6.42158448 C44.674745,6.12163384 43.9838983,6.14220383 43.4276669,6.47584515 C42.8714355,6.80948648 42.5304575,7.40783035 42.5281159,8.05419071 L42.5281159,8.05419071 C42.5214731,8.69651009 42.8565441,9.29448196 43.4091574,9.62633003 C51.3958065,14.3427064 56.2913251,22.901471 56.2891313,32.1442026 Z" id="Path"></path>
            <path d="M30.006694,19.7001136 C35.0643571,19.6976692 39.6253766,22.7280225 41.5625635,27.3778652 C43.4997505,32.0277078 42.4315218,37.3811232 38.8560827,40.9413611 C35.2806436,44.501599 29.9022769,45.5673711 25.2293697,43.6416176 C20.5564625,41.7158641 17.509474,37.1779162 17.509474,32.1442026 C17.5161659,25.2766436 23.1064637,19.7101132 30.006694,19.7001136 M30.006694,16.0055866 C21.0511752,16.0055866 13.7912928,23.2310917 13.7912928,32.1442026 C13.7912928,41.0573134 21.0511752,48.2828174 30.006694,48.2828174 C38.9622127,48.2828174 46.2220963,41.0573134 46.2220963,32.1442026 C46.2237075,27.863484 44.5158219,23.7576317 41.4744947,20.7307064 C38.4331675,17.7037811 34.3077798,16.0039829 30.006694,16.0055866 Z" id="Shape"></path>
            <ellipse id="Oval" cx="30.0006185" cy="4.30524308" rx="4.32572709" ry="4.30524308"></ellipse>
            <ellipse id="Oval" cx="5.77776189" cy="46.0576356" rx="4.32572709" ry="4.30524308"></ellipse>
            <ellipse id="Oval" cx="54.2234751" cy="46.0576356" rx="4.32572709" ry="4.30524308"></ellipse>
            <path d="M33.5912367,29.1994647 C33.5936071,27.4631612 32.339653,25.9772932 30.6208869,25.6797861 C28.9021208,25.382279 27.2177482,26.3595419 26.6309966,27.9946966 C26.044245,29.6298513 26.725533,31.4479767 28.2448107,32.3014165 L27.1147753,38.0034449 C27.0778143,38.1834665 27.125103,38.3704481 27.2432912,38.5116023 C27.3614793,38.6527565 27.5377433,38.7327677 27.7223212,38.7291719 L32.321444,38.7291719 C32.506022,38.7327677 32.6822859,38.6527565 32.8004741,38.5116023 C32.9186623,38.3704481 32.965951,38.1834665 32.9289899,38.0034449 L31.792879,32.3014165 C32.9090535,31.6643994 33.5956843,30.4800291 33.5912367,29.1994647 L33.5912367,29.1994647 Z" id="Path"></path>
        </g>
        <g id="Group-7" filter="url(#filter-2)" transform="translate(651, 64)">
            <rect id="Rectangle" fill="#FFFFFF" x="0" y="0" width="644" height="478" rx="20"></rect>
            <g id="catalog-flow" transform="translate(38, 32)" fill-rule="nonzero">
                <line x1="42.5" y1="41" x2="42.5" y2="370" id="Path" stroke="#CDCDCD" stroke-width="1.08" fill="#000000" stroke-dasharray="5.4,5.4"></line>
                <line x1="198.5" y1="41" x2="198.5" y2="370" id="Path" stroke="#CDCDCD" stroke-width="1.08" fill="#000000" stroke-dasharray="5.4,5.4"></line>
                <line x1="402.5" y1="41" x2="402.5" y2="370" id="Path" stroke="#CDCDCD" stroke-width="1.08" fill="#000000" stroke-dasharray="5.4,5.4"></line>
                <rect id="Rectangle" stroke="#979797" stroke-width="1.08" fill="#D8D8D8" x="0" y="0" width="85" height="40" rx="4.32"></rect>
                <text id="API-client" fill="#000000" font-family="Helvetica" font-size="15.12" font-weight="normal">
                    <tspan x="9" y="25">API client</tspan>
                </text>
                <rect id="Rectangle" stroke="#979797" stroke-width="1.08" fill="#D8D8D8" x="0" y="369" width="85" height="40" rx="4.32"></rect>
                <text id="API-client" fill="#000000" font-family="Helvetica" font-size="15.12" font-weight="normal">
                    <tspan x="9" y="394">API client</tspan>
                </text>
                <rect id="Rectangle" stroke="#979797" stroke-width="1.08" fill="#D8D8D8" x="158" y="0" width="82" height="40" rx="4.32"></rect>
                <text id="Gateway" fill="#000000" font-family="Helvetica" font-size="15.12" font-weight="normal">
                    <tspan x="167" y="25">Gateway</tspan>
                </text>
                <rect id="Rectangle" stroke="#979797" stroke-width="1.08" fill="#D8D8D8" x="158" y="369" width="82" height="40" rx="4.32"></rect>
                <text id="Gateway" fill="#000000" font-family="Helvetica" font-size="15.12" font-weight="normal">
                    <tspan x="167" y="394">Gateway</tspan>
                </text>
                <rect id="Rectangle" stroke="#979797" stroke-width="1.08" fill="#D8D8D8" x="360" y="0" width="85" height="40" rx="4.32"></rect>
                <text id="Products" fill="#000000" font-family="Helvetica" font-size="15.12" font-weight="normal">
                    <tspan x="370" y="25">Products</tspan>
                </text>
                <rect id="Rectangle" stroke="#979797" stroke-width="1.08" fill="#D8D8D8" x="360" y="369" width="85" height="40" rx="4.32"></rect>
                <text id="Products" fill="#000000" font-family="Helvetica" font-size="15.12" font-weight="normal">
                    <tspan x="370" y="394">Products</tspan>
                </text>
                <polygon id="Path" stroke="#56666F" stroke-width="1.08" fill="#56666F" points="187 78 197 82 187 86 191 82"></polygon>
                <line x1="42" y1="81.5" x2="193" y2="81.5" id="Path" stroke="#56666F" stroke-width="1.08" fill="#000000"></line>
                <text id="Request-products/1" fill="#000000" font-family="Helvetica" font-size="14.04" font-weight="normal">
                    <tspan x="49" y="72">Request products/1</tspan>
                </text>
                <line x1="199" y1="120.5" x2="241" y2="120.5" id="Path" stroke="#56666F" stroke-width="1.08" fill="#000000"></line>
                <line x1="240.5" y1="120" x2="240.5" y2="133" id="Path" stroke="#56666F" stroke-width="1.08" fill="#000000"></line>
                <line x1="200" y1="133.5" x2="241" y2="133.5" id="Path" stroke="#56666F" stroke-width="1.08" fill="#000000"></line>
                <polygon id="Path" stroke="#56666F" stroke-width="1.08" fill="#56666F" points="210 129 200 133 210 137 206 133"></polygon>
                <text id="Generate-JWT-adding-in-roles" fill="#000000" font-family="Helvetica" font-size="14.04" font-weight="normal">
                    <tspan x="203" y="111">Generate JWT adding in roles</tspan>
                </text>
                <polygon id="Path" stroke="#56666F" stroke-width="1.08" fill="#56666F" points="391 168 401 172 391 176 395 172"></polygon>
                <line x1="199" y1="171.5" x2="397" y2="171.5" id="Path" stroke="#56666F" stroke-width="1.08" fill="#000000"></line>
                <text id="Request-products/1-+-JWT" fill="#000000" font-family="Helvetica" font-size="14.04" font-weight="normal">
                    <tspan x="204" y="162">Request products/1 + JWT</tspan>
                </text>
                <line x1="403" y1="210.5" x2="445" y2="210.5" id="Path" stroke="#56666F" stroke-width="1.08" fill="#000000"></line>
                <line x1="444.5" y1="210" x2="444.5" y2="223" id="Path" stroke="#56666F" stroke-width="1.08" fill="#000000"></line>
                <line x1="404" y1="223.5" x2="445" y2="223.5" id="Path" stroke="#56666F" stroke-width="1.08" fill="#000000"></line>
                <polygon id="Path" stroke="#56666F" stroke-width="1.08" fill="#56666F" points="414 219 404 223 414 227 410 223"></polygon>
                <text id="Verify-JWT-via-middleware" fill="#000000" font-family="Helvetica" font-size="14.04" font-weight="normal">
                    <tspan x="408" y="201">Verify JWT via middleware</tspan>
                </text>
                <line x1="403" y1="262.5" x2="445" y2="262.5" id="Path" stroke="#56666F" stroke-width="1.08" fill="#000000"></line>
                <line x1="444.5" y1="262" x2="444.5" y2="275" id="Path" stroke="#56666F" stroke-width="1.08" fill="#000000"></line>
                <line x1="404" y1="274.5" x2="445" y2="274.5" id="Path" stroke="#56666F" stroke-width="1.08" fill="#000000"></line>
                <polygon id="Path" stroke="#56666F" stroke-width="1.08" fill="#56666F" points="414 271 404 275 414 279 410 275"></polygon>
                <text id="Check-roles" fill="#000000" font-family="Helvetica" font-size="14.04" font-weight="normal">
                    <tspan x="412" y="253">Check roles</tspan>
                </text>
                <polygon id="Path" stroke="#56666F" stroke-width="1.08" fill="#56666F" points="210 310 200 314 210 318 206 314"></polygon>
                <line x1="204" y1="313.5" x2="402" y2="313.5" id="Path" stroke="#56666F" stroke-width="1.08" fill="#000000"></line>
                <text id="products/1-data" fill="#000000" font-family="Helvetica" font-size="14.04" font-weight="normal">
                    <tspan x="217" y="304">products/1 data</tspan>
                </text>
                <polygon id="Path" stroke="#56666F" stroke-width="1.08" fill="#56666F" points="53 348 43 352 53 356 49 352"></polygon>
                <line x1="47" y1="352.5" x2="198" y2="352.5" id="Path" stroke="#56666F" stroke-width="1.08" fill="#000000"></line>
                <text id="products/1-data" fill="#000000" font-family="Helvetica" font-size="14.04" font-weight="normal">
                    <tspan x="60" y="343">products/1 data</tspan>
                </text>
            </g>
        </g>
    </g>
</svg>