<?xml version="1.0" encoding="UTF-8"?>
<svg width="400px" height="400px" viewBox="0 0 400 400" version="1.1" xmlns="http://www.w3.org/2000/svg" xmlns:xlink="http://www.w3.org/1999/xlink">
    <!-- Generator: Sketch 53.2 (72643) - https://sketchapp.com -->
    <title>2.0-home-section-built-for-devs</title>
    <desc>Created with Sketch.</desc>
    <g id="2.0-home-section-built-for-devs" stroke="none" stroke-width="1" fill="none" fill-rule="evenodd">
        <g id="CODING" transform="translate(4.000000, 58.000000)" fill-rule="nonzero">
            <path d="M336.01555,16.1772152 L55.9852727,16.1772152 C43.9538401,16.1772152 34.1651376,25.8383491 34.1651376,37.7129853 L34.1651376,224.716582 C34.1651376,236.592031 43.9538401,246.253165 55.9852727,246.253165 L336.01555,246.253165 C348.046983,246.253165 357.834862,236.592031 357.834862,224.716582 L357.834862,37.7129853 C357.834862,25.8375371 348.04616,16.1772152 336.01555,16.1772152 Z M352.94627,224.716582 C352.94627,233.931118 345.350112,241.42747 336.01555,241.42747 L55.9852727,241.42747 C46.6490653,241.42747 39.0537298,233.931118 39.0537298,224.716582 L39.0537298,37.7129853 C39.0537298,28.4984495 46.649888,21.0020982 55.9852727,21.0020982 L336.01555,21.0020982 C345.350935,21.0020982 352.94627,28.4984495 352.94627,37.7129853 L352.94627,224.716582 Z M59.4390442,221.98259 L332.575765,221.98259 L332.575765,42.3446132 L59.4390442,42.3446132 L59.4390442,221.98259 Z M64.3276364,47.1694961 L327.687173,47.1694961 L327.687173,217.157707 L64.3276364,217.157707 L64.3276364,47.1694961 Z" id="Shape" fill="#4A555F"></path>
            <path d="M334.101461,25.164557 L56.1011902,25.164557 C49.9551146,25.164557 44.9541284,30.1625959 44.9541284,36.3068693 L44.9541284,224.326042 C44.9541284,230.469499 49.9542978,235.468354 56.1011902,235.468354 L334.101461,235.468354 C340.24672,235.468354 345.247706,230.470315 345.247706,224.326042 L345.247706,36.3068693 C345.24689,30.1634124 340.24672,25.164557 334.101461,25.164557 Z M336.349986,227.237347 L53.8681841,227.237347 L53.8681841,35.3043224 L336.349986,35.3043224 L336.349986,227.237347 L336.349986,227.237347 Z" id="Shape" fill="#3F2E61"></path>
            <path d="M0,242.658228 L0,257.736442 C0,272.217957 12.1695385,284 27.1283405,284 L364.872481,284 C379.831283,284 392,272.217957 392,257.736442 L392,242.658228 L0,242.658228 Z M387.116734,257.736442 C387.116734,269.611571 377.138173,279.272544 364.872481,279.272544 L27.1283405,279.272544 C14.8626488,279.272544 4.88326565,269.611571 4.88326565,257.736442 L4.88326565,247.385684 L387.116734,247.385684 L387.116734,257.736442 Z" id="Shape" fill="#4A555F"></path>
            <path d="M220.625982,251.64557 C219.764029,253.389234 218.626252,254.952774 217.260263,256.321386 C213.992232,259.596514 209.471496,261.61571 204.47956,261.61571 L176.39797,261.61571 C169.341452,261.61571 163.227336,257.575673 160.251548,251.64557 L10.7889908,251.64557 L10.7889908,256.64709 C10.7889908,265.786522 18.2034238,273.21519 27.3097464,273.21519 L364.674656,273.21519 C373.796576,273.21519 381.211009,265.786522 381.211009,256.64709 L381.211009,251.64557 L220.625982,251.64557 Z" id="Path" fill="#3F2E61"></path>
            <path d="M188.807339,42.5443038 L188.807339,222.088608 L332.66055,222.088608 L332.66055,42.5443038 L188.807339,42.5443038 Z M327.772195,217.266066 L193.694873,217.266066 L193.694873,47.3668452 L327.772195,47.3668452 L327.772195,217.266066 Z" id="Shape" fill="#4A555F"></path>
            <rect id="Rectangle" fill="#FFD452" x="68.3302752" y="50.3291139" width="113.284404" height="159.974684"></rect>
            <rect id="Rectangle" fill="#4A555F" x="95.3027523" y="97.0632911" width="10.7889908" height="5.39240506"></rect>
            <rect id="Rectangle" fill="#4A555F" x="116.880734" y="97.0632911" width="55.7431193" height="5.39240506"></rect>
            <rect id="Rectangle" fill="#4A555F" x="95.3027523" y="111.443038" width="10.7889908" height="5.39240506"></rect>
            <rect id="Rectangle" fill="#4A555F" x="116.880734" y="111.443038" width="32.3669725" height="5.39240506"></rect>
            <rect id="Rectangle" fill="#4A555F" x="95.3027523" y="124.025316" width="10.7889908" height="5.39240506"></rect>
            <rect id="Rectangle" fill="#4A555F" x="116.880734" y="124.025316" width="55.7431193" height="5.39240506"></rect>
            <rect id="Rectangle" fill="#4A555F" x="80.9174312" y="150.987342" width="10.7889908" height="5.39240506"></rect>
            <rect id="Rectangle" fill="#4A555F" x="102.495413" y="150.987342" width="55.7431193" height="5.39240506"></rect>
            <rect id="Rectangle" fill="#4A555F" x="80.9174312" y="167.164557" width="10.7889908" height="5.39240506"></rect>
            <rect id="Rectangle" fill="#4A555F" x="102.495413" y="167.164557" width="70.1284404" height="5.39240506"></rect>
            <rect id="Rectangle" fill="#4A555F" x="80.9174312" y="181.544304" width="10.7889908" height="5.39240506"></rect>
            <rect id="Rectangle" fill="#4A555F" x="102.495413" y="181.544304" width="55.7431193" height="5.39240506"></rect>
            <rect id="Rectangle" fill="#4A555F" x="120.477064" y="138.405063" width="10.7889908" height="5.39240506"></rect>
            <rect id="Rectangle" fill="#4A555F" x="140.256881" y="138.405063" width="32.3669725" height="5.39240506"></rect>
            <rect id="Rectangle" fill="#4A555F" x="120.477064" y="194.126582" width="10.7889908" height="5.39240506"></rect>
            <rect id="Rectangle" fill="#4A555F" x="140.256881" y="194.126582" width="32.3669725" height="5.39240506"></rect>
            <path d="M208.587156,66.5063291 L208.587156,88.0759494 L255.33945,88.0759494 L255.33945,66.5063291 L208.587156,66.5063291 Z M250.531687,83.2914681 L213.394918,83.2914681 L213.394918,71.2916156 L250.531687,71.2916156 L250.531687,83.2914681 Z" id="Shape" fill="#4A555F"></path>
            <path d="M266.12844,66.5063291 L266.12844,88.0759494 L312.880734,88.0759494 L312.880734,66.5063291 L266.12844,66.5063291 Z M308.072972,83.2914681 L270.936203,83.2914681 L270.936203,71.2916156 L308.072972,71.2916156 L308.072972,83.2914681 Z" id="Shape" fill="#4A555F"></path>
            <path d="M208.587156,100.658228 L208.587156,150.987342 L312.880734,150.987342 L312.880734,100.658228 L208.587156,100.658228 Z M308.031331,146.082116 L213.435743,146.082116 L213.435743,105.562628 L308.031331,105.562628 L308.031331,146.082116 Z" id="Shape" fill="#4A555F"></path>
            <rect id="Rectangle" fill="#EC8D53" x="219.376147" y="111.443038" width="82.7155963" height="28.7594937"></rect>
            <rect id="Rectangle" fill="#4A555F" x="210.385321" y="163.56962" width="104.293578" height="5.39240506"></rect>
            <rect id="Rectangle" fill="#4A555F" x="210.385321" y="181.544304" width="104.293578" height="5.39240506"></rect>
            <rect id="Rectangle" fill="#4A555F" x="210.385321" y="195.924051" width="104.293578" height="5.39240506"></rect>
            <polygon id="Path" fill="#4A555F" points="88.6195914 75.7206631 96.7710003 68.201493 93.117344 64.7088608 80.9174312 75.9612502 93.7025959 86.278481 97.1009174 82.5650359"></polygon>
            <polygon id="Path" fill="#4A555F" points="119.065481 64.7088608 115.410749 68.201493 123.563477 75.7206631 115.082569 82.5650359 118.480197 86.278481 131.266055 75.9612502"></polygon>
            <polygon id="Rectangle" fill="#4A555F" transform="translate(106.009031, 75.346646) rotate(-62.986534) translate(-106.009031, -75.346646) " points="96.0043359 72.8879848 116.002527 72.9341187 116.013727 77.8053064 96.0155358 77.7591725"></polygon>
            <path d="M156.440367,242.658228 L156.440367,245.140835 C156.440367,256.657256 165.539384,266.025316 176.723255,266.025316 L204.487755,266.025316 C215.672437,266.025316 224.770642,256.656421 224.770642,245.140835 L224.770642,242.658228 L156.440367,242.658228 Z M204.487755,261.060103 L176.723255,261.060103 C169.017656,261.060103 162.611338,255.225851 161.45002,247.623442 L219.760177,247.623442 C218.599671,255.226687 212.19173,261.060103 204.487755,261.060103 Z" id="Shape" fill="#4A555F"></path>
            <path d="M54.1497465,0 C34.2068214,0 17.9816514,16.2856956 17.9816514,36.3030149 L17.9816514,52.1265823 L22.85823,52.1265823 L22.85823,36.3030149 C22.85823,18.9843268 36.8954231,4.89477002 54.1489258,4.89477002 L95.3027523,4.89477002 L95.3027523,0 L54.1497465,0 Z" id="Path" fill="#4A555F"></path>
            <rect id="Rectangle" fill="#4A555F" x="106.091743" y="0" width="14.3853211" height="5.39240506"></rect>
            <rect id="Rectangle" fill="#4A555F" x="127.669725" y="0" width="14.3853211" height="5.39240506"></rect>
        </g>
    </g>
</svg>