<svg xmlns="http://www.w3.org/2000/svg" xmlns:xlink="http://www.w3.org/1999/xlink" width="160" height="67"><style><![CDATA[.B{mask:url(#L)}.C{fill:#3e4e50}]]></style><defs><path id="A" d="M.137.14h16.4v21.827H.137z"/><path id="B" d="M.095.14H15.48V21.97H.095z"/><path id="C" d="M.155.14h17.51v21.827H.155z"/><path id="D" d="M.283.14h17.264v21.827H.283z"/><path id="E" d="M0 66.077h159.913V.14H0z"/><path id="F" d="M21.65 64.477c.723 0 1.375-.133 1.955-.4a4.63 4.63 0 0 0 1.493-1.075c.415-.45.734-.98.96-1.59a5.59 5.59 0 0 0 .337-1.946 5.59 5.59 0 0 0-.337-1.946c-.226-.6-.545-1.14-.96-1.59s-.913-.81-1.493-1.076-1.233-.4-1.955-.4-1.375.133-1.955.4-1.078.626-1.493 1.076a4.74 4.74 0 0 0-.96 1.591 5.58 5.58 0 0 0-.338 1.946 5.58 5.58 0 0 0 .338 1.946c.225.61.545 1.14.96 1.59s.912.81 1.493 1.075 1.232.4 1.955.4m0 1.6c-.96 0-1.843-.17-2.65-.507a6.16 6.16 0 0 1-2.071-1.396c-.575-.592-1.025-1.29-1.35-2.097s-.49-1.677-.49-2.613.163-1.807.49-2.613a6.45 6.45 0 0 1 1.351-2.098c.575-.592 1.265-1.058 2.07-1.395s1.69-.507 2.65-.507 1.843.17 2.65.507 1.496.803 2.07 1.395 1.025 1.292 1.35 2.098.49 1.677.49 2.613-.163 1.807-.49 2.613-.776 1.505-1.35 2.097-1.265 1.058-2.07 1.396-1.69.507-2.65.507"/><path id="G" d="M58.927 53.17h8.124v1.6h-6.417v3.75h5.973v1.6h-5.973v4.035h6.737v1.6h-8.444z"/></defs><g fill="none" fill-rule="evenodd"><path d="M23.9.472V22.3h15.384v-4.44H28.7v-4.44h9.465V8.98H28.7V4.9h10.02V.472zm31.846 0l-4.47 7.646L46.62.472h-6.04l7.214 10.42L40.147 22.3h5.703l5.18-8.786 5.333 8.786h6.043l-7.892-11.5L61.573.472z" class="C"/><g transform="translate(0 .331)"><g transform="translate(63.717)"><mask id="H" fill="#fff"><use xlink:href="#A"/></mask><path d="M4.947 9.4h3.206c.432 0 .848-.04 1.25-.124s.76-.22 1.08-.416a2.22 2.22 0 0 0 .771-.801c.195-.34.293-.766.293-1.28 0-.555-.13-1.002-.386-1.34s-.586-.6-.986-.786-.848-.303-1.34-.354L7.413 4.21H4.947V9.4zM.137.14h8.108a16.04 16.04 0 0 1 3.207.309c1.007.205 1.885.56 2.636 1.064s1.346 1.182 1.788 2.034.663 1.927.663 3.222c0 1.275-.205 2.343-.616 3.207s-.977 1.552-1.695 2.065-1.573.88-2.56 1.095a15.01 15.01 0 0 1-3.207.323H4.947v8.51H.137V.14z" mask="url(#H)" class="C"/></g><g transform="translate(82.596)"><mask id="I" fill="#fff"><use xlink:href="#B"/></mask><path mask="url(#I)" d="M.095.14h14.83v4.44H4.904v4.07h9.465v4.44H4.904v4.44H15.48v4.44H.095z" class="C"/></g><g transform="translate(101.003)"><mask id="J" fill="#fff"><use xlink:href="#C"/></mask><path d="M4.964 9.174H7.8l1.372-.046c.483-.03.92-.123 1.3-.278a2.26 2.26 0 0 0 .971-.724c.257-.328.385-.79.385-1.387 0-.555-.113-.996-.34-1.326s-.514-.58-.863-.755a3.86 3.86 0 0 0-1.203-.354c-.452-.062-.894-.093-1.326-.093H4.964v4.963zM.155.14h8.447c1.1 0 2.163.108 3.16.324s1.87.576 2.62 1.08 1.346 1.182 1.788 2.035.663 1.917.663 3.19c0 1.542-.4 2.852-1.202 3.93s-1.973 1.763-3.515 2.05l5.55 9.218H11.9l-4.563-8.724H4.964v8.724H.155V.14z" mask="url(#J)" class="C"/></g><g transform="translate(118.466)"><mask id="K" fill="#fff"><use xlink:href="#D"/></mask><path mask="url(#K)" d="M6.5 4.396H.283V.14h17.264v4.255H11.32v17.573H6.5z" class="C"/></g><path d="M33.274 31.462l-2.652 6.783h5.334l-2.682-6.783zm-1.85-6.35H35.4l9.495 21.827H39.47l-1.88-4.624h-8.478l-1.82 4.624H22l9.434-21.827zm19.7 17.388h2.497c1.1 0 2.142-.113 3.098-.34s1.783-.6 2.482-1.125a5.4 5.4 0 0 0 1.65-2.065c.4-.852.6-1.896.6-3.13 0-1.07-.2-2-.6-2.8s-.94-1.443-1.618-1.957-1.475-.9-2.4-1.156a10.7 10.7 0 0 0-2.882-.386h-2.836V42.5zm-4.8-17.388h7.214c1.746 0 3.407.196 4.98.586s2.944 1.023 4.116 1.896 2.1 2 2.8 3.407 1.033 3.093 1.033 5.086c0 1.768-.335 3.325-1.002 4.67s-1.567 2.477-2.698 3.4-2.435 1.608-3.915 2.08-3.032.7-4.656.7h-7.86V25.1zm20.47-.002h5.488l5.395 14.305h.06L83.216 25.1h5.15l-9.002 21.827H75.5z" class="C"/><mask id="L" fill="#fff"><use xlink:href="#E"/></mask><path d="M89.815 46.938h4.8V25.1h-4.8zm22.7-16.154a4.72 4.72 0 0 0-1.742-1.326c-.7-.308-1.485-.463-2.4-.463s-1.742.175-2.512.524a6.03 6.03 0 0 0-2.004 1.465c-.566.627-1.007 1.372-1.326 2.235s-.478 1.8-.478 2.805c0 1.028.16 1.968.478 2.82a7.03 7.03 0 0 0 1.31 2.22 5.93 5.93 0 0 0 1.957 1.465c.75.35 1.557.524 2.42.524.986 0 1.86-.205 2.62-.617a5.22 5.22 0 0 0 1.88-1.726l4.008 3c-.925 1.295-2.096 2.25-3.515 2.867a10.87 10.87 0 0 1-4.378.925c-1.706 0-3.278-.267-4.717-.8s-2.682-1.3-3.73-2.297-1.865-2.205-2.45-3.623-.88-3-.88-4.748.293-3.33.88-4.748 1.402-2.626 2.45-3.622 2.292-1.762 3.73-2.297 3-.8 4.717-.8a11.63 11.63 0 0 1 1.927.169c.668.113 1.325.293 1.973.54a8.77 8.77 0 0 1 1.865.986 7.45 7.45 0 0 1 1.604 1.511l-3.7 3.02zm6.258-5.674h14.83v4.44h-10.02v4.07h9.465v4.44h-9.465v4.44h10.575v4.44h-15.384z" class="C B"/><g fill="#f58320" class="B"><path d="M18.014 46.916h-5.53a8.2 8.2 0 0 1-2.66-.422 5.38 5.38 0 0 1-2.16-1.37c-.614-.633-1.098-1.43-1.448-2.397s-.527-2.133-.527-3.503v-9.06c0-.807-.237-1.457-.7-1.95a4.6 4.6 0 0 0-1.659-1.106 7.59 7.59 0 0 0-1.896-.474L0 26.53v-6.005c.316 0 .8-.034 1.422-.106s1.264-.227 1.896-.474a4.57 4.57 0 0 0 1.659-1.106c.474-.5.7-1.14.7-1.95V7.78c0-1.37.166-2.536.5-3.503s.808-1.755 1.422-2.37A5.54 5.54 0 0 1 9.77.563C10.595.282 11.5.14 12.484.14h5.53v6.005h-2.58c-.808 0-1.44.106-1.896.316s-.8.483-1.027.817a2.49 2.49 0 0 0-.42 1.106 8.78 8.78 0 0 0-.079 1.133v8.48c0 1.23-.176 2.196-.527 2.897s-.782 1.238-1.3 1.606-1.07.615-1.685.738-1.204.203-1.765.237v.105c.56.035 1.15.105 1.765.2s1.176.342 1.685.7.94.905 1.3 1.607.527 1.668.527 2.897v8.533a8.55 8.55 0 0 0 .08 1.132c.054.402.193.772.42 1.106s.57.606 1.027.816 1.088.316 1.896.316h2.58v6.005zM141.9.14h5.7a7.65 7.65 0 0 1 2.528.422 5.43 5.43 0 0 1 2.133 1.369c.614.632 1.097 1.43 1.448 2.397s.527 2.133.527 3.503v9.06c0 .808.228 1.457.685 1.95a4.37 4.37 0 0 0 1.607 1.106 7.12 7.12 0 0 0 1.87.474l1.527.105v6.005c-.387 0-.895.035-1.527.105a7.17 7.17 0 0 0-1.87.474 4.39 4.39 0 0 0-1.607 1.106c-.457.492-.685 1.142-.685 1.95v9.113c0 1.37-.176 2.536-.527 3.503s-.825 1.755-1.423 2.37-1.308 1.062-2.133 1.343-1.73.422-2.712.422h-5.53V40.9h2.58c.808 0 1.44-.106 1.896-.316s.8-.483 1.027-.817a2.51 2.51 0 0 0 .421-1.106 8.75 8.75 0 0 0 .08-1.133v-8.48c0-1.23.175-2.194.526-2.897s.782-1.238 1.3-1.607 1.07-.606 1.686-.7l1.764-.264v-.105c-.563-.034-1.15-.105-1.764-.2a3.98 3.98 0 0 1-1.686-.711c-.5-.37-.94-.904-1.3-1.607s-.526-1.667-.526-2.897V9.517c0-.35-.026-.728-.08-1.132a2.51 2.51 0 0 0-.421-1.106c-.228-.333-.57-.606-1.027-.816s-1.088-.316-1.896-.316h-2.58V.14zM5.846 53.17h7.9v1.6H7.553v3.946h5.777v1.6H7.553v5.44H5.846z"/><use xlink:href="#F"/><path d="M32.2 58.717h2.24c.33 0 .66-.027.986-.08a2.64 2.64 0 0 0 .871-.293 1.6 1.6 0 0 0 .613-.614c.153-.268.23-.613.23-1.04s-.077-.774-.23-1.04a1.61 1.61 0 0 0-.613-.614 2.66 2.66 0 0 0-.87-.293 6.12 6.12 0 0 0-.986-.08h-2.24v4.053zm-1.707-5.546h4.426c.806 0 1.47.1 2 .328s.933.498 1.236.836a2.83 2.83 0 0 1 .63 1.137 4.49 4.49 0 0 1 .178 1.218c0 .404-.07.8-.214 1.164a3.32 3.32 0 0 1-.613 1.013c-.267.303-.593.557-.978.764s-.815.335-1.288.382l3.573 5.742H37.3l-3.2-5.546h-1.9v5.546h-1.707V53.17zm16.872 10.986h2.15a7.04 7.04 0 0 0 2.053-.294 4.95 4.95 0 0 0 1.698-.88c.486-.392.87-.88 1.155-1.467s.427-1.27.427-2.053c0-.403-.065-.874-.196-1.414a4.23 4.23 0 0 0-.738-1.538c-.362-.486-.862-.898-1.502-1.235s-1.47-.507-2.5-.507h-2.56v9.386zM45.648 53.17h4.4c.9 0 1.668.1 2.338.302s1.25.47 1.742.8a5.14 5.14 0 0 1 1.226 1.164 6.33 6.33 0 0 1 .774 1.35 6.82 6.82 0 0 1 .41 1.387c.084.463.125.9.125 1.28 0 .806-.15 1.585-.445 2.338a5.91 5.91 0 0 1-1.315 2.01c-.58.588-1.3 1.058-2.16 1.413s-1.852.533-2.978.533h-4.107V53.17z"/><use xlink:href="#G"/><path d="M67.886 53.17h1.973l3.697 10.24h.035l3.84-10.24h1.87l-4.96 12.586h-1.6zm12.746 0h8.124v1.6H82.34v3.75h5.973v1.6H82.34v4.035h6.737v1.6h-8.444zm10.684 0h1.707v10.986H98.8v1.6h-7.484z"/><use xlink:href="#F" x="84.492"/><path d="M116.683 58.717h2.24c.33 0 .66-.027.986-.08a2.64 2.64 0 0 0 .871-.293c.254-.143.46-.346.613-.614s.23-.613.23-1.04-.077-.774-.23-1.04a1.61 1.61 0 0 0-.613-.614c-.255-.142-.546-.24-.87-.293s-.655-.08-.986-.08h-2.24v4.053zm-1.707-5.546h4.426c.806 0 1.47.11 1.99.328s.933.498 1.236.836.512.717.63 1.137a4.49 4.49 0 0 1 .178 1.218c0 .39-.06.798-.178 1.218s-.33.8-.63 1.137-.715.617-1.236.836-1.185.33-1.99.33h-2.72v5.546h-1.707V53.17z"/><use xlink:href="#G" x="66.413"/><path d="M137.73 58.717h2.24c.33 0 .66-.027.986-.08a2.64 2.64 0 0 0 .871-.293 1.6 1.6 0 0 0 .613-.614c.153-.268.23-.613.23-1.04s-.077-.774-.23-1.04a1.61 1.61 0 0 0-.613-.614 2.66 2.66 0 0 0-.87-.293 6.12 6.12 0 0 0-.986-.08h-2.24v4.053zm-1.707-5.546h4.426c.806 0 1.47.1 2 .328s.933.498 1.236.836a2.83 2.83 0 0 1 .63 1.137 4.49 4.49 0 0 1 .178 1.218c0 .404-.07.8-.214 1.164a3.32 3.32 0 0 1-.613 1.013c-.267.303-.593.557-.978.764s-.815.335-1.288.382l3.573 5.742h-2.133l-3.2-5.546h-1.902v5.546h-1.707V53.17zm11.057 9.955a2.8 2.8 0 0 0 1.182 1.022 3.53 3.53 0 0 0 1.484.328c.284 0 .575-.044.87-.133s.565-.222.808-.4a2.18 2.18 0 0 0 .596-.657 1.75 1.75 0 0 0 .231-.907c0-.486-.154-.856-.462-1.112s-.7-.468-1.146-.64l-1.493-.498a6.07 6.07 0 0 1-1.493-.666 3.65 3.65 0 0 1-1.146-1.146c-.308-.48-.463-1.13-.463-1.947a3.27 3.27 0 0 1 .996-2.31c.344-.344.785-.63 1.324-.862s1.188-.347 1.946-.347c.687 0 1.345.095 1.973.285s1.18.575 1.653 1.155l-1.387 1.263c-.213-.332-.516-.598-.907-.8a2.86 2.86 0 0 0-1.333-.302c-.474 0-.868.062-1.182.186s-.566.285-.756.48-.323.406-.4.63a1.94 1.94 0 0 0-.116.622c0 .533.154.943.463 1.227a3.58 3.58 0 0 0 1.146.693 13.73 13.73 0 0 0 1.493.48 6.39 6.39 0 0 1 1.493.596c.456.255.838.598 1.146 1.03s.462 1.028.462 1.786c0 .604-.115 1.15-.346 1.635s-.542.895-.934 1.226a4.17 4.17 0 0 1-1.386.765 5.36 5.36 0 0 1-1.707.267 6.21 6.21 0 0 1-2.293-.426c-.723-.285-1.297-.723-1.724-1.315l1.404-1.2z"/></g></g></g></svg>