<?xml version="1.0" encoding="UTF-8"?>
<svg width="512px" height="289px" viewBox="0 0 512 289" version="1.1" xmlns="http://www.w3.org/2000/svg" xmlns:xlink="http://www.w3.org/1999/xlink">
    <!-- Generator: Sketch 57.1 (83088) - https://sketch.com -->
    <title>Single Tenant 2</title>
    <desc>Created with Sketch.</desc>
    <defs>
        <filter x="-10.9%" y="-13.3%" width="121.8%" height="126.7%" filterUnits="objectBoundingBox" id="filter-1">
            <feOffset dx="2" dy="2" in="SourceAlpha" result="shadowOffsetOuter1"></feOffset>
            <feGaussianBlur stdDeviation="2" in="shadowOffsetOuter1" result="shadowBlurOuter1"></feGaussianBlur>
            <feColorMatrix values="0 0 0 0 0   0 0 0 0 0   0 0 0 0 0  0 0 0 0.5 0" type="matrix" in="shadowBlurOuter1" result="shadowMatrixOuter1"></feColorMatrix>
            <feMerge>
                <feMergeNode in="shadowMatrixOuter1"></feMergeNode>
                <feMergeNode in="SourceGraphic"></feMergeNode>
            </feMerge>
        </filter>
        <filter x="-10.8%" y="-13.5%" width="121.6%" height="127.0%" filterUnits="objectBoundingBox" id="filter-2">
            <feOffset dx="2" dy="2" in="SourceAlpha" result="shadowOffsetOuter1"></feOffset>
            <feGaussianBlur stdDeviation="2" in="shadowOffsetOuter1" result="shadowBlurOuter1"></feGaussianBlur>
            <feColorMatrix values="0 0 0 0 0   0 0 0 0 0   0 0 0 0 0  0 0 0 0.5 0" type="matrix" in="shadowBlurOuter1" result="shadowMatrixOuter1"></feColorMatrix>
            <feMerge>
                <feMergeNode in="shadowMatrixOuter1"></feMergeNode>
                <feMergeNode in="SourceGraphic"></feMergeNode>
            </feMerge>
        </filter>
        <filter x="-10.8%" y="-13.3%" width="121.6%" height="126.7%" filterUnits="objectBoundingBox" id="filter-3">
            <feOffset dx="2" dy="2" in="SourceAlpha" result="shadowOffsetOuter1"></feOffset>
            <feGaussianBlur stdDeviation="2" in="shadowOffsetOuter1" result="shadowBlurOuter1"></feGaussianBlur>
            <feColorMatrix values="0 0 0 0 0   0 0 0 0 0   0 0 0 0 0  0 0 0 0.5 0" type="matrix" in="shadowBlurOuter1" result="shadowMatrixOuter1"></feColorMatrix>
            <feMerge>
                <feMergeNode in="shadowMatrixOuter1"></feMergeNode>
                <feMergeNode in="SourceGraphic"></feMergeNode>
            </feMerge>
        </filter>
        <filter x="-10.1%" y="-6.7%" width="120.2%" height="113.5%" filterUnits="objectBoundingBox" id="filter-4">
            <feOffset dx="2" dy="2" in="SourceAlpha" result="shadowOffsetOuter1"></feOffset>
            <feGaussianBlur stdDeviation="2" in="shadowOffsetOuter1" result="shadowBlurOuter1"></feGaussianBlur>
            <feColorMatrix values="0 0 0 0 0   0 0 0 0 0   0 0 0 0 0  0 0 0 0.5 0" type="matrix" in="shadowBlurOuter1" result="shadowMatrixOuter1"></feColorMatrix>
            <feMerge>
                <feMergeNode in="shadowMatrixOuter1"></feMergeNode>
                <feMergeNode in="SourceGraphic"></feMergeNode>
            </feMerge>
        </filter>
    </defs>
    <g id="Features-Icons" stroke="none" stroke-width="1" fill="none" fill-rule="evenodd">
        <g id="Single-Tenant-2" transform="translate(2.000000, 2.000000)">
            <g id="Computer" filter="url(#filter-1)" transform="translate(394.000000, 0.000000)">
                <polygon id="Path-5" fill="#FFFFFF" points="16.0533389 61 3 77.1135459 4.09954829 87 108 87 108 76.0594335 94.7755071 61"></polygon>
                <rect id="Rectangle" stroke="#5C666F" stroke-width="5" fill="#FFFFFF" x="14.5" y="2.5" width="80" height="58" rx="5"></rect>
                <rect id="Rectangle" stroke="#5C666F" stroke-width="5" fill="#FFFFFF" x="24.5" y="11.5" width="61" height="40" rx="3"></rect>
                <path d="M110,90 L0,90 L0,75.3503836 L13.7796976,58 L96.2203024,58 L110,75.3503836 L110,90 L110,90 Z M4.67242621,85.1713555 L105.24838,85.1713555 L105.24838,77.1508951 L94.0028798,62.8286445 L15.9971202,62.8286445 L4.67242621,77.0690537 L4.67242621,85.1713555 Z" id="Shape" fill="#5C666F" fill-rule="nonzero"></path>
                <rect id="Rectangle" fill="#5C666F" fill-rule="nonzero" x="3" y="74" width="93" height="5"></rect>
                <polygon id="Path" fill="#FFD552" fill-rule="nonzero" points="32 44 32.0797872 18 77 18 76.9202128 44"></polygon>
            </g>
            <g id="Computer-Copy" filter="url(#filter-2)" transform="translate(393.000000, 96.000000)">
                <polygon id="Path-5" fill="#FFFFFF" points="16.0533389 60 3 76.1135459 4.09954829 86 108 86 108 75.0594335 94.7755071 60"></polygon>
                <rect id="Rectangle" stroke="#5C666F" stroke-width="5" fill="#FFFFFF" x="15.5" y="2.5" width="80" height="57" rx="5"></rect>
                <rect id="Rectangle" stroke="#5C666F" stroke-width="5" fill="#FFFFFF" x="24.5" y="10.5" width="61" height="40" rx="3"></rect>
                <path d="M110,89 L0,89 L0,74.8081841 L13.7796976,58 L96.2203024,58 L110,74.8081841 L110,89 L110,89 Z M4.67242621,84.3222506 L105.24838,84.3222506 L105.24838,76.5524297 L94.0028798,62.6777494 L15.9971202,62.6777494 L4.67242621,76.4731458 L4.67242621,84.3222506 Z" id="Shape" fill="#5C666F" fill-rule="nonzero"></path>
                <rect id="Rectangle" fill="#5C666F" fill-rule="nonzero" x="3" y="73" width="93" height="5"></rect>
                <polygon id="Path" fill="#FFD552" fill-rule="nonzero" points="33 44 33.0797872 18 78 18 77.9202128 44"></polygon>
            </g>
            <g id="Computer-Copy-2" filter="url(#filter-3)" transform="translate(393.000000, 191.000000)">
                <polygon id="Path-5" fill="#FFFFFF" points="16.0533389 61 3 77.1135459 4.09954829 87 108 87 108 76.0594335 94.7755071 61"></polygon>
                <rect id="Rectangle" stroke="#5C666F" stroke-width="5" fill="#FFFFFF" x="15.5" y="2.5" width="80" height="58" rx="5"></rect>
                <rect id="Rectangle" stroke="#5C666F" stroke-width="5" fill="#FFFFFF" x="24.5" y="11.5" width="61" height="40" rx="3"></rect>
                <path d="M110,90 L0,90 L0,75.3503836 L13.7796976,58 L96.2203024,58 L110,75.3503836 L110,90 L110,90 Z M4.67242621,85.1713555 L105.24838,85.1713555 L105.24838,77.1508951 L94.0028798,62.8286445 L15.9971202,62.8286445 L4.67242621,77.0690537 L4.67242621,85.1713555 Z" id="Shape" fill="#5C666F" fill-rule="nonzero"></path>
                <rect id="Rectangle" fill="#5C666F" fill-rule="nonzero" x="3" y="74" width="93" height="5"></rect>
                <polygon id="Path" fill="#FFD552" fill-rule="nonzero" points="33 44 33.0797872 18 78 18 77.9202128 44"></polygon>
            </g>
            <g id="Lines" transform="translate(261.500000, 144.500000) rotate(-90.000000) translate(-261.500000, -144.500000) translate(169.500000, 10.500000)" fill="#4A555F" fill-rule="nonzero">
                <path d="M181.979635,253.444236 L177.707343,252.711099 L178.431461,248.385585 L182.703753,249.118723 L181.979635,253.444236 Z M173.507463,251.977961 L169.235171,251.244823 L169.959288,246.91931 L174.23158,247.652448 L173.507463,251.977961 Z M165.035291,250.511685 L160.762999,249.778547 L161.487116,245.453034 L165.759408,246.186172 L165.035291,250.511685 Z M156.563118,249.045409 L152.290826,248.312272 L153.014944,243.986758 L157.287236,244.719896 L156.563118,249.045409 Z M148.090946,247.579134 L143.818654,246.845996 L144.542771,242.520483 L148.815063,243.253621 L148.090946,247.579134 Z M139.618774,246.112858 L135.346482,245.37972 L136.070599,241.054207 L140.342891,241.787345 L139.618774,246.112858 Z M131.146601,244.646582 L126.874309,243.913445 L127.598427,239.587931 L131.870719,240.321069 L131.146601,244.646582 Z M122.674429,243.180307 L118.402137,242.447169 L119.126254,238.121656 L123.398546,238.854794 L122.674429,243.180307 Z M114.202257,241.714031 L109.929965,240.980893 L110.654082,236.65538 L114.926374,237.388518 L114.202257,241.714031 Z M105.657672,240.247755 L101.38538,239.514618 L102.109498,235.189104 L106.38179,235.922242 L105.657672,240.247755 Z" id="Shape" transform="translate(142.044567, 244.316670) rotate(5.000000) translate(-142.044567, -244.316670) "></path>
                <path d="M2.60161829,259.633499 L1.87750099,255.320634 L6.14979303,254.58964 L6.87391033,258.902505 L2.60161829,259.633499 Z M11.0737906,258.171511 L10.3496733,253.858645 L14.6219654,253.127651 L15.3460827,257.440517 L11.0737906,258.171511 Z M19.6183747,256.709523 L18.8942574,252.396657 L23.1665495,251.665663 L23.8906668,255.978528 L19.6183747,256.709523 Z M28.0905471,255.247534 L27.3664298,250.934669 L31.6387218,250.203675 L32.3628391,254.51654 L28.0905471,255.247534 Z M36.5627194,253.785546 L35.8386021,249.47268 L40.1108942,248.741686 L40.8350115,253.054552 L36.5627194,253.785546 Z M45.0348918,252.323558 L44.3107745,248.010692 L48.5830665,247.279698 L49.3071838,251.592563 L45.0348918,252.323558 Z M53.5070641,250.861569 L52.7829468,246.548704 L57.0552389,245.81771 L57.7793562,250.130575 L53.5070641,250.861569 Z M61.9792365,249.399581 L61.2551192,245.086716 L65.5274112,244.355721 L66.2515285,248.668587 L61.9792365,249.399581 Z M70.4514088,247.937593 L69.7272915,243.624727 L73.9995836,242.893733 L74.7237009,247.206599 L70.4514088,247.937593 Z M78.9235812,246.475604 L78.1994639,242.162739 L82.4717559,241.431745 L83.1958732,245.74461 L78.9235812,246.475604 Z M87.3957535,245.013616 L86.6716362,240.700751 L90.9439283,239.969756 L91.6680456,244.282622 L87.3957535,245.013616 Z" id="Shape" transform="translate(46.772773, 249.801628) rotate(-10.000000) translate(-46.772773, -249.801628) "></path>
                <path d="M97.828125,31.9511719 L93.828125,31.9511719 L93.828125,27.5545373 L97.828125,27.5545373 L97.828125,31.9511719 Z M97.828125,23.0833834 L93.828125,23.0833834 L93.828125,18.6867488 L97.828125,18.6867488 L97.828125,23.0833834 Z M97.828125,14.215595 L93.828125,14.215595 L93.828125,9.81896034 L97.828125,9.81896034 L97.828125,14.215595 Z M97.828125,5.42232572 L93.828125,5.42232572 L93.828125,0.951171875 L97.828125,0.951171875 L97.828125,5.42232572 Z" id="Shape"></path>
                <path d="M97.828125,252.951172 L93.828125,252.951172 L93.828125,248.554537 L97.828125,248.554537 L97.828125,252.951172 Z M97.828125,244.083383 L93.828125,244.083383 L93.828125,239.686749 L97.828125,239.686749 L97.828125,244.083383 Z M97.828125,235.215595 L93.828125,235.215595 L93.828125,230.81896 L97.828125,230.81896 L97.828125,235.215595 Z M97.828125,226.422326 L93.828125,226.422326 L93.828125,221.951172 L97.828125,221.951172 L97.828125,226.422326 Z" id="Shape"></path>
            </g>
            <circle id="Oval" fill="#FFFFFF" cx="253" cy="142" r="31"></circle>
            <g id="fusionauth-disk" transform="translate(169.000000, 52.000000)" fill-rule="nonzero">
                <path d="M114.13514,12.0503731 C111.65034,11.1156716 108.958474,12.3619403 108.026674,14.7506219 C107.094874,17.2431592 108.337274,19.943408 110.71854,20.8781095 C132.253472,29.1865672 147.783471,46.2189055 154.720204,66.5746269 L125.420273,74.4676617 C123.556673,69.5864428 120.864806,65.1206468 117.344673,61.0702736 C109.47614,52.0348259 98.5016076,46.5304726 86.595275,45.6996269 C74.6889423,44.8687811 63.507343,48.8152985 55.0176101,55.8774876 L34.103878,35.3140547 C43.9395441,26.4863184 56.0529434,20.1511194 69.0981427,17.4508706 C67.8557427,14.5429104 67.5451428,11.2195274 68.269876,8 C37.6240112,14.0236318 11.7406793,37.079602 3.04387982,68.2363184 C0.144946658,78.6218905 -0.68331996,89.3190299 0.559079968,100.016169 C0.86967995,102.404851 2.83681317,104.274254 5.2180797,104.274254 C5.42514635,104.274254 5.52867968,104.274254 5.73574633,104.274254 C8.32407952,103.962687 10.1876794,101.677861 9.87707943,99.0814677 C8.84174615,89.630597 9.56647945,80.0758706 12.1548126,70.7288557 C15.1572791,59.9278607 20.5410121,50.2692786 27.4777451,42.0646766 L48.3914772,62.6281095 C42.9042108,69.4825871 39.3840777,78.1026119 38.7628778,87.4496269 C37.4169445,107.078358 48.9091438,124.733831 66.0956762,132.003731 L57.50241,160.564055 C44.9748774,155.786692 34.0003447,147.685945 25.7176785,137.300373 C23.647012,139.79291 20.8516121,141.558458 17.642079,142.389303 C28.6166117,156.617537 43.8360108,167.003109 61.4366764,171.884328 C68.9946093,173.961443 76.5525422,175 84.1104751,175 C102.125274,175 119.829473,169.080224 134.738272,157.75995 C136.808939,156.202114 137.223072,153.190299 135.670072,151.113184 C134.117072,149.03607 131.114606,148.620647 129.043939,150.178483 C110.925607,163.887438 88.2518082,168.664801 66.4062762,163.264303 L74.9995423,134.70398 C76.7596089,135.015547 78.5196755,135.327114 80.279742,135.43097 C81.3150753,135.534826 82.3504086,135.534826 83.3857418,135.534826 C106.887807,135.534826 126.559139,117.152363 128.112139,93.5771144 C128.319206,90.1498756 128.215673,86.8264925 127.698006,83.5031095 L156.997938,75.6100746 C159.275671,86.8264925 158.965071,98.7699005 155.652004,110.609453 C155.030804,112.894279 154.202538,115.179104 153.374271,117.46393 C155.030804,117.775498 156.583804,118.294776 158.033271,119.125622 C159.482737,119.956468 160.621604,120.891169 161.760471,121.929726 C162.899337,119.021766 163.934671,116.113806 164.762937,113.10199 C176.66927,71.1442786 154.823738,27.6287313 114.13514,12.0503731 Z M119.829473,93.0578358 C118.48354,112.998134 101.089941,128.368781 81.0044753,127.018657 C79.8656087,126.914801 78.7267421,126.810945 77.5878755,126.603234 C74.3783424,126.083955 71.3758759,125.149254 68.580476,123.799129 C55.1211435,117.671642 46.113744,103.651119 47.2526106,88.0727612 C47.7702772,80.8028607 50.3586104,74.1560945 54.4999435,68.6517413 C56.3635434,66.159204 58.6412766,63.8743781 61.1260765,61.9011194 C67.3380761,57.0199005 75.1030756,54.1119403 83.4892752,54.1119403 C84.3175418,54.1119403 85.1458084,54.1119403 86.0776083,54.215796 C95.8097411,54.8389303 104.610074,59.3047264 111.02914,66.6784826 C113.617473,69.6902985 115.68814,73.1175373 117.24114,76.7524876 C118.48354,79.6604478 119.311806,82.7761194 119.72594,85.891791 C119.933006,88.1766169 120.03654,90.6691542 119.829473,93.0578358 Z" id="Shape" fill="#5B6670"></path>
                <path d="M111.062168,66.56302 C104.674495,59.2517543 95.8141738,54.8238046 86.0266097,54.1029756 C85.2023938,54 84.2751509,54 83.450935,54 C64.3909417,54 48.4217582,68.9314582 47.0824073,87.9819393 C45.7430565,108.062176 60.8880241,125.465048 80.9782872,126.906706 C101.171577,128.348364 118.583139,112.902028 119.92249,93.0277424 C120.540652,83.3480385 117.449842,73.9772613 111.062168,66.56302 Z M83.656989,112.902028 C78.1965585,112.902028 73.7663979,113.416906 73.7663979,110.327639 L78.0935315,85.6135011 C75.6208837,83.8629164 74.0754788,80.9796003 74.0754788,77.7873575 C74.0754788,72.5356033 78.4026124,68.2106292 83.656989,68.2106292 C88.9113655,68.2106292 93.2384991,72.5356033 93.2384991,77.7873575 C93.2384991,80.9796003 91.5900672,83.8629164 89.2204464,85.6135011 L93.650607,110.121688 C93.650607,110.224663 93.650607,110.327639 93.650607,110.327639 C93.54758,113.416906 89.1174194,112.902028 83.656989,112.902028 Z" id="Shape" fill="#EC8D53"></path>
                <path d="M84,0 C79.6104622,0 75.6292534,2.34893617 73.4855256,6.12765957 C70.3209751,11.9489362 72.3626206,19.2 78.1813103,22.4680851 C79.916709,23.4893617 81.9583545,24 84,24 C88.3895378,24 92.3707466,21.6510638 94.5144744,17.8723404 C97.6790249,12.0510638 95.6373794,4.8 89.8186897,1.53191489 C88.083291,0.510638298 86.0416455,0 84,0 Z" id="Path" fill="#EC8D53"></path>
                <path d="M15,114 C10.6104622,114 6.62925342,116.348936 4.48552563,120.12766 C1.3209751,125.948936 3.36262061,133.2 9.1813103,136.468085 C10.916709,137.489362 12.9583545,138 15,138 C19.3895378,138 23.3707466,135.651064 25.5144744,131.87234 C28.6790249,126.051064 26.6373794,118.8 20.8186897,115.531915 C19.083291,114.510638 17.0416455,114 15,114 Z" id="Path" fill="#EC8D53"></path>
                <path d="M152,121 C147.610462,121 143.629253,123.348936 141.485526,127.12766 C138.320975,132.948936 140.362621,140.2 146.18131,143.468085 C147.916709,144.489362 149.958354,145 152,145 C156.389538,145 160.370747,142.651064 162.514474,138.87234 C165.679025,133.051064 163.637379,125.8 157.81869,122.531915 C156.083291,121.510638 154.041646,121 152,121 Z" id="Path" fill="#EC8D53"></path>
            </g>
            <g id="Server" filter="url(#filter-4)" transform="translate(0.000000, 58.000000)">
                <g id="Group" transform="translate(0.000000, 134.000000)">
                    <path d="M31.0526627,24.9333333 L17.8147929,24.9333333 L17.8147929,0.0698412698 L31.1230769,0.0698412698 L31.1230769,24.9333333 L31.0526627,24.9333333 Z M21.8988166,20.8825397 L26.9686391,20.8825397 L26.9686391,4.19047619 L21.8988166,4.19047619 L21.8988166,20.8825397 L21.8988166,20.8825397 Z" id="Shape" fill="#5C666F" fill-rule="nonzero"></path>
                    <path d="M35.6295858,32.9650794 L13.2378698,32.9650794 L13.2378698,30.9396825 C13.2378698,26.8190476 15.4911243,23.047619 19.1526627,21.1619048 L19.5751479,20.952381 L29.2218935,20.952381 L29.6443787,21.1619048 C33.3059172,23.1174603 35.5591716,26.8190476 35.5591716,30.9396825 L35.5591716,32.9650794 L35.6295858,32.9650794 Z M17.6035503,28.9142857 L31.2639053,28.9142857 C30.7710059,27.3079365 29.7147929,25.8412698 28.2360947,24.9333333 L20.6313609,24.9333333 C19.1526627,25.8412698 18.0964497,27.2380952 17.6035503,28.9142857 Z" id="Shape" fill="#5C666F" fill-rule="nonzero"></path>
                    <rect id="Rectangle" stroke="#5C666F" stroke-width="5" fill="#FFFFFF" x="2.5" y="31.8333333" width="114" height="9.66666667" rx="4.83333333"></rect>
                    <path d="M101.044379,24.9333333 L87.7360947,24.9333333 L87.7360947,0.0698412698 L101.044379,0.0698412698 L101.044379,24.9333333 Z M91.8201183,20.8825397 L96.8899408,20.8825397 L96.8899408,4.19047619 L91.8201183,4.19047619 L91.8201183,20.8825397 Z" id="Shape" fill="#5C666F" fill-rule="nonzero"></path>
                    <path d="M105.621302,32.9650794 L83.2295858,32.9650794 L83.2295858,30.9396825 C83.2295858,26.8190476 85.4828402,23.047619 89.1443787,21.1619048 L89.5668639,20.952381 L99.2136095,20.952381 L99.6360947,21.1619048 C103.297633,23.1174603 105.550888,26.8190476 105.550888,30.9396825 L105.550888,32.9650794 L105.621302,32.9650794 Z M87.5248521,28.9142857 L101.185207,28.9142857 C100.692308,27.3079365 99.6360947,25.8412698 98.1573964,24.9333333 L90.6230769,24.9333333 C89.1443787,25.8412698 88.0177515,27.2380952 87.5248521,28.9142857 Z" id="Shape" fill="#5C666F" fill-rule="nonzero"></path>
                </g>
                <g id="Group" transform="translate(0.000000, 65.000000)">
                    <rect id="Rectangle" stroke="#5C666F" stroke-width="5" fill="#FFFFFF" x="2.5" y="36.2425743" width="114" height="32.2574257" rx="8"></rect>
                    <rect id="Rectangle-Copy-10" stroke="#5C666F" stroke-width="5" fill="#FFFFFF" x="2.5" y="2.5" width="114" height="32.2574257" rx="8"></rect>
                    <rect id="Rectangle" fill="#71CDE1" fill-rule="nonzero" x="59.0775148" y="7.73267327" width="50.6982249" height="20.6673267"></rect>
                    <rect id="Rectangle" fill="#71CDE1" fill-rule="nonzero" x="59.0775148" y="42.3891089" width="50.6982249" height="20.9485149"></rect>
                    <path d="M19.2934911,24.3227723 C15.8431953,24.3227723 13.0970414,21.5108911 13.0970414,18.1366337 C13.0970414,14.6920792 15.9136095,11.950495 19.2934911,11.950495 C22.6733728,11.950495 25.4899408,14.7623762 25.4899408,18.1366337 C25.4899408,21.5108911 22.6733728,24.3227723 19.2934911,24.3227723 Z M19.2934911,15.9574257 C18.0964497,15.9574257 17.1810651,16.9415842 17.1810651,18.0663366 C17.1810651,19.2613861 18.1668639,20.1752475 19.2934911,20.1752475 C20.4905325,20.1752475 21.4059172,19.1910891 21.4059172,18.0663366 C21.4059172,16.9415842 20.4201183,15.9574257 19.2934911,15.9574257 Z" id="Shape" fill="#5C666F" fill-rule="nonzero"></path>
                    <path d="M102.171006,24.3227723 C98.7207101,24.3227723 95.9745562,21.5108911 95.9745562,18.1366337 C95.9745562,14.6920792 98.7911243,11.950495 102.171006,11.950495 C105.621302,11.950495 108.367456,14.7623762 108.367456,18.1366337 C108.367456,21.5108911 105.621302,24.3227723 102.171006,24.3227723 Z M102.171006,15.9574257 C100.973964,15.9574257 100.05858,16.9415842 100.05858,18.0663366 C100.05858,19.2613861 101.044379,20.1752475 102.171006,20.1752475 C103.368047,20.1752475 104.283432,19.1910891 104.283432,18.0663366 C104.283432,16.9415842 103.368047,15.9574257 102.171006,15.9574257 Z" id="Shape" fill="#5C666F" fill-rule="nonzero"></path>
                    <path d="M19.2934911,59.119802 C15.8431953,59.119802 13.0970414,56.3079208 13.0970414,52.9336634 C13.0970414,49.4891089 15.9136095,46.7475248 19.2934911,46.7475248 C22.6733728,46.7475248 25.4899408,49.5594059 25.4899408,52.9336634 C25.4899408,56.3079208 22.6733728,59.119802 19.2934911,59.119802 Z M19.2934911,50.7544554 C18.0964497,50.7544554 17.1810651,51.7386139 17.1810651,52.8633663 C17.1810651,54.0584158 18.1668639,54.9722772 19.2934911,54.9722772 C20.4905325,54.9722772 21.4059172,53.9881188 21.4059172,52.8633663 C21.4059172,51.6683168 20.4201183,50.7544554 19.2934911,50.7544554 Z" id="Shape" fill="#5C666F" fill-rule="nonzero"></path>
                    <path d="M102.171006,59.119802 C98.7207101,59.119802 95.9745562,56.3079208 95.9745562,52.9336634 C95.9745562,49.4891089 98.7911243,46.7475248 102.171006,46.7475248 C105.621302,46.7475248 108.367456,49.5594059 108.367456,52.9336634 C108.367456,56.3079208 105.621302,59.119802 102.171006,59.119802 Z M102.171006,50.7544554 C100.973964,50.7544554 100.05858,51.7386139 100.05858,52.8633663 C100.05858,54.0584158 101.044379,54.9722772 102.171006,54.9722772 C103.368047,54.9722772 104.283432,53.9881188 104.283432,52.8633663 C104.283432,51.6683168 103.368047,50.7544554 102.171006,50.7544554 Z" id="Shape" fill="#5C666F" fill-rule="nonzero"></path>
                </g>
                <g id="LAYER" transform="translate(0.000000, 32.000000)">
                    <rect id="Rectangle" stroke="#5C666F" stroke-width="5" fill="#FFFFFF" x="2.5" y="2.5" width="114" height="32.2574257" rx="8"></rect>
                    <rect id="Rectangle" fill="#71CDE1" fill-rule="nonzero" x="59.0775148" y="8.64653465" width="50.6982249" height="20.9485149"></rect>
                    <path d="M102.171006,25.3772277 C98.7207101,25.3772277 95.9745562,22.5653465 95.9745562,19.1910891 C95.9745562,15.7465347 98.7911243,13.0049505 102.171006,13.0049505 C105.621302,13.0049505 108.367456,15.8168317 108.367456,19.1910891 C108.367456,22.5653465 105.621302,25.3772277 102.171006,25.3772277 Z M102.171006,17.0118812 C100.973964,17.0118812 100.05858,17.9960396 100.05858,19.1207921 C100.05858,20.3158416 101.044379,21.229703 102.171006,21.229703 C103.368047,21.229703 104.283432,20.2455446 104.283432,19.1207921 C104.283432,17.9257426 103.368047,17.0118812 102.171006,17.0118812 Z" id="Shape" fill="#5C666F" fill-rule="nonzero"></path>
                    <path d="M19.2934911,25.3772277 C15.8431953,25.3772277 13.0970414,22.5653465 13.0970414,19.1910891 C13.0970414,15.7465347 15.9136095,13.0049505 19.2934911,13.0049505 C22.6733728,13.0049505 25.4899408,15.8168317 25.4899408,19.1910891 C25.4899408,22.5653465 22.6733728,25.3772277 19.2934911,25.3772277 Z M19.2934911,17.0118812 C18.0964497,17.0118812 17.1810651,17.9960396 17.1810651,19.1207921 C17.1810651,20.3158416 18.1668639,21.229703 19.2934911,21.229703 C20.4905325,21.229703 21.4059172,20.2455446 21.4059172,19.1207921 C21.4059172,17.9257426 20.4201183,17.0118812 19.2934911,17.0118812 Z" id="Shape" fill="#5C666F" fill-rule="nonzero"></path>
                </g>
                <g id="LAYER">
                    <rect id="Rectangle" stroke="#5C666F" stroke-width="5" fill="#FFFFFF" x="2.5" y="2.5" width="114" height="32.2574257" rx="8"></rect>
                    <rect id="Rectangle" fill="#71CDE1" fill-rule="nonzero" x="59.0775148" y="8.64653465" width="50.6982249" height="20.9485149"></rect>
                    <path d="M102.171006,25.3772277 C98.7207101,25.3772277 95.9745562,22.5653465 95.9745562,19.1910891 C95.9745562,15.7465347 98.7911243,13.0049505 102.171006,13.0049505 C105.621302,13.0049505 108.367456,15.8168317 108.367456,19.1910891 C108.367456,22.5653465 105.621302,25.3772277 102.171006,25.3772277 Z M102.171006,17.0118812 C100.973964,17.0118812 100.05858,17.9960396 100.05858,19.1207921 C100.05858,20.3158416 101.044379,21.229703 102.171006,21.229703 C103.368047,21.229703 104.283432,20.2455446 104.283432,19.1207921 C104.283432,17.9257426 103.368047,17.0118812 102.171006,17.0118812 Z" id="Shape" fill="#5C666F" fill-rule="nonzero"></path>
                    <path d="M19.2934911,25.3772277 C15.8431953,25.3772277 13.0970414,22.5653465 13.0970414,19.1910891 C13.0970414,15.7465347 15.9136095,13.0049505 19.2934911,13.0049505 C22.6733728,13.0049505 25.4899408,15.8168317 25.4899408,19.1910891 C25.4899408,22.5653465 22.6733728,25.3772277 19.2934911,25.3772277 Z M19.2934911,17.0118812 C18.0964497,17.0118812 17.1810651,17.9960396 17.1810651,19.1207921 C17.1810651,20.3158416 18.1668639,21.229703 19.2934911,21.229703 C20.4905325,21.229703 21.4059172,20.2455446 21.4059172,19.1207921 C21.4059172,17.9257426 20.4201183,17.0118812 19.2934911,17.0118812 Z" id="Shape" fill="#5C666F" fill-rule="nonzero"></path>
                </g>
            </g>
        </g>
    </g>
</svg>