<?xml version="1.0" encoding="UTF-8"?>
<svg width="288px" height="290px" viewBox="0 0 288 290" version="1.1" xmlns="http://www.w3.org/2000/svg" xmlns:xlink="http://www.w3.org/1999/xlink">
    <!-- Generator: Sketch 57.1 (83088) - https://sketch.com -->
    <title>Auth the way</title>
    <desc>Created with Sketch.</desc>
    <g id="Features-Icons" stroke="none" stroke-width="1" fill="none" fill-rule="evenodd">
        <g id="Auth-the-way...">
            <g id="Main-Outer-Circle" transform="translate(54.000000, 54.000000)" fill="#C5C8CA" fill-rule="nonzero">
                <rect id="Rectangle" x="87.0312539" y="0.656800349" width="3.62592569" height="28.1200087"></rect>
                <polygon id="Path" points="88.8932158 34.5777899 78.5054286 21.7959677 81.2493724 19.5345684 88.8932158 28.8751308 96.4390611 19.5345684 99.2810029 21.7959677"></polygon>
                <rect id="Rectangle" x="87.0312539" y="153.645379" width="3.62592569" height="28.1200087"></rect>
                <polygon id="Path" points="96.4390611 162.88762 88.8932158 153.547058 81.2493724 162.88762 78.5054286 160.626221 88.8932158 147.844398 99.2810029 160.626221"></polygon>
                <polygon id="Rectangle" transform="translate(143.096047, 37.362639) rotate(45.000000) translate(-143.096047, -37.362639) " points="141.256962 23.3229209 144.888841 23.3289096 144.935132 51.4023575 141.303253 51.3963688"></polygon>
                <polygon id="Path" points="129.072392 51.2924804 130.738358 34.872755 134.364284 35.2660418 133.09031 47.2612903 145.144063 46.0814298 145.438057 49.6210113"></polygon>
                <polygon id="Rectangle" transform="translate(35.360789, 145.427036) rotate(45.000000) translate(-35.360789, -145.427036) " points="33.5217033 131.387318 37.153583 131.393307 37.1998741 159.466755 33.5679944 159.460766"></polygon>
                <polygon id="Path" points="47.6360613 147.844398 44.0101356 147.451112 45.2841095 135.455863 33.2303565 136.635724 32.9363625 133.096142 49.3020271 131.424673"></polygon>
                <polygon id="Rectangle" transform="translate(143.061973, 146.122731) rotate(45.000000) translate(-143.061973, -146.122731) " points="129.022255 144.283646 157.095703 144.329937 157.101692 147.961817 129.028244 147.915525"></polygon>
                <polygon id="Path" points="130.738358 148.53265 129.072392 132.112925 145.438057 133.784394 145.144063 137.323976 133.09031 136.144115 134.364284 148.139364"></polygon>
                <polygon id="Rectangle" transform="translate(35.298678, 37.962067) rotate(45.000000) translate(-35.298678, -37.962067) " points="21.2589593 36.122982 49.3324072 36.1692731 49.3383959 39.8011527 21.264948 39.7548616"></polygon>
                <polygon id="Path" points="49.3020271 51.9807323 32.9363625 50.3092633 33.2303565 46.7696818 45.2841095 47.9495423 44.0101356 35.9542938 47.6360613 35.561007"></polygon>
                <polygon id="Rectangle" transform="translate(165.395069, 92.057034) rotate(-360.000000) translate(-165.395069, -92.057034) " points="151.381491 90.2380999 179.408647 90.2380999 179.408647 93.8759683 151.381491 93.8759683"></polygon>
                <polygon id="Path" transform="translate(157.218569, 92.075409) rotate(-45.000000) translate(-157.218569, -92.075409) " points="150.665284 100.270381 149.023597 83.8804376 165.413541 85.5221246 165.113234 89.0563648 153.041515 87.8983552 154.297846 99.8717528"></polygon>
                <polygon id="Rectangle" transform="translate(14.366360, 92.027764) rotate(-360.000000) translate(-14.366360, -92.027764) " points="0.352781484 90.2088303 28.3799383 90.2088303 28.3799383 93.8466987 0.352781484 93.8466987"></polygon>
                <polygon id="Path" transform="translate(22.558839, 92.005885) rotate(-45.000000) translate(-22.558839, -92.005885) " points="30.7538112 100.200857 14.3638678 98.5591699 14.6641742 95.0249298 26.7358935 96.1829394 25.4795622 84.2095418 29.1121241 83.8109136"></polygon>
            </g>
            <g id="Lock" transform="translate(112.000000, 95.000000)">
                <polygon id="Path-3" fill="#FFFFFF" points="6.26966292 44.2999033 19.0012068 43.8848535 17.9936746 25.2537313 23.535102 17.2221898 32.3932584 13.3283582 41.6244382 19.0430562 44.4642946 27.078911 44.4642946 45.6372858 55.7303371 45.6372858 55.7303371 23.5 49.8430039 11.2238806 41.6244382 4.68488746 29.4404494 2.30742959 17.9936746 4.68488746 9.20066583 13.3283582 6.26966292 25.5304312"></polygon>
                <path d="M58.5168539,47 L41.7996255,47 L41.7996255,28.1093248 C41.7996255,22.0643087 36.917603,17.0771704 31,17.0771704 C25.082397,17.0771704 20.2003745,22.0643087 20.2003745,28.1093248 L20.2003745,47 L3.48314607,47 L3.48314607,28.1093248 C3.48314607,12.5434084 15.7621723,0 31,0 C46.2378277,0 58.5168539,12.5434084 58.5168539,28.1093248 L58.5168539,47 L58.5168539,47 Z M46.3857678,42.3151125 L53.7827715,42.3151125 L53.7827715,28.1093248 C53.7827715,15.2636656 43.5749064,4.68488746 30.8520599,4.68488746 C18.2771536,4.68488746 7.92134831,15.1125402 7.92134831,28.1093248 L7.92134831,42.3151125 L15.3183521,42.3151125 L15.3183521,28.1093248 C15.3183521,19.3440514 22.2715356,12.392283 30.7041199,12.392283 C39.2846442,12.392283 46.0898876,19.4951768 46.0898876,28.1093248 L46.0898876,42.3151125 L46.3857678,42.3151125 Z" id="Shape" fill="#5C666F" fill-rule="nonzero"></path>
                <rect id="Rectangle" stroke="#5C666F" stroke-width="5" fill="#EC8D53" x="2.5" y="43.8880597" width="57" height="47.6119403" rx="9"></rect>
                <polygon id="Path" fill="#FFFFFF" fill-rule="nonzero" points="26.4614082 76.4626866 16.0224719 65.015815 19.4040991 61.7452802 26.6084354 69.7729564 42.0462989 54.0149254 45.2808989 57.4341208"></polygon>
            </g>
            <g id="Group-Copy-6" transform="translate(118.000000, 240.000000)">
                <circle id="Oval" fill="#FFFFFF" cx="24.4791667" cy="23.4375" r="23.4375"></circle>
                <path d="M24.7222222,49.7222222 C11.1111111,49.7222222 0,38.6111111 0,25 C0,11.3888889 11.1111111,0.277777778 24.7222222,0.277777778 C38.3333333,0.277777778 49.4444444,11.3888889 49.4444444,25 C49.4444444,38.6111111 38.3333333,49.7222222 24.7222222,49.7222222 Z M24.7222222,3.24074074 C12.6851852,3.24074074 2.96296296,12.962963 2.96296296,25 C2.96296296,37.037037 12.6851852,46.7592593 24.7222222,46.7592593 C36.7592593,46.7592593 46.4814815,37.037037 46.4814815,25 C46.4814815,12.962963 36.6666667,3.24074074 24.7222222,3.24074074 Z" id="Shape" fill="#5C666F" fill-rule="nonzero"></path>
                <path d="M24.537037,42.3148148 C23.4259259,42.3148148 22.4074074,42.2222222 21.3888889,42.037037 L21.9444444,39.1666667 C22.7777778,39.3518519 23.7037037,39.4444444 24.6296296,39.4444444 L24.537037,42.3148148 Z M27.6851852,42.037037 L27.1296296,39.1666667 C27.962963,38.9814815 28.8888889,38.7962963 29.7222222,38.4259259 L30.7407407,41.2037037 C29.8148148,41.5740741 28.7962963,41.8518519 27.6851852,42.037037 Z M18.3333333,41.1111111 C17.3148148,40.7407407 16.3888889,40.2777778 15.462963,39.6296296 L17.037037,37.1296296 C17.7777778,37.5925926 18.6111111,37.962963 19.4444444,38.3333333 L18.3333333,41.1111111 Z M33.7037037,39.8148148 L32.2222222,37.3148148 C32.962963,36.8518519 33.7037037,36.2962963 34.3518519,35.7407407 L36.2962963,37.962963 C35.462963,38.6111111 34.6296296,39.2592593 33.7037037,39.8148148 Z M12.962963,37.7777778 C12.2222222,37.037037 11.4814815,36.2962963 10.8333333,35.3703704 L13.1481481,33.6111111 C13.7037037,34.3518519 14.2592593,35 14.9074074,35.5555556 L12.962963,37.7777778 Z M38.4259259,35.5555556 L36.1111111,33.7962963 C36.6666667,33.0555556 37.1296296,32.3148148 37.5,31.5740741 L40.0925926,32.8703704 C39.6296296,33.8888889 39.0740741,34.7222222 38.4259259,35.5555556 Z M9.07407407,32.6851852 C8.61111111,31.7592593 8.24074074,30.7407407 7.96296296,29.7222222 L10.7407407,28.8888889 C11.0185185,29.7222222 11.2962963,30.5555556 11.6666667,31.3888889 L9.07407407,32.6851852 Z M41.2962963,29.9074074 L38.5185185,29.0740741 C38.7962963,28.2407407 38.9814815,27.3148148 39.0740741,26.4814815 L41.9444444,26.7592593 C41.8518519,27.8703704 41.6666667,28.8888889 41.2962963,29.9074074 Z M7.40740741,26.4814815 C7.40740741,26.0185185 7.31481481,25.462963 7.31481481,25 C7.31481481,24.4444444 7.31481481,23.8888889 7.40740741,23.3333333 L10.2777778,23.6111111 C10.2777778,24.0740741 10.1851852,24.537037 10.1851852,25 C10.1851852,25.462963 10.1851852,25.8333333 10.2777778,26.2962963 L7.40740741,26.4814815 Z M39.0740741,23.7962963 C38.9814815,22.8703704 38.8888889,22.037037 38.6111111,21.2037037 L41.4814815,20.462963 C41.7592593,21.4814815 41.9444444,22.5925926 42.037037,23.6111111 L39.0740741,23.7962963 Z M10.8333333,21.0185185 L8.05555556,20.1851852 C8.33333333,19.1666667 8.7037037,18.1481481 9.25925926,17.2222222 L11.8518519,18.5185185 C11.3888889,19.3518519 11.1111111,20.1851852 10.8333333,21.0185185 Z M37.6851852,18.7037037 C37.3148148,17.8703704 36.8518519,17.1296296 36.2962963,16.3888889 L38.6111111,14.6296296 C39.2592593,15.462963 39.8148148,16.3888889 40.2777778,17.4074074 L37.6851852,18.7037037 Z M13.1481481,16.2962963 L10.8333333,14.537037 C11.4814815,13.7037037 12.2222222,12.8703704 12.962963,12.2222222 L14.9074074,14.3518519 C14.3518519,14.9074074 13.7037037,15.5555556 13.1481481,16.2962963 Z M34.537037,14.4444444 C33.8888889,13.7962963 33.1481481,13.3333333 32.4074074,12.7777778 L33.9814815,10.2777778 C34.9074074,10.8333333 35.7407407,11.4814815 36.4814815,12.2222222 L34.537037,14.4444444 Z M17.1296296,12.6851852 L15.5555556,10.1851852 C16.4814815,9.62962963 17.4074074,9.16666667 18.4259259,8.7962963 L19.4444444,11.5740741 C18.7037037,11.8518519 17.8703704,12.2222222 17.1296296,12.6851852 Z M30.0925926,11.6666667 C29.2592593,11.2962963 28.4259259,11.1111111 27.5925926,10.9259259 L28.1481481,8.05555556 C29.1666667,8.24074074 30.1851852,8.61111111 31.2037037,8.98148148 L30.0925926,11.6666667 Z M22.037037,10.8333333 L21.4814815,7.96296296 C22.5,7.77777778 23.6111111,7.68518519 24.6296296,7.68518519 L24.9074074,7.68518519 L24.9074074,10.6481481 L24.7222222,10.6481481 C23.7962963,10.5555556 22.8703704,10.6481481 22.037037,10.8333333 Z" id="Shape" fill="#4A555F" fill-rule="nonzero"></path>
                <circle id="Oval" fill="#3F2E61" fill-rule="nonzero" cx="24.7222222" cy="25" r="9.25925926"></circle>
                <circle id="Oval" stroke="#5C666F" stroke-width="5" cx="25" cy="25" r="22.5"></circle>
            </g>
            <g id="Group-Copy-6" transform="translate(118.000000, 0.000000)">
                <circle id="Oval" fill="#FFFFFF" cx="24.4791667" cy="23.4375" r="23.4375"></circle>
                <path d="M24.7222222,49.7222222 C11.1111111,49.7222222 0,38.6111111 0,25 C0,11.3888889 11.1111111,0.277777778 24.7222222,0.277777778 C38.3333333,0.277777778 49.4444444,11.3888889 49.4444444,25 C49.4444444,38.6111111 38.3333333,49.7222222 24.7222222,49.7222222 Z M24.7222222,3.24074074 C12.6851852,3.24074074 2.96296296,12.962963 2.96296296,25 C2.96296296,37.037037 12.6851852,46.7592593 24.7222222,46.7592593 C36.7592593,46.7592593 46.4814815,37.037037 46.4814815,25 C46.4814815,12.962963 36.6666667,3.24074074 24.7222222,3.24074074 Z" id="Shape" fill="#5C666F" fill-rule="nonzero"></path>
                <path d="M24.537037,42.3148148 C23.4259259,42.3148148 22.4074074,42.2222222 21.3888889,42.037037 L21.9444444,39.1666667 C22.7777778,39.3518519 23.7037037,39.4444444 24.6296296,39.4444444 L24.537037,42.3148148 Z M27.6851852,42.037037 L27.1296296,39.1666667 C27.962963,38.9814815 28.8888889,38.7962963 29.7222222,38.4259259 L30.7407407,41.2037037 C29.8148148,41.5740741 28.7962963,41.8518519 27.6851852,42.037037 Z M18.3333333,41.1111111 C17.3148148,40.7407407 16.3888889,40.2777778 15.462963,39.6296296 L17.037037,37.1296296 C17.7777778,37.5925926 18.6111111,37.962963 19.4444444,38.3333333 L18.3333333,41.1111111 Z M33.7037037,39.8148148 L32.2222222,37.3148148 C32.962963,36.8518519 33.7037037,36.2962963 34.3518519,35.7407407 L36.2962963,37.962963 C35.462963,38.6111111 34.6296296,39.2592593 33.7037037,39.8148148 Z M12.962963,37.7777778 C12.2222222,37.037037 11.4814815,36.2962963 10.8333333,35.3703704 L13.1481481,33.6111111 C13.7037037,34.3518519 14.2592593,35 14.9074074,35.5555556 L12.962963,37.7777778 Z M38.4259259,35.5555556 L36.1111111,33.7962963 C36.6666667,33.0555556 37.1296296,32.3148148 37.5,31.5740741 L40.0925926,32.8703704 C39.6296296,33.8888889 39.0740741,34.7222222 38.4259259,35.5555556 Z M9.07407407,32.6851852 C8.61111111,31.7592593 8.24074074,30.7407407 7.96296296,29.7222222 L10.7407407,28.8888889 C11.0185185,29.7222222 11.2962963,30.5555556 11.6666667,31.3888889 L9.07407407,32.6851852 Z M41.2962963,29.9074074 L38.5185185,29.0740741 C38.7962963,28.2407407 38.9814815,27.3148148 39.0740741,26.4814815 L41.9444444,26.7592593 C41.8518519,27.8703704 41.6666667,28.8888889 41.2962963,29.9074074 Z M7.40740741,26.4814815 C7.40740741,26.0185185 7.31481481,25.462963 7.31481481,25 C7.31481481,24.4444444 7.31481481,23.8888889 7.40740741,23.3333333 L10.2777778,23.6111111 C10.2777778,24.0740741 10.1851852,24.537037 10.1851852,25 C10.1851852,25.462963 10.1851852,25.8333333 10.2777778,26.2962963 L7.40740741,26.4814815 Z M39.0740741,23.7962963 C38.9814815,22.8703704 38.8888889,22.037037 38.6111111,21.2037037 L41.4814815,20.462963 C41.7592593,21.4814815 41.9444444,22.5925926 42.037037,23.6111111 L39.0740741,23.7962963 Z M10.8333333,21.0185185 L8.05555556,20.1851852 C8.33333333,19.1666667 8.7037037,18.1481481 9.25925926,17.2222222 L11.8518519,18.5185185 C11.3888889,19.3518519 11.1111111,20.1851852 10.8333333,21.0185185 Z M37.6851852,18.7037037 C37.3148148,17.8703704 36.8518519,17.1296296 36.2962963,16.3888889 L38.6111111,14.6296296 C39.2592593,15.462963 39.8148148,16.3888889 40.2777778,17.4074074 L37.6851852,18.7037037 Z M13.1481481,16.2962963 L10.8333333,14.537037 C11.4814815,13.7037037 12.2222222,12.8703704 12.962963,12.2222222 L14.9074074,14.3518519 C14.3518519,14.9074074 13.7037037,15.5555556 13.1481481,16.2962963 Z M34.537037,14.4444444 C33.8888889,13.7962963 33.1481481,13.3333333 32.4074074,12.7777778 L33.9814815,10.2777778 C34.9074074,10.8333333 35.7407407,11.4814815 36.4814815,12.2222222 L34.537037,14.4444444 Z M17.1296296,12.6851852 L15.5555556,10.1851852 C16.4814815,9.62962963 17.4074074,9.16666667 18.4259259,8.7962963 L19.4444444,11.5740741 C18.7037037,11.8518519 17.8703704,12.2222222 17.1296296,12.6851852 Z M30.0925926,11.6666667 C29.2592593,11.2962963 28.4259259,11.1111111 27.5925926,10.9259259 L28.1481481,8.05555556 C29.1666667,8.24074074 30.1851852,8.61111111 31.2037037,8.98148148 L30.0925926,11.6666667 Z M22.037037,10.8333333 L21.4814815,7.96296296 C22.5,7.77777778 23.6111111,7.68518519 24.6296296,7.68518519 L24.9074074,7.68518519 L24.9074074,10.6481481 L24.7222222,10.6481481 C23.7962963,10.5555556 22.8703704,10.6481481 22.037037,10.8333333 Z" id="Shape" fill="#4A555F" fill-rule="nonzero"></path>
                <circle id="Oval" fill="#3F2E61" fill-rule="nonzero" cx="24.7222222" cy="25" r="9.25925926"></circle>
                <circle id="Oval" stroke="#5C666F" stroke-width="5" cx="25" cy="25" r="22.5"></circle>
            </g>
            <g id="Group-Copy-6" transform="translate(35.000000, 204.000000)">
                <circle id="Oval" fill="#FFFFFF" cx="24.4791667" cy="23.4375" r="23.4375"></circle>
                <path d="M24.7222222,49.7222222 C11.1111111,49.7222222 0,38.6111111 0,25 C0,11.3888889 11.1111111,0.277777778 24.7222222,0.277777778 C38.3333333,0.277777778 49.4444444,11.3888889 49.4444444,25 C49.4444444,38.6111111 38.3333333,49.7222222 24.7222222,49.7222222 Z M24.7222222,3.24074074 C12.6851852,3.24074074 2.96296296,12.962963 2.96296296,25 C2.96296296,37.037037 12.6851852,46.7592593 24.7222222,46.7592593 C36.7592593,46.7592593 46.4814815,37.037037 46.4814815,25 C46.4814815,12.962963 36.6666667,3.24074074 24.7222222,3.24074074 Z" id="Shape" fill="#5C666F" fill-rule="nonzero"></path>
                <path d="M24.537037,42.3148148 C23.4259259,42.3148148 22.4074074,42.2222222 21.3888889,42.037037 L21.9444444,39.1666667 C22.7777778,39.3518519 23.7037037,39.4444444 24.6296296,39.4444444 L24.537037,42.3148148 Z M27.6851852,42.037037 L27.1296296,39.1666667 C27.962963,38.9814815 28.8888889,38.7962963 29.7222222,38.4259259 L30.7407407,41.2037037 C29.8148148,41.5740741 28.7962963,41.8518519 27.6851852,42.037037 Z M18.3333333,41.1111111 C17.3148148,40.7407407 16.3888889,40.2777778 15.462963,39.6296296 L17.037037,37.1296296 C17.7777778,37.5925926 18.6111111,37.962963 19.4444444,38.3333333 L18.3333333,41.1111111 Z M33.7037037,39.8148148 L32.2222222,37.3148148 C32.962963,36.8518519 33.7037037,36.2962963 34.3518519,35.7407407 L36.2962963,37.962963 C35.462963,38.6111111 34.6296296,39.2592593 33.7037037,39.8148148 Z M12.962963,37.7777778 C12.2222222,37.037037 11.4814815,36.2962963 10.8333333,35.3703704 L13.1481481,33.6111111 C13.7037037,34.3518519 14.2592593,35 14.9074074,35.5555556 L12.962963,37.7777778 Z M38.4259259,35.5555556 L36.1111111,33.7962963 C36.6666667,33.0555556 37.1296296,32.3148148 37.5,31.5740741 L40.0925926,32.8703704 C39.6296296,33.8888889 39.0740741,34.7222222 38.4259259,35.5555556 Z M9.07407407,32.6851852 C8.61111111,31.7592593 8.24074074,30.7407407 7.96296296,29.7222222 L10.7407407,28.8888889 C11.0185185,29.7222222 11.2962963,30.5555556 11.6666667,31.3888889 L9.07407407,32.6851852 Z M41.2962963,29.9074074 L38.5185185,29.0740741 C38.7962963,28.2407407 38.9814815,27.3148148 39.0740741,26.4814815 L41.9444444,26.7592593 C41.8518519,27.8703704 41.6666667,28.8888889 41.2962963,29.9074074 Z M7.40740741,26.4814815 C7.40740741,26.0185185 7.31481481,25.462963 7.31481481,25 C7.31481481,24.4444444 7.31481481,23.8888889 7.40740741,23.3333333 L10.2777778,23.6111111 C10.2777778,24.0740741 10.1851852,24.537037 10.1851852,25 C10.1851852,25.462963 10.1851852,25.8333333 10.2777778,26.2962963 L7.40740741,26.4814815 Z M39.0740741,23.7962963 C38.9814815,22.8703704 38.8888889,22.037037 38.6111111,21.2037037 L41.4814815,20.462963 C41.7592593,21.4814815 41.9444444,22.5925926 42.037037,23.6111111 L39.0740741,23.7962963 Z M10.8333333,21.0185185 L8.05555556,20.1851852 C8.33333333,19.1666667 8.7037037,18.1481481 9.25925926,17.2222222 L11.8518519,18.5185185 C11.3888889,19.3518519 11.1111111,20.1851852 10.8333333,21.0185185 Z M37.6851852,18.7037037 C37.3148148,17.8703704 36.8518519,17.1296296 36.2962963,16.3888889 L38.6111111,14.6296296 C39.2592593,15.462963 39.8148148,16.3888889 40.2777778,17.4074074 L37.6851852,18.7037037 Z M13.1481481,16.2962963 L10.8333333,14.537037 C11.4814815,13.7037037 12.2222222,12.8703704 12.962963,12.2222222 L14.9074074,14.3518519 C14.3518519,14.9074074 13.7037037,15.5555556 13.1481481,16.2962963 Z M34.537037,14.4444444 C33.8888889,13.7962963 33.1481481,13.3333333 32.4074074,12.7777778 L33.9814815,10.2777778 C34.9074074,10.8333333 35.7407407,11.4814815 36.4814815,12.2222222 L34.537037,14.4444444 Z M17.1296296,12.6851852 L15.5555556,10.1851852 C16.4814815,9.62962963 17.4074074,9.16666667 18.4259259,8.7962963 L19.4444444,11.5740741 C18.7037037,11.8518519 17.8703704,12.2222222 17.1296296,12.6851852 Z M30.0925926,11.6666667 C29.2592593,11.2962963 28.4259259,11.1111111 27.5925926,10.9259259 L28.1481481,8.05555556 C29.1666667,8.24074074 30.1851852,8.61111111 31.2037037,8.98148148 L30.0925926,11.6666667 Z M22.037037,10.8333333 L21.4814815,7.96296296 C22.5,7.77777778 23.6111111,7.68518519 24.6296296,7.68518519 L24.9074074,7.68518519 L24.9074074,10.6481481 L24.7222222,10.6481481 C23.7962963,10.5555556 22.8703704,10.6481481 22.037037,10.8333333 Z" id="Shape" fill="#4A555F" fill-rule="nonzero"></path>
                <circle id="Oval" fill="#3F2E61" fill-rule="nonzero" cx="24.7222222" cy="25" r="9.25925926"></circle>
                <circle id="Oval" stroke="#5C666F" stroke-width="5" cx="25" cy="25" r="22.5"></circle>
            </g>
            <g id="Group-Copy-8" transform="translate(204.000000, 204.000000)">
                <circle id="Oval" fill="#FFFFFF" cx="24.4791667" cy="23.4375" r="23.4375"></circle>
                <path d="M24.7222222,49.7222222 C11.1111111,49.7222222 0,38.6111111 0,25 C0,11.3888889 11.1111111,0.277777778 24.7222222,0.277777778 C38.3333333,0.277777778 49.4444444,11.3888889 49.4444444,25 C49.4444444,38.6111111 38.3333333,49.7222222 24.7222222,49.7222222 Z M24.7222222,3.24074074 C12.6851852,3.24074074 2.96296296,12.962963 2.96296296,25 C2.96296296,37.037037 12.6851852,46.7592593 24.7222222,46.7592593 C36.7592593,46.7592593 46.4814815,37.037037 46.4814815,25 C46.4814815,12.962963 36.6666667,3.24074074 24.7222222,3.24074074 Z" id="Shape" fill="#5C666F" fill-rule="nonzero"></path>
                <path d="M24.537037,42.3148148 C23.4259259,42.3148148 22.4074074,42.2222222 21.3888889,42.037037 L21.9444444,39.1666667 C22.7777778,39.3518519 23.7037037,39.4444444 24.6296296,39.4444444 L24.537037,42.3148148 Z M27.6851852,42.037037 L27.1296296,39.1666667 C27.962963,38.9814815 28.8888889,38.7962963 29.7222222,38.4259259 L30.7407407,41.2037037 C29.8148148,41.5740741 28.7962963,41.8518519 27.6851852,42.037037 Z M18.3333333,41.1111111 C17.3148148,40.7407407 16.3888889,40.2777778 15.462963,39.6296296 L17.037037,37.1296296 C17.7777778,37.5925926 18.6111111,37.962963 19.4444444,38.3333333 L18.3333333,41.1111111 Z M33.7037037,39.8148148 L32.2222222,37.3148148 C32.962963,36.8518519 33.7037037,36.2962963 34.3518519,35.7407407 L36.2962963,37.962963 C35.462963,38.6111111 34.6296296,39.2592593 33.7037037,39.8148148 Z M12.962963,37.7777778 C12.2222222,37.037037 11.4814815,36.2962963 10.8333333,35.3703704 L13.1481481,33.6111111 C13.7037037,34.3518519 14.2592593,35 14.9074074,35.5555556 L12.962963,37.7777778 Z M38.4259259,35.5555556 L36.1111111,33.7962963 C36.6666667,33.0555556 37.1296296,32.3148148 37.5,31.5740741 L40.0925926,32.8703704 C39.6296296,33.8888889 39.0740741,34.7222222 38.4259259,35.5555556 Z M9.07407407,32.6851852 C8.61111111,31.7592593 8.24074074,30.7407407 7.96296296,29.7222222 L10.7407407,28.8888889 C11.0185185,29.7222222 11.2962963,30.5555556 11.6666667,31.3888889 L9.07407407,32.6851852 Z M41.2962963,29.9074074 L38.5185185,29.0740741 C38.7962963,28.2407407 38.9814815,27.3148148 39.0740741,26.4814815 L41.9444444,26.7592593 C41.8518519,27.8703704 41.6666667,28.8888889 41.2962963,29.9074074 Z M7.40740741,26.4814815 C7.40740741,26.0185185 7.31481481,25.462963 7.31481481,25 C7.31481481,24.4444444 7.31481481,23.8888889 7.40740741,23.3333333 L10.2777778,23.6111111 C10.2777778,24.0740741 10.1851852,24.537037 10.1851852,25 C10.1851852,25.462963 10.1851852,25.8333333 10.2777778,26.2962963 L7.40740741,26.4814815 Z M39.0740741,23.7962963 C38.9814815,22.8703704 38.8888889,22.037037 38.6111111,21.2037037 L41.4814815,20.462963 C41.7592593,21.4814815 41.9444444,22.5925926 42.037037,23.6111111 L39.0740741,23.7962963 Z M10.8333333,21.0185185 L8.05555556,20.1851852 C8.33333333,19.1666667 8.7037037,18.1481481 9.25925926,17.2222222 L11.8518519,18.5185185 C11.3888889,19.3518519 11.1111111,20.1851852 10.8333333,21.0185185 Z M37.6851852,18.7037037 C37.3148148,17.8703704 36.8518519,17.1296296 36.2962963,16.3888889 L38.6111111,14.6296296 C39.2592593,15.462963 39.8148148,16.3888889 40.2777778,17.4074074 L37.6851852,18.7037037 Z M13.1481481,16.2962963 L10.8333333,14.537037 C11.4814815,13.7037037 12.2222222,12.8703704 12.962963,12.2222222 L14.9074074,14.3518519 C14.3518519,14.9074074 13.7037037,15.5555556 13.1481481,16.2962963 Z M34.537037,14.4444444 C33.8888889,13.7962963 33.1481481,13.3333333 32.4074074,12.7777778 L33.9814815,10.2777778 C34.9074074,10.8333333 35.7407407,11.4814815 36.4814815,12.2222222 L34.537037,14.4444444 Z M17.1296296,12.6851852 L15.5555556,10.1851852 C16.4814815,9.62962963 17.4074074,9.16666667 18.4259259,8.7962963 L19.4444444,11.5740741 C18.7037037,11.8518519 17.8703704,12.2222222 17.1296296,12.6851852 Z M30.0925926,11.6666667 C29.2592593,11.2962963 28.4259259,11.1111111 27.5925926,10.9259259 L28.1481481,8.05555556 C29.1666667,8.24074074 30.1851852,8.61111111 31.2037037,8.98148148 L30.0925926,11.6666667 Z M22.037037,10.8333333 L21.4814815,7.96296296 C22.5,7.77777778 23.6111111,7.68518519 24.6296296,7.68518519 L24.9074074,7.68518519 L24.9074074,10.6481481 L24.7222222,10.6481481 C23.7962963,10.5555556 22.8703704,10.6481481 22.037037,10.8333333 Z" id="Shape" fill="#4A555F" fill-rule="nonzero"></path>
                <circle id="Oval" fill="#3F2E61" fill-rule="nonzero" cx="24.7222222" cy="25" r="9.25925926"></circle>
                <circle id="Oval" stroke="#5C666F" stroke-width="5" cx="25" cy="25" r="22.5"></circle>
            </g>
            <g id="Group-Copy-6" transform="translate(0.000000, 122.000000)">
                <circle id="Oval" fill="#FFFFFF" cx="24.4791667" cy="23.4375" r="23.4375"></circle>
                <path d="M24.7222222,49.7222222 C11.1111111,49.7222222 0,38.6111111 0,25 C0,11.3888889 11.1111111,0.277777778 24.7222222,0.277777778 C38.3333333,0.277777778 49.4444444,11.3888889 49.4444444,25 C49.4444444,38.6111111 38.3333333,49.7222222 24.7222222,49.7222222 Z M24.7222222,3.24074074 C12.6851852,3.24074074 2.96296296,12.962963 2.96296296,25 C2.96296296,37.037037 12.6851852,46.7592593 24.7222222,46.7592593 C36.7592593,46.7592593 46.4814815,37.037037 46.4814815,25 C46.4814815,12.962963 36.6666667,3.24074074 24.7222222,3.24074074 Z" id="Shape" fill="#5C666F" fill-rule="nonzero"></path>
                <path d="M24.537037,42.3148148 C23.4259259,42.3148148 22.4074074,42.2222222 21.3888889,42.037037 L21.9444444,39.1666667 C22.7777778,39.3518519 23.7037037,39.4444444 24.6296296,39.4444444 L24.537037,42.3148148 Z M27.6851852,42.037037 L27.1296296,39.1666667 C27.962963,38.9814815 28.8888889,38.7962963 29.7222222,38.4259259 L30.7407407,41.2037037 C29.8148148,41.5740741 28.7962963,41.8518519 27.6851852,42.037037 Z M18.3333333,41.1111111 C17.3148148,40.7407407 16.3888889,40.2777778 15.462963,39.6296296 L17.037037,37.1296296 C17.7777778,37.5925926 18.6111111,37.962963 19.4444444,38.3333333 L18.3333333,41.1111111 Z M33.7037037,39.8148148 L32.2222222,37.3148148 C32.962963,36.8518519 33.7037037,36.2962963 34.3518519,35.7407407 L36.2962963,37.962963 C35.462963,38.6111111 34.6296296,39.2592593 33.7037037,39.8148148 Z M12.962963,37.7777778 C12.2222222,37.037037 11.4814815,36.2962963 10.8333333,35.3703704 L13.1481481,33.6111111 C13.7037037,34.3518519 14.2592593,35 14.9074074,35.5555556 L12.962963,37.7777778 Z M38.4259259,35.5555556 L36.1111111,33.7962963 C36.6666667,33.0555556 37.1296296,32.3148148 37.5,31.5740741 L40.0925926,32.8703704 C39.6296296,33.8888889 39.0740741,34.7222222 38.4259259,35.5555556 Z M9.07407407,32.6851852 C8.61111111,31.7592593 8.24074074,30.7407407 7.96296296,29.7222222 L10.7407407,28.8888889 C11.0185185,29.7222222 11.2962963,30.5555556 11.6666667,31.3888889 L9.07407407,32.6851852 Z M41.2962963,29.9074074 L38.5185185,29.0740741 C38.7962963,28.2407407 38.9814815,27.3148148 39.0740741,26.4814815 L41.9444444,26.7592593 C41.8518519,27.8703704 41.6666667,28.8888889 41.2962963,29.9074074 Z M7.40740741,26.4814815 C7.40740741,26.0185185 7.31481481,25.462963 7.31481481,25 C7.31481481,24.4444444 7.31481481,23.8888889 7.40740741,23.3333333 L10.2777778,23.6111111 C10.2777778,24.0740741 10.1851852,24.537037 10.1851852,25 C10.1851852,25.462963 10.1851852,25.8333333 10.2777778,26.2962963 L7.40740741,26.4814815 Z M39.0740741,23.7962963 C38.9814815,22.8703704 38.8888889,22.037037 38.6111111,21.2037037 L41.4814815,20.462963 C41.7592593,21.4814815 41.9444444,22.5925926 42.037037,23.6111111 L39.0740741,23.7962963 Z M10.8333333,21.0185185 L8.05555556,20.1851852 C8.33333333,19.1666667 8.7037037,18.1481481 9.25925926,17.2222222 L11.8518519,18.5185185 C11.3888889,19.3518519 11.1111111,20.1851852 10.8333333,21.0185185 Z M37.6851852,18.7037037 C37.3148148,17.8703704 36.8518519,17.1296296 36.2962963,16.3888889 L38.6111111,14.6296296 C39.2592593,15.462963 39.8148148,16.3888889 40.2777778,17.4074074 L37.6851852,18.7037037 Z M13.1481481,16.2962963 L10.8333333,14.537037 C11.4814815,13.7037037 12.2222222,12.8703704 12.962963,12.2222222 L14.9074074,14.3518519 C14.3518519,14.9074074 13.7037037,15.5555556 13.1481481,16.2962963 Z M34.537037,14.4444444 C33.8888889,13.7962963 33.1481481,13.3333333 32.4074074,12.7777778 L33.9814815,10.2777778 C34.9074074,10.8333333 35.7407407,11.4814815 36.4814815,12.2222222 L34.537037,14.4444444 Z M17.1296296,12.6851852 L15.5555556,10.1851852 C16.4814815,9.62962963 17.4074074,9.16666667 18.4259259,8.7962963 L19.4444444,11.5740741 C18.7037037,11.8518519 17.8703704,12.2222222 17.1296296,12.6851852 Z M30.0925926,11.6666667 C29.2592593,11.2962963 28.4259259,11.1111111 27.5925926,10.9259259 L28.1481481,8.05555556 C29.1666667,8.24074074 30.1851852,8.61111111 31.2037037,8.98148148 L30.0925926,11.6666667 Z M22.037037,10.8333333 L21.4814815,7.96296296 C22.5,7.77777778 23.6111111,7.68518519 24.6296296,7.68518519 L24.9074074,7.68518519 L24.9074074,10.6481481 L24.7222222,10.6481481 C23.7962963,10.5555556 22.8703704,10.6481481 22.037037,10.8333333 Z" id="Shape" fill="#4A555F" fill-rule="nonzero"></path>
                <circle id="Oval" fill="#3F2E61" fill-rule="nonzero" cx="24.7222222" cy="25" r="9.25925926"></circle>
                <circle id="Oval" stroke="#5C666F" stroke-width="5" cx="25" cy="25" r="22.5"></circle>
            </g>
            <g id="Group-Copy-7" transform="translate(238.000000, 122.000000)">
                <circle id="Oval" fill="#FFFFFF" cx="24.4791667" cy="23.4375" r="23.4375"></circle>
                <path d="M24.7222222,49.7222222 C11.1111111,49.7222222 0,38.6111111 0,25 C0,11.3888889 11.1111111,0.277777778 24.7222222,0.277777778 C38.3333333,0.277777778 49.4444444,11.3888889 49.4444444,25 C49.4444444,38.6111111 38.3333333,49.7222222 24.7222222,49.7222222 Z M24.7222222,3.24074074 C12.6851852,3.24074074 2.96296296,12.962963 2.96296296,25 C2.96296296,37.037037 12.6851852,46.7592593 24.7222222,46.7592593 C36.7592593,46.7592593 46.4814815,37.037037 46.4814815,25 C46.4814815,12.962963 36.6666667,3.24074074 24.7222222,3.24074074 Z" id="Shape" fill="#5C666F" fill-rule="nonzero"></path>
                <path d="M24.537037,42.3148148 C23.4259259,42.3148148 22.4074074,42.2222222 21.3888889,42.037037 L21.9444444,39.1666667 C22.7777778,39.3518519 23.7037037,39.4444444 24.6296296,39.4444444 L24.537037,42.3148148 Z M27.6851852,42.037037 L27.1296296,39.1666667 C27.962963,38.9814815 28.8888889,38.7962963 29.7222222,38.4259259 L30.7407407,41.2037037 C29.8148148,41.5740741 28.7962963,41.8518519 27.6851852,42.037037 Z M18.3333333,41.1111111 C17.3148148,40.7407407 16.3888889,40.2777778 15.462963,39.6296296 L17.037037,37.1296296 C17.7777778,37.5925926 18.6111111,37.962963 19.4444444,38.3333333 L18.3333333,41.1111111 Z M33.7037037,39.8148148 L32.2222222,37.3148148 C32.962963,36.8518519 33.7037037,36.2962963 34.3518519,35.7407407 L36.2962963,37.962963 C35.462963,38.6111111 34.6296296,39.2592593 33.7037037,39.8148148 Z M12.962963,37.7777778 C12.2222222,37.037037 11.4814815,36.2962963 10.8333333,35.3703704 L13.1481481,33.6111111 C13.7037037,34.3518519 14.2592593,35 14.9074074,35.5555556 L12.962963,37.7777778 Z M38.4259259,35.5555556 L36.1111111,33.7962963 C36.6666667,33.0555556 37.1296296,32.3148148 37.5,31.5740741 L40.0925926,32.8703704 C39.6296296,33.8888889 39.0740741,34.7222222 38.4259259,35.5555556 Z M9.07407407,32.6851852 C8.61111111,31.7592593 8.24074074,30.7407407 7.96296296,29.7222222 L10.7407407,28.8888889 C11.0185185,29.7222222 11.2962963,30.5555556 11.6666667,31.3888889 L9.07407407,32.6851852 Z M41.2962963,29.9074074 L38.5185185,29.0740741 C38.7962963,28.2407407 38.9814815,27.3148148 39.0740741,26.4814815 L41.9444444,26.7592593 C41.8518519,27.8703704 41.6666667,28.8888889 41.2962963,29.9074074 Z M7.40740741,26.4814815 C7.40740741,26.0185185 7.31481481,25.462963 7.31481481,25 C7.31481481,24.4444444 7.31481481,23.8888889 7.40740741,23.3333333 L10.2777778,23.6111111 C10.2777778,24.0740741 10.1851852,24.537037 10.1851852,25 C10.1851852,25.462963 10.1851852,25.8333333 10.2777778,26.2962963 L7.40740741,26.4814815 Z M39.0740741,23.7962963 C38.9814815,22.8703704 38.8888889,22.037037 38.6111111,21.2037037 L41.4814815,20.462963 C41.7592593,21.4814815 41.9444444,22.5925926 42.037037,23.6111111 L39.0740741,23.7962963 Z M10.8333333,21.0185185 L8.05555556,20.1851852 C8.33333333,19.1666667 8.7037037,18.1481481 9.25925926,17.2222222 L11.8518519,18.5185185 C11.3888889,19.3518519 11.1111111,20.1851852 10.8333333,21.0185185 Z M37.6851852,18.7037037 C37.3148148,17.8703704 36.8518519,17.1296296 36.2962963,16.3888889 L38.6111111,14.6296296 C39.2592593,15.462963 39.8148148,16.3888889 40.2777778,17.4074074 L37.6851852,18.7037037 Z M13.1481481,16.2962963 L10.8333333,14.537037 C11.4814815,13.7037037 12.2222222,12.8703704 12.962963,12.2222222 L14.9074074,14.3518519 C14.3518519,14.9074074 13.7037037,15.5555556 13.1481481,16.2962963 Z M34.537037,14.4444444 C33.8888889,13.7962963 33.1481481,13.3333333 32.4074074,12.7777778 L33.9814815,10.2777778 C34.9074074,10.8333333 35.7407407,11.4814815 36.4814815,12.2222222 L34.537037,14.4444444 Z M17.1296296,12.6851852 L15.5555556,10.1851852 C16.4814815,9.62962963 17.4074074,9.16666667 18.4259259,8.7962963 L19.4444444,11.5740741 C18.7037037,11.8518519 17.8703704,12.2222222 17.1296296,12.6851852 Z M30.0925926,11.6666667 C29.2592593,11.2962963 28.4259259,11.1111111 27.5925926,10.9259259 L28.1481481,8.05555556 C29.1666667,8.24074074 30.1851852,8.61111111 31.2037037,8.98148148 L30.0925926,11.6666667 Z M22.037037,10.8333333 L21.4814815,7.96296296 C22.5,7.77777778 23.6111111,7.68518519 24.6296296,7.68518519 L24.9074074,7.68518519 L24.9074074,10.6481481 L24.7222222,10.6481481 C23.7962963,10.5555556 22.8703704,10.6481481 22.037037,10.8333333 Z" id="Shape" fill="#4A555F" fill-rule="nonzero"></path>
                <circle id="Oval" fill="#3F2E61" fill-rule="nonzero" cx="24.7222222" cy="25" r="9.25925926"></circle>
                <circle id="Oval" stroke="#5C666F" stroke-width="5" cx="25" cy="25" r="22.5"></circle>
            </g>
            <g id="Group-Copy-6" transform="translate(33.000000, 37.000000)">
                <circle id="Oval" fill="#FFFFFF" cx="24.4791667" cy="23.4375" r="23.4375"></circle>
                <path d="M24.7222222,49.7222222 C11.1111111,49.7222222 0,38.6111111 0,25 C0,11.3888889 11.1111111,0.277777778 24.7222222,0.277777778 C38.3333333,0.277777778 49.4444444,11.3888889 49.4444444,25 C49.4444444,38.6111111 38.3333333,49.7222222 24.7222222,49.7222222 Z M24.7222222,3.24074074 C12.6851852,3.24074074 2.96296296,12.962963 2.96296296,25 C2.96296296,37.037037 12.6851852,46.7592593 24.7222222,46.7592593 C36.7592593,46.7592593 46.4814815,37.037037 46.4814815,25 C46.4814815,12.962963 36.6666667,3.24074074 24.7222222,3.24074074 Z" id="Shape" fill="#5C666F" fill-rule="nonzero"></path>
                <path d="M24.537037,42.3148148 C23.4259259,42.3148148 22.4074074,42.2222222 21.3888889,42.037037 L21.9444444,39.1666667 C22.7777778,39.3518519 23.7037037,39.4444444 24.6296296,39.4444444 L24.537037,42.3148148 Z M27.6851852,42.037037 L27.1296296,39.1666667 C27.962963,38.9814815 28.8888889,38.7962963 29.7222222,38.4259259 L30.7407407,41.2037037 C29.8148148,41.5740741 28.7962963,41.8518519 27.6851852,42.037037 Z M18.3333333,41.1111111 C17.3148148,40.7407407 16.3888889,40.2777778 15.462963,39.6296296 L17.037037,37.1296296 C17.7777778,37.5925926 18.6111111,37.962963 19.4444444,38.3333333 L18.3333333,41.1111111 Z M33.7037037,39.8148148 L32.2222222,37.3148148 C32.962963,36.8518519 33.7037037,36.2962963 34.3518519,35.7407407 L36.2962963,37.962963 C35.462963,38.6111111 34.6296296,39.2592593 33.7037037,39.8148148 Z M12.962963,37.7777778 C12.2222222,37.037037 11.4814815,36.2962963 10.8333333,35.3703704 L13.1481481,33.6111111 C13.7037037,34.3518519 14.2592593,35 14.9074074,35.5555556 L12.962963,37.7777778 Z M38.4259259,35.5555556 L36.1111111,33.7962963 C36.6666667,33.0555556 37.1296296,32.3148148 37.5,31.5740741 L40.0925926,32.8703704 C39.6296296,33.8888889 39.0740741,34.7222222 38.4259259,35.5555556 Z M9.07407407,32.6851852 C8.61111111,31.7592593 8.24074074,30.7407407 7.96296296,29.7222222 L10.7407407,28.8888889 C11.0185185,29.7222222 11.2962963,30.5555556 11.6666667,31.3888889 L9.07407407,32.6851852 Z M41.2962963,29.9074074 L38.5185185,29.0740741 C38.7962963,28.2407407 38.9814815,27.3148148 39.0740741,26.4814815 L41.9444444,26.7592593 C41.8518519,27.8703704 41.6666667,28.8888889 41.2962963,29.9074074 Z M7.40740741,26.4814815 C7.40740741,26.0185185 7.31481481,25.462963 7.31481481,25 C7.31481481,24.4444444 7.31481481,23.8888889 7.40740741,23.3333333 L10.2777778,23.6111111 C10.2777778,24.0740741 10.1851852,24.537037 10.1851852,25 C10.1851852,25.462963 10.1851852,25.8333333 10.2777778,26.2962963 L7.40740741,26.4814815 Z M39.0740741,23.7962963 C38.9814815,22.8703704 38.8888889,22.037037 38.6111111,21.2037037 L41.4814815,20.462963 C41.7592593,21.4814815 41.9444444,22.5925926 42.037037,23.6111111 L39.0740741,23.7962963 Z M10.8333333,21.0185185 L8.05555556,20.1851852 C8.33333333,19.1666667 8.7037037,18.1481481 9.25925926,17.2222222 L11.8518519,18.5185185 C11.3888889,19.3518519 11.1111111,20.1851852 10.8333333,21.0185185 Z M37.6851852,18.7037037 C37.3148148,17.8703704 36.8518519,17.1296296 36.2962963,16.3888889 L38.6111111,14.6296296 C39.2592593,15.462963 39.8148148,16.3888889 40.2777778,17.4074074 L37.6851852,18.7037037 Z M13.1481481,16.2962963 L10.8333333,14.537037 C11.4814815,13.7037037 12.2222222,12.8703704 12.962963,12.2222222 L14.9074074,14.3518519 C14.3518519,14.9074074 13.7037037,15.5555556 13.1481481,16.2962963 Z M34.537037,14.4444444 C33.8888889,13.7962963 33.1481481,13.3333333 32.4074074,12.7777778 L33.9814815,10.2777778 C34.9074074,10.8333333 35.7407407,11.4814815 36.4814815,12.2222222 L34.537037,14.4444444 Z M17.1296296,12.6851852 L15.5555556,10.1851852 C16.4814815,9.62962963 17.4074074,9.16666667 18.4259259,8.7962963 L19.4444444,11.5740741 C18.7037037,11.8518519 17.8703704,12.2222222 17.1296296,12.6851852 Z M30.0925926,11.6666667 C29.2592593,11.2962963 28.4259259,11.1111111 27.5925926,10.9259259 L28.1481481,8.05555556 C29.1666667,8.24074074 30.1851852,8.61111111 31.2037037,8.98148148 L30.0925926,11.6666667 Z M22.037037,10.8333333 L21.4814815,7.96296296 C22.5,7.77777778 23.6111111,7.68518519 24.6296296,7.68518519 L24.9074074,7.68518519 L24.9074074,10.6481481 L24.7222222,10.6481481 C23.7962963,10.5555556 22.8703704,10.6481481 22.037037,10.8333333 Z" id="Shape" fill="#4A555F" fill-rule="nonzero"></path>
                <circle id="Oval" fill="#3F2E61" fill-rule="nonzero" cx="24.7222222" cy="25" r="9.25925926"></circle>
                <circle id="Oval" stroke="#5C666F" stroke-width="5" cx="25" cy="25" r="22.5"></circle>
            </g>
            <g id="Group-Copy-9" transform="translate(202.000000, 37.000000)">
                <circle id="Oval" fill="#FFFFFF" cx="24.4791667" cy="23.4375" r="23.4375"></circle>
                <path d="M24.7222222,49.7222222 C11.1111111,49.7222222 0,38.6111111 0,25 C0,11.3888889 11.1111111,0.277777778 24.7222222,0.277777778 C38.3333333,0.277777778 49.4444444,11.3888889 49.4444444,25 C49.4444444,38.6111111 38.3333333,49.7222222 24.7222222,49.7222222 Z M24.7222222,3.24074074 C12.6851852,3.24074074 2.96296296,12.962963 2.96296296,25 C2.96296296,37.037037 12.6851852,46.7592593 24.7222222,46.7592593 C36.7592593,46.7592593 46.4814815,37.037037 46.4814815,25 C46.4814815,12.962963 36.6666667,3.24074074 24.7222222,3.24074074 Z" id="Shape" fill="#5C666F" fill-rule="nonzero"></path>
                <path d="M24.537037,42.3148148 C23.4259259,42.3148148 22.4074074,42.2222222 21.3888889,42.037037 L21.9444444,39.1666667 C22.7777778,39.3518519 23.7037037,39.4444444 24.6296296,39.4444444 L24.537037,42.3148148 Z M27.6851852,42.037037 L27.1296296,39.1666667 C27.962963,38.9814815 28.8888889,38.7962963 29.7222222,38.4259259 L30.7407407,41.2037037 C29.8148148,41.5740741 28.7962963,41.8518519 27.6851852,42.037037 Z M18.3333333,41.1111111 C17.3148148,40.7407407 16.3888889,40.2777778 15.462963,39.6296296 L17.037037,37.1296296 C17.7777778,37.5925926 18.6111111,37.962963 19.4444444,38.3333333 L18.3333333,41.1111111 Z M33.7037037,39.8148148 L32.2222222,37.3148148 C32.962963,36.8518519 33.7037037,36.2962963 34.3518519,35.7407407 L36.2962963,37.962963 C35.462963,38.6111111 34.6296296,39.2592593 33.7037037,39.8148148 Z M12.962963,37.7777778 C12.2222222,37.037037 11.4814815,36.2962963 10.8333333,35.3703704 L13.1481481,33.6111111 C13.7037037,34.3518519 14.2592593,35 14.9074074,35.5555556 L12.962963,37.7777778 Z M38.4259259,35.5555556 L36.1111111,33.7962963 C36.6666667,33.0555556 37.1296296,32.3148148 37.5,31.5740741 L40.0925926,32.8703704 C39.6296296,33.8888889 39.0740741,34.7222222 38.4259259,35.5555556 Z M9.07407407,32.6851852 C8.61111111,31.7592593 8.24074074,30.7407407 7.96296296,29.7222222 L10.7407407,28.8888889 C11.0185185,29.7222222 11.2962963,30.5555556 11.6666667,31.3888889 L9.07407407,32.6851852 Z M41.2962963,29.9074074 L38.5185185,29.0740741 C38.7962963,28.2407407 38.9814815,27.3148148 39.0740741,26.4814815 L41.9444444,26.7592593 C41.8518519,27.8703704 41.6666667,28.8888889 41.2962963,29.9074074 Z M7.40740741,26.4814815 C7.40740741,26.0185185 7.31481481,25.462963 7.31481481,25 C7.31481481,24.4444444 7.31481481,23.8888889 7.40740741,23.3333333 L10.2777778,23.6111111 C10.2777778,24.0740741 10.1851852,24.537037 10.1851852,25 C10.1851852,25.462963 10.1851852,25.8333333 10.2777778,26.2962963 L7.40740741,26.4814815 Z M39.0740741,23.7962963 C38.9814815,22.8703704 38.8888889,22.037037 38.6111111,21.2037037 L41.4814815,20.462963 C41.7592593,21.4814815 41.9444444,22.5925926 42.037037,23.6111111 L39.0740741,23.7962963 Z M10.8333333,21.0185185 L8.05555556,20.1851852 C8.33333333,19.1666667 8.7037037,18.1481481 9.25925926,17.2222222 L11.8518519,18.5185185 C11.3888889,19.3518519 11.1111111,20.1851852 10.8333333,21.0185185 Z M37.6851852,18.7037037 C37.3148148,17.8703704 36.8518519,17.1296296 36.2962963,16.3888889 L38.6111111,14.6296296 C39.2592593,15.462963 39.8148148,16.3888889 40.2777778,17.4074074 L37.6851852,18.7037037 Z M13.1481481,16.2962963 L10.8333333,14.537037 C11.4814815,13.7037037 12.2222222,12.8703704 12.962963,12.2222222 L14.9074074,14.3518519 C14.3518519,14.9074074 13.7037037,15.5555556 13.1481481,16.2962963 Z M34.537037,14.4444444 C33.8888889,13.7962963 33.1481481,13.3333333 32.4074074,12.7777778 L33.9814815,10.2777778 C34.9074074,10.8333333 35.7407407,11.4814815 36.4814815,12.2222222 L34.537037,14.4444444 Z M17.1296296,12.6851852 L15.5555556,10.1851852 C16.4814815,9.62962963 17.4074074,9.16666667 18.4259259,8.7962963 L19.4444444,11.5740741 C18.7037037,11.8518519 17.8703704,12.2222222 17.1296296,12.6851852 Z M30.0925926,11.6666667 C29.2592593,11.2962963 28.4259259,11.1111111 27.5925926,10.9259259 L28.1481481,8.05555556 C29.1666667,8.24074074 30.1851852,8.61111111 31.2037037,8.98148148 L30.0925926,11.6666667 Z M22.037037,10.8333333 L21.4814815,7.96296296 C22.5,7.77777778 23.6111111,7.68518519 24.6296296,7.68518519 L24.9074074,7.68518519 L24.9074074,10.6481481 L24.7222222,10.6481481 C23.7962963,10.5555556 22.8703704,10.6481481 22.037037,10.8333333 Z" id="Shape" fill="#4A555F" fill-rule="nonzero"></path>
                <circle id="Oval" fill="#3F2E61" fill-rule="nonzero" cx="24.7222222" cy="25" r="9.25925926"></circle>
                <circle id="Oval" stroke="#5C666F" stroke-width="5" cx="25" cy="25" r="22.5"></circle>
            </g>
        </g>
    </g>
</svg>