<?xml version="1.0" encoding="UTF-8"?>
<svg width="722px" height="422px" viewBox="0 0 722 422" version="1.1" xmlns="http://www.w3.org/2000/svg" xmlns:xlink="http://www.w3.org/1999/xlink">
    <!-- Generator: Sketch 57.1 (83088) - https://sketch.com -->
    <title>s - Single Tenant</title>
    <desc>Created with Sketch.</desc>
    <defs>
        <filter x="-1.7%" y="-5.1%" width="104.7%" height="108.0%" filterUnits="objectBoundingBox" id="filter-1">
            <feOffset dx="2" dy="2" in="SourceAlpha" result="shadowOffsetOuter1"></feOffset>
            <feGaussianBlur stdDeviation="2" in="shadowOffsetOuter1" result="shadowBlurOuter1"></feGaussianBlur>
            <feColorMatrix values="0 0 0 0 0   0 0 0 0 0   0 0 0 0 0  0 0 0 0.5 0" type="matrix" in="shadowBlurOuter1" result="shadowMatrixOuter1"></feColorMatrix>
            <feMerge>
                <feMergeNode in="shadowMatrixOuter1"></feMergeNode>
                <feMergeNode in="SourceGraphic"></feMergeNode>
            </feMerge>
        </filter>
        <filter x="-6.9%" y="-4.5%" width="113.8%" height="109.1%" filterUnits="objectBoundingBox" id="filter-2">
            <feOffset dx="2" dy="2" in="SourceAlpha" result="shadowOffsetOuter1"></feOffset>
            <feGaussianBlur stdDeviation="2" in="shadowOffsetOuter1" result="shadowBlurOuter1"></feGaussianBlur>
            <feColorMatrix values="0 0 0 0 0   0 0 0 0 0   0 0 0 0 0  0 0 0 0.5 0" type="matrix" in="shadowBlurOuter1" result="shadowMatrixOuter1"></feColorMatrix>
            <feMerge>
                <feMergeNode in="shadowMatrixOuter1"></feMergeNode>
                <feMergeNode in="SourceGraphic"></feMergeNode>
            </feMerge>
        </filter>
    </defs>
    <g id="Features-Icons" stroke="none" stroke-width="1" fill="none" fill-rule="evenodd">
        <g id="s---Single-Tenant" filter="url(#filter-1)" transform="translate(2.000000, 3.000000)">
            <g id="Server" filter="url(#filter-2)" transform="translate(535.000000, 0.000000)">
                <g id="Group" transform="translate(0.000000, 199.191081)">
                    <rect id="Rectangle" fill="#FFFFFF" transform="translate(139.638655, 40.519412) scale(1, -1) translate(-139.638655, -40.519412) " x="127.210084" y="35.362396" width="24.8571429" height="10.3140322"></rect>
                    <rect id="Rectangle" fill="#FFFFFF" x="131.596639" y="1.47343317" width="14.6218487" height="33.8889628"></rect>
                    <rect id="Rectangle" fill="#FFFFFF" transform="translate(35.823529, 40.519412) scale(1, -1) translate(-35.823529, -40.519412) " x="23.394958" y="35.362396" width="24.8571429" height="10.3140322"></rect>
                    <rect id="Rectangle" fill="#FFFFFF" x="27.7815126" y="1.47343317" width="14.6218487" height="33.8889628"></rect>
                    <path d="M45.4047337,36.7376003 L26.0485207,36.7376003 L26.0485207,0.102906443 L45.5076923,0.102906443 L45.5076923,36.7376003 L45.4047337,36.7376003 Z M32.0201183,30.7690266 L39.4331361,30.7690266 L39.4331361,6.1743866 L32.0201183,6.1743866 L32.0201183,30.7690266 L32.0201183,30.7690266 Z" id="Shape" fill="#5C666F" fill-rule="nonzero"></path>
                    <path d="M52.0970414,48.5718413 L19.356213,48.5718413 L19.356213,45.5875544 C19.356213,39.5160743 22.6508876,33.9591263 28.0047337,31.1806524 L28.6224852,30.871933 L42.7278107,30.871933 L43.3455621,31.1806524 C48.6994083,34.0620328 51.9940828,39.5160743 51.9940828,45.5875544 L51.9940828,48.5718413 L52.0970414,48.5718413 Z M25.739645,42.6032676 L45.7136095,42.6032676 C44.9928994,40.2364194 43.4485207,38.0753841 41.2863905,36.7376003 L30.1668639,36.7376003 C28.0047337,38.0753841 26.460355,40.1335129 25.739645,42.6032676 Z" id="Shape" fill="#5C666F" fill-rule="nonzero"></path>
                    <rect id="Rectangle" stroke="#5C666F" stroke-width="5" fill="#FFFFFF" x="2.5" y="45.7207062" width="169" height="16.6103531" rx="8"></rect>
                    <path d="M147.745562,36.7376003 L128.286391,36.7376003 L128.286391,0.102906443 L147.745562,0.102906443 L147.745562,36.7376003 Z M134.257988,30.7690266 L141.671006,30.7690266 L141.671006,6.1743866 L134.257988,6.1743866 L134.257988,30.7690266 Z" id="Shape" fill="#5C666F" fill-rule="nonzero"></path>
                    <path d="M154.43787,48.5718413 L121.697041,48.5718413 L121.697041,45.5875544 C121.697041,39.5160743 124.991716,33.9591263 130.345562,31.1806524 L130.963314,30.871933 L145.068639,30.871933 L145.686391,31.1806524 C151.040237,34.0620328 154.334911,39.5160743 154.334911,45.5875544 L154.334911,48.5718413 L154.43787,48.5718413 Z M127.977515,42.6032676 L147.951479,42.6032676 C147.230769,40.2364194 145.686391,38.0753841 143.52426,36.7376003 L132.507692,36.7376003 C130.345562,38.0753841 128.698225,40.1335129 127.977515,42.6032676 Z" id="Shape" fill="#5C666F" fill-rule="nonzero"></path>
                </g>
                <g id="Group" transform="translate(0.000000, 95.837218)">
                    <rect id="Rectangle" stroke="#5C666F" stroke-width="5" fill="#FFFFFF" x="2.5" y="52.5117341" width="169" height="50.2212897" rx="8"></rect>
                    <rect id="Rectangle-Copy-10" stroke="#5C666F" stroke-width="5" fill="#FFFFFF" x="2.5" y="2.5" width="169" height="50.2212897" rx="8"></rect>
                    <rect id="Rectangle" fill="#71CDE1" fill-rule="nonzero" x="86.3822485" y="11.4610224" width="74.1301775" height="30.6321871"></rect>
                    <rect id="Rectangle" fill="#71CDE1" fill-rule="nonzero" x="86.3822485" y="62.827241" width="74.1301775" height="31.0489516"></rect>
                    <path d="M28.2106509,36.050125 C23.1656805,36.050125 19.1502959,31.8824805 19.1502959,26.8813071 C19.1502959,21.7759426 23.2686391,17.7124892 28.2106509,17.7124892 C33.1526627,17.7124892 37.2710059,21.8801337 37.2710059,26.8813071 C37.2710059,31.8824805 33.1526627,36.050125 28.2106509,36.050125 Z M28.2106509,23.6513826 C26.460355,23.6513826 25.1218935,25.1100582 25.1218935,26.777116 C25.1218935,28.5483649 26.5633136,29.9028494 28.2106509,29.9028494 C29.9609467,29.9028494 31.2994083,28.4441738 31.2994083,26.777116 C31.2994083,25.1100582 29.8579882,23.6513826 28.2106509,23.6513826 Z" id="Shape" fill="#5C666F" fill-rule="nonzero"></path>
                    <path d="M149.392899,36.050125 C144.347929,36.050125 140.332544,31.8824805 140.332544,26.8813071 C140.332544,21.7759426 144.450888,17.7124892 149.392899,17.7124892 C154.43787,17.7124892 158.453254,21.8801337 158.453254,26.8813071 C158.453254,31.8824805 154.43787,36.050125 149.392899,36.050125 Z M149.392899,23.6513826 C147.642604,23.6513826 146.304142,25.1100582 146.304142,26.777116 C146.304142,28.5483649 147.745562,29.9028494 149.392899,29.9028494 C151.143195,29.9028494 152.481657,28.4441738 152.481657,26.777116 C152.481657,25.1100582 151.143195,23.6513826 149.392899,23.6513826 Z" id="Shape" fill="#5C666F" fill-rule="nonzero"></path>
                    <path d="M28.2106509,87.6247258 C23.1656805,87.6247258 19.1502959,83.4570813 19.1502959,78.4559079 C19.1502959,73.3505434 23.2686391,69.28709 28.2106509,69.28709 C33.1526627,69.28709 37.2710059,73.4547345 37.2710059,78.4559079 C37.2710059,83.4570813 33.1526627,87.6247258 28.2106509,87.6247258 Z M28.2106509,75.2259834 C26.460355,75.2259834 25.1218935,76.684659 25.1218935,78.3517168 C25.1218935,80.1229657 26.5633136,81.4774502 28.2106509,81.4774502 C29.9609467,81.4774502 31.2994083,80.0187746 31.2994083,78.3517168 C31.2994083,76.5804679 29.8579882,75.2259834 28.2106509,75.2259834 Z" id="Shape" fill="#5C666F" fill-rule="nonzero"></path>
                    <path d="M149.392899,87.6247258 C144.347929,87.6247258 140.332544,83.4570813 140.332544,78.4559079 C140.332544,73.3505434 144.450888,69.28709 149.392899,69.28709 C154.43787,69.28709 158.453254,73.4547345 158.453254,78.4559079 C158.453254,83.4570813 154.43787,87.6247258 149.392899,87.6247258 Z M149.392899,75.2259834 C147.642604,75.2259834 146.304142,76.684659 146.304142,78.3517168 C146.304142,80.1229657 147.745562,81.4774502 149.392899,81.4774502 C151.143195,81.4774502 152.481657,80.0187746 152.481657,78.3517168 C152.481657,76.5804679 151.143195,75.2259834 149.392899,75.2259834 Z" id="Shape" fill="#5C666F" fill-rule="nonzero"></path>
                </g>
                <g id="LAYER" transform="translate(0.000000, 47.918609)">
                    <rect id="Rectangle" stroke="#5C666F" stroke-width="5" fill="#FFFFFF" x="2.5" y="2.5" width="169" height="50.2012192" rx="8"></rect>
                    <rect id="Rectangle" fill="#71CDE1" fill-rule="nonzero" x="86.3822485" y="12.810849" width="74.1301775" height="31.0376666"></rect>
                    <path d="M149.392899,37.599321 C144.347929,37.599321 140.332544,33.4331912 140.332544,28.4338355 C140.332544,23.3303266 144.450888,19.2683501 149.392899,19.2683501 C154.43787,19.2683501 158.453254,23.4344798 158.453254,28.4338355 C158.453254,33.4331912 154.43787,37.599321 149.392899,37.599321 Z M149.392899,25.205085 C147.642604,25.205085 146.304142,26.6632304 146.304142,28.3296823 C146.304142,30.1002874 147.745562,31.4542796 149.392899,31.4542796 C151.143195,31.4542796 152.481657,29.9961342 152.481657,28.3296823 C152.481657,26.5590771 151.143195,25.205085 149.392899,25.205085 Z" id="Shape" fill="#5C666F" fill-rule="nonzero"></path>
                    <path d="M28.2106509,37.599321 C23.1656805,37.599321 19.1502959,33.4331912 19.1502959,28.4338355 C19.1502959,23.3303266 23.2686391,19.2683501 28.2106509,19.2683501 C33.1526627,19.2683501 37.2710059,23.4344798 37.2710059,28.4338355 C37.2710059,33.4331912 33.1526627,37.599321 28.2106509,37.599321 Z M28.2106509,25.205085 C26.460355,25.205085 25.1218935,26.6632304 25.1218935,28.3296823 C25.1218935,30.1002874 26.5633136,31.4542796 28.2106509,31.4542796 C29.9609467,31.4542796 31.2994083,29.9961342 31.2994083,28.3296823 C31.2994083,26.5590771 29.8579882,25.205085 28.2106509,25.205085 Z" id="Shape" fill="#5C666F" fill-rule="nonzero"></path>
                </g>
                <g id="LAYER">
                    <rect id="Rectangle" stroke="#5C666F" stroke-width="5" fill="#FFFFFF" x="2.5" y="2.5" width="169" height="50.2012192" rx="8"></rect>
                    <rect id="Rectangle" fill="#71CDE1" fill-rule="nonzero" x="86.3822485" y="12.810849" width="74.1301775" height="31.0376666"></rect>
                    <path d="M149.392899,37.599321 C144.347929,37.599321 140.332544,33.4331912 140.332544,28.4338355 C140.332544,23.3303266 144.450888,19.2683501 149.392899,19.2683501 C154.43787,19.2683501 158.453254,23.4344798 158.453254,28.4338355 C158.453254,33.4331912 154.43787,37.599321 149.392899,37.599321 Z M149.392899,25.205085 C147.642604,25.205085 146.304142,26.6632304 146.304142,28.3296823 C146.304142,30.1002874 147.745562,31.4542796 149.392899,31.4542796 C151.143195,31.4542796 152.481657,29.9961342 152.481657,28.3296823 C152.481657,26.5590771 151.143195,25.205085 149.392899,25.205085 Z" id="Shape" fill="#5C666F" fill-rule="nonzero"></path>
                    <path d="M28.2106509,37.599321 C23.1656805,37.599321 19.1502959,33.4331912 19.1502959,28.4338355 C19.1502959,23.3303266 23.2686391,19.2683501 28.2106509,19.2683501 C33.1526627,19.2683501 37.2710059,23.4344798 37.2710059,28.4338355 C37.2710059,33.4331912 33.1526627,37.599321 28.2106509,37.599321 Z M28.2106509,25.205085 C26.460355,25.205085 25.1218935,26.6632304 25.1218935,28.3296823 C25.1218935,30.1002874 26.5633136,31.4542796 28.2106509,31.4542796 C29.9609467,31.4542796 31.2994083,29.9961342 31.2994083,28.3296823 C31.2994083,26.5590771 29.8579882,25.205085 28.2106509,25.205085 Z" id="Shape" fill="#5C666F" fill-rule="nonzero"></path>
                </g>
            </g>
            <g id="Computer">
                <polygon id="Path-10" fill="#FFFFFF" points="3.71428571 187.234043 5.27703319 203.549456 13.8816616 215.613544 38.0604677 217.191489 293.644867 217.191489 304.560306 210.612142 309.214286 200.63286 309.214286 187.234043"></polygon>
                <rect id="Rectangle" stroke="#5C666F" stroke-width="5" fill="#FFFFFF" x="32.2142857" y="2.5" width="250.357143" height="184.106383" rx="19"></rect>
                <path d="M0,184.425532 L0,197.400289 C0,209.861588 9.68595921,220 21.5919445,220 L290.40871,220 C302.314695,220 312,209.861588 312,197.400289 L312,184.425532 L0,184.425532 Z M306.668875,197.995358 C306.668875,207.048021 298.825492,214.412786 289.184372,214.412786 L23.7095793,214.412786 C14.0684588,214.412786 6.22443029,207.048021 6.22443029,197.995358 L6.22443029,190.104754 L306.668875,190.104754 L306.668875,197.995358 Z" id="Shape" fill="#5C666F" fill-rule="nonzero"></path>
                <path d="M176.156872,193.787234 C175.467597,195.149455 174.557754,196.370957 173.465417,197.440172 C170.852081,199.998835 167.236997,206.621155 163.24511,206.621155 L140.789188,206.621155 C135.146323,206.621155 128.380651,198.420072 126.001012,193.787234 L8.35714286,193.787234 L8.35714286,197.694625 C8.35714286,204.834721 14.2862207,210.638298 21.5682468,210.638298 L291.347852,210.638298 C298.642351,210.638298 304.571429,204.834721 304.571429,197.694625 L304.571429,193.787234 L176.156872,193.787234 Z" id="Path" fill="#3F2E61" fill-rule="nonzero"></path>
                <path d="M124.428571,188.170213 L124.428571,190.159457 C124.428571,199.387249 131.476662,206.893617 140.139678,206.893617 L161.646036,206.893617 C170.309681,206.893617 177.357143,199.386579 177.357143,190.159457 L177.357143,188.170213 L124.428571,188.170213 Z M161.646036,202.915128 L140.139678,202.915128 C134.170929,202.915128 129.2086,198.240303 128.309044,192.148702 L173.476041,192.148702 C172.577114,198.240972 167.613528,202.915128 161.646036,202.915128 Z" id="Shape" fill="#5C666F" fill-rule="nonzero"></path>
                <g id="Screen" transform="translate(46.428571, 34.638298)">
                    <rect id="Rectangle" fill="#FFD452" fill-rule="nonzero" x="20.0270461" y="89.578751" width="157.929022" height="29.6209726"></rect>
                    <rect id="Rectangle" fill="#5C666F" fill-rule="nonzero" x="204.426747" y="18.9933165" width="5.74748358" height="30.199969"></rect>
                    <rect id="Rectangle" fill="#5C666F" x="0" y="0.215960078" width="218.610443" height="7.44689924"></rect>
                    <rect id="Rectangle" fill="#5C666F" fill-rule="nonzero" x="193.675414" y="4.09951803" width="5.37566664" height="128.459012"></rect>
                    <rect id="Rectangle" fill="#EC8D53" fill-rule="nonzero" x="20.0270461" y="18.8332082" width="71.4408177" height="58.3185297"></rect>
                    <rect id="Rectangle" fill="#FFFFFF" fill-rule="nonzero" x="29.9048335" y="29.2318721" width="51.63507" height="5.97148233"></rect>
                    <rect id="Rectangle" fill="#FFFFFF" fill-rule="nonzero" x="29.9048335" y="42.2890791" width="27.3236176" height="5.97148233"></rect>
                    <rect id="Rectangle" fill="#EC8D53" fill-rule="nonzero" x="108.850978" y="18.8332082" width="69.1059865" height="58.3185297"></rect>
                    <rect id="Rectangle" fill="#FFFFFF" fill-rule="nonzero" x="119.042346" y="29.2318721" width="48.8262841" height="5.97148233"></rect>
                    <rect id="Rectangle" fill="#FFFFFF" fill-rule="nonzero" x="119.042346" y="42.2890791" width="27.3236176" height="5.97148233"></rect>
                </g>
                <rect id="Rectangle" stroke="#3F2E61" stroke-width="5" x="38.7142857" y="9.05319149" width="236.428571" height="170.06383" rx="13"></rect>
                <rect id="Rectangle" stroke="#5C666F" stroke-width="5" x="47.0714286" y="19.3510638" width="219.714286" height="150.404255" rx="8"></rect>
            </g>
            <g id="Cloud" transform="translate(219.000000, 183.000000)" fill-rule="nonzero">
                <path d="M15.3046981,110.839506 L10.2493438,108.257254 C20.1795039,87.5992403 39.3176307,72.4746228 61.3445313,67.6790123 L62.4278215,73.3968555 C42.2064046,77.6391263 24.5126647,91.6570645 15.3046981,110.839506 Z" id="Path" fill="#EFEFEF"></path>
                <path d="M25.9271939,207.481481 C9.44490634,193.361564 0,172.823501 0,151.185185 L5.7410215,151.185185 C5.7410215,171.173121 14.4451509,190.060803 29.816273,203.263844 L25.9271939,207.481481 Z" id="Path" fill="#EFEFEF"></path>
                <path d="M150.013123,230 L81.4541885,230 C72.3855463,230 63.4982769,228.34127 54.9737533,225.02381 L56.9688546,219.679012 C64.7678868,222.812169 72.9296648,224.286596 81.4541885,224.286596 L149.831751,224.286596 L149.831751,230 L150.013123,230 Z" id="Path" fill="#EFEFEF"></path>
                <path d="M294.043527,230 L184.488189,230 L184.488189,224.182716 L294.043527,224.182716 C296.79157,224.182716 299.722817,223.995062 302.654063,223.432099 L303.753281,229.249383 C300.455629,229.624691 297.341179,230 294.043527,230 Z" id="Path" fill="#EFEFEF"></path>
                <path d="M336.120434,217.802469 L332.637795,213.170874 C340.702853,207.057168 346.568349,198.349768 349.501097,188.716049 L355,190.383424 C351.700658,201.313989 345.101975,210.947708 336.120434,217.802469 Z" id="Path" fill="#EFEFEF"></path>
                <path d="M351.33024,151.061728 C345.962433,130.663316 328.193139,116.569868 307.277199,115.642667 L304.500747,115.457227 L304.500747,111.377545 C304.500747,104.14538 303.76036,96.727776 302.094488,89.4956116 L307.832489,88.1975309 C309.313264,95.2442551 310.238748,102.476419 310.423845,109.894024 C332.635462,111.933865 351.145143,127.696274 357.068241,149.578208 L351.33024,151.061728 Z" id="Path" fill="#EFEFEF"></path>
                <path d="M100.592006,63.8024691 L95.0393701,61.4394147 C112.65463,24.1758644 151.714554,0 194.795353,0 C229.642932,0 262.76728,15.9960606 283.254593,42.8985263 L278.467838,46.1704478 C259.129346,20.7221695 227.919701,5.63497591 194.986823,5.63497591 C154.203667,5.81674932 117.249915,28.5384264 100.592006,63.8024691 Z" id="Path" fill="#EFEFEF"></path>
                <path d="M301.7512,127.107821 L292.313599,126.728066 L292.313599,117.234202 C292.313599,116.854448 292.313599,115.905061 292.313599,115.905061 C292.313599,62.9293018 249.46689,19.8271605 196.805077,19.8271605 C158.677168,19.8271605 124.135549,42.6124334 109.035387,77.9296065 L105.826603,85.5246975 L97.8990177,83.815802 C93.3689692,82.8664156 88.8389207,82.2967838 84.1201202,82.2967838 C48.6347403,82.2967838 19.5669291,111.348007 19.5669291,147.234812 C19.5669291,182.931739 48.4459883,212.17284 84.1201202,212.17284 L299.86368,212.17284 C323.080179,212.17284 341.955381,193.185112 341.955381,169.64033 C341.955381,146.66518 324.212691,128.057207 301.7512,127.107821 Z" id="Path" stroke="#EC8D53" stroke-width="5" fill="#FFFFFF"></path>
            </g>
        </g>
    </g>
</svg>