<?xml version="1.0" encoding="UTF-8"?>
<svg width="400px" height="340px" viewBox="0 100 400 200" version="1.1" xmlns="http://www.w3.org/2000/svg" xmlns:xlink="http://www.w3.org/1999/xlink">
    <!-- Generator: Sketch 53.2 (72643) - https://sketchapp.com -->
    <title>1.1-home-hero-main-bryan</title>
    <desc>Created with Sketch.</desc>
    <defs>
        <linearGradient x1="50.2435091%" y1="100.205897%" x2="50.2435091%" y2="0.18873611%" id="linearGradient-1">
            <stop stop-color="#808080" stop-opacity="0.25" offset="0%"></stop>
            <stop stop-color="#808080" stop-opacity="0.12" offset="54%"></stop>
            <stop stop-color="#808080" stop-opacity="0.1" offset="100%"></stop>
        </linearGradient>
        <linearGradient x1="56.6111111%" y1="68.729963%" x2="56.6111111%" y2="-31.270037%" id="linearGradient-2">
            <stop stop-color="#808080" stop-opacity="0.25" offset="0%"></stop>
            <stop stop-color="#808080" stop-opacity="0.12" offset="54%"></stop>
            <stop stop-color="#808080" stop-opacity="0.1" offset="100%"></stop>
        </linearGradient>
    </defs>
    <g id="1.1-home-hero-main-bryan" stroke="none" stroke-width="1" fill="none" fill-rule="evenodd">
        <g id="hero-image0" transform="translate(3.000000, 45.000000)">
            <g id="Path-Copy-21" fill-rule="nonzero">
                <path d="M393.38943,155.238655 L393.38943,251.936134 C367.442834,255.814487 340.969166,256.603748 314.620742,257.387782 C241.133219,259.567395 167.457828,261.741782 94.1633907,256.713513 C61.7510199,254.492084 28.5349934,250.603277 0.130463576,237.30084 L0.130463576,118.211361 C0.234834437,36.076 -0.208741722,118.211361 0.130463576,35.8251092 L0.130463576,6.27226891 C0.130463576,2.80819044 2.93416914,6.36340891e-16 6.39271523,0 L387.142834,0 C390.601381,2.1211363e-16 393.405086,2.80819044 393.405086,6.27226891 L393.405086,81.1317983 C393.655576,155.060941 393.212,81.3617815 393.38943,155.238655 Z" id="path-1" fill="#000000"></path>
                <path d="M393.38943,155.238655 L393.38943,251.936134 C367.442834,255.814487 340.969166,256.603748 314.620742,257.387782 C241.133219,259.567395 167.457828,261.741782 94.1633907,256.713513 C61.7510199,254.492084 28.5349934,250.603277 0.130463576,237.30084 L0.130463576,118.211361 C0.234834437,36.076 -0.208741722,118.211361 0.130463576,35.8251092 L0.130463576,6.27226891 C0.130463576,2.80819044 2.93416914,6.36340891e-16 6.39271523,0 L387.142834,0 C390.601381,2.1211363e-16 393.405086,2.80819044 393.405086,6.27226891 L393.405086,81.1317983 C393.655576,155.060941 393.212,81.3617815 393.38943,155.238655 Z" id="Path" fill="#4E4B6A"></path>
            </g>
            <rect id="Rectangle-Copy-21" fill="#3F3D56" fill-rule="nonzero" opacity="0.7" x="267.189404" y="156.284034" width="57.4039735" height="19.3394958" rx="3.9204"></rect>
            <path d="M171.063841,151.579832 L155.877881,151.579832 C152.505798,151.579832 149.772185,148.841846 149.772185,145.46437 L149.772185,89.2230252 C149.772185,85.8455487 152.505798,83.107563 155.877881,83.107563 L185.258278,83.107563" id="Path-Copy-23" stroke="#FFFFFF" stroke-width="2.673" stroke-linecap="round" stroke-linejoin="round"></path>
            <path d="M61.0569536,53.3142838 L114.025166,53.3142857 C115.894049,53.3128976 117.686786,54.0558816 119.008287,55.379496 C120.329787,56.7031105 121.071585,58.4987153 121.070199,60.3705882 L121.070201,69.5176471" id="Path-Copy-24" stroke="#FFFFFF" stroke-width="2.673" stroke-linecap="round" stroke-linejoin="round"></path>
            <path d="M274.495364,82.584872 L327.463576,82.5848739 C329.33246,82.5834858 331.125197,83.3264698 332.446697,84.6500842 C333.768198,85.9736987 334.509995,87.7693035 334.508609,89.6411765 L334.508611,116.036975" id="Path-Copy-25" stroke="#FFFFFF" stroke-width="2.673" stroke-linecap="round" stroke-linejoin="round"></path>
            <path d="M280.496691,125.184034 L280.496689,144.262185 C280.498075,146.134058 279.756277,147.929663 278.434777,149.253277 C277.113276,150.576892 275.320539,151.319876 273.451656,151.318487 L186.04106,151.318489" id="Path-Copy-26" stroke="#FFFFFF" stroke-width="2.673" stroke-linecap="round" stroke-linejoin="round"></path>
            <path d="M121.070201,158.897479 L121.070199,175.884874 C121.071585,177.756747 120.329787,179.552352 119.008287,180.875966 C117.686786,182.199581 115.894049,182.942565 114.025166,182.941176 L59.4913907,182.941178" id="Path-Copy-27" stroke="#FFFFFF" stroke-width="2.673" stroke-linecap="round" stroke-linejoin="round"></path>
            <path d="M61.1404503,155.18116 L61.1404503,179.047143" id="Line-2-Copy-24" stroke="#FFFFFF" stroke-width="2.673" stroke-linecap="square"></path>
            <path d="M120.287417,93.5613445 L120.287417,114.468908" id="Line-2-Copy-25" stroke="#FFFFFF" stroke-width="2.673" stroke-linecap="square"></path>
            <path d="M334.070252,126.95595 L334.070252,150.821933" id="Line-2-Copy-26" stroke="#FFFFFF" stroke-width="2.673" stroke-linecap="square"></path>
            <path d="M334.070252,157.794605 L334.070252,181.660588" id="Line-2-Copy-27" stroke="#FFFFFF" stroke-width="2.673" stroke-linecap="square"></path>
            <path d="M61.1404503,57.9609916 L61.1404503,81.8269748" id="Line-2-Copy-28" stroke="#FFFFFF" stroke-width="2.673" stroke-linecap="square"></path>
            <path d="M120.109987,119.638303 L120.109987,143.504286" id="Line-2-Copy-29" stroke="#FFFFFF" stroke-width="2.673" stroke-linecap="square"></path>
            <path d="M120.261325,117.605042 L149.772185,117.605042" id="Line-2-Copy-30" stroke="#FFFFFF" stroke-width="2.673" stroke-linecap="square"></path>
            <path d="M190.362013,83.107563 L279.244238,83.107563" id="Line-2-Copy-31" stroke="#FFFFFF" stroke-width="2.673" stroke-linecap="square"></path>
            <rect id="Rectangle-Copy-52" fill="#3F3D56" fill-rule="nonzero" opacity="0.7" x="65.2317881" y="114.468908" width="15.1337748" height="5.22689076" rx="2.61344538"></rect>
            <rect id="Rectangle-Copy-53" fill="#3F3D56" fill-rule="nonzero" opacity="0.7" x="316.765563" y="55.405042" width="30.2675497" height="10.4537815" rx="3.9204"></rect>
            <rect id="Rectangle-Copy-54" fill="#3F3D56" fill-rule="nonzero" opacity="0.7" x="90.2807947" y="202.280672" width="29.2238411" height="9.93109244" rx="3.9204"></rect>
            <path d="M273.97351,160.988235 L315.721854,160.988235 C317.73934,160.988235 319.374834,162.626346 319.374834,164.647059 L319.374834,164.647059 C319.374834,166.667771 317.73934,168.305882 315.721854,168.305882 L273.97351,168.305882 C271.956025,168.305882 270.32053,166.667771 270.32053,164.647059 L270.32053,164.647059 C270.32053,162.626346 271.956025,160.988235 273.97351,160.988235 Z" id="Rectangle-Copy-55" fill="#43415B"></path>
            <g id="Rectangle-Copy-56" transform="translate(264.058278, 71.085714)">
                <path d="M10.9589404,0 L22.4397351,0 C28.4921908,0 33.3986755,4.91433328 33.3986755,10.9764706 L33.3986755,10.9764706 C33.3986755,17.0386079 28.4921908,21.9529412 22.4397351,21.9529412 L10.9589404,21.9529412 C4.90648474,21.9529412 0,17.0386079 0,10.9764706 L0,10.9764706 C0,4.91433328 4.90648474,0 10.9589404,0 Z" id="path-3" fill="#000000" fill-rule="nonzero"></path>
                <path d="M10.9589404,0 L22.4397351,0 C28.4921908,0 33.3986755,4.91433328 33.3986755,10.9764706 L33.3986755,10.9764706 C33.3986755,17.0386079 28.4921908,21.9529412 22.4397351,21.9529412 L10.9589404,21.9529412 C4.90648474,21.9529412 0,17.0386079 0,10.9764706 L0,10.9764706 C0,4.91433328 4.90648474,0 10.9589404,0 Z" id="Path" fill="#5C666F"></path>
            </g>
            <g id="Rectangle-Copy-57" transform="translate(44.357616, 72.131092)" fill-rule="nonzero">
                <rect id="path-5" fill="#000000" x="0" y="0" width="33.3986755" height="21.9529412" rx="1.5642"></rect>
                <rect id="Rectangle" fill="#3F2E61" x="0" y="0" width="33.3986755" height="21.9529412" rx="1.5642"></rect>
            </g>
            <g id="Rectangle-Copy-58" transform="translate(317.809272, 109.242017)" fill-rule="nonzero">
                <rect id="path-7" fill="#000000" x="0" y="0" width="33.3986755" height="21.9529412" rx="1.5642"></rect>
                <rect id="Rectangle" fill="#3F2E61" x="0" y="0" width="33.3986755" height="21.9529412" rx="1.5642"></rect>
            </g>
            <g id="Rectangle-Copy-59" transform="translate(44.357616, 169.351261)" fill-rule="nonzero">
                <rect id="path-9" fill="#000000" x="0" y="0" width="33.3986755" height="21.9529412" rx="1.5642"></rect>
                <rect id="Rectangle" fill="#2C3D50" x="0" y="0" width="33.3986755" height="21.9529412" rx="1.5642"></rect>
            </g>
            <path d="M330.594702,151.318487 L304.88294,151.318487 C301.510858,151.318487 298.777245,154.056473 298.777245,157.43395 L298.777245,181.791261 C298.777245,185.168737 296.043632,187.906723 292.67155,187.906723 L184.840795,187.906723 C181.468712,187.906723 178.735099,185.168737 178.735099,181.791261 L178.735099,159.639697" id="Path-Copy-29" stroke="#FFFFFF" stroke-width="2.673" stroke-linecap="round" stroke-linejoin="round"></path>
            <g id="Rectangle-Copy-60" transform="translate(44.357616, 136.944538)" fill-rule="nonzero">
                <rect id="path-11" fill="#000000" x="0" y="0" width="33.3986755" height="21.9529412" rx="1.5642"></rect>
                <rect id="Rectangle" fill="#C5C8CA" x="0" y="0" width="33.3986755" height="21.9529412" rx="1.5642"></rect>
            </g>
            <g id="Rectangle-Copy-61" transform="translate(102.283444, 106.105882)" fill-rule="nonzero">
                <rect id="path-13" fill="#000000" x="0" y="0" width="33.3986755" height="21.9529412" rx="1.5642"></rect>
                <rect id="Rectangle" fill="#EC8D53" x="0.208741722" y="0.20907563" width="32.9864106" height="21.5400168" rx="1.5642"></rect>
            </g>
            <g id="Rectangle-Copy-62" transform="translate(317.809272, 140.080672)" fill-rule="nonzero">
                <rect id="path-15" fill="#000000" x="0" y="0" width="33.3986755" height="21.9529412" rx="1.5642"></rect>
                <rect id="Rectangle" fill="#D8D8D8" x="0" y="0" width="33.3986755" height="21.9529412" rx="1.5642"></rect>
            </g>
            <g id="Rectangle-Copy-63" transform="translate(161.774834, 72.131092)" fill-rule="nonzero">
                <rect id="path-17" fill="#000000" x="0" y="0" width="33.3986755" height="21.9529412" rx="1.5642"></rect>
                <rect id="Rectangle" fill="#D8D8D8" x="0" y="0" width="33.3986755" height="21.9529412" rx="1.5642"></rect>
            </g>
            <g id="Rectangle-Copy-64" transform="translate(44.357616, 42.337815)">
                <path d="M10.9589404,-1.35659924e-14 L22.4397351,-1.35659924e-14 C28.4921908,-2.09938509e-14 33.3986755,4.91433328 33.3986755,10.9764706 L33.3986755,10.9764706 C33.3986755,17.0386079 28.4921908,21.9529412 22.4397351,21.9529412 L10.9589404,21.9529412 C4.90648474,21.9529412 0,17.0386079 0,10.9764706 L0,10.9764706 C0,4.91433328 4.90648474,-2.84217094e-14 10.9589404,-2.84217094e-14 L10.9589404,-1.35659924e-14 Z" id="path-19" fill="#000000" fill-rule="nonzero"></path>
                <path d="M10.9589404,-1.35659924e-14 L22.4397351,-1.35659924e-14 C28.4921908,-2.09938509e-14 33.3986755,4.91433328 33.3986755,10.9764706 L33.3986755,10.9764706 C33.3986755,17.0386079 28.4921908,21.9529412 22.4397351,21.9529412 L10.9589404,21.9529412 C4.90648474,21.9529412 0,17.0386079 0,10.9764706 L0,10.9764706 C0,4.91433328 4.90648474,-2.84217094e-14 10.9589404,-2.84217094e-14 L10.9589404,-1.35659924e-14 Z" id="Path" fill="#EC8D53"></path>
            </g>
            <path d="M153.425166,51.7462185 L217.091391,51.7462185 C219.108876,51.7462185 220.744371,53.3843296 220.744371,55.405042 L220.744371,55.405042 C220.744371,57.4257545 219.108876,59.0638655 217.091391,59.0638655 L153.425166,59.0638655 C151.40768,59.0638655 149.772185,57.4257545 149.772185,55.405042 L149.772185,55.405042 C149.772185,53.3843296 151.40768,51.7462185 153.425166,51.7462185 Z" id="Rectangle-Copy-65" fill="#43415B"></path>
            <g id="Rectangle-Copy-67" transform="translate(104.370861, 133.285714)">
                <polygon id="path-21" fill="#000000" fill-rule="nonzero" points="15.9165563 0.0470420168 31.7757086 15.9420168 15.9165563 31.8369916 0.0521854305 15.9420168"></polygon>
                <polygon id="Path" fill="#3F2E61" points="15.9165563 0.0470420168 31.7757086 15.9420168 15.9165563 31.8369916 0.0521854305 15.9420168"></polygon>
            </g>
            <g id="Rectangle-Copy-68" transform="translate(264.580132, 102.969748)">
                <polygon id="path-23" fill="#000000" fill-rule="nonzero" points="15.9165563 0.0470420168 31.7757086 15.9420168 15.9165563 31.8369916 0.0574039735 15.9420168"></polygon>
                <polygon id="Path" fill="#EC8D53" points="15.9165563 0.0470420168 31.7757086 15.9420168 15.9165563 31.8369916 0.0574039735 15.9420168"></polygon>
            </g>
            <g id="Group-13-Copy-17" transform="translate(274.495364, 77.880672)" stroke="#FFFFFF" stroke-linecap="round" stroke-width="2.673">
                <path d="M0.182649007,0.75789916 L13.2759735,0.75789916" id="Line-Copy-11"></path>
                <path d="M0.156556291,4.96554622 L7.46251656,4.96554622" id="Line-Copy-12"></path>
                <path d="M0.255708609,9.17319328 L12.1487682,9.17319328" id="Line-Copy-13"></path>
            </g>
            <path d="M52.9421192,49.3941176 L69.5579603,49.3941176" id="Line-Copy-27" stroke="#FFFFFF" stroke-width="2.673" stroke-linecap="round"></path>
            <path d="M326.393775,119.434454 L343.009616,119.434454" id="Line-Copy-33" stroke="#FFFFFF" stroke-width="2.673" stroke-linecap="round"></path>
            <g id="Group-13-Copy-18" transform="translate(324.593377, 145.830252)" stroke="#FFFFFF" stroke-linecap="round" stroke-width="2.673">
                <path d="M0.245271523,0.75789916 L17.8735099,0.75789916" id="Path"></path>
                <path d="M0.208741722,4.96554622 L10.061351,4.96554622" id="Path"></path>
                <path d="M0.339205298,9.17319328 L16.3496954,9.17319328" id="Path"></path>
            </g>
            <g id="Group-13-Copy-19" transform="translate(110.111258, 112.378151)" stroke="#FFFFFF" stroke-linecap="round" stroke-width="2.673">
                <path d="M0.245271523,0.75789916 L17.8735099,0.75789916" id="Path"></path>
                <path d="M0.297456954,4.96554622 L14.2727152,4.96554622" id="Path"></path>
                <path d="M0.339205298,9.17319328 L16.3496954,9.17319328" id="Path"></path>
            </g>
            <g id="Group-13-Copy-20" transform="translate(273.973510, 114.468908)" stroke="#FFFFFF" stroke-linecap="round" stroke-width="2.673">
                <path d="M0.198304636,0.75789916 L14.2883709,0.75789916" id="Path"></path>
                <path d="M0.166993377,4.96554622 L8.05221192,4.96554622" id="Path"></path>
                <path d="M0.271364238,9.17319328 L13.0828874,9.17319328" id="Path"></path>
            </g>
            <path d="M51.767947,79.187395 L59.3243974,79.187395" id="Line-Copy-47" stroke="#FFFFFF" stroke-width="2.673" stroke-linecap="round"></path>
            <path d="M51.8984106,144.523529 L68.5142517,144.523529" id="Line-Copy-48" stroke="#FFFFFF" stroke-width="2.673" stroke-linecap="round"></path>
            <g id="Group-14-Copy-6" transform="translate(167.515232, 77.880672)" stroke="#FFFFFF" stroke-linecap="round" stroke-width="2.673">
                <path d="M0.234834437,0.75789916 L17.1794437,0.75789916" id="Line-Copy-14"></path>
                <path d="M0.333986755,4.96554622 L16.1044238,4.96554622" id="Line-Copy-15"></path>
                <path d="M0.433139073,9.17319328 L20.8428609,9.17319328" id="Line-Copy-16"></path>
            </g>
            <g id="Group-14-Copy-7" transform="translate(114.807947, 144.262185)" stroke="#FFFFFF" stroke-linecap="round" stroke-width="2.673">
                <path d="M0.130463576,0.75789916 L9.44556291,0.75789916" id="Path"></path>
                <path d="M0.182649007,4.96554622 L8.87152318,4.96554622" id="Path"></path>
                <path d="M0.24005298,9.17319328 L11.4807947,9.17319328" id="Path"></path>
            </g>
            <path d="M51.8984106,179.021008 L68.5142517,179.021008" id="Line-Copy-49" stroke="#FFFFFF" stroke-width="2.673" stroke-linecap="round"></path>
            <path d="M52.9473377,53.5756303 L64.1880795,53.5756303" id="Line-Copy-50" stroke="#FFFFFF" stroke-width="2.673" stroke-linecap="round"></path>
            <path d="M326.398993,123.615966 L337.639735,123.615966" id="Line-Copy-51" stroke="#FFFFFF" stroke-width="2.673" stroke-linecap="round"></path>
            <path d="M52.0967152,83.3689076 L72.5064371,83.3689076" id="Line-Copy-52" stroke="#FFFFFF" stroke-width="2.673" stroke-linecap="round"></path>
            <path d="M52.0027815,148.705042 L67.8410596,148.705042" id="Line-Copy-53" stroke="#FFFFFF" stroke-width="2.673" stroke-linecap="round"></path>
            <path d="M52.0027815,183.202521 L67.8410596,183.202521" id="Line-Copy-54" stroke="#FFFFFF" stroke-width="2.673" stroke-linecap="round"></path>
            <path d="M53.0464901,57.7571429 L68.8847682,57.7571429" id="Line-Copy-55" stroke="#FFFFFF" stroke-width="2.673" stroke-linecap="round"></path>
            <path d="M52.0027815,87.5504202 L67.8410596,87.5504202" id="Line-Copy-56" stroke="#FFFFFF" stroke-width="2.673" stroke-linecap="round"></path>
            <path d="M52.0967152,152.886555 L72.5064371,152.886555" id="Line-Copy-57" stroke="#FFFFFF" stroke-width="2.673" stroke-linecap="round"></path>
            <g id="Shape" transform="translate(110.111258, 67.426891)" fill-rule="nonzero">
                <path d="M20.8011126,11.1071429 L19.0163709,11.1071429 L19.0163709,8.75504202 C19.0163707,4.15359126 15.2921152,0.423378502 10.6980132,0.423378502 C6.10391133,0.423378502 2.37965582,4.15359126 2.37965563,8.75504202 L2.37965563,11.1071429 L0.594913907,11.1071429 C0.437614749,11.1057485 0.286279287,11.1673603 0.174558707,11.278278 C0.0628381261,11.3891957 -6.15977855e-06,11.5402246 2.84217094e-14,11.6977815 L2.84217094e-14,26.3957983 C0.00413841005,27.0237773 0.257179689,27.6243878 0.703454688,28.0654952 C1.14972969,28.5066027 1.75267972,28.7520717 2.37965563,28.7478992 L19.0163709,28.7478992 C19.6433468,28.7520717 20.2462968,28.5066027 20.6925718,28.0654952 C21.1388468,27.6243878 21.3918881,27.0237773 21.3960265,26.3957983 L21.3960265,11.6977815 C21.3960326,11.5402246 21.3331884,11.3891957 21.2214678,11.278278 C21.1097472,11.1673603 20.9584117,11.1057485 20.8011126,11.1071429 L20.8011126,11.1071429 Z M12.4514437,23.3903361 C12.4703647,23.5575046 12.4172125,23.7248216 12.3053245,23.8503025 C12.1896451,23.9721736 12.0296286,24.0419393 11.8617483,24.0436975 L9.48209272,24.0436975 C9.31421242,24.0419393 9.15419593,23.9721736 9.03851656,23.8503025 C8.92662857,23.7248216 8.87347637,23.5575046 8.89239735,23.3903361 L9.26813245,20.0555798 C8.65605812,19.6204172 8.2923653,18.9152439 8.2922649,18.1634454 C8.2922649,16.8470956 9.35767302,15.7799832 10.6719205,15.7799832 C11.986168,15.7799832 13.0515762,16.8470956 13.0515762,18.1634454 C13.0514758,18.9152439 12.6877829,19.6204172 12.0757086,20.0555798 L12.4514437,23.3903361 Z M15.4260132,11.1071429 L5.94392053,11.1071429 L5.94392053,8.75504202 C5.94392053,6.12522912 8.07240034,3.99334454 10.6980132,3.99334454 C13.3236262,3.99334454 15.452106,6.12522912 15.452106,8.75504202 L15.452106,11.1071429 L15.4260132,11.1071429 Z" id="path-25" fill="#000000"></path>
                <path d="M20.8011126,11.1071429 L19.0163709,11.1071429 L19.0163709,8.75504202 C19.0163707,4.15359126 15.2921152,0.423378502 10.6980132,0.423378502 C6.10391133,0.423378502 2.37965582,4.15359126 2.37965563,8.75504202 L2.37965563,11.1071429 L0.594913907,11.1071429 C0.437614749,11.1057485 0.286279287,11.1673603 0.174558707,11.278278 C0.0628381261,11.3891957 -6.15977855e-06,11.5402246 2.84217094e-14,11.6977815 L2.84217094e-14,26.3957983 C0.00413841005,27.0237773 0.257179689,27.6243878 0.703454688,28.0654952 C1.14972969,28.5066027 1.75267972,28.7520717 2.37965563,28.7478992 L19.0163709,28.7478992 C19.6433468,28.7520717 20.2462968,28.5066027 20.6925718,28.0654952 C21.1388468,27.6243878 21.3918881,27.0237773 21.3960265,26.3957983 L21.3960265,11.6977815 C21.3960326,11.5402246 21.3331884,11.3891957 21.2214678,11.278278 C21.1097472,11.1673603 20.9584117,11.1057485 20.8011126,11.1071429 L20.8011126,11.1071429 Z M12.4514437,23.3903361 C12.4703647,23.5575046 12.4172125,23.7248216 12.3053245,23.8503025 C12.1896451,23.9721736 12.0296286,24.0419393 11.8617483,24.0436975 L9.48209272,24.0436975 C9.31421242,24.0419393 9.15419593,23.9721736 9.03851656,23.8503025 C8.92662857,23.7248216 8.87347637,23.5575046 8.89239735,23.3903361 L9.26813245,20.0555798 C8.65605812,19.6204172 8.2923653,18.9152439 8.2922649,18.1634454 C8.2922649,16.8470956 9.35767302,15.7799832 10.6719205,15.7799832 C11.986168,15.7799832 13.0515762,16.8470956 13.0515762,18.1634454 C13.0514758,18.9152439 12.6877829,19.6204172 12.0757086,20.0555798 L12.4514437,23.3903361 Z M15.4260132,11.1071429 L5.94392053,11.1071429 L5.94392053,8.75504202 C5.94392053,6.12522912 8.07240034,3.99334454 10.6980132,3.99334454 C13.3236262,3.99334454 15.452106,6.12522912 15.452106,8.75504202 L15.452106,11.1071429 L15.4260132,11.1071429 Z" fill="#C5C8CA"></path>
            </g>
            <g id="Combined-Shape-Copy-2" transform="translate(167.515232, 133.285714)" fill-rule="nonzero">
                <path d="M2.39009272,7.74102521 C2.90053305,3.44001422 6.60513948,0.241057111 10.9276319,0.368792276 C15.2501243,0.49652744 18.7599875,3.90868133 19.0163709,8.23235294 L19.0163709,10.5844538 L20.8011126,10.5844538 C20.9584117,10.5830595 21.1097472,10.6446712 21.2214678,10.7555889 C21.3331884,10.8665067 21.3960326,11.0175355 21.3960265,11.1750924 L21.3960265,25.8731092 C21.3918881,26.5010883 21.1388468,27.1016987 20.6925718,27.5428062 C20.2462968,27.9839136 19.6433468,28.2293827 19.0163709,28.2252101 L2.37965563,28.2252101 C1.75267972,28.2293827 1.14972969,27.9839136 0.703454688,27.5428062 C0.257179689,27.1016987 0.00413841005,26.5010883 -5.68434189e-14,25.8731092 L-5.68434189e-14,11.1750924 C-6.15977865e-06,11.0175355 0.0628381261,10.8665067 0.174558707,10.7555889 C0.286279287,10.6446712 0.437614749,10.5830595 0.594913907,10.5844538 L15.452106,10.5844538 L15.452106,8.23235294 C15.4043588,5.73097346 13.434057,3.69217254 10.9395519,3.56291631 C8.44504679,3.43366008 6.27521329,5.25793418 5.97001325,7.74102521 L2.39009272,7.74102521 Z M12.4775364,22.8676471 L12.1018013,19.5328908 C12.7138757,19.0977281 13.0775685,18.3925548 13.0776689,17.6407563 C13.0776689,16.3244065 12.0122608,15.2572941 10.6980132,15.2572941 C9.38376573,15.2572941 8.31835762,16.3244065 8.31835762,17.6407563 C8.31845802,18.3925548 8.68215083,19.0977281 9.29422517,19.5328908 L8.91849007,22.8676471 C8.89956909,23.0348156 8.95272129,23.2021326 9.06460927,23.3276134 C9.18028864,23.4494845 9.34030513,23.5192502 9.50818543,23.5210084 L11.8878411,23.5210084 C12.0557214,23.5192502 12.2157378,23.4494845 12.3314172,23.3276134 C12.4433052,23.2021326 12.4964574,23.0348156 12.4775364,22.8676471 L12.4775364,22.8676471 Z" id="path-27" fill="#000000"></path>
                <path d="M2.39009272,7.74102521 C2.90053305,3.44001422 6.60513948,0.241057111 10.9276319,0.368792276 C15.2501243,0.49652744 18.7599875,3.90868133 19.0163709,8.23235294 L19.0163709,10.5844538 L20.8011126,10.5844538 C20.9584117,10.5830595 21.1097472,10.6446712 21.2214678,10.7555889 C21.3331884,10.8665067 21.3960326,11.0175355 21.3960265,11.1750924 L21.3960265,25.8731092 C21.3918881,26.5010883 21.1388468,27.1016987 20.6925718,27.5428062 C20.2462968,27.9839136 19.6433468,28.2293827 19.0163709,28.2252101 L2.37965563,28.2252101 C1.75267972,28.2293827 1.14972969,27.9839136 0.703454688,27.5428062 C0.257179689,27.1016987 0.00413841005,26.5010883 -5.68434189e-14,25.8731092 L-5.68434189e-14,11.1750924 C-6.15977865e-06,11.0175355 0.0628381261,10.8665067 0.174558707,10.7555889 C0.286279287,10.6446712 0.437614749,10.5830595 0.594913907,10.5844538 L15.452106,10.5844538 L15.452106,8.23235294 C15.4043588,5.73097346 13.434057,3.69217254 10.9395519,3.56291631 C8.44504679,3.43366008 6.27521329,5.25793418 5.97001325,7.74102521 L2.39009272,7.74102521 Z M12.4775364,22.8676471 L12.1018013,19.5328908 C12.7138757,19.0977281 13.0775685,18.3925548 13.0776689,17.6407563 C13.0776689,16.3244065 12.0122608,15.2572941 10.6980132,15.2572941 C9.38376573,15.2572941 8.31835762,16.3244065 8.31835762,17.6407563 C8.31845802,18.3925548 8.68215083,19.0977281 9.29422517,19.5328908 L8.91849007,22.8676471 C8.89956909,23.0348156 8.95272129,23.2021326 9.06460927,23.3276134 C9.18028864,23.4494845 9.34030513,23.5192502 9.50818543,23.5210084 L11.8878411,23.5210084 C12.0557214,23.5192502 12.2157378,23.4494845 12.3314172,23.3276134 C12.4433052,23.2021326 12.4964574,23.0348156 12.4775364,22.8676471 L12.4775364,22.8676471 Z" id="Shape" fill="#EC8D53"></path>
            </g>
            <path d="M334.216371,178.236975 C332.947538,178.227734 331.868808,179.162786 331.695815,180.421815 C331.537274,181.680027 332.345014,182.857618 333.57449,183.160706 C334.803046,183.484284 336.081101,182.847585 336.564715,181.671042 C337.047778,180.492131 336.563404,179.138226 335.442728,178.534908 C335.064437,178.336593 334.643337,178.23429 334.216371,178.236975 Z" id="Path" stroke="#4E4B6A" stroke-width="3.465" fill="#EA8C51" fill-rule="nonzero"></path>
            <g id="Group-2-Copy-4" transform="translate(316.243709, 178.236975)" fill-rule="nonzero">
                <path d="M24.3653775,2.64480672 C23.8596769,2.45200467 23.2930299,2.70089081 23.092053,3.20408403 C22.9993669,3.44585575 23.007383,3.71476248 23.1143055,3.95056482 C23.2212281,4.18636716 23.4181199,4.36935561 23.6608742,4.45853782 C27.9742107,6.06120753 31.34547,9.51264055 32.8507285,13.8669412 L26.7241589,15.4820504 C25.6280367,12.6881796 23.2567419,10.5932002 20.3523179,9.85268908 C17.4377993,9.09797242 14.3386369,9.77505857 12.002649,11.6768739 L7.63994702,7.42741176 C9.71357119,5.5883594 12.2328406,4.32670977 14.9459073,3.76858824 C14.6857585,3.15312467 14.6219622,2.47215089 14.7632583,1.81895798 C8.26447369,3.0531349 3.00509516,7.832308 1.14807947,14.1910084 C0.550516558,16.3211219 0.373259413,18.5474822 0.626225166,20.7455294 C0.682243345,21.242085 1.10318532,21.6163531 1.60209272,21.6131933 L1.71690066,21.6131933 C1.9754564,21.5860227 2.21232365,21.4561022 2.37443709,21.2525378 C2.53790914,21.0519763 2.61322486,20.7936073 2.58317881,20.5364538 C2.10090934,16.2942504 3.42725531,12.0450518 6.23615894,8.83344538 L10.6040795,13.0567731 C9.4218085,14.510015 8.71647779,16.2935045 8.58450331,18.1634454 C8.32549477,22.1285263 10.620466,25.8172899 14.2883709,27.3314118 L12.5245033,33.1855294 C9.92763974,32.216867 7.63731429,30.5690211 5.8917351,28.4133782 C5.45320053,28.9251929 4.86854768,29.2900452 4.21658278,29.4587563 C6.53682529,32.4136743 9.74690644,34.540043 13.3699073,35.5219496 C14.9123584,35.9447646 16.5039566,36.1609495 18.1031258,36.1648571 C21.9268767,36.1644882 25.6468347,34.9188496 28.7019868,32.6157983 C29.0808852,32.2791034 29.1355621,31.7063599 28.8272318,31.3038487 C28.5159547,30.9004744 27.9512419,30.7968157 27.5173775,31.0634118 C23.7773437,33.8741484 18.9787572,34.863391 14.4344901,33.7604874 L16.2244503,27.8802353 C16.5897617,27.952432 16.9592826,28.0013147 17.3307815,28.0265882 C17.5551788,28.0265882 17.7691391,28.0265882 17.9883179,28.0265882 C22.877156,28.0449337 26.9550722,24.2885252 27.3451656,19.4074454 C27.3937747,18.7092218 27.3622574,18.0077176 27.2512318,17.3166891 L33.3778013,15.6963529 C33.8680776,18.0823165 33.7749765,20.5516486 33.1064371,22.8937815 C32.9742392,23.3685587 32.817471,23.8361261 32.6367682,24.2945882 C33.3045992,24.4204554 33.919184,24.7446302 34.4006358,25.2249748 C34.641828,24.6326889 34.8491655,24.0271325 35.0216424,23.4112437 C37.4354363,14.7633119 32.7911017,5.71264723 24.3653775,2.64480672 Z M25.5708609,19.3081345 C25.2432685,23.4683241 21.6216715,26.5818534 17.4664636,26.2755798 C17.2267941,26.2609143 16.9881167,26.232995 16.7515232,26.1919496 C14.7255443,25.8598229 12.9223355,24.7147157 11.7582434,23.0210241 C10.5941512,21.3273325 10.1698131,19.2314785 10.5832053,17.2173782 C11.3566931,13.7478816 14.4338428,11.2830935 17.9830993,11.290084 C18.1553113,11.290084 18.3327417,11.290084 18.5049536,11.290084 C20.5153313,11.4146394 22.3933174,12.3363246 23.7234967,13.8512605 C24.2650626,14.4724121 24.7005738,15.1788215 25.0124768,15.9420168 C25.4605695,17.0080586 25.6518552,18.1647711 25.5708609,19.3185882 L25.5708609,19.3081345 Z" id="Shape" fill="#FFFFFF"></path>
                <path d="M23.7443709,13.8251261 C22.4043821,12.3034527 20.5162087,11.3766549 18.4945166,11.2482689 L17.9726623,11.2482689 C13.8844011,11.3035649 10.5826882,14.6078793 10.5241661,18.7026339 C10.465644,22.7973886 13.6715731,26.1950078 17.7565789,26.3674898 C21.8415847,26.5399717 25.321633,23.4246559 25.6073907,19.3394958 C25.7626471,17.3238829 25.0897379,15.3321328 23.7443709,13.8251261 L23.7443709,13.8251261 Z M18.0039735,23.4269244 C16.8506755,23.4269244 15.9165563,23.5314622 15.9165563,22.9042353 L16.8245828,17.7766555 C16.1067232,17.2874617 15.7965112,16.3830026 16.0626755,15.5552269 C16.335821,14.7263337 17.1090088,14.1664218 17.9804901,14.1664218 C18.8519713,14.1664218 19.6251592,14.7263337 19.8983046,15.5552269 C20.1608451,16.3829639 19.8513744,17.2852616 19.1363974,17.7766555 L20.0757351,22.8362857 L20.0757351,22.8885546 C20.0913907,23.5210084 19.1572715,23.4269244 18.0091921,23.4269244 L18.0039735,23.4269244 Z" id="Shape" fill="#EA8C51"></path>
                <path d="M3.39205298,23.7666723 C2.1291953,23.7739139 1.06834248,24.7197677 0.914901119,25.9752949 C0.761459757,27.2308221 1.56321304,28.4050389 2.78704078,28.7171581 C4.01086852,29.0292773 5.27565842,28.3821018 5.74039735,27.2059664 C6.22088942,26.026998 5.73713656,24.6748305 4.6184106,24.0698319 C4.24151764,23.8660685 3.82034116,23.758362 3.39205298,23.7562185 L3.39205298,23.7666723 Z" id="Path" fill="#EA8C51"></path>
                <path d="M31.9792318,25.0472605 C30.7071573,25.0250926 29.6214,25.9634547 29.4570174,27.2270756 C29.2926348,28.4906965 30.1020768,29.6763916 31.337351,29.9814454 C32.5684609,30.3024549 33.8472445,29.6642718 34.3327947,28.4865546 C34.8124513,27.3062647 34.3262911,25.9536596 33.2055894,25.3504202 C32.8295839,25.1443911 32.4078255,25.0365359 31.9792318,25.0368067 L31.9792318,25.0472605 Z" id="Path" fill="#EA8C51"></path>
                <path d="M18.0300662,0 C16.7632143,-0.00660720515 15.6874662,0.927795306 15.5147285,2.18484034 C15.3561882,3.4430527 16.1639278,4.62064328 17.393404,4.92373109 C18.6219595,5.24730909 19.9000153,4.61061001 20.3836291,3.43406723 C20.8666923,2.25515605 20.382318,0.901251637 19.2616424,0.297932773 C18.8817901,0.098784762 18.4587952,-0.00354268312 18.0300662,0 Z" id="Path" fill="#EA8C51"></path>
            </g>
            <path d="M220.744371,212.211765 L284.410596,212.211765 C286.428081,212.211765 288.063576,213.849876 288.063576,215.870588 L288.063576,215.870588 C288.063576,217.891301 286.428081,219.529412 284.410596,219.529412 L220.744371,219.529412 C218.726886,219.529412 217.091391,217.891301 217.091391,215.870588 L217.091391,215.870588 C217.091391,214.900208 217.476257,213.969572 218.161324,213.283409 C218.846391,212.597247 219.77554,212.211765 220.744371,212.211765 L220.744371,212.211765 Z" id="Rectangle-Copy-66" fill="#43415B"></path>
            <path d="M284.374066,94.4917311 C284.151112,94.0446081 283.976181,93.5750412 283.852212,93.0909244 C283.800026,92.5368739 284.019205,91.7998824 283.528662,91.5228571 C283.252079,91.3712773 282.871126,91.4862689 282.625854,91.2876471 C282.474853,91.1129953 282.38184,90.8956173 282.359709,90.6656471 C282.117883,89.767588 281.320348,89.1319293 280.392318,89.0975798 C280.914172,87.6863193 282.81894,87.3465714 283.659126,86.1025714 C284.076609,85.4857983 283.940927,84.3463361 283.199894,84.3411092 C283.01904,84.3497631 282.841683,84.3941733 282.67804,84.4717815 L279.91743,85.6164706 C279.381285,85.8244832 278.85844,86.0653763 278.351868,86.3377815 C276.833272,87.2054454 275.695629,88.611479 274.698887,90.0384202 C273.733723,91.3012171 272.963236,92.7019423 272.413166,94.1937983 C272.103544,95.1138594 271.939783,96.0768347 271.927841,97.0476807 L271.927841,97.3403866 C271.473828,97.4187899 271.10853,97.6121849 270.633642,97.7062689 L269.563841,100.549697 C269.422609,101.02394 269.184475,101.463591 268.864556,101.840739 C268.626567,102.058459 268.373726,102.259309 268.107868,102.441832 C267.002097,103.38729 266.437017,104.820857 266.599709,106.267916 C264.586615,107.062473 263.530998,109.282131 264.183523,111.348454 C262.543019,111.708046 261.206997,112.89576 260.655788,114.484588 C260.584121,114.84288 260.426513,115.178333 260.196556,115.462017 C259.844022,115.731124 259.407645,115.866321 258.96498,115.84358 C257.754278,115.916756 256.694914,116.888958 255.604238,116.366269 C254.358243,115.781447 252.965136,115.586537 251.606834,115.806992 C251.327858,115.869774 251.041942,115.896127 250.756212,115.885395 C250.511491,115.841526 250.275391,115.758582 250.056927,115.639731 C249.57162,115.34875 249.04315,115.137024 248.491364,115.012504 C247.919582,114.886911 247.328149,115.115224 246.988424,115.592689 C246.602252,115.169311 246.377854,114.625714 246.028212,114.176202 C245.710274,113.686885 245.147255,113.414995 244.56702,113.470571 C244.932318,113.146504 244.56702,112.493143 244.086914,112.378151 C243.601294,112.335389 243.112258,112.352945 242.63094,112.43042 C241.362834,112.43042 240.392185,111.264824 239.165828,110.956437 C238.033404,110.684639 236.525245,111.013933 235.945987,109.999916 C235.763338,109.670622 235.711152,109.242017 235.424132,109.00158 C235.357603,108.726374 235.23107,108.469333 235.053616,108.248908 C234.519818,107.781033 233.809929,107.567534 233.107099,107.663496 C232.33767,107.688502 231.575437,107.820435 230.842252,108.055513 C230.828986,107.954948 230.802671,107.856548 230.763974,107.762807 C230.320365,106.468398 229.430328,105.374923 228.253854,104.678941 C227.341957,104.139191 226.352873,103.742572 225.321033,103.502891 L225.321033,103.231092 C225.304829,101.918623 225.509476,100.612796 225.926384,99.3684202 C225.968132,99.232521 226.020318,99.1018487 226.062066,98.9659496 C230.848414,97.7024437 234.592328,93.9678155 235.873342,89.1790087 C237.154357,84.3902018 235.776177,79.2810177 232.261695,75.789916 C232.256756,75.5096241 232.21999,75.2308054 232.152106,74.9588403 C232.001544,74.3627832 231.71783,73.8087451 231.322358,73.3385042 C230.690914,71.9220168 229.704609,71.3000168 228.44694,70.7250588 C228.086861,70.5525714 227.700689,70.3853109 227.298861,70.2023697 C225.289722,69.2981176 223.353642,67.9704874 221.078358,67.9757143 C218.99094,67.9757143 217.007894,69.1256303 214.957007,69.0838151 L214.435152,69.0838151 C213.861113,69.0158655 213.172265,68.8799664 212.79653,69.3190252 C212.671637,69.4934848 212.573161,69.6854677 212.504291,69.8887563 C212.474664,69.9542155 212.439758,70.0171467 212.399921,70.0769244 L212.399921,70.0769244 C212.324899,70.2066997 212.235629,70.3276693 212.133775,70.4375798 L212.133775,70.4375798 C211.47102,71.1641176 210.35947,71.482958 209.441007,71.9638319 C207.353589,73.0092101 206.012424,75.1992773 205.474914,77.4782017 C205.01748,79.783437 205.035239,82.1579878 205.527099,84.4561008 C205.730623,85.6112437 206.179417,86.9179664 206.998728,87.6445042 L206.998728,87.6445042 C206.998728,87.6445042 200.068503,92.583916 201.331391,93.2895462 C202.020238,93.6711092 204.890437,91.8469244 207.364026,90.1063697 C207.364026,90.2109076 207.410993,90.3206723 207.442305,90.4252101 C207.736448,91.5338943 208.113241,92.6189071 208.56951,93.6711092 C209.091364,94.9151092 209.837616,96.2845546 211.126596,96.6295294 C211.412071,96.7072034 211.707727,96.7406941 212.003311,96.7288403 L212.227709,96.7288403 C212.293705,98.6291189 212.093452,100.529284 211.632795,102.373882 C210.881299,102.32849 210.136037,102.534409 209.514066,102.959294 C209.278692,103.193416 208.978851,103.351767 208.653007,103.414034 C208.316717,103.374406 208.003876,103.221422 207.765854,102.980202 C205.852391,101.595401 203.233757,101.734705 201.47751,103.314723 C198.967391,105.687731 199.254411,110.318756 196.295497,112.116807 C195.486623,112.608134 194.453351,112.874706 193.973245,113.684874 C193.859874,113.948632 193.727314,114.203693 193.576636,114.448 C193.378583,114.667136 193.139137,114.844787 192.872132,114.970689 C192.017549,115.35326 191.204417,115.822654 190.44551,116.371496 C189.680295,116.934764 189.177185,117.785946 189.052159,118.728824 C189.042556,119.412588 189.187041,120.089718 189.474861,120.709815 C189.917531,121.802403 190.459035,122.852153 191.092609,123.84595 C190.747574,124.291925 190.522931,124.819331 190.440291,125.377429 C190.23155,126.835731 190.930834,128.278353 191.003894,129.752336 C191.071735,131.038151 190.664689,132.297832 190.435073,133.562739 C189.521828,138.517832 191.27004,143.535647 193.044344,148.245076 C193.3835,149.009994 193.593362,149.826055 193.665351,150.659899 C193.712318,152.227966 192.835603,153.602639 192.590331,155.118437 C192.068477,158.312067 194.42204,161.312303 194.474225,164.52684 C194.474225,166.016504 194.02543,167.532303 194.401166,168.969697 C194.641219,169.931445 195.241351,170.757294 195.664053,171.656319 C196.410305,173.224387 196.613828,175.048571 197.328768,176.653227 C198.182827,178.399027 199.449291,179.909732 201.018278,181.054269 C201.910649,183.908151 200.637325,187.326538 201.018278,190.405176 C201.503603,190.211782 201.994146,190.039294 202.495126,189.882487 C202.188094,194.420188 203.33038,198.938062 205.756715,202.782454 C206.560371,204.042134 207.504927,205.212958 208.110278,206.582403 C208.501948,207.555978 208.809237,208.561509 209.028742,209.587866 C209.89502,213.215328 210.764777,216.837563 211.638013,220.454571 C212.342517,223.392084 213.052238,226.376639 212.843497,229.387328 C212.697377,231.478084 212.165086,233.840639 213.454066,235.50279 C213.761781,235.820767 214.021926,236.181679 214.226411,236.574303 C214.351719,237.036351 214.351719,237.523514 214.226411,237.985563 C213.589895,241.482491 213.15257,245.012864 212.916556,248.559563 C212.629536,248.95158 212.337298,249.343597 212.076371,249.735613 C209.941987,252.871748 208.919152,256.598521 208.089404,260.288706 C206.561424,267.546084 205.667414,274.922966 205.41751,282.335731 C204.348022,283.303959 203.428201,284.426069 202.688212,285.665261 C201.576662,287.756017 201.430543,290.181294 201.310517,292.543849 C201.262841,292.924812 201.305756,293.311668 201.435762,293.672857 C201.719584,294.081864 202.127781,294.388043 202.599497,294.545748 L203.241377,294.854134 C203.100477,295.376824 202.975232,295.899513 202.865642,296.422202 C202.046331,295.497042 200.590358,294.033513 200.345086,295.105025 C199.526821,298.683685 199.080865,302.337615 199.014358,306.008319 C198.957382,306.293983 199.038065,306.589842 199.232118,306.806829 C199.426171,307.023816 199.710926,307.136587 200.000662,307.111193 C203.559514,307.742894 207.167904,308.05253 210.782172,308.036353 C213.709775,308.036353 216.632159,307.795916 219.549325,307.576387 L222.53955,307.346403 C225.616598,307.186705 228.678688,306.811191 231.703311,306.222622 C233.023603,305.935143 234.385642,305.522218 235.382384,304.591832 C236.379126,303.661445 236.86445,302.072471 236.180821,300.89642 L236.180821,300.89642 C235.345854,299.469479 233.394119,299.364941 231.771152,299.140185 C230.158455,298.911446 228.595531,298.413196 227.147523,297.666202 C226.818755,297.498941 226.505642,297.310773 226.187311,297.143513 C226.274538,297.134486 226.359407,297.109693 226.437801,297.070336 C227.836371,296.599916 228.947921,295.502269 230.268212,294.864588 C231.833775,294.111916 233.53502,293.939429 235.225828,293.725126 C236.916636,293.510824 238.654411,293.202437 240.058199,292.240689 C241.373272,291.336437 242.307391,289.689966 242.004715,288.142807 C241.98243,288.033426 241.954561,287.925262 241.921219,287.818739 C241.399364,286.140908 239.58853,285.205294 237.897722,284.80805 C236.206914,284.410807 234.375205,284.144235 233.007947,283.051815 L232.804424,282.889782 C232.689616,282.790471 232.569589,282.696387 232.449563,282.602303 C232.748215,282.090361 232.886392,281.500347 232.846172,280.90879 C232.773113,279.978403 232.235603,279.157782 231.865086,278.295345 C231.144927,276.607059 231.092742,274.720151 230.894437,272.895966 C230.403894,268.311983 229.000106,263.884807 227.94596,259.389681 C227.825934,258.866992 227.711126,258.344303 227.596318,257.821613 C228.628689,255.676031 229.892121,253.649903 231.364106,251.779328 C233.050309,249.668549 234.284868,247.232844 234.990993,244.623714 C235.210172,243.824 235.371947,243.013832 235.512848,242.198437 C237.384565,232.814426 239.153651,223.418218 240.820106,214.009815 C241.095449,212.66884 241.254338,211.306502 241.294993,209.938067 C241.727611,208.69487 241.963553,207.391582 241.994278,206.075395 C242.479603,204.172807 242.970146,202.170908 242.573536,200.921681 C242.291735,200.043563 242.150834,197.02242 241.999497,194.126723 C242.041396,192.574284 241.9471,191.021158 241.717695,189.485244 C241.670728,189.223899 241.618543,188.962555 241.561139,188.70121 C241.536513,188.570743 241.50516,188.44164 241.467205,188.31442 C241.250024,187.444459 240.94581,186.598651 240.559179,185.789832 C240.361265,185.304541 240.131134,184.833067 239.870331,184.378571 C239.715885,184.109695 239.54144,183.852851 239.348477,183.610218 C240.427942,183.656316 241.504358,183.7575 242.573536,183.913378 C242.829245,183.949966 243.152795,183.970874 243.31457,183.756571 C243.381566,183.635254 243.414056,183.497855 243.408503,183.359328 C243.45823,182.133202 243.167385,180.917294 242.568318,179.846857 C242.150834,179.109866 241.576795,178.393782 241.59245,177.547025 C241.619191,177.15137 241.716396,176.763698 241.87947,176.402336 L243.31457,172.539664 C244.53049,169.26763 243.951232,165.483361 244.582675,162.054521 C245.074633,159.375882 245.390166,156.667735 245.527232,153.947613 C245.647258,151.626874 245.574199,149.107513 244.180848,147.246739 C243.775579,146.798797 243.425193,146.303963 243.137139,145.772756 C242.934637,145.208843 242.849395,144.609412 242.886649,144.011294 C242.865775,140.369894 242.938834,136.73372 243.105828,133.102773 C249.207895,132.927329 255.283684,132.227845 261.266358,131.012017 C261.97848,130.893163 262.677515,130.705873 263.353775,130.452739 C264.098866,130.099523 264.799555,129.659137 265.441192,129.14079 C267.481642,127.66158 269.548185,126.161462 271.098093,124.180471 C272.937187,121.770777 274.092854,118.908589 274.443179,115.895849 C275.914808,114.53163 276.697589,112.587227 277.433404,110.705546 C277.797081,109.908775 278.028014,109.057723 278.117033,108.186185 C278.153563,107.292387 277.569086,106.356773 277.736079,105.478655 C278.017611,103.966762 278.779021,102.58633 279.906993,101.542807 C280.148688,101.370868 280.331052,101.127937 280.428848,100.84763 C280.45986,100.61584 280.417902,100.380134 280.308821,100.173361 L280.261854,100.094958 C280.407974,100.011328 280.543656,99.9172437 280.684556,99.8231597 C281.164662,99.4781849 281.623894,99.1018487 282.077907,98.7307395 C282.767289,98.2102392 283.375782,97.5902045 283.883523,96.8908739 C284.382165,96.1982679 284.560737,95.324909 284.374066,94.4917311 Z" id="Path-Copy-28" fill="url(#linearGradient-1)" fill-rule="nonzero"></path>
            <path d="M217.73849,293.463782 C217.607246,293.458636 217.475857,293.469164 217.347099,293.495143 C216.871451,293.561205 216.406512,293.689487 215.964185,293.876706 L215.859815,293.928975 C216.459947,292.690202 217.028768,291.430521 217.540185,290.149933 C217.602808,289.998353 217.654993,289.846773 217.717616,289.689966 L217.649775,290.547176 C217.535809,291.51845 217.565704,292.501258 217.73849,293.463782 Z" id="Path-Copy-42" fill="url(#linearGradient-2)" fill-rule="nonzero"></path>
            <ellipse id="Oval-Copy-21" fill="#FFFFFF" fill-rule="nonzero" opacity="0.62" cx="221.026172" cy="297.462353" rx="63.4261722" ry="13.4174286"></ellipse>
            <path d="M283.888742,97.7428571 C283.370895,98.4331642 282.753596,99.0426429 282.057033,99.5513613 C281.60302,99.9172437 281.13857,100.29358 280.648026,100.628101 C279.77457,101.288545 278.740061,101.701927 277.652583,101.825059 C276.227921,101.913916 273.190728,101.093294 272.303576,99.8963361 C271.927462,99.2951301 271.745258,98.5925238 271.781722,97.8839832 C271.798947,96.9285541 271.964439,95.9816219 272.272265,95.0771429 C272.832051,93.59897 273.611438,92.2139165 274.584079,90.9688067 C275.627788,89.5575462 276.76543,88.1776471 278.299682,87.3099832 C278.806776,87.0416856 279.329582,86.8043013 279.865245,86.5991261 L282.657166,85.4753445 C282.819952,85.3953639 282.997807,85.3508289 283.17902,85.3446723 C283.93049,85.3446723 284.066172,86.4736807 283.64347,87.08 C282.792848,88.3030924 280.877642,88.6219328 280.340132,90.0279664 C281.261713,90.0490462 282.065649,90.6603404 282.333616,91.5437647 C282.355806,91.7706026 282.44895,91.9846282 282.599762,92.1553109 C282.845033,92.343479 283.231205,92.2337143 283.513007,92.3852941 C284.034861,92.6414118 283.789589,93.3679496 283.841775,93.9272269 C283.965824,94.4046044 284.140782,94.8672319 284.363629,95.3071261 C284.582952,96.1491363 284.40822,97.04535 283.888742,97.7428571 L283.888742,97.7428571 Z" id="Path-Copy-43" stroke="#959292" stroke-width="0.5" fill="#EE8E9E" fill-rule="nonzero"></path>
            <path d="M225.060106,104.198067 C225.112291,106.252235 225.790702,108.243681 225.895073,110.297849 C219.992901,110.601008 214.163788,107.653042 208.339894,108.562521 C209.978517,107.475328 210.850013,105.520471 211.366649,103.602202 C212.020793,101.114756 212.215339,98.5284761 211.940689,95.9709412 C211.924436,95.8302587 211.900042,95.69064 211.867629,95.5527899 C211.64845,94.544 211.084848,93.1222857 211.236185,92.3330252 C211.439709,91.2876471 212.399921,91.4914958 213.266199,91.5489916 C215.90932,91.7590947 218.539606,92.1080342 221.146199,92.5943697 C221.824609,92.7198151 228.452159,94.4133277 228.540874,94.2356134 C227.379701,96.1486542 226.419579,98.1770672 225.675894,100.288353 C225.256374,101.548563 225.048292,102.869703 225.060106,104.198067 L225.060106,104.198067 Z" id="Path-Copy-44" fill="#EE8E9E" fill-rule="nonzero"></path>
            <path d="M202.651682,188.073983 C201.571555,193.427014 202.60402,198.99101 205.532318,203.597849 C206.330755,204.841849 207.275311,206.012672 207.875444,207.36121 C208.27075,208.327646 208.576453,209.328457 208.788689,210.350992 L211.350993,221.097479 C212.055497,224.008857 212.76,226.967277 212.551258,229.983193 C212.405139,232.07395 211.878066,234.394689 213.156609,236.04116 C213.464088,236.34959 213.72435,236.701858 213.928954,237.086538 C214.055254,237.543131 214.055254,238.025525 213.928954,238.482118 C212.619099,246.322454 211.643232,254.476403 214.01245,262.039714 C216.16249,268.897395 216.287735,276.497294 218.114225,283.438605 C218.264331,284.321153 218.656398,285.144543 219.246649,285.81684 C219.736872,286.227707 220.324633,286.504955 220.953113,286.621782 C223.645881,287.269916 226.489987,286.517244 229.000106,285.351647 C230.763974,284.525798 232.653086,283.088403 232.517404,281.170134 C232.444344,280.244975 231.906834,279.42958 231.541536,278.582824 C230.821377,276.910218 230.763974,275.044218 230.570887,273.235714 C230.085563,268.688319 228.686993,264.302958 227.632848,259.860101 C226.578702,255.417244 225.853325,250.765311 226.750914,246.270185 C228.576478,236.999554 231.500414,227.980339 235.460662,219.403966 C235.634481,218.950399 235.907271,218.541454 236.259099,218.207008 C236.655995,217.978893 237.034607,217.720256 237.391523,217.433429 C237.665877,217.008532 237.844001,216.528613 237.913377,216.027395 C238.304768,214.610908 239.47894,213.560303 240.251285,212.316303 C242.229113,209.180168 241.602887,205.134555 241.529828,201.418235 C241.461987,197.796 241.978623,194.173765 241.388927,190.593345 C240.799232,187.012924 238.779656,183.380235 235.351073,182.282588 C233.655046,181.728538 231.812901,181.853983 230.038596,182.031697 C220.64,182.941176 211.491894,184.676504 202.651682,188.073983 Z" id="Path-Copy-45" fill="#000000" fill-rule="nonzero" opacity="0.1"></path>
            <path d="M241.190623,210.492118 C241.162912,211.897741 241.003923,213.297683 240.715735,214.67363 C239.035364,224.019311 237.245404,233.361507 235.345854,242.700218 C235.178861,243.510387 235.011868,244.320555 234.792689,245.109815 C234.079751,247.708767 232.83584,250.131154 231.139709,252.223613 C223.223179,262.024034 222.53955,276.267311 218.244689,288.080084 C217.95245,288.879798 217.66543,289.684739 217.357536,290.474 C216.577754,292.483657 215.691072,294.450042 214.701298,296.364706 C214.591955,296.640125 214.411934,296.881738 214.179444,297.065109 C213.913436,297.199997 213.615726,297.259634 213.318384,297.237597 C209.454568,297.254764 205.637467,296.391459 202.155921,294.713008 C201.659764,294.529672 201.240324,294.183264 200.966093,293.730353 C200.836135,293.370966 200.79321,292.985814 200.840848,292.606571 C200.960874,290.264924 201.106993,287.839647 202.234199,285.775025 C202.983382,284.542616 203.910095,283.427726 204.984371,282.466403 C205.239215,275.09143 206.147328,267.753684 207.698013,260.539597 C208.53298,256.880773 209.57147,253.154 211.716291,250.054454 C213.281854,247.759849 215.572795,245.496605 215.290993,242.736807 C215.170967,241.518941 214.65955,240.00837 215.651073,239.297513 C216.084212,238.983899 216.731311,238.942084 217.028768,238.497798 C217.143312,238.286838 217.209285,238.052884 217.221854,237.813076 C217.425215,235.914463 217.305223,233.995047 216.866993,232.136672 C216.503122,230.922693 216.217256,229.686616 216.011152,228.436034 C215.818601,227.167178 216.158586,225.875061 216.95049,224.866067 C217.002675,222.341479 216.95049,219.71758 216.98702,217.198218 C217.086881,215.761226 216.965434,214.317398 216.62694,212.917395 C216.439073,212.258807 216.136397,211.626353 215.990278,210.952084 C215.468424,208.526807 216.788715,205.620655 215.207497,203.686706 C214.54996,202.886992 213.537563,202.484521 212.676503,201.909563 C210.986314,200.698923 209.75856,198.947451 209.195735,196.944017 C208.632184,194.957295 208.297756,192.912442 208.198993,190.849462 C208.152024,190.413411 208.152024,189.973564 208.198993,189.537513 C208.226656,189.310667 208.286398,189.088916 208.376424,188.878924 C208.872185,187.786504 210.187258,187.357899 211.36143,187.075647 C218.828215,185.302891 226.477135,184.415201 234.150808,184.43084 C236.994914,182.512571 238.58657,183.202521 239.797272,185.230555 C240.459912,186.473487 240.99662,187.779757 241.399364,189.129815 C241.921219,190.776286 241.983841,200.027882 242.516132,201.674353 C243.184106,203.817378 241.16453,208.228874 241.190623,210.492118 Z" id="Path-Copy-46" fill="#EC8D53" fill-rule="nonzero"></path>
            <path d="M190.278517,125.126538 C190.064556,126.590067 190.76906,128.022235 190.847338,129.496218 C190.915179,130.782034 190.502914,132.041714 190.273298,133.306622 C189.344397,138.246034 191.118702,143.237714 192.88257,147.941916 C193.226805,148.703846 193.44028,149.518469 193.514013,150.351513 C193.56098,151.882992 192.673828,153.289025 192.423338,154.804824 C191.901483,157.993227 194.281139,160.983008 194.333325,164.187092 C194.333325,165.676756 193.879311,167.187328 194.260265,168.619496 C194.505536,169.576017 195.110887,170.407092 195.533589,171.300891 C196.295497,172.868958 196.504238,174.687916 197.224397,176.287345 C198.534252,179.177815 201.347046,181.06995 204.008503,182.805277 C205.527099,182.282588 207.139629,181.70763 208.011126,180.348639 C208.380264,179.680638 208.617672,178.947756 208.710411,178.189933 C209.289669,174.891765 209.268795,171.52042 209.232265,168.17521 C209.289857,165.295394 209.14337,162.415115 208.793907,159.556067 C208.272053,155.897244 207.06657,152.416134 206.210728,148.835714 C205.16702,144.324908 204.587762,139.667748 202.912609,135.334655 C201.435762,131.534706 199.144821,128.121546 196.728636,124.849513 C195.810172,123.600286 195.079576,121.817916 193.289616,122.105395 C191.744411,122.366804 190.526943,123.567427 190.241987,125.110857 L190.278517,125.126538 Z" id="Path-Copy-47" fill="#000000" fill-rule="nonzero" opacity="0.05"></path>
            <ellipse id="Oval-Copy-22" fill="#EE8E9E" fill-rule="nonzero" cx="222.435179" cy="86.5468571" rx="13.6256159" ry="13.8878487"></ellipse>
            <path d="M230.492609,109.55563 C229.897695,110.24558 229.099258,111.003479 228.222543,110.778723 C227.902935,110.669627 227.60327,110.508962 227.335391,110.303076 C225.769828,109.257697 223.838967,109.053849 221.996821,108.735008 C218.273538,108.172578 214.595427,107.342849 210.990914,106.252235 C209.944078,105.872152 208.846605,105.650192 207.734543,105.593647 C205.427947,105.593647 203.382278,107.161714 201.936742,108.938857 C200.491205,110.716 199.463152,112.853798 198.043709,114.688437 C197,115.989933 195.831046,117.139849 194.88649,118.488387 C192.501616,121.891092 191.990199,126.328723 192.605987,130.452739 C193.221775,134.576756 194.860397,138.444655 196.488583,142.275966 C197.354015,144.511307 198.413981,146.666112 199.656238,148.715496 C199.134384,151.815042 199.395311,155.43205 200.882596,158.22321 C201.362702,159.137916 201.952397,160.026487 202.114172,161.050958 C202.190233,161.74816 202.162091,162.452824 202.030675,163.141714 L201.336609,168.081126 C201.122649,169.586471 200.913907,171.086588 200.637325,172.586706 C200.11547,175.32037 199.463152,178.273563 200.72604,180.761563 C202.239417,183.730437 200.647762,187.530387 201.044371,190.839008 C205.307841,189.197451 209.773844,188.142464 214.320344,187.702874 C217.242728,187.415395 220.222517,187.378807 223.045748,186.558185 C224.809616,186.035496 226.47955,185.230555 228.264291,184.81763 C229.716831,184.529461 231.19324,184.378959 232.67396,184.368118 C235.93555,184.237445 239.218013,184.101546 242.469166,184.58242 C242.724874,184.624235 243.043205,184.645143 243.20498,184.43084 C243.271722,184.313011 243.305945,184.17951 243.304132,184.04405 C243.352332,182.832016 243.063252,181.630414 242.469166,180.573395 C242.056901,179.84163 241.482861,179.130773 241.498517,178.294471 C241.526638,177.902975 241.62197,177.519272 241.780318,177.160235 L243.210199,173.339378 C244.420901,170.10916 243.846861,166.356252 244.473086,162.964 C244.963285,160.313366 245.277089,157.633036 245.412424,154.940723 C245.53245,152.640891 245.459391,150.147664 244.071258,148.307798 C243.666438,147.863302 243.316055,147.371981 243.02755,146.844269 C242.828924,146.286715 242.745478,145.69455 242.782278,145.103714 C242.750967,140.500566 242.876212,135.897417 243.158013,131.294269 C241.95253,129.119882 240.689642,126.898454 239.505033,124.71884 C238.096026,122.189025 236.671364,119.601714 236.107762,116.763513 C235.732026,114.887059 235.742464,112.947882 235.471099,111.050521 C235.444128,110.567273 235.277308,110.102335 234.990993,109.712437 C234.460024,109.247531 233.753075,109.037588 233.054914,109.137479 C232.184378,109.157481 231.322029,109.310836 230.497828,109.592218 L230.492609,109.55563 Z" id="Path-Copy-48" fill="#7458AB" fill-rule="nonzero"></path>
            <path d="M228.050331,86.5416303 C227.998146,87.9476639 228.968795,90.6708739 226.302119,89.9234286 C224.736556,89.4686891 224.266887,87.6026891 222.257748,88.0156134 C220.248609,88.4285378 219.773722,90.8904034 219.095311,92.4950588 C217.956005,95.0952361 215.615858,96.9703483 212.83306,97.5128739 C212.264666,97.6435067 211.674115,97.6435067 211.105722,97.5128739 C209.806305,97.1469916 209.065272,95.8193613 208.53298,94.591042 C208.073426,93.5515692 207.693124,92.4787313 207.395338,91.3817311 C207.187623,90.6116998 207.049643,89.8244799 206.983073,89.0296303 L206.983073,89.0296303 C206.941324,88.4885826 206.941324,87.9451148 206.983073,87.4040672 C207.223126,84.1999832 209.07049,81.2781513 211.429272,79.0724034 C213.788053,76.8666555 216.647815,75.262 219.486702,73.6887059 C220.4144,73.1186151 221.415055,72.6772707 222.461272,72.3767563 C223.492135,72.1716777 224.548885,72.1311041 225.592397,72.2565378 C226.961858,72.3124714 228.30879,72.6244809 229.563709,73.1764706 C230.079212,73.4277392 230.552753,73.7574562 230.967497,74.1538992 C231.557459,74.6915893 231.979706,75.3885943 232.183417,76.1610252 C232.705272,78.2256471 231.364106,80.0968739 230.278649,81.7328908 C229.287126,83.1859664 228.092079,84.7226723 228.050331,86.5416303 Z" id="Path-Copy-50" fill="#434175" fill-rule="nonzero"></path>
            <path d="M230.513483,78.4033613 C230.267303,78.8093728 229.9972,79.2003394 229.704609,79.5741849 C229.145652,80.2873639 228.518159,80.9438722 227.831152,81.5342689 C227.424106,81.8896975 227.001404,82.2189916 226.568265,82.532605 C225.752129,83.1151279 224.895893,83.6391235 224.00596,84.1006723 C221.374687,85.3359013 218.6356,86.3262093 215.823285,87.0590924 L210.354252,88.658521 C208.444265,90.1220504 202.05155,94.8942017 200.960874,94.2983361 C199.713642,93.5613445 206.654305,88.6010252 206.654305,88.6010252 L206.972636,88.8466891 C205.928927,88.2037815 205.407073,86.7088908 205.198331,85.4178487 C204.791285,83.1023361 204.598199,80.7136471 205.146146,78.419042 C205.694093,76.124437 207.045695,73.9605042 209.117457,72.8942185 C210.035921,72.4081176 211.152689,72.0892773 211.815444,71.3575126 C211.915678,71.2462657 212.004817,71.125473 212.081589,70.9968571 C212.121427,70.9370794 212.156333,70.8741483 212.18596,70.8086891 C212.254026,70.6060445 212.350678,70.4141917 212.47298,70.238958 C212.853934,69.7946723 213.542781,69.9305714 214.12204,70.0037479 L214.612583,70.0037479 C216.7,70.0507899 218.662172,68.8904202 220.744371,68.8904202 C223.024874,68.8904202 224.960954,70.2232773 226.970093,71.1327563 C227.377139,71.3156975 227.758093,71.482958 228.123391,71.6554454 C229.574146,72.3349412 230.664821,73.0667059 231.254517,74.9954286 C231.604159,76.171479 231.124053,77.3579832 230.513483,78.4033613 Z" id="Path-Copy-51" fill="#EC8D53" fill-rule="nonzero"></path>
            <path d="M235.356291,130.426605 C236.191258,131.471983 237.057536,132.517361 238.236927,133.160269 C239.604185,133.865899 241.206278,133.88158 242.735311,133.850218 C249.04659,133.705403 255.332983,133.005798 261.522066,131.759462 C262.233879,131.639181 262.93278,131.451926 263.609483,131.200185 C264.352508,130.845298 265.052816,130.406906 265.696901,129.893462 C267.737351,128.424706 269.803894,126.924588 271.353801,124.943597 C273.196017,122.54854 274.35564,119.698134 274.709325,116.695563 C276.180954,115.336571 276.963735,113.392168 277.69955,111.526168 C278.063825,110.733283 278.294812,109.885566 278.383179,109.017261 C278.419709,108.128689 277.861325,107.198303 278.002225,106.320185 C278.284076,104.812888 279.045712,103.43755 280.173139,102.400017 C280.414351,102.227581 280.596587,101.98482 280.694993,101.70484 C280.726674,101.474724 280.684649,101.240473 280.574967,101.035798 C279.847027,99.6499098 278.53705,98.6639374 277.005483,98.3491765 C275.489192,98.0568492 273.937762,97.9934243 272.402728,98.1610084 C271.892488,98.2599985 271.390166,98.3962617 270.899788,98.5687059 L269.798675,101.401681 C269.655105,101.874947 269.417217,102.314143 269.099391,102.692723 C268.860006,102.907184 268.607268,103.106207 268.342702,103.288588 C267.236328,104.229102 266.670735,105.660048 266.834543,107.104218 C264.824208,107.890159 263.765724,110.101908 264.413139,112.163849 C262.770172,112.520871 261.431471,113.70921 260.880185,115.299983 C260.807326,115.656302 260.649801,115.989785 260.420954,116.272185 C260.072472,116.539107 259.643627,116.679212 259.205033,116.669429 C257.994331,116.742605 256.934967,117.714807 255.839073,117.192118 C254.592246,116.610107 253.200001,116.415318 251.841669,116.63284 C251.561718,116.700553 251.273397,116.726966 250.985828,116.711244 C250.741107,116.667375 250.505006,116.584431 250.286543,116.46558 C249.790833,116.176838 249.254136,115.965341 248.694887,115.838353 C248.122481,115.719538 247.533819,115.948829 247.191947,116.423765 C246.810993,116.000387 246.581377,115.462017 246.231735,115.007277 C245.91249,114.519951 245.349718,114.250194 244.770543,114.306874 C245.130623,113.982807 244.770543,113.334672 244.285219,113.214454 C243.799475,113.177014 243.311066,113.194548 242.829245,113.266723 C241.566358,113.266723 240.59049,112.106353 239.358914,111.803193 C238.22649,111.526168 236.718331,111.860689 236.139073,110.846672 C235.93555,110.486017 235.893801,109.994689 235.549377,109.801294 C235.310464,109.681318 235.036884,109.649843 234.777033,109.712437 C233.974857,109.816863 233.195463,110.053528 232.470437,110.41284 C231.280609,115.117042 231.906834,119.904874 232.809642,124.619529 C233.147879,126.741756 234.024791,128.741361 235.356291,130.426605 L235.356291,130.426605 Z" id="Path-Copy-52" fill="#5B4091" fill-rule="nonzero"></path>
            <path d="M201.76453,300.436454 C202.218543,299.981714 202.959576,300.060118 203.596238,300.159429 C207.000562,300.697387 210.440807,300.975214 213.887205,300.990504 C214.320344,298.899748 213.067894,296.850807 212.666066,294.718235 C212.607786,294.169398 212.468864,293.632197 212.253801,293.124034 C211.768477,292.18842 210.688238,291.759815 209.64453,291.555966 C207.791947,291.16395 204.890437,290.474 203.851947,292.355681 C202.615152,294.587563 202.218543,297.932773 201.76453,300.436454 Z" id="Path-Copy-53" fill="#65617D" fill-rule="nonzero"></path>
            <path d="M239.249325,292.496807 C237.866411,293.479462 236.154728,293.782622 234.490013,294.002151 C232.825298,294.221681 231.118834,294.394168 229.605457,295.162521 C228.311258,295.831563 227.215364,296.923983 225.837669,297.404857 C224.56129,297.770471 223.211165,297.792108 221.923762,297.46758 C220.394728,297.16442 218.730013,296.579008 217.900265,295.193882 C217.154013,293.960336 217.227073,292.397496 217.331444,290.949647 C217.45147,289.308403 217.571497,287.656706 217.681086,286.015462 C217.676018,285.599178 217.778485,285.188652 217.978543,284.823731 C219.095311,283.124992 221.814172,285.529361 223.270146,285.529361 C225.576742,285.529361 228.050331,284.227866 229.709828,282.638891 C229.861784,282.48117 230.037964,282.348824 230.231682,282.246874 C230.889219,281.938487 231.546755,282.508218 232.131232,282.999546 L232.329536,283.166807 C233.675921,284.274908 235.460662,284.499664 237.146252,284.954403 C238.831841,285.409143 240.574834,286.302941 241.096689,288.001681 C241.13245,288.107496 241.160358,288.215814 241.180185,288.325748 C241.467205,289.904269 240.533086,291.571647 239.249325,292.496807 Z" id="Path-Copy-54" fill="#3F3D56" fill-rule="nonzero"></path>
            <path d="M239.249325,292.496807 C237.866411,293.479462 236.154728,293.782622 234.490013,294.002151 C232.825298,294.221681 231.118834,294.394168 229.605457,295.162521 C228.311258,295.831563 227.215364,296.923983 225.837669,297.404857 C224.56129,297.770471 223.211165,297.792108 221.923762,297.46758 C220.394728,297.16442 218.730013,296.579008 217.900265,295.193882 C217.154013,293.960336 217.227073,292.397496 217.331444,290.949647 C217.45147,289.308403 217.571497,287.656706 217.681086,286.015462 C217.676018,285.599178 217.778485,285.188652 217.978543,284.823731 C219.095311,283.124992 221.814172,285.529361 223.270146,285.529361 C225.576742,285.529361 228.050331,284.227866 229.709828,282.638891 C229.861784,282.48117 230.037964,282.348824 230.231682,282.246874 C230.889219,281.938487 231.546755,282.508218 232.131232,282.999546 L232.329536,283.166807 C233.675921,284.274908 235.460662,284.499664 237.146252,284.954403 C238.831841,285.409143 240.574834,286.302941 241.096689,288.001681 C241.13245,288.107496 241.160358,288.215814 241.180185,288.325748 C241.467205,289.904269 240.533086,291.571647 239.249325,292.496807 Z" id="Path-Copy-55" fill="#434175" fill-rule="nonzero"></path>
            <path d="M239.985139,292.522941 C238.555258,293.50037 236.786172,293.803529 235.064053,294.028286 C233.341934,294.253042 231.578066,294.409849 230.017722,295.178202 C228.681775,295.842017 227.549351,296.92921 226.124689,297.404857 C224.803886,297.770321 223.411785,297.791911 222.080318,297.46758 C220.373779,297.116265 218.873983,296.106039 217.905483,294.655513 C217.133139,293.43242 217.211417,291.874807 217.315788,290.432185 C217.446252,288.801395 217.566278,287.160151 217.681086,285.524134 C217.674543,285.109656 217.780995,284.701241 217.98898,284.342857 C219.142278,282.649345 221.955073,285.043261 223.452795,285.043261 C225.837669,285.043261 228.394755,283.741765 230.111656,282.168471 C230.261088,282.007911 230.437778,281.875182 230.63351,281.776454 C231.311921,281.468067 231.990331,282.032571 232.590464,282.523899 C232.198399,283.751593 231.636274,284.918109 230.92053,285.989328 C229.749194,287.825095 227.81171,289.031715 225.649801,289.271815 C224.606093,289.350218 223.494543,289.141143 222.487364,289.412941 C221.480185,289.684739 220.499099,290.745798 220.859179,291.744134 C221.219258,292.742471 222.476927,292.935866 223.499762,292.993361 C224.948427,293.160529 226.415507,293.05595 227.825934,292.684975 C228.671338,292.40795 229.443682,291.942756 230.262993,291.597782 C233.754199,290.149933 238.169086,290.960101 241.049722,288.508689 C241.326502,288.26222 241.621302,288.036835 241.931656,287.83442 C242.714437,289.412941 241.310649,291.629143 239.985139,292.522941 Z" id="Path-Copy-56" fill="#E8EAF2" fill-rule="nonzero"></path>
            <path d="M239.985139,292.522941 C238.555258,293.50037 236.786172,293.803529 235.064053,294.028286 C233.341934,294.253042 231.578066,294.409849 230.017722,295.178202 C228.681775,295.842017 227.549351,296.92921 226.124689,297.404857 C224.803886,297.770321 223.411785,297.791911 222.080318,297.46758 C220.373779,297.116265 218.873983,296.106039 217.905483,294.655513 C217.133139,293.43242 217.211417,291.874807 217.315788,290.432185 C217.446252,288.801395 217.566278,287.160151 217.681086,285.524134 C217.674543,285.109656 217.780995,284.701241 217.98898,284.342857 C219.142278,282.649345 221.955073,285.043261 223.452795,285.043261 C225.837669,285.043261 228.394755,283.741765 230.111656,282.168471 C230.261088,282.007911 230.437778,281.875182 230.63351,281.776454 C231.311921,281.468067 231.990331,282.032571 232.590464,282.523899 C232.198399,283.751593 231.636274,284.918109 230.92053,285.989328 C229.749194,287.825095 227.81171,289.031715 225.649801,289.271815 C224.606093,289.350218 223.494543,289.141143 222.487364,289.412941 C221.480185,289.684739 220.499099,290.745798 220.859179,291.744134 C221.219258,292.742471 222.476927,292.935866 223.499762,292.993361 C224.948427,293.160529 226.415507,293.05595 227.825934,292.684975 C228.671338,292.40795 229.443682,291.942756 230.262993,291.597782 C233.754199,290.149933 238.169086,290.960101 241.049722,288.508689 C241.326502,288.26222 241.621302,288.036835 241.931656,287.83442 C242.714437,289.412941 241.310649,291.629143 239.985139,292.522941 Z" id="Path-Copy-57" fill="#000000" fill-rule="nonzero" opacity="0.05"></path>
            <path d="M234.949245,304.670235 C233.968159,305.584941 232.616556,305.982185 231.296265,306.264437 C228.305696,306.844234 225.27868,307.21623 222.236874,307.377765 L219.272742,307.602521 C216.386887,307.82205 213.495815,308.04158 210.594305,308.052034 C207.015357,308.061501 203.442523,307.755418 199.917166,307.137328 C199.59007,307.124321 199.283407,306.974536 199.071762,306.724403 C198.961548,306.521692 198.916015,306.290015 198.941298,306.060588 C199.002639,302.471497 199.443457,298.899014 200.256371,295.402958 C200.590358,293.965563 203.178755,297.185328 203.298781,297.321227 C203.841216,298.086408 204.715494,298.546575 205.652344,298.56 C208.632132,298.727261 211.972,296.923983 214.336,295.324555 C214.841842,294.947221 215.379661,294.614919 215.943311,294.331445 C216.358346,294.146199 216.797655,294.021236 217.247947,293.960336 C218.780148,293.820426 220.319833,294.131035 221.67849,294.854134 C223.458013,295.732252 225.018358,296.991933 226.808318,297.917092 C228.24477,298.644561 229.791002,299.130188 231.38498,299.354487 C232.99751,299.574017 234.923152,299.678555 235.752901,301.068908 L235.752901,301.068908 C236.4,302.213597 235.925113,303.765983 234.949245,304.670235 Z" id="Path-Copy-58" fill="#434175" fill-rule="nonzero"></path>
            <path d="M235.204954,305.511765 C234.197775,306.452605 232.825298,306.860303 231.49457,307.147782 C228.448216,307.74915 225.363403,308.135151 222.262967,308.302924 L219.251868,308.532908 C216.308609,308.757664 213.365351,308.98242 210.416874,308.992874 C206.770625,309.007476 203.130568,308.690823 199.54143,308.046807 C199.209291,308.036224 198.896862,307.886397 198.680371,307.633882 C198.394691,307.25745 198.167709,306.839769 198.007179,306.395109 C198.069801,302.736286 199.050887,299.009513 199.885854,295.418639 C200.22506,293.939429 202.860424,297.253277 202.98045,297.39963 C203.5333,298.182127 204.424107,298.655398 205.38098,298.674992 C208.412954,298.842252 211.815444,296.986706 214.221192,295.335008 C214.737767,294.942006 215.285833,294.59236 215.859815,294.28963 C216.283449,294.101948 216.731465,293.975247 217.190543,293.913294 C216.799152,296.108588 213.668026,298.763849 212.050278,299.574017 C208.778252,301.204807 204.895656,300.389412 201.247894,300.582807 C200.98079,300.577229 200.716704,300.640207 200.480768,300.765748 C200.047629,301.058454 200.021536,301.685681 200.031974,302.20837 C200.063285,303.081261 200.172874,304.110958 200.929563,304.555244 C201.30611,304.738606 201.721849,304.826553 202.140265,304.811361 C211.135419,305.214412 220.148325,304.901558 229.09404,303.875748 C230.597186,303.777294 232.075974,303.445798 233.477616,302.893092 C234.396624,302.459431 235.253193,301.903881 236.024265,301.241395 C237.156689,302.145647 236.196477,304.576151 235.204954,305.511765 Z" id="Path-Copy-59" fill="#E8EAF2" fill-rule="nonzero"></path>
            <path d="M202.651682,187.603563 C201.571555,192.956594 202.60402,198.52059 205.532318,203.127429 C206.330755,204.371429 207.275311,205.542252 207.875444,206.89079 C208.27075,207.857226 208.576453,208.858037 208.788689,209.880571 L211.39796,220.642739 C212.102464,223.554118 212.806967,226.512538 212.598225,229.497092 C212.452106,231.587849 211.925033,233.913815 213.203576,235.560286 C213.511055,235.868716 213.771317,236.220984 213.975921,236.605664 C214.102221,237.062257 214.102221,237.544651 213.975921,238.001244 C212.666066,245.84158 211.690199,253.995529 214.059417,261.55884 C216.209457,268.416521 216.334702,276.01642 218.161192,282.957731 C218.311298,283.840279 218.703365,284.663669 219.293616,285.335966 C219.783839,285.746833 220.3716,286.024081 221.000079,286.140908 C223.692848,286.789042 226.536954,286.03637 229.047073,284.870773 C230.81094,284.044924 232.700053,282.607529 232.564371,280.689261 C232.491311,279.764101 231.953801,278.948706 231.588503,278.075815 C230.868344,276.40321 230.81094,274.53721 230.617854,272.728706 C230.13253,268.181311 228.73396,263.79595 227.679815,259.353092 C226.625669,254.910235 225.900291,250.258303 226.797881,245.763176 C228.623445,236.492546 231.547381,227.473331 235.507629,218.896958 C235.681448,218.44339 235.954237,218.034445 236.306066,217.7 C236.702961,217.471885 237.081574,217.213247 237.43849,216.92642 C237.712844,216.501524 237.890968,216.021604 237.960344,215.520387 C238.351735,214.098672 239.525907,213.048067 240.298252,211.809294 C242.276079,208.67316 241.649854,204.627546 241.576795,200.911227 C241.508954,197.288992 242.025589,193.666756 241.435894,190.086336 C240.846199,186.505916 238.826623,182.868 235.39804,181.77558 C233.702013,181.221529 231.859868,181.346975 230.085563,181.524689 C220.64,182.491664 211.491894,184.206084 202.651682,187.603563 Z" id="Path-Copy-60" fill="#EC8D53" fill-rule="nonzero"></path>
            <path d="M190.278517,126.072605 C190.064556,127.530908 190.76906,128.963076 190.847338,130.437059 C190.915179,131.728101 190.502914,132.982555 190.273298,134.247462 C189.344397,139.186874 191.118702,144.178555 192.88257,148.882756 C193.226805,149.644687 193.44028,150.45931 193.514013,151.292353 C193.56098,152.823832 192.673828,154.229866 192.423338,155.750891 C191.901483,158.934067 194.281139,161.923849 194.333325,165.127933 C194.333325,166.617597 193.879311,168.128168 194.260265,169.560336 C194.505536,170.522084 195.110887,171.347933 195.533589,172.241731 C196.295497,173.809798 196.504238,175.628756 197.224397,177.228185 C198.534252,180.118655 201.347046,182.01079 204.008503,183.746118 C205.527099,183.223429 207.139629,182.648471 208.011126,181.289479 C208.380264,180.621479 208.617672,179.888596 208.710411,179.130773 C209.289669,175.832605 209.268795,172.466487 209.232265,169.11605 C209.289857,166.236235 209.14337,163.355955 208.793907,160.496908 C208.272053,156.838084 207.06657,153.356975 206.210728,149.776555 C205.16702,145.265748 204.587762,140.608588 202.912609,136.275496 C201.435762,132.475546 199.144821,129.062387 196.728636,125.790353 C195.810172,124.541126 195.079576,122.758756 193.289616,123.046235 C191.752386,123.324264 190.55078,124.531963 190.278517,126.072605 L190.278517,126.072605 Z" id="Path-Copy-61" fill="#7458AB" fill-rule="nonzero"></path>
            <path d="M239.818146,184.707866 C237.43849,184.571966 235.03796,184.671277 232.653086,184.760134 C231.15885,184.776432 229.669081,184.926871 228.201669,185.209647 C226.396053,185.612118 224.710464,186.417059 222.93094,186.924067 C220.076397,187.734235 217.065298,187.770824 214.116821,188.053076 C212.175881,188.239039 210.247108,188.535712 208.339894,188.941647 C208.365145,188.717698 208.425003,188.499042 208.517325,188.293513 C209.007868,187.216773 210.317722,186.798622 211.491894,186.526824 C218.933835,184.777322 226.553607,183.900286 234.197775,183.913378 C237.026225,182.063059 238.617881,182.71642 239.818146,184.707866 Z" id="Path-Copy-62" fill="#000000" fill-rule="nonzero" opacity="0.1"></path>
            <path d="M234.75094,147.157882 L229.010543,158.813849 C229.63155,157.731882 230.941404,157.287597 231.974675,156.623782 C233.283736,155.667192 234.266057,154.329171 234.78747,152.792471 C235.304045,151.264308 235.667652,149.688491 235.872927,148.088269 C235.987735,147.351277 236.227788,146.316353 235.872927,145.647311 C235.236265,145.767529 235.022305,146.614286 234.75094,147.157882 Z" id="Path-Copy-63" fill="#000000" fill-rule="nonzero" opacity="0.1"></path>
            <path d="M218.077695,157.386908 C216.73653,158.719765 215.097907,159.70242 213.626278,160.883697 C210.18204,163.648723 207.729325,167.427765 205.339232,171.138857 C204.660842,172.109538 204.092023,173.152579 203.643205,174.248857 C203.925007,174.489294 204.34249,174.248857 204.624291,173.992739 L209.263576,169.87395 C209.841068,169.410127 210.366057,168.884298 210.829139,168.305882 C211.638013,167.208235 211.998093,165.844017 212.733907,164.694101 C213.532183,163.592386 214.486812,162.613339 215.567576,161.78795 C216.637377,160.86279 221.548026,156.681277 220.35298,155.050487 C219.486702,155.463412 218.77698,156.67605 218.077695,157.386908 Z" id="Path-Copy-64" fill="#000000" fill-rule="nonzero" opacity="0.1"></path>
            <path d="M230.294305,81.8687899 C231.369325,80.2432269 232.700053,78.3929076 232.188636,76.3439664 C231.933013,75.4331225 231.382269,74.6332657 230.623073,74.0702689 C230.79896,74.3691263 230.932445,74.6910575 231.019682,75.0267899 C231.541536,77.0757311 230.200371,78.9260504 229.125351,80.5516134 C228.165139,81.9942353 226.98053,83.5257143 226.90747,85.3185378 C226.855285,86.7193445 227.820715,89.4164202 225.174914,88.6742017 C223.609351,88.2194622 223.155338,86.3743697 221.151417,86.7820672 C219.147497,87.1897647 218.688265,89.6307227 218.020291,91.2249244 C216.888876,93.8043143 214.566266,95.663812 211.805007,96.2009244 C211.239553,96.3263146 210.65356,96.3263146 210.088106,96.2009244 C209.798267,96.1145744 209.524876,95.9803101 209.279232,95.8036807 C209.687471,96.6045561 210.388463,97.2167994 211.236185,97.5128739 C211.801051,97.6435429 212.388221,97.6435429 212.953086,97.5128739 C215.722742,96.9746137 218.050767,95.1060878 219.178808,92.5159664 C219.857219,90.9165378 220.300795,88.4912605 222.309934,88.0783361 C224.319073,87.6654118 224.75743,89.5105042 226.33343,89.9600168 C228.98445,90.717916 228.013801,88.0051597 228.065987,86.6095798 C228.149483,84.8376639 229.339311,83.3114118 230.294305,81.8687899 Z" id="Path-Copy-66" fill="#000000" fill-rule="nonzero" opacity="0.1"></path>
            <path d="M230.962278,78.4974454 C230.713917,78.9024442 230.438443,79.2901221 230.137748,79.6578151 C229.574835,80.3661454 228.943844,81.0174042 228.253854,81.6022185 C227.841589,81.9524202 227.413669,82.2817143 226.975311,82.5901008 C226.157117,83.1642263 225.29713,83.6761518 224.40257,84.1215798 C221.748755,85.3477977 218.988914,86.3292834 216.157272,87.0538655 L210.64649,88.6219328 C209.968079,89.1446218 208.731285,90.0436471 207.369245,90.9897143 C207.157315,90.2168497 207.017553,89.4259308 206.951762,88.6271597 L206.951762,88.6271597 C206.910013,88.0826223 206.910013,87.5356802 206.951762,86.9911429 C207.197033,83.7713782 209.039179,80.8338655 211.408397,78.6281176 C213.777616,76.4223697 216.62694,74.7968067 219.481483,73.2182857 C220.4077,72.642813 221.408625,72.1978321 222.456053,71.8958824 C223.487059,71.6920169 224.543617,71.6514507 225.587179,71.7756639 C226.968155,71.8292452 228.326415,72.1449651 229.589801,72.7060504 C230.105186,72.9597092 230.578631,73.2911221 230.993589,73.6887059 C231.306947,74.1428729 231.54649,74.6438951 231.703311,75.1731429 C232.063391,76.312605 231.578066,77.4938824 230.962278,78.4974454 Z" id="Path-Copy-67" fill="#000000" fill-rule="nonzero" opacity="0.1"></path>
            <path d="M214.790013,69.8678487 C215.018981,70.3396518 214.936156,70.9037579 214.581272,71.289563 C214.350129,71.4952756 214.059411,71.6216379 213.751523,71.6502185 C213.537166,71.6823332 213.321078,71.701533 213.104424,71.7077143 C212.80774,71.7369884 212.509195,71.6749959 212.248583,71.53 C212.193605,71.4980527 212.142775,71.4594301 212.097245,71.4150084 C212.196432,71.2828221 212.282099,71.1409828 212.352954,70.9916303 C212.405139,71.0438992 212.452106,71.0334454 212.650411,70.9916303 C213.015649,70.9700041 213.375909,70.8960765 213.720212,70.7721008 C213.867371,70.7223139 214.002478,70.6421882 214.116821,70.5368908 C214.302742,70.3387427 214.434022,70.0955755 214.497775,69.8312605 L214.790013,69.8678487 Z" id="Path-Copy-68" fill="#000000" fill-rule="nonzero" opacity="0.1"></path>
            <path d="M206.930887,88.2351429 C207.206919,88.3980557 207.511645,88.5063001 207.828477,88.5539832 C208.639762,88.7855565 209.511412,88.654028 210.21857,88.1933277" id="Path-Copy-69" fill="#000000" fill-rule="nonzero" opacity="0.1"></path>
            <path d="M228.050331,105.253899 C226.562948,104.408364 224.928141,103.854869 223.233616,103.623109 C222.230011,103.391687 221.196893,103.315886 220.170331,103.398353 C219.225775,103.518571 218.31253,103.921042 217.357536,103.921042 C216.016371,103.999445 214.748265,103.440168 213.443629,103.079513 C212.138993,102.718857 210.651709,102.556824 209.566252,103.377445 C209.336361,103.611524 209.042031,103.771663 208.720848,103.837412 C208.389327,103.793359 208.082304,103.638681 207.849351,103.398353 C205.969784,102.01375 203.374973,102.153879 201.65494,103.732874 C199.18657,106.111109 199.468371,110.752588 196.556424,112.555866 C195.763205,113.078555 194.740371,113.313765 194.270702,114.123933 C194.161235,114.390247 194.03034,114.64721 193.879311,114.892286 C193.68616,115.112311 193.449916,115.290222 193.185245,115.414975 C192.342767,115.797642 191.543313,116.26897 190.800371,116.821008 C190.047086,117.388734 189.554171,118.236698 189.433113,119.173109 C189.421268,119.858213 189.563976,120.537159 189.850596,121.159328 C192.65033,128.409915 199.744366,133.074005 207.499709,132.763025 C208.168873,132.802073 208.828788,132.591679 209.352291,132.172387 C209.629932,131.84882 209.848931,131.47911 209.999391,131.079966 C211.36143,128.152908 213.913298,125.994202 215.536265,123.23963 C216.501695,121.582706 217.101828,119.72716 218.145536,118.091143 C219.67457,115.618824 221.986384,113.784185 224.261669,112.012269 C225.54543,111.013933 226.970093,109.963328 228.582623,110.031277 C230.012503,110.094 231.06143,110.172403 230.529139,108.369126 C230.102791,107.066472 229.223,105.960799 228.050331,105.253899 L228.050331,105.253899 Z" id="Path-Copy-31" fill="#9C8CBB" fill-rule="nonzero"></path>
            <path d="M278.497987,104.015126 C278.002225,102.797261 275.914808,99.4311429 276.520159,98.2655462 C277.138388,99.1271796 277.663204,100.052334 278.085722,101.025345 C278.497987,101.976639 278.190093,103.241546 278.497987,104.015126 Z" id="Path-Copy-30" fill="#000000" fill-rule="nonzero" opacity="0.1"></path>
        </g>
    </g>
</svg>