<?xml version="1.0" encoding="utf-8"?>
<!-- Generator: Adobe Illustrator 23.0.4, SVG Export Plug-In . SVG Version: 6.00 Build 0)  -->
<svg version="1.1" id="Layer_1" xmlns="http://www.w3.org/2000/svg" xmlns:xlink="http://www.w3.org/1999/xlink" x="0px" y="0px"
	 viewBox="0 0 372 371.89" style="enable-background:new 0 0 372 371.89;" xml:space="preserve">
<style type="text/css">
	.st0{fill:#FFFFFF;}
	.st1{fill:#EC8D53;}
</style>
<g>
	<path class="st0" d="M45.99,316.48h26.96v6.49H53.43v11.45h18.41v6.25H53.43v17.58h-7.43V316.48z"/>
	<path class="st0" d="M101.57,358.25h-6.73v-4.54h-0.12c-0.63,1.42-1.72,2.67-3.27,3.75c-1.55,1.08-3.39,1.62-5.52,1.62
		c-1.85,0-3.43-0.32-4.75-0.97c-1.32-0.65-2.4-1.5-3.25-2.57c-0.85-1.06-1.47-2.28-1.86-3.66c-0.39-1.38-0.59-2.79-0.59-4.25v-17.7
		h7.08v15.69c0,0.83,0.06,1.69,0.18,2.6c0.12,0.91,0.37,1.72,0.77,2.45c0.39,0.73,0.93,1.33,1.62,1.8c0.69,0.47,1.6,0.71,2.74,0.71
		c1.1,0,2.07-0.23,2.92-0.68c0.85-0.45,1.53-1.03,2.07-1.74c0.53-0.71,0.93-1.52,1.21-2.45c0.27-0.92,0.41-1.86,0.41-2.8v-15.58
		h7.08V358.25z"/>
	<path class="st0" d="M124.11,337.49c-0.63-0.83-1.5-1.54-2.6-2.15c-1.1-0.61-2.3-0.91-3.6-0.91c-1.14,0-2.18,0.24-3.13,0.71
		c-0.94,0.47-1.42,1.26-1.42,2.36s0.52,1.88,1.56,2.33c1.04,0.45,2.57,0.91,4.57,1.39c1.06,0.24,2.13,0.55,3.22,0.94
		c1.08,0.39,2.06,0.92,2.95,1.56c0.88,0.65,1.6,1.46,2.15,2.42c0.55,0.96,0.83,2.13,0.83,3.51c0,1.73-0.32,3.2-0.97,4.4
		c-0.65,1.2-1.51,2.17-2.6,2.92c-1.08,0.75-2.34,1.29-3.78,1.62c-1.44,0.33-2.92,0.5-4.45,0.5c-2.2,0-4.35-0.4-6.43-1.21
		c-2.09-0.81-3.82-1.96-5.19-3.45l4.66-4.37c0.79,1.02,1.81,1.87,3.07,2.54c1.26,0.67,2.66,1,4.19,1c0.51,0,1.03-0.06,1.56-0.18
		c0.53-0.12,1.02-0.3,1.47-0.56c0.45-0.26,0.82-0.6,1.09-1.03c0.27-0.43,0.41-0.96,0.41-1.59c0-1.18-0.54-2.03-1.62-2.54
		c-1.08-0.51-2.71-1.02-4.87-1.53c-1.06-0.24-2.09-0.54-3.1-0.92c-1-0.37-1.9-0.86-2.68-1.47c-0.79-0.61-1.42-1.37-1.89-2.27
		c-0.47-0.9-0.71-2.03-0.71-3.36c0-1.57,0.32-2.93,0.97-4.07c0.65-1.14,1.5-2.07,2.57-2.8s2.26-1.27,3.6-1.62
		c1.34-0.35,2.71-0.53,4.13-0.53c2.04,0,4.04,0.35,5.99,1.06c1.95,0.71,3.49,1.79,4.63,3.25L124.11,337.49z"/>
	<path class="st0" d="M132.43,320.32c0-1.14,0.42-2.13,1.27-2.98c0.85-0.85,1.92-1.27,3.22-1.27c1.3,0,2.39,0.4,3.27,1.21
		c0.88,0.81,1.33,1.82,1.33,3.04s-0.44,2.23-1.33,3.04c-0.89,0.81-1.98,1.21-3.27,1.21c-1.3,0-2.37-0.42-3.22-1.27
		C132.85,322.45,132.43,321.46,132.43,320.32z M133.43,329.93h7.08v28.32h-7.08V329.93z"/>
	<path class="st0" d="M144.52,343.98c0-2.24,0.4-4.28,1.21-6.11c0.81-1.83,1.9-3.39,3.27-4.69c1.38-1.3,3.01-2.3,4.9-3.01
		s3.89-1.06,6.02-1.06s4.13,0.35,6.02,1.06c1.89,0.71,3.52,1.71,4.9,3.01c1.38,1.3,2.47,2.86,3.27,4.69
		c0.81,1.83,1.21,3.87,1.21,6.11c0,2.24-0.4,4.29-1.21,6.14c-0.81,1.85-1.9,3.43-3.27,4.75c-1.38,1.32-3.01,2.35-4.9,3.1
		c-1.89,0.75-3.89,1.12-6.02,1.12s-4.13-0.37-6.02-1.12s-3.52-1.78-4.9-3.1c-1.38-1.32-2.47-2.9-3.27-4.75
		C144.92,348.26,144.52,346.22,144.52,343.98z M151.72,343.98c0,1.1,0.17,2.2,0.5,3.3c0.33,1.1,0.84,2.08,1.5,2.95
		c0.67,0.87,1.51,1.57,2.54,2.12c1.02,0.55,2.24,0.83,3.66,0.83s2.63-0.27,3.66-0.83c1.02-0.55,1.87-1.26,2.54-2.12
		c0.67-0.86,1.17-1.85,1.5-2.95c0.33-1.1,0.5-2.2,0.5-3.3c0-1.1-0.17-2.19-0.5-3.27c-0.33-1.08-0.84-2.05-1.5-2.92
		c-0.67-0.87-1.51-1.56-2.54-2.09c-1.02-0.53-2.24-0.8-3.66-0.8s-2.64,0.27-3.66,0.8c-1.02,0.53-1.87,1.23-2.54,2.09
		c-0.67,0.87-1.17,1.84-1.5,2.92C151.89,341.78,151.72,342.88,151.72,343.98z"/>
	<path class="st0" d="M179.21,329.93h6.73v4.54h0.12c0.63-1.42,1.72-2.66,3.27-3.75c1.55-1.08,3.39-1.62,5.52-1.62
		c1.85,0,3.43,0.33,4.75,0.97c1.32,0.65,2.4,1.5,3.25,2.57c0.85,1.06,1.46,2.28,1.86,3.66c0.39,1.38,0.59,2.79,0.59,4.25v17.7h-7.08
		v-15.69c0-0.83-0.06-1.69-0.18-2.6c-0.12-0.9-0.37-1.72-0.77-2.45c-0.39-0.73-0.93-1.33-1.62-1.8c-0.69-0.47-1.6-0.71-2.74-0.71
		c-1.14,0-2.12,0.23-2.95,0.68c-0.83,0.45-1.5,1.03-2.04,1.74c-0.53,0.71-0.94,1.53-1.21,2.45c-0.28,0.92-0.41,1.86-0.41,2.8v15.58
		h-7.08V329.93z"/>
</g>
<path class="st0" d="M238.09,27.65c-4.17-1.59-8.84,0.49-10.44,4.66c-1.59,4.17,0.49,8.84,4.66,10.44
	c36.84,14.1,63.52,43.25,75.3,78.02l-50.19,13.42c-3.19-8.28-7.82-16.03-13.82-22.92c-13.48-15.48-32.19-24.78-52.67-26.2
	c-20.42-1.4-39.47,5.38-54.08,17.44l-35.79-35.14c16.81-15.13,37.49-25.81,59.92-30.48c-2.08-5.05-2.65-10.69-1.46-16.15
	C107.02,30.98,62.66,70.33,47.9,123.45c-4.96,17.85-6.43,36.16-4.39,54.43c0.46,4.13,3.96,7.18,8.02,7.18c0.3,0,0.6-0.02,0.91-0.05
	c4.43-0.5,7.63-4.49,7.13-8.93c-1.81-16.21-0.5-32.46,3.9-48.31c5.12-18.43,14.27-34.99,26.28-48.88l35.76,35.13
	c-9.4,11.79-15.44,26.41-16.55,42.42c-2.32,33.59,17.42,63.68,46.82,76.11l-14.73,48.72c-21.51-8.18-40.19-21.89-54.34-39.66
	c-3.63,4.2-8.42,7.22-13.77,8.6c18.76,24.21,44.85,41.98,75.07,50.37c12.87,3.57,25.91,5.33,38.85,5.33
	c30.92,0,61.18-10.05,86.66-29.37c3.56-2.7,4.25-7.76,1.56-11.33c-2.69-3.55-7.76-4.25-11.32-1.55
	c-30.94,23.45-69.8,31.48-107.26,22.37l14.76-48.82c2.97,0.56,6,0.98,9.09,1.19c1.8,0.12,3.59,0.18,5.37,0.18
	c40.18,0,73.83-31.44,76.6-71.57c0.4-5.83,0.13-11.6-0.74-17.23l50.23-13.43c3.88,19.2,3.38,39.6-2.23,59.78
	c-1.1,3.96-2.4,7.83-3.85,11.63c2.78,0.54,5.49,1.47,7.99,2.85c2.4,1.33,4.51,2.98,6.33,4.85c1.96-4.89,3.68-9.89,5.1-15.02
	C345.12,128.59,307.69,54.29,238.09,27.65z M247.8,166.03c-2.35,33.98-32.04,60.33-66.45,57.88c-1.98-0.14-3.93-0.39-5.85-0.71
	c-5.45-0.89-10.61-2.53-15.45-4.73c-23.05-10.43-38.41-34.34-36.57-61.03c0.86-12.44,5.4-23.83,12.47-33.17
	c3.27-4.32,7.07-8.2,11.32-11.54c10.61-8.33,23.94-13.3,38.31-13.3c1.44,0,2.89,0.05,4.35,0.15c16.61,1.14,31.77,8.69,42.7,21.24
	c4.51,5.19,8.03,11,10.58,17.17c2.06,4.99,3.52,10.21,4.22,15.6C247.96,157.66,248.09,161.83,247.8,166.03z"/>
<path class="st1" d="M233,120.49c-11.02-12.65-26.3-20.25-43.04-21.4c-1.47-0.1-2.93-0.15-4.38-0.15
	c-32.84,0-60.33,25.69-62.59,58.47c-2.38,34.55,23.78,64.6,58.33,66.99c34.68,2.47,64.61-24.08,66.97-58.33
	C249.45,149.33,244.02,133.15,233,120.49z M185.96,200.25c-9.42,0-17.06,0.86-17.06-4.38l7.44-42.57c-4.23-2.98-7-7.89-7-13.46
	c0-9.11,7.38-16.49,16.49-16.49c9.1,0,16.47,7.38,16.47,16.49c0,5.57-2.76,10.49-7,13.47l7.68,42.15c0,0.14,0.04,0.27,0.04,0.41
	C203.03,201.11,195.39,200.25,185.96,200.25z"/>
<g>
	<path class="st1" d="M186.17,5.69c-7.57,0-14.55,4.11-18.21,10.71c-5.56,10.02-1.93,22.71,8.1,28.28
		c3.09,1.71,6.57,2.61,10.07,2.61c7.56,0,14.54-4.11,18.21-10.72c5.56-10.03,1.93-22.71-8.1-28.28
		C193.15,6.59,189.67,5.69,186.17,5.69z"/>
</g>
<g>
	<path class="st1" d="M66.14,203.05c-7.57,0-14.55,4.1-18.21,10.71c-5.56,10.03-1.93,22.71,8.1,28.28c3.08,1.7,6.56,2.61,10.07,2.61
		c7.56,0,14.54-4.1,18.21-10.71c5.56-10.03,1.93-22.71-8.1-28.28C73.12,203.96,69.64,203.05,66.14,203.05z"/>
</g>
<g>
	<path class="st1" d="M300.52,213.69c-7.57,0-14.55,4.1-18.21,10.71c-5.56,10.03-1.93,22.71,8.1,28.28
		c3.08,1.7,6.56,2.61,10.07,2.61c7.56,0,14.54-4.1,18.21-10.71c5.56-10.03,1.93-22.71-8.1-28.28
		C307.5,214.59,304.02,213.69,300.52,213.69z"/>
</g>
<g>
	<path class="st1" d="M226.48,316.48h6.43l18,41.77h-8.5l-3.89-9.56H220.4l-3.78,9.56h-8.32L226.48,316.48z M235.92,342.32
		l-6.43-16.99l-6.55,16.99H235.92z"/>
	<path class="st1" d="M277.57,358.25h-6.73v-4.54h-0.12c-0.63,1.42-1.72,2.67-3.27,3.75c-1.55,1.08-3.39,1.62-5.52,1.62
		c-1.85,0-3.43-0.32-4.75-0.97c-1.32-0.65-2.4-1.5-3.25-2.57c-0.85-1.06-1.47-2.28-1.86-3.66c-0.39-1.38-0.59-2.79-0.59-4.25v-17.7
		h7.08v15.69c0,0.83,0.06,1.69,0.18,2.6c0.12,0.91,0.37,1.72,0.77,2.45c0.39,0.73,0.93,1.33,1.62,1.8c0.69,0.47,1.6,0.71,2.74,0.71
		c1.1,0,2.07-0.23,2.92-0.68c0.85-0.45,1.53-1.03,2.07-1.74c0.53-0.71,0.93-1.52,1.21-2.45c0.27-0.92,0.41-1.86,0.41-2.8v-15.58
		h7.08V358.25z"/>
	<path class="st1" d="M281.11,335.6v-5.66h4.96v-8.2h6.96v8.2h7.08v5.66h-7.08v13.16c0,1.26,0.23,2.3,0.68,3.13
		c0.45,0.83,1.46,1.24,3.04,1.24c0.47,0,0.98-0.05,1.53-0.15c0.55-0.1,1.04-0.25,1.47-0.44l0.24,5.55
		c-0.63,0.24-1.38,0.42-2.24,0.56c-0.87,0.14-1.69,0.21-2.48,0.21c-1.89,0-3.42-0.27-4.6-0.8c-1.18-0.53-2.11-1.26-2.8-2.18
		c-0.69-0.92-1.16-1.99-1.42-3.19c-0.26-1.2-0.38-2.49-0.38-3.87V335.6H281.11z"/>
	<path class="st1" d="M320.4,329.11c1.85,0,3.43,0.33,4.75,0.97c1.32,0.65,2.4,1.5,3.24,2.57c0.85,1.06,1.46,2.28,1.86,3.66
		c0.39,1.38,0.59,2.79,0.59,4.25v17.7h-7.08v-15.58c0-0.83-0.06-1.68-0.18-2.57c-0.12-0.88-0.36-1.69-0.74-2.42
		c-0.38-0.73-0.91-1.33-1.59-1.8c-0.69-0.47-1.6-0.71-2.74-0.71s-2.12,0.22-2.95,0.65c-0.83,0.43-1.51,1.01-2.06,1.74
		c-0.55,0.73-0.96,1.54-1.24,2.45c-0.28,0.91-0.41,1.83-0.41,2.77v15.46h-7.08v-44.6h7.08v20.24h0.12c0.28-0.59,0.68-1.17,1.21-1.74
		c0.53-0.57,1.15-1.08,1.86-1.53c0.71-0.45,1.51-0.82,2.42-1.09C318.36,329.25,319.34,329.11,320.4,329.11z"/>
</g>
</svg>
