<?xml version="1.0" encoding="utf-8"?>
<!-- Generator: Adobe Illustrator 22.0.1, SVG Export Plug-In . SVG Version: 6.00 Build 0)  -->
<svg version="1.1" id="Layer_1" xmlns="http://www.w3.org/2000/svg" xmlns:xlink="http://www.w3.org/1999/xlink" x="0px" y="0px"
	 viewBox="0 0 644.9 160.2" style="enable-background:new 0 0 644.9 160.2;" xml:space="preserve">
<style type="text/css">
	.st0{fill:#EC8D53;}
	.st1{fill:#FFFFFF;}
</style>
<g>
	<path class="st0" d="M77.7,2.2c-3.9,0-7.5,2.1-9.4,5.5c-2.9,5.1-1,11.7,4.2,14.5c1.6,0.9,3.4,1.3,5.2,1.3c3.9,0,7.5-2.1,9.4-5.5
		c2.9-5.2,1-11.7-4.2-14.5C81.2,2.7,79.4,2.2,77.7,2.2z"/>
</g>
<g>
	<path class="st0" d="M16,103.6c-3.9,0-7.5,2.1-9.4,5.5c-2.9,5.1-1,11.7,4.2,14.5c1.6,0.9,3.4,1.3,5.2,1.3c3.9,0,7.5-2.1,9.4-5.5
		c2.9-5.2,1-11.7-4.2-14.5C19.6,104.1,17.8,103.6,16,103.6z"/>
</g>
<g>
	<path class="st0" d="M136.4,109.1c-3.9,0-7.5,2.1-9.4,5.5c-2.9,5.1-1,11.7,4.2,14.5c1.6,0.9,3.4,1.3,5.2,1.3c3.9,0,7.5-2.1,9.4-5.5
		c2.9-5.2,1-11.7-4.2-14.5C140,109.5,138.2,109.1,136.4,109.1z"/>
</g>
<g>
	<path class="st1" d="M170.9,49.6h44.4v10.7h-32.2v18.8h30.3v10.3h-30.3v29h-12.2V49.6z"/>
	<path class="st1" d="M262.4,118.4h-11.1v-7.5h-0.2c-1,2.3-2.8,4.4-5.4,6.2c-2.6,1.8-5.6,2.7-9.1,2.7c-3,0-5.7-0.5-7.8-1.6
		c-2.2-1.1-4-2.5-5.3-4.2c-1.4-1.7-2.4-3.8-3.1-6c-0.6-2.3-1-4.6-1-7V71.8h11.7v25.8c0,1.4,0.1,2.8,0.3,4.3c0.2,1.5,0.6,2.8,1.3,4
		c0.6,1.2,1.5,2.2,2.7,3c1.1,0.8,2.6,1.2,4.5,1.2c1.8,0,3.4-0.4,4.8-1.1c1.4-0.7,2.5-1.7,3.4-2.9c0.9-1.2,1.5-2.5,2-4
		c0.5-1.5,0.7-3.1,0.7-4.6V71.8h11.7V118.4z"/>
	<path class="st1" d="M299.5,84.2c-1-1.4-2.5-2.5-4.3-3.5c-1.8-1-3.8-1.5-5.9-1.5c-1.9,0-3.6,0.4-5.1,1.2c-1.6,0.8-2.3,2.1-2.3,3.9
		c0,1.8,0.9,3.1,2.6,3.8c1.7,0.7,4.2,1.5,7.5,2.3c1.7,0.4,3.5,0.9,5.3,1.6c1.8,0.6,3.4,1.5,4.9,2.6c1.5,1.1,2.6,2.4,3.5,4
		c0.9,1.6,1.4,3.5,1.4,5.8c0,2.9-0.5,5.3-1.6,7.2c-1.1,2-2.5,3.6-4.3,4.8c-1.8,1.2-3.9,2.1-6.2,2.7c-2.4,0.5-4.8,0.8-7.3,0.8
		c-3.6,0-7.2-0.7-10.6-2c-3.4-1.3-6.3-3.2-8.5-5.7l7.7-7.2c1.3,1.7,3,3.1,5.1,4.2c2.1,1.1,4.4,1.7,6.9,1.7c0.8,0,1.7-0.1,2.6-0.3
		c0.9-0.2,1.7-0.5,2.4-0.9c0.7-0.4,1.3-1,1.8-1.7c0.5-0.7,0.7-1.6,0.7-2.6c0-1.9-0.9-3.3-2.7-4.2c-1.8-0.8-4.5-1.7-8-2.5
		c-1.7-0.4-3.4-0.9-5.1-1.5c-1.7-0.6-3.1-1.4-4.4-2.4c-1.3-1-2.3-2.3-3.1-3.7c-0.8-1.5-1.2-3.3-1.2-5.5c0-2.6,0.5-4.8,1.6-6.7
		c1.1-1.9,2.5-3.4,4.2-4.6c1.7-1.2,3.7-2.1,5.9-2.7c2.2-0.6,4.5-0.9,6.8-0.9c3.4,0,6.7,0.6,9.9,1.7c3.2,1.2,5.7,2.9,7.6,5.3
		L299.5,84.2z"/>
	<path class="st1" d="M313.2,55.9c0-1.9,0.7-3.5,2.1-4.9c1.4-1.4,3.2-2.1,5.3-2.1c2.1,0,3.9,0.7,5.4,2c1.5,1.3,2.2,3,2.2,5
		c0,2-0.7,3.7-2.2,5c-1.5,1.3-3.3,2-5.4,2c-2.1,0-3.9-0.7-5.3-2.1C313.9,59.5,313.2,57.8,313.2,55.9z M314.8,71.8h11.7v46.6h-11.7
		V71.8z"/>
	<path class="st1" d="M333.1,94.9c0-3.7,0.7-7,2-10.1c1.3-3,3.1-5.6,5.4-7.7c2.3-2.1,5-3.8,8.1-5c3.1-1.2,6.4-1.7,9.9-1.7
		c3.5,0,6.8,0.6,9.9,1.7c3.1,1.2,5.8,2.8,8.1,5c2.3,2.1,4.1,4.7,5.4,7.7c1.3,3,2,6.4,2,10.1s-0.7,7.1-2,10.1c-1.3,3-3.1,5.7-5.4,7.8
		c-2.3,2.2-5,3.9-8.1,5.1c-3.1,1.2-6.4,1.8-9.9,1.8c-3.5,0-6.8-0.6-9.9-1.8c-3.1-1.2-5.8-2.9-8.1-5.1c-2.3-2.2-4.1-4.8-5.4-7.8
		C333.8,102,333.1,98.6,333.1,94.9z M345,94.9c0,1.8,0.3,3.6,0.8,5.4c0.6,1.8,1.4,3.4,2.5,4.9c1.1,1.4,2.5,2.6,4.2,3.5
		c1.7,0.9,3.7,1.4,6,1.4c2.3,0,4.3-0.5,6-1.4c1.7-0.9,3.1-2.1,4.2-3.5s1.9-3,2.5-4.9c0.6-1.8,0.8-3.6,0.8-5.4c0-1.8-0.3-3.6-0.8-5.4
		c-0.6-1.8-1.4-3.4-2.5-4.8c-1.1-1.4-2.5-2.6-4.2-3.4c-1.7-0.9-3.7-1.3-6-1.3c-2.3,0-4.3,0.4-6,1.3c-1.7,0.9-3.1,2-4.2,3.4
		c-1.1,1.4-1.9,3-2.5,4.8C345.2,91.3,345,93.1,345,94.9z"/>
	<path class="st1" d="M390.2,71.8h11.1v7.5h0.2c1-2.3,2.8-4.4,5.4-6.2c2.6-1.8,5.6-2.7,9.1-2.7c3,0,5.7,0.5,7.8,1.6
		c2.2,1.1,3.9,2.5,5.3,4.2c1.4,1.7,2.4,3.8,3.1,6c0.6,2.3,1,4.6,1,7v29.1h-11.7V92.6c0-1.4-0.1-2.8-0.3-4.3c-0.2-1.5-0.6-2.8-1.3-4
		c-0.6-1.2-1.5-2.2-2.7-3c-1.1-0.8-2.6-1.2-4.5-1.2c-1.9,0-3.5,0.4-4.9,1.1c-1.4,0.7-2.5,1.7-3.4,2.9c-0.9,1.2-1.5,2.5-2,4
		c-0.5,1.5-0.7,3.1-0.7,4.6v25.6h-11.7V71.8z"/>
</g>
<g>
	<path class="st0" d="M468.1,49.6h10.6l29.6,68.8h-14l-6.4-15.7H458l-6.2,15.7h-13.7L468.1,49.6z M483.6,92.2l-10.6-28l-10.8,28
		H483.6z"/>
	<path class="st0" d="M552.2,118.4h-11.1v-7.5h-0.2c-1,2.3-2.8,4.4-5.4,6.2c-2.6,1.8-5.6,2.7-9.1,2.7c-3,0-5.7-0.5-7.8-1.6
		c-2.2-1.1-4-2.5-5.3-4.2c-1.4-1.7-2.4-3.8-3.1-6c-0.6-2.3-1-4.6-1-7V71.8h11.7v25.8c0,1.4,0.1,2.8,0.3,4.3c0.2,1.5,0.6,2.8,1.3,4
		c0.6,1.2,1.5,2.2,2.7,3c1.1,0.8,2.6,1.2,4.5,1.2c1.8,0,3.4-0.4,4.8-1.1c1.4-0.7,2.5-1.7,3.4-2.9c0.9-1.2,1.5-2.5,2-4
		c0.5-1.5,0.7-3.1,0.7-4.6V71.8h11.7V118.4z"/>
	<path class="st0" d="M558,81.1v-9.3h8.2V58.3h11.5v13.5h11.7v9.3h-11.7v21.7c0,2.1,0.4,3.8,1.1,5.1c0.7,1.4,2.4,2,5,2
		c0.8,0,1.6-0.1,2.5-0.2c0.9-0.2,1.7-0.4,2.4-0.7l0.4,9.1c-1,0.4-2.3,0.7-3.7,0.9c-1.4,0.2-2.8,0.3-4.1,0.3c-3.1,0-5.6-0.4-7.6-1.3
		c-1.9-0.9-3.5-2.1-4.6-3.6c-1.1-1.5-1.9-3.3-2.3-5.2c-0.4-2-0.6-4.1-0.6-6.4V81.1H558z"/>
	<path class="st0" d="M622.7,70.4c3,0,5.7,0.5,7.8,1.6c2.2,1.1,3.9,2.5,5.3,4.2c1.4,1.7,2.4,3.8,3.1,6c0.6,2.3,1,4.6,1,7v29.1h-11.7
		V92.8c0-1.4-0.1-2.8-0.3-4.2c-0.2-1.5-0.6-2.8-1.2-4c-0.6-1.2-1.5-2.2-2.6-3c-1.1-0.8-2.6-1.2-4.5-1.2c-1.9,0-3.5,0.4-4.9,1.1
		c-1.4,0.7-2.5,1.7-3.4,2.9c-0.9,1.2-1.6,2.5-2,4c-0.5,1.5-0.7,3-0.7,4.6v25.5H597V45h11.7v33.3h0.2c0.5-1,1.1-1.9,2-2.9
		c0.9-0.9,1.9-1.8,3.1-2.5c1.2-0.7,2.5-1.3,4-1.8C619.3,70.6,621,70.4,622.7,70.4z"/>
</g>
<path class="st1" d="M104.3,13.5c-2.1-0.8-4.5,0.3-5.4,2.4c-0.8,2.1,0.3,4.5,2.4,5.4c18.9,7.2,32.6,22.2,38.7,40.1l-25.8,6.9
	c-1.6-4.3-4-8.2-7.1-11.8c-6.9-8-16.5-12.7-27.1-13.5c-10.5-0.7-20.3,2.8-27.8,9L33.9,33.9c8.6-7.8,19.3-13.3,30.8-15.7
	c-1.1-2.6-1.4-5.5-0.8-8.3C37,15.2,14.2,35.4,6.6,62.7c-2.5,9.2-3.3,18.6-2.3,28c0.2,2.1,2,3.7,4.1,3.7c0.2,0,0.3,0,0.5,0
	c2.3-0.3,3.9-2.3,3.7-4.6c-0.9-8.3-0.3-16.7,2-24.8c2.6-9.5,7.3-18,13.5-25.1l18.4,18c-4.8,6.1-7.9,13.6-8.5,21.8
	c-1.2,17.3,8.9,32.7,24.1,39.1l-7.6,25c-11.1-4.2-20.6-11.2-27.9-20.4c-1.9,2.2-4.3,3.7-7.1,4.4c9.6,12.4,23,21.6,38.6,25.9
	c6.6,1.8,13.3,2.7,20,2.7c15.9,0,31.4-5.2,44.5-15.1c1.8-1.4,2.2-4,0.8-5.8c-1.4-1.8-4-2.2-5.8-0.8c-15.9,12-35.9,16.2-55.1,11.5
	l7.6-25.1c1.5,0.3,3.1,0.5,4.7,0.6c0.9,0.1,1.8,0.1,2.8,0.1c20.6,0,37.9-16.1,39.3-36.8c0.2-3,0.1-6-0.4-8.8l25.8-6.9
	c2,9.9,1.7,20.3-1.1,30.7c-0.6,2-1.2,4-2,6c1.4,0.3,2.8,0.8,4.1,1.5c1.2,0.7,2.3,1.5,3.3,2.5c1-2.5,1.9-5.1,2.6-7.7
	C159.3,65.3,140.1,27.2,104.3,13.5z M45.7,80.2c1.1-16.6,15.1-29.6,31.7-29.6c0.7,0,1.5,0,2.2,0.1c8.5,0.6,16.2,4.4,21.8,10.8
	c5.6,6.4,8.3,14.6,7.7,23.1c-0.6,8.5-4.5,16.2-10.9,21.8c-6.4,5.6-14.6,8.3-23,7.7C57.7,112.9,44.5,97.7,45.7,80.2z"/>
<path class="st0" d="M101.5,61.4C95.9,54.9,88.1,51,79.6,50.4c-0.7-0.1-1.5-0.1-2.2-0.1c-16.7,0-30.7,13.1-31.9,29.8
	c-1.2,17.6,12.1,32.9,29.7,34.1c17.7,1.3,32.9-12.3,34.1-29.7C109.9,76,107.1,67.8,101.5,61.4z M77.5,102c-4.8,0-8.7,0.4-8.7-2.2
	l3.8-21.7c-2.2-1.5-3.6-4-3.6-6.9c0-4.6,3.8-8.4,8.4-8.4c4.6,0,8.4,3.8,8.4,8.4c0,2.8-1.4,5.3-3.6,6.9l3.9,21.5c0,0.1,0,0.1,0,0.2
	C86.2,102.4,82.3,102,77.5,102z"/>
</svg>
