<?xml version="1.0" encoding="UTF-8"?>
<svg width="400px" height="400px" viewBox="0 0 400 400" version="1.1" xmlns="http://www.w3.org/2000/svg" xmlns:xlink="http://www.w3.org/1999/xlink">
    <!-- Generator: Sketch 53.2 (72643) - https://sketchapp.com -->
    <title>2.1-home-section-identity-solution</title>
    <desc>Created with Sketch.</desc>
    <g id="2.1-home-section-identity-solution" stroke="none" stroke-width="1" fill="none" fill-rule="evenodd">
        <g id="IDEA-PROTECTION" transform="translate(3.000000, 6.000000)" fill-rule="nonzero">
            <path d="M205.717432,180.535702 L205.714365,109.910251 C203.198583,54.5216809 158.116169,11.1344828 103.082576,11.1344828 C46.435693,11.1344828 0.350340136,57.5902355 0.350340136,114.692404 L0.350340136,388.651724 L5.53065799,388.650951 L5.53065799,114.692404 C5.53065799,60.4694209 49.2919222,16.3564362 103.082576,16.3564362 C155.341985,16.3564362 198.148616,57.5554534 200.537114,110.029283 L200.537114,182.081574 L244.67333,250.608505 L197.498393,250.608505 L197.498393,309.769001 C197.498393,330.261072 180.959868,346.932521 160.630417,346.932521 L95.5513325,346.932521 L95.5513325,388.651724 L100.73165,388.651724 L100.73165,352.155248 L160.630417,352.155248 C183.816864,352.155248 202.678711,333.14103 202.678711,309.769774 L202.678711,255.831231 L254.214286,255.831231 L205.717432,180.535702 Z" id="Path" fill="#4A555F"></path>
            <path d="M191.691106,183.380303 L191.691106,109.257291 C189.36856,60.2667853 149.78301,21.9206897 101.469023,21.9206897 C51.6743465,21.9206897 11.1530612,63.1043638 11.1530612,113.713019 L11.1530612,388.651724 L87.1941063,388.651724 L87.1941063,339.890055 L158.75721,339.890055 C175.243239,339.890055 188.674773,326.256802 188.674773,309.502056 L188.674773,243.223111 L229.908163,243.223111 L191.691106,183.380303 Z M129.306751,139.912137 C124.829573,143.491303 122.168911,148.936847 122.168911,154.725259 L122.000235,160.398864 L122.000235,176.906155 C122.000235,180.676148 117.129224,183.722394 117.129224,183.722394 C117.129224,185.492584 116.417119,187.073499 115.292863,188.234749 C114.15029,189.377383 112.595566,190.100352 110.853084,190.100352 L97.0277173,190.100352 C93.5427539,190.100352 90.7324966,187.244157 90.7324966,183.722394 C90.7324966,183.722394 85.2432596,180.676148 85.2432596,176.906155 L85.2432596,154.724483 C85.2432596,148.974857 82.6581587,143.528537 78.1992984,140.006775 C68.4763576,132.295357 62.219299,120.300421 62.1819002,106.80059 C62.1261835,83.9711931 80.260052,65.0459874 102.703185,64.512293 C126.101898,63.9413642 145.228744,83.0573967 145.228744,106.705177 C145.231034,120.18639 139.010611,132.200719 129.306751,139.912137 Z" id="Shape" fill="#C5C8CA"></path>
            <path d="M135.458753,72.5940161 C126.804011,63.9780856 115.325275,59.4033039 103.249661,59.6846596 C79.2187347,60.2638752 59.7106686,80.6763138 59.7654211,105.187273 C59.7978099,119.2417 66.0642661,132.264227 76.9600034,140.915524 C80.784192,143.951494 83.0676005,148.743973 83.0676005,153.733715 L83.0676005,162.141379 L125.336491,162.141379 L125.585576,153.732143 C125.585576,148.688959 127.851247,143.985288 131.804991,140.826716 C142.661399,132.149485 148.887755,119.122242 148.887755,105.083533 C148.886213,92.7518199 144.11658,81.2130903 135.458753,72.5940161 Z M128.587706,136.650391 C123.366945,140.822001 120.374068,147.048765 120.37561,153.653552 L120.280758,156.833344 L88.2767947,156.833344 L88.2767947,153.735287 C88.2767947,147.120283 85.2422752,140.763057 80.1610937,136.728982 C70.5377725,129.08758 65.0023771,117.58736 64.9746153,105.17627 C64.9268033,83.5307387 82.1522321,65.5043226 103.371505,64.9934812 C114.127662,64.7317732 124.175122,68.7847107 131.81733,76.3931047 C139.464936,84.0046424 143.676247,94.1947505 143.676247,105.08589 C143.676247,117.482048 138.177097,128.986197 128.587706,136.650391 Z" id="Shape" fill="#4A555F"></path>
            <rect id="Rectangle" fill="#4A555F" x="86.7721088" y="170.231034" width="37.8095238" height="5.39310345"></rect>
            <path d="M92.1734694,183.713793 C92.1734694,186.692554 95.0514868,189.106897 98.6013541,189.106897 L112.752387,189.106897 C116.302255,189.106897 119.180272,186.691898 119.180272,183.713793 L92.1734694,183.713793 Z" id="Path" fill="#F58E6F"></path>
            <path d="M84.0714286,156.748276 L84.0714286,174.810734 C84.0714286,179.720014 88.3615138,183.713793 93.6367764,183.713793 L117.716965,183.713793 C122.991441,183.713793 127.282313,179.720014 127.282313,174.810734 L127.282313,156.748276 L84.0714286,156.748276 Z M121.964559,174.811466 C121.964559,176.991822 120.059515,178.765696 117.716178,178.765696 L93.6359895,178.765696 C91.2926524,178.765696 89.387609,176.99109 89.387609,174.811466 L89.387609,161.697105 L121.964559,161.697105 L121.964559,174.811466 Z" id="Shape" fill="#4A555F"></path>
            <rect id="Rectangle" fill="#4A555F" x="102.97619" y="35.4034483" width="5.40136054" height="13.4827586"></rect>
            <polygon id="Rectangle" fill="#4A555F" transform="translate(151.043227, 61.352762) rotate(-45.000000) translate(-151.043227, -61.352762) " points="144.773016 58.7594094 157.324913 58.7317871 157.313438 63.9461148 144.761541 63.9737372"></polygon>
            <polygon id="Rectangle" fill="#4A555F" transform="translate(57.828541, 154.980903) rotate(-45.000000) translate(-57.828541, -154.980903) " points="51.5583302 152.38755 64.1102266 152.359928 64.0987517 157.574256 51.5468553 157.601878"></polygon>
            <rect id="Rectangle" fill="#4A555F" x="165.091837" y="105.513793" width="13.5034014" height="5.39310345"></rect>
            <rect id="Rectangle" fill="#4A555F" x="32.7585034" y="105.513793" width="13.5034014" height="5.39310345"></rect>
            <polygon id="Rectangle" fill="#4A555F" transform="translate(151.057081, 154.998845) rotate(-45.000000) translate(-151.057081, -154.998845) " points="148.463728 148.728634 153.678056 148.717159 153.650434 161.269056 148.436106 161.280531"></polygon>
            <polygon id="Rectangle" fill="#4A555F" transform="translate(57.832865, 61.368109) rotate(-45.000000) translate(-57.832865, -61.368109) " points="55.239511 55.0986703 60.4538388 55.0871954 60.4262199 67.6375482 55.2118921 67.6490231"></polygon>
            <path d="M284.923826,38.1 L173.193878,38.1 L173.193878,43.3556294 L284.923826,43.3556294 C318.740472,43.3556294 346.253101,71.2401816 346.253101,105.513793 L351.438776,105.513793 C351.439543,68.3416507 321.599655,38.1 284.923826,38.1 Z" id="Path" fill="#4A555F"></path>
            <path d="M346.196281,260.150907 C346.196281,293.949837 318.382197,321.448194 284.195021,321.448194 L167.521593,321.448194 C133.332865,321.448194 105.518004,293.949837 105.518004,260.150907 L105.518004,199.893103 L100.27551,199.893103 L100.27551,260.150907 C100.27551,296.808224 130.441578,326.631034 167.521593,326.631034 L284.194245,326.631034 C321.271931,326.631034 351.438776,296.808224 351.438776,260.150907 L346.196281,260.150907 Z" id="Path" fill="#4A555F"></path>
            <ellipse id="Oval" fill="#FFD452" cx="104.326531" cy="106.862069" rx="31.0578231" ry="31.0103448"></ellipse>
            <path d="M310.330317,353.287471 L311.71442,358.293198 C313.427006,357.822758 315.150388,357.295435 316.835986,356.727371 L315.167352,351.807738 C313.574284,352.345054 311.94806,352.842398 310.330317,353.287471 Z M300.444971,355.412138 L301.248444,360.543161 C303.00344,360.270275 304.776171,359.941275 306.515746,359.566921 L305.416945,354.490475 C303.774528,354.844074 302.100496,355.153857 300.444971,355.412138 Z M319.911856,350.055888 L321.858852,354.872516 C323.512065,354.208365 325.160651,353.490406 326.759887,352.740162 L324.538383,348.041913 C323.029364,348.750648 321.472537,349.427866 319.911856,350.055888 Z M290.376876,356.409132 L290.600491,361.597807 C292.370909,361.522475 294.166773,361.394872 295.941046,361.21961 L295.425188,356.05169 C293.749614,356.216959 292.050908,356.337644 290.376876,356.409132 Z M248.812925,361.686207 L254.022395,361.686207 L254.022395,356.49292 L248.812925,356.49292 L248.812925,361.686207 L248.812925,361.686207 Z M259.231865,361.686207 L264.441335,361.686207 L264.441335,356.49292 L259.231865,356.49292 L259.231865,361.686207 Z M280.071286,361.686207 L285.280756,361.686207 L285.280756,356.49292 L280.071286,356.49292 L280.071286,361.686207 Z M269.651576,361.686207 L274.861045,361.686207 L274.861045,356.49292 L269.651576,356.49292 L269.651576,361.686207 L269.651576,361.686207 Z M329.047705,345.766583 L331.530608,350.332617 C333.085892,349.491667 334.642719,348.592297 336.158677,347.659873 L333.421315,343.240659 C331.988634,344.123118 330.51817,344.973292 329.047705,345.766583 Z M372.40829,292.201007 L377.411109,293.646149 C377.904605,291.951182 378.355691,290.213168 378.755886,288.479766 L373.678272,287.316734 C373.299668,288.957124 372.872485,290.59982 372.40829,292.201007 Z M374.666807,282.370966 L379.801481,283.243432 C380.09835,281.506187 380.351267,279.7282 380.549436,277.957901 L375.373895,277.378307 C375.184207,279.050982 374.946712,280.730576 374.666807,282.370966 Z M375.936789,267.306897 C375.936789,268.972653 375.888981,270.670695 375.79568,272.352595 L380.998981,272.638549 C381.096909,270.862869 381.146259,269.067971 381.146259,267.306897 L375.936789,267.306897 L375.936789,267.306897 Z M369.036323,301.715884 L373.842514,303.720634 C374.531095,302.081013 375.180351,300.40142 375.772547,298.727976 L370.857633,297.002261 C370.300136,298.580387 369.687892,300.1662 369.036323,301.715884 Z M345.597564,334.242343 L349.040472,338.138846 C350.372141,336.970433 351.68993,335.746675 352.958369,334.499087 L349.298786,330.801675 C348.098974,331.98085 346.854438,333.137732 345.597564,334.242343 Z M352.801839,327.156535 L356.661905,330.644093 C357.850922,329.335778 359.022976,327.971349 360.14568,326.587702 L356.092842,323.323065 C355.031825,324.631379 353.924543,325.921246 352.801839,327.156535 Z M337.647648,340.471828 L340.628674,344.730385 C342.083717,343.718017 343.530278,342.648766 344.929802,341.551841 L341.711281,337.469315 C340.388095,338.504744 339.020956,339.514806 337.647648,340.471828 Z M364.600254,310.794144 L369.148131,313.328523 C370.016376,311.778839 370.850693,310.186877 371.631034,308.593377 L366.946675,306.318047 C366.211057,307.823915 365.420692,309.330553 364.600254,310.794144 Z M359.163314,319.311258 L363.396586,322.337601 C364.442953,320.884772 365.452307,319.397351 366.396118,317.917618 L362.004002,315.128033 C361.107997,316.527053 360.153391,317.934529 359.163314,319.311258 Z" id="Shape" fill="#4A555F"></path>
            <path d="M275.282431,5.54147856 L280.481177,5.54147856 L280.481177,0.348275862 L275.282431,0.348275862 L275.282431,5.54147856 Z M264.884938,5.54147856 L270.083684,5.54147856 L270.083684,0.348275862 L264.884938,0.348275862 L264.884938,5.54147856 L264.884938,5.54147856 Z M306.014749,6.62224277 C307.666866,6.8797506 309.336683,7.19029736 310.976489,7.54465888 L312.073027,2.46752688 C310.337034,2.09317967 308.567952,1.76418459 306.816568,1.49130316 L306.014749,6.62224277 Z M295.96507,5.62526469 C297.635656,5.69752062 299.331635,5.81743471 301.002991,5.98270093 L301.517787,0.814864678 C299.747166,0.639605617 297.954999,0.512004722 296.188225,0.436674073 L295.96507,5.62526469 Z M244.088413,5.54147856 L249.287159,5.54147856 L249.287159,0.348275862 L244.088413,0.348275862 L244.088413,5.54147856 Z M285.680693,5.54147856 L290.87944,5.54147856 L290.87944,0.348275862 L285.680693,0.348275862 L285.680693,5.54147856 Z M254.486675,5.54147856 L259.685422,5.54147856 L259.685422,0.348275862 L254.486675,0.348275862 L254.486675,5.54147856 Z M233.69092,5.54147856 L238.889666,5.54147856 L238.889666,0.348275862 L233.69092,0.348275862 L233.69092,5.54147856 L233.69092,5.54147856 Z M192.098639,5.54147856 L197.297386,5.54147856 L197.297386,0.348275862 L192.098639,0.348275862 L192.098639,5.54147856 L192.098639,5.54147856 Z M202.496902,5.54147856 L207.695648,5.54147856 L207.695648,0.348275862 L202.496902,0.348275862 L202.496902,5.54147856 Z M212.895164,5.54147856 L218.093911,5.54147856 L218.093911,0.348275862 L212.895164,0.348275862 L212.895164,5.54147856 L212.895164,5.54147856 Z M223.292657,5.54147856 L228.491404,5.54147856 L228.491404,0.348275862 L223.292657,0.348275862 L223.292657,5.54147856 Z M385.206371,78.7913105 L380.081496,79.6637624 C380.360825,81.3048944 380.597831,82.9844604 380.787128,84.6571083 L385.952017,84.0775235 C385.754255,82.3064846 385.502628,80.5277589 385.206371,78.7913105 Z M374.574949,48.7067091 L370.035665,51.2410474 C370.854414,52.705383 371.643152,54.2112273 372.378025,55.7178402 L377.051972,53.4425472 C376.274007,51.8483046 375.441407,50.2555995 374.574949,48.7067091 Z M368.833705,39.6977784 L364.609146,42.724072 C365.597185,44.100778 366.550596,45.5082313 367.443987,46.907229 L371.827062,44.117689 C370.885194,42.6372111 369.877917,41.1505838 368.833705,39.6977784 Z M379.2589,58.3136729 L374.462602,60.3183906 C375.112061,61.8680496 375.723044,63.4538367 376.280163,65.0319369 L381.18496,63.3054814 C380.594753,61.6336022 379.946064,59.9540362 379.2589,58.3136729 Z M386.401405,89.3960211 L381.208815,89.6819701 C381.301924,91.3638421 381.348864,93.0610878 381.348864,94.7275862 L386.54761,94.7268175 C386.54838,92.9657714 386.499132,91.1732095 386.401405,89.3960211 Z M382.820149,68.3872255 L377.827629,69.8323441 C378.291638,71.4335047 378.717941,73.0769427 379.094996,74.7165374 L384.162158,73.5535244 C383.762787,71.8201508 383.312629,70.0821651 382.820149,68.3872255 Z M325.440023,11.9791743 C326.996723,12.607186 328.550345,13.2843931 330.057027,13.9938849 L332.273959,9.29571213 C330.678014,8.54548036 329.032822,7.82753315 327.383012,7.16339356 L325.440023,11.9791743 Z M334.557067,16.2684092 C336.024505,17.0624558 337.491173,17.912616 338.921675,18.794292 L341.653402,14.3751502 C340.140564,13.4427412 338.586942,12.5433855 337.034859,11.7024495 L334.557067,16.2684092 Z M315.8759,8.74687454 C317.495698,9.19424636 319.120114,9.69158238 320.704516,10.2273524 L322.369716,5.30779981 C320.692204,4.74128259 318.97314,4.21396804 317.260231,3.74122979 L315.8759,8.74687454 Z M343.138539,21.5630777 C344.509019,22.5200844 345.873344,23.5301301 347.193807,24.5655422 L350.405703,20.4830822 C349.009829,19.3869444 347.566245,18.3177104 346.114198,17.30459 L343.138539,21.5630777 Z M362.115195,31.389884 L358.263074,34.8773856 C359.383467,36.1134232 360.48847,37.4032684 361.546534,38.7107932 L365.591029,35.4462089 C364.471406,34.0625847 363.301765,32.6981775 362.115195,31.389884 Z M354.507911,23.8960218 L351.07209,27.7924612 C352.326377,28.8962858 353.568351,30.053918 354.764924,31.2330733 L358.416974,27.535722 C357.151915,26.2889229 355.836839,25.0644155 354.507911,23.8960218 Z" id="Shape" fill="#4A555F"></path>
            <ellipse id="Oval" fill="#EC8D53" cx="350.088435" cy="201.241379" rx="41.8605442" ry="41.7965517"></ellipse>
            <path d="M350.088435,159.444828 C325.51758,159.444828 305.527211,179.404042 305.527211,203.937548 C305.527211,228.47182 325.51758,248.431034 350.088435,248.431034 C374.659291,248.431034 394.64966,228.47182 394.64966,203.937548 C394.64966,179.404809 374.658523,159.444828 350.088435,159.444828 Z M350.088435,243.25006 C328.379712,243.25006 310.716841,225.614806 310.716841,203.938315 C310.716841,182.26259 328.379712,164.627336 350.088435,164.627336 C371.797159,164.627336 389.46003,182.26259 389.46003,203.938315 C389.46003,225.614806 371.797159,243.25006 350.088435,243.25006 Z" id="Shape" fill="#4A555F"></path>
            <path d="M327.132653,165.151204 C328.032298,164.942355 328.933689,164.752071 329.833333,164.56256 L329.833333,164.524658 C328.933689,164.733507 328.032298,164.923017 327.132653,165.151204 Z" id="Path" fill="#F58E6F"></path>
            <path d="M349.729085,111.906897 C328.886192,111.906897 311.928571,128.888302 311.928571,149.760805 L311.928571,179.941518 L316.754802,181.44479 C320.438721,176.095118 325.416947,171.673131 331.144179,168.662666 C331.519465,168.465837 331.895535,168.288612 332.270822,168.109035 L333.778235,165.718072 L333.778235,149.761589 C333.778235,140.948197 340.932966,133.779229 349.727518,133.779229 C358.533039,133.779229 365.697172,140.948981 365.697172,149.761589 L365.697172,165.583193 L367.139557,167.942005 L367.489772,168.105899 C368.535716,168.588169 369.587145,169.163757 370.601751,169.812273 L371.606171,170.468631 C375.883183,173.216396 379.733982,176.91537 382.742542,181.166407 L383.005791,180.978204 L386.084864,182.017241 L386.826035,179.801935 L387.547619,179.634904 L387.547619,149.762374 C387.549969,128.888302 370.584514,111.906897 349.729085,111.906897 Z M382.256785,172.359288 C379.885977,169.947936 377.268374,167.808695 374.502693,166.031744 L373.459882,165.35186 C372.645064,164.830381 371.812226,164.349679 370.992707,163.923086 L370.992707,149.760805 C370.992707,138.027129 361.453849,128.480528 349.729085,128.480528 C338.01529,128.480528 328.486618,138.027129 328.486618,149.760805 L328.486618,164.076001 C324.320076,166.29366 320.512368,169.168462 317.222539,172.556117 L317.222539,149.760021 C317.222539,131.808586 331.805435,117.204813 349.729085,117.204813 C367.665271,117.204813 382.256785,131.80937 382.256785,149.760021 L382.256785,172.359288 Z" id="Shape" fill="#4A555F"></path>
            <path d="M353.572624,203.415904 C356.25962,201.819674 358.080303,198.919169 358.080303,195.567245 C358.080303,190.510402 353.980394,186.410345 348.923734,186.410345 C343.86628,186.410345 339.767164,190.510402 339.767164,195.567245 C339.767164,198.797786 341.448222,201.622922 343.974172,203.253266 L337.935374,221.465517 L359.540816,221.465517 L353.572624,203.415904 Z" id="Path" fill="#4A555F"></path>
        </g>
    </g>
</svg>