<svg xmlns="http://www.w3.org/2000/svg" width="434" height="117" xmlns:v="https://vecta.io/nano"><path d="M131.23 30.13H160v7.17h-20.84V49h19.64v7.18h-19.64v18.5h-7.93zm58.98 44.56H183v-4.85h-.13a10.47 10.47 0 0 1-3.27 3.94 9.69 9.69 0 0 1-6 1.67 12.13 12.13 0 0 1-5.13-1 9.2 9.2 0 0 1-3.43-2.64 10.33 10.33 0 0 1-1.83-3.81c-.384-1.459-.575-2.962-.57-4.47V44.48h7.56v15.29l.12 2.8a10.49 10.49 0 0 0 .66 2.9 5.56 5.56 0 0 0 1.64 2.27 4.78 4.78 0 0 0 3.11.91 7.21 7.21 0 0 0 3.18-.63 6.1 6.1 0 0 0 2.14-1.7 6.63 6.63 0 0 0 1.23-2.46 11 11 0 0 0 .38-2.89V44.48h7.55v30.21zm23.35-21.84a6.91 6.91 0 0 0-5.91-3.09 6.36 6.36 0 0 0-3 .76 2.56 2.56 0 0 0-1.41 2.48 2.11 2.11 0 0 0 1.2 2 12.82 12.82 0 0 0 3 1.07l3.93.91a15.72 15.72 0 0 1 3.94 1.45 8.63 8.63 0 0 1 3 2.68 8 8 0 0 1 1.19 4.65 8.41 8.41 0 0 1-1.16 4.57 9.28 9.28 0 0 1-3 3 13.46 13.46 0 0 1-4.19 1.63 21.67 21.67 0 0 1-4.66.51 20 20 0 0 1-6.48-1 12.38 12.38 0 0 1-5.29-3.65l5-4.72a13.85 13.85 0 0 0 3.12 2.67 7.45 7.45 0 0 0 4.06 1 7.75 7.75 0 0 0 1.69-.19 5.17 5.17 0 0 0 1.64-.63 4 4 0 0 0 1.23-1.1 2.6 2.6 0 0 0 .47-1.54 2.56 2.56 0 0 0-1.2-2.33 10.78 10.78 0 0 0-3-1.23l-3.93-.88a14.91 14.91 0 0 1-3.93-1.32 8.32 8.32 0 0 1-3-2.55 7.6 7.6 0 0 1-1.19-4.53 8.76 8.76 0 0 1 1-4.38 9.2 9.2 0 0 1 2.73-3.05 11.91 11.91 0 0 1 3.91-1.76 17.8 17.8 0 0 1 4.47-.57 18.07 18.07 0 0 1 6 1 9.77 9.77 0 0 1 4.78 3.56l-5.01 4.58zm9.26-18.63a4.35 4.35 0 0 1 1.35-3.22 4.66 4.66 0 0 1 3.43-1.35 5 5 0 0 1 3.49 1.35 4.41 4.41 0 0 1 0 6.48 5 5 0 0 1-3.49 1.29 4.66 4.66 0 0 1-3.43-1.35 4.37 4.37 0 0 1-1.35-3.2zm1.07 10.26h7.55v30.21h-7.55V44.48zm11.77 15.1a16 16 0 0 1 1.34-6.51 15 15 0 0 1 8.71-8.21 18.68 18.68 0 0 1 12.85 0 15 15 0 0 1 8.71 8.21 17.1 17.1 0 0 1 0 13 15 15 0 0 1-8.71 8.21 18.68 18.68 0 0 1-12.85 0A15 15 0 0 1 237 66.1a16 16 0 0 1-1.34-6.52h0zm7.55 0a9.78 9.78 0 0 0 .6 3.4 8.43 8.43 0 0 0 1.76 2.9 8.94 8.94 0 0 0 13 0 8.43 8.43 0 0 0 1.76-2.9 9.91 9.91 0 0 0 0-6.79 8.43 8.43 0 0 0-1.76-2.9 8.94 8.94 0 0 0-13 0 8.43 8.43 0 0 0-1.76 2.9 9.76 9.76 0 0 0-.6 3.39zm29.33-15.1h7.18v4.84h.12a10.65 10.65 0 0 1 3.28-3.93 9.67 9.67 0 0 1 6-1.67 11.88 11.88 0 0 1 5.13 1 9.72 9.72 0 0 1 3.43 2.64 9.88 9.88 0 0 1 1.88 3.78c.384 1.459.575 2.962.57 4.47v19.08h-7.55V59.4l-.13-2.81a9.83 9.83 0 0 0-.66-2.89 5.45 5.45 0 0 0-1.67-2.27 4.81 4.81 0 0 0-3.08-.91 7.21 7.21 0 0 0-3.18.63 6.19 6.19 0 0 0-2.14 1.7 6.66 6.66 0 0 0-1.23 2.45 11.09 11.09 0 0 0-.38 2.9v16.49h-7.55l-.02-30.21z" fill="#e6e7e8"/><path d="M322.46 30.13h6.86l19.2 44.56h-9.07l-4.15-10.2H316l-4 10.2h-8.87l19.33-44.56zm10.07 27.57l-6.86-18.13-7 18.13h13.86zm44.75 16.99h-7.18v-4.85h-.1a10.66 10.66 0 0 1-3.27 3.94 9.71 9.71 0 0 1-6 1.67 12.13 12.13 0 0 1-5.13-1 9.2 9.2 0 0 1-3.43-2.64 10 10 0 0 1-1.89-3.81c-.384-1.459-.575-2.962-.57-4.47V44.48h7.55v15.29l.13 2.8a9.82 9.82 0 0 0 .66 2.9 5.56 5.56 0 0 0 1.64 2.27 4.78 4.78 0 0 0 3.11.91A7.21 7.21 0 0 0 366 68a6.1 6.1 0 0 0 2.14-1.7 6.63 6.63 0 0 0 1.23-2.46 11 11 0 0 0 .38-2.89V44.48h7.55l-.02 30.21zm2.58-23.79v-6.42h6.23v-8.75h7.56v8.75H402v6.42h-8.3v13.22a6.61 6.61 0 0 0 .84 3.58c.57.89 1.69 1.33 3.37 1.33a13 13 0 0 0 2.21-.22 4.59 4.59 0 0 0 1.88-.73v6.36a9.66 9.66 0 0 1-2.92.79 26 26 0 0 1-3.06.22 15.49 15.49 0 0 1-4.94-.66 6.64 6.64 0 0 1-3-2 7.63 7.63 0 0 1-1.51-3.37 23.71 23.71 0 0 1-.41-4.65V50.9h-6.3zM413 48.69h.13a8.8 8.8 0 0 1 3.11-3.43 10 10 0 0 1 5.76-1.54 11.82 11.82 0 0 1 5.13 1 9.63 9.63 0 0 1 3.43 2.64 10 10 0 0 1 1.89 3.78c.384 1.459.575 2.962.57 4.47v19.08h-7.56V59.4l-.12-2.81a10.5 10.5 0 0 0-.66-2.89 5.54 5.54 0 0 0-1.68-2.27 4.83 4.83 0 0 0-3.08-.91 7.21 7.21 0 0 0-3.18.63 6.1 6.1 0 0 0-2.14 1.7 6.66 6.66 0 0 0-1.23 2.45 11.09 11.09 0 0 0-.38 2.9v16.49h-7.55V27.1H413v21.59z" fill="#f58320"/><path d="M27.75 90.64A43.45 43.45 0 0 1 18 83a10.87 10.87 0 0 1-3 2.6 11 11 0 0 1-2 .88c15.519 16.947 40.668 20.97 60.7 9.71a3.05 3.05 0 0 0 0-5.29h0a3 3 0 0 0-3-.05 43.3 43.3 0 0 1-42.95-.21zm-.01-74.96a43.21 43.21 0 0 1 11.52-4.59 10.91 10.91 0 0 1-.76-4 11.4 11.4 0 0 1 .22-2.2C16.291 9.87.248 29.646 0 52.62a3.06 3.06 0 0 0 4.59 2.64h0a3 3 0 0 0 1.53-2.56 43.3 43.3 0 0 1 21.62-37.02zm64.91 37.48a43.28 43.28 0 0 1-1.78 12.27 10.86 10.86 0 0 1 3.82 1.32A12.16 12.16 0 0 1 96.48 68c6.884-21.915-2.23-45.685-22-57.38a3.06 3.06 0 0 0-4.48 2.7h0a3 3 0 0 0 1.45 2.6 43.29 43.29 0 0 1 21.2 37.24zM49.39 32.58a20.58 20.58 0 1 1-20.57 20.58c.011-11.358 9.212-20.563 20.57-20.58m0-6.11c-14.74 0-26.69 11.95-26.69 26.69s11.95 26.69 26.69 26.69S76.08 67.9 76.08 53.16a26.68 26.68 0 0 0-26.69-26.69z" fill="#e6e7e8"/><g fill="#f58320"><circle cx="49.38" cy="7.12" r="7.12"/><circle cx="9.51" cy="76.17" r="7.12"/><circle cx="89.25" cy="76.17" r="7.12"/><path d="M55.29 48.29a5.9 5.9 0 0 0-11.456-1.992 5.9 5.9 0 0 0 2.656 7.122l-1.86 9.43a1 1 0 0 0 1 1.2h7.57a1 1 0 0 0 1-1.2l-1.87-9.43a5.89 5.89 0 0 0 2.96-5.13h0z"/></g><path d="M274.574 85.636h8.283a18.36 18.36 0 0 1 4.587.594c1.54.396 2.926 1.05 4.158 1.963s2.233 2.112 3.003 3.597 1.155 3.328 1.155 5.528c0 2.046-.385 3.806-1.155 5.28s-1.771 2.684-3.003 3.63-2.618 1.644-4.158 2.096a16.22 16.22 0 0 1-4.587.676h-8.283V85.636zm7.623 19.734a14.11 14.11 0 0 0 3.234-.379 8.43 8.43 0 0 0 2.92-1.287c.869-.605 1.579-1.424 2.129-2.459s.825-2.343.825-3.927c0-1.672-.275-3.036-.825-4.092s-1.26-1.881-2.129-2.475-1.842-1.001-2.92-1.221-2.156-.33-3.234-.33h-3.465v16.17h3.465zm28.545-5.874c0-.506-.072-.99-.214-1.452a3.31 3.31 0 0 0-.677-1.221 3.3 3.3 0 0 0-1.171-.841c-.473-.209-1.029-.314-1.666-.314-1.188 0-2.195.358-3.019 1.073a3.91 3.91 0 0 0-1.37 2.755h8.118zm3.96 1.782v.528c0 .176-.011.352-.033.528h-12.045c.044.572.192 1.095.445 1.567a3.99 3.99 0 0 0 1.007 1.221 5.01 5.01 0 0 0 1.419.809 4.66 4.66 0 0 0 1.65.297c.99 0 1.826-.181 2.508-.544a4.7 4.7 0 0 0 1.683-1.502l2.64 2.112c-1.562 2.112-3.828 3.168-6.798 3.168-1.232 0-2.365-.192-3.399-.578s-1.93-.929-2.69-1.633-1.353-1.567-1.782-2.59-.644-2.184-.644-3.482c0-1.276.215-2.436.644-3.481s1.017-1.936 1.766-2.673 1.633-1.309 2.656-1.716 2.128-.611 3.316-.611c1.1 0 2.118.181 3.053.544a6.62 6.62 0 0 1 2.425 1.617c.682.715 1.216 1.606 1.601 2.673s.577 2.316.577 3.746zm1.452-8.118h4.323l4.158 11.55h.066l4.191-11.55h4.191L326.78 109h-4.224zm30.459 6.336c0-.506-.071-.99-.214-1.452a3.31 3.31 0 0 0-.677-1.221c-.309-.352-.698-.632-1.171-.841s-1.029-.314-1.666-.314c-1.188 0-2.195.358-3.019 1.073s-1.281 1.633-1.37 2.755h8.118zm3.96 1.782v.528c0 .176-.011.352-.033.528h-12.045a3.9 3.9 0 0 0 .446 1.567 3.99 3.99 0 0 0 1.006 1.221 5.01 5.01 0 0 0 1.419.809 4.66 4.66 0 0 0 1.65.297c.99 0 1.826-.181 2.508-.544a4.7 4.7 0 0 0 1.683-1.502l2.64 2.112c-1.562 2.112-3.828 3.168-6.798 3.168-1.232 0-2.365-.192-3.399-.578s-1.93-.929-2.689-1.633a7.36 7.36 0 0 1-1.782-2.59c-.429-1.023-.643-2.184-.643-3.482 0-1.276.214-2.436.643-3.481s1.018-1.936 1.766-2.673 1.633-1.309 2.656-1.716 2.129-.611 3.317-.611c1.1 0 2.117.181 3.053.544a6.62 6.62 0 0 1 2.425 1.617c.682.715 1.216 1.606 1.601 2.673s.577 2.316.577 3.746zm3.894-17.226h3.96V109h-3.96zm7.854 16.962c0-1.254.226-2.392.676-3.416a7.96 7.96 0 0 1 1.832-2.623c.77-.726 1.683-1.287 2.739-1.683s2.178-.594 3.366-.594 2.31.198 3.366.594 1.969.957 2.739 1.683 1.381 1.6 1.832 2.623.677 2.162.677 3.416-.226 2.398-.677 3.432-1.061 1.92-1.832 2.657-1.683 1.314-2.739 1.733-2.178.627-3.366.627-2.31-.209-3.366-.627-1.969-.995-2.739-1.733-1.38-1.623-1.832-2.657-.676-2.178-.676-3.432zm4.026 0c0 .616.094 1.232.281 1.848a5.09 5.09 0 0 0 .841 1.65c.374.484.847.88 1.419 1.188s1.254.462 2.046.462 1.474-.154 2.046-.462 1.045-.704 1.419-1.188a5.09 5.09 0 0 0 .841-1.65c.187-.616.281-1.232.281-1.848a6.17 6.17 0 0 0-.281-1.832 5.12 5.12 0 0 0-.841-1.633c-.374-.484-.847-.874-1.419-1.171s-1.254-.446-2.046-.446-1.474.148-2.046.446-1.045.688-1.419 1.171a5.12 5.12 0 0 0-.841 1.633 6.17 6.17 0 0 0-.281 1.832zm20.823-7.854v2.211h.099c.198-.308.457-.621.776-.941a5.12 5.12 0 0 1 1.171-.858c.462-.253.985-.462 1.567-.627s1.238-.248 1.964-.248c1.122 0 2.156.215 3.102.644a7.4 7.4 0 0 1 2.442 1.765c.682.748 1.21 1.628 1.584 2.64s.561 2.101.561 3.267-.182 2.26-.545 3.284-.88 1.914-1.551 2.673-1.485 1.364-2.442 1.815-2.041.676-3.25.676c-1.122 0-2.151-.231-3.086-.693s-1.655-1.089-2.161-1.881h-.066v10.032h-3.96V93.16h3.795zm9.24 7.854a6.17 6.17 0 0 0-.281-1.832 5.12 5.12 0 0 0-.841-1.633c-.374-.484-.847-.874-1.419-1.171s-1.243-.446-2.013-.446c-.726 0-1.375.154-1.947.462s-1.061.704-1.468 1.188a5.07 5.07 0 0 0-.924 1.65 5.72 5.72 0 0 0-.313 1.848 5.57 5.57 0 0 0 .313 1.831c.209.605.517 1.15.924 1.633a4.77 4.77 0 0 0 1.468 1.172c.572.297 1.221.445 1.947.445.77 0 1.441-.154 2.013-.462s1.045-.704 1.419-1.188a5.09 5.09 0 0 0 .841-1.65c.187-.616.281-1.232.281-1.848zm19.008-1.518c0-.506-.072-.99-.214-1.452s-.368-.869-.676-1.221-.699-.632-1.172-.841-1.029-.314-1.666-.314c-1.188 0-2.195.358-3.02 1.073s-1.281 1.633-1.369 2.755h8.118zm3.96 1.782v.528c0 .176-.011.352-.033.528H407.3c.044.572.192 1.095.445 1.567a3.99 3.99 0 0 0 1.007 1.221 5.01 5.01 0 0 0 1.419.809 4.66 4.66 0 0 0 1.65.297c.99 0 1.826-.181 2.508-.544a4.7 4.7 0 0 0 1.683-1.502l2.64 2.112c-1.562 2.112-3.828 3.168-6.798 3.168-1.232 0-2.365-.192-3.399-.578s-1.931-.929-2.69-1.633a7.36 7.36 0 0 1-1.782-2.59c-.429-1.023-.644-2.184-.644-3.482 0-1.276.214-2.436.644-3.481s1.017-1.936 1.765-2.673 1.634-1.309 2.656-1.716 2.128-.611 3.316-.611c1.1 0 2.118.181 3.053.544a6.62 6.62 0 0 1 2.426 1.617c.682.715 1.215 1.606 1.6 2.673s.578 2.316.578 3.746zm3.828-8.118h3.795v2.64h.066c.44-.924 1.056-1.672 1.848-2.244s1.716-.858 2.772-.858l.495.016c.176.011.33.039.462.083v3.63c-.264-.066-.49-.11-.677-.132a4.66 4.66 0 0 0-.544-.033c-.902 0-1.628.165-2.178.495s-.979.726-1.287 1.188-.517.935-.627 1.419-.165.869-.165 1.155V109h-3.96V93.16z" fill="#e6e7e8"/></svg>