<svg xmlns="http://www.w3.org/2000/svg" viewBox="0 0 433.05 102.55"><path d="M131.23 30.13H160v7.17h-20.84V49h19.64v7.18h-19.64v18.5h-7.93zM190.2 74.7H183v-4.85h-.13a10.47 10.47 0 0 1-3.27 3.94 9.69 9.69 0 0 1-6 1.67 12.13 12.13 0 0 1-5.13-1 9.2 9.2 0 0 1-3.43-2.64 10.33 10.33 0 0 1-1.83-3.81 17.33 17.33 0 0 1-.57-4.47V44.48h7.56v15.3l.12 2.8a10.49 10.49 0 0 0 .66 2.9 5.56 5.56 0 0 0 1.64 2.27 4.78 4.78 0 0 0 3.11.91 7.21 7.21 0 0 0 3.18-.63 6.1 6.1 0 0 0 2.14-1.7 6.63 6.63 0 0 0 1.23-2.46 11 11 0 0 0 .38-2.89v-16.5h7.55zm23.36-21.85a6.91 6.91 0 0 0-5.91-3.09 6.36 6.36 0 0 0-3 .76 2.56 2.56 0 0 0-1.41 2.48 2.11 2.11 0 0 0 1.2 2 12.82 12.82 0 0 0 3 1.07l3.93.9a15.72 15.72 0 0 1 3.94 1.45 8.63 8.63 0 0 1 3 2.68 8 8 0 0 1 1.19 4.65 8.41 8.41 0 0 1-1.16 4.57 9.28 9.28 0 0 1-3 3 13.46 13.46 0 0 1-4.19 1.63 21.67 21.67 0 0 1-4.66.51 20 20 0 0 1-6.48-1 12.38 12.38 0 0 1-5.29-3.65l5-4.72a13.85 13.85 0 0 0 3.12 2.67 7.45 7.45 0 0 0 4.06 1 7.75 7.75 0 0 0 1.69-.19 5.17 5.17 0 0 0 1.64-.63 4 4 0 0 0 1.23-1.1 2.6 2.6 0 0 0 .47-1.54 2.56 2.56 0 0 0-1.2-2.33 10.78 10.78 0 0 0-3-1.23l-3.93-.88a14.91 14.91 0 0 1-3.93-1.32 8.32 8.32 0 0 1-3-2.55 7.6 7.6 0 0 1-1.19-4.53 8.76 8.76 0 0 1 1-4.38 9.2 9.2 0 0 1 2.73-3.05 11.91 11.91 0 0 1 3.91-1.76 17.79 17.79 0 0 1 4.47-.57 18.06 18.06 0 0 1 6 1 9.77 9.77 0 0 1 4.78 3.56zm9.26-18.63a4.35 4.35 0 0 1 1.35-3.22 4.66 4.66 0 0 1 3.43-1.35 5 5 0 0 1 3.49 1.35 4.41 4.41 0 0 1 0 6.48 5 5 0 0 1-3.49 1.29 4.66 4.66 0 0 1-3.43-1.35 4.37 4.37 0 0 1-1.35-3.2zm1.07 10.26h7.55v30.2h-7.55zm11.77 15.1a16 16 0 0 1 1.34-6.51 15 15 0 0 1 8.71-8.21 18.68 18.68 0 0 1 12.85 0 15 15 0 0 1 8.71 8.21 17.1 17.1 0 0 1 0 13 15 15 0 0 1-8.71 8.21 18.68 18.68 0 0 1-12.85 0A15 15 0 0 1 237 66.1a16 16 0 0 1-1.34-6.52zm7.55 0a9.78 9.78 0 0 0 .6 3.4 8.43 8.43 0 0 0 1.76 2.9 8.94 8.94 0 0 0 13 0 8.43 8.43 0 0 0 1.76-2.9 9.91 9.91 0 0 0 0-6.79 8.43 8.43 0 0 0-1.76-2.9 8.94 8.94 0 0 0-13 0 8.43 8.43 0 0 0-1.76 2.9 9.76 9.76 0 0 0-.6 3.39zm29.33-15.1h7.18v4.84h.12a10.65 10.65 0 0 1 3.28-3.93 9.67 9.67 0 0 1 6-1.67 11.88 11.88 0 0 1 5.13 1 9.72 9.72 0 0 1 3.43 2.64 9.88 9.88 0 0 1 1.88 3.78 17.33 17.33 0 0 1 .57 4.47v19.1h-7.55V59.4l-.13-2.8a9.83 9.83 0 0 0-.66-2.89 5.45 5.45 0 0 0-1.67-2.27 4.81 4.81 0 0 0-3.08-.91 7.21 7.21 0 0 0-3.18.63 6.19 6.19 0 0 0-2.14 1.7 6.66 6.66 0 0 0-1.23 2.45 11.09 11.09 0 0 0-.38 2.9v16.5h-7.55z" fill="#e6e7e8"/><path d="M322.46 30.13h6.86l19.2 44.56h-9.07l-4.15-10.2H316l-4 10.2h-8.87zm10.07 27.57l-6.86-18.13-7 18.13zm44.75 17h-7.18v-4.85h-.1a10.66 10.66 0 0 1-3.27 3.94 9.71 9.71 0 0 1-6 1.67 12.13 12.13 0 0 1-5.13-1 9.2 9.2 0 0 1-3.43-2.64 10 10 0 0 1-1.89-3.81 17.33 17.33 0 0 1-.57-4.47V44.48h7.55v15.3l.13 2.8a9.82 9.82 0 0 0 .66 2.9 5.56 5.56 0 0 0 1.64 2.27 4.78 4.78 0 0 0 3.11.91A7.21 7.21 0 0 0 366 68a6.1 6.1 0 0 0 2.14-1.7 6.63 6.63 0 0 0 1.23-2.46 11 11 0 0 0 .38-2.89V44.48h7.55zm2.58-23.8v-6.42h6.23v-8.75h7.56v8.75H402v6.42h-8.3v13.22a6.61 6.61 0 0 0 .84 3.58c.57.9 1.7 1.33 3.37 1.33a13 13 0 0 0 2.21-.22 4.59 4.59 0 0 0 1.88-.73v6.36a9.66 9.66 0 0 1-2.92.79 26 26 0 0 1-3.06.22 15.49 15.49 0 0 1-4.94-.66 6.64 6.64 0 0 1-3-2 7.63 7.63 0 0 1-1.51-3.37 23.71 23.71 0 0 1-.41-4.65V50.9zM413 48.7h.13a8.8 8.8 0 0 1 3.11-3.43 10 10 0 0 1 5.76-1.54 11.82 11.82 0 0 1 5.13 1 9.63 9.63 0 0 1 3.43 2.64 10 10 0 0 1 1.89 3.78 17.33 17.33 0 0 1 .57 4.47V74.7h-7.56V59.4l-.12-2.8a10.5 10.5 0 0 0-.66-2.89 5.54 5.54 0 0 0-1.68-2.27 4.83 4.83 0 0 0-3.08-.91 7.21 7.21 0 0 0-3.18.63 6.1 6.1 0 0 0-2.14 1.7 6.66 6.66 0 0 0-1.23 2.45 11.09 11.09 0 0 0-.38 2.9v16.5h-7.55V27.1H413z" fill="#f58320"/><path d="M27.75 90.64A43.45 43.45 0 0 1 18 83a10.87 10.87 0 0 1-3 2.6 11 11 0 0 1-2 .88 49.45 49.45 0 0 0 60.7 9.71 3.05 3.05 0 0 0 0-5.29h0a3 3 0 0 0-3-.05 43.3 43.3 0 0 1-42.95-.21zm-.01-74.96a43.21 43.21 0 0 1 11.52-4.59 10.91 10.91 0 0 1-.76-4 11.4 11.4 0 0 1 .22-2.2A49.44 49.44 0 0 0 0 52.62a3.06 3.06 0 0 0 4.59 2.64h0a3 3 0 0 0 1.53-2.56 43.3 43.3 0 0 1 21.62-37.02zm64.9 37.48a43.28 43.28 0 0 1-1.78 12.27 10.86 10.86 0 0 1 3.82 1.32A12.16 12.16 0 0 1 96.48 68a49.45 49.45 0 0 0-22-57.38 3.06 3.06 0 0 0-4.48 2.7h0a3 3 0 0 0 1.45 2.6 43.29 43.29 0 0 1 21.2 37.24zM49.4 32.58a20.58 20.58 0 1 1-20.57 20.58A20.6 20.6 0 0 1 49.4 32.58m0-6.1a26.69 26.69 0 1 0 26.69 26.69A26.68 26.68 0 0 0 49.4 26.48z" fill="#e6e7e8"/><g fill="#f58320"><circle cx="49.38" cy="7.12" r="7.12"/><circle cx="9.51" cy="76.17" r="7.12"/><circle cx="89.25" cy="76.17" r="7.12"/><path d="M55.3 48.3a5.9 5.9 0 1 0-8.8 5.13l-1.86 9.43a1 1 0 0 0 1 1.2h7.57a1 1 0 0 0 1-1.2l-1.87-9.43a5.89 5.89 0 0 0 2.96-5.13z"/></g></svg>