<svg xmlns="http://www.w3.org/2000/svg" xmlns:xlink="http://www.w3.org/1999/xlink" width="160" height="49"><style><![CDATA[.B{mask:url(#C)}.C{fill:#3e4e50}.D{fill:#f58320}]]></style><defs><path id="A" d="M0 48h159.99V.164H0z"/><path id="B" d="M3.927 31.756a3.33 3.33 0 0 0-3.341 3.318 3.33 3.33 0 0 0 3.341 3.318 3.33 3.33 0 0 0 3.341-3.318 3.33 3.33 0 0 0-3.341-3.318"/></defs><g transform="translate(0 .399)" fill-rule="evenodd"><path d="M61 5h4v.966h-2.897v1.576h2.73v.966h-2.73V11H61zm7.798 5.88h-.894v-.6h-.015a1.32 1.32 0 0 1-.408.487c-.183.137-.43.206-.745.206-.25 0-.465-.04-.64-.12a1.14 1.14 0 0 1-.427-.327c-.1-.137-.188-.295-.236-.47s-.07-.36-.07-.553V7.14h.94v1.893l.015.347a1.2 1.2 0 0 0 .083.358.68.68 0 0 0 .204.281c.1.075.22.113.388.113.157 0 .3-.026.396-.078a.78.78 0 0 0 .267-.21c.07-.088.122-.2.153-.303a1.37 1.37 0 0 0 .047-.359V7.14h.94v3.74zm2.9-2.704a.86.86 0 0 0-.737-.382c-.126 0-.25.03-.37.093s-.18.164-.18.304a.26.26 0 0 0 .149.249c.1.052.225.096.376.133l.5.113a1.94 1.94 0 0 1 .49.179 1.07 1.07 0 0 1 .377.33c.1.14.15.332.15.576a1.04 1.04 0 0 1-.145.565 1.14 1.14 0 0 1-.376.37 1.68 1.68 0 0 1-.522.203c-.194.04-.387.062-.58.062a2.51 2.51 0 0 1-.808-.124c-.246-.083-.465-.234-.66-.452L70 9.81c.12.135.25.246.4.33a.94.94 0 0 0 .506.129 1.03 1.03 0 0 0 .212-.023.7.7 0 0 0 .204-.078.49.49 0 0 0 .153-.136.32.32 0 0 0 .059-.191c0-.13-.05-.226-.15-.288s-.225-.113-.376-.152l-.5-.1a2.17 2.17 0 0 1-.5-.164.95.95 0 0 1-.376-.315c-.1-.135-.15-.322-.15-.56 0-.208.043-.388.13-.542a1.13 1.13 0 0 1 .341-.378 1.49 1.49 0 0 1 .487-.218 2.25 2.25 0 0 1 .557-.07c.25 0 .5.042.745.13a1.24 1.24 0 0 1 .596.44l-.627.56z" class="C"/><mask id="C" fill="#fff"><use xlink:href="#A"/></mask><path d="M72.995 10.88h.94V7.14h-.94v3.74zm-.133-5a.53.53 0 0 1 .17-.393.58.58 0 0 1 .427-.168.62.62 0 0 1 .435.16.52.52 0 0 1 .176.4.52.52 0 0 1-.176.4.63.63 0 0 1-.435.16.58.58 0 0 1-.427-.167c-.113-.1-.17-.243-.17-.393h0zM75.403 9a1.21 1.21 0 0 0 .075.421 1.05 1.05 0 0 0 .22.358 1.1 1.1 0 0 0 .35.25c.137.063.3.093.463.093a1.12 1.12 0 0 0 .463-.093c.136-.063.252-.145.35-.25a1.05 1.05 0 0 0 .22-.358 1.22 1.22 0 0 0 0-.842 1.06 1.06 0 0 0-.22-.358 1.1 1.1 0 0 0-.35-.25c-.137-.063-.3-.093-.463-.093a1.12 1.12 0 0 0-.463.093c-.136.063-.252.145-.35.25a1.06 1.06 0 0 0-.22.358 1.21 1.21 0 0 0-.075.421m-.94 0a1.97 1.97 0 0 1 .16-.806 1.89 1.89 0 0 1 .436-.62c.183-.17.4-.303.65-.397a2.27 2.27 0 0 1 .8-.14 2.27 2.27 0 0 1 .8.14 1.93 1.93 0 0 1 .651.397c.183.172.328.378.435.62a1.97 1.97 0 0 1 .161.806 1.97 1.97 0 0 1-.161.806c-.107.242-.252.448-.435.62s-.4.304-.65.398a2.28 2.28 0 0 1-.8.14 2.28 2.28 0 0 1-.8-.14c-.25-.094-.468-.226-.65-.398a1.88 1.88 0 0 1-.436-.619 1.97 1.97 0 0 1-.16-.806m4.594-1.86h.894v.6h.015a1.32 1.32 0 0 1 .408-.487c.183-.137.43-.206.745-.206.25 0 .464.042.64.125a1.19 1.19 0 0 1 .427.327 1.23 1.23 0 0 1 .236.467 2.18 2.18 0 0 1 .07.553v2.36h-.94V8.986l-.015-.347a1.2 1.2 0 0 0-.083-.358.67.67 0 0 0-.207-.281c-.094-.075-.223-.113-.385-.113-.157 0-.3.026-.396.078a.78.78 0 0 0-.267.21.83.83 0 0 0-.153.303 1.37 1.37 0 0 0-.047.359v2.04h-.94V7.14z" class="C B"/><path d="M86.533 8.776l-.855-2.244-.87 2.244h1.726zm-1.255-3.412h.855l2.393 5.516h-1.13l-.518-1.262H84.47l-.502 1.262h-1.106l2.416-5.516zM92.1 10.88h-.894v-.6H91.2a1.32 1.32 0 0 1-.408.487c-.183.137-.43.206-.745.206-.25 0-.464-.04-.64-.12s-.318-.2-.427-.327a1.27 1.27 0 0 1-.236-.471 2.14 2.14 0 0 1-.07-.553V7.14h.94v1.893l.015.347a1.2 1.2 0 0 0 .083.358.68.68 0 0 0 .204.281c.1.075.22.113.4.113.157 0 .3-.026.396-.078a.75.75 0 0 0 .267-.211.83.83 0 0 0 .153-.303 1.37 1.37 0 0 0 .047-.359V7.14h.94v3.74zm.332-2.946V7.14h.777V6.057h.94V7.14h1.036v.795H94.15V9.57c0 .187.035.335.106.444s.2.164.42.164c.084 0 .175-.01.274-.027a.58.58 0 0 0 .236-.089v.787a1.21 1.21 0 0 1-.365.097 3.1 3.1 0 0 1-.38.027 1.94 1.94 0 0 1-.616-.082.81.81 0 0 1-.376-.249.96.96 0 0 1-.188-.417 2.88 2.88 0 0 1-.051-.576V7.934h-.777zm4.134-.272h.015c.073-.156.203-.297.4-.425s.425-.2.718-.2c.25 0 .464.042.64.125a1.19 1.19 0 0 1 .427.327 1.24 1.24 0 0 1 .236.467 2.14 2.14 0 0 1 .07.553v2.36h-.94V8.986l-.016-.347a1.23 1.23 0 0 0-.082-.358.67.67 0 0 0-.208-.28.6.6 0 0 0-.384-.113c-.157 0-.3.026-.396.078a.76.76 0 0 0-.267.211.84.84 0 0 0-.153.303c-.03.113-.047.234-.047.358v2.04h-.94V5h.94v2.672z" class="D B"/><g class="C B"><path d="M5.413 38.043l.262-.145-.262.145m.307-.173l.27-.2a3.32 3.32 0 0 1-.271.191m1.01-.99a3.34 3.34 0 0 1-.724.791 3.34 3.34 0 0 0 .724-.791m-2.404 1.487a3.25 3.25 0 0 0 .355-.062 3.21 3.21 0 0 1-.355.062m.76-.183l.273-.114-.273.114m30.624 4.234c-.457-.518-1.222-.625-1.8-.26a20.32 20.32 0 0 1-10.726 3.047c-6.056 0-11.492-2.648-15.223-6.83-.6.73-1.418 1.3-2.34 1.603C9.854 44.884 16.142 48 23.17 48a23.16 23.16 0 0 0 12.206-3.455c.747-.46.9-1.47.33-2.128"/><path d="M4.724 38.293l.3-.087-.3.087m38.398-6.46l-.25-.04.25.04m.338.093l-.234-.066.234.066m.33.127l-.233-.093.233.093m-1.375-.296c.12 0 .24.007.358.02a3.26 3.26 0 0 0-.358-.02l-.07.003.07-.003m2.278.896l.236.24a2.97 2.97 0 0 0-.236-.24m-1.167-7.665a19.96 19.96 0 0 1-.62 4.93c.988.092 1.893.462 2.644 1.026a22.77 22.77 0 0 0 .79-5.956c0-8.427-4.564-15.792-11.368-19.8-.747-.44-1.7-.138-2.044.657a1.4 1.4 0 0 0 .588 1.746c5.985 3.524 10.008 10 10.008 17.398m1.15 7.648l-.24-.2.24.2"/><path d="M44.102 32.214l-.236-.125.236.125m.296.194l-.238-.16.238.16M20.217 4.92c-.273-.515-.4-1.068-.378-1.6l-.008.17c0 .544.134 1.055.367 1.508l.054-.01-.035-.06m-2.264-1.436c0-.322.034-.636.1-.94a23.21 23.21 0 0 0-5.687 2.08A22.98 22.98 0 0 0 .002 23.83c-.045.86.673 1.568 1.537 1.5.702-.062 1.245-.63 1.28-1.33A20.21 20.21 0 0 1 13.667 7.095c1.504-.786 3.063-1.36 4.645-1.74-.23-.582-.358-1.213-.358-1.873"/></g><g class="D B"><path d="M23.17.163a3.33 3.33 0 0 0-3.34 3.318c0 1.832 1.496 3.32 3.34 3.32a3.33 3.33 0 0 0 3.341-3.319 3.33 3.33 0 0 0-3.34-3.319m19.244 31.593a3.33 3.33 0 0 0-3.341 3.318 3.341 3.341 0 1 0 6.682 0 3.33 3.33 0 0 0-3.341-3.318"/><use xlink:href="#B"/></g><path d="M28.85 24.972h10.236a.94.94 0 0 0 .94-.987c-.318-5.44-3.248-10.18-7.56-13-.452-.297-1.065-.155-1.336.312l-5.188 8.925c1.7.94 2.848 2.715 2.9 4.76m-2.767 5a5.67 5.67 0 0 1-2.914.807 5.66 5.66 0 0 1-2.91-.805l-5.04 8.672c-.27.467-.1 1.064.396 1.306 4.622 2.293 10.216 2.444 15.116.003.486-.242.67-.84.4-1.306l-5.044-8.677zm-5.685-9.77l-5.188-8.925c-.27-.466-.884-.6-1.336-.312-4.312 2.83-7.243 7.57-7.56 13a.94.94 0 0 0 .94.987h10.236c.062-2.044 1.218-3.818 2.9-4.76" class="C B"/><use xlink:href="#B" x="19.243" y="-9.933" class="B D"/><path d="M66.07 23h2.725l1.318-.044a4.15 4.15 0 0 0 1.259-.265 2.18 2.18 0 0 0 .933-.691c.247-.314.37-.755.37-1.324 0-.53-.1-.95-.326-1.265a2.14 2.14 0 0 0-.83-.72 3.69 3.69 0 0 0-1.155-.338 9.42 9.42 0 0 0-1.273-.089h-3.02V23zm-4.62-8.62h8.116a14.34 14.34 0 0 1 3.036.31c.958.207 1.797.55 2.518 1.03s1.293 1.128 1.718 1.94.637 1.83.637 3.045c0 1.47-.385 2.72-1.155 3.75s-1.896 1.68-3.376 1.956l5.33 8.796h-5.54l-4.384-8.325h-2.28v8.325h-4.62V14.4zm26.42 12.072c.02-.745-.227-1.383-.74-1.913s-1.175-.794-1.985-.794c-.494 0-.928.08-1.303.235s-.696.358-.963.603a2.64 2.64 0 0 0-.622.853 2.78 2.78 0 0 0-.252 1.015h5.865zm3.762 6.295c-.7.902-1.6 1.598-2.696 2.1a8.12 8.12 0 0 1-3.376.735c-1.106 0-2.147-.177-3.124-.53s-1.827-.858-2.548-1.515a7.11 7.11 0 0 1-1.703-2.368c-.415-.92-.622-1.95-.622-3.1s.207-2.167.622-3.1a7.11 7.11 0 0 1 1.703-2.368 7.54 7.54 0 0 1 2.548-1.515 9.12 9.12 0 0 1 3.124-.529c1.027 0 1.96.176 2.8.53s1.55.858 2.133 1.515 1.03 1.447 1.348 2.368.474 1.952.474 3.1v1.383h-10.3c.178.843.563 1.515 1.155 2.015s1.323.75 2.192.75c.73 0 1.348-.162 1.85-.486s.943-.74 1.318-1.25l3.1 2.265zm9.832-3.794l-1.26.044a6.44 6.44 0 0 0-1.45.25c-.462.137-.86.343-1.185.618s-.5.657-.5 1.147a1.26 1.26 0 0 0 .68 1.177c.453.255.928.383 1.422.383a4.5 4.5 0 0 0 1.259-.177 3.76 3.76 0 0 0 1.081-.501c.316-.215.567-.5.755-.823s.28-.725.28-1.177v-.94h-1.096zm1.096 4.47h-.06a4.17 4.17 0 0 1-1.97 1.647 6.82 6.82 0 0 1-2.59.5 6.74 6.74 0 0 1-1.94-.279c-.622-.186-1.17-.466-1.644-.838a4.05 4.05 0 0 1-1.126-1.383c-.277-.55-.415-1.186-.415-1.912 0-.823.153-1.52.46-2.1a4.09 4.09 0 0 1 1.244-1.412c.523-.372 1.12-.662 1.792-.868a13.17 13.17 0 0 1 2.088-.456c.72-.098 1.44-.157 2.163-.177l2-.03c0-.784-.28-1.407-.844-1.868s-1.23-.7-2-.7a4.38 4.38 0 0 0-2 .456 5.46 5.46 0 0 0-1.614 1.25l-2.37-2.412a8.16 8.16 0 0 1 2.903-1.72c1.106-.382 2.25-.574 3.436-.574 1.303 0 2.374.162 3.214.485s1.5.8 2.014 1.427.854 1.398 1.05 2.3.296 1.967.296 3.163v7.266h-4.088v-1.795zm15.135-7.883c-.217-.314-.524-.574-.918-.78s-.82-.3-1.273-.3c-1.126 0-2 .333-2.62 1s-.933 1.54-.933 2.618.312 1.952.933 2.618 1.496 1 2.62 1c.493 0 .918-.108 1.273-.323s.662-.47.918-.765l2.933 3.06c-.692.706-1.506 1.2-2.444 1.486s-1.832.426-2.68.426c-1.106 0-2.148-.177-3.125-.53a7.53 7.53 0 0 1-2.547-1.515c-.72-.657-1.288-1.446-1.703-2.368s-.622-1.95-.622-3.1.207-2.167.622-3.1a7.11 7.11 0 0 1 1.703-2.368 7.52 7.52 0 0 1 2.547-1.515c.977-.353 2.02-.53 3.125-.53.85 0 1.742.142 2.68.426s1.752.78 2.444 1.486l-2.933 3.06zm14.8-1.088h-3.9v4.766a8.81 8.81 0 0 0 .06 1.074c.04.324.128.603.267.84s.35.417.637.544.666.192 1.14.192a7.76 7.76 0 0 0 .933-.074c.385-.05.676-.162.874-.338v3.677a6.8 6.8 0 0 1-1.54.353 14.27 14.27 0 0 1-1.57.088c-.75 0-1.442-.078-2.073-.235s-1.185-.407-1.66-.75-.844-.8-1.1-1.338-.4-1.216-.4-2v-6.795h-2.843v-3.53h2.843V16.69h4.443v4.237h3.9v3.53zm4.68 3.618c0 1.08.3 1.952.933 2.618s1.495 1 2.62 1 2-.333 2.62-1 .933-1.54.933-2.618-.3-1.95-.933-2.618-1.496-1-2.62-1-2 .334-2.62 1-.933 1.54-.933 2.618m-4.443 0c0-1.137.207-2.167.622-3.1a7.11 7.11 0 0 1 1.703-2.368 7.52 7.52 0 0 1 2.547-1.515 9.13 9.13 0 0 1 3.124-.53c1.104 0 2.148.177 3.125.53s1.826.858 2.547 1.515a7.12 7.12 0 0 1 1.703 2.368c.415.922.622 1.952.622 3.1s-.207 2.167-.622 3.1-.983 1.712-1.703 2.368-1.57 1.162-2.547 1.515-2.02.53-3.125.53a9.12 9.12 0 0 1-3.124-.529c-.977-.353-1.827-.857-2.547-1.515a7.1 7.1 0 0 1-1.703-2.368c-.415-.92-.622-1.95-.622-3.1m17.12-7.15h4.443v2.295h.06c.474-.883 1.037-1.545 1.688-1.986s1.47-.662 2.46-.662l.77.03a3.89 3.89 0 0 1 .711.118v4.03a6.76 6.76 0 0 0-.933-.22 6.1 6.1 0 0 0-.963-.074c-.85 0-1.52.118-2.014.353s-.873.564-1.14.985-.44.927-.518 1.515a14.81 14.81 0 0 0-.12 1.942v5.972h-4.443V20.922z" class="C B"/></g></svg>