<?xml version="1.0" encoding="UTF-8"?>
<svg width="199px" height="205px" viewBox="0 0 199 205" version="1.1" xmlns="http://www.w3.org/2000/svg" xmlns:xlink="http://www.w3.org/1999/xlink">
    <!-- Generator: Sketch 57.1 (83088) - https://sketch.com -->
    <title>SOCIAL MEDIA</title>
    <desc>Created with Sketch.</desc>
    <defs>
        <filter x="-6.3%" y="-6.1%" width="112.6%" height="112.2%" filterUnits="objectBoundingBox" id="filter-1">
            <feOffset dx="0" dy="2" in="SourceAlpha" result="shadowOffsetOuter1"></feOffset>
            <feGaussianBlur stdDeviation="2" in="shadowOffsetOuter1" result="shadowBlurOuter1"></feGaussianBlur>
            <feColorMatrix values="0 0 0 0 0   0 0 0 0 0   0 0 0 0 0  0 0 0 0.5 0" type="matrix" in="shadowBlurOuter1" result="shadowMatrixOuter1"></feColorMatrix>
            <feMerge>
                <feMergeNode in="shadowMatrixOuter1"></feMergeNode>
                <feMergeNode in="SourceGraphic"></feMergeNode>
            </feMerge>
        </filter>
    </defs>
    <g id="Thank-You-Page" stroke="none" stroke-width="1" fill="none" fill-rule="evenodd">
        <g id="thank-you" transform="translate(-620.000000, -173.000000)" fill-rule="nonzero">
            <g id="SOCIAL-MEDIA" filter="url(#filter-1)" transform="translate(624.000000, 175.000000)">
                <path d="M56.186496,189.308544 L1.894656,189.308544 C1.045632,189.308544 0.35712,188.620416 0.35712,187.771008 L0.35712,92.828544 C0.35712,92.420736 0.519168,92.029824 0.807552,91.74144 C1.095936,91.453056 1.487232,91.291008 1.894656,91.291008 L56.186496,91.291008 C57.03552,91.291008 57.724032,91.97952 57.724032,92.828928 L57.724032,187.771008 C57.724032,188.620416 57.03552,189.308544 56.186496,189.308544 Z M3.432192,186.233472 L54.64896,186.233472 L54.64896,94.36608 L3.432192,94.36608 L3.432192,186.233472 Z" id="Shape" fill="#4A555F"></path>
                <rect id="Rectangle" fill="#FFD452" x="7.019904" y="97.953792" width="44.041728" height="84.691968"></rect>
                <path d="M22.400256,125.307264 C16.760448,125.307264 12.172032,120.726528 12.172032,115.09632 C12.172032,109.466112 16.760832,104.885376 22.400256,104.885376 C28.03968,104.885376 32.62848,109.466112 32.62848,115.09632 C32.62848,120.726528 28.040064,125.307264 22.400256,125.307264 Z M22.400256,107.960832 C18.456192,107.960832 15.247104,111.16224 15.247104,115.096704 C15.247104,119.031168 18.456192,122.232576 22.400256,122.232576 C26.34432,122.232576 29.553408,119.031168 29.553408,115.096704 C29.553408,111.16224 26.34432,107.960832 22.400256,107.960832 Z" id="Shape" fill="#4A555F"></path>
                <path d="M151.81056,187.445376 L86.08512,187.445376 C76.022016,187.445376 66.241152,183.875328 58.544256,177.392256 L55.196928,174.573312 C54.849408,174.281088 54.649344,173.850624 54.649344,173.39712 L54.649344,106.423296 C54.649344,106.0608 54.7776,105.710592 55.010688,105.433344 L60.306048,99.139968 C77.53152,78.66816 87.01824,52.659456 87.01824,25.904256 L87.01824,21.79968 C87.01824,17.775744 89.329536,14.322048 93.049344,12.787584 C96.768,11.252352 100.843392,12.072192 103.681152,14.926848 C112.001664,23.297664 117.388032,34.356096 118.849536,46.065024 C119.294976,49.635456 119.16672,53.356032 118.468992,57.122688 L116.03136,70.268544 C115.638912,72.386304 116.203392,74.550528 117.5808,76.205952 C118.958208,77.862144 120.983424,78.81216 123.13728,78.81216 L175.917696,78.81216 C184.164864,78.81216 190.87488,85.521792 190.87488,93.769728 C190.87488,101.443968 185.066112,107.786496 177.61536,108.632448 C181.479168,111.456 183.993984,116.020992 183.993984,121.161984 C183.993984,128.671104 178.630656,134.950272 171.532416,136.370304 C174.918912,138.909312 177.113088,142.954368 177.113088,147.503232 C177.113088,155.171328 170.874624,161.409792 163.206912,161.409792 L159.781248,161.409792 C163.425792,164.176512 165.783168,168.554496 165.783168,173.472384 C165.783552,181.17696 159.515136,187.445376 151.81056,187.445376 Z M57.724032,172.681728 L60.523776,175.039488 C67.668096,181.056768 76.745088,184.36992 86.084736,184.36992 L151.810176,184.36992 C157.819392,184.36992 162.708096,179.480832 162.708096,173.472 C162.708096,166.820736 157.296768,161.409408 150.644736,161.409408 L144.2784,161.409408 C143.429376,161.409408 142.740864,160.72128 142.740864,159.871872 C142.740864,159.022464 143.429376,158.334336 144.2784,158.334336 L163.206528,158.334336 C169.178496,158.334336 174.037632,153.475584 174.037632,147.502848 C174.037632,141.530112 169.17888,136.670976 163.206528,136.670976 L153.078144,136.670976 C152.22912,136.670976 151.540608,135.982848 151.540608,135.13344 C151.540608,134.284032 152.22912,133.595904 153.078144,133.595904 L168.48384,133.595904 C175.340928,133.595904 180.918528,128.01792 180.918528,121.161984 C180.918528,114.306048 175.340928,108.728064 168.48384,108.728064 L160.491648,108.728064 C159.642624,108.728064 158.954112,108.039936 158.954112,107.190528 C158.954112,106.34112 159.642624,105.652992 160.491648,105.652992 L175.917312,105.652992 C182.46912,105.652992 187.799424,100.32192 187.799424,93.770112 C187.799424,87.218304 182.46912,81.887616 175.917312,81.887616 L123.13728,81.887616 C120.066048,81.887616 117.179136,80.533632 115.216128,78.1728 C113.25312,75.812352 112.448256,72.726912 113.007744,69.708288 L115.445376,56.562432 C116.08512,53.106816 116.20416,49.70304 115.797888,46.445568 C114.42048,35.409024 109.342464,24.985344 101.500416,17.095296 C99.177984,14.759808 96.218112,14.807424 94.220928,15.63072 C92.226048,16.454016 90.092928,18.507264 90.092928,21.800064 L90.092928,25.90464 C90.092928,53.382912 80.35008,80.095104 62.658048,101.120256 L57.724032,106.98432 L57.724032,172.681728 L57.724032,172.681728 Z" id="Shape" fill="#4A555F"></path>
                <path d="M61.45728,170.945664 L61.45728,170.945664 L61.45728,108.3456 L65.511552,103.527552 C83.7984,81.796224 93.825792,54.306048 93.825792,25.904256 L93.825792,22.66944 C93.825792,19.945728 95.193984,18.47616 96.481536,18.47616 C97.208448,18.47616 98.050176,18.920448 98.852352,19.726464 C105.939072,26.855808 110.452992,35.870592 111.925248,45.632256 C112.495488,49.41312 112.347264,53.26848 111.644928,57.027072 L109.179648,70.220928 C107.684352,78.225024 113.825664,85.619712 121.968,85.619712 L175.628544,85.619712 C179.965056,85.619712 183.757824,88.884096 184.048128,93.211008 C184.366464,97.956096 180.5952,101.918976 175.917312,101.918976 L165.7632,101.918976 C162.85248,101.918976 160.4928,104.278656 160.4928,107.189376 L160.4928,107.189376 C160.4928,110.100096 162.85248,112.459776 165.7632,112.459776 L168.176256,112.459776 C172.806144,112.459776 176.855808,115.945344 177.165696,120.564864 C177.505536,125.630976 173.47968,129.862656 168.485376,129.862656 L158.349696,129.862656 C155.438976,129.862656 153.079296,132.222336 153.079296,135.13344 L153.079296,135.13344 C153.079296,138.04416 155.438976,140.40384 158.349696,140.40384 L162.95808,140.40384 C166.56576,140.40384 169.785216,142.989696 170.245248,146.567808 C170.801664,150.896256 167.42784,154.601088 163.206528,154.601088 L149.549184,154.601088 C146.638464,154.601088 144.278784,156.960768 144.278784,159.871872 L144.278784,159.871872 C144.278784,162.782592 146.638464,165.142272 149.549184,165.142272 L151.821312,165.142272 C155.431296,165.142272 158.975616,168.109056 158.975616,171.13152 L158.975616,173.472 C158.975616,177.42912 155.76768,180.637056 151.81056,180.637056 L88.008192,180.637056 C78.292224,180.637056 68.888832,177.20448 61.45728,170.945664 Z" id="Path" fill="#DFDFDF"></path>
                <path d="M77.96544,43.680768 L74.973312,42.970368 C74.976384,42.96 75.230592,41.881344 75.542016,40.04544 L78.572928,40.56 C78.24384,42.50496 77.977728,43.633536 77.96544,43.680768 Z M79.04064,37.460736 L75.99168,37.059456 C76.11264,36.14016 76.230912,35.133696 76.336896,34.052736 L79.398144,34.354176 C79.287936,35.470848 79.165824,36.511488 79.04064,37.460736 Z M79.648512,31.235712 L76.579584,31.039488 C76.641792,30.071424 76.689792,29.06304 76.719744,28.020864 L79.792896,28.108032 C79.76256,29.18784 79.712256,30.232704 79.648512,31.235712 Z M121.676928,26.061696 C121.218432,25.143168 120.751104,24.25536 120.27648,23.39904 L122.967168,21.909504 C123.46176,22.80384 123.949056,23.729664 124.42752,24.688896 L121.676928,26.061696 Z M76.749312,25.001088 C76.741248,24.01728 76.715136,23.011584 76.666368,21.988608 L79.7376,21.841536 C79.788672,22.9056 79.816704,23.952 79.824768,24.97728 L76.749312,25.001088 Z M118.761984,20.804352 C118.23744,19.950336 117.687936,19.106304 117.129216,18.294144 L119.661696,16.5504 C120.250368,17.405952 120.829824,18.295296 121.3824,19.194624 L118.761984,20.804352 Z M79.692288,18.934656 L76.62336,18.75264 C76.689408,17.634816 76.849536,16.52544 77.098752,15.455616 L80.093952,16.153344 C79.88352,17.054208 79.748352,17.990016 79.692288,18.934656 Z M115.369344,15.881856 C114.75072,15.08352 114.112128,14.308608 113.473536,13.58016 L115.785984,11.553024 C116.465664,12.327936 117.142272,13.15008 117.800064,13.997184 L115.369344,15.881856 Z M80.96064,13.487616 L78.129792,12.284544 C78.5664,11.259648 79.093632,10.267392 79.698432,9.336192 L82.276992,11.010816 C81.769344,11.792256 81.326976,12.625536 80.96064,13.487616 Z M111.441408,11.41248 C110.734848,10.70784 110.004096,10.03008 109.26912,9.397248 L111.277056,7.067904 C112.066944,7.748736 112.852608,8.477184 113.611392,9.234048 L111.441408,11.41248 Z M84.000768,8.792448 L81.742464,6.705408 C82.492032,5.893632 83.319168,5.13792 84.200832,4.459008 L86.076672,6.895488 C85.332096,7.469184 84.634368,8.107008 84.000768,8.792448 Z M106.962048,7.555968 C106.163328,6.970752 105.340416,6.41664 104.515584,5.909376 L106.125312,3.289728 C107.022336,3.840768 107.915136,4.441728 108.779904,5.07648 L106.962048,7.555968 Z M88.442112,5.371776 L87.000576,2.656128 C87.981696,2.13504 89.011584,1.694976 90.063744,1.348224 L91.026816,4.26816 C90.139776,4.561152 89.271168,4.93248 88.442112,5.371776 Z M102.00192,4.632576 C101.132928,4.278528 100.232064,4.000896 99.325056,3.806592 L99.969792,0.799488 C101.051904,1.031808 102.1248,1.362432 103.160832,1.783296 L102.00192,4.632576 Z M93.75552,3.62496 L93.313152,0.58176 C94.418304,0.42048 95.540352,0.357504 96.649344,0.3936 L96.54912,3.466752 C95.618688,3.434496 94.682496,3.49056 93.75552,3.62496 Z" id="Shape" fill="#4A555F"></path>
                <path d="M121.979136,196.992 L118.89408,196.992 L118.89408,193.916928 L121.979136,193.916928 L121.979136,196.992 Z M115.812096,196.992 L112.73088,196.992 L112.73088,193.916928 L115.812096,193.916928 L115.812096,196.992 Z M109.649664,196.992 L106.5696,196.992 L106.5696,193.916928 L109.649664,193.916928 L109.649664,196.992 Z M103.489536,196.992 L100.409472,196.992 L100.409472,193.916928 L103.489536,193.916928 L103.489536,196.992 Z M97.329408,196.992 L94.249344,196.992 L94.249344,193.916928 L97.329408,193.916928 L97.329408,196.992 Z M91.168896,196.992 L88.088832,196.992 L88.088832,193.916928 L91.168896,193.916928 L91.168896,196.992 L91.168896,196.992 Z M85.007616,196.992 L84.796416,196.992 C83.820288,196.992 82.819584,196.954368 81.821568,196.881024 L82.047744,193.814016 C82.971648,193.882752 83.896704,193.916928 84.796416,193.916928 L85.007616,193.916928 L85.007616,196.992 Z M78.651264,196.52544 C77.618304,196.37184 76.564992,196.176 75.522048,195.944832 L76.186752,192.94272 C77.160576,193.158528 78.142848,193.340544 79.105536,193.48416 L78.651264,196.52544 Z M72.443136,195.155712 C71.431296,194.860032 70.416,194.528256 69.426048,194.168832 L70.475136,191.27808 C71.404032,191.615232 72.355968,191.926656 73.305984,192.203904 L72.443136,195.155712 Z M66.473856,192.986112 C64.654848,192.184704 63.600768,191.576064 63.556992,191.55072 L65.09952,188.890368 C65.108352,188.895744 66.065664,189.446016 67.713024,190.17216 L66.473856,192.986112 Z" id="Shape" fill="#4A555F"></path>
            </g>
        </g>
    </g>
</svg>