<?xml version="1.0" encoding="UTF-8"?>
<svg width="512px" height="494px" viewBox="0 0 512 494" version="1.1" xmlns="http://www.w3.org/2000/svg" xmlns:xlink="http://www.w3.org/1999/xlink">
    <!-- Generator: Sketch 58 (84663) - https://sketch.com -->
    <title>Untitled</title>
    <desc>Created with Sketch.</desc>
    <g id="Page-1" stroke="none" stroke-width="1" fill="none" fill-rule="evenodd">
        <g id="use-us-for-free" fill-rule="nonzero">
            <path d="M163.264,220.37 L163.264,224.749 C163.264,244.313 179.18,260.229 198.744,260.229 L476.52,260.229 C496.084,260.229 512,244.312 512,224.749 L512,220.37 L163.264,220.37 Z M476.52,253.814 L198.745,253.814 C183.403,253.814 170.799,241.865 169.751,226.785 L505.514,226.785 C504.465,241.865 491.861,253.814 476.52,253.814 Z" id="Shape" fill="#4A555F"></path>
            <path d="M179.38,234.27 C182.904,241.408 190.26,246.33 198.745,246.33 L476.52,246.33 C485.005,246.33 492.361,241.408 495.885,234.27 L179.38,234.27 Z" id="Path" fill="#DFDFDF"></path>
            <path d="M301.071,220.37 L301.071,224.138 C301.071,234.422 309.438,242.789 319.723,242.789 L345.707,242.789 C355.991,242.789 364.358,234.422 364.358,224.138 L364.358,220.37 L301.071,220.37 Z M345.707,236.374 L319.723,236.374 C313.884,236.374 308.988,232.264 307.775,226.785 L357.654,226.785 C356.441,232.264 351.544,236.374 345.707,236.374 Z" id="Shape" fill="#4A555F"></path>
            <path d="M121.957,0.551 L23.003,0.551 C10.319,0.551 0,10.871 0,23.555 L0,235.376 C0,248.06 10.319,258.379 23.003,258.379 L121.957,258.379 C134.64,258.379 144.96,248.06 144.96,235.376 L144.96,23.555 C144.96,10.871 134.64,0.551 121.957,0.551 Z M138.544,235.375 C138.544,244.521 131.103,251.962 121.957,251.962 L23.003,251.962 C13.856,251.962 6.416,244.521 6.416,235.375 L6.416,23.555 C6.416,14.408 13.857,6.967 23.003,6.967 L121.957,6.967 C131.104,6.967 138.544,14.408 138.544,23.555 L138.544,235.375 L138.544,235.375 Z" id="Shape" fill="#4A555F"></path>
            <path d="M121.951,15.484 L23.001,15.484 C18.55,15.484 14.919,19.091 14.919,23.565 L14.919,235.382 C14.919,239.833 18.55,243.463 23.001,243.463 L121.951,243.463 C126.402,243.463 130.033,239.833 130.033,235.382 L130.033,23.565 C130.033,19.091 126.402,15.484 121.951,15.484 Z M70.18,242.596 C63.316,242.596 57.741,237.021 57.741,230.157 C57.741,223.294 63.316,217.719 70.18,217.719 C77.044,217.719 82.595,223.294 82.595,230.157 C82.596,237.021 77.044,242.596 70.18,242.596 Z M126.847,207.481 L19.276,207.481 L19.276,34.786 L126.847,34.786 L126.847,207.481 Z" id="Shape" fill="#DFDFDF"></path>
            <path d="M70.176,214.522 C61.553,214.522 54.539,221.537 54.539,230.159 C54.539,238.782 61.554,245.796 70.176,245.796 C78.799,245.796 85.813,238.781 85.813,230.159 C85.813,221.536 78.799,214.522 70.176,214.522 Z M70.176,239.381 C65.091,239.381 60.954,235.244 60.954,230.159 C60.954,225.074 65.091,220.937 70.176,220.937 C75.261,220.937 79.398,225.074 79.398,230.159 C79.398,235.244 75.261,239.381 70.176,239.381 Z" id="Shape" fill="#4A555F"></path>
            <rect id="Rectangle" fill="#EC8D53" x="36.939" y="64.793" width="69.912" height="67.019"></rect>
            <rect id="Rectangle" fill="#71CCE0" x="34.104" y="150.588" width="76.323" height="56.903"></rect>
            <path d="M16.076,31.569 L16.076,210.699 L130.053,210.699 L130.053,31.569 L16.076,31.569 Z M123.638,204.283 L22.491,204.283 L22.491,37.984 L123.638,37.984 L123.638,204.283 Z" id="Shape" fill="#4A555F"></path>
            <rect id="Rectangle" fill="#4A555F" x="43.101" y="160.472" width="58.518" height="6.415"></rect>
            <rect id="Rectangle" fill="#4A555F" x="43.101" y="174.739" width="36.997" height="6.415"></rect>
            <rect id="Rectangle" fill="#4A555F" x="47.964" y="75.965" width="48.604" height="6.415"></rect>
            <rect id="Rectangle" fill="#4A555F" x="47.964" y="89.992" width="30.497" height="6.415"></rect>
            <rect id="Rectangle" fill="#3F2E61" x="238.982" y="89.264" width="79.738" height="62.65"></rect>
            <rect id="Rectangle" fill="#FFFFFF" x="250.007" y="100.435" width="57.632" height="6.415"></rect>
            <rect id="Rectangle" fill="#FFFFFF" x="250.007" y="114.462" width="30.497" height="6.415"></rect>
            <rect id="Rectangle" fill="#EC8D53" x="338.122" y="89.264" width="77.132" height="62.65"></rect>
            <rect id="Rectangle" fill="#FFFFFF" x="349.497" y="100.435" width="54.497" height="6.415"></rect>
            <rect id="Rectangle" fill="#FFFFFF" x="349.497" y="114.462" width="30.497" height="6.415"></rect>
            <path d="M16.068,31.579 L16.068,54.919 L130.053,54.919 L130.053,31.579 L16.068,31.579 L16.068,31.579 Z M123.638,48.503 L22.484,48.503 L22.484,37.994 L123.638,37.994 L123.638,48.503 Z" id="Shape" fill="#4A555F"></path>
            <path d="M116.493,439.876 L97.855,432.544 L105.843,414.189 L100.343,408.69 L99.361,407.729 L99.164,407.533 L80.832,415.521 L73.5,396.883 L65.687,396.883 L58.376,415.521 L40.022,407.533 L34.915,412.639 L34.5,413.033 L42.488,431.387 L23.872,438.72 L23.872,446.51 L42.488,453.843 L34.5,472.197 L36.159,473.834 L41.178,478.853 L59.532,470.865 L66.865,489.503 L74.656,489.503 L81.989,470.865 L100.343,478.853 L105.45,473.746 L105.843,473.353 L97.856,455 L116.494,447.668 L116.494,439.876 L116.493,439.876 Z M70.117,459.473 C64.705,459.473 59.925,456.79 57.023,452.665 C55.19,450.089 54.12,446.903 54.12,443.498 C54.12,434.681 61.278,427.524 70.117,427.524 C73.434,427.524 76.511,428.528 79.065,430.273 C83.299,433.132 86.092,437.999 86.092,443.498 C86.093,452.316 78.934,459.473 70.117,459.473 Z" id="Shape" fill="#71CCE0"></path>
            <path d="M119.701,437.691 L102.123,430.776 L109.657,413.466 L99.888,403.72 L82.601,411.252 L75.686,393.675 L63.5,393.675 L56.605,411.252 L39.3,403.721 L32.707,410.314 L30.664,412.254 L38.222,429.621 L20.666,436.537 L20.666,448.695 L38.222,455.611 L30.683,472.936 L40.457,482.668 L57.766,475.135 L64.68,492.713 L76.842,492.713 L83.757,475.135 L101.067,482.669 L109.656,474.079 L102.122,456.77 L119.7,449.855 L119.7,437.691 L119.701,437.691 Z M113.286,445.484 L93.588,453.233 L102.03,472.632 L99.62,475.041 L80.222,466.599 L72.471,486.297 L69.05,486.297 L61.3,466.599 L41.901,475.042 L38.319,471.461 L46.756,452.077 L27.08,444.327 L27.08,440.904 L46.756,433.154 L38.32,413.771 L40.744,411.346 L60.146,419.79 L67.874,400.091 L71.313,400.091 L79.064,419.79 L98.457,411.34 L102.029,414.912 L93.587,434.312 L113.285,442.061 L113.285,445.484 L113.286,445.484 Z" id="Shape" fill="#4A555F"></path>
            <path d="M80.876,427.626 C77.71,425.462 73.99,424.317 70.118,424.317 C59.528,424.317 50.913,432.922 50.913,443.499 C50.913,447.499 52.122,451.311 54.4,454.512 C58,459.627 63.876,462.681 70.118,462.681 C80.695,462.681 89.3,454.076 89.3,443.499 C89.3,437.121 86.144,431.184 80.876,427.626 Z M70.118,456.266 C65.961,456.266 62.047,454.23 59.637,450.806 C58.126,448.684 57.328,446.158 57.328,443.5 C57.328,436.46 63.066,430.733 70.118,430.733 C72.693,430.733 75.16,431.49 77.27,432.933 C80.786,435.307 82.884,439.257 82.884,443.5 C82.885,450.539 77.157,456.266 70.118,456.266 Z" id="Shape" fill="#4A555F"></path>
            <path d="M66.969,343.533 L73.384,343.533 L73.384,337.118 L66.969,337.118 L66.969,343.533 Z M66.969,356.364 L73.384,356.364 L73.384,349.949 L66.969,349.949 L66.969,356.364 Z M66.969,369.194 L73.384,369.194 L73.384,362.779 L66.969,362.779 L66.969,369.194 Z M66.969,382.025 L73.384,382.025 L73.384,375.61 L66.969,375.61 L66.969,382.025 Z M66.969,292.211 L73.384,292.211 L73.384,285.796 L66.969,285.796 L66.969,292.211 Z M66.969,330.703 L73.384,330.703 L73.384,324.288 L66.969,324.288 L66.969,330.703 Z M66.969,305.042 L73.384,305.042 L73.384,298.627 L66.969,298.627 L66.969,305.042 Z M66.969,272.965 L66.969,279.38 L73.384,279.38 L73.384,272.965 L66.969,272.965 Z M66.969,317.872 L73.384,317.872 L73.384,311.457 L66.969,311.457 L66.969,317.872 Z" id="Shape" fill="#4A555F"></path>
            <path d="M395.409,330.703 L401.824,330.703 L401.824,324.288 L395.409,324.288 L395.409,330.703 Z M395.409,356.364 L401.824,356.364 L401.824,349.949 L395.409,349.949 L395.409,356.364 Z M395.409,343.533 L401.824,343.533 L401.824,337.118 L395.409,337.118 L395.409,343.533 Z M395.409,369.194 L401.824,369.194 L401.824,362.779 L395.409,362.779 L395.409,369.194 Z M395.409,382.025 L401.824,382.025 L401.824,375.61 L395.409,375.61 L395.409,382.025 Z M395.409,272.965 L395.409,279.38 L401.824,279.38 L401.824,272.965 L395.409,272.965 Z M395.409,292.211 L401.824,292.211 L401.824,285.796 L395.409,285.796 L395.409,292.211 Z M395.409,317.872 L401.824,317.872 L401.824,311.457 L395.409,311.457 L395.409,317.872 Z M395.409,305.042 L401.824,305.042 L401.824,298.627 L395.409,298.627 L395.409,305.042 Z" id="Shape" fill="#4A555F"></path>
            <path d="M189.595,312.164 L192.679,317.789 C194.481,316.8 196.342,315.862 198.209,315 L195.519,309.176 C193.519,310.1 191.525,311.105 189.595,312.164 Z M178.431,319.326 L182.259,324.475 C183.909,323.249 185.623,322.064 187.353,320.953 L183.888,315.554 C182.035,316.743 180.198,318.012 178.431,319.326 Z M227.43,300.699 L227.988,307.09 C230.035,306.911 232.116,306.8 234.175,306.761 L234.052,300.347 C231.848,300.389 229.62,300.507 227.43,300.699 Z M214.332,302.757 L215.762,309.01 C217.763,308.552 219.808,308.158 221.842,307.839 L220.846,301.501 C218.667,301.844 216.475,302.266 214.332,302.757 Z M201.637,306.602 L203.917,312.599 C205.841,311.867 207.814,311.195 209.779,310.599 L207.92,304.459 C205.813,305.097 203.699,305.818 201.637,306.602 Z M146.379,360.787 L152.329,363.186 C153.097,361.28 153.943,359.376 154.84,357.529 L149.07,354.725 C148.109,356.706 147.203,358.745 146.379,360.787 Z M152.174,348.865 L157.737,352.059 C158.762,350.274 159.86,348.504 161.002,346.799 L155.671,343.23 C154.449,345.058 153.272,346.953 152.174,348.865 Z M159.545,337.85 L164.622,341.773 C165.877,340.149 167.207,338.546 168.575,337.007 L163.78,332.744 C162.315,334.393 160.891,336.11 159.545,337.85 Z M168.355,327.941 L172.847,332.521 C174.314,331.083 175.851,329.675 177.415,328.337 L173.245,323.462 C171.571,324.894 169.925,326.401 168.355,327.941 Z M143.44,369.172 L142.639,373.726 L148.962,374.806 L149.643,370.823 C149.826,370.214 150.016,369.607 150.212,369.004 L144.112,367.018 C143.88,367.731 143.655,368.45 143.44,369.172 Z M317.748,345.602 L312.314,349.012 C313.41,350.759 314.458,352.562 315.426,354.369 L321.081,351.34 C320.044,349.404 318.923,347.473 317.748,345.602 Z M309.944,334.88 L305.028,339.001 C306.352,340.581 307.636,342.224 308.842,343.882 L314.029,340.107 C312.738,338.332 311.363,336.573 309.944,334.88 Z M300.753,325.326 L296.445,330.079 C297.968,331.461 299.465,332.913 300.889,334.394 L305.512,329.946 C303.987,328.36 302.385,326.806 300.753,325.326 Z M324.013,357.296 L318.162,359.927 C319.009,361.809 319.798,363.738 320.508,365.661 L326.526,363.439 C325.765,361.379 324.92,359.311 324.013,357.296 Z M328.609,369.743 L322.453,371.546 C323.028,373.509 323.543,375.527 323.985,377.543 L330.252,376.171 C329.778,374.011 329.226,371.848 328.609,369.743 Z M286.727,322.41 C288.421,323.568 290.1,324.802 291.717,326.079 L295.691,321.042 C293.959,319.676 292.162,318.355 290.348,317.114 L286.727,322.41 Z M264.636,311.408 C266.584,312.063 268.534,312.793 270.43,313.579 L272.886,307.652 C270.855,306.81 268.767,306.027 266.681,305.326 L264.636,311.408 Z M252.662,308.292 C254.683,308.671 256.715,309.125 258.703,309.643 L260.319,303.435 C258.189,302.881 256.01,302.393 253.843,301.987 L252.662,308.292 Z M276.06,316.145 C277.898,317.06 279.728,318.052 281.501,319.094 L284.75,313.562 C282.851,312.446 280.889,311.383 278.921,310.402 L276.06,316.145 Z M240.371,306.851 C242.425,306.95 244.502,307.121 246.543,307.361 L247.289,300.99 C245.104,300.734 242.88,300.55 240.681,300.444 L240.371,306.851 Z" id="Shape" fill="#4A555F"></path>
            <path d="M186.461,479.828 C188.35,480.957 190.302,482.036 192.265,483.034 L195.172,477.315 C193.339,476.384 191.516,475.377 189.754,474.322 L186.461,479.828 Z M223.821,492.702 C226.003,492.976 228.225,493.177 230.426,493.3 L230.785,486.895 C228.73,486.78 226.655,486.592 224.618,486.336 L223.821,492.702 Z M175.579,472.262 C177.304,473.645 179.092,474.981 180.892,476.232 L184.553,470.964 C182.873,469.796 181.204,468.549 179.593,467.257 L175.579,472.262 Z M210.811,490.151 C212.935,490.722 215.109,491.227 217.273,491.651 L218.507,485.356 C216.487,484.96 214.458,484.489 212.475,483.956 L210.811,490.151 Z M198.278,485.831 C200.307,486.692 202.389,487.491 204.467,488.207 L206.557,482.142 C204.618,481.474 202.676,480.728 200.782,479.925 L198.278,485.831 Z M170.488,458.871 L165.829,463.282 C167.34,464.877 168.928,466.444 170.551,467.939 L174.899,463.22 C173.381,461.823 171.897,460.36 170.488,458.871 Z M147.735,415.54 L141.458,416.859 C141.911,419.019 142.447,421.187 143.047,423.301 L149.218,421.548 C148.657,419.576 148.159,417.555 147.735,415.54 Z M151.115,427.448 L145.08,429.623 C145.828,431.698 146.657,433.771 147.543,435.786 L153.415,433.202 C152.587,431.321 151.813,429.385 151.115,427.448 Z M156.107,438.781 L150.429,441.765 C151.45,443.709 152.556,445.648 153.716,447.529 L159.177,444.163 C158.094,442.405 157.061,440.595 156.107,438.781 Z M162.608,449.319 L157.391,453.053 C158.672,454.844 160.034,456.614 161.436,458.313 L166.383,454.229 C165.075,452.643 163.804,450.991 162.608,449.319 Z M261.406,483.392 L263.214,489.547 C265.327,488.926 267.447,488.222 269.514,487.455 L267.284,481.441 C265.355,482.157 263.376,482.813 261.406,483.392 Z M310.48,447.593 L315.782,451.205 C317.026,449.379 318.218,447.493 319.326,445.598 L313.788,442.36 C312.754,444.128 311.641,445.888 310.48,447.593 Z M302.826,457.322 L307.585,461.623 C309.064,459.987 310.502,458.281 311.861,456.554 L306.82,452.587 C305.551,454.201 304.207,455.793 302.826,457.322 Z M316.729,436.913 L322.476,439.764 C323.459,437.783 324.381,435.751 325.217,433.725 L319.286,431.277 C318.506,433.168 317.646,435.064 316.729,436.913 Z M323.038,419.58 L322.283,422.852 C322.018,423.734 321.74,424.61 321.45,425.48 L327.535,427.512 C327.846,426.581 328.143,425.643 328.479,424.503 L329.286,421.034 L323.038,419.58 Z M236.981,487.033 L237.054,493.448 C239.26,493.422 241.489,493.322 243.676,493.149 L243.171,486.754 C241.126,486.916 239.044,487.01 236.981,487.033 Z M249.322,486.054 L250.266,492.399 C252.447,492.074 254.642,491.67 256.79,491.197 L255.412,484.932 C253.407,485.374 251.358,485.751 249.322,486.054 Z M293.917,465.92 L298.046,470.83 C299.732,469.412 301.39,467.918 302.974,466.389 L298.518,461.774 C297.04,463.201 295.491,464.596 293.917,465.92 Z M273.015,479.086 L275.657,484.932 C277.667,484.024 279.669,483.034 281.608,481.992 L278.567,476.342 C276.758,477.315 274.89,478.239 273.015,479.086 Z M283.917,473.222 L287.338,478.649 C289.203,477.474 291.049,476.219 292.826,474.921 L289.04,469.741 C287.381,470.955 285.658,472.125 283.917,473.222 Z" id="Shape" fill="#4A555F"></path>
            <polygon id="Path" fill="#4A555F" points="337.928 371.448 329.177 386.024 315.455 375.959 311.661 381.131 331.054 395.359 343.428 374.75"></polygon>
            <polygon id="Path" fill="#4A555F" points="140.94 398.193 128.033 418.627 133.456 422.053 142.563 407.637 156.01 418.225 159.979 413.185"></polygon>
            <path d="M216.89,41.939 L216.89,68.323 L459.354,68.323 L459.354,41.939 L216.89,41.939 Z M452.939,61.908 L223.305,61.908 L223.305,48.355 L452.939,48.355 L452.939,61.908 L452.939,61.908 Z" id="Shape" fill="#4A555F"></path>
            <rect id="Rectangle" fill="#C5C8CA" x="238.982" y="170.294" width="176.271" height="31.821"></rect>
            <path d="M461.308,18.768 L213.951,18.768 C202.745,18.768 193.629,27.885 193.629,39.091 L193.629,206.456 C193.629,217.662 202.745,226.779 213.951,226.779 L461.308,226.779 C472.514,226.779 481.63,217.662 481.63,206.456 L481.63,39.09 C481.63,27.885 472.513,18.768 461.308,18.768 Z M475.215,206.456 C475.215,214.125 468.976,220.364 461.308,220.364 L213.951,220.364 C206.283,220.364 200.044,214.125 200.044,206.456 L200.044,39.09 C200.044,31.421 206.283,25.182 213.951,25.182 L461.308,25.182 C468.976,25.182 475.215,31.421 475.215,39.09 L475.215,206.456 Z" id="Shape" fill="#4A555F"></path>
            <path d="M215.954,42.188 L215.954,205.057 L459.318,205.057 L459.318,42.188 L215.954,42.188 Z M452.904,198.642 L222.37,198.642 L222.37,48.603 L452.904,48.603 L452.904,198.642 L452.904,198.642 Z" id="Shape" fill="#4A555F"></path>
            <path d="M432.693,61.908 L432.693,205.057 L459.319,205.057 L459.319,61.908 L432.693,61.908 Z M452.903,198.642 L439.108,198.642 L439.108,68.323 L452.903,68.323 L452.903,198.642 Z" id="Shape" fill="#4A555F"></path>
            <rect id="Rectangle" fill="#4A555F" x="442.798" y="79.172" width="6.415" height="32.443"></rect>
            <path d="M304.988,391.515 L277.271,380.581 L289.143,353.28 L280.937,345.052 L279.213,343.328 L251.89,355.222 L240.978,327.506 L229.368,327.506 L218.456,355.222 L191.132,343.328 L183.537,350.944 L182.926,351.533 L194.82,378.857 L167.082,389.768 L167.082,401.379 L194.82,412.291 L182.926,439.614 L185.37,442.057 L192.856,449.544 L220.18,437.649 L231.092,465.387 L242.702,465.387 L253.636,437.649 L280.938,449.544 L288.555,441.949 L289.144,441.338 L277.272,414.013 L304.988,403.124 L304.988,391.515 L304.988,391.515 Z M235.936,420.694 C227.861,420.694 220.746,416.678 216.426,410.524 C213.741,406.661 212.148,401.946 212.148,396.883 C212.148,383.746 222.798,373.094 235.936,373.094 C240.89,373.094 245.473,374.601 249.292,377.176 C255.577,381.476 259.724,388.699 259.724,396.883 C259.724,410.042 249.074,420.694 235.936,420.694 Z" id="Shape" fill="#EC8D53"></path>
            <path d="M308.194,389.332 L281.535,378.815 L292.954,352.558 L279.937,339.514 L253.656,350.954 L243.162,324.298 L227.183,324.298 L216.688,350.954 L190.406,339.513 L181.31,348.634 L179.095,350.769 L190.551,377.088 L163.872,387.583 L163.872,403.564 L190.551,414.059 L179.111,440.338 L192.131,453.358 L218.41,441.918 L228.905,468.595 L244.884,468.595 L255.4,441.918 L281.656,453.357 L290.86,444.178 L292.938,442.026 L281.536,415.784 L308.194,405.311 L308.194,389.332 L308.194,389.332 Z M301.779,400.939 L273.003,412.245 L285.335,440.628 L280.217,445.733 L251.868,433.382 L240.517,462.18 L233.276,462.18 L221.946,433.382 L193.579,445.732 L186.739,438.892 L199.087,410.525 L170.288,399.195 L170.288,391.954 L199.087,380.626 L186.745,352.27 L191.857,347.143 L220.221,359.49 L231.551,330.714 L238.792,330.714 L250.121,359.49 L278.488,347.142 L285.33,354.002 L273.003,382.348 L301.779,393.699 L301.779,400.939 L301.779,400.939 Z" id="Shape" fill="#4A555F"></path>
            <path d="M251.085,374.516 C246.593,371.487 241.355,369.886 235.937,369.886 C221.052,369.886 208.94,381.997 208.94,396.882 C208.94,402.436 210.618,407.786 213.801,412.366 C218.871,419.589 227.146,423.901 235.937,423.901 C250.822,423.901 262.932,411.781 262.932,396.883 C262.932,387.952 258.51,379.595 251.085,374.516 Z M235.936,417.486 C229.234,417.486 222.922,414.194 219.059,408.693 C216.636,405.206 215.354,401.121 215.354,396.883 C215.354,385.535 224.586,376.302 235.935,376.302 C240.07,376.302 244.069,377.524 247.48,379.823 C253.137,383.693 256.515,390.071 256.515,396.883 C256.516,408.244 247.284,417.486 235.936,417.486 Z" id="Shape" fill="#4A555F"></path>
            <path d="M444.927,439.876 L426.289,432.544 L434.276,414.189 L428.776,408.69 L427.794,407.729 L427.597,407.533 L409.265,415.521 L401.932,396.883 L394.119,396.883 L386.808,415.521 L368.454,407.533 L363.347,412.639 L362.932,413.033 L370.92,431.387 L352.304,438.72 L352.304,446.51 L370.92,453.843 L362.932,472.197 L364.591,473.834 L369.611,478.853 L387.965,470.865 L395.298,489.503 L403.089,489.503 L410.422,470.865 L428.776,478.853 L433.883,473.746 L434.276,473.353 L426.289,455 L444.927,447.668 L444.927,439.876 L444.927,439.876 Z M398.551,459.473 C393.139,459.473 388.359,456.79 385.457,452.665 C383.624,450.089 382.554,446.903 382.554,443.498 C382.554,434.681 389.712,427.524 398.551,427.524 C401.868,427.524 404.946,428.528 407.499,430.273 C411.733,433.132 414.526,437.999 414.526,443.498 C414.526,452.316 407.368,459.473 398.551,459.473 Z" id="Shape" fill="#71CCE0"></path>
            <path d="M448.135,437.691 L430.558,430.776 L438.09,413.466 L428.322,403.72 L411.035,411.252 L404.12,393.675 L391.934,393.675 L385.04,411.252 L367.735,403.721 L361.144,410.311 L359.096,412.252 L366.655,429.621 L349.099,436.537 L349.099,448.695 L366.655,455.611 L359.115,472.936 L368.889,482.668 L386.199,475.134 L393.114,492.712 L405.276,492.712 L412.19,475.134 L429.5,482.668 L438.089,474.079 L430.557,456.77 L448.134,449.855 L448.134,437.691 L448.135,437.691 Z M441.719,445.484 L422.022,453.233 L430.463,472.632 L428.053,475.042 L408.655,466.6 L400.905,486.298 L397.484,486.298 L389.733,466.6 L370.335,475.042 L366.753,471.461 L375.189,452.078 L355.513,444.328 L355.513,440.905 L375.189,433.155 L366.753,413.773 L369.179,411.347 L388.58,419.791 L396.308,400.092 L399.748,400.092 L407.499,419.791 L426.891,411.342 L430.463,414.914 L422.022,434.314 L441.719,442.063 L441.719,445.484 L441.719,445.484 Z" id="Shape" fill="#4A555F"></path>
            <path d="M409.31,427.626 C406.143,425.462 402.423,424.317 398.551,424.317 C387.961,424.317 379.346,432.922 379.346,443.499 C379.346,447.497 380.555,451.309 382.833,454.512 C386.433,459.627 392.309,462.681 398.551,462.681 C409.128,462.681 417.734,454.076 417.734,443.499 C417.734,437.121 414.579,431.184 409.31,427.626 Z M398.551,456.266 C394.394,456.266 390.48,454.23 388.07,450.806 C386.56,448.683 385.761,446.156 385.761,443.499 C385.761,436.459 391.499,430.732 398.551,430.732 C401.125,430.732 403.593,431.489 405.704,432.932 C409.22,435.306 411.318,439.256 411.318,443.499 C411.319,450.539 405.592,456.266 398.551,456.266 Z" id="Shape" fill="#4A555F"></path>
        </g>
    </g>
</svg>