<?xml version="1.0" encoding="UTF-8"?>
<svg width="400px" height="400px" viewBox="0 0 400 400" version="1.1" xmlns="http://www.w3.org/2000/svg" xmlns:xlink="http://www.w3.org/1999/xlink">
    <!-- Generator: Sketch 53.2 (72643) - https://sketchapp.com -->
    <title>2.2-home-section-works-everywhere</title>
    <desc>Created with Sketch.</desc>
    <g id="2.2-home-section-works-everywhere" stroke="none" stroke-width="1" fill="none" fill-rule="evenodd">
        <g id="SATELLITE" transform="translate(4.000000, 4.000000)" fill-rule="nonzero">
            <path d="M238.266852,97.6242038 L100.127389,235.764433 L157.236333,292.872611 L295.375796,154.733148 L238.266852,97.6242038 Z M107.171657,235.764433 L238.266852,104.669238 L288.330762,154.732382 L157.235567,285.827578 L107.171657,235.764433 Z" id="Shape" fill="#4B555F"></path>
            <polygon id="Rectangle" fill="#3F2E61" transform="translate(197.762100, 195.452687) rotate(-45.000000) translate(-197.762100, -195.452687) " points="110.642818 165.784925 284.881382 165.784925 284.881382 225.120448 110.642818 225.120448"></polygon>
            <path d="M271.112939,75.0955414 L240.305732,105.902907 L287.098021,152.694268 L317.904459,121.886902 L271.112939,75.0955414 Z M247.388919,105.902137 L271.112939,82.1785879 L310.822811,121.886902 L287.098791,145.610451 L247.388919,105.902137 Z" id="Shape" fill="#4B555F"></path>
            <polygon id="Rectangle" fill="#EC8D53" transform="translate(278.851392, 114.376004) rotate(-45.000000) translate(-278.851392, -114.376004) " points="267.9492 92.201268 289.753583 92.201268 289.753583 136.550739 267.9492 136.550739"></polygon>
            <path d="M317.583239,84.0146594 L308.985341,75.4167612 C303.93606,70.3667173 297.222769,67.5859873 290.081261,67.5859873 C282.939754,67.5859873 276.226463,70.3667173 271.177182,75.4167612 L267.840764,78.7531793 L314.246821,125.159236 L317.583239,121.822818 C322.633283,116.773537 325.414013,110.059482 325.414013,102.918739 C325.414013,95.7772314 322.632519,89.06394 317.583239,84.0146594 Z M314.245294,118.132988 L274.865485,78.7531793 C278.955288,74.7526835 284.34882,72.5528306 290.080498,72.5528306 C295.89385,72.5528306 301.361423,74.8168013 305.472598,78.9279767 L314.070497,87.5258749 C318.181672,91.6370503 320.446406,97.1038603 320.446406,102.917975 C320.446406,108.649653 318.246553,114.042422 314.245294,118.132988 Z" id="Shape" fill="#4B555F"></path>
            <path d="M308.335932,93.0702306 L299.93637,84.6717281 C296.989627,81.7250944 293.072069,80.1019108 288.903978,80.1019108 C286.793835,80.1019108 284.748562,80.5179588 282.859873,81.3112833 L311.690537,110.140127 C314.06016,104.471287 312.942455,97.6773282 308.335932,93.0702306 Z" id="Path" fill="#F58E70"></path>
            <path d="M226.553805,217.77707 L212.770701,231.560174 L241.541736,260.33121 L255.324841,246.548106 L226.553805,217.77707 Z M219.640605,231.559428 L226.553058,224.646974 L248.45419,246.547359 L241.54099,253.46056 L219.640605,231.559428 Z" id="Shape" fill="#4B555F"></path>
            <path d="M148.955321,137.675159 L135.171975,151.458264 L163.942769,180.229299 L177.726115,166.446195 L148.955321,137.675159 Z M142.041253,151.458264 L148.954574,144.545063 L170.855344,166.445449 L163.942022,173.358649 L142.041253,151.458264 Z" id="Shape" fill="#4B555F"></path>
            <path d="M290.683459,205.261146 L205.261146,290.683877 L307.578454,393 L393,307.578036 L290.683459,205.261146 Z M212.314843,290.683877 L290.683459,212.315581 L385.94707,307.578036 L307.578454,385.946332 L212.314843,290.683877 Z" id="Shape" fill="#4B555F"></path>
            <polygon id="Rectangle" fill="#EC8D53" transform="translate(298.989721, 298.992942) rotate(-45.000000) translate(-298.989721, -298.992942) " points="249.322136 237.361231 348.657307 237.361231 348.657307 360.624652 249.322136 360.624652"></polygon>
            <path d="M279.851028,233.296815 L283.352595,236.801782 L286.854161,233.297577 L283.352595,229.792611 L279.851028,233.296815 Z M272.847134,226.287644 L276.3487,229.792611 L279.850267,226.288406 L276.3487,222.783439 L272.847134,226.287644 Z M293.859578,247.315157 L297.361144,250.820124 L300.862711,247.315919 L297.361144,243.810953 L293.859578,247.315157 Z M286.854922,240.305986 L290.356489,243.810191 L293.858056,240.305986 L290.356489,236.801782 L286.854922,240.305986 Z M325.39727,271.867439 L321.872872,275.350318 L325.414013,271.885718 L325.39727,271.867439 Z M318.372827,264.839228 L314.871261,268.343432 L318.372827,271.848399 L321.874394,268.344194 L318.372827,264.839228 Z M300.863472,254.324328 L304.365039,257.829295 L307.866605,254.32509 L304.365039,250.820124 L300.863472,254.324328 Z M307.867366,261.334261 L311.368933,264.839228 L314.8705,261.335023 L311.368933,257.830056 L307.867366,261.334261 Z" id="Shape" fill="#4B555F"></path>
            <path d="M243.81141,297.360789 L247.315564,300.862305 L250.819718,297.360789 L247.315564,293.859274 L243.81141,297.360789 Z M229.792509,283.352443 L233.296663,286.85472 L236.800817,283.353204 L233.296663,279.850927 L229.792509,283.352443 Z M222.783439,276.34865 L226.287593,279.850927 L229.791747,276.349411 L226.287593,272.847134 L222.783439,276.34865 Z M236.80234,290.356997 L240.306494,293.859274 L243.810648,290.357758 L240.306494,286.855481 L236.80234,290.356997 Z M264.83938,318.372168 L268.343534,321.874445 L271.847688,318.372929 L268.343534,314.870652 L264.83938,318.372168 Z M275.33204,321.855419 L271.885006,325.414013 L275.350318,321.873684 L275.33204,321.855419 Z M250.820479,304.364582 L254.324633,307.866859 L257.828787,304.365343 L254.324633,300.863066 L250.820479,304.364582 Z M257.829549,311.368375 L261.333703,314.870652 L264.837857,311.369136 L261.333703,307.866859 L257.829549,311.368375 Z" id="Shape" fill="#4B555F"></path>
            <path d="M343.938798,297.360789 L347.442952,300.862305 L350.947106,297.360789 L347.442952,293.859274 L343.938798,297.360789 Z M336.928967,290.356997 L340.433121,293.859274 L343.937275,290.357758 L340.433121,286.855481 L336.928967,290.356997 Z M329.919898,283.353204 L333.424052,286.855481 L336.928205,283.353965 L333.424052,279.851688 L329.919898,283.353204 Z M322.910828,276.34865 L326.414982,279.850927 L329.919136,276.349411 L326.414982,272.847134 L322.910828,276.34865 Z M364.966007,318.372168 L368.470161,321.874445 L371.974315,318.372929 L368.470161,314.870652 L364.966007,318.372168 Z M350.947868,304.364582 L354.452022,307.866859 L357.956176,304.365343 L354.452022,300.863066 L350.947868,304.364582 Z M375.459428,321.855419 L372.012395,325.414013 L375.477707,321.873684 L375.459428,321.855419 Z M357.956937,311.368375 L361.461091,314.870652 L364.965245,311.369136 L361.461091,307.866859 L357.956937,311.368375 Z" id="Shape" fill="#4B555F"></path>
            <path d="M293.859578,347.442191 L297.361144,350.947106 L300.862711,347.442952 L297.361144,343.938037 L293.859578,347.442191 Z M286.855683,340.433883 L290.35725,343.938037 L293.858817,340.433883 L290.35725,336.929729 L286.855683,340.433883 Z M279.851028,333.424052 L283.352595,336.928967 L286.854161,333.424813 L283.352595,329.919898 L279.851028,333.424052 Z M272.847134,326.414982 L276.3487,329.919898 L279.850267,326.415744 L276.3487,322.910828 L272.847134,326.414982 Z M300.863472,354.452022 L304.365039,357.956937 L307.866605,354.452783 L304.365039,350.947868 L300.863472,354.452022 Z M325.39727,371.994878 L321.872872,375.477707 L325.414013,372.013157 L325.39727,371.994878 Z M318.373588,364.966007 L314.872022,368.470161 L318.373588,371.975076 L321.875155,368.470922 L318.373588,364.966007 Z M307.867366,361.461091 L311.368933,364.966007 L314.8705,361.461853 L311.368933,357.956937 L307.867366,361.461091 Z" id="Shape" fill="#4B555F"></path>
            <polygon id="Rectangle" fill="#4B555F" transform="translate(298.989061, 298.991826) rotate(-45.000000) translate(-298.989061, -298.991826) " points="240.996019 296.494534 356.982102 296.494534 356.982102 301.489117 240.996019 301.489117"></polygon>
            <path d="M85.4211285,0 L0,85.4223127 L102.316192,187.738854 L187.738854,102.316541 L85.4211285,0 Z M7.05295897,85.4223127 L85.4211285,7.05369664 L180.685128,102.316541 L102.316192,180.685157 L7.05295897,85.4223127 Z" id="Shape" fill="#4B555F"></path>
            <polygon id="Rectangle" fill="#EC8D53" transform="translate(94.004634, 94.006946) rotate(-45.000000) translate(-94.004634, -94.006946) " points="44.3366652 32.3752353 143.672603 32.3752353 143.672603 155.638657 44.3366652 155.638657"></polygon>
            <path d="M67.5859873,21.0238089 L71.0900904,24.5260859 L74.5941936,21.02457 L71.0900904,17.522293 L67.5859873,21.0238089 Z M88.6136528,42.0359487 L92.117756,45.5374646 L95.6218591,42.0359487 L92.117756,38.5344327 L88.6136528,42.0359487 Z M81.6046848,35.0313947 L85.108788,38.5336717 L88.6128912,35.0321558 L85.108788,31.5298788 L81.6046848,35.0313947 Z M74.5949552,28.0276018 L78.0990584,31.5298788 L81.6031616,28.0283629 L78.0990584,24.5260859 L74.5949552,28.0276018 Z M102.631589,56.0435345 L106.135692,59.5458115 L109.639795,56.0442955 L106.135692,52.5420185 L102.631589,56.0435345 Z M120.134588,66.5305785 L116.687604,70.089172 L120.152866,66.5488433 L120.134588,66.5305785 Z M95.6226207,49.0389805 L99.1267239,52.5412575 L102.630827,49.0397416 L99.1267239,45.5374646 L95.6226207,49.0389805 Z M109.641318,63.0473274 L113.145421,66.5496044 L116.649525,63.0480884 L113.145421,59.5458115 L109.641318,63.0473274 Z" id="Shape" fill="#4B555F"></path>
            <path d="M38.5344327,92.1177052 L42.0359487,95.6226715 L45.5374646,92.1184668 L42.0359487,88.6135005 L38.5344327,92.1177052 Z M31.5306398,85.1085341 L35.0321558,88.6127389 L38.5336717,85.1085341 L35.0321558,81.6043294 L31.5306398,85.1085341 Z M24.5268469,78.0993631 L28.0283629,81.6043294 L31.5298788,78.1001247 L28.0283629,74.5951583 L24.5268469,78.0993631 Z M17.522293,71.090192 L21.0238089,74.5951583 L24.5253249,71.0909536 L21.0238089,67.5859873 L17.522293,71.090192 Z M70.0724292,116.669987 L66.5480823,120.152866 L70.089172,116.688266 L70.0724292,116.669987 Z M63.0480884,109.641775 L59.5465725,113.14598 L63.0480884,116.650946 L66.5496044,113.146742 L63.0480884,109.641775 Z M45.5382256,99.1268763 L49.0397416,102.631843 L52.5412575,99.1276379 L49.0397416,95.6226715 L45.5382256,99.1268763 Z M52.5427796,106.136047 L56.0442955,109.641014 L59.5458115,106.136809 L56.0442955,102.631843 L52.5427796,106.136047 Z" id="Shape" fill="#4B555F"></path>
            <path d="M170.199818,116.670037 L166.675471,120.152866 L170.216561,116.688316 L170.199818,116.670037 Z M124.653474,78.0992107 L128.15499,81.6041263 L131.656506,78.0999723 L128.15499,74.5950568 L124.653474,78.0992107 Z M131.658028,85.1082803 L135.159544,88.6124342 L138.66106,85.1082803 L135.159544,81.6041263 L131.658028,85.1082803 Z M117.649682,71.0901412 L121.151197,74.5950568 L124.652713,71.0909028 L121.151197,67.5859873 L117.649682,71.0901412 Z M138.661821,92.1173498 L142.163337,95.6222653 L145.664853,92.1181114 L142.163337,88.6131958 L138.661821,92.1173498 Z M163.175477,109.641166 L159.673961,113.14532 L163.175477,116.650236 L166.676993,113.146082 L163.175477,109.641166 Z M152.669407,106.13625 L156.170923,109.641166 L159.672439,106.137012 L156.170923,102.632096 L152.669407,106.13625 Z M145.665614,99.1264193 L149.16713,102.631335 L152.668646,99.1271809 L149.16713,95.6222653 L145.665614,99.1264193 Z" id="Shape" fill="#4B555F"></path>
            <path d="M81.6046848,135.159544 L85.108788,138.661821 L88.6128912,135.160305 L85.108788,131.658028 L81.6046848,135.159544 Z M88.6136528,142.163337 L92.117756,145.664853 L95.6218591,142.163337 L92.117756,138.661821 L88.6136528,142.163337 Z M74.5957168,128.15499 L78.09982,131.657267 L81.6039232,128.155751 L78.09982,124.653474 L74.5957168,128.15499 Z M67.5859873,121.151197 L71.0900904,124.653474 L74.5941936,121.151958 L71.0900904,117.649682 L67.5859873,121.151197 Z M109.641318,163.174716 L113.145421,166.676993 L116.649525,163.175477 L113.145421,159.6732 L109.641318,163.174716 Z M95.6226207,149.16713 L99.1267239,152.669407 L102.630827,149.167891 L99.1267239,145.665614 L95.6226207,149.16713 Z M120.134588,166.657967 L116.687604,170.216561 L120.152866,166.676232 L120.134588,166.657967 Z M102.63235,156.170923 L106.136453,159.6732 L109.640557,156.171684 L106.136453,152.669407 L102.63235,156.170923 Z" id="Shape" fill="#4B555F"></path>
            <polygon id="Rectangle" fill="#4B555F" transform="translate(94.004906, 94.007135) rotate(-45.000000) translate(-94.004906, -94.007135) " points="36.0122479 91.5098437 151.997563 91.5098437 151.997563 96.5044266 36.0122479 96.5044266"></polygon>
            <path d="M125.967519,255 L108,272.406788 L110.128562,274.125912 C111.949042,275.596324 113.729845,277.173004 115.421181,278.811485 C117.114072,280.451473 118.740834,282.175873 120.257901,283.93871 L122.032481,286 L140,268.593212 L125.967519,255 Z M119.459679,275.541844 C118.339945,274.422111 117.182152,273.32902 116,272.275512 L126.275512,262 L133,268.724488 L122.724488,279 C121.67098,277.818609 120.57865,276.661577 119.459679,275.541844 Z" id="Shape" fill="#4B555F"></path>
            <path d="M117.928765,275.059553 C101.975033,259.105189 80.7580481,250.318471 58.1869514,250.318471 C46.0553718,250.318471 34.3271774,252.84062 23.3272319,257.814089 L20.0254777,259.30613 L133.684653,372.974522 L135.176562,369.674018 C140.156522,358.660787 142.681529,346.940801 142.681529,334.838181 C142.681529,312.252013 133.890964,291.022385 117.928765,275.059553 Z M132.042628,364.247086 L28.7529171,260.949068 C38.1162271,257.217427 47.9999349,255.328125 58.1869514,255.328125 C79.4201025,255.328125 99.3792029,263.593629 114.386827,278.602572 C129.402149,293.618443 137.671546,313.590846 137.671546,334.838951 C137.671546,345.000686 135.77933,354.876024 132.042628,364.247086 Z" id="Shape" fill="#4B555F"></path>
            <path d="M109.952324,281.653041 C95.9905357,267.69032 77.4219756,260 57.6651948,260 C51.2950322,260 45.0539737,260.793231 39,262.367323 L129.245258,352.617834 C130.822337,346.565776 131.617834,340.330486 131.617834,333.97536 C131.617061,314.206436 123.923389,295.625039 109.952324,281.653041 Z" id="Path" fill="#3F2E61"></path>
            <path d="M68.3017078,301 L46,331.538863 L49.2454034,332.452327 C49.4530851,332.510937 49.6615193,332.575981 49.995616,332.693916 C50.1664267,332.746094 50.3372375,332.803275 50.5080482,332.874751 L50.6607996,332.932646 C50.8120461,332.984824 50.9632925,333.048437 51.116044,333.123487 L51.3320029,333.217836 C51.4712098,333.271443 51.6051495,333.335771 51.7390892,333.409392 L51.8820585,333.483012 C52.0543741,333.564495 52.2266898,333.65241 52.5028463,333.813231 C52.8474776,333.995495 53.1815743,334.209924 53.5472747,334.463664 C53.7594713,334.605186 53.9633907,334.753856 54.2598639,334.989013 C54.3471504,335.052626 54.4366944,335.119099 54.5247334,335.202726 L54.7188706,335.367836 C54.9145129,335.517936 55.100373,335.691622 55.2869855,335.868883 C55.5638945,336.1312 55.8302689,336.409957 56.0883662,336.697291 C56.1726428,336.790209 56.2531571,336.875266 56.3253942,336.968185 L56.4427796,337.108993 C56.5105019,337.183328 56.5639272,337.259092 56.6632533,337.390608 C56.821272,337.590027 56.9687561,337.78873 57.1057057,337.978856 C57.3261794,338.293351 57.5293463,338.615708 57.7039194,338.918052 L57.9296604,339.329039 C58.0176994,339.489146 58.1019761,339.640675 58.1689459,339.806499 L58.2637571,340.010206 C58.3201924,340.11742 58.3691029,340.231782 58.4503697,340.424053 C58.4970228,340.526978 58.5369037,340.630618 58.5617353,340.694947 L58.7031996,341.075199 C58.7302886,341.145961 58.7558725,341.216722 58.7807041,341.288198 L58.7867238,341.894315 L60.9154616,344 L91.0965586,324.414013 L68.3017078,301 Z M62.3594133,337.788093 L62.111449,337.330146 C61.8634847,336.893531 61.5934465,336.458339 61.2873541,336.015325 C61.0997253,335.748664 60.9120965,335.492668 60.7355048,335.265828 C60.6177769,335.107253 60.4985775,334.950101 60.3631904,334.791526 C60.2336898,334.626551 60.0953596,334.467976 59.9526145,334.30869 C59.6281271,333.943186 59.2830374,333.57697 58.925439,333.231377 C58.650986,332.965426 58.3743255,332.711564 58.0903071,332.481879 C57.8761895,332.282772 57.6716374,332.11993 57.5362504,332.021799 C57.2250074,331.768648 56.9152359,331.537541 56.6304817,331.344834 C56.1051212,330.972929 55.6202296,330.668579 55.2508584,330.473027 C54.9719906,330.304497 54.6938585,330.156589 54.4149907,330.020058 C54.2766605,329.94397 54.139066,329.872149 54,329.805306 L68.9330423,309 L84,323.561154 L62.4719906,338 C62.4352006,337.929601 62.3984107,337.859203 62.3594133,337.788093 Z" id="Shape" fill="#4B555F"></path>
            <path d="M69.3738997,316.904459 L60.5796178,329.582036 C60.5910485,329.59265 60.6016627,329.602447 60.6122769,329.61306 C61.012351,329.956779 61.4042604,330.326623 61.7888214,330.71198 C62.1856296,331.109583 62.574273,331.525964 62.9261749,331.923567 L75.5987261,323.129763 L69.3738997,316.904459 Z" id="Path" fill="#3F2E61"></path>
            <path d="M59.2255046,333.782845 C55.4423095,330.000486 50.4124871,327.917197 45.0621483,327.917197 C39.7110221,327.917197 34.6811996,330.000486 30.8987921,333.782845 C27.115597,337.565203 25.0318471,342.593913 25.0318471,347.943069 C25.0318471,353.292224 27.115597,358.320934 30.8987921,362.102505 C34.6811996,365.884864 39.7110221,367.968153 45.0621483,367.968153 C50.4116996,367.968153 55.441522,365.884864 59.2255046,362.102505 C67.0352352,354.296077 67.0352352,341.591636 59.2255046,333.782845 Z M55.6021739,358.480763 C52.7860404,361.295487 49.0437958,362.84575 45.0621483,362.84575 C41.0805009,362.84575 37.3374688,361.295487 34.5221227,358.480763 C31.7067767,355.66604 30.1561707,351.924623 30.1561707,347.943856 C30.1561707,343.963089 31.7067767,340.220885 34.5221227,337.406162 C37.3374688,334.591438 41.0812884,333.041175 45.0621483,333.041175 C49.0430083,333.041175 52.7860404,334.591438 55.6021739,337.406162 C61.4132057,343.216695 61.4132057,352.67023 55.6021739,358.480763 Z" id="Shape" fill="#4B555F"></path>
            <path d="M51.507848,341.999244 C49.8518878,340.344404 47.6508987,339.433121 45.3099802,339.433121 C42.9698348,339.433121 40.7696188,340.344404 39.1136586,341.999244 C37.4592446,343.654084 36.5477707,345.853839 36.5477707,348.194268 C36.5477707,350.533923 37.4592446,352.734451 39.1152048,354.389291 C40.7703919,356.044131 42.9706079,356.955414 45.3115264,356.955414 C47.6516718,356.955414 49.8526609,356.044131 51.507848,354.389291 C54.9241356,350.973719 54.9241356,345.414816 51.507848,341.999244 Z" id="Path" fill="#3F2E61"></path>
        </g>
    </g>
</svg>