<?xml version="1.0" encoding="UTF-8"?>
<svg width="72px" height="72px" viewBox="0 0 72 72" version="1.1" xmlns="http://www.w3.org/2000/svg" xmlns:xlink="http://www.w3.org/1999/xlink">
    <title>ai-security-indigo-dark</title>
    <defs>
        <linearGradient x1="-3.88578059e-14%" y1="100%" x2="100%" y2="2.77555756e-15%" id="linearGradient-1">
            <stop stop-color="#202354" offset="0%"></stop>
            <stop stop-color="#3C4094" offset="100%"></stop>
        </linearGradient>
    </defs>
    <g id="ai-security-indigo-dark" stroke="none" fill="none" fill-rule="evenodd">
        <rect id="Rectangle-Copy-8" fill="url(#linearGradient-1)" x="0" y="0" width="72" height="72" rx="12"></rect>
        <g id="lock-fill-copy-3" stroke-width="1" transform="translate(21.7895, 18)">
            <g id="Group-5" fill-rule="nonzero">
                <path d="M24.6315263,11.3684211 C26.7243948,11.3684211 28.421,13.0650262 28.421,15.1578947 L28.421,32.2105263 C28.421,34.3033948 26.7243948,36 24.6315263,36 L3.78947368,36 C1.69660516,36 8.8817842e-16,34.3033948 8.8817842e-16,32.2105263 L4.4408921e-16,15.1578947 C0,13.0650262 1.69660516,11.3684211 3.78947368,11.3684211 L24.6315263,11.3684211 Z M20.5711895,17.3684211 C19.7853661,17.3684211 19.1424197,18.0112782 19.1424197,18.7969925 L19.1424197,27.9398496 C19.1424197,28.7255639 19.7853661,29.3684211 20.5711895,29.3684211 C21.3570129,29.3684211 21.9999593,28.7255639 21.9999593,27.9398496 L21.9999593,18.7969925 C21.9999593,18.0112782 21.3570129,17.3684211 20.5711895,17.3684211 Z M11.427063,17.3684211 C10.8626989,17.3684211 10.3483418,17.7041353 10.1197387,18.2255639 L6.11918333,27.3684211 C5.80485398,28.0898496 6.13347103,28.9327068 6.85499976,29.2469925 C7.57652849,29.5612782 8.41950265,29.2327068 8.733832,28.5112782 L9.11245599,27.6541353 L13.74167,27.6541353 L14.120294,28.5112782 C14.4346234,29.2327068 15.2775975,29.5612782 15.9991263,29.2469925 C16.720655,28.9327068 17.049272,28.0898496 16.7349427,27.3684211 L12.7343873,18.2255639 C12.5057842,17.7041353 11.9914271,17.3684211 11.427063,17.3684211 Z M11.427063,22.3612782 L12.4914965,24.7969925 L10.3626295,24.7969925 L11.427063,22.3612782 Z" id="Combined-Shape" fill="#6366F1"></path>
                <path d="M14.2105,3.78033769 C11.3851329,3.78033769 9.47840813,5.80194777 9.47840813,8.49277858 L9.47840813,11.3684211 L5.6842,11.3684211 L5.6842,8.12030075 C5.6842,3.63558274 9.50155481,0 14.2105,0 C18.9194452,0 22.7368,3.63558274 22.7368,8.12030075 L22.7368,11.3684211 L18.9677447,11.3684211 L18.9677447,8.49277858 C18.9677447,5.80194777 17.0358671,3.78033769 14.2105,3.78033769 Z" id="Vector-533-(Stroke)" fill="#A5B4FC"></path>
            </g>
        </g>
    </g>
</svg>