<?xml version="1.0" encoding="UTF-8"?>
<svg width="72px" height="72px" viewBox="0 0 72 72" version="1.1" xmlns="http://www.w3.org/2000/svg" xmlns:xlink="http://www.w3.org/1999/xlink">
    <title>ai-identity-sky-dark</title>
    <defs>
        <linearGradient x1="-4.65773253e-13%" y1="100%" x2="99.1550911%" y2="-1.37875822e-12%" id="linearGradient-1">
            <stop stop-color="#0E2E49" offset="0%"></stop>
            <stop stop-color="#0E5E89" offset="100%"></stop>
        </linearGradient>
    </defs>
    <g id="ai-identity-sky-dark" stroke="none" fill="none" fill-rule="evenodd">
        <rect id="Rectangle-Copy-6" fill="url(#linearGradient-1)" x="0" y="0" width="72" height="72" rx="12"></rect>
        <g id="Group" stroke-width="1" transform="translate(19.8947, 18)">
            <path d="M22.7253824,18.9481461 L22.7422882,18.9473923 C22.8983448,18.9481836 23.0557523,18.9686732 23.2141271,19.0107564 L23.1904787,19.0055996 C23.3045299,19.0303082 23.4203017,19.0618358 23.5394367,19.0979534 C23.8851024,19.2027471 24.3585687,19.3568549 24.7481063,19.5172408 C24.8615216,19.5639378 24.9718115,19.6113764 25.0786457,19.6590309 C25.6727635,19.9172907 26.2405746,20.2177451 26.7773069,20.5558144 C26.7922669,20.5647086 26.8040318,20.5715111 26.8149671,20.5777684 L26.905217,20.6374726 C27.2057782,20.83194 27.4963065,21.0383212 27.77607,21.2558805 C28.2764104,21.6390922 28.697868,22.017272 29.0403079,22.390573 C29.7632125,23.1383351 30.3802264,23.9740488 30.8726595,24.8786663 L30.9384289,25.0039148 C31.0125598,25.1314818 31.0885717,25.2834364 31.1688399,25.4641644 C31.5933368,26.3663197 31.8967205,27.3273075 32.0629794,28.3313281 C32.0792011,28.4124801 32.0939671,28.4952984 32.1082201,28.5789889 C32.1735889,29.0911437 32.2105263,29.6080502 32.2105263,30.1332107 L32.2105263,34.0444036 C32.2105263,35.1244785 31.3092345,36 30.1973684,36 L2.01315789,36 C0.901290837,36 0,35.1244785 0,34.0444036 L0,30.1332107 C0,24.8534906 3.73340047,20.4080308 8.99639918,19.0107564 C9.44754809,18.8908778 9.89084654,18.9462217 10.3174342,19.1329812 C12.1604806,19.9398594 14.122504,20.3552289 16.1052632,20.3552289 C16.257783,20.3552289 16.4101802,20.3527711 16.56241,20.3478663 L16.9977685,20.3273306 C17.0019886,20.3211998 17.00833,20.3171466 17.0180558,20.3164145 C17.5952102,20.2729689 18.0970052,20.2163569 18.5628886,20.1398867 C19.0733186,20.0516873 19.5806742,19.9340902 20.0820049,19.7889745 C20.6417081,19.620763 21.2176231,19.4068272 21.8930921,19.1329812 C22.1754063,19.0016484 22.4347967,18.948679 22.6905305,18.9479274 C22.4196945,18.9540472 22.1532849,19.0190691 21.8930921,19.1329812 C21.3006043,19.3923701 20.6958206,19.6112987 20.0820049,19.7889745 C19.5826585,19.9387408 19.0963129,20.0523304 18.5628886,20.1398867 C18.050971,20.2308301 17.5359932,20.2924695 17.0185524,20.3258221 L16.9977685,20.3273306 C16.9851082,20.345723 16.9915392,20.382814 16.9829544,20.4050303 C16.2613324,22.272491 16.5500767,24.4653942 17.9265333,26.108818 L21.3332247,30.1762458 C23.3450665,32.5782893 26.9212925,32.8993466 29.328805,30.8940526 C30.7700455,29.6935973 31.6965173,28.9219094 32.1082201,28.5789889 C32.0898849,28.4999272 32.0769138,28.4154765 32.0629794,28.3313281 C31.8812554,27.3508293 31.6252721,26.4957885 31.2959723,25.7654114 C31.2522627,25.6570389 31.209992,25.5568202 31.1688399,25.4641644 C31.1169305,25.3525963 31.0618862,25.2404447 31.0049855,25.1292796 L30.9384289,25.0039148 C30.6020198,24.4250104 30.3043484,24.3483406 29.8234285,24.3640329 C29.0468512,24.3893725 29.3637691,25.0822023 29.0578549,25.3038266 C28.8070197,25.6872711 29.328805,23.8578523 29.2261481,22.6018837 C29.1670286,22.5316214 29.1050818,22.4611845 29.0403079,22.390573 C28.6491827,21.9855565 28.2265841,21.6062249 27.77607,21.2558805 C27.4827326,21.0316197 27.16241,20.8055313 26.8149671,20.5777684 L26.905217,20.6374726 C26.8627796,20.610015 26.8201422,20.5827949 26.7773069,20.5558144 C26.517074,20.4045208 25.8999897,20.0253995 25.0786457,19.6590309 C24.4823929,19.3994532 23.8597697,19.1821682 23.2141271,19.0107564 L23.1904787,19.0055996 C23.0393733,18.9728634 22.8912882,18.9520969 22.7424031,18.948484 C22.7343023,18.9473518 22.72632,18.9473629 22.7183413,18.9474253 Z" id="Combined-Shape" fill="#0EA5E9"></path>
            <path d="M16.1052632,0 C11.9195618,0 8.52631579,3.39324634 8.52631579,7.57894737 C8.52631579,11.7646488 11.9195618,15.1578947 16.1052632,15.1578947 C20.2909645,15.1578947 23.6842105,11.7646488 23.6842105,7.57894737 C23.6842105,3.39324634 20.2909645,0 16.1052632,0 Z" id="Vector" fill="#0EA5E9"></path>
            <path d="M32.4399904,18.9268966 C33.2440421,18.2571762 34.4387706,18.3660733 35.108491,19.170125 C35.7782114,19.9741768 35.6693143,21.1689052 34.8652625,21.8386256 L26.9035328,28.4702046 C26.1010287,29.1386359 24.9089533,29.0316168 24.2383394,28.2309356 L20.831648,24.1635078 C20.1597408,23.3612826 20.2653845,22.1662621 21.0676098,21.4943549 C21.8698351,20.8224477 23.0648556,20.9280914 23.7367627,21.7303167 L25.9296791,24.3484453 L32.4399904,18.9268966 Z" id="Path-14" fill="#7DD3FC" fill-rule="nonzero"></path>
        </g>
    </g>
</svg>