<?xml version="1.0" encoding="UTF-8"?>
<svg width="72px" height="72px" viewBox="0 0 72 72" version="1.1" xmlns="http://www.w3.org/2000/svg" xmlns:xlink="http://www.w3.org/1999/xlink">
    <title>ai-security-indigo-light</title>
    <defs>
        <linearGradient x1="100%" y1="6.52256027e-14%" x2="4.96130914e-14%" y2="100%" id="linearGradient-1">
            <stop stop-color="#E0E7FF" offset="0%"></stop>
            <stop stop-color="#CAC9E8" offset="100%"></stop>
        </linearGradient>
    </defs>
    <g id="ai-security-indigo-light" stroke="none" fill="none" fill-rule="evenodd">
        <rect id="Rectangle-Copy-8" fill="url(#linearGradient-1)" x="0" y="0" width="72" height="72" rx="12"></rect>
        <g id="lock-fill-copy-3" stroke-width="1" transform="translate(21.7895, 18)">
            <g id="Group-5" fill-rule="nonzero">
                <path d="M24.6315789,11.3684211 C26.7244475,11.3684211 28.4210526,13.0650262 28.4210526,15.1578947 L28.4210526,32.2105263 C28.4210526,34.3033948 26.7244475,36 24.6315789,36 L3.78947368,36 C1.69660516,36 -8.8817842e-16,34.3033948 -8.8817842e-16,32.2105263 L4.4408921e-16,15.1578947 C0,13.0650262 1.69660516,11.3684211 3.78947368,11.3684211 L24.6315789,11.3684211 Z M20.5712276,17.3684211 C19.7854028,17.3684211 19.1424552,18.0112782 19.1424552,18.7969925 L19.1424552,27.9398496 C19.1424552,28.7255639 19.7854028,29.3684211 20.5712276,29.3684211 C21.3570524,29.3684211 22,28.7255639 22,27.9398496 L22,18.7969925 C22,18.0112782 21.3570524,17.3684211 20.5712276,17.3684211 Z M11.4270842,17.3684211 C10.8627191,17.3684211 10.348361,17.7041353 10.1197574,18.2255639 L6.11919466,27.3684211 C5.80486473,28.0898496 6.13348239,28.9327068 6.85501245,29.2469925 C7.57654252,29.5612782 8.41951824,29.2327068 8.73384817,28.5112782 L9.11247286,27.6541353 L13.7416955,27.6541353 L14.1203202,28.5112782 C14.4346501,29.2327068 15.2776258,29.5612782 15.9991559,29.2469925 C16.7206859,28.9327068 17.0493036,28.0898496 16.7349737,27.3684211 L12.7344109,18.2255639 C12.5058073,17.7041353 11.9914493,17.3684211 11.4270842,17.3684211 Z M11.4270842,22.3612782 L12.4915196,24.7969925 L10.3626487,24.7969925 L11.4270842,22.3612782 Z" id="Combined-Shape" fill="#6366F1"></path>
                <path d="M14.2105263,3.78033769 C11.385154,3.78033769 9.47842568,5.80194777 9.47842568,8.49277858 L9.47842568,11.3684211 L5.68421053,11.3684211 L5.68421053,8.12030075 C5.68421053,3.63558274 9.50157241,0 14.2105263,0 C18.9194802,0 22.7368421,3.63558274 22.7368421,8.12030075 L22.7368421,11.3684211 L18.9677799,11.3684211 L18.9677799,8.49277858 C18.9677799,5.80194777 17.0358987,3.78033769 14.2105263,3.78033769 Z" id="Vector-533-(Stroke)" fill="#4338CA"></path>
            </g>
        </g>
    </g>
</svg>