<?xml version="1.0" encoding="UTF-8"?>
<svg width="72px" height="72px" viewBox="0 0 72 72" version="1.1" xmlns="http://www.w3.org/2000/svg" xmlns:xlink="http://www.w3.org/1999/xlink">
    <title>mcp-connecting-software-ai-indigo-dark</title>
    <defs>
        <linearGradient x1="-3.88578059e-14%" y1="100%" x2="100%" y2="2.77555756e-15%" id="linearGradient-1">
            <stop stop-color="#202354" offset="0%"></stop>
            <stop stop-color="#3C4094" offset="100%"></stop>
        </linearGradient>
    </defs>
    <g id="mcp-connecting-software-ai-indigo-dark" stroke="none" fill="none" fill-rule="evenodd">
        <rect id="Rectangle-Copy-6" fill="url(#linearGradient-1)" x="0" y="0" width="72" height="72" rx="12"></rect>
        <g id="Group-18" stroke-width="1" transform="translate(36.5, 36) rotate(45) translate(-36.5, -36)translate(26, 14)">
            <path d="M19.586192,25.9212008 C20.3637473,25.9212008 20.9999589,26.5595722 20.9999589,27.3397674 L20.9999589,29.208075 L20.9955269,29.2792008 L20.9962294,29.3018653 C20.8624068,34.3533391 17.1814813,38.5177067 12.3614019,39.3788441 L12.3614104,42.1013133 C12.3614104,43.0958635 11.5890583,43.9181972 10.6164669,43.9942595 L10.4691479,44 C9.42840353,44 8.57688541,43.145591 8.57688541,42.1013133 L8.57661282,39.3637519 C3.78636764,38.4680545 0.141030355,34.3057975 0.0234941246,29.267964 C0.0209554123,29.2484741 0.0205269344,29.2283223 0.0205269344,29.208075 L0.0205269344,27.3397674 C0.0205269344,26.5595722 0.656738492,25.9212008 1.4343761,25.9212008 L19.586192,25.9212008 Z" id="Combined-Shape" fill="#6366F1"></path>
            <path d="M7.69245837,20.6378987 C7.69245837,21.6821764 6.84094025,22.5365854 5.80019589,22.5365854 L5.65287689,22.5308448 C4.68028543,22.4547825 3.9079334,21.6324489 3.9079334,20.6378987 L3.907,18.078 L4.96184635e-12,18.0787992 L4.96184635e-12,13.3733583 L0.121944214,13.3731504 C0.799168334,8.9461278 4.22541959,5.42802014 8.59696837,4.62868063 L8.59745348,1.89868668 C8.59745348,0.854409006 9.4489716,3.21251705e-14 10.489716,3.21251705e-14 L10.637035,0.00574054929 C11.6096264,0.0818028274 12.3819785,0.904136514 12.3819785,1.89868668 L12.381663,4.62853428 C16.7535941,5.42759065 20.1802223,8.94585757 20.8574877,13.3731504 L20.9793908,13.3733583 L20.9793908,18.0787992 L17.071,18.078 L17.0714985,20.6378987 C17.0714985,21.6324489 16.2991465,22.4547825 15.326555,22.5308448 L15.179236,22.5365854 L15.031917,22.5308448 C14.0593256,22.4547825 13.2869736,21.6324489 13.2869736,20.6378987 L13.286,18.078 L7.692,18.078 Z" id="Combined-Shape" fill="#A5B4FC"></path>
        </g>
    </g>
</svg>