<?xml version="1.0" encoding="UTF-8"?>
<svg width="72px" height="72px" viewBox="0 0 72 72" version="1.1" xmlns="http://www.w3.org/2000/svg" xmlns:xlink="http://www.w3.org/1999/xlink">
    <title>ai-vibe-coding-authentication-indigo-dark</title>
    <defs>
        <linearGradient x1="-3.88578059e-14%" y1="100%" x2="100%" y2="2.77555756e-15%" id="linearGradient-1">
            <stop stop-color="#202354" offset="0%"></stop>
            <stop stop-color="#3C4094" offset="100%"></stop>
        </linearGradient>
    </defs>
    <g id="ai-vibe-coding-authentication-indigo-dark" stroke="none" fill="none" fill-rule="evenodd">
        <rect id="Rectangle-Copy-6" fill="url(#linearGradient-1)" x="0" y="0" width="72" height="72" rx="11.3684206"></rect>
        <g id="laptop-code-duotone-solid-full-(1)" transform="translate(17, 17)" stroke-width="1">
            <g id="Group" transform="translate(0, 5.7)">
                <path d="M7.6,3.8 L30.4,3.8 L30.4,21 L7.6,21 L7.6,3.8 Z M11.815625,11.915625 C11.2575,12.47375 11.2575,13.37625 11.815625,13.9284375 L14.665625,16.7784375 C15.22375,17.3365625 16.12625,17.3365625 16.6784375,16.7784375 C17.230625,16.2203125 17.2365625,15.3178125 16.6784375,14.765625 L14.8378125,12.925 L16.6784375,11.084375 C17.2365625,10.52625 17.2365625,9.62375 16.6784375,9.0715625 C16.1203125,8.519375 15.2178125,8.5134375 14.665625,9.0715625 L11.815625,11.9215625 L11.815625,11.915625 Z M21.315625,9.065625 C20.7575,9.62375 20.7575,10.52625 21.315625,11.0784375 L23.15625,12.9190625 L21.315625,14.7596875 C20.7575,15.3178125 20.7575,16.2203125 21.315625,16.7725 C21.87375,17.3246875 22.77625,17.330625 23.3284375,16.7725 L26.1784375,13.9225 C26.7365625,13.364375 26.7365625,12.461875 26.1784375,11.9096875 L23.3284375,9.0596875 C22.7703125,8.5015625 21.8678125,8.5015625 21.315625,9.0596875 L21.315625,9.065625 Z" id="Shape" fill="#A5B4FC" fill-rule="nonzero"></path>
                <path d="M7.6,0 C5.5040625,0 3.8,1.7040625 3.8,3.8 L3.8,21 L7.6,21 L7.6,3.8 L30.4,3.8 L30.4,21 L34.2,21 L34.2,3.8 C34.2,1.7040625 32.4959375,0 30.4,0 L7.6,0 Z M1.14,20.9 C0.510625,20.9 0,21.410625 0,22.04 C0,24.5575 2.0425,26.6 4.56,26.6 L33.44,26.6 C35.9575,26.6 38,24.5575 38,22.04 C38,21.410625 37.489375,20.9 36.86,20.9 L1.14,20.9 Z" id="Shape" fill="#6366F1" fill-rule="nonzero"></path>
            </g>
        </g>
    </g>
</svg>