<svg height="226" viewBox="0 0 226 226" width="226" xmlns="http://www.w3.org/2000/svg"><path d="m106 0c-58.5421113 0-106 47.4578887-106 106 0 58.542111 47.4578887 106 106 106 58.542111 0 106-47.457889 106-106 0-58.5421113-47.457889-106-106-106zm2.290902 35.5517083c.821958.0732437 1.639847.1464875 2.575739.2319385-.500499.5086373-.891132.3418043-1.330595.1627639-.402841-.1627639-.85451-.2075239-1.281766-.3051823.012208-.0284837.024415-.0610365.036622-.0895201zm-59.0833012 30.5100959c.1139347-.0162764.3255278-.0447601.5330518-.0813819.5289827-.0895202.6266411.0162764.5167754.5574664-.2319386 1.1434165-.7853359 2.0508253-1.8392322 2.4862188.2441459-.9196161.5086372-1.9002687.7934741-2.9623033zm-3.0274089 11.2469866c-.3133205 1.4038388-.626641 2.8117466-.9399616 4.2155854-.4882917-1.57881-.3133205-3.0152015.9399616-4.2155854zm75.9619191 56.3244532c-3.767984.472015-7.409827-.195317-10.962149-1.391632-5.997851-2.022341-11.3080234-5.171823-15.5927835-9.891977-.8829942-.972514-1.6032246-2.095585-2.3926296-3.15762-.1098656-.150556-.1831094-.325527-.1831094-.573742.2929751.264491.6103647.504568.870787.793474 1.2817658 1.411977 2.5147025 2.868714 3.8330902 4.244069.8423033.882994 1.786334 1.676468 2.7140883 2.469942.345873.292975.777198.484223 1.184107.728369-1.3957-1.595087-2.7507097-3.149482-4.1057193-4.703877.0488292-.044761.0976584-.089521.1464875-.134281 2.5147028 2.669329 5.3834168 4.858503 8.7444918 6.45359.061036-.22787.105796-.386565.166833-.618503.122073.113934.211593.191247.297044.276698 1.977581 2.046757 4.353934 3.328522 7.149405 3.906334 3.279693.675471 6.587869.878925 9.92046.821958.370288-.008138.736507 0 1.106795 0 .012207.052898.024415.105797.036622.158695-.976584.207524-1.949098.488292-2.937889.614434zm-28.113397-10.123916-.126142.105797c-.2644914-.260423-.5656046-.492361-.7812668-.785336-1.2288676-1.647985-2.494357-3.279693-3.6214971-4.996852-.248215-.378426.0081382-1.08238.0284836-1.639847h.1586949c1.4485988 2.43739 2.8931286 4.874779 4.3417274 7.312169zm-2.286833-10.127984c.9725144 1.074241 1.9246833 2.856506 2.2095202 3.910403-.040691.028483-.081382.061036-.122073.08952-.6958157-1.334664-1.3916315-2.669328-2.0874472-4.003993zm68.486987-5.900192c-.036622-.008139-.073244-.016277-.109866-.024415.402841-1.957236.801612-3.918541 1.204453-5.875777l.17904.052898c-.423186 1.949098-.850441 3.898196-1.273627 5.847294zm4.317312-25.049367c-.480153-1.5340499-.919616-3.0843762-1.448598-4.6062188-.54526-1.5584645-1.114933-3.116929-1.790403-4.6224952-.667333-1.4811516-1.477083-2.8971977-2.270557-4.4312476-.423186.7649904-1.0227 1.0959437-1.798541.9928599-.907409-.1220729-1.212592.1342802-1.070173 1.0498273.130211.8423032.370288 1.6683301.577812 2.494357.040691.1627639.150556.3133205.256353.4516698.431324.5615355.594088.54119.891132-.0813819.024415-.0488292.069175-.0895202.170902-.2197313.541191.5778119.935893 1.2288675 1.090519 1.9490979.4476 2.0508253.80975 4.117927 1.204453 6.1768906.016276.0935892.020345.1912476.036622.3580806-.891133-.5533973-.923686-1.7822649-1.936891-2.160691.284837 2.0019962.891132 3.865643 2.181036 5.5176967-.724299.1057966-.80975.663263-.789405 1.2125912.032553.8911324.085452 1.7904031.223801 2.6693282.203455 1.2980423.431324 1.4241843 1.782265 1.0823801-.126142.4150479-.223801.7771977-.349943 1.1312092-.427255 1.2085221-.964376 2.3926295-1.265489 3.6296353-.305182 1.249213-.386564 2.5594626-.549328 3.7272937-.256354-.6307102-.581881-1.4241843-.90334-2.2176584-.04476 0-.08952.0081382-.13428.0122073v2.5228407c-.581881-.2441459-.960307-.040691-.931824.4842226.142419 2.6856051-.801612 5.0782341-1.965374 7.4138961-.36215.732438-.728369 1.464876-1.08238 2.197313-.606296 1.249213-1.119002 2.522841-1.12714 4.113858-.516776-.691747-.939962-1.257351-1.432323-1.916545-.80975 1.237006-1.66833 2.356008-1.961305 3.780192-.040691.203455-.008138.427255.028484.634779.187178 1.029482.109866 1.48929-.45167 2.388561-.492361-.626641-.008138-1.123071.146488-1.76192-.252285.170902-.528983.313321-.748714.520845-1.204453 1.131209-2.388561 2.286833-3.593014 3.418042-5.086372 4.773052-11.002841 7.971363-17.879616 9.273474-6.661113 1.26142-13.167601.500499-19.552015-1.635777-.219732-.073244-.439463-.154626-.663263-.22787-.386565-.126142-.716162-.260422-.882995-.724299-.097658-.276699-.435393-.480154-.695815-.679539-2.701881-2.07524-5.32238-4.24-7.7353554-6.657045-5.8106718-5.81474-8.1259885-12.874625-7.5685221-20.9802683.0284837-.3865643.0366219-.7771977.081382-1.163762.1383493-1.2370058.2034549-2.4414587.9399616-3.5889444.667332-1.041689.9074088-2.3478694 1.3834933-3.5157005.4476007-1.0986565.8992706-2.1973129 1.4526679-3.243071.3418042-.6429175.7853359-1.285835 1.330595-1.7537812.7568522-.6469866 1.2532822-1.4404607 1.7822649-2.2542803 2.3519386-3.6214971 5.7252208-5.9571593 9.7536278-7.3243762 8.398618-2.8483685 16.646679-.0976583 22.229482 6.2867563.020345.0244146.028483.0528982 0 0-8.638695-6.0629559-17.533743-6.2257198-26.180576-.1424185-6.6163534 4.655048-9.1554705 11.5318235-8.9479465 19.4706331.0488292.036622.0976584.069175.1424185.105797.1953167-.158695.3906334-.31739.5086372-.410979.2604223 1.680537.4191171 3.43025.8178887 5.118925 2.3763531 10.10357 11.4341651 18.27025 21.7208441 19.608983 3.38549.439462 6.673321.028484 9.830941-1.31025.17904-.077313.431324.012208.646986.016277.146488 0 .305183.020345.443532-.016277 2.12-.561535 4.052822-1.456737 5.603148-3.076238.610365-.638848 1.322457-1.184107 2.083378-1.66833-.31739.345874-.655125.67954-.9481 1.045758-.101727.130212-.097658.341805-.138349.516776.183109.020345.398771.113935.54119.048829.439462-.203455.891132-.415048 1.265489-.712092 1.603225-1.26549 3.198311-2.539117 4.764914-3.849367 1.163762-.976583 2.262418-2.022341 3.405835-3.01927.781267-.683609 1.017274-1.53405.842303-2.518772-.227869-1.281766.386564-2.66119 1.558465-3.165758.919616-.394703 1.460806-.968445 1.786334-1.945029.638848-1.916545 1.542188-3.747639 1.765988-5.786257.073244-.6836086.085451-1.3712861.122073-2.0589637-.056967-.0122073-.109866-.0244145-.166833-.0366218l-.748714 1.5299808c1.017275-4.154549.744645-8.3579271.646987-12.5572361-.020346-.9318234 0-1.867716 0-2.8036085 0-.3255278.093589-.6714011-.370288-.7934741-.069175-.0162763-.118004-.2278694-.126142-.3499424-.31739-5.4729366-2.205451-10.4290979-4.952092-15.1044913-2.319386-3.9551632-5.216584-7.4423801-8.545106-10.5918618-5.070096-4.7974664-11.088292-7.5807294-17.932514-8.7119386-4.24407-.6998849-8.500346-.9725144-12.785106-.4679463-.923685.1098657-1.843301.2848369-2.583877.3987716-.27263-.1912476-.439463-.4069098-.58595-.3947025-2.876852.288906-5.7292901.703954-8.2277162 2.3193858-1.9572361 1.2654895-4.0080614 2.3031094-6.2826871 2.8727831-.248215.0610365-.4476008.3173897-.622572.5696737 1.1271401.248215 2.0955854-.3662188 3.1372745-.419117.0244146.0528982.0528983.1017274.0773128.1546257-.5127063.2726295-.9969289.6632629-1.5421881.789405-1.0172744.2400767-2.0671017.3621497-3.1087907.4679462-1.660192.1709021-3.1820346.6917467-4.5655279 1.6276392-1.3916315.9399616-2.6042226 2.0671017-3.7883301 3.2878311.263135.1139347.9101216-.066462 1.9409597-.5411901-.1139348.7202304-.7975432 1.2573513-1.4445298 1.4038388-1.0498272.2400768-2.1728982.4394626-3.0843762.9725144-1.7375048 1.0213436-3.4343186 2.1484837-4.9846449 3.4302495-3.9307485 3.2471402-7.3609981 6.9907102-10.392476 11.0882918-.3906334.5289827-.7405758 1.0864491-1.1596929 1.7130902.4760845.1057965.8626488.1912476 1.3021113.2889059-.0732437.2034549-.1180038.3865643-.1993858.5493283-.7649904 1.5950863-1.5340499 3.1901727-2.3112476 4.7771209-.3011132.6103647-.626641 1.2085221-.956238 1.8026103-1.2207293 2.1851056-1.9775815 4.4719386-2.1484836 7.0110557-.2563532 3.8005374-.7731286 7.5847982-1.0905183 11.3853362-.292975 3.531977-.4476008 7.072092.2726296 10.583723.2441458 1.192246.6469865 2.319386 1.3672169 3.320384.1180038.166833.1505566.435394.1342802.651056-.040691.638848-.0773129 1.285835-.2034549 1.912476-.1993858.984722-.0203455 1.871785.4760845 2.730365.3295969.569673.5981573 1.175969.915547 1.80261-.2278695.056967-.4435317.109866-.6551248.158695-.0162764.040691-.0528983.081382-.0447601.105796.6917467 1.704952 1.3387332 3.434319 2.1037237 5.106718.4272552.935893 1.2451439 1.456737 2.331593 1.48929.7202304.020345 1.3753551.284837 1.8880615.80975 1.6723992 1.713091 2.4740115 3.906334 3.4587332 6.140269-1.2125912-.292975-1.8961996-1.074242-2.6978119-1.84737.0406909.264491.0528982.533052.1302111.785336.581881 1.879923 1.5950864 3.540115 2.6733973 5.163685.3092515.467946.6469866.919616.9806526 1.391631-.0935892.122073-.1709021.231939-.2563532.329597-.6510556.76906-.6958157.801612-.0813819 1.582879.6185029.789405 1.3387332 1.501497 1.9694434 2.197313-.1180039.024415-.5289828.028484-.5533974.122073-.0610364.256353-.0203454.581881.0935893.826027.2807678.594088.581881 1.196315.956238 1.733436 1.6479846 2.356007 3.3285221 4.6876 5.0660269 7.12499.2400767-.386564.415048-.67547.6388483-1.033551.4272553 2.714088 2.0955855 4.659117 3.6499808 6.657044.1424185.18311.5045682.329597.7324377.297044 1.0905182-.158694 1.8188867.134281 2.4902879 1.123072.6876775 1.005067 1.6846065 1.827024 2.6449136 2.608291.6917466.561536 1.5503263.923685 2.3885605 1.407908-.3173897.427255-.703954.944031-1.1312093 1.513705.288906.101727.5045682.183109.7202304.256353 1.1515547.390633 2.2176583.927754 3.161689 1.71309 1.2329367 1.025413 2.7181574 1.570672 4.1993091 2.12.0651055.024415.1464875.008138.292975.016276-.3214587-.577812-.6144338-1.102725-.9928599-1.778195.2400768.174971.3621497.240076.4516699.333666.6429175.651055 1.3265259 1.269558 1.9084069 1.969443 2.7303647 3.2919 6.290825 5.045681 10.433167 5.786257 2.372284.423186 4.732361.911478 7.096507 1.375355.17904.036622.354011.109866.622572.195317-1.139348 0-2.16476.028484-3.190173-.004069-3.344799-.109866-6.701804-.158695-9.96929-.980653-6.6204222-1.66833-12.7851055-4.398695-18.4899807-8.154472-10.4168906-6.85643-18.6120537-15.808445-24.9069482-26.526449-4.6835316-7.975432-7.9143954-16.500192-9.4891363-25.631248-.7975431-4.618426-1.123071-9.265336-.9318234-13.948867.0488292-1.241075-.0651055-2.490288-.0488291-3.731363.0325527-2.897198.126142-5.7984645.1424184-8.6956622.0081382-1.5137044.0813819-3.0640307-.2034549-4.532975-.2156622-1.1230711-.0284837-2.0711709.2766986-3.0884453 1.7334357-5.7008062 3.7110173-11.3080231 6.3315164-16.6710941.0935892-.1912476.1953167-.374357.3011132-.5900192.7242994.2644914 1.2410749-.0773128 1.6398464-.5859501.3947025-.500499.7771977-1.0294817 1.0416891-1.6032245 1.03762-2.242073 2.0223417-4.5044914 3.0314779-6.7587716.1790403-.3947025.3784261-.7649904.8992707-.8097505.1057965-.0081382.2441458-.1871785.2807677-.3092515.3621497-1.3102495 1.0905183-2.4211132 1.9694434-3.409904 1.2166603-1.3631478 2.4699424-2.6978119 3.7883301-3.9633013 2.2990403-2.2135893 4.6509789-4.3661421 6.9866411-6.5390403.0244146-.0244146.0691747-.0244146.1505566-.0488292.0651056.333666.1302112.667332.2034549 1.0335509.1017275-.0528983.1790403-.0773129.2319386-.122073 3.2959693-2.9541651 7.1127831-5.0945105 11.0923609-6.9337428 3.7923992-1.7537812 7.6458349-3.3814203 11.5969289-5.1189251-.2034549.7039539.2034549.7283685.5737428.667332 1.2085221-.1912476 2.4129751-.4191171 3.6174279-.6266411 1.009136-.1749712 2.022342-.3418042 3.076238-.3824952-.952169.5249137-1.900269 1.0538964-2.852437 1.57881.012207.0732438.024414.1464876.040691.2197313 2.384491-.8056814 4.724222.0651056 7.202303.040691-.695816.2644914-1.293973.4923608-1.892131.7202303.004069.0610365.012208.1261421.016277.1871785.207524.0366219.419117.1139348.626641.1057966 1.241075-.0569674 2.502495-.0040691 3.711017-.2360077 2.111862-.3987716 4.191171-.663263 6.384415.2034549-.09359-.5167754-.162764-.9196161-.236008-1.3387332.097658 0 .158695-.0162764.207524 0 3.373282 1.123071 6.762841 2.2095201 10.111708 3.4017658 1.314319.4679463 2.587946 1.0905182 3.792399 1.7944722.996929.581881 1.932822.5900192 2.950096.2400768.952169-.3255279 1.912476-.5411901 2.917544-.2929751.264491.0651056.524913.1424184.789405.2034549.663262.1505566 1.184107.4353935 1.35094 1.1759693.056967.248215.240077.4964299.419117.6876775 1.070173 1.1312093 2.425182 1.8555087 3.845298 2.7385029.008138-.6754702-.415048-.956238-.712093-1.2980422-.297044-.3418042-.618502-.6673321-.882994-1.0416891 10.290749 6.2623417 18.030173 14.6568906 22.062649 26.1683686l-.130211.1098656c-.305182-.3987716-.610365-.7934741-.915547-1.1922457-.056968.0203455-.113935.0366219-.166833.0569674-.016277.2156622-.069175.4353935-.048829.6469865.08952.8138196.2238 1.619501.292975 2.4333206.032552.3540115-.069175.7161612-.077313 1.0742418 0 .1993858.048829.4069098.105796.6062956.809751 2.7995394 1.62764 5.5990787 2.441459 8.394549.020346.0732437.024415.1505566-.012207.2400767zm-35.759232 25.75739s.008138.004069.016277.008138c0 0 .008138 0 .012207.004069 1.212591-.341804 2.20952-.944031 2.710019-2.193244.211593-.533052.528983-1.021343.830096-1.517773-.484223 1.627639-1.285835 3.092514-2.221727 4.41904-.455739-.248215-.887064-.480154-1.318388-.708023-.008138 0-.016277.004069-.024415.008138l.012208-.012207s-.012208.012207-.012208.012207c0-.008138 0-.012207 0-.020345-.500499-.166833-.427255-.577812-.272629-.895202.337735-.695816.736506-1.363148 1.143416-2.018272.252284-.40691.569674-.777198.968446-1.106795-.142419.27263-.276699.549328-.431325.81382-.455739.789405-.939961 1.562533-1.359079 2.372284-.118003.227869-.04476.549328-.052898.834165zm-6.229789 4.231861c-.699885.59002-1.3957 1.184108-2.103723 1.757851-.085451.069174-.264492.077313-.382496.048829-1.21666-.321459-2.429251-.646987-3.637773-.996929-.236008-.069175-.435393-.256353-.651056-.390633.012208-.061037.024415-.122073.036622-.18311.313321-.036622.63071-.122073.935893-.097658 1.920614.166833 3.83309.150556 5.806602-.13835zm11.450442-18.433013c.126142-.1790403.276698-.3418042.419117-.5208445.549328.5737428.606295 2.7995394.028484 3.6540499-.260423-1.1393474-1.241075-1.9897889-.447601-3.1332054z" fill="#e91d62" transform="translate(6 7)"/></svg>