<svg height="226" viewBox="0 0 226 226" width="226" xmlns="http://www.w3.org/2000/svg"><g fill="#2395ec" transform="translate(5 32)"><path d="m213.868009 66.8112231c-.58596-.458998-6.062428-4.5314812-17.614847-4.5314812-3.051497.0135-6.09398.2699989-9.100403.7694968-2.235661-15.0929374-14.509261-22.184908-15.077191-22.5134067l-3.101079-1.7639927-2.041843 2.897988c-2.555686 3.8969839-4.813884 7.9199672-5.909177 12.4334485-2.068888 8.6174643-.811329 16.7084308 3.632949 23.6249021-5.372799 2.9474878-14.52729 3.2084867-16.26714 3.2714865h-141.61290951c-3.72309707.0044999-6.74304263 2.9699876-6.76557953 6.6329725-.16677312 12.298449 1.59110564 24.9883961 5.88664015 36.5353481 4.90853839 12.680948 12.21500369 22.022909 21.71656379 27.737886 10.6464349 6.421473 27.9457649 10.094129 47.5573815 10.094129 8.8570045.026329 17.7004869-.761168 26.4087476-2.358662 12.106827-2.19149 23.758408-6.358473 34.467946-12.329948 8.825453-5.03548 16.767459-11.438953 23.524024-18.967422 11.29099-12.590948 18.016003-26.60839 23.019197-39.0688379h1.992262c12.363748 0 19.963193-4.8734798 24.155058-8.9549629 2.785561-2.6054892 4.962626-5.7779761 6.373437-9.2924615l.887954-2.5559894z"/><path d="m35.7047425 76.499683h-13.5221443c-2.4880745 0-4.5073814-2.0159916-4.5073814-4.4999814v-13.499944c0-2.4839897 2.0193069-4.4999814 4.5073814-4.4999814h13.5221443c2.4880746 0 4.5073815 2.0159917 4.5073815 4.4999814v13.499944c0 2.4839898-2.0193069 4.4999814-4.5073815 4.4999814z"/><path d="m62.7490312 76.499683h-13.5221443c-2.4880746 0-4.5073815-2.0159916-4.5073815-4.4999814v-13.499944c0-2.4839897 2.0193069-4.4999814 4.5073815-4.4999814h13.5221443c2.4880745 0 4.5073814 2.0159917 4.5073814 4.4999814v13.499944c0 2.4839898-2.0193069 4.4999814-4.5073814 4.4999814z"/><path d="m89.7933198 76.499683h-13.5221443c-2.4880746 0-4.5073815-2.0159916-4.5073815-4.4999814v-13.499944c0-2.4839897 2.0193069-4.4999814 4.5073815-4.4999814h13.5221443c2.4880745 0 4.5073814 2.0159917 4.5073814 4.4999814v13.499944c0 2.4839898-2.0193069 4.4999814-4.5073814 4.4999814z"/><path d="m116.837608 76.499683h-13.522144c-2.488074 0-4.5073813-2.0159916-4.5073813-4.4999814v-13.499944c0-2.4839897 2.0193073-4.4999814 4.5073813-4.4999814h13.522144c2.488075 0 4.507382 2.0159917 4.507382 4.4999814v13.499944c0 2.4839898-2.019307 4.4999814-4.507382 4.4999814z"/><path d="m62.7490312 49.4997949h-13.5221443c-2.4880746 0-4.5073815-2.0159917-4.5073815-4.4999814v-13.499944c0-2.4839897 2.0193069-4.4999814 4.5073815-4.4999814h13.5221443c2.4880745 0 4.5073814 2.0159917 4.5073814 4.4999814v13.499944c0 2.4839897-2.0193069 4.4999814-4.5073814 4.4999814z"/><path d="m89.7933198 49.4997949h-13.5221443c-2.4880746 0-4.5073815-2.0159917-4.5073815-4.4999814v-13.499944c0-2.4839897 2.0193069-4.4999814 4.5073815-4.4999814h13.5221443c2.4880745 0 4.5073814 2.0159917 4.5073814 4.4999814v13.499944c0 2.4839897-2.0193069 4.4999814-4.5073814 4.4999814z"/><path d="m116.837608 49.4997949h-13.522144c-2.488074 0-4.5073813-2.0159917-4.5073813-4.4999814v-13.499944c0-2.4839897 2.0193073-4.4999814 4.5073813-4.4999814h13.522144c2.488075 0 4.507382 2.0159917 4.507382 4.4999814v13.499944c0 2.4839897-2.019307 4.4999814-4.507382 4.4999814z"/><path d="m116.837608 22.4999068h-13.522144c-2.488074 0-4.5073813-2.0159917-4.5073813-4.4999814v-13.49994405c0-2.4839897 2.0193073-4.49998135 4.5073813-4.49998135h13.522144c2.488075 0 4.507382 2.01599165 4.507382 4.49998135v13.49994405c0 2.4839897-2.019307 4.4999814-4.507382 4.4999814z"/><path d="m143.881897 76.499683h-13.522144c-2.488075 0-4.507382-2.0159916-4.507382-4.4999814v-13.499944c0-2.4839897 2.019307-4.4999814 4.507382-4.4999814h13.522144c2.488075 0 4.507381 2.0159917 4.507381 4.4999814v13.499944c0 2.4839898-2.019306 4.4999814-4.507381 4.4999814z"/></g></svg>