<svg height="226" viewBox="0 0 226 226" width="226" xmlns="http://www.w3.org/2000/svg" xmlns:xlink="http://www.w3.org/1999/xlink"><linearGradient id="a"><stop offset="0" stop-color="#e3ddcb"/><stop offset=".6667" stop-color="#f5ebde"/></linearGradient><linearGradient id="b" x1="-4.443182%" x2="127.013636%" xlink:href="#a" y1="50%" y2="50%"/><linearGradient id="c" x1="50.000478%" x2="50.000478%" xlink:href="#a" y1="-9.52%" y2="32.203158%"/><linearGradient id="d" x1="49.999826%" x2="49.999826%" y1="-17.804878%" y2="74.22561%"><stop offset="0" stop-color="#ffe886"/><stop offset="1" stop-color="#ffc96a"/></linearGradient><linearGradient id="e" x1="152.896041%" x2="177.547771%" y1="17.404989%" y2="8.855527%"><stop offset=".0578" stop-color="#fff4ed"/><stop offset="1" stop-color="#f5ebde"/></linearGradient><linearGradient id="f"><stop offset="0" stop-color="#ffd486"/><stop offset="1" stop-color="#ff9c34"/></linearGradient><linearGradient id="g" x1="50%" x2="50%" xlink:href="#f" y1="725.85%" y2="-371.3%"/><linearGradient id="h" x1="50%" x2="50%" xlink:href="#f" y1="409.183333%" y2="-687.966667%"/><linearGradient id="i" x1="50%" x2="50%" xlink:href="#f" y1="109.183333%" y2="-987.966667%"/><linearGradient id="j" x1="50%" x2="50%" xlink:href="#f" y1="638.775%" y2="-1006.95%"/><linearGradient id="k" x1="50%" x2="50%" xlink:href="#f" y1="763.775%" y2="-881.95%"/><linearGradient id="l" x1="50%" x2="50%" xlink:href="#f" y1="263.775%" y2="-1381.95%"/><linearGradient id="m" x1="50%" x2="50%" xlink:href="#f" y1="-161.225%" y2="-1806.95%"/><linearGradient id="n" x1="50%" x2="50%" xlink:href="#f" y1="1263.775%" y2="-381.95%"/><linearGradient id="o" x1="50%" x2="50%" xlink:href="#f" y1="59.183333%" y2="-1037.96667%"/><linearGradient id="p" x1="61.926757%" x2="55.976897%" xlink:href="#a" y1="137.711259%" y2="95.834994%"/><linearGradient id="q" x1="65.906166%" x2="57.576489%" xlink:href="#a" y1="179.012426%" y2="113.502864%"/><linearGradient id="r" x1="60.136906%" x2="56.346213%" xlink:href="#a" y1="96.945442%" y2="79.986312%"/><g fill="none" transform="translate(17 4)"><path d="m191.245476 98c-1.754524-22.75-12.281666-31.5-35.090476-31.5h-40.354048v17.5h42.108572c10.527143 0 15.266111 6.6745 15.790714 14l1.754524 49c.636892 8.8865-5.253044 17.62775-14.036191 19.25l-45.617619 12.25v17.5l49.126667-12.25c17.525938-3.56125 28.072381-14 28.072381-38.5z" fill="url(#b)"/><path d="m68.4288095 217c29.3637105-.392 75.3550435-5.94125 73.6900005-22.75-.29827-3.0065-3.519575-29.96875-3.519575-55.71475l.010527-87.78525h-129.83476204l-.07193548 87.78525c0 25.74425-1.38607381 52.70825-1.68258833 55.71475-1.6650431 16.80875 32.04462285 22.358 61.40833335 22.75z" fill="url(#c)"/><path d="m131.54254 182.0175c-1.358001-15.1725-1.754524-48.28075-1.754524-61.2675v-63h-61.3627156-.0526357-50.8285547v63c0 12.985-.3965224 46.09325-1.7545238 61.2675-1.4387096 16.086 27.0863385 19.00325 52.5830785 19.2325h.0263179.0263178c25.4967401-.22925 64.5559496-3.1465 63.1172396-19.2325z" fill="url(#d)"/><path d="m96.4976814 84c-.814099-4.8475-.8351533-9.17875 1.7597874-14 2.0352472-4.956 7.5251522-4.48 8.7971822.063 1.466782 5.23775 2.054548 10.234 1.729961 17.437l-1.754524 15.75c0 9.84375 4.412627 14 8.772619 14s7.018095-5.1765 7.018095-14l-1.754524-21c-.321078-6.07075.010527-11.52025 1.67908-17.24625.626365-2.149 3.051117-3.773 5.296907-3.75375h.042109c5.814491 0 15.790714 0 15.790714-8.75 0-5.25-1.754524-12.25-8.772619-14-5.105664-1.274-3.509048-5.25-3.509048-7 0-4.75125-1.754524-12.25-14.03619-10.5-3.473957.49525-3.509048-1.75-3.509048-1.75 0-7.7315-6.284704-12.25-14.03619-12.25-2.9511095 0-4.3424468.546-7.0707314 1.7815-3.8915338 1.764-11.4307226 3.5105-17.4978659-1.7815-4.4933355-3.92-11.237725-7-17.5452381-7-8.0795822 0-15.1082045 3.20775-17.5452381 10.5-1.7545238 5.25-4.4705267 4.4835-7.0180953 3.5-13.378244-3.5-17.545238 7-17.545238 15.75.449158 2.28725-1.1158772 5.2605-3.4529029 5.25h-.0561448c-3.18270616-.00525-6.22505045 1.39125-8.26029807 3.8325-8.79191881 10.535-1.85804071 22.4175 8.26029807 22.4175 3.8599524 0 7.0356405 1.59425 8.7726191 3.5 4.8442402 5.31475 11.6237202 8.60475 17.5452381 0 4.679315-6.5625 10.5271428-2.30125 12.2816666 0 2.0422658 2.6775 9.020007 8.267 17.5452381 3.5 6.3548853-3.5525 16.6556946-3.56475 16.8504467 7.15925.0421086 2.27675-.6386466 6.28075-1.0597324 8.59075-5.2635714 15.75 2.4265065 17.5 7.0233588 17.5 3.5037841 0 10.1674655-1.61525 5.2583079-17.5z" fill="url(#e)"/><ellipse cx="56.147143" cy="103.25" fill="url(#g)" rx="5.263571" ry="5.25"/><ellipse cx="112.295414" cy="136.5" fill="url(#h)" rx="5.263571" ry="5.25"/><ellipse cx="38.601905" cy="168" fill="url(#i)" rx="5.263571" ry="5.25"/><ellipse cx="31.5803" cy="133" fill="url(#j)" rx="3.509048" ry="3.5"/><ellipse cx="82.465" cy="124.25" fill="url(#k)" rx="3.509048" ry="3.5"/><ellipse cx="75.446905" cy="159.25" fill="url(#l)" rx="3.509048" ry="3.5"/><ellipse cx="64.916253" cy="189" fill="url(#m)" rx="3.509048" ry="3.5"/><ellipse cx="31.58381" cy="89.25" fill="url(#n)" rx="3.509048" ry="3.5"/><ellipse cx="101.764762" cy="173.25" fill="url(#o)" rx="5.263571" ry="5.25"/><path d="m54.3943735 50.75175c-.5333752 0-1.0597323-.2415-1.4053735-.7-2.173855-2.891-5.5004322-4.55-9.1235238-4.55-3.6230917 0-6.9496689 1.659-9.1235239 4.55-.5789928.7735-1.6773247.931-2.4563333.35-.7754995-.57925-.9316521-1.6765-.3509048-2.45 2.8440831-3.78175 7.1917931-5.95 11.930762-5.95 4.7389688 0 9.0866788 2.16825 11.9307619 5.95.5825019.7735.4245947 1.87075-.3509048 2.45-.3158143.23625-.6842643.35-1.0509598.35z" fill="url(#p)"/><path d="m105.275564 50.75c-.621101 0-1.221149-.329-1.540472-.91-.775499-1.41225-2.910755-2.46575-5.1916358-2.5655-1.1772855-.05075-4.1161129.1085-5.8460734 2.695-.5368843.80325-1.6281981 1.02025-2.4335245.48475s-1.0228874-1.62225-.4860031-2.42725c1.912431-2.863 5.1670726-4.4065 8.9182445-4.25075 3.5529103.154 6.7408803 1.8725 8.1164273 4.38025.466703.847.154398 1.911-.694792 2.37475-.268442.14875-.557938.21875-.842171.21875z" fill="url(#q)"/><path d="m56.1506519 29.74825c-.3333596 0-.6719826-.0945-.9720062-.294-.8053264-.5355-1.0228874-1.62225-.4860031-2.42725 1.9141855-2.863 5.1600545-4.403 8.9182445-4.25075 2.5826591.112 4.9723205 1.05175 6.6145548 2.51825 2.7739021-2.75275 6.4934926-4.298 10.4920524-4.298 4.7389688 0 9.0866788 2.16825 11.9307619 5.95.5825019.7735.4245947 1.87075-.3509048 2.45-.7754995.58275-1.8738314.4235-2.4563333-.35-2.173855-2.891-5.5004322-4.55-9.1235238-4.55-3.6230917 0-6.9496689 1.659-9.1235239 4.55-.3579228.476-.9176159.742-1.5281902.69475-.5947836-.042-1.1281588-.38325-1.4141462-.90475-.7754995-1.41225-2.910755-2.46575-5.1916359-2.5655-1.1772855-.04375-4.1161129.1085-5.8460734 2.695-.3403776.50925-.8965616.78225-1.4632728.78225z" fill="url(#r)"/></g></svg>