<svg height="226" viewBox="0 0 226 226" width="226" xmlns="http://www.w3.org/2000/svg" xmlns:xlink="http://www.w3.org/1999/xlink"><linearGradient id="a"><stop offset="0"/><stop offset="1" stop-opacity=".2489"/></linearGradient><radialGradient id="b" cx="11.206875%" cy="50.862344%" gradientTransform="matrix(-.936315 0 0 -1 .217001 1.017246)" r="66.053547%" xlink:href="#a"/><radialGradient id="c" cx="47.040866%" cy="85.025575%" gradientTransform="matrix(.693719 0 0 1 .144077 0)" r="73.415923%" xlink:href="#a"/><radialGradient id="d" cx="46.333289%" cy="99.013664%" gradientTransform="matrix(1 0 0 .934616 0 .064739)" r="49.999198%" xlink:href="#a"/><linearGradient id="e" x1="46.299194%" x2="50.780261%" y1="31.641909%" y2="67.13183%"><stop offset="0"/><stop offset="1" stop-opacity="0"/></linearGradient><linearGradient id="f" x1="13.342944%" x2="65.508904%" y1="94.105891%" y2="6.706493%"><stop offset="0" stop-color="#422600"/><stop offset="1" stop-color="#be7900"/></linearGradient><linearGradient id="g" x1="50.631274%" x2="48.061156%" y1="49.35837%" y2="53.105582%"><stop offset="0" stop-color="#ffcd00"/><stop offset="1" stop-color="#ffcd00" stop-opacity="0"/></linearGradient><linearGradient id="h" x1="22.501905%" x2="72.585184%" y1="25.914515%" y2="109.147286%"><stop offset="0" stop-color="#ca8300"/><stop offset="1" stop-color="#3b2100"/></linearGradient><linearGradient id="i" x1="52.041878%" x2="69.372108%" y1="54.672177%" y2="113.926462%"><stop offset="0" stop-color="#f8c400"/><stop offset="1" stop-color="#f8c400" stop-opacity="0"/></linearGradient><linearGradient id="j"><stop offset="0" stop-color="#0b0200"/><stop offset=".5907" stop-color="#bb5a00" stop-opacity=".8"/><stop offset="1" stop-color="#ff9200" stop-opacity="0"/></linearGradient><radialGradient id="k" cx="45.069769%" cy="43.276513%" gradientTransform="matrix(.82788278 .25896903 -.22196831 .96588562 .173633 -.101953)" r="78.182434%" xlink:href="#j"/><radialGradient id="l" cx="45.138218%" cy="43.716292%" gradientTransform="matrix(.60831807 .1902967 -.11791564 .98172662 .228347 -.077908)" r="106.401539%" xlink:href="#j"/><linearGradient id="m"><stop offset="0" stop-color="#7d7d7d"/><stop offset="1" stop-color="#7d7d7d" stop-opacity=".3294"/></linearGradient><radialGradient id="n" cx="81.583819%" cy="86.214221%" gradientTransform="matrix(.503604 0 0 1 .404979 0)" r="36.646601%" xlink:href="#m"/><linearGradient id="o" x1="23.762597%" x2="32.361499%" xlink:href="#m" y1="49.468168%" y2="49.648786%"/><linearGradient id="p"><stop offset="0" stop-color="#fdfdfb"/><stop offset=".7573" stop-color="#fdfdfb"/><stop offset="1" stop-color="#d4d4d4"/></linearGradient><radialGradient id="q" cx="51.769579%" cy="45.353779%" gradientTransform="matrix(.99911474 -.02754237 .04206817 .65412842 -.018621 .171124)" r="55.526628%" xlink:href="#p"/><linearGradient id="r" x1="27.911176%" x2="71.003425%" y1="-24.198838%" y2="99.63757%"><stop offset="0" stop-color="#767675" stop-opacity="0"/><stop offset=".2629" stop-color="#767675"/><stop offset=".5" stop-color="#767675"/><stop offset="1" stop-color="#767675" stop-opacity="0"/></linearGradient><linearGradient id="s"><stop offset="0" stop-color="#d4d4d4"/><stop offset="1" stop-color="#7d7d7d"/></linearGradient><radialGradient id="t" cx="48.302128%" cy="34.506568%" gradientTransform="matrix(.63967 0 0 1 .174047 0)" r="89.622671%" xlink:href="#s"/><linearGradient id="u"><stop offset="0" stop-color="#646464" stop-opacity="0"/><stop offset=".3063" stop-color="#646464" stop-opacity=".5825"/><stop offset=".47" stop-color="#646464"/><stop offset=".7283" stop-color="#646464" stop-opacity=".2573"/><stop offset="1" stop-color="#646464" stop-opacity="0"/></linearGradient><linearGradient id="v" x1="8.79189%" x2="104.445903%" xlink:href="#u" y1="-1.114089%" y2="81.863142%"/><radialGradient id="w" cx="52.490992%" cy="49.136426%" gradientTransform="matrix(.99950071 -.02737421 .03159627 .86594243 -.015263 .08024)" r="53.723783%" xlink:href="#p"/><linearGradient id="x" x1="14.723288%" x2="110.998823%" y1="-2.875597%" y2="109.619866%"><stop offset="0" stop-color="#949494" stop-opacity=".3922"/><stop offset=".5" stop-color="#949494"/><stop offset="1" stop-color="#949494" stop-opacity=".3922"/></linearGradient><radialGradient id="y" cx="58.473271%" cy="56.615652%" gradientTransform="matrix(.51425 0 0 1 .284034 0)" r="92.270167%" xlink:href="#s"/><linearGradient id="z" x1="6.770022%" x2="99.511835%" xlink:href="#u" y1="5.63909%" y2="86.533583%"/><radialGradient id="A" cx="38.218067%" cy="52.731733%" gradientTransform="matrix(.59141535 -.58822416 .43017891 .80869793 -.070687 .325685)" r="58.994307%"><stop offset="0"/><stop offset=".7345"/><stop offset="1" stop-color="#5c5c5c"/></radialGradient><radialGradient id="B" cx="62.30722%" cy="18.188659%" gradientTransform="matrix(.45760476 -.38174586 .18900237 .92426733 .303574 .25163)" r="104.264357%"><stop offset="0" stop-color="#e59400"/><stop offset=".7514" stop-color="#eb9c00"/><stop offset=".8658" stop-color="#c87f00"/><stop offset="1" stop-color="#a46100"/></radialGradient><linearGradient id="C" x1="1.996496%" x2="95.643566%" y1="50.147414%" y2="49.777499%"><stop offset="0" stop-color="#be7900"/><stop offset=".1197" stop-color="#ea9e00"/><stop offset=".2551" stop-color="#ffb800"/><stop offset=".3919" stop-color="#f7c800"/><stop offset=".5274" stop-color="#ffd815"/><stop offset=".7691" stop-color="#ffd800"/><stop offset="1" stop-color="#ffcd04"/></linearGradient><linearGradient id="D"><stop offset="0" stop-color="#3d2400"/><stop offset=".5547" stop-color="#7e5100"/><stop offset="1" stop-color="#b78c00"/></linearGradient><radialGradient id="E" cx="42.982117%" cy="49.046489%" gradientTransform="matrix(.5252 0 0 1 .204079 0)" r="108.557074%" xlink:href="#D"/><radialGradient id="F" cx="55.824238%" cy="42.527668%" gradientTransform="matrix(1 0 0 .907269 0 .039436)" r="67.475499%" xlink:href="#D"/><linearGradient id="G" x1="50.806632%" x2="50.936321%" y1="24.200956%" y2="83.256591%"><stop offset="0" stop-color="#ffce00"/><stop offset="1" stop-color="#ea9b00"/></linearGradient><g fill="none" transform="translate(25 8)"><path d="m87.4704477.00208981c-5.0634567-.05496074-10.1892127.97165663-14.6468908 3.37557368-4.737615 2.554854-8.6186149 6.64163601-11.0101698 11.46669661-2.3899155 4.8225997-3.3293232 9.9733232-3.4711361 15.6457635-.2701002 10.7780468.2430492 22.0827323 1.0553992 32.3271677.2155883 3.119227.6029095 4.9448258.2069812 8.1460837-1.3324671 6.8073386-7.2853281 11.3895876-10.4580834 17.3688237-3.5002364 6.5961088-4.975336 14.0539533-7.6173177 21.0388883-2.4177863 6.392262-5.8118679 12.385443-8.1030063 18.824053-3.203495 9.003307-4.1609367 18.89624-2.0448102 28.215366 1.6132237 7.104291 4.9835333 13.765614 9.5256433 19.463484-.6574214 1.185347-1.2943497 2.383409-1.9730841 3.556452-2.1046503 3.638483-4.6761354 7.087884-5.874577 11.117245-.5992208 2.01468-.8353023 4.163481-.448391 6.22943.3869114 2.06595 1.4316541 4.042486 3.0739781 5.35293 1.0750726.857634 2.3718815 1.410112 3.7113163 1.720189 1.3398445.310077 2.7243643.385546 4.0990473.356014 5.2237134-.111152 10.284711-1.700091 15.3379211-3.027762 2.9948744-.786677 6.0118814-1.48517 9.0440534-2.112297 10.765891-2.207043 22.7818665-1.32603 32.7759838.124277 3.385065.511463 6.745948 1.181246 10.073222 1.98802 5.211417 1.263687 10.404391 2.875185 15.764589 3.027762 1.410751.040196 2.832978-.021738 4.21094-.328534 1.377552-.307205 2.714118-.867477 3.817471-1.748079 1.645193-1.312906 2.690346-3.292312 3.076847-5.362363.386502-2.070052.147961-4.225005-.458228-6.242146-1.211557-4.033872-3.806814-7.47548-5.959009-11.095096-.849237-1.428159-1.639045-2.893232-2.482135-4.324262 6.476667-7.278196 11.689724-15.695392 14.704682-24.94069 3.290796-10.091448 3.895345-20.956858 2.509596-31.481019s-4.720401-20.7271707-9.111681-30.3900067c-5.508159-12.1151513-10.1388-16.4927331-13.494764-27.1317374-3.627294-11.4986887-.63201-25.1051627-3.327684-35.534578-.96195-3.5466082-2.49566-6.9324357-4.468744-10.0319753-2.312042-3.6319204-5.244617-6.88690854-8.729278-9.41346186-5.559392-4.03018068-12.4430537-6.10556376-19.3086813-6.18021193z" fill="#000"/><path d="m67.6145985 60.7070451c-.7389843.9269497-1.2205742 2.0409301-1.5111676 3.1905939s-.397158 2.3382923-.4426528 3.5236395c-.0905799 2.3702844.054102 4.7856858-.5729895 7.073529-.6701273 2.4453427-2.1726878 4.5642022-3.6432789 6.6293314-2.5464834 3.5765495-5.1204278 7.245794-6.3766602 11.4535717-.7607071 2.5482915-1.0140029 5.2471098-.7406237 7.8926084-2.8506024 4.18932-5.318392 8.639089-7.3627924 13.276299-3.0985699 7.028002-5.2245331 14.510455-5.9725345 22.15533-.9156356 9.360962.2807567 18.988935 3.9752685 27.637458 2.671082 6.253219 6.6529083 11.977749 11.7868616 16.433261 2.6104222 2.265284 5.5097983 4.198754 8.6108274 5.723709 10.7462176 5.285665 24.0274424 5.295508 34.5949594-.339608 5.5229142-2.944911 10.1847042-7.251536 14.6796802-11.60902 2.70674-2.62417 5.399545-5.310684 7.464438-8.465594 3.975269-6.073982 5.359788-13.456358 6.220092-20.666058 1.50461-12.606517 1.552974-25.922191-3.971169-37.351564-1.901768-3.935025-4.435546-7.5632535-7.474276-10.7029882-.809071-5.5001754-2.40631-10.8838668-4.727368-15.9353328-1.674703-3.644225-3.721563-7.1129038-5.277406-10.8092185-.638567-1.5175726-1.193933-3.0712389-1.902587-4.5572296-.709064-1.4859907-1.583304-2.9157902-2.772319-4.0543798-1.217295-1.1656598-2.7346105-1.9921216-4.3343087-2.5212213-1.600108-.5286895-3.2842382-.7682199-4.9671387-.8531219-3.3658011-.1693939-6.73816.2711123-10.1056005.1374019-2.6805089-.1066403-5.3528206-.5766776-8.0308703-.4183579-1.3390248.0791599-2.6780497.3186903-3.9207566.8235908-1.2427069.5044903-2.3886859 1.2841945-3.2256277 2.3333704" fill="#fcfcfa"/><path d="m55.7560108 94.4824693c.7176714 1.0770664-.4463416 4.7914279 16.2785584 2.4141709 0 0-2.9370836.323202-5.8323611.9925745-4.5019434 1.5081391-8.4235197 3.1930553-11.4483142 5.4255273-2.9969237 2.206632-5.1917441 5.08756-7.9419298 7.562023 0 0 4.4535795-8.142802 5.5639004-10.594707 1.1103209-2.4519056-.1860782-2.3399333.6922598-5.9476546.8779282-3.6077213 3.0280734-7.0739391 3.0280734-7.0739391s-1.7554464 5.0974033-.3401869 7.222005z" fill="url(#b)" opacity=".25"/><path d="m109.537102 93.5104025c-3.408427 2.3760265-5.405693 2.0946604-9.5412182 2.5597759-4.1355252.4647053-15.3276745.2965419-15.3276745.2965419s1.6201914-.0303515 5.2114175.6390211c3.5912262.6693725 10.9163112 1.3096241 15.0407702 2.8805168 4.124459 1.5708928 5.629068 2.0191918 8.135795 3.6056708 3.568274 2.257902 6.186893 5.794666 9.597779 8.26872 0 0 .165176-3.282879-1.211967-5.734784-1.377142-2.451905-5.079441-6.3163835-6.168449-9.9241047-1.089008-3.6077213-1.606666-10.6968362-1.606666-10.6968362s-.72136 5.7290417-4.129787 8.1054784z" fill="url(#c)" opacity=".42"/><path d="m77.4800189 88.4359678c-.1266479 1.0290783-.2910032 2.0536449-.4922463 3.0708287-.0991871.5016193-.2082108 1.0036487-.3951087 1.4794282-.186488.4757795-.4549488.9273599-.8344826 1.2698392-.3323995.3002332-.7377547.5061309-1.1447494.6927513-1.588222.7276146-3.287927 1.2107769-5.0212408 1.4273386.6922599.0508592 1.3837.114023 2.0735007.1894915.4348654.047578.8701407.1004879 1.2939399.2091789.4233892.108691.8369417.2752139 1.1898344.5340215.3869114.283417.6910303.6701929.9176849 1.0930625.4520798.8424578.6033195 1.8116538.6869317 2.7640328.1069744 1.21816.1147618 2.445343.0233622 3.664733.0819728-.815798.2528859-1.622983.5086409-2.401866.4610967-1.40396 1.2037698-2.7201468 2.2038374-3.8078772.3967481-.4314828.8336628-.8272821 1.3132034-1.1648395 1.468132-1.0340002 3.333012-1.4884516 5.1118207-1.2452299-1.8074992.0799802-3.6371309-.4884943-5.0819006-1.5786856-.7357054-.5553496-1.3767323-1.2460502-1.8222542-2.0532348-.6893909-1.2476907-.8832564-2.7611618-.5307736-4.1429732" fill="url(#d)" opacity=".2"/><path d="m73.1215278 112.499748c-.8685012 3.307898-1.4660826 6.687163-1.7841368 10.092268-.4500304 4.815627-.3418264 9.665297-.6000406 14.494869-.2192771 4.098266-.7000473 8.239599.0110663 12.281674.3393672 1.927317.9484248 3.807056 1.8046301 5.56662.1360748-.671423.2356717-1.350639.2983808-2.033137.3012499-3.277136-.2500169-6.564937-.4365049-9.850687-.3266614-5.759393.4701138-11.515505.7947258-17.274898.2491972-4.421468.219687-8.858932-.0881207-13.276709z" fill="#000" opacity=".11"/><path d="m57.6327769 79.9277175c-.0832024-1.0147229-1.5320707-1.1668903-2.1776061-.6611695-.5455287.4273812-1.0574485 1.8883525-.586515 2.4584676.7648057.9261295 2.8784731-.4060532 2.7641211-1.7972981z" fill="#7d7d7d" opacity=".25"/><path d="m130.691809 107.651718c.838991-.130019 6.0168 4.275043 5.308146 5.911561-.708245 1.636517-2.037843.649685-2.988727.661169-.950884.011485-3.553109 1.193551-3.989204.447069s1.150898-2.488409 1.981282-3.944868c.668488-1.172633-1.150488-2.944912-.311497-3.074931z" fill="#7d7d7d" opacity=".75"/><path d="m99.0769693 9.12721291c-1.810778 1.27886259-1.019741 2.87559499-.2409999 4.47806969.7787411 1.6024746-1.7128206 6.2224579-1.7391561 6.4217931-.026127.1993352 4.9041237-2.3419837 6.2480667-3.9928566 1.586993-1.9494656 5.59751 2.6372951 5.379052 1.9396218.00123-1.2485111-7.836185-10.12549053-9.6469627-8.84662799z" fill="#7d7d7d"/><path d="m112.812733 62.861588c-1.527562 1.3920653.716032 3.4834444 1.780038 5.9410917.66152 1.5278265 2.491152 3.6794984 4.261354 3.3349684 1.331237-.2592178 2.157522-2.1766913 2.031694-3.5281512-.243049-2.6073539-2.441968-3.2180743-4.038797-4.1138523-1.265659-.7099779-2.961676-2.6114553-4.034289-1.6340566z" fill="#838384"/><g fill="#000"><path d="m65.9640772 73.2807494c1.2029501 3.490417 3.6240153 6.4697812 6.4889629 8.7965892.9525233.773962 1.9652966 1.4876313 3.0842247 1.9913013 1.118928.5036701 2.3534376.7911886 3.5760611.6874194 1.197212-.1017184 2.3362234-.5721659 3.3826055-1.1631989 1.0463822-.5914432 2.0173494-1.3055226 3.0325819-1.9490554 1.7394617-1.1029062 3.6027023-1.9945826 5.4089719-2.9838759 2.177606-1.1923199 4.2875846-2.5380377 6.1209051-4.2126995.8389911-.7665793 1.6218309-1.603295 2.5485328-2.2611832.9267019-.6578883 2.0366129-1.1348983 3.1702959-1.0577892.850467.0578319 1.648062.4199985 2.481315.5992361.416832.0898239.848418.1337105 1.269758.0697264.42134-.0643943.833253-.243632 1.128765-.5508379.36191-.3765221.520117-.9187467.501263-1.4408737-.018853-.522127-.200833-1.0270275-.444292-1.4896821-.486508-.9248989-1.225493-1.7214195-1.554203-2.7131737-.292643-.882653-.233623-1.8370832-.207801-2.766904.025821-.9298208.005328-1.9010673-.42298-2.7262987-.326251-.6287672-.873009-1.1275154-1.498871-1.4589205-.625452-.331405-1.327139-.5020294-2.031695-.5680643-1.409111-.13248-2.821502.1415034-4.2347122.2214836-1.8759463.1066402-3.7592702-.1283785-5.6352166-.0155859-2.3390924.1406831-4.6318702.8203095-6.9750612.824411-2.674361.0049219-5.3462627-.8707585-7.9878346-.4524007-1.1336831.1796478-2.2144938.5922635-3.3030919.9560708s-2.2128544.683728-3.3604729.6669116c-1.3025469-.0188671-2.5636977-.4704475-3.8633756-.5631425-.6496341-.0463475-1.3156627 0-1.9255399.2284562-.6098773.2284562-1.1615539.6529664-1.4611643 1.2316948-.1717329.3318152-.2565747.7046459-.2725594 1.0778867-.0159846.3732408.0356582.747302.1254183 1.1098788.1803401.7251536.51151 1.4014988.7840694 2.0971213.9840828 2.5121979 1.1959824 5.2651566 2.0751401 7.8154989" fill-opacity=".2588"/><path d="m62.6097523 63.3312152c2.3370431 1.4449753 4.433906 3.2193048 6.1946807 5.2425982 1.6341268 1.8776885 3.0239747 4.007212 5.1560859 5.3972265 1.5062493.9819105 3.3166175 1.5352092 5.1523972 1.7033727 2.1554734.1972844 4.3371781-.121816 6.4151873-.6849585 1.9259498-.522127 3.7887805-1.256304 5.4975025-2.2279606 3.2481701-1.8469269 5.9614681-4.553128 9.5436771-5.7671861.78202-.26496 1.59601-.4544515 2.349749-.7813448.753739-.3268934 1.463214-.8166181 1.823484-1.5089594.345925-.6656811.332809-1.4343112.445522-2.165207.1205-.7817549.39101-1.5380803.53979-2.3157337.148371-.7776535.165995-1.6098575-.198784-2.3243471-.302069-.5918533-.851696-1.0598399-1.483297-1.3572021-.632009-.2973622-1.343123-.4327132-2.051777-.4647053-1.417309-.0639841-2.816994.270292-4.2297943.3892369-1.8718477.1574994-3.7564012-.0643943-5.6352166-.0123047-2.3370431.0648045-4.6396576.5528886-6.9750613.654607-2.6645242.1160738-5.3220807-.2719326-7.9878345-.3588854-1.1529467-.0377342-2.3136809-.018457-3.450233.1644721-1.1365522.182929-2.2522013.5348418-3.2129219 1.123824-.9324401.5713456-1.6931472 1.3461279-2.5477131 2.0126294-.4274879.3334558-.8816169.6414821-1.3800112.8756804-.4988042.2341984-1.0447427.3937486-1.6037969.4183579-.2877243.0127148-.5779078-.0098437-.8627631.0307616-.4774913.0680857-.9209639.3215613-1.1996712.6853686-.2787074.3638073-.3897804.8326142-.2992006 1.2706594z" opacity=".3"/><path d="m132.88458 104.277375c4.298241 3.460066 7.025475 8.685027 7.870204 14.140496.658651 4.254535.230343 8.620632-.727918 12.817746s-2.438689 8.253954-3.907641 12.300541c-.585695 1.613549-1.17426 3.242684-1.407062 4.943596-.232803 1.700911-.085252 3.502311.734476 5.01045.939817 1.728802 2.693624 2.919482 4.578997 3.480163 1.861192.553299 3.871983.541405 5.756127.071777 1.884144-.470037 5.056079-1.078707 6.589789-2.270616 3.896165-3.027763 4.821227-8.284306 5.744241-12.900598.96277-4.814397.491836-9.861761-.354123-14.724966-1.153766-6.631792-3.095291-13.113878-5.566359-19.374891-1.817746-4.605217-4.146182-9.0078185-6.916861-13.0921396-2.717806-4.007212-6.574214-7.134642-9.423587-11.0524403-.989821-1.3613037-2.180475-2.7792087-3.153082-4.155688-2.096863-2.9674697-1.622241-2.4137608-2.922738-4.3345155-.943916-1.3937059-2.434181-1.8723565-4.00232-2.4818465-1.568138-.60949-3.328913-.7891378-4.948285-.3330457-2.13457.6012869-3.87813 2.2841519-4.805652 4.2996524s-1.089828 4.3283632-.729148 6.5177693c.465605 2.8243257 1.756266 5.4448044 3.211693 7.9094244 1.643553 2.7833102 3.54737 5.4624411 6.029915 7.5312617 2.589929 2.1594648 5.722518 3.5835218 8.349334 5.6978698"/><path d="m51.9102592 82.7778829c-4.9966489 5.6814637-10.1383896 11.1808188-12.9594817 17.3228861-1.395996 3.119637-2.0562865 6.508746-3.0129084 9.790394-1.0865488 3.726666-2.5616485 7.330696-4.2179079 10.841211-1.5292016 3.241453-3.2141514 6.406617-4.9015605 9.5685-1.2279518 2.300148-2.4759869 4.652386-2.9018353 7.225287-.3364981 2.033137-.1401734 4.131488.3770746 6.126071.5172481 1.994993 1.3488616 3.89565 2.2870397 5.730272 4.0035491 7.829034 10.0096924 14.577721 17.1245172 19.740339 3.2289066 2.342804 6.6873369 4.369378 10.3154508 6.027224 1.9657065.898239 4.0359283 1.699681 6.1963201 1.737005 1.0804008.018867 2.1714581-.15955 3.1608692-.594314.9890012-.434764 1.8722576-1.133668 2.4600022-2.04093.7225898-1.115621.9676883-2.501124.8225965-3.822642-.1450917-1.321109-.6602905-2.582335-1.3517306-3.717643-1.6882288-2.772646-4.3552122-4.779123-6.9201395-6.767554-5.5384888-4.2935-10.8962277-8.822429-16.0228034-13.600732-1.4476388-1.348999-2.8952775-2.741064-3.9064114-4.442386-.9849026-1.656615-1.5169057-3.544147-1.8775858-5.437832-.9885914-5.19502-.7352956-10.662383 1.0312172-15.646173.6910303-1.949876 1.6042067-3.811568 2.4854137-5.683105 1.5267425-3.243914 2.9719221-6.549761 4.9798446-9.520102 2.4993491-3.697545 5.8401485-6.8290764 7.8775812-10.8001948 1.7193784-3.3517847 2.4157369-7.1202867 3.0813556-10.8284959.520527-2.9014347 1.5189551-5.7429869 2.0267762-8.6468826-.9935097 1.8838408-4.1949554 4.9780483-6.1536943 7.4397972z"/></g><path d="m141.557297 131.122414c-1.409931 5.163849-3.451052 10.098011-5.229861 15.134711-.6025 1.698041-1.17221 3.420691-1.582074 5.180255-.176242-.967966-.168044-1.981048-.032789-2.957216.233622-1.702142.819727-3.330457 1.405832-4.942365 1.471411-4.048228 2.951019-8.104658 3.9101-12.300541.954983-4.199985 1.38534-8.564032.725459-12.821438-.844319-5.455058-3.569913-10.676329-7.869384-14.138035-2.565747-2.06718-5.615133-3.474011-8.168584-5.5493936 2.905934 1.5872986 5.943024 2.9736216 8.594843 4.9341616 4.594572 3.404285 7.840693 8.555828 8.762887 14.138035.733656 4.441976.889404 8.157978-.516429 13.321826z" fill="#838384"/><path d="m37.6117526 120.815225c-1.7665127 4.983381-2.0165296 10.450743-1.028758 15.647404.3606801 1.894915.893503 3.781627 1.877176 5.438652 1.0123634 1.702143 2.4591824 3.092567 3.9060015 4.441976.2213264.209179.4467514.414257.6680779.615233-.0983673-.008203-.1967346-.016407-.2910033-.028711-1.0615471-.135351-2.0657133-.615232-2.905934-1.279683-.8402206-.668552-1.5246931-1.517573-2.0780092-2.436319-.6844724-1.127926-1.1886048-2.370695-1.9755432-3.428894-.9426866-1.267378-2.2747438-2.235344-3.7707465-2.731631 1.1066321-.393748 2.0616147-1.197652 2.6354239-2.223039.6885711-1.226362.8197275-2.686513.7705439-4.089243-.0450851-1.402729-.2541156-2.805458-.1803401-4.208187.1434523-2.731631 1.3320572-5.278692 2.3485193-7.813449 1.3730435-3.408386 2.4796756-6.952123 4.3650489-10.102111 1.1435198-1.915423 2.565747-3.662682 4.205202-5.172052.1721428-.39785.4508501-.746482.7992343-1.000778.2500169-.188671.5328229-.324022.8361221-.406053-.9467853 1.16484-1.877176 2.337882-2.713298 3.57655-2.0083324 2.96952-3.4551514 6.275368-4.9798446 9.519692-.881207 1.870305-1.7952032 3.732408-2.4878729 5.680643z" fill="#7d7d7d" opacity=".95"/><path d="m161.815223 176.864514c-.33117 1.095113-.835712 2.153312-1.486986 3.117996-1.436572 2.129524-3.521549 3.731998-5.604887 5.210196-3.553518 2.520811-7.255818 4.833674-10.564238 7.698605-2.216543 1.919524-4.237171 4.071196-6.109839 6.337301-1.601747 1.937981-3.107586 3.972349-4.933529 5.695819-1.842338 1.739057-4.011747 3.143426-6.34838 3.908775-2.841995.930641-5.845067.885935-8.582957.183339-1.918572-.492185-3.78919-1.348178-4.977795-2.896102-1.193113-1.554077-1.579615-3.642175-1.717739-5.691718-.244279-3.625358.188537-7.330286.582826-11.010604.327481-3.057704.629961-6.118279.75333-9.16983.224605-5.550625-.142633-11.053261-.893503-16.452128-.125828-.904391-.262723-1.815345-.186078-2.746807.076234-.931461.388551-1.900247 1.041873-2.619248.60373-.66404 1.44559-1.057379 2.285401-1.250562s1.689868-.204667 2.533777-.227226c1.98784-.052909 3.987155-.169804 5.944664.004102 1.235329.109922 2.446477.335507 3.680167.454452 2.058335.198104 4.193726.093925 6.258209-.511463 2.222691-.651736 4.342507-1.874408 6.600856-2.210735.926702-.137812 1.856273-.121816 2.757153.004102.919325.128789 1.834141.383084 2.540746.944586.536921.426561.929981 1.012672 1.237378 1.637748.458228.930641.739395 1.958489.900471 3.012177.142633.933512.193046 1.894505.433636 2.797665.395518 1.485171 1.29189 2.747217 2.370242 3.774655 1.078351 1.027437 2.339502 1.839544 3.598194 2.639756 1.254183.79693 2.515743 1.588119 3.855178 2.245187.628731.308436 1.275086.587342 1.875946.942536.600861.355194 1.161144.792419 1.560352 1.368276.54102.780114.758248 1.80386.595532 2.80915z" fill="url(#e)" opacity=".2"/><path d="m173.918499 182.860566c-1.853404 2.201711-4.427758 3.654889-6.991046 4.962463-4.371606 2.230011-8.90183 4.186039-13.011944 6.868861-2.753465 1.797299-5.29503 3.906725-7.67183 6.180212-2.032514 1.944134-3.960103 4.020337-6.239355 5.667929-2.299746 1.661947-4.958532 2.866161-7.76364 3.28739-3.412115.512284-6.937763-.150526-10.101092-1.529877-2.216543-.966735-4.348244-2.348956-5.62497-4.403421-1.281644-2.062258-1.573876-4.586351-1.577186-7.015287-.005707-4.295551.789838-8.546395 1.539069-12.776321.622173-3.514616 1.214836-7.037025 1.596419-10.586095.694719-6.455015.689801-12.973605.225835-19.449538-.077464-1.084449-.167634-2.179563-.005738-3.254578.161896-1.075016.603729-2.14675 1.427556-2.855908.760707-.655017 1.780858-.944586 2.782974-.999957 1.002117-.055371 2.002185.103769 2.994875.248964 2.339912.342069 4.698678.611541 6.985718 1.213238 1.44313.379803 2.848962.890035 4.289633 1.280093 2.403441.650505 4.921234.962223 7.394352.673064 2.662475-.311718 5.248306-1.312496 7.928405-1.247691 1.099664.02666 2.190721.234608 3.239973.565603 1.070564.337558 2.125553.82113 2.912491 1.622572.597992.60867 1.014413 1.375249 1.327139 2.169309.466015 1.182886.716852 2.443702.824236 3.71067.095089 1.122594.080333 2.258312.292643 3.3645.349614 1.819856 1.305006 3.480163 2.492381 4.902169 1.187376 1.422007 2.606324 2.629913 4.024043 3.822643 1.41198 1.188218 2.832978 2.371514 4.356441 3.413308.714803.488904 1.452557.947047 2.131292 1.48476.678734.538123 1.302957 1.164019 1.727575 1.919524.575252 1.024567.751281 2.267746.379944 3.447351-.371336 1.179605-1.046382 2.316144-1.886193 3.31405z" fill="url(#f)"/><path d="m173.707829 177.283282c-.436095 1.093883-1.05253 2.115578-1.816516 3.011356-1.697246 1.989251-4.046995 3.290262-6.384447 4.461253-3.993303 2.000735-8.125549 3.759069-11.88277 6.17529-2.510416 1.61437-4.832294 3.510105-7.005801 5.555957-1.857093 1.748079-3.620327 3.616745-5.697926 5.095352-2.10588 1.499116-4.533503 2.577823-7.090233 2.955165-3.114555.459784-6.329526-.136581-9.224393-1.375248-2.01817-.863786-3.968301-2.099583-5.137233-3.958814-1.162783-1.849798-1.434933-4.121235-1.440351-6.30695-.009337-3.862837.719401-7.68466 1.405513-11.485974.57012-3.159012 1.11278-6.325407 1.457885-9.516821.627502-5.802459.599221-11.66234.206572-17.485307-.065579-.975759-.141403-1.96095.008197-2.927275.1496-.966324.549627-1.928137 1.289841-2.566338.694309-.598826 1.626749-.860915 2.541975-.908903s1.827583.100078 2.734611.233788c2.13539.314589 4.289634.550838 6.379529 1.091012 1.317712.340428 2.602225.799802 3.917068 1.150894 2.19646.586111 4.494156.865837 6.752505.604978 2.430902-.280956 4.794176-1.181656 7.240653-1.121363 1.003347.024609 1.999316.21246 2.958807.508182.976295.301053 1.941934.731306 2.659605 1.45851.541021.547967.915226 1.239488 1.211968 1.950286.441833 1.058199.729557 2.189406.752919 3.336199.024592 1.197242-.236901 2.399815-.075005 3.586393.131566.963454.539381 1.871946 1.059908 2.692666s1.154176 1.5631 1.782087 2.30507c1.213197 1.434311 2.429673 2.896103 3.951087 3.997368 1.732084 1.253843 3.787551 1.98761 5.577016 3.157782.533233.349041 1.049661.74361 1.425506 1.258765.634469.867477.804972 2.055285.441423 3.066727z" fill="#e18900"/><path d="m173.458222 176.048716c-.485688 1.101676-1.116059 2.128703-1.866109 3.041298-1.738642 2.114757-4.086342 3.570807-6.55905 4.50596-4.070767 1.539311-8.514509 1.746029-12.510681 3.49862-2.43541 1.068043-4.626952 2.67749-6.845954 4.197524-1.793974 1.228823-3.627294 2.41212-5.597099 3.272214-2.224741.971657-4.590474 1.516342-6.964405 1.897786-1.510348.242812-3.03791.421639-4.563013.337148-1.525103-.084492-3.055534-.442147-4.401527-1.220211-1.020561-.590213-1.938656-1.440053-2.483364-2.542139-.605369-1.224722-.710294-2.662315-.696359-4.049868.036888-3.698776.827925-7.357356.804153-11.056132-.020493-3.219715-.658241-6.398414-.841451-9.611977-.352482-6.180212.972607-12.468704-.193865-18.531202-.186898-.970426-.437735-1.940032-.425874-2.930966.006993-.495467.080359-.993805.254961-1.452358.175012-.458143.454539-.87568.827105-1.165249.313955-.244043.686521-.392108 1.068515-.458964.381993-.066855.773003-.05373 1.155815.006153.765626.118945 1.495183.419998 2.240725.642302 2.132931.63533 4.386362.622205 6.554132 1.101676 1.360747.301053 2.678049.794059 4.024452 1.162378 2.260808.618514 4.618344.882653 6.937353.611131 2.493611-.29203 4.931071-1.198062 7.438618-1.132848 1.027938.026661 2.048908.217793 3.039549.513514.991461.295722 1.982511.71408 2.732562 1.473276.54061.547147.929571 1.24646 1.245166 1.969973.460687 1.055739.78079 2.202532.773413 3.369422-.004099.607029-.095908 1.208726-.15083 1.812884-.054512.604158-.070907 1.222671.073775 1.809192.145502.589393.447571 1.120953.793496 1.603295s.738575.923259 1.096796 1.395347c1.002936 1.321519 1.719378 2.86206 2.500579 4.34764.7812 1.485581 1.657079 2.955576 2.890769 4.025669 1.679211 1.45646 3.857637 2.03847 5.729485 3.189364.547988.337147 1.079171.732536 1.464443 1.27148.308627.431482.514789.947867.593483 1.4864.079513.537713.03074 1.097164-.139764 1.610268z" fill="#ffc000"/><path d="m120.316109 148.954303c2.31409-.627127 4.285125 1.129156 5.963517 2.454776 1.0845.925719 2.651409.692751 3.981826.736638 2.204658-.07998 4.397429.369549 6.602905.095976 4.340457-.367088 8.596073-1.434721 12.957023-1.618881 2.083337-.131249 4.42202-.252655 6.222142.965094.729557.505721 1.799301 2.644678 2.519432 1.841595-.296741-2.246828-1.962018-4.422288-4.195365-5.020704-1.748479-.275214-3.524829.205898-5.290522.050449-5.243796-.125097-10.450296-1.099625-15.706388-.82031-3.656805.031582-7.308691-.137812-10.960167-.280545-1.434523-.293261-1.940295.98191-2.719036 1.470814" fill="url(#g)"/><path d="m28.6726243 143.559947c1.1295845-.468807 2.400572-.554119 3.6031122-.331815s2.3390924.74197 3.3506361 1.4298c2.0230875 1.375659 3.5235986 3.377624 4.9609908 5.357851 3.3002229 4.548206 6.4766669 9.191568 9.3563696 14.017449 2.3358135 3.914517 4.4810403 7.957413 7.1799931 11.630759 1.7615944 2.397765 3.7486138 4.622854 5.5192252 7.014056 1.7706114 2.391203 3.3399797 4.987892 4.1248687 7.858566 1.0201509 3.729947.6250423 7.841748-1.1492579 11.277205-1.2480351 2.417042-3.1620988 4.490374-5.4905347 5.894744-2.328436 1.40437-5.0655061 2.130754-7.782083 2.029036-4.3191441-.162012-8.2644926-2.322297-12.2799277-3.922721-8.1808804-3.26073-17.0667264-4.283246-25.4988532-6.822924-2.5915685-.780525-5.1396914-1.704193-7.74929388-2.421964-1.15950453-.3191-2.33745294-.599646-3.43219901-1.096754-1.09515593-.497107-2.11899556-1.236616-2.72805309-2.273898-.47093344-.801852-.67012723-1.746029-.65761752-2.675849.01331171-.929821.23094936-1.848158.54736417-2.722608.63282963-1.7489 1.65543967-3.332097 2.34524036-5.059259 1.12671544-2.820224 1.32918813-5.930017 1.17712868-8.963112-.15205945-3.033504-.64348609-6.040349-.85087714-9.070572-.09262921-1.353101-.12746763-2.723428.13033667-4.05479.25821416-1.331362.83038395-2.632784 1.80667939-3.573679.90006079-.867477 2.09440375-1.382221 3.31743716-1.637747 1.22303342-.255527 2.48336441-.267011 3.73221931-.238711 1.2492647.028301 2.5009885.094746 3.7465645-.007382 1.245166-.102539 2.4960702-.382265 3.5809795-1.002419 1.0312172-.589802 1.8751267-1.466303 2.5739443-2.427706.6988177-.961402 1.2640198-2.011809 1.8427474-3.0495.5791375-1.038102 1.1783583-2.072102 1.9366062-2.987568.7590677-.915465 1.6886387-1.713216 2.7862538-2.168488" fill="url(#h)"/><path d="m30.4616795 145.511053c1.0279383-.414256 2.1858034-.459783 3.2653845-.214921 1.0795811.244863 2.0837473.770681 2.9588064 1.447026 1.7501182 1.352691 2.9665938 3.261551 4.1355252 5.138419 2.8046976 4.547386 5.5462762 9.14317 8.1349756 13.832059 1.9616079 3.529792 3.8322261 7.134642 6.2430446 10.376506 1.5992883 2.150031 3.4240017 4.122465 5.056489 6.246657 1.6320775 2.124601 3.0879135 4.440745 3.8096836 7.021849.9299808 3.326765.5529062 7.005443-1.0562189 10.061096-1.1566355 2.195559-2.932985 4.062173-5.0761625 5.310684s-4.647445 1.872767-7.1250714 1.758744c-3.9547753-.182109-7.5664946-2.158645-11.2888771-3.499851-7.1369574-2.591358-14.8723159-2.939169-22.1924824-4.962462-2.6239477-.712849-5.1827271-1.663178-7.81979044-2.328449-1.16688208-.294491-2.35466722-.535252-3.46293879-1.003238-1.10827157-.467987-2.15219453-1.193551-2.75305478-2.236984-.44716135-.775603-.62545208-1.688197-.59799121-2.583155s.25370566-1.77474.57216979-2.611045c.63692826-1.673432 1.63904512-3.188543 2.28089175-4.859924.97383626-2.526553 1.09474607-5.304532.91399615-8.006631-.18074991-2.701689-.65086363-5.37918-.81480912-8.08251-.07336561-1.207906-.08443194-2.430987.15984686-3.616334.24427879-1.185348.76029725-2.339523 1.62101111-3.189364.93325975-.925309 2.21900232-1.43103 3.51581118-1.628724 1.2972188-.198105 2.6177998-.111562 3.9240355.004922 1.3058259.116484 2.6173899.263319 3.9285441.184979 1.3111541-.078339 2.6391126-.39826 3.7219726-1.136128.9869519-.667732 1.7275757-1.64308 2.2919581-2.685284.5639725-1.042203.9660488-2.159874 1.3959959-3.263601.4299471-1.103726.8947326-2.207043 1.5693683-3.188133.6742259-.98068 1.579205-1.840774 2.6878864-2.286203" fill="#ec9a00"/><path d="m29.5034181 142.942664c.995559-.494236 2.168999-.595544 3.260876-.37283 1.091877.223124 2.1038306.757145 2.9637247 1.454819 1.7201982 1.395756 2.8116653 3.384187 3.8281274 5.335293 2.3345839 4.48094 4.5093209 9.059498 7.3029522 13.27917 2.0263664 3.060985 4.3654588 5.912791 6.4151874 8.958601 2.7801058 4.131078 5.0409142 8.674773 5.9737641 13.542079.6275014 3.273856.6065983 6.8098-.9693278 9.759223-1.0373651 1.941262-2.7198558 3.533483-4.7068752 4.529749-1.9874293.996266-4.2691408 1.400268-6.4910122 1.204214-3.4998265-.308846-6.6783199-2.030676-9.9728046-3.231609-5.8454768-2.130344-12.1631166-2.640166-18.1790966-4.247563-2.5374665-.677986-5.0224704-1.551615-7.5943654-2.089328-1.1345028-.23707-2.29113833-.410565-3.37440822-.818669-1.08286001-.408514-2.1095687-1.08691-2.66288475-2.088918-.38937056-.705056-.5201171-1.530288-.46232631-2.33091.05820065-.800212.29715122-1.579096.61069698-2.320245.62709153-1.481479 1.55461319-2.839092 2.04194119-4.370609.7156221-2.25093.42133993-4.69094-.11558158-6.989038-.53692151-2.298097-1.31156399-4.554768-1.55010009-6.901264-.10615931-1.045074-.10370013-2.110246.13525044-3.133992.23895056-1.023746.72545883-2.007708 1.48944485-2.741885.98408286-.945817 2.36204477-1.416264 3.73221929-1.547514 1.3701745-.131249 2.749366.047989 4.1113432.243632 1.3619772.196054 2.7325616.409745 4.1076545.346991 1.3750929-.062753 2.7751874-.4241 3.8523093-1.266558 1.0652359-.833024 1.7349533-2.073742 2.1185857-3.357116.3840424-1.283375.5086409-2.625401.6660286-3.954302.1573877-1.328902.3537124-2.670108.8685013-3.908365.5151987-1.238257 1.3849296-2.379718 2.6001756-2.983056" fill="#ffbd00"/><path d="m41.9743423 154.128405c1.841108 3.332097 2.9641346 7.15515 4.7904875 10.515138 1.6800315 3.090926 3.591636 6.272906 5.2978988 9.123482.7598873 1.269019 2.5313185 3.219715 4.322423 6.247067 1.6230605 2.743525 3.2625154 6.57232 4.1793806 7.857745-.5266749-1.504858-1.6099447-5.546933-2.9022451-8.42827-1.2074586-2.692256-2.6137011-4.228696-3.4801531-5.676952-1.7062628-2.850576-3.5440918-5.412402-5.2978988-8.129267-2.4202454-3.747174-4.2642224-7.941827-6.9098929-11.508943z" fill="url(#i)"/><path d="m151.521085 153.895847c-.397568-.778884-1.120977-1.361303-1.927589-1.698451-.806612-.337147-1.693147-.444607-2.567387-.437635-1.748069.013535-3.485891.469217-5.227402.31828-1.471001-.127558-2.866997-.680857-4.30193-1.030308-1.481657-.360937-3.053075-.50162-4.524486-.100899-1.572237.428202-2.959626 1.479839-3.828127 2.859599-.766035 1.21652-1.129585 2.652881-1.243937 4.085962-.114352 1.433491.009017 2.873955.154109 4.304574.104925 1.034821.221327 2.071692.471753 3.081083.250017 1.009391.638568 1.995403 1.247626 2.838271.876288 1.213238 2.178016 2.077844 3.580979 2.59792 2.289909.84861 4.898282.803083 7.157041-.125097 3.997401-1.737005 7.381236-4.852131 9.44367-8.69405.738575-1.37566 1.311974-2.841143 1.682491-4.358305.147141-.602927.262723-1.217749.268461-1.838314.006148-.620154-.103286-1.249741-.385272-1.80263" fill="url(#k)" opacity=".35"/><path d="m151.521085 151.665015c-.397568-.563142-1.120977-.984371-1.927589-1.227593-.806612-.243632-1.693147-.321561-2.567387-.316639-1.748069.009844-3.485891.339198-5.227402.230097-1.471001-.091875-2.866997-.492186-4.30193-.744841-1.481657-.260859-3.053075-.362577-4.524486-.073008-1.572237.309667-2.959626 1.070094-3.828127 2.06718-.766035.879372-1.129585 1.917884-1.243937 2.953935s.009017 2.077844.154109 3.111844c.104925.748122.221327 1.497885.471753 2.22755.250017.729666.638568 1.442515 1.247626 2.052005.876288.87691 2.178016 1.502396 3.580979 1.878098 2.289909.613592 4.898282.580369 7.157041-.090644 3.997401-1.255484 7.381236-3.507644 9.44367-6.285212.738575-.994625 1.311974-2.054055 1.682491-3.150808.147141-.435995.262723-.880193.268675-1.328902.005524-.448299-.1035-.903571-.385486-1.303062" fill="url(#l)" opacity=".35"/><path d="m154.968039 149.796761c-.311496 1.382221-.995969 2.653701-1.8034 3.81854-2.43869 3.539636-6.049589 6.25486-10.123635 7.620676-2.46738.808005-5.180678.84902-7.668551.110742-1.446819-.426561-2.848553-1.140231-3.840423-2.276359-1.225493-1.410933-1.692737-3.326355-1.840288-5.188458-.200833-2.501944.127058-5.069513 1.168111-7.354075.418062-.918747.950884-1.788275 1.602568-2.555264.262313-.319921.549217-.623435.856615-.902341 1.05335-.959762 2.336223-1.677532 3.725661-1.993352 1.586173-.356834 3.246121-.184569 4.848689.090234 1.545186.262499 3.073978.615233 4.610967.902341 1.631257.307616 3.295304.549607 4.828195 1.197652.512329.217382 1.008264.483982 1.467312.808005.225425.151757.438554.31992.639387.500388.614796.557811 1.118928 1.250972 1.405833 2.030267.368877 1.013082.36068 2.136906.122959 3.191004z" fill="#000"/><path d="m153.849111 148.307899c-.377075.680857-.950884 1.214058-1.586173 1.657025-1.5042 1.054098-3.336291 1.550385-5.14379 1.899017.393469-.348632.795136-.709568 1.168112-1.078707.463146-.459374.893503-.959763 1.213197-1.525776.319693-.570115.504132-1.238668.377074-1.878509-.086071-.434764-.307398-.828513-.598401-1.168941-.286904-.340429-.627091-.631638-.99187-.885934-1.56568-1.095114-3.410066-1.714447-5.274946-2.1205-1.205-.262499-2.442788-.42246-3.664182-.574217-1.274677-.15996-2.578043-.299413-3.840424-.065625-.454948.082031-.897601.217382-1.32386.393749-.081972.032812-.168044.065624-.250016.110741-.03279.012305-.065579.02461-.094269.045118-.098367.041015-.196735.090234-.291003.143554-.016395.008203-.032789.016406-.045085.024609-.118861.061523-.233623.127148-.348385.200976-.11886.073828-.237721.151757-.352482.233788-.118861.077929-.229524.15996-.340187.250194.266411-.31992.549217-.619333.856615-.898239 1.05335-.959762 2.336223-1.677532 3.725661-1.993352 1.586173-.356834 3.246121-.184569 4.848689.090234 1.545186.262499 3.073978.615233 4.610967.902341 1.631257.307616 3.295304.549607 4.828195 1.197652.512329.217382 1.008264.483982 1.467312.808005.057381.045117.114762.094335.172143.143554.086071.069726.168044.147656.250016.229686.081973.073828.155749.155859.229524.23789.348384.393749.627092.861325.754149 1.369917.184439.754685.024592 1.574994-.356581 2.25175z" fill="url(#n)"/><path d="m153.849111 148.307899c-.377075.680857-.950884 1.214058-1.586173 1.657025-1.5042 1.054098-3.336291 1.550385-5.14379 1.899017.393469-.348632.795136-.709568 1.168112-1.078707.463146-.459374.893503-.959763 1.213197-1.525776.319693-.570115.504132-1.238668.377074-1.878509-.086071-.434764-.307398-.828513-.598401-1.168941-.286904-.340429-.627091-.631638-.99187-.885934-1.56568-1.095114-3.410066-1.714447-5.274946-2.1205-1.205-.262499-2.442788-.42246-3.664182-.574217-1.274677-.15996-2.578043-.299413-3.840424-.065625-.454948.082031-.897601.217382-1.32386.393749-.086071.032812-.168044.069726-.250016.110741-.03279.012305-.065579.02461-.094269.045118-.098367.041015-.196735.090234-.291003.143554-.016395.008203-.032789.016406-.045085.024609-.118861.061523-.233623.131249-.348385.200976-.11886.073828-.237721.151757-.352482.233788-.114762.082031-.229524.164062-.340187.254296v-.004102c.266411-.31992.549217-.619333.856615-.898239 1.05335-.959762 2.336223-1.677532 3.725661-1.993352 1.586173-.356834 3.246121-.184569 4.848689.090234 1.545186.262499 3.073978.615233 4.610967.902341 1.631257.307616 3.295304.549607 4.828195 1.197652.512329.217382 1.008264.483982 1.467312.808005.057381.045117.114762.094335.172143.143554.086071.069726.168044.147656.250016.229686.081973.073828.155749.155859.229524.23789.348384.393749.627092.861325.754149 1.369917.184439.754685.024592 1.574994-.356581 2.25175z" fill="url(#o)"/><path d="m68.5552358 32.4912687c-1.2582817.0684958-1.9935772.2547061-2.9141312 1.1156209-.920554.8609149-1.0906474 1.539721-1.4894448 2.7357323-.3578111 1.0729648-1.326729 1.9424929-1.3796014 3.071649-.0647585 1.3871434.0348384 2.7976656.1348452 4.1843988.1643553 2.2775894.3323995 4.5986552 1.1845062 6.7166944.4262583 1.0590196 1.0246593 2.0573363 1.8226641 2.8727239.7984145.8157978 1.8025807 1.4433346 2.9092128 1.7210094 1.037775.2600381 2.1460466.2063078 3.1666073-.1144332 1.0205608-.320741 1.9525909-.9039811 2.7169868-1.6525135 1.1152393-1.0922421 1.8673392-2.5208112 2.298106-4.0219776.4311767-1.5007563.5541358-3.0761607.5315933-4.6376199-.0278707-1.9539772-.2832158-3.9153373-.8943227-5.7712876-.3364981-1.0216955-.7832496-2.0118091-1.3439432-2.9289151-.4578178-.7489426-1.5087085-.7645285-2.120635-1.3945262-.6594708-.6788061-1.4644432-.6168728-2.3128611-1.0356408-.848418-.418768-1.3648463-.9125943-2.3095823-.8609148" fill="url(#q)"/><g transform="translate(65.486376 37.965172)"><path d="m.17481171 3.86573062c-.26272266 1.58770908-.27255939 3.25334756.27296926 4.76681862.36027023.99954715.95375293 1.90639936 1.67552299 2.68569336.4725729.5102325 1.00908454.9741176 1.63576621 1.274761.62709153.3006434 1.35337009.4286117 2.02759595.2592178.62258303-.1562689 1.16647223-.5574003 1.5681387-1.0581993.40166647-.5007989.66930749-1.0979843.860304-1.7107555.56315279-1.81001293.4725729-3.79024011-.08648125-5.60148353-.40740456-1.31987802-1.08245015-2.59299839-2.1378493-3.48262407-.50372254-.42451017-1.09351647-.75714568-1.73413351-.90972326-.64061704-.15216741-1.33410649-.11648395-1.93373715.15585881-.66561873.30269422-1.18081746.8785515-1.51813532 1.52782648-.336908.64886484-.51028036 1.37073721-.62996058 2.09260959" fill="#000"/><path d="m3.52913661 2.71729729c.17091318.447889.74472243.61072044 1.05949778.97206678.30575836.35109248.62668167.7144896.79472581 1.14884349.32133318.8313837-.31723454 2.0634886.35330255 2.65083021.2102601.18415949.63200989.18826104.83899109 0 .80907103-.73663795.62955071-2.22262864.30903726-3.26934359-.2905934-.94991843-1.00826482-1.84938781-1.89275078-2.30096821-.40904402-.20876877-1.02465936-.38226423-1.374683-.08490203-.2250152.19154227-.19345569.60702904-.08812071.88347335z" fill="url(#r)"/></g><path d="m75.2987241 35.7860419c-.9631798-.2296867-1.9304583-.4101548-2.9141313-.5003888-2.1968697-.209179-4.5044025.0533201-6.4020717 1.1853472-1.2541831.7464817-2.2542506 1.8169856-3.2051345 2.9367081.0491837-1.1279256.2090305-2.239445.565612-3.3099489.4016665-1.1935504 1.0492512-2.321476 1.967346-3.182801.9221934-.861325 2.1271928-1.4437447 3.3854745-1.5093695.9426866-.0533201 1.8894719.1845697 2.7378898.6029275.848418.4183579 1.6025673 1.0130823 2.2624479 1.6939392.6147956.6316383 1.1476185 1.333003 1.6025673 2.0835862z" fill="url(#t)"/><path d="m73.8719884 30.0016293c1.768562 1.6578455 3.0834049 3.7041076 3.973629 5.8738263-.3889607-2.3928429-1.0053958-4.3148281-2.5608287-5.8738263-.9545727-.8949577-2.0390721-1.6808142-3.2670239-2.2328825-1.0746628-.4831623-2.2702353-.7829855-2.9534782-.7957003-.6832428-.0123046-.8492377.0028711-.9898209.0094336-.1405833.0065625-.2524761.0114843.1922261.0619334.4447021.050449 1.4365724.3191004 2.5013984.797751 1.0652359.4786506 2.1497354 1.2645071 3.1038982 2.1594648z" fill="url(#v)"/><path d="m91.8838605 33.2197035c-1.840698 1.2653275-5.1905144 3.2742655-5.1905144 3.2742655-.066398.1517572-.0995969.2477335-.1500102.3888267-1.0144127 2.8288374-.6258619 5.9952321.3533026 8.8363741 1.0029366 2.9104582 2.680099 5.6843349 5.2126471 7.431184 1.266479.8736296 2.7325616 1.4724556 4.2597139 1.6533338 1.5275622.1808783 3.1145546-.0672654 4.4789915-.7780636 1.662407-.866657 2.930115-2.3842296 3.717054-4.0863718.787348-1.7021423 1.122207-3.5839323 1.227542-5.456699.094268-1.6734314.007377-3.3665502-.323383-5.0071693-.140583-.6984935-1.074662-1.2181596-1.308695-1.892454-.851287-2.4523153-2.532548-2.8587787-4.7101538-4.2697111-1.089008-.7054662-1.9718545-1.1230037-3.2567774-1.3006007-1.2849228-.1780072-1.4763292-.1447847-2.6854272.3252527-.6885711.2670107-1.0148227.4630647-1.6242901.8818327" fill="url(#w)"/><g transform="translate(90.547149 37.327727)"><path d="m4.94023397.01075043c-.73857447.05290996-1.45829521.30515514-2.08497688.70013418-.62668166.39497903-1.16073413.92982084-1.58002474 1.54054128-.83899109 1.22103072-1.20704873 2.71932606-1.26647897 4.19998474-.04467515 1.1115194.07828397 2.23739422.44675148 3.28698025.36846751 1.04958602.98941108 2.02083252 1.84561645 2.73040022.87587882.7259739 1.98947862 1.1619685 3.12562093 1.216519 1.1361423.0545506 2.28826929-.273163 3.2219389-.9236685.7439027-.5180254 1.34353336-1.2312846 1.77061136-2.0310864.4270781-.79980174.6844725-1.68491571.8021034-2.58397495.2078009-1.58811923-.027051-3.24678508-.7607071-4.67043225-.73365614-1.42364717-1.97841234-2.59627963-3.4801531-3.14998856-.65045377-.23994053-1.34845173-.36503774-2.04030173-.31540901" fill="#000"/><path d="m6.70264808 4.85672892c-.61151671.24158116-1.58002474.08941374-1.84807563.69029046-.15902714.35601434.0655782.94212549.42625829 1.08896089.72914761.2973622 1.85914196-.241171 2.15383399-.97206678.12787749-.31745978-.06598806-.82071967-.38117329-.95319966-.11681116-.04880842-.23321247.0996676-.35084336.14601509z" fill="#0c0c0b"/><path d="m9.5061161 6.44730908c.8201374-.82071967-.58364597-2.99700083-1.67757231-3.88785697-.79267649-.64517344-3.10143897-1.32069833-3.00225194-.61851338.09918702.70218495 1.13737189 1.6020645 1.83291067 2.28866356.85620537.84491881 2.45754302 2.60776397 2.84691358 2.21770679z" fill="url(#x)"/></g><path d="m105.476992 39.502044c-1.049252-.8449188-2.082108-1.7185485-3.217431-2.4445224-3.7994366-2.41171-8.6809139-2.9367081-12.9803846-1.6078066-.8935029.2748036-1.7583154.6234352-2.5862402 1.0458946.8443193-2.0712815 2.4140975-3.8185408 4.2666816-5.0900206.6065983-.4183578 1.2541831-.7957002 1.9427542-1.0623008 1.209098-.4675764 2.5411552-.6029275 3.8240287-.426561 1.2869722.1804681 2.520662.6644508 3.6108993 1.3699169 2.176377 1.4109324 3.721563 3.6749867 4.57408 6.1277122.237721.6808569.422159 1.37812.565612 2.0876877z" fill="url(#y)"/><path d="m97.7797505 25.5813914c-.336908.4241001-.6414367.885114-.8828465 1.3916551 1.516086.3268934 2.966184.9511489 4.260534 1.8116536 2.504267 1.664408 4.406035 4.0974461 5.739732 6.8040573.311496-.3449401.594712-.7153099.838991-1.1266951-1.340255-2.8189937-3.28055-5.3689258-5.872118-7.0911657-1.245576-.8276923-2.6317353-1.4519478-4.0842925-1.7895052z" fill="url(#z)"/><path d="m74.6056445 48.0164467c1.2484449-1.4043699 2.102601-3.1179965 3.3018623-4.5642022.5996307-.7231029 1.2914807-1.3822216 2.1062898-1.849798s1.7603648-.7358176 2.6960837-.6550171c1.0414638.090234 2.0165296.6094899 2.7788762 1.32521.7627564.7157201 1.3279586 1.6188808 1.7792185 2.5626469.4319964.903571.7754622 1.8666143 1.3980453 2.6508303.6643891.8371258 1.5960094 1.4084714 2.4378695 2.0663596.4209301.3289442.8246459.6849585 1.1574553 1.1033163.3328093.4179477.5930728.9019304.7000472 1.425698.1086139.5315606.0545119 1.0922421-.1307465 1.6020645-.1852584.5098223-.499214.9696058-.8898142 1.3461279-.7812003.7530441-1.8464362 1.1590974-2.9202792 1.3112648-2.147686.3039246-4.319554-.3363269-6.4877332-.2768545-2.1948204.0602928-4.3384078.8367157-6.5324084.7563254-1.0972053-.0401952-2.2095755-.3084364-3.1112757-.9351529-.4508501-.3133582-.8434996-.7144896-1.1271253-1.1845269-.2840356-.4700374-.4569981-1.0102112-.475442-1.5589983-.0176241-.5237676.1045153-1.0467149.3135458-1.5274163.2090305-.4802912.5033127-.9203873.8348925-1.3256202.6631595-.8112861 1.4742799-1.4888618 2.1706384-2.2722573" fill="url(#A)"/><path d="m62.7032013 61.5675498c.0434455.2087688.1217295.4101547.2311631.5934939.1877176.3149989.4619165.5701151.758248.7858565.2963314.2157414.616435.3953892.9267019.5906229 1.648472 1.0368712 2.9920053 2.4945612 4.1851187 4.0342822 1.6009278 2.0655394 3.0178268 4.3578943 5.1560859 5.8594709 1.5099381 1.0602501 3.3170273 1.6648182 5.1523972 1.8493878 2.1554734.2165617 4.3371781-.1312495 6.4151873-.7436106 1.9259498-.567244 3.7883706-1.3641747 5.4975025-2.4186826 3.24858-2.0048364 5.9614681-4.9431851 9.5436771-6.2610124.78202-.2875185 1.59601-.4934162 2.349749-.8486102.753739-.3547839 1.463214-.8863444 1.823484-1.6385683.346335-.7226926.332809-1.5569474.445522-2.3505969.1205-.8490203.39101-1.66974.53979-2.5142487.148371-.8445086.165995-1.7476694-.198784-2.5236822-.302069-.6423024-.851287-1.1508943-1.483297-1.4736861-.632009-.3227918-1.343123-.4696272-2.051777-.5044903-1.417309-.0697263-2.816994.2936708-4.2302042.4224594-1.8718477.1710345-3.7564012-.0693162-5.6352166-.0135351-2.3370431.0697263-4.6400675.5971853-6.9750612.710388-2.6641144.1291988-5.3224906-.2817763-7.9878346-.389647-1.1541763-.0467576-2.3169597-.0360936-3.4555612.1591401-1.1386015.1956438-2.2571197.5824197-3.2075937 1.2390775-.9262921.6402516-1.6640468 1.5130609-2.5149239 2.2509293-.4254386.3691393-.8828466.7062865-1.3890283.9523794-.5061817.2460928-1.064826.3986704-1.6275689.3867759-.2893638-.0065625-.5869249-.0545506-.8627632.0332225-.1721428.0549608-.3254318.1603705-.4545389.2871084-.1295169.1263276-.2364914.2735732-.3377277.4236898-.234852.3494519-.4401937.7185912-.6127463 1.1020859" fill="url(#B)"/><path d="m73.1616945 64.4419143c-.2729693 1.1283358-.1073843 2.3567493.4545389 3.3722925s1.5148564 1.8079622 2.6153405 2.1750507c1.3972256.4659358 2.9715122.2378897 4.2769282-.4441976.7570184-.3953892 1.4488684-.9515591 1.8857831-1.6853259.2184574-.3670886.370107-.7756027.4270781-1.1988824.056971-.4232797.0176241-.861325-.1307466-1.2620462-.162306-.4392758-.4524896-.8260517-.8094809-1.1283358-.3574012-.302284-.7803806-.5217168-1.2246729-.6685522-.8881747-.294081-1.8443868-.2998231-2.7788762-.2547061-1.4164891.0680857-2.8276499.2460928-4.2166782.5323809" fill="#e6b300"/><path d="m68.5769586 55.6637822c-.9459655.5594511-1.8566827 1.1759137-2.7530548 1.8120637-.4639657.3289441-.9422767.6849584-1.1869654 1.1984722-.1733723.3642174-.2131291.7768331-.2188672 1.1800152-.0053282.4031822.0204932.8088252-.0327891 1.208316-.036068.273163-.1090238.5418144-.1213197.8166181-.0061479.1374018.0032789.2768545.0397568.4097446.036068.1328901.1004166.259628.1946853.3597057.1217295.1296089.2881342.209179.4582277.2612686.1700934.0516795.3467447.0787497.5197072.119355.8299741.1952337 1.5517441.7046459 2.1858033 1.2751712.6336494.5705253 1.2029501 1.2124175 1.8640604 1.7505405 1.7923341 1.4593306 4.1609367 2.0630785 6.4713386 2.1012228 2.310402.0381444 4.5945726-.4458382 6.8488232-.9540199 1.7706114-.3990806 3.5424524-.816208 5.2454363-1.4445651 2.6157504-.9650941 5.0441931-2.4260654 7.1476138-4.2569962.953753-.8301533 1.8488954-1.7415172 2.9190496-2.414171.9471952-.5951345 2.0079224-.9880628 2.9715124-1.5569474.086071-.0508592.171733-.103359.248787-.1673432.077054-.0639841.145502-.1398628.189767-.2296866.077054-.1546284.077464-.3400183.027461-.5057209-.049594-.1657025-.145912-.3137684-.254116-.4482991-.12009-.1488862-.256574-.2838271-.402076-.408104-1.0062155-.8617352-2.3710618-1.1750934-3.6916427-1.280093-1.3201712-.1045895-2.6567368-.0307616-3.9629726-.2489639-1.2283617-.2054876-2.3968832-.6636305-3.582619-1.0442541-1.2447562-.3994907-2.5169733-.71572-3.8068145-.9265396-3.0338114-.4954669-6.1577929-.400311-9.1674224.2268156-2.866587.5967752-5.631118 1.6754822-8.1513702 3.1663948" fill="#694200"/><path d="m68.2752989 52.464575c-1.362797.9179264-2.589929 2.038059-3.6281139 3.3119997-.5938925.728845-1.1328634 1.5204437-1.4320639 2.41171-.2352618.7009545-.3155951 1.4433346-.4635559 2.1676679-.0553316.2715225-.1209098.5438652-.1200977.8207197 0 .1386323.0180416.2776748.0610773.4093344.0430357.1316597.1118928.2559366.2078009.3560144.1586173.1652923.3815832.2551162.6061885.3014637.2246054.0463475.4549488.05291.6824232.0791599 1.0275284.1168941 1.9739038.6164626 2.8260105 1.2033941.8516968.5869314 1.6369958 1.2690188 2.5108253 1.8223176 1.931278 1.2222611 4.2347122 1.7661264 6.5180631 1.8543096 2.283351.0881833 4.5613737-.2592178 6.8025086-.7066966 1.780858-.3560144 3.5559779-.7780636 5.2454363-1.4445651 2.5870599-1.0208752 4.9191846-2.5921781 7.1476138-4.2569962 1.0123635-.7563254 2.0103817-1.5364398 2.9190496-2.414171.3086274-.2981825.6070082-.6074392.9377683-.8806022.33076-.2727529.6979979-.5102326 1.1062221-.6414821.622173-.2001555 1.296809-.1427338 1.941525-.0348631.485688.0812106.972197.1903118 1.464033.1706243.245918-.0098437.492246-.0524998.72054-.1439643.228295-.0914645.438965-.233378.595532-.4232797.205752-.2497842.310677-.5758573.311918-.8994694.001218-.3236121-.097969-.6439429-.261914-.9228482-.328301-.5578105-.895962-.9351528-1.486986-1.198062-.809481-.3601159-1.685769-.5381231-2.546893-.7464817-2.6456706-.6394313-5.2167459-1.5840177-7.6546154-2.7952047-1.2119671-.6021072-2.3903254-1.269429-3.582619-1.9088602-1.2259025-.6574781-2.4755771-1.2895266-3.8068145-1.6931189-2.9764305-.9027506-6.2295191-.6066189-9.1674224.4142563-3.2641549 1.1332576-6.2151739 3.1540901-8.4534398 5.7876938z" fill="url(#C)"/><path d="m89.1840881 53.1187719c-.1598469-.2022063-.3893706-.3449402-.6365184-.4179477-.2475578-.0730076-.5119199-.0779294-.7660354-.034453-.508231.0869528-.9639995.3609362-1.3886184.6533765-1.2070487.8317939-2.273924 1.8580011-3.2051345 2.9900282-1.2328701 1.4987055-2.2497421 3.2316094-2.5907487 5.1425204-.0573809.3219715-.0954982.6513257-.0553316.9757582.0401666.3244324.1643554.646814.3946988.8789616.2020628.2038469.4774913.3281238.7615268.3691393.2840356.0410155.5762685.0012305.848418-.0906442.5438892-.1837493.9951492-.5651933 1.4230469-.9482778 2.3567165-2.1106564 4.4875982-4.6429519 5.3401148-7.6904018.0856615-.3059754.1582074-.6189235.1562004-.9363833-.0020917-.3170496-.0844743-.6427125-.2816187-.8916764" fill="#ffda37"/><g opacity=".8" transform="translate(74.07911 48.050511)"><path d="m9.46279339.69272944c.16353564.52499809 1.00867471.43763513 1.49682241.68947015.4283076.22066326.773003.70505603 1.2550028.71900129.4598671.01312496 1.1754892-.1595502 1.2353293-.61564229.0791037-.6029275-.8008737-.98601204-1.3673054-1.20708546-.7287378-.28423725-1.6619975-.42861173-2.34565026-.04839826-.15656795.08695281-.32748113.29120988-.27419885.46265457z" fill="url(#E)"/><path d="m1.3929861.39577739c-.6275014-.20384691-1.66527641.90316078-1.32672895 1.46958451.09303907.15544865.37789437.35273309.56971061.24732332.28895394-.15914005.52544532-.72761455.83899108-.95073874.20862065-.14888618.16189618-.68659907-.08197274-.76616909z" fill="url(#F)"/></g><path d="m105.431497 56.7232119c-.154519 1.3797606-1.183687 2.4986628-2.298516 2.4986628-1.114829 0-1.893161-1.118492-1.738642-2.4986628.154519-1.3797606 1.183686-2.4986628 2.298516-2.4986628 1.114419 0 1.89316 1.1189022 1.738642 2.4986628z" fill="url(#G)"/></g></svg>