<svg height="226" viewBox="0 0 226 226" width="226" xmlns="http://www.w3.org/2000/svg"><path d="m131.012065 0h1.553162c1.246364 15.3032978-4.630723 26.7378914-11.773349 35.0184429-7.008403 8.2233786-16.605408 16.1990076-32.1274376 14.9888464-1.0354412-15.0841347 4.8512334-25.6706626 11.9842726-33.9321565 6.615318-7.69929299 18.743402-14.55052032 30.363352-16.0751328zm46.987935 159.283889v.428797c-4.362275 13.130725-10.584509 24.384271-18.177744 34.827866-6.931703 9.481184-15.426156 22.240285-30.593451 22.240285-13.106 0-21.811375-8.37584-35.2433477-8.604532-14.2085533-.228692-22.0222988 7.003689-35.01325 8.823695-1.4860498 0-2.9720996 0-4.4293871 0-9.5394808-1.372151-17.2381773-8.880868-22.8468168-15.646336-16.5382958-19.991481-29.31832377-45.814605-31.6960034-78.86058 0-3.239802 0-6.470074 0-9.709876 1.00667888-23.6505509 12.5691048-42.8797258 27.9377356-52.1989196 8.1109556-4.9549905 19.2611225-9.1762614 31.6768287-7.2895534 5.3210169.8194792 10.7570828 2.6299565 15.5220295 4.4213762 4.5156738 1.7247179 10.1626629 4.7834716 15.5124421 4.6214816 3.6240439-.1048171 7.228913-1.9819963 10.8817191-3.3065034 10.699558-3.8401176 21.188194-8.2424362 35.01325-6.1746805 16.614995 2.4965529 28.407519 9.8337505 35.693957 21.1539982-14.055155 8.8903965-25.166972 22.2879286-23.268663 45.1666449 1.687385 20.782374 13.844231 32.941158 29.030701 40.106837z" fill="#fff" transform="translate(25 4)"/></svg>