<svg height="226" viewBox="0 0 226 226" width="226" xmlns="http://www.w3.org/2000/svg"><g fill="none" transform="translate(13 10)"><path d="m101.314548 101.296208c9.48814 0 19.101237 3.175834 26.81843 9.909459 4.033106 3.514875 7.11395 7.806541 9.18221 12.729083 2.042406 4.86675 3.093771 10.330042 3.093771 16.252542v65.812708h-78.8136092v-65.812708c0-10.488834 3.5806741-19.110792 9.2597697-25.565459 3.8262798-4.35175 8.5789675-7.690666 13.8142491-9.930916 5.2180461-2.235959 10.9143771-3.394709 16.6494884-3.394709z" fill="#67c6a4"/><path d="m16.8347696 186.833417v-129.9087503h164.8876704 3.447099v129.9087503c0 5.270166-2.145819 10.059666-5.614462 13.531625-3.468644 3.47625-8.255802 5.630666-13.529864 5.630666h-37.431186v-58.203583c0-35.723833-55.1880543-36.504917-55.1880543 0v58.203583h-37.4268771c-5.2740615 0-10.0612202-2.154416-13.5298635-5.630666-3.4643345-3.471959-5.6144625-8.261459-5.6144625-13.535917z" fill="#e2ecef"/><path d="m181.450981 0 20.54471 38.637875h-201.98707325l20.54040105-38.637875z" fill="#52c0ff"/><path d="m33.6652304 74.147125v-35.50925h33.6695392v35.50925c0 21.8832083-33.6695392 22.2995-33.6695392 0z" fill="#ec7161"/><g fill="#ffcb67" transform="translate(0 38.637875)"><path d="m33.6652304 35.50925c0 21.8832083-33.6652304 22.2995-33.6652304 0v-35.50925h33.6652304z"/><path d="m67.3347696 35.50925v-35.50925h33.6652304v35.50925c0 21.9175417-33.6652304 21.9175417-33.6652304 0z"/><path d="m134.669539 35.50925v-35.50925h33.665231v35.50925c0 21.9175417-33.665231 21.9175417-33.665231 0z"/></g><g fill="#ec7161"><path d="m168.33477 74.147125v-35.50925h33.66523v35.50925c0 5.1714583-1.831271 9.08975-4.644966 11.845-6.385751 6.244375-17.985239 6.244375-24.37099 0-2.813694-2.7509583-4.644966-6.66925-4.644966-11.845z"/><path d="m101 74.147125v-35.50925h33.669539v35.50925c0 21.8832083-33.669539 22.3037917-33.669539 0z"/></g></g></svg>