<svg height="226" viewBox="0 0 226 226" width="226" xmlns="http://www.w3.org/2000/svg"><g fill="none" transform="translate(19 3)"><path d="m89.0813123 1.34923603-85.23911961 45.28122147c-2.36436877 1.2559209-3.84219269 3.7154015-3.84219269 6.3947991v113.6649544c0 4.591329 2.57815615 8.792194 6.6692691 10.86869l83.5871262 42.424544c2.6671097 1.353911 5.8193522 1.353911 8.4857143 0l83.5878734-42.424544c4.091113-2.076496 6.669269-6.278109 6.669269-10.86869v-113.6649544c0-2.6793976-1.477823-5.1388782-3.84294-6.3947991l-85.2383718-45.28122147c-3.3877076-1.79898137-7.4481728-1.79898137-10.8366279 0z" fill="#ffce94"/><path d="m94.5 221c1.4546512 0 2.9100498-.338104 4.2428571-1.015059l83.5878739-42.424544c4.091113-2.076496 6.669269-6.278109 6.669269-10.86869v-113.6664504c0-1.1833632-.301993-2.3158613-.827492-3.3286766l-93.672508 49.9249123z" fill="#fcb043"/><path d="m94.5 99.6214923-93.6717608-49.9256603c-.52624584 1.0128153-.8282392 2.1453133-.8282392 3.3286766v113.6657024c0 4.591329 2.57815615 8.792194 6.6692691 10.86869l83.5871262 42.424544c1.3335549.676955 2.788206 1.015059 4.2436047 1.015059z" fill="#e2791b"/><path d="m127.896429 16.2115899-94.8004988 50.5203339v16.1653998c0 1.5513877.8551495 2.9763605 2.2230897 3.7064253l16.4750831 8.7869581c1.307392.697152 2.885382-.2505858 2.885382-1.7331559v-15.087507l94.947758-50.8143047z" fill="#def2fc"/><g fill="#f1f5f9" transform="translate(108.156229 164.154576)"><path d="m0 24.5886779 25.2904485-12.1036664c3.238206-1.5491436 5.266196-4.85612769 5.1809801-8.44661027l-.0022426-.11220258c-.0702657-2.96214813-3.2127907-4.83144312-5.8470099-3.47753198l-24.62142859 12.65345903v11.4865522z"/><path d="m0 42.2373958 13.8879568-6.4561365c3.288289-1.5296952 5.3596346-4.8628598 5.2736711-8.4907433-.0702658-2.9726203-3.2307309-4.8411673-5.8664452-3.4678077l-13.2951827 6.9266393z"/></g><path d="m33.0951827 66.8942436v16.00308c0 1.5513877.8551495 2.9763605 2.2230897 3.7064253l16.4750831 8.7869581c1.307392.697152 2.885382-.2505858 2.885382-1.7331559v-15.087507l.1607143-.086022c-5.5801495-2.9741164-14.6436877-7.8055595-21.7442691-11.5897785z" fill="#b6c8ce"/></g></svg>