<svg height="226" viewBox="0 0 226 226" width="226" xmlns="http://www.w3.org/2000/svg"><g fill="none" transform="translate(12 11)"><g transform="translate(7.764809)"><path d="m14.3131975 56.868458c-1.3792496 0-2.6291446-.9421205-2.9627436-2.3418883l-3.73086222-15.6544963c-4.03362438-16.925338 6.45772372-33.97599852 23.38677152-38.00913938 16.9278464-4.03274046 33.9834455 6.45630858 38.0170699 23.38164658l3.7308623 15.6548967c.3900665 1.6371998-.621143 3.2808058-2.2587015 3.6711872-1.6355562.3899811-3.2815249-.6206064-3.6719919-2.2582065l-3.7308622-15.6548967c-3.2542923-13.6561437-17.0163523-22.11881269-30.6734867-18.86483317-13.6587364 3.25317877-22.1232603 17.01022097-18.8685676 30.66636467l3.7308623 15.6544963c.3900665 1.6371997-.621143 3.2808057-2.2587015 3.6711872-.2378846.0564551-.4753686.0836817-.7096488.0836817z" fill="#e0ecf0"/><g transform="translate(0 31.046749)"><path d="m83.654933 78.8347091-50.6998391 11.9969225-23.65148808-62.5298991 67.45988468-15.9627976z" fill="#bbec6c"/><path d="m76.7634905 12.3393353-15.8685794 3.7544686 6.5025773 62.7409052h16.2574446z" fill="#97da7b"/><path d="m78.6489456 11.8928991-71.23119533 16.8548692c-3.23987502.7667492-6.48775962-1.2376093-7.25427641-4.4767743-.76691726-3.2391651 1.23788056-6.486338 4.47775558-7.2526868l71.23119536-16.85486916c3.239875-.7667492 6.4877596 1.23760929 7.2542764 4.47677434.7669172 3.23916504-1.2378806 6.48633792-4.4777556 7.25268672z" fill="#ffd15b"/></g></g><path d="m15.0115544 132.075945 24.4836835-30.594295c15.3275323-19.1531145 41.4395633-23.5590196 61.0105711-7.9033221 8.286311 6.6284771 18.739213 10.4438051 29.367525 10.4438051h19.086027c17.451673 0 33.633828 11.156501 38.028684 28.235189l-85.988045 18.038425z" fill="#ffdfcf"/><g fill="#ffcebf" transform="translate(65.997335 84.072391)"><path d="m104.72886 48.1681145 16.26185.0172169c-4.394857-17.0790883-20.577011-28.2351891-38.0286841-28.2351891h-16.2574446c17.4460662-.0004004 33.6230147 11.1484933 38.0242787 28.2179722z"/><path d="m18.2514294 9.50593704c8.2863108 6.62847676 18.7392129 10.44380486 29.3675248 10.44380486h16.2574445c-10.6279114 0-21.081214-3.8153281-29.3675247-10.44380486-10.5109716-8.40821582-22.9085996-11.0295772-34.508874-8.6876889 6.35199724 1.29606641 12.5766422 4.14845353 18.2514294 8.6876889z"/></g><path d="m176.687726 81.0148519c-.471765-4.6941868-3.437712-8.8146129-7.739657-10.7529069l-18.532566-8.3509598c-4.302346-1.9386944-9.353988-1.4309983-13.184569 1.3244942-3.830181 2.7558928-5.916677 7.3836146-5.444913 12.0778014l2.032832 20.2221594c.242289 2.4087537 1.144969 4.6641578 2.544243 6.5532028l-15.189367 33.27051 14.149723.062461 12.823337-28.022582c2.342803-.203398 4.630739-1.020997 6.595889-2.435179l16.500536-11.8711997c3.830181-2.7554924 5.916276-7.3832142 5.444512-12.0778014zm-11.710407 3.3724953-16.500134 11.8707992c-1.576686 1.1343083-3.790134.1369338-3.984366-1.7953543l-2.032831-20.221759c-.194233-1.9322881 1.776525-3.3500734 3.547443-2.5520937l18.532966 8.3509599c1.770918.7979797 2.013608 3.2131396.436922 4.3474479z" fill="#fe7ab6"/><g transform="translate(0 132.06073)"><path d="m193.871077 72.9392703h-185.74215449c-4.48936946 0-8.12892251-3.6387555-8.12892251-8.1271412v-20.2153528c0-4.4883857 3.63955305-8.1271412 8.12892251-8.1271412l93.13939849-20.9072288 92.602756 20.9072288c4.48937 0 8.128923 3.6387555 8.128923 8.1271412v20.2153528c0 4.4883857-3.639553 8.1271412-8.128923 8.1271412z" fill="#855151"/><path d="m193.871077 36.4696351h-16.257444c4.489369 0 8.128922 3.6387555 8.128922 8.1271412v20.2153528c0 4.4883857-3.639553 8.1271412-8.128922 8.1271412h16.257444c4.48937 0 8.128923-3.6387555 8.128923-8.1271412v-20.2153528c0-4.4883857-3.639553-8.1271412-8.128923-8.1271412z" fill="#704444"/><path d="m193.871077 36.4696351h-185.74215449c-4.48936946 0-8.12892251-3.6387555-8.12892251-8.1271411v-20.21535283c0-4.48838568 3.63955305-8.12714117 8.12892251-8.12714117h94.99962349 90.742531c4.48937 0 8.128923 3.63875549 8.128923 8.12714117v20.21535283c0 4.488786-3.639553 8.1271411-8.128923 8.1271411z" fill="#b98080"/><path d="m193.871077.00040039h-16.257444c4.489369 0 8.128922 3.63875549 8.128922 8.12714118v20.21535273c0 4.4883857-3.639553 8.1271412-8.128922 8.1271412h16.257444c4.48937 0 8.128923-3.6387555 8.128923-8.1271412v-20.21535273c0-4.48838569-3.639553-8.12714118-8.128923-8.12714118z" fill="#ae6c6c"/></g><g fill="#ffdfcf"><path d="m3.04844615 6.09636725c-1.65998541 0-3.04804558-1.39055874-3.04844615-3.04777804-.00040039-1.66322517 1.38485643-3.04417452 3.04644375-3.04858921 1.65758254-.00439392 3.05044846 1.39257108 3.05044846 3.04858921-.00040048 1.65361577-1.39366688 3.04777804-3.04844606 3.04777804z" transform="translate(11.892224 147.248359)"/><path d="m3.04844684 6.09636725c-1.65998541 0-3.04724462-1.39095914-3.04844684-3.04777804-.00120066-1.66322517 1.38565808-3.04417452 3.04644445-3.04858921 1.65718205-.00439392 3.05124941 1.39257108 3.0504488 3.04858921-.00120178 1.65281499-1.39366723 3.04777804-3.04844641 3.04777804z" transform="translate(11.892223 183.718395)"/><path d="m3.04404114 6.09636725c-1.65878397 0-3.04364031-1.39376187-3.04404114-3.04777804-.00080061-1.66322516 1.38445621-3.04417451 3.04604354-3.04858921 1.66118684-.00439391 3.04684414 1.39177031 3.04604353 3.04858921-.00040083 1.6572193-1.38766004 3.04777804-3.04804593 3.04777804z" transform="translate(184.014889 147.248359)"/><path d="m3.04404157 6.09196295c-1.65958493 0-3.04323983-1.38575405-3.04404157-3.04337374-.00120066-1.66322516 1.38445664-3.04417451 3.04604397-3.04858921 1.66118684-.00439391 3.04724462 1.39177031 3.04604397 3.04858921-.00080174 1.66082282-1.38726 3.04337374-3.04804637 3.04337374z" transform="translate(184.014889 183.718395)"/></g></g></svg>