<?xml version="1.0" encoding="UTF-8"?>
<svg width="629px" height="227px" viewBox="0 0 629 227" version="1.1" xmlns="http://www.w3.org/2000/svg" xmlns:xlink="http://www.w3.org/1999/xlink">
    <!-- Generator: Sketch 42 (36781) - http://www.bohemiancoding.com/sketch -->
    <title>v</title>
    <desc>Created with Sketch.</desc>
    <defs></defs>
    <g id="Page-1" stroke="none" stroke-width="1" fill="none" fill-rule="evenodd">
        <g id="v">
            <g id="Group-2" transform="translate(3.000000, 4.000000)">
                <g id="Group">
                    <path d="M99.9014984,86.3128872 C112.992126,86.2549473 122.887933,95.9011478 122.963032,108.793545 C123.039695,121.829226 112.940496,132.117463 100.058736,132.127641 C87.4210471,132.13782 77.3218479,121.948238 77.2991618,109.163107 C77.2764758,96.0428655 86.8429443,86.37161 99.9014984,86.3128872 Z M40.4711135,108.309669 C40.9068419,85.3302588 51.2188206,67.5004474 71.2998776,55.8741138 C88.1587346,46.1135996 106.775369,41.2795378 125.673622,37.5878304 C135.833057,35.6029994 157.080489,32.8516399 163.938714,31.9825423 C146.61362,17.6283384 124.379736,9 100.131488,9 C44.8307446,9 0,53.8704915 0,109.220264 C0,136.883406 11.1982988,161.929077 29.304888,180.063464 C34.9748335,174.271829 50.1158097,158.8199 57.6866889,151.226649 C46.428937,139.61754 40.1605494,124.70821 40.4711135,108.309669 Z M171.129406,38.5532334 C166.070419,43.6237524 150.622008,59.1062173 142.764816,66.9789888 C143.834189,68.2818523 146.006573,70.2306666 147.255087,71.7997402 C158.411925,85.8266623 162.607278,101.841547 159.784822,119.405932 C156.063529,142.565425 142.074847,157.680677 121.084002,166.981587 C98.4057843,177.031018 74.3499766,181.558938 50.0055086,184.972691 C46.8904806,185.409588 39.6168667,186.297477 36.5761551,186.666257 C53.8652645,200.895968 76.0005816,209.440529 100.131488,209.440529 C155.432231,209.440529 200.262976,164.570037 200.262976,109.220264 C200.262976,81.6455982 189.1343,56.673527 171.129406,38.5532334 Z" id="Shape" fill="#FFFFFF" fill-rule="nonzero"></path>
                    <g id="Capa_1" transform="translate(242.000000, 79.000000)" fill-rule="nonzero" fill="#FFFFFF">
                        <path d="M137.660745,28.6577572 L106.891969,0.644020687 C106.037094,-0.049531576 105.102513,-0.182971704 104.087383,0.243980639 C103.073377,0.671493654 102.564268,1.44466146 102.564268,2.56572673 L102.564268,20.4943611 L2.56406461,20.4943611 C1.81583822,20.4943611 1.20120365,20.7340487 0.721002844,21.214265 C0.241082695,21.6942009 0,22.3081376 0,23.0549538 L0,38.4218741 C0,39.16841 0.239960075,39.7823467 0.720722189,40.2617219 C1.20204561,40.7416579 1.81668019,40.9813455 2.56378395,40.9813455 L102.56483,40.9813455 L102.56483,58.9096995 C102.56483,59.9783419 103.07478,60.7515097 104.088225,61.2303243 C105.104197,61.6589586 106.038778,61.4969242 106.893653,60.7515097 L137.662429,32.415947 C138.196515,31.8827472 138.462857,31.2435802 138.462857,30.495923 C138.462857,29.8040527 138.194831,29.1912373 137.660745,28.6577572 Z" id="Shape"></path>
                    </g>
                    <g id="Page-1" transform="translate(429.000000, 0.000000)">
                        <path d="M7.86160057,49.9158139 L89.3593969,2.6341149 C94.0384124,-0.0801008213 99.8163942,-0.0801008213 104.494798,2.6341149 L185.993206,49.9158139 C190.633082,52.6080472 193.488437,57.5620252 193.488437,62.9202351 L193.488437,157.650333 C193.488437,163.008543 190.633082,167.962521 185.993206,170.654754 L104.494798,217.936453 C99.8163942,220.650669 94.0384124,220.650669 89.3593969,217.936453 L7.86160057,170.654754 C3.22111312,167.962521 0.365757839,163.008543 0.365757839,157.650333 L0.365757839,62.9202351 C0.365757839,57.5620252 3.22111312,52.6080472 7.86160057,49.9158139" id="Fill-4" stroke="#FFFFFF" stroke-width="2.7104" fill="#1BB796"></path>
                        <path d="M131.906148,101.239404 C129.632994,98.169196 125.234071,97.5555207 122.2191,99.9039737 C115.257145,105.325688 106.507613,108.560154 97.0144277,108.560154 C85.1857102,108.560154 74.5116106,103.537786 67.011487,95.5190956 C58.6582426,103.429706 53.4477849,114.616916 53.4477849,127.019874 C53.4477849,147.746835 85.9446513,183.060949 94.7473894,191.025905 C95.9833442,192.144565 97.8644906,192.144565 99.101057,191.025905 C107.903795,183.060949 140.40005,147.746835 140.40005,127.019874 C140.40005,117.365937 137.244421,108.44841 131.906148,101.239404" id="Fill-6" fill="#FFFFFF"></path>
                        <path d="M131.912386,101.239404 C129.639232,98.169196 125.240309,97.5555207 122.225337,99.9039737 C121.791133,100.242258 121.349589,100.571994 120.901319,100.893182 C121.848007,106.369852 122.353764,112.122524 122.353764,118.056551 C122.353764,139.038141 108.269628,169.738393 96.1339093,191.763537 C97.1552079,192.02183 98.2768017,191.777581 99.1072949,191.025905 C107.910033,183.060949 140.406288,147.746835 140.406288,127.019874 C140.406288,117.365937 137.250658,108.44841 131.912386,101.239404" id="Fill-8" fill="#A9D4CA"></path>
                        <path d="M128.945981,98.7321897 C132.834866,106.209259 135.069492,114.952147 135.069492,124.294667 C135.069492,144.16981 112.484726,175.70173 99.8713824,190.949577 C108.790928,182.842957 141.087204,147.68394 141.087204,127.019874 C141.087204,117.365937 137.931574,108.44841 132.593301,101.239404 C131.657009,99.9741953 130.358676,99.1278729 128.945981,98.7321897 Z" id="Fill-10" fill="#0A9A7B"></path>
                        <path d="M123.894702,55.5445294 C123.894702,70.3673836 111.85989,82.3832075 97.0149781,82.3832075 C82.1694545,82.3832075 70.1346427,70.3673836 70.1346427,55.5445294 C70.1346427,40.7216753 82.1694545,28.7058514 97.0149781,28.7058514 C111.85989,28.7058514 123.894702,40.7216753 123.894702,55.5445294" id="Fill-12" fill="#FFFFFF"></path>
                        <path d="M116.94345,103.397282 C117.416183,103.411937 98.6891129,113.140981 79.0881293,110.579421 C59.3061251,107.994046 63.2965285,93.297591 74.1534834,91.5780788 C83.2338679,90.1394529 94.6381655,102.707279 116.94345,103.397282" id="Fill-14" fill="#34485E"></path>
                        <path d="M114.299265,104.746757 C114.674149,104.758359 99.8488066,112.69828 84.3152825,110.668572 C68.6380427,108.619934 71.8003991,96.9729261 80.4043814,95.6100173 C87.6005617,94.4705962 96.6228484,104.200251 114.299265,104.746757" id="Fill-16" fill="#1BB796"></path>
                    </g>
                </g>
            </g>
        </g>
    </g>
</svg>