<?xml version="1.0" encoding="UTF-8"?>
<svg width="58px" height="50px" viewBox="0 0 58 50" version="1.1" xmlns="http://www.w3.org/2000/svg" xmlns:xlink="http://www.w3.org/1999/xlink">
    <title>005-danger</title>
    <defs>
        <linearGradient x1="0%" y1="12.8418549%" x2="100%" y2="87.1581451%" id="linearGradient-1">
            <stop stop-color="#A4AEBE" offset="0%"></stop>
            <stop stop-color="#2D53F5" offset="100%"></stop>
        </linearGradient>
    </defs>
    <g id="Expert-Advice" stroke="none" stroke-width="1" fill="none" fill-rule="evenodd">
        <g id="avoiding-authentication-system-lock-in" transform="translate(-6.000000, -10.000000)" fill="url(#linearGradient-1)" fill-rule="nonzero">
            <g id="005-danger" transform="translate(6.000000, 10.000000)">
                <path d="M28.9999499,0 C30.8150562,0 32.5248109,0.968009358 33.4621003,2.52620462 L57.2527596,42.0792214 C58.2215413,43.689542 58.2502014,45.7073259 57.3277518,47.3450152 C56.4050756,48.9827044 54.6665475,50 52.7906091,50 L5.20929062,50 C3.33335227,50 1.59493742,48.9827044 0.672261218,47.3451287 C-0.25018842,45.7075531 -0.221528251,43.6897691 0.747140158,42.0792214 L24.5376861,2.52631818 C25.4750889,0.968009358 27.1848436,0 28.9999499,0 Z M29.0000632,3.78561614 C28.5003793,3.78561614 28.0296955,4.05214804 27.7716407,4.48107476 L3.98086819,44.0340916 C3.71431729,44.4773272 3.7063876,45.0328764 3.96036427,45.4837208 C4.21422767,45.9344515 4.69284117,46.2144974 5.20929062,46.2144974 L52.7906091,46.2144974 C53.3070586,46.2144974 53.7856721,45.934338 54.0396488,45.4836072 C54.2936254,45.0328764 54.2856957,44.4774407 54.0189183,44.0340916 L30.2283723,4.48107476 C29.9703175,4.05214804 29.4996337,3.78561614 29.0000632,3.78561614 Z M29.052739,36.0503992 C30.4890326,36.0503992 31.715416,37.279603 31.715416,38.7547838 C31.715416,40.1947602 30.4891459,41.4591685 29.052739,41.4591685 C27.511207,41.4591685 26.355058,40.1947602 26.355058,38.7547838 C26.355058,37.279603 27.5113203,36.0503992 29.052739,36.0503992 Z M29.0175085,15.5749117 C30.3839075,15.5749117 31.5399432,16.3477066 31.5399432,17.7173876 C31.5399432,21.8968395 31.0495485,27.902495 31.0495485,32.0818334 C31.0495485,33.17056 29.8583956,33.6270825 29.0176218,33.6270825 C27.89659,33.6270825 26.9505778,33.17056 26.9504646,32.0818334 C26.9504646,27.9023814 26.4600698,21.896726 26.4600698,17.7173876 C26.4600698,16.347593 27.5811016,15.5749117 29.0175085,15.5749117 Z" id="Combined-Shape"></path>
            </g>
        </g>
    </g>
</svg>