<?xml version="1.0" encoding="UTF-8"?>
<svg width="173px" height="220px" viewBox="0 0 173 220" version="1.1" xmlns="http://www.w3.org/2000/svg" xmlns:xlink="http://www.w3.org/1999/xlink">
    <!-- Generator: Sketch 63.1 (92452) - https://sketch.com -->
    <title>breached-password-stack-big</title>
    <desc>Created with Sketch.</desc>
    <defs>
        <path d="M154.061055,121.916307 C155.310815,124.165885 153.742081,126.977893 151.245947,126.977893 L118.753675,126.977893 C116.252733,126.977893 114.691244,124.161526 115.938566,121.916307 L132.184905,92.6643386 C133.435275,90.4137058 136.566987,90.417784 137.815122,92.6643386 L154.061055,121.916307 Z" id="path-1"></path>
        <filter x="-26.9%" y="-37.5%" width="153.8%" height="158.3%" filterUnits="objectBoundingBox" id="filter-2">
            <feOffset dx="0" dy="-3" in="SourceAlpha" result="shadowOffsetOuter1"></feOffset>
            <feGaussianBlur stdDeviation="3" in="shadowOffsetOuter1" result="shadowBlurOuter1"></feGaussianBlur>
            <feColorMatrix values="0 0 0 0 0   0 0 0 0 0   0 0 0 0 0  0 0 0 0.5 0" type="matrix" in="shadowBlurOuter1"></feColorMatrix>
        </filter>
    </defs>
    <g id="Page-1" stroke="none" stroke-width="1" fill="none" fill-rule="evenodd">
        <g id="breached-password-stack-big">
            <rect id="Rectangle" stroke="#2D3D50" stroke-width="4.2" x="17.1" y="191.1" width="139.65" height="26.25" rx="13.125"></rect>
            <circle id="Oval" fill="#343A3B" cx="100.05" cy="204.225" r="5.775"></circle>
            <circle id="Oval" fill="#343A3B" cx="83.775" cy="204.225" r="5.775"></circle>
            <circle id="Oval" fill="#343A3B" cx="68.025" cy="204.225" r="5.775"></circle>
            <circle id="Oval" fill="#343A3B" cx="50.7" cy="204.225" r="5.775"></circle>
            <circle id="Oval" fill="#343A3B" cx="33.9" cy="204.225" r="5.775"></circle>
            <rect id="Rectangle" stroke="#2D3D50" stroke-width="4.2" x="2.1" y="145.577893" width="168" height="26.25" rx="13.125"></rect>
            <circle id="Oval" fill="#343A3B" cx="152.25" cy="158.702893" r="5.775"></circle>
            <circle id="Oval" fill="#343A3B" cx="135.45" cy="158.702893" r="5.775"></circle>
            <circle id="Oval" fill="#343A3B" cx="118.65" cy="158.702893" r="5.775"></circle>
            <circle id="Oval" fill="#343A3B" cx="101.325" cy="158.702893" r="5.775"></circle>
            <circle id="Oval" fill="#343A3B" cx="84.525" cy="158.702893" r="5.775"></circle>
            <circle id="Oval" fill="#343A3B" cx="68.25" cy="158.702893" r="5.775"></circle>
            <circle id="Oval" fill="#343A3B" cx="52.5" cy="158.702893" r="5.775"></circle>
            <circle id="Oval" fill="#343A3B" cx="35.175" cy="158.702893" r="5.775"></circle>
            <circle id="Oval" fill="#343A3B" cx="18.375" cy="158.702893" r="5.775"></circle>
            <rect id="Rectangle" stroke="#F30000" stroke-width="4.2" fill="#FFFFFF" x="17.1" y="97.577893" width="139.65" height="26.25" rx="13.125"></rect>
            <circle id="Oval" fill="#F30000" cx="100.05" cy="110.702893" r="5.775"></circle>
            <circle id="Oval" fill="#F30000" cx="83.775" cy="110.702893" r="5.775"></circle>
            <circle id="Oval" fill="#F30000" cx="68.025" cy="110.702893" r="5.775"></circle>
            <circle id="Oval" fill="#F30000" cx="50.7" cy="110.702893" r="5.775"></circle>
            <circle id="Oval" fill="#F30000" cx="33.9" cy="110.702893" r="5.775"></circle>
            <rect id="Rectangle" stroke="#2D3D50" stroke-width="4.2" x="17.1" y="49.577893" width="139.65" height="26.25" rx="13.125"></rect>
            <circle id="Oval" fill="#343A3B" cx="83.775" cy="62.702893" r="5.775"></circle>
            <circle id="Oval" fill="#343A3B" cx="68.025" cy="62.702893" r="5.775"></circle>
            <circle id="Oval" fill="#343A3B" cx="50.7" cy="62.702893" r="5.775"></circle>
            <circle id="Oval" fill="#343A3B" cx="33.9" cy="62.702893" r="5.775"></circle>
            <rect id="Rectangle" stroke="#2D3D50" stroke-width="4.2" x="8.1" y="3.07789299" width="159.075" height="26.25" rx="13.125"></rect>
            <circle id="Oval" fill="#343A3B" cx="125.7" cy="16.202893" r="5.775"></circle>
            <circle id="Oval" fill="#343A3B" cx="108.375" cy="16.202893" r="5.775"></circle>
            <circle id="Oval" fill="#343A3B" cx="91.05" cy="16.202893" r="5.775"></circle>
            <circle id="Oval" fill="#343A3B" cx="74.775" cy="16.202893" r="5.775"></circle>
            <circle id="Oval" fill="#343A3B" cx="59.025" cy="16.202893" r="5.775"></circle>
            <circle id="Oval" fill="#343A3B" cx="41.7" cy="16.202893" r="5.775"></circle>
            <circle id="Oval" fill="#343A3B" cx="24.9" cy="16.202893" r="5.775"></circle>
            <g id="Path" fill-rule="nonzero" transform="translate(135.000000, 108.977893) rotate(-360.000000) translate(-135.000000, -108.977893) ">
                <use fill="black" fill-opacity="1" filter="url(#filter-2)" xlink:href="#path-1"></use>
                <use fill="#FFDF65" xlink:href="#path-1"></use>
            </g>
            <path d="M135,116.477893 C133.343152,116.477893 132,117.821045 132,119.477893 C132,121.134741 133.343152,122.477893 135,122.477893 C136.656848,122.477893 138,121.134741 138,119.477893 C138,117.821045 136.656848,116.477893 135,116.477893 Z" id="Path" fill="#FF3333" fill-rule="nonzero"></path>
            <path d="M132.001249,103.926943 L132.510596,114.126943 C132.534423,114.604243 132.895731,114.977893 133.333325,114.977893 L136.666675,114.977893 C137.104269,114.977893 137.465578,114.604243 137.489404,114.126943 L137.998751,103.926943 C138.0245,103.411393 137.648704,102.977893 137.176023,102.977893 L132.823909,102.977893 C132.351228,102.977893 131.9755,103.411393 132.001249,103.926943 L132.001249,103.926943 Z" id="Path" fill="#FF3333" fill-rule="nonzero"></path>
        </g>
    </g>
</svg>