<?xml version="1.0" encoding="UTF-8"?>
<svg width="689px" height="470px" viewBox="0 0 689 470" version="1.1" xmlns="http://www.w3.org/2000/svg" xmlns:xlink="http://www.w3.org/1999/xlink">
    <!-- Generator: Sketch 63.1 (92452) - https://sketch.com -->
    <title>code-screen-laptop</title>
    <desc>Created with Sketch.</desc>
    <g id="Page-1" stroke="none" stroke-width="1" fill="none" fill-rule="evenodd">
        <g id="code-screen-laptop" fill-rule="nonzero">
            <polygon id="Path-7" fill="#FFFFFF" points="8.66527263 401 680.800818 404.448303 684 433.758875 673.690961 452.21605 651.786471 466 623.739243 466 40.4810522 466 22.118633 458.365917 10.0457304 444.841261 4 428.127602 4 404.448303 4 401"></polygon>
            <rect id="Rectangle" fill="#FFFFFF" x="67" y="6" width="556" height="392" rx="20"></rect>
            <path d="M589.709829,0 L98.2916159,0 C77.1779522,0 60,16.9643897 60,37.8155611 L60,366.183012 C60,387.03561 77.1779522,404 98.2916159,404 L589.709829,404 C610.823494,404 628,387.03561 628,366.183012 L628,37.8155611 C628,16.962964 610.822049,0 589.709829,0 Z M619.42113,366.183012 C619.42113,382.363202 606.090821,395.526361 589.709829,395.526361 L98.2916159,395.526361 C81.9077362,395.526361 68.5788697,382.363202 68.5788697,366.183012 L68.5788697,37.8155611 C68.5788697,21.6353716 81.90918,8.47221425 98.2916159,8.47221425 L589.709829,8.47221425 C606.092266,8.47221425 619.42113,21.6353716 619.42113,37.8155611 L619.42113,366.183012 Z M104.352554,361.38228 L583.673435,361.38228 L583.673435,45.9484305 L104.352554,45.9484305 L104.352554,361.38228 Z M112.931424,54.4206446 L575.094565,54.4206446 L575.094565,352.910067 L112.931424,352.910067 L112.931424,54.4206446 Z" id="Shape" fill="#4A555F"></path>
            <path d="M588.401787,21 L99.5996487,21 C88.7931308,21 80,29.6745186 80,40.338424 L80,366.661577 C80,377.324064 88.7916947,386 99.5996487,386 L588.401787,386 C599.206869,386 608,377.325482 608,366.661577 L608,40.338424 C608,29.6759358 599.206869,21 588.401787,21 Z M593,372 L96,372 L96,39 L593,39 L593,372 L593,372 Z" id="Shape" fill="#666288"></path>
            <path d="M0,397 L0,423.624636 C0,449.19564 21.3898266,470 47.6822108,470 L641.319233,470 C667.611616,470 689,449.19564 689,423.624636 L689,397 L0,397 Z M680.416913,423.624636 C680.416913,444.593365 662.878064,461.652407 641.319233,461.652407 L47.6822108,461.652407 C26.1233801,461.652407 8.58308681,444.593365 8.58308681,423.624636 L8.58308681,405.347593 L680.416913,405.347593 L680.416913,423.624636 Z" id="Shape" fill="#4A555F"></path>
            <path d="M387.779053,415 C386.264209,418.071877 384.264619,420.826424 381.863953,423.237559 C376.120536,429.007474 368.175547,432.564766 359.402445,432.564766 L310.050316,432.564766 C297.648804,432.564766 286.903521,425.447283 281.673706,415 L19,415 L19,423.811364 C19,439.912639 32.0305319,453 48.0344833,453 L640.938105,453 C656.969468,453 670,439.912639 670,423.811364 L670,415 L387.779053,415 Z" id="Path" fill="#666288"></path>
            <rect id="Rectangle" fill="#FFD452" x="122" y="63" width="444" height="277"></rect>
            <rect id="Rectangle" fill="#4A555F" x="167" y="147" width="19" height="9"></rect>
            <rect id="Rectangle-Copy-11" fill="#4A555F" x="222" y="97" width="19" height="9"></rect>
            <rect id="Rectangle" fill="#4A555F" x="206" y="147" width="98" height="9"></rect>
            <rect id="Rectangle-Copy-12" fill="#4A555F" x="261" y="97" width="98" height="9"></rect>
            <rect id="Rectangle-Copy-15" fill="#4A555F" x="222" y="122" width="137" height="9"></rect>
            <rect id="Rectangle" fill="#4A555F" x="167" y="172" width="19" height="9"></rect>
            <rect id="Rectangle-Copy" fill="#4A555F" x="314" y="147" width="37" height="9"></rect>
            <rect id="Rectangle-Copy-13" fill="#4A555F" x="369" y="97" width="172" height="9"></rect>
            <rect id="Rectangle-Copy-16" fill="#4A555F" x="369" y="122" width="172" height="9"></rect>
            <rect id="Rectangle" fill="#4A555F" x="205" y="172" width="57" height="9"></rect>
            <rect id="Rectangle-Copy-3" fill="#4A555F" x="272" y="172" width="63" height="9"></rect>
            <rect id="Rectangle-Copy-4" fill="#4A555F" x="345" y="172" width="23" height="9"></rect>
            <rect id="Rectangle-Copy-5" fill="#4A555F" x="378" y="172" width="163" height="9"></rect>
            <rect id="Rectangle-Copy-2" fill="#4A555F" x="361" y="147" width="180" height="9"></rect>
            <rect id="Rectangle" fill="#4A555F" x="167" y="197" width="19" height="9"></rect>
            <rect id="Rectangle" fill="#4A555F" x="206" y="197" width="335" height="9"></rect>
            <rect id="Rectangle" fill="#4A555F" x="167" y="247" width="19" height="9"></rect>
            <rect id="Rectangle" fill="#4A555F" x="205" y="247" width="158" height="9"></rect>
            <rect id="Rectangle-Copy-7" fill="#4A555F" x="373" y="247" width="119" height="9"></rect>
            <rect id="Rectangle-Copy-8" fill="#4A555F" x="502" y="247" width="39" height="9"></rect>
            <rect id="Rectangle" fill="#4A555F" x="167" y="272" width="19" height="9"></rect>
            <rect id="Rectangle" fill="#4A555F" x="206" y="272" width="78" height="9"></rect>
            <rect id="Rectangle-Copy-9" fill="#4A555F" x="294" y="272" width="168" height="9"></rect>
            <rect id="Rectangle-Copy-10" fill="#4A555F" x="472" y="272" width="69" height="9"></rect>
            <rect id="Rectangle" fill="#4A555F" x="212" y="222" width="19" height="9"></rect>
            <rect id="Rectangle-Copy-6" fill="#4A555F" x="440" y="222" width="101" height="9"></rect>
            <rect id="Rectangle" fill="#4A555F" x="241" y="222" width="189" height="9"></rect>
            <path d="M275,398 L275,402.355994 C275,422.562758 291.112638,439 310.917161,439 L360.082841,439 C379.888798,439 396,422.561294 396,402.355994 L396,398 L275,398 Z M360.082841,430.288014 L310.917161,430.288014 C297.272002,430.288014 285.927622,420.051209 283.871148,406.711988 L387.127414,406.711988 C385.072378,420.052675 373.725126,430.288014 360.082841,430.288014 Z" id="Shape" fill="#4A555F"></path>
            <path d="M160.676884,124 L160.676884,116.332164 C163.520847,115.851852 165.670749,114.814035 167.126587,113.218713 C168.582426,111.623392 169.310345,109.745029 169.310345,107.583626 C169.310345,106.039766 168.946385,104.736062 168.218466,103.672515 C167.490547,102.608967 166.576415,101.708382 165.476072,100.97076 C164.375729,100.233138 163.190744,99.6241715 161.921118,99.1438596 C160.651491,98.6635478 159.466506,98.2175439 158.366163,97.805848 C157.26582,97.394152 156.351689,96.9824561 155.62377,96.5707602 C154.895851,96.1590643 154.531891,95.6444444 154.531891,95.0269006 C154.531891,93.4487329 155.699947,92.6596491 158.03606,92.6596491 C159.424186,92.6596491 160.651491,92.8740741 161.717978,93.302924 C162.784464,93.7317739 163.9102,94.3750487 165.095184,95.2327485 L165.095184,95.2327485 L168.802494,90.9099415 C167.752936,89.8120858 166.576415,88.894347 165.272932,88.1567251 C163.969449,87.4191033 162.437433,86.9302144 160.676884,86.6900585 L160.676884,86.6900585 L160.676884,80 L155.699947,80 L155.699947,86.7415205 C153.126837,87.1532164 151.095435,88.0966862 149.60574,89.5719298 C148.116044,91.0471735 147.371197,92.8998051 147.371197,95.1298246 C147.371197,96.7079922 147.735156,98.0288499 148.463076,99.0923977 C149.190995,100.155945 150.105126,101.047953 151.205469,101.768421 C152.305812,102.488889 153.499261,103.089279 154.785816,103.569591 C156.072371,104.049903 157.26582,104.51306 158.366163,104.959064 C159.466506,105.405068 160.380638,105.868226 161.108557,106.348538 C161.836476,106.82885 162.200436,107.42924 162.200436,108.149708 C162.200436,108.870175 161.878797,109.436257 161.235519,109.847953 C160.592242,110.259649 159.661182,110.465497 158.442341,110.465497 C156.817219,110.465497 155.285203,110.182456 153.846293,109.616374 C152.407382,109.050292 150.875366,108.269786 149.250244,107.274854 L149.250244,107.274854 L146,112.421053 C147.286555,113.553216 148.810107,114.470955 150.570656,115.174269 C152.331205,115.877583 154.040969,116.31501 155.699947,116.48655 L155.699947,116.48655 L155.699947,124 L160.676884,124 Z M178.275862,117.714286 L198,104.662553 L198,99.3374466 L178.275862,86.2857143 L178.275862,93.2292359 L191.817045,101.895586 L191.817045,102.104414 L178.275862,110.770764 L178.275862,117.714286 Z" id="$&gt;" fill="#4A555F"></path>
            <path d="M160.676884,333 L160.676884,325.332164 C163.520847,324.851852 165.670749,323.814035 167.126587,322.218713 C168.582426,320.623392 169.310345,318.745029 169.310345,316.583626 C169.310345,315.039766 168.946385,313.736062 168.218466,312.672515 C167.490547,311.608967 166.576415,310.708382 165.476072,309.97076 C164.375729,309.233138 163.190744,308.624172 161.921118,308.14386 C160.651491,307.663548 159.466506,307.217544 158.366163,306.805848 C157.26582,306.394152 156.351689,305.982456 155.62377,305.57076 C154.895851,305.159064 154.531891,304.644444 154.531891,304.026901 C154.531891,302.448733 155.699947,301.659649 158.03606,301.659649 C159.424186,301.659649 160.651491,301.874074 161.717978,302.302924 C162.784464,302.731774 163.9102,303.375049 165.095184,304.232749 L165.095184,304.232749 L168.802494,299.909942 C167.752936,298.812086 166.576415,297.894347 165.272932,297.156725 C163.969449,296.419103 162.437433,295.930214 160.676884,295.690058 L160.676884,295.690058 L160.676884,289 L155.699947,289 L155.699947,295.74152 C153.126837,296.153216 151.095435,297.096686 149.60574,298.57193 C148.116044,300.047173 147.371197,301.899805 147.371197,304.129825 C147.371197,305.707992 147.735156,307.02885 148.463076,308.092398 C149.190995,309.155945 150.105126,310.047953 151.205469,310.768421 C152.305812,311.488889 153.499261,312.089279 154.785816,312.569591 C156.072371,313.049903 157.26582,313.51306 158.366163,313.959064 C159.466506,314.405068 160.380638,314.868226 161.108557,315.348538 C161.836476,315.82885 162.200436,316.42924 162.200436,317.149708 C162.200436,317.870175 161.878797,318.436257 161.235519,318.847953 C160.592242,319.259649 159.661182,319.465497 158.442341,319.465497 C156.817219,319.465497 155.285203,319.182456 153.846293,318.616374 C152.407382,318.050292 150.875366,317.269786 149.250244,316.274854 L149.250244,316.274854 L146,321.421053 C147.286555,322.553216 148.810107,323.470955 150.570656,324.174269 C152.331205,324.877583 154.040969,325.31501 155.699947,325.48655 L155.699947,325.48655 L155.699947,333 L160.676884,333 Z M178.275862,326.714286 L198,313.662553 L198,308.337447 L178.275862,295.285714 L178.275862,302.229236 L191.817045,310.895586 L191.817045,311.104414 L178.275862,319.770764 L178.275862,326.714286 Z" id="$&gt;-copy" fill="#4A555F"></path>
        </g>
    </g>
</svg>