<?xml version="1.0" encoding="UTF-8"?>
<svg width="512px" height="512px" viewBox="0 0 512 512" version="1.1" xmlns="http://www.w3.org/2000/svg" xmlns:xlink="http://www.w3.org/1999/xlink">
    <!-- Generator: Sketch 58 (84663) - https://sketch.com -->
    <title>elasticsearch-computer</title>
    <desc>Created with Sketch.</desc>
    <g id="Page-1" stroke="none" stroke-width="1" fill="none" fill-rule="evenodd">
        <path d="M489.463,21.651 C485.825,17.988 480.768,15.721 475.187,15.721 L39.751,15.721 C26.97,15.721 16.605,26.085 16.605,38.867 L16.605,381.445 C16.605,394.227 26.97,404.591 39.751,404.591 L472.247,404.591 C485.028,404.591 495.393,394.227 495.393,381.445 L495.393,35.927 C495.393,30.346 493.126,25.289 489.463,21.651 Z M482.064,350.725 L32.327,350.725 L32.327,35.927 L482.064,35.927 L482.064,350.725 Z" id="Shape" fill="#DFDFDF" fill-rule="nonzero"></path>
        <path d="M472.446,0 L39.751,0 C18.306,0 0.861,17.436 0.861,38.867 L0.861,381.445 C0.861,402.89 18.306,420.337 39.751,420.337 L472.247,420.337 C493.692,420.337 511.14,402.89 511.14,381.445 L511.14,38.668 C511.14,17.347 493.781,0 472.446,0 Z M503.665,381.446 C503.665,398.77 489.57,412.863 472.247,412.863 L39.751,412.863 C22.428,412.863 8.335,398.769 8.335,381.446 L8.335,38.867 C8.335,21.557 22.427,7.474 39.751,7.474 L472.446,7.474 C489.66,7.474 503.665,21.467 503.665,38.668 L503.665,381.446 Z" id="Shape" fill="#4A555F" fill-rule="nonzero"></path>
        <path d="M40.598,44.198 L40.598,342.478 L473.792,342.478 L473.792,44.198 L40.598,44.198 Z M466.317,335.004 L48.072,335.004 L48.072,51.673 L466.317,51.673 L466.317,335.004 Z" id="Shape" fill="#4A555F" fill-rule="nonzero"></path>
        <path d="M307.979,412.849 L204.021,412.849 L175.778,480.607 L336.223,480.607 L307.979,412.849 Z M209.004,420.324 L302.996,420.324 L325.01,473.133 L186.989,473.133 L209.004,420.324 Z" id="Shape" fill="#4A555F" fill-rule="nonzero"></path>
        <polygon id="Path" fill="#DFDFDF" fill-rule="nonzero" points="297.483 428.593 214.514 428.593 199.394 464.865 312.605 464.865"></polygon>
        <path d="M110.839,473.133 L110.839,512 L401.16,512 L401.16,473.133 L110.839,473.133 Z M393.685,504.526 L118.313,504.526 L118.313,480.608 L393.685,480.608 L393.685,504.526 Z" id="Shape" fill="#4A555F" fill-rule="nonzero"></path>
        <rect id="Rectangle" fill="#DFDFDF" fill-rule="nonzero" x="126.581" y="488.877" width="258.836" height="7.381"></rect>
        <rect id="Rectangle" fill="#4A555F" fill-rule="nonzero" x="15.413" y="504.526" width="481.171" height="7.474"></rect>
        <circle id="Oval" fill="#FFFFFF" fill-rule="nonzero" cx="256" cy="378.141" r="18.944"></circle>
        <path d="M255.999,355.459 C243.493,355.459 233.318,365.634 233.318,378.14 C233.318,390.647 243.493,400.822 255.999,400.822 C268.505,400.822 278.68,390.647 278.68,378.14 C278.68,365.634 268.505,355.459 255.999,355.459 Z M255.999,393.348 C247.614,393.348 240.792,386.525 240.792,378.14 C240.792,369.755 247.614,362.933 255.999,362.933 C264.383,362.933 271.206,369.754 271.206,378.14 C271.206,386.526 264.383,393.348 255.999,393.348 Z" id="Shape" fill="#4A555F" fill-rule="nonzero"></path>
        <g id="elasticsearch" transform="translate(127.000000, 60.000000)" fill-rule="nonzero">
            <path d="M267,139.84627 C267,117.304915 253.050199,97.8272398 232.344034,90.1675153 C233.221015,85.4031434 233.658549,80.5677152 233.651078,75.7226555 C233.651078,33.9214872 199.868214,0 158.237869,0 C134.044515,0 111.377262,11.5990412 97.2094468,31.5145343 C90.235068,26.0428537 81.7345874,23.1980825 72.7980778,23.1980825 C50.7838256,23.1980825 32.693835,41.1433935 32.693835,63.4668869 C32.693835,68.2818402 33.5658931,73.0967934 35.0909517,77.4739285 C14.1678153,84.6958347 0,104.830237 0,127.152683 C0,149.695085 13.9498008,169.391669 34.8729372,177.051394 C34.0019222,181.647438 33.5658931,186.462391 33.5658931,191.495206 C33.5658931,233.077465 67.3487576,267 108.761088,267 C133.172457,267 155.622738,255.18205 169.78951,235.485466 C176.763889,240.956099 185.482384,244.020827 194.418894,244.020827 C216.433146,244.020827 234.523136,226.074468 234.523136,203.752022 C234.523136,198.937069 233.651078,194.122116 232.12602,189.744981 C252.613127,182.304165 267,162.169763 267,139.84627 L267,139.84627 Z" id="Path" fill="#FFFFFF"></path>
            <path d="M105.680782,113.585136 L165.849361,141 L226.67824,87.9262764 C227.565038,83.5216861 228.007785,79.0400093 228,74.5478984 C228,37.265615 197.585984,7 160.118668,7 C137.637857,7 116.701263,17.9653157 104.138674,36.3870882 L94,88.5843843 L105.680782,113.586186 L105.680782,113.585136 Z" id="Path" fill="#F4BD19"></path>
            <path d="M40.3173227,179.032636 C39.439458,183.397535 39,187.980732 39,192.563928 C39,229.664003 69.5339212,260 106.87839,260 C129.505221,260 150.37422,248.869977 163.114297,230.537192 L173,178.596042 L159.599685,153.279836 L99.4097068,126 L40.3173227,179.032636 L40.3173227,179.032636 Z" id="Path" fill="#3CBEB1"></path>
            <path d="M41.8912506,73.2218458 L81.1771803,83 L90,35.6662465 C84.5383981,31.2217277 78.025096,29 71.0925215,29 C54.0752881,29 40,43.6661677 40,61.8888014 C40,65.6664828 40.6304169,69.6664435 41.8902451,73.2218458 L41.8912506,73.2218458 Z" id="Path" fill="#E9478C"></path>
            <path d="M38.8378957,83 C20.5960383,88.9695624 8,106.877191 8,126.331701 C8,145.345001 19.5099042,162.368093 36.8838935,169 L94,116.382783 L83.5751907,93.6133783 L38.8378957,83.0010581 L38.8378957,83 Z" id="Path" fill="#2C458F"></path>
            <path d="M177,231.110411 C182.484653,235.555993 189.025444,238 195.776252,238 C212.865307,238 227,223.333832 227,205.111199 C227,201.111238 226.366922,197.332493 225.101777,193.777091 L185.65004,184 L177,231.110411 L177,231.110411 Z" id="Path" fill="#95C63D"></path>
            <path d="M184.736975,173.387549 L228.697524,184 C246.622659,177.810285 259,160.123573 259,140.667766 C259,121.654232 247.689935,104.853125 230.6176,98 L173,150.174532 L184.736975,173.388607 L184.736975,173.387549 Z" id="Path" fill="#176655"></path>
        </g>
    </g>
</svg>