<?xml version="1.0" encoding="UTF-8"?>
<svg width="623px" height="429px" viewBox="0 0 623 429" version="1.1" xmlns="http://www.w3.org/2000/svg" xmlns:xlink="http://www.w3.org/1999/xlink">
    <!-- Generator: Sketch 58 (84663) - https://sketch.com -->
    <title>features-for-days</title>
    <desc>Created with Sketch.</desc>
    <g id="Page-1" stroke="none" stroke-width="1" fill="none" fill-rule="evenodd">
        <path d="M566.607722,212 L343.39359,212 C333.802622,212 326,219.810338 326,229.410135 L326,380.589865 C326,390.190319 333.802622,398 343.39359,398 L566.607722,398 C576.198034,398 584,390.189662 584,380.589865 L584,229.410135 C584,219.810338 576.197378,212 566.607722,212 Z M580.10328,380.589865 C580.10328,388.039161 574.049001,394.099426 566.607722,394.099426 L343.39359,394.099426 C335.950999,394.099426 329.89672,388.038504 329.89672,380.589865 L329.89672,229.410135 C329.89672,221.960839 335.950999,215.900574 343.39359,215.900574 L566.607722,215.900574 C574.049001,215.900574 580.10328,221.961496 580.10328,229.410135 L580.10328,380.589865 Z" id="Shape" fill="#FFFFFF" fill-rule="nonzero"></path>
        <path d="M346,233 L346,378 L564,378 L564,233 L346,233 Z M560.098243,374.105456 L349.902414,374.105456 L349.902414,236.894544 L560.098243,236.894544 L560.098243,374.105456 L560.098243,374.105456 Z" id="Shape" fill="#FFFFFF" fill-rule="nonzero"></path>
        <path d="M566.055259,221 L342.946052,221 C338.012876,221 334,225.016421 334,229.953955 L334,381.046045 C334,385.983579 338.012876,390 342.946052,390 L566.055259,390 C570.987124,390 575,385.983579 575,381.046045 L575,229.953955 C575,225.016421 570.987124,221 566.055259,221 Z M567.859152,383.385567 L341.153957,383.385567 L341.153957,229.147653 L567.859152,229.147653 L567.859152,383.385567 Z" id="Shape" fill="#71CCE0" fill-rule="nonzero"></path>
        <path d="M298,394 L298,406.40117 C298,418.310952 307.71764,428 319.66176,428 L589.339552,428 C601.283673,428 611,418.310952 611,406.40117 L611,394 L298,394 Z M607.10087,406.400516 C607.10087,416.166118 599.133311,424.111425 589.339552,424.111425 L319.66176,424.111425 C309.868001,424.111425 301.89913,416.166118 301.89913,406.400516 L301.89913,397.88792 L607.10087,397.88792 L607.10087,406.400516 Z" id="Shape" fill="#FFFFFF" fill-rule="nonzero"></path>
        <path d="M474.677969,403 C473.989194,404.374209 473.079355,405.606459 471.988467,406.685084 C469.377027,409.266262 465.764567,410.85827 461.775576,410.85827 L439.335948,410.85827 C433.696522,410.85827 428.811469,407.674255 426.433556,403 L307,403 L307,406.942424 C307,414.145352 312.925431,420 320.201518,420 L589.786019,420 C597.075224,420 603,414.145352 603,406.942424 L603,403 L474.677969,403 Z" id="Path" fill="#71CCE0" fill-rule="nonzero"></path>
        <rect id="Rectangle" fill="#FFFFFF" fill-rule="nonzero" x="287" y="425" width="336" height="4"></rect>
        <path d="M423,395 L423,396.912319 C423,405.782621 430.3231,413 439.326247,413 L461.673753,413 C470.676247,413 478,405.783265 478,396.912319 L478,395 L423,395 Z M461.673753,409.174718 L439.326247,409.174718 C433.124703,409.174718 427.966983,404.681316 427.033551,398.824638 L473.967102,398.824638 C473.033017,404.681316 467.875297,409.174718 461.673753,409.174718 Z" id="Shape" fill="#FFFFFF" fill-rule="nonzero"></path>
        <path d="M346,233 L346,257 L564,257 L564,233 L346,233 Z M560.098243,253.121496 L349.902414,253.121496 L349.902414,236.877852 L560.098243,236.877852 L560.098243,253.121496 L560.098243,253.121496 Z" id="Shape" fill="#FFFFFF" fill-rule="nonzero"></path>
        <path d="M361,239 C357.692356,239 355,241.690951 355,244.999684 C355,248.308417 357.691725,251 361,251 C364.308275,251 367,248.308417 367,244.999684 C367,241.690951 364.308275,239 361,239 Z M361,247.245302 C359.762476,247.245302 358.754264,246.237143 358.754264,244.999052 C358.754264,243.760962 359.762476,242.753435 361,242.753435 C362.237524,242.753435 363.245736,243.760962 363.245736,244.999052 C363.245736,246.237143 362.238155,247.245302 361,247.245302 Z" id="Shape" fill="#FFFFFF" fill-rule="nonzero"></path>
        <path d="M376,239 C372.692356,239 370,241.690951 370,244.999684 C370,248.308417 372.691725,251 376,251 C379.308275,251 382,248.308417 382,244.999684 C382,241.690951 379.307644,239 376,239 Z M376,247.245302 C374.762476,247.245302 373.753632,246.237143 373.753632,244.999052 C373.753632,243.760962 374.761845,242.753435 376,242.753435 C377.238155,242.753435 378.245736,243.760962 378.245736,244.999052 C378.245736,246.237143 377.237524,247.245302 376,247.245302 Z" id="Shape" fill="#FFFFFF" fill-rule="nonzero"></path>
        <path d="M390,239 C386.692356,239 384,241.690951 384,244.999684 C384,248.308417 386.692356,251 390,251 C393.307644,251 396,248.308417 396,244.999684 C396,241.690951 393.307012,239 390,239 Z M390,247.245302 C388.761845,247.245302 387.753632,246.237143 387.753632,244.999052 C387.753632,243.760962 388.761845,242.753435 390,242.753435 C391.237524,242.753435 392.245736,243.760962 392.245736,244.999052 C392.245736,246.237143 391.237524,247.245302 390,247.245302 Z" id="Shape" fill="#FFFFFF" fill-rule="nonzero"></path>
        <path d="M363,271 L363,361 L454,361 L454,271 L363,271 Z M450.114526,357.106497 L366.885474,357.106497 L366.885474,274.892848 L450.114526,274.892848 L450.114526,357.106497 Z" id="Shape" fill="#FFFFFF" fill-rule="nonzero"></path>
        <rect id="Rectangle" fill="#F58E6F" fill-rule="nonzero" x="371" y="279" width="74" height="73"></rect>
        <path d="M464,270 L464,290 L548,290 L548,270 L464,270 Z M544.097056,286.013285 L467.903601,286.013285 L467.903601,273.986715 L544.097056,273.986715 L544.097056,286.013285 Z" id="Shape" fill="#FFFFFF" fill-rule="nonzero"></path>
        <rect id="Rectangle" fill="#FFD452" fill-rule="nonzero" x="473" y="279" width="67" height="3"></rect>
        <path d="M480.619079,307 L484.523684,307 L484.523684,303 L480.619079,303 L480.619079,307 Z M504.048026,307 L507.952631,307 L507.952631,303 L504.048026,303 L504.048026,307 Z M488.428947,307 L492.333552,307 L492.333552,303 L488.428947,303 L488.428947,307 Z M465,307 L468.904605,307 L468.904605,303 L465,303 L465,307 Z M472.809211,307 L476.713816,307 L476.713816,303 L472.809211,303 L472.809211,307 Z M496.238158,307 L500.142763,307 L500.142763,303 L496.238158,303 L496.238158,307 Z M535.286184,307 L539.190789,307 L539.190789,303 L535.286184,303 L535.286184,307 Z M543.095395,303 L543.095395,307 L547,307 L547,303 L543.095395,303 Z M519.667105,307 L523.57171,307 L523.57171,303 L519.667105,303 L519.667105,307 Z M511.857237,307 L515.761842,307 L515.761842,303 L511.857237,303 L511.857237,307 Z M527.476316,307 L531.380921,307 L531.380921,303 L527.476316,303 L527.476316,307 Z" id="Shape" fill="#FFFFFF" fill-rule="nonzero"></path>
        <path d="M480.619079,320 L484.523684,320 L484.523684,316.000673 L480.619079,316.000673 L480.619079,320 Z M488.428947,320 L492.333552,320 L492.333552,316.000673 L488.428947,316.000673 L488.428947,320 Z M496.238158,320 L500.142763,320 L500.142763,316.000673 L496.238158,316.000673 L496.238158,320 Z M465,320 L468.904605,320 L468.904605,316.000673 L465,316.000673 L465,320 Z M472.809211,320 L476.713816,320 L476.713816,316.000673 L472.809211,316.000673 L472.809211,320 Z M527.476316,320 L531.380921,320 L531.380921,316.000673 L527.476316,316.000673 L527.476316,320 Z M535.286184,320 L539.190789,320 L539.190789,316.000673 L535.286184,316.000673 L535.286184,320 Z M543.095395,316 L543.095395,319.999327 L547,319.999327 L547,316 L543.095395,316 Z M519.667105,320 L523.57171,320 L523.57171,316.000673 L519.667105,316.000673 L519.667105,320 Z M511.857237,320 L515.761842,320 L515.761842,316.000673 L511.857237,316.000673 L511.857237,320 Z M504.048026,320 L507.952631,320 L507.952631,316.000673 L504.048026,316.000673 L504.048026,320 Z" id="Shape" fill="#FFFFFF" fill-rule="nonzero"></path>
        <rect id="Rectangle" fill="#FFFFFF" fill-rule="nonzero" x="465" y="335" width="78" height="4"></rect>
        <rect id="Rectangle" fill="#FFFFFF" fill-rule="nonzero" x="465" y="348" width="56" height="4"></rect>
        <rect id="Rectangle" fill="#FFFFFF" fill-rule="nonzero" x="453" y="154" width="4" height="34"></rect>
        <polygon id="Rectangle" fill="#FFFFFF" fill-rule="nonzero" transform="translate(510.504235, 179.278702) rotate(-66.957897) translate(-510.504235, -179.278702) " points="493.397077 177.337645 527.613303 177.320897 527.611393 181.21976 493.395167 181.236508"></polygon>
        <polygon id="Rectangle" fill="#FFFFFF" fill-rule="nonzero" transform="translate(399.497649, 179.271299) rotate(-23.042103) translate(-399.497649, -179.271299) " points="397.556592 162.164141 401.455455 162.162231 401.438707 196.378457 397.539844 196.380367"></polygon>
        <path d="M195.7,203.6 L54.1,203.6 L54.1,17.3 L99,17.3 L99,29.5 C99,29.8 99,30 99.1,30.3 C99.1,30.5 99.1,30.5 99.2,30.6 C99.3,30.9 99.3,31.1 99.4,31.4 C99.4,31.5 99.5,31.6 99.5,31.7 C99.6,31.9 99.6,32 99.7,32.1 C99.9,32.4 100.1,32.7 100.4,33 L100.4,33 L101.1,33.6 C101.2,33.7 101.2,33.7 101.3,33.8 L101.7,34.1 C101.8,34.2 102,34.3 102.2,34.4 L102.5,34.5 C102.6,34.5 102.6,34.5 102.7,34.6 L102.8,34.6 C102.9,34.6 103.1,34.7 103.2,34.7 C103.3,34.7 103.3,34.7 103.4,34.7 L103.6,34.7 C103.8,34.7 104.1,34.7 104.3,34.7 L104.4,34.7 L105.1,34.6 C105.2,34.6 105.2,34.6 105.3,34.6 L105.7,34.5 C105.8,34.5 106,34.4 106.1,34.3 C106.2,34.2 106.4,34.1 106.6,34 C106.9,33.8 107.3,33.6 107.5,33.3 C107.6,33.2 107.7,33.1 107.8,33.1 L107.9,33 L108.2,32.6 C108.2,32.5 108.3,32.5 108.3,32.4 L108.5,32.2 C108.5,32.1 108.6,32.1 108.6,32 C108.7,31.8 108.8,31.6 108.9,31.4 L108.9,31.3 C108.9,31.2 109,31.2 109,31.1 L109,31 C109.1,30.7 109.2,30.4 109.2,30 C109.2,29.8 109.2,29.6 109.2,29.4 L109.2,17.3 L206.2,17.3 L206.2,29.5 C206.2,29.8 206.2,30 206.3,30.3 C206.3,30.5 206.3,30.5 206.4,30.6 C206.5,30.9 206.5,31.1 206.6,31.4 C206.6,31.5 206.7,31.6 206.7,31.7 C206.8,31.9 206.8,32 206.9,32.1 C207.1,32.4 207.3,32.7 207.6,33 L207.6,33 L208.2,33.6 C208.3,33.7 208.3,33.7 208.4,33.8 L208.8,34.1 C208.9,34.2 209.1,34.3 209.3,34.4 L209.6,34.5 C209.7,34.5 209.7,34.5 209.8,34.6 L209.9,34.6 C210,34.6 210.2,34.7 210.3,34.7 C210.4,34.7 210.4,34.7 210.5,34.7 L210.7,34.7 C210.9,34.7 211.2,34.7 211.4,34.7 L211.5,34.7 L212.2,34.6 C212.3,34.6 212.3,34.6 212.4,34.6 L212.8,34.5 C212.9,34.5 213.1,34.4 213.2,34.3 C213.3,34.2 213.5,34.1 213.7,34.1 C214,33.9 214.4,33.7 214.6,33.4 C214.7,33.3 214.8,33.2 214.9,33.1 L214.9,33.1 L215.2,32.7 C215.2,32.6 215.3,32.6 215.3,32.5 L215.5,32.3 C215.5,32.2 215.6,32.2 215.6,32.1 C215.7,31.9 215.8,31.7 215.9,31.5 L215.9,31.4 C215.9,31.3 216,31.3 216,31.2 L216,31.1 C216.1,30.8 216.2,30.5 216.2,30.1 C216.2,29.9 216.2,29.7 216.2,29.5 L216.2,17.3 L261,17.3 L261,115.2 L195.4,115.2 L195.4,203.6 L195.7,203.6 Z M57.4,200.4 L192.5,200.4 L192.5,112 L258.1,112 L258.1,20.6 L219.8,20.6 L219.8,29.5 C219.8,29.8 219.8,30.1 219.7,30.4 C219.7,30.9 219.5,31.4 219.4,31.9 C219.3,32.1 219.3,32.3 219.2,32.5 C219,32.9 218.9,33.3 218.7,33.6 C218.6,33.7 218.5,33.9 218.4,34 C218.3,34.1 218.3,34.2 218.2,34.3 C218.1,34.5 218,34.6 217.8,34.8 L217.6,35.2 L217.3,35.3 C217.2,35.4 217.1,35.5 217,35.6 C216.6,36 216.1,36.4 215.5,36.7 C215.2,36.8 215,37 214.7,37.1 C214.4,37.2 214.1,37.3 213.9,37.4 L213.5,37.5 C213.3,37.5 213.2,37.6 213,37.6 L212.3,37.7 C212.2,37.7 212.1,37.7 212.1,37.7 C211.4,37.8 211.1,37.7 210.7,37.7 L210.3,37.7 C209.9,37.7 209.5,37.6 209.2,37.5 C209.1,37.5 209,37.4 208.9,37.4 C208.7,37.3 208.5,37.3 208.3,37.2 C207.9,37 207.6,36.9 207.3,36.7 L207.1,36.6 C207,36.5 206.9,36.5 206.8,36.4 L206.7,36.3 C206.6,36.3 206.6,36.2 206.5,36.2 L205.4,36.2 L205.4,35.3 C204.9,34.8 204.5,34.3 204.2,33.7 C204.1,33.5 204,33.3 203.9,33.1 C203.9,33 203.8,32.8 203.7,32.6 C203.6,32.2 203.4,31.8 203.3,31.4 C203.3,31.2 203.2,31 203.2,30.7 C203.1,30.4 203.1,29.9 203.1,29.5 L203.1,20.6 L112.5,20.6 L112.5,29.5 C112.5,29.8 112.5,30.1 112.4,30.4 C112.4,30.9 112.2,31.4 112.1,31.9 C112,32.1 112,32.3 111.9,32.5 C111.7,32.9 111.6,33.3 111.4,33.6 C111.3,33.7 111.2,33.9 111.1,34.1 C111.1,34.2 111,34.3 110.9,34.4 C110.8,34.6 110.7,34.7 110.5,34.9 L110.3,35.3 L110,35.4 C109.9,35.5 109.8,35.6 109.7,35.7 C109.3,36.1 108.8,36.5 108.2,36.8 C107.9,36.9 107.7,37.1 107.4,37.2 C107.1,37.3 106.8,37.4 106.6,37.5 L106.2,37.6 C106,37.6 105.9,37.7 105.7,37.7 L105,37.8 C104.9,37.8 104.8,37.8 104.8,37.8 C104.1,37.9 103.8,37.8 103.4,37.8 L103,37.8 C102.6,37.8 102.2,37.7 101.9,37.6 C101.8,37.6 101.7,37.5 101.6,37.5 C101.4,37.4 101.2,37.4 101,37.3 C100.7,37.2 100.4,37 100,36.8 L99.7,36.6 C99.7,36.6 99.6,36.5 99.5,36.5 L99.4,36.4 C99.3,36.4 99.3,36.3 99.2,36.3 L98,36.3 L98,35.4 C97.5,34.9 97.1,34.4 96.8,33.8 C96.7,33.6 96.6,33.4 96.5,33.2 C96.5,33.1 96.4,32.9 96.3,32.7 C96.2,32.3 96,31.9 95.9,31.5 C95.9,31.3 95.8,31.1 95.8,30.8 C95.7,30.4 95.7,30 95.7,29.6 L95.7,20.7 L57.4,20.7 L57.4,200.4 Z" id="Shape" fill="#FFFFFF" fill-rule="nonzero"></path>
        <path d="M254.3,24.4 L254.3,113.7 L240.3,113.7 L240.3,62.8 L75.2,62.8 L75.2,182.1 L194.1,182.1 L194.1,196.5 L61.2,196.5 L61.2,24.4 L91.9,24.4 L91.9,29.5 C91.9,30.1 91.9,30.7 92,31.3 C92.8,36.7 97.5,41 102.9,41.5 C109.4,42.2 115.4,37.3 116.2,30.8 C116.3,30.4 116.3,29.9 116.3,29.5 L116.3,24.4 L199.1,24.4 L199.1,29.5 C199.1,35.2 203.6,40.4 209.1,41.6 C215.9,43 222.5,37.6 223.4,30.9 C223.5,30.5 223.5,30 223.5,29.6 L223.5,24.5 L254.3,24.5 L254.3,24.4 Z" id="Path" fill="#747373" fill-rule="nonzero"></path>
        <g id="Group" transform="translate(95.000000, 0.000000)" fill="#FFFFFF" fill-rule="nonzero">
            <path d="M9.1,37.9 C4.5,37.9 0.7,34.1 0.7,29.5 L0.7,8.4 C0.7,3.8 4.5,0 9.1,0 C13.7,0 17.5,3.8 17.5,8.4 L17.5,29.5 C17.5,34.1 13.7,37.9 9.1,37.9 Z M9.1,3.3 C6.3,3.3 4,5.6 4,8.4 L4,29.5 C4,32.3 6.3,34.6 9.1,34.6 C11.9,34.6 14.2,32.3 14.2,29.5 L14.2,8.4 C14.3,5.6 11.9,3.3 9.1,3.3 Z" id="Shape"></path>
            <path d="M116.3,37.9 C111.7,37.9 107.9,34.1 107.9,29.5 L107.9,8.4 C107.9,3.8 111.7,0 116.3,0 C120.9,0 124.7,3.8 124.7,8.4 L124.7,29.5 C124.7,34.1 121,37.9 116.3,37.9 Z M116.3,3.3 C113.5,3.3 111.2,5.6 111.2,8.4 L111.2,29.5 C111.2,32.3 113.5,34.6 116.3,34.6 C119.1,34.6 121.4,32.3 121.4,29.5 L121.4,8.4 C121.5,5.6 119.2,3.3 116.3,3.3 Z" id="Shape"></path>
        </g>
        <path d="M195.7,183.8 L73.6,183.8 L73.6,61.2 L241.9,61.2 L241.9,115.3 L195.7,115.3 L195.7,183.8 Z M76.8,180.5 L192.4,180.5 L192.4,112 L238.6,112 L238.6,64.4 L76.8,64.4 L76.8,180.5 Z" id="Shape" fill="#FFFFFF" fill-rule="nonzero"></path>
        <g id="Group" transform="translate(94.000000, 80.000000)" fill="#FFD552" fill-rule="nonzero">
            <rect id="Rectangle" x="0.1" y="0.7" width="21.5" height="20.7"></rect>
            <rect id="Rectangle" x="35.3" y="0.7" width="21.5" height="20.7"></rect>
            <rect id="Rectangle" x="0.1" y="33.6" width="21.5" height="20.7"></rect>
            <rect id="Rectangle" x="35.3" y="33.6" width="21.5" height="20.7"></rect>
            <rect id="Rectangle" x="0.1" y="66.5" width="21.5" height="20.7"></rect>
            <rect id="Rectangle" x="35.3" y="66.5" width="21.5" height="20.7"></rect>
        </g>
        <rect id="Rectangle" fill="#FFD552" fill-rule="nonzero" x="164.8" y="80.7" width="21.5" height="20.7"></rect>
        <path d="M187.9,103.1 L163.1,103.1 L163.1,79.1 L187.9,79.1 L187.9,103.1 Z M166.4,99.8 L184.7,99.8 L184.7,82.4 L166.4,82.4 L166.4,99.8 L166.4,99.8 Z" id="Shape" fill="#4A555F" fill-rule="nonzero"></path>
        <path d="M221.4,80.7 L221.4,80.7 L199.8,80.7 L199.8,88.7 C199.8,88.7 199.8,88.7 199.8,88.7 L199.8,101.5 L221.5,101.5 L221.5,80.7 L221.4,80.7 Z" id="Path" fill="#FFD552" fill-rule="nonzero"></path>
        <path d="M117.2,103.1 L92.4,103.1 L92.4,79.1 L117.2,79.1 L117.2,103.1 Z M95.7,99.8 L114,99.8 L114,82.4 L95.7,82.4 L95.7,99.8 Z" id="Shape" fill="#4A555F" fill-rule="nonzero"></path>
        <path d="M152.5,103.1 L127.7,103.1 L127.7,79.1 L152.5,79.1 L152.5,103.1 Z M131,99.8 L149.3,99.8 L149.3,82.4 L131,82.4 L131,99.8 Z" id="Shape" fill="#4A555F" fill-rule="nonzero"></path>
        <path d="M117.2,136 L92.4,136 L92.4,112 L117.2,112 L117.2,136 Z M95.7,132.7 L114,132.7 L114,115.2 L95.7,115.2 L95.7,132.7 Z" id="Shape" fill="#4A555F" fill-rule="nonzero"></path>
        <path d="M152.5,136 L127.7,136 L127.7,112 L152.5,112 L152.5,136 Z M131,132.7 L149.3,132.7 L149.3,115.2 L131,115.2 L131,132.7 Z" id="Shape" fill="#4A555F" fill-rule="nonzero"></path>
        <path d="M117.2,168.9 L92.4,168.9 L92.4,144.9 L117.2,144.9 L117.2,168.9 Z M95.7,165.6 L114,165.6 L114,148.1 L95.7,148.1 L95.7,165.6 Z" id="Shape" fill="#4A555F" fill-rule="nonzero"></path>
        <path d="M152.5,168.9 L127.7,168.9 L127.7,144.9 L152.5,144.9 L152.5,168.9 Z M131,165.6 L149.3,165.6 L149.3,148.1 L131,148.1 L131,165.6 Z" id="Shape" fill="#4A555F" fill-rule="nonzero"></path>
        <rect id="Rectangle" fill="#FFD552" fill-rule="nonzero" x="164.7" y="80.7" width="21.5" height="20.7"></rect>
        <path d="M187.8,103.1 L163,103.1 L163,79.1 L187.8,79.1 L187.8,103.1 Z M166.3,99.8 L184.6,99.8 L184.6,82.4 L166.3,82.4 L166.3,99.8 Z" id="Shape" fill="#FFFFFF" fill-rule="nonzero"></path>
        <rect id="Rectangle" fill="#FFD552" fill-rule="nonzero" x="164.8" y="113.6" width="21.5" height="20.7"></rect>
        <path d="M187.9,136 L163.1,136 L163.1,112 L187.9,112 L187.9,136 Z M166.4,132.7 L184.7,132.7 L184.7,115.2 L166.4,115.2 L166.4,132.7 L166.4,132.7 Z" id="Shape" fill="#4A555F" fill-rule="nonzero"></path>
        <rect id="Rectangle" fill="#FFD552" fill-rule="nonzero" x="164.7" y="113.6" width="21.5" height="20.7"></rect>
        <path d="M187.8,136 L163,136 L163,112 L187.8,112 L187.8,136 Z M166.3,132.7 L184.6,132.7 L184.6,115.2 L166.3,115.2 L166.3,132.7 Z" id="Shape" fill="#FFFFFF" fill-rule="nonzero"></path>
        <rect id="Rectangle" fill="#FFD552" fill-rule="nonzero" x="164.8" y="146.5" width="21.5" height="20.7"></rect>
        <path d="M187.9,168.9 L163.1,168.9 L163.1,144.9 L187.9,144.9 L187.9,168.9 Z M166.4,165.6 L184.7,165.6 L184.7,148.1 L166.4,148.1 L166.4,165.6 L166.4,165.6 Z" id="Shape" fill="#4A555F" fill-rule="nonzero"></path>
        <rect id="Rectangle" fill="#FFD552" fill-rule="nonzero" x="164.7" y="146.5" width="21.5" height="20.7"></rect>
        <path d="M187.8,168.9 L163,168.9 L163,144.9 L187.8,144.9 L187.8,168.9 Z M166.3,165.6 L184.6,165.6 L184.6,148.1 L166.3,148.1 L166.3,165.6 Z" id="Shape" fill="#FFFFFF" fill-rule="nonzero"></path>
        <path d="M221.3,80.7 L221.3,80.7 L199.8,80.7 L199.8,88.7 C199.8,88.7 199.8,88.7 199.8,88.7 L199.8,101.5 L221.5,101.5 L221.5,80.7 L221.3,80.7 Z" id="Path" fill="#FFD552" fill-rule="nonzero"></path>
        <path d="M223.2,103.1 L198.2,103.1 L198.2,79.1 L223.2,79.1 L223.2,103.1 Z M201.5,99.8 L220,99.8 L220,82.4 L201.5,82.4 L201.5,99.8 Z" id="Shape" fill="#4A555F" fill-rule="nonzero"></path>
        <path d="M223.1,103.1 L198.2,103.1 L198.2,79.1 L223.1,79.1 L223.1,103.1 Z M201.5,99.8 L219.9,99.8 L219.9,82.4 L201.5,82.4 L201.5,99.8 Z" id="Shape" fill="#FFFFFF" fill-rule="nonzero"></path>
        <path d="M117.1,103.1 L92.4,103.1 L92.4,79.1 L117.2,79.1 L117.2,103.1 L117.1,103.1 Z M95.6,99.8 L113.9,99.8 L113.9,82.4 L95.6,82.4 L95.6,99.8 Z" id="Shape" fill="#FFFFFF" fill-rule="nonzero"></path>
        <path d="M152.4,103.1 L127.6,103.1 L127.6,79.1 L152.4,79.1 L152.4,103.1 L152.4,103.1 Z M130.9,99.8 L149.2,99.8 L149.2,82.4 L130.9,82.4 L130.9,99.8 Z" id="Shape" fill="#FFFFFF" fill-rule="nonzero"></path>
        <path d="M117.1,136 L92.4,136 L92.4,112 L117.2,112 L117.2,136 L117.1,136 Z M95.6,132.7 L113.9,132.7 L113.9,115.2 L95.6,115.2 L95.6,132.7 Z" id="Shape" fill="#FFFFFF" fill-rule="nonzero"></path>
        <path d="M152.4,136 L127.6,136 L127.6,112 L152.4,112 L152.4,136 L152.4,136 Z M130.9,132.7 L149.2,132.7 L149.2,115.2 L130.9,115.2 L130.9,132.7 Z" id="Shape" fill="#FFFFFF" fill-rule="nonzero"></path>
        <path d="M117.1,168.9 L92.4,168.9 L92.4,144.9 L117.2,144.9 L117.2,168.9 L117.1,168.9 Z M95.6,165.6 L113.9,165.6 L113.9,148.1 L95.6,148.1 L95.6,165.6 Z" id="Shape" fill="#FFFFFF" fill-rule="nonzero"></path>
        <path d="M152.4,168.9 L127.6,168.9 L127.6,144.9 L152.4,144.9 L152.4,168.9 L152.4,168.9 Z M130.9,165.6 L149.2,165.6 L149.2,148.1 L130.9,148.1 L130.9,165.6 Z" id="Shape" fill="#FFFFFF" fill-rule="nonzero"></path>
        <path d="M307.9,256 L192.5,256 L192.5,112 L307.9,112 L307.9,256 Z M195.7,252.7 L304.6,252.7 L304.6,115.3 L195.7,115.3 L195.7,252.7 Z" id="Shape" fill="#FFFFFF" fill-rule="nonzero"></path>
        <g id="Group" transform="translate(199.000000, 119.000000)" fill="#FFFFFF" fill-rule="nonzero">
            <path d="M103.4,58.7 L100.1,58.7 L100.1,55.4 L103.4,55.4 L103.4,58.7 Z M103.4,65.5 L100.1,65.5 L100.1,62.2 L103.4,62.2 L103.4,65.5 Z M3.3,67.6 L0,67.6 L0,64.3 L3.3,64.3 L3.3,67.6 Z M103.4,52.2 L100.1,52.2 L100.1,49 L103.4,49 L103.4,52.2 Z M103.4,45.7 L100.1,45.7 L100.1,42.4 L103.4,42.4 L103.4,45.7 Z M103.4,39.2 L100.1,39.2 L100.1,35.9 L103.4,35.9 L103.4,39.2 Z M103.4,32.7 L100.1,32.7 L100.1,29.4 L103.4,29.4 L103.4,32.7 Z M103.4,26.2 L100.1,26.2 L100.1,22.9 L103.4,22.9 L103.4,26.2 Z M103.4,20.3 L100.1,20.3 L100.1,17 L103.4,17 L103.4,20.3 Z M103.4,14.5 L100.1,14.5 L100.1,11.2 L103.4,11.2 L103.4,14.5 Z M103.4,8.2 L100.1,8.2 L100.1,5 L103.4,5 L103.4,8.2 Z" id="Shape"></path>
            <path d="M0,0.1 L3.3,0.1 L3.3,1.7 L3.3,1.7 L3.3,3.3 L0,3.3 L0,0.1 Z M6.6,0.1 L9.9,0.1 L9.9,3.4 L6.6,3.4 L6.6,0.1 Z M12.9,0.1 L16.2,0.1 L16.2,3.4 L12.9,3.4 L12.9,0.1 Z M19.4,0.1 L22.7,0.1 L22.7,3.4 L19.4,3.4 L19.4,0.1 Z M26,0.1 L29.3,0.1 L29.3,3.4 L26,3.4 L26,0.1 Z M32.5,0.1 L35.8,0.1 L35.8,3.4 L32.5,3.4 L32.5,0.1 Z M39,0.1 L42.3,0.1 L42.3,3.4 L39,3.4 L39,0.1 Z M46.2,0.1 L49.5,0.1 L49.5,3.4 L46.2,3.4 L46.2,0.1 Z M53,0.1 L56.3,0.1 L56.3,3.4 L53,3.4 L53,0.1 Z M60,0.1 L63.3,0.1 L63.3,3.4 L60,3.4 L60,0.1 Z M67,0.1 L70.3,0.1 L70.3,3.4 L67,3.4 L67,0.1 Z M73.8,0.1 L77.1,0.1 L77.1,3.4 L73.8,3.4 L73.8,0.1 Z M80.3,0.1 L83.6,0.1 L83.6,3.4 L80.3,3.4 L80.3,0.1 Z M87.2,0.1 L90.5,0.1 L90.5,3.4 L87.2,3.4 L87.2,0.1 Z M93.9,0.1 L97.2,0.1 L97.2,3.4 L93.9,3.4 L93.9,0.1 Z M100.2,0.1 L103.5,0.1 L103.5,3.4 L100.2,3.4 L100.2,0.1 Z M0,6.1 L3.3,6.1 L3.3,9.4 L0,9.4 L0,6.1 Z M0,12.5 L3.3,12.5 L3.3,15.8 L0,15.8 L0,12.5 Z M0,19.7 L3.3,19.7 L3.3,23 L0,23 L0,19.7 Z M0,26.2 L3.3,26.2 L3.3,29.5 L0,29.5 L0,26.2 Z M0,32.7 L3.3,32.7 L3.3,36 L0,36 L0,32.7 Z M0,39.2 L3.3,39.2 L3.3,42.5 L0,42.5 L0,39.2 Z M0,45.8 L3.3,45.8 L3.3,49.1 L0,49.1 L0,45.8 Z M0,52.3 L3.3,52.3 L3.3,55.6 L0,55.6 L0,52.3 Z M0,58.8 L3.3,58.8 L3.3,62.1 L0,62.1 L0,58.8 Z" id="Shape"></path>
        </g>
        <g id="Group" transform="translate(199.000000, 188.000000)" fill="#FFFFFF" fill-rule="nonzero">
            <path d="M0,2.5 L3.3,2.5 L3.3,5.8 L0,5.8 L0,2.5 Z M0,9 L3.3,9 L3.3,12.3 L0,12.3 L0,9 Z M0,15.5 L3.3,15.5 L3.3,18.8 L0,18.8 L0,15.5 Z M0,22 L3.3,22 L3.3,25.3 L0,25.3 L0,22 Z M0,28.5 L3.3,28.5 L3.3,31.8 L0,31.8 L0,28.5 Z M0,35.1 L3.3,35.1 L3.3,38.4 L0,38.4 L0,35.1 Z M0,40.9 L3.3,40.9 L3.3,44.2 L0,44.2 L0,40.9 Z M0,47.2 L3.3,47.2 L3.3,50.5 L0,50.5 L0,47.2 Z M0,53.5 L3.3,53.5 L3.3,56.8 L0,56.8 L0,53.5 Z" id="Shape"></path>
            <path d="M103.4,62.2 L100.1,62.2 L100.1,60.6 L100.1,60.6 L100.1,59 L103.4,59 L103.4,62.2 Z M96.8,62.2 L93.5,62.2 L93.5,58.9 L96.8,58.9 L96.8,62.2 Z M90.5,62.2 L87.2,62.2 L87.2,58.9 L90.5,58.9 L90.5,62.2 Z M84,62.2 L80.7,62.2 L80.7,58.9 L84,58.9 L84,62.2 Z M77.5,62.2 L74.2,62.2 L74.2,58.9 L77.5,58.9 L77.5,62.2 Z M71,62.2 L67.7,62.2 L67.7,58.9 L71,58.9 L71,62.2 Z M64.5,62.2 L61.2,62.2 L61.2,58.9 L64.5,58.9 L64.5,62.2 Z M57.3,62.2 L54,62.2 L54,58.9 L57.3,58.9 L57.3,62.2 Z M50.4,62.2 L47.1,62.2 L47.1,58.9 L50.4,58.9 L50.4,62.2 Z M43.5,62.2 L40.2,62.2 L40.2,58.9 L43.5,58.9 L43.5,62.2 Z M36.4,62.2 L33.1,62.2 L33.1,58.9 L36.4,58.9 L36.4,62.2 Z M29.7,62.2 L26.4,62.2 L26.4,58.9 L29.7,58.9 L29.7,62.2 Z M23.2,62.2 L19.9,62.2 L19.9,58.9 L23.2,58.9 L23.2,62.2 Z M16.2,62.2 L13,62.2 L13,58.9 L16.3,58.9 L16.3,62.2 L16.2,62.2 Z M9.5,62.2 L6.2,62.2 L6.2,58.9 L9.5,58.9 L9.5,62.2 Z M3.3,62.2 L0,62.2 L0,58.9 L3.3,58.9 L3.3,62.2 Z M103.4,56.2 L100.1,56.2 L100.1,52.9 L103.4,52.9 L103.4,56.2 Z M103.4,49.7 L100.1,49.7 L100.1,46.4 L103.4,46.4 L103.4,49.7 Z M103.4,42.5 L100.1,42.5 L100.1,39.2 L103.4,39.2 L103.4,42.5 Z M103.4,36 L100.1,36 L100.1,32.7 L103.4,32.7 L103.4,36 Z M103.4,29.5 L100.1,29.5 L100.1,26.2 L103.4,26.2 L103.4,29.5 Z M103.4,23 L100.1,23 L100.1,19.7 L103.4,19.7 L103.4,23 Z M103.4,16.5 L100.1,16.5 L100.1,13.2 L103.4,13.2 L103.4,16.5 Z M103.4,9.9 L100.1,9.9 L100.1,6.6 L103.4,6.6 L103.4,9.9 Z M103.4,3.4 L100.1,3.4 L100.1,0.1 L103.4,0.1 L103.4,3.4 Z" id="Shape"></path>
        </g>
        <rect id="Rectangle" fill="#FFD552" fill-rule="nonzero" x="214.5" y="140.9" width="18.4" height="18.4"></rect>
        <rect id="Rectangle" fill="#FFD552" fill-rule="nonzero" x="214.5" y="175.8" width="18.4" height="18.4"></rect>
        <rect id="Rectangle" fill="#FFD552" fill-rule="nonzero" x="214.5" y="210.7" width="18.4" height="18.4"></rect>
        <path d="M234.5,160.9 L212.9,160.9 L212.9,139.3 L234.5,139.3 L234.5,160.9 Z M216.1,157.6 L231.2,157.6 L231.2,142.5 L216.1,142.5 L216.1,157.6 Z" id="Shape" fill="#FFFFFF" fill-rule="nonzero"></path>
        <path d="M234.5,195.8 L212.9,195.8 L212.9,174.2 L234.5,174.2 L234.5,195.8 Z M216.1,192.6 L231.2,192.6 L231.2,177.5 L216.1,177.5 L216.1,192.6 Z" id="Shape" fill="#FFFFFF" fill-rule="nonzero"></path>
        <path d="M234.5,230.7 L212.9,230.7 L212.9,209.1 L234.5,209.1 L234.5,230.7 Z M216.1,227.5 L231.2,227.5 L231.2,212.4 L216.1,212.4 L216.1,227.5 Z" id="Shape" fill="#FFFFFF" fill-rule="nonzero"></path>
        <polygon id="Path" fill="#FFFFFF" fill-rule="nonzero" points="224.8 155 218.8 147.8 221.3 145.7 225.1 150.2 238.1 137.6 240.4 140"></polygon>
        <polygon id="Path" fill="#FFFFFF" fill-rule="nonzero" points="224.8 189.9 218.8 182.7 221.3 180.6 225.1 185.2 238.3 172.4 240.5 174.8"></polygon>
        <polygon id="Path" fill="#FFFFFF" fill-rule="nonzero" points="224.8 224.9 218.8 217.6 221.3 215.6 225.1 220.1 238 207.6 240.2 210"></polygon>
        <rect id="Rectangle" fill="#FFFFFF" fill-rule="nonzero" x="247.7" y="144.9" width="39.4" height="3.3"></rect>
        <rect id="Rectangle" fill="#FFFFFF" fill-rule="nonzero" x="247.7" y="154.1" width="18.7" height="3.3"></rect>
        <rect id="Rectangle" fill="#FFFFFF" fill-rule="nonzero" x="247.7" y="179.9" width="39.4" height="3.3"></rect>
        <rect id="Rectangle" fill="#FFFFFF" fill-rule="nonzero" x="247.7" y="189" width="18.7" height="3.3"></rect>
        <rect id="Rectangle" fill="#FFFFFF" fill-rule="nonzero" x="247.7" y="214.8" width="39.4" height="3.3"></rect>
        <rect id="Rectangle" fill="#FFFFFF" fill-rule="nonzero" x="247.7" y="224" width="18.7" height="3.3"></rect>
        <path id="Line" d="M79.0590493,221.332677 L291.213,322.837 L295.529475,313.816945 L312,335 L285.171241,335.466587 L289.487,326.445 L77.332677,224.940951 L79.0590493,221.332677 Z" fill="#FCFAFA" fill-rule="nonzero"></path>
    </g>
</svg>