<?xml version="1.0" encoding="UTF-8"?>
<svg width="569px" height="429px" viewBox="0 0 569 429" version="1.1" xmlns="http://www.w3.org/2000/svg" xmlns:xlink="http://www.w3.org/1999/xlink">
    <!-- Generator: Sketch 59.1 (86144) - https://sketch.com -->
    <title>features-for-days</title>
    <desc>Created with Sketch.</desc>
    <g id="Page-1" stroke="none" stroke-width="1" fill="none" fill-rule="evenodd">
        <g id="features-for-days" fill-rule="nonzero">
            <path d="M512.607722,212 L289.39359,212 C279.802622,212 272,219.810338 272,229.410135 L272,380.589865 C272,390.190319 279.802622,398 289.39359,398 L512.607722,398 C522.198034,398 530,390.189662 530,380.589865 L530,229.410135 C530,219.810338 522.197378,212 512.607722,212 Z M526.10328,380.589865 C526.10328,388.039161 520.049001,394.099426 512.607722,394.099426 L289.39359,394.099426 C281.950999,394.099426 275.89672,388.038504 275.89672,380.589865 L275.89672,229.410135 C275.89672,221.960839 281.950999,215.900574 289.39359,215.900574 L512.607722,215.900574 C520.049001,215.900574 526.10328,221.961496 526.10328,229.410135 L526.10328,380.589865 Z" id="Shape" fill="#FFFFFF"></path>
            <path d="M292,233 L292,378 L510,378 L510,233 L292,233 Z M506.098243,374.105456 L295.902414,374.105456 L295.902414,236.894544 L506.098243,236.894544 L506.098243,374.105456 L506.098243,374.105456 Z" id="Shape" fill="#FFFFFF"></path>
            <path d="M512.055259,221 L288.946052,221 C284.012876,221 280,225.016421 280,229.953955 L280,381.046045 C280,385.983579 284.012876,390 288.946052,390 L512.055259,390 C516.987124,390 521,385.983579 521,381.046045 L521,229.953955 C521,225.016421 516.987124,221 512.055259,221 Z M513.859152,383.385567 L287.153957,383.385567 L287.153957,229.147653 L513.859152,229.147653 L513.859152,383.385567 Z" id="Shape" fill="#666288"></path>
            <path d="M244,394 L244,406.40117 C244,418.310952 253.71764,428 265.66176,428 L535.339552,428 C547.283673,428 557,418.310952 557,406.40117 L557,394 L244,394 Z M553.10087,406.400516 C553.10087,416.166118 545.133311,424.111425 535.339552,424.111425 L265.66176,424.111425 C255.868001,424.111425 247.89913,416.166118 247.89913,406.400516 L247.89913,397.88792 L553.10087,397.88792 L553.10087,406.400516 Z" id="Shape" fill="#FFFFFF"></path>
            <path d="M420.677969,403 C419.989194,404.374209 419.079355,405.606459 417.988467,406.685084 C415.377027,409.266262 411.764567,410.85827 407.775576,410.85827 L385.335948,410.85827 C379.696522,410.85827 374.811469,407.674255 372.433556,403 L253,403 L253,406.942424 C253,414.145352 258.925431,420 266.201518,420 L535.786019,420 C543.075224,420 549,414.145352 549,406.942424 L549,403 L420.677969,403 Z" id="Path" fill="#666288"></path>
            <rect id="Rectangle" fill="#FFFFFF" x="233" y="425" width="336" height="4"></rect>
            <path d="M369,395 L369,396.912319 C369,405.782621 376.3231,413 385.326247,413 L407.673753,413 C416.676247,413 424,405.783265 424,396.912319 L424,395 L369,395 Z M407.673753,409.174718 L385.326247,409.174718 C379.124703,409.174718 373.966983,404.681316 373.033551,398.824638 L419.967102,398.824638 C419.033017,404.681316 413.875297,409.174718 407.673753,409.174718 Z" id="Shape" fill="#FFFFFF"></path>
            <path d="M292,233 L292,257 L510,257 L510,233 L292,233 Z M506.098243,253.121496 L295.902414,253.121496 L295.902414,236.877852 L506.098243,236.877852 L506.098243,253.121496 L506.098243,253.121496 Z" id="Shape" fill="#FFFFFF"></path>
            <path d="M307,239 C303.692356,239 301,241.690951 301,244.999684 C301,248.308417 303.691725,251 307,251 C310.308275,251 313,248.308417 313,244.999684 C313,241.690951 310.308275,239 307,239 Z M307,247.245302 C305.762476,247.245302 304.754264,246.237143 304.754264,244.999052 C304.754264,243.760962 305.762476,242.753435 307,242.753435 C308.237524,242.753435 309.245736,243.760962 309.245736,244.999052 C309.245736,246.237143 308.238155,247.245302 307,247.245302 Z" id="Shape" fill="#FFFFFF"></path>
            <path d="M322,239 C318.692356,239 316,241.690951 316,244.999684 C316,248.308417 318.691725,251 322,251 C325.308275,251 328,248.308417 328,244.999684 C328,241.690951 325.307644,239 322,239 Z M322,247.245302 C320.762476,247.245302 319.753632,246.237143 319.753632,244.999052 C319.753632,243.760962 320.761845,242.753435 322,242.753435 C323.238155,242.753435 324.245736,243.760962 324.245736,244.999052 C324.245736,246.237143 323.237524,247.245302 322,247.245302 Z" id="Shape" fill="#FFFFFF"></path>
            <path d="M336,239 C332.692356,239 330,241.690951 330,244.999684 C330,248.308417 332.692356,251 336,251 C339.307644,251 342,248.308417 342,244.999684 C342,241.690951 339.307012,239 336,239 Z M336,247.245302 C334.761845,247.245302 333.753632,246.237143 333.753632,244.999052 C333.753632,243.760962 334.761845,242.753435 336,242.753435 C337.237524,242.753435 338.245736,243.760962 338.245736,244.999052 C338.245736,246.237143 337.237524,247.245302 336,247.245302 Z" id="Shape" fill="#FFFFFF"></path>
            <path d="M309,271 L309,361 L400,361 L400,271 L309,271 Z M396.114526,357.106497 L312.885474,357.106497 L312.885474,274.892848 L396.114526,274.892848 L396.114526,357.106497 Z" id="Shape" fill="#FFFFFF"></path>
            <rect id="Rectangle" fill="#E88C59" x="317" y="279" width="74" height="73"></rect>
            <path d="M410,270 L410,290 L494,290 L494,270 L410,270 Z M490.097056,286.013285 L413.903601,286.013285 L413.903601,273.986715 L490.097056,273.986715 L490.097056,286.013285 Z" id="Shape" fill="#FFFFFF"></path>
            <rect id="Rectangle" fill="#FFD452" x="419" y="279" width="67" height="3"></rect>
            <path d="M426.619079,307 L430.523684,307 L430.523684,303 L426.619079,303 L426.619079,307 Z M450.048026,307 L453.952631,307 L453.952631,303 L450.048026,303 L450.048026,307 Z M434.428947,307 L438.333552,307 L438.333552,303 L434.428947,303 L434.428947,307 Z M411,307 L414.904605,307 L414.904605,303 L411,303 L411,307 Z M418.809211,307 L422.713816,307 L422.713816,303 L418.809211,303 L418.809211,307 Z M442.238158,307 L446.142763,307 L446.142763,303 L442.238158,303 L442.238158,307 Z M481.286184,307 L485.190789,307 L485.190789,303 L481.286184,303 L481.286184,307 Z M489.095395,303 L489.095395,307 L493,307 L493,303 L489.095395,303 Z M465.667105,307 L469.57171,307 L469.57171,303 L465.667105,303 L465.667105,307 Z M457.857237,307 L461.761842,307 L461.761842,303 L457.857237,303 L457.857237,307 Z M473.476316,307 L477.380921,307 L477.380921,303 L473.476316,303 L473.476316,307 Z" id="Shape" fill="#FFFFFF"></path>
            <path d="M426.619079,320 L430.523684,320 L430.523684,316.000673 L426.619079,316.000673 L426.619079,320 Z M434.428947,320 L438.333552,320 L438.333552,316.000673 L434.428947,316.000673 L434.428947,320 Z M442.238158,320 L446.142763,320 L446.142763,316.000673 L442.238158,316.000673 L442.238158,320 Z M411,320 L414.904605,320 L414.904605,316.000673 L411,316.000673 L411,320 Z M418.809211,320 L422.713816,320 L422.713816,316.000673 L418.809211,316.000673 L418.809211,320 Z M473.476316,320 L477.380921,320 L477.380921,316.000673 L473.476316,316.000673 L473.476316,320 Z M481.286184,320 L485.190789,320 L485.190789,316.000673 L481.286184,316.000673 L481.286184,320 Z M489.095395,316 L489.095395,319.999327 L493,319.999327 L493,316 L489.095395,316 Z M465.667105,320 L469.57171,320 L469.57171,316.000673 L465.667105,316.000673 L465.667105,320 Z M457.857237,320 L461.761842,320 L461.761842,316.000673 L457.857237,316.000673 L457.857237,320 Z M450.048026,320 L453.952631,320 L453.952631,316.000673 L450.048026,316.000673 L450.048026,320 Z" id="Shape" fill="#FFFFFF"></path>
            <rect id="Rectangle" fill="#FFFFFF" x="411" y="335" width="78" height="4"></rect>
            <rect id="Rectangle" fill="#FFFFFF" x="411" y="348" width="56" height="4"></rect>
            <rect id="Rectangle" fill="#FFFFFF" x="399" y="154" width="4" height="34"></rect>
            <polygon id="Rectangle" fill="#FFFFFF" transform="translate(456.504235, 179.278702) rotate(-66.957897) translate(-456.504235, -179.278702) " points="439.397077 177.337645 473.613303 177.320897 473.611393 181.21976 439.395167 181.236508"></polygon>
            <polygon id="Rectangle" fill="#FFFFFF" transform="translate(345.497649, 179.271299) rotate(-23.042103) translate(-345.497649, -179.271299) " points="343.556592 162.164141 347.455455 162.162231 347.438707 196.378457 343.539844 196.380367"></polygon>
            <path d="M141.7,203.6 L0.1,203.6 L0.1,17.3 L45,17.3 L45,29.5 C45,29.8 45,30 45.1,30.3 C45.1,30.5 45.1,30.5 45.2,30.6 C45.3,30.9 45.3,31.1 45.4,31.4 C45.4,31.5 45.5,31.6 45.5,31.7 C45.6,31.9 45.6,32 45.7,32.1 C45.9,32.4 46.1,32.7 46.4,33 L46.4,33 L47.1,33.6 C47.2,33.7 47.2,33.7 47.3,33.8 L47.7,34.1 C47.8,34.2 48,34.3 48.2,34.4 L48.5,34.5 C48.6,34.5 48.6,34.5 48.7,34.6 L48.8,34.6 C48.9,34.6 49.1,34.7 49.2,34.7 C49.3,34.7 49.3,34.7 49.4,34.7 L49.6,34.7 C49.8,34.7 50.1,34.7 50.3,34.7 L50.4,34.7 L51.1,34.6 C51.2,34.6 51.2,34.6 51.3,34.6 L51.7,34.5 C51.8,34.5 52,34.4 52.1,34.3 C52.2,34.2 52.4,34.1 52.6,34 C52.9,33.8 53.3,33.6 53.5,33.3 C53.6,33.2 53.7,33.1 53.8,33.1 L53.9,33 L54.2,32.6 C54.2,32.5 54.3,32.5 54.3,32.4 L54.5,32.2 C54.5,32.1 54.6,32.1 54.6,32 C54.7,31.8 54.8,31.6 54.9,31.4 L54.9,31.3 C54.9,31.2 55,31.2 55,31.1 L55,31 C55.1,30.7 55.2,30.4 55.2,30 C55.2,29.8 55.2,29.6 55.2,29.4 L55.2,17.3 L152.2,17.3 L152.2,29.5 C152.2,29.8 152.2,30 152.3,30.3 C152.3,30.5 152.3,30.5 152.4,30.6 C152.5,30.9 152.5,31.1 152.6,31.4 C152.6,31.5 152.7,31.6 152.7,31.7 C152.8,31.9 152.8,32 152.9,32.1 C153.1,32.4 153.3,32.7 153.6,33 L153.6,33 L154.2,33.6 C154.3,33.7 154.3,33.7 154.4,33.8 L154.8,34.1 C154.9,34.2 155.1,34.3 155.3,34.4 L155.6,34.5 C155.7,34.5 155.7,34.5 155.8,34.6 L155.9,34.6 C156,34.6 156.2,34.7 156.3,34.7 C156.4,34.7 156.4,34.7 156.5,34.7 L156.7,34.7 C156.9,34.7 157.2,34.7 157.4,34.7 L157.5,34.7 L158.2,34.6 C158.3,34.6 158.3,34.6 158.4,34.6 L158.8,34.5 C158.9,34.5 159.1,34.4 159.2,34.3 C159.3,34.2 159.5,34.1 159.7,34.1 C160,33.9 160.4,33.7 160.6,33.4 C160.7,33.3 160.8,33.2 160.9,33.1 L160.9,33.1 L161.2,32.7 C161.2,32.6 161.3,32.6 161.3,32.5 L161.5,32.3 C161.5,32.2 161.6,32.2 161.6,32.1 C161.7,31.9 161.8,31.7 161.9,31.5 L161.9,31.4 C161.9,31.3 162,31.3 162,31.2 L162,31.1 C162.1,30.8 162.2,30.5 162.2,30.1 C162.2,29.9 162.2,29.7 162.2,29.5 L162.2,17.3 L207,17.3 L207,115.2 L141.4,115.2 L141.4,203.6 L141.7,203.6 Z M3.4,200.4 L138.5,200.4 L138.5,112 L204.1,112 L204.1,20.6 L165.8,20.6 L165.8,29.5 C165.8,29.8 165.8,30.1 165.7,30.4 C165.7,30.9 165.5,31.4 165.4,31.9 C165.3,32.1 165.3,32.3 165.2,32.5 C165,32.9 164.9,33.3 164.7,33.6 C164.6,33.7 164.5,33.9 164.4,34 C164.3,34.1 164.3,34.2 164.2,34.3 C164.1,34.5 164,34.6 163.8,34.8 L163.6,35.2 L163.3,35.3 C163.2,35.4 163.1,35.5 163,35.6 C162.6,36 162.1,36.4 161.5,36.7 C161.2,36.8 161,37 160.7,37.1 C160.4,37.2 160.1,37.3 159.9,37.4 L159.5,37.5 C159.3,37.5 159.2,37.6 159,37.6 L158.3,37.7 C158.2,37.7 158.1,37.7 158.1,37.7 C157.4,37.8 157.1,37.7 156.7,37.7 L156.3,37.7 C155.9,37.7 155.5,37.6 155.2,37.5 C155.1,37.5 155,37.4 154.9,37.4 C154.7,37.3 154.5,37.3 154.3,37.2 C153.9,37 153.6,36.9 153.3,36.7 L153.1,36.6 C153,36.5 152.9,36.5 152.8,36.4 L152.7,36.3 C152.6,36.3 152.6,36.2 152.5,36.2 L151.4,36.2 L151.4,35.3 C150.9,34.8 150.5,34.3 150.2,33.7 C150.1,33.5 150,33.3 149.9,33.1 C149.9,33 149.8,32.8 149.7,32.6 C149.6,32.2 149.4,31.8 149.3,31.4 C149.3,31.2 149.2,31 149.2,30.7 C149.1,30.4 149.1,29.9 149.1,29.5 L149.1,20.6 L58.5,20.6 L58.5,29.5 C58.5,29.8 58.5,30.1 58.4,30.4 C58.4,30.9 58.2,31.4 58.1,31.9 C58,32.1 58,32.3 57.9,32.5 C57.7,32.9 57.6,33.3 57.4,33.6 C57.3,33.7 57.2,33.9 57.1,34.1 C57.1,34.2 57,34.3 56.9,34.4 C56.8,34.6 56.7,34.7 56.5,34.9 L56.3,35.3 L56,35.4 C55.9,35.5 55.8,35.6 55.7,35.7 C55.3,36.1 54.8,36.5 54.2,36.8 C53.9,36.9 53.7,37.1 53.4,37.2 C53.1,37.3 52.8,37.4 52.6,37.5 L52.2,37.6 C52,37.6 51.9,37.7 51.7,37.7 L51,37.8 C50.9,37.8 50.8,37.8 50.8,37.8 C50.1,37.9 49.8,37.8 49.4,37.8 L49,37.8 C48.6,37.8 48.2,37.7 47.9,37.6 C47.8,37.6 47.7,37.5 47.6,37.5 C47.4,37.4 47.2,37.4 47,37.3 C46.7,37.2 46.4,37 46,36.8 L45.7,36.6 C45.7,36.6 45.6,36.5 45.5,36.5 L45.4,36.4 C45.3,36.4 45.3,36.3 45.2,36.3 L44,36.3 L44,35.4 C43.5,34.9 43.1,34.4 42.8,33.8 C42.7,33.6 42.6,33.4 42.5,33.2 C42.5,33.1 42.4,32.9 42.3,32.7 C42.2,32.3 42,31.9 41.9,31.5 C41.9,31.3 41.8,31.1 41.8,30.8 C41.7,30.4 41.7,30 41.7,29.6 L41.7,20.7 L3.4,20.7 L3.4,200.4 Z" id="Shape" fill="#FFFFFF"></path>
            <path d="M200.3,24.4 L200.3,113.7 L186.3,113.7 L186.3,62.8 L21.2,62.8 L21.2,182.1 L140.1,182.1 L140.1,196.5 L7.2,196.5 L7.2,24.4 L37.9,24.4 L37.9,29.5 C37.9,30.1 37.9,30.7 38,31.3 C38.8,36.7 43.5,41 48.9,41.5 C55.4,42.2 61.4,37.3 62.2,30.8 C62.3,30.4 62.3,29.9 62.3,29.5 L62.3,24.4 L145.1,24.4 L145.1,29.5 C145.1,35.2 149.6,40.4 155.1,41.6 C161.9,43 168.5,37.6 169.4,30.9 C169.5,30.5 169.5,30 169.5,29.6 L169.5,24.5 L200.3,24.5 L200.3,24.4 Z" id="Path" fill="#747373"></path>
            <g id="Group" transform="translate(41.000000, 0.000000)" fill="#FFFFFF">
                <path d="M9.1,37.9 C4.5,37.9 0.7,34.1 0.7,29.5 L0.7,8.4 C0.7,3.8 4.5,0 9.1,0 C13.7,0 17.5,3.8 17.5,8.4 L17.5,29.5 C17.5,34.1 13.7,37.9 9.1,37.9 Z M9.1,3.3 C6.3,3.3 4,5.6 4,8.4 L4,29.5 C4,32.3 6.3,34.6 9.1,34.6 C11.9,34.6 14.2,32.3 14.2,29.5 L14.2,8.4 C14.3,5.6 11.9,3.3 9.1,3.3 Z" id="Shape"></path>
                <path d="M116.3,37.9 C111.7,37.9 107.9,34.1 107.9,29.5 L107.9,8.4 C107.9,3.8 111.7,0 116.3,0 C120.9,0 124.7,3.8 124.7,8.4 L124.7,29.5 C124.7,34.1 121,37.9 116.3,37.9 Z M116.3,3.3 C113.5,3.3 111.2,5.6 111.2,8.4 L111.2,29.5 C111.2,32.3 113.5,34.6 116.3,34.6 C119.1,34.6 121.4,32.3 121.4,29.5 L121.4,8.4 C121.5,5.6 119.2,3.3 116.3,3.3 Z" id="Shape"></path>
            </g>
            <path d="M141.7,183.8 L19.6,183.8 L19.6,61.2 L187.9,61.2 L187.9,115.3 L141.7,115.3 L141.7,183.8 Z M22.8,180.5 L138.4,180.5 L138.4,112 L184.6,112 L184.6,64.4 L22.8,64.4 L22.8,180.5 Z" id="Shape" fill="#FFFFFF"></path>
            <g id="Group" transform="translate(40.000000, 80.000000)" fill="#FFD552">
                <rect id="Rectangle" x="0.1" y="0.7" width="21.5" height="20.7"></rect>
                <rect id="Rectangle" x="35.3" y="0.7" width="21.5" height="20.7"></rect>
                <rect id="Rectangle" x="0.1" y="33.6" width="21.5" height="20.7"></rect>
                <rect id="Rectangle" x="35.3" y="33.6" width="21.5" height="20.7"></rect>
                <rect id="Rectangle" x="0.1" y="66.5" width="21.5" height="20.7"></rect>
                <rect id="Rectangle" x="35.3" y="66.5" width="21.5" height="20.7"></rect>
            </g>
            <rect id="Rectangle" fill="#FFD552" x="110.8" y="80.7" width="21.5" height="20.7"></rect>
            <path d="M133.9,103.1 L109.1,103.1 L109.1,79.1 L133.9,79.1 L133.9,103.1 Z M112.4,99.8 L130.7,99.8 L130.7,82.4 L112.4,82.4 L112.4,99.8 L112.4,99.8 Z" id="Shape" fill="#4A555F"></path>
            <path d="M167.4,80.7 L167.4,80.7 L145.8,80.7 L145.8,88.7 C145.8,88.7 145.8,88.7 145.8,88.7 L145.8,101.5 L167.5,101.5 L167.5,80.7 L167.4,80.7 Z" id="Path" fill="#FFD552"></path>
            <path d="M63.2,103.1 L38.4,103.1 L38.4,79.1 L63.2,79.1 L63.2,103.1 Z M41.7,99.8 L60,99.8 L60,82.4 L41.7,82.4 L41.7,99.8 Z" id="Shape" fill="#4A555F"></path>
            <path d="M98.5,103.1 L73.7,103.1 L73.7,79.1 L98.5,79.1 L98.5,103.1 Z M77,99.8 L95.3,99.8 L95.3,82.4 L77,82.4 L77,99.8 Z" id="Shape" fill="#4A555F"></path>
            <path d="M63.2,136 L38.4,136 L38.4,112 L63.2,112 L63.2,136 Z M41.7,132.7 L60,132.7 L60,115.2 L41.7,115.2 L41.7,132.7 Z" id="Shape" fill="#4A555F"></path>
            <path d="M98.5,136 L73.7,136 L73.7,112 L98.5,112 L98.5,136 Z M77,132.7 L95.3,132.7 L95.3,115.2 L77,115.2 L77,132.7 Z" id="Shape" fill="#4A555F"></path>
            <path d="M63.2,168.9 L38.4,168.9 L38.4,144.9 L63.2,144.9 L63.2,168.9 Z M41.7,165.6 L60,165.6 L60,148.1 L41.7,148.1 L41.7,165.6 Z" id="Shape" fill="#4A555F"></path>
            <path d="M98.5,168.9 L73.7,168.9 L73.7,144.9 L98.5,144.9 L98.5,168.9 Z M77,165.6 L95.3,165.6 L95.3,148.1 L77,148.1 L77,165.6 Z" id="Shape" fill="#4A555F"></path>
            <rect id="Rectangle" fill="#FFD552" x="110.7" y="80.7" width="21.5" height="20.7"></rect>
            <path d="M133.8,103.1 L109,103.1 L109,79.1 L133.8,79.1 L133.8,103.1 Z M112.3,99.8 L130.6,99.8 L130.6,82.4 L112.3,82.4 L112.3,99.8 Z" id="Shape" fill="#FFFFFF"></path>
            <rect id="Rectangle" fill="#FFD552" x="110.8" y="113.6" width="21.5" height="20.7"></rect>
            <path d="M133.9,136 L109.1,136 L109.1,112 L133.9,112 L133.9,136 Z M112.4,132.7 L130.7,132.7 L130.7,115.2 L112.4,115.2 L112.4,132.7 L112.4,132.7 Z" id="Shape" fill="#4A555F"></path>
            <rect id="Rectangle" fill="#FFD552" x="110.7" y="113.6" width="21.5" height="20.7"></rect>
            <path d="M133.8,136 L109,136 L109,112 L133.8,112 L133.8,136 Z M112.3,132.7 L130.6,132.7 L130.6,115.2 L112.3,115.2 L112.3,132.7 Z" id="Shape" fill="#FFFFFF"></path>
            <rect id="Rectangle" fill="#FFD552" x="110.8" y="146.5" width="21.5" height="20.7"></rect>
            <path d="M133.9,168.9 L109.1,168.9 L109.1,144.9 L133.9,144.9 L133.9,168.9 Z M112.4,165.6 L130.7,165.6 L130.7,148.1 L112.4,148.1 L112.4,165.6 L112.4,165.6 Z" id="Shape" fill="#4A555F"></path>
            <rect id="Rectangle" fill="#FFD552" x="110.7" y="146.5" width="21.5" height="20.7"></rect>
            <path d="M133.8,168.9 L109,168.9 L109,144.9 L133.8,144.9 L133.8,168.9 Z M112.3,165.6 L130.6,165.6 L130.6,148.1 L112.3,148.1 L112.3,165.6 Z" id="Shape" fill="#FFFFFF"></path>
            <path d="M167.3,80.7 L167.3,80.7 L145.8,80.7 L145.8,88.7 C145.8,88.7 145.8,88.7 145.8,88.7 L145.8,101.5 L167.5,101.5 L167.5,80.7 L167.3,80.7 Z" id="Path" fill="#FFD552"></path>
            <path d="M169.2,103.1 L144.2,103.1 L144.2,79.1 L169.2,79.1 L169.2,103.1 Z M147.5,99.8 L166,99.8 L166,82.4 L147.5,82.4 L147.5,99.8 Z" id="Shape" fill="#4A555F"></path>
            <path d="M169.1,103.1 L144.2,103.1 L144.2,79.1 L169.1,79.1 L169.1,103.1 Z M147.5,99.8 L165.9,99.8 L165.9,82.4 L147.5,82.4 L147.5,99.8 Z" id="Shape" fill="#FFFFFF"></path>
            <path d="M63.1,103.1 L38.4,103.1 L38.4,79.1 L63.2,79.1 L63.2,103.1 L63.1,103.1 Z M41.6,99.8 L59.9,99.8 L59.9,82.4 L41.6,82.4 L41.6,99.8 Z" id="Shape" fill="#FFFFFF"></path>
            <path d="M98.4,103.1 L73.6,103.1 L73.6,79.1 L98.4,79.1 L98.4,103.1 L98.4,103.1 Z M76.9,99.8 L95.2,99.8 L95.2,82.4 L76.9,82.4 L76.9,99.8 Z" id="Shape" fill="#FFFFFF"></path>
            <path d="M63.1,136 L38.4,136 L38.4,112 L63.2,112 L63.2,136 L63.1,136 Z M41.6,132.7 L59.9,132.7 L59.9,115.2 L41.6,115.2 L41.6,132.7 Z" id="Shape" fill="#FFFFFF"></path>
            <path d="M98.4,136 L73.6,136 L73.6,112 L98.4,112 L98.4,136 L98.4,136 Z M76.9,132.7 L95.2,132.7 L95.2,115.2 L76.9,115.2 L76.9,132.7 Z" id="Shape" fill="#FFFFFF"></path>
            <path d="M63.1,168.9 L38.4,168.9 L38.4,144.9 L63.2,144.9 L63.2,168.9 L63.1,168.9 Z M41.6,165.6 L59.9,165.6 L59.9,148.1 L41.6,148.1 L41.6,165.6 Z" id="Shape" fill="#FFFFFF"></path>
            <path d="M98.4,168.9 L73.6,168.9 L73.6,144.9 L98.4,144.9 L98.4,168.9 L98.4,168.9 Z M76.9,165.6 L95.2,165.6 L95.2,148.1 L76.9,148.1 L76.9,165.6 Z" id="Shape" fill="#FFFFFF"></path>
            <path d="M253.9,256 L138.5,256 L138.5,112 L253.9,112 L253.9,256 Z M141.7,252.7 L250.6,252.7 L250.6,115.3 L141.7,115.3 L141.7,252.7 Z" id="Shape" fill="#FFFFFF"></path>
            <g id="Group" transform="translate(145.000000, 119.000000)" fill="#FFFFFF">
                <path d="M103.4,58.7 L100.1,58.7 L100.1,55.4 L103.4,55.4 L103.4,58.7 Z M103.4,65.5 L100.1,65.5 L100.1,62.2 L103.4,62.2 L103.4,65.5 Z M3.3,67.6 L0,67.6 L0,64.3 L3.3,64.3 L3.3,67.6 Z M103.4,52.2 L100.1,52.2 L100.1,49 L103.4,49 L103.4,52.2 Z M103.4,45.7 L100.1,45.7 L100.1,42.4 L103.4,42.4 L103.4,45.7 Z M103.4,39.2 L100.1,39.2 L100.1,35.9 L103.4,35.9 L103.4,39.2 Z M103.4,32.7 L100.1,32.7 L100.1,29.4 L103.4,29.4 L103.4,32.7 Z M103.4,26.2 L100.1,26.2 L100.1,22.9 L103.4,22.9 L103.4,26.2 Z M103.4,20.3 L100.1,20.3 L100.1,17 L103.4,17 L103.4,20.3 Z M103.4,14.5 L100.1,14.5 L100.1,11.2 L103.4,11.2 L103.4,14.5 Z M103.4,8.2 L100.1,8.2 L100.1,5 L103.4,5 L103.4,8.2 Z" id="Shape"></path>
                <path d="M0,0.1 L3.3,0.1 L3.3,1.7 L3.3,1.7 L3.3,3.3 L0,3.3 L0,0.1 Z M6.6,0.1 L9.9,0.1 L9.9,3.4 L6.6,3.4 L6.6,0.1 Z M12.9,0.1 L16.2,0.1 L16.2,3.4 L12.9,3.4 L12.9,0.1 Z M19.4,0.1 L22.7,0.1 L22.7,3.4 L19.4,3.4 L19.4,0.1 Z M26,0.1 L29.3,0.1 L29.3,3.4 L26,3.4 L26,0.1 Z M32.5,0.1 L35.8,0.1 L35.8,3.4 L32.5,3.4 L32.5,0.1 Z M39,0.1 L42.3,0.1 L42.3,3.4 L39,3.4 L39,0.1 Z M46.2,0.1 L49.5,0.1 L49.5,3.4 L46.2,3.4 L46.2,0.1 Z M53,0.1 L56.3,0.1 L56.3,3.4 L53,3.4 L53,0.1 Z M60,0.1 L63.3,0.1 L63.3,3.4 L60,3.4 L60,0.1 Z M67,0.1 L70.3,0.1 L70.3,3.4 L67,3.4 L67,0.1 Z M73.8,0.1 L77.1,0.1 L77.1,3.4 L73.8,3.4 L73.8,0.1 Z M80.3,0.1 L83.6,0.1 L83.6,3.4 L80.3,3.4 L80.3,0.1 Z M87.2,0.1 L90.5,0.1 L90.5,3.4 L87.2,3.4 L87.2,0.1 Z M93.9,0.1 L97.2,0.1 L97.2,3.4 L93.9,3.4 L93.9,0.1 Z M100.2,0.1 L103.5,0.1 L103.5,3.4 L100.2,3.4 L100.2,0.1 Z M0,6.1 L3.3,6.1 L3.3,9.4 L0,9.4 L0,6.1 Z M0,12.5 L3.3,12.5 L3.3,15.8 L0,15.8 L0,12.5 Z M0,19.7 L3.3,19.7 L3.3,23 L0,23 L0,19.7 Z M0,26.2 L3.3,26.2 L3.3,29.5 L0,29.5 L0,26.2 Z M0,32.7 L3.3,32.7 L3.3,36 L0,36 L0,32.7 Z M0,39.2 L3.3,39.2 L3.3,42.5 L0,42.5 L0,39.2 Z M0,45.8 L3.3,45.8 L3.3,49.1 L0,49.1 L0,45.8 Z M0,52.3 L3.3,52.3 L3.3,55.6 L0,55.6 L0,52.3 Z M0,58.8 L3.3,58.8 L3.3,62.1 L0,62.1 L0,58.8 Z" id="Shape"></path>
            </g>
            <g id="Group" transform="translate(145.000000, 188.000000)" fill="#FFFFFF">
                <path d="M0,2.5 L3.3,2.5 L3.3,5.8 L0,5.8 L0,2.5 Z M0,9 L3.3,9 L3.3,12.3 L0,12.3 L0,9 Z M0,15.5 L3.3,15.5 L3.3,18.8 L0,18.8 L0,15.5 Z M0,22 L3.3,22 L3.3,25.3 L0,25.3 L0,22 Z M0,28.5 L3.3,28.5 L3.3,31.8 L0,31.8 L0,28.5 Z M0,35.1 L3.3,35.1 L3.3,38.4 L0,38.4 L0,35.1 Z M0,40.9 L3.3,40.9 L3.3,44.2 L0,44.2 L0,40.9 Z M0,47.2 L3.3,47.2 L3.3,50.5 L0,50.5 L0,47.2 Z M0,53.5 L3.3,53.5 L3.3,56.8 L0,56.8 L0,53.5 Z" id="Shape"></path>
                <path d="M103.4,62.2 L100.1,62.2 L100.1,60.6 L100.1,60.6 L100.1,59 L103.4,59 L103.4,62.2 Z M96.8,62.2 L93.5,62.2 L93.5,58.9 L96.8,58.9 L96.8,62.2 Z M90.5,62.2 L87.2,62.2 L87.2,58.9 L90.5,58.9 L90.5,62.2 Z M84,62.2 L80.7,62.2 L80.7,58.9 L84,58.9 L84,62.2 Z M77.5,62.2 L74.2,62.2 L74.2,58.9 L77.5,58.9 L77.5,62.2 Z M71,62.2 L67.7,62.2 L67.7,58.9 L71,58.9 L71,62.2 Z M64.5,62.2 L61.2,62.2 L61.2,58.9 L64.5,58.9 L64.5,62.2 Z M57.3,62.2 L54,62.2 L54,58.9 L57.3,58.9 L57.3,62.2 Z M50.4,62.2 L47.1,62.2 L47.1,58.9 L50.4,58.9 L50.4,62.2 Z M43.5,62.2 L40.2,62.2 L40.2,58.9 L43.5,58.9 L43.5,62.2 Z M36.4,62.2 L33.1,62.2 L33.1,58.9 L36.4,58.9 L36.4,62.2 Z M29.7,62.2 L26.4,62.2 L26.4,58.9 L29.7,58.9 L29.7,62.2 Z M23.2,62.2 L19.9,62.2 L19.9,58.9 L23.2,58.9 L23.2,62.2 Z M16.2,62.2 L13,62.2 L13,58.9 L16.3,58.9 L16.3,62.2 L16.2,62.2 Z M9.5,62.2 L6.2,62.2 L6.2,58.9 L9.5,58.9 L9.5,62.2 Z M3.3,62.2 L0,62.2 L0,58.9 L3.3,58.9 L3.3,62.2 Z M103.4,56.2 L100.1,56.2 L100.1,52.9 L103.4,52.9 L103.4,56.2 Z M103.4,49.7 L100.1,49.7 L100.1,46.4 L103.4,46.4 L103.4,49.7 Z M103.4,42.5 L100.1,42.5 L100.1,39.2 L103.4,39.2 L103.4,42.5 Z M103.4,36 L100.1,36 L100.1,32.7 L103.4,32.7 L103.4,36 Z M103.4,29.5 L100.1,29.5 L100.1,26.2 L103.4,26.2 L103.4,29.5 Z M103.4,23 L100.1,23 L100.1,19.7 L103.4,19.7 L103.4,23 Z M103.4,16.5 L100.1,16.5 L100.1,13.2 L103.4,13.2 L103.4,16.5 Z M103.4,9.9 L100.1,9.9 L100.1,6.6 L103.4,6.6 L103.4,9.9 Z M103.4,3.4 L100.1,3.4 L100.1,0.1 L103.4,0.1 L103.4,3.4 Z" id="Shape"></path>
            </g>
            <rect id="Rectangle" fill="#FFD552" x="160.5" y="140.9" width="18.4" height="18.4"></rect>
            <rect id="Rectangle" fill="#FFD552" x="160.5" y="175.8" width="18.4" height="18.4"></rect>
            <rect id="Rectangle" fill="#FFD552" x="160.5" y="210.7" width="18.4" height="18.4"></rect>
            <path d="M180.5,160.9 L158.9,160.9 L158.9,139.3 L180.5,139.3 L180.5,160.9 Z M162.1,157.6 L177.2,157.6 L177.2,142.5 L162.1,142.5 L162.1,157.6 Z" id="Shape" fill="#FFFFFF"></path>
            <path d="M180.5,195.8 L158.9,195.8 L158.9,174.2 L180.5,174.2 L180.5,195.8 Z M162.1,192.6 L177.2,192.6 L177.2,177.5 L162.1,177.5 L162.1,192.6 Z" id="Shape" fill="#FFFFFF"></path>
            <path d="M180.5,230.7 L158.9,230.7 L158.9,209.1 L180.5,209.1 L180.5,230.7 Z M162.1,227.5 L177.2,227.5 L177.2,212.4 L162.1,212.4 L162.1,227.5 Z" id="Shape" fill="#FFFFFF"></path>
            <polygon id="Path" fill="#FFFFFF" points="170.8 155 164.8 147.8 167.3 145.7 171.1 150.2 184.1 137.6 186.4 140"></polygon>
            <polygon id="Path" fill="#FFFFFF" points="170.8 189.9 164.8 182.7 167.3 180.6 171.1 185.2 184.3 172.4 186.5 174.8"></polygon>
            <polygon id="Path" fill="#FFFFFF" points="170.8 224.9 164.8 217.6 167.3 215.6 171.1 220.1 184 207.6 186.2 210"></polygon>
            <rect id="Rectangle" fill="#FFFFFF" x="193.7" y="144.9" width="39.4" height="3.3"></rect>
            <rect id="Rectangle" fill="#FFFFFF" x="193.7" y="154.1" width="18.7" height="3.3"></rect>
            <rect id="Rectangle" fill="#FFFFFF" x="193.7" y="179.9" width="39.4" height="3.3"></rect>
            <rect id="Rectangle" fill="#FFFFFF" x="193.7" y="189" width="18.7" height="3.3"></rect>
            <rect id="Rectangle" fill="#FFFFFF" x="193.7" y="214.8" width="39.4" height="3.3"></rect>
            <rect id="Rectangle" fill="#FFFFFF" x="193.7" y="224" width="18.7" height="3.3"></rect>
            <polygon id="Line" fill="#FCFAFA" points="25.0590493 221.332677 237.213 322.837 241.529475 313.816945 258 335 231.171241 335.466587 235.487 326.445 23.332677 224.940951"></polygon>
        </g>
    </g>
</svg>