<?xml version="1.0" encoding="UTF-8"?>
<svg width="623px" height="461px" viewBox="0 0 623 461" version="1.1" xmlns="http://www.w3.org/2000/svg" xmlns:xlink="http://www.w3.org/1999/xlink">
    <!-- Generator: Sketch 59.1 (86144) - https://sketch.com -->
    <title>mf-auth-anyway</title>
    <desc>Created with Sketch.</desc>
    <g id="Page-1" stroke="none" stroke-width="1" fill="none" fill-rule="evenodd">
        <g id="mf-auth-anyway" transform="translate(0.000000, 4.000000)" fill-rule="nonzero">
            <g id="ASYMMETRIC-KEY" transform="translate(13.000000, 0.000000)">
                <g id="Group">
                    <path d="M377.578652,112.667532 L358.662921,86.5714286 L277.376404,86.5714286 L268.685393,109.597403 L188.932584,109.597403 L191.233146,103.457143 C195.067416,93.2233766 197.11236,82.4779221 197.11236,71.7324675 C197.11236,60.7311688 195.067416,49.7298701 190.977528,39.4961039 L188.676966,32.8441558 L417.199438,32.8441558 L463.210674,53.5675325 L463.210674,79.6636364 L415.154494,111.132468 L395.47191,87.0831169 L377.578652,112.667532 Z" id="Path" fill="#FFFFFF"></path>
                    <path d="M377.578652,112.667532 L358.662921,86.5714286 L277.376404,86.5714286 L268.685393,109.597403 L188.932584,109.597403 L191.233146,103.457143 C195.067416,93.2233766 197.11236,82.4779221 197.11236,71.7324675 C197.11236,60.7311688 195.067416,49.7298701 190.977528,39.4961039 L188.676966,32.8441558 L417.199438,32.8441558 L463.210674,53.5675325 L463.210674,79.6636364 L415.154494,111.132468 L395.47191,87.0831169 L377.578652,112.667532 Z M201.969101,100.131169 L262.294944,100.131169 L270.985955,77.1051948 L363.264045,77.1051948 L377.578652,96.8051948 L395.216292,71.4766234 L417.455056,98.5961039 L454.519663,74.2909091 L454.519663,59.1961039 L415.66573,41.7987013 L201.713483,41.7987013 C204.780899,51.2649351 206.314607,61.2428571 206.314607,71.2207792 C206.314607,81.1987013 204.780899,90.9207792 201.969101,100.131169 Z" id="Shape" fill="#4A555F"></path>
                    <rect id="Rectangle" stroke="#4A555F" stroke-width="8" fill="#FFFFFF" x="0" y="0" width="203" height="140" rx="23"></rect>
                    <rect id="Rectangle" stroke="#666288" stroke-width="8" fill="#666288" x="14" y="15" width="174" height="111" rx="9"></rect>
                    <circle id="Oval" stroke="#FFFFFF" fill="#FFFFFF" cx="70" cy="71" r="23.5"></circle>
                    <path d="M413.109551,51.7766234 L215.261236,51.7766234 C216.283708,57.9168831 215.261236,64.0571429 215.261236,70.4532468 C215.261236,76.5935065 216.283708,82.9896104 215.261236,89.1298701 L254.882022,89.1298701 L263.573034,66.1038961 L368.376404,66.1038961 L377.067416,78.1285714 L394.19382,53.5675325 L419.244382,84.012987 L443.52809,68.1506494 L443.783708,65.3363636 L413.109551,51.7766234 Z" id="Path" fill="#666288"></path>
                    <polygon id="Rectangle" fill="#4A555F" points="215.261236 51.7766234 414.783708 51.7766234 435.623596 60.987013 225.741573 60.987013"></polygon>
                    <path d="M70.3258427,99.8753247 C56.5224719,99.8753247 44.7640449,90.1532468 42.2078652,76.5935065 L42.2078652,76.0818182 C41.9522472,75.3142857 41.9522472,74.5467532 41.9522472,73.7792208 C41.9522472,73.2675325 41.9522472,72.7558442 41.9522472,72.2441558 L41.9522472,71.7324675 C41.9522472,71.4766234 41.9522472,71.2207792 41.9522472,70.9649351 C41.9522472,70.7090909 41.9522472,70.4532468 41.9522472,70.1974026 L46.5533708,70.1974026 L41.9522472,69.6857143 C41.9522472,69.174026 41.9522472,68.6623377 41.9522472,68.1506494 C41.9522472,67.3831169 42.2078652,66.6155844 42.2078652,65.8480519 L42.2078652,65.3363636 C44.7640449,51.7766234 56.7780899,42.0545455 70.3258427,42.0545455 C86.1741573,42.0545455 98.9550562,54.8467532 98.9550562,70.4532468 L98.9550562,70.4532468 C98.9550562,70.4532468 98.9550562,70.4532468 98.9550562,70.7090909 L98.9550562,70.9649351 C98.9550562,87.0831169 86.1741573,99.8753247 70.3258427,99.8753247 Z M70.3258427,51.2649351 C60.8679775,51.2649351 52.9438202,57.9168831 51.1544944,67.1272727 L51.1544944,67.3831169 C51.1544944,67.8948052 50.8988764,68.4064935 50.8988764,68.9181818 C50.8988764,69.174026 50.8988764,69.6857143 50.8988764,69.9415584 L50.8988764,71.2207792 L50.8988764,71.7324675 C50.8988764,72.2441558 50.8988764,72.7558442 50.8988764,73.0116883 C50.8988764,73.5233766 51.1544944,74.0350649 51.1544944,74.5467532 L51.1544944,74.8025974 C52.9438202,84.012987 61.1235955,90.6649351 70.3258427,90.6649351 C81.0617978,90.6649351 89.752809,81.9662338 90.008427,71.2207792 L90.008427,70.7090909 C90.008427,59.9636364 81.0617978,51.2649351 70.3258427,51.2649351 Z" id="Shape" fill="#4A555F"></path>
                </g>
            </g>
            <g id="ASYMMETRIC-KEY-Copy-2" transform="translate(0.000000, 237.000000)">
                <path d="M361.578652,148.667532 L342.662921,122.571429 L261.376404,122.571429 L252.685393,145.597403 L172.932584,145.597403 L175.233146,139.457143 C179.067416,129.223377 181.11236,118.477922 181.11236,107.732468 C181.11236,96.7311688 179.067416,85.7298701 174.977528,75.4961039 L172.676966,68.8441558 L401.199438,68.8441558 L447.210674,89.5675325 L447.210674,115.663636 L399.154494,147.132468 L379.47191,123.083117 L361.578652,148.667532 Z" id="Path" fill="#FFFFFF"></path>
                <path d="M361.578652,148.667532 L342.662921,122.571429 L261.376404,122.571429 L252.685393,145.597403 L172.932584,145.597403 L175.233146,139.457143 C179.067416,129.223377 181.11236,118.477922 181.11236,107.732468 C181.11236,96.7311688 179.067416,85.7298701 174.977528,75.4961039 L172.676966,68.8441558 L401.199438,68.8441558 L447.210674,89.5675325 L447.210674,115.663636 L399.154494,147.132468 L379.47191,123.083117 L361.578652,148.667532 Z M185.969101,136.131169 L246.294944,136.131169 L254.985955,113.105195 L347.264045,113.105195 L361.578652,132.805195 L379.216292,107.476623 L401.455056,134.596104 L438.519663,110.290909 L438.519663,95.1961039 L399.66573,77.7987013 L185.713483,77.7987013 C188.780899,87.2649351 190.314607,97.2428571 190.314607,107.220779 C190.314607,117.198701 188.780899,126.920779 185.969101,136.131169 Z" id="Shape" fill="#4A555F"></path>
                <polygon id="Polygon" fill="#FFFFFF" points="96 0 191.262794 55 191.262794 165 96 220 0.7372056 165 0.7372056 55"></polygon>
                <g id="Group">
                    <path d="M397.109551,87.7766234 L199.261236,87.7766234 C200.283708,93.9168831 199.261236,100.057143 199.261236,106.453247 C199.261236,112.593506 200.283708,118.98961 199.261236,125.12987 L238.882022,125.12987 L247.573034,102.103896 L352.376404,102.103896 L361.067416,114.128571 L378.19382,89.5675325 L403.244382,120.012987 L427.52809,104.150649 L427.783708,101.336364 L397.109551,87.7766234 Z" id="Path" fill="#EC8D53"></path>
                    <polygon id="Rectangle" fill="#4A555F" points="199.261236 87.7766234 397.109551 87.7766234 419.738764 96.987013 209.741573 96.987013"></polygon>
                    <path d="M96,17 L176.540363,63.5 L176.540363,156.5 L96,203 L15.4596374,156.5 L15.4596374,63.5 L96,17 Z M57.3258427,82.6597403 C50.1685393,82.6597403 43.7780899,85.7298701 39.4325843,90.5909091 L39.4325843,90.5909091 L39.6882022,90.8467532 C35.5983146,95.1961039 33.0421348,100.824675 33.0421348,107.220779 C33.2977528,113.616883 35.5983146,119.245455 39.6882022,123.594805 L39.6882022,123.594805 L39.4325843,123.850649 C43.7780899,128.711688 50.1685393,131.781818 57.3258427,131.781818 C67.2949438,131.781818 75.9859551,125.641558 79.5646067,116.942857 C80.8426966,113.872727 81.6095506,110.802597 81.3539326,107.220779 C81.3539326,103.638961 80.5870787,100.312987 79.3089888,97.4987013 C79.5646067,97.4987013 79.5646067,97.4987013 79.5646067,97.4987013 L79.4103644,97.1326831 C75.7408843,88.628253 67.1545339,82.6597403 57.3258427,82.6597403 Z" id="Combined-Shape" fill="#EC8D53"></path>
                    <path d="M96,0 L191.262794,55 L191.262794,165 L96,220 L0.737205584,165 L0.737205584,55 L96,0 Z M96,10 L9.39745962,60 L9.39745962,160 L96,210 L182.60254,160 L182.60254,60 L96,10 Z" id="Combined-Shape" fill="#4A555F"></path>
                    <path d="M57.3258427,135.875325 C43.5224719,135.875325 31.7640449,126.153247 29.2078652,112.593506 L29.2078652,112.081818 C28.9522472,111.314286 28.9522472,110.546753 28.9522472,109.779221 C28.9522472,109.267532 28.9522472,108.755844 28.9522472,108.244156 L28.9522472,107.732468 C28.9522472,107.476623 28.9522472,107.220779 28.9522472,106.964935 C28.9522472,106.709091 28.9522472,106.453247 28.9522472,106.197403 L33.5533708,106.197403 L28.9522472,105.685714 C28.9522472,105.174026 28.9522472,104.662338 28.9522472,104.150649 C28.9522472,103.383117 29.2078652,102.615584 29.2078652,101.848052 L29.2078652,101.336364 C31.7640449,87.7766234 43.7780899,78.0545455 57.3258427,78.0545455 C73.1741573,78.0545455 85.9550562,90.8467532 85.9550562,106.453247 L85.9550562,106.453247 C85.9550562,106.453247 85.9550562,106.453247 85.9550562,106.709091 L85.9550562,106.964935 C85.9550562,123.083117 73.1741573,135.875325 57.3258427,135.875325 Z M57.3258427,87.2649351 C47.8679775,87.2649351 39.9438202,93.9168831 38.1544944,103.127273 L38.1544944,103.383117 C38.1544944,103.894805 37.8988764,104.406494 37.8988764,104.918182 C37.8988764,105.174026 37.8988764,105.685714 37.8988764,105.941558 L37.8988764,107.220779 L37.8988764,107.732468 C37.8988764,108.244156 37.8988764,108.755844 37.8988764,109.011688 C37.8988764,109.523377 38.1544944,110.035065 38.1544944,110.546753 L38.1544944,110.802597 C39.9438202,120.012987 48.1235955,126.664935 57.3258427,126.664935 C68.0617978,126.664935 76.752809,117.966234 77.008427,107.220779 L77.008427,106.709091 C77.008427,95.9636364 68.0617978,87.2649351 57.3258427,87.2649351 Z" id="Shape" fill="#4A555F"></path>
                </g>
            </g>
            <g id="ASYMMETRIC-KEY-Copy" transform="translate(397.000000, 209.500000) scale(-1, 1) translate(-397.000000, -209.500000) translate(171.000000, 112.000000)">
                <g id="Group">
                    <path d="M96.5,189 C97.9817881,189 99.4635762,189 101.241722,189 C148.362583,186.554817 186,146.209302 186,97 L186,97 L186,97 C186,47.7906977 148.362583,7.44518272 101.241722,5 C99.7599338,5 98.2781457,5 96.5,5 C94.7218543,5 92.9437086,5 90.8692053,5.30564784 C90.2764901,5.30564784 89.6837748,5.30564784 89.0910596,5.30564784 C87.6092715,5.30564784 86.4238411,5.61129568 84.942053,5.61129568 C84.6456954,5.61129568 84.3493377,5.61129568 84.0529801,5.61129568 L84.0529801,5.61129568 C53.5281457,9.89036545 27.7450331,30.3687708 15.2980132,58.1827243 L15.2980132,58.1827243 C15.0016556,58.4883721 15.0016556,59.0996678 14.705298,59.4053156 C14.4089404,60.0166113 14.1125828,60.9335548 13.8162252,61.5448505 C13.5198675,62.461794 13.2235099,63.0730897 12.9271523,63.9900332 C12.6307947,64.6013289 12.6307947,65.2126246 12.3344371,65.8239203 C12.0380795,66.7408638 11.7417219,67.6578073 11.4453642,68.5747508 C11.1490066,69.4916944 11.1490066,70.10299 10.852649,70.4086379 C10.5562914,71.3255814 10.2599338,72.2425249 9.96357616,73.4651163 C9.96357616,74.076412 9.66721854,74.3820598 9.66721854,74.9933555 C9.37086093,75.910299 9.07450331,76.8272425 9.07450331,78.0498339 C9.07450331,78.6611296 8.7781457,79.2724252 8.7781457,79.8837209 C8.48178808,80.8006645 8.48178808,81.717608 8.18543046,82.6345515 C8.18543046,83.2458472 7.88907285,83.8571429 7.88907285,84.7740864 C7.88907285,85.6910299 7.59271523,86.6079734 7.59271523,87.5249169 C7.59271523,88.4418605 7.59271523,89.358804 7.29635762,89.9700997 C7.29635762,90.5813953 7.29635762,91.4983389 7,92.1096346 C7,93.6378738 7,95.166113 7,96.3887043 C7,96.6943522 7,96.6943522 7,97 L7,97 L7,97 C7,97.3056478 7,97.3056478 7,97.6112957 C7,99.1395349 7,100.667774 7,101.890365 C7,102.807309 7,103.418605 7.29635762,104.0299 C7.29635762,104.946844 7.29635762,105.863787 7.59271523,106.475083 C7.59271523,107.392027 7.88907285,108.30897 7.88907285,109.225914 C7.88907285,109.837209 8.18543046,110.448505 8.18543046,111.365449 C8.18543046,112.282392 8.48178808,113.199336 8.7781457,114.116279 C8.7781457,114.727575 9.07450331,115.33887 9.07450331,115.950166 C9.37086093,116.86711 9.37086093,117.784053 9.66721854,119.006645 C9.66721854,119.61794 9.96357616,119.923588 9.96357616,120.534884 C10.2599338,121.451827 10.5562914,122.368771 10.852649,123.591362 C11.1490066,124.202658 11.1490066,124.508306 11.4453642,125.119601 C11.7417219,126.036545 12.0380795,126.953488 12.3344371,127.870432 C12.6307947,128.481728 12.6307947,129.093023 12.9271523,129.704319 C13.2235099,130.621262 13.5198675,131.232558 13.8162252,132.149502 C14.1125828,132.760797 14.4089404,133.677741 14.705298,134.289037 C15.0016556,134.594684 15.0016556,135.20598 15.2980132,135.511628 L15.2980132,135.511628 C27.7450331,163.325581 53.5281457,183.803987 84.0529801,188.083056 L84.0529801,188.083056 C84.3493377,188.083056 84.6456954,188.083056 84.942053,188.083056 C86.4238411,188.388704 87.6092715,188.388704 89.0910596,188.388704 C89.6837748,188.388704 90.2764901,188.388704 90.8692053,188.388704 C92.647351,189 94.4254967,189 96.5,189 Z M82.0233621,110.291667 C78.1754112,119.5 68.8303875,126 58.1110956,126 C50.4151937,126 43.5438528,122.75 38.8713409,117.604167 L39.1461946,117.333333 C34.7485364,112.729167 32.2748536,106.770833 32,100 C32,93.2291667 34.7485364,87.2708333 39.1461946,82.6666667 L38.8713409,82.3958333 C43.5438528,77.25 50.4151937,74 58.1110956,74 C68.8303875,74 78.1754112,80.5 82.0233621,89.7083333 C82.0233621,89.7083333 82.0233621,89.7083333 81.7485085,89.7083333 C83.1227767,92.6875 83.9473376,96.2083333 83.9473376,100 C84.2221912,103.791667 83.3976303,107.041667 82.0233621,110.291667 L82.0233621,110.291667 Z" id="Shape" stroke="#979797" fill="#FFFFFF"></path>
                    <path d="M97.1797753,174.22987 C98.4578652,174.22987 99.7359551,174.22987 101.269663,174.22987 C141.912921,172.183117 174.376404,138.411688 174.376404,97.2207792 L174.376404,97.2207792 L174.376404,97.2207792 C174.376404,56.0298701 141.912921,22.2584416 101.269663,20.2116883 C99.991573,20.2116883 98.7134831,20.2116883 97.1797753,20.2116883 C95.6460674,20.2116883 94.1123596,20.2116883 92.3230337,20.4675325 C91.8117978,20.4675325 91.3005618,20.4675325 90.7893258,20.4675325 C89.511236,20.4675325 88.488764,20.7233766 87.2106742,20.7233766 C86.9550562,20.7233766 86.6994382,20.7233766 86.4438202,20.7233766 L86.4438202,20.7233766 C60.1151685,24.3051948 37.8764045,41.4467532 27.1404494,64.7285714 L27.1404494,64.7285714 C26.8848315,64.9844156 26.8848315,65.4961039 26.6292135,65.7519481 C26.3735955,66.2636364 26.1179775,67.0311688 25.8623596,67.5428571 C25.6067416,68.3103896 25.3511236,68.8220779 25.0955056,69.5896104 C24.8398876,70.1012987 24.8398876,70.612987 24.5842697,71.1246753 C24.3286517,71.8922078 24.0730337,72.6597403 23.8174157,73.4272727 C23.5617978,74.1948052 23.5617978,74.7064935 23.3061798,74.9623377 C23.0505618,75.7298701 22.7949438,76.4974026 22.5393258,77.5207792 C22.5393258,78.0324675 22.2837079,78.2883117 22.2837079,78.8 C22.0280899,79.5675325 21.7724719,80.3350649 21.7724719,81.3584416 C21.7724719,81.8701299 21.5168539,82.3818182 21.5168539,82.8935065 C21.261236,83.661039 21.261236,84.4285714 21.005618,85.1961039 C21.005618,85.7077922 20.75,86.2194805 20.75,86.987013 C20.75,87.7545455 20.494382,88.5220779 20.494382,89.2896104 C20.494382,90.0571429 20.494382,90.8246753 20.238764,91.3363636 C20.238764,91.8480519 20.238764,92.6155844 19.9831461,93.1272727 C19.9831461,94.4064935 19.9831461,95.6857143 19.9831461,96.7090909 C19.9831461,96.9649351 19.9831461,96.9649351 19.9831461,97.2207792 L19.9831461,97.2207792 L19.9831461,97.2207792 C19.9831461,97.4766234 19.9831461,97.4766234 19.9831461,97.7324675 C19.9831461,99.0116883 19.9831461,100.290909 19.9831461,101.314286 C19.9831461,102.081818 19.9831461,102.593506 20.238764,103.105195 C20.238764,103.872727 20.238764,104.64026 20.494382,105.151948 C20.494382,105.919481 20.75,106.687013 20.75,107.454545 C20.75,107.966234 21.005618,108.477922 21.005618,109.245455 C21.005618,110.012987 21.261236,110.780519 21.5168539,111.548052 C21.5168539,112.05974 21.7724719,112.571429 21.7724719,113.083117 C22.0280899,113.850649 22.0280899,114.618182 22.2837079,115.641558 C22.2837079,116.153247 22.5393258,116.409091 22.5393258,116.920779 C22.7949438,117.688312 23.0505618,118.455844 23.3061798,119.479221 C23.5617978,119.990909 23.5617978,120.246753 23.8174157,120.758442 C24.0730337,121.525974 24.3286517,122.293506 24.5842697,123.061039 C24.8398876,123.572727 24.8398876,124.084416 25.0955056,124.596104 C25.3511236,125.363636 25.6067416,125.875325 25.8623596,126.642857 C26.1179775,127.154545 26.3735955,127.922078 26.6292135,128.433766 C26.8848315,128.68961 26.8848315,129.201299 27.1404494,129.457143 L27.1404494,129.457143 C37.8764045,152.738961 60.1151685,169.880519 86.4438202,173.462338 L86.4438202,173.462338 C86.6994382,173.462338 86.9550562,173.462338 87.2106742,173.462338 C88.488764,173.718182 89.511236,173.718182 90.7893258,173.718182 C91.3005618,173.718182 91.8117978,173.718182 92.3230337,173.718182 C93.8567416,174.22987 95.3904494,174.22987 97.1797753,174.22987 Z M80.5646067,106.942857 C76.9859551,115.641558 68.2949438,121.781818 58.3258427,121.781818 C51.1685393,121.781818 44.7780899,118.711688 40.4325843,113.850649 L40.6882022,113.594805 C36.5983146,109.245455 34.2977528,103.616883 34.0421348,97.2207792 C34.0421348,90.8246753 36.5983146,85.1961039 40.6882022,80.8467532 L40.4325843,80.5909091 C44.7780899,75.7298701 51.1685393,72.6597403 58.3258427,72.6597403 C68.2949438,72.6597403 76.9859551,78.8 80.5646067,87.4987013 C80.5646067,87.4987013 80.5646067,87.4987013 80.3089888,87.4987013 C81.5870787,90.312987 82.3539326,93.638961 82.3539326,97.2207792 C82.6095506,100.802597 81.8426966,103.872727 80.5646067,106.942857 L80.5646067,106.942857 Z" id="Shape" fill="#FFD552"></path>
                    <path d="M97.1797753,194.697403 L97.1797753,194.697403 C96.9241573,194.697403 96.9241573,194.697403 97.1797753,194.697403 C95.3904494,194.697403 93.8567416,194.697403 92.0674157,194.697403 C91.3005618,194.697403 90.2780899,194.697403 89.511236,194.441558 L88.2331461,194.441558 C87.9775281,194.441558 87.4662921,194.441558 87.2106742,194.441558 C85.9325843,194.441558 84.9101124,194.185714 83.6320225,193.92987 L82.3539326,193.418182 C75.7078652,192.394805 69.3174157,190.85974 63.1825843,188.557143 C57.5589888,186.51039 51.9353933,183.696104 46.8230337,180.625974 C41.7106742,177.555844 36.8539326,173.974026 32.508427,169.880519 C28.1629213,165.787013 23.8174157,161.437662 20.238764,156.832468 C16.6601124,151.971429 13.3370787,146.854545 10.5252809,141.737662 C9.24719101,139.435065 8.2247191,136.876623 6.94662921,133.806494 C6.17977528,132.015584 5.66853933,130.224675 4.90168539,128.433766 L4.90168539,127.922078 C4.39044944,126.131169 3.87921348,124.34026 3.36797753,122.549351 C2.85674157,120.246753 2.34550562,118.455844 1.83426966,116.409091 L1.83426966,115.897403 C1.57865169,114.106494 1.32303371,112.315584 1.06741573,110.780519 L0.556179775,109.245455 C0.556179775,107.71039 0.300561798,106.175325 0.300561798,104.896104 L0.300561798,103.105195 C0.300561798,101.058442 0.0449438202,99.2675325 0.0449438202,97.2207792 C0.0449438202,95.6857143 0.0449438202,94.1506494 0.0449438202,92.6155844 C0.0449438202,91.5922078 0.0449438202,90.8246753 0.300561798,89.8012987 L0.300561798,88.5220779 C0.556179775,84.1727273 1.32303371,79.8233766 2.08988764,75.9857143 C5.9241573,58.3324675 15.1264045,41.9584416 28.6741573,28.6545455 C41.9662921,15.3506494 58.3258427,6.14025974 75.9634831,2.3025974 C80.0533708,1.53506494 84.1432584,0.767532468 88.744382,0.511688312 L89.7668539,0.511688312 C90.7893258,0.511688312 91.8117978,0.255844156 92.8342697,0.255844156 C96.1573034,-4.19941859e-14 99.7359551,-4.19941859e-14 103.314607,0.255844156 L105.103933,0.255844156 C106.63764,0.255844156 107.91573,0.511688312 109.449438,0.767532468 L110.47191,1.02337662 C112.005618,1.27922078 113.794944,1.53506494 115.328652,1.79090909 L116.095506,1.79090909 C118.140449,2.3025974 119.929775,2.55844156 121.974719,3.07012987 C124.019663,3.58181818 125.808989,4.09350649 127.598315,4.86103896 L128.109551,5.11688312 C129.898876,5.88441558 131.688202,6.3961039 133.477528,7.16363636 C163.640449,19.4441558 185.623596,46.0519481 192.269663,77.7766234 C192.269663,78.0324675 192.269663,78.2883117 192.525281,78.8 L192.780899,79.8233766 C193.036517,80.8467532 193.036517,81.6142857 193.292135,82.6376623 L193.547753,83.9168831 C193.803371,85.1961039 193.803371,86.2194805 194.058989,87.4987013 C194.058989,87.7545455 194.058989,88.2662338 194.058989,88.5220779 L194.058989,89.8012987 C194.058989,90.5688312 194.314607,91.5922078 194.314607,92.3597403 C194.314607,93.8948052 194.314607,95.6857143 194.314607,97.2207792 L194.314607,97.4766234 C194.314607,99.0116883 194.314607,100.546753 194.314607,102.081818 C193.292135,124.34026 184.345506,145.575325 169.519663,162.205195 L169.264045,162.461039 C168.497191,163.228571 167.730337,163.996104 166.963483,164.763636 L165.941011,165.787013 C165.685393,166.042857 165.174157,166.554545 164.918539,166.81039 L163.896067,167.833766 C163.384831,168.345455 162.873596,168.601299 162.617978,169.112987 L162.36236,169.368831 C145.747191,184.207792 124.530899,193.162338 102.292135,194.185714 C100.758427,194.185714 99.2247191,194.185714 97.6910112,194.185714 L97.1797753,194.697403 Z M97.1797753,8.95454545 C95.9016854,8.95454545 94.3679775,8.95454545 93.0898876,8.95454545 C92.0674157,8.95454545 91.3005618,8.95454545 90.2780899,9.21038961 L89.511236,9.21038961 C85.4213483,9.46623377 81.5870787,10.2337662 78.008427,11.0012987 C61.9044944,14.838961 47.0786517,23.025974 35.0646067,35.3064935 C22.7949438,47.3311688 14.6151685,62.1701299 11.0365169,78.0324675 C10.2696629,81.6142857 9.75842697,85.4519481 9.24719101,89.5454545 L9.24719101,90.5688312 C9.24719101,91.5922078 8.99157303,92.3597403 8.99157303,93.1272727 C8.99157303,94.4064935 8.99157303,95.9415584 8.99157303,97.2207792 C8.99157303,99.0116883 8.99157303,100.802597 9.24719101,102.593506 L9.24719101,104.128571 C9.24719101,105.407792 9.50280899,106.687013 9.50280899,107.966234 L9.75842697,109.501299 C10.0140449,111.036364 10.2696629,112.571429 10.5252809,113.850649 L10.5252809,114.362338 C11.0365169,116.409091 11.2921348,118.2 11.8033708,119.990909 C12.3146067,121.781818 12.8258427,123.572727 13.3370787,125.107792 L13.5926966,125.619481 C14.1039326,127.41039 14.8707865,129.201299 15.3820225,130.736364 C16.4044944,133.294805 17.4269663,135.597403 18.7050562,137.9 C21.261236,142.761039 24.0730337,147.366234 27.3960674,151.715584 C30.7191011,156.064935 34.5533708,159.902597 38.3876404,163.484416 C42.4775281,167.066234 46.8230337,170.392208 51.4241573,173.206494 C56.0252809,176.020779 61.1376404,178.323377 66.25,180.37013 C71.8735955,182.416883 77.752809,183.951948 83.6320225,184.975325 L84.6544944,185.231169 C85.6769663,185.487013 86.9550562,185.487013 87.9775281,185.742857 L90.0224719,185.998701 C90.7893258,185.998701 91.5561798,186.254545 92.3230337,186.254545 C93.8567416,186.254545 95.3904494,186.254545 96.6685393,186.254545 L96.6685393,190.85974 L96.6685393,186.254545 L96.6685393,190.85974 L96.6685393,186.254545 C98.4578652,186.254545 99.7359551,186.254545 101.014045,186.254545 C121.207865,185.231169 140.379213,177.3 155.460674,163.74026 L155.716292,163.484416 C156.227528,162.972727 156.483146,162.716883 156.994382,162.205195 L158.016854,161.181818 C158.272472,160.925974 158.52809,160.67013 158.783708,160.414286 L159.550562,159.646753 C160.317416,158.879221 161.08427,158.111688 161.595506,157.344156 L161.851124,157.088312 C175.398876,141.993506 183.323034,122.805195 184.345506,102.593506 C184.345506,101.314286 184.345506,99.7792208 184.345506,98.5 L184.345506,98.2441558 C184.345506,96.7090909 184.345506,95.174026 184.345506,93.638961 C184.345506,92.8714286 184.345506,92.1038961 184.089888,91.3363636 L183.83427,89.0337662 C183.83427,88.0103896 183.578652,86.7311688 183.323034,85.7077922 L183.067416,84.6844156 C182.811798,83.9168831 182.811798,82.8935065 182.55618,82.125974 L182.300562,80.3350649 C177.699438,50.6571429 157.761236,26.8636364 130.410112,15.6064935 C128.876404,14.838961 127.087079,14.3272727 125.553371,13.8155844 L124.786517,13.5597403 C123.252809,13.0480519 121.463483,12.5363636 119.929775,12.0246753 L119.674157,12.0246753 C118.140449,11.512987 116.351124,11.2571429 114.561798,10.7454545 L114.050562,10.7454545 C112.516854,10.4896104 110.983146,10.2337662 109.705056,9.97792208 L107.91573,9.72207792 C106.63764,9.46623377 105.359551,9.46623377 104.081461,9.46623377 L102.547753,9.46623377 C100.758427,9.21038961 98.9691011,8.95454545 97.1797753,8.95454545 Z" id="Shape" fill="#4A555F"></path>
                    <path d="M365.578652,138.667532 L346.662921,112.571429 L265.376404,112.571429 L256.685393,135.597403 L176.932584,135.597403 L179.233146,129.457143 C183.067416,119.223377 185.11236,108.477922 185.11236,97.7324675 C185.11236,86.7311688 183.067416,75.7298701 178.977528,65.4961039 L176.676966,58.8441558 L405.199438,58.8441558 L451.210674,79.5675325 L451.210674,105.663636 L403.154494,137.132468 L383.47191,113.083117 L365.578652,138.667532 Z" id="Path" fill="#FFFFFF"></path>
                    <path d="M365.578652,138.667532 L346.662921,112.571429 L265.376404,112.571429 L256.685393,135.597403 L176.932584,135.597403 L179.233146,129.457143 C183.067416,119.223377 185.11236,108.477922 185.11236,97.7324675 C185.11236,86.7311688 183.067416,75.7298701 178.977528,65.4961039 L176.676966,58.8441558 L405.199438,58.8441558 L451.210674,79.5675325 L451.210674,105.663636 L403.154494,137.132468 L383.47191,113.083117 L365.578652,138.667532 Z M189.969101,126.131169 L250.294944,126.131169 L258.985955,103.105195 L351.264045,103.105195 L365.578652,122.805195 L383.216292,97.4766234 L405.455056,124.596104 L442.519663,100.290909 L442.519663,85.1961039 L403.66573,67.7987013 L189.713483,67.7987013 C192.780899,77.2649351 194.314607,87.2428571 194.314607,97.2207792 C194.314607,107.198701 192.780899,116.920779 189.969101,126.131169 Z" id="Shape" fill="#4A555F"></path>
                    <path d="M431.783708,91.3363636 L401.109551,77.7766234 L203.261236,77.7766234 C204.283708,83.9168831 204.794944,90.312987 204.794944,96.7090909 C204.794944,102.849351 204.283708,108.98961 203.261236,115.12987 L242.882022,115.12987 L251.573034,92.1038961 L356.376404,92.1038961 L365.067416,104.128571 L382.19382,79.5675325 L407.244382,110.012987 L431.52809,94.1506494 L431.783708,91.3363636 L431.783708,91.3363636 Z" id="Path" fill="#FFD552"></path>
                    <polygon id="Rectangle" fill="#4A555F" points="203.261236 77.7766234 407 77.7766234 423.738764 86.987013 213.741573 86.987013"></polygon>
                    <path d="M58.3258427,125.875325 C44.5224719,125.875325 32.7640449,116.153247 30.2078652,102.593506 L30.2078652,102.081818 C29.9522472,101.314286 29.9522472,100.546753 29.9522472,99.7792208 C29.9522472,99.2675325 29.9522472,98.7558442 29.9522472,98.2441558 L29.9522472,97.7324675 C29.9522472,97.4766234 29.9522472,97.2207792 29.9522472,96.9649351 C29.9522472,96.7090909 29.9522472,96.4532468 29.9522472,96.1974026 L34.5533708,96.1974026 L29.9522472,95.6857143 C29.9522472,95.174026 29.9522472,94.6623377 29.9522472,94.1506494 C29.9522472,93.3831169 30.2078652,92.6155844 30.2078652,91.8480519 L30.2078652,91.3363636 C32.7640449,77.7766234 44.7780899,68.0545455 58.3258427,68.0545455 C74.1741573,68.0545455 86.9550562,80.8467532 86.9550562,96.4532468 L86.9550562,96.4532468 C86.9550562,96.4532468 86.9550562,96.4532468 86.9550562,96.7090909 L86.9550562,96.9649351 C86.9550562,113.083117 74.1741573,125.875325 58.3258427,125.875325 Z M58.3258427,77.2649351 C48.8679775,77.2649351 40.9438202,83.9168831 39.1544944,93.1272727 L39.1544944,93.3831169 C39.1544944,93.8948052 38.8988764,94.4064935 38.8988764,94.9181818 C38.8988764,95.174026 38.8988764,95.6857143 38.8988764,95.9415584 L38.8988764,97.2207792 L38.8988764,97.7324675 C38.8988764,98.2441558 38.8988764,98.7558442 38.8988764,99.0116883 C38.8988764,99.5233766 39.1544944,100.035065 39.1544944,100.546753 L39.1544944,100.802597 C40.9438202,110.012987 49.1235955,116.664935 58.3258427,116.664935 C69.0617978,116.664935 77.752809,107.966234 78.008427,97.2207792 L78.008427,96.7090909 C78.008427,85.9636364 69.0617978,77.2649351 58.3258427,77.2649351 Z" id="Shape" fill="#4A555F"></path>
                </g>
            </g>
        </g>
    </g>
</svg>