<?xml version="1.0" encoding="UTF-8"?>
<svg width="623px" height="461px" viewBox="0 0 623 461" version="1.1" xmlns="http://www.w3.org/2000/svg" xmlns:xlink="http://www.w3.org/1999/xlink">
    <!-- Generator: Sketch 58 (84663) - https://sketch.com -->
    <title>Auth any way</title>
    <desc>Created with Sketch.</desc>
    <g id="Page-1" stroke="none" stroke-width="1" fill="none" fill-rule="evenodd">
        <g id="main-page-copy" transform="translate(-310.000000, -1128.000000)">
            <g id="Auth-any-way" transform="translate(309.500000, 1136.000000)">
                <g id="ASYMMETRIC-KEY" transform="translate(17.000000, 0.000000)">
                    <g id="Group">
                        <path d="M373.578652,108.667532 L354.662921,82.5714286 L273.376404,82.5714286 L264.685393,105.597403 L195,105.597403 L194.676966,28.8441558 L413.199438,28.8441558 L459.210674,49.5675325 L459.210674,75.6636364 L411.154494,107.132468 L391.47191,83.0831169 L373.578652,108.667532 Z M197.969101,96.1311688 L258.294944,96.1311688 L266.985955,73.1051948 L359.264045,73.1051948 L373.578652,92.8051948 L391.216292,67.4766234 L413.455056,94.5961039 L450.519663,70.2909091 L450.519663,55.1961039 L411.66573,37.7987013 L197.713483,37.7987013 C200.780899,47.2649351 202.314607,57.2428571 202.314607,67.2207792 C202.314607,77.1987013 200.780899,86.9207792 197.969101,96.1311688 Z" id="Shape" fill="#FFFFFF" fill-rule="nonzero"></path>
                        <rect id="Rectangle" stroke="#FFFFFF" stroke-width="8" x="-4" y="-4" width="203" height="140" rx="9"></rect>
                        <path d="M179,7 C183.970563,7 188,11.0294373 188,16 L188,117 C188,121.970563 183.970563,126 179,126 L15,126 C10.0294373,126 6,121.970563 6,117 L6,16 C6,11.0294373 10.0294373,7 15,7 L179,7 Z M66,43 C52.745166,43 42,53.745166 42,67 C42,80.254834 52.745166,91 66,91 C79.254834,91 90,80.254834 90,67 C90,53.745166 79.254834,43 66,43 Z" id="Combined-Shape" fill="#71CDE1"></path>
                        <path d="M409.109551,47.7766234 L211.261236,47.7766234 C212.283708,53.9168831 211.261236,60.0571429 211.261236,66.4532468 C211.261236,72.5935065 212.283708,78.9896104 211.261236,85.1298701 L250.882022,85.1298701 L259.573034,62.1038961 L364.376404,62.1038961 L373.067416,74.1285714 L390.19382,49.5675325 L415.244382,80.012987 L439.52809,64.1506494 L439.783708,61.3363636 L409.109551,47.7766234 Z" id="Path" fill="#71CDE1" fill-rule="nonzero"></path>
                        <rect id="Rectangle" fill="#FFFFFF" fill-rule="nonzero" x="221.741573" y="47.7766234" width="233.123596" height="9.21038961"></rect>
                        <path d="M66.3556125,51.9649351 C59.1007105,51.9649351 53.0222791,57.0298701 51.6497301,64.0428571 L51.6497301,64.2376623 C51.6497301,64.6272727 51.4536517,65.0168831 51.4536517,65.4064935 C51.4536517,65.6012987 51.4536517,65.9909091 51.4536517,66.1857143 L51.4536517,67.1597403 L51.4536517,67.5493506 C51.4536517,67.938961 51.4536517,68.3285714 51.4536517,68.5233766 C51.4536517,68.912987 51.6497301,69.3025974 51.6497301,69.6922078 L51.6497301,69.887013 C53.0222791,76.9 59.2967889,81.9649351 66.3556125,81.9649351 C74.5909066,81.9649351 81.2575733,75.3415584 81.4536517,67.1597403 L81.4536517,66.7701299 C81.4536517,58.5883117 74.5909066,51.9649351 66.3556125,51.9649351 Z" id="Path" fill="#FFFFFF"></path>
                    </g>
                </g>
                <g id="ASYMMETRIC-KEY-Copy-2" transform="translate(0.000000, 233.000000)" fill-rule="nonzero">
                    <path d="M361.578652,148.667532 L342.662921,122.571429 L261.376404,122.571429 L252.685393,145.597403 L183.869141,145.597403 L182.676966,68.8441558 L401.199438,68.8441558 L447.210674,89.5675325 L447.210674,115.663636 L399.154494,147.132468 L379.47191,123.083117 L361.578652,148.667532 Z M185.969101,136.131169 L246.294944,136.131169 L254.985955,113.105195 L347.264045,113.105195 L361.578652,132.805195 L379.216292,107.476623 L401.455056,134.596104 L438.519663,110.290909 L438.519663,95.1961039 L399.66573,77.7987013 L185.713483,77.7987013 C188.780899,87.2649351 190.314607,97.2428571 190.314607,107.220779 C190.314607,117.198701 188.780899,126.920779 185.969101,136.131169 Z" id="Shape" fill="#FFFFFF"></path>
                    <g id="Group">
                        <path d="M397.109551,87.7766234 L199.261236,87.7766234 C200.283708,93.9168831 199.261236,100.057143 199.261236,106.453247 C199.261236,112.593506 200.283708,118.98961 199.261236,125.12987 L238.882022,125.12987 L247.573034,102.103896 L352.376404,102.103896 L361.067416,114.128571 L378.19382,89.5675325 L403.244382,120.012987 L427.52809,104.150649 L427.783708,101.336364 L397.109551,87.7766234 Z" id="Path" fill="#EC8D53"></path>
                        <rect id="Rectangle" fill="#FFFFFF" x="209.741573" y="87.7766234" width="233.123596" height="9.21038961"></rect>
                        <path d="M96,19 L174.808312,64.5 L174.808312,155.5 L96,201 L17.1916883,155.5 L17.1916883,64.5 L96,19 Z M57.3258427,78.0545455 C43.7780899,78.0545455 31.7640449,87.7766234 29.2078652,101.336364 L29.2078652,101.336364 L29.2078652,101.848052 C29.2078652,102.615584 28.9522472,103.383117 28.9522472,104.150649 L28.9522472,104.150649 L28.9522472,105.685714 L33.5533708,106.197403 L28.9522472,106.197403 L28.9522472,106.197403 L28.9522472,109.779221 C28.9522472,110.546753 28.9522472,111.314286 29.2078652,112.081818 L29.2078652,112.081818 L29.2078652,112.593506 C31.7640449,126.153247 43.5224719,135.875325 57.3258427,135.875325 C73.1741573,135.875325 85.9550562,123.083117 85.9550562,106.964935 L85.9550562,106.964935 L85.9550562,106.453746 L85.9550562,106.453746 L85.9512316,105.985906 C85.6991315,90.5921883 73.0156742,78.0545455 57.3258427,78.0545455 Z" id="Combined-Shape" fill="#EC8D53"></path>
                        <path d="M96,0 L191.262794,55 L191.262794,165 L96,220 L0.737205584,165 L0.737205584,55 L96,0 Z M96,10 L9.39745962,60 L9.39745962,160 L96,210 L182.60254,160 L182.60254,60 L96,10 Z" id="Combined-Shape" fill="#FFFFFF"></path>
                        <path d="M57.3258427,87.2649351 C47.8679775,87.2649351 39.9438202,93.9168831 38.1544944,103.127273 L38.1544944,103.383117 C38.1544944,103.894805 37.8988764,104.406494 37.8988764,104.918182 C37.8988764,105.174026 37.8988764,105.685714 37.8988764,105.941558 L37.8988764,107.220779 L37.8988764,107.732468 C37.8988764,108.244156 37.8988764,108.755844 37.8988764,109.011688 C37.8988764,109.523377 38.1544944,110.035065 38.1544944,110.546753 L38.1544944,110.802597 C39.9438202,120.012987 48.1235955,126.664935 57.3258427,126.664935 C68.0617978,126.664935 76.752809,117.966234 77.008427,107.220779 L77.008427,106.709091 C77.008427,95.9636364 68.0617978,87.2649351 57.3258427,87.2649351 Z" id="Path" fill="#FFFFFF"></path>
                    </g>
                </g>
                <g id="ASYMMETRIC-KEY-Copy" transform="translate(397.000000, 205.500000) scale(-1, 1) translate(-397.000000, -205.500000) translate(171.000000, 108.000000)" fill-rule="nonzero">
                    <g id="Group">
                        <path d="M97.1797753,174.22987 C98.4578652,174.22987 99.7359551,174.22987 101.269663,174.22987 C141.912921,172.183117 174.376404,138.411688 174.376404,97.2207792 L174.376404,97.2207792 L174.376404,97.2207792 C174.376404,56.0298701 141.912921,22.2584416 101.269663,20.2116883 C99.991573,20.2116883 98.7134831,20.2116883 97.1797753,20.2116883 C95.6460674,20.2116883 94.1123596,20.2116883 92.3230337,20.4675325 C91.8117978,20.4675325 91.3005618,20.4675325 90.7893258,20.4675325 C89.511236,20.4675325 88.488764,20.7233766 87.2106742,20.7233766 C86.9550562,20.7233766 86.6994382,20.7233766 86.4438202,20.7233766 L86.4438202,20.7233766 C60.1151685,24.3051948 37.8764045,41.4467532 27.1404494,64.7285714 L27.1404494,64.7285714 C26.8848315,64.9844156 26.8848315,65.4961039 26.6292135,65.7519481 C26.3735955,66.2636364 26.1179775,67.0311688 25.8623596,67.5428571 C25.6067416,68.3103896 25.3511236,68.8220779 25.0955056,69.5896104 C24.8398876,70.1012987 24.8398876,70.612987 24.5842697,71.1246753 C24.3286517,71.8922078 24.0730337,72.6597403 23.8174157,73.4272727 C23.5617978,74.1948052 23.5617978,74.7064935 23.3061798,74.9623377 C23.0505618,75.7298701 22.7949438,76.4974026 22.5393258,77.5207792 C22.5393258,78.0324675 22.2837079,78.2883117 22.2837079,78.8 C22.0280899,79.5675325 21.7724719,80.3350649 21.7724719,81.3584416 C21.7724719,81.8701299 21.5168539,82.3818182 21.5168539,82.8935065 C21.261236,83.661039 21.261236,84.4285714 21.005618,85.1961039 C21.005618,85.7077922 20.75,86.2194805 20.75,86.987013 C20.75,87.7545455 20.494382,88.5220779 20.494382,89.2896104 C20.494382,90.0571429 20.494382,90.8246753 20.238764,91.3363636 C20.238764,91.8480519 20.238764,92.6155844 19.9831461,93.1272727 C19.9831461,94.4064935 19.9831461,95.6857143 19.9831461,96.7090909 C19.9831461,96.9649351 19.9831461,96.9649351 19.9831461,97.2207792 L19.9831461,97.2207792 L19.9831461,97.2207792 C19.9831461,97.4766234 19.9831461,97.4766234 19.9831461,97.7324675 C19.9831461,99.0116883 19.9831461,100.290909 19.9831461,101.314286 C19.9831461,102.081818 19.9831461,102.593506 20.238764,103.105195 C20.238764,103.872727 20.238764,104.64026 20.494382,105.151948 C20.494382,105.919481 20.75,106.687013 20.75,107.454545 C20.75,107.966234 21.005618,108.477922 21.005618,109.245455 C21.005618,110.012987 21.261236,110.780519 21.5168539,111.548052 C21.5168539,112.05974 21.7724719,112.571429 21.7724719,113.083117 C22.0280899,113.850649 22.0280899,114.618182 22.2837079,115.641558 C22.2837079,116.153247 22.5393258,116.409091 22.5393258,116.920779 C22.7949438,117.688312 23.0505618,118.455844 23.3061798,119.479221 C23.5617978,119.990909 23.5617978,120.246753 23.8174157,120.758442 C24.0730337,121.525974 24.3286517,122.293506 24.5842697,123.061039 C24.8398876,123.572727 24.8398876,124.084416 25.0955056,124.596104 C25.3511236,125.363636 25.6067416,125.875325 25.8623596,126.642857 C26.1179775,127.154545 26.3735955,127.922078 26.6292135,128.433766 C26.8848315,128.68961 26.8848315,129.201299 27.1404494,129.457143 L27.1404494,129.457143 C37.8764045,152.738961 60.1151685,169.880519 86.4438202,173.462338 L86.4438202,173.462338 C86.6994382,173.462338 86.9550562,173.462338 87.2106742,173.462338 C88.488764,173.718182 89.511236,173.718182 90.7893258,173.718182 C91.3005618,173.718182 91.8117978,173.718182 92.3230337,173.718182 C93.8567416,174.22987 95.3904494,174.22987 97.1797753,174.22987 Z M80.5646067,106.942857 C76.9859551,115.641558 68.2949438,121.781818 58.3258427,121.781818 C51.1685393,121.781818 44.7780899,118.711688 40.4325843,113.850649 L40.6882022,113.594805 C36.5983146,109.245455 34.2977528,103.616883 34.0421348,97.2207792 C34.0421348,90.8246753 36.5983146,85.1961039 40.6882022,80.8467532 L40.4325843,80.5909091 C44.7780899,75.7298701 51.1685393,72.6597403 58.3258427,72.6597403 C68.2949438,72.6597403 76.9859551,78.8 80.5646067,87.4987013 C80.5646067,87.4987013 80.5646067,87.4987013 80.3089888,87.4987013 C81.5870787,90.312987 82.3539326,93.638961 82.3539326,97.2207792 C82.6095506,100.802597 81.8426966,103.872727 80.5646067,106.942857 L80.5646067,106.942857 Z" id="Shape" fill="#FFD552"></path>
                        <path d="M97.1797753,194.697403 L97.1797753,194.697403 C96.9241573,194.697403 96.9241573,194.697403 97.1797753,194.697403 C95.3904494,194.697403 93.8567416,194.697403 92.0674157,194.697403 C91.3005618,194.697403 90.2780899,194.697403 89.511236,194.441558 L88.2331461,194.441558 C87.9775281,194.441558 87.4662921,194.441558 87.2106742,194.441558 C85.9325843,194.441558 84.9101124,194.185714 83.6320225,193.92987 L82.3539326,193.418182 C75.7078652,192.394805 69.3174157,190.85974 63.1825843,188.557143 C57.5589888,186.51039 51.9353933,183.696104 46.8230337,180.625974 C41.7106742,177.555844 36.8539326,173.974026 32.508427,169.880519 C28.1629213,165.787013 23.8174157,161.437662 20.238764,156.832468 C16.6601124,151.971429 13.3370787,146.854545 10.5252809,141.737662 C9.24719101,139.435065 8.2247191,136.876623 6.94662921,133.806494 C6.17977528,132.015584 5.66853933,130.224675 4.90168539,128.433766 L4.90168539,127.922078 C4.39044944,126.131169 3.87921348,124.34026 3.36797753,122.549351 C2.85674157,120.246753 2.34550562,118.455844 1.83426966,116.409091 L1.83426966,115.897403 C1.57865169,114.106494 1.32303371,112.315584 1.06741573,110.780519 L0.556179775,109.245455 C0.556179775,107.71039 0.300561798,106.175325 0.300561798,104.896104 L0.300561798,103.105195 C0.300561798,101.058442 0.0449438202,99.2675325 0.0449438202,97.2207792 C0.0449438202,95.6857143 0.0449438202,94.1506494 0.0449438202,92.6155844 C0.0449438202,91.5922078 0.0449438202,90.8246753 0.300561798,89.8012987 L0.300561798,88.5220779 C0.556179775,84.1727273 1.32303371,79.8233766 2.08988764,75.9857143 C5.9241573,58.3324675 15.1264045,41.9584416 28.6741573,28.6545455 C41.9662921,15.3506494 58.3258427,6.14025974 75.9634831,2.3025974 C80.0533708,1.53506494 84.1432584,0.767532468 88.744382,0.511688312 L89.7668539,0.511688312 C90.7893258,0.511688312 91.8117978,0.255844156 92.8342697,0.255844156 C96.1573034,-4.20080637e-14 99.7359551,-4.20080637e-14 103.314607,0.255844156 L105.103933,0.255844156 C106.63764,0.255844156 107.91573,0.511688312 109.449438,0.767532468 L110.47191,1.02337662 C112.005618,1.27922078 113.794944,1.53506494 115.328652,1.79090909 L116.095506,1.79090909 C118.140449,2.3025974 119.929775,2.55844156 121.974719,3.07012987 C124.019663,3.58181818 125.808989,4.09350649 127.598315,4.86103896 L128.109551,5.11688312 C129.898876,5.88441558 131.688202,6.3961039 133.477528,7.16363636 C163.640449,19.4441558 185.623596,46.0519481 192.269663,77.7766234 C192.269663,78.0324675 192.269663,78.2883117 192.525281,78.8 L192.780899,79.8233766 C193.036517,80.8467532 193.036517,81.6142857 193.292135,82.6376623 L193.547753,83.9168831 C193.803371,85.1961039 193.803371,86.2194805 194.058989,87.4987013 C194.058989,87.7545455 194.058989,88.2662338 194.058989,88.5220779 L194.058989,89.8012987 C194.058989,90.5688312 194.314607,91.5922078 194.314607,92.3597403 C194.314607,93.8948052 194.314607,95.6857143 194.314607,97.2207792 L194.314607,97.4766234 C194.314607,99.0116883 194.314607,100.546753 194.314607,102.081818 C193.292135,124.34026 184.345506,145.575325 169.519663,162.205195 L169.264045,162.461039 C168.497191,163.228571 167.730337,163.996104 166.963483,164.763636 L165.941011,165.787013 C165.685393,166.042857 165.174157,166.554545 164.918539,166.81039 L163.896067,167.833766 C163.384831,168.345455 162.873596,168.601299 162.617978,169.112987 L162.36236,169.368831 C145.747191,184.207792 124.530899,193.162338 102.292135,194.185714 C100.758427,194.185714 99.2247191,194.185714 97.6910112,194.185714 L97.1797753,194.697403 Z M97.1797753,8.95454545 C95.9016854,8.95454545 94.3679775,8.95454545 93.0898876,8.95454545 C92.0674157,8.95454545 91.3005618,8.95454545 90.2780899,9.21038961 L89.511236,9.21038961 C85.4213483,9.46623377 81.5870787,10.2337662 78.008427,11.0012987 C61.9044944,14.838961 47.0786517,23.025974 35.0646067,35.3064935 C22.7949438,47.3311688 14.6151685,62.1701299 11.0365169,78.0324675 C10.2696629,81.6142857 9.75842697,85.4519481 9.24719101,89.5454545 L9.24719101,90.5688312 C9.24719101,91.5922078 8.99157303,92.3597403 8.99157303,93.1272727 C8.99157303,94.4064935 8.99157303,95.9415584 8.99157303,97.2207792 C8.99157303,99.0116883 8.99157303,100.802597 9.24719101,102.593506 L9.24719101,104.128571 C9.24719101,105.407792 9.50280899,106.687013 9.50280899,107.966234 L9.75842697,109.501299 C10.0140449,111.036364 10.2696629,112.571429 10.5252809,113.850649 L10.5252809,114.362338 C11.0365169,116.409091 11.2921348,118.2 11.8033708,119.990909 C12.3146067,121.781818 12.8258427,123.572727 13.3370787,125.107792 L13.5926966,125.619481 C14.1039326,127.41039 14.8707865,129.201299 15.3820225,130.736364 C16.4044944,133.294805 17.4269663,135.597403 18.7050562,137.9 C21.261236,142.761039 24.0730337,147.366234 27.3960674,151.715584 C30.7191011,156.064935 34.5533708,159.902597 38.3876404,163.484416 C42.4775281,167.066234 46.8230337,170.392208 51.4241573,173.206494 C56.0252809,176.020779 61.1376404,178.323377 66.25,180.37013 C71.8735955,182.416883 77.752809,183.951948 83.6320225,184.975325 L84.6544944,185.231169 C85.6769663,185.487013 86.9550562,185.487013 87.9775281,185.742857 L90.0224719,185.998701 C90.7893258,185.998701 91.5561798,186.254545 92.3230337,186.254545 C93.8567416,186.254545 95.3904494,186.254545 96.6685393,186.254545 L96.6685393,190.85974 L96.6685393,186.254545 L96.6685393,190.85974 L96.6685393,186.254545 C98.4578652,186.254545 99.7359551,186.254545 101.014045,186.254545 C121.207865,185.231169 140.379213,177.3 155.460674,163.74026 L155.716292,163.484416 C156.227528,162.972727 156.483146,162.716883 156.994382,162.205195 L158.016854,161.181818 C158.272472,160.925974 158.52809,160.67013 158.783708,160.414286 L159.550562,159.646753 C160.317416,158.879221 161.08427,158.111688 161.595506,157.344156 L161.851124,157.088312 C175.398876,141.993506 183.323034,122.805195 184.345506,102.593506 C184.345506,101.314286 184.345506,99.7792208 184.345506,98.5 L184.345506,98.2441558 C184.345506,96.7090909 184.345506,95.174026 184.345506,93.638961 C184.345506,92.8714286 184.345506,92.1038961 184.089888,91.3363636 L183.83427,89.0337662 C183.83427,88.0103896 183.578652,86.7311688 183.323034,85.7077922 L183.067416,84.6844156 C182.811798,83.9168831 182.811798,82.8935065 182.55618,82.125974 L182.300562,80.3350649 C177.699438,50.6571429 157.761236,26.8636364 130.410112,15.6064935 C128.876404,14.838961 127.087079,14.3272727 125.553371,13.8155844 L124.786517,13.5597403 C123.252809,13.0480519 121.463483,12.5363636 119.929775,12.0246753 L119.674157,12.0246753 C118.140449,11.512987 116.351124,11.2571429 114.561798,10.7454545 L114.050562,10.7454545 C112.516854,10.4896104 110.983146,10.2337662 109.705056,9.97792208 L107.91573,9.72207792 C106.63764,9.46623377 105.359551,9.46623377 104.081461,9.46623377 L102.547753,9.46623377 C100.758427,9.21038961 98.9691011,8.95454545 97.1797753,8.95454545 Z" id="Shape" fill="#FFFFFF"></path>
                        <path d="M365.578652,138.667532 L346.662921,112.571429 L265.376404,112.571429 L256.685393,135.597403 L176.932584,135.597403 L179.233146,129.457143 C183.067416,119.223377 185.11236,108.477922 185.11236,97.7324675 C185.11236,86.7311688 183.067416,75.7298701 178.977528,65.4961039 L176.676966,58.8441558 L405.199438,58.8441558 L451.210674,79.5675325 L451.210674,105.663636 L403.154494,137.132468 L383.47191,113.083117 L365.578652,138.667532 Z M189.969101,126.131169 L250.294944,126.131169 L258.985955,103.105195 L351.264045,103.105195 L365.578652,122.805195 L383.216292,97.4766234 L405.455056,124.596104 L442.519663,100.290909 L442.519663,85.1961039 L403.66573,67.7987013 L189.713483,67.7987013 C192.780899,77.2649351 194.314607,87.2428571 194.314607,97.2207792 C194.314607,107.198701 192.780899,116.920779 189.969101,126.131169 Z" id="Shape" fill="#FFFFFF"></path>
                        <path d="M431.783708,91.3363636 L401.109551,77.7766234 L203.261236,77.7766234 C204.283708,83.9168831 204.794944,90.312987 204.794944,96.7090909 C204.794944,102.849351 204.283708,108.98961 203.261236,115.12987 L242.882022,115.12987 L251.573034,92.1038961 L356.376404,92.1038961 L365.067416,104.128571 L382.19382,79.5675325 L407.244382,110.012987 L431.52809,94.1506494 L431.783708,91.3363636 L431.783708,91.3363636 Z" id="Path" fill="#FFD552"></path>
                        <rect id="Rectangle" fill="#FFFFFF" x="213.741573" y="77.7766234" width="233.123596" height="9.21038961"></rect>
                        <path d="M58.3556125,81.9649351 C51.1007105,81.9649351 45.0222791,87.0298701 43.6497301,94.0428571 L43.6497301,94.2376623 C43.6497301,94.6272727 43.4536517,95.0168831 43.4536517,95.4064935 C43.4536517,95.6012987 43.4536517,95.9909091 43.4536517,96.1857143 L43.4536517,97.1597403 L43.4536517,97.5493506 C43.4536517,97.938961 43.4536517,98.3285714 43.4536517,98.5233766 C43.4536517,98.912987 43.6497301,99.3025974 43.6497301,99.6922078 L43.6497301,99.887013 C45.0222791,106.9 51.2967889,111.964935 58.3556125,111.964935 C66.5909066,111.964935 73.2575733,105.341558 73.4536517,97.1597403 L73.4536517,96.7701299 C73.4536517,88.5883117 66.5909066,81.9649351 58.3556125,81.9649351 Z" id="Path" fill="#FFFFFF"></path>
                    </g>
                </g>
            </g>
        </g>
    </g>
</svg>