<?xml version="1.0" encoding="UTF-8"?>
<svg width="689px" height="470px" viewBox="0 0 689 470" version="1.1" xmlns="http://www.w3.org/2000/svg" xmlns:xlink="http://www.w3.org/1999/xlink">
    <!-- Generator: Sketch 58 (84663) - https://sketch.com -->
    <title>built for devs</title>
    <desc>Created with Sketch.</desc>
    <g id="Page-1" stroke="none" stroke-width="1" fill="none" fill-rule="evenodd">
        <g id="built-for-devs" fill-rule="nonzero">
            <polygon id="Path-7" fill="#FFFFFF" points="8.66527263 401 680.800818 404.448303 684 433.758875 673.690961 452.21605 651.786471 466 623.739243 466 40.4810522 466 22.118633 458.365917 10.0457304 444.841261 4 428.127602 4 404.448303 4 401"></polygon>
            <rect id="Rectangle" fill="#FFFFFF" x="67" y="6" width="556" height="392" rx="20"></rect>
            <path d="M589.709829,0 L98.2916159,0 C77.1779522,0 60,16.9643897 60,37.8155611 L60,366.183012 C60,387.03561 77.1779522,404 98.2916159,404 L589.709829,404 C610.823494,404 628,387.03561 628,366.183012 L628,37.8155611 C628,16.962964 610.822049,0 589.709829,0 Z M619.42113,366.183012 C619.42113,382.363202 606.090821,395.526361 589.709829,395.526361 L98.2916159,395.526361 C81.9077362,395.526361 68.5788697,382.363202 68.5788697,366.183012 L68.5788697,37.8155611 C68.5788697,21.6353716 81.90918,8.47221425 98.2916159,8.47221425 L589.709829,8.47221425 C606.092266,8.47221425 619.42113,21.6353716 619.42113,37.8155611 L619.42113,366.183012 Z M104.352554,361.38228 L583.673435,361.38228 L583.673435,45.9484305 L104.352554,45.9484305 L104.352554,361.38228 Z M112.931424,54.4206446 L575.094565,54.4206446 L575.094565,352.910067 L112.931424,352.910067 L112.931424,54.4206446 Z" id="Shape" fill="#4A555F"></path>
            <path d="M588.401787,16 L99.5996487,16 C88.7931308,16 80,24.7933476 80,35.6033339 L80,366.396667 C80,377.205216 88.7916947,386 99.5996487,386 L588.401787,386 C599.206869,386 608,377.206653 608,366.396667 L608,35.6033339 C608,24.7947842 599.206869,16 588.401787,16 Z M592.355322,371.5187 L95.6734001,371.5187 L95.6734001,33.8394935 L592.355322,33.8394935 L592.355322,371.5187 L592.355322,371.5187 Z" id="Shape" fill="#71CDE1"></path>
            <path d="M0,397 L0,423.624636 C0,449.19564 21.3898266,470 47.6822108,470 L641.319233,470 C667.611616,470 689,449.19564 689,423.624636 L689,397 L0,397 Z M680.416913,423.624636 C680.416913,444.593365 662.878064,461.652407 641.319233,461.652407 L47.6822108,461.652407 C26.1233801,461.652407 8.58308681,444.593365 8.58308681,423.624636 L8.58308681,405.347593 L680.416913,405.347593 L680.416913,423.624636 Z" id="Shape" fill="#4A555F"></path>
            <path d="M387.779053,415 C386.264209,418.071877 384.264619,420.826424 381.863953,423.237559 C376.120536,429.007474 368.175547,432.564766 359.402445,432.564766 L310.050316,432.564766 C297.648804,432.564766 286.903521,425.447283 281.673706,415 L19,415 L19,423.811364 C19,439.912639 32.0305319,453 48.0344833,453 L640.938105,453 C656.969468,453 670,439.912639 670,423.811364 L670,415 L387.779053,415 Z" id="Path" fill="#71CDE1"></path>
            <path d="M332,45 L332,361 L584,361 L584,45 L332,45 Z M575.43665,352.512271 L340.561912,352.512271 L340.561912,53.4877272 L575.43665,53.4877272 L575.43665,352.512271 Z" id="Shape" fill="#4A555F"></path>
            <rect id="Rectangle" fill="#FFD452" x="121" y="59" width="199" height="281"></rect>
            <rect id="Rectangle" fill="#4A555F" x="167" y="142" width="19" height="9"></rect>
            <rect id="Rectangle" fill="#4A555F" x="206" y="142" width="98" height="9"></rect>
            <rect id="Rectangle" fill="#4A555F" x="167" y="168" width="19" height="9"></rect>
            <rect id="Rectangle" fill="#4A555F" x="205" y="168" width="57" height="9"></rect>
            <rect id="Rectangle" fill="#4A555F" x="167" y="188" width="19" height="9"></rect>
            <rect id="Rectangle" fill="#4A555F" x="206" y="188" width="98" height="9"></rect>
            <rect id="Rectangle" fill="#4A555F" x="142" y="237" width="19" height="9"></rect>
            <rect id="Rectangle" fill="#4A555F" x="180" y="237" width="98" height="9"></rect>
            <rect id="Rectangle" fill="#4A555F" x="142" y="264" width="19" height="9"></rect>
            <rect id="Rectangle" fill="#4A555F" x="181" y="264" width="123" height="9"></rect>
            <rect id="Rectangle" fill="#4A555F" x="142" y="290" width="19" height="9"></rect>
            <rect id="Rectangle" fill="#4A555F" x="180" y="290" width="98" height="9"></rect>
            <rect id="Rectangle" fill="#4A555F" x="212" y="214" width="19" height="9"></rect>
            <rect id="Rectangle" fill="#4A555F" x="247" y="214" width="57" height="9"></rect>
            <rect id="Rectangle" fill="#4A555F" x="212" y="313" width="19" height="9"></rect>
            <rect id="Rectangle" fill="#4A555F" x="247" y="313" width="57" height="9"></rect>
            <path d="M366,88 L366,126 L449,126 L449,88 L366,88 Z M440.464711,117.571002 L374.535288,117.571002 L374.535288,96.4304168 L440.464711,96.4304168 L440.464711,117.571002 Z" id="Shape" fill="#4A555F"></path>
            <path d="M468,88 L468,126 L551,126 L551,88 L468,88 Z M542.464712,117.571002 L476.535289,117.571002 L476.535289,96.4304168 L542.464712,96.4304168 L542.464712,117.571002 Z" id="Shape" fill="#4A555F"></path>
            <path d="M366,149 L366,237 L549,237 L549,149 L366,149 Z M540.490935,228.423256 L374.507632,228.423256 L374.507632,157.5753 L540.490935,157.5753 L540.490935,228.423256 Z" id="Shape" fill="#4A555F"></path>
            <rect id="Rectangle" fill="#EC8D53" x="385" y="168" width="145" height="50"></rect>
            <rect id="Rectangle" fill="#4A555F" x="370" y="259" width="183" height="9"></rect>
            <rect id="Rectangle" fill="#4A555F" x="370" y="290" width="183" height="9"></rect>
            <rect id="Rectangle" fill="#4A555F" x="370" y="316" width="183" height="9"></rect>
            <polygon id="Path" fill="#4A555F" points="156.32596 104.399901 170.429191 91.1530997 164.107786 85 143 104.823752 165.120364 123 171 116.457886"></polygon>
            <polygon id="Path" fill="#4A555F" points="208.891069 85 202.567803 91.1530997 216.673318 104.399901 202 116.457886 207.878435 123 230 104.823752"></polygon>
            <polygon id="Rectangle" fill="#4A555F" transform="translate(186.327097, 103.387240) rotate(-62.986534) translate(-186.327097, -103.387240) " points="168.746556 99.0636038 203.886755 99.1496282 203.907638 107.710875 168.76744 107.624851"></polygon>
            <path d="M275,398 L275,402.355994 C275,422.562758 291.112638,439 310.917161,439 L360.082841,439 C379.888798,439 396,422.561294 396,402.355994 L396,398 L275,398 Z M360.082841,430.288014 L310.917161,430.288014 C297.272002,430.288014 285.927622,420.051209 283.871148,406.711988 L387.127414,406.711988 C385.072378,420.052675 373.725126,430.288014 360.082841,430.288014 Z" id="Shape" fill="#4A555F"></path>
        </g>
    </g>
</svg>