<?xml version="1.0" encoding="UTF-8"?>
<svg width="690px" height="470px" viewBox="0 0 690 470" version="1.1" xmlns="http://www.w3.org/2000/svg" xmlns:xlink="http://www.w3.org/1999/xlink">
    <!-- Generator: Sketch 59.1 (86144) - https://sketch.com -->
    <title>mf-built-for-devs-white</title>
    <desc>Created with Sketch.</desc>
    <g id="Page-1" stroke="none" stroke-width="1" fill="none" fill-rule="evenodd">
        <g id="mf-built-for-devs-white" fill-rule="nonzero">
            <path d="M590.209829,0 L98.7916159,0 C77.6779522,0 60.5,16.9643897 60.5,37.8155611 L60.5,366.183012 C60.5,387.03561 77.6779522,404 98.7916159,404 L590.209829,404 C611.323494,404 628.5,387.03561 628.5,366.183012 L628.5,37.8155611 C628.5,16.962964 611.322049,0 590.209829,0 Z M619.92113,366.183012 C619.92113,382.363202 606.590821,395.526361 590.209829,395.526361 L98.7916159,395.526361 C82.4077362,395.526361 69.0788697,382.363202 69.0788697,366.183012 L69.0788697,37.8155611 C69.0788697,21.6353716 82.40918,8.47221425 98.7916159,8.47221425 L590.209829,8.47221425 C606.592266,8.47221425 619.92113,21.6353716 619.92113,37.8155611 L619.92113,366.183012 Z M104.852554,361.38228 L584.173435,361.38228 L584.173435,45.9484305 L104.852554,45.9484305 L104.852554,361.38228 Z M113.431424,54.4206446 L575.594565,54.4206446 L575.594565,352.910067 L113.431424,352.910067 L113.431424,54.4206446 Z" id="Shape" fill="#FFFFFF"></path>
            <path d="M588.901787,16 L100.099649,16 C89.2931308,16 80.5,24.7933476 80.5,35.6033339 L80.5,366.396667 C80.5,377.205216 89.2916947,386 100.099649,386 L588.901787,386 C599.706869,386 608.5,377.206653 608.5,366.396667 L608.5,35.6033339 C608.5,24.7947842 599.706869,16 588.901787,16 Z M592.855322,371.5187 L96.1734001,371.5187 L96.1734001,33.8394935 L592.855322,33.8394935 L592.855322,371.5187 L592.855322,371.5187 Z" id="Shape" fill="#666288"></path>
            <path d="M0.5,397 L0.5,423.624636 C0.5,449.19564 21.8898266,470 48.1822108,470 L641.819233,470 C668.111616,470 689.5,449.19564 689.5,423.624636 L689.5,397 L0.5,397 Z M680.916913,423.624636 C680.916913,444.593365 663.378064,461.652407 641.819233,461.652407 L48.1822108,461.652407 C26.6233801,461.652407 9.08308681,444.593365 9.08308681,423.624636 L9.08308681,405.347593 L680.916913,405.347593 L680.916913,423.624636 Z" id="Shape" fill="#FFFFFF"></path>
            <path d="M388.279053,415 C386.764209,418.071877 384.764619,420.826424 382.363953,423.237559 C376.620536,429.007474 368.675547,432.564766 359.902445,432.564766 L310.550316,432.564766 C298.148804,432.564766 287.403521,425.447283 282.173706,415 L19.5,415 L19.5,423.811364 C19.5,439.912639 32.5305319,453 48.5344833,453 L641.438105,453 C657.469468,453 670.5,439.912639 670.5,423.811364 L670.5,415 L388.279053,415 Z" id="Path" fill="#666288"></path>
            <path d="M332.5,46 L332.5,361 L584.5,361 L584.5,46 L332.5,46 Z M575.93665,352.512271 L341.061912,352.512271 L341.061912,53.4877272 L575.93665,53.4877272 L575.93665,352.512271 Z" id="Shape" fill="#FFFFFF"></path>
            <rect id="Rectangle" fill="#FFD452" x="125.5" y="65" width="195" height="275"></rect>
            <rect id="Rectangle" fill="#4A555F" x="167.5" y="142" width="19" height="9"></rect>
            <rect id="Rectangle" fill="#4A555F" x="206.5" y="142" width="98" height="9"></rect>
            <rect id="Rectangle" fill="#4A555F" x="167.5" y="168" width="19" height="9"></rect>
            <rect id="Rectangle" fill="#4A555F" x="205.5" y="168" width="57" height="9"></rect>
            <rect id="Rectangle" fill="#4A555F" x="167.5" y="188" width="19" height="9"></rect>
            <rect id="Rectangle" fill="#4A555F" x="206.5" y="188" width="98" height="9"></rect>
            <rect id="Rectangle" fill="#4A555F" x="142.5" y="237" width="19" height="9"></rect>
            <rect id="Rectangle" fill="#4A555F" x="180.5" y="237" width="98" height="9"></rect>
            <rect id="Rectangle" fill="#4A555F" x="142.5" y="264" width="19" height="9"></rect>
            <rect id="Rectangle" fill="#4A555F" x="181.5" y="264" width="123" height="9"></rect>
            <rect id="Rectangle" fill="#4A555F" x="142.5" y="290" width="19" height="9"></rect>
            <rect id="Rectangle" fill="#4A555F" x="180.5" y="290" width="98" height="9"></rect>
            <rect id="Rectangle" fill="#4A555F" x="212.5" y="214" width="19" height="9"></rect>
            <rect id="Rectangle" fill="#4A555F" x="247.5" y="214" width="57" height="9"></rect>
            <rect id="Rectangle" fill="#4A555F" x="212.5" y="313" width="19" height="9"></rect>
            <rect id="Rectangle" fill="#4A555F" x="247.5" y="313" width="57" height="9"></rect>
            <path d="M366.5,88 L366.5,126 L449.5,126 L449.5,88 L366.5,88 Z M440.964711,117.571002 L375.035288,117.571002 L375.035288,96.4304168 L440.964711,96.4304168 L440.964711,117.571002 Z" id="Shape" fill="#FFFFFF"></path>
            <path d="M468.5,88 L468.5,126 L551.5,126 L551.5,88 L468.5,88 Z M542.964712,117.571002 L477.035289,117.571002 L477.035289,96.4304168 L542.964712,96.4304168 L542.964712,117.571002 Z" id="Shape" fill="#FFFFFF"></path>
            <path d="M366.5,149 L366.5,237 L549.5,237 L549.5,149 L366.5,149 Z M540.990935,228.423256 L375.007632,228.423256 L375.007632,157.5753 L540.990935,157.5753 L540.990935,228.423256 Z" id="Shape" fill="#FFFFFF"></path>
            <rect id="Rectangle" fill="#EC8D53" x="385.5" y="168" width="145" height="50"></rect>
            <rect id="Rectangle" fill="#FFFFFF" x="370.5" y="259" width="183" height="9"></rect>
            <rect id="Rectangle" fill="#FFFFFF" x="370.5" y="290" width="183" height="9"></rect>
            <rect id="Rectangle" fill="#FFFFFF" x="370.5" y="316" width="183" height="9"></rect>
            <polygon id="Path" fill="#4A555F" points="156.82596 104.399901 170.929191 91.1530997 164.607786 85 143.5 104.823752 165.620364 123 171.5 116.457886"></polygon>
            <polygon id="Path" fill="#4A555F" points="209.391069 85 203.067803 91.1530997 217.173318 104.399901 202.5 116.457886 208.378435 123 230.5 104.823752"></polygon>
            <polygon id="Rectangle" fill="#4A555F" transform="translate(186.827096, 103.387240) rotate(-62.986534) translate(-186.827096, -103.387240) " points="169.246555 99.0636045 204.386754 99.1496289 204.407637 107.710875 169.267439 107.624851"></polygon>
            <path d="M275.5,398 L275.5,402.355994 C275.5,422.562758 291.612638,439 311.417161,439 L360.582841,439 C380.388798,439 396.5,422.561294 396.5,402.355994 L396.5,398 L275.5,398 Z M360.582841,430.288014 L311.417161,430.288014 C297.772002,430.288014 286.427622,420.051209 284.371148,406.711988 L387.627414,406.711988 C385.572378,420.052675 374.225126,430.288014 360.582841,430.288014 Z" id="Shape" fill="#FFFFFF"></path>
        </g>
    </g>
</svg>