<?xml version="1.0" encoding="UTF-8"?>
<svg width="664px" height="612px" viewBox="0 0 664 612" version="1.1" xmlns="http://www.w3.org/2000/svg" xmlns:xlink="http://www.w3.org/1999/xlink">
    <!-- Generator: Sketch 59.1 (86144) - https://sketch.com -->
    <title>mf-flex-architecture-white</title>
    <desc>Created with Sketch.</desc>
    <g id="Page-1" stroke="none" stroke-width="1" fill="none" fill-rule="evenodd">
        <g id="mf-flex-architecture-white" transform="translate(-1.000000, 0.000000)" fill-rule="nonzero">
            <circle id="Oval" fill="#FFD452" cx="361" cy="531.5" r="55.5"></circle>
            <path d="M361.498206,450 C316.836102,450 280.5,486.336639 280.5,531.000598 C280.5,575.664557 316.836102,612 361.498206,612 C406.163898,612 442.5,575.663361 442.5,531.000598 C442.5,486.335443 406.163898,450 361.498206,450 Z" id="Path-Copy-2" fill="#FFFFFF"></path>
            <path d="M140.498206,220 C95.8361021,220 59.5,256.336639 59.5,301.000598 C59.5,345.664557 95.8361021,382 140.498206,382 C185.163898,382 221.5,345.663361 221.5,301.000598 C221.5,256.335443 185.163898,220 140.498206,220 Z M140.498206,373.275571 C100.646787,373.275571 68.2231045,340.852605 68.2231045,300.999402 C68.2231045,261.146199 100.645591,228.722037 140.498206,228.722037 C180.353213,228.722037 212.775699,261.145003 212.775699,300.999402 C212.775699,340.852605 180.353213,373.275571 140.498206,373.275571 Z" id="Shape" fill="#FFFFFF"></path>
            <path d="M140.5,239 C106.312582,239 78.5,266.814702 78.5,301.000597 C78.5,335.186492 106.312582,363 140.5,363 C174.687418,363 202.5,335.186492 202.5,301.000597 C202.5,266.814702 174.687418,239 140.5,239 Z" id="Path" fill="#EC8D53"></path>
            <path d="M361.5,220 C316.836907,220 280.5,256.336639 280.5,301.000598 C280.5,345.664557 316.836907,382 361.5,382 C406.163093,382 442.5,345.663361 442.5,301.000598 C442.5,256.335443 406.164289,220 361.5,220 Z M361.5,373.275571 C321.647699,373.275571 289.224494,340.852605 289.224494,300.999402 C289.224494,261.146199 321.647699,228.722037 361.5,228.722037 C401.353498,228.722037 433.776702,261.145003 433.776702,300.999402 C433.776702,340.852605 401.353498,373.275571 361.5,373.275571 Z" id="Shape" fill="#FFFFFF"></path>
            <path d="M361.5,239 C327.312582,239 299.5,266.814702 299.5,301.000597 C299.5,335.186492 327.312582,363 361.5,363 C395.687418,363 423.5,335.186492 423.5,301.000597 C423.5,266.814702 395.687418,239 361.5,239 Z" id="Path" fill="#EC8D53"></path>
            <path d="M580.5,220 C535.836907,220 499.5,256.336639 499.5,301.000598 C499.5,345.664557 535.836907,382 580.5,382 C625.163093,382 661.5,345.663361 661.5,301.000598 C661.5,256.335443 625.163093,220 580.5,220 Z M580.5,373.275571 C540.647699,373.275571 508.223298,340.852605 508.223298,300.999402 C508.223298,261.146199 540.646502,228.722037 580.5,228.722037 C620.353498,228.722037 652.775506,261.145003 652.775506,300.999402 C652.775506,340.852605 620.352301,373.275571 580.5,373.275571 Z" id="Shape" fill="#FFFFFF"></path>
            <path d="M580.498806,239 C546.312046,239 518.5,266.814702 518.5,301.000597 C518.5,335.186492 546.312046,363 580.498806,363 C614.687954,363 642.5,335.186492 642.5,301.000597 C642.5,266.814702 614.689148,239 580.498806,239 Z" id="Path" fill="#EC8D53"></path>
            <path d="M361.5,450 C316.836907,450 280.5,486.336639 280.5,530.999402 C280.5,575.662165 316.836907,612 361.5,612 C406.163093,612 442.5,575.663361 442.5,531.000598 C442.5,486.337835 406.164289,450 361.5,450 Z M361.5,603.275571 C321.647699,603.275571 289.224494,570.852605 289.224494,531.000598 C289.224494,491.148591 321.647699,458.724429 361.5,458.724429 C401.353498,458.724429 433.776702,491.147395 433.776702,531.000598 C433.776702,570.853801 401.353498,603.275571 361.5,603.275571 Z" id="Shape" fill="#FFFFFF"></path>
            <path d="M320,490.005459 L312.929017,483 C310.413222,485.537142 308.083073,488.28992 306,491.183272 L314.082488,497 C315.861154,494.527003 317.854134,492.172743 320,490.005459 Z M309,504.500316 L300.082192,500 C298.463014,503.201411 297.090411,506.55338 296,509.961466 L305.516438,513 C306.446575,510.09423 307.617808,507.233628 309,504.500316 Z M303.30464,530.787754 C303.30464,527.698868 303.539253,524.591587 304,521.552225 L293.812689,520 C293.272795,523.548752 292.997195,527.179573 292.999958,530.961796 L295.097409,531 L303.30464,530.787754 Z M313,579.054592 C315.527096,581.572626 318.273879,583.909144 321.168031,586 L327,577.935465 C324.527485,576.146227 322.179142,574.150907 320.017739,572 L313,579.054592 Z M303.831342,540 L294,541.587092 C294.570843,545.114419 295.423011,548.617203 296.53875,552 L306,548.888535 C305.049505,546.002045 304.320246,543.01193 303.831342,540 Z M309.062113,557 L300,561.670392 C301.676253,564.919968 303.618135,568.057779 305.775315,571 L314,564.975851 C312.160176,562.461132 310.496505,559.778765 309.062113,557 Z M335,479.050604 L330.316105,470 C327.079425,471.675417 323.944722,473.624713 321,475.789201 L327.036121,484 C329.553383,482.149915 332.234085,480.48428 335,479.050604 Z M412.962697,504 L422,499.302145 C420.318771,496.073416 418.366647,492.942444 416.195292,490 L408,496.051072 C409.859964,498.567581 411.530022,501.241895 412.962697,504 Z M419.200023,521 L429,519.382313 C428.418322,515.862585 427.551936,512.371429 426.42536,509 L417,512.142857 C417.961744,515.017687 418.701442,517.997279 419.200023,521 Z M352,473.821282 L350.402089,464 C346.886139,464.572988 343.386536,465.433834 340,466.555252 L343.123624,476 C346.012941,475.04502 348.998978,474.31105 352,473.821282 Z M403,571.967943 L410.044351,579 C412.559411,576.480464 414.90116,573.738575 417,570.849362 L408.952627,565 C407.154011,567.470428 405.150697,569.81672 403,571.967943 Z M331,591.90576 C334.194278,593.527851 337.538971,594.904917 340.941096,596 L344,586.49742 C341.094246,585.561125 338.240454,584.38528 335.513832,583 L331,591.90576 Z M401.807741,476 L396,484.088525 C398.475968,485.864288 400.834552,487.854343 403.012967,490 L410,482.909233 C407.455786,480.403237 404.701375,478.077411 401.807741,476 Z M388,582.921678 L392.654549,592 C395.901129,590.335664 399.045641,588.397203 402,586.241958 L395.990612,578 C393.464097,579.843357 390.775392,581.497902 388,582.921678 Z M429.998592,531 L419.729297,531 L419.732113,531.507919 C419.732113,534.52327 419.484321,537.539961 419,540.478923 L429.141175,542 C429.712786,538.55982 430,535.029849 430,531.416788 L429.998592,531 Z M414,557.476716 L422.889555,562 C424.51541,558.803637 425.901967,555.463786 427,552.073373 L417.512885,549 C416.573472,551.894355 415.392027,554.746347 414,557.476716 Z M382.018444,466 L379,475.532328 C381.911573,476.457863 384.77793,477.624723 387.516863,479 L392,470.062757 C388.791105,468.450269 385.434233,467.083219 382.018444,466 Z M361.401408,463 L361,463 L361,473.320813 L361.401408,473.320813 C364.435211,473.320813 367.487324,473.550039 370.474648,474 L372,463.7938 C368.508451,463.26743 364.943662,463 361.401408,463 Z M352.56539,588 L351,598.167735 C354.566159,598.720698 358.215448,599 361.963366,599 L361.992955,599 L362,597.736086 L361.883054,588.713773 C358.760728,588.712362 355.627129,588.472557 352.56539,588 Z M371,588.148376 L372.562308,598 C376.089792,597.440684 379.602253,596.591453 383,595.481026 L379.906794,586 C377.008877,586.947692 374.012632,587.669744 371,588.148376 Z" id="Shape" fill="#4A555F"></path>
            <path d="M147.610204,451.853777 L139.218665,454.261645 C140.062727,457.204727 141.051658,460.119073 142.157918,462.925657 L150.282471,459.721553 C149.276779,457.174793 148.377643,454.528654 147.610204,451.853777 Z M153.687455,467.306755 L145.90412,471.263991 C147.282157,473.980774 148.806259,476.654453 150.432127,479.209594 L157.800016,474.527962 C156.328593,472.206304 154.94457,469.776884 153.687455,467.306755 Z M155.686866,486.688232 C157.548593,489.086521 159.546807,491.424942 161.627631,493.637642 L167.989828,487.656887 C166.096973,485.642947 164.280741,483.516456 162.589024,481.336085 L155.686866,486.688232 Z M144.579959,435.532723 L135.881923,436.302618 C136.152502,439.346277 136.566752,442.394726 137.121079,445.362952 L145.705376,443.762098 C145.20253,441.066867 144.824199,438.298597 144.579959,435.532723 Z M144.232756,401 L135.5,401 L135.5,409.733459 L144.232756,409.733459 L144.232756,401 Z M144.232756,418.466917 L135.5,418.466917 L135.5,427.200376 L144.232756,427.200376 L144.232756,418.466917 Z M235.302929,524 L244.035685,524 L244.035685,515.266541 L235.302929,515.266541 L235.302929,524 Z M168.193361,499.994364 C170.466943,501.99633 172.866236,503.915679 175.325391,505.70332 L180.459208,498.636571 C178.219149,497.010572 176.032967,495.262443 173.964116,493.440079 L168.193361,499.994364 Z M252.767244,515.266541 L252.767244,524 L261.5,524 L261.5,515.266541 L252.767244,515.266541 Z M217.237593,522.900834 C220.236709,523.357024 223.295688,523.674321 226.328327,523.844345 L226.816806,515.125254 C224.05714,514.970796 221.277121,514.682235 218.550978,514.266756 L217.237593,522.900834 Z M199.521855,518.449093 C202.39047,519.471629 205.338105,520.362456 208.279753,521.100022 L210.400086,512.628783 C207.731412,511.960663 205.055553,511.150058 202.449136,510.222113 L199.521855,518.449093 Z M182.978226,510.713026 C185.596616,512.258802 188.316773,513.692028 191.065664,514.975586 L194.760383,507.064705 C192.26531,505.897291 189.791787,504.595773 187.412848,503.191284 L182.978226,510.713026 Z" id="Shape" fill="#FFFFFF"></path>
            <path d="M498.182326,515.126452 L498.67081,523.845542 C501.703478,523.675519 504.762486,523.358221 507.761631,522.902032 L506.448233,514.26915 C503.723261,514.683433 500.943216,514.971994 498.182326,515.126452 Z M530.239054,507.063508 L533.935006,514.974388 C536.683922,513.690831 539.404105,512.256408 542.02252,510.711828 L537.587856,503.190086 C535.207697,504.594576 532.735348,505.897291 530.239054,507.063508 Z M463.5,524 L472.232839,524 L472.232839,515.266541 L463.5,515.266541 L463.5,524 Z M544.540365,498.635373 L549.67423,505.702123 C552.133409,503.915679 554.531528,501.995133 556.806328,499.993166 L551.035519,493.437684 C548.966648,495.260048 546.780445,497.009374 544.540365,498.635373 Z M480.964481,524 L489.69732,524 L489.69732,515.266541 L480.964481,515.266541 L480.964481,524 Z M514.599202,512.628783 L516.719555,521.100022 C519.661231,520.362456 522.608894,519.471629 525.477537,518.449093 L522.549031,510.222113 C519.942588,511.150058 517.267902,511.960663 514.599202,512.628783 Z M580.767161,427.200376 L589.5,427.200376 L589.5,418.466917 L580.767161,418.466917 L580.767161,427.200376 Z M579.294527,443.762098 L587.878905,445.362952 C588.433238,442.394726 588.848689,439.346277 589.118073,436.302618 L580.419954,435.532723 C580.175713,438.298597 579.797377,441.066867 579.294527,443.762098 Z M557.01106,487.655689 L563.373318,493.636444 C565.454162,491.423744 567.452395,489.085323 569.314139,486.687035 L562.411916,481.33369 C560.720182,483.515259 558.903934,485.641749 557.01106,487.655689 Z M580.767161,401 L580.767161,409.733459 L589.5,409.733459 L589.5,401 L580.767161,401 Z M567.199772,474.527962 L574.567731,479.209594 C576.193615,476.654453 577.717731,473.979577 579.095781,471.263991 L571.312372,467.306755 C570.056442,469.776884 568.672406,472.206304 567.199772,474.527962 Z M574.717389,459.721553 L582.842018,462.925657 C583.94829,460.119073 584.937229,457.205924 585.7813,454.261645 L577.389681,451.853777 C576.622235,454.528654 575.724287,457.174793 574.717389,459.721553 Z" id="Shape" fill="#FFFFFF"></path>
            <polygon id="Rectangle" fill="#FFFFFF" transform="translate(255.501258, 195.423186) rotate(-45.000000) translate(-255.501258, -195.423186) " points="175.900951 191.087334 335.103191 191.057579 335.101565 199.759039 175.899325 199.788794"></polygon>
            <polygon id="Rectangle" fill="#FFFFFF" transform="translate(249.476980, 195.429100) rotate(-45.000000) translate(-249.476980, -195.429100) " points="245.141128 115.828793 253.842588 115.827166 253.812832 275.029406 245.111372 275.031033"></polygon>
            <polygon id="Rectangle" fill="#FFFFFF" transform="translate(476.505141, 195.425118) rotate(-45.000000) translate(-476.505141, -195.425118) " points="396.904834 191.089265 556.107074 191.05951 556.105448 199.760971 396.903208 199.790725"></polygon>
            <polygon id="Rectangle" fill="#FFFFFF" transform="translate(470.484323, 195.434372) rotate(-45.000000) translate(-470.484323, -195.434372) " points="466.14847 115.834066 474.84993 115.832439 474.820175 275.034679 466.118715 275.036305"></polygon>
            <path d="M135.5,213 L144.5,213 L144.5,204.199759 L135.5,204.199759 L135.5,213 Z M135.5,169 L135.5,177.800241 L144.5,177.800241 L144.5,169 L135.5,169 Z M135.5,195.400724 L144.5,195.400724 L144.5,186.600483 L135.5,186.600483 L135.5,195.400724 Z" id="Shape" fill="#FFFFFF"></path>
            <path d="M580.5,213 L589.5,213 L589.5,204.199759 L580.5,204.199759 L580.5,213 Z M580.5,169 L580.5,177.800241 L589.5,177.800241 L589.5,169 L580.5,169 Z M580.5,195.400724 L589.5,195.400724 L589.5,186.600483 L580.5,186.600483 L580.5,195.400724 Z" id="Shape" fill="#FFFFFF"></path>
            <path d="M356.5,195.400724 L365.5,195.400724 L365.5,186.600483 L356.5,186.600483 L356.5,195.400724 L356.5,195.400724 Z M356.5,213 L365.5,213 L365.5,204.199759 L356.5,204.199759 L356.5,213 L356.5,213 Z M356.5,169 L356.5,177.800241 L365.5,177.800241 L365.5,169 L356.5,169 Z" id="Shape" fill="#FFFFFF"></path>
            <path d="M356.5,393 L356.5,401.800241 L365.5,401.800241 L365.5,393 L356.5,393 Z M356.5,437 L365.5,437 L365.5,428.199759 L356.5,428.199759 L356.5,437 L356.5,437 Z M356.5,419.400724 L365.5,419.400724 L365.5,410.600483 L356.5,410.600483 L356.5,419.400724 L356.5,419.400724 Z" id="Shape" fill="#FFFFFF"></path>
            <path d="M140.501787,256 C121.8988,256 105.021114,267.647546 98.5,284.984033 L106.641562,288 C111.900871,274.020106 125.507872,264.626848 140.501787,264.626848 C155.498085,264.626848 169.102704,274.020106 174.358438,288 L182.5,284.984033 C175.984844,267.648729 159.104775,256 140.501787,256 Z" id="Path" fill="#FFFFFF"></path>
            <path d="M174.358145,314 C168.880352,328.125197 155.589971,337.252118 140.5,337.252118 C125.407634,337.252118 112.117253,328.126396 106.641855,314.001199 L98.5,317.167854 C105.291265,334.68281 121.777325,346 140.5,346 C159.220281,346 175.705143,334.684009 182.5,317.169053 L174.358145,314 Z" id="Path" fill="#FFFFFF"></path>
            <polygon id="Path" fill="#FFFFFF" points="181.325956 269 176.990933 283.363202 163.760731 279.666667 161.5 288.071685 182.726014 294 189.5 271.562724"></polygon>
            <polygon id="Path" fill="#FFFFFF" points="99.9353298 310 93.5 331.484633 101.804227 334 105.811893 320.611407 120.258988 324.499228 122.5 316.075616"></polygon>
            <path d="M360.500596,256 C341.897081,256 325.015341,267.647546 318.5,284.984033 L326.641793,288 C331.897676,274.020106 345.502681,264.626848 360.499404,264.626848 C375.496127,264.626848 389.101132,274.020106 394.358207,288 L402.5,284.984033 C395.98585,267.648729 379.105302,256 360.500596,256 Z" id="Path" fill="#FFFFFF"></path>
            <path d="M394.358145,314 C388.882747,328.124527 375.592366,337.25179 360.5,337.25179 C345.407634,337.25179 332.117253,328.125726 326.641855,314 L318.5,317.166773 C325.291265,334.682386 341.777325,346 360.5,346 C379.222675,346 395.708735,334.682386 402.5,317.166773 L394.358145,314 Z" id="Path" fill="#FFFFFF"></path>
            <polygon id="Path" fill="#FFFFFF" points="401.326786 269 396.989237 283.363202 383.760826 279.666667 381.5 288.071685 402.724558 294 409.5 271.563919"></polygon>
            <polygon id="Path" fill="#FFFFFF" points="319.936255 310 313.5 331.484633 321.803886 334 325.812577 320.611407 340.257891 324.499228 342.5 316.075616"></polygon>
            <path d="M580.498809,256 C561.898468,256 545.021021,267.647546 538.5,284.984033 L546.641447,288 C551.900681,274.020106 565.505106,264.626848 580.498809,264.626848 C595.492511,264.626848 609.099319,274.020106 614.358553,288 L622.5,284.984033 C615.978979,267.648729 599.101532,256 580.498809,256 Z" id="Path" fill="#FFFFFF"></path>
            <path d="M614.358377,314 C608.880741,328.124667 595.588343,337.251246 580.498803,337.251246 C565.409262,337.251246 552.120457,328.125867 546.641623,314 L538.5,317.170134 C545.294663,334.684433 561.779056,346 580.498803,346 C599.21855,346 615.706534,334.684433 622.5,317.170134 L614.358377,314 Z" id="Path" fill="#FFFFFF"></path>
            <polygon id="Path" fill="#FFFFFF" points="621.325614 269 616.988064 283.363202 603.760826 279.666667 601.5 288.071685 622.723386 294 629.5 271.563919"></polygon>
            <polygon id="Path" fill="#FFFFFF" points="539.931102 310 533.5 331.488094 541.804908 334 545.814091 320.611936 560.258804 324.49995 562.5 316.075919"></polygon>
            <polygon id="Path" fill="#4A555F" points="390.656986 511 349.887029 547.746148 334.986807 531.1596 328.5 536.916778 349.236084 560 396.5 517.404237"></polygon>
            <g id="Cloud" transform="translate(0.500000, 6.000000)">
                <path d="M213.323375,68.836 C205.653375,61.064 195.416375,56.744 184.497375,56.671 L184.222375,56.67 C180.729375,56.67 177.254375,57.128 173.846375,58.034 C168.447375,24.905 139.918375,0.23 105.923375,0.002 L105.454375,0 C81.3873755,0 58.8823755,12.67 46.3223755,33.178 C20.5443755,36.901 1.17737546,58.981 0.998856649,85.197 C0.908375464,99.342 6.32637546,112.676 16.2623755,122.745 C26.1973755,132.813 39.4603755,138.41 53.6773755,138.504 C54.1003755,138.504 54.5163755,138.481 54.9333755,138.455 L100.526376,138.423 C101.564375,138.486 103.871375,138.509 105.589375,138.509 C106.628375,138.509 109.121375,138.5 110.360375,138.423 L183.951375,138.423 L184.227375,138.424 C184.229375,138.424 184.227375,138.424 184.228375,138.424 C206.615375,138.424 224.952375,120.208 225.105197,97.82 C225.176375,86.901 220.992375,76.608 213.323375,68.836 Z M184.227375,131.895 L110.251375,131.894 L110.018375,131.902 C109.360375,131.949 107.621375,131.98 105.589375,131.98 C103.194375,131.98 101.401375,131.941 100.868375,131.902 L100.633375,131.894 L55.3713755,131.896 C55.0903755,131.904 54.8113755,131.921 54.5333755,131.938 C54.2503755,131.956 53.9663755,131.975 53.6503755,131.975 C53.6503755,131.975 53.6493755,131.975 53.6483755,131.975 C41.2483755,131.893 29.6223755,126.986 20.9113755,118.159 C12.2013755,109.332 7.44937546,97.641 7.52924837,85.241 C7.68837546,61.781 25.3793755,42.099 48.6833755,39.459 L50.3143755,39.274 L51.1393755,37.854 C62.3543755,18.534 83.1673755,6.532 105.456375,6.532 L105.881375,6.534 C137.884375,6.748 164.539375,30.879 167.882375,62.666 L168.322375,66.852 L172.267375,65.384 C176.159375,63.936 180.181375,63.202 184.223375,63.202 L184.455375,63.203 C193.630375,63.264 202.233375,66.894 208.677375,73.424 C215.120375,79.955 218.636375,88.603 218.576734,97.778 C218.446375,116.59 203.040375,131.895 184.227375,131.895 Z" id="Shape" fill="#FFFFFF"></path>
                <path d="M203.252375,78.773 C198.236375,73.691 191.543375,70.866 184.223375,70.818 C181.090375,70.818 177.961375,71.391 174.922375,72.522 L161.774375,77.413 L160.305375,63.46 C157.368375,35.536 133.949375,14.337 105.829375,14.15 L105.453375,14.148 C85.8713755,14.148 67.5833755,24.697 57.7283755,41.677 L54.9803755,46.411 L49.5413755,47.027 C30.0663755,49.234 15.2813755,65.683 15.1467154,85.291 C15.0793755,95.658 19.0513755,105.429 26.3333755,112.808 C33.6133755,120.187 43.3333755,124.288 53.6503755,124.357 L54.0563755,124.335 C54.4173755,124.313 54.7793755,124.292 55.1443755,124.281 L101.063375,124.283 L101.395375,124.303 C101.786375,124.327 103.389375,124.363 105.588375,124.363 C107.790375,124.363 109.142375,124.327 109.476375,124.304 L109.863375,124.276 C109.863375,124.276 184.227375,124.277 184.229375,124.277 C198.867375,124.277 210.857375,112.365 210.957118,97.726 C211.002375,90.586 208.266375,83.856 203.252375,78.773 Z" id="Path" fill="#666288"></path>
            </g>
            <g id="Database" transform="translate(526.500000, 5.000000)">
                <g id="Group" transform="translate(2.000000, 113.000000)" fill="#FFFFFF">
                    <rect id="Rectangle" stroke="#FFFFFF" x="25.9449541" y="2.59836066" width="7.28440367" height="16.8360656"></rect>
                    <rect id="Rectangle" stroke="#979797" x="91.6284404" y="2.59836066" width="7.28440367" height="16.8360656"></rect>
                    <path d="M35.604,21.8764521 L23.22,21.8764521 L23.22,0.388405168 L35.604,0.388405168 L35.604,21.8764521 Z M27.6428571,17.9576593 L31.2548571,17.9576593 L31.2548571,4.17657149 L27.6428571,4.17657149 L27.6428571,17.9576593 Z" id="Shape"></path>
                    <path d="M102.241714,21.8764521 L89.8577143,21.8764521 L89.8577143,0.388405168 L102.241714,0.388405168 L102.241714,21.8764521 Z M94.2068571,17.9576593 L97.8188571,17.9576593 L97.8188571,4.17657149 L94.2068571,4.17657149 L94.2068571,17.9576593 Z" id="Shape"></path>
                    <polygon id="Path" points="128.926286 24.9576593 0 24.9576593 0 17.9576593 128.852571 17.9576593 128.852571 24.9576593"></polygon>
                </g>
                <path d="M134.5,78.5 L0.5,78.5 L0.5,107.440407 C0.86357601,108.02372 2.55221096,109.135758 5.4655987,110.258686 C9.0356239,111.634706 14.0370468,112.906353 20.15629,113.98372 C32.891581,116.225923 49.6601851,117.5 67.5,117.5 C85.3398149,117.5 102.108419,116.225923 114.84371,113.98372 C120.962953,112.906353 125.964376,111.634706 129.534401,110.258686 C132.447789,109.135758 134.136424,108.02372 134.5,107.440407 L134.5,78.5 Z" id="Combined-Shape" stroke="#FFFFFF" stroke-width="7" fill="#FFD452"></path>
                <path d="M134.5,45.5 L0.5,45.5 L0.5,74.440407 C0.86357601,75.0237205 2.55221096,76.1357582 5.4655987,77.2586861 C9.0356239,78.6347064 14.0370468,79.9063525 20.15629,80.98372 C32.891581,83.2259234 49.6601851,84.5 67.5,84.5 C85.3398149,84.5 102.108419,83.2259234 114.84371,80.98372 C120.962953,79.9063525 125.964376,78.6347064 129.534401,77.2586861 C132.447789,76.1357582 134.136424,75.0237205 134.5,74.440407 L134.5,45.5 Z" id="Combined-Shape" stroke="#FFFFFF" stroke-width="7" fill="#FFD452"></path>
                <path d="M134.5,13.5 L0.5,13.5 L0.5,42.440407 C0.86357601,43.0237205 2.55221096,44.1357582 5.4655987,45.2586861 C9.0356239,46.6347064 14.0370468,47.9063525 20.15629,48.98372 C32.891581,51.2259234 49.6601851,52.5 67.5,52.5 C85.3398149,52.5 102.108419,51.2259234 114.84371,48.98372 C120.962953,47.9063525 125.964376,46.6347064 129.534401,45.2586861 C132.447789,44.1357582 134.136424,43.0237205 134.5,42.440407 L134.5,13.5 Z" id="Combined-Shape" stroke="#FFFFFF" stroke-width="7" fill="#FFD452"></path>
                <ellipse id="Oval" stroke="#FFFFFF" stroke-width="7" fill="#FFFFFF" cx="67.5" cy="10.5" rx="67" ry="10"></ellipse>
            </g>
            <g id="gear" transform="translate(281.500000, 0.000000)">
                <path d="M81,109 C65.6126126,109 53,96.3873874 53,81 C53,65.6126126 65.6126126,53 81,53 C96.3873874,53 109,65.6126126 109,81 C109,96.3873874 96.5135135,109 81,109 Z M81,60.4414414 C69.6486486,60.4414414 60.4414414,69.6486486 60.4414414,81 C60.4414414,92.3513514 69.6486486,101.558559 81,101.558559 C92.3513514,101.558559 101.558559,92.3513514 101.558559,81 C101.558559,69.6486486 92.3513514,60.4414414 81,60.4414414 Z" id="Shape" fill="#FFFFFF"></path>
                <path d="M96.2627052,162 L65.7372948,162 L57.3776388,138.060985 L34.578577,149.080532 L12.9194683,127.421423 L23.9390149,104.622361 L0,96.2627052 L0,65.7372948 L23.9390149,57.3776388 L12.9194683,34.578577 L34.578577,12.9194683 L57.3776388,23.9390149 L65.7372948,0 L96.2627052,0 L104.622361,23.9390149 L127.421423,12.9194683 L149.080532,34.578577 L138.060985,57.3776388 L162,65.7372948 L162,96.2627052 L138.060985,104.622361 L149.080532,127.421423 L127.421423,149.080532 L104.622361,138.060985 L96.2627052,162 Z M71.0570758,154.526974 L90.9429242,154.526974 L100.315872,127.548084 L125.901486,139.960907 L139.960907,125.901486 L127.548084,100.315872 L154.526974,90.9429242 L154.526974,71.1837373 L127.548084,61.8107897 L139.960907,36.2251759 L125.901486,22.1657545 L100.315872,34.578577 L90.9429242,7.59968726 L71.0570758,7.59968726 L61.6841282,34.578577 L36.0985145,22.1657545 L22.039093,36.2251759 L34.4519156,61.8107897 L7.4730258,71.1837373 L7.4730258,91.0695856 L34.4519156,100.442533 L22.039093,126.028147 L36.0985145,140.087568 L61.6841282,127.674746 L71.0570758,154.526974 Z" id="Shape" fill="#FFFFFF"></path>
                <path d="M69.4647887,117.887324 C73.1408451,119.028169 76.943662,119.661972 81,119.661972 C85.056338,119.661972 88.8591549,119.028169 92.5352113,117.887324 L83.4084507,144 L78.4647887,144 L69.4647887,117.887324 Z M34.7323944,123.84507 L46.7746479,99 C50.4507042,105.971831 56.1549296,111.676056 63.1267606,115.225352 L38.2816901,127.267606 L34.7323944,123.84507 Z M99,115.225352 C105.971831,111.549296 111.676056,105.84507 115.352113,98.8732394 L127.394366,123.71831 L123.971831,127.140845 L99,115.225352 Z M117.887324,92.5352113 C119.028169,88.8591549 119.661972,85.056338 119.661972,81 C119.661972,76.943662 119.028169,73.1408451 117.887324,69.4647887 L144,78.5915493 L144,83.5352113 L117.887324,92.5352113 Z M18,83.4084507 L18,78.4647887 L44.1126761,69.3380282 C42.971831,73.0140845 42.3380282,76.8169014 42.3380282,80.8732394 C42.3380282,84.9295775 42.971831,88.7323944 44.1126761,92.4084507 L18,83.4084507 Z M115.225352,63.1267606 C111.549296,56.1549296 105.84507,50.4507042 98.8732394,46.7746479 L123.71831,34.7323944 L127.140845,38.1549296 L115.225352,63.1267606 Z M34.7323944,38.1549296 L38.1549296,34.7323944 L63,46.7746479 C56.028169,50.4507042 50.3239437,56.1549296 46.6478873,63.1267606 L34.7323944,38.1549296 Z M78.5915493,18 L83.5352113,18 L92.6619718,44.1126761 C88.9859155,42.971831 85.1830986,42.3380282 81.1267606,42.3380282 C77.0704225,42.3380282 73.2676056,42.971831 69.5915493,44.1126761 L78.5915493,18 Z" id="Shape" fill="#EC8D53"></path>
            </g>
        </g>
    </g>
</svg>