<?xml version="1.0" encoding="UTF-8"?>
<svg width="664px" height="612px" viewBox="0 0 664 612" version="1.1" xmlns="http://www.w3.org/2000/svg" xmlns:xlink="http://www.w3.org/1999/xlink">
    <!-- Generator: Sketch 58 (84663) - https://sketch.com -->
    <title>Flexible architecture</title>
    <desc>Created with Sketch.</desc>
    <g id="Page-1" stroke="none" stroke-width="1" fill="none" fill-rule="evenodd">
        <g id="main-page-copy" transform="translate(-278.000000, -336.000000)">
            <g id="Flexible-architecture" transform="translate(278.500000, 336.000000)">
                <circle id="Oval" fill="#FFD452" fill-rule="nonzero" cx="359.5" cy="531.5" r="55.5"></circle>
                <path d="M359.998206,450 C315.336102,450 279,486.336639 279,531.000598 C279,575.664557 315.336102,612 359.998206,612 C404.663898,612 441,575.663361 441,531.000598 C441,486.335443 404.663898,450 359.998206,450 Z" id="Path-Copy-2" fill="#FFFFFF"></path>
                <path d="M138.998206,220 C94.3361021,220 58,256.336639 58,301.000598 C58,345.664557 94.3361021,382 138.998206,382 C183.663898,382 220,345.663361 220,301.000598 C220,256.335443 183.663898,220 138.998206,220 Z M138.998206,373.275571 C99.1467872,373.275571 66.7231045,340.852605 66.7231045,300.999402 C66.7231045,261.146199 99.1455911,228.722037 138.998206,228.722037 C178.853213,228.722037 211.275699,261.145003 211.275699,300.999402 C211.275699,340.852605 178.853213,373.275571 138.998206,373.275571 Z" id="Shape" fill="#FFFFFF" fill-rule="nonzero"></path>
                <path d="M139,239 C104.812582,239 77,266.814702 77,301.000597 C77,335.186492 104.812582,363 139,363 C173.187418,363 201,335.186492 201,301.000597 C201,266.814702 173.187418,239 139,239 Z" id="Path" fill="#EC8D53" fill-rule="nonzero"></path>
                <path d="M360,220 C315.336907,220 279,256.336639 279,301.000598 C279,345.664557 315.336907,382 360,382 C404.663093,382 441,345.663361 441,301.000598 C441,256.335443 404.664289,220 360,220 Z M360,373.275571 C320.147699,373.275571 287.724494,340.852605 287.724494,300.999402 C287.724494,261.146199 320.147699,228.722037 360,228.722037 C399.853498,228.722037 432.276702,261.145003 432.276702,300.999402 C432.276702,340.852605 399.853498,373.275571 360,373.275571 Z" id="Shape" fill="#FFFFFF" fill-rule="nonzero"></path>
                <path d="M360,239 C325.812582,239 298,266.814702 298,301.000597 C298,335.186492 325.812582,363 360,363 C394.187418,363 422,335.186492 422,301.000597 C422,266.814702 394.187418,239 360,239 Z" id="Path" fill="#EC8D53" fill-rule="nonzero"></path>
                <path d="M579,220 C534.336907,220 498,256.336639 498,301.000598 C498,345.664557 534.336907,382 579,382 C623.663093,382 660,345.663361 660,301.000598 C660,256.335443 623.663093,220 579,220 Z M579,373.275571 C539.147699,373.275571 506.723298,340.852605 506.723298,300.999402 C506.723298,261.146199 539.146502,228.722037 579,228.722037 C618.853498,228.722037 651.275506,261.145003 651.275506,300.999402 C651.275506,340.852605 618.852301,373.275571 579,373.275571 Z" id="Shape" fill="#FFFFFF" fill-rule="nonzero"></path>
                <path d="M578.998806,239 C544.812046,239 517,266.814702 517,301.000597 C517,335.186492 544.812046,363 578.998806,363 C613.187954,363 641,335.186492 641,301.000597 C641,266.814702 613.189148,239 578.998806,239 Z" id="Path" fill="#EC8D53" fill-rule="nonzero"></path>
                <path d="M360,450 C315.336907,450 279,486.336639 279,530.999402 C279,575.662165 315.336907,612 360,612 C404.663093,612 441,575.663361 441,531.000598 C441,486.337835 404.664289,450 360,450 Z M360,603.275571 C320.147699,603.275571 287.724494,570.852605 287.724494,531.000598 C287.724494,491.148591 320.147699,458.724429 360,458.724429 C399.853498,458.724429 432.276702,491.147395 432.276702,531.000598 C432.276702,570.853801 399.853498,603.275571 360,603.275571 Z" id="Shape" fill="#FFFFFF" fill-rule="nonzero"></path>
                <path d="M318.5,490.005459 L311.429017,483 C308.913222,485.537142 306.583073,488.28992 304.5,491.183272 L312.582488,497 C314.361154,494.527003 316.354134,492.172743 318.5,490.005459 Z M307.5,504.500316 L298.582192,500 C296.963014,503.201411 295.590411,506.55338 294.5,509.961466 L304.016438,513 C304.946575,510.09423 306.117808,507.233628 307.5,504.500316 Z M301.80464,530.787754 C301.80464,527.698868 302.039253,524.591587 302.5,521.552225 L292.312689,520 C291.772795,523.548752 291.497195,527.179573 291.5,530.961796 L293.597409,531 L301.80464,530.787754 Z M311.5,579.054592 C314.027096,581.572626 316.773879,583.909144 319.668031,586 L325.5,577.935465 C323.027485,576.146227 320.679142,574.150907 318.517739,572 L311.5,579.054592 Z M302.331342,540 L292.5,541.587092 C293.070843,545.114419 293.923011,548.617203 295.03875,552 L304.5,548.888535 C303.549505,546.002045 302.820246,543.01193 302.331342,540 Z M307.562113,557 L298.5,561.670392 C300.176253,564.919968 302.118135,568.057779 304.275315,571 L312.5,564.975851 C310.660176,562.461132 308.996505,559.778765 307.562113,557 Z M333.5,479.050604 L328.816105,470 C325.579425,471.675417 322.444722,473.624713 319.5,475.789201 L325.536121,484 C328.053383,482.149915 330.734085,480.48428 333.5,479.050604 Z M411.462697,504 L420.5,499.302145 C418.818771,496.073416 416.866647,492.942444 414.695292,490 L406.5,496.051072 C408.359964,498.567581 410.030022,501.241895 411.462697,504 Z M417.700023,521 L427.5,519.382313 C426.918322,515.862585 426.051936,512.371429 424.92536,509 L415.5,512.142857 C416.461744,515.017687 417.201442,517.997279 417.700023,521 Z M350.5,473.821282 L348.902089,464 C345.386139,464.572988 341.886536,465.433834 338.5,466.555252 L341.623624,476 C344.512941,475.04502 347.498978,474.31105 350.5,473.821282 Z M401.5,571.967943 L408.544351,579 C411.059411,576.480464 413.40116,573.738575 415.5,570.849362 L407.452627,565 C405.654011,567.470428 403.650697,569.81672 401.5,571.967943 Z M329.5,591.90576 C332.694278,593.527851 336.038971,594.904917 339.441096,596 L342.5,586.49742 C339.594246,585.561125 336.740454,584.38528 334.013832,583 L329.5,591.90576 Z M400.307741,476 L394.5,484.088525 C396.975968,485.864288 399.334552,487.854343 401.512967,490 L408.5,482.909233 C405.955786,480.403237 403.201375,478.077411 400.307741,476 Z M386.5,582.921678 L391.154549,592 C394.401129,590.335664 397.545641,588.397203 400.5,586.241958 L394.490612,578 C391.964097,579.843357 389.275392,581.497902 386.5,582.921678 Z M428.498592,531 L418.229297,531 L418.232113,531.507919 C418.232113,534.52327 417.984321,537.539961 417.5,540.478923 L427.641175,542 C428.212786,538.55982 428.5,535.029849 428.5,531.416788 L428.498592,531 Z M412.5,557.476716 L421.389555,562 C423.01541,558.803637 424.401967,555.463786 425.5,552.073373 L416.012885,549 C415.073472,551.894355 413.892027,554.746347 412.5,557.476716 Z M380.518444,466 L377.5,475.532328 C380.411573,476.457863 383.27793,477.624723 386.016863,479 L390.5,470.062757 C387.291105,468.450269 383.934233,467.083219 380.518444,466 Z M359.901408,463 L359.5,463 L359.5,473.320813 L359.901408,473.320813 C362.935211,473.320813 365.987324,473.550039 368.974648,474 L370.5,463.7938 C367.008451,463.26743 363.443662,463 359.901408,463 Z M351.06539,588 L349.5,598.167735 C353.066159,598.720698 356.715448,599 360.463366,599 L360.492955,599 L360.5,597.736086 L360.383054,588.713773 C357.260728,588.712362 354.127129,588.472557 351.06539,588 Z M369.5,588.148376 L371.062308,598 C374.589792,597.440684 378.102253,596.591453 381.5,595.481026 L378.406794,586 C375.508877,586.947692 372.512632,587.669744 369.5,588.148376 Z" id="Shape" fill="#4A555F" fill-rule="nonzero"></path>
                <path d="M146.110204,451.853777 L137.718665,454.261645 C138.562727,457.204727 139.551658,460.119073 140.657918,462.925657 L148.782471,459.721553 C147.776779,457.174793 146.877643,454.528654 146.110204,451.853777 Z M152.187455,467.306755 L144.40412,471.263991 C145.782157,473.980774 147.306259,476.654453 148.932127,479.209594 L156.300016,474.527962 C154.828593,472.206304 153.44457,469.776884 152.187455,467.306755 Z M154.186866,486.688232 C156.048593,489.086521 158.046807,491.424942 160.127631,493.637642 L166.489828,487.656887 C164.596973,485.642947 162.780741,483.516456 161.089024,481.336085 L154.186866,486.688232 Z M143.079959,435.532723 L134.381923,436.302618 C134.652502,439.346277 135.066752,442.394726 135.621079,445.362952 L144.205376,443.762098 C143.70253,441.066867 143.324199,438.298597 143.079959,435.532723 Z M142.732756,401 L134,401 L134,409.733459 L142.732756,409.733459 L142.732756,401 Z M142.732756,418.466917 L134,418.466917 L134,427.200376 L142.732756,427.200376 L142.732756,418.466917 Z M233.802929,524 L242.535685,524 L242.535685,515.266541 L233.802929,515.266541 L233.802929,524 Z M166.693361,499.994364 C168.966943,501.99633 171.366236,503.915679 173.825391,505.70332 L178.959208,498.636571 C176.719149,497.010572 174.532967,495.262443 172.464116,493.440079 L166.693361,499.994364 Z M251.267244,515.266541 L251.267244,524 L260,524 L260,515.266541 L251.267244,515.266541 Z M215.737593,522.900834 C218.736709,523.357024 221.795688,523.674321 224.828327,523.844345 L225.316806,515.125254 C222.55714,514.970796 219.777121,514.682235 217.050978,514.266756 L215.737593,522.900834 Z M198.021855,518.449093 C200.89047,519.471629 203.838105,520.362456 206.779753,521.100022 L208.900086,512.628783 C206.231412,511.960663 203.555553,511.150058 200.949136,510.222113 L198.021855,518.449093 Z M181.478226,510.713026 C184.096616,512.258802 186.816773,513.692028 189.565664,514.975586 L193.260383,507.064705 C190.76531,505.897291 188.291787,504.595773 185.912848,503.191284 L181.478226,510.713026 Z" id="Shape" fill="#FFFFFF" fill-rule="nonzero"></path>
                <path d="M496.682326,515.126452 L497.17081,523.845542 C500.203478,523.675519 503.262486,523.358221 506.261631,522.902032 L504.948233,514.26915 C502.223261,514.683433 499.443216,514.971994 496.682326,515.126452 Z M528.739054,507.063508 L532.435006,514.974388 C535.183922,513.690831 537.904105,512.256408 540.52252,510.711828 L536.087856,503.190086 C533.707697,504.594576 531.235348,505.897291 528.739054,507.063508 Z M462,524 L470.732839,524 L470.732839,515.266541 L462,515.266541 L462,524 Z M543.040365,498.635373 L548.17423,505.702123 C550.633409,503.915679 553.031528,501.995133 555.306328,499.993166 L549.535519,493.437684 C547.466648,495.260048 545.280445,497.009374 543.040365,498.635373 Z M479.464481,524 L488.19732,524 L488.19732,515.266541 L479.464481,515.266541 L479.464481,524 Z M513.099202,512.628783 L515.219555,521.100022 C518.161231,520.362456 521.108894,519.471629 523.977537,518.449093 L521.049031,510.222113 C518.442588,511.150058 515.767902,511.960663 513.099202,512.628783 Z M579.267161,427.200376 L588,427.200376 L588,418.466917 L579.267161,418.466917 L579.267161,427.200376 Z M577.794527,443.762098 L586.378905,445.362952 C586.933238,442.394726 587.348689,439.346277 587.618073,436.302618 L578.919954,435.532723 C578.675713,438.298597 578.297377,441.066867 577.794527,443.762098 Z M555.51106,487.655689 L561.873318,493.636444 C563.954162,491.423744 565.952395,489.085323 567.814139,486.687035 L560.911916,481.33369 C559.220182,483.515259 557.403934,485.641749 555.51106,487.655689 Z M579.267161,401 L579.267161,409.733459 L588,409.733459 L588,401 L579.267161,401 Z M565.699772,474.527962 L573.067731,479.209594 C574.693615,476.654453 576.217731,473.979577 577.595781,471.263991 L569.812372,467.306755 C568.556442,469.776884 567.172406,472.206304 565.699772,474.527962 Z M573.217389,459.721553 L581.342018,462.925657 C582.44829,460.119073 583.437229,457.205924 584.2813,454.261645 L575.889681,451.853777 C575.122235,454.528654 574.224287,457.174793 573.217389,459.721553 Z" id="Shape" fill="#FFFFFF" fill-rule="nonzero"></path>
                <polygon id="Rectangle" fill="#FFFFFF" fill-rule="nonzero" transform="translate(254.001258, 195.423186) rotate(-45.000000) translate(-254.001258, -195.423186) " points="174.400951 191.087334 333.603191 191.057579 333.601565 199.759039 174.399325 199.788794"></polygon>
                <polygon id="Rectangle" fill="#FFFFFF" fill-rule="nonzero" transform="translate(247.976980, 195.429099) rotate(-45.000000) translate(-247.976980, -195.429099) " points="243.641127 115.828793 252.342587 115.827166 252.312832 275.029406 243.611372 275.031033"></polygon>
                <polygon id="Rectangle" fill="#FFFFFF" fill-rule="nonzero" transform="translate(475.005141, 195.425118) rotate(-45.000000) translate(-475.005141, -195.425118) " points="395.404834 191.089265 554.607074 191.05951 554.605448 199.760971 395.403208 199.790725"></polygon>
                <polygon id="Rectangle" fill="#FFFFFF" fill-rule="nonzero" transform="translate(468.984323, 195.434372) rotate(-45.000000) translate(-468.984323, -195.434372) " points="464.64847 115.834066 473.34993 115.832439 473.320175 275.034679 464.618715 275.036305"></polygon>
                <path d="M134,213 L143,213 L143,204.199759 L134,204.199759 L134,213 Z M134,169 L134,177.800241 L143,177.800241 L143,169 L134,169 Z M134,195.400724 L143,195.400724 L143,186.600483 L134,186.600483 L134,195.400724 Z" id="Shape" fill="#FFFFFF" fill-rule="nonzero"></path>
                <path d="M579,213 L588,213 L588,204.199759 L579,204.199759 L579,213 Z M579,169 L579,177.800241 L588,177.800241 L588,169 L579,169 Z M579,195.400724 L588,195.400724 L588,186.600483 L579,186.600483 L579,195.400724 Z" id="Shape" fill="#FFFFFF" fill-rule="nonzero"></path>
                <path d="M355,195.400724 L364,195.400724 L364,186.600483 L355,186.600483 L355,195.400724 L355,195.400724 Z M355,213 L364,213 L364,204.199759 L355,204.199759 L355,213 L355,213 Z M355,169 L355,177.800241 L364,177.800241 L364,169 L355,169 Z" id="Shape" fill="#FFFFFF" fill-rule="nonzero"></path>
                <path d="M355,393 L355,401.800241 L364,401.800241 L364,393 L355,393 Z M355,437 L364,437 L364,428.199759 L355,428.199759 L355,437 L355,437 Z M355,419.400724 L364,419.400724 L364,410.600483 L355,410.600483 L355,419.400724 L355,419.400724 Z" id="Shape" fill="#FFFFFF" fill-rule="nonzero"></path>
                <path d="M139.001787,256 C120.3988,256 103.521114,267.647546 97,284.984033 L105.141562,288 C110.400871,274.020106 124.007872,264.626848 139.001787,264.626848 C153.998085,264.626848 167.602704,274.020106 172.858438,288 L181,284.984033 C174.484844,267.648729 157.604775,256 139.001787,256 Z" id="Path" fill="#FFFFFF" fill-rule="nonzero"></path>
                <path d="M172.858145,314 C167.380352,328.125197 154.089971,337.252118 139,337.252118 C123.907634,337.252118 110.617253,328.126396 105.141855,314.001199 L97,317.167854 C103.791265,334.68281 120.277325,346 139,346 C157.720281,346 174.205143,334.684009 181,317.169053 L172.858145,314 Z" id="Path" fill="#FFFFFF" fill-rule="nonzero"></path>
                <polygon id="Path" fill="#FFFFFF" fill-rule="nonzero" points="179.825956 269 175.490933 283.363202 162.260731 279.666667 160 288.071685 181.226014 294 188 271.562724"></polygon>
                <polygon id="Path" fill="#FFFFFF" fill-rule="nonzero" points="98.4353298 310 92 331.484633 100.304227 334 104.311893 320.611407 118.758988 324.499228 121 316.075616"></polygon>
                <path d="M359.000596,256 C340.397081,256 323.515341,267.647546 317,284.984033 L325.141793,288 C330.397676,274.020106 344.002681,264.626848 358.999404,264.626848 C373.996127,264.626848 387.601132,274.020106 392.858207,288 L401,284.984033 C394.48585,267.648729 377.605302,256 359.000596,256 Z" id="Path" fill="#FFFFFF" fill-rule="nonzero"></path>
                <path d="M392.858145,314 C387.382747,328.124527 374.092366,337.25179 359,337.25179 C343.907634,337.25179 330.617253,328.125726 325.141855,314 L317,317.166773 C323.791265,334.682386 340.277325,346 359,346 C377.722675,346 394.208735,334.682386 401,317.166773 L392.858145,314 Z" id="Path" fill="#FFFFFF" fill-rule="nonzero"></path>
                <polygon id="Path" fill="#FFFFFF" fill-rule="nonzero" points="399.826786 269 395.489237 283.363202 382.260826 279.666667 380 288.071685 401.224558 294 408 271.563919"></polygon>
                <polygon id="Path" fill="#FFFFFF" fill-rule="nonzero" points="318.436255 310 312 331.484633 320.303886 334 324.312577 320.611407 338.757891 324.499228 341 316.075616"></polygon>
                <path d="M578.998809,256 C560.398468,256 543.521021,267.647546 537,284.984033 L545.141447,288 C550.400681,274.020106 564.005106,264.626848 578.998809,264.626848 C593.992511,264.626848 607.599319,274.020106 612.858553,288 L621,284.984033 C614.478979,267.648729 597.601532,256 578.998809,256 Z" id="Path" fill="#FFFFFF" fill-rule="nonzero"></path>
                <path d="M612.858377,314 C607.380741,328.124667 594.088343,337.251246 578.998803,337.251246 C563.909262,337.251246 550.620457,328.125867 545.141623,314 L537,317.170134 C543.794663,334.684433 560.279056,346 578.998803,346 C597.71855,346 614.206534,334.684433 621,317.170134 L612.858377,314 Z" id="Path" fill="#FFFFFF" fill-rule="nonzero"></path>
                <polygon id="Path" fill="#FFFFFF" fill-rule="nonzero" points="619.825614 269 615.488064 283.363202 602.260826 279.666667 600 288.071685 621.223386 294 628 271.563919"></polygon>
                <polygon id="Path" fill="#FFFFFF" fill-rule="nonzero" points="538.431102 310 532 331.488094 540.304908 334 544.314091 320.611936 558.758804 324.49995 561 316.075919"></polygon>
                <polygon id="Path" fill="#4A555F" fill-rule="nonzero" points="389.156986 511 348.387029 547.746148 333.486807 531.1596 327 536.916778 347.736084 560 395 517.404237"></polygon>
                <g id="Cloud" transform="translate(0.000000, 6.000000)" fill-rule="nonzero">
                    <path d="M212.323375,68.836 C204.653375,61.064 194.416375,56.744 183.497375,56.671 L183.222375,56.67 C179.729375,56.67 176.254375,57.128 172.846375,58.034 C167.447375,24.905 138.918375,0.23 104.923375,0.002 L104.454375,0 C80.3873755,0 57.8823755,12.67 45.3223755,33.178 C19.5443755,36.901 0.177375464,58.981 0.00117256088,85.197 C-0.0916245362,99.342 5.32637546,112.676 15.2623755,122.745 C25.1973755,132.813 38.4603755,138.41 52.6773755,138.504 C53.1003755,138.504 53.5163755,138.481 53.9333755,138.455 L99.5263755,138.423 C100.564375,138.486 102.871375,138.509 104.589375,138.509 C105.628375,138.509 108.121375,138.5 109.360375,138.423 L182.951375,138.423 L183.227375,138.424 C183.229375,138.424 183.227375,138.424 183.228375,138.424 C205.615375,138.424 223.952375,120.208 224.103341,97.82 C224.176375,86.901 219.992375,76.608 212.323375,68.836 Z M183.227375,131.895 L109.251375,131.894 L109.018375,131.902 C108.360375,131.949 106.621375,131.98 104.589375,131.98 C102.194375,131.98 100.401375,131.941 99.8683755,131.902 L99.6333755,131.894 L54.3713755,131.896 C54.0903755,131.904 53.8113755,131.921 53.5333755,131.938 C53.2503755,131.956 52.9663755,131.975 52.6503755,131.975 C52.6503755,131.975 52.6493755,131.975 52.6483755,131.975 C40.2483755,131.893 28.6223755,126.986 19.9113755,118.159 C11.2013755,109.332 6.44937546,97.641 6.53130629,85.241 C6.68837546,61.781 24.3793755,42.099 47.6833755,39.459 L49.3143755,39.274 L50.1393755,37.854 C61.3543755,18.534 82.1673755,6.532 104.456375,6.532 L104.881375,6.534 C136.884375,6.748 163.539375,30.879 166.882375,62.666 L167.322375,66.852 L171.267375,65.384 C175.159375,63.936 179.181375,63.202 183.223375,63.202 L183.455375,63.203 C192.630375,63.264 201.233375,66.894 207.677375,73.424 C214.120375,79.955 217.636375,88.603 217.575182,97.778 C217.446375,116.59 202.040375,131.895 183.227375,131.895 Z" id="Shape" fill="#FFFFFF"></path>
                    <path d="M202.252375,78.773 C197.236375,73.691 190.543375,70.866 183.223375,70.818 C180.090375,70.818 176.961375,71.391 173.922375,72.522 L160.774375,77.413 L159.305375,63.46 C156.368375,35.536 132.949375,14.337 104.829375,14.15 L104.453375,14.148 C84.8713755,14.148 66.5833755,24.697 56.7283755,41.677 L53.9803755,46.411 L48.5413755,47.027 C29.0663755,49.234 14.2813755,65.683 14.1484658,85.291 C14.0793755,95.658 18.0513755,105.429 25.3333755,112.808 C32.6133755,120.187 42.3333755,124.288 52.6503755,124.357 L53.0563755,124.335 C53.4173755,124.313 53.7793755,124.292 54.1443755,124.281 L100.063375,124.283 L100.395375,124.303 C100.786375,124.327 102.389375,124.363 104.588375,124.363 C106.790375,124.363 108.142375,124.327 108.476375,124.304 L108.863375,124.276 C108.863375,124.276 183.227375,124.277 183.229375,124.277 C197.867375,124.277 209.857375,112.365 209.955971,97.726 C210.002375,90.586 207.266375,83.856 202.252375,78.773 Z" id="Path" fill="#71CDE1"></path>
                </g>
                <g id="Database" transform="translate(522.000000, 2.000000)">
                    <g id="Group" transform="translate(5.000000, 116.000000)" fill="#FFFFFF">
                        <rect id="Rectangle" stroke="#FFFFFF" x="25.9449541" y="2.59836066" width="7.28440367" height="16.8360656"></rect>
                        <rect id="Rectangle" stroke="#979797" x="91.6284404" y="2.59836066" width="7.28440367" height="16.8360656"></rect>
                        <path d="M35.604,21.8764521 L23.22,21.8764521 L23.22,0.388405168 L35.604,0.388405168 L35.604,21.8764521 Z M27.6428571,17.9576593 L31.2548571,17.9576593 L31.2548571,4.17657149 L27.6428571,4.17657149 L27.6428571,17.9576593 Z" id="Shape" fill-rule="nonzero"></path>
                        <path d="M102.241714,21.8764521 L89.8577143,21.8764521 L89.8577143,0.388405168 L102.241714,0.388405168 L102.241714,21.8764521 Z M94.2068571,17.9576593 L97.8188571,17.9576593 L97.8188571,4.17657149 L94.2068571,4.17657149 L94.2068571,17.9576593 Z" id="Shape" fill-rule="nonzero"></path>
                        <polygon id="Path" fill-rule="nonzero" points="128.926286 24.9576593 0 24.9576593 0 17.9576593 128.852571 17.9576593 128.852571 24.9576593"></polygon>
                    </g>
                    <path d="M137.5,81.5 L3.5,81.5 L3.5,110.440407 C3.86357601,111.02372 5.55221096,112.135758 8.4655987,113.258686 C12.0356239,114.634706 17.0370468,115.906353 23.15629,116.98372 C35.891581,119.225923 52.6601851,120.5 70.5,120.5 C88.3398149,120.5 105.108419,119.225923 117.84371,116.98372 C123.962953,115.906353 128.964376,114.634706 132.534401,113.258686 C135.447789,112.135758 137.136424,111.02372 137.5,110.440407 L137.5,81.5 Z" id="Combined-Shape" stroke="#FFFFFF" stroke-width="7" fill="#FFD452"></path>
                    <path d="M137.5,48.5 L3.5,48.5 L3.5,77.440407 C3.86357601,78.0237205 5.55221096,79.1357582 8.4655987,80.2586861 C12.0356239,81.6347064 17.0370468,82.9063525 23.15629,83.98372 C35.891581,86.2259234 52.6601851,87.5 70.5,87.5 C88.3398149,87.5 105.108419,86.2259234 117.84371,83.98372 C123.962953,82.9063525 128.964376,81.6347064 132.534401,80.2586861 C135.447789,79.1357582 137.136424,78.0237205 137.5,77.440407 L137.5,48.5 Z" id="Combined-Shape" stroke="#FFFFFF" stroke-width="7" fill="#FFD452"></path>
                    <path d="M137.5,16.5 L3.5,16.5 L3.5,45.440407 C3.86357601,46.0237205 5.55221096,47.1357582 8.4655987,48.2586861 C12.0356239,49.6347064 17.0370468,50.9063525 23.15629,51.98372 C35.891581,54.2259234 52.6601851,55.5 70.5,55.5 C88.3398149,55.5 105.108419,54.2259234 117.84371,51.98372 C123.962953,50.9063525 128.964376,49.6347064 132.534401,48.2586861 C135.447789,47.1357582 137.136424,46.0237205 137.5,45.440407 L137.5,16.5 Z" id="Combined-Shape" stroke="#FFFFFF" stroke-width="7" fill="#FFD452"></path>
                    <ellipse id="Oval" stroke="#FFFFFF" stroke-width="7" fill="#FFFFFF" cx="70.5" cy="13.5" rx="67" ry="10"></ellipse>
                </g>
                <g id="gear" transform="translate(280.000000, 0.000000)" fill-rule="nonzero">
                    <path d="M81,109 C65.6126126,109 53,96.3873874 53,81 C53,65.6126126 65.6126126,53 81,53 C96.3873874,53 109,65.6126126 109,81 C109,96.3873874 96.5135135,109 81,109 Z M81,60.4414414 C69.6486486,60.4414414 60.4414414,69.6486486 60.4414414,81 C60.4414414,92.3513514 69.6486486,101.558559 81,101.558559 C92.3513514,101.558559 101.558559,92.3513514 101.558559,81 C101.558559,69.6486486 92.3513514,60.4414414 81,60.4414414 Z" id="Shape" fill="#FFFFFF"></path>
                    <path d="M96.2627052,162 L65.7372948,162 L57.3776388,138.060985 L34.578577,149.080532 L12.9194683,127.421423 L23.9390149,104.622361 L0,96.2627052 L0,65.7372948 L23.9390149,57.3776388 L12.9194683,34.578577 L34.578577,12.9194683 L57.3776388,23.9390149 L65.7372948,0 L96.2627052,0 L104.622361,23.9390149 L127.421423,12.9194683 L149.080532,34.578577 L138.060985,57.3776388 L162,65.7372948 L162,96.2627052 L138.060985,104.622361 L149.080532,127.421423 L127.421423,149.080532 L104.622361,138.060985 L96.2627052,162 Z M71.0570758,154.526974 L90.9429242,154.526974 L100.315872,127.548084 L125.901486,139.960907 L139.960907,125.901486 L127.548084,100.315872 L154.526974,90.9429242 L154.526974,71.1837373 L127.548084,61.8107897 L139.960907,36.2251759 L125.901486,22.1657545 L100.315872,34.578577 L90.9429242,7.59968726 L71.0570758,7.59968726 L61.6841282,34.578577 L36.0985145,22.1657545 L22.039093,36.2251759 L34.4519156,61.8107897 L7.4730258,71.1837373 L7.4730258,91.0695856 L34.4519156,100.442533 L22.039093,126.028147 L36.0985145,140.087568 L61.6841282,127.674746 L71.0570758,154.526974 Z" id="Shape" fill="#FFFFFF"></path>
                    <path d="M69.4647887,117.887324 C73.1408451,119.028169 76.943662,119.661972 81,119.661972 C85.056338,119.661972 88.8591549,119.028169 92.5352113,117.887324 L83.4084507,144 L78.4647887,144 L69.4647887,117.887324 Z M34.7323944,123.84507 L46.7746479,99 C50.4507042,105.971831 56.1549296,111.676056 63.1267606,115.225352 L38.2816901,127.267606 L34.7323944,123.84507 Z M99,115.225352 C105.971831,111.549296 111.676056,105.84507 115.352113,98.8732394 L127.394366,123.71831 L123.971831,127.140845 L99,115.225352 Z M117.887324,92.5352113 C119.028169,88.8591549 119.661972,85.056338 119.661972,81 C119.661972,76.943662 119.028169,73.1408451 117.887324,69.4647887 L144,78.5915493 L144,83.5352113 L117.887324,92.5352113 Z M18,83.4084507 L18,78.4647887 L44.1126761,69.3380282 C42.971831,73.0140845 42.3380282,76.8169014 42.3380282,80.8732394 C42.3380282,84.9295775 42.971831,88.7323944 44.1126761,92.4084507 L18,83.4084507 Z M115.225352,63.1267606 C111.549296,56.1549296 105.84507,50.4507042 98.8732394,46.7746479 L123.71831,34.7323944 L127.140845,38.1549296 L115.225352,63.1267606 Z M34.7323944,38.1549296 L38.1549296,34.7323944 L63,46.7746479 C56.028169,50.4507042 50.3239437,56.1549296 46.6478873,63.1267606 L34.7323944,38.1549296 Z M78.5915493,18 L83.5352113,18 L92.6619718,44.1126761 C88.9859155,42.971831 85.1830986,42.3380282 81.1267606,42.3380282 C77.0704225,42.3380282 73.2676056,42.971831 69.5915493,44.1126761 L78.5915493,18 Z" id="Shape" fill="#EC8D53"></path>
                </g>
            </g>
        </g>
    </g>
</svg>