<?xml version="1.0" encoding="UTF-8"?>
<svg width="663px" height="612px" viewBox="0 0 663 612" version="1.1" xmlns="http://www.w3.org/2000/svg" xmlns:xlink="http://www.w3.org/1999/xlink">
    <!-- Generator: Sketch 59.1 (86144) - https://sketch.com -->
    <title>mf-flex-architecture</title>
    <desc>Created with Sketch.</desc>
    <g id="Page-1" stroke="none" stroke-width="1" fill="none" fill-rule="evenodd">
        <g id="mf-flex-architecture" transform="translate(-1.000000, 0.000000)" fill-rule="nonzero">
            <circle id="Oval" fill="#FFD452" cx="360.5" cy="531.5" r="55.5"></circle>
            <path d="M139.998206,220 C95.3361021,220 59,256.336639 59,301.000598 C59,345.664557 95.3361021,382 139.998206,382 C184.663898,382 221,345.663361 221,301.000598 C221,256.335443 184.663898,220 139.998206,220 Z" id="Path" fill="#FFFFFF"></path>
            <path d="M360.998206,220 C316.336102,220 280,256.336639 280,301.000598 C280,345.664557 316.336102,382 360.998206,382 C405.663898,382 442,345.663361 442,301.000598 C442,256.335443 405.663898,220 360.998206,220 Z" id="Path" fill="#FFFFFF"></path>
            <path d="M579.998206,220 C535.336102,220 499,256.336639 499,301.000598 C499,345.664557 535.336102,382 579.998206,382 C624.663898,382 661,345.663361 661,301.000598 C661,256.335443 624.663898,220 579.998206,220 Z" id="Path-Copy" fill="#FFFFFF"></path>
            <path d="M360.998206,450 C316.336102,450 280,486.336639 280,531.000598 C280,575.664557 316.336102,612 360.998206,612 C405.663898,612 442,575.663361 442,531.000598 C442,486.335443 405.663898,450 360.998206,450 Z" id="Path-Copy-2" fill="#FFFFFF"></path>
            <path d="M139.998206,220 C95.3361021,220 59,256.336639 59,301.000598 C59,345.664557 95.3361021,382 139.998206,382 C184.663898,382 221,345.663361 221,301.000598 C221,256.335443 184.663898,220 139.998206,220 Z M139.998206,373.275571 C100.146787,373.275571 67.7231045,340.852605 67.7231045,300.999402 C67.7231045,261.146199 100.145591,228.722037 139.998206,228.722037 C179.853213,228.722037 212.275699,261.145003 212.275699,300.999402 C212.275699,340.852605 179.853213,373.275571 139.998206,373.275571 Z" id="Shape" fill="#4A555F"></path>
            <path d="M140,239 C105.812582,239 78,266.814702 78,301.000597 C78,335.186492 105.812582,363 140,363 C174.187418,363 202,335.186492 202,301.000597 C202,266.814702 174.187418,239 140,239 Z" id="Path" fill="#EC8D53"></path>
            <path d="M361,220 C316.336907,220 280,256.336639 280,301.000598 C280,345.664557 316.336907,382 361,382 C405.663093,382 442,345.663361 442,301.000598 C442,256.335443 405.664289,220 361,220 Z M361,373.275571 C321.147699,373.275571 288.724494,340.852605 288.724494,300.999402 C288.724494,261.146199 321.147699,228.722037 361,228.722037 C400.853498,228.722037 433.276702,261.145003 433.276702,300.999402 C433.276702,340.852605 400.853498,373.275571 361,373.275571 Z" id="Shape" fill="#4A555F"></path>
            <path d="M361,239 C326.812582,239 299,266.814702 299,301.000597 C299,335.186492 326.812582,363 361,363 C395.187418,363 423,335.186492 423,301.000597 C423,266.814702 395.187418,239 361,239 Z" id="Path" fill="#EC8D53"></path>
            <path d="M580,220 C535.336907,220 499,256.336639 499,301.000598 C499,345.664557 535.336907,382 580,382 C624.663093,382 661,345.663361 661,301.000598 C661,256.335443 624.663093,220 580,220 Z M580,373.275571 C540.147699,373.275571 507.723298,340.852605 507.723298,300.999402 C507.723298,261.146199 540.146502,228.722037 580,228.722037 C619.853498,228.722037 652.275506,261.145003 652.275506,300.999402 C652.275506,340.852605 619.852301,373.275571 580,373.275571 Z" id="Shape" fill="#4A555F"></path>
            <path d="M579.998806,239 C545.812046,239 518,266.814702 518,301.000597 C518,335.186492 545.812046,363 579.998806,363 C614.187954,363 642,335.186492 642,301.000597 C642,266.814702 614.189148,239 579.998806,239 Z" id="Path" fill="#EC8D53"></path>
            <path d="M361,450 C316.336907,450 280,486.336639 280,530.999402 C280,575.662165 316.336907,612 361,612 C405.663093,612 442,575.663361 442,531.000598 C442,486.337835 405.664289,450 361,450 Z M361,603.275571 C321.147699,603.275571 288.724494,570.852605 288.724494,531.000598 C288.724494,491.148591 321.147699,458.724429 361,458.724429 C400.853498,458.724429 433.276702,491.147395 433.276702,531.000598 C433.276702,570.853801 400.853498,603.275571 361,603.275571 Z" id="Shape" fill="#4A555F"></path>
            <path d="M324.561175,494.931767 L318.360246,488.787221 C316.154007,491.012569 314.110574,493.427054 312.283813,495.964836 L319.371787,501.066736 C320.931596,498.897651 322.679349,496.83271 324.561175,494.931767 Z M315.196335,507.937902 L307.403274,504.001945 C305.988313,506.801885 304.788828,509.733503 303.835944,512.7142 L312.152133,515.371689 C312.964958,512.830316 313.98847,510.328445 315.196335,507.937902 Z M309.728025,531.001796 C309.728025,528.388598 309.926742,525.759838 310.316993,523.188538 L301.688363,521.875355 C301.231075,524.8776 300.997642,527.949274 300.999982,531.149035 L302.776519,531.181356 L309.728025,531.001796 Z M318.697825,573.550352 C320.914837,575.758941 323.324581,577.80832 325.86361,579.642227 L330.979976,572.568757 C328.810848,570.999401 326.750654,569.249289 324.854463,567.362711 L318.697825,573.550352 Z M310.379242,539.220859 L301.761386,540.614245 C302.26177,543.711058 303.008754,546.786324 303.986778,549.756247 L312.280222,547.02454 C311.447047,544.490349 310.8078,541.86518 310.379242,539.220859 Z M315.380687,554.431992 L307.621145,558.433787 C309.056457,561.218165 310.719216,563.906778 312.566327,566.427802 L319.608811,561.266048 C318.03344,559.111327 316.608902,556.812958 315.380687,554.431992 Z M337.470602,485.435433 L333.456757,477.682029 C330.683097,479.117313 327.996826,480.787221 325.473359,482.641478 L330.645988,489.675445 C332.803145,488.090528 335.100362,486.663624 337.470602,485.435433 Z M406.514005,507.380069 L414.261576,503.353135 C412.820279,500.585515 411.146746,497.901691 409.28527,495.37947 L402.259545,500.566362 C403.85407,502.723477 405.28579,505.015861 406.514005,507.380069 Z M411.584882,522.573246 L420.196752,521.149933 C419.685594,518.05312 418.924245,514.981445 417.934251,512.015113 L409.65158,514.780338 C410.496726,517.309741 411.146746,519.931318 411.584882,522.573246 Z M352.673654,480.402963 L351.269466,471.785276 C348.179775,472.288044 345.104449,473.043394 342.128482,474.027383 L344.873411,482.314679 C347.41244,481.476732 350.036463,480.83271 352.673654,480.402963 Z M397.285633,567.22026 L403.465015,573.391142 C405.671253,571.180159 407.725461,568.774054 409.566587,566.238665 L402.507343,561.105641 C400.929577,563.27353 399.172248,565.332485 397.285633,567.22026 Z M333.892498,584.544217 C336.688901,585.962741 339.616985,587.166991 342.595347,588.124645 L345.273239,579.814604 C342.729421,578.99581 340.231093,577.96753 337.844094,576.756098 L333.892498,584.544217 Z M395.9413,482.217717 L390.847679,489.311537 C393.019202,490.868921 395.087775,492.614245 396.998331,494.496035 L403.126239,488.277271 C400.894862,486.079455 398.479133,484.039653 395.9413,482.217717 Z M384.341491,576.662726 L388.326606,584.432889 C391.106251,583.008379 393.798508,581.349244 396.327961,579.504564 L391.182865,572.450247 C389.019722,574.027981 386.717716,575.444112 384.341491,576.662726 Z M420.998803,530.548107 L412.267223,530.548107 L412.269617,531.001796 C412.269617,533.695197 412.05893,536.389795 411.64713,539.014963 L420.269775,540.373635 C420.755793,537.300763 421,534.147688 421,530.920395 L420.998803,530.548107 Z M406.707934,554.254826 L414.490221,558.217118 C415.913562,555.417178 417.127412,552.491546 418.088675,549.521622 L409.78326,546.829418 C408.960859,549.364806 407.926572,551.863085 406.707934,554.254826 Z M379.168862,473.801137 L376.531671,482.123148 C379.075489,482.931169 381.579803,483.949873 383.972787,485.150531 L387.889668,477.348047 C385.086082,475.940296 382.153209,474.74682 379.168862,473.801137 Z M360.998222,471 L360.657052,471 L360.657052,479.731408 L360.998222,479.731408 C363.576756,479.731408 366.170851,479.925333 368.709881,480.306 L370.00633,471.671555 C367.038742,471.226246 364.008906,471 360.998222,471 Z M353.083059,581.66527 L351.753091,590.29373 C354.782928,590.762981 357.883392,591 361.067654,591 L361.092793,591 L361.098778,589.927428 L360.99942,582.270986 C358.346667,582.269789 355.684337,582.066288 353.083059,581.66527 Z M369.115695,581.631752 L370.485166,590.255424 C373.577252,589.765824 376.656169,589.022445 379.634531,588.050426 L376.92312,579.75116 C374.382894,580.580727 371.756477,581.212779 369.115695,581.631752 Z" id="Shape" fill="#4A555F"></path>
            <path d="M147.110204,451.853777 L138.718665,454.261645 C139.562727,457.204727 140.551658,460.119073 141.657918,462.925657 L149.782471,459.721553 C148.776779,457.174793 147.877643,454.528654 147.110204,451.853777 Z M153.187455,467.306755 L145.40412,471.263991 C146.782157,473.980774 148.306259,476.654453 149.932127,479.209594 L157.300016,474.527962 C155.828593,472.206304 154.44457,469.776884 153.187455,467.306755 Z M155.186866,486.688232 C157.048593,489.086521 159.046807,491.424942 161.127631,493.637642 L167.489828,487.656887 C165.596973,485.642947 163.780741,483.516456 162.089024,481.336085 L155.186866,486.688232 Z M144.079959,435.532723 L135.381923,436.302618 C135.652502,439.346277 136.066752,442.394726 136.621079,445.362952 L145.205376,443.762098 C144.70253,441.066867 144.324199,438.298597 144.079959,435.532723 Z M143.732756,401 L135,401 L135,409.733459 L143.732756,409.733459 L143.732756,401 Z M143.732756,418.466917 L135,418.466917 L135,427.200376 L143.732756,427.200376 L143.732756,418.466917 Z M234.802929,524 L243.535685,524 L243.535685,515.266541 L234.802929,515.266541 L234.802929,524 Z M167.693361,499.994364 C169.966943,501.99633 172.366236,503.915679 174.825391,505.70332 L179.959208,498.636571 C177.719149,497.010572 175.532967,495.262443 173.464116,493.440079 L167.693361,499.994364 Z M252.267244,515.266541 L252.267244,524 L261,524 L261,515.266541 L252.267244,515.266541 Z M216.737593,522.900834 C219.736709,523.357024 222.795688,523.674321 225.828327,523.844345 L226.316806,515.125254 C223.55714,514.970796 220.777121,514.682235 218.050978,514.266756 L216.737593,522.900834 Z M199.021855,518.449093 C201.89047,519.471629 204.838105,520.362456 207.779753,521.100022 L209.900086,512.628783 C207.231412,511.960663 204.555553,511.150058 201.949136,510.222113 L199.021855,518.449093 Z M182.478226,510.713026 C185.096616,512.258802 187.816773,513.692028 190.565664,514.975586 L194.260383,507.064705 C191.76531,505.897291 189.291787,504.595773 186.912848,503.191284 L182.478226,510.713026 Z" id="Shape" fill="#4A555F"></path>
            <path d="M497.682326,515.126452 L498.17081,523.845542 C501.203478,523.675519 504.262486,523.358221 507.261631,522.902032 L505.948233,514.26915 C503.223261,514.683433 500.443216,514.971994 497.682326,515.126452 Z M529.739054,507.063508 L533.435006,514.974388 C536.183922,513.690831 538.904105,512.256408 541.52252,510.711828 L537.087856,503.190086 C534.707697,504.594576 532.235348,505.897291 529.739054,507.063508 Z M463,524 L471.732839,524 L471.732839,515.266541 L463,515.266541 L463,524 Z M544.040365,498.635373 L549.17423,505.702123 C551.633409,503.915679 554.031528,501.995133 556.306328,499.993166 L550.535519,493.437684 C548.466648,495.260048 546.280445,497.009374 544.040365,498.635373 Z M480.464481,524 L489.19732,524 L489.19732,515.266541 L480.464481,515.266541 L480.464481,524 Z M514.099202,512.628783 L516.219555,521.100022 C519.161231,520.362456 522.108894,519.471629 524.977537,518.449093 L522.049031,510.222113 C519.442588,511.150058 516.767902,511.960663 514.099202,512.628783 Z M580.267161,427.200376 L589,427.200376 L589,418.466917 L580.267161,418.466917 L580.267161,427.200376 Z M578.794527,443.762098 L587.378905,445.362952 C587.933238,442.394726 588.348689,439.346277 588.618073,436.302618 L579.919954,435.532723 C579.675713,438.298597 579.297377,441.066867 578.794527,443.762098 Z M556.51106,487.655689 L562.873318,493.636444 C564.954162,491.423744 566.952395,489.085323 568.814139,486.687035 L561.911916,481.33369 C560.220182,483.515259 558.403934,485.641749 556.51106,487.655689 Z M580.267161,401 L580.267161,409.733459 L589,409.733459 L589,401 L580.267161,401 Z M566.699772,474.527962 L574.067731,479.209594 C575.693615,476.654453 577.217731,473.979577 578.595781,471.263991 L570.812372,467.306755 C569.556442,469.776884 568.172406,472.206304 566.699772,474.527962 Z M574.217389,459.721553 L582.342018,462.925657 C583.44829,460.119073 584.437229,457.205924 585.2813,454.261645 L576.889681,451.853777 C576.122235,454.528654 575.224287,457.174793 574.217389,459.721553 Z" id="Shape" fill="#4A555F"></path>
            <polygon id="Rectangle" fill="#4A555F" transform="translate(255.001258, 195.423186) rotate(-45.000000) translate(-255.001258, -195.423186) " points="175.400951 191.087334 334.603191 191.057579 334.601565 199.759039 175.399325 199.788794"></polygon>
            <polygon id="Rectangle" fill="#4A555F" transform="translate(248.976980, 195.429100) rotate(-45.000000) translate(-248.976980, -195.429100) " points="244.641128 115.828793 253.342588 115.827166 253.312832 275.029406 244.611372 275.031033"></polygon>
            <polygon id="Rectangle" fill="#4A555F" transform="translate(476.005141, 195.425118) rotate(-45.000000) translate(-476.005141, -195.425118) " points="396.404834 191.089265 555.607074 191.05951 555.605448 199.760971 396.403208 199.790725"></polygon>
            <polygon id="Rectangle" fill="#4A555F" transform="translate(469.984323, 195.434372) rotate(-45.000000) translate(-469.984323, -195.434372) " points="465.64847 115.834066 474.34993 115.832439 474.320175 275.034679 465.618715 275.036305"></polygon>
            <path d="M135,213 L144,213 L144,204.199759 L135,204.199759 L135,213 Z M135,169 L135,177.800241 L144,177.800241 L144,169 L135,169 Z M135,195.400724 L144,195.400724 L144,186.600483 L135,186.600483 L135,195.400724 Z" id="Shape" fill="#4A555F"></path>
            <path d="M580,213 L589,213 L589,204.199759 L580,204.199759 L580,213 Z M580,169 L580,177.800241 L589,177.800241 L589,169 L580,169 Z M580,195.400724 L589,195.400724 L589,186.600483 L580,186.600483 L580,195.400724 Z" id="Shape" fill="#4A555F"></path>
            <path d="M356,195.400724 L365,195.400724 L365,186.600483 L356,186.600483 L356,195.400724 L356,195.400724 Z M356,213 L365,213 L365,204.199759 L356,204.199759 L356,213 L356,213 Z M356,169 L356,177.800241 L365,177.800241 L365,169 L356,169 Z" id="Shape" fill="#4A555F"></path>
            <path d="M356,393 L356,401.800241 L365,401.800241 L365,393 L356,393 Z M356,437 L365,437 L365,428.199759 L356,428.199759 L356,437 L356,437 Z M356,419.400724 L365,419.400724 L365,410.600483 L356,410.600483 L356,419.400724 L356,419.400724 Z" id="Shape" fill="#4A555F"></path>
            <path d="M140.001787,256 C121.3988,256 104.521114,267.647546 98,284.984033 L106.141562,288 C111.400871,274.020106 125.007872,264.626848 140.001787,264.626848 C154.998085,264.626848 168.602704,274.020106 173.858438,288 L182,284.984033 C175.484844,267.648729 158.604775,256 140.001787,256 Z" id="Path" fill="#4A555F"></path>
            <path d="M173.858145,314 C168.380352,328.125197 155.089971,337.252118 140,337.252118 C124.907634,337.252118 111.617253,328.126396 106.141855,314.001199 L98,317.167854 C104.791265,334.68281 121.277325,346 140,346 C158.720281,346 175.205143,334.684009 182,317.169053 L173.858145,314 Z" id="Path" fill="#4A555F"></path>
            <polygon id="Path" fill="#4A555F" points="180.825956 269 176.490933 283.363202 163.260731 279.666667 161 288.071685 182.226014 294 189 271.562724"></polygon>
            <polygon id="Path" fill="#4A555F" points="99.4353298 310 93 331.484633 101.304227 334 105.311893 320.611407 119.758988 324.499228 122 316.075616"></polygon>
            <path d="M360.000596,256 C341.397081,256 324.515341,267.647546 318,284.984033 L326.141793,288 C331.397676,274.020106 345.002681,264.626848 359.999404,264.626848 C374.996127,264.626848 388.601132,274.020106 393.858207,288 L402,284.984033 C395.48585,267.648729 378.605302,256 360.000596,256 Z" id="Path" fill="#4A555F"></path>
            <path d="M393.858145,314 C388.382747,328.124527 375.092366,337.25179 360,337.25179 C344.907634,337.25179 331.617253,328.125726 326.141855,314 L318,317.166773 C324.791265,334.682386 341.277325,346 360,346 C378.722675,346 395.208735,334.682386 402,317.166773 L393.858145,314 Z" id="Path" fill="#4A555F"></path>
            <polygon id="Path" fill="#4A555F" points="400.826786 269 396.489237 283.363202 383.260826 279.666667 381 288.071685 402.224558 294 409 271.563919"></polygon>
            <polygon id="Path" fill="#4A555F" points="319.436255 310 313 331.484633 321.303886 334 325.312577 320.611407 339.757891 324.499228 342 316.075616"></polygon>
            <path d="M579.998809,256 C561.398468,256 544.521021,267.647546 538,284.984033 L546.141447,288 C551.400681,274.020106 565.005106,264.626848 579.998809,264.626848 C594.992511,264.626848 608.599319,274.020106 613.858553,288 L622,284.984033 C615.478979,267.648729 598.601532,256 579.998809,256 Z" id="Path" fill="#4A555F"></path>
            <path d="M613.858377,314 C608.380741,328.124667 595.088343,337.251246 579.998803,337.251246 C564.909262,337.251246 551.620457,328.125867 546.141623,314 L538,317.170134 C544.794663,334.684433 561.279056,346 579.998803,346 C598.71855,346 615.206534,334.684433 622,317.170134 L613.858377,314 Z" id="Path" fill="#4A555F"></path>
            <polygon id="Path" fill="#4A555F" points="620.825614 269 616.488064 283.363202 603.260826 279.666667 601 288.071685 622.223386 294 629 271.563919"></polygon>
            <polygon id="Path" fill="#4A555F" points="539.431102 310 533 331.488094 541.304908 334 545.314091 320.611936 559.758804 324.49995 562 316.075919"></polygon>
            <polygon id="Path" fill="#4A555F" points="390.156986 511 349.387029 547.746148 334.486807 531.1596 328 536.916778 348.736084 560 396 517.404237"></polygon>
            <g id="Cloud" transform="translate(0.000000, 6.000000)">
                <path d="M213.323375,68.836 C205.653375,61.064 195.416375,56.744 184.497375,56.671 L184.222375,56.67 C180.729375,56.67 177.254375,57.128 173.846375,58.034 C168.447375,24.905 139.918375,0.23 105.923375,0.002 L105.454375,0 C81.3873755,0 58.8823755,12.67 46.3223755,33.178 C20.5443755,36.901 1.17737546,58.981 0.998856649,85.197 C0.908375464,99.342 6.32637546,112.676 16.2623755,122.745 C26.1973755,132.813 39.4603755,138.41 53.6773755,138.504 C54.1003755,138.504 54.5163755,138.481 54.9333755,138.455 L100.526376,138.423 C101.564375,138.486 103.871375,138.509 105.589375,138.509 C106.628375,138.509 109.121375,138.5 110.360375,138.423 L183.951375,138.423 L184.227375,138.424 C184.229375,138.424 184.227375,138.424 184.228375,138.424 C206.615375,138.424 224.952375,120.208 225.105197,97.82 C225.176375,86.901 220.992375,76.608 213.323375,68.836 Z" id="Path" fill="#FFFFFF"></path>
                <path d="M213.323375,68.836 C205.653375,61.064 195.416375,56.744 184.497375,56.671 L184.222375,56.67 C180.729375,56.67 177.254375,57.128 173.846375,58.034 C168.447375,24.905 139.918375,0.23 105.923375,0.002 L105.454375,0 C81.3873755,0 58.8823755,12.67 46.3223755,33.178 C20.5443755,36.901 1.17737546,58.981 0.998856649,85.197 C0.908375464,99.342 6.32637546,112.676 16.2623755,122.745 C26.1973755,132.813 39.4603755,138.41 53.6773755,138.504 C54.1003755,138.504 54.5163755,138.481 54.9333755,138.455 L100.526376,138.423 C101.564375,138.486 103.871375,138.509 105.589375,138.509 C106.628375,138.509 109.121375,138.5 110.360375,138.423 L183.951375,138.423 L184.227375,138.424 C184.229375,138.424 184.227375,138.424 184.228375,138.424 C206.615375,138.424 224.952375,120.208 225.105197,97.82 C225.176375,86.901 220.992375,76.608 213.323375,68.836 Z M184.227375,131.895 L110.251375,131.894 L110.018375,131.902 C109.360375,131.949 107.621375,131.98 105.589375,131.98 C103.194375,131.98 101.401375,131.941 100.868375,131.902 L100.633375,131.894 L55.3713755,131.896 C55.0903755,131.904 54.8113755,131.921 54.5333755,131.938 C54.2503755,131.956 53.9663755,131.975 53.6503755,131.975 C53.6503755,131.975 53.6493755,131.975 53.6483755,131.975 C41.2483755,131.893 29.6223755,126.986 20.9113755,118.159 C12.2013755,109.332 7.44937546,97.641 7.52924837,85.241 C7.68837546,61.781 25.3793755,42.099 48.6833755,39.459 L50.3143755,39.274 L51.1393755,37.854 C62.3543755,18.534 83.1673755,6.532 105.456375,6.532 L105.881375,6.534 C137.884375,6.748 164.539375,30.879 167.882375,62.666 L168.322375,66.852 L172.267375,65.384 C176.159375,63.936 180.181375,63.202 184.223375,63.202 L184.455375,63.203 C193.630375,63.264 202.233375,66.894 208.677375,73.424 C215.120375,79.955 218.636375,88.603 218.576734,97.778 C218.446375,116.59 203.040375,131.895 184.227375,131.895 Z" id="Shape" fill="#4A555F"></path>
                <path d="M203.252375,78.773 C198.236375,73.691 191.543375,70.866 184.223375,70.818 C181.090375,70.818 177.961375,71.391 174.922375,72.522 L161.774375,77.413 L160.305375,63.46 C157.368375,35.536 133.949375,14.337 105.829375,14.15 L105.453375,14.148 C85.8713755,14.148 67.5833755,24.697 57.7283755,41.677 L54.9803755,46.411 L49.5413755,47.027 C30.0663755,49.234 15.2813755,65.683 15.1467154,85.291 C15.0793755,95.658 19.0513755,105.429 26.3333755,112.808 C33.6133755,120.187 43.3333755,124.288 53.6503755,124.357 L54.0563755,124.335 C54.4173755,124.313 54.7793755,124.292 55.1443755,124.281 L101.063375,124.283 L101.395375,124.303 C101.786375,124.327 103.389375,124.363 105.588375,124.363 C107.790375,124.363 109.142375,124.327 109.476375,124.304 L109.863375,124.276 C109.863375,124.276 184.227375,124.277 184.229375,124.277 C198.867375,124.277 210.857375,112.365 210.957118,97.726 C211.002375,90.586 208.266375,83.856 203.252375,78.773 Z" id="Path" fill="#666288"></path>
            </g>
            <g id="Database" transform="translate(526.000000, 5.000000)">
                <g id="Group" transform="translate(2.000000, 113.000000)">
                    <rect id="Rectangle" stroke="#979797" fill="#FFFFFF" x="25.9449541" y="2.59836066" width="7.28440367" height="16.8360656"></rect>
                    <rect id="Rectangle" stroke="#979797" fill="#FFFFFF" x="91.6284404" y="2.59836066" width="7.28440367" height="16.8360656"></rect>
                    <path d="M35.604,21.8764521 L23.22,21.8764521 L23.22,0.388405168 L35.604,0.388405168 L35.604,21.8764521 Z M27.6428571,17.9576593 L31.2548571,17.9576593 L31.2548571,4.17657149 L27.6428571,4.17657149 L27.6428571,17.9576593 Z" id="Shape" fill="#4A555F"></path>
                    <path d="M102.241714,21.8764521 L89.8577143,21.8764521 L89.8577143,0.388405168 L102.241714,0.388405168 L102.241714,21.8764521 Z M94.2068571,17.9576593 L97.8188571,17.9576593 L97.8188571,4.17657149 L94.2068571,4.17657149 L94.2068571,17.9576593 Z" id="Shape" fill="#4A555F"></path>
                    <polygon id="Path" fill="#4A555F" points="128.926286 24.9576593 0 24.9576593 0 17.9576593 128.852571 17.9576593 128.852571 24.9576593"></polygon>
                </g>
                <path d="M134.5,78.5 L0.5,78.5 L0.5,107.440407 C0.86357601,108.02372 2.55221096,109.135758 5.4655987,110.258686 C9.0356239,111.634706 14.0370468,112.906353 20.15629,113.98372 C32.891581,116.225923 49.6601851,117.5 67.5,117.5 C85.3398149,117.5 102.108419,116.225923 114.84371,113.98372 C120.962953,112.906353 125.964376,111.634706 129.534401,110.258686 C132.447789,109.135758 134.136424,108.02372 134.5,107.440407 L134.5,78.5 Z" id="Combined-Shape" stroke="#4A555F" stroke-width="7" fill="#FFD452"></path>
                <path d="M134.5,45.5 L0.5,45.5 L0.5,74.440407 C0.86357601,75.0237205 2.55221096,76.1357582 5.4655987,77.2586861 C9.0356239,78.6347064 14.0370468,79.9063525 20.15629,80.98372 C32.891581,83.2259234 49.6601851,84.5 67.5,84.5 C85.3398149,84.5 102.108419,83.2259234 114.84371,80.98372 C120.962953,79.9063525 125.964376,78.6347064 129.534401,77.2586861 C132.447789,76.1357582 134.136424,75.0237205 134.5,74.440407 L134.5,45.5 Z" id="Combined-Shape" stroke="#4A555F" stroke-width="7" fill="#FFD452"></path>
                <path d="M134.5,13.5 L0.5,13.5 L0.5,42.440407 C0.86357601,43.0237205 2.55221096,44.1357582 5.4655987,45.2586861 C9.0356239,46.6347064 14.0370468,47.9063525 20.15629,48.98372 C32.891581,51.2259234 49.6601851,52.5 67.5,52.5 C85.3398149,52.5 102.108419,51.2259234 114.84371,48.98372 C120.962953,47.9063525 125.964376,46.6347064 129.534401,45.2586861 C132.447789,44.1357582 134.136424,43.0237205 134.5,42.440407 L134.5,13.5 Z" id="Combined-Shape" stroke="#4A555F" stroke-width="7" fill="#FFD452"></path>
                <ellipse id="Oval" stroke="#4A555F" stroke-width="7" fill="#FFFFFF" cx="67.5" cy="10.5" rx="67" ry="10"></ellipse>
            </g>
            <g id="gear" transform="translate(281.000000, 0.000000)">
                <polygon id="Path" fill="#FFFFFF" points="96.2627052 162 65.7372948 162 57.3776388 138.060985 34.578577 149.080532 12.9194683 127.421423 23.9390149 104.622361 0 96.2627052 0 65.7372948 23.9390149 57.3776388 12.9194683 34.578577 34.578577 12.9194683 57.3776388 23.9390149 65.7372948 0 96.2627052 0 104.622361 23.9390149 127.421423 12.9194683 149.080532 34.578577 138.060985 57.3776388 162 65.7372948 162 96.2627052 138.060985 104.622361 149.080532 127.421423 127.421423 149.080532 104.622361 138.060985"></polygon>
                <path d="M81,109 C65.6126126,109 53,96.3873874 53,81 C53,65.6126126 65.6126126,53 81,53 C96.3873874,53 109,65.6126126 109,81 C109,96.3873874 96.5135135,109 81,109 Z M81,60.4414414 C69.6486486,60.4414414 60.4414414,69.6486486 60.4414414,81 C60.4414414,92.3513514 69.6486486,101.558559 81,101.558559 C92.3513514,101.558559 101.558559,92.3513514 101.558559,81 C101.558559,69.6486486 92.3513514,60.4414414 81,60.4414414 Z" id="Shape" fill="#4A555F"></path>
                <path d="M96.2627052,162 L65.7372948,162 L57.3776388,138.060985 L34.578577,149.080532 L12.9194683,127.421423 L23.9390149,104.622361 L0,96.2627052 L0,65.7372948 L23.9390149,57.3776388 L12.9194683,34.578577 L34.578577,12.9194683 L57.3776388,23.9390149 L65.7372948,0 L96.2627052,0 L104.622361,23.9390149 L127.421423,12.9194683 L149.080532,34.578577 L138.060985,57.3776388 L162,65.7372948 L162,96.2627052 L138.060985,104.622361 L149.080532,127.421423 L127.421423,149.080532 L104.622361,138.060985 L96.2627052,162 Z M71.0570758,154.526974 L90.9429242,154.526974 L100.315872,127.548084 L125.901486,139.960907 L139.960907,125.901486 L127.548084,100.315872 L154.526974,90.9429242 L154.526974,71.1837373 L127.548084,61.8107897 L139.960907,36.2251759 L125.901486,22.1657545 L100.315872,34.578577 L90.9429242,7.59968726 L71.0570758,7.59968726 L61.6841282,34.578577 L36.0985145,22.1657545 L22.039093,36.2251759 L34.4519156,61.8107897 L7.4730258,71.1837373 L7.4730258,91.0695856 L34.4519156,100.442533 L22.039093,126.028147 L36.0985145,140.087568 L61.6841282,127.674746 L71.0570758,154.526974 Z" id="Shape" fill="#4A555F"></path>
                <path d="M69.4647887,117.887324 C73.1408451,119.028169 76.943662,119.661972 81,119.661972 C85.056338,119.661972 88.8591549,119.028169 92.5352113,117.887324 L83.4084507,144 L78.4647887,144 L69.4647887,117.887324 Z M34.7323944,123.84507 L46.7746479,99 C50.4507042,105.971831 56.1549296,111.676056 63.1267606,115.225352 L38.2816901,127.267606 L34.7323944,123.84507 Z M99,115.225352 C105.971831,111.549296 111.676056,105.84507 115.352113,98.8732394 L127.394366,123.71831 L123.971831,127.140845 L99,115.225352 Z M117.887324,92.5352113 C119.028169,88.8591549 119.661972,85.056338 119.661972,81 C119.661972,76.943662 119.028169,73.1408451 117.887324,69.4647887 L144,78.5915493 L144,83.5352113 L117.887324,92.5352113 Z M18,83.4084507 L18,78.4647887 L44.1126761,69.3380282 C42.971831,73.0140845 42.3380282,76.8169014 42.3380282,80.8732394 C42.3380282,84.9295775 42.971831,88.7323944 44.1126761,92.4084507 L18,83.4084507 Z M115.225352,63.1267606 C111.549296,56.1549296 105.84507,50.4507042 98.8732394,46.7746479 L123.71831,34.7323944 L127.140845,38.1549296 L115.225352,63.1267606 Z M34.7323944,38.1549296 L38.1549296,34.7323944 L63,46.7746479 C56.028169,50.4507042 50.3239437,56.1549296 46.6478873,63.1267606 L34.7323944,38.1549296 Z M78.5915493,18 L83.5352113,18 L92.6619718,44.1126761 C88.9859155,42.971831 85.1830986,42.3380282 81.1267606,42.3380282 C77.0704225,42.3380282 73.2676056,42.971831 69.5915493,44.1126761 L78.5915493,18 Z" id="Shape" fill="#EC8D53"></path>
            </g>
        </g>
    </g>
</svg>