<?xml version="1.0" encoding="UTF-8"?>
<svg width="606px" height="459px" viewBox="0 0 606 459" version="1.1" xmlns="http://www.w3.org/2000/svg" xmlns:xlink="http://www.w3.org/1999/xlink">
    <!-- Generator: Sketch 58 (84663) - https://sketch.com -->
    <title>password-control</title>
    <desc>Created with Sketch.</desc>
    <g id="Page-1" stroke="none" stroke-width="1" fill="none" fill-rule="evenodd">
        <g id="main-page-copy" transform="translate(-354.000000, -2464.000000)" fill-rule="nonzero">
            <g id="password-control" transform="translate(358.500000, 2468.000000)">
                <g id="Browser-screen">
                    <path d="M117.177734,358 L20.3854218,358 C9.33972679,358 0.385421785,349.045695 0.385421785,338 L0.385421785,20 C0.385421785,8.954305 9.33972679,0 20.3854218,0 L577.203604,0 C588.249299,0 597.203604,8.954305 597.203604,20 L597.203604,338 C597.203604,349.045695 588.249299,358 577.203604,358 L466.037109,358" id="Path" stroke="#FFFFFF" stroke-width="8"></path>
                    <path d="M139.857003,42.3230948 L142.169533,36.7341795 C143.325799,34.0360826 143.903931,31.1452643 143.903931,28.0617248 C143.903931,24.0145794 142.747666,19.9674338 140.820557,16.498452 L137.351761,10.5240943 L564.468305,10.5240943 C584.124816,10.5240943 584.124816,19.3892701 584.124816,30.1816583 L584.124816,42.3230948 L139.857003,42.3230948 Z" id="Path" fill="#71CDE1"></path>
                    <path d="M28.0846846,42.3230948 L25.7721539,36.7341795 C24.6158886,34.0360826 24.0377559,31.1452643 24.0377559,28.0617248 C24.0377559,24.0145794 25.1940213,19.9674338 27.1211303,16.498452 L30.5899263,10.5240943 C16.4619141,10.5240943 12.4751024,11.6552307 12.4751024,30.1816583 L12.4751024,42.3230948 L28.0846846,42.3230948 Z" id="Path" fill="#71CDE1"></path>
                    <rect id="Rectangle" fill="#FFFFFF" x="0.71973792" y="48.8504252" width="596.818182" height="7.0891089"></rect>
                    <path d="M46.3922194,42.297904 C42.3452907,42.297904 38.4910728,40.7561342 35.6004096,37.865316 C32.7097461,34.9744978 31.168059,31.1200735 31.168059,27.072928 C31.168059,18.5931944 38.105651,11.6552307 46.5849303,11.6552307 C50.6318591,11.6552307 54.4860771,13.1970004 57.3767403,16.0878186 C60.2674038,18.978637 61.8090909,22.8330612 61.8090909,26.8802068 C61.8090909,35.3599402 54.8714987,42.297904 46.3922194,42.297904 Z M46.3922194,17.6295884 C41.1890254,17.6295884 37.1420967,21.8694552 37.1420967,26.8802068 C37.1420967,29.3855826 38.105651,31.6982371 39.8400492,33.432728 C41.5744472,35.1672189 43.8869779,36.1308251 46.3922194,36.1308251 C51.5954136,36.1308251 55.6423423,31.8909584 55.6423423,26.8802068 C55.6423423,24.374831 54.6787878,22.0621764 52.9443898,20.3276854 C51.2099918,18.5931944 48.8974611,17.6295884 46.3922194,17.6295884 Z" id="Shape" fill="#FFFFFF"></path>
                    <path d="M83.3927109,42.297904 C74.9134317,42.297904 67.9758395,35.3599402 67.9758395,26.8802068 C67.9758395,18.4004732 74.9134317,11.4625095 83.3927109,11.4625095 C91.8719902,11.4625095 98.8095823,18.4004732 98.8095823,26.8802068 C98.8095823,35.3599402 91.8719902,42.297904 83.3927109,42.297904 Z M83.3927109,17.6295884 C78.1895168,17.6295884 74.142588,21.8694552 74.142588,26.8802068 C74.142588,32.0836795 78.3822277,36.1308251 83.3927109,36.1308251 C88.595905,36.1308251 92.6428337,31.8909584 92.6428337,26.8802068 C92.8355446,21.8694552 88.595905,17.6295884 83.3927109,17.6295884 Z" id="Shape" fill="#FFFFFF"></path>
                    <path d="M120.393202,42.297904 L120.393202,42.297904 C116.346274,42.297904 112.492056,40.7561342 109.601392,37.865316 C106.710729,34.9744978 105.169042,31.1200735 105.169042,27.072928 C105.169042,18.5931944 112.106634,11.6552307 120.585913,11.6552307 C124.632842,11.6552307 128.48706,13.1970004 131.377723,16.0878186 C134.268387,18.978637 135.810074,22.8330612 135.810074,26.8802068 C135.810074,35.3599402 128.872482,42.297904 120.393202,42.297904 Z M120.393202,17.6295884 C115.190008,17.6295884 111.143079,21.8694552 111.143079,26.8802068 C111.143079,29.3855826 112.106634,31.6982371 113.841032,33.432728 C115.57543,35.1672189 117.887961,36.1308251 120.393202,36.1308251 C125.596396,36.1308251 129.643325,31.8909584 129.643325,26.8802068 C129.643325,24.374831 128.679771,22.0621764 126.945373,20.3276854 C125.210975,18.5931944 122.898444,17.6295884 120.393202,17.6295884 Z" id="Shape" fill="#FFFFFF"></path>
                </g>
                <g id="EQUALIZER" transform="translate(41.000000, 122.000000)" fill="#FFFFFF">
                    <path d="M12.9630074,0 C5.81469171,0 0,6.14282266 0,13.6945276 L0,54.9888816 C0,62.5405865 5.81469171,68.6842106 12.9630074,68.6842106 C20.1113232,68.6842106 25.9267734,62.5397851 25.9267734,54.9888816 L25.9267734,13.6945276 C25.9267734,6.14282266 20.1113232,0 12.9630074,0 Z M20.3889718,54.9888816 C20.3889718,59.3141019 17.0571877,62.8339032 12.9630074,62.8339032 C8.86882724,62.8339032 5.53856024,59.3141019 5.53856024,54.9888816 L5.53856024,13.6945276 C5.53856024,9.36930721 8.86958585,5.85030731 12.9630074,5.85030731 C17.056429,5.85030731 20.3889718,9.36930721 20.3889718,13.6945276 L20.3889718,54.9888816 Z" id="Shape"></path>
                    <path d="M345.297103,0 C338.148789,0 332.334097,6.14282266 332.334097,13.6945276 L332.334097,54.9888816 C332.334097,62.5405865 338.148789,68.6842106 345.297103,68.6842106 C352.445419,68.6842106 358.260869,62.5397851 358.260869,54.9888816 L358.260869,13.6945276 C358.260869,6.14282266 352.445419,0 345.297103,0 Z M352.723068,54.9888816 C352.723068,59.3141019 349.391283,62.8339032 345.297103,62.8339032 C341.202923,62.8339032 337.872656,59.3141019 337.872656,54.9888816 L337.872656,13.6945276 C337.872656,9.36930721 341.203681,5.85030731 345.297103,5.85030731 C349.390525,5.85030731 352.723068,9.36930721 352.723068,13.6945276 L352.723068,54.9888816 Z" id="Shape-Copy-2"></path>
                    <path d="M16.3160326,23.6842106 L9.61074093,23.6842106 C4.31114064,23.6842106 0,28.441009 0,34.2884477 L0,35.5799733 C0,41.4274121 4.31114064,46.1842106 9.61074093,46.1842106 L16.3160326,46.1842106 C21.6156328,46.1842106 25.9267734,41.4274121 25.9267734,35.5799733 L25.9267734,34.2884477 C25.9260149,28.441846 21.6148743,23.6842106 16.3160326,23.6842106 Z M20.3882132,35.5808104 C20.3882132,38.0583967 18.5607388,40.0739468 16.3160326,40.0739468 L9.61074093,40.0739468 C7.36527617,40.0739468 5.53856024,38.0575598 5.53856024,35.5808104 L5.53856024,34.2892848 C5.53856024,31.8116984 7.36603476,29.7961484 9.61074093,29.7961484 L16.3160326,29.7961484 C18.5614973,29.7961484 20.3882132,31.8116984 20.3882132,34.2892848 L20.3882132,35.5808104 Z" id="Shape"></path>
                    <path d="M348.650128,23.6842106 L341.944838,23.6842106 C336.645237,23.6842106 332.334097,28.441009 332.334097,34.2884477 L332.334097,35.5799733 C332.334097,41.4274121 336.645237,46.1842106 341.944838,46.1842106 L348.650128,46.1842106 C353.949729,46.1842106 358.260869,41.4274121 358.260869,35.5799733 L358.260869,34.2884477 C358.260111,28.441846 353.948971,23.6842106 348.650128,23.6842106 Z M352.722309,35.5808104 C352.722309,38.0583967 350.894835,40.0739468 348.650128,40.0739468 L341.944838,40.0739468 C339.699373,40.0739468 337.872656,38.0575598 337.872656,35.5808104 L337.872656,34.2892848 C337.872656,31.8116984 339.700131,29.7961484 341.944838,29.7961484 L348.650128,29.7961484 C350.895593,29.7961484 352.722309,31.8116984 352.722309,34.2892848 L352.722309,35.5808104 Z" id="Shape-Copy-3"></path>
                    <path d="M87.2078586,60.3947369 C80.0595429,60.3947369 74.2448513,66.5382893 74.2448513,74.0899061 L74.2448513,115.38458 C74.2448513,122.936196 80.0595429,129.078947 87.2078586,129.078947 C94.3561744,129.078947 100.171625,122.936196 100.171625,115.38458 L100.171625,74.0899061 C100.171625,66.5382893 94.3561744,60.3947369 87.2078586,60.3947369 Z M94.6338231,115.38458 C94.6338231,119.709749 91.3020389,123.227907 87.2078586,123.227907 C83.1136784,123.227907 79.7834115,119.709749 79.7834115,115.38458 L79.7834115,74.0899061 C79.7834115,69.7647361 83.1144371,66.2449758 87.2078586,66.2449758 C91.3020389,66.2449758 94.6338231,69.7647361 94.6338231,74.0899061 L94.6338231,115.38458 Z" id="Shape"></path>
                    <path d="M90.5608838,84.0789473 L83.8555922,84.0789473 C78.5559918,84.0789473 74.2448513,88.8357458 74.2448513,94.6831846 L74.2448513,95.9747102 C74.2448513,101.822149 78.5559918,106.578947 83.8555922,106.578947 L90.5608838,106.578947 C95.8604841,106.578947 100.171625,101.822149 100.171625,95.9747102 L100.171625,94.6831846 C100.171625,88.8365829 95.8604841,84.0789473 90.5608838,84.0789473 Z M94.6338231,95.9755471 C94.6338231,98.4531336 92.8063486,100.468684 90.5616424,100.468684 L83.8563509,100.468684 C81.610886,100.468684 79.78417,98.4531336 79.78417,95.9755471 L79.78417,94.6840216 C79.78417,92.2064352 81.6116447,90.1908852 83.8563509,90.1908852 L90.5616424,90.1908852 C92.8071071,90.1908852 94.6338231,92.2064352 94.6338231,94.6840216 L94.6338231,95.9755471 Z" id="Shape"></path>
                    <path d="M164.988938,23.6842106 C157.840622,23.6842106 152.025172,29.8278346 152.025172,37.3795394 L152.025172,78.6730921 C152.025172,86.2239955 157.840622,92.368421 164.988938,92.368421 C172.137253,92.368421 177.951944,86.2239955 177.951944,78.6730921 L177.951944,37.3795394 C177.951944,29.8278346 172.136494,23.6842106 164.988938,23.6842106 Z M172.413385,78.6730921 C172.413385,82.9983124 169.082359,86.5181138 164.988938,86.5181138 C160.895516,86.5181138 157.562973,82.9983124 157.562973,78.6730921 L157.562973,37.3795394 C157.562973,33.0543191 160.894758,29.5345179 164.988938,29.5345179 C169.083118,29.5345179 172.413385,33.0543191 172.413385,37.3795394 L172.413385,78.6730921 Z" id="Shape"></path>
                    <path d="M168.341204,46.1842106 L161.635913,46.1842106 C156.336312,46.1842106 152.025172,50.9406552 152.025172,56.7876587 L152.025172,58.0807623 C152.025172,63.9277659 156.336312,68.6842106 161.635913,68.6842106 L168.341204,68.6842106 C173.640805,68.6842106 177.951944,63.9277659 177.951944,58.0807623 L177.951944,56.7876587 C177.951944,50.9406552 173.640047,46.1842106 168.341204,46.1842106 Z M172.413385,58.0799252 C172.413385,60.5573274 170.585911,62.5727275 168.341204,62.5727275 L161.635913,62.5727275 C159.390448,62.5727275 157.563732,60.5573274 157.563732,58.0799252 L157.563732,56.7868218 C157.563732,54.3094198 159.391206,52.2940197 161.635913,52.2940197 L168.341204,52.2940197 C170.586669,52.2940197 172.413385,54.3094198 172.413385,56.7868218 L172.413385,58.0799252 Z" id="Shape"></path>
                    <path d="M252.197175,0 C245.048859,0 239.233409,6.14282266 239.233409,13.6945276 L239.233409,54.9888816 C239.233409,62.5405865 245.048859,68.6842106 252.197175,68.6842106 C259.345491,68.6842106 265.160183,62.5397851 265.160183,54.9888816 L265.160183,13.6945276 C265.160183,6.14282266 259.345491,0 252.197175,0 Z M259.622382,54.9888816 C259.622382,59.3141019 256.291355,62.8339032 252.197934,62.8339032 C248.103753,62.8339032 244.771971,59.3141019 244.771971,54.9888816 L244.771971,13.6945276 C244.771971,9.36930721 248.103753,5.85030731 252.197934,5.85030731 C256.292115,5.85030731 259.622382,9.36930721 259.622382,13.6945276 L259.622382,54.9888816 Z" id="Shape"></path>
                    <path d="M255.549442,23.6842106 L248.84415,23.6842106 C243.544551,23.6842106 239.233409,28.441009 239.233409,34.2884477 L239.233409,35.5799733 C239.233409,41.4274121 243.544551,46.1842106 248.84415,46.1842106 L255.549442,46.1842106 C260.849042,46.1842106 265.160183,41.4274121 265.160183,35.5799733 L265.160183,34.2884477 C265.160183,28.441009 260.849042,23.6842106 255.549442,23.6842106 Z M259.622382,35.5799733 C259.622382,38.0575598 257.794907,40.0731098 255.5502,40.0731098 L248.844908,40.0731098 C246.599445,40.0731098 244.772729,38.0567227 244.772729,35.5799733 L244.772729,34.2884477 C244.772729,31.8108613 246.600203,29.7953113 248.844908,29.7953113 L255.5502,29.7953113 C257.795666,29.7953113 259.622382,31.8108613 259.622382,34.2884477 L259.622382,35.5799733 Z" id="Shape"></path>
                    <path d="M502.036992,47.368421 C494.888676,47.368421 489.073226,53.5128466 489.073226,61.06375 L489.073226,102.357303 C489.073226,109.909008 494.888676,116.052632 502.036992,116.052632 C509.185308,116.052632 515,109.909008 515,102.357303 L515,61.06375 C515,53.5120452 509.185308,47.368421 502.036992,47.368421 Z M509.46144,102.357303 C509.46144,106.682523 506.130414,110.202324 502.036992,110.202324 C497.942812,110.202324 494.611028,106.682523 494.611028,102.357303 L494.611028,61.06375 C494.611028,56.7385297 497.942812,53.2187283 502.036992,53.2187283 C506.131172,53.2187283 509.46144,56.7385297 509.46144,61.06375 L509.46144,102.357303 Z" id="Shape"></path>
                    <path d="M505.390017,71.0526316 L498.683967,71.0526316 C493.384368,71.0526316 489.073226,75.8090762 489.073226,81.6560799 L489.073226,82.9491834 C489.073226,88.79535 493.384368,93.5526316 498.683967,93.5526316 L505.390017,93.5526316 C510.688101,93.5526316 515,88.7961869 515,82.9491834 L515,81.6560799 C515,75.8090762 510.688859,71.0526316 505.390017,71.0526316 Z M509.46144,82.9491834 C509.46144,85.4265853 507.635483,87.4419854 505.390017,87.4419854 L498.683967,87.4419854 C496.438502,87.4419854 494.611787,85.4265853 494.611787,82.9491834 L494.611787,81.6560799 C494.611787,79.1786778 496.439262,77.1632777 498.683967,77.1632777 L505.390017,77.1632777 C507.635483,77.1632777 509.46144,79.1795147 509.46144,81.6560799 L509.46144,82.9491834 Z" id="Shape"></path>
                    <rect id="Rectangle" x="10.6064073" y="66.3157894" width="4.71395881" height="113.684211"></rect>
                    <rect id="Rectangle-Copy-6" x="342.940503" y="66.3157894" width="5" height="84"></rect>
                    <rect id="Rectangle" x="162.631578" y="88.8157894" width="5" height="55"></rect>
                    <rect id="Rectangle" x="249.839817" y="66.3157894" width="5" height="57"></rect>
                    <rect id="Rectangle" x="499.679634" y="113.684211" width="4.71395881" height="66.3157894"></rect>
                    <rect id="Rectangle" x="84.8512585" y="126.710526" width="4.71395881" height="53.2894737"></rect>
                    <rect id="Rectangle" x="84.8512585" y="3.55263158" width="4.71395881" height="56.8421052"></rect>
                    <rect id="Rectangle" x="162.631578" y="2.36842106" width="4.71395881" height="23.6842106"></rect>
                    <rect id="Rectangle" x="499.679634" y="3.55263158" width="4.71395881" height="47.368421"></rect>
                    <rect id="Rectangle" x="431.327232" y="3.55263158" width="4.71395881" height="56.8421052"></rect>
                    <rect id="Rectangle" x="431.327232" y="126.710526" width="4.71395881" height="53.2894737"></rect>
                    <path d="M437.036857,84.0789473 L430.331565,84.0789473 C425.031964,84.0789473 420.720824,88.8357458 420.720824,94.6831846 L420.720824,95.9747102 C420.720824,101.822149 425.031964,106.578947 430.331565,106.578947 L437.036857,106.578947 C442.336456,106.578947 446.647598,101.822149 446.647598,95.9747102 L446.647598,94.6831846 C446.647598,88.8365829 442.336456,84.0789473 437.036857,84.0789473 Z M441.109796,95.9755471 C441.109796,98.4531336 439.282321,100.468684 437.037615,100.468684 L430.332323,100.468684 C428.086858,100.468684 426.260143,98.4531336 426.260143,95.9755471 L426.260143,94.6840216 C426.260143,92.2064352 428.087618,90.1908852 430.332323,90.1908852 L437.037615,90.1908852 C439.28308,90.1908852 441.109796,92.2064352 441.109796,94.6840216 L441.109796,95.9755471 Z" id="Shape"></path>
                    <path d="M433.683832,60.3947369 C426.535516,60.3947369 420.720824,66.5382893 420.720824,74.0899061 L420.720824,115.38458 C420.720824,122.936196 426.535516,129.078947 433.683832,129.078947 C440.832146,129.078947 446.647598,122.936196 446.647598,115.38458 L446.647598,74.0899061 C446.647598,66.5382893 440.832146,60.3947369 433.683832,60.3947369 Z M441.109796,115.38458 C441.109796,119.709749 437.778012,123.227907 433.683832,123.227907 C429.589652,123.227907 426.259384,119.709749 426.259384,115.38458 L426.259384,74.0899061 C426.259384,69.7647361 429.59041,66.2449758 433.683832,66.2449758 C437.778012,66.2449758 441.109796,69.7647361 441.109796,74.0899061 L441.109796,115.38458 Z" id="Shape"></path>
                </g>
                <g id="Gauge" transform="translate(97.000000, 244.000000)">
                    <path d="M227.646574,188.932028 C300.351495,188.978084 366.407069,189.169289 384.162259,189.505327 L384.162259,189.505327 C381.997735,84.906364 297.010344,0.794117647 192.500485,0.794117647 C87.9895961,0.794117647 3.00091618,84.9079055 0.837688839,189.507862 C19.706289,189.150334 92.8099712,188.956321 170.558508,188.92545" id="Path" stroke="#FFFFFF" stroke-width="8"></path>
                    <path d="M93.9978845,39.126273 C47.1539237,69.5904537 15.4116185,121.603675 12.7850493,181.126273 L168.375958,181.126273 C170.28145,174.253157 167.494657,165.288535 173.243164,161.41333 L93.9978845,39.126273 Z" id="Path" fill="#B12727"></path>
                    <path d="M374.393756,179.497023 C371.893406,122.474567 341.959131,72.4810151 297.554583,42.4970226 L222.6521,159.510254 L228.950195,179.497023 L374.393756,179.497023 Z" id="Path" fill="#4DA341"></path>
                    <path d="M194.709621,9.33212776 C158.754502,9.33212776 125.220232,19.9542339 97.056133,38.2400648 L175.339111,157.608985 L177.449951,155.550049 C177.824949,155.293655 178.959689,153.469659 179.351318,153.230713 C179.743704,152.991008 192.482584,147.37085 192.499974,147.37085 C192.789538,147.285133 200.418388,146.552183 200.725342,146.483154 C200.759363,146.483154 207.219883,146.959229 207.253906,146.959229 L221.713951,152.297044 L295.056133,40.0363333 C266.347683,20.6559013 231.824509,9.33212776 194.709621,9.33212776 Z" id="Path" fill="#FFD452"></path>
                    <g id="Pointer" transform="translate(246.768656, 160.907477) rotate(-18.000000) translate(-246.768656, -160.907477) translate(165.268656, 129.907477)" stroke="#FFFFFF" stroke-width="6">
                        <path d="M60.1475176,39.289871 C57.204188,49.9997245 49.8554805,57.1719224 38.1013952,60.8064647 C46.8115684,59.5899562 88.1800277,49.7563364 162.206773,31.3056055 C143.876068,26.9034187 129.176583,23.4116049 118.108316,20.8301641 C115.57139,20.2384791 112.995535,19.6391407 110.38084,19.0321305 C94.1986514,15.2753818 71.6656959,9.95589953 42.7819734,3.07368383 L54.3220977,7.40961091" id="Path" fill="#71CDE1" stroke-linejoin="bevel"></path>
                        <ellipse id="Oval" cx="31.0035597" cy="31.1993989" rx="30.2081051" ry="30.4052813"></ellipse>
                    </g>
                    <path d="M203.199053,175.978794 C205.810752,174.385077 207.580416,171.489135 207.580416,168.142487 C207.580416,163.093604 203.595396,159 198.680436,159 C193.764706,159 189.780458,163.093604 189.780458,168.142487 C189.780458,171.367944 191.41441,174.188633 193.869576,175.816413 L188,194 L209,194 L203.199053,175.978794 Z" id="Path" fill="#FFFFFF"></path>
                </g>
                <g id="Password-bullets" transform="translate(147.000000, 76.000000)" fill="#FFFFFF" stroke="#FFFFFF">
                    <ellipse id="Oval" cx="12" cy="11.5" rx="12" ry="11.5"></ellipse>
                    <ellipse id="Oval-Copy" cx="49" cy="11.5" rx="12" ry="11.5"></ellipse>
                    <ellipse id="Oval-Copy-2" cx="86" cy="11.5" rx="12" ry="11.5"></ellipse>
                    <ellipse id="Oval-Copy-3" cx="125" cy="11.5" rx="12" ry="11.5"></ellipse>
                    <ellipse id="Oval-Copy-4" cx="164" cy="11.5" rx="12" ry="11.5"></ellipse>
                    <ellipse id="Oval-Copy-5" cx="203" cy="11.5" rx="12" ry="11.5"></ellipse>
                    <ellipse id="Oval-Copy-6" cx="240" cy="11.5" rx="12" ry="11.5"></ellipse>
                    <ellipse id="Oval-Copy-7" cx="277" cy="11.5" rx="12" ry="11.5"></ellipse>
                </g>
            </g>
        </g>
    </g>
</svg>