<?xml version="1.0" encoding="UTF-8"?>
<svg width="413px" height="527px" viewBox="0 0 413 527" version="1.1" xmlns="http://www.w3.org/2000/svg" xmlns:xlink="http://www.w3.org/1999/xlink">
    <!-- Generator: Sketch 59.1 (86144) - https://sketch.com -->
    <title>mf-security-compliance</title>
    <desc>Created with Sketch.</desc>
    <g id="Page-1" stroke="none" stroke-width="1" fill="none" fill-rule="evenodd">
        <g id="mf-security-compliance" transform="translate(3.000000, 4.000000)" fill-rule="nonzero">
            <path d="M384.072008,74.1718131 L407,74.1718131 L407,337.474731 L406.958923,337.720399 L406.76631,338.867415 C406.682109,339.454915 406.586738,340.060395 406.420411,340.993051 C406.162162,342.441151 405.832221,344.082698 405.420657,345.910126 C404.278986,350.97937 402.708733,356.616334 400.638773,362.715522 C394.814959,379.875532 386.163829,397.520464 374.130299,414.746038 C359.644642,435.562275 340.590832,455.017484 316.474234,471.865481 C286.935206,492.501619 251.166577,508.238796 208.636458,517.912402 L203.5,519.076018 L202.837174,518.925861 L198.361004,517.911825 C155.833423,508.238796 120.064794,492.501619 90.5257662,471.865481 C66.4091675,455.017484 47.3553575,435.562274 32.8728203,414.750513 C20.8361706,397.520464 12.185041,379.875532 6.36122702,362.715522 C4.29126684,356.616334 2.72101342,350.97937 1.57934325,345.910126 C1.16777883,344.082697 0.83783816,342.44115 0.57958862,340.99305 C0.41326135,340.060392 0.31788765,339.454894 0.24442384,338.936552 L0,337.474732 L0,74.1718131 L22.9279918,74.1718131 C57.3663192,74.1718131 95.9669961,62.3073784 135.639435,42.488074 C149.610759,35.5083686 162.735684,28.0137927 174.627879,20.5067161 C178.818504,17.8613384 182.563702,15.3969196 185.806023,13.1825647 C187.798863,11.8215475 189.491769,10.6253367 189.922926,10.3030679 L203.5,0.26972116 L205.282957,1.58731173 L217.090401,10.3129735 C217.508231,10.6253367 219.201137,11.8215474 221.193977,13.1825647 C224.436298,15.3969196 228.181496,17.8613384 232.372121,20.5067161 C244.264316,28.0137927 257.389241,35.5083686 271.360566,42.488074 C311.033004,62.3073784 349.633681,74.1718131 384.072008,74.1718131 Z" id="Shape-path" stroke="#FFFFFF" stroke-width="6" fill="#FFFFFF"></path>
            <polygon id="Path-2" stroke="#FFFFFF" fill="#FFFFFF" points="17 95.6547287 17 349.466806 54.5929252 425.220929 172.278935 497.718513 216.090837 513 326.129088 453.191492 397 344.968431 397 92.3928898 318.806764 76.1969457 228.294711 36.1411197 205.022122 19 131.68072 68.0895362"></polygon>
            <path d="M384.072008,77.1718131 C304.156695,77.1718131 216.107504,13.3238321 215.294117,12.7157561 L203.5,4 L191.705883,12.7157561 C190.892496,13.3238321 102.843306,77.1718131 22.9279918,77.1718131 L3,77.1718131 L3,337.225653 L3.20334685,338.441805 C3.40669372,339.86065 8.28701826,374.318289 35.3321501,413.032462 C59.7337729,448.098179 108.130324,494.311956 199.026369,514.986541 L203.5,516 L207.973631,514.986541 C298.869676,494.311956 347.266226,448.098179 371.66785,413.032462 C398.712981,374.318289 403.593305,339.86065 403.796654,338.441805 L404,337.225653 L404,77.1718131 L384.072008,77.1718131 Z M375.53144,365.197149 C359.873733,403.911322 316.764199,470.191607 203.5,495.933492 C90.2358012,470.191607 47.3296146,403.708631 31.4685598,365.197149 C25.5715011,351.008709 22.7246451,335.80681 22.7246451,320.402217 L22.7246451,97.0356294 C110.570487,97.0356294 203.5,28.7284244 203.5,28.7284244 C203.5,28.7284244 296.429514,97.0356294 384.072008,97.0356294 L384.072008,320.199524 C384.072008,335.604117 381.225151,350.806018 375.53144,365.197149 Z" id="Shape" fill="#666288"></path>
            <path d="M211.961654,485 L210.544039,479.319407 C212.366687,478.913648 214.391851,478.305013 216.214501,477.899257 L217.834631,483.579852 C215.809467,483.985608 213.784302,484.594244 211.961654,485 Z M202.240863,484.594244 C200.215698,484.188487 198.39305,483.579852 196.367885,483.174094 L197.785499,477.493501 C199.608149,477.899257 201.633313,478.507892 203.455961,478.913648 L202.240863,484.594244 Z M224.922708,481.551067 L223.302577,475.870474 C225.125225,475.261838 227.150389,474.653203 228.973038,474.247447 L230.795686,479.92804 C228.770521,480.536675 226.745357,480.942434 224.922708,481.551067 Z M188.672259,481.34819 C186.647094,480.739554 184.824446,480.130919 183.001798,479.522284 L184.824446,473.84169 C186.647094,474.450326 188.469742,475.058959 190.494907,475.667595 L188.672259,481.34819 Z M236.466148,477.899257 L234.6435,472.218663 C236.466148,471.610028 238.288796,471.001393 240.111444,470.18988 L242.136609,475.870474 C240.31396,476.681986 238.288796,477.290622 236.466148,477.899257 Z M176.116237,477.493501 C174.293589,476.884865 172.268424,476.073353 170.445776,475.464717 L172.470941,469.987001 C174.293589,470.595636 176.116237,471.407149 177.938886,472.015784 L176.116237,477.493501 Z M248.212104,473.638811 L245.984421,468.161095 C247.807071,467.349583 249.629719,466.740947 251.452367,465.929433 L253.680048,471.407149 C251.8574,472.218663 250.034752,472.827299 248.212104,473.638811 Z M163.560216,472.827299 C161.737567,472.015784 159.914919,471.204272 158.092271,470.392757 L160.522469,464.915041 C162.345117,465.726556 164.167765,466.538068 165.990414,467.146703 L163.560216,472.827299 Z M259.350509,468.76973 L256.920311,463.292014 C258.742961,462.480502 260.565609,461.668987 262.185739,460.857475 L264.615938,466.335191 C262.995805,467.146703 261.173157,467.958218 259.350509,468.76973 Z M152.016777,467.755339 C150.194128,466.943826 148.37148,466.132312 146.548832,465.11792 L149.181546,459.843083 C151.004194,460.654596 152.624326,461.46611 154.446974,462.277623 L152.016777,467.755339 Z M270.286399,463.697772 L267.653685,458.422933 C269.476333,457.611421 271.096465,456.597029 272.919113,455.785515 L275.754343,461.060352 C273.931695,461.871866 272.109047,462.683379 270.286399,463.697772 Z M140.473337,462.277623 C138.650689,461.263231 136.828041,460.451718 135.207909,459.437325 L138.04314,454.162488 C139.663271,455.176879 141.48592,455.988394 143.308568,457.002785 L140.473337,462.277623 Z M281.019772,458.017177 L278.184542,452.74234 C279.804674,451.727948 281.627322,450.713557 283.247453,449.902042 L286.2852,454.974002 C284.462552,455.988394 282.842422,457.002785 281.019772,458.017177 Z M129.537448,455.988394 C127.714799,454.974002 126.094667,453.959611 124.474536,452.945219 L127.714799,447.873259 C129.334931,448.887651 130.955063,449.902042 132.777711,450.916434 L129.537448,455.988394 Z M291.348113,451.727948 L288.10785,446.655988 C289.72798,445.641597 291.348113,444.627205 292.968245,443.409935 L296.208508,448.279015 C294.790893,449.699165 293.170761,450.713557 291.348113,451.727948 Z M118.601558,449.496286 C116.981426,448.279015 115.361294,447.264624 113.538646,446.047353 L116.981426,441.178272 C118.601558,442.395543 120.22169,443.409935 121.841821,444.424326 L118.601558,449.496286 Z M301.473936,445.032961 L298.031156,440.163881 C299.651288,438.946612 301.271421,437.932218 302.689036,436.714949 L306.334332,441.381151 C304.714199,442.801299 303.094069,444.01857 301.473936,445.032961 Z M108.880767,442.598422 C107.260635,441.381151 105.640503,440.163881 104.020371,438.946612 L107.665668,434.280408 C109.2858,435.497679 110.703415,436.714949 112.323547,437.932218 L108.880767,442.598422 Z M310.992211,437.729341 L307.346914,433.063139 C308.967046,431.845869 310.384661,430.628598 311.802278,429.411327 L315.650089,433.874652 C314.232474,435.2948 312.612342,436.51207 310.992211,437.729341 Z M98.5524266,434.280408 C96.9322947,433.063139 95.5146795,431.64299 94.0970642,430.222842 L98.1473936,425.759517 C99.5650089,426.976788 100.982624,428.396936 102.602756,429.614206 L98.5524266,434.280408 Z M320.307969,430.019963 L316.25764,425.556638 C317.675255,424.339369 319.09287,422.919219 320.510485,421.499072 L324.560815,425.759517 C323.143199,427.179665 321.725584,428.599815 320.307969,430.019963 Z M89.4391851,426.165273 C88.0215698,424.745125 86.6039545,423.324978 85.1863391,421.904828 L89.4391851,417.644382 C90.8568005,419.064532 92.2744158,420.48468 93.6920311,421.701951 L89.4391851,426.165273 Z M329.016178,421.499072 L324.763331,417.238626 C326.180946,415.818478 327.396045,414.398328 328.81366,412.97818 L333.269024,417.035747 C331.648892,418.658774 330.433793,420.078924 329.016178,421.499072 Z M80.933493,417.441505 C79.5158778,416.021355 78.3007789,414.398328 76.8831636,412.97818 L81.3385261,409.123491 C82.5536249,410.543639 83.9712403,411.963789 85.1863391,413.586816 L80.933493,417.441505 Z M337.116836,412.572424 L332.661474,408.717735 C333.876573,407.297585 335.091672,405.674558 336.509287,404.25441 L341.167167,407.906221 C339.74955,409.529247 338.331935,411.152274 337.116836,412.572424 Z M73.0353505,408.311977 C71.8202516,406.688952 70.6051528,405.065925 69.3900539,403.645775 L74.0479328,399.993965 C75.2630318,401.616992 76.4781307,403.03714 77.6932294,404.660167 L73.0353505,408.311977 Z M344.609945,403.240019 L339.952068,399.588209 C341.167167,397.965182 342.382264,396.545032 343.394848,394.922005 L348.255243,398.370938 C347.040144,399.993965 345.825045,401.616992 344.609945,403.240019 Z M65.7447574,398.573817 L65.1372079,397.762303 C64.1246255,396.342155 63.1120432,394.922005 62.3019772,393.501857 L67.3648892,390.255803 C68.174955,391.675951 69.1875374,393.096101 70.2001199,394.313371 L70.6051528,394.922005 L65.7447574,398.573817 Z M351.698024,393.298978 L346.635111,390.052924 C347.647693,388.429897 348.862792,386.80687 349.875374,385.183843 L354.938286,388.22702 C353.925705,389.850047 352.710605,391.675951 351.698024,393.298978 Z M59.0617135,388.632776 C58.0491312,386.80687 57.0365488,385.183843 56.0239664,383.357939 L61.2893948,380.314764 C62.3019772,381.937791 63.3145595,383.560816 64.3271421,385.386722 L59.0617135,388.632776 Z M357.976034,382.952183 L352.710605,380.111885 C353.723187,378.285979 354.533253,376.662952 355.545835,375.039925 L360.811264,377.880223 C360.001199,379.50325 358.988616,381.126277 357.976034,382.952183 Z M53.1887357,378.083102 C52.1761533,376.257196 51.3660875,374.43129 50.5560215,372.605386 L55.8214501,369.967967 C56.6315159,371.590994 57.4415817,373.416898 58.4541642,375.242804 L53.1887357,378.083102 Z M363.646495,372.199629 L358.178549,369.562209 C358.988616,367.736305 359.798682,365.910399 360.608748,364.287372 L366.076692,366.721913 C365.266628,368.547817 364.456561,370.373723 363.646495,372.199629 Z M47.9233073,367.127669 C47.1132415,365.098886 46.3031755,363.27298 45.4931097,361.447076 L50.9610546,359.215414 C51.568604,361.041318 52.3786699,362.664345 53.1887357,364.69313 L47.9233073,367.127669 Z M368.506891,361.041318 L363.038945,358.809656 C363.849011,356.983751 364.456561,355.157845 365.06411,353.331941 L370.734572,355.360724 C369.924505,357.186629 369.316957,359.215414 368.506891,361.041318 Z M43.2654284,355.766481 C42.4553626,353.737697 41.8478131,351.708914 41.2402636,350.085887 L46.9107249,348.259981 C47.5182744,349.883008 48.1258239,351.911791 48.7333733,353.737697 L43.2654284,355.766481 Z M372.55722,349.680129 L366.886758,347.854225 C367.494309,345.825442 368.101857,343.796657 368.506891,342.17363 L374.177352,343.593779 C373.772319,345.622563 373.16477,347.651346 372.55722,349.680129 Z M39.8226484,344.202415 C39.2150989,342.17363 38.8100658,340.144847 38.4050329,338.318942 L44.2780107,337.101672 C44.6830437,338.927576 45.0880767,340.753482 45.6956262,342.782265 L39.8226484,344.202415 Z M375.594967,337.710307 L369.72199,336.493036 C369.72199,336.08728 369.924505,335.478645 369.924505,335.275766 L369.924505,331.218199 L375.797484,331.218199 L375.797484,336.08728 C375.797484,336.493036 375.797484,337.101672 375.594967,337.710307 Z M43.8729778,331.623955 L38,331.623955 L38,325.740483 L43.8729778,325.740483 L43.8729778,331.623955 Z M376,325.334727 L370.127023,325.334727 L370.127023,319.451254 L376,319.451254 L376,325.334727 Z M43.8729778,319.85701 L38,319.85701 L38,313.973538 L43.8729778,313.973538 L43.8729778,319.85701 Z M376,313.364903 L370.127023,313.364903 L370.127023,307.48143 L376,307.48143 L376,313.364903 Z M43.8729778,307.887186 L38,307.887186 L38,302.003714 L43.8729778,302.003714 L43.8729778,307.887186 Z M376,301.395079 L370.127023,301.395079 L370.127023,295.511606 L376,295.511606 L376,301.395079 Z M43.8729778,295.917362 L38,295.917362 L38,290.03389 L43.8729778,290.03389 L43.8729778,295.917362 Z M376,289.628134 L370.127023,289.628134 L370.127023,283.744661 L376,283.744661 L376,289.628134 Z M43.8729778,283.94754 L38,283.94754 L38,278.064068 L43.8729778,278.064068 L43.8729778,283.94754 Z M376,277.65831 L370.127023,277.65831 L370.127023,271.774837 L376,271.774837 L376,277.65831 Z M43.8729778,271.977716 L38,271.977716 L38,266.094244 L43.8729778,266.094244 L43.8729778,271.977716 Z M376,265.688487 L370.127023,265.688487 L370.127023,259.805013 L376,259.805013 L376,265.688487 Z M43.8729778,260.210771 L38,260.210771 L38,254.327299 L43.8729778,254.327299 L43.8729778,260.210771 Z M376,253.718663 L370.127023,253.718663 L370.127023,247.835191 L376,247.835191 L376,253.718663 Z M43.8729778,248.240947 L38,248.240947 L38,242.357475 L43.8729778,242.357475 L43.8729778,248.240947 Z M376,241.748839 L370.127023,241.748839 L370.127023,235.865367 L376,235.865367 L376,241.748839 Z M43.8729778,236.271123 L38,236.271123 L38,230.387651 L43.8729778,230.387651 L43.8729778,236.271123 Z M376,229.981894 L370.127023,229.981894 L370.127023,224.098422 L376,224.098422 L376,229.981894 Z M43.8729778,224.301299 L38,224.301299 L38,218.417827 L43.8729778,218.417827 L43.8729778,224.301299 Z M376,218.01207 L370.127023,218.01207 L370.127023,212.128598 L376,212.128598 L376,218.01207 Z M43.8729778,212.331477 L38,212.331477 L38,206.448004 L43.8729778,206.448004 L43.8729778,212.331477 Z M376,206.042246 L370.127023,206.042246 L370.127023,200.158774 L376,200.158774 L376,206.042246 Z M43.8729778,200.564532 L38,200.564532 L38,194.681058 L43.8729778,194.681058 L43.8729778,200.564532 Z M376,194.072424 L370.127023,194.072424 L370.127023,188.188952 L376,188.188952 L376,194.072424 Z M43.8729778,188.594708 L38,188.594708 L38,182.711235 L43.8729778,182.711235 L43.8729778,188.594708 Z M376,182.1026 L370.127023,182.1026 L370.127023,176.219127 L376,176.219127 L376,182.1026 Z M43.8729778,176.624884 L38,176.624884 L38,170.741411 L43.8729778,170.741411 L43.8729778,176.624884 Z M376,170.94429 L370.127023,170.94429 L370.127023,165.060817 L376,165.060817 L376,170.94429 Z M43.8729778,164.65506 L38,164.65506 L38,158.771588 L43.8729778,158.771588 L43.8729778,164.65506 Z M376,159.78598 L370.127023,159.78598 L370.127023,153.902507 L376,153.902507 L376,159.78598 Z M43.8729778,152.685237 L38,152.685237 L38,146.801764 L43.8729778,146.801764 L43.8729778,152.685237 Z M376,148.424791 L370.127023,148.424791 L370.127023,142.541318 L376,142.541318 L376,148.424791 Z M43.8729778,140.918291 L38,140.918291 L38,135.034819 L43.8729778,135.034819 L43.8729778,140.918291 Z M376,137.266481 L370.127023,137.266481 L370.127023,131.383008 L376,131.383008 L376,137.266481 Z M43.8729778,128.948468 L38,128.948468 L38,123.064995 L43.8729778,123.064995 L43.8729778,128.948468 Z M376,126.108171 L370.127023,126.108171 L370.127023,120.224698 L376,120.224698 L376,126.108171 Z M43.8729778,115.964253 L38,115.964253 L38,109.269267 L43.8729778,109.066388 L43.8729778,115.964253 Z M375.797484,114.949861 C373.772319,114.949861 371.747153,114.949861 369.72199,114.746982 L369.924505,108.86351 C371.949671,108.86351 373.772319,109.066388 375.797484,109.066388 L375.797484,114.949861 Z M49.1384062,114.746982 L48.5308568,108.86351 C50.5560215,108.660631 52.3786699,108.457753 54.4038346,108.254875 L55.0113841,114.138347 C53.1887357,114.341226 51.163571,114.544104 49.1384062,114.746982 Z M362.22888,114.341226 C360.203715,114.138347 358.178549,113.732591 356.153386,113.529712 L356.963452,107.64624 C358.988616,107.849118 360.811264,108.254875 362.836429,108.457753 L362.22888,114.341226 Z M60.2768124,113.326834 L59.4667466,107.443361 C61.2893948,107.240483 63.3145595,106.834726 65.3397245,106.428969 L66.3523068,112.312442 C64.1246255,112.718199 62.3019772,112.921077 60.2768124,113.326834 Z M349.672858,112.718199 C347.647693,112.312442 345.622529,111.906685 343.799881,111.500928 L345.014978,105.617456 C346.837626,106.023213 348.862792,106.428969 350.887957,106.631848 L349.672858,112.718199 Z M72.2252847,111.095172 L71.0101857,105.211699 C72.8328341,104.805942 74.8579988,104.400186 76.680647,103.994429 L77.8957459,109.877902 C76.0730976,110.283658 74.0479328,110.689415 72.2252847,111.095172 Z M337.724386,110.486537 C335.699221,110.08078 333.876573,109.675023 331.851408,109.066388 L333.269024,103.182916 C335.091672,103.588672 337.116836,104.197307 338.939484,104.603064 L337.724386,110.486537 Z M83.9712403,108.457753 L82.5536249,102.57428 C84.3762732,102.168524 86.401438,101.559889 88.2240863,101.154132 L89.8442182,106.834726 C87.8190533,107.443361 85.7938885,108.051996 83.9712403,108.457753 Z M324.965849,107.443361 C322.940683,106.834726 321.118035,106.428969 319.09287,105.820334 L320.713002,100.13974 C322.53565,100.748375 324.560815,101.154132 326.383463,101.762767 L324.965849,107.443361 Z M95.5146795,105.414578 L93.8945476,99.5311048 C95.717196,98.9224699 97.7423607,98.3138347 99.5650089,97.7051996 L101.387657,103.385794 C99.3624926,104.197307 97.3373278,104.805942 95.5146795,105.414578 Z M313.017375,103.79155 C311.194727,103.182916 309.169563,102.57428 307.346914,101.965645 L309.169563,96.2850511 C310.992211,96.8936861 312.814859,97.5023212 314.840023,98.1109564 L313.017375,103.79155 Z M106.855602,101.762767 L105.032954,96.0821728 C106.855602,95.4735376 108.67825,94.8649025 110.703415,94.053389 L112.72858,99.7339833 C110.703415,100.342618 108.880767,101.154132 106.855602,101.762767 Z M300.866388,99.5311048 C299.043738,98.9224699 297.018574,98.1109564 295.195926,97.5023212 L297.22109,91.8217271 C299.043738,92.430362 300.866388,93.2418755 302.689036,93.8505107 L300.866388,99.5311048 Z M118.196525,97.7051996 L116.17136,92.0246054 C117.994008,91.4159702 119.816657,90.6044568 121.639305,89.7929433 L123.866986,95.4735376 C122.044338,96.2850511 120.22169,96.8936861 118.196525,97.7051996 Z M289.525465,95.4735376 C287.702817,94.6620241 285.880167,94.053389 284.057519,93.2418755 L286.2852,87.7641597 C288.10785,88.5756732 289.930498,89.1843083 291.753146,89.9958218 L289.525465,95.4735376 Z M129.334931,93.2418755 L127.10725,87.7641597 C128.929898,86.9526462 130.752546,86.1411327 132.575195,85.5324978 L135.005392,91.0102136 C133.182744,91.6188487 131.157579,92.430362 129.334931,93.2418755 Z M278.387058,90.8073353 C276.56441,89.9958218 274.741761,89.1843083 272.919113,88.3727948 L275.34931,82.895079 C277.17196,83.7065925 278.994608,84.5181058 280.817256,85.3296192 L278.387058,90.8073353 Z M141.080887,88.3727948 L138.650689,82.895079 C140.473337,82.0835655 142.295986,81.272052 144.118634,80.4605386 L146.548832,85.9382544 C144.726183,86.7497679 142.903535,87.5612814 141.080887,88.3727948 Z M267.451168,85.7353761 C265.62852,84.9238626 263.805872,84.1123491 261.983224,83.0979573 L264.615938,77.8231198 C266.438586,78.6346333 268.058718,79.4461468 269.881366,80.4605386 L267.451168,85.7353761 Z M152.421809,82.895079 L149.789095,77.6202415 C151.611744,76.808728 153.231875,75.7943362 155.054524,74.9828227 L157.687238,80.2576602 C155.86459,81.0691737 154.041941,82.0835655 152.421809,82.895079 Z M256.717795,80.6634169 C254.895147,79.8519034 253.072499,78.8375116 251.452367,78.0259981 L254.287597,72.7511606 C256.110247,73.5626741 257.730377,74.5770659 259.553025,75.3885794 L256.717795,80.6634169 Z M164.167765,76.808728 L161.332534,71.5338905 C163.155183,70.5194987 164.775315,69.7079852 166.597963,68.6935932 L169.433194,73.9684307 C167.610545,74.9828227 165.990414,75.9972145 164.167765,76.808728 Z M244.769324,74.5770659 C242.946674,73.5626741 241.124026,72.7511606 239.503895,71.7367688 L242.339125,66.4619313 C243.959257,67.4763231 245.781905,68.2878366 247.604553,69.3022284 L244.769324,74.5770659 Z M175.913721,70.3166202 L173.07849,65.0417827 C174.901138,64.0273909 176.52127,63.0129991 178.343918,62.2014856 L181.381666,67.4763231 C179.559017,68.2878366 177.736369,69.3022284 175.913721,70.3166202 Z M234.238467,68.2878366 C232.415817,67.2734448 230.795686,66.259053 228.973038,65.2446612 L232.010786,60.172702 C233.630916,61.1870938 235.453564,62.2014856 237.073697,63.2158774 L234.238467,68.2878366 Z M187.254643,63.6216342 L184.216897,58.549675 C186.039545,57.5352832 187.659676,56.5208914 189.279808,55.5064996 L192.317555,60.5784586 C190.697423,61.5928504 189.077292,62.6072424 187.254643,63.6216342 Z M224.112643,62.2014856 C222.289993,61.1870938 220.669863,59.9698237 219.04973,59.1583102 L222.289993,54.086351 C223.910126,55.1007428 225.530258,56.1151346 227.352906,57.1295264 L224.112643,62.2014856 Z M213.784302,56.3180129 C211.961654,55.1007428 210.341522,54.086351 208.721389,53.0719592 L211.961654,48 C213.379269,49.0143918 215.201917,50.0287836 216.822049,51.2460539 L213.784302,56.3180129 Z M198.798083,56.7237697 L195.557818,51.6518106 C197.380468,50.4345404 199.000599,49.4201486 200.418214,48.4057566 L203.860994,53.2748375 C202.443379,54.2892293 200.620731,55.5064996 198.798083,56.7237697 Z" id="Shape" fill="#343A40"></path>
            <path d="M281,418 L132,418 L132,117.284219 L133.703606,116.893679 C134.096746,116.763499 174.459103,107 206.434476,107 C238.540897,107 278.772208,116.893679 279.296393,116.893679 L281,117.284219 L281,418 Z M136.455585,413.57388 L276.544415,413.57388 L276.544415,120.799079 C268.550572,118.976559 234.347405,111.42612 206.565524,111.42612 C178.783641,111.42612 144.449428,118.976559 136.586631,120.799079 L136.586631,413.57388 L136.455585,413.57388 Z" id="Shape" fill="#343A40"></path>
            <path d="M205.413628,154.282421 C177.124498,154.282421 153.098113,147.149856 141.472443,143 L141.472443,195.352424 L269.225638,195.352424 L269.225638,143 C257.729141,147.149856 233.702758,154.282421 205.413628,154.282421 Z M135,244.92053 L141.472443,305.83253 C144.701796,337.028079 147.801975,376.291444 148.189497,413 L262.637759,413 C263.025281,376.291444 266.125459,337.028079 269.354812,305.83253 L277,244.92053 L135,244.92053 Z" id="Shape" fill="#E0E0E0"></path>
            <path d="M206.434476,151 C165.941073,151 133.572559,137.091988 133.310466,136.836795 L132,136.198813 L132,118.080119 L133.703606,117.697329 C134.096746,117.569733 174.459103,108 206.565524,108 C238.671944,108 278.903254,117.697329 279.296393,117.697329 L281,118.080119 L281,136.326409 L279.689534,136.964392 C279.165347,137.091988 246.796835,151 206.434476,151 Z M136.324538,133.519288 C142.745822,136.071217 171.445031,146.661721 206.30343,146.661721 C241.161829,146.661721 269.992085,136.071217 276.282323,133.519288 L276.282323,121.525223 C268.288478,119.738872 234.085312,112.338279 206.30343,112.338279 C178.521548,112.338279 144.187335,119.738872 136.324538,121.525223 L136.324538,133.519288 Z" id="Shape" fill="#4A555F"></path>
            <path d="M205.565217,142 C175.956522,142 150.782609,133.710526 141,130.026316 L141,125.421053 C153,122.789474 181.695651,117 205.565217,117 C229.434782,117 258.130434,122.789474 270,125.421053 L270,130.026316 C260.217391,133.710526 235.173913,142 205.565217,142 Z" id="Path" fill="#71CDE1"></path>
            <path d="M163,434 L132,434 L132,414 L163,414 L163,434 Z M136.18254,429.20548 L158.81746,429.20548 L158.81746,418.520547 L136.18254,418.520547 L136.18254,429.20548 Z" id="Shape" fill="#343A40"></path>
            <path d="M279,434 L248,434 L248,414 L279,414 L279,434 Z M252.182539,429.20548 L274.817461,429.20548 L274.817461,418.520547 L252.182539,418.520547 L252.182539,429.20548 Z" id="Shape" fill="#343A40"></path>
            <path d="M281,247 L132,247 L132,201 L281,201 L281,247 Z M136.455585,242.556818 L276.544415,242.556818 L276.544415,205.573863 L136.455585,205.573863 L136.455585,242.556818 Z" id="Shape" fill="#343A40"></path>
            <rect id="Rectangle" fill="#666288" x="141" y="211" width="129" height="27"></rect>
            <path d="M206.434476,151 C165.941073,151 133.572559,137.091988 133.310466,136.836795 L132,136.198813 L132,118.080119 L133.703606,117.697329 C134.096746,117.569733 174.459103,108 206.565524,108 C238.671944,108 278.903254,117.697329 279.296393,117.697329 L281,118.080119 L281,136.326409 L279.689534,136.964392 C279.165347,137.091988 246.796835,151 206.434476,151 Z M136.324538,133.519288 C142.745822,136.071217 171.445031,146.661721 206.30343,146.661721 C241.161829,146.661721 269.992085,136.071217 276.282323,133.519288 L276.282323,121.525223 C268.288478,119.738872 234.085312,112.338279 206.30343,112.338279 C178.521548,112.338279 144.187335,119.738872 136.324538,121.525223 L136.324538,133.519288 Z" id="Shape" fill="#343A40"></path>
            <path d="M205.565217,142 C175.956522,142 150.782609,133.710526 141,130.026316 L141,125.421053 C153,122.789474 181.695651,117 205.565217,117 C229.434782,117 258.130434,122.789474 270,125.421053 L270,130.026316 C260.217391,133.710526 235.173913,142 205.565217,142 Z" id="Path" fill="#666288"></path>
            <rect id="Rectangle" fill="#FFD452" x="155" y="164" width="103" height="17"></rect>
            <path d="M260,183 L152,183 L152,162 L260,162 L260,183 Z M156.478049,178.5375 L255.521951,178.5375 L255.521951,166.59375 L156.478049,166.59375 L156.478049,178.5375 L156.478049,178.5375 Z" id="Shape" fill="#343A40"></path>
            <path d="M151,416 L146.72028,416 C146.72028,339.636363 133.125874,247.558442 133,246.64935 L137.27972,246 C137.405594,246.90909 151,339.246754 151,416 Z" id="Path" stroke="#343A40" fill="#343A40"></path>
            <path d="M265.27972,416 L261,416 C261,339.246754 274.594406,246.90909 274.72028,246 L279,246.64935 C278.874126,247.558442 265.27972,339.636363 265.27972,416 Z" id="Path" stroke="#343A40" fill="#343A40"></path>
            <path d="M146.046512,408 C145.813954,378.49 143.72093,342.74 140,304.52 L143.953488,304 C147.674419,342.87 149.651163,377.84 150,407.87 L146.046512,408 Z" id="Path" stroke="#343A40" fill="#343A40"></path>
            <path d="M265.953488,408 L262,408 C262.232558,378.192741 264.325582,343.178973 268.046512,304 L272,304.520651 C268.27907,343.4393 266.302325,378.322904 265.953488,408 Z" id="Path" stroke="#343A40" fill="#343A40"></path>
            <g id="Lock" transform="translate(164.000000, 269.000000)">
                <ellipse id="Oval" fill="#EC8D53" cx="40.5978261" cy="81.7681159" rx="38.7934783" ry="38.6376812"></ellipse>
                <path d="M41.5,43.1304348 C18.6170898,43.1304348 0,61.2691226 0,83.5648689 C0,105.861312 18.6170898,124 41.5,124 C64.3829102,124 83,105.861312 83,83.5648689 C83,61.2698195 64.3821948,43.1304348 41.5,43.1304348 Z M41.5,119.291595 C21.2826016,119.291595 4.83311786,103.264893 4.83311786,83.5655658 C4.83311786,63.8669356 21.2826016,47.8402342 41.5,47.8402342 C61.7173984,47.8402342 78.1668822,63.8669356 78.1668822,83.5655658 C78.1668822,103.264893 61.7173984,119.291595 41.5,119.291595 Z" id="Shape" stroke="#343A40" fill="#343A40"></path>
                <polygon id="Path-6" fill="#FFFFFF" points="9.92391304 56.6086957 12.0175319 25.9236472 22.9631454 8.00936579 42.4021739 1.90222437 61.9381156 8.00936579 71.2717391 25.9236472 72.6443827 47.8402342 72.6443827 58.8004253 58.5540825 47.8402342 56.8704357 28.2104563 43.3043478 16.125651 30.2298742 21.3397022 22.9631454 34.9825738 22.9631454 49.9450703"></polygon>
                <path d="M41.4918305,0 C22.5931859,0 7.2173913,15.2346388 7.2173913,33.9601239 L7.2173913,61.0363439 L11.593426,62.3849841 C14.9337044,57.585598 19.4475557,53.6184712 24.6405449,50.9176734 C24.9808243,50.741091 25.3218139,50.5820962 25.6620934,50.4209911 L27.0288937,48.2759708 L27.0288937,33.9608274 C27.0288937,26.0540113 33.5162231,19.6224681 41.4904097,19.6224681 C49.4745418,19.6224681 55.9703959,26.0547147 55.9703959,33.9608274 L55.9703959,48.1549662 L57.2782334,50.2711423 L57.5957802,50.418177 C58.5441577,50.8508394 59.4975082,51.3672201 60.4174701,51.9490278 L61.3281968,52.5378707 C65.2062444,55.0029907 68.697837,58.3214757 71.4257547,62.1352358 L71.6644475,61.966392 L74.4563008,62.8985507 L75.1283347,60.9111181 L75.7826087,60.7612691 L75.7826087,33.961531 C75.7847398,15.2346388 60.4018413,0 41.4918305,0 Z M70.9853096,54.2340478 C68.8356536,52.0707361 66.4622231,50.1515445 63.9545279,48.5573773 L63.0089919,47.9474288 C62.2701809,47.4795907 61.5150307,47.0483354 60.7719573,46.6656227 L60.7719573,33.9601239 C60.7719573,23.4334142 52.1228952,14.8688105 41.4918305,14.8688105 C30.8707113,14.8688105 22.2308844,23.4334142 22.2308844,33.9601239 L22.2308844,46.8028084 C18.4530024,48.7923515 15.0004816,51.3714412 12.0175319,54.4106303 L12.0175319,33.9594205 C12.0175319,17.8545323 25.2401185,4.75295404 41.4918305,4.75295404 C57.7549087,4.75295404 70.9853096,17.8552359 70.9853096,33.9594205 L70.9853096,54.2340478 Z" id="Shape" stroke="#343A40" fill="#343A40"></path>
                <path d="M45.5374883,81.313167 C47.7814943,79.9220464 49.3020123,77.3942445 49.3020123,74.4730294 C49.3020123,70.0659702 45.8780313,66.4927536 41.6550332,66.4927536 C37.4313725,66.4927536 34.0080543,70.0659702 34.0080543,74.4730294 C34.0080543,77.2884585 35.4119659,79.7505761 37.5214773,81.1714276 L32.4782609,97.0434783 L50.5217391,97.0434783 L45.5374883,81.313167 Z" id="Path" fill="#FFFFFF"></path>
            </g>
        </g>
    </g>
</svg>