<?xml version="1.0" encoding="UTF-8"?>
<svg width="402px" height="512px" viewBox="0 0 402 512" version="1.1" xmlns="http://www.w3.org/2000/svg" xmlns:xlink="http://www.w3.org/1999/xlink">
    <!-- Generator: Sketch 58 (84663) - https://sketch.com -->
    <title>icon security - compliance</title>
    <desc>Created with Sketch.</desc>
    <g id="Page-1" stroke="none" stroke-width="1" fill="none" fill-rule="evenodd">
        <g id="main-page-copy" transform="translate(-457.000000, -1764.000000)" fill-rule="nonzero">
            <g id="icon-security---compliance" transform="translate(457.500000, 1764.000000)">
                <path d="M381.072008,73.1718131 C301.156695,73.1718131 213.107504,9.32383214 212.294117,8.71575613 L200.5,0 L188.705883,8.71575613 C187.892496,9.32383214 99.8433063,73.1718131 19.9279918,73.1718131 L0,73.1718131 L0,333.225653 L0.203346849,334.441805 C0.406693717,335.86065 5.28701826,370.318289 32.3321501,409.032462 C56.7337729,444.098179 105.130324,490.311956 196.026369,510.986541 L200.5,512 L204.973631,510.986541 C295.869676,490.311956 344.266226,444.098179 368.66785,409.032462 C395.712981,370.318289 400.593305,335.86065 400.796654,334.441805 L401,333.225653 L401,73.1718131 L381.072008,73.1718131 Z M372.53144,361.197149 C356.873733,399.911322 313.764199,466.191607 200.5,491.933492 C87.2358012,466.191607 44.3296146,399.708631 28.4685598,361.197149 C22.5715011,347.008709 19.7246451,331.80681 19.7246451,316.402217 L19.7246451,93.0356294 C107.570487,93.0356294 200.5,24.7284244 200.5,24.7284244 C200.5,24.7284244 293.429514,93.0356294 381.072008,93.0356294 L381.072008,316.199524 C381.072008,331.604117 378.225151,346.806018 372.53144,361.197149 Z" id="Shape" fill="#FFFFFF"></path>
                <path d="M208.961654,481 L207.544039,475.319407 C209.366687,474.913648 211.391851,474.305013 213.214501,473.899257 L214.834631,479.579852 C212.809467,479.985608 210.784302,480.594244 208.961654,481 Z M199.240863,480.594244 C197.215698,480.188487 195.39305,479.579852 193.367885,479.174094 L194.785499,473.493501 C196.608149,473.899257 198.633313,474.507892 200.455961,474.913648 L199.240863,480.594244 Z M221.922708,477.551067 L220.302577,471.870474 C222.125225,471.261838 224.150389,470.653203 225.973038,470.247447 L227.795686,475.92804 C225.770521,476.536675 223.745357,476.942434 221.922708,477.551067 Z M185.672259,477.34819 C183.647094,476.739554 181.824446,476.130919 180.001798,475.522284 L181.824446,469.84169 C183.647094,470.450326 185.469742,471.058959 187.494907,471.667595 L185.672259,477.34819 Z M233.466148,473.899257 L231.6435,468.218663 C233.466148,467.610028 235.288796,467.001393 237.111444,466.18988 L239.136609,471.870474 C237.31396,472.681986 235.288796,473.290622 233.466148,473.899257 Z M173.116237,473.493501 C171.293589,472.884865 169.268424,472.073353 167.445776,471.464717 L169.470941,465.987001 C171.293589,466.595636 173.116237,467.407149 174.938886,468.015784 L173.116237,473.493501 Z M245.212104,469.638811 L242.984421,464.161095 C244.807071,463.349583 246.629719,462.740947 248.452367,461.929433 L250.680048,467.407149 C248.8574,468.218663 247.034752,468.827299 245.212104,469.638811 Z M160.560216,468.827299 C158.737567,468.015784 156.914919,467.204272 155.092271,466.392757 L157.522469,460.915041 C159.345117,461.726556 161.167765,462.538068 162.990414,463.146703 L160.560216,468.827299 Z M256.350509,464.76973 L253.920311,459.292014 C255.742961,458.480502 257.565609,457.668987 259.185739,456.857475 L261.615938,462.335191 C259.995805,463.146703 258.173157,463.958218 256.350509,464.76973 Z M149.016777,463.755339 C147.194128,462.943826 145.37148,462.132312 143.548832,461.11792 L146.181546,455.843083 C148.004194,456.654596 149.624326,457.46611 151.446974,458.277623 L149.016777,463.755339 Z M267.286399,459.697772 L264.653685,454.422933 C266.476333,453.611421 268.096465,452.597029 269.919113,451.785515 L272.754343,457.060352 C270.931695,457.871866 269.109047,458.683379 267.286399,459.697772 Z M137.473337,458.277623 C135.650689,457.263231 133.828041,456.451718 132.207909,455.437325 L135.04314,450.162488 C136.663271,451.176879 138.48592,451.988394 140.308568,453.002785 L137.473337,458.277623 Z M278.019772,454.017177 L275.184542,448.74234 C276.804674,447.727948 278.627322,446.713557 280.247453,445.902042 L283.2852,450.974002 C281.462552,451.988394 279.842422,453.002785 278.019772,454.017177 Z M126.537448,451.988394 C124.714799,450.974002 123.094667,449.959611 121.474536,448.945219 L124.714799,443.873259 C126.334931,444.887651 127.955063,445.902042 129.777711,446.916434 L126.537448,451.988394 Z M288.348113,447.727948 L285.10785,442.655988 C286.72798,441.641597 288.348113,440.627205 289.968245,439.409935 L293.208508,444.279015 C291.790893,445.699165 290.170761,446.713557 288.348113,447.727948 Z M115.601558,445.496286 C113.981426,444.279015 112.361294,443.264624 110.538646,442.047353 L113.981426,437.178272 C115.601558,438.395543 117.22169,439.409935 118.841821,440.424326 L115.601558,445.496286 Z M298.473936,441.032961 L295.031156,436.163881 C296.651288,434.946612 298.271421,433.932218 299.689036,432.714949 L303.334332,437.381151 C301.714199,438.801299 300.094069,440.01857 298.473936,441.032961 Z M105.880767,438.598422 C104.260635,437.381151 102.640503,436.163881 101.020371,434.946612 L104.665668,430.280408 C106.2858,431.497679 107.703415,432.714949 109.323547,433.932218 L105.880767,438.598422 Z M307.992211,433.729341 L304.346914,429.063139 C305.967046,427.845869 307.384661,426.628598 308.802278,425.411327 L312.650089,429.874652 C311.232474,431.2948 309.612342,432.51207 307.992211,433.729341 Z M95.5524266,430.280408 C93.9322947,429.063139 92.5146795,427.64299 91.0970642,426.222842 L95.1473936,421.759517 C96.5650089,422.976788 97.9826244,424.396936 99.6027562,425.614206 L95.5524266,430.280408 Z M317.307969,426.019963 L313.25764,421.556638 C314.675255,420.339369 316.09287,418.919219 317.510485,417.499072 L321.560815,421.759517 C320.143199,423.179665 318.725584,424.599815 317.307969,426.019963 Z M86.4391851,422.165273 C85.0215698,420.745125 83.6039545,419.324978 82.1863391,417.904828 L86.4391851,413.644382 C87.8568005,415.064532 89.2744158,416.48468 90.6920311,417.701951 L86.4391851,422.165273 Z M326.016178,417.499072 L321.763331,413.238626 C323.180946,411.818478 324.396045,410.398328 325.81366,408.97818 L330.269024,413.035747 C328.648892,414.658774 327.433793,416.078924 326.016178,417.499072 Z M77.933493,413.441505 C76.5158778,412.021355 75.3007789,410.398328 73.8831636,408.97818 L78.3385261,405.123491 C79.5536249,406.543639 80.9712403,407.963789 82.1863391,409.586816 L77.933493,413.441505 Z M334.116836,408.572424 L329.661474,404.717735 C330.876573,403.297585 332.091672,401.674558 333.509287,400.25441 L338.167167,403.906221 C336.74955,405.529247 335.331935,407.152274 334.116836,408.572424 Z M70.0353505,404.311977 C68.8202516,402.688952 67.6051528,401.065925 66.3900539,399.645775 L71.0479328,395.993965 C72.2630318,397.616992 73.4781307,399.03714 74.6932294,400.660167 L70.0353505,404.311977 Z M341.609945,399.240019 L336.952068,395.588209 C338.167167,393.965182 339.382264,392.545032 340.394848,390.922005 L345.255243,394.370938 C344.040144,395.993965 342.825045,397.616992 341.609945,399.240019 Z M62.7447574,394.573817 L62.1372079,393.762303 C61.1246255,392.342155 60.1120432,390.922005 59.3019772,389.501857 L64.3648892,386.255803 C65.174955,387.675951 66.1875374,389.096101 67.2001199,390.313371 L67.6051528,390.922005 L62.7447574,394.573817 Z M348.698024,389.298978 L343.635111,386.052924 C344.647693,384.429897 345.862792,382.80687 346.875374,381.183843 L351.938286,384.22702 C350.925705,385.850047 349.710605,387.675951 348.698024,389.298978 Z M56.0617135,384.632776 C55.0491312,382.80687 54.0365488,381.183843 53.0239664,379.357939 L58.2893948,376.314764 C59.3019772,377.937791 60.3145595,379.560816 61.3271421,381.386722 L56.0617135,384.632776 Z M354.976034,378.952183 L349.710605,376.111885 C350.723187,374.285979 351.533253,372.662952 352.545835,371.039925 L357.811264,373.880223 C357.001199,375.50325 355.988616,377.126277 354.976034,378.952183 Z M50.1887357,374.083102 C49.1761533,372.257196 48.3660875,370.43129 47.5560215,368.605386 L52.8214501,365.967967 C53.6315159,367.590994 54.4415817,369.416898 55.4541642,371.242804 L50.1887357,374.083102 Z M360.646495,368.199629 L355.178549,365.562209 C355.988616,363.736305 356.798682,361.910399 357.608748,360.287372 L363.076692,362.721913 C362.266628,364.547817 361.456561,366.373723 360.646495,368.199629 Z M44.9233073,363.127669 C44.1132415,361.098886 43.3031755,359.27298 42.4931097,357.447076 L47.9610546,355.215414 C48.568604,357.041318 49.3786699,358.664345 50.1887357,360.69313 L44.9233073,363.127669 Z M365.506891,357.041318 L360.038945,354.809656 C360.849011,352.983751 361.456561,351.157845 362.06411,349.331941 L367.734572,351.360724 C366.924505,353.186629 366.316957,355.215414 365.506891,357.041318 Z M40.2654284,351.766481 C39.4553626,349.737697 38.8478131,347.708914 38.2402636,346.085887 L43.9107249,344.259981 C44.5182744,345.883008 45.1258239,347.911791 45.7333733,349.737697 L40.2654284,351.766481 Z M369.55722,345.680129 L363.886758,343.854225 C364.494309,341.825442 365.101857,339.796657 365.506891,338.17363 L371.177352,339.593779 C370.772319,341.622563 370.16477,343.651346 369.55722,345.680129 Z M36.8226484,340.202415 C36.2150989,338.17363 35.8100658,336.144847 35.4050329,334.318942 L41.2780107,333.101672 C41.6830437,334.927576 42.0880767,336.753482 42.6956262,338.782265 L36.8226484,340.202415 Z M372.594967,333.710307 L366.72199,332.493036 C366.72199,332.08728 366.924505,331.478645 366.924505,331.275766 L366.924505,327.218199 L372.797484,327.218199 L372.797484,332.08728 C372.797484,332.493036 372.797484,333.101672 372.594967,333.710307 Z M40.8729778,327.623955 L35,327.623955 L35,321.740483 L40.8729778,321.740483 L40.8729778,327.623955 Z M373,321.334727 L367.127023,321.334727 L367.127023,315.451254 L373,315.451254 L373,321.334727 Z M40.8729778,315.85701 L35,315.85701 L35,309.973538 L40.8729778,309.973538 L40.8729778,315.85701 Z M373,309.364903 L367.127023,309.364903 L367.127023,303.48143 L373,303.48143 L373,309.364903 Z M40.8729778,303.887186 L35,303.887186 L35,298.003714 L40.8729778,298.003714 L40.8729778,303.887186 Z M373,297.395079 L367.127023,297.395079 L367.127023,291.511606 L373,291.511606 L373,297.395079 Z M40.8729778,291.917362 L35,291.917362 L35,286.03389 L40.8729778,286.03389 L40.8729778,291.917362 Z M373,285.628134 L367.127023,285.628134 L367.127023,279.744661 L373,279.744661 L373,285.628134 Z M40.8729778,279.94754 L35,279.94754 L35,274.064068 L40.8729778,274.064068 L40.8729778,279.94754 Z M373,273.65831 L367.127023,273.65831 L367.127023,267.774837 L373,267.774837 L373,273.65831 Z M40.8729778,267.977716 L35,267.977716 L35,262.094244 L40.8729778,262.094244 L40.8729778,267.977716 Z M373,261.688487 L367.127023,261.688487 L367.127023,255.805013 L373,255.805013 L373,261.688487 Z M40.8729778,256.210771 L35,256.210771 L35,250.327299 L40.8729778,250.327299 L40.8729778,256.210771 Z M373,249.718663 L367.127023,249.718663 L367.127023,243.835191 L373,243.835191 L373,249.718663 Z M40.8729778,244.240947 L35,244.240947 L35,238.357475 L40.8729778,238.357475 L40.8729778,244.240947 Z M373,237.748839 L367.127023,237.748839 L367.127023,231.865367 L373,231.865367 L373,237.748839 Z M40.8729778,232.271123 L35,232.271123 L35,226.387651 L40.8729778,226.387651 L40.8729778,232.271123 Z M373,225.981894 L367.127023,225.981894 L367.127023,220.098422 L373,220.098422 L373,225.981894 Z M40.8729778,220.301299 L35,220.301299 L35,214.417827 L40.8729778,214.417827 L40.8729778,220.301299 Z M373,214.01207 L367.127023,214.01207 L367.127023,208.128598 L373,208.128598 L373,214.01207 Z M40.8729778,208.331477 L35,208.331477 L35,202.448004 L40.8729778,202.448004 L40.8729778,208.331477 Z M373,202.042246 L367.127023,202.042246 L367.127023,196.158774 L373,196.158774 L373,202.042246 Z M40.8729778,196.564532 L35,196.564532 L35,190.681058 L40.8729778,190.681058 L40.8729778,196.564532 Z M373,190.072424 L367.127023,190.072424 L367.127023,184.188952 L373,184.188952 L373,190.072424 Z M40.8729778,184.594708 L35,184.594708 L35,178.711235 L40.8729778,178.711235 L40.8729778,184.594708 Z M373,178.1026 L367.127023,178.1026 L367.127023,172.219127 L373,172.219127 L373,178.1026 Z M40.8729778,172.624884 L35,172.624884 L35,166.741411 L40.8729778,166.741411 L40.8729778,172.624884 Z M373,166.94429 L367.127023,166.94429 L367.127023,161.060817 L373,161.060817 L373,166.94429 Z M40.8729778,160.65506 L35,160.65506 L35,154.771588 L40.8729778,154.771588 L40.8729778,160.65506 Z M373,155.78598 L367.127023,155.78598 L367.127023,149.902507 L373,149.902507 L373,155.78598 Z M40.8729778,148.685237 L35,148.685237 L35,142.801764 L40.8729778,142.801764 L40.8729778,148.685237 Z M373,144.424791 L367.127023,144.424791 L367.127023,138.541318 L373,138.541318 L373,144.424791 Z M40.8729778,136.918291 L35,136.918291 L35,131.034819 L40.8729778,131.034819 L40.8729778,136.918291 Z M373,133.266481 L367.127023,133.266481 L367.127023,127.383008 L373,127.383008 L373,133.266481 Z M40.8729778,124.948468 L35,124.948468 L35,119.064995 L40.8729778,119.064995 L40.8729778,124.948468 Z M373,122.108171 L367.127023,122.108171 L367.127023,116.224698 L373,116.224698 L373,122.108171 Z M40.8729778,111.964253 L35,111.964253 L35,105.269267 L40.8729778,105.066388 L40.8729778,111.964253 Z M372.797484,110.949861 C370.772319,110.949861 368.747153,110.949861 366.72199,110.746982 L366.924505,104.86351 C368.949671,104.86351 370.772319,105.066388 372.797484,105.066388 L372.797484,110.949861 Z M46.1384062,110.746982 L45.5308568,104.86351 C47.5560215,104.660631 49.3786699,104.457753 51.4038346,104.254875 L52.0113841,110.138347 C50.1887357,110.341226 48.163571,110.544104 46.1384062,110.746982 Z M359.22888,110.341226 C357.203715,110.138347 355.178549,109.732591 353.153386,109.529712 L353.963452,103.64624 C355.988616,103.849118 357.811264,104.254875 359.836429,104.457753 L359.22888,110.341226 Z M57.2768124,109.326834 L56.4667466,103.443361 C58.2893948,103.240483 60.3145595,102.834726 62.3397245,102.428969 L63.3523068,108.312442 C61.1246255,108.718199 59.3019772,108.921077 57.2768124,109.326834 Z M346.672858,108.718199 C344.647693,108.312442 342.622529,107.906685 340.799881,107.500928 L342.014978,101.617456 C343.837626,102.023213 345.862792,102.428969 347.887957,102.631848 L346.672858,108.718199 Z M69.2252847,107.095172 L68.0101857,101.211699 C69.8328341,100.805942 71.8579988,100.400186 73.680647,99.994429 L74.8957459,105.877902 C73.0730976,106.283658 71.0479328,106.689415 69.2252847,107.095172 Z M334.724386,106.486537 C332.699221,106.08078 330.876573,105.675023 328.851408,105.066388 L330.269024,99.1829156 C332.091672,99.5886722 334.116836,100.197307 335.939484,100.603064 L334.724386,106.486537 Z M80.9712403,104.457753 L79.5536249,98.5742804 C81.3762732,98.1685236 83.401438,97.5598886 85.2240863,97.1541318 L86.8442182,102.834726 C84.8190533,103.443361 82.7938885,104.051996 80.9712403,104.457753 Z M321.965849,103.443361 C319.940683,102.834726 318.118035,102.428969 316.09287,101.820334 L317.713002,96.13974 C319.53565,96.7483751 321.560815,97.1541318 323.383463,97.7627669 L321.965849,103.443361 Z M92.5146795,101.414578 L90.8945476,95.5311048 C92.717196,94.9224699 94.7423607,94.3138347 96.5650089,93.7051996 L98.3876573,99.3857939 C96.3624926,100.197307 94.3373278,100.805942 92.5146795,101.414578 Z M310.017375,99.7915505 C308.194727,99.1829156 306.169563,98.5742804 304.346914,97.9656453 L306.169563,92.2850511 C307.992211,92.8936861 309.814859,93.5023212 311.840023,94.1109564 L310.017375,99.7915505 Z M103.855602,97.7627669 L102.032954,92.0821728 C103.855602,91.4735376 105.67825,90.8649025 107.703415,90.053389 L109.72858,95.7339833 C107.703415,96.3426183 105.880767,97.1541318 103.855602,97.7627669 Z M297.866388,95.5311048 C296.043738,94.9224699 294.018574,94.1109564 292.195926,93.5023212 L294.22109,87.8217271 C296.043738,88.430362 297.866388,89.2418755 299.689036,89.8505107 L297.866388,95.5311048 Z M115.196525,93.7051996 L113.17136,88.0246054 C114.994008,87.4159702 116.816657,86.6044568 118.639305,85.7929433 L120.866986,91.4735376 C119.044338,92.2850511 117.22169,92.8936861 115.196525,93.7051996 Z M286.525465,91.4735376 C284.702817,90.6620241 282.880167,90.053389 281.057519,89.2418755 L283.2852,83.7641597 C285.10785,84.5756732 286.930498,85.1843083 288.753146,85.9958218 L286.525465,91.4735376 Z M126.334931,89.2418755 L124.10725,83.7641597 C125.929898,82.9526462 127.752546,82.1411327 129.575195,81.5324978 L132.005392,87.0102136 C130.182744,87.6188487 128.157579,88.430362 126.334931,89.2418755 Z M275.387058,86.8073353 C273.56441,85.9958218 271.741761,85.1843083 269.919113,84.3727948 L272.34931,78.895079 C274.17196,79.7065925 275.994608,80.5181058 277.817256,81.3296192 L275.387058,86.8073353 Z M138.080887,84.3727948 L135.650689,78.895079 C137.473337,78.0835655 139.295986,77.272052 141.118634,76.4605386 L143.548832,81.9382544 C141.726183,82.7497679 139.903535,83.5612814 138.080887,84.3727948 Z M264.451168,81.7353761 C262.62852,80.9238626 260.805872,80.1123491 258.983224,79.0979573 L261.615938,73.8231198 C263.438586,74.6346333 265.058718,75.4461468 266.881366,76.4605386 L264.451168,81.7353761 Z M149.421809,78.895079 L146.789095,73.6202415 C148.611744,72.808728 150.231875,71.7943362 152.054524,70.9828227 L154.687238,76.2576602 C152.86459,77.0691737 151.041941,78.0835655 149.421809,78.895079 Z M253.717795,76.6634169 C251.895147,75.8519034 250.072499,74.8375116 248.452367,74.0259981 L251.287597,68.7511606 C253.110247,69.5626741 254.730377,70.5770659 256.553025,71.3885794 L253.717795,76.6634169 Z M161.167765,72.808728 L158.332534,67.5338905 C160.155183,66.5194987 161.775315,65.7079852 163.597963,64.6935932 L166.433194,69.9684307 C164.610545,70.9828227 162.990414,71.9972145 161.167765,72.808728 Z M241.769324,70.5770659 C239.946674,69.5626741 238.124026,68.7511606 236.503895,67.7367688 L239.339125,62.4619313 C240.959257,63.4763231 242.781905,64.2878366 244.604553,65.3022284 L241.769324,70.5770659 Z M172.913721,66.3166202 L170.07849,61.0417827 C171.901138,60.0273909 173.52127,59.0129991 175.343918,58.2014856 L178.381666,63.4763231 C176.559017,64.2878366 174.736369,65.3022284 172.913721,66.3166202 Z M231.238467,64.2878366 C229.415817,63.2734448 227.795686,62.259053 225.973038,61.2446612 L229.010786,56.172702 C230.630916,57.1870938 232.453564,58.2014856 234.073697,59.2158774 L231.238467,64.2878366 Z M184.254643,59.6216342 L181.216897,54.549675 C183.039545,53.5352832 184.659676,52.5208914 186.279808,51.5064996 L189.317555,56.5784586 C187.697423,57.5928504 186.077292,58.6072424 184.254643,59.6216342 Z M221.112643,58.2014856 C219.289993,57.1870938 217.669863,55.9698237 216.04973,55.1583102 L219.289993,50.086351 C220.910126,51.1007428 222.530258,52.1151346 224.352906,53.1295264 L221.112643,58.2014856 Z M210.784302,52.3180129 C208.961654,51.1007428 207.341522,50.086351 205.721389,49.0719592 L208.961654,44 C210.379269,45.0143918 212.201917,46.0287836 213.822049,47.2460539 L210.784302,52.3180129 Z M195.798083,52.7237697 L192.557818,47.6518106 C194.380468,46.4345404 196.000599,45.4201486 197.418214,44.4057566 L200.860994,49.2748375 C199.443379,50.2892293 197.620731,51.5064996 195.798083,52.7237697 Z" id="Shape" fill="#FFFFFF"></path>
                <path d="M278,414 L129,414 L129,113.284219 L130.703606,112.893679 C131.096746,112.763499 171.459103,103 203.434476,103 C235.540897,103 275.772208,112.893679 276.296393,112.893679 L278,113.284219 L278,414 Z M133.455585,409.57388 L273.544415,409.57388 L273.544415,116.799079 C265.550572,114.976559 231.347405,107.42612 203.565524,107.42612 C175.783641,107.42612 141.449428,114.976559 133.586631,116.799079 L133.586631,409.57388 L133.455585,409.57388 Z" id="Shape" fill="#FFFFFF"></path>
                <path d="M203.413628,152.282421 C175.124498,152.282421 151.098113,145.149856 139.472443,141 L139.472443,193.352424 L267.225638,193.352424 L267.225638,141 C255.729141,145.149856 231.702758,152.282421 203.413628,152.282421 Z M143,248 L148.515251,304.5344 C151.267023,333.488 153.908725,369.9296 154.238938,404 L251.761752,404 C252.091965,369.9296 254.733666,333.488 257.485438,304.5344 L264,248 L143,248 Z" id="Shape" fill="#E0E0E0"></path>
                <path d="M203.434476,147 C162.941073,147 130.572559,133.091988 130.310466,132.836795 L129,132.198813 L129,114.080119 L130.703606,113.697329 C131.096746,113.569733 171.459103,104 203.565524,104 C235.671944,104 275.903254,113.697329 276.296393,113.697329 L278,114.080119 L278,132.326409 L276.689534,132.964392 C276.165347,133.091988 243.796835,147 203.434476,147 Z M133.324538,129.519288 C139.745822,132.071217 168.445031,142.661721 203.30343,142.661721 C238.161829,142.661721 266.992085,132.071217 273.282323,129.519288 L273.282323,117.525223 C265.288478,115.738872 231.085312,108.338279 203.30343,108.338279 C175.521548,108.338279 141.187335,115.738872 133.324538,117.525223 L133.324538,129.519288 Z" id="Shape" fill="#4A555F"></path>
                <path d="M202.565217,138 C172.956522,138 147.782609,129.710526 138,126.026316 L138,121.421053 C150,118.789474 178.695651,113 202.565217,113 C226.434782,113 255.130434,118.789474 267,121.421053 L267,126.026316 C257.217391,129.710526 232.173913,138 202.565217,138 Z" id="Path" fill="#71CDE1"></path>
                <path d="M160,430 L129,430 L129,410 L160,410 L160,430 Z M133.18254,425.20548 L155.81746,425.20548 L155.81746,414.520547 L133.18254,414.520547 L133.18254,425.20548 Z" id="Shape" fill="#FFFFFF"></path>
                <path d="M276,430 L245,430 L245,410 L276,410 L276,430 Z M249.182539,425.20548 L271.817461,425.20548 L271.817461,414.520547 L249.182539,414.520547 L249.182539,425.20548 Z" id="Shape" fill="#FFFFFF"></path>
                <path d="M278,243 L129,243 L129,197 L278,197 L278,243 Z M133.455585,238.556818 L273.544415,238.556818 L273.544415,201.573863 L133.455585,201.573863 L133.455585,238.556818 Z" id="Shape" fill="#FFFFFF"></path>
                <rect id="Rectangle" fill="#71CDE1" x="139" y="207" width="129" height="27"></rect>
                <path d="M203.434476,147 C162.941073,147 130.572559,133.091988 130.310466,132.836795 L129,132.198813 L129,114.080119 L130.703606,113.697329 C131.096746,113.569733 171.459103,104 203.565524,104 C235.671944,104 275.903254,113.697329 276.296393,113.697329 L278,114.080119 L278,132.326409 L276.689534,132.964392 C276.165347,133.091988 243.796835,147 203.434476,147 Z M133.324538,129.519288 C139.745822,132.071217 168.445031,142.661721 203.30343,142.661721 C238.161829,142.661721 266.992085,132.071217 273.282323,129.519288 L273.282323,117.525223 C265.288478,115.738872 231.085312,108.338279 203.30343,108.338279 C175.521548,108.338279 141.187335,115.738872 133.324538,117.525223 L133.324538,129.519288 Z" id="Shape" fill="#FFFFFF"></path>
                <path d="M202.565217,138 C172.956522,138 147.782609,129.710526 138,126.026316 L138,121.421053 C150,118.789474 178.695651,113 202.565217,113 C226.434782,113 255.130434,118.789474 267,121.421053 L267,126.026316 C257.217391,129.710526 232.173913,138 202.565217,138 Z" id="Path" fill="#71CDE1"></path>
                <rect id="Rectangle" fill="#FFD452" x="152" y="160" width="103" height="17"></rect>
                <path d="M257,179 L149,179 L149,158 L257,158 L257,179 Z M153.478049,174.5375 L252.521951,174.5375 L252.521951,162.59375 L153.478049,162.59375 L153.478049,174.5375 L153.478049,174.5375 Z" id="Shape" fill="#5C666F"></path>
                <path d="M148,412 L143.72028,412 C143.72028,335.636363 130.125874,243.558442 130,242.64935 L134.27972,242 C134.405594,242.90909 148,335.246754 148,412 Z" id="Path" stroke="#FFFFFF" fill="#FFFFFF"></path>
                <path d="M262.27972,412 L258,412 C258,335.246754 271.594406,242.90909 271.72028,242 L276,242.64935 C275.874126,243.558442 262.27972,335.636363 262.27972,412 Z" id="Path" stroke="#FFFFFF" fill="#FFFFFF"></path>
                <g id="Lock" transform="translate(161.000000, 265.000000)">
                    <ellipse id="Oval" fill="#EC8D53" cx="40.5978261" cy="81.7681159" rx="38.7934783" ry="38.6376812"></ellipse>
                    <path d="M41.5,43.1304348 C18.6170898,43.1304348 0,61.2691226 0,83.5648689 C0,105.861312 18.6170898,124 41.5,124 C64.3829102,124 83,105.861312 83,83.5648689 C83,61.2698195 64.3821948,43.1304348 41.5,43.1304348 Z M41.5,119.291595 C21.2826016,119.291595 4.83311786,103.264893 4.83311786,83.5655658 C4.83311786,63.8669356 21.2826016,47.8402342 41.5,47.8402342 C61.7173984,47.8402342 78.1668822,63.8669356 78.1668822,83.5655658 C78.1668822,103.264893 61.7173984,119.291595 41.5,119.291595 Z" id="Shape" stroke="#5C666F" fill="#5C666F"></path>
                    <polygon id="Path-6" fill="#FFFFFF" points="9.92391304 56.6086957 12.0175319 25.9236472 22.9631454 8.00936579 42.4021739 1.90222437 61.9381156 8.00936579 71.2717391 25.9236472 72.6443827 47.8402342 72.6443827 58.8004253 58.5540825 47.8402342 56.8704357 28.2104563 43.3043478 16.125651 30.2298742 21.3397022 22.9631454 34.9825738 22.9631454 49.9450703"></polygon>
                    <path d="M41.4918305,0 C22.5931859,0 7.2173913,15.2346388 7.2173913,33.9601239 L7.2173913,61.0363439 L11.593426,62.3849841 C14.9337044,57.585598 19.4475557,53.6184712 24.6405449,50.9176734 C24.9808243,50.741091 25.3218139,50.5820962 25.6620934,50.4209911 L27.0288937,48.2759708 L27.0288937,33.9608274 C27.0288937,26.0540113 33.5162231,19.6224681 41.4904097,19.6224681 C49.4745418,19.6224681 55.9703959,26.0547147 55.9703959,33.9608274 L55.9703959,48.1549662 L57.2782334,50.2711423 L57.5957802,50.418177 C58.5441577,50.8508394 59.4975082,51.3672201 60.4174701,51.9490278 L61.3281968,52.5378707 C65.2062444,55.0029907 68.697837,58.3214757 71.4257547,62.1352358 L71.6644475,61.966392 L74.4563008,62.8985507 L75.1283347,60.9111181 L75.7826087,60.7612691 L75.7826087,33.961531 C75.7847398,15.2346388 60.4018413,0 41.4918305,0 Z M70.9853096,54.2340478 C68.8356536,52.0707361 66.4622231,50.1515445 63.9545279,48.5573773 L63.0089919,47.9474288 C62.2701809,47.4795907 61.5150307,47.0483354 60.7719573,46.6656227 L60.7719573,33.9601239 C60.7719573,23.4334142 52.1228952,14.8688105 41.4918305,14.8688105 C30.8707113,14.8688105 22.2308844,23.4334142 22.2308844,33.9601239 L22.2308844,46.8028084 C18.4530024,48.7923515 15.0004816,51.3714412 12.0175319,54.4106303 L12.0175319,33.9594205 C12.0175319,17.8545323 25.2401185,4.75295404 41.4918305,4.75295404 C57.7549087,4.75295404 70.9853096,17.8552359 70.9853096,33.9594205 L70.9853096,54.2340478 Z" id="Shape" stroke="#5C666F" fill="#5C666F"></path>
                    <path d="M45.5374883,81.313167 C47.7814943,79.9220464 49.3020123,77.3942445 49.3020123,74.4730294 C49.3020123,70.0659702 45.8780313,66.4927536 41.6550332,66.4927536 C37.4313725,66.4927536 34.0080543,70.0659702 34.0080543,74.4730294 C34.0080543,77.2884585 35.4119659,79.7505761 37.5214773,81.1714276 L32.4782609,97.0434783 L50.5217391,97.0434783 L45.5374883,81.313167 Z" id="Path" fill="#FFFFFF"></path>
                </g>
            </g>
        </g>
    </g>
</svg>