<?xml version="1.0" encoding="UTF-8"?>
<svg width="788px" height="457px" viewBox="0 0 788 457" version="1.1" xmlns="http://www.w3.org/2000/svg" xmlns:xlink="http://www.w3.org/1999/xlink">
    <!-- Generator: Sketch 59.1 (86144) - https://sketch.com -->
    <title>mf-scaleability</title>
    <desc>Created with Sketch.</desc>
    <g id="Page-1" stroke="none" stroke-width="1" fill="none" fill-rule="evenodd">
        <g id="mf-scaleability" transform="translate(0.000000, 4.000000)" fill-rule="nonzero">
            <g id="Group" transform="translate(0.000000, 327.000000)">
                <rect id="Rectangle" stroke="#979797" fill="#FFFFFF" x="2.5" y="3.5" width="212" height="64"></rect>
                <rect id="Rectangle" stroke="#979797" fill="#FFFFFF" x="2.5" y="102.5" width="212" height="19"></rect>
                <rect id="Rectangle" stroke="#979797" fill="#FFFFFF" x="43.5" y="68.5" width="13" height="33"></rect>
                <rect id="Rectangle" stroke="#979797" fill="#FFFFFF" x="154.5" y="68.5" width="13" height="33"></rect>
                <path d="M217.875429,72.0860927 L0,72.0860927 L0,0.621192053 L217.750857,0.621192053 L217.750857,72.0860927 L217.875429,72.0860927 Z M7.34971429,64.615894 L210.401143,64.615894 L210.401143,7.84238411 L7.34971429,7.84238411 L7.34971429,64.615894 Z" id="Shape" fill="#4A555F"></path>
                <rect id="Rectangle" fill="#666288" x="16.9417143" y="17.0556291" width="184.365714" height="38.4715232"></rect>
                <path d="M35.2537143,47.6834437 C29.0251429,47.6834437 23.9177143,42.5788079 23.9177143,36.3536424 C23.9177143,30.1284768 29.0251429,25.0238411 35.2537143,25.0238411 C41.4822857,25.0238411 46.5897143,30.1284768 46.5897143,36.3536424 C46.5897143,42.5788079 41.6068571,47.6834437 35.2537143,47.6834437 Z M35.2537143,32.3695364 C33.0114286,32.3695364 31.2674286,34.1125828 31.2674286,36.3536424 C31.2674286,38.594702 33.0114286,40.3377483 35.2537143,40.3377483 C37.496,40.3377483 39.24,38.594702 39.24,36.3536424 C39.24,34.1125828 37.496,32.3695364 35.2537143,32.3695364 Z" id="Shape" fill="#FFFFFF"></path>
                <path d="M187.355429,47.6834437 C181.126857,47.6834437 176.019429,42.5788079 176.019429,36.3536424 C176.019429,30.1284768 181.126857,25.0238411 187.355429,25.0238411 C193.584,25.0238411 198.691429,30.1284768 198.691429,36.3536424 C198.691429,42.5788079 193.584,47.6834437 187.355429,47.6834437 Z M187.355429,32.3695364 C185.113143,32.3695364 183.369143,34.1125828 183.369143,36.3536424 C183.369143,38.594702 185.113143,40.3377483 187.355429,40.3377483 C189.597714,40.3377483 191.341714,38.594702 191.341714,36.3536424 C191.341714,34.1125828 189.597714,32.3695364 187.355429,32.3695364 Z" id="Shape" fill="#FFFFFF"></path>
                <path d="M60.168,105.701987 L39.24,105.701987 L39.24,64.7403974 L60.168,64.7403974 L60.168,105.701987 Z M46.7142857,98.2317881 L52.8182857,98.2317881 L52.8182857,71.9615894 L46.7142857,71.9615894 L46.7142857,98.2317881 Z" id="Shape" fill="#4A555F"></path>
                <path d="M172.780571,105.701987 L151.852571,105.701987 L151.852571,64.7403974 L172.780571,64.7403974 L172.780571,105.701987 Z M159.202286,98.2317881 L165.306286,98.2317881 L165.306286,71.9615894 L159.202286,71.9615894 L159.202286,98.2317881 Z" id="Shape" fill="#4A555F"></path>
                <path d="M217.875429,124.62649 L0,124.62649 L0,98.2317881 L217.750857,98.2317881 L217.750857,124.62649 L217.875429,124.62649 Z M7.34971429,117.280795 L210.401143,117.280795 L210.401143,105.701987 L7.34971429,105.701987 L7.34971429,117.280795 Z" id="Shape" fill="#4A555F"></path>
            </g>
            <rect id="Rectangle" stroke="#979797" fill="#FFFFFF" x="247.5" y="184.5" width="253" height="228"></rect>
            <rect id="Rectangle" stroke="#979797" fill="#FFFFFF" x="269.5" y="413.5" width="17" height="35"></rect>
            <rect id="Rectangle" stroke="#979797" fill="#FFFFFF" x="463.5" y="413.5" width="17" height="35"></rect>
            <path d="M505,265.25 L241,265.25 L241,180.25 L505,180.25 L505,265.25 Z M248.471698,257.75 L498.773585,257.75 L498.773585,187.75 L248.471698,187.75 L248.471698,257.75 Z" id="Shape" fill="#4A555F"></path>
            <path d="M256,195.463761 L256,249.251163 L489,249.251163 L489,195.251163 L256,195.251163 L256,195.463761 Z M285.384186,232.925581 C279.609239,232.925581 274.68984,228.181395 274.68984,222.14334 C274.68984,216.32093 279.395352,211.576744 285.384186,211.576744 C291.159133,211.576744 295.864645,216.32093 295.864645,222.14334 C296.078532,228.181395 291.37302,232.925581 285.384186,232.925581 Z M469.064171,232.925581 L314.561497,232.925581 L314.561497,211.576744 L469.064171,211.576744 L469.064171,232.925581 L469.064171,232.925581 Z" id="Shape" fill="#E0E0E0"></path>
            <path d="M505,341.250746 L241,341.250746 L241,257.250746 L505,257.250746 L505,341.250746 Z M248.471698,333.728358 L498.773585,333.728358 L498.773585,263.519403 L248.471698,263.519403 L248.471698,333.728358 Z" id="Shape" fill="#4A555F"></path>
            <path d="M256,272.251163 L256,326.251163 L489,326.251163 L489,272.251163 L256,272.251163 Z M285.384186,309.925581 C279.609239,309.925581 274.68984,305.181395 274.68984,299.358985 C274.68984,293.536575 279.395352,288.576744 285.384186,288.576744 C291.159133,288.576744 295.864645,293.32093 295.864645,299.358985 C296.078532,305.181395 291.37302,309.925581 285.384186,309.925581 Z M469.064171,309.925581 L314.561497,309.925581 L314.561497,288.576744 L469.064171,288.576744 L469.064171,309.925581 L469.064171,309.925581 Z" id="Shape" fill="#E0E0E0"></path>
            <path d="M505,419.250746 L241,419.250746 L241,335.250746 L505,335.250746 L505,419.250746 Z M248.471698,411.728358 L498.773585,411.728358 L498.773585,341.519403 L248.471698,341.519403 L248.471698,411.728358 Z" id="Shape" fill="#4A555F"></path>
            <path d="M256,350.251163 L256,404.251163 L489,404.251163 L489,350.251163 L256,350.251163 Z M285.384186,387.925581 C279.609239,387.925581 274.68984,383.181395 274.68984,377.358985 C274.68984,371.536575 279.395352,366.576744 285.384186,366.576744 C291.159133,366.576744 295.864645,371.32093 295.864645,377.358985 C296.078532,383.181395 291.37302,387.925581 285.384186,387.925581 Z M469.064171,387.925581 L314.561497,387.925581 L314.561497,366.576744 L469.064171,366.576744 L469.064171,387.925581 L469.064171,387.925581 Z" id="Shape" fill="#E0E0E0"></path>
            <path d="M286.5,236.252174 C278.492537,236.252174 272,229.759637 272,221.752174 C272,213.744711 278.492537,207.252174 286.5,207.252174 C294.507463,207.252174 301,213.744711 301,221.752174 C301,229.759637 294.507463,236.252174 286.5,236.252174 Z M286.5,214.817391 C282.599185,214.817391 279.565217,218.068071 279.565217,221.752174 C279.565217,225.436277 282.815897,228.686957 286.5,228.686957 C290.400815,228.686957 293.434783,225.436277 293.434783,221.752174 C293.434783,218.068071 290.400815,214.817391 286.5,214.817391 Z" id="Shape" fill="#4A555F"></path>
            <path d="M473.790427,236.245455 L312,236.245455 L312,209.245455 L474,209.245455 L474,236.245455 L473.790427,236.245455 Z M319.476923,228.881818 L466.523077,228.881818 L466.523077,215.381818 L319.476923,215.381818 L319.476923,228.881818 Z" id="Shape" fill="#4A555F"></path>
            <path d="M286.5,314.252174 C278.492537,314.252174 272,307.759637 272,299.752174 C272,291.744711 278.492537,285.252174 286.5,285.252174 C294.507463,285.252174 301,291.744711 301,299.752174 C301,307.759637 294.507463,314.252174 286.5,314.252174 Z M286.494881,292.817391 C282.596945,292.817391 279.565217,296.068071 279.565217,299.752174 C279.565217,303.652989 282.813497,306.686957 286.494881,306.686957 C290.392816,306.686957 293.424544,303.436277 293.424544,299.752174 C293.641096,296.068071 290.392816,292.817391 286.494881,292.817391 Z" id="Shape" fill="#4A555F"></path>
            <path d="M473.790427,314.252174 L312,314.252174 L312,285.252174 L474,285.252174 L474,314.252174 L473.790427,314.252174 Z M319.476923,306.686957 L466.523077,306.686957 L466.523077,292.817391 L319.476923,292.817391 L319.476923,306.686957 Z" id="Shape" fill="#4A555F"></path>
            <path d="M286.5,391.252174 C278.492537,391.252174 272,384.759637 272,376.752174 C272,368.744711 278.492537,362.252174 286.5,362.252174 C294.507463,362.252174 301,368.744711 301,376.752174 C301,384.759637 294.507463,391.252174 286.5,391.252174 Z M286.494881,369.817391 C282.596945,369.817391 279.565217,373.068071 279.565217,376.752174 C279.565217,380.652989 282.813497,383.686957 286.494881,383.686957 C290.392816,383.686957 293.424544,380.436277 293.424544,376.752174 C293.641096,373.068071 290.392816,369.817391 286.494881,369.817391 Z" id="Shape" fill="#4A555F"></path>
            <path d="M473.790427,391.252174 L312,391.252174 L312,362.252174 L474,362.252174 L474,391.252174 L473.790427,391.252174 Z M319.476923,383.686957 L466.523077,383.686957 L466.523077,369.817391 L319.476923,369.817391 L319.476923,383.686957 Z" id="Shape" fill="#4A555F"></path>
            <path d="M288.798165,451.251613 L267,451.251613 L267,412.251613 L289,412.251613 L289,451.251613 L288.798165,451.251613 Z M273.111111,443.703226 L281.666667,443.703226 L281.666667,418.541935 L273.111111,418.541935 L273.111111,443.703226 Z" id="Shape" fill="#4A555F"></path>
            <path d="M481,451.251613 L459,451.251613 L459,412.251613 L481,412.251613 L481,451.251613 Z M466.333333,443.703226 L474.888889,443.703226 L474.888889,418.541935 L466.333333,418.541935 L466.333333,443.703226 Z" id="Shape" fill="#4A555F"></path>
            <rect id="Rectangle" fill="#4A555F" x="247" y="445" width="254" height="7"></rect>
            <g id="Group-2" transform="translate(530.000000, 297.000000)">
                <rect id="Rectangle" stroke="#5C666F" stroke-width="7" fill="#FFFFFF" x="0" y="0.21443866" width="254" height="75.7580645" rx="8"></rect>
                <rect id="Rectangle" fill="#EC8D53" x="125.754902" y="16.3596" width="112.058824" height="45.9516129"></rect>
                <path d="M38.5980392,53.5901676 C30.9718137,53.5901676 24.9019608,47.3804902 24.9019608,39.9288773 C24.9019608,32.3220225 31.127451,26.267587 38.5980392,26.267587 C46.0686274,26.267587 52.2941176,32.4772644 52.2941176,39.9288773 C52.2941176,47.3804902 46.0686274,53.5901676 38.5980392,53.5901676 Z M38.5980392,34.9611354 C35.7758169,34.9611354 33.6176471,37.279415 33.6176471,39.9288773 C33.6176471,42.743931 35.94183,44.8966193 38.5980392,44.8966193 C41.4202613,44.8966193 43.5784314,42.5783397 43.5784314,39.9288773 C43.5784314,37.1138236 41.2542484,34.9611354 38.5980392,34.9611354 Z" id="Shape" fill="#5C666F"></path>
                <path d="M221.004902,53.5901676 C213.725324,53.5901676 207.931373,47.3804902 207.931373,39.9288773 C207.931373,32.3220225 213.873887,26.267587 221.004902,26.267587 C228.284482,26.267587 234.078431,32.4772644 234.078431,39.9288773 C234.078431,47.3804902 228.284482,53.5901676 221.004902,53.5901676 Z M221.004901,34.9611354 C218.535458,34.9611354 216.647059,37.279415 216.647059,39.9288773 C216.647059,42.743931 218.680719,44.8966193 221.004901,44.8966193 C223.474346,44.8966193 225.362745,42.5783397 225.362745,39.9288773 C225.362745,37.1138236 223.474346,34.9611354 221.004901,34.9611354 Z" id="Shape" fill="#5C666F"></path>
            </g>
            <g id="Group-2-Copy" transform="translate(530.000000, 373.000000)">
                <rect id="Rectangle" stroke="#5C666F" stroke-width="7" fill="#FFFFFF" x="0" y="0.21443866" width="254" height="75.7580645" rx="8"></rect>
                <rect id="Rectangle" fill="#EC8D53" x="125.754902" y="16.3596" width="112.058824" height="45.9516129"></rect>
                <path d="M38.5980392,53.5901676 C30.9718137,53.5901676 24.9019608,47.3804902 24.9019608,39.9288773 C24.9019608,32.3220225 31.127451,26.267587 38.5980392,26.267587 C46.0686274,26.267587 52.2941176,32.4772644 52.2941176,39.9288773 C52.2941176,47.3804902 46.0686274,53.5901676 38.5980392,53.5901676 Z M38.5980392,34.9611354 C35.7758169,34.9611354 33.6176471,37.279415 33.6176471,39.9288773 C33.6176471,42.743931 35.94183,44.8966193 38.5980392,44.8966193 C41.4202613,44.8966193 43.5784314,42.5783397 43.5784314,39.9288773 C43.5784314,37.1138236 41.2542484,34.9611354 38.5980392,34.9611354 Z" id="Shape" fill="#5C666F"></path>
                <path d="M221.004902,53.5901676 C213.725324,53.5901676 207.931373,47.3804902 207.931373,39.9288773 C207.931373,32.3220225 213.873887,26.267587 221.004902,26.267587 C228.284482,26.267587 234.078431,32.4772644 234.078431,39.9288773 C234.078431,47.3804902 228.284482,53.5901676 221.004902,53.5901676 Z M221.004901,34.9611354 C218.535458,34.9611354 216.647059,37.279415 216.647059,39.9288773 C216.647059,42.743931 218.680719,44.8966193 221.004901,44.8966193 C223.474346,44.8966193 225.362745,42.5783397 225.362745,39.9288773 C225.362745,37.1138236 223.474346,34.9611354 221.004901,34.9611354 Z" id="Shape" fill="#5C666F"></path>
            </g>
            <rect id="Rectangle-Copy-10" stroke="#5C666F" stroke-width="7" fill="#FFFFFF" x="530" y="222" width="254" height="75" rx="8"></rect>
            <rect id="Rectangle" fill="#EC8D53" x="656" y="236" width="112" height="46"></rect>
            <path d="M568.5,271.972828 C560.982955,271.972828 555,265.836464 555,258.472828 C555,250.955782 561.136364,244.972828 568.5,244.972828 C575.863636,244.972828 582,251.109191 582,258.472828 C582,265.836464 575.863636,271.972828 568.5,271.972828 Z M568.5,253.563737 C565.718182,253.563737 563.590909,255.854646 563.590909,258.472828 C563.590909,261.254646 565.881818,263.381919 568.5,263.381919 C571.281818,263.381919 573.409091,261.09101 573.409091,258.472828 C573.409091,255.854646 571.118182,253.563737 568.5,253.563737 Z" id="Shape" fill="#5C666F"></path>
            <path d="M751,271.972828 C743.761364,271.972828 738,265.836464 738,258.472828 C738,250.955782 743.909092,244.972828 751,244.972828 C758.238637,244.972828 764,251.109191 764,258.472828 C764,265.836464 758.238637,271.972828 751,271.972828 Z M750.999999,253.563737 C748.544445,253.563737 746.666667,255.854646 746.666667,258.472828 C746.666667,261.254646 748.688889,263.381919 750.999999,263.381919 C753.455555,263.381919 755.333333,261.09101 755.333333,258.472828 C755.333333,255.854646 753.455555,253.563737 750.999999,253.563737 Z" id="Shape" fill="#5C666F"></path>
            <rect id="Rectangle" stroke="#5C666F" stroke-width="7" fill="#FFFFFF" x="530" y="150" width="254" height="76" rx="8"></rect>
            <rect id="Rectangle" fill="#EC8D53" x="656" y="165" width="112" height="47"></rect>
            <path d="M751,201.972828 C743.761364,201.972828 738,195.836464 738,188.472828 C738,180.955782 743.909092,174.972828 751,174.972828 C758.238637,174.972828 764,181.109191 764,188.472828 C764,195.836464 758.238637,201.972828 751,201.972828 Z M750.999999,183.563737 C748.544445,183.563737 746.666667,185.568282 746.666667,187.859191 C746.666667,190.293282 748.688889,192.154646 750.999999,192.154646 C753.455555,192.154646 755.333333,190.150101 755.333333,187.859191 C755.333333,185.4251 753.455555,183.563737 750.999999,183.563737 Z" id="Shape" fill="#5C666F"></path>
            <path d="M568.5,201.972828 C560.982955,201.972828 555,195.836464 555,188.472828 C555,180.955782 561.136364,174.972828 568.5,174.972828 C575.863636,174.972828 582,181.109191 582,188.472828 C582,195.836464 575.863636,201.972828 568.5,201.972828 Z M568.5,183.563737 C565.718182,183.563737 563.590909,185.568282 563.590909,187.859191 C563.590909,190.293282 565.881818,192.154646 568.5,192.154646 C571.281818,192.154646 573.409091,190.150101 573.409091,187.859191 C573.409091,185.4251 571.118182,183.563737 568.5,183.563737 Z" id="Shape" fill="#5C666F"></path>
            <rect id="Rectangle" stroke="#5C666F" stroke-width="7" fill="#FFFFFF" x="530" y="76" width="254" height="76" rx="8"></rect>
            <rect id="Rectangle-Copy" stroke="#5C666F" stroke-width="7" fill="#FFFFFF" x="530" y="0" width="254" height="76" rx="8"></rect>
            <rect id="Rectangle" fill="#EC8D53" x="656" y="91" width="112" height="47"></rect>
            <rect id="Rectangle-Copy-2" fill="#EC8D53" x="656" y="15" width="112" height="47"></rect>
            <path d="M751,127.972828 C743.761364,127.972828 738,121.836464 738,114.472828 C738,106.955782 743.909092,100.972828 751,100.972828 C758.238637,100.972828 764,107.109191 764,114.472828 C764,121.836464 758.238637,127.972828 751,127.972828 Z M750.999999,109.563737 C748.544445,109.563737 746.666667,111.568282 746.666667,113.859191 C746.666667,116.293282 748.688889,118.154646 750.999999,118.154646 C753.455555,118.154646 755.333333,116.150101 755.333333,113.859191 C755.333333,111.4251 753.455555,109.563737 750.999999,109.563737 Z" id="Shape" fill="#5C666F"></path>
            <path d="M751,51.9728278 C743.761364,51.9728278 738,45.8364641 738,38.4728278 C738,30.9557823 743.909092,24.9728278 751,24.9728278 C758.238637,24.9728278 764,31.1091914 764,38.4728278 C764,45.8364641 758.238637,51.9728278 751,51.9728278 Z M750.999999,33.5637369 C748.544445,33.5637369 746.666667,35.5682823 746.666667,37.8591914 C746.666667,40.2932823 748.688889,42.154646 750.999999,42.154646 C753.455555,42.154646 755.333333,40.1501006 755.333333,37.8591914 C755.333333,35.4251005 753.455555,33.5637369 750.999999,33.5637369 Z" id="Shape-Copy" fill="#5C666F"></path>
            <path d="M568.5,127.972828 C560.982955,127.972828 555,121.836464 555,114.472828 C555,106.955782 561.136364,100.972828 568.5,100.972828 C575.863636,100.972828 582,107.109191 582,114.472828 C582,121.836464 575.863636,127.972828 568.5,127.972828 Z M568.5,109.563737 C565.718182,109.563737 563.590909,111.568282 563.590909,113.859191 C563.590909,116.293282 565.881818,118.154646 568.5,118.154646 C571.281818,118.154646 573.409091,116.150101 573.409091,113.859191 C573.409091,111.4251 571.118182,109.563737 568.5,109.563737 Z" id="Shape" fill="#5C666F"></path>
            <path d="M568.5,51.9728278 C560.982955,51.9728278 555,45.8364641 555,38.4728278 C555,30.9557823 561.136364,24.9728278 568.5,24.9728278 C575.863636,24.9728278 582,31.1091914 582,38.4728278 C582,45.8364641 575.863636,51.9728278 568.5,51.9728278 Z M568.5,33.5637369 C565.718182,33.5637369 563.590909,35.5682823 563.590909,37.8591914 C563.590909,40.2932823 565.881818,42.154646 568.5,42.154646 C571.281818,42.154646 573.409091,40.1501006 573.409091,37.8591914 C573.409091,35.4251005 571.118182,33.5637369 568.5,33.5637369 Z" id="Shape-Copy-2" fill="#5C666F"></path>
        </g>
    </g>
</svg>