<?xml version="1.0" encoding="UTF-8"?>
<svg width="402px" height="512px" viewBox="0 0 402 512" version="1.1" xmlns="http://www.w3.org/2000/svg" xmlns:xlink="http://www.w3.org/1999/xlink">
    <!-- Generator: Sketch 59.1 (86144) - https://sketch.com -->
    <title>mf-security-compliance-white</title>
    <desc>Created with Sketch.</desc>
    <g id="Page-1" stroke="none" stroke-width="1" fill="none" fill-rule="evenodd">
        <g id="mf-security-compliance-white" fill-rule="nonzero">
            <path d="M381.572008,73.1718131 C301.656695,73.1718131 213.607504,9.32383214 212.794117,8.71575613 L201,0 L189.205883,8.71575613 C188.392496,9.32383214 100.343306,73.1718131 20.4279918,73.1718131 L0.5,73.1718131 L0.5,333.225653 L0.703346849,334.441805 C0.906693717,335.86065 5.78701826,370.318289 32.8321501,409.032462 C57.2337729,444.098179 105.630324,490.311956 196.526369,510.986541 L201,512 L205.473631,510.986541 C296.369676,490.311956 344.766226,444.098179 369.16785,409.032462 C396.212981,370.318289 401.093305,335.86065 401.296654,334.441805 L401.5,333.225653 L401.5,73.1718131 L381.572008,73.1718131 Z M373.03144,361.197149 C357.373733,399.911322 314.264199,466.191607 201,491.933492 C87.7358012,466.191607 44.8296146,399.708631 28.9685598,361.197149 C23.0715011,347.008709 20.2246451,331.80681 20.2246451,316.402217 L20.2246451,93.0356294 C108.070487,93.0356294 201,24.7284244 201,24.7284244 C201,24.7284244 293.929514,93.0356294 381.572008,93.0356294 L381.572008,316.199524 C381.572008,331.604117 378.725151,346.806018 373.03144,361.197149 Z" id="Shape" fill="#FFFFFF"></path>
            <path d="M209.461654,481 L208.044039,475.319407 C209.866687,474.913648 211.891851,474.305013 213.714501,473.899257 L215.334631,479.579852 C213.309467,479.985608 211.284302,480.594244 209.461654,481 Z M199.740863,480.594244 C197.715698,480.188487 195.89305,479.579852 193.867885,479.174094 L195.285499,473.493501 C197.108149,473.899257 199.133313,474.507892 200.955961,474.913648 L199.740863,480.594244 Z M222.422708,477.551067 L220.802577,471.870474 C222.625225,471.261838 224.650389,470.653203 226.473038,470.247447 L228.295686,475.92804 C226.270521,476.536675 224.245357,476.942434 222.422708,477.551067 Z M186.172259,477.34819 C184.147094,476.739554 182.324446,476.130919 180.501798,475.522284 L182.324446,469.84169 C184.147094,470.450326 185.969742,471.058959 187.994907,471.667595 L186.172259,477.34819 Z M233.966148,473.899257 L232.1435,468.218663 C233.966148,467.610028 235.788796,467.001393 237.611444,466.18988 L239.636609,471.870474 C237.81396,472.681986 235.788796,473.290622 233.966148,473.899257 Z M173.616237,473.493501 C171.793589,472.884865 169.768424,472.073353 167.945776,471.464717 L169.970941,465.987001 C171.793589,466.595636 173.616237,467.407149 175.438886,468.015784 L173.616237,473.493501 Z M245.712104,469.638811 L243.484421,464.161095 C245.307071,463.349583 247.129719,462.740947 248.952367,461.929433 L251.180048,467.407149 C249.3574,468.218663 247.534752,468.827299 245.712104,469.638811 Z M161.060216,468.827299 C159.237567,468.015784 157.414919,467.204272 155.592271,466.392757 L158.022469,460.915041 C159.845117,461.726556 161.667765,462.538068 163.490414,463.146703 L161.060216,468.827299 Z M256.850509,464.76973 L254.420311,459.292014 C256.242961,458.480502 258.065609,457.668987 259.685739,456.857475 L262.115938,462.335191 C260.495805,463.146703 258.673157,463.958218 256.850509,464.76973 Z M149.516777,463.755339 C147.694128,462.943826 145.87148,462.132312 144.048832,461.11792 L146.681546,455.843083 C148.504194,456.654596 150.124326,457.46611 151.946974,458.277623 L149.516777,463.755339 Z M267.786399,459.697772 L265.153685,454.422933 C266.976333,453.611421 268.596465,452.597029 270.419113,451.785515 L273.254343,457.060352 C271.431695,457.871866 269.609047,458.683379 267.786399,459.697772 Z M137.973337,458.277623 C136.150689,457.263231 134.328041,456.451718 132.707909,455.437325 L135.54314,450.162488 C137.163271,451.176879 138.98592,451.988394 140.808568,453.002785 L137.973337,458.277623 Z M278.519772,454.017177 L275.684542,448.74234 C277.304674,447.727948 279.127322,446.713557 280.747453,445.902042 L283.7852,450.974002 C281.962552,451.988394 280.342422,453.002785 278.519772,454.017177 Z M127.037448,451.988394 C125.214799,450.974002 123.594667,449.959611 121.974536,448.945219 L125.214799,443.873259 C126.834931,444.887651 128.455063,445.902042 130.277711,446.916434 L127.037448,451.988394 Z M288.848113,447.727948 L285.60785,442.655988 C287.22798,441.641597 288.848113,440.627205 290.468245,439.409935 L293.708508,444.279015 C292.290893,445.699165 290.670761,446.713557 288.848113,447.727948 Z M116.101558,445.496286 C114.481426,444.279015 112.861294,443.264624 111.038646,442.047353 L114.481426,437.178272 C116.101558,438.395543 117.72169,439.409935 119.341821,440.424326 L116.101558,445.496286 Z M298.973936,441.032961 L295.531156,436.163881 C297.151288,434.946612 298.771421,433.932218 300.189036,432.714949 L303.834332,437.381151 C302.214199,438.801299 300.594069,440.01857 298.973936,441.032961 Z M106.380767,438.598422 C104.760635,437.381151 103.140503,436.163881 101.520371,434.946612 L105.165668,430.280408 C106.7858,431.497679 108.203415,432.714949 109.823547,433.932218 L106.380767,438.598422 Z M308.492211,433.729341 L304.846914,429.063139 C306.467046,427.845869 307.884661,426.628598 309.302278,425.411327 L313.150089,429.874652 C311.732474,431.2948 310.112342,432.51207 308.492211,433.729341 Z M96.0524266,430.280408 C94.4322947,429.063139 93.0146795,427.64299 91.5970642,426.222842 L95.6473936,421.759517 C97.0650089,422.976788 98.4826244,424.396936 100.102756,425.614206 L96.0524266,430.280408 Z M317.807969,426.019963 L313.75764,421.556638 C315.175255,420.339369 316.59287,418.919219 318.010485,417.499072 L322.060815,421.759517 C320.643199,423.179665 319.225584,424.599815 317.807969,426.019963 Z M86.9391851,422.165273 C85.5215698,420.745125 84.1039545,419.324978 82.6863391,417.904828 L86.9391851,413.644382 C88.3568005,415.064532 89.7744158,416.48468 91.1920311,417.701951 L86.9391851,422.165273 Z M326.516178,417.499072 L322.263331,413.238626 C323.680946,411.818478 324.896045,410.398328 326.31366,408.97818 L330.769024,413.035747 C329.148892,414.658774 327.933793,416.078924 326.516178,417.499072 Z M78.433493,413.441505 C77.0158778,412.021355 75.8007789,410.398328 74.3831636,408.97818 L78.8385261,405.123491 C80.0536249,406.543639 81.4712403,407.963789 82.6863391,409.586816 L78.433493,413.441505 Z M334.616836,408.572424 L330.161474,404.717735 C331.376573,403.297585 332.591672,401.674558 334.009287,400.25441 L338.667167,403.906221 C337.24955,405.529247 335.831935,407.152274 334.616836,408.572424 Z M70.5353505,404.311977 C69.3202516,402.688952 68.1051528,401.065925 66.8900539,399.645775 L71.5479328,395.993965 C72.7630318,397.616992 73.9781307,399.03714 75.1932294,400.660167 L70.5353505,404.311977 Z M342.109945,399.240019 L337.452068,395.588209 C338.667167,393.965182 339.882264,392.545032 340.894848,390.922005 L345.755243,394.370938 C344.540144,395.993965 343.325045,397.616992 342.109945,399.240019 Z M63.2447574,394.573817 L62.6372079,393.762303 C61.6246255,392.342155 60.6120432,390.922005 59.8019772,389.501857 L64.8648892,386.255803 C65.674955,387.675951 66.6875374,389.096101 67.7001199,390.313371 L68.1051528,390.922005 L63.2447574,394.573817 Z M349.198024,389.298978 L344.135111,386.052924 C345.147693,384.429897 346.362792,382.80687 347.375374,381.183843 L352.438286,384.22702 C351.425705,385.850047 350.210605,387.675951 349.198024,389.298978 Z M56.5617135,384.632776 C55.5491312,382.80687 54.5365488,381.183843 53.5239664,379.357939 L58.7893948,376.314764 C59.8019772,377.937791 60.8145595,379.560816 61.8271421,381.386722 L56.5617135,384.632776 Z M355.476034,378.952183 L350.210605,376.111885 C351.223187,374.285979 352.033253,372.662952 353.045835,371.039925 L358.311264,373.880223 C357.501199,375.50325 356.488616,377.126277 355.476034,378.952183 Z M50.6887357,374.083102 C49.6761533,372.257196 48.8660875,370.43129 48.0560215,368.605386 L53.3214501,365.967967 C54.1315159,367.590994 54.9415817,369.416898 55.9541642,371.242804 L50.6887357,374.083102 Z M361.146495,368.199629 L355.678549,365.562209 C356.488616,363.736305 357.298682,361.910399 358.108748,360.287372 L363.576692,362.721913 C362.766628,364.547817 361.956561,366.373723 361.146495,368.199629 Z M45.4233073,363.127669 C44.6132415,361.098886 43.8031755,359.27298 42.9931097,357.447076 L48.4610546,355.215414 C49.068604,357.041318 49.8786699,358.664345 50.6887357,360.69313 L45.4233073,363.127669 Z M366.006891,357.041318 L360.538945,354.809656 C361.349011,352.983751 361.956561,351.157845 362.56411,349.331941 L368.234572,351.360724 C367.424505,353.186629 366.816957,355.215414 366.006891,357.041318 Z M40.7654284,351.766481 C39.9553626,349.737697 39.3478131,347.708914 38.7402636,346.085887 L44.4107249,344.259981 C45.0182744,345.883008 45.6258239,347.911791 46.2333733,349.737697 L40.7654284,351.766481 Z M370.05722,345.680129 L364.386758,343.854225 C364.994309,341.825442 365.601857,339.796657 366.006891,338.17363 L371.677352,339.593779 C371.272319,341.622563 370.66477,343.651346 370.05722,345.680129 Z M37.3226484,340.202415 C36.7150989,338.17363 36.3100658,336.144847 35.9050329,334.318942 L41.7780107,333.101672 C42.1830437,334.927576 42.5880767,336.753482 43.1956262,338.782265 L37.3226484,340.202415 Z M373.094967,333.710307 L367.22199,332.493036 C367.22199,332.08728 367.424505,331.478645 367.424505,331.275766 L367.424505,327.218199 L373.297484,327.218199 L373.297484,332.08728 C373.297484,332.493036 373.297484,333.101672 373.094967,333.710307 Z M41.3729778,327.623955 L35.5,327.623955 L35.5,321.740483 L41.3729778,321.740483 L41.3729778,327.623955 Z M373.5,321.334727 L367.627023,321.334727 L367.627023,315.451254 L373.5,315.451254 L373.5,321.334727 Z M41.3729778,315.85701 L35.5,315.85701 L35.5,309.973538 L41.3729778,309.973538 L41.3729778,315.85701 Z M373.5,309.364903 L367.627023,309.364903 L367.627023,303.48143 L373.5,303.48143 L373.5,309.364903 Z M41.3729778,303.887186 L35.5,303.887186 L35.5,298.003714 L41.3729778,298.003714 L41.3729778,303.887186 Z M373.5,297.395079 L367.627023,297.395079 L367.627023,291.511606 L373.5,291.511606 L373.5,297.395079 Z M41.3729778,291.917362 L35.5,291.917362 L35.5,286.03389 L41.3729778,286.03389 L41.3729778,291.917362 Z M373.5,285.628134 L367.627023,285.628134 L367.627023,279.744661 L373.5,279.744661 L373.5,285.628134 Z M41.3729778,279.94754 L35.5,279.94754 L35.5,274.064068 L41.3729778,274.064068 L41.3729778,279.94754 Z M373.5,273.65831 L367.627023,273.65831 L367.627023,267.774837 L373.5,267.774837 L373.5,273.65831 Z M41.3729778,267.977716 L35.5,267.977716 L35.5,262.094244 L41.3729778,262.094244 L41.3729778,267.977716 Z M373.5,261.688487 L367.627023,261.688487 L367.627023,255.805013 L373.5,255.805013 L373.5,261.688487 Z M41.3729778,256.210771 L35.5,256.210771 L35.5,250.327299 L41.3729778,250.327299 L41.3729778,256.210771 Z M373.5,249.718663 L367.627023,249.718663 L367.627023,243.835191 L373.5,243.835191 L373.5,249.718663 Z M41.3729778,244.240947 L35.5,244.240947 L35.5,238.357475 L41.3729778,238.357475 L41.3729778,244.240947 Z M373.5,237.748839 L367.627023,237.748839 L367.627023,231.865367 L373.5,231.865367 L373.5,237.748839 Z M41.3729778,232.271123 L35.5,232.271123 L35.5,226.387651 L41.3729778,226.387651 L41.3729778,232.271123 Z M373.5,225.981894 L367.627023,225.981894 L367.627023,220.098422 L373.5,220.098422 L373.5,225.981894 Z M41.3729778,220.301299 L35.5,220.301299 L35.5,214.417827 L41.3729778,214.417827 L41.3729778,220.301299 Z M373.5,214.01207 L367.627023,214.01207 L367.627023,208.128598 L373.5,208.128598 L373.5,214.01207 Z M41.3729778,208.331477 L35.5,208.331477 L35.5,202.448004 L41.3729778,202.448004 L41.3729778,208.331477 Z M373.5,202.042246 L367.627023,202.042246 L367.627023,196.158774 L373.5,196.158774 L373.5,202.042246 Z M41.3729778,196.564532 L35.5,196.564532 L35.5,190.681058 L41.3729778,190.681058 L41.3729778,196.564532 Z M373.5,190.072424 L367.627023,190.072424 L367.627023,184.188952 L373.5,184.188952 L373.5,190.072424 Z M41.3729778,184.594708 L35.5,184.594708 L35.5,178.711235 L41.3729778,178.711235 L41.3729778,184.594708 Z M373.5,178.1026 L367.627023,178.1026 L367.627023,172.219127 L373.5,172.219127 L373.5,178.1026 Z M41.3729778,172.624884 L35.5,172.624884 L35.5,166.741411 L41.3729778,166.741411 L41.3729778,172.624884 Z M373.5,166.94429 L367.627023,166.94429 L367.627023,161.060817 L373.5,161.060817 L373.5,166.94429 Z M41.3729778,160.65506 L35.5,160.65506 L35.5,154.771588 L41.3729778,154.771588 L41.3729778,160.65506 Z M373.5,155.78598 L367.627023,155.78598 L367.627023,149.902507 L373.5,149.902507 L373.5,155.78598 Z M41.3729778,148.685237 L35.5,148.685237 L35.5,142.801764 L41.3729778,142.801764 L41.3729778,148.685237 Z M373.5,144.424791 L367.627023,144.424791 L367.627023,138.541318 L373.5,138.541318 L373.5,144.424791 Z M41.3729778,136.918291 L35.5,136.918291 L35.5,131.034819 L41.3729778,131.034819 L41.3729778,136.918291 Z M373.5,133.266481 L367.627023,133.266481 L367.627023,127.383008 L373.5,127.383008 L373.5,133.266481 Z M41.3729778,124.948468 L35.5,124.948468 L35.5,119.064995 L41.3729778,119.064995 L41.3729778,124.948468 Z M373.5,122.108171 L367.627023,122.108171 L367.627023,116.224698 L373.5,116.224698 L373.5,122.108171 Z M41.3729778,111.964253 L35.5,111.964253 L35.5,105.269267 L41.3729778,105.066388 L41.3729778,111.964253 Z M373.297484,110.949861 C371.272319,110.949861 369.247153,110.949861 367.22199,110.746982 L367.424505,104.86351 C369.449671,104.86351 371.272319,105.066388 373.297484,105.066388 L373.297484,110.949861 Z M46.6384062,110.746982 L46.0308568,104.86351 C48.0560215,104.660631 49.8786699,104.457753 51.9038346,104.254875 L52.5113841,110.138347 C50.6887357,110.341226 48.663571,110.544104 46.6384062,110.746982 Z M359.72888,110.341226 C357.703715,110.138347 355.678549,109.732591 353.653386,109.529712 L354.463452,103.64624 C356.488616,103.849118 358.311264,104.254875 360.336429,104.457753 L359.72888,110.341226 Z M57.7768124,109.326834 L56.9667466,103.443361 C58.7893948,103.240483 60.8145595,102.834726 62.8397245,102.428969 L63.8523068,108.312442 C61.6246255,108.718199 59.8019772,108.921077 57.7768124,109.326834 Z M347.172858,108.718199 C345.147693,108.312442 343.122529,107.906685 341.299881,107.500928 L342.514978,101.617456 C344.337626,102.023213 346.362792,102.428969 348.387957,102.631848 L347.172858,108.718199 Z M69.7252847,107.095172 L68.5101857,101.211699 C70.3328341,100.805942 72.3579988,100.400186 74.180647,99.994429 L75.3957459,105.877902 C73.5730976,106.283658 71.5479328,106.689415 69.7252847,107.095172 Z M335.224386,106.486537 C333.199221,106.08078 331.376573,105.675023 329.351408,105.066388 L330.769024,99.1829156 C332.591672,99.5886722 334.616836,100.197307 336.439484,100.603064 L335.224386,106.486537 Z M81.4712403,104.457753 L80.0536249,98.5742804 C81.8762732,98.1685236 83.901438,97.5598886 85.7240863,97.1541318 L87.3442182,102.834726 C85.3190533,103.443361 83.2938885,104.051996 81.4712403,104.457753 Z M322.465849,103.443361 C320.440683,102.834726 318.618035,102.428969 316.59287,101.820334 L318.213002,96.13974 C320.03565,96.7483751 322.060815,97.1541318 323.883463,97.7627669 L322.465849,103.443361 Z M93.0146795,101.414578 L91.3945476,95.5311048 C93.217196,94.9224699 95.2423607,94.3138347 97.0650089,93.7051996 L98.8876573,99.3857939 C96.8624926,100.197307 94.8373278,100.805942 93.0146795,101.414578 Z M310.517375,99.7915505 C308.694727,99.1829156 306.669563,98.5742804 304.846914,97.9656453 L306.669563,92.2850511 C308.492211,92.8936861 310.314859,93.5023212 312.340023,94.1109564 L310.517375,99.7915505 Z M104.355602,97.7627669 L102.532954,92.0821728 C104.355602,91.4735376 106.17825,90.8649025 108.203415,90.053389 L110.22858,95.7339833 C108.203415,96.3426183 106.380767,97.1541318 104.355602,97.7627669 Z M298.366388,95.5311048 C296.543738,94.9224699 294.518574,94.1109564 292.695926,93.5023212 L294.72109,87.8217271 C296.543738,88.430362 298.366388,89.2418755 300.189036,89.8505107 L298.366388,95.5311048 Z M115.696525,93.7051996 L113.67136,88.0246054 C115.494008,87.4159702 117.316657,86.6044568 119.139305,85.7929433 L121.366986,91.4735376 C119.544338,92.2850511 117.72169,92.8936861 115.696525,93.7051996 Z M287.025465,91.4735376 C285.202817,90.6620241 283.380167,90.053389 281.557519,89.2418755 L283.7852,83.7641597 C285.60785,84.5756732 287.430498,85.1843083 289.253146,85.9958218 L287.025465,91.4735376 Z M126.834931,89.2418755 L124.60725,83.7641597 C126.429898,82.9526462 128.252546,82.1411327 130.075195,81.5324978 L132.505392,87.0102136 C130.682744,87.6188487 128.657579,88.430362 126.834931,89.2418755 Z M275.887058,86.8073353 C274.06441,85.9958218 272.241761,85.1843083 270.419113,84.3727948 L272.84931,78.895079 C274.67196,79.7065925 276.494608,80.5181058 278.317256,81.3296192 L275.887058,86.8073353 Z M138.580887,84.3727948 L136.150689,78.895079 C137.973337,78.0835655 139.795986,77.272052 141.618634,76.4605386 L144.048832,81.9382544 C142.226183,82.7497679 140.403535,83.5612814 138.580887,84.3727948 Z M264.951168,81.7353761 C263.12852,80.9238626 261.305872,80.1123491 259.483224,79.0979573 L262.115938,73.8231198 C263.938586,74.6346333 265.558718,75.4461468 267.381366,76.4605386 L264.951168,81.7353761 Z M149.921809,78.895079 L147.289095,73.6202415 C149.111744,72.808728 150.731875,71.7943362 152.554524,70.9828227 L155.187238,76.2576602 C153.36459,77.0691737 151.541941,78.0835655 149.921809,78.895079 Z M254.217795,76.6634169 C252.395147,75.8519034 250.572499,74.8375116 248.952367,74.0259981 L251.787597,68.7511606 C253.610247,69.5626741 255.230377,70.5770659 257.053025,71.3885794 L254.217795,76.6634169 Z M161.667765,72.808728 L158.832534,67.5338905 C160.655183,66.5194987 162.275315,65.7079852 164.097963,64.6935932 L166.933194,69.9684307 C165.110545,70.9828227 163.490414,71.9972145 161.667765,72.808728 Z M242.269324,70.5770659 C240.446674,69.5626741 238.624026,68.7511606 237.003895,67.7367688 L239.839125,62.4619313 C241.459257,63.4763231 243.281905,64.2878366 245.104553,65.3022284 L242.269324,70.5770659 Z M173.413721,66.3166202 L170.57849,61.0417827 C172.401138,60.0273909 174.02127,59.0129991 175.843918,58.2014856 L178.881666,63.4763231 C177.059017,64.2878366 175.236369,65.3022284 173.413721,66.3166202 Z M231.738467,64.2878366 C229.915817,63.2734448 228.295686,62.259053 226.473038,61.2446612 L229.510786,56.172702 C231.130916,57.1870938 232.953564,58.2014856 234.573697,59.2158774 L231.738467,64.2878366 Z M184.754643,59.6216342 L181.716897,54.549675 C183.539545,53.5352832 185.159676,52.5208914 186.779808,51.5064996 L189.817555,56.5784586 C188.197423,57.5928504 186.577292,58.6072424 184.754643,59.6216342 Z M221.612643,58.2014856 C219.789993,57.1870938 218.169863,55.9698237 216.54973,55.1583102 L219.789993,50.086351 C221.410126,51.1007428 223.030258,52.1151346 224.852906,53.1295264 L221.612643,58.2014856 Z M211.284302,52.3180129 C209.461654,51.1007428 207.841522,50.086351 206.221389,49.0719592 L209.461654,44 C210.879269,45.0143918 212.701917,46.0287836 214.322049,47.2460539 L211.284302,52.3180129 Z M196.298083,52.7237697 L193.057818,47.6518106 C194.880468,46.4345404 196.500599,45.4201486 197.918214,44.4057566 L201.360994,49.2748375 C199.943379,50.2892293 198.120731,51.5064996 196.298083,52.7237697 Z" id="Shape" fill="#FFFFFF"></path>
            <path d="M278.5,414 L129.5,414 L129.5,113.284219 L131.203606,112.893679 C131.596746,112.763499 171.959103,103 203.934476,103 C236.040897,103 276.272208,112.893679 276.796393,112.893679 L278.5,113.284219 L278.5,414 Z M133.955585,409.57388 L274.044415,409.57388 L274.044415,116.799079 C266.050572,114.976559 231.847405,107.42612 204.065524,107.42612 C176.283641,107.42612 141.949428,114.976559 134.086631,116.799079 L134.086631,409.57388 L133.955585,409.57388 Z" id="Shape" fill="#FFFFFF"></path>
            <path d="M203.913628,152.282421 C175.624498,152.282421 151.598113,145.149856 139.972443,141 L139.972443,193.352424 L267.725638,193.352424 L267.725638,141 C256.229141,145.149856 232.202758,152.282421 203.913628,152.282421 Z M143.5,248 L149.015251,304.5344 C151.767023,333.488 154.408725,369.9296 154.738938,404 L252.261752,404 C252.591965,369.9296 255.233666,333.488 257.985438,304.5344 L264.5,248 L143.5,248 Z" id="Shape" fill="#E0E0E0"></path>
            <path d="M203.934476,147 C163.441073,147 131.072559,133.091988 130.810466,132.836795 L129.5,132.198813 L129.5,114.080119 L131.203606,113.697329 C131.596746,113.569733 171.959103,104 204.065524,104 C236.171944,104 276.403254,113.697329 276.796393,113.697329 L278.5,114.080119 L278.5,132.326409 L277.189534,132.964392 C276.665347,133.091988 244.296835,147 203.934476,147 Z M133.824538,129.519288 C140.245822,132.071217 168.945031,142.661721 203.80343,142.661721 C238.661829,142.661721 267.492085,132.071217 273.782323,129.519288 L273.782323,117.525223 C265.788478,115.738872 231.585312,108.338279 203.80343,108.338279 C176.021548,108.338279 141.687335,115.738872 133.824538,117.525223 L133.824538,129.519288 Z" id="Shape" fill="#4A555F"></path>
            <path d="M203.065217,138 C173.456522,138 148.282609,129.710526 138.5,126.026316 L138.5,121.421053 C150.5,118.789474 179.195651,113 203.065217,113 C226.934782,113 255.630434,118.789474 267.5,121.421053 L267.5,126.026316 C257.717391,129.710526 232.673913,138 203.065217,138 Z" id="Path" fill="#71CDE1"></path>
            <path d="M160.5,430 L129.5,430 L129.5,410 L160.5,410 L160.5,430 Z M133.68254,425.20548 L156.31746,425.20548 L156.31746,414.520547 L133.68254,414.520547 L133.68254,425.20548 Z" id="Shape" fill="#FFFFFF"></path>
            <path d="M276.5,430 L245.5,430 L245.5,410 L276.5,410 L276.5,430 Z M249.682539,425.20548 L272.317461,425.20548 L272.317461,414.520547 L249.682539,414.520547 L249.682539,425.20548 Z" id="Shape" fill="#FFFFFF"></path>
            <path d="M278.5,243 L129.5,243 L129.5,197 L278.5,197 L278.5,243 Z M133.955585,238.556818 L274.044415,238.556818 L274.044415,201.573863 L133.955585,201.573863 L133.955585,238.556818 Z" id="Shape" fill="#FFFFFF"></path>
            <rect id="Rectangle" fill="#666288" x="139.5" y="207" width="129" height="27"></rect>
            <path d="M203.934476,147 C163.441073,147 131.072559,133.091988 130.810466,132.836795 L129.5,132.198813 L129.5,114.080119 L131.203606,113.697329 C131.596746,113.569733 171.959103,104 204.065524,104 C236.171944,104 276.403254,113.697329 276.796393,113.697329 L278.5,114.080119 L278.5,132.326409 L277.189534,132.964392 C276.665347,133.091988 244.296835,147 203.934476,147 Z M133.824538,129.519288 C140.245822,132.071217 168.945031,142.661721 203.80343,142.661721 C238.661829,142.661721 267.492085,132.071217 273.782323,129.519288 L273.782323,117.525223 C265.788478,115.738872 231.585312,108.338279 203.80343,108.338279 C176.021548,108.338279 141.687335,115.738872 133.824538,117.525223 L133.824538,129.519288 Z" id="Shape" fill="#FFFFFF"></path>
            <path d="M203.065217,138 C173.456522,138 148.282609,129.710526 138.5,126.026316 L138.5,121.421053 C150.5,118.789474 179.195651,113 203.065217,113 C226.934782,113 255.630434,118.789474 267.5,121.421053 L267.5,126.026316 C257.717391,129.710526 232.673913,138 203.065217,138 Z" id="Path" fill="#666288"></path>
            <rect id="Rectangle" fill="#FFD452" x="152.5" y="160" width="103" height="17"></rect>
            <path d="M257.5,179 L149.5,179 L149.5,158 L257.5,158 L257.5,179 Z M153.978049,174.5375 L253.021951,174.5375 L253.021951,162.59375 L153.978049,162.59375 L153.978049,174.5375 L153.978049,174.5375 Z" id="Shape" fill="#343A40"></path>
            <path d="M148.5,412 L144.22028,412 C144.22028,335.636363 130.625874,243.558442 130.5,242.64935 L134.77972,242 C134.905594,242.90909 148.5,335.246754 148.5,412 Z" id="Path" stroke="#FFFFFF" fill="#FFFFFF"></path>
            <path d="M262.77972,412 L258.5,412 C258.5,335.246754 272.094406,242.90909 272.22028,242 L276.5,242.64935 C276.374126,243.558442 262.77972,335.636363 262.77972,412 Z" id="Path" stroke="#FFFFFF" fill="#FFFFFF"></path>
            <g id="Lock" transform="translate(161.500000, 265.000000)">
                <ellipse id="Oval" fill="#EC8D53" cx="40.5978261" cy="81.7681159" rx="38.7934783" ry="38.6376812"></ellipse>
                <path d="M41.5,43.1304348 C18.6170898,43.1304348 0,61.2691226 0,83.5648689 C0,105.861312 18.6170898,124 41.5,124 C64.3829102,124 83,105.861312 83,83.5648689 C83,61.2698195 64.3821948,43.1304348 41.5,43.1304348 Z M41.5,119.291595 C21.2826016,119.291595 4.83311786,103.264893 4.83311786,83.5655658 C4.83311786,63.8669356 21.2826016,47.8402342 41.5,47.8402342 C61.7173984,47.8402342 78.1668822,63.8669356 78.1668822,83.5655658 C78.1668822,103.264893 61.7173984,119.291595 41.5,119.291595 Z" id="Shape" stroke="#343A40" fill="#343A40"></path>
                <polygon id="Path-6" fill="#FFFFFF" points="9.92391304 56.6086957 12.0175319 25.9236472 22.9631454 8.00936579 42.4021739 1.90222437 61.9381156 8.00936579 71.2717391 25.9236472 72.6443827 47.8402342 72.6443827 58.8004253 58.5540825 47.8402342 56.8704357 28.2104563 43.3043478 16.125651 30.2298742 21.3397022 22.9631454 34.9825738 22.9631454 49.9450703"></polygon>
                <path d="M41.4918305,0 C22.5931859,0 7.2173913,15.2346388 7.2173913,33.9601239 L7.2173913,61.0363439 L11.593426,62.3849841 C14.9337044,57.585598 19.4475557,53.6184712 24.6405449,50.9176734 C24.9808243,50.741091 25.3218139,50.5820962 25.6620934,50.4209911 L27.0288937,48.2759708 L27.0288937,33.9608274 C27.0288937,26.0540113 33.5162231,19.6224681 41.4904097,19.6224681 C49.4745418,19.6224681 55.9703959,26.0547147 55.9703959,33.9608274 L55.9703959,48.1549662 L57.2782334,50.2711423 L57.5957802,50.418177 C58.5441577,50.8508394 59.4975082,51.3672201 60.4174701,51.9490278 L61.3281968,52.5378707 C65.2062444,55.0029907 68.697837,58.3214757 71.4257547,62.1352358 L71.6644475,61.966392 L74.4563008,62.8985507 L75.1283347,60.9111181 L75.7826087,60.7612691 L75.7826087,33.961531 C75.7847398,15.2346388 60.4018413,0 41.4918305,0 Z M70.9853096,54.2340478 C68.8356536,52.0707361 66.4622231,50.1515445 63.9545279,48.5573773 L63.0089919,47.9474288 C62.2701809,47.4795907 61.5150307,47.0483354 60.7719573,46.6656227 L60.7719573,33.9601239 C60.7719573,23.4334142 52.1228952,14.8688105 41.4918305,14.8688105 C30.8707113,14.8688105 22.2308844,23.4334142 22.2308844,33.9601239 L22.2308844,46.8028084 C18.4530024,48.7923515 15.0004816,51.3714412 12.0175319,54.4106303 L12.0175319,33.9594205 C12.0175319,17.8545323 25.2401185,4.75295404 41.4918305,4.75295404 C57.7549087,4.75295404 70.9853096,17.8552359 70.9853096,33.9594205 L70.9853096,54.2340478 Z" id="Shape" stroke="#343A40" fill="#343A40"></path>
                <path d="M45.5374883,81.313167 C47.7814943,79.9220464 49.3020123,77.3942445 49.3020123,74.4730294 C49.3020123,70.0659702 45.8780313,66.4927536 41.6550332,66.4927536 C37.4313725,66.4927536 34.0080543,70.0659702 34.0080543,74.4730294 C34.0080543,77.2884585 35.4119659,79.7505761 37.5214773,81.1714276 L32.4782609,97.0434783 L50.5217391,97.0434783 L45.5374883,81.313167 Z" id="Path" fill="#FFFFFF"></path>
            </g>
        </g>
    </g>
</svg>