<?xml version="1.0" encoding="UTF-8"?>
<svg width="788px" height="457px" viewBox="0 0 788 457" version="1.1" xmlns="http://www.w3.org/2000/svg" xmlns:xlink="http://www.w3.org/1999/xlink">
    <!-- Generator: Sketch 59.1 (86144) - https://sketch.com -->
    <title>mf-scaleability-white</title>
    <desc>Created with Sketch.</desc>
    <g id="Page-1" stroke="none" stroke-width="1" fill="none" fill-rule="evenodd">
        <g id="mf-scaleability-white" transform="translate(0.000000, 4.000000)">
            <g id="Group" transform="translate(0.500000, 327.000000)" fill-rule="nonzero">
                <path d="M217.875429,72.0860927 L0,72.0860927 L0,0.621192053 L217.750857,0.621192053 L217.750857,72.0860927 L217.875429,72.0860927 Z M7.34971429,64.615894 L210.401143,64.615894 L210.401143,7.84238411 L7.34971429,7.84238411 L7.34971429,64.615894 Z" id="Shape" fill="#FFFFFF"></path>
                <rect id="Rectangle" fill="#666288" x="16.9417143" y="17.0556291" width="184.365714" height="38.4715232"></rect>
                <path d="M35.2537143,47.6834437 C29.0251429,47.6834437 23.9177143,42.5788079 23.9177143,36.3536424 C23.9177143,30.1284768 29.0251429,25.0238411 35.2537143,25.0238411 C41.4822857,25.0238411 46.5897143,30.1284768 46.5897143,36.3536424 C46.5897143,42.5788079 41.6068571,47.6834437 35.2537143,47.6834437 Z M35.2537143,32.3695364 C33.0114286,32.3695364 31.2674286,34.1125828 31.2674286,36.3536424 C31.2674286,38.594702 33.0114286,40.3377483 35.2537143,40.3377483 C37.496,40.3377483 39.24,38.594702 39.24,36.3536424 C39.24,34.1125828 37.496,32.3695364 35.2537143,32.3695364 Z" id="Shape" fill="#FFFFFF"></path>
                <path d="M187.355429,47.6834437 C181.126857,47.6834437 176.019429,42.5788079 176.019429,36.3536424 C176.019429,30.1284768 181.126857,25.0238411 187.355429,25.0238411 C193.584,25.0238411 198.691429,30.1284768 198.691429,36.3536424 C198.691429,42.5788079 193.584,47.6834437 187.355429,47.6834437 Z M187.355429,32.3695364 C185.113143,32.3695364 183.369143,34.1125828 183.369143,36.3536424 C183.369143,38.594702 185.113143,40.3377483 187.355429,40.3377483 C189.597714,40.3377483 191.341714,38.594702 191.341714,36.3536424 C191.341714,34.1125828 189.597714,32.3695364 187.355429,32.3695364 Z" id="Shape" fill="#FFFFFF"></path>
                <path d="M60.168,105.701987 L39.24,105.701987 L39.24,64.7403974 L60.168,64.7403974 L60.168,105.701987 Z M46.7142857,98.2317881 L52.8182857,98.2317881 L52.8182857,71.9615894 L46.7142857,71.9615894 L46.7142857,98.2317881 Z" id="Shape" fill="#FFFFFF"></path>
                <path d="M172.780571,105.701987 L151.852571,105.701987 L151.852571,64.7403974 L172.780571,64.7403974 L172.780571,105.701987 Z M159.202286,98.2317881 L165.306286,98.2317881 L165.306286,71.9615894 L159.202286,71.9615894 L159.202286,98.2317881 Z" id="Shape" fill="#FFFFFF"></path>
                <path d="M217.875429,124.62649 L0,124.62649 L0,98.2317881 L217.750857,98.2317881 L217.750857,124.62649 L217.875429,124.62649 Z M7.34971429,117.280795 L210.401143,117.280795 L210.401143,105.701987 L7.34971429,105.701987 L7.34971429,117.280795 Z" id="Shape" fill="#FFFFFF"></path>
            </g>
            <rect id="Rectangle" x="269.5" y="413" width="18" height="36"></rect>
            <rect id="Rectangle" x="463.5" y="413" width="18" height="36"></rect>
            <path d="M505.5,265.25 L241.5,265.25 L241.5,180.25 L505.5,180.25 L505.5,265.25 Z M248.971698,257.75 L499.273585,257.75 L499.273585,187.75 L248.971698,187.75 L248.971698,257.75 Z" id="Shape" fill="#FFFFFF" fill-rule="nonzero"></path>
            <path d="M256.5,195.463761 L256.5,249.251163 L489.5,249.251163 L489.5,195.251163 L256.5,195.251163 L256.5,195.463761 Z M285.884186,232.925581 C280.109239,232.925581 275.18984,228.181395 275.18984,222.14334 C275.18984,216.32093 279.895352,211.576744 285.884186,211.576744 C291.659133,211.576744 296.364645,216.32093 296.364645,222.14334 C296.578532,228.181395 291.87302,232.925581 285.884186,232.925581 Z M469.564171,232.925581 L315.061497,232.925581 L315.061497,211.576744 L469.564171,211.576744 L469.564171,232.925581 L469.564171,232.925581 Z" id="Shape" fill="#CBCBCB" fill-rule="nonzero"></path>
            <path d="M505.5,341.250746 L241.5,341.250746 L241.5,257.250746 L505.5,257.250746 L505.5,341.250746 Z M248.971698,333.728358 L499.273585,333.728358 L499.273585,263.519403 L248.971698,263.519403 L248.971698,333.728358 Z" id="Shape" fill="#FFFFFF" fill-rule="nonzero"></path>
            <path d="M256.5,272.251163 L256.5,326.251163 L489.5,326.251163 L489.5,272.251163 L256.5,272.251163 Z M285.884186,309.925581 C280.109239,309.925581 275.18984,305.181395 275.18984,299.358985 C275.18984,293.536575 279.895352,288.576744 285.884186,288.576744 C291.659133,288.576744 296.364645,293.32093 296.364645,299.358985 C296.578532,305.181395 291.87302,309.925581 285.884186,309.925581 Z M469.564171,309.925581 L315.061497,309.925581 L315.061497,288.576744 L469.564171,288.576744 L469.564171,309.925581 L469.564171,309.925581 Z" id="Shape" fill="#CBCBCB" fill-rule="nonzero"></path>
            <path d="M505.5,419.250746 L241.5,419.250746 L241.5,335.250746 L505.5,335.250746 L505.5,419.250746 Z M248.971698,411.728358 L499.273585,411.728358 L499.273585,341.519403 L248.971698,341.519403 L248.971698,411.728358 Z" id="Shape" fill="#FFFFFF" fill-rule="nonzero"></path>
            <path d="M256.5,350.251163 L256.5,404.251163 L489.5,404.251163 L489.5,350.251163 L256.5,350.251163 Z M285.884186,387.925581 C280.109239,387.925581 275.18984,383.181395 275.18984,377.358985 C275.18984,371.536575 279.895352,366.576744 285.884186,366.576744 C291.659133,366.576744 296.364645,371.32093 296.364645,377.358985 C296.578532,383.181395 291.87302,387.925581 285.884186,387.925581 Z M469.564171,387.925581 L315.061497,387.925581 L315.061497,366.576744 L469.564171,366.576744 L469.564171,387.925581 L469.564171,387.925581 Z" id="Shape" fill="#CBCBCB" fill-rule="nonzero"></path>
            <path d="M287,236.252174 C278.992537,236.252174 272.5,229.759637 272.5,221.752174 C272.5,213.744711 278.992537,207.252174 287,207.252174 C295.007463,207.252174 301.5,213.744711 301.5,221.752174 C301.5,229.759637 295.007463,236.252174 287,236.252174 Z M287,214.817391 C283.099185,214.817391 280.065217,218.068071 280.065217,221.752174 C280.065217,225.436277 283.315897,228.686957 287,228.686957 C290.900815,228.686957 293.934783,225.436277 293.934783,221.752174 C293.934783,218.068071 290.900815,214.817391 287,214.817391 Z" id="Shape" fill="#FFFFFF" fill-rule="nonzero"></path>
            <path d="M474.290427,236.245455 L312.5,236.245455 L312.5,209.245455 L474.5,209.245455 L474.5,236.245455 L474.290427,236.245455 Z M319.976923,228.881818 L467.023077,228.881818 L467.023077,215.381818 L319.976923,215.381818 L319.976923,228.881818 Z" id="Shape" fill="#FFFFFF" fill-rule="nonzero"></path>
            <path d="M287,314.252174 C278.992537,314.252174 272.5,307.759637 272.5,299.752174 C272.5,291.744711 278.992537,285.252174 287,285.252174 C295.007463,285.252174 301.5,291.744711 301.5,299.752174 C301.5,307.759637 295.007463,314.252174 287,314.252174 Z M286.994881,292.817391 C283.096945,292.817391 280.065217,296.068071 280.065217,299.752174 C280.065217,303.652989 283.313497,306.686957 286.994881,306.686957 C290.892816,306.686957 293.924544,303.436277 293.924544,299.752174 C294.141096,296.068071 290.892816,292.817391 286.994881,292.817391 Z" id="Shape" fill="#FFFFFF" fill-rule="nonzero"></path>
            <path d="M474.290427,314.252174 L312.5,314.252174 L312.5,285.252174 L474.5,285.252174 L474.5,314.252174 L474.290427,314.252174 Z M319.976923,306.686957 L467.023077,306.686957 L467.023077,292.817391 L319.976923,292.817391 L319.976923,306.686957 Z" id="Shape" fill="#FFFFFF" fill-rule="nonzero"></path>
            <path d="M287,391.252174 C278.992537,391.252174 272.5,384.759637 272.5,376.752174 C272.5,368.744711 278.992537,362.252174 287,362.252174 C295.007463,362.252174 301.5,368.744711 301.5,376.752174 C301.5,384.759637 295.007463,391.252174 287,391.252174 Z M286.994881,369.817391 C283.096945,369.817391 280.065217,373.068071 280.065217,376.752174 C280.065217,380.652989 283.313497,383.686957 286.994881,383.686957 C290.892816,383.686957 293.924544,380.436277 293.924544,376.752174 C294.141096,373.068071 290.892816,369.817391 286.994881,369.817391 Z" id="Shape" fill="#FFFFFF" fill-rule="nonzero"></path>
            <path d="M474.290427,391.252174 L312.5,391.252174 L312.5,362.252174 L474.5,362.252174 L474.5,391.252174 L474.290427,391.252174 Z M319.976923,383.686957 L467.023077,383.686957 L467.023077,369.817391 L319.976923,369.817391 L319.976923,383.686957 Z" id="Shape" fill="#FFFFFF" fill-rule="nonzero"></path>
            <path d="M289.298165,451.251613 L267.5,451.251613 L267.5,412.251613 L289.5,412.251613 L289.5,451.251613 L289.298165,451.251613 Z M273.611111,443.703226 L282.166667,443.703226 L282.166667,418.541935 L273.611111,418.541935 L273.611111,443.703226 Z" id="Shape" fill="#FFFFFF" fill-rule="nonzero"></path>
            <path d="M481.5,451.251613 L459.5,451.251613 L459.5,412.251613 L481.5,412.251613 L481.5,451.251613 Z M466.833333,443.703226 L475.388889,443.703226 L475.388889,418.541935 L466.833333,418.541935 L466.833333,443.703226 Z" id="Shape" fill="#FFFFFF" fill-rule="nonzero"></path>
            <rect id="Rectangle" fill="#FFFFFF" fill-rule="nonzero" x="247.5" y="445" width="254" height="7"></rect>
            <g id="Group-2" transform="translate(530.500000, 297.000000)">
                <rect id="Rectangle" stroke="#FFFFFF" stroke-width="7" x="0" y="0.21443866" width="254" height="75.7580645" rx="8"></rect>
                <rect id="Rectangle" fill="#EC8D53" fill-rule="nonzero" x="125.754902" y="16.3596" width="112.058824" height="45.9516129"></rect>
                <path d="M38.5980392,53.5901676 C30.9718137,53.5901676 24.9019608,47.3804902 24.9019608,39.9288773 C24.9019608,32.3220225 31.127451,26.267587 38.5980392,26.267587 C46.0686274,26.267587 52.2941176,32.4772644 52.2941176,39.9288773 C52.2941176,47.3804902 46.0686274,53.5901676 38.5980392,53.5901676 Z M38.5980392,34.9611354 C35.7758169,34.9611354 33.6176471,37.279415 33.6176471,39.9288773 C33.6176471,42.743931 35.94183,44.8966193 38.5980392,44.8966193 C41.4202613,44.8966193 43.5784314,42.5783397 43.5784314,39.9288773 C43.5784314,37.1138236 41.2542484,34.9611354 38.5980392,34.9611354 Z" id="Shape" fill="#FFFFFF" fill-rule="nonzero"></path>
                <path d="M221.004902,53.5901676 C213.725324,53.5901676 207.931373,47.3804902 207.931373,39.9288773 C207.931373,32.3220225 213.873887,26.267587 221.004902,26.267587 C228.284482,26.267587 234.078431,32.4772644 234.078431,39.9288773 C234.078431,47.3804902 228.284482,53.5901676 221.004902,53.5901676 Z M221.004901,34.9611354 C218.535458,34.9611354 216.647059,37.279415 216.647059,39.9288773 C216.647059,42.743931 218.680719,44.8966193 221.004901,44.8966193 C223.474346,44.8966193 225.362745,42.5783397 225.362745,39.9288773 C225.362745,37.1138236 223.474346,34.9611354 221.004901,34.9611354 Z" id="Shape" fill="#FFFFFF" fill-rule="nonzero"></path>
            </g>
            <g id="Group-2-Copy" transform="translate(530.500000, 373.000000)">
                <rect id="Rectangle" stroke="#FFFFFF" stroke-width="7" x="0" y="0.21443866" width="254" height="75.7580645" rx="8"></rect>
                <rect id="Rectangle" fill="#EC8D53" fill-rule="nonzero" x="125.754902" y="16.3596" width="112.058824" height="45.9516129"></rect>
                <path d="M38.5980392,53.5901676 C30.9718137,53.5901676 24.9019608,47.3804902 24.9019608,39.9288773 C24.9019608,32.3220225 31.127451,26.267587 38.5980392,26.267587 C46.0686274,26.267587 52.2941176,32.4772644 52.2941176,39.9288773 C52.2941176,47.3804902 46.0686274,53.5901676 38.5980392,53.5901676 Z M38.5980392,34.9611354 C35.7758169,34.9611354 33.6176471,37.279415 33.6176471,39.9288773 C33.6176471,42.743931 35.94183,44.8966193 38.5980392,44.8966193 C41.4202613,44.8966193 43.5784314,42.5783397 43.5784314,39.9288773 C43.5784314,37.1138236 41.2542484,34.9611354 38.5980392,34.9611354 Z" id="Shape" fill="#FFFFFF" fill-rule="nonzero"></path>
                <path d="M221.004902,53.5901676 C213.725324,53.5901676 207.931373,47.3804902 207.931373,39.9288773 C207.931373,32.3220225 213.873887,26.267587 221.004902,26.267587 C228.284482,26.267587 234.078431,32.4772644 234.078431,39.9288773 C234.078431,47.3804902 228.284482,53.5901676 221.004902,53.5901676 Z M221.004901,34.9611354 C218.535458,34.9611354 216.647059,37.279415 216.647059,39.9288773 C216.647059,42.743931 218.680719,44.8966193 221.004901,44.8966193 C223.474346,44.8966193 225.362745,42.5783397 225.362745,39.9288773 C225.362745,37.1138236 223.474346,34.9611354 221.004901,34.9611354 Z" id="Shape" fill="#FFFFFF" fill-rule="nonzero"></path>
            </g>
            <rect id="Rectangle-Copy-10" stroke="#FFFFFF" stroke-width="7" x="530.5" y="222" width="254" height="75" rx="8"></rect>
            <rect id="Rectangle" fill="#EC8D53" fill-rule="nonzero" x="656.5" y="236" width="112" height="46"></rect>
            <path d="M569,271.972828 C561.482955,271.972828 555.5,265.836464 555.5,258.472828 C555.5,250.955782 561.636364,244.972828 569,244.972828 C576.363636,244.972828 582.5,251.109191 582.5,258.472828 C582.5,265.836464 576.363636,271.972828 569,271.972828 Z M569,253.563737 C566.218182,253.563737 564.090909,255.854646 564.090909,258.472828 C564.090909,261.254646 566.381818,263.381919 569,263.381919 C571.781818,263.381919 573.909091,261.09101 573.909091,258.472828 C573.909091,255.854646 571.618182,253.563737 569,253.563737 Z" id="Shape" fill="#FFFFFF" fill-rule="nonzero"></path>
            <path d="M751.5,271.972828 C744.261364,271.972828 738.5,265.836464 738.5,258.472828 C738.5,250.955782 744.409092,244.972828 751.5,244.972828 C758.738637,244.972828 764.5,251.109191 764.5,258.472828 C764.5,265.836464 758.738637,271.972828 751.5,271.972828 Z M751.499999,253.563737 C749.044445,253.563737 747.166667,255.854646 747.166667,258.472828 C747.166667,261.254646 749.188889,263.381919 751.499999,263.381919 C753.955555,263.381919 755.833333,261.09101 755.833333,258.472828 C755.833333,255.854646 753.955555,253.563737 751.499999,253.563737 Z" id="Shape" fill="#FFFFFF" fill-rule="nonzero"></path>
            <rect id="Rectangle" stroke="#FFFFFF" stroke-width="7" x="530.5" y="150" width="254" height="76" rx="8"></rect>
            <rect id="Rectangle" fill="#EC8D53" fill-rule="nonzero" x="656.5" y="165" width="112" height="47"></rect>
            <path d="M751.5,201.972828 C744.261364,201.972828 738.5,195.836464 738.5,188.472828 C738.5,180.955782 744.409092,174.972828 751.5,174.972828 C758.738637,174.972828 764.5,181.109191 764.5,188.472828 C764.5,195.836464 758.738637,201.972828 751.5,201.972828 Z M751.499999,183.563737 C749.044445,183.563737 747.166667,185.568282 747.166667,187.859191 C747.166667,190.293282 749.188889,192.154646 751.499999,192.154646 C753.955555,192.154646 755.833333,190.150101 755.833333,187.859191 C755.833333,185.4251 753.955555,183.563737 751.499999,183.563737 Z" id="Shape" fill="#FFFFFF" fill-rule="nonzero"></path>
            <path d="M569,201.972828 C561.482955,201.972828 555.5,195.836464 555.5,188.472828 C555.5,180.955782 561.636364,174.972828 569,174.972828 C576.363636,174.972828 582.5,181.109191 582.5,188.472828 C582.5,195.836464 576.363636,201.972828 569,201.972828 Z M569,183.563737 C566.218182,183.563737 564.090909,185.568282 564.090909,187.859191 C564.090909,190.293282 566.381818,192.154646 569,192.154646 C571.781818,192.154646 573.909091,190.150101 573.909091,187.859191 C573.909091,185.4251 571.618182,183.563737 569,183.563737 Z" id="Shape" fill="#FFFFFF" fill-rule="nonzero"></path>
            <rect id="Rectangle" stroke="#FFFFFF" stroke-width="7" x="530.5" y="76" width="254" height="76" rx="8"></rect>
            <rect id="Rectangle-Copy" stroke="#FFFFFF" stroke-width="7" x="530.5" y="0" width="254" height="76" rx="8"></rect>
            <rect id="Rectangle" fill="#EC8D53" fill-rule="nonzero" x="656.5" y="91" width="112" height="47"></rect>
            <rect id="Rectangle-Copy-2" fill="#EC8D53" fill-rule="nonzero" x="656.5" y="15" width="112" height="47"></rect>
            <path d="M751.5,127.972828 C744.261364,127.972828 738.5,121.836464 738.5,114.472828 C738.5,106.955782 744.409092,100.972828 751.5,100.972828 C758.738637,100.972828 764.5,107.109191 764.5,114.472828 C764.5,121.836464 758.738637,127.972828 751.5,127.972828 Z M751.499999,109.563737 C749.044445,109.563737 747.166667,111.568282 747.166667,113.859191 C747.166667,116.293282 749.188889,118.154646 751.499999,118.154646 C753.955555,118.154646 755.833333,116.150101 755.833333,113.859191 C755.833333,111.4251 753.955555,109.563737 751.499999,109.563737 Z" id="Shape" fill="#FFFFFF" fill-rule="nonzero"></path>
            <path d="M751.5,51.9728278 C744.261364,51.9728278 738.5,45.8364641 738.5,38.4728278 C738.5,30.9557823 744.409092,24.9728278 751.5,24.9728278 C758.738637,24.9728278 764.5,31.1091914 764.5,38.4728278 C764.5,45.8364641 758.738637,51.9728278 751.5,51.9728278 Z M751.499999,33.5637369 C749.044445,33.5637369 747.166667,35.5682823 747.166667,37.8591914 C747.166667,40.2932823 749.188889,42.154646 751.499999,42.154646 C753.955555,42.154646 755.833333,40.1501006 755.833333,37.8591914 C755.833333,35.4251005 753.955555,33.5637369 751.499999,33.5637369 Z" id="Shape-Copy" fill="#FFFFFF" fill-rule="nonzero"></path>
            <path d="M569,127.972828 C561.482955,127.972828 555.5,121.836464 555.5,114.472828 C555.5,106.955782 561.636364,100.972828 569,100.972828 C576.363636,100.972828 582.5,107.109191 582.5,114.472828 C582.5,121.836464 576.363636,127.972828 569,127.972828 Z M569,109.563737 C566.218182,109.563737 564.090909,111.568282 564.090909,113.859191 C564.090909,116.293282 566.381818,118.154646 569,118.154646 C571.781818,118.154646 573.909091,116.150101 573.909091,113.859191 C573.909091,111.4251 571.618182,109.563737 569,109.563737 Z" id="Shape" fill="#FFFFFF" fill-rule="nonzero"></path>
            <path d="M569,51.9728278 C561.482955,51.9728278 555.5,45.8364641 555.5,38.4728278 C555.5,30.9557823 561.636364,24.9728278 569,24.9728278 C576.363636,24.9728278 582.5,31.1091914 582.5,38.4728278 C582.5,45.8364641 576.363636,51.9728278 569,51.9728278 Z M569,33.5637369 C566.218182,33.5637369 564.090909,35.5682823 564.090909,37.8591914 C564.090909,40.2932823 566.381818,42.154646 569,42.154646 C571.781818,42.154646 573.909091,40.1501006 573.909091,37.8591914 C573.909091,35.4251005 571.618182,33.5637369 569,33.5637369 Z" id="Shape-Copy-2" fill="#FFFFFF" fill-rule="nonzero"></path>
        </g>
    </g>
</svg>