<?xml version="1.0" encoding="UTF-8"?>
<svg width="622px" height="521px" viewBox="0 0 622 521" version="1.1" xmlns="http://www.w3.org/2000/svg" xmlns:xlink="http://www.w3.org/1999/xlink">
    <!-- Generator: Sketch 59.1 (86144) - https://sketch.com -->
    <title>mf-user-reporting-white</title>
    <desc>Created with Sketch.</desc>
    <g id="Page-1" stroke="none" stroke-width="1" fill="none" fill-rule="evenodd">
        <g id="mf-user-reporting-white" transform="translate(4.000000, 5.000000)">
            <g id="Browser-screen" transform="translate(91.500000, 0.000000)">
                <path d="M0,221.962891 L0,221.962891 L0,20 C0,8.954305 8.954305,0 20,0 L20,0 L502,0 C513.045695,0 522,8.954305 522,20 L522,420 C522,431.045695 513.045695,440 502,440 L143.171875,440 L143.171875,440" id="Path" stroke="#FFFFFF" stroke-width="9"></path>
                <path d="M171.39476,53.6288089 L174.243697,46.7737765 C175.668165,43.4644505 176.380399,39.9187442 176.380399,36.1366575 C176.380399,31.1726684 174.955931,26.2086796 172.581817,21.9538319 L168.308411,14.6260388 L481.928895,14.6260388 C506.14486,14.6260388 506.14486,25.4995383 506.14486,38.7368421 L506.14486,53.6288089 L171.39476,53.6288089 Z" id="Path" fill="#666288" fill-rule="nonzero"></path>
                <path d="M34.7723206,53.6288089 L31.9697753,46.7737765 C30.5685026,43.4644505 29.8678663,39.9187442 29.8678663,36.1366575 C29.8678663,31.1726684 31.2691391,26.2086796 33.6045934,21.9538319 L37.8084113,14.6260388 C15.8551402,14.6260388 15.8551402,25.4995383 15.8551402,38.7368421 L15.8551402,53.6288089 L34.7723206,53.6288089 Z" id="Path" fill="#666288" fill-rule="nonzero"></path>
                <rect id="Rectangle" stroke="#FFFFFF" stroke-width="3" fill="#FFFFFF" fill-rule="nonzero" x="1.21962617" y="65.8171745" width="521" height="6"></rect>
            </g>
            <g id="graph" transform="translate(135.500000, 21.000000)">
                <path d="M110.775889,153.886222 L110.776932,372.824114 C101.786636,345.085805 83.7479755,322.357104 56.4698443,306.93727 C64.2763501,294.526099 68.7938144,279.839265 68.7938144,264.108871 C68.7938144,238.46332 56.7404925,215.591488 38.0415345,200.826606 L110.775889,153.886222 Z" id="Combined-Shape" fill="#666288" fill-rule="nonzero"></path>
                <path d="M127.844275,400 L127.844275,158.140041 L187.475358,192.170587 L187.475358,400 C150.334029,400 130.457001,400 127.844275,400 Z" id="Path" fill="#E0E0E0" fill-rule="nonzero"></path>
                <polygon id="Path" fill="#FFD552" fill-rule="nonzero" points="204.598473 400 204.598473 192.170587 333.735698 115.601857 333.735698 400"></polygon>
                <polygon id="Path" fill="#E88C59" fill-rule="nonzero" points="351.153876 400 351.153876 115.601857 438.149582 170.789928 438.149582 400"></polygon>
                <path d="M107,124.32167 L103.75,126.342078 L100.5,128.266276 L18.7045898,177.718171 L15.3342194,179.738579 L8.1396484,183.949707 C6.12962954,182.819824 3.03857422,182.026367 0.16748047,181.361328 L6.12962954,177.718171 L9.2592593,175.793973 L95.6851851,123.263361 L98.935185,121.339162 L102.185185,119.414964 C103.148148,121.242952 104.833333,122.974731 107,124.32167 Z" id="Path" stroke="#FFFFFF" stroke-width="2" fill="#FFFFFF" fill-rule="nonzero"></path>
                <path d="M178.555883,147.266866 L181.450382,148.885392 C179.597902,150.041482 178.208544,151.582935 177.513863,153.278534 L174.387806,151.505862 L171.377529,149.810264 L133.864831,128.846498 L130.854553,127.227972 L127.844275,125.532373 C129.928314,124.530429 131.665013,123.220193 132.707032,121.67874 L135.71731,123.374339 L138.611808,124.992865 L175.545605,145.571267 L178.555883,147.266866 Z" id="Path" stroke="#FFFFFF" stroke-width="2" fill="#FFFFFF" fill-rule="nonzero"></path>
                <path d="M327.347164,81.5713096 C327.585281,83.9734658 328.537744,86.1754424 330.085496,87.9770596 L326.870933,89.8787666 L323.656371,91.7804737 L215.313684,154.336626 L211.980064,156.238334 L208.646442,158.140041 C207.932095,155.938064 206.503399,154.036357 204.598473,152.535009 L211.146657,148.731595 L320.20369,85.775083 L323.656371,83.7732861 L327.347164,81.5713096 Z" id="Path" stroke="#FFFFFF" stroke-width="2" fill="#FFFFFF" fill-rule="nonzero"></path>
                <path d="M433.642748,130.380132 C431.62136,131.613123 429.956689,133.198397 429.005446,135.047883 L425.795006,133.198397 L422.703473,131.348911 L360.634977,95.1518229 L357.543442,93.3023367 L354.451908,91.5409211 C356.35439,90.1317888 357.662348,88.4584441 358.375778,86.4328162 L361.705124,88.3703733 L364.915562,90.2198596 L427.340775,126.593089 L430.432308,128.442575 L433.642748,130.380132 Z" id="Path" stroke="#FFFFFF" stroke-width="2" fill="#FFFFFF" fill-rule="nonzero"></path>
                <ellipse id="Oval" stroke="#FFFFFF" stroke-width="8" cx="118.09771" cy="115.601857" rx="13.6946565" ry="13.6564744"></ellipse>
                <ellipse id="Oval" stroke="#FFFFFF" stroke-width="8" cx="193.633588" cy="158.140041" rx="13.6946565" ry="13.6564744"></ellipse>
                <ellipse id="Oval" stroke="#FFFFFF" stroke-width="8" cx="343.487023" cy="81.5713096" rx="13.6946565" ry="13.6564744"></ellipse>
                <ellipse id="Oval" stroke="#FFFFFF" stroke-width="8" cx="443.389313" cy="142.340144" rx="13.6946565" ry="13.6564744"></ellipse>
                <circle id="Oval" stroke="#FFFFFF" stroke-width="8" cx="15.5" cy="13.5" r="13.5"></circle>
                <circle id="Oval-Copy" stroke="#FFFFFF" stroke-width="8" cx="59.5" cy="13.5" r="13.5"></circle>
                <circle id="Oval-Copy-2" stroke="#FFFFFF" stroke-width="8" cx="103.5" cy="13.5" r="13.5"></circle>
            </g>
            <g id="Person" transform="translate(0.500000, 215.000000)">
                <path d="M233.5,295.778226 L0.5,295.778226 L0.5,221.061897 C0.5,175.097985 20.7761027,139.965426 60.0394765,121.41152 L65.4314235,118.858004 L69.6042557,123.007956 C79.2769553,132.627621 100.142747,139.282258 117.5,139.282258 C134.188554,139.282258 153.37144,132.771403 163.395744,123.007956 L167.568577,118.858004 L170.426041,120.211241 L172.957102,121.409901 C212.517468,140.104153 233.5,175.517265 233.5,221.061897 L233.5,295.778226 Z" id="Shape-path" stroke="#FFFFFF" stroke-width="9"></path>
                <path d="M223.385776,283 L11.5,283 L11.5,221.682485 C11.5,181.933706 30.8212891,153.807617 60.0387931,133.116539 L62.4375,132 L64.2650863,133.786462 C75.2306035,144.505234 101.965517,151.001953 117.5,151.001953 C133.034483,151.001953 157.091426,145.063503 168.171168,134.456385 L169.998754,132.669923 L172.397461,133.786462 C203.198242,154.25293 223.5,181.933706 223.5,221.682485 L223.5,287 L223.385776,283 Z" id="Shape-path" fill="#EC8D53" fill-rule="nonzero"></path>
                <path d="M116.391753,0.43548387 C77.9960506,0.43548387 46.7938144,31.6697071 46.7938144,70.108871 C46.7938144,108.548035 77.9960506,139.782258 116.391753,139.782258 C154.787455,139.782258 185.98969,108.548035 185.98969,70.108871 C185.98969,31.7145728 154.705436,0.43548387 116.391753,0.43548387 Z" id="Shape-path" stroke="#FFFFFF" stroke-width="8"></path>
                <path d="M116.5,127 C85.1369864,127 59.5,101.493151 59.5,70 C59.5,38.5068493 85.0068495,13 116.5,13 C147.993151,13 173.5,38.5068493 173.5,70 C173.5,101.493151 147.863014,127 116.5,127 Z" id="Path" fill="#EC8D53" fill-rule="nonzero"></path>
            </g>
        </g>
    </g>
</svg>