<?xml version="1.0" encoding="UTF-8"?>
<svg width="622px" height="521px" viewBox="0 0 622 521" version="1.1" xmlns="http://www.w3.org/2000/svg" xmlns:xlink="http://www.w3.org/1999/xlink">
    <!-- Generator: Sketch 58 (84663) - https://sketch.com -->
    <title>user and reporting</title>
    <desc>Created with Sketch.</desc>
    <g id="Page-1" stroke="none" stroke-width="1" fill="none" fill-rule="evenodd">
        <g id="user-and-reporting" transform="translate(6.000000, 5.000000)">
            <g id="Browser-screen" transform="translate(89.000000, 0.000000)" fill-rule="nonzero">
                <rect id="Rectangle" stroke="#5C666F" stroke-width="9" fill="#FFFFFF" x="0" y="0" width="522" height="440" rx="20"></rect>
                <path d="M171.39476,53.6288089 L174.243697,46.7737765 C175.668165,43.4644505 176.380399,39.9187442 176.380399,36.1366575 C176.380399,31.1726684 174.955931,26.2086796 172.581817,21.9538319 L168.308411,14.6260388 L481.928895,14.6260388 C506.14486,14.6260388 506.14486,25.4995383 506.14486,38.7368421 L506.14486,53.6288089 L171.39476,53.6288089 Z" id="Path" fill="#71CDE1"></path>
                <path d="M34.7723206,53.6288089 L31.9697753,46.7737765 C30.5685026,43.4644505 29.8678663,39.9187442 29.8678663,36.1366575 C29.8678663,31.1726684 31.2691391,26.2086796 33.6045934,21.9538319 L37.8084113,14.6260388 C15.8551402,14.6260388 15.8551402,25.4995383 15.8551402,38.7368421 L15.8551402,53.6288089 L34.7723206,53.6288089 Z" id="Path" fill="#71CDE1"></path>
                <rect id="Rectangle" stroke="#5C666F" stroke-width="3" fill="#5C666F" x="1.21962617" y="65.8171745" width="521" height="6"></rect>
            </g>
            <g id="graph" transform="translate(131.000000, 17.000000)">
                <path d="M9.88871603,224.28683 C7.24925301,344.095611 6.29811725,404 7.03530858,404 C52.8640383,404 98.919865,404 112.775889,404 L112.775889,157.886222 L9.88871603,224.28683 Z" id="Path" fill="#71CDE1" fill-rule="nonzero"></path>
                <path d="M129.844275,404 L129.844275,162.140041 L189.475358,196.170587 L189.475358,404 C152.334029,404 132.457001,404 129.844275,404 Z" id="Path" fill="#E0E0E0" fill-rule="nonzero"></path>
                <polygon id="Path" fill="#FFD552" fill-rule="nonzero" points="206.598473 404 206.598473 196.170587 335.735698 119.601857 335.735698 404"></polygon>
                <polygon id="Path" fill="#F68F6F" fill-rule="nonzero" points="353.153876 404 353.153876 119.601857 440.149582 174.789928 440.149582 404"></polygon>
                <path d="M109,128.32167 L105.75,130.342078 L102.5,132.266276 L15.3518519,185.277938 L11.9814815,187.298346 L8.61111119,189.414964 C8.12962954,187.202136 6.8055555,185.277938 5,183.642369 L8.12962954,181.718171 L11.2592593,179.793973 L97.6851851,127.263361 L100.935185,125.339162 L104.185185,123.414964 C105.148148,125.242952 106.833333,126.974731 109,128.32167 Z" id="Path" stroke="#5C666F" stroke-width="2" fill="#747373" fill-rule="nonzero"></path>
                <path d="M180.555883,151.266866 L183.450382,152.885392 C181.597902,154.041482 180.208544,155.582935 179.513863,157.278534 L176.387806,155.505862 L173.377529,153.810264 L135.864831,132.846498 L132.854553,131.227972 L129.844275,129.532373 C131.928314,128.530429 133.665013,127.220193 134.707032,125.67874 L137.71731,127.374339 L140.611808,128.992865 L177.545605,149.571267 L180.555883,151.266866 Z" id="Path" stroke="#5C666F" stroke-width="2" fill="#747373" fill-rule="nonzero"></path>
                <path d="M329.347164,85.5713096 C329.585281,87.9734658 330.537744,90.1754424 332.085496,91.9770596 L328.870933,93.8787666 L325.656371,95.7804737 L217.313684,158.336626 L213.980064,160.238334 L210.646442,162.140041 C209.932095,159.938064 208.503399,158.036357 206.598473,156.535009 L213.146657,152.731595 L322.20369,89.775083 L325.656371,87.7732861 L329.347164,85.5713096 Z" id="Path" stroke="#5C666F" stroke-width="2" fill="#747373" fill-rule="nonzero"></path>
                <path d="M435.642748,134.380132 C433.62136,135.613123 431.956689,137.198397 431.005446,139.047883 L427.795006,137.198397 L424.703473,135.348911 L362.634977,99.1518229 L359.543442,97.3023367 L356.451908,95.5409211 C358.35439,94.1317888 359.662348,92.4584441 360.375778,90.4328162 L363.705124,92.3703733 L366.915562,94.2198596 L429.340775,130.593089 L432.432308,132.442575 L435.642748,134.380132 Z" id="Path" stroke="#5C666F" stroke-width="2" fill="#747373" fill-rule="nonzero"></path>
                <ellipse id="Oval" stroke="#747373" stroke-width="8" cx="120.09771" cy="119.601857" rx="13.6946565" ry="13.6564744"></ellipse>
                <ellipse id="Oval" stroke="#747373" stroke-width="8" cx="195.633588" cy="162.140041" rx="13.6946565" ry="13.6564744"></ellipse>
                <ellipse id="Oval" stroke="#747373" stroke-width="8" cx="345.487023" cy="85.5713096" rx="13.6946565" ry="13.6564744"></ellipse>
                <ellipse id="Oval" stroke="#747373" stroke-width="8" cx="445.389313" cy="146.340144" rx="13.6946565" ry="13.6564744"></ellipse>
                <circle id="Oval" stroke="#747373" stroke-width="8" cx="17.5" cy="17.5" r="13.5"></circle>
                <circle id="Oval-Copy" stroke="#747373" stroke-width="8" cx="61.5" cy="17.5" r="13.5"></circle>
                <circle id="Oval-Copy-2" stroke="#747373" stroke-width="8" cx="105.5" cy="17.5" r="13.5"></circle>
            </g>
            <g id="Person" transform="translate(0.000000, 207.000000)" fill-rule="nonzero">
                <g id="Person-outline" transform="translate(117.497803, 0.000000)" fill="#FFFFFF" stroke="#FFFFFF" stroke-width="23">
                    <path d="M71.0324766,76.8391634 C71.0324766,95.8883833 63.8646437,113.327041 52.0152209,126.734357 C83.6702591,142.992441 106.488604,171.652559 115.216146,204.647033 L0.216145652,204.647033 L0.216145652,0.647032776 C39.8315051,4.48814371 71.0324766,37.1717634 71.0324766,76.8391634 Z" id="Combined-Shape"></path>
                </g>
                <polygon id="Path-4" fill="#FFFFFF" points="107.964884 9.30645161 80.0621615 17.9453821 55.9001925 38.0317944 45.6759636 71.1206217 49.5487137 101.331459 65.9263014 128.312152 45.6759636 139.754674 29.3558307 154.442219 15.0599885 177.762496 5.42343298 200.495022 0.649484535 226.834646 0.649484535 264.053843 0.649484535 300.346774 229.350516 300.346774 229.350516 231.616003 222.044842 193.910736 202.272467 157.704603 171.930394 133.74549 164.769595 128.312152 184.546922 92.248616 181.727427 56.0908419 158.086761 22.516439 130.191468 9.30645161"></polygon>
                <path d="M231.5,303.778226 L-1.5,303.778226 L-1.5,229.061897 C-1.5,184.583071 24.6147451,143.514225 65.0394765,124.41152 L70.4314235,121.858004 L74.6042557,126.007956 C85.2740311,136.61923 99.6697189,142.462804 115,142.462804 C130.180939,142.462804 144.519231,136.601464 155.395744,126.007956 L159.568577,121.858004 L162.426041,123.211241 L164.957102,124.409901 C205.385255,143.514225 231.5,184.583071 231.5,229.061897 L231.5,303.778226 Z" id="Shape-path" stroke="#5C666F" stroke-width="9" fill="#FFFFFF"></path>
                <path d="M226.879311,299.278226 L3,299.278226 L3,229.061897 C3,186.331959 28.1034484,146.842776 66.9655173,128.478505 L69.5,127.278226 L71.4310345,129.198672 C83.0172415,140.721352 98.5862069,146.962804 115,146.962804 C131.413793,146.962804 146.862069,140.601324 158.568965,129.198672 L160.5,127.278226 L163.034483,128.478505 C201.896551,146.842776 227,186.331959 227,229.061897 L227,299.278226 L226.879311,299.278226 Z" id="Shape-path" stroke="#FFFFFF" stroke-width="6" fill="#EC8D53"></path>
                <path d="M114.391753,8.43548387 C75.9960506,8.43548387 44.7938144,39.6697071 44.7938144,78.108871 C44.7938144,116.548035 75.9960506,147.782258 114.391753,147.782258 C152.787455,147.782258 183.98969,116.548035 183.98969,78.108871 C183.98969,39.7145728 152.705436,8.43548387 114.391753,8.43548387 Z" id="Shape-path" stroke="#5C666F" stroke-width="8" fill="#FFFFFF"></path>
                <path d="M114.391753,142.108871 C79.1771408,142.108871 50.3917525,113.469602 50.3917525,78.108871 C50.3917525,42.7481404 79.0310221,14.108871 114.391753,14.108871 C149.752483,14.108871 178.391753,42.7481404 178.391753,78.108871 C178.391753,113.469602 149.606364,142.108871 114.391753,142.108871 Z" id="Path" stroke="#FFFFFF" stroke-width="6" fill="#EC8D53"></path>
            </g>
        </g>
    </g>
</svg>