<?xml version="1.0" encoding="UTF-8"?>
<svg width="579px" height="472px" viewBox="0 0 579 472" version="1.1" xmlns="http://www.w3.org/2000/svg" xmlns:xlink="http://www.w3.org/1999/xlink">
    <!-- Generator: Sketch 59.1 (86144) - https://sketch.com -->
    <title>mf-user-experience-white</title>
    <desc>Created with Sketch.</desc>
    <g id="Page-1" stroke="none" stroke-width="1" fill="none" fill-rule="evenodd">
        <g id="mf-user-experience-white" transform="translate(0.000000, 1.000000)">
            <g id="Person" transform="translate(155.500000, 52.000000)" fill-rule="nonzero">
                <path d="M184.493704,131 L81.5040665,131 C36.5634782,131 0,167.511596 0,212.389529 L0,322 L8.72931445,322 L8.72931445,212.389529 C8.72931445,172.318594 41.3773072,139.716928 81.5040665,139.716928 L184.493704,139.716928 C224.623807,139.716928 257.270685,172.318594 257.270685,212.389529 L257.270685,322 L266,322 L266,212.389529 C266,167.511596 229.437636,131 184.493704,131 Z" id="Path" fill="#FFFFFF"></path>
                <rect id="Rectangle" fill="#FFFFFF" x="132" y="180" width="7" height="142"></rect>
                <rect id="Rectangle" fill="#5C666F" x="227" y="252" width="7" height="68"></rect>
                <rect id="Rectangle" fill="#5C666F" x="35" y="252" width="7" height="68"></rect>
                <polygon id="Path" fill="#FFFFFF" points="160.595901 132.019896 135.638274 170.894595 110.381707 132 103 136.673231 135.684179 187 168 136.653336"></polygon>
                <path d="M134,22 C108.083988,22 87,43.0839878 87,69 C87,94.9160122 108.083988,116 134,116 C159.916013,116 181,94.9160122 181,69 C181,43.0839878 159.916013,22 134,22 Z" id="Path" fill="#FFD452"></path>
                <path d="M94.758568,149 L91.2112025,149 C68.5783587,149 49.1997933,156.282577 36.6520684,169.477578 C26.3917712,180.313858 20,195.869811 20,210.055608 L20,322 L120,322 L120,189.168544 L94.758568,149 Z" id="Path" fill="#DFDFDF"></path>
                <path d="M230.269984,171.283854 C215.215628,155.262731 200.623902,149 178.201741,149 L174.849318,149 L150,189.169401 L150,322 L247,322 L247,210.056329 C247,196.598096 241.047763,182.819641 230.269984,171.283854 Z" id="Path" fill="#DFDFDF"></path>
                <path d="M133.5,0 C95.7293452,0 65,30.9525297 65,69 C65,107.04747 95.7293452,138 133.5,138 C171.270655,138 202,107.04747 202,69 C202,30.9525297 171.270655,0 133.5,0 Z M133.5,129.251696 C100.519299,129.251696 73.6860196,102.22367 73.6860196,69.0011171 C73.6860196,35.7785639 100.519299,8.75053832 133.5,8.75053832 C166.480701,8.75053832 193.313981,35.7785639 193.313981,69.0011171 C193.313981,102.22367 166.480701,129.251696 133.5,129.251696 Z" id="Shape" fill="#FFFFFF"></path>
            </g>
            <path d="M235.786907,27.2423495 L237.4083,34.0222496 C239.639052,33.4891491 241.873368,32.9916478 244.115701,32.5288561 L242.702772,25.7035668 C240.393623,26.1805984 238.085365,26.6932293 235.786907,27.2423495 Z M222.116425,30.9589238 L224.155639,37.6249059 C226.347193,36.9556377 228.548545,36.3210789 230.758807,35.7203395 L228.923604,28.9947286 C226.644745,29.6141576 224.375685,30.269186 222.116425,30.9589238 Z M263.692685,22.3812555 L264.46062,29.308893 C266.738588,29.0570274 269.017448,28.8389813 271.29987,28.6565345 L270.745745,21.7084274 C268.38938,21.8962141 266.039252,22.1204902 263.692685,22.3812555 Z M249.664963,24.3792702 L250.864082,31.2454988 C253.119778,30.8530156 255.379928,30.494352 257.646314,30.1721777 L256.665461,23.2721298 C254.326022,23.6040939 251.99282,23.9734374 249.664963,24.3792702 Z M182.843078,47.0792086 L186.081409,53.2530294 C188.114386,52.1886082 190.158946,51.1580065 192.215977,50.1603341 L189.168293,43.888615 C187.047118,44.9183269 184.939307,45.980968 182.843078,47.0792086 Z M170.5,54.0388854 L174.116063,60 C176.078662,58.811871 178.054623,57.6584515 180.04662,56.5361813 L176.621205,50.4638188 C174.565955,51.6199083 172.525851,52.8124872 170.5,54.0388854 Z M208.698952,35.5183131 L211.147968,42.0445677 C213.296759,41.2400219 215.452678,40.4710755 217.619287,39.7332786 L215.370717,33.1349353 C213.135511,33.8949819 210.911887,34.6888478 208.698952,35.5183131 Z M277.81395,21.2527556 L278.154264,28.2142123 C280.441141,28.1029644 282.730692,28.0273157 285.022914,27.9863764 L284.895519,21.0160197 C282.535589,21.0587389 280.172989,21.1370576 277.81395,21.2527556 Z M195.591504,40.897378 L198.444087,47.2598754 C200.535861,46.3236119 202.639218,45.421168 204.75861,44.5525433 L202.105584,38.1037174 C199.922939,38.9999315 197.750985,39.9317451 195.591504,40.897378 Z M319.271724,30.0235503 C321.538111,30.3359348 323.800934,30.6830287 326.058413,31.0666119 L327.226351,24.1932634 C324.895821,23.7981105 322.560837,23.4403368 320.221397,23.1190525 L319.271724,30.0235503 Z M384.788478,49.6930924 C386.848182,50.6800849 388.897195,51.7008968 390.939081,52.7555282 L394.141778,46.5630178 C392.041093,45.4772369 389.928828,44.4243856 387.804981,43.4080235 L384.788478,49.6930924 Z M291.891562,27.9703567 C294.181112,27.9997262 296.470662,28.064695 298.757539,28.1652632 L299.066672,21.2020264 C296.706744,21.0987883 294.344142,21.0320394 291.982432,21 L291.891562,27.9703567 Z M405.364134,52.7777778 C403.71067,51.8023551 402.050078,50.8491819 400.380578,49.9173684 L396.982779,56.0048606 C398.602391,56.9064147 400.212202,57.8328884 401.813996,58.7771617 L402.947189,59.4464298 L406.5,53.447046 L405.364134,52.7777778 Z M359.345078,39.3924146 C361.511687,40.1168618 363.67206,40.8760184 365.820851,41.6707743 L368.242251,35.13384 C366.025752,34.3141645 363.797673,33.5300883 361.558012,32.7825015 L359.345078,39.3924146 Z M372.223572,44.1484905 C374.340292,45.0064353 376.448102,45.8973096 378.547005,46.8237831 L381.368407,40.4506059 C379.206253,39.4938728 377.030736,38.5736291 374.845418,37.6889847 L372.223572,44.1484905 Z M346.18685,35.4444445 C348.398893,36.034504 350.602919,36.659273 352.801599,37.3169713 L354.805178,30.6394194 C352.538791,29.9612515 350.267058,29.3177928 347.990872,28.7099336 L346.18685,35.4444445 Z M305.611933,28.573766 C307.894356,28.7455329 310.174997,28.9511194 312.451183,29.194085 L313.1915,22.2619977 C310.843153,22.0128021 308.48946,21.7992059 306.133986,21.622989 L305.611933,28.573766 Z M332.815702,32.3179297 C335.058035,32.7682618 337.296805,33.2550832 339.527557,33.7766139 L341.117769,26.9895941 C338.814856,26.4520435 336.507489,25.9492024 334.192995,25.4828506 L332.815702,32.3179297 Z" id="Shape" fill="#FFFFFF" fill-rule="nonzero"></path>
            <path d="M236.881491,448.009106 C239.184377,448.546693 241.492609,449.049568 243.806186,449.515952 L245.182572,442.681295 C242.941155,442.230932 240.70152,441.744078 238.470794,441.222511 L236.881491,448.009106 Z M250.773642,450.805628 C253.104146,451.200808 255.439104,451.558606 257.778516,451.879912 L258.727288,444.974942 C256.460927,444.663426 254.198129,444.315418 251.940676,443.932699 L250.773642,450.805628 Z M278.934783,453.797959 C281.294686,453.901205 283.656369,453.967958 286.018944,454 L286.109813,447.029166 C283.820289,446.999795 281.530765,446.934821 279.243914,446.834247 L278.934783,453.797959 Z M264.807443,452.737026 C267.155764,452.986239 269.509429,453.19985 271.863986,453.376078 L272.386033,446.425716 C270.103637,446.253937 267.823022,446.047446 265.546861,445.805354 L264.807443,452.737026 Z M223.1978,444.35992 C225.464161,445.038135 227.735867,445.681637 230.011138,446.290428 L231.814249,439.555456 C229.602231,438.965357 227.39823,438.340544 225.200465,437.682801 L223.1978,444.35992 Z M175.057225,415.551828 L171.5,421.549842 L172.635853,422.221826 C174.289299,423.199096 175.949871,424.151444 177.621135,425.083322 L181.018895,418.995412 C179.401974,418.093797 177.79129,417.16993 176.190405,416.223812 L175.057225,415.551828 Z M209.759989,439.866082 C211.976462,440.684924 214.205407,441.469053 216.444151,442.216691 L218.65617,435.606326 C216.489585,434.880939 214.329237,434.122621 212.18047,433.32781 L209.759989,439.866082 Z M183.860756,428.435232 C185.961415,429.521087 188.073656,430.574011 190.197479,431.590443 L193.213949,425.304944 C191.154269,424.317883 189.105278,423.297001 187.063416,422.242298 L183.860756,428.435232 Z M196.632199,434.551622 C198.797001,435.506642 200.970713,436.426057 203.155114,437.310763 L205.77604,430.849925 C203.659344,429.991921 201.548884,429.100096 199.452679,428.174449 L196.632199,434.551622 Z M373.24445,430.445844 L375.892992,436.895112 C378.078285,435.999727 380.249323,435.068739 382.408781,434.10304 L379.55623,427.740107 C377.464479,428.675544 375.361146,429.57716 373.24445,430.445844 Z M347.241876,439.278653 L349.077058,446.004724 C351.355001,445.385252 353.624034,444.73107 355.884159,444.040394 L353.844078,437.373956 C351.65344,438.04238 349.452112,438.676983 347.241876,439.278653 Z M385.784269,424.83945 L388.831919,431.111597 C390.953069,430.082706 393.060856,429.019102 395.157953,427.920786 L391.918768,421.746542 C389.885813,422.811037 387.842168,423.841708 385.784269,424.83945 Z M360.38392,435.266329 L362.629791,441.865124 C364.864971,441.105915 367.085899,440.312885 369.30059,439.482473 L366.851601,432.955772 C364.706398,433.759483 362.548723,434.530262 360.38392,435.266329 Z M403.883978,415 C401.921402,416.188211 399.945463,417.341709 397.953488,418.464056 L401.378865,424.535944 C403.434091,423.379775 405.474173,422.187115 407.5,420.960633 L403.883978,415 Z M306.701272,446.342052 L307.255389,453.290634 C309.610837,453.103725 311.961831,452.878544 314.307479,452.61776 L313.539553,445.689648 C311.262502,445.942421 308.984559,446.159591 306.701272,446.342052 Z M292.976602,447.014036 L293.103995,453.982199 C295.463897,453.940367 297.826472,453.862043 300.186374,453.746337 L299.845172,446.784404 C297.557431,446.895659 295.267907,446.972203 292.976602,447.014036 Z M333.882461,442.470354 L335.295373,449.296111 C337.605386,448.819047 339.912727,448.306381 342.21116,447.757223 L340.588894,440.976858 C338.359058,441.509995 336.123878,442.007531 333.882461,442.470354 Z M320.354672,444.828084 L321.34086,451.728604 C323.678491,451.395728 326.010776,451.026359 328.338606,450.619608 L327.139501,443.752909 C324.883831,444.145419 322.623706,444.504108 320.354672,444.828084 Z" id="Shape" fill="#FFFFFF" fill-rule="nonzero"></path>
            <path d="M487.496991,164.882435 L494.19034,162.647408 C493.421156,160.422141 492.615859,158.205747 491.773548,156 L485.153325,158.440872 C485.968553,160.579187 486.751279,162.726374 487.496991,164.882435 Z M491.564099,177.966081 L498.386548,176.144521 C497.760006,173.876666 497.097351,171.615021 496.394975,169.361361 L489.633013,171.394978 C490.311917,173.578543 490.956515,175.76832 491.564099,177.966081 Z M498.734125,218.353609 L505.782275,217.790195 C505.589076,215.448696 505.360668,213.108972 505.098856,210.771908 L498.069666,211.538508 C498.326964,213.808139 498.545441,216.08043 498.734125,218.353609 Z M494.803341,191.275093 L501.726904,189.867888 C501.243906,187.567202 500.722991,185.271842 500.165965,182.981804 L493.288444,184.594856 C493.826511,186.816574 494.332982,189.042728 494.803341,191.275093 Z M497.193951,204.753574 L504.191543,203.769594 C503.852994,201.443179 503.480138,199.120313 503.068462,196.800995 L496.10337,197.995257 C496.501505,200.244481 496.865332,202.497253 497.193951,204.753574 Z M499.411225,232.012206 L506.481944,231.889762 C506.43861,229.537617 506.360066,227.186357 506.242702,224.835986 L499.181011,225.174922 C499.293861,227.454313 499.371501,229.733702 499.411225,232.012206 Z M498.188836,259.33827 L505.218026,260.071152 C505.471712,257.732316 505.685676,255.389929 505.867139,253.044881 L498.814475,252.522281 C498.64204,254.796348 498.432591,257.068639 498.188836,259.33827 Z M496.289347,272.888619 L503.258952,274.049165 C503.659796,271.72896 504.020914,269.405206 504.349534,267.076129 L497.342913,266.125865 C497.028739,268.383962 496.676647,270.638508 496.289347,272.888619 Z M493.539422,286.302329 L500.42597,287.881664 C500.969455,285.589853 501.48044,283.29183 501.9517,280.98937 L495.019109,279.61588 C494.56139,281.850907 494.068462,284.078836 493.539422,286.302329 Z M499.429281,238.856587 C499.399489,241.135977 499.33539,243.413592 499.231567,245.690321 L506.29326,246.002639 C506.401595,243.65138 506.470208,241.298347 506.5,238.945313 L499.429281,238.856587 Z" id="Shape" fill="#FFFFFF" fill-rule="nonzero"></path>
            <path d="M90.0765207,172.432979 L83.295299,170.420407 C82.6037065,172.683104 81.9491798,174.954701 81.331719,177.232531 L88.1726075,179.032361 C88.7719876,176.824853 89.4039132,174.625355 90.0765207,172.432979 Z M86.4784321,185.684263 L79.582397,184.09984 C79.0390676,186.399033 78.5273796,188.704454 78.0545654,191.015218 L84.9967067,192.39313 C85.4559601,190.150017 85.9486633,187.914914 86.4784321,185.684263 Z M94.5,159.414908 L87.8570967,157 C87.0271858,159.21463 86.2325326,161.439942 85.471329,163.674154 L92.1829394,165.888784 C92.9206379,163.72311 93.6935942,161.563668 94.5,159.414908 Z M83.724719,199.141164 L76.7455121,197.976881 C76.3441172,200.304557 75.9825004,202.635794 75.6534289,204.972369 L82.6697017,205.925693 C82.9843084,203.658546 83.3377889,201.39763 83.724719,199.141164 Z M81.823518,212.734255 L74.7837402,211.999012 C74.5306083,214.345381 74.3163503,216.695309 74.1337337,219.047908 L81.1961126,219.572192 C81.3687847,217.289912 81.5785225,215.010304 81.823518,212.734255 Z M80.778445,226.426151 L73.7070257,226.112827 C73.5985406,228.471657 73.5298334,230.832267 73.5,233.193767 L80.5804598,233.281889 C80.6102932,230.995159 80.6753842,228.71021 80.778445,226.426151 Z M88.4564768,294.368463 L81.6246287,296.194998 C82.25113,298.470156 82.9146971,300.739084 83.6180421,303 L90.3902234,300.959835 C89.7103836,298.770129 89.0648973,296.573301 88.4564768,294.368463 Z M81.2765724,253.851777 L74.2187136,254.417005 C74.4121788,256.766044 74.6409014,259.113302 74.9030737,261.457891 L81.9419476,260.688823 C81.6851995,258.411884 81.4655173,256.132275 81.2765724,253.851777 Z M85.2109648,281.017486 L78.2778639,282.427443 C78.7624306,284.735536 79.283159,287.039178 79.8409531,289.335699 L86.7279478,287.717453 C86.1882346,285.489471 85.6810668,283.256148 85.2109648,281.017486 Z M80.6012527,240.14831 L73.5207929,240.271147 C73.564187,242.629977 73.6428387,244.989696 73.7603642,247.346746 L80.8317836,247.006719 C80.7187782,244.720879 80.6401265,242.434149 80.6012527,240.14831 Z M82.8188687,267.495605 L75.8071161,268.482752 C76.1488442,270.816659 76.5222136,273.147895 76.9344569,275.473791 L83.9091437,274.275683 C83.510461,272.019217 83.146132,269.759191 82.8188687,267.495605 Z" id="Shape" fill="#FFFFFF" fill-rule="nonzero"></path>
            <g id="Mobile" transform="translate(446.500000, 313.000000)" fill-rule="nonzero">
                <path d="M70.670447,0 L13.329553,0 C5.97955298,0 0,6.03850648 0,13.4602522 L0,137.402354 C0,144.824099 5.97955298,150.862021 13.329553,150.862021 L70.670447,150.862021 C78.0198675,150.862021 84,144.824099 84,137.402354 L84,13.4602522 C84,6.03850648 78.0198675,0 70.670447,0 Z M80.2821192,137.401768 C80.2821192,142.753336 75.9702814,147.107263 70.670447,147.107263 L13.329553,147.107263 C8.02913907,147.107263 3.71788079,142.753336 3.71788079,137.401768 L3.71788079,13.4602522 C3.71788079,8.10809925 8.02971854,3.75417224 13.329553,3.75417224 L70.670447,3.75417224 C75.9708609,3.75417224 80.2821192,8.10809925 80.2821192,13.4602522 L80.2821192,137.401768 L80.2821192,137.401768 Z" id="Shape" fill="#FFFFFF"></path>
                <path d="M70.7595967,9.29481642 L13.2404033,9.29481642 C10.653057,9.29481642 8.54237288,11.3988938 8.54237288,14.0087197 L8.54237288,137.568286 C8.54237288,140.164695 10.653057,142.282189 13.2404033,142.282189 L70.7595967,142.282189 C73.346943,142.282189 75.4576271,140.164695 75.4576271,137.568286 L75.4576271,14.0087197 C75.4576271,11.3988938 73.346943,9.29481642 70.7595967,9.29481642 Z M40.6653454,141.776441 C36.6753329,141.776441 33.4346103,138.524367 33.4346103,134.520378 C33.4346103,130.516973 36.6753329,127.264899 40.6653454,127.264899 C44.6553581,127.264899 47.8821296,130.516973 47.8821296,134.520378 C47.8827108,138.524367 44.6553581,141.776441 40.6653454,141.776441 Z M73.6056195,121.292749 L11.0750775,121.292749 L11.0750775,20.5542845 L73.6056195,20.5542845 L73.6056195,121.292749 Z" id="Shape" fill="#DFDFDF"></path>
                <path d="M40.5762712,138.417345 C38.3706759,138.417345 36.5762712,136.622941 36.5762712,134.417345 C36.5762712,132.21175 38.3706759,130.417345 40.5762712,130.417345 C42.7818665,130.417345 44.5762712,132.21175 44.5762712,134.417345 C44.5762712,136.622941 42.7818665,138.417345 40.5762712,138.417345 Z" id="Shape-path" fill="#FFFFFF"></path>
                <rect id="Rectangle" fill="#EC8D53" x="21.3559322" y="37.8942516" width="40.5762712" height="39.3242233"></rect>
                <rect id="Rectangle" fill="#666288" x="19.9322034" y="88.6582488" width="44.1355932" height="32.8893504"></rect>
                <path d="M9.25423729,18.5896329 L9.25423729,122.977571 L75.4576271,122.977571 L75.4576271,18.5896329 L9.25423729,18.5896329 Z M71.7314829,119.23865 L12.9803816,119.23865 L12.9803816,22.3279716 L71.7314829,22.3279716 L71.7314829,119.23865 Z" id="Shape" fill="#FFFFFF"></path>
                <rect id="Rectangle" fill="#FFFFFF" x="24.9152543" y="94.3781359" width="34.1694916" height="4.28991527"></rect>
                <rect id="Rectangle" fill="#FFFFFF" x="24.9152543" y="102.242981" width="21.3559322" height="4.28991527"></rect>
                <rect id="Rectangle" fill="#FFFFFF" x="27.7627118" y="44.3291245" width="28.4745763" height="4.28991527"></rect>
                <rect id="Rectangle" fill="#FFFFFF" x="27.7627118" y="52.1939691" width="17.7966102" height="4.28991527"></rect>
                <path d="M9.25423729,19.3046187 L9.25423729,32.8893504 L75.4576271,32.8893504 L75.4576271,19.3046187 L9.25423729,19.3046187 L9.25423729,19.3046187 Z M71.7317443,29.1550043 L12.9807009,29.1550043 L12.9807009,23.0383828 L71.7317443,23.0383828 L71.7317443,29.1550043 Z" id="Shape" fill="#FFFFFF"></path>
            </g>
            <g id="Computer" transform="translate(0.500000, 3.000000)">
                <rect id="Rectangle" stroke="#FFFFFF" stroke-width="5" x="19.1190476" y="0.579594678" width="106.603175" height="77.6656869" rx="5"></rect>
                <rect id="Rectangle" stroke="#FFFFFF" stroke-width="5" x="31.8650794" y="12.1714882" width="82.2698413" height="54.4818998" rx="3"></rect>
                <path d="M146,117.078125 L0,117.078125 L0,97.4430583 L18.2894169,74.1881188 L127.710583,74.1881188 L146,97.4430583 L146,117.078125 L146,117.078125 Z M6.20158388,110.606231 L139.693304,110.606231 L139.693304,99.8563067 L124.767459,80.6600123 L21.2325414,80.6600123 L6.20158388,99.7466136 L6.20158388,110.606231 Z" id="Shape" fill="#FFFFFF" fill-rule="nonzero"></path>
                <rect id="Rectangle" fill="#FFFFFF" fill-rule="nonzero" x="3.47619048" y="96.2127166" width="123.984127" height="6.95513614"></rect>
                <polygon id="Path" fill="#FFD552" fill-rule="nonzero" points="42.5 56.7756807 42.6068333 22 102.753968 22 102.647135 56.7756807"></polygon>
            </g>
            <g id="CHAT" transform="translate(431.500000, 0.000000)" fill-rule="nonzero">
                <path d="M14.5303505,138 C14.1702747,138 13.8224193,137.830789 13.5970523,137.527306 L0.235882313,119.532886 C0.0829851028,119.326714 0,119.075785 0,118.817637 L0,60.2090818 C0,54.5055695 4.56730681,49.8655462 10.1807375,49.8655462 L40.0727104,49.8655462 C40.7181186,49.8655462 41.2418909,50.3974351 41.2418909,51.0534892 L41.2418909,58.8548152 C41.2418909,63.2525719 44.7596636,66.8302613 49.0839831,66.8302613 L105.433994,66.8302613 C106.079402,66.8302613 106.603175,67.3621501 106.603175,68.0182042 L106.603175,109.661756 C106.603175,115.365268 102.035868,120.005292 96.4224371,120.005292 L15.699531,120.005292 L15.699531,136.811768 C15.699531,137.322289 15.37839,137.775925 14.9017941,137.938206 C14.7801583,137.980076 14.654544,138 14.5303505,138 Z M2.33836105,118.419442 L13.3608857,133.264687 L13.3608857,118.817637 C13.3608857,118.161583 13.8846582,117.629694 14.5300662,117.629694 L96.4224371,117.629694 C100.747041,117.629694 104.264529,114.05547 104.264529,109.662045 L104.264529,69.2061472 L49.0839831,69.2061472 C43.4705525,69.2061472 38.9032456,64.5623701 38.9032456,58.8545264 L38.9032456,52.2411434 L10.1807375,52.2411434 C5.85613366,52.2411434 2.33836105,55.8153675 2.33836105,60.208793 L2.33836105,118.419442 L2.33836105,118.419442 Z" id="Shape" stroke="#FFFFFF" fill="#FFFFFF"></path>
                <path d="M49.1482887,71.9709899 C42.1385126,71.9709899 36.4345148,66.3143451 36.4345148,59.356228 L36.4345148,55.6638655 L10.8300642,55.6638655 C8.0508418,55.6638655 5.79365079,57.9020983 5.79365079,60.6579779 L5.79365079,115.722556 L11.2754004,122.92437 L11.2754004,113.187336 L95.7731104,113.187336 C98.5523328,113.187336 100.809524,110.949103 100.809524,108.193223 L100.809524,71.9709899 L49.1482887,71.9709899 Z M83.4285714,109.008403 C77.9835458,109.008403 73,104.013078 73,98.5712848 C73,93.1218716 77.9838178,87.7507324 83.4285714,87.7507324 C88.8659827,87.7507324 94.0686035,93.1221438 94.0686035,98.5712848 C94.0686035,104.013078 88.8662546,109.008403 83.4285714,109.008403 Z" id="Shape" fill="#DFDFDF"></path>
                <path d="M131.472233,86.9747899 C131.348043,86.9747899 131.223283,86.955128 131.100797,86.9140947 C130.624212,86.7539506 130.303078,86.3062879 130.303078,85.8024893 L130.303078,69.2218728 L49.5779141,69.2218728 C43.9640348,69.2218728 39.3968254,64.6423776 39.3968254,59.0136818 L39.3968254,10.2081909 C39.3968254,4.57921027 43.9640348,0 49.5779141,0 L135.819479,0 C141.432791,0 146,4.57949522 146,10.2081909 L146,68.0495721 C146,68.304321 145.917016,68.5522309 145.764123,68.755688 L132.405511,86.5086053 C132.180149,86.8080918 131.832301,86.9747899 131.472233,86.9747899 Z M49.5602938,2.31932773 C45.234001,2.31932773 41.7142857,5.84994646 41.7142857,10.1890059 L41.7142857,59.0302297 C41.7142857,63.3692891 45.234001,66.8996226 49.5602938,66.8996226 L131.488347,66.8996226 C132.134007,66.8996226 132.657985,67.4248953 132.657985,68.0727884 L132.657985,82.3361345 L143.68254,67.679832 L143.68254,10.1887207 C143.68254,5.84966129 140.163393,2.31932773 135.837385,2.31932773 L49.5602938,2.31932773 L49.5602938,2.31932773 Z" id="Shape" stroke="#FFFFFF" stroke-width="2" fill="#FFFFFF"></path>
                <path d="M134.133772,6.95798319 L51.2627804,6.95798319 C48.5513439,6.95798319 46.3492063,9.11850846 46.3492063,11.7796366 L46.3492063,57.675925 C46.3492063,60.3367852 48.5513439,62.5053502 51.2627804,62.5053502 L133.699571,62.5053502 L133.699571,71.8991597 L139.047619,64.9456557 L139.047619,11.7799046 C139.047619,9.11877644 136.845481,6.95798319 134.133772,6.95798319 Z M66.262021,33.262207 C60.8170706,33.262207 56.0478516,28.6426153 56.0478516,23.1932773 C56.0478516,17.7515597 60.6026686,12.9821777 66.047619,12.9821777 C71.4849552,12.9821777 76.4761905,18.3275815 76.4761905,23.7692991 C76.4761905,29.218637 71.6993572,33.262207 66.262021,33.262207 Z" id="Shape" fill="#DFDFDF"></path>
                <ellipse id="Oval" fill="#AE9FCA" cx="66.6269841" cy="17.9747899" rx="4.05555556" ry="4.05882353"></ellipse>
                <path d="M74.1587302,26.7610622 L74.1587302,29.1964093 C72.2667029,31.2207198 69.5914295,32.4705882 66.6310245,32.4705882 C63.6706195,32.4705882 60.9950574,31.2207198 59.0952381,29.1964093 L59.0952381,26.7610622 C59.0952381,24.4544948 60.4170021,22.2772951 62.5860803,21.3579024 C63.3222855,21.0433036 64.1375657,20.8739496 64.9845913,20.8739496 L68.2774576,20.8739496 C69.1244832,20.8739496 69.9319713,21.0433036 70.667888,21.3579024 C72.8447582,22.2772951 74.1587302,24.4544948 74.1587302,26.7610622 Z" id="Path" fill="#B0ACD8"></path>
                <path d="M66.0471483,23.1932773 C62.8530536,23.1932773 60.2539683,20.592077 60.2539683,17.3948011 C60.2539683,14.1978389 62.8530536,11.5966387 66.0471483,11.5966387 C69.2421844,11.5966387 71.8412698,14.1978389 71.8412698,17.3948011 C71.8412698,20.592077 69.2421844,23.1932773 66.0471483,23.1932773 Z M66.0471483,14.1796334 C64.2768704,14.1796334 62.8361072,15.6219545 62.8361072,17.3948011 C62.8361072,19.1676475 64.2768704,20.6102826 66.0471483,20.6102826 C67.8183676,20.6102826 69.2591309,19.1676475 69.2591309,17.3948011 C69.2588171,15.6219545 67.8180537,14.1796334 66.0471483,14.1796334 Z" id="Shape" fill="#5C666F"></path>
                <path d="M66.6308675,33.789916 C63.4356005,33.789916 60.464704,33.5036765 58.2647218,31.1682441 C58.0535834,30.9446263 57.9365079,30.6474426 57.9365079,30.3382897 L57.9365079,27.9202413 C57.9365079,25.0672186 59.5885081,22.5259761 62.144319,21.4467144 C63.0366235,21.0672066 63.9950886,20.8739496 64.9897981,20.8739496 L68.2722245,20.8739496 C69.2623315,20.8739496 70.2176323,21.0672066 71.1122381,21.4481741 C73.6648848,22.5218891 75.3174603,25.0631316 75.3174603,27.9202413 L75.3174603,29.3382897 C75.3174603,29.6465669 75.2003849,29.9431668 74.9906847,30.1664924 C72.7987568,32.5030926 69.829874,33.789916 66.6308675,33.789916 Z M60.3036174,29.8399668 C62.0148745,31.4864467 64.2439098,32.3879237 66.6308675,32.3879237 C69.0201263,32.3879237 71.2459975,31.4870306 72.9503508,29.8414265 L72.9503508,27.9202413 C72.9503508,26.0378827 71.8707832,24.3677566 70.2012361,23.6650833 C69.593422,23.4061422 68.9461991,23.2759419 68.2719368,23.2759419 L64.9895105,23.2759419 C64.3106457,23.2759419 63.6596834,23.4061422 63.0564717,23.6630399 C61.3828974,24.3698 60.3036174,26.0402181 60.3036174,27.9202413 L60.3036174,29.8399668 L60.3036174,29.8399668 Z" id="Shape" fill="#5C666F"></path>
                <rect id="Rectangle" stroke="#5C666F" stroke-width="2" fill="#5C666F" x="86.9047619" y="15.0756303" width="46.3492063" height="2.31932773"></rect>
                <rect id="Rectangle" stroke="#5C666F" stroke-width="2" fill="#5C666F" x="86.9047619" y="27.8319328" width="46.3492063" height="2.31932773"></rect>
                <rect id="Rectangle" stroke="#5C666F" stroke-width="2" fill="#5C666F" x="57.9365079" y="40.5882353" width="74.1587302" height="2.31932773"></rect>
                <rect id="Rectangle" stroke="#5C666F" stroke-width="2" fill="#5C666F" x="57.9365079" y="53.3445378" width="74.1587302" height="2.31932773"></rect>
                <rect id="Rectangle" stroke="#5C666F" stroke-width="2" fill="#5C666F" x="11.5873016" y="103.210084" width="46.3492063" height="2.31932773"></rect>
                <rect id="Rectangle" stroke="#5C666F" stroke-width="2" fill="#5C666F" x="11.5873016" y="90.4537815" width="46.3492063" height="2.31932773"></rect>
                <rect id="Rectangle" stroke="#5C666F" stroke-width="2" fill="#5C666F" x="12.7460317" y="77.697479" width="74.1587302" height="2.31932773"></rect>
                <rect id="Rectangle" stroke="#5C666F" stroke-width="2" fill="#5C666F" x="12.7460317" y="63.7815126" width="18.5396825" height="2.31932773"></rect>
                <path d="M66.0479063,34.789916 C59.6583996,34.789916 54.4603175,29.5874867 54.4603175,23.1932773 C54.4603175,16.799068 59.6586869,11.5966387 66.0479063,11.5966387 C72.4365512,11.5966387 77.6349206,16.799068 77.6349206,23.1932773 C77.6349206,29.5874867 72.4365512,34.789916 66.0479063,34.789916 Z M66.0479063,13.96266 C60.9621577,13.96266 56.8242051,18.1035568 56.8242051,23.1932773 C56.8242051,28.2829978 60.9618705,32.4238946 66.0479063,32.4238946 C71.1339423,32.4238946 75.2707456,28.2829978 75.2707456,23.1932773 C75.2707456,18.1035568 71.133655,13.96266 66.0479063,13.96266 Z" id="Shape" fill="#5C666F"></path>
                <ellipse id="Oval" fill="#FFD452" cx="84.0079365" cy="93.3529412" rx="4.05555556" ry="4.05882353"></ellipse>
                <path d="M90.3809524,103.299027 L90.3809524,105.734435 C88.4889252,107.758503 85.8136518,109.008403 82.8532467,109.008403 C79.8928417,109.008403 77.2172796,107.758503 75.3174603,105.734435 L75.3174603,103.299027 C75.3174603,100.992401 76.6392243,98.8151458 78.8083025,97.8957298 C79.5445077,97.5811231 80.3597879,97.4117647 81.2068135,97.4117647 L84.4996798,97.4117647 C85.3467054,97.4117647 86.153905,97.5811231 86.8901102,97.8957298 C89.0666919,98.8151458 90.3809524,100.992401 90.3809524,103.299027 Z" id="Path" fill="#FFD452"></path>
                <path d="M83.4290422,98.5714286 C80.234006,98.5714286 77.6349206,95.9702987 77.6349206,92.7731092 C77.6349206,89.5759198 80.234006,86.9747899 83.4290422,86.9747899 C86.6231368,86.9747899 89.2222222,89.5759198 89.2222222,92.7731092 C89.222536,95.9702987 86.6234506,98.5714286 83.4290422,98.5714286 Z M83.4290422,89.5577147 C81.6578228,89.5577147 80.2170596,91.0003107 80.2170596,92.7731092 C80.2170596,94.5459078 81.6578228,95.9885038 83.4290422,95.9885038 C85.19932,95.9885038 86.6400833,94.5459078 86.6400833,92.7731092 C86.6400833,91.0003107 85.19932,89.5577147 83.4290422,89.5577147 Z" id="Shape" fill="#5C666F"></path>
                <path d="M82.8533772,109.168067 C79.6590789,109.168067 76.6874178,107.881828 74.4869332,105.546395 C74.2766647,105.32307 74.1587302,105.025594 74.1587302,104.716441 L74.1587302,103.298393 C74.1587302,100.445078 75.8106757,97.9038355 78.3669773,96.8245738 C79.2583893,96.4450659 80.2159597,96.2521008 81.2123622,96.2521008 L84.493817,96.2521008 C85.4847542,96.2521008 86.4400234,96.4453579 87.3345995,96.8263253 C89.8871617,97.9000404 91.5396825,100.441283 91.5396825,103.298393 L91.5396825,105.716441 C91.5396825,106.02501 91.422611,106.32161 91.2129177,106.544644 C89.0201995,108.881244 86.051415,109.168067 82.8533772,109.168067 Z M76.5254737,105.217826 C78.237537,106.864598 80.4664985,107.766075 82.8533772,107.766075 C85.2416941,107.766075 87.4677792,106.865182 89.1726514,105.219286 L89.1726514,103.298393 C89.1726514,101.416034 88.0931195,99.7459078 86.4236276,99.0432346 C85.8158337,98.7842935 85.1686322,98.6540931 84.4935293,98.6540931 L81.2120745,98.6540931 C80.5326569,98.6540931 79.8822915,98.7842935 79.2790998,99.0408991 C77.6050056,99.7476594 76.5254737,101.418369 76.5254737,103.298101 L76.5254737,105.217826 Z" id="Shape" fill="#5C666F"></path>
                <path d="M83.4285714,110.168067 C77.039223,110.168067 71.8412698,104.965638 71.8412698,98.5714286 C71.8412698,92.1769316 77.0395104,86.9747899 83.4285714,86.9747899 C89.8179198,86.9747899 95.015873,92.1772192 95.015873,98.5714286 C95.015873,104.965638 89.8176325,110.168067 83.4285714,110.168067 Z M83.4285714,89.3405238 C78.3429489,89.3405238 74.2050989,93.4814206 74.2050989,98.5714286 C74.2050989,103.661149 78.3426617,107.802046 83.4285714,107.802046 C88.5141939,107.802046 92.6520439,103.661149 92.6520439,98.5714286 C92.6520439,93.481708 88.5141939,89.3405238 83.4285714,89.3405238 Z" id="Shape" fill="#5C666F"></path>
            </g>
            <g id="EMAIL" transform="translate(13.500000, 330.000000)" fill-rule="nonzero">
                <path d="M75.5551286,78.677686 L58.601126,78.677686 C53.0631675,78.677686 48.573913,74.1435434 48.573913,68.5502109 L48.573913,48.3092932 C48.573913,42.7159607 53.0631675,38.1818182 58.601126,38.1818182 L75.5551286,38.1818182 C81.0930871,38.1818182 85.5826087,42.7159607 85.5826087,48.3092932 L85.5826087,68.5502109 C85.5826087,74.1435434 81.0930871,78.677686 75.5551286,78.677686 Z" id="Path" fill="#EC8D53"></path>
                <path d="M131.907358,140 L1.09264298,140 C0.634480628,140 0.225603765,139.714793 0.0675597803,139.285748 C-0.0910348814,138.856701 0.0356205775,138.374573 0.384198428,138.077816 L65.7915555,82.4092824 C66.1998817,82.0619196 66.8001183,82.0619196 67.2084445,82.4092824 L132.615801,138.077816 C132.964379,138.374573 133.091034,138.856701 132.932441,139.285748 C132.774396,139.714793 132.365519,140 131.907358,140 Z M4.05968477,137.817363 L128.940315,137.817363 L66.5,84.6741539 L4.05968477,137.817363 Z" id="Shape" stroke="#FFFFFF" stroke-width="2" fill="#FFFFFF"></path>
                <polygon id="Path" fill="#DFDFDF" points="14.5 135 67.1217391 91 119.743478 135"></polygon>
                <path d="M1.08209136,140 C0.92855874,140 0.773389893,139.967272 0.628311113,139.90018 C0.245161324,139.72345 0,139.339717 0,138.917528 L0,54.305296 C0,53.8841984 0.24434321,53.5012834 0.626402181,53.3237351 C1.00900656,53.1467323 1.45842354,53.2064606 1.78048753,53.4781012 L51.6594996,95.5864871 C51.9024794,95.7915812 52.0426495,96.0932223 52.0434887,96.4109545 C52.0442856,96.7289596 51.9054791,97.0308734 51.6630448,97.2373311 L1.78403268,139.741723 C1.58468571,139.911635 1.33434301,140 1.08209136,140 Z M2.16445543,56.6352414 L2.16445543,136.573674 L49.2880615,96.4175 L2.16445543,56.6352414 Z" id="Shape" stroke="#FFFFFF" stroke-width="2" fill="#FFFFFF"></path>
                <polygon id="Path" fill="#DFDFDF" points="4.5 65 42.5 96.6694723 4.5 128.636364"></polygon>
                <path d="M131.917632,140 C131.665381,140 131.415311,139.911635 131.215963,139.741723 L81.3369517,97.2375646 C81.0945173,97.0313793 80.9557108,96.7291926 80.9565148,96.4111872 C80.957347,96.093182 81.0975171,95.7915406 81.3404968,95.5867191 L131.219509,53.4782944 C131.541573,53.2063809 131.99099,53.1466526 132.373594,53.3239282 C132.755381,53.501204 133.000003,53.8843921 133.000003,54.30549 L133.000003,138.918073 C133.000003,139.339989 132.754835,139.723722 132.371685,139.900726 C132.226334,139.967272 132.071165,140 131.917632,140 Z M83.7119349,96.4177328 L130.835541,136.573943 L130.835541,56.635165 L83.7119349,96.4177328 Z" id="Shape" stroke="#FFFFFF" stroke-width="2" fill="#FFFFFF"></path>
                <polygon id="Path" fill="#DFDFDF" points="89.5 96.2452809 127.5 64 127.5 128.793388"></polygon>
                <path d="M52.6822435,96.0329516 C52.4331403,96.0329516 52.183215,95.9476854 51.9806988,95.7771527 L15.4206321,66.1565864 C15.1756397,65.9505261 15.0347826,65.647448 15.0347826,65.3279726 L15.0347826,31.1670574 C15.0347826,30.5682801 15.5217532,30.0826446 16.1221767,30.0826446 L119.190867,30.0826446 C119.79129,30.0826446 120.278261,30.5682801 120.278261,31.1670574 L120.278261,65.3279726 C120.278261,65.647448 120.137403,65.9507994 119.892412,66.1565864 L83.3320706,96.9341775 C82.9264901,97.2768825 82.3309994,97.2749695 81.9254189,96.930898 L66.4960264,84.8055892 L53.3876246,95.7735999 C53.1842863,95.9463189 52.9335389,96.0329516 52.6822435,96.0329516 Z M66.4960264,82.2965182 C66.7473219,82.2965182 66.9980693,82.3828777 67.2011336,82.5553233 L82.6340886,94.6833651 L118.103473,64.8243001 L118.103473,32.2514701 L17.2098449,32.2514701 L17.2098449,64.8240268 L52.6786809,93.526067 L65.7906452,82.5553233 C65.9939836,82.3828777 66.2444569,82.2965182 66.4960264,82.2965182 Z" id="Shape" stroke="#FFFFFF" stroke-width="2" fill="#FFFFFF"></path>
                <path d="M79.9540379,72.892562 L62.8534538,72.892562 C57.5307905,72.892562 53.2,68.7602617 53.2,63.6809558 L53.2,53.1785483 C53.2,48.0992424 57.5305378,43.9669421 62.8534538,43.9669421 L71.303826,43.9669421 C76.6264892,43.9669421 80.9565217,48.0992424 80.9565217,53.1785483 L80.9565217,63.2359017 C80.9565217,65.4577967 79.0624641,67.2654973 76.7343673,67.2654973 C74.2658016,67.2654973 72.1173334,65.9315406 71.0390571,63.9794266 C70.2369185,65.0703635 69.3049218,66.096929 67.8259551,66.7032731 C65.7118462,67.5709596 63.1826463,67.3590406 61.5339042,66.1757658 C60.2532614,65.2562446 58.768484,63.4630095 58.9680712,60.1439093 C59.2747787,55.0366369 62.0808742,51.6314672 66.8689469,50.5549957 C68.1743486,50.2613468 69.5333103,50.553067 70.5959228,51.3559001 C71.6832943,52.1772972 72.3065623,53.4063793 72.3065623,54.7277993 L72.3065623,61.1265964 C72.3065623,63.456259 74.2928343,65.3519578 76.7343673,65.3519578 C77.9569023,65.3519578 78.9515543,64.4027824 78.9515543,63.2359017 L78.9515543,53.1785483 C78.9515543,49.1542567 75.5209275,45.8802406 71.303826,45.8802406 L62.8534538,45.8802406 C58.6363522,45.8802406 55.2052202,49.1542567 55.2052202,53.1785483 L55.2052202,63.6809558 C55.2052202,67.7052474 58.6363522,70.9790224 62.8534538,70.9790224 L79.9540379,70.9790224 L79.9540379,72.892562 Z M67.8818484,52.5374962 C67.7038627,52.5374962 67.5251281,52.5571008 67.3483906,52.5970274 C63.4357015,53.4799546 61.3215913,56.0943085 61.0649725,60.3676476 C60.9476467,62.3371992 61.5357733,63.8032457 62.8146239,64.724665 C63.8767965,65.4902033 65.6219546,65.6116566 67.0580718,65.0204085 C68.3608868,64.4841493 69.1070288,63.4032627 69.9704963,62.1519112 C70.0808326,61.9926831 70.1904197,61.8332158 70.3025033,61.6742268 C70.2915196,61.5288653 70.2857782,61.3818304 70.2857782,61.2336 L70.2857782,54.8881434 C70.2857782,54.1610972 69.9432867,53.4842581 69.3466729,53.0316772 C68.9200564,52.7079611 68.4055706,52.5374962 67.8818484,52.5374962 Z" id="Shape" fill="#FFFFFF"></path>
                <path d="M15.0724031,65.9504132 C14.8130458,65.9504132 14.5567895,65.86412 14.3507133,65.6980056 L0.39700876,54.4337749 C0.142725845,54.2285588 -0.00273977042,53.9254539 -7.49959896e-05,53.6072476 C0.00289843169,53.2890415 0.153720338,52.9883635 0.411668085,52.7871925 L14.3653726,41.893753 C14.699718,41.6321766 15.1628963,41.5795917 15.5524961,41.7559534 C15.9420958,41.9331242 16.1913043,42.3095783 16.1913043,42.7227071 L16.1913043,64.8803774 C16.1913043,65.2967421 15.9387129,65.6753536 15.5437568,65.8509063 C15.392653,65.9175139 15.232528,65.9504132 15.0724031,65.9504132 Z M2.87020612,53.6298996 L13.953502,62.5771575 L13.953502,44.9771174 L2.87020612,53.6298996 Z" id="Shape" stroke="#FFFFFF" stroke-width="2" fill="#FFFFFF"></path>
                <path d="M103.00129,32.3966942 L28.8419594,32.3966942 C28.3826812,32.3966942 27.9734614,32.1080993 27.8194569,31.6763 C27.6654524,31.2442275 27.8003089,30.7618696 28.1559144,30.4721814 L65.2351697,0.244321846 C65.635089,-0.0814406154 66.2076137,-0.0814406154 66.6075332,0.244321846 L103.687609,30.4719081 C104.042941,30.7618696 104.178071,31.2439542 104.024066,31.6760267 C103.870062,32.1080993 103.460842,32.3966942 103.00129,32.3966942 Z M31.8892246,30.2278596 L99.9540252,30.2278596 L65.9214882,2.48421207 L31.8892246,30.2278596 Z" id="Shape" stroke="#FFFFFF" stroke-width="2" fill="#FFFFFF"></path>
                <polygon id="Path" fill="#DFDFDF" points="41.5 27.6694215 65.7867097 8 90.073913 27.6694215"></polygon>
                <path d="M119.084119,65.9504132 C118.923994,65.9504132 118.763586,65.9177837 118.612765,65.8509069 C118.218091,65.6756246 117.965217,65.2967452 117.965217,64.8803826 L117.965217,42.7228192 C117.965217,42.3094228 118.214426,41.9332401 118.604026,41.7560702 C118.993625,41.5794397 119.456804,41.6322939 119.791149,41.893869 L132.588331,52.787256 C132.84628,52.9886958 132.99682,53.2891026 133.000111,53.6073072 C133.00274,53.9257816 132.857274,54.2286154 132.602992,54.4338304 L119.805809,65.6980068 C119.599732,65.8641205 119.343195,65.9504132 119.084119,65.9504132 Z M120.202738,44.9772185 L120.202738,62.5771739 L130.129512,53.6299591 L120.202738,44.9772185 Z" id="Shape" stroke="#FFFFFF" stroke-width="2" fill="#FFFFFF"></path>
            </g>
        </g>
    </g>
</svg>