<?xml version="1.0" encoding="UTF-8"?>
<svg width="622px" height="521px" viewBox="0 0 622 521" version="1.1" xmlns="http://www.w3.org/2000/svg" xmlns:xlink="http://www.w3.org/1999/xlink">
    <!-- Generator: Sketch 58 (84663) - https://sketch.com -->
    <title>user and reporting</title>
    <desc>Created with Sketch.</desc>
    <g id="Page-1" stroke="none" stroke-width="1" fill="none" fill-rule="evenodd">
        <g id="main-page-copy" transform="translate(-277.000000, -4439.000000)">
            <g id="user-and-reporting" transform="translate(286.500000, 4444.000000)">
                <g id="Browser-screen" transform="translate(86.000000, 0.000000)" fill-rule="nonzero">
                    <path d="M0,221.962891 L0,221.962891 L0,20 C0,8.954305 8.954305,0 20,0 L20,0 L502,0 C513.045695,0 522,8.954305 522,20 L522,420 C522,431.045695 513.045695,440 502,440 L143.171875,440 L143.171875,440" id="Path" stroke="#FFFFFF" stroke-width="9"></path>
                    <path d="M171.39476,53.6288089 L174.243697,46.7737765 C175.668165,43.4644505 176.380399,39.9187442 176.380399,36.1366575 C176.380399,31.1726684 174.955931,26.2086796 172.581817,21.9538319 L168.308411,14.6260388 L481.928895,14.6260388 C506.14486,14.6260388 506.14486,25.4995383 506.14486,38.7368421 L506.14486,53.6288089 L171.39476,53.6288089 Z" id="Path" fill="#71CDE1"></path>
                    <path d="M34.7723206,53.6288089 L31.9697753,46.7737765 C30.5685026,43.4644505 29.8678663,39.9187442 29.8678663,36.1366575 C29.8678663,31.1726684 31.2691391,26.2086796 33.6045934,21.9538319 L37.8084113,14.6260388 C15.8551402,14.6260388 15.8551402,25.4995383 15.8551402,38.7368421 L15.8551402,53.6288089 L34.7723206,53.6288089 Z" id="Path" fill="#71CDE1"></path>
                    <rect id="Rectangle" stroke="#FFFFFF" stroke-width="3" fill="#FFFFFF" x="1.21962617" y="65.8171745" width="521" height="6"></rect>
                </g>
                <g id="graph" transform="translate(128.000000, 17.000000)">
                    <path d="M112.775889,157.886222 L112.776932,376.824114 C103.786636,349.085805 85.7479755,326.357104 58.4698443,310.93727 C66.2763501,298.526099 70.7938144,283.839265 70.7938144,268.108871 C70.7938144,242.46332 58.7404925,219.591488 40.0415345,204.826606 L112.775889,157.886222 Z" id="Combined-Shape" fill="#71CDE1" fill-rule="nonzero"></path>
                    <path d="M129.844275,404 L129.844275,162.140041 L189.475358,196.170587 L189.475358,404 C152.334029,404 132.457001,404 129.844275,404 Z" id="Path" fill="#E0E0E0" fill-rule="nonzero"></path>
                    <polygon id="Path" fill="#FFD552" fill-rule="nonzero" points="206.598473 404 206.598473 196.170587 335.735698 119.601857 335.735698 404"></polygon>
                    <polygon id="Path" fill="#F68F6F" fill-rule="nonzero" points="353.153876 404 353.153876 119.601857 440.149582 174.789928 440.149582 404"></polygon>
                    <path d="M109,128.32167 L105.75,130.342078 L102.5,132.266276 L20.7045898,181.718171 L17.3342194,183.738579 L10.1396484,187.949707 C8.12962954,186.819824 5.03857422,186.026367 2.16748047,185.361328 L8.12962954,181.718171 L11.2592593,179.793973 L97.6851851,127.263361 L100.935185,125.339162 L104.185185,123.414964 C105.148148,125.242952 106.833333,126.974731 109,128.32167 Z" id="Path" stroke="#FFFFFF" stroke-width="2" fill="#FFFFFF" fill-rule="nonzero"></path>
                    <path d="M180.555883,151.266866 L183.450382,152.885392 C181.597902,154.041482 180.208544,155.582935 179.513863,157.278534 L176.387806,155.505862 L173.377529,153.810264 L135.864831,132.846498 L132.854553,131.227972 L129.844275,129.532373 C131.928314,128.530429 133.665013,127.220193 134.707032,125.67874 L137.71731,127.374339 L140.611808,128.992865 L177.545605,149.571267 L180.555883,151.266866 Z" id="Path" stroke="#FFFFFF" stroke-width="2" fill="#FFFFFF" fill-rule="nonzero"></path>
                    <path d="M329.347164,85.5713096 C329.585281,87.9734658 330.537744,90.1754424 332.085496,91.9770596 L328.870933,93.8787666 L325.656371,95.7804737 L217.313684,158.336626 L213.980064,160.238334 L210.646442,162.140041 C209.932095,159.938064 208.503399,158.036357 206.598473,156.535009 L213.146657,152.731595 L322.20369,89.775083 L325.656371,87.7732861 L329.347164,85.5713096 Z" id="Path" stroke="#FFFFFF" stroke-width="2" fill="#FFFFFF" fill-rule="nonzero"></path>
                    <path d="M435.642748,134.380132 C433.62136,135.613123 431.956689,137.198397 431.005446,139.047883 L427.795006,137.198397 L424.703473,135.348911 L362.634977,99.1518229 L359.543442,97.3023367 L356.451908,95.5409211 C358.35439,94.1317888 359.662348,92.4584441 360.375778,90.4328162 L363.705124,92.3703733 L366.915562,94.2198596 L429.340775,130.593089 L432.432308,132.442575 L435.642748,134.380132 Z" id="Path" stroke="#FFFFFF" stroke-width="2" fill="#FFFFFF" fill-rule="nonzero"></path>
                    <ellipse id="Oval" stroke="#FFFFFF" stroke-width="8" cx="120.09771" cy="119.601857" rx="13.6946565" ry="13.6564744"></ellipse>
                    <ellipse id="Oval" stroke="#FFFFFF" stroke-width="8" cx="195.633588" cy="162.140041" rx="13.6946565" ry="13.6564744"></ellipse>
                    <ellipse id="Oval" stroke="#FFFFFF" stroke-width="8" cx="345.487023" cy="85.5713096" rx="13.6946565" ry="13.6564744"></ellipse>
                    <ellipse id="Oval" stroke="#FFFFFF" stroke-width="8" cx="445.389313" cy="146.340144" rx="13.6946565" ry="13.6564744"></ellipse>
                    <circle id="Oval" stroke="#FFFFFF" stroke-width="8" cx="17.5" cy="17.5" r="13.5"></circle>
                    <circle id="Oval-Copy" stroke="#FFFFFF" stroke-width="8" cx="61.5" cy="17.5" r="13.5"></circle>
                    <circle id="Oval-Copy-2" stroke="#FFFFFF" stroke-width="8" cx="105.5" cy="17.5" r="13.5"></circle>
                </g>
                <g id="Person" transform="translate(0.000000, 211.000000)" fill-rule="nonzero">
                    <path d="M228.5,299.778226 L-4.5,299.778226 L-4.5,225.061897 C-4.5,179.097985 15.7761027,143.965426 55.0394765,125.41152 L60.4314235,122.858004 L64.6042557,127.007956 C74.2769553,136.627621 95.1427472,143.282258 112.5,143.282258 C129.188554,143.282258 148.37144,136.771403 158.395744,127.007956 L162.568577,122.858004 L165.426041,124.211241 L167.957102,125.409901 C207.517468,144.104153 228.5,179.517265 228.5,225.061897 L228.5,299.778226 Z" id="Shape-path" stroke="#FFFFFF" stroke-width="9"></path>
                    <path d="M218.385776,287 L6.5,287 L6.5,225.682485 C6.5,185.933706 25.8212891,157.807617 55.0387931,137.116539 L57.4375,136 L59.2650863,137.786462 C70.2306035,148.505234 96.9655173,155.001953 112.5,155.001953 C128.034483,155.001953 152.091426,149.063503 163.171168,138.456385 L164.998754,136.669923 L167.397461,137.786462 C198.198242,158.25293 218.5,185.933706 218.5,225.682485 L218.5,291 L218.385776,287 Z" id="Shape-path" fill="#EC8D53"></path>
                    <path d="M111.391753,4.43548387 C72.9960506,4.43548387 41.7938144,35.6697071 41.7938144,74.108871 C41.7938144,112.548035 72.9960506,143.782258 111.391753,143.782258 C149.787455,143.782258 180.98969,112.548035 180.98969,74.108871 C180.98969,35.7145728 149.705436,4.43548387 111.391753,4.43548387 Z" id="Shape-path" stroke="#FFFFFF" stroke-width="8"></path>
                    <path d="M111.5,131 C80.1369864,131 54.5,105.493151 54.5,74 C54.5,42.5068493 80.0068495,17 111.5,17 C142.993151,17 168.5,42.5068493 168.5,74 C168.5,105.493151 142.863014,131 111.5,131 Z" id="Path" fill="#EC8D53"></path>
                </g>
            </g>
        </g>
    </g>
</svg>