<?xml version="1.0" encoding="UTF-8"?>
<svg width="623px" height="522px" viewBox="0 0 623 522" version="1.1" xmlns="http://www.w3.org/2000/svg" xmlns:xlink="http://www.w3.org/1999/xlink">
    <!-- Generator: Sketch 59.1 (86144) - https://sketch.com -->
    <title>mf-user-reporting</title>
    <desc>Created with Sketch.</desc>
    <g id="Page-1" stroke="none" stroke-width="1" fill="none" fill-rule="evenodd">
        <g id="mf-user-reporting" transform="translate(5.000000, 5.000000)">
            <g id="Browser-screen" transform="translate(91.000000, 0.000000)" fill-rule="nonzero">
                <rect id="Rectangle" stroke="#5C666F" stroke-width="9" fill="#FFFFFF" x="0" y="0" width="522" height="440" rx="20"></rect>
                <path d="M171.39476,53.6288089 L174.243697,46.7737765 C175.668165,43.4644505 176.380399,39.9187442 176.380399,36.1366575 C176.380399,31.1726684 174.955931,26.2086796 172.581817,21.9538319 L168.308411,14.6260388 L481.928895,14.6260388 C506.14486,14.6260388 506.14486,25.4995383 506.14486,38.7368421 L506.14486,53.6288089 L171.39476,53.6288089 Z" id="Path" fill="#666288"></path>
                <path d="M34.7723206,53.6288089 L31.9697753,46.7737765 C30.5685026,43.4644505 29.8678663,39.9187442 29.8678663,36.1366575 C29.8678663,31.1726684 31.2691391,26.2086796 33.6045934,21.9538319 L37.8084113,14.6260388 C15.8551402,14.6260388 15.8551402,25.4995383 15.8551402,38.7368421 L15.8551402,53.6288089 L34.7723206,53.6288089 Z" id="Path" fill="#666288"></path>
                <rect id="Rectangle" stroke="#5C666F" stroke-width="3" fill="#5C666F" x="1.21962617" y="65.8171745" width="521" height="6"></rect>
            </g>
            <g id="graph" transform="translate(137.000000, 21.000000)">
                <path d="M5.88871603,220.28683 C3.24925301,340.095611 2.29811725,400 3.03530858,400 C48.8640383,400 94.919865,400 108.775889,400 L108.775889,153.886222 L5.88871603,220.28683 Z" id="Path" fill="#666288" fill-rule="nonzero"></path>
                <path d="M125.844275,400 L125.844275,158.140041 L185.475358,192.170587 L185.475358,400 C148.334029,400 128.457001,400 125.844275,400 Z" id="Path" fill="#E0E0E0" fill-rule="nonzero"></path>
                <polygon id="Path" fill="#FFD552" fill-rule="nonzero" points="202.598473 400 202.598473 192.170587 331.735698 115.601857 331.735698 400"></polygon>
                <polygon id="Path" fill="#E88C59" fill-rule="nonzero" points="349.153876 400 349.153876 115.601857 436.149582 170.789928 436.149582 400"></polygon>
                <path d="M105,124.32167 L101.75,126.342078 L98.5,128.266276 L11.3518519,181.277938 L7.9814815,183.298346 L4.61111119,185.414964 C4.12962954,183.202136 2.8055555,181.277938 1,179.642369 L4.12962954,177.718171 L7.2592593,175.793973 L93.6851851,123.263361 L96.935185,121.339162 L100.185185,119.414964 C101.148148,121.242952 102.833333,122.974731 105,124.32167 Z" id="Path" stroke="#747373" stroke-width="2" fill="#747373" fill-rule="nonzero"></path>
                <path d="M176.555883,147.266866 L179.450382,148.885392 C177.597902,150.041482 176.208544,151.582935 175.513863,153.278534 L172.387806,151.505862 L169.377529,149.810264 L131.864831,128.846498 L128.854553,127.227972 L125.844275,125.532373 C127.928314,124.530429 129.665013,123.220193 130.707032,121.67874 L133.71731,123.374339 L136.611808,124.992865 L173.545605,145.571267 L176.555883,147.266866 Z" id="Path" stroke="#747373" stroke-width="2" fill="#747373" fill-rule="nonzero"></path>
                <path d="M325.347164,81.5713096 C325.585281,83.9734658 326.537744,86.1754424 328.085496,87.9770596 L324.870933,89.8787666 L321.656371,91.7804737 L213.313684,154.336626 L209.980064,156.238334 L206.646442,158.140041 C205.932095,155.938064 204.503399,154.036357 202.598473,152.535009 L209.146657,148.731595 L318.20369,85.775083 L321.656371,83.7732861 L325.347164,81.5713096 Z" id="Path" stroke="#747373" stroke-width="2" fill="#747373" fill-rule="nonzero"></path>
                <path d="M431.642748,130.380132 C429.62136,131.613123 427.956689,133.198397 427.005446,135.047883 L423.795006,133.198397 L420.703473,131.348911 L358.634977,95.1518229 L355.543442,93.3023367 L352.451908,91.5409211 C354.35439,90.1317888 355.662348,88.4584441 356.375778,86.4328162 L359.705124,88.3703733 L362.915562,90.2198596 L425.340775,126.593089 L428.432308,128.442575 L431.642748,130.380132 Z" id="Path" stroke="#747373" stroke-width="2" fill="#747373" fill-rule="nonzero"></path>
                <ellipse id="Oval" stroke="#747373" stroke-width="8" cx="116.09771" cy="115.601857" rx="13.6946565" ry="13.6564744"></ellipse>
                <ellipse id="Oval" stroke="#747373" stroke-width="8" cx="191.633588" cy="158.140041" rx="13.6946565" ry="13.6564744"></ellipse>
                <ellipse id="Oval" stroke="#747373" stroke-width="8" cx="341.487023" cy="81.5713096" rx="13.6946565" ry="13.6564744"></ellipse>
                <ellipse id="Oval" stroke="#747373" stroke-width="8" cx="441.389313" cy="142.340144" rx="13.6946565" ry="13.6564744"></ellipse>
                <circle id="Oval" stroke="#747373" stroke-width="8" cx="13.5" cy="13.5" r="13.5"></circle>
                <circle id="Oval-Copy" stroke="#747373" stroke-width="8" cx="57.5" cy="13.5" r="13.5"></circle>
                <circle id="Oval-Copy-2" stroke="#747373" stroke-width="8" cx="101.5" cy="13.5" r="13.5"></circle>
            </g>
            <g id="Person" transform="translate(0.000000, 207.000000)" fill-rule="nonzero">
                <g id="Person-outline" transform="translate(119.497803, 0.000000)" fill="#FFFFFF" stroke="#FFFFFF" stroke-width="23">
                    <path d="M71.0324766,76.8391634 C71.0324766,95.8883833 63.8646437,113.327041 52.0152209,126.734357 C83.6702591,142.992441 106.488604,171.652559 115.216146,204.647033 L0.216145652,204.647033 L0.216145652,0.647032776 C39.8315051,4.48814371 71.0324766,37.1717634 71.0324766,76.8391634 Z" id="Combined-Shape"></path>
                </g>
                <polygon id="Path-4" fill="#FFFFFF" points="109.964884 9.30645161 82.0621615 17.9453821 57.9001925 38.0317944 47.6759636 71.1206217 51.5487137 101.331459 67.9263014 128.312152 47.6759636 139.754674 31.3558307 154.442219 17.0599885 177.762496 7.42343298 200.495022 2.64948454 226.834646 2.64948454 264.053843 2.64948454 300.346774 231.350516 300.346774 231.350516 231.616003 224.044842 193.910736 204.272467 157.704603 173.930394 133.74549 166.769595 128.312152 186.546922 92.248616 183.727427 56.0908419 160.086761 22.516439 132.191468 9.30645161"></polygon>
                <path d="M233.5,303.778226 L0.5,303.778226 L0.5,229.061897 C0.5,184.583071 26.6147451,143.514225 67.0394765,124.41152 L72.4314235,121.858004 L76.6042557,126.007956 C87.2740311,136.61923 101.669719,142.462804 117,142.462804 C132.180939,142.462804 146.519231,136.601464 157.395744,126.007956 L161.568577,121.858004 L164.426041,123.211241 L166.957102,124.409901 C207.385255,143.514225 233.5,184.583071 233.5,229.061897 L233.5,303.778226 Z" id="Shape-path" stroke="#5C666F" stroke-width="11" fill="#FFFFFF"></path>
                <path d="M228.879311,299.278226 L5,299.278226 L5,229.061897 C5,186.331959 30.1034484,146.842776 68.9655173,128.478505 L71.5,127.278226 L73.4310345,129.198672 C85.0172415,140.721352 100.586207,146.962804 117,146.962804 C133.413793,146.962804 148.862069,140.601324 160.568965,129.198672 L162.5,127.278226 L165.034483,128.478505 C203.896551,146.842776 229,186.331959 229,229.061897 L229,299.278226 L228.879311,299.278226 Z" id="Shape-path" stroke="#FFFFFF" stroke-width="6" fill="#EC8D53"></path>
                <path d="M116.391753,8.43548387 C77.9960506,8.43548387 46.7938144,39.6697071 46.7938144,78.108871 C46.7938144,116.548035 77.9960506,147.782258 116.391753,147.782258 C154.787455,147.782258 185.98969,116.548035 185.98969,78.108871 C185.98969,39.7145728 154.705436,8.43548387 116.391753,8.43548387 Z" id="Shape-path" stroke="#5C666F" stroke-width="10" fill="#FFFFFF"></path>
                <path d="M116.391752,142.108871 C81.1771408,142.108871 52.3917525,113.469602 52.3917525,78.108871 C52.3917525,42.7481404 81.0310221,14.108871 116.391752,14.108871 C151.752483,14.108871 180.391752,42.7481404 180.391752,78.108871 C180.391752,113.469602 151.606364,142.108871 116.391752,142.108871 Z" id="Path" stroke="#FFFFFF" stroke-width="6" fill="#EC8D53"></path>
            </g>
        </g>
    </g>
</svg>