<?xml version="1.0" encoding="UTF-8"?>
<svg width="1100px" height="398px" viewBox="0 0 1100 398" version="1.1" xmlns="http://www.w3.org/2000/svg" xmlns:xlink="http://www.w3.org/1999/xlink">
    <!-- Generator: Sketch 58 (84663) - https://sketch.com -->
    <title>mysql-postgresql</title>
    <desc>Created with Sketch.</desc>
    <g id="Page-1" stroke="none" stroke-width="1" fill="none" fill-rule="evenodd">
        <g id="mysql" transform="translate(-78.000000, -22.000000)">
            <polygon id="Path" points="0 0 596 0 596 413 0 413"></polygon>
            <path d="M182.233694,333.659013 L166.146689,333.659013 C165.577816,306.351646 164.011081,280.679283 161.449595,256.623165 L161.306599,256.623165 L136.813941,333.659013 L124.566058,333.659013 L100.219504,256.623165 L100.079617,256.623165 C98.2735202,279.719539 97.1357727,305.398155 96.6632655,333.659013 L82,333.659013 C82.9450144,299.292684 85.3199846,267.074055 89.1155851,237 L109.054144,237 L132.259842,308.024164 L132.402838,308.024164 L155.751531,237 L174.829009,237 C179.006967,272.226035 181.475195,304.44779 182.233694,333.659013 M252,262.344113 C245.45018,298.089097 236.808273,324.061576 226.083603,340.274055 C217.727687,352.75385 208.57286,359 198.60358,359 C195.945728,359 192.666155,358.19344 188.780405,356.592825 L188.780405,347.973889 C190.679759,348.248994 192.908625,348.405304 195.470112,348.405304 C200.126794,348.405304 203.869549,347.117309 206.723243,344.535067 C210.136486,341.390109 211.843107,337.854375 211.843107,333.943498 C211.843107,331.261217 210.512626,325.77786 207.857882,317.47467 L190.204144,262.340987 L206.008265,262.340987 L218.678918,303.57558 C221.526396,312.938552 222.713881,319.475439 222.238265,323.198744 C229.167334,304.588469 234.007424,284.296297 236.764752,262.33786 L252,262.33786 L252,262.344113 L252,262.344113 Z" id="Shape" fill="#5D87A1" fill-rule="nonzero"></path>
            <path d="M467,333.839017 L421.084898,333.839017 L421.084898,237.43427 L436.530488,237.43427 L436.530488,321.971994 L467,321.971994 L467,333.839017 Z M409.065761,336.168146 L391.311921,327.422219 C392.886153,326.131376 394.391669,324.734522 395.747257,323.116292 C403.293576,314.267472 407.057365,301.18132 407.057365,283.848483 C407.057365,251.954691 394.519731,236 369.435093,236 C357.134843,236 347.539523,240.047135 340.677246,248.144522 C333.137174,256.999579 329.373385,270.038961 329.373385,287.278258 C329.373385,304.224466 332.709258,316.655843 339.384127,324.541208 C345.490523,331.684494 354.695408,335.260815 367.005028,335.260815 C371.596538,335.260815 375.810108,334.699579 379.64886,333.567753 L402.762585,347 L409.065761,336.168146 Z M351.553191,314.54809 C347.642598,308.268483 345.687302,298.184944 345.687302,284.281882 C345.687302,260.008427 353.074324,247.857669 367.863984,247.857669 C375.594588,247.857669 381.260574,250.763624 384.883807,256.563062 C388.788152,262.852022 390.752819,272.84514 390.752819,286.554888 C390.752819,311.027893 383.35955,323.265958 368.57926,323.265958 C360.845533,323.269073 355.179547,320.372472 351.553191,314.54809 M322.642293,307.117949 C322.642293,315.293287 319.637509,322.000056 313.634188,327.253848 C307.624619,332.485815 299.56605,335.108034 289.467851,335.108034 C280.022459,335.108034 270.864426,332.096067 262,326.103315 L266.1511,317.825084 C273.778629,321.638371 280.684636,323.534101 286.884736,323.534101 C292.703773,323.534101 297.251554,322.246376 300.549945,319.692753 C303.845213,317.129775 305.809879,313.534747 305.809879,308.988736 C305.809879,303.261011 301.808706,298.365787 294.468537,294.265646 C287.699963,290.555253 274.162817,282.797725 274.162817,282.797725 C266.825771,277.459747 263.152563,271.728904 263.152563,262.287669 C263.152563,254.474017 265.891852,248.166348 271.373553,243.367781 C276.8615,238.550506 283.942421,236.149663 292.622562,236.149663 C301.586939,236.149663 309.736089,238.547388 317.076259,243.292949 L313.353075,251.574298 C307.074887,248.911545 300.87791,247.580169 294.765267,247.580169 C289.814557,247.580169 285.991422,248.768118 283.333343,251.153371 C280.653401,253.52927 279.001082,256.569298 279.001082,260.298399 C279.001082,265.998062 283.086589,270.955646 290.626661,275.136854 C297.485815,278.853483 311.360297,286.745084 311.360297,286.745084 C318.884751,292.073708 322.642293,297.751545 322.642293,307.117949" id="Shape" fill="#F8981D" fill-rule="nonzero"></path>
            <path d="M486.498232,204.936886 C477.189888,204.700082 469.982926,205.63795 463.934059,208.199171 C462.187577,208.89712 459.41064,208.89712 459.167813,211.106251 C460.1111,212.041003 460.220061,213.54907 461.038821,214.839028 C462.433516,217.166562 464.864893,220.297982 467.084575,221.930683 C469.522178,223.800187 471.969121,225.650997 474.534364,227.280582 C479.057783,230.081723 484.185155,231.711308 488.593387,234.503101 C491.161743,236.126455 493.714533,238.226531 496.286002,239.974518 C497.549944,240.906155 498.359365,242.417338 500,243 L500,242.644794 C499.178126,241.597872 498.944639,240.083573 498.138331,238.918248 L494.645367,235.546908 C491.270704,231.010244 487.077279,227.05001 482.55386,223.797072 C478.830522,221.229618 470.6865,217.739876 469.176618,213.446248 L468.940018,213.209444 C471.499034,212.969524 474.534364,212.041003 476.96574,211.327476 C480.922565,210.283669 484.530715,210.520473 488.590274,209.476666 C490.458169,209.00929 492.310499,208.423512 494.18462,207.847081 L494.18462,206.797043 C492.080125,204.700082 490.579582,201.91452 488.366127,199.932845 C482.444899,194.813518 475.919719,189.806361 469.176618,185.615555 C465.565354,183.28179 460.920521,181.779955 457.075771,179.795164 C455.690415,179.0941 453.355546,178.748241 452.539899,177.582917 C450.454083,175.021696 449.280422,171.650355 447.767427,168.618642 C444.405216,162.22182 441.139512,155.123934 438.238049,148.359444 C436.13978,143.822779 434.863385,139.292346 432.304369,135.095308 C420.318708,115.309717 407.302593,103.326193 387.297436,91.5638926 C382.998164,89.1148415 377.883245,88.0710348 372.419652,86.7873083 L363.693469,86.3261638 C361.8318,85.5098134 359.967018,83.2944504 358.341949,82.2475278 C351.704695,78.0598374 334.616568,68.9833924 329.735136,80.9669171 C326.590846,88.5415268 334.386194,95.9883869 337.063511,99.830219 C339.040366,102.497379 341.602496,105.532208 342.984738,108.560806 C343.803499,110.539365 344.033873,112.639442 344.852633,114.730171 C346.714302,119.852614 348.454558,125.551487 350.9015,130.331187 C352.177895,132.767775 353.569477,135.328996 355.200772,137.535012 C356.13472,138.82497 357.759788,139.395169 358.114688,141.498361 C356.492733,143.816547 356.365093,147.315637 355.434259,150.225832 C351.250174,163.377797 352.884582,179.67053 358.815149,189.335869 C360.670592,192.246065 365.097503,198.652234 371.01873,196.196951 C376.261289,194.103106 375.100081,187.469481 376.60685,181.652205 C376.952411,180.246961 376.72515,179.324672 377.422497,178.402383 L377.422497,178.629839 C379.044453,181.885893 380.681974,185.023545 382.18563,188.288947 C385.793781,193.98782 392.076135,199.926613 397.309354,203.874384 C400.095631,205.980692 402.30286,209.582605 405.792711,210.869447 L405.792711,210.520473 L405.562337,210.520473 C404.85565,209.476666 403.822081,209.00929 402.89436,208.199171 C400.796091,206.10221 398.473675,203.540989 396.845493,201.216571 C391.970287,194.695116 387.655449,187.475712 383.826264,180.025736 C381.952143,176.411361 380.336414,172.460474 378.826532,168.85233 C378.122958,167.459549 378.122958,165.359472 376.955524,164.658408 C375.205929,167.216514 372.656252,169.431877 371.379857,172.566413 C369.166401,177.579801 368.936027,183.74605 368.114154,190.158451 L367.656519,190.382792 C363.951861,189.451155 362.663013,185.615555 361.255865,182.359501 C357.772241,174.090059 357.186967,160.816576 360.209844,151.275871 C361.019265,148.836167 364.521569,141.152503 363.123761,138.828086 C362.4233,136.600259 360.094657,135.332112 358.818262,133.577894 C357.31772,131.371878 355.673972,128.580084 354.627951,126.131033 C351.838561,119.61581 350.434526,112.396406 347.430329,105.884298 C346.026294,102.849469 343.588691,99.7087011 341.614948,96.9137917 C339.39838,93.7730239 336.960777,91.5607768 335.208068,87.8373467 C334.629021,86.556736 333.816486,84.4628908 334.747321,83.0701099 C334.974581,82.1353575 335.447782,81.7863833 336.375503,81.5526953 C337.882271,80.2783163 342.18777,81.8985536 343.697652,82.5996179 C348.009376,84.3444889 351.614414,85.9740737 355.213225,88.4168931 C356.841407,89.5853335 358.587889,91.7975807 360.676818,92.380243 L363.123761,92.380243 C366.837759,93.1903616 371.024957,92.6045835 374.521034,93.6577378 C380.681974,95.6394127 386.263868,98.5464924 391.269826,101.684144 C406.502511,111.352599 419.064105,125.090342 427.544349,141.498361 C428.935931,144.171753 429.527431,146.620804 430.7976,149.409482 C433.247656,155.117703 436.276759,160.938094 438.708136,166.524797 C441.151965,171.993098 443.480608,177.576685 446.970458,182.119581 C448.710714,184.562401 455.702868,185.843012 458.837818,187.123622 C461.157121,188.167429 464.768385,189.09595 466.860428,190.37656 C470.817252,192.816264 474.758511,195.617405 478.478735,198.300144 C480.331065,199.696041 486.152671,202.606236 486.498232,204.936886 M367.868214,103.784221 C366.262617,103.767518 364.661925,103.964502 363.108195,104.369999 L363.108195,104.603687 L363.332342,104.603687 C364.269403,106.463845 365.897585,107.753803 367.058793,109.377156 C367.995854,111.243545 368.808388,113.094354 369.72677,114.957627 L369.950917,114.727055 C371.591552,113.564846 372.407199,111.701573 372.407199,108.906664 C371.700512,108.084082 371.591552,107.280195 371.003165,106.463845 C370.31827,105.29852 368.808388,104.718974 367.868214,103.784221" id="Shape" fill="#5D87A1" fill-rule="nonzero"></path>
            <path d="M497.618755,334 L500,334 L500,322.003167 L496.428132,322.003167 L493.514644,330.190024 L490.34888,322.003167 L486.909303,322.003167 L486.909303,334 L489.158257,334 L489.158257,324.872526 L489.284396,324.872526 L492.600911,334 L494.314546,334 L497.618755,324.872526 L497.618755,334 Z M478.4365,334 L480.95619,334 L480.95619,324.036421 L484.254246,324.036421 L484.254246,322 L475,322 L475,324.036421 L478.430347,324.036421 L478.4365,334 Z" id="Shape" fill="#F8981D" fill-rule="nonzero"></path>
        </g>
        <g id="postgresql" transform="translate(720.000000, 6.000000)" fill-rule="nonzero">
            <path d="M372.012884,230.62335 C369.770969,223.825496 363.898175,219.090832 356.303415,217.954688 C352.722194,217.419516 348.621023,217.647622 343.76768,218.649242 C335.308285,220.396593 329.032385,221.061903 324.45216,221.190578 C341.740463,191.96814 355.798071,158.644178 363.890872,127.275203 C376.977228,76.5523034 369.984207,53.4448633 361.812537,42.992925 C340.186458,15.3277496 308.634612,0.465760031 270.570259,0.0110100551 C250.2645,-0.237567102 232.438722,3.77622288 223.139523,6.66264234 C214.481497,5.13316171 205.172073,4.27922607 195.404044,4.12130646 C177.09337,3.82886275 160.91507,7.8251061 147.091147,16.0383878 C139.437965,13.4473365 127.154902,9.79471452 112.970227,7.46393811 C79.6087834,1.98061847 52.7204121,6.25322114 33.0529048,20.1633064 C9.23749022,37.0051399 -1.80266181,66.267058 0.239160193,107.136067 C0.887635851,120.111795 8.13771055,159.591696 19.553219,197.033265 C26.1139232,218.554198 33.1098655,236.425433 40.3467954,250.155666 C50.6099451,269.625106 61.5916759,281.090362 73.9200161,285.207969 C80.8297871,287.512426 93.3845095,289.126715 106.589168,278.116209 C108.262936,280.145768 110.496088,282.162168 113.459505,284.03527 C117.223293,286.411375 121.825425,288.353201 126.421715,289.503967 C142.985595,293.649357 158.500813,292.612644 171.737603,286.801787 C171.819393,289.158884 171.882196,291.4107 171.934775,293.355451 C172.022407,296.509456 172.110039,299.602049 172.225421,302.494317 C173.009726,322.050028 174.338809,337.255639 178.2764,347.894742 C178.492558,348.479629 178.783204,349.371582 179.089915,350.317638 C181.054329,356.339054 184.339063,366.419589 192.69622,374.314107 C201.349864,382.492295 211.817488,385 221.404412,385 C226.21248,385 230.800007,384.368322 234.823769,383.505613 C249.166181,380.427643 265.455481,375.73977 277.239043,358.941803 C288.379972,343.062109 293.79562,319.1446 294.775636,281.458841 C294.902702,280.392883 295.019544,279.375179 295.132005,278.405728 L295.36569,276.414187 L297.990264,276.645217 L298.66649,276.690546 C313.274718,277.357318 331.13701,274.255952 342.107056,269.154271 C350.775306,265.127321 378.553141,250.445185 372.012884,230.62335" id="Path" fill="#000000"></path>
            <path d="M347.230937,234.471358 C303.750491,243.448528 300.760662,228.714848 300.760662,228.714848 C346.66806,160.536642 365.859984,73.9943796 349.299694,52.8135256 C304.117457,-4.96374687 225.906748,22.3613838 224.601165,23.0696072 L224.181566,23.1456973 C215.590742,21.3605062 205.977966,20.2981711 195.172184,20.1211153 C175.499255,19.7991956 160.574965,25.2835369 149.250165,33.8787933 C149.250165,33.8787933 9.72968696,-23.6482598 16.2195895,106.228786 C17.5997355,133.858277 55.7876732,315.290765 101.335415,260.489787 C117.983426,240.450285 134.070021,223.507065 134.070021,223.507065 C142.058493,228.81874 151.623022,231.528719 161.649549,230.555643 L162.428805,229.894245 C162.18611,232.381806 162.297223,234.815226 162.740215,237.696408 C151.00605,250.817563 154.454953,253.120752 130.998319,257.953938 C107.26244,262.850044 121.205716,271.565288 130.309708,273.845065 C141.34649,276.606258 166.879191,280.519046 184.131016,256.347265 L183.443867,259.105532 C188.040455,262.791513 191.268593,283.078308 190.727646,301.470167 C190.186699,319.860562 189.82558,332.487131 193.447001,342.349581 C197.071346,352.21203 200.681071,374.402541 231.517977,367.790018 C257.283139,362.263242 270.635759,347.942204 272.493985,324.052835 C273.811264,307.070106 276.795245,309.58108 276.982384,294.396713 L279.375709,287.209123 C282.134539,264.187474 279.814315,256.759908 295.687455,260.214692 L299.547186,260.554171 C311.228718,261.085338 326.521437,258.672404 335.496772,254.49769 C354.82174,245.521983 366.283969,230.533694 347.228013,234.471358 L347.230937,234.471358" id="Path" fill="#336791"></path>
            <path d="M157.657819,118.967518 C153.75414,118.411517 150.21898,118.925781 148.430279,120.312056 C147.425228,121.09165 147.113516,121.994965 147.029033,122.616553 C146.804717,124.263687 147.932123,126.085224 148.625463,127.024314 C150.586042,129.683578 153.449712,131.511077 156.284249,131.913544 C156.695009,131.973169 157.104313,132 157.510703,132 C162.23736,132 166.535776,128.233206 166.914492,125.453201 C167.387886,121.971115 162.448566,119.650222 157.657819,118.969009 M286.980303,119.077824 C286.607414,116.348501 281.861822,115.570397 277.358025,116.211364 C272.860054,116.85233 268.499003,118.930253 268.863153,121.665539 C269.154472,123.792652 272.908122,127.4238 277.350742,127.4238 C277.726544,127.4238 278.105259,127.398459 278.486887,127.343306 C281.452518,126.922952 283.628674,124.995581 284.662857,123.88507 C286.235982,122.191727 287.147811,120.304603 286.980303,119.077824" id="Shape" fill="#FFFFFF"></path>
            <path d="M361.618062,233.367552 C359.963796,228.350272 354.639218,226.736372 345.793125,228.568287 C319.52764,234.005503 310.121372,230.23925 307.033117,227.958137 C327.448861,196.762916 344.243892,159.053571 353.304427,123.871156 C357.596182,107.205416 359.966713,91.7277874 360.160732,79.1121592 C360.375174,65.2659877 358.023607,55.0909612 353.174595,48.875328 C333.623912,23.8181912 304.929544,10.3773235 270.195792,10.0085995 C246.316885,9.73937241 226.141841,15.8686773 222.23083,17.5923157 C213.99451,15.5379963 205.015668,14.2767261 195.240326,14.1157751 C177.314735,13.8246002 161.819484,18.1293066 148.990899,26.9040599 C143.418327,24.823403 129.017168,19.8646505 111.405216,17.018745 C80.9573839,12.102425 56.7619194,15.827708 39.4956999,28.0965601 C18.8932312,42.737244 9.38193078,68.9078688 11.2243805,105.879766 C11.8443656,118.318348 18.9107367,156.583705 30.0617152,193.229311 C44.7400442,241.461921 60.6962718,268.766519 77.4840087,274.383707 C79.4489967,275.04068 81.7144951,275.500121 84.2133997,275.500121 C90.3373934,275.500121 97.8457773,272.731765 105.657589,263.311745 C115.185758,251.846993 125.042037,240.660628 135.214101,229.76664 C141.81366,233.319266 149.063838,235.303353 156.47886,235.502347 C156.493448,235.696951 156.512412,235.891555 156.529917,236.084696 C155.253515,237.611363 154.003631,239.16014 152.780831,240.730326 C147.642978,247.272251 146.573686,248.634481 130.035402,252.049568 C125.33081,253.024053 112.836287,255.606584 112.65248,264.391579 C112.454084,273.990109 127.422712,278.021199 129.128036,278.44845 C135.07114,279.940904 140.796884,280.676889 146.257129,280.676889 C159.53648,280.676889 171.222834,276.299023 180.561998,267.828614 C180.274616,302.046786 181.696935,335.764547 185.793213,346.037608 C189.148426,354.448027 197.343899,375 223.231558,375 C227.030243,375 231.211131,374.556653 235.810691,373.567537 C262.828911,367.75867 274.561946,355.780993 279.100237,329.374795 C281.52912,315.262323 285.696878,281.563583 287.65749,263.487328 C291.794614,264.782251 297.12065,265.374843 302.878488,265.37338 C314.887234,265.37338 328.744265,262.81426 337.434268,258.768538 C347.19648,254.220942 364.812808,243.062652 361.618062,233.367552 L361.618062,233.367552 Z M297.27674,111.220411 C297.187754,116.556667 296.455442,121.40129 295.679367,126.458077 C294.843481,131.896756 293.979879,137.519797 293.762519,144.34558 C293.548077,150.988465 294.37521,157.894724 295.174626,164.574188 C296.790964,178.064805 298.449606,191.953409 292.029478,205.65765 C290.963015,203.762289 290.013032,201.803328 289.184841,199.79172 C288.386884,197.851529 286.653843,194.734934 284.254136,190.421448 C274.919349,173.629874 253.059405,134.308093 264.249771,118.262747 C267.583102,113.486893 276.042616,108.576426 297.27674,111.220411 L297.27674,111.220411 Z M271.537878,20.8142611 C302.65967,21.5034238 327.278183,33.181147 344.707787,55.5211392 C358.076124,72.6565628 343.35549,150.625594 300.739904,217.889923 C300.311337,217.343333 299.880504,216.798533 299.447418,216.255539 L298.907666,215.579545 C309.920059,197.337949 307.766888,179.289495 305.85004,163.288044 C305.062294,156.721245 304.318312,150.518781 304.507954,144.692356 C304.703432,138.517692 305.517436,133.220943 306.305182,128.099776 C307.272359,121.789036 308.257041,115.258817 307.985706,107.560972 C308.188478,106.75329 308.27017,105.79929 308.163678,104.666781 C307.470754,97.2849848 299.068133,75.1922719 281.941957,55.1963109 C272.573617,44.2589621 258.912064,32.0193738 240.258537,23.7640531 C248.281873,22.096016 259.253421,20.5406445 271.537878,20.8142611 Z M97.3906353,256.417191 C88.7837837,266.797064 82.8406798,264.807125 80.8859033,264.154542 C68.1506805,259.893732 53.373154,232.894941 40.3447147,190.081988 C29.0711979,153.036931 22.4833095,115.785565 21.9610632,105.339848 C20.3155499,72.3039339 28.2994988,49.2806318 45.692633,36.9078931 C73.9989632,16.7743922 120.537231,28.825229 139.23744,34.9369756 C138.969023,35.2032762 138.688935,35.4520186 138.423436,35.7227088 C107.736363,66.8067273 108.464298,119.914689 108.540155,123.161508 C108.537238,124.413999 108.64227,126.187386 108.785232,128.626525 C109.313313,137.559303 110.296536,154.184073 107.670717,173.010945 C105.231623,190.506313 110.608717,207.630031 122.420527,219.992528 C123.632754,221.25883 124.906869,222.464029 126.238176,223.603682 C120.980703,229.251597 109.554013,241.741391 97.3906353,256.417191 Z M130.18274,212.531719 C120.662687,202.567392 116.338838,188.708052 118.318414,174.503399 C121.090112,154.615714 120.067501,137.294465 119.517538,127.988574 C119.440222,126.686334 119.371659,125.545046 119.332272,124.645184 C123.815129,120.657989 144.589734,109.493846 159.405189,112.89869 C166.165215,114.451135 170.284833,119.068965 171.997451,127.011163 C180.861049,168.131204 173.170317,185.269554 166.990889,199.042566 C165.717367,201.879693 164.513866,204.561721 163.486879,207.33593 L162.690381,209.480967 C160.674335,214.903551 158.798333,219.945705 157.635679,224.733265 C147.514605,224.704001 137.669242,220.367104 130.18274,212.530256 L130.18274,212.531719 Z M131.73635,267.986638 C128.780844,267.246264 126.122932,265.960119 124.563487,264.893454 C125.866185,264.278914 128.1842,263.441969 132.204621,262.610877 C151.660482,258.594419 154.665586,255.758756 161.227216,247.402475 C162.731227,245.485695 164.43655,243.314321 166.798329,240.668872 L166.801247,240.665946 C170.318385,236.715331 171.927429,237.385473 174.845006,238.599921 C177.209702,239.580258 179.513129,242.553461 180.446753,245.825155 C180.888766,247.370285 181.384754,250.302518 179.761123,252.585095 C166.054347,271.834829 146.080616,271.58755 131.73635,267.986638 L131.73635,267.986638 Z M233.558322,363.023786 C209.75673,368.1391 201.329309,355.958039 195.775702,342.032855 C192.191459,333.043013 190.429242,292.503858 191.679424,247.734619 C191.695471,247.1391 191.610861,246.564067 191.447477,246.022686 C191.301326,244.953636 191.079022,243.896458 190.782269,242.859268 C188.923773,236.345144 184.394235,230.896223 178.960248,228.637057 C176.801241,227.740121 172.839172,226.094032 168.077686,227.315796 C169.093003,223.119366 170.853761,218.380092 172.763315,213.248683 L173.56419,211.090477 C174.465721,208.657191 175.597741,206.136114 176.793947,203.467254 C183.260756,189.057755 192.117061,169.320778 182.505104,124.732975 C178.904814,108.032119 166.88148,99.8762952 148.655378,101.771127 C137.729052,102.905099 127.731975,107.326861 122.745837,109.86257 C121.673627,110.406877 120.693321,110.933626 119.777202,111.445742 C121.168886,94.6190518 126.42636,63.1721621 146.093745,43.2756981 C158.4774,30.7507876 174.969003,24.5644183 195.062354,24.8980257 C234.653872,25.5476823 260.042625,45.9269992 274.370845,62.910251 C286.71803,77.543619 293.403657,92.285263 296.071781,100.23624 C276.006147,98.1892366 262.359181,102.161799 255.441606,112.08223 C240.391286,133.661363 263.675008,175.543727 274.865374,195.672839 C276.917889,199.361542 278.688858,202.549834 279.246116,203.904748 C282.890169,212.762903 287.607891,218.677119 291.05209,222.993531 C292.108253,224.316255 293.132323,225.599473 293.911316,226.720277 C287.834003,228.477569 276.917889,232.537923 277.912783,252.833838 C277.110449,263.017643 271.405128,310.697168 268.506515,327.54288 C264.680113,349.798007 256.515275,358.086981 233.558322,363.025249 L233.558322,363.023786 Z M332.907647,248.988573 C326.693209,251.881301 316.293506,254.051212 306.414591,254.51797 C295.502854,255.030087 289.947787,253.291816 288.640713,252.222224 C288.028022,239.574406 292.720944,238.253145 297.688119,236.854335 C298.46857,236.634856 299.230058,236.419767 299.965287,236.162245 C300.421888,236.535359 300.922253,236.905546 301.470757,237.268417 C310.240993,243.074357 325.883581,243.700603 347.968179,239.128133 L348.210338,239.079847 C345.231492,241.873078 340.134485,245.621772 332.907647,248.988573 Z" id="Shape" fill="#FFFFFF"></path>
        </g>
        <text id="or" fill="#343A40" font-family="Avenir-Light, Avenir" font-size="120" font-weight="300" letter-spacing="-0.431235146">
            <tspan x="528" y="227">or</tspan>
        </text>
    </g>
</svg>