<?xml version="1.0" encoding="UTF-8"?>
<svg width="138px" height="144px" viewBox="0 0 138 144" version="1.1" xmlns="http://www.w3.org/2000/svg" xmlns:xlink="http://www.w3.org/1999/xlink">
    <!-- Generator: Sketch 63.1 (92452) - https://sketch.com -->
    <title>reactor-disk-logo</title>
    <desc>Created with Sketch.</desc>
    <g id="Page-1" stroke="none" stroke-width="1" fill="none" fill-rule="evenodd">
        <g id="reactor-disk-logo">
            <g id="logo-Reactor" transform="translate(0.065025, 0.000000)">
                <g id="Orange-Reactor" transform="translate(38.460888, 44.550363)">
                    <circle id="Oval" fill="#EC8D53" cx="30.0663343" cy="30.0663343" r="30.0663343"></circle>
                    <path d="M37.5899881,29.4379374 L52.6160528,29.4379374 C53.5180131,29.4379374 54.2812103,28.7032619 54.2217404,27.8350091 C53.7162462,20.6027491 49.8209669,14.2673658 44.062297,10.2600449 C43.3288347,9.75435923 42.2881112,9.98334899 41.8123519,10.7180245 L33.8433836,22.9689766 C36.083417,24.333374 37.5899881,26.7091427 37.5899881,29.4379374 Z M34.201581,35.8473071 C33.005126,36.6109949 31.5946709,37.0771421 30.0772158,37.0771421 C28.5597606,37.0771421 27.1590328,36.6109949 25.9528506,35.8473071 L18.1321203,48.5919676 C17.665211,49.3556554 17.8986657,50.3871298 18.6768478,50.8136049 C22.0716673,52.6781933 25.9528506,53.7493399 30.0772158,53.7493399 C34.201581,53.7493399 38.0827643,52.6781933 41.4775837,50.8136049 C42.2557659,50.3871298 42.4892205,49.3457374 42.0223112,48.5919676 L34.201581,35.8473071 Z M30.1879854,33.8581924 C32.6953024,33.8581924 34.7295407,31.8287888 34.7295407,29.327431 C34.7295407,26.8260732 32.6953024,24.7966696 30.1879854,24.7966696 C27.6806684,24.7966696 25.6464301,26.8260732 25.6464301,29.327431 C25.6464301,31.8287888 27.6806684,33.8581924 30.1879854,33.8581924 Z M7.31683947,29.4379374 L22.3429041,29.4379374 C22.3429041,26.708395 23.8494753,24.3319752 26.0895087,22.9767479 L18.1205403,10.7224387 C17.644781,9.98756193 16.6040575,9.74896557 15.8705953,10.2643337 C10.1119254,14.2727526 6.21664608,20.609872 5.71115182,27.8441137 C5.6516819,28.7030606 6.41487912,29.4379374 7.31683947,29.4379374 Z" id="Reactor-Shape" fill="#FFFFFF" fill-rule="nonzero"></path>
                </g>
                <g id="zebra-disk" fill-rule="nonzero">
                    <path d="M93.2825557,10.5174899 C91.2730727,9.74414507 89.109014,10.8268279 88.3361359,12.6828555 C87.5632578,14.6935521 88.6452871,16.8589177 90.5001946,17.6322625 C108.121815,24.4376972 120.797016,38.3579044 126.516314,55.0621531 L102.557093,61.4035809 C101.011337,57.3821877 98.847278,53.6701324 95.9103412,50.422084 C89.4181652,42.9979735 80.6073549,38.5125734 70.7145152,37.8938975 C60.9762512,37.2752216 51.8562897,40.52327 44.9003868,46.2460219 L27.8970686,29.5417732 C35.9350008,22.2723316 45.8278405,17.1682556 56.4935582,15.00289 C55.5661045,12.5281865 55.2569533,9.89881404 55.7206801,7.26944156 C30.6794298,12.0641796 9.50256988,30.9337939 2.546667,56.2995049 C0.228032705,64.8062982 -0.544845393,73.6224294 0.382608324,82.2838917 C0.537183944,84.2945883 2.23751576,85.6866091 4.24699881,85.6866091 C4.40157443,85.6866091 4.55615005,85.6866091 4.71072567,85.6866091 C6.87478435,85.3772711 8.42054054,83.5212435 8.11138931,81.3558779 C7.18393559,73.6224294 7.80223807,65.888981 9.96629674,58.3102015 C12.4395067,49.4940702 16.767624,41.6059528 22.4869219,34.9551871 L39.4902401,51.8141048 C35.0075471,57.3821877 32.0706103,64.4969602 31.6068835,72.0757397 C30.5248541,88.1613126 39.9539669,102.545527 54.0203483,108.422948 L46.9098698,131.777962 C36.7078789,127.756569 27.742493,121.260472 20.9411657,112.753679 C19.2408339,114.764375 16.9221996,116.156396 14.2944141,116.929741 C23.2598,128.529914 35.7804252,137.036707 50.1559578,141.0581 C56.3389826,142.759459 62.5220074,143.532804 68.7050322,143.532804 C83.5442917,143.532804 97.9198243,138.738066 110.131298,129.457927 C111.83163,128.220576 112.140781,125.745872 110.904176,124.044513 C109.667571,122.343155 107.194361,122.033817 105.49403,123.271169 C90.8093458,134.562003 72.2602714,138.274059 54.3294996,133.943328 L61.4399781,110.588313 C62.8311586,110.897651 64.3769148,111.05232 65.7680954,111.206989 C66.6955491,111.206989 67.4684272,111.361658 68.395881,111.361658 C87.5632578,111.361658 103.639122,96.3587679 105.030303,77.1798157 C105.184878,74.3957743 105.030303,71.6117328 104.721152,68.9823604 L128.680373,62.6409326 C130.53528,71.7664018 130.226129,81.5105469 127.598343,91.254692 C127.134616,93.1107196 126.516314,94.9667472 125.743436,96.8227749 C127.134616,97.1321128 128.371221,97.5961197 129.607826,98.2147956 C130.689856,98.8334715 131.771885,99.6068163 132.699339,100.53483 C133.626792,98.2147956 134.399671,95.7400921 135.172549,93.4200575 C144.447086,58.7742084 126.516314,23.2003454 93.2825557,10.5174899 Z M97.9198243,76.5611399 C96.837795,92.8013816 82.616838,105.329568 66.2318223,104.246885 C65.3043686,104.246885 64.3769148,104.092216 63.4494611,103.937547 C60.8216756,103.473541 58.3484657,102.700196 56.0298314,101.617513 C45.0549624,96.6681059 37.6353327,85.2226021 38.5627864,72.3850777 C39.0265132,66.5076568 41.1905719,60.9395739 44.5912355,56.6088428 C46.1369917,54.5981462 47.9918992,52.7421186 50.0013822,51.0407599 C55.1023777,47.0193667 61.4399781,44.6993322 68.2413053,44.6993322 C68.8596078,44.6993322 69.6324859,44.6993322 70.2507884,44.6993322 C78.134145,45.318008 85.3991991,48.8753943 90.6547702,54.9074841 C92.8188289,57.3821877 94.5191607,60.1662291 95.7557656,63.1049395 C96.6832193,65.4249741 97.4560974,68.0543465 97.7652487,70.5290501 C98.0743999,72.6944156 98.0743999,74.5504433 97.9198243,76.5611399 Z" id="Shape" fill="#FFFFFF"></path>
                    <path d="M68.5504566,-3.5487401e-14 C64.9952173,-3.5487401e-14 61.5945537,2.0106966 59.8942219,5.10407599 C57.2664363,9.89881404 58.9667682,15.9309038 63.7586124,18.5602763 C65.3043686,19.3336212 66.8501248,19.7976281 68.5504566,19.7976281 C72.1056958,19.7976281 75.5063595,17.7869315 77.2066913,14.6935521 C79.8344768,9.89881404 78.134145,3.86672424 73.3423008,1.23735176 C71.7965446,0.464006908 70.2507884,-3.5487401e-14 68.5504566,-3.5487401e-14 Z" id="Path" fill="#EC8D53"></path>
                    <path d="M11.2029017,94.3480713 C7.64766245,94.3480713 4.24699881,96.3587679 2.546667,99.4521473 C-0.0811185344,104.246885 1.61921328,110.278975 6.41105749,112.908348 C7.95681369,113.681693 9.50256988,114.145699 11.2029017,114.145699 C14.7581409,114.145699 18.1588046,112.135003 19.8591364,109.041623 C22.4869219,104.246885 20.7865901,98.2147956 15.9947459,95.5854231 C14.4489897,94.8120783 12.9032335,94.3480713 11.2029017,94.3480713 Z" id="Path" fill="#EC8D53"></path>
                    <path d="M123.11565,99.4521473 C119.560411,99.4521473 116.159747,101.462844 114.459416,104.556223 C111.83163,109.350961 113.531962,115.383051 118.323806,118.012424 C119.869562,118.785769 121.415318,119.249775 123.11565,119.249775 C126.67089,119.249775 130.071553,117.239079 131.771885,114.145699 C134.399671,109.350961 132.699339,103.318872 127.907495,100.689499 C126.516314,99.7614853 124.815982,99.4521473 123.11565,99.4521473 Z" id="Path" fill="#EC8D53"></path>
                </g>
            </g>
        </g>
    </g>
</svg>