<?xml version="1.0" encoding="UTF-8"?>
<svg width="537px" height="204px" viewBox="0 0 537 204" version="1.1" xmlns="http://www.w3.org/2000/svg" xmlns:xlink="http://www.w3.org/1999/xlink">
    <!-- Generator: Sketch 63.1 (92452) - https://sketch.com -->
    <title>reactor-plus-fusionauth</title>
    <desc>Created with Sketch.</desc>
    <g id="Page-1" stroke="none" stroke-width="1" fill="none" fill-rule="evenodd">
        <g id="reactor-plus-fusionauth" transform="translate(0.500000, 0.000000)">
            <g id="Group-2" transform="translate(240.000000, 73.000000)" fill="#D2D2D2">
                <rect id="Rectangle" x="23.2" y="1.8189894e-13" width="11.2" height="57.6"></rect>
                <rect id="Rectangle" transform="translate(28.800000, 28.800000) rotate(-270.000000) translate(-28.800000, -28.800000) " x="23.2" y="0" width="11.2" height="57.6"></rect>
            </g>
            <g id="reactor-logo-black" transform="translate(0.000000, 5.000000)">
                <circle id="Oval" fill="#000000" cx="99.249825" cy="99.249825" r="99.249825"></circle>
                <path d="M126.584656,97.8661617 L179.614676,97.8661617 C181.211416,97.8661617 183.268147,97.6345387 184.313805,96.5973999 C185.352731,95.566937 185.386075,93.7358947 185.281473,92.2085805 C183.497481,66.6821129 169.750253,44.3211966 149.426743,30.1772436 C148.170485,29.3110361 146.391422,28.0935461 144.976216,28.3564465 C143.475372,28.635256 142.350413,30.4590897 141.486232,31.7936953 L113.362132,75.0337804 C121.267662,79.8494596 126.584656,88.2348032 126.584656,97.8661617 Z M114.626283,120.488215 C110.403751,123.183673 105.42597,124.828952 100.070564,124.828952 C94.7151582,124.828952 89.7717066,123.183673 85.5148455,120.488215 L57.9139074,165.470857 C57.1284529,166.755684 55.6517303,168.560339 55.9299813,169.941036 C56.2354774,171.456924 58.3990896,172.524434 59.8363608,173.31219 C71.817365,179.893308 85.5148455,183.67395 100.070564,183.67395 C114.626283,183.67395 128.323763,179.893308 140.304767,173.31219 C141.708026,172.543076 143.618003,171.418458 143.944195,169.941036 C144.256403,168.526949 143.033083,166.771946 142.227221,165.470857 L114.626283,120.488215 Z M100.461493,113.467578 C109.310321,113.467578 116.489559,106.30474 116.489559,97.4761263 C116.489559,88.6475125 109.310321,81.4846748 100.461493,81.4846748 C91.6126639,81.4846748 84.4334257,88.6475125 84.4334257,97.4761263 C84.4334257,106.30474 91.6126639,113.467578 100.461493,113.467578 Z M19.7445948,97.8661617 L72.7746147,97.8661617 C72.7746147,88.232164 78.0916088,79.8445227 85.9971395,75.0612092 L57.8730392,31.8092756 C57.0617962,30.5560814 56.0541492,28.3889941 54.6591986,28.0561825 C53.1669836,27.7001654 51.2703986,29.2522378 49.9325283,30.1923809 C29.6090181,44.3402096 15.86179,66.7072532 14.0777985,92.2407155 C13.9728401,93.7568102 13.8162182,96.2639495 14.861572,97.2913968 C15.9065729,98.3184973 18.1532633,97.8661617 19.7445948,97.8661617 Z" id="fan-blades" fill="#EC8D53" fill-rule="nonzero"></path>
            </g>
            <g id="Logo" transform="translate(341.500000, 0.000000)" fill-rule="nonzero">
                <path d="M132.288,14.88 C129.408,13.8 126.288,15.24 125.208,18 C124.128,20.88 125.568,24 128.328,25.08 C153.288,34.68 171.288,54.36 179.328,77.88 L145.368,87 C143.208,81.36 140.088,76.2 136.008,71.52 C126.888,61.08 114.168,54.72 100.368,53.76 C86.568,52.8 73.608,57.36 63.768,65.52 L39.528,41.76 C50.928,31.56 64.968,24.24 80.088,21.12 C78.648,17.76 78.288,13.92 79.128,10.2 C43.608,17.16 13.608,43.8 3.528,79.8 C0.168,91.8 -0.792,104.16 0.648,116.52 C1.008,119.28 3.288,121.44 6.048,121.44 C6.288,121.44 6.408,121.44 6.648,121.44 C9.648,121.08 11.808,118.44 11.448,115.44 C10.248,104.52 11.088,93.48 14.088,82.68 C17.568,70.2 23.808,59.04 31.848,49.56 L56.088,73.32 C49.728,81.24 45.648,91.2 44.928,102 C43.368,124.68 56.688,145.08 76.608,153.48 L66.648,186.48 C52.128,180.96 39.408,171.6 29.808,159.6 C27.408,162.48 24.168,164.52 20.448,165.48 C33.168,181.92 50.808,193.92 71.208,199.56 C79.968,201.96 88.728,203.16 97.488,203.16 C118.368,203.16 138.888,196.32 156.168,183.24 C158.568,181.44 159.048,177.96 157.248,175.56 C155.448,173.16 151.968,172.68 149.568,174.48 C128.568,190.32 102.288,195.84 76.968,189.6 L86.928,156.6 C88.968,156.96 91.008,157.32 93.048,157.44 C94.248,157.56 95.448,157.56 96.648,157.56 C123.888,157.56 146.688,136.32 148.488,109.08 C148.728,105.12 148.608,101.28 148.008,97.44 L181.968,88.32 C184.608,101.28 184.248,115.08 180.408,128.76 C179.688,131.4 178.728,134.04 177.768,136.68 C179.688,137.04 181.488,137.64 183.168,138.6 C184.848,139.56 186.168,140.64 187.488,141.84 C188.808,138.48 190.008,135.12 190.968,131.64 C204.768,83.16 179.448,32.88 132.288,14.88 Z M138.888,108.48 C137.328,131.52 117.168,149.28 93.888,147.72 C92.568,147.6 91.248,147.48 89.928,147.24 C86.208,146.64 82.728,145.56 79.488,144 C63.888,136.92 53.448,120.72 54.768,102.72 C55.368,94.32 58.368,86.64 63.168,80.28 C65.328,77.4 67.968,74.76 70.848,72.48 C78.048,66.84 87.048,63.48 96.768,63.48 C97.728,63.48 98.688,63.48 99.768,63.6 C111.048,64.32 121.248,69.48 128.688,78 C131.688,81.48 134.088,85.44 135.888,89.64 C137.328,93 138.288,96.6 138.768,100.2 C139.008,102.84 139.128,105.72 138.888,108.48 Z" id="Shape" fill="#5B6670"></path>
                <path d="M128.928,77.64 C121.488,69.12 111.168,63.96 99.768,63.12 C98.808,63 97.728,63 96.768,63 C74.568,63 55.968,80.4 54.408,102.6 C52.848,126 70.488,146.28 93.888,147.96 C117.408,149.64 137.688,131.64 139.248,108.48 C139.968,97.2 136.368,86.28 128.928,77.64 Z M97.008,131.64 C90.648,131.64 85.488,132.24 85.488,128.64 L90.528,99.84 C87.648,97.8 85.848,94.44 85.848,90.72 C85.848,84.6 90.888,79.56 97.008,79.56 C103.128,79.56 108.168,84.6 108.168,90.72 C108.168,94.44 106.248,97.8 103.488,99.84 L108.648,128.4 C108.648,128.52 108.648,128.64 108.648,128.64 C108.528,132.24 103.368,131.64 97.008,131.64 Z" id="Shape" fill="#EC8D53"></path>
                <path d="M97.128,0 C91.968,0 87.288,2.76 84.768,7.2 C81.048,14.04 83.448,22.56 90.288,26.4 C92.328,27.6 94.728,28.2 97.128,28.2 C102.288,28.2 106.968,25.44 109.488,21 C113.208,14.16 110.808,5.64 103.968,1.8 C101.928,0.6 99.528,0 97.128,0 Z" id="Path" fill="#EC8D53"></path>
                <path d="M15.888,133.56 C10.728,133.56 6.048,136.32 3.528,140.76 C-0.192,147.6 2.208,156.12 9.048,159.96 C11.088,161.16 13.488,161.76 15.888,161.76 C21.048,161.76 25.728,159 28.248,154.56 C31.968,147.72 29.568,139.2 22.728,135.36 C20.688,134.16 18.288,133.56 15.888,133.56 Z" id="Path" fill="#EC8D53"></path>
                <path d="M174.528,140.76 C169.368,140.76 164.688,143.52 162.168,147.96 C158.448,154.8 160.848,163.32 167.688,167.16 C169.728,168.36 172.128,168.96 174.528,168.96 C179.688,168.96 184.368,166.2 186.888,161.76 C190.608,154.92 188.208,146.4 181.368,142.56 C179.328,141.36 176.928,140.76 174.528,140.76 Z" id="Path" fill="#EC8D53"></path>
            </g>
        </g>
    </g>
</svg>