<?xml version="1.0" encoding="UTF-8"?>
<svg width="413px" height="557px" viewBox="0 0 413 557" version="1.1" xmlns="http://www.w3.org/2000/svg" xmlns:xlink="http://www.w3.org/1999/xlink">
    <!-- Generator: Sketch 63.1 (92452) - https://sketch.com -->
    <title>reactor-firewall</title>
    <desc>Created with Sketch.</desc>
    <g id="Page-1" stroke="none" stroke-width="1" fill="none" fill-rule="evenodd">
        <g id="reactor-firewall" transform="translate(3.000000, 4.269721)">
            <g id="Shield" fill-rule="nonzero">
                <path d="M384.072008,73.9020919 L407,73.9020919 L407,337.20501 L406.958923,337.450678 L406.76631,338.597694 C406.682109,339.185194 406.586738,339.790674 406.420411,340.72333 C406.162162,342.17143 405.832221,343.812977 405.420657,345.640405 C404.278986,350.709649 402.708733,356.346613 400.638773,362.445801 C394.814959,379.605811 386.163829,397.250743 374.130299,414.476317 C359.644642,435.292554 340.590832,454.747763 316.474234,471.59576 C286.935206,492.231898 251.166577,507.969075 208.636458,517.642681 L203.5,518.806297 L202.837174,518.65614 L198.361004,517.642104 C155.833423,507.969075 120.064794,492.231898 90.5257662,471.59576 C66.4091675,454.747763 47.3553575,435.292553 32.8728203,414.480792 C20.8361706,397.250743 12.185041,379.605811 6.36122702,362.445801 C4.29126684,356.346613 2.72101342,350.709649 1.57934325,345.640405 C1.16777883,343.812976 0.83783816,342.171429 0.57958862,340.723329 C0.41326135,339.790671 0.31788765,339.185173 0.24442384,338.666831 L0,337.205011 L0,73.9020919 L22.9279918,73.9020919 C57.3663192,73.9020919 95.9669961,62.0376572 135.639435,42.2183528 C149.610759,35.2386474 162.735684,27.7440715 174.627879,20.2369949 C178.818504,17.5916172 182.563702,15.1271984 185.806023,12.9128435 C187.798863,11.5518263 189.491769,10.3556155 189.922926,10.0333467 L203.5,0 L205.282957,1.31759057 L217.090401,10.0432523 C217.508231,10.3556155 219.201137,11.5518262 221.193977,12.9128435 C224.436298,15.1271984 228.181496,17.5916172 232.372121,20.2369949 C244.264316,27.7440715 257.389241,35.2386474 271.360566,42.2183528 C311.033004,62.0376572 349.633681,73.9020919 384.072008,73.9020919 Z" id="Shape-path" stroke="#FFFFFF" stroke-width="6" fill="#FFFFFF"></path>
                <polygon id="Path-2" stroke="#FFFFFF" fill="#FFFFFF" points="17 95.3850075 17 349.197085 54.5929252 424.951208 172.278935 497.448792 216.090837 512.730279 326.129088 452.921771 397 344.69871 397 92.1231686 318.806764 75.9272245 228.294711 35.8713985 205.022122 18.7302788 131.68072 67.819815"></polygon>
                <path d="M384.072008,76.9020919 C304.156695,76.9020919 216.107504,13.0541109 215.294117,12.4460349 L203.5,3.73027884 L191.705883,12.4460349 C190.892496,13.0541109 102.843306,76.9020919 22.9279918,76.9020919 L3,76.9020919 L3,336.955932 L3.20334685,338.172084 C3.40669372,339.590929 8.28701826,374.048568 35.3321501,412.762741 C59.7337729,447.828458 108.130324,494.042235 199.026369,514.71682 L203.5,515.730279 L207.973631,514.71682 C298.869676,494.042235 347.266226,447.828458 371.66785,412.762741 C398.712981,374.048568 403.593305,339.590929 403.796654,338.172084 L404,336.955932 L404,76.9020919 L384.072008,76.9020919 Z M375.53144,364.927428 C359.873733,403.641601 316.764199,469.921886 203.5,495.663771 C90.2358012,469.921886 47.3296146,403.43891 31.4685598,364.927428 C25.5715011,350.738988 22.7246451,335.537089 22.7246451,320.132496 L22.7246451,96.7659082 C110.570487,96.7659082 203.5,28.4587032 203.5,28.4587032 C203.5,28.4587032 296.429514,96.7659082 384.072008,96.7659082 L384.072008,319.929803 C384.072008,335.334396 381.225151,350.536297 375.53144,364.927428 Z" id="Shape" fill="#666288"></path>
            </g>
            <g id="cloud" transform="translate(40.000000, 133.730279)">
                <path d="M87.2625336,65.317384 L89.669753,59.619615 C105.145735,23.4234528 140.564624,1.42108547e-14 179.738148,1.42108547e-14 C233.78401,1.42108547e-14 277.74667,44.224745 277.74667,98.5779 C277.74667,98.763327 277.74667,98.763327 277.74667,99.319608 C277.74667,99.653377 277.74667,99.653377 277.74667,99.907041 L277.74667,106.999479 L284.784786,107.282682 L284.789845,107.282891 C308.651666,108.291465 327.388452,128.060886 327.388452,152.313169 C327.388452,177.20424 307.428172,197.345679 282.796751,197.345679 L67.0531911,197.345679 C30.0589459,197.345679 -2.84217094e-14,167.046448 -2.84217094e-14,129.907651 C-2.84217094e-14,92.707789 30.1196924,62.469623 67.0531911,62.469623 C71.7220531,62.469623 76.3769823,63.000649 81.3588958,64.044777 L87.2625336,65.317384 Z" id="Path" stroke="#EC8D53" stroke-width="14"></path>
                <g id="Group-2" transform="translate(103.000000, 31.000000)">
                    <circle id="Oval" fill="#343A40" cx="73.0611923" cy="73.0611923" r="73.0611923"></circle>
                    <path d="M91.3436711,71.5341878 L127.857008,71.5341878 C130.048772,71.5341878 131.903341,69.7489264 131.758829,67.639072 C130.530478,50.0646804 121.06495,34.6696988 107.071382,24.9319092 C105.289068,23.7030929 102.76011,24.259538 101.604015,26.0447995 L82.2394221,55.8146132 C87.6827033,59.1300987 91.3436711,64.9032168 91.3436711,71.5341878 Z M83.1098418,87.1089563 C80.2024561,88.9647177 76.7750503,90.0974552 73.0876343,90.0974552 C69.4002184,90.0974552 65.9964498,88.9647177 63.0654269,87.1089563 L44.0610523,118.078481 C42.9264628,119.934243 43.4937576,122.440726 45.3847401,123.47706 C53.6341515,128.00801 63.0654269,130.610896 73.0876343,130.610896 C83.1098418,130.610896 92.5411172,128.00801 100.790529,123.47706 C102.681511,122.440726 103.248806,119.910142 102.114216,118.078481 L83.1098418,87.1089563 Z M73.3568045,82.2754075 C79.4495849,82.2754075 84.392784,77.3439569 84.392784,71.2656573 C84.392784,65.1873578 79.4495849,60.2559072 73.3568045,60.2559072 C67.2640242,60.2559072 62.3208251,65.1873578 62.3208251,71.2656573 C62.3208251,77.3439569 67.2640242,82.2754075 73.3568045,82.2754075 Z M17.7799199,71.5341878 L54.293257,71.5341878 C54.293257,64.9013998 57.9542249,59.1266998 63.397506,55.8334974 L44.032913,26.0555261 C42.8768179,24.2697755 40.3478598,23.6899863 38.5655465,24.9423309 C24.5719787,34.6827888 15.10645,50.0819889 13.8780989,67.6611962 C13.733587,69.7484372 15.5881563,71.5341878 17.7799199,71.5341878 Z" id="Reactor-Shape" fill="#EC8D53" fill-rule="nonzero"></path>
                </g>
            </g>
            <path d="M222.922708,481.281346 L221.302577,475.600753 C223.125225,474.992117 225.150389,474.383482 226.973038,473.977726 L228.795686,479.658319 C226.770521,480.266954 224.745357,480.672713 222.922708,481.281346 Z M234.466148,477.629536 L232.6435,471.948942 C234.466148,471.340307 236.288796,470.731672 238.111444,469.920159 L240.136609,475.600753 C238.31396,476.412265 236.288796,477.020901 234.466148,477.629536 Z M174.116237,477.22378 C172.293589,476.615144 170.268424,475.803632 168.445776,475.194996 L170.470941,469.71728 C172.293589,470.325915 174.116237,471.137428 175.938886,471.746063 L174.116237,477.22378 Z M246.212104,473.36909 L243.984421,467.891374 C245.807071,467.079862 247.629719,466.471226 249.452367,465.659712 L251.680048,471.137428 C249.8574,471.948942 248.034752,472.557578 246.212104,473.36909 Z M161.560216,472.557578 C159.737567,471.746063 157.914919,470.934551 156.092271,470.123036 L158.522469,464.64532 C160.345117,465.456835 162.167765,466.268347 163.990414,466.876982 L161.560216,472.557578 Z M257.350509,468.500009 L254.920311,463.022293 C256.742961,462.210781 258.565609,461.399266 260.185739,460.587754 L262.615938,466.06547 C260.995805,466.876982 259.173157,467.688497 257.350509,468.500009 Z M138.473337,462.007902 C136.650689,460.99351 134.828041,460.181997 133.207909,459.167604 L136.04314,453.892767 C137.663271,454.907158 139.48592,455.718673 141.308568,456.733064 L138.473337,462.007902 Z M279.019772,457.747456 L276.184542,452.472619 C277.804674,451.458227 279.627322,450.443836 281.247453,449.632321 L284.2852,454.704281 C282.462552,455.718673 280.842422,456.733064 279.019772,457.747456 Z M127.537448,455.718673 C125.714799,454.704281 124.094667,453.68989 122.474536,452.675498 L125.714799,447.603538 C127.334931,448.61793 128.955063,449.632321 130.777711,450.646713 L127.537448,455.718673 Z M289.348113,451.458227 L286.10785,446.386267 C287.72798,445.371876 289.348113,444.357484 290.968245,443.140214 L294.208508,448.009294 C292.790893,449.429444 291.170761,450.443836 289.348113,451.458227 Z M116.601558,449.226565 C114.981426,448.009294 113.361294,446.994903 111.538646,445.777632 L114.981426,440.908551 C116.601558,442.125822 118.22169,443.140214 119.841821,444.154605 L116.601558,449.226565 Z M299.473936,444.76324 L296.031156,439.89416 C297.651288,438.676891 299.271421,437.662497 300.689036,436.445228 L304.334332,441.11143 C302.714199,442.531578 301.094069,443.748849 299.473936,444.76324 Z M106.880767,442.328701 C105.260635,441.11143 103.640503,439.89416 102.020371,438.676891 L105.665668,434.010687 C107.2858,435.227958 108.703415,436.445228 110.323547,437.662497 L106.880767,442.328701 Z M308.992211,437.45962 L305.346914,432.793418 C306.967046,431.576148 308.384661,430.358877 309.802278,429.141606 L313.650089,433.604931 C312.232474,435.025079 310.612342,436.242349 308.992211,437.45962 Z M96.5524266,434.010687 C94.9322947,432.793418 93.5146795,431.373269 92.0970642,429.953121 L96.1473936,425.489796 C97.5650089,426.707067 98.982624,428.127215 100.602756,429.344485 L96.5524266,434.010687 Z M318.307969,429.750242 L314.25764,425.286917 C315.675255,424.069648 317.09287,422.649498 318.510485,421.229351 L322.560815,425.489796 C321.143199,426.909944 319.725584,428.330094 318.307969,429.750242 Z M87.4391851,425.895552 C86.0215698,424.475404 84.6039545,423.055257 83.1863391,421.635107 L87.4391851,417.374661 C88.8568005,418.794811 90.2744158,420.214959 91.6920311,421.43223 L87.4391851,425.895552 Z M327.016178,421.229351 L322.763331,416.968905 C324.180946,415.548757 325.396045,414.128607 326.81366,412.708459 L331.269024,416.766026 C329.648892,418.389053 328.433793,419.809203 327.016178,421.229351 Z M78.933493,417.171784 C77.5158778,415.751634 76.3007789,414.128607 74.8831636,412.708459 L79.3385261,408.85377 C80.5536249,410.273918 81.9712403,411.694068 83.1863391,413.317095 L78.933493,417.171784 Z M335.116836,412.302703 L330.661474,408.448014 C331.876573,407.027864 333.091672,405.404837 334.509287,403.984689 L339.167167,407.6365 C337.74955,409.259526 336.331935,410.882553 335.116836,412.302703 Z M71.0353505,408.042256 C69.8202516,406.419231 68.6051528,404.796204 67.3900539,403.376054 L72.0479328,399.724244 C73.2630318,401.347271 74.4781307,402.767419 75.6932294,404.390446 L71.0353505,408.042256 Z M342.609945,402.970298 L337.952068,399.318488 C339.167167,397.695461 340.382264,396.275311 341.394848,394.652284 L346.255243,398.101217 C345.040144,399.724244 343.825045,401.347271 342.609945,402.970298 Z M63.7447574,398.304096 L63.1372079,397.492582 C62.1246255,396.072434 61.1120432,394.652284 60.3019772,393.232136 L65.3648892,389.986082 C66.174955,391.40623 67.1875374,392.82638 68.2001199,394.04365 L68.6051528,394.652284 L63.7447574,398.304096 Z M349.698024,393.029257 L344.635111,389.783203 C345.647693,388.160176 346.862792,386.537149 347.875374,384.914122 L352.938286,387.957299 C351.925705,389.580326 350.710605,391.40623 349.698024,393.029257 Z M57.0617135,388.363055 C56.0491312,386.537149 55.0365488,384.914122 54.0239664,383.088218 L59.2893948,380.045043 C60.3019772,381.66807 61.3145595,383.291095 62.3271421,385.117001 L57.0617135,388.363055 Z M355.976034,382.682462 L350.710605,379.842164 C351.723187,378.016258 352.533253,376.393231 353.545835,374.770204 L358.811264,377.610502 C358.001199,379.233529 356.988616,380.856556 355.976034,382.682462 Z M51.1887357,377.813381 C50.1761533,375.987475 49.3660875,374.161569 48.5560215,372.335665 L53.8214501,369.698246 C54.6315159,371.321273 55.4415817,373.147177 56.4541642,374.973083 L51.1887357,377.813381 Z M361.646495,371.929908 L356.178549,369.292488 C356.988616,367.466584 357.798682,365.640678 358.608748,364.017651 L364.076692,366.452192 C363.266628,368.278096 362.456561,370.104002 361.646495,371.929908 Z M45.9233073,366.857948 C45.1132415,364.829165 44.3031755,363.003259 43.4931097,361.177355 L48.9610546,358.945693 C49.568604,360.771597 50.3786699,362.394624 51.1887357,364.423409 L45.9233073,366.857948 Z M366.506891,360.771597 L361.038945,358.539935 C361.849011,356.71403 362.456561,354.888124 363.06411,353.06222 L368.734572,355.091003 C367.924505,356.916908 367.316957,358.945693 366.506891,360.771597 Z M41.2654284,355.49676 C40.4553626,353.467976 39.8478131,351.439193 39.2402636,349.816166 L44.9107249,347.99026 C45.5182744,349.613287 46.1258239,351.64207 46.7333733,353.467976 L41.2654284,355.49676 Z M370.55722,349.410408 L364.886758,347.584504 C365.494309,345.555721 366.101857,343.526936 366.506891,341.903909 L372.177352,343.324058 C371.772319,345.352842 371.16477,347.381625 370.55722,349.410408 Z M37.8226484,343.932694 C37.2150989,341.903909 36.8100658,339.875126 36.4050329,338.049221 L42.2780107,336.831951 C42.6830437,338.657855 43.0880767,340.483761 43.6956262,342.512544 L37.8226484,343.932694 Z M374,229.712173 L368.127023,229.712173 L368.127023,223.828701 L374,223.828701 L374,229.712173 Z M374,217.742349 L368.127023,217.742349 L368.127023,211.858877 L374,211.858877 L374,217.742349 Z M374,205.772525 L368.127023,205.772525 L368.127023,199.889053 L374,199.889053 L374,205.772525 Z M41.8729778,200.294811 L36,200.294811 L36,194.411337 L41.8729778,194.411337 L41.8729778,200.294811 Z M374,193.802703 L368.127023,193.802703 L368.127023,187.919231 L374,187.919231 L374,193.802703 Z M41.8729778,188.324987 L36,188.324987 L36,182.441514 L41.8729778,182.441514 L41.8729778,188.324987 Z M374,181.832879 L368.127023,181.832879 L368.127023,175.949406 L374,175.949406 L374,181.832879 Z M41.8729778,176.355163 L36,176.355163 L36,170.47169 L41.8729778,170.47169 L41.8729778,176.355163 Z M374,170.674569 L368.127023,170.674569 L368.127023,164.791096 L374,164.791096 L374,170.674569 Z M41.8729778,164.385339 L36,164.385339 L36,158.501867 L41.8729778,158.501867 L41.8729778,164.385339 Z M374,159.516259 L368.127023,159.516259 L368.127023,153.632786 L374,153.632786 L374,159.516259 Z M41.8729778,152.415516 L36,152.415516 L36,146.532043 L41.8729778,146.532043 L41.8729778,152.415516 Z M374,148.15507 L368.127023,148.15507 L368.127023,142.271597 L374,142.271597 L374,148.15507 Z M41.8729778,140.64857 L36,140.64857 L36,134.765098 L41.8729778,134.765098 L41.8729778,140.64857 Z M374,136.99676 L368.127023,136.99676 L368.127023,131.113287 L374,131.113287 L374,136.99676 Z M41.8729778,128.678747 L36,128.678747 L36,122.795274 L41.8729778,122.795274 L41.8729778,128.678747 Z M374,125.83845 L368.127023,125.83845 L368.127023,119.954977 L374,119.954977 L374,125.83845 Z M41.8729778,115.694532 L36,115.694532 L36,108.999546 L41.8729778,108.796667 L41.8729778,115.694532 Z M373.797484,114.68014 C371.772319,114.68014 369.747153,114.68014 367.72199,114.477261 L367.924505,108.593789 C369.949671,108.593789 371.772319,108.796667 373.797484,108.796667 L373.797484,114.68014 Z M47.1384062,114.477261 L46.5308568,108.593789 C48.5560215,108.39091 50.3786699,108.188032 52.4038346,107.985154 L53.0113841,113.868626 C51.1887357,114.071505 49.163571,114.274383 47.1384062,114.477261 Z M360.22888,114.071505 C358.203715,113.868626 356.178549,113.46287 354.153386,113.259991 L354.963452,107.376519 C356.988616,107.579397 358.811264,107.985154 360.836429,108.188032 L360.22888,114.071505 Z M58.2768124,113.057113 L57.4667466,107.17364 C59.2893948,106.970762 61.3145595,106.565005 63.3397245,106.159248 L64.3523068,112.042721 C62.1246255,112.448478 60.3019772,112.651356 58.2768124,113.057113 Z M347.672858,112.448478 C345.647693,112.042721 343.622529,111.636964 341.799881,111.231207 L343.014978,105.347735 C344.837626,105.753492 346.862792,106.159248 348.887957,106.362127 L347.672858,112.448478 Z M70.2252847,110.825451 L69.0101857,104.941978 C70.8328341,104.536221 72.8579988,104.130465 74.680647,103.724708 L75.8957459,109.608181 C74.0730976,110.013937 72.0479328,110.419694 70.2252847,110.825451 Z M335.724386,110.216816 C333.699221,109.811059 331.876573,109.405302 329.851408,108.796667 L331.269024,102.913195 C333.091672,103.318951 335.116836,103.927586 336.939484,104.333343 L335.724386,110.216816 Z M81.9712403,108.188032 L80.5536249,102.304559 C82.3762732,101.898803 84.401438,101.290168 86.2240863,100.884411 L87.8442182,106.565005 C85.8190533,107.17364 83.7938885,107.782275 81.9712403,108.188032 Z M322.965849,107.17364 C320.940683,106.565005 319.118035,106.159248 317.09287,105.550613 L318.713002,99.8700188 C320.53565,100.478654 322.560815,100.884411 324.383463,101.493046 L322.965849,107.17364 Z M93.5146795,105.144857 L91.8945476,99.2613836 C93.717196,98.6527487 95.7423607,98.0441135 97.5650089,97.4354784 L99.387657,103.116073 C97.3624926,103.927586 95.3373278,104.536221 93.5146795,105.144857 Z M311.017375,103.521829 C309.194727,102.913195 307.169563,102.304559 305.346914,101.695924 L307.169563,96.0153299 C308.992211,96.6239649 310.814859,97.2326 312.840023,97.8412352 L311.017375,103.521829 Z M104.855602,101.493046 L103.032954,95.8124516 C104.855602,95.2038164 106.67825,94.5951813 108.703415,93.7836678 L110.72858,99.4642621 C108.703415,100.072897 106.880767,100.884411 104.855602,101.493046 Z M298.866388,99.2613836 C297.043738,98.6527487 295.018574,97.8412352 293.195926,97.2326 L295.22109,91.5520059 C297.043738,92.1606408 298.866388,92.9721543 300.689036,93.5807895 L298.866388,99.2613836 Z M116.196525,97.4354784 L114.17136,91.7548842 C115.994008,91.146249 117.816657,90.3347356 119.639305,89.5232221 L121.866986,95.2038164 C120.044338,96.0153299 118.22169,96.6239649 116.196525,97.4354784 Z M287.525465,95.2038164 C285.702817,94.3923029 283.880167,93.7836678 282.057519,92.9721543 L284.2852,87.4944385 C286.10785,88.305952 287.930498,88.9145871 289.753146,89.7261006 L287.525465,95.2038164 Z M127.334931,92.9721543 L125.10725,87.4944385 C126.929898,86.682925 128.752546,85.8714115 130.575195,85.2627766 L133.005392,90.7404924 C131.182744,91.3491275 129.157579,92.1606408 127.334931,92.9721543 Z M276.387058,90.5376141 C274.56441,89.7261006 272.741761,88.9145871 270.919113,88.1030736 L273.34931,82.6253578 C275.17196,83.4368713 276.994608,84.2483846 278.817256,85.059898 L276.387058,90.5376141 Z M139.080887,88.1030736 L136.650689,82.6253578 C138.473337,81.8138443 140.295986,81.0023308 142.118634,80.1908174 L144.548832,85.6685332 C142.726183,86.4800467 140.903535,87.2915602 139.080887,88.1030736 Z M265.451168,85.4656549 C263.62852,84.6541414 261.805872,83.8426279 259.983224,82.8282361 L262.615938,77.5533986 C264.438586,78.3649121 266.058718,79.1764256 267.881366,80.1908174 L265.451168,85.4656549 Z M150.421809,82.6253578 L147.789095,77.3505203 C149.611744,76.5390068 151.231875,75.524615 153.054524,74.7131015 L155.687238,79.987939 C153.86459,80.7994525 152.041941,81.8138443 150.421809,82.6253578 Z M254.717795,80.3936957 C252.895147,79.5821822 251.072499,78.5677904 249.452367,77.7562769 L252.287597,72.4814394 C254.110247,73.2929529 255.730377,74.3073447 257.553025,75.1188582 L254.717795,80.3936957 Z M162.167765,76.5390068 L159.332534,71.2641693 C161.155183,70.2497775 162.775315,69.438264 164.597963,68.423872 L167.433194,73.6987095 C165.610545,74.7131015 163.990414,75.7274933 162.167765,76.5390068 Z M242.769324,74.3073447 C240.946674,73.2929529 239.124026,72.4814394 237.503895,71.4670476 L240.339125,66.1922101 C241.959257,67.2066019 243.781905,68.0181154 245.604553,69.0325072 L242.769324,74.3073447 Z M173.913721,70.046899 L171.07849,64.7720615 C172.901138,63.7576697 174.52127,62.7432779 176.343918,61.9317644 L179.381666,67.2066019 C177.559017,68.0181154 175.736369,69.0325072 173.913721,70.046899 Z M232.238467,68.0181154 C230.415817,67.0037236 228.795686,65.9893318 226.973038,64.97494 L230.010786,59.9029808 C231.630916,60.9173726 233.453564,61.9317644 235.073697,62.9461562 L232.238467,68.0181154 Z M185.254643,63.351913 L182.216897,58.2799538 C184.039545,57.265562 185.659676,56.2511702 187.279808,55.2367784 L190.317555,60.3087374 C188.697423,61.3231292 187.077292,62.3375212 185.254643,63.351913 Z M222.112643,61.9317644 C220.289993,60.9173726 218.669863,59.7001025 217.04973,58.888589 L220.289993,53.8166298 C221.910126,54.8310216 223.530258,55.8454134 225.352906,56.8598052 L222.112643,61.9317644 Z M211.784302,56.0482917 C209.961654,54.8310216 208.341522,53.8166298 206.721389,52.802238 L209.961654,47.7302788 C211.379269,48.7446706 213.201917,49.7590624 214.822049,50.9763327 L211.784302,56.0482917 Z M196.798083,56.4540485 L193.557818,51.3820894 C195.380468,50.1648192 197.000599,49.1504274 198.418214,48.1360354 L201.860994,53.0051163 C200.443379,54.0195081 198.620731,55.2367784 196.798083,56.4540485 Z" id="Shape" fill="#D5D5D5" fill-rule="nonzero"></path>
            <g id="fire-solid" transform="translate(152.000000, 390.730279)" fill="#EC8D53" fill-rule="nonzero">
                <path d="M64.35,7.12555976 C64.35,0.0181076453 55.2188542,-2.66062536 51.1969792,3.23139272 C14.3,57.2928237 66.7333333,59.7266781 66.7333333,86.006333 C66.7333333,96.6466069 58.0609792,105.25618 47.4134375,105.115823 C36.9357083,104.981438 28.6,96.2255352 28.6,85.7226322 L28.6,60.1865721 C28.6,53.7062481 20.7141458,50.5616485 16.2573125,55.2591368 C8.28208333,63.656681 0,78.0418058 0,95.5625711 C0,127.178788 25.6595625,152.9 57.2,152.9 C88.7404375,152.9 114.4,127.178788 114.4,95.5625711 C114.4,44.7084526 64.35,37.9265098 64.35,7.12555976 Z" id="Path" stroke="#FFFFFF" stroke-width="16.5"></path>
                <path d="M64.35,7.12555976 C64.35,0.0181076453 55.2188542,-2.66062536 51.1969792,3.23139272 C14.3,57.2928237 66.7333333,59.7266781 66.7333333,86.006333 C66.7333333,96.6466069 58.0609792,105.25618 47.4134375,105.115823 C36.9357083,104.981438 28.6,96.2255352 28.6,85.7226322 L28.6,60.1865721 C28.6,53.7062481 20.7141458,50.5616485 16.2573125,55.2591368 C8.28208333,63.656681 0,78.0418058 0,95.5625711 C0,127.178788 25.6595625,152.9 57.2,152.9 C88.7404375,152.9 114.4,127.178788 114.4,95.5625711 C114.4,44.7084526 64.35,37.9265098 64.35,7.12555976 Z" id="Path"></path>
            </g>
        </g>
    </g>
</svg>