<?xml version="1.0" encoding="UTF-8"?>
<svg width="659px" height="207px" viewBox="0 0 659 207" version="1.1" xmlns="http://www.w3.org/2000/svg" xmlns:xlink="http://www.w3.org/1999/xlink">
    <!-- Generator: Sketch 63.1 (92452) - https://sketch.com -->
    <title>reactor-plus-fusionauth</title>
    <desc>Created with Sketch.</desc>
    <g id="Page-1" stroke="none" stroke-width="1" fill="none" fill-rule="evenodd">
        <g id="reactor-plus-fusionauth" transform="translate(4.500000, 4.000000)">
            <g id="cloud-reactor" transform="translate(0.000000, 0.542497)">
                <path d="M87.7625336,65.7748866 L90.169753,60.0771176 C105.645735,23.8809554 141.064624,0.457502594 180.238148,0.457502594 C234.28401,0.457502594 278.24667,44.6822476 278.24667,99.0354026 C278.24667,99.2208296 278.24667,99.2208296 278.24667,99.7771106 C278.24667,100.11088 278.24667,100.11088 278.24667,100.364544 L278.24667,107.456982 L285.284786,107.740185 L285.289845,107.740394 C309.151666,108.748968 327.888452,128.518389 327.888452,152.770672 C327.888452,177.661743 307.928172,197.803182 283.296751,197.803182 L67.5531911,197.803182 C30.5589459,197.803182 0.5,167.503951 0.5,130.365154 C0.5,93.1652916 30.6196924,62.9271256 67.5531911,62.9271256 C72.2220531,62.9271256 76.8769823,63.4581516 81.8588958,64.5022796 L87.7625336,65.7748866 Z" id="Path" stroke="#EC8D53" stroke-width="8.4"></path>
                <path d="M199.9543,47.9232435 C198.145765,47.2272332 196.198113,48.2016477 195.502522,49.8720725 C194.806932,51.6816995 195.780758,53.6305285 197.450175,54.3265389 C213.309634,60.45143 224.717314,72.9796166 229.864683,88.0134404 L208.301384,93.7207254 C206.910203,90.1014715 204.96255,86.7606217 202.319307,83.8373782 C196.476349,77.1556787 188.546619,73.1188186 179.643064,72.5620103 C170.878626,72.0052021 162.670661,74.9284456 156.410348,80.0789223 L141.107362,65.0450984 C148.341501,58.502601 157.245056,53.9089326 166.844202,51.9601036 C166.009494,49.7328705 165.731258,47.3664352 166.148612,45 C143.611487,49.3152642 124.552313,66.2979171 118.292,89.127057 C116.205229,96.783171 115.509639,104.717689 116.344347,112.513005 C116.483466,114.322632 118.013764,115.575451 119.822299,115.575451 C119.961417,115.575451 120.100535,115.575451 120.239653,115.575451 C122.187306,115.297047 123.578486,113.626622 123.30025,111.677793 C122.465542,104.717689 123.022014,97.7575855 124.969667,90.9366839 C127.195556,83.0021658 131.090862,75.9028601 136.23823,69.917171 L151.541216,85.0901969 C147.506792,90.1014715 144.863549,96.5047668 144.446195,103.325668 C143.472369,117.802684 151.95857,130.748477 164.618313,136.038155 L158.218883,157.057668 C149.037091,153.438414 140.968244,147.591927 134.847049,139.935813 C133.316751,141.74544 131.22998,142.998259 128.864973,143.694269 C136.93382,154.134425 148.202383,161.790539 161.140362,165.409793 C166.705084,166.941015 172.269807,167.637026 177.834529,167.637026 C191.189863,167.637026 204.127842,163.321762 215.118168,154.969637 C216.648467,153.856021 216.926703,151.628788 215.813759,150.097565 C214.700814,148.566342 212.474925,148.287938 210.944627,149.401554 C197.728411,159.563306 181.034244,162.904155 164.89655,159.006497 L171.29598,137.986984 C172.548043,138.265389 173.939223,138.404591 175.191286,138.543793 C176.025994,138.543793 176.721585,138.682995 177.556293,138.682995 C194.806932,138.682995 209.27521,125.180394 210.527273,107.919337 C210.666391,105.413699 210.527273,102.908062 210.249036,100.541627 L231.812335,94.8343419 C233.481752,103.047264 233.203516,111.816995 230.838509,120.586725 C230.421155,122.25715 229.864683,123.927575 229.169092,125.598 C230.421155,125.876404 231.534099,126.29401 232.647044,126.850819 C233.62087,127.407627 234.594696,128.103637 235.429405,128.93885 C236.264113,126.850819 236.959703,124.623585 237.655294,122.535554 C246.002377,91.3542901 229.864683,59.3378135 199.9543,47.9232435 Z M204.127842,107.362528 C203.154015,121.978746 190.355154,133.254114 175.60864,132.279699 C174.773932,132.279699 173.939223,132.140497 173.104515,132.001295 C170.739508,131.583689 168.513619,130.887679 166.426848,129.913264 C156.549466,125.458798 149.871799,115.157845 150.706508,103.604073 C151.123862,98.3143938 153.071515,93.3031191 156.132112,89.4054611 C157.523293,87.5958342 159.192709,85.9254093 161.001244,84.3941865 C165.59214,80.7749326 171.29598,78.6869015 177.417175,78.6869015 C177.973647,78.6869015 178.669237,78.6869015 179.22571,78.6869015 C186.32073,79.2437098 192.859279,82.4453575 197.589293,87.8742383 C199.536946,90.1014715 201.067245,92.6071088 202.180189,95.2519482 C203.014897,97.3399792 203.710488,99.7064145 203.988724,101.933648 C204.26696,103.882477 204.26696,105.552902 204.127842,107.362528 Z" id="Shape" stroke="#FFFFFF" stroke-width="1.5" fill="#5C666F" fill-rule="nonzero"></path>
                <circle id="Oval" fill="#EC8D53" cx="177.5" cy="105.457503" r="28"></circle>
                <path d="M184.070896,104.23528 L198.007691,104.23528 C198.844266,104.23528 199.552138,103.563739 199.496979,102.770098 C199.028129,96.1593367 195.415226,90.3683793 190.074014,86.7054243 C189.393722,86.2431942 188.428443,86.452506 187.987172,87.1240477 L180.59589,98.3222244 C182.673539,99.5693734 184.070896,101.740982 184.070896,104.23528 Z M180.928121,110.093866 C179.8184,110.791927 178.510191,111.218016 177.10274,111.218016 C175.695288,111.218016 174.396102,110.791927 173.277358,110.093866 L166.023568,121.743325 C165.590506,122.441386 165.807037,123.384221 166.528808,123.774048 C169.67753,125.478404 173.277358,126.457503 177.10274,126.457503 C180.928121,126.457503 184.52795,125.478404 187.676672,123.774048 C188.398442,123.384221 188.614973,122.43232 188.181911,121.743325 L180.928121,110.093866 Z M177.205479,108.275684 C179.531036,108.275684 181.417808,106.420676 181.417808,104.13427 C181.417808,101.847865 179.531036,99.9928561 177.205479,99.9928561 C174.879923,99.9928561 172.993151,101.847865 172.993151,104.13427 C172.993151,106.420676 174.879923,108.275684 177.205479,108.275684 Z M155.992309,104.23528 L169.929104,104.23528 C169.929104,101.740299 171.326461,99.5680949 173.40411,98.3293279 L166.012828,87.1280826 C165.571557,86.4563569 164.606278,86.2382641 163.925986,86.7093445 C158.584774,90.3733032 154.971871,96.1658475 154.503021,102.778421 C154.447862,103.563555 155.155734,104.23528 155.992309,104.23528 Z" id="Reactor-Shape" fill="#FFFFFF" fill-rule="nonzero"></path>
                <path d="M126.082612,123.370767 C122.882896,123.370767 119.822299,125.180394 118.292,127.964435 C115.926993,132.279699 117.457292,137.70858 121.769952,140.075015 C123.161132,140.771026 124.552313,141.188632 126.082612,141.188632 C129.282327,141.188632 132.342924,139.379005 133.873223,136.594964 C136.23823,132.279699 134.707931,126.850819 130.395271,124.484383 C129.004091,123.788373 127.61291,123.370767 126.082612,123.370767 Z" id="Path" fill="#EC8D53" fill-rule="nonzero"></path>
                <path d="M226.804085,127.964435 C223.60437,127.964435 220.543773,129.774062 219.013474,132.558104 C216.648467,136.873368 218.178766,142.302249 222.491425,144.668684 C223.882606,145.364694 225.273787,145.7823 226.804085,145.7823 C230.003801,145.7823 233.064398,143.972674 234.594696,141.188632 C236.959703,136.873368 235.429405,131.444487 231.116745,129.078052 C229.864683,128.242839 228.334384,127.964435 226.804085,127.964435 Z" id="Path" fill="#EC8D53" fill-rule="nonzero"></path>
                <path d="M177.400891,38.4575026 C174.201175,38.4575026 171.140578,40.2671295 169.610279,43.051171 C167.245272,47.3664352 168.775571,52.7953161 173.088231,55.1617513 C174.479411,55.8577617 175.870592,56.2753679 177.400891,56.2753679 C180.600606,56.2753679 183.661203,54.4657409 185.191502,51.6816995 C187.556509,47.3664352 186.02621,41.9375544 181.71355,39.5711192 C180.32237,38.8751088 178.931189,38.4575026 177.400891,38.4575026 Z" id="Path" fill="#EC8D53" fill-rule="nonzero"></path>
            </g>
            <g id="app-server" transform="translate(450.500000, 163.000000)" fill-rule="nonzero">
                <rect id="Rectangle" stroke="#979797" stroke-width="0.8" fill="#FFFFFF" x="34.9941015" y="2" width="10" height="18"></rect>
                <polygon id="Shape" fill="#5C666F" points="48.9941015 21 31.9941015 21 31.9941015 0 48.9941015 0"></polygon>
                <polygon id="Shape-Copy" fill="#5C666F" points="141.994101 21 124.994101 21 124.994101 0 141.994101 0"></polygon>
                <path d="M174.994101,36 L0.994101492,36 L0.994101492,15 L174.894616,15 L174.894616,36 L174.994101,36 Z M11.0249761,28 L167.024976,28 L167.024976,23 L11.0249761,23 L11.0249761,28 Z" id="Shape" fill="#5C666F"></path>
            </g>
            <g id="Group-2" transform="translate(337.000000, 71.000000)" fill="#D2D2D2">
                <rect id="Rectangle" x="23.2" y="1.8189894e-13" width="11.2" height="57.6"></rect>
                <rect id="Rectangle" transform="translate(28.800000, 28.800000) rotate(-270.000000) translate(-28.800000, -28.800000) " x="23.2" y="0" width="11.2" height="57.6"></rect>
            </g>
            <g id="FA-server" transform="translate(427.500000, 34.000000)" fill-rule="nonzero">
                <rect id="Rectangle-Copy-10" stroke="#5C666F" stroke-width="7" fill="#FFFFFF" x="0" y="0" width="223" height="129" rx="8.8"></rect>
                <rect id="Rectangle" fill="#EC8D53" x="127" y="12" width="84" height="40"></rect>
                <rect id="Rectangle" fill="#EC8D53" x="127" y="79" width="84" height="41"></rect>
                <path d="M196,44 C189.318182,44 184,38.5454545 184,32 C184,25.3181818 189.454547,20 196,20 C202.681819,20 208,25.4545455 208,32 C208,38.5454545 202.681819,44 196,44 Z M196,27.7727273 C193.681819,27.7727273 191.909091,29.6818182 191.909091,31.8636364 C191.909091,34.1818182 193.818182,35.9545455 196,35.9545455 C198.318182,35.9545455 200.09091,34.0454546 200.09091,31.8636364 C200.09091,29.6818182 198.318182,27.7727273 196,27.7727273 Z" id="Shape" fill="#5C666F"></path>
                <path d="M196,112 C189.318182,112 184,106.545455 184,100 C184,93.3181818 189.454547,88 196,88 C202.681819,88 208,93.4545455 208,100 C208,106.545455 202.681819,112 196,112 Z M196,95.7727273 C193.681819,95.7727273 191.909091,97.6818182 191.909091,99.8636364 C191.909091,102.181818 193.818182,103.954546 196,103.954546 C198.318182,103.954546 200.09091,102.045455 200.09091,99.8636364 C200.09091,97.5454546 198.318182,95.7727273 196,95.7727273 Z" id="Shape" fill="#5C666F"></path>
            </g>
            <g id="logo" transform="translate(449.000000, 60.000000)" fill-rule="nonzero">
                <path d="M50.3825118,5.38119403 C49.2856502,4.97014925 48.0973834,5.51820896 47.6860603,6.56865672 C47.2747371,7.66477612 47.823168,8.85223881 48.8743271,9.26328358 C58.3804614,12.9170149 65.2358467,20.4071642 68.2979188,29.358806 L55.3640918,32.8298507 C54.5414456,30.6832836 53.3531788,28.719403 51.7992915,26.938209 C48.3258962,22.9647761 43.4814239,20.5441791 38.2256285,20.178806 C32.9698331,19.8134328 28.0339557,21.5489552 24.2863451,24.6546269 L15.0544262,15.6116418 C19.3961702,11.7295522 24.7433707,8.94358209 30.5018944,7.7561194 C29.9534636,6.47731343 29.8163559,5.0158209 30.1362739,3.6 C16.6083135,6.24895522 5.1826713,16.3880597 1.34365552,30.0895522 C0.0639835963,34.6567164 -0.301636954,39.3608955 0.246793871,44.0650746 C0.383901578,45.1155224 1.25225038,45.9376119 2.30340947,45.9376119 C2.3948146,45.9376119 2.44051717,45.9376119 2.53192231,45.9376119 C3.67448653,45.800597 4.49713277,44.7958209 4.36002506,43.6540299 C3.90299937,39.4979104 4.22291736,35.2961194 5.36548157,31.1856716 C6.69085607,26.4358209 9.06738965,22.1883582 12.1294618,18.5802985 L21.3613806,27.6232836 C18.9391445,30.6376119 17.3852572,34.4283582 17.1110418,38.538806 C16.5169084,47.1707463 21.5898935,54.9349254 29.1765199,58.1319403 L25.3832067,70.6916418 C19.8531959,68.5907463 15.0087236,65.0283582 11.3525181,60.461194 C10.4384667,61.5573134 9.20449735,62.3337313 7.78771772,62.6991045 C12.63219,68.9561194 19.3504676,73.5232836 27.1199043,75.6698507 C30.4561918,76.5832836 33.7924794,77.04 37.1287669,77.04 C45.0810138,77.04 52.8961531,74.4367164 59.477323,69.4585075 C60.3913744,68.7734328 60.5741847,67.4489552 59.8886461,66.5355224 C59.2031076,65.6220896 57.8777331,65.439403 56.9636817,66.1244776 C48.9657322,72.1531343 38.9568696,74.2540299 29.3136276,71.8791045 L33.1069408,59.319403 C33.8838845,59.4564179 34.6608282,59.5934328 35.4377718,59.6391045 C35.8947975,59.6847761 36.3518232,59.6847761 36.8088489,59.6847761 C47.183332,59.6847761 55.8668201,51.6008955 56.5523586,41.2334328 C56.6437637,39.7262687 56.5980612,38.2647761 56.3695483,36.8032836 L69.3033753,33.3322388 C70.3088318,38.2647761 70.1717241,43.5170149 68.7092419,48.7235821 C68.4350265,49.7283582 68.0694059,50.7331343 67.7037854,51.7379104 C68.4350265,51.8749254 69.120565,52.1032836 69.760401,52.4686567 C70.400237,52.8340299 70.9029652,53.2450746 71.4056935,53.701791 C71.9084217,52.4229851 72.3654474,51.1441791 72.731068,49.8197015 C77.9868634,31.3683582 68.3436214,12.2319403 50.3825118,5.38119403 Z M52.8961531,41.0050746 C52.3020197,49.7740299 44.6239882,56.5334328 35.7576898,55.9397015 C35.2549616,55.8940299 34.7522333,55.8483582 34.249505,55.7570149 C32.8327254,55.5286567 31.5073509,55.1176119 30.2733816,54.5238806 C24.3320476,51.8292537 20.3559241,45.6635821 20.8586524,38.8128358 C21.0871652,35.6158209 22.2297295,32.6928358 24.0578322,30.2722388 C24.8804784,29.1761194 25.885935,28.1713433 26.9827966,27.3035821 C29.7249507,25.1570149 33.1526434,23.878209 36.8545515,23.878209 C37.220172,23.878209 37.5857926,23.878209 37.9971157,23.9238806 C42.2931572,24.1979104 46.1778755,26.161791 49.0114348,29.4044776 C50.153999,30.7289552 51.0680504,32.2361194 51.7535889,33.8346269 C52.3020197,35.1134328 52.6676403,36.4835821 52.8504505,37.8537313 C52.9418557,38.8585075 52.9875582,39.9546269 52.8961531,41.0050746 Z" id="Shape" fill="#5B6670"></path>
                <path d="M49.313072,29.3359157 C46.477995,26.0909156 42.5454689,24.1256338 38.2013994,23.8057042 C37.835583,23.76 37.4240396,23.76 37.0582232,23.76 C28.5987193,23.76 21.5110269,30.3871129 20.9165753,38.842395 C20.3221237,47.7547193 27.0439997,55.4787337 35.960774,56.1185929 C44.9232754,56.7584521 52.6511465,49.902818 53.2455981,41.0819021 C53.5199604,36.7857048 52.148149,32.6266201 49.313072,29.3359157 Z M37.1496773,49.902818 C34.7261438,49.902818 32.7598807,50.1313391 32.7598807,48.7602123 L34.6804167,37.7911978 C33.5829676,37.0142259 32.8970618,35.7345075 32.8970618,34.3176765 C32.8970618,31.9867609 34.8175978,30.0671834 37.1496773,30.0671834 C39.4817567,30.0671834 41.4022927,31.9867609 41.4022927,34.3176765 C41.4022927,35.7345075 40.67066,37.0142259 39.6189379,37.7911978 L41.5852009,48.6688038 C41.5852009,48.7145081 41.5852009,48.7602123 41.5852009,48.7602123 C41.5394739,50.1313391 39.5732108,49.902818 37.1496773,49.902818 Z" id="Shape" fill="#EC8D53"></path>
                <path d="M36,0 C34.1563941,0 32.4842864,0.986553191 31.5839208,2.57361702 C30.2548095,5.01855319 31.1123007,8.064 33.5561503,9.43659574 C34.2850178,9.86553191 35.1425089,10.08 36,10.08 C37.8436059,10.08 39.5157136,9.09344681 40.4160792,7.50638298 C41.7451905,5.06144681 40.8876993,2.016 38.4438497,0.643404255 C37.7149822,0.214468085 36.8574911,0 36,0 Z" id="Path" fill="#EC8D53"></path>
                <path d="M5.76,50.4 C3.91639411,50.4 2.24428644,51.3865532 1.34392077,52.973617 C0.0148095411,55.4185532 0.872300654,58.464 3.31615033,59.8365957 C4.04501777,60.2655319 4.90250889,60.48 5.76,60.48 C7.60360589,60.48 9.27571356,59.4934468 10.1760792,57.906383 C11.5051905,55.4614468 10.6476993,52.416 8.20384967,51.0434043 C7.47498223,50.6144681 6.61749111,50.4 5.76,50.4 Z" id="Path" fill="#EC8D53"></path>
                <path d="M64.8,54 C62.9563941,54 61.2842864,54.9865532 60.3839208,56.573617 C59.0548095,59.0185532 59.9123007,62.064 62.3561503,63.4365957 C63.0850178,63.8655319 63.9425089,64.08 64.8,64.08 C66.6436059,64.08 68.3157136,63.0934468 69.2160792,61.506383 C70.5451905,59.0614468 69.6876993,56.016 67.2438497,54.6434043 C66.5149822,54.2144681 65.6574911,54 64.8,54 Z" id="Path" fill="#EC8D53"></path>
            </g>
            <line x1="646.5" y1="99" x2="543" y2="98.5" id="Line-2" stroke="#5C666F" stroke-width="7" stroke-linecap="square"></line>
            <line x1="543" y1="161.5" x2="543" y2="34.5" id="Line-2" stroke="#5C666F" stroke-width="7" stroke-linecap="square"></line>
        </g>
    </g>
</svg>