<?xml version="1.0" encoding="UTF-8"?>
<svg width="241px" height="241px" viewBox="0 0 241 241" version="1.1" xmlns="http://www.w3.org/2000/svg" xmlns:xlink="http://www.w3.org/1999/xlink">
    <!-- Generator: Sketch 63.1 (92452) - https://sketch.com -->
    <title>reactor-logo-black</title>
    <desc>Created with Sketch.</desc>
    <g id="Page-1" stroke="none" stroke-width="1" fill="none" fill-rule="evenodd">
        <g id="reactor-logo-black">
            <circle id="Oval" fill="#000000" cx="120.5" cy="120.5" r="120.5"></circle>
            <path d="M153.687436,118.820083 L218.071604,118.820083 C220.010217,118.820083 222.507311,118.538868 223.776852,117.27967 C225.038222,116.028576 225.078704,113.805493 224.951706,111.951169 C222.785748,80.9592823 206.095129,53.8107165 181.420194,36.6384309 C179.894961,35.5867615 177.734986,34.1085972 176.016774,34.4277867 C174.194587,34.7662915 172.828765,36.9806224 171.779557,38.6009778 L137.633864,91.0991081 C147.232031,96.9458625 153.687436,107.126575 153.687436,118.820083 Z M139.168679,146.285698 C134.04207,149.558275 127.998507,151.555822 121.496466,151.555822 C114.994425,151.555822 108.992541,149.558275 103.824252,146.285698 L70.3137344,200.899481 C69.3601079,202.459399 67.5672073,204.650445 67.9050341,206.32676 C68.2759393,208.167212 70.902798,209.463285 72.6478004,210.419704 C87.1940326,218.409892 103.824252,223 121.496466,223 C139.168679,223 155.798899,218.409892 170.345131,210.419704 C172.048839,209.485918 174.367757,208.120509 174.763789,206.32676 C175.142844,204.609906 173.6576,202.479143 172.679197,200.899481 L139.168679,146.285698 Z M121.971095,137.761886 C132.714528,137.761886 141.430898,129.065428 141.430898,118.346538 C141.430898,107.627648 132.714528,98.9311902 121.971095,98.9311902 C111.227662,98.9311902 102.511292,107.627648 102.511292,118.346538 C102.511292,129.065428 111.227662,137.761886 121.971095,137.761886 Z M23.9720693,118.820083 L88.3562372,118.820083 C88.3562372,107.12337 94.8116419,96.9398685 104.409809,91.1324096 L70.2641161,38.6198939 C69.2791795,37.0983809 68.0557873,34.467303 66.3621667,34.0632338 C64.5504567,33.6309906 62.2477977,35.515374 60.6234788,36.6568092 C35.9485438,53.8338003 19.257925,80.9898053 17.0919669,111.990185 C16.9645361,113.830887 16.7743801,116.874825 18.0435525,118.122257 C19.3122964,119.369268 22.040021,118.820083 23.9720693,118.820083 Z" id="fan-blades" fill="#EC8D53" fill-rule="nonzero"></path>
        </g>
    </g>
</svg>