<?xml version="1.0" encoding="UTF-8"?>
<svg width="364px" height="203px" viewBox="0 0 364 203" version="1.1" xmlns="http://www.w3.org/2000/svg" xmlns:xlink="http://www.w3.org/1999/xlink">
    <!-- Generator: Sketch 63.1 (92452) - https://sketch.com -->
    <title>registration-forms</title>
    <desc>Created with Sketch.</desc>
    <g id="Page-1" stroke="none" stroke-width="1" fill="none" fill-rule="evenodd">
        <g id="registration-forms">
            <g id="Group-61" transform="translate(162.000000, 0.000000)">
                <path d="M91.5526,54.1984 L91.5526,119.0074 L73.3616,119.0074 L73.3616,107.2004 C73.3616,102.7574 69.7656,99.1614 65.3226,99.1614 L30.7966,99.1614 L30.7966,54.1984 L91.5526,54.1984 Z" id="Fill-25" fill="#666288"></path>
                <path d="M74.711,163.592 L186.644,163.592 C193.58,163.592 199.222,157.949 199.222,151.013 L199.222,15.193 C199.222,8.304 193.618,2.699 186.73,2.699 L15.279,2.699 C8.342,2.699 2.7,8.342 2.7,15.278 L2.7,151.013 C2.7,157.949 8.342,163.592 15.279,163.592 L15.745,163.592 L15.745,30.9899 L187.127,30.9899 L187.127,135.438 L74.711,135.438 L74.711,163.592 Z M72.011,166.292 L72.011,132.738 L184.428,132.738 L184.428,33.6899 L18.445,33.6899 L18.445,166.292 L15.279,166.292 C6.854,166.292 1.42108547e-14,159.438 1.42108547e-14,151.013 L1.42108547e-14,15.278 C1.42108547e-14,6.854 6.854,-5.68434189e-14 15.279,-5.68434189e-14 L186.73,-5.68434189e-14 C195.107,-5.68434189e-14 201.922,6.815 201.922,15.193 L201.922,151.013 C201.922,159.438 195.068,166.292 186.644,166.292 L72.011,166.292 Z" id="Fill-26" fill="#4A555F"></path>
                <path d="M193.4747,8.447 C192.0287,7.001 190.0207,6.107 187.8137,6.107 L15.2787,6.107 C10.2167,6.107 6.1077,10.217 6.1077,15.278 L6.1077,151.013 C6.1077,155.048 8.7237,158.482 12.3487,159.7 L12.3487,138.845 L12.3387,138.845 L12.3387,14.108 L190.5347,14.108 L190.5347,138.845 L78.0797,138.845 L78.0797,160.185 L186.6437,160.185 C191.7147,160.185 195.8147,156.075 195.8147,151.013 L195.8147,14.108 C195.8147,11.901 194.9207,9.903 193.4747,8.447" id="Fill-27" fill="#E1E1E1"></path>
                <path d="M74.711,187.4723 L129.456,187.4723 L120.621,166.2923 L83.204,166.2923 L74.711,186.6753 L74.711,187.4723 Z M133.507,190.1723 L72.011,190.1723 L72.011,186.1353 L81.404,163.5923 L122.421,163.5923 L133.507,190.1723 Z" id="Fill-28" fill="#4A555F"></path>
                <polygon id="Fill-29" fill="#E1E1E1" points="79.4879 184.0676 85.4789 169.6956 118.3539 169.6956 124.3459 184.0676"></polygon>
                <path d="M71.9075,199.9162 L156.5995,199.9162 L156.5995,190.1722 L74.7105,190.1722 L74.7105,193.2272 C74.7105,193.3912 74.7095,193.5412 74.6975,193.6932 C74.6455,194.8562 74.3705,196.0102 73.8845,197.0712 C73.4005,198.1532 72.7245,199.1122 71.9075,199.9162 L71.9075,199.9162 Z M159.2995,202.6162 L65.3215,202.6162 L65.3215,199.9162 C67.9535,199.9162 70.3495,198.3622 71.4245,195.9582 C71.7705,195.2032 71.9635,194.3852 72.0035,193.5182 C72.0125,193.3882 72.0115,193.3112 72.0115,193.2272 L72.0115,187.4722 L159.2995,187.4722 L159.2995,202.6162 Z" id="Fill-30" fill="#4A555F"></path>
                <path d="M153.1924,193.5793 L153.1924,196.5093 L72.6574,196.5093 C73.0664,195.6153 73.3044,194.6253 73.3514,193.5793 L153.1924,193.5793 Z" id="Fill-31" fill="#E1E1E1"></path>
                <polygon id="Fill-32" fill="#4A555F" points="65.3228 202.6163 200.5728 202.6163 200.5728 199.9163 65.3228 199.9163"></polygon>
                <path d="M109.5723,149.7048 C109.5723,153.8508 106.2113,157.2108 102.0663,157.2108 C97.9203,157.2108 94.5593,153.8508 94.5593,149.7048 C94.5593,145.5588 97.9203,142.1988 102.0663,142.1988 C106.2113,142.1988 109.5723,145.5588 109.5723,149.7048" id="Fill-33" fill="#FFFFFF"></path>
                <path d="M102.0662,143.5485 C98.6712,143.5485 95.9092,146.3105 95.9092,149.7045 C95.9092,153.0995 98.6712,155.8615 102.0662,155.8615 C105.4602,155.8615 108.2222,153.0995 108.2222,149.7045 C108.2222,146.3105 105.4602,143.5485 102.0662,143.5485 M102.0662,158.5615 C97.1832,158.5615 93.2092,154.5885 93.2092,149.7045 C93.2092,144.8205 97.1832,140.8485 102.0662,140.8485 C106.9492,140.8485 110.9222,144.8205 110.9222,149.7045 C110.9222,154.5885 106.9492,158.5615 102.0662,158.5615" id="Fill-34" fill="#4A555F"></path>
                <path d="M18.4471,30.9899 L184.4281,30.9899 L184.4281,26.9139 C184.4281,23.2199 181.4231,20.2159 177.7301,20.2159 L25.1451,20.2159 C21.4521,20.2159 18.4471,23.2199 18.4471,26.9139 L18.4471,30.9899 Z M187.1281,33.6899 L15.7471,33.6899 L15.7471,26.9139 C15.7471,21.7319 19.9631,17.5159 25.1451,17.5159 L177.7301,17.5159 C182.9131,17.5159 187.1281,21.7319 187.1281,26.9139 L187.1281,33.6899 Z" id="Fill-35" fill="#4A555F"></path>
                <path d="M29.5696,23.5871 C28.7316,23.5871 28.0486,24.2691 28.0486,25.1071 C28.0486,25.9451 28.7316,26.6271 29.5696,26.6271 C30.4076,26.6271 31.0896,25.9451 31.0896,25.1071 C31.0896,24.2691 30.4076,23.5871 29.5696,23.5871 M29.5696,29.3271 C27.2426,29.3271 25.3496,27.4341 25.3496,25.1071 C25.3496,22.7801 27.2426,20.8871 29.5696,20.8871 C31.8956,20.8871 33.7896,22.7801 33.7896,25.1071 C33.7896,27.4341 31.8956,29.3271 29.5696,29.3271" id="Fill-36" fill="#4A555F"></path>
                <path d="M39.171,23.5871 C38.333,23.5871 37.651,24.2691 37.651,25.1071 C37.651,25.9451 38.333,26.6271 39.171,26.6271 C40.009,26.6271 40.691,25.9451 40.691,25.1071 C40.691,24.2691 40.009,23.5871 39.171,23.5871 M39.171,29.3271 C36.844,29.3271 34.951,27.4341 34.951,25.1071 C34.951,22.7801 36.844,20.8871 39.171,20.8871 C41.498,20.8871 43.391,22.7801 43.391,25.1071 C43.391,27.4341 41.498,29.3271 39.171,29.3271" id="Fill-37" fill="#4A555F"></path>
                <path d="M48.7728,23.5871 C47.9348,23.5871 47.2528,24.2691 47.2528,25.1071 C47.2528,25.9451 47.9348,26.6271 48.7728,26.6271 C49.6118,26.6271 50.2938,25.9451 50.2938,25.1071 C50.2938,24.2691 49.6118,23.5871 48.7728,23.5871 M48.7728,29.3271 C46.4468,29.3271 44.5538,27.4341 44.5538,25.1071 C44.5538,22.7801 46.4468,20.8871 48.7728,20.8871 C51.0998,20.8871 52.9938,22.7801 52.9938,25.1071 C52.9938,27.4341 51.0998,29.3271 48.7728,29.3271" id="Fill-38" fill="#4A555F"></path>
                <path d="M25.1365,100.5065 C21.4475,100.5065 18.4475,103.5075 18.4475,107.1965 L18.4475,193.2235 C18.4475,196.9115 21.4475,199.9125 25.1365,199.9125 L65.3255,199.9125 C69.0135,199.9125 72.0145,196.9115 72.0145,193.2235 L72.0145,107.1965 C72.0145,103.5075 69.0135,100.5065 65.3255,100.5065 L25.1365,100.5065 Z M65.3255,202.6125 L25.1365,202.6125 C19.9585,202.6125 15.7475,198.4015 15.7475,193.2235 L15.7475,107.1965 C15.7475,102.0185 19.9585,97.8065 25.1365,97.8065 L65.3255,97.8065 C70.5025,97.8065 74.7145,102.0185 74.7145,107.1965 L74.7145,193.2235 C74.7145,198.4015 70.5025,202.6125 65.3255,202.6125 L65.3255,202.6125 Z" id="Fill-39" fill="#4A555F"></path>
                <path d="M23.6228,181.8943 L67.3108,181.8943 L67.3108,111.7573 L23.6228,111.7573 L23.6228,181.8943 Z M44.2968,196.1563 C41.5098,196.1563 39.2448,193.8913 39.2448,191.1043 C39.2448,188.3163 41.5098,186.0523 44.2968,186.0523 C47.0848,186.0523 49.3388,188.3163 49.3388,191.1043 C49.3388,193.8913 47.0848,196.1563 44.2968,196.1563 L44.2968,196.1563 Z M65.3228,103.9183 L25.1358,103.9183 C23.3278,103.9183 21.8538,105.3843 21.8538,107.2013 L21.8538,193.2263 C21.8538,195.0343 23.3278,196.5083 25.1358,196.5083 L65.3228,196.5083 C67.1308,196.5083 68.6048,195.0343 68.6048,193.2263 L68.6048,107.2013 C68.6048,105.3843 67.1308,103.9183 65.3228,103.9183 L65.3228,103.9183 Z" id="Fill-40" fill="#E1E1E1"></path>
                <polygon id="Fill-41" fill="#4A555F" points="1.3498 202.6133 25.1368 202.6133 25.1368 199.9133 1.3498 199.9133"></polygon>
                <path d="M44.2947,187.4069 C42.2557,187.4069 40.5967,189.0659 40.5967,191.1049 C40.5967,193.1439 42.2557,194.8029 44.2947,194.8029 C46.3337,194.8029 47.9927,193.1439 47.9927,191.1049 C47.9927,189.0659 46.3337,187.4069 44.2947,187.4069 M44.2947,197.5029 C40.7667,197.5029 37.8977,194.6329 37.8977,191.1049 C37.8977,187.5769 40.7667,184.7069 44.2947,184.7069 C47.8227,184.7069 50.6927,187.5769 50.6927,191.1049 C50.6927,194.6329 47.8227,197.5029 44.2947,197.5029" id="Fill-42" fill="#4A555F"></path>
                <path d="M109.0928,117.6573 L167.8048,117.6573 L167.8048,55.5483 L109.0928,55.5483 L109.0928,117.6573 Z M106.3928,120.3573 L170.5048,120.3573 L170.5048,52.8483 L106.3928,52.8483 L106.3928,120.3573 Z" id="Fill-43" fill="#4A555F"></path>
                <polygon id="Fill-44" fill="#FFD452" points="112.4998 114.2503 164.3978 114.2503 164.3978 73.7753 112.4998 73.7753"></polygon>
                <polygon id="Fill-45" fill="#FFFFFF" points="36.9338 62.2673 85.3848 62.2673 85.3848 59.5673 36.9338 59.5673"></polygon>
                <path d="M36.3138,80.7063 L39.0138,80.7063 L39.0138,78.0063 L36.3138,78.0063 L36.3138,80.7063 Z M41.7148,80.7063 L44.4148,80.7063 L44.4148,78.0063 L41.7148,78.0063 L41.7148,80.7063 Z M47.1138,80.7063 L49.8138,80.7063 L49.8138,78.0063 L47.1138,78.0063 L47.1138,80.7063 Z M52.5148,80.7063 L55.2148,80.7063 L55.2148,78.0063 L52.5148,78.0063 L52.5148,80.7063 Z M57.9148,80.7063 L60.6148,80.7063 L60.6148,78.0063 L57.9148,78.0063 L57.9148,80.7063 Z M63.3138,80.7063 L66.0138,80.7063 L66.0138,78.0063 L63.3138,78.0063 L63.3138,80.7063 Z M68.7148,80.7063 L71.4148,80.7063 L71.4148,78.0063 L68.7148,78.0063 L68.7148,80.7063 Z M74.1138,80.7063 L76.8138,80.7063 L76.8138,78.0063 L74.1138,78.0063 L74.1138,80.7063 Z M79.5148,80.7063 L82.2148,80.7063 L82.2148,78.0063 L79.5148,78.0063 L79.5148,80.7063 Z M84.9148,80.7063 L87.3788,80.7063 L87.3788,78.0063 L84.9148,78.0063 L84.9148,80.7063 Z" id="Fill-46" fill="#FFFFFF"></path>
                <path d="M36.3138,88.2863 L39.0138,88.2863 L39.0138,85.5863 L36.3138,85.5863 L36.3138,88.2863 Z M41.7148,88.2863 L44.4148,88.2863 L44.4148,85.5863 L41.7148,85.5863 L41.7148,88.2863 Z M47.1138,88.2863 L49.8138,88.2863 L49.8138,85.5863 L47.1138,85.5863 L47.1138,88.2863 Z M52.5148,88.2863 L55.2148,88.2863 L55.2148,85.5863 L52.5148,85.5863 L52.5148,88.2863 Z M57.9148,88.2863 L60.6148,88.2863 L60.6148,85.5863 L57.9148,85.5863 L57.9148,88.2863 Z M63.3138,88.2863 L66.0138,88.2863 L66.0138,85.5863 L63.3138,85.5863 L63.3138,88.2863 Z M68.7148,88.2863 L71.4148,88.2863 L71.4148,85.5863 L68.7148,85.5863 L68.7148,88.2863 Z M74.1138,88.2863 L76.8138,88.2863 L76.8138,85.5863 L74.1138,85.5863 L74.1138,88.2863 Z M79.5148,88.2863 L82.2148,88.2863 L82.2148,85.5863 L79.5148,85.5863 L79.5148,88.2863 Z M84.9148,88.2863 L87.3788,88.2863 L87.3788,85.5863 L84.9148,85.5863 L84.9148,88.2863 Z" id="Fill-47" fill="#FFFFFF"></path>
                <polygon id="Fill-48" fill="#FFFFFF" points="36.9328 70.9713 56.0078 70.9713 56.0078 68.2713 36.9328 68.2713"></polygon>
                <path d="M109.0928,68.2703 L167.8048,68.2703 L167.8048,55.5473 L109.0928,55.5473 L109.0928,68.2703 Z M106.3928,70.9713 L170.5048,70.9713 L170.5048,52.8483 L106.3928,52.8483 L106.3928,70.9713 Z" id="Fill-49" fill="#4A555F"></path>
                <path d="M115.8068,63.2593 L118.5068,63.2593 L118.5068,60.5593 L115.8068,60.5593 L115.8068,63.2593 Z M121.2068,63.2593 L123.9068,63.2593 L123.9068,60.5593 L121.2068,60.5593 L121.2068,63.2593 Z M126.6068,63.2593 L129.3068,63.2593 L129.3068,60.5593 L126.6068,60.5593 L126.6068,63.2593 Z M132.0068,63.2593 L134.7068,63.2593 L134.7068,60.5593 L132.0068,60.5593 L132.0068,63.2593 Z M137.4068,63.2593 L140.1068,63.2593 L140.1068,60.5593 L137.4068,60.5593 L137.4068,63.2593 Z M142.8068,63.2593 L145.5068,63.2593 L145.5068,60.5593 L142.8068,60.5593 L142.8068,63.2593 Z M148.2068,63.2593 L150.9068,63.2593 L150.9068,60.5593 L148.2068,60.5593 L148.2068,63.2593 Z M153.6068,63.2593 L156.3068,63.2593 L156.3068,60.5593 L153.6068,60.5593 L153.6068,63.2593 Z M159.0068,63.2593 L161.7068,63.2593 L161.7068,60.5593 L159.0068,60.5593 L159.0068,63.2593 Z" id="Fill-50" fill="#4A555F"></path>
                <polygon id="Fill-51" fill="#4A555F" points="137.0988 119.0073 139.7988 119.0073 139.7988 69.6213 137.0988 69.6213"></polygon>
                <path d="M32.1468,149.8133 L57.8408,149.8133 L57.8408,125.2943 L32.1468,125.2943 L32.1468,149.8133 Z M29.4468,152.5133 L60.5408,152.5133 L60.5408,122.5953 L29.4468,122.5953 L29.4468,152.5133 Z" id="Fill-52" fill="#4A555F"></path>
                <polygon id="Fill-53" fill="#FFD452" points="35.5528 146.4063 54.4318 146.4063 54.4318 135.3123 35.5528 135.3123"></polygon>
                <polygon id="Fill-54" fill="#4A555F" points="30.7968 132.0993 59.1908 132.0993 59.1908 129.3993 30.7968 129.3993"></polygon>
                <polygon id="Fill-55" fill="#4A555F" points="43.6438 151.1633 46.3438 151.1633 46.3438 130.7493 43.6438 130.7493"></polygon>
                <polygon id="Fill-56" fill="#666288" points="29.6448 181.8983 60.6428 181.8983 60.6428 158.7883 29.6448 158.7883"></polygon>
                <path d="M24.9768,180.5483 L65.9608,180.5483 L65.9608,113.1033 L24.9768,113.1033 L24.9768,180.5483 Z M22.2768,183.2483 L68.6608,183.2483 L68.6608,110.4033 L22.2768,110.4033 L22.2768,183.2483 Z" id="Fill-57" fill="#4A555F"></path>
                <polygon id="Fill-58" fill="#FFFFFF" points="33.2988 165.4553 57.0648 165.4553 57.0648 162.7553 33.2988 162.7553"></polygon>
                <polygon id="Fill-59" fill="#FFFFFF" points="33.2988 171.2493 48.3248 171.2493 48.3248 168.5493 33.2988 168.5493"></polygon>
                <path d="M33.2988,177.0433 L35.9988,177.0433 L35.9988,174.3433 L33.2988,174.3433 L33.2988,177.0433 Z M38.6988,177.0433 L41.3988,177.0433 L41.3988,174.3433 L38.6988,174.3433 L38.6988,177.0433 Z M44.0988,177.0433 L46.7988,177.0433 L46.7988,174.3433 L44.0988,174.3433 L44.0988,177.0433 Z M49.4988,177.0433 L52.1988,177.0433 L52.1988,174.3433 L49.4988,174.3433 L49.4988,177.0433 Z M54.8988,177.0433 L57.5988,177.0433 L57.5988,174.3433 L54.8988,174.3433 L54.8988,177.0433 Z" id="Fill-60" fill="#FFFFFF"></path>
            </g>
            <g id="Group-46" transform="translate(0.000000, 4.000000)">
                <path d="M11.572,2.7 C6.68,2.7 2.7,6.679 2.7,11.572 L2.7,185.307 C2.7,190.199 6.68,194.179 11.572,194.179 L126.198,194.179 C131.09,194.179 135.07,190.199 135.07,185.307 L135.07,11.572 C135.07,6.679 131.09,2.7 126.198,2.7 L11.572,2.7 Z M126.198,196.879 L11.572,196.879 C5.191,196.879 0,191.688 0,185.307 L0,11.572 C0,5.191 5.191,0 11.572,0 L126.198,0 C132.579,0 137.769,5.191 137.769,11.572 L137.769,185.307 C137.769,191.688 132.579,196.879 126.198,196.879 L126.198,196.879 Z" id="Fill-27" fill="#4A555F"></path>
                <polygon id="Fill-31" fill="#E1E1E1" points="19.35 75.359 38.359 75.359 38.359 56.349 19.35 56.349"></polygon>
                <polygon id="Fill-32" fill="#E1E1E1" points="19.35 105.359 38.359 105.359 38.359 86.35 19.35 86.35"></polygon>
                <path d="M20.7,74.009 L37.01,74.009 L37.01,57.7 L20.7,57.7 L20.7,74.009 Z M18,76.709 L39.71,76.709 L39.71,55 L18,55 L18,76.709 Z" id="Fill-34" fill="#4A555F"></path>
                <path d="M20.7,104.009 L37.01,104.009 L37.01,87.699 L20.7,87.699 L20.7,104.009 Z M18,106.71 L39.71,106.71 L39.71,85 L18,85 L18,106.71 Z" id="Fill-35" fill="#4A555F"></path>
                <path d="M20.7,133.01 L37.01,133.01 L37.01,116.7 L20.7,116.7 L20.7,133.01 Z M18,135.71 L39.71,135.71 L39.71,114 L18,114 L18,135.71 Z" id="Fill-36-Copy" fill="#4A555F"></path>
                <path d="M20.7,164.01 L37.01,164.01 L37.01,147.7 L20.7,147.7 L20.7,164.01 Z M18,166.71 L39.71,166.71 L39.71,145 L18,145 L18,166.71 Z" id="Fill-36-Copy-2" fill="#4A555F"></path>
                <polygon id="Fill-37" fill="#4A555F" points="29.7448 71.7254 23.5448 63.9754 25.6538 62.2884 30.1038 67.8514 43.4648 56.3404 45.2258 58.3864"></polygon>
                <polygon id="Fill-38" fill="#4A555F" points="29.7448 101.3434 23.5448 93.5934 25.6538 91.9064 30.1038 97.4704 43.4648 85.9594 45.2258 88.0044"></polygon>
                <polygon id="Fill-40" fill="#FFD552" points="57 76 120 76 120 56 57 56"></polygon>
                <polygon id="Fill-42" fill="#666288" points="57 105.368 120 105.368 120 85.368 57 85.368"></polygon>
                <polygon id="Fill-44-Copy" fill="#E88C59" points="57 135 120 135 120 115 57 115"></polygon>
                <polygon id="Fill-44-Copy-2" fill="#2D3D50" points="57 166 120 166 120 146 57 146"></polygon>
                <text id="&lt;-/&gt;" font-family="AvenirNext-DemiBold, Avenir Next" font-size="17" font-weight="500" line-spacing="24" letter-spacing="-0.448000071" fill="#FFFFFF">
                    <tspan x="72.1425001" y="72">&lt; /&gt;</tspan>
                </text>
                <text id="&lt;-/&gt;-copy" font-family="AvenirNext-DemiBold, Avenir Next" font-size="17" font-weight="500" line-spacing="24" letter-spacing="-0.448000071" fill="#FFFFFF">
                    <tspan x="72.1425001" y="101">&lt; /&gt;</tspan>
                </text>
                <text id="&lt;-/&gt;-copy-2" font-family="AvenirNext-DemiBold, Avenir Next" font-size="17" font-weight="500" line-spacing="24" letter-spacing="-0.448000071" fill="#FFFFFF">
                    <tspan x="72.1425001" y="131">&lt; /&gt;</tspan>
                </text>
                <text id="&lt;-/&gt;-copy-3" font-family="AvenirNext-DemiBold, Avenir Next" font-size="17" font-weight="500" line-spacing="24" letter-spacing="-0.448000071" fill="#FFFFFF">
                    <tspan x="72.1425001" y="162">&lt; /&gt;</tspan>
                </text>
                <text id="Registration" font-family="AvenirNext-DemiBold, Avenir Next" font-size="21" font-weight="500" line-spacing="24" letter-spacing="-0.448000071" fill="#2D3D50">
                    <tspan x="12" y="36">Registration</tspan>
                </text>
            </g>
        </g>
    </g>
</svg>