<?xml version="1.0" encoding="UTF-8"?>
<svg width="915px" height="614px" viewBox="0 0 915 614" version="1.1" xmlns="http://www.w3.org/2000/svg" xmlns:xlink="http://www.w3.org/1999/xlink">
    <!-- Generator: Sketch 58 (84663) - https://sketch.com -->
    <title>account locking</title>
    <desc>Created with Sketch.</desc>
    <g id="Page-1" stroke="none" stroke-width="1" fill="none" fill-rule="evenodd">
        <g id="user-management" transform="translate(0.000000, -4445.000000)" fill-rule="nonzero">
            <g id="account-locking" transform="translate(0.000000, 4445.000000)">
                <path d="M311.666706,382.993217 L130.488153,382.993217 L130.488153,335.983876 L311.666706,335.983876 L311.666706,382.993217 Z M355.874988,335.983876 L537.085703,335.983876 L537.085703,382.993217 L355.874988,382.993217 L355.874988,335.983876 Z M762.476111,450.818831 L517.960109,450.818831 L517.960109,424.385922 L762.476111,424.385922 L762.476111,450.818831 Z M787.108533,22.0071595 L687.195886,22.0071595 C702.608571,29.6928931 717.059973,39.9990073 729.89256,52.8539069 C789.5171,112.546319 793.540907,206.844221 742.039027,271.258329 L797.08586,293.936076 L820.996427,317.888215 L820.996427,56.0219899 C821,37.2748139 805.791007,22.0071595 787.108533,22.0071595 Z M762.508273,373.514026 L762.508273,382.993217 L581.32972,382.993217 L581.32972,335.983876 L733.916368,335.983876 L717.538827,296.037392 C717.435194,296.105407 717.331562,296.20922 717.227929,296.277235 C716.334544,297.000346 715.437585,297.723456 714.544199,298.414349 C713.650814,299.105242 712.721693,299.792555 711.824734,300.483447 C711.310144,300.862901 710.791981,301.242355 710.277391,301.654027 C694.314381,313.270332 676.696822,321.643378 658.393142,326.780326 C657.978611,326.919937 657.567654,327.02017 657.153123,327.123983 C649.791628,329.121486 642.290764,330.603505 634.722003,331.534241 C633.964412,331.638054 633.206822,331.741867 632.452804,331.809882 C630.937623,331.98171 629.426015,332.153538 627.878671,332.257351 C626.467122,332.396962 625.023412,332.497195 623.611863,332.56879 C623.268803,332.56879 622.922169,332.604588 622.579109,332.636805 C621.271193,332.704821 619.999012,332.740618 618.691096,332.776416 C617.175915,332.812213 615.664307,332.844431 614.149125,332.844431 C597.153362,332.844431 580.121863,330.224051 563.744322,324.918854 C562.472142,324.503602 561.232123,324.091931 559.959942,323.644461 L559.924207,323.644461 C557.447742,322.749522 554.971278,321.818786 552.526976,320.816455 C532.811747,312.819283 514.336538,300.827104 498.337793,284.800541 C495.343165,281.800707 492.487905,278.700639 489.772014,275.528976 C451.134883,230.449124 440.918128,169.342709 459.150337,115.782417 C459.632765,114.368414 460.115193,112.957991 460.665518,111.543987 C461.112211,110.33761 461.558904,109.131233 462.077067,107.924855 C463.245615,104.925021 464.52137,101.960984 465.897183,99.0327442 C466.619039,97.4827104 467.376629,95.9648943 468.166382,94.4470783 C475.770878,79.4192675 485.816103,65.3579905 498.341366,52.8145296 C502.161482,48.9877717 506.081657,45.4044371 510.176936,42.0609461 C510.555731,41.785305 510.898791,41.4738663 511.241851,41.1982252 C512.342502,40.2674889 513.478888,39.3725502 514.615274,38.5456268 C515.955352,37.4788599 517.334739,36.4765285 518.710553,35.4777769 C520.500897,34.2033842 522.287668,32.9289915 524.113747,31.7548319 C525.800459,30.6164699 527.519332,29.5497029 529.241779,28.4793562 C529.381148,28.4113409 529.516942,28.307528 529.65631,28.2395127 C531.410919,27.2049635 533.165528,26.1704144 534.955872,25.1716628 C536.606848,24.2767241 538.225663,23.4140032 539.876639,22.5870798 C540.255434,22.379454 540.63423,22.2076258 541.013025,22 L105.887894,22 C87.205419,22 72,37.2676544 72,56.0184102 L72,399.635497 C72,399.635497 72,426.140002 72,451.609957 L102.174984,399.223825 C114.664512,377.580627 145.868676,377.580627 158.358203,399.223825 L215.263278,498 L789.24551,498 C806.791599,498 821,483.766895 821,466.190299 L821,432.103873 L762.508273,373.514026 Z" id="Shape" fill="#FFD552"></path>
                <path d="M542,388 L350,388 L350,331 L542,331 L542,388 Z M360.349043,377.720787 L531.654539,377.720787 L531.654539,341.272097 L360.349043,341.272097 L360.349043,377.720787 L360.349043,377.720787 Z" id="Shape" fill="#4A555F"></path>
                <polygon id="Path" fill="#71CDE1" points="518 423 518 427.856273 518 450 528.322008 450 752.677992 450 763 450 763 427.856273 763 423"></polygon>
                <path d="M316,388 L125,388 L125,331 L316,331 L316,388 L316,388 Z M135.292538,377.723352 L305.707462,377.723352 L305.707462,341.27309 L135.292538,341.27309 L135.292538,377.723352 Z" id="Shape" fill="#4A555F"></path>
                <path d="M767,388 L576,388 L576,331 L736.79258,331 L743.849889,348.203184 L767,371.312734 L767,388 L767,388 Z M586.293691,377.720787 L756.706309,377.720787 L756.706309,375.568165 L735.110232,354.009925 L729.881408,341.275655 L586.293691,341.275655 L586.293691,377.720787 Z" id="Shape" fill="#4A555F"></path>
                <path d="M768,454 L513,454 L513,418 L768,418 L768,454 Z M523.326,443.879926 L757.670424,443.879926 L757.670424,428.113068 L523.326,428.113068 L523.326,443.879926 Z" id="Shape" fill="#4A555F"></path>
                <path d="M613.998396,274 C585.659658,274 559.026044,262.97948 539.005161,242.968536 C531.385834,235.352992 525.005946,226.709868 520.048189,217.279053 L519.453545,216.097516 C499.776552,177.493472 505.834043,130.042222 534.692199,97.6108156 C536.060597,96.0640759 537.514968,94.5388188 539.005161,93.0457854 C559.033209,73.0276807 585.659658,62 613.976903,62 C632.482518,62 650.654989,66.8192397 666.627993,75.9493 L666.649486,75.9493 L667.903254,76.6689635 C675.544075,81.1838679 682.643983,86.6941278 688.998796,93.042205 C730.333735,134.396007 730.333735,201.646957 688.998796,242.961375 C688.017275,243.942409 687.07874,244.848255 686.061397,245.789904 C666.430973,263.981997 640.839777,274 613.998396,274 Z M529.798922,213.576903 C534.18711,221.657901 539.739511,229.080103 546.323584,235.657327 C564.388589,253.713364 588.425112,263.659759 614.001978,263.659759 C638.224776,263.659759 661.319181,254.62279 679.033132,238.210164 C679.950173,237.361605 680.802736,236.54527 681.687538,235.657327 C718.988926,198.370877 718.988926,137.679249 681.683955,100.360575 C676.174541,94.8538954 670.045407,90.045397 663.457751,86.0639746 L662.608771,85.5806185 C647.932522,76.9231731 631.117702,72.3474017 613.980485,72.3474017 C588.425112,72.3474017 564.399336,82.2973772 546.323584,100.360575 C544.987425,101.69607 543.679924,103.067369 542.440485,104.470892 C516.122105,134.037966 510.813293,177.418284 529.20786,212.43475 L529.798922,213.576903 Z" id="Shape" fill="#4A555F"></path>
                <path d="M786.729243,520 L221.683766,520 L153.319498,401.588617 C148.389864,393.056879 139.552985,387.96357 129.690141,387.96357 C119.823723,387.96357 110.990419,393.053304 106.05721,401.592192 L55.6169348,488.968347 L52.0099725,478.013266 C50.0116653,471.944187 49,465.589167 49,459.12692 L49,56.3337801 C49,25.2735334 74.2415864,0 105.270757,0 L613.716597,0 L613.716597,10.3224387 C588.90041,10.3224387 564.027027,16.2842905 541.777539,27.5574802 C540.154585,28.3724095 538.588827,29.2052102 536.987322,30.0701791 C535.303596,31.0030587 533.605571,31.9681067 531.907546,33.0046397 L531.521469,33.2155205 L531.528619,33.2262433 C529.859192,34.259202 528.19334,35.2850122 526.563236,36.3858817 C524.757968,37.583256 523.013471,38.7842046 521.272548,40.0244699 C519.992774,40.9502011 518.677251,41.9081005 517.393902,42.923188 C516.210647,43.8238994 515.120336,44.6817198 514.065773,45.5359659 L513.740468,45.807609 C513.429461,46.0649552 513.111305,46.3258755 512.7717,46.5689246 C496.463511,60.1081898 481.999914,78.1081211 472.315811,97.0480806 C471.540081,98.5349692 470.814399,99.9789669 470.124465,101.458707 C468.794643,104.289514 467.557766,107.166787 466.438857,110.033337 C465.899064,111.295048 465.491538,112.399491 465.080437,113.500361 C464.551368,114.901468 464.061622,116.252535 463.5969,117.63577 C445.690781,170.5061 457.05861,229.70643 493.2605,272.147094 C495.948742,275.278139 498.740652,278.298381 501.550436,281.100595 C516.689669,296.244699 534.352702,307.961096 554.042641,315.928103 C556.048098,316.7752 558.117901,317.572258 560.380742,318.372891 L560.384317,318.372891 L561.753461,318.844692 C562.772276,319.202117 563.776792,319.555968 564.802756,319.863354 C582.036815,325.439186 600.021579,327.894697 618.174359,327.494381 C619.5864,327.458638 620.737483,327.422896 621.913588,327.362134 C622.163823,327.329965 622.685743,327.2835 623.211237,327.2835 C624.330146,327.226312 625.656393,327.129807 626.979065,326.99756 L627.357992,326.965392 C628.727136,326.840293 630.114155,326.715194 631.476149,326.561501 C632.259028,326.486442 632.945388,326.393511 633.624598,326.300581 C641.178127,325.260474 648.527894,323.816476 655.470134,322.011479 C655.866936,321.914974 656.120746,321.854212 656.374556,321.76843 C676.361202,316.474963 693.18416,308.361412 706.682564,297.549301 C707.26883,297.081074 707.840796,296.655738 708.423486,296.233976 L711.025933,294.250266 C711.830261,293.635495 712.627439,292.988556 713.431766,292.341616 L714.000158,291.912706 C713.903638,291.977042 713.803544,292.052102 713.699875,292.130735 L714.371936,291.633914 L719.587553,288.263395 L744.096308,347.974843 L843,446.863663 L843,463.659071 C843,494.730041 817.758414,520 786.729243,520 Z M227.64294,509.677561 L786.729243,509.677561 C812.063774,509.677561 832.676009,489.036258 832.676009,463.669794 L832.676009,451.149191 L735.334499,353.822318 L714.97965,304.229577 L714.615021,304.511943 C714.043055,304.93013 713.589057,305.262536 713.135059,305.623535 C698.510596,317.336358 680.404289,326.100423 659.327332,331.669107 C659.137868,331.744166 658.633823,331.872839 658.129777,332.001512 C650.737113,333.920885 642.98697,335.443517 635.036639,336.540812 C634.203713,336.655188 633.370788,336.762415 632.537862,336.841049 C631.204465,336.994742 629.735227,337.126989 628.294587,337.259236 L627.947832,337.291405 C626.482169,337.4308 624.991482,337.545176 623.450748,337.613087 C623.050371,337.620236 622.889506,337.641681 622.72864,337.659553 C621.184331,337.745335 619.958179,337.784651 618.707002,337.81682 C616.855262,337.859711 615.303803,337.895453 613.74877,337.895453 C595.985642,337.895453 578.487049,335.150428 561.739162,329.728288 C560.706048,329.420902 559.597863,329.034883 558.464655,328.638141 L557.814043,328.420112 C555.007834,327.444341 552.484033,326.482868 550.099648,325.474929 C529.190706,317.014675 510.376591,304.533388 494.250717,288.406365 C491.258618,285.418291 488.284394,282.208613 485.413838,278.866687 C446.852587,233.659553 434.748351,170.627625 453.805552,114.343884 C454.302448,112.853421 454.842241,111.391552 455.378459,109.954703 C455.864631,108.642953 456.336503,107.381242 456.879871,106.115957 C458.016654,103.199368 459.346475,100.104066 460.769242,97.0838231 C461.519947,95.4789841 462.31355,93.8920164 463.135752,92.3121971 C473.42757,72.1963089 488.817037,53.0418944 506.440748,38.4267794 C506.855424,38.1158195 506.987691,37.9978692 507.123533,37.8834931 L507.595405,37.5010482 C508.692865,36.6039111 509.87612,35.6746056 511.062951,34.7774685 C512.371323,33.733787 513.804814,32.6901055 515.249029,31.646424 C517.118643,30.3168024 518.956085,29.0443688 520.829275,27.8041035 C522.538024,26.6531945 524.311119,25.5558992 526.084215,24.458604 L526.452418,24.2512974 C526.470292,24.2298519 526.541788,24.1833866 526.641882,24.1297728 C528.418552,23.0503488 530.198797,22.0388356 532.011215,21.0308967 C533.766437,20.0765715 535.435863,19.1901571 537.137463,18.3430594 C543.128809,15.3049455 549.306045,12.6314053 555.611973,10.3295872 L105.267182,10.3295872 C79.9326508,10.3295872 59.3204164,30.9708905 59.3204164,56.3373544 L59.3204164,459.130495 C59.3204164,460.020483 59.3454399,460.903323 59.3883374,461.789738 L97.1095128,396.430972 C103.912337,384.664536 116.088069,377.644706 129.682992,377.644706 C143.277915,377.644706 155.453647,384.664536 162.256471,396.427398 L227.64294,509.677561 Z M843,347.377943 L793.8252,298.264151 L733.275421,273.365914 L737.679561,267.975943 C738.55181,266.907241 739.39546,265.806372 740.203362,264.705502 C758.788691,240.597175 770.045702,209.937244 771.961789,178.283672 C772.891235,162.907241 771.640058,147.666632 768.244009,132.994329 C751.77138,61.9203354 686.781713,10.326013 613.713022,10.326013 L613.713022,0 L786.657748,0 C817.722666,0 843,25.2699591 843,56.3337801 L843,347.377943 L843,347.377943 Z M749.876742,269.030347 L799.662831,289.500086 L832.672434,322.490429 L832.672434,56.3337801 C832.672434,30.963742 812.028027,10.326013 786.657748,10.326013 L671.32075,10.326013 C723.727159,29.6412689 765.269784,74.4266419 778.299891,130.663917 C781.924727,146.304842 783.254548,162.535519 782.264332,178.909166 C780.276749,211.781558 768.794526,243.688903 749.876742,269.030347 Z" id="Shape" fill="#4A555F"></path>
                <path d="M223.340363,614 L37.6569565,614 C24.0629552,614 11.8916234,606.942732 5.09641005,595.118398 C-1.69880335,583.297654 -1.69880335,569.183118 5.09641005,557.362374 L97.9381131,395.878012 C104.733326,384.057268 116.904658,377 130.49866,377 C144.089086,377 156.263993,384.057268 163.059206,395.878012 L255.900909,557.362374 C262.699697,569.186708 262.699697,583.301244 255.900909,595.121988 C249.102121,606.942732 236.930789,614 223.340363,614 Z M130.49866,387.370522 C120.636485,387.370522 111.807355,392.485785 106.878055,401.061479 L14.0363515,562.54584 C9.10705151,571.121533 9.10705151,581.359238 14.0363515,589.934932 C18.9656515,598.510625 27.794782,603.629478 37.6569565,603.629478 L223.340363,603.629478 C233.198963,603.629478 242.028093,598.510625 246.957393,589.938521 C251.886693,581.362828 251.886693,571.121533 246.957393,562.54584 L154.119265,401.061479 C149.18639,392.485785 140.35726,387.370522 130.49866,387.370522 Z" id="Shape" fill="#4A555F"></path>
                <polygon id="Path" fill="#F68F6F" points="21 588 130.502344 399 240 588"></polygon>
                <g id="Group" transform="translate(508.000000, 62.000000)" fill="#4A555F">
                    <path d="M105.767479,211.893444 C77.5362599,211.893444 50.993417,200.898753 31.0291728,180.939874 C-10.1736291,139.744576 -10.1736291,72.7237101 31.0291728,31.5319813 C50.9827085,11.5802394 77.5219819,0.589117096 105.749631,0.589117096 C133.98085,0.589117096 160.520124,11.5766709 180.480798,31.5319813 C200.448612,51.4944288 211.449828,78.0265698 211.46054,106.246633 C211.467676,134.473834 200.480738,160.998838 180.512924,180.947011 C160.54511,200.898753 134.002267,211.893444 105.767479,211.893444 Z M105.746062,10.8950785 C80.2740706,10.8950785 56.3262582,20.8084999 38.3145335,38.8153841 C1.13099478,75.9889299 1.13099478,136.475788 38.3145335,173.649334 C56.3333973,191.663355 80.2883486,201.583914 105.763909,201.583914 C131.24304,201.583914 155.197991,191.663355 173.216855,173.649334 C191.232149,155.653155 201.148235,131.711779 201.1411,106.243065 C201.130388,80.7779189 191.203593,56.8329739 173.18116,38.8153841 C155.173004,20.8084999 131.221623,10.8950785 105.746062,10.8950785 Z" id="Shape"></path>
                    <path d="M105.767479,211.893444 C77.5362599,211.893444 50.993417,200.898753 31.0291728,180.939874 C-10.1736291,139.744576 -10.1736291,72.7237101 31.0291728,31.5319813 C50.9827085,11.5802394 77.5219819,0.589117096 105.749631,0.589117096 C133.98085,0.589117096 160.520124,11.5766709 180.480798,31.5319813 C200.448612,51.4944288 211.449828,78.0265698 211.46054,106.246633 C211.467676,134.473834 200.480738,160.998838 180.512924,180.947011 C160.54511,200.898753 134.002267,211.893444 105.767479,211.893444 Z M105.746062,10.8950785 C80.2740706,10.8950785 56.3262582,20.8084999 38.3145335,38.8153841 C1.13099478,75.9889299 1.13099478,136.475788 38.3145335,173.649334 C56.3333973,191.663355 80.2883486,201.583914 105.763909,201.583914 C131.24304,201.583914 155.197991,191.663355 173.216855,173.649334 C191.232149,155.653155 201.148235,131.711779 201.1411,106.243065 C201.130388,80.7779189 191.203593,56.8329739 173.18116,38.8153841 C155.173004,20.8084999 131.221623,10.8950785 105.746062,10.8950785 Z" id="Shape"></path>
                </g>
                <path d="M614.007155,274 C585.689415,274 559.068591,262.973623 539.049274,242.954304 C519.029957,222.934986 508,196.314161 508,167.99642 C508,139.678679 519.026377,113.057854 539.049274,93.0385356 C559.061432,73.0263771 585.671515,62 613.971355,62 C642.289095,62 668.913498,73.0299571 688.939976,93.0600155 C708.962873,113.079334 719.99283,139.700159 720,168.00716 C720.00715,196.314161 708.984353,222.931406 688.961456,242.954304 C668.942138,262.970043 642.321315,274 614.007155,274 Z M613.971355,72.3390185 C588.435269,72.3390185 564.42068,82.2842379 546.359618,100.3453 C528.291397,118.413523 518.342598,142.438853 518.342598,167.99284 C518.342598,193.543247 528.291397,217.568577 546.359618,235.6368 C564.42784,253.705022 588.453169,263.653821 614.007155,263.653821 C639.55756,263.653821 663.582889,253.705022 681.651111,235.6368 C699.715753,217.568577 709.660972,193.550407 709.657392,168 C709.650232,142.456753 699.694273,118.435003 681.626051,100.3632 C663.554249,82.2949779 639.525341,72.3390185 613.971355,72.3390185 Z" id="Shape" fill="#4A555F"></path>
                <path d="M614.01428,314 C574.988121,313.996419 538.304032,298.756853 510.716882,271.088589 C453.761039,213.96528 453.761039,121.020397 510.716882,63.8970878 C538.296891,36.2359857 574.97027,21 613.975008,21 C652.990456,21 689.678116,36.2431471 717.275976,63.9185721 C774.231819,121.041881 774.24253,213.976023 717.300968,271.085009 C689.713819,298.756853 653.033299,313.996419 614.021421,313.996419 C614.021421,314 614.021421,314 614.01428,314 Z M613.975008,49.0800469 C582.449897,49.0800469 552.809867,61.3941609 530.517365,83.7522089 C508.217723,106.117418 495.932569,135.858922 495.932569,167.494629 C495.932569,199.130336 508.214152,228.868259 530.517365,251.237049 C552.820577,273.602258 582.471319,285.923534 614.01428,285.923534 C645.553672,285.923534 675.207983,273.605839 697.511196,251.237049 C719.810838,228.871839 732.092421,199.133917 732.081718,167.505371 C732.07457,135.883987 719.785847,106.149645 697.486204,83.7808547 C675.172281,61.404903 645.514399,49.0800469 613.975008,49.0800469 Z" id="Shape" fill="#71CDE1"></path>
                <g id="Group" transform="translate(739.000000, 290.000000)">
                    <path d="M147.256753,115.602085 L129.676636,98.0291202 L97.4201963,130.28556 L114.993161,147.858524 C119.30594,152.171303 125.034855,154.545835 131.124957,154.545835 C137.211482,154.545835 142.940398,152.171303 147.253177,147.858524 C156.150518,138.964759 156.150518,124.492274 147.256753,115.602085 Z" id="Path" fill="#F68F6F"></path>
                    <path d="M49.0856026,17.4774242 L8.20360537,0.684049587 C6.89117596,2.08945764 5.55728994,3.46625689 4.20909952,4.81444731 C2.85733299,6.16621384 1.48053375,7.50009986 0.0751256887,8.81610537 L16.8506198,49.7195592 L97.4201963,130.289136 L129.676636,98.0326963 L49.0856026,17.4774242 Z" id="Path" fill="#71CDE1"></path>
                </g>
                <path d="M869.368551,469 C857.173391,469 845.716896,464.255147 837.096736,455.643454 L735.454864,354.059167 L711,294.50123 L713.951078,292.071464 C718.279087,288.50924 722.22342,284.93985 726.006394,281.159019 C730.144357,277.0234 734.103033,272.604666 737.78202,268.021081 L740.205992,265 L799.98415,289.570023 L901.66188,391.122057 C919.443649,408.893753 919.447235,437.835922 901.665465,455.643454 C893.023791,464.258731 881.556539,469 869.368551,469 Z M744.24714,348.206943 L844.418852,448.321903 C851.081189,454.980465 859.941595,458.646617 869.368551,458.646617 C878.795506,458.646617 887.663084,454.976881 894.339764,448.318319 C908.080385,434.553229 908.080385,412.172862 894.336178,398.432858 L794.128608,298.350151 L743.390144,277.496451 C740.195235,281.298784 736.821037,284.979271 733.324924,288.469819 C730.22683,291.566158 726.920762,294.62666 723.464092,297.590401 L744.24714,348.206943 Z" id="Shape" fill="#4A555F"></path>
                <polygon id="Path" fill="#4A555F" points="881 383.320053 831.287916 433 824 425.708513 873.712084 376"></polygon>
                <g id="Group" transform="translate(121.000000, 454.000000)" fill="#4A555F">
                    <polygon id="Path" points="10 81 7.33842239 81 0 39.5942821 0 0 10 0"></polygon>
                    <polygon id="Path" points="10 81 12.6578411 81 20 39.5942821 20 0 10 0"></polygon>
                    <circle id="Oval" cx="10" cy="103" r="10"></circle>
                </g>
                <g id="Group" transform="translate(535.000000, 99.000000)">
                    <path d="M141,124.868613 L141,142.693431 C132.204918,150.883212 122.459016,156.905109 112,161 L120.319672,95 C132.442623,99.5766423 141,111.620438 141,124.868613 Z" id="Path" fill="#E0E0E0"></path>
                    <path d="M51,162 C38.2727273,157.900709 26.5244755,151.148936 16,141.744681 L16,124.141844 C16,111.120567 27.2587413,98.5815603 42.1888112,94 L51,162 Z" id="Path" fill="#E0E0E0"></path>
                    <path d="M81.5,68 C67.3066038,68 56,56.2264151 56,42 C56,27.5283019 67.5471698,16 81.5,16 C95.6933962,16 107,27.7735849 107,42 C107,56.4716981 95.4528302,68 81.5,68 Z" id="Path" fill="#FFD552"></path>
                    <g fill="#4A555F">
                        <path d="M81,84 C57.8275862,84 39,65.1724138 39,42 C39,18.8275862 57.8275862,9.09494702e-13 81,9.09494702e-13 C104.172414,9.09494702e-13 123,18.8275862 123,42 C123,65.1724138 104.172414,84 81,84 Z M81.5,7 C62.4405594,7 47,22.4405594 47,41.5 C47,60.5594406 62.4405594,76 81.5,76 C100.559441,76 116,60.5594406 116,41.5 C116,22.4405594 100.318182,7 81.5,7 Z" id="Shape"></path>
                        <path d="M158,128 L150.510703,128 L150.510703,126.084507 C150.510703,103.338028 131.908257,84.6619718 108.957187,84.4225352 L49.5259939,84.4225352 C26.3333333,84.4225352 7.48929664,103.098592 7.48929664,126.084507 L7.48929664,128 L0,128 L0,126.084507 C0,99.028169 22.2262997,77 49.5259939,77 L108.957187,77 C136.015291,77.2394366 158,99.2676056 158,126.084507 L158,128 L158,128 Z" id="Path"></path>
                        <path d="M60.7073171,166 L49,77 L64.3658537,77 L79,94.2722372 L62.6585366,122.339623 L68.2682927,165.040431 L60.7073171,166 Z M58,84 L61.36,110 L70,94.8333333 L61.12,84.2407407 L58,84.2407407 L58,84 Z" id="Shape"></path>
                        <path d="M101.752137,165 L94.3333333,164.043478 L99.8376068,121.956522 L85,93.5 L99.3589744,77 L113,77 L101.752137,165 Z M94,94.3365385 L101.75,109 L105,84 L103,84 L94,94.3365385 Z" id="Shape"></path>
                        <rect id="Rectangle" x="78" y="103" width="7" height="64"></rect>
                        <polygon id="Path" points="81.0227273 109 71 96.6712329 76.7272727 91.739726 81.2613636 97.1643836 86.5113636 91 92 96.1780822"></polygon>
                    </g>
                </g>
                <g id="Group-9" transform="translate(131.000000, 71.000000)" fill="#4A555F">
                    <rect id="Rectangle" x="0" y="0" width="27.2843137" height="13.6640625"></rect>
                    <rect id="Rectangle" x="58.2892157" y="0" width="68.2107843" height="13.6640625"></rect>
                    <rect id="Rectangle" x="0" y="43.4765625" width="27.2843137" height="12.421875"></rect>
                    <rect id="Rectangle" x="58.2892157" y="43.4765625" width="194.710784" height="12.421875"></rect>
                    <rect id="Rectangle" x="0" y="88.1953125" width="27.2843137" height="12.421875"></rect>
                    <rect id="Rectangle" x="58.2892157" y="88.1953125" width="194.710784" height="12.421875"></rect>
                    <rect id="Rectangle" x="0" y="130.429688" width="27.2843137" height="13.6640625"></rect>
                    <rect id="Rectangle" x="58.2892157" y="130.429688" width="76.8921569" height="13.6640625"></rect>
                    <rect id="Rectangle" x="0" y="172.664062" width="27.2843137" height="13.6640625"></rect>
                    <rect id="Rectangle" x="58.2892157" y="172.664062" width="194.710784" height="13.6640625"></rect>
                    <rect id="Rectangle" x="0" y="217.382812" width="27.2843137" height="12.421875"></rect>
                    <rect id="Rectangle" x="58.2892157" y="217.382812" width="76.8921569" height="12.421875"></rect>
                    <rect id="Rectangle" x="153.784314" y="0" width="57.0490196" height="13.6640625"></rect>
                    <rect id="Rectangle" x="164.946078" y="130.429688" width="88.0539216" height="13.6640625"></rect>
                </g>
            </g>
        </g>
    </g>
</svg>