<?xml version="1.0" encoding="UTF-8"?>
<svg width="1141px" height="464px" viewBox="0 0 1141 464" version="1.1" xmlns="http://www.w3.org/2000/svg" xmlns:xlink="http://www.w3.org/1999/xlink">
    <!-- Generator: Sketch 59.1 (86144) - https://sketch.com -->
    <title>t-api-galore</title>
    <desc>Created with Sketch.</desc>
    <g id="Page-1" stroke="none" stroke-width="1" fill="none" fill-rule="evenodd">
        <g id="t-api-galore">
            <g id="Group" transform="translate(0.000000, 46.000000)" fill-rule="nonzero">
                <path d="M158.745928,271 L111.364007,271 L96.6327362,228.425315 L56.286645,248.058201 L22.8664495,214.52788 L42.4348534,174.04884 L0,159.269027 L0,111.730973 L42.4348534,96.95116 L22.8664495,56.4721205 L56.286645,22.9417989 L96.6327362,42.5746846 L111.364007,0 L158.745928,0 L173.477199,42.5746846 L213.82329,22.9417989 L247.243485,56.4721205 L227.675081,96.95116 L270,111.730973 L270,159.269027 L227.675081,174.04884 L247.243485,214.52788 L213.82329,248.058201 L173.477199,228.425315 L158.745928,271 Z M115.651466,265.043956 L154.568404,265.043956 L170.069218,220.153032 L212.723941,240.888889 L240.207655,213.314611 L219.649837,170.519333 L264.283388,154.96744 L264.283388,115.922263 L219.649837,100.37037 L240.207655,57.5750916 L212.723941,30.000814 L170.069218,50.7366707 L154.568404,5.84574685 L115.651466,5.84574685 L100.150651,50.7366707 L57.4959283,30.000814 L30.012215,57.5750916 L50.6799674,100.37037 L5.93648208,115.922263 L5.93648208,154.96744 L50.6799674,170.519333 L30.012215,213.204314 L57.4959283,240.778592 L100.150651,220.042735 L115.651466,265.043956 Z M135.109935,186.071225 C107.296417,186.071225 84.6498371,163.35002 84.6498371,135.444851 C84.6498371,107.539683 107.296417,84.8184778 135.109935,84.8184778 C162.923453,84.8184778 185.570033,107.539683 185.570033,135.444851 C185.570033,163.35002 162.923453,186.071225 135.109935,186.071225 Z M135.109935,90.7745218 C110.594463,90.7745218 90.5863192,110.848596 90.5863192,135.444851 C90.5863192,160.041107 110.594463,180.115181 135.109935,180.115181 C159.625407,180.115181 179.63355,160.041107 179.63355,135.444851 C179.523616,110.848596 159.625407,90.7745218 135.109935,90.7745218 Z" id="Shape" fill="#4A555F"></path>
                <path d="M120.120968,257.889834 L103.698925,210.518585 L58.6209677,232.331393 L37.5698925,211.289745 L59.3924731,166.231975 L12,149.817286 L12,120.072548 L59.3924731,103.657859 L37.5698925,58.6000896 L58.6209677,37.5584416 L103.698925,59.3712494 L120.120968,12 L149.879032,12 L166.301075,59.3712494 L211.379032,37.5584416 L232.430108,58.6000896 L210.607527,103.657859 L258,120.072548 L258,149.817286 L210.607527,166.231975 L232.430108,211.289745 L211.379032,232.331393 L166.301075,210.628751 L149.879032,258 L120.120968,258 L120.120968,257.889834 Z M135,77.9892521 C103.478495,77.9892521 77.9086022,103.547694 77.9086022,135.055083 C77.9086022,166.562472 103.478495,192.120914 135,192.120914 C166.521505,192.120914 192.091398,166.562472 192.091398,135.055083 C191.981183,103.547694 166.41129,77.9892521 135,77.9892521 Z" id="Shape" fill="#666288"></path>
            </g>
            <g id="Group-8" transform="translate(890.000000, 46.000000)" fill-rule="nonzero">
                <path d="M125.55749,68.0677966 C93.8231791,68.0677966 68.0677966,93.8231791 68.0677966,125.55749 C68.0677966,157.176821 93.8231791,183.047183 125.55749,183.047183 C157.2918,183.047183 183.047183,157.2918 183.047183,125.55749 C183.047183,93.8231791 157.176821,68.0677966 125.55749,68.0677966 Z M125.55749,176.14842 C97.7324782,176.14842 74.9665598,153.497481 74.9665598,125.55749 C74.9665598,97.6174989 97.6174989,74.9665598 125.55749,74.9665598 C153.382501,74.9665598 176.14842,97.6174989 176.14842,125.55749 C176.14842,153.497481 153.382501,176.14842 125.55749,176.14842 Z M125.55749,68.0677966 C93.8231791,68.0677966 68.0677966,93.8231791 68.0677966,125.55749 C68.0677966,157.176821 93.8231791,183.047183 125.55749,183.047183 C157.2918,183.047183 183.047183,157.2918 183.047183,125.55749 C183.047183,93.8231791 157.176821,68.0677966 125.55749,68.0677966 Z M125.55749,176.14842 C97.7324782,176.14842 74.9665598,153.497481 74.9665598,125.55749 C74.9665598,97.6174989 97.6174989,74.9665598 125.55749,74.9665598 C153.382501,74.9665598 176.14842,97.6174989 176.14842,125.55749 C176.14842,153.497481 153.382501,176.14842 125.55749,176.14842 Z M125.55749,68.0677966 C93.8231791,68.0677966 68.0677966,93.8231791 68.0677966,125.55749 C68.0677966,157.176821 93.8231791,183.047183 125.55749,183.047183 C157.2918,183.047183 183.047183,157.2918 183.047183,125.55749 C183.047183,93.8231791 157.176821,68.0677966 125.55749,68.0677966 Z M125.55749,176.14842 C97.7324782,176.14842 74.9665598,153.497481 74.9665598,125.55749 C74.9665598,97.6174989 97.6174989,74.9665598 125.55749,74.9665598 C153.382501,74.9665598 176.14842,97.6174989 176.14842,125.55749 C176.14842,153.497481 153.382501,176.14842 125.55749,176.14842 Z M125.55749,68.0677966 C93.8231791,68.0677966 68.0677966,93.8231791 68.0677966,125.55749 C68.0677966,157.176821 93.8231791,183.047183 125.55749,183.047183 C157.2918,183.047183 183.047183,157.2918 183.047183,125.55749 C183.047183,93.8231791 157.176821,68.0677966 125.55749,68.0677966 Z M125.55749,176.14842 C97.7324782,176.14842 74.9665598,153.497481 74.9665598,125.55749 C74.9665598,97.6174989 97.6174989,74.9665598 125.55749,74.9665598 C153.382501,74.9665598 176.14842,97.6174989 176.14842,125.55749 C176.14842,153.497481 153.382501,176.14842 125.55749,176.14842 Z M248.815392,92.3284471 C248.815392,92.3284471 238.007329,88.0742098 226.62437,83.5900137 C231.568484,72.3220339 236.167659,61.7439304 236.167659,61.7439304 L237.087494,59.559322 L191.440678,13.9125057 L189.25607,14.8323408 C189.25607,14.8323408 178.677966,19.4315163 167.409986,24.3756299 C162.92579,12.9926706 158.671553,2.18460834 158.671553,2.18460834 L157.866697,0 L93.2482822,0 L92.3284471,2.18460834 C92.3284471,2.18460834 88.0742098,12.9926706 83.5900137,24.3756299 C72.3220339,19.4315163 61.7439304,14.8323408 61.7439304,14.8323408 L59.559322,13.9125057 L13.9125057,59.559322 L14.8323408,61.7439304 C14.8323408,61.7439304 19.4315163,72.3220339 24.3756299,83.5900137 C12.9926706,88.0742098 2.18460834,92.3284471 2.18460834,92.3284471 L0,93.2482822 L0,157.866697 L2.18460834,158.671553 C2.18460834,158.671553 12.9926706,162.92579 24.3756299,167.409986 C19.4315163,178.677966 14.8323408,189.25607 14.8323408,189.25607 L13.9125057,191.440678 L59.559322,237.087494 L61.7439304,236.167659 C61.7439304,236.167659 72.3220339,231.568484 83.5900137,226.62437 C88.0742098,238.007329 92.3284471,248.815392 92.3284471,248.815392 L93.2482822,251 L157.866697,251 L158.671553,248.815392 C158.671553,248.815392 162.92579,238.007329 167.409986,226.62437 C178.677966,231.568484 189.25607,236.167659 189.25607,236.167659 L191.440678,237.087494 L237.087494,191.440678 L236.167659,189.25607 C236.167659,189.25607 231.568484,178.562987 226.62437,167.409986 C238.007329,162.92579 248.815392,158.671553 248.815392,158.671553 L251,157.866697 L251,93.2482822 L248.815392,92.3284471 Z M244.101237,153.152542 C239.847,154.762254 230.188731,158.671553 220.760421,162.350893 L217.426019,163.615667 L218.920751,166.950069 C222.94503,176.263399 227.084288,185.806688 228.923958,189.830967 L189.830967,228.923958 C185.691709,227.084288 176.14842,222.94503 166.950069,218.920751 L163.615667,217.426019 L162.350893,220.760421 C158.671553,230.188731 154.877233,239.847 153.152542,244.101237 L97.962437,244.101237 C96.2377462,239.847 92.4434265,230.188731 88.7640861,220.760421 L87.4993129,217.426019 L84.1649107,218.920751 C74.8515804,222.94503 65.4232707,227.084288 61.2840128,228.923958 L22.1910215,189.830967 C24.0306917,185.691709 28.1699496,176.14842 32.1942281,166.950069 L33.6889601,163.615667 L30.3545579,162.350893 C20.9262483,158.671553 11.2679798,154.877233 7.01374256,153.152542 L7.01374256,97.962437 C11.2679798,96.3527256 20.9262483,92.4434265 30.3545579,88.7640861 L33.6889601,87.4993129 L32.1942281,84.1649107 C28.1699496,74.8515804 24.0306917,65.3082913 22.1910215,61.1690334 L61.2840128,22.0760421 C65.4232707,23.9157123 74.9665598,28.0549702 84.1649107,32.0792487 L87.4993129,33.5739808 L88.7640861,30.2395786 C92.4434265,20.8112689 96.2377462,11.1530005 97.962437,7.01374256 L153.152542,7.01374256 C154.762254,11.2679798 158.671553,20.9262483 162.350893,30.2395786 L163.615667,33.5739808 L166.950069,32.0792487 C176.263399,28.0549702 185.691709,23.9157123 189.830967,22.0760421 L228.923958,61.1690334 C227.084288,65.3082913 222.94503,74.8515804 218.920751,84.1649107 L217.426019,87.4993129 L220.760421,88.7640861 C230.188731,92.4434265 239.847,96.2377462 244.101237,97.962437 L244.101237,153.152542 Z M125.55749,68.0677966 C93.8231791,68.0677966 68.0677966,93.8231791 68.0677966,125.55749 C68.0677966,157.176821 93.8231791,183.047183 125.55749,183.047183 C157.2918,183.047183 183.047183,157.2918 183.047183,125.55749 C183.047183,93.8231791 157.176821,68.0677966 125.55749,68.0677966 Z M125.55749,176.14842 C97.7324782,176.14842 74.9665598,153.497481 74.9665598,125.55749 C74.9665598,97.6174989 97.6174989,74.9665598 125.55749,74.9665598 C153.382501,74.9665598 176.14842,97.6174989 176.14842,125.55749 C176.14842,153.497481 153.382501,176.14842 125.55749,176.14842 Z M125.55749,68.0677966 C93.8231791,68.0677966 68.0677966,93.8231791 68.0677966,125.55749 C68.0677966,157.176821 93.8231791,183.047183 125.55749,183.047183 C157.2918,183.047183 183.047183,157.2918 183.047183,125.55749 C183.047183,93.8231791 157.176821,68.0677966 125.55749,68.0677966 Z M125.55749,176.14842 C97.7324782,176.14842 74.9665598,153.497481 74.9665598,125.55749 C74.9665598,97.6174989 97.6174989,74.9665598 125.55749,74.9665598 C153.382501,74.9665598 176.14842,97.6174989 176.14842,125.55749 C176.14842,153.497481 153.382501,176.14842 125.55749,176.14842 Z M125.55749,68.0677966 C93.8231791,68.0677966 68.0677966,93.8231791 68.0677966,125.55749 C68.0677966,157.176821 93.8231791,183.047183 125.55749,183.047183 C157.2918,183.047183 183.047183,157.2918 183.047183,125.55749 C183.047183,93.8231791 157.176821,68.0677966 125.55749,68.0677966 Z M125.55749,176.14842 C97.7324782,176.14842 74.9665598,153.497481 74.9665598,125.55749 C74.9665598,97.6174989 97.6174989,74.9665598 125.55749,74.9665598 C153.382501,74.9665598 176.14842,97.6174989 176.14842,125.55749 C176.14842,153.497481 153.382501,176.14842 125.55749,176.14842 Z M125.55749,68.0677966 C93.8231791,68.0677966 68.0677966,93.8231791 68.0677966,125.55749 C68.0677966,157.176821 93.8231791,183.047183 125.55749,183.047183 C157.2918,183.047183 183.047183,157.2918 183.047183,125.55749 C183.047183,93.8231791 157.176821,68.0677966 125.55749,68.0677966 Z M125.55749,176.14842 C97.7324782,176.14842 74.9665598,153.497481 74.9665598,125.55749 C74.9665598,97.6174989 97.6174989,74.9665598 125.55749,74.9665598 C153.382501,74.9665598 176.14842,97.6174989 176.14842,125.55749 C176.14842,153.497481 153.382501,176.14842 125.55749,176.14842 Z M125.55749,68.0677966 C93.8231791,68.0677966 68.0677966,93.8231791 68.0677966,125.55749 C68.0677966,157.176821 93.8231791,183.047183 125.55749,183.047183 C157.2918,183.047183 183.047183,157.2918 183.047183,125.55749 C183.047183,93.8231791 157.176821,68.0677966 125.55749,68.0677966 Z M125.55749,176.14842 C97.7324782,176.14842 74.9665598,153.497481 74.9665598,125.55749 C74.9665598,97.6174989 97.6174989,74.9665598 125.55749,74.9665598 C153.382501,74.9665598 176.14842,97.6174989 176.14842,125.55749 C176.14842,153.497481 153.382501,176.14842 125.55749,176.14842 Z" id="Shape" fill="#4A555F"></path>
                <path d="M237,148.145736 L237,102.854264 C232.041882,100.89509 225.123578,98.2444444 218.320579,95.478553 L207.712513,91.3297158 L212.209411,80.9576227 C215.207342,74.273385 218.089969,67.4739018 220.280765,62.6335917 L211.632885,53.8749354 L188.341262,30.7105943 C183.498449,32.7850129 176.69545,35.7813953 170.007756,38.6625323 L159.6303,43.2723514 L155.479317,32.6697674 C152.827301,25.8702842 150.059979,18.9555556 148.215098,14 L102.900207,14 C100.940021,18.9555556 98.2880041,25.8702842 95.5206825,32.6697674 L91.3697001,43.2723514 L80.9922441,38.6625323 C74.3045502,35.7813953 67.5015512,32.7850129 62.6587384,30.7105943 L30.6039297,62.7488372 C32.6794209,67.5891473 35.6773526,74.3886305 38.6752844,81.0728682 L43.2874871,91.4449612 L32.6794209,95.5937984 C25.8764219,98.2444444 18.9581179,101.010336 14,102.969509 L14,148.260982 C18.9581179,150.220155 25.8764219,152.986047 32.6794209,155.636693 L43.2874871,159.78553 L38.6752844,170.157623 C35.7926577,176.84186 32.794726,183.641344 30.6039297,188.481654 L62.6587384,220.404651 C67.5015512,218.330233 74.3045502,215.33385 80.9922441,212.337468 L91.3697001,207.842894 L95.5206825,218.330233 C98.1726991,225.129716 100.940021,232.044444 102.900207,237 L148.215098,237 C150.175284,232.044444 152.827301,225.129716 155.479317,218.330233 L159.6303,207.842894 L170.007756,212.337468 C176.69545,215.33385 183.498449,218.214987 188.341262,220.404651 L220.39607,188.366408 C218.320579,183.526098 215.322647,176.726615 212.324716,170.042377 L207.827818,159.670284 L218.435884,155.521447 C225.123578,152.870801 232.041882,150.10491 237,148.145736 Z M125.5,190.556072 C89.6401241,190.556072 60.4679421,161.398966 60.4679421,125.557623 C60.4679421,89.7162791 89.6401241,60.5591731 125.5,60.5591731 C161.359876,60.5591731 190.532058,89.7162791 190.532058,125.557623 C190.532058,161.398966 161.359876,190.556072 125.5,190.556072 Z" id="Shape" fill="#F68F6F"></path>
                <path d="M125.55749,68.0677966 C93.8231791,68.0677966 68.0677966,93.8231791 68.0677966,125.55749 C68.0677966,157.176821 93.8231791,183.047183 125.55749,183.047183 C157.2918,183.047183 183.047183,157.2918 183.047183,125.55749 C183.047183,93.8231791 157.176821,68.0677966 125.55749,68.0677966 Z M125.55749,176.14842 C97.7324782,176.14842 74.9665598,153.497481 74.9665598,125.55749 C74.9665598,97.6174989 97.6174989,74.9665598 125.55749,74.9665598 C153.382501,74.9665598 176.14842,97.6174989 176.14842,125.55749 C176.14842,153.497481 153.382501,176.14842 125.55749,176.14842 Z M125.55749,68.0677966 C93.8231791,68.0677966 68.0677966,93.8231791 68.0677966,125.55749 C68.0677966,157.176821 93.8231791,183.047183 125.55749,183.047183 C157.2918,183.047183 183.047183,157.2918 183.047183,125.55749 C183.047183,93.8231791 157.176821,68.0677966 125.55749,68.0677966 Z M125.55749,176.14842 C97.7324782,176.14842 74.9665598,153.497481 74.9665598,125.55749 C74.9665598,97.6174989 97.6174989,74.9665598 125.55749,74.9665598 C153.382501,74.9665598 176.14842,97.6174989 176.14842,125.55749 C176.14842,153.497481 153.382501,176.14842 125.55749,176.14842 Z M125.55749,68.0677966 C93.8231791,68.0677966 68.0677966,93.8231791 68.0677966,125.55749 C68.0677966,157.176821 93.8231791,183.047183 125.55749,183.047183 C157.2918,183.047183 183.047183,157.2918 183.047183,125.55749 C183.047183,93.8231791 157.176821,68.0677966 125.55749,68.0677966 Z M125.55749,176.14842 C97.7324782,176.14842 74.9665598,153.497481 74.9665598,125.55749 C74.9665598,97.6174989 97.6174989,74.9665598 125.55749,74.9665598 C153.382501,74.9665598 176.14842,97.6174989 176.14842,125.55749 C176.14842,153.497481 153.382501,176.14842 125.55749,176.14842 Z M125.55749,68.0677966 C93.8231791,68.0677966 68.0677966,93.8231791 68.0677966,125.55749 C68.0677966,157.176821 93.8231791,183.047183 125.55749,183.047183 C157.2918,183.047183 183.047183,157.2918 183.047183,125.55749 C183.047183,93.8231791 157.176821,68.0677966 125.55749,68.0677966 Z M125.55749,176.14842 C97.7324782,176.14842 74.9665598,153.497481 74.9665598,125.55749 C74.9665598,97.6174989 97.6174989,74.9665598 125.55749,74.9665598 C153.382501,74.9665598 176.14842,97.6174989 176.14842,125.55749 C176.14842,153.497481 153.382501,176.14842 125.55749,176.14842 Z M248.815392,92.3284471 C248.815392,92.3284471 238.007329,88.0742098 226.62437,83.5900137 C231.568484,72.3220339 236.167659,61.7439304 236.167659,61.7439304 L237.087494,59.559322 L191.440678,13.9125057 L189.25607,14.8323408 C189.25607,14.8323408 178.677966,19.4315163 167.409986,24.3756299 C162.92579,12.9926706 158.671553,2.18460834 158.671553,2.18460834 L157.866697,0 L93.2482822,0 L92.3284471,2.18460834 C92.3284471,2.18460834 88.0742098,12.9926706 83.5900137,24.3756299 C72.3220339,19.4315163 61.7439304,14.8323408 61.7439304,14.8323408 L59.559322,13.9125057 L13.9125057,59.559322 L14.8323408,61.7439304 C14.8323408,61.7439304 19.4315163,72.3220339 24.3756299,83.5900137 C12.9926706,88.0742098 2.18460834,92.3284471 2.18460834,92.3284471 L0,93.2482822 L0,157.866697 L2.18460834,158.671553 C2.18460834,158.671553 12.9926706,162.92579 24.3756299,167.409986 C19.4315163,178.677966 14.8323408,189.25607 14.8323408,189.25607 L13.9125057,191.440678 L59.559322,237.087494 L61.7439304,236.167659 C61.7439304,236.167659 72.3220339,231.568484 83.5900137,226.62437 C88.0742098,238.007329 92.3284471,248.815392 92.3284471,248.815392 L93.2482822,251 L157.866697,251 L158.671553,248.815392 C158.671553,248.815392 162.92579,238.007329 167.409986,226.62437 C178.677966,231.568484 189.25607,236.167659 189.25607,236.167659 L191.440678,237.087494 L237.087494,191.440678 L236.167659,189.25607 C236.167659,189.25607 231.568484,178.562987 226.62437,167.409986 C238.007329,162.92579 248.815392,158.671553 248.815392,158.671553 L251,157.866697 L251,93.2482822 L248.815392,92.3284471 Z M244.101237,153.152542 C239.847,154.762254 230.188731,158.671553 220.760421,162.350893 L217.426019,163.615667 L218.920751,166.950069 C222.94503,176.263399 227.084288,185.806688 228.923958,189.830967 L189.830967,228.923958 C185.691709,227.084288 176.14842,222.94503 166.950069,218.920751 L163.615667,217.426019 L162.350893,220.760421 C158.671553,230.188731 154.877233,239.847 153.152542,244.101237 L97.962437,244.101237 C96.2377462,239.847 92.4434265,230.188731 88.7640861,220.760421 L87.4993129,217.426019 L84.1649107,218.920751 C74.8515804,222.94503 65.4232707,227.084288 61.2840128,228.923958 L22.1910215,189.830967 C24.0306917,185.691709 28.1699496,176.14842 32.1942281,166.950069 L33.6889601,163.615667 L30.3545579,162.350893 C20.9262483,158.671553 11.2679798,154.877233 7.01374256,153.152542 L7.01374256,97.962437 C11.2679798,96.3527256 20.9262483,92.4434265 30.3545579,88.7640861 L33.6889601,87.4993129 L32.1942281,84.1649107 C28.1699496,74.8515804 24.0306917,65.3082913 22.1910215,61.1690334 L61.2840128,22.0760421 C65.4232707,23.9157123 74.9665598,28.0549702 84.1649107,32.0792487 L87.4993129,33.5739808 L88.7640861,30.2395786 C92.4434265,20.8112689 96.2377462,11.1530005 97.962437,7.01374256 L153.152542,7.01374256 C154.762254,11.2679798 158.671553,20.9262483 162.350893,30.2395786 L163.615667,33.5739808 L166.950069,32.0792487 C176.263399,28.0549702 185.691709,23.9157123 189.830967,22.0760421 L228.923958,61.1690334 C227.084288,65.3082913 222.94503,74.8515804 218.920751,84.1649107 L217.426019,87.4993129 L220.760421,88.7640861 C230.188731,92.4434265 239.847,96.2377462 244.101237,97.962437 L244.101237,153.152542 Z M125.55749,68.0677966 C93.8231791,68.0677966 68.0677966,93.8231791 68.0677966,125.55749 C68.0677966,157.176821 93.8231791,183.047183 125.55749,183.047183 C157.2918,183.047183 183.047183,157.2918 183.047183,125.55749 C183.047183,93.8231791 157.176821,68.0677966 125.55749,68.0677966 Z M125.55749,176.14842 C97.7324782,176.14842 74.9665598,153.497481 74.9665598,125.55749 C74.9665598,97.6174989 97.6174989,74.9665598 125.55749,74.9665598 C153.382501,74.9665598 176.14842,97.6174989 176.14842,125.55749 C176.14842,153.497481 153.382501,176.14842 125.55749,176.14842 Z M125.55749,68.0677966 C93.8231791,68.0677966 68.0677966,93.8231791 68.0677966,125.55749 C68.0677966,157.176821 93.8231791,183.047183 125.55749,183.047183 C157.2918,183.047183 183.047183,157.2918 183.047183,125.55749 C183.047183,93.8231791 157.176821,68.0677966 125.55749,68.0677966 Z M125.55749,176.14842 C97.7324782,176.14842 74.9665598,153.497481 74.9665598,125.55749 C74.9665598,97.6174989 97.6174989,74.9665598 125.55749,74.9665598 C153.382501,74.9665598 176.14842,97.6174989 176.14842,125.55749 C176.14842,153.497481 153.382501,176.14842 125.55749,176.14842 Z M125.55749,68.0677966 C93.8231791,68.0677966 68.0677966,93.8231791 68.0677966,125.55749 C68.0677966,157.176821 93.8231791,183.047183 125.55749,183.047183 C157.2918,183.047183 183.047183,157.2918 183.047183,125.55749 C183.047183,93.8231791 157.176821,68.0677966 125.55749,68.0677966 Z M125.55749,176.14842 C97.7324782,176.14842 74.9665598,153.497481 74.9665598,125.55749 C74.9665598,97.6174989 97.6174989,74.9665598 125.55749,74.9665598 C153.382501,74.9665598 176.14842,97.6174989 176.14842,125.55749 C176.14842,153.497481 153.382501,176.14842 125.55749,176.14842 Z M125.55749,68.0677966 C93.8231791,68.0677966 68.0677966,93.8231791 68.0677966,125.55749 C68.0677966,157.176821 93.8231791,183.047183 125.55749,183.047183 C157.2918,183.047183 183.047183,157.2918 183.047183,125.55749 C183.047183,93.8231791 157.176821,68.0677966 125.55749,68.0677966 Z M125.55749,176.14842 C97.7324782,176.14842 74.9665598,153.497481 74.9665598,125.55749 C74.9665598,97.6174989 97.6174989,74.9665598 125.55749,74.9665598 C153.382501,74.9665598 176.14842,97.6174989 176.14842,125.55749 C176.14842,153.497481 153.382501,176.14842 125.55749,176.14842 Z M125.55749,68.0677966 C93.8231791,68.0677966 68.0677966,93.8231791 68.0677966,125.55749 C68.0677966,157.176821 93.8231791,183.047183 125.55749,183.047183 C157.2918,183.047183 183.047183,157.2918 183.047183,125.55749 C183.047183,93.8231791 157.176821,68.0677966 125.55749,68.0677966 Z M125.55749,176.14842 C97.7324782,176.14842 74.9665598,153.497481 74.9665598,125.55749 C74.9665598,97.6174989 97.6174989,74.9665598 125.55749,74.9665598 C153.382501,74.9665598 176.14842,97.6174989 176.14842,125.55749 C176.14842,153.497481 153.382501,176.14842 125.55749,176.14842 Z" id="Shape" fill="#4A555F"></path>
                <path d="M237,148.145736 L237,102.854264 C232.041882,100.89509 225.123578,98.2444444 218.320579,95.478553 L207.712513,91.3297158 L212.209411,80.9576227 C215.207342,74.273385 218.089969,67.4739018 220.280765,62.6335917 L211.632885,53.8749354 L188.341262,30.7105943 C183.498449,32.7850129 176.69545,35.7813953 170.007756,38.6625323 L159.6303,43.2723514 L155.479317,32.6697674 C152.827301,25.8702842 150.059979,18.9555556 148.215098,14 L102.900207,14 C100.940021,18.9555556 98.2880041,25.8702842 95.5206825,32.6697674 L91.3697001,43.2723514 L80.9922441,38.6625323 C74.3045502,35.7813953 67.5015512,32.7850129 62.6587384,30.7105943 L30.6039297,62.7488372 C32.6794209,67.5891473 35.6773526,74.3886305 38.6752844,81.0728682 L43.2874871,91.4449612 L32.6794209,95.5937984 C25.8764219,98.2444444 18.9581179,101.010336 14,102.969509 L14,148.260982 C18.9581179,150.220155 25.8764219,152.986047 32.6794209,155.636693 L43.2874871,159.78553 L38.6752844,170.157623 C35.7926577,176.84186 32.794726,183.641344 30.6039297,188.481654 L62.6587384,220.404651 C67.5015512,218.330233 74.3045502,215.33385 80.9922441,212.337468 L91.3697001,207.842894 L95.5206825,218.330233 C98.1726991,225.129716 100.940021,232.044444 102.900207,237 L148.215098,237 C150.175284,232.044444 152.827301,225.129716 155.479317,218.330233 L159.6303,207.842894 L170.007756,212.337468 C176.69545,215.33385 183.498449,218.214987 188.341262,220.404651 L220.39607,188.366408 C218.320579,183.526098 215.322647,176.726615 212.324716,170.042377 L207.827818,159.670284 L218.435884,155.521447 C225.123578,152.870801 232.041882,150.10491 237,148.145736 Z M125.5,190.556072 C89.6401241,190.556072 60.4679421,161.398966 60.4679421,125.557623 C60.4679421,89.7162791 89.6401241,60.5591731 125.5,60.5591731 C161.359876,60.5591731 190.532058,89.7162791 190.532058,125.557623 C190.532058,161.398966 161.359876,190.556072 125.5,190.556072 Z" id="Shape" fill="#E88C59"></path>
            </g>
            <path d="M805.282974,343 L354.539568,343 C336.083933,343 321,327.925026 321,309.480352 L321,33.5196484 C321,15.0749741 336.083933,0 354.539568,0 L805.460432,0 C823.916067,0 839,15.0749741 839,33.5196484 L839,309.480352 C838.822542,327.925026 823.916067,343 805.282974,343 Z" id="Path" fill="#FFFFFF" fill-rule="nonzero"></path>
            <rect id="Rectangle" fill="#FFD552" fill-rule="nonzero" x="391" y="68" width="380" height="208"></rect>
            <path d="M805.282974,343 L354.539568,343 C336.083933,343 321,327.925026 321,309.480352 L321,33.5196484 C321,15.0749741 336.083933,0 354.539568,0 L805.460432,0 C823.916067,0 839,15.0749741 839,33.5196484 L839,309.480352 C838.822542,327.925026 823.916067,343 805.282974,343 Z M354.600699,10.3590604 C341.827185,10.3590604 331.36,20.8181533 331.36,33.5817921 L331.36,309.418208 C331.36,322.181847 341.827185,332.64094 354.600699,332.64094 L805.399301,332.64094 C818.172815,332.64094 828.64,322.181847 828.64,309.418208 L828.64,33.5817921 C828.64,20.8181533 818.172815,10.3590604 805.399301,10.3590604 L354.600699,10.3590604 Z M798.711111,302.714765 L361.288889,302.714765 L361.288889,40.2852349 L798.711111,40.2852349 L798.711111,302.714765 Z M371.648889,292.355705 L788.351111,292.355705 L788.351111,50.6442953 L371.648889,50.6442953 L371.648889,292.355705 Z" id="Shape" fill="#4A555F" fill-rule="nonzero"></path>
            <path d="M749.645435,464 L416,464 L416,418.852103 L492.585987,418.852103 L515.100849,333 L650.899151,333 L673.414013,418.852103 L750,418.852103 L750,464 L749.645435,464 Z M426.365517,453.657895 L739.634483,453.657895 L739.634483,429.143275 L665.485883,429.143275 L642.95748,343.342105 L522.865131,343.342105 L500.514117,429.143275 L426.365517,429.143275 L426.365517,453.657895 Z" id="Shape" fill="#4A555F" fill-rule="nonzero"></path>
            <polygon id="Path" fill="#666288" fill-rule="nonzero" points="645 399 633.662857 356 532.337143 356 521 399"></polygon>
            <g id="API" transform="translate(438.000000, 66.000000)" fill="#FFFFFF" font-family="AvenirNext-Bold, Avenir Next" font-size="160" font-weight="bold">
                <g id="Group">
                    <text id="API">
                        <tspan x="0.54" y="160">API</tspan>
                    </text>
                </g>
            </g>
        </g>
    </g>
</svg>