<?xml version="1.0" encoding="UTF-8"?>
<svg width="361px" height="250px" viewBox="0 0 361 250" version="1.1" xmlns="http://www.w3.org/2000/svg" xmlns:xlink="http://www.w3.org/1999/xlink">
    <!-- Generator: Sketch 58 (84663) - https://sketch.com -->
    <title>api keys</title>
    <desc>Created with Sketch.</desc>
    <g id="Page-1" stroke="none" stroke-width="1" fill="none" fill-rule="evenodd">
        <g id="built-for-devs" transform="translate(-388.000000, -6307.000000)">
            <g id="api-keys" transform="translate(388.000000, 6307.000000)">
                <g id="API" fill-rule="nonzero">
                    <g id="Group">
                        <path d="M85.052,27.876 L86.394,24.554 C87.054,22.923 87.388,21.188 87.388,19.398 C87.388,16.936 86.743,14.527 85.522,12.43 L83.407,8.797 L235.964,8.797 C242.454,8.797 247.734,14.069 247.734,20.549 L247.734,27.876 L85.052,27.876 Z" id="Path" fill="#F68F6F"></path>
                        <path d="M18.076,27.876 L16.734,24.554 C16.074,22.923 15.74,21.188 15.74,19.398 C15.74,16.936 16.385,14.527 17.606,12.43 L19.72,8.797 L19.72,8.797 C13.23,8.797 8.849,14.069 8.849,20.549 L8.849,27.876 L18.076,27.876 Z" id="Path" fill="#F68F6F"></path>
                        <rect id="Rectangle" fill="#4A555F" x="3.358" y="32.618" width="249.278" height="3.358"></rect>
                        <path d="M29.028,28.47 C24.024,28.47 19.953,24.399 19.953,19.394 C19.953,14.389 24.024,10.318 29.028,10.318 C34.032,10.318 38.104,14.389 38.104,19.394 C38.104,24.399 34.032,28.47 29.028,28.47 Z M29.028,13.677 C25.876,13.677 23.311,16.242 23.311,19.394 C23.311,22.546 25.876,25.111 29.028,25.111 C32.181,25.111 34.745,22.546 34.745,19.394 C34.745,16.242 32.181,13.677 29.028,13.677 Z" id="Shape" fill="#4A555F"></path>
                        <path d="M51.218,28.47 C46.214,28.47 42.143,24.399 42.143,19.394 C42.143,14.39 46.214,10.319 51.218,10.319 C56.223,10.319 60.294,14.39 60.294,19.394 C60.294,24.399 56.222,28.47 51.218,28.47 Z M51.218,13.677 C48.066,13.677 45.501,16.242 45.501,19.394 C45.501,22.546 48.066,25.111 51.218,25.111 C54.371,25.111 56.935,22.546 56.935,19.394 C56.935,16.242 54.371,13.677 51.218,13.677 Z" id="Shape" fill="#4A555F"></path>
                        <path d="M73.408,28.47 C68.404,28.47 64.332,24.399 64.332,19.394 C64.332,14.39 68.404,10.319 73.408,10.319 C78.412,10.319 82.484,14.39 82.484,19.394 C82.483,24.399 78.412,28.47 73.408,28.47 Z M73.408,13.677 C70.255,13.677 67.691,16.242 67.691,19.394 C67.691,22.546 70.256,25.111 73.408,25.111 C76.56,25.111 79.125,22.546 79.125,19.394 C79.125,16.242 76.56,13.677 73.408,13.677 Z" id="Shape" fill="#4A555F"></path>
                        <path d="M235.973,249.456 L20.021,249.456 C8.982,249.456 0,240.48 0,229.447 L0,20.552 C0,17.215 0.835,13.917 2.416,11.013 C3.32,9.347 4.482,7.798 5.869,6.412 C6.718,5.55 7.711,4.724 8.811,3.968 C9.905,3.238 11.048,2.623 12.227,2.125 C14.709,1.075 17.331,0.543 20.021,0.543 L235.973,0.543 C238.663,0.543 241.285,1.076 243.768,2.126 C244.922,2.608 246.067,3.224 247.163,3.955 C248.282,4.724 249.275,5.549 250.134,6.421 C251.513,7.8 252.675,9.348 253.579,11.015 C255.159,13.917 255.994,17.216 255.994,20.552 L255.994,229.447 C255.994,240.48 247.013,249.456 235.973,249.456 Z M20.021,3.9 C17.783,3.9 15.601,4.344 13.535,5.218 C12.548,5.635 11.593,6.149 10.694,6.748 C9.789,7.37 8.961,8.057 8.253,8.777 C7.085,9.945 6.117,11.233 5.366,12.616 C4.052,15.031 3.358,17.774 3.358,20.552 L3.358,229.447 C3.358,238.628 10.833,246.098 20.021,246.098 L235.973,246.098 C245.161,246.098 252.636,238.628 252.636,229.447 L252.636,20.552 C252.636,17.774 251.942,15.031 250.629,12.618 C249.877,11.233 248.909,9.945 247.751,8.786 C247.033,8.057 246.204,7.37 245.28,6.735 C244.382,6.137 243.429,5.623 242.466,5.221 C240.393,4.344 238.21,3.9 235.972,3.9 L20.021,3.9 L20.021,3.9 Z" id="Shape" fill="#4A555F"></path>
                    </g>
                    <g id="Group" transform="translate(3.000000, 8.000000)">
                        <path d="M82.052,19.876 L83.394,16.554 C84.054,14.923 84.388,13.188 84.388,11.398 C84.388,8.936 83.743,6.527 82.522,4.43 L80.407,0.797 L232.964,0.797 C239.454,0.797 244.734,6.069 244.734,12.549 L244.734,19.876 L82.052,19.876 Z" id="Path" fill="#F68F6F"></path>
                        <path d="M15.076,19.876 L13.734,16.554 C13.074,14.923 12.74,13.188 12.74,11.398 C12.74,8.936 13.385,6.527 14.606,4.43 L16.72,0.797 L16.72,0.797 C10.23,0.797 5.849,6.069 5.849,12.549 L5.849,19.876 L15.076,19.876 Z" id="Path" fill="#F68F6F"></path>
                        <rect id="Rectangle" fill="#4A555F" x="0.358" y="24.618" width="249.278" height="3.358"></rect>
                        <path d="M26.028,20.47 C21.024,20.47 16.953,16.399 16.953,11.394 C16.953,6.389 21.024,2.318 26.028,2.318 C31.032,2.318 35.104,6.389 35.104,11.394 C35.104,16.399 31.032,20.47 26.028,20.47 Z M26.028,5.677 C22.876,5.677 20.311,8.242 20.311,11.394 C20.311,14.546 22.876,17.111 26.028,17.111 C29.181,17.111 31.745,14.546 31.745,11.394 C31.745,8.242 29.181,5.677 26.028,5.677 Z" id="Shape" fill="#4A555F"></path>
                        <path d="M48.218,20.47 C43.214,20.47 39.143,16.399 39.143,11.394 C39.143,6.39 43.214,2.319 48.218,2.319 C53.223,2.319 57.294,6.39 57.294,11.394 C57.294,16.399 53.222,20.47 48.218,20.47 Z M48.218,5.677 C45.066,5.677 42.501,8.242 42.501,11.394 C42.501,14.546 45.066,17.111 48.218,17.111 C51.371,17.111 53.935,14.546 53.935,11.394 C53.935,8.242 51.371,5.677 48.218,5.677 Z" id="Shape" fill="#4A555F"></path>
                        <path d="M70.408,20.47 C65.404,20.47 61.332,16.399 61.332,11.394 C61.332,6.39 65.404,2.319 70.408,2.319 C75.412,2.319 79.484,6.39 79.484,11.394 C79.483,16.399 75.412,20.47 70.408,20.47 Z M70.408,5.677 C67.255,5.677 64.691,8.242 64.691,11.394 C64.691,14.546 67.256,17.111 70.408,17.111 C73.56,17.111 76.125,14.546 76.125,11.394 C76.125,8.242 73.56,5.677 70.408,5.677 Z" id="Shape" fill="#4A555F"></path>
                    </g>
                    <rect id="Rectangle" fill="#4A555F" x="96.28" y="78.921" width="130.216" height="3.358"></rect>
                    <rect id="Rectangle" fill="#4A555F" x="31.731" y="110.656" width="133.84" height="3.358"></rect>
                    <rect id="Rectangle" fill="#4A555F" x="31.731" y="142.486" width="76.26" height="3.358"></rect>
                    <rect id="Rectangle" fill="#4A555F" x="31.731" y="175.992" width="65.057" height="3.358"></rect>
                    <rect id="Rectangle" fill="#4A555F" x="31.731" y="211.136" width="65.057" height="3.358"></rect>
                    <path d="M63.833,54.685 L54.36,54.685 L54.36,68.548 L54.36,71.334 L54.36,82.842 L57.718,82.842 L57.718,71.334 L63.832,71.334 C68.422,71.334 72.157,67.6 72.157,63.009 C72.157,58.418 68.423,54.685 63.833,54.685 Z M63.833,67.976 L57.719,67.976 L57.719,58.043 L63.833,58.043 C66.571,58.043 68.799,60.271 68.799,63.009 C68.799,65.748 66.571,67.976 63.833,67.976 Z" id="Shape" fill="#4A555F"></path>
                    <path d="M39.906,54.789 C35.09,54.789 31.172,58.707 31.172,63.523 L31.172,82.842 L34.53,82.842 L34.53,71.716 L45.28,71.716 L45.28,82.842 L48.6380002,82.842 L48.6380002,63.523 C48.639,58.707 44.721,54.789 39.906,54.789 Z M34.53,68.357 L34.53,63.522 C34.53,60.558 36.942,58.147 39.905,58.147 C42.869,58.147 45.28,60.559 45.28,63.522 L45.28,68.357 L34.53,68.357 Z" id="Shape" fill="#4A555F"></path>
                    <rect id="Rectangle" fill="#4A555F" x="79.175" y="55.731" width="3.358" height="27.11"></rect>
                </g>
                <rect id="Rectangle" fill="#FFFFFF" x="252" y="167" width="4" height="43"></rect>
                <g id="API-Keys" transform="translate(128.000000, 137.000000)" fill-rule="nonzero">
                    <path d="M143.3,-59.85 L91.5,-59.85 C82.5,-59.85 75.1,-52.45 75.1,-43.45 L75.1,-4.15 C75.1,0.55 77.1,4.95 80.6,8.05 L102,27.15 L103.8,28.75 L103.8,58.75 L101.7,60.35 L95.1,65.35 L101.4,69.55 L108,73.95 L101.5,78.45 L94.8,83.15 L101.8,88.75 L103.8,90.35 L103.8,127.25 L101.6,128.85 L90.1,137.35 L113.5,160.25 L130.9,142.55 L130.9,28.05 L132.9,26.45 L153.5,9.75 C157.4,6.65 159.6,1.95 159.6,-2.95 L159.6,-43.45 C159.6,-52.55 152.3,-59.85 143.3,-59.85 Z M117.4,-19.45 C109.9,-19.45 103.8,-25.55 103.8,-33.05 C103.8,-40.55 109.9,-46.65 117.4,-46.65 C124.9,-46.65 131,-40.55 131,-33.05 C131,-25.45 124.9,-19.45 117.4,-19.45 Z" id="Shape" fill="#71CDE1" transform="translate(117.350000, 50.200000) rotate(-90.000000) translate(-117.350000, -50.200000) "></path>
                    <path d="M106.75,166.1 L78.25,137.6 L95.55,124.8 L95.55,94.8 L81.85,83.8 L94.35,75.1 L81.75,66.8 L95.65,56.2 L95.65,32.8 L74.75,14.2 C69.75,9.8 66.95,3.4 66.95,-3.3 L66.95,-42.6 C66.95,-55.5 77.45,-66 90.35,-66 L142.15,-66 C155.05,-66 165.55,-55.5 165.55,-42.6 L165.55,-2.1 C165.55,5 162.35,11.6 156.85,16.1 L136.85,32.3 L136.85,146.3 L117.85,166 L115.55,163.8 L133.45,145 L133.45,30.8 L154.65,13.7 C159.45,9.9 162.15,4.1 162.15,-2 L162.15,-42.5 C162.15,-53.6 153.15,-62.7 141.95,-62.7 L90.25,-62.7 C79.15,-62.7 70.05,-53.7 70.05,-42.5 L70.05,-3.2 C70.05,2.5 72.55,8 76.85,11.9 L98.85,31.5 L98.85,57.9 L87.35,66.6 L100.05,75 L87.25,83.9 L98.85,93.2 L98.85,126.4 L83.25,138 L109.15,163.9 L106.75,166.1 Z" id="Path" fill="#4A555F" transform="translate(116.250000, 50.050000) rotate(-90.000000) translate(-116.250000, -50.050000) "></path>
                    <polygon id="Path" fill="#4A555F" transform="translate(162.600000, 54.250000) rotate(-90.000000) translate(-162.600000, -54.250000) " points="168.7 124.45 156.5 124.45 156.5 -15.95 159.7 -15.95 159.7 121.15 165.5 121.15 165.5 -15.95 168.7 -15.95"></polygon>
                    <path d="M34.1,65.25 C25.8,65.25 19,58.45 19,50.15 C19,41.85 25.8,35.05 34.1,35.05 C42.4,35.05 49.2,41.85 49.2,50.15 C49.2,58.45 42.4,65.25 34.1,65.25 Z M34.1,38.25 C27.5,38.25 22.2,43.55 22.2,50.15 C22.2,56.75 27.5,62.05 34.1,62.05 C40.7,62.05 46,56.75 46,50.15 C46,43.55 40.6,38.25 34.1,38.25 Z" id="Shape" fill="#4A555F" transform="translate(34.100000, 50.150000) rotate(-90.000000) translate(-34.100000, -50.150000) "></path>
                </g>
            </g>
        </g>
    </g>
</svg>