<?xml version="1.0" encoding="UTF-8"?>
<svg width="855px" height="583px" viewBox="0 0 855 583" version="1.1" xmlns="http://www.w3.org/2000/svg" xmlns:xlink="http://www.w3.org/1999/xlink">
    <!-- Generator: Sketch 58 (84663) - https://sketch.com -->
    <title>audit logs</title>
    <desc>Created with Sketch.</desc>
    <g id="Page-1" stroke="none" stroke-width="1" fill="none" fill-rule="evenodd">
        <g id="user-management" transform="translate(0.000000, -2699.000000)" fill-rule="nonzero">
            <g id="audit-logs" transform="translate(0.000000, 2699.000000)">
                <polygon id="Path-7" fill="#FFFFFF" points="10.7904266 497 845.029251 501.297116 849 537.822598 836.204664 560.823077 809.017326 578 774.205766 578 50.2794237 578 27.488421 568.486758 12.5038183 551.632957 5 530.805166 5 501.297116 5 497"></polygon>
                <rect id="Rectangle" fill="#FFFFFF" x="83" y="8" width="690" height="486" rx="20"></rect>
                <path d="M731.474347,0 L121.527446,0 C95.3212259,0 74,21.0375229 74,46.8950398 L74,454.103191 C74,479.962477 95.3212259,501 121.527446,501 L731.474347,501 C757.680569,501 779,479.962477 779,454.103191 L779,46.8950398 C779,21.0357548 757.678775,0 731.474347,0 Z M768.351931,454.103191 C768.351931,474.168228 751.806389,490.491848 731.474347,490.491848 L121.527446,490.491848 C101.19182,490.491848 84.6480689,474.168228 84.6480689,454.103191 L84.6480689,46.8950398 C84.6480689,26.8300029 101.193612,10.5063845 121.527446,10.5063845 L731.474347,10.5063845 C751.808182,10.5063845 768.351931,26.8300029 768.351931,46.8950398 L768.351931,454.103191 Z M129.050265,448.149808 L723.981993,448.149808 L723.981993,56.9806032 L129.050265,56.9806032 L129.050265,448.149808 Z M139.698334,67.4869875 L713.333924,67.4869875 L713.333924,437.643424 L139.698334,437.643424 L139.698334,67.4869875 Z" id="Shape" fill="#4A555F"></path>
                <path d="M729.687823,20 L123.313958,20 C109.908145,20 99,30.9085041 99,44.3187305 L99,454.681271 C99,468.089714 109.906364,479 123.313958,479 L729.687823,479 C743.091855,479 754,468.091496 754,454.681271 L754,44.3187305 C754,30.9102863 743.091855,20 729.687823,20 Z M734.592303,461.03536 L118.443328,461.03536 L118.443328,42.1306149 L734.592303,42.1306149 L734.592303,461.03536 L734.592303,461.03536 Z" id="Shape" fill="#71CDE1"></path>
                <path d="M0,492 L0,525.189615 C0,557.065797 26.5432536,583 59.1702326,583 L795.831559,583 C828.458537,583 855,557.065797 855,525.189615 L855,492 L0,492 Z M844.348999,525.189615 C844.348999,551.328715 822.584535,572.594096 795.831559,572.594096 L59.1702326,572.594096 C32.4172569,572.594096 10.6510003,551.328715 10.6510003,525.189615 L10.6510003,502.405904 L844.348999,502.405904 L844.348999,525.189615 Z" id="Shape" fill="#4A555F"></path>
                <path d="M481.716552,515 C479.836376,518.799427 477.35455,522.206367 474.374922,525.18856 C467.24638,532.325033 457.385318,536.724842 446.49643,536.724842 L385.242175,536.724842 C369.849822,536.724842 356.513126,527.921639 350.02205,515 L24,515 L24,525.898266 C24,545.813001 40.1730718,562 60.0366551,562 L795.929322,562 C815.826928,562 832,545.813001 832,525.898266 L832,515 L481.716552,515 Z" id="Path" fill="#71CDE1"></path>
                <path d="M412,56 L412,448 L725,448 L725,56 L412,56 Z M714.363775,437.470919 L422.634439,437.470919 L422.634439,66.5290793 L714.363775,66.5290793 L714.363775,437.470919 Z" id="Shape" fill="#4A555F"></path>
                <rect id="Rectangle" fill="#FFD452" x="149" y="75" width="253" height="349"></rect>
                <rect id="Rectangle" fill="#4A555F" x="207" y="176" width="24" height="11"></rect>
                <rect id="Rectangle" fill="#4A555F" x="255" y="176" width="122" height="11"></rect>
                <rect id="Rectangle" fill="#4A555F" x="207" y="208" width="24" height="11"></rect>
                <rect id="Rectangle" fill="#4A555F" x="254" y="208" width="71" height="11"></rect>
                <rect id="Rectangle" fill="#4A555F" x="207" y="233" width="24" height="11"></rect>
                <rect id="Rectangle" fill="#4A555F" x="255" y="233" width="122" height="11"></rect>
                <rect id="Rectangle" fill="#4A555F" x="176" y="294" width="24" height="11"></rect>
                <rect id="Rectangle" fill="#4A555F" x="223" y="294" width="122" height="11"></rect>
                <rect id="Rectangle" fill="#4A555F" x="176" y="328" width="24" height="11"></rect>
                <rect id="Rectangle" fill="#4A555F" x="224" y="328" width="153" height="11"></rect>
                <rect id="Rectangle" fill="#4A555F" x="176" y="360" width="24" height="11"></rect>
                <rect id="Rectangle" fill="#4A555F" x="223" y="360" width="122" height="11"></rect>
                <rect id="Rectangle" fill="#4A555F" x="263" y="266" width="24" height="11"></rect>
                <rect id="Rectangle" fill="#4A555F" x="306" y="266" width="71" height="11"></rect>
                <rect id="Rectangle" fill="#4A555F" x="263" y="388" width="24" height="11"></rect>
                <rect id="Rectangle" fill="#4A555F" x="306" y="388" width="71" height="11"></rect>
                <g id="Group-9" transform="translate(447.000000, 97.000000)" fill="#4A555F">
                    <rect id="Rectangle" x="0" y="0" width="27.2843137" height="13.6640625"></rect>
                    <rect id="Rectangle" x="58.2892157" y="0" width="68.2107843" height="13.6640625"></rect>
                    <rect id="Rectangle" x="0" y="43.4765625" width="27.2843137" height="12.421875"></rect>
                    <rect id="Rectangle" x="58.2892157" y="43.4765625" width="194.710784" height="12.421875"></rect>
                    <rect id="Rectangle" x="0" y="88.1953125" width="27.2843137" height="12.421875"></rect>
                    <rect id="Rectangle" x="58.2892157" y="88.1953125" width="194.710784" height="12.421875"></rect>
                    <rect id="Rectangle" x="0" y="130.429687" width="27.2843137" height="13.6640625"></rect>
                    <rect id="Rectangle" x="58.2892157" y="130.429687" width="76.8921569" height="13.6640625"></rect>
                    <rect id="Rectangle" x="0" y="172.664062" width="27.2843137" height="13.6640625"></rect>
                    <rect id="Rectangle" x="58.2892157" y="172.664062" width="194.710784" height="13.6640625"></rect>
                    <rect id="Rectangle" x="0" y="217.382812" width="27.2843137" height="12.421875"></rect>
                    <rect id="Rectangle" x="58.2892157" y="217.382812" width="76.8921569" height="12.421875"></rect>
                    <rect id="Rectangle" x="0" y="259.617187" width="27.2843137" height="13.6640625"></rect>
                    <rect id="Rectangle" x="58.2892157" y="259.617187" width="37.2058824" height="13.6640625"></rect>
                    <rect id="Rectangle" x="0" y="304.335937" width="27.2843137" height="13.6640625"></rect>
                    <rect id="Rectangle" x="58.2892157" y="304.335937" width="145.102941" height="13.6640625"></rect>
                    <rect id="Rectangle" x="153.784314" y="0" width="57.0490196" height="13.6640625"></rect>
                    <rect id="Rectangle" x="164.946078" y="130.429687" width="88.0539216" height="13.6640625"></rect>
                    <rect id="Rectangle" x="125.259804" y="260.859375" width="85.5735294" height="13.6640625"></rect>
                </g>
                <polygon id="Path" fill="#4A555F" points="193.65745 129.994614 211.286489 113.610413 203.384732 106 177 130.518851 204.650455 153 212 144.908438"></polygon>
                <polygon id="Path" fill="#4A555F" points="259.613837 106 251.709754 113.610413 269.341647 129.994614 251 144.908438 258.348044 153 286 130.518851"></polygon>
                <polygon id="Rectangle" fill="#4A555F" transform="translate(231.218676, 128.244172) rotate(-62.986534) translate(-231.218676, -128.244172) " points="209.408618 122.875715 253.001084 122.989614 253.028735 133.612628 209.436269 133.498729"></polygon>
                <path d="M341,494 L341,499.418431 C341,524.553675 360.974345,545 385.525406,545 L446.474596,545 C471.027436,545 491,524.551854 491,499.418431 L491,494 L341,494 Z M446.474596,534.16314 L385.525406,534.16314 C368.609919,534.16314 354.546639,521.429553 351.997291,504.836862 L480.000926,504.836862 C477.453361,521.431376 463.386519,534.16314 446.474596,534.16314 Z" id="Shape" fill="#4A555F"></path>
            </g>
        </g>
    </g>
</svg>