<?xml version="1.0" encoding="UTF-8"?>
<svg width="799px" height="478px" viewBox="0 0 799 478" version="1.1" xmlns="http://www.w3.org/2000/svg" xmlns:xlink="http://www.w3.org/1999/xlink">
    <!-- Generator: Sketch 58 (84663) - https://sketch.com -->
    <title>Auth anywhere</title>
    <desc>Created with Sketch.</desc>
    <g id="Page-1" stroke="none" stroke-width="1" fill="none" fill-rule="evenodd">
        <g id="Auth-options" transform="translate(-166.000000, -304.000000)">
            <g id="Auth-anywhere" transform="translate(166.000000, 304.000000)">
                <g id="web" transform="translate(0.000000, 9.000000)" fill-rule="nonzero">
                    <path d="M232.889961,8.92996109 L18.1339735,8.92996109 C12.506808,8.92996109 7.9375,13.4878654 7.9375,19.0862631 L7.9375,188.300129 C7.9375,193.885181 12.5063112,198.44358 18.1339735,198.44358 L232.889464,198.44358 C238.516629,198.44358 243.085938,193.885181 243.085938,188.300129 L243.085938,19.0862631 C243.085938,13.4883597 238.517126,8.92996109 232.889961,8.92996109 Z M237.859257,174.407444 L214.200815,174.407444 L218.447151,178.631697 C219.492587,179.684549 219.492587,181.379489 218.447151,182.419489 L214.123302,186.720853 L209.799453,191.009366 C208.754017,192.062217 207.050216,192.062217 206.00478,191.009366 L194.066246,179.132915 C192.737092,177.810672 190.491195,178.221432 189.716559,179.929226 L186.799873,186.349143 C185.806113,188.544805 182.631051,188.416289 181.817658,186.156367 L177.584241,174.408432 L13.165174,174.408432 L13.165174,16.338471 L237.859257,16.338471 L237.859257,174.407444 L237.859257,174.407444 Z" id="Shape-Copy" fill="#71CDE1"></path>
                    <path d="M164.741303,239.124514 L90.2508845,239.124514 C89.5995323,239.124514 88.9926359,238.792214 88.631495,238.238891 C88.2703542,237.685568 88.2044198,236.984217 88.4541714,236.370662 L100.997197,205.620424 C101.299896,204.879258 102.008192,204.396887 102.79391,204.396887 L152.197278,204.396887 C152.982997,204.396887 153.691292,204.879768 153.993991,205.620424 L166.538016,236.370662 C166.787768,236.984217 166.721833,237.685568 166.360692,238.238891 C165.999052,238.792214 165.392156,239.124514 164.741303,239.124514 Z M93.1699815,235.147126 L161.821707,235.147126 L150.899569,208.374787 L104.09112,208.374787 L93.1699815,235.147126 Z" id="Shape-Copy-2" fill="#4A555F"></path>
                    <polygon id="Path-Copy" fill="#D2D2D2" points="102.195312 229.202335 108.413264 213.326848 146.578923 213.326848 152.796875 229.202335"></polygon>
                    <path d="M199.470913,255 L58.4978366,255 C57.4250148,255 56.5546875,254.115788 56.5546875,253.025849 L56.5546875,237.129791 C56.5546875,236.039348 57.4250148,235.155642 58.4978366,235.155642 L199.470913,235.155642 C200.543735,235.155642 201.414062,236.039854 201.414062,237.129791 L201.414062,253.025849 C201.414062,254.115788 200.543735,255 199.470913,255 Z M60.4409858,251.051194 L197.527265,251.051194 L197.527265,239.10394 L60.4409858,239.10394 L60.4409858,251.051194 Z" id="Shape-Copy-3" fill="#4A555F"></path>
                    <rect id="Rectangle-Copy-18" fill="#4A555F" x="9.921875" y="251.031128" width="239.117187" height="3.9688716"></rect>
                    <ellipse id="Oval-Copy" fill="#FFFFFF" cx="129.480469" cy="187.033074" rx="9.42578125" ry="9.42607004"></ellipse>
                    <path d="M128.488281,198.44358 C122.196901,198.44358 117.078125,193.324647 117.078125,187.033074 C117.078125,180.741501 122.196901,175.622568 128.488281,175.622568 C134.779662,175.622568 139.898437,180.741501 139.898437,187.033074 C139.897938,193.324647 134.779662,198.44358 128.488281,198.44358 Z M128.488281,179.518375 C124.344677,179.518375 120.973313,182.889343 120.973313,187.033573 C120.973313,191.177304 124.344677,194.548772 128.488281,194.548772 C132.631885,194.548772 136.00325,191.177805 136.00325,187.033573 C136.00325,182.889343 132.631885,179.518375 128.488281,179.518375 Z" id="Shape-Copy-7" fill="#4A555F"></path>
                    <path d="M234.577642,208.365759 L19.4223581,208.365759 C13.6124765,208.365759 8.15205394,205.801273 4.440918,201.330026 C4.00384525,200.802655 3.63546958,200.312955 3.31338978,199.832672 C2.93456021,199.267632 2.61646284,198.744723 2.3411767,198.2347 C2.06190812,197.732608 1.78413296,197.161621 1.52527438,196.555443 C1.28931483,196.001307 1.07077846,195.402067 0.87613672,194.774576 C0.590894481,193.866548 0.372358106,192.919859 0.228492474,191.966727 C0.0781553779,191.050767 0,190.053522 0,189.028026 L0,19.3506212 C0,8.68079143 8.71308012,0 19.4223581,0 L234.577144,0 C245.28692,0 254,8.68079143 254,19.3506212 L254,189.027529 C254,199.69042 245.28692,208.365759 234.577642,208.365759 Z M19.4223581,3.86209471 C10.852148,3.86209471 3.87889621,10.8105939 3.87889621,19.3511168 L3.87889621,189.028026 C3.87889621,189.845845 3.93962841,190.633432 4.06059501,191.368974 C4.18056601,192.161517 4.34832628,192.892598 4.57980558,193.627646 C4.73760975,194.136677 4.91084588,194.612004 5.09652712,195.045696 C5.30361399,195.53044 5.52215036,195.981481 5.7466604,196.385435 C5.9980519,196.851344 6.26338194,197.275619 6.53966369,197.68899 C6.81494983,198.098893 7.113135,198.485002 7.43222797,198.871608 C10.4021323,202.450192 14.7738554,204.503665 19.4223581,204.503665 L234.577144,204.503665 C243.147354,204.503665 250.120606,197.561609 250.120606,189.028026 L250.120606,19.3506212 C250.120606,10.8105939 243.147354,3.86209471 234.577144,3.86209471 L19.4223581,3.86209471 L19.4223581,3.86209471 Z" id="Shape-Copy-8" fill="#4A555F"></path>
                    <path d="M209.912188,194.474708 C208.665474,194.474708 207.497179,193.985767 206.620584,193.098781 L194.62696,181.10648 C194.383711,180.863757 194.105997,180.872247 193.960647,180.898217 C193.814798,180.924687 193.547573,181.017082 193.404221,181.335718 L190.472247,187.822807 C189.691552,189.557325 187.990308,190.631099 186.050309,190.556684 C184.145775,190.481769 182.499973,189.275148 181.857636,187.483196 L165.976522,143.151835 C165.79421,142.670385 165.695312,142.124509 165.695312,141.564149 C165.695312,140.070854 166.436548,138.65647 167.676768,137.780471 C168.92498,136.899477 170.469386,136.688218 171.911398,137.200633 L216.251147,153.081992 C218.046294,153.720762 219.258044,155.365883 219.334965,157.271706 C219.412385,159.176031 218.338992,160.912547 216.600786,161.695652 L210.115977,164.626804 C209.797806,164.77014 209.705401,165.035836 209.678928,165.181171 C209.650957,165.329501 209.641966,165.615675 209.893207,165.868885 L221.88833,177.849699 C221.890827,177.852697 221.894823,177.855194 221.897321,177.858689 C223.693967,179.67861 223.689971,182.625744 221.88833,184.428186 L213.193801,193.109768 C212.326197,193.985767 211.157902,194.474708 209.912188,194.474708 Z M194.094509,176.994176 C195.31475,176.994176 196.499527,177.476127 197.37862,178.354623 L209.379737,190.354914 C209.577533,190.554187 209.796807,190.582655 209.911688,190.582655 C210.025571,190.582655 210.244844,190.554187 210.435148,190.362906 L219.13567,181.675828 C219.428368,181.382664 219.425871,180.898217 219.129177,180.595063 L207.135553,168.615248 C206.049673,167.5195 205.572166,165.973765 205.850878,164.47198 C206.128592,162.974691 207.124064,161.70614 208.513131,161.079357 L214.998939,158.147705 C215.407018,157.964415 215.453969,157.61881 215.445978,157.429026 C215.438485,157.238743 215.362564,156.896634 214.941498,156.746805 L170.602749,140.866446 C170.30106,140.759568 170.065303,140.857456 169.920952,140.959339 C169.711668,141.107171 169.586298,141.333412 169.586298,141.564149 C169.586298,141.656044 169.598785,141.731458 169.629253,141.809368 L185.520356,186.170194 C185.668703,186.585721 186.011849,186.660634 186.202153,186.667627 C186.386962,186.677116 186.739598,186.628172 186.92191,186.223134 L189.854884,179.734047 C190.484734,178.340639 191.756921,177.344276 193.259371,177.07009 C193.538583,177.019148 193.818294,176.994176 194.094509,176.994176 Z" id="Shape-Copy-9" fill="#FFFFFF"></path>
                    <path d="M199.643608,175.205948 C197.905167,173.466979 195.596252,172.508894 193.143219,172.508894 C190.212789,172.508894 187.492033,173.908479 185.773608,176.193066 L175.617188,147.840467 L203.962189,157.996965 C202.138176,159.369519 200.865621,161.390307 200.440769,163.682902 C199.890813,166.652765 200.833595,169.708724 202.961359,171.857658 L212.328125,181.21475 L208.986354,184.552529 L199.643608,175.205948 Z" id="Path-Copy-2" fill="#F58E6F"></path>
                    <path d="M232.227085,169.669261 L208.624026,169.669261 C208.111529,169.669261 207.620325,169.465125 207.258854,169.102437 L206.835488,168.677815 C205.761474,167.593219 205.288095,166.059722 205.564398,164.570322 C205.83971,163.084886 206.826575,161.826379 208.20363,161.204558 L214.633356,158.296116 C215.037906,158.114277 215.084451,157.771409 215.076529,157.583127 C215.069101,157.394351 214.993836,157.054951 214.576412,156.906308 L170.621056,141.151675 C170.236808,141.013932 169.966447,141.205186 169.839685,141.332523 C169.713913,141.458374 169.52575,141.726922 169.664891,142.113888 L178.605602,167.087833 C178.818028,167.679431 178.728898,168.336432 178.366932,168.850241 C178.004966,169.363553 177.417204,169.669261 176.789334,169.669261 L22.7651027,169.669261 C21.7000015,169.669261 20.8359375,168.804656 20.8359375,167.738889 L20.8359375,23.7591663 C20.8359375,22.692903 21.7000015,21.8287938 22.7651027,21.8287938 L232.227085,21.8287938 C233.292186,21.8287938 234.15625,22.6933986 234.15625,23.7591663 L234.15625,167.738889 C234.15625,168.805151 233.292186,169.669261 232.227085,169.669261 Z M209.454419,165.80802 L230.297919,165.80802 L230.297919,25.6895387 L24.6942679,25.6895387 L24.6942679,165.80802 L174.049583,165.80802 L166.035823,143.421448 C165.425284,141.731876 165.834786,139.884744 167.107361,138.607408 C168.379937,137.32809 170.2274,136.908918 171.921856,137.516371 L215.874736,153.270014 C217.654361,153.903727 218.855633,155.535823 218.931888,157.426557 C219.008639,159.315805 217.944528,161.038574 216.221352,161.815479 L209.792617,164.723425 C209.477196,164.865626 209.385591,165.129219 209.359347,165.273402 C209.336569,165.392316 209.326171,165.600416 209.454419,165.80802 Z" id="Shape-Copy-10" fill="#4A555F"></path>
                    <path d="M232.227076,169.669261 L208.625393,169.669261 C208.11438,169.669261 207.624164,169.466116 207.262691,169.104913 L206.838332,168.680787 C205.761837,167.593219 205.289447,166.05873 205.565751,164.569332 C205.841064,163.083896 206.827934,161.825884 208.204995,161.204558 L214.63376,158.296612 C215.038313,158.114277 215.085849,157.771904 215.078421,157.583623 C215.070994,157.394351 214.995728,157.055446 214.577311,156.906803 L170.623237,141.151179 C170.235026,141.012941 169.968625,141.206672 169.841862,141.332523 C169.71609,141.458374 169.52644,141.727417 169.667068,142.114383 L178.60782,167.087833 C178.820247,167.679431 178.731116,168.336432 178.369149,168.850239 C178.007181,169.363551 177.419417,169.669261 176.791544,169.669261 L22.7651116,169.669261 C21.7000055,169.669261 20.8359375,168.804656 20.8359375,167.738889 L20.8359375,23.7591661 C20.8359375,22.692903 21.7000055,21.8287938 22.7651116,21.8287938 L232.227076,21.8287938 C233.292182,21.8287938 234.15625,22.6933984 234.15625,23.7591661 L234.15625,167.738889 C234.15625,168.804656 233.292182,169.669261 232.227076,169.669261 Z M209.455294,165.80802 L230.297407,165.80802 L230.297407,25.6895387 L24.6942858,25.6895387 L24.6942858,165.80802 L174.050294,165.80802 L166.035011,143.421447 C165.424469,141.731381 165.835459,139.884743 167.107545,138.606912 C168.381117,137.327594 170.226608,136.908918 171.922063,137.515875 L215.872175,153.269518 C217.653294,153.903726 218.855562,155.535823 218.931818,157.426061 C219.008569,159.315309 217.944453,161.038077 216.221269,161.814984 L209.791513,164.722928 C209.477577,164.864634 209.385971,165.128228 209.359232,165.272906 C209.337444,165.392316 209.327541,165.600416 209.455294,165.80802 Z" id="Shape-Copy-11" fill="#71CDE1"></path>
                    <path d="M42.555734,158.754864 L38.6953125,158.754864 L38.6953125,50.2162113 C38.6953125,42.7701237 44.7333823,36.7120623 52.1545262,36.7120623 L199.861099,36.7120623 C207.282738,36.7120623 213.320312,42.7701237 213.320312,50.2162113 L213.320312,145.509912 L209.459891,145.509912 L209.459891,50.2162113 C209.459891,44.9078828 205.153636,40.5890823 199.860603,40.5890823 L52.1550215,40.5890823 C46.8619889,40.5890823 42.555734,44.9078828 42.555734,50.2162113 L42.555734,158.754864 Z" id="Path-Copy-3" fill="#747373"></path>
                    <path d="M47.625,68.463035 L47.625,156.770428 L163.694496,156.770428 L159.408285,143.754746 C157.061813,136.629658 163.800729,129.865209 170.866214,132.252953 L204.390625,143.581857 L204.390625,68.463035 L47.625,68.463035 Z" id="Path-Copy-4" fill="#FFD452"></path>
                    <rect id="Rectangle-Copy-19" fill="#747373" x="41.671875" y="60.5252918" width="170.65625" height="3.9688716"></rect>
                    <ellipse id="Oval-Copy-2" fill="#F58E6F" cx="60.0273437" cy="50.1070039" rx="4.46484375" ry="4.46498054"></ellipse>
                    <ellipse id="Oval-Copy-3" fill="#F58E6F" cx="75.9023437" cy="50.1070039" rx="4.46484375" ry="4.46498054"></ellipse>
                    <ellipse id="Oval-Copy-4" fill="#F58E6F" cx="91.7773437" cy="50.1070039" rx="4.46484375" ry="4.46498054"></ellipse>
                    <path d="M76.3579795,120.057856 C76.3504608,120.057856 76.3439445,120.057856 76.3364258,120.057856 C75.5975841,120.0497 74.9274136,119.618456 74.6036064,118.944064 L65.484375,99.9739181 L68.9936225,98.229572 L76.4066007,113.649856 L81.1123306,104.384738 C81.4481678,103.724619 82.1183383,103.310197 82.8481575,103.310197 L82.8481575,103.310197 C83.5794805,103.310197 84.2481472,103.725129 84.5839844,104.385248 L89.2887118,113.649856 L96.70169,98.2300817 L100.210938,99.9744278 L91.0917061,118.944574 C90.7673977,119.619476 90.0972272,120.05021 89.3588867,120.058366 C88.591975,120.038486 87.9398495,119.65108 87.6015061,118.983314 L82.8486587,109.624403 L78.0943076,118.983824 C77.7579692,119.643943 77.0877987,120.057856 76.3579795,120.057856 Z" id="Path-Copy-5" fill="#4A555F"></path>
                    <path d="M129.024833,120.058366 C128.295014,120.058366 127.624843,119.644453 127.289006,118.983314 L122.536159,109.624403 L117.783311,118.983314 C117.443965,119.65108 116.766276,120.043583 116.025931,120.058366 C115.288593,120.05021 114.616919,119.618966 114.29261,118.944574 L105.171875,99.9744278 L108.681122,98.229572 L116.095103,113.649856 L120.799831,104.385248 C121.135668,103.725129 121.804335,103.310196 122.535657,103.310196 C123.26698,103.310196 123.935647,103.725129 124.271484,104.385248 L128.976212,113.649856 L136.38919,98.2300817 L139.898437,99.9744278 L130.779206,118.944574 C130.454898,119.619476 129.784727,120.05021 129.045885,120.058366 C129.038367,120.058366 129.032352,120.058366 129.024833,120.058366 Z" id="Path-Copy-6" fill="#4A555F"></path>
                    <path d="M169.703204,120.058366 C168.973364,120.058366 168.303174,119.644443 167.967327,118.983289 L163.214342,109.624159 L158.461358,118.983289 C158.122002,119.65107 157.47086,120.043583 156.703927,120.058366 C155.965064,120.05021 155.294874,119.618956 154.971057,118.944548 L145.851562,99.9739588 L149.360911,98.229572 L156.774104,113.649707 L161.478967,104.384882 C161.814814,103.724747 162.4835,103.309805 163.214844,103.309805 C163.946188,103.309805 164.614874,103.724747 164.950721,104.384882 L169.655584,113.649707 L177.068776,98.229572 L180.578125,99.9739588 L171.45863,118.944548 C171.134313,119.619465 170.464123,120.05021 169.725761,120.058366 C169.717239,120.058366 169.711224,120.058366 169.703204,120.058366 Z" id="Path-Copy-7" fill="#4A555F"></path>
                    <rect id="Rectangle-Copy-21" fill="#4A555F" x="182.5625" y="113.11284" width="3.96875" height="3.9688716"></rect>
                </g>
                <g id="mobil" transform="translate(269.000000, 247.000000)">
                    <g id="Group-14">
                        <path d="M106.671918,3.7658765e-13 L24.9355707,3.7658765e-13 C14.1922719,3.7658765e-13 5.45165272,8.71262406 5.45165272,19.4215135 L5.45165272,211.467944 C5.45165272,222.176833 14.1922719,230.889457 24.9355707,230.889457 L106.671918,230.889457 C117.415217,230.889457 126.155317,222.17735 126.155317,211.467944 L126.155317,19.4215135 C126.155317,8.71262406 117.415217,3.7658765e-13 106.671918,3.7658765e-13 Z M122.915184,211.467944 C122.915184,220.395989 115.62865,227.659702 106.671918,227.659702 L24.9355707,227.659702 C15.9788389,227.659702 8.69178595,220.395989 8.69178595,211.467944 L8.69178595,19.4215135 C8.69178595,10.4934689 15.9788389,3.22975551 24.9355707,3.22975551 L106.671918,3.22975551 C115.62865,3.22975551 122.915184,10.4934689 122.915184,19.4215135 L122.915184,211.467944 Z" id="Shape" fill="#4A555F" fill-rule="nonzero"></path>
                        <path d="M105.936823,5.6087032 L93.5331964,5.6087032 C90.5294366,5.6087032 87.755816,7.23471445 86.2954962,9.85238546 L83.6408416,14.6180484 C82.7504154,16.2062575 81.0615148,17.1932567 79.2333877,17.1932567 L52.372543,17.1932567 C50.5449353,17.1932567 48.8560347,16.2062575 47.9676866,14.6221911 L45.3109539,9.85186762 C43.8501147,7.23471445 41.0770137,5.6087032 38.0732538,5.6087032 L25.6696268,5.6087032 C18.123862,5.6087032 11.9854279,11.5400194 11.9854279,18.8296247 L11.9854279,180.268723 C11.9854279,187.558328 18.123862,193.489126 25.6696268,193.489126 L105.947733,193.489126 C113.487264,193.489126 119.621542,187.562988 119.621542,180.27908 L119.621542,18.8291069 C119.621542,11.5395016 113.482588,5.6087032 105.936823,5.6087032 Z M116.380889,180.27908 C116.380889,185.782144 111.700697,190.258853 105.947213,190.258853 L25.6696268,190.258853 C19.9109485,190.258853 15.225561,185.776965 15.225561,180.268205 L15.225561,18.8291069 C15.225561,13.3203464 19.9104291,8.83845869 25.6696268,8.83845869 L38.0732538,8.83845869 C39.9019004,8.83845869 41.589762,9.82804708 42.4781101,11.4203989 L45.1369208,16.1938294 C46.5998381,18.8021794 49.3724197,20.4224943 52.372543,20.4224943 L79.2333877,20.4224943 C82.2340306,20.4224943 85.006612,18.8021794 86.4716074,16.1896866 L89.1278204,11.4214346 C90.0166882,9.82856491 91.7045497,8.83845869 93.5326769,8.83845869 L105.936304,8.83845869 C111.694982,8.83845869 116.380889,13.3208643 116.380889,18.8296247 L116.380889,180.27908 L116.380889,180.27908 Z" id="Shape" fill="#4A555F" fill-rule="nonzero"></path>
                        <path d="M105.948252,197.257434 L25.6701464,197.257434 C20.4049949,197.257434 15.6764887,194.978947 12.4716816,191.382562 L12.4716816,211.468461 C12.4716816,218.31894 18.0625609,223.89243 24.9355707,223.89243 L106.671918,223.89243 C113.544409,223.89243 119.135808,218.319457 119.135808,211.468461 L119.135808,191.389294 C115.933598,194.981536 111.208209,197.257434 105.948252,197.257434 Z" id="Path" fill="#FFD351" fill-rule="nonzero"></path>
                        <path d="M47.9739205,6.99754466 C48.2035405,7.32688962 48.4175752,7.66814484 48.614986,8.0233817 L51.2639259,12.7786879 C51.4841947,13.1712091 51.9195373,13.4249497 52.372543,13.4249497 L79.2333877,13.4249497 C79.6863934,13.4249497 80.121736,13.1717269 80.3342122,12.7931874 L82.9925033,8.02131036 C83.189914,7.66762701 83.4034293,7.32637178 83.6320102,6.99858033 L47.9739205,6.99858033 L47.9739205,6.99754466 Z" id="Path" fill="#FFD351" fill-rule="nonzero"></path>
                        <path d="M77.8868389,202.845942 L53.6853242,202.845942 C49.6929522,202.845942 46.4559361,206.072072 46.4559361,210.052174 L46.4559361,210.269667 C46.4559361,214.249251 49.6924328,217.4759 53.6853242,217.4759 L77.8868389,217.4759 C81.8792108,217.4759 85.1162269,214.249769 85.1162269,210.269667 L85.1162269,210.052174 C85.1162269,206.072589 81.8797302,202.845942 77.8868389,202.845942 Z" id="Path" fill="#F58E70" fill-rule="nonzero"></path>
                        <path d="M77.8868389,201.231323 L53.6853242,201.231323 C48.8056431,201.231323 44.8361292,205.18864 44.8361292,210.052174 L44.8361292,210.269667 C44.8361292,215.133719 48.8056431,219.091037 53.6853242,219.091037 L77.8868389,219.091037 C82.7665199,219.091037 86.7360338,215.134236 86.7360338,210.269667 L86.7360338,210.052174 C86.7360338,205.188123 82.7665199,201.231323 77.8868389,201.231323 Z M83.4959006,210.269667 C83.4959006,213.352874 80.979953,215.861281 77.8868389,215.861281 L53.6853242,215.861281 C50.59221,215.861281 48.0762624,213.352874 48.0762624,210.269667 L48.0762624,210.052174 C48.0762624,206.969486 50.59221,204.461078 53.6853242,204.461078 L77.8868389,204.461078 C80.979953,204.461078 83.4959006,206.969486 83.4959006,210.052174 L83.4959006,210.269667 Z" id="Shape" fill="#4B555F" fill-rule="nonzero"></path>
                        <path d="M31.6890951,202.502096 C27.4520378,202.502096 24.0051429,205.937951 24.0051429,210.160921 C24.0051429,214.38389 27.4520378,217.819745 31.6890951,217.819745 C35.925633,217.819745 39.3725279,214.38389 39.3725279,210.160921 C39.3725279,205.937951 35.9251135,202.502096 31.6890951,202.502096 Z M31.6890951,214.589988 C29.2391243,214.589988 27.2452761,212.603044 27.2452761,210.160921 C27.2452761,207.718797 29.2386048,205.731853 31.6890951,205.731853 C34.1395855,205.731853 36.1323947,207.718797 36.1323947,210.160921 C36.1318752,212.603044 34.139066,214.589988 31.6890951,214.589988 Z" id="Shape" fill="#4B555F" fill-rule="nonzero"></path>
                        <path d="M100.493483,202.502096 C96.2564253,202.502096 92.8095303,205.937951 92.8095303,210.160921 C92.8095303,214.38389 96.2564253,217.819745 100.493483,217.819745 C104.73002,217.819745 108.176915,214.38389 108.176915,210.160921 C108.176915,205.937951 104.73002,202.502096 100.493483,202.502096 Z M100.493483,214.589988 C98.0435118,214.589988 96.0496635,212.603044 96.0496635,210.160921 C96.0496635,207.718797 98.0429922,205.731853 100.493483,205.731853 C102.943973,205.731853 104.936782,207.718797 104.936782,210.160921 C104.936782,212.603044 102.943973,214.589988 100.493483,214.589988 Z" id="Shape" fill="#4B555F" fill-rule="nonzero"></path>
                        <path d="M4.34615272,43.8375744 C1.94969055,43.8375744 -2.84217094e-14,45.7805025 -2.84217094e-14,48.1692892 L-2.84217094e-14,57.5235145 C-2.84217094e-14,59.912301 1.94969055,61.8552291 4.34615272,61.8552291 C6.7426149,61.8552291 8.69178595,59.9117833 8.69178595,57.5235145 L8.69178595,48.1692892 C8.69126644,45.7805025 6.74209539,43.8375744 4.34615272,43.8375744 Z M5.45113322,57.5235145 C5.45113322,58.1309384 4.95552843,58.6254738 4.34563322,58.6254738 C3.73573802,58.6254738 3.23961372,58.1309384 3.23961372,57.5235145 L3.23961372,48.1692892 C3.23961372,47.5618652 3.73573802,47.06733 4.34563322,47.06733 C4.95552843,47.06733 5.45113322,47.5618652 5.45113322,48.1692892 L5.45113322,57.5235145 Z" id="Shape" fill="#4A555F" fill-rule="nonzero"></path>
                        <path d="M4.34615272,66.4256672 C1.94969055,66.4256672 -2.84217094e-14,68.3691132 -2.84217094e-14,70.757382 L-2.84217094e-14,80.1116073 C-2.84217094e-14,82.500394 1.94969055,84.4433221 4.34615272,84.4433221 C6.7426149,84.4433221 8.69178595,82.4998761 8.69178595,80.1116073 L8.69178595,70.757382 C8.69126644,68.3691132 6.74209539,66.4256672 4.34615272,66.4256672 Z M5.45113322,80.1116073 C5.45113322,80.7190312 4.95552843,81.2135665 4.34563322,81.2135665 C3.73573802,81.2135665 3.23961372,80.7190312 3.23961372,80.1116073 L3.23961372,70.757382 C3.23961372,70.1494402 3.73573802,69.6554227 4.34563322,69.6554227 C4.95552843,69.6554227 5.45113322,70.149958 5.45113322,70.757382 L5.45113322,80.1116073 Z" id="Shape" fill="#4A555F" fill-rule="nonzero"></path>
                        <path d="M127.261336,127.793611 C124.864874,127.793611 122.915184,129.736539 122.915184,132.125326 L122.915184,158.78 C122.915184,161.168268 124.864874,163.111715 127.261336,163.111715 C129.657799,163.111715 131.60697,161.168268 131.60697,158.78 L131.60697,132.125326 C131.60645,129.736539 129.657799,127.793611 127.261336,127.793611 Z M128.366317,158.78 C128.366317,159.387424 127.870712,159.881959 127.260817,159.881959 C126.650922,159.881959 126.154797,159.387424 126.154797,158.78 L126.154797,132.125326 C126.154797,131.517902 126.650922,131.023366 127.260817,131.023366 C127.870193,131.023366 128.366317,131.517902 128.366317,132.125326 L128.366317,158.78 Z" id="Shape" fill="#4A555F" fill-rule="nonzero"></path>
                        <path d="M21.6730412,61.5013975 L21.6730412,173.370234 C21.6730412,175.826649 23.6644158,177.817967 26.1209009,177.817967 L105.1406,177.817967 C107.597085,177.817967 109.58846,175.826649 109.58846,173.370234 L109.58846,61.5013975 C109.58846,59.0449821 107.597085,57.0536639 105.1406,57.0536639 L26.1209009,57.0536639 C23.6644158,57.0536639 21.6730412,59.0449821 21.6730412,61.5013975 Z" id="Path" stroke="#4A555F" stroke-width="2.38"></path>
                        <path d="M19.2485836,27.883504 L19.2485836,47.7690004 L94.7966249,47.7690004 L94.7966249,27.883504 L19.2485836,27.883504 Z M91.5570113,44.5392449 L22.4892363,44.5392449 L22.4892363,31.1137773 L91.5570113,31.1137773 L91.5570113,44.5392449 Z" id="Shape" fill="#4A555F" fill-rule="nonzero"></path>
                        <rect id="Rectangle" fill="#F58E70" fill-rule="nonzero" x="26.2691321" y="34.8815665" width="61.507464" height="5.88937138"></rect>
                        <path d="M91.5570113,27.883504 L91.5570113,47.7690004 L112.358386,47.7690004 L112.358386,27.883504 L91.5570113,27.883504 Z M109.118253,44.5392449 L94.7971445,44.5392449 L94.7971445,31.1137773 L109.118253,31.1137773 L109.118253,44.5392449 Z" id="Shape" fill="#4A555F" fill-rule="nonzero"></path>
                        <path d="M102.988426,34.0521951 C102.399651,33.4648794 101.616008,33.1416309 100.782692,33.1416309 C99.9500703,33.1416309 99.1674686,33.4645334 98.5783465,34.0511569 C97.3625873,35.2621277 97.3622399,37.2334594 98.5779991,38.4451225 C99.1671214,39.0324382 99.9507649,39.3556867 100.784081,39.3556867 C101.616702,39.3556867 102.399304,39.0327842 102.988426,38.4461607 C104.204185,37.2351899 104.204533,35.2642043 102.988426,34.0521951 Z M101.45657,36.9199014 C101.0974,37.2781052 100.469721,37.2774129 100.110551,36.9192093 C99.7392228,36.5492384 99.7388756,35.9473869 100.110203,35.5777622 C100.289788,35.3988335 100.528772,35.3001977 100.782692,35.3001977 C101.037306,35.3001977 101.27629,35.3991795 101.456222,35.5784545 C101.82755,35.9484253 101.827897,36.5502767 101.45657,36.9199014 Z" id="Shape" fill="#FFFFFF" fill-rule="nonzero"></path>
                        <polygon id="Rectangle" fill="#FFFFFF" fill-rule="nonzero" transform="translate(102.861372, 39.355687) rotate(-45.000000) translate(-102.861372, -39.355687) " points="101.820704 37.2793432 103.895384 37.2826711 103.902039 41.4320305 101.82736 41.4287028"></polygon>
                    </g>
                    <rect id="Rectangle-Copy-12" fill="#EC8D53" fill-rule="nonzero" x="30.7669173" y="72.3733906" width="71.4586466" height="6.93991416"></rect>
                    <rect id="Rectangle-Copy-15" fill="#EC8D53" fill-rule="nonzero" x="30.7669173" y="121.944206" width="71.4586466" height="6.93991416"></rect>
                    <rect id="Rectangle-Copy-16" fill="#EC8D53" fill-rule="nonzero" x="30.7669173" y="137.806867" width="71.4586466" height="6.93991416"></rect>
                    <rect id="Rectangle-Copy-13" fill="#EC8D53" fill-rule="nonzero" x="30.7669173" y="88.2360515" width="29.7744361" height="6.93991416"></rect>
                    <rect id="Rectangle-Copy-14" fill="#EC8D53" fill-rule="nonzero" x="30.7669173" y="106.081545" width="49.6240602" height="6.93991416"></rect>
                    <rect id="Rectangle-Copy-17" fill="#EC8D53" fill-rule="nonzero" x="30.7669173" y="156.643777" width="49.6240602" height="6.93991416"></rect>
                </g>
                <g id="console" transform="translate(542.000000, 303.000000)">
                    <ellipse id="Oval" fill="#2561CD" cx="185.544747" cy="24.8407643" rx="11.9066148" ry="11.9235669"></ellipse>
                    <ellipse id="Oval-Copy-4" fill="#EEF50A" cx="188.521401" cy="69.5541401" rx="11.9066148" ry="11.9235669"></ellipse>
                    <ellipse id="Oval-Copy-5" fill="#0ECF1A" cx="161.731518" cy="45.7070064" rx="11.9066148" ry="11.9235669"></ellipse>
                    <ellipse id="Oval-Copy-5" fill="#CF0E0E" cx="209.357977" cy="48.6878981" rx="11.9066148" ry="11.9235669"></ellipse>
                    <path d="M252.627762,121.87697 L225.984019,30.0485626 C225.270347,27.6446777 224.556675,25.0004041 223.367222,22.5965192 C216.944177,9.37515158 204.335977,1.20194246 191.014108,0.240388458 L191.014108,0 L63.9805494,0 L63.9805494,0.240388458 C50.4207876,1.44233109 37.812588,9.37515158 31.6274337,22.5965192 C30.9137619,24.2792386 30.2000902,25.7215696 29.7243092,27.4042892 L29.7243092,27.6446777 C29.4864187,28.3658432 29.2485281,29.0870086 29.0106375,29.8081741 L2.3668952,121.636581 C-3.34247829,133.415618 1.65322347,147.59854 13.3098608,153.367864 C24.9664981,159.137188 39.002041,154.08903 44.7114143,142.309993 L75.1614055,98.0785084 L179.357469,98.0785084 L210.521133,142.550382 C216.230507,154.329417 230.266048,159.377575 241.922687,153.608251 C253.341433,147.838927 258.337135,133.656007 252.627762,121.87697 Z M60.4121909,53.3662473 C58.9848477,54.8085782 56.8438326,55.7701322 54.4649271,55.7701322 L46.1387576,55.7701322 L46.1387576,38.7025486 L54.4649271,38.7025486 C58.9848477,38.7025486 62.7910966,42.5487646 62.7910966,47.1161462 C62.7910966,49.7604197 61.8395344,51.9239162 60.4121909,53.3662473 Z M83.4875751,76.6839319 L66.5973455,76.6839319 L66.5973455,68.2703343 C66.5973455,63.4625643 70.4035945,59.8567367 74.923515,59.8567367 C77.3024205,59.8567367 79.4434356,60.8182907 80.8707788,62.2606218 C82.2981223,63.7029527 83.2496845,65.8664493 83.2496845,68.2703343 L83.4875751,76.6839319 Z M83.4875751,26.4427352 C83.4875751,31.0101166 79.6813261,34.8563326 75.1614055,34.8563326 C72.7825,34.8563326 70.641485,33.8947786 69.2141417,32.4524477 C67.7867982,31.0101166 66.835236,28.8466201 66.835236,26.4427352 L66.835236,18.0291376 L83.7254656,18.0291376 L83.4875751,26.4427352 Z M104.184053,56.0105207 L95.8578839,56.0105207 C91.1000729,56.0105207 87.5317146,52.1643047 87.5317146,47.5969233 C87.5317146,45.1930382 88.4832768,43.0295417 89.9106201,41.5872106 C91.3379634,40.1448797 93.4789784,39.1833257 95.8578839,39.1833257 L104.184053,39.1833257 L104.184053,56.0105207 Z M169.603957,53.3662473 C168.176614,54.8085782 166.035598,55.7701322 163.656693,55.7701322 C161.277787,55.7701322 159.136772,54.8085782 157.709428,53.3662473 C156.282086,51.9239162 155.330523,49.7604197 155.330523,47.3565346 C155.330523,42.5487646 159.136772,38.9429372 163.656693,38.9429372 C166.035598,38.9429372 168.176614,39.9044912 169.603957,41.3468222 C171.031299,42.7891533 171.982863,44.9526497 171.982863,47.3565346 C171.982863,49.7604197 171.031299,51.9239162 169.603957,53.3662473 Z M186.732076,78.1262628 C186.494187,78.1262628 186.018406,78.1262628 185.780515,78.1262628 C181.498485,78.1262628 177.930126,75.0012123 177.454345,70.6742194 C176.978564,66.1068378 180.309032,61.7798447 184.828952,61.2990678 C185.066843,61.2990678 185.542624,61.2990678 185.780515,61.2990678 C190.062544,61.2990678 193.630902,64.4241183 194.106685,68.7511114 C194.106685,68.9914998 194.106685,69.4722767 194.106685,69.7126654 C194.106685,73.7992698 191.014108,77.6454859 186.732076,78.1262628 Z M191.727778,31.0101166 C190.300436,32.4524477 188.15942,33.4140017 185.780515,33.4140017 C181.022703,33.4140017 177.454345,29.5677857 177.454345,25.0004041 C177.454345,22.5965192 178.405908,20.4330225 179.83325,18.9906916 C181.260594,17.5483605 183.40161,16.5868065 185.780515,16.5868065 C188.15942,16.5868065 190.300436,17.5483605 191.727778,18.9906916 C193.155122,20.4330225 194.106685,22.5965192 194.106685,25.0004041 C194.106685,27.4042892 193.155122,29.5677857 191.727778,31.0101166 Z M213.61371,53.3662473 C212.186366,54.8085782 210.045351,55.7701322 207.666446,55.7701322 C205.28754,55.7701322 203.146525,54.8085782 201.719183,53.3662473 C200.291839,51.9239162 199.340276,49.7604197 199.340276,47.3565346 C199.340276,42.5487646 203.146525,38.9429372 207.666446,38.9429372 C210.045351,38.9429372 212.186366,39.9044912 213.61371,41.3468222 C215.041052,42.7891533 215.992615,44.9526497 215.992615,47.3565346 C216.230507,49.7604197 215.278944,51.9239162 213.61371,53.3662473 Z" id="Shape-Copy-13" stroke="#4A555F" stroke-width="2.8" fill="#EC8D53" fill-rule="nonzero"></path>
                </g>
                <g id="Iot" transform="translate(382.000000, 0.000000)" fill-rule="nonzero">
                    <path d="M55.5847751,136 L52,134.145299 C59.0415224,119.307692 72.6124568,108.444444 88.2318338,105 L89,109.106838 C74.6608997,112.153846 62.1141868,122.222222 55.5847751,136 Z" id="Path" fill-opacity="0.814002404" fill="#71CDE1"></path>
                    <path d="M67.1304347,195 C54.9689442,185.218242 48,170.990228 48,156 L52.2360248,156 C52.2360248,169.846906 58.6583852,182.931597 70,192.078176 L67.1304347,195 Z" id="Path" fill-opacity="0.814002404" fill="#71CDE1"></path>
                    <path d="M154,207 L104.946565,207 C98.4580153,207 92.0992366,206.035715 86,204.107143 L87.4274809,201 C93.0076337,202.821429 98.8473282,203.678572 104.946565,203.678572 L153.870229,203.678572 L153.870229,207 L154,207 Z" id="Path" fill-opacity="0.814002404" fill="#71CDE1"></path>
                    <path d="M251.161289,207 L174,207 L174,203.457143 L251.161289,203.457143 C253.096775,203.457143 255.161291,203.342857 257.225807,203 L258,206.542858 C255.677419,206.771429 253.48387,207 251.161289,207 Z" id="Path" fill-opacity="0.814002404" fill="#71CDE1"></path>
                    <path d="M275.180328,201 L273,197.656052 C278.049181,193.242039 281.72131,186.955415 283.557376,180 L287,181.203822 C284.934426,189.095542 280.803279,196.050955 275.180328,201 Z" id="Path" fill-opacity="0.814002404" fill="#71CDE1"></path>
                    <path d="M285.929293,164 C282.121213,149.722714 269.515153,139.858407 254.676769,139.20944 L252.707072,139.079646 L252.707072,136.224189 C252.707072,131.162242 252.181818,125.970502 251,120.908555 L255.070709,120 C256.121214,124.932153 256.777779,129.9941 256.909092,135.185841 C272.666668,136.613569 285.79798,147.646018 290,162.961652 L285.929293,164 Z" id="Path" fill-opacity="0.814002404" fill="#71CDE1"></path>
                    <path d="M114.776195,106 L111,104.333333 C122.979654,78.0512821 149.543235,61 178.841303,61 C202.540183,61 225.067142,72.2820512 239,91.2564103 L235.744661,93.5641026 C222.593083,75.6153846 201.368262,64.974359 178.971516,64.974359 C151.236012,65.1025642 126.104781,81.1282052 114.776195,106 Z" id="Path" fill-opacity="0.814002404" fill="#71CDE1"></path>
                    <path d="M251.190282,142.507403 L244.662178,142.25074 L244.662178,135.834155 C244.662178,135.577492 244.662178,134.935834 244.662178,134.935834 C244.662178,99.131293 215.02459,70 178.597775,70 C152.224239,70 128.331382,85.3998025 117.886417,109.269496 L115.666862,114.402764 L110.183255,113.247779 C107.049766,112.60612 103.916276,112.221125 100.652225,112.221125 C76.1065573,112.221125 56,131.855873 56,156.110562 C56,180.236919 75.9759953,200 100.652225,200 L249.884661,200 C265.943793,200 279,187.166831 279,171.253701 C279,155.725567 266.727167,143.149062 251.190282,142.507403 Z M172.069672,176.771964 C166.194379,176.771964 161.363583,172.152023 161.363583,166.377097 C161.363583,160.602171 166.194379,155.853899 172.069672,155.853899 C177.944965,155.853899 182.775761,160.473839 182.775761,166.377097 C182.775761,172.023691 177.944965,176.771964 172.069672,176.771964 Z" id="Shape" fill="#71CCE0"></path>
                    <path d="M174,178 C166.762887,178 161,172.103093 161,165 C161,157.762887 166.896907,152 174,152 C181.103093,152 187,157.896907 187,165 C187,172.237113 181.237113,178 174,178 Z M174,156.28866 C169.175258,156.28866 165.154639,160.309278 165.154639,165.134021 C165.154639,169.958763 169.175258,173.979381 174,173.979381 C178.824742,173.979381 182.845361,169.958763 182.845361,165.134021 C182.845361,160.175258 178.824742,156.28866 174,156.28866 Z" id="Shape" fill="#1A9EBA"></path>
                    <path d="M191.263844,150 C186.57329,145.6 180.449512,143.141177 174.065147,143.141177 C167.680782,143.141177 161.557003,145.6 156.86645,149.870588 L154,146.894118 C159.472313,141.847059 166.508143,139 173.934854,139 C181.491857,139 188.657981,141.847059 194,147.02353 L191.263844,150 Z" id="Path" fill="#FFFFFF"></path>
                    <path d="M203.230768,140 C195.846153,133.547826 186.21978,129.895652 176.065934,129.895652 C165.912088,129.895652 156.285714,133.426087 148.901099,139.878261 L146,137.078261 C154.175824,130.017391 164.725275,126 175.934066,126 C187.142857,126 197.824176,129.895652 206,137.078261 L203.230768,140 Z" id="Path" fill="#FFFFFF"></path>
                    <path d="M212.262377,131 C202.354785,121.368055 189.318482,116.222222 175.5,116.222222 C161.811881,116.222222 148.775578,121.5 138.867987,131 L136,127.965278 C146.689769,117.673611 160.768977,112 175.5,112 C190.231024,112 204.310232,117.673611 215,127.965278 L212.262377,131 Z" id="Path" fill="#4A555F"></path>
                    <path d="M212.262377,131 C202.354785,121.368055 189.318482,116.222222 175.5,116.222222 C161.811881,116.222222 148.775578,121.5 138.867987,131 L136,127.965278 C146.689769,117.673611 160.768977,112 175.5,112 C190.231024,112 204.310232,117.673611 215,127.965278 L212.262377,131 Z" id="Path" fill="#FFFFFF"></path>
                    <path d="M76,19 C70.4927538,19 66,14.731884 66,9.5 C66,4.26811593 70.4927538,0 76,0 C81.5072465,0 86,4.26811593 86,9.5 C86,14.731884 81.5072465,19 76,19 Z M76,4.13043477 C72.9565217,4.13043477 70.4927538,6.47101449 70.4927538,9.36231883 C70.4927538,12.2536232 72.9565217,14.5942029 76,14.5942029 C79.0434783,14.5942029 81.5072465,12.2536232 81.5072465,9.36231883 C81.5072465,6.47101449 79.0434783,4.13043477 76,4.13043477 Z" id="Shape" fill="#EC8D53"></path>
                    <path d="M9.99829524,155 C4.49198772,155 0,150.731884 0,145.5 C0,140.268116 4.49198772,136 9.99829524,136 C15.5046027,136 19.9965905,140.268116 19.9965905,145.5 C20.1414933,150.731884 15.6495056,155 9.99829524,155 Z M9.99829522,140.268116 C6.95533581,140.268116 4.4919877,142.608696 4.4919877,145.5 C4.4919877,148.391304 6.95533581,150.731884 9.99829522,150.731884 C13.0412546,150.731884 15.5046027,148.391304 15.5046027,145.5 C15.6495056,142.608696 13.0412546,140.268116 9.99829522,140.268116 Z" id="Shape" fill="#EC8D53"></path>
                    <path d="M242,265 C236.492754,265 232,260.731883 232,255.5 C232,250.268115 236.492754,246 242,246 C247.507246,246 252,250.268115 252,255.5 C252,260.594203 247.507246,265 242,265 Z M242,250.130435 C238.956522,250.130435 236.492754,252.471015 236.492754,255.362318 C236.492754,258.253623 238.956522,260.594203 242,260.594203 C245.043478,260.594203 247.507246,258.253623 247.507246,255.362318 C247.507246,252.471015 245.043478,250.130435 242,250.130435 Z" id="Shape" fill="#EC8D53"></path>
                    <path d="M163,256 C157.492754,256 153,251.731885 153,246.5 C153,241.268117 157.492754,237 163,237 C168.507246,237 173,241.268117 173,246.5 C173,251.731885 168.507246,256 163,256 Z M163,241.130435 C159.956522,241.130435 157.492754,243.471015 157.492754,246.36232 C157.492754,249.253623 159.956522,251.594203 163,251.594203 C166.043478,251.594203 168.507246,249.253623 168.507246,246.36232 C168.507246,243.471015 166.043478,241.130435 163,241.130435 Z" id="Shape" fill="#EC8D53"></path>
                    <path d="M99,321 C93.4927532,321 89,316.731884 89,311.5 C89,306.268116 93.4927532,302 99,302 C104.507247,302 109,306.268116 109,311.5 C109,316.731884 104.507247,321 99,321 Z M99.000001,306.268116 C95.9565216,306.268116 93.4927532,308.608696 93.4927532,311.499999 C93.4927532,314.391304 95.9565216,316.731884 99.000001,316.731884 C102.043478,316.731884 104.507247,314.391304 104.507247,311.499999 C104.507247,308.608696 102.043478,306.268116 99.000001,306.268116 Z" id="Shape" fill="#EC8D53"></path>
                    <path d="M328,180 C322.492753,180 318,175.731884 318,170.5 C318,165.268116 322.492753,161 328,161 C333.507247,161 338,165.268116 338,170.5 C338,175.731884 333.507247,180 328,180 Z M328.000001,165.268116 C324.956522,165.268116 322.492753,167.608696 322.492753,170.5 C322.492753,173.391304 324.956522,175.731884 328.000001,175.731884 C331.043478,175.731884 333.507247,173.391304 333.507247,170.5 C333.507247,167.608696 331.043478,165.268116 328.000001,165.268116 Z" id="Shape" fill="#EC8D53"></path>
                    <path d="M265.998346,46 C260.492011,46 256,41.731884 256,36.5 C256,31.268116 260.492011,27 265.998346,27 C271.504682,27 275.996693,31.268116 275.996693,36.5 C276.141597,41.731884 271.504682,46 265.998346,46 Z M265.998346,31.1304348 C262.955372,31.1304348 260.492011,33.4710146 260.492011,36.3623189 C260.492011,39.2536233 262.955372,41.5942029 265.998346,41.5942029 C269.041321,41.5942029 271.504682,39.2536233 271.504682,36.3623189 C271.504682,33.4710146 269.041321,31.1304348 265.998346,31.1304348 Z" id="Shape" fill="#EC8D53"></path>
                    <polygon id="Path" fill-opacity="0.667231206" fill="#4A555F" points="108 106 103.847328 106 103.847328 68.2253522 74 68.2253522 74 61 78.1526717 61 78.1526717 64.2957747 108 64.2957747"></polygon>
                    <path d="M77,58 L74,58 L74,54.0425533 L77,54.0425533 L77,58 Z M77,49.9574469 L74,49.9574469 L74,46 L77,46 L77,49.9574469 Z M77,41.9148936 L74,41.9148936 L74,37.9574469 L77,37.9574469 L77,41.9148936 Z M77,34 L74,34 L74,29.9148936 L77,29.9148936 L77,34 Z M77,25.9574467 L74,25.9574467 L74,22 L77,22 L77,25.9574467 Z" id="Shape" fill-opacity="0.667231206" fill="#4A555F"></path>
                    <polygon id="Path" fill-opacity="0.667231206" fill="#4A555F" points="269 107 246 107 246 102.897059 264.592814 102.897059 264.592814 98 269 98"></polygon>
                    <path d="M267,94 L264,94 L264,89.968208 L267,89.968208 L267,94 Z M267,85.8063585 L264,85.8063585 L264,81.7745665 L267,81.7745665 L267,85.8063585 Z M267,77.6127167 L264,77.6127167 L264,73.5809248 L267,73.5809248 L267,77.6127167 Z M267,69.4190752 L264,69.4190752 L264,65.3872833 L267,65.3872833 L267,69.4190752 Z M267,61.2254335 L264,61.2254335 L264,57.1936415 L267,57.1936415 L267,61.2254335 Z M267,53.031792 L264,53.031792 L264,49 L267,49 L267,53.031792 Z" id="Shape" fill-opacity="0.667231206" fill="#4A555F"></path>
                    <path d="M164,234 L161,234 L161,230.036529 L164,230.036529 L164,234 Z M164,225.945206 L161,225.945206 L161,221.981735 L164,221.981735 L164,225.945206 Z M164,217.890411 L161,217.890411 L161,213.92694 L164,213.92694 L164,217.890411 Z M164,209.963471 L161,209.963471 L161,206 L164,206 L164,209.963471 Z" id="Shape" fill-opacity="0.667231206" fill="#4A555F"></path>
                    <path d="M100,300 L97,300 L97,295.932202 L100,295.932202 L100,300 Z M100,291.991524 L97,291.991524 L97,288.050847 L100,288.050847 L100,291.991524 Z M100,283.983049 L97,283.983049 L97,280.042372 L100,280.042372 L100,283.983049 Z M100,275.974575 L97,275.974575 L97,272.033898 L100,272.033898 L100,275.974575 Z M100,267.9661 L97,267.9661 L97,264.025423 L100,264.025423 L100,267.9661 Z M100,259.957626 L97,259.957626 L97,256.016949 L100,256.016949 L100,259.957626 Z M100,251.949151 L97,251.949151 L97,248.008474 L100,248.008474 L100,251.949151 Z M100,244.067796 L97,244.067796 L97,240 L100,240 L100,244.067796 Z" id="Shape" fill-opacity="0.667231206" fill="#4A555F"></path>
                    <polygon id="Path" fill-opacity="0.667231206" fill="#4A555F" points="100 236 95.9497486 236 95.9497486 232.297873 74 232.297873 74 200 78.1809045 200 78.1809045 228.340425 100 228.340425"></polygon>
                    <polygon id="Path" fill-opacity="0.667231206" fill="#4A555F" points="244.072727 229 240 229 240 219.694736 263.927273 219.694736 263.927273 203 268 203 268 224.073685 244.072727 224.073685"></polygon>
                    <path d="M50,148 L46.0365296,148 L46.0365296,145 L50,145 L50,148 Z M41.9452054,148 L37.9817351,148 L37.9817351,145 L41.9452054,145 L41.9452054,148 Z M34.0182649,148 L30.0547944,148 L30.0547944,145 L34.0182649,145 L34.0182649,148 Z M25.9634703,148 L22,148 L22,145 L25.9634703,145 L25.9634703,148 Z" id="Shape" fill-opacity="0.667231206" fill="#4A555F"></path>
                    <path d="M316,173 L312.054546,173 L312.054546,170 L316,170 L316,173 Z M307.981819,173 L304.036364,173 L304.036364,170 L307.981819,170 L307.981819,173 Z M299.963637,173 L296.018183,173 L296.018183,170 L299.963637,170 L299.963637,173 Z M291.945456,173 L288,173 L288,170 L291.945456,170 L291.945456,173 Z" id="Shape" fill-opacity="0.667231206" fill="#4A555F"></path>
                    <path d="M243,243 L240,243 L240,239.372342 L243,239.372342 L243,243 Z M243,235.62766 L240,235.62766 L240,232 L243,232 L243,235.62766 Z" id="Shape" fill-opacity="0.667231206" fill="#4A555F"></path>
                </g>
            </g>
        </g>
    </g>
</svg>