<?xml version="1.0" encoding="UTF-8"?>
<svg width="512px" height="512px" viewBox="0 0 512 512" version="1.1" xmlns="http://www.w3.org/2000/svg" xmlns:xlink="http://www.w3.org/1999/xlink">
    <!-- Generator: Sketch 58 (84663) - https://sketch.com -->
    <title>Branded login</title>
    <desc>Created with Sketch.</desc>
    <g id="Page-1" stroke="none" stroke-width="1" fill="none" fill-rule="evenodd">
        <g id="User-Experience" transform="translate(-174.000000, -312.000000)">
            <g id="Branded-login" transform="translate(174.000000, 312.000000)">
                <g id="blue-sidee" transform="translate(278.000000, 111.000000)" fill-rule="nonzero">
                    <polygon id="Path" fill="#71CCE0" points="3.62251895e-13 0 3.62251895e-13 134.593364 0 194 154 194 154 0"></polygon>
                    <rect id="Rectangle" fill="#4A555F" x="16" y="16" width="122" height="8"></rect>
                    <path d="M41.2831746,79 L48.1042182,79 L48.1042182,71 L41.2831746,71 L41.2831746,79 L41.2831746,79 Z M68.5663492,79 L75.3873928,79 L75.3873928,71 L68.5663492,71 L68.5663492,79 Z M136.773786,71 L136.773786,79 L143,79 L143,71 L136.773786,71 Z M27.6410874,79 L34.462131,79 L34.462131,71 L27.6410874,71 L27.6410874,79 Z M14,79 L20.8210436,79 L20.8210436,71 L14,71 L14,79 Z M54.924262,79 L61.7453056,79 L61.7453056,71 L54.924262,71 L54.924262,79 Z M109.490611,79 L116.311655,79 L116.311655,71 L109.490611,71 L109.490611,79 Z M123.132698,79 L129.953742,79 L129.953742,71 L123.132698,71 L123.132698,79 Z M82.2074366,79 L89.0284802,79 L89.0284802,71 L82.2074366,71 L82.2074366,79 Z M95.8495238,79 L102.670567,79 L102.670567,71 L95.8495238,71 L95.8495238,79 Z" id="Shape" fill="#4A555F"></path>
                    <path d="M54.924262,102 L61.7453056,102 L61.7453056,94 L54.924262,94 L54.924262,102 Z M68.5663492,102 L75.3873928,102 L75.3873928,94 L68.5663492,94 L68.5663492,102 Z M27.6410874,102 L34.462131,102 L34.462131,94 L27.6410874,94 L27.6410874,102 Z M14,102 L20.8210436,102 L20.8210436,94 L14,94 L14,102 Z M41.2831746,102 L48.1042182,102 L48.1042182,94 L41.2831746,94 L41.2831746,102 L41.2831746,102 Z M82.2074366,102 L89.0284802,102 L89.0284802,94 L82.2074366,94 L82.2074366,102 Z M123.132698,102 L129.953742,102 L129.953742,94 L123.132698,94 L123.132698,102 Z M136.773786,94 L136.773786,102 L143,102 L143,94 L136.773786,94 Z M109.490611,102 L116.311655,102 L116.311655,94 L109.490611,94 L109.490611,102 Z M95.8495238,102 L102.670567,102 L102.670567,94 L95.8495238,94 L95.8495238,102 Z" id="Shape" fill="#4A555F"></path>
                    <rect id="Rectangle" fill="#4A555F" x="16" y="42" width="48" height="8"></rect>
                </g>
                <g id="yellow-logo-side" transform="translate(75.000000, 106.000000)">
                    <path d="M0,30 L0,200.592 L162.007,200.592 L162.007,30 L0,30 Z M155.184,193.77 L6.822,193.77 L6.822,36.823 L155.184,36.823 L155.184,193.77 L155.184,193.77 Z" id="Shape" fill="#4A555F" fill-rule="nonzero"></path>
                    <rect id="Rectangle" fill="#FFD452" fill-rule="nonzero" x="15.431" y="82.883" width="131.144" height="102.278"></rect>
                    <polygon id="Path" fill="#FFFFFF" points="0 3.796 0 75.796 162.007 75.796 162.007 3.796"></polygon>
                    <path d="M0,3.796 L0,75.796 L162.007,75.796 L162.007,3.796 L0,3.796 Z M155.184,68.973 L6.822,68.973 L6.822,11.973 L155.184,11.973 L155.184,68.973 L155.184,68.973 Z" id="Shape" fill="#4A555F" fill-rule="nonzero"></path>
                    <rect id="Rectangle" fill="#4A555F" fill-rule="nonzero" x="77.59" y="72.385" width="6.823" height="124.796"></rect>
                    <text id="***" fill="#3F2E61" font-family="Arial-BoldMT, Arial" font-size="120" font-weight="bold">
                        <tspan x="9.45117188" y="109">***</tspan>
                    </text>
                </g>
                <path d="M472.732,0 L39.486,0 C18.196,0 0.877,17.319 0.877,38.608 L0.877,381.603 C0.877,402.891 18.196,420.211 39.486,420.211 L47.488,420.211 L47.488,51.083 L466.915,51.083 L466.915,335.423 L182.846,335.423 L182.846,420.211 L472.514,420.211 C493.804,420.211 511.123,402.892 511.123,381.603 L511.123,38.392 C511.123,17.222 493.902,0 472.732,0 Z M504.3,381.603 C504.3,399.13 490.042,413.388 472.514,413.388 L189.668,413.388 L189.668,342.245 L473.738,342.245 L473.738,44.26 L40.665,44.26 L40.665,413.388 L39.486,413.388 C21.958,413.388 7.7,399.13 7.7,381.603 L7.7,38.608 C7.7,21.081 21.958,6.823 39.486,6.823 L472.732,6.823 C490.14,6.823 504.3,20.985 504.3,38.392 L504.3,381.603 Z" id="Shape" fill="#4A555F" fill-rule="nonzero"></path>
                <path d="M489.776,21.346 C486.122,17.693 481.049,15.432 475.472,15.432 L39.486,15.432 C26.696,15.432 16.31,25.818 16.31,38.608 L16.31,381.603 C16.31,391.797 22.921,400.476 32.081,403.554 L32.081,350.855 L32.057,350.855 L32.057,35.651 L482.348,35.651 L482.348,350.854 L198.182,350.854 L198.182,404.779 L472.515,404.779 C485.329,404.779 495.691,394.392 495.691,381.603 L495.691,35.651 C495.691,30.074 493.431,25.025 489.776,21.346 Z" id="Path" fill="#F58E6F" fill-rule="nonzero"></path>
                <path d="M310.228,413.388 L206.581,413.388 L182.846,470.354 L182.846,480.554 L338.243,480.554 L310.228,413.388 Z M189.668,471.719 L211.129,420.211 L305.679,420.211 L328.004,473.732 L189.668,473.732 L189.668,471.719 Z" id="Shape" fill="#4A555F" fill-rule="nonzero"></path>
                <polygon id="Path" fill="#F58E6F" fill-rule="nonzero" points="299.95 428.811 216.877 428.811 201.738 465.128 315.091 465.128"></polygon>
                <path d="M182.846,473.732 L182.846,488.274 C182.846,488.486 182.85,488.681 182.826,489.01 C182.726,491.202 182.237,493.267 181.365,495.175 C178.646,501.251 172.592,505.178 165.943,505.178 L165.943,512.001 L403.42,512.001 L403.42,473.733 L182.846,473.733 L182.846,473.732 Z M396.596,505.177 L182.583,505.177 C184.648,503.146 186.356,500.722 187.578,497.988 C188.807,495.307 189.501,492.391 189.633,489.451 C189.664,489.069 189.668,488.687 189.668,488.273 L189.668,480.554 L396.596,480.554 L396.596,505.177 Z" id="Shape" fill="#4A555F" fill-rule="nonzero"></path>
                <path d="M186.233,489.163 C186.113,491.808 185.512,494.308 184.478,496.567 L387.986,496.567 L387.986,489.163 L186.233,489.163 Z" id="Path" fill="#F58E6F" fill-rule="nonzero"></path>
                <rect id="Rectangle" fill="#4A555F" fill-rule="nonzero" x="165.942" y="505.177" width="341.77" height="6.823"></rect>
                <circle id="Oval" fill="#FFFFFF" fill-rule="nonzero" cx="258.792" cy="378.296" r="18.968"></circle>
                <path d="M258.793,355.916 C246.453,355.916 236.413,365.955 236.413,378.295 C236.413,390.635 246.454,400.675 258.793,400.675 C271.132,400.675 281.171,390.635 281.171,378.295 C281.171,365.955 271.132,355.916 258.793,355.916 Z M258.793,393.852 C250.213,393.852 243.235,386.873 243.235,378.295 C243.235,369.717 250.213,362.738 258.793,362.738 C267.37,362.738 274.348,369.717 274.348,378.295 C274.348,386.874 267.37,393.852 258.793,393.852 Z" id="Shape" fill="#4A555F" fill-rule="nonzero"></path>
                <path d="M449.992,44.262 L64.418,44.262 C51.323,44.262 40.669,54.916 40.669,68.011 L40.669,85.134 L473.74,85.134 L473.74,68.011 C473.74,54.916 463.086,44.262 449.992,44.262 Z M466.918,78.311 L47.492,78.311 L47.492,68.011 C47.492,58.678 55.086,51.085 64.418,51.085 L449.992,51.085 C459.325,51.085 466.918,58.678 466.918,68.011 L466.918,78.311 L466.918,78.311 Z" id="Shape" fill="#4A555F" fill-rule="nonzero"></path>
                <path d="M75.599,52.782 C69.718,52.782 64.934,57.565 64.934,63.445 C64.934,69.325 69.718,74.109 75.599,74.109 C81.477,74.109 86.262,69.325 86.262,63.445 C86.262,57.565 81.477,52.782 75.599,52.782 Z M75.599,67.286 C73.48,67.286 71.757,65.563 71.757,63.445 C71.757,61.327 73.48,59.604 75.599,59.604 C77.715,59.604 79.439,61.327 79.439,63.445 C79.438,65.563 77.715,67.286 75.599,67.286 Z" id="Shape" fill="#4A555F" fill-rule="nonzero"></path>
                <path d="M99.86,52.782 C93.981,52.782 89.197,57.565 89.197,63.445 C89.197,69.325 93.981,74.109 99.86,74.109 C105.741,74.109 110.525,69.325 110.525,63.445 C110.525,57.565 105.741,52.782 99.86,52.782 Z M99.86,67.286 C97.743,67.286 96.02,65.563 96.02,63.445 C96.02,61.327 97.743,59.604 99.86,59.604 C101.979,59.604 103.702,61.327 103.702,63.445 C103.702,65.563 101.979,67.286 99.86,67.286 Z" id="Shape" fill="#4A555F" fill-rule="nonzero"></path>
                <path d="M124.124,52.782 C118.245,52.782 113.461,57.565 113.461,63.445 C113.461,69.325 118.245,74.109 124.124,74.109 C130.005,74.109 134.789,69.325 134.789,63.445 C134.789,57.565 130.005,52.782 124.124,52.782 Z M124.124,67.286 C122.007,67.286 120.284,65.563 120.284,63.445 C120.284,61.327 122.008,59.604 124.124,59.604 C126.243,59.604 127.966,61.327 127.966,63.445 C127.966,65.563 126.243,67.286 124.124,67.286 Z" id="Shape" fill="#4A555F" fill-rule="nonzero"></path>
                <path d="M165.951,247.153 L64.396,247.153 C51.313,247.153 40.669,257.797 40.669,270.88 L40.669,488.265 C40.669,501.348 51.312,511.992 64.396,511.992 L165.951,511.992 C179.034,511.992 189.678,501.348 189.678,488.265 L189.678,270.879 C189.678,257.796 179.034,247.153 165.951,247.153 Z" id="Path" fill="#FFFFFF" fill-rule="nonzero"></path>
                <path d="M165.951,247.153 L64.396,247.153 C51.313,247.153 40.669,257.797 40.669,270.88 L40.669,488.265 C40.669,501.348 51.312,511.992 64.396,511.992 L165.951,511.992 C179.034,511.992 189.678,501.348 189.678,488.265 L189.678,270.879 C189.678,257.796 179.034,247.153 165.951,247.153 Z M182.855,488.265 C182.855,497.586 175.271,505.169 165.95,505.169 L64.396,505.169 C55.075,505.169 47.492,497.586 47.492,488.265 L47.492,270.879 C47.492,261.558 55.075,253.975 64.396,253.975 L165.951,253.975 C175.272,253.975 182.855,261.558 182.855,270.879 L182.855,488.265 L182.855,488.265 Z" id="Shape" fill="#4A555F" fill-rule="nonzero"></path>
                <path d="M165.944,262.597 L64.395,262.597 C59.827,262.597 56.101,266.299 56.101,270.89 L56.101,488.271 C56.101,492.839 59.828,496.564 64.395,496.564 L165.945,496.564 C170.512,496.564 174.239,492.838 174.239,488.271 L174.239,270.891 C174.239,266.299 170.512,262.597 165.944,262.597 Z M112.813,495.675 C105.769,495.675 100.047,489.953 100.047,482.909 C100.047,475.866 105.769,470.144 112.813,470.144 C119.857,470.144 125.554,475.866 125.554,482.909 C125.555,489.954 119.857,495.675 112.813,495.675 Z M170.969,459.638 L60.572,459.638 L60.572,282.406 L170.969,282.406 L170.969,459.638 Z" id="Shape" fill="#DFDFDF" fill-rule="nonzero"></path>
                <rect id="Rectangle" fill="#4A555F" fill-rule="nonzero" x="4.289" y="505.169" width="60.107" height="6.823"></rect>
                <path d="M112.808,466.744 C103.893,466.744 96.641,473.997 96.641,482.911 C96.641,491.825 103.892,499.078 112.808,499.078 C121.723,499.078 128.976,491.825 128.976,482.911 C128.976,473.997 121.723,466.744 112.808,466.744 Z M112.808,492.256 C107.655,492.256 103.464,488.064 103.464,482.911 C103.464,477.758 107.655,473.566 112.808,473.566 C117.96,473.566 122.154,477.758 122.154,482.911 C122.154,488.064 117.96,492.256 112.808,492.256 Z" id="Shape" fill="#4A555F" fill-rule="nonzero"></path>
                <path d="M75.288,299.77 L75.288,385.392 L153.86,385.392 L153.86,299.77 L75.288,299.77 Z M147.037,378.57 L82.11,378.57 L82.11,306.592 L147.037,306.592 L147.037,378.57 Z" id="Shape" fill="#4A555F" fill-rule="nonzero"></path>
                <rect id="Rectangle" fill="#FFD452" fill-rule="nonzero" x="90.719" y="341.928" width="47.707" height="28.033"></rect>
                <rect id="Rectangle" fill="#4A555F" fill-rule="nonzero" x="78.699" y="326.985" width="71.75" height="6.823"></rect>
                <rect id="Rectangle" fill="#4A555F" fill-rule="nonzero" x="111.162" y="330.397" width="6.823" height="51.584"></rect>
                <rect id="Rectangle" fill="#71CCE0" fill-rule="nonzero" x="75.79" y="401.25" width="78.329" height="58.398"></rect>
                <path d="M57.169,278.985 L57.169,463.059 L174.379,463.059 L174.379,278.985 L57.169,278.985 Z M167.557,456.237 L63.992,456.237 L63.992,285.808 L167.557,285.808 L167.557,456.237 Z" id="Shape" fill="#4A555F" fill-rule="nonzero"></path>
                <text id="***" fill="#3F2E61" font-family="Arial-BoldMT, Arial" font-size="48" font-weight="bold">
                    <tspan x="87.4804688" y="344">***</tspan>
                </text>
                <rect id="Rectangle" fill="#4A555F" fill-rule="nonzero" x="85.022" y="411.274" width="60.056" height="6.823"></rect>
                <rect id="Rectangle" fill="#4A555F" fill-rule="nonzero" x="85.022" y="425.916" width="37.969" height="6.823"></rect>
                <path d="M98.667,447.38 L105.49,447.38 L105.49,440.557 L98.667,440.557 L98.667,447.38 Z M112.313,447.38 L119.136,447.38 L119.136,440.557 L112.313,440.557 L112.313,447.38 L112.313,447.38 Z M85.022,447.38 L91.845,447.38 L91.845,440.557 L85.022,440.557 L85.022,447.38 L85.022,447.38 Z M139.604,440.557 L139.604,447.38 L146.427,447.38 L146.427,440.557 L139.604,440.557 Z M125.958,447.38 L132.781,447.38 L132.781,440.557 L125.958,440.557 L125.958,447.38 Z" id="Shape" fill="#4A555F" fill-rule="nonzero"></path>
            </g>
        </g>
    </g>
</svg>