<?xml version="1.0" encoding="UTF-8"?>
<svg width="1235px" height="407px" viewBox="0 0 1235 407" version="1.1" xmlns="http://www.w3.org/2000/svg" xmlns:xlink="http://www.w3.org/1999/xlink">
    <!-- Generator: Sketch 58 (84663) - https://sketch.com -->
    <title>client libraries</title>
    <desc>Created with Sketch.</desc>
    <g id="Page-1" stroke="none" stroke-width="1" fill="none" fill-rule="evenodd">
        <g id="built-for-devs" transform="translate(-215.000000, -1143.000000)" fill-rule="nonzero">
            <g id="client-libraries" transform="translate(215.000000, 1143.000000)">
                <g id="4.9.1-home-integrate-python" transform="translate(76.000000, 0.000000)">
                    <circle id="Oval-Copy-16" fill="#366F9F" cx="93.5" cy="93.5" r="93.5"></circle>
                    <g id="python-5-copy" transform="translate(35.700000, 37.400000)">
                        <g id="Shape">
                            <g id="path-1-link" fill="#000000">
                                <path d="M55.5575471,0 C27.1448432,0 28.9188841,12.2940165 28.9188841,12.2940165 L28.9504382,25.0309936 L56.0641656,25.0309936 L56.0641656,28.8549728 L18.1812907,28.8549728 C18.1812907,28.8549728 0,26.7975889 0,55.4020024 C0,84.0072906 15.8690772,82.9928101 15.8690772,82.9928101 L25.3396863,82.9928101 L25.3396863,69.718858 C25.3396863,69.718858 24.8291236,53.8850918 40.9554543,53.8850918 L67.8474265,53.8850918 C67.8474265,53.8850918 82.9561377,54.1286546 82.9561377,39.3154907 L82.9561377,14.8227839 C82.9561377,14.8227839 85.2508212,0 55.5575471,0 Z M40.6070445,8.56536152 C41.9010572,8.56420188 43.142405,9.07658822 44.0574105,9.98955767 C44.972416,10.9025271 45.485945,12.1411128 45.4847828,13.4322461 C45.485945,14.7233793 44.972416,15.961965 44.0574105,16.8749344 C43.142405,17.7879039 41.9010572,18.3002902 40.6070445,18.2991306 C39.3130319,18.3002902 38.0716841,17.7879039 37.1566786,16.8749344 C36.2416731,15.961965 35.7281441,14.7233793 35.7293063,13.4322461 C35.7281441,12.1411128 36.2416731,10.9025271 37.1566786,9.98955767 C38.0716841,9.07658822 39.3130319,8.56420188 40.6070445,8.56536152 L40.6070445,8.56536152 Z" id="path-1"></path>
                            </g>
                            <g id="path-1-link" fill="#FFFFFF">
                                <path d="M55.5575471,0 C27.1448432,0 28.9188841,12.2940165 28.9188841,12.2940165 L28.9504382,25.0309936 L56.0641656,25.0309936 L56.0641656,28.8549728 L18.1812907,28.8549728 C18.1812907,28.8549728 0,26.7975889 0,55.4020024 C0,84.0072906 15.8690772,82.9928101 15.8690772,82.9928101 L25.3396863,82.9928101 L25.3396863,69.718858 C25.3396863,69.718858 24.8291236,53.8850918 40.9554543,53.8850918 L67.8474265,53.8850918 C67.8474265,53.8850918 82.9561377,54.1286546 82.9561377,39.3154907 L82.9561377,14.8227839 C82.9561377,14.8227839 85.2508212,0 55.5575471,0 Z M40.6070445,8.56536152 C41.9010572,8.56420188 43.142405,9.07658822 44.0574105,9.98955767 C44.972416,10.9025271 45.485945,12.1411128 45.4847828,13.4322461 C45.485945,14.7233793 44.972416,15.961965 44.0574105,16.8749344 C43.142405,17.7879039 41.9010572,18.3002902 40.6070445,18.2991306 C39.3130319,18.3002902 38.0716841,17.7879039 37.1566786,16.8749344 C36.2416731,15.961965 35.7281441,14.7233793 35.7293063,13.4322461 C35.7281441,12.1411128 36.2416731,10.9025271 37.1566786,9.98955767 C38.0716841,9.07658822 39.3130319,8.56420188 40.6070445,8.56536152 L40.6070445,8.56536152 Z" id="path-1"></path>
                            </g>
                        </g>
                        <g id="Shape" transform="translate(29.000000, 29.000000)">
                            <g id="path-3-link" fill="#000000">
                                <path d="M27.6428775,83.2 C56.0555884,83.2 54.281547,70.9059835 54.281547,70.9059835 L54.2499929,58.1694437 L27.1358207,58.1694437 L27.1358207,54.3454646 L65.0187049,54.3454646 C65.0187049,54.3454646 83.2,56.4028484 83.2,27.7975604 C83.2,-0.8072904 67.3309189,0.20719 67.3309189,0.20719 L57.8603074,0.20719 L57.8603074,13.4807049 C57.8603074,13.4807049 58.3708703,29.314471 42.2445357,29.314471 L15.3525569,29.314471 C15.3525569,29.314471 0.2438419,29.0709083 0.2438419,43.8845094 L0.2438419,68.3776534 C0.2438419,68.3776534 -2.0504039,83.2 27.6424392,83.2 L27.6428775,83.2 Z M42.5933837,74.635513 C41.2993708,74.636673 40.0580226,74.124286 39.1430169,73.211317 C38.2280112,72.298347 37.7144821,71.059762 37.7156439,69.7686285 C37.7143656,68.4774195 38.2278434,67.2387214 39.1428617,66.3256573 C40.0578801,65.4125932 41.2992948,64.9001469 42.5933837,64.9013067 C43.8873967,64.9001471 45.1287448,65.4125334 46.0437505,66.3255029 C46.9587562,67.2384723 47.4722854,68.477058 47.4711232,69.7681912 C47.4722854,71.059325 46.9587562,72.29791 46.0437505,73.21088 C45.1287448,74.123849 43.8873967,74.636235 42.5933837,74.635074 L42.5933837,74.635513 Z" id="path-3"></path>
                            </g>
                            <g id="path-3-link" fill="#FFFFFF">
                                <path d="M27.6428775,83.2 C56.0555884,83.2 54.281547,70.9059835 54.281547,70.9059835 L54.2499929,58.1694437 L27.1358207,58.1694437 L27.1358207,54.3454646 L65.0187049,54.3454646 C65.0187049,54.3454646 83.2,56.4028484 83.2,27.7975604 C83.2,-0.8072904 67.3309189,0.20719 67.3309189,0.20719 L57.8603074,0.20719 L57.8603074,13.4807049 C57.8603074,13.4807049 58.3708703,29.314471 42.2445357,29.314471 L15.3525569,29.314471 C15.3525569,29.314471 0.2438419,29.0709083 0.2438419,43.8845094 L0.2438419,68.3776534 C0.2438419,68.3776534 -2.0504039,83.2 27.6424392,83.2 L27.6428775,83.2 Z M42.5933837,74.635513 C41.2993708,74.636673 40.0580226,74.124286 39.1430169,73.211317 C38.2280112,72.298347 37.7144821,71.059762 37.7156439,69.7686285 C37.7143656,68.4774195 38.2278434,67.2387214 39.1428617,66.3256573 C40.0578801,65.4125932 41.2992948,64.9001469 42.5933837,64.9013067 C43.8873967,64.9001471 45.1287448,65.4125334 46.0437505,66.3255029 C46.9587562,67.2384723 47.4722854,68.477058 47.4711232,69.7681912 C47.4722854,71.059325 46.9587562,72.29791 46.0437505,73.21088 C45.1287448,74.123849 43.8873967,74.636235 42.5933837,74.635074 L42.5933837,74.635513 Z" id="path-3"></path>
                            </g>
                        </g>
                    </g>
                </g>
                <g id="4.4-home-integrate-java" transform="translate(319.000000, 0.000000)">
                    <circle id="Oval-Copy-9" fill="#E76F00" cx="93.5" cy="93.5" r="93.5"></circle>
                    <g id="java-14-copy" transform="translate(40.800000, 15.300000)" fill="#FFFFFF">
                        <path d="M32.4050718,104.633638 C32.4050718,104.633638 27.339794,107.583489 36.0100236,108.581634 C46.5140081,109.78156 51.8820972,109.609758 63.457627,107.41553 C63.457627,107.41553 66.5010921,109.326495 70.7508134,110.981871 C44.8022988,122.119048 12.0234502,110.336555 32.4050718,104.633638 M29.2341879,90.1 C29.2341879,90.1 23.5529251,94.3116571 32.2296791,95.2102566 C43.450202,96.3694424 52.3111759,96.4643757 67.6444065,93.5076065 C67.6444065,93.5076065 69.7652373,95.6607095 73.1,96.8383438 C41.7262114,106.025737 6.78162844,97.5628349 29.2341879,90.1" id="Shape"></path>
                        <path d="M55.3689185,64.0178738 C61.9857374,71.4825604 53.6305141,78.2 53.6305141,78.2 C53.6305141,78.2 70.4311177,69.7012324 62.715335,59.0584107 C55.5091188,49.1340359 49.9825261,44.2022054 79.9,27.2 C79.9,27.2 32.93965,38.6928152 55.3689185,64.0174846" id="Path"></path>
                        <path d="M90.183983,114.557738 C90.183983,114.557738 93.9668369,117.638203 86.0176925,120.021573 C70.9025438,124.547526 23.1062022,125.914154 9.8284508,120.201876 C5.05563328,118.150019 14.0063606,115.301919 16.8217149,114.703971 C19.7579098,114.074633 21.4361227,114.192155 21.4361227,114.192155 C16.1280432,110.496133 -12.8729331,121.449068 6.70518532,124.585424 C60.0969903,133.143505 104.033016,120.732067 90.183983,114.557738 M34.2316735,74.3773238 C34.2316735,74.3773238 9.91985589,80.0850082 25.6225533,82.1571542 C32.2525209,83.0345528 45.4694646,82.8362576 57.7808783,81.816454 C67.8424099,80.978102 77.9453836,79.1942113 77.9453836,79.1942113 C77.9453836,79.1942113 74.3976266,80.6959717 71.8309252,82.4281831 C47.1422553,88.8459785 -0.551836657,85.8604499 13.1786798,79.2956558 C24.7906121,73.7479855 34.2320608,74.3773238 34.2320608,74.3773238 M77.8450703,98.4720975 C102.942739,85.5821477 91.3385532,73.1952091 83.2391326,74.864257 C81.2537831,75.2723316 80.3687804,75.6260472 80.3687804,75.6260472 C80.3687804,75.6260472 81.1058308,74.485276 82.5133142,73.9914521 C98.5363168,68.423493 110.85935,90.4128164 77.3407931,99.1217252 C77.3407931,99.1221074 77.7292647,98.7791104 77.8450703,98.4720975" id="Shape"></path>
                        <path d="M62.7843058,0 C62.7843058,0 76.4869453,13.8504167 49.7880471,35.1466717 C28.3786036,52.230434 44.9060021,61.9709794 49.779265,73.1 C37.2820546,61.7074816 28.1105608,51.6783617 34.2637092,42.344444 C43.2943087,28.6421725 68.3127846,21.999173 62.7843058,0" id="Path"></path>
                        <path d="M37.3847751,133.905137 C61.1856788,135.353098 97.7344291,133.101887 98.6,122.4 C98.6,122.4 96.9362059,126.457343 78.9298822,129.679072 C58.6153695,133.311699 33.5604977,132.887711 18.7,130.559411 C18.7,130.559411 21.7421258,132.952073 37.3851578,133.905137" id="Path"></path>
                    </g>
                </g>
                <g id="4.5-home-integrate-node-js" transform="translate(562.000000, 0.000000)">
                    <circle id="Oval-Copy-10" fill="#8CC84B" cx="93.5" cy="93.5" r="93.5"></circle>
                    <g id="nodejs-icon-copy" transform="translate(45.900000, 40.800000)" fill="#FFFFFF">
                        <path d="M44.8513,1.16074275 C47.5454539,-0.383424831 51.0545873,-0.390399741 53.7464193,1.16074275 C67.2887798,8.82306893 80.8353972,16.4733828 94.3754358,24.1403589 C96.9221504,25.5768028 98.6256357,28.4148162 98.6,31.3531908 L98.6,77.4526963 C98.6186701,80.5127443 96.7468485,83.4185693 94.0600472,84.8224637 C80.5621894,92.4425529 67.0712971,100.071942 53.5757612,107.692031 C50.8258822,109.266423 47.2463184,109.145138 44.582349,107.441709 C40.5357005,105.092715 36.4820864,102.755345 32.4350509,100.408675 C31.6080749,99.9150066 30.6758404,99.5220866 30.0918878,98.719197 C30.6081189,98.022481 31.5310659,97.9356821 32.2810329,97.6314985 C33.9702,97.0936555 35.5216023,96.2303166 37.0733916,95.3925524 C37.4657892,95.1236309 37.9448703,95.2267045 38.3210147,95.4673389 C41.7813887,97.4540258 45.2111913,99.4984494 48.6831747,101.466149 C49.4238541,101.894331 50.1738211,101.325876 50.8069202,100.97248 C64.0524672,93.4763896 77.3142673,86.0085859 90.5574924,78.5101701 C91.0481829,78.2737982 91.3194558,77.7522299 91.2795969,77.2139994 C91.2888844,62.006758 91.2819188,46.7968042 91.2842406,31.5895628 C91.3403527,30.9788707 90.9874271,30.4173904 90.4359808,30.1674561 C76.9849475,22.5822415 63.5408798,14.9854019 50.0921684,7.3982498 C49.6152284,7.06992258 48.9857718,7.06899884 48.5078728,7.39592483 C35.0591614,14.9854019 21.6174156,22.5892164 8.16870417,30.1740436 C7.61919275,30.4243653 7.25040094,30.9765457 7.31580053,31.5895628 C7.31812241,46.7968042 7.31580053,62.006758 7.31580053,77.2163243 C7.26803821,77.7541904 7.55989624,78.2649261 8.04719249,78.4962203 C11.6360438,80.5340565 15.2295389,82.5575554 18.8207121,84.5884167 C20.8438428,85.6788277 23.3278666,86.3267193 25.5568707,85.4912801 C27.5238893,84.7848767 28.9026986,82.7749401 28.8651616,80.6836296 C28.8837366,65.5651246 28.8558741,50.4442946 28.8790928,35.3281146 C28.8299464,34.6569732 29.4657543,34.1024679 30.1174284,34.1656296 C31.8418107,34.1540047 33.5685149,34.1423799 35.2928972,34.1702795 C36.0126798,34.1540047 36.508014,34.8766829 36.4190086,35.5528617 C36.412043,50.767078 36.4375837,65.9816817 36.4073992,81.195898 C36.412043,85.2506457 34.7484165,89.6626638 31.0028384,91.6466382 C26.3884904,94.0401948 20.6851811,93.5325764 16.1265582,91.2374435 C12.1801375,89.2650939 8.41404941,86.9374114 4.53767205,84.8244012 C1.84390517,83.4282567 -0.0186289399,80.5108068 3.76261305e-13,77.4530838 L3.76261305e-13,31.3531908 C-0.0279164568,28.3539795 1.74329041,25.4644293 4.36933581,24.0489101 C17.8648718,16.4226209 31.3580859,8.79051935 44.8513,1.16074275 Z" id="Path"></path>
                        <path d="M57.3479213,32.4503795 C63.3194298,32.0707282 69.7122024,32.2254584 75.0857748,35.1312065 C79.2462005,37.3579256 81.5527496,42.0312435 81.6261666,46.5967543 C81.5099557,47.2125728 80.8582329,47.5522813 80.2630451,47.5100116 C78.5304832,47.5076849 76.7975287,47.5332793 75.0649668,47.4983778 C74.3300119,47.526299 73.9028586,46.8569648 73.8105967,46.215164 C73.3127746,44.0307146 72.1066948,41.8672062 70.0251079,40.8135671 C66.8297031,39.2333023 63.1246981,39.3128003 59.6403367,39.3457629 C57.0966547,39.4791644 54.3613819,39.6967174 52.206378,41.1742165 C50.5519443,42.2933929 50.049411,44.5526867 50.6398876,46.372221 C51.1966002,47.6787025 52.7234376,48.1002357 53.9727039,48.4888063 C61.1691371,50.3478956 68.7950792,50.1629174 75.854101,52.6095163 C78.776646,53.6069251 81.6355891,55.5459002 82.6359443,58.5683747 C83.9444938,62.6192815 83.3708992,67.4612902 80.4530655,70.7133394 C78.0868406,73.3895128 74.6405617,74.846071 71.2033128,75.6371728 C66.6306528,76.6442765 61.885247,76.669871 57.2415256,76.2227433 C52.8749828,75.7310192 48.3309829,74.5978822 44.960084,71.6591714 C42.0775847,69.1869781 40.6697064,65.3350101 40.8094735,61.6172192 C40.8428448,60.989379 41.4757226,60.5515584 42.0846516,60.6031352 C43.8293842,60.5891746 45.5741169,60.584521 47.3188495,60.6054619 C48.0157218,60.556212 48.5323888,61.1510895 48.5681158,61.7998706 C48.8900511,63.8811665 49.6819336,66.0656159 51.5193208,67.2995797 C55.0653211,69.5592614 59.5147034,69.4045311 63.575015,69.4677417 C66.938847,69.3203796 70.7149133,69.2757832 73.4600012,67.0796999 C74.9083177,65.827122 75.337434,63.7314777 74.9460077,61.9286186 C74.5219953,60.4065231 72.9099628,59.697246 71.5256408,59.2334431 C64.4214695,57.0137044 56.7103323,57.8191547 49.6748667,55.3089574 C46.8186719,54.3119364 44.056702,52.4268648 42.9593735,49.5284848 C41.4282175,45.4263889 42.1298011,40.3524788 45.3534734,37.2101757 C48.4966618,34.0845478 53.0339874,32.880832 57.3479213,32.4499917 L57.3479213,32.4503795 Z" id="Path"></path>
                    </g>
                </g>
                <g id="4.6-home-integrate-typescript" transform="translate(805.000000, 0.000000)">
                    <circle id="Oval-Copy-11" fill="#007ACC" cx="93.5" cy="93.5" r="93.5"></circle>
                    <g id="Shape-Copy-5" transform="translate(49.000000, 68.000000)">
                        <g id="path-1-link" fill="#000000">
                            <path d="M0.3,5.147927 L0.3,10.2028192 L15.9848829,10.2028192 L15.9848829,56.1 L27.1151171,56.1 L27.1151171,10.2028192 L42.8,10.2028192 L42.8,5.2409619 C42.8,2.4499171 42.8,0.1860697 42.6793471,0.1240464 C42.6793471,0.0310116 33.1176011,0 21.5047551,0 L0.3904897,0.0930348 L0.3904897,5.1789386 L0.3,5.147927 Z M71.418557,0.6163531 C74.505943,1.3659059 76.866885,2.8025488 78.985679,5.0824387 C80.105613,6.3316934 81.77038,8.5178891 81.891454,9.0800538 C81.891454,9.267442 76.655006,12.921512 73.476815,14.9515509 C73.355741,15.045245 72.871445,14.5143118 72.387149,13.7022962 C70.813188,11.391175 69.208958,10.3917712 66.696673,10.204383 C63.064455,9.9545321 60.642976,11.9221082 60.642976,15.2014018 C60.642976,16.2008056 60.824587,16.7629702 61.187809,17.5749858 C62.005058,19.292711 63.518482,20.3233462 68.210098,22.4470792 C76.866885,26.2885374 80.620178,28.8182782 82.890314,32.441117 C85.463136,36.501195 86.038237,42.872394 84.312933,47.650793 C82.37575,52.866431 77.653866,56.395576 70.903993,57.551137 C68.785199,57.925913 63.942241,57.86345 61.672104,57.457443 C56.829147,56.520502 52.198068,54.021992 49.3528301,50.805161 C48.2328961,49.555906 46.0838335,46.21415 46.2049074,45.995531 L47.3551099,45.245978 L51.895383,42.528849 L55.315722,40.467578 L56.102703,41.560676 C57.101563,43.184707 59.341431,45.370903 60.642976,46.120456 C64.577879,48.212958 69.844596,47.931875 72.447686,45.495829 C73.56762,44.433962 74.051916,43.309633 74.051916,41.748065 C74.051916,40.311422 73.840036,39.655563 73.143861,38.562465 C72.17527,37.188285 70.238086,36.063956 64.789759,33.565446 C58.524182,30.8170858 55.860555,29.0681292 53.378539,26.3822315 C51.95592,24.7582004 50.6543751,22.2284596 50.0490053,20.135958 C49.594978,18.3245386 49.4436356,13.8896844 49.8673944,12.1094964 C51.168939,5.8632229 55.739481,1.4908314 62.277474,0.2415767 C64.396268,-0.1956625 69.390569,-0.0082743 71.479094,0.5538903 L71.418557,0.6163531 L71.418557,0.6163531 Z" id="path-1"></path>
                        </g>
                        <g id="path-1-link" fill="#FFFFFF">
                            <path d="M0.3,5.147927 L0.3,10.2028192 L15.9848829,10.2028192 L15.9848829,56.1 L27.1151171,56.1 L27.1151171,10.2028192 L42.8,10.2028192 L42.8,5.2409619 C42.8,2.4499171 42.8,0.1860697 42.6793471,0.1240464 C42.6793471,0.0310116 33.1176011,0 21.5047551,0 L0.3904897,0.0930348 L0.3904897,5.1789386 L0.3,5.147927 Z M71.418557,0.6163531 C74.505943,1.3659059 76.866885,2.8025488 78.985679,5.0824387 C80.105613,6.3316934 81.77038,8.5178891 81.891454,9.0800538 C81.891454,9.267442 76.655006,12.921512 73.476815,14.9515509 C73.355741,15.045245 72.871445,14.5143118 72.387149,13.7022962 C70.813188,11.391175 69.208958,10.3917712 66.696673,10.204383 C63.064455,9.9545321 60.642976,11.9221082 60.642976,15.2014018 C60.642976,16.2008056 60.824587,16.7629702 61.187809,17.5749858 C62.005058,19.292711 63.518482,20.3233462 68.210098,22.4470792 C76.866885,26.2885374 80.620178,28.8182782 82.890314,32.441117 C85.463136,36.501195 86.038237,42.872394 84.312933,47.650793 C82.37575,52.866431 77.653866,56.395576 70.903993,57.551137 C68.785199,57.925913 63.942241,57.86345 61.672104,57.457443 C56.829147,56.520502 52.198068,54.021992 49.3528301,50.805161 C48.2328961,49.555906 46.0838335,46.21415 46.2049074,45.995531 L47.3551099,45.245978 L51.895383,42.528849 L55.315722,40.467578 L56.102703,41.560676 C57.101563,43.184707 59.341431,45.370903 60.642976,46.120456 C64.577879,48.212958 69.844596,47.931875 72.447686,45.495829 C73.56762,44.433962 74.051916,43.309633 74.051916,41.748065 C74.051916,40.311422 73.840036,39.655563 73.143861,38.562465 C72.17527,37.188285 70.238086,36.063956 64.789759,33.565446 C58.524182,30.8170858 55.860555,29.0681292 53.378539,26.3822315 C51.95592,24.7582004 50.6543751,22.2284596 50.0490053,20.135958 C49.594978,18.3245386 49.4436356,13.8896844 49.8673944,12.1094964 C51.168939,5.8632229 55.739481,1.4908314 62.277474,0.2415767 C64.396268,-0.1956625 69.390569,-0.0082743 71.479094,0.5538903 L71.418557,0.6163531 L71.418557,0.6163531 Z" id="path-1"></path>
                        </g>
                    </g>
                </g>
                <g id="4.7-home-integrate-c" transform="translate(243.000000, 220.000000)">
                    <circle id="Oval-Copy-13" fill="#2F7BF6" cx="93.5" cy="93.5" r="93.5"></circle>
                    <g id="Group-10-Copy-2" transform="translate(56.100000, 59.500000)">
                        <g id="Group-10">
                            <g id="Path">
                                <g id="path-1-link" fill="#000000">
                                    <path d="M35.983898,0 C47.3225742,0 57.8061651,5.21787035 64.6,14.096386 L51.457442,21.6500984 C47.5099904,17.3619155 41.8992191,14.875 35.983898,14.875 C24.4109517,14.875 14.9932909,24.2183594 14.9932909,35.7 C14.9932909,47.1816406 24.4109517,56.525 35.983898,56.525 C41.8992191,56.525 47.5099904,54.0380874 51.457442,49.7499016 L64.6,57.303614 C57.8061651,66.1821297 47.3225742,71.4 35.983898,71.4 C16.1412162,71.4 0,55.3861343 0,35.7 C0,16.0138687 16.1412162,0 35.983898,0 Z" id="path-1"></path>
                                </g>
                                <g id="path-1-link" fill="#FFFFFF">
                                    <path d="M35.983898,0 C47.3225742,0 57.8061651,5.21787035 64.6,14.096386 L51.457442,21.6500984 C47.5099904,17.3619155 41.8992191,14.875 35.983898,14.875 C24.4109517,14.875 14.9932909,24.2183594 14.9932909,35.7 C14.9932909,47.1816406 24.4109517,56.525 35.983898,56.525 C41.8992191,56.525 47.5099904,54.0380874 51.457442,49.7499016 L64.6,57.303614 C57.8061651,66.1821297 47.3225742,71.4 35.983898,71.4 C16.1412162,71.4 0,55.3861343 0,35.7 C0,16.0138687 16.1412162,0 35.983898,0 Z" id="path-1"></path>
                                </g>
                            </g>
                            <g id="Combined-Shape" transform="translate(57.000000, 23.000000)">
                                <g id="path-3-link" fill="#000000">
                                    <path d="M6.24,0.8 L11.68,0.8 L11.68,6.24 L17.12,6.24 L17.12,0.8 L22.56,0.8 L22.56,6.24 L28,6.24 L28,11.68 L22.56,11.68 L22.56,17.12 L28,17.12 L28,22.56 L22.56,22.56 L22.56,28 L17.12,28 L17.12,22.56 L11.68,22.56 L11.68,28 L6.24,28 L6.24,22.56 L0.8,22.56 L0.8,17.12 L6.24,17.12 L6.24,11.68 L0.8,11.68 L0.8,6.24 L6.24,6.24 L6.24,0.8 Z M11.68,11.68 L11.68,17.12 L17.12,17.12 L17.12,11.68 L11.68,11.68 Z" id="path-3"></path>
                                </g>
                                <g id="path-3-link" fill="#FFFFFF">
                                    <path d="M6.24,0.8 L11.68,0.8 L11.68,6.24 L17.12,6.24 L17.12,0.8 L22.56,0.8 L22.56,6.24 L28,6.24 L28,11.68 L22.56,11.68 L22.56,17.12 L28,17.12 L28,22.56 L22.56,22.56 L22.56,28 L17.12,28 L17.12,22.56 L11.68,22.56 L11.68,28 L6.24,28 L6.24,22.56 L0.8,22.56 L0.8,17.12 L6.24,17.12 L6.24,11.68 L0.8,11.68 L0.8,6.24 L6.24,6.24 L6.24,0.8 Z M11.68,11.68 L11.68,17.12 L17.12,17.12 L17.12,11.68 L11.68,11.68 Z" id="path-3"></path>
                                </g>
                            </g>
                        </g>
                    </g>
                </g>
                <g id="4.7-home-integrate-go" transform="translate(486.000000, 220.000000)">
                    <circle id="Oval-Copy-13" fill="#3ABCAF" cx="93.5" cy="93.5" r="93.5"></circle>
                    <path d="M20.3045685,79.8947368 C20,79.8947368 19.9238579,79.6842105 20.0761421,79.3684211 L21.6751269,76.5263158 C21.8274112,76.2105263 22.2081218,76 22.5126903,76 L49.6954314,76 C50,76 50.0761422,76.3157895 49.9238578,76.6315789 L48.6294415,79.3684211 C48.4771573,79.6842105 48.0964467,80 47.8680202,80 L20.3045685,79.8947368 Z" id="Shape" fill="#FFFFFF"></path>
                    <path d="M10.2994407,88 C10,88 9.92513983,87.783784 10.0748602,87.4594597 L11.6469237,84.5405406 C11.796644,84.216216 12.1709449,84 12.4703855,84 L46.6066223,84 C46.9060629,84 47.0557833,84.3243243 46.9809231,84.6486486 L46.3820417,87.2432434 C46.3071815,87.6756757 46.007741,87.891892 45.7083002,87.891892 L10.2994407,88 Z" id="Shape" fill="#FFFFFF"></path>
                    <path d="M29.2770563,95.8947369 C29,95.8947369 28.9307359,95.5789475 29.0692641,95.2631581 L30.4875667,92.6315788 C30.626095,92.3157894 30.9031512,92 31.1802075,92 L45.0330212,92 C45.3100776,92 45.4486058,92.3157894 45.4486058,92.7368419 L45.3100776,95.2631581 C45.3100776,95.6842106 45.0330212,96 44.8252291,96 L29.2770563,95.8947369 Z" id="Shape" fill="#FFFFFF"></path>
                    <g id="Group" transform="translate(50.000000, 62.000000)" fill="#FFFFFF">
                        <path d="M54.5630002,15.9658363 C49.9105463,17.157632 46.7350617,18.0514788 42.1564563,19.2432744 C41.048729,19.5412233 40.9748806,19.6157107 40.0148504,18.4984022 C38.9071233,17.2321192 38.0947901,16.4127597 36.5439721,15.6678874 C31.891518,13.3587833 27.3867611,14.0291683 23.1773979,16.7851959 C18.1557016,20.062634 15.5710049,24.904304 15.6448534,30.9377697 C15.7187019,36.896748 19.7803681,41.8129052 25.6143976,42.6322648 C30.636094,43.3026498 34.8454572,41.5149563 38.1686385,37.7161076 C38.8332748,36.896748 39.4240626,36.0029013 40.1625473,34.9600802 C37.5040023,34.9600802 34.1808209,34.9600802 25.9097915,34.9600802 C24.3589735,34.9600802 23.9897311,33.991746 24.5066704,32.7254632 C25.4667006,30.416359 27.2390642,26.5430231 28.2729428,24.6063551 C28.4944882,24.1594316 29.0114276,23.4145594 30.1191547,23.4145594 C33.885427,23.4145594 47.7689404,23.4145594 57,23.4145594 C56.8523031,25.4257146 56.8523031,27.4368699 56.5569092,29.4480251 C55.7445758,34.8111056 53.750667,39.7272628 50.5013341,44.0475222 C45.1842438,51.123809 38.242487,55.5185556 29.4545184,56.7103513 C22.2173677,57.6786854 15.4971564,56.263428 9.58927835,51.7941942 C4.12449113,47.6229092 1.02285514,42.1108542 0.210521902,35.2580291 C-0.749508286,27.138921 1.61364295,19.8391724 6.48764236,13.4332705 C11.7308842,6.50595807 18.672641,2.11121149 27.1652157,0.546979647 C34.1069725,-0.71930327 40.7533351,0.100056265 46.7350617,4.19685394 C50.649031,6.80390699 53.4552731,10.379294 55.3014849,14.6995534 C55.7445758,15.3699385 55.4491819,15.7423746 54.5630002,15.9658363 Z" id="Shape"></path>
                        <path d="M79.4666047,58 C72.7208987,57.8496207 66.5682218,55.8946909 61.3792171,51.383314 C57.0056276,47.5486437 54.2628679,42.661319 53.3733243,36.8717187 C52.0390088,28.3752924 54.3369965,20.856331 59.3777439,14.1644555 C64.7891345,6.94625265 71.3124544,3.186772 80.1337624,1.60779011 C87.6948834,0.254377074 94.8112326,1.00627321 101.260424,5.44246038 C107.116586,9.5026995 110.74889,14.9915413 111.712562,22.2097441 C112.972749,32.360342 110.081732,40.6311994 103.187769,47.699023 C98.2952785,52.7367271 92.2908588,55.8946909 85.3968955,57.3232935 C83.3954224,57.6992416 81.3939492,57.7744311 79.4666047,58 Z M97.1092203,27.6233962 C97.0350917,26.6459313 97.0350917,25.8940351 96.8868344,25.1421391 C95.552519,17.6983673 88.806813,13.487749 81.7645924,15.1419205 C74.8706291,16.7209024 70.4229108,21.1570895 68.7920808,28.2249131 C67.4577654,34.0897029 70.2746535,40.0296825 75.6119155,42.4357501 C79.6889906,44.2403008 83.7660656,44.0147319 87.6948834,41.9846123 C93.5510456,38.9018383 96.7385772,34.0897029 97.1092203,27.6233962 Z" id="Shape"></path>
                    </g>
                </g>
                <g id="4.7-home-integrate-javascript" transform="translate(729.000000, 220.000000)">
                    <circle id="Oval-Copy-12" fill="#F7DF1E" cx="93.5" cy="93.5" r="93.5"></circle>
                    <g id="Shape-Copy-6" transform="translate(44.000000, 64.000000)">
                        <g id="path-1-link" fill="#000000">
                            <path d="M0.200543,53.199591 L10.8385581,46.730698 C12.8912226,50.38691 14.7581698,53.480587 19.2365624,53.480587 C23.5292377,53.480587 26.2362568,51.793523 26.2362568,45.230783 L26.2362568,0.6 L39.3,0.6 L39.3,45.416294 C39.3,59.011556 31.368461,65.2 19.7964293,65.2 C9.3457606,65.2 3.2795397,59.761786 0.2,53.1985 M46.1005282,51.945717 L56.44622,45.829061 C59.169966,50.370844 62.709727,53.707202 68.971649,53.707202 C74.236924,53.707202 77.593939,51.019131 77.593939,47.311707 C77.593939,42.86323 74.145023,41.287278 68.336267,38.693052 L65.160412,37.301555 C55.993055,33.3174492 49.9122936,28.3123731 49.9122936,17.7467005 C49.9122936,8.0148477 57.172975,0.6 68.518483,0.6 C76.596236,0.6 82.404992,3.4736041 86.579607,10.9806789 L76.686024,17.4689404 C74.507344,13.4837563 72.14856,11.9083439 68.517955,11.9083439 C64.796506,11.9083439 62.436666,14.3181155 62.436666,17.4689404 C62.436666,21.3613579 64.796506,22.937849 70.241885,25.3476206 L73.418268,26.7375 C84.219239,31.464816 90.3,36.28382 90.3,47.126713 C90.3,58.805584 81.31486,65.2 69.243654,65.2 C57.44498,65.2 49.8209211,59.453871 46.1,51.946256" id="path-1"></path>
                        </g>
                        <g id="path-1-link" fill="#FFFFFF">
                            <path d="M0.200543,53.199591 L10.8385581,46.730698 C12.8912226,50.38691 14.7581698,53.480587 19.2365624,53.480587 C23.5292377,53.480587 26.2362568,51.793523 26.2362568,45.230783 L26.2362568,0.6 L39.3,0.6 L39.3,45.416294 C39.3,59.011556 31.368461,65.2 19.7964293,65.2 C9.3457606,65.2 3.2795397,59.761786 0.2,53.1985 M46.1005282,51.945717 L56.44622,45.829061 C59.169966,50.370844 62.709727,53.707202 68.971649,53.707202 C74.236924,53.707202 77.593939,51.019131 77.593939,47.311707 C77.593939,42.86323 74.145023,41.287278 68.336267,38.693052 L65.160412,37.301555 C55.993055,33.3174492 49.9122936,28.3123731 49.9122936,17.7467005 C49.9122936,8.0148477 57.172975,0.6 68.518483,0.6 C76.596236,0.6 82.404992,3.4736041 86.579607,10.9806789 L76.686024,17.4689404 C74.507344,13.4837563 72.14856,11.9083439 68.517955,11.9083439 C64.796506,11.9083439 62.436666,14.3181155 62.436666,17.4689404 C62.436666,21.3613579 64.796506,22.937849 70.241885,25.3476206 L73.418268,26.7375 C84.219239,31.464816 90.3,36.28382 90.3,47.126713 C90.3,58.805584 81.31486,65.2 69.243654,65.2 C57.44498,65.2 49.8209211,59.453871 46.1,51.946256" id="path-1"></path>
                        </g>
                    </g>
                </g>
                <g id="4.7-home-integrate-net" transform="translate(972.000000, 220.000000)">
                    <circle id="Oval-Copy-13" fill="#632294" cx="93.5" cy="93.5" r="93.5"></circle>
                    <g id="Group-5" transform="translate(26.000000, 66.000000)" fill="#FFFFFF">
                        <polygon id="Fill-2" points="42.3637783 0 42.3637783 39.2569553 19.030445 0 13 0 13 50 18.6368722 50 18.6368722 10.7094376 41.969555 50 48 50 48 0"></polygon>
                        <polygon id="Fill-3" points="58 0 58 50 93 50 93 44.0996613 64.2067308 44.0996613 64.2067308 27.08067 90.1531593 27.08067 90.1531593 21.2145973 64.2067308 21.2145973 64.2067308 5.90033871 91.9127747 5.90033871 91.9127747 0"></polygon>
                        <polygon id="Fill-4" points="98 0 98 5.90033871 112.547285 5.90033871 112.547285 50 118.391287 50 118.391287 5.90033871 133 5.90033871 133 0"></polygon>
                        <circle id="Oval" cx="3.5" cy="46.5" r="3.5"></circle>
                    </g>
                </g>
                <g id="4.8-home-integrate-php" transform="translate(1048.000000, 0.000000)">
                    <circle id="Oval-Copy-14" fill="#8993BE" cx="93.5" cy="93.5" r="93.5"></circle>
                    <g id="Shape-Copy-4" transform="translate(39.000000, 62.000000)">
                        <g id="path-1-link" fill="#000000">
                            <path d="M0.1,55.631707 L8.2464078,13.2146341 L27.0833787,13.2146341 C35.2292058,13.7384713 39.3024096,17.9273768 39.3024096,25.2593053 C39.3024096,37.8272164 29.6292763,45.158548 20.9735729,44.63471 L11.810316,44.63471 L9.773714,55.631707 L0.1,55.631707 Z M13.8463372,36.7801394 L13.8469179,36.7801394 L19.956143,36.7801394 C24.5380618,36.2563022 28.6112657,34.685388 29.1199807,25.7825452 C29.1199807,22.6407168 26.5746638,21.0698026 23.0107556,21.0698026 L16.3922348,21.0698026 L13.8463372,36.7801394 Z M39.3024096,43.317073 L47.4086353,0.9 L57.03532,0.9 L55.0086191,11.8965544 L64.127906,11.8965544 C72.23471,12.4203989 75.274472,16.6093634 74.261411,21.8466143 L70.714829,43.317073 L60.5819021,43.317073 L64.128484,23.9413952 C64.634726,21.3227698 64.634726,19.7518334 61.088722,19.7518334 L53.4887379,19.7518334 L48.9290944,43.317073 L39.3024096,43.317073 L39.3024096,43.317073 Z M73.09759,57 L81.243297,14.5829268 L100.080569,14.5829268 C108.226856,15.106764 112.3,19.2956695 112.3,26.627598 C112.3,39.195509 102.626429,46.52684 93.971435,46.003003 L84.807152,46.003003 L82.77058,57 L73.09759,57 Z M86.843143,38.148432 L86.843724,38.148432 L92.953439,38.148432 C97.53529,37.6245949 101.608434,36.0536807 102.117141,27.1508379 C102.117141,24.0090095 99.571862,22.4380952 96.008007,22.4380952 L89.389003,22.4380952 L86.843143,38.148432 Z" id="path-1"></path>
                        </g>
                        <g id="path-1-link" fill="#FFFFFF">
                            <path d="M0.1,55.631707 L8.2464078,13.2146341 L27.0833787,13.2146341 C35.2292058,13.7384713 39.3024096,17.9273768 39.3024096,25.2593053 C39.3024096,37.8272164 29.6292763,45.158548 20.9735729,44.63471 L11.810316,44.63471 L9.773714,55.631707 L0.1,55.631707 Z M13.8463372,36.7801394 L13.8469179,36.7801394 L19.956143,36.7801394 C24.5380618,36.2563022 28.6112657,34.685388 29.1199807,25.7825452 C29.1199807,22.6407168 26.5746638,21.0698026 23.0107556,21.0698026 L16.3922348,21.0698026 L13.8463372,36.7801394 Z M39.3024096,43.317073 L47.4086353,0.9 L57.03532,0.9 L55.0086191,11.8965544 L64.127906,11.8965544 C72.23471,12.4203989 75.274472,16.6093634 74.261411,21.8466143 L70.714829,43.317073 L60.5819021,43.317073 L64.128484,23.9413952 C64.634726,21.3227698 64.634726,19.7518334 61.088722,19.7518334 L53.4887379,19.7518334 L48.9290944,43.317073 L39.3024096,43.317073 L39.3024096,43.317073 Z M73.09759,57 L81.243297,14.5829268 L100.080569,14.5829268 C108.226856,15.106764 112.3,19.2956695 112.3,26.627598 C112.3,39.195509 102.626429,46.52684 93.971435,46.003003 L84.807152,46.003003 L82.77058,57 L73.09759,57 Z M86.843143,38.148432 L86.843724,38.148432 L92.953439,38.148432 C97.53529,37.6245949 101.608434,36.0536807 102.117141,27.1508379 C102.117141,24.0090095 99.571862,22.4380952 96.008007,22.4380952 L89.389003,22.4380952 L86.843143,38.148432 Z" id="path-1"></path>
                        </g>
                    </g>
                </g>
                <g id="4.9-home-integrate-ruby-on-rails" transform="translate(0.000000, 220.000000)">
                    <circle id="Oval-Copy-15" fill="#A22716" cx="93.5" cy="93.5" r="93.5"></circle>
                    <g id="icons8-ruby-programming-language-copy" transform="translate(45.900000, 45.900000)">
                        <g id="Shape">
                            <g id="path-1-link" fill="#000000">
                                <path d="M51.5363357,0.0119090543 C51.1881974,0.0754280761 50.8558846,0.226286261 50.5868676,0.456542207 L31.9772931,7.31659655 C31.7241016,7.39599635 31.4867356,7.52303439 31.2810165,7.69771068 L12.9246335,24.9113656 C12.7743006,25.0384036 12.6477049,25.1892618 12.5448463,25.3559987 L0.51825057,46.0631998 C0.44704097,46.1664177 0.383743098,46.2696377 0.328356953,46.3807949 L0.265059081,46.507833 C0.241321872,46.5316531 0.225498417,46.5475318 0.201761209,46.571352 C0.201761209,46.6110509 0.201761209,46.6586912 0.201761209,46.69839 C0.178024,46.7380889 0.154288817,46.7857292 0.138463336,46.8254281 C0.114726128,46.8492482 0.0989026723,46.865127 0.0751654638,46.8889471 C0.0751654638,46.9127672 0.0751654638,46.928646 0.0751654638,46.9524661 C0.0514282553,46.992165 0.0276930723,47.0398053 0.0118675915,47.0795042 C0.0118675915,47.1033243 0.0118675915,47.119203 0.0118675915,47.1430232 C0.0118675915,47.1827221 0.0118675915,47.2303623 0.0118675915,47.2700612 C0.0118675915,47.2938814 0.0118675915,47.3097601 0.0118675915,47.3335803 C0.0118675915,47.3732791 0.0118675915,47.4209194 0.0118675915,47.4606183 C0.0118675915,47.4844384 0.0118675915,47.5003172 0.0118675915,47.5241373 C-0.00395586383,47.6511754 -0.00395586383,47.7782134 0.0118675915,47.9052514 L0.0118675915,73.0587841 C0.00395586383,73.1461232 0.00395586383,73.225521 0.0118675915,73.3128601 L0.0118675915,73.3763792 C0.00395586383,73.5669362 0.0276930723,73.7654327 0.0751654638,73.9480504 C0.486601634,82.8010145 4.08666863,87.9857542 8.43048461,90.526515 C12.5606718,92.9481772 16.9915229,93.1784352 19.7608038,93.257833 C19.9744346,93.2657723 20.2671867,93.2498936 20.4570804,93.257833 L20.646974,93.257833 C20.7577463,93.2419542 20.8606048,93.2260735 20.9634633,93.1943139 L21.0267612,93.1943139 L85.9070804,88.7479824 C86.0574133,88.7638632 86.1998325,88.7638632 86.3501655,88.7479824 C86.571708,88.7162229 86.7853388,88.6527039 86.9831442,88.5574254 C87.1176517,88.485967 87.2442474,88.3986278 87.3629314,88.3033493 C87.3866686,88.3033493 87.4024921,88.3033493 87.4262293,88.3033493 C88.0433846,87.8269566 88.3440484,87.0409082 88.1858038,86.2707406 L92.9964421,22.7517188 C93.0043538,22.71202 92.9885303,22.6643797 92.9964421,22.6246808 L93.1863357,20.210958 C93.2179846,19.9330617 93.2016183,19.6551675 93.1230378,19.3852107 C93.1230378,17.3208425 92.9331442,15.272355 92.4267612,13.2873846 C90.8680516,7.20543928 86.1760973,1.95717859 77.4251655,0.393023185 C77.2985697,0.361263674 77.171974,0.337443533 77.0453782,0.329504163 C77.0058176,0.329504163 76.9583431,0.329504163 76.9187825,0.329504163 L52.1693144,0.0119090543 C52.0189814,-0.00396968478 51.8765622,-0.00396968478 51.7262293,0.0119090543 C51.6629314,0.0119090543 51.5996335,0.0119090543 51.5363357,0.0119090543 Z M58.6889953,4.14064547 L69.2597399,4.26768351 L63.4363357,7.50715362 L58.6889953,4.14064547 Z M51.852825,4.33120253 L61.0943144,10.8736618 L54.5113357,31.898458 L29.6352718,55.1464199 L9.31665483,59.7197895 L4.31612291,47.6511754 L15.8996335,27.6426835 L33.7496335,11.0006998 L51.852825,4.33120253 Z M77.171974,4.5217596 C84.3088101,5.94299822 87.2838101,9.57152183 88.5022931,14.3036889 C89.5229708,18.2815672 88.9137293,23.0454938 87.8060165,27.4521264 L66.8544208,10.2384716 L77.171974,4.5217596 Z M64.5123995,13.5414607 L83.628357,29.2941781 L59.0687825,30.9456726 L64.5123995,13.5414607 Z M86.0336761,33.1688384 C81.8006304,44.6499026 74.4264283,54.4080118 66.0315484,63.5944498 L58.815591,34.947371 L86.0336761,33.1688384 Z M55.1443144,36.8529417 L62.1703782,64.9918683 L34.5725059,56.0356862 L55.1443144,36.8529417 Z M87.552825,40.4735259 L84.3879314,82.3960802 L67.9937825,67.7231862 C75.6370016,59.5133537 82.7026261,50.692149 87.552825,40.4735259 Z M4.06293142,57.7506998 L5.89856972,62.0064743 L4.06293142,65.3729824 L4.06293142,57.7506998 Z M32.1038889,59.5292324 L60.9044208,68.8030096 C50.1675197,78.4975998 38.3308176,86.1516419 23.4320804,88.4303873 L32.1038889,59.5292324 Z M27.7996335,59.7197895 L20.140591,85.2544362 L10.8991016,63.5309308 L27.7996335,59.7197895 Z M7.86080376,66.7704009 L17.2921867,88.9385395 C15.0609378,88.7162229 12.6397931,88.2477696 10.4560165,86.9694498 C7.20408783,85.0638792 4.45854414,81.5544542 4.12622929,73.6304552 L7.86080376,66.7704009 Z M65.0187825,70.5815422 L81.2863357,85.0638792 L40.5225059,87.7951971 C49.7165229,83.5711822 57.6683176,77.3701382 65.0187825,70.5815422 Z" id="path-1"></path>
                            </g>
                            <g id="path-1-link" fill="#FFFFFF">
                                <path d="M51.5363357,0.0119090543 C51.1881974,0.0754280761 50.8558846,0.226286261 50.5868676,0.456542207 L31.9772931,7.31659655 C31.7241016,7.39599635 31.4867356,7.52303439 31.2810165,7.69771068 L12.9246335,24.9113656 C12.7743006,25.0384036 12.6477049,25.1892618 12.5448463,25.3559987 L0.51825057,46.0631998 C0.44704097,46.1664177 0.383743098,46.2696377 0.328356953,46.3807949 L0.265059081,46.507833 C0.241321872,46.5316531 0.225498417,46.5475318 0.201761209,46.571352 C0.201761209,46.6110509 0.201761209,46.6586912 0.201761209,46.69839 C0.178024,46.7380889 0.154288817,46.7857292 0.138463336,46.8254281 C0.114726128,46.8492482 0.0989026723,46.865127 0.0751654638,46.8889471 C0.0751654638,46.9127672 0.0751654638,46.928646 0.0751654638,46.9524661 C0.0514282553,46.992165 0.0276930723,47.0398053 0.0118675915,47.0795042 C0.0118675915,47.1033243 0.0118675915,47.119203 0.0118675915,47.1430232 C0.0118675915,47.1827221 0.0118675915,47.2303623 0.0118675915,47.2700612 C0.0118675915,47.2938814 0.0118675915,47.3097601 0.0118675915,47.3335803 C0.0118675915,47.3732791 0.0118675915,47.4209194 0.0118675915,47.4606183 C0.0118675915,47.4844384 0.0118675915,47.5003172 0.0118675915,47.5241373 C-0.00395586383,47.6511754 -0.00395586383,47.7782134 0.0118675915,47.9052514 L0.0118675915,73.0587841 C0.00395586383,73.1461232 0.00395586383,73.225521 0.0118675915,73.3128601 L0.0118675915,73.3763792 C0.00395586383,73.5669362 0.0276930723,73.7654327 0.0751654638,73.9480504 C0.486601634,82.8010145 4.08666863,87.9857542 8.43048461,90.526515 C12.5606718,92.9481772 16.9915229,93.1784352 19.7608038,93.257833 C19.9744346,93.2657723 20.2671867,93.2498936 20.4570804,93.257833 L20.646974,93.257833 C20.7577463,93.2419542 20.8606048,93.2260735 20.9634633,93.1943139 L21.0267612,93.1943139 L85.9070804,88.7479824 C86.0574133,88.7638632 86.1998325,88.7638632 86.3501655,88.7479824 C86.571708,88.7162229 86.7853388,88.6527039 86.9831442,88.5574254 C87.1176517,88.485967 87.2442474,88.3986278 87.3629314,88.3033493 C87.3866686,88.3033493 87.4024921,88.3033493 87.4262293,88.3033493 C88.0433846,87.8269566 88.3440484,87.0409082 88.1858038,86.2707406 L92.9964421,22.7517188 C93.0043538,22.71202 92.9885303,22.6643797 92.9964421,22.6246808 L93.1863357,20.210958 C93.2179846,19.9330617 93.2016183,19.6551675 93.1230378,19.3852107 C93.1230378,17.3208425 92.9331442,15.272355 92.4267612,13.2873846 C90.8680516,7.20543928 86.1760973,1.95717859 77.4251655,0.393023185 C77.2985697,0.361263674 77.171974,0.337443533 77.0453782,0.329504163 C77.0058176,0.329504163 76.9583431,0.329504163 76.9187825,0.329504163 L52.1693144,0.0119090543 C52.0189814,-0.00396968478 51.8765622,-0.00396968478 51.7262293,0.0119090543 C51.6629314,0.0119090543 51.5996335,0.0119090543 51.5363357,0.0119090543 Z M58.6889953,4.14064547 L69.2597399,4.26768351 L63.4363357,7.50715362 L58.6889953,4.14064547 Z M51.852825,4.33120253 L61.0943144,10.8736618 L54.5113357,31.898458 L29.6352718,55.1464199 L9.31665483,59.7197895 L4.31612291,47.6511754 L15.8996335,27.6426835 L33.7496335,11.0006998 L51.852825,4.33120253 Z M77.171974,4.5217596 C84.3088101,5.94299822 87.2838101,9.57152183 88.5022931,14.3036889 C89.5229708,18.2815672 88.9137293,23.0454938 87.8060165,27.4521264 L66.8544208,10.2384716 L77.171974,4.5217596 Z M64.5123995,13.5414607 L83.628357,29.2941781 L59.0687825,30.9456726 L64.5123995,13.5414607 Z M86.0336761,33.1688384 C81.8006304,44.6499026 74.4264283,54.4080118 66.0315484,63.5944498 L58.815591,34.947371 L86.0336761,33.1688384 Z M55.1443144,36.8529417 L62.1703782,64.9918683 L34.5725059,56.0356862 L55.1443144,36.8529417 Z M87.552825,40.4735259 L84.3879314,82.3960802 L67.9937825,67.7231862 C75.6370016,59.5133537 82.7026261,50.692149 87.552825,40.4735259 Z M4.06293142,57.7506998 L5.89856972,62.0064743 L4.06293142,65.3729824 L4.06293142,57.7506998 Z M32.1038889,59.5292324 L60.9044208,68.8030096 C50.1675197,78.4975998 38.3308176,86.1516419 23.4320804,88.4303873 L32.1038889,59.5292324 Z M27.7996335,59.7197895 L20.140591,85.2544362 L10.8991016,63.5309308 L27.7996335,59.7197895 Z M7.86080376,66.7704009 L17.2921867,88.9385395 C15.0609378,88.7162229 12.6397931,88.2477696 10.4560165,86.9694498 C7.20408783,85.0638792 4.45854414,81.5544542 4.12622929,73.6304552 L7.86080376,66.7704009 Z M65.0187825,70.5815422 L81.2863357,85.0638792 L40.5225059,87.7951971 C49.7165229,83.5711822 57.6683176,77.3701382 65.0187825,70.5815422 Z" id="path-1"></path>
                            </g>
                        </g>
                    </g>
                </g>
            </g>
        </g>
    </g>
</svg>