<?xml version="1.0" encoding="UTF-8"?>
<svg width="438px" height="512px" viewBox="0 0 438 512" version="1.1" xmlns="http://www.w3.org/2000/svg" xmlns:xlink="http://www.w3.org/1999/xlink">
    <!-- Generator: Sketch 59.1 (86144) - https://sketch.com -->
    <title>t-consent-checklist</title>
    <desc>Created with Sketch.</desc>
    <g id="Page-1" stroke="none" stroke-width="1" fill="none" fill-rule="evenodd">
        <g id="t-consent-checklist" fill-rule="nonzero">
            <path d="M351.925,471.977 L4.591,471.977 C2.48,471.977 0.769,470.266 0.769,468.155 L0.769,3.822 C0.769,1.711 2.48,0 4.591,0 L351.925,0 C354.035,0 355.748429,1.711 355.748429,3.822 L355.748429,252.194 C355.748429,252.348 355.737,252.501 355.72,252.652 L355.72,336.276 C355.72,337.972 354.603,339.463 352.978,339.942 C351.348,340.425 349.604,339.772 348.686,338.346 L302.851,267.207 C299.649,262.242 294.2,259.277 288.278,259.277 C285.372,259.277 282.61,259.977 280.067,261.361 C272.485,265.473 269.054,274.643 272.082,282.695 L297.638,350.444 C297.71,350.636 297.767,350.832 297.807,351.032 L304.533,384.155 C310.811,414.973 327.594,443.001 351.792,463.075 L354.37,465.216 C355.607,466.245 356.067,467.941 355.522,469.455 C354.973,470.968 353.535,471.977 351.925,471.977 Z M8.413,464.333 L341.604,464.333 C318.926,443.574 303.199,415.896 297.043,385.677 L290.377,352.853 L264.93,285.391 C264.93,285.39 264.93,285.39 264.928,285.388 C260.561,273.782 265.5,260.563 276.419,254.642 C280.039,252.673 284.14,251.631 288.278,251.631 C296.808,251.631 304.658,255.904 309.276,263.063 L348.077,323.285 L348.077,252.167 C348.077,252.013 348.087,251.86 348.104,251.709 L348.104,7.644 L8.413,7.644 L8.413,464.333 Z" id="Shape" fill="#4A555F"></path>
            <path d="M437.232,512 L429.587,512 L429.587,357.422 C429.587,335.016 421.052,313.763 405.556,297.577 L355.71,245.508 L355.71,336.265 C355.71,337.961 354.593,339.452 352.968,339.931 C351.338,340.417 349.596,339.762 348.676,338.335 L302.851,267.217 C297.977,259.654 287.959,257.084 280.049,261.37 C272.472,265.473 269.051,274.646 272.092,282.705 L297.633,350.449 C297.705,350.641 297.762,350.836 297.802,351.036 L304.535,384.14 C310.803,414.958 327.586,442.992 351.789,463.078 L354.364,465.215 C355.24,465.942 355.745,467.019 355.745,468.156 L355.745,512 L348.101,512 L348.101,469.953 L346.907,468.961 C321.368,447.766 303.659,418.184 297.046,385.663 L290.373,352.86 L264.941,285.402 C260.559,273.785 265.488,260.563 276.407,254.649 C287.813,248.473 302.25,252.171 309.276,263.077 L348.067,323.278 L348.067,235.989 C348.067,234.428 349.018,233.024 350.466,232.442 C351.909,231.863 353.571,232.217 354.651,233.346 L411.081,292.292 C427.944,309.906 437.232,333.038 437.232,357.422 L437.232,512 L437.232,512 Z" id="Path" fill="#4A555F"></path>
            <path d="M349.482,471.095 L346.907,468.955 C321.378,447.774 303.667,418.198 297.043,385.677 L290.377,352.853 L264.93,285.391 C260.561,273.782 265.5,260.564 276.418,254.643 C280.038,252.674 284.139,251.632 288.277,251.632 C296.809,251.632 304.657,255.907 309.275,263.065 L348.076,323.286 L348.076,252.167 C348.076,250.637 348.989,249.255 350.395,248.654 C351.791,248.051 353.428,248.344612 354.538,249.403 L351.923,252.167 L355.72,252.167 L355.72,336.275 C355.72,337.971 354.603,339.462 352.978,339.941 C351.348,340.424 349.604,339.771 348.686,338.345 L302.851,267.207 C299.649,262.242 294.2,259.276 288.278,259.276 C285.372,259.276 282.61,259.976 280.067,261.36 C272.483,265.473 269.054,274.645 272.085,282.696 L297.639,350.442 C297.711,350.632 297.768,350.83 297.808,351.03 L304.534,384.153 C310.812,414.971 327.595,442.999 351.793,463.073 L354.371,465.214 L349.482,471.095 Z" id="Path" fill="#4A555F"></path>
            <path d="M364.662,512 L364.662,462.175 L357.484,456.217 C334.755,437.352 319.155,411.287 313.269,382.342 L306.339,348.26 L280.437,279.561 C278.962,275.651 280.621,271.203 284.294,269.213 C285.54,268.539 286.882,268.195 288.28,268.195 C291.154,268.195 293.799,269.638 295.354,272.049 L364.628,379.558 L364.628,268.195 L395.748,300.877 C411.746,317.678 420.67,339.989 420.67,363.189 L420.67,512 L364.662,512 Z" id="Path" fill="#DFDFDF"></path>
            <path d="M305.983,181.485 L298.339,181.485 L298.339,173.841 L305.983,173.841 L305.983,181.485 Z M290.695,181.485 L283.051,181.485 L283.051,173.841 L290.695,173.841 L290.695,181.485 Z M275.408,181.485 L267.764,181.485 L267.764,173.841 L275.408,173.841 L275.408,181.485 Z M260.12,181.485 L252.476,181.485 L252.476,173.841 L260.12,173.841 L260.12,181.485 Z M244.833,181.485 L237.189,181.485 L237.189,173.841 L244.833,173.841 L244.833,181.485 Z M229.545,181.485 L221.901,181.485 L221.901,173.841 L229.545,173.841 L229.545,181.485 Z M214.257,181.485 L206.613,181.485 L206.613,173.841 L214.257,173.841 L214.257,181.485 Z M198.97,181.485 L191.326,181.485 L191.326,173.841 L198.97,173.841 L198.97,181.485 Z M183.682,181.485 L176.038,181.485 L176.038,173.841 L183.682,173.841 L183.682,181.485 Z M168.395,181.485 L160.751,181.485 L160.751,173.841 L168.395,173.841 L168.395,181.485 Z M153.107,181.485 L145.463,181.485 L145.463,173.841 L153.107,173.841 L153.107,181.485 Z M137.82,181.485 L130.176,181.485 L130.176,173.841 L137.82,173.841 L137.82,181.485 Z M122.532,181.485 L114.888,181.485 L114.888,173.841 L122.532,173.841 L122.532,181.485 Z" id="Shape" fill="#4A555F"></path>
            <rect id="Rectangle" fill="#4A555F" x="114.888" y="200.757" width="190.689" height="7.644"></rect>
            <path d="M92.126,216.231 L54.207,216.231 C52.096,216.231 50.385,214.52 50.385,212.409 L50.385,171.941 C50.385,169.83 52.096,168.119 54.207,168.119 L92.126,168.119 L92.126,175.763 L58.029,175.763 L58.029,208.587 L88.304,208.587 L88.304,197.101 L95.948,197.101 L95.948,212.408 C95.948,214.521 94.238,216.231 92.126,216.231 Z" id="Path" fill="#4A555F"></path>
            <path d="M74.258,203.549 C73.21,203.549 72.169,203.121 71.416,202.284 L62.333,192.192 L68.014,187.079 L74.61,194.408 L100.242,172.595 L105.196,178.415 L76.733,202.638 C76.016,203.249 75.136,203.549 74.258,203.549 Z" id="Path" fill="#4A555F"></path>
            <path d="M229.545,275.737 L221.901,275.737 L221.901,268.093 L229.545,268.093 L229.545,275.737 Z M214.257,275.737 L206.613,275.737 L206.613,268.093 L214.257,268.093 L214.257,275.737 Z M198.97,275.737 L191.326,275.737 L191.326,268.093 L198.97,268.093 L198.97,275.737 Z M183.682,275.737 L176.038,275.737 L176.038,268.093 L183.682,268.093 L183.682,275.737 Z M168.395,275.737 L160.751,275.737 L160.751,268.093 L168.395,268.093 L168.395,275.737 Z M153.107,275.737 L145.463,275.737 L145.463,268.093 L153.107,268.093 L153.107,275.737 Z M137.82,275.737 L130.176,275.737 L130.176,268.093 L137.82,268.093 L137.82,275.737 Z M122.532,275.737 L114.888,275.737 L114.888,268.093 L122.532,268.093 L122.532,275.737 Z" id="Shape" fill="#4A555F"></path>
            <rect id="Rectangle" fill="#4A555F" x="114.888" y="295.009" width="119.479" height="7.644"></rect>
            <path d="M92.126,310.483 L54.207,310.483 C52.096,310.483 50.385,308.772 50.385,306.661 L50.385,266.193 C50.385,264.082 52.096,262.371 54.207,262.371 L92.126,262.371 L92.126,270.015 L58.029,270.015 L58.029,302.839 L88.304,302.839 L88.304,291.355 L95.948,291.355 L95.948,306.661 C95.948,308.773 94.238,310.483 92.126,310.483 Z" id="Path" fill="#4A555F"></path>
            <path d="M74.258,297.802 C73.21,297.802 72.169,297.374 71.416,296.537 L62.333,286.444 L68.014,281.331 L74.611,288.661 L100.242,266.847 L105.196,272.667 L76.733,296.891 C76.016,297.503 75.136,297.802 74.258,297.802 Z" id="Path" fill="#4A555F"></path>
            <path d="M260.12,369.989 L252.476,369.989 L252.476,362.345 L260.12,362.345 L260.12,369.989 Z M244.833,369.989 L237.189,369.989 L237.189,362.345 L244.833,362.345 L244.833,369.989 Z M229.545,369.989 L221.901,369.989 L221.901,362.345 L229.545,362.345 L229.545,369.989 Z M214.257,369.989 L206.613,369.989 L206.613,362.345 L214.257,362.345 L214.257,369.989 Z M198.97,369.989 L191.326,369.989 L191.326,362.345 L198.97,362.345 L198.97,369.989 Z M183.682,369.989 L176.038,369.989 L176.038,362.345 L183.682,362.345 L183.682,369.989 Z M168.395,369.989 L160.751,369.989 L160.751,362.345 L168.395,362.345 L168.395,369.989 Z M153.107,369.989 L145.463,369.989 L145.463,362.345 L153.107,362.345 L153.107,369.989 Z M137.82,369.989 L130.176,369.989 L130.176,362.345 L137.82,362.345 L137.82,369.989 Z M122.532,369.989 L114.888,369.989 L114.888,362.345 L122.532,362.345 L122.532,369.989 Z" id="Shape" fill="#4A555F"></path>
            <rect id="Rectangle" fill="#4A555F" x="114.888" y="389.261" width="154.107" height="7.644"></rect>
            <path d="M92.126,404.736 L54.207,404.736 C52.096,404.736 50.385,403.025 50.385,400.914 L50.385,360.447 C50.385,358.336 52.096,356.625 54.207,356.625 L92.126,356.625 L92.126,364.269 L58.029,364.269 L58.029,397.092 L88.304,397.092 L88.304,385.608 L95.948,385.608 L95.948,400.914 C95.948,403.025 94.238,404.736 92.126,404.736 Z" id="Path" fill="#4A555F"></path>
            <path d="M74.258,392.054 C73.21,392.054 72.169,391.626 71.416,390.789 L62.333,380.696 L68.014,375.583 L74.611,382.913 L100.242,361.099 L105.196,366.919 L76.733,391.143 C76.016,391.755 75.136,392.054 74.258,392.054 Z" id="Path" fill="#4A555F"></path>
            <rect id="Rectangle" fill="#E88C59" x="54.207" y="48.741" width="250.233" height="64.972"></rect>
        </g>
    </g>
</svg>