<?xml version="1.0" encoding="UTF-8"?>
<svg width="890px" height="341px" viewBox="0 0 890 341" version="1.1" xmlns="http://www.w3.org/2000/svg" xmlns:xlink="http://www.w3.org/1999/xlink">
    <!-- Generator: Sketch 58 (84663) - https://sketch.com -->
    <title>Containerized</title>
    <desc>Created with Sketch.</desc>
    <g id="Page-1" stroke="none" stroke-width="1" fill="none" fill-rule="evenodd">
        <g id="Scalability" transform="translate(-59.000000, -2944.000000)" fill-rule="nonzero">
            <g id="Containerized" transform="translate(59.000000, 2944.000000)">
                <g id="kubernetes-logo" transform="translate(540.000000, 0.000000)">
                    <path d="M111.920067,335 C103.797367,335 96.1259282,331.383561 90.9364253,324.828766 L11.9657304,226.506849 C6.77622754,219.952055 4.74555253,211.589041 6.77622754,203.452055 L34.9800472,80.7191779 C36.7850916,72.5821917 42.200225,66.0273972 49.6460334,62.4109588 L163.815095,7.71232876 C167.425185,5.90410959 171.486534,5 175.547884,5 C179.609234,5 183.670585,5.90410959 187.280673,7.71232876 L301.449735,62.1849314 C308.895544,65.8013698 314.310677,72.3561643 316.115721,80.4931505 L344.31954,203.226027 C346.124586,211.363014 344.31954,219.726026 339.130039,226.280822 L260.159343,324.602739 C254.96984,330.931506 247.298401,334.773972 239.175701,334.773972 L111.920067,335 L111.920067,335 Z" id="Path" fill="#326DE6"></path>
                    <path d="M175.838492,10.6420983 C178.997754,10.6420983 182.157016,11.3213811 185.090617,12.6799469 L299.275374,67.2490038 C305.142574,70.192563 309.655806,75.6268259 311.009776,81.9667993 L339.217472,204.916998 C340.797103,211.483399 339.217472,218.276228 334.929903,223.484064 L255.948351,321.980079 C251.886443,327.187915 245.567919,330.131474 239.023733,330.131474 L112.42759,330.131474 C105.883404,330.131474 99.5648801,327.187915 95.5029718,321.980079 L16.5214208,223.484064 C12.4595125,218.276228 10.8798814,211.483399 12.2338509,204.916998 L40.4415477,81.9667993 C42.0211787,75.4003983 46.3087486,69.9661353 52.1759496,67.2490038 L166.360707,12.4535192 C169.294306,11.3213811 172.67923,10.6420983 175.838492,10.6420983 L175.838492,10.6420983 Z M175.838492,0 L175.838492,0 C171.099599,0 166.360707,1.13213811 161.847475,3.16998671 L47.6627181,57.9654713 C38.6362551,62.2675961 32.3177309,70.192563 30.0611152,79.9289507 L1.85341846,202.879149 C-0.403197284,212.615538 1.85341846,222.578353 8.17194254,230.50332 L87.1534936,328.999335 C93.246356,336.697875 102.498481,341 112.201928,341 L238.798072,341 C248.501519,341 257.753643,336.697875 263.846506,328.999335 L342.828058,230.50332 C349.146581,222.80478 351.403197,212.615538 349.146581,202.879149 L320.938885,79.9289507 C318.682269,70.192563 312.363745,62.2675961 303.337282,57.9654713 L189.603849,3.16998671 C185.316278,1.13213811 180.577385,0 175.838492,0 L175.838492,0 L175.838492,0 Z" id="Shape" fill="#FFFFFF"></path>
                    <path d="M290.440584,195.523167 L290.440584,195.523167 L290.440584,195.523167 C290.214398,195.523167 290.214398,195.523167 290.440584,195.523167 L290.214398,195.523167 C289.98821,195.523167 289.762024,195.523167 289.762024,195.297297 C289.309651,195.297297 288.857277,195.071429 288.404903,195.071429 C286.821595,194.84556 285.464476,194.619691 284.107355,194.619691 C283.428794,194.619691 282.750234,194.619691 281.845487,194.393822 L281.6193,194.393822 C276.869378,193.942086 273.024203,193.490348 269.405214,192.361003 C267.821907,191.683398 267.369532,190.779922 266.91716,189.876448 C266.91716,189.650579 266.690973,189.650579 266.690973,189.424711 L266.690973,189.424711 L263.750545,188.521236 C265.107666,178.131274 264.655292,167.289575 262.167238,156.673746 C259.679183,146.057915 255.381634,136.119691 249.500778,127.084942 L251.762645,125.052124 L251.762645,124.600386 C251.762645,123.471042 251.988833,122.341699 252.89358,121.212355 C255.60782,118.727799 259.000623,116.694981 263.071984,114.210425 L263.071984,114.210425 C263.750545,113.758687 264.429105,113.532819 265.107666,113.081081 C266.464786,112.403475 267.59572,111.725869 268.95284,110.822394 C269.179028,110.596525 269.6314,110.370656 270.083774,109.918919 C270.309961,109.69305 270.536149,109.69305 270.536149,109.467181 L270.536149,109.467181 C273.702763,106.756757 274.381322,102.239382 272.119456,99.3030888 C270.988521,97.7220077 268.95284,96.8185328 266.91716,96.8185328 C265.107666,96.8185328 263.524359,97.4961389 261.94105,98.6254826 L261.94105,98.6254826 L261.94105,98.6254826 C261.714863,98.8513513 261.714863,98.8513513 261.488677,99.0772201 C261.036303,99.3030888 260.810116,99.7548263 260.357742,99.9806949 C259.226809,101.110039 258.322062,102.013514 257.417315,103.142857 C256.964941,103.594595 256.512568,104.272201 255.834008,104.723938 L255.834008,104.723938 C252.667393,108.111969 249.726965,110.822394 246.786536,112.855212 C246.107976,113.30695 245.429415,113.532819 244.750855,113.532819 C244.298482,113.532819 243.846108,113.532819 243.393735,113.30695 L242.941361,113.30695 L242.941361,113.30695 L240.22712,115.1139 C237.286692,111.951737 234.120077,109.241313 230.953463,106.530888 C217.382255,95.9150579 200.870621,89.3648648 183.680426,87.7837838 L183.45424,84.8474903 C183.228052,84.6216216 183.228052,84.6216216 183.001865,84.3957529 C182.323305,83.7181466 181.418558,83.0405406 181.192372,81.4594594 C180.966185,77.8455598 181.418558,73.7799228 181.870932,69.2625483 L181.870932,69.0366795 C181.870932,68.3590733 182.097119,67.4555984 182.323305,66.7779923 C182.549493,65.4227798 182.775679,64.0675675 183.001865,62.4864864 L183.001865,61.1312741 L183.001865,60.4536679 L183.001865,60.4536679 L183.001865,60.4536679 C183.001865,56.3880308 179.835251,53 175.990075,53 C174.180582,53 172.371088,53.9034748 171.013967,55.2586873 C169.656846,56.6138996 168.978285,58.4208493 168.978285,60.4536679 L168.978285,60.4536679 L168.978285,60.4536679 L168.978285,60.9054053 L168.978285,62.2606178 C168.978285,63.8416988 169.204472,65.1969111 169.656846,66.5521235 C169.883032,67.2297296 169.883032,67.9073358 170.10922,68.8108108 L170.10922,69.0366795 C170.561593,73.554054 171.240153,77.6196911 170.787779,81.2335906 C170.561593,82.8146718 169.656846,83.4922779 168.978285,84.1698841 C168.752099,84.3957529 168.752099,84.3957529 168.525913,84.6216216 L168.525913,84.6216216 L168.299725,87.5579151 C164.228363,88.0096525 160.157002,88.4613899 156.08564,89.3648648 C138.669257,93.2046331 123.288557,102.013514 111.300658,114.662162 L109.03879,113.081081 L108.586416,113.081081 C108.134043,113.081081 107.681669,113.30695 107.229296,113.30695 C106.550735,113.30695 105.872175,113.081081 105.193615,112.629344 C102.253187,110.596525 99.3127586,107.660232 96.1461438,104.272201 L96.1461438,104.272201 C95.6937702,103.820463 95.2413966,103.142857 94.5628363,102.69112 C93.6580893,101.561776 92.7533421,100.658301 91.6224083,99.5289576 C91.3962215,99.3030888 90.9438479,99.0772201 90.4914743,98.6254826 C90.2652876,98.3996139 90.0391008,98.3996139 90.0391008,98.1737451 L90.0391008,98.1737451 C88.6819802,97.0444016 86.872486,96.3667954 85.0629918,96.3667954 C83.0273107,96.3667954 80.9916298,97.2702703 79.8606959,98.8513513 C77.5988282,101.787645 78.2773884,106.305019 81.4440033,109.015444 L81.4440033,109.015444 L81.4440033,109.015444 C81.6701901,109.015444 81.6701901,109.241313 81.8963769,109.241313 C82.3487505,109.467181 82.5749373,109.918919 83.0273107,110.144788 C84.3844315,111.048263 85.5153653,111.725869 86.872486,112.403475 C87.5510462,112.629344 88.2296066,113.081081 88.908167,113.532819 L88.908167,113.532819 C92.9795289,116.017375 96.3723306,118.050193 99.0865719,120.534749 C100.217506,121.664093 100.217506,122.793436 100.217506,123.92278 L100.217506,124.374517 L100.217506,124.374517 L102.479373,126.407336 C102.027,127.084942 101.574626,127.53668 101.34844,128.214286 C90.0391008,146.057915 85.741552,167.063707 88.6819802,187.84363 L85.741552,188.747105 C85.741552,188.972973 85.5153653,188.972973 85.5153653,189.198841 C85.0629918,190.102317 84.3844315,191.005792 83.0273107,191.683398 C79.6345092,192.812741 75.5631472,193.264479 70.8132249,193.716216 L70.5870381,193.716216 C69.9084778,193.716216 69.0037306,193.716216 68.3251704,193.942086 C66.9680497,193.942086 65.6109291,194.167954 64.0276217,194.393822 C63.5752481,194.393822 63.1228745,194.619691 62.6705009,194.619691 C62.4443141,194.619691 62.2181274,194.619691 61.9919406,194.84556 L61.9919406,194.84556 L61.9919406,194.84556 C57.9205786,195.749035 55.4325241,199.588803 56.1110845,203.202702 C56.7896448,206.364864 59.7300728,208.397683 63.3490613,208.397683 C64.0276217,208.397683 64.4799951,208.397683 65.1585555,208.171815 L65.1585555,208.171815 L65.1585555,208.171815 C65.3847423,208.171815 65.6109291,208.171815 65.6109291,207.945947 C66.0633026,207.945947 66.5156761,207.720077 66.9680497,207.720077 C68.5513572,207.26834 69.682291,206.816602 71.0394117,206.138996 C71.717972,205.913128 72.3965323,205.46139 73.0750927,205.235521 L73.3012795,205.235521 C77.5988282,203.65444 81.4440033,202.299228 85.0629918,201.847491 L85.5153653,201.847491 C86.872486,201.847491 87.777233,202.525097 88.4557934,202.976834 C88.6819802,202.976834 88.6819802,203.202702 88.908167,203.202702 L88.908167,203.202702 L92.0747819,202.750966 C97.5032644,219.465251 107.907856,234.372586 121.705249,245.214285 C124.871864,247.698842 128.038479,249.73166 131.431281,251.764479 L130.07416,254.700773 C130.07416,254.926641 130.300347,254.926641 130.300347,255.15251 C130.75272,256.055984 131.205094,257.185329 130.75272,258.76641 C129.3956,262.15444 127.359919,265.542472 124.871864,269.382239 L124.871864,269.608109 C124.419491,270.285715 123.967117,270.737452 123.514744,271.415058 C122.609996,272.544402 121.931436,273.673745 121.026689,275.028958 C120.800502,275.254826 120.574316,275.706564 120.348129,276.158301 C120.348129,276.384169 120.121942,276.610039 120.121942,276.610039 L120.121942,276.610039 L120.121942,276.610039 C118.312448,280.449808 119.669568,284.741313 123.06237,286.322394 C123.967117,286.774132 124.871864,287 125.776611,287 C128.490853,287 131.205094,285.193051 132.562215,282.708495 L132.562215,282.708495 L132.562215,282.708495 C132.562215,282.482625 132.788401,282.256757 132.788401,282.256757 C133.014588,281.805019 133.240775,281.353282 133.466962,281.127414 C134.145522,279.546333 134.371709,278.416988 134.824082,277.061776 C135.050269,276.384169 135.276456,275.706564 135.502643,275.028958 L135.502643,275.028958 C137.08595,270.511583 138.216885,266.897683 140.252565,263.735521 C141.157312,262.380308 142.288246,262.15444 143.192993,261.702703 C143.419179,261.702703 143.419179,261.702703 143.645367,261.476834 L143.645367,261.476834 L145.228675,258.540541 C155.180892,262.380308 166.037857,264.413127 176.894822,264.413127 C183.45424,264.413127 190.239842,263.735521 196.573073,262.15444 C200.644434,261.250965 204.48961,260.121622 208.334785,258.76641 L209.691905,261.250965 C209.918092,261.250965 209.918092,261.250965 210.144279,261.476834 C211.275212,261.702703 212.17996,262.15444 213.084707,263.509653 C214.894201,266.671815 216.251322,270.511583 217.834629,274.803088 L217.834629,275.028958 C218.060816,275.706564 218.287002,276.384169 218.51319,277.061776 C218.965563,278.416988 219.19175,279.772201 219.870309,281.127414 C220.096497,281.579151 220.322684,281.805019 220.54887,282.256757 C220.54887,282.482625 220.775058,282.708495 220.775058,282.708495 L220.775058,282.708495 L220.775058,282.708495 C222.132177,285.418919 224.846419,287 227.56066,287 C228.465408,287 229.370155,286.774132 230.274902,286.322394 C231.858209,285.418919 233.21533,284.063706 233.667703,282.256757 C234.120077,280.449808 234.120077,278.416988 233.21533,276.610039 L233.21533,276.610039 L233.21533,276.610039 C233.21533,276.384169 232.989143,276.384169 232.989143,276.158301 C232.762956,275.706564 232.53677,275.254826 232.310582,275.028958 C231.632023,273.673745 230.727275,272.544402 229.822528,271.415058 C229.370155,270.737452 228.917781,270.285715 228.465408,269.608109 L228.465408,269.382239 C225.977353,265.542472 223.715485,262.15444 222.584551,258.76641 C222.132177,257.185329 222.584551,256.281854 222.810738,255.15251 C222.810738,254.926641 223.036926,254.926641 223.036926,254.700773 L223.036926,254.700773 L221.905991,251.990347 C233.89389,244.988417 244.072296,235.050193 251.762645,222.853282 C255.834008,216.528958 259.000623,209.527028 261.262491,202.525097 L263.976731,202.976834 C264.202918,202.976834 264.202918,202.750966 264.429105,202.750966 C265.333852,202.299228 266.012413,201.621621 267.369532,201.621621 L267.821907,201.621621 C271.440895,202.073359 275.286071,203.428572 279.583619,205.009653 L279.809805,205.009653 C280.488366,205.235521 281.166926,205.687259 281.845487,205.913128 C283.202608,206.590734 284.333541,207.042471 285.916848,207.494209 C286.369222,207.494209 286.821595,207.720077 287.273969,207.720077 C287.500156,207.720077 287.726343,207.720077 287.95253,207.945947 L287.95253,207.945947 C288.63109,208.171815 289.083463,208.171815 289.762024,208.171815 C293.154826,208.171815 296.095253,205.913128 297,202.976834 C297,200.26641 294.511946,196.65251 290.440584,195.523167 L290.440584,195.523167 Z M185.716107,184.455598 L175.763889,189.198841 L165.811671,184.455598 L163.323616,173.839769 L170.10922,165.256757 L181.192372,165.256757 L187.977975,173.839769 L185.716107,184.455598 L185.716107,184.455598 Z M244.750855,160.965251 C246.56035,168.644788 247.012723,176.324325 246.334162,183.777992 L211.727586,173.839769 C208.560971,172.936294 206.751478,169.774131 207.430038,166.611969 C207.656224,165.708494 208.108597,164.805019 208.787158,164.127413 L236.155757,139.507723 C240.000933,145.832047 242.941361,153.059846 244.750855,160.965251 L244.750855,160.965251 Z M225.298792,125.955598 L195.668325,146.96139 C193.18027,148.542471 189.787469,148.090734 187.751788,145.606177 C187.073227,144.928572 186.847041,144.025096 186.620854,143.121621 L184.585173,106.305019 C200.19206,108.111969 214.441828,115.1139 225.298792,125.955598 L225.298792,125.955598 Z M159.704627,107.434363 C162.192682,106.982625 164.45455,106.530888 166.942605,106.079151 L164.906924,142.218147 C164.680737,145.380309 162.192682,148.090734 158.799881,148.090734 C157.895134,148.090734 156.764199,147.864865 156.08564,147.413128 L126.002798,125.955598 C135.276456,116.694981 146.811982,110.370656 159.704627,107.434363 L159.704627,107.434363 Z M115.145833,139.507723 L142.06206,163.449807 C144.550114,165.482626 144.7763,169.322394 142.740619,171.80695 C142.06206,172.710424 141.157312,173.388031 140.026378,173.613899 L104.967428,183.777992 C103.610307,168.418919 107.003109,152.833977 115.145833,139.507723 L115.145833,139.507723 Z M109.03879,200.718146 L145.002487,194.619691 C147.942915,194.393822 150.657157,196.426641 151.335718,199.362934 C151.561904,200.718146 151.561904,201.847491 151.10953,202.976834 L151.10953,202.976834 L137.312138,236.179537 C124.645678,228.048262 114.467273,215.625482 109.03879,200.718146 L109.03879,200.718146 Z M191.596963,245.666023 C186.394668,246.795366 181.192372,247.472973 175.763889,247.472973 C167.847352,247.472973 160.157002,246.117761 152.919025,243.859074 L170.787779,211.559845 C172.597274,209.527028 175.537703,208.623552 178.025757,209.978764 C179.15669,210.656371 180.061437,211.559845 180.739998,212.46332 L180.739998,212.46332 L198.15638,243.859074 C196.120699,244.53668 193.858831,244.988417 191.596963,245.666023 L191.596963,245.666023 Z M235.703385,214.270271 C230.048716,223.305019 222.584551,230.532819 213.989454,236.179537 L199.739688,202.073359 C199.061127,199.362934 200.19206,196.426641 202.906302,195.071429 C203.811049,194.619691 204.941982,194.393822 206.072917,194.393822 L242.262801,200.492278 C240.90568,205.46139 238.643813,209.978764 235.703385,214.270271 L235.703385,214.270271 Z" id="Shape" fill="#FFFFFF"></path>
                </g>
                <g id="docker" transform="translate(0.000000, 16.000000)">
                    <rect id="XMLID_1489_" fill="#0175BC" x="190" y="0" width="44" height="44"></rect>
                    <rect id="Rectangle" fill="#010101" opacity="0.1" x="190" y="39" width="44" height="5"></rect>
                    <rect id="Rectangle" fill="#FFFFFF" opacity="0.2" x="190" y="0" width="44" height="5"></rect>
                    <rect id="XMLID_1314_" fill="#0175BC" x="190" y="51" width="44" height="44"></rect>
                    <rect id="Rectangle" fill="#010101" opacity="0.1" x="190" y="89" width="44" height="5"></rect>
                    <rect id="Rectangle" fill="#FFFFFF" opacity="0.2" x="190" y="51" width="44" height="5"></rect>
                    <rect id="XMLID_1315_" fill="#0175BC" x="190" y="103" width="44" height="44"></rect>
                    <rect id="Rectangle" fill="#010101" opacity="0.1" x="190" y="142" width="44" height="5"></rect>
                    <rect id="Rectangle" fill="#FFFFFF" opacity="0.2" x="190" y="103" width="44" height="5"></rect>
                    <rect id="XMLID_1307_" fill="#0175BC" x="137" y="51" width="44" height="44"></rect>
                    <rect id="Rectangle" fill="#010101" opacity="0.1" x="137" y="89" width="44" height="5"></rect>
                    <rect id="Rectangle" fill="#FFFFFF" opacity="0.2" x="137" y="51" width="44" height="5"></rect>
                    <rect id="XMLID_1306_" fill="#0175BC" x="137" y="103" width="44" height="44"></rect>
                    <rect id="Rectangle" fill="#010101" opacity="0.1" x="137" y="142" width="44" height="5"></rect>
                    <rect id="Rectangle" fill="#FFFFFF" opacity="0.2" x="137" y="103" width="44" height="5"></rect>
                    <rect id="XMLID_1317_" fill="#0175BC" x="86" y="51" width="44" height="44"></rect>
                    <rect id="Rectangle" fill="#010101" opacity="0.1" x="86" y="89" width="44" height="5"></rect>
                    <rect id="Rectangle" fill="#FFFFFF" opacity="0.2" x="86" y="51" width="44" height="5"></rect>
                    <rect id="XMLID_1316_" fill="#0175BC" x="86" y="103" width="44" height="44"></rect>
                    <rect id="Rectangle" fill="#010101" opacity="0.1" x="86" y="142" width="44" height="5"></rect>
                    <rect id="Rectangle" fill="#FFFFFF" opacity="0.2" x="86" y="103" width="44" height="5"></rect>
                    <rect id="XMLID_1318_" fill="#0175BC" x="36" y="103" width="44" height="44"></rect>
                    <rect id="Rectangle" fill="#010101" opacity="0.1" x="36" y="142" width="44" height="5"></rect>
                    <rect id="Rectangle" fill="#FFFFFF" opacity="0.2" x="36" y="103" width="44" height="5"></rect>
                    <rect id="XMLID_1305_" fill="#0175BC" x="241" y="103" width="44" height="44"></rect>
                    <rect id="Rectangle" fill="#010101" opacity="0.1" x="241" y="142" width="44" height="5"></rect>
                    <rect id="Rectangle" fill="#FFFFFF" opacity="0.2" x="241" y="103" width="44" height="5"></rect>
                    <path d="M407.009034,141.581495 C405.81299,140.80766 381.167725,125.263684 357.870118,128.96463 C352.226808,105.379504 330.563234,90.6934731 329.501953,89.9869291 L323.504882,86 C323.504882,86 319.75181,89.8853374 318.501707,91.1813267 C318.045031,91.6547378 316.868234,93.007224 315.465335,95.4512327 C311.58671,102.208154 305.979822,117.308144 309.084958,145.240568 C309.388181,147.864877 308.596433,150.455539 306.911862,152.322835 C305.395753,154.021905 303.29004,154.963965 300.982178,154.963965 L0,154.963965 L0,163.577078 C0,295.734531 96.5090339,310 138,310 C244.83545,310 319.091309,245.199781 351.502441,188.087441 C394.206298,181.291156 408.996826,154.501167 409.771728,153.222657 L414,146.073099 L407.009034,141.581495 Z" id="Path" fill="#0175BC"></path>
                    <path d="M299.86403,155.658691 L0,155.658691 L0,159.658691 L299.86403,159.658691 C302.163318,159.658691 304.261208,158.783691 305.771689,157.205566 C307.450002,155.471192 308.238808,153.064941 307.936712,150.627442 C307.838111,149.802246 307.853845,149.143067 307.773076,148.341309 C307.612587,150.150878 307.045108,151.88916 305.771689,153.205566 C304.261208,154.783691 302.163318,155.658691 299.86403,155.658691 Z" id="Path" fill="#FFFFFF" opacity="0.2"></path>
                    <path d="M406.926874,142.513861 C405.716774,141.740968 380.781871,126.215906 357.210464,129.912349 C351.500832,106.355923 329.582661,91.6877619 328.508908,90.9820776 L322.441359,87 C322.441359,87 318.644147,90.8805597 317.379386,92.1750218 C317.032721,92.5298168 316.27877,93.3839463 315.327387,94.8249664 C312.043018,99.7995779 306.40582,111.768191 307.050917,134.331282 C307.25118,108.480331 315.916825,97.9748701 317.379386,96.4763397 L322.441359,91.3013179 L328.50891,95.2833955 C329.582661,95.9890797 351.500832,110.657241 357.210466,134.213667 C380.781871,130.517222 414,147 414,147 L406.926874,142.513861 Z" id="Path" fill="#FFFFFF" opacity="0.2"></path>
                    <path d="M409.771728,149.026237 C408.996826,150.303874 394.206298,177.075395 351.502441,183.867042 C319.091309,240.940399 244.83545,305.696383 138,305.696383 C96.5090338,305.696383 0,291.440652 0,159.373409 L0,163.677026 C0,295.744269 96.5090339,310 138,310 C244.83545,310 319.091309,245.244014 351.502441,188.170659 C394.206298,181.379012 408.996826,154.607491 409.771728,153.329854 L414,146.185176 L412.154343,145 L409.771728,149.026237 Z" id="Path" fill="#010101" opacity="0.1"></path>
                </g>
            </g>
        </g>
    </g>
</svg>