<?xml version="1.0" encoding="UTF-8"?>
<svg width="512px" height="512px" viewBox="0 0 512 512" version="1.1" xmlns="http://www.w3.org/2000/svg" xmlns:xlink="http://www.w3.org/1999/xlink">
    <!-- Generator: Sketch 59.1 (86144) - https://sketch.com -->
    <title>t-coppa-gdpr</title>
    <desc>Created with Sketch.</desc>
    <g id="Page-1" stroke="none" stroke-width="1" fill="none" fill-rule="evenodd">
        <g id="t-coppa-gdpr" fill-rule="nonzero">
            <g id="SUPERINTELLIGENCE">
                <path d="M71.342,71.341 L71.342,440.658 L440.66,440.658 L440.66,71.341 L71.342,71.341 Z M433.64,433.639 L78.362,433.639 L78.362,78.361 L433.64,78.361 L433.64,433.639 Z" id="Shape" fill="#4A555F"></path>
                <path d="M87.476,87.488 L87.476,424.515 L424.528,424.515 L424.528,87.488 L87.476,87.488 Z M409.041,370.879 L371.22,409.028 L140.809,409.028 L102.988,370.879 L102.963,141.149 L140.809,102.975 L371.22,102.975 L409.041,141.149 L409.041,370.879 L409.041,370.879 Z" id="Shape" fill="#DFDFDF"></path>
                <path d="M372.69,99.473 L139.334,99.473 L99.448,139.693 L99.48,372.313 L139.334,412.535 L372.69,412.535 L412.542,372.312 L412.542,139.694 L372.69,99.473 Z M405.522,369.424 L369.765,405.516 L142.26,405.516 L106.5,369.423 L106.468,142.583 L142.259,106.492 L369.765,106.492 L405.522,142.582 L405.522,369.424 Z" id="Shape" fill="#4A555F"></path>
                <path d="M123.184,0 L123.184,78.361 L163.072,78.361 L163.072,0 L123.184,0 Z M156.052,71.341 L130.203,71.341 L130.203,7.02 L156.052,7.02 L156.052,71.341 Z" id="Shape" fill="#4A555F"></path>
                <rect id="Rectangle" fill="#FFD452" x="139.325" y="16.143" width="7.605" height="46.076"></rect>
                <path d="M197.366,0 L197.366,78.361 L237.256,78.361 L237.256,0 L197.366,0 Z M230.237,71.341 L204.386,71.341 L204.386,7.02 L230.237,7.02 L230.237,71.341 Z" id="Shape" fill="#4A555F"></path>
                <rect id="Rectangle" fill="#FFD452" x="213.509" y="16.143" width="7.606" height="46.076"></rect>
                <path d="M271.551,0 L271.551,78.361 L311.439,78.361 L311.439,0 L271.551,0 Z M304.42,71.341 L278.571,71.341 L278.571,7.02 L304.42,7.02 L304.42,71.341 Z" id="Shape" fill="#4A555F"></path>
                <rect id="Rectangle" fill="#FFD452" x="287.693" y="16.143" width="7.604" height="46.076"></rect>
                <path d="M345.734,0 L345.734,78.361 L385.625,78.361 L385.625,0 L345.734,0 Z M378.604,71.341 L352.753,71.341 L352.753,7.02 L378.604,7.02 L378.604,71.341 Z" id="Shape" fill="#4A555F"></path>
                <rect id="Rectangle" fill="#FFD452" x="361.875" y="16.143" width="7.607" height="46.076"></rect>
                <path d="M123.184,433.639 L123.184,512 L163.072,512 L163.072,433.639 L123.184,433.639 Z M156.052,504.98 L130.203,504.98 L130.203,440.659 L156.052,440.659 L156.052,504.98 Z" id="Shape" fill="#4A555F"></path>
                <rect id="Rectangle" fill="#FFD452" x="139.325" y="449.781" width="7.605" height="46.076"></rect>
                <path d="M197.366,433.639 L197.366,512 L237.256,512 L237.256,433.639 L197.366,433.639 Z M230.237,504.98 L204.386,504.98 L204.386,440.659 L230.237,440.659 L230.237,504.98 Z" id="Shape" fill="#4A555F"></path>
                <rect id="Rectangle" fill="#FFD452" x="213.509" y="449.781" width="7.606" height="46.076"></rect>
                <path d="M271.551,433.639 L271.551,512 L311.439,512 L311.439,433.639 L271.551,433.639 Z M304.42,504.98 L278.571,504.98 L278.571,440.659 L304.42,440.659 L304.42,504.98 Z" id="Shape" fill="#4A555F"></path>
                <rect id="Rectangle" fill="#FFD452" x="287.693" y="449.781" width="7.604" height="46.076"></rect>
                <path d="M345.734,433.639 L345.734,512 L385.625,512 L385.625,433.639 L345.734,433.639 Z M378.604,504.98 L352.753,504.98 L352.753,440.659 L378.604,440.659 L378.604,504.98 Z" id="Shape" fill="#4A555F"></path>
                <rect id="Rectangle" fill="#FFD452" x="361.875" y="449.781" width="7.607" height="46.076"></rect>
                <path d="M433.64,124.779 L433.64,164.669 L512,164.669 L512,124.779 L433.64,124.779 L433.64,124.779 Z M504.98,157.649 L440.66,157.649 L440.66,131.799 L504.98,131.799 L504.98,157.649 Z" id="Shape" fill="#4A555F"></path>
                <rect id="Rectangle" fill="#FFD452" x="449.782" y="140.922" width="46.075" height="7.605"></rect>
                <path d="M433.64,198.963 L433.64,238.853 L512,238.853 L512,198.963 L433.64,198.963 L433.64,198.963 Z M504.98,231.833 L440.66,231.833 L440.66,205.983 L504.98,205.983 L504.98,231.833 Z" id="Shape" fill="#4A555F"></path>
                <rect id="Rectangle" fill="#FFD452" x="449.782" y="215.105" width="46.075" height="7.606"></rect>
                <path d="M433.64,273.146 L433.64,313.036 L512,313.036 L512,273.146 L433.64,273.146 Z M504.98,306.016 L440.66,306.016 L440.66,280.166 L504.98,280.166 L504.98,306.016 Z" id="Shape" fill="#4A555F"></path>
                <rect id="Rectangle" fill="#FFD452" x="449.782" y="289.289" width="46.075" height="7.605"></rect>
                <path d="M433.64,347.33 L433.64,387.22 L512,387.22 L512,347.33 L433.64,347.33 Z M504.98,380.2 L440.66,380.2 L440.66,354.35 L504.98,354.35 L504.98,380.2 Z" id="Shape" fill="#4A555F"></path>
                <rect id="Rectangle" fill="#FFD452" x="449.782" y="363.472" width="46.075" height="7.606"></rect>
                <path d="M0.002,124.779 L0,164.669 L78.362,164.669 L78.362,124.779 L0.002,124.779 L0.002,124.779 Z M71.342,157.649 L7.02,157.649 L7.022,131.799 L71.342,131.799 L71.342,157.649 Z" id="Shape" fill="#4A555F"></path>
                <rect id="Rectangle" fill="#FFD452" x="16.143" y="140.921" width="46.076" height="7.605"></rect>
                <path d="M0,198.963 L0,238.853 L78.362,238.853 L78.362,198.963 L0,198.963 L0,198.963 Z M71.342,231.833 L7.02,231.833 L7.02,205.983 L71.343,205.983 L71.343,231.833 L71.342,231.833 Z" id="Shape" fill="#4A555F"></path>
                <rect id="Rectangle" fill="#FFD452" x="16.143" y="215.105" width="46.076" height="7.606"></rect>
                <path d="M0,273.146 L0,313.036 L78.362,313.036 L78.362,273.146 L0,273.146 Z M71.342,306.016 L7.02,306.016 L7.02,280.166 L71.343,280.166 L71.343,306.016 L71.342,306.016 Z" id="Shape" fill="#4A555F"></path>
                <rect id="Rectangle" fill="#FFD452" x="16.143" y="289.288" width="46.076" height="7.606"></rect>
                <path d="M0,347.33 L0,387.219 L78.362,387.219 L78.362,347.33 L0,347.33 Z M71.342,380.2 L7.02,380.2 L7.02,354.35 L71.343,354.35 L71.343,380.2 L71.342,380.2 Z" id="Shape" fill="#4A555F"></path>
                <rect id="Rectangle" fill="#FFD452" x="16.143" y="363.472" width="46.076" height="7.606"></rect>
            </g>
            <g id="ATTORNEY" transform="translate(114.000000, 119.000000)">
                <path d="M142.547414,85 C141.793103,84.8885542 141.038793,84.8885542 140.392241,84.8885542 C139.637931,84.8885542 138.883621,84.8885542 138.237069,85 L138.237069,69.8433735 L135.112069,68.2831325 C130.801724,66.1656627 128,61.5963855 128,56.5813253 L128,53.2379518 L137.482759,50.3403614 L137.482759,36.9668675 L137.375,36.8554217 L137.375,34.626506 L133.280172,34.626506 C131.663793,33.5120482 130.478448,31.7289157 129.939655,29.7228916 C129.400862,27.2710843 129.939655,24.7078313 131.448276,22.7018072 L140.5,11 L149.551724,22.7018072 C151.060345,24.7078313 151.599138,27.2710843 151.060345,29.7228916 C150.62931,31.7289157 149.443966,33.5120482 147.719828,34.626506 L146.75,34.626506 L145.780172,35.6295181 L143.517241,36.8554217 L143.409483,40.4216867 L143.409483,50.4518072 L153,53.3493976 L153,56.6927711 C153,61.7078313 150.306034,66.1656627 145.887931,68.3945783 L142.762931,69.9548193 L142.762931,85 L142.547414,85 Z" id="Path" fill="#666288"></path>
                <path d="M150,219 L131,219 L131,124 L133.402299,125.109827 C137.87931,127.218497 143.12069,127.218497 147.597701,125.109827 L150,124 L150,219 Z M134.275862,215.559538 L146.505747,215.559538 L146.505747,128.216185 C142.574713,129.547977 138.206897,129.547977 134.275862,128.216185 L134.275862,215.559538 L134.275862,215.559538 Z" id="Shape" fill="#4A555F"></path>
                <path d="M138,213 L138,134 C138.7,134.11174 139.3,134.11174 140,134.11174 C140.7,134.11174 141.4,134.11174 142,134 L142,213 L138,213 Z" id="Path" fill="#71CDE1"></path>
                <path d="M149.589041,96 L147.178082,94.8888889 C142.684932,92.7777778 137.424658,92.7777778 132.931507,94.8888889 L130.520548,96 L130.520548,75.4444444 C124.164384,71.8888889 120,65 120,57.6666667 L120,56 L160,56 L160,57.6666667 C160,65.1111111 155.945205,72 149.589041,75.4444444 L149.589041,96 Z M140.054795,89.7777778 C142.136986,89.7777778 144.219178,90.1111111 146.191781,90.7777778 L146.191781,73.3333333 L147.178082,72.8888889 C152.438356,70.3333333 156.054795,65.2222222 156.60274,59.3333333 L123.506849,59.3333333 C124.054795,65.1111111 127.671233,70.3333333 132.931507,72.8888889 L133.917808,73.3333333 L133.917808,90.7777778 C135.780822,90.1111111 137.863014,89.7777778 140.054795,89.7777778 Z" id="Shape" fill="#4A555F"></path>
                <path d="M198,234 L83,234 L83,230.576687 C83,222.515337 89.5937804,216 97.7521866,216 L183.247813,216 C191.40622,216 198,222.515337 198,230.576687 L198,234 Z M86.4645287,230.576687 L194.64723,230.576687 L194.64723,230.576687 C194.64723,224.392638 189.506317,219.423313 183.359572,219.423313 L97.7521866,219.423313 C91.4936832,219.423313 86.4645287,224.392638 86.4645287,230.576687 L86.4645287,230.576687 Z" id="Shape" fill="#4A555F"></path>
                <path d="M91,227 C92.3302857,225.2 94.5474286,224 97.0971429,224 L181.902857,224 C184.452571,224 186.669714,225.2 188,227 L91,227 Z" id="Path" fill="#666288"></path>
                <path d="M232,256 L48,256 L48,231 L232,231 L232,256 Z M51.546988,252.615721 L228.674699,252.615721 L228.674699,234.275109 L51.546988,234.275109 L51.546988,252.615721 Z" id="Shape" fill="#4A555F"></path>
                <rect id="Rectangle" fill="#FFD552" x="56" y="238" width="169" height="11"></rect>
                <path d="M150,219 L131,219 L131,124 L133.402299,125.109827 C137.87931,127.218497 143.12069,127.218497 147.597701,125.109827 L150,124 L150,219 Z M134.275862,215.559538 L146.505747,215.559538 L146.505747,128.216185 C142.574713,129.547977 138.206897,129.547977 134.275862,128.216185 L134.275862,215.559538 L134.275862,215.559538 Z" id="Shape" fill="#4A555F"></path>
                <path d="M138,213 L138,134 C138.7,134.11174 139.3,134.11174 140,134.11174 C140.7,134.11174 141.4,134.11174 142,134 L142,213 L138,213 Z" id="Path" fill="#666288"></path>
                <path d="M150.192935,96 L147.741848,94.8850174 C143.173913,92.7665505 137.826087,92.7665505 133.258152,94.8850174 L130.807065,96 L130.807065,75.3728223 C124.790761,72.1393728 120.779891,66.0069686 120.222826,59.2055749 L120.111413,59.2055749 L120,57.533101 L120,48.7247387 L129.915761,45.825784 L129.915761,42.4808362 L129.804348,42.4808362 L129.804348,42.369338 C126.016304,40.2508711 123.342391,36.6829268 122.339674,32.3344948 C121.225543,27.6515679 122.339674,22.7456446 125.347826,19.0662021 L140.5,0 L155.652174,19.0662021 C158.660326,22.8571429 159.774457,27.6515679 158.660326,32.3344948 C157.657609,36.6829268 154.872283,40.3623693 151.084239,42.4808362 L151.084239,45.9372822 L161,48.8362369 L161,59.4285714 L160.888587,59.4285714 C160.331522,66.2299652 156.320652,72.3623693 150.304348,75.5958188 L150.304348,96 L150.192935,96 Z M140.5,89.7560976 C142.616848,89.7560976 144.733696,90.0905923 146.73913,90.7595819 L146.73913,73.2543554 L147.741848,72.8083624 C153.646739,70.0209059 157.434783,64 157.434783,57.533101 L157.434783,55.8606272 L157.546196,55.8606272 L157.546196,51.2891986 L147.630435,48.3902439 L147.630435,40.2508711 L148.521739,39.804878 L148.855978,39.4703833 L149.190217,39.4703833 C152.309783,37.7979094 154.649457,34.8989547 155.429348,31.4425087 C156.320652,27.7630662 155.429348,23.9721254 153.089674,21.0731707 L140.611413,5.35191638 L128.133152,21.0731707 C125.793478,23.9721254 124.902174,27.7630662 125.793478,31.4425087 C126.57337,34.8989547 128.913043,37.7979094 132.032609,39.4703833 L133.369565,39.4703833 L133.369565,40.1393728 L133.480978,40.2508711 L133.480978,41.2543554 L133.480978,48.3902439 L123.565217,51.2891986 L123.565217,55.8606272 L123.67663,57.533101 C123.67663,64 127.464674,70.0209059 133.369565,72.8083624 L134.372283,73.2543554 L134.372283,90.7595819 C136.154891,90.0905923 138.271739,89.7560976 140.5,89.7560976 Z" id="Shape" fill="#4A555F"></path>
                <path d="M234.943894,102 C229.747525,102 225.325083,98.48 224.219472,93.64 L179,93.64 L179,80 L234.943894,80 C241.024752,80 246,84.95 246,91 C246,97.05 241.135314,102 234.943894,102 Z M182.427393,90.23 L227.20462,90.23 L227.315182,91.77 C227.757426,95.73 230.963696,98.59 234.943894,98.59 C239.145215,98.59 242.572607,95.18 242.572607,91 C242.572607,86.82 239.145215,83.41 234.943894,83.41 L182.316832,83.41 L182.316832,90.23 L182.427393,90.23 Z" id="Shape" fill="#4A555F"></path>
                <path d="M160.222222,111 L157.444444,109.637363 C157.444444,106.571429 156.555556,103.619048 155,101.007326 L155.444444,98.7362637 L180.222222,80 L183,81.3626374 L183,91.9230769 L182.333333,93.2857143 L160.222222,111 Z M158.777778,100.666667 C159.666667,102.483516 160.222222,104.413919 160.666667,106.344322 L179.666667,91.1282051 L179.666667,84.8827839 L158.777778,100.666667 Z" id="Shape" fill="#4A555F"></path>
                <path d="M46.0561056,102 C39.9752475,102 35,97.05 35,91 C35,84.95 39.9752475,80 46.0561056,80 L102,80 L102,93.64 L56.7805281,93.64 C55.5643564,98.48 51.2524752,102 46.0561056,102 Z M46.0561056,83.41 C41.8547855,83.41 38.4273927,86.82 38.4273927,91 C38.4273927,95.18 41.8547855,98.59 46.0561056,98.59 C50.0363036,98.59 53.2425743,95.62 53.6848185,91.77 L53.7953795,90.23 L98.5726073,90.23 L98.5726073,83.41 L46.0561056,83.41 Z" id="Shape" fill="#4A555F"></path>
                <path d="M120.777778,111 L98.6666667,93.2857143 L98,91.9230769 L98,81.3626374 L100.777778,80 L125.555556,98.7362637 L126,101.007326 C124.444444,103.619048 123.666667,106.571429 123.555556,109.637363 L120.777778,111 Z M101.444444,91.014652 L120.444444,106.230769 C120.777778,104.300366 121.444444,102.369963 122.333333,100.553114 L101.444444,84.7692308 L101.444444,91.014652 Z" id="Shape" fill="#4A555F"></path>
                <path d="M141,130 C129.901099,130 121,120.989011 121,110 C121,98.9010989 130.010989,90 141,90 C152.098901,90 161,99.010989 161,110 C161,120.989011 151.989011,130 141,130 Z M141,93.2967033 C131.769231,93.2967033 124.296703,100.769231 124.296703,110 C124.296703,119.230769 131.769231,126.703297 141,126.703297 C150.230769,126.703297 157.703297,119.230769 157.703297,110 C157.593407,100.769231 150.120879,93.2967033 141,93.2967033 Z" id="Shape" fill="#4A555F"></path>
                <path d="M140.5,123 C133.603448,123 128,117.396552 128,110.5 C128,103.603448 133.603448,98 140.5,98 C147.396552,98 153,103.603448 153,110.5 C152.892241,117.396552 147.396552,123 140.5,123 Z" id="Path" fill="#FFD552"></path>
                <rect id="Rectangle" fill="#4A555F" x="131" y="39" width="18" height="3"></rect>
                <polygon id="Rectangle" fill="#4A555F" transform="translate(23.452753, 127.718885) rotate(18.753839) translate(-23.452753, -127.718885) " points="21.6991617 88.8462182 25.139204 88.8491958 25.2063449 166.591552 21.7663026 166.588574"></polygon>
                <polygon id="Rectangle" fill="#4A555F" transform="translate(67.849986, 127.684330) rotate(71.246161) translate(-67.849986, -127.684330) " points="28.9773195 125.930739 106.719675 125.99788 106.722653 129.437922 28.9802972 129.370781"></polygon>
                <path d="M47.5,189 C16.9483568,189 2.23004695,165.526531 1.56103286,164.534694 L0,162 L95,162 L93.4389671,164.534694 C92.7699531,165.636735 78.0516432,189 47.5,189 Z M6.3556338,165.416327 C11.0387324,171.367347 24.7535211,185.693878 47.5,185.693878 C70.2464789,185.693878 83.8497653,171.477551 88.6443662,165.416327 L6.3556338,165.416327 Z" id="Shape" fill="#4A555F"></path>
                <path d="M47,183 C32.1707317,183 21.466899,176.035714 15,170 L79,170 C72.6445993,176.035714 61.9407666,183 47,183 Z" id="Path" fill="#FFD552"></path>
                <polygon id="Rectangle" fill="#4A555F" transform="translate(212.934276, 127.737993) rotate(18.759265) translate(-212.934276, -127.737993) " points="211.180619 88.8640828 214.620772 88.8670613 214.687932 166.611904 211.247778 166.608926"></polygon>
                <polygon id="Rectangle" fill="#4A555F" transform="translate(257.322471, 127.697258) rotate(71.246161) translate(-257.322471, -127.697258) " points="218.449804 125.943667 296.19216 126.010808 296.195138 129.45085 218.452782 129.383709"></polygon>
                <path d="M236.5,189 C205.948357,189 191.230047,165.526531 190.561033,164.534694 L189,162 L284,162 L282.438967,164.534694 C281.769953,165.636735 267.051643,189 236.5,189 Z M195.355634,165.416327 C200.038732,171.367347 213.753521,185.693878 236.5,185.693878 C259.246479,185.693878 272.849765,171.477551 277.644366,165.416327 L195.355634,165.416327 Z" id="Shape" fill="#4A555F"></path>
                <path d="M237,183 C222.170732,183 211.466899,176.035714 205,170 L269,170 C262.533101,176.035714 251.940767,183 237,183 Z" id="Path" fill="#FFD552"></path>
            </g>
        </g>
    </g>
</svg>