<?xml version="1.0" encoding="UTF-8"?>
<svg width="782px" height="360px" viewBox="0 0 782 360" version="1.1" xmlns="http://www.w3.org/2000/svg" xmlns:xlink="http://www.w3.org/1999/xlink">
    <!-- Generator: Sketch 59.1 (86144) - https://sketch.com -->
    <title>t-custom-data</title>
    <desc>Created with Sketch.</desc>
    <g id="Page-1" stroke="none" stroke-width="1" fill="none" fill-rule="evenodd">
        <g id="t-custom-data" fill-rule="nonzero">
            <g id="Group" transform="translate(294.000000, 0.000000)">
                <path d="M127.661871,244.538115 L145.298047,112.431317 C164.938335,116.848262 179.768756,134.51604 179.768756,155.596912 L179.768756,244.337345 L127.661871,244.337345 L127.661871,244.538115 Z" id="Path" fill="#E0E0E0"></path>
                <path d="M72.9496403,244.538115 L14.8304214,244.538115 L14.8304214,243.735034 C19.8406989,243.735034 24.6505653,242.731183 28.8591984,240.924251 C42.286742,235.302685 51.9064748,222.051851 51.9064748,206.391775 C51.9064748,185.913214 35.2723535,169.249286 14.8304214,169.249286 L14.8304214,155.596912 C14.8304214,135.720661 33.2682425,116.848262 55.1130524,112.230547 L72.9496403,244.538115 Z" id="Path" fill="#E0E0E0"></path>
                <path d="M100.005139,102.995117 C71.9475848,102.995117 48.9003083,80.1073135 48.9003083,51.798714 C48.9003083,23.6908847 71.7471737,0.602310627 100.005139,0.602310627 C128.263104,0.602310627 151.109969,23.4901145 151.109969,51.798714 C151.109969,80.1073135 128.263104,102.995117 100.005139,102.995117 Z M100.005139,7.22772753 C75.3545735,7.22772753 55.3134635,27.3047484 55.3134635,51.9994842 C55.3134635,76.6942199 75.3545735,96.7712408 100.005139,96.7712408 C124.655704,96.7712408 144.696814,76.6942199 144.696814,51.9994842 C144.696814,27.3047484 124.655704,7.22772753 100.005139,7.22772753 Z" id="Shape" fill="#4A555F"></path>
                <path d="M100.005139,89.3427431 C79.5632066,89.3427431 62.7286742,72.4780455 62.7286742,51.9994842 C62.7286742,31.5209228 79.3627955,14.6562253 100.005139,14.6562253 C120.647482,14.6562253 137.281603,31.3201526 137.281603,51.9994842 C137.281603,72.6788157 120.647482,89.3427431 100.005139,89.3427431 Z" id="Path" fill="#FFD552"></path>
                <path d="M194.799589,244.538115 L188.386434,244.538115 L188.386434,157.203074 C188.386434,127.689853 164.337102,103.396658 135.077081,102.995117 L134.87667,102.995117 C134.676259,102.995117 134.676259,102.995117 134.475848,102.995117 L60.9249743,102.995117 C31.0637205,102.995117 6.81397739,127.288313 6.81397739,157.203074 L6.81397739,171.056218 L0.400822199,171.056218 L0.400822199,157.203074 C0.400822199,123.875219 27.4563207,96.7712408 60.7245632,96.7712408 L134.275437,96.7712408 C134.475848,96.7712408 134.87667,96.7712408 135.077081,96.7712408 C167.944502,97.1727812 194.599178,124.276759 194.599178,157.203074 L194.599178,244.538115 L194.799589,244.538115 Z" id="Path" fill="#4A555F"></path>
                <path d="M80.364851,244.939655 L68.340185,151.179967 L68.1397739,151.179967 L68.1397739,150.979197 L61.1253854,96.7712408 L77.7595067,96.7712408 L94.5940391,117.249802 L74.5529291,152.183819 L86.377184,244.136574 L80.364851,244.939655 Z M68.5405961,102.995117 L73.5508736,141.542997 L87.1788284,117.651343 L74.9537513,102.995117 L68.5405961,102.995117 Z" id="Shape" fill="#4A555F"></path>
                <path d="M119.645427,244.939655 L113.432682,244.136574 L125.256937,151.983048 L106.819116,116.245951 L123.653649,96.5704706 L138.684481,96.5704706 L131.670092,150.577657 L131.870504,150.778427 L131.670092,150.778427 L119.645427,244.939655 Z M114.434738,117.249802 L126.659815,140.940687 L131.469681,103.195888 L126.659815,103.195888 L114.434738,117.249802 Z" id="Shape" fill="#4A555F"></path>
                <rect id="Rectangle" fill="#4A555F" x="96.9989723" y="128.492934" width="6.41315519" height="116.045181"></rect>
                <polygon id="Path" fill="#4A555F" points="100.20555 133.311419 88.5817061 119.458274 93.3915725 115.44287 100.405961 123.473679 108.221994 114.639789 113.03186 118.855964"></polygon>
                <ellipse id="Oval" fill="#4A555F" cx="113.633094" cy="157.403844" rx="5.01027749" ry="5.01925523"></ellipse>
                <ellipse id="Oval" fill="#4A555F" cx="113.633094" cy="193.743252" rx="5.01027749" ry="5.01925523"></ellipse>
                <ellipse id="Oval" fill="#4A555F" cx="113.633094" cy="228.476498" rx="5.01027749" ry="5.01925523"></ellipse>
                <rect id="Rectangle" fill="#4A555F" x="165.138746" y="188.723997" width="6.41315519" height="55.6133479"></rect>
            </g>
            <g id="Group-6" transform="translate(456.000000, 11.000000)">
                <polygon id="Path" fill="#4A555F" points="4.59379217 37 0 32.575419 29.7597841 1 148 1 148 7.43575419 32.5560054 7.43575419"></polygon>
                <path d="M326,108 L144,108 L144,0 L326,0 L326,108 Z M150.414097,101.8 L319.786344,101.8 L319.786344,6.4 L150.414097,6.4 L150.414097,101.8 Z" id="Shape" fill="#4A555F"></path>
                <rect id="Rectangle" fill="#FFD552" x="158" y="14" width="154" height="82"></rect>
                <rect id="Rectangle" fill="#4A555F" x="173" y="31" width="18" height="7"></rect>
                <rect id="Rectangle" fill="#4A555F" x="208" y="31" width="88" height="7"></rect>
                <rect id="Rectangle" fill="#4A555F" x="208" y="51" width="88" height="7"></rect>
                <rect id="Rectangle" fill="#4A555F" x="208" y="72" width="88" height="7"></rect>
            </g>
            <g id="Group-6-Copy" transform="translate(163.000000, 244.000000) scale(-1, 1) translate(-163.000000, -244.000000) translate(0.000000, 128.000000)">
                <polygon id="Path" fill="#4A555F" transform="translate(74.000000, 164.000000) scale(-1, 1) rotate(-180.000000) translate(-74.000000, -164.000000) " points="4.59379217 182 0 177.575419 29.7597841 146 148 146 148 152.435754 32.5560054 152.435754"></polygon>
                <g id="Group-7" transform="translate(69.000000, 0.000000)">
                    <polygon id="Path-Copy-3" fill="#4A555F" transform="translate(39.500000, 54.782123) scale(-1, 1) rotate(-180.000000) translate(-39.500000, -54.782123) " points="0.750537634 51.5642458 79 51.5642458 79 58 -4.61852778e-13 58"></polygon>
                    <path d="M257,108 L75,108 L75,0 L257,0 L257,108 Z M81.4140969,101.8 L250.786344,101.8 L250.786344,6.4 L81.4140969,6.4 L81.4140969,101.8 Z" id="Shape-Copy-5" fill="#4A555F"></path>
                    <rect id="Rectangle-Copy-3" fill="#D2D2D2" x="89" y="14" width="71" height="82"></rect>
                    <rect id="Rectangle-Copy-5" fill="#4A555F" x="102" y="31" width="42" height="7"></rect>
                    <rect id="Rectangle-Copy-6" fill="#4A555F" x="102" y="51" width="42" height="7"></rect>
                    <rect id="Rectangle-Copy-7" fill="#4A555F" x="102" y="72" width="42" height="7"></rect>
                    <g id="Photo" transform="translate(170.000000, 13.000000)">
                        <path d="M51.7424759,80.5 L55.1424759,54 C61.5424759,56 66.0424759,62 66.0424759,68.7 L66.0424759,80.4 L51.7424759,80.4 L51.7424759,80.5 Z" id="Path" fill="#E0E0E0"></path>
                        <path d="M6.84247593,80.5 L6.84247593,68.7 C6.84247593,62.3 12.6424759,55.9 19.9424759,53.9 L23.3424759,80.4 L6.84247593,80.4 L6.84247593,80.5 Z" id="Path" fill="#E0E0E0"></path>
                        <path d="M37.4424759,49.6 C26.8424759,49.6 18.1424759,40.9 18.1424759,30.3 C18.1424759,19.7 26.8424759,11 37.4424759,11 C48.0424759,11 56.7424759,19.6 56.7424759,30.3 C56.7424759,40.9 48.1424759,49.6 37.4424759,49.6 Z M37.4424759,14 C28.4424759,14 21.2424759,21.3 21.2424759,30.2 C21.2424759,39.2 28.5424759,46.4 37.4424759,46.4 C46.3424759,46.4 53.7424759,39.2 53.7424759,30.3 C53.7424759,21.3 46.4424759,14 37.4424759,14 Z" id="Shape" fill="#4A555F"></path>
                        <path d="M37.4424759,43.1 C30.3424759,43.1 24.6424759,37.4 24.6424759,30.3 C24.6424759,23.2 30.3424759,17.5 37.4424759,17.5 C44.5424759,17.5 50.2424759,23.2 50.2424759,30.3 C50.2424759,37.3 44.5424759,43.1 37.4424759,43.1 Z" id="Path" fill="#FFD552"></path>
                        <path d="M73.0424759,80.5 L69.9424759,80.5 C69.9424759,79.2 69.9424759,78 69.9424759,76.7 C69.9424759,74.2 69.9424759,71.6 69.9424759,69 C69.6424759,58.1 60.9424759,49.8 49.8424759,49.6 C44.9424759,49.5 39.8424759,49.6 35.0424759,49.6 C32.0424759,49.6 29.0424759,49.6 25.9424759,49.6 C23.6424759,49.6 21.2424759,49.6 19.0424759,50 C13.5424759,51.1 8.64247593,54.6 5.84247593,59.5 C2.94247593,64.6 3.04247593,70.8 3.14247593,76.8 C3.14247593,78 3.24247593,79.3 3.24247593,80.5 L0.142475929,80.5 C0.142475929,79.3 0.142475929,78.1 0.0424759287,76.9 C-0.0575240713,70.4 -0.257524071,63.7 3.14247593,57.9 C6.34247593,52.3 12.1424759,48.2 18.4424759,46.9 C20.9424759,46.4 23.4424759,46.4 25.9424759,46.5 C28.9424759,46.5 31.9424759,46.5 34.9424759,46.5 C39.8424759,46.5 44.8424759,46.5 49.8424759,46.5 C62.4424759,46.7 72.5424759,56.5 72.9424759,68.9 C73.0424759,71.5 73.0424759,74.2 72.9424759,76.7 C73.0424759,77.9 73.0424759,79.2 73.0424759,80.5 Z" id="Path" fill="#4A555F"></path>
                        <path d="M27.1424759,80.7 L22.7424759,46.5 L29.4424759,46.5 L36.0424759,54.4 L28.5424759,67.5 L30.1424759,80.3 L27.1424759,80.7 Z M26.2424759,49.6 L27.9424759,62.5 L32.3424759,54.8 L28.0424759,49.6 L26.2424759,49.6 Z" id="Shape" fill="#4A555F"></path>
                        <path d="M48.2424759,80.7 L45.2424759,80.3 L46.8424759,67.5 L39.3424759,54.4 L45.9424759,46.5 L52.6424759,46.5 L48.2424759,80.7 Z M43.0424759,54.7 L47.4424759,62.4 L49.1424759,49.5 L47.4424759,49.5 L43.0424759,54.7 Z" id="Shape" fill="#4A555F"></path>
                        <rect id="Rectangle" fill="#4A555F" x="36.0424759" y="58.6" width="3.1" height="21.9"></rect>
                        <polygon id="Path" fill="#4A555F" points="37.5424759 61 32.9424759 55.5 35.3424759 53.6 37.5424759 56.3 40.2424759 53.3 42.5424759 55.3"></polygon>
                        <circle id="Oval" fill="#4A555F" cx="42.5424759" cy="71.2" r="1.8"></circle>
                        <path d="M73.0424759,82 L0.142475929,82 L0.142475929,0.6 L73.0424759,0.6 L73.0424759,82 Z M3.24247593,78.9 L69.9424759,78.9 L69.9424759,3.6 L3.24247593,3.6 L3.24247593,78.9 Z" id="Shape" fill="#4A555F"></path>
                    </g>
                </g>
                <path d="M326,232 L144,232 L144,124 L326,124 L326,232 Z M150.414097,225.8 L319.786344,225.8 L319.786344,130.4 L150.414097,130.4 L150.414097,225.8 Z" id="Shape" fill="#4A555F"></path>
                <rect id="Rectangle" fill="#FFD552" x="158" y="138" width="154" height="82"></rect>
                <rect id="Rectangle" fill="#4A555F" x="173" y="155" width="18" height="7"></rect>
                <rect id="Rectangle" fill="#4A555F" x="208" y="155" width="88" height="7"></rect>
                <rect id="Rectangle" fill="#4A555F" x="208" y="175" width="88" height="7"></rect>
                <rect id="Rectangle" fill="#4A555F" x="208" y="196" width="88" height="7"></rect>
            </g>
            <polygon id="Path" fill="#4A555F" transform="translate(252.000000, 72.000000) scale(-1, 1) rotate(-180.000000) translate(-252.000000, -72.000000) " points="182.593792 90 178 85.575419 207.759784 54 326 54 326 60.4357542 210.556005 60.4357542"></polygon>
            <polygon id="Path" fill="#4A555F" points="603 351 443 351 443 261 449.41604 261 449.41604 344.557047 603 344.557047"></polygon>
            <path d="M782,351 L600,351 L600,170 L782,170 L782,351 Z M606.414097,344.585825 L775.786344,344.585825 L775.786344,176.414175 L606.414097,176.414175 L606.414097,344.585825 Z" id="Shape" fill="#4A555F"></path>
            <rect id="Rectangle" fill="#E88C59" x="614" y="183" width="154" height="153"></rect>
            <g id="Group-5" transform="translate(1.000000, 11.000000)">
                <path d="M182,95 L0,95 L0,0 L182,0 L182,95 Z M6.41409692,88.6134454 L175.786344,88.6134454 L175.786344,6.18697479 L6.41409692,6.18697479 L6.41409692,88.6134454 Z" id="Shape" fill="#4A555F"></path>
                <rect id="Rectangle" fill="#666288" x="14" y="14" width="154" height="67"></rect>
                <rect id="Rectangle" fill="#FFFFFF" x="29" y="34" width="18" height="7"></rect>
                <rect id="Rectangle" fill="#FFFFFF" x="64" y="34" width="88" height="7"></rect>
                <rect id="Rectangle" fill="#FFFFFF" x="64" y="54" width="88" height="7"></rect>
            </g>
            <rect id="Rectangle" fill="#4A555F" x="629" y="201" width="18" height="7"></rect>
            <rect id="Rectangle" fill="#4A555F" x="664" y="201" width="88" height="7"></rect>
            <rect id="Rectangle" fill="#4A555F" x="664" y="223" width="88" height="7"></rect>
            <rect id="Rectangle" fill="#4A555F" x="664" y="246" width="88" height="7"></rect>
            <rect id="Rectangle" fill="#4A555F" x="664" y="270" width="88" height="7"></rect>
            <rect id="Rectangle" fill="#4A555F" x="664" y="292" width="88" height="7"></rect>
            <rect id="Rectangle" fill="#4A555F" x="664" y="315" width="88" height="7"></rect>
            <path d="M308.5,247 C286.686567,247 269,228.687345 269,205.898263 C269,183.109181 286.686567,165 308.5,165 C330.313433,165 348,183.312655 348,205.898263 C348,228.483871 330.313433,247 308.5,247 Z M308.5,171.511166 C290.027363,171.511166 275.09204,186.975186 275.09204,206.101737 C275.09204,225.228288 290.027363,240.692308 308.5,240.692308 C326.972637,240.692308 341.90796,225.228288 341.90796,206.101737 C341.90796,186.975186 326.972637,171.511166 308.5,171.511166 Z" id="Shape" fill="#4A555F"></path>
            <path d="M309.5,232 C294.954887,232 283,220.045113 283,205.5 C283,190.954887 294.954887,179 309.5,179 C324.045113,179 336,190.954887 336,205.5 C336,220.244361 324.045113,232 309.5,232 Z" id="Path" fill="#FFD552"></path>
            <polygon id="Path" fill="#4A555F" points="304.347826 224 293 211.151316 297.695652 206.868421 304.543478 214.618421 324.5 193 329 197.486842"></polygon>
        </g>
    </g>
</svg>