<?xml version="1.0" encoding="UTF-8"?>
<svg width="989px" height="517px" viewBox="0 0 989 517" version="1.1" xmlns="http://www.w3.org/2000/svg" xmlns:xlink="http://www.w3.org/1999/xlink">
    <!-- Generator: Sketch 59.1 (86144) - https://sketch.com -->
    <title>t-device-trust</title>
    <desc>Created with Sketch.</desc>
    <g id="Page-1" stroke="none" stroke-width="1" fill="none" fill-rule="evenodd">
        <g id="t-device-trust">
            <g id="Group">
                <g id="Server" transform="translate(683.000000, 39.000000)" fill-rule="nonzero">
                    <g id="Group" transform="translate(0.000000, 353.000000)">
                        <rect id="Rectangle" fill="#FFFFFF" transform="translate(246.130301, 72.677675) scale(-1, 1) rotate(-180.000000) translate(-246.130301, -72.677675) " x="223.905091" y="63.4277893" width="44.4504202" height="18.499772"></rect>
                        <rect id="Rectangle" fill="#FFFFFF" x="231.749284" y="2.64282457" width="26.1473059" height="60.784965"></rect>
                        <rect id="Rectangle" fill="#FFFFFF" transform="translate(60.484429, 72.677675) scale(-1, 1) rotate(-180.000000) translate(-60.484429, -72.677675) " x="38.259219" y="63.4277893" width="44.4504202" height="18.499772"></rect>
                        <rect id="Rectangle" fill="#FFFFFF" x="46.1034108" y="2.64282457" width="26.1473059" height="60.784965"></rect>
                        <path d="M77.6178767,65.8944259 L43.0044135,65.8944259 L43.0044135,0.184578223 L77.8019909,0.184578223 L77.8019909,65.8944259 L77.6178767,65.8944259 Z M53.6830351,55.188889 L66.9392551,55.188889 L66.9392551,11.0746934 L53.6830351,11.0746934 L53.6830351,55.188889 L53.6830351,55.188889 Z" id="Shape" fill="#5C666F"></path>
                        <path d="M89.5852976,87.1209217 L31.0369927,87.1209217 L31.0369927,81.7681531 C31.0369927,70.878038 36.9286461,60.9108138 46.5025826,55.9272019 L47.6072677,55.3734671 L72.8309085,55.3734671 L73.9355934,55.9272019 C83.5095301,61.0953922 89.4011834,70.878038 89.4011834,81.7681531 L89.4011834,87.1209217 L89.5852976,87.1209217 Z M42.4520711,76.4153847 L78.1702193,76.4153847 C76.8814201,72.1700856 74.1197076,68.2939429 70.2533101,65.8944259 L50.3689802,65.8944259 C46.5025826,68.2939429 43.7408701,71.9855073 42.4520711,76.4153847 Z" id="Shape" fill="#5C666F"></path>
                        <rect id="Rectangle" stroke="#5C666F" stroke-width="5" fill="#FFFFFF" x="0.894117647" y="82.006981" width="302.211765" height="29.793173" rx="8"></rect>
                        <path d="M260.627358,65.8944259 L225.829782,65.8944259 L225.829782,0.184578223 L260.627358,0.184578223 L260.627358,65.8944259 Z M236.508402,55.188889 L249.764622,55.188889 L249.764622,11.0746934 L236.508402,11.0746934 L236.508402,55.188889 Z" id="Shape" fill="#5C666F"></path>
                        <path d="M272.594779,87.1209217 L214.046473,87.1209217 L214.046473,81.7681531 C214.046473,70.878038 219.938127,60.9108138 229.512064,55.9272019 L230.61675,55.3734671 L255.84039,55.3734671 L256.945076,55.9272019 C266.519012,61.0953922 272.410664,70.878038 272.410664,81.7681531 L272.410664,87.1209217 L272.594779,87.1209217 Z M225.277439,76.4153847 L260.995586,76.4153847 C259.706787,72.1700856 256.945076,68.2939429 253.078677,65.8944259 L233.378461,65.8944259 C229.512064,68.2939429 226.566238,71.9855073 225.277439,76.4153847 Z" id="Shape" fill="#5C666F"></path>
                    </g>
                    <g id="Group" transform="translate(0.000000, 171.000000)">
                        <rect id="Rectangle" stroke="#5C666F" stroke-width="5" fill="#FFFFFF" x="0.894117647" y="90.5210284" width="302.211765" height="90.0005291" rx="8"></rect>
                        <rect id="Rectangle-Copy-10" stroke="#5C666F" stroke-width="5" fill="#FFFFFF" x="0.894117647" y="0.896039604" width="302.211765" height="90.0005291" rx="8"></rect>
                        <rect id="Rectangle" fill="#EC8D53" x="150.895315" y="16.9549015" width="132.5622" height="54.8953056"></rect>
                        <rect id="Rectangle" fill="#EC8D53" x="150.895315" y="109.007234" width="132.5622" height="55.6421806"></rect>
                        <path d="M46.870811,61.020521 C37.8492169,61.020521 30.6687644,53.551772 30.6687644,44.5892731 C30.6687644,35.4400556 38.0333311,28.1580252 46.870811,28.1580252 C55.7082909,28.1580252 63.0728576,35.6267743 63.0728576,44.5892731 C63.0728576,53.551772 55.7082909,61.020521 46.870811,61.020521 Z M46.870811,38.8009926 C43.7408701,38.8009926 41.347386,41.4150548 41.347386,44.4025544 C41.347386,47.5767727 43.9249843,50.0041163 46.870811,50.0041163 C50.0007517,50.0041163 52.394236,47.390054 52.394236,44.4025544 C52.394236,41.4150548 49.8166377,38.8009926 46.870811,38.8009926 Z" id="Shape" fill="#5C666F"></path>
                        <path d="M263.573184,61.020521 C254.551591,61.020521 247.371138,53.551772 247.371138,44.5892731 C247.371138,35.4400556 254.735706,28.1580252 263.573184,28.1580252 C272.594779,28.1580252 279.775231,35.6267743 279.775231,44.5892731 C279.775231,53.551772 272.594779,61.020521 263.573184,61.020521 Z M263.573184,38.8009926 C260.443245,38.8009926 258.04976,41.4150548 258.04976,44.4025544 C258.04976,47.5767727 260.627358,50.0041163 263.573184,50.0041163 C266.703125,50.0041163 269.09661,47.390054 269.09661,44.4025544 C269.09661,41.4150548 266.703125,38.8009926 263.573184,38.8009926 Z" id="Shape" fill="#5C666F"></path>
                        <path d="M46.870811,153.446291 C37.8492169,153.446291 30.6687644,145.977542 30.6687644,137.015043 C30.6687644,127.865825 38.0333311,120.583795 46.870811,120.583795 C55.7082909,120.583795 63.0728576,128.052544 63.0728576,137.015043 C63.0728576,145.977542 55.7082909,153.446291 46.870811,153.446291 Z M46.870811,131.226762 C43.7408701,131.226762 41.347386,133.840825 41.347386,136.828324 C41.347386,140.002542 43.9249843,142.429886 46.870811,142.429886 C50.0007517,142.429886 52.394236,139.815824 52.394236,136.828324 C52.394236,133.654106 49.8166377,131.226762 46.870811,131.226762 Z" id="Shape" fill="#5C666F"></path>
                        <path d="M263.573184,153.446291 C254.551591,153.446291 247.371138,145.977542 247.371138,137.015043 C247.371138,127.865825 254.735706,120.583795 263.573184,120.583795 C272.594779,120.583795 279.775231,128.052544 279.775231,137.015043 C279.775231,145.977542 272.594779,153.446291 263.573184,153.446291 Z M263.573184,131.226762 C260.443245,131.226762 258.04976,133.840825 258.04976,136.828324 C258.04976,140.002542 260.627358,142.429886 263.573184,142.429886 C266.703125,142.429886 269.09661,139.815824 269.09661,136.828324 C269.09661,133.654106 266.703125,131.226762 263.573184,131.226762 Z" id="Shape" fill="#5C666F"></path>
                    </g>
                    <g id="LAYER" transform="translate(0.000000, 86.000000)">
                        <rect id="Rectangle" stroke="#5C666F" stroke-width="5" fill="#FFFFFF" x="0.894117647" y="0.892156863" width="302.211765" height="89.5747245" rx="8"></rect>
                        <rect id="Rectangle" fill="#EC8D53" x="150.895315" y="19.2899463" width="132.5622" height="55.3809345"></rect>
                        <path d="M263.573184,63.5203571 C254.551591,63.5203571 247.371138,56.0866745 247.371138,47.1662555 C247.371138,38.0599945 254.735706,30.8121541 263.573184,30.8121541 C272.594779,30.8121541 279.775231,38.2458365 279.775231,47.1662555 C279.775231,56.0866745 272.594779,63.5203571 263.573184,63.5203571 Z M263.573184,41.4051517 C260.443245,41.4051517 258.04976,44.0069405 258.04976,46.9804135 C258.04976,50.1397285 260.627358,52.5556754 263.573184,52.5556754 C266.703125,52.5556754 269.09661,49.9538865 269.09661,46.9804135 C269.09661,43.8210984 266.703125,41.4051517 263.573184,41.4051517 Z" id="Shape" fill="#5C666F"></path>
                        <path d="M46.870811,63.5203571 C37.8492169,63.5203571 30.6687644,56.0866745 30.6687644,47.1662555 C30.6687644,38.0599945 38.0333311,30.8121541 46.870811,30.8121541 C55.7082909,30.8121541 63.0728576,38.2458365 63.0728576,47.1662555 C63.0728576,56.0866745 55.7082909,63.5203571 46.870811,63.5203571 Z M46.870811,41.4051517 C43.7408701,41.4051517 41.347386,44.0069405 41.347386,46.9804135 C41.347386,50.1397285 43.9249843,52.5556754 46.870811,52.5556754 C50.0007517,52.5556754 52.394236,49.9538865 52.394236,46.9804135 C52.394236,43.8210984 49.8166377,41.4051517 46.870811,41.4051517 Z" id="Shape" fill="#5C666F"></path>
                    </g>
                    <g id="LAYER">
                        <rect id="Rectangle" stroke="#5C666F" stroke-width="5" fill="#FFFFFF" x="0.894117647" y="0.892156863" width="302.211765" height="89.5747245" rx="8"></rect>
                        <rect id="Rectangle" fill="#EC8D53" x="150.895315" y="19.2899463" width="132.5622" height="55.3809345"></rect>
                        <path d="M263.573184,63.5203571 C254.551591,63.5203571 247.371138,56.0866745 247.371138,47.1662555 C247.371138,38.0599945 254.735706,30.8121541 263.573184,30.8121541 C272.594779,30.8121541 279.775231,38.2458365 279.775231,47.1662555 C279.775231,56.0866745 272.594779,63.5203571 263.573184,63.5203571 Z M263.573184,41.4051517 C260.443245,41.4051517 258.04976,44.0069405 258.04976,46.9804135 C258.04976,50.1397285 260.627358,52.5556754 263.573184,52.5556754 C266.703125,52.5556754 269.09661,49.9538865 269.09661,46.9804135 C269.09661,43.8210984 266.703125,41.4051517 263.573184,41.4051517 Z" id="Shape" fill="#5C666F"></path>
                        <path d="M46.870811,63.5203571 C37.8492169,63.5203571 30.6687644,56.0866745 30.6687644,47.1662555 C30.6687644,38.0599945 38.0333311,30.8121541 46.870811,30.8121541 C55.7082909,30.8121541 63.0728576,38.2458365 63.0728576,47.1662555 C63.0728576,56.0866745 55.7082909,63.5203571 46.870811,63.5203571 Z M46.870811,41.4051517 C43.7408701,41.4051517 41.347386,44.0069405 41.347386,46.9804135 C41.347386,50.1397285 43.9249843,52.5556754 46.870811,52.5556754 C50.0007517,52.5556754 52.394236,49.9538865 52.394236,46.9804135 C52.394236,43.8210984 49.8166377,41.4051517 46.870811,41.4051517 Z" id="Shape" fill="#5C666F"></path>
                    </g>
                </g>
                <g id="SMARTPHONE" transform="translate(0.000000, 196.000000)" fill-rule="nonzero">
                    <path d="M68.5,102 C68.389,102.55271 68.323,103.118536 68.323,103.698726 L68.323,112 L68.677,111.544092 L68.677,103.698726 C68.676,103.118536 68.61,102.552086 68.5,102 Z" id="Path" fill="#71CBDF"></path>
                    <path d="M68.4906658,80 C67.6761713,86.480511 62.2276919,91.5064391 55.6447165,91.5064391 L40.2218489,91.5064391 C33.9057427,91.5064391 28.6444341,86.8877697 27.5093342,80.8016177 L17,103.122218 L17,223 L27.2690311,201.18187 L27.2690311,191.916889 C27.2690311,185.518076 31.7689776,180.165358 37.7246292,178.983509 L37.7246292,178.969995 L38.4322553,177.488999 C32.1294322,176.59217 27.2690311,171.076672 27.2690311,164.43338 L27.2690311,148.741944 C27.2690311,141.473943 33.0779651,135.564086 40.2218489,135.564086 L55.6447165,135.564086 C56.459211,135.564086 57.2604224,135.645783 58.0483508,135.79505 L58.8229961,134.151273 C57.8080478,134.422779 56.7399671,134.558531 55.6447165,134.558531 L40.2218489,134.558531 C33.0773613,134.558531 27.2690311,128.648674 27.2690311,121.380673 L27.2690311,105.689851 C27.2690311,98.4218507 33.0779651,92.4984794 40.2218489,92.4984794 L55.6447165,92.4984794 C62.2276919,92.4984794 67.6761713,97.5385356 68.4906658,104.019047 C69.1717257,98.5846313 73.1107638,94.1557702 78.2519209,92.8787103 L79,91.289603 C73.4977845,90.270535 69.1982919,85.6917929 68.4906658,80 Z" id="Path" fill="#666288"></path>
                    <path d="M103.726844,26.9760636 L72.1973361,26.9760636 C68.5942623,26.9760636 65.1817623,25.4083266 62.8432377,22.6774693 L58.0026639,17 L57.1868852,17 L42,48.5368783 L55.6235656,48.5368783 C62.3262295,48.5368783 67.8872951,53.5518031 68.7030738,60 C69.5188525,53.5518031 75.079918,48.5368783 81.782582,48.5368783 L97.4858607,48.5368783 C98.1387295,48.5368783 98.777459,48.5906642 99.4026639,48.6719543 L111,24.5832019 C108.906762,26.1381036 106.364139,26.9760636 103.726844,26.9760636 Z" id="Path" fill="#666288"></path>
                    <path d="M155.50625,18 L145.4365,18 L130.154814,49.6005286 L140.510825,49.6005286 C147.810498,49.6005286 153.759683,55.5062594 153.759683,62.7526149 L153.759683,78.3838466 C153.759683,85.6308146 147.810498,91.5359329 140.510825,91.5359329 L124.765197,91.5359329 C119.798803,91.5359329 115.45984,88.8001765 113.194424,84.7770773 L110.629174,90.0869068 L107.682035,96.2094403 L107.682035,96.2229139 C109.796917,98.2408941 111.243032,100.963789 111.625537,104.011276 C112.457794,97.5500651 118.038663,92.5250188 124.765197,92.5250188 L140.510825,92.5250188 C147.810498,92.5250188 153.759683,98.4307496 153.759683,105.677105 L153.759683,121.321198 C153.759683,128.568166 147.810498,134.459811 140.510825,134.459811 L124.765197,134.459811 C118.038663,134.459811 112.457794,129.461712 111.625537,123.001113 C110.793281,129.461712 105.225984,134.459811 98.4994504,134.459811 L89.2348121,134.459811 L88.757298,135.46237 L98.4994504,135.46237 C105.225984,135.46237 110.806853,140.473943 111.625537,146.935154 C112.444221,140.473943 118.038663,135.46237 124.765197,135.46237 L140.510825,135.46237 C147.810498,135.46237 153.759683,141.354627 153.759683,148.600983 L153.759683,164.245076 C153.759683,171.491431 147.810498,177.383689 140.510825,177.383689 L124.765197,177.383689 C118.038663,177.383689 112.457794,172.372116 111.625537,165.911517 C110.793281,172.372116 105.225984,177.383689 98.4994504,177.383689 L82.7396325,177.383689 C78.018782,177.383689 73.8568822,174.918629 71.5236024,171.207261 L66.9255236,180.729432 L66.0383591,182.558169 C67.9484157,184.535729 69.2452306,187.109189 69.6135458,189.980907 C70.4322296,183.520308 76.0130992,178.494649 82.7396325,178.494649 L98.4988335,178.494649 C105.798507,178.494649 111.734119,184.40038 111.734119,191.647348 L111.734119,207.277967 C111.734119,214.524935 105.798507,220.430666 98.4988335,220.430666 L82.7396325,220.430666 C76.0124822,220.430666 70.4458024,215.418481 69.6135458,208.957882 C68.7812892,215.418481 63.2139924,220.430666 56.4874591,220.430666 L47.7688157,220.430666 L17,284.213539 L17,293.532381 C17,295.44196 18.5688869,297 20.4931332,297 L117.79312,297 L159,211.612797 L159,21.4676188 C159,19.5574275 157.429879,18 155.50625,18 Z" id="Path" fill="#666288"></path>
                    <path d="M154.313031,0 L20.7016231,0 C9.28688061,0 0,9.321875 0,20.7791953 L0,293.221418 C0,304.678738 9.28627004,314 20.7016231,314 L154.313031,314 C165.720446,314 175,304.678738 175,293.221418 L175,20.7791953 C175,9.321875 165.719836,0 154.313031,0 Z M170.94882,293.221418 C170.94882,302.434742 163.486344,309.930879 154.313031,309.930879 L20.7016231,309.930879 C11.5203723,309.930879 4.05118033,302.435355 4.05118033,293.221418 L4.05118033,20.7791953 C4.05118033,11.5652578 11.5203723,4.06912109 20.7016231,4.06912109 L154.313031,4.06912109 C163.486344,4.06912109 170.94882,11.5652578 170.94882,20.7791953 L170.94882,293.221418 Z" id="Shape" fill="#4B555F"></path>
                    <path d="M154.823747,9 L21.1909094,9 C14.4679859,9 9,14.4876847 9,21.2324143 L9,293.767586 C9,300.512315 14.4685966,306 21.1909094,306 L154.823747,306 C161.538731,306 167,300.512315 167,293.767586 L167,21.2324143 C167,14.4870712 161.538121,9 154.823747,9 Z M162.948781,293.767586 C162.948781,298.268162 159.30366,301.929481 154.823136,301.929481 L21.1909094,301.929481 C16.7024466,301.929481 13.0518301,298.267549 13.0518301,293.767586 L13.0518301,21.2324143 C13.0518301,16.731838 16.7030572,13.0705185 21.1909094,13.0705185 L154.823747,13.0705185 C159.304271,13.0705185 162.948781,16.7324514 162.948781,21.2324143 L162.948781,293.767586 L162.948781,293.767586 Z" id="Shape" fill="#4B555F"></path>
                    <path d="M20.4353319,17 C18.5383076,17 17,18.502591 17,20.3418475 L17,70 L43,17 L20.4353319,17 Z" id="Path" fill="#666288"></path>
                    <path d="M125,297 L154.605077,297 C156.473544,297 158,295.472087 158,293.601101 L158,228 L125,297 Z" id="Path" fill="#666288"></path>
                    <path d="M122.867053,9 L112.233362,21.3625702 C110.273954,23.6402394 107.409155,24.9467383 104.374055,24.9467383 L72.6240876,24.9467383 C69.5889867,24.9467383 66.7254269,23.6402394 64.7660188,21.3625702 L54.1323282,9 L51,11.621549 L61.6336906,23.9841192 C64.3746326,27.171268 68.3801483,29 72.6240876,29 L104.374674,29 C108.619852,29 112.625987,27.1718788 115.366309,23.9841192 L126,11.621549 L122.867053,9 Z" id="Path" fill="#4B555F"></path>
                    <path d="M55.491239,55 L39.508761,55 C35.9142678,55 33,57.9142678 33,61.508761 L33,77.491239 C33,81.0857322 35.9142678,84 39.508761,84 L55.491239,84 C59.0857322,84 62,81.0857322 62,77.491239 L62,61.508761 C62,57.9142678 59.0857322,55 55.491239,55 Z" id="Path" fill="#DFDFDE"></path>
                    <path d="M98.491239,55 L82.5087609,55 C78.9142678,55 76,57.9142678 76,61.508761 L76,77.491239 C76,81.0857322 78.9142678,84 82.5087609,84 L98.491239,84 C102.085732,84 105,81.0857322 105,77.491239 L105,61.508761 C105.000626,57.9142678 102.086358,55 98.491239,55 Z" id="Path" fill="#DFDFDE"></path>
                    <path d="M124,59.5246667 L126,59.5246667 C125.329485,59.5246667 124.659452,59.4136667 124,59.5246667 Z" id="Path" fill="#F58E70"></path>
                    <path d="M138.491239,55 L122.508761,55 C118.914268,55 116,57.9142678 116,61.508761 L116,77.491239 C116,81.0857322 118.914268,84 122.508761,84 L138.491239,84 C142.085732,84 145,81.0857322 145,77.491239 L145,61.508761 C145,57.9142678 142.085732,55 138.491239,55 Z" id="Path" fill="#E88C59"></path>
                    <path d="M68.5,102 C68.389,102.55271 68.323,103.118536 68.323,103.698726 L68.323,112 L68.677,111.544092 L68.677,103.698726 C68.676,103.118536 68.61,102.552086 68.5,102 Z" id="Path" fill="#F58E70"></path>
                    <path d="M55.491239,98 L39.508761,98 C35.9142678,98 33,100.914331 33,104.508901 L33,120.491099 C33,124.086295 35.9142678,127 39.508761,127 L55.491239,127 C59.0857322,127 62,124.085669 62,120.491099 L62,104.508901 C62,100.914331 59.0857322,98 55.491239,98 Z" id="Path" fill="#E88C59"></path>
                    <path d="M68.5,102 C68.389,102.55271 68.323,103.118536 68.323,103.698726 L68.323,112 L68.677,111.544092 L68.677,103.698726 C68.676,103.118536 68.61,102.552086 68.5,102 Z" id="Path" fill="#FFD351"></path>
                    <path d="M98.491239,98 L82.5087609,98 C78.9142678,98 76,100.914331 76,104.508901 L76,120.491099 C76,124.086295 78.9142678,127 82.5087609,127 L98.491239,127 C102.085732,127 105,124.085669 105,120.491099 L105,104.508901 C105.000626,100.914331 102.086358,98 98.491239,98 Z" id="Path" fill="#FFD351"></path>
                    <path d="M138.491239,98 L122.508761,98 C118.914268,98 116,100.914331 116,104.508901 L116,120.491099 C116,124.086295 118.914268,127 122.508761,127 L138.491239,127 C142.085732,127 145,124.085669 145,120.491099 L145,104.508901 C145,100.914331 142.085732,98 138.491239,98 Z" id="Path" fill="#FFD351"></path>
                    <path d="M55.491239,141 L39.508761,141 C35.9142678,141 33,143.914331 33,147.508901 L33,163.491099 C33,167.085669 35.9142678,170 39.508761,170 L55.491239,170 C59.0857322,170 62,167.085669 62,163.491099 L62,147.508901 C62,143.914331 59.0857322,141 55.491239,141 Z" id="Path" fill="#E88C59"></path>
                    <path d="M98.491239,141 L82.5087609,141 C78.9142678,141 76,143.914331 76,147.508901 L76,163.491099 C76,167.085669 78.9142678,170 82.5087609,170 L98.491239,170 C102.085732,170 105,167.085669 105,163.491099 L105,147.508901 C105.000626,143.914331 102.086358,141 98.491239,141 Z" id="Path" fill="#E88C59"></path>
                    <path d="M55.491239,186 L39.508761,186 C35.9142678,186 33,188.914331 33,192.508901 L33,208.491099 C33,212.085669 35.9142678,215 39.508761,215 L55.491239,215 C59.0857322,215 62,212.085669 62,208.491099 L62,192.508901 C62,188.914331 59.0857322,186 55.491239,186 Z" id="Path" fill="#DFDFDE"></path>
                    <path d="M98.491239,186 L82.5087609,186 C78.9142678,186 76,188.914331 76,192.508901 L76,208.491099 C76,212.085669 78.9142678,215 82.5087609,215 L98.491239,215 C102.085732,215 105,212.085669 105,208.491099 L105,192.508901 C105.000626,188.914331 102.086358,186 98.491239,186 Z" id="Path" fill="#DFDFDE"></path>
                    <path d="M138.491239,141 L122.508761,141 C118.914268,141 116,143.914331 116,147.508901 L116,163.491099 C116,167.085669 118.914268,170 122.508761,170 L138.491239,170 C142.085732,170 145,167.085669 145,163.491099 L145,147.508901 C145,143.914331 142.085732,141 138.491239,141 Z" id="Path" fill="#FFD351"></path>
                    <path d="M54.7133905,52 L39.2866095,52 C34.7165616,52 31,55.7178398 31,60.286766 L31,75.713234 C31,80.2827642 34.7165616,84 39.2866095,84 L54.7133905,84 C59.2834384,84 63,80.2827642 63,75.713234 L63,60.286766 C63,55.7178398 59.2828344,52 54.7133905,52 Z M58.9922987,75.713234 C58.9922987,78.0725975 57.0733135,79.992223 54.7133905,79.992223 L39.2866095,79.992223 C36.9266865,79.992223 35.0077013,78.0725975 35.0077013,75.713234 L35.0077013,60.286766 C35.0077013,57.9274025 36.9266865,56.007777 39.2866095,56.007777 L54.7133905,56.007777 C57.0733135,56.007777 58.9922987,57.9274025 58.9922987,60.286766 L58.9922987,75.713234 Z" id="Shape" fill="#4B555F"></path>
                    <path d="M98.7130776,52 L83.2869224,52 C78.7167019,52 75,55.7178398 75,60.286766 L75,75.713234 C75,80.2827642 78.7167019,84 83.2869224,84 L98.7130776,84 C103.283298,84 107,80.2827642 107,75.713234 L107,60.286766 C107,55.7178398 103.282694,52 98.7130776,52 Z M102.992147,75.713234 C102.992147,78.0725975 101.07309,79.992223 98.7130776,79.992223 L83.2869224,79.992223 C80.9269103,79.992223 79.0078526,78.0725975 79.0078526,75.713234 L79.0078526,60.286766 C79.0078526,57.9274025 80.9269103,56.007777 83.2869224,56.007777 L98.7130776,56.007777 C101.07309,56.007777 102.992147,57.9274025 102.992147,60.286766 L102.992147,75.713234 Z" id="Shape" fill="#4B555F"></path>
                    <path d="M137.71339,52 L122.28661,52 C117.716562,52 114,55.7178398 114,60.286766 L114,75.713234 C114,80.2827642 117.716562,84 122.28661,84 L137.71339,84 C142.283438,84 146,80.2827642 146,75.713234 L146,60.286766 C146,55.7178398 142.283438,52 137.71339,52 Z M141.992299,75.713234 C141.992299,78.0725975 140.073313,79.992223 137.71339,79.992223 L122.28661,79.992223 C119.926687,79.992223 118.007701,78.0725975 118.007701,75.713234 L118.007701,60.286766 C118.007701,57.9274025 119.926687,56.007777 122.28661,56.007777 L137.71339,56.007777 C140.073313,56.007777 141.992299,57.9274025 141.992299,60.286766 L141.992299,75.713234 Z" id="Shape" fill="#4B555F"></path>
                    <path d="M54.7133905,96 L39.2866095,96 C34.7165616,96 31,99.7178398 31,104.286766 L31,119.713234 C31,124.282764 34.7165616,128 39.2866095,128 L54.7133905,128 C59.2834384,128 63,124.282764 63,119.713234 L63,104.286766 C63,99.7172358 59.2828344,96 54.7133905,96 Z M58.9922987,119.713234 C58.9922987,122.072598 57.0733135,123.992223 54.7133905,123.992223 L39.2866095,123.992223 C36.9266865,123.992223 35.0077013,122.072598 35.0077013,119.713234 L35.0077013,104.286766 C35.0077013,101.927402 36.9266865,100.007777 39.2866095,100.007777 L54.7133905,100.007777 C57.0733135,100.007777 58.9922987,101.927402 58.9922987,104.286766 L58.9922987,119.713234 Z" id="Shape" fill="#4B555F"></path>
                    <path d="M98.7130776,96 L83.2869224,96 C78.7167019,96 75,99.7178398 75,104.286766 L75,119.713234 C75,124.282764 78.7167019,128 83.2869224,128 L98.7130776,128 C103.283298,128 107,124.282764 107,119.713234 L107,104.286766 C107,99.7172358 103.282694,96 98.7130776,96 Z M102.992147,119.713234 C102.992147,122.072598 101.07309,123.992223 98.7130776,123.992223 L83.2869224,123.992223 C80.9269103,123.992223 79.0078526,122.072598 79.0078526,119.713234 L79.0078526,104.286766 C79.0078526,101.927402 80.9269103,100.007777 83.2869224,100.007777 L98.7130776,100.007777 C101.07309,100.007777 102.992147,101.927402 102.992147,104.286766 L102.992147,119.713234 Z" id="Shape" fill="#4B555F"></path>
                    <path d="M137.71339,96 L122.28661,96 C117.716562,96 114,99.7178398 114,104.286766 L114,119.713234 C114,124.282764 117.716562,128 122.28661,128 L137.71339,128 C142.283438,128 146,124.282764 146,119.713234 L146,104.286766 C146,99.7172358 142.283438,96 137.71339,96 Z M141.992299,119.713234 C141.992299,122.072598 140.073313,123.992223 137.71339,123.992223 L122.28661,123.992223 C119.926687,123.992223 118.007701,122.072598 118.007701,119.713234 L118.007701,104.286766 C118.007701,101.927402 119.926687,100.007777 122.28661,100.007777 L137.71339,100.007777 C140.073313,100.007777 141.992299,101.927402 141.992299,104.286766 L141.992299,119.713234 Z" id="Shape" fill="#4B555F"></path>
                    <path d="M54.7133905,139 L39.2866095,139 C34.7165616,139 31,142.717236 31,147.286766 L31,162.713838 C31,167.282764 34.7165616,171 39.2866095,171 L54.7133905,171 C59.2834384,171 63,167.282764 63,162.713838 L63,147.286766 C63,142.717236 59.2828344,139 54.7133905,139 Z M58.9922987,162.713838 C58.9922987,165.073202 57.0733135,166.992223 54.7133905,166.992223 L39.2866095,166.992223 C36.9266865,166.992223 35.0077013,165.073202 35.0077013,162.713838 L35.0077013,147.286766 C35.0077013,144.927402 36.9266865,143.007777 39.2866095,143.007777 L54.7133905,143.007777 C57.0733135,143.007777 58.9922987,144.927402 58.9922987,147.286766 L58.9922987,162.713838 Z" id="Shape" fill="#4B555F"></path>
                    <path d="M98.7130776,139 L83.2869224,139 C78.7167019,139 75,142.717236 75,147.286766 L75,162.713838 C75,167.282764 78.7167019,171 83.2869224,171 L98.7130776,171 C103.283298,171 107,167.282764 107,162.713838 L107,147.286766 C107,142.717236 103.282694,139 98.7130776,139 Z M102.992147,162.713838 C102.992147,165.073202 101.07309,166.992223 98.7130776,166.992223 L83.2869224,166.992223 C80.9269103,166.992223 79.0078526,165.073202 79.0078526,162.713838 L79.0078526,147.286766 C79.0078526,144.927402 80.9269103,143.007777 83.2869224,143.007777 L98.7130776,143.007777 C101.07309,143.007777 102.992147,144.927402 102.992147,147.286766 L102.992147,162.713838 Z" id="Shape" fill="#4B555F"></path>
                    <path d="M54.7133905,184 L39.2866095,184 C34.7165616,184 31,187.717236 31,192.286766 L31,207.713234 C31,212.282764 34.7165616,216 39.2866095,216 L54.7133905,216 C59.2834384,216 63,212.28216 63,207.713234 L63,192.286766 C63,187.71784 59.2828344,184 54.7133905,184 Z M58.9922987,207.713234 C58.9922987,210.072598 57.0733135,211.992223 54.7133905,211.992223 L39.2866095,211.992223 C36.9266865,211.992223 35.0077013,210.072598 35.0077013,207.713234 L35.0077013,192.286766 C35.0077013,189.927402 36.9266865,188.007777 39.2866095,188.007777 L54.7133905,188.007777 C57.0733135,188.007777 58.9922987,189.927402 58.9922987,192.286766 L58.9922987,207.713234 Z" id="Shape" fill="#4B555F"></path>
                    <path d="M98.7130776,184 L83.2869224,184 C78.7167019,184 75,187.717236 75,192.286766 L75,207.713234 C75,212.282764 78.7167019,216 83.2869224,216 L98.7130776,216 C103.283298,216 107,212.28216 107,207.713234 L107,192.286766 C107,187.71784 103.282694,184 98.7130776,184 Z M102.992147,207.713234 C102.992147,210.072598 101.07309,211.992223 98.7130776,211.992223 L83.2869224,211.992223 C80.9269103,211.992223 79.0078526,210.072598 79.0078526,207.713234 L79.0078526,192.286766 C79.0078526,189.927402 80.9269103,188.007777 83.2869224,188.007777 L98.7130776,188.007777 C101.07309,188.007777 102.992147,189.927402 102.992147,192.286766 L102.992147,207.713234 Z" id="Shape" fill="#4B555F"></path>
                    <path d="M137.71339,139 L122.28661,139 C117.716562,139 114,142.717236 114,147.286766 L114,162.713838 C114,167.282764 117.716562,171 122.28661,171 L137.71339,171 C142.283438,171 146,167.282764 146,162.713838 L146,147.286766 C146,142.717236 142.283438,139 137.71339,139 Z M141.992299,162.713838 C141.992299,165.073202 140.073313,166.992223 137.71339,166.992223 L122.28661,166.992223 C119.926687,166.992223 118.007701,165.073202 118.007701,162.713838 L118.007701,147.286766 C118.007701,144.927402 119.926687,143.007777 122.28661,143.007777 L137.71339,143.007777 C140.073313,143.007777 141.992299,144.927402 141.992299,147.286766 L141.992299,162.713838 Z" id="Shape" fill="#4B555F"></path>
                </g>
                <g id="mobil" transform="translate(202.000000, 0.000000)">
                    <g id="Group-14">
                        <path d="M149.50231,3.7658765e-13 L34.9475801,3.7658765e-13 C19.890684,3.7658765e-13 7.64057389,12.2203039 7.64057389,27.2405644 L7.64057389,296.604389 C7.64057389,311.624649 19.890684,323.844953 34.9475801,323.844953 L149.50231,323.844953 C164.559206,323.844953 176.808588,311.625375 176.808588,296.604389 L176.808588,27.2405644 C176.808588,12.2203039 164.559206,3.7658765e-13 149.50231,3.7658765e-13 Z M172.267492,296.604389 C172.267492,309.126841 162.055305,319.314907 149.50231,319.314907 L34.9475801,319.314907 C22.3945848,319.314907 12.1816697,309.126841 12.1816697,296.604389 L12.1816697,27.2405644 C12.1816697,14.7181122 22.3945848,4.53004668 34.9475801,4.53004668 L149.50231,4.53004668 C162.055305,4.53004668 172.267492,14.7181122 172.267492,27.2405644 L172.267492,296.604389 Z" id="Shape" fill="#4A555F" fill-rule="nonzero"></path>
                        <path d="M148.472063,7.86675253 L131.088192,7.86675253 C126.878377,7.86675253 122.991106,10.1473917 120.944445,13.8189303 L117.223907,20.5032367 C115.975961,22.7308546 113.608941,24.1152172 111.046793,24.1152172 L73.4009125,24.1152172 C70.8394927,24.1152172 68.4724729,22.7308546 67.2274395,20.5090473 L63.5039884,13.8182039 C61.4566001,10.1473917 57.570057,7.86675253 53.360242,7.86675253 L35.9763709,7.86675253 C25.4008672,7.86675253 16.7977588,16.1860013 16.7977588,26.4103827 L16.7977588,252.844443 C16.7977588,263.068824 25.4008672,271.387346 35.9763709,271.387346 L148.487353,271.387346 C159.05412,271.387346 167.651403,263.07536 167.651403,252.858969 L167.651403,26.4096564 C167.651403,16.185275 159.047567,7.86675253 148.472063,7.86675253 Z M163.109579,252.858969 C163.109579,260.577553 156.550219,266.856573 148.486625,266.856573 L35.9763709,266.856573 C27.905496,266.856573 21.3388545,260.570288 21.3388545,252.843715 L21.3388545,26.4096564 C21.3388545,18.6830833 27.904768,12.3967992 35.9763709,12.3967992 L53.360242,12.3967992 C55.923118,12.3967992 58.2886816,13.7847933 59.533715,16.0182218 L63.2600784,22.713423 C65.3103791,26.3718879 69.1961942,28.6445375 73.4009125,28.6445375 L111.046793,28.6445375 C115.25224,28.6445375 119.138055,26.3718879 121.191268,22.7076124 L124.913991,16.0196744 C126.159752,13.7855196 128.525316,12.3967992 131.087464,12.3967992 L148.471335,12.3967992 C156.54221,12.3967992 163.109579,18.6838096 163.109579,26.4103827 L163.109579,252.858969 L163.109579,252.858969 Z" id="Shape" fill="#4A555F" fill-rule="nonzero"></path>
                        <path d="M148.488081,276.672764 L35.9770991,276.672764 C28.5979095,276.672764 21.9708365,273.476965 17.4792508,268.432684 L17.4792508,296.605114 C17.4792508,306.213578 25.3149528,314.030941 34.9475801,314.030941 L149.50231,314.030941 C159.134209,314.030941 166.970639,306.214304 166.970639,296.605114 L166.970639,268.442126 C162.482694,273.480596 155.85999,276.672764 148.488081,276.672764 Z" id="Path" fill="#EC8D53" fill-rule="nonzero"></path>
                        <path d="M68.1346394,11.2535743 L71.8471689,17.9233545 C72.155879,18.4739037 72.7660182,18.8297996 73.4009125,18.8297996 L111.046793,18.8297996 C111.681688,18.8297996 112.291827,18.47463 112.589616,17.9436914 L116.315251,11.2506691 C116.591925,10.7545937 116.89117,10.27595 117.211529,9.8161906 L67.2361765,9.8161906 C67.5579923,10.2766764 67.8579652,10.75532 68.1346394,11.2535743 Z" id="Path" fill="#666288" fill-rule="nonzero"></path>
                        <path d="M109.159585,284.511191 L75.2407952,284.511191 C69.6454255,284.511191 65.1086983,289.036153 65.1086983,294.618634 L65.1086983,294.923689 C65.1086983,300.505442 69.6446975,305.031132 75.2407952,305.031132 L109.159585,305.031132 C114.754955,305.031132 119.291682,300.50617 119.291682,294.923689 L119.291682,294.618634 C119.291682,289.036878 114.755682,284.511191 109.159585,284.511191 Z" id="Path" fill="#FFFFFF" fill-rule="nonzero"></path>
                        <path d="M109.159585,282.246531 L75.2407952,282.246531 C68.4018483,282.246531 62.8385144,287.797053 62.8385144,294.618634 L62.8385144,294.923689 C62.8385144,301.745995 68.4018483,307.29652 75.2407952,307.29652 L109.159585,307.29652 C115.998532,307.29652 121.561866,301.74672 121.561866,294.923689 L121.561866,294.618634 C121.561866,287.796328 115.998532,282.246531 109.159585,282.246531 Z M117.02077,294.923689 C117.02077,299.248187 113.494631,302.766472 109.159585,302.766472 L75.2407952,302.766472 C70.9057489,302.766472 67.3796102,299.248187 67.3796102,294.923689 L67.3796102,294.618634 C67.3796102,290.294863 70.9057489,286.776576 75.2407952,286.776576 L109.159585,286.776576 C113.494631,286.776576 117.02077,290.294863 117.02077,294.618634 L117.02077,294.923689 Z" id="Shape" fill="#4B555F" fill-rule="nonzero"></path>
                        <path d="M44.4127469,284.028914 C38.474447,284.028914 33.6435714,288.848036 33.6435714,294.771161 C33.6435714,300.694287 38.474447,305.513408 44.4127469,305.513408 C50.3503189,305.513408 55.1811945,300.694287 55.1811945,294.771161 C55.1811945,288.848036 50.3495909,284.028914 44.4127469,284.028914 Z M44.4127469,300.98336 C40.9790757,300.98336 38.1846672,298.196477 38.1846672,294.771161 C38.1846672,291.345845 40.9783476,288.558962 44.4127469,288.558962 C47.8471463,288.558962 50.6400987,291.345845 50.6400987,294.771161 C50.6393705,298.196477 47.8464183,300.98336 44.4127469,300.98336 Z" id="Shape" fill="#4B555F" fill-rule="nonzero"></path>
                        <path d="M140.843138,284.028914 C134.904839,284.028914 130.073963,288.848036 130.073963,294.771161 C130.073963,300.694287 134.904839,305.513408 140.843138,305.513408 C146.78071,305.513408 151.611586,300.694287 151.611586,294.771161 C151.611586,288.848036 146.78071,284.028914 140.843138,284.028914 Z M140.843138,300.98336 C137.409467,300.98336 134.615059,298.196477 134.615059,294.771161 C134.615059,291.345845 137.408739,288.558962 140.843138,288.558962 C144.277538,288.558962 147.07049,291.345845 147.07049,294.771161 C147.07049,298.196477 144.277538,300.98336 140.843138,300.98336 Z" id="Shape" fill="#4B555F" fill-rule="nonzero"></path>
                        <path d="M6.09119889,61.486468 C2.73252085,61.486468 -2.84217094e-14,64.2116139 -2.84217094e-14,67.5621199 L-2.84217094e-14,80.6823321 C-2.84217094e-14,84.0328378 2.73252085,86.7579837 6.09119889,86.7579837 C9.44987694,86.7579837 12.1816697,84.0321116 12.1816697,80.6823321 L12.1816697,67.5621199 C12.1809416,64.2116139 9.44914884,61.486468 6.09119889,61.486468 Z M7.6398458,80.6823321 C7.6398458,81.5343032 6.94524818,82.2279372 6.0904708,82.2279372 C5.23569344,82.2279372 4.54036772,81.5343032 4.54036772,80.6823321 L4.54036772,67.5621199 C4.54036772,66.7101486 5.23569344,66.0165147 6.0904708,66.0165147 C6.94524818,66.0165147 7.6398458,66.7101486 7.6398458,67.5621199 L7.6398458,80.6823321 Z" id="Shape" fill="#4A555F" fill-rule="nonzero"></path>
                        <path d="M30.3750957,45.2149514 L30.3750957,241.599087 C30.3750957,245.911288 33.1660373,249.407019 36.6088384,249.407019 L147.356144,249.407019 C150.798945,249.407019 153.589887,245.911288 153.589887,241.599087 L153.589887,45.2149514 C153.589887,40.9027495 150.798945,37.4070191 147.356144,37.4070191 L36.6088384,37.4070191 C33.1660373,37.4070191 30.3750957,40.9027495 30.3750957,45.2149514 Z" id="Path" stroke="#4A555F" stroke-width="3.38"></path>
                        <path d="M144.33984,47.7615204 C143.514663,46.937753 142.416375,46.4843654 141.248469,46.4843654 C140.081538,46.4843654 138.98471,46.9372676 138.159046,47.7600642 C136.455141,49.4585687 136.454654,52.2235535 138.158559,53.923029 C138.984223,54.7467964 140.082511,55.200184 141.250417,55.200184 C142.417348,55.200184 143.514176,54.7472818 144.33984,53.9244851 C146.043745,52.2259806 146.044232,49.4614813 144.33984,47.7615204 Z M142.19292,51.7837579 C141.689537,52.2861735 140.809836,52.2852025 140.306453,51.7827871 C139.786032,51.2638669 139.785545,50.4197115 140.305966,49.9012769 C140.557658,49.6503119 140.892597,49.5119655 141.248469,49.5119655 C141.605316,49.5119655 141.940255,49.6507973 142.192433,49.9022479 C142.712854,50.4211679 142.713341,51.2653232 142.19292,51.7837579 Z" id="Shape" fill="#FFFFFF" fill-rule="nonzero"></path>
                        <polygon id="Rectangle" fill="#FFFFFF" fill-rule="nonzero" transform="translate(144.161771, 55.200184) rotate(-45.000000) translate(-144.161771, -55.200184) " points="142.70382 52.2895966 145.612636 52.2931399 145.619722 58.1107717 142.710906 58.1072287"></polygon>
                    </g>
                </g>
                <g id="Group-4" transform="translate(238.000000, 54.000000)">
                    <path d="M3,39.2666713 L3,171.733329 C3,174.642031 5.35570689,177 8.26161862,177 L101.738381,177 C104.644293,177 107,174.642031 107,171.733329 L107,39.2666713 C107,36.3579691 104.644293,34 101.738381,34 L8.26161862,34 C5.35570689,34 3,36.3579691 3,39.2666713 Z" id="Path" stroke="#4A555F" stroke-width="2.38"></path>
                    <path d="M0,0 L0,23 L89,23 L89,0 L0,0 Z M85.1835461,19.2643941 L3.81767801,19.2643941 L3.81767801,3.73620475 L85.1835461,3.73620475 L85.1835461,19.2643941 Z" id="Shape" fill="#4A555F" fill-rule="nonzero"></path>
                    <rect id="Rectangle" fill="#E88C59" fill-rule="nonzero" x="8" y="8" width="73" height="7"></rect>
                    <path d="M85,0 L85,23 L110,23 L110,0 L85,0 Z M106.105866,19.2643941 L88.8941335,19.2643941 L88.8941335,3.73620475 L106.105866,3.73620475 L106.105866,19.2643941 Z" id="Shape" fill="#4A555F" fill-rule="nonzero"></path>
                    <path d="M98.9759986,7.02573099 C98.3148807,6.36413254 97.4349504,6 96.4992444,6 C95.5643183,6 94.685558,6.3637427 94.0240502,7.02456148 C92.65891,8.388694 92.6585199,10.6093567 94.0236601,11.974269 C94.6851681,12.6358675 95.5650983,13 96.5008044,13 C97.4357305,13 98.3144908,12.6362573 98.9759986,11.9754385 C100.341139,10.611306 100.341529,8.39103318 98.9759986,7.02573099 Z M97.255922,10.2561404 C96.8526206,10.6596492 96.1478182,10.6588693 95.7445169,10.2553607 C95.3275639,9.83859645 95.327174,9.16062372 95.7441268,8.74424948 C95.9457775,8.54269007 96.2141251,8.43157896 96.4992444,8.43157896 C96.7851437,8.43157896 97.0534912,8.54307991 97.2555319,8.74502932 C97.6724847,9.16179339 97.6728748,9.83976612 97.255922,10.2561404 Z" id="Shape" fill="#FFFFFF" fill-rule="nonzero"></path>
                    <polygon id="Rectangle" fill="#FFFFFF" fill-rule="nonzero" transform="translate(98.734250, 13.537176) rotate(-45.000000) translate(-98.734250, -13.537176) " points="97.5049353 11.0857643 99.9539418 11.0905755 99.9635639 15.9885881 97.5145575 15.9837772"></polygon>
                    <rect id="Rectangle-Copy-12" fill="#666288" fill-rule="nonzero" x="14" y="53" width="84" height="8"></rect>
                    <rect id="Rectangle-Copy-15" fill="#666288" fill-rule="nonzero" x="14" y="111" width="84" height="8"></rect>
                    <rect id="Rectangle-Copy-16" fill="#666288" fill-rule="nonzero" x="14" y="130" width="84" height="8"></rect>
                    <rect id="Rectangle-Copy-13" fill="#666288" fill-rule="nonzero" x="14" y="71" width="35" height="8"></rect>
                    <rect id="Rectangle-Copy-14" fill="#666288" fill-rule="nonzero" x="13" y="92" width="59" height="8"></rect>
                    <rect id="Rectangle-Copy-17" fill="#666288" fill-rule="nonzero" x="13" y="152" width="59" height="8"></rect>
                </g>
                <path d="M319,447 L307,447 L307,435 L319,435 L319,447 Z M296,447 L284,447 L284,435 L296,435 L296,447 Z M272,447 L260,447 L260,435 L272,435 L272,447 Z M248,447 L236,447 L236,435 L248,435 L248,447 Z M224,447 L212,447 L212,435 L224,435 L224,447 Z M201,447 L189,447 L189,435 L201,435 L201,447 Z" id="Shape" fill="#4A555F" fill-rule="nonzero" transform="translate(254.000000, 441.000000) scale(-1, 1) rotate(-180.000000) translate(-254.000000, -441.000000) "></path>
                <path d="M669,447 L657,447 L657,435 L669,435 L669,447 Z M646,447 L634,447 L634,435 L646,435 L646,447 Z M622,447 L610,447 L610,435 L622,435 L622,447 Z M598,447 L586,447 L586,435 L598,435 L598,447 Z M574,447 L562,447 L562,435 L574,435 L574,447 Z M551,447 L539,447 L539,435 L551,435 L551,447 Z" id="Shape-Copy-3" fill="#4A555F" fill-rule="nonzero" transform="translate(604.000000, 441.000000) scale(-1, 1) rotate(-180.000000) translate(-604.000000, -441.000000) "></path>
                <path d="M663,168 L651,168 L651,156 L663,156 L663,168 Z M640,168 L628,168 L628,156 L640,156 L640,168 Z M434,168 L423,168 L423,156 L434,156 L434,168 Z M411,168 L399,168 L399,156 L411,156 L411,168 Z" id="Shape-Copy-4" fill="#4A555F" fill-rule="nonzero" transform="translate(531.000000, 162.000000) scale(-1, 1) rotate(-180.000000) translate(-531.000000, -162.000000) "></path>
            </g>
            <g id="Secure" transform="translate(462.000000, 91.000000)" fill-rule="nonzero">
                <circle id="Oval" stroke="#4A555F" stroke-width="8" fill="#00C621" cx="70.5" cy="70.5" r="70.5"></circle>
                <polygon id="Path" stroke="#FFFFFF" stroke-width="6" fill="#4A555F" points="57.6636197 97 35 71.2085561 38.3784278 68.2326203 58.0859232 90.4812834 109.043876 44 112 47.4010695"></polygon>
                <path d="M70.6820513,132 C69.2419306,132 67.80181,132 66.2307692,131.855532 L66.4926094,127.232558 C68.5873303,127.377026 70.6820513,127.377026 72.7767722,127.377026 L72.9076923,132 C72.253092,132 71.4675716,132 70.6820513,132 Z M78.1925156,132 L77.6769231,127.876807 C78.9659044,127.747957 80.3837838,127.490258 81.6727651,127.232558 L82.4461538,131.355751 C81.0282744,131.613451 79.610395,131.7423 78.1925156,132 Z M61.7878543,131.046512 C60.4072874,130.795594 59.0267206,130.544676 57.6461538,130.293758 L58.5246964,126.27907 C59.7797571,126.529988 61.0348178,126.780906 62.4153846,127.031824 L61.7878543,131.046512 Z M86.4243902,130.093023 L85.3076923,125.659302 C86.7035647,125.230233 88.0994371,124.801163 89.4953096,124.372093 L91.0307692,128.805814 C89.3557223,129.234884 87.8202627,129.663953 86.4243902,130.093023 Z M53.421978,129.139535 C51.9230769,128.72093 50.5604396,128.162791 49.0615385,127.604651 L50.6967033,123.418605 C52.0593407,123.976744 53.421978,124.395349 54.7846154,124.813953 L53.421978,129.139535 Z M95.6225403,127.232558 L93.8923077,123.241211 C95.2232558,122.709032 96.421109,122.043807 97.618962,121.511628 L99.615385,125.36993 C98.417531,126.035154 96.953488,126.700379 95.6225403,127.232558 Z M45.3328671,126.27907 C44.0321678,125.613845 42.7314685,124.948621 41.4307692,124.283396 L43.5118881,120.55814 C44.6825175,121.223364 45.8531469,121.888588 47.1538462,122.420768 L45.3328671,126.27907 Z M103.685128,123.418605 L101.523077,119.858915 C102.667692,119.223256 103.812308,118.460465 104.829744,117.697674 L107.246154,121.003101 C106.101538,121.893023 104.829744,122.655814 103.685128,123.418605 Z M37.2338462,121.511628 C36.0892308,120.748837 34.8174359,119.858915 33.8,119.096124 L36.3435897,115.790698 C37.3610256,116.553488 38.505641,117.316279 39.5230769,118.07907 L37.2338462,121.511628 Z M110.870769,117.697674 L108.2,114.588473 C109.217436,113.717897 110.234872,112.847321 111.125128,111.976744 L113.923077,114.837209 C113.032821,115.832154 112.015385,116.827098 110.870769,117.697674 Z M30.1090301,115.790698 C29.1137124,114.920121 28.1183946,113.925177 27.1230769,112.930233 L29.9846154,110.069767 C30.8555184,110.940344 31.8508361,111.935288 32.8461538,112.805865 L30.1090301,115.790698 Z M116.90903,111.023256 L113.923077,108.287159 C114.79398,107.292214 115.664883,106.29727 116.411371,105.302326 L119.646154,107.789687 C118.775251,108.908999 117.779933,110.028311 116.90903,111.023256 Z M24.0707692,110.069767 C23.1805128,108.925581 22.2902564,107.908527 21.4,106.764341 L24.7066667,104.348837 C25.4697436,105.365891 26.36,106.510078 27.1230769,107.527132 L24.0707692,110.069767 Z M122.204196,104.348837 L118.692308,102.060465 C119.472727,100.916279 120.123077,99.772093 120.773427,98.627907 L124.415385,100.662016 C123.765035,101.933333 122.984615,103.204651 122.204196,104.348837 Z M17.8389744,102.44186 C17.0758974,101.27167 16.44,99.971459 15.6769231,98.671247 L19.3651282,96.72093 C20.0010256,97.891121 20.6369231,99.061311 21.4,100.231501 L17.8389744,102.44186 Z M127.413187,96.72093 L123.461538,94.8583018 C124.006593,93.6608978 124.687912,92.3304489 125.096703,91 L129.184615,92.5965387 C128.775824,93.9269876 128.094505,95.3904813 127.413187,96.72093 Z M14.4505495,94.8139535 C13.9054945,93.4518272 13.2241758,91.9534884 12.8153846,90.5913621 L17.0395604,89.0930233 C17.4483516,90.4551495 17.9934066,91.8172757 18.5384615,93.0431894 L14.4505495,94.8139535 Z M130.758462,89.0930233 L126.323077,87.6627907 C126.752308,86.2325581 127.181538,84.8023256 127.467692,83.372093 L132.046154,84.3732558 C131.616923,85.9465116 131.187692,87.5197674 130.758462,89.0930233 Z M10.9321499,86.2325581 C10.565286,84.8878951 10.3207101,83.543232 9.9538462,82.1985689 L13.8670611,81.4651163 C14.1116371,82.6875373 14.356213,83.9099583 14.7230769,85.1323792 L10.9321499,86.2325581 Z M132.470085,79.5581395 L128.230769,78.8959948 C128.495726,77.5717054 128.628205,76.1149871 128.760684,74.7906977 L133,75.1879845 C132.867521,76.5122739 132.602564,78.1014212 132.470085,79.5581395 Z M9.4087912,77.6511628 C9.2725275,76.1087551 9.1362637,74.5663475 9,73.0239398 L13.3604396,72.8837209 C13.3604396,74.2859097 13.4967033,75.8283174 13.7692308,77.2305062 L9.4087912,77.6511628 Z M133,70.9767442 L128.375291,70.9767442 L128.375291,70.5433404 C128.375291,69.243129 128.375291,67.7984496 128.230769,66.4982382 L132.855478,66.2093023 C133,67.6539817 133,69.098661 133,70.5433404 L133,70.9767442 Z M13.4886878,69.0697674 L9,68.9335548 C9,67.4352159 9.1402715,65.9368771 9.280543,64.3023256 L13.7692308,64.7109635 C13.6289593,66.2093023 13.6289593,67.7076412 13.4886878,69.0697674 Z M127.904453,62.3953488 C127.778947,61.1407589 127.527935,59.7607099 127.276923,58.50612 L131.293117,57.627907 C131.54413,59.0079559 131.795142,60.3880049 132.046154,61.7680539 L127.904453,62.3953488 Z M13.9700405,60.4883721 L9.9538462,59.7549195 C10.2048583,58.4102564 10.4558704,57.0655933 10.8323887,55.7209302 L14.7230769,56.698867 C14.4720648,57.921288 14.0955466,59.2659511 13.9700405,60.4883721 Z M125.811257,54.7674419 C125.392495,53.372093 124.973734,51.9767442 124.415385,50.5813953 L128.603002,49.0465116 C129.161351,50.4418605 129.580113,51.9767442 130.138462,53.5116279 L125.811257,54.7674419 Z M16.0857143,52.8604651 L11.8615385,51.4983389 C12.2703297,50 12.8153846,48.6378738 13.4967033,47.1395349 L17.5846154,48.7740864 C17.0395604,50.1362126 16.4945055,51.4983389 16.0857143,52.8604651 Z M123.417174,46.1860465 C122.884794,45.0158562 122.21932,43.7156448 121.553846,42.5454545 L125.280501,40.4651163 C125.945975,41.7653277 126.611449,43.0655391 127.276923,44.3657505 L123.417174,46.1860465 Z M19.448951,45.2325581 L15.6769231,43.3255814 C16.3272727,42.0542636 16.9776224,40.7829457 17.758042,39.5116279 L21.4,41.6728682 C20.6195804,42.944186 19.9692308,44.0883721 19.448951,45.2325581 Z M119.073846,39.5116279 C118.310769,38.3923155 117.547692,37.3973711 116.784615,36.2780586 L120.091282,33.7906977 C120.981538,34.9100101 121.744615,36.0293225 122.507692,37.273003 L119.073846,39.5116279 Z M23.88,37.6046512 L20.4461538,35.2416582 C21.2092308,34.1223458 22.0994872,33.0030334 22.9897436,31.8837209 L26.1692308,34.3710819 C25.4061538,35.4903943 24.5158974,36.4853387 23.88,37.6046512 Z M114.628094,32.8372093 C113.757191,31.8422649 112.886288,30.9716886 112.015385,29.9767442 L114.876923,27.1162791 C115.872241,28.1112235 116.867559,29.1061678 117.738462,30.1011122 L114.628094,32.8372093 Z M29.1551839,30.9302326 L26.1692308,28.1941355 C27.1645485,27.1991911 28.1598662,26.2042467 29.1551839,25.2093023 L31.8923077,28.1941355 C30.89699,29.0647118 30.026087,30.0596562 29.1551839,30.9302326 Z M108.390769,27.1162791 C107.373333,26.2263566 106.355897,25.4635659 105.338462,24.7007752 L107.754872,21.3953488 C108.899487,22.2852713 110.044103,23.1751938 111.061538,24.0651163 L108.390769,27.1162791 Z M35.3897436,25.2093023 L32.8461538,22.0310078 C33.9907692,21.1410853 35.1353846,20.2511628 36.28,19.4883721 L38.5692308,22.9209302 C37.4246154,23.5565891 36.4071795,24.3193798 35.3897436,25.2093023 Z M101.21958,22.3488372 C100.048951,21.5860465 98.878322,20.9503876 97.707692,20.3147287 L99.658741,16.627907 C100.959441,17.2635659 102.26014,18.0263566 103.430769,18.7891473 L101.21958,22.3488372 Z M41.6041958,20.4418605 L39.5230769,16.8012685 C40.8237762,16.0211416 42.1244755,15.3710359 43.4251748,14.7209302 L45.2461538,18.4915433 C43.9454545,19.141649 42.7748252,19.7917548 41.6041958,20.4418605 Z M94.0285714,17.5813953 C92.8021978,17.0492158 91.4395604,16.5170362 90.0769231,15.9848567 L91.5758242,11.8604651 C93.0747253,12.3926447 94.4373626,12.9248242 95.8,13.5900487 L94.0285714,17.5813953 Z M49.7428571,17.5813953 L48.1076923,13.3953488 C49.4703297,12.8372093 50.9692308,12.2790698 52.4681319,11.8604651 L53.8307692,16.1860465 C52.4681319,16.4651163 51.1054945,17.0232558 49.7428571,17.5813953 Z M86.1147929,14.7209302 C84.8919132,14.3542039 83.6690335,14.1097197 82.4461538,13.8652355 L83.1798817,9.9534884 C84.5250493,10.1979726 85.870217,10.5646989 87.2153846,10.9314252 L86.1147929,14.7209302 Z M57.6963563,14.7209302 L56.6923077,10.8091831 C58.0728745,10.4424568 59.4534413,10.1979726 60.8340081,9.9534884 L61.4615385,13.8652355 C60.2064777,14.1097197 58.951417,14.3542039 57.6963563,14.7209302 Z M78.0857143,13.7674419 C76.7230769,13.6312292 75.2241758,13.4950166 73.8615385,13.358804 L74.1340659,9 C75.632967,9.1362126 77.1318681,9.2724252 78.6307692,9.4086379 L78.0857143,13.7674419 Z M65.6857143,13.7674419 L65.2769231,9.2804378 C66.7758242,9.1402189 68.2747253,9 69.9098901,9 L70.0461538,13.4870041 C68.5472527,13.4870041 67.1846154,13.627223 65.6857143,13.7674419 Z" id="Shape" fill="#FFFFFF"></path>
            </g>
            <g id="Not-Secure" transform="translate(355.000000, 372.000000)">
                <circle id="Oval" stroke="#4A555F" stroke-width="8" fill="#C60000" fill-rule="nonzero" cx="70.5" cy="70.5" r="70.5"></circle>
                <g id="X" transform="translate(39.000000, 19.000000)" fill="#FFFFFF" font-family="Arial-BoldMT, Arial" font-size="96" font-weight="bold">
                    <g id="Group">
                        <text id="X">
                            <tspan x="0.484375" y="87">X</tspan>
                        </text>
                    </g>
                </g>
                <path d="M70.6820513,132 C69.2419306,132 67.80181,132 66.2307692,131.855532 L66.4926094,127.232558 C68.5873303,127.377026 70.6820513,127.377026 72.7767722,127.377026 L72.9076923,132 C72.253092,132 71.4675716,132 70.6820513,132 Z M78.1925156,132 L77.6769231,127.876807 C78.9659044,127.747957 80.3837838,127.490258 81.6727651,127.232558 L82.4461538,131.355751 C81.0282744,131.613451 79.610395,131.7423 78.1925156,132 Z M61.7878543,131.046512 C60.4072874,130.795594 59.0267206,130.544676 57.6461538,130.293758 L58.5246964,126.27907 C59.7797571,126.529988 61.0348178,126.780906 62.4153846,127.031824 L61.7878543,131.046512 Z M86.4243902,130.093023 L85.3076923,125.659302 C86.7035647,125.230233 88.0994371,124.801163 89.4953096,124.372093 L91.0307692,128.805814 C89.3557223,129.234884 87.8202627,129.663953 86.4243902,130.093023 Z M53.421978,129.139535 C51.9230769,128.72093 50.5604396,128.162791 49.0615385,127.604651 L50.6967033,123.418605 C52.0593407,123.976744 53.421978,124.395349 54.7846154,124.813953 L53.421978,129.139535 Z M95.6225403,127.232558 L93.8923077,123.241211 C95.2232558,122.709032 96.421109,122.043807 97.618962,121.511628 L99.615385,125.36993 C98.417531,126.035154 96.953488,126.700379 95.6225403,127.232558 Z M45.3328671,126.27907 C44.0321678,125.613845 42.7314685,124.948621 41.4307692,124.283396 L43.5118881,120.55814 C44.6825175,121.223364 45.8531469,121.888588 47.1538462,122.420768 L45.3328671,126.27907 Z M103.685128,123.418605 L101.523077,119.858915 C102.667692,119.223256 103.812308,118.460465 104.829744,117.697674 L107.246154,121.003101 C106.101538,121.893023 104.829744,122.655814 103.685128,123.418605 Z M37.2338462,121.511628 C36.0892308,120.748837 34.8174359,119.858915 33.8,119.096124 L36.3435897,115.790698 C37.3610256,116.553488 38.505641,117.316279 39.5230769,118.07907 L37.2338462,121.511628 Z M110.870769,117.697674 L108.2,114.588473 C109.217436,113.717897 110.234872,112.847321 111.125128,111.976744 L113.923077,114.837209 C113.032821,115.832154 112.015385,116.827098 110.870769,117.697674 Z M30.1090301,115.790698 C29.1137124,114.920121 28.1183946,113.925177 27.1230769,112.930233 L29.9846154,110.069767 C30.8555184,110.940344 31.8508361,111.935288 32.8461538,112.805865 L30.1090301,115.790698 Z M116.90903,111.023256 L113.923077,108.287159 C114.79398,107.292214 115.664883,106.29727 116.411371,105.302326 L119.646154,107.789687 C118.775251,108.908999 117.779933,110.028311 116.90903,111.023256 Z M24.0707692,110.069767 C23.1805128,108.925581 22.2902564,107.908527 21.4,106.764341 L24.7066667,104.348837 C25.4697436,105.365891 26.36,106.510078 27.1230769,107.527132 L24.0707692,110.069767 Z M122.204196,104.348837 L118.692308,102.060465 C119.472727,100.916279 120.123077,99.772093 120.773427,98.627907 L124.415385,100.662016 C123.765035,101.933333 122.984615,103.204651 122.204196,104.348837 Z M17.8389744,102.44186 C17.0758974,101.27167 16.44,99.971459 15.6769231,98.671247 L19.3651282,96.72093 C20.0010256,97.891121 20.6369231,99.061311 21.4,100.231501 L17.8389744,102.44186 Z M127.413187,96.72093 L123.461538,94.8583018 C124.006593,93.6608978 124.687912,92.3304489 125.096703,91 L129.184615,92.5965387 C128.775824,93.9269876 128.094505,95.3904813 127.413187,96.72093 Z M14.4505495,94.8139535 C13.9054945,93.4518272 13.2241758,91.9534884 12.8153846,90.5913621 L17.0395604,89.0930233 C17.4483516,90.4551495 17.9934066,91.8172757 18.5384615,93.0431894 L14.4505495,94.8139535 Z M130.758462,89.0930233 L126.323077,87.6627907 C126.752308,86.2325581 127.181538,84.8023256 127.467692,83.372093 L132.046154,84.3732558 C131.616923,85.9465116 131.187692,87.5197674 130.758462,89.0930233 Z M10.9321499,86.2325581 C10.565286,84.8878951 10.3207101,83.543232 9.9538462,82.1985689 L13.8670611,81.4651163 C14.1116371,82.6875373 14.356213,83.9099583 14.7230769,85.1323792 L10.9321499,86.2325581 Z M132.470085,79.5581395 L128.230769,78.8959948 C128.495726,77.5717054 128.628205,76.1149871 128.760684,74.7906977 L133,75.1879845 C132.867521,76.5122739 132.602564,78.1014212 132.470085,79.5581395 Z M9.4087912,77.6511628 C9.2725275,76.1087551 9.1362637,74.5663475 9,73.0239398 L13.3604396,72.8837209 C13.3604396,74.2859097 13.4967033,75.8283174 13.7692308,77.2305062 L9.4087912,77.6511628 Z M133,70.9767442 L128.375291,70.9767442 L128.375291,70.5433404 C128.375291,69.243129 128.375291,67.7984496 128.230769,66.4982382 L132.855478,66.2093023 C133,67.6539817 133,69.098661 133,70.5433404 L133,70.9767442 Z M13.4886878,69.0697674 L9,68.9335548 C9,67.4352159 9.1402715,65.9368771 9.280543,64.3023256 L13.7692308,64.7109635 C13.6289593,66.2093023 13.6289593,67.7076412 13.4886878,69.0697674 Z M127.904453,62.3953488 C127.778947,61.1407589 127.527935,59.7607099 127.276923,58.50612 L131.293117,57.627907 C131.54413,59.0079559 131.795142,60.3880049 132.046154,61.7680539 L127.904453,62.3953488 Z M13.9700405,60.4883721 L9.9538462,59.7549195 C10.2048583,58.4102564 10.4558704,57.0655933 10.8323887,55.7209302 L14.7230769,56.698867 C14.4720648,57.921288 14.0955466,59.2659511 13.9700405,60.4883721 Z M125.811257,54.7674419 C125.392495,53.372093 124.973734,51.9767442 124.415385,50.5813953 L128.603002,49.0465116 C129.161351,50.4418605 129.580113,51.9767442 130.138462,53.5116279 L125.811257,54.7674419 Z M16.0857143,52.8604651 L11.8615385,51.4983389 C12.2703297,50 12.8153846,48.6378738 13.4967033,47.1395349 L17.5846154,48.7740864 C17.0395604,50.1362126 16.4945055,51.4983389 16.0857143,52.8604651 Z M123.417174,46.1860465 C122.884794,45.0158562 122.21932,43.7156448 121.553846,42.5454545 L125.280501,40.4651163 C125.945975,41.7653277 126.611449,43.0655391 127.276923,44.3657505 L123.417174,46.1860465 Z M19.448951,45.2325581 L15.6769231,43.3255814 C16.3272727,42.0542636 16.9776224,40.7829457 17.758042,39.5116279 L21.4,41.6728682 C20.6195804,42.944186 19.9692308,44.0883721 19.448951,45.2325581 Z M119.073846,39.5116279 C118.310769,38.3923155 117.547692,37.3973711 116.784615,36.2780586 L120.091282,33.7906977 C120.981538,34.9100101 121.744615,36.0293225 122.507692,37.273003 L119.073846,39.5116279 Z M23.88,37.6046512 L20.4461538,35.2416582 C21.2092308,34.1223458 22.0994872,33.0030334 22.9897436,31.8837209 L26.1692308,34.3710819 C25.4061538,35.4903943 24.5158974,36.4853387 23.88,37.6046512 Z M114.628094,32.8372093 C113.757191,31.8422649 112.886288,30.9716886 112.015385,29.9767442 L114.876923,27.1162791 C115.872241,28.1112235 116.867559,29.1061678 117.738462,30.1011122 L114.628094,32.8372093 Z M29.1551839,30.9302326 L26.1692308,28.1941355 C27.1645485,27.1991911 28.1598662,26.2042467 29.1551839,25.2093023 L31.8923077,28.1941355 C30.89699,29.0647118 30.026087,30.0596562 29.1551839,30.9302326 Z M108.390769,27.1162791 C107.373333,26.2263566 106.355897,25.4635659 105.338462,24.7007752 L107.754872,21.3953488 C108.899487,22.2852713 110.044103,23.1751938 111.061538,24.0651163 L108.390769,27.1162791 Z M35.3897436,25.2093023 L32.8461538,22.0310078 C33.9907692,21.1410853 35.1353846,20.2511628 36.28,19.4883721 L38.5692308,22.9209302 C37.4246154,23.5565891 36.4071795,24.3193798 35.3897436,25.2093023 Z M101.21958,22.3488372 C100.048951,21.5860465 98.878322,20.9503876 97.707692,20.3147287 L99.658741,16.627907 C100.959441,17.2635659 102.26014,18.0263566 103.430769,18.7891473 L101.21958,22.3488372 Z M41.6041958,20.4418605 L39.5230769,16.8012685 C40.8237762,16.0211416 42.1244755,15.3710359 43.4251748,14.7209302 L45.2461538,18.4915433 C43.9454545,19.141649 42.7748252,19.7917548 41.6041958,20.4418605 Z M94.0285714,17.5813953 C92.8021978,17.0492158 91.4395604,16.5170362 90.0769231,15.9848567 L91.5758242,11.8604651 C93.0747253,12.3926447 94.4373626,12.9248242 95.8,13.5900487 L94.0285714,17.5813953 Z M49.7428571,17.5813953 L48.1076923,13.3953488 C49.4703297,12.8372093 50.9692308,12.2790698 52.4681319,11.8604651 L53.8307692,16.1860465 C52.4681319,16.4651163 51.1054945,17.0232558 49.7428571,17.5813953 Z M86.1147929,14.7209302 C84.8919132,14.3542039 83.6690335,14.1097197 82.4461538,13.8652355 L83.1798817,9.9534884 C84.5250493,10.1979726 85.870217,10.5646989 87.2153846,10.9314252 L86.1147929,14.7209302 Z M57.6963563,14.7209302 L56.6923077,10.8091831 C58.0728745,10.4424568 59.4534413,10.1979726 60.8340081,9.9534884 L61.4615385,13.8652355 C60.2064777,14.1097197 58.951417,14.3542039 57.6963563,14.7209302 Z M78.0857143,13.7674419 C76.7230769,13.6312292 75.2241758,13.4950166 73.8615385,13.358804 L74.1340659,9 C75.632967,9.1362126 77.1318681,9.2724252 78.6307692,9.4086379 L78.0857143,13.7674419 Z M65.6857143,13.7674419 L65.2769231,9.2804378 C66.7758242,9.1402189 68.2747253,9 69.9098901,9 L70.0461538,13.4870041 C68.5472527,13.4870041 67.1846154,13.627223 65.6857143,13.7674419 Z" id="Shape" fill="#FFFFFF" fill-rule="nonzero"></path>
            </g>
        </g>
    </g>
</svg>