<?xml version="1.0" encoding="UTF-8"?>
<svg width="989px" height="517px" viewBox="0 0 989 517" version="1.1" xmlns="http://www.w3.org/2000/svg" xmlns:xlink="http://www.w3.org/1999/xlink">
    <!-- Generator: Sketch 58 (84663) - https://sketch.com -->
    <title>Device Trust</title>
    <desc>Created with Sketch.</desc>
    <g id="Page-1" stroke="none" stroke-width="1" fill="none" fill-rule="evenodd">
        <g id="Auth-options" transform="translate(-55.000000, -3771.000000)">
            <g id="Device-Trust" transform="translate(55.000000, 3771.000000)">
                <g>
                    <g id="Server" transform="translate(683.000000, 39.000000)" fill-rule="nonzero">
                        <g id="Group" transform="translate(0.000000, 353.000000)">
                            <rect id="Rectangle" fill="#FFFFFF" transform="translate(246.130302, 72.677675) scale(-1, 1) rotate(-180.000000) translate(-246.130302, -72.677675) " x="223.905091" y="63.4277893" width="44.4504202" height="18.499772"></rect>
                            <rect id="Rectangle" fill="#FFFFFF" x="231.749284" y="2.64282457" width="26.1473059" height="60.784965"></rect>
                            <rect id="Rectangle" fill="#FFFFFF" transform="translate(60.484429, 72.677675) scale(-1, 1) rotate(-180.000000) translate(-60.484429, -72.677675) " x="38.259219" y="63.4277893" width="44.4504202" height="18.499772"></rect>
                            <rect id="Rectangle" fill="#FFFFFF" x="46.1034108" y="2.64282457" width="26.1473059" height="60.784965"></rect>
                            <path d="M77.6178767,65.8944259 L43.0044135,65.8944259 L43.0044135,0.184578223 L77.8019909,0.184578223 L77.8019909,65.8944259 L77.6178767,65.8944259 Z M53.6830351,55.188889 L66.9392551,55.188889 L66.9392551,11.0746934 L53.6830351,11.0746934 L53.6830351,55.188889 L53.6830351,55.188889 Z" id="Shape" fill="#5C666F"></path>
                            <path d="M89.5852976,87.1209217 L31.0369927,87.1209217 L31.0369927,81.7681531 C31.0369927,70.878038 36.9286461,60.9108138 46.5025826,55.9272019 L47.6072677,55.3734671 L72.8309085,55.3734671 L73.9355934,55.9272019 C83.5095301,61.0953922 89.4011834,70.878038 89.4011834,81.7681531 L89.4011834,87.1209217 L89.5852976,87.1209217 Z M42.4520711,76.4153847 L78.1702193,76.4153847 C76.8814201,72.1700856 74.1197076,68.2939429 70.2533101,65.8944259 L50.3689802,65.8944259 C46.5025826,68.2939429 43.7408701,71.9855073 42.4520711,76.4153847 Z" id="Shape" fill="#5C666F"></path>
                            <rect id="Rectangle" stroke="#5C666F" stroke-width="5" fill="#FFFFFF" x="0.894117647" y="82.006981" width="302.211765" height="29.793173" rx="8"></rect>
                            <path d="M260.627358,65.8944259 L225.829782,65.8944259 L225.829782,0.184578223 L260.627358,0.184578223 L260.627358,65.8944259 Z M236.508402,55.188889 L249.764622,55.188889 L249.764622,11.0746934 L236.508402,11.0746934 L236.508402,55.188889 Z" id="Shape" fill="#5C666F"></path>
                            <path d="M272.594779,87.1209217 L214.046473,87.1209217 L214.046473,81.7681531 C214.046473,70.878038 219.938127,60.9108138 229.512064,55.9272019 L230.61675,55.3734671 L255.84039,55.3734671 L256.945076,55.9272019 C266.519012,61.0953922 272.410664,70.878038 272.410664,81.7681531 L272.410664,87.1209217 L272.594779,87.1209217 Z M225.277439,76.4153847 L260.995586,76.4153847 C259.706787,72.1700856 256.945076,68.2939429 253.078677,65.8944259 L233.378461,65.8944259 C229.512064,68.2939429 226.566238,71.9855073 225.277439,76.4153847 Z" id="Shape" fill="#5C666F"></path>
                        </g>
                        <g id="Group" transform="translate(0.000000, 171.000000)">
                            <rect id="Rectangle" stroke="#5C666F" stroke-width="5" fill="#FFFFFF" x="0.894117647" y="90.5210284" width="302.211765" height="90.0005291" rx="8"></rect>
                            <rect id="Rectangle-Copy-10" stroke="#5C666F" stroke-width="5" fill="#FFFFFF" x="0.894117647" y="0.896039604" width="302.211765" height="90.0005291" rx="8"></rect>
                            <rect id="Rectangle" fill="#EC8D53" x="150.895315" y="16.9549015" width="132.5622" height="54.8953056"></rect>
                            <rect id="Rectangle" fill="#EC8D53" x="150.895315" y="109.007234" width="132.5622" height="55.6421806"></rect>
                            <path d="M46.870811,61.020521 C37.8492169,61.020521 30.6687644,53.551772 30.6687644,44.5892731 C30.6687644,35.4400556 38.0333311,28.1580252 46.870811,28.1580252 C55.7082909,28.1580252 63.0728576,35.6267743 63.0728576,44.5892731 C63.0728576,53.551772 55.7082909,61.020521 46.870811,61.020521 Z M46.870811,38.8009926 C43.7408701,38.8009926 41.347386,41.4150548 41.347386,44.4025544 C41.347386,47.5767727 43.9249843,50.0041163 46.870811,50.0041163 C50.0007517,50.0041163 52.394236,47.390054 52.394236,44.4025544 C52.394236,41.4150548 49.8166377,38.8009926 46.870811,38.8009926 Z" id="Shape" fill="#5C666F"></path>
                            <path d="M263.573184,61.020521 C254.551591,61.020521 247.371138,53.551772 247.371138,44.5892731 C247.371138,35.4400556 254.735706,28.1580252 263.573184,28.1580252 C272.594779,28.1580252 279.775231,35.6267743 279.775231,44.5892731 C279.775231,53.551772 272.594779,61.020521 263.573184,61.020521 Z M263.573184,38.8009926 C260.443245,38.8009926 258.04976,41.4150548 258.04976,44.4025544 C258.04976,47.5767727 260.627358,50.0041163 263.573184,50.0041163 C266.703125,50.0041163 269.09661,47.390054 269.09661,44.4025544 C269.09661,41.4150548 266.703125,38.8009926 263.573184,38.8009926 Z" id="Shape" fill="#5C666F"></path>
                            <path d="M46.870811,153.446291 C37.8492169,153.446291 30.6687644,145.977542 30.6687644,137.015043 C30.6687644,127.865825 38.0333311,120.583795 46.870811,120.583795 C55.7082909,120.583795 63.0728576,128.052544 63.0728576,137.015043 C63.0728576,145.977542 55.7082909,153.446291 46.870811,153.446291 Z M46.870811,131.226762 C43.7408701,131.226762 41.347386,133.840825 41.347386,136.828324 C41.347386,140.002542 43.9249843,142.429886 46.870811,142.429886 C50.0007517,142.429886 52.394236,139.815824 52.394236,136.828324 C52.394236,133.654106 49.8166377,131.226762 46.870811,131.226762 Z" id="Shape" fill="#5C666F"></path>
                            <path d="M263.573184,153.446291 C254.551591,153.446291 247.371138,145.977542 247.371138,137.015043 C247.371138,127.865825 254.735706,120.583795 263.573184,120.583795 C272.594779,120.583795 279.775231,128.052544 279.775231,137.015043 C279.775231,145.977542 272.594779,153.446291 263.573184,153.446291 Z M263.573184,131.226762 C260.443245,131.226762 258.04976,133.840825 258.04976,136.828324 C258.04976,140.002542 260.627358,142.429886 263.573184,142.429886 C266.703125,142.429886 269.09661,139.815824 269.09661,136.828324 C269.09661,133.654106 266.703125,131.226762 263.573184,131.226762 Z" id="Shape" fill="#5C666F"></path>
                        </g>
                        <g id="LAYER" transform="translate(0.000000, 86.000000)">
                            <rect id="Rectangle" stroke="#5C666F" stroke-width="5" fill="#FFFFFF" x="0.894117647" y="0.892156863" width="302.211765" height="89.5747245" rx="8"></rect>
                            <rect id="Rectangle" fill="#EC8D53" x="150.895315" y="19.2899463" width="132.5622" height="55.3809345"></rect>
                            <path d="M263.573184,63.5203571 C254.551591,63.5203571 247.371138,56.0866745 247.371138,47.1662555 C247.371138,38.0599945 254.735706,30.8121541 263.573184,30.8121541 C272.594779,30.8121541 279.775231,38.2458365 279.775231,47.1662555 C279.775231,56.0866745 272.594779,63.5203571 263.573184,63.5203571 Z M263.573184,41.4051517 C260.443245,41.4051517 258.04976,44.0069405 258.04976,46.9804135 C258.04976,50.1397285 260.627358,52.5556754 263.573184,52.5556754 C266.703125,52.5556754 269.09661,49.9538865 269.09661,46.9804135 C269.09661,43.8210984 266.703125,41.4051517 263.573184,41.4051517 Z" id="Shape" fill="#5C666F"></path>
                            <path d="M46.870811,63.5203571 C37.8492169,63.5203571 30.6687644,56.0866745 30.6687644,47.1662555 C30.6687644,38.0599945 38.0333311,30.8121541 46.870811,30.8121541 C55.7082909,30.8121541 63.0728576,38.2458365 63.0728576,47.1662555 C63.0728576,56.0866745 55.7082909,63.5203571 46.870811,63.5203571 Z M46.870811,41.4051517 C43.7408701,41.4051517 41.347386,44.0069405 41.347386,46.9804135 C41.347386,50.1397285 43.9249843,52.5556754 46.870811,52.5556754 C50.0007517,52.5556754 52.394236,49.9538865 52.394236,46.9804135 C52.394236,43.8210984 49.8166377,41.4051517 46.870811,41.4051517 Z" id="Shape" fill="#5C666F"></path>
                        </g>
                        <g id="LAYER">
                            <rect id="Rectangle" stroke="#5C666F" stroke-width="5" fill="#FFFFFF" x="0.894117647" y="0.892156863" width="302.211765" height="89.5747245" rx="8"></rect>
                            <rect id="Rectangle" fill="#EC8D53" x="150.895315" y="19.2899463" width="132.5622" height="55.3809345"></rect>
                            <path d="M263.573184,63.5203571 C254.551591,63.5203571 247.371138,56.0866745 247.371138,47.1662555 C247.371138,38.0599945 254.735706,30.8121541 263.573184,30.8121541 C272.594779,30.8121541 279.775231,38.2458365 279.775231,47.1662555 C279.775231,56.0866745 272.594779,63.5203571 263.573184,63.5203571 Z M263.573184,41.4051517 C260.443245,41.4051517 258.04976,44.0069405 258.04976,46.9804135 C258.04976,50.1397285 260.627358,52.5556754 263.573184,52.5556754 C266.703125,52.5556754 269.09661,49.9538865 269.09661,46.9804135 C269.09661,43.8210984 266.703125,41.4051517 263.573184,41.4051517 Z" id="Shape" fill="#5C666F"></path>
                            <path d="M46.870811,63.5203571 C37.8492169,63.5203571 30.6687644,56.0866745 30.6687644,47.1662555 C30.6687644,38.0599945 38.0333311,30.8121541 46.870811,30.8121541 C55.7082909,30.8121541 63.0728576,38.2458365 63.0728576,47.1662555 C63.0728576,56.0866745 55.7082909,63.5203571 46.870811,63.5203571 Z M46.870811,41.4051517 C43.7408701,41.4051517 41.347386,44.0069405 41.347386,46.9804135 C41.347386,50.1397285 43.9249843,52.5556754 46.870811,52.5556754 C50.0007517,52.5556754 52.394236,49.9538865 52.394236,46.9804135 C52.394236,43.8210984 49.8166377,41.4051517 46.870811,41.4051517 Z" id="Shape" fill="#5C666F"></path>
                        </g>
                    </g>
                    <g id="SMARTPHONE" transform="translate(0.000000, 196.000000)" fill-rule="nonzero">
                        <path d="M68.5,102 C68.389,102.55271 68.323,103.118536 68.323,103.698726 L68.323,112 L68.677,111.544092 L68.677,103.698726 C68.676,103.118536 68.61,102.552086 68.5,102 Z" id="Path" fill="#71CBDF"></path>
                        <path d="M68.4906658,80 C67.6761713,86.480511 62.2276919,91.5064391 55.6447165,91.5064391 L40.2218489,91.5064391 C33.9057427,91.5064391 28.6444341,86.8877697 27.5093342,80.8016177 L17,103.122218 L17,223 L27.2690311,201.18187 L27.2690311,191.916889 C27.2690311,185.518076 31.7689776,180.165358 37.7246292,178.983509 L37.7246292,178.969995 L38.4322553,177.488999 C32.1294322,176.59217 27.2690311,171.076672 27.2690311,164.43338 L27.2690311,148.741944 C27.2690311,141.473943 33.0779651,135.564086 40.2218489,135.564086 L55.6447165,135.564086 C56.459211,135.564086 57.2604224,135.645783 58.0483508,135.79505 L58.8229961,134.151273 C57.8080478,134.422779 56.7399671,134.558531 55.6447165,134.558531 L40.2218489,134.558531 C33.0773613,134.558531 27.2690311,128.648674 27.2690311,121.380673 L27.2690311,105.689851 C27.2690311,98.4218507 33.0779651,92.4984794 40.2218489,92.4984794 L55.6447165,92.4984794 C62.2276919,92.4984794 67.6761713,97.5385356 68.4906658,104.019047 C69.1717257,98.5846313 73.1107638,94.1557702 78.2519209,92.8787103 L79,91.289603 C73.4977845,90.270535 69.1982919,85.6917929 68.4906658,80 Z" id="Path" fill="#71CBDF"></path>
                        <path d="M103.726844,26.9760636 L72.1973361,26.9760636 C68.5942623,26.9760636 65.1817623,25.4083266 62.8432377,22.6774693 L58.0026639,17 L57.1868852,17 L42,48.5368783 L55.6235656,48.5368783 C62.3262295,48.5368783 67.8872951,53.5518031 68.7030738,60 C69.5188525,53.5518031 75.079918,48.5368783 81.782582,48.5368783 L97.4858607,48.5368783 C98.1387295,48.5368783 98.777459,48.5906642 99.4026639,48.6719543 L111,24.5832019 C108.906762,26.1381036 106.364139,26.9760636 103.726844,26.9760636 Z" id="Path" fill="#71CBDF"></path>
                        <path d="M155.50625,18 L145.4365,18 L130.154814,49.6005286 L140.510825,49.6005286 C147.810498,49.6005286 153.759683,55.5062594 153.759683,62.7526149 L153.759683,78.3838466 C153.759683,85.6308146 147.810498,91.5359329 140.510825,91.5359329 L124.765197,91.5359329 C119.798803,91.5359329 115.45984,88.8001765 113.194424,84.7770773 L110.629174,90.0869068 L107.682035,96.2094403 L107.682035,96.2229139 C109.796917,98.2408941 111.243032,100.963789 111.625537,104.011276 C112.457794,97.5500651 118.038663,92.5250188 124.765197,92.5250188 L140.510825,92.5250188 C147.810498,92.5250188 153.759683,98.4307496 153.759683,105.677105 L153.759683,121.321198 C153.759683,128.568166 147.810498,134.459811 140.510825,134.459811 L124.765197,134.459811 C118.038663,134.459811 112.457794,129.461712 111.625537,123.001113 C110.793281,129.461712 105.225984,134.459811 98.4994504,134.459811 L89.2348121,134.459811 L88.757298,135.46237 L98.4994504,135.46237 C105.225984,135.46237 110.806853,140.473943 111.625537,146.935154 C112.444221,140.473943 118.038663,135.46237 124.765197,135.46237 L140.510825,135.46237 C147.810498,135.46237 153.759683,141.354627 153.759683,148.600983 L153.759683,164.245076 C153.759683,171.491431 147.810498,177.383689 140.510825,177.383689 L124.765197,177.383689 C118.038663,177.383689 112.457794,172.372116 111.625537,165.911517 C110.793281,172.372116 105.225984,177.383689 98.4994504,177.383689 L82.7396325,177.383689 C78.018782,177.383689 73.8568822,174.918629 71.5236024,171.207261 L66.9255236,180.729432 L66.0383591,182.558169 C67.9484157,184.535729 69.2452306,187.109189 69.6135458,189.980907 C70.4322296,183.520308 76.0130992,178.494649 82.7396325,178.494649 L98.4988335,178.494649 C105.798507,178.494649 111.734119,184.40038 111.734119,191.647348 L111.734119,207.277967 C111.734119,214.524935 105.798507,220.430666 98.4988335,220.430666 L82.7396325,220.430666 C76.0124822,220.430666 70.4458024,215.418481 69.6135458,208.957882 C68.7812892,215.418481 63.2139924,220.430666 56.4874591,220.430666 L47.7688157,220.430666 L17,284.213539 L17,293.532381 C17,295.44196 18.5688869,297 20.4931332,297 L117.79312,297 L159,211.612797 L159,21.4676188 C159,19.5574275 157.429879,18 155.50625,18 Z" id="Path" fill="#71CBDF"></path>
                        <path d="M154.313031,0 L20.7016231,0 C9.28688061,0 0,9.321875 0,20.7791953 L0,293.221418 C0,304.678738 9.28627004,314 20.7016231,314 L154.313031,314 C165.720446,314 175,304.678738 175,293.221418 L175,20.7791953 C175,9.321875 165.719836,0 154.313031,0 Z M170.94882,293.221418 C170.94882,302.434742 163.486344,309.930879 154.313031,309.930879 L20.7016231,309.930879 C11.5203723,309.930879 4.05118033,302.435355 4.05118033,293.221418 L4.05118033,20.7791953 C4.05118033,11.5652578 11.5203723,4.06912109 20.7016231,4.06912109 L154.313031,4.06912109 C163.486344,4.06912109 170.94882,11.5652578 170.94882,20.7791953 L170.94882,293.221418 Z" id="Shape" fill="#4B555F"></path>
                        <path d="M154.823747,9 L21.1909094,9 C14.4679859,9 9,14.4876847 9,21.2324143 L9,293.767586 C9,300.512315 14.4685966,306 21.1909094,306 L154.823747,306 C161.538731,306 167,300.512315 167,293.767586 L167,21.2324143 C167,14.4870712 161.538121,9 154.823747,9 Z M162.948781,293.767586 C162.948781,298.268162 159.30366,301.929481 154.823136,301.929481 L21.1909094,301.929481 C16.7024466,301.929481 13.0518301,298.267549 13.0518301,293.767586 L13.0518301,21.2324143 C13.0518301,16.731838 16.7030572,13.0705185 21.1909094,13.0705185 L154.823747,13.0705185 C159.304271,13.0705185 162.948781,16.7324514 162.948781,21.2324143 L162.948781,293.767586 L162.948781,293.767586 Z" id="Shape" fill="#4B555F"></path>
                        <path d="M20.4353319,17 C18.5383076,17 17,18.502591 17,20.3418475 L17,70 L43,17 L20.4353319,17 Z" id="Path" fill="#71CBDF"></path>
                        <path d="M125,297 L154.605077,297 C156.473544,297 158,295.472087 158,293.601101 L158,228 L125,297 Z" id="Path" fill="#71CBDF"></path>
                        <path d="M122.867053,9 L112.233362,21.3625702 C110.273954,23.6402394 107.409155,24.9467383 104.374055,24.9467383 L72.6240876,24.9467383 C69.5889867,24.9467383 66.7254269,23.6402394 64.7660188,21.3625702 L54.1323282,9 L51,11.621549 L61.6336906,23.9841192 C64.3746326,27.171268 68.3801483,29 72.6240876,29 L104.374674,29 C108.619852,29 112.625987,27.1718788 115.366309,23.9841192 L126,11.621549 L122.867053,9 Z" id="Path" fill="#4B555F"></path>
                        <path d="M55.491239,55 L39.508761,55 C35.9142678,55 33,57.9142678 33,61.508761 L33,77.491239 C33,81.0857322 35.9142678,84 39.508761,84 L55.491239,84 C59.0857322,84 62,81.0857322 62,77.491239 L62,61.508761 C62,57.9142678 59.0857322,55 55.491239,55 Z" id="Path" fill="#DFDFDE"></path>
                        <path d="M98.491239,55 L82.5087609,55 C78.9142678,55 76,57.9142678 76,61.508761 L76,77.491239 C76,81.0857322 78.9142678,84 82.5087609,84 L98.491239,84 C102.085732,84 105,81.0857322 105,77.491239 L105,61.508761 C105.000626,57.9142678 102.086358,55 98.491239,55 Z" id="Path" fill="#DFDFDE"></path>
                        <path d="M124,59.5246667 L126,59.5246667 C125.329485,59.5246667 124.659452,59.4136667 124,59.5246667 Z" id="Path" fill="#F58E70"></path>
                        <path d="M138.491239,55 L122.508761,55 C118.914268,55 116,57.9142678 116,61.508761 L116,77.491239 C116,81.0857322 118.914268,84 122.508761,84 L138.491239,84 C142.085732,84 145,81.0857322 145,77.491239 L145,61.508761 C145,57.9142678 142.085732,55 138.491239,55 Z" id="Path" fill="#F58E70"></path>
                        <path d="M68.5,102 C68.389,102.55271 68.323,103.118536 68.323,103.698726 L68.323,112 L68.677,111.544092 L68.677,103.698726 C68.676,103.118536 68.61,102.552086 68.5,102 Z" id="Path" fill="#F58E70"></path>
                        <path d="M55.491239,98 L39.508761,98 C35.9142678,98 33,100.914331 33,104.508901 L33,120.491099 C33,124.086295 35.9142678,127 39.508761,127 L55.491239,127 C59.0857322,127 62,124.085669 62,120.491099 L62,104.508901 C62,100.914331 59.0857322,98 55.491239,98 Z" id="Path" fill="#F58E70"></path>
                        <path d="M68.5,102 C68.389,102.55271 68.323,103.118536 68.323,103.698726 L68.323,112 L68.677,111.544092 L68.677,103.698726 C68.676,103.118536 68.61,102.552086 68.5,102 Z" id="Path" fill="#FFD351"></path>
                        <path d="M98.491239,98 L82.5087609,98 C78.9142678,98 76,100.914331 76,104.508901 L76,120.491099 C76,124.086295 78.9142678,127 82.5087609,127 L98.491239,127 C102.085732,127 105,124.085669 105,120.491099 L105,104.508901 C105.000626,100.914331 102.086358,98 98.491239,98 Z" id="Path" fill="#FFD351"></path>
                        <path d="M138.491239,98 L122.508761,98 C118.914268,98 116,100.914331 116,104.508901 L116,120.491099 C116,124.086295 118.914268,127 122.508761,127 L138.491239,127 C142.085732,127 145,124.085669 145,120.491099 L145,104.508901 C145,100.914331 142.085732,98 138.491239,98 Z" id="Path" fill="#FFD351"></path>
                        <path d="M55.491239,141 L39.508761,141 C35.9142678,141 33,143.914331 33,147.508901 L33,163.491099 C33,167.085669 35.9142678,170 39.508761,170 L55.491239,170 C59.0857322,170 62,167.085669 62,163.491099 L62,147.508901 C62,143.914331 59.0857322,141 55.491239,141 Z" id="Path" fill="#F58E70"></path>
                        <path d="M98.491239,141 L82.5087609,141 C78.9142678,141 76,143.914331 76,147.508901 L76,163.491099 C76,167.085669 78.9142678,170 82.5087609,170 L98.491239,170 C102.085732,170 105,167.085669 105,163.491099 L105,147.508901 C105.000626,143.914331 102.086358,141 98.491239,141 Z" id="Path" fill="#F58E70"></path>
                        <path d="M55.491239,186 L39.508761,186 C35.9142678,186 33,188.914331 33,192.508901 L33,208.491099 C33,212.085669 35.9142678,215 39.508761,215 L55.491239,215 C59.0857322,215 62,212.085669 62,208.491099 L62,192.508901 C62,188.914331 59.0857322,186 55.491239,186 Z" id="Path" fill="#DFDFDE"></path>
                        <path d="M98.491239,186 L82.5087609,186 C78.9142678,186 76,188.914331 76,192.508901 L76,208.491099 C76,212.085669 78.9142678,215 82.5087609,215 L98.491239,215 C102.085732,215 105,212.085669 105,208.491099 L105,192.508901 C105.000626,188.914331 102.086358,186 98.491239,186 Z" id="Path" fill="#DFDFDE"></path>
                        <path d="M138.491239,141 L122.508761,141 C118.914268,141 116,143.914331 116,147.508901 L116,163.491099 C116,167.085669 118.914268,170 122.508761,170 L138.491239,170 C142.085732,170 145,167.085669 145,163.491099 L145,147.508901 C145,143.914331 142.085732,141 138.491239,141 Z" id="Path" fill="#FFD351"></path>
                        <path d="M54.7133905,52 L39.2866095,52 C34.7165616,52 31,55.7178398 31,60.286766 L31,75.713234 C31,80.2827642 34.7165616,84 39.2866095,84 L54.7133905,84 C59.2834384,84 63,80.2827642 63,75.713234 L63,60.286766 C63,55.7178398 59.2828344,52 54.7133905,52 Z M58.9922987,75.713234 C58.9922987,78.0725975 57.0733135,79.992223 54.7133905,79.992223 L39.2866095,79.992223 C36.9266865,79.992223 35.0077013,78.0725975 35.0077013,75.713234 L35.0077013,60.286766 C35.0077013,57.9274025 36.9266865,56.007777 39.2866095,56.007777 L54.7133905,56.007777 C57.0733135,56.007777 58.9922987,57.9274025 58.9922987,60.286766 L58.9922987,75.713234 Z" id="Shape" fill="#4B555F"></path>
                        <path d="M98.7130776,52 L83.2869224,52 C78.7167019,52 75,55.7178398 75,60.286766 L75,75.713234 C75,80.2827642 78.7167019,84 83.2869224,84 L98.7130776,84 C103.283298,84 107,80.2827642 107,75.713234 L107,60.286766 C107,55.7178398 103.282694,52 98.7130776,52 Z M102.992147,75.713234 C102.992147,78.0725975 101.07309,79.992223 98.7130776,79.992223 L83.2869224,79.992223 C80.9269103,79.992223 79.0078526,78.0725975 79.0078526,75.713234 L79.0078526,60.286766 C79.0078526,57.9274025 80.9269103,56.007777 83.2869224,56.007777 L98.7130776,56.007777 C101.07309,56.007777 102.992147,57.9274025 102.992147,60.286766 L102.992147,75.713234 Z" id="Shape" fill="#4B555F"></path>
                        <path d="M137.71339,52 L122.28661,52 C117.716562,52 114,55.7178398 114,60.286766 L114,75.713234 C114,80.2827642 117.716562,84 122.28661,84 L137.71339,84 C142.283438,84 146,80.2827642 146,75.713234 L146,60.286766 C146,55.7178398 142.283438,52 137.71339,52 Z M141.992299,75.713234 C141.992299,78.0725975 140.073313,79.992223 137.71339,79.992223 L122.28661,79.992223 C119.926687,79.992223 118.007701,78.0725975 118.007701,75.713234 L118.007701,60.286766 C118.007701,57.9274025 119.926687,56.007777 122.28661,56.007777 L137.71339,56.007777 C140.073313,56.007777 141.992299,57.9274025 141.992299,60.286766 L141.992299,75.713234 Z" id="Shape" fill="#4B555F"></path>
                        <path d="M54.7133905,96 L39.2866095,96 C34.7165616,96 31,99.7178398 31,104.286766 L31,119.713234 C31,124.282764 34.7165616,128 39.2866095,128 L54.7133905,128 C59.2834384,128 63,124.282764 63,119.713234 L63,104.286766 C63,99.7172358 59.2828344,96 54.7133905,96 Z M58.9922987,119.713234 C58.9922987,122.072598 57.0733135,123.992223 54.7133905,123.992223 L39.2866095,123.992223 C36.9266865,123.992223 35.0077013,122.072598 35.0077013,119.713234 L35.0077013,104.286766 C35.0077013,101.927402 36.9266865,100.007777 39.2866095,100.007777 L54.7133905,100.007777 C57.0733135,100.007777 58.9922987,101.927402 58.9922987,104.286766 L58.9922987,119.713234 Z" id="Shape" fill="#4B555F"></path>
                        <path d="M98.7130776,96 L83.2869224,96 C78.7167019,96 75,99.7178398 75,104.286766 L75,119.713234 C75,124.282764 78.7167019,128 83.2869224,128 L98.7130776,128 C103.283298,128 107,124.282764 107,119.713234 L107,104.286766 C107,99.7172358 103.282694,96 98.7130776,96 Z M102.992147,119.713234 C102.992147,122.072598 101.07309,123.992223 98.7130776,123.992223 L83.2869224,123.992223 C80.9269103,123.992223 79.0078526,122.072598 79.0078526,119.713234 L79.0078526,104.286766 C79.0078526,101.927402 80.9269103,100.007777 83.2869224,100.007777 L98.7130776,100.007777 C101.07309,100.007777 102.992147,101.927402 102.992147,104.286766 L102.992147,119.713234 Z" id="Shape" fill="#4B555F"></path>
                        <path d="M137.71339,96 L122.28661,96 C117.716562,96 114,99.7178398 114,104.286766 L114,119.713234 C114,124.282764 117.716562,128 122.28661,128 L137.71339,128 C142.283438,128 146,124.282764 146,119.713234 L146,104.286766 C146,99.7172358 142.283438,96 137.71339,96 Z M141.992299,119.713234 C141.992299,122.072598 140.073313,123.992223 137.71339,123.992223 L122.28661,123.992223 C119.926687,123.992223 118.007701,122.072598 118.007701,119.713234 L118.007701,104.286766 C118.007701,101.927402 119.926687,100.007777 122.28661,100.007777 L137.71339,100.007777 C140.073313,100.007777 141.992299,101.927402 141.992299,104.286766 L141.992299,119.713234 Z" id="Shape" fill="#4B555F"></path>
                        <path d="M54.7133905,139 L39.2866095,139 C34.7165616,139 31,142.717236 31,147.286766 L31,162.713838 C31,167.282764 34.7165616,171 39.2866095,171 L54.7133905,171 C59.2834384,171 63,167.282764 63,162.713838 L63,147.286766 C63,142.717236 59.2828344,139 54.7133905,139 Z M58.9922987,162.713838 C58.9922987,165.073202 57.0733135,166.992223 54.7133905,166.992223 L39.2866095,166.992223 C36.9266865,166.992223 35.0077013,165.073202 35.0077013,162.713838 L35.0077013,147.286766 C35.0077013,144.927402 36.9266865,143.007777 39.2866095,143.007777 L54.7133905,143.007777 C57.0733135,143.007777 58.9922987,144.927402 58.9922987,147.286766 L58.9922987,162.713838 Z" id="Shape" fill="#4B555F"></path>
                        <path d="M98.7130776,139 L83.2869224,139 C78.7167019,139 75,142.717236 75,147.286766 L75,162.713838 C75,167.282764 78.7167019,171 83.2869224,171 L98.7130776,171 C103.283298,171 107,167.282764 107,162.713838 L107,147.286766 C107,142.717236 103.282694,139 98.7130776,139 Z M102.992147,162.713838 C102.992147,165.073202 101.07309,166.992223 98.7130776,166.992223 L83.2869224,166.992223 C80.9269103,166.992223 79.0078526,165.073202 79.0078526,162.713838 L79.0078526,147.286766 C79.0078526,144.927402 80.9269103,143.007777 83.2869224,143.007777 L98.7130776,143.007777 C101.07309,143.007777 102.992147,144.927402 102.992147,147.286766 L102.992147,162.713838 Z" id="Shape" fill="#4B555F"></path>
                        <path d="M54.7133905,184 L39.2866095,184 C34.7165616,184 31,187.717236 31,192.286766 L31,207.713234 C31,212.282764 34.7165616,216 39.2866095,216 L54.7133905,216 C59.2834384,216 63,212.28216 63,207.713234 L63,192.286766 C63,187.71784 59.2828344,184 54.7133905,184 Z M58.9922987,207.713234 C58.9922987,210.072598 57.0733135,211.992223 54.7133905,211.992223 L39.2866095,211.992223 C36.9266865,211.992223 35.0077013,210.072598 35.0077013,207.713234 L35.0077013,192.286766 C35.0077013,189.927402 36.9266865,188.007777 39.2866095,188.007777 L54.7133905,188.007777 C57.0733135,188.007777 58.9922987,189.927402 58.9922987,192.286766 L58.9922987,207.713234 Z" id="Shape" fill="#4B555F"></path>
                        <path d="M98.7130776,184 L83.2869224,184 C78.7167019,184 75,187.717236 75,192.286766 L75,207.713234 C75,212.282764 78.7167019,216 83.2869224,216 L98.7130776,216 C103.283298,216 107,212.28216 107,207.713234 L107,192.286766 C107,187.71784 103.282694,184 98.7130776,184 Z M102.992147,207.713234 C102.992147,210.072598 101.07309,211.992223 98.7130776,211.992223 L83.2869224,211.992223 C80.9269103,211.992223 79.0078526,210.072598 79.0078526,207.713234 L79.0078526,192.286766 C79.0078526,189.927402 80.9269103,188.007777 83.2869224,188.007777 L98.7130776,188.007777 C101.07309,188.007777 102.992147,189.927402 102.992147,192.286766 L102.992147,207.713234 Z" id="Shape" fill="#4B555F"></path>
                        <path d="M137.71339,139 L122.28661,139 C117.716562,139 114,142.717236 114,147.286766 L114,162.713838 C114,167.282764 117.716562,171 122.28661,171 L137.71339,171 C142.283438,171 146,167.282764 146,162.713838 L146,147.286766 C146,142.717236 142.283438,139 137.71339,139 Z M141.992299,162.713838 C141.992299,165.073202 140.073313,166.992223 137.71339,166.992223 L122.28661,166.992223 C119.926687,166.992223 118.007701,165.073202 118.007701,162.713838 L118.007701,147.286766 C118.007701,144.927402 119.926687,143.007777 122.28661,143.007777 L137.71339,143.007777 C140.073313,143.007777 141.992299,144.927402 141.992299,147.286766 L141.992299,162.713838 Z" id="Shape" fill="#4B555F"></path>
                    </g>
                    <g id="mobil" transform="translate(202.000000, 0.000000)">
                        <g id="Group-14">
                            <path d="M149.50231,3.7658765e-13 L34.9475801,3.7658765e-13 C19.890684,3.7658765e-13 7.64057389,12.2203039 7.64057389,27.2405644 L7.64057389,296.604389 C7.64057389,311.624649 19.890684,323.844953 34.9475801,323.844953 L149.50231,323.844953 C164.559206,323.844953 176.808588,311.625375 176.808588,296.604389 L176.808588,27.2405644 C176.808588,12.2203039 164.559206,3.7658765e-13 149.50231,3.7658765e-13 Z M172.267492,296.604389 C172.267492,309.126841 162.055305,319.314907 149.50231,319.314907 L34.9475801,319.314907 C22.3945848,319.314907 12.1816697,309.126841 12.1816697,296.604389 L12.1816697,27.2405644 C12.1816697,14.7181122 22.3945848,4.53004668 34.9475801,4.53004668 L149.50231,4.53004668 C162.055305,4.53004668 172.267492,14.7181122 172.267492,27.2405644 L172.267492,296.604389 Z" id="Shape" fill="#4A555F" fill-rule="nonzero"></path>
                            <path d="M148.472063,7.86675253 L131.088192,7.86675253 C126.878377,7.86675253 122.991106,10.1473917 120.944445,13.8189303 L117.223907,20.5032367 C115.975961,22.7308546 113.608941,24.1152172 111.046793,24.1152172 L73.4009125,24.1152172 C70.8394927,24.1152172 68.4724729,22.7308546 67.2274395,20.5090473 L63.5039884,13.8182039 C61.4566001,10.1473917 57.570057,7.86675253 53.360242,7.86675253 L35.9763709,7.86675253 C25.4008672,7.86675253 16.7977588,16.1860013 16.7977588,26.4103827 L16.7977588,252.844443 C16.7977588,263.068824 25.4008672,271.387346 35.9763709,271.387346 L148.487353,271.387346 C159.05412,271.387346 167.651403,263.07536 167.651403,252.858969 L167.651403,26.4096564 C167.651403,16.185275 159.047567,7.86675253 148.472063,7.86675253 Z M163.109579,252.858969 C163.109579,260.577553 156.550219,266.856573 148.486625,266.856573 L35.9763709,266.856573 C27.905496,266.856573 21.3388545,260.570288 21.3388545,252.843715 L21.3388545,26.4096564 C21.3388545,18.6830833 27.904768,12.3967992 35.9763709,12.3967992 L53.360242,12.3967992 C55.923118,12.3967992 58.2886816,13.7847933 59.533715,16.0182218 L63.2600784,22.713423 C65.3103791,26.3718879 69.1961942,28.6445375 73.4009125,28.6445375 L111.046793,28.6445375 C115.25224,28.6445375 119.138055,26.3718879 121.191268,22.7076124 L124.913991,16.0196744 C126.159752,13.7855196 128.525316,12.3967992 131.087464,12.3967992 L148.471335,12.3967992 C156.54221,12.3967992 163.109579,18.6838096 163.109579,26.4103827 L163.109579,252.858969 L163.109579,252.858969 Z" id="Shape" fill="#4A555F" fill-rule="nonzero"></path>
                            <path d="M148.488081,276.672764 L35.9770991,276.672764 C28.5979095,276.672764 21.9708365,273.476965 17.4792508,268.432684 L17.4792508,296.605114 C17.4792508,306.213578 25.3149528,314.030941 34.9475801,314.030941 L149.50231,314.030941 C159.134209,314.030941 166.970639,306.214304 166.970639,296.605114 L166.970639,268.442126 C162.482694,273.480596 155.85999,276.672764 148.488081,276.672764 Z" id="Path" fill="#EC8D53" fill-rule="nonzero"></path>
                            <path d="M68.1346394,11.2535743 L71.8471689,17.9233545 C72.155879,18.4739037 72.7660182,18.8297996 73.4009125,18.8297996 L111.046793,18.8297996 C111.681688,18.8297996 112.291827,18.47463 112.589616,17.9436914 L116.315251,11.2506691 C116.591925,10.7545937 116.89117,10.27595 117.211529,9.8161906 L67.2361765,9.8161906 C67.5579923,10.2766764 67.8579652,10.75532 68.1346394,11.2535743 Z" id="Path" fill="#71CDE1" fill-rule="nonzero"></path>
                            <path d="M109.159585,284.511191 L75.2407952,284.511191 C69.6454255,284.511191 65.1086983,289.036153 65.1086983,294.618634 L65.1086983,294.923689 C65.1086983,300.505442 69.6446975,305.031132 75.2407952,305.031132 L109.159585,305.031132 C114.754955,305.031132 119.291682,300.50617 119.291682,294.923689 L119.291682,294.618634 C119.291682,289.036878 114.755682,284.511191 109.159585,284.511191 Z" id="Path" fill="#71CDE1" fill-rule="nonzero"></path>
                            <path d="M109.159585,282.246531 L75.2407952,282.246531 C68.4018483,282.246531 62.8385144,287.797053 62.8385144,294.618634 L62.8385144,294.923689 C62.8385144,301.745995 68.4018483,307.29652 75.2407952,307.29652 L109.159585,307.29652 C115.998532,307.29652 121.561866,301.74672 121.561866,294.923689 L121.561866,294.618634 C121.561866,287.796328 115.998532,282.246531 109.159585,282.246531 Z M117.02077,294.923689 C117.02077,299.248187 113.494631,302.766472 109.159585,302.766472 L75.2407952,302.766472 C70.9057489,302.766472 67.3796102,299.248187 67.3796102,294.923689 L67.3796102,294.618634 C67.3796102,290.294863 70.9057489,286.776576 75.2407952,286.776576 L109.159585,286.776576 C113.494631,286.776576 117.02077,290.294863 117.02077,294.618634 L117.02077,294.923689 Z" id="Shape" fill="#4B555F" fill-rule="nonzero"></path>
                            <path d="M44.4127469,284.028914 C38.474447,284.028914 33.6435714,288.848036 33.6435714,294.771161 C33.6435714,300.694287 38.474447,305.513408 44.4127469,305.513408 C50.3503189,305.513408 55.1811945,300.694287 55.1811945,294.771161 C55.1811945,288.848036 50.3495909,284.028914 44.4127469,284.028914 Z M44.4127469,300.98336 C40.9790757,300.98336 38.1846672,298.196477 38.1846672,294.771161 C38.1846672,291.345845 40.9783476,288.558962 44.4127469,288.558962 C47.8471463,288.558962 50.6400987,291.345845 50.6400987,294.771161 C50.6393705,298.196477 47.8464183,300.98336 44.4127469,300.98336 Z" id="Shape" fill="#4B555F" fill-rule="nonzero"></path>
                            <path d="M140.843138,284.028914 C134.904839,284.028914 130.073963,288.848036 130.073963,294.771161 C130.073963,300.694287 134.904839,305.513408 140.843138,305.513408 C146.78071,305.513408 151.611586,300.694287 151.611586,294.771161 C151.611586,288.848036 146.78071,284.028914 140.843138,284.028914 Z M140.843138,300.98336 C137.409467,300.98336 134.615059,298.196477 134.615059,294.771161 C134.615059,291.345845 137.408739,288.558962 140.843138,288.558962 C144.277538,288.558962 147.07049,291.345845 147.07049,294.771161 C147.07049,298.196477 144.277538,300.98336 140.843138,300.98336 Z" id="Shape" fill="#4B555F" fill-rule="nonzero"></path>
                            <path d="M6.09119889,61.486468 C2.73252085,61.486468 -2.84217094e-14,64.2116139 -2.84217094e-14,67.5621199 L-2.84217094e-14,80.6823321 C-2.84217094e-14,84.0328378 2.73252085,86.7579837 6.09119889,86.7579837 C9.44987694,86.7579837 12.1816697,84.0321116 12.1816697,80.6823321 L12.1816697,67.5621199 C12.1809416,64.2116139 9.44914884,61.486468 6.09119889,61.486468 Z M7.6398458,80.6823321 C7.6398458,81.5343032 6.94524818,82.2279372 6.0904708,82.2279372 C5.23569344,82.2279372 4.54036772,81.5343032 4.54036772,80.6823321 L4.54036772,67.5621199 C4.54036772,66.7101486 5.23569344,66.0165147 6.0904708,66.0165147 C6.94524818,66.0165147 7.6398458,66.7101486 7.6398458,67.5621199 L7.6398458,80.6823321 Z" id="Shape" fill="#4A555F" fill-rule="nonzero"></path>
                            <path d="M30.3750957,45.2149514 L30.3750957,241.599087 C30.3750957,245.911288 33.1660373,249.407019 36.6088384,249.407019 L147.356144,249.407019 C150.798945,249.407019 153.589887,245.911288 153.589887,241.599087 L153.589887,45.2149514 C153.589887,40.9027495 150.798945,37.4070191 147.356144,37.4070191 L36.6088384,37.4070191 C33.1660373,37.4070191 30.3750957,40.9027495 30.3750957,45.2149514 Z" id="Path" stroke="#4A555F" stroke-width="3.38"></path>
                            <path d="M144.33984,47.7615204 C143.514663,46.937753 142.416375,46.4843654 141.248469,46.4843654 C140.081538,46.4843654 138.98471,46.9372676 138.159046,47.7600642 C136.455141,49.4585687 136.454654,52.2235535 138.158559,53.923029 C138.984223,54.7467964 140.082511,55.200184 141.250417,55.200184 C142.417348,55.200184 143.514176,54.7472818 144.33984,53.9244851 C146.043745,52.2259806 146.044232,49.4614813 144.33984,47.7615204 Z M142.19292,51.7837579 C141.689537,52.2861735 140.809836,52.2852025 140.306453,51.7827871 C139.786032,51.2638669 139.785545,50.4197115 140.305966,49.9012769 C140.557658,49.6503119 140.892597,49.5119655 141.248469,49.5119655 C141.605316,49.5119655 141.940255,49.6507973 142.192433,49.9022479 C142.712854,50.4211679 142.713341,51.2653232 142.19292,51.7837579 Z" id="Shape" fill="#FFFFFF" fill-rule="nonzero"></path>
                            <polygon id="Rectangle" fill="#FFFFFF" fill-rule="nonzero" transform="translate(144.161771, 55.200184) rotate(-45.000000) translate(-144.161771, -55.200184) " points="142.70382 52.2895966 145.612636 52.2931399 145.619722 58.1107717 142.710906 58.1072287"></polygon>
                        </g>
                    </g>
                    <g id="Group-4" transform="translate(238.000000, 54.000000)">
                        <path d="M3,39.2666713 L3,171.733329 C3,174.642031 5.35570689,177 8.26161862,177 L101.738381,177 C104.644293,177 107,174.642031 107,171.733329 L107,39.2666713 C107,36.3579691 104.644293,34 101.738381,34 L8.26161862,34 C5.35570689,34 3,36.3579691 3,39.2666713 Z" id="Path" stroke="#4A555F" stroke-width="2.38"></path>
                        <path d="M0,0 L0,23 L89,23 L89,0 L0,0 Z M85.1835461,19.2643941 L3.81767801,19.2643941 L3.81767801,3.73620475 L85.1835461,3.73620475 L85.1835461,19.2643941 Z" id="Shape" fill="#4A555F" fill-rule="nonzero"></path>
                        <rect id="Rectangle" fill="#F58E70" fill-rule="nonzero" x="8" y="8" width="73" height="7"></rect>
                        <path d="M85,0 L85,23 L110,23 L110,0 L85,0 Z M106.105866,19.2643941 L88.8941335,19.2643941 L88.8941335,3.73620475 L106.105866,3.73620475 L106.105866,19.2643941 Z" id="Shape" fill="#4A555F" fill-rule="nonzero"></path>
                        <path d="M98.9759986,7.02573099 C98.3148807,6.36413254 97.4349504,6 96.4992444,6 C95.5643183,6 94.685558,6.3637427 94.0240502,7.02456148 C92.65891,8.388694 92.6585199,10.6093567 94.0236601,11.974269 C94.6851681,12.6358675 95.5650983,13 96.5008044,13 C97.4357305,13 98.3144908,12.6362573 98.9759986,11.9754385 C100.341139,10.611306 100.341529,8.39103318 98.9759986,7.02573099 Z M97.255922,10.2561404 C96.8526206,10.6596492 96.1478182,10.6588693 95.7445169,10.2553607 C95.3275639,9.83859645 95.327174,9.16062372 95.7441268,8.74424948 C95.9457775,8.54269007 96.2141251,8.43157896 96.4992444,8.43157896 C96.7851437,8.43157896 97.0534912,8.54307991 97.2555319,8.74502932 C97.6724847,9.16179339 97.6728748,9.83976612 97.255922,10.2561404 Z" id="Shape" fill="#FFFFFF" fill-rule="nonzero"></path>
                        <polygon id="Rectangle" fill="#FFFFFF" fill-rule="nonzero" transform="translate(98.734250, 13.537176) rotate(-45.000000) translate(-98.734250, -13.537176) " points="97.5049355 11.0857638 99.953942 11.090575 99.9635641 15.9885876 97.5145577 15.9837767"></polygon>
                        <rect id="Rectangle-Copy-12" fill="#71CDE1" fill-rule="nonzero" x="14" y="53" width="84" height="8"></rect>
                        <rect id="Rectangle-Copy-15" fill="#71CDE1" fill-rule="nonzero" x="14" y="111" width="84" height="8"></rect>
                        <rect id="Rectangle-Copy-16" fill="#71CDE1" fill-rule="nonzero" x="14" y="130" width="84" height="8"></rect>
                        <rect id="Rectangle-Copy-13" fill="#71CDE1" fill-rule="nonzero" x="14" y="71" width="35" height="8"></rect>
                        <rect id="Rectangle-Copy-14" fill="#71CDE1" fill-rule="nonzero" x="13" y="92" width="59" height="8"></rect>
                        <rect id="Rectangle-Copy-17" fill="#71CDE1" fill-rule="nonzero" x="13" y="152" width="59" height="8"></rect>
                    </g>
                    <path d="M319,447 L307,447 L307,435 L319,435 L319,447 Z M296,447 L284,447 L284,435 L296,435 L296,447 Z M272,447 L260,447 L260,435 L272,435 L272,447 Z M248,447 L236,447 L236,435 L248,435 L248,447 Z M224,447 L212,447 L212,435 L224,435 L224,447 Z M201,447 L189,447 L189,435 L201,435 L201,447 Z" id="Shape" fill="#4A555F" fill-rule="nonzero" transform="translate(254.000000, 441.000000) scale(1, -1) translate(-254.000000, -441.000000) "></path>
                    <path d="M669,447 L657,447 L657,435 L669,435 L669,447 Z M646,447 L634,447 L634,435 L646,435 L646,447 Z M622,447 L610,447 L610,435 L622,435 L622,447 Z M598,447 L586,447 L586,435 L598,435 L598,447 Z M574,447 L562,447 L562,435 L574,435 L574,447 Z M551,447 L539,447 L539,435 L551,435 L551,447 Z" id="Shape-Copy-3" fill="#4A555F" fill-rule="nonzero" transform="translate(604.000000, 441.000000) scale(1, -1) translate(-604.000000, -441.000000) "></path>
                    <path d="M663,168 L651,168 L651,156 L663,156 L663,168 Z M640,168 L628,168 L628,156 L640,156 L640,168 Z M434,168 L423,168 L423,156 L434,156 L434,168 Z M411,168 L399,168 L399,156 L411,156 L411,168 Z" id="Shape-Copy-4" fill="#4A555F" fill-rule="nonzero" transform="translate(531.000000, 162.000000) scale(1, -1) translate(-531.000000, -162.000000) "></path>
                </g>
                <g id="Secure" transform="translate(458.000000, 87.000000)">
                    <circle id="Oval" stroke="#4A555F" stroke-width="8" fill="#00C621" cx="74.5" cy="74.5" r="70.5"></circle>
                    <polygon id="Path" stroke="#FFFFFF" stroke-width="6" fill="#4A555F" fill-rule="nonzero" points="61.6636197 101 39 75.2085561 42.3784278 72.2326203 62.0859232 94.4812834 113.043876 48 116 51.4010695"></polygon>
                    <path d="M74.6820513,136 C73.2419306,136 71.80181,136 70.2307692,135.855532 L70.4926094,131.232558 C72.5873303,131.377026 74.6820513,131.377026 76.7767722,131.377026 L76.9076923,136 C76.253092,136 75.4675716,136 74.6820513,136 Z M82.1925156,136 L81.6769231,131.876807 C82.9659044,131.747957 84.3837838,131.490258 85.6727651,131.232558 L86.4461538,135.355751 C85.0282744,135.613451 83.610395,135.7423 82.1925156,136 Z M65.7878543,135.046512 C64.4072874,134.795594 63.0267206,134.544676 61.6461538,134.293758 L62.5246964,130.27907 C63.7797571,130.529988 65.0348178,130.780906 66.4153846,131.031824 L65.7878543,135.046512 Z M90.4243902,134.093023 L89.3076923,129.659302 C90.7035647,129.230233 92.0994371,128.801163 93.4953096,128.372093 L95.0307692,132.805814 C93.3557223,133.234884 91.8202627,133.663953 90.4243902,134.093023 Z M57.421978,133.139535 C55.9230769,132.72093 54.5604396,132.162791 53.0615385,131.604651 L54.6967033,127.418605 C56.0593407,127.976744 57.421978,128.395349 58.7846154,128.813953 L57.421978,133.139535 Z M99.6225403,131.232558 L97.8923077,127.241211 C99.2232558,126.709032 100.421109,126.043807 101.618962,125.511628 L103.615385,129.36993 C102.417531,130.035154 100.953488,130.700379 99.6225403,131.232558 Z M49.3328671,130.27907 C48.0321678,129.613845 46.7314685,128.948621 45.4307692,128.283396 L47.5118881,124.55814 C48.6825175,125.223364 49.8531469,125.888588 51.1538462,126.420768 L49.3328671,130.27907 Z M107.685128,127.418605 L105.523077,123.858915 C106.667692,123.223256 107.812308,122.460465 108.829744,121.697674 L111.246154,125.003101 C110.101538,125.893023 108.829744,126.655814 107.685128,127.418605 Z M41.2338462,125.511628 C40.0892308,124.748837 38.8174359,123.858915 37.8,123.096124 L40.3435897,119.790698 C41.3610256,120.553488 42.505641,121.316279 43.5230769,122.07907 L41.2338462,125.511628 Z M114.870769,121.697674 L112.2,118.588473 C113.217436,117.717897 114.234872,116.847321 115.125128,115.976744 L117.923077,118.837209 C117.032821,119.832154 116.015385,120.827098 114.870769,121.697674 Z M34.1090301,119.790698 C33.1137124,118.920121 32.1183946,117.925177 31.1230769,116.930233 L33.9846154,114.069767 C34.8555184,114.940344 35.8508361,115.935288 36.8461538,116.805865 L34.1090301,119.790698 Z M120.90903,115.023256 L117.923077,112.287159 C118.79398,111.292214 119.664883,110.29727 120.411371,109.302326 L123.646154,111.789687 C122.775251,112.908999 121.779933,114.028311 120.90903,115.023256 Z M28.0707692,114.069767 C27.1805128,112.925581 26.2902564,111.908527 25.4,110.764341 L28.7066667,108.348837 C29.4697436,109.365891 30.36,110.510078 31.1230769,111.527132 L28.0707692,114.069767 Z M126.204196,108.348837 L122.692308,106.060465 C123.472727,104.916279 124.123077,103.772093 124.773427,102.627907 L128.415385,104.662016 C127.765035,105.933333 126.984615,107.204651 126.204196,108.348837 Z M21.8389744,106.44186 C21.0758974,105.27167 20.44,103.971459 19.6769231,102.671247 L23.3651282,100.72093 C24.0010256,101.891121 24.6369231,103.061311 25.4,104.231501 L21.8389744,106.44186 Z M131.413187,100.72093 L127.461538,98.8583018 C128.006593,97.6608978 128.687912,96.3304489 129.096703,95 L133.184615,96.5965387 C132.775824,97.9269876 132.094505,99.3904813 131.413187,100.72093 Z M18.4505495,98.8139535 C17.9054945,97.4518272 17.2241758,95.9534884 16.8153846,94.5913621 L21.0395604,93.0930233 C21.4483516,94.4551495 21.9934066,95.8172757 22.5384615,97.0431894 L18.4505495,98.8139535 Z M134.758462,93.0930233 L130.323077,91.6627907 C130.752308,90.2325581 131.181538,88.8023256 131.467692,87.372093 L136.046154,88.3732558 C135.616923,89.9465116 135.187692,91.5197674 134.758462,93.0930233 Z M14.9321499,90.2325581 C14.565286,88.8878951 14.3207101,87.543232 13.9538462,86.1985689 L17.8670611,85.4651163 C18.1116371,86.6875373 18.356213,87.9099583 18.7230769,89.1323792 L14.9321499,90.2325581 Z M136.470085,83.5581395 L132.230769,82.8959948 C132.495726,81.5717054 132.628205,80.1149871 132.760684,78.7906977 L137,79.1879845 C136.867521,80.5122739 136.602564,82.1014212 136.470085,83.5581395 Z M13.4087912,81.6511628 C13.2725275,80.1087551 13.1362637,78.5663475 13,77.0239398 L17.3604396,76.8837209 C17.3604396,78.2859097 17.4967033,79.8283174 17.7692308,81.2305062 L13.4087912,81.6511628 Z M137,74.9767442 L132.375291,74.9767442 L132.375291,74.5433404 C132.375291,73.243129 132.375291,71.7984496 132.230769,70.4982382 L136.855478,70.2093023 C137,71.6539817 137,73.098661 137,74.5433404 L137,74.9767442 Z M17.4886878,73.0697674 L13,72.9335548 C13,71.4352159 13.1402715,69.9368771 13.280543,68.3023256 L17.7692308,68.7109635 C17.6289593,70.2093023 17.6289593,71.7076412 17.4886878,73.0697674 Z M131.904453,66.3953488 C131.778947,65.1407589 131.527935,63.7607099 131.276923,62.50612 L135.293117,61.627907 C135.54413,63.0079559 135.795142,64.3880049 136.046154,65.7680539 L131.904453,66.3953488 Z M17.9700405,64.4883721 L13.9538462,63.7549195 C14.2048583,62.4102564 14.4558704,61.0655933 14.8323887,59.7209302 L18.7230769,60.698867 C18.4720648,61.921288 18.0955466,63.2659511 17.9700405,64.4883721 Z M129.811257,58.7674419 C129.392495,57.372093 128.973734,55.9767442 128.415385,54.5813953 L132.603002,53.0465116 C133.161351,54.4418605 133.580113,55.9767442 134.138462,57.5116279 L129.811257,58.7674419 Z M20.0857143,56.8604651 L15.8615385,55.4983389 C16.2703297,54 16.8153846,52.6378738 17.4967033,51.1395349 L21.5846154,52.7740864 C21.0395604,54.1362126 20.4945055,55.4983389 20.0857143,56.8604651 Z M127.417174,50.1860465 C126.884794,49.0158562 126.21932,47.7156448 125.553846,46.5454545 L129.280501,44.4651163 C129.945975,45.7653277 130.611449,47.0655391 131.276923,48.3657505 L127.417174,50.1860465 Z M23.448951,49.2325581 L19.6769231,47.3255814 C20.3272727,46.0542636 20.9776224,44.7829457 21.758042,43.5116279 L25.4,45.6728682 C24.6195804,46.944186 23.9692308,48.0883721 23.448951,49.2325581 Z M123.073846,43.5116279 C122.310769,42.3923155 121.547692,41.3973711 120.784615,40.2780586 L124.091282,37.7906977 C124.981538,38.9100101 125.744615,40.0293225 126.507692,41.273003 L123.073846,43.5116279 Z M27.88,41.6046512 L24.4461538,39.2416582 C25.2092308,38.1223458 26.0994872,37.0030334 26.9897436,35.8837209 L30.1692308,38.3710819 C29.4061538,39.4903943 28.5158974,40.4853387 27.88,41.6046512 Z M118.628094,36.8372093 C117.757191,35.8422649 116.886288,34.9716886 116.015385,33.9767442 L118.876923,31.1162791 C119.872241,32.1112235 120.867559,33.1061678 121.738462,34.1011122 L118.628094,36.8372093 Z M33.1551839,34.9302326 L30.1692308,32.1941355 C31.1645485,31.1991911 32.1598662,30.2042467 33.1551839,29.2093023 L35.8923077,32.1941355 C34.89699,33.0647118 34.026087,34.0596562 33.1551839,34.9302326 Z M112.390769,31.1162791 C111.373333,30.2263566 110.355897,29.4635659 109.338462,28.7007752 L111.754872,25.3953488 C112.899487,26.2852713 114.044103,27.1751938 115.061538,28.0651163 L112.390769,31.1162791 Z M39.3897436,29.2093023 L36.8461538,26.0310078 C37.9907692,25.1410853 39.1353846,24.2511628 40.28,23.4883721 L42.5692308,26.9209302 C41.4246154,27.5565891 40.4071795,28.3193798 39.3897436,29.2093023 Z M105.21958,26.3488372 C104.048951,25.5860465 102.878322,24.9503876 101.707692,24.3147287 L103.658741,20.627907 C104.959441,21.2635659 106.26014,22.0263566 107.430769,22.7891473 L105.21958,26.3488372 Z M45.6041958,24.4418605 L43.5230769,20.8012685 C44.8237762,20.0211416 46.1244755,19.3710359 47.4251748,18.7209302 L49.2461538,22.4915433 C47.9454545,23.141649 46.7748252,23.7917548 45.6041958,24.4418605 Z M98.0285714,21.5813953 C96.8021978,21.0492158 95.4395604,20.5170362 94.0769231,19.9848567 L95.5758242,15.8604651 C97.0747253,16.3926447 98.4373626,16.9248242 99.8,17.5900487 L98.0285714,21.5813953 Z M53.7428571,21.5813953 L52.1076923,17.3953488 C53.4703297,16.8372093 54.9692308,16.2790698 56.4681319,15.8604651 L57.8307692,20.1860465 C56.4681319,20.4651163 55.1054945,21.0232558 53.7428571,21.5813953 Z M90.1147929,18.7209302 C88.8919132,18.3542039 87.6690335,18.1097197 86.4461538,17.8652355 L87.1798817,13.9534884 C88.5250493,14.1979726 89.870217,14.5646989 91.2153846,14.9314252 L90.1147929,18.7209302 Z M61.6963563,18.7209302 L60.6923077,14.8091831 C62.0728745,14.4424568 63.4534413,14.1979726 64.8340081,13.9534884 L65.4615385,17.8652355 C64.2064777,18.1097197 62.951417,18.3542039 61.6963563,18.7209302 Z M82.0857143,17.7674419 C80.7230769,17.6312292 79.2241758,17.4950166 77.8615385,17.358804 L78.1340659,13 C79.632967,13.1362126 81.1318681,13.2724252 82.6307692,13.4086379 L82.0857143,17.7674419 Z M69.6857143,17.7674419 L69.2769231,13.2804378 C70.7758242,13.1402189 72.2747253,13 73.9098901,13 L74.0461538,17.4870041 C72.5472527,17.4870041 71.1846154,17.627223 69.6857143,17.7674419 Z" id="Shape" fill="#FFFFFF" fill-rule="nonzero"></path>
                </g>
                <g id="Not-Secure" transform="translate(351.000000, 368.000000)">
                    <circle id="Oval" stroke="#4A555F" stroke-width="8" fill="#C60000" cx="74.5" cy="74.5" r="70.5"></circle>
                    <text id="X" font-family="Arial-BoldMT, Arial" font-size="96" font-weight="bold" fill="#FFFFFF">
                        <tspan x="43.484375" y="110">X</tspan>
                    </text>
                    <path d="M74.6820513,136 C73.2419306,136 71.80181,136 70.2307692,135.855532 L70.4926094,131.232558 C72.5873303,131.377026 74.6820513,131.377026 76.7767722,131.377026 L76.9076923,136 C76.253092,136 75.4675716,136 74.6820513,136 Z M82.1925156,136 L81.6769231,131.876807 C82.9659044,131.747957 84.3837838,131.490258 85.6727651,131.232558 L86.4461538,135.355751 C85.0282744,135.613451 83.610395,135.7423 82.1925156,136 Z M65.7878543,135.046512 C64.4072874,134.795594 63.0267206,134.544676 61.6461538,134.293758 L62.5246964,130.27907 C63.7797571,130.529988 65.0348178,130.780906 66.4153846,131.031824 L65.7878543,135.046512 Z M90.4243902,134.093023 L89.3076923,129.659302 C90.7035647,129.230233 92.0994371,128.801163 93.4953096,128.372093 L95.0307692,132.805814 C93.3557223,133.234884 91.8202627,133.663953 90.4243902,134.093023 Z M57.421978,133.139535 C55.9230769,132.72093 54.5604396,132.162791 53.0615385,131.604651 L54.6967033,127.418605 C56.0593407,127.976744 57.421978,128.395349 58.7846154,128.813953 L57.421978,133.139535 Z M99.6225403,131.232558 L97.8923077,127.241211 C99.2232558,126.709032 100.421109,126.043807 101.618962,125.511628 L103.615385,129.36993 C102.417531,130.035154 100.953488,130.700379 99.6225403,131.232558 Z M49.3328671,130.27907 C48.0321678,129.613845 46.7314685,128.948621 45.4307692,128.283396 L47.5118881,124.55814 C48.6825175,125.223364 49.8531469,125.888588 51.1538462,126.420768 L49.3328671,130.27907 Z M107.685128,127.418605 L105.523077,123.858915 C106.667692,123.223256 107.812308,122.460465 108.829744,121.697674 L111.246154,125.003101 C110.101538,125.893023 108.829744,126.655814 107.685128,127.418605 Z M41.2338462,125.511628 C40.0892308,124.748837 38.8174359,123.858915 37.8,123.096124 L40.3435897,119.790698 C41.3610256,120.553488 42.505641,121.316279 43.5230769,122.07907 L41.2338462,125.511628 Z M114.870769,121.697674 L112.2,118.588473 C113.217436,117.717897 114.234872,116.847321 115.125128,115.976744 L117.923077,118.837209 C117.032821,119.832154 116.015385,120.827098 114.870769,121.697674 Z M34.1090301,119.790698 C33.1137124,118.920121 32.1183946,117.925177 31.1230769,116.930233 L33.9846154,114.069767 C34.8555184,114.940344 35.8508361,115.935288 36.8461538,116.805865 L34.1090301,119.790698 Z M120.90903,115.023256 L117.923077,112.287159 C118.79398,111.292214 119.664883,110.29727 120.411371,109.302326 L123.646154,111.789687 C122.775251,112.908999 121.779933,114.028311 120.90903,115.023256 Z M28.0707692,114.069767 C27.1805128,112.925581 26.2902564,111.908527 25.4,110.764341 L28.7066667,108.348837 C29.4697436,109.365891 30.36,110.510078 31.1230769,111.527132 L28.0707692,114.069767 Z M126.204196,108.348837 L122.692308,106.060465 C123.472727,104.916279 124.123077,103.772093 124.773427,102.627907 L128.415385,104.662016 C127.765035,105.933333 126.984615,107.204651 126.204196,108.348837 Z M21.8389744,106.44186 C21.0758974,105.27167 20.44,103.971459 19.6769231,102.671247 L23.3651282,100.72093 C24.0010256,101.891121 24.6369231,103.061311 25.4,104.231501 L21.8389744,106.44186 Z M131.413187,100.72093 L127.461538,98.8583018 C128.006593,97.6608978 128.687912,96.3304489 129.096703,95 L133.184615,96.5965387 C132.775824,97.9269876 132.094505,99.3904813 131.413187,100.72093 Z M18.4505495,98.8139535 C17.9054945,97.4518272 17.2241758,95.9534884 16.8153846,94.5913621 L21.0395604,93.0930233 C21.4483516,94.4551495 21.9934066,95.8172757 22.5384615,97.0431894 L18.4505495,98.8139535 Z M134.758462,93.0930233 L130.323077,91.6627907 C130.752308,90.2325581 131.181538,88.8023256 131.467692,87.372093 L136.046154,88.3732558 C135.616923,89.9465116 135.187692,91.5197674 134.758462,93.0930233 Z M14.9321499,90.2325581 C14.565286,88.8878951 14.3207101,87.543232 13.9538462,86.1985689 L17.8670611,85.4651163 C18.1116371,86.6875373 18.356213,87.9099583 18.7230769,89.1323792 L14.9321499,90.2325581 Z M136.470085,83.5581395 L132.230769,82.8959948 C132.495726,81.5717054 132.628205,80.1149871 132.760684,78.7906977 L137,79.1879845 C136.867521,80.5122739 136.602564,82.1014212 136.470085,83.5581395 Z M13.4087912,81.6511628 C13.2725275,80.1087551 13.1362637,78.5663475 13,77.0239398 L17.3604396,76.8837209 C17.3604396,78.2859097 17.4967033,79.8283174 17.7692308,81.2305062 L13.4087912,81.6511628 Z M137,74.9767442 L132.375291,74.9767442 L132.375291,74.5433404 C132.375291,73.243129 132.375291,71.7984496 132.230769,70.4982382 L136.855478,70.2093023 C137,71.6539817 137,73.098661 137,74.5433404 L137,74.9767442 Z M17.4886878,73.0697674 L13,72.9335548 C13,71.4352159 13.1402715,69.9368771 13.280543,68.3023256 L17.7692308,68.7109635 C17.6289593,70.2093023 17.6289593,71.7076412 17.4886878,73.0697674 Z M131.904453,66.3953488 C131.778947,65.1407589 131.527935,63.7607099 131.276923,62.50612 L135.293117,61.627907 C135.54413,63.0079559 135.795142,64.3880049 136.046154,65.7680539 L131.904453,66.3953488 Z M17.9700405,64.4883721 L13.9538462,63.7549195 C14.2048583,62.4102564 14.4558704,61.0655933 14.8323887,59.7209302 L18.7230769,60.698867 C18.4720648,61.921288 18.0955466,63.2659511 17.9700405,64.4883721 Z M129.811257,58.7674419 C129.392495,57.372093 128.973734,55.9767442 128.415385,54.5813953 L132.603002,53.0465116 C133.161351,54.4418605 133.580113,55.9767442 134.138462,57.5116279 L129.811257,58.7674419 Z M20.0857143,56.8604651 L15.8615385,55.4983389 C16.2703297,54 16.8153846,52.6378738 17.4967033,51.1395349 L21.5846154,52.7740864 C21.0395604,54.1362126 20.4945055,55.4983389 20.0857143,56.8604651 Z M127.417174,50.1860465 C126.884794,49.0158562 126.21932,47.7156448 125.553846,46.5454545 L129.280501,44.4651163 C129.945975,45.7653277 130.611449,47.0655391 131.276923,48.3657505 L127.417174,50.1860465 Z M23.448951,49.2325581 L19.6769231,47.3255814 C20.3272727,46.0542636 20.9776224,44.7829457 21.758042,43.5116279 L25.4,45.6728682 C24.6195804,46.944186 23.9692308,48.0883721 23.448951,49.2325581 Z M123.073846,43.5116279 C122.310769,42.3923155 121.547692,41.3973711 120.784615,40.2780586 L124.091282,37.7906977 C124.981538,38.9100101 125.744615,40.0293225 126.507692,41.273003 L123.073846,43.5116279 Z M27.88,41.6046512 L24.4461538,39.2416582 C25.2092308,38.1223458 26.0994872,37.0030334 26.9897436,35.8837209 L30.1692308,38.3710819 C29.4061538,39.4903943 28.5158974,40.4853387 27.88,41.6046512 Z M118.628094,36.8372093 C117.757191,35.8422649 116.886288,34.9716886 116.015385,33.9767442 L118.876923,31.1162791 C119.872241,32.1112235 120.867559,33.1061678 121.738462,34.1011122 L118.628094,36.8372093 Z M33.1551839,34.9302326 L30.1692308,32.1941355 C31.1645485,31.1991911 32.1598662,30.2042467 33.1551839,29.2093023 L35.8923077,32.1941355 C34.89699,33.0647118 34.026087,34.0596562 33.1551839,34.9302326 Z M112.390769,31.1162791 C111.373333,30.2263566 110.355897,29.4635659 109.338462,28.7007752 L111.754872,25.3953488 C112.899487,26.2852713 114.044103,27.1751938 115.061538,28.0651163 L112.390769,31.1162791 Z M39.3897436,29.2093023 L36.8461538,26.0310078 C37.9907692,25.1410853 39.1353846,24.2511628 40.28,23.4883721 L42.5692308,26.9209302 C41.4246154,27.5565891 40.4071795,28.3193798 39.3897436,29.2093023 Z M105.21958,26.3488372 C104.048951,25.5860465 102.878322,24.9503876 101.707692,24.3147287 L103.658741,20.627907 C104.959441,21.2635659 106.26014,22.0263566 107.430769,22.7891473 L105.21958,26.3488372 Z M45.6041958,24.4418605 L43.5230769,20.8012685 C44.8237762,20.0211416 46.1244755,19.3710359 47.4251748,18.7209302 L49.2461538,22.4915433 C47.9454545,23.141649 46.7748252,23.7917548 45.6041958,24.4418605 Z M98.0285714,21.5813953 C96.8021978,21.0492158 95.4395604,20.5170362 94.0769231,19.9848567 L95.5758242,15.8604651 C97.0747253,16.3926447 98.4373626,16.9248242 99.8,17.5900487 L98.0285714,21.5813953 Z M53.7428571,21.5813953 L52.1076923,17.3953488 C53.4703297,16.8372093 54.9692308,16.2790698 56.4681319,15.8604651 L57.8307692,20.1860465 C56.4681319,20.4651163 55.1054945,21.0232558 53.7428571,21.5813953 Z M90.1147929,18.7209302 C88.8919132,18.3542039 87.6690335,18.1097197 86.4461538,17.8652355 L87.1798817,13.9534884 C88.5250493,14.1979726 89.870217,14.5646989 91.2153846,14.9314252 L90.1147929,18.7209302 Z M61.6963563,18.7209302 L60.6923077,14.8091831 C62.0728745,14.4424568 63.4534413,14.1979726 64.8340081,13.9534884 L65.4615385,17.8652355 C64.2064777,18.1097197 62.951417,18.3542039 61.6963563,18.7209302 Z M82.0857143,17.7674419 C80.7230769,17.6312292 79.2241758,17.4950166 77.8615385,17.358804 L78.1340659,13 C79.632967,13.1362126 81.1318681,13.2724252 82.6307692,13.4086379 L82.0857143,17.7674419 Z M69.6857143,17.7674419 L69.2769231,13.2804378 C70.7758242,13.1402189 72.2747253,13 73.9098901,13 L74.0461538,17.4870041 C72.5472527,17.4870041 71.1846154,17.627223 69.6857143,17.7674419 Z" id="Shape" fill="#FFFFFF" fill-rule="nonzero"></path>
                </g>
            </g>
        </g>
    </g>
</svg>