<?xml version="1.0" encoding="UTF-8"?>
<svg width="840px" height="446px" viewBox="0 0 840 446" version="1.1" xmlns="http://www.w3.org/2000/svg" xmlns:xlink="http://www.w3.org/1999/xlink">
    <!-- Generator: Sketch 58 (84663) - https://sketch.com -->
    <title>elastic clustering copy</title>
    <desc>Created with Sketch.</desc>
    <g id="Page-1" stroke="none" stroke-width="1" fill="none" fill-rule="evenodd">
        <g id="Scalability" transform="translate(-202.000000, -2053.000000)" fill-rule="nonzero">
            <g id="elastic-clustering-copy" transform="translate(202.000000, 2053.000000)">
                <path d="M427,446 L427,446 C399.413793,446 377,423.362069 377,395.5 C377,367.637931 399.413793,345 427,345 C454.586207,345 477,367.637931 477,395.5 C477,423.362069 454.586207,446 427,446 Z M427,355.796552 C405.275862,355.796552 387.689655,373.558621 387.689655,395.5 C387.689655,417.441379 405.275862,435.203448 427,435.203448 C448.724138,435.203448 466.310345,417.441379 466.310345,395.5 C466.310345,373.558621 448.724138,355.796552 427,355.796552 Z" id="Shape" fill="#4A555F" transform="translate(427.000000, 395.500000) rotate(-180.000000) translate(-427.000000, -395.500000) "></path>
                <path d="M426,422 C410.962025,422 399,410.037975 399,395 C399,379.962025 410.962025,368 426,368 C441.037975,368 453,379.962025 453,395 C453,409.696203 441.037975,422 426,422 L426,422 Z" id="Path" fill="#71CDE1" transform="translate(426.000000, 395.000000) rotate(-180.000000) translate(-426.000000, -395.000000) "></path>
                <path d="M724,446 L724,446 C696.413793,446 674,423.362069 674,395.5 C674,367.637931 696.413793,345 724,345 C751.586207,345 774,367.637931 774,395.5 C774,423.362069 751.586207,446 724,446 Z M724,355.796552 C702.275862,355.796552 684.689655,373.558621 684.689655,395.5 C684.689655,417.441379 702.275862,435.203448 724,435.203448 C745.724138,435.203448 763.310345,417.441379 763.310345,395.5 C763.310345,373.558621 745.724138,355.796552 724,355.796552 Z" id="Shape" fill="#4A555F" transform="translate(724.000000, 395.500000) rotate(-180.000000) translate(-724.000000, -395.500000) "></path>
                <path d="M724,422 C708.962025,422 697,410.037975 697,395 C697,379.962025 708.962025,368 724,368 C739.037975,368 751,379.962025 751,395 C751,409.696203 739.037975,422 724,422 L724,422 Z" id="Path" fill="#71CDE1" transform="translate(724.000000, 395.000000) rotate(-180.000000) translate(-724.000000, -395.000000) "></path>
                <path d="M126,446 L126,446 C98.4137931,446 76,423.362069 76,395.5 C76,367.637931 98.4137931,345 126,345 C153.586207,345 176,367.637931 176,395.5 C176,423.362069 153.586207,446 126,446 Z M126,355.796552 C104.275862,355.796552 86.6896552,373.558621 86.6896552,395.5 C86.6896552,417.441379 104.275862,435.203448 126,435.203448 C147.724138,435.203448 165.310345,417.441379 165.310345,395.5 C165.310345,373.558621 147.724138,355.796552 126,355.796552 Z" id="Shape" fill="#4A555F" transform="translate(126.000000, 395.500000) rotate(-180.000000) translate(-126.000000, -395.500000) "></path>
                <path d="M126,422 C110.962025,422 99,410.037975 99,395 C99,379.962025 110.962025,368 126,368 C141.037975,368 153,379.962025 153,395 C153,409.696203 141.037975,422 126,422 L126,422 Z" id="Path" fill="#71CDE1" transform="translate(126.000000, 395.000000) rotate(-180.000000) translate(-126.000000, -395.000000) "></path>
                <path d="M665,401 L654.669261,401 L654.669261,391 L665,391 L665,401 Z M644.338521,401 L634.007782,401 L634.007782,391 L644.338521,391 L644.338521,401 Z M623.332685,401 L613.001946,401 L613.001946,391 L623.332685,391 L623.332685,401 Z M602.671206,401 L592.340467,401 L592.340467,391 L602.671206,391 L602.671206,401 Z M581.66537,401 L571.33463,401 L571.33463,391 L581.66537,391 L581.66537,401 Z M561.003891,401 L550.673152,401 L550.673152,391 L561.003891,391 L561.003891,401 Z M539.998054,401 L529.667315,401 L529.667315,391 L539.998054,391 L539.998054,401 Z M518.992218,401 L508.661479,401 L508.661479,391 L518.992218,391 L518.992218,401 Z M498.330739,401 L488,401 L488,391 L498.330739,391 L498.330739,401 Z" id="Shape" fill="#4A555F" transform="translate(576.500000, 396.000000) rotate(-180.000000) translate(-576.500000, -396.000000) "></path>
                <path d="M271.33463,401 L271.33463,391 L281.66537,391 L281.66537,401 L271.33463,401 Z M260.659533,401 L250.328794,401 L250.328794,391 L260.659533,391 L260.659533,401 Z M239.998054,401 L229.667315,401 L229.667315,391 L239.998054,391 L239.998054,401 Z M218.992218,401 L208.661479,401 L208.661479,391 L218.992218,391 L218.992218,401 Z M198.330739,401 L188,401 L188,391 L198.330739,391 L198.330739,401 Z M365,401 L354.669261,401 L354.669261,391 L365,391 L365,401 Z M343.994163,401 L333.663424,401 L333.663424,391 L343.994163,391 L343.994163,401 Z M323.332685,401 L313.001946,401 L313.001946,391 L323.332685,391 L323.332685,401 Z M302.326848,401 L291.996109,401 L291.996109,391 L302.326848,391 L302.326848,401 Z" id="Shape" fill="#4A555F" transform="translate(276.500000, 396.000000) rotate(-180.000000) translate(-276.500000, -396.000000) "></path>
                <path d="M127,329 L117,329 L117,318.669811 L127,318.669811 L127,329 Z M127,307.995283 L117,307.995283 L117,297.665094 L127,297.665094 L127,307.995283 Z M127,287.334906 L117,287.334906 L117,277.004717 L127,277.004717 L127,287.334906 Z M127,266.330189 L117,266.330189 L117,256 L127,256 L127,266.330189 Z" id="Shape" fill="#4A555F" transform="translate(122.000000, 292.500000) rotate(-180.000000) translate(-122.000000, -292.500000) "></path>
                <path d="M729,329 L719,329 L719,318.669811 L729,318.669811 L729,329 Z M729,307.995283 L719,307.995283 L719,297.665094 L729,297.665094 L729,307.995283 Z M729,287.334906 L719,287.334906 L719,277.004717 L729,277.004717 L729,287.334906 Z M729,266.330189 L719,266.330189 L719,256 L729,256 L729,266.330189 Z" id="Shape" fill="#4A555F" transform="translate(724.000000, 292.500000) rotate(-180.000000) translate(-724.000000, -292.500000) "></path>
                <path d="M432,329 L422,329 L422,318.669811 L432,318.669811 L432,329 Z M432,307.995283 L422,307.995283 L422,297.665094 L432,297.665094 L432,307.995283 Z M432,287.334906 L422,287.334906 L422,277.004717 L432,277.004717 L432,287.334906 Z M432,266.330189 L422,266.330189 L422,256 L432,256 L432,266.330189 Z" id="Shape" fill="#4A555F" transform="translate(427.000000, 292.500000) rotate(-180.000000) translate(-427.000000, -292.500000) "></path>
                <g id="elasticsearch">
                    <path d="M241,126.228281 C241,105.881964 228.408607,88.3009917 209.718772,81.387158 C210.510354,77.0867324 210.905282,72.7221699 210.898539,68.3489138 C210.898539,30.6182712 180.405392,0 142.828938,0 C120.991491,0 100.531536,10.4695466 87.7433583,28.4457032 C81.4481325,23.5068455 73.7754141,20.9390932 65.7091264,20.9390932 C45.8385842,20.9390932 29.5101657,37.1369207 29.5101657,57.2865908 C29.5101657,61.6326722 30.2973043,65.9787536 31.6738553,69.9296508 C12.7881779,76.4483002 0,94.6220491 0,114.770774 C0,135.118036 12.5913932,152.8966 31.4770707,159.810434 C30.6908736,163.958923 30.2973043,168.305005 30.2973043,172.847733 C30.2973043,210.380783 60.7904516,241 98.1701206,241 C120.204353,241 140.468464,230.332862 153.2557,212.554297 C159.550926,217.492209 167.420429,220.258499 175.486717,220.258499 C195.357259,220.258499 211.685677,204.059726 211.685677,183.911001 C211.685677,179.56492 210.898539,175.218839 209.521988,171.267942 C228.014096,164.551699 241,146.377951 241,126.228281 L241,126.228281 Z" id="Path" fill="#FFFFFF"></path>
                    <path d="M95.8581456,102.123123 L149.964924,126.776042 L204.665479,79.0492977 C205.462935,75.0884534 205.861077,71.0582888 205.854167,67.0187413 C205.854167,33.4925089 178.504179,6.27604167 144.811581,6.27604167 C124.595643,6.27604167 105.768347,16.1366427 94.4714002,32.7024904 L85.3541667,79.6411037 L95.8581456,102.124067 L95.8581456,102.123123 Z" id="Path" fill="#F4BD19"></path>
                    <path d="M36.3304407,161.913754 C35.5410176,165.838906 35.1458333,169.960363 35.1458333,174.081819 C35.1458333,207.4442 62.6035759,234.723958 96.1857288,234.723958 C116.532991,234.723958 135.299516,224.715244 146.756078,208.229418 L155.645833,161.521145 L143.59555,138.755453 L89.4694876,114.223958 L36.3304407,161.913754 L36.3304407,161.913754 Z" id="Path" fill="#3CBEB1"></path>
                    <path d="M38.1102594,66.4482184 L73.6149184,75.3125 L81.5885417,32.4025898 C76.6526189,28.3734586 70.7662222,26.359375 64.500908,26.359375 C49.1215833,26.359375 36.4010417,39.6548332 36.4010417,56.1743677 C36.4010417,59.5989846 36.9707809,63.2251063 38.1093507,66.4482184 L38.1102594,66.4482184 Z" id="Path" fill="#E9478C"></path>
                    <path d="M35.4370057,75.3125 C18.9296272,80.7144623 7.53125,96.9193912 7.53125,114.52412 C7.53125,131.729591 17.9467653,147.134087 33.6687946,153.135417 L85.3541667,105.521169 L75.9205729,84.9167332 L35.4370057,75.3134575 L35.4370057,75.3125 Z" id="Path" fill="#2C458F"></path>
                    <path d="M159.411458,208.394941 C164.368213,212.425036 170.279453,214.640625 176.380496,214.640625 C191.82473,214.640625 204.598958,201.345167 204.598958,184.825633 C204.598958,181.199511 204.026814,177.77393 202.883439,174.550818 L167.228932,165.6875 L159.411458,208.394941 L159.411458,208.394941 Z" id="Path" fill="#95C63D"></path>
                    <path d="M166.266829,156.084106 L206.047505,165.6875 C222.268276,160.086318 233.46875,144.0813 233.46875,126.475397 C233.46875,109.269715 223.234073,94.066097 207.785016,87.8645833 L155.645833,135.078237 L166.266829,156.085063 L166.266829,156.084106 Z" id="Path" fill="#176655"></path>
                </g>
                <g id="elasticsearch-copy" transform="translate(299.000000, 0.000000)">
                    <path d="M241,126.228281 C241,105.881964 228.408607,88.3009917 209.718772,81.387158 C210.510354,77.0867324 210.905282,72.7221699 210.898539,68.3489138 C210.898539,30.6182712 180.405392,0 142.828938,0 C120.991491,0 100.531536,10.4695466 87.7433583,28.4457032 C81.4481325,23.5068455 73.7754141,20.9390932 65.7091264,20.9390932 C45.8385842,20.9390932 29.5101657,37.1369207 29.5101657,57.2865908 C29.5101657,61.6326722 30.2973043,65.9787536 31.6738553,69.9296508 C12.7881779,76.4483002 0,94.6220491 0,114.770774 C0,135.118036 12.5913932,152.8966 31.4770707,159.810434 C30.6908736,163.958923 30.2973043,168.305005 30.2973043,172.847733 C30.2973043,210.380783 60.7904516,241 98.1701206,241 C120.204353,241 140.468464,230.332862 153.2557,212.554297 C159.550926,217.492209 167.420429,220.258499 175.486717,220.258499 C195.357259,220.258499 211.685677,204.059726 211.685677,183.911001 C211.685677,179.56492 210.898539,175.218839 209.521988,171.267942 C228.014096,164.551699 241,146.377951 241,126.228281 L241,126.228281 Z" id="Path" fill="#FFFFFF"></path>
                    <path d="M95.8581456,102.123123 L149.964924,126.776042 L204.665479,79.0492977 C205.462935,75.0884534 205.861077,71.0582888 205.854167,67.0187413 C205.854167,33.4925089 178.504179,6.27604167 144.811581,6.27604167 C124.595643,6.27604167 105.768347,16.1366427 94.4714002,32.7024904 L85.3541667,79.6411037 L95.8581456,102.124067 L95.8581456,102.123123 Z" id="Path" fill="#F4BD19"></path>
                    <path d="M36.3304407,161.913754 C35.5410176,165.838906 35.1458333,169.960363 35.1458333,174.081819 C35.1458333,207.4442 62.6035759,234.723958 96.1857288,234.723958 C116.532991,234.723958 135.299516,224.715244 146.756078,208.229418 L155.645833,161.521145 L143.59555,138.755453 L89.4694876,114.223958 L36.3304407,161.913754 L36.3304407,161.913754 Z" id="Path" fill="#3CBEB1"></path>
                    <path d="M38.1102594,66.4482184 L73.6149184,75.3125 L81.5885417,32.4025898 C76.6526189,28.3734586 70.7662222,26.359375 64.500908,26.359375 C49.1215833,26.359375 36.4010417,39.6548332 36.4010417,56.1743677 C36.4010417,59.5989846 36.9707809,63.2251063 38.1093507,66.4482184 L38.1102594,66.4482184 Z" id="Path" fill="#E9478C"></path>
                    <path d="M35.4370057,75.3125 C18.9296272,80.7144623 7.53125,96.9193912 7.53125,114.52412 C7.53125,131.729591 17.9467653,147.134087 33.6687946,153.135417 L85.3541667,105.521169 L75.9205729,84.9167332 L35.4370057,75.3134575 L35.4370057,75.3125 Z" id="Path" fill="#2C458F"></path>
                    <path d="M159.411458,208.394941 C164.368213,212.425036 170.279453,214.640625 176.380496,214.640625 C191.82473,214.640625 204.598958,201.345167 204.598958,184.825633 C204.598958,181.199511 204.026814,177.77393 202.883439,174.550818 L167.228932,165.6875 L159.411458,208.394941 L159.411458,208.394941 Z" id="Path" fill="#95C63D"></path>
                    <path d="M166.266829,156.084106 L206.047505,165.6875 C222.268276,160.086318 233.46875,144.0813 233.46875,126.475397 C233.46875,109.269715 223.234073,94.066097 207.785016,87.8645833 L155.645833,135.078237 L166.266829,156.085063 L166.266829,156.084106 Z" id="Path" fill="#176655"></path>
                </g>
                <g id="elasticsearch-copy-2" transform="translate(599.000000, 0.000000)">
                    <path d="M241,126.228281 C241,105.881964 228.408607,88.3009917 209.718772,81.387158 C210.510354,77.0867324 210.905282,72.7221699 210.898539,68.3489138 C210.898539,30.6182712 180.405392,0 142.828938,0 C120.991491,0 100.531536,10.4695466 87.7433583,28.4457032 C81.4481325,23.5068455 73.7754141,20.9390932 65.7091264,20.9390932 C45.8385842,20.9390932 29.5101657,37.1369207 29.5101657,57.2865908 C29.5101657,61.6326722 30.2973043,65.9787536 31.6738553,69.9296508 C12.7881779,76.4483002 0,94.6220491 0,114.770774 C0,135.118036 12.5913932,152.8966 31.4770707,159.810434 C30.6908736,163.958923 30.2973043,168.305005 30.2973043,172.847733 C30.2973043,210.380783 60.7904516,241 98.1701206,241 C120.204353,241 140.468464,230.332862 153.2557,212.554297 C159.550926,217.492209 167.420429,220.258499 175.486717,220.258499 C195.357259,220.258499 211.685677,204.059726 211.685677,183.911001 C211.685677,179.56492 210.898539,175.218839 209.521988,171.267942 C228.014096,164.551699 241,146.377951 241,126.228281 L241,126.228281 Z" id="Path" fill="#FFFFFF"></path>
                    <path d="M95.8581456,102.123123 L149.964924,126.776042 L204.665479,79.0492977 C205.462935,75.0884534 205.861077,71.0582888 205.854167,67.0187413 C205.854167,33.4925089 178.504179,6.27604167 144.811581,6.27604167 C124.595643,6.27604167 105.768347,16.1366427 94.4714002,32.7024904 L85.3541667,79.6411037 L95.8581456,102.124067 L95.8581456,102.123123 Z" id="Path" fill="#F4BD19"></path>
                    <path d="M36.3304407,161.913754 C35.5410176,165.838906 35.1458333,169.960363 35.1458333,174.081819 C35.1458333,207.4442 62.6035759,234.723958 96.1857288,234.723958 C116.532991,234.723958 135.299516,224.715244 146.756078,208.229418 L155.645833,161.521145 L143.59555,138.755453 L89.4694876,114.223958 L36.3304407,161.913754 L36.3304407,161.913754 Z" id="Path" fill="#3CBEB1"></path>
                    <path d="M38.1102594,66.4482184 L73.6149184,75.3125 L81.5885417,32.4025898 C76.6526189,28.3734586 70.7662222,26.359375 64.500908,26.359375 C49.1215833,26.359375 36.4010417,39.6548332 36.4010417,56.1743677 C36.4010417,59.5989846 36.9707809,63.2251063 38.1093507,66.4482184 L38.1102594,66.4482184 Z" id="Path" fill="#E9478C"></path>
                    <path d="M35.4370057,75.3125 C18.9296272,80.7144623 7.53125,96.9193912 7.53125,114.52412 C7.53125,131.729591 17.9467653,147.134087 33.6687946,153.135417 L85.3541667,105.521169 L75.9205729,84.9167332 L35.4370057,75.3134575 L35.4370057,75.3125 Z" id="Path" fill="#2C458F"></path>
                    <path d="M159.411458,208.394941 C164.368213,212.425036 170.279453,214.640625 176.380496,214.640625 C191.82473,214.640625 204.598958,201.345167 204.598958,184.825633 C204.598958,181.199511 204.026814,177.77393 202.883439,174.550818 L167.228932,165.6875 L159.411458,208.394941 L159.411458,208.394941 Z" id="Path" fill="#95C63D"></path>
                    <path d="M166.266829,156.084106 L206.047505,165.6875 C222.268276,160.086318 233.46875,144.0813 233.46875,126.475397 C233.46875,109.269715 223.234073,94.066097 207.785016,87.8645833 L155.645833,135.078237 L166.266829,156.085063 L166.266829,156.084106 Z" id="Path" fill="#176655"></path>
                </g>
            </g>
        </g>
    </g>
</svg>