<?xml version="1.0" encoding="UTF-8"?>
<svg width="780px" height="391px" viewBox="0 0 780 391" version="1.1" xmlns="http://www.w3.org/2000/svg" xmlns:xlink="http://www.w3.org/1999/xlink">
    <!-- Generator: Sketch 59.1 (86144) - https://sketch.com -->
    <title>t-email-templates</title>
    <desc>Created with Sketch.</desc>
    <g id="Page-1" stroke="none" stroke-width="1" fill="none" fill-rule="evenodd">
        <g id="t-email-templates" fill-rule="nonzero">
            <g id="EMAIL" transform="translate(353.000000, 0.000000)">
                <path d="M209.279374,221 L160.71986,221 C144.858086,221 132,208.12396 132,192.240038 L132,134.759962 C132,118.87604 144.858086,106 160.71986,106 L209.279374,106 C225.141149,106 238,118.87604 238,134.759962 L238,192.240038 C238,208.12396 225.141149,221 209.279374,221 Z" id="Path" fill="#E88C59"></path>
                <path d="M364.976747,391 L3.02325277,391 C1.75555542,391 0.624226961,390.206272 0.186932324,389.012235 C-0.251885987,387.818198 0.0985591921,386.476437 1.06304527,385.650561 L182.039793,230.725033 C183.169597,229.758322 184.830403,229.758322 185.960207,230.725033 L366.936955,385.650561 C367.901441,386.476437 368.251886,387.818198 367.813068,389.012235 C367.375773,390.206272 366.244445,391 364.976747,391 Z M11.232812,384.92572 L356.767188,384.92572 L184,237.02817 L11.232812,384.92572 Z" id="Shape" fill="#4A555F"></path>
                <polygon id="Path" fill="#DFDFDF" points="31 378 184.5 247 338 378"></polygon>
                <path d="M4.01484957,391 C3.58708739,391 3.15476647,390.908353 2.75055781,390.720476 C1.68305185,390.225582 1,389.151019 1,387.968771 L1,151.030344 C1,149.851151 1.68077248,148.778879 2.74523928,148.281694 C3.81122565,147.786035 5.06336076,147.953291 5.96067359,148.713963 L144.930195,266.629474 C145.607168,267.203796 145.997701,268.048478 146,268.938219 C146.002259,269.828724 145.615526,270.674168 144.940072,271.252309 L5.97055087,390.276751 C5.41514386,390.752553 4.71765598,391 4.01484957,391 Z M7.03045892,157.554858 L7.03045892,381.405307 L138.323055,268.956548 L7.03045892,157.554858 Z" id="Shape" fill="#4A555F"></path>
                <polygon id="Path" fill="#DFDFDF" points="13 173 127 269.048985 13 366"></polygon>
                <path d="M364.984391,391 C364.281584,391 363.584856,390.752552 363.029449,390.276751 L224.059928,271.252963 C223.384474,270.675585 222.997741,269.829376 222.99999,268.93887 C223.002299,268.048365 223.392832,267.203683 224.069805,266.630124 L363.039326,148.714504 C363.936639,147.953068 365.188774,147.785812 366.254761,148.282235 C367.318468,148.778657 367.99999,149.851693 367.99999,151.030888 L367.99999,387.970295 C367.99999,389.151781 367.316948,390.226345 366.249442,390.722003 C365.844474,390.908353 365.412153,391 364.984391,391 Z M230.676945,268.9572 L361.969541,381.406062 L361.969541,157.554643 L230.676945,268.9572 Z" id="Shape" fill="#4A555F"></path>
                <polygon id="Path" fill="#DFDFDF" points="242 269.048985 356 173 356 366"></polygon>
                <path d="M142.811302,272 C142.117794,272 141.421997,271.760831 140.858188,271.283087 L39.074213,185.060348 C38.3921488,184.483075 38,183.634008 38,182.739005 L38,87.0379583 C38,85.360497 39.3557362,84 41.0273277,84 L327.972672,84 C329.644264,84 331,85.360497 331,87.0379583 L331,182.739005 C331,183.634008 330.607851,184.48384 329.925787,185.060348 L228.141049,271.283087 C227.011905,272.243168 225.354046,272.237809 224.224902,271.2739 L184.488937,237.305116 L144.775098,271.273134 C144.209,271.757003 143.510914,272 142.811302,272 Z M184.488937,230.276009 C185.188549,230.276009 185.886635,230.517943 186.45197,231.001046 L226.197853,264.977486 L324.945345,181.327978 L324.945345,90.0759167 L44.0554183,90.0759167 L44.0554183,181.327212 L142.801384,264.977486 L182.525142,231.001046 C183.09124,230.517943 183.788563,230.276009 184.488937,230.276009 Z" id="Shape" fill="#4A555F"></path>
                <path d="M222.966168,207 L171.214399,207 C155.10634,207 142,193.856924 142,177.701829 L142,144.298171 C142,128.143076 155.105575,115 171.214399,115 L196.787894,115 C212.895954,115 226,128.143076 226,144.298171 L226,176.286302 C226,183.353198 220.267983,189.102719 213.222428,189.102719 C205.751768,189.102719 199.249825,184.859974 195.98662,178.651136 C193.559095,182.120939 190.738579,185.386004 186.262759,187.314524 C179.864798,190.074264 172.21064,189.40024 167.221026,185.63675 C163.345397,182.712147 158.851991,177.008635 159.456005,166.452 C160.384199,150.207955 168.87633,139.377569 183.36655,135.953775 C187.317107,135.019804 191.429755,135.94764 194.645556,138.501109 C197.936285,141.113621 199.822491,145.022804 199.822491,149.225675 L199.822491,169.577506 C199.822491,176.987164 205.833578,183.01657 213.222428,183.01657 C216.922205,183.01657 219.932335,179.99765 219.932335,176.286302 L219.932335,144.298171 C219.932335,131.498625 209.550175,121.085382 196.787894,121.085382 L171.214399,121.085382 C158.452119,121.085382 148.068429,131.498625 148.068429,144.298171 L148.068429,177.701829 C148.068429,190.501375 158.452119,200.913851 171.214399,200.913851 L222.966168,200.913851 L222.966168,207 Z M186.390443,141.686426 C185.845301,141.686426 185.297866,141.749304 184.756547,141.877361 C172.772603,144.70918 166.29742,153.094217 165.511437,166.80013 C165.152087,173.117088 166.953425,177.81915 170.870341,180.774425 C174.123606,183.229742 179.468748,183.61928 183.867346,181.722966 C187.857662,180.003017 190.142975,176.536282 192.787639,172.522813 C193.125581,172.012119 193.46123,171.500658 193.804524,170.990732 C193.770882,170.524513 193.753297,170.052926 193.753297,169.577506 L193.753297,149.225675 C193.753297,146.893814 192.704301,144.722983 190.876967,143.271416 C189.570309,142.233159 187.994521,141.686426 186.390443,141.686426 Z" id="Shape" fill="#4A555F"></path>
                <path d="M40.9593769,186 C40.2545714,186 39.5581929,185.754945 38.9981789,185.283214 L1.0788745,153.295097 C0.387858631,152.712326 -0.00744534819,151.85157 -0.000103312435,150.947929 C0.00787651148,150.044288 0.417736258,149.190424 1.11871134,148.619139 L39.0380157,117.683994 C39.946602,116.941171 41.2052928,116.79184 42.2640333,117.292672 C43.3227738,117.795801 44,118.864854 44,120.038055 L44,182.961317 C44,184.143707 43.3135807,185.218887 42.2402844,185.717421 C41.8296586,185.906573 41.3945178,186 40.9593769,186 Z M7.79980825,151.012256 L37.9187539,176.420642 L37.9187539,126.44012 L7.79980825,151.012256 Z" id="Shape" fill="#4A555F"></path>
                <path d="M287.97045,91 L81.0289125,91 C79.7472973,91 78.6053698,90.1893574 78.1756204,88.9764642 C77.7458709,87.7628034 78.1221879,86.4078942 79.1145046,85.594181 L182.584128,0.686282615 C183.700103,-0.228760872 185.297733,-0.228760872 186.413707,0.686282615 L289.885621,85.5934134 C290.877175,86.4078942 291.254255,87.7620357 290.824505,88.9756966 C290.394756,90.1893574 289.252829,91 287.97045,91 Z M89.5323032,84.9078984 L279.467059,84.9078984 L184.4993,6.97797424 L89.5323032,84.9078984 Z" id="Shape" fill="#4A555F"></path>
                <polygon id="Path" fill="#DFDFDF" points="109 77 183.999238 16 259 77"></polygon>
                <path d="M328.040623,186 C327.605482,186 327.169575,185.907339 326.759716,185.717422 C325.687185,185.219656 325,184.143716 325,182.961331 L325,120.038373 C325,118.864412 325.677226,117.79613 326.735967,117.293003 C327.794707,116.791409 329.053398,116.941504 329.961984,117.684324 L367.881289,148.61932 C368.582264,149.191368 368.991357,150.044462 369.000103,150.948098 C369.007445,151.8525 368.612141,152.712486 367.921125,153.295255 L330.001821,185.283217 C329.441807,185.754946 328.744663,186 328.040623,186 Z M331.08048,126.440407 L331.08048,176.420689 L361.199426,151.012425 L331.08048,126.440407 Z" id="Shape" fill="#4A555F"></path>
            </g>
            <g id="TEMPLATE" transform="translate(629.000000, 37.000000)">
                <g id="Button">
                    <path d="M75.5,151 C33.8690034,151 0,117.130499 0,75.5 C0,33.869501 33.8690034,0 75.5,0 C117.130997,0 151,33.8683917 151,75.5 C151,117.131608 117.130997,151 75.5,151 Z" id="Path" fill="#FFFFFF"></path>
                    <path d="M75.5,151 C33.8690034,151 0,117.130499 0,75.5 C0,33.869501 33.8690034,0 75.5,0 C117.130997,0 151,33.8683917 151,75.5 C151,117.131608 117.130997,151 75.5,151 Z M75.5,8.6207426 C38.6224893,8.6207426 8.62172527,38.6230568 8.62172527,75.5 C8.62172527,112.376943 38.6224893,142.379257 75.5,142.379257 C112.377511,142.379257 142.378275,112.376943 142.378275,75.5 C142.378275,38.6230568 112.377511,8.6207426 75.5,8.6207426 Z" id="Shape" fill="#4A555F"></path>
                    <circle id="Oval" fill="#FFD452" cx="75.8813131" cy="75.8813131" r="52.239899"></circle>
                    <path d="M71.0793762,131.934343 C67.9847181,131.693803 64.896701,131.194985 61.8972291,130.451193 L63.9669754,122.088793 C66.5049049,122.718412 69.1225252,123.140744 71.7434659,123.344705 L71.0793762,131.934343 Z M80.3655639,131.896655 L79.6317448,123.312559 C82.2526855,123.088645 84.8669853,122.645252 87.4004876,121.99568 L89.5344292,130.341453 C86.5415982,131.108523 83.4569015,131.631727 80.3655639,131.896655 Z M53.0792246,127.467155 C50.2369207,126.234521 47.4776279,124.754696 44.8777167,123.068692 L49.5506946,115.835838 C51.7543657,117.263564 54.0908546,118.518368 56.4981798,119.562559 L53.0792246,127.467155 Z M98.3236565,127.289798 L94.8427196,119.412914 C97.2378698,118.350987 99.5632906,117.079556 101.755893,115.634094 L106.485319,122.830368 C103.89869,124.535216 101.153785,126.036103 98.3236565,127.289798 Z M37.5140687,117.385498 C35.224066,115.297115 33.0912312,113.004771 31.1764392,110.574975 L37.9302316,105.238735 C39.5528241,107.299406 41.3613617,109.243686 43.3049309,111.016151 L37.5140687,117.385498 Z M113.804694,117.091749 L107.964025,110.766743 C109.892099,108.980976 111.686248,107.023394 113.296666,104.947204 L120.090303,110.233562 C118.191007,112.679985 116.076988,114.986739 113.804694,117.091749 Z M26.0363849,102.817807 C24.5410762,100.098697 23.2638103,97.2388101 22.2411122,94.3190645 L30.3562884,91.4647196 C31.2240323,93.9366377 32.3053917,96.3586742 33.5726962,98.6621029 L26.0363849,102.817807 Z M125.171697,102.433164 L117.605501,98.3328833 C118.856203,96.0194782 119.919854,93.5874654 120.766568,91.1044624 L128.906094,93.8934069 C127.904426,96.8275627 126.647083,99.7007519 125.171697,102.433164 Z M19.8957687,85.3037683 C19.3689242,82.2620896 19.0888997,79.142817 19.0656566,76.0324123 L27.6678319,75.9670118 C27.6877546,78.6074195 27.9257201,81.2533696 28.371767,83.8305937 L19.8957687,85.3037683 Z M131.176174,84.8592664 L122.689108,83.4526009 C123.116339,80.8731598 123.332168,78.2249927 123.332168,75.5834765 L123.326634,74.8219484 L131.928809,74.6900388 L131.934343,75.6045377 C131.934343,78.6960982 131.678669,81.8164792 131.176174,84.8592664 Z M28.2478036,68.0879111 L19.749669,66.753297 C20.2300272,63.6850147 20.9704872,60.6389021 21.9489127,57.6992038 L30.1083616,60.4249648 C29.2815699,62.9124017 28.6540051,65.4907343 28.2478036,68.0879111 Z M122.55961,66.9650174 C122.092534,64.3811423 121.402987,61.8183285 120.515321,59.3475188 L128.607254,56.4277733 C129.657623,59.3464103 130.468919,62.3725703 131.023434,65.4253338 L122.55961,66.9650174 Z M33.212981,53.1710488 L25.6135811,49.1328434 C27.0612967,46.4004316 28.751405,43.7633494 30.6329925,41.2936481 L37.4709028,46.5223648 C35.8715535,48.6173986 34.4393333,50.8543183 33.212981,53.1710488 Z M117.241359,52.1756306 C115.958559,49.8855037 114.474318,47.6862724 112.83291,45.635578 L119.542429,40.2439143 C121.480465,42.6626252 123.231448,45.2598021 124.743359,47.9622848 L117.241359,52.1756306 Z M42.7559501,40.662921 L36.8643676,34.3844705 C39.1222726,32.2606161 41.5694432,30.3096852 44.1372567,28.5882103 L48.9231299,35.7479052 C46.7449156,37.2066695 44.6696353,38.8605269 42.7559501,40.662921 Z M107.411724,39.8980674 C105.452659,38.1411211 103.338641,36.536037 101.128329,35.1282629 L105.742645,27.8577197 C108.351411,29.518228 110.842854,31.4104093 113.151673,33.4821649 L107.411724,39.8980674 Z M55.8086333,31.9125523 L52.2635011,24.0633807 C55.0869892,22.7841907 58.0355475,21.7333484 61.0294853,20.9407827 L63.2276222,29.2699277 C60.6963336,29.9394517 58.1993563,30.8295639 55.8086333,31.9125523 Z M94.1509595,31.4569656 C91.7347797,30.4316184 89.2167729,29.6013642 86.6666684,28.9916983 L88.6655785,20.6126716 C91.6783321,21.3342943 94.653454,22.3141937 97.5079329,23.5257662 L94.1509595,31.4569656 Z M70.9864036,27.8898657 L70.1850687,19.3124204 C73.2564836,19.0253232 76.4164438,18.9887433 79.4734701,19.2026806 L78.8746825,27.7967531 C76.282519,27.6160703 73.5951694,27.6459993 70.9864036,27.8898657 Z" id="Shape" fill="#4A555F"></path>
                    <rect id="Rectangle" fill="#4A555F" x="71.6868687" y="48.0454545" width="8.38888889" height="56.4343434"></rect>
                    <rect id="Rectangle" fill="#4A555F" x="47.2828283" y="72.4494949" width="56.4343434" height="8.38888889"></rect>
                </g>
            </g>
            <g id="Group-2" transform="translate(165.000000, 277.000000)">
                <rect id="Rectangle" fill="#E0E0E0" x="21" y="17" width="98" height="80"></rect>
                <path d="M139,114 L0,114 L0,0 L139,0 L139,114 Z M7.53898305,106.447205 L131.461017,106.447205 L131.461017,7.55279503 L7.53898305,7.55279503 L7.53898305,106.447205 Z" id="Shape" fill="#4A555F"></path>
                <polygon id="Rectangle" fill="#4A555F" transform="translate(69.516808, 57.062279) rotate(51.039542) translate(-69.516808, -57.062279) " points="65.6952013 -27.4048394 73.2365475 -27.400293 73.3384142 141.529397 65.797068 141.524851"></polygon>
                <polygon id="Rectangle" fill="#4A555F" transform="translate(69.524237, 56.853429) rotate(38.964061) translate(-69.524237, -56.853429) " points="-14.9363197 53.0321183 153.980248 53.1339798 153.984794 60.6747391 -14.9317735 60.5728776"></polygon>
            </g>
            <g id="Group-2-Copy-3" transform="translate(0.000000, 277.000000)">
                <rect id="Rectangle" fill="#E88C59" x="21" y="17" width="98" height="80"></rect>
                <path d="M139,114 L0,114 L0,0 L139,0 L139,114 Z M7.53898305,106.447205 L131.461017,106.447205 L131.461017,7.55279503 L7.53898305,7.55279503 L7.53898305,106.447205 Z" id="Shape" fill="#4A555F"></path>
                <polygon id="Rectangle" fill="#4A555F" transform="translate(69.516808, 57.062279) rotate(51.039542) translate(-69.516808, -57.062279) " points="65.6952013 -27.4048394 73.2365475 -27.400293 73.3384142 141.529397 65.797068 141.524851"></polygon>
                <polygon id="Rectangle" fill="#4A555F" transform="translate(69.524237, 56.853429) rotate(38.964061) translate(-69.524237, -56.853429) " points="-14.9363197 53.0321183 153.980248 53.1339798 153.984794 60.6747391 -14.9317735 60.5728776"></polygon>
            </g>
            <g id="Group-2-Copy" transform="translate(165.000000, 147.000000)">
                <rect id="Rectangle" fill="#FFD452" x="21" y="17" width="98" height="80"></rect>
                <path d="M139,114 L0,114 L0,0 L139,0 L139,114 Z M7.53898305,106.447205 L131.461017,106.447205 L131.461017,7.55279503 L7.53898305,7.55279503 L7.53898305,106.447205 Z" id="Shape" fill="#4A555F"></path>
                <polygon id="Rectangle" fill="#4A555F" transform="translate(69.516808, 57.062279) rotate(51.039542) translate(-69.516808, -57.062279) " points="65.6952013 -27.4048394 73.2365475 -27.400293 73.3384142 141.529397 65.797068 141.524851"></polygon>
                <polygon id="Rectangle" fill="#4A555F" transform="translate(69.524237, 56.853429) rotate(38.964061) translate(-69.524237, -56.853429) " points="-14.9363197 53.0321183 153.980248 53.1339798 153.984794 60.6747391 -14.9317735 60.5728776"></polygon>
            </g>
            <g id="Group-2-Copy-4" transform="translate(0.000000, 147.000000)">
                <rect id="Rectangle" fill="#E0E0E0" x="21" y="17" width="98" height="80"></rect>
                <path d="M139,114 L0,114 L0,0 L139,0 L139,114 Z M7.53898305,106.447205 L131.461017,106.447205 L131.461017,7.55279503 L7.53898305,7.55279503 L7.53898305,106.447205 Z" id="Shape" fill="#4A555F"></path>
                <polygon id="Rectangle" fill="#4A555F" transform="translate(69.516808, 57.062279) rotate(51.039542) translate(-69.516808, -57.062279) " points="65.6952013 -27.4048394 73.2365475 -27.400293 73.3384142 141.529397 65.797068 141.524851"></polygon>
                <polygon id="Rectangle" fill="#4A555F" transform="translate(69.524237, 56.853429) rotate(38.964061) translate(-69.524237, -56.853429) " points="-14.9363197 53.0321183 153.980248 53.1339798 153.984794 60.6747391 -14.9317735 60.5728776"></polygon>
            </g>
            <g id="Group-2-Copy-2" transform="translate(165.000000, 17.000000)">
                <rect id="Rectangle" fill="#E0E0E0" x="21" y="17" width="98" height="80"></rect>
                <path d="M139,114 L0,114 L0,0 L139,0 L139,114 Z M7.53898305,106.447205 L131.461017,106.447205 L131.461017,7.55279503 L7.53898305,7.55279503 L7.53898305,106.447205 Z" id="Shape" fill="#4A555F"></path>
                <polygon id="Rectangle" fill="#4A555F" transform="translate(69.516808, 57.062279) rotate(51.039542) translate(-69.516808, -57.062279) " points="65.6952013 -27.4048394 73.2365475 -27.400293 73.3384142 141.529397 65.797068 141.524851"></polygon>
                <polygon id="Rectangle" fill="#4A555F" transform="translate(69.524237, 56.853429) rotate(38.964061) translate(-69.524237, -56.853429) " points="-14.9363197 53.0321183 153.980248 53.1339798 153.984794 60.6747391 -14.9317735 60.5728776"></polygon>
            </g>
            <g id="Group-2-Copy-5" transform="translate(0.000000, 23.000000)">
                <rect id="Rectangle" fill="#666288" x="21" y="17" width="98" height="80"></rect>
                <path d="M139,114 L0,114 L0,0 L139,0 L139,114 Z M7.53898305,106.447205 L131.461017,106.447205 L131.461017,7.55279503 L7.53898305,7.55279503 L7.53898305,106.447205 Z" id="Shape" fill="#4A555F"></path>
                <polygon id="Rectangle" fill="#4A555F" transform="translate(69.516808, 57.062279) rotate(51.039542) translate(-69.516808, -57.062279) " points="65.6952013 -27.4048394 73.2365475 -27.400293 73.3384142 141.529397 65.797068 141.524851"></polygon>
                <polygon id="Rectangle" fill="#4A555F" transform="translate(69.524237, 56.853429) rotate(38.964061) translate(-69.524237, -56.853429) " points="-14.9363197 53.0321183 153.980248 53.1339798 153.984794 60.6747391 -14.9317735 60.5728776"></polygon>
            </g>
        </g>
    </g>
</svg>