<?xml version="1.0" encoding="UTF-8"?>
<svg width="682px" height="507px" viewBox="0 0 682 507" version="1.1" xmlns="http://www.w3.org/2000/svg" xmlns:xlink="http://www.w3.org/1999/xlink">
    <!-- Generator: Sketch 58 (84663) - https://sketch.com -->
    <title>Family</title>
    <desc>Created with Sketch.</desc>
    <g id="Page-1" stroke="none" stroke-width="1" fill="none" fill-rule="evenodd">
        <g id="Auth-options" transform="translate(-175.000000, -6609.000000)">
            <g id="Family" transform="translate(174.000000, 6609.000000)">
                <g id="DELETE-USER" fill-rule="nonzero">
                    <g id="Group">
                        <path d="M333.513125,285.395708 L333.513125,366.065236 C318.02625,368.027468 303.848125,374.132189 292.069375,383.28927 C271.78375,398.987124 258.69625,423.624034 258.69625,451.53133 C258.69625,473.551931 266.985,428.420601 280.726875,443.682403 L280.726875,492.738197 L69.145625,492.738197 L54.53125,491.648069 C33.59125,491.648069 16.5775,474.64206 16.5775,453.711588 L16.5775,285.395708 C16.5775,233.505579 58.89375,191.208584 110.8075,191.208584 L114.079375,191.208584 L149.851875,357.780258 L176.026875,475.950215 L236.4475,212.793133 L237.32,209.522747 L241.464375,191.208584 C292.2875,192.298712 333.513125,234.159657 333.513125,285.395708 Z" id="Path" fill="#E0E0E0"></path>
                        <polygon id="Path" fill="#F68F6F" points="190.205 242.880687 202.638125 359.524464 184.751875 436.923605 175.80875 475.950215 166.6475 437.141631 149.63375 357.780258 161.84875 242.880687 153.778125 219.987983 147.670625 202.545923 204.60125 202.545923 198.275625 219.987983"></polygon>
                        <path d="M176.026875,183.141631 C125.421875,183.141631 84.414375,142.15279 84.414375,91.5708155 C84.414375,40.9888412 125.421875,0 176.026875,0 C226.631875,0 267.639375,40.9888412 267.639375,91.5708155 C267.639375,142.15279 226.631875,183.141631 176.026875,183.141631 Z M176.026875,6.75879828 C129.348125,6.75879828 91.394375,44.9133047 91.394375,91.5708155 C91.394375,138.228326 129.348125,176.382833 176.245,176.382833 C223.141875,176.382833 261.095625,138.446352 261.095625,91.5708155 C261.095625,44.695279 222.92375,6.75879828 176.026875,6.75879828 Z" id="Shape" fill="#4A555F"></path>
                        <path d="M176.026875,168.31588 C133.710625,168.31588 99.246875,133.867811 99.246875,91.5708155 C99.246875,49.2738197 133.710625,14.8257511 176.026875,14.8257511 C218.56125,14.8257511 253.025,49.2738197 253.025,91.5708155 C253.025,133.867811 218.56125,168.31588 176.026875,168.31588 Z" id="Path" fill="#FFD552"></path>
                        <path d="M57.803125,506.47382 L54.53125,506.47382 C25.3025,506.47382 1.745,482.709013 1.745,453.711588 L1.745,285.395708 C1.745,225.438627 50.605,176.382833 110.8075,176.382833 L239.50125,176.382833 C299.485625,176.382833 348.56375,225.220601 348.56375,285.395708 L348.56375,365.193133 L341.801875,365.193133 L341.801875,285.395708 C341.801875,229.145064 295.995625,183.359657 239.719375,183.359657 L111.025625,183.359657 C54.749375,183.359657 8.943125,229.145064 8.943125,285.395708 L8.943125,453.711588 C8.943125,479.002575 29.665,499.715021 54.9675,499.715021 L58.239375,499.715021 L58.239375,506.47382 L57.803125,506.47382 Z" id="Path" fill="#4A555F"></path>
                        <polygon id="Rectangle" fill="#4A555F" points="54.313125 344.698712 61.075 344.698712 61.075 492.738197 54.313125 492.738197"></polygon>
                        <rect id="Rectangle" fill="#4A555F" x="288.7975" y="344.698712" width="6.761875" height="38.5905579"></rect>
                        <path d="M192.8225,246.369099 L159.449375,246.369099 L142.871875,199.275536 L209.4,199.275536 L192.8225,246.369099 Z M164.248125,239.392275 L188.02375,239.392275 L199.8025,206.034335 L152.469375,206.034335 L164.248125,239.392275 Z" id="Shape" fill="#4A555F"></path>
                        <polygon id="Path" fill="#4A555F" points="199.148125 359.742489 187.369375 246.369099 164.9025 246.369099 153.12375 357.998283 146.361875 357.344206 158.795 239.392275 193.476875 239.392275 205.91 359.088412"></polygon>
                        <path d="M125.858125,262.939056 L107.3175,176.382833 L141.78125,176.382833 L157.48625,220.64206 L125.858125,262.939056 Z M115.60625,183.141631 L129.348125,246.80515 L149.851875,219.551931 L136.9825,183.141631 L115.60625,183.141631 Z" id="Shape" fill="#4A555F"></path>
                        <path d="M227.7225,265.337339 L194.785625,220.64206 L210.490625,176.382833 L248.22625,176.382833 L227.7225,265.337339 Z M202.42,219.551931 L224.2325,249.421459 L239.50125,183.359657 L215.289375,183.359657 L202.42,219.551931 Z" id="Shape" fill="#4A555F"></path>
                        <path d="M179.080625,478.130472 L172.31875,478.130472 L146.14375,358.434335 L108.19,180.525322 L111.461875,176.382833 L243.86375,176.382833 L247.135625,180.525322 L205.91,360.178541 L179.080625,478.130472 Z M115.60625,183.141631 L117.133125,190.336481 L152.905625,356.908155 L175.80875,461.560515 L199.148125,358.652361 L239.50125,183.141631 L115.60625,183.141631 Z" id="Shape" fill="#4A555F"></path>
                    </g>
                </g>
                <g id="NATURALIST" transform="translate(188.000000, 65.000000)">
                    <circle id="Oval" fill="#FFFFFF" cx="172.5" cy="89.5" r="87.5"></circle>
                    <polygon id="Path-2" fill="#FFFFFF" points="3 424 3 271.37303 9.60956433 238.66725 32.1712631 202.690893 58.3300327 185.029772 90.875905 175 127.028539 175 244.029348 175.436077 273.753186 180.88704 306.047884 198.548161 325.033847 216.863398 338.914359 247.388792 343 284.524928 285.538607 370.58056 285.538607 424"></polygon>
                    <path d="M481.953488,366.492863 C482.974775,386.446683 467.042705,403.109152 447.434003,403.109152 L357.356531,403.109152 C332.641397,403.109152 310.173094,388.503778 299.755971,365.875735 L285.662217,335.019312 C283.415387,329.876574 275.653609,331.52225 275.653609,337.282116 L275.653609,428 L14,428 L14,273.717884 C14,223.730479 54.2386893,183 104.077472,183 L152.282196,183 L173.116441,210.97649 L193.950687,183 L242.563925,183 C292.402708,183 331.620111,224.141898 332.232883,274.335013 C332.641397,306.837112 358.99059,333.167926 391.467502,333.167926 L446.616974,333.167926 C465.000132,333.167926 480.932202,347.56759 481.953488,366.492863 Z" id="Path" fill="#71CDE1" fill-rule="nonzero"></path>
                    <path d="M172.5,177 C124.252336,177 85,137.299065 85,88.5 C85,39.7009346 124.252336,0 172.5,0 C220.747664,0 260,39.7009346 260,88.5 C260,137.299065 220.747664,177 172.5,177 Z M172.5,6.61682243 C127.727804,6.61682243 91.3376168,43.4228972 91.3376168,88.5 C91.3376168,133.577103 127.727804,170.383178 172.295561,170.383178 C216.863318,170.383178 253.254362,133.577103 253.254362,88.5 C253.457944,43.4228972 217.067757,6.61682243 172.5,6.61682243 Z" id="Shape" fill="#4A555F" fill-rule="nonzero"></path>
                    <path d="M172,162 C132.289694,162 100,129.261838 100,89 C100,48.7381616 132.289694,16 172,16 C211.710306,16 244,48.7381616 244,89 C244,129.261838 211.710306,162 172,162 L172,162 Z" id="Path" fill="#FFD552" fill-rule="nonzero"></path>
                    <rect id="Rectangle" fill="#4A555F" fill-rule="nonzero" x="50" y="332" width="9" height="96"></rect>
                    <path d="M141.8,249 L114,168 L146.2,168 L177,209.826196 L141.8,249 Z M123,174.324937 L144.4,236.554156 L169,209.214106 L143.2,174.324937 L123,174.324937 Z" id="Shape" fill="#4A555F" fill-rule="nonzero"></path>
                    <path d="M203.312102,249 L168,209.826196 L198.697452,168 L231,168 L203.312102,249 Z M176.025478,209.418136 L200.703822,236.554156 L222.171975,174.324937 L201.907643,174.324937 L176.025478,209.418136 Z" id="Shape" fill="#4A555F" fill-rule="nonzero"></path>
                    <path d="M6.52657602,428 L0,428 L0,274.306593 C0,216.722796 46.5018541,170 103.81335,170 L241.483313,170 C298.794808,170 345.296663,216.722796 345.296663,274.306593 C345.296663,299.307387 365.488257,319.594917 390.370828,319.594917 L446.458591,319.594917 C473.176761,319.594917 495,341.521843 495,368.366958 C495,395.212073 473.176761,417.138999 446.458591,417.138999 L356.514215,417.138999 C326.532756,417.138999 298.998764,399.310564 286.353523,372.0556 L268.201483,332.300238 L274.116193,329.636219 L292.268232,369.391581 C303.68974,394.597299 328.980222,410.786338 356.514215,410.786338 L446.458591,410.786338 C469.709518,410.786338 488.473424,391.728356 488.473424,368.571882 C488.473424,345.210485 469.505562,326.357427 446.458591,326.357427 L390.370828,326.357427 C362.021014,326.357427 338.770087,303.200953 338.770087,274.511517 C338.770087,220.616362 295.123609,176.76251 241.483313,176.76251 L103.81335,176.76251 C50.1730532,176.76251 6.52657602,220.616362 6.52657602,274.511517 L6.52657602,428 Z" id="Path" fill="#4A555F" fill-rule="nonzero"></path>
                    <rect id="Rectangle" fill="#4A555F" fill-rule="nonzero" x="281" y="365" width="9" height="63"></rect>
                    <rect id="Rectangle" fill="#4A555F" fill-rule="nonzero" x="168" y="212" width="9" height="216"></rect>
                    <path d="M149.5,291 C144.244681,291 140,286.755319 140,281.5 C140,276.244681 144.244681,272 149.5,272 C154.755319,272 159,276.244681 159,281.5 C159,286.755319 154.755319,291 149.5,291 Z M149.5,278.265957 C147.680851,278.265957 146.265957,279.680851 146.265957,281.5 C146.265957,283.319149 147.680851,284.734043 149.5,284.734043 C151.319149,284.734043 152.734043,283.319149 152.734043,281.5 C152.734043,279.680851 151.319149,278.265957 149.5,278.265957 Z" id="Shape" fill="#4A555F" fill-rule="nonzero"></path>
                    <path d="M149.5,334 C144.244681,334 140,329.755319 140,324.5 C140,319.244681 144.244681,315 149.5,315 C154.755319,315 159,319.244681 159,324.5 C159,329.755319 154.755319,334 149.5,334 Z M149.5,321.265957 C147.680851,321.265957 146.265957,322.680851 146.265957,324.5 C146.265957,326.319149 147.680851,327.734043 149.5,327.734043 C151.319149,327.734043 152.734043,326.319149 152.734043,324.5 C152.734043,322.680851 151.319149,321.265957 149.5,321.265957 Z" id="Shape" fill="#4A555F" fill-rule="nonzero"></path>
                    <path d="M149.5,380 C144.244681,380 140,375.755319 140,370.5 C140,365.244681 144.244681,361 149.5,361 C154.755319,361 159,365.244681 159,370.5 C159,375.755319 154.755319,380 149.5,380 Z M149.5,367.265957 C147.680851,367.265957 146.265957,368.680851 146.265957,370.5 C146.265957,372.319149 147.680851,373.734043 149.5,373.734043 C151.319149,373.734043 152.734043,372.319149 152.734043,370.5 C152.734043,368.680851 151.319149,367.265957 149.5,367.265957 Z" id="Shape" fill="#4A555F" fill-rule="nonzero"></path>
                    <path d="M149.5,424 C144.244681,424 140,419.755319 140,414.5 C140,409.244681 144.244681,405 149.5,405 C154.755319,405 159,409.244681 159,414.5 C159,419.755319 154.755319,424 149.5,424 Z M149.5,411.265957 C147.680851,411.265957 146.265957,412.680851 146.265957,414.5 C146.265957,416.319149 147.680851,417.734043 149.5,417.734043 C151.319149,417.734043 152.734043,416.319149 152.734043,414.5 C152.734043,412.680851 151.319149,411.265957 149.5,411.265957 Z" id="Shape" fill="#4A555F" fill-rule="nonzero"></path>
                </g>
                <g id="kid" transform="translate(395.000000, 133.000000)">
                    <polygon id="Path-3" fill="#FFFFFF" points="2 357.889867 2 205.762055 6.82489793 182.607422 20.8977262 162.56053 45.0485883 145.344828 65.1741215 135 92.7680331 135 186.860652 135 215.012588 143.090736 239.964669 166.234437 253.537677 189.190379 257 215.172414 257 360"></polygon>
                    <path d="M197.073984,146 L178.428694,169.043992 L157.435478,194.757715 C146.800757,207.825345 141,224.265266 141,241.267236 L141,360 L154.258873,360 L169.036992,360 L245,360 L245,212.883782 C245.137398,182.392646 225.249089,155.273802 197.073984,146 Z" id="Path" fill="#F58E6F" fill-rule="nonzero"></path>
                    <path d="M131.5,135 L131.5,135 C94.2156057,135 64,104.645791 64,67.5 C64,30.3542094 94.3542094,0 131.5,0 C168.784394,0 199,30.3542094 199,67.5 C199,104.645791 168.784394,135 131.5,135 Z M131.5,4.43531828 C96.7104723,4.43531828 68.2967146,32.7104723 68.2967146,67.6386037 C68.2967146,102.566735 96.5718686,130.841889 131.5,130.841889 C166.289528,130.841889 194.703285,102.566735 194.703285,67.6386037 C194.703285,32.7104723 166.289528,4.43531828 131.5,4.43531828 Z" id="Shape" stroke="#4A555F" fill="#4A555F" fill-rule="nonzero"></path>
                    <path d="M131.5,124 C100.889972,124 76,98.6615599 76,67.5 C76,36.3384401 100.889972,11 131.5,11 C162.110028,11 187,36.3384401 187,67.5 C187,98.6615599 162.110028,124 131.5,124 L131.5,124 Z" id="Path" fill="#FFD552" fill-rule="nonzero"></path>
                    <path d="M259,360 L254.500543,360 L254.500543,214.372064 C254.500543,172.002472 219.910966,137.489493 177.44734,137.489493 L81.5526602,137.489493 C39.0890337,137.489493 4.49945711,172.002472 4.49945711,214.372064 L4.49945711,360 L0,360 L0,214.372064 C0,169.477132 36.558089,133 81.5526602,133 L177.44734,133 C222.441911,133 259,169.477132 259,214.372064 L259,360 Z" id="Path" fill="#4A555F" fill-rule="nonzero"></path>
                    <polygon id="Path" fill="#4A555F" fill-rule="nonzero" points="131.071575 177 96 135.924051 99.4355828 133 131.071575 170.037975 162.421268 133 166 135.78481"></polygon>
                    <rect id="Rectangle" fill="#4A555F" fill-rule="nonzero" x="222" y="258" width="4" height="102"></rect>
                    <path d="M136.344828,360 L132,360 L132,237.118644 C132,219.463277 137.974138,202.231638 148.836207,188.672316 L191.741379,135 L195,137.824859 L152.094828,191.497175 C141.911638,204.20904 136.209052,220.451977 136.209052,237.118644 L136.209052,360 L136.344828,360 Z" id="Path" fill="#4A555F" fill-rule="nonzero"></path>
                    <circle id="Oval" fill="#4A555F" fill-rule="nonzero" cx="121.5" cy="323.5" r="5.5"></circle>
                    <circle id="Oval" fill="#4A555F" fill-rule="nonzero" cx="121.5" cy="275.5" r="5.5"></circle>
                    <circle id="Oval" fill="#4A555F" fill-rule="nonzero" cx="121.5" cy="227.5" r="5.5"></circle>
                    <path d="M112.226415,363 L108,363 L108,239.709834 C108,214.967452 116.188679,190.787396 130.849057,171.527701 L139.830189,160 L143,162.811634 L134.018868,174.339335 C119.886792,192.75554 112.09434,215.951524 112.09434,239.709834 L112.09434,363 L112.226415,363 Z" id="Path" fill="#4A555F" fill-rule="nonzero"></path>
                    <polygon id="Rectangle" fill="#4A555F" fill-rule="nonzero" transform="translate(90.618910, 168.341669) rotate(50.779127) translate(-90.618910, -168.341669) " points="49.5570535 166.091843 131.680783 166.091558 131.680767 170.591494 49.5570378 170.59178"></polygon>
                    <path d="M102.444767,193.026815 L100.165698,190.36756 L62.5610465,146 C31.9360465,154.117724 10,182.109876 10,213.461086 L10,360 L102.302326,360 L102.302326,236.41465 C102.302326,208.982341 108,199.884892 108,199.884892 L102.444767,193.026815 Z" id="Path" fill="#F58E6F" fill-rule="nonzero"></path>
                    <rect id="Rectangle" fill="#4A555F" fill-rule="nonzero" x="31" y="258" width="4" height="102"></rect>
                </g>
            </g>
        </g>
    </g>
</svg>