<?xml version="1.0" encoding="UTF-8"?>
<svg width="626px" height="351px" viewBox="0 0 626 351" version="1.1" xmlns="http://www.w3.org/2000/svg" xmlns:xlink="http://www.w3.org/1999/xlink">
    <!-- Generator: Sketch 58 (84663) - https://sketch.com -->
    <title>industry standards</title>
    <desc>Created with Sketch.</desc>
    <g id="Page-1" stroke="none" stroke-width="1" fill="none" fill-rule="evenodd">
        <g id="Auth-options" transform="translate(-161.000000, -1054.000000)" fill-rule="nonzero">
            <g id="industry-standards" transform="translate(161.000000, 1054.000000)">
                <g id="oauth-seeklogo.com" transform="translate(55.000000, 0.000000)">
                    <path d="M74.7114458,0.233643122 C110.373075,-2.23353678 134.018726,15.1784404 147.538752,36.3929138 C154.317864,47.0298088 160.969195,63.185113 161,79.7840912 C161.032682,97.8193051 155.17682,113.437531 147.538752,124.897088 C139.688432,136.675509 129.534827,146.403853 116.820226,152.791627 C95.5666318,163.469588 65.8638971,163.761613 46.4086514,153.480354 C24.741854,142.030729 8.08299224,125.688346 1.88387042,97.3471802 C-0.596961919,86.0054538 -0.882115062,71.350802 2.57415624,58.7773643 C3.38522869,55.8278604 4.85914763,52.7237551 6.0258544,49.8236378 C11.6326108,35.8869702 21.1758256,23.7679412 32.947809,15.3859176 C37.678123,12.0179701 43.4166955,8.66827418 48.4797779,6.4321911 C54.7795102,3.65017199 65.386131,0.878620627 74.7114458,0.233643122 L74.7114458,0.233643122 Z" id="Path" fill="#FFFFFF"></path>
                    <path d="M142,81.0006723 C142,114.690709 114.689008,142 80.9997318,142 C47.3104556,142 20,114.690709 20,81.0006723 C20,47.3114428 47.3104556,20 80.9997318,20 C114.688739,20 142,47.3114428 142,81.0006723 L142,81.0006723 Z" id="Path" fill="#000000"></path>
                    <path d="M74.7113827,0.233643122 C110.372981,-2.23353678 134.018613,15.1784404 147.538627,36.3929138 C154.317733,47.0298088 160.969059,63.185113 160.999864,79.7840912 C161.032546,97.8193051 155.176689,113.437531 147.538627,124.897088 C139.688313,136.675509 129.534718,146.403853 116.820127,152.791627 C95.566551,163.469588 65.8638414,163.761613 46.4086121,153.480354 C24.7418331,142.030729 8.0829854,125.688346 1.88386883,97.3471802 C-0.596961414,86.0054538 -0.882114316,71.350802 2.57415406,58.7773643 C3.38522583,55.8278604 4.85914352,52.7237551 6.0258493,49.8236378 C11.632601,35.8869702 21.1758077,23.7679412 32.9477811,15.3859176 C37.6780912,12.0179701 43.4166588,8.66827418 48.4797369,6.4321911 C54.7794639,3.65017199 65.3860757,0.878620627 74.7113827,0.233643122 L74.7113827,0.233643122 Z M62.6308531,6.08809572 C49.3849628,9.51455553 39.6728164,15.6532491 31.2220681,22.2737299 C19.036085,31.8203641 11.2675515,45.1426524 6.71613452,61.1879107 C1.65251836,79.0389984 4.9051446,100.64078 11.8935428,114.221542 C19.1404616,128.305296 28.8709017,139.237705 42.6120434,146.937174 C55.9806032,154.427825 74.7834781,159.237644 94.3853188,155.546537 C111.801167,152.267163 125.028226,144.697333 135.803777,133.50645 C150.220678,118.53347 161.807839,90.9551126 154.097143,61.8766382 C152.035972,54.1049679 149.341277,46.0050381 145.122897,39.147824 C142.843826,35.4432965 139.499467,31.7988917 136.14892,28.1279148 C123.503734,14.2725732 103.066073,2.33310799 76.7822383,4.02164467 C71.780226,4.34292561 67.3842982,4.85826344 62.6308531,6.08809572 L62.6308531,6.08809572 Z" id="Shape" fill="#000000"></path>
                    <g id="Group" transform="translate(5.000000, 6.000000)" fill="#FFFFFF">
                        <g transform="translate(0.000000, 1.884197)" id="Path">
                            <polygon points="80.4681278 147.639462 150.837618 77.0811557 150.457984 76.700486 80.0884943 147.258793"></polygon>
                            <polygon points="74.3164551 142.051474 144.992777 71.1852361 144.613143 70.804567 73.9368209 141.670805"></polygon>
                            <polygon points="68.1645144 136.464293 139.148205 65.2895852 138.76857 64.9089174 67.7848796 136.083625"></polygon>
                            <polygon points="62.0125727 130.876305 133.303364 59.3939355 132.92373 59.0132668 61.6329385 130.495637"></polygon>
                            <polygon points="55.8609001 125.288586 127.458792 53.4980157 127.079157 53.1173477 55.4812652 124.907919"></polygon>
                            <polygon points="49.7089609 119.702212 121.613684 47.6023634 121.234045 47.2216997 49.3293217 119.321548"></polygon>
                            <polygon points="43.5570175 114.113149 115.76911 41.7067153 115.389475 41.3260473 43.1773825 113.732481"></polygon>
                            <polygon points="37.4050769 108.52543 109.924001 35.8107952 109.544365 35.4301286 37.0254405 108.144763"></polygon>
                            <polygon points="31.2531373 102.937709 104.07782 29.9151432 103.69818 29.5344801 30.8734974 102.557046"></polygon>
                            <polygon points="25.1014623 97.3497232 98.2345877 24.019495 97.8549517 23.6388278 24.7218266 96.969056"></polygon>
                            <polygon points="18.9495213 91.7622734 92.389747 18.1238445 92.010111 17.743178 18.5698849 91.3816069"></polygon>
                            <polygon points="12.79758 86.1745549 86.5451744 12.2279251 86.1655383 11.8472586 12.4179436 85.7938884"></polygon>
                            <polygon points="6.64563829 80.5865671 80.7003337 6.33227518 80.3206977 5.95160799 6.26600259 80.2058999"></polygon>
                            <polygon points="0.49369697 74.9988486 74.8554924 0.436624973 74.475857 0.0559577742 0.114061252 74.6181814"></polygon>
                        </g>
                        <g id="Path">
                            <polygon points="0.090164409 77.5963425 71.865766 149.569411 72.2454127 149.188754 0.469810702 77.215686"></polygon>
                            <polygon points="5.91084495 71.6764663 77.826038 143.789773 78.2056847 143.409117 6.29049194 71.2958104"></polygon>
                            <polygon points="11.7315262 65.7565913 83.78631 138.009598 84.1659567 137.628941 12.1111724 65.3759348"></polygon>
                            <polygon points="17.5522071 59.8367155 89.7468506 132.22996 90.1264967 131.849303 17.9318534 59.4560589"></polygon>
                            <polygon points="23.3726199 53.9168403 95.7068546 126.449785 96.0865001 126.069127 23.7522655 53.5361829"></polygon>
                            <polygon points="29.1933015 47.9969654 101.667664 120.669879 102.047308 120.28922 29.5729456 47.6163066"></polygon>
                            <polygon points="35.0139824 42.0770898 107.627936 114.889972 108.00758 114.509313 35.3936265 41.696431"></polygon>
                            <polygon points="40.8343955 36.157215 113.588209 109.109796 113.967851 108.729136 41.2140382 35.7765547"></polygon>
                            <polygon points="46.6550768 30.2373397 119.54875 103.32989 119.928392 102.949229 47.0347188 29.8566788"></polygon>
                            <polygon points="52.475758 24.3174644 125.508754 97.5494451 125.888395 97.1687836 52.8553993 23.9368028"></polygon>
                            <polygon points="58.2964386 18.3975885 131.469294 91.7700767 131.848936 91.3894158 58.6760805 18.0169275"></polygon>
                            <polygon points="64.1168518 12.4777136 137.429566 85.9899014 137.809207 85.6092393 64.4964922 12.0970513"></polygon>
                            <polygon points="69.9375325 6.55810715 143.389838 80.2102636 143.769479 79.8296015 70.3171729 6.17744481"></polygon>
                            <polygon points="75.7584824 0.638231907 149.350379 74.4300883 149.730019 74.049425 76.1381222 0.25756885"></polygon>
                        </g>
                    </g>
                    <path d="M131.825696,28.3088239 C125.491288,21.9543142 117.703562,16.2281725 108.401034,12.7580122 C98.7586013,9.1609933 87.8510591,6.12904706 74.9865166,7.22875714 C54.493998,8.98107497 40.1057938,18.2045802 29.1705974,28.9999471 C21.511207,36.5610936 15.7497501,45.8266157 11.9466354,56.6456836 C6.36264823,72.5315517 6.70147848,91.2821073 12.9800408,107.444856 C18.3355458,121.231498 27.1011016,132.351417 39.5049205,140.965409 C51.165568,149.063617 67.9014205,155.344327 86.6984455,153.751727 C109.592847,151.811949 126.344271,140.028918 137.336924,126.451552 C140.149591,122.97816 142.946149,119.052009 144.570762,114.356627 C146.162619,110.973463 146.941768,108.673579 147.671246,107.445125 C150.724478,100.581835 152.34211,93.3403936 152.838274,85.3286438 C154.364621,60.6863034 144.913351,41.4382796 131.825696,28.3088239 L131.825696,28.3088239 Z M125.078356,103.386459 C125.034592,103.480189 124.995394,103.567455 124.949751,103.664148 C123.814052,106.924493 121.857589,109.65074 119.891192,112.062938 C112.203343,121.490871 100.489535,129.672843 84.4791339,131.020076 C71.3337545,132.125442 59.6301494,127.764578 51.4759386,122.141324 C44.3900367,117.254711 39.0036557,111.205902 35.2265843,103.936449 C34.9962226,103.499043 32.802686,98.4292798 32.7962424,98.2062673 C29.8039577,88.8954963 29.544331,73.9240332 32.6155508,64.9397008 C34.6651785,58.9434124 38.0811353,52.4555808 42.6054053,47.3155202 C48.8520177,40.2181751 55.1031945,35.6703904 64.9966623,32.4558325 C69.5139519,30.9879364 73.5578989,29.4939144 79.1201384,29.3457781 C92.6840884,28.9835175 106.496389,35.0929281 113.91253,41.7862652 C120.727797,47.9371541 128.495118,59.918688 130.447822,71.1598097 C132.457446,82.729794 130.312773,94.0261304 125.078356,103.386459 L125.078356,103.386459 Z" id="Shape" fill="#000000"></path>
                    <g id="Group" transform="translate(53.000000, 48.000000)">
                        <path d="M49.1619432,65.9985986 C45.8157635,65.9985986 42.8792487,63.8938719 41.8544139,60.7610936 L38.1273507,49.481917 L19.4826203,49.481917 L16.0197009,60.658235 C14.9744232,63.8519267 12.0155826,65.9897821 8.65218783,65.9897821 C7.84469335,65.9897821 7.04257857,65.8628785 6.26816927,65.6133461 C2.24791188,64.4145764 -0.0344301449,60.1166913 1.19725449,56.0381488 L16.9345206,6.52630926 C17.9563965,3.37669981 20.9647304,1.17980112 24.2509264,1.17980112 L32.6190655,1.17980112 C35.9238214,1.17980112 38.9318864,3.3392967 39.9338574,6.43146569 L56.4842666,55.9248708 C57.8076753,59.9713535 55.6162504,64.315191 51.6019107,65.6130793 C50.8081345,65.8690231 49.9874597,65.9985986 49.1619432,65.9985986 L49.1619432,65.9985986 L49.1619432,65.9985986 Z" id="Path" fill="#FFFFFF"></path>
                        <path d="M49.1619432,64.9299379 C46.1643335,64.9299379 43.5383598,63.047819 42.6218753,60.2462533 L38.8940692,48.964817 L38.7118129,48.4132566 L38.1273507,48.4132566 L19.4826203,48.4132566 L18.8866541,48.4132566 L18.7113601,48.9790049 L15.2484407,60.1553229 C14.3154523,63.0056097 11.6672816,64.9211215 8.65218783,64.9211215 C7.93008165,64.9211215 7.21196032,64.8076742 6.51718437,64.5838015 C2.90740703,63.5072261 0.866351712,59.6564523 1.97018981,56.0012548 L17.7040407,6.50043562 C18.6172568,3.68578175 21.3158754,1.71413134 24.2509264,1.71413134 L32.6190655,1.71413134 C35.5747126,1.71413134 38.2714978,3.65025308 39.1657043,6.40985143 L55.7184452,55.910339 C56.9029997,59.5323144 54.9414943,63.4232933 51.3521337,64.5837803 C50.6394543,64.8135752 49.9028584,64.9299379 49.1619432,64.9299379 L49.1619432,64.9299379 Z M49.1619432,66.5329286 C50.0725017,66.5329286 50.9772379,66.3900044 51.8510769,66.108245 C56.2929495,64.6721301 58.7117111,59.8741058 57.2517463,55.4100862 L40.6996789,5.91166723 C39.5923194,2.49414735 36.2730771,0.111140685 32.6190655,0.111140685 L24.2509264,0.111140685 C20.6121698,0.111140685 17.2950963,2.53464338 16.1664588,6.01331167 L0.427734412,55.5296922 C-0.933650959,60.037431 1.58330851,64.7860733 6.03614022,66.1138292 C6.87433482,66.3841191 7.76048813,66.5241121 8.65218783,66.5241121 C12.3671665,66.5241121 15.6344124,64.1608024 16.7871261,60.6388558 L20.2538804,49.450499 L19.4826203,50.0162472 L38.1273507,50.0162472 L37.3606323,49.4646869 L41.0876955,60.7438634 C42.220152,64.2056373 45.4672401,66.5329286 49.1619432,66.5329286 L49.1619432,66.5329286 Z" id="Shape" fill="#000000"></path>
                    </g>
                    <g id="Group" transform="translate(39.000000, 12.000000)" fill="#FFFFFF">
                        <path d="M1.3375809,21.7036581 L1.31805612,21.6765812 C-0.633351644,18.941812 -0.0607140298,15.1160342 2.81317254,12.9712137 C5.6870591,10.8266667 9.37884655,11.4286496 11.3302543,14.1631453 L11.3497791,14.1902222 C13.3011869,16.9249915 12.7285493,20.7510428 9.85466267,22.8955897 C6.98077612,25.0401367 3.28898866,24.4384274 1.3375809,21.7036581 L1.3375809,21.7036581 Z M8.73479642,16.1835213 L8.71527162,16.1564444 C7.73475341,14.782359 5.90905314,14.3097436 4.48561672,15.3720342 C3.07528597,16.4244787 2.96562627,18.2993504 3.94614448,19.6737094 L3.96566926,19.7007863 C4.94645492,21.0748718 6.77188774,21.5474872 8.18221853,20.4950428 C9.60592237,19.4327521 9.71558211,17.5578803 8.73479642,16.1835213 L8.73479642,16.1835213 Z" id="Shape"></path>
                        <path d="M20.1517086,3.77900854 L23.084437,2.81682051 L31.3059725,12.5902222 L28.0437302,13.6604444 L26.6149445,11.9182222 L22.3802078,13.3076239 L22.2250794,15.5697778 L19.0256908,16.6194872 L20.1517086,3.77900854 L20.1517086,3.77900854 Z M24.9767355,9.78461538 L22.7519809,6.99432481 L22.5142066,10.592547 L24.9767355,9.78461538 L24.9767355,9.78461538 Z" id="Shape"></path>
                        <path d="M36.5874853,6.71917949 L36.6132346,0.0995555558 L39.858092,0.112683761 L39.832683,6.66502564 C39.8259964,8.36622224 40.6628872,9.17798288 41.9477779,9.18345301 C43.2326687,9.18864955 44.075711,8.4173675 44.0818627,6.76676923 L44.1078065,0.130461538 L47.3526639,0.143589744 L47.3272549,6.67897436 C47.3125445,10.4856069 45.1814018,12.1446838 41.9033791,12.1313626 C38.6256239,12.1176069 36.5733827,10.4079316 36.5874853,6.71917949 L36.5874853,6.71917949 Z" id="Path"></path>
                        <polygon id="Path" points="59.0715415 5.56252992 55.763563 4.53005128 56.5809289 1.79145299 66.2531821 4.81011966 65.4358163 7.54871795 62.1278376 6.51651282 59.5797206 15.0542222 56.523692 14.1005128"></polygon>
                        <polygon id="Path" points="74.892762 8.63152135 77.5529455 10.4418462 75.1623644 14.1155556 78.5767926 16.4392479 80.967642 12.7652649 83.6278255 14.5755897 77.2400141 24.3913846 74.579563 22.5810598 77.0070545 18.8510085 73.592358 16.5273162 71.1651341 20.2573675 68.5049507 18.4470428"></polygon>
                    </g>
                    <g id="Group" transform="translate(41.000000, 123.000000)" fill="#FFFFFF">
                        <path d="M81.5161678,2.40346537 L81.5364042,2.42971057 C83.5797269,5.05774829 83.1521041,8.86249108 80.3728235,11.0936039 C77.5935423,13.3247167 73.8983074,12.8723252 71.8549847,10.2442875 L71.8347483,10.2180423 C69.7914256,7.589734 70.2193149,3.78526179 72.9983296,1.55414894 C75.7776102,-0.676693331 79.4728451,-0.224572358 81.5161678,2.40346537 L81.5161678,2.40346537 Z M74.3618761,8.14683575 L74.3821119,8.17308098 C75.4088325,9.49372878 77.2426039,9.89038307 78.6194641,8.78510829 C79.9832764,7.69011512 80.0229504,5.83238764 78.9959633,4.51173984 L78.9757275,4.48549463 C77.9492734,3.16484683 76.1152355,2.76819252 74.7514226,3.86318569 C73.374563,4.96846049 73.3351555,6.82618795 74.3618761,8.14683575 L74.3618761,8.14683575 Z" id="Shape"></path>
                        <path d="M63.5594779,20.8830647 L60.6838087,21.9645294 L52.0882206,12.6715629 L55.28687,11.4683421 L56.7827505,13.1269307 L60.9348973,11.5652059 L60.9921444,9.32272913 L64.1292866,8.14277721 L63.5594779,20.8830647 L63.5594779,20.8830647 Z M58.5033592,15.1626927 L60.8355802,17.8210341 L60.9178562,14.2543922 L58.5033592,15.1626927 L58.5033592,15.1626927 Z" id="Shape"></path>
                        <path d="M47.0992008,18.6652098 L47.3833063,25.2073001 L44.1561664,25.3520546 L43.8747236,18.8765242 C43.8017668,17.1952078 42.9316106,16.4338263 41.6538017,16.491187 C40.3759928,16.5485477 39.5737343,17.3518673 39.644561,18.9831284 L39.9294653,25.5417236 L36.7023254,25.686478 L36.4216814,19.2277229 C36.2581943,15.4657301 38.2999194,13.7227239 41.5598099,13.5766166 C44.8199667,13.4302387 46.9407728,15.0195616 47.0992008,18.6652098 L47.0992008,18.6652098 Z" id="Path"></path>
                        <polygon id="Path" points="24.6751054 20.8043291 27.9999647 21.7164176 27.2733257 24.4513301 17.5517 21.7848716 18.2783391 19.0496884 21.6031984 19.9617769 23.8683204 11.434521 26.9399611 12.2770732"></polygon>
                        <polygon id="Path" points="8.95983958 18.4279206 6.23088281 16.7660852 8.43955651 13.0211382 4.93736421 10.8879714 2.72869053 14.6329184 0 12.9710829 5.90151218 2.96570797 8.63020271 4.62781399 6.38771326 8.42985108 9.89017185 10.5630179 12.1326612 6.76098083 14.8613518 8.42308683"></polygon>
                    </g>
                </g>
                <g id="externaljwt" transform="translate(350.000000, 16.000000)" fill="#000000">
                    <path d="M24.5125424,0 L24.5125424,61.4442021 C24.4696998,74.9942637 13.5176129,85.9656769 0,86 L0,73.7142857 C6.71990222,73.7576088 12.2047837,68.3364959 12.2562712,61.6005089 L12.2562712,0 L24.5125424,0 Z M248.337627,12.2857143 L276,12.2857143 L276,0 L208.574915,0 L208.574915,12.2857143 L236.065763,12.2857143 L236.065763,86 L248.337627,86 L248.337627,12.2857143 Z M171.618983,0 L171.618983,61.4442021 C171.618983,68.2294147 166.131664,73.7299164 159.362712,73.7299164 C152.59376,73.7299164 147.106441,68.2294147 147.106441,61.4442021 L147.106441,24.5714286 C146.770984,11.2380868 135.891719,0.604249445 122.586102,0.604249445 C109.280484,0.604249445 98.4012192,11.2380868 98.0657627,24.5714286 L98.0657627,61.4442021 C98.0657627,68.2294147 92.5784432,73.7299164 85.8094915,73.7299164 C79.0405399,73.7299164 73.5532203,68.2294147 73.5532203,61.4442021 L73.5532203,0 L61.2969492,0 L61.2969492,61.4442021 C61.6324056,74.7775438 72.5116708,85.4113812 85.8172881,85.4113812 C99.1229055,85.4113812 110.002171,74.7775438 110.337627,61.4442021 L110.337627,24.5714286 C110.337627,17.7862159 115.824947,12.2857143 122.593898,12.2857143 C129.36285,12.2857143 134.850169,17.7862159 134.850169,24.5714286 L134.850169,24.5714286 L134.850169,61.4442021 C135.185626,74.7775438 146.064891,85.4113812 159.370508,85.4113812 C172.676126,85.4113812 183.555391,74.7775438 183.890847,61.4442021 L183.890847,0 L171.618983,0 Z" id="Shape"></path>
                </g>
                <g id="samlv2" transform="translate(0.000000, 218.000000)" fill="#E83838">
                    <path d="M47.9916758,106.030271 C43.42104,110.727267 37.3269387,113 29.2520212,113 C20.7202315,113 11.274219,110.727267 3.35191121,106.636396 C0.609481893,105.272614 0,104.818258 0,103.757538 C0,103.151412 0.152370473,102.848588 0.457111419,101.939399 L3.9611539,92.6969373 C4.41826532,91.6364555 4.87537674,91.1818614 5.48485863,91.1818614 C5.78959958,91.1818614 6.2464718,91.3333928 6.85595369,91.6364555 C14.9308712,96.0301517 21.7868249,98.1515908 27.5761852,98.1515908 C32.9084342,98.1515908 36.4127159,94.9696699 36.4127159,90.2726732 C36.4127159,86.0302706 34.5845094,84.5151948 24.6813854,80.7271484 C14.9308712,77.0908712 11.57896,75.1212013 8.83653064,72.5454059 C4.87537674,68.7575974 2.74242932,63.6060065 2.74242932,57.6969967 C2.74242932,43.1514124 14.0166483,33 29.8615031,33 C39.4598861,33 53.1717935,37.0908712 53.1717935,39.9697294 C53.1717935,40.4240856 53.019423,41.0302111 52.7146821,41.6363366 L48.9056595,50.2726732 C48.4487873,51.1818614 47.9916758,51.6362177 47.3821939,51.6362177 C47.077453,51.6362177 46.6205808,51.4849242 46.1634694,51.3331549 C40.3738698,48.7575974 35.0416208,47.393815 30.7754868,47.393815 C24.529015,47.393815 21.0249725,50.1211418 21.0249725,55.1212013 C21.0249725,59.2120726 22.7008085,60.7271484 31.0802277,63.9090693 C42.3546859,68.3030033 45.5539875,69.9696105 48.7535282,73 C52.7146821,76.9393399 55,82.3939935 55,88.4545346 C55,94.9696699 52.4099412,101.484805 47.9916758,106.030271" id="Fill-1"></path>
                    <path d="M83.4778437,88.7115917 C83.4778437,94.6318152 87.7536727,99.1859067 93.2513042,99.1859067 C97.3744079,99.1859067 101.192061,97.2124988 104.857228,93.2656831 L104.857228,76.5672684 C89.5863764,76.5672684 83.4778437,79.9070467 83.4778437,88.7115917 M125.778437,107.838633 L113.867062,112.544782 C113.408886,112.848181 112.492774,113 112.034359,113 C110.660071,113 109.133057,110.115917 107.453319,104.043636 C101.344786,110.267497 95.8473946,112.696362 87.906398,112.696362 C73.8573484,112.696362 65,103.739998 65,89.7740859 C65,76.2636305 72.3300953,68.3699991 87.7536727,65.334097 C91.7242909,64.5750023 96.4582958,64.1195455 104.857228,63.9677266 L104.857228,59.2618162 C104.857228,50.6090901 102.413863,47.8765875 94.7783174,47.8765875 C90.1970378,47.8765875 84.3941956,49.2427196 77.6750015,51.8236416 C77.0641002,52.1272794 76.453199,52.27886 75.9952629,52.27886 C75.2316363,52.27886 74.7734604,51.8236416 74.4680098,50.760909 L71.2610182,41.6527261 C71.1085326,41.1972693 70.9555676,40.4384129 70.9555676,39.9829561 C70.9555676,36.7949968 84.8521317,33 97.0689572,33 C109.133057,33 117.379265,36.9468157 120.891707,44.6888665 C122.41872,47.8765875 123.029622,51.5200037 123.029622,57.2884083 L123.029622,88.2561349 C123.029622,94.9354531 123.945734,99.3377256 126.541824,104.650912 C126.847275,105.258188 127,105.865225 127,106.320682 C127,106.927958 126.541824,107.534995 125.778437,107.838633" id="Fill-4"></path>
                    <path d="M161.74086,110 L147.815053,110 C145.519593,110 145.21374,109.695874 145.21374,107.415167 L145.21374,56.3274654 C145.21374,48.5729649 144.601553,45.3801179 142.45914,39.9063248 C142.153047,39.2983112 142,38.6900589 142,38.2338697 C142,37.4735544 142.612187,36.7134777 143.683514,36.4093516 L156.078853,32.3038874 C156.843847,32.1520631 157.302987,32 157.60908,32 C159.292594,32 161.128673,36.2572885 162.506093,42.9473475 C170.9227,35.192847 177.043847,32.3038874 185.307647,32.3038874 C193.265113,32.3038874 198.621267,35.6490363 201.988054,42.9473475 C210.710513,35.040784 216.984947,32.3038874 225.55484,32.3038874 C232.44098,32.3038874 237.644087,35.040784 240.24564,39.9063248 C242.388054,44.1636133 243,48.1170144 243,57.3919069 L243,107.415167 C243,109.695874 242.693907,110 240.398687,110 L226.319833,110 C224.024133,110 223.71828,109.695874 223.71828,107.415167 L223.71828,59.216425 C223.71828,50.7016092 221.88172,47.5087622 216.8319,47.5087622 C212.70012,47.5087622 209.180287,49.3332803 203.671327,54.3508842 L203.671327,107.415167 C203.671327,109.695874 203.365233,110 201.069773,110 L187.143967,110 C184.848507,110 184.542413,109.695874 184.542413,107.415167 L184.542413,60.736817 C184.542413,50.7016092 183.012187,47.8128883 177.502987,47.8128883 C173.524253,47.8128883 169.54528,49.7894695 164.342413,54.3508842 L164.342413,107.415167 C164.342413,109.695874 164.03656,110 161.74086,110" id="Fill-6"></path>
                    <path d="M281.669699,113 C272.866155,113 266.794804,109.187659 264.366215,102.020277 C263.151802,98.5129617 263,96.6830478 263,83.4158723 L263,5.94751964 C263,4.27011846 263.759008,3.35504177 265.276787,3.05001621 L278.937507,0.305025563 C280.455286,0 280.455286,0 280.759128,0 C281.821501,0 282.276906,0.762563908 282.276906,2.59247786 L282.276906,82.0432573 C282.276906,90.5830153 282.276906,90.8880409 282.580271,92.1081432 C283.187478,94.2430827 284.250089,95.1579199 286.375074,95.1579199 C288.044655,95.1579199 289.410631,94.8528944 291.384053,94.2430827 C291.839458,94.0905699 292.294625,94.0905699 292.446665,94.0905699 C293.053871,94.0905699 293.509038,94.395356 293.660602,95.0054072 L296.696635,107.510258 L296.848198,108.12007 C297,108.425095 297,108.577608 297,108.730121 C297,110.712548 288.955465,113 281.669699,113" id="Fill-8"></path>
                </g>
                <g id="openidconnect" transform="translate(404.000000, 190.000000)">
                    <path d="M160.41624,62.1287941 C143.534314,51.5660377 119.861679,45 94.1214834,45 C42.0720375,45.038064 0,71.149959 0,103.2379 C0,132.680394 35.0157715,156.851025 80.5400682,161 L80.5400682,144.061526 C49.9629156,140.255127 26.9731458,123.373749 26.9731458,103.2379 C26.9731458,80.3995078 57.0191816,61.5578343 94.1214834,61.5578343 C112.672634,61.5578343 129.402813,66.1445447 141.447783,73.7954061 L124.376172,84.4913864 L178,84.4913864 L178,51.1473339 L160.41624,62.1287941 Z" id="path2204" fill="#CCCCCC"></path>
                    <polygon id="path2206" fill="#FF6200" points="80 17.3681183 80 161 107 144.179951 107 0"></polygon>
                </g>
            </g>
        </g>
    </g>
</svg>