<?xml version="1.0" encoding="UTF-8"?>
<svg width="654px" height="534px" viewBox="0 0 654 534" version="1.1" xmlns="http://www.w3.org/2000/svg" xmlns:xlink="http://www.w3.org/1999/xlink">
    <!-- Generator: Sketch 58 (84663) - https://sketch.com -->
    <title>jwt and tokens</title>
    <desc>Created with Sketch.</desc>
    <g id="Page-1" stroke="none" stroke-width="1" fill="none" fill-rule="evenodd">
        <g id="built-for-devs" transform="translate(-216.000000, -3024.000000)" fill-rule="nonzero">
            <g id="jwt-and-tokens" transform="translate(216.000000, 3024.000000)">
                <g id="Group" transform="translate(28.000000, 3.000000)" fill="#4A555F">
                    <path d="M107.583471,125.631387 L0,125.631387 L0,0.952554745 L107.583471,0.952554745 L107.583471,125.631387 Z M6.24132231,119.386861 L101.342149,119.386861 L101.342149,7.19708029 L6.24132231,7.19708029 L6.24132231,119.386861 Z" id="Shape"></path>
                    <polygon id="Path" points="127.471074 144.576642 14.1752066 144.576642 14.1752066 122.562044 20.4165289 122.562044 20.4165289 138.332117 121.229752 138.332117 121.229752 23.3905109 104.515702 23.3905109 104.515702 17.1459854 127.471074 17.1459854"></polygon>
                    <g transform="translate(22.214876, 29.635036)" id="Rectangle">
                        <rect x="48.661157" y="0.846715328" width="9.41487603" height="6.24452555"></rect>
                        <rect x="0.846280992" y="20.6386861" width="57.2297521" height="6.24452555"></rect>
                        <rect x="0.846280992" y="40.3248175" width="57.2297521" height="6.24452555"></rect>
                        <rect x="1.05785124" y="60.0109489" width="37.7652893" height="6.24452555"></rect>
                        <rect x="32.5818182" y="0.846715328" width="9.41487603" height="6.24452555"></rect>
                        <rect x="16.7140496" y="0.846715328" width="9.41487603" height="6.24452555"></rect>
                        <rect x="0.952066116" y="0.846715328" width="9.41487603" height="6.24452555"></rect>
                    </g>
                </g>
                <g id="Group" transform="translate(493.000000, 389.000000)" fill="#4A555F">
                    <path d="M108.112397,125.208029 L0.52892562,125.208029 L0.52892562,0.423357664 L108.112397,0.423357664 L108.112397,125.208029 Z M6.77024793,118.963504 L101.871074,118.963504 L101.871074,6.77372263 L6.77024793,6.77372263 L6.77024793,118.963504 Z" id="Shape"></path>
                    <polygon id="Path" points="128 144.047445 14.5983471 144.047445 14.5983471 122.032847 20.9454545 122.032847 20.9454545 137.80292 121.758678 137.80292 121.758678 22.9671533 104.938843 22.9671533 104.938843 16.7226277 128 16.7226277"></polygon>
                    <g transform="translate(23.272727, 29.635036)" id="Rectangle">
                        <rect x="48.0264463" y="0.423357664" width="9.41487603" height="6.24452555"></rect>
                        <rect x="0.211570248" y="20.1094891" width="57.2297521" height="6.24452555"></rect>
                        <rect x="0.211570248" y="39.7956204" width="57.2297521" height="6.24452555"></rect>
                        <rect x="0.52892562" y="59.4817518" width="37.7652893" height="6.24452555"></rect>
                        <rect x="32.0528926" y="0.423357664" width="9.41487603" height="6.24452555"></rect>
                        <rect x="16.185124" y="0.423357664" width="9.41487603" height="6.24452555"></rect>
                        <rect x="0.317355372" y="0.423357664" width="9.41487603" height="6.24452555"></rect>
                    </g>
                </g>
                <path d="M408,261 L223,261 L223,201 L407.894225,201 L407.894225,261 L408,261 Z M229.240709,254.789474 L401.653516,254.789474 L401.653516,207.210526 L229.240709,207.210526 L229.240709,254.789474 Z" id="Shape" fill="#4A555F"></path>
                <rect id="Rectangle" fill="#71CDE1" x="315" y="215" width="79" height="32"></rect>
                <path d="M408,316 L223,316 L223,255 L407.894225,255 L407.894225,316 L408,316 Z M229.240709,309.623693 L401.653516,309.623693 L401.653516,261.163763 L229.240709,261.163763 L229.240709,309.623693 Z" id="Shape" fill="#4A555F"></path>
                <rect id="Rectangle" fill="#71CDE1" x="315" y="269" width="79" height="33"></rect>
                <path d="M253.5,240 C248.28022,240 244,235.71978 244,230.5 C244,225.28022 248.28022,221 253.5,221 C258.71978,221 263,225.28022 263,230.5 C263,235.71978 258.824176,240 253.5,240 Z M253.5,227.159341 C251.620879,227.159341 250.159341,228.620879 250.159341,230.5 C250.159341,232.379121 251.620879,233.840659 253.5,233.840659 C255.379121,233.840659 256.840659,232.379121 256.840659,230.5 C256.840659,228.620879 255.379121,227.159341 253.5,227.159341 Z" id="Shape" fill="#4A555F"></path>
                <path d="M382.5,240 C377.28022,240 373,235.71978 373,230.5 C373,225.28022 377.28022,221 382.5,221 C387.71978,221 392,225.28022 392,230.5 C392,235.71978 387.71978,240 382.5,240 Z M382.5,227.159341 C380.620879,227.159341 379.159341,228.620879 379.159341,230.5 C379.159341,232.379121 380.620879,233.840659 382.5,233.840659 C384.379121,233.840659 385.840659,232.379121 385.840659,230.5 C385.840659,228.620879 384.379121,227.159341 382.5,227.159341 Z" id="Shape" fill="#4A555F"></path>
                <path d="M253.5,295 C248.28022,295 244,290.71978 244,285.5 C244,280.28022 248.28022,276 253.5,276 C258.71978,276 263,280.28022 263,285.5 C263,290.71978 258.824176,295 253.5,295 Z M253.5,282.159341 C251.620879,282.159341 250.159341,283.620879 250.159341,285.5 C250.159341,287.379121 251.620879,288.840659 253.5,288.840659 C255.379121,288.840659 256.840659,287.379121 256.840659,285.5 C256.840659,283.620879 255.379121,282.159341 253.5,282.159341 Z" id="Shape" fill="#4A555F"></path>
                <path d="M382.5,295 C377.28022,295 373,290.71978 373,285.5 C373,280.28022 377.28022,276 382.5,276 C387.71978,276 392,280.28022 392,285.5 C392,290.71978 387.71978,295 382.5,295 Z M382.5,282.159341 C380.620879,282.159341 379.159341,283.620879 379.159341,285.5 C379.159341,287.379121 380.620879,288.840659 382.5,288.840659 C384.379121,288.840659 385.840659,287.379121 385.840659,285.5 C385.840659,283.620879 384.379121,282.159341 382.5,282.159341 Z" id="Shape" fill="#4A555F"></path>
                <path d="M274,344 L256,344 L256,309 L274,309 L274,344 Z M262.428571,337.617021 L267.678571,337.617021 L267.678571,315.170213 L262.428571,315.170213 L262.428571,337.617021 Z" id="Shape" fill="#4A555F"></path>
                <path d="M370,344 L352,344 L352,309 L370,309 L370,344 Z M358.321429,337.617021 L363.571429,337.617021 L363.571429,315.170213 L358.321429,315.170213 L358.321429,337.617021 Z" id="Shape" fill="#4A555F"></path>
                <path d="M408,360 L223,360 L223,338 L407.894225,338 L407.894225,360 L408,360 Z M229.240709,353.877358 L401.653516,353.877358 L401.653516,344.226415 L229.240709,344.226415 L229.240709,353.877358 Z" id="Shape" fill="#4A555F"></path>
                <polygon id="Path" fill="#4A555F" points="469 456 339 456 339 380 345.261224 380 345.261224 449.763561 469 449.763561"></polygon>
                <polygon id="Path" fill="#4A555F" points="300 178 293.748687 178 293.748687 87.3329706 179 87.3329706 179 81 300 81"></polygon>
                <path d="M289,449 L288.153927,449 L288.153927,443 L289,443 L289,449 Z M281.914136,449 L275.674346,449 L275.674346,443 L281.914136,443 L281.914136,449 Z M269.434555,449 L263.194764,449 L263.194764,443 L269.434555,443 L269.434555,449 Z M256.849215,449 L250.609424,449 L250.609424,443 L256.849215,443 L256.849215,449 Z M244.369634,449 L238.129843,449 L238.129843,443 L244.369634,443 L244.369634,449 Z M231.784293,449 L225.544503,449 L225.544503,443 L231.784293,443 L231.784293,449 Z M219.304712,449 L213.064921,449 L213.064921,443 L219.304712,443 L219.304712,449 Z M206.719372,449 L200.479581,449 L200.479581,443 L206.719372,443 L206.719372,449 Z M194.239791,449 L188,449 L188,443 L194.239791,443 L194.239791,449 Z" id="Shape" fill="#4A555F"></path>
                <path d="M126,357 L120,357 L120,353.934698 L126,353.934698 L126,357 Z M126,347.592695 L120,347.592695 L120,341.356392 L126,341.356392 L126,347.592695 Z M126,335.120089 L120,335.120089 L120,328.883785 L126,328.883785 L126,335.120089 Z M126,322.541782 L120,322.541782 L120,316.305479 L126,316.305479 L126,322.541782 Z M126,310.069175 L120,310.069175 L120,303.832872 L126,303.832872 L126,310.069175 Z M126,297.490869 L120,297.490869 L120,291.254566 L126,291.254566 L126,297.490869 Z M126,285.018262 L120,285.018262 L120,278.781959 L126,278.781959 L126,285.018262 Z M126,272.439956 L120,272.439956 L120,266.203652 L126,266.203652 L126,272.439956 Z M126,259.967349 L120,259.967349 L120,253.731046 L126,253.731046 L126,259.967349 Z M126,247.389043 L120,247.389043 L120,241.152739 L126,241.152739 L126,247.389043 Z M126,234.916436 L120,234.916436 L120,228.680133 L126,228.680133 L126,234.916436 Z M126,222.338129 L120,222.338129 L120,216.101826 L126,216.101826 L126,222.338129 Z M126,209.865523 L120,209.865523 L120,203.62922 L126,203.62922 L126,209.865523 Z M126,197.287216 L120,197.287216 L120,191.050913 L126,191.050913 L126,197.287216 Z M126,184.70891 L120,184.70891 L120,178.472607 L126,178.472607 L126,184.70891 Z M126,172.236303 L120,172.236303 L120,166 L126,166 L126,172.236303 Z" id="Shape" fill="#4A555F"></path>
                <path d="M523,365 L517,365 L517,358.740479 L523,358.740479 L523,365 Z M523,352.374864 L517,352.374864 L517,346.115343 L523,346.115343 L523,352.374864 Z M523,339.855822 L517,339.855822 L517,333.5963 L523,333.5963 L523,339.855822 Z M523,327.230686 L517,327.230686 L517,320.971164 L523,320.971164 L523,327.230686 Z M523,314.711643 L517,314.711643 L517,308.452122 L523,308.452122 L523,314.711643 Z M523,302.086507 L517,302.086507 L517,295.826986 L523,295.826986 L523,302.086507 Z M523,289.567465 L517,289.567465 L517,283.307943 L523,283.307943 L523,289.567465 Z M523,276.942329 L517,276.942329 L517,270.682807 L523,270.682807 L523,276.942329 Z M523,264.423286 L517,264.423286 L517,258.057671 L523,258.057671 L523,264.423286 Z M523,251.79815 L517,251.79815 L517,245.538629 L523,245.538629 L523,251.79815 Z M523,239.173014 L517,239.173014 L517,232.913493 L523,232.913493 L523,239.173014 Z M523,226.653972 L517,226.653972 L517,220.39445 L523,220.39445 L523,226.653972 Z M523,214.028836 L517,214.028836 L517,207.769314 L523,207.769314 L523,214.028836 Z M523,201.509793 L517,201.509793 L517,195.250272 L523,195.250272 L523,201.509793 Z M523,188.884657 L517,188.884657 L517,182.625136 L523,182.625136 L523,188.884657 Z M523,176.365615 L517,176.365615 L517,170 L523,170 L523,176.365615 Z" id="Shape" fill="#4A555F"></path>
                <path d="M458,87 L457.364113,87 L457.364113,81 L458,81 L458,87 Z M451.111228,87 L444.858342,87 L444.858342,81 L451.111228,81 L451.111228,87 Z M438.605456,87 L432.352571,87 L432.352571,81 L438.605456,81 L438.605456,87 Z M425.993704,87 L419.740818,87 L419.740818,81 L425.993704,81 L425.993704,87 Z M413.487933,87 L407.235047,87 L407.235047,81 L413.487933,81 L413.487933,87 Z M400.87618,87 L394.623295,87 L394.623295,81 L400.87618,81 L400.87618,87 Z M388.370409,87 L382.117524,87 L382.117524,81 L388.370409,81 L388.370409,87 Z M375.758657,87 L369.505771,87 L369.505771,81 L375.758657,81 L375.758657,87 Z M363.252886,87 L357,87 L357,81 L363.252886,81 L363.252886,87 Z" id="Shape" fill="#4A555F"></path>
                <polygon id="Path" fill="#4A555F" points="297.290323 183 278 160.162055 282.717742 156 297.395161 173.288538 312.387097 156 317 160.162055"></polygon>
                <polygon id="Path" fill="#4A555F" points="327.612903 400 323 395.837945 342.709677 373 362 395.837945 357.282258 400 342.709677 382.711462"></polygon>
                <polygon id="Path" fill="#4A555F" points="505.717742 191 501 186.821429 520.709677 164 540 186.928571 535.282258 191 520.709677 173.642857"></polygon>
                <polygon id="Path" fill="#4A555F" points="122.290323 364 103 341.162055 107.717742 337 122.395161 354.288538 137.387097 337 142 341.162055"></polygon>
                <polygon id="Path" fill="#4A555F" points="273.162055 465 269 460.282258 286.395257 445.604839 269 430.612903 273.162055 426 296 445.709677"></polygon>
                <polygon id="Path" fill="#4A555F" points="358.837945 103 336 83.2903226 358.837945 64 363 68.7177419 345.604743 83.2903226 363 98.2822581"></polygon>
                <g id="Group-10" transform="translate(0.000000, 380.000000)">
                    <path d="M165.843056,106.736424 L21.2861111,106.736424 L21.2861111,1.27897692e-13 L165.708333,1.27897692e-13 L165.708333,106.736424 L165.843056,106.736424 Z M29.3694444,98.7850993 L157.894444,98.7850993 L157.894444,7.9513245 L29.3694444,7.9513245 L29.3694444,98.7850993 Z" id="Shape-Copy" fill="#4A555F"></path>
                    <path d="M187.129167,151.47947 L-7.95807864e-13,151.47947 L-7.95807864e-13,127.35596 L23.4416667,98.7850993 L163.6875,98.7850993 L187.129167,127.35596 L187.129167,151.47947 Z M7.94861111,143.528146 L179.045833,143.528146 L179.045833,130.320861 L159.780556,106.871192 L27.0791667,106.871192 L7.81388889,130.320861 L7.81388889,143.528146 L7.94861111,143.528146 Z" id="Shape-Copy-2" fill="#4A555F"></path>
                    <rect id="Rectangle-Copy" fill="#4A555F" x="4.04166667" y="124.795364" width="157.759722" height="7.9513245"></rect>
                    <path d="M148.733333,91.2380795 L38.2611111,91.2380795 L38.3958333,16.3069536 L148.868056,16.3069536 L148.733333,91.2380795 Z M46.2097222,83.286755 L140.65,83.286755 L140.784722,24.2582781 L46.3444444,24.2582781 L46.2097222,83.286755 Z" id="Shape-Copy-3" fill="#4A555F"></path>
                    <polygon id="Path-Copy" fill="#FFD552" points="55.5055556 73.9877483 55.6402778 33.692053 131.488889 33.692053 131.354167 73.9877483"></polygon>
                </g>
                <g id="Group-10-Copy" transform="translate(466.000000, 0.000000)">
                    <path d="M165.843056,106.736424 L21.2861111,106.736424 L21.2861111,1.27897692e-13 L165.708333,1.27897692e-13 L165.708333,106.736424 L165.843056,106.736424 Z M29.3694444,98.7850993 L157.894444,98.7850993 L157.894444,7.9513245 L29.3694444,7.9513245 L29.3694444,98.7850993 Z" id="Shape-Copy" fill="#4A555F"></path>
                    <path d="M187.129167,151.47947 L-7.95807864e-13,151.47947 L-7.95807864e-13,127.35596 L23.4416667,98.7850993 L163.6875,98.7850993 L187.129167,127.35596 L187.129167,151.47947 Z M7.94861111,143.528146 L179.045833,143.528146 L179.045833,130.320861 L159.780556,106.871192 L27.0791667,106.871192 L7.81388889,130.320861 L7.81388889,143.528146 L7.94861111,143.528146 Z" id="Shape-Copy-2" fill="#4A555F"></path>
                    <rect id="Rectangle-Copy" fill="#4A555F" x="4.04166667" y="124.795364" width="157.759722" height="7.9513245"></rect>
                    <path d="M148.733333,91.2380795 L38.2611111,91.2380795 L38.3958333,16.3069536 L148.868056,16.3069536 L148.733333,91.2380795 Z M46.2097222,83.286755 L140.65,83.286755 L140.784722,24.2582781 L46.3444444,24.2582781 L46.2097222,83.286755 Z" id="Shape-Copy-3" fill="#4A555F"></path>
                    <polygon id="Path-Copy" fill="#FFD552" points="55.5055556 73.9877483 55.6402778 33.692053 131.488889 33.692053 131.354167 73.9877483"></polygon>
                </g>
            </g>
        </g>
    </g>
</svg>