<?xml version="1.0" encoding="UTF-8"?>
<svg width="414px" height="423px" viewBox="0 0 414 423" version="1.1" xmlns="http://www.w3.org/2000/svg" xmlns:xlink="http://www.w3.org/1999/xlink">
    <!-- Generator: Sketch 58 (84663) - https://sketch.com -->
    <title>lambdas</title>
    <desc>Created with Sketch.</desc>
    <g id="Page-1" stroke="none" stroke-width="1" fill="none" fill-rule="evenodd">
        <g id="built-for-devs" transform="translate(-317.000000, -5707.000000)" fill-rule="nonzero">
            <g id="lambdas" transform="translate(317.000000, 5707.000000)">
                <g id="REINFORCEMENT-LEARNING">
                    <g id="Group-2">
                        <rect id="Rectangle" fill="#F58E6F" x="17.1789981" y="18.282733" width="95.5995667" height="66.9918239"></rect>
                        <path d="M117.895509,0 L11.5231335,0 C5.1689942,0 0,5.16893182 0,11.521142 L0,95.7782557 C0,102.134472 5.1689942,107.305807 11.5231335,107.305807 L117.845861,107.305807 C124.199199,107.305807 129.368193,102.134472 129.368193,95.7782557 L129.368193,11.4722727 C129.368193,5.1465 124.222422,0 117.895509,0 Z M123.608228,95.7782557 C123.608228,98.9563636 121.023331,101.542432 117.846662,101.542432 L11.5231335,101.542432 C8.34566344,101.542432 5.76076596,98.9563636 5.76076596,95.7782557 L5.76076596,11.521142 C5.76076596,8.34623864 8.34566344,5.763375 11.5231335,5.763375 L117.894708,5.763375 C121.044952,5.763375 123.608228,8.32460795 123.608228,11.4722727 L123.608228,95.7782557 L123.608228,95.7782557 Z" id="Shape" fill="#4A555F"></path>
                        <path d="M14.2986151,15.4010455 L14.2986151,88.1570455 L115.658147,88.1570455 L115.658147,15.4010455 L14.2986151,15.4010455 L14.2986151,15.4010455 Z M109.897381,82.3936705 L20.059381,82.3936705 L20.059381,21.1644205 L109.897381,21.1644205 L109.897381,82.3936705 Z" id="Shape" fill="#4A555F"></path>
                        <path d="M79.3614778,101.539227 L51.1894584,101.539227 L42.6099691,122.129233 L87.9393656,122.129233 L79.3614778,101.539227 Z M51.2535203,116.366659 L55.0299691,107.303403 L75.5209671,107.303403 L79.2966151,116.366659 L51.2535203,116.366659 Z" id="Shape" fill="#4A555F"></path>
                        <path d="M27.628294,116.366659 L27.628294,134.381011 L102.922642,134.381011 L102.922642,116.366659 L27.628294,116.366659 Z M97.1618762,128.617636 L33.38906,128.617636 L33.38906,122.130034 L97.1618762,122.130034 L97.1618762,128.617636 Z" id="Shape" fill="#4A555F"></path>
                        <rect id="Rectangle" fill="#4A555F" x="4.47312186" y="128.617636" width="118.289489" height="5.763375"></rect>
                    </g>
                    <path d="M156.080402,312.199636 L161.841168,312.199636 L161.841168,306.436261 L156.080402,306.436261 L156.080402,312.199636 Z M144.55887,312.199636 L150.319636,312.199636 L150.319636,306.436261 L144.55887,306.436261 L144.55887,312.199636 Z M179.123466,312.199636 L184.884232,312.199636 L184.884232,306.436261 L179.123466,306.436261 L179.123466,312.199636 Z M190.644998,306.436261 L190.644998,312.199636 L196.405764,312.199636 L196.405764,306.436261 L190.644998,306.436261 Z M167.601934,312.199636 L173.3627,312.199636 L173.3627,306.436261 L167.601934,306.436261 L167.601934,312.199636 Z" id="Shape" fill="#4A555F"></path>
                    <path d="M196.205571,110.38858 L190.444805,110.38858 L190.444805,116.151955 L196.205571,116.151955 L196.205571,110.38858 Z M196.205571,133.44208 L190.444805,133.44208 L190.444805,139.205455 L196.205571,139.205455 L196.205571,133.44208 Z M196.205571,121.91533 L190.444805,121.91533 L190.444805,127.678705 L196.205571,127.678705 L196.205571,121.91533 Z M196.205571,156.49558 L190.444805,156.49558 L190.444805,162.258955 L196.205571,162.258955 L196.205571,156.49558 Z M196.205571,144.96883 L190.444805,144.96883 L190.444805,150.732205 L196.205571,150.732205 L196.205571,144.96883 Z M196.205571,168.02233 L190.444805,168.02233 L190.444805,173.785705 L196.205571,173.785705 L196.205571,168.02233 Z M196.205571,64.2815795 L190.444805,64.2815795 L190.444805,70.0449545 L196.205571,70.0449545 L196.205571,64.2815795 Z M196.205571,98.8618295 L190.444805,98.8618295 L190.444805,104.625205 L196.205571,104.625205 L196.205571,98.8618295 Z M196.205571,75.8083295 L190.444805,75.8083295 L190.444805,81.5717045 L196.205571,81.5717045 L196.205571,75.8083295 Z M196.205571,87.3350795 L190.444805,87.3350795 L190.444805,93.0984545 L196.205571,93.0984545 L196.205571,87.3350795 Z M190.445605,231.420256 L196.206371,231.420256 L196.206371,225.656881 L190.445605,225.656881 L190.445605,231.420256 Z M190.445605,219.893506 L196.206371,219.893506 L196.206371,214.130131 L190.445605,214.130131 L190.445605,219.893506 Z M196.206371,185.312455 L196.205571,179.54908 L190.444805,179.54908 L190.445605,185.312455 L196.206371,185.312455 Z M190.445605,208.365955 L196.206371,208.365955 L196.206371,202.60258 L190.445605,202.60258 L190.445605,208.365955 Z M190.445605,254.473756 L196.206371,254.473756 L196.206371,248.710381 L190.445605,248.710381 L190.445605,254.473756 Z M190.445605,196.839205 L196.206371,196.839205 L196.206371,191.07583 L190.445605,191.07583 L190.445605,196.839205 Z M190.445605,242.946205 L196.206371,242.946205 L196.206371,237.18283 L190.445605,237.18283 L190.445605,242.946205 Z M190.445605,289.054006 L196.206371,289.054006 L196.206371,283.290631 L190.445605,283.290631 L190.445605,289.054006 Z M190.445605,300.580756 L196.206371,300.580756 L196.206371,294.817381 L190.445605,294.817381 L190.445605,300.580756 Z M190.445605,277.527256 L196.206371,277.527256 L196.206371,271.763881 L190.445605,271.763881 L190.445605,277.527256 Z M190.445605,266.000506 L196.206371,266.000506 L196.206371,260.237131 L190.445605,260.237131 L190.445605,266.000506 Z" id="Shape" fill="#4A555F"></path>
                    <path d="M213.485466,70.0337386 L219.246232,70.0337386 L219.246232,64.2703636 L213.485466,64.2703636 L213.485466,70.0337386 Z M201.963934,70.0337386 L207.7247,70.0337386 L207.7247,64.2703636 L201.963934,64.2703636 L201.963934,70.0337386 Z M236.52853,64.2703636 L236.52853,70.0337386 L242.289296,70.0337386 L242.289296,64.2703636 L236.52853,64.2703636 Z M225.006998,70.0337386 L230.767764,70.0337386 L230.767764,64.2703636 L225.006998,64.2703636 L225.006998,70.0337386 Z" id="Shape" fill="#4A555F"></path>
                    <g id="Group" transform="translate(265.333961, 261.971591)">
                        <path d="M125.405164,97.9196932 L125.405164,51.200625 L92.8609207,17.4503523 L20.4365455,17.4503523 L20.4365455,160.384295 L125.405164,160.384295 L125.405164,138.264119 L92.3260039,138.264119 L92.3260039,97.9196932 L125.405164,97.9196932 L125.405164,97.9196932 Z M119.645199,144.028295 L119.645199,154.621722 L26.1981122,154.621722 L26.1981122,23.2145284 L90.4145571,23.2145284 L119.645199,53.5279261 L119.645199,92.1571193 L86.5660387,92.1571193 L86.5660387,144.028295 L119.645199,144.028295 L119.645199,144.028295 Z" id="Shape" fill="#4A555F"></path>
                        <path d="M124.60359,50.3538239 L93.70894,18.335608 C92.895354,17.4928125 91.6501509,17.2228295 90.5578956,17.665858 C89.4696441,18.1056818 88.7569555,19.1631818 88.7569555,20.3376477 L88.7569555,52.3558636 C88.7569555,53.9477216 90.0462012,55.2375511 91.6373385,55.2375511 L122.531988,55.2375511 C123.688306,55.2375511 124.731714,54.5461705 125.18335,53.4822614 C125.634186,52.4175511 125.405965,51.1862045 124.60359,50.3538239 Z M94.5169207,49.4741761 L94.5169207,27.4709659 L115.747834,49.4741761 L94.5169207,49.4741761 Z" id="Shape" fill="#4A555F"></path>
                        <polygon id="Path" fill="#DFDFDF" points="2.88038298 2.8816875 2.88038298 140.511307 23.3161277 140.511307 23.3161277 20.3376477 91.6365377 20.3376477 107.084263 36.3467557 107.084263 2.8816875"></polygon>
                        <path d="M2.84217094e-14,0 L2.84217094e-14,143.392193 L26.1973114,143.392193 L26.1973114,23.2185341 L90.4145571,23.2185341 L109.964646,43.4800739 L109.964646,0 L2.84217094e-14,0 Z M104.20388,29.2118352 L92.8593191,17.4551591 L20.4357447,17.4551591 L20.4357447,137.628818 L5.75996518,137.628818 L5.75996518,5.763375 L104.20388,5.763375 L104.20388,29.2118352 L104.20388,29.2118352 Z" id="Shape" fill="#4A555F"></path>
                        <rect id="Rectangle" fill="#FFD452" x="89.4456209" y="95.046017" width="55.5392611" height="46.0997898"></rect>
                        <path d="M86.5652379,92.1643295 L86.5652379,144.028295 L147.865265,144.028295 L147.865265,92.1643295 L86.5652379,92.1643295 Z M142.104499,138.264119 L92.3260039,138.264119 L92.3260039,97.9269034 L142.104499,97.9269034 L142.104499,138.264119 Z" id="Shape" fill="#4A555F"></path>
                        <polygon id="Path" fill="#4A555F" points="130.44123 105.420733 111.847265 122.497756 104.237513 113.525028 99.8460696 117.252716 111.329965 130.795926 134.336193 109.665955"></polygon>
                    </g>
                    <g id="Group-3" transform="translate(9.577253, 277.193182)">
                        <path d="M111.617443,88.7803295 L111.617443,46.2944659 L82.1353578,15.7206989 L16.4879304,15.7206989 L16.4879304,145.050545 L111.617443,145.050545 L111.617443,124.55267 L66.4457988,124.55267 L66.4457988,88.7811307 L111.617443,88.7811307 L111.617443,88.7803295 Z M105.857478,130.315244 L105.857478,139.286369 L22.2486963,139.286369 L22.2486963,21.4840739 L79.6889942,21.4840739 L105.857478,48.6209659 L105.857478,83.0177557 L60.6858337,83.0177557 L60.6858337,130.316045 L105.857478,130.316045 L105.857478,130.315244 Z" id="Shape" fill="#4A555F"></path>
                        <path d="M110.815068,45.4468636 L82.9849787,16.6051534 C82.1705919,15.7615568 80.9237872,15.4947784 79.8331335,15.9354034 C78.744882,16.3752273 78.0321934,17.4327273 78.0321934,18.6071932 L78.0321934,47.4489034 C78.0321934,49.0407614 79.3214391,50.3305909 80.9125764,50.3305909 L108.743466,50.3305909 C109.899783,50.3305909 110.943191,49.6392102 111.394828,48.5753011 C111.845663,47.5105909 111.617443,46.2792443 110.815068,45.4468636 Z M83.7929594,44.5672159 L83.7929594,25.7405114 L101.959311,44.5672159 L83.7929594,44.5672159 Z" id="Shape" fill="#4A555F"></path>
                        <polygon id="Path" fill="#DFDFDF" points="2.87958221 2.88248864 2.87958221 126.862347 19.3675126 126.862347 19.3675126 18.606392 80.9117756 18.606392 94.8276209 33.0276477 94.8276209 2.88248864"></polygon>
                        <path d="M2.13162821e-14,0 L2.13162821e-14,129.742432 L22.2478956,129.742432 L22.2478956,21.4880795 L79.689795,21.4880795 L97.7080039,40.1609659 L97.7080039,0 L2.13162821e-14,0 Z M91.9472379,25.8935284 L82.1353578,15.7247045 L16.4871296,15.7247045 L16.4871296,123.979858 L5.76076596,123.979858 L5.76076596,5.76417614 L91.9472379,5.76417614 L91.9472379,25.8935284 Z" id="Shape" fill="#4A555F"></path>
                        <rect id="Rectangle" fill="#71CCE0" x="63.5638143" y="85.9058523" width="94.232646" height="41.5277045"></rect>
                        <path d="M60.6842321,83.0241648 L60.6842321,130.316045 L160.677644,130.316045 L160.677644,83.0241648 L60.6842321,83.0241648 Z M154.916878,124.551869 L66.4449981,124.551869 L66.4449981,88.7867386 L154.916878,88.7867386 L154.916878,124.551869 L154.916878,124.551869 Z" id="Shape" fill="#4A555F"></path>
                        <path d="M84.388735,108.865619 L84.6858221,108.865619 C89.0420309,108.865619 92.5862553,105.31979 92.5862553,100.961608 C92.5862553,96.602625 89.0420309,93.0567955 84.6858221,93.0567955 L74.8403095,93.0567955 C73.2491721,93.0567955 71.9599265,94.346625 71.9599265,95.938483 L71.9599265,119.461449 L77.7206925,119.461449 L77.7206925,110.795557 L89.6137834,120.7665 L93.3133578,116.348233 L84.388735,108.865619 Z M77.7214932,98.8201705 L84.6866228,98.8201705 C85.8661625,98.8201705 86.8262901,99.780733 86.8262901,100.961608 C86.8262901,102.141682 85.8661625,103.102244 84.6866228,103.102244 L77.7214932,103.102244 L77.7214932,98.8201705 Z" id="Shape" fill="#4A555F"></path>
                        <path d="M105.955172,93.0567955 C100.445849,93.0567955 95.9639188,97.5415568 95.9639188,103.053375 L95.9639188,119.460648 L101.724685,119.460648 L101.724685,103.053375 C101.724685,100.719665 103.622518,98.8201705 105.955172,98.8201705 C108.287826,98.8201705 110.18566,100.719665 110.18566,103.053375 L110.18566,119.460648 L115.946426,119.460648 L115.946426,103.053375 C115.946426,97.5415568 111.465296,93.0567955 105.955172,93.0567955 Z" id="Path" fill="#4A555F"></path>
                        <path d="M149.345095,93.8675455 L143.584329,93.888375 L143.638781,109.720432 C143.643586,111.019074 143.141501,112.239205 142.225416,113.158909 C141.310132,114.077812 140.091354,114.584932 138.794101,114.584932 L131.169133,114.584932 C128.497752,114.584932 126.324453,112.410648 126.324453,109.738057 L126.324453,93.9436534 L120.563687,93.9436534 L120.563687,109.738057 C120.563687,115.588756 125.321083,120.348307 131.169133,120.348307 L138.794101,120.348307 C141.634445,120.348307 144.301822,119.240335 146.306159,117.22708 C148.311296,115.214625 149.409957,112.541233 149.399621,109.699602 L149.345095,93.8675455 Z" id="Path" fill="#4A555F"></path>
                        <rect id="Rectangle" fill="#4A555F" x="132.101234" y="98.5686136" width="5.76076596" height="18.8972045"></rect>
                        <rect id="Rectangle" fill="#4A555F" x="98.8443017" y="105.91183" width="14.2217408" height="5.763375"></rect>
                    </g>
                    <path d="M65.0076093,213.020557 L70.7683752,213.020557 L70.7683752,207.257182 L65.0076093,207.257182 L65.0076093,213.020557 Z M65.0076093,224.548108 L70.7683752,224.548108 L70.7683752,218.784733 L65.0076093,218.784733 L65.0076093,224.548108 Z M65.0076093,236.074858 L70.7683752,236.074858 L70.7683752,230.311483 L65.0076093,230.311483 L65.0076093,236.074858 Z M65.0076093,201.493807 L70.7683752,201.493807 L70.7683752,195.730432 L65.0076093,195.730432 L65.0076093,201.493807 Z M65.0076093,166.913557 L70.7683752,166.913557 L70.7683752,161.150182 L65.0076093,161.150182 L65.0076093,166.913557 Z M65.0076093,149.623432 L65.0076093,155.386807 L70.7683752,155.386807 L70.7683752,149.623432 L65.0076093,149.623432 Z M65.0076093,189.967858 L70.7683752,189.967858 L70.7683752,184.204483 L65.0076093,184.204483 L65.0076093,189.967858 Z M65.0076093,178.440307 L70.7683752,178.440307 L70.7683752,172.676932 L65.0076093,172.676932 L65.0076093,178.440307 Z" id="Shape" fill="#4A555F"></path>
                    <polygon id="Path" fill="#4A555F" points="80.7267969 230.509364 67.8992031 242.856477 55.2325648 230.521381 51.2142824 234.650437 67.8767814 250.877455 84.7210561 234.662455"></polygon>
                    <path d="M327.678998,200.080602 L333.439764,200.080602 L333.439764,194.317227 L327.678998,194.317227 L327.678998,200.080602 Z M327.678998,211.607352 L333.439764,211.607352 L333.439764,205.843977 L327.678998,205.843977 L327.678998,211.607352 Z M327.678998,223.134102 L333.439764,223.134102 L333.439764,217.370727 L327.678998,217.370727 L327.678998,223.134102 Z M327.678998,148.210227 L327.678998,153.973602 L333.439764,153.973602 L333.439764,148.210227 L327.678998,148.210227 Z M327.678998,165.500352 L333.439764,165.500352 L333.439764,159.736977 L327.678998,159.736977 L327.678998,165.500352 Z M327.678998,188.553852 L333.439764,188.553852 L333.439764,182.790477 L327.678998,182.790477 L327.678998,188.553852 Z M327.678998,177.027102 L333.439764,177.027102 L333.439764,171.263727 L327.678998,171.263727 L327.678998,177.027102 Z" id="Shape" fill="#4A555F"></path>
                    <polygon id="Path" fill="#4A555F" points="343.398186 217.569409 330.571393 229.917324 317.904754 217.582227 313.885671 221.711284 330.54817 237.9375 347.393246 221.723301"></polygon>
                    <polygon id="Path" fill="#4A555F" points="241.368406 50.3978864 237.217195 54.3939545 249.55872 67.227358 237.229207 79.8981307 241.356395 83.9190341 257.576066 67.2497898"></polygon>
                    <path d="M330.645865,1.88186932 C297.506646,1.88186932 270.544596,28.8545284 270.544596,62.0087557 C270.544596,95.1637841 297.505845,122.135642 330.645865,122.135642 C363.785083,122.135642 390.746333,95.162983 390.746333,62.0087557 C390.746333,28.8545284 363.785083,1.88186932 330.645865,1.88186932 Z M330.645865,116.373068 C300.683315,116.373068 276.306162,91.9856761 276.306162,62.0087557 C276.306162,32.0326364 300.683315,7.64524432 330.645865,7.64524432 C360.608414,7.64524432 384.985567,32.0326364 384.985567,62.0087557 C384.985567,91.984875 360.608414,116.373068 330.645865,116.373068 Z" id="Shape" fill="#4A555F"></path>
                    <path d="M330.645865,14.3683807 C304.388495,14.3683807 283.027056,35.7402955 283.027056,62.0079545 C283.027056,88.2764148 304.389296,109.64833 330.645865,109.64833 C356.902433,109.64833 378.264673,88.2764148 378.264673,62.0079545 C378.264673,35.7402955 356.902433,14.3683807 330.645865,14.3683807 Z" id="Path" fill="#71CCE0"></path>
                </g>
                <g id="Lambda" transform="translate(308.000000, 27.000000)" fill="#4A555F">
                    <path d="M47.6744186,56.3431517 C47.6744186,56.3431517 47.2868217,56.3431517 47.2868217,56.3431517 L46.5116279,56.3431517 C46.124031,56.3431517 45.7364341,56.3431517 45.7364341,56.3431517 C45.7364341,56.3431517 45.3488372,56.3431517 45.3488372,55.9484536 C45.3488372,55.9484536 44.9612403,55.5537555 44.5736434,54.7643594 C44.1860465,54.3696613 43.7984496,53.5802651 43.7984496,52.3961708 L29.0697674,12.1369661 C28.2945736,9.76877761 27.1317829,7.79528719 26.3565891,6.21649485 C25.1937984,4.6377025 24.0310078,3.45360825 22.8682171,2.26951399 C21.7054264,1.48011782 20.1550388,0.690721649 18.6046512,0.296023564 C16.2790698,-0.0986745214 13.5658915,-0.0986745214 10.4651163,0.296023564 C8.91472868,0.690721649 7.75193798,1.08541973 6.58914729,1.08541973 L5.42635659,1.87481591 L5.42635659,12.5316642 L8.13953488,11.742268 C8.91472868,11.34757 9.68992248,11.34757 10.8527132,10.9528719 C12.4031008,10.5581738 13.9534884,10.5581738 14.7286822,10.9528719 C15.1162791,10.9528719 15.503876,11.34757 15.8914729,11.742268 C16.2790698,12.1369661 16.6666667,12.5316642 17.0542636,13.3210604 C17.4418605,14.1104566 17.8294574,15.2945508 18.2170543,16.4786451 L19.379845,20.4256259 L0,66.6053019 L12.7906977,66.6053019 L24.8062016,37.0029455 L25.1937984,36.2135493 L32.5581395,56.7378498 C33.3333333,58.3166421 33.7209302,59.8954345 34.496124,61.0795287 C35.2713178,62.263623 36.0465116,63.4477172 36.8217054,64.2371134 C37.5968992,65.0265096 38.7596899,65.8159057 39.9224806,66.2106038 C41.0852713,66.6053019 42.248062,67 43.7984496,67 C45.3488372,67 46.8992248,67 48.4496124,66.6053019 L50,66.2106038 L50,55.9484536 L47.6744186,56.3431517 Z" id="Path"></path>
                </g>
            </g>
        </g>
    </g>
</svg>