<?xml version="1.0" encoding="UTF-8"?>
<svg width="643px" height="599px" viewBox="0 0 643 599" version="1.1" xmlns="http://www.w3.org/2000/svg" xmlns:xlink="http://www.w3.org/1999/xlink">
    <!-- Generator: Sketch 59.1 (86144) - https://sketch.com -->
    <title>t-lightweight-sessions</title>
    <desc>Created with Sketch.</desc>
    <g id="Page-1" stroke="none" stroke-width="1" fill="none" fill-rule="evenodd">
        <g id="t-lightweight-sessions" transform="translate(-84.000000, -117.000000)" fill-rule="nonzero">
            <g id="SUPPLY-CHAIN-MANAGEMENT" transform="translate(127.000000, 117.000000)">
                <path d="M275.170704,119.738145 L283.789928,119.738145 L283.789928,111.11748 L275.170704,111.11748 L275.170704,119.738145 L275.170704,119.738145 Z M275.170704,154.220801 L283.789928,154.220801 L283.789928,145.600137 L275.170704,145.600137 L275.170704,154.220801 L275.170704,154.220801 Z M275.170704,93.8761523 L275.170704,102.496816 L283.789928,102.496816 L283.789928,93.8761523 L275.170704,93.8761523 Z M275.170704,136.979473 L283.789928,136.979473 L283.789928,128.358809 L275.170704,128.358809 L275.170704,136.979473 L275.170704,136.979473 Z" id="Shape" fill="#4A555F"></path>
                <path d="M275.170704,471.828594 L283.789928,471.828594 L283.789928,463.20793 L275.170704,463.20793 L275.170704,471.828594 L275.170704,471.828594 Z M275.170704,489.068691 L283.789928,489.068691 L283.789928,480.448027 L275.170704,480.448027 L275.170704,489.068691 L275.170704,489.068691 Z M275.170704,506.31002 L283.789928,506.31002 L283.789928,497.689355 L275.170704,497.689355 L275.170704,506.31002 L275.170704,506.31002 Z M275.170704,454.587266 L283.789928,454.587266 L283.789928,445.966602 L275.170704,445.966602 L275.170704,454.587266 L275.170704,454.587266 Z" id="Shape" fill="#4A555F"></path>
                <path d="M427.302586,210.290215 L431.690934,217.709941 L439.109421,213.32209 L434.721072,205.902363 L427.302586,210.290215 Z M464.402401,188.352187 L456.981454,192.737578 L461.363651,200.159766 L468.784599,195.773145 L464.402401,188.352187 Z M442.14202,201.514512 L446.530368,208.934238 L453.948855,204.546387 L449.560507,197.12666 L442.14202,201.514512 Z" id="Shape" fill="#4A555F"></path>
                <path d="M87.4965197,408.468281 L91.8848684,415.888008 L99.3033553,411.500156 L94.9150066,404.08043 L87.4965197,408.468281 Z M102.335954,399.693809 L106.724303,407.113535 L114.142789,402.725684 L109.754441,395.305957 L102.335954,399.693809 Z M117.175388,390.918105 L121.563737,398.337832 L128.982224,393.94998 L124.593875,386.530254 L117.175388,390.918105 Z" id="Shape" fill="#4A555F"></path>
                <path d="M426.895368,387.683203 L434.471329,391.79666 L438.584099,384.220664 L431.008138,380.107207 L426.895368,387.683203 Z M461.307059,396.559805 L457.194289,404.135801 L464.77025,408.250488 L468.88302,400.673262 L461.307059,396.559805 Z M442.046059,395.907656 L449.618329,400.021113 L453.731099,392.447578 L446.158829,388.334121 L442.046059,395.907656 Z" id="Shape" fill="#4A555F"></path>
                <path d="M84.3790329,201.664629 L91.9549934,205.778086 L96.0677632,198.200859 L88.4918026,194.087402 L84.3790329,201.664629 Z M99.5272632,209.892773 L107.103224,214.005 L111.215993,206.427773 L103.640033,202.315547 L99.5272632,209.892773 Z M114.677954,218.117227 L122.250224,222.231914 L126.362993,214.658379 L118.790724,210.543691 L114.677954,218.117227 Z" id="Shape" fill="#4A555F"></path>
                <path d="M279.480316,0 C257.598855,0 239.796947,17.8048828 239.796947,39.69 C239.796947,61.5775781 257.598855,79.3824609 279.480316,79.3824609 C301.361776,79.3824609 319.163684,61.5775781 319.163684,39.69 C319.163684,17.8048828 301.361776,0 279.480316,0 Z M279.480316,70.7617969 C262.351362,70.7617969 248.414941,56.8230469 248.414941,39.69 C248.414941,22.5581836 262.351362,8.62066406 279.480316,8.62066406 C296.60927,8.62066406 310.545691,22.5594141 310.545691,39.69 C310.545691,56.8242773 296.60927,70.7617969 279.480316,70.7617969 Z" id="Shape" fill="#4A555F"></path>
                <path d="M279.479086,18.6785156 C267.894928,18.6785156 258.469882,28.1039062 258.469882,39.6912305 C258.469882,51.2785547 267.894928,60.7039453 279.479086,60.7039453 C291.063243,60.7039453 300.488289,51.2785547 300.488289,39.6912305 C300.488289,28.1051367 291.063243,18.6785156 279.479086,18.6785156 Z" id="Path" fill="#E88C59"></path>
                <path d="M279.480316,519.617539 C257.598855,519.617539 239.796947,537.422422 239.796947,559.31 C239.796947,581.195117 257.598855,599 279.480316,599 C301.361776,599 319.163684,581.195117 319.163684,559.31 C319.163684,537.422422 301.361776,519.617539 279.480316,519.617539 Z M279.480316,590.379336 C262.351362,590.379336 248.414941,576.440586 248.414941,559.31 C248.414941,542.176953 262.351362,528.238203 279.480316,528.238203 C296.60927,528.238203 310.545691,542.176953 310.545691,559.31 C310.545691,576.441816 296.60927,590.379336 279.480316,590.379336 Z" id="Shape" fill="#4A555F"></path>
                <path d="M279.479086,538.296055 C267.894928,538.296055 258.469882,547.721445 258.469882,559.30877 C258.469882,570.896094 267.894928,580.321484 279.479086,580.321484 C291.063243,580.321484 300.488289,570.896094 300.488289,559.30877 C300.488289,547.721445 291.063243,538.296055 279.479086,538.296055 Z" id="Path" fill="#E88C59"></path>
                <path d="M553.963099,147.125332 C546.982586,134.460117 533.652684,126.5925 519.181099,126.5925 C512.525375,126.5925 505.91025,128.301621 500.049276,131.532832 C490.768171,136.651582 484.033711,145.080293 481.088461,155.264883 C478.145671,165.448242 479.342717,176.170547 484.460612,185.453203 C491.441125,198.118418 504.771026,205.987266 519.242612,205.987266 C525.898336,205.987266 532.513461,204.278145 538.374434,201.046934 C557.534553,190.480898 564.529829,166.289883 553.963099,147.125332 Z M534.211224,193.499238 C529.623572,196.029082 524.447855,197.367832 519.242612,197.367832 C507.910658,197.367832 497.473105,191.208105 492.007046,181.292988 C488.000079,174.024609 487.063849,165.631582 489.369362,157.659375 C491.672414,149.687168 496.945322,143.089395 504.211257,139.082988 C508.798908,136.553145 513.974625,135.214395 519.179868,135.214395 C530.511822,135.214395 540.949375,141.374121 546.415434,151.288008 C554.686493,166.289883 549.210592,185.226797 534.211224,193.499238 Z" id="Shape" fill="#4A555F"></path>
                <path d="M537.612901,156.145898 C533.91227,149.437383 526.850559,145.271016 519.178638,145.271016 C515.620717,145.271016 512.217809,146.152031 509.067105,147.889453 C504.152204,150.600176 500.588132,155.061855 499.028158,160.45377 C497.468184,165.845684 498.10177,171.521836 500.81573,176.437559 C504.511441,183.143613 511.573151,187.30998 519.243842,187.30998 C522.804224,187.30998 526.204671,186.428965 529.355375,184.691543 C534.271507,181.98082 537.834349,177.519141 539.394322,172.127227 C540.954296,166.734082 540.31948,161.05916 537.612901,156.145898 Z" id="Path" fill="#E88C59"></path>
                <path d="M74.4975592,414.546797 C67.5170461,401.881582 54.1871447,394.012734 39.7155592,394.012734 C33.0610658,394.012734 26.4447105,395.721855 20.5837368,398.953066 C1.42361842,409.521563 -5.56796711,433.712578 4.99507237,452.875898 C11.9755855,465.541113 25.3054868,473.40873 39.7770724,473.40873 C46.4327961,473.40873 53.0479211,471.70084 58.9088947,468.468398 C68.19,463.349648 74.9244605,454.920938 77.8697105,444.736348 C80.8137303,434.551758 79.6154539,423.829453 74.4975592,414.546797 Z M69.5875789,442.341855 C67.2845263,450.314063 62.0116184,456.911836 54.7456842,460.918242 C50.1580329,463.449316 44.9823158,464.786836 39.7770724,464.786836 C28.4451184,464.786836 18.0075658,458.627109 12.5415066,448.713223 C4.27290789,433.711348 9.74757895,414.775664 24.7457171,406.500762 C29.3333684,403.970918 34.5090855,402.632168 39.7143289,402.632168 C51.0462829,402.632168 61.4838355,408.791895 66.9498947,418.707012 C70.9568618,425.975391 71.8943224,434.368418 69.5875789,442.341855 Z" id="Shape" fill="#4A555F"></path>
                <path d="M58.1449013,423.562441 C54.4504211,416.856387 47.3874803,412.69002 39.7167895,412.69002 C36.1564079,412.69002 32.7535,413.571035 29.6027961,415.308457 C24.6903553,418.01918 21.1238224,422.479629 19.5675395,427.871543 C18.0075658,433.263457 18.6411513,438.94084 21.3514211,443.855332 C25.0459013,450.561387 32.1088421,454.728984 39.7795329,454.728984 C43.3399145,454.728984 46.7428224,453.847969 49.8910658,452.110547 C60.0358158,446.515605 63.7389079,433.708887 58.1449013,423.562441 Z" id="Path" fill="#E88C59"></path>
                <path d="M538.374434,395.94457 C532.513461,392.713359 525.897105,391.004238 519.242612,391.004238 C504.771026,391.004238 491.441125,398.873086 484.460612,411.538301 C479.342717,420.820957 478.144441,431.543262 481.088461,441.726621 C484.034941,451.911211 490.768171,460.339922 500.049276,465.458672 C505.91025,468.689883 512.526605,470.399004 519.181099,470.399004 C533.652684,470.399004 546.982586,462.530156 553.963099,449.866172 C564.526138,430.702852 557.534553,406.511836 538.374434,395.94457 Z M546.415434,445.704727 C540.949375,455.618613 530.513053,461.77834 519.179868,461.77834 C513.975855,461.77834 508.798908,460.43959 504.211257,457.909746 C496.944092,453.902109 491.672414,447.305566 489.369362,439.333359 C487.062618,431.361152 488.000079,422.968125 492.007046,415.699746 C497.473105,405.783398 507.909428,399.624902 519.242612,399.624902 C524.446625,399.624902 529.623572,400.963652 534.211224,403.493496 C549.210592,411.767168 554.684033,430.702852 546.415434,445.704727 Z" id="Shape" fill="#4A555F"></path>
                <path d="M539.394322,424.865508 C537.834349,419.473594 534.271507,415.011914 529.352914,412.301191 C526.204671,410.56377 522.804224,409.682754 519.243842,409.682754 C511.573151,409.682754 504.511441,413.849121 500.81327,420.556406 C498.103,425.470898 497.468184,431.147051 499.029388,436.538965 C500.589362,441.929648 504.152204,446.391328 509.068336,449.102051 C512.219039,450.839473 515.623178,451.720488 519.182329,451.720488 C526.85302,451.720488 533.91227,447.555352 537.610441,440.848066 C540.31948,435.932344 540.954296,430.257422 539.394322,424.865508 Z" id="Path" fill="#E88C59"></path>
                <path d="M58.9088947,134.541328 C53.0479211,131.310117 46.4315658,129.600996 39.7770724,129.600996 C25.3054868,129.600996 11.9755855,137.469844 4.99507237,150.135059 C-5.57165789,169.299609 1.42361842,193.488164 20.5837368,204.05543 C26.4447105,207.286641 33.0610658,208.995762 39.7155592,208.995762 C54.1871447,208.995762 67.5170461,201.126914 74.4975592,188.46293 C85.0642895,169.297148 78.0690132,145.106133 58.9088947,134.541328 Z M66.9498947,184.301484 C61.4838355,194.215371 51.0475132,200.375098 39.7143289,200.375098 C34.5103158,200.375098 29.3333684,199.036348 24.7457171,196.506504 C9.74634868,188.234062 4.26921711,169.299609 12.5415066,154.296504 C18.0075658,144.381387 28.4438882,138.22166 39.7770724,138.22166 C44.9823158,138.22166 50.1580329,139.56041 54.7456842,142.090254 C69.7475132,150.361465 75.2221842,169.297148 66.9498947,184.301484 Z" id="Shape" fill="#4A555F"></path>
                <path d="M49.8922961,150.897949 C46.7415921,149.160527 43.3386842,148.279512 39.7783026,148.279512 C32.1076118,148.279512 25.0459013,152.444648 21.3501908,159.151934 C15.7549539,169.299609 19.4592763,182.105098 29.6015658,187.698809 C32.7522697,189.43623 36.1564079,190.317246 39.7155592,190.317246 C39.7155592,190.317246 39.7155592,190.317246 39.7180197,190.317246 C47.38625,190.317246 54.4479605,186.152109 58.1436711,179.444824 C63.7389079,169.298379 60.0358158,156.49166 49.8922961,150.897949 Z" id="Path" fill="#E88C59"></path>
            </g>
            <g id="SUPPLY-CHAIN-MANAGEMENT" transform="translate(405.380645, 416.664780) rotate(30.000000) translate(-405.380645, -416.664780) translate(120.380645, 101.164780)">
                <path d="M281.125402,119.756246 L289.743212,119.756246 L289.743212,111.134278 L281.125402,111.134278 L281.125402,119.756246 L281.125402,119.756246 Z M281.125402,154.244115 L289.743212,154.244115 L289.743212,145.622147 L281.125402,145.622147 L281.125402,154.244115 L281.125402,154.244115 Z M281.125402,93.8903438 L281.125402,102.512311 L289.743212,102.512311 L289.743212,93.8903438 L281.125402,93.8903438 Z M281.125402,137.00018 L289.743212,137.00018 L289.743212,128.378213 L281.125402,128.378213 L281.125402,137.00018 L281.125402,137.00018 Z" id="Shape" fill="#4A555F"></path>
                <path d="M281.125402,502.904607 L289.743212,502.904607 L289.743212,494.28264 L281.125402,494.28264 L281.125402,502.904607 L281.125402,502.904607 Z M281.125402,520.147311 L289.743212,520.147311 L289.743212,511.525344 L281.125402,511.525344 L281.125402,520.147311 L281.125402,520.147311 Z M281.125402,537.391246 L289.743212,537.391246 L289.743212,528.769278 L281.125402,528.769278 L281.125402,537.391246 L281.125402,537.391246 Z M281.125402,485.660673 L289.743212,485.660673 L289.743212,477.038705 L281.125402,477.038705 L281.125402,485.660673 L281.125402,485.660673 Z" id="Shape" fill="#4A555F"></path>
                <path d="M438.428481,222.324272 L442.816109,229.745121 L450.233379,225.356606 L445.845751,217.935757 L438.428481,222.324272 Z M423.591481,231.100071 L427.979109,238.52092 L435.396379,234.132405 L431.008751,226.711557 L423.591481,231.100071 Z M475.522211,200.382929 L468.102481,204.768982 L472.483959,212.192292 L479.903689,207.805007 L475.522211,200.382929 Z M453.265481,213.547243 L457.653109,220.968091 L465.070379,216.579576 L460.682751,209.158728 L453.265481,213.547243 Z" id="Shape" fill="#4A555F"></path>
                <path d="M87.4198252,427.032298 L91.8074541,434.453146 L99.224724,430.064631 L94.8370952,422.643783 L87.4198252,427.032298 Z M102.256825,418.256499 L106.644454,425.677347 L114.061724,421.288832 L109.674095,413.867984 L102.256825,418.256499 Z M117.093825,409.479469 L121.481454,416.900317 L128.898724,412.511802 L124.511095,405.090954 L117.093825,409.479469 Z M139.350555,396.315155 L131.930825,400.701208 L136.312304,408.124518 L143.732034,403.738464 L139.350555,396.315155 Z" id="Shape" fill="#4A555F"></path>
                <path d="M432.825178,402.744077 L440.399896,406.858156 L444.511991,399.281015 L436.937273,395.166936 L432.825178,402.744077 Z M467.231224,411.622021 L463.119129,419.199162 L470.693847,423.314472 L474.805942,415.7361 L467.231224,411.622021 Z M417.679433,394.514689 L425.25415,398.628768 L429.366245,391.051626 L421.791528,386.937548 L417.679433,394.514689 Z M447.973383,410.969774 L455.544411,415.083853 L459.656506,407.509173 L452.085479,403.395094 L447.973383,410.969774 Z" id="Shape" fill="#4A555F"></path>
                <path d="M90.3650276,216.697382 L97.9397454,220.811461 L102.05184,213.233089 L94.4771227,209.11901 L90.3650276,216.697382 Z M105.510773,224.926771 L113.085491,229.039619 L117.197586,221.461247 L109.622868,217.348399 L105.510773,224.926771 Z M139.918049,233.805945 L135.805954,241.383086 L143.380672,245.498396 L147.492767,237.921254 L139.918049,233.805945 Z M120.658979,233.152467 L128.230006,237.267777 L132.342101,229.693097 L124.771074,225.577787 L120.658979,233.152467 Z" id="Shape" fill="#4A555F"></path>
                <path d="M285.434307,4.54747351e-13 C263.556436,4.54747351e-13 245.757448,17.8075744 245.757448,39.696 C245.757448,61.5868869 263.556436,79.3944613 285.434307,79.3944613 C307.312178,79.3944613 325.111166,61.5868869 325.111166,39.696 C325.111166,17.8075744 307.312178,4.54747351e-13 285.434307,4.54747351e-13 Z M285.434307,70.772494 C268.308163,70.772494 254.374028,56.8316369 254.374028,39.696 C254.374028,22.5615938 268.308163,8.62196726 285.434307,8.62196726 C302.560451,8.62196726 316.494586,22.5628244 316.494586,39.696 C316.494586,56.8328676 302.560451,70.772494 285.434307,70.772494 Z" id="Shape" fill="#4A555F"></path>
                <path d="M285.433077,18.6813393 C273.850819,18.6813393 264.427319,28.1081548 264.427319,39.6972307 C264.427319,51.2863065 273.850819,60.713122 285.433077,60.713122 C297.015334,60.713122 306.438834,51.2863065 306.438834,39.6972307 C306.438834,28.1093854 297.015334,18.6813393 285.433077,18.6813393 Z" id="Path" fill="#E88C59"></path>
                <path d="M285.434307,550.700777 C263.556436,550.700777 245.757448,568.508351 245.757448,590.399238 C245.757448,612.287664 263.556436,630.095238 285.434307,630.095238 C307.312178,630.095238 325.111166,612.287664 325.111166,590.399238 C325.111166,568.508351 307.312178,550.700777 285.434307,550.700777 Z M285.434307,621.473271 C268.308163,621.473271 254.374028,607.532414 254.374028,590.399238 C254.374028,573.263601 268.308163,559.322744 285.434307,559.322744 C302.560451,559.322744 316.494586,573.263601 316.494586,590.399238 C316.494586,607.533644 302.560451,621.473271 285.434307,621.473271 Z" id="Shape" fill="#4A555F"></path>
                <path d="M285.433077,569.382116 C273.850819,569.382116 264.427319,578.808932 264.427319,590.398007 C264.427319,601.987083 273.850819,611.413899 285.433077,611.413899 C297.015334,611.413899 306.438834,601.987083 306.438834,590.398007 C306.438834,578.808932 297.015334,569.382116 285.433077,569.382116 Z" id="Path" fill="#E88C59"></path>
                <path d="M565.068217,159.149841 C558.088849,146.482711 544.761134,138.613905 530.291922,138.613905 C523.63729,138.613905 517.023251,140.323284 511.163238,143.554984 C501.883655,148.674507 495.1503,157.104493 492.205533,167.290622 C489.263226,177.475521 490.460076,188.199446 495.577131,197.483506 C502.556499,210.150635 515.884214,218.020673 530.353425,218.020673 C537.008057,218.020673 543.622097,216.311293 549.482109,213.079594 C568.639085,202.511961 575.633214,178.317289 565.068217,159.149841 Z M545.319582,205.530757 C540.732683,208.060984 535.557815,209.399936 530.353425,209.399936 C519.02333,209.399936 508.58749,203.239278 503.122327,193.322662 C499.116017,186.053185 498.179941,177.658888 500.485076,169.685476 C502.787751,161.712064 508.059794,155.113293 515.324536,151.106281 C519.911435,148.576055 525.086303,147.237103 530.290692,147.237103 C541.620787,147.237103 552.056628,153.39776 557.52179,163.313146 C565.791493,178.317289 560.31649,197.257065 545.319582,205.530757 Z" id="Shape" fill="#4A555F"></path>
                <path d="M548.720702,168.171771 C545.020677,161.462241 537.960125,157.295244 530.289462,157.295244 C526.732125,157.295244 523.329775,158.176393 520.179588,159.914077 C515.265493,162.62521 511.702005,167.087564 510.142287,172.480293 C508.58257,177.873022 509.216051,183.550033 511.929567,188.466499 C515.624671,195.173567 522.685223,199.340564 530.354655,199.340564 C533.914453,199.340564 537.314343,198.459415 540.46453,196.721731 C545.379855,194.010598 548.942113,189.548244 550.50183,184.155515 C552.061548,178.761555 551.426836,173.085775 548.720702,168.171771 Z" id="Path" fill="#E88C59"></path>
                <path d="M74.422997,433.111732 C67.4436289,420.444603 54.1159142,412.574565 39.6467025,412.574565 C32.9933007,412.574565 26.3780308,414.283945 20.5180185,417.515644 C1.36104303,428.085738 -5.62939562,452.280411 4.93191113,471.446628 C11.9112792,484.113757 25.238994,491.982564 39.7082056,491.982564 C46.3628375,491.982564 52.9768774,490.274415 58.8368897,487.041485 C68.1164725,481.921961 74.8498283,473.491976 77.7945952,463.305847 C80.738132,453.119717 79.5400522,442.395792 74.422997,433.111732 Z M69.5138222,460.910993 C67.2111473,468.884405 61.9391044,475.483176 54.6743621,479.490188 C50.0874633,482.021644 44.9125952,483.359366 39.7082056,483.359366 C28.3781105,483.359366 17.94227,477.198708 12.4771074,467.283323 C4.20986512,452.27918 9.68363812,433.340634 24.679316,425.064481 C29.2662148,422.534254 34.4410829,421.195302 39.6454725,421.195302 C50.9755676,421.195302 61.4114081,427.35596 66.8765706,437.272576 C70.8828805,444.542054 71.8201872,452.93635 69.5138222,460.910993 Z" id="Shape" fill="#4A555F"></path>
                <path d="M58.0730216,442.12874 C54.3791473,435.421671 47.3173651,431.254674 39.6479326,431.254674 C36.0881351,431.254674 32.6857854,432.135823 29.5355982,433.873507 C24.6239633,436.58464 21.0580154,441.045763 19.5019878,446.438493 C17.94227,451.831222 18.5757516,457.509463 21.2855768,462.424698 C24.979451,469.131766 32.0412332,473.299994 39.7106657,473.299994 C43.2704633,473.299994 46.672813,472.418845 49.82054,470.681161 C59.9636259,465.085374 63.6661105,452.276719 58.0730216,442.12874 Z" id="Path" fill="#E88C59"></path>
                <path d="M544.285957,411.006693 C538.425945,407.774994 531.810675,406.065615 525.157273,406.065615 C510.688061,406.065615 497.360347,413.935652 490.380979,426.602781 C485.263923,435.886841 484.065844,446.610766 487.00938,456.795665 C489.955377,466.981795 496.687503,475.41178 505.967086,480.531304 C511.827098,483.763003 518.442368,485.472382 525.09577,485.472382 C539.564982,485.472382 552.892696,477.602345 559.872064,464.936446 C570.433371,445.770229 563.442933,421.575557 544.285957,411.006693 Z M552.325638,460.774372 C546.860475,470.689757 536.425865,476.850415 525.09454,476.850415 C519.89138,476.850415 514.715282,475.511463 510.128383,472.981237 C502.862411,468.972994 497.591598,462.375454 495.288923,454.402042 C492.982558,446.428629 493.919865,438.034333 497.926175,430.764856 C503.391337,420.847009 513.825948,414.687582 525.157273,414.687582 C530.360433,414.687582 535.536531,416.026534 540.123429,418.55676 C555.120337,426.831683 560.59288,445.770229 552.325638,460.774372 Z" id="Shape" fill="#4A555F"></path>
                <path d="M545.305678,439.932003 C543.74596,434.539274 540.183702,430.07692 535.265917,427.365787 C532.11819,425.628103 528.718301,424.746954 525.158503,424.746954 C517.489071,424.746954 510.428518,428.913951 506.730954,435.62225 C504.021129,440.537485 503.386417,446.214496 504.947365,451.607225 C506.507083,456.998723 510.06934,461.461077 514.984666,464.17221 C518.134853,465.909894 521.538433,466.791043 525.097,466.791043 C532.766433,466.791043 539.824525,462.625277 543.522089,455.916978 C546.230684,451.000512 546.865396,445.324732 545.305678,439.932003 Z" id="Path" fill="#E88C59"></path>
                <path d="M64.8990675,149.563935 C59.0390552,146.332235 52.4237853,144.622856 45.7703834,144.622856 C31.3011718,144.622856 17.9734571,152.492893 10.994089,165.160022 C0.429092025,184.32747 7.42322086,208.519682 26.5801963,219.088545 C32.4402086,222.320244 39.0554785,224.029624 45.7088804,224.029624 C60.178092,224.029624 73.5058067,216.159586 80.4851748,203.493688 C91.0501718,184.325009 84.0560429,160.130336 64.8990675,149.563935 Z M72.9387485,199.331613 C67.4735859,209.246999 57.0389755,215.407656 45.7076503,215.407656 C40.5044908,215.407656 35.3283926,214.068704 30.7414939,211.538478 C15.7445859,203.264786 10.2683528,184.32747 18.5392853,169.322097 C24.0044479,159.405481 34.4390583,153.244823 45.7703834,153.244823 C50.974773,153.244823 56.1496411,154.583775 60.7365399,157.114001 C75.735908,165.386463 81.209681,184.325009 72.9387485,199.331613 Z" id="Shape" fill="#4A555F"></path>
                <path d="M55.8839479,165.923028 C52.7337607,164.185344 49.331411,163.304195 45.7716135,163.304195 C38.102181,163.304195 31.0416288,167.469961 27.3465245,174.17826 C21.7522055,184.32747 25.4559202,197.134894 35.596546,202.729451 C38.7467331,204.467135 42.1503129,205.348284 45.7088804,205.348284 C45.7088804,205.348284 45.7088804,205.348284 45.7113405,205.348284 C53.3783129,205.348284 60.438865,201.182518 64.1339693,194.474219 C69.7282883,184.32624 66.0258037,171.517585 55.8839479,165.923028 Z" id="Path" fill="#E88C59"></path>
            </g>
            <g id="Group-2" transform="translate(271.000000, 300.000000)">
                <path d="M266.842941,88 L0,88 L0,0 L267,0 L267,88 L266.842941,88 Z M9.42352941,78.5035971 L257.576471,78.5035971 L257.576471,9.49640288 L9.42352941,9.49640288 L9.42352941,78.5035971 Z" id="Shape" fill="#4A555F"></path>
                <rect id="Rectangle" fill="#666288" x="133" y="20" width="113" height="46"></rect>
                <path d="M266.842941,166 L0,166 L0,78 L267,78 L267,166 L266.842941,166 Z M9.42352941,156.571429 L257.576471,156.571429 L257.576471,87.4285714 L9.42352941,87.4285714 L9.42352941,156.571429 Z" id="Shape" fill="#4A555F"></path>
                <rect id="Rectangle" fill="#666288" x="133" y="99" width="113" height="47"></rect>
                <path d="M43,57 C35.3777778,57 29,50.7777778 29,43 C29,35.2222222 35.2222222,29 43,29 C50.7777778,29 57,35.2222222 57,43 C57,50.7777778 50.7777778,57 43,57 Z M43,38.4888889 C40.5111111,38.4888889 38.3333333,40.5111111 38.3333333,43.1555556 C38.3333333,45.8 40.3555556,47.8222222 43,47.8222222 C45.4888889,47.8222222 47.6666667,45.8 47.6666667,43.1555556 C47.6666667,40.5111111 45.6444444,38.4888889 43,38.4888889 Z" id="Shape" fill="#4A555F"></path>
                <path d="M224,57 C216.377778,57 210,50.7777778 210,43 C210,35.2222222 216.222222,29 224,29 C231.777778,29 238,35.2222222 238,43 C238,50.7777778 231.622222,57 224,57 Z M224,38.4888889 C221.511111,38.4888889 219.333333,40.5111111 219.333333,43.1555556 C219.333333,45.8 221.355556,47.8222222 224,47.8222222 C226.488889,47.8222222 228.666667,45.8 228.666667,43.1555556 C228.666667,40.5111111 226.488889,38.4888889 224,38.4888889 Z" id="Shape" fill="#FFFFFF"></path>
                <path d="M43,136 C35.3777778,136 29,129.777778 29,122 C29,114.222222 35.2222222,108 43,108 C50.7777778,108 57,114.222222 57,122 C57,129.777778 50.7777778,136 43,136 Z M43,117.488889 C40.5111111,117.488889 38.3333333,119.511111 38.3333333,122.155556 C38.3333333,124.644444 40.3555556,126.822222 43,126.822222 C45.4888889,126.822222 47.6666667,124.8 47.6666667,122.155556 C47.6666667,119.511111 45.6444444,117.488889 43,117.488889 Z" id="Shape" fill="#4A555F"></path>
                <path d="M224,136 C216.377778,136 210,129.777778 210,122 C210,114.222222 216.222222,108 224,108 C231.777778,108 238,114.222222 238,122 C238,129.777778 231.622222,136 224,136 Z M224,117.488889 C221.511111,117.488889 219.333333,119.511111 219.333333,122.155556 C219.333333,124.644444 221.355556,126.822222 224,126.822222 C226.488889,126.822222 228.666667,124.8 228.666667,122.155556 C228.666667,119.511111 226.488889,117.488889 224,117.488889 Z" id="Shape" fill="#FFFFFF"></path>
                <path d="M74,206 L48,206 L48,156 L74,156 L74,206 Z M57.4545455,196.68323 L64.7030303,196.68323 L64.7030303,165.31677 L57.4545455,165.31677 L57.4545455,196.68323 Z" id="Shape" fill="#4A555F"></path>
                <path d="M212,206 L186,206 L186,156 L212,156 L212,206 Z M195.554217,196.68323 L202.759036,196.68323 L202.759036,165.31677 L195.554217,165.31677 L195.554217,196.68323 Z" id="Shape" fill="#4A555F"></path>
                <path d="M266.842941,230 L0,230 L0,197 L267,197 L267,230 L266.842941,230 Z M9.42352941,220.480769 L257.576471,220.480769 L257.576471,206.519231 L9.42352941,206.519231 L9.42352941,220.480769 Z" id="Shape" fill="#4A555F"></path>
            </g>
        </g>
    </g>
</svg>