<?xml version="1.0" encoding="UTF-8"?>
<svg width="627px" height="508px" viewBox="0 0 627 508" version="1.1" xmlns="http://www.w3.org/2000/svg" xmlns:xlink="http://www.w3.org/1999/xlink">
    <!-- Generator: Sketch 59.1 (86144) - https://sketch.com -->
    <title>t-login-detection</title>
    <desc>Created with Sketch.</desc>
    <g id="Page-1" stroke="none" stroke-width="1" fill="none" fill-rule="evenodd">
        <g id="t-login-detection">
            <g id="KEYWORD-ANALYSIS" fill-rule="nonzero">
                <g id="Group">
                    <path d="M466.455462,416.35 L38.2689076,416.35 C17.2210084,416.35 0,399.1375 0,378.1 L0,39.1625 C0,18.125 17.2210084,0.9125 38.2689076,0.9125 L466.668067,0.9125 C487.715966,0.9125 504.72437,17.9125 504.72437,38.95 L504.72437,346.8625 L460.715126,302.875 L460.715126,51.7 L46.3478992,51.7 L46.3478992,332.4125 L431.37563,332.4125 L498.346218,399.35 L496.432773,401.6875 C488.991597,411.0375 478.148739,416.35 466.455462,416.35 Z M38.2689076,7.925 C21.0478992,7.925 7.01596639,21.95 7.01596639,39.1625 L7.01596639,378.1 C7.01596639,395.3125 21.0478992,409.3375 38.2689076,409.3375 L466.455462,409.3375 C474.959664,409.3375 483.038655,405.9375 488.991597,399.775 L482.82605,393.6125 L428.39916,339.2125 L39.3319328,339.2125 L39.3319328,44.6875 L467.731092,44.6875 L467.731092,300.1125 L497.708403,330.075 L497.708403,38.95 C497.708403,21.7375 483.676471,7.925 466.668067,7.925 L38.2689076,7.925 Z" id="Shape" fill="#4A555F"></path>
                    <path d="M489.204202,326.4625 L489.204202,36.1875 C489.204202,30.6625 486.865546,25.5625 483.251261,22.1625 C479.636975,18.55 474.747059,16.2125 469.219328,16.2125 L38.2689076,16.2125 C25.512605,16.2125 15.307563,26.4125 15.307563,39.1625 L15.307563,378.1 C15.307563,390.85 25.512605,401.05 38.2689076,401.05 L466.455462,401.05 C474.321849,401.05 481.12521,397.225 485.164706,391.275 L441.580672,347.7125 L30.8277311,347.7125 L30.8277311,36.1875 L476.022689,36.1875 L476.022689,313.2875 L489.204202,326.4625 Z" id="Path" fill="#E0E0E0"></path>
                    <path d="M333.789916,476.0625 L175.611765,476.0625 L203.463025,409.55 L306.151261,409.55 L333.789916,476.0625 Z M186.029412,469.05 L323.372269,469.05 L301.47395,416.35 L207.927731,416.35 L186.029412,469.05 Z" id="Shape" fill="#4A555F"></path>
                    <polygon id="Path" fill="#E0E0E0" points="198.573109 460.55 213.668067 424.85 295.733613 424.85 310.828571 460.55"></polygon>
                    <path d="M398.209244,507.0875 L111.192437,507.0875 L111.192437,469.05 L398.209244,469.05 L398.209244,507.0875 Z M118.208403,500.075 L391.193277,500.075 L391.193277,475.85 L118.208403,475.85 L118.208403,500.075 Z" id="Shape" fill="#4A555F"></path>
                    <rect id="Rectangle" fill="#E0E0E0" x="126.5" y="484.35" width="256.189076" height="7.225"></rect>
                    <rect id="Rectangle" fill="#4A555F" x="16.5831933" y="500.075" width="476.235294" height="7.0125"></rect>
                    <ellipse id="Oval" fill="#FFFFFF" cx="255.12605" cy="374.9125" rx="18.7092437" ry="18.7"></ellipse>
                    <path d="M255.12605,397.0125 C242.794958,397.0125 232.802521,387.025 232.802521,374.7 C232.802521,362.375 242.794958,352.3875 255.12605,352.3875 C267.457143,352.3875 277.44958,362.375 277.44958,374.7 C277.236975,387.025 267.244538,397.0125 255.12605,397.0125 Z M255.12605,359.6125 C246.621849,359.6125 239.818487,366.4125 239.818487,374.9125 C239.818487,383.4125 246.621849,390.2125 255.12605,390.2125 C263.630252,390.2125 270.433613,383.4125 270.433613,374.9125 C270.433613,366.4125 263.417647,359.6125 255.12605,359.6125 Z" id="Shape" fill="#4A555F"></path>
                </g>
                <path d="M101.5,143 C85.2536232,143 72,129.866044 72,113.766355 L72,104.233645 C72,88.1339564 85.2536232,75 101.5,75 C117.746377,75 131,88.1339564 131,104.233645 L131,113.766355 C131,129.866044 117.746377,143 101.5,143 Z M101.5,81.9906542 C89.1014493,81.9906542 79.0543478,91.9470405 79.0543478,104.233645 L79.0543478,113.766355 C79.0543478,126.05296 89.1014493,136.009346 101.5,136.009346 C113.898551,136.009346 123.945652,126.05296 123.945652,113.766355 L123.945652,104.233645 C123.945652,91.9470405 113.898551,81.9906542 101.5,81.9906542 Z" id="Shape" fill="#4A555F"></path>
                <path d="M101.5,126 C93.5144928,126 87,119.329114 87,111.151899 L87,106.848101 C87,98.6708861 93.5144928,92 101.5,92 C109.485507,92 116,98.6708861 116,106.848101 L116,111.151899 C116,119.544304 109.485507,126 101.5,126 Z M101.5,99.3164557 C97.2971014,99.3164557 93.9347826,102.759494 93.9347826,107.063291 L93.9347826,111.367089 C93.9347826,115.670886 97.2971014,119.113924 101.5,119.113924 C105.702899,119.113924 109.065217,115.670886 109.065217,111.367089 L109.065217,107.063291 C109.065217,102.759494 105.702899,99.3164557 101.5,99.3164557 Z" id="Shape" fill="#4A555F"></path>
                <path d="M228,118 L124,118 L124,97 L228,97 L228,118 Z M131.032787,111.142857 L220.967213,111.142857 L220.967213,104.071429 L131.032787,104.071429 L131.032787,111.142857 Z" id="Shape" fill="#4A555F"></path>
                <path d="M196,133 L176,133 L176,111 L196,111 L196,133 Z M182.947368,126.165049 L189.052632,126.165049 L189.052632,118.048544 L182.947368,118.048544 L182.947368,126.165049 Z" id="Shape" fill="#4A555F"></path>
                <path d="M227,133 L207,133 L207,111 L227,111 L227,133 Z M213.947368,126.165049 L220.052632,126.165049 L220.052632,118.048544 L213.947368,118.048544 L213.947368,126.165049 Z" id="Shape" fill="#4A555F"></path>
                <path d="M130,315 L75,315 L75,182 L95.7307692,182 L95.7307692,185.399361 C95.7307692,189.011182 98.6923077,191.985623 102.288462,191.985623 C105.884615,191.985623 108.846154,189.011182 108.846154,185.399361 L108.846154,182 L129.788462,182 L129.788462,315 L130,315 Z M81.7692308,307.988818 L123.019231,307.988818 L123.019231,189.011182 L115.403846,189.011182 C113.923077,194.747604 108.634615,198.996805 102.288462,198.996805 C95.9423077,198.996805 90.8653846,194.747604 89.1730769,189.011182 L81.5576923,189.011182 L81.5576923,307.988818 L81.7692308,307.988818 Z" id="Shape" fill="#4A555F"></path>
                <path d="M90,300 L90,203 C93.5416667,205.552632 97.7083333,207.041667 102.5,207.041667 C107.083333,207.041667 111.458333,205.552632 115,203 L115,300 L90,300 Z" id="Path" fill="#666288"></path>
                <path d="M205,315 L150,315 L150,250 L170.942308,250 L170.942308,253.398693 C170.942308,257.009804 173.903846,259.98366 177.5,259.98366 C181.096154,259.98366 184.057692,257.009804 184.057692,253.398693 L184.057692,250 L205,250 L205,315 Z M156.980769,307.990196 L198.230769,307.990196 L198.230769,256.797386 L190.615385,256.797386 C189.134615,262.53268 183.846154,266.993464 177.5,266.993464 C171.153846,266.993464 166.076923,262.745098 164.384615,256.797386 L156.769231,256.797386 L156.769231,307.990196 L156.980769,307.990196 Z" id="Shape" fill="#4A555F"></path>
                <path d="M165,300 L165,271 C168.541667,273.540146 172.708333,275.021898 177.5,275.021898 C182.291667,275.021898 186.458333,273.540146 190,271 L190,300 L165,300 Z" id="Path" fill="#FFD552"></path>
                <path d="M291,272 L285.526316,267.722892 C282.789474,265.584337 280.052632,263.231928 277.526316,260.665663 C276.052632,259.168675 274.578947,257.671687 273.526316,256.174699 C266.578947,248.048193 261.526316,238.85241 258.368421,228.373494 C257.105263,224.524096 256.263158,220.460843 255.631579,216.183735 L255,211.692771 L259.421053,212.334337 C263.842105,212.334337 267.210526,208.698795 267.210526,204.421687 L267.210526,201 L291,201 L291,272 Z M263,218.963855 C263.421053,221.53012 264.052632,223.88253 264.894737,226.448795 C267.842105,235.858434 272.473684,244.412651 278.789474,251.683735 C279.842105,252.966867 281.105263,254.25 282.368421,255.746988 C283,256.388554 283.421053,256.816265 284.052632,257.457831 L284.052632,208.057229 L273.736842,208.057229 C272.473684,213.403614 268.263158,217.680723 263,218.963855 Z" id="Shape" fill="#4A555F"></path>
                <path d="M314,315 L228,315 L228,234 L234.566502,249.227154 C237.53202,255.994778 241.344828,262.550914 245.793103,268.895561 C249.182266,273.548303 252.995074,278.201044 257.231527,282.219321 C262.950739,287.929504 269.305419,293.005222 276.083744,297.234987 C280.320197,299.984334 284.768473,302.310705 289.428571,304.425587 L314,315 Z M234.990148,308.020888 L281.37931,308.020888 C278.20197,306.54047 275.236453,304.637076 272.270936,302.94517 C265.068966,298.503916 258.29064,293.005222 252.147783,286.872063 C247.699507,282.430809 243.674877,277.778068 240.073892,272.70235 C238.167488,270.164491 236.472906,267.415144 234.778325,264.665796 L234.778325,308.020888 L234.990148,308.020888 Z" id="Shape" fill="#4A555F"></path>
                <path d="M254.598639,284.244604 C260.503401,290.28777 267.040816,295.683453 274,300 L243,300 L243,270 C246.37415,274.964029 250.170068,279.71223 254.598639,284.244604 Z" id="Path" fill="#666288"></path>
                <path d="M276,220 L276,254 C269.043478,246.037975 264.043478,236.78481 261,227.316456 C267.086957,226.886076 272.304348,224.088608 276,220 Z" id="Path" fill="#666288"></path>
                <path d="M333.662651,284 C330.027108,284 326.177711,283.788306 322.542169,283.153226 C318.26506,282.518145 314.201807,281.671371 310.35241,280.40121 L308,279.554435 L308,179 L335.587349,179 L335.587349,182.387097 C335.587349,186.620968 339.222892,190.219758 343.5,190.219758 C347.777108,190.219758 351.412651,186.620968 351.412651,182.387097 L351.412651,179 L379,179 L379,270.028226 L377.503012,271.086694 C373.653614,273.627016 369.376506,275.955645 365.313253,277.649194 C355.262048,281.671371 344.569277,284 333.662651,284 Z M314.843373,274.47379 C317.623494,275.320565 320.61747,275.743952 323.39759,276.167339 C326.819277,276.590726 330.240964,276.802419 333.662651,276.802419 C343.713855,276.802419 353.337349,274.897177 362.533133,270.875 C365.740964,269.604839 368.948795,267.91129 372.156627,266.006048 L372.156627,185.5625 L358.042169,185.5625 C356.545181,191.913306 350.557229,196.782258 343.5,196.782258 C336.442771,196.782258 330.668675,191.913306 328.957831,185.5625 L314.843373,185.5625 L314.843373,274.47379 Z" id="Shape" fill="#4A555F"></path>
                <path d="M364,193 L364,273.754137 C351.120419,279.27942 336.73822,281.192018 323,279.27942 L323,193 L323.643979,193 C327.722513,199.800348 335.020942,204.263077 343.60733,204.263077 C351.979058,204.263077 359.492147,199.800348 363.570681,193 L364,193 Z" id="Path" fill="#E88C59"></path>
                <path d="M102.5,199 C95.1171875,199 89,192.882812 89,185.5 C89,178.117188 95.1171875,172 102.5,172 C109.882813,172 116,178.117188 116,185.5 C115.789063,193.09375 109.882813,199 102.5,199 Z M102.5,178.960938 C98.9140625,178.960938 95.9609375,181.914062 95.9609375,185.5 C95.9609375,189.085937 98.9140625,192.039062 102.5,192.039062 C106.085938,192.039062 109.039063,189.085937 109.039063,185.5 C109.039063,181.914062 106.085938,178.960938 102.5,178.960938 Z" id="Shape" fill="#4A555F"></path>
                <path d="M177.5,267 C170.117188,267 164,260.882812 164,253.5 C164,246.117188 170.117188,240 177.5,240 C184.882812,240 191,246.117188 191,253.5 C191,260.882812 184.882812,267 177.5,267 Z M177.5,246.960938 C173.914062,246.960938 170.960938,249.914062 170.960938,253.5 C170.960938,257.085937 173.914063,260.039062 177.5,260.039062 C181.085938,260.039062 184.039062,257.085937 184.039062,253.5 C184.039062,249.914062 181.085938,246.960938 177.5,246.960938 Z" id="Shape" fill="#4A555F"></path>
                <path d="M258.90566,220 C258.690027,220 258.25876,220 257.827493,220 L255.239892,219.568345 L254.808625,216.978417 C253.730458,208.992806 253.730458,201.007194 254.808625,193.021583 L255.239892,190.431655 L257.827493,190 C258.25876,190 258.474394,190 258.90566,190 C267.09973,190 274,196.690647 274,205.107914 C274,213.309353 267.315364,220 258.90566,220 Z M261.493261,197.553957 C261.061995,202.517986 260.846361,207.697842 261.493261,212.661871 C264.727763,211.582734 266.884097,208.561151 266.884097,205.107914 C266.884097,201.654676 264.727763,198.633094 261.493261,197.553957 Z" id="Shape" fill="#4A555F"></path>
                <path d="M343,197 C334.857143,197 328,190.357143 328,182 C328,173.857143 334.642857,167 343,167 C351.142857,167 358,173.642857 358,182 C358,190.357143 351.357143,197 343,197 Z M343,174.285714 C338.714286,174.285714 335.071429,177.928571 335.071429,182.214286 C335.071429,186.5 338.714286,190.142857 343,190.142857 C347.285714,190.142857 350.928571,186.5 350.928571,182.214286 C350.928571,177.928571 347.5,174.285714 343,174.285714 Z" id="Shape" fill="#4A555F"></path>
                <g id="Group" transform="translate(218.000000, 91.000000)">
                    <path d="M115.529677,229.749351 C84.7522581,229.749351 56.0974194,217.858442 34.2348387,195.987662 C-10.5516129,151.184416 -10.5516129,78.3525974 34.2348387,33.5493506 C55.8851613,11.8909091 84.7522581,0 115.529677,0 C146.307097,0 174.961935,11.8909091 196.824516,33.5493506 C241.610968,78.3525974 241.610968,151.184416 196.824516,195.987662 C174.961935,217.858442 146.094839,229.749351 115.529677,229.749351 Z M115.529677,6.79480519 C86.6625806,6.79480519 59.4935484,18.0487013 39.1167742,38.4331169 C-2.91032258,80.475974 -2.91032258,149.061039 39.1167742,191.103896 C59.4935484,211.488312 86.6625806,222.742208 115.529677,222.742208 C144.396774,222.742208 171.565806,211.488312 191.942581,191.103896 C233.969677,149.061039 233.969677,80.475974 191.942581,38.4331169 C171.353548,18.0487013 144.396774,6.79480519 115.529677,6.79480519 Z M115.529677,193.43961 C94.516129,193.43961 74.776129,185.158442 59.9180645,170.507143 C45.06,155.643506 36.9941935,135.896104 36.9941935,114.874675 C36.9941935,93.8532468 45.2722581,74.1058442 59.9180645,59.2422078 C74.776129,44.3785714 94.516129,36.3097403 115.529677,36.3097403 C136.543226,36.3097403 156.283226,44.5909091 171.14129,59.2422078 C201.706452,89.8188312 201.706452,139.718182 171.14129,170.294805 C156.283226,185.158442 136.543226,193.43961 115.529677,193.43961 Z M115.529677,43.1045455 C96.4264516,43.1045455 78.3845161,50.5363636 64.8,64.125974 C51.2154839,77.7155844 43.7864516,95.5519481 43.7864516,114.874675 C43.7864516,134.197403 51.2154839,152.033766 64.8,165.623377 C78.3845161,179.212987 96.2141935,186.644805 115.529677,186.644805 C134.632903,186.644805 152.674839,179.212987 166.259355,165.623377 C194.065161,137.594805 194.065161,92.1545455 166.259355,64.3383117 C152.674839,50.5363636 134.632903,43.1045455 115.529677,43.1045455 Z" id="Shape" fill="#4A555F"></path>
                    <path d="M115.529677,215.522727 C88.5729032,215.522727 63.3141935,205.118182 44.2109677,186.007792 C4.94322581,146.725325 4.94322581,82.8116883 44.2109677,43.5292208 C63.3141935,24.4188312 88.5729032,14.0142857 115.529677,14.0142857 C142.486452,14.0142857 167.745161,24.4188312 186.848387,43.5292208 C226.116129,82.8116883 226.116129,146.725325 186.848387,186.007792 C167.745161,205.118182 142.486452,215.522727 115.529677,215.522727 Z M115.529677,29.0902597 C92.6058065,29.0902597 71.1677419,38.0084416 54.823871,54.1461039 C38.6922581,70.2837662 29.7774194,91.9422078 29.7774194,114.662338 C29.7774194,137.594805 38.6922581,159.040909 54.823871,175.390909 C70.9554839,191.528571 92.6058065,200.446753 115.317419,200.446753 C138.24129,200.446753 159.679355,191.528571 176.023226,175.390909 C209.347742,141.841558 209.347742,87.4831169 176.023226,54.1461039 C159.891613,38.0084416 138.453548,29.0902597 115.529677,29.0902597 Z" id="Shape" fill="#FFD552"></path>
                    <g transform="translate(183.664516, 182.610390)">
                        <path d="M87.0258065,126.765584 L8.06580645,47.775974 C2.75935484,42.4675325 0,35.4603896 0,28.2409091 C0,20.8090909 2.9716129,13.8019481 8.06580645,8.70584416 C13.3722581,3.3974026 20.3767742,0.637012987 27.5935484,0.637012987 C35.0225806,0.637012987 42.0270968,3.60974026 47.1212903,8.70584416 L126.08129,87.6954545 L87.0258065,126.765584 Z M27.8058065,7.43181818 C22.2870968,7.43181818 16.9806452,9.55519481 13.16,13.5896104 C9.12709677,17.624026 7.00451613,22.7201299 7.00451613,28.2409091 C7.00451613,33.7616883 9.12709677,39.0701299 13.16,42.8922078 L87.2380645,116.998052 L116.741935,87.4831169 L42.4516129,13.3772727 C38.6309677,9.55519481 33.3245161,7.43181818 27.8058065,7.43181818 Z" id="Shape" fill="#4A555F"></path>
                        <path d="M18.0419355,37.7961039 C12.7354839,32.4876623 12.7354839,23.7818182 18.0419355,18.4733766 C20.5890323,15.9253247 23.9851613,14.438961 27.5935484,14.438961 C31.2019355,14.438961 34.5980645,15.9253247 37.1451613,18.4733766 L106.129032,87.4831169 L86.8135484,106.805844 L18.0419355,37.7961039 Z" id="Path" fill="#E88C59"></path>
                        <path d="M108.888387,142.690909 C105.067742,142.690909 101.459355,141.204545 98.7,138.444156 L82.143871,121.881818 L121.411613,82.5993506 L137.967742,99.1616883 C143.69871,104.894805 143.69871,114.025325 137.967742,119.758442 L119.289032,138.444156 C116.529677,141.204545 112.92129,142.690909 108.888387,142.690909 Z M91.9077419,121.881818 L103.581935,133.56039 C106.34129,136.320779 111.435484,136.320779 114.194839,133.56039 L132.873548,114.874675 C135.845161,111.901948 135.845161,107.230519 132.873548,104.257792 L121.199355,92.5792208 L91.9077419,121.881818 Z" id="Shape" fill="#4A555F"></path>
                        <path d="M108.888387,128.464286 C108.676129,128.464286 108.676129,128.464286 108.676129,128.251948 L102.096129,121.669481 L121.411613,102.346753 L127.991613,108.929221 C128.203871,109.141558 128.203871,109.353896 127.991613,109.566234 L109.312903,128.251948 C109.312903,128.464286 109.100645,128.464286 108.888387,128.464286 Z" id="Path" fill="#FFD552"></path>
                    </g>
                </g>
                <path d="M436,78 L428.976676,78 L428.976676,71 L436,71 L436,78 Z M422.166181,78 L415.142857,78 L415.142857,71 L422.166181,71 L422.166181,78 Z M408.119534,78 L401.09621,78 L401.09621,71 L408.119534,71 L408.119534,78 Z M394.285714,78 L387.262391,78 L387.262391,71 L394.285714,71 L394.285714,78 Z M380.451895,78 L373.428571,78 L373.428571,71 L380.451895,71 L380.451895,78 Z M366.618076,78 L359.594752,78 L359.594752,71 L366.618076,71 L366.618076,78 Z M352.571429,78 L345.548105,78 L345.548105,71 L352.571429,71 L352.571429,78 Z M338.737609,78 L331.714286,78 L331.714286,71 L338.737609,71 L338.737609,78 Z M324.90379,78 L317.880466,78 L317.880466,71 L324.90379,71 L324.90379,78 Z M310.857143,78 L304.046647,78 L304.046647,71 L311.069971,71 L311.069971,78 L310.857143,78 Z M297.023324,78 L290,78 L290,71 L297.023324,71 L297.023324,78 Z" id="Shape" fill="#4A555F"></path>
            </g>
            <g id="Not-Secure" transform="translate(471.000000, 337.000000)">
                <circle id="Oval" stroke="#4A555F" stroke-width="13" fill="#C60000" fill-rule="nonzero" cx="74.5" cy="74.5" r="74.5"></circle>
                <circle id="Oval" stroke="#FFFFFF" stroke-width="7" cx="74.5" cy="74.5" r="71"></circle>
                <g id="!" transform="translate(53.000000, 2.000000)" fill="#FFFFFF" font-family="Arial-BoldMT, Arial" font-size="132" font-weight="bold">
                    <g id="Group">
                        <text id="!">
                            <tspan x="0.0214844" y="119">!</tspan>
                        </text>
                    </g>
                </g>
            </g>
        </g>
    </g>
</svg>