<?xml version="1.0" encoding="UTF-8"?>
<svg width="456px" height="459px" viewBox="0 0 456 459" version="1.1" xmlns="http://www.w3.org/2000/svg" xmlns:xlink="http://www.w3.org/1999/xlink">
    <!-- Generator: Sketch 58 (84663) - https://sketch.com -->
    <title>Localization</title>
    <desc>Created with Sketch.</desc>
    <g id="Page-1" stroke="none" stroke-width="1" fill="none" fill-rule="evenodd">
        <g id="User-Experience" transform="translate(-226.000000, -1617.000000)" fill-rule="nonzero">
            <g id="Localization" transform="translate(226.000000, 1617.000000)">
                <path d="M224.440606,415 C191.245232,415 158.049857,405.847386 128.443171,388.618935 C97.2215758,370.49317 71.024145,343.035327 54.8750438,311.270372 C41.7763284,285.60716 34.5989501,257.072539 34.0606467,228.717381 C32.8046055,180.082902 51.1069202,131.448422 84.4817293,95.3763542 C93.4534522,85.6853509 103.501782,76.8916627 114.447284,69.1747527 C125.392786,61.4578427 137.056025,54.8177108 149.437003,49.6132831 C161.81798,44.2293924 174.737261,40.2812058 187.656542,37.5892605 C197.525438,35.6151672 208.650374,34.358926 220.493048,34 C221.749089,34 223.00513,34 224.440606,34 C225.876082,34 227.132123,34 228.567599,34 C256.918243,34.358926 285.986625,41.8963731 312.722359,55.8944889 C335.331101,67.7390485 355.786629,84.2496467 371.576861,103.45219 C391.852955,128.218088 405.848843,158.00895 411.77018,189.594442 C413.923393,201.080075 415,212.745172 415,224.589732 C415,226.025436 415,227.46114 415,228.717381 C414.102828,262.815356 404.413367,295.836552 387.008225,324.19171 C386.649356,324.909562 386.111052,325.627414 385.752183,326.345266 C384.316708,324.909562 382.701798,323.653321 381.086888,322.39708 C401.004112,277.172398 391.314652,222.974564 356.145498,187.620349 C332.998453,164.828545 302.67403,152.08667 270.375827,152.08667 C238.077625,152.08667 207.753202,164.649081 184.785591,187.620349 C146.924921,225.487047 138.491501,282.556288 163.432891,329.934527 C168.995359,340.522845 176.172737,350.213848 184.785591,358.828073 C207.573767,381.619878 238.077625,394.361752 270.375827,394.361752 C287.422101,394.361752 304.109505,390.772492 319.540869,383.952897 C320.617475,385.388601 321.694082,386.644842 322.950123,388.080546 C296.573258,404.411682 264.275056,413.923222 230.361943,415 L229.82364,415 C229.285336,415 228.747033,415 228.20873,415 C226.952689,415 225.696647,415 224.440606,415 Z" id="Path" fill="#FFD552"></path>
                <g id="Group" transform="translate(168.000000, 172.000000)">
                    <path d="M101.778261,202.514375 C101.778261,202.514375 101.778261,202.514375 101.778261,202.514375 C74.6732919,202.514375 49.1838509,191.93125 30.1565217,172.9175 C-9.33416149,133.455 -9.33416149,69.23875 30.1565217,29.77625 C49.363354,10.583125 74.6732919,0.179375 101.778261,0.179375 C128.88323,0.179375 154.372671,10.7625 173.4,29.77625 C212.890683,69.23875 212.890683,133.455 173.4,172.9175 C154.193168,192.110625 128.88323,202.514375 101.778261,202.514375 Z M101.778261,5.74 C76.2888199,5.74 52.2354037,15.605625 34.1055901,33.7225 C-3.2310559,71.0325 -3.2310559,131.66125 34.1055901,168.97125 C52.2354037,187.088125 76.2888199,196.95375 101.778261,196.95375 C127.267702,196.95375 151.321118,187.088125 169.450932,168.97125 C206.787578,131.66125 206.787578,71.0325 169.450932,33.7225 C151.321118,15.605625 127.267702,5.74 101.778261,5.74 Z M101.778261,170.585625 C83.289441,170.585625 65.8776398,163.410625 52.773913,150.31625 C39.6701863,137.221875 32.4900621,119.8225 32.4900621,101.346875 C32.4900621,82.87125 39.6701863,65.471875 52.773913,52.3775 C65.8776398,39.283125 83.289441,32.108125 101.778261,32.108125 C120.267081,32.108125 137.678882,39.283125 150.782609,52.3775 C177.708075,79.28375 177.708075,123.230625 150.782609,150.136875 C137.678882,163.23125 120.267081,170.585625 101.778261,170.585625 Z M101.778261,37.848125 C84.7254658,37.848125 68.7496894,44.485 56.9024845,56.503125 C44.8757764,68.52125 38.2341615,84.485625 38.2341615,101.346875 C38.2341615,118.3875 44.8757764,134.351875 56.9024845,146.190625 C68.9291925,158.20875 84.9049689,164.845625 101.778261,164.845625 C118.831056,164.845625 134.806832,158.20875 146.654037,146.190625 C171.425466,121.436875 171.425466,81.0775 146.654037,56.32375 C134.627329,44.485 118.831056,37.848125 101.778261,37.848125 Z" id="Shape" fill="#4A555F"></path>
                    <path d="M101.778261,190.316875 C77.9043478,190.316875 55.6459627,180.989375 38.7726708,164.3075 C4.12857143,129.688125 4.12857143,73.185 38.7726708,38.38625 C55.6459627,21.525 77.9043478,12.376875 101.778261,12.376875 C125.652174,12.376875 147.910559,21.704375 164.783851,38.38625 C199.42795,73.185 199.42795,129.50875 164.783851,164.3075 C147.910559,181.16875 125.652174,190.316875 101.778261,190.316875 Z M101.778261,25.650625 C81.4944099,25.650625 62.4670807,33.543125 48.1068323,47.893125 C33.7465839,62.243125 25.8484472,81.256875 25.8484472,101.52625 C25.8484472,121.795625 33.7465839,140.809375 48.1068323,155.159375 C62.4670807,169.509375 81.4944099,177.401875 101.778261,177.401875 C122.062112,177.401875 141.089441,169.509375 155.449689,155.159375 C185.067702,125.5625 185.067702,77.49 155.449689,48.0725 C141.089441,33.543125 122.062112,25.650625 101.778261,25.650625 Z" id="Shape" fill="#71CDE1"></path>
                    <g transform="translate(161.552795, 161.437500)">
                        <path d="M77.5453416,111.391875 L7.89813665,41.794375 C3.2310559,37.130625 0.718012422,31.031875 0.718012422,24.574375 C0.718012422,18.116875 3.2310559,12.018125 7.89813665,7.354375 C12.5652174,2.690625 18.668323,0.179375 25.1304348,0.179375 C31.5925466,0.179375 37.6956522,2.690625 42.3627329,7.354375 L112.009938,76.951875 L77.5453416,111.391875 Z M25.1304348,6.09875 C20.1043478,6.09875 15.4372671,8.071875 12.0267081,11.48 C8.61614907,14.888125 6.64161491,19.73125 6.64161491,24.574375 C6.64161491,29.596875 8.61614907,34.260625 12.0267081,37.66875 L77.7248447,103.32 L104.111801,76.951875 L38.4136646,11.300625 C34.6440994,7.8925 29.9770186,6.09875 25.1304348,6.09875 Z" id="Shape" fill="#4A555F"></path>
                        <path d="M16.5142857,33.184375 C11.847205,28.520625 11.847205,20.8075 16.5142857,16.14375 C18.8478261,13.811875 21.8993789,12.55625 25.1304348,12.55625 C28.3614907,12.55625 31.4130435,13.811875 33.7465839,16.14375 L94.7776398,77.13125 L77.7248447,94.171875 L16.5142857,33.184375 Z" id="Path" fill="#F68F6F"></path>
                        <path d="M96.931677,125.5625 C93.521118,125.5625 90.4695652,124.306875 87.9565217,121.795625 L73.4167702,107.26625 L107.701863,73.005625 L122.241615,87.535 C124.575155,89.866875 126.01118,93.095625 126.01118,96.50375 C126.01118,99.911875 124.754658,102.96125 122.241615,105.4725 L105.727329,121.975 C103.393789,124.306875 100.162733,125.5625 96.931677,125.5625 Z M81.4944099,107.445625 L91.9055901,117.849375 C94.5981366,120.54 99.0857143,120.54 101.778261,117.849375 L118.292547,101.346875 C119.549068,100.09125 120.267081,98.2975 120.267081,96.50375 C120.267081,94.71 119.549068,92.91625 118.292547,91.660625 L107.881366,81.256875 L81.4944099,107.445625 Z" id="Shape" fill="#4A555F"></path>
                        <path d="M46.8503106,20.44875 C48.1068323,19.01375 49.1838509,17.57875 50.2608696,16.14375 C49.1838509,17.57875 47.9273292,19.01375 46.8503106,20.44875 Z" id="Path" fill="#FFD552"></path>
                        <path d="M96.931677,113.365 C96.7521739,113.365 96.7521739,113.365 96.7521739,113.185625 L91.0080745,107.445625 L108.06087,90.405 L113.984472,96.145 C114.163975,96.324375 114.163975,96.50375 113.984472,96.683125 L97.4701863,113.185625 C97.1111801,113.365 96.931677,113.365 96.931677,113.365 Z" id="Path" fill="#FFD552"></path>
                    </g>
                </g>
                <path d="M303,261.571429 C303,243 288.031915,228 269.5,228 C250.968085,228 236,243 236,261.571429 C236,267.285714 237.425532,272.642857 239.920213,277.285714 L239.920213,277.285714 C240.81117,278.892857 241.702128,280.321429 242.771277,281.75 L269.5,323 L296.228723,281.75 C297.297872,280.321429 298.18883,278.892857 299.079787,277.285714 L299.079787,277.285714 L299.079787,277.285714 C301.574468,272.642857 303,267.285714 303,261.571429 Z M269.5,270.857143 C263.085106,270.857143 257.917553,265.678571 257.917553,259.25 C257.917553,252.821429 263.085106,247.642857 269.5,247.642857 C275.914894,247.642857 281.082447,252.821429 281.082447,259.25 C281.082447,265.678571 275.914894,270.857143 269.5,270.857143 Z" id="Shape" fill="#F68F6F"></path>
                <path d="M378.363636,356 L374,352.27907 C375.090909,350.790698 376.363636,349.488372 377.454545,348 L382,351.534884 C380.909091,352.837209 379.818182,354.325581 378.363636,356 Z" id="Path" fill="#4A555F"></path>
                <path d="M224.439077,427 C189.125359,427 153.81164,417.318725 122.441586,399.031873 C89.2789567,379.669323 61.4940513,350.446215 44.2853357,316.741036 C30.3032543,289.49004 22.5951838,259.191235 22.0574114,228.89243 C20.8026092,177.258964 40.1624143,125.446215 75.6553902,87.2589641 C85.1560352,76.8605578 95.9114825,67.5378486 107.563217,59.2908367 C119.214951,51.0438247 131.583716,44.0517928 144.66951,38.4940239 C157.755304,32.936255 171.558128,28.6334661 185.360952,25.7649402 C195.937142,23.6135458 207.588876,22.3585657 220.136898,22 C223.005017,22 225.873137,22 228.741256,22 C259.035766,22.3585657 290.047305,30.4262948 318.369983,45.3067729 C342.390482,57.8565737 364.080634,75.4262948 380.930834,95.8645418 C402.620986,122.219124 417.320097,153.772908 423.594108,187.298805 C425.924455,199.49004 427,212.039841 427,224.410359 C427,225.844622 427,227.458167 427,228.89243 C426.103713,265.10757 415.70678,300.067729 397.243263,330.366534 C394.912916,334.310757 392.582569,337.717131 390.072964,341.123506 C389.893707,341.482072 389.535192,341.840637 389.176677,342.378486 L387.204845,344.888446 L377.524943,335.207171 C374.656823,332.338645 371.250932,330.007968 367.486525,328.394422 L364.618406,327.139442 L366.052466,324.450199 C388.638905,282.498008 380.930834,229.788845 347.230433,196.083665 C326.615826,175.466135 299.368693,164.171315 270.328985,164.171315 C241.289278,164.171315 214.042145,175.466135 193.427537,196.083665 C159.547879,230.14741 151.839808,281.422311 174.24699,323.912351 C179.266199,333.414343 185.719467,342.199203 193.427537,349.908367 C214.042145,370.525896 241.289278,381.820717 270.328985,381.820717 C288.433988,381.820717 306.180476,377.338645 321.775875,368.912351 L324.464736,367.478088 L325.719538,370.346614 C327.332856,374.111554 329.663202,377.517928 332.531322,380.386454 L341.673452,389.52988 L338.98459,391.501992 C309.40711,413.015936 270.866758,425.74502 230.713088,427 L230.175316,427 C229.637543,427 228.920513,427 228.382741,427 C227.127939,427 225.693879,427 224.439077,427 Z M224.439077,27.5577689 C223.005017,27.5577689 221.570958,27.5577689 220.316156,27.5577689 C208.126649,27.9163347 196.654172,29.1713147 186.436497,31.3227092 C172.992188,34.0119522 159.727136,38.1354582 146.820599,43.6932271 C134.09332,49.250996 121.903813,55.8844622 110.610594,63.9521912 C99.3173741,72.0199203 88.9204418,80.9840637 79.5990541,91.0239044 C45.181623,128.314741 26.3595903,178.513944 27.6143925,228.713147 C28.1521649,258.115538 35.6809779,287.517928 49.3045444,314.051793 C65.9754876,346.860558 93.0433632,375.187251 125.309705,394.011952 C155.783472,411.760956 190.200903,421.262948 224.439077,421.262948 C225.693879,421.262948 226.948681,421.262948 228.203484,421.262948 C228.920513,421.262948 229.458286,421.262948 229.996058,421.262948 L230.53383,421.262948 C268.357153,420.007968 304.746416,408.533865 333.069094,388.812749 L328.587658,384.330677 C325.898796,381.641434 323.568449,378.593625 321.955132,375.187251 C306.180476,383.25498 288.433988,387.378486 270.328985,387.378486 C239.855218,387.378486 210.994768,375.545817 189.483873,353.85259 C181.417288,345.784861 174.605505,336.641434 169.227781,326.601594 C145.565797,281.960159 153.632383,227.996016 189.483873,192.139442 C211.174025,170.625498 239.855218,158.613546 270.328985,158.613546 C300.802752,158.613546 329.483945,170.446215 351.174097,192.139442 C385.770786,226.920319 394.375143,280.884462 372.326477,324.629482 C375.732368,326.422311 378.779745,328.573705 381.468607,331.262948 L386.487815,336.282869 C388.459647,333.414343 390.252222,330.545817 392.224054,327.318725 C410.329057,297.916335 420.367474,263.85259 421.263761,228.713147 C421.263761,227.278884 421.263761,225.844622 421.263761,224.410359 C421.263761,212.398406 420.188217,200.207171 417.85787,188.374502 C411.942374,155.74502 397.601778,124.908367 376.628655,99.4501992 C360.13697,79.5498008 339.163848,62.5179283 315.681121,50.3266932 C288.075473,35.9840637 258.139478,28.0956175 228.741256,27.7370518 C227.307196,27.5577689 225.873137,27.5577689 224.439077,27.5577689 Z" id="Shape" fill="#4A555F"></path>
                <path d="M227.00838,449 L227.00838,443.447946 C228.80008,443.447946 230.77095,443.447946 232.56265,443.268847 L232.74182,448.820901 C230.95012,448.820901 228.97925,449 227.00838,449 Z M221.45411,449 C219.48324,449 217.69154,449 215.72067,448.820901 L215.89984,443.268847 C217.69154,443.268847 219.66241,443.447946 221.45411,443.447946 L221.45411,449 Z M238.475259,448.462704 L238.116919,442.91065 C239.908619,442.731552 241.879489,442.731552 243.671189,442.552453 L244.208699,448.104507 C242.237829,448.283606 240.266959,448.462704 238.475259,448.462704 Z M209.987231,448.462704 C208.016361,448.283606 206.224661,448.283606 204.253791,448.104507 L204.791301,442.552453 C206.583001,442.731552 208.553871,442.91065 210.345571,442.91065 L209.987231,448.462704 Z M249.762969,447.567212 L249.225459,442.015158 C251.017159,441.836059 252.988029,441.656961 254.779729,441.298763 L255.496409,446.850818 C253.525539,447.029916 251.733839,447.388113 249.762969,447.567212 Z M198.699521,447.388113 C196.728651,447.209015 194.936951,446.850818 192.966081,446.671719 L193.682761,441.119665 C195.474461,441.298763 197.445331,441.656961 199.237031,441.836059 L198.699521,447.388113 Z M261.050678,445.955325 L260.154828,440.403271 C261.946528,440.045074 263.738228,439.865975 265.709098,439.507778 L266.784118,445.059832 C264.813248,445.41803 263.021548,445.776227 261.050678,445.955325 Z M187.232642,445.955325 C185.261772,445.597128 183.470072,445.238931 181.678372,444.880734 L182.753392,439.32868 C184.545092,439.686877 186.336792,440.045074 188.307662,440.403271 L187.232642,445.955325 Z M272.338388,443.806143 L271.084198,438.254089 C272.875898,437.895892 274.667598,437.358596 276.459298,437.000399 L277.713488,442.552453 C275.921788,443.089749 274.130088,443.447946 272.338388,443.806143 Z M176.124102,443.627044 C174.332402,443.268847 172.361532,442.731552 170.569832,442.373355 L172.003192,436.8213 C173.794892,437.179497 175.586592,437.716793 177.378292,438.07499 L176.124102,443.627044 Z M283.267757,441.119665 L281.834397,435.746709 C283.626097,435.209414 285.417797,434.672118 287.209497,434.313921 L288.822027,439.686877 C287.030327,440.224172 285.238627,440.761468 283.267757,441.119665 Z M165.015563,440.940566 C163.223863,440.403271 161.432163,439.865975 159.461293,439.32868 L161.073823,433.955724 C162.865523,434.49302 164.657223,435.030315 166.448923,435.567611 L165.015563,440.940566 Z M294.197127,437.895892 L292.405427,432.522936 C294.197127,431.98564 295.988827,431.269246 297.601357,430.731951 L299.572227,436.104906 C297.959697,436.642202 296.167997,437.358596 294.197127,437.895892 Z M154.086193,437.716793 C152.294493,437.179497 150.502793,436.463103 148.711093,435.925808 L150.681963,430.552852 C152.473663,431.090148 154.265363,431.806542 155.877893,432.343837 L154.086193,437.716793 Z M304.947326,434.134822 L302.976457,428.940965 C304.768156,428.224571 306.380686,427.508177 308.172386,426.970882 L310.322426,432.164739 C308.530726,432.702034 306.739026,433.418428 304.947326,434.134822 Z M143.335994,433.776625 C141.544294,433.060231 139.752594,432.343837 137.960894,431.627443 L140.110934,426.433586 C141.902634,427.14998 143.515164,427.866374 145.306864,428.582768 L143.335994,433.776625 Z M315.518356,429.836458 L313.189146,424.642601 C314.801676,423.926207 316.593376,423.030714 318.205906,422.31432 L320.535116,427.329079 C319.101756,428.224571 317.310056,428.940965 315.518356,429.836458 Z M132.764964,429.478261 C130.973264,428.761867 129.360734,427.866374 127.569034,427.14998 L130.077414,422.135221 C131.689944,422.851615 133.481644,423.747108 135.094174,424.463502 L132.764964,429.478261 Z M325.910215,424.821699 L323.401836,419.806941 C325.014366,418.911448 326.626895,418.195054 328.239425,417.299561 L330.926975,422.31432 C329.314445,423.209813 327.522745,424.105305 325.910215,424.821699 Z M122.552275,424.463502 C120.939745,423.56801 119.148045,422.672517 117.535515,421.777024 L120.223065,416.762266 C121.835595,417.657758 123.448125,418.553251 125.060654,419.269645 L122.552275,424.463502 Z M335.943735,419.448744 L333.077015,414.613083 C334.689545,413.717591 336.302075,412.822098 337.914605,411.747507 L340.781325,416.583167 C339.168795,417.47866 337.556265,418.553251 335.943735,419.448744 Z M112.518755,419.090546 C110.906225,418.195054 109.293695,417.120463 107.681165,416.22497 L110.547885,411.38931 C112.160415,412.284803 113.772945,413.359394 115.385475,414.254886 L112.518755,419.090546 Z M345.618915,413.538492 L342.573025,408.881931 C344.185555,407.807339 345.618915,406.911847 347.231445,405.837256 L350.456504,410.493817 C348.843974,411.568408 347.231445,412.463901 345.618915,413.538492 Z M102.664405,413.001197 C101.051875,411.926606 99.4393456,410.852014 97.8268156,409.777423 L101.051875,405.120862 C102.664405,406.195453 104.097765,407.270044 105.710295,408.165536 L102.664405,413.001197 Z M93.3475658,406.55365 C91.7350359,405.479059 90.301676,404.225369 88.689146,403.150778 L92.0933759,398.673315 C93.5267358,399.747906 95.1392658,400.822497 96.5726257,401.897088 L93.3475658,406.55365 Z M84.2098962,399.747906 C82.7765363,398.494216 81.3431764,397.419625 79.7306464,396.165935 L83.3140463,391.867571 C84.7474062,393.12126 86.1807662,394.195852 87.6141261,395.449541 L84.2098962,399.747906 Z M75.4305666,392.404866 C73.9972067,391.151177 72.5638468,389.897487 71.1304868,388.643797 L74.8930567,384.524531 C76.3264166,385.778221 77.5806065,387.031911 79.0139665,388.2856 L75.4305666,392.404866 Z M67.188747,384.524531 C65.7553871,383.270842 64.5011971,381.838053 63.2470072,380.405265 L67.367917,376.465098 C68.6221069,377.718787 69.8762969,379.151576 71.3096568,380.405265 L67.188747,384.524531 Z M59.3052674,376.285999 C58.0510774,374.853211 56.7968875,373.420423 55.5426975,371.987635 L59.8427773,368.226566 C61.0969673,369.659354 62.3511572,370.913043 63.6053472,372.345832 L59.3052674,376.285999 Z M51.7801277,367.868369 C51.0634477,366.972876 50.1675978,365.898285 49.4509178,365.002792 C49.0925778,364.465497 48.5550678,363.928201 48.1967279,363.390905 L52.6759777,359.988034 C53.0343176,360.525329 53.5718276,361.062625 53.9301676,361.59992 C54.6468476,362.495413 55.3635275,363.390905 56.2593775,364.465497 L51.7801277,367.868369 Z M44.613328,358.913442 C43.5383081,357.480654 42.2841181,355.868767 41.2090982,354.256881 L45.867518,351.033107 C46.9425379,352.465895 48.0175579,354.077782 49.0925778,355.51057 L44.613328,358.913442 Z M408.686752,353.003191 L404.028332,349.779418 C405.103352,348.346629 406.178372,346.734743 407.074222,345.122856 L411.732642,348.167531 C410.836792,349.779418 409.761772,351.391304 408.686752,353.003191 Z M38.1632083,349.600319 C37.0881883,347.988432 36.0131684,346.376546 35.1173184,344.764659 L39.9549082,341.719984 C41.0299282,343.331871 41.9257781,344.764659 43.0007981,346.376546 L38.1632083,349.600319 Z M414.957702,343.510969 L410.120112,340.466294 C411.015962,338.854408 412.090982,337.242521 412.986832,335.630634 L417.824421,338.496211 C416.928571,340.287196 416.032721,341.899083 414.957702,343.510969 Z M31.8922586,339.928999 C30.9964086,338.317112 29.9213887,336.705225 29.0255387,335.093339 L33.8631285,332.227762 C34.7589785,333.839649 35.6548284,335.451536 36.7298484,337.063422 L31.8922586,339.928999 Z M420.870311,333.66055 L416.032721,330.974073 C416.928571,329.362186 417.824421,327.750299 418.720271,326.138412 L423.737031,328.82489 C422.662011,330.257679 421.766161,332.048664 420.870311,333.66055 Z M26.3379888,330.07858 C25.4421389,328.466693 24.5462889,326.675708 23.6504389,325.063821 L28.6671987,322.556442 C29.5630487,324.168329 30.2797287,325.780215 31.1755786,327.571201 L26.3379888,330.07858 Z M426.066241,323.631033 L421.049481,321.123654 C421.945331,319.511767 422.662011,317.720782 423.378691,316.108895 L428.574621,318.437176 C427.857941,320.049063 426.962091,321.840048 426.066241,323.631033 Z M21.1420591,319.869964 C20.2462091,318.078979 19.5295291,316.467092 18.8128492,314.676107 L24.0087789,312.347826 C24.7254589,313.959713 25.4421389,315.750698 26.3379888,317.362585 L21.1420591,319.869964 Z M430.903831,313.243319 L425.707901,311.094136 C426.424581,309.48225 427.141261,307.691264 427.857941,305.900279 L433.053871,308.049462 C432.337191,309.661348 431.620511,311.452333 430.903831,313.243319 Z M16.6628093,309.48225 C15.9461293,307.691264 15.2294493,305.900279 14.5127694,304.109294 L19.7086991,302.13921 C20.4253791,303.930195 20.9628891,305.542082 21.679569,307.333067 L16.6628093,309.48225 Z M435.203911,302.676506 L430.007981,300.706422 C430.724661,298.915437 431.262171,297.30355 431.799681,295.512565 L437.174781,297.30355 C436.458101,299.094535 435.741421,300.885521 435.203911,302.676506 Z M12.5418994,298.736338 C11.8252195,296.945353 11.2877095,295.154368 10.7501995,293.363383 L16.1252993,291.572397 C16.6628093,293.363383 17.2003192,295.154368 17.9169992,296.766254 L12.5418994,298.736338 Z M438.78731,291.751496 L433.412211,290.139609 C433.949721,288.348624 434.487231,286.557639 435.024741,284.766653 L440.39984,286.37854 C440.0415,288.169525 439.50399,289.960511 438.78731,291.751496 Z M9.13766959,287.990427 C8.60015962,286.199442 8.06264964,284.408456 7.52513966,282.438373 L12.9002394,281.005584 C13.4377494,282.79657 13.7960894,284.587555 14.3335994,286.37854 L9.13766959,287.990427 Z M442.01237,280.826486 L436.637271,279.393698 C437.174781,277.602712 437.533121,275.811727 437.89146,274.020742 L443.44573,275.274432 C442.90822,277.244515 442.54988,279.035501 442.01237,280.826486 Z M6.09177973,276.886318 C5.73343974,275.095333 5.19592977,273.125249 4.83758978,271.334264 L10.3918595,270.080574 C10.7501995,271.87156 11.1085395,273.662545 11.6460495,275.45353 L6.09177973,276.886318 Z M444.52075,269.722377 L438.96648,268.647786 C439.32482,266.856801 439.68316,265.065816 440.0415,263.27483 L445.59577,264.349422 C445.23743,265.961308 444.87909,267.931392 444.52075,269.722377 Z M3.76256983,265.78221 C3.40422985,263.991225 3.04588986,262.021141 2.86671987,260.230156 L8.42098962,259.334663 C8.77932961,261.125648 8.9584996,262.916633 9.31683958,264.886717 L3.76256983,265.78221 Z M446.49162,258.43917 L440.93735,257.543678 C441.29569,255.752692 441.47486,253.961707 441.65403,251.991623 L447.2083,252.708018 C447.02913,254.678101 446.84996,256.648185 446.49162,258.43917 Z M1.97086991,254.499003 C1.79169992,252.708018 1.43335994,250.737934 1.25418994,248.76785 L6.8084597,248.230554 C6.98762969,250.02154 7.16679968,251.991623 7.52513966,253.782609 L1.97086991,254.499003 Z M447.92498,247.155963 L442.37071,246.618668 C442.54988,244.827682 442.72905,242.857599 442.90822,241.066613 L448.46249,241.424811 C448.28332,243.394894 448.10415,245.364978 447.92498,247.155963 Z M0.716679968,243.215796 C0.537509976,241.245712 0.358339984,239.454727 0.358339984,237.484643 L5.91260974,237.126446 C6.09177973,238.917431 6.09177973,240.887515 6.27094972,242.6785 L0.716679968,243.215796 Z M448.82083,235.872756 L443.26656,235.514559 C443.44573,233.723574 443.44573,231.75349 443.44573,229.962505 L449,230.141604 C449,231.932589 449,233.902673 448.82083,235.872756 Z M0.179169992,231.932589 C0.179169992,229.962505 0,228.17152 0,226.201436 L5.55426975,226.201436 C5.55426975,227.992421 5.55426975,229.962505 5.73343974,231.75349 L0.179169992,231.932589 Z M443.44573,224.410451 C443.44573,222.619465 443.44573,220.649382 443.44573,218.858396 L449,218.679298 C449,220.649382 449,222.440367 449,224.410451 L443.44573,224.410451 Z M5.73343974,220.470283 L0.179169992,220.291185 C0.179169992,218.321101 0.358339984,216.530116 0.358339984,214.560032 L5.91260974,214.73913 C5.73343974,216.888313 5.73343974,218.679298 5.73343974,220.470283 Z M443.26656,213.306342 C443.08739,211.515357 443.08739,209.545273 442.90822,207.754288 L448.46249,207.396091 C448.64166,209.366175 448.64166,211.15716 448.82083,213.127244 L443.26656,213.306342 Z M6.09177973,209.366175 L0.537509976,209.007978 C0.716679968,207.037894 0.89584996,205.246909 1.07501995,203.276825 L6.6292897,203.81412 C6.45011971,205.784204 6.27094972,207.575189 6.09177973,209.366175 Z M442.37071,202.202234 C442.19154,200.411249 442.01237,198.441165 441.65403,196.650179 L447.2083,195.933785 C447.38747,197.724771 447.74581,199.694854 447.92498,201.664938 L442.37071,202.202234 Z M7.16679968,198.262066 L1.61252993,197.545672 C1.79169992,195.575588 2.1500399,193.784603 2.3292099,191.814519 L7.88347965,192.710012 C7.70430966,194.680096 7.34596967,196.471081 7.16679968,198.262066 Z M440.93735,191.277224 C440.57901,189.486239 440.39984,187.695253 440.0415,185.72517 L445.59577,184.650578 C445.95411,186.441564 446.31245,188.411647 446.49162,190.202633 L440.93735,191.277224 Z M8.77932961,187.337056 L3.22505986,186.441564 C3.58339984,184.650578 3.94173982,182.680495 4.30007981,180.889509 L9.85434956,181.964101 C9.49600958,183.755086 9.13766959,185.546071 8.77932961,187.337056 Z M438.96648,180.352214 C438.60814,178.561229 438.2498,176.770243 437.712291,174.979258 L443.26656,173.725568 C443.6249,175.516554 444.16241,177.486637 444.52075,179.277623 L438.96648,180.352214 Z M10.9293695,176.412046 L5.37509976,175.158357 C5.73343974,173.367371 6.27094972,171.397288 6.6292897,169.606302 L12.0043895,171.039091 C11.8252195,172.830076 11.2877095,174.621061 10.9293695,176.412046 Z M436.458101,169.427204 C435.920591,167.636219 435.562251,165.845233 435.024741,164.054248 L440.39984,162.442361 C440.93735,164.233347 441.47486,166.024332 441.8332,167.994416 L436.458101,169.427204 Z M13.6169194,165.666135 L8.24181963,164.233347 C8.77932961,162.442361 9.31683958,160.651376 9.85434956,158.681292 L15.2294493,160.293179 C14.6919393,162.084164 14.1544294,163.87515 13.6169194,165.666135 Z M433.412211,158.860391 C432.874701,157.069406 432.337191,155.27842 431.620511,153.666534 L436.995611,151.875548 C437.533121,153.666534 438.2498,155.457519 438.78731,157.248504 L433.412211,158.860391 Z M16.8419792,154.920223 L11.4668795,153.129238 C12.0043895,151.338253 12.7210694,149.547268 13.2585794,147.756282 L18.6336792,149.726366 C18.0961692,151.517351 17.5586592,153.308337 16.8419792,154.920223 Z M429.828811,148.293578 C429.112131,146.502593 428.574621,144.890706 427.857941,143.099721 L433.053871,140.950538 C433.770551,142.741524 434.487231,144.532509 435.024741,146.323494 L429.828811,148.293578 Z M20.6045491,144.532509 L15.4086193,142.562425 C16.1252993,140.77144 16.8419792,138.980455 17.5586592,137.368568 L22.754589,139.51775 C22.037909,141.129637 21.3212291,142.741524 20.6045491,144.532509 Z M425.707901,137.905864 C424.991221,136.114878 424.274541,134.502992 423.378691,132.891105 L428.574621,130.562824 C429.291301,132.353809 430.187151,133.965696 430.903831,135.756681 L425.707901,137.905864 Z M25.0837989,134.323893 L19.8878691,131.995612 C20.6045491,130.204627 21.500399,128.59274 22.396249,126.801755 L27.4130088,129.309134 C26.5171588,130.921021 25.8004789,132.532908 25.0837989,134.323893 Z M421.049481,127.876346 C420.153631,126.26446 419.436951,124.652573 418.541101,122.861588 L423.557861,120.17511 C424.453711,121.786996 425.349561,123.577982 426.066241,125.189868 L421.049481,127.876346 Z M29.9213887,124.294376 L24.9046289,121.786996 C25.8004789,120.17511 26.6963288,118.384124 27.5921788,116.772238 L32.6089385,119.458716 C31.5339186,121.070602 30.6380686,122.682489 29.9213887,124.294376 Z M415.853551,118.025927 C414.957702,116.414041 414.061852,114.802154 413.166002,113.190267 L418.003591,110.324691 C418.899441,111.936578 419.974461,113.548464 420.870311,115.33945 L415.853551,118.025927 Z M35.2964884,114.623055 L30.4588986,111.757479 C31.3547486,110.145592 32.4297686,108.533706 33.3256185,106.921819 L38.1632083,109.966494 C37.0881883,111.399282 36.1923384,113.011169 35.2964884,114.623055 Z M410.299282,108.533706 C409.224262,106.921819 408.328412,105.489031 407.253392,103.877144 L411.911812,100.832469 C412.986832,102.444356 414.061852,104.056243 414.957702,105.668129 L410.299282,108.533706 Z M41.0299282,105.130834 L36.3715084,102.086159 C37.4465283,100.474272 38.5215483,98.8623853 39.5965682,97.4295971 L44.254988,100.653371 C43.1799681,102.086159 42.1049481,103.518947 41.0299282,105.130834 Z M404.028332,99.2205824 C403.132482,97.9668927 402.236632,96.713203 401.340782,95.4595134 L400.803272,94.7431193 L405.282522,91.3402473 L405.820032,92.0566414 C406.715882,93.3103311 407.611732,94.5640207 408.507582,95.8177104 L404.028332,99.2205824 Z M47.3008779,95.9968089 L42.8216281,92.593937 L43.1799681,92.0566414 C44.254988,90.6238532 45.150838,89.3701635 46.2258579,87.9373753 L50.7051077,91.3402473 C49.6300878,92.593937 48.7342378,94.0267252 47.6592179,95.2804148 L47.3008779,95.9968089 Z M397.399042,90.2656562 C396.324022,88.832868 395.069832,87.4000798 393.994812,85.9672916 L398.294892,82.3853211 C399.549082,83.8181093 400.624102,85.429996 401.878292,86.8627842 L397.399042,90.2656562 Z M54.1093376,87.0418827 L49.8092578,83.4599122 C51.0634477,82.0271241 52.1384677,80.5943359 53.3926576,78.9824491 L57.6927374,82.5644196 C56.4385475,84.1763063 55.3635275,85.6090945 54.1093376,87.0418827 Z M390.411413,81.668927 C389.157223,80.2361388 387.903033,78.8033506 386.648843,77.5496609 L390.769753,73.7885919 C392.023943,75.2213801 393.278132,76.6541683 394.532322,78.0869565 L390.411413,81.668927 Z M61.2761373,78.6242521 L57.1552275,74.8631831 C58.4094174,73.4303949 59.6636073,71.9976067 61.0969673,70.743917 L65.2178771,74.6840846 C63.7845172,75.9377742 62.5303272,77.1914639 61.2761373,78.6242521 Z M383.065443,73.4303949 C381.811253,72.1767052 380.557063,70.743917 379.123703,69.4902274 L383.065443,65.5500598 C384.498803,66.8037495 385.752993,68.2365377 387.007183,69.6693259 L383.065443,73.4303949 Z M68.9804469,70.5648185 L65.0387071,66.624651 C66.292897,65.1918628 67.726257,63.9381731 69.1596169,62.6844834 L73.1013567,66.8037495 C71.6679968,67.8783406 70.2346369,69.3111288 68.9804469,70.5648185 Z M375.181963,65.5500598 C373.748603,64.2963702 372.494413,63.0426805 371.061053,61.7889908 L374.823623,57.6697248 C376.256983,58.9234144 377.690343,60.1771041 378.944533,61.6098923 L375.181963,65.5500598 Z M77.0430966,62.863582 L73.2805267,58.7443159 C74.7138867,57.4906262 76.1472466,56.2369366 77.5806065,54.9832469 L81.3431764,59.2816115 C79.7306464,60.3562026 78.2972865,61.6098923 77.0430966,62.863582 Z M366.760974,58.2070203 C365.327614,56.9533307 363.894254,55.8787395 362.460894,54.6250499 L366.044294,50.3266853 C367.477654,51.580375 368.911014,52.6549661 370.344374,53.9086558 L366.760974,58.2070203 Z M85.2849162,55.5205425 L81.7015164,51.2221779 C83.1348763,49.9684882 84.5682362,48.8938971 86.1807662,47.6402074 L89.584996,52.1176705 C88.3308061,53.1922617 86.7182761,54.4459513 85.2849162,55.5205425 Z M358.160814,51.2221779 C356.727454,50.1475868 355.294094,48.8938971 353.681564,47.8193059 L357.085794,43.3418428 C358.698324,44.416434 360.131684,45.6701237 361.565044,46.7447148 L358.160814,51.2221779 Z M94.0642458,48.7147986 L90.660016,44.2373355 C92.2725459,43.1627443 93.7059058,41.9090546 95.3184358,40.8344635 L98.5434956,45.4910251 C97.1101357,46.5656163 95.6767757,47.6402074 94.0642458,48.7147986 Z M349.202314,44.5955325 C347.768955,43.5209414 346.156425,42.4463502 344.543895,41.5508576 L347.589785,36.894296 C349.202314,37.9688871 350.814844,39.0434783 352.248204,40.1180694 L349.202314,44.5955325 Z M103.201915,42.2672517 L100.156026,37.6106901 C101.768555,36.5360989 103.381085,35.4615078 104.993615,34.5660152 L108.039505,39.4016753 C106.247805,40.2971679 104.814445,41.1926606 103.201915,42.2672517 Z M339.885475,38.5061827 C338.272945,37.6106901 336.660415,36.5360989 335.047885,35.6406063 L337.914605,30.8049462 C339.527135,31.7004388 341.139665,32.7750299 342.752195,33.6705225 L339.885475,38.5061827 Z M112.518755,36.3570004 L109.652035,31.5213402 C111.264565,30.6258476 112.877095,29.5512565 114.668795,28.6557639 L117.356345,33.491424 C115.743815,34.5660152 114.131285,35.4615078 112.518755,36.3570004 Z M330.389465,32.7750299 C328.776935,31.8795373 327.164405,30.9840447 325.551875,30.0885521 L328.239425,25.0737934 C329.851955,25.969286 331.643655,26.8647786 333.256185,27.7602712 L330.389465,32.7750299 Z M122.193935,30.9840447 L119.506385,25.969286 C121.118915,25.0737934 122.910615,24.1783008 124.523144,23.2828081 L127.031524,28.2975668 C125.598164,29.1930594 123.985634,30.0885521 122.193935,30.9840447 Z M320.535116,27.7602712 C318.922586,26.8647786 317.130886,26.1483845 315.518356,25.4319904 L317.847566,20.2381332 C319.639266,20.9545273 321.251796,21.8500199 323.043496,22.7455126 L320.535116,27.7602712 Z M132.227454,25.969286 L129.898244,20.9545273 C131.689944,20.2381332 133.302474,19.3426406 135.094174,18.6262465 L137.423384,23.8201037 C135.631684,24.5364978 133.839984,25.2528919 132.227454,25.969286 Z M310.322426,23.1037096 C308.530726,22.3873155 306.918196,21.6709214 305.126496,20.9545273 L307.276536,15.7606701 C309.068236,16.4770642 310.859936,17.1934583 312.472466,17.9098524 L310.322426,23.1037096 Z M142.440144,21.4918229 L140.290104,16.2979657 C142.081804,15.5815716 143.873504,14.8651775 145.665204,14.1487834 L147.636073,19.3426406 C145.844374,20.2381332 144.052674,20.9545273 142.440144,21.4918229 Z M299.930567,18.9844436 C298.138867,18.2680495 296.526337,17.7307539 294.734637,17.1934583 L296.526337,11.8205026 C298.318037,12.3577982 300.109737,13.0741923 301.901437,13.7905864 L299.930567,18.9844436 Z M152.832003,17.7307539 L151.040303,12.3577982 C152.832003,11.8205026 154.623703,11.1041085 156.415403,10.5668129 L158.207103,15.9397686 C156.236233,16.4770642 154.623703,17.0143598 152.832003,17.7307539 Z M289.538707,15.4024731 C287.747007,14.8651775 285.955307,14.3278819 284.163607,13.7905864 L285.776137,8.41763063 C287.567837,8.95492621 289.359537,9.49222178 291.330407,10.0295174 L289.538707,15.4024731 Z M163.403033,14.3278819 L161.790503,8.95492621 C163.582203,8.41763063 165.373903,7.88033506 167.344773,7.52213801 L168.778132,12.8950937 C166.986433,13.2532908 165.194733,13.7905864 163.403033,14.3278819 Z M278.788508,12.3577982 C276.996808,11.8205026 275.205108,11.4623055 273.413408,11.1041085 L274.667598,5.55205425 C276.459298,5.9102513 278.430168,6.44754687 280.221868,6.80574392 L278.788508,12.3577982 Z M174.153232,11.4623055 L172.899042,5.9102513 C174.690742,5.55205425 176.661612,5.01475868 178.453312,4.65656163 L179.528332,10.2086159 C177.736632,10.5668129 175.944932,11.1041085 174.153232,11.4623055 Z M267.859138,9.85041883 C266.067438,9.49222178 264.275738,9.13402473 262.304868,8.77582768 L263.200718,3.22377343 C264.992418,3.58197048 266.963288,3.94016753 268.754988,4.29836458 L267.859138,9.85041883 Z M184.903432,9.13402473 L184.007582,3.58197048 C185.799282,3.22377343 187.770152,2.86557639 189.561852,2.68647786 L190.457702,8.23853211 C188.666002,8.59672916 186.695132,8.95492621 184.903432,9.13402473 Z M256.929769,8.05943359 C255.138069,7.70123654 253.346369,7.52213801 251.375499,7.34303949 L252.092179,1.79098524 C254.063049,1.97008377 255.854749,2.32828081 257.825619,2.50737934 L256.929769,8.05943359 Z M196.011971,7.52213801 L195.295291,1.97008377 C197.086991,1.79098524 199.057861,1.43278819 201.028731,1.25368967 L201.566241,6.80574392 C199.595371,6.98484244 197.803671,7.16394097 196.011971,7.52213801 Z M245.821229,6.62664539 C244.029529,6.44754687 242.058659,6.26844834 240.266959,6.08934982 L240.625299,0.537295572 C242.596169,0.716394097 244.387869,0.895492621 246.358739,1.07459114 L245.821229,6.62664539 Z M206.941341,6.26844834 L206.583001,0.716394097 C208.553871,0.537295572 210.345571,0.358197048 212.316441,0.358197048 L212.674781,5.9102513 C210.703911,6.08934982 208.912211,6.08934982 206.941341,6.26844834 Z M234.71269,5.9102513 C232.92099,5.9102513 230.95012,5.73115277 229.15842,5.73115277 L229.33759,0.179098524 C231.30846,0.179098524 233.10016,0.358197048 235.07103,0.358197048 L234.71269,5.9102513 Z M218.04988,5.73115277 L217.87071,0.179098524 C219.84158,0.179098524 221.63328,0.179098524 223.60415,0 L223.60415,5.55205425 C221.81245,5.55205425 219.84158,5.73115277 218.04988,5.73115277 Z" id="Shape" fill="#4A555F"></path>
                <path d="M223.701493,427 C202.029851,427 181.791045,405.665339 166.746269,366.760956 C152.059701,328.752988 144,278.195219 144,224.589641 C144,170.984064 152.238806,120.247012 166.925373,82.2390438 C181.791045,43.3346614 202.029851,22 223.880597,22 C259.164179,22 289.791045,79.3705179 300,164.709163 L294.447761,165.426295 C284.776119,84.2111554 255.761194,27.5577689 223.880597,27.5577689 C204.895522,27.5577689 186.089552,48.1752988 172.298507,84.2111554 C157.970149,121.681275 149.910448,171.342629 149.910448,224.410359 C149.910448,277.478088 157.791045,327.139442 172.298507,364.609562 C186.089552,400.645418 204.895522,421.262948 223.880597,421.262948 C239.462687,421.262948 254.328358,408.175299 267.223881,383.25498 L272.238806,385.76494 C258.268657,412.836653 241.61194,427 223.701493,427 Z" id="Path" fill="#4A555F"></path>
                <g id="Group" transform="translate(58.000000, 22.000000)" fill="#4A555F">
                    <path d="M165.679032,117.259031 C101.943548,117.259031 42.8629032,106.501322 3.29677419,88.0339207 L0.253225806,86.5995595 L2.22258065,83.9101322 C40.1774194,31.9145374 101.227419,0.717180617 165.5,0.717180617 C229.772581,0.717180617 290.822581,31.7352423 328.777419,83.9101322 L330.746774,86.5995595 L327.703226,88.0339207 C288.674194,106.680617 229.414516,117.259031 165.679032,117.259031 Z M9.02580645,84.4480176 C47.6967742,101.839648 104.629032,111.700881 165.858065,111.700881 C227.087097,111.700881 284.019355,101.839648 322.690323,84.4480176 C285.630645,35.5004405 227.266129,6.45380533 165.858065,6.45380533 C104.270968,6.2753304 46.0854839,35.5004405 9.02580645,84.4480176 Z" id="Shape"></path>
                    <path d="M165.679032,405.744934 C164.425806,405.744934 163.172581,405.744934 161.919355,405.744934 C132.2,405.027753 103.912903,398.035242 77.5951613,385.305286 C53.783871,373.830396 32.6580645,357.514537 11.3532258,334.026872 C10.2790323,332.771806 9.20483871,331.337445 8.13064516,330.082379 L5.80322581,327.213656 L9.02580645,325.6 C36.4177419,313.76652 72.2241935,305.339648 112.685484,301.395154 L114.475806,301.215859 L115.370968,302.829515 C120.383871,312.332159 126.829032,321.117621 134.527419,328.827313 C155.116129,349.446256 182.329032,360.74185 211.332258,360.74185 C229.414516,360.74185 247.13871,356.259471 262.714516,347.832599 L265.4,346.398238 L266.653226,349.26696 C268.264516,353.032159 270.591935,356.438767 273.456452,359.307489 L282.587097,368.451542 L280.080645,370.423789 C269.517742,378.671366 256.090323,385.663877 238.008065,392.656388 C222.969355,398.393833 207.214516,402.338326 191.280645,404.489868 C183.045161,405.207048 174.451613,405.744934 165.679032,405.744934 Z M14.7548387,329.365198 C14.933871,329.723789 15.2919355,329.903084 15.4709677,330.261674 C36.4177419,353.032159 56.8274194,368.989427 80.1016129,380.285022 C105.703226,392.656388 133.274194,399.469604 161.919355,400.186784 C163.172581,400.186784 164.425806,400.186784 165.679032,400.186784 C174.093548,400.186784 182.508065,399.648899 190.564516,398.573128 C206.140323,396.600881 221.358065,392.656388 236.03871,387.098238 C252.151613,380.822907 264.504839,374.726872 274.172581,367.734361 L269.696774,363.251982 C267.01129,360.562555 264.683871,357.514537 263.072581,354.10793 C247.317742,362.176211 229.593548,366.3 211.51129,366.3 C181.075806,366.3 152.251613,354.46652 130.767742,332.771806 C123.069355,325.062115 116.624194,316.455947 111.432258,307.132599 C74.0145161,310.897797 40.7145161,318.607489 14.7548387,329.365198 Z" id="Shape"></path>
                </g>
                <rect id="Rectangle" fill="#4A555F" x="371" y="222" width="53" height="6"></rect>
                <rect id="Rectangle" fill="#4A555F" x="24" y="223" width="144" height="6"></rect>
            </g>
        </g>
    </g>
</svg>