<?xml version="1.0" encoding="UTF-8"?>
<svg width="949px" height="470px" viewBox="0 0 949 470" version="1.1" xmlns="http://www.w3.org/2000/svg" xmlns:xlink="http://www.w3.org/1999/xlink">
    <!-- Generator: Sketch 58 (84663) - https://sketch.com -->
    <title>MFA - FTW</title>
    <desc>Created with Sketch.</desc>
    <g id="Page-1" stroke="none" stroke-width="1" fill="none" fill-rule="evenodd">
        <g id="Auth-options" transform="translate(-29.000000, -3030.000000)">
            <g id="MFA---FTW" transform="translate(29.000000, 3030.000000)">
                <g id="mobil" transform="translate(0.000000, 73.000000)">
                    <g id="Group-14">
                        <path d="M149.50231,3.7658765e-13 L34.9475801,3.7658765e-13 C19.890684,3.7658765e-13 7.64057389,12.2203039 7.64057389,27.2405644 L7.64057389,296.604389 C7.64057389,311.624649 19.890684,323.844953 34.9475801,323.844953 L149.50231,323.844953 C164.559206,323.844953 176.808588,311.625375 176.808588,296.604389 L176.808588,27.2405644 C176.808588,12.2203039 164.559206,3.7658765e-13 149.50231,3.7658765e-13 Z M172.267492,296.604389 C172.267492,309.126841 162.055305,319.314907 149.50231,319.314907 L34.9475801,319.314907 C22.3945848,319.314907 12.1816697,309.126841 12.1816697,296.604389 L12.1816697,27.2405644 C12.1816697,14.7181122 22.3945848,4.53004668 34.9475801,4.53004668 L149.50231,4.53004668 C162.055305,4.53004668 172.267492,14.7181122 172.267492,27.2405644 L172.267492,296.604389 Z" id="Shape" fill="#4A555F" fill-rule="nonzero"></path>
                        <path d="M148.472063,7.86675253 L131.088192,7.86675253 C126.878377,7.86675253 122.991106,10.1473917 120.944445,13.8189303 L117.223907,20.5032367 C115.975961,22.7308546 113.608941,24.1152172 111.046793,24.1152172 L73.4009125,24.1152172 C70.8394927,24.1152172 68.4724729,22.7308546 67.2274395,20.5090473 L63.5039884,13.8182039 C61.4566001,10.1473917 57.570057,7.86675253 53.360242,7.86675253 L35.9763709,7.86675253 C25.4008672,7.86675253 16.7977588,16.1860013 16.7977588,26.4103827 L16.7977588,252.844443 C16.7977588,263.068824 25.4008672,271.387346 35.9763709,271.387346 L148.487353,271.387346 C159.05412,271.387346 167.651403,263.07536 167.651403,252.858969 L167.651403,26.4096564 C167.651403,16.185275 159.047567,7.86675253 148.472063,7.86675253 Z M163.109579,252.858969 C163.109579,260.577553 156.550219,266.856573 148.486625,266.856573 L35.9763709,266.856573 C27.905496,266.856573 21.3388545,260.570288 21.3388545,252.843715 L21.3388545,26.4096564 C21.3388545,18.6830833 27.904768,12.3967992 35.9763709,12.3967992 L53.360242,12.3967992 C55.923118,12.3967992 58.2886816,13.7847933 59.533715,16.0182218 L63.2600784,22.713423 C65.3103791,26.3718879 69.1961942,28.6445375 73.4009125,28.6445375 L111.046793,28.6445375 C115.25224,28.6445375 119.138055,26.3718879 121.191268,22.7076124 L124.913991,16.0196744 C126.159752,13.7855196 128.525316,12.3967992 131.087464,12.3967992 L148.471335,12.3967992 C156.54221,12.3967992 163.109579,18.6838096 163.109579,26.4103827 L163.109579,252.858969 L163.109579,252.858969 Z" id="Shape" fill="#4A555F" fill-rule="nonzero"></path>
                        <path d="M148.488081,276.672764 L35.9770991,276.672764 C28.5979095,276.672764 21.9708365,273.476965 17.4792508,268.432684 L17.4792508,296.605114 C17.4792508,306.213578 25.3149528,314.030941 34.9475801,314.030941 L149.50231,314.030941 C159.134209,314.030941 166.970639,306.214304 166.970639,296.605114 L166.970639,268.442126 C162.482694,273.480596 155.85999,276.672764 148.488081,276.672764 Z" id="Path" fill="#FFD351" fill-rule="nonzero"></path>
                        <path d="M67.2361765,9.81473797 C67.5579923,10.2766764 67.8579652,10.75532 68.1346394,11.2535743 L71.8471689,17.9233545 C72.155879,18.4739037 72.7660182,18.8297996 73.4009125,18.8297996 L111.046793,18.8297996 C111.681688,18.8297996 112.291827,18.47463 112.589616,17.9436914 L116.315251,11.2506691 C116.591925,10.7545937 116.89117,10.27595 117.211529,9.8161906 L67.2361765,9.8161906 L67.2361765,9.81473797 Z" id="Path" fill="#FFD351" fill-rule="nonzero"></path>
                        <path d="M109.159585,284.511191 L75.2407952,284.511191 C69.6454255,284.511191 65.1086983,289.036153 65.1086983,294.618634 L65.1086983,294.923689 C65.1086983,300.505442 69.6446975,305.031132 75.2407952,305.031132 L109.159585,305.031132 C114.754955,305.031132 119.291682,300.50617 119.291682,294.923689 L119.291682,294.618634 C119.291682,289.036878 114.755682,284.511191 109.159585,284.511191 Z" id="Path" fill="#F58E70" fill-rule="nonzero"></path>
                        <path d="M109.159585,282.246531 L75.2407952,282.246531 C68.4018483,282.246531 62.8385144,287.797053 62.8385144,294.618634 L62.8385144,294.923689 C62.8385144,301.745995 68.4018483,307.29652 75.2407952,307.29652 L109.159585,307.29652 C115.998532,307.29652 121.561866,301.74672 121.561866,294.923689 L121.561866,294.618634 C121.561866,287.796328 115.998532,282.246531 109.159585,282.246531 Z M117.02077,294.923689 C117.02077,299.248187 113.494631,302.766472 109.159585,302.766472 L75.2407952,302.766472 C70.9057489,302.766472 67.3796102,299.248187 67.3796102,294.923689 L67.3796102,294.618634 C67.3796102,290.294863 70.9057489,286.776576 75.2407952,286.776576 L109.159585,286.776576 C113.494631,286.776576 117.02077,290.294863 117.02077,294.618634 L117.02077,294.923689 Z" id="Shape" fill="#4B555F" fill-rule="nonzero"></path>
                        <path d="M44.4127469,284.028914 C38.474447,284.028914 33.6435714,288.848036 33.6435714,294.771161 C33.6435714,300.694287 38.474447,305.513408 44.4127469,305.513408 C50.3503189,305.513408 55.1811945,300.694287 55.1811945,294.771161 C55.1811945,288.848036 50.3495909,284.028914 44.4127469,284.028914 Z M44.4127469,300.98336 C40.9790757,300.98336 38.1846672,298.196477 38.1846672,294.771161 C38.1846672,291.345845 40.9783476,288.558962 44.4127469,288.558962 C47.8471463,288.558962 50.6400987,291.345845 50.6400987,294.771161 C50.6393705,298.196477 47.8464183,300.98336 44.4127469,300.98336 Z" id="Shape" fill="#4B555F" fill-rule="nonzero"></path>
                        <path d="M140.843138,284.028914 C134.904839,284.028914 130.073963,288.848036 130.073963,294.771161 C130.073963,300.694287 134.904839,305.513408 140.843138,305.513408 C146.78071,305.513408 151.611586,300.694287 151.611586,294.771161 C151.611586,288.848036 146.78071,284.028914 140.843138,284.028914 Z M140.843138,300.98336 C137.409467,300.98336 134.615059,298.196477 134.615059,294.771161 C134.615059,291.345845 137.408739,288.558962 140.843138,288.558962 C144.277538,288.558962 147.07049,291.345845 147.07049,294.771161 C147.07049,298.196477 144.277538,300.98336 140.843138,300.98336 Z" id="Shape" fill="#4B555F" fill-rule="nonzero"></path>
                        <path d="M6.09119889,61.486468 C2.73252085,61.486468 -2.84217094e-14,64.2116139 -2.84217094e-14,67.5621199 L-2.84217094e-14,80.6823321 C-2.84217094e-14,84.0328378 2.73252085,86.7579837 6.09119889,86.7579837 C9.44987694,86.7579837 12.1816697,84.0321116 12.1816697,80.6823321 L12.1816697,67.5621199 C12.1809416,64.2116139 9.44914884,61.486468 6.09119889,61.486468 Z M7.6398458,80.6823321 C7.6398458,81.5343032 6.94524818,82.2279372 6.0904708,82.2279372 C5.23569344,82.2279372 4.54036772,81.5343032 4.54036772,80.6823321 L4.54036772,67.5621199 C4.54036772,66.7101486 5.23569344,66.0165147 6.0904708,66.0165147 C6.94524818,66.0165147 7.6398458,66.7101486 7.6398458,67.5621199 L7.6398458,80.6823321 Z" id="Shape" fill="#4A555F" fill-rule="nonzero"></path>
                        <path d="M6.09119889,93.1684683 C2.73252085,93.1684683 -2.84217094e-14,95.8943406 -2.84217094e-14,99.2441202 L-2.84217094e-14,112.364332 C-2.84217094e-14,115.714838 2.73252085,118.439984 6.09119889,118.439984 C9.44987694,118.439984 12.1816697,115.714112 12.1816697,112.364332 L12.1816697,99.2441202 C12.1809416,95.8943406 9.44914884,93.1684683 6.09119889,93.1684683 Z M7.6398458,112.364332 C7.6398458,113.216303 6.94524818,113.909937 6.0904708,113.909937 C5.23569344,113.909937 4.54036772,113.216303 4.54036772,112.364332 L4.54036772,99.2441202 C4.54036772,98.3914226 5.23569344,97.698515 6.0904708,97.698515 C6.94524818,97.698515 7.6398458,98.3921488 7.6398458,99.2441202 L7.6398458,112.364332 Z" id="Shape" fill="#4A555F" fill-rule="nonzero"></path>
                        <path d="M178.358691,179.242987 C175.000013,179.242987 172.267492,181.968133 172.267492,185.318639 L172.267492,222.704415 C172.267492,226.054195 175.000013,228.780068 178.358691,228.780068 C181.717369,228.780068 184.449162,226.054195 184.449162,222.704415 L184.449162,185.318639 C184.448434,181.968133 181.717369,179.242987 178.358691,179.242987 Z M179.907338,222.704415 C179.907338,223.556387 179.212741,224.25002 178.357963,224.25002 C177.503186,224.25002 176.80786,223.556387 176.80786,222.704415 L176.80786,185.318639 C176.80786,184.466667 177.503186,183.773034 178.357963,183.773034 C179.212012,183.773034 179.907338,184.466667 179.907338,185.318639 L179.907338,222.704415 Z" id="Shape" fill="#4A555F" fill-rule="nonzero"></path>
                        <path d="M30.3750957,45.2149514 L30.3750957,241.599087 C30.3750957,245.911288 33.1660373,249.407019 36.6088384,249.407019 L147.356144,249.407019 C150.798945,249.407019 153.589887,245.911288 153.589887,241.599087 L153.589887,45.2149514 C153.589887,40.9027495 150.798945,37.4070191 147.356144,37.4070191 L36.6088384,37.4070191 C33.1660373,37.4070191 30.3750957,40.9027495 30.3750957,45.2149514 Z" id="Path" stroke="#4A555F" stroke-width="3.38"></path>
                        <path d="M144.33984,47.7615204 C143.514663,46.937753 142.416375,46.4843654 141.248469,46.4843654 C140.081538,46.4843654 138.98471,46.9372676 138.159046,47.7600642 C136.455141,49.4585687 136.454654,52.2235535 138.158559,53.923029 C138.984223,54.7467964 140.082511,55.200184 141.250417,55.200184 C142.417348,55.200184 143.514176,54.7472818 144.33984,53.9244851 C146.043745,52.2259806 146.044232,49.4614813 144.33984,47.7615204 Z M142.19292,51.7837579 C141.689537,52.2861735 140.809836,52.2852025 140.306453,51.7827871 C139.786032,51.2638669 139.785545,50.4197115 140.305966,49.9012769 C140.557658,49.6503119 140.892597,49.5119655 141.248469,49.5119655 C141.605316,49.5119655 141.940255,49.6507973 142.192433,49.9022479 C142.712854,50.4211679 142.713341,51.2653232 142.19292,51.7837579 Z" id="Shape" fill="#FFFFFF" fill-rule="nonzero"></path>
                        <polygon id="Rectangle" fill="#FFFFFF" fill-rule="nonzero" transform="translate(144.161771, 55.200184) rotate(-45.000000) translate(-144.161771, -55.200184) " points="142.70382 52.2895966 145.612636 52.2931399 145.619722 58.1107717 142.710906 58.1072287"></polygon>
                    </g>
                </g>
                <g id="ASYMMETRIC-KEY-Copy-2" transform="translate(92.500000, 220.000000) rotate(-90.000000) translate(-92.500000, -220.000000) translate(-4.000000, 174.000000)">
                    <path d="M156.941341,60.5 L149.086592,49.7115385 L115.332402,49.7115385 L111.723464,59.2307692 L78.6061453,59.2307692 L79.5614525,56.6923077 C81.1536313,52.4615385 82.0027933,48.0192308 82.0027933,43.5769231 C82.0027933,39.0288462 81.1536313,34.4807692 79.4553073,30.25 L78.5,27.5 L173.393855,27.5 L192.5,36.0673077 L192.5,46.8557692 L172.544693,59.8653846 L164.371508,49.9230769 L156.941341,60.5 Z" id="Path" fill="#FFFFFF"></path>
                    <path d="M156.941341,60.5 L149.086592,49.7115385 L115.332402,49.7115385 L111.723464,59.2307692 L78.6061453,59.2307692 L79.5614525,56.6923077 C81.1536313,52.4615385 82.0027933,48.0192308 82.0027933,43.5769231 C82.0027933,39.0288462 81.1536313,34.4807692 79.4553073,30.25 L78.5,27.5 L173.393855,27.5 L192.5,36.0673077 L192.5,46.8557692 L172.544693,59.8653846 L164.371508,49.9230769 L156.941341,60.5 Z M84.0195531,55.3173077 L109.069832,55.3173077 L112.678771,45.7980769 L150.997207,45.7980769 L156.941341,53.9423077 L164.265363,43.4711538 L173.5,54.6826923 L188.891061,44.6346154 L188.891061,38.3942308 L172.756983,31.2019231 L83.9134078,31.2019231 C85.1871508,35.1153846 85.8240223,39.2403846 85.8240223,43.3653846 C85.8240223,47.4903846 85.1871508,51.5096154 84.0195531,55.3173077 Z" id="Shape" fill="#4A555F" fill-rule="nonzero"></path>
                    <polygon id="Polygon" fill="#FFFFFF" fill-rule="nonzero" points="46 0 85.8371686 23 85.8371686 69 46 92 6.16283143 69 6.16283143 23"></polygon>
                    <g id="Group" transform="translate(6.000000, 0.000000)" fill-rule="nonzero">
                        <path d="M164.939407,36.706588 L82.7631319,36.706588 C83.1878155,39.2743329 82.7631319,41.8420779 82.7631319,44.5168123 C82.7631319,47.0845573 83.1878155,49.7592916 82.7631319,52.3270366 L99.2196211,52.3270366 L102.829432,42.6979929 L146.3595,42.6979929 L149.96931,47.7264935 L157.082761,37.4555136 L167.487509,50.1872491 L177.573744,43.5539079 L177.679915,42.3770248 L164.939407,36.706588 Z" id="Path" fill="#EC8D53"></path>
                        <rect id="Rectangle" fill="#4A555F" x="87.1161387" y="36.706588" width="96.8278591" height="3.85161747"></rect>
                        <path d="M39.8735892,7.10909091 L73.3260197,26.5545455 L73.3260197,65.4454545 L39.8735892,84.8909091 L6.42115867,65.4454545 L6.42115867,26.5545455 L39.8735892,7.10909091 Z M23.8102823,34.5668005 C20.8374971,34.5668005 18.1832247,35.850673 16.3783194,37.8834711 L16.3783194,37.8834711 L16.4844903,37.9904604 C14.785756,39.8092798 13.724047,42.163046 13.724047,44.8377804 C13.8302179,47.5125148 14.785756,49.866281 16.4844903,51.6851004 L16.4844903,51.6851004 L16.3783194,51.7920897 C18.1832247,53.8248878 20.8374971,55.1087603 23.8102823,55.1087603 C27.9509473,55.1087603 31.5607579,52.5410153 33.0471504,48.9033766 C33.5780049,47.6195041 33.8965176,46.3356316 33.7903467,44.8377804 C33.7903467,43.3399292 33.471834,41.9490673 32.9409795,40.7721842 C33.0471504,40.7721842 33.0471504,40.7721842 33.0471504,40.7721842 L32.9373898,40.5141926 C31.3885612,37.0137275 27.8523601,34.5668005 23.8102823,34.5668005 Z" id="Combined-Shape" fill="#EC8D53"></path>
                        <path d="M39.8735892,0 L79.4409801,23 L79.4409801,69 L39.8735892,92 L0.306198256,69 L0.306198256,23 L39.8735892,0 Z M39.8735892,4.18181818 L3.90323379,25.0909091 L3.90323379,66.9090909 L39.8735892,87.8181818 L75.8439445,66.9090909 L75.8439445,25.0909091 L39.8735892,4.18181818 Z" id="Combined-Shape" fill="#4A555F"></path>
                        <path d="M23.8102823,56.8205903 C18.0770538,56.8205903 13.1931925,52.7549941 12.1314835,47.0845573 L12.1314835,46.8705785 C12.0253126,46.5496104 12.0253126,46.2286423 12.0253126,45.9076741 C12.0253126,45.6936954 12.0253126,45.4797166 12.0253126,45.2657379 L12.0253126,45.0517591 C12.0253126,44.9447698 12.0253126,44.8377804 12.0253126,44.730791 C12.0253126,44.6238017 12.0253126,44.5168123 12.0253126,44.4098229 L13.9363888,44.4098229 L12.0253126,44.1958442 C12.0253126,43.9818654 12.0253126,43.7678867 12.0253126,43.5539079 C12.0253126,43.2329398 12.1314835,42.9119717 12.1314835,42.5910035 L12.1314835,42.3770248 C13.1931925,36.706588 18.1832247,32.6409917 23.8102823,32.6409917 C30.392878,32.6409917 35.7014229,37.9904604 35.7014229,44.5168123 L35.7014229,44.5168123 C35.7014229,44.5168123 35.7014229,44.5168123 35.7014229,44.6238017 L35.7014229,44.730791 C35.7014229,51.4711216 30.392878,56.8205903 23.8102823,56.8205903 Z M23.8102823,36.4926092 C19.8819591,36.4926092 16.5906612,39.2743329 15.8474649,43.1259504 L15.8474649,43.2329398 C15.8474649,43.4469185 15.741294,43.6608973 15.741294,43.874876 C15.741294,43.9818654 15.741294,44.1958442 15.741294,44.3028335 L15.741294,44.8377804 L15.741294,45.0517591 C15.741294,45.2657379 15.741294,45.4797166 15.741294,45.586706 C15.741294,45.8006848 15.8474649,46.0146635 15.8474649,46.2286423 L15.8474649,46.3356316 C16.5906612,50.1872491 19.98813,52.9689728 23.8102823,52.9689728 C28.26946,52.9689728 31.8792706,49.3313341 31.9854414,44.8377804 L31.9854414,44.6238017 C31.9854414,40.1302479 28.26946,36.4926092 23.8102823,36.4926092 Z" id="Shape" fill="#4A555F"></path>
                    </g>
                </g>
                <g id="computer" transform="translate(260.000000, 0.000000)" fill-rule="nonzero">
                    <polygon id="Path-7" fill="#FFFFFF" points="8.66527263 401 680.800818 404.448303 684 433.758875 673.690961 452.21605 651.786471 466 623.739243 466 40.4810522 466 22.118633 458.365917 10.0457304 444.841261 4 428.127602 4 404.448303 4 401"></polygon>
                    <rect id="Rectangle" fill="#FFFFFF" x="67" y="6" width="556" height="392" rx="20"></rect>
                    <path d="M589.709829,0 L98.2916159,0 C77.1779522,0 60,16.9643897 60,37.8155611 L60,366.183012 C60,387.03561 77.1779522,404 98.2916159,404 L589.709829,404 C610.823494,404 628,387.03561 628,366.183012 L628,37.8155611 C628,16.962964 610.822049,0 589.709829,0 Z M619.42113,366.183012 C619.42113,382.363202 606.090821,395.526361 589.709829,395.526361 L98.2916159,395.526361 C81.9077362,395.526361 68.5788697,382.363202 68.5788697,366.183012 L68.5788697,37.8155611 C68.5788697,21.6353716 81.90918,8.47221425 98.2916159,8.47221425 L589.709829,8.47221425 C606.092266,8.47221425 619.42113,21.6353716 619.42113,37.8155611 L619.42113,366.183012 Z M104.352554,361.38228 L583.673435,361.38228 L583.673435,45.9484305 L104.352554,45.9484305 L104.352554,361.38228 Z M112.931424,54.4206446 L575.094565,54.4206446 L575.094565,352.910067 L112.931424,352.910067 L112.931424,54.4206446 Z" id="Shape" fill="#4A555F"></path>
                    <path d="M588.401787,16 L99.5996487,16 C88.7931308,16 80,24.7933476 80,35.6033339 L80,366.396667 C80,377.205216 88.7916947,386 99.5996487,386 L588.401787,386 C599.206869,386 608,377.206653 608,366.396667 L608,35.6033339 C608,24.7947842 599.206869,16 588.401787,16 Z M592.355322,371.5187 L95.6734001,371.5187 L95.6734001,33.8394935 L592.355322,33.8394935 L592.355322,371.5187 L592.355322,371.5187 Z" id="Shape" fill="#71CDE1"></path>
                    <path d="M0,397 L0,423.624636 C0,449.19564 21.3898266,470 47.6822108,470 L641.319233,470 C667.611616,470 689,449.19564 689,423.624636 L689,397 L0,397 Z M680.416913,423.624636 C680.416913,444.593365 662.878064,461.652407 641.319233,461.652407 L47.6822108,461.652407 C26.1233801,461.652407 8.58308681,444.593365 8.58308681,423.624636 L8.58308681,405.347593 L680.416913,405.347593 L680.416913,423.624636 Z" id="Shape" fill="#4A555F"></path>
                    <path d="M387.779053,415 C386.264209,418.071877 384.264619,420.826424 381.863953,423.237559 C376.120536,429.007474 368.175547,432.564766 359.402445,432.564766 L310.050316,432.564766 C297.648804,432.564766 286.903521,425.447283 281.673706,415 L19,415 L19,423.811364 C19,439.912639 32.0305319,453 48.0344833,453 L640.938105,453 C656.969468,453 670,439.912639 670,423.811364 L670,415 L387.779053,415 Z" id="Path" fill="#71CDE1"></path>
                    <path d="M275,398 L275,402.355994 C275,422.562758 291.112638,439 310.917161,439 L360.082841,439 C379.888798,439 396,422.561294 396,402.355994 L396,398 L275,398 Z M360.082841,430.288014 L310.917161,430.288014 C297.272002,430.288014 285.927622,420.051209 283.871148,406.711988 L387.127414,406.711988 C385.072378,420.052675 373.725126,430.288014 360.082841,430.288014 Z" id="Shape" fill="#4A555F"></path>
                    <g id="Group-3" transform="translate(142.000000, 70.000000)">
                        <path d="M8.97541091,284 L0,284 L0,31.424863 C0,14.0974268 14.0384041,0 31.2924309,0 L374.707569,0 C391.962748,0 406,14.0974268 406,31.424863 L406,282.178303 L397.024589,282.178303 L397.024589,31.424863 C397.024589,19.0721042 387.012624,9.02202904 374.706417,9.02202904 L31.2935827,9.02202904 C18.9873764,9.02202904 8.97541091,19.0721042 8.97541091,31.424863 L8.97541091,284 Z" id="Path-Copy-3" fill="#747373"></path>
                        <rect id="Rectangle-Copy-19" fill="#747373" x="6" y="55" width="398" height="9"></rect>
                        <circle id="Oval-Copy-2" fill="#F58E6F" cx="49.5" cy="30.5" r="10.5"></circle>
                        <circle id="Oval-Copy-3" fill="#F58E6F" cx="86.5" cy="30.5" r="10.5"></circle>
                        <ellipse id="Oval-Copy-4" fill="#F58E6F" cx="123" cy="30.5" rx="10" ry="10.5"></ellipse>
                    </g>
                </g>
                <g id="Lock" transform="translate(511.000000, 155.000000)">
                    <polygon id="Path-6" fill="#FFFFFF" fill-rule="nonzero" points="52 67.4191471 54.2698504 31.2862253 66.136817 10.1914132 87.2121365 3 108.392527 10.1914132 118.511813 31.2862253 120 57.0939188 120 70 104.723641 57.0939188 102.898272 33.9790382 88.1902514 19.748677 74.0152268 25.8884392 66.136817 41.9534884 66.136817 59.5724508"></polygon>
                    <path d="M86.4910637,0 C65.8187987,0 49,17.9235174 49,39.9540075 L49,71.8091179 L53.7867215,73.39579 C57.440482,67.7493234 62.3779541,63.0820079 68.0583005,59.9045255 C68.4305149,59.6967766 68.8035061,59.5097196 69.1757204,59.3201798 L70.6707937,56.7965684 L70.6707937,39.9548352 C70.6707937,30.6524842 77.766953,23.0857885 86.4895097,23.0857885 C95.2229453,23.0857885 102.328429,30.6533118 102.328429,39.9548352 L102.328429,56.6542068 L103.759006,59.1438831 L104.106354,59.316869 C105.143736,59.8258954 106.186558,60.4334161 107.192857,61.1179115 L108.189055,61.8106838 C112.431054,64.7108918 116.250329,68.6150817 119.234259,73.1019618 L119.495353,72.9033175 L122.549219,74 L123.284323,71.6617901 L124,71.4854931 L124,39.955663 C124.002331,17.9235174 107.175762,0 86.4910637,0 Z M119,63.7937523 C116.630441,61.2670114 114.014216,59.0254019 111.249991,57.16342 L110.20773,56.4510022 C109.39334,55.9045688 108.560941,55.4008641 107.741853,54.9538569 L107.741853,40.1138768 C107.741853,27.818715 98.2080186,17.8152865 86.4894286,17.8152865 C74.7818016,17.8152865 65.258147,27.818715 65.258147,40.1138768 L65.258147,55.1140894 C61.0937993,57.4378691 57.2880962,60.4502372 54,64 L54,40.1130552 C54,21.3025997 68.5752165,6 86.4894286,6 C104.41617,6 119,21.3034214 119,40.1130552 L119,63.7937523 Z" id="Shape" stroke="#5C666F" fill="#5C666F" fill-rule="nonzero"></path>
                    <path d="M87,51.0414519 L35.9403996,80.5207259 L35.9403996,139.479274 L87,168.958548 L138.0596,139.479274 L138.0596,80.5207259 L87,51.0414519 Z" id="Polygon" stroke="#747373" stroke-width="7" fill="#EC8D53" transform="translate(87.000000, 110.000000) rotate(-330.000000) translate(-87.000000, -110.000000) "></path>
                    <path d="M93.6079899,106.136288 C97.8364543,103.49527 100.701623,98.696284 100.701623,93.1504096 C100.701623,84.7836872 94.2496879,78 86.2921348,78 C78.3333332,78 71.8826468,84.7836872 71.8826468,93.1504096 C71.8826468,98.4954511 74.5280899,103.169737 78.503121,105.867198 L69,136 L103,136 L93.6079899,106.136288 Z" id="Path" fill="#FFFFFF" fill-rule="nonzero"></path>
                </g>
            </g>
        </g>
    </g>
</svg>