<?xml version="1.0" encoding="UTF-8"?>
<svg width="701px" height="645px" viewBox="0 0 701 645" version="1.1" xmlns="http://www.w3.org/2000/svg" xmlns:xlink="http://www.w3.org/1999/xlink">
    <!-- Generator: Sketch 58 (84663) - https://sketch.com -->
    <title>multi tenant</title>
    <desc>Created with Sketch.</desc>
    <g id="Page-1" stroke="none" stroke-width="1" fill="none" fill-rule="evenodd">
        <g id="user-management" transform="translate(-77.000000, -1820.000000)" fill-rule="nonzero">
            <g id="multi-tenant" transform="translate(77.000000, 1820.000000)">
                <g id="HIERARCHY" transform="translate(0.000000, 301.000000)">
                    <path d="M243.769968,76 L252.308534,76 L252.308534,67 L243.769968,67 L243.769968,76 Z M329.154267,76 L337.692834,76 L337.692834,67 L329.154267,67 L329.154267,76 Z M226.692834,76 L235.231401,76 L235.231401,67 L226.692834,67 L226.692834,76 Z M312.077134,76 L320.6157,76 L320.6157,67 L312.077134,67 L312.077134,76 Z M209.6157,76 L218.154267,76 L218.154267,67 L209.6157,67 L209.6157,76 Z M295,76 L303.538567,76 L303.538567,67 L295,67 L295,76 Z M277.922866,76 L286.461433,76 L286.461433,67 L277.922866,67 L277.922866,76 Z M260.845733,76 L269.3843,76 L269.3843,67 L260.845733,67 L260.845733,76 Z M124.231401,76 L132.769968,76 L132.769968,67 L124.231401,67 L124.231401,76 Z M90.0771336,76 L98.6157004,76 L98.6157004,67 L90.0771336,67 L90.0771336,76 Z M107.154267,76 L115.692834,76 L115.692834,67 L107.154267,67 L107.154267,76 Z M73,76 L81.5385668,76 L81.5385668,67 L73,67 L73,76 Z M141.307166,76 L149.845733,76 L149.845733,67 L141.307166,67 L141.307166,76 Z M175.461433,76 L184,76 L184,67 L175.461433,67 L175.461433,76 Z M192.538567,76 L201.077134,76 L201.077134,67 L192.538567,67 L192.538567,76 Z M158.3843,76 L166.922866,76 L166.922866,67 L158.3843,67 L158.3843,76 Z M414.538567,76 L423.077134,76 L423.077134,67 L414.538567,67 L414.538567,76 Z M551.152899,76 L559.691466,76 L559.691466,67 L551.152899,67 L551.152899,76 Z M534.077134,76 L542.6157,76 L542.6157,67 L534.077134,67 L534.077134,76 Z M568.230032,76 L576.768599,76 L576.768599,67 L568.230032,67 L568.230032,76 Z M499.922866,76 L508.461433,76 L508.461433,67 L499.922866,67 L499.922866,76 Z M517,76 L525.538567,76 L525.538567,67 L517,67 L517,76 Z M619.461433,67 L619.461433,76 L628,76 L628,67 L619.461433,67 Z M346.231401,76 L354.769968,76 L354.769968,67 L346.231401,67 L346.231401,76 L346.231401,76 Z M585.307166,76 L593.845733,76 L593.845733,67 L585.307166,67 L585.307166,76 Z M602.3843,76 L610.922866,76 L610.922866,67 L602.3843,67 L602.3843,76 Z M380.3843,76 L388.922866,76 L388.922866,67 L380.3843,67 L380.3843,76 Z M397.461433,76 L406,76 L406,67 L397.461433,67 L397.461433,76 Z M363.307166,76 L371.845733,76 L371.845733,67 L363.307166,67 L363.307166,76 Z M482.845733,76 L491.3843,76 L491.3843,67 L482.845733,67 L482.845733,76 Z M465.768599,76 L474.307166,76 L474.307166,67 L465.768599,67 L465.768599,76 Z M448.691466,76 L457.230032,76 L457.230032,67 L448.691466,67 L448.691466,76 Z M431.6157,76 L440.154267,76 L440.154267,67 L431.6157,67 L431.6157,76 Z" id="Shape" fill="#4A555F"></path>
                    <path d="M346,42.8571429 L355,42.8571429 L355,34.2857143 L346,34.2857143 L346,42.8571429 Z M346,0 L346,8.57142857 L355,8.57142857 L355,0 L346,0 Z M346,60 L355,60 L355,51.4285714 L346,51.4285714 L346,60 Z M346,25.7142857 L355,25.7142857 L355,17.1428571 L346,17.1428571 L346,25.7142857 Z" id="Shape" fill="#4A555F"></path>
                    <path d="M73,144.607721 L82,144.607721 L82,136.092138 L73,136.092138 L73,144.607721 Z M73,178 L82,178 L82,170.154473 L73,170.154473 L73,178 Z M73,161.638889 L82,161.638889 L82,153.123305 L73,153.123305 L73,161.638889 Z M73,127.577919 L82,127.577919 L82,119.062335 L73,119.062335 L73,127.577919 Z M73,85 L73,93.5155837 L82,93.5155837 L82,85 L73,85 Z M73,110.546751 L82,110.546751 L82,102.031167 L73,102.031167 L73,110.546751 Z" id="Shape" fill="#4A555F"></path>
                    <path d="M620,144.607721 L629,144.607721 L629,136.092138 L620,136.092138 L620,144.607721 Z M620,161.638889 L629,161.638889 L629,153.123305 L620,153.123305 L620,161.638889 Z M620,178 L629,178 L629,170.154473 L620,170.154473 L620,178 Z M620,85 L620,93.5155837 L629,93.5155837 L629,85 L620,85 Z M620,127.577919 L629,127.577919 L629,119.062335 L620,119.062335 L620,127.577919 Z M620,110.546751 L629,110.546751 L629,102.031167 L620,102.031167 L620,110.546751 Z" id="Shape" fill="#4A555F"></path>
                    <path d="M346,161.638889 L355,161.638889 L355,153.123305 L346,153.123305 L346,161.638889 Z M346,178 L355,178 L355,170.154473 L346,170.154473 L346,178 Z M346,144.607721 L355,144.607721 L355,136.092138 L346,136.092138 L346,144.607721 Z M346,85 L346,93.5155837 L355,93.5155837 L355,85 L346,85 Z M346,127.577919 L355,127.577919 L355,119.062335 L346,119.062335 L346,127.577919 Z M346,110.546751 L355,110.546751 L355,102.031167 L346,102.031167 L346,110.546751 Z" id="Shape" fill="#4A555F"></path>
                    <path d="M77.0013666,190 C34.5442912,190 0,224.540191 0,266.998633 C0,309.455709 34.5442912,344 77.0013666,344 C119.459809,344 154,309.457075 154,266.998633 C154,224.540191 119.459809,190 77.0013666,190 Z M77.0013666,335.472233 C39.2454963,335.472233 8.52776742,304.753137 8.52776742,266.998633 C8.52776742,229.242763 39.2454963,198.527767 77.0013666,198.527767 C114.757237,198.527767 145.472233,229.242763 145.472233,266.998633 C145.472233,304.753137 114.757237,335.472233 77.0013666,335.472233 Z" id="Shape" fill="#4A555F"></path>
                    <path d="M77.5013661,208 C45.2439227,208 19,234.24119 19,266.498634 C19,298.756077 45.2439227,325 77.5013661,325 C109.75881,325 136,298.756077 136,266.498634 C136.001366,234.24119 109.75881,208 77.5013661,208 Z" id="Path" fill="#FFD452"></path>
                    <path d="M350.998633,190 C308.540191,190 274,224.540191 274,266.998633 C274,309.455709 308.540191,344 350.998633,344 C393.457075,344 428,309.457075 428,266.998633 C428,224.540191 393.457075,190 350.998633,190 Z M350.998633,335.472233 C313.242763,335.472233 282.527767,304.753137 282.527767,266.998633 C282.527767,229.242763 313.242763,198.527767 350.998633,198.527767 C388.754504,198.527767 419.472233,229.242763 419.472233,266.998633 C419.472233,304.753137 388.754504,335.472233 350.998633,335.472233 Z" id="Shape" fill="#4A555F"></path>
                    <path d="M350.498634,208 C318.24119,208 292,234.24119 292,266.498634 C292,298.756077 318.24119,325 350.498634,325 C382.756077,325 409,298.756077 409,266.498634 C409.001366,234.24119 382.756077,208 350.498634,208 Z" id="Path" fill="#F58E6F"></path>
                    <path d="M623.998633,190 C581.540191,190 547,224.540191 547,266.998633 C547,309.455709 581.540191,344 623.998633,344 C666.455709,344 701,309.457075 701,266.998633 C701,224.540191 666.455709,190 623.998633,190 Z M623.998633,335.472233 C586.242763,335.472233 555.527767,304.753137 555.527767,266.998633 C555.527767,229.242763 586.242763,198.527767 623.998633,198.527767 C661.754504,198.527767 692.472233,229.242763 692.472233,266.998633 C692.472233,304.753137 661.754504,335.472233 623.998633,335.472233 Z" id="Shape" fill="#4A555F"></path>
                    <path d="M623.501366,208 C591.243923,208 565,234.24119 565,266.498634 C565,298.756077 591.243923,325 623.501366,325 C655.75881,325 682,298.756077 682,266.498634 C682.001366,234.24119 655.75881,208 623.501366,208 Z" id="Path" fill="#71CCE0"></path>
                    <rect id="Rectangle" fill="#4A555F" x="36" y="262" width="18" height="9"></rect>
                    <rect id="Rectangle" fill="#4A555F" x="68" y="262" width="18" height="9"></rect>
                    <rect id="Rectangle" fill="#4A555F" x="100" y="262" width="18" height="9"></rect>
                    <rect id="Rectangle" fill="#4A555F" x="309" y="262" width="18" height="9"></rect>
                    <rect id="Rectangle" fill="#4A555F" x="342" y="262" width="18" height="9"></rect>
                    <rect id="Rectangle" fill="#4A555F" x="374" y="262" width="18" height="9"></rect>
                    <rect id="Rectangle" fill="#4A555F" x="583" y="262" width="18" height="9"></rect>
                    <rect id="Rectangle" fill="#4A555F" x="615" y="262" width="18" height="9"></rect>
                    <rect id="Rectangle" fill="#4A555F" x="647" y="262" width="18" height="9"></rect>
                </g>
                <g id="LAPTOP" transform="translate(124.000000, 0.000000)">
                    <path d="M376.540648,0 L75.4611214,0 C62.5244664,0 52,10.539757 52,23.4943214 L52,227.505679 C52,240.461129 62.5244664,251 75.4611214,251 L376.540648,251 C389.476418,251 400,240.460243 400,227.505679 L400,23.4943214 C400,10.539757 389.475534,0 376.540648,0 Z M394.743959,227.505679 C394.743959,237.558222 386.577723,245.736322 376.540648,245.736322 L75.4611214,245.736322 C65.4222771,245.736322 57.2560413,237.557336 57.2560413,227.505679 L57.2560413,23.4943214 C57.2560413,13.4417779 65.4222771,5.26367762 75.4611214,5.26367762 L376.540648,5.26367762 C386.577723,5.26367762 394.743959,13.4426637 394.743959,23.4943214 L394.743959,227.505679 Z" id="Shape" fill="#4A555F"></path>
                    <path d="M80,28 L80,224 L374,224 L374,28 L80,28 Z M368.737997,218.735651 L85.2628881,218.735651 L85.2628881,33.2643493 L368.737997,33.2643493 L368.737997,218.735651 L368.737997,218.735651 Z" id="Shape" fill="#4A555F"></path>
                    <path d="M376.93759,11 L76.0641776,11 C69.4115545,11 64,16.4186035 64,23.0798922 L64,226.920108 C64,233.581397 69.4115545,239 76.0641776,239 L376.93759,239 C383.588446,239 389,233.581397 389,226.920108 L389,23.0798922 C389,16.4186035 383.588446,11 376.93759,11 Z M379.370226,230.076387 L73.6474527,230.076387 L73.6474527,21.9921001 L379.370226,21.9921001 L379.370226,230.076387 Z" id="Shape" fill="#71CCE0"></path>
                    <path d="M15,245 L15,261.778054 C15,277.891288 28.101738,291 44.2053125,291 L407.796457,291 C423.900031,291 437,277.891288 437,261.778054 L437,245 L15,245 Z M431.743026,261.777168 C431.743026,274.989454 421.000822,285.738987 407.796457,285.738987 L44.2053125,285.738987 C31.0009476,285.738987 20.2569739,274.989454 20.2569739,261.777168 L20.2569739,250.260127 L431.743026,250.260127 L431.743026,261.777168 Z" id="Shape" fill="#4A555F"></path>
                    <path d="M253.02537,257 C252.09692,258.859224 250.870482,260.526386 249.399995,261.985701 C245.879843,265.477885 241.010345,267.631778 235.633294,267.631778 L205.385282,267.631778 C197.783488,267.631778 191.198568,263.323991 187.993205,257 L27,257 L27,262.333867 C27,272.079006 34.9873215,280 44.7952889,280 L408.187911,280 C418.013563,280 426,272.079006 426,262.333867 L426,257 L253.02537,257 Z" id="Path" fill="#71CCE0"></path>
                    <rect id="Rectangle" fill="#4A555F" x="0" y="286" width="453" height="5"></rect>
                    <path d="M184,245 L184,247.655999 C184,259.975863 193.852898,270 205.966223,270 L236.033777,270 C248.146223,270 258,259.976757 258,247.655999 L258,245 L184,245 Z M236.033777,264.687109 L205.966223,264.687109 C197.622328,264.687109 190.68285,258.446272 189.42696,250.311997 L252.573919,250.311997 C251.31715,258.446272 244.377672,264.687109 236.033777,264.687109 Z" id="Shape" fill="#4A555F"></path>
                    <path d="M80,28 L80,61 L374,61 L374,28 L80,28 Z M368.737997,55.6670564 L85.2628881,55.6670564 L85.2628881,33.3320462 L368.737997,33.3320462 L368.737997,55.6670564 L368.737997,55.6670564 Z" id="Shape" fill="#4A555F"></path>
                    <path d="M100.5,36 C95.8141714,36 92,39.8121809 92,44.4995526 C92,49.1869243 95.8132765,53 100.5,53 C105.186724,53 109,49.1869243 109,44.4995526 C109,39.8121809 105.186724,36 100.5,36 Z M100.5,47.6808443 C98.7468414,47.6808443 97.3185407,46.2526188 97.3185407,44.4986577 C97.3185407,42.7446965 98.7468414,41.3173659 100.5,41.3173659 C102.253159,41.3173659 103.681459,42.7446965 103.681459,44.4986577 C103.681459,46.2526188 102.254053,47.6808443 100.5,47.6808443 Z" id="Shape" fill="#4A555F"></path>
                    <path d="M119.5,36 C114.814171,36 111,39.8121809 111,44.4995526 C111,49.1869243 114.813276,53 119.5,53 C124.186724,53 128,49.1869243 128,44.4995526 C128,39.8121809 124.185829,36 119.5,36 Z M119.5,47.6808443 C117.746841,47.6808443 116.317646,46.2526188 116.317646,44.4986577 C116.317646,42.7446965 117.745947,41.3173659 119.5,41.3173659 C121.254053,41.3173659 122.681459,42.7446965 122.681459,44.4986577 C122.681459,46.2526188 121.253159,47.6808443 119.5,47.6808443 Z" id="Shape" fill="#4A555F"></path>
                    <path d="M138.5,36 C133.814171,36 130,39.8121809 130,44.4995526 C130,49.1869243 133.814171,53 138.5,53 C143.185829,53 147,49.1869243 147,44.4995526 C147,39.8121809 143.184934,36 138.5,36 Z M138.5,47.6808443 C136.745947,47.6808443 135.317646,46.2526188 135.317646,44.4986577 C135.317646,42.7446965 136.745947,41.3173659 138.5,41.3173659 C140.253159,41.3173659 141.681459,42.7446965 141.681459,44.4986577 C141.681459,46.2526188 140.253159,47.6808443 138.5,47.6808443 Z" id="Shape" fill="#4A555F"></path>
                    <path d="M102,78 L102,200 L225,200 L225,78 L102,78 Z M219.748205,194.72214 L107.251795,194.72214 L107.251795,83.2769718 L219.748205,83.2769718 L219.748205,194.72214 Z" id="Shape" fill="#4A555F"></path>
                    <rect id="Rectangle" fill="#F58E6F" x="113" y="90" width="100" height="99"></rect>
                    <path d="M239,79 L239,105 L352,105 L352,79 L239,79 Z M346.749611,99.81727 L244.251273,99.81727 L244.251273,84.18273 L346.749611,84.18273 L346.749611,99.81727 Z" id="Shape" fill="#4A555F"></path>
                    <rect id="Rectangle" fill="#FFD452" x="251" y="90" width="90" height="4"></rect>
                    <path d="M260.952423,127 L266.190308,127 L266.190308,122 L260.952423,122 L260.952423,127 Z M292.381498,127 L297.619383,127 L297.619383,122 L292.381498,122 L292.381498,127 Z M271.429075,127 L276.666961,127 L276.666961,122 L271.429075,122 L271.429075,127 Z M240,127 L245.237885,127 L245.237885,122 L240,122 L240,127 Z M250.475771,127 L255.713656,127 L255.713656,122 L250.475771,122 L250.475771,127 Z M281.904846,127 L287.142731,127 L287.142731,122 L281.904846,122 L281.904846,127 Z M334.286344,127 L339.524229,127 L339.524229,122 L334.286344,122 L334.286344,127 Z M344.762115,122 L344.762115,127 L350,127 L350,122 L344.762115,122 Z M313.333921,127 L318.571806,127 L318.571806,122 L313.333921,122 L313.333921,127 Z M302.857269,127 L308.095154,127 L308.095154,122 L302.857269,122 L302.857269,127 Z M323.809692,127 L329.047577,127 L329.047577,122 L323.809692,122 L323.809692,127 Z" id="Shape" fill="#4A555F"></path>
                    <path d="M260.952423,145 L266.190308,145 L266.190308,140.000841 L260.952423,140.000841 L260.952423,145 Z M271.429075,145 L276.666961,145 L276.666961,140.000841 L271.429075,140.000841 L271.429075,145 Z M281.904846,145 L287.142731,145 L287.142731,140.000841 L281.904846,140.000841 L281.904846,145 Z M240,145 L245.237885,145 L245.237885,140.000841 L240,140.000841 L240,145 Z M250.475771,145 L255.713656,145 L255.713656,140.000841 L250.475771,140.000841 L250.475771,145 Z M323.809692,145 L329.047577,145 L329.047577,140.000841 L323.809692,140.000841 L323.809692,145 Z M334.286344,145 L339.524229,145 L339.524229,140.000841 L334.286344,140.000841 L334.286344,145 Z M344.762115,140 L344.762115,144.999159 L350,144.999159 L350,140 L344.762115,140 Z M313.333921,145 L318.571806,145 L318.571806,140.000841 L313.333921,140.000841 L313.333921,145 Z M302.857269,145 L308.095154,145 L308.095154,140.000841 L302.857269,140.000841 L302.857269,145 Z M292.381498,145 L297.619383,145 L297.619383,140.000841 L292.381498,140.000841 L292.381498,145 Z" id="Shape" fill="#4A555F"></path>
                    <rect id="Rectangle" fill="#4A555F" x="240" y="165" width="105" height="5"></rect>
                    <rect id="Rectangle" fill="#4A555F" x="240" y="183" width="76" height="5"></rect>
                </g>
            </g>
        </g>
    </g>
</svg>