<?xml version="1.0" encoding="UTF-8"?>
<svg width="709px" height="424px" viewBox="0 0 709 424" version="1.1" xmlns="http://www.w3.org/2000/svg" xmlns:xlink="http://www.w3.org/1999/xlink">
    <!-- Generator: Sketch 59.1 (86144) - https://sketch.com -->
    <title>t-on-prem-cloud</title>
    <desc>Created with Sketch.</desc>
    <g id="Page-1" stroke="none" stroke-width="1" fill="none" fill-rule="evenodd">
        <g id="t-on-prem-cloud" transform="translate(0.000000, 2.000000)">
            <g id="Server" transform="translate(537.000000, 0.000000)" fill-rule="nonzero">
                <g id="Group" transform="translate(0.000000, 197.191081)">
                    <rect id="Rectangle" fill="#FFFFFF" transform="translate(137.638655, 40.519412) scale(-1, 1) rotate(-180.000000) translate(-137.638655, -40.519412) " x="125.210084" y="35.3623958" width="24.8571429" height="10.3140322"></rect>
                    <rect id="Rectangle" fill="#FFFFFF" x="129.596639" y="1.47343317" width="14.6218487" height="33.8889628"></rect>
                    <rect id="Rectangle" fill="#FFFFFF" transform="translate(33.823529, 40.519412) scale(-1, 1) rotate(-180.000000) translate(-33.823529, -40.519412) " x="21.394958" y="35.3623958" width="24.8571429" height="10.3140322"></rect>
                    <rect id="Rectangle" fill="#FFFFFF" x="25.7815126" y="1.47343317" width="14.6218487" height="33.8889628"></rect>
                    <path d="M43.4047337,36.7376003 L24.0485207,36.7376003 L24.0485207,0.102906443 L43.5076923,0.102906443 L43.5076923,36.7376003 L43.4047337,36.7376003 Z M30.0201183,30.7690266 L37.4331361,30.7690266 L37.4331361,6.1743866 L30.0201183,6.1743866 L30.0201183,30.7690266 L30.0201183,30.7690266 Z" id="Shape" fill="#5C666F"></path>
                    <path d="M50.0970414,48.5718413 L17.356213,48.5718413 L17.356213,45.5875544 C17.356213,39.5160743 20.6508876,33.9591263 26.0047337,31.1806524 L26.6224852,30.871933 L40.7278107,30.871933 L41.3455621,31.1806524 C46.6994083,34.0620328 49.9940828,39.5160743 49.9940828,45.5875544 L49.9940828,48.5718413 L50.0970414,48.5718413 Z M23.739645,42.6032676 L43.7136095,42.6032676 C42.9928994,40.2364194 41.4485207,38.0753841 39.2863905,36.7376003 L28.1668639,36.7376003 C26.0047337,38.0753841 24.460355,40.1335129 23.739645,42.6032676 Z" id="Shape" fill="#5C666F"></path>
                    <rect id="Rectangle" stroke="#5C666F" stroke-width="5" fill="#FFFFFF" x="0.5" y="45.7207062" width="169" height="16.6103531" rx="8"></rect>
                    <path d="M145.745562,36.7376003 L126.286391,36.7376003 L126.286391,0.102906443 L145.745562,0.102906443 L145.745562,36.7376003 Z M132.257988,30.7690266 L139.671006,30.7690266 L139.671006,6.1743866 L132.257988,6.1743866 L132.257988,30.7690266 Z" id="Shape" fill="#5C666F"></path>
                    <path d="M152.43787,48.5718413 L119.697041,48.5718413 L119.697041,45.5875544 C119.697041,39.5160743 122.991716,33.9591263 128.345562,31.1806524 L128.963314,30.871933 L143.068639,30.871933 L143.686391,31.1806524 C149.040237,34.0620328 152.334911,39.5160743 152.334911,45.5875544 L152.334911,48.5718413 L152.43787,48.5718413 Z M125.977515,42.6032676 L145.951479,42.6032676 C145.230769,40.2364194 143.686391,38.0753841 141.52426,36.7376003 L130.507692,36.7376003 C128.345562,38.0753841 126.698225,40.1335129 125.977515,42.6032676 Z" id="Shape" fill="#5C666F"></path>
                </g>
                <g id="Group" transform="translate(0.000000, 95.837218)">
                    <rect id="Rectangle" stroke="#5C666F" stroke-width="5" fill="#FFFFFF" x="0.5" y="50.5117341" width="169" height="50.2212897" rx="8"></rect>
                    <rect id="Rectangle-Copy-10" stroke="#5C666F" stroke-width="5" fill="#FFFFFF" x="0.5" y="0.5" width="169" height="50.2212897" rx="8"></rect>
                    <rect id="Rectangle" fill="#EC8D53" x="84.3822485" y="9.4610224" width="74.1301775" height="30.6321871"></rect>
                    <rect id="Rectangle" fill="#EC8D53" x="84.3822485" y="60.827241" width="74.1301775" height="31.0489516"></rect>
                    <path d="M26.2106509,34.050125 C21.1656805,34.050125 17.1502959,29.8824805 17.1502959,24.8813071 C17.1502959,19.7759426 21.2686391,15.7124892 26.2106509,15.7124892 C31.1526627,15.7124892 35.2710059,19.8801337 35.2710059,24.8813071 C35.2710059,29.8824805 31.1526627,34.050125 26.2106509,34.050125 Z M26.2106509,21.6513826 C24.460355,21.6513826 23.1218935,23.1100582 23.1218935,24.777116 C23.1218935,26.5483649 24.5633136,27.9028494 26.2106509,27.9028494 C27.9609467,27.9028494 29.2994083,26.4441738 29.2994083,24.777116 C29.2994083,23.1100582 27.8579882,21.6513826 26.2106509,21.6513826 Z" id="Shape" fill="#5C666F"></path>
                    <path d="M147.392899,34.050125 C142.347929,34.050125 138.332544,29.8824805 138.332544,24.8813071 C138.332544,19.7759426 142.450888,15.7124892 147.392899,15.7124892 C152.43787,15.7124892 156.453254,19.8801337 156.453254,24.8813071 C156.453254,29.8824805 152.43787,34.050125 147.392899,34.050125 Z M147.392899,21.6513826 C145.642604,21.6513826 144.304142,23.1100582 144.304142,24.777116 C144.304142,26.5483649 145.745562,27.9028494 147.392899,27.9028494 C149.143195,27.9028494 150.481657,26.4441738 150.481657,24.777116 C150.481657,23.1100582 149.143195,21.6513826 147.392899,21.6513826 Z" id="Shape" fill="#5C666F"></path>
                    <path d="M26.2106509,85.6247258 C21.1656805,85.6247258 17.1502959,81.4570813 17.1502959,76.4559079 C17.1502959,71.3505434 21.2686391,67.28709 26.2106509,67.28709 C31.1526627,67.28709 35.2710059,71.4547345 35.2710059,76.4559079 C35.2710059,81.4570813 31.1526627,85.6247258 26.2106509,85.6247258 Z M26.2106509,73.2259834 C24.460355,73.2259834 23.1218935,74.684659 23.1218935,76.3517168 C23.1218935,78.1229657 24.5633136,79.4774502 26.2106509,79.4774502 C27.9609467,79.4774502 29.2994083,78.0187746 29.2994083,76.3517168 C29.2994083,74.5804679 27.8579882,73.2259834 26.2106509,73.2259834 Z" id="Shape" fill="#5C666F"></path>
                    <path d="M147.392899,85.6247258 C142.347929,85.6247258 138.332544,81.4570813 138.332544,76.4559079 C138.332544,71.3505434 142.450888,67.28709 147.392899,67.28709 C152.43787,67.28709 156.453254,71.4547345 156.453254,76.4559079 C156.453254,81.4570813 152.43787,85.6247258 147.392899,85.6247258 Z M147.392899,73.2259834 C145.642604,73.2259834 144.304142,74.684659 144.304142,76.3517168 C144.304142,78.1229657 145.745562,79.4774502 147.392899,79.4774502 C149.143195,79.4774502 150.481657,78.0187746 150.481657,76.3517168 C150.481657,74.5804679 149.143195,73.2259834 147.392899,73.2259834 Z" id="Shape" fill="#5C666F"></path>
                </g>
                <g id="LAYER" transform="translate(0.000000, 47.918609)">
                    <rect id="Rectangle" stroke="#5C666F" stroke-width="5" fill="#FFFFFF" x="0.5" y="0.5" width="169" height="50.2012192" rx="8"></rect>
                    <rect id="Rectangle" fill="#EC8D53" x="84.3822485" y="10.810849" width="74.1301775" height="31.0376666"></rect>
                    <path d="M147.392899,35.599321 C142.347929,35.599321 138.332544,31.4331912 138.332544,26.4338355 C138.332544,21.3303266 142.450888,17.2683501 147.392899,17.2683501 C152.43787,17.2683501 156.453254,21.4344798 156.453254,26.4338355 C156.453254,31.4331912 152.43787,35.599321 147.392899,35.599321 Z M147.392899,23.205085 C145.642604,23.205085 144.304142,24.6632304 144.304142,26.3296823 C144.304142,28.1002874 145.745562,29.4542796 147.392899,29.4542796 C149.143195,29.4542796 150.481657,27.9961342 150.481657,26.3296823 C150.481657,24.5590771 149.143195,23.205085 147.392899,23.205085 Z" id="Shape" fill="#5C666F"></path>
                    <path d="M26.2106509,35.599321 C21.1656805,35.599321 17.1502959,31.4331912 17.1502959,26.4338355 C17.1502959,21.3303266 21.2686391,17.2683501 26.2106509,17.2683501 C31.1526627,17.2683501 35.2710059,21.4344798 35.2710059,26.4338355 C35.2710059,31.4331912 31.1526627,35.599321 26.2106509,35.599321 Z M26.2106509,23.205085 C24.460355,23.205085 23.1218935,24.6632304 23.1218935,26.3296823 C23.1218935,28.1002874 24.5633136,29.4542796 26.2106509,29.4542796 C27.9609467,29.4542796 29.2994083,27.9961342 29.2994083,26.3296823 C29.2994083,24.5590771 27.8579882,23.205085 26.2106509,23.205085 Z" id="Shape" fill="#5C666F"></path>
                </g>
                <g id="LAYER">
                    <rect id="Rectangle" stroke="#5C666F" stroke-width="5" fill="#FFFFFF" x="0.5" y="0.5" width="169" height="50.2012192" rx="8"></rect>
                    <rect id="Rectangle" fill="#EC8D53" x="84.3822485" y="10.810849" width="74.1301775" height="31.0376666"></rect>
                    <path d="M147.392899,35.599321 C142.347929,35.599321 138.332544,31.4331912 138.332544,26.4338355 C138.332544,21.3303266 142.450888,17.2683501 147.392899,17.2683501 C152.43787,17.2683501 156.453254,21.4344798 156.453254,26.4338355 C156.453254,31.4331912 152.43787,35.599321 147.392899,35.599321 Z M147.392899,23.205085 C145.642604,23.205085 144.304142,24.6632304 144.304142,26.3296823 C144.304142,28.1002874 145.745562,29.4542796 147.392899,29.4542796 C149.143195,29.4542796 150.481657,27.9961342 150.481657,26.3296823 C150.481657,24.5590771 149.143195,23.205085 147.392899,23.205085 Z" id="Shape" fill="#5C666F"></path>
                    <path d="M26.2106509,35.599321 C21.1656805,35.599321 17.1502959,31.4331912 17.1502959,26.4338355 C17.1502959,21.3303266 21.2686391,17.2683501 26.2106509,17.2683501 C31.1526627,17.2683501 35.2710059,21.4344798 35.2710059,26.4338355 C35.2710059,31.4331912 31.1526627,35.599321 26.2106509,35.599321 Z M26.2106509,23.205085 C24.460355,23.205085 23.1218935,24.6632304 23.1218935,26.3296823 C23.1218935,28.1002874 24.5633136,29.4542796 26.2106509,29.4542796 C27.9609467,29.4542796 29.2994083,27.9961342 29.2994083,26.3296823 C29.2994083,24.5590771 27.8579882,23.205085 26.2106509,23.205085 Z" id="Shape" fill="#5C666F"></path>
                </g>
            </g>
            <g id="Computer">
                <polygon id="Path-10" fill="#FFFFFF" fill-rule="nonzero" points="3.71428571 185.234043 5.27703319 201.549456 13.8816616 213.613544 38.0604677 215.191489 293.644867 215.191489 304.560306 208.612142 309.214286 198.63286 309.214286 185.234043"></polygon>
                <rect id="Rectangle" stroke="#5C666F" stroke-width="5" fill="#FFFFFF" fill-rule="nonzero" x="32.2142857" y="0.5" width="250.357143" height="184.106383" rx="19"></rect>
                <path d="M0,182.425532 L0,195.400289 C0,207.861588 9.68595921,218 21.5919445,218 L290.40871,218 C302.314695,218 312,207.861588 312,195.400289 L312,182.425532 L0,182.425532 Z M306.668875,195.995358 C306.668875,205.048021 298.825492,212.412786 289.184372,212.412786 L23.7095793,212.412786 C14.0684588,212.412786 6.22443029,205.048021 6.22443029,195.995358 L6.22443029,188.104754 L306.668875,188.104754 L306.668875,195.995358 Z" id="Shape" fill="#5C666F" fill-rule="nonzero"></path>
                <path d="M176.156872,191.787234 C175.467597,193.149455 174.557754,194.370957 173.465417,195.440172 C170.852081,197.998835 167.236997,204.621155 163.24511,204.621155 L140.789188,204.621155 C135.146323,204.621155 128.380651,196.420072 126.001012,191.787234 L8.35714286,191.787234 L8.35714286,195.694625 C8.35714286,202.834721 14.2862207,208.638298 21.5682468,208.638298 L291.347852,208.638298 C298.642351,208.638298 304.571429,202.834721 304.571429,195.694625 L304.571429,191.787234 L176.156872,191.787234 Z" id="Path" fill="#666288" fill-rule="nonzero"></path>
                <path d="M124.428571,186.170213 L124.428571,188.159457 C124.428571,197.387249 131.476662,204.893617 140.139678,204.893617 L161.646036,204.893617 C170.309681,204.893617 177.357143,197.386579 177.357143,188.159457 L177.357143,186.170213 L124.428571,186.170213 Z M161.646036,200.915128 L140.139678,200.915128 C134.170929,200.915128 129.2086,196.240303 128.309044,190.148702 L173.476041,190.148702 C172.577114,196.240972 167.613528,200.915128 161.646036,200.915128 Z" id="Shape" fill="#5C666F" fill-rule="nonzero"></path>
                <g id="Screen" transform="translate(46.428571, 32.638298)" fill-rule="nonzero">
                    <rect id="Rectangle" fill="#D2D2D2" x="20.0270461" y="89.578751" width="157.929022" height="29.6209726"></rect>
                    <rect id="Rectangle" fill="#5C666F" x="204.426747" y="18.9933165" width="5.74748358" height="30.199969"></rect>
                    <rect id="Rectangle" fill="#5C666F" x="0" y="0.215960078" width="218.610443" height="7.44689924"></rect>
                    <rect id="Rectangle" fill="#5C666F" x="193.675414" y="4.09951803" width="5.37566664" height="128.459012"></rect>
                    <rect id="Rectangle" fill="#FFD452" x="20.0270461" y="18.8332082" width="71.4408177" height="58.3185297"></rect>
                    <rect id="Rectangle" fill="#FFFFFF" x="29.9048335" y="29.2318721" width="51.63507" height="5.97148233"></rect>
                    <rect id="Rectangle" fill="#FFFFFF" x="29.9048335" y="42.2890791" width="27.3236176" height="5.97148233"></rect>
                    <rect id="Rectangle" fill="#FFD452" x="108.850978" y="18.8332082" width="69.1059865" height="58.3185297"></rect>
                    <rect id="Rectangle" fill="#FFFFFF" x="119.042346" y="29.2318721" width="48.8262841" height="5.97148233"></rect>
                    <rect id="Rectangle" fill="#FFFFFF" x="119.042346" y="42.2890791" width="27.3236176" height="5.97148233"></rect>
                </g>
                <rect id="Rectangle" stroke="#666288" stroke-width="5" x="38.7142857" y="7.05319149" width="236.428571" height="170.06383" rx="13"></rect>
                <rect id="Rectangle" stroke="#5C666F" stroke-width="5" x="47.0714286" y="17.3510638" width="219.714286" height="150.404255" rx="8"></rect>
            </g>
            <g id="Cloud" transform="translate(229.000000, 221.000000)" fill-rule="nonzero">
                <path d="M87.7625336,65.817384 L90.169753,60.119615 C105.645735,23.9234528 141.064624,0.5 180.238148,0.5 C234.28401,0.5 278.24667,44.724745 278.24667,99.0779 C278.24667,99.263327 278.24667,99.263327 278.24667,99.819608 C278.24667,100.153377 278.24667,100.153377 278.24667,100.407041 L278.24667,107.499479 L285.284786,107.782682 L285.289845,107.782891 C309.151666,108.791465 327.888452,128.560886 327.888452,152.813169 C327.888452,177.70424 307.928172,197.845679 283.296751,197.845679 L67.5531911,197.845679 C30.5589459,197.845679 0.5,167.546448 0.5,130.407651 C0.5,93.207789 30.6196924,62.969623 67.5531911,62.969623 C72.2220531,62.969623 76.8769823,63.500649 81.8588958,64.544777 L87.7625336,65.817384 Z" id="Path" stroke="#666288" stroke-width="5"></path>
                <path d="M285.036467,113.777538 L285.04355,113.77783 L272.24667,113.262903 L272.24667,100.407041 C272.24667,100.153377 272.24667,100.153377 272.24667,99.819608 C272.24667,99.263327 272.24667,99.263327 272.24667,99.0779 C272.24667,48.0304964 230.962292,6.5 180.238148,6.5 C143.468825,6.5 110.219157,28.4888887 95.692532,62.464557 L91.355678,72.729753 L88.5221438,72.118947 L80.6141716,70.414221 C76.0329875,69.454118 71.7859451,68.969623 67.5531911,68.969623 C33.938685,68.969623 6.5,96.516236 6.5,130.407651 C6.5,164.243387 33.8833954,191.845679 67.5531911,191.845679 L283.296751,191.845679 C304.602267,191.845679 321.888452,174.402606 321.888452,152.813169 C321.888452,131.761085 305.670861,114.649698 285.036467,113.777538 Z" id="Path" stroke="#FFFFFF" stroke-width="7" fill="#666288"></path>
            </g>
        </g>
    </g>
</svg>