<?xml version="1.0" encoding="UTF-8"?>
<svg width="496px" height="440px" viewBox="0 0 496 440" version="1.1" xmlns="http://www.w3.org/2000/svg" xmlns:xlink="http://www.w3.org/1999/xlink">
    <!-- Generator: Sketch 59.1 (86144) - https://sketch.com -->
    <title>t-password-constraints</title>
    <desc>Created with Sketch.</desc>
    <g id="Page-1" stroke="none" stroke-width="1" fill="none" fill-rule="evenodd">
        <g id="t-password-constraints" fill-rule="nonzero">
            <path d="M377.121055,68 L33.8789449,68 C15.1003297,68 0,52.6514286 0,34 C0,15.3485714 15.1003297,0 33.8789449,0 L377.121055,0 C395.706076,0 411,15.1542857 411,34 C411,52.8457143 395.89967,68 377.121055,68 Z M33.8789449,6.41142857 C18.7786152,6.41142857 6.38860104,18.8457143 6.38860104,34 C6.38860104,49.1542857 18.7786152,61.5885714 33.8789449,61.5885714 L377.121055,61.5885714 C392.221385,61.5885714 404.611399,49.1542857 404.611399,34 C404.611399,18.8457143 392.221385,6.41142857 377.121055,6.41142857 L33.8789449,6.41142857 Z" id="Shape" fill="#4A555F"></path>
            <path d="M323,14 C326.303109,19.9615385 328.246114,26.6923077 328.246114,34 C328.246114,41.3076923 326.303109,48.0384615 323,54 L377.792746,54 C388.867876,54 398,45.1538462 398,34 C398,23.0384615 389.062176,14 377.792746,14 L323,14 Z" id="Path" fill="#666288"></path>
            <path d="M14,34 C14,44.9615385 22.9153094,54 34.1563518,54 L252,54 C248.705212,48.0384615 246.767101,41.3076923 246.767101,34 C246.767101,26.6923077 248.705212,19.9615385 252,14 L34.1563518,14 C23.1091205,14 14,23.0384615 14,34 Z" id="Path" fill="#666288"></path>
            <path d="M383,138.961538 C355.848485,139.538462 332.187879,155.307692 320.745455,178 L159,178 C162.29697,172.038462 164.236364,165.307692 164.236364,158 C164.236364,150.692308 162.29697,143.961538 159,138 L377.569697,138 C379.315152,138.192308 381.254545,138.576923 383,138.961538 Z" id="Path" fill="#666288"></path>
            <path d="M14,158 C14,168.961538 22.8877285,178 34.0939948,178 L88,178 C84.7154047,172.038462 82.7832898,165.307692 82.7832898,158 C82.7832898,150.692308 84.7154047,143.961538 88,138 L34.0939948,138 C23.0809399,138 14,147.038462 14,158 Z" id="Path" fill="#666288"></path>
            <path d="M299,262.192308 C282.737374,270.846154 269.572391,284.884615 262.215488,302 L69,302 C72.2912458,296.038462 74.2272727,289.307692 74.2272727,282 C74.2272727,274.692308 72.2912458,267.961538 69,262 L299,262 L299,262.192308 Z" id="Path" fill="#666288"></path>
            <path d="M255,386.192308 L255,426 L214,426 C217.257009,420.038462 219.172897,413.307692 219.172897,406 C219.172897,398.692308 217.257009,391.961538 214,386 L255,386 L255,386.192308 Z" id="Path" fill="#666288"></path>
            <path d="M137.584708,406 C137.584708,413.307692 139.518741,420.038462 142.806597,426 L34.113943,426 C23.089955,426 14,417.153846 14,406 C14,395.038462 22.8965517,386 34.113943,386 L143,386 C139.518741,391.961538 137.584708,398.884615 137.584708,406 Z" id="Path" fill="#666288"></path>
            <path d="M287.5,68 C269.104046,68 254,52.8959538 254,34.5 C254,16.1040462 268.910405,1 287.5,1 C305.895954,1 321,16.1040462 321,34.5 C321,52.8959538 305.895954,68 287.5,68 Z M287.5,7.39017341 C272.589595,7.39017341 260.390173,19.5895954 260.390173,34.5 C260.390173,49.4104046 272.589595,61.6098266 287.5,61.6098266 C302.410405,61.6098266 314.609827,49.4104046 314.609827,34.5 C314.609827,19.5895954 302.410405,7.39017341 287.5,7.39017341 Z" id="Shape" fill="#4A555F"></path>
            <path d="M287.5,68 C269.104046,68 254,52.8959538 254,34.5 C254,16.1040462 268.910405,1 287.5,1 C305.895954,1 321,16.1040462 321,34.5 C321,52.8959538 305.895954,68 287.5,68 Z M287.5,7.39017341 C272.589595,7.39017341 260.390173,19.5895954 260.390173,34.5 C260.390173,49.4104046 272.589595,61.6098266 287.5,61.6098266 C302.410405,61.6098266 314.609827,49.4104046 314.609827,34.5 C314.609827,19.5895954 302.410405,7.39017341 287.5,7.39017341 Z" id="Shape" fill="#4A555F"></path>
            <path d="M287.5,54 C298.311881,54 307,45.1188119 307,34.5 C307,23.8811881 298.311881,15 287.5,15 C276.688119,15 268,23.8811881 268,34.5 C268,45.1188119 276.688119,54 287.5,54 Z" id="Path" fill="#E88C59"></path>
            <path d="M123.5,192 C105.104046,192 90,176.895954 90,158.5 C90,140.104046 105.104046,125 123.5,125 C141.895954,125 157,140.104046 157,158.5 C157,176.895954 141.895954,192 123.5,192 Z M123.5,131.390173 C108.589595,131.390173 96.3901734,143.589595 96.3901734,158.5 C96.3901734,173.410405 108.589595,185.609827 123.5,185.609827 C138.410405,185.609827 150.609827,173.410405 150.609827,158.5 C150.609827,143.589595 138.410405,131.390173 123.5,131.390173 Z" id="Shape" fill="#4A555F"></path>
            <path d="M123.5,192 C105.104046,192 90,176.895954 90,158.5 C90,140.104046 105.104046,125 123.5,125 C141.895954,125 157,140.104046 157,158.5 C157,176.895954 141.895954,192 123.5,192 Z M123.5,131.390173 C108.589595,131.390173 96.3901734,143.589595 96.3901734,158.5 C96.3901734,173.410405 108.589595,185.609827 123.5,185.609827 C138.410405,185.609827 150.609827,173.410405 150.609827,158.5 C150.609827,143.589595 138.410405,131.390173 123.5,131.390173 Z" id="Shape" fill="#4A555F"></path>
            <path d="M123.501545,178 C134.312569,178 143,169.118812 143,158.5 C143,147.688119 134.119515,139 123.501545,139 C112.883574,139 104.003089,147.881188 104.003089,158.5 C103.810035,169.311881 112.69052,178 123.501545,178 Z" id="Path" fill="#E88C59"></path>
            <path d="M33.5,315 C15.1040462,315 0,299.895954 0,281.5 C0,263.104046 15.1040462,248 33.5,248 C51.8959538,248 67,263.104046 67,281.5 C67,299.895954 51.8959538,315 33.5,315 Z M33.5,254.390173 C18.5895954,254.390173 6.39017341,266.589595 6.39017341,281.5 C6.39017341,296.410405 18.5895954,308.609827 33.5,308.609827 C48.4104046,308.609827 60.6098266,296.410405 60.6098266,281.5 C60.6098266,266.589595 48.4104046,254.390173 33.5,254.390173 Z" id="Shape" fill="#4A555F"></path>
            <path d="M33.5,315 C15.1040462,315 0,299.895954 0,281.5 C0,263.104046 15.1040462,248 33.5,248 C51.8959538,248 67,263.104046 67,281.5 C67,299.895954 51.8959538,315 33.5,315 Z M33.5,254.390173 C18.5895954,254.390173 6.39017341,266.589595 6.39017341,281.5 C6.39017341,296.410405 18.5895954,308.609827 33.5,308.609827 C48.4104046,308.609827 60.6098266,296.410405 60.6098266,281.5 C60.6098266,266.589595 48.4104046,254.390173 33.5,254.390173 Z" id="Shape" fill="#4A555F"></path>
            <path d="M33.5015447,301 C44.3125694,301 53,292.118812 53,281.5 C53,270.688119 44.1195154,262 33.5015447,262 C22.8835739,262 14.0030893,270.881188 14.0030893,281.5 C13.8100353,292.311881 22.6905199,301 33.5015447,301 Z" id="Path" fill="#E88C59"></path>
            <path d="M178.5,439 C160.104046,439 145,423.895954 145,405.5 C145,387.104046 160.104046,372 178.5,372 C196.895954,372 212,387.104046 212,405.5 C212,423.895954 196.895954,439 178.5,439 Z M178.5,378.390173 C163.589595,378.390173 151.390173,390.589595 151.390173,405.5 C151.390173,420.410405 163.589595,432.609827 178.5,432.609827 C193.410405,432.609827 205.609827,420.410405 205.609827,405.5 C205.609827,390.589595 193.410405,378.390173 178.5,378.390173 Z" id="Shape" fill="#4A555F"></path>
            <path d="M178.5,439 C160.104046,439 145,423.895954 145,405.5 C145,387.104046 160.104046,372 178.5,372 C196.895954,372 212,387.104046 212,405.5 C212,423.895954 196.895954,439 178.5,439 Z M178.5,378.390173 C163.589595,378.390173 151.390173,390.589595 151.390173,405.5 C151.390173,420.410405 163.589595,432.609827 178.5,432.609827 C193.410405,432.609827 205.609827,420.410405 205.609827,405.5 C205.609827,390.589595 193.410405,378.390173 178.5,378.390173 Z" id="Shape" fill="#4A555F"></path>
            <path d="M178.501545,425 C189.312569,425 198,416.118812 198,405.5 C198,394.688119 189.119515,386 178.501545,386 C167.69052,386 159.003089,394.881188 159.003089,405.5 C158.810035,416.118812 167.69052,425 178.501545,425 Z" id="Path" fill="#E88C59"></path>
            <g id="Group" transform="translate(267.000000, 150.000000)">
                <path d="M214.05678,182.710067 L214.05678,287.448322 L148.073729,287.448322 L169.227119,128.983221 L171.555932,129.565101 C196.202542,134.995973 214.05678,157.495302 214.05678,182.710067 Z" id="Path" fill="#E0E0E0"></path>
                <path d="M87.5245763,287.448322 L14.5550847,287.448322 L14.5550847,182.710067 C14.5550847,158.65906 36.290678,135.189933 63.8483051,129.371141 L66.1771186,128.983221 L87.5245763,287.448322 Z" id="Path" fill="#E0E0E0"></path>
                <path d="M117.411017,105.514094 C92.3762712,105.514094 71.9991525,85.1483221 71.9991525,60.1275168 C71.9991525,35.1067114 92.3762712,14.7409396 117.411017,14.7409396 C142.445763,14.7409396 162.822881,35.1067114 162.822881,60.1275168 C162.822881,85.1483221 142.445763,105.514094 117.411017,105.514094 Z" id="Path" fill="#FFD552"></path>
                <g fill="#4A555F">
                    <path d="M117.411017,119.867114 C84.4194915,119.867114 57.6381356,93.1006711 57.6381356,60.1275168 C57.6381356,27.1543624 84.4194915,0.387919463 117.411017,0.387919463 C150.402542,0.387919463 177.183898,27.1543624 177.183898,60.1275168 C177.183898,93.1006711 150.402542,119.867114 117.411017,119.867114 Z M117.411017,6.7885906 C87.9127119,6.7885906 64.0423729,30.6456376 64.0423729,60.1275168 C64.0423729,89.609396 87.9127119,113.466443 117.411017,113.466443 C146.909322,113.466443 170.779661,89.609396 170.779661,60.1275168 C170.973729,30.6456376 146.909322,6.7885906 117.411017,6.7885906 Z" id="Shape"></path>
                    <path d="M229,184.455705 L229,287.448322 L222.595763,287.448322 L222.595763,184.455705 C222.595763,150.124832 195.620339,122.000671 161.658475,120.061074 C160.494068,120.061074 159.329661,119.867114 157.971186,119.867114 L71.0288136,119.867114 C35.5144068,119.867114 6.40423729,148.767114 6.40423729,184.455705 L6.40423729,287.448322 L-5.68434189e-14,287.448322 L-5.68434189e-14,184.455705 C-5.68434189e-14,145.275839 31.8271186,113.466443 71.0288136,113.466443 L157.971186,113.466443 C159.523729,113.466443 160.882203,113.466443 162.434746,113.660403 C199.501695,115.987919 229,146.827517 229,184.455705 Z" id="Path"></path>
                    <path d="M94.7050847,287.836242 L72.1932203,113.466443 L91.0177966,113.466443 L110.618644,137.12953 L86.9423729,178.248993 L100.915254,287.836242 L94.7050847,287.836242 L94.7050847,287.836242 Z M79.5677966,119.867114 L85.7779661,167.775168 L103.05,137.711409 L88.3008475,119.867114 L79.5677966,119.867114 Z" id="Shape"></path>
                    <path d="M157.971186,113.466443 L145.550847,113.466443 L140.116949,119.867114 L126.144068,136.159732 L147.685593,178.055034 L133.712712,287.836242 L140.116949,287.836242 L161.658475,120.061074 L162.434746,113.660403 C161.076271,113.660403 159.523729,113.466443 157.971186,113.466443 Z M149.238136,166.999329 L133.90678,137.12953 L148.655932,119.867114 L155.254237,119.867114 L149.238136,166.999329 Z" id="Shape"></path>
                    <rect id="Rectangle" x="114.5" y="150.512752" width="6.40423729" height="137.32349"></rect>
                    <polygon id="Path" points="117.605085 155.361745 104.408475 139.457047 109.260169 135.383893 117.799153 145.469799 127.502542 134.608054 132.354237 138.875168"></polygon>
                </g>
                <rect id="Rectangle" fill="#4A555F" x="195.038136" y="221.695973" width="6.40423729" height="65.752349"></rect>
                <rect id="Rectangle" fill="#4A555F" x="30.2745763" y="221.695973" width="6.40423729" height="65.752349"></rect>
            </g>
            <path d="M261.782899,316 L34.1540327,316 C25.0333535,316 16.4948454,312.512821 10.0909642,306.119658 C8.73256519,304.763533 7.56822317,303.407407 6.79199515,302.051282 C6.20982414,301.276353 5.82171013,300.501425 5.23953911,299.920228 L5.04548211,299.920228 L4.07519709,297.982906 C4.07519709,297.789174 4.07519709,297.595442 3.88114008,297.401709 L3.68708308,297.014245 C3.49302608,296.820513 3.49302608,296.433048 3.29896907,296.239316 C1.94057004,293.527066 0.970285021,290.42735 0.582171013,287.327635 C0.582171013,286.746439 0.388114008,286.358974 0.388114008,285.777778 C0.388114008,285.390313 0.388114008,285.002849 0.194057004,284.615385 C0.194057004,283.840456 0,283.065527 0,282.096866 C0,281.128205 0,280.353276 0.194057004,279.578348 C0.194057004,279.190883 0.194057004,278.803419 0.388114008,278.222222 C0.388114008,277.834758 0.582171013,277.253561 0.582171013,276.866097 C0.776228017,275.703704 0.970285021,274.735043 1.16434203,273.57265 L1.16434203,273.378917 C1.35839903,272.991453 1.35839903,272.603989 1.55245603,272.022792 C2.13462705,270.472934 2.71679806,268.923077 3.29896907,267.373219 C8.9266222,255.555556 20.9581565,248 33.9599757,248 L318.835658,248 L320,257.492877 L317.283202,258.267806 C311.655549,259.817664 306.41601,261.948718 301.370528,264.660969 C285.65191,273.185185 273.038205,286.746439 265.858096,303.213675 C264.499697,306.507123 263.141298,309.994302 262.171013,313.481481 L261.782899,316 Z M9.89690722,295.076923 L9.89690722,295.076923 C10.4790782,296.239316 11.0612492,297.207977 12.0315343,298.37037 C12.8077623,299.339031 13.5839903,300.695157 14.7483323,301.663818 C19.9878714,306.894587 26.9739236,309.80057 34.1540327,309.80057 L256.931474,309.80057 C257.901759,306.894587 258.872044,303.794872 260.230443,301.082621 C267.798666,283.452991 281.382656,268.535613 298.459673,259.430199 C301.758642,257.68661 305.057611,256.136752 308.550637,254.780627 L34.1540327,254.780627 C23.4808975,254.780627 13.7780473,260.980057 9.3147362,270.472934 C8.73256519,271.635328 8.34445118,272.797721 7.76228017,274.153846 C7.56822317,274.541311 7.56822317,274.928775 7.37416616,275.122507 L7.37416616,275.316239 C7.18010916,276.091168 6.98605215,276.866097 6.79199515,277.834758 C6.79199515,278.222222 6.59793814,278.609687 6.59793814,278.997151 C6.59793814,279.384615 6.59793814,279.578348 6.59793814,279.77208 L6.59793814,280.159544 C6.59793814,280.740741 6.59793814,281.51567 6.59793814,282.096866 C6.59793814,282.678063 6.59793814,283.452991 6.59793814,284.034188 L6.59793814,284.421652 C6.59793814,284.615385 6.59793814,284.809117 6.59793814,285.002849 C6.59793814,285.390313 6.79199515,285.777778 6.79199515,286.165242 C7.18010916,288.683761 7.95633717,291.202279 8.9266222,293.333333 C9.1206792,293.527066 9.1206792,293.720798 9.3147362,293.91453 L9.89690722,295.076923 Z" id="Shape" fill="#4A555F"></path>
            <path d="M259,440 L33.9005236,440 C24.7958115,440 16.4659686,436.502857 9.87958115,430.091429 C3.48691099,423.68 0,415.131429 0,406 C0,387.348571 15.1099476,372 33.9005236,372 L259,372 L259,440 Z M33.9005236,378.411429 C18.7905759,378.411429 6.39267016,390.845714 6.39267016,406 C6.39267016,413.382857 9.29842932,420.182857 14.5287958,425.428571 C19.7591623,430.674286 26.7329843,433.394286 33.9005236,433.394286 L252.60733,433.394286 L252.60733,378.217143 L33.9005236,378.217143 L33.9005236,378.411429 Z" id="Shape" fill="#4A555F"></path>
            <path d="M319.257197,192 L33.9428976,192 C24.8268051,192 16.2925908,188.502857 9.89193016,182.091429 C3.49126947,175.485714 0,167.131429 0,158 C0,139.348571 15.1288344,124 33.9428976,124 L377.83294,124 C386.949033,124 395.483247,127.497143 401.883908,133.908571 C403.435583,135.462857 404.987258,137.405714 406.344974,139.348571 L411,146.342857 L402.853705,144.205714 C397.034922,142.651429 391.21614,141.874286 385.203398,141.874286 C384.815479,141.874286 384.233601,141.874286 383.845682,141.874286 C358.436999,142.457143 335.743747,156.834286 324.300142,179.565714 C322.748466,182.868571 321.196791,186.171429 320.226994,189.862857 L319.257197,192 Z M33.9428976,130.411429 C18.8140632,130.411429 6.40066069,142.845714 6.40066069,158 C6.40066069,165.382857 9.31005191,172.377143 14.5469561,177.428571 C19.7838603,182.674286 26.7663992,185.588571 33.9428976,185.588571 L314.602171,185.588571 C315.765927,182.48 316.929684,179.565714 318.481359,176.651429 C330.894762,151.782857 355.915526,136.045714 383.651723,135.462857 C384.233601,135.462857 384.815479,135.462857 385.203398,135.462857 C388.306748,135.462857 391.604059,135.657143 394.707409,136.045714 C389.858424,132.354286 384.039641,130.411429 378.026899,130.411429 L33.9428976,130.411429 Z" id="Shape" fill="#4A555F"></path>
        </g>
    </g>
</svg>