<?xml version="1.0" encoding="UTF-8"?>
<svg width="498px" height="427px" viewBox="0 0 498 427" version="1.1" xmlns="http://www.w3.org/2000/svg" xmlns:xlink="http://www.w3.org/1999/xlink">
    <!-- Generator: Sketch 59.1 (86144) - https://sketch.com -->
    <title>t-password-resets</title>
    <desc>Created with Sketch.</desc>
    <g id="Page-1" stroke="none" stroke-width="1" fill="none" fill-rule="evenodd">
        <g id="t-password-resets" fill-rule="nonzero">
            <path d="M95,0 L95,153 L217,153 L217,0 L95,0 Z M210.179852,146.183101 L101.819174,146.183101 L101.819174,6.81787287 L210.179852,6.81787287 L210.179852,146.183101 Z" id="Shape" fill="#4A555F"></path>
            <rect id="Rectangle" fill="#DFDFDF" x="110" y="15" width="92" height="123"></rect>
            <path d="M285,0 L285,153 L407,153 L407,0 L285,0 Z M400.179798,146.183101 L291.819228,146.183101 L291.819228,6.81787287 L400.179798,6.81787287 L400.179798,146.183101 L400.179798,146.183101 Z" id="Shape" fill="#4A555F"></path>
            <rect id="Rectangle" fill="#DFDFDF" x="300" y="15" width="92" height="123"></rect>
            <path d="M0,274 L0,427 L122,427 L122,274 L0,274 Z M115.180826,420.182214 L6.82014802,420.182214 L6.82014802,280.817786 L115.180826,280.817786 L115.180826,420.182214 L115.180826,420.182214 Z" id="Shape" fill="#4A555F"></path>
            <rect id="Rectangle" fill="#DFDFDF" x="15" y="289" width="92" height="123"></rect>
            <path d="M188,274 L188,427 L310,427 L310,274 L188,274 Z M303.179852,420.182214 L194.819174,420.182214 L194.819174,280.817786 L303.179852,280.817786 L303.179852,420.182214 Z" id="Shape" fill="#4A555F"></path>
            <rect id="Rectangle" fill="#DFDFDF" x="203" y="289" width="92" height="123"></rect>
            <path d="M376,274 L376,427 L498,427 L498,274 L376,274 Z M491.179798,420.182214 L382.820202,420.182214 L382.820202,280.817786 L491.179798,280.817786 L491.179798,420.182214 Z" id="Shape" fill="#4A555F"></path>
            <rect id="Rectangle" fill="#DFDFDF" x="391" y="289" width="92" height="123"></rect>
            <rect id="Rectangle" fill="#666288" x="119" y="26" width="73" height="16"></rect>
            <path d="M145.272462,68 L152.090821,68 L152.090821,61 L145.272462,61 L145.272462,68 Z M131.636718,68 L138.455077,68 L138.455077,61 L131.636718,61 L131.636718,68 Z M118,68 L124.818359,68 L124.818359,61 L118,61 L118,68 L118,68 Z M158.909179,68 L165.727538,68 L165.727538,61 L158.909179,61 L158.909179,68 Z M186.181641,61 L186.181641,68 L193,68 L193,61 L186.181641,61 Z M172.544923,68 L179.363282,68 L179.363282,61 L172.544923,61 L172.544923,68 Z" id="Shape" fill="#4A555F"></path>
            <rect id="Rectangle" fill="#4A555F" x="118" y="80" width="75" height="7"></rect>
            <path d="M131.636718,106 L138.455077,106 L138.455077,99 L131.636718,99 L131.636718,106 Z M186.181641,99 L186.181641,106 L193,106 L193,99 L186.181641,99 Z M118,106 L124.818359,106 L124.818359,99 L118,99 L118,106 L118,106 Z M145.272462,106 L152.090821,106 L152.090821,99 L145.272462,99 L145.272462,106 Z M172.544923,106 L179.363282,106 L179.363282,99 L172.544923,99 L172.544923,106 Z M158.909179,106 L165.727538,106 L165.727538,99 L158.909179,99 L158.909179,106 Z" id="Shape" fill="#4A555F"></path>
            <rect id="Rectangle" fill="#4A555F" x="118" y="118" width="75" height="7"></rect>
            <rect id="Rectangle" fill="#FFD452" x="310" y="59" width="72" height="65"></rect>
            <path d="M306,56 L306,127 L385,127 L385,56 L306,56 Z M378.18729,120.22976 L312.81271,120.22976 L312.81271,62.7712068 L378.18729,62.7712068 L378.18729,120.22976 Z" id="Shape" fill="#4A555F"></path>
            <rect id="Rectangle" fill="#4A555F" x="310" y="20" width="72" height="7"></rect>
            <rect id="Rectangle" fill="#4A555F" x="310" y="36" width="72" height="7"></rect>
            <path d="M435.629072,73 L423.117444,73 L423.117444,79.8181081 L435.629072,79.8181081 C451.375443,79.8181081 464.182997,92.6315164 464.182997,108.38269 L464.182997,177.565747 C464.182997,193.316921 451.37447,206.129355 435.629072,206.129355 L91.3709277,206.129355 C71.8680508,206.129355 56,222.002246 56,241.511071 L56,246 L62.8160292,246 L62.8160292,241.511071 C62.8160292,225.759898 75.6255304,212.946489 91.3709277,212.946489 L435.630046,212.946489 C455.131949,212.946489 471,197.073599 471,177.564773 L471,108.381716 C471,88.8728907 455.131949,73 435.629072,73 Z" id="Path" fill="#4A555F"></path>
            <rect id="Rectangle" fill="#4A555F" x="231" y="73" width="39" height="7"></rect>
            <rect id="Rectangle" fill="#4A555F" x="134" y="347" width="41" height="7"></rect>
            <rect id="Rectangle" fill="#4A555F" x="324" y="347" width="41" height="7"></rect>
            <rect id="Rectangle" fill="#00C621" x="401" y="300" width="73" height="100"></rect>
            <polygon id="Path" stroke="#FFFFFF" stroke-width="6" fill="#4A555F" points="426.305302 369 411 351.481283 413.281536 349.459893 426.590494 364.572193 461.003656 333 463 335.31016"></polygon>
            <path d="M398,297 L398,404 L478,404 L478,297 L398,297 Z M471.173276,397.158425 L404.826724,397.158425 L404.826724,303.840598 L471.173276,303.840598 L471.173276,397.158425 Z" id="Shape" fill="#4A555F"></path>
            <rect id="Rectangle" fill="#4A555F" x="26" y="297" width="14" height="7"></rect>
            <rect id="Rectangle" fill="#4A555F" x="51" y="297" width="45" height="7"></rect>
            <rect id="Rectangle" fill="#4A555F" x="61" y="318" width="35" height="7"></rect>
            <rect id="Rectangle" fill="#4A555F" x="39" y="318" width="12" height="7"></rect>
            <rect id="Rectangle" fill="#4A555F" x="61" y="338" width="35" height="7"></rect>
            <rect id="Rectangle" fill="#4A555F" x="39" y="338" width="12" height="7"></rect>
            <rect id="Rectangle" fill="#4A555F" x="61" y="358" width="35" height="7"></rect>
            <rect id="Rectangle" fill="#4A555F" x="39" y="358" width="12" height="7"></rect>
            <path d="M49.2728158,387 L56.0912632,387 L56.0912632,380 L49.2728158,380 L49.2728158,387 Z M22,387 L28.8184474,387 L28.8184474,380 L22,380 L22,387 Z M35.635921,387 L42.4543684,387 L42.4543684,380 L35.635921,380 L35.635921,387 Z M62.9087368,387 L69.7271842,387 L69.7271842,380 L62.9087368,380 L62.9087368,387 Z M76.5456316,387 L83.364079,387 L83.364079,380 L76.5456316,380 L76.5456316,387 Z M90.1815526,380 L90.1815526,387 L97,387 L97,380 L90.1815526,380 Z" id="Shape" fill="#4A555F"></path>
            <path d="M35.635921,405 L42.4543684,405 L42.4543684,398 L35.635921,398 L35.635921,405 Z M22,405 L28.8184474,405 L28.8184474,398 L22,398 L22,405 Z M49.2728158,405 L56.0912632,405 L56.0912632,398 L49.2728158,398 L49.2728158,405 Z M90.1815526,398 L90.1815526,405 L97,405 L97,398 L90.1815526,398 Z M62.9087368,405 L69.7271842,405 L69.7271842,398 L62.9087368,398 L62.9087368,405 Z M76.5456316,405 L83.364079,405 L83.364079,398 L76.5456316,398 L76.5456316,405 Z" id="Shape" fill="#4A555F"></path>
            <rect id="Rectangle" fill="#666288" x="214" y="300" width="70" height="39"></rect>
            <path d="M116,23 L116,45 L196,45 L196,23 L116,23 Z M189.187142,38.3380617 L122.811885,38.3380617 L122.811885,29.6619383 L189.187142,29.6619383 L189.187142,38.3380617 Z" id="Shape" fill="#4A555F"></path>
            <path d="M210,297 L210,343 L287,343 L287,297 L210,297 Z M280.175179,336.168201 L216.824821,336.168201 L216.824821,303.831799 L280.175179,303.831799 L280.175179,336.168201 Z" id="Shape" fill="#4A555F"></path>
            <rect id="Rectangle" fill="#E88C59" x="214" y="361" width="70" height="39"></rect>
            <path d="M210,358 L210,404 L287,404 L287,358 L210,358 Z M280.175179,397.167225 L216.824821,397.167225 L216.824821,364.830823 L280.175179,364.830823 L280.175179,397.167225 Z" id="Shape" fill="#4A555F"></path>
            <rect id="Rectangle" fill="#FFFFFF" x="229" y="316" width="38" height="7"></rect>
            <path d="M244.598835,384 L251.399223,384 L251.399223,377 L244.598835,377 L244.598835,384 Z M231,384 L237.799417,384 L237.799417,377 L231,377 L231,384 Z M258.199612,377 L258.199612,384 L265,384 L265,377 L258.199612,377 Z" id="Shape" fill="#4A555F"></path>
        </g>
    </g>
</svg>