<?xml version="1.0" encoding="UTF-8"?>
<svg width="663px" height="665px" viewBox="0 0 663 665" version="1.1" xmlns="http://www.w3.org/2000/svg" xmlns:xlink="http://www.w3.org/1999/xlink">
    <!-- Generator: Sketch 59.1 (86144) - https://sketch.com -->
    <title>t-reports</title>
    <desc>Created with Sketch.</desc>
    <g id="Page-1" stroke="none" stroke-width="1" fill="none" fill-rule="evenodd">
        <g id="t-reports" fill-rule="nonzero">
            <g id="Group">
                <path d="M612.566406,545.767578 L50.4335938,545.767578 C22.6386719,545.767578 0.0390625,523.167969 0.0390625,495.373047 L0.0390625,50.3945313 C0.0390625,22.5996094 22.6386719,0 50.4335938,0 L612.826172,0 C640.361328,0 662.960938,22.3398438 662.960938,50.1347656 L662.960938,495.632813 C662.960938,523.167969 640.361328,545.767578 612.566406,545.767578 Z M50.4335938,9.3515625 C27.8339844,9.3515625 9.390625,27.7949219 9.390625,50.3945313 L9.390625,495.632813 C9.390625,518.232422 27.8339844,536.675781 50.4335938,536.675781 L612.566406,536.675781 C635.166016,536.675781 653.609375,518.232422 653.609375,495.632813 L653.609375,50.1347656 C653.609375,27.7949219 635.425781,9.3515625 612.826172,9.3515625 L50.4335938,9.3515625 Z M614.384766,444.71875 L51.7324219,444.71875 L51.7324219,57.4082031 L614.384766,57.4082031 L614.384766,444.71875 Z M61.0839844,435.367188 L605.033203,435.367188 L605.033203,66.7597656 L61.0839844,66.7597656 L61.0839844,435.367188 Z" id="Shape" fill="#4A555F"></path>
                <path d="M50.4335937,20.2617188 C33.8085937,20.2617188 20.3007812,33.7695312 20.3007812,50.3945312 L20.3007812,495.632812 C20.3007812,512.257812 33.8085937,525.765625 50.4335937,525.765625 L612.566406,525.765625 C629.191406,525.765625 642.699219,512.257812 642.699219,495.632812 L642.699219,46.4980469 L642.699219,46.4980469 C642.699219,31.9511719 631.009766,20.2617188 616.462891,20.2617188 L50.4335937,20.2617188 Z M625.294922,455.628906 L40.8222656,455.628906 L40.8222656,46.4980469 L625.294922,46.4980469 L625.294922,455.628906 Z" id="Shape" fill="#E0E0E0"></path>
                <path d="M438.523437,624.216797 L230.710938,624.216797 L267.337891,536.416016 L402.15625,536.416016 L438.523437,624.216797 Z M244.738281,614.865234 L424.496094,614.865234 L395.662109,545.767578 L273.3125,545.767578 L244.738281,614.865234 Z" id="Shape" fill="#4A555F"></path>
                <polygon id="Path" fill="#E0E0E0" points="261.103516 603.955078 280.845703 556.677734 388.648438 556.677734 408.130859 603.955078"></polygon>
                <path d="M523.207031,665 L146.287109,665 L146.287109,614.865234 L523.207031,614.865234 L523.207031,665 Z M155.638672,655.648438 L513.855469,655.648438 L513.855469,624.216797 L155.638672,624.216797 L155.638672,655.648438 Z" id="Shape" fill="#4A555F"></path>
                <rect id="Rectangle" fill="#E0E0E0" x="166.548828" y="635.126953" width="336.396484" height="9.61132812"></rect>
                <rect id="Rectangle" fill="#4A555F" x="22.1191406" y="655.648438" width="625.255859" height="9.3515625"></rect>
                <circle id="Oval" fill="#FFFFFF" cx="335.136719" cy="491.216797" r="24.6777344"></circle>
                <path d="M335.136719,520.570313 C319.03125,520.570313 305.783203,507.322266 305.783203,491.216797 C305.783203,475.111328 319.03125,461.863281 335.136719,461.863281 C351.242187,461.863281 364.490234,475.111328 364.490234,491.216797 C364.490234,507.322266 351.242187,520.570313 335.136719,520.570313 Z M335.136719,471.214844 C324.226562,471.214844 315.134766,480.046875 315.134766,491.216797 C315.134766,502.126953 323.966797,511.21875 335.136719,511.21875 C346.306641,511.21875 355.138672,502.386719 355.138672,491.216797 C355.138672,480.306641 346.046875,471.214844 335.136719,471.214844 Z" id="Shape" fill="#4A555F"></path>
            </g>
            <g id="Group" transform="translate(389.000000, 123.000000)">
                <path d="M81.2603175,162.739683 C36.4857143,162.739683 0.0412698413,126.295238 0.0412698413,81.5206349 L0.0412698413,76.8349206 L78.6571429,76.8349206 L120.307937,9.93333333 L124.212698,12.5365079 C148.161905,27.6349206 162.48345,53.4063492 162.48345,81.5206349 C162.739683,126.295238 126.034921,162.739683 81.2603175,162.739683 Z M9.41269841,86.2063492 C11.7555556,123.692063 42.9936508,153.368254 81.2603175,153.368254 C120.828571,153.368254 153.107937,121.088889 153.107937,81.5206349 C153.107937,58.0920635 141.914286,36.4857143 123.171429,22.9492063 L83.8634921,86.2063492 L9.41269841,86.2063492 L9.41269841,86.2063492 Z" id="Shape" fill="#4A555F"></path>
                <path d="M81.2603175,142.434921 C53.1460317,142.434921 29.1968254,123.171429 22.4285714,97.1396825 L90.1111111,97.1396825 L125.774603,39.6095238 C136.447619,50.8031746 142.434921,65.6412698 142.434921,81.5206349 C142.174603,115.101587 114.84127,142.434921 81.2603175,142.434921 Z" id="Path" fill="#FFD552"></path>
                <path d="M83.8634921,86.2063492 L0.0412698413,86.2063492 L0.0412698413,81.5206349 C0.0412698413,36.7460317 36.4857143,0.301587302 81.2603175,0.301587302 C96.3587302,0.301587302 111.457143,4.46666667 124.212698,12.5365079 L128.11746,15.1396825 L83.8634921,86.2063492 Z M9.41269841,76.8349206 L78.6571429,76.8349206 L115.101587,18.0031746 C104.688889,12.5365079 92.9746032,9.41269841 81.2603175,9.41269841 C43.2539683,9.41269841 12.015873,39.3492063 9.41269841,76.8349206 Z" id="Shape" fill="#4A555F"></path>
                <path d="M22.4285714,65.9015873 C29.4571429,39.8698413 53.1460317,20.6063492 81.2603175,20.6063492 C87.247619,20.6063492 93.4952381,21.3873016 99.2222222,23.2095238 L72.6698413,65.9015873 L22.4285714,65.9015873 Z" id="Path" fill="#E88C59"></path>
            </g>
            <rect id="Rectangle" fill="#E88C59" x="402" y="333" width="39" height="71"></rect>
            <rect id="Rectangle" fill="#666288" x="514" y="368" width="39" height="36"></rect>
            <rect id="Rectangle" fill="#FFD552" x="460" y="317" width="37" height="88"></rect>
            <path d="M446,409 L397,409 L397,329 L446,329 L446,409 Z M406.12234,399.679612 L436.356383,399.679612 L436.356383,338.320388 L406.12234,338.320388 L406.12234,399.679612 Z" id="Shape" fill="#4A555F"></path>
            <path d="M558,409 L509,409 L509,364 L558,364 L558,409 Z M518.382979,399.742857 L548.617021,399.742857 L548.617021,373.257143 L518.382979,373.257143 L518.382979,399.742857 Z" id="Shape" fill="#4A555F"></path>
            <path d="M502,409 L455,409 L455,312 L502,312 L502,409 Z M464.4,399.663102 L492.6,399.663102 L492.6,321.336898 L464.4,321.336898 L464.4,399.663102 Z" id="Shape" fill="#4A555F"></path>
            <rect id="Rectangle" fill="#4A555F" x="112" y="121" width="9" height="287"></rect>
            <rect id="Rectangle" fill="#4A555F" x="93" y="379" width="263" height="9"></rect>
            <path d="M207.518519,313 L200,307.566434 L205.444444,300.062937 L212.962963,305.496503 L207.518519,313 Z M218.148148,297.734266 L210.62963,292.300699 L216.074074,284.797203 L223.592593,290.230769 L218.148148,297.734266 Z M229.037037,282.468531 L221.518519,277.034965 L226.962963,269.531469 L234.481481,274.965035 L229.037037,282.468531 Z M239.666667,267.202797 L232.148148,261.769231 L237.592593,254.265734 L245.111111,259.699301 L239.666667,267.202797 Z M250.555556,251.937063 L243.037037,246.503497 L248.481481,239 L256,244.433566 L250.555556,251.937063 Z" id="Shape" fill="#4A555F"></path>
            <path d="M299.885246,212 L297,203.113636 L305.918033,200.238636 L308.803279,209.125 L299.885246,212 Z M317.983607,206.25 L315.098361,197.363636 L324.016393,194.488636 L326.901639,203.375 L317.983607,206.25 Z M336.081967,200.761364 L333.196721,191.875 L342.114754,189 L345,197.886364 L336.081967,200.761364 Z" id="Shape" fill="#4A555F"></path>
            <path d="M134.347518,357 L127,350.969512 L133.035461,343.628049 L140.382979,349.658537 L134.347518,357 Z M146.156028,342.054878 L138.808511,336.02439 L144.843972,328.682927 L152.191489,334.713415 L146.156028,342.054878 Z M157.964539,327.371951 L150.617021,321.341463 L156.652482,314 L164,320.030488 L157.964539,327.371951 Z" id="Shape" fill="#4A555F"></path>
            <circle id="Oval" fill="#FFD552" cx="177" cy="295" r="15"></circle>
            <circle id="Oval" fill="#FFD552" cx="270" cy="216" r="15"></circle>
            <path d="M176.5,314 C165.58,314 157,305.16 157,294.5 C157,283.84 165.84,275 176.5,275 C187.16,275 196,283.84 196,294.5 C196,305.16 187.42,314 176.5,314 Z M176.5,284.36 C170.78,284.36 166.36,289.04 166.36,294.5 C166.36,299.96 171.04,304.64 176.5,304.64 C182.22,304.64 186.64,299.96 186.64,294.5 C186.64,289.04 182.22,284.36 176.5,284.36 Z" id="Shape" fill="#4A555F"></path>
            <path d="M270.5,235 C259.58,235 251,226.16 251,215.5 C251,204.84 259.84,196 270.5,196 C281.42,196 290,204.84 290,215.5 C290,226.16 281.16,235 270.5,235 Z M270.5,205.1 C264.78,205.1 260.36,209.78 260.36,215.24 C260.36,220.96 265.04,225.38 270.5,225.38 C276.22,225.38 280.64,220.7 280.64,215.24 C280.64,209.78 275.96,205.1 270.5,205.1 Z" id="Shape" fill="#4A555F"></path>
            <polygon id="Path" fill="#E88C59" points="157 369 180.417722 336.741697 212.421941 347.667897 287.879044 244.909594 342 228 342 369"></polygon>
            <polygon id="Path" fill="#E88C59" points="189.5 118 158 149.700787 175.29918 149.700787 175.29918 184 189.5 184 203.70082 184 203.70082 149.700787 221 149.700787"></polygon>
            <path d="M208.024242,188 L169.975758,188 L169.975758,153.892617 L146,153.892617 L189,111 L232,153.892617 L208.024242,153.892617 L208.024242,188 Z M179.357576,178.697987 L198.642424,178.697987 L198.642424,144.590604 L209.327273,144.590604 L189,124.436242 L168.672727,144.590604 L179.357576,144.590604 L179.357576,178.697987 Z" id="Shape" fill="#4A555F"></path>
        </g>
    </g>
</svg>