<?xml version="1.0" encoding="UTF-8"?>
<svg width="932px" height="449px" viewBox="0 0 932 449" version="1.1" xmlns="http://www.w3.org/2000/svg" xmlns:xlink="http://www.w3.org/1999/xlink">
    <!-- Generator: Sketch 59.1 (86144) - https://sketch.com -->
    <title>t-registration</title>
    <desc>Created with Sketch.</desc>
    <g id="Page-1" stroke="none" stroke-width="1" fill="none" fill-rule="evenodd">
        <g id="t-registration" fill-rule="nonzero">
            <g id="Users" transform="translate(0.000000, 25.000000)">
                <path d="M100,191 L113.833333,88 C129.333333,91.4719101 141,105.359551 141,121.727127 L141,191 L100,191 Z" id="Path" fill="#E0E0E0"></path>
                <path d="M11,190 L11,120.838141 C11,105.322115 25.5527273,90.6314103 42.9490909,87 L57,190 L11,190 Z" id="Path" fill="#E0E0E0"></path>
                <path d="M78.5,69 C62.849711,69 50,56.3150289 50,40.5 C50,24.6849711 62.849711,12 78.5,12 C94.150289,12 107,24.6849711 107,40.5 C107,56.150289 94.3150289,69 78.5,69 Z" id="Path" fill="#FFD552"></path>
                <g id="Group" fill="#4A555F">
                    <path d="M78.1526882,80.1103448 C56.1290323,80.1103448 38.0795699,62.2344828 38.0795699,40.0551724 C38.0795699,17.8758621 56.1290323,0 78.1526882,0 C100.176344,0 118.225806,17.8758621 118.225806,40.0551724 C118.225806,62.0689655 100.341935,80.1103448 78.1526882,80.1103448 Z M78.1526882,5.13103448 C58.944086,5.13103448 43.2129032,20.8551724 43.2129032,40.0551724 C43.2129032,59.2551724 58.944086,74.9793103 78.1526882,74.9793103 C97.3612903,74.9793103 113.092473,59.2551724 113.092473,40.0551724 C113.092473,20.8551724 97.5268817,5.13103448 78.1526882,5.13103448 Z" id="Shape"></path>
                    <path d="M152.503226,190.510345 L147.369892,190.510345 L147.369892,122.317241 C147.369892,98.9793103 128.326882,80.1103448 105.144086,80.1103448 L47.5182796,80.1103448 C24.1698925,80.1103448 5.29247312,99.1448276 5.29247312,122.317241 L5.29247312,190.510345 L0.159139785,190.510345 L0.159139785,122.317241 C0.159139785,96.1655172 21.3548387,74.9793103 47.5182796,74.9793103 L104.978495,74.9793103 C131.141935,74.9793103 152.337634,96.1655172 152.337634,122.317241 L152.337634,190.510345 L152.503226,190.510345 Z" id="Path"></path>
                    <path d="M62.7526882,190.841379 L53.3139785,117.351724 L53.3139785,117.351724 L53.3139785,117.351724 L47.8494624,74.9793103 L61.0967742,74.9793103 L74.344086,91.0344828 L58.6129032,118.344828 L67.8860215,190.17931 L62.7526882,190.841379 Z M53.6451613,80.1103448 L57.4537634,109.903448 L68.0516129,91.5310345 L58.6129032,80.1103448 L53.6451613,80.1103448 Z" id="Shape"></path>
                    <path d="M93.5526882,190.841379 L88.4193548,190.17931 L97.6924731,118.17931 L83.4516129,90.3724138 L96.6989247,74.9793103 L108.621505,74.9793103 L103.156989,117.351724 L103.322581,117.517241 L103.156989,117.517241 L93.5526882,190.841379 Z M89.5784946,91.0344828 L99.0172043,109.241379 L102.825806,80.1103448 L99.1827957,80.1103448 L89.5784946,91.0344828 Z" id="Shape"></path>
                    <rect id="Rectangle" x="75.8344086" y="99.8068966" width="5.13333333" height="90.7034483"></rect>
                    <polygon id="Path" points="78.3182796 103.77931 69.2107527 92.8551724 73.1849462 89.5448276 78.483871 95.8344828 84.6107527 89.0482759 88.4193548 92.3586207"></polygon>
                    <ellipse id="Oval" cx="88.7505376" cy="122.482759" rx="3.80860215" ry="3.80689655"></ellipse>
                    <ellipse id="Oval" cx="88.7505376" cy="150.786207" rx="3.80860215" ry="3.80689655"></ellipse>
                    <ellipse id="Oval" cx="88.7505376" cy="177.931034" rx="3.80860215" ry="3.80689655"></ellipse>
                </g>
                <rect id="Rectangle" fill="#4A555F" x="129" y="147" width="5" height="44"></rect>
                <rect id="Rectangle" fill="#4A555F" x="20" y="147" width="5" height="44"></rect>
                <path d="M100,424 L113.833333,321 C129.333333,324.47191 141,338.359551 141,354.727127 L141,424 L100,424 Z" id="Path" fill="#E0E0E0"></path>
                <path d="M11,423 L11,353.838141 C11,338.322115 25.5527273,323.63141 42.9490909,320 L57,423 L11,423 Z" id="Path" fill="#E0E0E0"></path>
                <path d="M78.5,302 C62.849711,302 50,289.315029 50,273.5 C50,257.684971 62.6849711,245 78.5,245 C94.3150289,245 107,257.684971 107,273.5 C107,289.150289 94.3150289,302 78.5,302 Z" id="Path" fill="#FFD552"></path>
                <g id="Group" transform="translate(0.000000, 233.000000)" fill="#4A555F">
                    <path d="M78.1526882,80.2689655 C56.1290323,80.2689655 38.0795699,62.3931034 38.0795699,40.2137931 C38.0795699,18.2 55.9634409,0.15862069 78.1526882,0.15862069 C100.341935,0.15862069 118.225806,18.2 118.225806,40.2137931 C118.225806,62.2275862 100.341935,80.2689655 78.1526882,80.2689655 Z M78.1526882,5.28965517 C58.944086,5.28965517 43.2129032,21.0137931 43.2129032,40.2137931 C43.2129032,59.4137931 58.944086,75.137931 78.1526882,75.137931 C97.3612903,75.137931 113.092473,59.4137931 113.092473,40.2137931 C113.092473,21.0137931 97.5268817,5.28965517 78.1526882,5.28965517 Z" id="Shape"></path>
                    <path d="M152.503226,190.668966 L147.369892,190.668966 L147.369892,122.475862 C147.369892,99.137931 128.326882,80.2689655 105.144086,80.2689655 L47.5182796,80.2689655 C24.1698925,80.2689655 5.29247312,99.3034483 5.29247312,122.475862 L5.29247312,190.668966 L0.159139785,190.668966 L0.159139785,122.475862 C0.159139785,96.3241379 21.3548387,75.137931 47.5182796,75.137931 L104.978495,75.137931 C131.141935,75.137931 152.337634,96.3241379 152.337634,122.475862 L152.337634,190.668966 L152.503226,190.668966 Z" id="Path"></path>
                    <path d="M62.7526882,191 L53.3139785,117.510345 L53.3139785,117.510345 L53.3139785,117.510345 L47.8494624,75.137931 L61.0967742,75.137931 L74.344086,91.1931034 L58.6129032,118.503448 L67.8860215,190.337931 L62.7526882,191 Z M53.6451613,80.2689655 L57.4537634,110.062069 L68.0516129,91.6896552 L58.6129032,80.2689655 L53.6451613,80.2689655 Z" id="Shape"></path>
                    <path d="M93.5526882,191 L88.4193548,190.337931 L97.6924731,118.337931 L83.4516129,90.5310345 L96.6989247,75.137931 L108.621505,75.137931 L103.156989,117.510345 L103.322581,117.675862 L103.156989,117.675862 L93.5526882,191 Z M89.5784946,91.1931034 L99.0172043,109.4 L102.825806,80.2689655 L99.1827957,80.2689655 L89.5784946,91.1931034 Z" id="Shape"></path>
                    <rect id="Rectangle" x="75.8344086" y="99.9655172" width="5.13333333" height="90.7034483"></rect>
                    <polygon id="Path" points="78.3182796 103.937931 69.2107527 93.0137931 73.1849462 89.7034483 78.483871 95.9931034 84.6107527 89.2068966 88.4193548 92.5172414"></polygon>
                    <ellipse id="Oval" cx="88.7505376" cy="122.641379" rx="3.80860215" ry="3.80689655"></ellipse>
                    <ellipse id="Oval" cx="88.7505376" cy="150.944828" rx="3.80860215" ry="3.80689655"></ellipse>
                    <ellipse id="Oval" cx="88.7505376" cy="178.089655" rx="3.80860215" ry="3.80689655"></ellipse>
                </g>
                <rect id="Rectangle" fill="#4A555F" x="129" y="380" width="5" height="44"></rect>
                <rect id="Rectangle" fill="#4A555F" x="20" y="380" width="5" height="44"></rect>
                <g id="Group" transform="translate(175.000000, 126.000000)">
                    <path d="M100.513978,190.675862 L114.258065,87.5586207 C129.658065,91.0344828 141.249462,104.937931 141.249462,121.324138 L141.249462,190.675862 L100.513978,190.675862 Z" id="Path" fill="#E0E0E0"></path>
                    <path d="M12.088172,190.675862 L12.088172,121.324138 C12.088172,105.765517 26.4946237,91.0344828 43.716129,87.3931034 L57.6258065,190.675862 L12.088172,190.675862 Z" id="Path" fill="#E0E0E0"></path>
                    <path d="M78.8215054,68.8551724 C63.0903226,68.8551724 50.1741935,56.1103448 50.1741935,40.2206897 C50.1741935,24.3310345 63.0903226,11.5862069 78.8215054,11.5862069 C94.5526882,11.5862069 107.468817,24.3310345 107.468817,40.2206897 C107.468817,55.9448276 94.5526882,68.8551724 78.8215054,68.8551724 Z" id="Path" fill="#FFD552"></path>
                    <g fill="#4A555F">
                        <path d="M78.8215054,80.2758621 C56.7978495,80.2758621 38.7483871,62.4 38.7483871,40.2206897 C38.7483871,18.2068966 56.6322581,0.165517241 78.8215054,0.165517241 C101.010753,0.165517241 118.894624,18.0413793 118.894624,40.2206897 C118.894624,62.2344828 101.010753,80.2758621 78.8215054,80.2758621 Z M78.8215054,5.29655172 C59.6129032,5.29655172 43.8817204,21.0206897 43.8817204,40.2206897 C43.8817204,59.4206897 59.6129032,75.1448276 78.8215054,75.1448276 C98.0301075,75.1448276 113.76129,59.4206897 113.76129,40.2206897 C113.76129,21.0206897 98.0301075,5.29655172 78.8215054,5.29655172 Z" id="Shape"></path>
                        <path d="M153.172043,190.675862 L148.03871,190.675862 L148.03871,122.482759 C148.03871,99.1448276 128.995699,80.2758621 105.812903,80.2758621 L48.1870968,80.2758621 C24.8387097,80.2758621 5.96129032,99.3103448 5.96129032,122.482759 L5.96129032,190.675862 L0.827956989,190.675862 L0.827956989,122.482759 C0.827956989,96.3310345 22.0236559,75.1448276 48.1870968,75.1448276 L105.812903,75.1448276 C131.976344,75.1448276 153.172043,96.3310345 153.172043,122.482759 L153.172043,190.675862 L153.172043,190.675862 Z" id="Path"></path>
                        <path d="M63.4215054,191.006897 L53.9827957,117.517241 L53.9827957,117.517241 L53.9827957,117.517241 L48.5182796,75.1448276 L61.7655914,75.1448276 L75.0129032,91.2 L59.2817204,118.510345 L68.5548387,190.344828 L63.4215054,191.006897 Z M54.3139785,80.2758621 L58.1225806,110.068966 L68.7204301,91.6965517 L59.2817204,80.2758621 L54.3139785,80.2758621 Z" id="Shape"></path>
                        <path d="M94.2215054,191.006897 L89.088172,190.344828 L98.3612903,118.344828 L83.9548387,90.537931 L97.2021505,75.1448276 L109.124731,75.1448276 L103.660215,117.517241 L103.825806,117.682759 L103.660215,117.682759 L94.2215054,191.006897 Z M90.2473118,91.2 L99.6860215,109.406897 L103.494624,80.2758621 L99.8516129,80.2758621 L90.2473118,91.2 Z" id="Shape"></path>
                        <rect id="Rectangle" x="76.5032258" y="99.9724138" width="5.13333333" height="90.7034483"></rect>
                        <polygon id="Path" points="78.9870968 103.944828 69.8795699 93.0206897 73.8537634 89.7103448 78.9870968 96 85.1139785 89.2137931 89.088172 92.5241379"></polygon>
                        <ellipse id="Oval" cx="89.4193548" cy="122.648276" rx="3.80860215" ry="3.80689655"></ellipse>
                        <ellipse id="Oval" cx="89.4193548" cy="150.951724" rx="3.80860215" ry="3.80689655"></ellipse>
                        <ellipse id="Oval" cx="89.4193548" cy="178.096552" rx="3.80860215" ry="3.80689655"></ellipse>
                    </g>
                    <rect id="Rectangle" fill="#4A555F" x="129.658065" y="147.144828" width="5.13333333" height="43.5310345"></rect>
                    <rect id="Rectangle" fill="#4A555F" x="20.6989247" y="147.144828" width="5.13333333" height="43.5310345"></rect>
                </g>
                <polygon id="Path" fill="#4A555F" points="413 113 352.775537 113 352.775537 42.1328976 158 42.1328976 158 37 357.918673 37 357.918673 107.867102 413 107.867102"></polygon>
                <polygon id="Path" fill="#4A555F" points="357.918673 396 158 396 158 390.867102 352.775537 390.867102 352.775537 320 413 320 413 325.132898 357.918673 325.132898"></polygon>
                <rect id="Rectangle" fill="#4A555F" x="354" y="214" width="59" height="5"></rect>
                <polygon id="Path" fill="#4A555F" points="399.45 128 396.164286 124.238318 411.442857 110.663551 396 96.7616822 399.45 93 419 110.663551"></polygon>
                <polygon id="Path" fill="#4A555F" points="399.45 234 396.164286 230.238318 411.442857 216.5 396 202.761682 399.45 199 419 216.663551"></polygon>
                <polygon id="Path" fill="#4A555F" points="399.45 340 396.164286 336.238318 411.442857 322.5 396 308.761682 399.45 305 419 322.5"></polygon>
            </g>
            <g id="LAPTOP" transform="translate(420.000000, 0.000000)">
                <path d="M426.182,89.869 L85.809,89.869 C71.184,89.869 59.286,101.767 59.286,116.391 L59.286,346.693 C59.286,361.318 71.184,373.215 85.809,373.215 L426.182,373.215 C440.806,373.215 452.703,361.317 452.703,346.693 L452.703,116.391 C452.703,101.767 440.805,89.869 426.182,89.869 Z M446.761,346.693 C446.761,358.041 437.529,367.273 426.182,367.273 L85.809,367.273 C74.46,367.273 65.228,358.04 65.228,346.693 L65.228,116.391 C65.228,105.043 74.46,95.811 85.809,95.811 L426.182,95.811 C437.529,95.811 446.761,105.044 446.761,116.391 L446.761,346.693 Z" id="Shape" fill="#4A555F"></path>
                <path d="M90.008,122.096 L90.008,343.326 L422.001,343.326 L422.001,122.096 L90.008,122.096 Z M416.059,337.384 L95.951,337.384 L95.951,128.038 L416.059,128.038 L416.059,337.384 L416.059,337.384 Z" id="Shape" fill="#4A555F"></path>
                <path d="M426.182,102.744 L85.809,102.744 C78.283,102.744 72.161,108.866 72.161,116.392 L72.161,346.693 C72.161,354.219 78.283,360.341 85.809,360.341 L426.182,360.341 C433.706,360.341 439.828,354.219 439.828,346.693 L439.828,116.392 C439.828,108.866 433.706,102.744 426.182,102.744 Z M428.934,350.259 L83.075,350.259 L83.075,115.163 L428.934,115.163 L428.934,350.259 Z" id="Shape" fill="#666288"></path>
                <path d="M17.504,367.283 L17.504,386.236 C17.504,404.438 32.313,419.246 50.515,419.246 L461.485,419.246 C479.687,419.246 494.494,404.438 494.494,386.236 L494.494,367.283 L17.504,367.283 Z M488.552,386.235 C488.552,401.16 476.41,413.303 461.485,413.303 L50.515,413.303 C35.59,413.303 23.446,401.16 23.446,386.235 L23.446,373.225 L488.552,373.225 L488.552,386.235 Z" id="Shape" fill="#4A555F"></path>
                <path d="M286.003,380.148 C284.953,382.268 283.566,384.169 281.903,385.833 C277.922,389.815 272.415,392.271 266.334,392.271 L232.126,392.271 C223.529,392.271 216.082,387.359 212.457,380.148 L30.387,380.148 L30.387,386.23 C30.387,397.342 39.42,406.374 50.512,406.374 L461.479,406.374 C472.591,406.374 481.623,397.342 481.623,386.23 L481.623,380.148 L286.003,380.148 Z" id="Path" fill="#666288"></path>
                <rect id="Rectangle" fill="#4A555F" x="0" y="413.303" width="512" height="5.942"></rect>
                <path d="M207.132,367.283 L207.132,370.254 C207.132,384.035 218.343,395.248 232.126,395.248 L266.338,395.248 C280.12,395.248 291.332,384.036 291.332,370.254 L291.332,367.283 L207.132,367.283 Z M266.338,389.305 L232.126,389.305 C222.632,389.305 214.736,382.324 213.307,373.225 L285.158,373.225 C283.728,382.324 275.832,389.305 266.338,389.305 Z" id="Shape" fill="#4A555F"></path>
                <path d="M90.008,122.096 L90.008,158.871 L422.001,158.871 L422.001,122.096 L90.008,122.096 Z M416.059,152.928 L95.951,152.928 L95.951,128.038 L416.059,128.038 L416.059,152.928 L416.059,152.928 Z" id="Shape" fill="#4A555F"></path>
                <path d="M113.481,130.343 C108.245,130.343 103.983,134.603 103.983,139.841 C103.983,145.079 108.244,149.34 113.481,149.34 C118.718,149.34 122.979,145.079 122.979,139.841 C122.979,134.603 118.718,130.343 113.481,130.343 Z M113.481,143.396 C111.522,143.396 109.926,141.8 109.926,139.84 C109.926,137.88 111.522,136.285 113.481,136.285 C115.44,136.285 117.036,137.88 117.036,139.84 C117.036,141.8 115.441,143.396 113.481,143.396 Z" id="Shape" fill="#4A555F"></path>
                <path d="M134.999,130.343 C129.763,130.343 125.501,134.603 125.501,139.841 C125.501,145.079 129.762,149.34 134.999,149.34 C140.236,149.34 144.497,145.079 144.497,139.841 C144.497,134.603 140.235,130.343 134.999,130.343 Z M134.999,143.396 C133.04,143.396 131.443,141.8 131.443,139.84 C131.443,137.88 133.039,136.285 134.999,136.285 C136.959,136.285 138.554,137.88 138.554,139.84 C138.554,141.8 136.958,143.396 134.999,143.396 Z" id="Shape" fill="#4A555F"></path>
                <path d="M156.517,130.343 C151.281,130.343 147.019,134.603 147.019,139.841 C147.019,145.079 151.281,149.34 156.517,149.34 C161.753,149.34 166.015,145.079 166.015,139.841 C166.015,134.603 161.752,130.343 156.517,130.343 Z M156.517,143.396 C154.557,143.396 152.961,141.8 152.961,139.84 C152.961,137.88 154.557,136.285 156.517,136.285 C158.476,136.285 160.072,137.88 160.072,139.84 C160.072,141.8 158.476,143.396 156.517,143.396 Z" id="Shape" fill="#4A555F"></path>
                <path d="M115.056,178.677 L115.056,316.052 L254.221,316.052 L254.221,178.677 L115.056,178.677 Z M248.279,310.109 L120.998,310.109 L120.998,184.619 L248.279,184.619 L248.279,310.109 Z" id="Shape" fill="#4A555F"></path>
                <rect id="Rectangle" fill="#E88C59" x="127.931" y="191.552" width="113.417" height="111.625"></rect>
                <path d="M270.502,178.677 L270.502,208.486 L398.387,208.486 L398.387,178.677 L270.502,178.677 Z M392.445,202.544 L276.445,202.544 L276.445,184.619 L392.445,184.619 L392.445,202.544 Z" id="Shape" fill="#4A555F"></path>
                <rect id="Rectangle" fill="#FFD452" x="283.377" y="191.552" width="102.135" height="4.059"></rect>
                <path d="M295.26,234.137 L301.202,234.137 L301.202,228.195 L295.26,228.195 L295.26,234.137 Z M330.914,234.137 L336.856,234.137 L336.856,228.195 L330.914,228.195 L330.914,234.137 Z M307.145,234.137 L313.087,234.137 L313.087,228.195 L307.145,228.195 L307.145,234.137 Z M271.491,234.137 L277.433,234.137 L277.433,228.195 L271.491,228.195 L271.491,234.137 Z M283.375,234.137 L289.317,234.137 L289.317,228.195 L283.375,228.195 L283.375,234.137 Z M319.029,234.137 L324.971,234.137 L324.971,228.195 L319.029,228.195 L319.029,234.137 Z M378.452,234.137 L384.394,234.137 L384.394,228.195 L378.452,228.195 L378.452,234.137 Z M390.336,228.195 L390.336,234.137 L396.278,234.137 L396.278,228.195 L390.336,228.195 Z M354.683,234.137 L360.625,234.137 L360.625,228.195 L354.683,228.195 L354.683,234.137 Z M342.798,234.137 L348.74,234.137 L348.74,228.195 L342.798,228.195 L342.798,234.137 Z M366.567,234.137 L372.509,234.137 L372.509,228.195 L366.567,228.195 L366.567,234.137 Z" id="Shape" fill="#4A555F"></path>
                <path d="M295.26,254.3 L301.202,254.3 L301.202,248.358 L295.26,248.358 L295.26,254.3 Z M307.145,254.3 L313.087,254.3 L313.087,248.358 L307.145,248.358 L307.145,254.3 Z M319.029,254.3 L324.971,254.3 L324.971,248.358 L319.029,248.358 L319.029,254.3 Z M271.491,254.3 L277.433,254.3 L277.433,248.358 L271.491,248.358 L271.491,254.3 Z M283.375,254.3 L289.317,254.3 L289.317,248.358 L283.375,248.358 L283.375,254.3 Z M366.567,254.3 L372.509,254.3 L372.509,248.358 L366.567,248.358 L366.567,254.3 Z M378.452,254.3 L384.394,254.3 L384.394,248.358 L378.452,248.358 L378.452,254.3 Z M390.336,248.357 L390.336,254.299 L396.278,254.299 L396.278,248.357 L390.336,248.357 Z M354.683,254.3 L360.625,254.3 L360.625,248.358 L354.683,248.358 L354.683,254.3 Z M342.798,254.3 L348.74,254.3 L348.74,248.358 L342.798,248.358 L342.798,254.3 Z M330.914,254.3 L336.856,254.3 L336.856,248.358 L330.914,248.358 L330.914,254.3 Z" id="Shape" fill="#4A555F"></path>
                <rect id="Rectangle" fill="#4A555F" x="271.491" y="276.45" width="118.733" height="5.942"></rect>
                <rect id="Rectangle" fill="#4A555F" x="271.491" y="296.612" width="85.842" height="5.942"></rect>
                <rect id="Rectangle" fill="#4A555F" x="253.569" y="0.754" width="5.942" height="52.079"></rect>
                <rect id="Rectangle" fill="#4A555F" transform="translate(340.577881, 39.989330) rotate(-66.957897) translate(-340.577881, -39.989330) " x="314.538376" y="37.0193861" width="52.0790105" height="5.93988714"></rect>
                <rect id="Rectangle" fill="#4A555F" transform="translate(171.424990, 39.978064) rotate(-23.042103) translate(-171.424990, -39.978064) " x="168.455046" y="13.938559" width="5.93988714" height="52.0790105"></rect>
            </g>
        </g>
    </g>
</svg>