<?xml version="1.0" encoding="UTF-8"?>
<svg width="643px" height="411px" viewBox="0 0 643 411" version="1.1" xmlns="http://www.w3.org/2000/svg" xmlns:xlink="http://www.w3.org/1999/xlink">
    <!-- Generator: Sketch 58 (84663) - https://sketch.com -->
    <title>Secure hashing</title>
    <desc>Created with Sketch.</desc>
    <g id="Page-1" stroke="none" stroke-width="1" fill="none" fill-rule="evenodd">
        <g id="Password-Control" transform="translate(0.000000, -1459.000000)">
            <g id="Secure-hashing" transform="translate(0.000000, 1459.000000)">
                <g id="text-paper" transform="translate(0.000000, 6.000000)">
                    <g id="Computer">
                        <polygon id="Path-10" fill="#FFFFFF" fill-rule="nonzero" points="3.71428571 185.234043 5.27703319 201.549456 13.8816616 213.613544 38.0604677 215.191489 293.644867 215.191489 304.560306 208.612142 309.214286 198.63286 309.214286 185.234043"></polygon>
                        <rect id="Rectangle" stroke="#5C666F" stroke-width="5" fill="#FFFFFF" fill-rule="nonzero" x="32.2142857" y="0.5" width="250.357143" height="184.106383" rx="19"></rect>
                        <path d="M0,182.425532 L0,195.400289 C0,207.861588 9.68595921,218 21.5919445,218 L290.40871,218 C302.314695,218 312,207.861588 312,195.400289 L312,182.425532 L0,182.425532 Z M306.668875,195.995358 C306.668875,205.048021 298.825492,212.412786 289.184372,212.412786 L23.7095793,212.412786 C14.0684588,212.412786 6.22443029,205.048021 6.22443029,195.995358 L6.22443029,188.104754 L306.668875,188.104754 L306.668875,195.995358 Z" id="Shape" fill="#5C666F" fill-rule="nonzero"></path>
                        <path d="M176.156872,191.787234 C175.467597,193.149455 174.557754,194.370957 173.465417,195.440172 C170.852081,197.998835 167.236997,204.621155 163.24511,204.621155 L140.789188,204.621155 C135.146323,204.621155 128.380651,196.420072 126.001012,191.787234 L8.35714286,191.787234 L8.35714286,195.694625 C8.35714286,202.834721 14.2862207,208.638298 21.5682468,208.638298 L291.347852,208.638298 C298.642351,208.638298 304.571429,202.834721 304.571429,195.694625 L304.571429,191.787234 L176.156872,191.787234 Z" id="Path" fill="#3F2E61" fill-rule="nonzero"></path>
                        <path d="M124.428571,186.170213 L124.428571,188.159457 C124.428571,197.387249 131.476662,204.893617 140.139678,204.893617 L161.646036,204.893617 C170.309681,204.893617 177.357143,197.386579 177.357143,188.159457 L177.357143,186.170213 L124.428571,186.170213 Z M161.646036,200.915128 L140.139678,200.915128 C134.170929,200.915128 129.2086,196.240303 128.309044,190.148702 L173.476041,190.148702 C172.577114,196.240972 167.613528,200.915128 161.646036,200.915128 Z" id="Shape" fill="#5C666F" fill-rule="nonzero"></path>
                        <g id="Screen" transform="translate(46.428571, 32.638298)" fill="#5C666F" fill-rule="nonzero">
                            <rect id="Rectangle" x="204.426747" y="18.9933165" width="5.74748358" height="30.199969"></rect>
                            <rect id="Rectangle" x="0" y="0.215960078" width="218.610443" height="7.44689924"></rect>
                            <rect id="Rectangle" x="193.675414" y="4.09951803" width="5.37566664" height="128.459012"></rect>
                        </g>
                        <rect id="Rectangle" stroke="#3F2E61" stroke-width="5" x="38.7142857" y="7.05319149" width="236.428571" height="170.06383" rx="13"></rect>
                        <rect id="Rectangle" stroke="#5C666F" stroke-width="5" x="47.0714286" y="17.3510638" width="219.714286" height="150.404255" rx="8"></rect>
                    </g>
                    <rect id="Rectangle" fill="#71CCE0" fill-rule="nonzero" x="87.496732" y="71.75" width="114.849673" height="50"></rect>
                    <path d="M85,66.75 L85,125.5 L206.091503,125.5 L206.091503,66.75 L85,66.75 Z M199.114097,118.33991 L91.9754436,118.33991 L91.9754436,73.9100901 L199.114097,73.9100901 L199.114097,118.33991 L199.114097,118.33991 Z" id="Shape" fill="#5C666F" fill-rule="nonzero"></path>
                    <g id="•••••" transform="translate(104.732026, 68.750000)" fill="#FFFFFF" font-family="Arial-BoldMT, Arial" font-size="48" font-weight="bold">
                        <text>
                            <tspan x="0.299290883" y="43.875">•••••</tspan>
                        </text>
                    </g>
                </g>
                <g id="code-key" transform="translate(225.000000, 254.000000)" fill-rule="nonzero">
                    <polygon id="Path-2" fill="#EC8D53" points="245 34.8888889 150.390625 34.8888889 115.66625 4.68819444 106.028125 14.3000833 105 14.3000833 105 0 52.5 0 52.5 14.3000833 51.1623603 14.3000833 41.5288506 4.68819444 4.50625 41.4959722 14.35 51.3084722 14.35 52.3333333 0 52.3333333 0 104.666667 13.92125 104.666667 14.35 105.691528 4.50625 115.504028 41.5288506 152.76405 51.471875 142.695556 52.5 143.122944 52.5 157 105 157 105 143.122944 106.028125 142.695556 115.66625 152.307444 150.390625 122.111111 245 122.111111 245 113.388889 147.109375 113.388889 116.0775 140.375444 107.891875 132.220167 96.25 137.026111 96.25 148.277778 61.25 148.277778 61.25 137.026111 49.60375 132.220167 41.5288506 140.375444 16.874375 115.504028 24.854375 107.549361 20.0375 95.9444444 8.75 95.9444444 8.75 61.0555556 20.0375 61.0555556 24.85875 49.4506389 16.804375 41.0370099 41.628125 16.8251667 49.608125 24.7798333 61.25 19.9738889 61.25 8.72222222 96.25 8.72222222 96.25 19.9738889 107.891875 24.7798333 116.0775 16.6245556 147.109375 43.6111111 245 43.6111111"></polygon>
                    <polygon id="Path" fill="#3F2E61" points="87.5 103.420635 87.5 51.0873016 70 51.0873016 70 59.8095238 78.75 59.8095238 78.75 103.420635"></polygon>
                    <polygon id="Path" fill="#3F2E61" points="175 103.420635 175 51.0873016 157.5 51.0873016 157.5 59.8095238 166.25 59.8095238 166.25 103.420635"></polygon>
                    <polygon id="Path" fill="#3F2E61" points="210 103.420635 210 51.0873016 192.5 51.0873016 192.5 59.8095238 201.25 59.8095238 201.25 103.420635"></polygon>
                    <polygon id="Path" fill="#3F2E61" points="227.5 59.8095238 236.25 59.8095238 236.25 103.420635 245 103.420635 245 51.0873016 227.5 51.0873016"></polygon>
                    <path d="M107.5,103.420635 L142.5,103.420635 L142.5,51.0873016 L107.5,51.0873016 L107.5,103.420635 Z M116.25,59.8095238 L133.75,59.8095238 L133.75,94.6984127 L116.25,94.6984127 L116.25,59.8095238 Z" id="Shape" fill="#3F2E61"></path>
                    <path d="M103.75,39.7340833 C97.4839556,36.5199444 90.7584598,34.8888889 83.7572929,34.8888889 C59.6295216,34.8888889 40,54.4528333 40,78.5 C40,102.547167 59.6295216,122.111111 83.7572929,122.111111 C90.7584598,122.111111 97.4839556,120.480056 103.75,117.265917 L99.741832,109.516222 C94.7272462,112.084917 89.3494749,113.388889 83.7572929,113.388889 C64.455951,113.388889 48.7514586,97.7368611 48.7514586,78.5 C48.7514586,59.2631389 64.455951,43.6111111 83.7572929,43.6111111 C89.3494749,43.6111111 94.7272462,44.9150833 99.741832,47.4881389 L103.75,39.7340833 Z" id="Path" fill="#3F2E61"></path>
                </g>
                <g id="Group-2" transform="translate(168.000000, 299.000000) scale(1, -1) translate(-168.000000, -299.000000) translate(132.000000, 249.000000)" fill="#C5C8CA" fill-rule="nonzero">
                    <path d="M44.3997864,17 L44.3997864,24 L52,24 L52,17 L44.3997864,17 Z M14,24 L21.6002136,24 L21.6002136,17 L14,17 L14,24 Z M29.2004272,24 L36.8006408,24 L36.8006408,17 L29.2004272,17 L29.2004272,24 Z" id="Shape"></path>
                    <polygon id="Path" points="51.3026584 0 46 5.12531138 61.7641302 21.5878654 46.0134537 37.8434938 51.2881712 43 72 21.6169806"></polygon>
                    <path d="M0,99.1332631 L7,99.1332631 L7,91.6663166 L0,91.6663166 L0,99.1332631 Z M0,84.1993699 L7,84.1993699 L7,76.7324232 L0,76.7324232 L0,84.1993699 Z M0,39.39979 L7,39.39979 L7,31.9328433 L0,31.9328433 L0,39.39979 Z M0,17 L0,24.4669467 L7,24.4669467 L7,17 L0,17 L0,17 Z M0,69.2665266 L7,69.2665266 L7,61.7995799 L0,61.7995799 L0,69.2665266 Z M0,54.3326332 L7,54.3326332 L7,46.8656865 L0,46.8656865 L0,54.3326332 Z" id="Shape"></path>
                </g>
                <g id="Group-2-Copy-2" transform="translate(527.500000, 291.710938) scale(1, -1) rotate(-270.000000) translate(-527.500000, -291.710938) translate(481.500000, 256.210938)" fill="#C5C8CA" fill-rule="nonzero">
                    <path d="M44.3997864,18 L44.3997864,25 L52,25 L52,18 L44.3997864,18 Z M60.4108307,18 L60.4108307,25 L68.0110443,25 L68.0110443,18 L60.4108307,18 Z M14,25 L21.6002136,25 L21.6002136,18 L14,18 L14,25 Z M29.2004272,25 L36.8006408,25 L36.8006408,18 L29.2004272,18 L29.2004272,25 Z" id="Shape"></path>
                    <polygon id="Path" points="70.5135959 0 65.2109375 5.12531138 80.9750677 21.5878654 65.2243912 37.8434938 70.4991087 43 91.2109375 21.6169806"></polygon>
                    <path d="M2.27373675e-13,40.39979 L7,40.39979 L7,32.9328433 L2.27373675e-13,32.9328433 L2.27373675e-13,40.39979 Z M2.27373675e-13,18 L2.27373675e-13,25.4669467 L7,25.4669467 L7,18 L2.27373675e-13,18 L2.27373675e-13,18 Z M2.27373675e-13,70.2665266 L7,70.2665266 L7,62.7995799 L2.27373675e-13,62.7995799 L2.27373675e-13,70.2665266 Z M2.27373675e-13,55.3326332 L7,55.3326332 L7,47.8656865 L2.27373675e-13,47.8656865 L2.27373675e-13,55.3326332 Z" id="Shape"></path>
                </g>
                <g id="Database" transform="translate(425.000000, 0.000000)">
                    <g id="Group" transform="translate(8.000000, 179.000000)">
                        <rect id="Rectangle" stroke="#979797" fill="#FFFFFF" x="39.7522936" y="3.77344262" width="11.7798165" height="26.8242623"></rect>
                        <rect id="Rectangle" stroke="#979797" fill="#FFFFFF" x="141.077982" y="3.77344262" width="11.7798165" height="26.8242623"></rect>
                        <path d="M54.924,34.1272652 L35.82,34.1272652 L35.82,0.605912062 L54.924,0.605912062 L54.924,34.1272652 Z M42.6428571,28.0139485 L48.2148571,28.0139485 L48.2148571,6.51545153 L42.6428571,6.51545153 L42.6428571,28.0139485 Z" id="Shape" fill="#4A555F" fill-rule="nonzero"></path>
                        <path d="M157.721714,34.1272652 L138.617714,34.1272652 L138.617714,0.605912062 L157.721714,0.605912062 L157.721714,34.1272652 Z M145.326857,28.0139485 L150.898857,28.0139485 L150.898857,6.51545153 L145.326857,6.51545153 L145.326857,28.0139485 Z" id="Shape" fill="#4A555F" fill-rule="nonzero"></path>
                        <polygon id="Path" fill="#4A555F" fill-rule="nonzero" points="198.886286 38.9339485 0 38.9339485 0 28.0139485 198.772571 28.0139485 198.772571 38.9339485"></polygon>
                    </g>
                    <path d="M214.5,123.5 L3.5,123.5 L3.5,170.487244 L3.57289637,170.661657 C5.06612503,174.234389 16.8611804,178.773011 35.4691587,182.043648 C55.2769218,185.525165 81.312438,187.5 109,187.5 C136.687562,187.5 162.723078,185.525165 182.530841,182.043648 C201.13882,178.773011 212.933875,174.234389 214.427104,170.661657 L214.5,170.487244 L214.5,123.5 Z" id="Combined-Shape" stroke="#4A555F" stroke-width="7" fill="#FFD452"></path>
                    <path d="M214.5,73.5 L3.5,73.5 L3.5,120.487244 L3.57289637,120.661657 C5.06612503,124.234389 16.8611804,128.773011 35.4691587,132.043648 C55.2769218,135.525165 81.312438,137.5 109,137.5 C136.687562,137.5 162.723078,135.525165 182.530841,132.043648 C201.13882,128.773011 212.933875,124.234389 214.427104,120.661657 L214.5,120.487244 L214.5,73.5 Z" id="Combined-Shape" stroke="#4A555F" stroke-width="7" fill="#FFD452"></path>
                    <path d="M214.5,23.5 L3.5,23.5 L3.5,70.487244 L3.57289637,70.6616574 C5.06612503,74.2343887 16.8611804,78.7730113 35.4691587,82.0436479 C55.2769218,85.525165 81.312438,87.5 109,87.5 C136.687562,87.5 162.723078,85.525165 182.530841,82.0436479 C201.13882,78.7730113 212.933875,74.2343887 214.427104,70.6616574 L214.5,70.487244 L214.5,23.5 Z" id="Combined-Shape" stroke="#4A555F" stroke-width="7" fill="#FFD452"></path>
                    <ellipse id="Oval" stroke="#4A555F" stroke-width="7" fill="#FFFFFF" cx="109" cy="21" rx="105.5" ry="17.5"></ellipse>
                </g>
                <g id="Question-paper" transform="translate(483.000000, 65.000000)">
                    <rect id="Rectangle" stroke="#71CDE1" stroke-width="5" fill="#71CCE0" fill-rule="nonzero" x="6" y="6" width="92" height="78"></rect>
                    <path d="M0,0 L0,90 L103,90 L103,0 L0,0 Z M92.2218816,78.8875376 L10.778118,78.8875376 L10.778118,11.1108989 L92.2218816,11.1108989 L92.2218816,78.8875376 Z" id="Shape" fill="#5C666F" fill-rule="nonzero"></path>
                    <g id="#" transform="translate(29.000000, 13.000000)" fill="#FFFFFF" font-family="Arial-BoldMT, Arial" font-size="60" font-weight="bold">
                        <text>
                            <tspan x="5.30988839" y="54.1615159">#</tspan>
                        </text>
                    </g>
                </g>
            </g>
        </g>
    </g>
</svg>