<?xml version="1.0" encoding="UTF-8"?>
<svg width="434px" height="450px" viewBox="0 0 434 450" version="1.1" xmlns="http://www.w3.org/2000/svg" xmlns:xlink="http://www.w3.org/1999/xlink">
    <!-- Generator: Sketch 59.1 (86144) - https://sketch.com -->
    <title>t-soc2-compliant</title>
    <desc>Created with Sketch.</desc>
    <g id="Page-1" stroke="none" stroke-width="1" fill="none" fill-rule="evenodd">
        <g id="t-soc2-compliant" transform="translate(1.000000, 2.000000)">
            <g id="DATA-PROTECTION" fill-rule="nonzero">
                <polygon id="Path" stroke="#4A555F" stroke-width="2" fill="#4A555F" points="349.016949 447 0 447 0 91.5983607 5.49289728 91.5983607 5.49289728 441.410001 343.524052 441.410001 343.524052 378.347828 349.016949 378.347828"></polygon>
                <polygon id="Path" stroke="#4A555F" stroke-width="2" fill="#4A555F" points="350.237288 128.237705 344.726562 128.237705 344.726562 5.58313817 100.067797 5.58313817 100.067797 0 350.237288 0"></polygon>
                <path d="M99.7286973,94.0409836 L3.13143588,94.0409836 L1.22033898,89.2295844 L97.9044684,0 L102.508475,2.01203965 L102.508475,91.1541441 L99.7286973,94.0409836 Z M10.2546152,88.4422646 L96.94892,88.4422646 L96.94892,8.39807854 L10.2546152,88.4422646 Z" id="Shape" stroke="#4A555F" stroke-width="2" fill="#4A555F"></path>
                <rect id="Rectangle" fill="#4A555F" x="57.3559322" y="213.729508" width="164.745763" height="6.10655738"></rect>
                <rect id="Rectangle" fill="#4A555F" x="57.3559322" y="255.254098" width="164.745763" height="6.10655738"></rect>
                <rect id="Rectangle" fill="#4A555F" x="57.3559322" y="295.557377" width="164.745763" height="6.10655738"></rect>
                <rect id="Rectangle" fill="#4A555F" x="57.3559322" y="337.081967" width="185.491525" height="6.10655738"></rect>
                <rect id="Rectangle" fill="#4A555F" x="56.1355932" y="378.606557" width="203.79661" height="6.10655738"></rect>
                <path d="M350.545775,362.729508 L348.53348,362.729508 C283.002637,336.940552 267.954166,297.426626 267.42922,295.765643 L267.254237,294.804021 L267.254237,179.49679 L270.053953,176.699344 C314.411946,176.699344 347.74606,155.281398 348.096024,155.106557 L351.158213,155.106557 C351.508178,155.281398 384.842291,176.699344 429.200284,176.699344 L432,179.49679 L432,294.804021 L431.825018,295.765643 C431.125089,297.426626 416.076618,336.940552 350.545775,362.729508 Z M272.766177,294.2795 C274.516,298.475669 290.964328,333.706005 349.495882,357.134616 C381.780102,344.196428 400.940655,327.761432 411.352098,316.221967 C421.413576,305.119603 425.438167,296.202744 426.225587,294.2795 L426.225587,182.206816 C386.417131,181.420035 356.495171,164.897619 349.495882,160.70145 C342.496593,164.897619 312.487142,181.507455 272.766177,182.206816 L272.766177,294.2795 Z" id="Shape" stroke="#4A555F" stroke-width="2" fill="#4A555F"></path>
                <path d="M348.40678,340.745902 C306.566586,322.435383 290.96368,298.430205 286.779661,290.545293 L286.779661,195.663513 C314.673123,192.597158 336.900726,183.047653 348.40678,177.090164 C359.912833,183.047653 382.140436,192.597158 410.033898,195.663513 L410.033898,290.545293 C405.937046,298.430205 390.33414,322.435383 348.40678,340.745902 Z" id="Path" fill="#00C621"></path>
                <rect id="Rectangle" fill="#666288" x="144" y="59.8442623" width="54.9152542" height="29.3114754"></rect>
                <rect id="Rectangle" fill="#E88C59" x="198.915254" y="59.8442623" width="102.508475" height="29.3114754"></rect>
                <rect id="Rectangle" fill="#4A555F" x="144" y="56.1803279" width="157.423729" height="6.10655738"></rect>
                <rect id="Rectangle" fill="#4A555F" x="144" y="85.4918033" width="157.423729" height="6.10655738"></rect>
                <polygon id="Path" stroke="#FFFFFF" stroke-width="6" fill="#4A555F" points="331.521705 289.45082 303.864407 257.951433 307.987234 254.316889 332.037059 281.489436 394.223035 224.721311 397.830508 228.875077"></polygon>
            </g>
            <g id="SOC2" transform="translate(62.000000, 126.000000)" fill="#4A555F" font-family="Arial-BoldMT, Arial" font-size="48" font-weight="bold" stroke="#4A555F">
                <g id="Group">
                    <text id="SOC2">
                        <tspan x="0.6445312" y="43">SOC2</tspan>
                    </text>
                </g>
            </g>
        </g>
    </g>
</svg>