<?xml version="1.0" encoding="UTF-8"?>
<svg width="958px" height="246px" viewBox="0 0 958 246" version="1.1" xmlns="http://www.w3.org/2000/svg" xmlns:xlink="http://www.w3.org/1999/xlink">
    <!-- Generator: Sketch 58 (84663) - https://sketch.com -->
    <title>Social </title>
    <desc>Created with Sketch.</desc>
    <g id="Page-1" stroke="none" stroke-width="1" fill="none" fill-rule="evenodd">
        <g id="Auth-options" transform="translate(-48.000000, -1717.000000)">
            <g id="Social-" transform="translate(48.000000, 1717.000000)">
                <g id="twitter" transform="translate(0.000000, 19.000000)">
                    <g id="Dark_Blue" fill="#1DA1F2" fill-rule="nonzero">
                        <rect id="Rectangle" x="0" y="0" width="204" height="204"></rect>
                    </g>
                    <g id="Logo_FIXED">
                        <path d="M78.3462,153.8109 C126.4596,153.8109 152.7756,113.9493 152.7756,79.3815 C152.7756,78.2493 152.7756,77.1222 152.6991,76.0002 C157.81864,72.2971454 162.237913,67.7120849 165.75,62.4597 C160.975783,64.575189 155.91123,65.9625262 150.7254,66.5754 C156.186195,63.3062085 160.27323,58.1643371 162.2259,52.1067 C157.091003,55.1537221 151.473295,57.3011113 145.6152,58.4562 C137.506622,49.8341108 124.622169,47.7238242 114.186701,53.3086676 C103.751234,58.8935111 98.3600024,70.7845612 101.0361,82.314 C80.0031683,81.2595727 60.4068264,71.3251487 47.124,54.9831 C40.1809761,66.9356881 43.7273382,82.2265833 55.2228,89.9028 C51.0598801,89.7794185 46.9877248,88.6564273 43.35,86.6286 C43.35,86.7357 43.35,86.8479 43.35,86.9601 C43.3534074,99.4122241 52.1309326,110.137229 64.3365,112.6029 C60.4853349,113.653194 56.444661,113.806726 52.5249,113.0517 C55.9518344,123.707756 65.7725302,131.007697 76.9641,131.2179 C67.7011487,138.497803 56.2584035,142.449772 44.4771,142.4379 C42.3958082,142.433904 40.3165408,142.307889 38.25,142.0605 C50.2127433,149.73741 64.1320583,153.809457 78.3462,153.7905" id="Path" fill="#FFFFFF" fill-rule="nonzero"></path>
                        <rect id="Rectangle" x="0" y="0" width="204" height="204"></rect>
                    </g>
                </g>
                <g id="facebook" transform="translate(756.000000, 18.000000)" fill-rule="nonzero">
                    <rect id="Rectangle" fill="#FFFFFF" x="52" y="24" width="132" height="177"></rect>
                    <path d="M190.957275,0 L11.1337166,0 C4.95871413,0 0,4.93194445 0,11.0736111 L0,189.926389 C0,196.068055 4.95871413,201 11.1337166,201 L107.968983,201 L107.968983,123.205556 L81.5848817,123.205556 L81.5848817,92.8694445 L107.875423,92.8694445 L107.875423,70.5361111 C107.875423,44.5736111 123.780732,30.4291667 147.077333,30.4291667 C158.21105,30.4291667 167.847795,31.2666667 170.654614,31.6388889 L170.654614,58.8111111 L154.468623,58.8111111 C141.837936,58.8111111 139.311799,64.7666667 139.311799,73.6069445 L139.311799,92.9625 L169.531887,92.9625 L165.60234,123.298611 L139.40536,123.298611 L139.40536,201 L190.863714,201 C197.038716,201 202,196.068055 202,189.926389 L202,11.0736111 C202.090991,4.93194445 197.132277,0 190.957275,0 Z" id="Path" fill="#3B5998"></path>
                </g>
                <g id="google" transform="translate(252.000000, 19.000000)">
                    <path d="M99.3338667,39.6445131 C114.249067,39.6445131 127.605333,44.7357033 138.138667,54.667697 L167,26.0819166 C149.472533,9.93199382 126.594133,0 99.3338667,0 C59.8128,0 25.6426667,22.4513137 9,55.1684699 L42.6224,81 C50.5856,57.2550232 72.9584,39.6445131 99.3338667,39.6445131 Z" id="Path" fill="#EA4335" fill-rule="nonzero"></path>
                    <path d="M197,103.060811 C197,96.4837838 196.366841,90.1162162 195.395996,84 L100,84 L100,121.786487 L154.62054,121.786487 C152.172324,134.186486 145.08094,144.743243 134.443865,151.864865 L167.072671,177 C186.10966,159.489189 197,133.6 197,103.060811 L197,103.060811 Z" id="Path" fill="#4285F4" fill-rule="nonzero"></path>
                    <path d="M43,120.160482 C41.039886,114.107607 39.8964862,107.679035 39.8964862,101 C39.8964862,94.3209647 40.9990504,87.8923933 43,81.8395176 L10.4131054,56 C3.75688509,69.5250464 0,84.8033395 0,101 C0,117.19666 3.75688509,132.474953 10.4539411,146 L43,120.160482 Z" id="Path" fill="#FBBC05" fill-rule="nonzero"></path>
                    <path d="M100.188806,201 C127.434655,201 150.349759,192.11586 167,176.766735 L134.498393,151.740989 C125.45849,157.788877 113.81173,161.334192 100.188806,161.334192 C73.86797,161.334192 51.5415105,143.732749 43.5527584,120 L10,145.818228 C26.6502411,178.560247 60.7495983,201 100.188806,201 Z" id="Path" fill="#34A853" fill-rule="nonzero"></path>
                    <polygon id="Path" points="0 0 201 0 201 201 0 201"></polygon>
                </g>
                <g id="azure-active-directory-seeklogo.com" transform="translate(480.000000, 0.000000)" fill-rule="nonzero">
                    <path d="M121.869659,0 C122.130342,0 122.391025,0.325971369 122.782049,0.912719834 C123.107902,1.43427403 150.544763,34.3573823 183.781815,74.0606951 C217.018866,113.764008 244.129873,146.426339 244,146.621922 C243.934361,146.817505 217.475061,168.527198 185.21557,194.80049 C152.956078,221.073783 125.519218,243.435419 124.280975,244.478527 C122.130342,246.238772 122,246.303967 121.217952,245.521635 C120.761757,245.065275 93.2597263,222.573251 60.0878452,195.517627 C26.9159641,168.462004 -0.129872235,146.165562 0,145.839591 C0.130810524,145.513619 27.3721589,112.981677 60.6743814,73.4739467 C93.9766039,33.9662167 121.217952,1.30388548 121.348294,0.782331287 C121.478635,0.260777096 121.674147,0 121.869659,0 Z" id="path1008" fill="#00BEF2"></path>
                    <path d="M117.315835,206.957974 C113.529564,205.591115 108.959928,201.685805 107.066793,198.040849 C104.716694,193.549743 104.912535,186.520185 107.523756,180.922574 C109.547453,176.75691 109.547453,176.626733 108.241842,175.650405 C107.523756,175.129697 98.8414469,170.313148 89.0493685,165.04098 C79.2572902,159.768811 70.7055417,155.147528 70.118017,154.822086 C69.3346507,154.366466 68.0290403,154.822086 65.6789415,156.319121 C58.0411204,161.13567 50.0768966,160.614962 43.8099665,154.822086 C39.3056104,150.656422 38,147.727439 38,141.739297 C38,135.946421 39.1750494,132.95235 42.8960392,129.242305 C47.9226394,124.230491 54.6465332,122.53819 61.1093049,124.68611 C64.6344531,125.857703 64.6997337,125.857703 66.9192714,124.165402 C69.5304923,122.212747 90.48554,103.141817 100.604021,93.5738076 L107.589037,86.9347807 L105.50006,82.5738512 C101.256826,73.7869038 103.411083,64.0236289 110.853063,58.165664 C114.900455,54.9763275 117.903359,54 123.713326,54 C137.291675,54 146.75735,68.1892929 141.66547,80.8815502 C140.294579,84.3963292 140.294579,84.4614177 141.600189,86.6093382 C142.709958,88.4969047 161.576029,111.212791 171.563949,122.798544 C173.326523,124.816287 175.284939,126.4435 175.937744,126.4435 C176.590549,126.4435 178.810087,125.792615 180.899064,125.011553 C190.625861,121.171331 200.874903,125.467172 204.922296,135.10027 C207.533517,141.283678 205.248698,149.615006 199.699854,154.62682 C195.783023,158.141599 192.91068,159.248104 187.688238,159.248104 C184.032529,159.248104 182.661638,158.857573 178.810087,156.774741 C175.937744,155.212617 173.718206,154.431555 172.804279,154.691909 C171.237546,155.08244 147.149033,171.54983 141.796031,175.845671 C138.532004,178.514299 138.270882,179.490627 139.968176,183.461025 C141.600189,187.366335 141.404347,193.484654 139.576493,197.324876 C137.552797,201.555628 132.526196,205.786381 128.152401,207.088151 C123.713326,208.324832 121.036824,208.324832 117.315835,206.957974 L117.315835,206.957974 Z M118.425604,135.230447 L118.425604,98.1300026 L116.336627,95.2661086 C115.161577,93.7039846 114.051809,92.4022146 113.855967,92.4022146 C113.00732,92.4022146 70.8361028,130.609164 70.8361028,131.390226 C70.8361028,131.585491 71.488908,133.538146 72.2722743,135.620978 C73.0556405,137.768899 73.6431652,140.828058 73.5778847,142.585448 C73.5126042,144.342837 73.5126042,146.295492 73.5126042,146.946377 C73.5778847,148.443413 87.6784775,157.425626 108.829367,169.597175 C114.639333,172.981777 116.663029,173.827927 117.381115,173.242131 C118.229762,172.526157 118.425604,165.301334 118.425604,135.230447 L118.425604,135.230447 Z M136.312467,168.035051 C164.25253,150.526245 169.474972,147.011466 169.801375,145.709696 C169.997216,144.928634 170.258338,141.869474 170.323619,138.810315 L170.51946,133.342881 L156.288307,116.484959 C141.012664,98.4554451 135.398539,92.3371261 134.092929,92.3371261 C133.635965,92.3371261 131.351147,93.6388961 129.001048,95.2010201 L124.692534,98.0649141 L124.888375,135.10027 C125.084217,168.295405 125.345339,173.893016 126.585669,173.893016 C126.71623,173.958104 131.155305,171.289476 136.312467,168.035051 L136.312467,168.035051 Z" id="path923" stroke="#FFFFFF" stroke-width="8.18630628" fill="#FFFFFF" stroke-linecap="round" stroke-linejoin="round"></path>
                </g>
            </g>
        </g>
    </g>
</svg>