<?xml version="1.0" encoding="UTF-8"?>
<svg width="1067px" height="559px" viewBox="0 0 1067 559" version="1.1" xmlns="http://www.w3.org/2000/svg" xmlns:xlink="http://www.w3.org/1999/xlink">
    <!-- Generator: Sketch 58 (84663) - https://sketch.com -->
    <title>stateless api</title>
    <desc>Created with Sketch.</desc>
    <g id="Page-1" stroke="none" stroke-width="1" fill="none" fill-rule="evenodd">
        <g id="Scalability" transform="translate(-202.000000, -1205.000000)" fill-rule="nonzero">
            <g id="stateless-api" transform="translate(202.000000, 1205.000000)">
                <g id="DATA-WAREHOUSE" transform="translate(0.000000, 152.000000)">
                    <g id="Group" transform="translate(0.000000, 84.903974)" fill="#4A555F">
                        <path d="M381.668056,106.736424 L237.245833,106.736424 L237.245833,-2.84217094e-14 L381.668056,-2.84217094e-14 L381.668056,106.736424 Z M245.194444,98.7850993 L373.719444,98.7850993 L373.719444,7.9513245 L245.194444,7.9513245 L245.194444,98.7850993 Z" id="Shape"></path>
                        <path d="M381.668056,277.083444 L237.245833,277.083444 L237.245833,170.34702 L381.668056,170.34702 L381.668056,277.083444 Z M245.194444,269.132119 L373.719444,269.132119 L373.719444,178.298344 L245.194444,178.298344 L245.194444,269.132119 Z" id="Shape-Copy-7"></path>
                        <path d="M165.708333,106.736424 L21.2861111,106.736424 L21.2861111,-2.84217094e-14 L165.708333,-2.84217094e-14 L165.708333,106.736424 Z M29.2347222,98.7850993 L157.759722,98.7850993 L157.759722,7.9513245 L29.2347222,7.9513245 L29.2347222,98.7850993 Z" id="Shape-Copy-4"></path>
                        <path d="M165.708333,277.083444 L21.2861111,277.083444 L21.2861111,170.34702 L165.708333,170.34702 L165.708333,277.083444 Z M29.2347222,269.132119 L157.759722,269.132119 L157.759722,178.298344 L29.2347222,178.298344 L29.2347222,269.132119 Z" id="Shape-Copy-8"></path>
                        <path d="M403.088889,151.47947 L215.959722,151.47947 L215.959722,127.35596 L239.401389,98.7850993 L379.647222,98.7850993 L403.088889,127.35596 L403.088889,151.47947 L403.088889,151.47947 Z M223.908333,143.528146 L395.005556,143.528146 L395.005556,130.320861 L375.875,106.736424 L243.173611,106.736424 L223.908333,130.186093 L223.908333,143.528146 Z" id="Shape"></path>
                        <path d="M403.088889,321.82649 L215.959722,321.82649 L215.959722,297.70298 L239.401389,269.132119 L379.647222,269.132119 L403.088889,297.70298 L403.088889,321.82649 L403.088889,321.82649 Z M223.908333,313.875166 L395.005556,313.875166 L395.005556,300.667881 L375.875,277.083444 L243.173611,277.083444 L223.908333,300.533113 L223.908333,313.875166 Z" id="Shape-Copy-9"></path>
                        <path d="M187.129167,151.47947 L-1.42108547e-14,151.47947 L-1.42108547e-14,127.35596 L23.4416667,98.7850993 L163.6875,98.7850993 L187.129167,127.35596 L187.129167,151.47947 L187.129167,151.47947 Z M7.94861111,143.528146 L179.045833,143.528146 L179.045833,130.320861 L159.915278,106.736424 L27.2138889,106.736424 L7.94861111,130.186093 L7.94861111,143.528146 Z" id="Shape-Copy-5"></path>
                        <path d="M187.129167,321.82649 L-1.42108547e-14,321.82649 L-1.42108547e-14,297.70298 L23.4416667,269.132119 L163.6875,269.132119 L187.129167,297.70298 L187.129167,321.82649 L187.129167,321.82649 Z M7.94861111,313.875166 L179.045833,313.875166 L179.045833,300.667881 L159.915278,277.083444 L27.2138889,277.083444 L7.94861111,300.533113 L7.94861111,313.875166 Z" id="Shape-Copy-10"></path>
                        <rect id="Rectangle" x="219.866667" y="124.795364" width="157.759722" height="7.9513245"></rect>
                        <rect id="Rectangle-Copy-3" x="219.866667" y="295.142384" width="157.759722" height="7.9513245"></rect>
                        <rect id="Rectangle-Copy-2" x="3.90694444" y="124.795364" width="157.759722" height="7.9513245"></rect>
                        <rect id="Rectangle-Copy-4" x="3.90694444" y="295.142384" width="157.759722" height="7.9513245"></rect>
                    </g>
                    <path d="M364.558333,176.142053 L254.086111,176.142053 L254.220833,101.210927 L364.693056,101.210927 L364.558333,176.142053 Z M262.169444,168.190728 L356.609722,168.190728 L356.744444,109.162252 L262.304167,109.162252 L262.169444,168.190728 Z" id="Shape" fill="#4A555F"></path>
                    <path d="M364.558333,346.489073 L254.086111,346.489073 L254.220833,271.557947 L364.693056,271.557947 L364.558333,346.489073 Z M262.169444,338.537748 L356.609722,338.537748 L356.744444,279.509272 L262.304167,279.509272 L262.169444,338.537748 Z" id="Shape-Copy-11" fill="#4A555F"></path>
                    <path d="M148.598611,176.142053 L38.1263889,176.142053 L38.2611111,101.210927 L148.733333,101.210927 L148.598611,176.142053 Z M46.2097222,168.190728 L140.65,168.190728 L140.784722,109.162252 L46.3444444,109.162252 L46.2097222,168.190728 Z" id="Shape-Copy-6" fill="#4A555F"></path>
                    <path d="M148.598611,346.489073 L38.1263889,346.489073 L38.2611111,271.557947 L148.733333,271.557947 L148.598611,346.489073 Z M46.2097222,338.537748 L140.65,338.537748 L140.784722,279.509272 L46.3444444,279.509272 L46.2097222,338.537748 Z" id="Shape-Copy-12" fill="#4A555F"></path>
                    <polygon id="Path" fill="#FFD552" points="271.465278 158.891722 271.6 118.596026 347.448611 118.596026 347.313889 158.891722"></polygon>
                    <polygon id="Path-Copy-3" fill="#FFD552" points="271.465278 329.238742 271.6 288.943046 347.448611 288.943046 347.313889 329.238742"></polygon>
                    <polygon id="Path-Copy-2" fill="#FFD552" points="55.5055556 158.891722 55.6402778 118.596026 131.488889 118.596026 131.354167 158.891722"></polygon>
                    <polygon id="Path-Copy-4" fill="#FFD552" points="55.5055556 329.238742 55.6402778 288.943046 131.488889 288.943046 131.354167 329.238742"></polygon>
                    <g id="Group" transform="translate(440.194444, 84.903974)" fill="#4A555F">
                        <path d="M166.055556,106.736424 L21.6333333,106.736424 L21.6333333,0 L166.055556,0 L166.055556,106.736424 Z M29.5819444,98.7850993 L158.106944,98.7850993 L158.106944,7.9513245 L29.5819444,7.9513245 L29.5819444,98.7850993 L29.5819444,98.7850993 Z" id="Shape"></path>
                        <path d="M166.055556,277.083444 L21.6333333,277.083444 L21.6333333,170.34702 L166.055556,170.34702 L166.055556,277.083444 Z M29.5819444,269.132119 L158.106944,269.132119 L158.106944,178.298344 L29.5819444,178.298344 L29.5819444,269.132119 L29.5819444,269.132119 Z" id="Shape-Copy-13"></path>
                        <path d="M187.476389,151.47947 L0.2125,151.47947 L0.2125,127.35596 L23.6541667,98.7850993 L163.9,98.7850993 L187.341667,127.35596 L187.341667,151.47947 L187.476389,151.47947 Z M8.29583333,143.528146 L179.393056,143.528146 L179.393056,130.320861 L160.127778,106.871192 L27.4263889,106.871192 L8.16111111,130.320861 L8.16111111,143.528146 L8.29583333,143.528146 Z" id="Shape"></path>
                        <path d="M187.476389,321.82649 L0.2125,321.82649 L0.2125,297.70298 L23.6541667,269.132119 L163.9,269.132119 L187.341667,297.70298 L187.341667,321.82649 L187.476389,321.82649 Z M8.29583333,313.875166 L179.393056,313.875166 L179.393056,300.667881 L160.127778,277.218212 L27.4263889,277.218212 L8.16111111,300.667881 L8.16111111,313.875166 L8.29583333,313.875166 Z" id="Shape-Copy-14"></path>
                        <rect id="Rectangle" x="4.25416667" y="124.795364" width="157.759722" height="7.9513245"></rect>
                        <rect id="Rectangle-Copy-5" x="4.25416667" y="295.142384" width="157.759722" height="7.9513245"></rect>
                    </g>
                    <path d="M589.140278,176.142053 L478.668056,176.142053 L478.802778,101.210927 L589.275,101.210927 L589.140278,176.142053 Z M486.616667,168.190728 L581.056944,168.190728 L581.191667,109.162252 L486.751389,109.162252 L486.616667,168.190728 Z" id="Shape" fill="#4A555F"></path>
                    <path d="M589.140278,346.489073 L478.668056,346.489073 L478.802778,271.557947 L589.275,271.557947 L589.140278,346.489073 Z M486.616667,338.537748 L581.056944,338.537748 L581.191667,279.509272 L486.751389,279.509272 L486.616667,338.537748 Z" id="Shape-Copy-15" fill="#4A555F"></path>
                    <polygon id="Path" fill="#FFD552" points="496.047222 158.891722 496.047222 118.596026 571.895833 118.596026 571.895833 158.891722"></polygon>
                    <polygon id="Path-Copy-5" fill="#FFD552" points="496.047222 329.238742 496.047222 288.943046 571.895833 288.943046 571.895833 329.238742"></polygon>
                    <g id="Group" transform="translate(664.180556, 84.903974)" fill="#4A555F">
                        <path d="M166.651389,106.736424 L22.0944444,106.736424 L22.0944444,-2.84217094e-14 L166.516667,-2.84217094e-14 L166.516667,106.736424 L166.651389,106.736424 Z M30.1777778,98.7850993 L158.702778,98.7850993 L158.702778,7.9513245 L30.1777778,7.9513245 L30.1777778,98.7850993 Z" id="Shape"></path>
                        <path d="M166.651389,277.083444 L22.0944444,277.083444 L22.0944444,170.34702 L166.516667,170.34702 L166.516667,277.083444 L166.651389,277.083444 Z M30.1777778,269.132119 L158.702778,269.132119 L158.702778,178.298344 L30.1777778,178.298344 L30.1777778,269.132119 Z" id="Shape-Copy-16"></path>
                        <path d="M381.398611,106.736424 L236.841667,106.736424 L236.841667,-2.84217094e-14 L381.263889,-2.84217094e-14 L381.263889,106.736424 L381.398611,106.736424 Z M244.925,98.7850993 L373.45,98.7850993 L373.45,7.9513245 L244.925,7.9513245 L244.925,98.7850993 Z" id="Shape-Copy"></path>
                        <path d="M381.398611,277.083444 L236.841667,277.083444 L236.841667,170.34702 L381.263889,170.34702 L381.263889,277.083444 L381.398611,277.083444 Z M244.925,269.132119 L373.45,269.132119 L373.45,178.298344 L244.925,178.298344 L244.925,269.132119 Z" id="Shape-Copy-17"></path>
                        <path d="M187.9375,151.47947 L0.808333333,151.47947 L0.808333333,127.35596 L24.25,98.7850993 L164.495833,98.7850993 L187.9375,127.35596 L187.9375,151.47947 Z M8.75694444,143.528146 L179.854167,143.528146 L179.854167,130.320861 L160.588889,106.871192 L27.8875,106.871192 L8.62222222,130.320861 L8.62222222,143.528146 L8.75694444,143.528146 Z" id="Shape"></path>
                        <path d="M187.9375,321.82649 L0.808333333,321.82649 L0.808333333,297.70298 L24.25,269.132119 L164.495833,269.132119 L187.9375,297.70298 L187.9375,321.82649 Z M8.75694444,313.875166 L179.854167,313.875166 L179.854167,300.667881 L160.588889,277.218212 L27.8875,277.218212 L8.62222222,300.667881 L8.62222222,313.875166 L8.75694444,313.875166 Z" id="Shape-Copy-18"></path>
                        <path d="M402.684722,151.47947 L215.555556,151.47947 L215.555556,127.35596 L238.997222,98.7850993 L379.243056,98.7850993 L402.684722,127.35596 L402.684722,151.47947 Z M223.504167,143.528146 L394.601389,143.528146 L394.601389,130.320861 L375.336111,106.871192 L242.634722,106.871192 L223.369444,130.320861 L223.369444,143.528146 L223.504167,143.528146 Z" id="Shape-Copy-2"></path>
                        <path d="M402.684722,321.82649 L215.555556,321.82649 L215.555556,297.70298 L238.997222,269.132119 L379.243056,269.132119 L402.684722,297.70298 L402.684722,321.82649 Z M223.504167,313.875166 L394.601389,313.875166 L394.601389,300.667881 L375.336111,277.218212 L242.634722,277.218212 L223.369444,300.667881 L223.369444,313.875166 L223.504167,313.875166 Z" id="Shape-Copy-19"></path>
                        <rect id="Rectangle" x="4.85" y="124.795364" width="157.759722" height="7.9513245"></rect>
                        <rect id="Rectangle-Copy-6" x="4.85" y="295.142384" width="157.759722" height="7.9513245"></rect>
                        <rect id="Rectangle-Copy" x="219.597222" y="124.795364" width="157.759722" height="7.9513245"></rect>
                        <rect id="Rectangle-Copy-7" x="219.597222" y="295.142384" width="157.759722" height="7.9513245"></rect>
                    </g>
                    <path d="M813.722222,176.142053 L703.25,176.142053 L703.384722,101.210927 L813.856944,101.210927 L813.722222,176.142053 Z M711.198611,168.190728 L805.638889,168.190728 L805.773611,109.162252 L711.333333,109.162252 L711.198611,168.190728 Z" id="Shape" fill="#4A555F"></path>
                    <path d="M813.722222,346.489073 L703.25,346.489073 L703.384722,271.557947 L813.856944,271.557947 L813.722222,346.489073 Z M711.198611,338.537748 L805.638889,338.537748 L805.773611,279.509272 L711.333333,279.509272 L711.198611,338.537748 Z" id="Shape-Copy-20" fill="#4A555F"></path>
                    <path d="M1028.46944,176.142053 L917.997222,176.142053 L918.131944,101.210927 L1028.60417,101.210927 L1028.46944,176.142053 Z M925.945833,168.190728 L1020.38611,168.190728 L1020.52083,109.162252 L926.080556,109.162252 L925.945833,168.190728 Z" id="Shape-Copy-3" fill="#4A555F"></path>
                    <path d="M1028.46944,346.489073 L917.997222,346.489073 L918.131944,271.557947 L1028.60417,271.557947 L1028.46944,346.489073 Z M925.945833,338.537748 L1020.38611,338.537748 L1020.52083,279.509272 L926.080556,279.509272 L925.945833,338.537748 Z" id="Shape-Copy-21" fill="#4A555F"></path>
                    <polygon id="Path" fill="#FFD552" points="720.494444 158.891722 720.629167 118.596026 796.477778 118.596026 796.343056 158.891722"></polygon>
                    <polygon id="Path-Copy-6" fill="#FFD552" points="720.494444 329.238742 720.629167 288.943046 796.477778 288.943046 796.343056 329.238742"></polygon>
                    <polygon id="Path-Copy" fill="#FFD552" points="935.241667 158.891722 935.376389 118.596026 1011.225 118.596026 1011.09028 158.891722"></polygon>
                    <polygon id="Path-Copy-7" fill="#FFD552" points="935.241667 329.238742 935.376389 288.943046 1011.225 288.943046 1011.09028 329.238742"></polygon>
                    <path d="M532.556944,46.7645695 L529.593056,46.2254967 L530.940278,38.813245 L533.904167,38.813245 L532.556944,46.7645695 Z M521.779167,44.8778146 L513.830556,43.5301325 L515.177778,35.5788079 L523.126389,36.9264901 L521.779167,44.8778146 Z M506.016667,42.1824503 L498.068056,40.8347682 L499.415278,32.8834437 L507.363889,34.2311258 L506.016667,42.1824503 Z M490.254167,39.4870861 L482.305556,38.139404 L483.652778,30.1880795 L491.601389,31.5357616 L490.254167,39.4870861 Z M474.356944,36.7917219 L466.408333,35.4440397 L467.755556,27.4927152 L475.704167,28.8403974 L474.356944,36.7917219 Z M458.594444,34.2311258 L450.645833,32.8834437 L451.993056,24.9321192 L459.941667,26.2798013 L458.594444,34.2311258 Z M442.831944,31.5357616 L434.883333,30.1880795 L436.230556,22.236755 L444.179167,23.5844371 L442.831944,31.5357616 Z M427.069444,28.8403974 L419.120833,27.4927152 L420.468056,19.5413907 L428.416667,20.8890728 L427.069444,28.8403974 Z M411.306944,26.1450331 L403.358333,24.797351 L404.705556,16.8460265 L412.654167,18.1937086 L411.306944,26.1450331 Z M395.544444,23.4496689 L387.595833,22.1019868 L388.943056,14.1506623 L396.891667,15.4983444 L395.544444,23.4496689 Z M379.781944,20.7543046 L371.833333,19.4066225 L373.180556,11.455298 L381.129167,12.8029801 L379.781944,20.7543046 Z M364.019444,18.0589404 L356.070833,16.7112583 L357.418056,8.75993377 L365.366667,10.1076159 L364.019444,18.0589404 Z M348.256944,15.3635762 L340.308333,14.015894 L341.655556,6.06456954 L349.604167,7.41225166 L348.256944,15.3635762 Z M332.494444,12.6682119 L324.545833,11.3205298 L325.893056,3.3692053 L333.841667,4.71688742 L332.494444,12.6682119 Z M316.731944,9.97284768 L308.783333,8.62516556 L310.130556,0.67384106 L318.079167,2.02152318 L316.731944,9.97284768 Z" id="Shape" fill="#4A555F"></path>
                    <path d="M533.904167,46.7645695 L532.556944,38.9480132 L535.520833,38.9480132 L536.868056,46.3602649 L533.904167,46.7645695 Z M544.816667,44.8778146 L543.469444,36.9264901 L551.418056,35.5788079 L552.765278,43.5301325 L544.816667,44.8778146 Z M560.579167,42.1824503 L559.231944,34.2311258 L567.180556,32.8834437 L568.527778,40.8347682 L560.579167,42.1824503 Z M576.341667,39.4870861 L574.994444,31.5357616 L582.943056,30.1880795 L584.290278,38.139404 L576.341667,39.4870861 Z M592.104167,36.7917219 L590.756944,28.8403974 L598.705556,27.4927152 L600.052778,35.4440397 L592.104167,36.7917219 Z M607.866667,34.2311258 L606.519444,26.2798013 L614.468056,24.9321192 L615.815278,32.8834437 L607.866667,34.2311258 Z M623.629167,31.5357616 L622.281944,23.5844371 L630.230556,22.236755 L631.577778,30.1880795 L623.629167,31.5357616 Z M639.391667,28.8403974 L638.044444,20.8890728 L645.993056,19.5413907 L647.340278,27.4927152 L639.391667,28.8403974 Z M655.154167,26.1450331 L653.806944,18.1937086 L661.755556,16.8460265 L663.102778,24.797351 L655.154167,26.1450331 Z M670.916667,23.4496689 L669.569444,15.4983444 L677.518056,14.1506623 L678.865278,22.1019868 L670.916667,23.4496689 Z M686.813889,20.7543046 L685.466667,12.8029801 L693.415278,11.455298 L694.7625,19.4066225 L686.813889,20.7543046 Z M702.576389,18.0589404 L701.229167,10.1076159 L709.177778,8.75993377 L710.525,16.7112583 L702.576389,18.0589404 Z M718.338889,15.3635762 L716.991667,7.41225166 L724.940278,6.06456954 L726.2875,14.015894 L718.338889,15.3635762 Z M734.101389,12.6682119 L732.754167,4.71688742 L740.702778,3.3692053 L742.05,11.3205298 L734.101389,12.6682119 Z M749.863889,9.97284768 L748.516667,2.02152318 L756.465278,0.67384106 L757.8125,8.62516556 L749.863889,9.97284768 Z" id="Shape" fill="#4A555F"></path>
                    <path d="M537.272222,62.936755 L529.323611,62.936755 L529.323611,54.9854305 L537.272222,54.9854305 L537.272222,62.936755 Z M537.272222,46.8993377 L529.323611,46.8993377 L529.323611,38.9480132 L537.272222,38.9480132 L537.272222,46.8993377 Z M537.272222,30.8619205 L529.323611,30.8619205 L529.323611,22.910596 L537.272222,22.910596 L537.272222,30.8619205 Z M537.272222,14.9592715 L529.323611,14.9592715 L529.323611,7.00794702 L537.272222,7.00794702 L537.272222,14.9592715 Z" id="Shape" fill="#4A555F"></path>
                </g>
                <g id="Group" transform="translate(117.000000, 0.000000)">
                    <path d="M241,137 L0,137 L0,83.6585233 L23.8469305,65.8137255 L217.153069,65.8137255 L241,83.6585233 L241,137 Z M5.74273021,131.212498 L235.159935,131.212498 L235.159935,86.4558159 L215.206381,71.5047691 L25.7936187,71.5047691 L5.84006462,86.4558159 L5.84006462,131.212498 L5.74273021,131.212498 Z" id="Shape" fill="#4A555F"></path>
                    <polygon id="Path" fill="#F68F6F" points="213.353079 77.9019608 122.519553 77.9019608 122.519553 124.911765 228.882682 124.911765 228.882682 89.6544118"></polygon>
                    <path d="M241,71.1862745 L0,71.1862745 L0,17.8447978 L23.8469305,0 L217.153069,0 L241,17.8447978 L241,71.1862745 Z M5.74273021,65.3987725 L235.159935,65.3987725 L235.159935,20.6420904 L215.206381,5.69104363 L25.7936187,5.69104363 L5.84006462,20.6420904 L5.84006462,65.3987725 L5.74273021,65.3987725 Z" id="Shape" fill="#4A555F"></path>
                    <polygon id="Path" fill="#F68F6F" points="213.353079 12.0882353 122.519553 12.0882353 122.519553 59.0980392 228.882682 59.0980392 228.882682 23.8652217"></polygon>
                    <path d="M37.698324,45.6666667 C32.5488107,45.6666667 28.273743,41.4018597 28.273743,36.2647059 C28.273743,31.1275521 32.5488107,26.8627451 37.698324,26.8627451 C42.8478374,26.8627451 47.122905,31.1275521 47.122905,36.2647059 C47.122905,41.4018597 42.8478374,45.6666667 37.698324,45.6666667 Z M37.698324,32.5814635 C35.6579508,32.5814635 34.1033808,34.2292298 34.1033808,36.1677785 C34.1033808,38.1063271 35.7551114,39.7540934 37.698324,39.7540934 C39.7386972,39.7540934 41.2932673,38.1063271 41.2932673,36.1677785 C41.2932673,34.2292298 39.6415366,32.5814635 37.698324,32.5814635 Z" id="Shape" fill="#4A555F"></path>
                    <path d="M37.698324,111.480392 C32.5488107,111.480392 28.273743,107.215585 28.273743,102.078431 C28.273743,96.9412775 32.5488107,92.6764706 37.698324,92.6764706 C42.8478374,92.6764706 47.122905,96.9412775 47.122905,102.078431 C47.122905,107.215585 42.8478374,111.480392 37.698324,111.480392 Z M37.698324,98.395189 C35.6579508,98.395189 34.1033808,100.042955 34.1033808,101.981504 C34.1033808,104.01698 35.7551114,105.567819 37.698324,105.567819 C39.7386972,105.567819 41.2932673,103.920053 41.2932673,101.981504 C41.2932673,100.042955 39.6415366,98.395189 37.698324,98.395189 Z" id="Shape" fill="#4A555F"></path>
                    <path d="M204.648045,45.6666667 C199.498531,45.6666667 195.223464,41.4018597 195.223464,36.2647059 C195.223464,31.1275521 199.498531,26.8627451 204.648045,26.8627451 C209.797558,26.8627451 214.072626,31.1275521 214.072626,36.2647059 C214.072626,41.4018597 209.894719,45.6666667 204.648045,45.6666667 Z M204.648045,32.5814635 C202.607671,32.5814635 201.053101,34.2292298 201.053101,36.1677785 C201.053101,38.1063271 202.704832,39.7540934 204.648045,39.7540934 C206.688418,39.7540934 208.242988,38.1063271 208.242988,36.1677785 C208.242988,34.2292298 206.688418,32.5814635 204.648045,32.5814635 Z" id="Shape" fill="#4A555F"></path>
                    <path d="M204.648045,111.480392 C199.498531,111.480392 195.223464,107.215585 195.223464,102.078431 C195.223464,96.9412775 199.498531,92.6764706 204.648045,92.6764706 C209.797558,92.6764706 214.072626,96.9412775 214.072626,102.078431 C214.072626,107.215585 209.894719,111.480392 204.648045,111.480392 Z M204.648045,98.395189 C202.607671,98.395189 201.053101,100.042955 201.053101,101.981504 C201.053101,104.01698 202.704832,105.567819 204.648045,105.567819 C206.688418,105.567819 208.242988,103.920053 208.242988,101.981504 C208.340149,100.042955 206.688418,98.395189 204.648045,98.395189 Z" id="Shape" fill="#4A555F"></path>
                </g>
                <g id="Group-Copy" transform="translate(414.000000, 0.000000)">
                    <path d="M241,137 L0,137 L0,83.6585233 L23.8469305,65.8137255 L217.153069,65.8137255 L241,83.6585233 L241,137 Z M5.74273021,131.212498 L235.159935,131.212498 L235.159935,86.4558159 L215.206381,71.5047691 L25.7936187,71.5047691 L5.84006462,86.4558159 L5.84006462,131.212498 L5.74273021,131.212498 Z" id="Shape" fill="#4A555F"></path>
                    <polygon id="Path" fill="#F68F6F" points="213.353079 77.9019608 122.519553 77.9019608 122.519553 124.911765 228.882682 124.911765 228.882682 89.6544118"></polygon>
                    <path d="M241,71.1862745 L0,71.1862745 L0,17.8447978 L23.8469305,0 L217.153069,0 L241,17.8447978 L241,71.1862745 Z M5.74273021,65.3987725 L235.159935,65.3987725 L235.159935,20.6420904 L215.206381,5.69104363 L25.7936187,5.69104363 L5.84006462,20.6420904 L5.84006462,65.3987725 L5.74273021,65.3987725 Z" id="Shape" fill="#4A555F"></path>
                    <polygon id="Path" fill="#F68F6F" points="213.353079 12.0882353 122.519553 12.0882353 122.519553 59.0980392 228.882682 59.0980392 228.882682 23.8652217"></polygon>
                    <path d="M37.698324,45.6666667 C32.5488107,45.6666667 28.273743,41.4018597 28.273743,36.2647059 C28.273743,31.1275521 32.5488107,26.8627451 37.698324,26.8627451 C42.8478374,26.8627451 47.122905,31.1275521 47.122905,36.2647059 C47.122905,41.4018597 42.8478374,45.6666667 37.698324,45.6666667 Z M37.698324,32.5814635 C35.6579508,32.5814635 34.1033808,34.2292298 34.1033808,36.1677785 C34.1033808,38.1063271 35.7551114,39.7540934 37.698324,39.7540934 C39.7386972,39.7540934 41.2932673,38.1063271 41.2932673,36.1677785 C41.2932673,34.2292298 39.6415366,32.5814635 37.698324,32.5814635 Z" id="Shape" fill="#4A555F"></path>
                    <path d="M37.698324,111.480392 C32.5488107,111.480392 28.273743,107.215585 28.273743,102.078431 C28.273743,96.9412775 32.5488107,92.6764706 37.698324,92.6764706 C42.8478374,92.6764706 47.122905,96.9412775 47.122905,102.078431 C47.122905,107.215585 42.8478374,111.480392 37.698324,111.480392 Z M37.698324,98.395189 C35.6579508,98.395189 34.1033808,100.042955 34.1033808,101.981504 C34.1033808,104.01698 35.7551114,105.567819 37.698324,105.567819 C39.7386972,105.567819 41.2932673,103.920053 41.2932673,101.981504 C41.2932673,100.042955 39.6415366,98.395189 37.698324,98.395189 Z" id="Shape" fill="#4A555F"></path>
                    <path d="M204.648045,45.6666667 C199.498531,45.6666667 195.223464,41.4018597 195.223464,36.2647059 C195.223464,31.1275521 199.498531,26.8627451 204.648045,26.8627451 C209.797558,26.8627451 214.072626,31.1275521 214.072626,36.2647059 C214.072626,41.4018597 209.894719,45.6666667 204.648045,45.6666667 Z M204.648045,32.5814635 C202.607671,32.5814635 201.053101,34.2292298 201.053101,36.1677785 C201.053101,38.1063271 202.704832,39.7540934 204.648045,39.7540934 C206.688418,39.7540934 208.242988,38.1063271 208.242988,36.1677785 C208.242988,34.2292298 206.688418,32.5814635 204.648045,32.5814635 Z" id="Shape" fill="#4A555F"></path>
                    <path d="M204.648045,111.480392 C199.498531,111.480392 195.223464,107.215585 195.223464,102.078431 C195.223464,96.9412775 199.498531,92.6764706 204.648045,92.6764706 C209.797558,92.6764706 214.072626,96.9412775 214.072626,102.078431 C214.072626,107.215585 209.894719,111.480392 204.648045,111.480392 Z M204.648045,98.395189 C202.607671,98.395189 201.053101,100.042955 201.053101,101.981504 C201.053101,104.01698 202.704832,105.567819 204.648045,105.567819 C206.688418,105.567819 208.242988,103.920053 208.242988,101.981504 C208.340149,100.042955 206.688418,98.395189 204.648045,98.395189 Z" id="Shape" fill="#4A555F"></path>
                </g>
                <g id="Group-Copy-2" transform="translate(710.000000, 0.000000)">
                    <path d="M241,137 L0,137 L0,83.6585233 L23.8469305,65.8137255 L217.153069,65.8137255 L241,83.6585233 L241,137 Z M5.74273021,131.212498 L235.159935,131.212498 L235.159935,86.4558159 L215.206381,71.5047691 L25.7936187,71.5047691 L5.84006462,86.4558159 L5.84006462,131.212498 L5.74273021,131.212498 Z" id="Shape" fill="#4A555F"></path>
                    <polygon id="Path" fill="#F68F6F" points="213.353079 77.9019608 122.519553 77.9019608 122.519553 124.911765 228.882682 124.911765 228.882682 89.6544118"></polygon>
                    <path d="M241,71.1862745 L0,71.1862745 L0,17.8447978 L23.8469305,0 L217.153069,0 L241,17.8447978 L241,71.1862745 Z M5.74273021,65.3987725 L235.159935,65.3987725 L235.159935,20.6420904 L215.206381,5.69104363 L25.7936187,5.69104363 L5.84006462,20.6420904 L5.84006462,65.3987725 L5.74273021,65.3987725 Z" id="Shape" fill="#4A555F"></path>
                    <polygon id="Path" fill="#F68F6F" points="213.353079 12.0882353 122.519553 12.0882353 122.519553 59.0980392 228.882682 59.0980392 228.882682 23.8652217"></polygon>
                    <path d="M37.698324,45.6666667 C32.5488107,45.6666667 28.273743,41.4018597 28.273743,36.2647059 C28.273743,31.1275521 32.5488107,26.8627451 37.698324,26.8627451 C42.8478374,26.8627451 47.122905,31.1275521 47.122905,36.2647059 C47.122905,41.4018597 42.8478374,45.6666667 37.698324,45.6666667 Z M37.698324,32.5814635 C35.6579508,32.5814635 34.1033808,34.2292298 34.1033808,36.1677785 C34.1033808,38.1063271 35.7551114,39.7540934 37.698324,39.7540934 C39.7386972,39.7540934 41.2932673,38.1063271 41.2932673,36.1677785 C41.2932673,34.2292298 39.6415366,32.5814635 37.698324,32.5814635 Z" id="Shape" fill="#4A555F"></path>
                    <path d="M37.698324,111.480392 C32.5488107,111.480392 28.273743,107.215585 28.273743,102.078431 C28.273743,96.9412775 32.5488107,92.6764706 37.698324,92.6764706 C42.8478374,92.6764706 47.122905,96.9412775 47.122905,102.078431 C47.122905,107.215585 42.8478374,111.480392 37.698324,111.480392 Z M37.698324,98.395189 C35.6579508,98.395189 34.1033808,100.042955 34.1033808,101.981504 C34.1033808,104.01698 35.7551114,105.567819 37.698324,105.567819 C39.7386972,105.567819 41.2932673,103.920053 41.2932673,101.981504 C41.2932673,100.042955 39.6415366,98.395189 37.698324,98.395189 Z" id="Shape" fill="#4A555F"></path>
                    <path d="M204.648045,45.6666667 C199.498531,45.6666667 195.223464,41.4018597 195.223464,36.2647059 C195.223464,31.1275521 199.498531,26.8627451 204.648045,26.8627451 C209.797558,26.8627451 214.072626,31.1275521 214.072626,36.2647059 C214.072626,41.4018597 209.894719,45.6666667 204.648045,45.6666667 Z M204.648045,32.5814635 C202.607671,32.5814635 201.053101,34.2292298 201.053101,36.1677785 C201.053101,38.1063271 202.704832,39.7540934 204.648045,39.7540934 C206.688418,39.7540934 208.242988,38.1063271 208.242988,36.1677785 C208.242988,34.2292298 206.688418,32.5814635 204.648045,32.5814635 Z" id="Shape" fill="#4A555F"></path>
                    <path d="M204.648045,111.480392 C199.498531,111.480392 195.223464,107.215585 195.223464,102.078431 C195.223464,96.9412775 199.498531,92.6764706 204.648045,92.6764706 C209.797558,92.6764706 214.072626,96.9412775 214.072626,102.078431 C214.072626,107.215585 209.894719,111.480392 204.648045,111.480392 Z M204.648045,98.395189 C202.607671,98.395189 201.053101,100.042955 201.053101,101.981504 C201.053101,104.01698 202.704832,105.567819 204.648045,105.567819 C206.688418,105.567819 208.242988,103.920053 208.242988,101.981504 C208.340149,100.042955 206.688418,98.395189 204.648045,98.395189 Z" id="Shape" fill="#4A555F"></path>
                </g>
            </g>
        </g>
    </g>
</svg>