<?xml version="1.0" encoding="UTF-8"?>
<svg width="573px" height="479px" viewBox="0 0 573 479" version="1.1" xmlns="http://www.w3.org/2000/svg" xmlns:xlink="http://www.w3.org/1999/xlink">
    <!-- Generator: Sketch 58 (84663) - https://sketch.com -->
    <title>user actions</title>
    <desc>Created with Sketch.</desc>
    <g id="Page-1" stroke="none" stroke-width="1" fill="none" fill-rule="evenodd">
        <g id="built-for-devs" transform="translate(-253.000000, -5062.000000)" fill-rule="nonzero">
            <g id="user-actions" transform="translate(253.000000, 5062.000000)">
                <g id="DATA-COLLECTION" transform="translate(25.000000, 0.000000)">
                    <g id="Group">
                        <g fill="#4A555F" id="Shape">
                            <path d="M42.4,54.3 C27.5,54.3 15.3,42.2 15.3,27.2 C15.3,12.3 27.4,0.1 42.4,0.1 C57.4,0.1 69.5,12.3 69.5,27.2 C69.5,42.2 57.4,54.3 42.4,54.3 Z M42.4,6 C30.7,6 21.2,15.5 21.2,27.2 C21.2,38.9 30.7,48.4 42.4,48.4 C54.1,48.4 63.6,38.9 63.6,27.2 C63.6,15.5 54.1,6 42.4,6 Z"></path>
                            <path d="M84.8,107.4 L0,107.4 L0,80.1 C0,63.8 9.5,48.8 24.2,41.8 L26.1,40.9 L27.6,42.4 C31.6,46.3 36.9,48.5 42.5,48.5 C48.1,48.5 53.4,46.3 57.4,42.4 L58.9,40.9 L60.8,41.8 C75.5,48.8 85,63.8 85,80.1 L85,107.4 L84.8,107.4 Z M5.9,101.5 L79,101.5 L79,80.1 C79,66.7 71.6,54.3 59.9,48 C55,52.1 48.9,54.4 42.5,54.4 C36.1,54.4 29.9,52.1 25,48 C13.3,54.3 5.9,66.7 5.9,80.1 L5.9,101.5 Z"></path>
                        </g>
                        <g>
                            <path d="M42.4,54.3 C27.5,54.3 15.3,42.2 15.3,27.2 C15.3,12.3 27.4,0.1 42.4,0.1 C57.4,0.1 69.5,12.3 69.5,27.2 C69.5,42.2 57.4,54.3 42.4,54.3 Z M42.4,6 C30.7,6 21.2,15.5 21.2,27.2 C21.2,38.9 30.7,48.4 42.4,48.4 C54.1,48.4 63.6,38.9 63.6,27.2 C63.6,15.5 54.1,6 42.4,6 Z" id="Shape" fill="#4A555F"></path>
                            <path d="M42.4,42.4 C34,42.4 27.2,35.6 27.2,27.2 C27.2,18.8 34,12 42.4,12 C50.8,12 57.6,18.8 57.6,27.2 C57.6,35.6 50.8,42.4 42.4,42.4 Z" id="Path" fill="#F68F6F"></path>
                            <path d="M84.8,107.4 L0,107.4 L0,80.1 C0,63.8 9.5,48.8 24.2,41.8 L26.1,40.9 L27.6,42.4 C31.6,46.3 36.9,48.5 42.5,48.5 C48.1,48.5 53.4,46.3 57.4,42.4 L58.9,40.9 L60.8,41.8 C75.5,48.8 85,63.8 85,80.1 L85,107.4 L84.8,107.4 Z M5.9,101.5 L79,101.5 L79,80.1 C79,66.7 71.6,54.3 59.9,48 C55,52.1 48.9,54.4 42.5,54.4 C36.1,54.4 29.9,52.1 25,48 C13.3,54.3 5.9,66.7 5.9,80.1 L5.9,101.5 Z" id="Shape" fill="#4A555F"></path>
                            <path d="M11.9,95.5 L11.9,80.1 C11.9,70.2 16.8,60.9 24.7,55.3 C29.9,58.6 36,60.4 42.4,60.4 C48.8,60.4 54.9,58.6 60.1,55.3 C68,61 72.9,70.2 72.9,80.1 L72.9,95.5 L11.9,95.5 Z" id="Path" fill="#F68F6F"></path>
                        </g>
                        <g transform="translate(2.000000, 77.000000)" fill="#FFFFFF">
                            <circle id="Oval" cx="40.4" cy="24.7" r="24.1"></circle>
                            <path d="M79.9,77.5 L79.9,101.8 L0.9,101.8 L0.9,77.5 C0.9,61.8 10.1,48.2 23.4,41.8 C27.7,46.1 33.7,48.8 40.3,48.8 C46.9,48.8 52.9,46.1 57.2,41.8 C70.7,48.2 79.9,61.8 79.9,77.5 Z" id="Path"></path>
                        </g>
                        <g transform="translate(2.000000, 77.000000)" fill="#FFFFFF">
                            <circle id="Oval" cx="40.4" cy="24.7" r="24.1"></circle>
                            <path d="M40.4,39.9 C32,39.9 25.2,33.1 25.2,24.7 C25.2,16.3 32,9.5 40.4,9.5 C48.8,9.5 55.6,16.3 55.6,24.7 C55.6,33.1 48.8,39.9 40.4,39.9 Z" id="Path"></path>
                            <path d="M79.9,77.5 L79.9,101.8 L0.9,101.8 L0.9,77.5 C0.9,61.8 10.1,48.2 23.4,41.8 C27.7,46.1 33.7,48.8 40.3,48.8 C46.9,48.8 52.9,46.1 57.2,41.8 C70.7,48.2 79.9,61.8 79.9,77.5 Z" id="Path"></path>
                            <path d="M9.9,92.9 L9.9,77.5 C9.9,67.6 14.8,58.3 22.7,52.7 C27.9,56 34,57.8 40.4,57.8 C46.8,57.8 52.9,56 58.1,52.7 C66,58.4 70.9,67.6 70.9,77.5 L70.9,92.9 L9.9,92.9 Z" id="Path"></path>
                        </g>
                        <g transform="translate(0.000000, 74.000000)" fill="#4A555F" id="Shape">
                            <path d="M42.4,54.8 C27.5,54.8 15.3,42.7 15.3,27.7 C15.3,12.8 27.4,0.6 42.4,0.6 C57.4,0.6 69.5,12.8 69.5,27.7 C69.5,42.6 57.4,54.8 42.4,54.8 Z M42.4,6.5 C30.7,6.5 21.2,16 21.2,27.7 C21.2,39.4 30.7,48.9 42.4,48.9 C54.1,48.9 63.6,39.4 63.6,27.7 C63.6,16 54.1,6.5 42.4,6.5 Z"></path>
                            <path d="M84.8,107.8 L0,107.8 L0,80.5 C0,64.2 9.5,49.2 24.2,42.2 L26.1,41.3 L27.6,42.8 C31.6,46.7 36.9,48.9 42.5,48.9 C48.1,48.9 53.4,46.7 57.4,42.8 L58.9,41.3 L60.8,42.2 C75.5,49.2 85,64.2 85,80.5 L85,107.8 L84.8,107.8 Z M5.9,101.9 L79,101.9 L79,80.5 C79,67.1 71.6,54.7 59.9,48.4 C55,52.5 48.9,54.8 42.5,54.8 C36,54.8 29.9,52.6 25.1,48.4 C13.4,54.7 6,67.1 6,80.5 L6,101.9 L5.9,101.9 Z"></path>
                        </g>
                        <g transform="translate(0.000000, 74.000000)">
                            <path d="M42.4,54.8 C27.5,54.8 15.3,42.7 15.3,27.7 C15.3,12.8 27.4,0.6 42.4,0.6 C57.4,0.6 69.5,12.8 69.5,27.7 C69.5,42.6 57.4,54.8 42.4,54.8 Z M42.4,6.5 C30.7,6.5 21.2,16 21.2,27.7 C21.2,39.4 30.7,48.9 42.4,48.9 C54.1,48.9 63.6,39.4 63.6,27.7 C63.6,16 54.1,6.5 42.4,6.5 Z" id="Shape" fill="#4A555F"></path>
                            <path d="M42.4,42.9 C34,42.9 27.2,36.1 27.2,27.7 C27.2,19.3 34,12.5 42.4,12.5 C50.8,12.5 57.6,19.3 57.6,27.7 C57.6,36.1 50.8,42.9 42.4,42.9 Z" id="Path" fill="#FFD552"></path>
                            <path d="M84.8,107.8 L0,107.8 L0,80.5 C0,64.2 9.5,49.2 24.2,42.2 L26.1,41.3 L27.6,42.8 C31.6,46.7 36.9,48.9 42.5,48.9 C48.1,48.9 53.4,46.7 57.4,42.8 L58.9,41.3 L60.8,42.2 C75.5,49.2 85,64.2 85,80.5 L85,107.8 L84.8,107.8 Z M5.9,101.9 L79,101.9 L79,80.5 C79,67.1 71.6,54.7 59.9,48.4 C55,52.5 48.9,54.8 42.5,54.8 C36,54.8 29.9,52.6 25.1,48.4 C13.4,54.7 6,67.1 6,80.5 L6,101.9 L5.9,101.9 Z" id="Shape" fill="#4A555F"></path>
                            <path d="M11.9,95.9 L11.9,80.5 C11.9,70.6 16.8,61.3 24.7,55.7 C29.9,59 36,60.8 42.4,60.8 C48.8,60.8 54.9,59 60.1,55.7 C68,61.4 72.9,70.6 72.9,80.5 L72.9,95.9 L11.9,95.9 Z" id="Path" fill="#FFD552"></path>
                        </g>
                        <g transform="translate(2.000000, 152.000000)" fill="#FFFFFF">
                            <circle id="Oval" cx="40.4" cy="24.1" r="24.1"></circle>
                            <path d="M40.4,39.3 C32,39.3 25.2,32.5 25.2,24.1 C25.2,15.7 32,8.9 40.4,8.9 C48.8,8.9 55.6,15.7 55.6,24.1 C55.6,32.5 48.8,39.3 40.4,39.3 Z" id="Path"></path>
                            <path d="M79.9,77 L79.9,101.3 L0.9,101.3 L0.9,77 C0.9,61.3 10.1,47.7 23.4,41.3 C27.7,45.6 33.7,48.3 40.3,48.3 C46.9,48.3 52.9,45.6 57.2,41.3 C70.7,47.7 79.9,61.2 79.9,77 Z" id="Path"></path>
                            <path d="M9.9,92.4 L9.9,77 C9.9,67.1 14.8,57.8 22.7,52.2 C27.9,55.5 34,57.3 40.4,57.3 C46.8,57.3 52.9,55.5 58.1,52.2 C66,57.9 70.9,67.1 70.9,77 L70.9,92.4 L9.9,92.4 Z" id="Path"></path>
                        </g>
                        <g transform="translate(0.000000, 149.000000)" fill="#4A555F" id="Shape">
                            <path d="M42.4,54.2 C27.5,54.2 15.3,42 15.3,27.1 C15.3,12.2 27.5,0 42.4,0 C57.3,0 69.5,12.1 69.5,27.1 C69.5,42.1 57.4,54.2 42.4,54.2 Z M42.4,5.9 C30.7,5.9 21.2,15.4 21.2,27.1 C21.2,38.8 30.7,48.3 42.4,48.3 C54.1,48.3 63.6,38.8 63.6,27.1 C63.6,15.4 54.1,5.9 42.4,5.9 Z"></path>
                            <path d="M84.8,107.3 L0,107.3 L0,80 C0,63.7 9.5,48.7 24.2,41.7 L26.1,40.8 L27.6,42.3 C31.6,46.2 36.9,48.4 42.5,48.4 C48.1,48.4 53.4,46.2 57.4,42.3 L58.9,40.8 L60.8,41.7 C75.5,48.7 85,63.7 85,80 L85,107.3 L84.8,107.3 Z M5.9,101.4 L79,101.4 L79,80 C79,66.6 71.6,54.2 59.9,47.9 C55,52 48.9,54.3 42.5,54.3 C36.1,54.3 29.9,52 25,47.9 C13.3,54.2 5.9,66.6 5.9,80 L5.9,101.4 Z"></path>
                        </g>
                        <g transform="translate(0.000000, 149.000000)">
                            <path d="M42.4,54.2 C27.5,54.2 15.3,42 15.3,27.1 C15.3,12.2 27.5,0 42.4,0 C57.3,0 69.5,12.1 69.5,27.1 C69.5,42.1 57.4,54.2 42.4,54.2 Z M42.4,5.9 C30.7,5.9 21.2,15.4 21.2,27.1 C21.2,38.8 30.7,48.3 42.4,48.3 C54.1,48.3 63.6,38.8 63.6,27.1 C63.6,15.4 54.1,5.9 42.4,5.9 Z" id="Shape" fill="#4A555F"></path>
                            <path d="M42.4,42.3 C34,42.3 27.2,35.5 27.2,27.1 C27.2,18.7 34,11.9 42.4,11.9 C50.8,11.9 57.6,18.7 57.6,27.1 C57.6,35.5 50.8,42.3 42.4,42.3 Z" id="Path" fill="#71CDE1"></path>
                            <path d="M84.8,107.3 L0,107.3 L0,80 C0,63.7 9.5,48.7 24.2,41.7 L26.1,40.8 L27.6,42.3 C31.6,46.2 36.9,48.4 42.5,48.4 C48.1,48.4 53.4,46.2 57.4,42.3 L58.9,40.8 L60.8,41.7 C75.5,48.7 85,63.7 85,80 L85,107.3 L84.8,107.3 Z M5.9,101.4 L79,101.4 L79,80 C79,66.6 71.6,54.2 59.9,47.9 C55,52 48.9,54.3 42.5,54.3 C36.1,54.3 29.9,52 25,47.9 C13.3,54.2 5.9,66.6 5.9,80 L5.9,101.4 Z" id="Shape" fill="#4A555F"></path>
                            <path d="M11.9,95.4 L11.9,80 C11.9,70.1 16.8,60.8 24.7,55.2 C29.9,58.5 36,60.3 42.4,60.3 C48.8,60.3 54.9,58.5 60.1,55.2 C68,60.9 72.9,70.1 72.9,80 L72.9,95.4 L11.9,95.4 Z" id="Path" fill="#71CDE1"></path>
                        </g>
                    </g>
                    <path d="M45.4,345.5 L39.5,345.5 L39.5,339.6 L45.4,339.6 L45.4,345.5 Z M45.4,333.7 L39.5,333.7 L39.5,327.8 L45.4,327.8 L45.4,333.7 Z M45.4,321.9 L39.5,321.9 L39.5,316 L45.4,316 L45.4,321.9 Z M45.4,310.1 L39.5,310.1 L39.5,304.2 L45.4,304.2 L45.4,310.1 Z M45.4,298.4 L39.5,298.4 L39.5,292.5 L45.4,292.5 L45.4,298.4 Z M45.4,286.6 L39.5,286.6 L39.5,280.7 L45.4,280.7 L45.4,286.6 Z M45.4,274.8 L39.5,274.8 L39.5,268.9 L45.4,268.9 L45.4,274.8 Z" id="Shape" fill="#4A555F"></path>
                    <path d="M348.3,436.1 L342.4,436.1 L342.4,433.2 L342.4,433.2 L342.4,429.5 L348.3,429.5 L348.3,436.1 Z M337.2,436.1 L331.3,436.1 L331.3,430.2 L337.2,430.2 L337.2,436.1 Z M325.4,436.1 L319.5,436.1 L319.5,430.2 L325.4,430.2 L325.4,436.1 Z M313.7,436.1 L307.8,436.1 L307.8,430.2 L313.7,430.2 L313.7,436.1 Z M301.9,436.1 L296,436.1 L296,430.2 L301.9,430.2 L301.9,436.1 Z M290.1,436.1 L284.2,436.1 L284.2,430.2 L290.1,430.2 L290.1,436.1 Z M278.4,436.1 L272.5,436.1 L272.5,430.2 L278.4,430.2 L278.4,436.1 Z M266.6,436.1 L260.7,436.1 L260.7,430.2 L266.6,430.2 L266.6,436.1 Z M254.8,436.1 L248.9,436.1 L248.9,430.2 L254.8,430.2 L254.8,436.1 Z M243,436.1 L237.1,436.1 L237.1,430.2 L243,430.2 L243,436.1 Z M231.3,436.1 L225.4,436.1 L225.4,430.2 L231.3,430.2 L231.3,436.1 Z M219.5,436.1 L213.6,436.1 L213.6,430.2 L219.5,430.2 L219.5,436.1 Z M207.7,436.1 L201.8,436.1 L201.8,430.2 L207.7,430.2 L207.7,436.1 Z M195.9,436.1 L190,436.1 L190,430.2 L195.9,430.2 L195.9,436.1 Z M184.2,436.1 L178.3,436.1 L178.3,430.2 L184.2,430.2 L184.2,436.1 Z M172.4,436.1 L166.5,436.1 L166.5,430.2 L172.4,430.2 L172.4,436.1 Z M160.6,436.1 L154.7,436.1 L154.7,430.2 L160.6,430.2 L160.6,436.1 Z M148.8,436.1 L143,436.1 L143,430.2 L148.9,430.2 L148.9,436.1 L148.8,436.1 Z M137.1,436.1 L131.2,436.1 L131.2,430.2 L137.1,430.2 L137.1,436.1 Z M125.3,436.1 L119.4,436.1 L119.4,430.2 L125.3,430.2 L125.3,436.1 Z M113.5,436.1 L107.6,436.1 L107.6,430.2 L113.5,430.2 L113.5,436.1 Z M348.3,423.7 L342.4,423.7 L342.4,417.8 L348.3,417.8 L348.3,423.7 Z M348.3,411.9 L342.4,411.9 L342.4,406 L348.3,406 L348.3,411.9 Z" id="Shape" fill="#4A555F"></path>
                </g>
                <g id="Group-2" transform="translate(0.000000, 351.000000)">
                    <path d="M63.9,86.2 C51.7,86.2 41.7,76.2 41.7,64 C41.7,51.8 51.7,41.8 63.9,41.8 C76.1,41.8 86.1,51.8 86.1,64 C86.1,76.2 76.2,86.2 63.9,86.2 Z M63.9,47.7 C54.9,47.7 47.6,55 47.6,64 C47.6,73 54.9,80.3 63.9,80.3 C72.9,80.3 80.2,73 80.2,64 C80.2,55 72.9,47.7 63.9,47.7 Z" id="Shape" fill="#4A555F"></path>
                    <path d="M76,127.9 L51.9,127.9 L45.3,109 L27.3,117.7 L10.2,100.6 L18.9,82.6 L-7.10542736e-15,76 L-7.10542736e-15,51.9 L18.9,45.3 L10.2,27.3 L27.3,10.2 L45.3,18.9 L51.9,-7.10542736e-15 L76,-7.10542736e-15 L82.6,18.9 L100.6,10.2 L117.7,27.3 L109,45.3 L127.9,51.9 L127.9,76 L109,82.6 L117.7,100.6 L100.6,117.7 L82.6,109 L76,127.9 Z M56.1,122 L71.8,122 L79.2,100.7 L99.4,110.5 L110.5,99.4 L100.7,79.2 L122,71.8 L122,56.2 L100.7,48.8 L110.5,28.6 L99.4,17.5 L79.2,27.3 L71.8,6 L56.1,6 L48.7,27.3 L28.5,17.5 L17.4,28.6 L27.2,48.8 L5.9,56.2 L5.9,71.9 L27.2,79.3 L17.4,99.5 L28.5,110.6 L48.7,100.8 L56.1,122 Z" id="Shape" fill="#4A555F"></path>
                    <path d="M54.8,93.1 C57.7,94 60.7,94.5 63.9,94.5 C67.1,94.5 70.1,94 73,93.1 L65.8,113.7 L61.9,113.7 L54.8,93.1 Z M27.4,97.8 L36.9,78.2 C39.8,83.7 44.3,88.2 49.8,91 L30.2,100.5 L27.4,97.8 Z M78.1,91 C83.6,88.1 88.1,83.6 91,78.1 L100.5,97.7 L97.8,100.4 L78.1,91 Z M93,73.1 C93.9,70.2 94.4,67.2 94.4,64 C94.4,60.8 93.9,57.8 93,54.9 L113.6,62.1 L113.6,66 L93,73.1 Z M14.2,65.9 L14.2,62 L34.8,54.8 C33.9,57.7 33.4,60.7 33.4,63.9 C33.4,67.1 33.9,70.1 34.8,73 L14.2,65.9 Z M90.9,49.9 C88,44.4 83.5,39.9 78,37 L97.6,27.5 L100.3,30.2 L90.9,49.9 Z M27.4,30.2 L30.1,27.5 L49.7,37 C44.2,39.9 39.7,44.4 36.8,49.9 L27.4,30.2 Z M62,14.3 L65.9,14.3 L73.1,34.9 C70.2,34 67.2,33.5 64,33.5 C60.8,33.5 57.8,34 54.9,34.9 L62,14.3 Z" id="Shape" fill="#FFD552"></path>
                </g>
                <g id="PERSONAL-DATA-PROTECTION" transform="translate(238.000000, 0.000000)">
                    <polygon id="Path" fill="#4A555F" points="203.716194 386 0 386 0 0 291 0 291 233.836272 285.494157 233.836272 285.494157 5.34760705 5.34390651 5.34760705 5.34390651 380.490344 203.716194 380.490344"></polygon>
                    <path d="M85.7808219,130.83683 L85.7808219,102.934732 L70,102.934732 L70,72.9114219 C70,66.3846154 75.4246575,61 82,61 C88.5753425,61 94,66.3846154 94,72.9114219 L94,131 L85.7808219,131 L85.7808219,130.83683 Z" id="Path" fill="#F68F6F"></path>
                    <path d="M124,129.837884 L100.596558,129.837884 L100.596558,72.6109215 C100.596558,62.559727 92.4703633,54.4539249 82.3938815,54.4539249 C72.3173996,54.4539249 64.1912046,62.559727 64.1912046,72.6109215 L64.1912046,81.6894198 L58.0152964,93.3617747 L64.1912046,93.3617747 L64.1912046,108.924915 L79.793499,108.924915 L79.793499,130 L39,130 L39,35 L124,35 L124,129.837884 L124,129.837884 Z M105.959847,124.488055 L118.636711,124.488055 L118.636711,40.3498294 L44.3632887,40.3498294 L44.3632887,124.325939 L74.2676864,124.325939 L74.2676864,114.112628 L58.665392,114.112628 L58.665392,98.7116041 L48.9139579,98.7116041 L58.665392,80.2303754 L58.665392,72.4488055 C58.665392,59.4795222 69.2294455,48.9419795 82.2313576,48.9419795 C95.2332696,48.9419795 105.797323,59.4795222 105.797323,72.4488055 L105.797323,124.488055 L105.959847,124.488055 Z" id="Shape" fill="#4A555F"></path>
                    <path d="M250,47 L245.168142,47 L245.168142,42 L250,42 L250,47 Z M239.692035,47 L234.376991,47 L234.376991,42 L239.692035,42 L239.692035,47 Z M228.900885,47 L223.585841,47 L223.585841,42 L228.900885,42 L228.900885,47 Z M218.109735,47 L212.79469,47 L212.79469,42 L218.109735,42 L218.109735,47 Z M207.318584,47 L202.00354,47 L202.00354,42 L207.318584,42 L207.318584,47 Z M196.688496,47 L191.373451,47 L191.373451,42 L196.688496,42 L196.688496,47 Z M185.897345,47 L180.421239,47 L180.421239,42 L185.736283,42 L185.736283,47 L185.897345,47 Z M175.106195,47 L169.79115,47 L169.79115,42 L175.106195,42 L175.106195,47 Z M164.315044,47 L159,47 L159,42 L164.315044,42 L164.315044,47 Z" id="Shape" fill="#4A555F"></path>
                    <rect id="Rectangle" fill="#4A555F" x="159" y="70" width="91" height="5"></rect>
                    <rect id="Rectangle" fill="#4A555F" x="159" y="97" width="91" height="5"></rect>
                    <rect id="Rectangle" fill="#4A555F" x="159" y="125" width="91" height="5"></rect>
                    <rect id="Rectangle" fill="#4A555F" x="41" y="153" width="209" height="5"></rect>
                    <rect id="Rectangle" fill="#4A555F" x="41" y="180" width="209" height="5"></rect>
                    <rect id="Rectangle" fill="#4A555F" x="41" y="208" width="209" height="5"></rect>
                    <rect id="Rectangle" fill="#4A555F" x="42" y="235" width="196" height="5"></rect>
                    <rect id="Rectangle" fill="#4A555F" x="42" y="263" width="172" height="5"></rect>
                    <rect id="Rectangle" fill="#4A555F" x="42" y="290" width="166" height="5"></rect>
                    <path d="M126,341 L120.598802,341 L120.598802,336 L126,336 L126,341 Z M115.033932,341 L109.632735,341 L109.632735,336 L115.033932,336 L115.033932,341 Z M104.067864,341 L98.6666667,341 L98.6666667,336 L104.067864,336 L104.067864,341 Z M93.2654691,341 L87.8642715,341 L87.8642715,336 L93.2654691,336 L93.2654691,341 Z M82.2994012,341 L76.7345309,341 L76.7345309,336 L82.1357285,336 L82.1357285,341 L82.2994012,341 Z M71.3333333,341 L65.9321357,341 L65.9321357,336 L71.3333333,336 L71.3333333,341 Z M60.3672655,341 L54.9660679,341 L54.9660679,336 L60.3672655,336 L60.3672655,341 Z M49.4011976,341 L44,341 L44,336 L49.4011976,336 L49.4011976,341 Z" id="Shape" fill="#4A555F"></path>
                    <path d="M335,415 L210,415 L210,311 L335,311 L335,415 L335,415 Z M215.533854,409.654206 L329.628906,409.654206 L329.628906,316.507788 L215.533854,316.507788 L215.533854,409.654206 Z" id="Shape" fill="#4A555F"></path>
                    <path d="M222,322 L222,403 L323,403 L323,322 L222,322 Z M259.449438,389.798793 L265.447833,351.336016 C263.502408,349.54326 262.205457,346.772636 262.205457,343.839034 C262.205457,338.134809 266.744783,333.571429 272.418941,333.571429 C278.093098,333.571429 282.632424,338.134809 282.632424,343.839034 C282.632424,346.772636 281.335474,349.380282 279.390048,351.336016 L285.388443,389.798793 L259.449438,389.798793 Z" id="Shape" fill="#FFD552"></path>
                    <path d="M317,316 L299.044118,316 L299.044118,282.907757 C299.044118,268.540881 287.397059,256.918239 273,256.918239 C258.602941,256.918239 246.955882,268.540881 246.955882,282.907757 L246.955882,316 L229,316 L229,282.907757 C229,258.69392 248.735294,239 273,239 C297.264706,239 317,258.69392 317,282.907757 L317,316 Z M304.382353,310.672956 L311.661765,310.672956 L311.661765,282.907757 C311.661765,261.599581 294.352941,244.327044 273,244.327044 C251.647059,244.327044 234.338235,261.599581 234.338235,282.907757 L234.338235,310.672956 L241.617647,310.672956 L241.617647,282.907757 C241.617647,265.63522 255.691176,251.591195 273,251.591195 C290.308824,251.591195 304.382353,265.63522 304.382353,282.907757 L304.382353,310.672956 Z" id="Shape" fill="#4A555F"></path>
                    <path d="M289,392 L257,392 L263.271357,352.084433 C261.341709,349.831135 260.21608,346.773087 260.21608,343.875989 C260.21608,336.794195 266.005025,331 273.080402,331 C280.155779,331 285.944724,336.794195 285.944724,343.875989 C285.944724,346.934037 284.819095,349.831135 282.889447,352.084433 L289,392 Z M263.271357,386.688654 L282.728643,386.688654 L276.939698,350.313984 L277.904523,349.348285 C279.351759,347.899736 280.316583,345.968338 280.316583,343.875989 C280.316583,339.852243 276.939698,336.472296 272.919598,336.472296 C268.899497,336.472296 265.522613,339.852243 265.522613,343.875989 C265.522613,345.968338 266.326633,347.899736 267.934673,349.348285 L268.899497,350.313984 L263.271357,386.688654 Z" id="Shape" fill="#4A555F"></path>
                </g>
            </g>
        </g>
    </g>
</svg>