<?xml version="1.0" encoding="UTF-8"?>
<svg width="507px" height="509px" viewBox="0 0 507 509" version="1.1" xmlns="http://www.w3.org/2000/svg" xmlns:xlink="http://www.w3.org/1999/xlink">
    <!-- Generator: Sketch 59.1 (86144) - https://sketch.com -->
    <title>t-user-search</title>
    <desc>Created with Sketch.</desc>
    <g id="Page-1" stroke="none" stroke-width="1" fill="none" fill-rule="evenodd">
        <g id="t-user-search">
            <path d="M468.458464,418 L38.5415361,418 C17.2840909,418 0,400.691099 0,379.403141 L0,38.5968586 C0,17.3089005 17.2840909,0 38.5415361,0 L468.458464,0 C489.715909,0 507,17.3089005 507,38.5968586 L507,379.602094 C507,400.691099 489.715909,418 468.458464,418 Z M38.5415361,7.16230366 C21.2574451,7.16230366 7.15203762,21.2879581 7.15203762,38.5968586 L7.15203762,379.602094 C7.15203762,396.910995 21.2574451,411.036649 38.5415361,411.036649 L468.458464,411.036649 C485.742555,411.036649 499.847962,396.910995 499.847962,379.602094 L499.847962,38.5968586 C499.847962,21.2879581 485.742555,7.16230366 468.458464,7.16230366 L38.5415361,7.16230366 Z M472.23315,340.60733 L428.923589,340.60733 L378.263323,290.471204 L340.31779,271.769634 L350.052508,257.04712 C379.455329,212.879581 373.693966,153.591623 336.145768,115.989529 C315.086991,94.9005236 286.876176,83.1623037 257.076019,83.1623037 C254.294671,83.1623037 251.314655,83.3612565 248.334639,83.5602094 C225.090517,85.3507853 202.641066,94.5026178 184.959639,109.623037 C160.324843,130.712042 145.8221,161.549738 145.623433,194.17801 C145.424765,226.806283 159.331505,257.842932 183.767633,279.329843 C200.853056,294.251309 222.507837,303.801047 244.957288,306.188482 C249.12931,306.586387 253.102665,306.78534 257.274687,306.78534 C279.52547,306.78534 300.782915,300.219895 319.259013,288.08377 L333.960423,278.335079 L352.635188,316.136126 L377.269984,340.408377 L39.5348746,340.408377 L39.5348746,43.9685864 L472.23315,43.9685864 L472.23315,340.60733 Z M431.903605,333.445026 L465.081113,333.445026 L465.081113,51.1308901 L46.6869122,51.1308901 L46.6869122,333.445026 L359.787226,333.445026 L346.675157,320.513089 L330.980408,288.879581 L323.033699,294.251309 C303.564263,307.382199 280.717476,314.146597 257.076019,314.146597 C252.705329,314.146597 248.334639,313.947644 243.96395,313.350785 C220.123824,310.764398 196.879702,300.617801 178.80094,284.701571 C152.974138,261.82199 138.07406,228.795812 138.471395,193.979058 C138.670063,159.361257 153.967476,126.534031 180.58895,104.052356 C199.462382,87.9371728 223.501176,78.1884817 248.135972,76.1989529 C251.115987,76 254.294671,75.8010471 257.274687,75.8010471 C289.06152,75.8010471 318.861677,88.1361257 341.311129,110.617801 C381.243339,150.60733 387.600705,213.874346 356.211207,260.827225 L351.045846,268.78534 L382.634013,284.502618 L431.903605,333.445026 Z" id="Shape" fill="#4A555F" fill-rule="nonzero"></path>
            <path d="M468.954925,15 L39.0450751,15 C26.3305509,15 16,25.3412127 16,38.0688592 L16,378.931141 C16,391.658787 26.3305509,402 39.0450751,402 L468.954925,402 C481.669449,402 492,391.658787 492,378.931141 L492,38.0688592 C492,25.3412127 481.669449,15 468.954925,15 Z M481.073456,348.305242 L442.929883,348.305242 L454.84975,360.23741 C463.392321,368.788798 463.392321,382.510791 454.84975,391.062179 C450.677796,395.238438 445.115192,397.426002 439.552588,397.426002 C433.989983,397.426002 428.427379,395.238438 424.255426,391.062179 L381.145242,348.305242 L31.6944908,348.305242 L31.6944908,35.0858171 L481.073456,35.0858171 L481.073456,348.305242 Z" id="Shape" fill="#E88C59" fill-rule="nonzero"></path>
            <path d="M335,478 L176,478 L204.02375,411 L307.175,411 L335,478 Z M186.7325,470.863905 L324.2675,470.863905 L302.20625,418.136095 L208.595,418.136095 L186.7325,470.863905 Z" id="Shape" fill="#4A555F" fill-rule="nonzero"></path>
            <polygon id="Path" fill="#E88C59" fill-rule="nonzero" points="199 462 213.973498 426 297.026502 426 312 462"></polygon>
            <path d="M400,509 L112,509 L112,471 L400,471 L400,509 Z M119.145417,501.911917 L392.854583,501.911917 L392.854583,478.088083 L119.145417,478.088083 L119.145417,501.911917 Z" id="Shape" fill="#4A555F" fill-rule="nonzero"></path>
            <rect id="Rectangle" fill="#E88C59" fill-rule="nonzero" x="127" y="486" width="257" height="7"></rect>
            <rect id="Rectangle" fill="#4A555F" fill-rule="nonzero" x="16" y="502" width="479" height="7"></rect>
            <circle id="Oval" fill="#FFFFFF" fill-rule="nonzero" cx="256" cy="376" r="19"></circle>
            <path d="M256.5,398 C244.154867,398 234,387.845133 234,375.5 C234,363.154867 244.154867,353 256.5,353 C268.845133,353 279,363.154867 279,375.5 C279,387.845133 268.845133,398 256.5,398 Z M256.5,360.168142 C248.137168,360.168142 241.168142,366.938053 241.168142,375.5 C241.168142,384.061947 247.938053,390.831858 256.5,390.831858 C265.061947,390.831858 271.831858,384.061947 271.831858,375.5 C271.831858,366.938053 264.862832,360.168142 256.5,360.168142 Z" id="Shape" fill="#4A555F" fill-rule="nonzero"></path>
            <g id="Group" transform="translate(138.000000, 76.000000)" fill-rule="nonzero">
                <path d="M119.073939,202.954878 C96.809697,202.954878 75.7381818,194.208537 60.0339394,178.504878 C27.4327273,145.904878 27.4327273,92.8304878 60.0339394,60.2304878 C75.7381818,44.5268293 96.809697,35.7804878 119.073939,35.7804878 C141.338182,35.7804878 162.409697,44.5268293 178.113939,60.2304878 C193.818182,75.9341463 202.564848,97.004878 202.564848,119.268293 C202.564848,141.531707 193.818182,162.602439 178.113939,178.306098 C162.409697,194.208537 141.338182,202.954878 119.073939,202.954878 Z" id="Path" stroke="#4A555F" stroke-width="9" fill="#FFFFFF"></path>
                <path d="M301.163636,325.80122 C294.404848,325.80122 288.043636,323.217073 283.272727,318.446341 L208.528485,244.69878 L192.824242,213.092683 L184.872727,218.459756 C165.391515,231.579268 142.530909,238.337805 118.875152,238.337805 C114.501818,238.337805 110.128485,238.139024 105.755152,237.542683 C81.9006061,234.958537 58.6424242,224.820732 40.5527273,208.918293 C14.710303,186.058537 -0.198787879,153.060976 0.198787879,118.27439 C0.397575758,83.6865854 15.7042424,50.8878049 42.3418182,28.4256098 C61.2266667,12.3243902 85.28,2.58414634 109.929697,0.596341463 C112.911515,0.397560976 116.092121,0.198780488 119.073939,0.198780488 C150.88,0.198780488 180.698182,12.5231707 203.161212,34.9853659 C243.117576,74.9402439 249.478788,138.152439 218.070303,185.064634 L212.70303,193.015854 L244.310303,208.719512 L318.855758,282.268293 C323.626667,287.039024 326.409697,293.4 326.409697,300.158537 C326.409697,306.917073 323.825455,313.278049 319.054545,318.247561 C314.283636,323.217073 307.922424,325.80122 301.163636,325.80122 Z M214.492121,240.52439 L288.441212,313.476829 C291.820606,316.856098 296.392727,318.645122 301.163636,318.645122 C305.934545,318.645122 310.506667,316.657317 314.084848,313.278049 C317.464242,309.89878 319.452121,305.326829 319.452121,300.357317 C319.452121,295.387805 317.464242,290.815854 314.084848,287.436585 L240.135758,214.682927 L202.167273,195.997561 L211.907879,181.287805 C241.328485,137.158537 235.563636,77.9219512 197.992727,40.352439 C176.921212,19.2817073 148.892121,7.55365854 118.875152,7.55365854 C116.092121,7.55365854 113.110303,7.75243902 110.128485,7.95121951 C86.870303,9.7402439 64.4072727,18.8841463 46.7151515,33.9914634 C22.0654545,55.0621951 7.55393939,85.8731707 7.34897845,118.473171 C7.15636364,151.073171 21.0715152,182.082927 45.5224242,203.55122 C62.6181818,218.459756 84.2860606,228.00122 106.749091,230.386585 C110.923636,230.784146 114.899394,230.982927 119.073939,230.982927 C141.338182,230.982927 162.608485,224.423171 181.095758,212.297561 L195.806061,202.557317 L214.492121,240.52439 Z" id="Shape" fill="#4A555F"></path>
                <path d="M301.163636,310.296341 C298.579394,310.296341 296.193939,309.302439 294.206061,307.513415 L221.250909,235.554878 L207.733333,208.123171 L235.364848,221.839024 L308.121212,293.59878 C309.910303,295.387805 311.10303,297.971951 311.10303,300.556098 C311.10303,303.140244 310.109091,305.72439 308.32,307.513415 C306.133333,309.302439 303.747879,310.296341 301.163636,310.296341 Z" id="Path" fill="#666288"></path>
                <polygon id="Rectangle" fill="#4A555F" transform="translate(200.964527, 201.220757) rotate(45.008103) translate(-200.964527, -201.220757) " points="197.386619 191.878056 204.542781 191.877923 204.542434 210.563457 197.386272 210.563591"></polygon>
            </g>
            <rect id="Rectangle" fill="#4A555F" fill-rule="nonzero" x="324" y="99" width="128.088268" height="6.43215859"></rect>
            <rect id="Rectangle-Copy-4" fill="#4A555F" fill-rule="nonzero" x="63.1189944" y="99" width="128.088268" height="6.43215859"></rect>
            <rect id="Rectangle" fill="#4A555F" fill-rule="nonzero" x="370.012291" y="157.096916" width="82.0759777" height="6.43215859"></rect>
            <rect id="Rectangle-Copy-8" fill="#4A555F" fill-rule="nonzero" x="63.1189944" y="157.096916" width="82.0759777" height="6.43215859"></rect>
            <rect id="Rectangle" fill="#4A555F" fill-rule="nonzero" x="372.881006" y="214.363877" width="79" height="7"></rect>
            <rect id="Rectangle-Copy-9" fill="#4A555F" fill-rule="nonzero" x="63.1189944" y="214.363877" width="79" height="7"></rect>
            <rect id="Rectangle" fill="#4A555F" fill-rule="nonzero" x="328.881006" y="271.630837" width="123" height="7"></rect>
            <rect id="Rectangle-Copy-10" fill="#4A555F" fill-rule="nonzero" x="63" y="271.630837" width="123" height="7"></rect>
            <g id="Group" transform="translate(188.000000, 135.000000)" fill-rule="nonzero">
                <path d="M121.469697,107.921429 L121.469697,123.25 C113.789394,130.292857 105.278788,135.471429 96.1454545,138.992857 L103.410606,82.2357143 C113.99697,86.1714286 121.469697,96.5285714 121.469697,107.921429 Z" id="Path" fill="#E0E0E0"></path>
                <path d="M43.8363636,140.235714 C33.0424242,136.714286 23.0787879,130.914286 14.1530303,122.835714 L14.1530303,107.714286 C14.1530303,96.5285714 23.7015152,85.7571429 36.3636364,81.8214286 L43.8363636,140.235714 Z" id="Path" fill="#E0E0E0"></path>
                <path d="M69.7833333,58.8285714 C57.5363636,58.8285714 47.780303,48.8857143 47.780303,36.8714286 C47.780303,24.65 57.7439394,14.9142857 69.7833333,14.9142857 C82.030303,14.9142857 91.7863636,24.8571429 91.7863636,36.8714286 C91.7863636,49.0928571 81.8227273,58.8285714 69.7833333,58.8285714 Z" id="Path" fill="#FFD552"></path>
                <g fill="#4A555F">
                    <path d="M69.7833333,72.9142857 C49.8560606,72.9142857 33.6651515,56.7571429 33.6651515,36.8714286 C33.6651515,16.9857143 49.8560606,0.828571429 69.7833333,0.828571429 C89.7106061,0.828571429 105.901515,16.9857143 105.901515,36.8714286 C105.901515,56.7571429 89.7106061,72.9142857 69.7833333,72.9142857 Z M69.7833333,7.25 C53.3848485,7.25 40.1,20.5071429 40.1,36.8714286 C40.1,53.2357143 53.3848485,66.4928571 69.7833333,66.4928571 C86.1818182,66.4928571 99.4666667,53.2357143 99.4666667,36.8714286 C99.4666667,20.5071429 85.9742424,7.25 69.7833333,7.25 Z" id="Shape"></path>
                    <path d="M135.792424,110.614286 L129.357576,110.614286 L129.357576,108.957143 C129.357576,89.2785714 113.374242,73.1214286 93.6545455,72.9142857 L42.5909091,72.9142857 C22.6636364,72.9142857 6.47272727,89.0714286 6.47272727,108.957143 L6.47272727,110.614286 L0.0378787879,110.614286 L0.0378787879,108.957143 C0.0378787879,85.55 19.1348485,66.4928571 42.5909091,66.4928571 L93.6545455,66.4928571 C116.90303,66.7 135.792424,85.7571429 135.792424,108.957143 L135.792424,110.614286 L135.792424,110.614286 Z" id="Path"></path>
                    <path d="M51.9318182,143.55 L41.9681818,66.7 L55.0454545,66.7 L67.5,81.6142857 L53.5924242,105.85 L58.3666667,142.721429 L51.9318182,143.55 Z M49.2333333,72.9142857 L52.1393939,95.2857143 L59.6121212,82.2357143 L51.9318182,73.1214286 L49.2333333,73.1214286 L49.2333333,72.9142857 Z" id="Shape"></path>
                    <path d="M87.6348485,142.721429 L81.2,141.892857 L85.9742424,105.435714 L73.1045455,80.7857143 L85.5590909,66.4928571 L97.3909091,66.4928571 L87.6348485,142.721429 Z M80.7848485,81.8214286 L87.219697,94.4571429 L89.9181818,72.9142857 L88.2575758,72.9142857 L80.7848485,81.8214286 Z" id="Shape"></path>
                    <rect id="Rectangle" x="66.669697" y="89.2785714" width="6.43484848" height="54.8928571"></rect>
                    <polygon id="Path" points="69.7833333 94.25 61.0651515 83.8928571 66.0469697 79.75 69.9909091 84.3071429 74.5575758 79.1285714 79.3318182 83.4785714"></polygon>
                </g>
            </g>
            <path d="M257.073939,278.954878 C234.809697,278.954878 213.738182,270.208537 198.033939,254.504878 C165.432727,221.904878 165.432727,168.830488 198.033939,136.230488 C213.738182,120.526829 234.809697,111.780488 257.073939,111.780488 C279.338182,111.780488 300.409697,120.526829 316.113939,136.230488 C331.818182,151.934146 340.564848,173.004878 340.564848,195.268293 C340.564848,217.531707 331.818182,238.602439 316.113939,254.306098 C300.409697,270.208537 279.338182,278.954878 257.073939,278.954878 Z" id="Path" stroke="#4A555F" stroke-width="9"></path>
            <circle id="Oval" stroke="#FFD452" stroke-width="24" cx="257" cy="195" r="100"></circle>
        </g>
    </g>
</svg>