<?xml version="1.0" encoding="UTF-8"?>
<svg width="662px" height="426px" viewBox="0 0 662 426" version="1.1" xmlns="http://www.w3.org/2000/svg" xmlns:xlink="http://www.w3.org/1999/xlink">
    <!-- Generator: Sketch 59.1 (86144) - https://sketch.com -->
    <title>t-user-onboarding</title>
    <desc>Created with Sketch.</desc>
    <g id="Page-1" stroke="none" stroke-width="1" fill="none" fill-rule="evenodd">
        <g id="t-user-onboarding" fill-rule="nonzero">
            <rect id="Rectangle" fill="#E88C59" x="39" y="292" width="110" height="77"></rect>
            <path d="M154.373976,271 L32.6836844,271 C25.1387048,271 19,277.149211 19,284.708086 L19,381.285492 C19,388.848648 25.1387048,395 32.6836844,395 L154.316316,395 C161.861295,395 168,388.847577 168,381.285492 L168,284.651357 C168,277.123523 161.886922,271 154.373976,271 Z M160.408038,381.285492 C160.408038,384.651771 157.675572,387.390819 154.316316,387.390819 L32.6836844,387.390819 C29.3254957,387.390819 26.5919622,384.651771 26.5919622,381.285492 L26.5919622,284.708086 C26.5919622,281.345018 29.3254957,278.610251 32.6836844,278.610251 L154.373976,278.610251 C157.702267,278.610251 160.408038,281.3204 160.408038,284.652427 L160.408038,381.285492 L160.408038,381.285492 Z" id="Shape" fill="#4A555F"></path>
            <path d="M35,289 L35,373 L152,373 L152,289 L35,289 Z M144.405303,365.425618 L42.5946975,365.425618 L42.5946975,296.574382 L144.405303,296.574382 L144.405303,365.425618 Z" id="Shape" fill="#4A555F"></path>
            <path d="M110.836982,387 L78.1598359,387 L68,412 L121,412 L110.836982,387 Z M79.311687,404.267705 L83.1872524,394.732295 L105.809566,394.732295 L109.688313,404.267705 L79.311687,404.267705 Z" id="Shape" fill="#4A555F"></path>
            <path d="M51,404 L51,426 L138,426 L138,404 L51,404 Z M130.421202,418.267919 L58.5798645,418.267919 L58.5798645,411.732081 L130.421202,411.732081 L130.421202,418.267919 Z" id="Shape" fill="#4A555F"></path>
            <rect id="Rectangle" fill="#4A555F" x="25" y="418" width="135" height="8"></rect>
            <rect id="Rectangle" stroke="#5C666F" stroke-width="4" fill="#FFFFFF" x="51" y="309" width="86" height="18"></rect>
            <rect id="Rectangle-Copy" stroke="#5C666F" stroke-width="4" fill="#FFFFFF" x="51" y="337" width="86" height="18"></rect>
            <circle id="Oval" fill="#696969" cx="66" cy="346" r="5"></circle>
            <circle id="Oval-Copy" fill="#696969" cx="80" cy="346" r="5"></circle>
            <circle id="Oval-Copy-2" fill="#696969" cx="94" cy="346" r="5"></circle>
            <circle id="Oval-Copy-3" fill="#696969" cx="108" cy="346" r="5"></circle>
            <circle id="Oval-Copy-4" fill="#696969" cx="122" cy="346" r="5"></circle>
            <path d="M260.110521,316 L267.666312,316 L267.666312,308 L260.110521,308 L260.110521,316 Z M245,316 L252.555792,316 L252.555792,308 L245,308 L245,316 Z M275.222104,316 L282.777896,316 L282.777896,308 L275.222104,308 L275.222104,316 Z M290.333688,316 L297.889479,316 L297.889479,308 L290.333688,308 L290.333688,316 Z M305.444208,308 L305.444208,316 L313,316 L313,308 L305.444208,308 Z" id="Shape" fill="#4A555F"></path>
            <path d="M198,316 L205.600214,316 L205.600214,308 L198,308 L198,316 Z M213.200428,316 L220.800641,316 L220.800641,308 L213.200428,308 L213.200428,316 Z M228.399786,308 L228.399786,316 L236,316 L236,308 L228.399786,308 Z" id="Shape-Copy-2" fill="#4A555F"></path>
            <path d="M305,284.857599 L313,284.857599 L313,277.285866 L305,277.285866 L305,284.857599 Z M305,300 L313,300 L313,292.428267 L305,292.428267 L305,300 Z M305,269.714134 L313,269.714134 L313,262.142401 L305,262.142401 L305,269.714134 Z M305,254.571733 L313,254.571733 L313,247 L305,247 L305,254.571733 Z" id="Shape" fill="#4A555F"></path>
            <path d="M367.431858,139 L367.431858,147 L375,147 L375,139 L367.431858,139 Z M351.271504,139 L351.271504,147 L358.839646,147 L358.839646,139 L351.271504,139 Z M321,147 L328.568142,147 L328.568142,139 L321,139 L321,147 Z M336.136284,147 L343.704426,147 L343.704426,139 L336.136284,139 L336.136284,147 Z" id="Shape" fill="#4A555F"></path>
            <polygon id="Path" fill="#4A555F" points="385.506607 121 380 126.244505 396.370443 143.089909 380.013971 159.723575 385.491562 165 407 143.119701"></polygon>
            <path d="M93,193.571581 L101,193.571581 L101,186 L93,186 L93,193.571581 Z M93,208.714742 L101,208.714742 L101,201.143161 L93,201.143161 L93,208.714742 Z M93,239 L101,239 L101,231.428419 L93,231.428419 L93,239 Z M93,223.856839 L101,223.856839 L101,216.285258 L93,216.285258 L93,223.856839 Z" id="Shape" fill="#4A555F"></path>
            <path d="M531,193.571581 L539,193.571581 L539,186 L531,186 L531,193.571581 Z M531,208.714742 L539,208.714742 L539,201.143161 L531,201.143161 L531,208.714742 Z M531,239 L539,239 L539,231.428419 L531,231.428419 L531,239 Z M531,223.856839 L539,223.856839 L539,216.285258 L531,216.285258 L531,223.856839 Z" id="Shape-Copy" fill="#4A555F"></path>
            <polygon id="Path" fill="#4A555F" points="113.754178 232 96.9100868 248.368065 80.274552 232.016119 75 237.491125 96.8802931 259 119 237.506169"></polygon>
            <polygon id="Path-Copy" fill="#4A555F" points="551.754178 232 534.910087 248.368065 518.274552 232.016119 513 237.491125 534.880293 259 557 237.506169"></polygon>
            <path d="M305,223.768736 L313,223.768736 L313,216.153105 L305,216.153105 L305,223.768736 Z M305,239 L313,239 L313,231.384368 L305,231.384368 L305,239 Z M305,208.537473 L313,208.537473 L313,200.921841 L305,200.921841 L305,208.537473 Z M305,162.845824 L313,162.845824 L313,155.230192 L305,155.230192 L305,162.845824 Z M305,140 L305,147.615632 L313,147.615632 L313,140 L305,140 L305,140 Z M305,193.30728 L313,193.30728 L313,185.691649 L305,185.691649 L305,193.30728 Z M305,178.076017 L313,178.076017 L313,170.460385 L305,170.460385 L305,178.076017 Z" id="Shape" fill="#4A555F"></path>
            <path d="M45,58 C29.0553506,58 16,45.0516605 16,29 C16,13.0553506 28.9483395,0 45,0 C61.0516605,0 74,13.0553506 74,29 C74,45.0516605 61.0516605,58 45,58 Z M45,6.31365314 C32.4797048,6.31365314 22.3136531,16.4797048 22.3136531,29 C22.3136531,41.5202952 32.4797048,51.6863469 45,51.6863469 C57.5202952,51.6863469 67.6863469,41.5202952 67.6863469,29 C67.6863469,16.4797048 57.5202952,6.31365314 45,6.31365314 Z" id="Shape" fill="#4A555F"></path>
            <path d="M90.7858824,115 L0,115 L0,85.8526316 C0,68.4496241 10.1705882,52.4345865 25.9082353,44.9609023 L27.9423529,44 L29.5482353,45.6015038 C33.8305882,49.7654135 39.5047059,52.1142857 45.5,52.1142857 C51.4952941,52.1142857 57.1694118,49.7654135 61.4517647,45.6015038 L63.0576471,44 L65.0917647,44.9609023 C80.8294118,52.4345865 91,68.4496241 91,85.8526316 L91,115 L90.7858824,115 Z M6.31647059,108.700752 L84.5764706,108.700752 L84.5764706,85.8526316 C84.5764706,71.5458647 76.6541176,58.3067669 64.1282353,51.5804511 C58.8823529,55.9578947 52.3517647,58.4135338 45.5,58.4135338 C38.6482353,58.4135338 32.0105882,55.9578947 26.7647059,51.5804511 C14.2388235,58.3067669 6.31647059,71.5458647 6.31647059,85.8526316 L6.31647059,108.700752 Z" id="Shape" fill="#4A555F"></path>
            <path d="M45,58 C29.0553506,58 16,45.0516605 16,29 C16,13.0553506 28.9483395,0 45,0 C61.0516605,0 74,13.0553506 74,29 C74,45.0516605 61.0516605,58 45,58 Z M45,6.31365314 C32.4797048,6.31365314 22.3136531,16.4797048 22.3136531,29 C22.3136531,41.5202952 32.4797048,51.6863469 45,51.6863469 C57.5202952,51.6863469 67.6863469,41.5202952 67.6863469,29 C67.6863469,16.4797048 57.5202952,6.31365314 45,6.31365314 Z" id="Shape" fill="#4A555F"></path>
            <path d="M45,46 C36.1578947,46 29,38.6184211 29,29.5 C29,20.3815789 36.1578947,13 45,13 C53.8421053,13 61,20.3815789 61,29.5 C61,38.6184211 53.8421053,46 45,46 Z" id="Path" fill="#666288"></path>
            <path d="M90.7858824,115 L0,115 L0,85.8526316 C0,68.4496241 10.1705882,52.4345865 25.9082353,44.9609023 L27.9423529,44 L29.5482353,45.6015038 C33.8305882,49.7654135 39.5047059,52.1142857 45.5,52.1142857 C51.4952941,52.1142857 57.1694118,49.7654135 61.4517647,45.6015038 L63.0576471,44 L65.0917647,44.9609023 C80.8294118,52.4345865 91,68.4496241 91,85.8526316 L91,115 L90.7858824,115 Z M6.31647059,108.700752 L84.5764706,108.700752 L84.5764706,85.8526316 C84.5764706,71.5458647 76.6541176,58.3067669 64.1282353,51.5804511 C58.8823529,55.9578947 52.3517647,58.4135338 45.5,58.4135338 C38.6482353,58.4135338 32.0105882,55.9578947 26.7647059,51.5804511 C14.2388235,58.3067669 6.31647059,71.5458647 6.31647059,85.8526316 L6.31647059,108.700752 Z" id="Shape" fill="#4A555F"></path>
            <path d="M13,102 L13,85.5273632 C13,74.9378109 18.2213115,64.9900498 26.6393443,59 C32.1803279,62.5298507 38.6803279,64.4552239 45.5,64.4552239 C52.3196721,64.4552239 58.8196721,62.5298507 64.3606557,59 C72.7786885,65.0970149 78,74.9378109 78,85.5273632 L78,102 L13,102 Z" id="Path" fill="#666288"></path>
            <ellipse id="Oval" fill="#FFFFFF" cx="146.5" cy="31" rx="25.5" ry="26"></ellipse>
            <path d="M147,48 C138.157895,48 131,40.6184211 131,31.5 C131,22.3815789 138.157895,15 147,15 C155.842105,15 163,22.3815789 163,31.5 C163,40.6184211 155.842105,48 147,48 Z" id="Path" fill="#FFFFFF"></path>
            <path d="M189,88.08 L189,114 L105,114 L105,88.08 C105,71.3333333 114.782278,56.8266667 128.924051,50 C133.496203,54.5866667 139.875949,57.4666667 146.893671,57.4666667 C153.911392,57.4666667 160.291139,54.5866667 164.863291,50 C179.217722,56.8266667 189,71.2266667 189,88.08 Z" id="Path" fill="#FFFFFF"></path>
            <path d="M114,104 L114,87.5273632 C114,76.9378109 119.221311,66.9900498 127.639344,61 C133.180328,64.5298507 139.680328,66.4552239 146.5,66.4552239 C153.319672,66.4552239 159.819672,64.5298507 165.360656,61 C173.778689,67.0970149 179,76.9378109 179,87.5273632 L179,104 L114,104 Z" id="Path" fill="#FFFFFF"></path>
            <path d="M147,60 C131.055351,60 118,46.9446494 118,31 C118,15.0553506 131.055351,2 147,2 C162.944649,2 176,14.9483395 176,31 C176,47.0516605 163.051661,60 147,60 Z M147,8.31365314 C134.479705,8.31365314 124.313653,18.4797048 124.313653,31 C124.313653,43.5202952 134.479705,53.6863469 147,53.6863469 C159.520295,53.6863469 169.686347,43.5202952 169.686347,31 C169.686347,18.4797048 159.520295,8.31365314 147,8.31365314 Z" id="Shape" fill="#4A555F"></path>
            <path d="M191.785882,117 L101,117 L101,87.8526316 C101,70.4496241 111.170588,54.4345865 126.908235,46.9609023 L128.942353,46 L130.548235,47.6015038 C134.830588,51.7654135 140.504706,54.1142857 146.5,54.1142857 C152.495294,54.1142857 158.169412,51.7654135 162.451765,47.6015038 L164.057647,46 L166.091765,46.9609023 C181.829412,54.4345865 192,70.4496241 192,87.8526316 L192,117 L191.785882,117 Z M107.316471,110.700752 L185.576471,110.700752 L185.576471,87.8526316 C185.576471,73.5458647 177.654118,60.3067669 165.128235,53.5804511 C159.882353,57.9578947 153.351765,60.4135338 146.5,60.4135338 C139.648235,60.4135338 133.010588,57.9578947 127.764706,53.5804511 C115.238824,60.3067669 107.316471,73.5458647 107.316471,87.8526316 L107.316471,110.700752 Z" id="Shape" fill="#4A555F"></path>
            <path d="M147,60 C131.055351,60 118,46.9446494 118,31 C118,15.0553506 131.055351,2 147,2 C162.944649,2 176,14.9483395 176,31 C176,47.0516605 163.051661,60 147,60 Z M147,8.31365314 C134.479705,8.31365314 124.313653,18.4797048 124.313653,31 C124.313653,43.5202952 134.479705,53.6863469 147,53.6863469 C159.520295,53.6863469 169.686347,43.5202952 169.686347,31 C169.686347,18.4797048 159.520295,8.31365314 147,8.31365314 Z" id="Shape" fill="#4A555F"></path>
            <path d="M147,48 C138.157895,48 131,40.6184211 131,31.5 C131,22.3815789 138.157895,15 147,15 C155.842105,15 163,22.3815789 163,31.5 C163,40.6184211 155.842105,48 147,48 Z" id="Path" fill="#FFD452"></path>
            <path d="M191.785882,117 L101,117 L101,87.8526316 C101,70.4496241 111.170588,54.4345865 126.908235,46.9609023 L128.942353,46 L130.548235,47.6015038 C134.830588,51.7654135 140.504706,54.1142857 146.5,54.1142857 C152.495294,54.1142857 158.169412,51.7654135 162.451765,47.6015038 L164.057647,46 L166.091765,46.9609023 C181.829412,54.4345865 192,70.4496241 192,87.8526316 L192,117 L191.785882,117 Z M107.316471,110.700752 L185.576471,110.700752 L185.576471,87.8526316 C185.576471,73.5458647 177.654118,60.3067669 165.128235,53.5804511 C159.882353,57.9578947 153.351765,60.4135338 146.5,60.4135338 C139.648235,60.4135338 133.010588,57.9578947 127.764706,53.5804511 C115.238824,60.3067669 107.316471,73.5458647 107.316471,87.8526316 L107.316471,110.700752 Z" id="Shape" fill="#4A555F"></path>
            <path d="M114,104 L114,87.5273632 C114,76.9378109 119.221311,66.9900498 127.639344,61 C133.180328,64.5298507 139.680328,66.4552239 146.5,66.4552239 C153.319672,66.4552239 159.819672,64.5298507 165.360656,61 C173.778689,67.0970149 179,76.9378109 179,87.5273632 L179,104 L114,104 Z" id="Path" fill="#FFD452"></path>
            <ellipse id="Oval" fill="#FFFFFF" cx="94.5" cy="73" rx="25.5" ry="26"></ellipse>
            <path d="M136,130.08 L136,156 L52,156 L52,130.08 C52,113.333333 61.7822785,98.8266667 75.9240506,92 C80.4962025,96.5866667 86.8759494,99.4666667 93.8936709,99.4666667 C100.911392,99.4666667 107.291139,96.5866667 111.863291,92 C126.217722,98.8266667 136,113.333333 136,130.08 Z" id="Path" fill="#FFFFFF"></path>
            <ellipse id="Oval" fill="#FFFFFF" cx="94.5" cy="73" rx="25.5" ry="26"></ellipse>
            <path d="M94,90 C85.1578947,90 78,82.6184211 78,73.5 C78,64.3815789 85.1578947,57 94,57 C102.842105,57 110,64.3815789 110,73.5 C110,82.6184211 102.842105,90 94,90 Z" id="Path" fill="#FFFFFF"></path>
            <path d="M136,130.08 L136,156 L52,156 L52,130.08 C52,113.333333 61.7822785,98.8266667 75.9240506,92 C80.4962025,96.5866667 86.8759494,99.4666667 93.8936709,99.4666667 C100.911392,99.4666667 107.291139,96.5866667 111.863291,92 C126.217722,98.8266667 136,113.333333 136,130.08 Z" id="Path" fill="#FFFFFF"></path>
            <path d="M62,146 L62,129.527363 C62,118.937811 67.2213115,108.99005 75.6393443,103 C81.1803279,106.529851 87.6803279,108.455224 94.5,108.455224 C101.319672,108.455224 107.819672,106.529851 113.360656,103 C121.778689,109.097015 127,118.937811 127,129.527363 L127,146 L62,146 Z" id="Path" fill="#FFFFFF"></path>
            <path d="M94,102 C78.0553506,102 65,89.0516605 65,73 C65,57.0553506 77.9483395,44 94,44 C110.051661,44 123,57.0553506 123,73 C123,88.9446494 110.051661,102 94,102 Z M94,50.3136531 C81.4797048,50.3136531 71.3136531,60.4797048 71.3136531,73 C71.3136531,85.5202952 81.4797048,95.6863469 94,95.6863469 C106.520295,95.6863469 116.686347,85.5202952 116.686347,73 C116.686347,60.4797048 106.520295,50.3136531 94,50.3136531 Z" id="Shape" fill="#4A555F"></path>
            <path d="M139.785882,159 L49,159 L49,129.852632 C49,112.449624 59.1705882,96.4345865 74.9082353,88.9609023 L76.9423529,88 L78.5482353,89.6015038 C82.8305882,93.7654135 88.5047059,96.1142857 94.5,96.1142857 C100.495294,96.1142857 106.169412,93.7654135 110.451765,89.6015038 L112.057647,88 L114.091765,88.9609023 C129.829412,96.4345865 140,112.449624 140,129.852632 L140,159 L139.785882,159 Z M55.3164706,152.700752 L133.576471,152.700752 L133.576471,129.852632 C133.576471,115.545865 125.654118,102.306767 113.128235,95.5804511 C107.882353,99.9578947 101.351765,102.413534 94.5,102.413534 C87.5411765,102.413534 81.0105882,100.064662 75.8717647,95.5804511 C63.3458824,102.306767 55.4235294,115.545865 55.4235294,129.852632 L55.4235294,152.700752 L55.3164706,152.700752 Z" id="Shape" fill="#4A555F"></path>
            <path d="M94,102 C78.0553506,102 65,89.0516605 65,73 C65,57.0553506 77.9483395,44 94,44 C110.051661,44 123,57.0553506 123,73 C123,88.9446494 110.051661,102 94,102 Z M94,50.3136531 C81.4797048,50.3136531 71.3136531,60.4797048 71.3136531,73 C71.3136531,85.5202952 81.4797048,95.6863469 94,95.6863469 C106.520295,95.6863469 116.686347,85.5202952 116.686347,73 C116.686347,60.4797048 106.520295,50.3136531 94,50.3136531 Z" id="Shape" fill="#4A555F"></path>
            <path d="M94,90 C85.1578947,90 78,82.6184211 78,73.5 C78,64.3815789 85.1578947,57 94,57 C102.842105,57 110,64.3815789 110,73.5 C110,82.6184211 102.842105,90 94,90 Z" id="Path" fill="#E88C59"></path>
            <path d="M139.785882,159 L49,159 L49,129.852632 C49,112.449624 59.1705882,96.4345865 74.9082353,88.9609023 L76.9423529,88 L78.5482353,89.6015038 C82.8305882,93.7654135 88.5047059,96.1142857 94.5,96.1142857 C100.495294,96.1142857 106.169412,93.7654135 110.451765,89.6015038 L112.057647,88 L114.091765,88.9609023 C129.829412,96.4345865 140,112.449624 140,129.852632 L140,159 L139.785882,159 Z M55.3164706,152.700752 L133.576471,152.700752 L133.576471,129.852632 C133.576471,115.545865 125.654118,102.306767 113.128235,95.5804511 C107.882353,99.9578947 101.351765,102.413534 94.5,102.413534 C87.5411765,102.413534 81.0105882,100.064662 75.8717647,95.5804511 C63.3458824,102.306767 55.4235294,115.545865 55.4235294,129.852632 L55.4235294,152.700752 L55.3164706,152.700752 Z" id="Shape" fill="#4A555F"></path>
            <path d="M62,146 L62,129.527363 C62,118.937811 67.2213115,108.99005 75.6393443,103 C81.1803279,106.529851 87.6803279,108.455224 94.5,108.455224 C101.319672,108.455224 107.819672,106.529851 113.360656,103 C121.778689,109.097015 127,118.937811 127,129.527363 L127,146 L62,146 Z" id="Path" fill="#E88C59"></path>
            <path d="M480,317 C464.055351,317 451,304.051661 451,288 C451,272.055351 463.948339,259 480,259 C496.051661,259 509,272.055351 509,288 C509,304.051661 496.051661,317 480,317 Z M480,265.313653 C467.479705,265.313653 457.313653,275.479705 457.313653,288 C457.313653,300.520295 467.479705,310.686347 480,310.686347 C492.520295,310.686347 502.686347,300.520295 502.686347,288 C502.686347,275.479705 492.520295,265.313653 480,265.313653 Z" id="Shape" fill="#4A555F"></path>
            <path d="M524.785882,374 L434,374 L434,344.852632 C434,327.449624 444.170588,311.434586 459.908235,303.960902 L461.942353,303 L463.548235,304.601504 C467.830588,308.765414 473.504706,311.114286 479.5,311.114286 C485.495294,311.114286 491.169412,308.765414 495.451765,304.601504 L497.057647,303 L499.091765,303.960902 C514.829412,311.434586 525,327.449624 525,344.852632 L525,374 L524.785882,374 Z M440.316471,367.700752 L518.576471,367.700752 L518.576471,344.852632 C518.576471,330.545865 510.654118,317.306767 498.128235,310.580451 C492.882353,314.957895 486.351765,317.413534 479.5,317.413534 C472.648235,317.413534 466.010588,314.957895 460.764706,310.580451 C448.238824,317.306767 440.316471,330.545865 440.316471,344.852632 L440.316471,367.700752 Z" id="Shape" fill="#4A555F"></path>
            <path d="M480,317 C464.055351,317 451,304.051661 451,288 C451,272.055351 463.948339,259 480,259 C496.051661,259 509,272.055351 509,288 C509,304.051661 496.051661,317 480,317 Z M480,265.313653 C467.479705,265.313653 457.313653,275.479705 457.313653,288 C457.313653,300.520295 467.479705,310.686347 480,310.686347 C492.520295,310.686347 502.686347,300.520295 502.686347,288 C502.686347,275.479705 492.520295,265.313653 480,265.313653 Z" id="Shape" fill="#4A555F"></path>
            <path d="M480,304 C471.157895,304 464,296.618421 464,287.5 C464,278.381579 471.157895,271 480,271 C488.842105,271 496,278.381579 496,287.5 C496,296.618421 488.842105,304 480,304 Z" id="Path" fill="#666288"></path>
            <path d="M524.785882,374 L434,374 L434,344.852632 C434,327.449624 444.170588,311.434586 459.908235,303.960902 L461.942353,303 L463.548235,304.601504 C467.830588,308.765414 473.504706,311.114286 479.5,311.114286 C485.495294,311.114286 491.169412,308.765414 495.451765,304.601504 L497.057647,303 L499.091765,303.960902 C514.829412,311.434586 525,327.449624 525,344.852632 L525,374 L524.785882,374 Z M440.316471,367.700752 L518.576471,367.700752 L518.576471,344.852632 C518.576471,330.545865 510.654118,317.306767 498.128235,310.580451 C492.882353,314.957895 486.351765,317.413534 479.5,317.413534 C472.648235,317.413534 466.010588,314.957895 460.764706,310.580451 C448.238824,317.306767 440.316471,330.545865 440.316471,344.852632 L440.316471,367.700752 Z" id="Shape" fill="#4A555F"></path>
            <path d="M447,361 L447,344.527363 C447,333.937811 452.221311,323.99005 460.639344,318 C466.180328,321.529851 472.680328,323.455224 479.5,323.455224 C486.319672,323.455224 492.819672,321.529851 498.360656,318 C506.778689,324.097015 512,333.937811 512,344.527363 L512,361 L447,361 Z" id="Path" fill="#666288"></path>
            <ellipse id="Oval" fill="#FFFFFF" cx="581.5" cy="290" rx="25.5" ry="26"></ellipse>
            <path d="M581,307 C572.157895,307 565,299.618421 565,290.5 C565,281.381579 572.157895,274 581,274 C589.842105,274 597,281.381579 597,290.5 C597,299.618421 589.842105,307 581,307 Z" id="Path" fill="#FFFFFF"></path>
            <path d="M623,347.08 L623,373 L539,373 L539,347.08 C539,330.333333 548.782278,315.826667 562.924051,309 C567.496203,313.586667 573.875949,316.466667 580.893671,316.466667 C587.911392,316.466667 594.291139,313.586667 598.863291,309 C613.217722,315.826667 623,330.226667 623,347.08 Z" id="Path" fill="#FFFFFF"></path>
            <path d="M549,363 L549,346.527363 C549,335.937811 554.221311,325.99005 562.639344,320 C568.180328,323.529851 574.680328,325.455224 581.5,325.455224 C588.319672,325.455224 594.819672,323.529851 600.360656,320 C608.778689,326.097015 614,335.937811 614,346.527363 L614,363 L549,363 Z" id="Path" fill="#FFFFFF"></path>
            <path d="M581,319 C565.055351,319 552,305.944649 552,290 C552,274.055351 565.055351,261 581,261 C596.944649,261 610,273.948339 610,290 C610,306.051661 597.051661,319 581,319 Z M581,267.313653 C568.479705,267.313653 558.313653,277.479705 558.313653,290 C558.313653,302.520295 568.479705,312.686347 581,312.686347 C593.520295,312.686347 603.686347,302.520295 603.686347,290 C603.686347,277.479705 593.520295,267.313653 581,267.313653 Z" id="Shape" fill="#4A555F"></path>
            <path d="M626.785882,376 L536,376 L536,346.852632 C536,329.449624 546.170588,313.434586 561.908235,305.960902 L563.942353,305 L565.548235,306.601504 C569.830588,310.765414 575.504706,313.114286 581.5,313.114286 C587.495294,313.114286 593.169412,310.765414 597.451765,306.601504 L599.057647,305 L601.091765,305.960902 C616.829412,313.434586 627,329.449624 627,346.852632 L627,376 L626.785882,376 Z M542.316471,369.700752 L620.576471,369.700752 L620.576471,346.852632 C620.576471,332.545865 612.654118,319.306767 600.128235,312.580451 C594.882353,316.957895 588.351765,319.413534 581.5,319.413534 C574.648235,319.413534 568.010588,316.957895 562.764706,312.580451 C550.238824,319.306767 542.316471,332.545865 542.316471,346.852632 L542.316471,369.700752 Z" id="Shape" fill="#4A555F"></path>
            <path d="M581,319 C565.055351,319 552,305.944649 552,290 C552,274.055351 565.055351,261 581,261 C596.944649,261 610,273.948339 610,290 C610,306.051661 597.051661,319 581,319 Z M581,267.313653 C568.479705,267.313653 558.313653,277.479705 558.313653,290 C558.313653,302.520295 568.479705,312.686347 581,312.686347 C593.520295,312.686347 603.686347,302.520295 603.686347,290 C603.686347,277.479705 593.520295,267.313653 581,267.313653 Z" id="Shape" fill="#4A555F"></path>
            <path d="M581,307 C572.157895,307 565,299.618421 565,290.5 C565,281.381579 572.157895,274 581,274 C589.842105,274 597,281.381579 597,290.5 C597,299.618421 589.842105,307 581,307 Z" id="Path" fill="#FFD452"></path>
            <path d="M626.785882,376 L536,376 L536,346.852632 C536,329.449624 546.170588,313.434586 561.908235,305.960902 L563.942353,305 L565.548235,306.601504 C569.830588,310.765414 575.504706,313.114286 581.5,313.114286 C587.495294,313.114286 593.169412,310.765414 597.451765,306.601504 L599.057647,305 L601.091765,305.960902 C616.829412,313.434586 627,329.449624 627,346.852632 L627,376 L626.785882,376 Z M542.316471,369.700752 L620.576471,369.700752 L620.576471,346.852632 C620.576471,332.545865 612.654118,319.306767 600.128235,312.580451 C594.882353,316.957895 588.351765,319.413534 581.5,319.413534 C574.648235,319.413534 568.010588,316.957895 562.764706,312.580451 C550.238824,319.306767 542.316471,332.545865 542.316471,346.852632 L542.316471,369.700752 Z" id="Shape" fill="#4A555F"></path>
            <path d="M549,363 L549,346.527363 C549,335.937811 554.221311,325.99005 562.639344,320 C568.180328,323.529851 574.680328,325.455224 581.5,325.455224 C588.319672,325.455224 594.819672,323.529851 600.360656,320 C608.778689,326.097015 614,335.937811 614,346.527363 L614,363 L549,363 Z" id="Path" fill="#FFD452"></path>
            <ellipse id="Oval" fill="#FFFFFF" cx="528.5" cy="332" rx="25.5" ry="26"></ellipse>
            <path d="M571,388.08 L571,414 L487,414 L487,388.08 C487,371.333333 496.782278,356.826667 510.924051,350 C515.496203,354.586667 521.875949,357.466667 528.893671,357.466667 C535.911392,357.466667 542.291139,354.586667 546.863291,350 C561.217722,356.826667 571,371.333333 571,388.08 Z" id="Path" fill="#FFFFFF"></path>
            <ellipse id="Oval" fill="#FFFFFF" cx="528.5" cy="332" rx="25.5" ry="26"></ellipse>
            <path d="M529,348 C520.157895,348 513,340.618421 513,331.5 C513,322.381579 520.157895,315 529,315 C537.842105,315 545,322.381579 545,331.5 C545,340.618421 537.842105,348 529,348 Z" id="Path" fill="#FFFFFF"></path>
            <path d="M571,388.08 L571,414 L487,414 L487,388.08 C487,371.333333 496.782278,356.826667 510.924051,350 C515.496203,354.586667 521.875949,357.466667 528.893671,357.466667 C535.911392,357.466667 542.291139,354.586667 546.863291,350 C561.217722,356.826667 571,371.333333 571,388.08 Z" id="Path" fill="#FFFFFF"></path>
            <path d="M496,405 L496,388.527363 C496,377.937811 501.221311,367.99005 509.639344,362 C515.180328,365.529851 521.680328,367.455224 528.5,367.455224 C535.319672,367.455224 541.819672,365.529851 547.360656,362 C555.778689,368.097015 561,377.937811 561,388.527363 L561,405 L496,405 Z" id="Path" fill="#FFFFFF"></path>
            <path d="M529,361 C513.055351,361 500,348.051661 500,332 C500,316.055351 512.948339,303 529,303 C545.051661,303 558,316.055351 558,332 C558,347.944649 545.051661,361 529,361 Z M529,309.313653 C516.479705,309.313653 506.313653,319.479705 506.313653,332 C506.313653,344.520295 516.479705,354.686347 529,354.686347 C541.520295,354.686347 551.686347,344.520295 551.686347,332 C551.686347,319.479705 541.520295,309.313653 529,309.313653 Z" id="Shape" fill="#4A555F"></path>
            <path d="M574.785882,418 L484,418 L484,388.852632 C484,371.449624 494.170588,355.434586 509.908235,347.960902 L511.942353,347 L513.548235,348.601504 C517.830588,352.765414 523.504706,355.114286 529.5,355.114286 C535.495294,355.114286 541.169412,352.765414 545.451765,348.601504 L547.057647,347 L549.091765,347.960902 C564.829412,355.434586 575,371.449624 575,388.852632 L575,418 L574.785882,418 Z M490.316471,411.700752 L568.576471,411.700752 L568.576471,388.852632 C568.576471,374.545865 560.654118,361.306767 548.128235,354.580451 C542.882353,358.957895 536.351765,361.413534 529.5,361.413534 C522.541176,361.413534 516.010588,359.064662 510.871765,354.580451 C498.345882,361.306767 490.423529,374.545865 490.423529,388.852632 L490.423529,411.700752 L490.316471,411.700752 Z" id="Shape" fill="#4A555F"></path>
            <path d="M529,361 C513.055351,361 500,348.051661 500,332 C500,316.055351 512.948339,303 529,303 C545.051661,303 558,316.055351 558,332 C558,347.944649 545.051661,361 529,361 Z M529,309.313653 C516.479705,309.313653 506.313653,319.479705 506.313653,332 C506.313653,344.520295 516.479705,354.686347 529,354.686347 C541.520295,354.686347 551.686347,344.520295 551.686347,332 C551.686347,319.479705 541.520295,309.313653 529,309.313653 Z" id="Shape" fill="#4A555F"></path>
            <path d="M529,348 C520.157895,348 513,340.618421 513,331.5 C513,322.381579 520.157895,315 529,315 C537.842105,315 545,322.381579 545,331.5 C545,340.618421 537.842105,348 529,348 Z" id="Path" fill="#E88C59"></path>
            <path d="M574.785882,418 L484,418 L484,388.852632 C484,371.449624 494.170588,355.434586 509.908235,347.960902 L511.942353,347 L513.548235,348.601504 C517.830588,352.765414 523.504706,355.114286 529.5,355.114286 C535.495294,355.114286 541.169412,352.765414 545.451765,348.601504 L547.057647,347 L549.091765,347.960902 C564.829412,355.434586 575,371.449624 575,388.852632 L575,418 L574.785882,418 Z M490.316471,411.700752 L568.576471,411.700752 L568.576471,388.852632 C568.576471,374.545865 560.654118,361.306767 548.128235,354.580451 C542.882353,358.957895 536.351765,361.413534 529.5,361.413534 C522.541176,361.413534 516.010588,359.064662 510.871765,354.580451 C498.345882,361.306767 490.423529,374.545865 490.423529,388.852632 L490.423529,411.700752 L490.316471,411.700752 Z" id="Shape" fill="#4A555F"></path>
            <path d="M496,405 L496,388.527363 C496,377.937811 501.221311,367.99005 509.639344,362 C515.180328,365.529851 521.680328,367.455224 528.5,367.455224 C535.319672,367.455224 541.819672,365.529851 547.360656,362 C555.778689,368.097015 561,377.937811 561,388.527363 L561,405 L496,405 Z" id="Path" fill="#E88C59"></path>
            <rect id="Rectangle" fill="#00C621" x="593" y="342" width="65" height="54"></rect>
            <path d="M589,338 L589,400 L662,400 L662,338 L589,338 Z M654.361365,392.344749 L596.638635,392.344749 L596.638635,345.655251 L654.361365,345.655251 L654.361365,392.344749 Z" id="Shape" fill="#4A555F"></path>
            <polygon id="Path" fill="#FFFFFF" points="640.858834 356 619.416643 375.925944 610.793165 365.63841 605 370.616109 618.733648 387 646 361.665771"></polygon>
            <path d="M626.892941,61 L445,61 L445,1 L627,1 L627,61 L626.892941,61 Z M451.423529,54.5251799 L620.576471,54.5251799 L620.576471,7.47482014 L451.423529,7.47482014 L451.423529,54.5251799 Z" id="Shape" fill="#4A555F"></path>
            <rect id="Rectangle" fill="#666288" x="535" y="15" width="78" height="32"></rect>
            <path d="M626.892941,114 L445,114 L445,54 L627,54 L627,114 L626.892941,114 Z M451.423529,107.571429 L620.576471,107.571429 L620.576471,60.4285714 L451.423529,60.4285714 L451.423529,107.571429 Z" id="Shape" fill="#4A555F"></path>
            <rect id="Rectangle" fill="#666288" x="535" y="68" width="78" height="32"></rect>
            <path d="M474.5,40 C469.327778,40 465,35.7777778 465,30.5 C465,25.2222222 469.222222,21 474.5,21 C479.777778,21 484,25.2222222 484,30.5 C484,35.7777778 479.777778,40 474.5,40 Z M474.5,27.4388889 C472.811111,27.4388889 471.333333,28.8111111 471.333333,30.6055556 C471.333333,32.4 472.705556,33.7722222 474.5,33.7722222 C476.188889,33.7722222 477.666667,32.4 477.666667,30.6055556 C477.666667,28.8111111 476.294444,27.4388889 474.5,27.4388889 Z" id="Shape" fill="#4A555F"></path>
            <path d="M598.5,40 C593.327778,40 589,35.7777778 589,30.5 C589,25.2222222 593.222222,21 598.5,21 C603.777778,21 608,25.2222222 608,30.5 C608,35.7777778 603.672222,40 598.5,40 Z M598.5,27.4388889 C596.811111,27.4388889 595.333333,28.8111111 595.333333,30.6055556 C595.333333,32.4 596.705556,33.7722222 598.5,33.7722222 C600.188889,33.7722222 601.666667,32.4 601.666667,30.6055556 C601.666667,28.8111111 600.188889,27.4388889 598.5,27.4388889 Z" id="Shape" fill="#FFFFFF"></path>
            <path d="M474.5,94 C469.327778,94 465,89.7777778 465,84.5 C465,79.2222222 469.222222,75 474.5,75 C479.777778,75 484,79.2222222 484,84.5 C484,89.7777778 479.777778,94 474.5,94 Z M474.5,81.4388889 C472.811111,81.4388889 471.333333,82.8111111 471.333333,84.6055556 C471.333333,86.2944444 472.705556,87.7722222 474.5,87.7722222 C476.188889,87.7722222 477.666667,86.4 477.666667,84.6055556 C477.666667,82.8111111 476.294444,81.4388889 474.5,81.4388889 Z" id="Shape" fill="#4A555F"></path>
            <path d="M598.5,94 C593.327778,94 589,89.7777778 589,84.5 C589,79.2222222 593.222222,75 598.5,75 C603.777778,75 608,79.2222222 608,84.5 C608,89.7777778 603.672222,94 598.5,94 Z M598.5,81.4388889 C596.811111,81.4388889 595.333333,82.8111111 595.333333,84.6055556 C595.333333,86.2944444 596.705556,87.7722222 598.5,87.7722222 C600.188889,87.7722222 601.666667,86.4 601.666667,84.6055556 C601.666667,82.8111111 600.188889,81.4388889 598.5,81.4388889 Z" id="Shape" fill="#FFFFFF"></path>
            <path d="M495,142 L477,142 L477,108 L495,108 L495,142 Z M483.545455,135.664596 L488.563636,135.664596 L488.563636,114.335404 L483.545455,114.335404 L483.545455,135.664596 Z" id="Shape" fill="#4A555F"></path>
            <path d="M589,142 L571,142 L571,108 L589,108 L589,142 Z M577.614458,135.664596 L582.60241,135.664596 L582.60241,114.335404 L577.614458,114.335404 L577.614458,135.664596 Z" id="Shape" fill="#4A555F"></path>
            <path d="M626.892941,158 L445,158 L445,136 L627,136 L627,158 L626.892941,158 Z M451.423529,151.653846 L620.576471,151.653846 L620.576471,142.346154 L451.423529,142.346154 L451.423529,151.653846 Z" id="Shape" fill="#4A555F"></path>
        </g>
    </g>
</svg>