<?xml version="1.0" encoding="UTF-8"?>
<svg width="496px" height="506px" viewBox="0 0 496 506" version="1.1" xmlns="http://www.w3.org/2000/svg" xmlns:xlink="http://www.w3.org/1999/xlink">
    <!-- Generator: Sketch 58 (84663) - https://sketch.com -->
    <title>webhook kafka</title>
    <desc>Created with Sketch.</desc>
    <g id="Page-1" stroke="none" stroke-width="1" fill="none" fill-rule="evenodd">
        <g id="built-for-devs" transform="translate(-276.000000, -4404.000000)" fill-rule="nonzero">
            <g id="webhook-kafka" transform="translate(276.000000, 4404.000000)">
                <path d="M170.1,206.6 L0.2,206.6 L0.2,151 L170.2,151 L170.2,206.6 L170.1,206.6 Z M6.2,200.6 L164.2,200.6 L164.2,157 L6.2,157 L6.2,200.6 Z" id="Shape" fill="#4A555F"></path>
                <rect id="Rectangle" fill="#F68F6F" x="84.7" y="164" width="72.4" height="29.6"></rect>
                <path d="M170.1,256.2 L0.2,256.2 L0.2,200.6 L170.2,200.6 L170.2,256.2 L170.1,256.2 Z M6.2,250.2 L164.2,250.2 L164.2,206.6 L6.2,206.6 L6.2,250.2 Z" id="Shape" fill="#4A555F"></path>
                <rect id="Rectangle" fill="#F68F6F" x="84.7" y="213.6" width="72.4" height="29.6"></rect>
                <path d="M170.1,306.1 L0.2,306.1 L0.2,250.1 L170.2,250.1 L170.2,306.1 L170.1,306.1 Z M6.2,300.1 L164.2,300.1 L164.2,256.1 L6.2,256.1 L6.2,300.1 Z" id="Shape" fill="#4A555F"></path>
                <rect id="Rectangle" fill="#F68F6F" x="84.7" y="263.2" width="72.4" height="30"></rect>
                <path d="M27.8,188.1 C22.9,188.1 18.8,184.1 18.8,179.1 C18.8,174.2 22.8,170.1 27.8,170.1 C32.8,170.1 36.8,174.1 36.8,179.1 C36.8,184.1 32.8,188.1 27.8,188.1 Z M27.8,176.1 C26.2,176.1 24.8,177.4 24.8,179.1 C24.8,180.8 26.1,182.1 27.8,182.1 C29.4,182.1 30.8,180.8 30.8,179.1 C30.8,177.4 29.5,176.1 27.8,176.1 Z" id="Shape" fill="#4A555F"></path>
                <path d="M146.3,188.1 C141.4,188.1 137.3,184.1 137.3,179.1 C137.3,174.2 141.3,170.1 146.3,170.1 C151.3,170.1 155.3,174.1 155.3,179.1 C155.3,184.1 151.2,188.1 146.3,188.1 Z M146.3,176.1 C144.7,176.1 143.3,177.4 143.3,179.1 C143.3,180.8 144.6,182.1 146.3,182.1 C147.9,182.1 149.3,180.8 149.3,179.1 C149.3,177.4 147.9,176.1 146.3,176.1 Z" id="Shape" fill="#4A555F"></path>
                <path d="M27.8,237.3 C22.9,237.3 18.8,233.3 18.8,228.3 C18.8,223.4 22.8,219.3 27.8,219.3 C32.8,219.3 36.8,223.3 36.8,228.3 C36.8,233.3 32.8,237.3 27.8,237.3 Z M27.8,225.4 C26.2,225.4 24.8,226.7 24.8,228.4 C24.8,230.1 26.1,231.4 27.8,231.4 C29.4,231.4 30.8,230.1 30.8,228.4 C30.8,226.7 29.5,225.4 27.8,225.4 Z" id="Shape" fill="#4A555F"></path>
                <path d="M146.3,237.3 C141.4,237.3 137.3,233.3 137.3,228.3 C137.3,223.4 141.3,219.3 146.3,219.3 C151.3,219.3 155.3,223.3 155.3,228.3 C155.3,233.3 151.2,237.3 146.3,237.3 Z M146.3,225.4 C144.7,225.4 143.3,226.7 143.3,228.4 C143.3,230.1 144.6,231.4 146.3,231.4 C147.9,231.4 149.3,230.1 149.3,228.4 C149.3,226.7 147.9,225.4 146.3,225.4 Z" id="Shape" fill="#4A555F"></path>
                <path d="M27.8,287.1 C22.9,287.1 18.8,283.1 18.8,278.1 C18.8,273.2 22.8,269.1 27.8,269.1 C32.8,269.1 36.8,273.1 36.8,278.1 C36.8,283.1 32.8,287.1 27.8,287.1 Z M27.8,275.2 C26.2,275.2 24.8,276.5 24.8,278.2 C24.8,279.8 26.1,281.2 27.8,281.2 C29.4,281.2 30.8,279.9 30.8,278.2 C30.8,276.5 29.5,275.2 27.8,275.2 Z" id="Shape" fill="#4A555F"></path>
                <path d="M146.3,287.1 C141.4,287.1 137.3,283.1 137.3,278.1 C137.3,273.2 141.3,269.1 146.3,269.1 C151.3,269.1 155.3,273.1 155.3,278.1 C155.3,283.1 151.2,287.1 146.3,287.1 Z M146.3,275.2 C144.7,275.2 143.3,276.5 143.3,278.2 C143.3,279.8 144.6,281.2 146.3,281.2 C147.9,281.2 149.3,279.9 149.3,278.2 C149.3,276.5 147.9,275.2 146.3,275.2 Z" id="Shape" fill="#4A555F"></path>
                <path d="M47.3,332.3 L30.8,332.3 L30.8,300.1 L47.3,300.1 L47.3,332.3 Z M36.8,326.3 L41.4,326.3 L41.4,306.1 L36.8,306.1 L36.8,326.3 Z" id="Shape" fill="#4A555F"></path>
                <path d="M135,332.3 L118.4,332.3 L118.4,300.1 L135,300.1 L135,332.3 Z M124.5,326.3 L129.1,326.3 L129.1,306.1 L124.5,306.1 L124.5,326.3 Z" id="Shape" fill="#4A555F"></path>
                <path d="M170.1,347.1 L0.2,347.1 L0.2,326.3 L170.2,326.3 L170.2,347.1 L170.1,347.1 Z M6.2,341.1 L164.2,341.1 L164.2,332.3 L6.2,332.3 L6.2,341.1 Z" id="Shape" fill="#4A555F"></path>
                <polygon id="Path" fill="#4A555F" points="220.8 247.2 215.1 245.4 269.3 72.9 343.3 72.9 343.3 78.9 273.7 78.9"></polygon>
                <polygon id="Path" fill="#4A555F" points="343.3 420.7 269.3 420.7 215.1 247.2 220.8 245.4 273.7 414.7 343.3 414.7"></polygon>
                <rect id="Rectangle" fill="#4A555F" x="184.7" y="243.3" width="158.6" height="6"></rect>
                <g id="Group" transform="translate(375.000000, 0.000000)" fill="#4A555F">
                    <path d="M105.5,142.1 L0.2,142.1 L0.2,0.9 L105.5,0.9 L105.5,142.1 Z M6.2,136.1 L99.5,136.1 L99.5,6.9 L6.2,6.9 L6.2,136.1 Z" id="Shape"></path>
                    <polygon id="Path" points="33.5 61.5 18.6 43.8 33.4 24.2 38.2 27.8 26.3 43.6 38.1 57.6"></polygon>
                    <polygon id="Path" points="72.2 61.5 67.6 57.6 79.4 43.6 67.5 27.8 72.3 24.2 87.1 43.8"></polygon>
                    <rect id="Rectangle" transform="translate(52.325445, 42.249780) rotate(21.659905) translate(-52.325445, -42.249780) " x="49.3254162" y="17.8995466" width="6.00005751" height="48.7004668"></rect>
                    <rect id="Rectangle" x="20.5" y="81.5" width="8.7" height="6"></rect>
                    <rect id="Rectangle" x="20.5" y="99.3" width="64.1" height="6"></rect>
                    <rect id="Rectangle" x="20.5" y="115.9" width="64.1" height="6"></rect>
                    <rect id="Rectangle" x="38.9" y="81.5" width="8.7" height="6"></rect>
                    <rect id="Rectangle" x="57.4" y="81.5" width="8.7" height="6"></rect>
                    <rect id="Rectangle" x="75.9" y="81.5" width="8.7" height="6"></rect>
                </g>
                <g id="Group" transform="translate(375.000000, 174.000000)" fill="#4A555F">
                    <path d="M105.5,141.3 L0.2,141.3 L0.2,0 L105.5,0 L105.5,141.3 Z M6.2,135.3 L99.5,135.3 L99.5,6 L6.2,6 L6.2,135.3 Z" id="Shape"></path>
                    <polygon id="Path" points="33.5 60.6 18.6 42.9 33.4 23.3 38.2 26.9 26.3 42.7 38.1 56.7"></polygon>
                    <polygon id="Path" points="72.2 60.6 67.6 56.7 79.4 42.7 67.5 26.9 72.3 23.3 87.1 42.9"></polygon>
                    <rect id="Rectangle" transform="translate(52.314325, 41.451060) rotate(21.659905) translate(-52.314325, -41.451060) " x="49.3142962" y="17.1008266" width="6.00005751" height="48.7004668"></rect>
                    <rect id="Rectangle" x="20.5" y="80.7" width="8.7" height="6"></rect>
                    <rect id="Rectangle" x="20.5" y="98.4" width="64.1" height="6"></rect>
                    <rect id="Rectangle" x="20.5" y="115.1" width="64.1" height="6"></rect>
                    <rect id="Rectangle" x="38.9" y="80.7" width="8.7" height="6"></rect>
                    <rect id="Rectangle" x="57.4" y="80.7" width="8.7" height="6"></rect>
                    <rect id="Rectangle" x="75.9" y="80.7" width="8.7" height="6"></rect>
                </g>
                <g id="Group" transform="translate(375.000000, 347.000000)" fill="#4A555F">
                    <path d="M105.5,141.4 L0.2,141.4 L0.2,0.2 L105.5,0.2 L105.5,141.4 Z M6.2,135.4 L99.5,135.4 L99.5,6.2 L6.2,6.2 L6.2,135.4 Z" id="Shape"></path>
                    <polygon id="Path" points="33.5 60.8 18.6 43.1 33.4 23.5 38.2 27.1 26.3 42.9 38.1 56.9"></polygon>
                    <polygon id="Path" points="72.2 60.8 67.6 56.9 79.4 42.9 67.5 27.1 72.3 23.5 87.1 43.1"></polygon>
                    <rect id="Rectangle" transform="translate(52.340015, 41.559300) rotate(21.659905) translate(-52.340015, -41.559300) " x="49.3399862" y="17.2090666" width="6.00005751" height="48.7004668"></rect>
                    <rect id="Rectangle" x="20.5" y="80.8" width="8.7" height="6"></rect>
                    <rect id="Rectangle" x="20.5" y="98.6" width="64.1" height="6"></rect>
                    <rect id="Rectangle" x="20.5" y="115.2" width="64.1" height="6"></rect>
                    <rect id="Rectangle" x="38.9" y="80.8" width="8.7" height="6"></rect>
                    <rect id="Rectangle" x="57.4" y="80.8" width="8.7" height="6"></rect>
                    <rect id="Rectangle" x="75.9" y="80.8" width="8.7" height="6"></rect>
                </g>
                <polygon id="Path" fill="#4A555F" points="495.8 156.6 388.2 156.6 388.2 138.8 394.2 138.8 394.2 150.6 489.8 150.6 489.8 16.2 477.5 16.2 477.5 10.2 495.8 10.2"></polygon>
                <polygon id="Path" fill="#4A555F" points="495.8 330.8 388.2 330.8 388.2 313.1 394.2 313.1 394.2 324.8 489.8 324.8 489.8 190.5 477.5 190.5 477.5 184.5 495.8 184.5"></polygon>
                <polygon id="Path" fill="#4A555F" points="495.8 505.1 388.2 505.1 388.2 487.3 394.2 487.3 394.2 499.1 489.8 499.1 489.8 364.7 477.5 364.7 477.5 358.7 495.8 358.7"></polygon>
            </g>
        </g>
    </g>
</svg>