<?xml version="1.0" encoding="UTF-8"?>
<svg width="364px" height="244px" viewBox="0 0 364 244" version="1.1" xmlns="http://www.w3.org/2000/svg" xmlns:xlink="http://www.w3.org/1999/xlink">
    <!-- Generator: Sketch 63.1 (92452) - https://sketch.com -->
    <title>threat-detection</title>
    <desc>Created with Sketch.</desc>
    <g id="Page-1" stroke="none" stroke-width="1" fill="none" fill-rule="evenodd">
        <g id="threat-detection">
            <path d="M6.66943359,139 L6.66943359,122 L104.464254,122 C105.067361,127.779403 106.59898,133.489175 108.471313,139 L6.66943359,139 Z" id="Fill-22" fill="#E88C59"></path>
            <path d="M122.857565,183.317302 L115.266673,175.726411 L113.273589,173.733327 L105.682698,166.142435 C105.682698,166.142435 93.1362637,164.100448 81.7569906,175.479721 L53.1659012,204.07081 C44.9446996,212.292012 44.9446996,225.6209 53.1659012,233.841014 L53.1659012,233.841014 L55.1589856,235.834099 C63.3801871,244.0553 76.709075,244.0553 84.9302766,235.834099 L113.520279,207.244096 C124.899552,195.863736 122.857565,183.317302 122.857565,183.317302" id="Fill-19" stroke="#4A555F" stroke-width="3" fill="#FFD552"></path>
            <path d="M108.168164,166.913889 L123.077535,181.831054 L133.458665,171.436525 C130.653338,169.351506 127.970218,167.032877 125.464955,164.525397 C122.981515,162.04084 120.661746,159.359789 118.551476,156.534643 L108.168164,166.913889 Z M123.077535,186 L104,166.912798 L118.919191,152 L119.928498,153.420214 C122.208986,156.629615 124.77208,159.664355 127.547946,162.441469 C130.353273,165.248058 133.387741,167.809028 136.570603,170.051243 L138,171.05882 L123.077535,186 Z" id="Fill-20" fill="#4A555F"></path>
            <path d="M3.16357422,142.073171 L110.458711,142.073171 C110.007696,141.023848 109.57601,139.947425 109.166875,138.853659 C107.116906,133.339295 105.742385,127.61355 105.08197,121.831436 C104.930558,120.544715 104.815657,119.236314 104.737266,117.926829 L3.16357422,117.926829 L3.16357422,142.073171 Z M115,145 L0,145 L0,115 L107.509933,115 L107.564699,116.405962 C107.631278,118.104607 107.764434,119.815176 107.960948,121.491057 C108.594516,127.041192 109.914271,132.533875 111.880481,137.822764 C112.537674,139.578862 113.25715,141.290515 114.017432,142.908943 L115,145 Z" id="Fill-21" fill="#4A555F"></path>
            <path d="M222.367741,58.7719634 C223.320154,59.5787854 224.224084,60.3877704 225.10108,61.2194676 C225.668865,61.7353577 226.244191,62.3020799 226.809821,62.8698835 C230.25747,66.330782 233.364664,70.1518303 236.041979,74.2270383 C236.701342,75.2480033 237.327306,76.2635607 237.915561,77.2661398 L270.063813,45.9925957 L276.127366,45.9925957 L276.127366,53.4508319 L296.914536,32.2809484 L276.127366,11.1197171 L276.127366,21.8950083 L260.093642,21.8950083 L222.367741,58.7719634 Z M237.229263,82 L236.309172,80.331198 C235.497897,78.8592346 234.58858,77.34401 233.608154,75.8255408 C231.043965,71.9244592 228.062826,68.2569884 224.752006,64.9345258 C224.219775,64.4002496 223.677847,63.8659734 223.126223,63.36198 C221.903385,62.2047421 220.65038,61.1113145 219.277785,59.9984193 L218,58.9644759 L258.911745,18.9748752 L273.218412,18.9748752 L273.218412,4 L301,32.2809484 L273.218412,60.5737937 L273.218412,48.9127288 L271.2414,48.9127288 L237.229263,82 Z" id="Fill-23" fill="#4A555F"></path>
            <path d="M280.085123,44.1944428 L280.085123,42.108322 L268.676454,42.108322 L234.789728,75 C232.186058,71.0480927 229.155309,67.3045803 225.687724,63.8313303 C225.135989,63.2788665 224.573414,62.7264026 224,62.2043297 L261.771635,25.4226116 L280.085123,25.4226116 L280.085123,20 L292,32.0977641 L280.085123,44.1944428 Z" id="Fill-24" fill="#E88C59"></path>
            <path d="M3.16357422,39.9816708 L78.5702068,39.9816708 L115.425964,75.3459021 C116.046592,74.3543816 116.70194,73.3661014 117.406114,72.3583795 C119.831121,68.8966985 122.598992,65.6110717 125.630521,62.5922266 C126.590758,61.6374291 127.605246,60.6826315 128.730406,59.6749097 C129.643988,58.8680842 130.578185,58.0828605 131.527572,57.3289592 L88.6141818,15.9162368 L3.16357422,15.9162368 L3.16357422,39.9816708 Z M116.055272,80 L77.3875415,42.8979075 L0,42.8979075 L0,13 L89.8001021,13 L136,57.5838599 L134.641562,58.6099433 C133.29289,59.629546 131.960493,60.7193545 130.683431,61.8491263 C129.601672,62.8168848 128.624075,63.7360395 127.701813,64.6551941 C124.79072,67.5530694 122.135691,70.7047653 119.80942,74.0249549 C118.778657,75.5014347 117.85748,76.9325509 116.995979,78.4003901 L116.055272,80 Z" id="Fill-25" fill="#4A555F"></path>
            <path d="M259.450655,219.043043 L278.013859,219.043043 L278.013859,228.894485 L298.896247,207.775464 L278.013859,186.646729 L278.013859,194.993524 L269.439483,194.993524 L232.757864,158.408161 C231.997068,159.359089 231.207052,160.294906 230.397556,161.203738 C229.397591,162.313334 228.413859,163.350612 227.469087,164.293984 C224.46811,167.287087 221.174935,170.036251 217.683714,172.464841 C216.692407,173.152402 215.698935,173.807582 214.715203,174.423904 L259.450655,219.043043 Z M275.092966,236 L275.092966,221.957352 L258.24074,221.957352 L210,173.843201 L211.625484,172.887956 C213.064828,172.041727 214.540967,171.094037 216.013859,170.074029 C219.363309,167.743662 222.52229,165.105673 225.403142,162.233461 C226.311119,161.326787 227.258056,160.327287 228.219061,159.260866 C229.344563,157.997999 230.436516,156.673608 231.459208,155.330867 L232.471077,154 L270.649398,192.079215 L275.092966,192.079215 L275.092966,179.539055 L303,207.775464 L275.092966,236 Z" id="Fill-26" fill="#4A555F"></path>
            <path d="M86.4797363,19 L128.318848,59.9216309 C127.295903,60.8529658 125.552233,62.6033597 124.571239,63.5978729 C121.584155,66.6217161 119.678907,68.9966595 117.342592,72.3875903 L80.8442383,36.7456055 L6.66943359,36.7456055 L6.66943359,19 L86.4797363,19 Z" id="Fill-27" fill="#666288"></path>
            <path d="M281.073387,220 L281.073387,215.47736 L260.275597,215.47736 L216,171.114171 C219.377688,168.753918 222.599132,166.068601 225.612251,163.050608 C226.601795,162.058019 227.562044,161.033902 228.489742,160 L267.176366,198.764246 L281.073387,198.764246 L281.073387,195.756038 L293,207.872583 L281.073387,220 Z" id="Fill-28" fill="#666288"></path>
            <path d="M176.495824,62.5088148 C162.831645,62.5088148 149.984299,67.8671006 140.319155,77.5964199 C130.661555,87.3203146 125.342439,100.247898 125.340284,113.998915 C125.339206,127.752102 130.658322,140.68294 140.319155,150.40792 C149.975678,160.129645 162.818713,165.483591 176.480737,165.483591 C190.142761,165.483591 202.985797,160.129645 212.641242,150.40792 C222.302075,140.681855 227.624424,127.749932 227.625502,113.993491 C227.627657,100.238134 222.309618,87.3083808 212.652018,77.5866558 C202.994418,67.8638459 190.153537,62.5088148 176.495824,62.5088148 M176.480737,168.412802 C162.040674,168.412802 148.468092,162.755085 138.263063,152.47898 C128.052645,142.200705 122.431796,128.53431 122.431796,113.99783 C122.431796,99.4646054 128.0548,85.8014646 138.263063,75.5253594 C148.476713,65.2427448 162.054683,59.579604 176.495824,59.579604 C190.931577,59.579604 204.502003,65.2394901 214.709188,75.5155953 C224.916373,85.7906157 230.535066,99.4559262 230.535066,113.993491 C230.535066,128.53214 224.909907,142.19962 214.69949,152.47898 C204.493382,162.755085 190.920801,168.412802 176.480737,168.412802 M176.494746,44.9292107 C158.164487,44.9292107 140.931242,52.1155411 127.969668,65.1635476 C101.221068,92.0938432 101.221068,135.911581 127.969668,162.840792 C140.929086,175.885544 158.156944,183.070789 176.480737,183.070789 C194.805609,183.070789 212.033466,175.885544 224.990729,162.840792 C237.950147,149.794955 245.088279,132.448603 245.090436,113.99783 C245.093667,95.5459723 237.958768,78.1996203 225.000427,65.1548685 C212.046397,52.1122864 194.81854,44.9292107 176.494746,44.9292107 M176.480737,186 C157.378905,186 139.420423,178.510985 125.912498,164.911852 C98.0291673,136.84025 98.0291673,91.16409 125.912498,63.0924871 C139.423656,49.4911852 157.387525,42 176.494746,42 C195.596579,42 213.553983,49.4879306 227.057597,63.083808 C240.565522,76.6818552 248.002155,94.7637646 248,113.99783 C247.997844,133.230811 240.556901,151.31272 227.048977,164.911852 C213.539974,178.510985 195.58257,186 176.480737,186" id="Fill-29" fill="#4A555F"></path>
            <path d="M175.495824,62.5088148 C161.831645,62.5088148 148.984299,67.8671006 139.319155,77.5964199 C129.661555,87.3203146 124.342439,100.247898 124.340284,113.998915 C124.339206,127.752102 129.658322,140.68294 139.319155,150.40792 C148.975678,160.129645 161.818713,165.483591 175.480737,165.483591 C189.142761,165.483591 201.985797,160.129645 211.641242,150.40792 C221.302075,140.681855 226.624424,127.749932 226.625502,113.993491 C226.627657,100.238134 221.309618,87.3083808 211.652018,77.5866558 C201.994418,67.8638459 189.153537,62.5088148 175.495824,62.5088148 M175.480737,168.412802 C161.040674,168.412802 147.468092,162.755085 137.263063,152.47898 C127.052645,142.200705 121.431796,128.53431 121.431796,113.99783 C121.431796,99.4646054 127.0548,85.8014646 137.263063,75.5253594 C147.476713,65.2427448 161.054683,59.579604 175.495824,59.579604 C189.931577,59.579604 203.502003,65.2394901 213.709188,75.5155953 C223.916373,85.7906157 229.535066,99.4559262 229.535066,113.993491 C229.535066,128.53214 223.909907,142.19962 213.69949,152.47898 C203.493382,162.755085 189.920801,168.412802 175.480737,168.412802 M175.494746,44.9292107 C157.164487,44.9292107 139.931242,52.1155411 126.969668,65.1635476 C100.221068,92.0938432 100.221068,135.911581 126.969668,162.840792 C139.929086,175.885544 157.156944,183.070789 175.480737,183.070789 C193.805609,183.070789 211.033466,175.885544 223.990729,162.840792 C236.950147,149.794955 244.088279,132.448603 244.090436,113.99783 C244.093667,95.5459723 236.958768,78.1996203 224.000427,65.1548685 C211.046397,52.1122864 193.81854,44.9292107 175.494746,44.9292107 M124.912498,164.911852 C97.0291673,136.84025 97.0291673,91.16409 124.912498,63.0924871 C138.423656,49.4911852 156.387525,42 175.494746,42 C194.596579,42 212.553983,49.4879306 226.057597,63.083808 C239.565522,76.6818552 247.002155,94.7637646 247,113.99783 C246.997844,133.230811 239.556901,151.31272 226.048977,164.911852 C212.539974,178.510985 194.58257,186 175.480737,186 C156.378905,186 138.420423,178.510985 124.912498,164.911852 Z" id="Fill-30" fill="#4A555F"></path>
            <path d="M221.928992,68.0308677 C209.659555,55.7840919 193.351145,49.0302283 176,49 L176,56.1198419 C191.443071,56.1500702 205.958064,62.1644203 216.882979,73.0671168 C239.492145,95.6336149 239.487818,132.356669 216.873244,154.928565 C205.953737,165.826943 191.441989,171.839134 176,171.872601 L176,179 C193.346818,178.966533 209.64982,172.21159 221.920338,159.964814 C234.222225,147.68673 240.997836,131.362374 241,113.997301 C241.002163,96.632228 234.228716,80.3078718 221.928992,68.0308677" id="Fill-31" fill="#DFDFDF"></path>
            <path d="M361,211 C361,224.806286 349.806286,236 336,236 C322.191793,236 311,224.806286 311,211 C311,197.193714 322.191793,186 336,186 C349.806286,186 361,197.193714 361,211" id="Fill-33" fill="#4DA341"></path>
            <polygon id="Fill-34" fill="#FFFFFF" points="331.809554 224 320 211.491575 324.114242 207.580455 331.950194 215.878686 349.0222 199 353 203.050126"></polygon>
            <path d="M134.592824,142.091144 L171.140294,142.091144 L174.866981,138.484163 L154.392721,117.908856 L126.083415,117.908856 C126.827465,126.591252 129.751134,134.907348 134.592824,142.091144 L134.592824,142.091144 Z M172.30676,145 L133.076848,145 L132.644784,144.378367 C126.949687,136.192631 123.643271,126.564318 123.084697,116.535229 L123,115 L155.110107,115 L178.518757,138.522948 L172.30676,145 Z" id="Fill-39" fill="#4A555F"></path>
            <path d="M178.11891,100.921133 L194.877062,117.892769 L221.533866,91.8068566 C219.037266,86.3526183 215.625708,81.4128694 211.385874,77.1113478 C209.88556,75.5885027 208.284653,74.156833 206.620609,72.8445596 L178.11891,100.921133 Z M195.775391,120.984619 L174.934713,99.8775311 L206.375551,69 L207.361136,69.738086 C209.493894,71.3347396 211.535692,73.1180856 213.428742,75.0392799 C218.162974,79.8411804 221.919111,85.3974482 224.593353,91.5539536 L225,92.4895861 L195.775391,120.984619 Z" id="Fill-40" fill="#4A555F"></path>
            <path d="M196.01628,112.264972 L184.018311,100.149414 L207.371574,77 C208.123858,77.6730865 208.866497,78.3754377 209.580203,79.0972986 C212.975127,82.5310155 215.801015,86.393947 218,90.6275638 L196.01628,112.264972 Z" id="Fill-42" fill="#E88C59"></path>
            <path d="M134.958921,90.3265065 C137.08589,86.5708151 139.719332,83.1119691 142.814686,80.0141217 C143.85589,78.9680954 144.959045,77.9612134 146.113281,77 L213.346191,143.841309 C212.386501,144.997157 211.369208,146.113861 210.300833,147.181634 C207.206565,150.270783 203.748203,152.905421 199.989869,155.037705 L134.958921,90.3265065 Z" id="Fill-43" fill="#666288"></path>
            <path d="M130.542112,90.3103511 L199.66755,159.454746 C204.585703,156.986311 209.069773,153.748255 213.0069,149.818732 C214.889732,147.935384 216.627146,145.909835 218.183331,143.785505 L146.162564,71.8220574 C144.016027,73.4036359 142.006226,75.1306718 140.178739,76.9673435 C136.239442,80.9077208 133.002273,85.3919353 130.542112,90.3103511 L130.542112,90.3103511 Z M199.067431,163 L127.52316,91.4999637 L127.968094,90.5664308 C130.621422,84.9793449 134.206942,79.905702 138.626985,75.4844467 C140.854913,73.2472242 143.335693,71.1630577 145.999874,69.2938209 L147.005859,68.5871582 L222,143.456597 L221.298957,144.463944 C219.4693,147.094119 217.375938,149.594033 215.076387,151.892044 C210.658514,156.30353 205.586262,159.890033 200.001793,162.553858 L199.067431,163 Z" id="Fill-44" fill="#4A555F"></path>
            <path d="M167.335937,136.753662 L164.738053,139 L136.872925,139 C133.997704,133.816611 131.407279,128.036232 130.524536,122 L152.982178,122 L167.335937,136.753662 Z" id="Fill-41" fill="#E88C59"></path>
            <g id="warning" transform="translate(307.000000, 0.000000)" fill-rule="nonzero">
                <path d="M55.5279197,44.5513163 C57.3275742,47.7907088 55.0685973,51.84 51.4741633,51.84 L4.68529162,51.84 C1.08393514,51.84 -1.16460922,47.7844313 0.631535272,44.5513163 L24.0262636,2.42848173 C25.8267956,-0.812429493 30.3364618,-0.806556993 32.1337763,2.42848173 L55.5279197,44.5513163 Z" id="Path" fill="#FFD552" transform="translate(28.080000, 25.920000) rotate(-360.000000) translate(-28.080000, -25.920000) "></path>
                <path d="M28.08,36.72 C25.6941391,36.72 23.76,38.6541391 23.76,41.04 C23.76,43.4258609 25.6941391,45.36 28.08,45.36 C30.4658609,45.36 32.4,43.4258609 32.4,41.04 C32.4,38.6541391 30.4658609,36.72 28.08,36.72 Z" id="Path" fill="#FF3333"></path>
                <path d="M23.7617983,18.646632 L24.4952588,33.334632 C24.5295687,34.021944 25.049853,34.56 25.6799884,34.56 L30.4800119,34.56 C31.1101473,34.56 31.6304316,34.021944 31.6647415,33.334632 L32.398202,18.646632 C32.4352805,17.90424 31.8941333,17.28 31.2134725,17.28 L24.946429,17.28 C24.2657681,17.28 23.7247198,17.90424 23.7617983,18.646632 L23.7617983,18.646632 Z" id="Path" fill="#FF3333"></path>
            </g>
        </g>
    </g>
</svg>