<svg xmlns="http://www.w3.org/2000/svg" width="261" height="236" xmlns:v="https://vecta.io/nano"><defs><filter x="-14.1%" y="-14.1%" width="128.1%" height="128.1%" id="A"><feOffset dy="4" in="SourceAlpha"/><feGaussianBlur stdDeviation="12.5"/><feColorMatrix values="0 0 0 0 0   0 0 0 0 0   0 0 0 0 0  0 0 0 0.219158893 0" result="C"/><feMerge><feMergeNode in="C"/><feMergeNode in="SourceGraphic"/></feMerge></filter></defs><g filter="url(#A)" transform="translate(-195 -228)" opacity=".4"><g transform="translate(237 270)"><path d="M0 148.545C0 150.453 1.548 152 3.457 152h170.086c1.909 0 3.457-1.547 3.457-3.455V3.455C177 1.547 175.452 0 173.543 0H3.457C1.548 0 0 1.547 0 3.455v145.091zM170.086 6.909v13.818h-66.029c-1.909 0-3.457 1.547-3.457 3.455s1.548 3.455 3.457 3.455h66.029v117.455H6.914V27.636h66.03c1.909 0 3.457-1.547 3.457-3.455s-1.548-3.455-3.457-3.455H6.914V6.909h163.172z"/><path d="M86.757 101.566l31.097 17.971c.534.309 1.129.463 1.725.463s1.196-.155 1.732-.467l30.971-17.99c.006-.003.011-.008.017-.012 1.014-.596 1.688-1.704 1.699-2.941 0-.011.002-.023.002-.034V62.57c0-1.229-.652-2.365-1.713-2.984l-31.05-18.121a3.47 3.47 0 0 0-3.475 0l-31.05 18.121C85.652 60.205 85 61.342 85 62.57v35.986a3.49 3.49 0 0 0 1.757 3.01h0zm32.818 10.99l-24.225-14 24.226-14.002 24.101 14.002-24.102 14zM147.1 92.56l-24.15-14.03V50.461l24.15 14.094V92.56zm-31.05-42.099v28.155L91.9 92.575v-28.02l24.15-14.094z"/><path d="M36.5 59h21a3.5 3.5 0 1 0 0-7h-21a3.5 3.5 0 1 0 0 7z"/><path d="M67.571 73H26.429C24.535 73 23 74.567 23 76.5s1.535 3.5 3.429 3.5h41.143C69.465 80 71 78.433 71 76.5S69.465 73 67.571 73z"/><path d="M67.571 93H26.429C24.535 93 23 94.567 23 96.5s1.535 3.5 3.429 3.5h41.143C69.465 100 71 98.433 71 96.5S69.465 93 67.571 93z"/><path d="M67.571 114H26.429c-1.893 0-3.429 1.567-3.429 3.5s1.535 3.5 3.429 3.5h41.143c1.893 0 3.429-1.567 3.429-3.5s-1.535-3.5-3.429-3.5z"/><circle cx="88.5" cy="24.5" r="3.5"/></g></g></svg>