<svg xmlns="http://www.w3.org/2000/svg" width="123" height="110" xmlns:v="https://vecta.io/nano"><path d="M122.997 61.72c-.025-1.186-.705-2.58-2.09-3.2L94.065 46.121V16.729c-.004-1.227-.697-2.66-2.116-3.285L62.974.32a3.6 3.6 0 0 0-2.924-.02L31.116 12.942c-1.145.515-2.172 1.716-2.161 3.304v29.847L2.14 58.017C1.013 58.53-.015 59.735 0 61.311v32.182c0 1.425.838 2.715 2.138 3.294l28.934 12.883c.586.083.804.697 2.924.001l27.502-12.228 27.463 12.228c.586.083.804.697 2.924.001l28.974-12.883c1.301-.579 2.139-1.87 2.139-3.295v-31.7l-.003-.074zm-90.433-9.342l20.415 9.09-20.443 10.015-20.422-10.012 20.451-9.093zm25.325-19.697v23.081l-21.733-9.683V22.026l21.733 10.655zm28.975 13.404l-12.145 5.4-9.629 4.281v-23.05l21.773-10.297v23.666zM36.136 77.746l21.753-10.657v24.07l-21.753 9.672V77.746zm28.958-10.654l21.73 10.653v23.082l-21.715-9.668-.015-24.067zm25.358 4.404l-20.45-10.026 20.433-9.085 20.451 9.447-20.434 9.664zM61.464 7.55l20.421 9.25-20.367 9.632-20.391-9.997L61.464 7.55zM7.202 67.091l21.733 10.655v23.082L7.202 91.151v-24.06zm86.824 33.74v-23.05l21.773-10.297V91.15l-21.773 9.681z" fill="#374356"/></svg>