<svg xmlns="http://www.w3.org/2000/svg" width="113" height="113" fill="none" stroke="#374356" stroke-width="9.384" stroke-linecap="round" stroke-linejoin="round" xmlns:v="https://vecta.io/nano"><path d="M88.988 32.958A37.67 37.67 0 0 1 94.167 56.5v4.708a28.25 28.25 0 0 0 3.767 14.125M37.667 51.792c0-10.401 8.432-18.833 18.833-18.833s18.833 8.432 18.833 18.833V56.5a47.08 47.08 0 0 0 9.417 28.25M56.5 51.792v9.417a65.92 65.92 0 0 0 11.771 37.667M37.667 70.625a84.75 84.75 0 0 0 8.475 28.25m-23.071-9.417A103.59 103.59 0 0 1 18.833 56.5v-4.708a37.67 37.67 0 0 1 56.5-32.723"/></svg>