<svg xmlns="http://www.w3.org/2000/svg" width="281" height="282" xmlns:v="https://vecta.io/nano"><defs><filter x="-14.1%" y="-14.1%" width="128.1%" height="128.1%" id="A"><feOffset dy="4" in="SourceAlpha"/><feGaussianBlur stdDeviation="12.5"/><feColorMatrix values="0 0 0 0 0   0 0 0 0 0   0 0 0 0 0  0 0 0 0.219158893 0" result="C"/><feMerge><feMergeNode in="C"/><feMergeNode in="SourceGraphic"/></feMerge></filter></defs><g filter="url(#A)" transform="translate(-198 -217)" opacity=".4"><g transform="translate(240 259)"><path d="M179 104h-5.625v-6H179v6zm-9.375 0H164v-6h5.625v6z"/><path d="M168.709 67.67l-4.077-4.088-4.126 4.138L171.754 79 183 67.72l-4.126-4.138-4.328 4.34V22H143v5.852h25.709z"/><path d="M138.089 170.036l-4.05-4.036L123 177l11.039 11 4.05-4.037-4.126-4.109H143v-5.707h-9.037z"/><path d="M101.387 127.228l23.66-23.769h5.901l-4.16 4.177 4.084 4.103L142 100.559l-11.128-11.18-4.084 4.103 4.16 4.177h-5.901l-23.66-23.769V49.894c11.438-1.332 20.534-10.472 21.861-21.96h11.732v-5.801h-11.732C121.811 9.692 111.264 0 98.5 0 84.761 0 73.583 11.229 73.583 25.034c0 12.822 9.646 23.416 22.03 24.86V73.89L71.955 97.659h-5.901l4.158-4.177-4.082-4.103L55 100.559l11.13 11.18 4.082-4.103-4.158-4.177h5.901l23.658 23.769v28.956H77.688V198h41.626v-16.132h-5.774v10.331H83.463v-30.215h30.077v12.149h5.774v-17.95h-17.927v-28.956zM79.357 25.034c0-10.605 8.587-19.233 19.143-19.233s19.146 8.629 19.146 19.233-8.587 19.232-19.146 19.232-19.143-8.627-19.143-19.232h0zM98.5 79.194l21.269 21.365L98.5 121.924l-21.266-21.365L98.5 79.194z"/><path d="M189.478 82H153.52L146 89.505v21.991l7.52 7.507h15.071v55.191h-17.649V180h23.466v-60.999h15.07l7.522-7.506v-21.99L189.478 82zm1.704 27.09l-4.115 4.105h-31.137l-4.113-4.105v-17.18l4.113-4.105h31.137l4.115 4.105v17.18z"/><path d="M58.834 169.688l4.145 4.19H28.757V150H23v29.696h39.979l-4.145 4.189L62.905 188 74 176.787l-11.095-11.213z"/><path d="M22.591 143h5.817v-23.77h15.069L51 111.678V89.553L43.477 82H7.522L0 89.553v22.125l7.522 7.552h15.07V143zM5.817 109.259V91.974l4.112-4.13h31.139l4.113 4.13v17.285l-4.113 4.13H9.93l-4.112-4.13z"/></g></g></svg>