<svg xmlns="http://www.w3.org/2000/svg" width="265" height="249" xmlns:v="https://vecta.io/nano"><defs><filter x="-14.1%" y="-14.1%" width="134.3%" height="134.6%" id="A"><feOffset dy="4" in="SourceAlpha"/><feGaussianBlur stdDeviation="12.5"/><feColorMatrix values="0 0 0 0 0   0 0 0 0 0   0 0 0 0 0  0 0 0 0.219158893 0" result="C"/><feMerge><feMergeNode in="C"/><feMergeNode in="SourceGraphic"/></feMerge></filter></defs><g filter="url(#A)" transform="translate(-204 -221)" opacity=".403"><g transform="translate(246 263)"><path d="M167.743 21.199H91.598L74.27 3.881C71.766 1.378 68.437 0 64.896 0H13.257C5.947 0 0 5.944 0 13.249v138.501C0 159.056 5.947 165 13.257 165h154.486c7.31 0 13.257-5.944 13.257-13.249V34.449c0-7.306-5.947-13.249-13.257-13.249zM13.257 5.3h51.639c2.125 0 4.122.827 5.624 2.328l18.105 18.095a2.65 2.65 0 0 0 1.875.776h77.243c4.386 0 7.954 3.566 7.954 7.95v10.607c-1.542-1.16-3.345-1.992-5.303-2.391v-8.216a2.65 2.65 0 0 0-2.651-2.65H13.257a2.65 2.65 0 0 0-2.651 2.65v29.416c-1.958.399-3.76 1.231-5.303 2.391V13.249c0-4.384 3.568-7.95 7.954-7.95zm21.211 37.099a2.65 2.65 0 1 0 0 5.3h70.842L89.402 63.597H15.908V47.698h7.954a2.65 2.65 0 1 0 0-5.3h-7.954v-5.3h149.184v5.3H34.468zm141.229 109.352c0 4.384-3.568 7.95-7.954 7.95H13.257c-4.386 0-7.954-3.566-7.954-7.95V76.847c0-4.384 3.568-7.95 7.954-7.95H90.5c.703 0 1.377-.279 1.875-.776l18.104-18.095c1.503-1.502 3.5-2.328 5.625-2.328h51.639c4.386 0 7.954 3.566 7.954 7.95v96.103z"/></g></g></svg>