<svg xmlns="http://www.w3.org/2000/svg" width="122" height="122" xmlns:v="https://vecta.io/nano"><path d="M118.9 99.415L64.416 32.261c.776-1.323.612-2.929-.303-4.058l-4.448-5.486c8.135-6.063 13.714-7.665 25.934-8.103 3.561-.127 4.755-4.849 1.682-6.653-18.627-10.938-36.079-10.598-50.468.983L21.629 21.165c-1.542 1.241-1.781 3.503-.532 5.039 1.222 1.503 1.026 3.728-.544 4.992-1.538 1.238-3.797.998-5.037-.534s-3.483-1.771-5.018-.538l-6.503 5.227A10.68 10.68 0 0 0 2.39 50.412l8.993 11.092c3.718 4.586 10.484 5.299 15.078 1.601l6.501-5.226c1.542-1.239 1.784-3.498.537-5.036-1.24-1.529-.998-3.758.534-4.991a3.6 3.6 0 0 1 5.045.533c.976 1.204 2.572 1.604 3.956 1.119l54.323 67.338c4.817 5.973 13.548 6.884 19.495 2.076a13.85 13.85 0 0 0 2.047-19.502h0zM48.735 45.184l10.262-8.259 7.784 9.594-10.294 8.273-7.752-9.608zm-23.115 4.3a10.64 10.64 0 0 0 .545 4.688l-4.184 3.363a3.6 3.6 0 0 1-5.045-.533L7.943 45.91c-1.238-1.527-.999-3.757.533-4.99l4.2-3.375c3.761 2.308 8.733 2.139 12.36-.781 3.702-2.979 4.847-7.808 3.395-11.898l12.865-10.354c9.096-7.321 19.454-9.187 30.901-5.597-7.171 1.591-12.685 4.673-19.845 10.435-1.541 1.24-1.781 3.498-.535 5.035l4.486 5.533-14.388 11.58c-6.736-4.126-15.464.183-16.294 7.986h0zm86.739 63.875c-2.879 2.327-7.102 1.889-9.437-1.005L60.974 60.356l10.31-8.286 42.065 51.848c2.339 2.882 1.896 7.107-.991 9.441h0z" fill="#374356"/></svg>