<svg xmlns="http://www.w3.org/2000/svg" width="98" height="114" xmlns:v="https://vecta.io/nano"><path d="M81.181 108.774c-5.308 0-9.966-3.361-11.591-8.364l-5.912-18.013H34.103l-5.493 17.849c-1.658 5.1-6.351 8.515-11.686 8.515a12.24 12.24 0 0 1-3.782-.601c-6.377-1.914-9.997-8.778-8.044-15.292l24.963-79.071c1.621-5.03 6.393-8.538 11.605-8.538H54.94c5.242 0 10.013 3.449 11.603 8.387l26.252 79.042c2.099 6.462-1.377 13.399-7.744 15.472-1.259.409-2.561.616-3.87.616h0 0z" stroke="#374356" stroke-width="9" fill="none" stroke-linejoin="round"/></svg>