<svg xmlns="http://www.w3.org/2000/svg" width="94" height="112" fill="#374356" xmlns:v="https://vecta.io/nano"><path d="M79.9 37.333v-4.667C79.9 14.658 65.142 0 47 0S14.1 14.658 14.1 32.667v4.667c-7.774 0-14.1 6.281-14.1 14V98c0 7.719 6.326 14 14.1 14h65.8c7.774 0 14.1-6.281 14.1-14V51.333c0-7.719-6.326-14-14.1-14zm-56.4-4.667C23.5 19.801 34.042 9.333 47 9.333S70.5 19.8 70.5 32.666v4.667h-47v-4.667zM84.6 98c0 2.576-2.11 4.667-4.7 4.667H14.1c-2.59 0-4.7-2.091-4.7-4.667V51.333c0-2.576 2.11-4.667 4.7-4.667h65.8c2.59 0 4.7 2.091 4.7 4.667V98h0zM47 55.667c-7.774 0-14.1 6.281-14.1 14 0 6.076 3.943 11.209 9.4 13.141v7.859c0 2.581 2.106 4.667 4.7 4.667s4.7-2.086 4.7-4.667v-7.859c5.457-1.932 9.4-7.065 9.4-13.141 0-7.719-6.326-14-14.1-14zm0 18.667c-2.59 0-4.7-2.091-4.7-4.667S44.41 65 47 65s4.7 2.091 4.7 4.667-2.11 4.667-4.7 4.667z"/></svg>