<svg xmlns="http://www.w3.org/2000/svg" width="497" height="497" opacity=".122" xmlns:v="https://vecta.io/nano"><path d="M248.034 120.042c13.232 0 24-10.768 24-24s-10.768-24-24-24-24 10.768-24 24 10.768 24 24 24zm0-32c4.416 0 8 3.584 8 8s-3.584 8-8 8-8-3.584-8-8 3.584-8 8-8zm0 64c30.872 0 56-25.128 56-56s-25.128-56-56-56-56 25.128-56 56 25.128 56 56 56zm0-96c22.056 0 40 17.944 40 40s-17.944 40-40 40-40-17.944-40-40 17.944-40 40-40z"/><path d="M470.962 390.29c5.592-5.768 9.072-13.6 9.072-22.248 0-17.648-14.352-32-32-32-3.576 0-6.96.728-10.176 1.816-19.944-28.432-44.32-59.04-71.544-89.84 10.192-11.528 20.016-23.064 29.36-34.472a31.78 31.78 0 0 0 12.36 2.496c17.648 0 32-14.352 32-32 0-7.312-2.56-13.976-6.696-19.368 34.392-48.032 82.776-126.832 53.84-155.776-12.72-12.72-36.464-11.528-70.352 3.144-5.88-7.256-14.744-12-24.792-12-17.648 0-32 14.352-32 32 0 3.544.712 6.888 1.784 10.072-12.024 7.696-24.64 16.368-37.664 25.912-.928-.648-1.736-1.472-2.224-2.64-.728-1.736-.616-3.64.296-5.24l1.024-1.8c4.88-8.56 3.424-19.424-3.544-26.408l-7.568-7.568c-6.976-6.96-17.816-8.432-26.4-3.536l-1.8 1.032c-1.592.904-3.504 1.016-5.384.232-1.704-.712-2.96-2.136-3.44-3.888l-.56-2.008c-2.608-9.52-11.312-16.16-21.168-16.16h-10.704a22.02 22.02 0 0 0-21.176 16.168l-.544 2c-.48 1.76-1.736 3.176-3.576 3.944-1.744.728-3.656.616-5.24-.296l-1.8-1.024a22.03 22.03 0 0 0-26.408 3.544l-7.568 7.568c-6.96 6.976-8.424 17.832-3.536 26.4l1.032 1.8c.904 1.6 1.016 3.504.232 5.384-.44 1.064-1.224 1.856-2.136 2.488-49.56-36.32-132.992-89.2-163.064-59.12-23.072 23.064 3.28 77.992 31.168 122.168-4.936 5.632-8.032 12.92-8.032 20.976 0 17.648 14.352 32 32 32 4.032 0 7.856-.832 11.408-2.2 16.28 21.584 34.448 43.736 54.28 66.168C50.738 337.402-26.67 451.626 8.89 487.186c5.936 5.936 14.192 8.904 24.728 8.904 17.68-.008 41.856-8.464 72.152-25.136 5.768 5.6 13.608 9.088 22.264 9.088 17.648 0 32-14.352 32-32 0-3.576-.728-6.952-1.808-10.168a870.36 870.36 0 0 0 33.808-24.968v43.336c-9.656 7.312-16 18.784-16 31.792v8h64 16 64v-8c0-13.016-6.344-24.488-16-31.792v-43.368c38.112 29.408 113.84 83.096 158.64 83.096 9.944 0 18.36-2.648 24.504-8.792 15.912-15.896 10.408-48.512-16.216-96.888h0zm-6.928-22.248a16.02 16.02 0 0 1-16 16 16.02 16.02 0 0 1-16-16 16.02 16.02 0 0 1 16-16 16.02 16.02 0 0 1 16 16zm-56-168a16.02 16.02 0 0 1-16-16 16.02 16.02 0 0 1 16-16 16.02 16.02 0 0 1 16 16 16.02 16.02 0 0 1-16 16zM475.866 20.21c12.056 12.056-.632 58.248-55.128 134.488-3.896-1.696-8.184-2.656-12.704-2.656-17.648 0-32 14.352-32 32 0 7.472 2.68 14.256 6.984 19.712-8.752 10.68-17.936 21.464-27.448 32.264l-5.544-6.112c-4.576-24.688-17.488-46.992-36.992-63.088l6.672-6.672c6.96-6.976 8.424-17.832 3.536-26.4l-1.032-1.8c-.904-1.6-1.016-3.504-.232-5.384.712-1.704 2.136-2.96 3.888-3.44l2.008-.552c9.52-2.616 16.16-11.32 16.16-21.176V90.69c0-5.144-1.84-9.952-4.92-13.76 10.832-7.8 21.32-14.936 31.384-21.376 5.696 5.224 13.216 8.488 21.536 8.488 17.648 0 32-14.352 32-32 0-1.88-.24-3.696-.552-5.496 26.072-11.248 45.04-13.672 52.384-6.336zM304.034 320.042h16v24c0 4.416-3.584 8-8 8h-8v-32zm24-16h-24v-64h-16v80h-80v-80h-16v64h-24c-4.416 0-8-3.584-8-8v-46.416c0-29.344 13.968-56.392 37.424-73.616l14.32 55.592 13.48-13.48-9.696 55.952 32.472 43.304 32.472-43.296-9.696-55.944 13.472 13.48 14.32-55.6c23.464 17.224 37.432 44.264 37.432 73.608v46.416c0 4.416-3.584 8-8 8h0zm-152 16h16v32h-8c-4.416 0-8-3.584-8-8v-24zm87.528-50.04l-15.528 20.704-15.528-20.704 12.4-71.52 3.128-3.128 3.128 3.136 12.4 71.512zm.784-80.96c4.872-2.832 8.648-7.456 10.216-13.16l.544-2c.48-1.76 1.736-3.176 3.576-3.944 1.616-.688 3.368-.568 4.904.192l-7.808 30.344-11.432-11.432zm-44.064 11.44l-7.816-30.352c1.536-.752 3.288-.872 5.048-.136 1.704.712 2.96 2.136 3.44 3.888l.552 2.008c1.56 5.696 5.336 10.328 10.208 13.152l-11.432 11.44zm171.752-184.44a16.02 16.02 0 0 1 16 16 16.02 16.02 0 0 1-16 16 16.02 16.02 0 0 1-16-16 16.02 16.02 0 0 1 16-16zM188.906 71.554c2.648-6.352 2.224-13.4-1.16-19.336l-1.024-1.8a5.98 5.98 0 0 1 .952-7.168l7.56-7.552c1.904-1.896 4.856-2.28 7.176-.96l1.8 1.016c5.944 3.408 13.008 3.824 19.448 1.112 6.304-2.616 10.944-7.88 12.736-14.44l.536-1.992c.712-2.584 3.08-4.392 5.752-4.392h10.704a5.98 5.98 0 0 1 5.744 4.384l.544 2c1.792 6.552 6.432 11.824 12.84 14.496 6.344 2.64 13.4 2.232 19.336-1.16l1.8-1.024c2.328-1.344 5.28-.936 7.168.952l7.56 7.552c1.896 1.896 2.288 4.848.96 7.176l-1.016 1.8c-3.392 5.936-3.816 12.984-1.112 19.448 2.616 6.304 7.88 10.944 14.44 12.736l1.992.536c2.584.712 4.392 3.08 4.392 5.752v10.704a5.98 5.98 0 0 1-4.384 5.744l-2 .544c-6.552 1.792-11.824 6.432-14.496 12.84-2.648 6.352-2.224 13.4 1.16 19.336l1.024 1.8a5.98 5.98 0 0 1-.952 7.168l-7.552 7.56c-1.904 1.904-4.848 2.28-7.176.96l-1.8-1.016c-5.944-3.408-13.008-3.824-19.448-1.112-6.304 2.616-10.944 7.88-12.736 14.44l-.536 1.992c-.712 2.584-3.08 4.392-5.752 4.392h-10.704a5.98 5.98 0 0 1-5.744-4.384l-.544-2c-1.792-6.552-6.432-11.824-12.84-14.496-2.76-1.152-5.656-1.728-8.528-1.728-3.736 0-7.448.968-10.808 2.88l-1.8 1.024a5.98 5.98 0 0 1-7.168-.952l-7.56-7.544c-1.896-1.896-2.288-4.848-.96-7.176l1.016-1.8c3.392-5.936 3.816-12.984 1.112-19.448-2.616-6.304-7.88-10.944-14.44-12.736l-1.992-.536c-2.584-.712-4.392-3.08-4.392-5.752V90.69a5.98 5.98 0 0 1 4.384-5.744l2-.544c6.552-1.792 11.816-6.432 14.488-12.848h0zM20.202 20.21c12.336-12.336 59.248.92 136.728 56.736-3.064 3.808-4.896 8.608-4.896 13.744v10.704a22.02 22.02 0 0 0 16.168 21.176l2 .544c1.76.48 3.176 1.736 3.944 3.576.728 1.736.616 3.64-.296 5.24l-1.024 1.8c-4.88 8.56-3.424 19.424 3.544 26.408l6.664 6.664c-22.296 18.408-36.032 44.888-38.44 73.816-20.584-23.112-39.4-45.936-56.16-68.128 4.672-5.56 7.6-12.632 7.6-20.448 0-17.648-14.352-32-32-32-3.784 0-7.36.776-10.728 1.984C14.986 61.146 11.29 29.13 20.202 20.21zm27.832 131.832a16.02 16.02 0 0 1 16-16 16.02 16.02 0 0 1 16 16 16.02 16.02 0 0 1-16 16 16.02 16.02 0 0 1-16-16h0zm80 312a16.02 16.02 0 0 1-16-16 16.02 16.02 0 0 1 16-16 16.02 16.02 0 0 1 16 16 16.02 16.02 0 0 1-16 16zm21.456-39.584c-5.688-5.176-13.176-8.416-21.456-8.416-17.648 0-32 14.352-32 32 0 3.216.616 6.256 1.504 9.184-57.24 31.384-73.64 22.312-77.336 18.64-18.52-18.52 21.664-103.904 120.32-215.824l3.512 3.912v32.088c0 10.416 6.712 19.216 16 22.528v25.472c0 13.232 10.768 24 24 24h8v24.496c-14.592 11.608-28.848 22.296-42.544 31.92zm43.912 55.584c3.304-9.312 12.2-16 22.632-16s19.328 6.688 22.632 16h-45.264zm64 0c3.304-9.312 12.2-16 22.632-16s19.328 6.688 22.632 16h-45.264zm22.632-32c-9.04 0-17.296 3.128-24 8.208v-84.896l13.656-13.656-11.312-11.312-18.344 18.344v91.52c-6.704-5.08-14.96-8.208-24-8.208-2.736 0-5.416.28-8 .808V336.042h80V448.85c-2.584-.528-5.264-.808-8-.808zm195.832 27.832c-14.888 14.88-78.6-9.16-171.832-83.352v-24.48h8c13.232 0 24-10.768 24-24V318.57c9.288-3.312 16-12.112 16-22.528V256.01c27.616 31.072 52.304 61.968 72.408 90.592-5.168 5.688-8.408 13.168-8.408 21.44 0 17.648 14.352 32 32 32 3.216 0 6.264-.624 9.192-1.504 31.384 57.24 22.328 73.64 18.64 77.336z"/></svg>