<svg width="257" height="55" viewBox="0 0 257 55" xmlns="http://www.w3.org/2000/svg">
    <g fill="none" fill-rule="evenodd">
        <g>
            <circle fill="#096324" cx="27.5" cy="27.5" r="27.5"/>
            <path d="M31.06 26.706c.132-1.3.815-2.408 1.593-3.267.937-1.034 2.254-1.55 3.95-1.55 1.696 0 3.012.516 3.95 1.55.937 1.034 1.406 2.389 1.406 4.06 0 1.674-.469 3.028-1.406 4.061-.938 1.035-2.254 1.552-3.95 1.552-1.696 0-2.709-.441-3.68-1.303-.6 2.465-2.174 4.015-3.55 4.968-.011.007.577.725 2.521 1.536 1.451.605 3.042.822 4.709.822 1.666 0 3.236-.274 4.708-.822 1.474-.547 2.752-1.33 3.839-2.35a11.027 11.027 0 0 0 2.566-3.672c.625-1.43.938-3.027.938-4.791 0-1.764-.313-3.36-.938-4.79-.625-1.43-1.48-2.654-2.566-3.673-1.087-1.02-2.365-1.803-3.839-2.35-1.472-.548-3.042-.822-4.708-.822-1.667 0-3.236.274-4.709.822-1.473.547-2.753 1.33-3.838 2.35-1.087 1.019-1.72 2.157-2.236 3.631-.78 2.227-.844 6.896-3.464 9.209-1.044.922-2.263 1.235-3.959 1.235-1.696 0-3.012-.517-3.95-1.552-.937-1.033-1.406-2.387-1.406-4.06 0-1.672.469-3.027 1.406-4.06.938-1.035 2.254-1.552 3.95-1.552 1.696 0 3.204.508 4.004 1.551.625-1.754 1.893-4.422 3.148-5.495a11.638 11.638 0 0 0-2.443-1.257c-1.473-.548-3.043-.822-4.709-.822-1.666 0-3.236.274-4.708.822-1.474.547-2.753 1.33-3.84 2.35-1.086 1.019-1.94 2.243-2.565 3.672-.625 1.43-.938 3.027-.938 4.79 0 1.765.313 3.362.938 4.792.624 1.43 1.48 2.653 2.566 3.672 1.086 1.02 2.365 1.803 3.839 2.35 1.472.548 3.042.822 4.708.822 1.666 0 3.236-.274 4.709-.822 1.473-.547 2.752-1.33 3.838-2.35 1.087-1.019 1.637-2.11 2.428-3.451.366-.62 1.322-2.849 1.688-5.806" fill="#FFF" fill-rule="nonzero"/>
        </g>
        <text font-family="HelveticaNeue-Bold, Helvetica Neue, Arial, 'Open Sans', Ubuntu, sans-serif" font-size="32" font-weight="bold">
                    <tspan x="63.392" y="40" fill="#000">Change</tspan>
                    <tspan x="181.344" y="40" fill="#096324">bank</tspan>
                </text>
    </g>
</svg>
