<svg width="257" height="55" viewBox="0 0 257 55" xmlns="http://www.w3.org/2000/svg">
    <g fill="none" fill-rule="evenodd">
        <g>
            <circle fill="#096324" cx="27.5" cy="27.5" r="27.5"/>
            <path d="M31.06 26.706c.132-1.3.815-2.408 1.593-3.267.937-1.034 2.254-1.55 3.95-1.55 1.696 0 3.012.516 3.95 1.55.937 1.034 1.406 2.389 1.406 4.06 0 1.674-.469 3.028-1.406 4.061-.938 1.035-2.254 1.552-3.95 1.552-1.696 0-2.709-.441-3.68-1.303-.6 2.465-2.174 4.015-3.55 4.968-.011.007.577.725 2.521 1.536 1.451.605 3.042.822 4.709.822 1.666 0 3.236-.274 4.708-.822 1.474-.547 2.752-1.33 3.839-2.35a11.027 11.027 0 0 0 2.566-3.672c.625-1.43.938-3.027.938-4.791 0-1.764-.313-3.36-.938-4.79-.625-1.43-1.48-2.654-2.566-3.673-1.087-1.02-2.365-1.803-3.839-2.35-1.472-.548-3.042-.822-4.708-.822-1.667 0-3.236.274-4.709.822-1.473.547-2.753 1.33-3.838 2.35-1.087 1.019-1.72 2.157-2.236 3.631-.78 2.227-.844 6.896-3.464 9.209-1.044.922-2.263 1.235-3.959 1.235-1.696 0-3.012-.517-3.95-1.552-.937-1.033-1.406-2.387-1.406-4.06 0-1.672.469-3.027 1.406-4.06.938-1.035 2.254-1.552 3.95-1.552 1.696 0 3.204.508 4.004 1.551.625-1.754 1.893-4.422 3.148-5.495a11.638 11.638 0 0 0-2.443-1.257c-1.473-.548-3.043-.822-4.709-.822-1.666 0-3.236.274-4.708.822-1.474.547-2.753 1.33-3.84 2.35-1.086 1.019-1.94 2.243-2.565 3.672-.625 1.43-.938 3.027-.938 4.79 0 1.765.313 3.362.938 4.792.624 1.43 1.48 2.653 2.566 3.672 1.086 1.02 2.365 1.803 3.839 2.35 1.472.548 3.042.822 4.708.822 1.666 0 3.236-.274 4.709-.822 1.473-.547 2.752-1.33 3.838-2.35 1.087-1.019 1.637-2.11 2.428-3.451.366-.62 1.322-2.849 1.688-5.806"
                  fill="#FFF" fill-rule="nonzero"/>
        </g>
        <g>
            <g fill="#000">
                <path d="M85.7 24.83L80.83 24.83Q80.61 23.14 79.17 21.98Q77.73 20.83 75.84 20.83Q72.67 20.83 71.04 23.26Q69.63 25.34 69.63 28.67Q69.63 31.87 71.04 33.92Q72.7 36.32 75.84 36.32Q78.08 36.32 79.46 34.88Q80.74 33.54 81.02 31.2L85.89 31.2Q85.5 35.46 82.77 38Q80.03 40.54 75.84 40.54Q70.69 40.54 67.58 37.09Q64.61 33.79 64.61 28.67Q64.61 23.42 67.58 20.1Q70.66 16.61 75.84 16.61Q79.74 16.61 82.43 18.75Q85.25 20.99 85.7 24.83ZM88.83 40L88.83 17.15L93.38 17.15L93.38 25.76L93.47 25.76Q94.3 24.42 95.68 23.68Q96.96 23.01 98.3 23.01Q101.73 23.01 103.14 24.86Q104.35 26.46 104.35 29.82L104.35 40L99.81 40L99.81 30.66Q99.81 26.59 96.9 26.59Q95.04 26.59 94.21 27.71Q93.38 28.83 93.38 31.33L93.38 40ZM118.11 33.6L118.11 31.9Q117.57 32.38 115.74 32.64Q113.66 32.96 112.99 33.25Q111.65 33.86 111.65 35.3Q111.65 37.41 114.43 37.41Q118.11 37.41 118.11 33.6ZM112.16 28.54L107.62 28.54Q107.81 25.6 110.21 24.19Q112.19 23.01 115.39 23.01Q122.66 23.01 122.66 27.71L122.66 36.32Q122.66 39.07 123.23 40L118.62 40Q118.34 39.1 118.3 38.4Q116.35 40.45 112.74 40.45Q110.24 40.45 108.74 39.23Q107.1 37.92 107.1 35.49Q107.1 32.96 108.86 31.71Q110.14 30.85 112.74 30.46Q116.42 29.95 116.48 29.92Q118.11 29.5 118.11 28.29Q118.11 26.94 117.22 26.43Q116.58 26.05 115.17 26.05Q112.38 26.05 112.16 28.54ZM126.18 40L126.18 23.46L130.5 23.46L130.5 25.76L130.59 25.76Q132.29 23.01 135.65 23.01Q139.07 23.01 140.48 24.86Q141.7 26.46 141.7 29.82L141.7 40L137.15 40L137.15 30.66Q137.15 26.59 134.24 26.59Q132.38 26.59 131.55 27.71Q130.72 28.83 130.72 31.33L130.72 40ZM161.06 23.46L161.06 38.94Q161.06 46.27 152.48 46.27Q149.7 46.27 147.68 45.02Q145.34 43.58 145.18 40.96L149.7 40.96Q150.24 43.23 153.09 43.23Q156.74 43.23 156.74 39.14L156.74 36.96L156.67 36.96Q155.2 39.52 151.71 39.52Q148.19 39.52 146.3 37.06Q144.64 34.85 144.64 31.2Q144.64 27.78 146.46 25.5Q148.42 23.01 151.74 23.01Q155.17 23.01 156.67 25.66L156.74 25.66L156.74 23.46ZM152.86 36.1Q154.72 36.1 155.78 34.69Q156.74 33.44 156.74 31.52Q156.74 26.43 152.86 26.43Q151.04 26.43 150.08 27.87Q149.18 29.12 149.18 31.14Q149.18 33.18 149.98 34.5Q150.94 36.1 152.86 36.1ZM180.38 32.83L168.45 32.83Q168.64 37.02 172.51 37.02Q173.82 37.02 174.88 36.32Q175.87 35.71 176.1 34.88L180.1 34.88Q178.27 40.45 172.35 40.45Q168.48 40.45 166.19 38.03Q163.9 35.62 163.9 31.74Q163.9 27.97 166.26 25.49Q168.61 23.01 172.35 23.01Q176.38 23.01 178.59 26.02Q180.64 28.77 180.38 32.83ZM168.45 29.95L175.84 29.95Q175.2 26.43 172.22 26.43Q170.3 26.43 169.28 27.71Q168.51 28.67 168.45 29.95Z"/>
            </g>
            <path d=""/>
            <g fill="#096324">
                <path d="M183.07 40L183.07 17.15L187.62 17.15L187.62 25.47L187.68 25.47Q189.31 23.01 192.9 23.01Q195.65 23.01 197.57 25.09Q199.74 27.49 199.74 31.71Q199.74 35.97 197.57 38.37Q195.65 40.45 192.9 40.45Q188.86 40.45 187.46 37.89L187.39 37.89L187.39 40ZM195.2 31.74Q195.2 29.47 194.27 28.03Q193.25 26.43 191.33 26.43Q189.41 26.43 188.38 28.03Q187.46 29.47 187.46 31.74Q187.46 33.98 188.38 35.42Q189.44 37.02 191.33 37.02Q193.22 37.02 194.27 35.42Q195.2 33.98 195.2 31.74ZM212.93 33.6L212.93 31.9Q212.38 32.38 210.56 32.64Q208.48 32.96 207.81 33.25Q206.46 33.86 206.46 35.3Q206.46 37.41 209.25 37.41Q212.93 37.41 212.93 33.6ZM206.98 28.54L202.43 28.54Q202.62 25.6 205.02 24.19Q207.01 23.01 210.21 23.01Q217.47 23.01 217.47 27.71L217.47 36.32Q217.47 39.07 218.05 40L213.44 40Q213.15 39.1 213.12 38.4Q211.17 40.45 207.55 40.45Q205.06 40.45 203.55 39.23Q201.92 37.92 201.92 35.49Q201.92 32.96 203.68 31.71Q204.96 30.85 207.55 30.46Q211.23 29.95 211.3 29.92Q212.93 29.5 212.93 28.29Q212.93 26.94 212.03 26.43Q211.39 26.05 209.98 26.05Q207.2 26.05 206.98 28.54ZM220.99 40L220.99 23.46L225.31 23.46L225.31 25.76L225.41 25.76Q227.1 23.01 230.46 23.01Q233.89 23.01 235.3 24.86Q236.51 26.46 236.51 29.82L236.51 40L231.97 40L231.97 30.66Q231.97 26.59 229.06 26.59Q227.2 26.59 226.37 27.71Q225.54 28.83 225.54 31.33L225.54 40ZM240.38 40L240.38 17.15L244.93 17.15L244.93 29.41L250.66 23.46L256.03 23.46L249.79 29.54L256.74 40L251.23 40L246.69 32.61L244.93 34.3L244.93 40Z"/>
            </g>
        </g>
    </g>
</svg>
