<?xml version="1.0" encoding="UTF-8"?>
<svg width="400px" height="400px" viewBox="0 0 400 400" version="1.1" xmlns="http://www.w3.org/2000/svg" xmlns:xlink="http://www.w3.org/1999/xlink">
    <!-- Generator: Sketch 56.3 (81716) - https://sketch.com -->
    <title>3.0-docs-join-community</title>
    <desc>Created with Sketch.</desc>
    <defs>
        <filter x="-3.7%" y="-3.9%" width="107.3%" height="106.8%" filterUnits="objectBoundingBox" id="filter-1">
            <feOffset dx="0" dy="2" in="SourceAlpha" result="shadowOffsetOuter1"></feOffset>
            <feGaussianBlur stdDeviation="1.5" in="shadowOffsetOuter1" result="shadowBlurOuter1"></feGaussianBlur>
            <feColorMatrix values="0 0 0 0 0   0 0 0 0 0   0 0 0 0 0  0 0 0 0.5 0" type="matrix" in="shadowBlurOuter1" result="shadowMatrixOuter1"></feColorMatrix>
            <feMerge>
                <feMergeNode in="shadowMatrixOuter1"></feMergeNode>
                <feMergeNode in="SourceGraphic"></feMergeNode>
            </feMerge>
        </filter>
    </defs>
    <g id="3.0-docs-join-community" stroke="none" stroke-width="1" fill="none" fill-rule="evenodd">
        <g id="DESKTOP-MESSAGING" filter="url(#filter-1)" transform="translate(16.000000, 16.000000)" fill-rule="nonzero">
            <path d="M340.2504,0 C355.55832,0 368.01216,12.45384 368.01216,27.76176 L368.01216,274.69008 C368.01216,290.08368 355.4892,302.60664 340.09488,302.60664 L28.54512,302.60664 C13.15152,302.60664 0.62856,290.08296 0.62856,274.69008 L0.62856,27.918 C0.62856,12.5244 13.15152,0 28.54584,0 L340.2504,0 Z" id="Shape" stroke="#4B555F" stroke-width="7.2" fill="#FFFFFF"></path>
            <path d="M29.25432,31.84344 L29.25432,246.51432 L341.11368,246.51432 L341.11368,31.84344 L29.25432,31.84344 Z M335.92464,241.32528 L34.44336,241.32528 L34.44336,37.03248 L335.92464,37.03248 L335.92464,241.32528 Z" id="Shape" fill="#4B555F"></path>
            <path d="M342.22176,11.24352 L28.54512,11.24352 C19.33632,11.24352 11.87136,18.70848 11.87136,27.918 L11.87136,274.6908 C11.87136,283.8996 19.33632,291.36384 28.54512,291.36384 L340.09488,291.36384 C349.30368,291.36384 356.76864,283.89888 356.76864,274.69008 L356.76864,25.7904 C356.76864,17.75592 350.25624,11.24352 342.22176,11.24352 Z M347.16744,252.56808 L23.20056,252.56808 L23.20056,25.7904 L347.16744,25.7904 L347.16744,252.56808 Z" id="Shape" fill="#EC8D53"></path>
            <path d="M223.43256,299.5704 L148.67568,299.5704 L128.41056,346.02552 L243.69768,346.02552 L223.43256,299.5704 Z M152.13456,304.528888 L219.97296,304.528888 L235.9116,341.067032 L136.1952,341.067032 L152.13456,304.528888 Z" id="Shape" fill="#4B555F"></path>
            <polygon id="Path" fill="#EC8D53" points="215.93808 310.09392 156.16944 310.09392 145.278 336.22344 226.83096 336.22344"></polygon>
            <path d="M81.5832,340.83648 L81.5832,368.64 L290.52504,368.64 L290.52504,340.83648 L81.5832,340.83648 Z M285.336,363.45096 L86.77224,363.45096 L86.77224,346.02552 L285.336,346.02552 L285.336,363.45096 Z" id="Shape" fill="#4B555F"></path>
            <rect id="Rectangle" fill="#EC8D53" x="92.826" y="352.08" width="186.45624" height="5.31648"></rect>
            <rect id="Rectangle" fill="#4B555F" x="12.74472" y="363.45096" width="346.6188" height="5.18904"></rect>
            <circle id="Oval" fill="#FFFFFF" cx="186.32592" cy="272.30976" r="13.64688"></circle>
            <path d="M186.32664,256.068 C177.37056,256.068 170.08488,263.3544 170.08488,272.30976 C170.08488,281.26512 177.37128,288.5508 186.32664,288.5508 C195.28128,288.5508 202.56768,281.2644 202.56768,272.30976 C202.56768,263.3544 195.28128,256.068 186.32664,256.068 Z M186.32664,283.36248 C180.23184,283.36248 175.27392,278.40456 175.27392,272.31048 C175.27392,266.2164 180.23256,261.25776 186.32664,261.25776 C192.42072,261.25776 197.37864,266.2164 197.37864,272.31048 C197.37864,278.40456 192.42072,283.36248 186.32664,283.36248 Z" id="Shape" fill="#4B555F"></path>
            <polygon id="Path" fill="#4B555F" points="151.28784 93.26088 151.28784 88.07184 51.75432 88.07184 51.75432 221.45976 151.28784 221.45976 151.28784 216.27 56.94336 216.27 56.94336 93.26088"></polygon>
            <rect id="Rectangle" fill="#4B555F" x="54.34848" y="152.71416" width="96.93864" height="5.18904"></rect>
            <rect id="Rectangle" fill="#4B555F" x="54.34848" y="173.89944" width="96.93864" height="5.18904"></rect>
            <rect id="Rectangle" fill="#4B555F" x="54.34848" y="195.08544" width="96.93864" height="5.18904"></rect>
            <path d="M307.02528,52.09416 L63.47016,52.09416 C57.01032,52.09416 51.75432,57.35016 51.75432,63.81 L51.75432,93.26088 L318.74112,93.26088 L318.74112,63.81 C318.74112,57.34944 313.48512,52.09416 307.02528,52.09416 Z M313.55208,88.07184 L56.94336,88.07184 L56.94336,63.81 C56.94336,60.21144 59.8716,57.2832 63.47016,57.2832 L307.02528,57.2832 C310.62384,57.2832 313.55208,60.21144 313.55208,63.81 L313.55208,88.07184 Z" id="Shape" fill="#4B555F"></path>
            <path d="M307.02816,63.33192 L63.47232,63.33192 C63.21312,63.33192 63.00504,63.55656 63.00504,63.81648 L63.00504,82.01232 L307.494722,82.01232 L307.494722,63.81648 C307.494722,63.55656 307.28736,63.33192 307.02816,63.33192 Z M74.54232,79.45272 C70.7544,79.45272 67.67568,76.374 67.67568,72.58608 C67.67568,68.79816 70.7544,65.71944 74.54232,65.71944 C78.33024,65.71944 81.40896,68.79816 81.40896,72.58608 C81.40896,76.374 78.33024,79.45272 74.54232,79.45272 Z M95.95584,79.45272 C92.15064,79.45272 89.0892,76.374 89.0892,72.58608 C89.0892,68.79816 92.15064,65.71944 95.95584,65.71944 C99.74376,65.71944 102.82248,68.79816 102.82248,72.58608 C102.82248,76.374 99.74376,79.45272 95.95584,79.45272 Z M117.35208,79.45272 C113.56416,79.45272 110.48544,76.374 110.48544,72.58608 C110.48544,68.79816 113.56416,65.71944 117.35208,65.71944 C121.14,65.71944 124.21872,68.79816 124.21872,72.58608 C124.21872,76.374 121.14,79.45272 117.35208,79.45272 Z" id="Shape" fill="#71CBDF"></path>
            <path d="M74.54448,63.12024 C69.32664,63.12024 65.0808,67.36608 65.0808,72.58392 C65.0808,77.80176 69.32592,82.0476 74.54448,82.0476 C79.76232,82.0476 84.00816,77.80176 84.00816,72.58392 C84.00816,67.36608 79.76232,63.12024 74.54448,63.12024 Z M74.54448,76.85856 C72.1872,76.85856 70.26984,74.9412 70.26984,72.58392 C70.26984,70.22664 72.1872,68.30928 74.54448,68.30928 C76.90176,68.30928 78.81912,70.22664 78.81912,72.58392 C78.81912,74.9412 76.90176,76.85856 74.54448,76.85856 Z" id="Shape" fill="#4B555F"></path>
            <path d="M95.95008,63.12024 C90.73224,63.12024 86.4864,67.36608 86.4864,72.58392 C86.4864,77.80176 90.73152,82.0476 95.95008,82.0476 C101.16792,82.0476 105.41376,77.80176 105.41376,72.58392 C105.41376,67.36608 101.1672,63.12024 95.95008,63.12024 Z M95.95008,76.85856 C93.5928,76.85856 91.67544,74.9412 91.67544,72.58392 C91.67544,70.22664 93.5928,68.30928 95.95008,68.30928 C98.30736,68.30928 100.22472,70.22664 100.22472,72.58392 C100.22472,74.9412 98.30736,76.85856 95.95008,76.85856 Z" id="Shape" fill="#4B555F"></path>
            <path d="M117.35424,63.12024 C112.1364,63.12024 107.89056,67.36608 107.89056,72.58392 C107.89056,77.80176 112.1364,82.0476 117.35424,82.0476 C122.57208,82.0476 126.81792,77.80176 126.81792,72.58392 C126.81792,67.36608 122.57208,63.12024 117.35424,63.12024 Z M117.35424,76.85856 C114.99696,76.85856 113.0796,74.9412 113.0796,72.58392 C113.0796,70.22664 114.99696,68.30928 117.35424,68.30928 C119.71152,68.30928 121.62888,70.22664 121.62888,72.58392 C121.62888,74.9412 119.71152,76.85856 117.35424,76.85856 Z" id="Shape" fill="#4B555F"></path>
            <path d="M148.69296,88.07184 L148.69296,104.9472 C148.69296,107.92224 146.27232,110.34288 143.29728,110.34288 L51.75432,110.34288 L51.75432,136.71792 L143.29728,136.71792 C146.27232,136.71792 148.69296,139.13856 148.69296,142.1136 L148.69296,221.45904 L318.74112,221.45904 L318.74112,88.07184 L148.69296,88.07184 Z M313.55208,216.27 L153.882,216.27 L153.882,142.1136 C153.882,136.27656 149.13432,131.52888 143.29728,131.52888 L56.94336,131.52888 L56.94336,115.53192 L143.29728,115.53192 C149.13432,115.53192 153.882,110.78424 153.882,104.9472 L153.882,93.26088 L313.55208,93.26088 L313.55208,216.27 L313.55208,216.27 Z" id="Shape" fill="#4B555F"></path>
            <path d="M290.08224,109.7316 L179.99496,109.7316 C175.95432,109.7316 172.67904,113.00688 172.67904,117.04752 L172.67904,151.55928 L184.32,141.50376 L290.08224,141.50376 C294.12288,141.50376 297.39816,134.766 297.39816,130.72608 L297.39816,117.04752 C297.39816,113.00688 294.12288,109.7316 290.08224,109.7316 Z" id="Path" fill="#FFD351"></path>
            <path d="M290.08224,162.77616 L179.99496,162.77616 C175.95432,162.77616 172.67904,166.05144 172.67904,170.09208 L172.67904,187.23312 C172.67904,191.27376 175.95432,194.54904 179.99496,194.54904 L285.7572,194.54904 L297.39816,204.60384 L297.39816,170.09208 C297.39816,166.05144 294.12288,162.77616 290.08224,162.77616 Z" id="Path" fill="#FFD351"></path>
            <path d="M290.08224,107.13672 L179.99568,107.13672 C174.53016,107.13672 170.08488,111.58272 170.08488,117.0468 L170.08488,157.22712 L185.28624,144.09792 L290.08296,144.09792 C295.73208,144.09792 299.99304,140.08608 299.99304,134.76528 L299.99304,117.04608 C299.99304,111.58272 295.54704,107.13672 290.08224,107.13672 Z M294.80328,134.766 C294.80328,137.61288 292.356,138.9096 290.08224,138.9096 L183.3552,138.9096 L175.2732,145.89 L175.2732,117.0468 C175.2732,114.444 177.39144,112.32576 179.99496,112.32576 L290.08224,112.32576 C292.68504,112.32576 294.80328,114.444 294.80328,117.0468 L294.80328,134.766 Z" id="Shape" fill="#4B555F"></path>
            <path d="M290.08224,160.182 L179.99568,160.182 C174.53016,160.182 170.08488,164.628 170.08488,170.09208 L170.08488,187.2324 C170.08488,192.69792 174.53088,197.1432 179.99568,197.1432 L284.7924,197.1432 L299.99304,210.27312 L299.99304,170.09208 C299.99304,164.62728 295.54704,160.182 290.08224,160.182 Z M294.804,198.93384 L286.72272,191.95416 L179.99568,191.95416 C177.39216,191.95416 175.27392,189.83592 175.27392,187.2324 L175.27392,170.09208 C175.27392,167.48928 177.39216,165.37104 179.99568,165.37104 L290.08296,165.37104 C292.68576,165.37104 294.804,167.48928 294.804,170.09208 L294.804,198.93384 L294.804,198.93384 Z" id="Shape" fill="#4B555F"></path>
            <path d="M206.00352,127.85904 L211.19256,127.85904 L211.19256,122.67 L206.00352,122.67 L206.00352,127.85904 Z M216.38232,127.85904 L221.57136,127.85904 L221.57136,122.67 L216.38232,122.67 L216.38232,127.85904 Z M185.24808,127.85904 L190.43712,127.85904 L190.43712,122.67 L185.24808,122.67 L185.24808,127.85904 Z M226.75968,127.85904 L231.94872,127.85904 L231.94872,122.67 L226.75968,122.67 L226.75968,127.85904 Z M195.62616,127.85904 L200.8152,127.85904 L200.8152,122.67 L195.62616,122.67 L195.62616,127.85904 Z M268.272,127.85904 L273.46104,127.85904 L273.46104,122.67 L268.272,122.67 L268.272,127.85904 Z M237.13776,127.85904 L242.3268,127.85904 L242.3268,122.67 L237.13776,122.67 L237.13776,127.85904 Z M257.89464,127.85904 L263.08368,127.85904 L263.08368,122.67 L257.89464,122.67 L257.89464,127.85904 Z M278.65008,122.67 L278.65008,127.85904 L283.83912,127.85904 L283.83912,122.67 L278.65008,122.67 Z M247.51584,127.85904 L252.70488,127.85904 L252.70488,122.67 L247.51584,122.67 L247.51584,127.85904 Z" id="Shape" fill="#4B555F"></path>
            <path d="M216.38232,181.85688 L221.57136,181.85688 L221.57136,176.66784 L216.38232,176.66784 L216.38232,181.85688 Z M226.75968,181.85688 L231.94872,181.85688 L231.94872,176.66784 L226.75968,176.66784 L226.75968,181.85688 Z M206.00352,181.85688 L211.19256,181.85688 L211.19256,176.66784 L206.00352,176.66784 L206.00352,181.85688 Z M195.62616,181.85688 L200.8152,181.85688 L200.8152,176.66784 L195.62616,176.66784 L195.62616,181.85688 Z M185.24808,181.85688 L190.43712,181.85688 L190.43712,176.66784 L185.24808,176.66784 L185.24808,181.85688 Z M237.13776,181.85688 L242.3268,181.85688 L242.3268,176.66784 L237.13776,176.66784 L237.13776,181.85688 Z M268.272,181.85688 L273.46104,181.85688 L273.46104,176.66784 L268.272,176.66784 L268.272,181.85688 Z M278.65008,176.66784 L278.65008,181.85688 L283.83912,181.85688 L283.83912,176.66784 L278.65008,176.66784 Z M257.89464,181.85688 L263.08368,181.85688 L263.08368,176.66784 L257.89464,176.66784 L257.89464,181.85688 Z M247.51584,181.85688 L252.70488,181.85688 L252.70488,176.66784 L247.51584,176.66784 L247.51584,181.85688 Z" id="Shape" fill="#4B555F"></path>
        </g>
    </g>
</svg>