<?xml version="1.0" encoding="UTF-8" standalone="no"?><svg xmlns="http://www.w3.org/2000/svg" xmlns:xlink="http://www.w3.org/1999/xlink" contentScriptType="application/ecmascript" contentStyleType="text/css" height="3063px" preserveAspectRatio="none" style="width:1110px;height:3063px;" version="1.1" viewBox="0 0 1110 3063" width="1110px" zoomAndPan="magnify"><defs/><g><rect fill="#D8D8D8" height="40.4883" rx="4" ry="4" style="stroke: #979797; stroke-width: 1.0;" width="76" x="495.5" y="1708.043"/><text fill="#000000" font-family="sans-serif" font-size="14" lengthAdjust="spacingAndGlyphs" textLength="52" x="507.5" y="1733.5781">Forums</text><line style="stroke: #CDCDCD; stroke-width: 1.0; stroke-dasharray: 5.0,5.0;" x1="97" x2="97" y1="44.4883" y2="3013.4688"/><line style="stroke: #CDCDCD; stroke-width: 1.0; stroke-dasharray: 5.0,5.0;" x1="455.5" x2="455.5" y1="44.4883" y2="3013.4688"/><line style="stroke: #CDCDCD; stroke-width: 1.0; stroke-dasharray: 5.0,5.0;" x1="533.5" x2="533.5" y1="1742.2207" y2="3013.4688"/><line style="stroke: #CDCDCD; stroke-width: 1.0; stroke-dasharray: 5.0,5.0;" x1="639" x2="639" y1="44.4883" y2="3013.4688"/><line style="stroke: #CDCDCD; stroke-width: 1.0; stroke-dasharray: 5.0,5.0;" x1="1057" x2="1057" y1="44.4883" y2="3013.4688"/><rect fill="#D8D8D8" height="40.4883" rx="4" ry="4" style="stroke: #979797; stroke-width: 1.0;" width="79" x="58" y="3"/><text fill="#000000" font-family="sans-serif" font-size="14" lengthAdjust="spacingAndGlyphs" textLength="55" x="70" y="28.5352">Browser</text><rect fill="#D8D8D8" height="40.4883" rx="4" ry="4" style="stroke: #979797; stroke-width: 1.0;" width="79" x="58" y="3012.4688"/><text fill="#000000" font-family="sans-serif" font-size="14" lengthAdjust="spacingAndGlyphs" textLength="55" x="70" y="3038.0039">Browser</text><rect fill="#D8D8D8" height="40.4883" rx="4" ry="4" style="stroke: #979797; stroke-width: 1.0;" width="60" x="425.5" y="3"/><text fill="#000000" font-family="sans-serif" font-size="14" lengthAdjust="spacingAndGlyphs" textLength="36" x="437.5" y="28.5352">Store</text><rect fill="#D8D8D8" height="40.4883" rx="4" ry="4" style="stroke: #979797; stroke-width: 1.0;" width="60" x="425.5" y="3012.4688"/><text fill="#000000" font-family="sans-serif" font-size="14" lengthAdjust="spacingAndGlyphs" textLength="36" x="437.5" y="3038.0039">Store</text><rect fill="#D8D8D8" height="40.4883" rx="4" ry="4" style="stroke: #979797; stroke-width: 1.0;" width="76" x="495.5" y="3012.4688"/><text fill="#000000" font-family="sans-serif" font-size="14" lengthAdjust="spacingAndGlyphs" textLength="52" x="507.5" y="3038.0039">Forums</text><rect fill="#D8D8D8" height="40.4883" rx="4" ry="4" style="stroke: #979797; stroke-width: 1.0;" width="103" x="588" y="3"/><text fill="#000000" font-family="sans-serif" font-size="14" lengthAdjust="spacingAndGlyphs" textLength="79" x="600" y="28.5352">FusionAuth</text><rect fill="#D8D8D8" height="40.4883" rx="4" ry="4" style="stroke: #979797; stroke-width: 1.0;" width="103" x="588" y="3012.4688"/><text fill="#000000" font-family="sans-serif" font-size="14" lengthAdjust="spacingAndGlyphs" textLength="79" x="600" y="3038.0039">FusionAuth</text><rect fill="#D8D8D8" height="40.4883" rx="4" ry="4" style="stroke: #979797; stroke-width: 1.0;" width="71" x="1022" y="3"/><text fill="#000000" font-family="sans-serif" font-size="14" lengthAdjust="spacingAndGlyphs" textLength="47" x="1034" y="28.5352">Hacker</text><rect fill="#D8D8D8" height="40.4883" rx="4" ry="4" style="stroke: #979797; stroke-width: 1.0;" width="71" x="1022" y="3012.4688"/><text fill="#000000" font-family="sans-serif" font-size="14" lengthAdjust="spacingAndGlyphs" textLength="47" x="1034" y="3038.0039">Hacker</text><rect fill="#3F2C61" height="3" style="stroke: #3F2C61; stroke-width: 1.0;" width="1095" x="3" y="80.1436"/><line style="stroke: #FFFFFF; stroke-width: 0.5;" x1="3" x2="1098" y1="80.1436" y2="80.1436"/><line style="stroke: #FFFFFF; stroke-width: 0.5;" x1="3" x2="1098" y1="83.1436" y2="83.1436"/><rect fill="#3F2C61" height="33.3105" style="stroke: #FFFFFF; stroke-width: 1.0;" width="86" x="507.5" y="64.4883"/><text fill="#FFFFFF" font-family="sans-serif" font-size="13" font-weight="bold" lengthAdjust="spacingAndGlyphs" textLength="58" x="518.5" y="86.0566">Initialize</text><polygon fill="#56666F" points="443.5,135.1094,453.5,139.1094,443.5,143.1094,447.5,139.1094" style="stroke: #56666F; stroke-width: 1.0;"/><line style="stroke: #56666F; stroke-width: 1.0;" x1="97.5" x2="449.5" y1="139.1094" y2="139.1094"/><text fill="#000000" font-family="sans-serif" font-size="13" font-weight="bold" lengthAdjust="spacingAndGlyphs" textLength="9" x="109.5" y="129.3672">1</text><text fill="#000000" font-family="sans-serif" font-size="13" lengthAdjust="spacingAndGlyphs" textLength="35" x="132.5" y="129.3672">GET /</text><polygon fill="#56666F" points="108.5,174.4199,98.5,178.4199,108.5,182.4199,104.5,178.4199" style="stroke: #56666F; stroke-width: 1.0;"/><line style="stroke: #56666F; stroke-width: 1.0;" x1="102.5" x2="454.5" y1="178.4199" y2="178.4199"/><text fill="#000000" font-family="sans-serif" font-size="13" font-weight="bold" lengthAdjust="spacingAndGlyphs" textLength="9" x="119.5" y="168.6777">2</text><text fill="#000000" font-family="sans-serif" font-size="13" lengthAdjust="spacingAndGlyphs" textLength="180" x="142.5" y="168.6777">(SPA HTML, CSS &amp; JavaScript)</text><polygon fill="#56666F" points="443.5,229.041,453.5,233.041,443.5,237.041,447.5,233.041" style="stroke: #56666F; stroke-width: 1.0;"/><line style="stroke: #56666F; stroke-width: 1.0;" x1="97.5" x2="449.5" y1="233.041" y2="233.041"/><text fill="#000000" font-family="sans-serif" font-size="13" font-weight="bold" lengthAdjust="spacingAndGlyphs" textLength="9" x="109.5" y="215.6436">3</text><text fill="#000000" font-family="sans-serif" font-size="13" lengthAdjust="spacingAndGlyphs" textLength="122" x="132.5" y="207.9883">AJAX GET /api/user</text><text fill="#000000" font-family="sans-serif" font-size="13" lengthAdjust="spacingAndGlyphs" textLength="79" x="132.5" y="223.2988">[No cookies]</text><polygon fill="#EB8C52" points="108.5,268.3516,98.5,272.3516,108.5,276.3516,104.5,272.3516" style="stroke: #EB8C52; stroke-width: 1.0;"/><line style="stroke: #EB8C52; stroke-width: 1.0;" x1="102.5" x2="454.5" y1="272.3516" y2="272.3516"/><text fill="#000000" font-family="sans-serif" font-size="13" font-weight="bold" lengthAdjust="spacingAndGlyphs" textLength="9" x="119.5" y="262.6094">4</text><text fill="#EB8C52" font-family="sans-serif" font-size="13" lengthAdjust="spacingAndGlyphs" textLength="77" x="142.5" y="262.6094">404 Missing</text><rect fill="#3F2C61" height="3" style="stroke: #3F2C61; stroke-width: 1.0;" width="1095" x="3" y="306.0068"/><line style="stroke: #FFFFFF; stroke-width: 0.5;" x1="3" x2="1098" y1="306.0068" y2="306.0068"/><line style="stroke: #FFFFFF; stroke-width: 0.5;" x1="3" x2="1098" y1="309.0068" y2="309.0068"/><rect fill="#3F2C61" height="33.3105" style="stroke: #FFFFFF; stroke-width: 1.0;" width="150" x="475.5" y="290.3516"/><text fill="#FFFFFF" font-family="sans-serif" font-size="13" font-weight="bold" lengthAdjust="spacingAndGlyphs" textLength="122" x="486.5" y="311.9199">Login (inside SPA)</text><line style="stroke: #56666F; stroke-width: 1.0;" x1="97.5" x2="139.5" y1="364.9727" y2="364.9727"/><line style="stroke: #56666F; stroke-width: 1.0;" x1="139.5" x2="139.5" y1="364.9727" y2="377.9727"/><line style="stroke: #56666F; stroke-width: 1.0;" x1="98.5" x2="139.5" y1="377.9727" y2="377.9727"/><polygon fill="#56666F" points="108.5,373.9727,98.5,377.9727,108.5,381.9727,104.5,377.9727" style="stroke: #56666F; stroke-width: 1.0;"/><text fill="#000000" font-family="sans-serif" font-size="13" font-weight="bold" lengthAdjust="spacingAndGlyphs" textLength="9" x="109.5" y="355.2305">5</text><text fill="#000000" font-family="sans-serif" font-size="13" lengthAdjust="spacingAndGlyphs" textLength="113" x="132.5" y="355.2305">Render login form</text><polygon fill="#56666F" points="627.5,413.2832,637.5,417.2832,627.5,421.2832,631.5,417.2832" style="stroke: #56666F; stroke-width: 1.0;"/><line style="stroke: #56666F; stroke-width: 1.0;" x1="97.5" x2="633.5" y1="417.2832" y2="417.2832"/><text fill="#000000" font-family="sans-serif" font-size="13" font-weight="bold" lengthAdjust="spacingAndGlyphs" textLength="9" x="109.5" y="407.541">6</text><text fill="#000000" font-family="sans-serif" font-size="13" lengthAdjust="spacingAndGlyphs" textLength="135" x="132.5" y="407.541">AJAX POST /api/login</text><polygon fill="#56666F" points="108.5,467.9043,98.5,471.9043,108.5,475.9043,104.5,471.9043" style="stroke: #56666F; stroke-width: 1.0;"/><line style="stroke: #56666F; stroke-width: 1.0;" x1="102.5" x2="638.5" y1="471.9043" y2="471.9043"/><text fill="#000000" font-family="sans-serif" font-size="13" font-weight="bold" lengthAdjust="spacingAndGlyphs" textLength="9" x="119.5" y="454.5068">7</text><text fill="#000000" font-family="sans-serif" font-size="13" lengthAdjust="spacingAndGlyphs" textLength="31" x="142.5" y="446.8516">(JWT)</text><text fill="#000000" font-family="sans-serif" font-size="13" lengthAdjust="spacingAndGlyphs" textLength="356" x="142.5" y="462.1621">[Refresh token HttpOnly w/ domain: login.fusionauth.io]</text><rect fill="#3F2C61" height="3" style="stroke: #3F2C61; stroke-width: 1.0;" width="1095" x="3" y="505.5596"/><line style="stroke: #FFFFFF; stroke-width: 0.5;" x1="3" x2="1098" y1="505.5596" y2="505.5596"/><line style="stroke: #FFFFFF; stroke-width: 0.5;" x1="3" x2="1098" y1="508.5596" y2="508.5596"/><rect fill="#3F2C61" height="33.3105" style="stroke: #FFFFFF; stroke-width: 1.0;" width="109" x="496" y="489.9043"/><text fill="#FFFFFF" font-family="sans-serif" font-size="13" font-weight="bold" lengthAdjust="spacingAndGlyphs" textLength="81" x="507" y="511.4727">Cookie drop</text><polygon fill="#56666F" points="443.5,575.8359,453.5,579.8359,443.5,583.8359,447.5,579.8359" style="stroke: #56666F; stroke-width: 1.0;"/><line style="stroke: #56666F; stroke-width: 1.0;" x1="97.5" x2="449.5" y1="579.8359" y2="579.8359"/><text fill="#000000" font-family="sans-serif" font-size="13" font-weight="bold" lengthAdjust="spacingAndGlyphs" textLength="9" x="109.5" y="562.4385">8</text><text fill="#000000" font-family="sans-serif" font-size="13" lengthAdjust="spacingAndGlyphs" textLength="182" x="132.5" y="554.7832">AJAX POST /api/cookie-drop</text><text fill="#000000" font-family="sans-serif" font-size="13" lengthAdjust="spacingAndGlyphs" textLength="149" x="132.5" y="570.0938">(JWT from IdP response)</text><polygon fill="#56666F" points="108.5,615.1465,98.5,619.1465,108.5,623.1465,104.5,619.1465" style="stroke: #56666F; stroke-width: 1.0;"/><line style="stroke: #56666F; stroke-width: 1.0;" x1="102.5" x2="454.5" y1="619.1465" y2="619.1465"/><text fill="#000000" font-family="sans-serif" font-size="13" font-weight="bold" lengthAdjust="spacingAndGlyphs" textLength="9" x="119.5" y="609.4043">9</text><text fill="#000000" font-family="sans-serif" font-size="13" lengthAdjust="spacingAndGlyphs" textLength="292" x="142.5" y="609.4043">[JWT HttpOnly w/ domain: Store.Example.com]</text><rect fill="#3F2C61" height="3" style="stroke: #3F2C61; stroke-width: 1.0;" width="1095" x="3" y="652.8018"/><line style="stroke: #FFFFFF; stroke-width: 0.5;" x1="3" x2="1098" y1="652.8018" y2="652.8018"/><line style="stroke: #FFFFFF; stroke-width: 0.5;" x1="3" x2="1098" y1="655.8018" y2="655.8018"/><rect fill="#3F2C61" height="33.3105" style="stroke: #FFFFFF; stroke-width: 1.0;" width="155" x="473" y="637.1465"/><text fill="#FFFFFF" font-family="sans-serif" font-size="13" font-weight="bold" lengthAdjust="spacingAndGlyphs" textLength="127" x="484" y="658.7148">Shopping cart load</text><polygon fill="#56666F" points="443.5,723.0781,453.5,727.0781,443.5,731.0781,447.5,727.0781" style="stroke: #56666F; stroke-width: 1.0;"/><line style="stroke: #56666F; stroke-width: 1.0;" x1="97.5" x2="449.5" y1="727.0781" y2="727.0781"/><text fill="#000000" font-family="sans-serif" font-size="13" font-weight="bold" lengthAdjust="spacingAndGlyphs" textLength="18" x="109.5" y="709.6807">10</text><text fill="#000000" font-family="sans-serif" font-size="13" lengthAdjust="spacingAndGlyphs" textLength="221" x="141.5" y="702.0254">AJAX GET /api/load-shopping-cart</text><text fill="#000000" font-family="sans-serif" font-size="13" lengthAdjust="spacingAndGlyphs" textLength="292" x="141.5" y="717.3359">[JWT HttpOnly w/ domain: Store.Example.com]</text><polygon fill="#56666F" points="108.5,762.3887,98.5,766.3887,108.5,770.3887,104.5,766.3887" style="stroke: #56666F; stroke-width: 1.0;"/><line style="stroke: #56666F; stroke-width: 1.0;" x1="102.5" x2="454.5" y1="766.3887" y2="766.3887"/><text fill="#000000" font-family="sans-serif" font-size="13" font-weight="bold" lengthAdjust="spacingAndGlyphs" textLength="18" x="119.5" y="756.6465">11</text><text fill="#000000" font-family="sans-serif" font-size="13" lengthAdjust="spacingAndGlyphs" textLength="154" x="151.5" y="756.6465">(Shopping cart contents)</text><path d="M42,783.3887 L42,810.3887 A4,4 0 0 0 46,814.3887 L149,814.3887 A4,4 0 0 0 153,810.3887 L153,789.3887 L143,779.3887 L46,779.3887 A4,4 0 0 0 42,783.3887 " fill="#EB8C52" style="stroke: #FFFFFF; stroke-width: 1.0;"/><path d="M143,779.3887 L143,787.3887 A2,2 0 0 0 145,789.3887 L153,789.3887 L143,779.3887 " fill="#EB8C52" style="stroke: #FFFFFF; stroke-width: 1.0;"/><text fill="#FFFFFF" font-family="sans-serif" font-size="13" font-style="italic" font-weight="bold" lengthAdjust="spacingAndGlyphs" textLength="80" x="53" y="801.957">JWT expires</text><rect fill="#3F2C61" height="3" style="stroke: #3F2C61; stroke-width: 1.0;" width="1095" x="3" y="845.3545"/><line style="stroke: #FFFFFF; stroke-width: 0.5;" x1="3" x2="1098" y1="845.3545" y2="845.3545"/><line style="stroke: #FFFFFF; stroke-width: 0.5;" x1="3" x2="1098" y1="848.3545" y2="848.3545"/><rect fill="#3F2C61" height="33.3105" style="stroke: #FFFFFF; stroke-width: 1.0;" width="110" x="495.5" y="829.6992"/><text fill="#FFFFFF" font-family="sans-serif" font-size="13" font-weight="bold" lengthAdjust="spacingAndGlyphs" textLength="82" x="506.5" y="851.2676">Refresh JWT</text><polygon fill="#56666F" points="627.5,915.6309,637.5,919.6309,627.5,923.6309,631.5,919.6309" style="stroke: #56666F; stroke-width: 1.0;"/><line style="stroke: #56666F; stroke-width: 1.0;" x1="97.5" x2="633.5" y1="919.6309" y2="919.6309"/><text fill="#000000" font-family="sans-serif" font-size="13" font-weight="bold" lengthAdjust="spacingAndGlyphs" textLength="18" x="109.5" y="902.2334">12</text><text fill="#000000" font-family="sans-serif" font-size="13" lengthAdjust="spacingAndGlyphs" textLength="173" x="141.5" y="894.5781">AJAX POST /api/jwt/refresh</text><text fill="#000000" font-family="sans-serif" font-size="13" lengthAdjust="spacingAndGlyphs" textLength="291" x="141.5" y="909.8887">[Refresh token w/ domain login.fusionauth.io]</text><polygon fill="#56666F" points="108.5,954.9414,98.5,958.9414,108.5,962.9414,104.5,958.9414" style="stroke: #56666F; stroke-width: 1.0;"/><line style="stroke: #56666F; stroke-width: 1.0;" x1="102.5" x2="638.5" y1="958.9414" y2="958.9414"/><text fill="#000000" font-family="sans-serif" font-size="13" font-weight="bold" lengthAdjust="spacingAndGlyphs" textLength="18" x="119.5" y="949.1992">13</text><text fill="#000000" font-family="sans-serif" font-size="13" lengthAdjust="spacingAndGlyphs" textLength="31" x="151.5" y="949.1992">(JWT)</text><rect fill="#3F2C61" height="3" style="stroke: #3F2C61; stroke-width: 1.0;" width="1095" x="3" y="992.5967"/><line style="stroke: #FFFFFF; stroke-width: 0.5;" x1="3" x2="1098" y1="992.5967" y2="992.5967"/><line style="stroke: #FFFFFF; stroke-width: 0.5;" x1="3" x2="1098" y1="995.5967" y2="995.5967"/><rect fill="#3F2C61" height="33.3105" style="stroke: #FFFFFF; stroke-width: 1.0;" width="109" x="496" y="976.9414"/><text fill="#FFFFFF" font-family="sans-serif" font-size="13" font-weight="bold" lengthAdjust="spacingAndGlyphs" textLength="81" x="507" y="998.5098">Cookie drop</text><polygon fill="#56666F" points="443.5,1062.873,453.5,1066.873,443.5,1070.873,447.5,1066.873" style="stroke: #56666F; stroke-width: 1.0;"/><line style="stroke: #56666F; stroke-width: 1.0;" x1="97.5" x2="449.5" y1="1066.873" y2="1066.873"/><text fill="#000000" font-family="sans-serif" font-size="13" font-weight="bold" lengthAdjust="spacingAndGlyphs" textLength="18" x="109.5" y="1049.4756">14</text><text fill="#000000" font-family="sans-serif" font-size="13" lengthAdjust="spacingAndGlyphs" textLength="182" x="141.5" y="1041.8203">AJAX POST /api/cookie-drop</text><text fill="#000000" font-family="sans-serif" font-size="13" lengthAdjust="spacingAndGlyphs" textLength="184" x="141.5" y="1057.1309">(JWT from IdP response body)</text><polygon fill="#56666F" points="108.5,1102.1836,98.5,1106.1836,108.5,1110.1836,104.5,1106.1836" style="stroke: #56666F; stroke-width: 1.0;"/><line style="stroke: #56666F; stroke-width: 1.0;" x1="102.5" x2="454.5" y1="1106.1836" y2="1106.1836"/><text fill="#000000" font-family="sans-serif" font-size="13" font-weight="bold" lengthAdjust="spacingAndGlyphs" textLength="18" x="119.5" y="1096.4414">15</text><text fill="#000000" font-family="sans-serif" font-size="13" lengthAdjust="spacingAndGlyphs" textLength="292" x="151.5" y="1096.4414">[JWT HttpOnly w/ domain: Store.Example.com]</text><rect fill="#3F2C61" height="3" style="stroke: #3F2C61; stroke-width: 1.0;" width="1095" x="3" y="1139.8389"/><line style="stroke: #FFFFFF; stroke-width: 0.5;" x1="3" x2="1098" y1="1139.8389" y2="1139.8389"/><line style="stroke: #FFFFFF; stroke-width: 0.5;" x1="3" x2="1098" y1="1142.8389" y2="1142.8389"/><rect fill="#3F2C61" height="33.3105" style="stroke: #FFFFFF; stroke-width: 1.0;" width="155" x="473" y="1124.1836"/><text fill="#FFFFFF" font-family="sans-serif" font-size="13" font-weight="bold" lengthAdjust="spacingAndGlyphs" textLength="127" x="484" y="1145.752">Shopping cart load</text><polygon fill="#56666F" points="443.5,1210.1152,453.5,1214.1152,443.5,1218.1152,447.5,1214.1152" style="stroke: #56666F; stroke-width: 1.0;"/><line style="stroke: #56666F; stroke-width: 1.0;" x1="97.5" x2="449.5" y1="1214.1152" y2="1214.1152"/><text fill="#000000" font-family="sans-serif" font-size="13" font-weight="bold" lengthAdjust="spacingAndGlyphs" textLength="18" x="109.5" y="1196.7178">16</text><text fill="#000000" font-family="sans-serif" font-size="13" lengthAdjust="spacingAndGlyphs" textLength="221" x="141.5" y="1189.0625">AJAX GET /api/load-shopping-cart</text><text fill="#000000" font-family="sans-serif" font-size="13" lengthAdjust="spacingAndGlyphs" textLength="292" x="141.5" y="1204.373">[JWT HttpOnly w/ domain: Store.Example.com]</text><polygon fill="#56666F" points="108.5,1249.4258,98.5,1253.4258,108.5,1257.4258,104.5,1253.4258" style="stroke: #56666F; stroke-width: 1.0;"/><line style="stroke: #56666F; stroke-width: 1.0;" x1="102.5" x2="454.5" y1="1253.4258" y2="1253.4258"/><text fill="#000000" font-family="sans-serif" font-size="13" font-weight="bold" lengthAdjust="spacingAndGlyphs" textLength="18" x="119.5" y="1243.6836">17</text><text fill="#000000" font-family="sans-serif" font-size="13" lengthAdjust="spacingAndGlyphs" textLength="154" x="151.5" y="1243.6836">(Shopping cart contents)</text><rect fill="#3F2C61" height="3" style="stroke: #3F2C61; stroke-width: 1.0;" width="1095" x="3" y="1287.0811"/><line style="stroke: #FFFFFF; stroke-width: 0.5;" x1="3" x2="1098" y1="1287.0811" y2="1287.0811"/><line style="stroke: #FFFFFF; stroke-width: 0.5;" x1="3" x2="1098" y1="1290.0811" y2="1290.0811"/><rect fill="#3F2C61" height="33.3105" style="stroke: #FFFFFF; stroke-width: 1.0;" width="171" x="465" y="1271.4258"/><text fill="#FFFFFF" font-family="sans-serif" font-size="13" font-weight="bold" lengthAdjust="spacingAndGlyphs" textLength="143" x="476" y="1292.9941">Re-login (inside SPA)</text><path d="M8,1323.7363 L8,1350.7363 A4,4 0 0 0 12,1354.7363 L183,1354.7363 A4,4 0 0 0 187,1350.7363 L187,1329.7363 L177,1319.7363 L12,1319.7363 A4,4 0 0 0 8,1323.7363 " fill="#EB8C52" style="stroke: #FFFFFF; stroke-width: 1.0;"/><path d="M177,1319.7363 L177,1327.7363 A2,2 0 0 0 179,1329.7363 L187,1329.7363 L177,1319.7363 " fill="#EB8C52" style="stroke: #FFFFFF; stroke-width: 1.0;"/><text fill="#FFFFFF" font-family="sans-serif" font-size="13" font-style="italic" font-weight="bold" lengthAdjust="spacingAndGlyphs" textLength="148" x="19" y="1342.3047">Refresh token expires</text><polygon fill="#56666F" points="627.5,1402.668,637.5,1406.668,627.5,1410.668,631.5,1406.668" style="stroke: #56666F; stroke-width: 1.0;"/><line style="stroke: #56666F; stroke-width: 1.0;" x1="97.5" x2="633.5" y1="1406.668" y2="1406.668"/><text fill="#000000" font-family="sans-serif" font-size="13" font-weight="bold" lengthAdjust="spacingAndGlyphs" textLength="18" x="109.5" y="1389.2705">18</text><text fill="#000000" font-family="sans-serif" font-size="13" lengthAdjust="spacingAndGlyphs" textLength="173" x="141.5" y="1381.6152">AJAX POST /api/jwt/refresh</text><text fill="#000000" font-family="sans-serif" font-size="13" lengthAdjust="spacingAndGlyphs" textLength="291" x="141.5" y="1396.9258">[Refresh token w/ domain login.fusionauth.io]</text><polygon fill="#EB8C52" points="108.5,1441.9785,98.5,1445.9785,108.5,1449.9785,104.5,1445.9785" style="stroke: #EB8C52; stroke-width: 1.0;"/><line style="stroke: #EB8C52; stroke-width: 1.0;" x1="102.5" x2="638.5" y1="1445.9785" y2="1445.9785"/><text fill="#000000" font-family="sans-serif" font-size="13" font-weight="bold" lengthAdjust="spacingAndGlyphs" textLength="18" x="119.5" y="1436.2363">19</text><text fill="#EB8C52" font-family="sans-serif" font-size="13" lengthAdjust="spacingAndGlyphs" textLength="77" x="151.5" y="1436.2363">404 Missing</text><line style="stroke: #56666F; stroke-width: 1.0;" x1="97.5" x2="139.5" y1="1485.2891" y2="1485.2891"/><line style="stroke: #56666F; stroke-width: 1.0;" x1="139.5" x2="139.5" y1="1485.2891" y2="1498.2891"/><line style="stroke: #56666F; stroke-width: 1.0;" x1="98.5" x2="139.5" y1="1498.2891" y2="1498.2891"/><polygon fill="#56666F" points="108.5,1494.2891,98.5,1498.2891,108.5,1502.2891,104.5,1498.2891" style="stroke: #56666F; stroke-width: 1.0;"/><text fill="#000000" font-family="sans-serif" font-size="13" font-weight="bold" lengthAdjust="spacingAndGlyphs" textLength="18" x="109.5" y="1475.5469">20</text><text fill="#000000" font-family="sans-serif" font-size="13" lengthAdjust="spacingAndGlyphs" textLength="131" x="141.5" y="1475.5469">Login same as above</text><path d="M62,1565.2891 L62,1592.2891 A4,4 0 0 0 66,1596.2891 L1088,1596.2891 A4,4 0 0 0 1092,1592.2891 L1092,1571.2891 L1082,1561.2891 L66,1561.2891 A4,4 0 0 0 62,1565.2891 " fill="#8B80A1" style="stroke: #FFFFFF; stroke-width: 1.0;"/><path d="M1082,1561.2891 L1082,1569.2891 A2,2 0 0 0 1084,1571.2891 L1092,1571.2891 L1082,1561.2891 " fill="#8B80A1" style="stroke: #FFFFFF; stroke-width: 1.0;"/><text fill="#FFFFFF" font-family="sans-serif" font-size="13" font-style="italic" lengthAdjust="spacingAndGlyphs" textLength="429" x="358" y="1583.8574">SSO login to forums - not provided by FusionAuth for this workflow</text><rect fill="#3F2C61" height="3" style="stroke: #3F2C61; stroke-width: 1.0;" width="1095" x="3" y="1677.2549"/><line style="stroke: #FFFFFF; stroke-width: 0.5;" x1="3" x2="1098" y1="1677.2549" y2="1677.2549"/><line style="stroke: #FFFFFF; stroke-width: 0.5;" x1="3" x2="1098" y1="1680.2549" y2="1680.2549"/><rect fill="#3F2C61" height="33.3105" style="stroke: #FFFFFF; stroke-width: 1.0;" width="86" x="507.5" y="1661.5996"/><text fill="#FFFFFF" font-family="sans-serif" font-size="13" font-weight="bold" lengthAdjust="spacingAndGlyphs" textLength="58" x="518.5" y="1683.168">Initialize</text><polygon fill="#56666F" points="483.5,1747.5313,493.5,1751.5313,483.5,1755.5313,487.5,1751.5313" style="stroke: #56666F; stroke-width: 1.0;"/><line style="stroke: #56666F; stroke-width: 1.0;" x1="97.5" x2="489.5" y1="1751.5313" y2="1751.5313"/><text fill="#000000" font-family="sans-serif" font-size="13" font-weight="bold" lengthAdjust="spacingAndGlyphs" textLength="18" x="109.5" y="1734.1338">21</text><text fill="#000000" font-family="sans-serif" font-size="13" lengthAdjust="spacingAndGlyphs" textLength="35" x="141.5" y="1726.4785">GET /</text><text fill="#000000" font-family="sans-serif" font-size="13" lengthAdjust="spacingAndGlyphs" textLength="79" x="141.5" y="1741.7891">[No cookies]</text><rect fill="#D8D8D8" height="40.4883" rx="4" ry="4" style="stroke: #979797; stroke-width: 1.0;" width="76" x="495.5" y="1708.043"/><text fill="#000000" font-family="sans-serif" font-size="14" lengthAdjust="spacingAndGlyphs" textLength="52" x="507.5" y="1733.5781">Forums</text><polygon fill="#56666F" points="108.5,1786.8418,98.5,1790.8418,108.5,1794.8418,104.5,1790.8418" style="stroke: #56666F; stroke-width: 1.0;"/><line style="stroke: #56666F; stroke-width: 1.0;" x1="102.5" x2="532.5" y1="1790.8418" y2="1790.8418"/><text fill="#000000" font-family="sans-serif" font-size="13" font-weight="bold" lengthAdjust="spacingAndGlyphs" textLength="18" x="119.5" y="1781.0996">22</text><text fill="#000000" font-family="sans-serif" font-size="13" lengthAdjust="spacingAndGlyphs" textLength="180" x="151.5" y="1781.0996">(SPA HTML, CSS &amp; JavaScript)</text><polygon fill="#56666F" points="521.5,1841.4629,531.5,1845.4629,521.5,1849.4629,525.5,1845.4629" style="stroke: #56666F; stroke-width: 1.0;"/><line style="stroke: #56666F; stroke-width: 1.0;" x1="97.5" x2="527.5" y1="1845.4629" y2="1845.4629"/><text fill="#000000" font-family="sans-serif" font-size="13" font-weight="bold" lengthAdjust="spacingAndGlyphs" textLength="18" x="109.5" y="1828.0654">23</text><text fill="#000000" font-family="sans-serif" font-size="13" lengthAdjust="spacingAndGlyphs" textLength="88" x="141.5" y="1820.4102">GET /api/user</text><text fill="#000000" font-family="sans-serif" font-size="13" lengthAdjust="spacingAndGlyphs" textLength="79" x="141.5" y="1835.7207">[No cookies]</text><polygon fill="#EB8C52" points="108.5,1880.7734,98.5,1884.7734,108.5,1888.7734,104.5,1884.7734" style="stroke: #EB8C52; stroke-width: 1.0;"/><line style="stroke: #EB8C52; stroke-width: 1.0;" x1="102.5" x2="532.5" y1="1884.7734" y2="1884.7734"/><text fill="#000000" font-family="sans-serif" font-size="13" font-weight="bold" lengthAdjust="spacingAndGlyphs" textLength="18" x="119.5" y="1875.0313">24</text><text fill="#EB8C52" font-family="sans-serif" font-size="13" lengthAdjust="spacingAndGlyphs" textLength="77" x="151.5" y="1875.0313">404 Missing</text><rect fill="#3F2C61" height="3" style="stroke: #3F2C61; stroke-width: 1.0;" width="1095" x="3" y="1918.4287"/><line style="stroke: #FFFFFF; stroke-width: 0.5;" x1="3" x2="1098" y1="1918.4287" y2="1918.4287"/><line style="stroke: #FFFFFF; stroke-width: 0.5;" x1="3" x2="1098" y1="1921.4287" y2="1921.4287"/><rect fill="#3F2C61" height="33.3105" style="stroke: #FFFFFF; stroke-width: 1.0;" width="150" x="475.5" y="1902.7734"/><text fill="#FFFFFF" font-family="sans-serif" font-size="13" font-weight="bold" lengthAdjust="spacingAndGlyphs" textLength="122" x="486.5" y="1924.3418">Login (inside SPA)</text><line style="stroke: #56666F; stroke-width: 1.0;" x1="97.5" x2="139.5" y1="1977.3945" y2="1977.3945"/><line style="stroke: #56666F; stroke-width: 1.0;" x1="139.5" x2="139.5" y1="1977.3945" y2="1990.3945"/><line style="stroke: #56666F; stroke-width: 1.0;" x1="98.5" x2="139.5" y1="1990.3945" y2="1990.3945"/><polygon fill="#56666F" points="108.5,1986.3945,98.5,1990.3945,108.5,1994.3945,104.5,1990.3945" style="stroke: #56666F; stroke-width: 1.0;"/><text fill="#000000" font-family="sans-serif" font-size="13" font-weight="bold" lengthAdjust="spacingAndGlyphs" textLength="18" x="109.5" y="1967.6523">25</text><text fill="#000000" font-family="sans-serif" font-size="13" lengthAdjust="spacingAndGlyphs" textLength="113" x="141.5" y="1967.6523">Render login form</text><polygon fill="#56666F" points="627.5,2041.0156,637.5,2045.0156,627.5,2049.0156,631.5,2045.0156" style="stroke: #56666F; stroke-width: 1.0;"/><line style="stroke: #56666F; stroke-width: 1.0;" x1="97.5" x2="633.5" y1="2045.0156" y2="2045.0156"/><text fill="#000000" font-family="sans-serif" font-size="13" font-weight="bold" lengthAdjust="spacingAndGlyphs" textLength="18" x="109.5" y="2027.6182">26</text><text fill="#000000" font-family="sans-serif" font-size="13" lengthAdjust="spacingAndGlyphs" textLength="135" x="141.5" y="2019.9629">AJAX POST /api/login</text><text fill="#000000" font-family="sans-serif" font-size="13" lengthAdjust="spacingAndGlyphs" textLength="364" x="141.5" y="2035.2734">[Refresh token HttpOnly w/ domain: login.fusionauth.io -</text><text fill="#EB8C52" font-family="sans-serif" font-size="13" lengthAdjust="spacingAndGlyphs" textLength="104" x="509.5" y="2035.2734">FOR WRONG APP</text><text fill="#000000" font-family="sans-serif" font-size="13" lengthAdjust="spacingAndGlyphs" textLength="4" x="613.5" y="2035.2734">]</text><polygon fill="#56666F" points="108.5,2095.6367,98.5,2099.6367,108.5,2103.6367,104.5,2099.6367" style="stroke: #56666F; stroke-width: 1.0;"/><line style="stroke: #56666F; stroke-width: 1.0;" x1="102.5" x2="638.5" y1="2099.6367" y2="2099.6367"/><text fill="#000000" font-family="sans-serif" font-size="13" font-weight="bold" lengthAdjust="spacingAndGlyphs" textLength="18" x="119.5" y="2082.2393">27</text><text fill="#000000" font-family="sans-serif" font-size="13" lengthAdjust="spacingAndGlyphs" textLength="31" x="151.5" y="2074.584">(JWT)</text><text fill="#000000" font-family="sans-serif" font-size="13" lengthAdjust="spacingAndGlyphs" textLength="387" x="151.5" y="2089.8945">[New Refresh token HttpOnly w/ domain: login.fusionauth.io]</text><line style="stroke: #56666F; stroke-width: 1.0;" x1="97.5" x2="139.5" y1="2154.2578" y2="2154.2578"/><line style="stroke: #56666F; stroke-width: 1.0;" x1="139.5" x2="139.5" y1="2154.2578" y2="2167.2578"/><line style="stroke: #56666F; stroke-width: 1.0;" x1="98.5" x2="139.5" y1="2167.2578" y2="2167.2578"/><polygon fill="#56666F" points="108.5,2163.2578,98.5,2167.2578,108.5,2171.2578,104.5,2167.2578" style="stroke: #56666F; stroke-width: 1.0;"/><text fill="#000000" font-family="sans-serif" font-size="13" font-weight="bold" lengthAdjust="spacingAndGlyphs" textLength="18" x="109.5" y="2136.8604">28</text><text fill="#EB8C52" font-family="sans-serif" font-size="13" lengthAdjust="spacingAndGlyphs" textLength="234" x="141.5" y="2129.2051">Refresh token cookie from Store gets</text><text fill="#EB8C52" font-family="sans-serif" font-size="13" lengthAdjust="spacingAndGlyphs" textLength="245" x="141.5" y="2144.5156">clobbered by Refresh token for Forums</text><rect fill="#3F2C61" height="3" style="stroke: #3F2C61; stroke-width: 1.0;" width="1095" x="3" y="2200.9131"/><line style="stroke: #FFFFFF; stroke-width: 0.5;" x1="3" x2="1098" y1="2200.9131" y2="2200.9131"/><line style="stroke: #FFFFFF; stroke-width: 0.5;" x1="3" x2="1098" y1="2203.9131" y2="2203.9131"/><rect fill="#3F2C61" height="33.3105" style="stroke: #FFFFFF; stroke-width: 1.0;" width="109" x="496" y="2185.2578"/><text fill="#FFFFFF" font-family="sans-serif" font-size="13" font-weight="bold" lengthAdjust="spacingAndGlyphs" textLength="81" x="507" y="2206.8262">Cookie drop</text><polygon fill="#56666F" points="521.5,2271.1895,531.5,2275.1895,521.5,2279.1895,525.5,2275.1895" style="stroke: #56666F; stroke-width: 1.0;"/><line style="stroke: #56666F; stroke-width: 1.0;" x1="97.5" x2="527.5" y1="2275.1895" y2="2275.1895"/><text fill="#000000" font-family="sans-serif" font-size="13" font-weight="bold" lengthAdjust="spacingAndGlyphs" textLength="18" x="109.5" y="2257.792">29</text><text fill="#000000" font-family="sans-serif" font-size="13" lengthAdjust="spacingAndGlyphs" textLength="182" x="141.5" y="2250.1367">AJAX POST /api/cookie-drop</text><text fill="#000000" font-family="sans-serif" font-size="13" lengthAdjust="spacingAndGlyphs" textLength="149" x="141.5" y="2265.4473">(JWT from IdP response)</text><polygon fill="#56666F" points="108.5,2310.5,98.5,2314.5,108.5,2318.5,104.5,2314.5" style="stroke: #56666F; stroke-width: 1.0;"/><line style="stroke: #56666F; stroke-width: 1.0;" x1="102.5" x2="532.5" y1="2314.5" y2="2314.5"/><text fill="#000000" font-family="sans-serif" font-size="13" font-weight="bold" lengthAdjust="spacingAndGlyphs" textLength="18" x="119.5" y="2304.7578">30</text><text fill="#000000" font-family="sans-serif" font-size="13" lengthAdjust="spacingAndGlyphs" textLength="307" x="151.5" y="2304.7578">[JWT HttpOnly w/ domain: Forums.Example.com]</text><rect fill="#3F2C61" height="3" style="stroke: #3F2C61; stroke-width: 1.0;" width="1095" x="3" y="2348.1553"/><line style="stroke: #FFFFFF; stroke-width: 0.5;" x1="3" x2="1098" y1="2348.1553" y2="2348.1553"/><line style="stroke: #FFFFFF; stroke-width: 0.5;" x1="3" x2="1098" y1="2351.1553" y2="2351.1553"/><rect fill="#3F2C61" height="33.3105" style="stroke: #FFFFFF; stroke-width: 1.0;" width="111" x="495" y="2332.5"/><text fill="#FFFFFF" font-family="sans-serif" font-size="13" font-weight="bold" lengthAdjust="spacingAndGlyphs" textLength="83" x="506" y="2354.0684">Forums load</text><polygon fill="#56666F" points="521.5,2418.4316,531.5,2422.4316,521.5,2426.4316,525.5,2422.4316" style="stroke: #56666F; stroke-width: 1.0;"/><line style="stroke: #56666F; stroke-width: 1.0;" x1="97.5" x2="527.5" y1="2422.4316" y2="2422.4316"/><text fill="#000000" font-family="sans-serif" font-size="13" font-weight="bold" lengthAdjust="spacingAndGlyphs" textLength="18" x="109.5" y="2405.0342">31</text><text fill="#000000" font-family="sans-serif" font-size="13" lengthAdjust="spacingAndGlyphs" textLength="200" x="141.5" y="2397.3789">AJAX GET /api/load-load-posts</text><text fill="#000000" font-family="sans-serif" font-size="13" lengthAdjust="spacingAndGlyphs" textLength="292" x="141.5" y="2412.6895">[JWT HttpOnly w/ domain: Store.Example.com]</text><polygon fill="#56666F" points="108.5,2457.7422,98.5,2461.7422,108.5,2465.7422,104.5,2461.7422" style="stroke: #56666F; stroke-width: 1.0;"/><line style="stroke: #56666F; stroke-width: 1.0;" x1="102.5" x2="532.5" y1="2461.7422" y2="2461.7422"/><text fill="#000000" font-family="sans-serif" font-size="13" font-weight="bold" lengthAdjust="spacingAndGlyphs" textLength="18" x="119.5" y="2452">32</text><text fill="#000000" font-family="sans-serif" font-size="13" lengthAdjust="spacingAndGlyphs" textLength="87" x="151.5" y="2452">(Forum posts)</text><path d="M62,2528.7422 L62,2555.7422 A4,4 0 0 0 66,2559.7422 L1088,2559.7422 A4,4 0 0 0 1092,2555.7422 L1092,2534.7422 L1082,2524.7422 L66,2524.7422 A4,4 0 0 0 62,2528.7422 " fill="#8B80A1" style="stroke: #FFFFFF; stroke-width: 1.0;"/><path d="M1082,2524.7422 L1082,2532.7422 A2,2 0 0 0 1084,2534.7422 L1092,2534.7422 L1082,2524.7422 " fill="#8B80A1" style="stroke: #FFFFFF; stroke-width: 1.0;"/><text fill="#FFFFFF" font-family="sans-serif" font-size="13" font-style="italic" lengthAdjust="spacingAndGlyphs" textLength="91" x="527" y="2547.3105">Attack vectors</text><rect fill="#3F2C61" height="3" style="stroke: #3F2C61; stroke-width: 1.0;" width="1095" x="3" y="2640.708"/><line style="stroke: #FFFFFF; stroke-width: 0.5;" x1="3" x2="1098" y1="2640.708" y2="2640.708"/><line style="stroke: #FFFFFF; stroke-width: 0.5;" x1="3" x2="1098" y1="2643.708" y2="2643.708"/><rect fill="#3F2C61" height="33.3105" style="stroke: #FFFFFF; stroke-width: 1.0;" width="167" x="467" y="2625.0527"/><text fill="#FFFFFF" font-family="sans-serif" font-size="13" font-weight="bold" lengthAdjust="spacingAndGlyphs" textLength="139" x="478" y="2646.6211">Stolen Refresh token</text><polygon fill="#56666F" points="650.5,2710.9844,640.5,2714.9844,650.5,2718.9844,646.5,2714.9844" style="stroke: #56666F; stroke-width: 1.0;"/><line style="stroke: #56666F; stroke-width: 1.0;" x1="644.5" x2="1056.5" y1="2714.9844" y2="2714.9844"/><text fill="#000000" font-family="sans-serif" font-size="13" font-weight="bold" lengthAdjust="spacingAndGlyphs" textLength="18" x="661.5" y="2697.5869">33</text><text fill="#000000" font-family="sans-serif" font-size="13" lengthAdjust="spacingAndGlyphs" textLength="139" x="693.5" y="2689.9316">POST /api/jwt/refresh</text><text fill="#000000" font-family="sans-serif" font-size="13" lengthAdjust="spacingAndGlyphs" textLength="352" x="693.5" y="2705.2422">[Refresh token HttpOnly w/ domain login.fusionauth.io]</text><polygon fill="#56666F" points="1045.5,2750.2949,1055.5,2754.2949,1045.5,2758.2949,1049.5,2754.2949" style="stroke: #56666F; stroke-width: 1.0;"/><line style="stroke: #56666F; stroke-width: 1.0;" x1="639.5" x2="1051.5" y1="2754.2949" y2="2754.2949"/><text fill="#000000" font-family="sans-serif" font-size="13" font-weight="bold" lengthAdjust="spacingAndGlyphs" textLength="18" x="651.5" y="2744.5527">34</text><text fill="#000000" font-family="sans-serif" font-size="13" lengthAdjust="spacingAndGlyphs" textLength="31" x="683.5" y="2744.5527">(JWT)</text><polygon fill="#56666F" points="466.5,2804.916,456.5,2808.916,466.5,2812.916,462.5,2808.916" style="stroke: #56666F; stroke-width: 1.0;"/><line style="stroke: #56666F; stroke-width: 1.0;" x1="460.5" x2="1056.5" y1="2808.916" y2="2808.916"/><text fill="#000000" font-family="sans-serif" font-size="13" font-weight="bold" lengthAdjust="spacingAndGlyphs" textLength="18" x="477.5" y="2791.5186">35</text><text fill="#000000" font-family="sans-serif" font-size="13" lengthAdjust="spacingAndGlyphs" textLength="187" x="509.5" y="2783.8633">GET /api/load-shopping-cart</text><text fill="#000000" font-family="sans-serif" font-size="13" lengthAdjust="spacingAndGlyphs" textLength="292" x="509.5" y="2799.1738">[JWT HttpOnly w/ domain: Store.Example.com]</text><polygon fill="#56666F" points="1045.5,2844.2266,1055.5,2848.2266,1045.5,2852.2266,1049.5,2848.2266" style="stroke: #56666F; stroke-width: 1.0;"/><line style="stroke: #56666F; stroke-width: 1.0;" x1="455.5" x2="1051.5" y1="2848.2266" y2="2848.2266"/><text fill="#000000" font-family="sans-serif" font-size="13" font-weight="bold" lengthAdjust="spacingAndGlyphs" textLength="18" x="467.5" y="2838.4844">36</text><text fill="#000000" font-family="sans-serif" font-size="13" lengthAdjust="spacingAndGlyphs" textLength="154" x="499.5" y="2838.4844">(Shopping cart contents)</text><rect fill="#3F2C61" height="3" style="stroke: #3F2C61; stroke-width: 1.0;" width="1095" x="3" y="2881.8818"/><line style="stroke: #FFFFFF; stroke-width: 0.5;" x1="3" x2="1098" y1="2881.8818" y2="2881.8818"/><line style="stroke: #FFFFFF; stroke-width: 0.5;" x1="3" x2="1098" y1="2884.8818" y2="2884.8818"/><rect fill="#3F2C61" height="33.3105" style="stroke: #FFFFFF; stroke-width: 1.0;" width="99" x="501" y="2866.2266"/><text fill="#FFFFFF" font-family="sans-serif" font-size="13" font-weight="bold" lengthAdjust="spacingAndGlyphs" textLength="71" x="512" y="2887.7949">Stolen JWT</text><polygon fill="#56666F" points="466.5,2952.1582,456.5,2956.1582,466.5,2960.1582,462.5,2956.1582" style="stroke: #56666F; stroke-width: 1.0;"/><line style="stroke: #56666F; stroke-width: 1.0;" x1="460.5" x2="1056.5" y1="2956.1582" y2="2956.1582"/><text fill="#000000" font-family="sans-serif" font-size="13" font-weight="bold" lengthAdjust="spacingAndGlyphs" textLength="18" x="477.5" y="2938.7607">37</text><text fill="#000000" font-family="sans-serif" font-size="13" lengthAdjust="spacingAndGlyphs" textLength="187" x="509.5" y="2931.1055">GET /api/load-shopping-cart</text><text fill="#000000" font-family="sans-serif" font-size="13" lengthAdjust="spacingAndGlyphs" textLength="292" x="509.5" y="2946.416">[JWT HttpOnly w/ domain: Store.Example.com]</text><polygon fill="#56666F" points="1045.5,2991.4688,1055.5,2995.4688,1045.5,2999.4688,1049.5,2995.4688" style="stroke: #56666F; stroke-width: 1.0;"/><line style="stroke: #56666F; stroke-width: 1.0;" x1="455.5" x2="1051.5" y1="2995.4688" y2="2995.4688"/><text fill="#000000" font-family="sans-serif" font-size="13" font-weight="bold" lengthAdjust="spacingAndGlyphs" textLength="18" x="467.5" y="2985.7266">38</text><text fill="#000000" font-family="sans-serif" font-size="13" lengthAdjust="spacingAndGlyphs" textLength="154" x="499.5" y="2985.7266">(Shopping cart contents)</text></g></svg>