<?xml version="1.0" encoding="UTF-8" standalone="no"?><svg xmlns="http://www.w3.org/2000/svg" xmlns:xlink="http://www.w3.org/1999/xlink" contentScriptType="application/ecmascript" contentStyleType="text/css" height="2377px" preserveAspectRatio="none" style="width:1144px;height:2377px;" version="1.1" viewBox="0 0 1144 2377" width="1144px" zoomAndPan="magnify"><defs/><g><rect fill="#D8D8D8" height="40.4883" rx="4" ry="4" style="stroke: #979797; stroke-width: 1.0;" width="76" x="695.5" y="1257.0059"/><text fill="#000000" font-family="sans-serif" font-size="14" lengthAdjust="spacingAndGlyphs" textLength="52" x="707.5" y="1282.541">Forums</text><line style="stroke: #CDCDCD; stroke-width: 1.0; stroke-dasharray: 5.0,5.0;" x1="75" x2="75" y1="44.4883" y2="2326.6367"/><line style="stroke: #CDCDCD; stroke-width: 1.0; stroke-dasharray: 5.0,5.0;" x1="470.5" x2="470.5" y1="44.4883" y2="2326.6367"/><line style="stroke: #CDCDCD; stroke-width: 1.0; stroke-dasharray: 5.0,5.0;" x1="733.5" x2="733.5" y1="1291.1836" y2="2326.6367"/><line style="stroke: #CDCDCD; stroke-width: 1.0; stroke-dasharray: 5.0,5.0;" x1="994" x2="994" y1="44.4883" y2="2326.6367"/><line style="stroke: #CDCDCD; stroke-width: 1.0; stroke-dasharray: 5.0,5.0;" x1="1091" x2="1091" y1="44.4883" y2="2326.6367"/><rect fill="#D8D8D8" height="40.4883" rx="4" ry="4" style="stroke: #979797; stroke-width: 1.0;" width="79" x="36" y="3"/><text fill="#000000" font-family="sans-serif" font-size="14" lengthAdjust="spacingAndGlyphs" textLength="55" x="48" y="28.5352">Browser</text><rect fill="#D8D8D8" height="40.4883" rx="4" ry="4" style="stroke: #979797; stroke-width: 1.0;" width="79" x="36" y="2325.6367"/><text fill="#000000" font-family="sans-serif" font-size="14" lengthAdjust="spacingAndGlyphs" textLength="55" x="48" y="2351.1719">Browser</text><rect fill="#D8D8D8" height="40.4883" rx="4" ry="4" style="stroke: #979797; stroke-width: 1.0;" width="60" x="440.5" y="3"/><text fill="#000000" font-family="sans-serif" font-size="14" lengthAdjust="spacingAndGlyphs" textLength="36" x="452.5" y="28.5352">Store</text><rect fill="#D8D8D8" height="40.4883" rx="4" ry="4" style="stroke: #979797; stroke-width: 1.0;" width="60" x="440.5" y="2325.6367"/><text fill="#000000" font-family="sans-serif" font-size="14" lengthAdjust="spacingAndGlyphs" textLength="36" x="452.5" y="2351.1719">Store</text><rect fill="#D8D8D8" height="40.4883" rx="4" ry="4" style="stroke: #979797; stroke-width: 1.0;" width="76" x="695.5" y="2325.6367"/><text fill="#000000" font-family="sans-serif" font-size="14" lengthAdjust="spacingAndGlyphs" textLength="52" x="707.5" y="2351.1719">Forums</text><rect fill="#D8D8D8" height="40.4883" rx="4" ry="4" style="stroke: #979797; stroke-width: 1.0;" width="103" x="943" y="3"/><text fill="#000000" font-family="sans-serif" font-size="14" lengthAdjust="spacingAndGlyphs" textLength="79" x="955" y="28.5352">FusionAuth</text><rect fill="#D8D8D8" height="40.4883" rx="4" ry="4" style="stroke: #979797; stroke-width: 1.0;" width="103" x="943" y="2325.6367"/><text fill="#000000" font-family="sans-serif" font-size="14" lengthAdjust="spacingAndGlyphs" textLength="79" x="955" y="2351.1719">FusionAuth</text><rect fill="#D8D8D8" height="40.4883" rx="4" ry="4" style="stroke: #979797; stroke-width: 1.0;" width="71" x="1056" y="3"/><text fill="#000000" font-family="sans-serif" font-size="14" lengthAdjust="spacingAndGlyphs" textLength="47" x="1068" y="28.5352">Hacker</text><rect fill="#D8D8D8" height="40.4883" rx="4" ry="4" style="stroke: #979797; stroke-width: 1.0;" width="71" x="1056" y="2325.6367"/><text fill="#000000" font-family="sans-serif" font-size="14" lengthAdjust="spacingAndGlyphs" textLength="47" x="1068" y="2351.1719">Hacker</text><rect fill="#3F2C61" height="3" style="stroke: #3F2C61; stroke-width: 1.0;" width="1129" x="3" y="80.1436"/><line style="stroke: #FFFFFF; stroke-width: 0.5;" x1="3" x2="1132" y1="80.1436" y2="80.1436"/><line style="stroke: #FFFFFF; stroke-width: 0.5;" x1="3" x2="1132" y1="83.1436" y2="83.1436"/><rect fill="#3F2C61" height="33.3105" style="stroke: #FFFFFF; stroke-width: 1.0;" width="86" x="524.5" y="64.4883"/><text fill="#FFFFFF" font-family="sans-serif" font-size="13" font-weight="bold" lengthAdjust="spacingAndGlyphs" textLength="58" x="535.5" y="86.0566">Initialize</text><polygon fill="#56666F" points="458.5,135.1094,468.5,139.1094,458.5,143.1094,462.5,139.1094" style="stroke: #56666F; stroke-width: 1.0;"/><line style="stroke: #56666F; stroke-width: 1.0;" x1="75.5" x2="464.5" y1="139.1094" y2="139.1094"/><text fill="#000000" font-family="sans-serif" font-size="13" font-weight="bold" lengthAdjust="spacingAndGlyphs" textLength="9" x="87.5" y="129.3672">1</text><text fill="#000000" font-family="sans-serif" font-size="13" lengthAdjust="spacingAndGlyphs" textLength="35" x="110.5" y="129.3672">GET /</text><polygon fill="#56666F" points="86.5,174.4199,76.5,178.4199,86.5,182.4199,82.5,178.4199" style="stroke: #56666F; stroke-width: 1.0;"/><line style="stroke: #56666F; stroke-width: 1.0;" x1="80.5" x2="469.5" y1="178.4199" y2="178.4199"/><text fill="#000000" font-family="sans-serif" font-size="13" font-weight="bold" lengthAdjust="spacingAndGlyphs" textLength="9" x="97.5" y="168.6777">2</text><text fill="#000000" font-family="sans-serif" font-size="13" lengthAdjust="spacingAndGlyphs" textLength="180" x="120.5" y="168.6777">(SPA HTML, CSS &amp; JavaScript)</text><polygon fill="#56666F" points="458.5,229.041,468.5,233.041,458.5,237.041,462.5,233.041" style="stroke: #56666F; stroke-width: 1.0;"/><line style="stroke: #56666F; stroke-width: 1.0;" x1="75.5" x2="464.5" y1="233.041" y2="233.041"/><text fill="#000000" font-family="sans-serif" font-size="13" font-weight="bold" lengthAdjust="spacingAndGlyphs" textLength="9" x="87.5" y="215.6436">3</text><text fill="#000000" font-family="sans-serif" font-size="13" lengthAdjust="spacingAndGlyphs" textLength="122" x="110.5" y="207.9883">AJAX GET /api/user</text><text fill="#000000" font-family="sans-serif" font-size="13" lengthAdjust="spacingAndGlyphs" textLength="79" x="110.5" y="223.2988">[No cookies]</text><polygon fill="#EB8C52" points="86.5,268.3516,76.5,272.3516,86.5,276.3516,82.5,272.3516" style="stroke: #EB8C52; stroke-width: 1.0;"/><line style="stroke: #EB8C52; stroke-width: 1.0;" x1="80.5" x2="469.5" y1="272.3516" y2="272.3516"/><text fill="#000000" font-family="sans-serif" font-size="13" font-weight="bold" lengthAdjust="spacingAndGlyphs" textLength="9" x="97.5" y="262.6094">4</text><text fill="#EB8C52" font-family="sans-serif" font-size="13" lengthAdjust="spacingAndGlyphs" textLength="77" x="120.5" y="262.6094">404 Missing</text><rect fill="#3F2C61" height="3" style="stroke: #3F2C61; stroke-width: 1.0;" width="1129" x="3" y="306.0068"/><line style="stroke: #FFFFFF; stroke-width: 0.5;" x1="3" x2="1132" y1="306.0068" y2="306.0068"/><line style="stroke: #FFFFFF; stroke-width: 0.5;" x1="3" x2="1132" y1="309.0068" y2="309.0068"/><rect fill="#3F2C61" height="33.3105" style="stroke: #FFFFFF; stroke-width: 1.0;" width="150" x="492.5" y="290.3516"/><text fill="#FFFFFF" font-family="sans-serif" font-size="13" font-weight="bold" lengthAdjust="spacingAndGlyphs" textLength="122" x="503.5" y="311.9199">Login (inside SPA)</text><line style="stroke: #56666F; stroke-width: 1.0;" x1="75.5" x2="117.5" y1="364.9727" y2="364.9727"/><line style="stroke: #56666F; stroke-width: 1.0;" x1="117.5" x2="117.5" y1="364.9727" y2="377.9727"/><line style="stroke: #56666F; stroke-width: 1.0;" x1="76.5" x2="117.5" y1="377.9727" y2="377.9727"/><polygon fill="#56666F" points="86.5,373.9727,76.5,377.9727,86.5,381.9727,82.5,377.9727" style="stroke: #56666F; stroke-width: 1.0;"/><text fill="#000000" font-family="sans-serif" font-size="13" font-weight="bold" lengthAdjust="spacingAndGlyphs" textLength="9" x="87.5" y="355.2305">5</text><text fill="#000000" font-family="sans-serif" font-size="13" lengthAdjust="spacingAndGlyphs" textLength="113" x="110.5" y="355.2305">Render login form</text><polygon fill="#56666F" points="458.5,413.2832,468.5,417.2832,458.5,421.2832,462.5,417.2832" style="stroke: #56666F; stroke-width: 1.0;"/><line style="stroke: #56666F; stroke-width: 1.0;" x1="75.5" x2="464.5" y1="417.2832" y2="417.2832"/><text fill="#000000" font-family="sans-serif" font-size="13" font-weight="bold" lengthAdjust="spacingAndGlyphs" textLength="9" x="87.5" y="407.541">6</text><text fill="#000000" font-family="sans-serif" font-size="13" lengthAdjust="spacingAndGlyphs" textLength="135" x="110.5" y="407.541">AJAX POST /api/login</text><polygon fill="#56666F" points="982.5,452.5938,992.5,456.5938,982.5,460.5938,986.5,456.5938" style="stroke: #56666F; stroke-width: 1.0;"/><line style="stroke: #56666F; stroke-width: 1.0;" x1="470.5" x2="988.5" y1="456.5938" y2="456.5938"/><text fill="#000000" font-family="sans-serif" font-size="13" font-weight="bold" lengthAdjust="spacingAndGlyphs" textLength="9" x="482.5" y="446.8516">7</text><text fill="#000000" font-family="sans-serif" font-size="13" lengthAdjust="spacingAndGlyphs" textLength="101" x="505.5" y="446.8516">POST /api/login</text><polygon fill="#56666F" points="481.5,491.9043,471.5,495.9043,481.5,499.9043,477.5,495.9043" style="stroke: #56666F; stroke-width: 1.0;"/><line style="stroke: #56666F; stroke-width: 1.0;" x1="475.5" x2="993.5" y1="495.9043" y2="495.9043"/><text fill="#000000" font-family="sans-serif" font-size="13" font-weight="bold" lengthAdjust="spacingAndGlyphs" textLength="9" x="492.5" y="486.1621">8</text><text fill="#000000" font-family="sans-serif" font-size="13" lengthAdjust="spacingAndGlyphs" textLength="188" x="515.5" y="486.1621">(User, Refresh Token and JWT)</text><line style="stroke: #56666F; stroke-width: 1.0;" x1="470.5" x2="512.5" y1="535.2148" y2="535.2148"/><line style="stroke: #56666F; stroke-width: 1.0;" x1="512.5" x2="512.5" y1="535.2148" y2="548.2148"/><line style="stroke: #56666F; stroke-width: 1.0;" x1="471.5" x2="512.5" y1="548.2148" y2="548.2148"/><polygon fill="#56666F" points="481.5,544.2148,471.5,548.2148,481.5,552.2148,477.5,548.2148" style="stroke: #56666F; stroke-width: 1.0;"/><text fill="#000000" font-family="sans-serif" font-size="13" font-weight="bold" lengthAdjust="spacingAndGlyphs" textLength="9" x="482.5" y="525.4727">9</text><text fill="#000000" font-family="sans-serif" font-size="13" lengthAdjust="spacingAndGlyphs" textLength="216" x="505.5" y="525.4727">Create session and store User in it</text><polygon fill="#56666F" points="86.5,598.8359,76.5,602.8359,86.5,606.8359,82.5,602.8359" style="stroke: #56666F; stroke-width: 1.0;"/><line style="stroke: #56666F; stroke-width: 1.0;" x1="80.5" x2="469.5" y1="602.8359" y2="602.8359"/><text fill="#000000" font-family="sans-serif" font-size="13" font-weight="bold" lengthAdjust="spacingAndGlyphs" textLength="18" x="97.5" y="585.4385">10</text><text fill="#000000" font-family="sans-serif" font-size="13" lengthAdjust="spacingAndGlyphs" textLength="79" x="129.5" y="577.7832">(User object)</text><text fill="#000000" font-family="sans-serif" font-size="13" lengthAdjust="spacingAndGlyphs" textLength="322" x="129.5" y="593.0938">[SesionId HttpOnly w/ domain: Store.Example.com]</text><rect fill="#3F2C61" height="3" style="stroke: #3F2C61; stroke-width: 1.0;" width="1129" x="3" y="636.4912"/><line style="stroke: #FFFFFF; stroke-width: 0.5;" x1="3" x2="1132" y1="636.4912" y2="636.4912"/><line style="stroke: #FFFFFF; stroke-width: 0.5;" x1="3" x2="1132" y1="639.4912" y2="639.4912"/><rect fill="#3F2C61" height="33.3105" style="stroke: #FFFFFF; stroke-width: 1.0;" width="155" x="490" y="620.8359"/><text fill="#FFFFFF" font-family="sans-serif" font-size="13" font-weight="bold" lengthAdjust="spacingAndGlyphs" textLength="127" x="501" y="642.4043">Shopping cart load</text><polygon fill="#56666F" points="458.5,706.7676,468.5,710.7676,458.5,714.7676,462.5,710.7676" style="stroke: #56666F; stroke-width: 1.0;"/><line style="stroke: #56666F; stroke-width: 1.0;" x1="75.5" x2="464.5" y1="710.7676" y2="710.7676"/><text fill="#000000" font-family="sans-serif" font-size="13" font-weight="bold" lengthAdjust="spacingAndGlyphs" textLength="18" x="87.5" y="693.3701">11</text><text fill="#000000" font-family="sans-serif" font-size="13" lengthAdjust="spacingAndGlyphs" textLength="221" x="119.5" y="685.7148">AJAX GET /api/load-shopping-cart</text><text fill="#000000" font-family="sans-serif" font-size="13" lengthAdjust="spacingAndGlyphs" textLength="329" x="119.5" y="701.0254">[SessionId HttpOnly w/ domain: Store.Example.com]</text><line style="stroke: #56666F; stroke-width: 1.0;" x1="470.5" x2="512.5" y1="750.0781" y2="750.0781"/><line style="stroke: #56666F; stroke-width: 1.0;" x1="512.5" x2="512.5" y1="750.0781" y2="763.0781"/><line style="stroke: #56666F; stroke-width: 1.0;" x1="471.5" x2="512.5" y1="763.0781" y2="763.0781"/><polygon fill="#56666F" points="481.5,759.0781,471.5,763.0781,481.5,767.0781,477.5,763.0781" style="stroke: #56666F; stroke-width: 1.0;"/><text fill="#000000" font-family="sans-serif" font-size="13" font-weight="bold" lengthAdjust="spacingAndGlyphs" textLength="18" x="482.5" y="740.3359">12</text><text fill="#000000" font-family="sans-serif" font-size="13" lengthAdjust="spacingAndGlyphs" textLength="110" x="514.5" y="740.3359">Session extended</text><polygon fill="#56666F" points="86.5,798.3887,76.5,802.3887,86.5,806.3887,82.5,802.3887" style="stroke: #56666F; stroke-width: 1.0;"/><line style="stroke: #56666F; stroke-width: 1.0;" x1="80.5" x2="469.5" y1="802.3887" y2="802.3887"/><text fill="#000000" font-family="sans-serif" font-size="13" font-weight="bold" lengthAdjust="spacingAndGlyphs" textLength="18" x="97.5" y="792.6465">13</text><text fill="#000000" font-family="sans-serif" font-size="13" lengthAdjust="spacingAndGlyphs" textLength="154" x="129.5" y="792.6465">(Shopping cart contents)</text><path d="M8,819.3887 L8,846.3887 A4,4 0 0 0 12,850.3887 L139,850.3887 A4,4 0 0 0 143,846.3887 L143,825.3887 L133,815.3887 L12,815.3887 A4,4 0 0 0 8,819.3887 " fill="#EB8C52" style="stroke: #FFFFFF; stroke-width: 1.0;"/><path d="M133,815.3887 L133,823.3887 A2,2 0 0 0 135,825.3887 L143,825.3887 L133,815.3887 " fill="#EB8C52" style="stroke: #FFFFFF; stroke-width: 1.0;"/><text fill="#FFFFFF" font-family="sans-serif" font-size="13" font-style="italic" font-weight="bold" lengthAdjust="spacingAndGlyphs" textLength="104" x="19" y="837.957">Session expires</text><rect fill="#3F2C61" height="3" style="stroke: #3F2C61; stroke-width: 1.0;" width="1129" x="3" y="881.3545"/><line style="stroke: #FFFFFF; stroke-width: 0.5;" x1="3" x2="1132" y1="881.3545" y2="881.3545"/><line style="stroke: #FFFFFF; stroke-width: 0.5;" x1="3" x2="1132" y1="884.3545" y2="884.3545"/><rect fill="#3F2C61" height="33.3105" style="stroke: #FFFFFF; stroke-width: 1.0;" width="87" x="524" y="865.6992"/><text fill="#FFFFFF" font-family="sans-serif" font-size="13" font-weight="bold" lengthAdjust="spacingAndGlyphs" textLength="59" x="535" y="887.2676">Re-login</text><polygon fill="#56666F" points="458.5,951.6309,468.5,955.6309,458.5,959.6309,462.5,955.6309" style="stroke: #56666F; stroke-width: 1.0;"/><line style="stroke: #56666F; stroke-width: 1.0;" x1="75.5" x2="464.5" y1="955.6309" y2="955.6309"/><text fill="#000000" font-family="sans-serif" font-size="13" font-weight="bold" lengthAdjust="spacingAndGlyphs" textLength="18" x="87.5" y="938.2334">14</text><text fill="#000000" font-family="sans-serif" font-size="13" lengthAdjust="spacingAndGlyphs" textLength="221" x="119.5" y="930.5781">AJAX GET /api/load-shopping-cart</text><text fill="#000000" font-family="sans-serif" font-size="13" lengthAdjust="spacingAndGlyphs" textLength="329" x="119.5" y="945.8887">[SessionId HttpOnly w/ domain: Store.Example.com]</text><polygon fill="#EB8C52" points="86.5,990.9414,76.5,994.9414,86.5,998.9414,82.5,994.9414" style="stroke: #EB8C52; stroke-width: 1.0;"/><line style="stroke: #EB8C52; stroke-width: 1.0;" x1="80.5" x2="469.5" y1="994.9414" y2="994.9414"/><text fill="#000000" font-family="sans-serif" font-size="13" font-weight="bold" lengthAdjust="spacingAndGlyphs" textLength="18" x="97.5" y="985.1992">15</text><text fill="#EB8C52" font-family="sans-serif" font-size="13" lengthAdjust="spacingAndGlyphs" textLength="124" x="129.5" y="985.1992">401 Not Authorized</text><line style="stroke: #56666F; stroke-width: 1.0;" x1="75.5" x2="117.5" y1="1034.252" y2="1034.252"/><line style="stroke: #56666F; stroke-width: 1.0;" x1="117.5" x2="117.5" y1="1034.252" y2="1047.252"/><line style="stroke: #56666F; stroke-width: 1.0;" x1="76.5" x2="117.5" y1="1047.252" y2="1047.252"/><polygon fill="#56666F" points="86.5,1043.252,76.5,1047.252,86.5,1051.252,82.5,1047.252" style="stroke: #56666F; stroke-width: 1.0;"/><text fill="#000000" font-family="sans-serif" font-size="13" font-weight="bold" lengthAdjust="spacingAndGlyphs" textLength="18" x="87.5" y="1024.5098">16</text><text fill="#000000" font-family="sans-serif" font-size="13" lengthAdjust="spacingAndGlyphs" textLength="131" x="119.5" y="1024.5098">Login same as above</text><path d="M40,1114.252 L40,1141.252 A4,4 0 0 0 44,1145.252 L1122,1145.252 A4,4 0 0 0 1126,1141.252 L1126,1120.252 L1116,1110.252 L44,1110.252 A4,4 0 0 0 40,1114.252 " fill="#8B80A1" style="stroke: #FFFFFF; stroke-width: 1.0;"/><path d="M1116,1110.252 L1116,1118.252 A2,2 0 0 0 1118,1120.252 L1126,1120.252 L1116,1110.252 " fill="#8B80A1" style="stroke: #FFFFFF; stroke-width: 1.0;"/><text fill="#FFFFFF" font-family="sans-serif" font-size="13" font-style="italic" lengthAdjust="spacingAndGlyphs" textLength="429" x="364" y="1132.8203">SSO login to forums - not provided by FusionAuth for this workflow</text><rect fill="#3F2C61" height="3" style="stroke: #3F2C61; stroke-width: 1.0;" width="1129" x="3" y="1226.2178"/><line style="stroke: #FFFFFF; stroke-width: 0.5;" x1="3" x2="1132" y1="1226.2178" y2="1226.2178"/><line style="stroke: #FFFFFF; stroke-width: 0.5;" x1="3" x2="1132" y1="1229.2178" y2="1229.2178"/><rect fill="#3F2C61" height="33.3105" style="stroke: #FFFFFF; stroke-width: 1.0;" width="86" x="524.5" y="1210.5625"/><text fill="#FFFFFF" font-family="sans-serif" font-size="13" font-weight="bold" lengthAdjust="spacingAndGlyphs" textLength="58" x="535.5" y="1232.1309">Initialize</text><polygon fill="#56666F" points="683.5,1296.4941,693.5,1300.4941,683.5,1304.4941,687.5,1300.4941" style="stroke: #56666F; stroke-width: 1.0;"/><line style="stroke: #56666F; stroke-width: 1.0;" x1="75.5" x2="689.5" y1="1300.4941" y2="1300.4941"/><text fill="#000000" font-family="sans-serif" font-size="13" font-weight="bold" lengthAdjust="spacingAndGlyphs" textLength="18" x="87.5" y="1283.0967">17</text><text fill="#000000" font-family="sans-serif" font-size="13" lengthAdjust="spacingAndGlyphs" textLength="35" x="119.5" y="1275.4414">GET /</text><text fill="#000000" font-family="sans-serif" font-size="13" lengthAdjust="spacingAndGlyphs" textLength="79" x="119.5" y="1290.752">[No cookies]</text><rect fill="#D8D8D8" height="40.4883" rx="4" ry="4" style="stroke: #979797; stroke-width: 1.0;" width="76" x="695.5" y="1257.0059"/><text fill="#000000" font-family="sans-serif" font-size="14" lengthAdjust="spacingAndGlyphs" textLength="52" x="707.5" y="1282.541">Forums</text><polygon fill="#56666F" points="86.5,1335.8047,76.5,1339.8047,86.5,1343.8047,82.5,1339.8047" style="stroke: #56666F; stroke-width: 1.0;"/><line style="stroke: #56666F; stroke-width: 1.0;" x1="80.5" x2="732.5" y1="1339.8047" y2="1339.8047"/><text fill="#000000" font-family="sans-serif" font-size="13" font-weight="bold" lengthAdjust="spacingAndGlyphs" textLength="18" x="97.5" y="1330.0625">18</text><text fill="#000000" font-family="sans-serif" font-size="13" lengthAdjust="spacingAndGlyphs" textLength="180" x="129.5" y="1330.0625">(SPA HTML, CSS &amp; JavaScript)</text><polygon fill="#56666F" points="721.5,1390.4258,731.5,1394.4258,721.5,1398.4258,725.5,1394.4258" style="stroke: #56666F; stroke-width: 1.0;"/><line style="stroke: #56666F; stroke-width: 1.0;" x1="75.5" x2="727.5" y1="1394.4258" y2="1394.4258"/><text fill="#000000" font-family="sans-serif" font-size="13" font-weight="bold" lengthAdjust="spacingAndGlyphs" textLength="18" x="87.5" y="1377.0283">19</text><text fill="#000000" font-family="sans-serif" font-size="13" lengthAdjust="spacingAndGlyphs" textLength="88" x="119.5" y="1369.373">GET /api/user</text><text fill="#000000" font-family="sans-serif" font-size="13" lengthAdjust="spacingAndGlyphs" textLength="79" x="119.5" y="1384.6836">[No cookies]</text><polygon fill="#EB8C52" points="86.5,1429.7363,76.5,1433.7363,86.5,1437.7363,82.5,1433.7363" style="stroke: #EB8C52; stroke-width: 1.0;"/><line style="stroke: #EB8C52; stroke-width: 1.0;" x1="80.5" x2="732.5" y1="1433.7363" y2="1433.7363"/><text fill="#000000" font-family="sans-serif" font-size="13" font-weight="bold" lengthAdjust="spacingAndGlyphs" textLength="18" x="97.5" y="1423.9941">20</text><text fill="#EB8C52" font-family="sans-serif" font-size="13" lengthAdjust="spacingAndGlyphs" textLength="77" x="129.5" y="1423.9941">404 Missing</text><rect fill="#3F2C61" height="3" style="stroke: #3F2C61; stroke-width: 1.0;" width="1129" x="3" y="1467.3916"/><line style="stroke: #FFFFFF; stroke-width: 0.5;" x1="3" x2="1132" y1="1467.3916" y2="1467.3916"/><line style="stroke: #FFFFFF; stroke-width: 0.5;" x1="3" x2="1132" y1="1470.3916" y2="1470.3916"/><rect fill="#3F2C61" height="33.3105" style="stroke: #FFFFFF; stroke-width: 1.0;" width="150" x="492.5" y="1451.7363"/><text fill="#FFFFFF" font-family="sans-serif" font-size="13" font-weight="bold" lengthAdjust="spacingAndGlyphs" textLength="122" x="503.5" y="1473.3047">Login (inside SPA)</text><line style="stroke: #56666F; stroke-width: 1.0;" x1="75.5" x2="117.5" y1="1526.3574" y2="1526.3574"/><line style="stroke: #56666F; stroke-width: 1.0;" x1="117.5" x2="117.5" y1="1526.3574" y2="1539.3574"/><line style="stroke: #56666F; stroke-width: 1.0;" x1="76.5" x2="117.5" y1="1539.3574" y2="1539.3574"/><polygon fill="#56666F" points="86.5,1535.3574,76.5,1539.3574,86.5,1543.3574,82.5,1539.3574" style="stroke: #56666F; stroke-width: 1.0;"/><text fill="#000000" font-family="sans-serif" font-size="13" font-weight="bold" lengthAdjust="spacingAndGlyphs" textLength="18" x="87.5" y="1516.6152">21</text><text fill="#000000" font-family="sans-serif" font-size="13" lengthAdjust="spacingAndGlyphs" textLength="113" x="119.5" y="1516.6152">Render login form</text><polygon fill="#56666F" points="721.5,1574.668,731.5,1578.668,721.5,1582.668,725.5,1578.668" style="stroke: #56666F; stroke-width: 1.0;"/><line style="stroke: #56666F; stroke-width: 1.0;" x1="75.5" x2="727.5" y1="1578.668" y2="1578.668"/><text fill="#000000" font-family="sans-serif" font-size="13" font-weight="bold" lengthAdjust="spacingAndGlyphs" textLength="18" x="87.5" y="1568.9258">22</text><text fill="#000000" font-family="sans-serif" font-size="13" lengthAdjust="spacingAndGlyphs" textLength="135" x="119.5" y="1568.9258">AJAX POST /api/login</text><polygon fill="#56666F" points="982.5,1613.9785,992.5,1617.9785,982.5,1621.9785,986.5,1617.9785" style="stroke: #56666F; stroke-width: 1.0;"/><line style="stroke: #56666F; stroke-width: 1.0;" x1="733.5" x2="988.5" y1="1617.9785" y2="1617.9785"/><text fill="#000000" font-family="sans-serif" font-size="13" font-weight="bold" lengthAdjust="spacingAndGlyphs" textLength="18" x="745.5" y="1608.2363">23</text><text fill="#000000" font-family="sans-serif" font-size="13" lengthAdjust="spacingAndGlyphs" textLength="101" x="777.5" y="1608.2363">POST /api/login</text><polygon fill="#56666F" points="744.5,1653.2891,734.5,1657.2891,744.5,1661.2891,740.5,1657.2891" style="stroke: #56666F; stroke-width: 1.0;"/><line style="stroke: #56666F; stroke-width: 1.0;" x1="738.5" x2="993.5" y1="1657.2891" y2="1657.2891"/><text fill="#000000" font-family="sans-serif" font-size="13" font-weight="bold" lengthAdjust="spacingAndGlyphs" textLength="18" x="755.5" y="1647.5469">24</text><text fill="#000000" font-family="sans-serif" font-size="13" lengthAdjust="spacingAndGlyphs" textLength="152" x="787.5" y="1647.5469">(Refresh Token and JWT)</text><line style="stroke: #56666F; stroke-width: 1.0;" x1="733.5" x2="775.5" y1="1696.5996" y2="1696.5996"/><line style="stroke: #56666F; stroke-width: 1.0;" x1="775.5" x2="775.5" y1="1696.5996" y2="1709.5996"/><line style="stroke: #56666F; stroke-width: 1.0;" x1="734.5" x2="775.5" y1="1709.5996" y2="1709.5996"/><polygon fill="#56666F" points="744.5,1705.5996,734.5,1709.5996,744.5,1713.5996,740.5,1709.5996" style="stroke: #56666F; stroke-width: 1.0;"/><text fill="#000000" font-family="sans-serif" font-size="13" font-weight="bold" lengthAdjust="spacingAndGlyphs" textLength="18" x="745.5" y="1686.8574">25</text><text fill="#000000" font-family="sans-serif" font-size="13" lengthAdjust="spacingAndGlyphs" textLength="205" x="777.5" y="1686.8574">Create session and put User in it</text><polygon fill="#56666F" points="86.5,1760.2207,76.5,1764.2207,86.5,1768.2207,82.5,1764.2207" style="stroke: #56666F; stroke-width: 1.0;"/><line style="stroke: #56666F; stroke-width: 1.0;" x1="80.5" x2="732.5" y1="1764.2207" y2="1764.2207"/><text fill="#000000" font-family="sans-serif" font-size="13" font-weight="bold" lengthAdjust="spacingAndGlyphs" textLength="18" x="97.5" y="1746.8232">26</text><text fill="#000000" font-family="sans-serif" font-size="13" lengthAdjust="spacingAndGlyphs" textLength="79" x="129.5" y="1739.168">(User object)</text><text fill="#000000" font-family="sans-serif" font-size="13" lengthAdjust="spacingAndGlyphs" textLength="344" x="129.5" y="1754.4785">[SessionId HttpOnly w/ domain: Forums.Example.com]</text><rect fill="#3F2C61" height="3" style="stroke: #3F2C61; stroke-width: 1.0;" width="1129" x="3" y="1797.876"/><line style="stroke: #FFFFFF; stroke-width: 0.5;" x1="3" x2="1132" y1="1797.876" y2="1797.876"/><line style="stroke: #FFFFFF; stroke-width: 0.5;" x1="3" x2="1132" y1="1800.876" y2="1800.876"/><rect fill="#3F2C61" height="33.3105" style="stroke: #FFFFFF; stroke-width: 1.0;" width="104" x="515.5" y="1782.2207"/><text fill="#FFFFFF" font-family="sans-serif" font-size="13" font-weight="bold" lengthAdjust="spacingAndGlyphs" textLength="76" x="526.5" y="1803.7891">Forum load</text><polygon fill="#56666F" points="721.5,1868.1523,731.5,1872.1523,721.5,1876.1523,725.5,1872.1523" style="stroke: #56666F; stroke-width: 1.0;"/><line style="stroke: #56666F; stroke-width: 1.0;" x1="75.5" x2="727.5" y1="1872.1523" y2="1872.1523"/><text fill="#000000" font-family="sans-serif" font-size="13" font-weight="bold" lengthAdjust="spacingAndGlyphs" textLength="18" x="87.5" y="1854.7549">27</text><text fill="#000000" font-family="sans-serif" font-size="13" lengthAdjust="spacingAndGlyphs" textLength="165" x="119.5" y="1847.0996">AJAX GET /api/load-posts</text><text fill="#000000" font-family="sans-serif" font-size="13" lengthAdjust="spacingAndGlyphs" textLength="344" x="119.5" y="1862.4102">[SessionId HttpOnly w/ domain: Forums.Example.com]</text><line style="stroke: #56666F; stroke-width: 1.0;" x1="733.5" x2="775.5" y1="1911.4629" y2="1911.4629"/><line style="stroke: #56666F; stroke-width: 1.0;" x1="775.5" x2="775.5" y1="1911.4629" y2="1924.4629"/><line style="stroke: #56666F; stroke-width: 1.0;" x1="734.5" x2="775.5" y1="1924.4629" y2="1924.4629"/><polygon fill="#56666F" points="744.5,1920.4629,734.5,1924.4629,744.5,1928.4629,740.5,1924.4629" style="stroke: #56666F; stroke-width: 1.0;"/><text fill="#000000" font-family="sans-serif" font-size="13" font-weight="bold" lengthAdjust="spacingAndGlyphs" textLength="18" x="745.5" y="1901.7207">28</text><text fill="#000000" font-family="sans-serif" font-size="13" lengthAdjust="spacingAndGlyphs" textLength="110" x="777.5" y="1901.7207">Session extended</text><polygon fill="#56666F" points="86.5,1959.7734,76.5,1963.7734,86.5,1967.7734,82.5,1963.7734" style="stroke: #56666F; stroke-width: 1.0;"/><line style="stroke: #56666F; stroke-width: 1.0;" x1="80.5" x2="732.5" y1="1963.7734" y2="1963.7734"/><text fill="#000000" font-family="sans-serif" font-size="13" font-weight="bold" lengthAdjust="spacingAndGlyphs" textLength="18" x="97.5" y="1954.0313">29</text><text fill="#000000" font-family="sans-serif" font-size="13" lengthAdjust="spacingAndGlyphs" textLength="87" x="129.5" y="1954.0313">(Forum posts)</text><path d="M40,2030.7734 L40,2057.7734 A4,4 0 0 0 44,2061.7734 L1122,2061.7734 A4,4 0 0 0 1126,2057.7734 L1126,2036.7734 L1116,2026.7734 L44,2026.7734 A4,4 0 0 0 40,2030.7734 " fill="#8B80A1" style="stroke: #FFFFFF; stroke-width: 1.0;"/><path d="M1116,2026.7734 L1116,2034.7734 A2,2 0 0 0 1118,2036.7734 L1126,2036.7734 L1116,2026.7734 " fill="#8B80A1" style="stroke: #FFFFFF; stroke-width: 1.0;"/><text fill="#FFFFFF" font-family="sans-serif" font-size="13" font-style="italic" lengthAdjust="spacingAndGlyphs" textLength="91" x="533" y="2049.3418">Attack vectors</text><rect fill="#3F2C61" height="3" style="stroke: #3F2C61; stroke-width: 1.0;" width="1129" x="3" y="2142.7393"/><line style="stroke: #FFFFFF; stroke-width: 0.5;" x1="3" x2="1132" y1="2142.7393" y2="2142.7393"/><line style="stroke: #FFFFFF; stroke-width: 0.5;" x1="3" x2="1132" y1="2145.7393" y2="2145.7393"/><rect fill="#3F2C61" height="33.3105" style="stroke: #FFFFFF; stroke-width: 1.0;" width="140" x="497.5" y="2127.084"/><text fill="#FFFFFF" font-family="sans-serif" font-size="13" font-weight="bold" lengthAdjust="spacingAndGlyphs" textLength="112" x="508.5" y="2148.6523">Stolen session id</text><polygon fill="#56666F" points="481.5,2213.0156,471.5,2217.0156,481.5,2221.0156,477.5,2217.0156" style="stroke: #56666F; stroke-width: 1.0;"/><line style="stroke: #56666F; stroke-width: 1.0;" x1="475.5" x2="1090.5" y1="2217.0156" y2="2217.0156"/><text fill="#000000" font-family="sans-serif" font-size="13" font-weight="bold" lengthAdjust="spacingAndGlyphs" textLength="18" x="492.5" y="2199.6182">30</text><text fill="#000000" font-family="sans-serif" font-size="13" lengthAdjust="spacingAndGlyphs" textLength="187" x="524.5" y="2191.9629">GET /api/load-shopping-cart</text><text fill="#000000" font-family="sans-serif" font-size="13" lengthAdjust="spacingAndGlyphs" textLength="329" x="524.5" y="2207.2734">[SessionId HttpOnly w/ domain: Store.Example.com]</text><line style="stroke: #56666F; stroke-width: 1.0;" x1="470.5" x2="512.5" y1="2256.3262" y2="2256.3262"/><line style="stroke: #56666F; stroke-width: 1.0;" x1="512.5" x2="512.5" y1="2256.3262" y2="2269.3262"/><line style="stroke: #56666F; stroke-width: 1.0;" x1="471.5" x2="512.5" y1="2269.3262" y2="2269.3262"/><polygon fill="#56666F" points="481.5,2265.3262,471.5,2269.3262,481.5,2273.3262,477.5,2269.3262" style="stroke: #56666F; stroke-width: 1.0;"/><text fill="#000000" font-family="sans-serif" font-size="13" font-weight="bold" lengthAdjust="spacingAndGlyphs" textLength="18" x="482.5" y="2246.584">31</text><text fill="#000000" font-family="sans-serif" font-size="13" lengthAdjust="spacingAndGlyphs" textLength="110" x="514.5" y="2246.584">Session extended</text><polygon fill="#56666F" points="1079.5,2304.6367,1089.5,2308.6367,1079.5,2312.6367,1083.5,2308.6367" style="stroke: #56666F; stroke-width: 1.0;"/><line style="stroke: #56666F; stroke-width: 1.0;" x1="470.5" x2="1085.5" y1="2308.6367" y2="2308.6367"/><text fill="#000000" font-family="sans-serif" font-size="13" font-weight="bold" lengthAdjust="spacingAndGlyphs" textLength="18" x="482.5" y="2298.8945">32</text><text fill="#000000" font-family="sans-serif" font-size="13" lengthAdjust="spacingAndGlyphs" textLength="154" x="514.5" y="2298.8945">(Shopping cart contents)</text></g></svg>