<?xml version="1.0" encoding="UTF-8" standalone="no"?><svg xmlns="http://www.w3.org/2000/svg" xmlns:xlink="http://www.w3.org/1999/xlink" contentScriptType="application/ecmascript" contentStyleType="text/css" height="2272px" preserveAspectRatio="none" style="width:1068px;height:2272px;" version="1.1" viewBox="0 0 1068 2272" width="1068px" zoomAndPan="magnify"><defs/><g><rect fill="#D8D8D8" height="40.4883" rx="4" ry="4" style="stroke: #979797; stroke-width: 1.0;" width="76" x="598.5" y="1204.6953"/><text fill="#000000" font-family="sans-serif" font-size="14" lengthAdjust="spacingAndGlyphs" textLength="52" x="610.5" y="1230.2305">Forums</text><line style="stroke: #CDCDCD; stroke-width: 1.0; stroke-dasharray: 5.0,5.0;" x1="75" x2="75" y1="44.4883" y2="2222.0156"/><line style="stroke: #CDCDCD; stroke-width: 1.0; stroke-dasharray: 5.0,5.0;" x1="470.5" x2="470.5" y1="44.4883" y2="2222.0156"/><line style="stroke: #CDCDCD; stroke-width: 1.0; stroke-dasharray: 5.0,5.0;" x1="636.5" x2="636.5" y1="1238.873" y2="2222.0156"/><line style="stroke: #CDCDCD; stroke-width: 1.0; stroke-dasharray: 5.0,5.0;" x1="918" x2="918" y1="44.4883" y2="2222.0156"/><line style="stroke: #CDCDCD; stroke-width: 1.0; stroke-dasharray: 5.0,5.0;" x1="1015" x2="1015" y1="44.4883" y2="2222.0156"/><rect fill="#D8D8D8" height="40.4883" rx="4" ry="4" style="stroke: #979797; stroke-width: 1.0;" width="79" x="36" y="3"/><text fill="#000000" font-family="sans-serif" font-size="14" lengthAdjust="spacingAndGlyphs" textLength="55" x="48" y="28.5352">Browser</text><rect fill="#D8D8D8" height="40.4883" rx="4" ry="4" style="stroke: #979797; stroke-width: 1.0;" width="79" x="36" y="2221.0156"/><text fill="#000000" font-family="sans-serif" font-size="14" lengthAdjust="spacingAndGlyphs" textLength="55" x="48" y="2246.5508">Browser</text><rect fill="#D8D8D8" height="40.4883" rx="4" ry="4" style="stroke: #979797; stroke-width: 1.0;" width="60" x="440.5" y="3"/><text fill="#000000" font-family="sans-serif" font-size="14" lengthAdjust="spacingAndGlyphs" textLength="36" x="452.5" y="28.5352">Store</text><rect fill="#D8D8D8" height="40.4883" rx="4" ry="4" style="stroke: #979797; stroke-width: 1.0;" width="60" x="440.5" y="2221.0156"/><text fill="#000000" font-family="sans-serif" font-size="14" lengthAdjust="spacingAndGlyphs" textLength="36" x="452.5" y="2246.5508">Store</text><rect fill="#D8D8D8" height="40.4883" rx="4" ry="4" style="stroke: #979797; stroke-width: 1.0;" width="76" x="598.5" y="2221.0156"/><text fill="#000000" font-family="sans-serif" font-size="14" lengthAdjust="spacingAndGlyphs" textLength="52" x="610.5" y="2246.5508">Forums</text><rect fill="#D8D8D8" height="40.4883" rx="4" ry="4" style="stroke: #979797; stroke-width: 1.0;" width="103" x="867" y="3"/><text fill="#000000" font-family="sans-serif" font-size="14" lengthAdjust="spacingAndGlyphs" textLength="79" x="879" y="28.5352">FusionAuth</text><rect fill="#D8D8D8" height="40.4883" rx="4" ry="4" style="stroke: #979797; stroke-width: 1.0;" width="103" x="867" y="2221.0156"/><text fill="#000000" font-family="sans-serif" font-size="14" lengthAdjust="spacingAndGlyphs" textLength="79" x="879" y="2246.5508">FusionAuth</text><rect fill="#D8D8D8" height="40.4883" rx="4" ry="4" style="stroke: #979797; stroke-width: 1.0;" width="71" x="980" y="3"/><text fill="#000000" font-family="sans-serif" font-size="14" lengthAdjust="spacingAndGlyphs" textLength="47" x="992" y="28.5352">Hacker</text><rect fill="#D8D8D8" height="40.4883" rx="4" ry="4" style="stroke: #979797; stroke-width: 1.0;" width="71" x="980" y="2221.0156"/><text fill="#000000" font-family="sans-serif" font-size="14" lengthAdjust="spacingAndGlyphs" textLength="47" x="992" y="2246.5508">Hacker</text><rect fill="#3F2C61" height="3" style="stroke: #3F2C61; stroke-width: 1.0;" width="1053" x="3" y="80.1436"/><line style="stroke: #FFFFFF; stroke-width: 0.5;" x1="3" x2="1056" y1="80.1436" y2="80.1436"/><line style="stroke: #FFFFFF; stroke-width: 0.5;" x1="3" x2="1056" y1="83.1436" y2="83.1436"/><rect fill="#3F2C61" height="33.3105" style="stroke: #FFFFFF; stroke-width: 1.0;" width="86" x="486.5" y="64.4883"/><text fill="#FFFFFF" font-family="sans-serif" font-size="13" font-weight="bold" lengthAdjust="spacingAndGlyphs" textLength="58" x="497.5" y="86.0566">Initialize</text><polygon fill="#56666F" points="458.5,135.1094,468.5,139.1094,458.5,143.1094,462.5,139.1094" style="stroke: #56666F; stroke-width: 1.0;"/><line style="stroke: #56666F; stroke-width: 1.0;" x1="75.5" x2="464.5" y1="139.1094" y2="139.1094"/><text fill="#000000" font-family="sans-serif" font-size="13" font-weight="bold" lengthAdjust="spacingAndGlyphs" textLength="9" x="87.5" y="129.3672">1</text><text fill="#000000" font-family="sans-serif" font-size="13" lengthAdjust="spacingAndGlyphs" textLength="35" x="110.5" y="129.3672">GET /</text><polygon fill="#56666F" points="86.5,174.4199,76.5,178.4199,86.5,182.4199,82.5,178.4199" style="stroke: #56666F; stroke-width: 1.0;"/><line style="stroke: #56666F; stroke-width: 1.0;" x1="80.5" x2="469.5" y1="178.4199" y2="178.4199"/><text fill="#000000" font-family="sans-serif" font-size="13" font-weight="bold" lengthAdjust="spacingAndGlyphs" textLength="9" x="97.5" y="168.6777">2</text><text fill="#000000" font-family="sans-serif" font-size="13" lengthAdjust="spacingAndGlyphs" textLength="180" x="120.5" y="168.6777">(SPA HTML, CSS &amp; JavaScript)</text><polygon fill="#56666F" points="458.5,229.041,468.5,233.041,458.5,237.041,462.5,233.041" style="stroke: #56666F; stroke-width: 1.0;"/><line style="stroke: #56666F; stroke-width: 1.0;" x1="75.5" x2="464.5" y1="233.041" y2="233.041"/><text fill="#000000" font-family="sans-serif" font-size="13" font-weight="bold" lengthAdjust="spacingAndGlyphs" textLength="9" x="87.5" y="215.6436">3</text><text fill="#000000" font-family="sans-serif" font-size="13" lengthAdjust="spacingAndGlyphs" textLength="122" x="110.5" y="207.9883">AJAX GET /api/user</text><text fill="#000000" font-family="sans-serif" font-size="13" lengthAdjust="spacingAndGlyphs" textLength="79" x="110.5" y="223.2988">[No cookies]</text><polygon fill="#EB8C52" points="86.5,268.3516,76.5,272.3516,86.5,276.3516,82.5,272.3516" style="stroke: #EB8C52; stroke-width: 1.0;"/><line style="stroke: #EB8C52; stroke-width: 1.0;" x1="80.5" x2="469.5" y1="272.3516" y2="272.3516"/><text fill="#000000" font-family="sans-serif" font-size="13" font-weight="bold" lengthAdjust="spacingAndGlyphs" textLength="9" x="97.5" y="262.6094">4</text><text fill="#EB8C52" font-family="sans-serif" font-size="13" lengthAdjust="spacingAndGlyphs" textLength="77" x="120.5" y="262.6094">404 Missing</text><rect fill="#3F2C61" height="3" style="stroke: #3F2C61; stroke-width: 1.0;" width="1053" x="3" y="306.0068"/><line style="stroke: #FFFFFF; stroke-width: 0.5;" x1="3" x2="1056" y1="306.0068" y2="306.0068"/><line style="stroke: #FFFFFF; stroke-width: 0.5;" x1="3" x2="1056" y1="309.0068" y2="309.0068"/><rect fill="#3F2C61" height="33.3105" style="stroke: #FFFFFF; stroke-width: 1.0;" width="150" x="454.5" y="290.3516"/><text fill="#FFFFFF" font-family="sans-serif" font-size="13" font-weight="bold" lengthAdjust="spacingAndGlyphs" textLength="122" x="465.5" y="311.9199">Login (inside SPA)</text><line style="stroke: #56666F; stroke-width: 1.0;" x1="75.5" x2="117.5" y1="364.9727" y2="364.9727"/><line style="stroke: #56666F; stroke-width: 1.0;" x1="117.5" x2="117.5" y1="364.9727" y2="377.9727"/><line style="stroke: #56666F; stroke-width: 1.0;" x1="76.5" x2="117.5" y1="377.9727" y2="377.9727"/><polygon fill="#56666F" points="86.5,373.9727,76.5,377.9727,86.5,381.9727,82.5,377.9727" style="stroke: #56666F; stroke-width: 1.0;"/><text fill="#000000" font-family="sans-serif" font-size="13" font-weight="bold" lengthAdjust="spacingAndGlyphs" textLength="9" x="87.5" y="355.2305">5</text><text fill="#000000" font-family="sans-serif" font-size="13" lengthAdjust="spacingAndGlyphs" textLength="113" x="110.5" y="355.2305">Render login form</text><polygon fill="#56666F" points="458.5,413.2832,468.5,417.2832,458.5,421.2832,462.5,417.2832" style="stroke: #56666F; stroke-width: 1.0;"/><line style="stroke: #56666F; stroke-width: 1.0;" x1="75.5" x2="464.5" y1="417.2832" y2="417.2832"/><text fill="#000000" font-family="sans-serif" font-size="13" font-weight="bold" lengthAdjust="spacingAndGlyphs" textLength="9" x="87.5" y="407.541">6</text><text fill="#000000" font-family="sans-serif" font-size="13" lengthAdjust="spacingAndGlyphs" textLength="135" x="110.5" y="407.541">AJAX POST /api/login</text><polygon fill="#56666F" points="906.5,467.9043,916.5,471.9043,906.5,475.9043,910.5,471.9043" style="stroke: #56666F; stroke-width: 1.0;"/><line style="stroke: #56666F; stroke-width: 1.0;" x1="470.5" x2="912.5" y1="471.9043" y2="471.9043"/><text fill="#000000" font-family="sans-serif" font-size="13" font-weight="bold" lengthAdjust="spacingAndGlyphs" textLength="9" x="482.5" y="454.5068">7</text><text fill="#000000" font-family="sans-serif" font-size="13" lengthAdjust="spacingAndGlyphs" textLength="130" x="505.5" y="446.8516">POST /oauth2/token</text><text fill="#000000" font-family="sans-serif" font-size="13" lengthAdjust="spacingAndGlyphs" textLength="145" x="505.5" y="462.1621">(grant_type=password)</text><polygon fill="#56666F" points="481.5,507.2148,471.5,511.2148,481.5,515.2148,477.5,511.2148" style="stroke: #56666F; stroke-width: 1.0;"/><line style="stroke: #56666F; stroke-width: 1.0;" x1="475.5" x2="917.5" y1="511.2148" y2="511.2148"/><text fill="#000000" font-family="sans-serif" font-size="13" font-weight="bold" lengthAdjust="spacingAndGlyphs" textLength="9" x="492.5" y="501.4727">8</text><text fill="#000000" font-family="sans-serif" font-size="13" lengthAdjust="spacingAndGlyphs" textLength="216" x="515.5" y="501.4727">(Refresh Token and JWT - ignored)</text><polygon fill="#56666F" points="86.5,546.5254,76.5,550.5254,86.5,554.5254,82.5,550.5254" style="stroke: #56666F; stroke-width: 1.0;"/><line style="stroke: #56666F; stroke-width: 1.0;" x1="80.5" x2="469.5" y1="550.5254" y2="550.5254"/><text fill="#000000" font-family="sans-serif" font-size="13" font-weight="bold" lengthAdjust="spacingAndGlyphs" textLength="9" x="97.5" y="540.7832">9</text><text fill="#000000" font-family="sans-serif" font-size="13" lengthAdjust="spacingAndGlyphs" textLength="329" x="120.5" y="540.7832">[SessionId HttpOnly w/ domain: Store.Example.com]</text><rect fill="#3F2C61" height="3" style="stroke: #3F2C61; stroke-width: 1.0;" width="1053" x="3" y="584.1807"/><line style="stroke: #FFFFFF; stroke-width: 0.5;" x1="3" x2="1056" y1="584.1807" y2="584.1807"/><line style="stroke: #FFFFFF; stroke-width: 0.5;" x1="3" x2="1056" y1="587.1807" y2="587.1807"/><rect fill="#3F2C61" height="33.3105" style="stroke: #FFFFFF; stroke-width: 1.0;" width="155" x="452" y="568.5254"/><text fill="#FFFFFF" font-family="sans-serif" font-size="13" font-weight="bold" lengthAdjust="spacingAndGlyphs" textLength="127" x="463" y="590.0938">Shopping cart load</text><polygon fill="#56666F" points="458.5,654.457,468.5,658.457,458.5,662.457,462.5,658.457" style="stroke: #56666F; stroke-width: 1.0;"/><line style="stroke: #56666F; stroke-width: 1.0;" x1="75.5" x2="464.5" y1="658.457" y2="658.457"/><text fill="#000000" font-family="sans-serif" font-size="13" font-weight="bold" lengthAdjust="spacingAndGlyphs" textLength="18" x="87.5" y="641.0596">10</text><text fill="#000000" font-family="sans-serif" font-size="13" lengthAdjust="spacingAndGlyphs" textLength="221" x="119.5" y="633.4043">AJAX GET /api/load-shopping-cart</text><text fill="#000000" font-family="sans-serif" font-size="13" lengthAdjust="spacingAndGlyphs" textLength="329" x="119.5" y="648.7148">[SessionId HttpOnly w/ domain: Store.Example.com]</text><line style="stroke: #56666F; stroke-width: 1.0;" x1="470.5" x2="512.5" y1="697.7676" y2="697.7676"/><line style="stroke: #56666F; stroke-width: 1.0;" x1="512.5" x2="512.5" y1="697.7676" y2="710.7676"/><line style="stroke: #56666F; stroke-width: 1.0;" x1="471.5" x2="512.5" y1="710.7676" y2="710.7676"/><polygon fill="#56666F" points="481.5,706.7676,471.5,710.7676,481.5,714.7676,477.5,710.7676" style="stroke: #56666F; stroke-width: 1.0;"/><text fill="#000000" font-family="sans-serif" font-size="13" font-weight="bold" lengthAdjust="spacingAndGlyphs" textLength="18" x="482.5" y="688.0254">11</text><text fill="#000000" font-family="sans-serif" font-size="13" lengthAdjust="spacingAndGlyphs" textLength="110" x="514.5" y="688.0254">Session extended</text><polygon fill="#56666F" points="86.5,746.0781,76.5,750.0781,86.5,754.0781,82.5,750.0781" style="stroke: #56666F; stroke-width: 1.0;"/><line style="stroke: #56666F; stroke-width: 1.0;" x1="80.5" x2="469.5" y1="750.0781" y2="750.0781"/><text fill="#000000" font-family="sans-serif" font-size="13" font-weight="bold" lengthAdjust="spacingAndGlyphs" textLength="18" x="97.5" y="740.3359">12</text><text fill="#000000" font-family="sans-serif" font-size="13" lengthAdjust="spacingAndGlyphs" textLength="154" x="129.5" y="740.3359">(Shopping cart contents)</text><path d="M8,767.0781 L8,794.0781 A4,4 0 0 0 12,798.0781 L139,798.0781 A4,4 0 0 0 143,794.0781 L143,773.0781 L133,763.0781 L12,763.0781 A4,4 0 0 0 8,767.0781 " fill="#EB8C52" style="stroke: #FFFFFF; stroke-width: 1.0;"/><path d="M133,763.0781 L133,771.0781 A2,2 0 0 0 135,773.0781 L143,773.0781 L133,763.0781 " fill="#EB8C52" style="stroke: #FFFFFF; stroke-width: 1.0;"/><text fill="#FFFFFF" font-family="sans-serif" font-size="13" font-style="italic" font-weight="bold" lengthAdjust="spacingAndGlyphs" textLength="104" x="19" y="785.6465">Session expires</text><rect fill="#3F2C61" height="3" style="stroke: #3F2C61; stroke-width: 1.0;" width="1053" x="3" y="829.0439"/><line style="stroke: #FFFFFF; stroke-width: 0.5;" x1="3" x2="1056" y1="829.0439" y2="829.0439"/><line style="stroke: #FFFFFF; stroke-width: 0.5;" x1="3" x2="1056" y1="832.0439" y2="832.0439"/><rect fill="#3F2C61" height="33.3105" style="stroke: #FFFFFF; stroke-width: 1.0;" width="87" x="486" y="813.3887"/><text fill="#FFFFFF" font-family="sans-serif" font-size="13" font-weight="bold" lengthAdjust="spacingAndGlyphs" textLength="59" x="497" y="834.957">Re-login</text><polygon fill="#56666F" points="458.5,899.3203,468.5,903.3203,458.5,907.3203,462.5,903.3203" style="stroke: #56666F; stroke-width: 1.0;"/><line style="stroke: #56666F; stroke-width: 1.0;" x1="75.5" x2="464.5" y1="903.3203" y2="903.3203"/><text fill="#000000" font-family="sans-serif" font-size="13" font-weight="bold" lengthAdjust="spacingAndGlyphs" textLength="18" x="87.5" y="885.9229">13</text><text fill="#000000" font-family="sans-serif" font-size="13" lengthAdjust="spacingAndGlyphs" textLength="221" x="119.5" y="878.2676">AJAX GET /api/load-shopping-cart</text><text fill="#000000" font-family="sans-serif" font-size="13" lengthAdjust="spacingAndGlyphs" textLength="329" x="119.5" y="893.5781">[SessionId HttpOnly w/ domain: Store.Example.com]</text><polygon fill="#EB8C52" points="86.5,938.6309,76.5,942.6309,86.5,946.6309,82.5,942.6309" style="stroke: #EB8C52; stroke-width: 1.0;"/><line style="stroke: #EB8C52; stroke-width: 1.0;" x1="80.5" x2="469.5" y1="942.6309" y2="942.6309"/><text fill="#000000" font-family="sans-serif" font-size="13" font-weight="bold" lengthAdjust="spacingAndGlyphs" textLength="18" x="97.5" y="932.8887">14</text><text fill="#EB8C52" font-family="sans-serif" font-size="13" lengthAdjust="spacingAndGlyphs" textLength="124" x="129.5" y="932.8887">401 Not Authorized</text><line style="stroke: #56666F; stroke-width: 1.0;" x1="75.5" x2="117.5" y1="981.9414" y2="981.9414"/><line style="stroke: #56666F; stroke-width: 1.0;" x1="117.5" x2="117.5" y1="981.9414" y2="994.9414"/><line style="stroke: #56666F; stroke-width: 1.0;" x1="76.5" x2="117.5" y1="994.9414" y2="994.9414"/><polygon fill="#56666F" points="86.5,990.9414,76.5,994.9414,86.5,998.9414,82.5,994.9414" style="stroke: #56666F; stroke-width: 1.0;"/><text fill="#000000" font-family="sans-serif" font-size="13" font-weight="bold" lengthAdjust="spacingAndGlyphs" textLength="18" x="87.5" y="972.1992">15</text><text fill="#000000" font-family="sans-serif" font-size="13" lengthAdjust="spacingAndGlyphs" textLength="131" x="119.5" y="972.1992">Login same as above</text><path d="M40,1061.9414 L40,1088.9414 A4,4 0 0 0 44,1092.9414 L1046,1092.9414 A4,4 0 0 0 1050,1088.9414 L1050,1067.9414 L1040,1057.9414 L44,1057.9414 A4,4 0 0 0 40,1061.9414 " fill="#8B80A1" style="stroke: #FFFFFF; stroke-width: 1.0;"/><path d="M1040,1057.9414 L1040,1065.9414 A2,2 0 0 0 1042,1067.9414 L1050,1067.9414 L1040,1057.9414 " fill="#8B80A1" style="stroke: #FFFFFF; stroke-width: 1.0;"/><text fill="#FFFFFF" font-family="sans-serif" font-size="13" font-style="italic" lengthAdjust="spacingAndGlyphs" textLength="429" x="326" y="1080.5098">SSO login to forums - not provided by FusionAuth for this workflow</text><rect fill="#3F2C61" height="3" style="stroke: #3F2C61; stroke-width: 1.0;" width="1053" x="3" y="1173.9072"/><line style="stroke: #FFFFFF; stroke-width: 0.5;" x1="3" x2="1056" y1="1173.9072" y2="1173.9072"/><line style="stroke: #FFFFFF; stroke-width: 0.5;" x1="3" x2="1056" y1="1176.9072" y2="1176.9072"/><rect fill="#3F2C61" height="33.3105" style="stroke: #FFFFFF; stroke-width: 1.0;" width="86" x="486.5" y="1158.252"/><text fill="#FFFFFF" font-family="sans-serif" font-size="13" font-weight="bold" lengthAdjust="spacingAndGlyphs" textLength="58" x="497.5" y="1179.8203">Initialize</text><polygon fill="#56666F" points="586.5,1244.1836,596.5,1248.1836,586.5,1252.1836,590.5,1248.1836" style="stroke: #56666F; stroke-width: 1.0;"/><line style="stroke: #56666F; stroke-width: 1.0;" x1="75.5" x2="592.5" y1="1248.1836" y2="1248.1836"/><text fill="#000000" font-family="sans-serif" font-size="13" font-weight="bold" lengthAdjust="spacingAndGlyphs" textLength="18" x="87.5" y="1230.7861">16</text><text fill="#000000" font-family="sans-serif" font-size="13" lengthAdjust="spacingAndGlyphs" textLength="35" x="119.5" y="1223.1309">GET /</text><text fill="#000000" font-family="sans-serif" font-size="13" lengthAdjust="spacingAndGlyphs" textLength="79" x="119.5" y="1238.4414">[No cookies]</text><rect fill="#D8D8D8" height="40.4883" rx="4" ry="4" style="stroke: #979797; stroke-width: 1.0;" width="76" x="598.5" y="1204.6953"/><text fill="#000000" font-family="sans-serif" font-size="14" lengthAdjust="spacingAndGlyphs" textLength="52" x="610.5" y="1230.2305">Forums</text><polygon fill="#56666F" points="86.5,1283.4941,76.5,1287.4941,86.5,1291.4941,82.5,1287.4941" style="stroke: #56666F; stroke-width: 1.0;"/><line style="stroke: #56666F; stroke-width: 1.0;" x1="80.5" x2="635.5" y1="1287.4941" y2="1287.4941"/><text fill="#000000" font-family="sans-serif" font-size="13" font-weight="bold" lengthAdjust="spacingAndGlyphs" textLength="18" x="97.5" y="1277.752">17</text><text fill="#000000" font-family="sans-serif" font-size="13" lengthAdjust="spacingAndGlyphs" textLength="180" x="129.5" y="1277.752">(SPA HTML, CSS &amp; JavaScript)</text><polygon fill="#56666F" points="624.5,1338.1152,634.5,1342.1152,624.5,1346.1152,628.5,1342.1152" style="stroke: #56666F; stroke-width: 1.0;"/><line style="stroke: #56666F; stroke-width: 1.0;" x1="75.5" x2="630.5" y1="1342.1152" y2="1342.1152"/><text fill="#000000" font-family="sans-serif" font-size="13" font-weight="bold" lengthAdjust="spacingAndGlyphs" textLength="18" x="87.5" y="1324.7178">18</text><text fill="#000000" font-family="sans-serif" font-size="13" lengthAdjust="spacingAndGlyphs" textLength="88" x="119.5" y="1317.0625">GET /api/user</text><text fill="#000000" font-family="sans-serif" font-size="13" lengthAdjust="spacingAndGlyphs" textLength="79" x="119.5" y="1332.373">[No cookies]</text><polygon fill="#EB8C52" points="86.5,1377.4258,76.5,1381.4258,86.5,1385.4258,82.5,1381.4258" style="stroke: #EB8C52; stroke-width: 1.0;"/><line style="stroke: #EB8C52; stroke-width: 1.0;" x1="80.5" x2="635.5" y1="1381.4258" y2="1381.4258"/><text fill="#000000" font-family="sans-serif" font-size="13" font-weight="bold" lengthAdjust="spacingAndGlyphs" textLength="18" x="97.5" y="1371.6836">19</text><text fill="#EB8C52" font-family="sans-serif" font-size="13" lengthAdjust="spacingAndGlyphs" textLength="77" x="129.5" y="1371.6836">404 Missing</text><rect fill="#3F2C61" height="3" style="stroke: #3F2C61; stroke-width: 1.0;" width="1053" x="3" y="1415.0811"/><line style="stroke: #FFFFFF; stroke-width: 0.5;" x1="3" x2="1056" y1="1415.0811" y2="1415.0811"/><line style="stroke: #FFFFFF; stroke-width: 0.5;" x1="3" x2="1056" y1="1418.0811" y2="1418.0811"/><rect fill="#3F2C61" height="33.3105" style="stroke: #FFFFFF; stroke-width: 1.0;" width="150" x="454.5" y="1399.4258"/><text fill="#FFFFFF" font-family="sans-serif" font-size="13" font-weight="bold" lengthAdjust="spacingAndGlyphs" textLength="122" x="465.5" y="1420.9941">Login (inside SPA)</text><line style="stroke: #56666F; stroke-width: 1.0;" x1="75.5" x2="117.5" y1="1474.0469" y2="1474.0469"/><line style="stroke: #56666F; stroke-width: 1.0;" x1="117.5" x2="117.5" y1="1474.0469" y2="1487.0469"/><line style="stroke: #56666F; stroke-width: 1.0;" x1="76.5" x2="117.5" y1="1487.0469" y2="1487.0469"/><polygon fill="#56666F" points="86.5,1483.0469,76.5,1487.0469,86.5,1491.0469,82.5,1487.0469" style="stroke: #56666F; stroke-width: 1.0;"/><text fill="#000000" font-family="sans-serif" font-size="13" font-weight="bold" lengthAdjust="spacingAndGlyphs" textLength="18" x="87.5" y="1464.3047">20</text><text fill="#000000" font-family="sans-serif" font-size="13" lengthAdjust="spacingAndGlyphs" textLength="113" x="119.5" y="1464.3047">Render login form</text><polygon fill="#56666F" points="624.5,1522.3574,634.5,1526.3574,624.5,1530.3574,628.5,1526.3574" style="stroke: #56666F; stroke-width: 1.0;"/><line style="stroke: #56666F; stroke-width: 1.0;" x1="75.5" x2="630.5" y1="1526.3574" y2="1526.3574"/><text fill="#000000" font-family="sans-serif" font-size="13" font-weight="bold" lengthAdjust="spacingAndGlyphs" textLength="18" x="87.5" y="1516.6152">21</text><text fill="#000000" font-family="sans-serif" font-size="13" lengthAdjust="spacingAndGlyphs" textLength="135" x="119.5" y="1516.6152">AJAX POST /api/login</text><polygon fill="#56666F" points="906.5,1576.9785,916.5,1580.9785,906.5,1584.9785,910.5,1580.9785" style="stroke: #56666F; stroke-width: 1.0;"/><line style="stroke: #56666F; stroke-width: 1.0;" x1="636.5" x2="912.5" y1="1580.9785" y2="1580.9785"/><text fill="#000000" font-family="sans-serif" font-size="13" font-weight="bold" lengthAdjust="spacingAndGlyphs" textLength="18" x="648.5" y="1563.5811">22</text><text fill="#000000" font-family="sans-serif" font-size="13" lengthAdjust="spacingAndGlyphs" textLength="130" x="680.5" y="1555.9258">POST /oauth2/token</text><text fill="#000000" font-family="sans-serif" font-size="13" lengthAdjust="spacingAndGlyphs" textLength="145" x="680.5" y="1571.2363">(grant_type=password)</text><polygon fill="#56666F" points="647.5,1616.2891,637.5,1620.2891,647.5,1624.2891,643.5,1620.2891" style="stroke: #56666F; stroke-width: 1.0;"/><line style="stroke: #56666F; stroke-width: 1.0;" x1="641.5" x2="917.5" y1="1620.2891" y2="1620.2891"/><text fill="#000000" font-family="sans-serif" font-size="13" font-weight="bold" lengthAdjust="spacingAndGlyphs" textLength="18" x="658.5" y="1610.5469">23</text><text fill="#000000" font-family="sans-serif" font-size="13" lengthAdjust="spacingAndGlyphs" textLength="216" x="690.5" y="1610.5469">(Refresh Token and JWT - ignored)</text><polygon fill="#56666F" points="86.5,1655.5996,76.5,1659.5996,86.5,1663.5996,82.5,1659.5996" style="stroke: #56666F; stroke-width: 1.0;"/><line style="stroke: #56666F; stroke-width: 1.0;" x1="80.5" x2="635.5" y1="1659.5996" y2="1659.5996"/><text fill="#000000" font-family="sans-serif" font-size="13" font-weight="bold" lengthAdjust="spacingAndGlyphs" textLength="18" x="97.5" y="1649.8574">24</text><text fill="#000000" font-family="sans-serif" font-size="13" lengthAdjust="spacingAndGlyphs" textLength="344" x="129.5" y="1649.8574">[SessionId HttpOnly w/ domain: Forums.Example.com]</text><rect fill="#3F2C61" height="3" style="stroke: #3F2C61; stroke-width: 1.0;" width="1053" x="3" y="1693.2549"/><line style="stroke: #FFFFFF; stroke-width: 0.5;" x1="3" x2="1056" y1="1693.2549" y2="1693.2549"/><line style="stroke: #FFFFFF; stroke-width: 0.5;" x1="3" x2="1056" y1="1696.2549" y2="1696.2549"/><rect fill="#3F2C61" height="33.3105" style="stroke: #FFFFFF; stroke-width: 1.0;" width="104" x="477.5" y="1677.5996"/><text fill="#FFFFFF" font-family="sans-serif" font-size="13" font-weight="bold" lengthAdjust="spacingAndGlyphs" textLength="76" x="488.5" y="1699.168">Forum load</text><polygon fill="#56666F" points="624.5,1763.5313,634.5,1767.5313,624.5,1771.5313,628.5,1767.5313" style="stroke: #56666F; stroke-width: 1.0;"/><line style="stroke: #56666F; stroke-width: 1.0;" x1="75.5" x2="630.5" y1="1767.5313" y2="1767.5313"/><text fill="#000000" font-family="sans-serif" font-size="13" font-weight="bold" lengthAdjust="spacingAndGlyphs" textLength="18" x="87.5" y="1750.1338">25</text><text fill="#000000" font-family="sans-serif" font-size="13" lengthAdjust="spacingAndGlyphs" textLength="165" x="119.5" y="1742.4785">AJAX GET /api/load-posts</text><text fill="#000000" font-family="sans-serif" font-size="13" lengthAdjust="spacingAndGlyphs" textLength="344" x="119.5" y="1757.7891">[SessionId HttpOnly w/ domain: Forums.Example.com]</text><line style="stroke: #56666F; stroke-width: 1.0;" x1="636.5" x2="678.5" y1="1806.8418" y2="1806.8418"/><line style="stroke: #56666F; stroke-width: 1.0;" x1="678.5" x2="678.5" y1="1806.8418" y2="1819.8418"/><line style="stroke: #56666F; stroke-width: 1.0;" x1="637.5" x2="678.5" y1="1819.8418" y2="1819.8418"/><polygon fill="#56666F" points="647.5,1815.8418,637.5,1819.8418,647.5,1823.8418,643.5,1819.8418" style="stroke: #56666F; stroke-width: 1.0;"/><text fill="#000000" font-family="sans-serif" font-size="13" font-weight="bold" lengthAdjust="spacingAndGlyphs" textLength="18" x="648.5" y="1797.0996">26</text><text fill="#000000" font-family="sans-serif" font-size="13" lengthAdjust="spacingAndGlyphs" textLength="110" x="680.5" y="1797.0996">Session extended</text><polygon fill="#56666F" points="86.5,1855.1523,76.5,1859.1523,86.5,1863.1523,82.5,1859.1523" style="stroke: #56666F; stroke-width: 1.0;"/><line style="stroke: #56666F; stroke-width: 1.0;" x1="80.5" x2="635.5" y1="1859.1523" y2="1859.1523"/><text fill="#000000" font-family="sans-serif" font-size="13" font-weight="bold" lengthAdjust="spacingAndGlyphs" textLength="18" x="97.5" y="1849.4102">27</text><text fill="#000000" font-family="sans-serif" font-size="13" lengthAdjust="spacingAndGlyphs" textLength="87" x="129.5" y="1849.4102">(Forum posts)</text><path d="M40,1926.1523 L40,1953.1523 A4,4 0 0 0 44,1957.1523 L1046,1957.1523 A4,4 0 0 0 1050,1953.1523 L1050,1932.1523 L1040,1922.1523 L44,1922.1523 A4,4 0 0 0 40,1926.1523 " fill="#8B80A1" style="stroke: #FFFFFF; stroke-width: 1.0;"/><path d="M1040,1922.1523 L1040,1930.1523 A2,2 0 0 0 1042,1932.1523 L1050,1932.1523 L1040,1922.1523 " fill="#8B80A1" style="stroke: #FFFFFF; stroke-width: 1.0;"/><text fill="#FFFFFF" font-family="sans-serif" font-size="13" font-style="italic" lengthAdjust="spacingAndGlyphs" textLength="91" x="495" y="1944.7207">Attack vectors</text><rect fill="#3F2C61" height="3" style="stroke: #3F2C61; stroke-width: 1.0;" width="1053" x="3" y="2038.1182"/><line style="stroke: #FFFFFF; stroke-width: 0.5;" x1="3" x2="1056" y1="2038.1182" y2="2038.1182"/><line style="stroke: #FFFFFF; stroke-width: 0.5;" x1="3" x2="1056" y1="2041.1182" y2="2041.1182"/><rect fill="#3F2C61" height="33.3105" style="stroke: #FFFFFF; stroke-width: 1.0;" width="140" x="459.5" y="2022.4629"/><text fill="#FFFFFF" font-family="sans-serif" font-size="13" font-weight="bold" lengthAdjust="spacingAndGlyphs" textLength="112" x="470.5" y="2044.0313">Stolen session id</text><polygon fill="#56666F" points="481.5,2108.3945,471.5,2112.3945,481.5,2116.3945,477.5,2112.3945" style="stroke: #56666F; stroke-width: 1.0;"/><line style="stroke: #56666F; stroke-width: 1.0;" x1="475.5" x2="1014.5" y1="2112.3945" y2="2112.3945"/><text fill="#000000" font-family="sans-serif" font-size="13" font-weight="bold" lengthAdjust="spacingAndGlyphs" textLength="18" x="492.5" y="2094.9971">28</text><text fill="#000000" font-family="sans-serif" font-size="13" lengthAdjust="spacingAndGlyphs" textLength="187" x="524.5" y="2087.3418">GET /api/load-shopping-cart</text><text fill="#000000" font-family="sans-serif" font-size="13" lengthAdjust="spacingAndGlyphs" textLength="329" x="524.5" y="2102.6523">[SessionId HttpOnly w/ domain: Store.Example.com]</text><line style="stroke: #56666F; stroke-width: 1.0;" x1="470.5" x2="512.5" y1="2151.7051" y2="2151.7051"/><line style="stroke: #56666F; stroke-width: 1.0;" x1="512.5" x2="512.5" y1="2151.7051" y2="2164.7051"/><line style="stroke: #56666F; stroke-width: 1.0;" x1="471.5" x2="512.5" y1="2164.7051" y2="2164.7051"/><polygon fill="#56666F" points="481.5,2160.7051,471.5,2164.7051,481.5,2168.7051,477.5,2164.7051" style="stroke: #56666F; stroke-width: 1.0;"/><text fill="#000000" font-family="sans-serif" font-size="13" font-weight="bold" lengthAdjust="spacingAndGlyphs" textLength="18" x="482.5" y="2141.9629">29</text><text fill="#000000" font-family="sans-serif" font-size="13" lengthAdjust="spacingAndGlyphs" textLength="110" x="514.5" y="2141.9629">Session extended</text><polygon fill="#56666F" points="1003.5,2200.0156,1013.5,2204.0156,1003.5,2208.0156,1007.5,2204.0156" style="stroke: #56666F; stroke-width: 1.0;"/><line style="stroke: #56666F; stroke-width: 1.0;" x1="470.5" x2="1009.5" y1="2204.0156" y2="2204.0156"/><text fill="#000000" font-family="sans-serif" font-size="13" font-weight="bold" lengthAdjust="spacingAndGlyphs" textLength="18" x="482.5" y="2194.2734">30</text><text fill="#000000" font-family="sans-serif" font-size="13" lengthAdjust="spacingAndGlyphs" textLength="154" x="514.5" y="2194.2734">(Shopping cart contents)</text></g></svg>