<?xml version="1.0" encoding="UTF-8" standalone="no"?><svg xmlns="http://www.w3.org/2000/svg" xmlns:xlink="http://www.w3.org/1999/xlink" contentScriptType="application/ecmascript" contentStyleType="text/css" height="2715px" preserveAspectRatio="none" style="width:1129px;height:2715px;" version="1.1" viewBox="0 0 1129 2715" width="1129px" zoomAndPan="magnify"><defs/><g><rect fill="#D8D8D8" height="40.4883" rx="4" ry="4" style="stroke: #979797; stroke-width: 1.0;" width="76" x="613.5" y="1495.8008"/><text fill="#000000" font-family="sans-serif" font-size="14" lengthAdjust="spacingAndGlyphs" textLength="52" x="625.5" y="1521.3359">Forums</text><line style="stroke: #CDCDCD; stroke-width: 1.0; stroke-dasharray: 5.0,5.0;" x1="97" x2="97" y1="44.4883" y2="2664.9844"/><line style="stroke: #CDCDCD; stroke-width: 1.0; stroke-dasharray: 5.0,5.0;" x1="573.5" x2="573.5" y1="44.4883" y2="2664.9844"/><line style="stroke: #CDCDCD; stroke-width: 1.0; stroke-dasharray: 5.0,5.0;" x1="651.5" x2="651.5" y1="1529.9785" y2="2664.9844"/><line style="stroke: #CDCDCD; stroke-width: 1.0; stroke-dasharray: 5.0,5.0;" x1="929" x2="929" y1="44.4883" y2="2664.9844"/><line style="stroke: #CDCDCD; stroke-width: 1.0; stroke-dasharray: 5.0,5.0;" x1="1076" x2="1076" y1="44.4883" y2="2664.9844"/><rect fill="#D8D8D8" height="40.4883" rx="4" ry="4" style="stroke: #979797; stroke-width: 1.0;" width="79" x="58" y="3"/><text fill="#000000" font-family="sans-serif" font-size="14" lengthAdjust="spacingAndGlyphs" textLength="55" x="70" y="28.5352">Browser</text><rect fill="#D8D8D8" height="40.4883" rx="4" ry="4" style="stroke: #979797; stroke-width: 1.0;" width="79" x="58" y="2663.9844"/><text fill="#000000" font-family="sans-serif" font-size="14" lengthAdjust="spacingAndGlyphs" textLength="55" x="70" y="2689.5195">Browser</text><rect fill="#D8D8D8" height="40.4883" rx="4" ry="4" style="stroke: #979797; stroke-width: 1.0;" width="60" x="543.5" y="3"/><text fill="#000000" font-family="sans-serif" font-size="14" lengthAdjust="spacingAndGlyphs" textLength="36" x="555.5" y="28.5352">Store</text><rect fill="#D8D8D8" height="40.4883" rx="4" ry="4" style="stroke: #979797; stroke-width: 1.0;" width="60" x="543.5" y="2663.9844"/><text fill="#000000" font-family="sans-serif" font-size="14" lengthAdjust="spacingAndGlyphs" textLength="36" x="555.5" y="2689.5195">Store</text><rect fill="#D8D8D8" height="40.4883" rx="4" ry="4" style="stroke: #979797; stroke-width: 1.0;" width="76" x="613.5" y="2663.9844"/><text fill="#000000" font-family="sans-serif" font-size="14" lengthAdjust="spacingAndGlyphs" textLength="52" x="625.5" y="2689.5195">Forums</text><rect fill="#D8D8D8" height="40.4883" rx="4" ry="4" style="stroke: #979797; stroke-width: 1.0;" width="103" x="878" y="3"/><text fill="#000000" font-family="sans-serif" font-size="14" lengthAdjust="spacingAndGlyphs" textLength="79" x="890" y="28.5352">FusionAuth</text><rect fill="#D8D8D8" height="40.4883" rx="4" ry="4" style="stroke: #979797; stroke-width: 1.0;" width="103" x="878" y="2663.9844"/><text fill="#000000" font-family="sans-serif" font-size="14" lengthAdjust="spacingAndGlyphs" textLength="79" x="890" y="2689.5195">FusionAuth</text><rect fill="#D8D8D8" height="40.4883" rx="4" ry="4" style="stroke: #979797; stroke-width: 1.0;" width="71" x="1041" y="3"/><text fill="#000000" font-family="sans-serif" font-size="14" lengthAdjust="spacingAndGlyphs" textLength="47" x="1053" y="28.5352">Hacker</text><rect fill="#D8D8D8" height="40.4883" rx="4" ry="4" style="stroke: #979797; stroke-width: 1.0;" width="71" x="1041" y="2663.9844"/><text fill="#000000" font-family="sans-serif" font-size="14" lengthAdjust="spacingAndGlyphs" textLength="47" x="1053" y="2689.5195">Hacker</text><rect fill="#3F2C61" height="3" style="stroke: #3F2C61; stroke-width: 1.0;" width="1114" x="3" y="80.1436"/><line style="stroke: #FFFFFF; stroke-width: 0.5;" x1="3" x2="1117" y1="80.1436" y2="80.1436"/><line style="stroke: #FFFFFF; stroke-width: 0.5;" x1="3" x2="1117" y1="83.1436" y2="83.1436"/><rect fill="#3F2C61" height="33.3105" style="stroke: #FFFFFF; stroke-width: 1.0;" width="86" x="517" y="64.4883"/><text fill="#FFFFFF" font-family="sans-serif" font-size="13" font-weight="bold" lengthAdjust="spacingAndGlyphs" textLength="58" x="528" y="86.0566">Initialize</text><polygon fill="#56666F" points="561.5,135.1094,571.5,139.1094,561.5,143.1094,565.5,139.1094" style="stroke: #56666F; stroke-width: 1.0;"/><line style="stroke: #56666F; stroke-width: 1.0;" x1="97.5" x2="567.5" y1="139.1094" y2="139.1094"/><text fill="#000000" font-family="sans-serif" font-size="13" font-weight="bold" lengthAdjust="spacingAndGlyphs" textLength="9" x="109.5" y="129.3672">1</text><text fill="#000000" font-family="sans-serif" font-size="13" lengthAdjust="spacingAndGlyphs" textLength="35" x="132.5" y="129.3672">GET /</text><polygon fill="#56666F" points="108.5,174.4199,98.5,178.4199,108.5,182.4199,104.5,178.4199" style="stroke: #56666F; stroke-width: 1.0;"/><line style="stroke: #56666F; stroke-width: 1.0;" x1="102.5" x2="572.5" y1="178.4199" y2="178.4199"/><text fill="#000000" font-family="sans-serif" font-size="13" font-weight="bold" lengthAdjust="spacingAndGlyphs" textLength="9" x="119.5" y="168.6777">2</text><text fill="#000000" font-family="sans-serif" font-size="13" lengthAdjust="spacingAndGlyphs" textLength="180" x="142.5" y="168.6777">(SPA HTML, CSS &amp; JavaScript)</text><polygon fill="#56666F" points="561.5,229.041,571.5,233.041,561.5,237.041,565.5,233.041" style="stroke: #56666F; stroke-width: 1.0;"/><line style="stroke: #56666F; stroke-width: 1.0;" x1="97.5" x2="567.5" y1="233.041" y2="233.041"/><text fill="#000000" font-family="sans-serif" font-size="13" font-weight="bold" lengthAdjust="spacingAndGlyphs" textLength="9" x="109.5" y="215.6436">3</text><text fill="#000000" font-family="sans-serif" font-size="13" lengthAdjust="spacingAndGlyphs" textLength="122" x="132.5" y="207.9883">AJAX GET /api/user</text><text fill="#000000" font-family="sans-serif" font-size="13" lengthAdjust="spacingAndGlyphs" textLength="79" x="132.5" y="223.2988">[No cookies]</text><polygon fill="#EB8C52" points="108.5,268.3516,98.5,272.3516,108.5,276.3516,104.5,272.3516" style="stroke: #EB8C52; stroke-width: 1.0;"/><line style="stroke: #EB8C52; stroke-width: 1.0;" x1="102.5" x2="572.5" y1="272.3516" y2="272.3516"/><text fill="#000000" font-family="sans-serif" font-size="13" font-weight="bold" lengthAdjust="spacingAndGlyphs" textLength="9" x="119.5" y="262.6094">4</text><text fill="#EB8C52" font-family="sans-serif" font-size="13" lengthAdjust="spacingAndGlyphs" textLength="77" x="142.5" y="262.6094">404 Missing</text><rect fill="#3F2C61" height="3" style="stroke: #3F2C61; stroke-width: 1.0;" width="1114" x="3" y="306.0068"/><line style="stroke: #FFFFFF; stroke-width: 0.5;" x1="3" x2="1117" y1="306.0068" y2="306.0068"/><line style="stroke: #FFFFFF; stroke-width: 0.5;" x1="3" x2="1117" y1="309.0068" y2="309.0068"/><rect fill="#3F2C61" height="33.3105" style="stroke: #FFFFFF; stroke-width: 1.0;" width="150" x="485" y="290.3516"/><text fill="#FFFFFF" font-family="sans-serif" font-size="13" font-weight="bold" lengthAdjust="spacingAndGlyphs" textLength="122" x="496" y="311.9199">Login (inside SPA)</text><polygon fill="#56666F" points="561.5,360.9727,571.5,364.9727,561.5,368.9727,565.5,364.9727" style="stroke: #56666F; stroke-width: 1.0;"/><line style="stroke: #56666F; stroke-width: 1.0;" x1="97.5" x2="567.5" y1="364.9727" y2="364.9727"/><text fill="#000000" font-family="sans-serif" font-size="13" font-weight="bold" lengthAdjust="spacingAndGlyphs" textLength="9" x="109.5" y="355.2305">5</text><text fill="#000000" font-family="sans-serif" font-size="13" lengthAdjust="spacingAndGlyphs" textLength="135" x="132.5" y="355.2305">AJAX POST /api/login</text><polygon fill="#56666F" points="917.5,415.5938,927.5,419.5938,917.5,423.5938,921.5,419.5938" style="stroke: #56666F; stroke-width: 1.0;"/><line style="stroke: #56666F; stroke-width: 1.0;" x1="573.5" x2="923.5" y1="419.5938" y2="419.5938"/><text fill="#000000" font-family="sans-serif" font-size="13" font-weight="bold" lengthAdjust="spacingAndGlyphs" textLength="9" x="585.5" y="402.1963">6</text><text fill="#000000" font-family="sans-serif" font-size="13" lengthAdjust="spacingAndGlyphs" textLength="130" x="608.5" y="394.541">POST /oauth2/token</text><text fill="#000000" font-family="sans-serif" font-size="13" lengthAdjust="spacingAndGlyphs" textLength="145" x="608.5" y="409.8516">(grant_type=password)</text><polygon fill="#56666F" points="584.5,454.9043,574.5,458.9043,584.5,462.9043,580.5,458.9043" style="stroke: #56666F; stroke-width: 1.0;"/><line style="stroke: #56666F; stroke-width: 1.0;" x1="578.5" x2="928.5" y1="458.9043" y2="458.9043"/><text fill="#000000" font-family="sans-serif" font-size="13" font-weight="bold" lengthAdjust="spacingAndGlyphs" textLength="9" x="595.5" y="449.1621">7</text><text fill="#000000" font-family="sans-serif" font-size="13" lengthAdjust="spacingAndGlyphs" textLength="152" x="618.5" y="449.1621">(Refresh Token and JWT)</text><polygon fill="#56666F" points="108.5,494.2148,98.5,498.2148,108.5,502.2148,104.5,498.2148" style="stroke: #56666F; stroke-width: 1.0;"/><line style="stroke: #56666F; stroke-width: 1.0;" x1="102.5" x2="572.5" y1="498.2148" y2="498.2148"/><text fill="#000000" font-family="sans-serif" font-size="13" font-weight="bold" lengthAdjust="spacingAndGlyphs" textLength="9" x="119.5" y="488.4727">8</text><text fill="#000000" font-family="sans-serif" font-size="13" lengthAdjust="spacingAndGlyphs" textLength="413" x="142.5" y="488.4727">[Refresh Token and JWT HttpOnly w/ domain: Store.Example.com]</text><rect fill="#3F2C61" height="3" style="stroke: #3F2C61; stroke-width: 1.0;" width="1114" x="3" y="531.8701"/><line style="stroke: #FFFFFF; stroke-width: 0.5;" x1="3" x2="1117" y1="531.8701" y2="531.8701"/><line style="stroke: #FFFFFF; stroke-width: 0.5;" x1="3" x2="1117" y1="534.8701" y2="534.8701"/><rect fill="#3F2C61" height="33.3105" style="stroke: #FFFFFF; stroke-width: 1.0;" width="155" x="482.5" y="516.2148"/><text fill="#FFFFFF" font-family="sans-serif" font-size="13" font-weight="bold" lengthAdjust="spacingAndGlyphs" textLength="127" x="493.5" y="537.7832">Shopping cart load</text><polygon fill="#56666F" points="561.5,602.1465,571.5,606.1465,561.5,610.1465,565.5,606.1465" style="stroke: #56666F; stroke-width: 1.0;"/><line style="stroke: #56666F; stroke-width: 1.0;" x1="97.5" x2="567.5" y1="606.1465" y2="606.1465"/><text fill="#000000" font-family="sans-serif" font-size="13" font-weight="bold" lengthAdjust="spacingAndGlyphs" textLength="9" x="109.5" y="588.749">9</text><text fill="#000000" font-family="sans-serif" font-size="13" lengthAdjust="spacingAndGlyphs" textLength="221" x="132.5" y="581.0938">AJAX GET /api/load-shopping-cart</text><text fill="#000000" font-family="sans-serif" font-size="13" lengthAdjust="spacingAndGlyphs" textLength="410" x="132.5" y="596.4043">[Refresh token and JWT HttpOnly w/ domain: Store.Example.com]</text><polygon fill="#56666F" points="108.5,641.457,98.5,645.457,108.5,649.457,104.5,645.457" style="stroke: #56666F; stroke-width: 1.0;"/><line style="stroke: #56666F; stroke-width: 1.0;" x1="102.5" x2="572.5" y1="645.457" y2="645.457"/><text fill="#000000" font-family="sans-serif" font-size="13" font-weight="bold" lengthAdjust="spacingAndGlyphs" textLength="18" x="119.5" y="635.7148">10</text><text fill="#000000" font-family="sans-serif" font-size="13" lengthAdjust="spacingAndGlyphs" textLength="154" x="151.5" y="635.7148">(Shopping cart contents)</text><path d="M42,662.457 L42,689.457 A4,4 0 0 0 46,693.457 L149,693.457 A4,4 0 0 0 153,689.457 L153,668.457 L143,658.457 L46,658.457 A4,4 0 0 0 42,662.457 " fill="#EB8C52" style="stroke: #FFFFFF; stroke-width: 1.0;"/><path d="M143,658.457 L143,666.457 A2,2 0 0 0 145,668.457 L153,668.457 L143,658.457 " fill="#EB8C52" style="stroke: #FFFFFF; stroke-width: 1.0;"/><text fill="#FFFFFF" font-family="sans-serif" font-size="13" font-style="italic" font-weight="bold" lengthAdjust="spacingAndGlyphs" textLength="80" x="53" y="681.0254">JWT expires</text><rect fill="#3F2C61" height="3" style="stroke: #3F2C61; stroke-width: 1.0;" width="1114" x="3" y="724.4229"/><line style="stroke: #FFFFFF; stroke-width: 0.5;" x1="3" x2="1117" y1="724.4229" y2="724.4229"/><line style="stroke: #FFFFFF; stroke-width: 0.5;" x1="3" x2="1117" y1="727.4229" y2="727.4229"/><rect fill="#3F2C61" height="33.3105" style="stroke: #FFFFFF; stroke-width: 1.0;" width="155" x="482.5" y="708.7676"/><text fill="#FFFFFF" font-family="sans-serif" font-size="13" font-weight="bold" lengthAdjust="spacingAndGlyphs" textLength="127" x="493.5" y="730.3359">Shopping cart load</text><polygon fill="#56666F" points="561.5,794.6992,571.5,798.6992,561.5,802.6992,565.5,798.6992" style="stroke: #56666F; stroke-width: 1.0;"/><line style="stroke: #56666F; stroke-width: 1.0;" x1="97.5" x2="567.5" y1="798.6992" y2="798.6992"/><text fill="#000000" font-family="sans-serif" font-size="13" font-weight="bold" lengthAdjust="spacingAndGlyphs" textLength="18" x="109.5" y="781.3018">11</text><text fill="#000000" font-family="sans-serif" font-size="13" lengthAdjust="spacingAndGlyphs" textLength="221" x="141.5" y="773.6465">AJAX GET /api/load-shopping-cart</text><text fill="#000000" font-family="sans-serif" font-size="13" lengthAdjust="spacingAndGlyphs" textLength="410" x="141.5" y="788.957">[Refresh token and JWT HttpOnly w/ domain: Store.Example.com]</text><polygon fill="#56666F" points="917.5,849.3203,927.5,853.3203,917.5,857.3203,921.5,853.3203" style="stroke: #56666F; stroke-width: 1.0;"/><line style="stroke: #56666F; stroke-width: 1.0;" x1="573.5" x2="923.5" y1="853.3203" y2="853.3203"/><text fill="#000000" font-family="sans-serif" font-size="13" font-weight="bold" lengthAdjust="spacingAndGlyphs" textLength="18" x="585.5" y="835.9229">12</text><text fill="#000000" font-family="sans-serif" font-size="13" lengthAdjust="spacingAndGlyphs" textLength="290" x="617.5" y="828.2676">POST /oauth2/token or POST /api/jwt/refresh</text><text fill="#000000" font-family="sans-serif" font-size="13" lengthAdjust="spacingAndGlyphs" textLength="244" x="617.5" y="843.5781">(grant_type=refresh and refresh token)</text><polygon fill="#56666F" points="584.5,888.6309,574.5,892.6309,584.5,896.6309,580.5,892.6309" style="stroke: #56666F; stroke-width: 1.0;"/><line style="stroke: #56666F; stroke-width: 1.0;" x1="578.5" x2="928.5" y1="892.6309" y2="892.6309"/><text fill="#000000" font-family="sans-serif" font-size="13" font-weight="bold" lengthAdjust="spacingAndGlyphs" textLength="18" x="595.5" y="882.8887">13</text><text fill="#000000" font-family="sans-serif" font-size="13" lengthAdjust="spacingAndGlyphs" textLength="31" x="627.5" y="882.8887">(JWT)</text><polygon fill="#56666F" points="108.5,943.252,98.5,947.252,108.5,951.252,104.5,947.252" style="stroke: #56666F; stroke-width: 1.0;"/><line style="stroke: #56666F; stroke-width: 1.0;" x1="102.5" x2="572.5" y1="947.252" y2="947.252"/><text fill="#000000" font-family="sans-serif" font-size="13" font-weight="bold" lengthAdjust="spacingAndGlyphs" textLength="18" x="119.5" y="929.8545">14</text><text fill="#000000" font-family="sans-serif" font-size="13" lengthAdjust="spacingAndGlyphs" textLength="154" x="151.5" y="922.1992">(Shopping cart contents)</text><text fill="#000000" font-family="sans-serif" font-size="13" lengthAdjust="spacingAndGlyphs" textLength="323" x="151.5" y="937.5098">[New JWT HttpOnly w/ domain: Store.Example.com]</text><path d="M8,964.252 L8,991.252 A4,4 0 0 0 12,995.252 L183,995.252 A4,4 0 0 0 187,991.252 L187,970.252 L177,960.252 L12,960.252 A4,4 0 0 0 8,964.252 " fill="#EB8C52" style="stroke: #FFFFFF; stroke-width: 1.0;"/><path d="M177,960.252 L177,968.252 A2,2 0 0 0 179,970.252 L187,970.252 L177,960.252 " fill="#EB8C52" style="stroke: #FFFFFF; stroke-width: 1.0;"/><text fill="#FFFFFF" font-family="sans-serif" font-size="13" font-style="italic" font-weight="bold" lengthAdjust="spacingAndGlyphs" textLength="148" x="19" y="982.8203">Refresh token expires</text><rect fill="#3F2C61" height="3" style="stroke: #3F2C61; stroke-width: 1.0;" width="1114" x="3" y="1026.2178"/><line style="stroke: #FFFFFF; stroke-width: 0.5;" x1="3" x2="1117" y1="1026.2178" y2="1026.2178"/><line style="stroke: #FFFFFF; stroke-width: 0.5;" x1="3" x2="1117" y1="1029.2178" y2="1029.2178"/><rect fill="#3F2C61" height="33.3105" style="stroke: #FFFFFF; stroke-width: 1.0;" width="87" x="516.5" y="1010.5625"/><text fill="#FFFFFF" font-family="sans-serif" font-size="13" font-weight="bold" lengthAdjust="spacingAndGlyphs" textLength="59" x="527.5" y="1032.1309">Re-login</text><polygon fill="#56666F" points="561.5,1096.4941,571.5,1100.4941,561.5,1104.4941,565.5,1100.4941" style="stroke: #56666F; stroke-width: 1.0;"/><line style="stroke: #56666F; stroke-width: 1.0;" x1="97.5" x2="567.5" y1="1100.4941" y2="1100.4941"/><text fill="#000000" font-family="sans-serif" font-size="13" font-weight="bold" lengthAdjust="spacingAndGlyphs" textLength="18" x="109.5" y="1083.0967">15</text><text fill="#000000" font-family="sans-serif" font-size="13" lengthAdjust="spacingAndGlyphs" textLength="221" x="141.5" y="1075.4414">AJAX GET /api/load-shopping-cart</text><text fill="#000000" font-family="sans-serif" font-size="13" lengthAdjust="spacingAndGlyphs" textLength="410" x="141.5" y="1090.752">[Refresh token and JWT HttpOnly w/ domain: Store.Example.com]</text><polygon fill="#56666F" points="917.5,1151.1152,927.5,1155.1152,917.5,1159.1152,921.5,1155.1152" style="stroke: #56666F; stroke-width: 1.0;"/><line style="stroke: #56666F; stroke-width: 1.0;" x1="573.5" x2="923.5" y1="1155.1152" y2="1155.1152"/><text fill="#000000" font-family="sans-serif" font-size="13" font-weight="bold" lengthAdjust="spacingAndGlyphs" textLength="18" x="585.5" y="1137.7178">16</text><text fill="#000000" font-family="sans-serif" font-size="13" lengthAdjust="spacingAndGlyphs" textLength="290" x="617.5" y="1130.0625">POST /oauth2/token or POST /api/jwt/refresh</text><text fill="#000000" font-family="sans-serif" font-size="13" lengthAdjust="spacingAndGlyphs" textLength="244" x="617.5" y="1145.373">(grant_type=refresh and refresh token)</text><polygon fill="#EB8C52" points="584.5,1190.4258,574.5,1194.4258,584.5,1198.4258,580.5,1194.4258" style="stroke: #EB8C52; stroke-width: 1.0;"/><line style="stroke: #EB8C52; stroke-width: 1.0;" x1="578.5" x2="928.5" y1="1194.4258" y2="1194.4258"/><text fill="#000000" font-family="sans-serif" font-size="13" font-weight="bold" lengthAdjust="spacingAndGlyphs" textLength="18" x="595.5" y="1184.6836">17</text><text fill="#EB8C52" font-family="sans-serif" font-size="13" lengthAdjust="spacingAndGlyphs" textLength="77" x="627.5" y="1184.6836">404 Missing</text><polygon fill="#EB8C52" points="108.5,1229.7363,98.5,1233.7363,108.5,1237.7363,104.5,1233.7363" style="stroke: #EB8C52; stroke-width: 1.0;"/><line style="stroke: #EB8C52; stroke-width: 1.0;" x1="102.5" x2="572.5" y1="1233.7363" y2="1233.7363"/><text fill="#000000" font-family="sans-serif" font-size="13" font-weight="bold" lengthAdjust="spacingAndGlyphs" textLength="18" x="119.5" y="1223.9941">18</text><text fill="#EB8C52" font-family="sans-serif" font-size="13" lengthAdjust="spacingAndGlyphs" textLength="124" x="151.5" y="1223.9941">401 Not Authorized</text><line style="stroke: #56666F; stroke-width: 1.0;" x1="97.5" x2="139.5" y1="1273.0469" y2="1273.0469"/><line style="stroke: #56666F; stroke-width: 1.0;" x1="139.5" x2="139.5" y1="1273.0469" y2="1286.0469"/><line style="stroke: #56666F; stroke-width: 1.0;" x1="98.5" x2="139.5" y1="1286.0469" y2="1286.0469"/><polygon fill="#56666F" points="108.5,1282.0469,98.5,1286.0469,108.5,1290.0469,104.5,1286.0469" style="stroke: #56666F; stroke-width: 1.0;"/><text fill="#000000" font-family="sans-serif" font-size="13" font-weight="bold" lengthAdjust="spacingAndGlyphs" textLength="18" x="109.5" y="1263.3047">19</text><text fill="#000000" font-family="sans-serif" font-size="13" lengthAdjust="spacingAndGlyphs" textLength="131" x="141.5" y="1263.3047">Login same as above</text><path d="M62,1353.0469 L62,1380.0469 A4,4 0 0 0 66,1384.0469 L1107,1384.0469 A4,4 0 0 0 1111,1380.0469 L1111,1359.0469 L1101,1349.0469 L66,1349.0469 A4,4 0 0 0 62,1353.0469 " fill="#8B80A1" style="stroke: #FFFFFF; stroke-width: 1.0;"/><path d="M1101,1349.0469 L1101,1357.0469 A2,2 0 0 0 1103,1359.0469 L1111,1359.0469 L1101,1349.0469 " fill="#8B80A1" style="stroke: #FFFFFF; stroke-width: 1.0;"/><text fill="#FFFFFF" font-family="sans-serif" font-size="13" font-style="italic" lengthAdjust="spacingAndGlyphs" textLength="429" x="367.5" y="1371.6152">SSO login to forums - not provided by FusionAuth for this workflow</text><rect fill="#3F2C61" height="3" style="stroke: #3F2C61; stroke-width: 1.0;" width="1114" x="3" y="1465.0127"/><line style="stroke: #FFFFFF; stroke-width: 0.5;" x1="3" x2="1117" y1="1465.0127" y2="1465.0127"/><line style="stroke: #FFFFFF; stroke-width: 0.5;" x1="3" x2="1117" y1="1468.0127" y2="1468.0127"/><rect fill="#3F2C61" height="33.3105" style="stroke: #FFFFFF; stroke-width: 1.0;" width="86" x="517" y="1449.3574"/><text fill="#FFFFFF" font-family="sans-serif" font-size="13" font-weight="bold" lengthAdjust="spacingAndGlyphs" textLength="58" x="528" y="1470.9258">Initialize</text><polygon fill="#56666F" points="601.5,1535.2891,611.5,1539.2891,601.5,1543.2891,605.5,1539.2891" style="stroke: #56666F; stroke-width: 1.0;"/><line style="stroke: #56666F; stroke-width: 1.0;" x1="97.5" x2="607.5" y1="1539.2891" y2="1539.2891"/><text fill="#000000" font-family="sans-serif" font-size="13" font-weight="bold" lengthAdjust="spacingAndGlyphs" textLength="18" x="109.5" y="1521.8916">20</text><text fill="#000000" font-family="sans-serif" font-size="13" lengthAdjust="spacingAndGlyphs" textLength="35" x="141.5" y="1514.2363">GET /</text><text fill="#000000" font-family="sans-serif" font-size="13" lengthAdjust="spacingAndGlyphs" textLength="79" x="141.5" y="1529.5469">[No cookies]</text><rect fill="#D8D8D8" height="40.4883" rx="4" ry="4" style="stroke: #979797; stroke-width: 1.0;" width="76" x="613.5" y="1495.8008"/><text fill="#000000" font-family="sans-serif" font-size="14" lengthAdjust="spacingAndGlyphs" textLength="52" x="625.5" y="1521.3359">Forums</text><polygon fill="#56666F" points="108.5,1574.5996,98.5,1578.5996,108.5,1582.5996,104.5,1578.5996" style="stroke: #56666F; stroke-width: 1.0;"/><line style="stroke: #56666F; stroke-width: 1.0;" x1="102.5" x2="650.5" y1="1578.5996" y2="1578.5996"/><text fill="#000000" font-family="sans-serif" font-size="13" font-weight="bold" lengthAdjust="spacingAndGlyphs" textLength="18" x="119.5" y="1568.8574">21</text><text fill="#000000" font-family="sans-serif" font-size="13" lengthAdjust="spacingAndGlyphs" textLength="180" x="151.5" y="1568.8574">(SPA HTML, CSS &amp; JavaScript)</text><polygon fill="#56666F" points="639.5,1629.2207,649.5,1633.2207,639.5,1637.2207,643.5,1633.2207" style="stroke: #56666F; stroke-width: 1.0;"/><line style="stroke: #56666F; stroke-width: 1.0;" x1="97.5" x2="645.5" y1="1633.2207" y2="1633.2207"/><text fill="#000000" font-family="sans-serif" font-size="13" font-weight="bold" lengthAdjust="spacingAndGlyphs" textLength="18" x="109.5" y="1615.8232">22</text><text fill="#000000" font-family="sans-serif" font-size="13" lengthAdjust="spacingAndGlyphs" textLength="88" x="141.5" y="1608.168">GET /api/user</text><text fill="#000000" font-family="sans-serif" font-size="13" lengthAdjust="spacingAndGlyphs" textLength="79" x="141.5" y="1623.4785">[No cookies]</text><polygon fill="#EB8C52" points="108.5,1668.5313,98.5,1672.5313,108.5,1676.5313,104.5,1672.5313" style="stroke: #EB8C52; stroke-width: 1.0;"/><line style="stroke: #EB8C52; stroke-width: 1.0;" x1="102.5" x2="650.5" y1="1672.5313" y2="1672.5313"/><text fill="#000000" font-family="sans-serif" font-size="13" font-weight="bold" lengthAdjust="spacingAndGlyphs" textLength="18" x="119.5" y="1662.7891">23</text><text fill="#EB8C52" font-family="sans-serif" font-size="13" lengthAdjust="spacingAndGlyphs" textLength="77" x="151.5" y="1662.7891">404 Missing</text><rect fill="#3F2C61" height="3" style="stroke: #3F2C61; stroke-width: 1.0;" width="1114" x="3" y="1706.1865"/><line style="stroke: #FFFFFF; stroke-width: 0.5;" x1="3" x2="1117" y1="1706.1865" y2="1706.1865"/><line style="stroke: #FFFFFF; stroke-width: 0.5;" x1="3" x2="1117" y1="1709.1865" y2="1709.1865"/><rect fill="#3F2C61" height="33.3105" style="stroke: #FFFFFF; stroke-width: 1.0;" width="150" x="485" y="1690.5313"/><text fill="#FFFFFF" font-family="sans-serif" font-size="13" font-weight="bold" lengthAdjust="spacingAndGlyphs" textLength="122" x="496" y="1712.0996">Login (inside SPA)</text><line style="stroke: #56666F; stroke-width: 1.0;" x1="97.5" x2="139.5" y1="1765.1523" y2="1765.1523"/><line style="stroke: #56666F; stroke-width: 1.0;" x1="139.5" x2="139.5" y1="1765.1523" y2="1778.1523"/><line style="stroke: #56666F; stroke-width: 1.0;" x1="98.5" x2="139.5" y1="1778.1523" y2="1778.1523"/><polygon fill="#56666F" points="108.5,1774.1523,98.5,1778.1523,108.5,1782.1523,104.5,1778.1523" style="stroke: #56666F; stroke-width: 1.0;"/><text fill="#000000" font-family="sans-serif" font-size="13" font-weight="bold" lengthAdjust="spacingAndGlyphs" textLength="18" x="109.5" y="1755.4102">24</text><text fill="#000000" font-family="sans-serif" font-size="13" lengthAdjust="spacingAndGlyphs" textLength="113" x="141.5" y="1755.4102">Render login form</text><polygon fill="#56666F" points="639.5,1813.4629,649.5,1817.4629,639.5,1821.4629,643.5,1817.4629" style="stroke: #56666F; stroke-width: 1.0;"/><line style="stroke: #56666F; stroke-width: 1.0;" x1="97.5" x2="645.5" y1="1817.4629" y2="1817.4629"/><text fill="#000000" font-family="sans-serif" font-size="13" font-weight="bold" lengthAdjust="spacingAndGlyphs" textLength="18" x="109.5" y="1807.7207">25</text><text fill="#000000" font-family="sans-serif" font-size="13" lengthAdjust="spacingAndGlyphs" textLength="135" x="141.5" y="1807.7207">AJAX POST /api/login</text><polygon fill="#56666F" points="917.5,1868.084,927.5,1872.084,917.5,1876.084,921.5,1872.084" style="stroke: #56666F; stroke-width: 1.0;"/><line style="stroke: #56666F; stroke-width: 1.0;" x1="651.5" x2="923.5" y1="1872.084" y2="1872.084"/><text fill="#000000" font-family="sans-serif" font-size="13" font-weight="bold" lengthAdjust="spacingAndGlyphs" textLength="18" x="663.5" y="1854.6865">26</text><text fill="#000000" font-family="sans-serif" font-size="13" lengthAdjust="spacingAndGlyphs" textLength="130" x="695.5" y="1847.0313">POST /oauth2/token</text><text fill="#000000" font-family="sans-serif" font-size="13" lengthAdjust="spacingAndGlyphs" textLength="145" x="695.5" y="1862.3418">(grant_type=password)</text><polygon fill="#56666F" points="662.5,1907.3945,652.5,1911.3945,662.5,1915.3945,658.5,1911.3945" style="stroke: #56666F; stroke-width: 1.0;"/><line style="stroke: #56666F; stroke-width: 1.0;" x1="656.5" x2="928.5" y1="1911.3945" y2="1911.3945"/><text fill="#000000" font-family="sans-serif" font-size="13" font-weight="bold" lengthAdjust="spacingAndGlyphs" textLength="18" x="673.5" y="1901.6523">27</text><text fill="#000000" font-family="sans-serif" font-size="13" lengthAdjust="spacingAndGlyphs" textLength="152" x="705.5" y="1901.6523">(Refresh Token and JWT)</text><polygon fill="#56666F" points="108.5,1946.7051,98.5,1950.7051,108.5,1954.7051,104.5,1950.7051" style="stroke: #56666F; stroke-width: 1.0;"/><line style="stroke: #56666F; stroke-width: 1.0;" x1="102.5" x2="650.5" y1="1950.7051" y2="1950.7051"/><text fill="#000000" font-family="sans-serif" font-size="13" font-weight="bold" lengthAdjust="spacingAndGlyphs" textLength="18" x="119.5" y="1940.9629">28</text><text fill="#000000" font-family="sans-serif" font-size="13" lengthAdjust="spacingAndGlyphs" textLength="425" x="151.5" y="1940.9629">[Refresh token and JWT HttpOnly w/ domain: Forums.Example.com]</text><rect fill="#3F2C61" height="3" style="stroke: #3F2C61; stroke-width: 1.0;" width="1114" x="3" y="1984.3604"/><line style="stroke: #FFFFFF; stroke-width: 0.5;" x1="3" x2="1117" y1="1984.3604" y2="1984.3604"/><line style="stroke: #FFFFFF; stroke-width: 0.5;" x1="3" x2="1117" y1="1987.3604" y2="1987.3604"/><rect fill="#3F2C61" height="33.3105" style="stroke: #FFFFFF; stroke-width: 1.0;" width="104" x="508" y="1968.7051"/><text fill="#FFFFFF" font-family="sans-serif" font-size="13" font-weight="bold" lengthAdjust="spacingAndGlyphs" textLength="76" x="519" y="1990.2734">Forum load</text><polygon fill="#56666F" points="639.5,2054.6367,649.5,2058.6367,639.5,2062.6367,643.5,2058.6367" style="stroke: #56666F; stroke-width: 1.0;"/><line style="stroke: #56666F; stroke-width: 1.0;" x1="97.5" x2="645.5" y1="2058.6367" y2="2058.6367"/><text fill="#000000" font-family="sans-serif" font-size="13" font-weight="bold" lengthAdjust="spacingAndGlyphs" textLength="18" x="109.5" y="2041.2393">29</text><text fill="#000000" font-family="sans-serif" font-size="13" lengthAdjust="spacingAndGlyphs" textLength="165" x="141.5" y="2033.584">AJAX GET /api/load-posts</text><text fill="#000000" font-family="sans-serif" font-size="13" lengthAdjust="spacingAndGlyphs" textLength="425" x="141.5" y="2048.8945">[Refresh token and JWT HttpOnly w/ domain: Forums.Example.com]</text><polygon fill="#56666F" points="108.5,2093.9473,98.5,2097.9473,108.5,2101.9473,104.5,2097.9473" style="stroke: #56666F; stroke-width: 1.0;"/><line style="stroke: #56666F; stroke-width: 1.0;" x1="102.5" x2="650.5" y1="2097.9473" y2="2097.9473"/><text fill="#000000" font-family="sans-serif" font-size="13" font-weight="bold" lengthAdjust="spacingAndGlyphs" textLength="18" x="119.5" y="2088.2051">30</text><text fill="#000000" font-family="sans-serif" font-size="13" lengthAdjust="spacingAndGlyphs" textLength="87" x="151.5" y="2088.2051">(Forum posts)</text><path d="M62,2164.9473 L62,2191.9473 A4,4 0 0 0 66,2195.9473 L1107,2195.9473 A4,4 0 0 0 1111,2191.9473 L1111,2170.9473 L1101,2160.9473 L66,2160.9473 A4,4 0 0 0 62,2164.9473 " fill="#8B80A1" style="stroke: #FFFFFF; stroke-width: 1.0;"/><path d="M1101,2160.9473 L1101,2168.9473 A2,2 0 0 0 1103,2170.9473 L1111,2170.9473 L1101,2160.9473 " fill="#8B80A1" style="stroke: #FFFFFF; stroke-width: 1.0;"/><text fill="#FFFFFF" font-family="sans-serif" font-size="13" font-style="italic" lengthAdjust="spacingAndGlyphs" textLength="91" x="536.5" y="2183.5156">Attack vectors</text><rect fill="#3F2C61" height="3" style="stroke: #3F2C61; stroke-width: 1.0;" width="1114" x="3" y="2276.9131"/><line style="stroke: #FFFFFF; stroke-width: 0.5;" x1="3" x2="1117" y1="2276.9131" y2="2276.9131"/><line style="stroke: #FFFFFF; stroke-width: 0.5;" x1="3" x2="1117" y1="2279.9131" y2="2279.9131"/><rect fill="#3F2C61" height="33.3105" style="stroke: #FFFFFF; stroke-width: 1.0;" width="164" x="478" y="2261.2578"/><text fill="#FFFFFF" font-family="sans-serif" font-size="13" font-weight="bold" lengthAdjust="spacingAndGlyphs" textLength="136" x="489" y="2282.8262">Stolen refresh token</text><polygon fill="#56666F" points="584.5,2347.1895,574.5,2351.1895,584.5,2355.1895,580.5,2351.1895" style="stroke: #56666F; stroke-width: 1.0;"/><line style="stroke: #56666F; stroke-width: 1.0;" x1="578.5" x2="1075.5" y1="2351.1895" y2="2351.1895"/><text fill="#000000" font-family="sans-serif" font-size="13" font-weight="bold" lengthAdjust="spacingAndGlyphs" textLength="18" x="595.5" y="2333.792">31</text><text fill="#000000" font-family="sans-serif" font-size="13" lengthAdjust="spacingAndGlyphs" textLength="187" x="627.5" y="2326.1367">GET /api/load-shopping-cart</text><text fill="#000000" font-family="sans-serif" font-size="13" lengthAdjust="spacingAndGlyphs" textLength="437" x="627.5" y="2341.4473">[Refresh token and bad JWT HttpOnly w/ domain: Store.Example.com]</text><polygon fill="#56666F" points="917.5,2401.8105,927.5,2405.8105,917.5,2409.8105,921.5,2405.8105" style="stroke: #56666F; stroke-width: 1.0;"/><line style="stroke: #56666F; stroke-width: 1.0;" x1="573.5" x2="923.5" y1="2405.8105" y2="2405.8105"/><text fill="#000000" font-family="sans-serif" font-size="13" font-weight="bold" lengthAdjust="spacingAndGlyphs" textLength="18" x="585.5" y="2388.4131">32</text><text fill="#000000" font-family="sans-serif" font-size="13" lengthAdjust="spacingAndGlyphs" textLength="290" x="617.5" y="2380.7578">POST /oauth2/token or POST /api/jwt/refresh</text><text fill="#000000" font-family="sans-serif" font-size="13" lengthAdjust="spacingAndGlyphs" textLength="244" x="617.5" y="2396.0684">(grant_type=refresh and refresh token)</text><polygon fill="#56666F" points="584.5,2441.1211,574.5,2445.1211,584.5,2449.1211,580.5,2445.1211" style="stroke: #56666F; stroke-width: 1.0;"/><line style="stroke: #56666F; stroke-width: 1.0;" x1="578.5" x2="928.5" y1="2445.1211" y2="2445.1211"/><text fill="#000000" font-family="sans-serif" font-size="13" font-weight="bold" lengthAdjust="spacingAndGlyphs" textLength="18" x="595.5" y="2435.3789">33</text><text fill="#000000" font-family="sans-serif" font-size="13" lengthAdjust="spacingAndGlyphs" textLength="31" x="627.5" y="2435.3789">(JWT)</text><polygon fill="#56666F" points="1064.5,2495.7422,1074.5,2499.7422,1064.5,2503.7422,1068.5,2499.7422" style="stroke: #56666F; stroke-width: 1.0;"/><line style="stroke: #56666F; stroke-width: 1.0;" x1="573.5" x2="1070.5" y1="2499.7422" y2="2499.7422"/><text fill="#000000" font-family="sans-serif" font-size="13" font-weight="bold" lengthAdjust="spacingAndGlyphs" textLength="18" x="585.5" y="2482.3447">34</text><text fill="#000000" font-family="sans-serif" font-size="13" lengthAdjust="spacingAndGlyphs" textLength="154" x="617.5" y="2474.6895">(Shopping cart contents)</text><text fill="#000000" font-family="sans-serif" font-size="13" lengthAdjust="spacingAndGlyphs" textLength="323" x="617.5" y="2490">[New JWT HttpOnly w/ domain: Store.Example.com]</text><rect fill="#3F2C61" height="3" style="stroke: #3F2C61; stroke-width: 1.0;" width="1114" x="3" y="2533.3975"/><line style="stroke: #FFFFFF; stroke-width: 0.5;" x1="3" x2="1117" y1="2533.3975" y2="2533.3975"/><line style="stroke: #FFFFFF; stroke-width: 0.5;" x1="3" x2="1117" y1="2536.3975" y2="2536.3975"/><rect fill="#3F2C61" height="33.3105" style="stroke: #FFFFFF; stroke-width: 1.0;" width="99" x="510.5" y="2517.7422"/><text fill="#FFFFFF" font-family="sans-serif" font-size="13" font-weight="bold" lengthAdjust="spacingAndGlyphs" textLength="71" x="521.5" y="2539.3105">Stolen JWT</text><polygon fill="#56666F" points="584.5,2603.6738,574.5,2607.6738,584.5,2611.6738,580.5,2607.6738" style="stroke: #56666F; stroke-width: 1.0;"/><line style="stroke: #56666F; stroke-width: 1.0;" x1="578.5" x2="1075.5" y1="2607.6738" y2="2607.6738"/><text fill="#000000" font-family="sans-serif" font-size="13" font-weight="bold" lengthAdjust="spacingAndGlyphs" textLength="18" x="595.5" y="2590.2764">35</text><text fill="#000000" font-family="sans-serif" font-size="13" lengthAdjust="spacingAndGlyphs" textLength="187" x="627.5" y="2582.6211">GET /api/load-shopping-cart</text><text fill="#000000" font-family="sans-serif" font-size="13" lengthAdjust="spacingAndGlyphs" textLength="292" x="627.5" y="2597.9316">[JWT HttpOnly w/ domain: Store.Example.com]</text><polygon fill="#56666F" points="1064.5,2642.9844,1074.5,2646.9844,1064.5,2650.9844,1068.5,2646.9844" style="stroke: #56666F; stroke-width: 1.0;"/><line style="stroke: #56666F; stroke-width: 1.0;" x1="573.5" x2="1070.5" y1="2646.9844" y2="2646.9844"/><text fill="#000000" font-family="sans-serif" font-size="13" font-weight="bold" lengthAdjust="spacingAndGlyphs" textLength="18" x="585.5" y="2637.2422">36</text><text fill="#000000" font-family="sans-serif" font-size="13" lengthAdjust="spacingAndGlyphs" textLength="154" x="617.5" y="2637.2422">(Shopping cart contents)</text></g></svg>