<?xml version="1.0" encoding="UTF-8" standalone="no"?><svg xmlns="http://www.w3.org/2000/svg" xmlns:xlink="http://www.w3.org/1999/xlink" contentScriptType="application/ecmascript" contentStyleType="text/css" height="3248px" preserveAspectRatio="none" style="width:1124px;height:3248px;" version="1.1" viewBox="0 0 1124 3248" width="1124px" zoomAndPan="magnify"><defs/><g><rect fill="#D8D8D8" height="40.4883" rx="4" ry="4" style="stroke: #979797; stroke-width: 1.0;" width="76" x="684.5" y="2018.5273"/><text fill="#000000" font-family="sans-serif" font-size="14" lengthAdjust="spacingAndGlyphs" textLength="52" x="696.5" y="2044.0625">Forums</text><line style="stroke: #CDCDCD; stroke-width: 1.0; stroke-dasharray: 5.0,5.0;" x1="75" x2="75" y1="44.4883" y2="3198.4004"/><line style="stroke: #CDCDCD; stroke-width: 1.0; stroke-dasharray: 5.0,5.0;" x1="470.5" x2="470.5" y1="44.4883" y2="3198.4004"/><line style="stroke: #CDCDCD; stroke-width: 1.0; stroke-dasharray: 5.0,5.0;" x1="722.5" x2="722.5" y1="2052.7051" y2="3198.4004"/><line style="stroke: #CDCDCD; stroke-width: 1.0; stroke-dasharray: 5.0,5.0;" x1="974" x2="974" y1="44.4883" y2="3198.4004"/><line style="stroke: #CDCDCD; stroke-width: 1.0; stroke-dasharray: 5.0,5.0;" x1="1071" x2="1071" y1="44.4883" y2="3198.4004"/><rect fill="#D8D8D8" height="40.4883" rx="4" ry="4" style="stroke: #979797; stroke-width: 1.0;" width="79" x="36" y="3"/><text fill="#000000" font-family="sans-serif" font-size="14" lengthAdjust="spacingAndGlyphs" textLength="55" x="48" y="28.5352">Browser</text><rect fill="#D8D8D8" height="40.4883" rx="4" ry="4" style="stroke: #979797; stroke-width: 1.0;" width="79" x="36" y="3197.4004"/><text fill="#000000" font-family="sans-serif" font-size="14" lengthAdjust="spacingAndGlyphs" textLength="55" x="48" y="3222.9355">Browser</text><rect fill="#D8D8D8" height="40.4883" rx="4" ry="4" style="stroke: #979797; stroke-width: 1.0;" width="60" x="440.5" y="3"/><text fill="#000000" font-family="sans-serif" font-size="14" lengthAdjust="spacingAndGlyphs" textLength="36" x="452.5" y="28.5352">Store</text><rect fill="#D8D8D8" height="40.4883" rx="4" ry="4" style="stroke: #979797; stroke-width: 1.0;" width="60" x="440.5" y="3197.4004"/><text fill="#000000" font-family="sans-serif" font-size="14" lengthAdjust="spacingAndGlyphs" textLength="36" x="452.5" y="3222.9355">Store</text><rect fill="#D8D8D8" height="40.4883" rx="4" ry="4" style="stroke: #979797; stroke-width: 1.0;" width="76" x="684.5" y="3197.4004"/><text fill="#000000" font-family="sans-serif" font-size="14" lengthAdjust="spacingAndGlyphs" textLength="52" x="696.5" y="3222.9355">Forums</text><rect fill="#D8D8D8" height="40.4883" rx="4" ry="4" style="stroke: #979797; stroke-width: 1.0;" width="103" x="923" y="3"/><text fill="#000000" font-family="sans-serif" font-size="14" lengthAdjust="spacingAndGlyphs" textLength="79" x="935" y="28.5352">FusionAuth</text><rect fill="#D8D8D8" height="40.4883" rx="4" ry="4" style="stroke: #979797; stroke-width: 1.0;" width="103" x="923" y="3197.4004"/><text fill="#000000" font-family="sans-serif" font-size="14" lengthAdjust="spacingAndGlyphs" textLength="79" x="935" y="3222.9355">FusionAuth</text><rect fill="#D8D8D8" height="40.4883" rx="4" ry="4" style="stroke: #979797; stroke-width: 1.0;" width="71" x="1036" y="3"/><text fill="#000000" font-family="sans-serif" font-size="14" lengthAdjust="spacingAndGlyphs" textLength="47" x="1048" y="28.5352">Hacker</text><rect fill="#D8D8D8" height="40.4883" rx="4" ry="4" style="stroke: #979797; stroke-width: 1.0;" width="71" x="1036" y="3197.4004"/><text fill="#000000" font-family="sans-serif" font-size="14" lengthAdjust="spacingAndGlyphs" textLength="47" x="1048" y="3222.9355">Hacker</text><rect fill="#3F2C61" height="3" style="stroke: #3F2C61; stroke-width: 1.0;" width="1109" x="3" y="80.1436"/><line style="stroke: #FFFFFF; stroke-width: 0.5;" x1="3" x2="1112" y1="80.1436" y2="80.1436"/><line style="stroke: #FFFFFF; stroke-width: 0.5;" x1="3" x2="1112" y1="83.1436" y2="83.1436"/><rect fill="#3F2C61" height="33.3105" style="stroke: #FFFFFF; stroke-width: 1.0;" width="86" x="514.5" y="64.4883"/><text fill="#FFFFFF" font-family="sans-serif" font-size="13" font-weight="bold" lengthAdjust="spacingAndGlyphs" textLength="58" x="525.5" y="86.0566">Initialize</text><polygon fill="#56666F" points="458.5,135.1094,468.5,139.1094,458.5,143.1094,462.5,139.1094" style="stroke: #56666F; stroke-width: 1.0;"/><line style="stroke: #56666F; stroke-width: 1.0;" x1="75.5" x2="464.5" y1="139.1094" y2="139.1094"/><text fill="#000000" font-family="sans-serif" font-size="13" font-weight="bold" lengthAdjust="spacingAndGlyphs" textLength="9" x="87.5" y="129.3672">1</text><text fill="#000000" font-family="sans-serif" font-size="13" lengthAdjust="spacingAndGlyphs" textLength="35" x="110.5" y="129.3672">GET /</text><polygon fill="#56666F" points="86.5,174.4199,76.5,178.4199,86.5,182.4199,82.5,178.4199" style="stroke: #56666F; stroke-width: 1.0;"/><line style="stroke: #56666F; stroke-width: 1.0;" x1="80.5" x2="469.5" y1="178.4199" y2="178.4199"/><text fill="#000000" font-family="sans-serif" font-size="13" font-weight="bold" lengthAdjust="spacingAndGlyphs" textLength="9" x="97.5" y="168.6777">2</text><text fill="#000000" font-family="sans-serif" font-size="13" lengthAdjust="spacingAndGlyphs" textLength="180" x="120.5" y="168.6777">(SPA HTML, CSS &amp; JavaScript)</text><polygon fill="#56666F" points="458.5,229.041,468.5,233.041,458.5,237.041,462.5,233.041" style="stroke: #56666F; stroke-width: 1.0;"/><line style="stroke: #56666F; stroke-width: 1.0;" x1="75.5" x2="464.5" y1="233.041" y2="233.041"/><text fill="#000000" font-family="sans-serif" font-size="13" font-weight="bold" lengthAdjust="spacingAndGlyphs" textLength="9" x="87.5" y="215.6436">3</text><text fill="#000000" font-family="sans-serif" font-size="13" lengthAdjust="spacingAndGlyphs" textLength="122" x="110.5" y="207.9883">AJAX GET /api/user</text><text fill="#000000" font-family="sans-serif" font-size="13" lengthAdjust="spacingAndGlyphs" textLength="79" x="110.5" y="223.2988">[No cookies]</text><polygon fill="#EB8C52" points="86.5,268.3516,76.5,272.3516,86.5,276.3516,82.5,272.3516" style="stroke: #EB8C52; stroke-width: 1.0;"/><line style="stroke: #EB8C52; stroke-width: 1.0;" x1="80.5" x2="469.5" y1="272.3516" y2="272.3516"/><text fill="#000000" font-family="sans-serif" font-size="13" font-weight="bold" lengthAdjust="spacingAndGlyphs" textLength="9" x="97.5" y="262.6094">4</text><text fill="#EB8C52" font-family="sans-serif" font-size="13" lengthAdjust="spacingAndGlyphs" textLength="77" x="120.5" y="262.6094">404 Missing</text><rect fill="#3F2C61" height="3" style="stroke: #3F2C61; stroke-width: 1.0;" width="1109" x="3" y="306.0068"/><line style="stroke: #FFFFFF; stroke-width: 0.5;" x1="3" x2="1112" y1="306.0068" y2="306.0068"/><line style="stroke: #FFFFFF; stroke-width: 0.5;" x1="3" x2="1112" y1="309.0068" y2="309.0068"/><rect fill="#3F2C61" height="33.3105" style="stroke: #FFFFFF; stroke-width: 1.0;" width="309" x="403" y="290.3516"/><text fill="#FFFFFF" font-family="sans-serif" font-size="13" font-weight="bold" lengthAdjust="spacingAndGlyphs" textLength="281" x="414" y="311.9199">Login (browser navigates away from SPA)</text><polygon fill="#56666F" points="962.5,360.9727,972.5,364.9727,962.5,368.9727,966.5,364.9727" style="stroke: #56666F; stroke-width: 1.0;"/><line style="stroke: #56666F; stroke-width: 1.0;" x1="75.5" x2="968.5" y1="364.9727" y2="364.9727"/><text fill="#000000" font-family="sans-serif" font-size="13" font-weight="bold" lengthAdjust="spacingAndGlyphs" textLength="9" x="87.5" y="355.2305">5</text><text fill="#000000" font-family="sans-serif" font-size="13" lengthAdjust="spacingAndGlyphs" textLength="294" x="110.5" y="355.2305">GET /oauth2/authorize {response_type=token}</text><polygon fill="#56666F" points="86.5,400.2832,76.5,404.2832,86.5,408.2832,82.5,404.2832" style="stroke: #56666F; stroke-width: 1.0;"/><line style="stroke: #56666F; stroke-width: 1.0;" x1="80.5" x2="973.5" y1="404.2832" y2="404.2832"/><text fill="#000000" font-family="sans-serif" font-size="13" font-weight="bold" lengthAdjust="spacingAndGlyphs" textLength="9" x="97.5" y="394.541">6</text><text fill="#000000" font-family="sans-serif" font-size="13" lengthAdjust="spacingAndGlyphs" textLength="117" x="120.5" y="394.541">(Login form HTML)</text><polygon fill="#56666F" points="962.5,439.5938,972.5,443.5938,962.5,447.5938,966.5,443.5938" style="stroke: #56666F; stroke-width: 1.0;"/><line style="stroke: #56666F; stroke-width: 1.0;" x1="75.5" x2="968.5" y1="443.5938" y2="443.5938"/><text fill="#000000" font-family="sans-serif" font-size="13" font-weight="bold" lengthAdjust="spacingAndGlyphs" textLength="9" x="87.5" y="433.8516">7</text><text fill="#000000" font-family="sans-serif" font-size="13" lengthAdjust="spacingAndGlyphs" textLength="302" x="110.5" y="433.8516">POST /oauth2/authorize (response_type=token)</text><polygon fill="#56666F" points="86.5,494.2148,76.5,498.2148,86.5,502.2148,82.5,498.2148" style="stroke: #56666F; stroke-width: 1.0;"/><line style="stroke: #56666F; stroke-width: 1.0;" x1="80.5" x2="973.5" y1="498.2148" y2="498.2148"/><text fill="#000000" font-family="sans-serif" font-size="13" font-weight="bold" lengthAdjust="spacingAndGlyphs" textLength="9" x="97.5" y="480.8174">8</text><text fill="#000000" font-family="sans-serif" font-size="13" lengthAdjust="spacingAndGlyphs" textLength="446" x="120.5" y="473.1621">302 Location: {redirect_uri w/ JWT in redirect URI and no refresh token}</text><text fill="#000000" font-family="sans-serif" font-size="13" lengthAdjust="spacingAndGlyphs" textLength="329" x="120.5" y="488.4727">[SessionId HttpOnly w/ domain: login.fusionauth.io]</text><polygon fill="#56666F" points="458.5,533.5254,468.5,537.5254,458.5,541.5254,462.5,537.5254" style="stroke: #56666F; stroke-width: 1.0;"/><line style="stroke: #56666F; stroke-width: 1.0;" x1="75.5" x2="464.5" y1="537.5254" y2="537.5254"/><text fill="#000000" font-family="sans-serif" font-size="13" font-weight="bold" lengthAdjust="spacingAndGlyphs" textLength="9" x="87.5" y="527.7832">9</text><text fill="#000000" font-family="sans-serif" font-size="13" lengthAdjust="spacingAndGlyphs" textLength="205" x="110.5" y="527.7832">GET {redirect_uri w/o JWT in URI}</text><polygon fill="#56666F" points="86.5,572.8359,76.5,576.8359,86.5,580.8359,82.5,576.8359" style="stroke: #56666F; stroke-width: 1.0;"/><line style="stroke: #56666F; stroke-width: 1.0;" x1="80.5" x2="469.5" y1="576.8359" y2="576.8359"/><text fill="#000000" font-family="sans-serif" font-size="13" font-weight="bold" lengthAdjust="spacingAndGlyphs" textLength="18" x="97.5" y="567.0938">10</text><text fill="#000000" font-family="sans-serif" font-size="13" lengthAdjust="spacingAndGlyphs" textLength="180" x="129.5" y="567.0938">(SPA HTML, CSS &amp; JavaScript)</text><rect fill="#3F2C61" height="3" style="stroke: #3F2C61; stroke-width: 1.0;" width="1109" x="3" y="610.4912"/><line style="stroke: #FFFFFF; stroke-width: 0.5;" x1="3" x2="1112" y1="610.4912" y2="610.4912"/><line style="stroke: #FFFFFF; stroke-width: 0.5;" x1="3" x2="1112" y1="613.4912" y2="613.4912"/><rect fill="#3F2C61" height="33.3105" style="stroke: #FFFFFF; stroke-width: 1.0;" width="113" x="501" y="594.8359"/><text fill="#FFFFFF" font-family="sans-serif" font-size="13" font-weight="bold" lengthAdjust="spacingAndGlyphs" textLength="85" x="512" y="616.4043">Start session</text><polygon fill="#56666F" points="458.5,680.7676,468.5,684.7676,458.5,688.7676,462.5,684.7676" style="stroke: #56666F; stroke-width: 1.0;"/><line style="stroke: #56666F; stroke-width: 1.0;" x1="75.5" x2="464.5" y1="684.7676" y2="684.7676"/><text fill="#000000" font-family="sans-serif" font-size="13" font-weight="bold" lengthAdjust="spacingAndGlyphs" textLength="18" x="87.5" y="667.3701">11</text><text fill="#000000" font-family="sans-serif" font-size="13" lengthAdjust="spacingAndGlyphs" textLength="188" x="119.5" y="659.7148">AJAX POST /api/start-session</text><text fill="#000000" font-family="sans-serif" font-size="13" lengthAdjust="spacingAndGlyphs" textLength="141" x="119.5" y="675.0254">(JWT from redirect_uri)</text><line style="stroke: #56666F; stroke-width: 1.0;" x1="470.5" x2="512.5" y1="724.0781" y2="724.0781"/><line style="stroke: #56666F; stroke-width: 1.0;" x1="512.5" x2="512.5" y1="724.0781" y2="737.0781"/><line style="stroke: #56666F; stroke-width: 1.0;" x1="471.5" x2="512.5" y1="737.0781" y2="737.0781"/><polygon fill="#56666F" points="481.5,733.0781,471.5,737.0781,481.5,741.0781,477.5,737.0781" style="stroke: #56666F; stroke-width: 1.0;"/><text fill="#000000" font-family="sans-serif" font-size="13" font-weight="bold" lengthAdjust="spacingAndGlyphs" textLength="18" x="482.5" y="714.3359">12</text><text fill="#000000" font-family="sans-serif" font-size="13" lengthAdjust="spacingAndGlyphs" textLength="196" x="514.5" y="714.3359">Optionally store JWT in session</text><polygon fill="#56666F" points="86.5,772.3887,76.5,776.3887,86.5,780.3887,82.5,776.3887" style="stroke: #56666F; stroke-width: 1.0;"/><line style="stroke: #56666F; stroke-width: 1.0;" x1="80.5" x2="469.5" y1="776.3887" y2="776.3887"/><text fill="#000000" font-family="sans-serif" font-size="13" font-weight="bold" lengthAdjust="spacingAndGlyphs" textLength="18" x="97.5" y="766.6465">13</text><text fill="#000000" font-family="sans-serif" font-size="13" lengthAdjust="spacingAndGlyphs" textLength="329" x="129.5" y="766.6465">[SessionId HttpOnly w/ domain: Store.Example.com]</text><rect fill="#3F2C61" height="3" style="stroke: #3F2C61; stroke-width: 1.0;" width="1109" x="3" y="810.0439"/><line style="stroke: #FFFFFF; stroke-width: 0.5;" x1="3" x2="1112" y1="810.0439" y2="810.0439"/><line style="stroke: #FFFFFF; stroke-width: 0.5;" x1="3" x2="1112" y1="813.0439" y2="813.0439"/><rect fill="#3F2C61" height="33.3105" style="stroke: #FFFFFF; stroke-width: 1.0;" width="155" x="480" y="794.3887"/><text fill="#FFFFFF" font-family="sans-serif" font-size="13" font-weight="bold" lengthAdjust="spacingAndGlyphs" textLength="127" x="491" y="815.957">Shopping cart load</text><polygon fill="#56666F" points="458.5,880.3203,468.5,884.3203,458.5,888.3203,462.5,884.3203" style="stroke: #56666F; stroke-width: 1.0;"/><line style="stroke: #56666F; stroke-width: 1.0;" x1="75.5" x2="464.5" y1="884.3203" y2="884.3203"/><text fill="#000000" font-family="sans-serif" font-size="13" font-weight="bold" lengthAdjust="spacingAndGlyphs" textLength="18" x="87.5" y="866.9229">14</text><text fill="#000000" font-family="sans-serif" font-size="13" lengthAdjust="spacingAndGlyphs" textLength="221" x="119.5" y="859.2676">AJAX GET /api/load-shopping-cart</text><text fill="#000000" font-family="sans-serif" font-size="13" lengthAdjust="spacingAndGlyphs" textLength="329" x="119.5" y="874.5781">[SessionId HttpOnly w/ domain: Store.Example.com]</text><line style="stroke: #56666F; stroke-width: 1.0;" x1="470.5" x2="512.5" y1="923.6309" y2="923.6309"/><line style="stroke: #56666F; stroke-width: 1.0;" x1="512.5" x2="512.5" y1="923.6309" y2="936.6309"/><line style="stroke: #56666F; stroke-width: 1.0;" x1="471.5" x2="512.5" y1="936.6309" y2="936.6309"/><polygon fill="#56666F" points="481.5,932.6309,471.5,936.6309,481.5,940.6309,477.5,936.6309" style="stroke: #56666F; stroke-width: 1.0;"/><text fill="#000000" font-family="sans-serif" font-size="13" font-weight="bold" lengthAdjust="spacingAndGlyphs" textLength="18" x="482.5" y="913.8887">15</text><text fill="#000000" font-family="sans-serif" font-size="13" lengthAdjust="spacingAndGlyphs" textLength="110" x="514.5" y="913.8887">Session extended</text><polygon fill="#56666F" points="86.5,971.9414,76.5,975.9414,86.5,979.9414,82.5,975.9414" style="stroke: #56666F; stroke-width: 1.0;"/><line style="stroke: #56666F; stroke-width: 1.0;" x1="80.5" x2="469.5" y1="975.9414" y2="975.9414"/><text fill="#000000" font-family="sans-serif" font-size="13" font-weight="bold" lengthAdjust="spacingAndGlyphs" textLength="18" x="97.5" y="966.1992">16</text><text fill="#000000" font-family="sans-serif" font-size="13" lengthAdjust="spacingAndGlyphs" textLength="154" x="129.5" y="966.1992">(Shopping cart contents)</text><path d="M8,992.9414 L8,1019.9414 A4,4 0 0 0 12,1023.9414 L139,1023.9414 A4,4 0 0 0 143,1019.9414 L143,998.9414 L133,988.9414 L12,988.9414 A4,4 0 0 0 8,992.9414 " fill="#EB8C52" style="stroke: #FFFFFF; stroke-width: 1.0;"/><path d="M133,988.9414 L133,996.9414 A2,2 0 0 0 135,998.9414 L143,998.9414 L133,988.9414 " fill="#EB8C52" style="stroke: #FFFFFF; stroke-width: 1.0;"/><text fill="#FFFFFF" font-family="sans-serif" font-size="13" font-style="italic" font-weight="bold" lengthAdjust="spacingAndGlyphs" textLength="104" x="19" y="1011.5098">Session expires</text><rect fill="#3F2C61" height="3" style="stroke: #3F2C61; stroke-width: 1.0;" width="1109" x="3" y="1054.9072"/><line style="stroke: #FFFFFF; stroke-width: 0.5;" x1="3" x2="1112" y1="1054.9072" y2="1054.9072"/><line style="stroke: #FFFFFF; stroke-width: 0.5;" x1="3" x2="1112" y1="1057.9072" y2="1057.9072"/><rect fill="#3F2C61" height="33.3105" style="stroke: #FFFFFF; stroke-width: 1.0;" width="155" x="480" y="1039.252"/><text fill="#FFFFFF" font-family="sans-serif" font-size="13" font-weight="bold" lengthAdjust="spacingAndGlyphs" textLength="127" x="491" y="1060.8203">Shopping cart load</text><polygon fill="#56666F" points="458.5,1125.1836,468.5,1129.1836,458.5,1133.1836,462.5,1129.1836" style="stroke: #56666F; stroke-width: 1.0;"/><line style="stroke: #56666F; stroke-width: 1.0;" x1="75.5" x2="464.5" y1="1129.1836" y2="1129.1836"/><text fill="#000000" font-family="sans-serif" font-size="13" font-weight="bold" lengthAdjust="spacingAndGlyphs" textLength="18" x="87.5" y="1111.7861">17</text><text fill="#000000" font-family="sans-serif" font-size="13" lengthAdjust="spacingAndGlyphs" textLength="221" x="119.5" y="1104.1309">AJAX GET /api/load-shopping-cart</text><text fill="#000000" font-family="sans-serif" font-size="13" lengthAdjust="spacingAndGlyphs" textLength="329" x="119.5" y="1119.4414">[SessionId HttpOnly w/ domain: Store.Example.com]</text><polygon fill="#56666F" points="86.5,1164.4941,76.5,1168.4941,86.5,1172.4941,82.5,1168.4941" style="stroke: #56666F; stroke-width: 1.0;"/><line style="stroke: #56666F; stroke-width: 1.0;" x1="80.5" x2="469.5" y1="1168.4941" y2="1168.4941"/><text fill="#000000" font-family="sans-serif" font-size="13" font-weight="bold" lengthAdjust="spacingAndGlyphs" textLength="18" x="97.5" y="1158.752">18</text><text fill="#EB8C52" font-family="sans-serif" font-size="13" lengthAdjust="spacingAndGlyphs" textLength="124" x="129.5" y="1158.752">401 Not Authorized</text><rect fill="#3F2C61" height="3" style="stroke: #3F2C61; stroke-width: 1.0;" width="1109" x="3" y="1202.1494"/><line style="stroke: #FFFFFF; stroke-width: 0.5;" x1="3" x2="1112" y1="1202.1494" y2="1202.1494"/><line style="stroke: #FFFFFF; stroke-width: 0.5;" x1="3" x2="1112" y1="1205.1494" y2="1205.1494"/><rect fill="#3F2C61" height="33.3105" style="stroke: #FFFFFF; stroke-width: 1.0;" width="303" x="406" y="1186.4941"/><text fill="#FFFFFF" font-family="sans-serif" font-size="13" font-weight="bold" lengthAdjust="spacingAndGlyphs" textLength="275" x="417" y="1208.0625">Automatic re-login (since session exists)</text><polygon fill="#56666F" points="962.5,1272.4258,972.5,1276.4258,962.5,1280.4258,966.5,1276.4258" style="stroke: #56666F; stroke-width: 1.0;"/><line style="stroke: #56666F; stroke-width: 1.0;" x1="75.5" x2="968.5" y1="1276.4258" y2="1276.4258"/><text fill="#000000" font-family="sans-serif" font-size="13" font-weight="bold" lengthAdjust="spacingAndGlyphs" textLength="18" x="87.5" y="1259.0283">19</text><text fill="#000000" font-family="sans-serif" font-size="13" lengthAdjust="spacingAndGlyphs" textLength="294" x="119.5" y="1251.373">GET /oauth2/authorize {response_type=token}</text><text fill="#000000" font-family="sans-serif" font-size="13" lengthAdjust="spacingAndGlyphs" textLength="329" x="119.5" y="1266.6836">[SessionId HttpOnly w/ domain: login.fusionauth.io]</text><polygon fill="#56666F" points="86.5,1327.0469,76.5,1331.0469,86.5,1335.0469,82.5,1331.0469" style="stroke: #56666F; stroke-width: 1.0;"/><line style="stroke: #56666F; stroke-width: 1.0;" x1="80.5" x2="973.5" y1="1331.0469" y2="1331.0469"/><text fill="#000000" font-family="sans-serif" font-size="13" font-weight="bold" lengthAdjust="spacingAndGlyphs" textLength="18" x="97.5" y="1313.6494">20</text><text fill="#000000" font-family="sans-serif" font-size="13" lengthAdjust="spacingAndGlyphs" textLength="446" x="129.5" y="1305.9941">302 Location: {redirect_uri w/ JWT in redirect URI and no refresh token}</text><text fill="#000000" font-family="sans-serif" font-size="13" lengthAdjust="spacingAndGlyphs" textLength="329" x="129.5" y="1321.3047">[SessionId HttpOnly w/ domain: login.fusionauth.io]</text><polygon fill="#56666F" points="458.5,1366.3574,468.5,1370.3574,458.5,1374.3574,462.5,1370.3574" style="stroke: #56666F; stroke-width: 1.0;"/><line style="stroke: #56666F; stroke-width: 1.0;" x1="75.5" x2="464.5" y1="1370.3574" y2="1370.3574"/><text fill="#000000" font-family="sans-serif" font-size="13" font-weight="bold" lengthAdjust="spacingAndGlyphs" textLength="18" x="87.5" y="1360.6152">21</text><text fill="#000000" font-family="sans-serif" font-size="13" lengthAdjust="spacingAndGlyphs" textLength="205" x="119.5" y="1360.6152">GET {redirect_uri w/o JWT in URI}</text><polygon fill="#56666F" points="86.5,1405.668,76.5,1409.668,86.5,1413.668,82.5,1409.668" style="stroke: #56666F; stroke-width: 1.0;"/><line style="stroke: #56666F; stroke-width: 1.0;" x1="80.5" x2="469.5" y1="1409.668" y2="1409.668"/><text fill="#000000" font-family="sans-serif" font-size="13" font-weight="bold" lengthAdjust="spacingAndGlyphs" textLength="18" x="97.5" y="1399.9258">22</text><text fill="#000000" font-family="sans-serif" font-size="13" lengthAdjust="spacingAndGlyphs" textLength="180" x="129.5" y="1399.9258">(SPA HTML, CSS &amp; JavaScript)</text><rect fill="#3F2C61" height="3" style="stroke: #3F2C61; stroke-width: 1.0;" width="1109" x="3" y="1443.3232"/><line style="stroke: #FFFFFF; stroke-width: 0.5;" x1="3" x2="1112" y1="1443.3232" y2="1443.3232"/><line style="stroke: #FFFFFF; stroke-width: 0.5;" x1="3" x2="1112" y1="1446.3232" y2="1446.3232"/><rect fill="#3F2C61" height="33.3105" style="stroke: #FFFFFF; stroke-width: 1.0;" width="113" x="501" y="1427.668"/><text fill="#FFFFFF" font-family="sans-serif" font-size="13" font-weight="bold" lengthAdjust="spacingAndGlyphs" textLength="85" x="512" y="1449.2363">Start session</text><polygon fill="#56666F" points="458.5,1513.5996,468.5,1517.5996,458.5,1521.5996,462.5,1517.5996" style="stroke: #56666F; stroke-width: 1.0;"/><line style="stroke: #56666F; stroke-width: 1.0;" x1="75.5" x2="464.5" y1="1517.5996" y2="1517.5996"/><text fill="#000000" font-family="sans-serif" font-size="13" font-weight="bold" lengthAdjust="spacingAndGlyphs" textLength="18" x="87.5" y="1500.2021">23</text><text fill="#000000" font-family="sans-serif" font-size="13" lengthAdjust="spacingAndGlyphs" textLength="188" x="119.5" y="1492.5469">AJAX POST /api/start-session</text><text fill="#000000" font-family="sans-serif" font-size="13" lengthAdjust="spacingAndGlyphs" textLength="141" x="119.5" y="1507.8574">(JWT from redirect_uri)</text><line style="stroke: #56666F; stroke-width: 1.0;" x1="470.5" x2="512.5" y1="1556.9102" y2="1556.9102"/><line style="stroke: #56666F; stroke-width: 1.0;" x1="512.5" x2="512.5" y1="1556.9102" y2="1569.9102"/><line style="stroke: #56666F; stroke-width: 1.0;" x1="471.5" x2="512.5" y1="1569.9102" y2="1569.9102"/><polygon fill="#56666F" points="481.5,1565.9102,471.5,1569.9102,481.5,1573.9102,477.5,1569.9102" style="stroke: #56666F; stroke-width: 1.0;"/><text fill="#000000" font-family="sans-serif" font-size="13" font-weight="bold" lengthAdjust="spacingAndGlyphs" textLength="18" x="482.5" y="1547.168">24</text><text fill="#000000" font-family="sans-serif" font-size="13" lengthAdjust="spacingAndGlyphs" textLength="196" x="514.5" y="1547.168">Optionally store JWT in session</text><polygon fill="#56666F" points="86.5,1605.2207,76.5,1609.2207,86.5,1613.2207,82.5,1609.2207" style="stroke: #56666F; stroke-width: 1.0;"/><line style="stroke: #56666F; stroke-width: 1.0;" x1="80.5" x2="469.5" y1="1609.2207" y2="1609.2207"/><text fill="#000000" font-family="sans-serif" font-size="13" font-weight="bold" lengthAdjust="spacingAndGlyphs" textLength="18" x="97.5" y="1599.4785">25</text><text fill="#000000" font-family="sans-serif" font-size="13" lengthAdjust="spacingAndGlyphs" textLength="329" x="129.5" y="1599.4785">[SessionId HttpOnly w/ domain: Store.Example.com]</text><rect fill="#3F2C61" height="3" style="stroke: #3F2C61; stroke-width: 1.0;" width="1109" x="3" y="1642.876"/><line style="stroke: #FFFFFF; stroke-width: 0.5;" x1="3" x2="1112" y1="1642.876" y2="1642.876"/><line style="stroke: #FFFFFF; stroke-width: 0.5;" x1="3" x2="1112" y1="1645.876" y2="1645.876"/><rect fill="#3F2C61" height="33.3105" style="stroke: #FFFFFF; stroke-width: 1.0;" width="155" x="480" y="1627.2207"/><text fill="#FFFFFF" font-family="sans-serif" font-size="13" font-weight="bold" lengthAdjust="spacingAndGlyphs" textLength="127" x="491" y="1648.7891">Shopping cart load</text><polygon fill="#56666F" points="458.5,1713.1523,468.5,1717.1523,458.5,1721.1523,462.5,1717.1523" style="stroke: #56666F; stroke-width: 1.0;"/><line style="stroke: #56666F; stroke-width: 1.0;" x1="75.5" x2="464.5" y1="1717.1523" y2="1717.1523"/><text fill="#000000" font-family="sans-serif" font-size="13" font-weight="bold" lengthAdjust="spacingAndGlyphs" textLength="18" x="87.5" y="1699.7549">26</text><text fill="#000000" font-family="sans-serif" font-size="13" lengthAdjust="spacingAndGlyphs" textLength="221" x="119.5" y="1692.0996">AJAX GET /api/load-shopping-cart</text><text fill="#000000" font-family="sans-serif" font-size="13" lengthAdjust="spacingAndGlyphs" textLength="329" x="119.5" y="1707.4102">[SessionId HttpOnly w/ domain: Store.Example.com]</text><line style="stroke: #56666F; stroke-width: 1.0;" x1="470.5" x2="512.5" y1="1756.4629" y2="1756.4629"/><line style="stroke: #56666F; stroke-width: 1.0;" x1="512.5" x2="512.5" y1="1756.4629" y2="1769.4629"/><line style="stroke: #56666F; stroke-width: 1.0;" x1="471.5" x2="512.5" y1="1769.4629" y2="1769.4629"/><polygon fill="#56666F" points="481.5,1765.4629,471.5,1769.4629,481.5,1773.4629,477.5,1769.4629" style="stroke: #56666F; stroke-width: 1.0;"/><text fill="#000000" font-family="sans-serif" font-size="13" font-weight="bold" lengthAdjust="spacingAndGlyphs" textLength="18" x="482.5" y="1746.7207">27</text><text fill="#000000" font-family="sans-serif" font-size="13" lengthAdjust="spacingAndGlyphs" textLength="110" x="514.5" y="1746.7207">Session extended</text><polygon fill="#56666F" points="86.5,1804.7734,76.5,1808.7734,86.5,1812.7734,82.5,1808.7734" style="stroke: #56666F; stroke-width: 1.0;"/><line style="stroke: #56666F; stroke-width: 1.0;" x1="80.5" x2="469.5" y1="1808.7734" y2="1808.7734"/><text fill="#000000" font-family="sans-serif" font-size="13" font-weight="bold" lengthAdjust="spacingAndGlyphs" textLength="18" x="97.5" y="1799.0313">28</text><text fill="#000000" font-family="sans-serif" font-size="13" lengthAdjust="spacingAndGlyphs" textLength="154" x="129.5" y="1799.0313">(Shopping cart contents)</text><path d="M40,1875.7734 L40,1902.7734 A4,4 0 0 0 44,1906.7734 L1102,1906.7734 A4,4 0 0 0 1106,1902.7734 L1106,1881.7734 L1096,1871.7734 L44,1871.7734 A4,4 0 0 0 40,1875.7734 " fill="#8B80A1" style="stroke: #FFFFFF; stroke-width: 1.0;"/><path d="M1096,1871.7734 L1096,1879.7734 A2,2 0 0 0 1098,1881.7734 L1106,1881.7734 L1096,1871.7734 " fill="#8B80A1" style="stroke: #FFFFFF; stroke-width: 1.0;"/><text fill="#FFFFFF" font-family="sans-serif" font-size="13" font-style="italic" lengthAdjust="spacingAndGlyphs" textLength="126" x="505.5" y="1894.3418">SSO login to forums</text><rect fill="#3F2C61" height="3" style="stroke: #3F2C61; stroke-width: 1.0;" width="1109" x="3" y="1987.7393"/><line style="stroke: #FFFFFF; stroke-width: 0.5;" x1="3" x2="1112" y1="1987.7393" y2="1987.7393"/><line style="stroke: #FFFFFF; stroke-width: 0.5;" x1="3" x2="1112" y1="1990.7393" y2="1990.7393"/><rect fill="#3F2C61" height="33.3105" style="stroke: #FFFFFF; stroke-width: 1.0;" width="86" x="514.5" y="1972.084"/><text fill="#FFFFFF" font-family="sans-serif" font-size="13" font-weight="bold" lengthAdjust="spacingAndGlyphs" textLength="58" x="525.5" y="1993.6523">Initialize</text><polygon fill="#56666F" points="672.5,2058.0156,682.5,2062.0156,672.5,2066.0156,676.5,2062.0156" style="stroke: #56666F; stroke-width: 1.0;"/><line style="stroke: #56666F; stroke-width: 1.0;" x1="75.5" x2="678.5" y1="2062.0156" y2="2062.0156"/><text fill="#000000" font-family="sans-serif" font-size="13" font-weight="bold" lengthAdjust="spacingAndGlyphs" textLength="18" x="87.5" y="2044.6182">29</text><text fill="#000000" font-family="sans-serif" font-size="13" lengthAdjust="spacingAndGlyphs" textLength="35" x="119.5" y="2036.9629">GET /</text><text fill="#000000" font-family="sans-serif" font-size="13" lengthAdjust="spacingAndGlyphs" textLength="79" x="119.5" y="2052.2734">[No cookies]</text><rect fill="#D8D8D8" height="40.4883" rx="4" ry="4" style="stroke: #979797; stroke-width: 1.0;" width="76" x="684.5" y="2018.5273"/><text fill="#000000" font-family="sans-serif" font-size="14" lengthAdjust="spacingAndGlyphs" textLength="52" x="696.5" y="2044.0625">Forums</text><polygon fill="#56666F" points="86.5,2097.3262,76.5,2101.3262,86.5,2105.3262,82.5,2101.3262" style="stroke: #56666F; stroke-width: 1.0;"/><line style="stroke: #56666F; stroke-width: 1.0;" x1="80.5" x2="721.5" y1="2101.3262" y2="2101.3262"/><text fill="#000000" font-family="sans-serif" font-size="13" font-weight="bold" lengthAdjust="spacingAndGlyphs" textLength="18" x="97.5" y="2091.584">30</text><text fill="#000000" font-family="sans-serif" font-size="13" lengthAdjust="spacingAndGlyphs" textLength="180" x="129.5" y="2091.584">(SPA HTML, CSS &amp; JavaScript)</text><polygon fill="#56666F" points="710.5,2151.9473,720.5,2155.9473,710.5,2159.9473,714.5,2155.9473" style="stroke: #56666F; stroke-width: 1.0;"/><line style="stroke: #56666F; stroke-width: 1.0;" x1="75.5" x2="716.5" y1="2155.9473" y2="2155.9473"/><text fill="#000000" font-family="sans-serif" font-size="13" font-weight="bold" lengthAdjust="spacingAndGlyphs" textLength="18" x="87.5" y="2138.5498">31</text><text fill="#000000" font-family="sans-serif" font-size="13" lengthAdjust="spacingAndGlyphs" textLength="88" x="119.5" y="2130.8945">GET /api/user</text><text fill="#000000" font-family="sans-serif" font-size="13" lengthAdjust="spacingAndGlyphs" textLength="79" x="119.5" y="2146.2051">[No cookies]</text><polygon fill="#EB8C52" points="86.5,2191.2578,76.5,2195.2578,86.5,2199.2578,82.5,2195.2578" style="stroke: #EB8C52; stroke-width: 1.0;"/><line style="stroke: #EB8C52; stroke-width: 1.0;" x1="80.5" x2="721.5" y1="2195.2578" y2="2195.2578"/><text fill="#000000" font-family="sans-serif" font-size="13" font-weight="bold" lengthAdjust="spacingAndGlyphs" textLength="18" x="97.5" y="2185.5156">32</text><text fill="#EB8C52" font-family="sans-serif" font-size="13" lengthAdjust="spacingAndGlyphs" textLength="77" x="129.5" y="2185.5156">404 Missing</text><rect fill="#3F2C61" height="3" style="stroke: #3F2C61; stroke-width: 1.0;" width="1109" x="3" y="2228.9131"/><line style="stroke: #FFFFFF; stroke-width: 0.5;" x1="3" x2="1112" y1="2228.9131" y2="2228.9131"/><line style="stroke: #FFFFFF; stroke-width: 0.5;" x1="3" x2="1112" y1="2231.9131" y2="2231.9131"/><rect fill="#3F2C61" height="33.3105" style="stroke: #FFFFFF; stroke-width: 1.0;" width="589" x="263" y="2213.2578"/><text fill="#FFFFFF" font-family="sans-serif" font-size="13" font-weight="bold" lengthAdjust="spacingAndGlyphs" textLength="561" x="274" y="2234.8262">Login (browser navigates away from SPA but auto-logs-in since the session exists)</text><polygon fill="#56666F" points="962.5,2299.1895,972.5,2303.1895,962.5,2307.1895,966.5,2303.1895" style="stroke: #56666F; stroke-width: 1.0;"/><line style="stroke: #56666F; stroke-width: 1.0;" x1="75.5" x2="968.5" y1="2303.1895" y2="2303.1895"/><text fill="#000000" font-family="sans-serif" font-size="13" font-weight="bold" lengthAdjust="spacingAndGlyphs" textLength="18" x="87.5" y="2285.792">33</text><text fill="#000000" font-family="sans-serif" font-size="13" lengthAdjust="spacingAndGlyphs" textLength="294" x="119.5" y="2278.1367">GET /oauth2/authorize {response_type=token}</text><text fill="#000000" font-family="sans-serif" font-size="13" lengthAdjust="spacingAndGlyphs" textLength="329" x="119.5" y="2293.4473">[SessionId HttpOnly w/ domain: login.fusionauth.io]</text><polygon fill="#56666F" points="86.5,2353.8105,76.5,2357.8105,86.5,2361.8105,82.5,2357.8105" style="stroke: #56666F; stroke-width: 1.0;"/><line style="stroke: #56666F; stroke-width: 1.0;" x1="80.5" x2="973.5" y1="2357.8105" y2="2357.8105"/><text fill="#000000" font-family="sans-serif" font-size="13" font-weight="bold" lengthAdjust="spacingAndGlyphs" textLength="18" x="97.5" y="2340.4131">34</text><text fill="#000000" font-family="sans-serif" font-size="13" lengthAdjust="spacingAndGlyphs" textLength="446" x="129.5" y="2332.7578">302 Location: {redirect_uri w/ JWT in redirect URI and no refresh token}</text><text fill="#000000" font-family="sans-serif" font-size="13" lengthAdjust="spacingAndGlyphs" textLength="329" x="129.5" y="2348.0684">[SessionId HttpOnly w/ domain: login.fusionauth.io]</text><polygon fill="#56666F" points="710.5,2393.1211,720.5,2397.1211,710.5,2401.1211,714.5,2397.1211" style="stroke: #56666F; stroke-width: 1.0;"/><line style="stroke: #56666F; stroke-width: 1.0;" x1="75.5" x2="716.5" y1="2397.1211" y2="2397.1211"/><text fill="#000000" font-family="sans-serif" font-size="13" font-weight="bold" lengthAdjust="spacingAndGlyphs" textLength="18" x="87.5" y="2387.3789">35</text><text fill="#000000" font-family="sans-serif" font-size="13" lengthAdjust="spacingAndGlyphs" textLength="205" x="119.5" y="2387.3789">GET {redirect_uri w/o JWT in URI}</text><polygon fill="#56666F" points="86.5,2432.4316,76.5,2436.4316,86.5,2440.4316,82.5,2436.4316" style="stroke: #56666F; stroke-width: 1.0;"/><line style="stroke: #56666F; stroke-width: 1.0;" x1="80.5" x2="721.5" y1="2436.4316" y2="2436.4316"/><text fill="#000000" font-family="sans-serif" font-size="13" font-weight="bold" lengthAdjust="spacingAndGlyphs" textLength="18" x="97.5" y="2426.6895">36</text><text fill="#000000" font-family="sans-serif" font-size="13" lengthAdjust="spacingAndGlyphs" textLength="180" x="129.5" y="2426.6895">(SPA HTML, CSS &amp; JavaScript)</text><rect fill="#3F2C61" height="3" style="stroke: #3F2C61; stroke-width: 1.0;" width="1109" x="3" y="2470.0869"/><line style="stroke: #FFFFFF; stroke-width: 0.5;" x1="3" x2="1112" y1="2470.0869" y2="2470.0869"/><line style="stroke: #FFFFFF; stroke-width: 0.5;" x1="3" x2="1112" y1="2473.0869" y2="2473.0869"/><rect fill="#3F2C61" height="33.3105" style="stroke: #FFFFFF; stroke-width: 1.0;" width="113" x="501" y="2454.4316"/><text fill="#FFFFFF" font-family="sans-serif" font-size="13" font-weight="bold" lengthAdjust="spacingAndGlyphs" textLength="85" x="512" y="2476">Start session</text><polygon fill="#56666F" points="710.5,2540.3633,720.5,2544.3633,710.5,2548.3633,714.5,2544.3633" style="stroke: #56666F; stroke-width: 1.0;"/><line style="stroke: #56666F; stroke-width: 1.0;" x1="75.5" x2="716.5" y1="2544.3633" y2="2544.3633"/><text fill="#000000" font-family="sans-serif" font-size="13" font-weight="bold" lengthAdjust="spacingAndGlyphs" textLength="18" x="87.5" y="2526.9658">37</text><text fill="#000000" font-family="sans-serif" font-size="13" lengthAdjust="spacingAndGlyphs" textLength="188" x="119.5" y="2519.3105">AJAX POST /api/start-session</text><text fill="#000000" font-family="sans-serif" font-size="13" lengthAdjust="spacingAndGlyphs" textLength="141" x="119.5" y="2534.6211">(JWT from redirect_uri)</text><line style="stroke: #56666F; stroke-width: 1.0;" x1="722.5" x2="764.5" y1="2583.6738" y2="2583.6738"/><line style="stroke: #56666F; stroke-width: 1.0;" x1="764.5" x2="764.5" y1="2583.6738" y2="2596.6738"/><line style="stroke: #56666F; stroke-width: 1.0;" x1="723.5" x2="764.5" y1="2596.6738" y2="2596.6738"/><polygon fill="#56666F" points="733.5,2592.6738,723.5,2596.6738,733.5,2600.6738,729.5,2596.6738" style="stroke: #56666F; stroke-width: 1.0;"/><text fill="#000000" font-family="sans-serif" font-size="13" font-weight="bold" lengthAdjust="spacingAndGlyphs" textLength="18" x="734.5" y="2573.9316">38</text><text fill="#000000" font-family="sans-serif" font-size="13" lengthAdjust="spacingAndGlyphs" textLength="196" x="766.5" y="2573.9316">Optionally store JWT in session</text><polygon fill="#56666F" points="86.5,2631.9844,76.5,2635.9844,86.5,2639.9844,82.5,2635.9844" style="stroke: #56666F; stroke-width: 1.0;"/><line style="stroke: #56666F; stroke-width: 1.0;" x1="80.5" x2="721.5" y1="2635.9844" y2="2635.9844"/><text fill="#000000" font-family="sans-serif" font-size="13" font-weight="bold" lengthAdjust="spacingAndGlyphs" textLength="18" x="97.5" y="2626.2422">39</text><text fill="#000000" font-family="sans-serif" font-size="13" lengthAdjust="spacingAndGlyphs" textLength="344" x="129.5" y="2626.2422">[SessionId HttpOnly w/ domain: Forums.Example.com]</text><rect fill="#3F2C61" height="3" style="stroke: #3F2C61; stroke-width: 1.0;" width="1109" x="3" y="2669.6396"/><line style="stroke: #FFFFFF; stroke-width: 0.5;" x1="3" x2="1112" y1="2669.6396" y2="2669.6396"/><line style="stroke: #FFFFFF; stroke-width: 0.5;" x1="3" x2="1112" y1="2672.6396" y2="2672.6396"/><rect fill="#3F2C61" height="33.3105" style="stroke: #FFFFFF; stroke-width: 1.0;" width="104" x="505.5" y="2653.9844"/><text fill="#FFFFFF" font-family="sans-serif" font-size="13" font-weight="bold" lengthAdjust="spacingAndGlyphs" textLength="76" x="516.5" y="2675.5527">Forum load</text><polygon fill="#56666F" points="710.5,2739.916,720.5,2743.916,710.5,2747.916,714.5,2743.916" style="stroke: #56666F; stroke-width: 1.0;"/><line style="stroke: #56666F; stroke-width: 1.0;" x1="75.5" x2="716.5" y1="2743.916" y2="2743.916"/><text fill="#000000" font-family="sans-serif" font-size="13" font-weight="bold" lengthAdjust="spacingAndGlyphs" textLength="18" x="87.5" y="2726.5186">40</text><text fill="#000000" font-family="sans-serif" font-size="13" lengthAdjust="spacingAndGlyphs" textLength="165" x="119.5" y="2718.8633">AJAX GET /api/load-posts</text><text fill="#000000" font-family="sans-serif" font-size="13" lengthAdjust="spacingAndGlyphs" textLength="344" x="119.5" y="2734.1738">[SessionId HttpOnly w/ domain: Forums.Example.com]</text><line style="stroke: #56666F; stroke-width: 1.0;" x1="722.5" x2="764.5" y1="2783.2266" y2="2783.2266"/><line style="stroke: #56666F; stroke-width: 1.0;" x1="764.5" x2="764.5" y1="2783.2266" y2="2796.2266"/><line style="stroke: #56666F; stroke-width: 1.0;" x1="723.5" x2="764.5" y1="2796.2266" y2="2796.2266"/><polygon fill="#56666F" points="733.5,2792.2266,723.5,2796.2266,733.5,2800.2266,729.5,2796.2266" style="stroke: #56666F; stroke-width: 1.0;"/><text fill="#000000" font-family="sans-serif" font-size="13" font-weight="bold" lengthAdjust="spacingAndGlyphs" textLength="18" x="734.5" y="2773.4844">41</text><text fill="#000000" font-family="sans-serif" font-size="13" lengthAdjust="spacingAndGlyphs" textLength="110" x="766.5" y="2773.4844">Session extended</text><polygon fill="#56666F" points="86.5,2831.5371,76.5,2835.5371,86.5,2839.5371,82.5,2835.5371" style="stroke: #56666F; stroke-width: 1.0;"/><line style="stroke: #56666F; stroke-width: 1.0;" x1="80.5" x2="721.5" y1="2835.5371" y2="2835.5371"/><text fill="#000000" font-family="sans-serif" font-size="13" font-weight="bold" lengthAdjust="spacingAndGlyphs" textLength="18" x="97.5" y="2825.7949">42</text><text fill="#000000" font-family="sans-serif" font-size="13" lengthAdjust="spacingAndGlyphs" textLength="87" x="129.5" y="2825.7949">(Forum posts)</text><path d="M40,2902.5371 L40,2929.5371 A4,4 0 0 0 44,2933.5371 L1102,2933.5371 A4,4 0 0 0 1106,2929.5371 L1106,2908.5371 L1096,2898.5371 L44,2898.5371 A4,4 0 0 0 40,2902.5371 " fill="#8B80A1" style="stroke: #FFFFFF; stroke-width: 1.0;"/><path d="M1096,2898.5371 L1096,2906.5371 A2,2 0 0 0 1098,2908.5371 L1106,2908.5371 L1096,2898.5371 " fill="#8B80A1" style="stroke: #FFFFFF; stroke-width: 1.0;"/><text fill="#FFFFFF" font-family="sans-serif" font-size="13" font-style="italic" lengthAdjust="spacingAndGlyphs" textLength="91" x="523" y="2921.1055">Attack vectors</text><rect fill="#3F2C61" height="3" style="stroke: #3F2C61; stroke-width: 1.0;" width="1109" x="3" y="3014.5029"/><line style="stroke: #FFFFFF; stroke-width: 0.5;" x1="3" x2="1112" y1="3014.5029" y2="3014.5029"/><line style="stroke: #FFFFFF; stroke-width: 0.5;" x1="3" x2="1112" y1="3017.5029" y2="3017.5029"/><rect fill="#3F2C61" height="33.3105" style="stroke: #FFFFFF; stroke-width: 1.0;" width="140" x="487.5" y="2998.8477"/><text fill="#FFFFFF" font-family="sans-serif" font-size="13" font-weight="bold" lengthAdjust="spacingAndGlyphs" textLength="112" x="498.5" y="3020.416">Stolen session id</text><polygon fill="#56666F" points="481.5,3084.7793,471.5,3088.7793,481.5,3092.7793,477.5,3088.7793" style="stroke: #56666F; stroke-width: 1.0;"/><line style="stroke: #56666F; stroke-width: 1.0;" x1="475.5" x2="1070.5" y1="3088.7793" y2="3088.7793"/><text fill="#000000" font-family="sans-serif" font-size="13" font-weight="bold" lengthAdjust="spacingAndGlyphs" textLength="18" x="492.5" y="3071.3818">43</text><text fill="#000000" font-family="sans-serif" font-size="13" lengthAdjust="spacingAndGlyphs" textLength="187" x="524.5" y="3063.7266">GET /api/load-shopping-cart</text><text fill="#000000" font-family="sans-serif" font-size="13" lengthAdjust="spacingAndGlyphs" textLength="329" x="524.5" y="3079.0371">[SessionId HttpOnly w/ domain: Store.Example.com]</text><line style="stroke: #56666F; stroke-width: 1.0;" x1="470.5" x2="512.5" y1="3128.0898" y2="3128.0898"/><line style="stroke: #56666F; stroke-width: 1.0;" x1="512.5" x2="512.5" y1="3128.0898" y2="3141.0898"/><line style="stroke: #56666F; stroke-width: 1.0;" x1="471.5" x2="512.5" y1="3141.0898" y2="3141.0898"/><polygon fill="#56666F" points="481.5,3137.0898,471.5,3141.0898,481.5,3145.0898,477.5,3141.0898" style="stroke: #56666F; stroke-width: 1.0;"/><text fill="#000000" font-family="sans-serif" font-size="13" font-weight="bold" lengthAdjust="spacingAndGlyphs" textLength="18" x="482.5" y="3118.3477">44</text><text fill="#000000" font-family="sans-serif" font-size="13" lengthAdjust="spacingAndGlyphs" textLength="110" x="514.5" y="3118.3477">Session extended</text><polygon fill="#56666F" points="1059.5,3176.4004,1069.5,3180.4004,1059.5,3184.4004,1063.5,3180.4004" style="stroke: #56666F; stroke-width: 1.0;"/><line style="stroke: #56666F; stroke-width: 1.0;" x1="470.5" x2="1065.5" y1="3180.4004" y2="3180.4004"/><text fill="#000000" font-family="sans-serif" font-size="13" font-weight="bold" lengthAdjust="spacingAndGlyphs" textLength="18" x="482.5" y="3170.6582">45</text><text fill="#000000" font-family="sans-serif" font-size="13" lengthAdjust="spacingAndGlyphs" textLength="154" x="514.5" y="3170.6582">(Shopping cart contents)</text></g></svg>