<?xml version="1.0" encoding="UTF-8" standalone="no"?><svg xmlns="http://www.w3.org/2000/svg" xmlns:xlink="http://www.w3.org/1999/xlink" contentScriptType="application/ecmascript" contentStyleType="text/css" height="3163px" preserveAspectRatio="none" style="width:1129px;height:3163px;" version="1.1" viewBox="0 0 1129 3163" width="1129px" zoomAndPan="magnify"><defs/><g><rect fill="#D8D8D8" height="40.4883" rx="4" ry="4" style="stroke: #979797; stroke-width: 1.0;" width="76" x="613.5" y="1777.5957"/><text fill="#000000" font-family="sans-serif" font-size="14" lengthAdjust="spacingAndGlyphs" textLength="52" x="625.5" y="1803.1309">Forums</text><line style="stroke: #CDCDCD; stroke-width: 1.0; stroke-dasharray: 5.0,5.0;" x1="97" x2="97" y1="44.4883" y2="3112.9531"/><line style="stroke: #CDCDCD; stroke-width: 1.0; stroke-dasharray: 5.0,5.0;" x1="573.5" x2="573.5" y1="44.4883" y2="3112.9531"/><line style="stroke: #CDCDCD; stroke-width: 1.0; stroke-dasharray: 5.0,5.0;" x1="651.5" x2="651.5" y1="1811.7734" y2="3112.9531"/><line style="stroke: #CDCDCD; stroke-width: 1.0; stroke-dasharray: 5.0,5.0;" x1="929" x2="929" y1="44.4883" y2="3112.9531"/><line style="stroke: #CDCDCD; stroke-width: 1.0; stroke-dasharray: 5.0,5.0;" x1="1076" x2="1076" y1="44.4883" y2="3112.9531"/><rect fill="#D8D8D8" height="40.4883" rx="4" ry="4" style="stroke: #979797; stroke-width: 1.0;" width="79" x="58" y="3"/><text fill="#000000" font-family="sans-serif" font-size="14" lengthAdjust="spacingAndGlyphs" textLength="55" x="70" y="28.5352">Browser</text><rect fill="#D8D8D8" height="40.4883" rx="4" ry="4" style="stroke: #979797; stroke-width: 1.0;" width="79" x="58" y="3111.9531"/><text fill="#000000" font-family="sans-serif" font-size="14" lengthAdjust="spacingAndGlyphs" textLength="55" x="70" y="3137.4883">Browser</text><rect fill="#D8D8D8" height="40.4883" rx="4" ry="4" style="stroke: #979797; stroke-width: 1.0;" width="60" x="543.5" y="3"/><text fill="#000000" font-family="sans-serif" font-size="14" lengthAdjust="spacingAndGlyphs" textLength="36" x="555.5" y="28.5352">Store</text><rect fill="#D8D8D8" height="40.4883" rx="4" ry="4" style="stroke: #979797; stroke-width: 1.0;" width="60" x="543.5" y="3111.9531"/><text fill="#000000" font-family="sans-serif" font-size="14" lengthAdjust="spacingAndGlyphs" textLength="36" x="555.5" y="3137.4883">Store</text><rect fill="#D8D8D8" height="40.4883" rx="4" ry="4" style="stroke: #979797; stroke-width: 1.0;" width="76" x="613.5" y="3111.9531"/><text fill="#000000" font-family="sans-serif" font-size="14" lengthAdjust="spacingAndGlyphs" textLength="52" x="625.5" y="3137.4883">Forums</text><rect fill="#D8D8D8" height="40.4883" rx="4" ry="4" style="stroke: #979797; stroke-width: 1.0;" width="103" x="878" y="3"/><text fill="#000000" font-family="sans-serif" font-size="14" lengthAdjust="spacingAndGlyphs" textLength="79" x="890" y="28.5352">FusionAuth</text><rect fill="#D8D8D8" height="40.4883" rx="4" ry="4" style="stroke: #979797; stroke-width: 1.0;" width="103" x="878" y="3111.9531"/><text fill="#000000" font-family="sans-serif" font-size="14" lengthAdjust="spacingAndGlyphs" textLength="79" x="890" y="3137.4883">FusionAuth</text><rect fill="#D8D8D8" height="40.4883" rx="4" ry="4" style="stroke: #979797; stroke-width: 1.0;" width="71" x="1041" y="3"/><text fill="#000000" font-family="sans-serif" font-size="14" lengthAdjust="spacingAndGlyphs" textLength="47" x="1053" y="28.5352">Hacker</text><rect fill="#D8D8D8" height="40.4883" rx="4" ry="4" style="stroke: #979797; stroke-width: 1.0;" width="71" x="1041" y="3111.9531"/><text fill="#000000" font-family="sans-serif" font-size="14" lengthAdjust="spacingAndGlyphs" textLength="47" x="1053" y="3137.4883">Hacker</text><rect fill="#3F2C61" height="3" style="stroke: #3F2C61; stroke-width: 1.0;" width="1114" x="3" y="80.1436"/><line style="stroke: #FFFFFF; stroke-width: 0.5;" x1="3" x2="1117" y1="80.1436" y2="80.1436"/><line style="stroke: #FFFFFF; stroke-width: 0.5;" x1="3" x2="1117" y1="83.1436" y2="83.1436"/><rect fill="#3F2C61" height="33.3105" style="stroke: #FFFFFF; stroke-width: 1.0;" width="86" x="517" y="64.4883"/><text fill="#FFFFFF" font-family="sans-serif" font-size="13" font-weight="bold" lengthAdjust="spacingAndGlyphs" textLength="58" x="528" y="86.0566">Initialize</text><polygon fill="#56666F" points="561.5,135.1094,571.5,139.1094,561.5,143.1094,565.5,139.1094" style="stroke: #56666F; stroke-width: 1.0;"/><line style="stroke: #56666F; stroke-width: 1.0;" x1="97.5" x2="567.5" y1="139.1094" y2="139.1094"/><text fill="#000000" font-family="sans-serif" font-size="13" font-weight="bold" lengthAdjust="spacingAndGlyphs" textLength="9" x="109.5" y="129.3672">1</text><text fill="#000000" font-family="sans-serif" font-size="13" lengthAdjust="spacingAndGlyphs" textLength="35" x="132.5" y="129.3672">GET /</text><polygon fill="#56666F" points="108.5,174.4199,98.5,178.4199,108.5,182.4199,104.5,178.4199" style="stroke: #56666F; stroke-width: 1.0;"/><line style="stroke: #56666F; stroke-width: 1.0;" x1="102.5" x2="572.5" y1="178.4199" y2="178.4199"/><text fill="#000000" font-family="sans-serif" font-size="13" font-weight="bold" lengthAdjust="spacingAndGlyphs" textLength="9" x="119.5" y="168.6777">2</text><text fill="#000000" font-family="sans-serif" font-size="13" lengthAdjust="spacingAndGlyphs" textLength="180" x="142.5" y="168.6777">(SPA HTML, CSS &amp; JavaScript)</text><polygon fill="#56666F" points="561.5,229.041,571.5,233.041,561.5,237.041,565.5,233.041" style="stroke: #56666F; stroke-width: 1.0;"/><line style="stroke: #56666F; stroke-width: 1.0;" x1="97.5" x2="567.5" y1="233.041" y2="233.041"/><text fill="#000000" font-family="sans-serif" font-size="13" font-weight="bold" lengthAdjust="spacingAndGlyphs" textLength="9" x="109.5" y="215.6436">3</text><text fill="#000000" font-family="sans-serif" font-size="13" lengthAdjust="spacingAndGlyphs" textLength="122" x="132.5" y="207.9883">AJAX GET /api/user</text><text fill="#000000" font-family="sans-serif" font-size="13" lengthAdjust="spacingAndGlyphs" textLength="79" x="132.5" y="223.2988">[No cookies]</text><polygon fill="#EB8C52" points="108.5,268.3516,98.5,272.3516,108.5,276.3516,104.5,272.3516" style="stroke: #EB8C52; stroke-width: 1.0;"/><line style="stroke: #EB8C52; stroke-width: 1.0;" x1="102.5" x2="572.5" y1="272.3516" y2="272.3516"/><text fill="#000000" font-family="sans-serif" font-size="13" font-weight="bold" lengthAdjust="spacingAndGlyphs" textLength="9" x="119.5" y="262.6094">4</text><text fill="#EB8C52" font-family="sans-serif" font-size="13" lengthAdjust="spacingAndGlyphs" textLength="77" x="142.5" y="262.6094">404 Missing</text><rect fill="#3F2C61" height="3" style="stroke: #3F2C61; stroke-width: 1.0;" width="1114" x="3" y="306.0068"/><line style="stroke: #FFFFFF; stroke-width: 0.5;" x1="3" x2="1117" y1="306.0068" y2="306.0068"/><line style="stroke: #FFFFFF; stroke-width: 0.5;" x1="3" x2="1117" y1="309.0068" y2="309.0068"/><rect fill="#3F2C61" height="33.3105" style="stroke: #FFFFFF; stroke-width: 1.0;" width="309" x="405.5" y="290.3516"/><text fill="#FFFFFF" font-family="sans-serif" font-size="13" font-weight="bold" lengthAdjust="spacingAndGlyphs" textLength="281" x="416.5" y="311.9199">Login (browser navigates away from SPA)</text><polygon fill="#56666F" points="917.5,360.9727,927.5,364.9727,917.5,368.9727,921.5,364.9727" style="stroke: #56666F; stroke-width: 1.0;"/><line style="stroke: #56666F; stroke-width: 1.0;" x1="97.5" x2="923.5" y1="364.9727" y2="364.9727"/><text fill="#000000" font-family="sans-serif" font-size="13" font-weight="bold" lengthAdjust="spacingAndGlyphs" textLength="9" x="109.5" y="355.2305">5</text><text fill="#000000" font-family="sans-serif" font-size="13" lengthAdjust="spacingAndGlyphs" textLength="288" x="132.5" y="355.2305">GET /oauth2/authorize {response_type=code}</text><polygon fill="#56666F" points="108.5,400.2832,98.5,404.2832,108.5,408.2832,104.5,404.2832" style="stroke: #56666F; stroke-width: 1.0;"/><line style="stroke: #56666F; stroke-width: 1.0;" x1="102.5" x2="928.5" y1="404.2832" y2="404.2832"/><text fill="#000000" font-family="sans-serif" font-size="13" font-weight="bold" lengthAdjust="spacingAndGlyphs" textLength="9" x="119.5" y="394.541">6</text><text fill="#000000" font-family="sans-serif" font-size="13" lengthAdjust="spacingAndGlyphs" textLength="117" x="142.5" y="394.541">(Login form HTML)</text><polygon fill="#56666F" points="917.5,439.5938,927.5,443.5938,917.5,447.5938,921.5,443.5938" style="stroke: #56666F; stroke-width: 1.0;"/><line style="stroke: #56666F; stroke-width: 1.0;" x1="97.5" x2="923.5" y1="443.5938" y2="443.5938"/><text fill="#000000" font-family="sans-serif" font-size="13" font-weight="bold" lengthAdjust="spacingAndGlyphs" textLength="9" x="109.5" y="433.8516">7</text><text fill="#000000" font-family="sans-serif" font-size="13" lengthAdjust="spacingAndGlyphs" textLength="296" x="132.5" y="433.8516">POST /oauth2/authorize {response_type=code}</text><polygon fill="#56666F" points="108.5,494.2148,98.5,498.2148,108.5,502.2148,104.5,498.2148" style="stroke: #56666F; stroke-width: 1.0;"/><line style="stroke: #56666F; stroke-width: 1.0;" x1="102.5" x2="928.5" y1="498.2148" y2="498.2148"/><text fill="#000000" font-family="sans-serif" font-size="13" font-weight="bold" lengthAdjust="spacingAndGlyphs" textLength="9" x="119.5" y="480.8174">8</text><text fill="#000000" font-family="sans-serif" font-size="13" lengthAdjust="spacingAndGlyphs" textLength="225" x="142.5" y="473.1621">302 Location: {redirect_uri w/ code}</text><text fill="#000000" font-family="sans-serif" font-size="13" lengthAdjust="spacingAndGlyphs" textLength="329" x="142.5" y="488.4727">[SessionId HttpOnly w/ domain: login.fusionauth.io]</text><polygon fill="#56666F" points="561.5,533.5254,571.5,537.5254,561.5,541.5254,565.5,537.5254" style="stroke: #56666F; stroke-width: 1.0;"/><line style="stroke: #56666F; stroke-width: 1.0;" x1="97.5" x2="567.5" y1="537.5254" y2="537.5254"/><text fill="#000000" font-family="sans-serif" font-size="13" font-weight="bold" lengthAdjust="spacingAndGlyphs" textLength="9" x="109.5" y="527.7832">9</text><text fill="#000000" font-family="sans-serif" font-size="13" lengthAdjust="spacingAndGlyphs" textLength="163" x="132.5" y="527.7832">GET {redirect_uri w/ code}</text><polygon fill="#56666F" points="917.5,588.1465,927.5,592.1465,917.5,596.1465,921.5,592.1465" style="stroke: #56666F; stroke-width: 1.0;"/><line style="stroke: #56666F; stroke-width: 1.0;" x1="573.5" x2="923.5" y1="592.1465" y2="592.1465"/><text fill="#000000" font-family="sans-serif" font-size="13" font-weight="bold" lengthAdjust="spacingAndGlyphs" textLength="18" x="585.5" y="574.749">10</text><text fill="#000000" font-family="sans-serif" font-size="13" lengthAdjust="spacingAndGlyphs" textLength="130" x="617.5" y="567.0938">POST /oauth2/token</text><text fill="#000000" font-family="sans-serif" font-size="13" lengthAdjust="spacingAndGlyphs" textLength="126" x="617.5" y="582.4043">(code, client_secret)</text><polygon fill="#56666F" points="584.5,642.7676,574.5,646.7676,584.5,650.7676,580.5,646.7676" style="stroke: #56666F; stroke-width: 1.0;"/><line style="stroke: #56666F; stroke-width: 1.0;" x1="578.5" x2="928.5" y1="646.7676" y2="646.7676"/><text fill="#000000" font-family="sans-serif" font-size="13" font-weight="bold" lengthAdjust="spacingAndGlyphs" textLength="18" x="595.5" y="629.3701">11</text><text fill="#000000" font-family="sans-serif" font-size="13" lengthAdjust="spacingAndGlyphs" textLength="46" x="627.5" y="621.7148">200 Ok</text><text fill="#000000" font-family="sans-serif" font-size="13" lengthAdjust="spacingAndGlyphs" textLength="149" x="627.5" y="637.0254">(Refresh token and JWT)</text><polygon fill="#56666F" points="108.5,697.3887,98.5,701.3887,108.5,705.3887,104.5,701.3887" style="stroke: #56666F; stroke-width: 1.0;"/><line style="stroke: #56666F; stroke-width: 1.0;" x1="102.5" x2="572.5" y1="701.3887" y2="701.3887"/><text fill="#000000" font-family="sans-serif" font-size="13" font-weight="bold" lengthAdjust="spacingAndGlyphs" textLength="18" x="119.5" y="683.9912">12</text><text fill="#000000" font-family="sans-serif" font-size="13" lengthAdjust="spacingAndGlyphs" textLength="97" x="151.5" y="676.3359">302 Location: /</text><text fill="#000000" font-family="sans-serif" font-size="13" lengthAdjust="spacingAndGlyphs" textLength="410" x="151.5" y="691.6465">[Refresh token and JWT HttpOnly w/ domain: Store.Example.com]</text><polygon fill="#56666F" points="561.5,736.6992,571.5,740.6992,561.5,744.6992,565.5,740.6992" style="stroke: #56666F; stroke-width: 1.0;"/><line style="stroke: #56666F; stroke-width: 1.0;" x1="97.5" x2="567.5" y1="740.6992" y2="740.6992"/><text fill="#000000" font-family="sans-serif" font-size="13" font-weight="bold" lengthAdjust="spacingAndGlyphs" textLength="18" x="109.5" y="730.957">13</text><text fill="#000000" font-family="sans-serif" font-size="13" lengthAdjust="spacingAndGlyphs" textLength="35" x="141.5" y="730.957">GET /</text><polygon fill="#56666F" points="108.5,776.0098,98.5,780.0098,108.5,784.0098,104.5,780.0098" style="stroke: #56666F; stroke-width: 1.0;"/><line style="stroke: #56666F; stroke-width: 1.0;" x1="102.5" x2="572.5" y1="780.0098" y2="780.0098"/><text fill="#000000" font-family="sans-serif" font-size="13" font-weight="bold" lengthAdjust="spacingAndGlyphs" textLength="18" x="119.5" y="770.2676">14</text><text fill="#000000" font-family="sans-serif" font-size="13" lengthAdjust="spacingAndGlyphs" textLength="180" x="151.5" y="770.2676">(SPA HTML, CSS &amp; JavaScript)</text><rect fill="#3F2C61" height="3" style="stroke: #3F2C61; stroke-width: 1.0;" width="1114" x="3" y="813.665"/><line style="stroke: #FFFFFF; stroke-width: 0.5;" x1="3" x2="1117" y1="813.665" y2="813.665"/><line style="stroke: #FFFFFF; stroke-width: 0.5;" x1="3" x2="1117" y1="816.665" y2="816.665"/><rect fill="#3F2C61" height="33.3105" style="stroke: #FFFFFF; stroke-width: 1.0;" width="155" x="482.5" y="798.0098"/><text fill="#FFFFFF" font-family="sans-serif" font-size="13" font-weight="bold" lengthAdjust="spacingAndGlyphs" textLength="127" x="493.5" y="819.5781">Shopping cart load</text><polygon fill="#56666F" points="561.5,883.9414,571.5,887.9414,561.5,891.9414,565.5,887.9414" style="stroke: #56666F; stroke-width: 1.0;"/><line style="stroke: #56666F; stroke-width: 1.0;" x1="97.5" x2="567.5" y1="887.9414" y2="887.9414"/><text fill="#000000" font-family="sans-serif" font-size="13" font-weight="bold" lengthAdjust="spacingAndGlyphs" textLength="18" x="109.5" y="870.5439">15</text><text fill="#000000" font-family="sans-serif" font-size="13" lengthAdjust="spacingAndGlyphs" textLength="221" x="141.5" y="862.8887">AJAX GET /api/load-shopping-cart</text><text fill="#000000" font-family="sans-serif" font-size="13" lengthAdjust="spacingAndGlyphs" textLength="410" x="141.5" y="878.1992">[Refresh token and JWT HttpOnly w/ domain: Store.Example.com]</text><polygon fill="#56666F" points="108.5,923.252,98.5,927.252,108.5,931.252,104.5,927.252" style="stroke: #56666F; stroke-width: 1.0;"/><line style="stroke: #56666F; stroke-width: 1.0;" x1="102.5" x2="572.5" y1="927.252" y2="927.252"/><text fill="#000000" font-family="sans-serif" font-size="13" font-weight="bold" lengthAdjust="spacingAndGlyphs" textLength="18" x="119.5" y="917.5098">16</text><text fill="#000000" font-family="sans-serif" font-size="13" lengthAdjust="spacingAndGlyphs" textLength="154" x="151.5" y="917.5098">(Shopping cart contents)</text><path d="M42,944.252 L42,971.252 A4,4 0 0 0 46,975.252 L149,975.252 A4,4 0 0 0 153,971.252 L153,950.252 L143,940.252 L46,940.252 A4,4 0 0 0 42,944.252 " fill="#EB8C52" style="stroke: #FFFFFF; stroke-width: 1.0;"/><path d="M143,940.252 L143,948.252 A2,2 0 0 0 145,950.252 L153,950.252 L143,940.252 " fill="#EB8C52" style="stroke: #FFFFFF; stroke-width: 1.0;"/><text fill="#FFFFFF" font-family="sans-serif" font-size="13" font-style="italic" font-weight="bold" lengthAdjust="spacingAndGlyphs" textLength="80" x="53" y="962.8203">JWT expires</text><rect fill="#3F2C61" height="3" style="stroke: #3F2C61; stroke-width: 1.0;" width="1114" x="3" y="1006.2178"/><line style="stroke: #FFFFFF; stroke-width: 0.5;" x1="3" x2="1117" y1="1006.2178" y2="1006.2178"/><line style="stroke: #FFFFFF; stroke-width: 0.5;" x1="3" x2="1117" y1="1009.2178" y2="1009.2178"/><rect fill="#3F2C61" height="33.3105" style="stroke: #FFFFFF; stroke-width: 1.0;" width="155" x="482.5" y="990.5625"/><text fill="#FFFFFF" font-family="sans-serif" font-size="13" font-weight="bold" lengthAdjust="spacingAndGlyphs" textLength="127" x="493.5" y="1012.1309">Shopping cart load</text><polygon fill="#56666F" points="561.5,1076.4941,571.5,1080.4941,561.5,1084.4941,565.5,1080.4941" style="stroke: #56666F; stroke-width: 1.0;"/><line style="stroke: #56666F; stroke-width: 1.0;" x1="97.5" x2="567.5" y1="1080.4941" y2="1080.4941"/><text fill="#000000" font-family="sans-serif" font-size="13" font-weight="bold" lengthAdjust="spacingAndGlyphs" textLength="18" x="109.5" y="1063.0967">17</text><text fill="#000000" font-family="sans-serif" font-size="13" lengthAdjust="spacingAndGlyphs" textLength="221" x="141.5" y="1055.4414">AJAX GET /api/load-shopping-cart</text><text fill="#000000" font-family="sans-serif" font-size="13" lengthAdjust="spacingAndGlyphs" textLength="410" x="141.5" y="1070.752">[Refresh token and JWT HttpOnly w/ domain: Store.Example.com]</text><polygon fill="#56666F" points="917.5,1131.1152,927.5,1135.1152,917.5,1139.1152,921.5,1135.1152" style="stroke: #56666F; stroke-width: 1.0;"/><line style="stroke: #56666F; stroke-width: 1.0;" x1="573.5" x2="923.5" y1="1135.1152" y2="1135.1152"/><text fill="#000000" font-family="sans-serif" font-size="13" font-weight="bold" lengthAdjust="spacingAndGlyphs" textLength="18" x="585.5" y="1117.7178">18</text><text fill="#000000" font-family="sans-serif" font-size="13" lengthAdjust="spacingAndGlyphs" textLength="290" x="617.5" y="1110.0625">POST /oauth2/token or POST /api/jwt/refresh</text><text fill="#000000" font-family="sans-serif" font-size="13" lengthAdjust="spacingAndGlyphs" textLength="244" x="617.5" y="1125.373">(grant_type=refresh and refresh token)</text><polygon fill="#56666F" points="584.5,1170.4258,574.5,1174.4258,584.5,1178.4258,580.5,1174.4258" style="stroke: #56666F; stroke-width: 1.0;"/><line style="stroke: #56666F; stroke-width: 1.0;" x1="578.5" x2="928.5" y1="1174.4258" y2="1174.4258"/><text fill="#000000" font-family="sans-serif" font-size="13" font-weight="bold" lengthAdjust="spacingAndGlyphs" textLength="18" x="595.5" y="1164.6836">19</text><text fill="#000000" font-family="sans-serif" font-size="13" lengthAdjust="spacingAndGlyphs" textLength="31" x="627.5" y="1164.6836">(JWT)</text><polygon fill="#56666F" points="108.5,1225.0469,98.5,1229.0469,108.5,1233.0469,104.5,1229.0469" style="stroke: #56666F; stroke-width: 1.0;"/><line style="stroke: #56666F; stroke-width: 1.0;" x1="102.5" x2="572.5" y1="1229.0469" y2="1229.0469"/><text fill="#000000" font-family="sans-serif" font-size="13" font-weight="bold" lengthAdjust="spacingAndGlyphs" textLength="18" x="119.5" y="1211.6494">20</text><text fill="#000000" font-family="sans-serif" font-size="13" lengthAdjust="spacingAndGlyphs" textLength="154" x="151.5" y="1203.9941">(Shopping cart contents)</text><text fill="#000000" font-family="sans-serif" font-size="13" lengthAdjust="spacingAndGlyphs" textLength="323" x="151.5" y="1219.3047">[New JWT HttpOnly w/ domain: Store.Example.com]</text><path d="M8,1246.0469 L8,1273.0469 A4,4 0 0 0 12,1277.0469 L183,1277.0469 A4,4 0 0 0 187,1273.0469 L187,1252.0469 L177,1242.0469 L12,1242.0469 A4,4 0 0 0 8,1246.0469 " fill="#EB8C52" style="stroke: #FFFFFF; stroke-width: 1.0;"/><path d="M177,1242.0469 L177,1250.0469 A2,2 0 0 0 179,1252.0469 L187,1252.0469 L177,1242.0469 " fill="#EB8C52" style="stroke: #FFFFFF; stroke-width: 1.0;"/><text fill="#FFFFFF" font-family="sans-serif" font-size="13" font-style="italic" font-weight="bold" lengthAdjust="spacingAndGlyphs" textLength="148" x="19" y="1264.6152">Refresh token expires</text><rect fill="#3F2C61" height="3" style="stroke: #3F2C61; stroke-width: 1.0;" width="1114" x="3" y="1308.0127"/><line style="stroke: #FFFFFF; stroke-width: 0.5;" x1="3" x2="1117" y1="1308.0127" y2="1308.0127"/><line style="stroke: #FFFFFF; stroke-width: 0.5;" x1="3" x2="1117" y1="1311.0127" y2="1311.0127"/><rect fill="#3F2C61" height="33.3105" style="stroke: #FFFFFF; stroke-width: 1.0;" width="87" x="516.5" y="1292.3574"/><text fill="#FFFFFF" font-family="sans-serif" font-size="13" font-weight="bold" lengthAdjust="spacingAndGlyphs" textLength="59" x="527.5" y="1313.9258">Re-login</text><polygon fill="#56666F" points="561.5,1378.2891,571.5,1382.2891,561.5,1386.2891,565.5,1382.2891" style="stroke: #56666F; stroke-width: 1.0;"/><line style="stroke: #56666F; stroke-width: 1.0;" x1="97.5" x2="567.5" y1="1382.2891" y2="1382.2891"/><text fill="#000000" font-family="sans-serif" font-size="13" font-weight="bold" lengthAdjust="spacingAndGlyphs" textLength="18" x="109.5" y="1364.8916">21</text><text fill="#000000" font-family="sans-serif" font-size="13" lengthAdjust="spacingAndGlyphs" textLength="221" x="141.5" y="1357.2363">AJAX GET /api/load-shopping-cart</text><text fill="#000000" font-family="sans-serif" font-size="13" lengthAdjust="spacingAndGlyphs" textLength="410" x="141.5" y="1372.5469">[Refresh token and JWT HttpOnly w/ domain: Store.Example.com]</text><polygon fill="#56666F" points="917.5,1432.9102,927.5,1436.9102,917.5,1440.9102,921.5,1436.9102" style="stroke: #56666F; stroke-width: 1.0;"/><line style="stroke: #56666F; stroke-width: 1.0;" x1="573.5" x2="923.5" y1="1436.9102" y2="1436.9102"/><text fill="#000000" font-family="sans-serif" font-size="13" font-weight="bold" lengthAdjust="spacingAndGlyphs" textLength="18" x="585.5" y="1419.5127">22</text><text fill="#000000" font-family="sans-serif" font-size="13" lengthAdjust="spacingAndGlyphs" textLength="290" x="617.5" y="1411.8574">POST /oauth2/token or POST /api/jwt/refresh</text><text fill="#000000" font-family="sans-serif" font-size="13" lengthAdjust="spacingAndGlyphs" textLength="244" x="617.5" y="1427.168">(grant_type=refresh and refresh token)</text><polygon fill="#EB8C52" points="584.5,1472.2207,574.5,1476.2207,584.5,1480.2207,580.5,1476.2207" style="stroke: #EB8C52; stroke-width: 1.0;"/><line style="stroke: #EB8C52; stroke-width: 1.0;" x1="578.5" x2="928.5" y1="1476.2207" y2="1476.2207"/><text fill="#000000" font-family="sans-serif" font-size="13" font-weight="bold" lengthAdjust="spacingAndGlyphs" textLength="18" x="595.5" y="1466.4785">23</text><text fill="#EB8C52" font-family="sans-serif" font-size="13" lengthAdjust="spacingAndGlyphs" textLength="77" x="627.5" y="1466.4785">404 Missing</text><polygon fill="#EB8C52" points="108.5,1511.5313,98.5,1515.5313,108.5,1519.5313,104.5,1515.5313" style="stroke: #EB8C52; stroke-width: 1.0;"/><line style="stroke: #EB8C52; stroke-width: 1.0;" x1="102.5" x2="572.5" y1="1515.5313" y2="1515.5313"/><text fill="#000000" font-family="sans-serif" font-size="13" font-weight="bold" lengthAdjust="spacingAndGlyphs" textLength="18" x="119.5" y="1505.7891">24</text><text fill="#EB8C52" font-family="sans-serif" font-size="13" lengthAdjust="spacingAndGlyphs" textLength="124" x="151.5" y="1505.7891">401 Not Authorized</text><line style="stroke: #56666F; stroke-width: 1.0;" x1="97.5" x2="139.5" y1="1554.8418" y2="1554.8418"/><line style="stroke: #56666F; stroke-width: 1.0;" x1="139.5" x2="139.5" y1="1554.8418" y2="1567.8418"/><line style="stroke: #56666F; stroke-width: 1.0;" x1="98.5" x2="139.5" y1="1567.8418" y2="1567.8418"/><polygon fill="#56666F" points="108.5,1563.8418,98.5,1567.8418,108.5,1571.8418,104.5,1567.8418" style="stroke: #56666F; stroke-width: 1.0;"/><text fill="#000000" font-family="sans-serif" font-size="13" font-weight="bold" lengthAdjust="spacingAndGlyphs" textLength="18" x="109.5" y="1545.0996">25</text><text fill="#000000" font-family="sans-serif" font-size="13" lengthAdjust="spacingAndGlyphs" textLength="131" x="141.5" y="1545.0996">Login same as above</text><path d="M62,1634.8418 L62,1661.8418 A4,4 0 0 0 66,1665.8418 L1107,1665.8418 A4,4 0 0 0 1111,1661.8418 L1111,1640.8418 L1101,1630.8418 L66,1630.8418 A4,4 0 0 0 62,1634.8418 " fill="#8B80A1" style="stroke: #FFFFFF; stroke-width: 1.0;"/><path d="M1101,1630.8418 L1101,1638.8418 A2,2 0 0 0 1103,1640.8418 L1111,1640.8418 L1101,1630.8418 " fill="#8B80A1" style="stroke: #FFFFFF; stroke-width: 1.0;"/><text fill="#FFFFFF" font-family="sans-serif" font-size="13" font-style="italic" lengthAdjust="spacingAndGlyphs" textLength="126" x="519" y="1653.4102">SSO login to forums</text><rect fill="#3F2C61" height="3" style="stroke: #3F2C61; stroke-width: 1.0;" width="1114" x="3" y="1746.8076"/><line style="stroke: #FFFFFF; stroke-width: 0.5;" x1="3" x2="1117" y1="1746.8076" y2="1746.8076"/><line style="stroke: #FFFFFF; stroke-width: 0.5;" x1="3" x2="1117" y1="1749.8076" y2="1749.8076"/><rect fill="#3F2C61" height="33.3105" style="stroke: #FFFFFF; stroke-width: 1.0;" width="86" x="517" y="1731.1523"/><text fill="#FFFFFF" font-family="sans-serif" font-size="13" font-weight="bold" lengthAdjust="spacingAndGlyphs" textLength="58" x="528" y="1752.7207">Initialize</text><polygon fill="#56666F" points="601.5,1817.084,611.5,1821.084,601.5,1825.084,605.5,1821.084" style="stroke: #56666F; stroke-width: 1.0;"/><line style="stroke: #56666F; stroke-width: 1.0;" x1="97.5" x2="607.5" y1="1821.084" y2="1821.084"/><text fill="#000000" font-family="sans-serif" font-size="13" font-weight="bold" lengthAdjust="spacingAndGlyphs" textLength="18" x="109.5" y="1803.6865">26</text><text fill="#000000" font-family="sans-serif" font-size="13" lengthAdjust="spacingAndGlyphs" textLength="35" x="141.5" y="1796.0313">GET /</text><text fill="#000000" font-family="sans-serif" font-size="13" lengthAdjust="spacingAndGlyphs" textLength="79" x="141.5" y="1811.3418">[No cookies]</text><rect fill="#D8D8D8" height="40.4883" rx="4" ry="4" style="stroke: #979797; stroke-width: 1.0;" width="76" x="613.5" y="1777.5957"/><text fill="#000000" font-family="sans-serif" font-size="14" lengthAdjust="spacingAndGlyphs" textLength="52" x="625.5" y="1803.1309">Forums</text><polygon fill="#56666F" points="108.5,1856.3945,98.5,1860.3945,108.5,1864.3945,104.5,1860.3945" style="stroke: #56666F; stroke-width: 1.0;"/><line style="stroke: #56666F; stroke-width: 1.0;" x1="102.5" x2="650.5" y1="1860.3945" y2="1860.3945"/><text fill="#000000" font-family="sans-serif" font-size="13" font-weight="bold" lengthAdjust="spacingAndGlyphs" textLength="18" x="119.5" y="1850.6523">27</text><text fill="#000000" font-family="sans-serif" font-size="13" lengthAdjust="spacingAndGlyphs" textLength="180" x="151.5" y="1850.6523">(SPA HTML, CSS &amp; JavaScript)</text><polygon fill="#56666F" points="639.5,1911.0156,649.5,1915.0156,639.5,1919.0156,643.5,1915.0156" style="stroke: #56666F; stroke-width: 1.0;"/><line style="stroke: #56666F; stroke-width: 1.0;" x1="97.5" x2="645.5" y1="1915.0156" y2="1915.0156"/><text fill="#000000" font-family="sans-serif" font-size="13" font-weight="bold" lengthAdjust="spacingAndGlyphs" textLength="18" x="109.5" y="1897.6182">28</text><text fill="#000000" font-family="sans-serif" font-size="13" lengthAdjust="spacingAndGlyphs" textLength="88" x="141.5" y="1889.9629">GET /api/user</text><text fill="#000000" font-family="sans-serif" font-size="13" lengthAdjust="spacingAndGlyphs" textLength="79" x="141.5" y="1905.2734">[No cookies]</text><polygon fill="#EB8C52" points="108.5,1950.3262,98.5,1954.3262,108.5,1958.3262,104.5,1954.3262" style="stroke: #EB8C52; stroke-width: 1.0;"/><line style="stroke: #EB8C52; stroke-width: 1.0;" x1="102.5" x2="650.5" y1="1954.3262" y2="1954.3262"/><text fill="#000000" font-family="sans-serif" font-size="13" font-weight="bold" lengthAdjust="spacingAndGlyphs" textLength="18" x="119.5" y="1944.584">29</text><text fill="#EB8C52" font-family="sans-serif" font-size="13" lengthAdjust="spacingAndGlyphs" textLength="77" x="151.5" y="1944.584">404 Missing</text><rect fill="#3F2C61" height="3" style="stroke: #3F2C61; stroke-width: 1.0;" width="1114" x="3" y="1987.9814"/><line style="stroke: #FFFFFF; stroke-width: 0.5;" x1="3" x2="1117" y1="1987.9814" y2="1987.9814"/><line style="stroke: #FFFFFF; stroke-width: 0.5;" x1="3" x2="1117" y1="1990.9814" y2="1990.9814"/><rect fill="#3F2C61" height="33.3105" style="stroke: #FFFFFF; stroke-width: 1.0;" width="589" x="265.5" y="1972.3262"/><text fill="#FFFFFF" font-family="sans-serif" font-size="13" font-weight="bold" lengthAdjust="spacingAndGlyphs" textLength="561" x="276.5" y="1993.8945">Login (browser navigates away from SPA but auto-logs-in since the session exists)</text><polygon fill="#56666F" points="917.5,2058.2578,927.5,2062.2578,917.5,2066.2578,921.5,2062.2578" style="stroke: #56666F; stroke-width: 1.0;"/><line style="stroke: #56666F; stroke-width: 1.0;" x1="97.5" x2="923.5" y1="2062.2578" y2="2062.2578"/><text fill="#000000" font-family="sans-serif" font-size="13" font-weight="bold" lengthAdjust="spacingAndGlyphs" textLength="18" x="109.5" y="2044.8604">30</text><text fill="#000000" font-family="sans-serif" font-size="13" lengthAdjust="spacingAndGlyphs" textLength="288" x="141.5" y="2037.2051">GET /oauth2/authorize {response_type=code}</text><text fill="#000000" font-family="sans-serif" font-size="13" lengthAdjust="spacingAndGlyphs" textLength="329" x="141.5" y="2052.5156">[SessionId HttpOnly w/ domain: login.fusionauth.io]</text><polygon fill="#56666F" points="108.5,2112.8789,98.5,2116.8789,108.5,2120.8789,104.5,2116.8789" style="stroke: #56666F; stroke-width: 1.0;"/><line style="stroke: #56666F; stroke-width: 1.0;" x1="102.5" x2="928.5" y1="2116.8789" y2="2116.8789"/><text fill="#000000" font-family="sans-serif" font-size="13" font-weight="bold" lengthAdjust="spacingAndGlyphs" textLength="18" x="119.5" y="2099.4814">31</text><text fill="#000000" font-family="sans-serif" font-size="13" lengthAdjust="spacingAndGlyphs" textLength="225" x="151.5" y="2091.8262">302 Location: {redirect_uri w/ code}</text><text fill="#000000" font-family="sans-serif" font-size="13" lengthAdjust="spacingAndGlyphs" textLength="329" x="151.5" y="2107.1367">[SessionId HttpOnly w/ domain: login.fusionauth.io]</text><polygon fill="#56666F" points="639.5,2152.1895,649.5,2156.1895,639.5,2160.1895,643.5,2156.1895" style="stroke: #56666F; stroke-width: 1.0;"/><line style="stroke: #56666F; stroke-width: 1.0;" x1="97.5" x2="645.5" y1="2156.1895" y2="2156.1895"/><text fill="#000000" font-family="sans-serif" font-size="13" font-weight="bold" lengthAdjust="spacingAndGlyphs" textLength="18" x="109.5" y="2146.4473">32</text><text fill="#000000" font-family="sans-serif" font-size="13" lengthAdjust="spacingAndGlyphs" textLength="163" x="141.5" y="2146.4473">GET {redirect_uri w/ code}</text><polygon fill="#56666F" points="917.5,2206.8105,927.5,2210.8105,917.5,2214.8105,921.5,2210.8105" style="stroke: #56666F; stroke-width: 1.0;"/><line style="stroke: #56666F; stroke-width: 1.0;" x1="651.5" x2="923.5" y1="2210.8105" y2="2210.8105"/><text fill="#000000" font-family="sans-serif" font-size="13" font-weight="bold" lengthAdjust="spacingAndGlyphs" textLength="18" x="663.5" y="2193.4131">33</text><text fill="#000000" font-family="sans-serif" font-size="13" lengthAdjust="spacingAndGlyphs" textLength="130" x="695.5" y="2185.7578">POST /oauth2/token</text><text fill="#000000" font-family="sans-serif" font-size="13" lengthAdjust="spacingAndGlyphs" textLength="126" x="695.5" y="2201.0684">(code, client_secret)</text><polygon fill="#56666F" points="662.5,2261.4316,652.5,2265.4316,662.5,2269.4316,658.5,2265.4316" style="stroke: #56666F; stroke-width: 1.0;"/><line style="stroke: #56666F; stroke-width: 1.0;" x1="656.5" x2="928.5" y1="2265.4316" y2="2265.4316"/><text fill="#000000" font-family="sans-serif" font-size="13" font-weight="bold" lengthAdjust="spacingAndGlyphs" textLength="18" x="673.5" y="2248.0342">34</text><text fill="#000000" font-family="sans-serif" font-size="13" lengthAdjust="spacingAndGlyphs" textLength="46" x="705.5" y="2240.3789">200 Ok</text><text fill="#000000" font-family="sans-serif" font-size="13" lengthAdjust="spacingAndGlyphs" textLength="149" x="705.5" y="2255.6895">(Refresh token and JWT)</text><polygon fill="#56666F" points="108.5,2316.0527,98.5,2320.0527,108.5,2324.0527,104.5,2320.0527" style="stroke: #56666F; stroke-width: 1.0;"/><line style="stroke: #56666F; stroke-width: 1.0;" x1="102.5" x2="650.5" y1="2320.0527" y2="2320.0527"/><text fill="#000000" font-family="sans-serif" font-size="13" font-weight="bold" lengthAdjust="spacingAndGlyphs" textLength="18" x="119.5" y="2302.6553">35</text><text fill="#000000" font-family="sans-serif" font-size="13" lengthAdjust="spacingAndGlyphs" textLength="97" x="151.5" y="2295">302 Location: /</text><text fill="#000000" font-family="sans-serif" font-size="13" lengthAdjust="spacingAndGlyphs" textLength="425" x="151.5" y="2310.3105">[Refresh token and JWT HttpOnly w/ domain: Forums.Example.com]</text><polygon fill="#56666F" points="639.5,2355.3633,649.5,2359.3633,639.5,2363.3633,643.5,2359.3633" style="stroke: #56666F; stroke-width: 1.0;"/><line style="stroke: #56666F; stroke-width: 1.0;" x1="97.5" x2="645.5" y1="2359.3633" y2="2359.3633"/><text fill="#000000" font-family="sans-serif" font-size="13" font-weight="bold" lengthAdjust="spacingAndGlyphs" textLength="18" x="109.5" y="2349.6211">36</text><text fill="#000000" font-family="sans-serif" font-size="13" lengthAdjust="spacingAndGlyphs" textLength="35" x="141.5" y="2349.6211">GET /</text><polygon fill="#56666F" points="108.5,2394.6738,98.5,2398.6738,108.5,2402.6738,104.5,2398.6738" style="stroke: #56666F; stroke-width: 1.0;"/><line style="stroke: #56666F; stroke-width: 1.0;" x1="102.5" x2="650.5" y1="2398.6738" y2="2398.6738"/><text fill="#000000" font-family="sans-serif" font-size="13" font-weight="bold" lengthAdjust="spacingAndGlyphs" textLength="18" x="119.5" y="2388.9316">37</text><text fill="#000000" font-family="sans-serif" font-size="13" lengthAdjust="spacingAndGlyphs" textLength="180" x="151.5" y="2388.9316">(SPA HTML, CSS &amp; JavaScript)</text><rect fill="#3F2C61" height="3" style="stroke: #3F2C61; stroke-width: 1.0;" width="1114" x="3" y="2432.3291"/><line style="stroke: #FFFFFF; stroke-width: 0.5;" x1="3" x2="1117" y1="2432.3291" y2="2432.3291"/><line style="stroke: #FFFFFF; stroke-width: 0.5;" x1="3" x2="1117" y1="2435.3291" y2="2435.3291"/><rect fill="#3F2C61" height="33.3105" style="stroke: #FFFFFF; stroke-width: 1.0;" width="104" x="508" y="2416.6738"/><text fill="#FFFFFF" font-family="sans-serif" font-size="13" font-weight="bold" lengthAdjust="spacingAndGlyphs" textLength="76" x="519" y="2438.2422">Forum load</text><polygon fill="#56666F" points="639.5,2502.6055,649.5,2506.6055,639.5,2510.6055,643.5,2506.6055" style="stroke: #56666F; stroke-width: 1.0;"/><line style="stroke: #56666F; stroke-width: 1.0;" x1="97.5" x2="645.5" y1="2506.6055" y2="2506.6055"/><text fill="#000000" font-family="sans-serif" font-size="13" font-weight="bold" lengthAdjust="spacingAndGlyphs" textLength="18" x="109.5" y="2489.208">38</text><text fill="#000000" font-family="sans-serif" font-size="13" lengthAdjust="spacingAndGlyphs" textLength="165" x="141.5" y="2481.5527">AJAX GET /api/load-posts</text><text fill="#000000" font-family="sans-serif" font-size="13" lengthAdjust="spacingAndGlyphs" textLength="425" x="141.5" y="2496.8633">[Refresh token and JWT HttpOnly w/ domain: Forums.Example.com]</text><polygon fill="#56666F" points="108.5,2541.916,98.5,2545.916,108.5,2549.916,104.5,2545.916" style="stroke: #56666F; stroke-width: 1.0;"/><line style="stroke: #56666F; stroke-width: 1.0;" x1="102.5" x2="650.5" y1="2545.916" y2="2545.916"/><text fill="#000000" font-family="sans-serif" font-size="13" font-weight="bold" lengthAdjust="spacingAndGlyphs" textLength="18" x="119.5" y="2536.1738">39</text><text fill="#000000" font-family="sans-serif" font-size="13" lengthAdjust="spacingAndGlyphs" textLength="87" x="151.5" y="2536.1738">(Forum posts)</text><path d="M62,2612.916 L62,2639.916 A4,4 0 0 0 66,2643.916 L1107,2643.916 A4,4 0 0 0 1111,2639.916 L1111,2618.916 L1101,2608.916 L66,2608.916 A4,4 0 0 0 62,2612.916 " fill="#8B80A1" style="stroke: #FFFFFF; stroke-width: 1.0;"/><path d="M1101,2608.916 L1101,2616.916 A2,2 0 0 0 1103,2618.916 L1111,2618.916 L1101,2608.916 " fill="#8B80A1" style="stroke: #FFFFFF; stroke-width: 1.0;"/><text fill="#FFFFFF" font-family="sans-serif" font-size="13" font-style="italic" lengthAdjust="spacingAndGlyphs" textLength="91" x="536.5" y="2631.4844">Attack vectors</text><rect fill="#3F2C61" height="3" style="stroke: #3F2C61; stroke-width: 1.0;" width="1114" x="3" y="2724.8818"/><line style="stroke: #FFFFFF; stroke-width: 0.5;" x1="3" x2="1117" y1="2724.8818" y2="2724.8818"/><line style="stroke: #FFFFFF; stroke-width: 0.5;" x1="3" x2="1117" y1="2727.8818" y2="2727.8818"/><rect fill="#3F2C61" height="33.3105" style="stroke: #FFFFFF; stroke-width: 1.0;" width="164" x="478" y="2709.2266"/><text fill="#FFFFFF" font-family="sans-serif" font-size="13" font-weight="bold" lengthAdjust="spacingAndGlyphs" textLength="136" x="489" y="2730.7949">Stolen refresh token</text><polygon fill="#56666F" points="584.5,2795.1582,574.5,2799.1582,584.5,2803.1582,580.5,2799.1582" style="stroke: #56666F; stroke-width: 1.0;"/><line style="stroke: #56666F; stroke-width: 1.0;" x1="578.5" x2="1075.5" y1="2799.1582" y2="2799.1582"/><text fill="#000000" font-family="sans-serif" font-size="13" font-weight="bold" lengthAdjust="spacingAndGlyphs" textLength="18" x="595.5" y="2781.7607">40</text><text fill="#000000" font-family="sans-serif" font-size="13" lengthAdjust="spacingAndGlyphs" textLength="187" x="627.5" y="2774.1055">GET /api/load-shopping-cart</text><text fill="#000000" font-family="sans-serif" font-size="13" lengthAdjust="spacingAndGlyphs" textLength="437" x="627.5" y="2789.416">[Refresh token and bad JWT HttpOnly w/ domain: Store.Example.com]</text><polygon fill="#56666F" points="917.5,2849.7793,927.5,2853.7793,917.5,2857.7793,921.5,2853.7793" style="stroke: #56666F; stroke-width: 1.0;"/><line style="stroke: #56666F; stroke-width: 1.0;" x1="573.5" x2="923.5" y1="2853.7793" y2="2853.7793"/><text fill="#000000" font-family="sans-serif" font-size="13" font-weight="bold" lengthAdjust="spacingAndGlyphs" textLength="18" x="585.5" y="2836.3818">41</text><text fill="#000000" font-family="sans-serif" font-size="13" lengthAdjust="spacingAndGlyphs" textLength="290" x="617.5" y="2828.7266">POST /oauth2/token or POST /api/jwt/refresh</text><text fill="#000000" font-family="sans-serif" font-size="13" lengthAdjust="spacingAndGlyphs" textLength="244" x="617.5" y="2844.0371">(grant_type=refresh and refresh token)</text><polygon fill="#56666F" points="584.5,2889.0898,574.5,2893.0898,584.5,2897.0898,580.5,2893.0898" style="stroke: #56666F; stroke-width: 1.0;"/><line style="stroke: #56666F; stroke-width: 1.0;" x1="578.5" x2="928.5" y1="2893.0898" y2="2893.0898"/><text fill="#000000" font-family="sans-serif" font-size="13" font-weight="bold" lengthAdjust="spacingAndGlyphs" textLength="18" x="595.5" y="2883.3477">42</text><text fill="#000000" font-family="sans-serif" font-size="13" lengthAdjust="spacingAndGlyphs" textLength="31" x="627.5" y="2883.3477">(JWT)</text><polygon fill="#56666F" points="1064.5,2943.7109,1074.5,2947.7109,1064.5,2951.7109,1068.5,2947.7109" style="stroke: #56666F; stroke-width: 1.0;"/><line style="stroke: #56666F; stroke-width: 1.0;" x1="573.5" x2="1070.5" y1="2947.7109" y2="2947.7109"/><text fill="#000000" font-family="sans-serif" font-size="13" font-weight="bold" lengthAdjust="spacingAndGlyphs" textLength="18" x="585.5" y="2930.3135">43</text><text fill="#000000" font-family="sans-serif" font-size="13" lengthAdjust="spacingAndGlyphs" textLength="154" x="617.5" y="2922.6582">(Shopping cart contents)</text><text fill="#000000" font-family="sans-serif" font-size="13" lengthAdjust="spacingAndGlyphs" textLength="323" x="617.5" y="2937.9688">[New JWT HttpOnly w/ domain: Store.Example.com]</text><rect fill="#3F2C61" height="3" style="stroke: #3F2C61; stroke-width: 1.0;" width="1114" x="3" y="2981.3662"/><line style="stroke: #FFFFFF; stroke-width: 0.5;" x1="3" x2="1117" y1="2981.3662" y2="2981.3662"/><line style="stroke: #FFFFFF; stroke-width: 0.5;" x1="3" x2="1117" y1="2984.3662" y2="2984.3662"/><rect fill="#3F2C61" height="33.3105" style="stroke: #FFFFFF; stroke-width: 1.0;" width="99" x="510.5" y="2965.7109"/><text fill="#FFFFFF" font-family="sans-serif" font-size="13" font-weight="bold" lengthAdjust="spacingAndGlyphs" textLength="71" x="521.5" y="2987.2793">Stolen JWT</text><polygon fill="#56666F" points="584.5,3051.6426,574.5,3055.6426,584.5,3059.6426,580.5,3055.6426" style="stroke: #56666F; stroke-width: 1.0;"/><line style="stroke: #56666F; stroke-width: 1.0;" x1="578.5" x2="1075.5" y1="3055.6426" y2="3055.6426"/><text fill="#000000" font-family="sans-serif" font-size="13" font-weight="bold" lengthAdjust="spacingAndGlyphs" textLength="18" x="595.5" y="3038.2451">44</text><text fill="#000000" font-family="sans-serif" font-size="13" lengthAdjust="spacingAndGlyphs" textLength="187" x="627.5" y="3030.5898">GET /api/load-shopping-cart</text><text fill="#000000" font-family="sans-serif" font-size="13" lengthAdjust="spacingAndGlyphs" textLength="292" x="627.5" y="3045.9004">[JWT HttpOnly w/ domain: Store.Example.com]</text><polygon fill="#56666F" points="1064.5,3090.9531,1074.5,3094.9531,1064.5,3098.9531,1068.5,3094.9531" style="stroke: #56666F; stroke-width: 1.0;"/><line style="stroke: #56666F; stroke-width: 1.0;" x1="573.5" x2="1070.5" y1="3094.9531" y2="3094.9531"/><text fill="#000000" font-family="sans-serif" font-size="13" font-weight="bold" lengthAdjust="spacingAndGlyphs" textLength="18" x="585.5" y="3085.2109">45</text><text fill="#000000" font-family="sans-serif" font-size="13" lengthAdjust="spacingAndGlyphs" textLength="154" x="617.5" y="3085.2109">(Shopping cart contents)</text></g></svg>