<?xml version="1.0" encoding="UTF-8" standalone="no"?><svg xmlns="http://www.w3.org/2000/svg" xmlns:xlink="http://www.w3.org/1999/xlink" contentScriptType="application/ecmascript" contentStyleType="text/css" height="2650px" preserveAspectRatio="none" style="width:1065px;height:2650px;" version="1.1" viewBox="0 0 1065 2650" width="1065px" zoomAndPan="magnify"><defs/><g><rect fill="#D8D8D8" height="40.4883" rx="4" ry="4" style="stroke: #979797; stroke-width: 1.0;" width="76" x="598.5" y="1494.8008"/><text fill="#000000" font-family="sans-serif" font-size="14" lengthAdjust="spacingAndGlyphs" textLength="52" x="610.5" y="1520.3359">Forums</text><line style="stroke: #CDCDCD; stroke-width: 1.0; stroke-dasharray: 5.0,5.0;" x1="75" x2="75" y1="44.4883" y2="2599.6738"/><line style="stroke: #CDCDCD; stroke-width: 1.0; stroke-dasharray: 5.0,5.0;" x1="470.5" x2="470.5" y1="44.4883" y2="2599.6738"/><line style="stroke: #CDCDCD; stroke-width: 1.0; stroke-dasharray: 5.0,5.0;" x1="636.5" x2="636.5" y1="1528.9785" y2="2599.6738"/><line style="stroke: #CDCDCD; stroke-width: 1.0; stroke-dasharray: 5.0,5.0;" x1="915" x2="915" y1="44.4883" y2="2599.6738"/><line style="stroke: #CDCDCD; stroke-width: 1.0; stroke-dasharray: 5.0,5.0;" x1="1012" x2="1012" y1="44.4883" y2="2599.6738"/><rect fill="#D8D8D8" height="40.4883" rx="4" ry="4" style="stroke: #979797; stroke-width: 1.0;" width="79" x="36" y="3"/><text fill="#000000" font-family="sans-serif" font-size="14" lengthAdjust="spacingAndGlyphs" textLength="55" x="48" y="28.5352">Browser</text><rect fill="#D8D8D8" height="40.4883" rx="4" ry="4" style="stroke: #979797; stroke-width: 1.0;" width="79" x="36" y="2598.6738"/><text fill="#000000" font-family="sans-serif" font-size="14" lengthAdjust="spacingAndGlyphs" textLength="55" x="48" y="2624.209">Browser</text><rect fill="#D8D8D8" height="40.4883" rx="4" ry="4" style="stroke: #979797; stroke-width: 1.0;" width="60" x="440.5" y="3"/><text fill="#000000" font-family="sans-serif" font-size="14" lengthAdjust="spacingAndGlyphs" textLength="36" x="452.5" y="28.5352">Store</text><rect fill="#D8D8D8" height="40.4883" rx="4" ry="4" style="stroke: #979797; stroke-width: 1.0;" width="60" x="440.5" y="2598.6738"/><text fill="#000000" font-family="sans-serif" font-size="14" lengthAdjust="spacingAndGlyphs" textLength="36" x="452.5" y="2624.209">Store</text><rect fill="#D8D8D8" height="40.4883" rx="4" ry="4" style="stroke: #979797; stroke-width: 1.0;" width="76" x="598.5" y="2598.6738"/><text fill="#000000" font-family="sans-serif" font-size="14" lengthAdjust="spacingAndGlyphs" textLength="52" x="610.5" y="2624.209">Forums</text><rect fill="#D8D8D8" height="40.4883" rx="4" ry="4" style="stroke: #979797; stroke-width: 1.0;" width="103" x="864" y="3"/><text fill="#000000" font-family="sans-serif" font-size="14" lengthAdjust="spacingAndGlyphs" textLength="79" x="876" y="28.5352">FusionAuth</text><rect fill="#D8D8D8" height="40.4883" rx="4" ry="4" style="stroke: #979797; stroke-width: 1.0;" width="103" x="864" y="2598.6738"/><text fill="#000000" font-family="sans-serif" font-size="14" lengthAdjust="spacingAndGlyphs" textLength="79" x="876" y="2624.209">FusionAuth</text><rect fill="#D8D8D8" height="40.4883" rx="4" ry="4" style="stroke: #979797; stroke-width: 1.0;" width="71" x="977" y="3"/><text fill="#000000" font-family="sans-serif" font-size="14" lengthAdjust="spacingAndGlyphs" textLength="47" x="989" y="28.5352">Hacker</text><rect fill="#D8D8D8" height="40.4883" rx="4" ry="4" style="stroke: #979797; stroke-width: 1.0;" width="71" x="977" y="2598.6738"/><text fill="#000000" font-family="sans-serif" font-size="14" lengthAdjust="spacingAndGlyphs" textLength="47" x="989" y="2624.209">Hacker</text><rect fill="#3F2C61" height="3" style="stroke: #3F2C61; stroke-width: 1.0;" width="1050" x="3" y="80.1436"/><line style="stroke: #FFFFFF; stroke-width: 0.5;" x1="3" x2="1053" y1="80.1436" y2="80.1436"/><line style="stroke: #FFFFFF; stroke-width: 0.5;" x1="3" x2="1053" y1="83.1436" y2="83.1436"/><rect fill="#3F2C61" height="33.3105" style="stroke: #FFFFFF; stroke-width: 1.0;" width="86" x="485" y="64.4883"/><text fill="#FFFFFF" font-family="sans-serif" font-size="13" font-weight="bold" lengthAdjust="spacingAndGlyphs" textLength="58" x="496" y="86.0566">Initialize</text><polygon fill="#56666F" points="458.5,135.1094,468.5,139.1094,458.5,143.1094,462.5,139.1094" style="stroke: #56666F; stroke-width: 1.0;"/><line style="stroke: #56666F; stroke-width: 1.0;" x1="75.5" x2="464.5" y1="139.1094" y2="139.1094"/><text fill="#000000" font-family="sans-serif" font-size="13" font-weight="bold" lengthAdjust="spacingAndGlyphs" textLength="9" x="87.5" y="129.3672">1</text><text fill="#000000" font-family="sans-serif" font-size="13" lengthAdjust="spacingAndGlyphs" textLength="35" x="110.5" y="129.3672">GET /</text><polygon fill="#56666F" points="86.5,174.4199,76.5,178.4199,86.5,182.4199,82.5,178.4199" style="stroke: #56666F; stroke-width: 1.0;"/><line style="stroke: #56666F; stroke-width: 1.0;" x1="80.5" x2="469.5" y1="178.4199" y2="178.4199"/><text fill="#000000" font-family="sans-serif" font-size="13" font-weight="bold" lengthAdjust="spacingAndGlyphs" textLength="9" x="97.5" y="168.6777">2</text><text fill="#000000" font-family="sans-serif" font-size="13" lengthAdjust="spacingAndGlyphs" textLength="180" x="120.5" y="168.6777">(SPA HTML, CSS &amp; JavaScript)</text><polygon fill="#56666F" points="458.5,229.041,468.5,233.041,458.5,237.041,462.5,233.041" style="stroke: #56666F; stroke-width: 1.0;"/><line style="stroke: #56666F; stroke-width: 1.0;" x1="75.5" x2="464.5" y1="233.041" y2="233.041"/><text fill="#000000" font-family="sans-serif" font-size="13" font-weight="bold" lengthAdjust="spacingAndGlyphs" textLength="9" x="87.5" y="215.6436">3</text><text fill="#000000" font-family="sans-serif" font-size="13" lengthAdjust="spacingAndGlyphs" textLength="122" x="110.5" y="207.9883">AJAX GET /api/user</text><text fill="#000000" font-family="sans-serif" font-size="13" lengthAdjust="spacingAndGlyphs" textLength="79" x="110.5" y="223.2988">[No cookies]</text><polygon fill="#EB8C52" points="86.5,268.3516,76.5,272.3516,86.5,276.3516,82.5,272.3516" style="stroke: #EB8C52; stroke-width: 1.0;"/><line style="stroke: #EB8C52; stroke-width: 1.0;" x1="80.5" x2="469.5" y1="272.3516" y2="272.3516"/><text fill="#000000" font-family="sans-serif" font-size="13" font-weight="bold" lengthAdjust="spacingAndGlyphs" textLength="9" x="97.5" y="262.6094">4</text><text fill="#EB8C52" font-family="sans-serif" font-size="13" lengthAdjust="spacingAndGlyphs" textLength="77" x="120.5" y="262.6094">404 Missing</text><rect fill="#3F2C61" height="3" style="stroke: #3F2C61; stroke-width: 1.0;" width="1050" x="3" y="306.0068"/><line style="stroke: #FFFFFF; stroke-width: 0.5;" x1="3" x2="1053" y1="306.0068" y2="306.0068"/><line style="stroke: #FFFFFF; stroke-width: 0.5;" x1="3" x2="1053" y1="309.0068" y2="309.0068"/><rect fill="#3F2C61" height="33.3105" style="stroke: #FFFFFF; stroke-width: 1.0;" width="309" x="373.5" y="290.3516"/><text fill="#FFFFFF" font-family="sans-serif" font-size="13" font-weight="bold" lengthAdjust="spacingAndGlyphs" textLength="281" x="384.5" y="311.9199">Login (browser navigates away from SPA)</text><polygon fill="#56666F" points="903.5,360.9727,913.5,364.9727,903.5,368.9727,907.5,364.9727" style="stroke: #56666F; stroke-width: 1.0;"/><line style="stroke: #56666F; stroke-width: 1.0;" x1="75.5" x2="909.5" y1="364.9727" y2="364.9727"/><text fill="#000000" font-family="sans-serif" font-size="13" font-weight="bold" lengthAdjust="spacingAndGlyphs" textLength="9" x="87.5" y="355.2305">5</text><text fill="#000000" font-family="sans-serif" font-size="13" lengthAdjust="spacingAndGlyphs" textLength="288" x="110.5" y="355.2305">GET /oauth2/authorize {response_type=code}</text><polygon fill="#56666F" points="86.5,400.2832,76.5,404.2832,86.5,408.2832,82.5,404.2832" style="stroke: #56666F; stroke-width: 1.0;"/><line style="stroke: #56666F; stroke-width: 1.0;" x1="80.5" x2="914.5" y1="404.2832" y2="404.2832"/><text fill="#000000" font-family="sans-serif" font-size="13" font-weight="bold" lengthAdjust="spacingAndGlyphs" textLength="9" x="97.5" y="394.541">6</text><text fill="#000000" font-family="sans-serif" font-size="13" lengthAdjust="spacingAndGlyphs" textLength="117" x="120.5" y="394.541">(Login form HTML)</text><polygon fill="#56666F" points="903.5,454.9043,913.5,458.9043,903.5,462.9043,907.5,458.9043" style="stroke: #56666F; stroke-width: 1.0;"/><line style="stroke: #56666F; stroke-width: 1.0;" x1="75.5" x2="909.5" y1="458.9043" y2="458.9043"/><text fill="#000000" font-family="sans-serif" font-size="13" font-weight="bold" lengthAdjust="spacingAndGlyphs" textLength="9" x="87.5" y="441.5068">7</text><text fill="#000000" font-family="sans-serif" font-size="13" lengthAdjust="spacingAndGlyphs" textLength="153" x="110.5" y="433.8516">POST /oauth2/authorize</text><text fill="#000000" font-family="sans-serif" font-size="13" lengthAdjust="spacingAndGlyphs" textLength="139" x="110.5" y="449.1621">(response_type=code)</text><polygon fill="#56666F" points="86.5,509.5254,76.5,513.5254,86.5,517.5254,82.5,513.5254" style="stroke: #56666F; stroke-width: 1.0;"/><line style="stroke: #56666F; stroke-width: 1.0;" x1="80.5" x2="914.5" y1="513.5254" y2="513.5254"/><text fill="#000000" font-family="sans-serif" font-size="13" font-weight="bold" lengthAdjust="spacingAndGlyphs" textLength="9" x="97.5" y="496.1279">8</text><text fill="#000000" font-family="sans-serif" font-size="13" lengthAdjust="spacingAndGlyphs" textLength="225" x="120.5" y="488.4727">302 Location: {redirect_uri w/ code}</text><text fill="#000000" font-family="sans-serif" font-size="13" lengthAdjust="spacingAndGlyphs" textLength="329" x="120.5" y="503.7832">[SessionId HttpOnly w/ domain: login.fusionauth.io]</text><polygon fill="#56666F" points="458.5,548.8359,468.5,552.8359,458.5,556.8359,462.5,552.8359" style="stroke: #56666F; stroke-width: 1.0;"/><line style="stroke: #56666F; stroke-width: 1.0;" x1="75.5" x2="464.5" y1="552.8359" y2="552.8359"/><text fill="#000000" font-family="sans-serif" font-size="13" font-weight="bold" lengthAdjust="spacingAndGlyphs" textLength="9" x="87.5" y="543.0938">9</text><text fill="#000000" font-family="sans-serif" font-size="13" lengthAdjust="spacingAndGlyphs" textLength="163" x="110.5" y="543.0938">GET {redirect_uri w/ code}</text><polygon fill="#56666F" points="903.5,603.457,913.5,607.457,903.5,611.457,907.5,607.457" style="stroke: #56666F; stroke-width: 1.0;"/><line style="stroke: #56666F; stroke-width: 1.0;" x1="470.5" x2="909.5" y1="607.457" y2="607.457"/><text fill="#000000" font-family="sans-serif" font-size="13" font-weight="bold" lengthAdjust="spacingAndGlyphs" textLength="18" x="482.5" y="590.0596">10</text><text fill="#000000" font-family="sans-serif" font-size="13" lengthAdjust="spacingAndGlyphs" textLength="130" x="514.5" y="582.4043">POST /oauth2/token</text><text fill="#000000" font-family="sans-serif" font-size="13" lengthAdjust="spacingAndGlyphs" textLength="126" x="514.5" y="597.7148">(code, client_secret)</text><polygon fill="#56666F" points="481.5,658.0781,471.5,662.0781,481.5,666.0781,477.5,662.0781" style="stroke: #56666F; stroke-width: 1.0;"/><line style="stroke: #56666F; stroke-width: 1.0;" x1="475.5" x2="914.5" y1="662.0781" y2="662.0781"/><text fill="#000000" font-family="sans-serif" font-size="13" font-weight="bold" lengthAdjust="spacingAndGlyphs" textLength="18" x="492.5" y="644.6807">11</text><text fill="#000000" font-family="sans-serif" font-size="13" lengthAdjust="spacingAndGlyphs" textLength="46" x="524.5" y="637.0254">200 Ok</text><text fill="#000000" font-family="sans-serif" font-size="13" lengthAdjust="spacingAndGlyphs" textLength="213" x="524.5" y="652.3359">(Refresh token and JWT - ignored)</text><polygon fill="#56666F" points="86.5,712.6992,76.5,716.6992,86.5,720.6992,82.5,716.6992" style="stroke: #56666F; stroke-width: 1.0;"/><line style="stroke: #56666F; stroke-width: 1.0;" x1="80.5" x2="469.5" y1="716.6992" y2="716.6992"/><text fill="#000000" font-family="sans-serif" font-size="13" font-weight="bold" lengthAdjust="spacingAndGlyphs" textLength="18" x="97.5" y="699.3018">12</text><text fill="#000000" font-family="sans-serif" font-size="13" lengthAdjust="spacingAndGlyphs" textLength="97" x="129.5" y="691.6465">302 Location: /</text><text fill="#000000" font-family="sans-serif" font-size="13" lengthAdjust="spacingAndGlyphs" textLength="329" x="129.5" y="706.957">[SessionId HttpOnly w/ domain: Store.Example.com]</text><polygon fill="#56666F" points="458.5,752.0098,468.5,756.0098,458.5,760.0098,462.5,756.0098" style="stroke: #56666F; stroke-width: 1.0;"/><line style="stroke: #56666F; stroke-width: 1.0;" x1="75.5" x2="464.5" y1="756.0098" y2="756.0098"/><text fill="#000000" font-family="sans-serif" font-size="13" font-weight="bold" lengthAdjust="spacingAndGlyphs" textLength="18" x="87.5" y="746.2676">13</text><text fill="#000000" font-family="sans-serif" font-size="13" lengthAdjust="spacingAndGlyphs" textLength="35" x="119.5" y="746.2676">GET /</text><polygon fill="#56666F" points="86.5,791.3203,76.5,795.3203,86.5,799.3203,82.5,795.3203" style="stroke: #56666F; stroke-width: 1.0;"/><line style="stroke: #56666F; stroke-width: 1.0;" x1="80.5" x2="469.5" y1="795.3203" y2="795.3203"/><text fill="#000000" font-family="sans-serif" font-size="13" font-weight="bold" lengthAdjust="spacingAndGlyphs" textLength="18" x="97.5" y="785.5781">14</text><text fill="#000000" font-family="sans-serif" font-size="13" lengthAdjust="spacingAndGlyphs" textLength="180" x="129.5" y="785.5781">(SPA HTML, CSS &amp; JavaScript)</text><rect fill="#3F2C61" height="3" style="stroke: #3F2C61; stroke-width: 1.0;" width="1050" x="3" y="828.9756"/><line style="stroke: #FFFFFF; stroke-width: 0.5;" x1="3" x2="1053" y1="828.9756" y2="828.9756"/><line style="stroke: #FFFFFF; stroke-width: 0.5;" x1="3" x2="1053" y1="831.9756" y2="831.9756"/><rect fill="#3F2C61" height="33.3105" style="stroke: #FFFFFF; stroke-width: 1.0;" width="155" x="450.5" y="813.3203"/><text fill="#FFFFFF" font-family="sans-serif" font-size="13" font-weight="bold" lengthAdjust="spacingAndGlyphs" textLength="127" x="461.5" y="834.8887">Shopping cart load</text><polygon fill="#56666F" points="458.5,899.252,468.5,903.252,458.5,907.252,462.5,903.252" style="stroke: #56666F; stroke-width: 1.0;"/><line style="stroke: #56666F; stroke-width: 1.0;" x1="75.5" x2="464.5" y1="903.252" y2="903.252"/><text fill="#000000" font-family="sans-serif" font-size="13" font-weight="bold" lengthAdjust="spacingAndGlyphs" textLength="18" x="87.5" y="885.8545">15</text><text fill="#000000" font-family="sans-serif" font-size="13" lengthAdjust="spacingAndGlyphs" textLength="221" x="119.5" y="878.1992">AJAX GET /api/load-shopping-cart</text><text fill="#000000" font-family="sans-serif" font-size="13" lengthAdjust="spacingAndGlyphs" textLength="329" x="119.5" y="893.5098">[SessionId HttpOnly w/ domain: Store.Example.com]</text><line style="stroke: #56666F; stroke-width: 1.0;" x1="470.5" x2="512.5" y1="942.5625" y2="942.5625"/><line style="stroke: #56666F; stroke-width: 1.0;" x1="512.5" x2="512.5" y1="942.5625" y2="955.5625"/><line style="stroke: #56666F; stroke-width: 1.0;" x1="471.5" x2="512.5" y1="955.5625" y2="955.5625"/><polygon fill="#56666F" points="481.5,951.5625,471.5,955.5625,481.5,959.5625,477.5,955.5625" style="stroke: #56666F; stroke-width: 1.0;"/><text fill="#000000" font-family="sans-serif" font-size="13" font-weight="bold" lengthAdjust="spacingAndGlyphs" textLength="18" x="482.5" y="932.8203">16</text><text fill="#000000" font-family="sans-serif" font-size="13" lengthAdjust="spacingAndGlyphs" textLength="110" x="514.5" y="932.8203">Session extended</text><polygon fill="#56666F" points="86.5,990.873,76.5,994.873,86.5,998.873,82.5,994.873" style="stroke: #56666F; stroke-width: 1.0;"/><line style="stroke: #56666F; stroke-width: 1.0;" x1="80.5" x2="469.5" y1="994.873" y2="994.873"/><text fill="#000000" font-family="sans-serif" font-size="13" font-weight="bold" lengthAdjust="spacingAndGlyphs" textLength="18" x="97.5" y="985.1309">17</text><text fill="#000000" font-family="sans-serif" font-size="13" lengthAdjust="spacingAndGlyphs" textLength="154" x="129.5" y="985.1309">(Shopping cart contents)</text><path d="M8,1011.873 L8,1038.873 A4,4 0 0 0 12,1042.873 L139,1042.873 A4,4 0 0 0 143,1038.873 L143,1017.873 L133,1007.873 L12,1007.873 A4,4 0 0 0 8,1011.873 " fill="#EB8C52" style="stroke: #FFFFFF; stroke-width: 1.0;"/><path d="M133,1007.873 L133,1015.873 A2,2 0 0 0 135,1017.873 L143,1017.873 L133,1007.873 " fill="#EB8C52" style="stroke: #FFFFFF; stroke-width: 1.0;"/><text fill="#FFFFFF" font-family="sans-serif" font-size="13" font-style="italic" font-weight="bold" lengthAdjust="spacingAndGlyphs" textLength="104" x="19" y="1030.4414">Session expires</text><rect fill="#3F2C61" height="3" style="stroke: #3F2C61; stroke-width: 1.0;" width="1050" x="3" y="1073.8389"/><line style="stroke: #FFFFFF; stroke-width: 0.5;" x1="3" x2="1053" y1="1073.8389" y2="1073.8389"/><line style="stroke: #FFFFFF; stroke-width: 0.5;" x1="3" x2="1053" y1="1076.8389" y2="1076.8389"/><rect fill="#3F2C61" height="33.3105" style="stroke: #FFFFFF; stroke-width: 1.0;" width="87" x="484.5" y="1058.1836"/><text fill="#FFFFFF" font-family="sans-serif" font-size="13" font-weight="bold" lengthAdjust="spacingAndGlyphs" textLength="59" x="495.5" y="1079.752">Re-login</text><polygon fill="#56666F" points="458.5,1144.1152,468.5,1148.1152,458.5,1152.1152,462.5,1148.1152" style="stroke: #56666F; stroke-width: 1.0;"/><line style="stroke: #56666F; stroke-width: 1.0;" x1="75.5" x2="464.5" y1="1148.1152" y2="1148.1152"/><text fill="#000000" font-family="sans-serif" font-size="13" font-weight="bold" lengthAdjust="spacingAndGlyphs" textLength="18" x="87.5" y="1130.7178">18</text><text fill="#000000" font-family="sans-serif" font-size="13" lengthAdjust="spacingAndGlyphs" textLength="221" x="119.5" y="1123.0625">AJAX GET /api/load-shopping-cart</text><text fill="#000000" font-family="sans-serif" font-size="13" lengthAdjust="spacingAndGlyphs" textLength="329" x="119.5" y="1138.373">[SessionId HttpOnly w/ domain: Store.Example.com]</text><polygon fill="#EB8C52" points="86.5,1183.4258,76.5,1187.4258,86.5,1191.4258,82.5,1187.4258" style="stroke: #EB8C52; stroke-width: 1.0;"/><line style="stroke: #EB8C52; stroke-width: 1.0;" x1="80.5" x2="469.5" y1="1187.4258" y2="1187.4258"/><text fill="#000000" font-family="sans-serif" font-size="13" font-weight="bold" lengthAdjust="spacingAndGlyphs" textLength="18" x="97.5" y="1177.6836">19</text><text fill="#EB8C52" font-family="sans-serif" font-size="13" lengthAdjust="spacingAndGlyphs" textLength="124" x="129.5" y="1177.6836">401 Not Authorized</text><line style="stroke: #56666F; stroke-width: 1.0;" x1="75.5" x2="117.5" y1="1226.7363" y2="1226.7363"/><line style="stroke: #56666F; stroke-width: 1.0;" x1="117.5" x2="117.5" y1="1226.7363" y2="1239.7363"/><line style="stroke: #56666F; stroke-width: 1.0;" x1="76.5" x2="117.5" y1="1239.7363" y2="1239.7363"/><polygon fill="#56666F" points="86.5,1235.7363,76.5,1239.7363,86.5,1243.7363,82.5,1239.7363" style="stroke: #56666F; stroke-width: 1.0;"/><text fill="#000000" font-family="sans-serif" font-size="13" font-weight="bold" lengthAdjust="spacingAndGlyphs" textLength="18" x="87.5" y="1216.9941">20</text><text fill="#000000" font-family="sans-serif" font-size="13" lengthAdjust="spacingAndGlyphs" textLength="131" x="119.5" y="1216.9941">Login same as above</text><path d="M8,1256.7363 L8,1283.7363 A4,4 0 0 0 12,1287.7363 L139,1287.7363 A4,4 0 0 0 143,1283.7363 L143,1262.7363 L133,1252.7363 L12,1252.7363 A4,4 0 0 0 8,1256.7363 " fill="#EB8C52" style="stroke: #FFFFFF; stroke-width: 1.0;"/><path d="M133,1252.7363 L133,1260.7363 A2,2 0 0 0 135,1262.7363 L143,1262.7363 L133,1252.7363 " fill="#EB8C52" style="stroke: #FFFFFF; stroke-width: 1.0;"/><text fill="#FFFFFF" font-family="sans-serif" font-size="13" font-style="italic" font-weight="bold" lengthAdjust="spacingAndGlyphs" textLength="104" x="19" y="1275.3047">Session expires</text><path d="M40,1352.0469 L40,1379.0469 A4,4 0 0 0 44,1383.0469 L1043,1383.0469 A4,4 0 0 0 1047,1379.0469 L1047,1358.0469 L1037,1348.0469 L44,1348.0469 A4,4 0 0 0 40,1352.0469 " fill="#8B80A1" style="stroke: #FFFFFF; stroke-width: 1.0;"/><path d="M1037,1348.0469 L1037,1356.0469 A2,2 0 0 0 1039,1358.0469 L1047,1358.0469 L1037,1348.0469 " fill="#8B80A1" style="stroke: #FFFFFF; stroke-width: 1.0;"/><text fill="#FFFFFF" font-family="sans-serif" font-size="13" font-style="italic" lengthAdjust="spacingAndGlyphs" textLength="126" x="476" y="1370.6152">SSO login to forums</text><rect fill="#3F2C61" height="3" style="stroke: #3F2C61; stroke-width: 1.0;" width="1050" x="3" y="1464.0127"/><line style="stroke: #FFFFFF; stroke-width: 0.5;" x1="3" x2="1053" y1="1464.0127" y2="1464.0127"/><line style="stroke: #FFFFFF; stroke-width: 0.5;" x1="3" x2="1053" y1="1467.0127" y2="1467.0127"/><rect fill="#3F2C61" height="33.3105" style="stroke: #FFFFFF; stroke-width: 1.0;" width="86" x="485" y="1448.3574"/><text fill="#FFFFFF" font-family="sans-serif" font-size="13" font-weight="bold" lengthAdjust="spacingAndGlyphs" textLength="58" x="496" y="1469.9258">Initialize</text><polygon fill="#56666F" points="586.5,1534.2891,596.5,1538.2891,586.5,1542.2891,590.5,1538.2891" style="stroke: #56666F; stroke-width: 1.0;"/><line style="stroke: #56666F; stroke-width: 1.0;" x1="75.5" x2="592.5" y1="1538.2891" y2="1538.2891"/><text fill="#000000" font-family="sans-serif" font-size="13" font-weight="bold" lengthAdjust="spacingAndGlyphs" textLength="18" x="87.5" y="1520.8916">21</text><text fill="#000000" font-family="sans-serif" font-size="13" lengthAdjust="spacingAndGlyphs" textLength="35" x="119.5" y="1513.2363">GET /</text><text fill="#000000" font-family="sans-serif" font-size="13" lengthAdjust="spacingAndGlyphs" textLength="79" x="119.5" y="1528.5469">[No cookies]</text><rect fill="#D8D8D8" height="40.4883" rx="4" ry="4" style="stroke: #979797; stroke-width: 1.0;" width="76" x="598.5" y="1494.8008"/><text fill="#000000" font-family="sans-serif" font-size="14" lengthAdjust="spacingAndGlyphs" textLength="52" x="610.5" y="1520.3359">Forums</text><polygon fill="#56666F" points="86.5,1573.5996,76.5,1577.5996,86.5,1581.5996,82.5,1577.5996" style="stroke: #56666F; stroke-width: 1.0;"/><line style="stroke: #56666F; stroke-width: 1.0;" x1="80.5" x2="635.5" y1="1577.5996" y2="1577.5996"/><text fill="#000000" font-family="sans-serif" font-size="13" font-weight="bold" lengthAdjust="spacingAndGlyphs" textLength="18" x="97.5" y="1567.8574">22</text><text fill="#000000" font-family="sans-serif" font-size="13" lengthAdjust="spacingAndGlyphs" textLength="180" x="129.5" y="1567.8574">(SPA HTML, CSS &amp; JavaScript)</text><polygon fill="#56666F" points="624.5,1628.2207,634.5,1632.2207,624.5,1636.2207,628.5,1632.2207" style="stroke: #56666F; stroke-width: 1.0;"/><line style="stroke: #56666F; stroke-width: 1.0;" x1="75.5" x2="630.5" y1="1632.2207" y2="1632.2207"/><text fill="#000000" font-family="sans-serif" font-size="13" font-weight="bold" lengthAdjust="spacingAndGlyphs" textLength="18" x="87.5" y="1614.8232">23</text><text fill="#000000" font-family="sans-serif" font-size="13" lengthAdjust="spacingAndGlyphs" textLength="88" x="119.5" y="1607.168">GET /api/user</text><text fill="#000000" font-family="sans-serif" font-size="13" lengthAdjust="spacingAndGlyphs" textLength="79" x="119.5" y="1622.4785">[No cookies]</text><polygon fill="#EB8C52" points="86.5,1667.5313,76.5,1671.5313,86.5,1675.5313,82.5,1671.5313" style="stroke: #EB8C52; stroke-width: 1.0;"/><line style="stroke: #EB8C52; stroke-width: 1.0;" x1="80.5" x2="635.5" y1="1671.5313" y2="1671.5313"/><text fill="#000000" font-family="sans-serif" font-size="13" font-weight="bold" lengthAdjust="spacingAndGlyphs" textLength="18" x="97.5" y="1661.7891">24</text><text fill="#EB8C52" font-family="sans-serif" font-size="13" lengthAdjust="spacingAndGlyphs" textLength="77" x="129.5" y="1661.7891">404 Missing</text><rect fill="#3F2C61" height="3" style="stroke: #3F2C61; stroke-width: 1.0;" width="1050" x="3" y="1705.1865"/><line style="stroke: #FFFFFF; stroke-width: 0.5;" x1="3" x2="1053" y1="1705.1865" y2="1705.1865"/><line style="stroke: #FFFFFF; stroke-width: 0.5;" x1="3" x2="1053" y1="1708.1865" y2="1708.1865"/><rect fill="#3F2C61" height="33.3105" style="stroke: #FFFFFF; stroke-width: 1.0;" width="589" x="233.5" y="1689.5313"/><text fill="#FFFFFF" font-family="sans-serif" font-size="13" font-weight="bold" lengthAdjust="spacingAndGlyphs" textLength="561" x="244.5" y="1711.0996">Login (browser navigates away from SPA but auto-logs-in since the session exists)</text><polygon fill="#56666F" points="903.5,1775.4629,913.5,1779.4629,903.5,1783.4629,907.5,1779.4629" style="stroke: #56666F; stroke-width: 1.0;"/><line style="stroke: #56666F; stroke-width: 1.0;" x1="75.5" x2="909.5" y1="1779.4629" y2="1779.4629"/><text fill="#000000" font-family="sans-serif" font-size="13" font-weight="bold" lengthAdjust="spacingAndGlyphs" textLength="18" x="87.5" y="1762.0654">25</text><text fill="#000000" font-family="sans-serif" font-size="13" lengthAdjust="spacingAndGlyphs" textLength="288" x="119.5" y="1754.4102">GET /oauth2/authorize {response_type=code}</text><text fill="#000000" font-family="sans-serif" font-size="13" lengthAdjust="spacingAndGlyphs" textLength="329" x="119.5" y="1769.7207">[SessionId HttpOnly w/ domain: login.fusionauth.io]</text><polygon fill="#56666F" points="86.5,1830.084,76.5,1834.084,86.5,1838.084,82.5,1834.084" style="stroke: #56666F; stroke-width: 1.0;"/><line style="stroke: #56666F; stroke-width: 1.0;" x1="80.5" x2="914.5" y1="1834.084" y2="1834.084"/><text fill="#000000" font-family="sans-serif" font-size="13" font-weight="bold" lengthAdjust="spacingAndGlyphs" textLength="18" x="97.5" y="1816.6865">26</text><text fill="#000000" font-family="sans-serif" font-size="13" lengthAdjust="spacingAndGlyphs" textLength="225" x="129.5" y="1809.0313">302 Location: {redirect_uri w/ code}</text><text fill="#000000" font-family="sans-serif" font-size="13" lengthAdjust="spacingAndGlyphs" textLength="329" x="129.5" y="1824.3418">[SessionId HttpOnly w/ domain: login.fusionauth.io]</text><polygon fill="#56666F" points="624.5,1869.3945,634.5,1873.3945,624.5,1877.3945,628.5,1873.3945" style="stroke: #56666F; stroke-width: 1.0;"/><line style="stroke: #56666F; stroke-width: 1.0;" x1="75.5" x2="630.5" y1="1873.3945" y2="1873.3945"/><text fill="#000000" font-family="sans-serif" font-size="13" font-weight="bold" lengthAdjust="spacingAndGlyphs" textLength="18" x="87.5" y="1863.6523">27</text><text fill="#000000" font-family="sans-serif" font-size="13" lengthAdjust="spacingAndGlyphs" textLength="163" x="119.5" y="1863.6523">GET {redirect_uri w/ code}</text><polygon fill="#56666F" points="903.5,1924.0156,913.5,1928.0156,903.5,1932.0156,907.5,1928.0156" style="stroke: #56666F; stroke-width: 1.0;"/><line style="stroke: #56666F; stroke-width: 1.0;" x1="636.5" x2="909.5" y1="1928.0156" y2="1928.0156"/><text fill="#000000" font-family="sans-serif" font-size="13" font-weight="bold" lengthAdjust="spacingAndGlyphs" textLength="18" x="648.5" y="1910.6182">28</text><text fill="#000000" font-family="sans-serif" font-size="13" lengthAdjust="spacingAndGlyphs" textLength="130" x="680.5" y="1902.9629">POST /oauth2/token</text><text fill="#000000" font-family="sans-serif" font-size="13" lengthAdjust="spacingAndGlyphs" textLength="126" x="680.5" y="1918.2734">(code, client_secret)</text><polygon fill="#56666F" points="647.5,1978.6367,637.5,1982.6367,647.5,1986.6367,643.5,1982.6367" style="stroke: #56666F; stroke-width: 1.0;"/><line style="stroke: #56666F; stroke-width: 1.0;" x1="641.5" x2="914.5" y1="1982.6367" y2="1982.6367"/><text fill="#000000" font-family="sans-serif" font-size="13" font-weight="bold" lengthAdjust="spacingAndGlyphs" textLength="18" x="658.5" y="1965.2393">29</text><text fill="#000000" font-family="sans-serif" font-size="13" lengthAdjust="spacingAndGlyphs" textLength="46" x="690.5" y="1957.584">200 Ok</text><text fill="#000000" font-family="sans-serif" font-size="13" lengthAdjust="spacingAndGlyphs" textLength="213" x="690.5" y="1972.8945">(Refresh token and JWT - ignored)</text><polygon fill="#56666F" points="86.5,2033.2578,76.5,2037.2578,86.5,2041.2578,82.5,2037.2578" style="stroke: #56666F; stroke-width: 1.0;"/><line style="stroke: #56666F; stroke-width: 1.0;" x1="80.5" x2="635.5" y1="2037.2578" y2="2037.2578"/><text fill="#000000" font-family="sans-serif" font-size="13" font-weight="bold" lengthAdjust="spacingAndGlyphs" textLength="18" x="97.5" y="2019.8604">30</text><text fill="#000000" font-family="sans-serif" font-size="13" lengthAdjust="spacingAndGlyphs" textLength="180" x="129.5" y="2012.2051">(SPA HTML, CSS &amp; JavaScript)</text><text fill="#000000" font-family="sans-serif" font-size="13" lengthAdjust="spacingAndGlyphs" textLength="329" x="129.5" y="2027.5156">[SessionId HttpOnly w/ domain: Store.Example.com]</text><rect fill="#3F2C61" height="3" style="stroke: #3F2C61; stroke-width: 1.0;" width="1050" x="3" y="2070.9131"/><line style="stroke: #FFFFFF; stroke-width: 0.5;" x1="3" x2="1053" y1="2070.9131" y2="2070.9131"/><line style="stroke: #FFFFFF; stroke-width: 0.5;" x1="3" x2="1053" y1="2073.9131" y2="2073.9131"/><rect fill="#3F2C61" height="33.3105" style="stroke: #FFFFFF; stroke-width: 1.0;" width="104" x="476" y="2055.2578"/><text fill="#FFFFFF" font-family="sans-serif" font-size="13" font-weight="bold" lengthAdjust="spacingAndGlyphs" textLength="76" x="487" y="2076.8262">Forum load</text><polygon fill="#56666F" points="624.5,2141.1895,634.5,2145.1895,624.5,2149.1895,628.5,2145.1895" style="stroke: #56666F; stroke-width: 1.0;"/><line style="stroke: #56666F; stroke-width: 1.0;" x1="75.5" x2="630.5" y1="2145.1895" y2="2145.1895"/><text fill="#000000" font-family="sans-serif" font-size="13" font-weight="bold" lengthAdjust="spacingAndGlyphs" textLength="18" x="87.5" y="2127.792">31</text><text fill="#000000" font-family="sans-serif" font-size="13" lengthAdjust="spacingAndGlyphs" textLength="165" x="119.5" y="2120.1367">AJAX GET /api/load-posts</text><text fill="#000000" font-family="sans-serif" font-size="13" lengthAdjust="spacingAndGlyphs" textLength="344" x="119.5" y="2135.4473">[SessionId HttpOnly w/ domain: Forums.Example.com]</text><line style="stroke: #56666F; stroke-width: 1.0;" x1="636.5" x2="678.5" y1="2184.5" y2="2184.5"/><line style="stroke: #56666F; stroke-width: 1.0;" x1="678.5" x2="678.5" y1="2184.5" y2="2197.5"/><line style="stroke: #56666F; stroke-width: 1.0;" x1="637.5" x2="678.5" y1="2197.5" y2="2197.5"/><polygon fill="#56666F" points="647.5,2193.5,637.5,2197.5,647.5,2201.5,643.5,2197.5" style="stroke: #56666F; stroke-width: 1.0;"/><text fill="#000000" font-family="sans-serif" font-size="13" font-weight="bold" lengthAdjust="spacingAndGlyphs" textLength="18" x="648.5" y="2174.7578">32</text><text fill="#000000" font-family="sans-serif" font-size="13" lengthAdjust="spacingAndGlyphs" textLength="110" x="680.5" y="2174.7578">Session extended</text><polygon fill="#56666F" points="86.5,2232.8105,76.5,2236.8105,86.5,2240.8105,82.5,2236.8105" style="stroke: #56666F; stroke-width: 1.0;"/><line style="stroke: #56666F; stroke-width: 1.0;" x1="80.5" x2="635.5" y1="2236.8105" y2="2236.8105"/><text fill="#000000" font-family="sans-serif" font-size="13" font-weight="bold" lengthAdjust="spacingAndGlyphs" textLength="18" x="97.5" y="2227.0684">33</text><text fill="#000000" font-family="sans-serif" font-size="13" lengthAdjust="spacingAndGlyphs" textLength="87" x="129.5" y="2227.0684">(Forum posts)</text><path d="M40,2303.8105 L40,2330.8105 A4,4 0 0 0 44,2334.8105 L1043,2334.8105 A4,4 0 0 0 1047,2330.8105 L1047,2309.8105 L1037,2299.8105 L44,2299.8105 A4,4 0 0 0 40,2303.8105 " fill="#8B80A1" style="stroke: #FFFFFF; stroke-width: 1.0;"/><path d="M1037,2299.8105 L1037,2307.8105 A2,2 0 0 0 1039,2309.8105 L1047,2309.8105 L1037,2299.8105 " fill="#8B80A1" style="stroke: #FFFFFF; stroke-width: 1.0;"/><text fill="#FFFFFF" font-family="sans-serif" font-size="13" font-style="italic" lengthAdjust="spacingAndGlyphs" textLength="91" x="493.5" y="2322.3789">Attack vectors</text><rect fill="#3F2C61" height="3" style="stroke: #3F2C61; stroke-width: 1.0;" width="1050" x="3" y="2415.7764"/><line style="stroke: #FFFFFF; stroke-width: 0.5;" x1="3" x2="1053" y1="2415.7764" y2="2415.7764"/><line style="stroke: #FFFFFF; stroke-width: 0.5;" x1="3" x2="1053" y1="2418.7764" y2="2418.7764"/><rect fill="#3F2C61" height="33.3105" style="stroke: #FFFFFF; stroke-width: 1.0;" width="140" x="458" y="2400.1211"/><text fill="#FFFFFF" font-family="sans-serif" font-size="13" font-weight="bold" lengthAdjust="spacingAndGlyphs" textLength="112" x="469" y="2421.6895">Stolen session id</text><polygon fill="#56666F" points="481.5,2486.0527,471.5,2490.0527,481.5,2494.0527,477.5,2490.0527" style="stroke: #56666F; stroke-width: 1.0;"/><line style="stroke: #56666F; stroke-width: 1.0;" x1="475.5" x2="1011.5" y1="2490.0527" y2="2490.0527"/><text fill="#000000" font-family="sans-serif" font-size="13" font-weight="bold" lengthAdjust="spacingAndGlyphs" textLength="18" x="492.5" y="2472.6553">34</text><text fill="#000000" font-family="sans-serif" font-size="13" lengthAdjust="spacingAndGlyphs" textLength="187" x="524.5" y="2465">GET /api/load-shopping-cart</text><text fill="#000000" font-family="sans-serif" font-size="13" lengthAdjust="spacingAndGlyphs" textLength="329" x="524.5" y="2480.3105">[SessionId HttpOnly w/ domain: Store.Example.com]</text><line style="stroke: #56666F; stroke-width: 1.0;" x1="470.5" x2="512.5" y1="2529.3633" y2="2529.3633"/><line style="stroke: #56666F; stroke-width: 1.0;" x1="512.5" x2="512.5" y1="2529.3633" y2="2542.3633"/><line style="stroke: #56666F; stroke-width: 1.0;" x1="471.5" x2="512.5" y1="2542.3633" y2="2542.3633"/><polygon fill="#56666F" points="481.5,2538.3633,471.5,2542.3633,481.5,2546.3633,477.5,2542.3633" style="stroke: #56666F; stroke-width: 1.0;"/><text fill="#000000" font-family="sans-serif" font-size="13" font-weight="bold" lengthAdjust="spacingAndGlyphs" textLength="18" x="482.5" y="2519.6211">35</text><text fill="#000000" font-family="sans-serif" font-size="13" lengthAdjust="spacingAndGlyphs" textLength="110" x="514.5" y="2519.6211">Session extended</text><polygon fill="#56666F" points="1000.5,2577.6738,1010.5,2581.6738,1000.5,2585.6738,1004.5,2581.6738" style="stroke: #56666F; stroke-width: 1.0;"/><line style="stroke: #56666F; stroke-width: 1.0;" x1="470.5" x2="1006.5" y1="2581.6738" y2="2581.6738"/><text fill="#000000" font-family="sans-serif" font-size="13" font-weight="bold" lengthAdjust="spacingAndGlyphs" textLength="18" x="482.5" y="2571.9316">36</text><text fill="#000000" font-family="sans-serif" font-size="13" lengthAdjust="spacingAndGlyphs" textLength="154" x="514.5" y="2571.9316">(Shopping cart contents)</text></g></svg>