<?xml version="1.0" encoding="UTF-8" standalone="no"?><svg xmlns="http://www.w3.org/2000/svg" xmlns:xlink="http://www.w3.org/1999/xlink" contentScriptType="application/ecmascript" contentStyleType="text/css" height="3135px" preserveAspectRatio="none" style="width:1157px;height:3135px;" version="1.1" viewBox="0 0 1157 3135" width="1157px" zoomAndPan="magnify"><defs/><g><rect fill="#D8D8D8" height="40.4883" rx="4" ry="4" style="stroke: #979797; stroke-width: 1.0;" width="76" x="754.5" y="1980.459"/><text fill="#000000" font-family="sans-serif" font-size="14" lengthAdjust="spacingAndGlyphs" textLength="52" x="766.5" y="2005.9941">Forums</text><line style="stroke: #CDCDCD; stroke-width: 1.0; stroke-dasharray: 5.0,5.0;" x1="102" x2="102" y1="44.4883" y2="3085.332"/><line style="stroke: #CDCDCD; stroke-width: 1.0; stroke-dasharray: 5.0,5.0;" x1="615.5" x2="615.5" y1="44.4883" y2="3085.332"/><line style="stroke: #CDCDCD; stroke-width: 1.0; stroke-dasharray: 5.0,5.0;" x1="792.5" x2="792.5" y1="2014.6367" y2="3085.332"/><line style="stroke: #CDCDCD; stroke-width: 1.0; stroke-dasharray: 5.0,5.0;" x1="1007" x2="1007" y1="44.4883" y2="3085.332"/><line style="stroke: #CDCDCD; stroke-width: 1.0; stroke-dasharray: 5.0,5.0;" x1="1104" x2="1104" y1="44.4883" y2="3085.332"/><rect fill="#D8D8D8" height="40.4883" rx="4" ry="4" style="stroke: #979797; stroke-width: 1.0;" width="79" x="63" y="3"/><text fill="#000000" font-family="sans-serif" font-size="14" lengthAdjust="spacingAndGlyphs" textLength="55" x="75" y="28.5352">Browser</text><rect fill="#D8D8D8" height="40.4883" rx="4" ry="4" style="stroke: #979797; stroke-width: 1.0;" width="79" x="63" y="3084.332"/><text fill="#000000" font-family="sans-serif" font-size="14" lengthAdjust="spacingAndGlyphs" textLength="55" x="75" y="3109.8672">Browser</text><rect fill="#D8D8D8" height="40.4883" rx="4" ry="4" style="stroke: #979797; stroke-width: 1.0;" width="60" x="585.5" y="3"/><text fill="#000000" font-family="sans-serif" font-size="14" lengthAdjust="spacingAndGlyphs" textLength="36" x="597.5" y="28.5352">Store</text><rect fill="#D8D8D8" height="40.4883" rx="4" ry="4" style="stroke: #979797; stroke-width: 1.0;" width="60" x="585.5" y="3084.332"/><text fill="#000000" font-family="sans-serif" font-size="14" lengthAdjust="spacingAndGlyphs" textLength="36" x="597.5" y="3109.8672">Store</text><rect fill="#D8D8D8" height="40.4883" rx="4" ry="4" style="stroke: #979797; stroke-width: 1.0;" width="76" x="754.5" y="3084.332"/><text fill="#000000" font-family="sans-serif" font-size="14" lengthAdjust="spacingAndGlyphs" textLength="52" x="766.5" y="3109.8672">Forums</text><rect fill="#D8D8D8" height="40.4883" rx="4" ry="4" style="stroke: #979797; stroke-width: 1.0;" width="103" x="956" y="3"/><text fill="#000000" font-family="sans-serif" font-size="14" lengthAdjust="spacingAndGlyphs" textLength="79" x="968" y="28.5352">FusionAuth</text><rect fill="#D8D8D8" height="40.4883" rx="4" ry="4" style="stroke: #979797; stroke-width: 1.0;" width="103" x="956" y="3084.332"/><text fill="#000000" font-family="sans-serif" font-size="14" lengthAdjust="spacingAndGlyphs" textLength="79" x="968" y="3109.8672">FusionAuth</text><rect fill="#D8D8D8" height="40.4883" rx="4" ry="4" style="stroke: #979797; stroke-width: 1.0;" width="71" x="1069" y="3"/><text fill="#000000" font-family="sans-serif" font-size="14" lengthAdjust="spacingAndGlyphs" textLength="47" x="1081" y="28.5352">Hacker</text><rect fill="#D8D8D8" height="40.4883" rx="4" ry="4" style="stroke: #979797; stroke-width: 1.0;" width="71" x="1069" y="3084.332"/><text fill="#000000" font-family="sans-serif" font-size="14" lengthAdjust="spacingAndGlyphs" textLength="47" x="1081" y="3109.8672">Hacker</text><rect fill="#3F2C61" height="3" style="stroke: #3F2C61; stroke-width: 1.0;" width="1142" x="3" y="80.1436"/><line style="stroke: #FFFFFF; stroke-width: 0.5;" x1="3" x2="1145" y1="80.1436" y2="80.1436"/><line style="stroke: #FFFFFF; stroke-width: 0.5;" x1="3" x2="1145" y1="83.1436" y2="83.1436"/><rect fill="#3F2C61" height="33.3105" style="stroke: #FFFFFF; stroke-width: 1.0;" width="86" x="531" y="64.4883"/><text fill="#FFFFFF" font-family="sans-serif" font-size="13" font-weight="bold" lengthAdjust="spacingAndGlyphs" textLength="58" x="542" y="86.0566">Initialize</text><polygon fill="#56666F" points="603.5,135.1094,613.5,139.1094,603.5,143.1094,607.5,139.1094" style="stroke: #56666F; stroke-width: 1.0;"/><line style="stroke: #56666F; stroke-width: 1.0;" x1="102.5" x2="609.5" y1="139.1094" y2="139.1094"/><text fill="#000000" font-family="sans-serif" font-size="13" font-weight="bold" lengthAdjust="spacingAndGlyphs" textLength="9" x="114.5" y="129.3672">1</text><text fill="#000000" font-family="sans-serif" font-size="13" lengthAdjust="spacingAndGlyphs" textLength="35" x="137.5" y="129.3672">GET /</text><polygon fill="#56666F" points="113.5,174.4199,103.5,178.4199,113.5,182.4199,109.5,178.4199" style="stroke: #56666F; stroke-width: 1.0;"/><line style="stroke: #56666F; stroke-width: 1.0;" x1="107.5" x2="614.5" y1="178.4199" y2="178.4199"/><text fill="#000000" font-family="sans-serif" font-size="13" font-weight="bold" lengthAdjust="spacingAndGlyphs" textLength="9" x="124.5" y="168.6777">2</text><text fill="#000000" font-family="sans-serif" font-size="13" lengthAdjust="spacingAndGlyphs" textLength="180" x="147.5" y="168.6777">(SPA HTML, CSS &amp; JavaScript)</text><polygon fill="#56666F" points="603.5,229.041,613.5,233.041,603.5,237.041,607.5,233.041" style="stroke: #56666F; stroke-width: 1.0;"/><line style="stroke: #56666F; stroke-width: 1.0;" x1="102.5" x2="609.5" y1="233.041" y2="233.041"/><text fill="#000000" font-family="sans-serif" font-size="13" font-weight="bold" lengthAdjust="spacingAndGlyphs" textLength="9" x="114.5" y="215.6436">3</text><text fill="#000000" font-family="sans-serif" font-size="13" lengthAdjust="spacingAndGlyphs" textLength="122" x="137.5" y="207.9883">AJAX GET /api/user</text><text fill="#000000" font-family="sans-serif" font-size="13" lengthAdjust="spacingAndGlyphs" textLength="79" x="137.5" y="223.2988">[No cookies]</text><polygon fill="#EB8C52" points="113.5,268.3516,103.5,272.3516,113.5,276.3516,109.5,272.3516" style="stroke: #EB8C52; stroke-width: 1.0;"/><line style="stroke: #EB8C52; stroke-width: 1.0;" x1="107.5" x2="614.5" y1="272.3516" y2="272.3516"/><text fill="#000000" font-family="sans-serif" font-size="13" font-weight="bold" lengthAdjust="spacingAndGlyphs" textLength="9" x="124.5" y="262.6094">4</text><text fill="#EB8C52" font-family="sans-serif" font-size="13" lengthAdjust="spacingAndGlyphs" textLength="77" x="147.5" y="262.6094">404 Missing</text><rect fill="#3F2C61" height="3" style="stroke: #3F2C61; stroke-width: 1.0;" width="1142" x="3" y="306.0068"/><line style="stroke: #FFFFFF; stroke-width: 0.5;" x1="3" x2="1145" y1="306.0068" y2="306.0068"/><line style="stroke: #FFFFFF; stroke-width: 0.5;" x1="3" x2="1145" y1="309.0068" y2="309.0068"/><rect fill="#3F2C61" height="33.3105" style="stroke: #FFFFFF; stroke-width: 1.0;" width="309" x="419.5" y="290.3516"/><text fill="#FFFFFF" font-family="sans-serif" font-size="13" font-weight="bold" lengthAdjust="spacingAndGlyphs" textLength="281" x="430.5" y="311.9199">Login (browser navigates away from SPA)</text><polygon fill="#56666F" points="995.5,360.9727,1005.5,364.9727,995.5,368.9727,999.5,364.9727" style="stroke: #56666F; stroke-width: 1.0;"/><line style="stroke: #56666F; stroke-width: 1.0;" x1="102.5" x2="1001.5" y1="364.9727" y2="364.9727"/><text fill="#000000" font-family="sans-serif" font-size="13" font-weight="bold" lengthAdjust="spacingAndGlyphs" textLength="9" x="114.5" y="355.2305">5</text><text fill="#000000" font-family="sans-serif" font-size="13" lengthAdjust="spacingAndGlyphs" textLength="288" x="137.5" y="355.2305">GET /oauth2/authorize {response_type=code}</text><polygon fill="#56666F" points="113.5,400.2832,103.5,404.2832,113.5,408.2832,109.5,404.2832" style="stroke: #56666F; stroke-width: 1.0;"/><line style="stroke: #56666F; stroke-width: 1.0;" x1="107.5" x2="1006.5" y1="404.2832" y2="404.2832"/><text fill="#000000" font-family="sans-serif" font-size="13" font-weight="bold" lengthAdjust="spacingAndGlyphs" textLength="9" x="124.5" y="394.541">6</text><text fill="#000000" font-family="sans-serif" font-size="13" lengthAdjust="spacingAndGlyphs" textLength="117" x="147.5" y="394.541">(Login form HTML)</text><polygon fill="#56666F" points="995.5,454.9043,1005.5,458.9043,995.5,462.9043,999.5,458.9043" style="stroke: #56666F; stroke-width: 1.0;"/><line style="stroke: #56666F; stroke-width: 1.0;" x1="102.5" x2="1001.5" y1="458.9043" y2="458.9043"/><text fill="#000000" font-family="sans-serif" font-size="13" font-weight="bold" lengthAdjust="spacingAndGlyphs" textLength="9" x="114.5" y="441.5068">7</text><text fill="#000000" font-family="sans-serif" font-size="13" lengthAdjust="spacingAndGlyphs" textLength="153" x="137.5" y="433.8516">POST /oauth2/authorize</text><text fill="#000000" font-family="sans-serif" font-size="13" lengthAdjust="spacingAndGlyphs" textLength="139" x="137.5" y="449.1621">(response_type=code)</text><polygon fill="#56666F" points="113.5,509.5254,103.5,513.5254,113.5,517.5254,109.5,513.5254" style="stroke: #56666F; stroke-width: 1.0;"/><line style="stroke: #56666F; stroke-width: 1.0;" x1="107.5" x2="1006.5" y1="513.5254" y2="513.5254"/><text fill="#000000" font-family="sans-serif" font-size="13" font-weight="bold" lengthAdjust="spacingAndGlyphs" textLength="9" x="124.5" y="496.1279">8</text><text fill="#000000" font-family="sans-serif" font-size="13" lengthAdjust="spacingAndGlyphs" textLength="225" x="147.5" y="488.4727">302 Location: {redirect_uri w/ code}</text><text fill="#000000" font-family="sans-serif" font-size="13" lengthAdjust="spacingAndGlyphs" textLength="329" x="147.5" y="503.7832">[SessionId HttpOnly w/ domain: login.fusionauth.io]</text><polygon fill="#56666F" points="603.5,548.8359,613.5,552.8359,603.5,556.8359,607.5,552.8359" style="stroke: #56666F; stroke-width: 1.0;"/><line style="stroke: #56666F; stroke-width: 1.0;" x1="102.5" x2="609.5" y1="552.8359" y2="552.8359"/><text fill="#000000" font-family="sans-serif" font-size="13" font-weight="bold" lengthAdjust="spacingAndGlyphs" textLength="9" x="114.5" y="543.0938">9</text><text fill="#000000" font-family="sans-serif" font-size="13" lengthAdjust="spacingAndGlyphs" textLength="163" x="137.5" y="543.0938">GET {redirect_uri w/ code}</text><polygon fill="#56666F" points="995.5,603.457,1005.5,607.457,995.5,611.457,999.5,607.457" style="stroke: #56666F; stroke-width: 1.0;"/><line style="stroke: #56666F; stroke-width: 1.0;" x1="615.5" x2="1001.5" y1="607.457" y2="607.457"/><text fill="#000000" font-family="sans-serif" font-size="13" font-weight="bold" lengthAdjust="spacingAndGlyphs" textLength="18" x="627.5" y="590.0596">10</text><text fill="#000000" font-family="sans-serif" font-size="13" lengthAdjust="spacingAndGlyphs" textLength="130" x="659.5" y="582.4043">POST /oauth2/token</text><text fill="#000000" font-family="sans-serif" font-size="13" lengthAdjust="spacingAndGlyphs" textLength="126" x="659.5" y="597.7148">(code, client_secret)</text><polygon fill="#56666F" points="626.5,658.0781,616.5,662.0781,626.5,666.0781,622.5,662.0781" style="stroke: #56666F; stroke-width: 1.0;"/><line style="stroke: #56666F; stroke-width: 1.0;" x1="620.5" x2="1006.5" y1="662.0781" y2="662.0781"/><text fill="#000000" font-family="sans-serif" font-size="13" font-weight="bold" lengthAdjust="spacingAndGlyphs" textLength="18" x="637.5" y="644.6807">11</text><text fill="#000000" font-family="sans-serif" font-size="13" lengthAdjust="spacingAndGlyphs" textLength="46" x="669.5" y="637.0254">200 Ok</text><text fill="#000000" font-family="sans-serif" font-size="13" lengthAdjust="spacingAndGlyphs" textLength="149" x="669.5" y="652.3359">(Refresh token and JWT)</text><line style="stroke: #56666F; stroke-width: 1.0;" x1="615.5" x2="657.5" y1="701.3887" y2="701.3887"/><line style="stroke: #56666F; stroke-width: 1.0;" x1="657.5" x2="657.5" y1="701.3887" y2="714.3887"/><line style="stroke: #56666F; stroke-width: 1.0;" x1="616.5" x2="657.5" y1="714.3887" y2="714.3887"/><polygon fill="#56666F" points="626.5,710.3887,616.5,714.3887,626.5,718.3887,622.5,714.3887" style="stroke: #56666F; stroke-width: 1.0;"/><text fill="#000000" font-family="sans-serif" font-size="13" font-weight="bold" lengthAdjust="spacingAndGlyphs" textLength="18" x="627.5" y="691.6465">12</text><text fill="#000000" font-family="sans-serif" font-size="13" lengthAdjust="spacingAndGlyphs" textLength="121" x="659.5" y="691.6465">Create new session</text><polygon fill="#56666F" points="113.5,765.0098,103.5,769.0098,113.5,773.0098,109.5,769.0098" style="stroke: #56666F; stroke-width: 1.0;"/><line style="stroke: #56666F; stroke-width: 1.0;" x1="107.5" x2="614.5" y1="769.0098" y2="769.0098"/><text fill="#000000" font-family="sans-serif" font-size="13" font-weight="bold" lengthAdjust="spacingAndGlyphs" textLength="18" x="124.5" y="751.6123">13</text><text fill="#000000" font-family="sans-serif" font-size="13" lengthAdjust="spacingAndGlyphs" textLength="97" x="156.5" y="743.957">302 Location: /</text><text fill="#000000" font-family="sans-serif" font-size="13" lengthAdjust="spacingAndGlyphs" textLength="447" x="156.5" y="759.2676">[SessionId and Refresh token HttpOnly w/ domain: Store.Example.com]</text><polygon fill="#56666F" points="603.5,804.3203,613.5,808.3203,603.5,812.3203,607.5,808.3203" style="stroke: #56666F; stroke-width: 1.0;"/><line style="stroke: #56666F; stroke-width: 1.0;" x1="102.5" x2="609.5" y1="808.3203" y2="808.3203"/><text fill="#000000" font-family="sans-serif" font-size="13" font-weight="bold" lengthAdjust="spacingAndGlyphs" textLength="18" x="114.5" y="798.5781">14</text><text fill="#000000" font-family="sans-serif" font-size="13" lengthAdjust="spacingAndGlyphs" textLength="35" x="146.5" y="798.5781">GET /</text><polygon fill="#56666F" points="113.5,843.6309,103.5,847.6309,113.5,851.6309,109.5,847.6309" style="stroke: #56666F; stroke-width: 1.0;"/><line style="stroke: #56666F; stroke-width: 1.0;" x1="107.5" x2="614.5" y1="847.6309" y2="847.6309"/><text fill="#000000" font-family="sans-serif" font-size="13" font-weight="bold" lengthAdjust="spacingAndGlyphs" textLength="18" x="124.5" y="837.8887">15</text><text fill="#000000" font-family="sans-serif" font-size="13" lengthAdjust="spacingAndGlyphs" textLength="180" x="156.5" y="837.8887">(SPA HTML, CSS &amp; JavaScript)</text><rect fill="#3F2C61" height="3" style="stroke: #3F2C61; stroke-width: 1.0;" width="1142" x="3" y="881.2861"/><line style="stroke: #FFFFFF; stroke-width: 0.5;" x1="3" x2="1145" y1="881.2861" y2="881.2861"/><line style="stroke: #FFFFFF; stroke-width: 0.5;" x1="3" x2="1145" y1="884.2861" y2="884.2861"/><rect fill="#3F2C61" height="33.3105" style="stroke: #FFFFFF; stroke-width: 1.0;" width="155" x="496.5" y="865.6309"/><text fill="#FFFFFF" font-family="sans-serif" font-size="13" font-weight="bold" lengthAdjust="spacingAndGlyphs" textLength="127" x="507.5" y="887.1992">Shopping cart load</text><polygon fill="#56666F" points="603.5,951.5625,613.5,955.5625,603.5,959.5625,607.5,955.5625" style="stroke: #56666F; stroke-width: 1.0;"/><line style="stroke: #56666F; stroke-width: 1.0;" x1="102.5" x2="609.5" y1="955.5625" y2="955.5625"/><text fill="#000000" font-family="sans-serif" font-size="13" font-weight="bold" lengthAdjust="spacingAndGlyphs" textLength="18" x="114.5" y="938.165">16</text><text fill="#000000" font-family="sans-serif" font-size="13" lengthAdjust="spacingAndGlyphs" textLength="221" x="146.5" y="930.5098">AJAX GET /api/load-shopping-cart</text><text fill="#000000" font-family="sans-serif" font-size="13" lengthAdjust="spacingAndGlyphs" textLength="447" x="146.5" y="945.8203">[SessionId and Refresh token HttpOnly w/ domain: Store.Example.com]</text><line style="stroke: #56666F; stroke-width: 1.0;" x1="615.5" x2="657.5" y1="994.873" y2="994.873"/><line style="stroke: #56666F; stroke-width: 1.0;" x1="657.5" x2="657.5" y1="994.873" y2="1007.873"/><line style="stroke: #56666F; stroke-width: 1.0;" x1="616.5" x2="657.5" y1="1007.873" y2="1007.873"/><polygon fill="#56666F" points="626.5,1003.873,616.5,1007.873,626.5,1011.873,622.5,1007.873" style="stroke: #56666F; stroke-width: 1.0;"/><text fill="#000000" font-family="sans-serif" font-size="13" font-weight="bold" lengthAdjust="spacingAndGlyphs" textLength="18" x="627.5" y="985.1309">17</text><text fill="#000000" font-family="sans-serif" font-size="13" lengthAdjust="spacingAndGlyphs" textLength="110" x="659.5" y="985.1309">Session extended</text><polygon fill="#56666F" points="113.5,1043.1836,103.5,1047.1836,113.5,1051.1836,109.5,1047.1836" style="stroke: #56666F; stroke-width: 1.0;"/><line style="stroke: #56666F; stroke-width: 1.0;" x1="107.5" x2="614.5" y1="1047.1836" y2="1047.1836"/><text fill="#000000" font-family="sans-serif" font-size="13" font-weight="bold" lengthAdjust="spacingAndGlyphs" textLength="18" x="124.5" y="1037.4414">18</text><text fill="#000000" font-family="sans-serif" font-size="13" lengthAdjust="spacingAndGlyphs" textLength="154" x="156.5" y="1037.4414">(Shopping cart contents)</text><path d="M8,1064.1836 L8,1106.1836 A4,4 0 0 0 12,1110.1836 L194,1110.1836 A4,4 0 0 0 198,1106.1836 L198,1070.1836 L188,1060.1836 L12,1060.1836 A4,4 0 0 0 8,1064.1836 " fill="#EB8C52" style="stroke: #FFFFFF; stroke-width: 1.0;"/><path d="M188,1060.1836 L188,1068.1836 A2,2 0 0 0 190,1070.1836 L198,1070.1836 L188,1060.1836 " fill="#EB8C52" style="stroke: #FFFFFF; stroke-width: 1.0;"/><text fill="#FFFFFF" font-family="sans-serif" font-size="13" font-style="italic" font-weight="bold" lengthAdjust="spacingAndGlyphs" textLength="104" x="19" y="1082.752">Session expires</text><text fill="#FFFFFF" font-family="sans-serif" font-size="13" font-style="italic" font-weight="bold" lengthAdjust="spacingAndGlyphs" textLength="159" x="19" y="1098.0625">Refresh token still valid</text><rect fill="#3F2C61" height="3" style="stroke: #3F2C61; stroke-width: 1.0;" width="1142" x="3" y="1141.46"/><line style="stroke: #FFFFFF; stroke-width: 0.5;" x1="3" x2="1145" y1="1141.46" y2="1141.46"/><line style="stroke: #FFFFFF; stroke-width: 0.5;" x1="3" x2="1145" y1="1144.46" y2="1144.46"/><rect fill="#3F2C61" height="33.3105" style="stroke: #FFFFFF; stroke-width: 1.0;" width="155" x="496.5" y="1125.8047"/><text fill="#FFFFFF" font-family="sans-serif" font-size="13" font-weight="bold" lengthAdjust="spacingAndGlyphs" textLength="127" x="507.5" y="1147.373">Shopping cart load</text><polygon fill="#56666F" points="603.5,1211.7363,613.5,1215.7363,603.5,1219.7363,607.5,1215.7363" style="stroke: #56666F; stroke-width: 1.0;"/><line style="stroke: #56666F; stroke-width: 1.0;" x1="102.5" x2="609.5" y1="1215.7363" y2="1215.7363"/><text fill="#000000" font-family="sans-serif" font-size="13" font-weight="bold" lengthAdjust="spacingAndGlyphs" textLength="18" x="114.5" y="1198.3389">19</text><text fill="#000000" font-family="sans-serif" font-size="13" lengthAdjust="spacingAndGlyphs" textLength="221" x="146.5" y="1190.6836">AJAX GET /api/load-shopping-cart</text><text fill="#000000" font-family="sans-serif" font-size="13" lengthAdjust="spacingAndGlyphs" textLength="447" x="146.5" y="1205.9941">[SessionId and Refresh token HttpOnly w/ domain: Store.Example.com]</text><polygon fill="#56666F" points="995.5,1266.3574,1005.5,1270.3574,995.5,1274.3574,999.5,1270.3574" style="stroke: #56666F; stroke-width: 1.0;"/><line style="stroke: #56666F; stroke-width: 1.0;" x1="615.5" x2="1001.5" y1="1270.3574" y2="1270.3574"/><text fill="#000000" font-family="sans-serif" font-size="13" font-weight="bold" lengthAdjust="spacingAndGlyphs" textLength="18" x="627.5" y="1252.96">20</text><text fill="#000000" font-family="sans-serif" font-size="13" lengthAdjust="spacingAndGlyphs" textLength="290" x="659.5" y="1245.3047">POST /oauth2/token or POST /api/jwt/refresh</text><text fill="#000000" font-family="sans-serif" font-size="13" lengthAdjust="spacingAndGlyphs" textLength="244" x="659.5" y="1260.6152">(grant_type=refresh and refresh token)</text><polygon fill="#56666F" points="626.5,1305.668,616.5,1309.668,626.5,1313.668,622.5,1309.668" style="stroke: #56666F; stroke-width: 1.0;"/><line style="stroke: #56666F; stroke-width: 1.0;" x1="620.5" x2="1006.5" y1="1309.668" y2="1309.668"/><text fill="#000000" font-family="sans-serif" font-size="13" font-weight="bold" lengthAdjust="spacingAndGlyphs" textLength="18" x="637.5" y="1299.9258">21</text><text fill="#000000" font-family="sans-serif" font-size="13" lengthAdjust="spacingAndGlyphs" textLength="31" x="669.5" y="1299.9258">(JWT)</text><line style="stroke: #56666F; stroke-width: 1.0;" x1="615.5" x2="657.5" y1="1348.9785" y2="1348.9785"/><line style="stroke: #56666F; stroke-width: 1.0;" x1="657.5" x2="657.5" y1="1348.9785" y2="1361.9785"/><line style="stroke: #56666F; stroke-width: 1.0;" x1="616.5" x2="657.5" y1="1361.9785" y2="1361.9785"/><polygon fill="#56666F" points="626.5,1357.9785,616.5,1361.9785,626.5,1365.9785,622.5,1361.9785" style="stroke: #56666F; stroke-width: 1.0;"/><text fill="#000000" font-family="sans-serif" font-size="13" font-weight="bold" lengthAdjust="spacingAndGlyphs" textLength="18" x="627.5" y="1339.2363">22</text><text fill="#000000" font-family="sans-serif" font-size="13" lengthAdjust="spacingAndGlyphs" textLength="121" x="659.5" y="1339.2363">Create new session</text><polygon fill="#56666F" points="113.5,1412.5996,103.5,1416.5996,113.5,1420.5996,109.5,1416.5996" style="stroke: #56666F; stroke-width: 1.0;"/><line style="stroke: #56666F; stroke-width: 1.0;" x1="107.5" x2="614.5" y1="1416.5996" y2="1416.5996"/><text fill="#000000" font-family="sans-serif" font-size="13" font-weight="bold" lengthAdjust="spacingAndGlyphs" textLength="18" x="124.5" y="1399.2021">23</text><text fill="#000000" font-family="sans-serif" font-size="13" lengthAdjust="spacingAndGlyphs" textLength="154" x="156.5" y="1391.5469">(Shopping cart contents)</text><text fill="#000000" font-family="sans-serif" font-size="13" lengthAdjust="spacingAndGlyphs" textLength="360" x="156.5" y="1406.8574">[New SessionId HttpOnly w/ domain: Store.Example.com]</text><path d="M13,1433.5996 L13,1475.5996 A4,4 0 0 0 17,1479.5996 L188,1479.5996 A4,4 0 0 0 192,1475.5996 L192,1439.5996 L182,1429.5996 L17,1429.5996 A4,4 0 0 0 13,1433.5996 " fill="#EB8C52" style="stroke: #FFFFFF; stroke-width: 1.0;"/><path d="M182,1429.5996 L182,1437.5996 A2,2 0 0 0 184,1439.5996 L192,1439.5996 L182,1429.5996 " fill="#EB8C52" style="stroke: #FFFFFF; stroke-width: 1.0;"/><text fill="#FFFFFF" font-family="sans-serif" font-size="13" font-style="italic" font-weight="bold" lengthAdjust="spacingAndGlyphs" textLength="104" x="24" y="1452.168">Session expires</text><text fill="#FFFFFF" font-family="sans-serif" font-size="13" font-style="italic" font-weight="bold" lengthAdjust="spacingAndGlyphs" textLength="148" x="24" y="1467.4785">Refresh token expires</text><rect fill="#3F2C61" height="3" style="stroke: #3F2C61; stroke-width: 1.0;" width="1142" x="3" y="1510.876"/><line style="stroke: #FFFFFF; stroke-width: 0.5;" x1="3" x2="1145" y1="1510.876" y2="1510.876"/><line style="stroke: #FFFFFF; stroke-width: 0.5;" x1="3" x2="1145" y1="1513.876" y2="1513.876"/><rect fill="#3F2C61" height="33.3105" style="stroke: #FFFFFF; stroke-width: 1.0;" width="87" x="530.5" y="1495.2207"/><text fill="#FFFFFF" font-family="sans-serif" font-size="13" font-weight="bold" lengthAdjust="spacingAndGlyphs" textLength="59" x="541.5" y="1516.7891">Re-login</text><polygon fill="#56666F" points="603.5,1581.1523,613.5,1585.1523,603.5,1589.1523,607.5,1585.1523" style="stroke: #56666F; stroke-width: 1.0;"/><line style="stroke: #56666F; stroke-width: 1.0;" x1="102.5" x2="609.5" y1="1585.1523" y2="1585.1523"/><text fill="#000000" font-family="sans-serif" font-size="13" font-weight="bold" lengthAdjust="spacingAndGlyphs" textLength="18" x="114.5" y="1567.7549">24</text><text fill="#000000" font-family="sans-serif" font-size="13" lengthAdjust="spacingAndGlyphs" textLength="221" x="146.5" y="1560.0996">AJAX GET /api/load-shopping-cart</text><text fill="#000000" font-family="sans-serif" font-size="13" lengthAdjust="spacingAndGlyphs" textLength="447" x="146.5" y="1575.4102">[SessionId and Refresh token HttpOnly w/ domain: Store.Example.com]</text><polygon fill="#56666F" points="995.5,1635.7734,1005.5,1639.7734,995.5,1643.7734,999.5,1639.7734" style="stroke: #56666F; stroke-width: 1.0;"/><line style="stroke: #56666F; stroke-width: 1.0;" x1="615.5" x2="1001.5" y1="1639.7734" y2="1639.7734"/><text fill="#000000" font-family="sans-serif" font-size="13" font-weight="bold" lengthAdjust="spacingAndGlyphs" textLength="18" x="627.5" y="1622.376">25</text><text fill="#000000" font-family="sans-serif" font-size="13" lengthAdjust="spacingAndGlyphs" textLength="290" x="659.5" y="1614.7207">POST /oauth2/token or POST /api/jwt/refresh</text><text fill="#000000" font-family="sans-serif" font-size="13" lengthAdjust="spacingAndGlyphs" textLength="244" x="659.5" y="1630.0313">(grant_type=refresh and refresh token)</text><polygon fill="#EB8C52" points="626.5,1675.084,616.5,1679.084,626.5,1683.084,622.5,1679.084" style="stroke: #EB8C52; stroke-width: 1.0;"/><line style="stroke: #EB8C52; stroke-width: 1.0;" x1="620.5" x2="1006.5" y1="1679.084" y2="1679.084"/><text fill="#000000" font-family="sans-serif" font-size="13" font-weight="bold" lengthAdjust="spacingAndGlyphs" textLength="18" x="637.5" y="1669.3418">26</text><text fill="#EB8C52" font-family="sans-serif" font-size="13" lengthAdjust="spacingAndGlyphs" textLength="77" x="669.5" y="1669.3418">404 Missing</text><polygon fill="#EB8C52" points="113.5,1714.3945,103.5,1718.3945,113.5,1722.3945,109.5,1718.3945" style="stroke: #EB8C52; stroke-width: 1.0;"/><line style="stroke: #EB8C52; stroke-width: 1.0;" x1="107.5" x2="614.5" y1="1718.3945" y2="1718.3945"/><text fill="#000000" font-family="sans-serif" font-size="13" font-weight="bold" lengthAdjust="spacingAndGlyphs" textLength="18" x="124.5" y="1708.6523">27</text><text fill="#EB8C52" font-family="sans-serif" font-size="13" lengthAdjust="spacingAndGlyphs" textLength="124" x="156.5" y="1708.6523">401 Not Authorized</text><line style="stroke: #56666F; stroke-width: 1.0;" x1="102.5" x2="144.5" y1="1757.7051" y2="1757.7051"/><line style="stroke: #56666F; stroke-width: 1.0;" x1="144.5" x2="144.5" y1="1757.7051" y2="1770.7051"/><line style="stroke: #56666F; stroke-width: 1.0;" x1="103.5" x2="144.5" y1="1770.7051" y2="1770.7051"/><polygon fill="#56666F" points="113.5,1766.7051,103.5,1770.7051,113.5,1774.7051,109.5,1770.7051" style="stroke: #56666F; stroke-width: 1.0;"/><text fill="#000000" font-family="sans-serif" font-size="13" font-weight="bold" lengthAdjust="spacingAndGlyphs" textLength="18" x="114.5" y="1747.9629">28</text><text fill="#000000" font-family="sans-serif" font-size="13" lengthAdjust="spacingAndGlyphs" textLength="131" x="146.5" y="1747.9629">Login same as above</text><path d="M67,1837.7051 L67,1864.7051 A4,4 0 0 0 71,1868.7051 L1135,1868.7051 A4,4 0 0 0 1139,1864.7051 L1139,1843.7051 L1129,1833.7051 L71,1833.7051 A4,4 0 0 0 67,1837.7051 " fill="#8B80A1" style="stroke: #FFFFFF; stroke-width: 1.0;"/><path d="M1129,1833.7051 L1129,1841.7051 A2,2 0 0 0 1131,1843.7051 L1139,1843.7051 L1129,1833.7051 " fill="#8B80A1" style="stroke: #FFFFFF; stroke-width: 1.0;"/><text fill="#FFFFFF" font-family="sans-serif" font-size="13" font-style="italic" lengthAdjust="spacingAndGlyphs" textLength="126" x="535.5" y="1856.2734">SSO login to forums</text><rect fill="#3F2C61" height="3" style="stroke: #3F2C61; stroke-width: 1.0;" width="1142" x="3" y="1949.6709"/><line style="stroke: #FFFFFF; stroke-width: 0.5;" x1="3" x2="1145" y1="1949.6709" y2="1949.6709"/><line style="stroke: #FFFFFF; stroke-width: 0.5;" x1="3" x2="1145" y1="1952.6709" y2="1952.6709"/><rect fill="#3F2C61" height="33.3105" style="stroke: #FFFFFF; stroke-width: 1.0;" width="86" x="531" y="1934.0156"/><text fill="#FFFFFF" font-family="sans-serif" font-size="13" font-weight="bold" lengthAdjust="spacingAndGlyphs" textLength="58" x="542" y="1955.584">Initialize</text><polygon fill="#56666F" points="742.5,2019.9473,752.5,2023.9473,742.5,2027.9473,746.5,2023.9473" style="stroke: #56666F; stroke-width: 1.0;"/><line style="stroke: #56666F; stroke-width: 1.0;" x1="102.5" x2="748.5" y1="2023.9473" y2="2023.9473"/><text fill="#000000" font-family="sans-serif" font-size="13" font-weight="bold" lengthAdjust="spacingAndGlyphs" textLength="18" x="114.5" y="2006.5498">29</text><text fill="#000000" font-family="sans-serif" font-size="13" lengthAdjust="spacingAndGlyphs" textLength="35" x="146.5" y="1998.8945">GET /</text><text fill="#000000" font-family="sans-serif" font-size="13" lengthAdjust="spacingAndGlyphs" textLength="79" x="146.5" y="2014.2051">[No cookies]</text><rect fill="#D8D8D8" height="40.4883" rx="4" ry="4" style="stroke: #979797; stroke-width: 1.0;" width="76" x="754.5" y="1980.459"/><text fill="#000000" font-family="sans-serif" font-size="14" lengthAdjust="spacingAndGlyphs" textLength="52" x="766.5" y="2005.9941">Forums</text><polygon fill="#56666F" points="113.5,2059.2578,103.5,2063.2578,113.5,2067.2578,109.5,2063.2578" style="stroke: #56666F; stroke-width: 1.0;"/><line style="stroke: #56666F; stroke-width: 1.0;" x1="107.5" x2="791.5" y1="2063.2578" y2="2063.2578"/><text fill="#000000" font-family="sans-serif" font-size="13" font-weight="bold" lengthAdjust="spacingAndGlyphs" textLength="18" x="124.5" y="2053.5156">30</text><text fill="#000000" font-family="sans-serif" font-size="13" lengthAdjust="spacingAndGlyphs" textLength="180" x="156.5" y="2053.5156">(SPA HTML, CSS &amp; JavaScript)</text><polygon fill="#56666F" points="780.5,2113.8789,790.5,2117.8789,780.5,2121.8789,784.5,2117.8789" style="stroke: #56666F; stroke-width: 1.0;"/><line style="stroke: #56666F; stroke-width: 1.0;" x1="102.5" x2="786.5" y1="2117.8789" y2="2117.8789"/><text fill="#000000" font-family="sans-serif" font-size="13" font-weight="bold" lengthAdjust="spacingAndGlyphs" textLength="18" x="114.5" y="2100.4814">31</text><text fill="#000000" font-family="sans-serif" font-size="13" lengthAdjust="spacingAndGlyphs" textLength="88" x="146.5" y="2092.8262">GET /api/user</text><text fill="#000000" font-family="sans-serif" font-size="13" lengthAdjust="spacingAndGlyphs" textLength="79" x="146.5" y="2108.1367">[No cookies]</text><polygon fill="#EB8C52" points="113.5,2153.1895,103.5,2157.1895,113.5,2161.1895,109.5,2157.1895" style="stroke: #EB8C52; stroke-width: 1.0;"/><line style="stroke: #EB8C52; stroke-width: 1.0;" x1="107.5" x2="791.5" y1="2157.1895" y2="2157.1895"/><text fill="#000000" font-family="sans-serif" font-size="13" font-weight="bold" lengthAdjust="spacingAndGlyphs" textLength="18" x="124.5" y="2147.4473">32</text><text fill="#EB8C52" font-family="sans-serif" font-size="13" lengthAdjust="spacingAndGlyphs" textLength="77" x="156.5" y="2147.4473">404 Missing</text><rect fill="#3F2C61" height="3" style="stroke: #3F2C61; stroke-width: 1.0;" width="1142" x="3" y="2190.8447"/><line style="stroke: #FFFFFF; stroke-width: 0.5;" x1="3" x2="1145" y1="2190.8447" y2="2190.8447"/><line style="stroke: #FFFFFF; stroke-width: 0.5;" x1="3" x2="1145" y1="2193.8447" y2="2193.8447"/><rect fill="#3F2C61" height="33.3105" style="stroke: #FFFFFF; stroke-width: 1.0;" width="589" x="279.5" y="2175.1895"/><text fill="#FFFFFF" font-family="sans-serif" font-size="13" font-weight="bold" lengthAdjust="spacingAndGlyphs" textLength="561" x="290.5" y="2196.7578">Login (browser navigates away from SPA but auto-logs-in since the session exists)</text><polygon fill="#56666F" points="995.5,2261.1211,1005.5,2265.1211,995.5,2269.1211,999.5,2265.1211" style="stroke: #56666F; stroke-width: 1.0;"/><line style="stroke: #56666F; stroke-width: 1.0;" x1="102.5" x2="1001.5" y1="2265.1211" y2="2265.1211"/><text fill="#000000" font-family="sans-serif" font-size="13" font-weight="bold" lengthAdjust="spacingAndGlyphs" textLength="18" x="114.5" y="2247.7236">33</text><text fill="#000000" font-family="sans-serif" font-size="13" lengthAdjust="spacingAndGlyphs" textLength="288" x="146.5" y="2240.0684">GET /oauth2/authorize {response_type=code}</text><text fill="#000000" font-family="sans-serif" font-size="13" lengthAdjust="spacingAndGlyphs" textLength="329" x="146.5" y="2255.3789">[SessionId HttpOnly w/ domain: login.fusionauth.io]</text><polygon fill="#56666F" points="113.5,2315.7422,103.5,2319.7422,113.5,2323.7422,109.5,2319.7422" style="stroke: #56666F; stroke-width: 1.0;"/><line style="stroke: #56666F; stroke-width: 1.0;" x1="107.5" x2="1006.5" y1="2319.7422" y2="2319.7422"/><text fill="#000000" font-family="sans-serif" font-size="13" font-weight="bold" lengthAdjust="spacingAndGlyphs" textLength="18" x="124.5" y="2302.3447">34</text><text fill="#000000" font-family="sans-serif" font-size="13" lengthAdjust="spacingAndGlyphs" textLength="225" x="156.5" y="2294.6895">302 Location: {redirect_uri w/ code}</text><text fill="#000000" font-family="sans-serif" font-size="13" lengthAdjust="spacingAndGlyphs" textLength="329" x="156.5" y="2310">[SessionId HttpOnly w/ domain: login.fusionauth.io]</text><polygon fill="#56666F" points="780.5,2355.0527,790.5,2359.0527,780.5,2363.0527,784.5,2359.0527" style="stroke: #56666F; stroke-width: 1.0;"/><line style="stroke: #56666F; stroke-width: 1.0;" x1="102.5" x2="786.5" y1="2359.0527" y2="2359.0527"/><text fill="#000000" font-family="sans-serif" font-size="13" font-weight="bold" lengthAdjust="spacingAndGlyphs" textLength="18" x="114.5" y="2349.3105">35</text><text fill="#000000" font-family="sans-serif" font-size="13" lengthAdjust="spacingAndGlyphs" textLength="163" x="146.5" y="2349.3105">GET {redirect_uri w/ code}</text><polygon fill="#56666F" points="995.5,2409.6738,1005.5,2413.6738,995.5,2417.6738,999.5,2413.6738" style="stroke: #56666F; stroke-width: 1.0;"/><line style="stroke: #56666F; stroke-width: 1.0;" x1="792.5" x2="1001.5" y1="2413.6738" y2="2413.6738"/><text fill="#000000" font-family="sans-serif" font-size="13" font-weight="bold" lengthAdjust="spacingAndGlyphs" textLength="18" x="804.5" y="2396.2764">36</text><text fill="#000000" font-family="sans-serif" font-size="13" lengthAdjust="spacingAndGlyphs" textLength="130" x="836.5" y="2388.6211">POST /oauth2/token</text><text fill="#000000" font-family="sans-serif" font-size="13" lengthAdjust="spacingAndGlyphs" textLength="126" x="836.5" y="2403.9316">(code, client_secret)</text><polygon fill="#56666F" points="803.5,2464.2949,793.5,2468.2949,803.5,2472.2949,799.5,2468.2949" style="stroke: #56666F; stroke-width: 1.0;"/><line style="stroke: #56666F; stroke-width: 1.0;" x1="797.5" x2="1006.5" y1="2468.2949" y2="2468.2949"/><text fill="#000000" font-family="sans-serif" font-size="13" font-weight="bold" lengthAdjust="spacingAndGlyphs" textLength="18" x="814.5" y="2450.8975">37</text><text fill="#000000" font-family="sans-serif" font-size="13" lengthAdjust="spacingAndGlyphs" textLength="46" x="846.5" y="2443.2422">200 Ok</text><text fill="#000000" font-family="sans-serif" font-size="13" lengthAdjust="spacingAndGlyphs" textLength="149" x="846.5" y="2458.5527">(Refresh token and JWT)</text><polygon fill="#56666F" points="113.5,2518.916,103.5,2522.916,113.5,2526.916,109.5,2522.916" style="stroke: #56666F; stroke-width: 1.0;"/><line style="stroke: #56666F; stroke-width: 1.0;" x1="107.5" x2="791.5" y1="2522.916" y2="2522.916"/><text fill="#000000" font-family="sans-serif" font-size="13" font-weight="bold" lengthAdjust="spacingAndGlyphs" textLength="18" x="124.5" y="2505.5186">38</text><text fill="#000000" font-family="sans-serif" font-size="13" lengthAdjust="spacingAndGlyphs" textLength="180" x="156.5" y="2497.8633">(SPA HTML, CSS &amp; JavaScript)</text><text fill="#000000" font-family="sans-serif" font-size="13" lengthAdjust="spacingAndGlyphs" textLength="447" x="156.5" y="2513.1738">[SessionId and Refresh token HttpOnly w/ domain: Store.Example.com]</text><rect fill="#3F2C61" height="3" style="stroke: #3F2C61; stroke-width: 1.0;" width="1142" x="3" y="2556.5713"/><line style="stroke: #FFFFFF; stroke-width: 0.5;" x1="3" x2="1145" y1="2556.5713" y2="2556.5713"/><line style="stroke: #FFFFFF; stroke-width: 0.5;" x1="3" x2="1145" y1="2559.5713" y2="2559.5713"/><rect fill="#3F2C61" height="33.3105" style="stroke: #FFFFFF; stroke-width: 1.0;" width="104" x="522" y="2540.916"/><text fill="#FFFFFF" font-family="sans-serif" font-size="13" font-weight="bold" lengthAdjust="spacingAndGlyphs" textLength="76" x="533" y="2562.4844">Forum load</text><polygon fill="#56666F" points="780.5,2626.8477,790.5,2630.8477,780.5,2634.8477,784.5,2630.8477" style="stroke: #56666F; stroke-width: 1.0;"/><line style="stroke: #56666F; stroke-width: 1.0;" x1="102.5" x2="786.5" y1="2630.8477" y2="2630.8477"/><text fill="#000000" font-family="sans-serif" font-size="13" font-weight="bold" lengthAdjust="spacingAndGlyphs" textLength="18" x="114.5" y="2613.4502">39</text><text fill="#000000" font-family="sans-serif" font-size="13" lengthAdjust="spacingAndGlyphs" textLength="165" x="146.5" y="2605.7949">AJAX GET /api/load-posts</text><text fill="#000000" font-family="sans-serif" font-size="13" lengthAdjust="spacingAndGlyphs" textLength="462" x="146.5" y="2621.1055">[SessionId and Refresh token HttpOnly w/ domain: Forums.Example.com]</text><line style="stroke: #56666F; stroke-width: 1.0;" x1="792.5" x2="834.5" y1="2670.1582" y2="2670.1582"/><line style="stroke: #56666F; stroke-width: 1.0;" x1="834.5" x2="834.5" y1="2670.1582" y2="2683.1582"/><line style="stroke: #56666F; stroke-width: 1.0;" x1="793.5" x2="834.5" y1="2683.1582" y2="2683.1582"/><polygon fill="#56666F" points="803.5,2679.1582,793.5,2683.1582,803.5,2687.1582,799.5,2683.1582" style="stroke: #56666F; stroke-width: 1.0;"/><text fill="#000000" font-family="sans-serif" font-size="13" font-weight="bold" lengthAdjust="spacingAndGlyphs" textLength="18" x="804.5" y="2660.416">40</text><text fill="#000000" font-family="sans-serif" font-size="13" lengthAdjust="spacingAndGlyphs" textLength="110" x="836.5" y="2660.416">Session extended</text><polygon fill="#56666F" points="113.5,2718.4688,103.5,2722.4688,113.5,2726.4688,109.5,2722.4688" style="stroke: #56666F; stroke-width: 1.0;"/><line style="stroke: #56666F; stroke-width: 1.0;" x1="107.5" x2="791.5" y1="2722.4688" y2="2722.4688"/><text fill="#000000" font-family="sans-serif" font-size="13" font-weight="bold" lengthAdjust="spacingAndGlyphs" textLength="18" x="124.5" y="2712.7266">41</text><text fill="#000000" font-family="sans-serif" font-size="13" lengthAdjust="spacingAndGlyphs" textLength="87" x="156.5" y="2712.7266">(Forum posts)</text><path d="M67,2789.4688 L67,2816.4688 A4,4 0 0 0 71,2820.4688 L1135,2820.4688 A4,4 0 0 0 1139,2816.4688 L1139,2795.4688 L1129,2785.4688 L71,2785.4688 A4,4 0 0 0 67,2789.4688 " fill="#8B80A1" style="stroke: #FFFFFF; stroke-width: 1.0;"/><path d="M1129,2785.4688 L1129,2793.4688 A2,2 0 0 0 1131,2795.4688 L1139,2795.4688 L1129,2785.4688 " fill="#8B80A1" style="stroke: #FFFFFF; stroke-width: 1.0;"/><text fill="#FFFFFF" font-family="sans-serif" font-size="13" font-style="italic" lengthAdjust="spacingAndGlyphs" textLength="91" x="553" y="2808.0371">Attack vectors</text><rect fill="#3F2C61" height="3" style="stroke: #3F2C61; stroke-width: 1.0;" width="1142" x="3" y="2901.4346"/><line style="stroke: #FFFFFF; stroke-width: 0.5;" x1="3" x2="1145" y1="2901.4346" y2="2901.4346"/><line style="stroke: #FFFFFF; stroke-width: 0.5;" x1="3" x2="1145" y1="2904.4346" y2="2904.4346"/><rect fill="#3F2C61" height="33.3105" style="stroke: #FFFFFF; stroke-width: 1.0;" width="140" x="504" y="2885.7793"/><text fill="#FFFFFF" font-family="sans-serif" font-size="13" font-weight="bold" lengthAdjust="spacingAndGlyphs" textLength="112" x="515" y="2907.3477">Stolen session id</text><polygon fill="#56666F" points="626.5,2971.7109,616.5,2975.7109,626.5,2979.7109,622.5,2975.7109" style="stroke: #56666F; stroke-width: 1.0;"/><line style="stroke: #56666F; stroke-width: 1.0;" x1="620.5" x2="1103.5" y1="2975.7109" y2="2975.7109"/><text fill="#000000" font-family="sans-serif" font-size="13" font-weight="bold" lengthAdjust="spacingAndGlyphs" textLength="18" x="637.5" y="2958.3135">42</text><text fill="#000000" font-family="sans-serif" font-size="13" lengthAdjust="spacingAndGlyphs" textLength="187" x="669.5" y="2950.6582">GET /api/load-shopping-cart</text><text fill="#000000" font-family="sans-serif" font-size="13" lengthAdjust="spacingAndGlyphs" textLength="329" x="669.5" y="2965.9688">[SessionId HttpOnly w/ domain: Store.Example.com]</text><line style="stroke: #56666F; stroke-width: 1.0;" x1="615.5" x2="657.5" y1="3015.0215" y2="3015.0215"/><line style="stroke: #56666F; stroke-width: 1.0;" x1="657.5" x2="657.5" y1="3015.0215" y2="3028.0215"/><line style="stroke: #56666F; stroke-width: 1.0;" x1="616.5" x2="657.5" y1="3028.0215" y2="3028.0215"/><polygon fill="#56666F" points="626.5,3024.0215,616.5,3028.0215,626.5,3032.0215,622.5,3028.0215" style="stroke: #56666F; stroke-width: 1.0;"/><text fill="#000000" font-family="sans-serif" font-size="13" font-weight="bold" lengthAdjust="spacingAndGlyphs" textLength="18" x="627.5" y="3005.2793">43</text><text fill="#000000" font-family="sans-serif" font-size="13" lengthAdjust="spacingAndGlyphs" textLength="110" x="659.5" y="3005.2793">Session extended</text><polygon fill="#56666F" points="1092.5,3063.332,1102.5,3067.332,1092.5,3071.332,1096.5,3067.332" style="stroke: #56666F; stroke-width: 1.0;"/><line style="stroke: #56666F; stroke-width: 1.0;" x1="615.5" x2="1098.5" y1="3067.332" y2="3067.332"/><text fill="#000000" font-family="sans-serif" font-size="13" font-weight="bold" lengthAdjust="spacingAndGlyphs" textLength="18" x="627.5" y="3057.5898">44</text><text fill="#000000" font-family="sans-serif" font-size="13" lengthAdjust="spacingAndGlyphs" textLength="154" x="659.5" y="3057.5898">(Shopping cart contents)</text></g></svg>