<?xml version="1.0" encoding="UTF-8"?>
<svg width="130px" height="130px" viewBox="0 0 130 130" version="1.1" xmlns="http://www.w3.org/2000/svg" xmlns:xlink="http://www.w3.org/1999/xlink">
    <title>icon-reactor-gray</title>
    <g id="icon-reactor-gray" stroke="none" stroke-width="1" fill="none" fill-rule="evenodd">
        <g id="logo-reactor-gray" transform="translate(2.000000, 0.000000)">
            <path d="M96.8548,114.785074 C95.6151636,113.38402 93.5406182,113.093973 91.9446182,114.078872 C83.4911636,119.298462 73.5231636,122.325042 62.8500727,122.325042 C46.4242545,122.325042 31.6771636,115.159614 21.5577091,103.840203 C19.9057091,105.81883 17.7102545,107.330859 15.2068,108.177041 C26.7300727,121.458684 43.7858909,129.891493 62.8500727,129.891493 C75.0033455,129.891493 86.3433455,126.463891 95.9575273,120.543143 C97.9849818,119.29594 98.4291636,116.561929 96.8548,114.785074" id="Fill-19" fill="#3E4E50"></path>
            <path d="M118.0648,67.6154425 C118.0648,72.2183667 117.472982,76.6838336 116.383527,80.9563561 C119.062618,81.206049 121.518982,82.2060815 123.556618,83.7319824 C124.950255,78.5918403 125.701164,73.1919166 125.701164,67.6154425 C125.701164,44.8101602 113.322618,24.8801292 94.8655273,14.0323611 C92.8406182,12.8419062 90.2264364,13.6578218 89.3215273,15.810477 C88.5858909,17.5608492 89.2718909,19.5672197 90.9175273,20.5344643 C107.152436,30.0707143 118.0648,47.5983973 118.0648,67.6154425" id="Fill-26" fill="#3E4E50"></path>
            <path d="M48.6974727,9.42123993 C48.6974727,8.55109811 48.7891091,7.70113348 48.9431091,6.87386821 C43.6918364,8.04414591 38.5080182,9.90170955 33.5163818,12.5020464 C13.1451091,23.1165156 1.10383636,43.2495798 0.00547272727,64.4848235 C-0.115436364,66.8140293 1.83056364,68.7270802 4.17492727,68.5190028 C6.0802,68.3500188 7.55274545,66.8140293 7.65074545,64.9211555 C8.61292727,46.2458942 19.1905636,28.5164393 37.0711091,19.1996163 C41.1502,17.0734437 45.3807455,15.5223213 49.6698364,14.4907619 C49.0500182,12.9156791 48.6974727,11.2094444 48.6974727,9.42123993" id="Fill-31" fill="#3E4E50"></path>
            <path d="M62.8509636,0.442259041 C57.8453273,0.442259041 53.7878727,4.46256649 53.7878727,9.42111383 C53.7878727,14.3809222 57.8453273,18.4012297 62.8509636,18.4012297 C67.8553273,18.4012297 71.9127818,14.3809222 71.9127818,9.42111383 C71.9127818,4.46256649 67.8553273,0.442259041 62.8509636,0.442259041" id="Fill-32" fill="#F58320"></path>
            <path d="M115.049582,85.9336934 C110.045218,85.9336934 105.987764,89.9540009 105.987764,94.9125482 C105.987764,99.8723566 110.045218,103.891403 115.049582,103.891403 C120.055218,103.891403 124.1114,99.8723566 124.1114,94.9125482 C124.1114,89.9540009 120.055218,85.9336934 115.049582,85.9336934" id="Fill-33" fill="#F58320"></path>
            <path d="M10.6517091,85.9336934 C5.64607273,85.9336934 1.58989091,89.9540009 1.58989091,94.9125482 C1.58989091,99.8723566 5.64607273,103.891403 10.6517091,103.891403 C15.6560727,103.891403 19.7135273,99.8723566 19.7135273,94.9125482 C19.7135273,89.9540009 15.6560727,85.9336934 10.6517091,85.9336934" id="Fill-34" fill="#F58320"></path>
            <path d="M78.253,67.5748359 L106.018818,67.5748359 C107.483727,67.5748359 108.653364,66.351593 108.569364,64.9038788 C107.706455,50.1858712 99.7582727,37.3594762 88.0593636,29.7009671 C86.8324545,28.8976623 85.1715455,29.2822902 84.4346364,30.5446263 L70.3620909,54.6954758 C74.9502727,57.2428475 78.0862727,62.0424994 78.253,67.5748359" id="Fill-35" fill="#3E4E50"></path>
            <path d="M70.7563818,81.1331588 C68.4412909,82.5102528 65.7431091,83.3173409 62.8514727,83.3173409 C59.9636545,83.3173409 57.2680182,82.512775 54.9542,81.1394642 L41.2800182,104.606811 C40.5456545,105.870408 41.0394727,107.487106 42.3554727,108.140343 C54.8918364,114.344833 70.0665636,114.754682 83.3563818,108.14791 C84.6736545,107.493412 85.1751091,105.877975 84.4382,104.613116 L70.7563818,81.1331588 Z" id="Fill-36" fill="#3E4E50"></path>
            <path d="M55.3388182,54.6956019 L41.2662727,30.5447525 C40.5306364,29.2824163 38.8697273,28.8965273 37.6415455,29.7010932 C25.9439091,37.3583413 17.9957273,50.1859973 17.1328182,64.9040049 C17.0475455,66.3517191 18.2184545,67.574962 19.6820909,67.574962 L47.4479091,67.574962 C47.6159091,62.0426255 50.7506364,57.2429736 55.3388182,54.6956019" id="Fill-37" fill="#3E4E50"></path>
            <path d="M62.8509636,59.0538775 C57.8453273,59.0538775 53.7891455,63.0741849 53.7891455,68.0327323 C53.7891455,72.9925407 57.8453273,77.011587 62.8509636,77.011587 C67.8553273,77.011587 71.9127818,72.9925407 71.9127818,68.0327323 C71.9127818,63.0741849 67.8553273,59.0538775 62.8509636,59.0538775" id="Fill-38" fill="#F58320"></path>
        </g>
    </g>
</svg>