<svg height="226" viewBox="0 0 226 226" width="226" xmlns="http://www.w3.org/2000/svg"><g fill="#73a1fb" transform="translate(8 8)"><path d="m96.3928715 17.7463573v80.3673645c0 .9507436.7702735 1.7214283 1.7214258 1.7214283h110.1372067c.950742 0 1.721426-.7702745 1.721426-1.7214283v-96.39260298c0-.4999812-.216973-.97494284-.594727-1.30183785-.377344-.32689501-.877734-.47291086-1.374433-.40154356l-110.1376172 16.02523849c-.8461524.1234572-1.4732813.8490247-1.4732813 1.7033814z"/><path d="m84.3449419 192.750853c.4138476 0 .8166211-.148886 1.1320312-.424102.3744727-.326895.5893946-.800216.5893946-1.297326v-79.144277c0-.950743-.7702735-1.721428-1.7214258-1.721428h-82.56035127c-.45650391 0-.89455078.1817-1.21734375.504083-.32279296.322793-.50408203.760841-.50408203 1.217345l.00410157 67.8301c0 .860099.63533203 1.588948 1.48722655 1.706253l82.55624973 11.315407c.0779296.008613.1562695.013945.2341992.013945z"/><path d="m1.79648516 99.8351501h82.54845674c.9507422 0 1.7214258-.7702745 1.7214258-1.7214283v-78.3666194c0-.4971101-.2149219-.9696108-.5885743-1.2965058-.3740625-.326895-.8683007-.4770124-1.3637695-.4089264l-82.62392546 11.2202509c-.85476562.1164846-1.49009844.8457435-1.49009844 1.707483l.07505939 67.1455482c.00123046.9503334.77191406 1.7201978 1.72142577 1.7201978z"/><path d="m208.251094 210c.412617 0 .81375-.148067 1.12916-.422051.376113-.326895.592266-.800216.592266-1.299377l.02748-96.393424c0-.455684-.180879-.894552-.504082-1.217345-.322793-.322794-.76084-.504083-1.217344-.504083h-110.1646869c-.9507421 0-1.7214257.770275-1.7214257 1.721428v80.898928c0 .858048.6320507 1.584846 1.4810742 1.704612l110.1372064 15.494906c.080801.011074.160371.016406.240352.016406z"/></g></svg>