<svg xmlns="http://www.w3.org/2000/svg" width="588" height="588"><g fill="none" fill-rule="evenodd"><circle cx="5.225" cy="5.225" r="5.225" fill="#F58320" fill-rule="nonzero" opacity=".208"/><circle cx="77.418" cy="5.225" r="5.225" fill="#F58320" fill-rule="nonzero" opacity=".208"/><circle cx="149.612" cy="5.225" r="5.225" fill="#F58320" fill-rule="nonzero" opacity=".208"/><circle cx="221.806" cy="5.225" r="5.225" fill="#F58320" fill-rule="nonzero" opacity=".208"/><circle cx="294" cy="5.225" r="5.225" fill="#F58320" fill-rule="nonzero" opacity=".208"/><circle cx="366.194" cy="5.225" r="5.225" fill="#F58320" fill-rule="nonzero" opacity=".208"/><circle cx="438.388" cy="5.225" r="5.225" fill="#F58320" fill-rule="nonzero" opacity=".208"/><circle cx="510.582" cy="5.225" r="5.225" fill="#F58320" fill-rule="nonzero" opacity=".208"/><circle cx="582.775" cy="5.225" r="5.225" fill="#F58320" fill-rule="nonzero" opacity=".208"/><circle cx="5.225" cy="53.354" r="5.225" fill="#F58320" fill-rule="nonzero" opacity=".208"/><circle cx="77.418" cy="53.354" r="5.225" fill="#F58320" fill-rule="nonzero" opacity=".208"/><circle cx="149.612" cy="53.354" r="5.225" stroke="#F58320" stroke-width="2.526" opacity=".208"/><circle cx="221.806" cy="53.354" r="5.225" fill="#F58320" fill-rule="nonzero" opacity=".208"/><circle cx="294" cy="53.354" r="5.225" fill="#F58320" fill-rule="nonzero" opacity=".208"/><circle cx="366.194" cy="53.354" r="5.225" fill="#F58320" fill-rule="nonzero" opacity=".208"/><circle cx="438.388" cy="53.354" r="5.225" stroke="#F58320" stroke-width="2.526" opacity=".208"/><circle cx="510.582" cy="53.354" r="5.225" stroke="#F58320" stroke-width="2.526" opacity=".208"/><circle cx="582.775" cy="53.354" r="5.225" fill="#F58320" fill-rule="nonzero" opacity=".208"/><circle cx="5.225" cy="101.483" r="5.225" fill="#F58320" fill-rule="nonzero" opacity=".208"/><circle cx="77.418" cy="101.483" r="5.225" fill="#F58320" fill-rule="nonzero" opacity=".208"/><circle cx="149.612" cy="101.483" r="5.225" fill="#F58320" fill-rule="nonzero" opacity=".208"/><circle cx="221.806" cy="101.483" r="5.225" fill="#F58320" fill-rule="nonzero" opacity=".208"/><circle cx="294" cy="101.483" r="5.225" fill="#F58320" fill-rule="nonzero" opacity=".208"/><circle cx="366.194" cy="101.483" r="5.225" fill="#F58320" fill-rule="nonzero" opacity=".208"/><circle cx="438.388" cy="101.483" r="5.225" fill="#F58320" fill-rule="nonzero" opacity=".208"/><circle cx="510.582" cy="101.483" r="5.225" fill="#F58320" fill-rule="nonzero" opacity=".208"/><circle cx="582.775" cy="101.483" r="5.225" fill="#F58320" fill-rule="nonzero" opacity=".208"/><circle cx="5.225" cy="149.612" r="5.225" fill="#F58320" fill-rule="nonzero" opacity=".208"/><circle cx="77.418" cy="149.612" r="5.225" fill="#F58320" fill-rule="nonzero" opacity=".208"/><circle cx="149.612" cy="149.612" r="5.225" fill="#F58320" fill-rule="nonzero" opacity=".208"/><circle cx="221.806" cy="149.612" r="5.225" fill="#F58320" fill-rule="nonzero" opacity=".208"/><circle cx="294" cy="149.612" r="5.225" fill="#F58320" fill-rule="nonzero" opacity=".208"/><circle cx="366.194" cy="149.612" r="5.225" fill="#F58320" fill-rule="nonzero" opacity=".208"/><circle cx="438.388" cy="149.612" r="5.225" fill="#F58320" fill-rule="nonzero" opacity=".208"/><circle cx="510.582" cy="149.612" r="5.225" fill="#F58320" fill-rule="nonzero" opacity=".208"/><circle cx="582.775" cy="149.612" r="5.225" fill="#F58320" fill-rule="nonzero" opacity=".208"/><circle cx="5.225" cy="197.742" r="5.225" fill="#F58320" fill-rule="nonzero" opacity=".208"/><circle cx="77.418" cy="197.742" r="5.225" fill="#F58320" fill-rule="nonzero" opacity=".208"/><circle cx="149.612" cy="197.742" r="5.225" fill="#F58320" fill-rule="nonzero" opacity=".208"/><circle cx="221.806" cy="197.742" r="5.225" fill="#F58320" fill-rule="nonzero" opacity=".208"/><circle cx="294" cy="197.742" r="5.225" fill="#F58320" fill-rule="nonzero" opacity=".208"/><circle cx="366.194" cy="197.742" r="5.225" fill="#F58320" fill-rule="nonzero" opacity=".208"/><circle cx="438.388" cy="197.742" r="5.225" fill="#F58320" fill-rule="nonzero" opacity=".208"/><circle cx="510.582" cy="197.742" r="5.225" fill="#F58320" fill-rule="nonzero" opacity=".208"/><circle cx="582.775" cy="197.742" r="5.225" fill="#F58320" fill-rule="nonzero" opacity=".208"/><circle cx="5.225" cy="245.871" r="5.225" fill="#F58320" fill-rule="nonzero" opacity=".208"/><circle cx="77.418" cy="245.871" r="5.225" fill="#F58320" fill-rule="nonzero" opacity=".208"/><circle cx="149.612" cy="245.871" r="5.225" fill="#F58320" fill-rule="nonzero" opacity=".208"/><circle cx="221.806" cy="245.871" r="5.225" stroke="#F58320" stroke-width="2.526" opacity=".208"/><circle cx="294" cy="245.871" r="5.225" fill="#F58320" fill-rule="nonzero" opacity=".208"/><circle cx="366.194" cy="245.871" r="5.225" fill="#F58320" fill-rule="nonzero" opacity=".208"/><circle cx="438.388" cy="245.871" r="5.225" fill="#F58320" fill-rule="nonzero" opacity=".208"/><circle cx="510.582" cy="245.871" r="5.225" fill="#F58320" fill-rule="nonzero" opacity=".208"/><circle cx="582.775" cy="245.871" r="5.225" fill="#F58320" fill-rule="nonzero" opacity=".208"/><circle cx="5.225" cy="294" r="5.225" fill="#F58320" fill-rule="nonzero" opacity=".208"/><circle cx="77.418" cy="294" r="5.225" fill="#F58320" fill-rule="nonzero" opacity=".208"/><circle cx="149.612" cy="294" r="5.225" fill="#F58320" fill-rule="nonzero" opacity=".208"/><circle cx="221.806" cy="294" r="5.225" fill="#F58320" fill-rule="nonzero" opacity=".208"/><circle cx="294" cy="294" r="5.225" fill="#F58320" fill-rule="nonzero" opacity=".208"/><circle cx="366.194" cy="294" r="5.225" fill="#F58320" fill-rule="nonzero" opacity=".208"/><circle cx="438.388" cy="294" r="5.225" fill="#F58320" fill-rule="nonzero" opacity=".208"/><circle cx="510.582" cy="294" r="5.225" fill="#F58320" fill-rule="nonzero" opacity=".208"/><circle cx="582.775" cy="294" r="5.225" fill="#F58320" fill-rule="nonzero" opacity=".208"/><circle cx="5.225" cy="342.129" r="5.225" fill="#F58320" fill-rule="nonzero" opacity=".208"/><circle cx="77.418" cy="342.129" r="5.225" fill="#F58320" fill-rule="nonzero" opacity=".208"/><circle cx="149.612" cy="342.129" r="5.225" fill="#F58320" fill-rule="nonzero" opacity=".208"/><circle cx="221.806" cy="342.129" r="5.225" fill="#F58320" fill-rule="nonzero" opacity=".208"/><circle cx="294" cy="342.129" r="5.225" fill="#F58320" fill-rule="nonzero" opacity=".208"/><circle cx="366.194" cy="342.129" r="5.225" fill="#F58320" fill-rule="nonzero" opacity=".208"/><circle cx="438.388" cy="342.129" r="5.225" fill="#F58320" fill-rule="nonzero" opacity=".208"/><circle cx="510.582" cy="342.129" r="5.225" fill="#F58320" fill-rule="nonzero" opacity=".208"/><circle cx="582.775" cy="342.129" r="5.225" fill="#F58320" fill-rule="nonzero" opacity=".208"/><circle cx="5.225" cy="390.258" r="5.225" fill="#F58320" fill-rule="nonzero" opacity=".208"/><circle cx="77.418" cy="390.258" r="5.225" fill="#F58320" fill-rule="nonzero" opacity=".208"/><circle cx="149.612" cy="390.258" r="5.225" fill="#F58320" fill-rule="nonzero" opacity=".208"/><circle cx="221.806" cy="390.258" r="5.225" stroke="#F58320" stroke-width="2.526" opacity=".208"/><circle cx="294" cy="390.258" r="5.225" fill="#F58320" fill-rule="nonzero" opacity=".208"/><circle cx="366.194" cy="390.258" r="5.225" fill="#F58320" fill-rule="nonzero" opacity=".208"/><circle cx="438.388" cy="390.258" r="5.225" stroke="#F58320" stroke-width="2.526" opacity=".208"/><circle cx="510.582" cy="390.258" r="5.225" stroke="#F58320" stroke-width="2.526" opacity=".208"/><circle cx="582.775" cy="390.258" r="5.225" fill="#F58320" fill-rule="nonzero" opacity=".208"/><circle cx="5.225" cy="438.388" r="5.225" fill="#F58320" fill-rule="nonzero" opacity=".208"/><circle cx="77.418" cy="438.388" r="5.225" fill="#F58320" fill-rule="nonzero" opacity=".208"/><circle cx="149.612" cy="438.388" r="5.225" fill="#F58320" fill-rule="nonzero" opacity=".208"/><circle cx="221.806" cy="438.388" r="5.225" fill="#F58320" fill-rule="nonzero" opacity=".208"/><circle cx="294" cy="438.388" r="5.225" fill="#F58320" fill-rule="nonzero" opacity=".208"/><circle cx="366.194" cy="438.388" r="5.225" fill="#F58320" fill-rule="nonzero" opacity=".208"/><circle cx="438.388" cy="438.388" r="5.225" fill="#F58320" fill-rule="nonzero" opacity=".208"/><circle cx="510.582" cy="438.388" r="5.225" fill="#F58320" fill-rule="nonzero" opacity=".208"/><circle cx="582.775" cy="438.388" r="5.225" fill="#F58320" fill-rule="nonzero" opacity=".208"/><circle cx="5.225" cy="486.517" r="5.225" fill="#F58320" fill-rule="nonzero" opacity=".208"/><circle cx="77.418" cy="486.517" r="5.225" fill="#F58320" fill-rule="nonzero" opacity=".208"/><circle cx="149.612" cy="486.517" r="5.225" fill="#F58320" fill-rule="nonzero" opacity=".208"/><circle cx="221.806" cy="486.517" r="5.225" stroke="#F58320" stroke-width="2.526" opacity=".208"/><circle cx="294" cy="486.517" r="5.225" fill="#F58320" fill-rule="nonzero" opacity=".208"/><circle cx="366.194" cy="486.517" r="5.225" fill="#F58320" fill-rule="nonzero" opacity=".208"/><circle cx="438.388" cy="486.517" r="5.225" fill="#F58320" fill-rule="nonzero" opacity=".208"/><circle cx="510.582" cy="486.517" r="5.225" fill="#F58320" fill-rule="nonzero" opacity=".208"/><circle cx="582.775" cy="486.517" r="5.225" fill="#F58320" fill-rule="nonzero" opacity=".208"/><circle cx="5.225" cy="534.646" r="5.225" fill="#F58320" fill-rule="nonzero" opacity=".208"/><circle cx="77.418" cy="534.646" r="5.225" stroke="#F58320" stroke-width="2.526" opacity=".208"/><circle cx="149.612" cy="534.646" r="5.225" stroke="#F58320" stroke-width="2.526" opacity=".208"/><circle cx="221.806" cy="534.646" r="5.225" fill="#F58320" fill-rule="nonzero" opacity=".208"/><circle cx="294" cy="534.646" r="5.225" fill="#F58320" fill-rule="nonzero" opacity=".208"/><circle cx="366.194" cy="534.646" r="5.225" fill="#F58320" fill-rule="nonzero" opacity=".208"/><circle cx="438.388" cy="534.646" r="5.225" stroke="#F58320" stroke-width="2.526" opacity=".208"/><circle cx="510.582" cy="534.646" r="5.225" stroke="#F58320" stroke-width="2.526" opacity=".208"/><circle cx="582.775" cy="534.646" r="5.225" fill="#F58320" fill-rule="nonzero" opacity=".208"/><circle cx="5.225" cy="582.775" r="5.225" fill="#F58320" fill-rule="nonzero" opacity=".208"/><circle cx="77.418" cy="582.775" r="5.225" fill="#F58320" fill-rule="nonzero" opacity=".208"/><circle cx="149.612" cy="582.775" r="5.225" fill="#F58320" fill-rule="nonzero" opacity=".208"/><circle cx="221.806" cy="582.775" r="5.225" fill="#F58320" fill-rule="nonzero" opacity=".208"/><circle cx="294" cy="582.775" r="5.225" fill="#F58320" fill-rule="nonzero" opacity=".208"/><circle cx="366.194" cy="582.775" r="5.225" fill="#F58320" fill-rule="nonzero" opacity=".208"/><circle cx="438.388" cy="582.775" r="5.225" fill="#F58320" fill-rule="nonzero" opacity=".208"/><circle cx="510.582" cy="582.775" r="5.225" fill="#F58320" fill-rule="nonzero" opacity=".208"/><circle cx="582.775" cy="582.775" r="5.225" fill="#F58320" fill-rule="nonzero" opacity=".208"/><path fill="#F58320" fill-rule="nonzero" d="M253.1 252.84c0 2.713-.403 4.73-1.21 6.05-.807 1.32-2.127 2.31-3.96 2.97 1.833.66 3.153 1.65 3.96 2.97.807 1.32 1.21 3.337 1.21 6.05v27.17c0 5.867 2.787 8.8 8.36 8.8h2.97v6.49h-4.07c-10.047 0-15.07-4.877-15.07-14.63v-27.94c0-3.74-1.65-5.61-4.95-5.61h-3.74v-6.6h3.74c3.3 0 4.95-1.87 4.95-5.61v-27.94c0-9.753 5.023-14.63 15.07-14.63h4.07v6.49h-2.97c-5.573 0-8.36 2.933-8.36 8.8v27.17Zm157.776 5.72v6.6h-3.74c-3.3 0-4.95 1.87-4.95 5.61v27.94c0 9.753-4.986 14.63-14.96 14.63h-4.18v-6.49h2.97c5.574 0 8.36-2.933 8.36-8.8v-27.17c0-2.713.404-4.73 1.21-6.05.807-1.32 2.127-2.31 3.96-2.97-1.833-.66-3.153-1.65-3.96-2.97-.806-1.32-1.21-3.337-1.21-6.05v-27.17c0-5.867-2.786-8.8-8.36-8.8h-2.97v-6.49h4.18c9.974 0 14.96 4.877 14.96 14.63v27.94c0 3.74 1.65 5.61 4.95 5.61h3.74Z"/></g></svg>