<?xml version="1.0" encoding="UTF-8"?>
<svg width="588px" height="588px" viewBox="0 0 588 588" version="1.1" xmlns="http://www.w3.org/2000/svg" xmlns:xlink="http://www.w3.org/1999/xlink">
    <title>dots code</title>
    <g id="Docs" stroke="none" stroke-width="1" fill="none" fill-rule="evenodd">
        <g id="dots-code">
            <circle id="Oval" fill="#F58320" fill-rule="nonzero" opacity="0.207550049" cx="5.22455574" cy="5.22455574" r="5.22455574"></circle>
            <circle id="Oval" fill="#F58320" fill-rule="nonzero" opacity="0.207550049" cx="77.4184168" cy="5.22455574" r="5.22455574"></circle>
            <circle id="Oval" fill="#F58320" fill-rule="nonzero" opacity="0.207550049" cx="149.612278" cy="5.22455574" r="5.22455574"></circle>
            <circle id="Oval" fill="#F58320" fill-rule="nonzero" opacity="0.207550049" cx="221.806139" cy="5.22455574" r="5.22455574"></circle>
            <circle id="Oval" fill="#F58320" fill-rule="nonzero" opacity="0.207550049" cx="294" cy="5.22455574" r="5.22455574"></circle>
            <circle id="Oval" fill="#F58320" fill-rule="nonzero" opacity="0.207550049" cx="366.193861" cy="5.22455574" r="5.22455574"></circle>
            <circle id="Oval" fill="#F58320" fill-rule="nonzero" opacity="0.207550049" cx="438.387722" cy="5.22455574" r="5.22455574"></circle>
            <circle id="Oval" fill="#F58320" fill-rule="nonzero" opacity="0.207550049" cx="510.581583" cy="5.22455574" r="5.22455574"></circle>
            <circle id="Oval" fill="#F58320" fill-rule="nonzero" opacity="0.207550049" cx="582.775444" cy="5.22455574" r="5.22455574"></circle>
            <circle id="Oval" fill="#F58320" fill-rule="nonzero" opacity="0.207550049" cx="5.22455574" cy="53.3537964" r="5.22455574"></circle>
            <circle id="Oval" fill="#F58320" fill-rule="nonzero" opacity="0.207550049" cx="77.4184168" cy="53.3537964" r="5.22455574"></circle>
            <circle id="Oval" stroke="#F58320" stroke-width="2.5256" opacity="0.207550049" cx="149.612278" cy="53.3537964" r="5.22455574"></circle>
            <circle id="Oval" fill="#F58320" fill-rule="nonzero" opacity="0.207550049" cx="221.806139" cy="53.3537964" r="5.22455574"></circle>
            <circle id="Oval" fill="#F58320" fill-rule="nonzero" opacity="0.207550049" cx="294" cy="53.3537964" r="5.22455574"></circle>
            <circle id="Oval" fill="#F58320" fill-rule="nonzero" opacity="0.207550049" cx="366.193861" cy="53.3537964" r="5.22455574"></circle>
            <circle id="Oval" stroke="#F58320" stroke-width="2.5256" opacity="0.207550049" cx="438.387722" cy="53.3537964" r="5.22455574"></circle>
            <circle id="Oval" stroke="#F58320" stroke-width="2.5256" opacity="0.207550049" cx="510.581583" cy="53.3537964" r="5.22455574"></circle>
            <circle id="Oval" fill="#F58320" fill-rule="nonzero" opacity="0.207550049" cx="582.775444" cy="53.3537964" r="5.22455574"></circle>
            <circle id="Oval" fill="#F58320" fill-rule="nonzero" opacity="0.207550049" cx="5.22455574" cy="101.483037" r="5.22455574"></circle>
            <circle id="Oval" fill="#F58320" fill-rule="nonzero" opacity="0.207550049" cx="77.4184168" cy="101.483037" r="5.22455574"></circle>
            <circle id="Oval" fill="#F58320" fill-rule="nonzero" opacity="0.207550049" cx="149.612278" cy="101.483037" r="5.22455574"></circle>
            <circle id="Oval" fill="#F58320" fill-rule="nonzero" opacity="0.207550049" cx="221.806139" cy="101.483037" r="5.22455574"></circle>
            <circle id="Oval" fill="#F58320" fill-rule="nonzero" opacity="0.207550049" cx="294" cy="101.483037" r="5.22455574"></circle>
            <circle id="Oval" fill="#F58320" fill-rule="nonzero" opacity="0.207550049" cx="366.193861" cy="101.483037" r="5.22455574"></circle>
            <circle id="Oval" fill="#F58320" fill-rule="nonzero" opacity="0.207550049" cx="438.387722" cy="101.483037" r="5.22455574"></circle>
            <circle id="Oval" fill="#F58320" fill-rule="nonzero" opacity="0.207550049" cx="510.581583" cy="101.483037" r="5.22455574"></circle>
            <circle id="Oval" fill="#F58320" fill-rule="nonzero" opacity="0.207550049" cx="582.775444" cy="101.483037" r="5.22455574"></circle>
            <circle id="Oval" fill="#F58320" fill-rule="nonzero" opacity="0.207550049" cx="5.22455574" cy="149.612278" r="5.22455574"></circle>
            <circle id="Oval" fill="#F58320" fill-rule="nonzero" opacity="0.207550049" cx="77.4184168" cy="149.612278" r="5.22455574"></circle>
            <circle id="Oval" fill="#F58320" fill-rule="nonzero" opacity="0.207550049" cx="149.612278" cy="149.612278" r="5.22455574"></circle>
            <circle id="Oval" fill="#F58320" fill-rule="nonzero" opacity="0.207550049" cx="221.806139" cy="149.612278" r="5.22455574"></circle>
            <circle id="Oval" fill="#F58320" fill-rule="nonzero" opacity="0.207550049" cx="294" cy="149.612278" r="5.22455574"></circle>
            <circle id="Oval" fill="#F58320" fill-rule="nonzero" opacity="0.207550049" cx="366.193861" cy="149.612278" r="5.22455574"></circle>
            <circle id="Oval" fill="#F58320" fill-rule="nonzero" opacity="0.207550049" cx="438.387722" cy="149.612278" r="5.22455574"></circle>
            <circle id="Oval" fill="#F58320" fill-rule="nonzero" opacity="0.207550049" cx="510.581583" cy="149.612278" r="5.22455574"></circle>
            <circle id="Oval" fill="#F58320" fill-rule="nonzero" opacity="0.207550049" cx="582.775444" cy="149.612278" r="5.22455574"></circle>
            <circle id="Oval" fill="#F58320" fill-rule="nonzero" opacity="0.207550049" cx="5.22455574" cy="197.741519" r="5.22455574"></circle>
            <circle id="Oval" fill="#F58320" fill-rule="nonzero" opacity="0.207550049" cx="77.4184168" cy="197.741519" r="5.22455574"></circle>
            <circle id="Oval" fill="#F58320" fill-rule="nonzero" opacity="0.207550049" cx="149.612278" cy="197.741519" r="5.22455574"></circle>
            <circle id="Oval" fill="#F58320" fill-rule="nonzero" opacity="0.207550049" cx="221.806139" cy="197.741519" r="5.22455574"></circle>
            <circle id="Oval" fill="#F58320" fill-rule="nonzero" opacity="0.207550049" cx="294" cy="197.741519" r="5.22455574"></circle>
            <circle id="Oval" fill="#F58320" fill-rule="nonzero" opacity="0.207550049" cx="366.193861" cy="197.741519" r="5.22455574"></circle>
            <circle id="Oval" fill="#F58320" fill-rule="nonzero" opacity="0.207550049" cx="438.387722" cy="197.741519" r="5.22455574"></circle>
            <circle id="Oval" fill="#F58320" fill-rule="nonzero" opacity="0.207550049" cx="510.581583" cy="197.741519" r="5.22455574"></circle>
            <circle id="Oval" fill="#F58320" fill-rule="nonzero" opacity="0.207550049" cx="582.775444" cy="197.741519" r="5.22455574"></circle>
            <circle id="Oval" fill="#F58320" fill-rule="nonzero" opacity="0.207550049" cx="5.22455574" cy="245.870759" r="5.22455574"></circle>
            <circle id="Oval" fill="#F58320" fill-rule="nonzero" opacity="0.207550049" cx="77.4184168" cy="245.870759" r="5.22455574"></circle>
            <circle id="Oval" fill="#F58320" fill-rule="nonzero" opacity="0.207550049" cx="149.612278" cy="245.870759" r="5.22455574"></circle>
            <circle id="Oval" stroke="#F58320" stroke-width="2.5256" opacity="0.207550049" cx="221.806139" cy="245.870759" r="5.22455574"></circle>
            <circle id="Oval" fill="#F58320" fill-rule="nonzero" opacity="0.207550049" cx="294" cy="245.870759" r="5.22455574"></circle>
            <circle id="Oval" fill="#F58320" fill-rule="nonzero" opacity="0.207550049" cx="366.193861" cy="245.870759" r="5.22455574"></circle>
            <circle id="Oval" fill="#F58320" fill-rule="nonzero" opacity="0.207550049" cx="438.387722" cy="245.870759" r="5.22455574"></circle>
            <circle id="Oval" fill="#F58320" fill-rule="nonzero" opacity="0.207550049" cx="510.581583" cy="245.870759" r="5.22455574"></circle>
            <circle id="Oval" fill="#F58320" fill-rule="nonzero" opacity="0.207550049" cx="582.775444" cy="245.870759" r="5.22455574"></circle>
            <circle id="Oval" fill="#F58320" fill-rule="nonzero" opacity="0.207550049" cx="5.22455574" cy="294" r="5.22455574"></circle>
            <circle id="Oval" fill="#F58320" fill-rule="nonzero" opacity="0.207550049" cx="77.4184168" cy="294" r="5.22455574"></circle>
            <circle id="Oval" fill="#F58320" fill-rule="nonzero" opacity="0.207550049" cx="149.612278" cy="294" r="5.22455574"></circle>
            <circle id="Oval" fill="#F58320" fill-rule="nonzero" opacity="0.207550049" cx="221.806139" cy="294" r="5.22455574"></circle>
            <circle id="Oval" fill="#F58320" fill-rule="nonzero" opacity="0.207550049" cx="294" cy="294" r="5.22455574"></circle>
            <circle id="Oval" fill="#F58320" fill-rule="nonzero" opacity="0.207550049" cx="366.193861" cy="294" r="5.22455574"></circle>
            <circle id="Oval" fill="#F58320" fill-rule="nonzero" opacity="0.207550049" cx="438.387722" cy="294" r="5.22455574"></circle>
            <circle id="Oval" fill="#F58320" fill-rule="nonzero" opacity="0.207550049" cx="510.581583" cy="294" r="5.22455574"></circle>
            <circle id="Oval" fill="#F58320" fill-rule="nonzero" opacity="0.207550049" cx="582.775444" cy="294" r="5.22455574"></circle>
            <circle id="Oval" fill="#F58320" fill-rule="nonzero" opacity="0.207550049" cx="5.22455574" cy="342.129241" r="5.22455574"></circle>
            <circle id="Oval" fill="#F58320" fill-rule="nonzero" opacity="0.207550049" cx="77.4184168" cy="342.129241" r="5.22455574"></circle>
            <circle id="Oval" fill="#F58320" fill-rule="nonzero" opacity="0.207550049" cx="149.612278" cy="342.129241" r="5.22455574"></circle>
            <circle id="Oval" fill="#F58320" fill-rule="nonzero" opacity="0.207550049" cx="221.806139" cy="342.129241" r="5.22455574"></circle>
            <circle id="Oval" fill="#F58320" fill-rule="nonzero" opacity="0.207550049" cx="294" cy="342.129241" r="5.22455574"></circle>
            <circle id="Oval" fill="#F58320" fill-rule="nonzero" opacity="0.207550049" cx="366.193861" cy="342.129241" r="5.22455574"></circle>
            <circle id="Oval" fill="#F58320" fill-rule="nonzero" opacity="0.207550049" cx="438.387722" cy="342.129241" r="5.22455574"></circle>
            <circle id="Oval" fill="#F58320" fill-rule="nonzero" opacity="0.207550049" cx="510.581583" cy="342.129241" r="5.22455574"></circle>
            <circle id="Oval" fill="#F58320" fill-rule="nonzero" opacity="0.207550049" cx="582.775444" cy="342.129241" r="5.22455574"></circle>
            <circle id="Oval" fill="#F58320" fill-rule="nonzero" opacity="0.207550049" cx="5.22455574" cy="390.258481" r="5.22455574"></circle>
            <circle id="Oval" fill="#F58320" fill-rule="nonzero" opacity="0.207550049" cx="77.4184168" cy="390.258481" r="5.22455574"></circle>
            <circle id="Oval" fill="#F58320" fill-rule="nonzero" opacity="0.207550049" cx="149.612278" cy="390.258481" r="5.22455574"></circle>
            <circle id="Oval" stroke="#F58320" stroke-width="2.5256" opacity="0.207550049" cx="221.806139" cy="390.258481" r="5.22455574"></circle>
            <circle id="Oval" fill="#F58320" fill-rule="nonzero" opacity="0.207550049" cx="294" cy="390.258481" r="5.22455574"></circle>
            <circle id="Oval" fill="#F58320" fill-rule="nonzero" opacity="0.207550049" cx="366.193861" cy="390.258481" r="5.22455574"></circle>
            <circle id="Oval" stroke="#F58320" stroke-width="2.5256" opacity="0.207550049" cx="438.387722" cy="390.258481" r="5.22455574"></circle>
            <circle id="Oval" stroke="#F58320" stroke-width="2.5256" opacity="0.207550049" cx="510.581583" cy="390.258481" r="5.22455574"></circle>
            <circle id="Oval" fill="#F58320" fill-rule="nonzero" opacity="0.207550049" cx="582.775444" cy="390.258481" r="5.22455574"></circle>
            <circle id="Oval" fill="#F58320" fill-rule="nonzero" opacity="0.207550049" cx="5.22455574" cy="438.387722" r="5.22455574"></circle>
            <circle id="Oval" fill="#F58320" fill-rule="nonzero" opacity="0.207550049" cx="77.4184168" cy="438.387722" r="5.22455574"></circle>
            <circle id="Oval" fill="#F58320" fill-rule="nonzero" opacity="0.207550049" cx="149.612278" cy="438.387722" r="5.22455574"></circle>
            <circle id="Oval" fill="#F58320" fill-rule="nonzero" opacity="0.207550049" cx="221.806139" cy="438.387722" r="5.22455574"></circle>
            <circle id="Oval" fill="#F58320" fill-rule="nonzero" opacity="0.207550049" cx="294" cy="438.387722" r="5.22455574"></circle>
            <circle id="Oval" fill="#F58320" fill-rule="nonzero" opacity="0.207550049" cx="366.193861" cy="438.387722" r="5.22455574"></circle>
            <circle id="Oval" fill="#F58320" fill-rule="nonzero" opacity="0.207550049" cx="438.387722" cy="438.387722" r="5.22455574"></circle>
            <circle id="Oval" fill="#F58320" fill-rule="nonzero" opacity="0.207550049" cx="510.581583" cy="438.387722" r="5.22455574"></circle>
            <circle id="Oval" fill="#F58320" fill-rule="nonzero" opacity="0.207550049" cx="582.775444" cy="438.387722" r="5.22455574"></circle>
            <circle id="Oval" fill="#F58320" fill-rule="nonzero" opacity="0.207550049" cx="5.22455574" cy="486.516963" r="5.22455574"></circle>
            <circle id="Oval" fill="#F58320" fill-rule="nonzero" opacity="0.207550049" cx="77.4184168" cy="486.516963" r="5.22455574"></circle>
            <circle id="Oval" fill="#F58320" fill-rule="nonzero" opacity="0.207550049" cx="149.612278" cy="486.516963" r="5.22455574"></circle>
            <circle id="Oval" stroke="#F58320" stroke-width="2.5256" opacity="0.207550049" cx="221.806139" cy="486.516963" r="5.22455574"></circle>
            <circle id="Oval" fill="#F58320" fill-rule="nonzero" opacity="0.207550049" cx="294" cy="486.516963" r="5.22455574"></circle>
            <circle id="Oval" fill="#F58320" fill-rule="nonzero" opacity="0.207550049" cx="366.193861" cy="486.516963" r="5.22455574"></circle>
            <circle id="Oval" fill="#F58320" fill-rule="nonzero" opacity="0.207550049" cx="438.387722" cy="486.516963" r="5.22455574"></circle>
            <circle id="Oval" fill="#F58320" fill-rule="nonzero" opacity="0.207550049" cx="510.581583" cy="486.516963" r="5.22455574"></circle>
            <circle id="Oval" fill="#F58320" fill-rule="nonzero" opacity="0.207550049" cx="582.775444" cy="486.516963" r="5.22455574"></circle>
            <circle id="Oval" fill="#F58320" fill-rule="nonzero" opacity="0.207550049" cx="5.22455574" cy="534.646204" r="5.22455574"></circle>
            <circle id="Oval" stroke="#F58320" stroke-width="2.5256" opacity="0.207550049" cx="77.4184168" cy="534.646204" r="5.22455574"></circle>
            <circle id="Oval" stroke="#F58320" stroke-width="2.5256" opacity="0.207550049" cx="149.612278" cy="534.646204" r="5.22455574"></circle>
            <circle id="Oval" fill="#F58320" fill-rule="nonzero" opacity="0.207550049" cx="221.806139" cy="534.646204" r="5.22455574"></circle>
            <circle id="Oval" fill="#F58320" fill-rule="nonzero" opacity="0.207550049" cx="294" cy="534.646204" r="5.22455574"></circle>
            <circle id="Oval" fill="#F58320" fill-rule="nonzero" opacity="0.207550049" cx="366.193861" cy="534.646204" r="5.22455574"></circle>
            <circle id="Oval" stroke="#F58320" stroke-width="2.5256" opacity="0.207550049" cx="438.387722" cy="534.646204" r="5.22455574"></circle>
            <circle id="Oval" stroke="#F58320" stroke-width="2.5256" opacity="0.207550049" cx="510.581583" cy="534.646204" r="5.22455574"></circle>
            <circle id="Oval" fill="#F58320" fill-rule="nonzero" opacity="0.207550049" cx="582.775444" cy="534.646204" r="5.22455574"></circle>
            <circle id="Oval" fill="#F58320" fill-rule="nonzero" opacity="0.207550049" cx="5.22455574" cy="582.775444" r="5.22455574"></circle>
            <circle id="Oval" fill="#F58320" fill-rule="nonzero" opacity="0.207550049" cx="77.4184168" cy="582.775444" r="5.22455574"></circle>
            <circle id="Oval" fill="#F58320" fill-rule="nonzero" opacity="0.207550049" cx="149.612278" cy="582.775444" r="5.22455574"></circle>
            <circle id="Oval" fill="#F58320" fill-rule="nonzero" opacity="0.207550049" cx="221.806139" cy="582.775444" r="5.22455574"></circle>
            <circle id="Oval" fill="#F58320" fill-rule="nonzero" opacity="0.207550049" cx="294" cy="582.775444" r="5.22455574"></circle>
            <circle id="Oval" fill="#F58320" fill-rule="nonzero" opacity="0.207550049" cx="366.193861" cy="582.775444" r="5.22455574"></circle>
            <circle id="Oval" fill="#F58320" fill-rule="nonzero" opacity="0.207550049" cx="438.387722" cy="582.775444" r="5.22455574"></circle>
            <circle id="Oval" fill="#F58320" fill-rule="nonzero" opacity="0.207550049" cx="510.581583" cy="582.775444" r="5.22455574"></circle>
            <circle id="Oval" fill="#F58320" fill-rule="nonzero" opacity="0.207550049" cx="582.775444" cy="582.775444" r="5.22455574"></circle>
            <g id="{-}" transform="translate(236.600000, 210.380000)" fill="#F58320" fill-rule="nonzero">
                <path d="M16.5,42.46 C16.5,45.1733333 16.0966667,47.19 15.29,48.51 C14.4833333,49.83 13.1633333,50.82 11.33,51.48 C13.1633333,52.14 14.4833333,53.13 15.29,54.45 C16.0966667,55.77 16.5,57.7866667 16.5,60.5 L16.5,87.67 C16.5,93.5366667 19.2866667,96.47 24.86,96.47 L27.83,96.47 L27.83,102.96 L23.76,102.96 C13.7133333,102.96 8.69,98.0833333 8.69,88.33 L8.69,60.39 C8.69,56.65 7.04,54.78 3.74,54.78 L0,54.78 L0,48.18 L3.74,48.18 C7.04,48.18 8.69,46.31 8.69,42.57 L8.69,14.63 C8.69,4.87666667 13.7133333,0 23.76,0 L27.83,0 L27.83,6.49 L24.86,6.49 C19.2866667,6.49 16.5,9.42333333 16.5,15.29 L16.5,42.46 Z" id="Path"></path>
                <path d="M174.276445,48.18 L174.276445,54.78 L170.536445,54.78 C167.236445,54.78 165.586445,56.65 165.586445,60.39 L165.586445,88.33 C165.586445,98.0833333 160.599778,102.96 150.626445,102.96 L146.446445,102.96 L146.446445,96.47 L149.416445,96.47 C154.989778,96.47 157.776445,93.5366667 157.776445,87.67 L157.776445,60.5 C157.776445,57.7866667 158.179778,55.77 158.986445,54.45 C159.793111,53.13 161.113111,52.14 162.946445,51.48 C161.113111,50.82 159.793111,49.83 158.986445,48.51 C158.179778,47.19 157.776445,45.1733333 157.776445,42.46 L157.776445,15.29 C157.776445,9.42333333 154.989778,6.49 149.416445,6.49 L146.446445,6.49 L146.446445,0 L150.626445,0 C160.599778,0 165.586445,4.87666667 165.586445,14.63 L165.586445,42.57 C165.586445,46.31 167.236445,48.18 170.536445,48.18 L174.276445,48.18 Z" id="Path"></path>
            </g>
        </g>
    </g>
</svg>