<svg xmlns="http://www.w3.org/2000/svg" viewBox="0 0 4096 771.9"><linearGradient id="A" gradientUnits="userSpaceOnUse" x1="1438.407" y1="921.202" x2="1438.39" y2="921.467" gradientTransform="matrix(133.5112 0 0 -82.6212 -189222.0781 76438.3906)"><stop offset="0" stop-color="#48c3d2"/><stop offset=".987" stop-color="#7dcfdc"/></linearGradient><path d="M2881.9 306c-3.2-4.1-7.4-7.3-12.3-9.2h0c-2.7-12.2-14.8-19.8-27-17.1a17.61 17.61 0 0 0-4.4 1.5h0c-2.6-3.3-5.9-6.1-9.6-8.3-15.8-9-35.9-3.4-44.9 12.4-1.7 3-2.9 6.3-3.6 9.7-15.1 1.2-26.6 14.2-25.9 29.4s13.3 27.1 28.5 26.9h76.5c15.6.1 28.3-12.4 28.5-28 0-6.3-2-12.4-5.8-17.3z" fill="url(#A)"/><path d="M2685.9 461.4s67.5-42.4 97.6-81.5 52.7-69.7 99.2-64.7-13.2 86.5-55.1 63c-41.9-23.4-54.2-64.5-58.9-192.2" fill="none" stroke="#0e5d7f" stroke-width="4" stroke-miterlimit="10" stroke-dasharray="6"/><path d="M2526.1 445.1s-.1 0 0 0h0l-12.9-7.4c.6-3.7.9-7.4.9-11.2 0-3.7-.3-7.5-.9-11.2l12.8-7.4c2.4-1.4 3.2-4.5 1.9-6.9l-20.2-35c-.7-1.2-1.8-2-3.1-2.4-1.3-.3-2.7-.2-3.9.5l-12.4 7.4c-5.5-4.9-12-8.7-18.9-11.2v-14.7c0-2.8-2.3-5-5.1-5h-40.4c-2.8 0-5 2.2-5.1 5v14.7c-7.2 2.5-13.9 6.4-19.7 11.3l-13-7.4c-2.4-1.4-5.5-.6-6.9 1.8l-20.3 35c-1.4 2.4-.6 5.5 1.8 6.9l12.8 7.4c-.6 3.7-.9 7.4-.9 11.2 0 3.7.3 7.5.9 11.1l-12.8 7.4c-2.4 1.4-3.2 4.5-1.9 6.9l20.2 35c1.4 2.4 4.5 3.2 6.9 1.9l13.2-7.4c5.8 5 12.5 8.8 19.7 11.3v14.7c0 2.8 2.3 5.1 5.1 5.1h40.4c2.8 0 5.1-2.3 5.1-5.1v-14.7c7-2.5 13.4-6.4 18.9-11.3l12.6 7.4c2.4 1.4 5.4.6 6.9-1.7 0 0 0-.1.1-.1l20.1-35c1.3-2.4.5-5.5-1.9-6.9zm-47.5-18.6c0 19.5-15.9 35.4-35.4 35.4h0a35.4 35.4 0 1 1 0-70.8c19.6 0 35.4 15.9 35.4 35.4zm117.9-96.5h0l-7-4 .4-5.6c0-1.9-.1-3.7-.4-5.6l6.9-4c2.4-1.4 3.2-4.5 1.9-6.9l-10.1-17.5c-.7-1.2-1.8-2-3.1-2.4-1.3-.3-2.7-.2-3.9.5l-6.6 3.9a41.44 41.44 0 0 0-9.3-5.5v-8.1c0-2.8-2.3-5.1-5-5.1H2540c-2.8 0-5 2.3-5 5.1v8c-3.6 1.4-6.9 3.3-10 5.6l-7.2-4.1c-2.4-1.4-5.4-.6-6.8 1.8l-10.2 17.5c-1.4 2.4-.6 5.4 1.7 6.9 0 0 .1 0 .1.1l6.9 4c-.3 1.9-.4 3.7-.4 5.6s.1 3.7.4 5.6l-7 4c-2.4 1.4-3.3 4.5-1.9 6.9h0l10.1 17.5c1.4 2.4 4.4 3.2 6.9 1.9l7.4-4.1c3.1 2.3 6.5 4.3 10.1 5.7v8c0 2.8 2.3 5.1 5.1 5.1h20.2c2.8 0 5.1-2.3 5.1-5v-8a41.44 41.44 0 0 0 9.3-5.5l6.8 4c2.4 1.4 5.4.7 6.9-1.6 0-.1.1-.1.1-.2l10-17.5c1.2-2.6.4-5.6-2.1-7zm-47.1 10.6c-11.2 0-20.2-9.1-20.2-20.2 0-11.2 9.1-20.2 20.2-20.2s20.2 9.1 20.2 20.2-9 20.2-20.2 20.2zm-401.1-2.4c-.1 0-.1 0 0 0h0c-16.3 0-29.5 13.2-29.5 29.4v28.9c0 4.9 3.5 9.2 8.3 10.1 1.2.2 2.4-.1 3.3-.8l5.1-3.7c2-1.4 4.6-1.5 6.6-.1l4 2.7c1.9 1.3 4.4 1.2 6.2-.1l3.5-2.5c2.2-1.6 5.1-1.4 7.1.5l2.2 2.2c1.7 1.7 4.3 2.1 6.6 1.1 3.6-1.7 6-5.3 6-9.4v-28.9c0-16.3-13.2-29.4-29.4-29.4zm-8.1 31.2c-.1 2.9-2.6 5.2-5.5 5-2.7-.1-4.9-2.3-5-5v-5.9c.1-2.9 2.6-5.2 5.5-5 2.7.1 4.9 2.3 5 5v5.9zm26.5 0c-.1 2.9-2.6 5.2-5.5 5-2.7-.1-4.9-2.3-5-5v-5.9c.1-2.9 2.6-5.2 5.5-5 2.7.1 4.9 2.3 5 5v5.9z" fill="#0e5d7f"/><linearGradient id="B" gradientUnits="userSpaceOnUse" x1="1444.976" y1="920.99" x2="1444.958" y2="921.255" gradientTransform="matrix(410.4238 0 0 -254.17 -590453.3125 234677.2188)"><stop offset="0" stop-color="#48c3d2"/><stop offset=".987" stop-color="#7dcfdc"/></linearGradient><path d="M2785 522.8a87.72 87.72 0 0 0-37.7-28.2h0c-8.4-37.5-45.6-61-83.1-52.6-4.7 1-9.2 2.6-13.5 4.5-19.2-24.4-48.5-38.6-79.5-38.6-48.1 0-89.6 33.9-99.2 81.1-44.7 3.7-79.2 40.8-79.6 85.7-.4 48.1 39.5 87.4 87.6 87.4h235.3c47.8 0 87.3-38.4 87.6-86.2.1-19.2-6.2-37.9-17.9-53.1h0z" fill="url(#B)"/><linearGradient id="C" gradientUnits="userSpaceOnUse" x1="1441.254" y1="921.081" x2="1441.237" y2="921.346" gradientTransform="matrix(216.2977 0 0 -133.96 -309703.125 123814.8438)"><stop offset="0" stop-color="#48c3d2"/><stop offset=".987" stop-color="#7dcfdc"/></linearGradient><path d="M2134.9 391.8c-5.1-6.7-12-11.9-19.9-14.9-4.4-19.7-24-32.1-43.7-27.7a43.45 43.45 0 0 0-7.2 2.4c-10.1-12.9-25.6-20.4-41.9-20.3-25.4 0-47.2 17.9-52.2 42.7-23.6 1.9-41.8 21.5-42 45.2-.2 25.3 20.8 46.1 46.1 46.1h124c25.2 0 46-20.2 46.2-45.4.1-10.3-3.2-20.1-9.4-28.1h0z" fill="url(#C)"/><linearGradient id="D" gradientUnits="userSpaceOnUse" x1="2064.48" y1="309.921" x2="2129.61" y2="309.921"><stop offset="0" stop-color="#48c3d2"/><stop offset=".987" stop-color="#7dcfdc"/></linearGradient><path d="M2116.2 304.9h0c0-4.2 3.4-7.5 7.6-7.6h0a7.6 7.6 0 0 1-7.6-7.6h0c0 4.2-3.4 7.5-7.6 7.6h0a7.6 7.6 0 0 1 7.6 7.6h0zm.2 4.9h0c-.1 7.3-6 13.2-13.2 13.3h0c7.3.1 13.2 6.1 13.2 13.4h0c.1-7.3 6-13.2 13.3-13.3h0c-7.4-.1-13.3-6.1-13.3-13.4h0zm-5.5-3.1c-12.8-.1-23.1-10.5-23.2-23.2l-.1.1c-.1 12.7-10.4 23-23.2 23.2h0c12.8.1 23.1 10.5 23.2 23.2l.1-.1c.2-12.8 10.5-23.1 23.2-23.2h0z" fill="url(#D)"/><linearGradient id="E" gradientUnits="userSpaceOnUse" x1="640.576" y1="863.83" x2="647.474" y2="863.83" gradientTransform="matrix(-0.9999 1.180553e-02 1.180553e-02 0.9999 3402.1238 -689.4272)"><stop offset=".001" stop-color="#46c2d2"/><stop offset=".987" stop-color="#7dcfdb"/></linearGradient><path d="M2765 187l6.8-.1-.1-10-6.9.1z" fill="url(#E)"/><linearGradient id="F" gradientUnits="userSpaceOnUse" x1="638.59" y1="819.017" x2="649.42" y2="819.017" gradientTransform="matrix(-0.9999 1.180553e-02 1.180553e-02 0.9999 3402.1238 -689.4272)"><stop offset=".001" stop-color="#46c2d2"/><stop offset=".987" stop-color="#7dcfdb"/></linearGradient><path d="M2762.7 158.2l10.8-.1-.5-42.1-10.8.2z" fill="url(#F)"/><path d="M2768.158 154.985l-5.4.064-.412-34.897 5.4-.064z" fill="#0c4874"/><path d="M2773.567 154.857l-5.4.064-.412-34.897 5.4-.064z" fill="#0e5d7f"/><path d="M2767.682 117.003l-5.4.064-.13-11.1 5.4-.064z" fill="#0c4874"/><path d="M2773.092 116.88l-5.4.064-.13-11.1 5.4-.064z" fill="#0e5d7f"/><linearGradient id="G" gradientUnits="userSpaceOnUse" x1="638.6" y1="776.212" x2="649.43" y2="776.212" gradientTransform="matrix(-0.9999 1.180553e-02 1.180553e-02 0.9999 3402.1238 -689.4272)"><stop offset=".001" stop-color="#46c2d2"/><stop offset=".987" stop-color="#7dcfdb"/></linearGradient><path d="M2772.9 105.8l-10.9.2s1.8-24.1 5.1-23.1 5.8 22.9 5.8 22.9z" fill="url(#G)"/><g fill="#0c4874"><path d="M2768.1 159.7l.2 20.3c0 .9.1 1.7-.6 2.2-.5.3-1.8 1-2.7 2.2-1.4 1.9-2.7 3.3-3.4 4.1-.5.5-1.2.7-1.8.4l-4.5-1.7c-.5-.2-.9-.6-1-1.2l-2-7.8c-.1-.4-.1-.8.1-1.2l9.2-18c.3-.6.9-.9 1.5-.9h3.4c.8-.1 1.6.7 1.6 1.6z"/><path d="M2768.313 169.123l-5.4.064-.13-11.1 5.4-.064zm5.4-.127l-5.4.064-.13-11.1 5.4-.064z"/></g><path d="M2768.1 159.7l.2 20.3c0 .9-.1 1.7.7 2.2.5.3 1.8.9 2.8 2.1l3.5 4c.5.5 1.2.6 1.8.4l4.5-1.8c.5-.2.9-.7 1-1.2l1.8-7.9c.1-.4 0-.8-.2-1.2l-9.6-17.8c-.3-.6-.9-.9-1.5-.9h-3.4c-.9.1-1.6.9-1.6 1.8z" fill="#0e5d7f"/><path d="M2879.7 25.8h-7.3m-45 0h-7.3m4.4-15.4l11.1 11m36.7-11l-11.1 11M2845 11.2l-5.2-5.2m13.3 5.2l5.2-5.2m-33.8 35.1l11.1-11m36.7 11l-11.1-11M2845 40.4l-5.2 5.2m13.3-5.2l5.2 5.2" fill="none" stroke="#0e5d7f" stroke-miterlimit="10" stroke-width="3" stroke-linecap="round"/><path d="M2793.6 23.4c-3.2.6-3.6-1.1-3.3-3.7.2-1.6-.3-2.8-2.3-2.5-2.5.4-3.1-.7-2.8-2.9.3-2-.7-2.9-2.7-2.7h-1.2c-1.1 0-1.3-.7-1.3-1.6s.3-1.2 1.3-1.4c3.9-.5 3.9-.5 3.9-4.6V1.8c0-1.2-.5-1.8-1.7-1.8h-2.2c-3.7 0-3.7 0-3.8 3.6 0 .9.2 1.7-1.2 1.9-3.7.5-3.7.5-3.7 4.1 0 1.5-.5 2-2 1.9-2.6-.1-5.2-.2-7.8 0-2.4.2-3.4-.5-3.1-3 .3-1.8-.4-3.3-2.6-3-2.1.3-2.6-.7-2.3-2.5.3-2.3-.5-3.2-2.9-3.1-5.2.2-4.8-.6-4.8 4.9 0 3.6 0 3.7 3.5 3.7 1.1 0 1.8.2 1.8 1.6 0 1.3-.7 1.4-1.7 1.4-3.5.2-3.5.2-3.5 3.7 0 1.2-.1 1.9-1.6 1.9-3.3 0-3.4.1-3.3 3.5.1 2-.4 2.9-2.5 2.6s-2.6.7-2.5 2.7c.1 4.2 0 8.4 0 12.7 0 5.8 0 4.7 5.1 4.9 1.9.1 2.5-.8 2.4-2.4v-7.8c0-1 .3-1.5 1.4-1.5s1.1.8 1.1 1.5v6.6c0 3.4.1 3.5 3.5 3.6.9 0 1.7-.2 1.8 1.3.3 4.4.4 4.4 4.7 4.4h1.7c7.2-.1 6.1 1.2 6.2-6.6 0-1.5-.6-2-2-2h-6.6c-1.1 0-1.6-.3-1.6-1.5s.6-1.5 1.6-1.5h19.7c1.2 0 1.5.6 1.5 1.7s-.5 1.4-1.5 1.3h-2.4c-7.5.2-6-1.3-6.2 6.5 0 1.6.6 2.2 2.2 2.2h7c3.5 0 3.6 0 3.5-3.5 0-1.7.4-2.4 2.2-2.1 2.4.4 3.1-.9 3-3.1-.1-2.3 0-4.7 0-7.1 0-.8 0-1.5 1.1-1.5s1.3.6 1.3 1.5v4.9c-.1 6.6.4 5 5.2 5.3 1.9.1 2.5-.8 2.5-2.4V25.5c-.3-1.5-.8-2.4-2.1-2.1zm-37.5 1.2c-2.2 0-2.7-.8-2.6-2.8.1-1.7-.1-3 2.4-2.9 2.1.1 3 .6 2.5 2.7.4 1.9.1 3-2.3 3zm20.3 0c-2.5.1-2.6-1-2.7-3-.1-2.2.6-2.6 2.7-2.7 2.3 0 2.8.9 2.4 2.8.4 2-.2 2.8-2.4 2.9z" fill="#0e5d7f"/></svg>