<?xml version="1.0" encoding="utf-8"?>
<!-- Generator: Adobe Illustrator 24.0.1, SVG Export Plug-In . SVG Version: 6.00 Build 0)  -->
<svg version="1.1" id="Layer_1" xmlns="http://www.w3.org/2000/svg" xmlns:xlink="http://www.w3.org/1999/xlink" x="0px" y="0px"
	 viewBox="0 0 4096 771.9" style="enable-background:new 0 0 4096 771.9;" xml:space="preserve">
<style type="text/css">
	.st0{fill-rule:evenodd;clip-rule:evenodd;fill:#254F81;}
	.st1{fill:url(#SVGID_1_);}
	.st2{fill:url(#SVGID_2_);}
	.st3{fill:url(#SVGID_3_);}
	.st4{fill:#67F0F3;}
	.st5{fill-rule:evenodd;clip-rule:evenodd;fill:#67F0F3;}
</style>
<g>
	<polygon class="st0" points="2670.2,164.1 2664.4,155.1 2659.3,158.6 2665.1,167.7 	"/>
	<polygon class="st0" points="2654.7,151.4 2659.9,147.9 2654.2,138.8 2649,142.2 	"/>
	<polygon class="st0" points="2644.3,122.3 2639.1,125.7 2644.6,135 2649.8,131.5 	"/>
	<polygon class="st0" points="2702.6,211.9 2696.4,203.2 2691.4,206.9 2697.6,215.7 	"/>
	<polygon class="st0" points="2686.5,199.9 2691.6,196.2 2685.5,187.3 2680.5,191 	"/>
	<polygon class="st0" points="2674.9,171.4 2669.8,175 2675.7,184 2680.8,180.3 	"/>
	<polygon class="st0" points="2730.6,249.5 2725.8,253.6 2732.5,262 2737.3,257.9 	"/>
	<polygon class="st0" points="2725.4,242.8 2719,234.3 2714.1,238.3 2720.6,246.8 	"/>
	<polygon class="st0" points="2713.9,227.6 2707.6,218.9 2702.7,222.8 2709,231.5 	"/>
	<polygon class="st0" points="2775,301.1 2767.7,293.3 2763.2,297.8 2770.6,305.6 	"/>
	<polygon class="st0" points="2762,287.1 2755,279.1 2750.4,283.4 2757.5,291.5 	"/>
	<polygon class="st0" points="2742.7,264.5 2738,268.7 2744.9,277 2749.5,272.7 	"/>
	<path class="st0" d="M2805.1,337.8c2.8,2.3,5.6,4.5,8.5,6.6l3.6-5.2c-2.8-2.1-5.6-4.3-8.3-6.5L2805.1,337.8z"/>
	<path class="st0" d="M2790.5,325.1c0.6,0.5,1.1,1,1.7,1.5c-1.2,1.8-2.4,3.7-3.6,5.5l5.1,3.6c1.1-1.6,2.1-3.3,3.2-4.9
		c0.5,0.5,1.1,1,1.6,1.5l3.9-5c-2.7-2.3-5.3-4.6-7.9-7L2790.5,325.1z"/>
	<path class="st0" d="M2788.5,314.6c-2.5-2.5-5.1-4.9-7.6-7.4l-4.3,4.6c2.5,2.6,5.1,5,7.7,7.5L2788.5,314.6z"/>
	<path class="st0" d="M2856.7,361.6l-2,6.1c1.7,0.6,3.4,1.2,5.2,1.7c1.8,0.5,3.5,1.1,5.3,1.4l1.3-6.3c-1.7-0.3-3.3-0.8-4.9-1.3
		C2859.9,362.8,2858.3,362.2,2856.7,361.6z"/>
	<path class="st0" d="M2837,359.6c3.1,1.8,6.4,3.3,9.7,4.8l2.4-5.9c-3.1-1.4-6.2-2.9-9.3-4.6L2837,359.6z"/>
	<path class="st0" d="M2820.6,349.5c3,2,5.9,4.1,9,5.9l3.1-5.5c-3-1.8-5.9-3.8-8.7-5.7L2820.6,349.5z"/>
	<path class="st0" d="M2909,358.1l3.3,5.5c3.1-2.1,6.2-4.3,8.9-6.9l-4.1-4.8C2914.5,354.2,2911.8,356.2,2909,358.1z"/>
	<path class="st0" d="M2892.4,365l1.3,6.3c3.7-0.8,7.2-2,10.7-3.5l-2.4-5.9C2898.9,363.3,2895.7,364.3,2892.4,365z"/>
	<path class="st0" d="M2874.5,365.9l-0.6,6.4c3.7,0.4,7.4,0.5,11.1,0.3l-0.4-6.4C2881.2,366.4,2877.9,366.2,2874.5,365.9z"/>
	<path class="st0" d="M2945.2,315.1l5.2,3.4c1.9-3.1,3.7-6.3,5.4-9.5l-5.4-3.1C2948.7,309,2947,312.1,2945.2,315.1z"/>
	<path class="st0" d="M2934.6,331l4.9,3.9c2.2-2.9,4.2-6,6.3-9l-5.1-3.6C2938.7,325.2,2936.7,328.1,2934.6,331z"/>
	<path class="st0" d="M2922.8,345.8l4.6,4.3c2.4-2.8,4.7-5.5,6.9-8.4l-4.8-4.1C2927.4,340.4,2925.1,343.2,2922.8,345.8z"/>
	<path class="st0" d="M2966.2,262.1l6.1,1.1c0.7-3.7,1.1-7.5,1.4-11.2l-6.2-0.4C2967.2,255.1,2966.8,258.6,2966.2,262.1z"/>
	<path class="st0" d="M2961.4,280.6l5.8,2.1c1.2-3.5,2.2-7.1,3.1-10.7l-6-1.6C2963.6,273.8,2962.6,277.2,2961.4,280.6z"/>
	<path class="st0" d="M2954.3,298.2l5.5,2.8c1.6-3.3,3-6.7,4.4-10.1l-5.7-2.5C2957.2,291.7,2955.8,295,2954.3,298.2z"/>
	<path class="st0" d="M2956.8,205.5c-3.2-2.3-6.9-4-10.7-5.1l-1.6,6.2c3.1,0.9,6.1,2.3,8.8,4.2L2956.8,205.5z"/>
	<path class="st0" d="M2969.6,222.4c-1.5-3.7-3.4-7.2-5.9-10.4l-4.7,4.2c2,2.6,3.7,5.6,5,8.7L2969.6,222.4z"/>
	<path class="st0" d="M2967.6,243l6.2-0.3c-0.1-3.8-0.6-7.7-1.4-11.5l-6,1.4C2967,236,2967.4,239.5,2967.6,243z"/>
	<path class="st0" d="M2902.3,216.1l-3-5.6c-3.1,1.8-6.2,3.7-9.2,5.7l3.4,5.4C2896.4,219.6,2899.3,217.8,2902.3,216.1z"/>
	<path class="st0" d="M2919.1,208.4l-1.9-6.1c-3.5,1.2-6.9,2.6-10.2,4.1l2.6,5.9C2912.7,210.8,2915.9,209.5,2919.1,208.4z"/>
	<path class="st0" d="M2936.7,205.5l0.2-6.4c-3.8-0.2-7.6,0.3-11.2,1l1.1,6.3C2930.1,205.8,2933.4,205.4,2936.7,205.5z"/>
	<path class="st0" d="M2854.2,247c-2.5,2.5-4.9,5.2-7.4,7.8l4.5,4.4c2.4-2.6,4.8-5.2,7.3-7.7L2854.2,247z"/>
	<path class="st0" d="M2860.3,240.9l4.2,4.7c2.5-2.4,5.1-4.9,7.7-7.2l-4-4.9C2865.5,235.9,2862.9,238.4,2860.3,240.9z"/>
	<path class="st0" d="M2874.6,228l3.9,5c2.7-2.3,5.4-4.4,8.2-6.5l-3.6-5.2C2880.2,223.4,2877.3,225.6,2874.6,228z"/>
	<path class="st0" d="M2821.6,295.3l-4.9-4c-2.2,2.9-4.3,5.8-6.4,8.7l4.9,3.9C2817.4,301,2819.5,298.1,2821.6,295.3z"/>
	<path class="st0" d="M2821.9,284.5l4.8,4c2.2-2.8,4.3-5.6,6.6-8.4l-4.7-4.1C2826.3,278.8,2824.2,281.7,2821.9,284.5z"/>
	<polygon class="st0" points="2845.5,265.6 2841,261.3 2834,269.5 2838.6,273.7 	"/>
	<polygon class="st0" points="2778.3,348.6 2783.5,352 2789.1,342.9 2784,339.4 	"/>
	<polygon class="st0" points="2805.3,307.1 2799.2,316 2804.2,319.7 2810.3,310.9 	"/>
	<polygon class="st0" points="2745.3,395.3 2750,399.5 2756.6,390.9 2751.7,386.9 	"/>
	<path class="st0" d="M2756.9,380.2l4.9,3.9c2.1-2.9,4.5-5.6,6.4-8.7l-5-3.8C2761.3,374.7,2759,377.4,2756.9,380.2z"/>
	<polygon class="st0" points="2767.7,364.6 2772.8,368.3 2778.7,359.3 2773.6,355.7 	"/>
	<path class="st0" d="M2706.2,436.4l4,4.9c2.7-2.3,5.2-4.9,7.8-7.4l-4.2-4.8C2711.3,431.6,2708.8,434.1,2706.2,436.4z"/>
	<path class="st0" d="M2719.8,423.3l4.3,4.7c2.5-2.5,5.2-4.9,7.6-7.6l-4.4-4.5C2725,418.6,2722.3,420.9,2719.8,423.3z"/>
	<polygon class="st0" points="2732.8,409.7 2737.3,414.1 2744.4,406.1 2739.8,401.8 	"/>
	<path class="st0" d="M2661,469.9l3.1,5.5c3-1.9,6.1-3.5,9-5.6l-3.3-5.4C2667,466.5,2663.9,468.1,2661,469.9z"/>
	<polygon class="st0" points="2676.6,459.6 2680.1,465 2688.7,458.8 2685.1,453.6 	"/>
	<polygon class="st0" points="2611,495 2613.2,501 2622.9,496.9 2620.6,491 	"/>
	<polygon class="st0" points="2628.2,487.8 2630.7,493.6 2640.1,488.9 2637.4,483.1 	"/>
	<path class="st0" d="M2644.7,479.4l2.8,5.7c3.2-1.5,6.2-3.4,9.2-5.2l-3-5.6C2650.8,476,2647.9,477.9,2644.7,479.4z"/>
	<path class="st0" d="M2557.6,510.7l1.2,6.3c3.4-0.7,6.9-1.3,10.3-2.2l-1.4-6.3C2564.4,509.5,2561,510,2557.6,510.7z"/>
	<polygon class="st0" points="2575.6,506.5 2577.2,512.7 2587.3,510 2585.6,503.8 	"/>
	<polygon class="st0" points="2593.4,501.2 2595.2,507.4 2605.2,504 2603.2,497.9 	"/>
	<path class="st0" d="M2502.4,518l0.3,6.4c3.5-0.1,7-0.5,10.5-0.8l-0.5-6.4C2509.3,517.4,2505.9,517.9,2502.4,518z"/>
	<path class="st0" d="M2520.9,516.5l0.6,6.4c3.5-0.2,7-0.8,10.4-1.3l-0.8-6.4C2527.7,515.7,2524.3,516.3,2520.9,516.5z"/>
	<path class="st0" d="M2539.2,514.1l0.9,6.4c3.5-0.5,6.9-1,10.4-1.7l-1.1-6.3C2546,513.2,2542.6,513.6,2539.2,514.1z"/>
	<polygon class="st0" points="2446.3,523.8 2456.7,524.4 2457,518 2446.7,517.4 	"/>
	<polygon class="st0" points="2465,524.8 2475.5,525 2475.6,518.5 2465.2,518.4 	"/>
	<polygon class="st0" points="2483.7,518.6 2483.8,525 2494.3,524.7 2494.1,518.3 	"/>
	<polygon class="st0" points="2427.4,522 2437.8,523 2438.4,516.6 2428.1,515.6 	"/>
</g>
<g>
	<path class="st0" d="M2138.1,327.9h21.5c2.9,6.5,4.6,13.7,4.9,21.3h-24.7C2139.7,341.2,2139,334.2,2138.1,327.9z M2128.7,297.9
		c12.4,4.9,22.5,14.1,28.8,25.8h-20.1C2135.1,311.8,2131.6,303.3,2128.7,297.9z M2110.6,323.7V294c4.5,0.2,8.7,0.9,12.9,2.1
		c3.1,5.4,7.2,14.3,9.7,27.6H2110.6z M2083.3,374.7c-1-6.2-1.7-13.2-1.8-21.3h25v21.3H2083.3z M2083.2,327.9h23.3v21.3h-25
		C2081.6,341.2,2082.2,334.2,2083.2,327.9z M2093.7,296c4.1-1.1,8.4-1.8,12.8-2v29.6h-22.6C2086.5,310.3,2090.5,301.4,2093.7,296z
		 M2059,323.7c6.5-11.8,16.9-21.2,29.5-26c-3,5.5-6.5,14-8.8,26H2059z M2077.3,349.2h-25.2c0.3-7.5,1.9-14.7,4.8-21.3h22.1
		C2078.1,334.2,2077.4,341.2,2077.3,349.2z M2079.1,374.7h-22c-2.9-6.5-4.7-13.7-5-21.3h25.3
		C2077.4,361.5,2078.1,368.4,2079.1,374.7z M2079.8,378.9c2.3,12.1,5.9,20.6,8.9,26c-12.7-4.8-23.1-14.1-29.6-26H2079.8z
		 M2106.5,378.9v29.6c-4.4-0.1-8.6-0.8-12.7-1.9c-3.1-5.2-7.2-14.3-9.8-27.7H2106.5z M2133.1,378.9c-2.6,13.4-6.6,22.4-9.7,27.6
		c-4.1,1.2-8.4,1.8-12.7,2v-29.6H2133.1z M2110.6,353.4h25c-0.1,8-0.8,15-1.8,21.3h-23.2V353.4z M2135.6,349.2h-25v-21.3h23.3
		C2134.9,334.2,2135.5,341.2,2135.6,349.2z M2139.8,353.4h24.7c-0.3,7.6-2.1,14.7-5,21.3H2138C2139,368.4,2139.7,361.5,2139.8,353.4
		z M2157.5,378.9c-6.3,11.7-16.5,21-28.9,25.9c3-5.4,6.5-13.8,8.8-25.9H2157.5z"/>
</g>
<linearGradient id="SVGID_1_" gradientUnits="userSpaceOnUse" x1="3057.8655" y1="-331.3806" x2="3057.8484" y2="-331.6456" gradientTransform="matrix(133.5112 0 0 82.6212 -405877.875 27706.6406)">
	<stop  offset="0" style="stop-color:#12D5E0"/>
	<stop  offset="0.9872" style="stop-color:#4EF9F9"/>
</linearGradient>
<path class="st1" d="M2441.9,306c-3.2-4.1-7.4-7.3-12.3-9.2l0,0c-2.7-12.2-14.8-19.8-27-17.1c-1.5,0.3-3,0.8-4.4,1.5l0,0
	c-2.6-3.3-5.9-6.1-9.6-8.3c-15.8-9-35.9-3.4-44.9,12.4c-1.7,3-2.9,6.3-3.6,9.7c-15.1,1.2-26.6,14.2-25.9,29.4s13.3,27.1,28.5,26.9
	h76.5c15.6,0.1,28.3-12.4,28.5-28C2447.7,317,2445.7,310.9,2441.9,306z"/>
<linearGradient id="SVGID_2_" gradientUnits="userSpaceOnUse" x1="3075.9922" y1="-329.6982" x2="3075.9741" y2="-329.9632" gradientTransform="matrix(410.4238 0 0 254.17 -1259861.25 84388.5781)">
	<stop  offset="0" style="stop-color:#12D5E0"/>
	<stop  offset="0.9872" style="stop-color:#4EF9F9"/>
</linearGradient>
<path class="st2" d="M2785,522.8c-9.8-12.7-22.8-22.4-37.7-28.2l0,0c-8.4-37.5-45.6-61-83.1-52.6c-4.7,1-9.2,2.6-13.5,4.5
	c-19.2-24.4-48.5-38.6-79.5-38.6c-48.1,0-89.6,33.9-99.2,81.1c-44.7,3.7-79.2,40.8-79.6,85.7c-0.4,48.1,39.5,87.4,87.6,87.4h235.3
	c47.8,0,87.3-38.4,87.6-86.2C2803,556.7,2796.7,538,2785,522.8L2785,522.8L2785,522.8z"/>
<linearGradient id="SVGID_3_" gradientUnits="userSpaceOnUse" x1="3068.6956" y1="-330.4247" x2="3068.6785" y2="-330.6897" gradientTransform="matrix(216.2977 0 0 133.96 -661714.875 44690.5195)">
	<stop  offset="0" style="stop-color:#12D5E0"/>
	<stop  offset="0.9872" style="stop-color:#4EF9F9"/>
</linearGradient>
<path class="st3" d="M2134.9,391.8c-5.1-6.7-12-11.9-19.9-14.9c-4.4-19.7-24-32.1-43.7-27.7c-2.5,0.6-4.9,1.4-7.2,2.4
	c-10.1-12.9-25.6-20.4-41.9-20.3c-25.4,0-47.2,17.9-52.2,42.7c-23.6,1.9-41.8,21.5-42,45.2c-0.2,25.3,20.8,46.1,46.1,46.1h124
	c25.2,0,46-20.2,46.2-45.4C2144.4,409.6,2141.1,399.8,2134.9,391.8L2134.9,391.8L2134.9,391.8z"/>
<path class="st4" d="M2466.9,263.5L2466.9,263.5c0-4.2,3.4-7.5,7.6-7.6l0,0c-4.2,0-7.6-3.4-7.6-7.6c0,0,0,0,0,0l0,0
	c0,4.2-3.4,7.5-7.6,7.6l0,0C2463.4,255.9,2466.9,259.3,2466.9,263.5C2466.9,263.5,2466.9,263.5,2466.9,263.5L2466.9,263.5z
	 M2467,268.4L2467,268.4c-0.1,7.3-6,13.2-13.2,13.3l0,0c7.3,0.1,13.2,6.1,13.2,13.4l0,0c0.1-7.3,6-13.2,13.3-13.3l0,0
	C2473,281.7,2467,275.7,2467,268.4L2467,268.4z M2461.5,265.3c-12.8-0.1-23.1-10.5-23.2-23.2l-0.1,0.1c-0.1,12.7-10.4,23-23.2,23.2
	l0,0c12.8,0.1,23.1,10.5,23.2,23.2l0.1-0.1C2438.5,275.7,2448.9,265.4,2461.5,265.3L2461.5,265.3z"/>
<g>
	<path class="st5" d="M2688.8,73.8l-40,12.5l-49.3-43.2l38.2,46.5l-42.8,13.6l-22-87.4L2688.8,73.8z"/>
	<path class="st5" d="M2639,96.5v24.1l-14.1-19.9L2639,96.5z"/>
</g>
</svg>
