<?xml version="1.0" encoding="UTF-8"?>
<svg width="1044px" height="522px" viewBox="0 0 1044 522" version="1.1" xmlns="http://www.w3.org/2000/svg" xmlns:xlink="http://www.w3.org/1999/xlink">
    <title>how-totp-works</title>
    <defs>
        <linearGradient x1="-3.88578059e-14%" y1="100%" x2="100%" y2="2.77555756e-15%" id="linearGradient-1">
            <stop stop-color="#E7E6F1" offset="0%"></stop>
            <stop stop-color="#F0F1FD" offset="100%"></stop>
        </linearGradient>
        <linearGradient x1="-3.88578059e-14%" y1="100%" x2="100%" y2="2.77555756e-15%" id="linearGradient-2">
            <stop stop-color="#DDE7EC" offset="0%"></stop>
            <stop stop-color="#E7F6FD" offset="100%"></stop>
        </linearGradient>
        <linearGradient x1="-3.88578059e-14%" y1="100%" x2="100%" y2="2.77555756e-15%" id="linearGradient-3">
            <stop stop-color="#E0A4F1" offset="0%"></stop>
            <stop stop-color="#F7D3FF" offset="100%"></stop>
        </linearGradient>
        <linearGradient x1="-4.02455846e-14%" y1="16.4987664%" x2="100%" y2="90.6198602%" id="linearGradient-4">
            <stop stop-color="#DF55F2" offset="0%"></stop>
            <stop stop-color="#4E1C86" offset="100%"></stop>
        </linearGradient>
        <rect id="path-5" x="0" y="0" width="134" height="134" rx="21.6129032"></rect>
        <filter x="-35.8%" y="-33.6%" width="171.6%" height="171.6%" filterUnits="objectBoundingBox" id="filter-6">
            <feOffset dx="0" dy="3" in="SourceAlpha" result="shadowOffsetOuter1"></feOffset>
            <feGaussianBlur stdDeviation="15.5" in="shadowOffsetOuter1" result="shadowBlurOuter1"></feGaussianBlur>
            <feColorMatrix values="0 0 0 0 0.286507751   0 0 0 0 0.0743351505   0 0 0 0 0.479959239  0 0 0 0.402179851 0" type="matrix" in="shadowBlurOuter1"></feColorMatrix>
        </filter>
        <filter x="-84.6%" y="-82.0%" width="269.2%" height="269.2%" filterUnits="objectBoundingBox" id="filter-7">
            <feOffset dx="0" dy="2" in="SourceAlpha" result="shadowOffsetOuter1"></feOffset>
            <feGaussianBlur stdDeviation="21" in="shadowOffsetOuter1" result="shadowBlurOuter1"></feGaussianBlur>
            <feColorMatrix values="0 0 0 0 0   0 0 0 0 0   0 0 0 0 0  0 0 0 0.5 0" type="matrix" in="shadowBlurOuter1" result="shadowMatrixOuter1"></feColorMatrix>
            <feMerge>
                <feMergeNode in="shadowMatrixOuter1"></feMergeNode>
                <feMergeNode in="SourceGraphic"></feMergeNode>
            </feMerge>
        </filter>
        <linearGradient x1="-3.88578059e-14%" y1="100%" x2="100%" y2="2.77555756e-15%" id="linearGradient-8">
            <stop stop-color="#0F2B45" offset="0%"></stop>
            <stop stop-color="#1C4D6E" offset="100%"></stop>
        </linearGradient>
        <linearGradient x1="-3.88578059e-14%" y1="100%" x2="100%" y2="2.77555756e-15%" id="linearGradient-9">
            <stop stop-color="#1C204A" offset="0%"></stop>
            <stop stop-color="#343D6E" offset="100%"></stop>
        </linearGradient>
        <rect id="path-10" x="301" y="326" width="104" height="104" rx="16.4210526"></rect>
        <linearGradient x1="-3.88578059e-14%" y1="100%" x2="100%" y2="2.77555756e-15%" id="linearGradient-11">
            <stop stop-color="#1C204A" offset="0%"></stop>
            <stop stop-color="#26256D" offset="58.4298514%"></stop>
            <stop stop-color="#362DA1" offset="100%"></stop>
        </linearGradient>
        <rect id="path-12" x="451" y="356" width="44" height="44" rx="6.94736842"></rect>
        <filter x="-38.6%" y="-36.4%" width="177.3%" height="177.3%" filterUnits="objectBoundingBox" id="filter-13">
            <feOffset dx="0" dy="1" in="SourceAlpha" result="shadowOffsetOuter1"></feOffset>
            <feGaussianBlur stdDeviation="5.5" in="shadowOffsetOuter1" result="shadowBlurOuter1"></feGaussianBlur>
            <feColorMatrix values="0 0 0 0 0.104525585   0 0 0 0 0.119364401   0 0 0 0 0.366677989  0 0 0 0.397727273 0" type="matrix" in="shadowBlurOuter1"></feColorMatrix>
        </filter>
        <rect id="path-14" x="451" y="135" width="44" height="44" rx="6.94736842"></rect>
        <filter x="-38.6%" y="-36.4%" width="177.3%" height="177.3%" filterUnits="objectBoundingBox" id="filter-15">
            <feOffset dx="0" dy="1" in="SourceAlpha" result="shadowOffsetOuter1"></feOffset>
            <feGaussianBlur stdDeviation="5.5" in="shadowOffsetOuter1" result="shadowBlurOuter1"></feGaussianBlur>
            <feColorMatrix values="0 0 0 0 0.104525585   0 0 0 0 0.119364401   0 0 0 0 0.366677989  0 0 0 0.397727273 0" type="matrix" in="shadowBlurOuter1"></feColorMatrix>
        </filter>
        <rect id="path-16" x="0" y="0" width="104" height="104" rx="17.7021277"></rect>
        <filter x="-39.9%" y="-38.0%" width="179.8%" height="179.8%" filterUnits="objectBoundingBox" id="filter-17">
            <feOffset dx="0" dy="2" in="SourceAlpha" result="shadowOffsetOuter1"></feOffset>
            <feGaussianBlur stdDeviation="13.5" in="shadowOffsetOuter1" result="shadowBlurOuter1"></feGaussianBlur>
            <feColorMatrix values="0 0 0 0 0.104525585   0 0 0 0 0.119364401   0 0 0 0 0.366677989  0 0 0 0.397727273 0" type="matrix" in="shadowBlurOuter1"></feColorMatrix>
        </filter>
        <filter x="-114.4%" y="-110.6%" width="328.8%" height="328.8%" filterUnits="objectBoundingBox" id="filter-18">
            <feOffset dx="0" dy="2" in="SourceAlpha" result="shadowOffsetOuter1"></feOffset>
            <feGaussianBlur stdDeviation="19.5" in="shadowOffsetOuter1" result="shadowBlurOuter1"></feGaussianBlur>
            <feColorMatrix values="0 0 0 0 0   0 0 0 0 0   0 0 0 0 0  0 0 0 0.340444712 0" type="matrix" in="shadowBlurOuter1" result="shadowMatrixOuter1"></feColorMatrix>
            <feMerge>
                <feMergeNode in="shadowMatrixOuter1"></feMergeNode>
                <feMergeNode in="SourceGraphic"></feMergeNode>
            </feMerge>
        </filter>
        <rect id="path-19" x="0" y="0" width="104" height="104" rx="17.7021277"></rect>
        <filter x="-39.9%" y="-38.0%" width="179.8%" height="179.8%" filterUnits="objectBoundingBox" id="filter-20">
            <feOffset dx="0" dy="2" in="SourceAlpha" result="shadowOffsetOuter1"></feOffset>
            <feGaussianBlur stdDeviation="13.5" in="shadowOffsetOuter1" result="shadowBlurOuter1"></feGaussianBlur>
            <feColorMatrix values="0 0 0 0 0.104525585   0 0 0 0 0.119364401   0 0 0 0 0.366677989  0 0 0 0.397727273 0" type="matrix" in="shadowBlurOuter1"></feColorMatrix>
        </filter>
        <filter x="-114.4%" y="-110.6%" width="328.8%" height="328.8%" filterUnits="objectBoundingBox" id="filter-21">
            <feOffset dx="0" dy="2" in="SourceAlpha" result="shadowOffsetOuter1"></feOffset>
            <feGaussianBlur stdDeviation="19.5" in="shadowOffsetOuter1" result="shadowBlurOuter1"></feGaussianBlur>
            <feColorMatrix values="0 0 0 0 0   0 0 0 0 0   0 0 0 0 0  0 0 0 0.340444712 0" type="matrix" in="shadowBlurOuter1" result="shadowMatrixOuter1"></feColorMatrix>
            <feMerge>
                <feMergeNode in="shadowMatrixOuter1"></feMergeNode>
                <feMergeNode in="SourceGraphic"></feMergeNode>
            </feMerge>
        </filter>
        <linearGradient x1="-3.88578059e-14%" y1="68.2271271%" x2="100%" y2="31.7728729%" id="linearGradient-22">
            <stop stop-color="#E2E8F0" offset="0%"></stop>
            <stop stop-color="#F1F5F9" offset="100%"></stop>
        </linearGradient>
        <rect id="path-23" x="0" y="0" width="106" height="64" rx="8"></rect>
        <rect id="path-24" x="0" y="0" width="106" height="64" rx="8"></rect>
        <linearGradient x1="-3.88578059e-14%" y1="65.2871972%" x2="100%" y2="34.7128028%" id="linearGradient-25">
            <stop stop-color="#1C204A" offset="0%"></stop>
            <stop stop-color="#26256D" offset="58.4298514%"></stop>
            <stop stop-color="#362DA1" offset="100%"></stop>
        </linearGradient>
        <rect id="path-26" x="0" y="0" width="170" height="94" rx="10.2294118"></rect>
        <filter x="-20.3%" y="-33.5%" width="140.6%" height="173.4%" filterUnits="objectBoundingBox" id="filter-27">
            <feOffset dx="0" dy="3" in="SourceAlpha" result="shadowOffsetOuter1"></feOffset>
            <feGaussianBlur stdDeviation="11" in="shadowOffsetOuter1" result="shadowBlurOuter1"></feGaussianBlur>
            <feColorMatrix values="0 0 0 0 0.220704638   0 0 0 0 0.0743351505   0 0 0 0 0.479959239  0 0 0 0.402179851 0" type="matrix" in="shadowBlurOuter1"></feColorMatrix>
        </filter>
        <polygon id="path-28" points="0 0 18.1038961 0 18.1038961 22.7320261 0 22.7320261"></polygon>
        <rect id="path-30" x="0" y="0" width="170" height="94" rx="10.2294118"></rect>
        <filter x="-20.3%" y="-33.5%" width="140.6%" height="173.4%" filterUnits="objectBoundingBox" id="filter-31">
            <feOffset dx="0" dy="3" in="SourceAlpha" result="shadowOffsetOuter1"></feOffset>
            <feGaussianBlur stdDeviation="11" in="shadowOffsetOuter1" result="shadowBlurOuter1"></feGaussianBlur>
            <feColorMatrix values="0 0 0 0 0.220704638   0 0 0 0 0.0743351505   0 0 0 0 0.479959239  0 0 0 0.402179851 0" type="matrix" in="shadowBlurOuter1"></feColorMatrix>
        </filter>
        <polygon id="path-32" points="0 0 18.1038961 0 18.1038961 22.7320261 0 22.7320261"></polygon>
        <linearGradient x1="2.77555756e-15%" y1="100%" x2="100%" y2="2.77555756e-15%" id="linearGradient-34">
            <stop stop-color="#112C38" offset="0%"></stop>
            <stop stop-color="#19555B" offset="100%"></stop>
        </linearGradient>
        <rect id="path-35" x="0" y="0" width="54" height="54" rx="8.52631579"></rect>
    </defs>
    <g id="how-totp-works" stroke="none" stroke-width="1" fill="none" fill-rule="evenodd">
        <rect id="Rectangle" stroke="#979797" fill="#D8D8D8" opacity="0" x="0.5" y="0.5" width="39" height="39"></rect>
        <rect id="Rectangle" stroke="#979797" fill="#D8D8D8" opacity="0" x="1004.5" y="482.5" width="39" height="39"></rect>
        <text id="How-Time-Based-One-T" font-family="InterVariable-SemiBold, Inter Variable" font-size="20" font-weight="500" letter-spacing="0.253399786" fill="#94A3B8">
            <tspan x="262" y="59">How Time-Based One-Time Passwords (TOTP) Works</tspan>
        </text>
        <g id="Group" transform="translate(40, 202)">
            <g id="Rectangle-Copy-8">
                <use fill="black" fill-opacity="1" filter="url(#filter-6)" xlink:href="#path-5"></use>
                <use fill="url(#linearGradient-1)" fill-rule="evenodd" xlink:href="#path-5"></use>
                <use fill="url(#linearGradient-2)" fill-rule="evenodd" xlink:href="#path-5"></use>
                <use fill="url(#linearGradient-3)" fill-rule="evenodd" xlink:href="#path-5"></use>
                <use fill="url(#linearGradient-4)" fill-rule="evenodd" xlink:href="#path-5"></use>
            </g>
            <g id="qr-code" filter="url(#filter-7)" transform="translate(29.1774, 29.1774)" fill="#E98DF5" fill-rule="nonzero">
                <path d="M8.40501792,50.4301075 L8.40501792,58.8351254 L0,58.8351254 L0,50.4301075 L8.40501792,50.4301075 Z M0,75.6451613 L8.40501792,75.6451613 L8.40501792,67.2401434 L0,67.2401434 L0,75.6451613 Z M8.40501792,58.8351254 L8.40501792,67.2401434 L16.8100358,67.2401434 L16.8100358,58.8351254 L8.40501792,58.8351254 Z M25.2150538,33.6200717 L16.8100358,33.6200717 L16.8100358,42.0250896 L8.40501792,42.0250896 L8.40501792,50.4301075 L25.2150538,50.4301075 L25.2150538,33.6200717 Z M0,33.6200717 L0,42.0250896 L8.40501792,42.0250896 L8.40501792,33.6200717 L0,33.6200717 Z M25.2150538,67.2401434 L16.8100358,67.2401434 L16.8100358,75.6451613 L37.8225806,75.6451613 L37.8225806,67.2401434 L33.6200717,67.2401434 L33.6200717,58.8351254 L25.2150538,58.8351254 L25.2150538,67.2401434 Z M42.0250896,4.20250896 L33.6200717,4.20250896 L33.6200717,12.6075269 L42.0250896,12.6075269 L42.0250896,4.20250896 Z M33.6200717,33.6200717 L42.0250896,33.6200717 L42.0250896,21.0125448 L33.6200717,21.0125448 L33.6200717,33.6200717 Z M4.20250896,25.2150538 C1.88152735,25.2150538 0,23.3335264 0,21.0125448 L0,4.20250896 C0,1.88152735 1.88152735,0 4.20250896,0 L21.0125448,0 C23.3335264,0 25.2150538,1.88152735 25.2150538,4.20250896 L25.2150538,21.0125448 C25.2150538,23.3335264 23.3335264,25.2150538 21.0125448,25.2150538 L4.20250896,25.2150538 Z M8.40501792,16.8100358 L16.8100358,16.8100358 L16.8100358,8.40501792 L8.40501792,8.40501792 L8.40501792,16.8100358 Z M75.6451613,4.20250896 L75.6451613,37.8225806 L67.2401434,37.8225806 L67.2401434,25.2150538 L54.6326165,25.2150538 C52.3116349,25.2150538 50.4301075,23.3335264 50.4301075,21.0125448 L50.4301075,4.20250896 C50.4301075,1.88152735 52.3116349,0 54.6326165,0 L71.4426523,0 C73.7636339,0 75.6451613,1.88152735 75.6451613,4.20250896 Z M67.2401434,8.40501792 L58.8351254,8.40501792 L58.8351254,16.8100358 L67.2401434,16.8100358 L67.2401434,8.40501792 Z M75.6451613,54.6326165 L75.6451613,71.4426523 C75.6451613,73.7636339 73.7636339,75.6451613 71.4426523,75.6451613 L54.6326165,75.6451613 C52.3116349,75.6451613 50.4301075,73.7636339 50.4301075,71.4426523 L50.4301075,58.8351254 L33.6200717,58.8351254 L33.6200717,42.0250896 L42.0250896,42.0250896 L42.0250896,50.4301075 L46.2275986,50.4301075 L46.2275986,33.6200717 L54.6326165,33.6200717 L54.6326165,50.4301075 L71.4426523,50.4301075 C73.7636339,50.4301075 75.6451613,52.3116349 75.6451613,54.6326165 Z M67.2401434,58.8351254 L58.8351254,58.8351254 L58.8351254,67.2401434 L67.2401434,67.2401434 L67.2401434,58.8351254 Z" id="Shape"></path>
            </g>
        </g>
        <g id="Group-4" transform="translate(301, 105)">
            <rect id="Rectangle" fill="url(#linearGradient-8)" x="0" y="0" width="104" height="104" rx="16.3605801"></rect>
            <path d="M69.20657,26 C70.7125198,26 71.9333333,27.2208135 71.9333333,28.7267633 L71.9333333,75.2732367 C71.9333333,76.7791865 70.7125198,78 69.20657,78 L34.79343,78 C33.2874802,78 32.0666667,76.7791865 32.0666667,75.2732367 L32.0666667,28.7267633 C32.0666667,27.2208135 33.2874802,26 34.79343,26 L69.20657,26 Z M52,42.4210526 C48.8545201,42.4210526 46.3047619,44.8705256 46.3047619,47.8947363 C46.3047619,49.837894 47.5656877,51.1981366 49.152381,52.1697161 L49.152381,58.8421049 C49.152381,60.3528406 50.4272601,61.5789474 52,61.5789474 C53.5727386,61.5789474 54.847619,60.3528406 54.847619,58.8421049 L54.847619,52.1697161 C56.434596,51.2008746 57.6952381,49.837894 57.6952381,47.8947363 C57.6952381,44.8705256 55.1454799,42.4210526 52,42.4210526 Z" id="Combined-Shape" fill="#38BDF8"></path>
        </g>
        <rect id="Rectangle" fill="#64748B" x="40" y="347" width="135" height="40" rx="6.58823538"></rect>
        <text id="Shared:-Secret-(QR-c" font-family="Inter-SemiBold, Inter" font-size="9.5" font-weight="500" letter-spacing="-0.0738758597" fill="#E2E8F0">
            <tspan x="49.6703349" y="365">Shared: Secret (QR code) </tspan>
            <tspan x="66.7416761" y="376">Issuer, and Period</tspan>
        </text>
        <rect id="Rectangle" fill="#64748B" x="301" y="221" width="104" height="40" rx="6.58823538"></rect>
        <text id="Authenticator-App-(U" font-family="Inter-Bold, Inter" font-size="9.5" font-weight="bold" letter-spacing="-0.0738758597" fill="#E2E8F0">
            <tspan x="310.44444" y="239">Authenticator App</tspan>
            <tspan x="317.623589" y="250" font-family="Inter-SemiBold, Inter" font-weight="500">(User’s Device )</tspan>
        </text>
        <rect id="Rectangle" fill="#64748B" x="301" y="442" width="104" height="40" rx="6.58823538"></rect>
        <text id="Web-Application-usin" font-family="Inter-Bold, Inter" font-size="9.5" font-weight="bold" letter-spacing="-0.0738758597" fill="#E2E8F0">
            <tspan x="315.258881" y="460">Web Application</tspan>
            <tspan x="312.844913" y="471">using FusionAuth</tspan>
        </text>
        <g id="Group-6" transform="translate(175, 268)">
            <path d="M117.40954,102.729225 L124.811872,115.19631 C125.148555,115.763356 124.961809,116.495973 124.394764,116.832657 C124.210281,116.942193 123.999694,117 123.785144,117 L108.980481,117 C108.321014,117 107.78641,116.465396 107.78641,115.805929 C107.78641,115.591379 107.844217,115.380792 107.953753,115.19631 L115.356085,102.729225 C115.692769,102.162179 116.425386,101.975434 116.992432,102.312117 C117.164163,102.414082 117.307575,102.557494 117.40954,102.729225 Z" id="Triangle-Copy-2" fill="#94A3B8" transform="translate(116.3828, 109) scale(1, -1) rotate(90) translate(-116.3828, -109)"></path>
            <path d="M53.5819754,108.845985 C53.2468766,96.8459846 57.4450507,90.8459846 66.1764979,90.8459846 C74.907945,90.8459846 92.7035782,90.8459846 119.563398,90.8459846" id="Path-7" stroke="#94A3B8" stroke-width="2" stroke-linecap="round" stroke-linejoin="round" transform="translate(86.5634, 99.846) scale(1, -1) translate(-86.5634, -99.846)"></path>
            <path d="M0.074317617,0 L0.074317617,74.4694934 C-0.662063206,86.1564978 4.07391305,92 14.2822464,92 C24.4905797,92 37.6090693,92 53.6377151,92" id="Path-8" stroke="#94A3B8" stroke-width="2" transform="translate(26.8189, 46) scale(-1, -1) translate(-26.8189, -46)"></path>
        </g>
        <g id="Group-6" transform="translate(238.1914, 208.25) scale(1, -1) translate(-238.1914, -208.25)translate(176, 149)">
            <path d="M117.40954,102.729225 L124.811872,115.19631 C125.148555,115.763356 124.961809,116.495973 124.394764,116.832657 C124.210281,116.942193 123.999694,117 123.785144,117 L108.980481,117 C108.321014,117 107.78641,116.465396 107.78641,115.805929 C107.78641,115.591379 107.844217,115.380792 107.953753,115.19631 L115.356085,102.729225 C115.692769,102.162179 116.425386,101.975434 116.992432,102.312117 C117.164163,102.414082 117.307575,102.557494 117.40954,102.729225 Z" id="Triangle-Copy-2" fill="#94A3B8" transform="translate(116.3828, 109) scale(1, -1) rotate(90) translate(-116.3828, -109)"></path>
            <path d="M53.5819754,108.845985 C53.2468766,96.8459846 57.4450507,90.8459846 66.1764979,90.8459846 C74.907945,90.8459846 92.7035782,90.8459846 119.563398,90.8459846" id="Path-7" stroke="#94A3B8" stroke-width="2" stroke-linecap="round" stroke-linejoin="round" transform="translate(86.5634, 99.846) scale(1, -1) translate(-86.5634, -99.846)"></path>
            <path d="M0.074317617,0 L0.074317617,74.4694934 C-0.662063206,86.1564978 4.07391305,92 14.2822464,92 C24.4905797,92 37.6090693,92 53.6377151,92" id="Path-8" stroke="#94A3B8" stroke-width="2" transform="translate(26.8189, 46) scale(-1, -1) translate(-26.8189, -46)"></path>
        </g>
        <circle id="Oval" fill="#E634FF" cx="174" cy="268" r="6"></circle>
        <g id="Rectangle-Copy-6">
            <use fill="url(#linearGradient-1)" xlink:href="#path-10"></use>
            <use fill="url(#linearGradient-9)" xlink:href="#path-10"></use>
        </g>
        <g id="Group" transform="translate(327, 354)">
            <path d="M49.2631579,21.7777778 C50.7746741,21.7777778 52,23.0031037 52,24.5146199 L52,43.5263158 C52,46.5493481 49.5493481,49 46.5263158,49 L5.47368421,49 C2.4506519,49 3.03474994e-15,46.5493481 2.66453526e-15,43.5263158 L0,24.5146199 C-1.85107342e-16,23.0031037 1.22532595,21.7777778 2.73684211,21.7777778 L49.2631579,21.7777778 Z M45.1578947,27.2222222 L6.84210526,27.2222222 C6.08634718,27.2222222 5.47368421,27.8348852 5.47368421,28.5906433 L5.47368421,40.8187135 C5.47368421,42.3302296 6.69901016,43.5555556 8.21052632,43.5555556 L43.7894737,43.5555556 C45.3009898,43.5555556 46.5263158,42.3302296 46.5263158,40.8187135 L46.5263158,28.5906433 C46.5263158,27.8348852 45.9136528,27.2222222 45.1578947,27.2222222 Z M38.3157895,32.6666667 C39.8273056,32.6666667 41.0526316,33.8854471 41.0526316,35.3888889 C41.0526316,36.8923307 39.8273056,38.1111111 38.3157895,38.1111111 C36.8042733,38.1111111 35.5789474,36.8923307 35.5789474,35.3888889 C35.5789474,33.8854471 36.8042733,32.6666667 38.3157895,32.6666667 Z" id="Combined-Shape" fill="#A5B4FC"></path>
            <path d="M46.5263158,0 C49.5493481,-5.55322027e-16 52,2.4506519 52,5.47368421 L52,13.5964912 C52,15.1080074 50.7746741,16.3333333 49.2631579,16.3333333 L2.73684211,16.3333333 C1.22532595,16.3333333 1.51737497e-15,15.1080074 1.33226763e-15,13.5964912 L0,5.47368421 C-3.70214685e-16,2.4506519 2.4506519,5.55322027e-16 5.47368421,0 L46.5263158,0 Z M8.21052632,5.44444444 C6.69901016,5.44444444 5.47368421,6.66322485 5.47368421,8.16666667 C5.47368421,9.67010849 6.69901016,10.8888889 8.21052632,10.8888889 C9.72204247,10.8888889 10.9473684,9.67010849 10.9473684,8.16666667 C10.9473684,6.66322485 9.72204247,5.44444444 8.21052632,5.44444444 Z M16.4210526,5.44444444 C14.9095365,5.44444444 13.6842105,6.66322485 13.6842105,8.16666667 C13.6842105,9.67010849 14.9095365,10.8888889 16.4210526,10.8888889 C17.9325688,10.8888889 19.1578947,9.67010849 19.1578947,8.16666667 C19.1578947,6.66322485 17.9325688,5.44444444 16.4210526,5.44444444 Z" id="Combined-Shape" fill="#6366F1"></path>
        </g>
        <g id="Group-3" transform="translate(399, 370)">
            <g id="Group" transform="translate(78.25, 9.5) scale(-1, 1) translate(-78.25, -9.5)translate(6, 0)">
                <path d="M8.95179854,3.10302912 L16.5072145,15.8279402 C16.8193274,16.353604 16.6462101,17.0327562 16.1205463,17.3448691 C15.9495274,17.4464116 15.7543087,17.5 15.5554159,17.5 L0.444584064,17.5 C-0.16675619,17.5 -0.662345386,17.0044108 -0.662345386,16.3930705 C-0.662345386,16.1941778 -0.608756943,15.9989591 -0.507214474,15.8279402 L7.04820146,3.10302912 C7.36031435,2.5773653 8.03946656,2.40424807 8.56513038,2.71636096 C8.72432864,2.81088493 8.85727457,2.94383086 8.95179854,3.10302912 Z" id="Triangle-Copy-2" fill="#94A3B8" transform="translate(8, 9.5) scale(-1, -1) rotate(90) translate(-8, -9.5)"></path>
                <line x1="144.114849" y1="8.97368421" x2="8.5" y2="9" id="Line-2" stroke="#94A3B8" stroke-width="2" stroke-linecap="round" stroke-linejoin="round"></line>
            </g>
            <circle id="Oval" fill="#6366F1" cx="6" cy="9.5" r="6"></circle>
        </g>
        <g id="Rectangle">
            <use fill="black" fill-opacity="1" filter="url(#filter-13)" xlink:href="#path-12"></use>
            <use fill="url(#linearGradient-2)" fill-rule="evenodd" xlink:href="#path-12"></use>
            <use fill="url(#linearGradient-1)" fill-rule="evenodd" xlink:href="#path-12"></use>
            <use fill="url(#linearGradient-11)" fill-rule="evenodd" xlink:href="#path-12"></use>
        </g>
        <g id="Group-119" transform="translate(462, 367)" fill="#5EEAD4">
            <rect id="Rectangle" x="8" y="0" width="6" height="22" rx="3"></rect>
            <rect id="Rectangle" transform="translate(11, 11) rotate(90) translate(-11, -11)" x="8" y="0" width="6" height="22" rx="3"></rect>
        </g>
        <g id="Group-3" transform="translate(399, 149)">
            <g id="Group" transform="translate(78.25, 9.5) scale(-1, 1) translate(-78.25, -9.5)translate(6, 0)">
                <path d="M8.95179854,3.10302912 L16.5072145,15.8279402 C16.8193274,16.353604 16.6462101,17.0327562 16.1205463,17.3448691 C15.9495274,17.4464116 15.7543087,17.5 15.5554159,17.5 L0.444584064,17.5 C-0.16675619,17.5 -0.662345386,17.0044108 -0.662345386,16.3930705 C-0.662345386,16.1941778 -0.608756943,15.9989591 -0.507214474,15.8279402 L7.04820146,3.10302912 C7.36031435,2.5773653 8.03946656,2.40424807 8.56513038,2.71636096 C8.72432864,2.81088493 8.85727457,2.94383086 8.95179854,3.10302912 Z" id="Triangle-Copy-2" fill="#94A3B8" transform="translate(8, 9.5) scale(-1, -1) rotate(90) translate(-8, -9.5)"></path>
                <line x1="144.114849" y1="8.97368421" x2="9.11484919" y2="8.54909024" id="Line-2" stroke="#94A3B8" stroke-width="2" stroke-linecap="round" stroke-linejoin="round"></line>
            </g>
            <circle id="Oval" fill="#0EA5E9" cx="6" cy="9.5" r="6"></circle>
        </g>
        <g id="Rectangle">
            <use fill="black" fill-opacity="1" filter="url(#filter-15)" xlink:href="#path-14"></use>
            <use fill="url(#linearGradient-2)" fill-rule="evenodd" xlink:href="#path-14"></use>
            <use fill="url(#linearGradient-1)" fill-rule="evenodd" xlink:href="#path-14"></use>
            <use fill="url(#linearGradient-11)" fill-rule="evenodd" xlink:href="#path-14"></use>
        </g>
        <g id="Group-119" transform="translate(462, 146)" fill="#5EEAD4">
            <rect id="Rectangle" x="8" y="0" width="6" height="22" rx="3"></rect>
            <rect id="Rectangle" transform="translate(11, 11) rotate(90) translate(-11, -11)" x="8" y="0" width="6" height="22" rx="3"></rect>
        </g>
        <g id="Group-132" transform="translate(549, 105)">
            <g id="Rectangle">
                <use fill="black" fill-opacity="1" filter="url(#filter-17)" xlink:href="#path-16"></use>
                <use fill="url(#linearGradient-4)" fill-rule="evenodd" xlink:href="#path-16"></use>
            </g>
            <g id="clock-solid" filter="url(#filter-18)" transform="translate(26, 26)" fill="#E98DF5" fill-rule="nonzero">
                <path d="M26,0 C40.3594035,0 52,11.6405965 52,26 C52,40.3594035 40.3594035,52 26,52 C11.6405965,52 0,40.3594035 0,26 C0,11.6405965 11.6405965,0 26,0 Z M23.5625,12.1875 L23.5625,26 C23.5625,26.8125 23.96875,27.5742188 24.6492188,28.03125 L34.3992188,34.53125 C35.5164063,35.2828125 37.0296875,34.978125 37.78125,33.8507813 C38.5328125,32.7234375 38.228125,31.2203125 37.1007813,30.46875 L28.4375,24.7 L28.4375,12.1875 C28.4375,10.8367188 27.3507813,9.75 26,9.75 C24.6492188,9.75 23.5625,10.8367188 23.5625,12.1875 Z" id="Shape"></path>
            </g>
        </g>
        <g id="Group-132" transform="translate(549, 326)">
            <g id="Rectangle">
                <use fill="black" fill-opacity="1" filter="url(#filter-20)" xlink:href="#path-19"></use>
                <use fill="url(#linearGradient-4)" fill-rule="evenodd" xlink:href="#path-19"></use>
            </g>
            <g id="clock-solid" filter="url(#filter-21)" transform="translate(26, 26)" fill="#E98DF5" fill-rule="nonzero">
                <path d="M26,0 C40.3594035,0 52,11.6405965 52,26 C52,40.3594035 40.3594035,52 26,52 C11.6405965,52 0,40.3594035 0,26 C0,11.6405965 11.6405965,0 26,0 Z M23.5625,12.1875 L23.5625,26 C23.5625,26.8125 23.96875,27.5742188 24.6492188,28.03125 L34.3992188,34.53125 C35.5164063,35.2828125 37.0296875,34.978125 37.78125,33.8507813 C38.5328125,32.7234375 38.228125,31.2203125 37.1007813,30.46875 L28.4375,24.7 L28.4375,12.1875 C28.4375,10.8367188 27.3507813,9.75 26,9.75 C24.6492188,9.75 23.5625,10.8367188 23.5625,12.1875 Z" id="Shape"></path>
            </g>
        </g>
        <g id="Group-3" transform="translate(644, 149)">
            <g id="Group" transform="translate(95.9727, 9.5) scale(-1, 1) translate(-95.9727, -9.5)translate(5.7227, 0)">
                <path d="M8.95179854,3.10302912 L16.5072145,15.8279402 C16.8193274,16.353604 16.6462101,17.0327562 16.1205463,17.3448691 C15.9495274,17.4464116 15.7543087,17.5 15.5554159,17.5 L0.444584064,17.5 C-0.16675619,17.5 -0.662345386,17.0044108 -0.662345386,16.3930705 C-0.662345386,16.1941778 -0.608756943,15.9989591 -0.507214474,15.8279402 L7.04820146,3.10302912 C7.36031435,2.5773653 8.03946656,2.40424807 8.56513038,2.71636096 C8.72432864,2.81088493 8.85727457,2.94383086 8.95179854,3.10302912 Z" id="Triangle-Copy-2" fill="#94A3B8" transform="translate(8, 9.5) scale(-1, -1) rotate(90) translate(-8, -9.5)"></path>
                <line x1="180.114849" y1="8.97368421" x2="7.11484919" y2="8.54909024" id="Line-2" stroke="#94A3B8" stroke-width="2" stroke-linecap="round" stroke-linejoin="round"></line>
            </g>
            <circle id="Oval" fill="#0EA5E9" cx="6" cy="9.5" r="6"></circle>
        </g>
        <g id="action-light-2l" transform="translate(682.5, 125)">
            <g id="Rectangle">
                <use fill="#CBD5E1" xlink:href="#path-23"></use>
                <use fill="url(#linearGradient-22)" xlink:href="#path-23"></use>
            </g>
            <text id="Hashed-&amp;-truncated" font-family="Inter-Medium, Inter" font-size="14" font-weight="400" letter-spacing="-0.108869688" fill="#475569">
                <tspan x="21.8886038" y="30">Hashed &amp;</tspan>
                <tspan x="21.3414761" y="47">truncated</tspan>
            </text>
        </g>
        <g id="Group-3" transform="translate(647, 370)">
            <g id="Group" transform="translate(95.9727, 9.5) scale(-1, 1) translate(-95.9727, -9.5)translate(5.7227, 0)">
                <path d="M8.95179854,3.10302912 L16.5072145,15.8279402 C16.8193274,16.353604 16.6462101,17.0327562 16.1205463,17.3448691 C15.9495274,17.4464116 15.7543087,17.5 15.5554159,17.5 L0.444584064,17.5 C-0.16675619,17.5 -0.662345386,17.0044108 -0.662345386,16.3930705 C-0.662345386,16.1941778 -0.608756943,15.9989591 -0.507214474,15.8279402 L7.04820146,3.10302912 C7.36031435,2.5773653 8.03946656,2.40424807 8.56513038,2.71636096 C8.72432864,2.81088493 8.85727457,2.94383086 8.95179854,3.10302912 Z" id="Triangle-Copy-2" fill="#94A3B8" transform="translate(8, 9.5) scale(-1, -1) rotate(90) translate(-8, -9.5)"></path>
                <line x1="180.114849" y1="8.97368421" x2="7.11484919" y2="8.54909024" id="Line-2" stroke="#94A3B8" stroke-width="2" stroke-linecap="round" stroke-linejoin="round"></line>
            </g>
            <circle id="Oval" fill="#6366F1" cx="6" cy="9.5" r="6"></circle>
        </g>
        <g id="action-light-2l" transform="translate(685.5, 346)">
            <g id="Rectangle">
                <use fill="#CBD5E1" xlink:href="#path-24"></use>
                <use fill="url(#linearGradient-22)" xlink:href="#path-24"></use>
            </g>
            <text id="Hashed-&amp;-truncated" font-family="Inter-Medium, Inter" font-size="14" font-weight="400" letter-spacing="-0.108869688" fill="#475569">
                <tspan x="21.8886038" y="30">Hashed &amp;</tspan>
                <tspan x="21.3414761" y="47">truncated</tspan>
            </text>
        </g>
        <g id="Group-128" transform="translate(831, 112)">
            <g id="Rectangle-Copy-8">
                <use fill="black" fill-opacity="1" filter="url(#filter-27)" xlink:href="#path-26"></use>
                <use fill="url(#linearGradient-25)" fill-rule="evenodd" xlink:href="#path-26"></use>
            </g>
            <g id="Group-3" transform="translate(130.5081, 45.249)">
                <mask id="mask-29" fill="white">
                    <use xlink:href="#path-28"></use>
                </mask>
                <g id="Clip-2"></g>
                <path d="M10.4613122,6.21442582 C10.4614636,7.91937194 10.4776579,9.62462518 10.4513232,11.3291106 C10.4436044,11.8278646 10.5907153,12.1842709 10.9412389,12.5349957 C13.1572865,14.7523623 15.3548695,16.9887701 17.5550255,19.2224138 C18.3285687,20.0078591 18.2945152,20.3175841 17.388996,20.9411801 C13.5058425,23.6161474 7.69586886,23.2459208 4.12948821,20.1554277 C1.03062369,17.4700185 -0.308963604,14.067497 0.0595704671,10.0022224 C0.485617043,5.30337067 4.07621347,1.28354904 8.69734317,0.181315117 C8.8680645,0.140622447 9.03696964,0.0910234558 9.20890176,0.0566266323 C10.1422692,-0.130252538 10.4567717,0.127416524 10.4597987,1.09958746 C10.4649446,2.80453358 10.4611609,4.5094797 10.4613122,6.21442582" id="Fill-1" fill="#6366F1" mask="url(#mask-29)"></path>
            </g>
            <text id="TOTP" opacity="0.701753162" font-family="InterVariable-SemiBold, Inter Variable" font-size="15.9124183" font-weight="500" letter-spacing="-0.123741415" fill="#A5B4FC">
                <tspan x="20.950755" y="35.4188889">TOTP</tspan>
            </text>
            <text id="765-234" font-family="InterVariable-SemiBold, Inter Variable" font-size="20.4588235" font-weight="500" letter-spacing="1.77312641" fill="#FFFFFF">
                <tspan x="21.0173611" y="66.560719">765 234</tspan>
            </text>
        </g>
        <g id="Group-128" transform="translate(834, 332)">
            <g id="Rectangle-Copy-8">
                <use fill="black" fill-opacity="1" filter="url(#filter-31)" xlink:href="#path-30"></use>
                <use fill="url(#linearGradient-25)" fill-rule="evenodd" xlink:href="#path-30"></use>
            </g>
            <g id="Group-3" transform="translate(130.5081, 45.249)">
                <mask id="mask-33" fill="white">
                    <use xlink:href="#path-32"></use>
                </mask>
                <g id="Clip-2"></g>
                <path d="M10.4613122,6.21442582 C10.4614636,7.91937194 10.4776579,9.62462518 10.4513232,11.3291106 C10.4436044,11.8278646 10.5907153,12.1842709 10.9412389,12.5349957 C13.1572865,14.7523623 15.3548695,16.9887701 17.5550255,19.2224138 C18.3285687,20.0078591 18.2945152,20.3175841 17.388996,20.9411801 C13.5058425,23.6161474 7.69586886,23.2459208 4.12948821,20.1554277 C1.03062369,17.4700185 -0.308963604,14.067497 0.0595704671,10.0022224 C0.485617043,5.30337067 4.07621347,1.28354904 8.69734317,0.181315117 C8.8680645,0.140622447 9.03696964,0.0910234558 9.20890176,0.0566266323 C10.1422692,-0.130252538 10.4567717,0.127416524 10.4597987,1.09958746 C10.4649446,2.80453358 10.4611609,4.5094797 10.4613122,6.21442582" id="Fill-1" fill="#6366F1" mask="url(#mask-33)"></path>
            </g>
            <text id="TOTP" opacity="0.701753162" font-family="InterVariable-SemiBold, Inter Variable" font-size="15.9124183" font-weight="500" letter-spacing="-0.123741415" fill="#A5B4FC">
                <tspan x="20.950755" y="35.4188889">TOTP</tspan>
            </text>
            <text id="765-234" font-family="InterVariable-SemiBold, Inter Variable" font-size="20.4588235" font-weight="500" letter-spacing="1.77312641" fill="#FFFFFF">
                <tspan x="21.0173611" y="66.560719">765 234</tspan>
            </text>
        </g>
        <g id="Group-3" transform="translate(915.75, 268.25) rotate(90) translate(-915.75, -268.25)translate(846.75, 261.75)">
            <g id="Group" transform="translate(66, 6) scale(-1, 1) translate(-66, -6)translate(6, 5)" stroke="#94A3B8" stroke-linecap="round" stroke-linejoin="round" stroke-width="2">
                <line x1="119.614849" y1="1.47368421" x2="0.25" y2="1.25" id="Line-2"></line>
            </g>
            <circle id="Oval" fill="#6366F1" cx="6" cy="7" r="6"></circle>
            <circle id="Oval" fill="#6366F1" cx="132" cy="6" r="6"></circle>
        </g>
        <g id="Group-2" transform="translate(889, 241)">
            <g id="Rectangle-Copy-6">
                <use fill="url(#linearGradient-1)" xlink:href="#path-35"></use>
                <use fill="url(#linearGradient-9)" xlink:href="#path-35"></use>
                <use fill="url(#linearGradient-34)" xlink:href="#path-35"></use>
            </g>
            <g id="Group-9" transform="translate(14, 14)" fill="#5EEAD4">
                <path d="M13.5,0 C20.9560497,0 27,6.04395032 27,13.5 C27,20.9560497 20.9560497,27 13.5,27 C6.04395032,27 0,20.9560497 0,13.5 C0,6.04395032 6.04395032,0 13.5,0 Z M19.3441918,10.0127727 C18.6792515,9.36829146 17.5598557,9.36829146 16.8949155,10.0127727 L13.0627251,13.6375358 L10.9136846,11.6205741 C10.2487438,10.9760929 9.11459201,10.9760929 8.44965115,11.6205741 C7.78471019,12.2650553 7.7653829,13.3393352 8.43032386,13.9838165 L11.765704,17.1475771 C12.430645,17.7920581 13.6041835,17.903387 14.2691246,17.2589061 L19.2699382,12.4738837 C19.9348793,11.8294025 20.0091328,10.6572538 19.3441918,10.0127727 Z" id="Combined-Shape"></path>
            </g>
        </g>
    </g>
</svg>