<svg height="102" viewBox="0 0 588 102" width="588" xmlns="http://www.w3.org/2000/svg"><g fill="none"><g fill="#fff"><path d="m130.758597 29.9726607h28.666653v7.1325582h-20.765139v11.6389024h19.56945v7.142506h-19.56945v18.4033927h-7.901514z"/><path d="m189.52673 74.2999678h-7.1841v-4.8246732h-.129533c-.744435 1.5555591-1.863996 2.9023037-3.258254 3.9194252-1.755414 1.1954681-3.856818 1.7794023-5.978447 1.6612793-1.756019.0431784-3.500363-.2962935-5.111572-.994778-1.332213-.5915915-2.503863-1.491911-3.417679-2.6262139-.862967-1.1243932-1.483769-2.4147683-1.823426-3.7901041-.382354-1.4512244-.573286-2.9460775-.568061-4.4466576v-18.9505207h7.532952v15.2101554c0 .8356135 0 1.7707049.119569 2.7853784.08086.9879204.302295 1.9593.657629 2.8848562.342797.8795824.905344 1.6569557 1.634109 2.258146.895865.6527547 1.99182.9729116 3.098828.905248 1.09015.0339359 2.173729-.1803843 3.168577-.6267102.829739-.3954385 1.558807-.9736574 2.132312-1.6911226.575371-.7212231.992881-1.554876 1.225582-2.4471538.253394-.9372909.380723-1.9040797.378635-2.8749084v-16.403889h7.522879z"/><path d="m212.792852 52.5740166c-1.30499-1.9650865-3.527717-3.1253216-5.88877-3.073864-1.04356.0024456-2.070365.2621441-2.989223.7560313-.926399.4614946-1.481504 1.4362516-1.404935 2.4670494-.038165.842826.432841 1.6265518 1.195689 1.9895559.948215.4774806 1.952371.8350437 2.989224 1.0644125 1.215617.2884856 2.520911.5968668 3.915882.905248 1.367329.3034015 2.687717.7885363 3.925847 1.442428 1.192851.6411739 2.217082 1.5546573 2.989223 2.666005.860162 1.3843951 1.274037 2.998992 1.185726 4.6257177.056789 1.5944082-.344252 3.1717845-1.155833 4.5461354-.752215 1.2118794-1.775359 2.2333498-2.989224 2.9843339-1.290752.7703527-2.702085 1.3184935-4.174948 1.6214881-1.524825.3362438-3.081685.5063511-4.643261.5073368-2.1924.0252766-4.37395-.3108317-6.456722-.994778-2.046529-.7259463-3.864802-1.9784681-5.270998-3.6309396l4.982039-4.6953521c.898309 1.0346595 1.946088 1.9298494 3.108793 2.6560572 1.225706.7103384 2.629475 1.0555287 4.045415.994778.566555-.00114 1.131264-.0645241 1.68393-.1890078.576526-.1142992 1.129207-.3262622 1.634108-.6267102.480265-.275746.897673-.6484268 1.225582-1.0942557.314538-.4483159.478507-.9846973.468312-1.5319581.057825-.9331623-.401174-1.8229265-1.19569-2.3178327-.92892-.5559845-1.936725-.9685085-2.989223-1.223577-1.205654-.3083811-2.520912-.5968668-3.915883-.8754046-1.360174-.2535095-2.678206-.6954832-3.915883-1.3131069-1.185345-.5946101-2.210456-1.4645288-2.989223-2.5366839-.860563-1.3400366-1.275517-2.9170643-1.185725-4.5063443-.052902-1.5141578.290529-3.0159239.996408-4.3571276.667007-1.2024652 1.596748-2.2394881 2.720193-3.0340728 1.181864-.8141079 2.501904-1.4073229 3.895954-1.7508093 1.454572-.3767252 2.951223-.5671716 4.453943-.5671716 2.034818-.0081036 4.0563.3282589 5.978447.9949262 1.918316.6564005 3.583427 1.8944965 4.76283 3.5414096z"/><path d="m222.019589 34.0413027c-.019333-1.2084166.468397-2.3698422 1.34515-3.2031851.905933-.8975759 2.141996-1.383277 3.417679-1.3429503 1.28957-.0185948 2.536114.462804 3.477463 1.3429503.900848.8304608 1.413167 1.9989322 1.413167 3.2230806 0 1.2241485-.512319 2.3926199-1.413167 3.2230807-.950637.8584505-2.196116 1.3180607-3.477463 1.2832636-1.275683.0403267-2.511746-.4453744-3.417679-1.3429503-.869616-.8300053-1.356508-1.9822313-1.34515-3.1832895zm1.066156 10.2064221h7.522879v30.052243h-7.522879z"/><path d="m234.813465 59.2688724c-.013891-2.2281774.440984-4.4344407 1.335187-6.4760047 1.632496-3.806692 4.776037-6.7649307 8.678712-8.1671272 4.133651-1.5116779 8.670189-1.5116779 12.80384 0 3.902674 1.4021965 7.046216 4.3604352 8.678712 8.1671272 1.705256 4.1426119 1.705256 8.789502 0 12.9321138-1.632496 3.806692-4.776038 6.7649308-8.678712 8.1671273-4.133651 1.5116778-8.670189 1.5116778-12.80384 0-3.896878-1.3953706-7.039482-4.3419204-8.678712-8.1372839-.89557-2.0446309-1.350475-4.254427-1.335187-6.4859525zm7.522842 0c-.003162 1.1538897.199274 2.2991465.597882 3.3822452.38272 1.0703202.979357 2.0518076 1.753677 2.8848561 1.682816 1.7791816 4.025583 2.787485 6.476651 2.787485s4.793836-1.0083034 6.476651-2.787485c.77432-.8330485 1.370957-1.8145359 1.753678-2.8848561.7967-2.1812664.7967-4.5732762 0-6.7545426-.382721-1.0703202-.979358-2.0518076-1.753678-2.8848561-1.682815-1.7791816-4.025583-2.7874849-6.476651-2.7874849s-4.793835 1.0083033-6.476651 2.7874849c-.77432.8330485-1.370957 1.8145359-1.753677 2.8848561-.397855 1.0798527-.600285 2.2217119-.597882 3.3722974z"/><path d="m271.560985 44.2477248h7.154208v4.8147255h.119569c.754845-1.5490491 1.876654-2.8909685 3.268218-3.9094775 1.754776-1.1968368 3.856655-1.780903 5.978447-1.6612792 1.756698-.0513477 3.502807.2884677 5.111572.9947779 1.322457.6078241 2.490643 1.5054823 3.417679 2.6262139.888486 1.1040377 1.527487 2.3867368 1.873246 3.7602608.382355 1.4512243.573286 2.9460775.568061 4.4466576v18.980364h-7.522987v-15.2101554c0-.8356135 0-1.7707048-.129533-2.7953262-.072384-.9859819-.294115-1.9553042-.657629-2.8749083-.346776-.8853446-.920628-1.6640951-1.664002-2.2581461-.888882-.6438683-1.972286-.9634412-3.068936-.9052479-1.090149-.033936-2.173729.1803842-3.168576.6267101-.828101.398054-1.556627.9758434-2.132313 1.6911226-.573396.718761-.990763 1.5487435-1.225582 2.437206-.253228.940713-.380546 1.9107659-.378635 2.8848562v16.403889h-7.522879z"/></g><path d="m321.301663 29.9726607h6.835358l19.13103 44.3273071h-9.037419l-4.135093-10.1467355h-19.23067l-3.985632 10.1467355h-8.838137zm10.033827 27.4260291-6.835358-18.0353249-6.974854 18.0353249z" fill="#f58320"/><path d="m375.924739 74.2999678h-7.154208v-4.8246732h-.09964c-.751012 1.5513474-1.869355 2.8966264-3.258254 3.9194252-1.756048 1.1941053-3.85698 1.7779084-5.978447 1.6612793-1.756019.0431784-3.500363-.2962935-5.111572-.994778-1.332214-.5915915-2.503863-1.491911-3.417679-2.6262139-.892685-1.1139408-1.534945-2.4065387-1.883211-3.7901041-.382354-1.4512244-.573285-2.9460775-.568061-4.4466576v-18.9505207h7.522988v15.2101554c0 .8356135 0 1.7707049.129533 2.7853784.071233.9893752.292985 1.9621482.657629 2.8848562.342798.8795824.905344 1.6569557 1.634109 2.258146.895865.6527547 1.99182.9729116 3.098828.905248 1.09838.0307437 2.189186-.190464 3.188505-.6466057.82974-.3954385 1.558808-.9736575 2.132313-1.6911226.575371-.7212232.99288-1.5548761 1.225582-2.4471539.253393-.9372908.380723-1.9040797.378635-2.8749083v-16.3839935h7.522879z" fill="#f58320"/><path d="m378.495472 50.6341995v-6.3864747h6.20762v-8.7043074h7.532843v8.7043074h8.320006v6.3864747h-8.270185v13.150965c-.064021 1.2422428.226206 2.4771356.836982 3.5613052.567953.8853524 1.683929 1.3230547 3.357895 1.3230547.738929-.0101047 1.475637-.0833222 2.202061-.2188512.670618-.1004221 1.310477-.3484715 1.873247-.7261879v6.326788c-.922482.4128748-1.904355.6780839-2.909511.7858746-1.011136.1328027-2.029243.2058803-3.049008.2188512-1.665493.0478343-3.327755-.1738861-4.922255-.6565535-1.161139-.3752374-2.195691-1.0638103-2.989223-1.989556-.768909-.9776144-1.285566-2.1287964-1.504576-3.3524018-.288249-1.5247364-.425088-3.0741496-.408527-4.6257176v-13.7975707z" fill="#f58320"/><path d="m411.516426 48.4357401h.129533c.709358-1.3931271 1.779336-2.5712693 3.098829-3.4120884 1.712566-1.0814125 3.714682-1.6158249 5.739309-1.5319581 1.756863-.0533623 3.503413.2865389 5.111572.9947779 1.324074.6051503 2.492818 1.5032373 3.417679 2.6262139.88889 1.1051659 1.530963 2.3872123 1.88321 3.7602608.382355 1.4512243.573286 2.9460775.568062 4.4466576v18.980364h-7.532952v-15.2101554c0-.8356135 0-1.7707048-.119569-2.7953262-.081927-.9845296-.303343-1.9524766-.657629-2.8749083-.353227-.8844476-.929954-1.6624403-1.673965-2.2581461-.889604-.642405-1.972478-.9618217-3.068936-.9052479-1.09015-.033936-2.17373.1803842-3.168577.6267101-.82974.3954385-1.558808.9736574-2.132313 1.6911226-.573396.718761-.990763 1.5487435-1.225582 2.437206-.253227.940713-.380546 1.9107659-.378635 2.8848562v16.403889h-7.522879v-47.3414844h7.532843z" fill="#f58320"/><path d="m27.6503168 90.1666767c-3.5852626-2.057165-6.8568243-4.616534-9.7149762-7.6001038-.8289316 1.0380254-1.8422352 1.9147853-2.9892234 2.5864227-.6335244.3571092-1.3010889.6503571-1.9928156.8754046 15.4636712 16.8587648 40.5222181 20.8607498 60.4819542 9.6592943.9438146-.5410339 1.5257909-1.5446373 1.5257909-2.6311878 0-1.0865504-.5819763-2.0901539-1.5257909-2.6311878-.9159451-.5485743-2.0554765-.5675354-2.9892235-.0497389-13.2970358 7.4964941-29.5727406 7.4170457-42.7957155-.2089033z" fill="#fff"/><path d="m27.6403527 15.5981188c3.5864098-2.0650842 7.4524184-3.6029274 11.478618-4.5660309-.5002863-1.26717842-.7571824-2.61705127-.7572699-3.97911198.0018722-.73487163.0752873-1.46782171.2192097-2.18851157-22.3486539 4.95439681-38.33343567 24.62654735-38.5809105 47.48075325.00356404 1.0857396.58610954 2.0873902 1.52882459 2.6287185.94271504.5413283 2.10286702.5403739 3.04468727-.0025046.92474485-.5187158 1.50489663-1.4878395 1.52450395-2.5466316.1629361-15.2122324 8.35141569-29.2104595 21.54233689-36.8266811z" fill="#fff"/><path d="m92.3171838 52.8823977c-.0013855 4.1325373-.5987151 8.2433498-1.7736059 12.2059259 1.3398814.1960668 2.630995.641481 3.8062778 1.313107.6306667.3602603 1.2275954.7764281 1.78357 1.2434725 6.8591863-21.8004389-2.2216043-45.4460506-21.9209718-57.0803609-.9434844-.4934672-2.0765099-.4596262-2.9887592.0892676-.9122492.5488938-1.4714713 1.5332659-1.4753116 2.596633-.0108946 1.056719.5386398 2.0404791 1.4449551 2.5864227 13.0985313 7.7591999 21.1274435 21.8397481 21.1238456 37.0455322z" fill="#fff"/><path d="m49.2125818 32.4098644c8.2948378-.0040216 15.7751536 4.9813984 18.9522438 12.6311396 3.1770901 7.6497411 1.4251379 16.4569728-4.4387733 22.3141384-5.8639112 5.8571657-14.68472 7.6105326-22.3485376 4.4423575-7.6638175-3.168175-12.6610416-10.6338313-12.6610416-18.9151022.0109752-11.2982422 9.1793624-20.4560825 20.4961087-20.4725333m0-6.078093c-14.6875294 0-26.5941245 11.8871214-26.5941245 26.5506263 0 14.663505 11.9065951 26.5506245 26.5941245 26.5506245s26.5941264-11.8871195 26.5941264-26.5506245c.0026426-7.0424724-2.7983811-13.7972617-7.7863203-18.7770421-4.9879391-4.9797803-11.7537953-7.7762224-18.8078061-7.7735842z" fill="#fff"/><ellipse cx="49.202618" cy="7.082819" fill="#f58320" rx="7.094424" ry="7.082819"/><ellipse cx="9.475838" cy="75.772239" fill="#f58320" rx="7.094424" ry="7.082819"/><ellipse cx="88.929397" cy="75.772239" fill="#f58320" rx="7.094424" ry="7.082819"/><path d="m55.0914235 48.037829c.0038876-2.8564994-2.0526641-5.3009918-4.8715324-5.7904389-2.8188683-.4894472-5.5813294 1.1183079-6.5436333 3.8084011-.962304 2.6900933.1550447 5.6812028 2.6467414 7.0852488l-1.8533185 9.3807564c-.0606181.2961646.0169379.6037794.2107729.8360009.1938349.2322214.4829171.3638528.7856349.3579371h7.5428071c.3027178.0059157.5918-.1257157.7856349-.3579371.193835-.2322215.271391-.5398363.2107729-.8360009l-1.8632826-9.3807564c1.8305857-1.0479959 2.956697-2.9964761 2.9494027-5.103211z" fill="#f58320"/><g fill="#fff" transform="translate(456.430186 30.133323)"><path d="m4.4914596 39.9448406h8.7333937c3.3685947 0 6.2901228-.5081249 8.7645843-1.5243747 2.4744615-1.0162499 4.5330472-2.3643364 6.175757-4.0442596 1.6427097-1.6799232 2.8591467-3.5879841 3.6493109-5.7241828.7901642-2.1361986 1.1852463-4.3449865 1.1852463-6.6263637s-.3950821-4.4901651-1.1852463-6.6263638c-.7901642-2.1361986-2.0066012-4.0442595-3.6493109-5.72418274-1.6427098-1.6799232-3.7012955-3.02800972-6.175757-4.04425956s-5.3959896-1.52437476-8.7645843-1.52437476h-8.7333937zm-4.4914596-39.9448406h14.6596251c2.7447808 0 5.4999586.45627544 8.2655333 1.36882631 2.7655746.91255088 5.2608299 2.29174709 7.485766 4.13758863 2.224936 1.84584155 4.0235992 4.14795853 5.3959896 6.90635096 1.3723904 2.7583924 2.0585857 5.9626904 2.0585857 9.6128939 0 3.6916831-.6861953 6.9063509-2.0585857 9.6440036-1.3723904 2.7376526-3.1710536 5.0293997-5.3959896 6.8752412-2.2249361 1.8458416-4.7201914 3.2250378-7.485766 4.1375886-2.7655747.9125509-5.5207525 1.3688264-8.2655333 1.3688264h-14.6596251z"/><path d="m69.7502776 29.4919851c0-1.6177038-.2599224-3.1317087-.7797673-4.5420146-.5198448-1.4103059-1.2580245-2.6339536-2.2145391-3.6709433-.9565145-1.0369896-2.1105701-1.8562114-3.4621667-2.4576654-1.3515967-.601454-2.8799406-.902181-4.5850317-.902181s-3.233435.300727-4.5850317.902181c-1.3515966.601454-2.4952553 1.4206758-3.4309761 2.4576654-.9357207 1.0369897-1.6635035 2.2606374-2.1833484 3.6709433-.5198448 1.4103059-.7797673 2.9243108-.7797673 4.5420146 0 1.6177039.2599225 3.1317087.7797673 4.5420146.5198449 1.4103059 1.2476277 2.6339537 2.1833484 3.6709433.9357208 1.0369896 2.0793795 1.8562114 3.4309761 2.4576654 1.3515967.601454 2.8799406.902181 4.5850317.902181s3.233435-.300727 4.5850317-.902181c1.3515966-.601454 2.5056522-1.4206758 3.4621667-2.4576654.9565146-1.0369896 1.6946943-2.2606374 2.2145391-3.6709433.5198449-1.4103059.7797673-2.9243107.7797673-4.5420146zm4.4914596 0c0 2.198418-.3846852 4.2309177-1.1540556 6.0974991-.7693704 1.8665813-1.8402508 3.4842851-3.2126412 4.8531114s-3.0047033 2.4369257-4.8969386 3.204298-3.9820116 1.1510585-6.269329 1.1510585c-2.2457298 0-4.3147123-.3836862-6.2069476-1.1510585s-3.5245482-1.8354717-4.8969386-3.204298c-1.3723905-1.3688263-2.4432709-2.9865301-3.2126413-4.8531114-.7693704-1.8665814-1.1540556-3.8990811-1.1540556-6.0974991s.3846852-4.2309177 1.1540556-6.097499 1.8402508-3.4842852 3.2126413-4.8531115c1.3723904-1.3688263 3.0047033-2.4369256 4.8969386-3.2042979 1.8922353-.7673724 3.9612178-1.1510585 6.2069476-1.1510585 2.2873174 0 4.3770937.3836861 6.269329 1.1510585 1.8922353.7673723 3.5245482 1.8354716 4.8969386 3.2042979s2.4432708 2.9865302 3.2126412 4.8531115 1.1540556 3.899081 1.1540556 6.097499z"/><path d="m102.383632 21.7767823c-.706989-1.0784693-1.694694-1.9910201-2.9631155-2.7376527-1.2684214-.7466325-2.7135902-1.1199488-4.3355061-1.1199488-1.7050912-.0414795-3.2334351.2281378-4.5850317.8088519-1.3515966.5807142-2.5056522 1.3895662-3.4621668 2.4265558-.9565145 1.0369896-1.6842973 2.2710073-2.1833484 3.702053s-.7485766 2.9761602-.7485766 4.6353436.2495255 3.204298.7485766 4.6353437 1.2268339 2.6650633 2.1833484 3.702053c.9565146 1.0369896 2.1105702 1.8458415 3.4621668 2.4265557s2.8799405.8503315 4.5850317.8088519c1.6219159 0 3.0670847-.3733163 4.3355061-1.1199488 1.2684215-.7466325 2.2561265-1.6591834 2.9631155-2.7376526l3.368595 2.5509945c-1.455566 1.700663-3.098275 2.9554204-4.928129 3.7642723-1.8298543.808852-3.7428834 1.2340177-5.7390876 1.2754973-2.3704926.0414796-4.5122534-.3214668-6.4252825-1.0888391-1.9130291-.7673724-3.545342-1.8354717-4.8969386-3.204298s-2.3808895-2.9969-3.0878785-4.8842212c-.706989-1.8873211-1.0604835-3.9301907-1.0604835-6.1286087s.3534945-4.2412876 1.0604835-6.1286087 1.7362819-3.5153948 3.0878785-4.8842212c1.3515966-1.3688263 2.9839095-2.4369256 4.8969386-3.2042979 1.9130291-.7673724 4.0547899-1.1303187 6.4252825-1.0888391 1.9962042.0414795 3.9092333.4666453 5.7390876 1.2754972 1.829854.8088519 3.472563 2.0636094 4.928129 3.7642724z"/><path d="m126.034068 21.8390016c-.623814-1.2029079-1.455566-2.1569384-2.495256-2.8620913-1.039689-.705153-2.308111-1.0577295-3.805264-1.0577295-.706989 0-1.424375.0829592-2.152158.2488775-.727783.1659184-1.382787.4251658-1.965013.7777423-.582227.3525764-1.050087.798482-1.403582 1.3377166-.353494.5392346-.530241 1.202908-.530241 1.9910201 0 1.3688263.478257 2.3643363 1.434772 2.9865301.956514.6221938 2.391286 1.1614284 4.304315 1.6177039l4.179553.99551c2.037792.4562754 3.732486 1.3791962 5.084082 2.7687623 1.351597 1.3895661 2.027395 3.1213388 2.027395 5.1953181 0 1.5762242-.322303 2.9346806-.966911 4.0753692s-1.497153 2.0739793-2.557637 2.799872c-1.060483.7258928-2.27692 1.2547575-3.649311 1.5865942-1.37239.3318366-2.765574.497755-4.179552.497755-2.24573 0-4.335507-.4251658-6.269329-1.2754973-1.933823-.8503315-3.58693-2.3124868-4.95932-4.3864661l3.555738-2.4265557c.831752 1.3273467 1.881839 2.3850761 3.15026 3.1731882 1.268422.7881122 2.775972 1.1821682 4.522651 1.1821682.831751 0 1.663503-.0933291 2.495255-.2799872s1.569931-.4770152 2.214539-.8710713c.644608-.394056 1.164453-.902181 1.559535-1.5243747.395082-.6221938.592623-1.3480866.592623-2.1776783 0-1.4517854-.540639-2.499145-1.621916-3.1420785-1.081278-.6429336-2.391287-1.1510585-3.930027-1.5243748l-3.992409-.9332907c-.499051-.1244387-1.174849-.3318367-2.027395-.6221938-.852545-.290357-1.684297-.7258927-2.495255-1.3066069s-1.50755-1.3377166-2.089777-2.2710073c-.582226-.9332906-.873339-2.0843491-.873339-3.4531755 0-1.493265.30151-2.799872.90453-3.9198208s1.413978-2.0324996 2.432874-2.7376526c1.018896-.7051529 2.172952-1.2340177 3.462167-1.5865941 1.289215-.3525765 2.620018-.5288647 3.992408-.5288647 2.037792 0 3.930028.394056 5.676706 1.1821681 1.746679.7881122 3.098276 2.1361987 4.05479 4.0442596z"/></g></g></svg>