<svg xmlns="http://www.w3.org/2000/svg" width="588" height="102"><g fill="none"><path fill="#1e293b" d="M130.759 29.973h28.666v7.132H138.66v11.64h19.57v7.142h-19.57V74.29h-7.901zM189.527 74.3h-7.184v-4.825h-.13a10.42 10.42 0 0 1-3.258 3.92 9.667 9.667 0 0 1-5.979 1.661c-1.756.043-3.5-.296-5.111-.995a9.165 9.165 0 0 1-3.418-2.626 10.269 10.269 0 0 1-1.823-3.79 17.218 17.218 0 0 1-.568-4.447v-18.95h7.533v15.21c0 .835 0 1.77.12 2.785.08.988.301 1.96.657 2.885.343.88.905 1.657 1.634 2.258a4.768 4.768 0 0 0 3.099.906 7.194 7.194 0 0 0 3.168-.627 6.076 6.076 0 0 0 2.133-1.691 6.591 6.591 0 0 0 1.225-2.447c.254-.938.38-1.905.379-2.875V44.248h7.523zm23.266-21.726a6.888 6.888 0 0 0-5.889-3.074 6.345 6.345 0 0 0-2.99.756 2.546 2.546 0 0 0-1.404 2.467 2.099 2.099 0 0 0 1.196 1.99c.948.477 1.952.835 2.989 1.064 1.215.289 2.52.597 3.916.905a15.68 15.68 0 0 1 3.926 1.443 8.594 8.594 0 0 1 2.989 2.666 7.948 7.948 0 0 1 1.186 4.626 8.355 8.355 0 0 1-1.156 4.546 9.24 9.24 0 0 1-2.99 2.984 13.425 13.425 0 0 1-4.174 1.622 21.626 21.626 0 0 1-4.644.507 19.958 19.958 0 0 1-6.456-.995 12.336 12.336 0 0 1-5.271-3.63l4.982-4.696a13.794 13.794 0 0 0 3.108 2.656 7.433 7.433 0 0 0 4.046.995 7.734 7.734 0 0 0 1.684-.19 5.157 5.157 0 0 0 1.634-.626c.48-.276.897-.648 1.225-1.094.315-.449.479-.985.469-1.532a2.545 2.545 0 0 0-1.196-2.318 10.751 10.751 0 0 0-2.99-1.224 76.133 76.133 0 0 0-3.915-.875 14.873 14.873 0 0 1-3.916-1.313 8.287 8.287 0 0 1-2.99-2.537 7.55 7.55 0 0 1-1.185-4.506 8.703 8.703 0 0 1 .996-4.357 9.157 9.157 0 0 1 2.72-3.034 11.877 11.877 0 0 1 3.897-1.751 17.765 17.765 0 0 1 4.454-.567 18.026 18.026 0 0 1 5.978.995 9.734 9.734 0 0 1 4.763 3.54zm9.227-18.533a4.324 4.324 0 0 1 1.345-3.203 4.647 4.647 0 0 1 3.417-1.343 4.987 4.987 0 0 1 3.478 1.343 4.384 4.384 0 0 1 0 6.446 4.987 4.987 0 0 1-3.478 1.284 4.647 4.647 0 0 1-3.417-1.343 4.344 4.344 0 0 1-1.345-3.184zm1.066 10.207h7.523V74.3h-7.523zm11.727 15.021a15.894 15.894 0 0 1 1.336-6.476 14.936 14.936 0 0 1 8.678-8.167 18.642 18.642 0 0 1 12.804 0 14.936 14.936 0 0 1 8.679 8.167 16.985 16.985 0 0 1 0 12.932 14.936 14.936 0 0 1-8.679 8.167 18.642 18.642 0 0 1-12.804 0 14.936 14.936 0 0 1-8.678-8.137 15.894 15.894 0 0 1-1.336-6.486zm7.523 0a9.731 9.731 0 0 0 .598 3.382 8.383 8.383 0 0 0 1.754 2.885 8.915 8.915 0 0 0 12.953 0 8.383 8.383 0 0 0 1.754-2.885 9.843 9.843 0 0 0 0-6.754 8.383 8.383 0 0 0-1.754-2.885 8.915 8.915 0 0 0-12.953 0 8.383 8.383 0 0 0-1.754 2.885 9.696 9.696 0 0 0-.598 3.372zm29.225-15.021h7.154v4.814h.12a10.599 10.599 0 0 1 3.268-3.909 9.647 9.647 0 0 1 5.978-1.661 11.854 11.854 0 0 1 5.112.994 9.683 9.683 0 0 1 3.418 2.627 9.822 9.822 0 0 1 1.873 3.76c.382 1.451.573 2.946.568 4.447V74.3h-7.523V59.09c0-.836 0-1.77-.13-2.796a9.765 9.765 0 0 0-.657-2.874 5.422 5.422 0 0 0-1.664-2.259 4.798 4.798 0 0 0-3.07-.905 7.194 7.194 0 0 0-3.168.627 6.166 6.166 0 0 0-2.132 1.691 6.621 6.621 0 0 0-1.226 2.437c-.253.94-.38 1.911-.378 2.885V74.3h-7.523z"/><path fill="#f58320" d="M321.302 29.973h6.835L347.268 74.3h-9.037l-4.135-10.147h-19.231L310.879 74.3h-8.838zm10.033 27.426L324.5 39.363 317.525 57.4zm44.59 16.901h-7.154v-4.825h-.1a10.608 10.608 0 0 1-3.258 3.92 9.687 9.687 0 0 1-5.979 1.661c-1.756.043-3.5-.296-5.111-.995a9.165 9.165 0 0 1-3.418-2.626 9.941 9.941 0 0 1-1.883-3.79 17.218 17.218 0 0 1-.568-4.447v-18.95h7.523v15.21c0 .835 0 1.77.13 2.785.07.99.292 1.962.657 2.885.343.88.905 1.657 1.634 2.258a4.768 4.768 0 0 0 3.099.906 7.205 7.205 0 0 0 3.188-.647 6.076 6.076 0 0 0 2.133-1.691 6.591 6.591 0 0 0 1.225-2.447c.254-.938.38-1.904.379-2.875V44.248h7.523zm2.57-23.666v-6.386h6.208v-8.705h7.533v8.705h8.32v6.386h-8.27v13.151a6.567 6.567 0 0 0 .837 3.561c.568.886 1.684 1.324 3.358 1.324.739-.01 1.475-.084 2.202-.22.67-.1 1.31-.348 1.873-.726v6.327a9.638 9.638 0 0 1-2.91.786c-1.01.133-2.029.206-3.049.219a15.458 15.458 0 0 1-4.922-.657 6.617 6.617 0 0 1-2.99-1.99 7.584 7.584 0 0 1-1.504-3.352 23.549 23.549 0 0 1-.408-4.625V50.634zm33.021-2.198h.13a8.76 8.76 0 0 1 3.099-3.412 9.976 9.976 0 0 1 5.74-1.532 11.794 11.794 0 0 1 5.11.994 9.594 9.594 0 0 1 3.418 2.627 9.942 9.942 0 0 1 1.884 3.76c.382 1.451.573 2.946.568 4.447V74.3h-7.533V59.09c0-.836 0-1.77-.12-2.796a10.43 10.43 0 0 0-.658-2.874 5.512 5.512 0 0 0-1.673-2.259 4.818 4.818 0 0 0-3.07-.905 7.194 7.194 0 0 0-3.168.627 6.076 6.076 0 0 0-2.132 1.691 6.621 6.621 0 0 0-1.226 2.437c-.253.94-.38 1.911-.379 2.885V74.3h-7.522V26.958h7.532z"/><path fill="#1e293b" d="M27.65 90.167a43.284 43.284 0 0 1-9.715-7.6 10.826 10.826 0 0 1-2.989 2.586 10.97 10.97 0 0 1-1.993.875c15.464 16.86 40.523 20.861 60.482 9.66a3.033 3.033 0 0 0 0-5.263 2.993 2.993 0 0 0-2.989-.05 43.206 43.206 0 0 1-42.796-.208zm-.01-74.569a43.096 43.096 0 0 1 11.479-4.566 10.837 10.837 0 0 1-.757-3.979c.002-.735.075-1.468.219-2.189C16.232 9.82.247 29.491 0 52.345a3.043 3.043 0 0 0 1.529 2.629c.943.541 2.103.54 3.045-.003a2.984 2.984 0 0 0 1.524-2.546A43.062 43.062 0 0 1 27.64 15.598zm64.677 37.284a42.989 42.989 0 0 1-1.773 12.206c1.34.196 2.63.642 3.806 1.313.63.36 1.227.777 1.783 1.244 6.86-21.8-2.221-45.446-21.92-57.08a3.053 3.053 0 0 0-2.99.089 3.044 3.044 0 0 0-1.475 2.596 2.984 2.984 0 0 0 1.445 2.587 43.05 43.05 0 0 1 21.124 37.045zM49.213 32.41a20.506 20.506 0 0 1 18.952 12.63 20.448 20.448 0 0 1-4.439 22.314 20.53 20.53 0 0 1-22.348 4.442 20.472 20.472 0 0 1-12.662-18.915c.011-11.298 9.18-20.456 20.497-20.472m0-6.078c-14.688 0-26.595 11.887-26.595 26.55 0 14.664 11.907 26.551 26.595 26.551s26.594-11.887 26.594-26.55a26.519 26.519 0 0 0-7.787-18.778 26.606 26.606 0 0 0-18.807-7.773z"/><ellipse cx="49.203" cy="7.083" fill="#f58320" rx="7.094" ry="7.083"/><ellipse cx="9.476" cy="75.772" fill="#f58320" rx="7.094" ry="7.083"/><ellipse cx="88.929" cy="75.772" fill="#f58320" rx="7.094" ry="7.083"/><path fill="#f58320" d="M55.091 48.038a5.872 5.872 0 0 0-4.871-5.79 5.88 5.88 0 0 0-6.544 3.808 5.865 5.865 0 0 0 2.647 7.085l-1.853 9.38a.994.994 0 0 0 .996 1.195h7.543a.998.998 0 0 0 .996-1.194l-1.863-9.381a5.858 5.858 0 0 0 2.95-5.103z"/><path fill="#1e293b" d="M460.922 70.078h8.733c3.369 0 6.29-.508 8.765-1.524 2.474-1.016 4.533-2.365 6.175-4.044 1.643-1.68 2.86-3.588 3.65-5.725.79-2.136 1.185-4.345 1.185-6.626s-.395-4.49-1.185-6.626c-.79-2.137-2.007-4.045-3.65-5.725-1.642-1.68-3.7-3.028-6.175-4.044s-5.396-1.524-8.765-1.524h-8.733zm-4.492-39.945h14.66c2.745 0 5.5.457 8.265 1.37a22.816 22.816 0 0 1 7.486 4.137c2.225 1.846 4.024 4.148 5.396 6.906 1.372 2.758 2.059 5.963 2.059 9.613 0 3.692-.687 6.906-2.059 9.644-1.372 2.738-3.171 5.03-5.396 6.875a22.816 22.816 0 0 1-7.486 4.138c-2.765.912-5.52 1.369-8.265 1.369h-14.66zm69.75 29.492c0-1.617-.26-3.131-.78-4.542-.52-1.41-1.257-2.634-2.214-3.67a10.4 10.4 0 0 0-3.462-2.458c-1.352-.602-2.88-.902-4.585-.902s-3.233.3-4.585.902c-1.352.601-2.495 1.42-3.431 2.457-.936 1.037-1.664 2.261-2.183 3.671-.52 1.41-.78 2.925-.78 4.542 0 1.618.26 3.132.78 4.542.52 1.41 1.247 2.634 2.183 3.671.936 1.037 2.08 1.856 3.43 2.458 1.353.601 2.88.902 4.586.902s3.233-.3 4.585-.902a10.4 10.4 0 0 0 3.462-2.458c.957-1.037 1.695-2.26 2.215-3.67.52-1.411.78-2.925.78-4.543zm4.492 0c0 2.199-.385 4.231-1.154 6.098-.77 1.866-1.84 3.484-3.213 4.853s-3.004 2.437-4.897 3.204-3.982 1.151-6.269 1.151c-2.246 0-4.315-.383-6.207-1.15s-3.525-1.836-4.897-3.205c-1.372-1.369-2.443-2.987-3.213-4.853-.769-1.867-1.154-3.9-1.154-6.098s.385-4.23 1.154-6.097 1.84-3.484 3.213-4.853c1.372-1.37 3.005-2.437 4.897-3.205 1.892-.767 3.961-1.15 6.207-1.15 2.287 0 4.377.383 6.27 1.15 1.892.768 3.524 1.836 4.896 3.205s2.443 2.986 3.213 4.853 1.154 3.899 1.154 6.097zm28.142-7.715c-.707-1.078-1.695-1.99-2.963-2.738-1.269-.746-2.714-1.12-4.336-1.12-1.705-.041-3.233.229-4.585.81a10.035 10.035 0 0 0-3.462 2.426c-.957 1.037-1.684 2.27-2.183 3.702s-.749 2.976-.749 4.635.25 3.205.749 4.636 1.226 2.665 2.183 3.702c.957 1.037 2.11 1.846 3.462 2.426s2.88.85 4.585.81c1.622 0 3.067-.374 4.336-1.12 1.268-.747 2.256-1.66 2.963-2.738l3.368 2.55c-1.455 1.701-3.098 2.956-4.928 3.765a14.82 14.82 0 0 1-5.739 1.275c-2.37.042-4.512-.321-6.425-1.089-1.913-.767-3.545-1.835-4.897-3.204s-2.38-2.997-3.088-4.884c-.707-1.887-1.06-3.93-1.06-6.129s.353-4.241 1.06-6.128 1.736-3.516 3.088-4.885c1.352-1.368 2.984-2.436 4.897-3.204 1.913-.767 4.055-1.13 6.425-1.089a14.82 14.82 0 0 1 5.74 1.276c1.83.809 3.472 2.063 4.927 3.764zm23.65.062c-.624-1.203-1.455-2.157-2.495-2.862-1.04-.705-2.308-1.057-3.805-1.057a9.66 9.66 0 0 0-2.152.248 6.594 6.594 0 0 0-1.965.778 4.332 4.332 0 0 0-1.404 1.338c-.354.54-.53 1.203-.53 1.99 0 1.37.478 2.365 1.435 2.987.956.623 2.39 1.162 4.304 1.618l4.18.996c2.037.456 3.732 1.379 5.083 2.768 1.352 1.39 2.028 3.122 2.028 5.196 0 1.576-.322 2.934-.967 4.075s-1.497 2.074-2.558 2.8c-1.06.726-2.277 1.255-3.649 1.587a17.721 17.721 0 0 1-4.18.497c-2.245 0-4.335-.425-6.269-1.275-1.934-.85-3.587-2.313-4.96-4.387l3.557-2.426c.831 1.327 1.881 2.385 3.15 3.173 1.268.788 2.776 1.182 4.522 1.182.832 0 1.664-.093 2.496-.28s1.57-.477 2.214-.87a4.76 4.76 0 0 0 1.56-1.525c.395-.623.592-1.348.592-2.178 0-1.452-.54-2.5-1.622-3.142-1.08-.643-2.39-1.151-3.93-1.524l-3.992-.934a26.68 26.68 0 0 1-2.027-.622c-.853-.29-1.685-.726-2.496-1.307s-1.507-1.337-2.09-2.27c-.582-.934-.873-2.085-.873-3.454 0-1.493.302-2.8.905-3.92s1.414-2.032 2.433-2.737c1.019-.705 2.173-1.234 3.462-1.587 1.29-.352 2.62-.529 3.992-.529 2.038 0 3.93.394 5.677 1.183 1.747.788 3.098 2.136 4.055 4.044z"/></g></svg>