<svg xmlns="http://www.w3.org/2000/svg" width="160" height="24" fill="none" fill-rule="evenodd"><path d="M.983 4.579C3.448 1.778 7.059 0 11.091 0s7.643 1.778 10.108 4.579a1.2 1.2 0 1 1-1.801 1.586C17.366 3.857 14.401 2.4 11.091 2.4S4.816 3.857 2.784 6.165A1.2 1.2 0 0 1 .983 4.579zM0 14.396C0 8.267 4.966 3.299 11.093 3.299s11.093 4.968 11.093 11.097a4.5 4.5 0 0 1-4.498 4.499 4.5 4.5 0 0 1-4.498-4.499 2.1 2.1 0 0 0-2.098-2.099 2.1 2.1 0 0 0-2.098 2.099 8.69 8.69 0 0 0 4.103 7.385 1.2 1.2 0 1 1-1.27 2.037c-3.138-1.957-5.233-5.444-5.233-9.422a4.5 4.5 0 0 1 4.498-4.499 4.5 4.5 0 0 1 4.498 4.499 2.1 2.1 0 0 0 2.098 2.099 2.1 2.1 0 0 0 2.098-2.099c0-4.804-3.893-8.697-8.693-8.697S2.4 9.592 2.4 14.396a15.35 15.35 0 0 0 .359 3.292 1.2 1.2 0 1 1-2.344.514A17.75 17.75 0 0 1 0 14.396h0zm11.092-1.2a1.2 1.2 0 0 1 1.2 1.2c0 2.982 2.416 5.398 5.395 5.398a1.67 1.67 0 0 0 .131-.006l.158-.01a1.2 1.2 0 1 1 .133 2.396l-.05.003c-.086.006-.241.016-.372.016a7.8 7.8 0 0 1-7.795-7.798 1.2 1.2 0 0 1 1.2-1.2h0z" fill="#1e293b"/><path d="M11.09 8.998c-2.979 0-5.395 2.416-5.395 5.398a11.93 11.93 0 0 0 2.167 6.874 1.2 1.2 0 1 1-1.965 1.377 14.33 14.33 0 0 1-2.601-8.251 7.8 7.8 0 0 1 7.795-7.798 7.8 7.8 0 0 1 7.795 7.798 1.2 1.2 0 0 1-2.4 0c0-2.982-2.416-5.398-5.395-5.398z" fill="#f58320"/><g fill-rule="nonzero"><path d="M48.44 6.751l-3.972 12.25h-3.71l-2.345-7.455-2.45 7.455h-3.71L28.28 6.751h3.57l2.468 7.823 2.59-7.823h3.185l2.468 7.893 2.572-7.893zm9.488 7.525c0 .023-.017.297-.052.822H50.98a1.93 1.93 0 0 0 .814 1.129c.403.263.907.394 1.514.394.455 0 .849-.064 1.181-.192s.668-.338 1.006-.63l1.75 1.82c-.922 1.027-2.269 1.54-4.042 1.54-1.108 0-2.083-.21-2.922-.63s-1.49-1.003-1.951-1.75-.691-1.592-.691-2.537c0-.933.225-1.77.674-2.511a4.7 4.7 0 0 1 1.864-1.741c.794-.42 1.686-.63 2.677-.63.945 0 1.803.195 2.573.586a4.46 4.46 0 0 1 1.829 1.697c.449.741.674 1.619.674 2.634zm-5.057-2.555c-.513 0-.942.146-1.286.438s-.563.688-.656 1.19h3.885c-.093-.502-.312-.898-.656-1.19s-.773-.437-1.286-.437zm11.972-2.363a4.72 4.72 0 0 1 2.354.595c.706.397 1.266.965 1.68 1.706s.621 1.601.621 2.581-.207 1.843-.621 2.59-.974 1.321-1.68 1.724-1.49.604-2.354.604c-1.248 0-2.182-.368-2.8-1.103V19h-3.167V6.015h3.325v4.323c.642-.653 1.523-.98 2.642-.98zm-.7 7.157c.583 0 1.062-.201 1.435-.604s.56-.96.56-1.671c0-.7-.187-1.248-.56-1.645S64.727 12 64.143 12s-1.062.198-1.435.595-.56.945-.56 1.645c0 .712.187 1.269.56 1.671s.852.604 1.435.604zm14.231.106h-5.18l-.962 2.38h-3.535l5.407-12.25h3.413l5.425 12.25h-3.605l-.963-2.38zm-1.015-2.555l-1.575-3.92-1.575 3.92h3.15zm15.613-4.55v9.485h-3.167v-1.015c-.35.385-.77.677-1.26.875a4.11 4.11 0 0 1-1.557.298c-1.225 0-2.202-.362-2.931-1.085s-1.094-1.808-1.094-3.255V9.516h3.325v4.76c0 .712.134 1.231.403 1.557s.659.49 1.173.49c.525 0 .954-.184 1.286-.551s.499-.93.499-1.689V9.516h3.325zm8.088 9.1a3.35 3.35 0 0 1-1.024.402c-.403.093-.831.14-1.286.14-1.237 0-2.187-.303-2.853-.91s-.998-1.511-.998-2.713V12.35h-1.382V9.866H94.9V7.398h3.325v2.468h2.17v2.485h-2.17v3.15c0 .338.09.604.271.796s.423.289.726.289c.385 0 .723-.099 1.015-.297l.823 2.328zm6.863-9.258c1.178 0 2.126.35 2.844 1.05s1.076 1.756 1.076 3.168v5.425h-3.325v-4.882c0-1.295-.519-1.942-1.557-1.942-.572 0-1.03.187-1.374.56s-.516.933-.516 1.68v4.585h-3.325V6.015h3.325v4.375a3.64 3.64 0 0 1 1.277-.77c.49-.175 1.015-.262 1.575-.262zm11.588 0c1.178 0 2.126.35 2.844 1.05s1.076 1.756 1.076 3.168v5.425h-3.325v-4.882c0-1.295-.519-1.942-1.558-1.942-.572 0-1.03.187-1.374.56s-.516.933-.516 1.68v4.585h-3.325V9.516h3.168v1.033a3.77 3.77 0 0 1 1.33-.884c.513-.204 1.073-.306 1.68-.306z" fill="#1e293b"/><path d="M126.321 19.158c-.56 0-1.032-.187-1.418-.56s-.578-.846-.578-1.418c0-.583.19-1.056.569-1.418s.855-.542 1.426-.542c.583 0 1.062.181 1.435.542s.56.834.56 1.418c0 .572-.19 1.044-.569 1.418s-.855.56-1.426.56z" fill="#f58320"/><path d="M144.454 9.516l-3.377 9.485h-3.22l-1.785-5.162-1.855 5.162h-3.22l-3.378-9.485h3.15l1.942 5.74 2.013-5.74h2.835l1.96 5.793 2.013-5.792zm7.614 9.1a3.35 3.35 0 0 1-1.024.402c-.403.093-.831.14-1.286.14-1.237 0-2.187-.303-2.853-.91s-.998-1.511-.998-2.713V12.35h-1.382V9.866h1.382V7.398h3.325v2.468h2.17v2.485h-2.17v3.15c0 .338.09.604.271.796s.423.289.726.289c.385 0 .723-.099 1.015-.297l.823 2.328zm4.308-8.75h2.257v2.485h-2.17v6.65h-3.325v-6.65h-1.382V9.866h1.382v-.245c0-1.155.347-2.071 1.041-2.748s1.665-1.015 2.914-1.015a6.06 6.06 0 0 1 1.225.122c.397.082.723.204.98.368l-.822 2.345a1.99 1.99 0 0 0-.998-.28c-.35 0-.621.105-.814.315s-.289.519-.289.928v.21z" fill="#1e293b"/></g></svg>