<svg xmlns="http://www.w3.org/2000/svg" width="508.34" height="100" viewBox="0 0 134.5 26.458" xmlns:v="https://vecta.io/nano"><path d="M67.71 11.69v10.259h-3.332v-1.576c-1.224 1.164-3.079 1.791-5.24 1.791-3.997 0-6.23-2.059-6.23-5.747V11.69h3.332v4.262c0 2.578 1.206 3.795 3.782 3.795 2.737 0 4.357-1.307 4.357-4.565V11.69h3.332zm17.477-2.667v12.926h-3.331v-1.307c-1.153.985-2.9 1.522-5.204 1.522-4.394 0-7.167-1.934-7.167-5.228 0-3.33 2.809-5.46 7.04-5.46 2.287 0 4.124.626 5.33 1.755V9.021h3.332zm-3.331 7.788c0-1.88-1.603-2.918-4.52-2.918s-4.519 1.038-4.519 2.918 1.603 2.936 4.519 2.936c2.9 0 4.52-1.056 4.52-2.936zm19.79-1.397v6.535h-3.061v-1.647c-1.296 1.27-3.061 1.861-5.78 1.861-3.782 0-5.726-1.128-5.726-3.295 0-2.094 1.872-3.097 6.266-3.312l5.24-.268c-.089-.931-1.368-1.397-3.835-1.397-2.611 0-4.647.536-6.61 1.754l-.053-.035v-2.776c2.017-.949 4.322-1.36 6.879-1.36 4.484 0 6.68 1.289 6.68 3.939zm-3.061 2.042v-.162l-5.672.304c-1.675.089-2.486.448-2.486 1.128 0 .698.775 1.02 2.756 1.02 3.331 0 5.402-.895 5.402-2.291zm12.732-5.98c2.269 0 4.25.447 6.105 1.396v3.008l-.072.018c-1.711-1.182-3.565-1.862-6.033-1.862-2.953 0-4.538.967-4.538 2.793s1.584 2.776 4.538 2.776c2.468 0 4.34-.663 6.033-1.844l.072.018v2.99c-1.855.949-3.836 1.397-6.105 1.397-4.934 0-7.869-2.095-7.869-5.336 0-3.258 2.935-5.353 7.869-5.353zm23.173.286l-7.527 11.997c-1.207 1.933-2.593 2.703-5.024 2.703h-.757v-2.416l.108-.072h.361c1.639 0 2.161-.376 2.935-1.665l.216-.358h-.018l-6.735-10.188.055-.071h3.709l4.647 7.198 4.483-7.198h3.494l.054.071zM49.06 21.95h3.673L44.865 9.024h-3.53L33.466 21.95h3.673l1.552-2.595h8.818l1.552 2.595zm-8.797-5.228l2.837-4.745 2.836 4.745h-5.672zm-27.28-1.352a6.49 6.49 0 0 1-6.495 6.483c-3.586 0-6.495-2.903-6.495-6.483a6.49 6.49 0 0 1 6.495-6.482 6.49 6.49 0 0 1 6.495 6.482zM16.135.003H6.863l11.718 21.849h9.273L16.135.003z" fill="#fe5000"/></svg>