<svg id="Layer_1" data-name="Layer 1" xmlns="http://www.w3.org/2000/svg" viewBox="0 0 222.71 40"><defs><style>.cls-1{fill:#f48120;}.cls-2{fill:#2baae1;}</style></defs><path class="cls-1" d="M.82,3.08A6.16,6.16,0,0,1,6.16,0h32a6.16,6.16,0,0,1,5.33,9.23l-16,27.69a6.15,6.15,0,0,1-10.66,0l-3.36-5.81a2.15,2.15,0,0,1,.06-2.24c2.35-3.62,3.84-4.06,5.59-4.54.5-.14,1.55,2.15,1.35,4-.09.77-.25,1.53-.33,2.3a5.45,5.45,0,0,0,.14.84A.83.83,0,0,0,21,31.2a9.4,9.4,0,0,0,1.47-1.62c2-2,2.07-7.81,1.46-9.19-.84-1.92.32-3.56,1.22-5.19,1.41-2.56,6.64-5,7.24-5.24C38.12,7.9,35.62,6.59,34,6.84c-1.28.19-2.91.61-3.45.7A8,8,0,0,0,29,6.91a19.55,19.55,0,0,0-11.88.71,22.68,22.68,0,0,0-10.23,7.8,1.52,1.52,0,0,1-2.54-.15l-3.49-6A6.19,6.19,0,0,1,.82,3.08Z"/><path class="cls-2" d="M57.38,4.55H67.54q4.9,0,7.44,2.88c1.7,1.92,2.55,4.72,2.55,8.42,0,4.07-.88,7.17-2.64,9.28s-4.35,3.18-7.75,3.18H57.38Zm5,19.67h4.19a5.28,5.28,0,0,0,4.53-2c1-1.37,1.51-3.41,1.51-6.14a9.12,9.12,0,0,0-1.41-5.55,5,5,0,0,0-4.23-1.85H62.34Z"/><path class="cls-2" d="M82.32,26.29a9.13,9.13,0,0,1-2.43-6.68,9.42,9.42,0,0,1,2.43-6.82,9.78,9.78,0,0,1,13.13,0,9.42,9.42,0,0,1,2.42,6.82,9.12,9.12,0,0,1-2.42,6.68,10,10,0,0,1-13.13,0ZM92,23.52a6.17,6.17,0,0,0,1.09-4,6.4,6.4,0,0,0-1.09-4,4.27,4.27,0,0,0-6.29,0,6.46,6.46,0,0,0-1.07,4,6.23,6.23,0,0,0,1.07,4,4.32,4.32,0,0,0,6.29,0Z"/><path class="cls-2" d="M101.25,4.55h4.64V28.31h-4.64Z"/><path class="cls-2" d="M110.22,10.73h4.41v2.6l.31-.44a5.79,5.79,0,0,1,4.94-2.63,6.59,6.59,0,0,1,5.37,2.47,10,10,0,0,1,2,6.51,11,11,0,0,1-2,6.9,6.44,6.44,0,0,1-5.37,2.62A5.91,5.91,0,0,1,115,26.3l-.09-.13v9h-4.64ZM118.56,25a3.44,3.44,0,0,0,2.9-1.4,6.35,6.35,0,0,0,1.05-3.89,6.56,6.56,0,0,0-1-4,3.61,3.61,0,0,0-5.8,0,7,7,0,0,0-1,4.08,6.1,6.1,0,0,0,1,3.77A3.46,3.46,0,0,0,118.56,25Z"/><path class="cls-2" d="M130.53,4.55h4.64V13l.37-.52a5.93,5.93,0,0,1,5-2.18,5.73,5.73,0,0,1,4.35,1.65,6.35,6.35,0,0,1,1.58,4.57V28.31h-4.64v-11a3.6,3.6,0,0,0-.7-2.42,2.77,2.77,0,0,0-2.16-.78,3.55,3.55,0,0,0-2.8,1.1,4.58,4.58,0,0,0-1,3.17v9.92h-4.64Z"/><path class="cls-2" d="M150.87,4.38h4.72V8.67h-4.72Zm0,6.35h4.64V28.31h-4.64Z"/><path class="cls-2" d="M159.94,10.73h4.41v2.6a7.7,7.7,0,0,1,.6-.89,5.92,5.92,0,0,1,5-2.18,5.74,5.74,0,0,1,4.36,1.65,6.34,6.34,0,0,1,1.57,4.57V28.31h-4.63v-11a3.55,3.55,0,0,0-.71-2.42,2.75,2.75,0,0,0-2.15-.78,3.57,3.57,0,0,0-2.81,1.1,4.62,4.62,0,0,0-1,3.17v9.92h-4.64Z"/><path class="cls-1" d="M178.63,4.55h5.28l5.22,18.15h0l5.21-18.15h5.12l-8,23.76h-4.72Z"/><path class="cls-1" d="M222.71,20a9.74,9.74,0,0,1-3.22,6.54A10.3,10.3,0,0,1,212.44,29a10.06,10.06,0,0,1-8-3.34q-3-3.34-2.95-9t2.95-9.23a10,10,0,0,1,8-3.42,10.68,10.68,0,0,1,7,2.28,9.15,9.15,0,0,1,3.26,6.2h-5a4.42,4.42,0,0,0-1.66-3.05,5.54,5.54,0,0,0-3.6-1.13,5,5,0,0,0-4.33,2.2,10.38,10.38,0,0,0-1.57,6.12,10,10,0,0,0,1.56,6,5.06,5.06,0,0,0,4.34,2.16,5.21,5.21,0,0,0,3.6-1.27,5.08,5.08,0,0,0,1.66-3.4Z"/></svg>