<svg xmlns="http://www.w3.org/2000/svg" viewBox="0 0 127 127" width="124"><style type="text/css">  
	.st0{fill:#BE1E2D;}
	.st1{fill:#FFFFFF;}
	.st2{fill:#939598;}
	.st3{fill:#696868;}
	.st4{fill:#D3B4AF;}
	.st5{fill:#9E3625;}
	.st6{fill:#6793B1;}
	.st7{fill:#E07127;}
	.st8{fill:#E12327;}
	.st9{fill:#005FA1;}
	.st10{fill:#F2A420;}
	.st11{fill:#006B3A;}
	.st12{fill:#F29321;}
	.st13{fill:#DE282D;}
	.st14{fill:#007F36;}
	.st15{fill:#EB8024;}
	.st16{fill:#009D4C;}
	.st17{fill:#FFFCF9;}
	.st18{fill:#E01F26;}
	.st19{fill:#E02528;}
	.st20{fill:#E02528;stroke:#E02528;stroke-width:1.2757;stroke-miterlimit:10;}
	.st21{fill:#EF9324;}
	.logomark,
	.logotext {
		transition: all 0.5s;
	}
	.logomark {
    	transform: scale(1) translate(0, 0);
	}
	.logotext {
	    opacity: 1;
	}
	.logo-mark .logomark {
	    transform: scale(2) translate(-60px, -17px);
	}
	.logo-mark .logotext {
	    opacity: 0;
	}
</style><g id="eots-logo"><path class="st0" d="M126.5 50.3c0-9.7-7.2-17.8-16.6-19.1 0.1-0.7 0.1-1.4 0.1-2.1 0-10.7-8.7-19.3-19.3-19.3 -3.5 0-6.7 0.9-9.6 2.5 -3-6.9-9.8-11.8-17.8-11.8 -7.7 0-14.3 4.4-17.4 10.9 -2.8-1.6-6-2.5-9.5-2.5 -10.7 0-19.3 8.7-19.3 19.3 0 0.6 0 1.2 0.1 1.8C7.8 31.3 0.5 39.4 0.5 49.2c0 5.4 2.2 10.3 5.8 13.8 -3.6 3.5-5.8 8.4-5.8 13.8 0 9.5 6.8 17.4 15.9 19 0 0.4 0 0.8 0 1.2 0 10.7 8.7 19.3 19.3 19.3 3.1 0 6-0.7 8.6-2 2.9 7 9.8 12 17.9 12 7.6 0 14.3-4.4 17.4-10.9 2.7 1.4 5.8 2.3 9.1 2.3 10.7 0 19.3-8.7 19.3-19.3 0-0.2 0-0.5 0-0.7 9.7-1 17.3-9.3 17.3-19.2 0-5.3-2.1-10-5.5-13.5C123.8 61.5 126.5 56.2 126.5 50.3z"/><path class="st0" d="M62.1 127c-7.9 0-15-4.6-18.2-11.8 -2.6 1.2-5.4 1.8-8.3 1.8 -10.9 0-19.9-8.9-19.9-19.9 0-0.3 0-0.5 0-0.8C6.6 94.4 0 86.3 0 76.9 0 71.7 2 66.8 5.6 63 2 59.3 0 54.4 0 49.2c0-9.7 7.1-18.1 16.7-19.6 0-0.5 0-0.9 0-1.4 0-10.9 8.9-19.9 19.9-19.9 3.2 0 6.4 0.8 9.2 2.3C49.2 4.1 55.9 0 63.3 0c7.8 0 14.8 4.5 18 11.5 2.9-1.5 6.1-2.3 9.3-2.3 10.9 0 19.9 8.9 19.9 19.9 0 0.5 0 1.1-0.1 1.7 9.4 1.6 16.5 9.9 16.5 19.6 0 5.7-2.4 11-6.6 14.8 3.4 3.7 5.3 8.5 5.3 13.5 0 10-7.4 18.4-17.2 19.7 0 0.1 0 0.2 0 0.3 0 10.9-8.9 19.9-19.9 19.9 -3.1 0-6.1-0.7-8.8-2.1C76.3 122.9 69.6 127 62.1 127zM44.5 113.8l0.2 0.5c2.9 7.1 9.8 11.7 17.4 11.7 7.3 0 13.8-4.1 16.9-10.6l0.2-0.5 0.5 0.2c2.7 1.4 5.8 2.2 8.8 2.2 10.4 0 18.8-8.4 18.8-18.8 0-0.2 0-0.5 0-0.7v-0.5l0.5-0.1c9.6-1 16.8-9.1 16.8-18.7 0-5-1.9-9.6-5.4-13.2l-0.4-0.4 0.4-0.4c4.2-3.6 6.7-8.8 6.7-14.4 0-9.3-6.9-17.3-16.1-18.6l-0.5-0.1 0.1-0.5c0.1-0.7 0.1-1.4 0.1-2 0-10.4-8.4-18.8-18.8-18.8 -3.3 0-6.5 0.9-9.3 2.5L80.9 13l-0.2-0.5C77.7 5.5 70.9 1 63.3 1 56 1 49.5 5.1 46.4 11.6l-0.2 0.5 -0.5-0.3c-2.8-1.6-6-2.4-9.2-2.4 -10.4 0-18.8 8.4-18.8 18.8 0 0.6 0 1.1 0.1 1.7v0.5l-0.5 0.1C8 31.8 1 39.8 1 49.2c0 5.1 2 9.9 5.7 13.5L7.1 63l-0.4 0.4C3 67 1 71.8 1 76.9 1 86 7.5 93.8 16.5 95.4l0.4 0.1V96c0 0.4 0 0.8 0 1.2 0 10.4 8.4 18.8 18.8 18.8 2.9 0 5.7-0.7 8.3-1.9L44.5 113.8z"/><path class="st1" d="M62.1 124.8c-7.2 0-13.6-4.3-16.3-10.9l-0.7-1.7 -1.7 0.8c-2.4 1.2-5.1 1.8-7.8 1.8 -9.7 0-17.6-7.9-17.6-17.6 0-0.4 0-0.7 0-1.1l0.1-1.5 -1.5-0.3C8.3 92.7 2.2 85.4 2.2 76.9c0-4.8 1.9-9.2 5.3-12.6L8.8 63l-1.3-1.2C4.1 58.5 2.2 54 2.2 49.2c0-8.8 6.5-16.3 15.2-17.4l1.6-0.2v-1.7c-0.1-0.6-0.1-1.1-0.1-1.6 0-9.7 7.9-17.6 17.6-17.6 3 0 6 0.8 8.6 2.2l1.6 0.9 0.8-1.7c3-6.1 9-9.9 15.8-9.9 7.1 0 13.4 4.2 16.2 10.7l0.8 1.8 1.7-1c2.6-1.5 5.7-2.3 8.7-2.3 9.7 0 17.6 7.9 17.6 17.6 0 0.6 0 1.3-0.1 1.9l-0.2 1.7 1.7 0.2c8.6 1.2 15.1 8.7 15.1 17.4 0 5.2-2.3 10.1-6.2 13.4l-1.4 1.2 1.3 1.3c3.2 3.3 5 7.7 5 12.3 0 9-6.8 16.5-15.7 17.5l-1.6 0.2 0.1 1.6c0 0.3 0 0.5 0 0.7 0 9.7-7.9 17.6-17.6 17.6 -2.9 0-5.7-0.7-8.3-2.1l-1.6-0.8 -0.8 1.6C75 121 68.9 124.8 62.1 124.8z"/><path class="st2" d="M63.3 4.4c6.2 0 11.8 3.7 14.2 9.4l1.5 3.5 0.2 0.5 0.5-0.3 3.3-1.9c2.3-1.3 5-2 7.7-2 8.5 0 15.5 6.9 15.5 15.5 0 0.6 0 1.1-0.1 1.7l-0.3 3.2 -0.1 0.5 0.5 0.1 3.2 0.5c7.5 1.1 13.2 7.7 13.2 15.3 0 4.6-2 8.9-5.5 11.8l-2.8 2.3 -0.4 0.3 0.4 0.4 2.5 2.6c2.9 2.9 4.4 6.8 4.4 10.8 0 7.9-5.9 14.5-13.8 15.4l-3.1 0.3h-0.5v0.5l0.1 3.4c0 0.1 0 0.2 0 0.3 0 8.5-6.9 15.5-15.5 15.5 -2.5 0-5-0.6-7.3-1.8l-3.1-1.6 -0.5-0.2 -0.2 0.5 -1.5 3.1c-2.6 5.4-8 8.7-13.9 8.7 -6.3 0-11.9-3.8-14.3-9.6l-1.4-3.3 -0.2-0.5 -0.5 0.2 -3.2 1.6c-2.1 1.1-4.4 1.6-6.8 1.6 -8.5 0-15.5-6.9-15.5-15.5 0-0.3 0-0.6 0-1l0.2-3v-0.4L20 92.6l-2.9-0.5C9.7 90.8 4.4 84.4 4.4 76.9c0-4.2 1.7-8.1 4.7-11.1l2.5-2.4L12 63l-0.4-0.4L9 60.3c-3-2.9-4.7-6.9-4.7-11.1 0-7.7 5.8-14.3 13.4-15.3l3.2-0.4 0.5-0.1v-0.5l-0.3-3.2c0-0.5-0.1-1-0.1-1.4 0-8.5 6.9-15.5 15.5-15.5 2.6 0 5.3 0.7 7.6 2l3.1 1.7 0.5 0.3 0.2-0.5 1.6-3.2C52 7.7 57.4 4.4 63.3 4.4M63.3 3.9c-6.2 0-11.7 3.4-14.4 9l-1.6 3.2 -3.1-1.7c-2.4-1.3-5.1-2-7.8-2 -8.8 0-16 7.2-16 16 0 0.5 0 1 0.1 1.5l0.3 3.2 -3.2 0.4c-7.8 1-13.7 7.8-13.7 15.7 0 4.3 1.7 8.4 4.8 11.4l2.5 2.4 -2.5 2.4c-3.1 3-4.8 7.1-4.8 11.4 0 7.7 5.5 14.3 13.1 15.7l2.9 0.5 -0.2 3c0 0.4 0 0.7 0 1 0 8.8 7.2 16 16 16 2.5 0 4.9-0.6 7.1-1.6l3.2-1.6 1.4 3.3c2.5 6 8.3 9.9 14.8 9.9 6.2 0 11.7-3.4 14.4-9l1.4-3 3.1 1.6c2.3 1.2 4.9 1.9 7.5 1.9 8.8 0 16-7.2 16-16 0-0.1 0-0.2 0-0.3l-0.1-3.4 3.1-0.3c8.1-0.9 14.3-7.7 14.3-15.9 0-4.2-1.6-8.2-4.6-11.2l-2.5-2.6 2.8-2.3c3.6-3 5.6-7.5 5.6-12.2 0-7.9-5.9-14.7-13.7-15.8l-3.2-0.5 0.3-3.2c0.1-0.6 0.1-1.2 0.1-1.7 0-8.8-7.2-16-16-16 -2.8 0-5.5 0.7-7.9 2.1l-3.3 1.9L78 13.6C75.5 7.7 69.8 3.9 63.3 3.9L63.3 3.9z"/><path class="st3" d="M111.1 100.8h-1.5v-0.5h3.7v0.5h-1.5v4.4h-0.6L111.1 100.8 111.1 100.8z"/><path class="st3" d="M117.9 103.1c0-0.7-0.1-1.5-0.1-2.1l0 0c-0.2 0.6-0.4 1.2-0.6 1.9l-0.9 2.4h-0.5l-0.8-2.4c-0.2-0.7-0.4-1.3-0.6-1.9l0 0c0 0.6-0.1 1.4-0.1 2.2l-0.1 2.1h-0.6l0.3-4.9h0.8l0.8 2.4c0.2 0.6 0.4 1.1 0.5 1.7l0 0c0.1-0.5 0.3-1 0.5-1.7l0.9-2.4h0.8l0.3 4.9h-0.6L117.9 103.1z"/>
<g class="logomark">
<path class="st4" d="M92.6 41.7C92.5 41.9 92.3 42 92 42l0 0c0.2 0.1 0.4 0 0.7 0 -0.1 0.2-0.1 0.3 0 0.4 0.1 0.1 0.2-0.1 0.3-0.1 0.1 0 0.1 0 0.2-0.1 0.2-0.1 0.3-0.3 0.5-0.4 0-0.2 0.2-0.2 0.3-0.3 0 0 0.1-0.1 0.1-0.2 0-0.2 0.1-0.4 0.2-0.5 0-0.1 0-0.1 0-0.2 0.2-0.1 0.4 0.2 0.5 0 -0.2-0.1-0.4-0.1-0.6-0.1s-0.3 0-0.4 0.1c0 0.1 0 0.1-0.1 0.2 0 0.1-0.1 0.1-0.1 0.2 -0.2 0.2-0.4 0.4-0.6 0.5"/><polygon class="st4" points="94.8 40.6 94.8 40.6 94.8 40.6 94.8 40.6 "/><path class="st4" d="M94.3 32.5C94.3 32.6 94.3 32.6 94.3 32.5 94.3 32.6 94.3 32.6 94.3 32.5z"/><path class="st5" d="M88.8 70.6c-0.1-0.1 0-0.2 0-0.3 0-0.1 0.1-0.2 0-0.3 -0.1-0.1 0.1 0 0.1-0.2h-0.1c0-0.1 0-0.2 0.1-0.2 0.2 0 0 0.2 0.2 0.2 0-0.1 0.1-0.2 0.1-0.3 0.1-0.2 0.1-0.5 0.1-0.7 0.1-0.2 0-0.5 0.2-0.7 0 0 0-0.1 0.1-0.2l0 0 0 0v-0.1l0 0v-0.1l0 0 0 0c0 0.1 0 0.1 0 0.2 0 0.2-0.1 0.4-0.1 0.6 0 0.1 0 0.1 0 0.1 0.1 0.1 0 0.1-0.1 0.1l0 0 0 0 0 0c-0.1 0.2-0.1 0.3 0 0.5 0 0 0.1 0.1 0 0.1 0 0 0 0.1-0.1 0.1s0-0.1 0-0.1 0-0.1 0-0.2c-0.1 0.1 0 0.3-0.1 0.5S89.1 70 89 70.1C88.9 70.3 88.9 70.5 88.8 70.6z"/><path class="st5" d="M90 70.4c0.1 0.1 0.2 0.1 0 0.2 -0.2 0.2-0.4 0.4-0.6 0.6 -0.1 0.1-0.1 0.3-0.3 0.2 0.1-0.3 0.3-0.4 0.5-0.6C89.8 70.7 89.9 70.5 90 70.4z"/><path class="st5" d="M86.4 48.3c0-0.5 0.1-1 0.1-1.5C86.6 47.3 86.6 47.8 86.4 48.3z"/><path class="st4" d="M93.7 55.6L93.7 55.6 93.7 55.6C93.6 55.5 93.6 55.5 93.7 55.6 93.7 55.5 93.7 55.6 93.7 55.6z"/><path class="st5" d="M94 53.6L94 53.6 94 53.6 94 53.6z"/><path class="st6" d="M104.7 57L104.7 57 104.7 57 104.7 57z"/><path class="st6" d="M80.9 56.7c0-0.1 0-0.3-0.1-0.4 0-0.2 0.1-0.3 0.1-0.5h-0.1c0-0.3-0.2-0.2-0.4-0.2 -0.4 0-0.7 0-1.1 0 -0.5 0-1 0-1.5 0 -0.1 0-0.1-0.1-0.2 0 -0.4 0.1-0.7 0-1.1 0 -0.1 0-0.2 0-0.3-0.1l-0.1 0.1c0 0 0 0.1-0.1 0.1 0 0 0-0.1 0.1-0.1 -0.3 0-0.5 0.1-0.8 0 0 0-0.1 0-0.1-0.1 -0.2 0.1-0.4 0.1-0.6 0l0 0c0 0 0 0-0.1-0.1 -0.1 0-0.2-0.1-0.3 0h-0.1c0-0.2-0.1-0.1-0.2 0 -0.1 0-0.2 0.1-0.3 0 -0.1-0.1-0.2 0-0.3 0.1l0 0c-0.1 0.2-0.4 0.1-0.5 0.1h-0.1c0 0 0 0-0.1 0 0 0.2-0.2 0.2-0.3 0.2 -0.2 0-0.3-0.1-0.5-0.1 -0.1 0-0.1-0.1-0.1-0.1 -0.1 0-0.2 0-0.2 0 -0.1 0-0.1 0-0.2 0 -0.1 0.1-0.2 0-0.3 0.1 -0.5 0.1-0.9 0.1-1.4 0.1 -0.2 0-0.3 0-0.5 0 -0.3-0.1-0.7-0.1-1-0.1s-0.5 0-0.8 0 -0.6 0-0.9 0.1c0 0-0.1 0-0.1 0.1 0 0.2 0 0.4 0 0.6 0 0.3 0.2 0.5 0.4 0.5 0.1 0 0.2 0 0.3 0 0.5 0 1 0 1.4 0 0.2 0 0.3 0 0.5 0 0.2 0.1 0.4 0.2 0.6 0.3v-0.1c0.1 0 0.2-0.1 0.2-0.1 0-0.1-0.1 0-0.1-0.2 0.3 0.1 0.6 0 0.9 0 0.2 0 0.5 0.2 0.7 0 0 0 0 0 0.1 0 0.4 0.1 0.7 0.1 1.1 0 0.4 0 0.9-0.1 1.3-0.1 0.3 0 0.6 0 0.9 0s0.6-0.1 0.9 0 0.6 0 0.8 0c0.6 0 1.2 0 1.8 0 0.3 0 0.6 0 1 0 0.2 0 0.5-0.1 0.7 0s0.4 0.1 0.7 0.1C80.9 56.8 80.9 56.8 80.9 56.7L80.9 56.7z"/><path class="st4" d="M99.2 56.1C99.2 56.1 99.3 56.1 99.2 56.1L99.2 56.1C99.3 56.1 99.2 56.1 99.2 56.1L99.2 56.1z"/><path class="st4" d="M94.5 33.5c-1.4-1.4-5.1-1.3-6.7-0.3 0.2-0.1 0.4-0.1 0.6-0.1 0 0.3-0.2 0.4-0.7 0.3 -0.4 0.2-1.5 1-2 0.8 -0.4-0.5 0.4-1.1 0.4-2 -0.6 0-1.2 2.5-0.6 2.5 1.3 0 3.2-2 5-2l0 0 0 0c-0.1 0 0.8-0.2 0.8-0.3C92.2 32.5 94.4 33.4 94.5 33.5z"/><path class="st4" d="M86.2 32.1c0.2-0.1 0.3-0.2 0.2-0.4l0 0C86.4 31.9 86.3 32.1 86.2 32.1 86.1 32.2 86.2 32.2 86.2 32.1z"/><path class="st1" d="M89.1 37c-0.2 0-0.4 0-0.5-0.2 -0.1-0.1-0.2-0.2-0.3-0.3 0.5 0.1 0.9-0.4 0.8-0.8 0.1-0.1 0.2-0.1 0.3 0 0.6 0.3 0.5 0.1 0.6 0.8 -0.2 0.2-0.2 0.4-0.4 0.5C89.4 37 89.2 37 89.1 37z"/><path class="st5" d="M89.7 72.3c-0.2-0.1-0.2-0.4-0.4-0.5 0.1-0.1 0.2 0 0.2 0 0.1 0.2 0.3 0.3 0.4 0.5 0 0.1 0.2 0 0.1 0.1C89.9 72.5 89.9 72.3 89.7 72.3z"/><path class="st7" d="M85.7 37.1c-0.2 0.1-0.1 0.3-0.1 0.4 0 0-0.1 0.1-0.1 0 -0.1-0.2-0.4-0.3-0.5-0.5 0-0.1 0-0.5 0.1-0.5h0.1C85.5 36.7 85.7 36.9 85.7 37.1z"/><path class="st7" d="M93 41.5c0.2-0.2 0.4-0.3 0.6-0.5 0-0.1 0.1-0.1 0.1-0.2 -0.1 0-0.1 0.1-0.2 0.1 0.1-0.1-0.1-0.1-0.1-0.2 -0.1 0-0.1 0.1-0.1 0.1s0 0-0.1 0l0 0c0 0.1 0 0.1-0.1 0l0 0c0 0.1 0 0.1 0 0.1 -0.3 0.2-0.6 0.3-0.9 0.4 -0.1 0-0.2 0.1-0.4 0.1 -0.1 0.1-0.3 0.1-0.4 0.1 -0.2 0-0.3 0.1-0.5 0.1 -0.1 0-0.2 0-0.3 0l0 0 0 0c-0.1 0-0.1 0-0.2 0l0 0 0 0c-0.1-0.1-0.3 0-0.5 0 -0.1 0-0.1 0-0.1-0.1 0 0 0-0.1-0.1-0.1 -0.2 0-0.3-0.2-0.5-0.3 -0.1 0-0.2-0.1-0.2-0.2 -0.2 0-0.4-0.1-0.6-0.2 -0.1 0-0.1 0-0.1 0.1 -0.1 0-0.2-0.1-0.2-0.2 -0.1-0.1-0.3-0.2-0.4-0.1 0 0.1 0.1 0.1 0.1 0.2 -0.2 0-0.3-0.1-0.4-0.1 -0.1-0.1-0.2-0.1-0.3-0.1 -0.2 0-0.2 0.2-0.1 0.3 0 0.2 0.2 0.3 0.4 0.3 0.1 0 0.2 0 0.3 0.2 0.1 0.2 0.2 0.3 0.4 0.4 0.1 0 0.1 0.1 0.2 0.1 0.2-0.2 0.3 0 0.5 0.1 0-0.1 0-0.1 0-0.1 0.1 0.1 0.3 0.1 0.4 0.2l0 0c0.5 0.2 0.9 0.5 1.5 0.5 0.3 0 0.5 0 0.7-0.1 0.3 0 0.6-0.1 0.9-0.2l0 0c0.2 0 0.4-0.1 0.6-0.2L93 41.5z"/><path class="st8" d="M101.3 31.5c-0.2 0-0.2-0.2-0.3-0.3 0 0 0 0-0.1 0 -0.3 0.1-0.9 0.1-1.2 0.1 -0.2-0.1-0.4-0.1-0.7-0.1 -0.2-0.1-0.4-0.1-0.6-0.1l0 0c0 0-0.1-0.1-0.1 0 -0.2 0-0.3 0-0.5-0.1 0 0-0.1 0-0.1 0s-0.1 0-0.1 0c0-0.1-0.1 0-0.1 0l0 0c-0.1 0-0.1 0-0.2 0 -0.3-0.1-0.6-0.3-1-0.3 -1.1-0.3-1.8-0.9-3-0.9 -1.9-0.5-3.9 1-5.6 1.4l0 0c0 0 0.1 0 0.1 0.1 0.2 0.2 1.2 0.1 1.4-0.1 0.3 0 0.7 0 0.9-0.1 0.1 0 0.2 0 0.3 0C91 31 94 31.6 94 32.4l0 0c0 0.2 0.2 0.2 0.3 0.4l0 0 0 0c0.1 0.1 0.2 0.2 0.3 0.3 0.1 0.2 0.3 0.4 0.5 0.5 0.3 0.3 0.5 0.6 0.7 0.9 0.1 0.1 0.1 0.2 0.2 0.3l0 0c0 0.1 0 0.2 0.1 0.2v-0.1c0 0 0 0 0 0.1l0 0c0 0.1 0 0.2 0.1 0.4 0 0.2-0.1 0.3 0 0.4 0 0.2 0 0.5 0 0.7 -0.1 0-0.1 0.1-0.2 0.1 0 0.1 0.1 0.1 0.2 0.1 0-0.1 0-0.1 0-0.2l0 0 0 0 0.1-0.1 -0.1 0.1c0 0.1 0 0.1 0 0.2 0 0 0.1 0 0.1 0.1 0.1 0 0.1 0 0.2 0 0.6-0.1 1.1-0.4 1.5-0.9 0.7-0.3 1.4-1.5 1.9-2 0.3-0.4 0.7-0.9 1.1-1.3 0.2-0.1 0.2-0.4 0.4-0.5C101.3 31.6 101.3 31.6 101.3 31.5z"/><path class="st6" d="M103.5 30c0 0 0-0.1-0.1-0.2 -0.1 0-0.2 0-0.2 0.1 -0.1 0.1-0.1 0.2-0.1 0.3 0.1 0.2-0.1 0.5 0.1 0.7 0 0 0 0-0.1 0 -0.4-0.1-0.8-0.2-1.2-0.4 -0.2-0.1-0.3-0.2-0.4-0.3 -0.1-0.3-0.3-0.5-0.4-0.8 0-0.5-0.4 0.1-0.4 0.3 -0.2 0.1 0 0.1 0 0.2 -0.1 0.1-0.1 0.3 0 0.4 0-0.1 0.1-0.1 0.1-0.2l0 0c0 0 0 0.1 0.1 0.1 0.2 0.3 0.3 0.6 0.6 0.7 0.1 0.1 0.3 0.2 0.4 0.3 -0.2 0.1-0.4 0-0.5 0 0-0.1 0-0.1 0-0.2 -0.1-0.2-0.2-0.3-0.3-0.2 -0.2 0.1-0.3 0.2-0.2 0.4 0 0 0 0 0.1 0 0.2 0.1 0.3 0.2 0.3 0.4l0 0c0.5 0.2 0.9 0.1 1.2-0.3l0 0c0.2 0 0.5 0.1 0.6-0.2 0.1-0.1 0-0.3 0.2-0.4v-0.1C103.5 30.5 103.5 30.2 103.5 30z"/><path class="st6" d="M102.4 29.4c0.6-0.6-1.4 0.1-0.3 0.1C102.2 29.4 102.3 29.4 102.4 29.4z"/><path class="st6" d="M101.9 30.2c0.1 0 0.2 0.1 0.3-0.1 0-0.1-0.1-0.2-0.2-0.3l0 0 0 0 0 0c0 0 0 0 0-0.1 -0.2-0.3-0.3-0.3-0.3 0.1C101.6 30.2 101.6 30.2 101.9 30.2z"/><path class="st6" d="M102.4 29.7c0 0-0.1 0.1-0.1 0.2l0 0c0 0.2 0.1 0.3 0.3 0.4 0.1 0.1 0.3 0 0.3-0.1 0.1-0.3-0.1-0.4-0.3-0.5C102.6 29.6 102.5 29.6 102.4 29.7z"/><path class="st9" d="M90 55.6C89.9 55.6 89.9 55.5 90 55.6 89.9 55.5 89.9 55.5 90 55.6c-0.1 0-0.1 0-0.2 0s-0.2 0-0.3 0h-0.1c0 0.1 0.1 0 0.1 0.1 -0.1 0-0.2 0-0.2-0.1s-0.1-0.1-0.1 0c-0.1-0.1-0.2-0.1-0.3-0.1C89 55.7 89 56 89 56.2s-0.1 0.3 0 0.5c0 0.1-0.1 0.2-0.1 0.3s0 0.1 0.1 0.2c0 0.1 0 0.2 0 0.3l0 0h0.1l0.1 0.1c0.1 0.1 0.2 0 0.3 0.1 0.2 0.1 0.4 0.1 0.5-0.1 0.1 0 0.1 0 0.2-0.1 0-0.2 0-0.4 0-0.6l0 0 0 0c0 0 0 0 0-0.1 -0.1-0.2 0-0.3 0-0.5 0-0.1 0-0.3 0-0.4C90 55.9 90.1 55.7 90 55.6z"/><path class="st5" d="M90 55.3L90 55.3 90 55.3z"/><path class="st5" d="M90.6 53.7c-0.1 0.1-0.2 0.2-0.3 0.2 -0.3 0-0.3 0-0.3 0.2 0 0 0 0.1-0.1 0.1 -0.2 0-0.3 0.2-0.4 0.3s-0.1 0.1-0.2 0c0-0.1 0-0.1-0.1-0.1 0 0-0.1 0 0 0.1s0 0.1-0.1 0.1 -0.1 0-0.1-0.1c-0.1-0.1-0.2-0.2-0.3-0.1 -0.1 0.1-0.1 0-0.1-0.1 -0.1-0.2-0.2-0.4-0.4-0.4l0 0c0 0.1 0.2 0.2 0.2 0.4l0 0h0.1c0.2 0.2 0.2 0.5 0.2 0.7 0.1 0.1 0 0.3 0 0.4l0 0c0.1 0 0.2 0 0.3 0.1h0.1c0 0.1 0.1 0.1 0.2 0.1 0-0.1-0.1-0.1-0.1-0.1 0-0.1 0.1 0 0.1 0 0.1 0 0.2 0 0.3 0 0.1 0 0.1 0 0.1-0.1s-0.1-0.2 0.1-0.2c0-0.1-0.2-0.3 0.1-0.4v-0.1c0-0.1 0-0.1 0.1-0.1s0.1 0.1 0.1 0.1c0 0.1 0 0.2 0 0.3 0.1-0.3 0.2-0.5 0.3-0.8 0.1-0.5 0.4-0.8 0.8-1s0.8-0.3 1.3-0.2l0 0c0-0.1-0.1-0.1-0.2-0.1C91.6 53 91.1 53.2 90.6 53.7zM90.2 54.7c-0.1-0.1-0.1-0.2-0.1-0.2 -0.2-0.2 0.1-0.2 0.1-0.2s0.1 0 0.1 0.1C90.3 54.4 90.2 54.5 90.2 54.7z"/><path class="st5" d="M94 53.6L94 53.6 94 53.6z"/><path class="st5" d="M94.6 53.7L94.6 53.7c-0.1 0.3-0.1 0.5-0.1 0.8v0.1h-0.1c-0.1-0.1-0.3-0.2-0.1-0.4 -0.1 0-0.1 0.1-0.2 0.1 -0.1-0.3 0-0.3 0-0.3s0 0 0-0.1S94 53.7 94 53.6c-0.1 0-0.2 0-0.4 0 -0.2 0.1-0.3 0-0.4-0.2s-0.3-0.2-0.3-0.4h-0.1c-0.1 0-0.2 0-0.2 0 0 0.1 0.1 0.1 0.1 0.1 0.2 0.1 0.3 0.2 0.4 0.3 0.2 0.3 0.3 0.6 0.4 0.9 0.1 0.4 0.1 0.8 0.2 1.1 0 0 0 0 0.1 0 0 0 0-0.1 0.1-0.1l0 0c0 0.1 0.1 0.1 0.2 0.1s0.2-0.1 0.4-0.1c0.1 0 0.1-0.1 0.2-0.1v-0.1V55v-0.1l0 0c0-0.1 0-0.2 0-0.4C94.6 54.3 94.6 54 94.6 53.7z"/><path class="st5" d="M88 53.7C88 53.7 88 53.8 88 53.7c0 0.1 0 0.2 0.2 0.2C88.1 53.8 88.1 53.7 88 53.7z"/><path class="st5" d="M88.2 53.9C88.2 54 88.2 54 88.2 53.9 88.2 54 88.2 54 88.2 53.9 88.2 54 88.2 53.9 88.2 53.9z"/><path class="st8" d="M90.2 54.2c-0.3 0.3 0 0 0 0.4C90.2 54.5 90.3 54.4 90.2 54.2 90.3 54.2 90.2 54.2 90.2 54.2z"/><path class="st8" d="M93.7 55.5c-0.1-0.4-1.1-2.2-1.1-2.4 0.1 0 0.2 0 0.3 0 0 0.6 0.8 0.5 1.1 0.6l0 0 0 0 0 0c0 0.1 0.1 0.2 0.1 0.3 0 0.1 0 0.2-0.1 0.2 0.1 0.1 0.1-0.1 0.2-0.1 -0.2 0.2 0.1 0.3 0.1 0.4 0.3-0.1-0.1-0.3 0.1-0.9h0.1c0 0.5 0 0.9 0 1.4 0.1 0 0.2 0 0.3 0.1 0.2 0 0.3 0 0.5 0V55c0.1-0.1 1.2-0.3 1.2-0.5l0 0c0 0 0 0-0.1 0l0 0c0.1 0 0.2 0 0.3 0.1 0-0.1-0.2-0.2 0.1-0.2l0 0 0 0h0.1c0-0.1 0-0.1 0-0.2 0.1 0 0.1 0.1 0.2 0.1 0.1-0.3 0.1-0.5-0.1-0.7 -1.5-2.3-0.7-6.5-1.3-9.1 0 0 0 0 0-0.1l0 0c0-0.5-0.5-1.2-0.5-1.7l0 0 0 0c0-0.4-0.4-0.6-0.7-0.6 0 0 0.1 0.1 0.1 0.1v0.1l0 0 0 0 0 0 0 0c1.3 0.6 0.3 3.4 0.3 4.2 -0.1 0-0.1-0.3-0.2-0.3 0-0.1-0.1-0.2-0.1-0.3l0 0c-0.4-0.8-1.3-1.7-1.8-2.5 0 0 0 0-0.1-0.1 -0.1 0-0.1-0.1-0.2-0.1 -0.1-0.2-0.1-0.1-0.2 0l0 0c-0.1 0.4-0.3 0.9-0.3 1.3 -0.2 0.4-0.8 1.8-1.3 1.8 -0.1 0.1-0.2 0.2-0.3 0.3 -0.2-1.1-0.6-2.4-0.9-3.5 -0.3-0.2-0.5-0.2-0.7 0.1l0 0v0.1l0 0c0 0.1 0 0.1 0 0.2l0 0c0 0.1-0.1 0.2-0.2 0.3l0 0c0 0 0 0 0 0.1l0 0c-0.3 0.3-0.6 0.6-0.7 1 0 0 0 0 0 0.1 -0.3 0-0.5 0.9-0.5 1.2h-0.1v0.1c-0.1 0-0.1-0.1-0.1-0.1s0 0 0-0.1C87 45.6 87 42.6 87 42.6c-0.1 0.1 0.8-0.6 0.6-0.8 -0.3-0.3-1.7 0.7-1.4 0.6l0 0c0 0.1-0.1 0.1-0.1 0.1 -0.1 0.2-0.2 0.3-0.3 0.4 -0.1 0.7-0.1 1.6-0.4 2.2 -0.1 0 0 0.1 0 0.1 -0.5 1.4-0.7 3-1.1 4.4l0 0C84.2 50 82.1 54 82.6 54c0-0.1 0.1-0.1 0.2-0.1 0.4-0.1 0.9-0.1 1.3 0.1 0 0.1 0 0.2 0.2 0.2v0.1c0.1 0 0.1 0 0.1 0 1.6 0.8 2-5.4 2.1-5.7 0.2 0-0.1 2.5 0 2.9 -0.1 0.1-0.1 0.2-0.1 0.4l0 0c0 0.8 0.1 2.7-0.9 3.2 0 0.1 0 0.3 0 0.4 -0.2 0.5-1 5-0.2 5.4V61l0 0c0 0.3 1.3 5.6 1.8 5.6 0-0.3 0.2 0.8 0.3 0.9 0.3 0.3 0.9 3.2 1.2 3.6 -0.4 0.8 2.1 0.9 2.1 1.6 0.4 0 0-1.7 0-2.1l0 0c-0.1-0.3 0-0.5 0.1-0.7l0 0 0 0c0.4-0.3 2.3-1.1 1.9-2 0.1-0.3 0.2-0.6 0-0.9 0.2-1.7 1.6-5.8 1.1-7.3 0.1-0.1 0-0.2 0-0.3l0 0c0.2-1.4 0-2.2 0-3.6C93.8 55.7 93.7 55.6 93.7 55.5M86.4 48.3c0-0.5 0.1-1 0.1-1.5C86.6 47.3 86.6 47.8 86.4 48.3zM89.5 71.2c-0.1 0.1-0.1 0.3-0.3 0.2 0.3-0.3 0.6-0.7 0.8-1L89.5 71.2zM92 68.1c0-0.1 0.1-0.1 0.2-0.1C92.1 68 92 68 92 68.1zM92.3 68.1L92.3 68.1C92.4 68.1 92.4 68 92.3 68.1 92.4 68 92.4 68.1 92.3 68.1zM88.5 54.3c0-0.2-0.2-0.2-0.2-0.4l0 0 0 0c0.6 0 0.5 0.9 1 0.5 0.5 0-0.2 0.2 0.7-0.2 0 0 0-0.1 0.1-0.1 0.3-0.5 2-1.4 2.5-0.9 -1.4 0-2 0.7-2.4 2 0-0.3-0.1-0.5-0.2-0.2 -0.2 0 0 0.1 0 0.3l0 0 0 0c0 0.1-0.1 0.1-0.1 0.2l0 0c0 0.1 0.2 1.4 0.2 1.4 0 0 0 0 0 0.1l0 0 0 0c0 1.2 0.3 10.8-0.4 10.8 0 0.3-0.1 0.6-0.1 0.9 0.1 0.1 0 0.1-0.1 0.1l0 0 0 0 0 0c0 0.2 0 0.4 0 0.6 -0.2 0.2-0.1 0-0.1-0.2 -0.1 0.1-0.5 1.4-0.6 1.5 -0.2-0.2 0.1-0.6 0.1-0.8h-0.1l0 0 0 0 0 0 0 0 0 0c0-0.5 0.2 0 0.3 0 0-0.4 0.3-1.6 0.6-1.9l0 0v-0.1l0 0v-0.1l0 0c0-0.3-0.1-0.6-0.4-0.9l0 0c-0.8-3.1-0.4-6.1-0.4-9.2l0 0c0-0.5 0.1-1.5-0.1-2l0 0C88.8 55.2 88.7 54.7 88.5 54.3L88.5 54.3"/><path class="st10" d="M104.8 58.9c0-0.1-0.1-0.1-0.2 0h-0.1l0 0c-0.1 0-0.2 0.1-0.4 0.1 -0.1 0-0.2 0.1-0.2 0.2 0 0.1 0 0.3 0.2 0.3 0 0 0 0 0.1 0.1 0.2 0 0.3-0.1 0.4-0.2l0 0c0 0 0.1 0 0.1-0.1C104.9 59.2 104.8 59 104.8 58.9z"/><path class="st10" d="M75.7 59c-0.2-0.1-0.2-0.3-0.4-0.2 0 0 0 0-0.1 0 -0.2-0.1-0.4-0.1-0.6 0 -0.2 0.2-0.3 0.4-0.2 0.7 0.1 0.1 0.1 0.2 0.3 0.2 0.3 0 0.5-0.1 0.7-0.2C75.5 59.5 75.5 59.2 75.7 59 75.8 59.1 75.8 59 75.7 59z"/><path class="st9" d="M85.1 55.5C85 55.5 85 55.5 85.1 55.5 85 55.5 85 55.5 85.1 55.5z"/><path class="st9" d="M85 55.5c-0.4 0-0.8-0.1-1.2-0.2 -0.1 0.1 0 0.1-0.1 0.2 0.1 0.3 0.1 0.7 0 1 -1 0.5-0.3-0.8-0.7-0.8l0 0c0 0.2 0 0.8-0.1 0.9 0 0 0 0-0.1 0.1 0 0 0 0 0 0.1 -0.5-0.2-0.6-0.6-0.3-1.3 0 0-0.1-0.1-0.1-0.1 -0.1-0.1-0.1 0-0.2 0.1l0 0 0 0c0 0.1 0 0.3 0 0.4 0 0.3 0 0.6 0.1 0.9 -0.1 0.1-0.2 0-0.2 0 -0.1 0.1-0.2 0-0.3-0.1 0-0.1 0-0.2-0.1-0.2 0-0.1-0.1-0.2 0-0.3 0-0.1-0.1-0.2-0.1-0.2 0-0.1 0-0.2-0.1-0.2l-0.1-0.2c-0.2 0.4-0.3 0.8-0.2 1.2C81 57 81 56.7 80.9 56.7c0-0.1-8.4 0.4-9.3 0.2 -0.5 0-1.3 0.1-1.7 0 0 0.2 0.2 0.1 0.1 0.2 0 0.1-0.1 0.1-0.2 0.1 0 0 0 0 0 0.1 0.9 0.9 2.3 0.4 3.3 0.9 0.1 0.2 0.1 0.4 0.3 0.5 0 0.3 0.1 0.5 0.3 0.7 0 1.2 1.3 0.7 1.9 1 0 0.4 1.2-1.8 0.9-0.9l0 0c0.2-0.1 0.4-1.4 0.4-1.5 0.6 0 1.1-0.2 1.7-0.2 0.2 0.2 2-0.1 2.3-0.1 0.1 0.1 0.2 0 0.2 0 0.5 0 3.7 0.1 3.7-0.2l0 0c0-0.1 0-0.2 0-0.2 0 0.1 0 0.2 0 0.2h0.1c0-0.5 0-1.1 0.2-1.6l0 0c0.1-0.1 0-0.2 0.1-0.3C85.2 55.5 85.2 55.3 85 55.5"/><path class="st6" d="M98.2 56.7c0.1 0.1-0.2-1.2-0.5-1 0 0.5 0 1-0.1 1.5 0.2-0.2 0.4-0.3 0.7-0.2C98.3 56.9 98.3 56.8 98.2 56.7z"/><path class="st6" d="M114.4 56c0-0.8-3.1-0.2-3.1-0.4 -0.2 0-0.4 0-0.6 0 -0.1 0-1 0-1.1 0l0 0 0 0c-0.3 0-0.5 0-0.8 0 -0.6 0.1-1.1 0.1-1.7 0.1 -0.1 0-0.3-0.1-0.4-0.1 -0.6 0.2-1 0-1.6 0 -0.2 0-1.6 0-1.6 0 -0.6 0-1.2 0-1.8 0 0 0-0.1-0.1-0.1-0.1 -0.2 0.2-1.4 0-1.7 0 0 0.1 0 0.2-0.1 0.2C99.6 56 99.3 56 99 55.8c0 0.1 0.1 0.1 0.1 0.2l0 0c0 0.3-0.1 0.9-0.1 1 0.7 0.1 11.6 0.2 11.6 0.4 1.2-0.4 2.4-0.3 3.6-0.3 0.4 0.1 0.6-0.1 0.8-0.5C114.4 56.3 114.4 56.2 114.4 56zM100.3 56C100.3 56 100.3 55.9 100.3 56 100.3 55.9 100.3 56 100.3 56L100.3 56zM113.2 56.5L113.2 56.5C113.2 56.4 113.2 56.4 113.2 56.5zM113.2 56.5L113.2 56.5 113.2 56.5 113.2 56.5zM113.5 56.3L113.5 56.3C113.5 56.4 113.5 56.4 113.5 56.3 113.5 56.4 113.5 56.4 113.5 56.3z"/><path class="st11" d="M91.8 36.4c-0.7-0.9 0.9-0.6 0.9-0.8C92.7 35.7 92.4 36.9 91.8 36.4z"/><path class="st4" d="M89.4 35.6c-0.1 0-0.2-0.1-0.3 0 -0.1-0.1-0.2-0.1-0.3-0.1 -0.3 0.1-0.6 0.3-0.7 0.7 -0.1-0.1-0.1-0.2 0-0.3 0.1-0.3 0.3-0.4 0.6-0.5C88.9 35.3 89.2 35.4 89.4 35.6z"/><path class="st8" d="M93.6 34.9c0 0.1 0 0.1-0.1 0.2 -0.1 0-0.1-0.1-0.2-0.1l0 0c-0.2-0.1-0.2-0.2-0.2-0.4 0-0.1 0.1-0.1 0.1 0C93.4 34.6 93.6 34.7 93.6 34.9z"/><path class="st8" d="M88.4 34.8c-0.2 0.2-0.3 0.3-0.5 0.5 0 0 0 0.1-0.1 0v-0.1C87.8 34.9 88 34.8 88.4 34.8z"/><path class="st4" d="M93.3 35.7c-0.1-0.1-0.3 0.1-0.3-0.2 -0.1 0.1-0.2 0-0.3 0.1 -0.1 0-0.1 0-0.1-0.1 0.1-0.2 0.3-0.2 0.5 0C93.2 35.6 93.2 35.6 93.3 35.7z"/><path class="st11" d="M88.1 36.2c0-0.3 0.7-0.9 1-0.6C89.2 36.3 88.5 36.6 88.1 36.2z"/><path class="st5" d="M94.1 33.6C94.1 33.6 94 33.6 94.1 33.6 94 33.6 94.1 33.6 94.1 33.6L94.1 33.6 94.1 33.6z"/><path class="st8" d="M92.3 38L92.3 38c-0.1-0.2-0.2-0.3-0.2-0.4 0-0.1-0.1-0.1-0.1-0.1h-0.1l0 0c-0.1 0.1-0.2 0.3-0.4 0.5 -0.3 0.2-0.7 0.4-1.1 0.2h-0.1C90.1 38 89.9 38 89.7 38c-0.1 0-0.1 0.1-0.1 0.2 0 0.1 0 0.1 0.1 0.1 0.2 0 0.3 0.2 0.5 0.2 0.3 0 0.5 0.1 0.8 0 0.1 0 0.3 0 0.4-0.1 0.2 0 0.4-0.1 0.5-0.3l0 0 0 0 0 0c0.1 0 0.1 0 0.2 0C92.1 38 92.1 38 92.3 38 92 38.1 92.2 38.1 92.3 38 92.3 38.1 92.3 38.1 92.3 38L92.3 38z"/><path class="st8" d="M91.1 38.5c-0.1 0-0.2 0.1-0.3 0.1 -0.1 0-0.2 0-0.3 0.1 0 0-0.1 0.1 0 0.2C90.8 39.1 91.2 38.9 91.1 38.5 91.3 38.5 91.2 38.5 91.1 38.5z"/><path class="st8" d="M90.8 37.1c-0.1 0-0.3 0.1-0.4 0l0 0c-0.1 0 0 0 0-0.1 0.1-0.2 0.2-0.3 0.5-0.2C91 36.8 90.8 37 90.8 37.1L90.8 37.1z"/><path class="st12" d="M90.3 37C90.3 37 90.4 37 90.3 37L90.3 37z"/><path class="st10" d="M85 55.5L85 55.5 85 55.5z"/><path class="st10" d="M85.3 55.5L85.3 55.5 85.3 55.5z"/><path class="st10" d="M85.2 55.5C85.3 55.5 85.3 55.5 85.2 55.5c0.3-0.1 0.1-0.4 0.1-0.4 0-0.1-0.2-0.1-0.3-0.1 -0.2-0.2-0.3-0.4-0.6-0.4 0-0.1-0.1-0.1-0.1-0.2 0 0 0-0.1-0.1 0v-0.1c-0.1 0-0.2-0.1-0.2-0.2 -0.4-0.2-0.8-0.2-1.3-0.1l0 0c0 0 0 0-0.1 0 0 0 0 0.1-0.1 0.1 -0.1 0.1-0.3 0.1-0.3 0.3l0 0c-0.1 0-0.2 0.1-0.2 0.2l0 0c-0.1 0-0.2 0-0.3 0.1 -0.4 0.1-0.7 0.3-0.8 0.8 -0.1 0.1-0.1 0.2-0.1 0.3 0 0.2-0.1 0.3-0.1 0.5 0.1 0.1 0.1 0.3 0.1 0.4l0 0c0.1 0 0.1 0.3 0.3 0.1 0.1-0.3 0-0.7 0.1-1 0.1-0.2 0.2 0 0.2 0 0 0.1 0.1 0.2 0.1 0.2 0 0.1 0.1 0.2 0.1 0.2 -0.1 0.1 0 0.2 0 0.3 0.1 0 0.1 0.1 0.1 0.2 0.1 0.1 0.1 0.2 0.3 0.1 0.1 0 0.2 0.1 0.2 0v-0.1c0-0.2-0.1-0.4-0.1-0.6V56c0 0 0 0 0-0.1s0-0.3 0-0.4l0 0 0 0c0-0.1 0.1-0.1 0.2-0.1l0.1 0.1 0 0c0 0.4 0.1 0.7 0 1.1 0 0.3 0.2 0.2 0.3 0.2 0 0 0 0 0-0.1 0 0 0 0 0.1-0.1 0.1-0.2 0.1-0.3 0.1-0.5 0-0.1 0-0.2 0-0.3v-0.1l0 0c0 0 0.1-0.1 0.1 0 0 0.2 0.1 0.4 0 0.6 0 0.1 0 0.2 0.1 0.3 0.2 0.1 0.3 0 0.5-0.1 0-0.3 0-0.7 0-1 0-0.1 0-0.2 0.1-0.2 0.1 0.1 0.3 0.1 0.4 0.1 0.3 0 0.5 0.1 0.8 0L85.2 55.5z"/><path class="st10" d="M95.1 36.8L95.1 36.8 95.1 36.8M95.2 36.8c0-0.5-0.5-2-0.8-2.3 -0.1 0-0.1 0-0.2 0 0.1-0.2-0.1-0.3-0.1-0.4 -0.3-0.3-0.6-0.5-1-0.4 0 0 0.1 0 0.1-0.1 0 0 0.1 0 0-0.1h-0.1c-0.2 0.5-1.2 1.2-1.2 0.5 -0.6 0-1 0.5-1.6 0.5l0 0c-0.5-0.5 0.2-0.2 0.2-0.5 -0.2 0-0.4 0.2-0.6 0.2 -0.1 0.1-1.2 0.5-1.2 0 0.2-0.2 0.5-0.3 0.8-0.3 0 0 0-0.1 0.1-0.1 -0.1 0-0.2-0.1-0.4 0 0 0 0 0 0-0.1 -0.4 0.1-2.1 0.7-2.2 1.3 -0.1 0.4-0.3 0.8-0.6 1.2 -0.1 0.1-0.1 0.2-0.1 0.3 0.1 0.1 0.1 0.3 0 0.5 -0.1 0-0.2 0-0.3 0 -0.2-0.1-0.3-0.3-0.4-0.5 -0.2 0-0.2-0.2-0.2-0.3 -0.1 0-0.1-0.1-0.2 0 -1 0 0 2.1 0.6 2.3 0 1 0.2 1.6 1.1 2.1l0 0 0 0 0 0 0 0c0 0.1 0 0.1 0.1 0.2 0.2 0.1 0.5 0.2 0.7 0.2 0-0.1-0.1-0.1-0.1-0.2 0.3 0 0.5 0.1 0.6 0.3 0.2-0.2 0.4-0.2 0.7 0.1 0 0.5 1.1 0.7 1.4 0.7l0 0c0.1 0 0.1 0 0.2 0l0 0c0.3 0.3 1.3-0.5 1.6-0.3 0.6 0 0.9-0.1 0.9-0.5l0 0c0 0 0.1 0.1 0.1 0l0 0c0.1 0 0.2 0 0.2-0.1 0 0.1 0.2 0.1 0.1 0.2 0.1 0 0.1 0 0.2-0.1 0-0.1 0-0.1 0.1-0.2 -0.1 0-0.1-0.1-0.1-0.1 0.4-0.2 0.8-0.4 1.2-0.7 0.3-0.2 0.5-0.6 0.7-0.9l0 0c0.1-0.2 0.1-0.5 0.1-0.7 0 0 0 0 0.1-0.1 0.8 0 0.7-1.3 0.4-1.7 -0.1 0-0.2 0-0.3 0.1 0 0.2-0.2 0.2-0.3 0.3 0.1 0.1 0.2 0.1 0.2 0l0.1-0.1c0.1 0.1 0.2 0.1 0.1 0.2 0.1 0 0.1 0 0.1 0.3M85.7 37.5c-0.6-0.3-0.8-0.6-0.4-1 0.2 0.2 0.4 0.4 0.5 0.6C85.6 37.2 85.7 37.4 85.7 37.5zM90.8 36.7c0.2 0.1 0 0.2 0 0.3 -0.1 0-0.3 0-0.4 0l0 0C90.4 36.8 90.5 36.7 90.8 36.7zM87.9 35.3C87.9 35.3 87.9 35.4 87.9 35.3c-0.3-0.2-0.1-0.4 0.5-0.5C88.2 35 88 35.2 87.9 35.3zM88.6 36.8c-0.2-0.1-0.4-0.3-0.4-0.6 -0.2-0.2 1.7-1.4 1.9 0.2C89.9 36.6 89 37.6 88.6 36.8zM90.5 38.9c-0.1-0.1 0-0.1 0-0.2 0.2-0.1 0.4-0.1 0.6-0.2C91.1 38.5 91.1 39.3 90.5 38.9zM92.3 38.1c-0.2-0.1-0.3 0-0.4 0.1 -0.1 0-0.1 0-0.2 0 -0.3 0.7-2.2 0.6-2.2-0.1 0.2 0 0.5 0 0.6 0.2 0.6 0.1 1.3-0.1 1.6-0.7l0 0h0.1c0.1 0.1 0.2 0.2 0.3 0.4C92.3 38 92.3 38 92.3 38.1 92.3 38 92.3 38 92.3 38.1L92.3 38.1zM93.4 36.5C93.3 36.5 93.3 36.6 93.4 36.5L93.4 36.5C93.3 36.6 93.3 36.6 93.4 36.5 93.3 36.5 93.3 36.6 93.4 36.5L93.4 36.5c0 0.1 0 0.1-0.1 0.2l0 0c-0.5 0.1-0.9 0.2-1.4 0.2l0 0c0-0.7-0.2-1.2 0.7-1.3h0.1c0.1-0.2 0.3-0.2 0.5 0 0 0 0.5 0.5 0.5 0.5C93.4 36.2 93.6 36.4 93.4 36.5zM93.5 35.1c-0.1 0-0.1-0.1-0.2-0.1 -0.3-0.3-0.3-0.4-0.1-0.4 0.1 0.1 0.3 0.1 0.3 0.3C93.6 35 93.6 35.1 93.5 35.1z"/><path class="st10" d="M91.6 38.2L91.6 38.2 91.6 38.2z"/><path class="st12" d="M99.4 55.5c-0.2 0-0.4 0-0.7-0.1 -0.1 0-0.1 0-0.2 0 0.1-0.2 0-0.2-0.1-0.3l0 0c-0.1 0-0.1 0-0.2 0l0 0c0-0.1 0-0.1 0-0.2l0 0c-0.1-0.1-0.1-0.1-0.2 0 -0.1-0.1-0.3-0.2-0.4-0.3 -0.1 0-0.2 0-0.2-0.1 -0.1-0.1-0.2-0.2-0.4-0.2l0 0c-0.1 0-0.1-0.1-0.2-0.1 0 0.1 0 0.1 0 0.2h-0.1l0 0 0 0 0 0c0 0 0 0-0.1 0s-0.2 0-0.1 0.1c0.1 0 0.1 0 0.1 0.1 -0.1-0.1-0.2-0.1-0.3-0.1l0 0c0 0 0 0 0.1 0l0 0c0 0 0 0 0 0.1 -0.2 0.1-0.4 0-0.6 0.2 -0.2 0-0.4 0.1-0.6 0.2 -0.1 0 0 0.1 0 0.1 -0.1 0-0.2 0-0.2 0 -0.1 0-0.2-0.1-0.3 0 -0.1-0.1-0.1 0-0.2-0.1h-0.1l0 0v0.1 0.1 0.1c-0.1 0-0.1 0.1-0.2 0.1v0.1c0 0.1 0 0.2 0 0.2 0 0.1 0 0.1 0 0.2l0 0 0 0c0 0.2 0.2 0.3 0.2 0.5v0.1c0.1 0 0.2-0.1 0.3 0 0.1 0 0.2-0.1 0.2-0.1 0-0.2 0.1-0.4 0.2-0.6 0.1-0.2 0.2-0.2 0.4-0.2 0.2 0 0.4 0.1 0.6 0.1 0.3 0.1 0.4 0.4 0.5 0.7 0 0.1 0.1 0.3 0.2 0.4 0.1 0.1 0.2 0.2 0.3 0.2 0.1 0 0.3 0 0.4 0v-0.1c0.1-0.1 0-0.1 0-0.2 0 0 0 0 0-0.1 0.1-0.1 0-0.2 0-0.2v-0.1c0.1-0.2 0-0.4 0-0.6 0-0.1 0-0.1 0.1-0.1l0 0c0 0.1-0.1 0.1 0 0.1 0.2 0 0.2 0.2 0.3 0.3 0.1 0.2 0.1 0.5 0.2 0.7 0.1 0 0.1 0.1 0.1 0.3 0 0 0 0.2 0.1 0.1 0.1 0 0.1-0.1 0.2-0.1 0.1-0.1 0.2 0 0.2-0.1 0-0.2 0-0.4 0-0.6 0-0.1-0.1-0.2-0.1-0.3 0 0-0.1-0.1-0.1-0.2 0.2 0 0.4 0 0.6 0.1 0.2 0 0.2-0.1 0.2-0.2C99.5 55.6 99.5 55.5 99.4 55.5zM97.6 56.3c0-0.1 0-0.2 0-0.2S97.6 56.2 97.6 56.3L97.6 56.3z"/><path class="st12" d="M98.5 55L98.5 55 98.5 55 98.5 55 98.5 55z"/><path class="st9" d="M110 57.2c-0.2-0.7-3.7-0.2-4.3-0.2 -0.9 0-3.9-0.6-4.5 0 0 0.1-0.2 0.1-0.3 0 -0.2 0-2.5-0.1-2.5-0.2 -0.1 0-0.1 0.1-0.2 0.1 0 0-0.6-0.1-0.8 0.1 0.1-0.5 0.1-1 0.1-1.5 -0.2-0.2-0.1 0.6-0.1 0.9 0 0.1 0 0.2 0 0.3v0.1c-0.3 0.1-0.5 0-0.7-0.2 -0.2-0.4-0.4-0.8-0.7-1.1 -0.4-0.2-0.7-0.1-1 0.1 0.2 0.5 0.2 0.8-0.2 0.9 -0.1 0-0.2 0-0.3 0 0-0.2-0.1-0.4-0.2-0.6l0 0 0 0c0-0.1 0-0.1 0-0.2 0-0.1 0-0.2 0-0.3 -0.1 0-0.3 0-0.4 0.1 -0.1 0-0.2 0.1-0.2-0.1l-0.1 0.1c0 0.1-0.1 0.1 0 0.2l0 0c0.1 0.2-0.2 1.5 0.1 1.8 0 0.1 0.2 0.1 0.1 0.2 1.4 0 2.9 0.1 4.3 0.1 0.3 0 1.1 0.1 1.3-0.1 0.9 0 1.9 0.3 2.8 0.3 0.7 0.5 0.7 1.4 1.5 1.8 0 0 0.1 0.1 0.1 0.1V60c0.1 0 1.8 0.7 1.8-0.2 0.5-0.5 0.9-1 1.3-1.6 0.2 0 0.3-0.2 0.4-0.3 0.4 0 2 0.1 2.3-0.2C109.8 57.7 109.8 57.4 110 57.2 109.9 57.4 110 57.3 110 57.2 110.1 57.2 110 57.2 110 57.2zM104.7 57L104.7 57 104.7 57 104.7 57zM104.8 59.3L104.8 59.3 104.8 59.3c-0.2 0.2-0.4 0.3-0.5 0.3 -0.4-0.4-0.3-0.7 0.3-0.7h0.1c0.1-0.1 0.2-0.1 0.2 0C104.8 59 104.9 59.2 104.8 59.3z"/><path class="st5" d="M93.8 45.5L93.8 45.5c0 1.2 0.3 2.4 0.3 3.6 0.1 0.4 0.3 1.7 0.1 1.9 -0.4-1.3-0.2-3.4-0.3-4.7C93.9 46.3 93.8 45.6 93.8 45.5z"/><path class="st8" d="M96 37.5c0.1-0.2 0-0.3 0.1-0.4 0-0.1-0.1-0.1-0.1-0.2 0 0-0.1 0-0.1 0.1 -0.1 0.1-0.2 0.1-0.2 0 -0.2 0-0.1 0.3-0.1 0.3 0 0.1 0.1 0.2 0 0.3 0 0.2 0 0.2 0.2 0.2C95.7 37.7 95.9 37.6 96 37.5z"/><path class="st5" d="M95.8 36.6c0-0.4 0.1-1-0.1-1.3 0-0.1 0-0.1-0.1-0.2 -0.1-0.2-0.1-0.5-0.4-0.6 -0.1 0-0.2-0.1-0.2-0.2 -0.1-0.1-0.1-0.2-0.2-0.3 -0.2-0.1-0.3-0.1-0.5-0.2l0 0c-0.8-0.5-1.7-0.7-2.7-0.9h-0.1l0 0c-0.1 0.1-0.2 0-0.2 0.1 -0.1 0-0.2 0-0.3 0.1 -0.2-0.1-0.3-0.1-0.3 0.1l0 0 0 0 0 0 0 0 0 0c0 0 0 0-0.1 0 -0.3-0.1-0.5 0-0.7 0.1 -1.5 0.4-2.8 0.8-4.1 1.7 -0.1 0.1 0 0.2-0.1 0.2 0 0 0 0 0 0.1 -0.1 0.1-0.1 0.2-0.1 0.3 -0.1 0.2-0.1 0.4-0.1 0.6 0.1 0.1 0.1 0.3 0.2 0.3 0.1 0.2 0.1 0.4 0.3 0.4 0.1 0.1 0.2 0.2 0.4 0.1 -0.1-0.3 0-0.5 0.1-0.8 0.1-0.1 0.1-0.2 0.2-0.3 0.1-0.3 0.1-0.6 0.4-0.9 0.1-0.6 1.7-1 2-1.2 0.1 0 0.2-0.1 0.2-0.1l0 0c0 0 0 0 0 0.1 0.1-0.1 0.2 0 0.4 0 0 0 0 0.1-0.1 0.1 0.2-0.1-1.7 0.5-0.4 0.5 0.3 0.1 0.6 0 0.8-0.2 0.2-0.1 0.4-0.2 0.6-0.2 -0.8 0-0.2 0.3-0.3 0.4l0 0 0 0c0.3 0 0.5-0.1 0.7-0.3 0.2-0.1 0.4-0.2 0.6-0.3 0.1-0.1 0.2 0.1 0.3 0.1 0 0.1-0.2 0.2-0.1 0.3 0.4 0 0.7-0.2 1-0.4 0.1-0.1 0.3-0.2 0.3-0.4h0.1v0.1c0 0-0.1 0-0.1 0.1 0.5-0.1 0.7 0.1 1 0.4 0 0.1 0.3 0.2 0.1 0.4 0.1 0 0.1 0 0.2 0 0.1 0.2 0.1 0.5 0.2 0.7 0.2 0.7 0.6 1 0.6 1.7l0 0c0.1 0.3 0.2 0 0.3-0.1C95.7 36.8 95.8 36.8 95.8 36.6 95.8 36.6 95.7 36.7 95.8 36.6z"/><path class="st6" d="M111 52.8c0.1 0 0.3-0.2 0.3 0.1h0.1c0.4 0 0.8 0 1.1 0.4 0.1 0.1 0.2 0.2 0.3 0.4 0.1 0.2 0.5 0.3 0.6 0.2 0.1 0 0.1-0.1 0.1-0.2 0-0.1 0-0.2-0.1-0.2s-0.2-0.1-0.3 0c-0.2 0.1-0.4-0.1-0.4-0.4 0-0.1 0-0.1 0.1-0.1s0.1 0 0.1 0.1c0.1 0.2 0.2 0.3 0.4 0.2 0.2 0 0.5 0.2 0.5 0.3s-0.1 0.4-0.3 0.5c-0.2 0.1-0.4 0.3-0.7 0.1 -0.2-0.2-0.4-0.4-0.6-0.6 -0.1-0.2-0.3-0.3-0.4-0.3 -0.1-0.1-0.3 0-0.4 0.1 0 0 0 0-0.1 0 0-0.1-0.1-0.2-0.2-0.3C111.2 52.9 111.1 52.9 111 52.8z"/><path class="st8" d="M109.2 54.8C109.2 54.9 109.4 54.8 109.2 54.8c0.1 0.3 0 0.3-0.2 0.3 -0.2-0.1-0.3-0.2-0.2-0.4C109 54.7 109.1 54.8 109.2 54.8z"/><path class="st8" d="M108.8 54.5c-0.1 0.1 0 0.2-0.1 0.2s-0.1-0.1-0.2-0.1c-0.1-0.1-0.1-0.2 0-0.4 0-0.1 0.1-0.1 0.2 0S108.7 54.4 108.8 54.5z"/><path class="st8" d="M108.2 54C108.2 53.9 108.2 53.9 108.2 54c0-0.2 0-0.3 0.1-0.3s0.1 0.1 0.1 0.2c0 0.1 0 0.2 0 0.3 0 0-0.1 0.1-0.1 0C108.2 54.1 108.2 54.1 108.2 54z"/><path class="st11" d="M111.5 53.3L111.5 53.3 111.5 53.3c-0.1-0.1-0.2-0.2-0.2-0.3 -0.1-0.1-0.2-0.2-0.3-0.2 -0.1 0-0.3 0.1-0.3 0.2 0 0.1 0 0.1-0.1 0.2v0.1c0.2 0.1 0.3 0.3 0.4 0.5 0.2 0 0.4-0.1 0.5-0.2C111.6 53.5 111.5 53.4 111.5 53.3z"/><path class="st8" d="M110.4 54.9c-0.2 0-0.3-0.1-0.3-0.3H110c-0.5-0.5-0.8-1.1-1.1-1.8 -0.6 0.6 0.5 2.2 1.2 2.2 0 0.1 0.2 0.2 0.4 0.2C110.4 55.1 110.6 55 110.4 54.9z"/><path class="st8" d="M109.5 54.8C109.5 54.8 109.6 54.8 109.5 54.8L109.5 54.8 109.5 54.8z"/><path class="st10" d="M111 53.9C110.9 53.9 111 53.8 111 53.9c0-0.3-0.1-0.5-0.4-0.6 0-0.1 0-0.2-0.1-0.3 -0.3 0-0.5-0.1-0.7-0.3 -1.1-0.4-1.8 0.4-1.9 1.4 -0.4 0 0.4 1.2 0.5 1.3h0.1c0.5 0.5 1.6 0.4 2 0l0 0v-0.1c0.1-0.1 0.2-0.1 0.3-0.2 0-0.1 0.1-0.1 0.1-0.2l0 0c0.1-0.1 0.1-0.2 0.1-0.3C111.3 54.6 111 53.9 111 53.9zM108.4 54.1C108.4 54.1 108.3 54.2 108.4 54.1 108.3 54.1 108.2 53.1 108.4 54.1zM108.7 54.8c-0.1 0-0.1-0.1-0.2-0.1 -0.5-0.5 0.2-0.3 0.4-0.1C108.8 54.6 108.8 54.7 108.7 54.8zM109.1 55.2c-0.3-0.4-0.3-0.5 0.2-0.4C109.5 54.9 109.4 55.1 109.1 55.2zM109.5 54.8c-0.1 0-0.1-0.1-0.2-0.1 -0.3-0.3-0.8-1.3-0.5-1.8 0.5 0.5 0.6 1.3 1.1 1.8l0 0h0.1c-0.1 0.1 0 0.1 0 0.1 0.4 0.4 0.3 0.1 0.3 0.5 -0.2 0-0.4 0-0.4-0.2 0 0 0 0-0.1 0"/><path class="st5" d="M106.4 49c0-0.4-0.1-0.8-0.2-1.2 0 0-0.1-0.1 0-0.1l0 0c0-0.1 0-0.3-0.1-0.4 0-0.1-0.1-0.2-0.1-0.3l0 0c-0.2-0.7 0.2-1.3-0.6-1.6 -0.8-0.1-1.6 0.1-2.3 0.5 -0.1 0.1-0.2 0.2-0.1 0.4 0 0.2 0.1 0.5 0.2 0.7 0 0.1 0.1 0.2 0 0.3 -0.1 0.2 0 0.4 0.1 0.5 0 0.2 0.1 0.4 0.2 0.6 0 0.2 0 0.5 0 0.7 0.1 0.4 0.1 0.8 0.2 1.2 0 1.2 1.7 0.8 2.4 0.5 0.2-0.2 0.3-0.4 0.3-0.7C106.5 49.6 106.5 49.3 106.4 49zM105.4 48c0 0.3-0.3 0.3-0.5 0.4 -0.2 0-0.5 0-0.8 0.1 -0.2-0.2-0.3-0.4-0.3-0.7 0-1.1 0.6-0.1 1-0.5 0.1 0 0.2 0 0.4 0.1l0 0C105.4 47.5 105.5 47.7 105.4 48z"/><path class="st5" d="M107.2 54.6c0-0.7-0.1-1.5-0.6-1.9 0-0.1-0.1-0.1-0.1-0.2 -0.1-0.1-0.1-0.1-0.1-0.2 0.1 0.1 0.1 0.3 0.2 0.4 0.1 0.1 0.1 0.1 0.2 0.1 0-0.2 0-0.4-0.2-0.6 0-0.1-0.1 0-0.1-0.1h-0.1l-0.1 0.1c-0.2 0.1-0.5 0.1-0.7 0.2 -0.3 0.3-0.6 0.3-1 0.1 0 0-0.6 0-0.4 0.2 0.2 0.8 0.3 1.6 0.4 2.4h0.1c0-0.1 0.1-0.1 0.1-0.1 0 0.1-0.1 0.1-0.2 0.1 0 0.2 0.2 0.2 0.3 0.4 0.3 0.2 0.6 0.2 0.9 0.1v-0.1c0.1 0 0.2 0 0.3 0 0.2 0 0.3 0.1 0.5 0.1 0.2-0.1 0.3-0.2 0.5-0.2C107.3 55.2 107.3 55 107.2 54.6z"/><path class="st5" d="M105.6 44.3c0.1-0.1 0.1-0.1 0-0.2 0 0.2-0.2-1.9-0.5-1.6 -0.7 0.3-1.8 0.1-2.6 0.5 -0.3 0.2-0.3 0.5-0.1 0.8 -0.1-0.2 0.1 1.7 0.6 1.2h0.1c0.1 0 0.2 0 0.3 0h0.1c0.2 0 1.5-0.2 1.8-0.1 0.1 0 0.1 0 0.1 0s0.1-0.1 0-0.1C105.5 44.4 105.5 44.4 105.6 44.3z"/><path class="st6" d="M106.2 50.7c-0.7 0.4-1.8 0.3-2.4 0.7l0.1 0.1c0.1-0.1 0.3 0 0.4 0 0 0.1 0.1 0 0.1 0 0.3 0 2.1-0.4 1.9-0.6C106.4 50.6 106.3 50.7 106.2 50.7z"/><path class="st6" d="M106.6 51.9L106.6 51.9c-0.2-0.2-0.3-0.1-0.5 0.1 0 0-1.8 0.2-1.9 0.3l0 0 -0.1 0.1c-0.3 0.1-0.3 0.2 0 0.3 0.1 0 0.1 0 0.2 0h0.1c0 0.1-0.1 0-0.1 0.1 0.1 0 0.2 0 0.3 0 0-0.1-0.1-0.1-0.1-0.1 0.1 0 0.1 0 0.1 0.1 0.4 0.2 0.7 0.2 1-0.1 0.3 0 0.6-0.1 0.8-0.3h0.1C106.7 52.3 106.7 52.1 106.6 51.9 106.7 51.9 106.6 52 106.6 51.9z"/><path class="st6" d="M105.4 44.8c-0.1 0-0.2 0-0.3 0 -0.2 0-0.4 0.1-0.6 0 0 0-0.1 0-0.2 0 -0.3 0.1-0.5 0.2-0.8 0.2 -0.2 0-0.5 0.1-0.7 0.3 -0.1 0-0.1 0.1-0.1 0.2 0 0.1 0.1 0.2 0.2 0.2 0.2 0 0.4-0.1 0.6-0.2 0.3-0.1 0.5-0.2 0.8-0.2s0.6 0 0.9-0.1c0.1 0 0.2 0 0.2-0.1C105.6 44.8 105.5 44.8 105.4 44.8z"/><path class="st5" d="M106.5 51.1c0.1 0-2.1 0.4-2.1 0.4 -0.1 0-0.3-0.1-0.4 0.1l0 0c0 0.3 0 0.5 0.2 0.6l0 0c0.1 0 0.1 0 0.2-0.1 0.6 0 1.1 0 1.7-0.2 0.2-0.2 0.3-0.3 0.4-0.1h0.1c0.1-0.1 0.1-0.3 0.2-0.5C106.9 51.3 106.8 51.1 106.5 51.1zM104 51.7c0 0.1 0 0.1 0.1 0.2C104 51.8 104 51.8 104 51.7z"/><path class="st6" d="M105.3 47.3L105.3 47.3c-0.1-0.1-0.3-0.1-0.4-0.1s-0.3 0-0.4 0c-0.1-0.1-0.3 0-0.4 0 -0.2 0.1-0.3 0.3-0.2 0.5 0 0.2 0.1 0.4 0.1 0.5 0 0.2 0.1 0.2 0.2 0.2 0.3 0 0.5 0 0.8-0.1 0.2 0 0.4-0.1 0.5-0.4C105.5 47.7 105.4 47.5 105.3 47.3z"/><path class="st10" d="M72.1 48c0 0.1 0.1 0.2 0.1 0.3v0.1c0 0.1-0.1 0.1-0.1 0.2l0 0 0 0 0 0c-0.1 0.1-0.2 0.3-0.3 0.4 -0.1 0-0.1 0-0.2 0 -0.2 0-0.3 0.1-0.5 0.1 -0.1 0-0.1-0.1-0.2 0l0 0c-0.1 0-0.1-0.1-0.2-0.1 0-0.1-0.1-0.1-0.1-0.2 -0.2-0.1-0.1-0.3-0.1-0.5 0-0.4 0.3-0.6 0.6-0.8 0.1-0.1 0.2-0.1 0.3 0 0.1 0.1 0.3 0.1 0.4 0.2C71.8 47.8 71.9 47.9 72.1 48z"/><path class="st10" d="M75.2 44.6C75.3 44.6 75.3 44.6 75.2 44.6c0.1 0 0.1-0.1 0.2-0.1 0.2 0 0.3 0 0.5 0 0.1 0.1 0.1 0.2 0.2 0.3 0.1 0.2 0.1 0.6-0.1 0.7 -0.1 0.1-0.4 0-0.5 0.2h-0.1c-0.1 0-0.1 0-0.2-0.1 -0.2-0.2-0.4-0.3-0.4-0.5 0-0.1 0.1-0.2 0.1-0.3C75.2 44.8 75.2 44.7 75.2 44.6z"/><path class="st10" d="M75.3 50.6c-0.2 0.1-0.2 0.4-0.4 0.4 -0.1 0-0.1 0.1-0.2 0.1h-0.1 -0.1l0 0h-0.1c-0.1 0-0.3 0-0.4 0s-0.1 0-0.2-0.1 -0.2-0.2-0.4-0.4c0.1-0.2 0-0.4 0.1-0.6 0.1-0.1 0.1-0.2 0.2-0.3s0.3-0.2 0.4-0.3h0.1c0.1 0 0.1 0 0.2 0 0.1 0.2 0.3 0.1 0.4 0.1l0 0c0.2 0.2 0.4 0.3 0.5 0.6C75.4 50.3 75.3 50.4 75.3 50.6z"/><path class="st10" d="M73.1 53.2c-0.1 0-0.3-0.1-0.2-0.3 0 0 0 0-0.1-0.1v-0.1c-0.1-0.2 0-0.3 0-0.5s0-0.2 0.2-0.3c0.2 0 0.3-0.1 0.5-0.1 0.1 0 0.2 0 0.3 0 0.1 0 0.1 0 0.1-0.1 0.1 0.1 0.1 0.2 0.2 0.3 0 0.1-0.1 0.2-0.1 0.4 0 0.1 0 0.2 0 0.2 0.1 0.1 0.1 0.2 0.1 0.3C74 53 73.8 53 73.8 53.2c-0.1 0.1-0.2 0.1-0.3 0.1C73.4 53.3 73.2 53.3 73.1 53.2z"/><path class="st13" d="M73.7 45.9C73.7 45.8 73.7 45.8 73.7 45.9c-0.2-0.4-0.5-0.5-0.8-0.2 0 0.1-0.1 0-0.1 0.1 -0.1 0.2-0.2 0.3-0.1 0.5l0.1 0.1c0.3 0.2 0.5 0.2 0.7 0 0.1 0 0.2-0.1 0.1-0.2C73.6 46 73.6 45.9 73.7 45.9z"/><path class="st10" d="M75.3 39.3c-0.1 0-0.3 0-0.4 0.1 -0.2 0.1-0.2-0.1-0.4-0.1 0 0-0.1-0.2 0-0.3s0.1-0.2 0-0.2c-0.1-0.1-0.2-0.1-0.3 0C74.1 38.9 74 38.9 74 39c-0.1 0.1-0.2 0.1-0.3 0 -0.1-0.1-0.2-0.2-0.4-0.2 -0.1 0-0.2 0.4-0.1 0.5 0.2 0.2 0.2 0.4 0.4 0.6l0 0 0 0 0 0c0.1 0 0.1 0.1 0.1 0.2 0 0.1 0 0.1 0 0.2 0.1 0.1 0 0.1-0.1 0.1s-0.2 0-0.3 0c-0.1 0.1-0.1 0.2-0.1 0.3 0 0.2 0.3 0.4 0.5 0.3 0.1 0 0.1 0 0.1-0.1l0.1-0.1v-0.1c0.1-0.1 0.1-0.3 0.2-0.2 0 0.1 0.1 0.1 0.1 0.2 0 0 0 0 0 0.1 0.1 0 0.1 0.1 0.2 0.1 0.1 0.1 0.3 0.1 0.4 0s0-0.2-0.1-0.3l0 0c0.1 0 0.2 0 0.2 0.1 0.1 0 0.3 0 0.3-0.1 0.1-0.1 0-0.2-0.1-0.3 -0.2-0.2-0.2-0.2 0-0.4 0 0 0.1 0 0.1-0.1 0.1 0 0.1-0.1 0.1-0.2C75.5 39.3 75.4 39.3 75.3 39.3z"/><path class="st10" d="M73 40c0 0.1 0.1 0.2 0.2 0.2 0.3 0 0.4-0.1 0.4-0.4 -0.1 0-0.2 0-0.4 0C73 39.7 72.9 39.8 73 40z"/><path class="st13" d="M77.7 50.2c-0.2-0.1-0.5-0.1-0.8 0 -0.1 0-0.2 0-0.3 0 0 0-0.1 0-0.1 0.1 -0.2 0.2-0.2 0.4-0.2 0.7l0 0c0.1 0 0.1 0.1 0.2 0.1 0.1 0.2 0.2 0.4 0.4 0.5 0.1 0.2 0.2 0.2 0.4 0 0.2-0.1 0.4 0 0.5-0.3 0-0.1 0.1-0.1 0.1-0.2l0 0V51l0 0c0.1 0 0.1-0.2 0.1-0.2C77.9 50.6 78 50.3 77.7 50.2z"/><path class="st13" d="M73.6 43.1C73.6 43.1 73.5 43.1 73.6 43.1l-0.1-0.2c0-0.2-0.2-0.1-0.3-0.1C73 42.9 72.9 43 72.7 43c-0.1 0-0.3 0.5-0.3 0.7s0.2 0.3 0.3 0.5c0.1 0 0.2 0 0.2 0.1 0.1-0.1 0.3-0.1 0.4-0.2 0-0.1 0-0.1 0.1-0.1l0 0h0.1l0 0 0 0C73.8 43.7 73.7 43.4 73.6 43.1z"/><path class="st13" d="M75.9 48L75.9 48 75.9 48z"/><path class="st13" d="M77 47.2C77 47.2 76.9 47.2 77 47.2 76.9 47.1 76.9 47.1 77 47.2c-0.2-0.3-0.6-0.4-0.8-0.2 -0.1 0.1-0.3 0.2-0.4 0.3l0 0c-0.1 0.2 0 0.4 0.1 0.5l0.1 0.1c0 0 0.1 0 0 0.1 0.1 0 0.2 0.1 0.3 0.1 0.1 0 0.2 0 0.2-0.1l0 0 0 0c0-0.1 0.2-0.1 0.3-0.2l0 0v-0.1C77.1 47.6 77 47.4 77 47.2z"/><path class="st13" d="M70.8 51.3c0-0.1 0-0.1 0-0.2l0 0c0-0.1-0.1 0-0.2 0s-0.2 0-0.3-0.1c-0.1-0.1-0.1-0.1-0.2 0 -0.1 0-0.2 0-0.2 0l0 0c-0.1 0-0.3 0-0.3 0.2 -0.1 0.1-0.1 0.3-0.2 0.4 -0.1 0.2-0.1 0.4 0 0.6 0 0 0.1 0.1 0.1 0l0 0c0.1 0.2 0.2 0.2 0.4 0.2 0.3 0 0.5-0.1 0.7-0.3 0.1-0.2 0.2-0.4 0.3-0.6v-0.1C70.8 51.3 70.8 51.3 70.8 51.3z"/><path class="st13" d="M76.3 55.1c-0.1 0-0.1-0.1-0.2-0.1 -0.2-0.2-0.4-0.4-0.6-0.6l-0.1-0.1c-0.2 0-0.3-0.1-0.5-0.1 -0.1-0.1-0.2-0.1-0.3-0.1 -0.1 0-0.2-0.1-0.2-0.2l0 0c-0.1 0.1-0.2 0-0.3 0.1 -0.1 0.1-0.2 0-0.3-0.1 -0.1-0.1-0.2-0.1-0.2-0.1s0 0-0.1 0l0 0 0 0c-0.1 0-0.2-0.1-0.4-0.1l0 0c-0.1 0.1 0 0.3-0.2 0.3h-0.1c0-0.1-0.1 0-0.1 0 -0.1 0.1-0.3 0.2-0.3 0.4 -0.2 0.2-0.4 0.5-0.7 0.6 -0.3 0.1-0.3 0.1 0 0.3 0.1 0 0.1 0 0.2 0s0.2 0 0.2 0l0 0c0 0 0 0.1 0.1 0.1 0.2 0 0.3 0.1 0.5 0.1 0.1 0 0.3 0 0.3-0.2 0 0 0 0 0.1 0 0 0 0.1 0.1 0.1 0 0.2 0 0.4 0.1 0.5-0.1l0 0c0.1-0.1 0.1-0.2 0.3-0.1 0.1 0.1 0.2 0 0.3 0 0.1 0 0.2-0.1 0.2 0 0 0 0.1 0.1 0.1 0 0.1-0.1 0.2 0 0.3 0 0-0.1-0.1-0.2-0.1-0.3 0 0.1 0.1 0.2 0.1 0.3 0 0 0 0 0.1 0.1l0 0c0.2 0.1 0.4 0.1 0.6 0l0.1 0.1c0.3 0.1 0.5 0.1 0.8 0l0.1-0.1v-0.1C76.5 55.3 76.4 55.2 76.3 55.1zM72.6 54.5L72.6 54.5 72.6 54.5 72.6 54.5z"/><path class="st13" d="M72.5 50.3c0-0.1-0.1-0.1-0.1-0.2 -0.1 0-0.3-0.1-0.4 0 -0.2 0.1-0.4 0.1-0.5 0.3 -0.1 0.1 0 0.2-0.1 0.2 -0.1 0.1-0.1 0.2 0 0.3 0 0 0 0 0 0.1l0 0c0 0 0 0 0.1 0l0 0 0 0 0 0 0 0c0 0 0 0 0 0.1l0.1 0.1 0 0 0 0c0.2 0.1 0.3 0.3 0.5 0.2 0.1 0 0.2-0.1 0.2-0.2l0 0c0.1 0 0.1-0.1 0.1-0.1V51l0 0c0-0.1 0.1-0.2 0.1-0.3v-0.1C72.6 50.4 72.6 50.4 72.5 50.3z"/><path class="st13" d="M74.3 48.1L74.3 48.1 74.3 48.1z"/><path class="st13" d="M74.7 46.9L74.7 46.9 74.7 46.9z"/><path class="st13" d="M74.8 47.3c0-0.2-0.1-0.3-0.1-0.4 -0.3-0.2-0.6-0.2-0.8 0 -0.1 0.1-0.3 0.2-0.3 0.4l-0.1 0.1c0 0.3 0.2 0.4 0.3 0.6 0.2 0.1 0.4 0 0.6 0.1 0-0.1 0.2 0 0.2-0.1 0.1-0.1 0.2-0.1 0.2-0.2C74.9 47.7 74.8 47.5 74.8 47.3z"/><path class="st14" d="M79.7 53.2c-0.3 0-0.5-0.4-0.4-0.6 -0.5 0-1-0.1-1.4-0.3 0-0.6 1.2 0.3 1.2-0.3 0.1 0-1-1-1.1-1.3 0 0.1 0 0.2-0.1 0.2l0 0V51l0 0c0 1.4-1.5-0.1-1.6-0.1l0 0c0-0.6 0.4-0.6 0.4-1 0.3 0 1.2 0.2 1.3 0.2 0.1-0.3 0-0.5-0.2-0.7 -0.2 0-0.4 0-0.6 0 0.5 0.2 0.8 0 0.8-0.5 -0.2 0-0.4 0-0.6 0 0-0.7 0.2-0.7-0.6-1l0 0c0 0.1-0.2 0.1-0.3 0.2 -0.2 0.1-0.3 0.1-0.5 0 0-0.2-0.1-0.5-0.2-0.7 0.1-0.2 0.3-0.2 0.4-0.3h-0.1c0.2-0.2 0.7-0.3 0.7-0.7 0 0.4-0.8-0.8-0.7-0.7C75.5 46.3 75 45.5 75 45c0.1 0 0.2-0.1 0.2-0.2 0.3 0 0.2-0.1 0.7-0.1 0-0.7-0.3-1.3-0.9-1.8 0.7-0.7-1-2.2-1.1-2.2 -0.1 0.7-0.9 1.6-1.5 2.1 0.4-0.1 0.8 0.1 1 0.3 0.3 0.2 0.3 0.5 0 0.9 -0.1 0.1-0.8 0.5-0.8 0.2C72.4 44.3 71 46 71.8 46c-0.1 0.1 0 0.1 0 0.2 -0.2 0-1.4 0.4-0.7 0.4 -0.1 0.2-0.2 0.5-0.3 0.7 0-0.2 1.4 0.6 1.4 1.2l0 0 0 0c-0.4 0.6-0.8 0.4-1.4 0.4 0-0.1-0.1-0.1-0.1-0.2 -0.2 0-0.4 0.1-0.2 0.3 -0.3 0.2-0.6 0.4-0.8 0.6 0.3 0.1 0.5 0.2 0.8 0.3 -0.5 0.2-0.9 0.4-1 0.8 0.2 0 1.4 0.1 1.6 0.3l0 0c0 0.4 0 0.7-0.3 1h0.1c-0.4 0.1-1.5 0.3-1.8-0.3 -0.2 0.3-0.2 0.5 0 0.7 -0.3 0-1 1.3-1 1.4 0.2 1.3 2.1 0.1 2.7 0.1 -0.1 0 2.8-0.1 3-0.1 0.2 0.1 0.7 0.2 0.9 0.1 0.3 0.2 0.7 0.4 1.1 0.5 0.7 0 1-0.2 1-0.9 0.4-0.1 0.5 0 0.5 0.2 0.1 0.2 0.2 0.2 0.4 0.1 0.3 0.3 2.4 0.3 2.7-0.1C80.2 53.5 79.9 53.4 79.7 53.2zM70.1 52.7L70.1 52.7 70.1 52.7 70.1 52.7zM70.9 49.4L70.9 49.4 70.9 49.4 70.9 49.4zM74.9 45c0 0.1-0.1 0.2-0.1 0.3C74.8 45.2 74.8 45.1 74.9 45zM74.7 46.9L74.7 46.9 74.7 46.9 74.7 46.9 74.7 46.9 74.7 46.9 74.7 46.9zM73.9 46.9c0.3 0 0.5 0 0.8 0 -0.1 0.4-0.1 0.7-0.2 1.1 -0.1 0-0.2 0-0.2 0.1C73.5 48.1 73.1 47.3 73.9 46.9zM72.9 44.3L72.9 44.3c0 0.1-0.1 0.1-0.1 0.2C72.8 44.4 72.8 44.3 72.9 44.3zM72.8 45.7C72.8 45.7 72.9 45.7 72.8 45.7c0.9-0.6 0.7 0.3 0.9 0.4C74 46.3 71.9 46.6 72.8 45.7zM73.2 50.6C73.2 50.7 73.2 50.7 73.2 50.6L73.2 50.6 73.2 50.6C73.2 50.7 73.2 50.7 73.2 50.6 73.2 50.7 73.2 50.7 73.2 50.6 73.2 50.7 73.2 50.7 73.2 50.6zM72.6 46.2C72.6 46.2 72.6 46.3 72.6 46.2 72.6 46.3 72.6 46.2 72.6 46.2L72.6 46.2 72.6 46.2zM72.5 44.8L72.5 44.8 72.5 44.8 72.5 44.8 72.5 44.8 72.5 44.8 72.5 44.8zM72.5 47.3c-0.1 0-0.2 0.1-0.3 0.1C72.3 47.4 72.4 47.3 72.5 47.3zM71.6 46.6L71.6 46.6c0.2 0.1 0.4 0.1 0.7 0C72.1 46.8 71.8 46.8 71.6 46.6zM72.6 50.6c-0.1 0.1-0.1 0.2-0.1 0.3l0 0c0 0.1 0 0.2-0.1 0.2 -0.2 0-0.5 0-0.7 0l0 0c0 0-0.1-0.1-0.1-0.1 0 0 0 0 0-0.1l0 0 0 0c0 0-0.1 0-0.1 0l0 0C71.7 50.3 72.9 49.5 72.6 50.6L72.6 50.6zM72.6 47.9c0.1 0 0.1 0 0.2 0.1C72.7 48 72.7 47.9 72.6 47.9zM73.8 53.2c-2.1 1.2 0.1-2.3 0.1-1.5C74.5 52.3 73.8 52.8 73.8 53.2zM75.3 50.6c-0.4 0.2-0.3 0.5-0.7 0.5 0 0 0 0-0.1 0C71.5 50.1 75.8 48.5 75.3 50.6z"/><path class="st5" d="M101.8 41.8C101.8 41.8 101.7 41.9 101.8 41.8c-0.2-0.1-0.3 0-0.4 0.1 -0.7-0.1-3.2 0.1-3.6-0.3 -0.2-0.2-0.2-0.4-0.2-0.6 0.1 0 0.3 0.1 0.3 0 0.8-0.4 3.3 0.5 3.9-0.1 0.1 0 0.2 0 0.1 0.1C101.9 41.4 102 41.6 101.8 41.8z"/><path class="st15" d="M100.2 41.9L100.2 41.9 100.2 41.9 100.2 41.9z"/><path class="st12" d="M101.6 46L101.6 46 101.6 46 101.6 46z"/><path class="st5" d="M101.8 52.8L101.8 52.8c0.1-0.2 0-0.4 0.1-0.5 0-0.1 0-0.2-0.2-0.2 0 0.1 0 0.1-0.1 0.2 -0.2 0-0.5 0-0.7 0 0-0.1-0.1-0.1-0.1 0 -0.9 0.1-1.8 0-2.6-0.2C98.1 52 98 52 97.8 52c-0.1 0.3-0.1 0.6-0.2 0.9 0.7 0 0.7 0.7 1.6 0.2 0.1 0 0.3 0 0.4 0 0 0 0.1 0 0.1 0l0 0c0 0 1.9 0 2.1-0.2C101.8 53.1 101.8 53 101.8 52.8L101.8 52.8z"/><path class="st5" d="M101.7 39.3c-0.2 0-0.3 0-0.5 0l0 0c0-0.1 0-0.1 0-0.1 -0.1 0-0.2 0-0.3 0l0 0c-0.1 0-0.2 0.1-0.3 0 -0.1 0-0.2 0-0.3 0 -0.4 0.2-1.9 0.2-2.4 0.2l0 0c0 0.1 0 0.2-0.1 0.2 0 0.2 0.2 0.3 0.4 0.2h0.1c0.6-0.1 1.2-0.1 1.8-0.2 0.3 0.1 0.6 0.2 0.9 0.2 0.3 0 0.6 0 0.8 0 0 0 0.1 0 0.1-0.1C101.8 39.6 101.9 39.4 101.7 39.3z"/><path class="st15" d="M102.1 54.5c0-0.2 0-1.6-0.3-1.6 0 0.1 0 0.2-0.1 0.3 -0.6 0-1.6 0.1-2.1 0.2l0 0c0 0-0.1 0-0.1 0 -0.1 0-0.3 0-0.4 0 -0.5 0.1-0.9 0.1-1.3-0.1 -0.2 0-0.1 1-0.1 1.1 -0.1 0.1 0 0.2 0 0.2l0 0 0 0 0 0c0.1 0.1 0.3 0.2 0.4 0.3 0.1 0 0.1 0 0.2 0 0 0.1 0 0.1 0 0.2l0 0c0.1 0 0.1 0 0.2 0l0 0c0 0 0 0-0.1 0 0.1 0.1 0.2 0.2 0.1 0.3 0.1 0 1.1 0.1 1 0.2 0.1 0 0.1-0.1 0.1-0.2 0.6 0 1.3 0.1 1.8-0.1l0 0c0.2 0 0.3 0 0.5-0.1 0.1 0 0-0.1 0-0.2l0 0h0.1C102.1 54.9 102.1 54.7 102.1 54.5L102.1 54.5z"/><path class="st15" d="M102 40.7L102 40.7c-0.1-1.2-5.1-1.2-4.3 0.3l0 0c0.1 0 0.3 0.1 0.3 0 0.2-0.1 2 0.1 2-0.2C100.2 41 102.1 40.8 102 40.7z"/><path class="st15" d="M102.2 37.6C102.2 37.5 102.2 37.5 102.2 37.6c-0.6-1.9-4.5 0-4.5 0 0 0.4 0 0.9 0 1.3 -0.1 0.2-0.1 0.3-0.1 0.5 0.1 0 0.1 0 0.2 0.1l0 0c0-0.2 2.6-0.2 3-0.2 0.2-0.1 0.3-0.1 0.3 0.1l0 0c0.5 0 0.7 0.1 0.9-0.3C102.3 38.7 102.3 38.2 102.2 37.6z"/><path class="st16" d="M98.8 43.8c0 0.1 0 0.2-0.1 0.3 -0.4 2.2 0.9 1.1 2.1 1.7 0.1 0 0.1-0.1 0.1-0.1l0 0c0.6 0 0.4-2.1-0.8-2.1C100 43.5 98.9 43.3 98.8 43.8z"/><path class="st15" d="M102.2 44.6c0-0.2-0.1-2.8-0.5-2.8 -0.8 0-3.6 0.3-4.1-0.2 -0.4 0.4 0.3 0.8 0.4 1 -0.1 0-0.1 0-0.1-0.1 -0.8 0-0.7 8.9-0.2 9.5 0.6 0.7 3.6 0.3 4.1 0.3C102.5 51.6 102.2 46 102.2 44.6zM100.9 49.9c-0.1 0.3-0.1 0.7-0.2 1C99.6 52.3 97 49.9 100.9 49.9zM101.4 46c0 0.4-2.9 0-3.1-0.3 -2.1-2.7 2.2-2.2 2.9-2.2C101.3 44.3 101.4 45.2 101.4 46zM101.6 46L101.6 46 101.6 46 101.6 46z"/><path class="st17" d="M100.7 49.8L100.7 49.8c-0.6 0.1-1.1 0-1.6 0.1 -0.3 0-0.3 0-0.2 0.3v0.1 0.1c0.1 0.3 0.1 0.7 0.3 1 0.1 0.1 0.1 0.1 0.2 0.1s0.3 0 0.5-0.1c0.2 0 0.4 0 0.6 0 0.1-0.1 0.1-0.2 0.2-0.3 0-0.1 0-0.1 0.1-0.2v-0.1l0 0 0 0c0.1-0.3 0.1-0.7 0.2-1l0 0C100.8 49.9 100.8 49.9 100.7 49.8zM100.6 50.4c0 0.1-0.1 0.2 0 0.2 -0.1 0.1-0.2 0.3-0.2 0.4 0 0.2-0.2 0.2-0.3 0.2 -0.2 0-0.3 0.1-0.5 0 -0.1 0-0.2 0-0.3-0.1 0-0.2-0.1-0.4-0.1-0.6 0 0 0-0.1-0.1-0.1 -0.2-0.3-0.2-0.3 0.1-0.4 0.4 0 0.7 0 1.1 0h0.1C100.6 50.1 100.7 50.1 100.6 50.4z"/><path class="st16" d="M100.4 50c-0.3-0.1-1.7-0.3-1.3 0.4 0 0 0 0.1 0.1 0.1 0 0.2 0.1 0.4 0.1 0.6 0.6 0.6 1-0.2 1.3-0.5C100.6 50.4 100.6 50.2 100.4 50z"/><path class="st18" d="M114.6 59.5c0 2.2-3.5 2.2-3.5 0C111.1 57.3 114.6 57.3 114.6 59.5zM111.5 59.5c0 1.7 2.5 1.8 2.6 0.1C114.2 57.8 111.5 57.8 111.5 59.5zM112.5 60.4h-0.4v-1.7c0.4-0.1 0.9-0.1 1.3 0 0.3 0.3 0.3 0.6-0.2 0.8l0 0c0.2 0.2 0.4 0.5 0.4 0.8h-0.4c-0.3-0.3-0.1-0.7-0.7-0.7C112.5 59.6 112.5 60.4 112.5 60.4zM112.6 59.5c0.7-0.1 0.7-0.3 0-0.5V59.5z"/></g>
<g class="logotext"><path class="st19" d="M99.8 95.3c0 1-0.8 1.8-1.9 1.8 -1 0-1.9-0.8-1.9-1.8s0.8-1.8 1.9-1.8S99.8 94.3 99.8 95.3zM96.5 95.3c0 0.8 0.6 1.4 1.4 1.4s1.4-0.6 1.4-1.4 -0.6-1.5-1.4-1.5C97.1 93.9 96.5 94.5 96.5 95.3zM97.6 96.3h-0.4v-1.8c0.2 0 0.4-0.1 0.7-0.1 0.3 0 0.5 0.1 0.6 0.1 0.1 0.1 0.2 0.2 0.2 0.4 0 0.2-0.2 0.4-0.4 0.4l0 0c0.2 0.1 0.3 0.2 0.3 0.4 0.1 0.3 0.1 0.4 0.1 0.5h-0.5c-0.1-0.1-0.1-0.2-0.1-0.4 0-0.2-0.1-0.3-0.4-0.3h-0.2v0.8H97.6zM97.7 95.2h0.2c0.2 0 0.4-0.1 0.4-0.3 0-0.2-0.1-0.3-0.4-0.3 -0.1 0-0.2 0-0.2 0V95.2z"/><path class="st19" d="M25 34.9c0 0.6 0 0.9 0.1 1.1 0.1 0.2 0.1 0.4 0.2 0.5s0.2 0.2 0.3 0.3c0.4 0.3 0.8 0.5 1.4 0.5 0.5 0 1-0.2 1.3-0.6v-1.2c-0.4 0.5-0.7 0.7-1.2 0.7 -0.6 0-0.9-0.4-0.9-1.1V32h1.9v-1.1h-1.9v-1.7h-0.4c0 0-0.2 0.8-0.7 1.3s-1.2 0.7-1.2 0.7v0.7V32H25V34.9z"/><path class="st19" d="M32.8 32c0.2 0.3 0.3 0.7 0.3 1.2v4.1h1.2v-3.7c0-0.8-0.1-1.3-0.2-1.7 -0.2-0.4-0.4-0.7-0.7-0.9 -0.3-0.2-0.7-0.3-1.1-0.3 -0.8 0-1.4 0.3-1.9 1v-2.2h-1.2v7.9h1.2v-4.7c0.3-0.3 0.6-0.6 0.8-0.7 0.2-0.1 0.5-0.2 0.8-0.2C32.3 31.5 32.6 31.7 32.8 32z"/><path class="st19" d="M40.5 35c-0.5 0.8-1.5 1.3-2.1 1.3 -1.5 0-1.6-1.4-1.7-2H41V34c0-1-0.2-1.8-0.7-2.4s-1.1-0.9-1.9-0.9c-0.8 0-1.5 0.3-2 0.9S35.6 33 35.6 34c0 0.7 0.1 1.2 0.4 1.8 0.2 0.5 0.6 0.9 1 1.2s0.9 0.5 1.6 0.4c0.8 0 1.6-0.5 2-0.8L40.5 35 40.5 35zM37.3 32.2c0.3-0.3 0.6-0.4 1.1-0.4 0.4 0 0.8 0.1 1 0.4 0.3 0.3 0.4 0.7 0.4 1.2h-3C36.8 32.9 37 32.5 37.3 32.2z"/><path class="st19" d="M29 65.7c-0.8 0-1.6 0.1-2.2 0.8 -0.6 0.6-0.8 1.6-0.8 2.6s0.2 1.8 0.8 2.4c0.6 0.6 1.3 0.9 2.1 0.9 0.9 0 1.6-0.3 2.2-0.9s0.8-1.4 0.8-2.4 -0.1-2-0.7-2.6C30.7 65.9 29.8 65.7 29 65.7zM30.3 70.7c-0.3 0.4-0.8 0.5-1.3 0.5s-1-0.1-1.4-0.5c-0.3-0.4-0.5-1-0.5-1.7 0-0.6 0.1-1.2 0.4-1.6s0.8-0.5 1.4-0.5c0.5 0 1 0.1 1.4 0.5s0.5 1.1 0.5 1.7S30.7 70.3 30.3 70.7z"/><path class="st19" d="M37.4 66.1c-0.3-0.2-0.7-0.3-1.1-0.3 -0.7 0-1.3 0.3-1.8 0.9v-0.8h-1.2v6.3h1.2v-4.5c0.4-0.6 0.9-0.9 1.4-0.9 0.4 0 0.8 0.1 0.9 0.4 0.2 0.3 0.3 0.7 0.3 1.4v3.6h1.2v-3.6c0-0.8-0.1-1.3-0.3-1.7C37.9 66.6 37.7 66.3 37.4 66.1z"/><path class="st19" d="M45.4 71.3c-0.6 0-0.9-0.4-0.9-1.1v-3.1h1.9V66h-1.9v-1.7h-0.4c0 0-0.2 0.8-0.7 1.3s-1.2 0.7-1.2 0.7V67v0.1h1.1V70c0 0.6 0 0.9 0.1 1.1s0.1 0.4 0.2 0.5c0.1 0.1 0.2 0.2 0.3 0.3 0.4 0.3 0.8 0.5 1.4 0.5 0.5 0 1-0.2 1.3-0.6v-1.2C46.2 71.1 45.9 71.3 45.4 71.3z"/><path class="st19" d="M51.8 66c-0.3-0.2-0.7-0.3-1.1-0.3 -0.8 0-1.4 0.3-1.9 1v-2.2h-1.2v7.9h1.2v-4.7c0.3-0.3 0.6-0.6 0.8-0.7s0.5-0.2 0.8-0.2c0.4 0 0.7 0.1 0.9 0.4s0.3 0.7 0.3 1.2v4.1h1.2v-3.7c0-0.8-0.1-1.3-0.2-1.7C52.4 66.5 52.2 66.2 51.8 66z"/><path class="st19" d="M59.4 69.1c0-1-0.2-1.8-0.7-2.4s-1.1-0.9-1.9-0.9c-0.8 0-1.5 0.3-2 0.9S54 68.1 54 69.1c0 0.7 0.1 1.2 0.4 1.8 0.2 0.5 0.6 0.9 1 1.2 0.4 0.3 0.9 0.5 1.6 0.4 0.8 0 1.6-0.5 2-0.8v-1.6c-0.5 0.8-1.5 1.3-2.1 1.3 -1.5 0-1.6-1.4-1.7-2h4.2V69.1zM55.1 68.5c0.1-0.5 0.3-0.9 0.5-1.2 0.3-0.3 0.6-0.4 1.1-0.4 0.4 0 0.8 0.1 1 0.4 0.3 0.3 0.4 0.7 0.4 1.2H55.1z"/><path class="st20" d="M56.4 93.2c-1-1.2-1.2-13.8-0.4-14.9 0.7-1 0.9-2.8-0.6-2.6 -1.4 0.2-1.4 0.2-3.2 0s-1.9 1.7-1.3 2.7c0.6 1 0.5 3.2 0.2 4.3 -0.3 1.1-2.5 0.7-3.3 0.6s-0.9-0.3-0.9-1 -0.2-2.9 0.2-3.6c0.3-0.7 1.2-2.2 0.4-2.8 -0.8-0.6-1.1 0-2.4 0.1s-2.2-0.5-3 0.2c-1 1.2 0.1 3.3 0.5 4.5 0.5 1.5 0.7 10.5-0.5 12.8 -0.4 0.7-1.1 1.3-0.8 2.3 0.3 0.9 1.2 1 1.9 1s2.8-0.1 4-0.1c1.2-0.1 1.4-1 1.1-1.7 -0.3-0.7-0.9-1-1.2-1.8s-0.6-4.4-0.6-5.1c0-1.2 0.1-1.7 1.2-1.7 1.1 0 2.4-0.3 3.3 0.2 0.9 0.5 0.7 5.5 0.6 6.3 -0.1 0.8-0.6 1.3-0.8 2.5s1 1 2.2 1 3.1 0.9 4 0.1C57.9 95.5 57.3 94.4 56.4 93.2z"/><path class="st20" d="M38.7 87.5c-0.9-1.4-2.1-2.2-4.1-2.7s-3.9-0.7-4.7-1.5c-0.9-0.8-0.9-2 0.1-3.4 1-1.5 5.2-0.2 6 1.3 0.8 1.4 0.7 1.6 1.6 1.7 0.8 0.1 1.6-0.2 1.7-1.1 0.2-0.9 0.2-1.6 0.2-2.1s0.1-2.7-0.4-3.5c-0.4-0.8-1.6-0.3-2.1 0.1s-0.5 0.5-1.8-0.4c-1.3-0.8-5.3-1.3-7.7 0.5C26 77.7 25.2 79 25 80.8s0.3 3.6 1.1 4.4c0.8 0.8 1.1 1 3 1.5s6.5 1.6 6 4 -4.1 2.1-5 1.6c-1-0.5-1.7-3-2.7-3.4 -0.4-0.2-0.7-0.1-1-0.2 -1.7 0.1-1.1 2.9-1.1 3.4 0 0.6 0.1 1.1 0 2.4 -0.1 1.1 1.1 2.2 2.7 1.8 1.4-0.3 1.5-0.5 3.2-0.1 5 0.9 7.7-1 8.2-3.9C39.6 89.7 39.5 88.9 38.7 87.5z"/><path class="st20" d="M54.5 57.8c-0.1 1.4-1.2 3.7 0.5 4 1.5 0.2 2.7 0.1 4.1-0.1 1.9-0.3 0-4 0-5.6s-0.4-3.8 0.3-4.7 2.8-0.7 3.7-0.1c1 0.6 1.5 1.5 2.9 0.8 1.3-0.7 1-5-0.4-5.2s-1.4 0.3-2.4 1.1 -2.5 0.7-3.3 0 -0.8-3.2-0.3-4c0.4-0.7 3.2-0.5 4.9 0.5 1.7 1 2.6-0.3 2.8-2.5s-3.1-1.5-5.2-1.5c-2.1 0-2.6 0.1-3.7 0 -1.1-0.1-3-0.6-4.1 0.6 -1.1 1.2 0 3.1 0.2 4.2C54.7 46.1 54.6 56.4 54.5 57.8z"/><path class="st20" d="M40.9 45.2c-0.1-1.4-1.2-4.4 0.5-4.7 1.5-0.2 2.7 0.6 4.1 0.8 1.9 0.3 0 4 0 5.6s-0.1 8.9 0.4 9.6c0.4 0.7 1.8 1.7 3.3 0.5 3.4-2.7 3.4-0.7 2.2 1.6 -1.5 3.1-2.9 2.5-5 2.5s-0.7-0.1-1.8 0 -3.1 0.8-4.3-0.2c-1.3-1 0.3-2.8 0.7-3.8C42.5 54 41 46.6 40.9 45.2z"/><path class="st20" d="M25.2 58.1c-0.1 1.4-0.9 2.8 0.5 3.7 1.1 0.7 2.9-0.1 4-0.3 1.3-0.2 2.7 0 4 0 1.5 0 2.5 0.3 3.3-1.3 0.3-0.6 1.7-3.4 1-4.1 -0.8-0.8-2.8 0.5-3.5 0.7s-3.3 0.7-4.5-0.7c-0.5-0.6-0.7-3.7 0-4.6 0.7-0.9 2.8-0.7 3.7-0.1s1.5 1.5 2.9 0.8c1.3-0.7 1-5-0.4-5.2s-1.4 0.3-2.4 1.1 -2.5 0.7-3.3 0 -0.8-3.2-0.3-4c0.4-0.7 3.2-0.5 4.9 0.5s2.6-0.3 2.8-2.5c0.2-2.3-3.1-1.5-5.2-1.5s-2.6 0.1-3.7 0 -3-0.6-4.1 0.6c-1.1 1.2 0 3.1 0.2 4.2S25.3 56.7 25.2 58.1z"/><path class="st20" d="M88.9 92.6c-0.1 1.3-1.2 3.6 0.5 3.8 1.5 0.2 2.7 0.1 4.1-0.1 1.9-0.3 0-3.9 0-5.5s-0.4-3.7 0.3-4.6c0.7-0.9 2.8-0.7 3.7-0.1 1 0.6 1.5 1.5 2.9 0.8 1.3-0.7 1-4.9-0.4-5 -1.4-0.2-1.4 0.3-2.4 1 -1 0.8-2.5 0.7-3.3 0S93.5 79.7 94 79c0.4-0.7 3.2-0.5 4.9 0.4 1.7 0.9 2.6-0.2 2.8-2.4 0.2-2.2-3.1-1.5-5.2-1.5s-2.6 0.1-3.7 0 -3-0.6-4.1 0.6 0 3 0.2 4C89.1 81.2 89 91.2 88.9 92.6z"/><path class="st20" d="M75.6 80.4c-0.1-1.3-1.2-4.3 0.5-4.5 1.5-0.2 2.7 0.6 4.1 0.8 1.9 0.3 0 3.9 0 5.5s-0.1 8.6 0.4 9.4c0.4 0.7 1.8 1.6 3.3 0.5 3.4-2.7 3.4-0.7 2.2 1.6 -1.5 3-2.9 2.4-5 2.4s-0.7-0.1-1.8 0c-1.1 0.1-3.1 0.7-4.3-0.2 -1.3-1 0.3-2.7 0.7-3.7C77.1 88.9 75.7 81.7 75.6 80.4z"/><path class="st20" d="M60 92.9c-0.1 1.3-0.9 2.7 0.5 3.6 1.1 0.7 2.9-0.1 4-0.3 1.3-0.2 2.7 0 4 0 1.5 0 2.5 0.3 3.3-1.2 0.3-0.6 1.7-3.4 1-4 -0.8-0.7-2.8 0.5-3.5 0.7s-3.3 0.7-4.5-0.6c-0.5-0.6-0.7-3.6 0-4.5s2.8-0.7 3.7-0.1c1 0.6 1.5 1.5 2.9 0.8 1.3-0.7 1-4.9-0.4-5 -1.4-0.2-1.4 0.3-2.4 1 -1 0.8-2.5 0.7-3.3 0s-0.8-3.2-0.3-3.9c0.4-0.7 3.2-0.5 4.9 0.4 1.7 0.9 2.6-0.2 2.8-2.4 0.2-2.2-3.1-1.5-5.2-1.5s-2.6 0.1-3.7 0c-1.1-0.1-3-0.6-4.1 0.6s0 3 0.2 4C60.1 81.5 60.1 91.6 60 92.9z"/><path class="st21" d="M43.1 96.2c-0.9 0-1.1-0.3-1.2-0.6 -0.1-0.4 0-0.7 0.4-1.2 0.1-0.2 0.2-0.4 0.3-0.6 1.2-2.4 1-11.5 0.5-13.2C43 80.4 43 80.2 42.9 80c-0.4-1.1-1-2.6-0.4-3.3 0.1-0.1 0.3-0.2 0.5-0.2s0.4 0 0.7 0.1c0.3 0 0.7 0.1 1.1 0.1 0.1 0 0.2 0 0.3 0 0.6 0 1-0.2 1.3-0.3 0.2-0.1 0.3-0.1 0.4-0.1 0 0 0.1 0 0.3 0.2 0.4 0.3-0.1 1.3-0.4 1.8l-0.1 0.3c-0.3 0.6-0.3 1.9-0.2 3.6v0.3c0 0.9 0.3 1.4 1.4 1.5h0.3c0.4 0 0.9 0.1 1.5 0.1 1.3 0 2-0.4 2.2-1.2 0.2-1 0.5-3.5-0.3-4.7 -0.3-0.4-0.3-1.1-0.1-1.5 0.1-0.2 0.3-0.4 0.7-0.4 0.1 0 0.1 0 0.2 0h0.1c0.9 0.1 1.3 0.1 1.7 0.1s0.8 0 1.5-0.1c0.1 0 0.1 0 0.2 0 0.2 0 0.3 0.1 0.3 0.1 0.2 0.3 0 1-0.3 1.6 -0.9 1.3-0.6 14.2 0.4 15.6 1.1 1.5 1.1 2 0.7 2.4 -0.1 0.1-0.4 0.2-0.7 0.2l0 0c-0.4 0-0.9-0.1-1.4-0.2s-1-0.2-1.5-0.2c-0.2 0-0.8 0-1 0 -0.5 0-0.6-0.1-0.7-0.1 0 0 0-0.1 0-0.3 0.1-0.6 0.3-1 0.4-1.4 0.1-0.3 0.3-0.7 0.4-1.1 0-0.1 0.6-6.1-0.9-6.9 -0.5-0.3-1.1-0.4-1.8-0.4 -0.4 0-0.7 0-1.1 0 -0.2 0-0.5 0-0.7 0 -1.7 0.1-1.7 1.2-1.7 2.3 0 0.7 0.3 4.4 0.6 5.3 0.2 0.5 0.5 0.8 0.7 1.1 0.2 0.2 0.4 0.4 0.5 0.7 0.1 0.3 0.1 0.5 0 0.7s-0.3 0.2-0.6 0.3c-1 0.1-2.7 0.1-3.6 0.1L43.1 96.2z"/><path class="st1" d="M46.6 76.8c-0.1 0.3-0.3 0.9-0.4 1.1C46.1 78 46 78.1 46 78.2c-0.3 0.7-0.4 2-0.3 3.9v0.2c0 0.9 0.3 1.9 2 2.1H48c0.4 0.1 1 0.1 1.5 0.1 2 0 2.6-0.9 2.7-1.6 0.2-0.9 0.6-3.7-0.4-5.2 -0.2-0.3-0.2-0.7-0.1-0.9 0 0 0-0.1 0.2-0.1H52h0.1c0.9 0.1 1.3 0.1 1.8 0.1 0.4 0 0.8 0 1.4-0.1 0 0.2-0.1 0.5-0.3 0.8 -0.5 0.7-0.8 3.5-0.7 8.1s0.5 7.4 1 8.2c0.8 1.1 0.9 1.5 0.8 1.5 0 0 0 0-0.1 0.1 0 0-0.1 0.1-0.3 0.1 -0.4 0-0.9-0.1-1.3-0.2 -0.5-0.1-1.1-0.2-1.6-0.2 -0.2 0-0.4 0-0.5 0 -0.2 0-0.3 0-0.4 0 0 0 0 0-0.1 0 0.1-0.4 0.2-0.7 0.3-1 0.2-0.4 0.3-0.8 0.4-1.3 0-0.1 0.7-6.4-1.1-7.4 -0.6-0.3-1.4-0.4-2-0.4 -0.4 0-0.8 0-1.1 0 -0.2 0-0.4 0-0.6 0 -2.2 0.1-2.2 1.8-2.3 2.8 0 0.6 0.3 4.5 0.7 5.5 0.2 0.6 0.5 1 0.8 1.3 0.2 0.2 0.3 0.4 0.4 0.6 0 0.1 0 0.1 0 0.1h-0.1c-1 0.1-2.8 0.1-3.6 0.1h-0.3 -0.1c-0.6 0-0.6-0.1-0.7-0.2 0-0.1 0-0.2 0.3-0.8 0.1-0.2 0.3-0.4 0.4-0.6 1.4-2.7 1-12.1 0.5-13.7 -0.1-0.2-0.1-0.4-0.2-0.6 -0.3-0.8-0.8-2.2-0.5-2.7h0.1c0.1 0 0.3 0 0.6 0.1 0.3 0 0.7 0.1 1.2 0.1 0.1 0 0.2 0 0.3 0C45.7 77.1 46.2 76.9 46.6 76.8 46.5 76.8 46.5 76.8 46.6 76.8M46.7 75.6c-0.4 0-0.8 0.3-1.7 0.4 -0.1 0-0.2 0-0.2 0 -0.7 0-1.2-0.2-1.7-0.2 -0.4 0-0.7 0.1-1 0.4 -1 1.2 0.1 3.3 0.5 4.5 0.5 1.5 0.7 10.5-0.5 12.8 -0.4 0.7-1.1 1.3-0.8 2.3 0.3 0.8 1.1 1 1.7 1 0.1 0 0.1 0 0.2 0 0.7 0 2.8-0.1 4-0.1 1.2-0.1 1.4-1 1.1-1.7 -0.3-0.7-0.9-1-1.2-1.8s-0.6-4.4-0.6-5.1c0-1.2 0.1-1.7 1.2-1.7 0.5 0 1.1-0.1 1.7-0.1 0.6 0 1.1 0.1 1.6 0.3 0.9 0.5 0.7 5.5 0.6 6.3 -0.1 0.8-0.6 1.3-0.8 2.5 -0.1 0.9 0.5 1 1.2 1 0.3 0 0.6 0 1 0l0 0c0.8 0 2 0.4 2.9 0.4 0.4 0 0.8-0.1 1.1-0.3 0.9-0.8 0.3-1.9-0.6-3.1 -1-1.4-1.2-14-0.4-15.1 0.7-0.9 0.8-2.6-0.4-2.6 -0.1 0-0.1 0-0.2 0 -0.7 0.1-1.1 0.1-1.4 0.1 -0.4 0-0.8 0-1.8-0.1 -0.1 0-0.2 0-0.2 0 -1.6 0-1.7 1.8-1.1 2.7 0.6 1 0.5 3.2 0.2 4.3 -0.1 0.6-0.9 0.7-1.6 0.7 -0.6 0-1.3-0.1-1.7-0.1 -0.8-0.1-0.9-0.3-0.9-1s-0.2-2.9 0.2-3.6c0.3-0.7 1.2-2.2 0.4-2.8C47.1 75.7 46.9 75.6 46.7 75.6L46.7 75.6z"/><path class="st21" d="M33.4 95.8c-0.7 0-1.5-0.1-2.3-0.2 -0.7-0.1-1.1-0.2-1.5-0.2 -0.5 0-0.9 0.1-1.5 0.3l-0.3 0.1c-0.2 0-0.3 0.1-0.5 0.1 -0.5 0-0.9-0.2-1.2-0.5 -0.2-0.2-0.3-0.5-0.3-0.8 0.1-0.9 0-1.5 0-1.9 0-0.2 0-0.4 0-0.6 0-0.1 0-0.3 0-0.6 -0.1-0.6-0.2-1.7 0.2-2.2 0.1-0.1 0.2-0.2 0.4-0.2 0 0 0.1 0 0.2 0 0.2 0 0.4 0 0.6 0.1 0.3 0.2 0.8 0.9 1.1 1.5 0.5 0.8 0.9 1.6 1.5 1.9 0.5 0.3 1.3 0.4 2.1 0.4 2 0 3.4-0.9 3.7-2.4 0.6-2.8-4-4-6.2-4.6h-0.2c-1.8-0.5-2-0.6-2.7-1.3 -0.6-0.6-1.1-2.2-0.9-3.9 0.2-1.7 0.9-2.8 2.4-4 0.9-0.7 2.3-1.2 3.9-1.2 1.4 0 2.6 0.3 3.1 0.6 0.8 0.5 1.2 0.7 1.6 0.7 0.4 0 0.6-0.2 0.9-0.4 0.3-0.2 0.7-0.5 1-0.5 0.2 0 0.2 0.1 0.2 0.1 0.2 0.3 0.3 1 0.3 3.1v0.1c0 0.4 0 1.1-0.2 2 -0.1 0.3-0.2 0.7-0.9 0.7 -0.1 0-0.1 0-0.2 0 -0.4 0-0.4 0-0.8-0.7 -0.1-0.2-0.2-0.4-0.4-0.7 -0.7-1.3-3.1-2.2-4.8-2.2 -1 0-1.7 0.3-2.1 0.9 -1.4 2.1-0.8 3.4 0 4.1s2 1 3.5 1.3c0.5 0.1 1 0.2 1.5 0.3 1.9 0.5 2.9 1.2 3.7 2.5s0.8 1.9 0.4 4.3C38.2 94.5 36.3 95.8 33.4 95.8L33.4 95.8z"/><path class="st1" d="M31.9 76.3L31.9 76.3c1.4 0 2.4 0.3 2.8 0.6 0.9 0.5 1.3 0.8 1.9 0.8 0.6 0 0.9-0.3 1.2-0.5l0 0c0.1-0.1 0.3-0.2 0.4-0.2 0.1 0.3 0.2 1 0.1 2.6v0.1c0 0.5 0 1.1-0.2 1.9 0 0.1 0 0.2-0.4 0.2h-0.1 -0.1c-0.1-0.1-0.1-0.3-0.2-0.4 -0.1-0.2-0.2-0.4-0.4-0.7 -0.8-1.5-3.5-2.5-5.3-2.5 -1.5 0-2.3 0.6-2.6 1.1 -1.7 2.5-0.7 4.1 0.1 4.8 0.9 0.8 2.2 1.1 3.8 1.5 0.5 0.1 1 0.2 1.5 0.3 1.7 0.4 2.7 1.1 3.4 2.2s0.8 1.5 0.3 3.9c-0.4 2.1-2 3.2-4.7 3.2 -0.7 0-1.4-0.1-2.2-0.2s-1.2-0.2-1.6-0.2c-0.6 0-1 0.1-1.7 0.3l-0.3 0.1c-0.1 0-0.2 0-0.4 0 -0.3 0-0.6-0.1-0.8-0.3 -0.1-0.1-0.2-0.2-0.2-0.3 0.1-1 0-1.5 0-2 0-0.2 0-0.4 0-0.5 0-0.2 0-0.4 0-0.6 -0.1-1.1 0-1.5 0.1-1.7h0.1c0.2 0 0.3 0 0.4 0 0.2 0.1 0.6 0.9 0.9 1.3 0.5 0.9 1 1.7 1.7 2.1 0.6 0.3 1.4 0.5 2.4 0.5 2.3 0 3.9-1.1 4.3-2.8 0.7-3.3-4.3-4.6-6.6-5.2h-0.2c-1.8-0.5-1.9-0.6-2.4-1.1 -0.4-0.5-1-1.8-0.7-3.4 0.2-1.5 0.8-2.6 2.2-3.6C29.4 76.5 31 76.3 31.9 76.3M31.9 75.2c-1.5 0-3.1 0.3-4.3 1.3C26 77.7 25.2 79 25 80.8s0.3 3.6 1.1 4.4c0.8 0.8 1.1 1 3 1.5s6.5 1.6 6 4c-0.3 1.5-1.8 1.9-3.2 1.9 -0.8 0-1.5-0.2-1.8-0.3 -1-0.5-1.7-3-2.7-3.4 -0.4-0.2-0.7-0.1-1-0.2 -1.7 0.1-1.1 2.9-1.1 3.4 0 0.6 0.1 1.1 0 2.4 -0.1 0.9 0.8 1.9 2 1.9 0.2 0 0.4 0 0.6-0.1 0.8-0.2 1.2-0.3 1.7-0.3 0.4 0 0.8 0.1 1.4 0.2 0.9 0.2 1.7 0.2 2.4 0.2 3.5 0 5.3-1.7 5.8-4.2s0.4-3.3-0.5-4.7c-0.9-1.4-2.1-2.2-4.1-2.7s-3.9-0.7-4.7-1.5c-0.9-0.8-0.9-2 0.1-3.4 0.3-0.5 0.9-0.6 1.7-0.6 1.6 0 3.8 0.9 4.4 1.9 0.8 1.4 0.7 1.6 1.6 1.7 0.1 0 0.2 0 0.3 0 0.7 0 1.3-0.3 1.5-1.1 0.2-0.9 0.2-1.6 0.2-2.1s0.1-2.7-0.4-3.5c-0.2-0.3-0.4-0.4-0.7-0.4 -0.5 0-1 0.3-1.3 0.5 -0.2 0.2-0.3 0.3-0.5 0.3s-0.6-0.2-1.3-0.7C34.6 75.5 33.3 75.2 31.9 75.2L31.9 75.2z"/><path class="st21" d="M56.5 61.3c-0.5 0-1 0-1.4-0.1 -0.3 0-0.3-0.1-0.3-0.2 -0.2-0.3 0-1.3 0.1-2 0.1-0.4 0.2-0.8 0.2-1.2 0.1-1.2 0.2-11.7-0.1-12.9 -0.1-0.2-0.1-0.5-0.2-0.7 -0.3-1-0.8-2.2-0.1-2.9 0.4-0.4 0.9-0.6 1.6-0.6 0.4 0 0.9 0.1 1.3 0.1 0.3 0 0.5 0.1 0.7 0.1 0.4 0 0.8 0 1.2 0 0.3 0 0.6 0 0.9 0 0.4 0 1 0 1.7 0 0.4 0 0.8 0 1.3-0.1 0.5 0 1-0.1 1.4-0.1 0.9 0 1.5 0.1 1.7 0.4 0 0.1 0.2 0.2 0.2 0.6 0 0.5-0.3 2.3-1.1 2.3 -0.2 0-0.5-0.1-0.8-0.3 -1-0.6-2.5-1-3.7-1 -1 0-1.7 0.2-1.9 0.7 -0.6 0.9-0.5 3.7 0.4 4.7 0.5 0.5 1.2 0.7 2 0.7 0.7 0 1.5-0.2 2-0.7 0.3-0.2 0.5-0.4 0.6-0.5 0.4-0.3 0.5-0.5 0.9-0.5 0.1 0 0.3 0 0.4 0 0.2 0 0.5 0.4 0.6 1.3 0.3 1.3 0 2.6-0.4 2.8 -0.2 0.1-0.4 0.2-0.6 0.2 -0.3 0-0.6-0.2-1-0.5 -0.2-0.2-0.4-0.3-0.6-0.4 -0.6-0.4-1.5-0.6-2.4-0.6s-1.7 0.3-2.1 0.8c-0.7 0.9-0.6 2.4-0.5 3.9 0 0.4 0 0.8 0.1 1.1 0 0.6 0.2 1.3 0.4 2.1 0.3 1 0.6 2.4 0.3 2.8 0 0-0.1 0.1-0.3 0.1C58.2 61.2 57.4 61.3 56.5 61.3L56.5 61.3z"/><path class="st1" d="M56.2 41.2c0.4 0 0.8 0.1 1.2 0.1 0.3 0 0.5 0.1 0.7 0.1 0.4 0 0.8 0 1.2 0 0.3 0 0.6 0 0.9 0 0.4 0 1 0 1.7 0 0.4 0 0.9 0 1.3-0.1 0.5 0 1-0.1 1.4-0.1 1.1 0 1.3 0.2 1.3 0.2s0 0.1 0 0.2c-0.1 1.4-0.5 1.8-0.6 1.8 0 0-0.2 0-0.5-0.2 -1.1-0.6-2.7-1-4-1 -1.2 0-2 0.3-2.4 1 -0.7 1.1-0.7 4.2 0.5 5.4 0.5 0.4 1.1 0.7 1.8 0.9 -1 0-1.9 0.4-2.4 1 -0.8 1-0.7 2.7-0.6 4.3 0 0.4 0 0.8 0.1 1.1 0 0.6 0.2 1.4 0.4 2.2 0.2 0.6 0.5 1.8 0.4 2.3 -0.8 0.1-1.5 0.2-2.3 0.2 -0.4 0-0.9 0-1.3-0.1 0-0.3 0.1-1.1 0.2-1.5 0.1-0.4 0.2-0.8 0.2-1.2 0.1-1.3 0.2-11.8-0.1-13.1 -0.1-0.2-0.1-0.5-0.2-0.8 -0.3-0.8-0.7-1.9-0.2-2.3C55.2 41.5 55.5 41.2 56.2 41.2M65.1 47.9L65.1 47.9c0.1 0 0.2 0 0.3 0 0.1 0.2 0.4 0.8 0.4 1.7S65.6 51 65.6 51c-0.2 0.1-0.3 0.1-0.4 0.1s-0.4-0.2-0.7-0.4c-0.2-0.1-0.4-0.3-0.7-0.5 -0.5-0.3-1.3-0.6-2-0.7 0.8 0 1.5-0.3 2.1-0.8 0.3-0.2 0.5-0.4 0.7-0.6C64.8 48 64.8 47.9 65.1 47.9M56.2 40.1c-0.8 0-1.5 0.2-2.1 0.8 -1.1 1.2 0 3.1 0.2 4.2 0.3 1 0.2 11.4 0.1 12.7 -0.1 1.4-1.2 3.7 0.5 4 0.5 0.1 1 0.1 1.5 0.1 0.9 0 1.7-0.1 2.5-0.2 1.9-0.3 0-4 0-5.6s-0.4-3.8 0.3-4.7c0.3-0.4 1-0.6 1.6-0.6 0.8 0 1.6 0.2 2.1 0.5 0.7 0.5 1.2 1.1 2 1.1 0.3 0 0.6-0.1 0.9-0.3 1.3-0.7 1-5-0.4-5.2 -0.2 0-0.4 0-0.5 0 -0.9 0-1 0.4-1.9 1.1 -0.5 0.4-1.1 0.6-1.7 0.6 -0.6 0-1.2-0.2-1.6-0.6 -0.8-0.7-0.8-3.2-0.3-4 0.2-0.3 0.7-0.4 1.5-0.4 1.1 0 2.5 0.3 3.4 0.9 0.4 0.2 0.7 0.3 1.1 0.3 1 0 1.6-1.1 1.7-2.9 0.1-1.4-1.1-1.6-2.5-1.6 -0.9 0-1.9 0.1-2.7 0.1 -1.3 0-2 0-2.6 0 -0.4 0-0.7 0-1.1 0C57.7 40.3 57 40.1 56.2 40.1L56.2 40.1z"/><path class="st21" d="M42.1 61c-0.6 0-1.1-0.1-1.4-0.4 -0.5-0.4-0.3-1.1 0.5-2.3 0.2-0.3 0.3-0.5 0.4-0.8 1.3-2.9 0.5-8.5 0.1-11.3 -0.1-0.5-0.1-0.9-0.1-1.1 0-0.3-0.1-0.7-0.2-1.1 -0.2-0.9-0.4-2.3-0.1-2.8 0-0.1 0.1-0.1 0.3-0.2 0.1 0 0.3 0 0.4 0 0.6 0 1.3 0.2 1.9 0.4 0.5 0.2 1 0.3 1.6 0.4 0.2 0 0.2 0.1 0.3 0.1 0.3 0.4-0.1 1.8-0.3 2.8 -0.2 0.8-0.4 1.5-0.4 2.1 0 0.1-0.2 8.9 0.4 9.9 0.4 0.7 1.3 1.3 2.3 1.3 0.6 0 1.3-0.2 1.8-0.7 1.4-1.1 1.9-1.2 2.1-1.2 0 0.1 0 0.8-0.7 2.2 -1 2.1-1.9 2.2-2.9 2.2 -0.2 0-0.5 0-0.7 0 -0.3 0-0.6 0-0.8 0 -1 0-1.2 0-1.2 0h-0.2 -0.4c-0.3 0-0.6 0.1-0.9 0.1C43.2 60.9 42.6 61 42.1 61z"/><path class="st1" d="M41.9 41.6c0.6 0 1.1 0.2 1.7 0.4 0.5 0.2 1 0.3 1.6 0.4 0 0.5-0.3 1.6-0.4 2.3 -0.2 0.8-0.4 1.6-0.4 2.2 0 0.9-0.2 9 0.5 10.2 0.5 0.8 1.5 1.6 2.8 1.6 0.8 0 1.5-0.3 2.2-0.8 0.4-0.3 0.7-0.5 0.9-0.7 -0.1 0.3-0.2 0.6-0.4 0.9C49.4 60 48.8 60 48 60c-0.2 0-0.5 0-0.7 0 -0.3 0-0.6 0-0.9 0 -0.9 0-1.1 0-1.1 0l0 0c-0.1 0-0.1 0-0.2 0H45h-0.1c-0.1 0-0.2 0-0.4 0 -0.3 0-0.6 0.1-1 0.1 -0.5 0.1-1 0.2-1.5 0.2s-0.8-0.1-1.1-0.3h-0.1l0 0c-0.1-0.3 0.5-1.2 0.7-1.5s0.3-0.6 0.4-0.8c1.3-3 0.5-8.8 0.1-11.6 -0.1-0.5-0.1-0.8-0.1-1.1s-0.1-0.8-0.2-1.2c-0.1-0.6-0.3-1.8-0.2-2.3C41.7 41.6 41.8 41.6 41.9 41.6M41.9 40.5c-0.2 0-0.3 0-0.5 0 -1.7 0.2-0.6 3.3-0.5 4.7C41 46.6 42.5 54 41 57.3c-0.4 1-2 2.8-0.7 3.8 0.5 0.4 1.2 0.5 1.8 0.5 0.9 0 1.9-0.3 2.5-0.3 0.4 0 0.5 0 0.5 0s0 0 1.3 0c0.6 0 1.1 0 1.6 0 1.3 0 2.3-0.3 3.4-2.5 0.8-1.6 1-3 0.2-3 -0.5 0-1.2 0.4-2.4 1.3 -0.5 0.4-1 0.6-1.5 0.6 -0.9 0-1.6-0.6-1.9-1.1 -0.4-0.7-0.4-8-0.4-9.6s1.9-5.4 0-5.6C44.3 41.2 43.2 40.5 41.9 40.5L41.9 40.5z"/><path class="st21" d="M26.8 61.5c-0.3 0-0.6-0.1-0.8-0.2 -0.7-0.5-0.7-1-0.4-2.1 0.1-0.3 0.1-0.7 0.2-1 0.1-1.2 0.2-11.7-0.1-12.9 -0.1-0.2-0.1-0.5-0.2-0.7 -0.3-1-0.8-2.2-0.1-2.9 0.4-0.4 0.9-0.6 1.6-0.6 0.4 0 0.9 0.1 1.3 0.1 0.3 0 0.5 0.1 0.7 0.1 0.4 0 0.8 0 1.2 0 0.3 0 0.6 0 0.9 0 0.4 0 1 0 1.7 0 0.4 0 0.8 0 1.3-0.1 0.5 0 1-0.1 1.4-0.1 0.9 0 1.5 0.1 1.7 0.4 0 0.1 0.2 0.2 0.2 0.6 0 0.5-0.3 2.3-1.1 2.3 -0.2 0-0.5-0.1-0.8-0.3 -1-0.6-2.5-1-3.7-1 -1 0-1.7 0.2-1.9 0.7 -0.6 0.9-0.5 3.7 0.4 4.7 0.5 0.5 1.2 0.7 2 0.7 0.7 0 1.5-0.2 2-0.7 0.3-0.2 0.5-0.4 0.6-0.5 0.4-0.4 0.5-0.5 0.9-0.5 0.1 0 0.3 0 0.4 0 0.2 0 0.5 0.4 0.6 1.3 0.3 1.3 0 2.6-0.4 2.8 -0.2 0.1-0.4 0.2-0.6 0.2 -0.3 0-0.6-0.2-1-0.5 -0.2-0.2-0.4-0.3-0.6-0.4 -0.6-0.4-1.5-0.6-2.4-0.6s-1.7 0.3-2.1 0.8c-0.9 1.1-0.7 4.5 0 5.3 0.7 0.7 1.7 1.1 3 1.1 0.9 0 1.8-0.2 2.1-0.3 0.2-0.1 0.4-0.2 0.7-0.3 0.6-0.3 1.5-0.7 2-0.7 0.1 0 0.2 0 0.3 0.1 0.2 0.3-0.4 2-1.1 3.4 -0.5 0.9-0.9 1-1.7 1 -0.1 0-0.3 0-0.5 0s-0.4 0-0.6 0l0 0c-0.5 0-0.9 0-1.3 0 -0.4 0-0.8 0-1.2 0 -0.6 0-1.1 0-1.6 0.1 -0.3 0-0.7 0.1-1.1 0.2C28 61.3 27.3 61.5 26.8 61.5z"/><path class="st1" d="M26.9 41.6c0.4 0 0.8 0.1 1.2 0.1 0.3 0 0.5 0.1 0.7 0.1 0.4 0 0.8 0 1.2 0 0.3 0 0.6 0 0.9 0 0.4 0 1 0 1.7 0 0.4 0 0.9 0 1.3-0.1 0.5 0 1-0.1 1.4-0.1 1.1 0 1.3 0.2 1.3 0.2s0 0.1 0 0.2c-0.1 1.4-0.5 1.8-0.6 1.8 0 0-0.2 0-0.5-0.2 -1.1-0.6-2.7-1-4-1 -1.2 0-2 0.3-2.4 1 -0.7 1.1-0.7 4.2 0.5 5.4 0.5 0.4 1.1 0.7 1.8 0.9 -1 0-1.9 0.4-2.4 1 -1 1.3-0.9 5 0 6 0.8 0.9 1.9 1.3 3.4 1.3 0.9 0 1.8-0.2 2.3-0.4 0.2-0.1 0.4-0.2 0.7-0.3 0.4-0.2 1-0.5 1.5-0.6 -0.1 0.6-0.6 1.8-1 2.6 -0.3 0.6-0.5 0.7-1.2 0.7 -0.1 0-0.3 0-0.4 0 -0.2 0-0.4 0-0.6 0h-0.1c-0.4 0-0.8 0-1.2 0s-0.8 0-1.3 0c-0.6 0-1.1 0-1.6 0.1 -0.4 0.1-0.7 0.1-1.1 0.2 -0.6 0.1-1.2 0.3-1.7 0.3 -0.2 0-0.4 0-0.5-0.1 -0.4-0.2-0.4-0.4-0.2-1.5 0.1-0.3 0.1-0.7 0.2-1.1 0.1-1.3 0.2-11.8-0.1-13.1 -0.1-0.2-0.1-0.5-0.2-0.8 -0.3-0.8-0.7-1.9-0.2-2.3C25.8 41.8 26.1 41.6 26.9 41.6M35.7 48.3L35.7 48.3c0.1 0 0.2 0 0.3 0 0.1 0.2 0.4 0.8 0.4 1.7s-0.2 1.4-0.2 1.4c-0.2 0.1-0.3 0.1-0.4 0.1 -0.1 0-0.4-0.2-0.7-0.4 -0.2-0.1-0.4-0.3-0.7-0.5 -0.5-0.3-1.3-0.6-2-0.7 0.8 0 1.5-0.3 2.1-0.8 0.3-0.2 0.5-0.4 0.7-0.6C35.5 48.3 35.5 48.3 35.7 48.3M26.9 40.4c-0.8 0-1.5 0.2-2.1 0.8 -1.1 1.2 0 3.1 0.2 4.2 0.3 1 0.2 11.4 0.1 12.7 -0.1 1.4-0.9 2.8 0.5 3.7 0.3 0.2 0.7 0.3 1.1 0.3 1 0 2.1-0.4 2.9-0.5 0.5-0.1 1-0.1 1.5-0.1 0.8 0 1.6 0.1 2.5 0.1l0 0 0 0c0.4 0 0.7 0 1 0 0.9 0 1.6-0.1 2.2-1.3 0.3-0.6 1.7-3.4 1-4.1C37.6 56 37.4 56 37.1 56c-0.9 0-2.3 0.8-2.9 1 -0.3 0.1-1.1 0.3-1.9 0.3 -0.9 0-1.9-0.2-2.6-0.9 -0.5-0.6-0.7-3.7 0-4.6 0.3-0.4 1-0.6 1.6-0.6 0.8 0 1.6 0.2 2.1 0.5 0.7 0.5 1.2 1.1 2 1.1 0.3 0 0.6-0.1 0.9-0.3 1.3-0.7 1-5-0.4-5.2 -0.2 0-0.4 0-0.5 0 -0.9 0-1 0.4-1.9 1.1C33 48.8 32.4 49 31.8 49c-0.6 0-1.2-0.2-1.6-0.6 -0.8-0.7-0.8-3.2-0.3-4 0.2-0.3 0.7-0.4 1.5-0.4 1.1 0 2.5 0.3 3.4 0.9 0.4 0.2 0.7 0.3 1.1 0.3 1 0 1.6-1.1 1.7-2.9 0.1-1.4-1.1-1.6-2.5-1.6 -0.9 0-1.9 0.1-2.7 0.1 -1.3 0-2 0-2.6 0 -0.4 0-0.7 0-1.1 0C28.3 40.6 27.6 40.4 26.9 40.4L26.9 40.4z"/><path class="st21" d="M90.9 95.9c-0.5 0-1 0-1.4-0.1 -0.3 0-0.3-0.1-0.3-0.2 -0.2-0.3 0-1.3 0.1-1.9 0.1-0.4 0.2-0.8 0.2-1.1 0.1-1.2 0.2-11.4-0.1-12.6 -0.1-0.2-0.1-0.4-0.2-0.7 -0.3-0.9-0.8-2.1-0.1-2.8 0.4-0.4 0.9-0.6 1.6-0.6 0.4 0 0.9 0.1 1.3 0.1 0.3 0 0.5 0.1 0.7 0.1 0.4 0 0.8 0 1.2 0 0.3 0 0.6 0 0.9 0 0.4 0 1 0 1.7 0 0.4 0 0.8 0 1.3-0.1 0.5 0 1-0.1 1.4-0.1 0.9 0 1.5 0.1 1.7 0.4 0 0 0.2 0.2 0.1 0.6 0 0.5-0.3 2.3-1.1 2.3 -0.2 0-0.5-0.1-0.8-0.3 -1-0.6-2.5-0.9-3.7-0.9 -1 0-1.7 0.2-1.9 0.7 -0.6 0.9-0.5 3.7 0.4 4.6 0.5 0.5 1.2 0.7 2 0.7 0.7 0 1.5-0.2 2-0.6 0.3-0.2 0.5-0.4 0.6-0.5 0.4-0.3 0.5-0.4 1-0.4 0.1 0 0.3 0 0.4 0 0.2 0 0.5 0.4 0.7 1.3 0.2 1.3 0 2.5-0.5 2.7 -0.2 0.1-0.4 0.2-0.6 0.2 -0.3 0-0.6-0.2-1.1-0.5 -0.2-0.1-0.4-0.3-0.6-0.4 -0.6-0.4-1.5-0.6-2.4-0.6s-1.7 0.3-2.1 0.8c-0.7 0.9-0.6 2.4-0.5 3.9 0 0.4 0 0.7 0.1 1.1 0 0.6 0.2 1.3 0.4 2 0.3 0.9 0.6 2.3 0.4 2.7 0 0-0.1 0.1-0.3 0.1C92.6 95.8 91.8 95.9 90.9 95.9z"/><path class="st1" d="M90.6 76.5c0.4 0 0.8 0.1 1.2 0.1 0.3 0 0.5 0.1 0.7 0.1 0.4 0 0.8 0 1.2 0 0.3 0 0.6 0 0.9 0 0.4 0 1 0 1.7 0 0.4 0 0.9 0 1.3-0.1 0.5 0 1-0.1 1.4-0.1 1.1 0 1.3 0.2 1.3 0.2l0 0c0 0 0 0.1 0 0.2 -0.1 1.3-0.5 1.7-0.6 1.7 0 0-0.2 0-0.5-0.2 -1.1-0.6-2.7-1-4-1 -1.2 0-2 0.3-2.4 1 -0.7 1.1-0.7 4.1 0.5 5.3 0.4 0.4 0.9 0.6 1.5 0.8 -0.9 0.1-1.7 0.4-2.1 1 -0.8 1-0.7 2.7-0.6 4.3 0 0.4 0 0.7 0.1 1.1 0 0.6 0.2 1.4 0.4 2.2 0.2 0.6 0.5 1.7 0.4 2.2 -0.8 0.1-1.5 0.2-2.3 0.2 -0.4 0-0.9 0-1.3-0.1 0-0.3 0.1-1 0.2-1.4s0.2-0.8 0.2-1.2c0.1-1.2 0.2-11.5-0.1-12.8 -0.1-0.2-0.2-0.5-0.3-0.8 -0.3-0.8-0.6-1.8-0.2-2.2C89.6 76.7 89.8 76.5 90.6 76.5M99.5 83.1L99.5 83.1c0.1 0 0.2 0 0.3 0 0.1 0.2 0.3 0.8 0.4 1.6 0 0.8-0.2 1.3-0.2 1.4 -0.2 0.1-0.3 0.1-0.4 0.1 -0.2 0-0.4-0.2-0.7-0.4 -0.2-0.1-0.4-0.3-0.7-0.5 -0.5-0.3-1.1-0.5-1.7-0.6 0.7-0.1 1.3-0.3 1.9-0.7 0.3-0.2 0.5-0.4 0.7-0.5C99.2 83.1 99.2 83.1 99.5 83.1M90.6 75.4c-0.8 0-1.5 0.2-2.1 0.8 -1.1 1.2 0 3 0.2 4 0.3 1 0.2 11 0.1 12.4 -0.1 1.3-1.2 3.6 0.5 3.8 0.5 0.1 1 0.1 1.5 0.1 0.9 0 1.7-0.1 2.5-0.2 1.9-0.3 0-3.9 0-5.5s-0.4-3.7 0.3-4.6c0.3-0.4 1-0.6 1.6-0.6 0.8 0 1.6 0.2 2.1 0.5 0.7 0.4 1.2 1 2 1 0.3 0 0.6-0.1 0.9-0.3 1.3-0.7 1-4.9-0.4-5 -0.2 0-0.4 0-0.5 0 -0.9 0-1 0.4-1.9 1.1 -0.5 0.4-1.1 0.5-1.7 0.5s-1.2-0.2-1.6-0.6c-0.8-0.7-0.8-3.2-0.3-3.9 0.2-0.3 0.7-0.4 1.5-0.4 1.1 0 2.5 0.3 3.4 0.9 0.4 0.2 0.7 0.3 1.1 0.3 1 0 1.6-1.1 1.7-2.8 0.1-1.3-1.1-1.6-2.5-1.6 -0.9 0-1.9 0.1-2.7 0.1 -1.3 0-2 0-2.6 0 -0.4 0-0.7 0-1.1 0C92.1 75.5 91.3 75.4 90.6 75.4L90.6 75.4z"/><path class="st21" d="M76.8 95.7c-0.6 0-1.1-0.1-1.5-0.4 -0.5-0.4-0.3-1 0.5-2.2 0.2-0.3 0.3-0.5 0.4-0.7 1.3-2.8 0.5-8.3 0.1-11 -0.1-0.5-0.1-0.8-0.1-1.1 0-0.3-0.1-0.7-0.2-1.1 -0.2-0.9-0.4-2.2-0.1-2.7 0-0.1 0.1-0.1 0.3-0.2 0.1 0 0.3 0 0.4 0 0.6 0 1.3 0.2 1.9 0.4 0.5 0.2 1 0.3 1.6 0.4 0.2 0 0.2 0.1 0.3 0.1 0.3 0.4-0.1 1.8-0.4 2.7 -0.2 0.8-0.4 1.5-0.4 2 0 0.1-0.2 8.6 0.4 9.7 0.4 0.6 1.3 1.3 2.3 1.3 0.6 0 1.2-0.2 1.8-0.7 1.4-1.1 1.9-1.2 2.1-1.2 0 0.1 0 0.8-0.7 2.1 -1 2-1.9 2.2-2.9 2.2 -0.2 0-0.5 0-0.7 0 -0.3 0-0.6 0-0.8 0 -1 0-1.2 0-1.2 0h-0.2 -0.5c-0.3 0-0.6 0.1-0.9 0.1C77.8 95.6 77.3 95.7 76.8 95.7z"/><path class="st1" d="M76.6 76.9c0.6 0 1.1 0.2 1.7 0.4 0.5 0.2 1 0.3 1.6 0.4 0 0.5-0.3 1.6-0.4 2.2 -0.2 0.8-0.4 1.5-0.4 2.2 0 0.9-0.2 8.8 0.5 10 0.5 0.8 1.5 1.6 2.8 1.6 0.8 0 1.5-0.3 2.2-0.8 0.4-0.3 0.7-0.5 0.9-0.7 -0.1 0.2-0.2 0.5-0.4 0.8 -0.9 1.9-1.6 1.9-2.4 1.9 -0.2 0-0.5 0-0.7 0 -0.3 0-0.6 0-0.9 0 -0.9 0-1.1 0-1.1 0 -0.1 0-0.1 0-0.2 0h-0.1 -0.1c-0.1 0-0.2 0-0.4 0 -0.3 0-0.6 0.1-1 0.1 -0.5 0.1-1 0.2-1.5 0.2s-0.9-0.1-1.1-0.3l0 0c-0.1-0.3 0.4-1.1 0.7-1.4 0.2-0.3 0.3-0.5 0.4-0.8 1.4-2.9 0.5-8.6 0.1-11.3 -0.1-0.5-0.1-0.8-0.1-1 0-0.3-0.1-0.7-0.2-1.2s-0.3-1.7-0.2-2.2C76.4 76.9 76.5 76.9 76.6 76.9M76.6 75.8c-0.2 0-0.3 0-0.5 0 -1.7 0.2-0.6 3.2-0.5 4.5s1.6 8.6 0.1 11.7c-0.4 0.9-2 2.7-0.7 3.7 0.5 0.4 1.2 0.5 1.8 0.5 0.9 0 1.9-0.3 2.5-0.3 0.4 0 0.5 0 0.5 0s0 0 1.3 0c0.6 0 1.1 0 1.6 0 1.3 0 2.3-0.3 3.4-2.5 0.8-1.5 1-2.9 0.2-2.9 -0.5 0-1.2 0.4-2.4 1.3 -0.5 0.4-1 0.6-1.5 0.6 -0.9 0-1.6-0.6-1.9-1 -0.4-0.7-0.4-7.8-0.4-9.4s1.9-5.2 0-5.5C79 76.5 77.9 75.8 76.6 75.8L76.6 75.8z"/><path class="st21" d="M61.6 96.2c-0.3 0-0.6-0.1-0.8-0.2 -0.7-0.4-0.7-1-0.4-2 0.1-0.3 0.1-0.7 0.2-1 0.1-1.2 0.2-11.4-0.1-12.6 -0.1-0.2-0.1-0.4-0.2-0.7 -0.3-0.9-0.8-2.1-0.1-2.8 0.4-0.4 0.9-0.6 1.6-0.6 0.4 0 0.9 0.1 1.3 0.1 0.3 0 0.5 0.1 0.7 0.1 0.4 0 0.8 0 1.2 0 0.3 0 0.6 0 0.9 0 0.4 0 1 0 1.7 0 0.4 0 0.8 0 1.3-0.1 0.5 0 1-0.1 1.4-0.1 0.9 0 1.5 0.1 1.7 0.4 0 0 0.2 0.2 0.1 0.6 0 0.5-0.3 2.3-1.1 2.3 -0.2 0-0.5-0.1-0.8-0.3 -1-0.6-2.5-0.9-3.7-0.9 -1 0-1.7 0.2-1.9 0.7C64 80 64 82.8 64.9 83.7c0.5 0.5 1.2 0.7 2 0.7 0.7 0 1.5-0.2 2-0.6 0.3-0.2 0.5-0.4 0.6-0.5 0.4-0.3 0.5-0.4 1-0.4 0.1 0 0.3 0 0.4 0 0.2 0 0.5 0.4 0.7 1.3 0.2 1.3 0 2.5-0.5 2.7 -0.2 0.1-0.4 0.2-0.6 0.2 -0.3 0-0.6-0.2-1.1-0.5 -0.2-0.1-0.4-0.3-0.6-0.4 -0.6-0.4-1.5-0.6-2.4-0.6s-1.7 0.3-2.1 0.8c-0.9 1.1-0.7 4.4 0 5.2 0.7 0.7 1.7 1.1 3 1.1 0.9 0 1.8-0.2 2.1-0.3 0.2-0.1 0.4-0.2 0.7-0.3 0.6-0.3 1.5-0.7 2-0.7 0.1 0 0.2 0 0.3 0.1 0.1 0.3-0.4 2-1.1 3.3 -0.5 0.9-0.9 1-1.7 1 -0.1 0-0.3 0-0.5 0s-0.4 0-0.6 0l0 0c-0.5 0-0.9 0-1.3 0s-0.8 0-1.2 0c-0.6 0-1.1 0-1.6 0.1 -0.3 0-0.7 0.1-1.1 0.2C62.8 96 62.2 96.2 61.6 96.2L61.6 96.2z"/><path class="st1" d="M61.7 76.9c0.4 0 0.8 0.1 1.2 0.1 0.3 0 0.5 0.1 0.7 0.1 0.4 0 0.8 0 1.2 0 0.3 0 0.6 0 0.9 0 0.4 0 1 0 1.7 0 0.4 0 0.9 0 1.3-0.1 0.5 0 1-0.1 1.4-0.1 1.1 0 1.3 0.2 1.3 0.2l0 0c0 0 0 0.1 0 0.2 -0.1 1.3-0.5 1.7-0.6 1.7 0 0-0.2 0-0.5-0.2 -1.1-0.6-2.7-1-4-1 -1.2 0-2 0.3-2.4 1 -0.7 1.1-0.7 4.1 0.5 5.3 0.4 0.4 0.9 0.6 1.5 0.8 -0.9 0.1-1.7 0.4-2.1 1 -1.1 1.3-0.9 4.9 0 5.9 0.8 0.9 1.9 1.3 3.4 1.3 0.9 0 1.8-0.2 2.3-0.3 0.2-0.1 0.4-0.2 0.7-0.3 0.4-0.2 1-0.4 1.5-0.6 -0.1 0.6-0.6 1.7-1 2.5C70.4 95 70.2 95 69.5 95c-0.1 0-0.3 0-0.4 0 -0.2 0-0.4 0-0.6 0h-0.1c-0.4 0-0.8 0-1.2 0 -0.4 0-0.8 0-1.3 0 -0.6 0-1.1 0-1.6 0.1 -0.4 0-0.7 0.1-1.1 0.2 -0.6 0.1-1.2 0.3-1.7 0.3 -0.2 0-0.4 0-0.5-0.1 -0.3-0.2-0.4-0.3-0.2-1.4 0.1-0.3 0.1-0.7 0.2-1.1 0.1-1.2 0.2-11.5-0.1-12.8 -0.1-0.2-0.2-0.5-0.3-0.8 -0.3-0.8-0.6-1.8-0.2-2.2C60.6 77.1 60.9 76.9 61.7 76.9M70.5 83.4L70.5 83.4c0.1 0 0.2 0 0.3 0 0.1 0.2 0.3 0.8 0.4 1.6 0 0.8-0.2 1.3-0.2 1.4 -0.2 0.1-0.3 0.1-0.4 0.1 -0.2 0-0.4-0.2-0.7-0.4 -0.2-0.1-0.4-0.3-0.7-0.5 -0.5-0.3-1.1-0.5-1.7-0.6 0.7-0.1 1.3-0.3 1.9-0.7 0.3-0.2 0.5-0.4 0.7-0.5C70.3 83.4 70.3 83.4 70.5 83.4M61.7 75.7c-0.8 0-1.5 0.2-2.1 0.8 -1.1 1.2 0 3 0.2 4 0.3 1 0.2 11 0.1 12.4 -0.1 1.3-0.9 2.7 0.5 3.6 0.3 0.2 0.7 0.3 1.1 0.3 1 0 2.1-0.4 2.9-0.5 0.5-0.1 1-0.1 1.5-0.1 0.8 0 1.6 0.1 2.5 0.1l0 0 0 0c0.4 0 0.7 0 1 0 0.9 0 1.6-0.1 2.2-1.3 0.3-0.6 1.7-3.4 1-4 -0.2-0.2-0.4-0.2-0.7-0.2 -0.9 0-2.3 0.8-2.9 1 0 0-0.8 0.2-1.6 0.2 -0.9 0-1.9-0.2-2.6-0.9 -0.5-0.6-0.7-3.6 0-4.5 0.3-0.4 1-0.6 1.6-0.6 0.8 0 1.6 0.2 2.1 0.5 0.7 0.4 1.2 1 2 1 0.3 0 0.6-0.1 0.9-0.3 1.3-0.7 1-4.9-0.4-5 -0.2 0-0.4 0-0.5 0 -0.9 0-1 0.4-1.9 1.1 -0.5 0.4-1.1 0.5-1.7 0.5s-1.2-0.2-1.6-0.6c-0.8-0.7-0.8-3.2-0.3-3.9 0.2-0.3 0.7-0.4 1.5-0.4 1.1 0 2.5 0.3 3.4 0.9 0.4 0.2 0.7 0.3 1.1 0.3 1 0 1.6-1.1 1.7-2.8 0.1-1.3-1.1-1.6-2.5-1.6 -0.9 0-1.9 0.1-2.7 0.1 -1.3 0-2 0-2.6 0 -0.4 0-0.7 0-1.1 0C63.2 75.9 62.4 75.7 61.7 75.7L61.7 75.7z"/></g></g></svg>