<?xml version="1.0" encoding="UTF-8"?>
<svg xmlns="http://www.w3.org/2000/svg" viewBox="0 0 400 187" width="400" height="187">
  <style>
		tspan { white-space:pre }
		.shp0 { fill: #a5a6a9 } 
		.shp1 { fill: #00b5d1 } 
		.shp2 { fill: none;stroke: #2b2e34;stroke-width: 1.212 } 
		.shp3 { fill: #2b2e34 } 
		.shp4 { fill: #ffffff } 
	</style>
  <g id="Page 1">
    <path id="Path 1" class="shp0" d="M79.77,158.24l-7.24,-10.25v10.06h-1.82v-14.02h0.76l7.05,9.69v-9.69h1.82v14.21zM112.79,145.75v3.89h4.63v1.63h-4.63v5.05h6.35v1.72h-8.26v-14.02h8.37v1.72zM154.14,145.75v12.3h-1.91v-12.3h-4.46v-1.72h11.03v1.72zM198.83,158.24h-0.6l-3.34,-9.67l-3.12,9.67h-0.6l-4.42,-14.21h1.99l2.81,9.79l3.08,-9.79h0.67l3.04,9.77l2.86,-9.77h1.99zM231.75,150.92c0,-2.03 0.51,-3.73 1.52,-5.09c1.02,-1.36 2.39,-2.05 4.12,-2.05c1.94,0 3.43,0.63 4.47,1.89c1.04,1.26 1.56,3.01 1.56,5.25c0,2.3 -0.52,4.11 -1.56,5.42c-1.04,1.3 -2.53,1.95 -4.47,1.95c-1.77,0 -3.15,-0.69 -4.15,-2.07c-1,-1.38 -1.49,-3.15 -1.49,-5.3zM233.76,150.92c0,1.61 0.32,2.95 0.95,4.03c0.64,1.08 1.53,1.62 2.69,1.62c1.31,0 2.3,-0.49 2.98,-1.48c0.69,-0.99 1.03,-2.38 1.03,-4.16c0,-3.61 -1.34,-5.42 -4.02,-5.42c-1.19,0 -2.09,0.49 -2.71,1.45c-0.62,0.97 -0.93,2.29 -0.93,3.96zM281.06,158.05l-3.74,-6.02l-2.03,-0.1v6.12h-1.92v-14.02l1.48,-0.07l2.02,-0.08c3.37,0 5.05,1.34 5.05,4.02c0,0.88 -0.27,1.67 -0.81,2.38c-0.54,0.7 -1.19,1.14 -1.93,1.31l4.07,6.45zM275.29,145.75v4.55c0.46,0.06 0.9,0.1 1.34,0.1c1.15,0 1.98,-0.18 2.51,-0.56c0.52,-0.37 0.79,-1.03 0.79,-1.98c0,-0.78 -0.28,-1.35 -0.84,-1.69c-0.56,-0.34 -1.45,-0.52 -2.66,-0.52zM320.07,158.05l-3.95,-6.45l-1.87,2.65v3.8h-1.91v-14.02h1.91v7.63l5.2,-7.63h2.13l-4.19,6.08l4.78,7.94zM350.65,157.41l0.7,-1.76c0.36,0.26 0.8,0.48 1.33,0.66c0.54,0.17 1.01,0.26 1.44,0.26c0.75,0 1.35,-0.2 1.8,-0.61c0.45,-0.41 0.68,-0.93 0.68,-1.56c0,-0.47 -0.13,-0.91 -0.38,-1.31c-0.25,-0.41 -0.88,-0.85 -1.89,-1.33l-1.13,-0.53c-0.96,-0.45 -1.63,-0.98 -2.01,-1.59c-0.38,-0.61 -0.56,-1.35 -0.56,-2.21c0,-1.05 0.37,-1.91 1.11,-2.6c0.74,-0.69 1.69,-1.03 2.85,-1.03c1.55,0 2.63,0.25 3.23,0.76l-0.56,1.66c-0.25,-0.18 -0.64,-0.36 -1.17,-0.54c-0.52,-0.17 -1.01,-0.26 -1.45,-0.26c-0.65,0 -1.16,0.18 -1.54,0.56c-0.37,0.37 -0.56,0.85 -0.56,1.43c0,0.36 0.07,0.68 0.2,0.97c0.13,0.29 0.32,0.54 0.56,0.74c0.24,0.2 0.73,0.48 1.47,0.83l1.15,0.54c0.96,0.45 1.63,1 2.01,1.63c0.39,0.63 0.58,1.42 0.58,2.39c0,1.05 -0.42,1.95 -1.27,2.68c-0.84,0.73 -1.97,1.1 -3.39,1.1c-1.24,0 -2.31,-0.29 -3.19,-0.88z"></path>
    <path id="Path 2" class="shp1" d="M212.05,124.1c-4.96,6.22 -12.54,9.32 -22.76,9.33c-5.48,0 -10.24,-1.98 -14.28,-5.93c-4,-4 -6,-8.96 -6,-14.87c0,-7.09 3.08,-13.07 9.26,-17.94c6.22,-4.91 14.13,-7.37 23.73,-7.37c2.61,0 5.56,0.57 8.87,1.7c0,-11.31 -5.04,-16.96 -15.13,-16.96c-7.74,0 -13.69,2.09 -17.87,6.26l-5.22,-10.37c2.35,-1.91 5.58,-3.54 9.71,-4.89c4.17,-1.39 8.15,-2.09 11.93,-2.09c10.13,0 17.47,2.31 22.04,6.91c4.61,4.61 6.91,11.94 6.91,21.98v25.05c0,6.13 1.83,10.22 5.48,12.26v6.2c-5.04,0 -8.82,-0.72 -11.34,-2.15c-2.48,-1.43 -4.26,-3.8 -5.35,-7.11zM210.88,97.81c-3.91,-0.87 -6.65,-1.3 -8.22,-1.3c-6.26,0 -11.37,1.61 -15.32,4.83c-3.96,3.22 -5.93,7.02 -5.93,11.42c0,7.26 4.28,10.89 12.84,10.89c6.26,0 11.8,-2.98 16.63,-8.94zM239.69,133.23v-61.23h-10.09v-10.98h23.13v72.22zM245.68,42.6c2.02,0 3.72,0.72 5.12,2.16c1.44,1.4 2.16,3.09 2.16,5.06c0,2.02 -0.72,3.75 -2.16,5.18c-1.4,1.4 -3.11,2.1 -5.12,2.1c-1.97,0 -3.68,-0.7 -5.12,-2.1c-1.4,-1.44 -2.1,-3.17 -2.1,-5.18c0,-2.02 0.7,-3.72 2.1,-5.12c1.4,-1.4 3.1,-2.1 5.12,-2.1zM341.74,124.11c-4.95,6.21 -12.53,9.32 -22.74,9.32c-5.47,0 -10.23,-1.98 -14.27,-5.93c-4,-4 -5.99,-8.95 -5.99,-14.86c0,-7.08 3.08,-13.06 9.25,-17.92c6.21,-4.91 14.12,-7.36 23.72,-7.37c2.61,0 5.56,0.57 8.86,1.7c0,-11.3 -5.04,-16.94 -15.11,-16.95c-7.73,0 -13.68,2.09 -17.85,6.26l-5.21,-10.36c2.35,-1.91 5.58,-3.54 9.71,-4.89c4.17,-1.39 8.14,-2.08 11.92,-2.08c10.12,0 17.46,2.3 22.02,6.91c4.6,4.61 6.9,11.93 6.91,21.97v25.03c0,6.13 1.82,10.21 5.47,12.25v6.19c-5.04,0 -8.82,-0.72 -11.34,-2.15c-2.48,-1.43 -4.26,-3.8 -5.34,-7.1zM340.56,97.84c-3.91,-0.87 -6.64,-1.3 -8.21,-1.3c-6.25,0 -11.36,1.61 -15.31,4.82c-3.95,3.22 -5.93,7.02 -5.93,11.41c0,7.26 4.28,10.89 12.83,10.89c6.25,0 11.79,-2.98 16.61,-8.93zM151.73,133.43v-44.62c0,-11.1 -4.8,-16.65 -14.41,-16.65c-3.03,0 -5.86,0.94 -8.49,2.83c-2.63,1.84 -4.43,3.95 -5.39,6.32v52.12h-12.5v-50.09c0,-3.47 -1.32,-6.18 -3.95,-8.16c-2.59,-2.02 -6.03,-3.03 -10.33,-3.03c-2.5,0 -5.18,0.97 -8.03,2.9c-2.81,1.93 -4.8,4.06 -5.99,6.38v51.99h-12.5v-70.49h8.16l4.15,8.16c4.82,-6.32 10.85,-9.48 18.09,-9.48c10.09,0 17.15,3.14 21.18,9.41c1.4,-2.67 4.01,-4.91 7.83,-6.71c3.82,-1.8 7.74,-2.7 11.78,-2.7c7.28,0 12.92,2.17 16.91,6.52c3.99,4.3 5.98,10.36 5.99,18.16v47.12zM263.95,113.55v-52.53h11.69v50.56c0,3.53 1,6.32 3.01,8.37c1.95,1.92 4.46,2.92 7.53,3.01h10.81v10.48h-11.01c-14.69,-0.19 -22.04,-6.83 -22.04,-19.89z"></path>
    <path id="Path 3" class="shp2" d="M685.24,-211.79l-901.77,0"></path>
    <path id="Path 4" class="shp3" d="M-207.53,-219.08h-7.66v-13.22h1.76v11.66h5.9zM-196.55,-224.04c0,-1.29 -0.23,-2.24 -0.7,-2.86c-0.47,-0.63 -1.13,-0.94 -2,-0.94c-0.87,0 -1.54,0.31 -2.01,0.94c-0.47,0.62 -0.7,1.57 -0.7,2.86c0,1.24 0.23,2.19 0.7,2.83c0.47,0.64 1.14,0.96 2.01,0.96c0.86,0 1.52,-0.31 1.99,-0.94c0.47,-0.63 0.71,-1.58 0.71,-2.85zM-194.83,-224.04c0,1.67 -0.4,2.96 -1.21,3.87c-0.81,0.91 -1.88,1.36 -3.21,1.36c-1.38,0 -2.47,-0.47 -3.26,-1.4c-0.79,-0.94 -1.18,-2.22 -1.18,-3.83c0,-1.66 0.41,-2.95 1.22,-3.86c0.82,-0.92 1.89,-1.38 3.22,-1.38c1.34,0 2.41,0.46 3.21,1.38c0.8,0.91 1.21,2.2 1.21,3.86zM-189.47,-217.49c0.11,0.05 0.28,0.11 0.5,0.19c0.22,0.08 0.47,0.16 0.75,0.23c0.31,0.08 0.59,0.14 0.85,0.19c0.26,0.05 0.54,0.07 0.85,0.07c0.51,0 0.95,-0.07 1.3,-0.2c0.36,-0.14 0.64,-0.32 0.84,-0.57c0.19,-0.24 0.32,-0.52 0.4,-0.84c0.08,-0.32 0.12,-0.68 0.12,-1.09v-0.87c-0.45,0.39 -0.89,0.68 -1.32,0.87c-0.43,0.18 -0.97,0.28 -1.63,0.28c-1.13,0 -2.03,-0.42 -2.7,-1.26c-0.67,-0.84 -1,-2.05 -1,-3.62c0,-0.82 0.12,-1.55 0.35,-2.18c0.23,-0.64 0.54,-1.18 0.93,-1.63c0.37,-0.43 0.81,-0.75 1.32,-0.99c0.51,-0.23 1.04,-0.35 1.58,-0.35c0.52,0 0.96,0.06 1.33,0.19c0.38,0.12 0.76,0.29 1.14,0.51l0.1,-0.43h1.57v8.79c0,1.68 -0.37,2.92 -1.1,3.7c-0.73,0.79 -1.86,1.18 -3.36,1.18c-0.49,0 -0.98,-0.04 -1.49,-0.12c-0.5,-0.08 -0.97,-0.18 -1.41,-0.31v-1.74zM-183.86,-221.77v-5.44c-0.41,-0.2 -0.8,-0.34 -1.15,-0.43c-0.35,-0.09 -0.7,-0.13 -1.05,-0.13c-0.85,0 -1.51,0.31 -2,0.93c-0.49,0.62 -0.73,1.51 -0.73,2.67c0,1.1 0.18,1.94 0.55,2.51c0.37,0.57 0.97,0.86 1.8,0.86c0.43,0 0.88,-0.08 1.33,-0.26c0.46,-0.17 0.88,-0.41 1.24,-0.72zM-170.04,-224.04c0,-1.29 -0.23,-2.24 -0.7,-2.86c-0.47,-0.63 -1.13,-0.94 -2,-0.94c-0.87,0 -1.54,0.31 -2.01,0.94c-0.47,0.62 -0.7,1.57 -0.7,2.86c0,1.24 0.23,2.19 0.7,2.83c0.47,0.64 1.15,0.96 2.01,0.96c0.86,0 1.52,-0.31 1.99,-0.94c0.47,-0.63 0.71,-1.58 0.71,-2.85zM-168.32,-224.04c0,1.67 -0.4,2.96 -1.21,3.87c-0.8,0.91 -1.88,1.36 -3.21,1.36c-1.38,0 -2.46,-0.47 -3.26,-1.4c-0.79,-0.94 -1.18,-2.22 -1.18,-3.83c0,-1.66 0.41,-2.95 1.22,-3.86c0.82,-0.92 1.89,-1.38 3.22,-1.38c1.34,0 2.41,0.46 3.21,1.38c0.8,0.91 1.21,2.2 1.21,3.86zM-160.32,-218.88c-0.91,0 -1.62,-0.26 -2.13,-0.77c-0.51,-0.52 -0.76,-1.34 -0.76,-2.46v-5.5h-1.13v-1.38h1.13v-2.85h1.67v2.85h3.07v1.38h-3.07v4.72c0,0.5 0.01,0.89 0.03,1.16c0.02,0.27 0.09,0.53 0.2,0.76c0.1,0.21 0.26,0.36 0.49,0.47c0.23,0.1 0.53,0.15 0.92,0.15c0.27,0 0.53,-0.04 0.79,-0.12c0.25,-0.08 0.44,-0.15 0.55,-0.2h0.1v1.5c-0.31,0.09 -0.63,0.16 -0.96,0.2c-0.32,0.05 -0.61,0.08 -0.89,0.08zM-152.12,-230.66h-1.9v-1.73h1.9zM-152.24,-219.08h-1.67v-9.92h1.67zM-139.9,-224.12c0,-1.13 -0.18,-2.01 -0.54,-2.63c-0.36,-0.63 -0.95,-0.94 -1.76,-0.94c-0.47,0 -0.93,0.11 -1.38,0.32c-0.44,0.21 -0.86,0.48 -1.25,0.81v5.62c0.44,0.21 0.81,0.36 1.12,0.44c0.31,0.08 0.67,0.12 1.07,0.12c0.86,0 1.54,-0.32 2.02,-0.95c0.48,-0.63 0.72,-1.56 0.72,-2.78zM-138.18,-224.3c0,1.65 -0.4,2.97 -1.19,3.95c-0.79,0.98 -1.78,1.47 -2.99,1.47c-0.49,0 -0.93,-0.06 -1.3,-0.17c-0.38,-0.11 -0.77,-0.29 -1.16,-0.52v4.16h-1.67v-13.58h1.67v1.04c0.41,-0.37 0.87,-0.68 1.38,-0.93c0.51,-0.25 1.06,-0.38 1.66,-0.38c1.14,0 2.02,0.45 2.65,1.35c0.64,0.9 0.96,2.11 0.96,3.62zM-126.72,-224.04c0,-1.29 -0.23,-2.24 -0.7,-2.86c-0.47,-0.63 -1.13,-0.94 -2,-0.94c-0.87,0 -1.54,0.31 -2.02,0.94c-0.47,0.62 -0.7,1.57 -0.7,2.86c0,1.24 0.23,2.19 0.7,2.83c0.47,0.64 1.15,0.96 2.02,0.96c0.86,0 1.52,-0.31 1.99,-0.94c0.47,-0.63 0.71,-1.58 0.71,-2.85zM-125,-224.04c0,1.67 -0.4,2.96 -1.21,3.87c-0.81,0.91 -1.88,1.36 -3.21,1.36c-1.38,0 -2.47,-0.47 -3.26,-1.4c-0.79,-0.94 -1.18,-2.22 -1.18,-3.83c0,-1.66 0.4,-2.95 1.22,-3.86c0.82,-0.92 1.89,-1.38 3.22,-1.38c1.34,0 2.41,0.46 3.21,1.38c0.8,0.91 1.21,2.2 1.21,3.86z"></path>
  </g>
  <g id="Page 2">
    <path id="Path 7" class="shp1" d="M-13.6,-520.64h495.9l0,-342.3h-495.9z"></path>
    <path id="Path 8" class="shp4" d="M79.77,-621.27l-7.24,-10.25v10.06h-1.82v-14.02h0.76l7.05,9.69v-9.69h1.82l0,14.21zM112.79,-633.76l0,3.89h4.63v1.63h-4.63v5.05h6.35v1.72h-8.26l0,-14.02h8.37v1.72zM154.14,-633.76l0,12.3h-1.91l0,-12.3h-4.46v-1.72h11.03v1.72zM198.83,-621.27h-0.6l-3.34,-9.67l-3.12,9.67h-0.6l-4.42,-14.21h1.99l2.81,9.79l3.08,-9.79h0.67l3.04,9.77l2.86,-9.77h1.99zM231.75,-628.59c0,-2.03 0.51,-3.73 1.52,-5.09c1.02,-1.36 2.39,-2.05 4.12,-2.05c1.94,0 3.43,0.63 4.47,1.89c1.04,1.26 1.56,3.01 1.56,5.25c0,2.3 -0.52,4.11 -1.56,5.42c-1.04,1.3 -2.53,1.95 -4.47,1.95c-1.77,0 -3.15,-0.69 -4.15,-2.07c-1,-1.38 -1.49,-3.15 -1.49,-5.3zM233.76,-628.59c0,1.61 0.32,2.95 0.95,4.03c0.64,1.08 1.53,1.62 2.69,1.62c1.31,0 2.3,-0.49 2.98,-1.48c0.69,-0.99 1.03,-2.38 1.03,-4.16c0,-3.61 -1.34,-5.42 -4.02,-5.42c-1.19,0 -2.09,0.49 -2.71,1.45c-0.62,0.97 -0.93,2.29 -0.93,3.96zM281.06,-621.46l-3.74,-6.02l-2.03,-0.1v6.12h-1.92v-14.02l1.48,-0.07l2.02,-0.08c3.37,0 5.05,1.34 5.05,4.02c0,0.88 -0.27,1.67 -0.81,2.38c-0.54,0.7 -1.19,1.14 -1.93,1.31l4.07,6.45zM275.29,-633.76v4.55c0.46,0.06 0.9,0.1 1.34,0.1c1.15,0 1.98,-0.18 2.51,-0.56c0.52,-0.37 0.79,-1.03 0.79,-1.98c0,-0.78 -0.28,-1.35 -0.84,-1.69c-0.56,-0.34 -1.45,-0.52 -2.66,-0.52zM320.07,-621.46l-3.95,-6.45l-1.87,2.65v3.8h-1.91v-14.02h1.91v7.63l5.2,-7.63h2.13l-4.19,6.08l4.78,7.94zM350.65,-622.1l0.7,-1.76c0.36,0.26 0.8,0.48 1.33,0.66c0.54,0.17 1.01,0.26 1.44,0.26c0.75,0 1.35,-0.2 1.8,-0.61c0.45,-0.41 0.68,-0.93 0.68,-1.56c0,-0.47 -0.13,-0.91 -0.38,-1.31c-0.25,-0.41 -0.88,-0.85 -1.89,-1.33l-1.13,-0.53c-0.96,-0.45 -1.63,-0.98 -2.01,-1.59c-0.38,-0.61 -0.56,-1.35 -0.56,-2.21c0,-1.05 0.37,-1.91 1.11,-2.6c0.74,-0.69 1.69,-1.03 2.85,-1.03c1.55,0 2.63,0.25 3.23,0.76l-0.56,1.66c-0.25,-0.18 -0.64,-0.36 -1.17,-0.54c-0.52,-0.17 -1.01,-0.26 -1.45,-0.26c-0.65,0 -1.16,0.18 -1.54,0.56c-0.37,0.37 -0.56,0.85 -0.56,1.43c0,0.36 0.07,0.68 0.2,0.97c0.13,0.29 0.32,0.54 0.56,0.74c0.24,0.2 0.73,0.48 1.47,0.83l1.15,0.54c0.96,0.45 1.63,1 2.01,1.63c0.39,0.63 0.58,1.42 0.58,2.39c0,1.05 -0.42,1.95 -1.27,2.68c-0.84,0.73 -1.97,1.1 -3.39,1.1c-1.24,0 -2.31,-0.29 -3.19,-0.88zM212.05,-655.41c-4.96,6.22 -12.54,9.32 -22.76,9.33c-5.48,0 -10.24,-1.98 -14.28,-5.93c-4,-4 -6,-8.96 -6,-14.87c0,-7.09 3.08,-13.07 9.26,-17.94c6.22,-4.91 14.13,-7.37 23.73,-7.37c2.61,0 5.56,0.57 8.87,1.7c0,-11.31 -5.04,-16.96 -15.13,-16.96c-7.74,0 -13.69,2.09 -17.87,6.26l-5.22,-10.37c2.35,-1.91 5.58,-3.54 9.71,-4.89c4.17,-1.39 8.15,-2.09 11.93,-2.09c10.13,0 17.47,2.31 22.04,6.91c4.61,4.61 6.91,11.94 6.91,21.98v25.05c0,6.13 1.83,10.22 5.48,12.26v6.2c-5.04,0 -8.82,-0.72 -11.34,-2.15c-2.48,-1.43 -4.26,-3.8 -5.35,-7.11zM210.88,-681.7c-3.91,-0.87 -6.65,-1.3 -8.22,-1.3c-6.26,0 -11.37,1.61 -15.32,4.83c-3.96,3.22 -5.93,7.02 -5.93,11.42c0,7.26 4.28,10.89 12.84,10.89c6.26,0 11.8,-2.98 16.63,-8.94zM239.69,-646.28v-61.23h-10.09v-10.98h23.13v72.22zM245.68,-736.91c2.02,0 3.72,0.72 5.12,2.16c1.44,1.4 2.16,3.09 2.16,5.06c0,2.02 -0.72,3.75 -2.16,5.18c-1.4,1.4 -3.11,2.1 -5.12,2.1c-1.97,0 -3.68,-0.7 -5.12,-2.1c-1.4,-1.44 -2.1,-3.17 -2.1,-5.18c0,-2.02 0.7,-3.72 2.1,-5.12c1.4,-1.4 3.1,-2.1 5.12,-2.1zM341.74,-655.4c-4.95,6.21 -12.53,9.32 -22.74,9.32c-5.47,0 -10.23,-1.98 -14.27,-5.93c-4,-4 -5.99,-8.95 -5.99,-14.86c0,-7.08 3.08,-13.06 9.25,-17.92c6.21,-4.91 14.12,-7.36 23.72,-7.37c2.61,0 5.56,0.57 8.86,1.7c0,-11.3 -5.04,-16.94 -15.11,-16.95c-7.73,0 -13.68,2.09 -17.85,6.26l-5.21,-10.36c2.35,-1.91 5.58,-3.54 9.71,-4.89c4.17,-1.39 8.14,-2.08 11.92,-2.08c10.12,0 17.46,2.3 22.02,6.91c4.6,4.61 6.9,11.93 6.91,21.97v25.03c0,6.13 1.82,10.21 5.47,12.25v6.19c-5.04,0 -8.82,-0.72 -11.34,-2.15c-2.48,-1.43 -4.26,-3.8 -5.34,-7.1zM340.56,-681.67c-3.91,-0.87 -6.64,-1.3 -8.21,-1.3c-6.25,0 -11.36,1.61 -15.31,4.82c-3.95,3.22 -5.93,7.02 -5.93,11.41c0,7.26 4.28,10.89 12.83,10.89c6.25,0 11.79,-2.98 16.61,-8.93zM151.73,-646.08l0,-44.62c0,-11.1 -4.8,-16.65 -14.41,-16.65c-3.03,0 -5.85,0.94 -8.49,2.83c-2.63,1.84 -4.43,3.95 -5.39,6.32l0,52.12h-12.5l0,-50.09c0,-3.47 -1.32,-6.18 -3.95,-8.16c-2.59,-2.02 -6.03,-3.03 -10.33,-3.03c-2.5,0 -5.18,0.97 -8.03,2.9c-2.81,1.93 -4.8,4.06 -5.99,6.38l0,51.99h-12.5l0,-70.49h8.16l4.15,8.16c4.82,-6.32 10.85,-9.48 18.09,-9.48c10.09,0 17.15,3.14 21.18,9.41c1.4,-2.67 4.01,-4.91 7.83,-6.71c3.82,-1.8 7.74,-2.7 11.78,-2.7c7.28,0 12.92,2.17 16.91,6.52c3.99,4.3 5.98,10.36 5.99,18.16l0,47.12zM263.95,-665.96v-52.53h11.69v50.56c0,3.53 1,6.32 3.01,8.37c1.95,1.92 4.46,2.92 7.53,3.01h10.81v10.48h-11.01c-14.69,-0.19 -22.04,-6.83 -22.04,-19.89z"></path>
    <path id="Path 9" class="shp2" d="M685.24,-991.3h-901.77"></path>
    <path id="Path 10" class="shp3" d="M-207.53,-998.59h-7.66v-13.22h1.76v11.66h5.9zM-196.55,-1003.55c0,-1.29 -0.23,-2.24 -0.7,-2.86c-0.47,-0.63 -1.13,-0.94 -2,-0.94c-0.87,0 -1.54,0.31 -2.01,0.94c-0.47,0.62 -0.7,1.57 -0.7,2.86c0,1.24 0.24,2.19 0.7,2.83c0.47,0.64 1.15,0.96 2.01,0.96c0.86,0 1.52,-0.31 1.99,-0.94c0.47,-0.63 0.71,-1.58 0.71,-2.85zM-194.83,-1003.55c0,1.67 -0.4,2.96 -1.21,3.87c-0.8,0.91 -1.88,1.36 -3.21,1.36c-1.38,0 -2.46,-0.47 -3.26,-1.4c-0.79,-0.94 -1.18,-2.22 -1.18,-3.83c0,-1.66 0.41,-2.95 1.22,-3.86c0.82,-0.92 1.89,-1.38 3.22,-1.38c1.34,0 2.41,0.46 3.21,1.38c0.8,0.91 1.21,2.2 1.21,3.86zM-189.47,-997c0.11,0.05 0.28,0.11 0.5,0.19c0.22,0.08 0.47,0.16 0.75,0.23c0.31,0.08 0.59,0.14 0.85,0.19c0.26,0.05 0.54,0.07 0.85,0.07c0.51,0 0.95,-0.07 1.31,-0.2c0.36,-0.14 0.64,-0.32 0.84,-0.57c0.19,-0.24 0.32,-0.52 0.4,-0.84c0.08,-0.32 0.12,-0.68 0.12,-1.09v-0.87c-0.45,0.39 -0.89,0.68 -1.32,0.87c-0.43,0.18 -0.97,0.28 -1.63,0.28c-1.13,0 -2.03,-0.42 -2.7,-1.26c-0.67,-0.84 -1,-2.05 -1,-3.62c0,-0.82 0.11,-1.55 0.35,-2.18c0.23,-0.64 0.54,-1.18 0.93,-1.63c0.37,-0.43 0.81,-0.75 1.32,-0.99c0.51,-0.23 1.04,-0.35 1.58,-0.35c0.52,0 0.96,0.06 1.33,0.19c0.38,0.12 0.76,0.29 1.14,0.51l0.1,-0.43h1.57v8.79c0,1.68 -0.37,2.92 -1.1,3.7c-0.73,0.79 -1.86,1.18 -3.36,1.18c-0.49,0 -0.98,-0.04 -1.49,-0.12c-0.5,-0.08 -0.97,-0.18 -1.41,-0.31v-1.74zM-183.86,-1001.28v-5.44c-0.41,-0.2 -0.8,-0.34 -1.15,-0.43c-0.35,-0.09 -0.7,-0.13 -1.05,-0.13c-0.85,0 -1.51,0.31 -2,0.93c-0.48,0.62 -0.73,1.51 -0.73,2.67c0,1.1 0.18,1.94 0.55,2.51c0.37,0.57 0.97,0.86 1.8,0.86c0.43,0 0.88,-0.08 1.33,-0.26c0.46,-0.17 0.88,-0.41 1.24,-0.72zM-170.04,-1003.55c0,-1.29 -0.23,-2.24 -0.7,-2.86c-0.47,-0.63 -1.13,-0.94 -2,-0.94c-0.87,0 -1.54,0.31 -2.01,0.94c-0.47,0.62 -0.7,1.57 -0.7,2.86c0,1.24 0.23,2.19 0.7,2.83c0.47,0.64 1.15,0.96 2.01,0.96c0.86,0 1.52,-0.31 1.99,-0.94c0.47,-0.63 0.71,-1.58 0.71,-2.85zM-168.32,-1003.55c0,1.67 -0.4,2.96 -1.21,3.87c-0.8,0.91 -1.88,1.36 -3.21,1.36c-1.38,0 -2.47,-0.47 -3.26,-1.4c-0.79,-0.94 -1.18,-2.22 -1.18,-3.83c0,-1.66 0.4,-2.95 1.22,-3.86c0.82,-0.92 1.89,-1.38 3.22,-1.38c1.34,0 2.41,0.46 3.21,1.38c0.8,0.91 1.21,2.2 1.21,3.86zM-160.32,-998.39c-0.91,0 -1.62,-0.26 -2.13,-0.77c-0.51,-0.52 -0.76,-1.34 -0.76,-2.46v-5.5h-1.13v-1.38h1.13v-2.85h1.67v2.85h3.07v1.38h-3.07v4.72c0,0.5 0.01,0.89 0.03,1.16c0.02,0.27 0.09,0.53 0.2,0.76c0.1,0.21 0.26,0.36 0.49,0.47c0.23,0.1 0.53,0.15 0.92,0.15c0.27,0 0.53,-0.04 0.79,-0.12c0.25,-0.08 0.44,-0.15 0.55,-0.2h0.1v1.5c-0.31,0.09 -0.63,0.16 -0.96,0.2c-0.32,0.05 -0.61,0.08 -0.89,0.08zM-152.12,-1010.17h-1.9v-1.73h1.9zM-152.24,-998.59h-1.67v-9.92h1.67zM-139.9,-1003.63c0,-1.13 -0.18,-2.01 -0.54,-2.63c-0.36,-0.63 -0.95,-0.94 -1.76,-0.94c-0.47,0 -0.93,0.11 -1.38,0.32c-0.44,0.21 -0.86,0.48 -1.25,0.81v5.62c0.44,0.21 0.81,0.36 1.12,0.44c0.31,0.08 0.67,0.12 1.07,0.12c0.86,0 1.54,-0.32 2.02,-0.95c0.48,-0.63 0.72,-1.56 0.72,-2.78zM-138.18,-1003.81c0,1.65 -0.4,2.97 -1.19,3.95c-0.79,0.98 -1.78,1.47 -2.99,1.47c-0.49,0 -0.93,-0.06 -1.31,-0.17c-0.38,-0.11 -0.77,-0.29 -1.16,-0.52v4.16h-1.67v-13.58h1.67v1.04c0.41,-0.37 0.87,-0.68 1.37,-0.93c0.51,-0.25 1.06,-0.38 1.66,-0.38c1.14,0 2.02,0.45 2.66,1.35c0.64,0.9 0.96,2.11 0.96,3.62zM-126.72,-1003.55c0,-1.29 -0.23,-2.24 -0.7,-2.86c-0.47,-0.63 -1.13,-0.94 -2,-0.94c-0.87,0 -1.54,0.31 -2.02,0.94c-0.47,0.62 -0.7,1.57 -0.7,2.86c0,1.24 0.23,2.19 0.7,2.83c0.47,0.64 1.15,0.96 2.02,0.96c0.86,0 1.52,-0.31 1.99,-0.94c0.47,-0.63 0.71,-1.58 0.71,-2.85zM-125,-1003.55c0,1.67 -0.4,2.96 -1.21,3.87c-0.8,0.91 -1.88,1.36 -3.21,1.36c-1.38,0 -2.47,-0.47 -3.26,-1.4c-0.79,-0.94 -1.18,-2.22 -1.18,-3.83c0,-1.66 0.4,-2.95 1.22,-3.86c0.82,-0.92 1.89,-1.38 3.22,-1.38c1.34,0 2.41,0.46 3.21,1.38c0.8,0.91 1.21,2.2 1.21,3.86zM-105.8,-1010.81h-0.09c-0.15,-0.05 -0.36,-0.1 -0.64,-0.15c-0.28,-0.05 -0.53,-0.08 -0.75,-0.08c-0.7,0 -1.21,0.16 -1.51,0.48c-0.3,0.31 -0.44,0.89 -0.44,1.71v0.34h2.76v1.39h-2.71v8.53h-1.67v-8.53h-1.13v-1.39h1.13v-0.33c0,-1.2 0.29,-2.11 0.86,-2.73c0.57,-0.62 1.4,-0.93 2.47,-0.93c0.31,0 0.61,0.02 0.91,0.05c0.29,0.03 0.56,0.07 0.81,0.11zM-94.22,-998.59h-1.67v-1.1c-0.52,0.45 -1,0.79 -1.46,1.03c-0.46,0.23 -0.98,0.35 -1.54,0.35c-0.43,0 -0.84,-0.07 -1.23,-0.21c-0.38,-0.14 -0.71,-0.37 -0.99,-0.67c-0.28,-0.31 -0.51,-0.7 -0.67,-1.16c-0.15,-0.47 -0.23,-1.04 -0.23,-1.7v-6.44h1.67v5.65c0,0.53 0.02,0.97 0.05,1.31c0.04,0.34 0.13,0.65 0.27,0.91c0.14,0.25 0.32,0.44 0.55,0.56c0.24,0.12 0.57,0.18 1.01,0.18c0.41,0 0.84,-0.12 1.31,-0.35c0.46,-0.23 0.88,-0.51 1.27,-0.85v-7.41h1.67zM-80.71,-998.59h-1.67v-5.65c0,-0.46 -0.02,-0.88 -0.07,-1.27c-0.04,-0.4 -0.12,-0.71 -0.25,-0.95c-0.13,-0.25 -0.32,-0.43 -0.57,-0.55c-0.24,-0.12 -0.57,-0.19 -1,-0.19c-0.41,0 -0.84,0.11 -1.29,0.34c-0.44,0.22 -0.87,0.51 -1.29,0.86v7.41h-1.67v-9.92h1.67v1.1c0.5,-0.44 0.99,-0.78 1.47,-1.02c0.48,-0.24 1,-0.36 1.54,-0.36c0.98,0 1.74,0.32 2.29,0.97c0.55,0.64 0.83,1.57 0.83,2.79zM-69.11,-1001.01v-5.72c-0.41,-0.2 -0.79,-0.34 -1.12,-0.42c-0.32,-0.08 -0.68,-0.12 -1.07,-0.12c-0.86,0 -1.53,0.32 -2.02,0.97c-0.48,0.64 -0.73,1.57 -0.73,2.78c0,1.17 0.19,2.06 0.56,2.68c0.37,0.62 0.97,0.92 1.79,0.92c0.44,0 0.88,-0.1 1.32,-0.29c0.44,-0.2 0.86,-0.47 1.25,-0.81zM-67.44,-998.59h-1.67v-1.01c-0.26,0.22 -0.48,0.4 -0.68,0.54c-0.19,0.14 -0.41,0.27 -0.66,0.39c-0.24,0.11 -0.48,0.2 -0.74,0.26c-0.25,0.06 -0.55,0.1 -0.89,0.1c-0.54,0 -1.04,-0.11 -1.5,-0.34c-0.46,-0.23 -0.84,-0.55 -1.16,-0.99c-0.32,-0.44 -0.58,-0.98 -0.75,-1.62c-0.18,-0.65 -0.27,-1.39 -0.27,-2.22c0,-0.87 0.11,-1.62 0.34,-2.26c0.22,-0.64 0.53,-1.2 0.93,-1.67c0.36,-0.43 0.8,-0.77 1.31,-1.01c0.51,-0.25 1.05,-0.37 1.61,-0.37c0.5,0 0.93,0.06 1.3,0.17c0.37,0.11 0.75,0.28 1.16,0.51v-4.3h1.67zM-55.3,-1003.55c0,-1.29 -0.23,-2.24 -0.7,-2.86c-0.47,-0.63 -1.13,-0.94 -2,-0.94c-0.87,0 -1.54,0.31 -2.02,0.94c-0.47,0.62 -0.7,1.57 -0.7,2.86c0,1.24 0.23,2.19 0.7,2.83c0.47,0.64 1.15,0.96 2.02,0.96c0.86,0 1.52,-0.31 1.99,-0.94c0.47,-0.63 0.71,-1.58 0.71,-2.85zM-53.58,-1003.55c0,1.67 -0.4,2.96 -1.21,3.87c-0.8,0.91 -1.88,1.36 -3.21,1.36c-1.38,0 -2.47,-0.47 -3.26,-1.4c-0.79,-0.94 -1.18,-2.22 -1.18,-3.83c0,-1.66 0.4,-2.95 1.22,-3.86c0.82,-0.92 1.89,-1.38 3.22,-1.38c1.34,0 2.41,0.46 3.21,1.38c0.8,0.91 1.21,2.2 1.21,3.86zM-35.66,-998.37c-0.68,0 -1.3,-0.1 -1.87,-0.31c-0.57,-0.21 -1.06,-0.53 -1.47,-0.96c-0.41,-0.43 -0.73,-0.96 -0.95,-1.61c-0.23,-0.65 -0.34,-1.42 -0.34,-2.29c0,-0.87 0.12,-1.62 0.35,-2.26c0.24,-0.63 0.55,-1.17 0.94,-1.6c0.39,-0.43 0.88,-0.76 1.46,-1c0.59,-0.24 1.21,-0.36 1.88,-0.36c0.54,0 1.07,0.08 1.57,0.23c0.51,0.15 0.96,0.33 1.36,0.53v1.87h-0.1c-0.12,-0.1 -0.27,-0.22 -0.46,-0.35c-0.18,-0.13 -0.41,-0.26 -0.68,-0.4c-0.23,-0.12 -0.5,-0.22 -0.82,-0.31c-0.31,-0.09 -0.62,-0.13 -0.9,-0.13c-0.87,0 -1.56,0.33 -2.09,0.99c-0.52,0.65 -0.78,1.58 -0.78,2.77c0,1.17 0.25,2.09 0.75,2.74c0.51,0.65 1.21,0.98 2.11,0.98c0.54,0 1.06,-0.11 1.55,-0.34c0.49,-0.23 0.92,-0.52 1.3,-0.87h0.1v1.87c-0.17,0.08 -0.37,0.17 -0.62,0.29c-0.25,0.11 -0.47,0.19 -0.67,0.24c-0.28,0.08 -0.54,0.14 -0.76,0.19c-0.23,0.05 -0.52,0.07 -0.87,0.07zM-21.48,-1003.55c0,-1.29 -0.23,-2.24 -0.7,-2.86c-0.47,-0.63 -1.13,-0.94 -2,-0.94c-0.87,0 -1.54,0.31 -2.01,0.94c-0.47,0.62 -0.7,1.57 -0.7,2.86c0,1.24 0.23,2.19 0.7,2.83c0.47,0.64 1.15,0.96 2.01,0.96c0.86,0 1.52,-0.31 1.99,-0.94c0.47,-0.63 0.71,-1.58 0.71,-2.85zM-19.76,-1003.55c0,1.67 -0.4,2.96 -1.21,3.87c-0.8,0.91 -1.88,1.36 -3.21,1.36c-1.38,0 -2.46,-0.47 -3.26,-1.4c-0.79,-0.94 -1.18,-2.22 -1.18,-3.83c0,-1.66 0.41,-2.95 1.22,-3.86c0.82,-0.92 1.89,-1.38 3.22,-1.38c1.34,0 2.41,0.46 3.21,1.38c0.8,0.91 1.21,2.2 1.21,3.86zM-13.05,-998.59h-1.67v-13.82h1.67zM-0.87,-1003.55c0,-1.29 -0.23,-2.24 -0.7,-2.86c-0.47,-0.63 -1.13,-0.94 -2,-0.94c-0.87,0 -1.54,0.31 -2.02,0.94c-0.47,0.62 -0.7,1.57 -0.7,2.86c0,1.24 0.23,2.19 0.7,2.83c0.47,0.64 1.15,0.96 2.02,0.96c0.86,0 1.52,-0.31 1.99,-0.94c0.47,-0.63 0.71,-1.58 0.71,-2.85zM0.85,-1003.55c0,1.67 -0.4,2.96 -1.21,3.87c-0.8,0.91 -1.88,1.36 -3.21,1.36c-1.38,0 -2.47,-0.47 -3.26,-1.4c-0.79,-0.94 -1.18,-2.22 -1.18,-3.83c0,-1.66 0.4,-2.95 1.22,-3.86c0.82,-0.92 1.89,-1.38 3.22,-1.38c1.34,0 2.41,0.46 3.21,1.38c0.8,0.91 1.21,2.2 1.21,3.86zM11.11,-1006.72h-0.09c-0.12,-0.04 -0.26,-0.06 -0.4,-0.06c-0.14,-0.01 -0.3,-0.02 -0.5,-0.02c-0.45,0 -0.9,0.1 -1.34,0.29c-0.44,0.2 -0.86,0.49 -1.26,0.87v7.04h-1.67v-9.92h1.67v1.47c0.61,-0.54 1.14,-0.92 1.59,-1.14c0.46,-0.23 0.9,-0.34 1.32,-0.34c0.17,0 0.3,0 0.38,0.02c0.09,0.01 0.19,0.02 0.29,0.04z"></path>
  </g>
  <g id="Page 3">
    <path id="Path 13" class="shp2" d="M685.24,-1770.81h-901.77"></path>
    <path id="Path 14" class="shp3" d="M-207.53,-1778.1h-7.66v-13.22h1.76v11.66h5.9zM-196.55,-1783.06c0,-1.29 -0.23,-2.24 -0.7,-2.86c-0.47,-0.63 -1.13,-0.94 -2,-0.94c-0.87,0 -1.54,0.31 -2.01,0.94c-0.47,0.62 -0.7,1.57 -0.7,2.86c0,1.24 0.24,2.19 0.7,2.83c0.47,0.64 1.15,0.96 2.01,0.96c0.86,0 1.52,-0.31 1.99,-0.94c0.47,-0.63 0.71,-1.58 0.71,-2.85zM-194.83,-1783.06c0,1.67 -0.4,2.96 -1.21,3.87c-0.8,0.91 -1.88,1.36 -3.21,1.36c-1.38,0 -2.46,-0.47 -3.26,-1.4c-0.79,-0.94 -1.18,-2.22 -1.18,-3.83c0,-1.66 0.41,-2.95 1.22,-3.86c0.82,-0.92 1.89,-1.38 3.22,-1.38c1.34,0 2.41,0.46 3.21,1.38c0.8,0.91 1.21,2.2 1.21,3.86zM-189.47,-1776.51c0.11,0.05 0.28,0.11 0.5,0.19c0.22,0.08 0.47,0.16 0.75,0.23c0.31,0.08 0.59,0.14 0.85,0.19c0.26,0.05 0.54,0.07 0.85,0.07c0.51,0 0.95,-0.07 1.31,-0.2c0.36,-0.14 0.64,-0.32 0.84,-0.57c0.19,-0.24 0.32,-0.52 0.4,-0.84c0.08,-0.32 0.12,-0.68 0.12,-1.09v-0.87c-0.45,0.39 -0.89,0.68 -1.32,0.87c-0.43,0.18 -0.97,0.28 -1.63,0.28c-1.13,0 -2.03,-0.42 -2.7,-1.26c-0.67,-0.84 -1,-2.05 -1,-3.62c0,-0.82 0.11,-1.55 0.35,-2.18c0.23,-0.64 0.54,-1.18 0.93,-1.63c0.37,-0.43 0.81,-0.75 1.32,-0.99c0.51,-0.23 1.04,-0.35 1.58,-0.35c0.52,0 0.96,0.06 1.33,0.19c0.38,0.12 0.76,0.29 1.14,0.51l0.1,-0.43h1.57v8.79c0,1.68 -0.37,2.92 -1.1,3.7c-0.73,0.79 -1.86,1.18 -3.36,1.18c-0.49,0 -0.98,-0.04 -1.49,-0.12c-0.5,-0.08 -0.97,-0.18 -1.41,-0.31v-1.74zM-183.86,-1780.79v-5.44c-0.41,-0.2 -0.8,-0.34 -1.15,-0.43c-0.35,-0.09 -0.7,-0.13 -1.05,-0.13c-0.85,0 -1.51,0.31 -2,0.93c-0.48,0.62 -0.73,1.51 -0.73,2.67c0,1.1 0.18,1.94 0.55,2.51c0.37,0.57 0.97,0.86 1.8,0.86c0.43,0 0.88,-0.08 1.33,-0.26c0.46,-0.17 0.88,-0.41 1.24,-0.72zM-170.04,-1783.06c0,-1.29 -0.23,-2.24 -0.7,-2.86c-0.47,-0.63 -1.13,-0.94 -2,-0.94c-0.87,0 -1.54,0.31 -2.01,0.94c-0.47,0.62 -0.7,1.57 -0.7,2.86c0,1.24 0.23,2.19 0.7,2.83c0.47,0.64 1.15,0.96 2.01,0.96c0.86,0 1.52,-0.31 1.99,-0.94c0.47,-0.63 0.71,-1.58 0.71,-2.85zM-168.32,-1783.06c0,1.67 -0.4,2.96 -1.21,3.87c-0.8,0.91 -1.88,1.36 -3.21,1.36c-1.38,0 -2.47,-0.47 -3.26,-1.4c-0.79,-0.94 -1.18,-2.22 -1.18,-3.83c0,-1.66 0.4,-2.95 1.22,-3.86c0.82,-0.92 1.89,-1.38 3.22,-1.38c1.34,0 2.41,0.46 3.21,1.38c0.8,0.91 1.21,2.2 1.21,3.86zM-160.32,-1777.9c-0.91,0 -1.62,-0.26 -2.13,-0.77c-0.51,-0.52 -0.76,-1.34 -0.76,-2.46v-5.5h-1.13v-1.38h1.13v-2.85h1.67v2.85h3.07v1.38h-3.07v4.72c0,0.5 0.01,0.89 0.03,1.16c0.02,0.27 0.09,0.53 0.2,0.76c0.1,0.21 0.26,0.36 0.49,0.47c0.23,0.1 0.53,0.15 0.92,0.15c0.27,0 0.53,-0.04 0.79,-0.12c0.25,-0.08 0.44,-0.15 0.55,-0.2h0.1v1.5c-0.31,0.09 -0.63,0.16 -0.96,0.2c-0.32,0.05 -0.61,0.08 -0.89,0.08zM-152.12,-1789.68h-1.9v-1.73h1.9zM-152.24,-1778.1h-1.67v-9.92h1.67zM-139.9,-1783.14c0,-1.13 -0.18,-2.01 -0.54,-2.63c-0.36,-0.63 -0.95,-0.94 -1.76,-0.94c-0.47,0 -0.93,0.11 -1.38,0.32c-0.44,0.21 -0.86,0.48 -1.25,0.81v5.62c0.44,0.21 0.81,0.36 1.12,0.44c0.31,0.08 0.67,0.12 1.07,0.12c0.86,0 1.54,-0.32 2.02,-0.95c0.48,-0.63 0.72,-1.56 0.72,-2.78zM-138.18,-1783.32c0,1.65 -0.4,2.97 -1.19,3.95c-0.79,0.98 -1.78,1.47 -2.99,1.47c-0.49,0 -0.93,-0.06 -1.31,-0.17c-0.38,-0.11 -0.77,-0.29 -1.16,-0.52v4.16h-1.67v-13.58h1.67v1.04c0.41,-0.37 0.87,-0.68 1.37,-0.93c0.51,-0.25 1.06,-0.38 1.66,-0.38c1.14,0 2.02,0.45 2.66,1.35c0.64,0.9 0.96,2.11 0.96,3.62zM-126.72,-1783.06c0,-1.29 -0.23,-2.24 -0.7,-2.86c-0.47,-0.63 -1.13,-0.94 -2,-0.94c-0.87,0 -1.54,0.31 -2.02,0.94c-0.47,0.62 -0.7,1.57 -0.7,2.86c0,1.24 0.23,2.19 0.7,2.83c0.47,0.64 1.15,0.96 2.02,0.96c0.86,0 1.52,-0.31 1.99,-0.94c0.47,-0.63 0.71,-1.58 0.71,-2.85zM-125,-1783.06c0,1.67 -0.4,2.96 -1.21,3.87c-0.8,0.91 -1.88,1.36 -3.21,1.36c-1.38,0 -2.47,-0.47 -3.26,-1.4c-0.79,-0.94 -1.18,-2.22 -1.18,-3.83c0,-1.66 0.4,-2.95 1.22,-3.86c0.82,-0.92 1.89,-1.38 3.22,-1.38c1.34,0 2.41,0.46 3.21,1.38c0.8,0.91 1.21,2.2 1.21,3.86zM-105.8,-1790.32h-0.09c-0.15,-0.05 -0.36,-0.1 -0.64,-0.15c-0.28,-0.05 -0.53,-0.08 -0.75,-0.08c-0.7,0 -1.21,0.16 -1.51,0.48c-0.3,0.31 -0.44,0.89 -0.44,1.71v0.34h2.76v1.39h-2.71v8.53h-1.67v-8.53h-1.13v-1.39h1.13v-0.33c0,-1.2 0.29,-2.11 0.86,-2.73c0.57,-0.62 1.4,-0.93 2.47,-0.93c0.31,0 0.61,0.02 0.91,0.05c0.29,0.03 0.56,0.07 0.81,0.11zM-94.22,-1778.1h-1.67v-1.1c-0.52,0.45 -1,0.79 -1.46,1.03c-0.46,0.23 -0.98,0.35 -1.54,0.35c-0.43,0 -0.84,-0.07 -1.23,-0.21c-0.38,-0.14 -0.71,-0.37 -0.99,-0.67c-0.28,-0.31 -0.51,-0.7 -0.67,-1.16c-0.15,-0.47 -0.23,-1.04 -0.23,-1.7v-6.44h1.67v5.65c0,0.53 0.02,0.97 0.05,1.31c0.04,0.34 0.13,0.65 0.27,0.91c0.14,0.25 0.32,0.44 0.55,0.56c0.24,0.12 0.57,0.18 1.01,0.18c0.41,0 0.84,-0.12 1.31,-0.35c0.46,-0.23 0.88,-0.51 1.27,-0.85v-7.41h1.67zM-80.71,-1778.1h-1.67v-5.65c0,-0.46 -0.02,-0.88 -0.07,-1.27c-0.04,-0.4 -0.12,-0.71 -0.25,-0.95c-0.13,-0.25 -0.32,-0.43 -0.57,-0.55c-0.24,-0.12 -0.57,-0.19 -1,-0.19c-0.41,0 -0.84,0.11 -1.29,0.34c-0.44,0.22 -0.87,0.51 -1.29,0.86v7.41h-1.67v-9.92h1.67v1.1c0.5,-0.44 0.99,-0.78 1.47,-1.02c0.48,-0.24 1,-0.36 1.54,-0.36c0.98,0 1.74,0.32 2.29,0.97c0.55,0.64 0.83,1.57 0.83,2.79zM-69.11,-1780.52v-5.72c-0.41,-0.2 -0.79,-0.34 -1.12,-0.42c-0.32,-0.08 -0.68,-0.12 -1.07,-0.12c-0.86,0 -1.53,0.32 -2.02,0.97c-0.48,0.64 -0.73,1.57 -0.73,2.78c0,1.17 0.19,2.06 0.56,2.68c0.37,0.62 0.97,0.92 1.79,0.92c0.44,0 0.88,-0.1 1.32,-0.29c0.44,-0.2 0.86,-0.47 1.25,-0.81zM-67.44,-1778.1h-1.67v-1.01c-0.26,0.22 -0.48,0.4 -0.68,0.54c-0.19,0.14 -0.41,0.27 -0.66,0.39c-0.24,0.11 -0.48,0.2 -0.74,0.26c-0.25,0.06 -0.55,0.1 -0.89,0.1c-0.54,0 -1.04,-0.11 -1.5,-0.34c-0.46,-0.23 -0.84,-0.55 -1.16,-0.99c-0.32,-0.44 -0.58,-0.98 -0.75,-1.62c-0.18,-0.65 -0.27,-1.39 -0.27,-2.22c0,-0.87 0.11,-1.62 0.34,-2.26c0.22,-0.64 0.53,-1.2 0.93,-1.67c0.36,-0.43 0.8,-0.77 1.31,-1.01c0.51,-0.25 1.05,-0.37 1.61,-0.37c0.5,0 0.93,0.06 1.3,0.17c0.37,0.11 0.75,0.28 1.16,0.51v-4.3h1.67zM-55.3,-1783.06c0,-1.29 -0.23,-2.24 -0.7,-2.86c-0.47,-0.63 -1.13,-0.94 -2,-0.94c-0.87,0 -1.54,0.31 -2.02,0.94c-0.47,0.62 -0.7,1.57 -0.7,2.86c0,1.24 0.23,2.19 0.7,2.83c0.47,0.64 1.15,0.96 2.02,0.96c0.86,0 1.52,-0.31 1.99,-0.94c0.47,-0.63 0.71,-1.58 0.71,-2.85zM-53.58,-1783.06c0,1.67 -0.4,2.96 -1.21,3.87c-0.8,0.91 -1.88,1.36 -3.21,1.36c-1.38,0 -2.47,-0.47 -3.26,-1.4c-0.79,-0.94 -1.18,-2.22 -1.18,-3.83c0,-1.66 0.4,-2.95 1.22,-3.86c0.82,-0.92 1.89,-1.38 3.22,-1.38c1.34,0 2.41,0.46 3.21,1.38c0.8,0.91 1.21,2.2 1.21,3.86zM-33,-1783.14c0,-1.13 -0.18,-2.01 -0.54,-2.63c-0.36,-0.63 -0.95,-0.94 -1.76,-0.94c-0.47,0 -0.93,0.11 -1.38,0.32c-0.44,0.21 -0.86,0.48 -1.25,0.81v5.62c0.44,0.21 0.81,0.36 1.12,0.44c0.31,0.08 0.67,0.12 1.07,0.12c0.86,0 1.54,-0.32 2.02,-0.95c0.48,-0.63 0.72,-1.56 0.72,-2.78zM-31.28,-1783.32c0,1.65 -0.4,2.97 -1.19,3.95c-0.79,0.98 -1.78,1.47 -2.99,1.47c-0.49,0 -0.93,-0.06 -1.31,-0.17c-0.38,-0.11 -0.77,-0.29 -1.16,-0.52v4.16h-1.67v-13.58h1.67v1.04c0.41,-0.37 0.87,-0.68 1.37,-0.93c0.51,-0.25 1.06,-0.38 1.66,-0.38c1.14,0 2.02,0.45 2.66,1.35c0.64,0.9 0.96,2.11 0.96,3.62zM-21,-1786.23h-0.09c-0.12,-0.04 -0.26,-0.06 -0.4,-0.06c-0.14,-0.01 -0.3,-0.02 -0.5,-0.02c-0.45,0 -0.9,0.1 -1.34,0.29c-0.44,0.2 -0.86,0.49 -1.26,0.87v7.04h-1.67v-9.92h1.67v1.47c0.61,-0.54 1.14,-0.92 1.59,-1.14c0.45,-0.23 0.9,-0.34 1.32,-0.34c0.17,0 0.3,0 0.38,0.02c0.09,0.01 0.19,0.02 0.29,0.04zM-10.16,-1784.17c-0.01,-0.45 -0.07,-0.84 -0.16,-1.16c-0.09,-0.33 -0.23,-0.6 -0.41,-0.83c-0.2,-0.25 -0.45,-0.44 -0.75,-0.57c-0.3,-0.13 -0.68,-0.2 -1.13,-0.2c-0.44,0 -0.82,0.07 -1.14,0.2c-0.31,0.13 -0.59,0.32 -0.84,0.58c-0.25,0.26 -0.44,0.55 -0.57,0.87c-0.13,0.31 -0.21,0.68 -0.25,1.1zM-12.11,-1777.87c-1.58,0 -2.81,-0.44 -3.68,-1.33c-0.87,-0.89 -1.31,-2.16 -1.31,-3.8c0,-1.62 0.42,-2.9 1.27,-3.85c0.85,-0.96 1.95,-1.44 3.32,-1.44c0.61,0 1.16,0.09 1.63,0.27c0.47,0.18 0.89,0.46 1.24,0.83c0.36,0.38 0.63,0.84 0.82,1.39c0.19,0.55 0.28,1.21 0.28,2.01v0.91h-6.87c0,1.15 0.29,2.04 0.87,2.65c0.58,0.61 1.38,0.92 2.4,0.92c0.37,0 0.72,-0.04 1.08,-0.12c0.36,-0.08 0.67,-0.19 0.96,-0.32c0.3,-0.14 0.56,-0.27 0.76,-0.39c0.21,-0.13 0.38,-0.25 0.52,-0.36h0.1v1.82c-0.2,0.08 -0.44,0.17 -0.73,0.29c-0.29,0.11 -0.55,0.2 -0.78,0.27c-0.32,0.09 -0.62,0.16 -0.89,0.2c-0.26,0.05 -0.59,0.07 -0.99,0.07zM-0.55,-1777.9c-0.91,0 -1.62,-0.26 -2.13,-0.77c-0.51,-0.52 -0.76,-1.34 -0.76,-2.46v-5.5h-1.13v-1.38h1.13v-2.85h1.67v2.85h3.07v1.38h-3.07v4.72c0,0.5 0.01,0.89 0.03,1.16c0.02,0.27 0.09,0.53 0.2,0.76c0.1,0.21 0.26,0.36 0.49,0.47c0.22,0.1 0.53,0.15 0.91,0.15c0.27,0 0.53,-0.04 0.79,-0.12c0.25,-0.08 0.44,-0.15 0.55,-0.2h0.1v1.5c-0.31,0.09 -0.63,0.16 -0.96,0.2c-0.32,0.05 -0.61,0.08 -0.89,0.08zM12.26,-1783.06c0,-1.29 -0.23,-2.24 -0.7,-2.86c-0.47,-0.63 -1.13,-0.94 -2,-0.94c-0.87,0 -1.54,0.31 -2.01,0.94c-0.47,0.62 -0.7,1.57 -0.7,2.86c0,1.24 0.23,2.19 0.7,2.83c0.47,0.64 1.15,0.96 2.01,0.96c0.86,0 1.52,-0.31 1.99,-0.94c0.47,-0.63 0.71,-1.58 0.71,-2.85zM13.98,-1783.06c0,1.67 -0.4,2.96 -1.21,3.87c-0.8,0.91 -1.88,1.36 -3.21,1.36c-1.38,0 -2.46,-0.47 -3.26,-1.4c-0.79,-0.94 -1.18,-2.22 -1.18,-3.83c0,-1.66 0.41,-2.95 1.22,-3.86c0.82,-0.92 1.89,-1.38 3.22,-1.38c1.34,0 2.41,0.46 3.21,1.38c0.8,0.91 1.21,2.2 1.21,3.86zM-62.44,-1576.19h600.41l0,338.32h-600.41z"></path>
    <path id="Path 15" class="shp4" d="M99.8,-1349.24l-7.24,-10.25v10.06h-1.82v-14.02h0.76l7.05,9.69v-9.69h1.82v14.21zM132.82,-1361.73v3.89h4.63v1.63h-4.63v5.05h6.35v1.72h-8.26v-14.02h8.37v1.72zM174.17,-1361.73v12.3h-1.91v-12.3h-4.46v-1.72h11.03v1.72zM218.86,-1349.24h-0.6l-3.34,-9.67l-3.12,9.67h-0.6l-4.42,-14.21h1.99l2.81,9.79l3.08,-9.79h0.67l3.04,9.77l2.86,-9.77h1.99zM251.78,-1356.56c0,-2.03 0.51,-3.73 1.52,-5.09c1.02,-1.36 2.39,-2.05 4.12,-2.05c1.94,0 3.43,0.63 4.47,1.89c1.04,1.26 1.56,3.01 1.56,5.25c0,2.3 -0.52,4.11 -1.56,5.42c-1.04,1.3 -2.53,1.95 -4.47,1.95c-1.77,0 -3.15,-0.69 -4.15,-2.07c-1,-1.38 -1.49,-3.15 -1.49,-5.3zM253.79,-1356.56c0,1.61 0.32,2.95 0.95,4.03c0.64,1.08 1.53,1.62 2.69,1.62c1.31,0 2.3,-0.49 2.98,-1.48c0.69,-0.99 1.03,-2.38 1.03,-4.16c0,-3.61 -1.34,-5.42 -4.02,-5.42c-1.19,0 -2.09,0.48 -2.71,1.45c-0.62,0.97 -0.93,2.29 -0.93,3.96zM301.09,-1349.43l-3.74,-6.02l-2.03,-0.1v6.12h-1.92v-14.02l1.48,-0.07l2.02,-0.08c3.37,0 5.05,1.34 5.05,4.02c0,0.88 -0.27,1.67 -0.81,2.38c-0.54,0.7 -1.19,1.14 -1.93,1.31l4.07,6.45zM295.32,-1361.73v4.55c0.46,0.06 0.9,0.1 1.34,0.1c1.15,0 1.98,-0.18 2.51,-0.56c0.52,-0.37 0.79,-1.03 0.79,-1.98c0,-0.78 -0.28,-1.35 -0.84,-1.69c-0.56,-0.34 -1.45,-0.52 -2.66,-0.52zM340.1,-1349.43l-3.95,-6.45l-1.87,2.65v3.8h-1.91v-14.02h1.91v7.63l5.2,-7.63h2.13l-4.19,6.08l4.78,7.94zM370.68,-1350.07l0.7,-1.76c0.36,0.26 0.8,0.48 1.33,0.66c0.54,0.17 1.01,0.26 1.44,0.26c0.75,0 1.35,-0.2 1.8,-0.61c0.45,-0.41 0.68,-0.93 0.68,-1.56c0,-0.47 -0.13,-0.91 -0.38,-1.31c-0.25,-0.41 -0.88,-0.85 -1.89,-1.33l-1.13,-0.53c-0.96,-0.45 -1.63,-0.98 -2.01,-1.59c-0.38,-0.61 -0.56,-1.35 -0.56,-2.21c0,-1.05 0.37,-1.91 1.11,-2.6c0.74,-0.69 1.69,-1.03 2.85,-1.03c1.55,0 2.63,0.25 3.23,0.76l-0.56,1.66c-0.25,-0.18 -0.64,-0.36 -1.17,-0.54c-0.52,-0.17 -1.01,-0.26 -1.45,-0.26c-0.65,0 -1.16,0.18 -1.54,0.56c-0.37,0.37 -0.56,0.85 -0.56,1.43c0,0.36 0.07,0.68 0.2,0.97c0.13,0.29 0.32,0.54 0.56,0.74c0.24,0.2 0.73,0.48 1.47,0.83l1.15,0.54c0.96,0.45 1.63,1 2.01,1.63c0.39,0.63 0.58,1.42 0.58,2.39c0,1.05 -0.42,1.95 -1.27,2.68c-0.84,0.73 -1.97,1.1 -3.39,1.1c-1.24,0 -2.31,-0.29 -3.19,-0.88zM232.08,-1383.38c-4.96,6.22 -12.54,9.32 -22.76,9.33c-5.48,0 -10.24,-1.98 -14.28,-5.93c-4,-4 -6,-8.96 -6,-14.87c0,-7.09 3.08,-13.07 9.26,-17.94c6.22,-4.91 14.13,-7.37 23.73,-7.37c2.61,0 5.56,0.57 8.87,1.7c0,-11.31 -5.04,-16.96 -15.13,-16.96c-7.74,0 -13.69,2.09 -17.87,6.26l-5.22,-10.37c2.35,-1.91 5.58,-3.54 9.71,-4.89c4.17,-1.39 8.15,-2.09 11.93,-2.09c10.13,0 17.47,2.31 22.04,6.91c4.61,4.61 6.91,11.94 6.91,21.98v25.05c0,6.13 1.83,10.22 5.48,12.26v6.2c-5.04,0 -8.82,-0.72 -11.34,-2.15c-2.48,-1.43 -4.26,-3.8 -5.35,-7.11zM230.91,-1409.67c-3.91,-0.87 -6.65,-1.3 -8.22,-1.3c-6.26,0 -11.37,1.61 -15.32,4.83c-3.96,3.22 -5.93,7.02 -5.93,11.42c0,7.26 4.28,10.89 12.84,10.89c6.26,0 11.8,-2.98 16.63,-8.94zM259.72,-1374.25v-61.23h-10.09v-10.98h23.13v72.22zM265.71,-1464.88c2.02,0 3.72,0.72 5.12,2.16c1.44,1.4 2.16,3.09 2.16,5.06c0,2.02 -0.72,3.75 -2.16,5.18c-1.4,1.4 -3.11,2.1 -5.12,2.1c-1.97,0 -3.68,-0.7 -5.12,-2.1c-1.4,-1.44 -2.1,-3.17 -2.1,-5.18c0,-2.02 0.7,-3.72 2.1,-5.12c1.4,-1.4 3.1,-2.1 5.12,-2.1zM361.76,-1383.37c-4.95,6.21 -12.53,9.32 -22.74,9.32c-5.47,0 -10.23,-1.98 -14.27,-5.93c-4,-4 -5.99,-8.95 -5.99,-14.86c0,-7.08 3.08,-13.06 9.25,-17.92c6.21,-4.91 14.12,-7.36 23.71,-7.37c2.61,0 5.56,0.57 8.86,1.7c0,-11.3 -5.04,-16.94 -15.11,-16.95c-7.73,0 -13.68,2.09 -17.85,6.26l-5.21,-10.36c2.35,-1.91 5.58,-3.54 9.71,-4.89c4.17,-1.39 8.14,-2.08 11.92,-2.08c10.12,0 17.46,2.3 22.02,6.91c4.6,4.61 6.9,11.93 6.91,21.97v25.03c0,6.13 1.82,10.21 5.47,12.25v6.19c-5.04,0 -8.82,-0.72 -11.34,-2.15c-2.48,-1.43 -4.26,-3.8 -5.34,-7.1zM360.59,-1409.64c-3.91,-0.87 -6.64,-1.3 -8.21,-1.3c-6.25,0 -11.36,1.61 -15.31,4.82c-3.95,3.22 -5.93,7.02 -5.93,11.41c0,7.26 4.28,10.89 12.83,10.89c6.25,0 11.79,-2.98 16.61,-8.93zM171.76,-1374.05l0,-44.62c0,-11.1 -4.8,-16.65 -14.41,-16.65c-3.03,0 -5.85,0.94 -8.49,2.83c-2.63,1.84 -4.43,3.95 -5.39,6.32l0,52.12h-12.5l0,-50.09c0,-3.47 -1.32,-6.18 -3.95,-8.16c-2.59,-2.02 -6.03,-3.03 -10.33,-3.03c-2.5,0 -5.18,0.97 -8.03,2.9c-2.81,1.93 -4.8,4.06 -5.99,6.38v51.99h-12.5v-70.49h8.16l4.15,8.16c4.82,-6.32 10.85,-9.48 18.09,-9.48c10.09,0 17.15,3.14 21.18,9.41c1.4,-2.67 4.01,-4.91 7.83,-6.71c3.82,-1.8 7.74,-2.7 11.78,-2.7c7.28,0 12.92,2.17 16.91,6.52c3.99,4.3 5.98,10.36 5.99,18.16l0,47.12zM283.98,-1393.93v-52.53h11.69v50.56c0,3.53 1,6.32 3.01,8.37c1.95,1.92 4.46,2.92 7.53,3.01h10.81v10.48h-11.01c-14.69,-0.19 -22.04,-6.83 -22.04,-19.89z"></path>
  </g>
  <g id="Page 4">
    <path id="Path 18" class="shp3" d="M79.77,-2180.29l-7.24,-10.25v10.06h-1.82v-14.02h0.76l7.05,9.69v-9.69h1.82v14.21zM112.79,-2192.78v3.89h4.63v1.63h-4.63v5.05h6.35v1.72h-8.26v-14.02h8.37v1.72zM154.14,-2192.78v12.3h-1.91v-12.3h-4.46v-1.72h11.03v1.72zM198.83,-2180.29h-0.6l-3.34,-9.67l-3.12,9.67h-0.6l-4.42,-14.21h1.99l2.81,9.79l3.08,-9.79h0.67l3.04,9.77l2.86,-9.77h1.99zM231.75,-2187.61c0,-2.03 0.51,-3.73 1.52,-5.09c1.02,-1.36 2.39,-2.05 4.12,-2.05c1.94,0 3.43,0.63 4.47,1.89c1.04,1.26 1.56,3.01 1.56,5.25c0,2.3 -0.52,4.11 -1.56,5.42c-1.04,1.3 -2.53,1.95 -4.47,1.95c-1.77,0 -3.15,-0.69 -4.15,-2.07c-1,-1.38 -1.49,-3.15 -1.49,-5.3zM233.76,-2187.61c0,1.61 0.32,2.95 0.95,4.03c0.64,1.08 1.53,1.62 2.69,1.62c1.31,0 2.3,-0.49 2.98,-1.48c0.69,-0.99 1.03,-2.38 1.03,-4.16c0,-3.61 -1.34,-5.42 -4.02,-5.42c-1.19,0 -2.09,0.49 -2.71,1.45c-0.62,0.97 -0.93,2.29 -0.93,3.96zM281.05,-2180.48l-3.74,-6.02l-2.03,-0.1v6.12h-1.92v-14.02l1.48,-0.07l2.02,-0.08c3.37,0 5.05,1.34 5.05,4.02c0,0.88 -0.27,1.67 -0.81,2.38c-0.54,0.7 -1.19,1.14 -1.93,1.31l4.07,6.45zM275.29,-2192.78v4.55c0.46,0.06 0.9,0.1 1.34,0.1c1.15,0 1.98,-0.18 2.51,-0.56c0.52,-0.37 0.78,-1.03 0.79,-1.98c0,-0.78 -0.28,-1.35 -0.84,-1.69c-0.56,-0.34 -1.45,-0.52 -2.66,-0.52zM320.07,-2180.48l-3.95,-6.45l-1.87,2.65v3.8h-1.91v-14.02h1.91v7.63l5.2,-7.63h2.13l-4.19,6.08l4.78,7.94zM350.65,-2181.12l0.7,-1.76c0.36,0.26 0.8,0.48 1.33,0.66c0.54,0.17 1.01,0.26 1.44,0.26c0.75,0 1.35,-0.2 1.8,-0.61c0.45,-0.41 0.68,-0.93 0.68,-1.56c0,-0.47 -0.13,-0.91 -0.38,-1.31c-0.25,-0.41 -0.88,-0.85 -1.89,-1.33l-1.13,-0.53c-0.96,-0.45 -1.63,-0.98 -2.01,-1.59c-0.38,-0.61 -0.57,-1.35 -0.57,-2.21c0,-1.05 0.37,-1.91 1.11,-2.6c0.74,-0.69 1.69,-1.03 2.85,-1.03c1.55,0 2.63,0.25 3.23,0.76l-0.56,1.66c-0.26,-0.18 -0.64,-0.36 -1.17,-0.54c-0.52,-0.17 -1.01,-0.26 -1.45,-0.26c-0.65,0 -1.16,0.18 -1.54,0.56c-0.37,0.37 -0.56,0.85 -0.56,1.43c0,0.36 0.07,0.68 0.2,0.97c0.13,0.29 0.32,0.54 0.56,0.74c0.24,0.2 0.73,0.48 1.47,0.83l1.15,0.54c0.96,0.45 1.63,1 2.01,1.63c0.39,0.63 0.58,1.42 0.58,2.39c0,1.05 -0.42,1.95 -1.27,2.68c-0.84,0.73 -1.97,1.1 -3.39,1.1c-1.24,0 -2.31,-0.29 -3.19,-0.88zM212.05,-2214.43c-4.96,6.22 -12.54,9.32 -22.76,9.33c-5.48,0 -10.24,-1.98 -14.28,-5.93c-4,-4 -6,-8.96 -6,-14.87c0,-7.09 3.08,-13.07 9.26,-17.94c6.21,-4.91 14.13,-7.37 23.73,-7.37c2.61,0 5.56,0.57 8.87,1.7c0,-11.31 -5.04,-16.96 -15.13,-16.96c-7.74,0 -13.69,2.09 -17.87,6.26l-5.22,-10.37c2.35,-1.91 5.59,-3.54 9.71,-4.89c4.17,-1.39 8.15,-2.09 11.93,-2.09c10.13,0 17.47,2.31 22.04,6.91c4.61,4.61 6.91,11.94 6.91,21.98v25.05c0,6.13 1.83,10.22 5.48,12.26v6.2c-5.04,0 -8.83,-0.72 -11.35,-2.15c-2.48,-1.43 -4.26,-3.8 -5.35,-7.11zM210.88,-2240.72c-3.91,-0.87 -6.65,-1.3 -8.22,-1.3c-6.26,0 -11.37,1.61 -15.32,4.83c-3.96,3.22 -5.93,7.02 -5.93,11.42c0,7.26 4.28,10.89 12.84,10.89c6.26,0 11.8,-2.98 16.63,-8.94zM239.69,-2205.3v-61.23h-10.09v-10.98h23.13v72.22zM245.68,-2295.93c2.02,0 3.72,0.72 5.12,2.16c1.44,1.4 2.16,3.09 2.16,5.06c0,2.02 -0.72,3.75 -2.16,5.18c-1.4,1.4 -3.11,2.1 -5.12,2.1c-1.97,0 -3.68,-0.7 -5.12,-2.1c-1.4,-1.44 -2.1,-3.17 -2.1,-5.18c0,-2.02 0.7,-3.72 2.1,-5.12c1.4,-1.4 3.1,-2.1 5.12,-2.1zM341.74,-2214.42c-4.95,6.21 -12.53,9.32 -22.74,9.32c-5.47,0 -10.23,-1.98 -14.27,-5.93c-4,-4 -5.99,-8.95 -5.99,-14.86c0,-7.08 3.08,-13.06 9.25,-17.92c6.21,-4.91 14.11,-7.36 23.71,-7.37c2.61,0 5.56,0.57 8.86,1.7c0,-11.3 -5.04,-16.94 -15.11,-16.95c-7.73,0 -13.68,2.09 -17.85,6.26l-5.21,-10.36c2.35,-1.91 5.58,-3.54 9.71,-4.89c4.17,-1.39 8.14,-2.08 11.92,-2.08c10.12,0 17.46,2.3 22.02,6.91c4.6,4.61 6.9,11.93 6.91,21.97v25.03c0,6.13 1.82,10.21 5.47,12.25v6.19c-5.04,0 -8.82,-0.72 -11.34,-2.15c-2.48,-1.43 -4.26,-3.8 -5.34,-7.1zM340.56,-2240.69c-3.91,-0.87 -6.64,-1.3 -8.21,-1.3c-6.25,0 -11.36,1.61 -15.31,4.82c-3.95,3.22 -5.93,7.02 -5.93,11.41c0,7.26 4.28,10.89 12.83,10.89c6.25,0 11.79,-2.98 16.61,-8.93zM151.73,-2205.1v-44.62c0,-11.1 -4.8,-16.65 -14.41,-16.65c-3.03,0 -5.85,0.94 -8.49,2.83c-2.63,1.84 -4.43,3.95 -5.39,6.32v52.12h-12.5v-50.09c0,-3.47 -1.32,-6.18 -3.95,-8.16c-2.59,-2.02 -6.03,-3.03 -10.33,-3.03c-2.5,0 -5.18,0.97 -8.02,2.9c-2.81,1.93 -4.8,4.06 -5.99,6.38v51.99h-12.5l0,-70.49h8.16l4.15,8.16c4.82,-6.32 10.85,-9.48 18.09,-9.48c10.09,0 17.15,3.14 21.18,9.41c1.4,-2.67 4.01,-4.91 7.83,-6.71c3.82,-1.8 7.74,-2.7 11.78,-2.7c7.28,0 12.92,2.17 16.91,6.52c3.99,4.3 5.99,10.36 5.99,18.16v47.12zM263.95,-2224.98v-52.53h11.69v50.56c0,3.53 1,6.32 3.01,8.37c1.95,1.92 4.46,2.92 7.53,3.01h10.81v10.48h-11.01c-14.69,-0.19 -22.04,-6.83 -22.04,-19.89z"></path>
    <path id="Path 19" class="shp2" d="M685.24,-2550.32h-901.77"></path>
    <path id="Path 20" class="shp3" d="M-207.53,-2557.61h-7.66v-13.22h1.76v11.66h5.9zM-196.55,-2562.57c0,-1.29 -0.23,-2.24 -0.7,-2.86c-0.47,-0.63 -1.13,-0.94 -2,-0.94c-0.87,0 -1.54,0.31 -2.02,0.94c-0.47,0.62 -0.7,1.57 -0.7,2.86c0,1.24 0.24,2.19 0.7,2.83c0.47,0.64 1.15,0.96 2.02,0.96c0.86,0 1.52,-0.31 1.99,-0.94c0.47,-0.63 0.71,-1.58 0.71,-2.85zM-194.83,-2562.57c0,1.67 -0.4,2.96 -1.21,3.87c-0.8,0.91 -1.88,1.36 -3.21,1.36c-1.38,0 -2.47,-0.47 -3.26,-1.4c-0.79,-0.94 -1.18,-2.22 -1.18,-3.83c0,-1.66 0.4,-2.95 1.22,-3.86c0.82,-0.92 1.89,-1.38 3.22,-1.38c1.34,0 2.41,0.46 3.21,1.38c0.8,0.91 1.21,2.2 1.21,3.86zM-189.47,-2556.02c0.11,0.05 0.28,0.11 0.5,0.19c0.22,0.08 0.47,0.16 0.75,0.23c0.31,0.08 0.59,0.14 0.85,0.19c0.26,0.05 0.54,0.07 0.85,0.07c0.51,0 0.95,-0.07 1.31,-0.2c0.36,-0.14 0.64,-0.32 0.84,-0.57c0.19,-0.24 0.32,-0.52 0.4,-0.84c0.08,-0.32 0.12,-0.68 0.12,-1.09v-0.87c-0.45,0.39 -0.89,0.68 -1.32,0.87c-0.43,0.18 -0.97,0.28 -1.63,0.28c-1.13,0 -2.03,-0.42 -2.7,-1.26c-0.67,-0.84 -1,-2.05 -1,-3.62c0,-0.82 0.11,-1.55 0.35,-2.18c0.23,-0.64 0.54,-1.18 0.93,-1.63c0.37,-0.43 0.81,-0.75 1.32,-0.99c0.51,-0.23 1.04,-0.35 1.58,-0.35c0.52,0 0.96,0.06 1.33,0.19c0.38,0.12 0.76,0.29 1.14,0.51l0.1,-0.43h1.57v8.79c0,1.68 -0.37,2.92 -1.1,3.7c-0.73,0.79 -1.86,1.18 -3.37,1.18c-0.48,0 -0.98,-0.04 -1.49,-0.12c-0.5,-0.08 -0.97,-0.18 -1.41,-0.31v-1.74zM-183.86,-2560.3v-5.44c-0.41,-0.2 -0.8,-0.34 -1.15,-0.43c-0.35,-0.09 -0.7,-0.13 -1.05,-0.13c-0.85,0 -1.51,0.31 -2,0.93c-0.48,0.62 -0.73,1.51 -0.73,2.67c0,1.1 0.19,1.94 0.55,2.51c0.37,0.57 0.97,0.86 1.8,0.86c0.43,0 0.88,-0.08 1.33,-0.26c0.46,-0.17 0.88,-0.41 1.24,-0.72zM-170.04,-2562.57c0,-1.29 -0.23,-2.24 -0.7,-2.86c-0.47,-0.63 -1.13,-0.94 -2,-0.94c-0.87,0 -1.54,0.31 -2.01,0.94c-0.47,0.62 -0.7,1.57 -0.7,2.86c0,1.24 0.23,2.19 0.7,2.83c0.47,0.64 1.15,0.96 2.01,0.96c0.86,0 1.52,-0.31 1.99,-0.94c0.47,-0.63 0.71,-1.58 0.71,-2.85zM-168.32,-2562.57c0,1.67 -0.4,2.96 -1.21,3.87c-0.8,0.91 -1.88,1.36 -3.21,1.36c-1.38,0 -2.46,-0.47 -3.26,-1.4c-0.79,-0.94 -1.18,-2.22 -1.18,-3.83c0,-1.66 0.4,-2.95 1.22,-3.86c0.82,-0.92 1.89,-1.38 3.22,-1.38c1.34,0 2.41,0.46 3.21,1.38c0.8,0.91 1.21,2.2 1.21,3.86zM-160.32,-2557.42c-0.91,0 -1.62,-0.26 -2.13,-0.77c-0.51,-0.52 -0.76,-1.34 -0.76,-2.46v-5.5h-1.13v-1.38h1.13v-2.85h1.67v2.85h3.07v1.38h-3.07v4.72c0,0.5 0.01,0.89 0.03,1.16c0.02,0.27 0.08,0.53 0.2,0.76c0.1,0.21 0.26,0.36 0.49,0.47c0.22,0.1 0.53,0.15 0.91,0.15c0.27,0 0.53,-0.04 0.79,-0.12c0.25,-0.08 0.44,-0.15 0.55,-0.2h0.1v1.5c-0.31,0.09 -0.63,0.16 -0.96,0.2c-0.32,0.05 -0.62,0.08 -0.89,0.08zM-152.12,-2569.19h-1.9v-1.73h1.9zM-152.24,-2557.61h-1.67v-9.92h1.67zM-139.9,-2562.65c0,-1.13 -0.18,-2.01 -0.54,-2.63c-0.36,-0.63 -0.95,-0.94 -1.76,-0.94c-0.47,0 -0.93,0.11 -1.38,0.32c-0.44,0.21 -0.86,0.48 -1.25,0.81v5.62c0.44,0.21 0.81,0.36 1.12,0.44c0.31,0.08 0.67,0.12 1.07,0.12c0.86,0 1.54,-0.32 2.02,-0.95c0.48,-0.63 0.72,-1.56 0.72,-2.78zM-138.18,-2562.83c0,1.65 -0.4,2.97 -1.19,3.95c-0.79,0.98 -1.78,1.47 -2.99,1.47c-0.49,0 -0.93,-0.06 -1.31,-0.17c-0.38,-0.11 -0.77,-0.29 -1.16,-0.52v4.16h-1.67v-13.58h1.67v1.04c0.41,-0.37 0.87,-0.68 1.37,-0.93c0.51,-0.25 1.06,-0.38 1.66,-0.38c1.14,0 2.02,0.45 2.66,1.35c0.64,0.9 0.96,2.11 0.96,3.62zM-126.72,-2562.57c0,-1.29 -0.23,-2.24 -0.7,-2.86c-0.47,-0.63 -1.13,-0.94 -2,-0.94c-0.87,0 -1.54,0.31 -2.02,0.94c-0.47,0.62 -0.7,1.57 -0.7,2.86c0,1.24 0.23,2.19 0.7,2.83c0.47,0.64 1.15,0.96 2.02,0.96c0.86,0 1.52,-0.31 1.99,-0.94c0.47,-0.63 0.71,-1.58 0.71,-2.85zM-125,-2562.57c0,1.67 -0.4,2.96 -1.21,3.87c-0.8,0.91 -1.88,1.36 -3.21,1.36c-1.38,0 -2.47,-0.47 -3.26,-1.4c-0.79,-0.94 -1.18,-2.22 -1.18,-3.83c0,-1.66 0.4,-2.95 1.22,-3.86c0.82,-0.92 1.89,-1.38 3.22,-1.38c1.34,0 2.41,0.46 3.21,1.38c0.8,0.91 1.21,2.2 1.21,3.86zM-105.8,-2569.83h-0.09c-0.15,-0.05 -0.36,-0.1 -0.64,-0.15c-0.28,-0.05 -0.53,-0.08 -0.75,-0.08c-0.7,0 -1.21,0.16 -1.51,0.48c-0.3,0.31 -0.44,0.89 -0.44,1.71v0.34h2.76v1.39h-2.71v8.53h-1.67v-8.53h-1.13v-1.39h1.13v-0.33c0,-1.2 0.29,-2.11 0.86,-2.73c0.57,-0.62 1.4,-0.93 2.47,-0.93c0.31,0 0.61,0.02 0.91,0.05c0.3,0.03 0.56,0.07 0.81,0.11zM-94.22,-2557.61h-1.67v-1.1c-0.51,0.45 -1,0.79 -1.46,1.03c-0.46,0.23 -0.98,0.35 -1.54,0.35c-0.43,0 -0.84,-0.07 -1.23,-0.21c-0.38,-0.14 -0.71,-0.37 -0.99,-0.67c-0.28,-0.31 -0.51,-0.7 -0.67,-1.16c-0.15,-0.47 -0.23,-1.04 -0.23,-1.7v-6.44h1.67v5.65c0,0.53 0.02,0.97 0.05,1.31c0.04,0.34 0.13,0.65 0.27,0.91c0.13,0.25 0.32,0.44 0.55,0.56c0.24,0.12 0.57,0.18 1.01,0.18c0.41,0 0.84,-0.12 1.3,-0.35c0.46,-0.23 0.88,-0.51 1.27,-0.85v-7.41h1.67zM-80.71,-2557.61h-1.67v-5.65c0,-0.46 -0.02,-0.88 -0.07,-1.27c-0.04,-0.4 -0.12,-0.71 -0.25,-0.95c-0.13,-0.25 -0.32,-0.43 -0.57,-0.55c-0.24,-0.12 -0.57,-0.19 -1,-0.19c-0.41,0 -0.84,0.11 -1.29,0.34c-0.44,0.22 -0.87,0.51 -1.29,0.86v7.41h-1.67v-9.92h1.67v1.1c0.5,-0.44 0.99,-0.78 1.47,-1.02c0.48,-0.24 1,-0.36 1.54,-0.36c0.98,0 1.74,0.32 2.29,0.97c0.55,0.64 0.83,1.57 0.83,2.79zM-69.11,-2560.03v-5.72c-0.41,-0.2 -0.79,-0.34 -1.12,-0.42c-0.32,-0.08 -0.68,-0.12 -1.07,-0.12c-0.86,0 -1.53,0.32 -2.02,0.97c-0.48,0.64 -0.73,1.57 -0.73,2.78c0,1.17 0.19,2.06 0.56,2.68c0.37,0.62 0.97,0.92 1.79,0.92c0.44,0 0.88,-0.1 1.32,-0.29c0.44,-0.2 0.86,-0.47 1.25,-0.81zM-67.44,-2557.61h-1.67v-1.01c-0.26,0.22 -0.48,0.4 -0.68,0.54c-0.19,0.14 -0.41,0.27 -0.66,0.39c-0.24,0.11 -0.48,0.2 -0.74,0.26c-0.25,0.06 -0.55,0.1 -0.89,0.1c-0.54,0 -1.04,-0.11 -1.5,-0.34c-0.46,-0.23 -0.84,-0.55 -1.16,-0.99c-0.32,-0.44 -0.58,-0.98 -0.75,-1.62c-0.18,-0.65 -0.27,-1.39 -0.27,-2.22c0,-0.87 0.11,-1.62 0.34,-2.26c0.23,-0.64 0.53,-1.2 0.93,-1.67c0.36,-0.43 0.8,-0.77 1.31,-1.01c0.51,-0.25 1.05,-0.37 1.61,-0.37c0.5,0 0.93,0.06 1.3,0.17c0.37,0.11 0.75,0.28 1.16,0.51v-4.3h1.67zM-55.3,-2562.57c0,-1.29 -0.23,-2.24 -0.7,-2.86c-0.47,-0.63 -1.13,-0.94 -2,-0.94c-0.87,0 -1.54,0.31 -2.02,0.94c-0.47,0.62 -0.7,1.57 -0.7,2.86c0,1.24 0.23,2.19 0.7,2.83c0.47,0.64 1.15,0.96 2.02,0.96c0.86,0 1.52,-0.31 1.99,-0.94c0.47,-0.63 0.71,-1.58 0.71,-2.85zM-53.58,-2562.57c0,1.67 -0.4,2.96 -1.21,3.87c-0.8,0.91 -1.88,1.36 -3.21,1.36c-1.38,0 -2.47,-0.47 -3.26,-1.4c-0.79,-0.94 -1.18,-2.22 -1.18,-3.83c0,-1.66 0.4,-2.95 1.22,-3.86c0.82,-0.92 1.89,-1.38 3.22,-1.38c1.34,0 2.41,0.46 3.21,1.38c0.8,0.91 1.21,2.2 1.21,3.86zM-31.28,-2562.74c0,1.62 -0.39,2.93 -1.18,3.92c-0.79,0.99 -1.77,1.48 -2.96,1.48c-0.54,0 -1,-0.07 -1.39,-0.2c-0.38,-0.13 -0.75,-0.31 -1.13,-0.53l-0.11,0.46h-1.56v-13.82h1.67v4.94c0.42,-0.38 0.88,-0.69 1.37,-0.94c0.49,-0.25 1.05,-0.37 1.67,-0.37c1.12,0 2,0.45 2.64,1.35c0.64,0.89 0.97,2.13 0.97,3.72zM-33,-2562.6c0,-1.18 -0.18,-2.08 -0.54,-2.69c-0.36,-0.62 -0.94,-0.92 -1.74,-0.92c-0.46,0 -0.92,0.11 -1.38,0.32c-0.46,0.21 -0.88,0.48 -1.26,0.81v5.68c0.42,0.21 0.79,0.36 1.12,0.44c0.32,0.08 0.68,0.12 1.07,0.12c0.85,0 1.52,-0.3 2.01,-0.91c0.48,-0.6 0.73,-1.56 0.73,-2.86zM-21,-2565.74h-0.09c-0.12,-0.04 -0.26,-0.06 -0.4,-0.06c-0.14,-0.01 -0.3,-0.02 -0.5,-0.02c-0.45,0 -0.9,0.1 -1.34,0.29c-0.44,0.2 -0.86,0.49 -1.26,0.87v7.04h-1.67v-9.92h1.67v1.47c0.61,-0.54 1.14,-0.92 1.59,-1.14c0.45,-0.23 0.9,-0.34 1.32,-0.34c0.17,0 0.3,0 0.38,0.02c0.09,0.01 0.19,0.02 0.29,0.04zM-10.87,-2558.67c-0.14,0.1 -0.32,0.24 -0.55,0.43c-0.23,0.18 -0.44,0.32 -0.66,0.43c-0.3,0.15 -0.58,0.27 -0.86,0.36c-0.27,0.08 -0.66,0.12 -1.15,0.12c-0.41,0 -0.8,-0.08 -1.16,-0.23c-0.37,-0.15 -0.69,-0.37 -0.97,-0.65c-0.27,-0.27 -0.48,-0.61 -0.64,-1c-0.16,-0.4 -0.24,-0.83 -0.24,-1.27c0,-0.69 0.15,-1.27 0.44,-1.75c0.29,-0.49 0.75,-0.87 1.38,-1.15c0.56,-0.25 1.21,-0.43 1.97,-0.53c0.76,-0.1 1.57,-0.17 2.45,-0.22v-0.32c0,-0.39 -0.06,-0.7 -0.18,-0.94c-0.12,-0.24 -0.28,-0.43 -0.5,-0.56c-0.21,-0.14 -0.47,-0.23 -0.78,-0.27c-0.31,-0.05 -0.63,-0.07 -0.95,-0.07c-0.39,0 -0.84,0.06 -1.36,0.18c-0.52,0.11 -1.04,0.28 -1.56,0.5h-0.1v-1.7c0.31,-0.09 0.75,-0.19 1.32,-0.29c0.58,-0.11 1.14,-0.16 1.7,-0.16c0.68,0 1.26,0.05 1.72,0.16c0.47,0.11 0.89,0.3 1.26,0.58c0.36,0.27 0.63,0.62 0.81,1.06c0.18,0.43 0.27,0.96 0.27,1.58v6.79h-1.66zM-10.87,-2560.05v-2.75c-0.4,0.04 -0.9,0.09 -1.51,0.15c-0.6,0.06 -1.09,0.15 -1.46,0.26c-0.44,0.14 -0.81,0.35 -1.1,0.63c-0.29,0.28 -0.44,0.67 -0.44,1.17c0,0.57 0.16,1 0.48,1.29c0.32,0.29 0.79,0.44 1.4,0.44c0.53,0 1,-0.11 1.43,-0.34c0.43,-0.23 0.82,-0.51 1.2,-0.84zM4.21,-2557.61h-1.67v-5.65c0,-0.46 -0.02,-0.88 -0.07,-1.27c-0.04,-0.4 -0.12,-0.71 -0.25,-0.95c-0.13,-0.25 -0.32,-0.43 -0.57,-0.55c-0.24,-0.12 -0.57,-0.19 -1,-0.19c-0.41,0 -0.84,0.11 -1.29,0.34c-0.44,0.22 -0.87,0.51 -1.29,0.86l0,7.41h-1.67v-9.92h1.67v1.1c0.5,-0.44 0.99,-0.78 1.47,-1.02c0.48,-0.24 1,-0.36 1.54,-0.36c0.98,0 1.74,0.32 2.29,0.97c0.55,0.64 0.83,1.57 0.83,2.79zM13.79,-2557.39c-0.68,0 -1.31,-0.1 -1.87,-0.31c-0.57,-0.21 -1.06,-0.53 -1.46,-0.96c-0.41,-0.43 -0.73,-0.96 -0.95,-1.61c-0.23,-0.65 -0.34,-1.42 -0.34,-2.29c0,-0.87 0.12,-1.62 0.35,-2.26c0.24,-0.63 0.55,-1.17 0.94,-1.6c0.39,-0.43 0.88,-0.76 1.46,-1c0.59,-0.24 1.21,-0.36 1.88,-0.36c0.54,0 1.07,0.08 1.57,0.23c0.51,0.15 0.96,0.33 1.36,0.53v1.87h-0.1c-0.12,-0.1 -0.27,-0.22 -0.46,-0.35c-0.18,-0.13 -0.41,-0.26 -0.68,-0.4c-0.23,-0.12 -0.5,-0.22 -0.82,-0.31c-0.31,-0.09 -0.62,-0.13 -0.91,-0.13c-0.86,0 -1.56,0.33 -2.09,0.99c-0.52,0.65 -0.78,1.58 -0.78,2.77c0,1.17 0.25,2.09 0.76,2.74c0.51,0.65 1.21,0.98 2.11,0.98c0.54,0 1.06,-0.11 1.55,-0.34c0.49,-0.23 0.92,-0.52 1.3,-0.87h0.1v1.87c-0.17,0.08 -0.37,0.17 -0.62,0.29c-0.25,0.11 -0.47,0.19 -0.67,0.24c-0.28,0.08 -0.54,0.14 -0.76,0.19c-0.23,0.05 -0.51,0.07 -0.87,0.07zM27.97,-2562.57c0,-1.29 -0.23,-2.24 -0.7,-2.86c-0.47,-0.63 -1.13,-0.94 -2,-0.94c-0.87,0 -1.54,0.31 -2.01,0.94c-0.47,0.62 -0.7,1.57 -0.7,2.86c0,1.24 0.23,2.19 0.7,2.83c0.47,0.64 1.15,0.96 2.01,0.96c0.86,0 1.52,-0.31 1.99,-0.94c0.47,-0.63 0.71,-1.58 0.71,-2.85zM29.69,-2562.57c0,1.67 -0.4,2.96 -1.21,3.87c-0.8,0.91 -1.88,1.36 -3.21,1.36c-1.38,0 -2.46,-0.47 -3.26,-1.4c-0.79,-0.94 -1.18,-2.22 -1.18,-3.83c0,-1.66 0.4,-2.95 1.22,-3.86c0.82,-0.92 1.89,-1.38 3.22,-1.38c1.34,0 2.41,0.46 3.21,1.38c0.8,0.91 1.21,2.2 1.21,3.86z"></path>
  </g>
</svg>
