<svg xmlns="http://www.w3.org/2000/svg" xmlns:xlink="http://www.w3.org/1999/xlink" viewBox="0 0 263.65 85.95"><defs><style>.cls-1{fill:url(#linear-gradient)}.cls-2{fill:url(#linear-gradient-2)}.cls-3{fill:url(#linear-gradient-3)}.cls-4{fill:url(#linear-gradient-4)}.cls-5{fill:#3d3d3d}.cls-6{fill:url(#linear-gradient-5)}.cls-7{fill:url(#linear-gradient-6)}.cls-8{fill:url(#linear-gradient-7)}</style><linearGradient id="linear-gradient" x1="15.88" y1="7.4" x2="59.38" y2="68.65" gradientUnits="userSpaceOnUse"><stop offset="0" stop-color="#7c4dff"/><stop offset="1" stop-color="#2979ff"/></linearGradient><linearGradient id="linear-gradient-2" x1="14.57" y1="8.33" x2="58.07" y2="69.58" xlink:href="#linear-gradient"/><linearGradient id="linear-gradient-3" x1="24.5" y1="1.28" x2="68" y2="62.53" xlink:href="#linear-gradient"/><linearGradient id="linear-gradient-4" x1="4.75" y1="15.31" x2="48.25" y2="76.56" xlink:href="#linear-gradient"/><linearGradient id="linear-gradient-5" x1="164.51" y1="31.11" x2="260.76" y2="62.61" xlink:href="#linear-gradient"/><linearGradient id="linear-gradient-6" x1="166.92" y1="23.75" x2="263.17" y2="55.25" xlink:href="#linear-gradient"/><linearGradient id="linear-gradient-7" x1="170.2" y1="13.74" x2="266.45" y2="45.24" xlink:href="#linear-gradient"/></defs><title>logo_gradient</title><g id="Layer_2" data-name="Layer 2"><g id="Layer_1-2" data-name="Layer 1"><path class="cls-1" d="M36.79 85.95A11.89 11.89 0 0 1 29 83.07a126.43 126.43 0 0 1-17.5-18.3C3.87 54.76 0 45.38 0 36.9a36.82 36.82 0 1 1 73.64 0c0 8.49-3.89 17.88-11.55 27.89a126.49 126.49 0 0 1-17.54 18.29 11.89 11.89 0 0 1-7.76 2.87zm0-78.87A29.81 29.81 0 0 0 7.08 36.9c0 6.9 3.39 14.84 10.06 23.59a119.27 119.27 0 0 0 16.5 17.23 4.86 4.86 0 0 0 6.28 0 119.35 119.35 0 0 0 16.55-17.23c6.7-8.75 10.09-16.69 10.09-23.59A29.81 29.81 0 0 0 36.82 7.08z"/><path class="cls-2" d="M36.34 47.79a3.54 3.54 0 0 1-3.54-3.54V33.74a3.54 3.54 0 0 1 7.08 0v10.51a3.54 3.54 0 0 1-3.54 3.54z"/><path class="cls-3" d="M49.81 47.79a3.54 3.54 0 0 1-3.54-3.54V29.59a3.54 3.54 0 0 1 7.08 0v14.66a3.54 3.54 0 0 1-3.54 3.54z"/><path class="cls-4" d="M22.88 47.79a3.54 3.54 0 0 1-3.54-3.54V37.4a3.54 3.54 0 0 1 7.08 0v6.84a3.54 3.54 0 0 1-3.54 3.55z"/><path class="cls-5" d="M130 33.61v14.16a3.38 3.38 0 0 1-3.4 3.46 3.48 3.48 0 0 1-3.51-3.46V33.44a4.19 4.19 0 0 0-4.38-4c-2.53 0-4.55 1.73-4.55 4v14.33a3.43 3.43 0 1 1-6.85 0V33.44a4.53 4.53 0 0 0-9 0v14.51a3.42 3.42 0 0 1-3.46 3.4 3.49 3.49 0 0 1-3.46-3.4v-22a3.55 3.55 0 0 1 3.46-3.51 3.21 3.21 0 0 1 2.65 1.38 11.78 11.78 0 0 1 5.3-1.27 11.65 11.65 0 0 1 7.95 3.11A11.41 11.41 0 0 1 130 33.44zM161.44 26v25.17a14.43 14.43 0 0 1-14.17 14.57 13.92 13.92 0 0 1-10.71-5.07 3.58 3.58 0 0 1 .35-4.89 3.22 3.22 0 0 1 4.72.4 7.4 7.4 0 0 0 13.07-5v-2.37a13.16 13.16 0 0 1-6.56 1.79c-7.26 0-13.19-6.33-13.19-14.17V26.12a3.34 3.34 0 1 1 6.68 0v10.31c0 4 2.94 7.26 6.51 7.26s6.56-3.28 6.56-7.26V26a3.37 3.37 0 1 1 6.74 0z"/><path class="cls-6" d="M181.42 51.06a14.35 14.35 0 0 1-10-4A14.67 14.67 0 0 1 167 36.89a14.07 14.07 0 0 1 4.09-10.25 14.43 14.43 0 0 1 10.08-4.43 14.21 14.21 0 0 1 10.25 4.09 3.39 3.39 0 0 1 .12 4.84 3.46 3.46 0 0 1-4.89.12 7.68 7.68 0 0 0-5.36-2.13 7.47 7.47 0 0 0-5.3 2.3 7.63 7.63 0 0 0-2.07 5.36 7.24 7.24 0 0 0 2.3 5.24 7.17 7.17 0 0 0 5.3 2.13 7.5 7.5 0 0 0 5.07-2 3.39 3.39 0 0 1 4.84.17 3.46 3.46 0 0 1-.17 4.89 14.34 14.34 0 0 1-9.56 3.86z"/><path class="cls-7" d="M221.21 31.19a3.46 3.46 0 0 1-4.89.17 7 7 0 0 0-4.78-1.9 7.32 7.32 0 0 0-7.14 7.43v10.88a3.46 3.46 0 1 1-6.91 0V25.72a3.46 3.46 0 0 1 6.74-1A13.71 13.71 0 0 1 221 26.35a3.39 3.39 0 0 1 .21 4.84z"/><path class="cls-8" d="M263.65 33.61v14.16a3.38 3.38 0 0 1-3.4 3.46 3.48 3.48 0 0 1-3.51-3.46V33.44a4.19 4.19 0 0 0-4.38-4c-2.53 0-4.55 1.73-4.55 4v14.33a3.43 3.43 0 1 1-6.85 0V33.44a4.53 4.53 0 0 0-9 0v14.51a3.42 3.42 0 0 1-3.46 3.4 3.49 3.49 0 0 1-3.46-3.4v-22a3.55 3.55 0 0 1 3.46-3.51 3.21 3.21 0 0 1 2.65 1.38 11.78 11.78 0 0 1 5.3-1.27 11.65 11.65 0 0 1 7.95 3.11 11.41 11.41 0 0 1 19.23 7.77z"/></g></g></svg>