<svg xmlns="http://www.w3.org/2000/svg" width="1078" height="438" viewBox="0 0 1078 438">
    <path fill="#EF5E4E" fill-rule="nonzero" d="M144.3.7C223.6.7 288 65.5 288 145.5c0 12.5-1.6 24.6-4.5 36.2-3.3 12.8-8.3 25-14.7 36.2-6.3 11-14 21.1-22.9 30-26 26.2-61.9 42.4-101.5 42.4v-1.9c-1.4-41.3-19.1-78.4-46.7-105-25.4-24.5-59.4-40.1-96.8-41.9 1-38.4 16.9-73 42-98.4C68.7 16.9 104.6.7 144.3.7zM.7 435.1c79.3 0 143.7-64.8 143.7-144.8H.7v144.8zm650.9.3h21V299l-22 4v45.5c-7.6-6.8-17.4-10.8-28-10.8-25.6 0-47.3 22.4-47.3 50.1 0 27.7 21.4 50.1 46.9 50.1 11.4 0 21.6-4.6 29.4-12.2v9.7zm128-18.4l-17.8-12.6c-5.2 8-14 12.4-23.6 12.4-13.8 0-24.6-9-27.6-21.2h71.7c.4-3.2.6-6 .6-9.4 0-27.6-19-48.5-46.5-48.5-29.2 0-49.1 22.4-49.1 50.1 0 27.7 21.6 50.1 50.7 50.1 17.3-.1 32.4-8.1 41.6-20.9zm75.1-56.3v-20.6c-3.4-.6-6-1-9.4-1-12.8 0-23 6.4-26.2 16.6v-16.6l-21.6 4v92.3h22v-74.7h35.2zm-337.7-2c13.6 0 21.6 8.4 21.6 25.6v51.1h22v-54.1c0-23.8-12.8-43.7-38.7-43.7-12 0-22.4 4.6-30.2 12.2V339l-21 4v92.3h22v-63.9c5.1-7.7 13.7-12.7 24.3-12.7zm109.4 58.1c-16 0-28.6-13-28.6-29s12.6-29 28.6-29c10.2 0 19.2 5.4 24.2 13.6v30.8c-5 8.2-14 13.6-24.2 13.6zm109.9-59.1c12.6 0 21.4 8 23.6 20h-49.5c2.9-11.6 12.1-20 25.9-20zm-305.6 77.7h22v-95.3h-22v95.3zM335.5 300v135.4h23v-54.1h49.1v-22.2h-49.1v-36.9h55.7V300h-78.7zm106-1.8c-8 0-14.8 6.6-14.8 14.8 0 8.2 6.8 15 14.8 15 8.2 0 15.2-6.8 15.2-15s-7-14.8-15.2-14.8zm228.1-58.4c25.6 0 47.3-22.4 47.3-50.1 0-27.6-21.4-50.1-46.9-50.1-11.2 0-21.4 4.6-29.2 12V141l-21 4v128.6h22v-44.5c7.6 6.7 17.2 10.7 27.8 10.7zm152.2-20.9L804 206.3c-5.2 8-14 12.4-23.6 12.4-13.6 0-24.2-8.8-27.6-20.8h71.7c.4-3.4.6-6.2.6-9.8 0-27.6-19-48.5-46.5-48.5-29.2 0-49.1 22.4-49.1 50.1 0 27.6 21.6 50.1 50.7 50.1 17.4 0 32.4-8 41.6-20.9zm-320.6-56.2V142c-3.4-.6-6-1-9.4-1-12.6 0-22.8 6.4-26 16.6V141l-21.6 4v92.3H466v-74.7h35.2v.1zm395.8 0V142c-3.4-.6-6-1-9.4-1-12.6 0-22.8 6.4-26 16.6V141l-21.8 4v92.3h22v-74.7H897v.1zm75.9 70.7l-8.6-19c-4.2 2-10 4.4-16.8 4.4-11.8 0-17.8-7.4-17.8-19v-37.1H966V142h-36.3v-27.6l-21.8 4v81.3c0 24.4 13.4 40.1 38.9 40.1 10.8 0 19.9-3.6 26.1-6.4zm-417.4-14.7c-15.2 0-27.4-12.6-27.4-29s12.2-29 27.4-29c15 0 27.4 12.6 27.4 29s-12.4 29-27.4 29zm110.3 0c-10 0-19-5.2-24-13.2v-31.6c5-8 14-13.2 24-13.2 16 0 28.6 13 28.6 29s-12.6 29-28.6 29zm112.8-58.9c12.8 0 21.4 8 23.6 19.8h-49.5c2.9-11.3 12.1-19.8 25.9-19.8zm243.1 113.8l56.1-131.6h-24.4l-26.8 64.9-27.4-64.9h-24.6l40.3 91.3-17 40.3h23.8zm-466.2-33.8c27.2 0 49.7-22 49.7-50.1 0-28-22.4-50.1-49.7-50.1-27.4 0-49.9 22-49.9 50.1 0 28 22.4 50.1 49.9 50.1zM384.6 124.2c12.6 0 21.8 8.8 21.8 20.2 0 11.6-9.4 21-22.2 21h-25.4v-41.3h25.8v.1zm.8-22.2h-49.9v135.4h23.2v-49.7h25.8c25.2 0 45.7-19 45.7-43.3.1-24-20-42.4-44.8-42.4z"/>
</svg>
