<?xml version="1.0" encoding="UTF-8"?>
<svg width="53px" height="38px" viewBox="0 0 53 38" version="1.1" xmlns="http://www.w3.org/2000/svg" xmlns:xlink="http://www.w3.org/1999/xlink">
    <!-- Generator: Sketch 57.1 (83088) - https://sketch.com -->
    <title>Group 15 Copy</title>
    <desc>Created with Sketch.</desc>
    <defs>
        <filter x="-13.0%" y="-19.1%" width="126.0%" height="138.2%" filterUnits="objectBoundingBox" id="filter-1">
            <feOffset dx="0" dy="1" in="SourceAlpha" result="shadowOffsetOuter1"></feOffset>
            <feGaussianBlur stdDeviation="1" in="shadowOffsetOuter1" result="shadowBlurOuter1"></feGaussianBlur>
            <feColorMatrix values="0 0 0 0 0   0 0 0 0 0   0 0 0 0 0  0 0 0 0.5 0" type="matrix" in="shadowBlurOuter1" result="shadowMatrixOuter1"></feColorMatrix>
            <feMerge>
                <feMergeNode in="shadowMatrixOuter1"></feMergeNode>
                <feMergeNode in="SourceGraphic"></feMergeNode>
            </feMerge>
        </filter>
    </defs>
    <g id="Home-Page" stroke="none" stroke-width="1" fill="none" fill-rule="evenodd">
        <g id="updated-hero" transform="translate(-182.000000, -4071.000000)" fill="#FF6348">
            <g id="Group-15-Copy" filter="url(#filter-1)" transform="translate(208.500000, 4089.000000) scale(-1, 1) translate(-208.500000, -4089.000000) translate(183.500000, 4072.000000)">
                <path d="M47.8771889,21.2386287 C43.7920175,30.9977498 33.748147,33.6655095 32.3978292,34 C33.2654793,32.8021089 34.3833847,30.9359367 35.0540828,28.4340226 C35.5361859,26.635145 35.6705739,24.941233 35.6222394,23.4445397 C30.413516,22.3254895 26.5,17.5579506 26.5,11.8466541 C26.5,5.30391323 31.6356569,0 37.9709814,0 C43.8253322,0 48.6546069,4.52950014 49.3541024,10.380051 C49.3542153,10.3799344 49.3543283,10.3798178 49.3544412,10.3798178 C49.3561352,10.3948629 49.3577162,10.4102578 49.3594102,10.4255361 C49.3746559,10.5575596 49.3886593,10.6901662 49.3997266,10.8234725 C49.620507,13.2017604 49.6177966,17.080357 47.8771889,21.2386287 Z" id="Fill-7"></path>
                <path d="M21.8776515,21.2386287 C17.7917573,30.9977498 7.74822726,33.6655095 6.39789456,34 C7.26555419,32.8021089 8.38347201,30.9359367 9.05417753,28.4340226 C9.53628594,26.635145 9.6706755,24.941233 9.62234043,23.4445397 C4.41355937,22.3254895 0.5,17.5579506 0.5,11.8466541 C0.5,5.30391323 5.63582673,0 11.9711085,0 C17.825637,0 22.6546264,4.52950014 23.3548073,10.380051 L23.3548073,10.3798178 C23.3559366,10.3948629 23.3581952,10.4102578 23.3593246,10.4255361 C23.3751351,10.5575596 23.388687,10.6901662 23.3999802,10.8234725 C23.6201984,13.2017604 23.6179398,17.080357 21.8776515,21.2386287 Z" id="Fill-8"></path>
            </g>
        </g>
    </g>
</svg>