<svg width="1024" height="1024" viewBox="0 0 1024 1024" fill="none" xmlns="http://www.w3.org/2000/svg">
<path d="M512 1024C794.77 1024 1024 794.77 1024 512C1024 229.23 794.77 0 512 0C229.23 0 0 229.23 0 512C0 794.77 229.23 1024 512 1024Z" fill="black"/>
<path fill-rule="evenodd" clip-rule="evenodd" d="M743 754.5V674.8C743 658.9 734.3 650.9 719.9 650.9C702.8 650.9 688.7 663.6 688.1 679V754.4H659.2V674.7C659.2 658.8 650.5 650.8 636.1 650.8C619 650.8 604.9 663.5 604.3 678.9V754.3H575.4V629.7H601.4L604.3 640.3L605.7 641.6L607.1 640.3C612.9 632.3 627.3 627 638.9 627C659.7 627 674.7 635.2 682.3 648.2L689.5 640.2C696.7 632.2 711.2 626.9 722.7 626.9C754.5 626.9 771.9 645.5 771.9 672V754.3H743V754.5ZM265.9 748L750.7 263.2L760.8 273.3L276 758.1L265.9 748ZM303.1 366.4H297.8V452.4H269.4V252.1H338.4C369.4 252.1 396.6 272.7 396.6 308.3C396.6 342.6 367.6 364.5 336.6 364.5L400.4 446.8V452.3H368L303.1 366.4ZM340 338C355.6 338 369.9 327.1 369.9 309.4C369.9 291.7 355.6 280.8 340 280.8H298.4V338H340Z" fill="white"/>
</svg>
