<svg width="50" height="50" viewBox="0 0 50 50" fill="none" xmlns="http://www.w3.org/2000/svg">
<path d="M65.8131 35.6472C67.454 35.6472 68.8271 35.3457 69.3628 35.1447V30.8568H69.028C68.4922 31.0578 67.9229 31.1583 67.3536 31.1583C65.8131 31.1583 65.1099 30.4548 65.1099 28.8134V22.2141H69.2958V17.8257H65.1099V13.2363H64.775L60.1872 14.1743V17.8257H57.1063V22.2141H59.9528V30.0528C59.9528 33.2352 61.7611 35.6472 65.8131 35.6472Z" fill="#FCFAF2"/>
<path d="M83.4163 17.8257V27.5739C83.4163 29.5838 82.5796 30.7898 80.5698 30.7898C78.5272 30.7898 77.6898 29.5838 77.6898 27.5739V17.8257H72.5332V28.3444C72.5332 32.0628 74.8099 35.6472 80.5363 35.6472C80.5363 35.6472 80.5363 35.6472 80.5698 35.6472C86.2962 35.6472 88.5736 32.0628 88.5736 28.3444V17.8257H83.4163Z" fill="#FCFAF2"/>
<path d="M99.8962 35.6471C104.986 35.6471 107.632 32.4982 107.866 28.4448H102.675C102.508 29.9858 101.436 31.1247 99.7617 31.1247C97.5854 31.1247 96.3461 29.7513 96.3461 26.5689C96.3461 23.42 97.5854 22.0465 99.7617 22.0465C101.436 22.0465 102.508 23.1855 102.675 24.7264H107.866C107.632 20.673 104.952 17.5242 99.7617 17.5242C94.1697 17.5242 91.0884 21.2761 91.0884 26.5689C91.0884 31.8952 94.3035 35.6471 99.8962 35.6471Z" fill="#FCFAF2"/>
<path d="M116.331 35.6471C118.508 35.6471 120.048 34.8766 121.019 33.7712H121.153L121.522 35.3456H126.143V23.822C126.143 20.1706 123.263 17.5242 118.475 17.5242C113.317 17.5242 110.94 20.3381 110.94 23.621H115.762C115.762 22.549 116.699 21.678 118.307 21.678C120.215 21.678 120.986 22.616 120.986 23.822V25.2624C120.282 25.0279 118.541 24.7599 117.235 24.7599C112.413 24.7599 110.202 26.9039 110.202 30.1533C110.202 33.2687 112.38 35.6471 116.331 35.6471ZM117.637 31.6272C116.097 31.6272 115.293 30.8903 115.293 29.8853C115.293 28.9473 116.164 28.2103 117.838 28.2103C118.842 28.2103 119.914 28.3443 120.986 28.7798V28.9473C120.986 30.3878 119.747 31.6272 117.637 31.6272Z" fill="#FCFAF2"/>
<path d="M129.158 35.3456H134.314V25.6309C134.314 23.5205 135.654 22.214 137.496 22.214C139.538 22.214 140.443 23.42 140.443 25.4299V35.3456H145.6V23.822C145.6 19.9361 142.988 17.5242 139.103 17.5242C136.826 17.5242 135.285 18.3616 134.314 19.5006H134.181L133.779 17.8256H129.158V35.3456Z" fill="#FCFAF2"/>
<path d="M49.4458 24.7311C49.4458 38.3897 38.377 49.4622 24.7229 49.4622C11.0688 49.4622 0 38.3897 0 24.7311C0 11.0725 11.0688 0 24.7229 0C38.377 0 49.4458 11.0725 49.4458 24.7311Z" fill="#FCFAF2"/>
<path d="M23.0634 21.2546C23.2592 21.9856 22.8256 22.7371 22.0946 22.933C21.3636 23.1289 20.6124 22.695 20.4166 21.964C20.2207 21.2329 20.6545 20.4814 21.3854 20.2856C22.1163 20.0896 22.8676 20.5235 23.0634 21.2546Z" fill="black"/>
<path d="M19.4731 28.6564C19.8763 25.886 15.4913 20.2933 8.87073 23.0828C9.29757 25.886 12.4767 31.0401 19.4731 28.6564Z" fill="black"/>
<path d="M25.1931 26.1054C20.7534 24.625 11.2709 24.5153 4.8031 31.327C9.18808 32.2464 18.3965 32.1915 25.1931 26.1054Z" fill="black"/>
<path d="M38.8936 19.1937C35.6554 17.5573 29.9082 16.8595 24.4804 18.0562C25.1381 19.8547 25.7411 22.7607 25.1929 26.1061C34.1821 23.2549 41.1432 25.0095 44.7608 26.2158C44.7317 25.9794 43.887 21.2641 38.8936 19.1937Z" fill="#FF5816"/>
</svg>
