<svg xmlns="http://www.w3.org/2000/svg" width="705.312" height="151.968" viewBox="0 0 529 114"><path d="M99.464 84.436a3.292 3.292 0 0 1 1.647.443 3.339 3.339 0 0 1 1.177 1.205 3.284 3.284 0 0 1-1.201 4.487h-.003a3.296 3.296 0 0 1-4.515-4.484l.008-.013a3.242 3.242 0 0 1 1.204-1.195 3.208 3.208 0 0 1 1.682-.443m0 .55a2.745 2.745 0 1 0 2.736 2.754v-.01a2.753 2.753 0 0 0-2.736-2.745m-.717 4.506h-.575v-3.54h1.23a2.796 2.796 0 0 1 .885.106.977.977 0 0 1 .434.345.888.888 0 0 1 .159.505.942.942 0 0 1-.283.692 1.123 1.123 0 0 1-.735.309 1.204 1.204 0 0 1 .381.275 4.242 4.242 0 0 1 .451.619l.425.7h-.7l-.3-.55a3.482 3.482 0 0 0-.531-.779.788.788 0 0 0-.531-.177h-.3zm0-3.054V87.5h.7a1.205 1.205 0 0 0 .646-.133.504.504 0 0 0 .109-.705.493.493 0 0 0-.109-.11 1.469 1.469 0 0 0-.699-.115zm-33.154-28.32a59.117 59.117 0 0 0 1.718 6.515l1.027-.806-2.745-5.7" fill="#fff"/><path d="M158.026 74.593l11.217-40.884h4.427l-13.2 46.488h-4.462l-11.146-39.9-11.137 39.9h-4.427l-13.28-46.453h4.426l11.2 40.85 11.42-40.884h3.62l11.35 40.884m40.4 5.603V76.23a14.669 14.669 0 0 1-11.421 4.808c-5.78 0-11.775-3.975-11.775-11.217s5.905-11.164 11.775-11.164a14.548 14.548 0 0 1 11.421 4.806v-6.807c0-5-4.037-7.73-9.057-7.73a13.074 13.074 0 0 0-10.518 4.95l-2.018-2.515a16.349 16.349 0 0 1 12.952-5.639c6.826 0 12.262 3.275 12.262 10.8v23.674zm0-6.613V66.2a12.644 12.644 0 0 0-10.208-4.665c-5.57 0-9.2 3.54-9.2 8.357s3.62 8.286 9.2 8.286a12.579 12.579 0 0 0 10.208-4.594m13.58.124V49.804h-5.57v-3.24h5.57V37.4h3.692v9.154h6.826v3.24h-6.826v23.363c0 2.7 1.115 4.595 3.488 4.595a5.258 5.258 0 0 0 3.754-1.602l1.4 2.8a7.597 7.597 0 0 1-5.71 2.089c-4.47 0-6.622-2.718-6.622-7.33m15.14-10.36c0-9.74 6.897-17.618 16.228-17.618 10.243 0 15.883 8.154 15.883 17.83v.974H231.12c.345 7.312 5.223 13.377 13.165 13.377a14.753 14.753 0 0 0 11.005-4.674l1.885 2.372a17.373 17.373 0 0 1-13.164 5.437c-9.827 0-16.865-7.33-16.865-17.697m16.157-14.484c-7.968 0-11.907 6.967-12.182 12.82h24.443c-.07-5.675-3.816-12.82-12.262-12.82M266 80.197V46.555h3.622v5.772c2.85-3.754 6.684-6.472 11.35-6.472v3.95a7.994 7.994 0 0 0-1.815-.133c-3.408 0-7.968 3.063-9.534 5.985v24.54zm26.647 0V49.804h-5.57v-3.24h5.57v-3.072c0-6.543 3.488-10.447 9.128-10.447a8.789 8.789 0 0 1 6.4 2.373l-1.77 2.505a6.097 6.097 0 0 0-4.32-1.771c-3.833 0-5.85 2.656-5.85 7.313v3.072h6.826v3.267h-6.826v30.393zM307.97 63.34c0-9.818 6.33-17.618 16.157-17.618s16.228 7.8 16.228 17.618-6.268 17.706-16.228 17.706-16.157-7.88-16.157-17.706m28.48 0c0-7.446-4.427-14.342-12.324-14.342s-12.263 6.897-12.263 14.342 4.426 14.422 12.262 14.422 12.324-6.897 12.324-14.422m12.113 16.857V46.555h3.62v5.772c2.86-3.754 6.684-6.472 11.35-6.472v3.95a7.923 7.923 0 0 0-1.771-.133c-3.4 0-8.013 3.063-9.544 5.985v24.54zM413.97 63.34c0-9.818 6.34-17.618 16.157-17.618 9.96 0 16.228 7.8 16.228 17.618s-6.268 17.706-16.228 17.706c-9.818-.01-16.157-7.88-16.157-17.706m28.5 0c0-7.446-4.426-14.342-12.332-14.342-7.8 0-12.226 6.897-12.226 14.342s4.426 14.422 12.253 14.422c7.915 0 12.306-6.897 12.306-14.422m11.48 16.857V46.555h3.62v5.772c2.85-3.754 6.684-6.472 11.35-6.472v3.95a7.912 7.912 0 0 0-1.771-.133c-3.417 0-8.012 3.063-9.544 5.985v24.54zm-60.816.001v-5.366a14.323 14.323 0 0 1-11.704 6.197c-8.915 0-15.05-6.826-15.05-17.626 0-10.625 6.126-17.707 15.05-17.707a14.299 14.299 0 0 1 11.704 6.294V33.744h3.692v46.453zm0-8.43V55.116a13.427 13.427 0 0 0-11.075-6.126c-7.454 0-11.766 6.268-11.766 14.413s4.312 14.35 11.766 14.35a13.49 13.49 0 0 0 11.075-5.986m80.27 15.097l1.86-2.8a20.274 20.274 0 0 0 13.2 5.011c7.5 0 12.8-4.666 12.8-13.784v-5.134c-2.824 4.427-7.18 8.216-13.65 8.216-7.88 0-15.697-6.55-15.697-16.714v-.142c0-10.234 7.817-16.82 15.697-16.82 6.534 0 10.96 3.763 13.65 7.968V45.6h3.134v29.888c0 5.153-1.53 9.198-4.16 12.05a15.83 15.83 0 0 1-11.854 4.736 23.379 23.379 0 0 1-14.988-5.4m28.056-25.285v-.14a13.448 13.448 0 0 0-13.386-13.51h-.124c-6.86 0-12.625 5.153-12.625 13.44v.142c0 7.968 5.897 13.58 12.625 13.58a13.528 13.528 0 0 0 13.51-13.51M406.72 74.43a3.178 3.178 0 1 1-3.178 3.178 3.178 3.178 0 0 1 3.178-3.178" fill="#4a5c6d"/><path d="M99.465 84.436a3.291 3.291 0 0 1 1.647.443 3.34 3.34 0 0 1 1.177 1.205 3.284 3.284 0 0 1-1.201 4.487h-.003a3.296 3.296 0 0 1-4.514-4.484l.008-.013a3.244 3.244 0 0 1 1.204-1.195 3.207 3.207 0 0 1 1.682-.443m0 .55a2.745 2.745 0 1 0 2.735 2.754v-.01a2.753 2.753 0 0 0-2.736-2.744m-.717 4.506h-.575v-3.54h1.23a2.796 2.796 0 0 1 .885.106.976.976 0 0 1 .434.345.888.888 0 0 1 .159.505.941.941 0 0 1-.283.691 1.121 1.121 0 0 1-.735.309 1.207 1.207 0 0 1 .381.275 4.243 4.243 0 0 1 .451.619l.425.69h-.7l-.3-.55a3.485 3.485 0 0 0-.531-.779.787.787 0 0 0-.531-.177h-.3zm0-3.054V87.5h.7a1.206 1.206 0 0 0 .646-.133.504.504 0 0 0 .109-.705.493.493 0 0 0-.109-.11 1.469 1.469 0 0 0-.699-.115z" fill="#fff"/><path d="M47.3 62.39c.983-4.346 16.157-9.206 23.266-11.226-3.94 0-17.405 2.25-22.708 4.126-12.084 4.258-16.307 8.358-15.6 11.21-.053 1.628 3.63 5.515 23.355 2.984l1.17-2.93S46.62 66.26 47.3 62.39" fill="#638e47"/><path d="M51.542 41.57c4.028-1.903 17.21 7.083 23.187 11.403-2.46-3.125-12.5-12.36-17.246-15.387-10.8-6.888-16.635-7.684-18.44-5.374-1.32.974-2.585 6.348 11.51 20.29l3.028-.885S48.08 43.34 51.542 41.57" fill="#489cbd"/><path d="M71.046 32.388c3.922 2.098 4.515 18.034 4.542 25.444 1.018-3.816 2.523-17.37 2.15-23.018-.84-12.722-3.647-17.92-6.587-18.034-1.558-.487-6.144 1.94-9.013 21.584l2.497 1.912s2.877-9.588 6.4-7.888" fill="#265e8d"/><path d="M64.388 56.62a116.268 116.268 0 0 0-7.968 15.705q1.983-1.284 3.95-2.656a134.777 134.777 0 0 1 4.019-13.05m-9.907 40.096c1.3.992 6.613.54 16.042-16.927l-1.7-2.656s-6.197 7.782-8.906 4.975c-.983-1.107-1.1-3.54-.717-6.472l-5.03 2.958c-3.24 11.536-2.355 17.06.3 18.122" fill="#f7ca4d"/><path d="M91.258 53.273l-2.346 2.107s8.79 4.693 6.463 7.862c-2.098 2.594-11.456 1.93-19.08.885l-1.293.956c5.4 1.77 12.855 3.843 16.733 4.303 12.713 1.523 18.317-.292 18.946-3.15.77-1.47-.637-6.525-19.424-12.962" fill="#d32c31"/><path d="M73.073 79.947c6.03 11.288 10.72 14.848 13.44 13.723 1.62-.203 4.48-4.506-1.01-23.585l-3.063-.717s1.664 10.136-2.257 10.056c-2.71-.195-6.4-5.55-9.56-11.234l-1.77 1.24a81.938 81.938 0 0 0 4.223 10.517" fill="#e58e42"/><path d="M102.377 32.512a2.852 2.852 0 0 0-.434-.814c-.47-1.07-5.09-4.497-22.47 6.63l.505 3.152s9.083-3.426 10.12.354c-.416 2.594-.708 6.88-22.726 23.948S15.59 94.352 15.59 94.352c49.002-14.66 90.79-53.845 86.788-61.84" fill="#55337f"/></svg>