<?xml version="1.0" encoding="UTF-8"?>
<svg width="350px" height="350px" viewBox="0 0 350 350" version="1.1" xmlns="http://www.w3.org/2000/svg" xmlns:xlink="http://www.w3.org/1999/xlink">
    <!-- Generator: Sketch 53.2 (72643) - https://sketchapp.com -->
    <title>2.3-everywhere-cloud-services</title>
    <desc>Created with Sketch.</desc>
    <g id="2.3-everywhere-cloud-services" stroke="none" stroke-width="1" fill="none" fill-rule="evenodd">
        <g id="CLOUD-CONTROL-PANEL-Copy" transform="translate(51.000000, 56.000000)" fill-rule="nonzero">
            <path d="M230.90352,28.65024 L86.02128,28.65024 L94.17792,31.68576 C100.64352,34.092 104.9568,40.34496 104.91072,47.24496 C104.90112,48.57552 104.73792,49.87296 104.42304,51.11184 C102.60576,58.4808 96.02544,63.62736 88.42272,63.62736 L88.30992,63.62688 L52.8168,63.63024 C52.10544,63.67488 51.26208,63.72096 50.43024,63.72144 C49.752,63.71136 49.08432,63.6816 48.42576,63.63168 L48.3672,63.62736 L26.5776,63.62832 C26.43696,63.63312 26.29872,63.64176 26.16144,63.6504 C26.0208,63.65904 25.8816,63.66912 25.76016,63.66912 C24.89184,63.65952 24.05184,63.60672 23.26416,63.51264 L21.51168,63.30384 L21.51168,224.34624 C21.51168,232.80288 28.39152,239.68272 36.84768,239.68272 L230.904,239.68272 C239.36064,239.68272 246.24048,232.80288 246.24048,224.34624 L246.24048,43.98672 C246.24,35.53008 239.36016,28.65024 230.90352,28.65024 Z M243.10608,224.34624 C243.10608,231.0744 237.63216,236.5488 230.90352,236.5488 L36.8472,236.5488 C30.11904,236.5488 24.64512,231.07488 24.64512,224.34624 L24.64512,66.7704 C25.00416,66.78816 25.36992,66.7992 25.74192,66.80352 C25.94736,66.80352 26.1528,66.79152 26.36064,66.77808 L48.2496,66.76128 C48.95088,66.81312 49.66368,66.8448 50.40768,66.85536 C51.34944,66.85536 52.25376,66.8064 52.9152,66.76128 L88.30032,66.76128 L88.42272,66.76176 C97.4712,66.76176 105.30192,60.63504 107.46336,51.87312 C107.83776,50.4 108.03312,48.85056 108.04512,47.26704 C108.08592,41.15664 105.25536,35.47344 100.63344,31.78416 L230.90304,31.78416 C237.63168,31.78416 243.1056,37.25808 243.1056,43.98672 L243.1056,224.34624 L243.10608,224.34624 Z" id="Shape" fill="#4A555F"></path>
            <path d="M230.90352,35.4408 L108.53328,35.4408 C110.5176,38.84736 111.63984,42.76752 111.68928,46.85952 L239.44944,46.85952 L239.44944,43.98672 C239.44896,39.27456 235.61616,35.4408 230.90352,35.4408 Z" id="Path" fill="#71CCE0"></path>
            <rect id="Rectangle" fill="#4A555F" x="105.94512" y="49.92096" width="138.72816" height="3.13392"></rect>
            <path d="M102.39456,33.3576 C98.71296,29.62704 93.7992,27.55344 88.55808,27.5184 L88.42608,27.51792 C86.74944,27.51792 85.08144,27.73776 83.4456,28.17264 C80.85408,12.27072 67.16016,0.42672 50.84256,0.31728 L50.61744,0.31632 C39.06528,0.31632 28.26288,6.39792 22.23408,16.24176 C9.86064,18.0288 0.56448,28.6272 0.48048,41.21088 C0.43536,48.00048 3.036,54.4008 7.80528,59.23392 C12.57408,64.06656 18.94032,66.75312 25.76448,66.79824 C25.96752,66.79824 26.1672,66.7872 26.36736,66.77472 L48.252,66.75936 C48.75024,66.7896 49.8576,66.80064 50.68224,66.80064 C51.18096,66.80064 52.3776,66.79632 52.97232,66.75936 L88.296,66.75936 L88.42848,66.75984 C88.42944,66.75984 88.42848,66.75984 88.42896,66.75984 C99.17472,66.75984 107.97648,58.01616 108.04848,47.26992 C108.084,42.0288 106.07568,37.08816 102.39456,33.3576 Z M88.42848,63.62592 L52.92,63.62544 L52.80816,63.62928 C52.49232,63.65184 51.6576,63.66672 50.68224,63.66672 C49.53264,63.66672 48.672,63.648 48.41616,63.62928 L48.30336,63.62544 L26.5776,63.6264 C26.44272,63.63024 26.3088,63.6384 26.17536,63.64656 C26.03952,63.6552 25.9032,63.66432 25.75152,63.66432 C25.75152,63.66432 25.75104,63.66432 25.75056,63.66432 C19.79856,63.62496 14.21808,61.2696 10.0368,57.03264 C5.856,52.79568 3.57504,47.184 3.61488,41.232 C3.68976,29.9712 12.18144,20.52384 23.36736,19.25664 L24.15024,19.16784 L24.54624,18.48624 C29.92944,9.21264 39.91968,3.45168 50.6184,3.45168 L50.8224,3.45264 C66.18384,3.55536 78.97824,15.13824 80.58288,30.396 L80.79408,32.40528 L82.68768,31.70064 C84.55584,31.0056 86.4864,30.65328 88.42656,30.65328 L88.53792,30.65376 C92.94192,30.68304 97.07136,32.42544 100.16448,35.55984 C103.25712,38.69472 104.9448,42.84576 104.91504,47.24976 C104.8536,56.27952 97.45872,63.62592 88.42848,63.62592 Z" id="Shape" fill="#4A555F"></path>
            <path d="M97.56048,38.12736 C95.1528,35.688 91.94016,34.332 88.42656,34.30896 C86.92272,34.30896 85.4208,34.584 83.96208,35.12688 L77.65104,37.47456 L76.94592,30.77712 C75.53616,17.3736 64.29504,7.19808 50.79744,7.10832 L50.61696,7.10736 C41.2176,7.10736 32.43936,12.17088 27.70896,20.32128 L26.38992,22.5936 L23.7792,22.88928 C14.4312,23.94864 7.3344,31.84416 7.27104,41.256 C7.23744,46.23216 9.144,50.92224 12.63936,54.46416 C16.13376,58.00608 20.79936,59.97456 25.75152,60.00768 L25.9464,59.99712 C26.11968,59.98656 26.29344,59.97648 26.46864,59.9712 L48.50976,59.97216 L48.66912,59.98176 C48.8568,59.99328 49.62624,60.01056 50.68176,60.01056 C51.73872,60.01056 52.38768,59.99328 52.548,59.98224 L52.73376,59.9688 C52.73376,59.9688 88.42848,59.96928 88.42944,59.96928 C95.45568,59.96928 101.21088,54.25152 101.25792,47.2248 C101.28048,43.7976 99.9672,40.5672 97.56048,38.12736 Z" id="Path" fill="#DFDFDF"></path>
            <rect id="Rectangle" fill="#4A555F" x="95.83824" y="62.79984" width="3.13392" height="175.31616"></rect>
            <rect id="Rectangle" fill="#4A555F" x="37.25904" y="85.73952" width="10.42368" height="3.13392"></rect>
            <rect id="Rectangle" fill="#4A555F" x="54.62208" y="85.73952" width="25.15296" height="3.13392"></rect>
            <rect id="Rectangle" fill="#4A555F" x="37.25904" y="108.47568" width="10.42368" height="3.13392"></rect>
            <rect id="Rectangle" fill="#4A555F" x="54.62208" y="108.47568" width="25.15296" height="3.13392"></rect>
            <rect id="Rectangle" fill="#4A555F" x="37.25904" y="131.21136" width="10.42368" height="3.13392"></rect>
            <rect id="Rectangle" fill="#4A555F" x="54.62208" y="131.21136" width="25.15296" height="3.13392"></rect>
            <rect id="Rectangle" fill="#4A555F" x="37.25904" y="153.94704" width="10.42368" height="3.13392"></rect>
            <rect id="Rectangle" fill="#4A555F" x="54.62208" y="153.94704" width="25.15296" height="3.13392"></rect>
            <rect id="Rectangle" fill="#4A555F" x="37.25904" y="176.68272" width="10.42368" height="3.13392"></rect>
            <rect id="Rectangle" fill="#4A555F" x="54.62208" y="176.68272" width="25.15296" height="3.13392"></rect>
            <rect id="Rectangle" fill="#4A555F" x="37.25904" y="199.4184" width="10.42368" height="3.13392"></rect>
            <rect id="Rectangle" fill="#4A555F" x="54.62208" y="199.4184" width="25.15296" height="3.13392"></rect>
            <path d="M114.91728,79.64016 L114.91728,94.97376 L155.53488,94.97376 L155.53488,79.64016 L114.91728,79.64016 Z M152.40048,91.83984 L118.0512,91.83984 L118.0512,82.77456 L152.40048,82.77456 L152.40048,91.83984 Z" id="Shape" fill="#4A555F"></path>
            <path d="M152.40048,79.64016 L152.40048,94.97376 L193.01808,94.97376 L193.01808,79.64016 L152.40048,79.64016 Z M189.88368,91.83984 L155.5344,91.83984 L155.5344,82.77456 L189.88368,82.77456 L189.88368,91.83984 Z" id="Shape" fill="#4A555F"></path>
            <path d="M189.88368,79.64016 L189.88368,94.97376 L230.5008,94.97376 L230.5008,79.64016 L189.88368,79.64016 Z M227.36688,91.83984 L193.01808,91.83984 L193.01808,82.77456 L227.36688,82.77456 L227.36688,91.83984 Z" id="Shape" fill="#4A555F"></path>
            <path d="M114.91728,102.74448 L114.91728,164.2248 L230.5008,164.2248 L230.5008,102.74448 L114.91728,102.74448 Z M227.36688,161.09088 L118.05168,161.09088 L118.05168,105.8784 L227.36688,105.8784 L227.36688,161.09088 Z" id="Shape" fill="#4A555F"></path>
            <rect id="Rectangle" fill="#F58E6F" x="121.70832" y="109.53504" width="102.00144" height="47.8992"></rect>
            <path d="M114.91728,170.62464 L114.91728,215.5392 L169.60032,215.5392 L169.60032,170.62464 L114.91728,170.62464 Z M166.4664,212.4048 L118.05168,212.4048 L118.05168,173.75856 L166.4664,173.75856 L166.4664,212.4048 L166.4664,212.4048 Z" id="Shape" fill="#4A555F"></path>
            <rect id="Rectangle" fill="#FFD452" x="121.70832" y="177.41568" width="41.10096" height="31.33296"></rect>
            <path d="M176.86752,170.62464 L176.86752,215.5392 L231.55056,215.5392 L231.55056,170.62464 L176.86752,170.62464 Z M228.41616,212.4048 L180.00144,212.4048 L180.00144,173.75856 L228.41616,173.75856 L228.41616,212.4048 L228.41616,212.4048 Z" id="Shape" fill="#4A555F"></path>
            <rect id="Rectangle" fill="#FFD452" x="183.6576" y="177.41568" width="41.10096" height="31.33296"></rect>
            <path d="M64.92096,40.87824 C63.14112,46.4256 58.03104,50.1528 52.20528,50.1528 C46.37904,50.1528 41.26896,46.4256 39.48912,40.87824 L36.50496,41.83584 C38.7024,48.68496 45.01152,53.2872 52.20528,53.2872 C59.39856,53.2872 65.70768,48.68496 67.90512,41.83584 L64.92096,40.87824 Z" id="Path" fill="#4A555F"></path>
            <path d="M52.20528,20.30496 C44.89872,20.30496 38.56032,24.99888 36.43104,31.98528 L39.4296,32.89872 C41.15328,27.24048 46.28736,23.43888 52.20528,23.43888 C58.12272,23.43888 63.2568,27.24048 64.98048,32.89872 L67.97904,31.98528 C65.84976,24.99888 59.51136,20.30496 52.20528,20.30496 Z" id="Path" fill="#4A555F"></path>
            <polygon id="Path" fill="#4A555F" points="67.9632 24.80064 65.92032 31.09344 59.83104 29.14512 58.87584 32.13024 67.93728 35.02992 70.94448 25.76832"></polygon>
            <polygon id="Path" fill="#4A555F" points="37.10112 38.20272 33.16992 47.28672 36.04608 48.53136 38.75904 42.26256 45.02592 44.81472 46.20816 41.91264"></polygon>
        </g>
    </g>
</svg>