<?xml version="1.0" encoding="UTF-8"?>
<svg width="200px" height="200px" viewBox="0 0 200 200" version="1.1" xmlns="http://www.w3.org/2000/svg" xmlns:xlink="http://www.w3.org/1999/xlink">
    <!-- Generator: Sketch 53.2 (72643) - https://sketchapp.com -->
    <title>4.3-everywhere-device</title>
    <desc>Created with Sketch.</desc>
    <g id="4.3-everywhere-device" stroke="none" stroke-width="1" fill="none" fill-rule="evenodd">
        <path d="M174.604566,125.094899 L158.931776,71.5283281 C158.511969,70.1260619 158.092162,68.583569 157.392484,67.1813028 C153.614222,59.4688384 146.197634,54.7011331 138.36124,54.1402266 L138.36124,54 L63.6356174,54 L63.6356174,54.1402266 C55.6592869,54.8413598 48.2426989,59.4688384 44.6043728,67.1813028 C44.1845659,68.1628891 43.764759,69.0042489 43.4848878,69.9858353 L43.4848878,70.1260619 C43.3449522,70.5467418 43.2050166,70.9674216 43.0650809,71.3881015 L27.3922913,124.954672 C24.0338363,131.825777 26.9724844,140.099148 33.8293299,143.464587 C40.6861754,146.830026 48.9423771,143.885267 52.300832,137.014162 L70.2125916,111.212463 L131.504394,111.212463 L149.835961,137.154389 C153.194416,144.025493 161.450617,146.970252 168.307463,143.604813 C175.024373,140.239374 177.963021,131.966004 174.604566,125.094899 Z M61.536583,85.1303108 C60.6969693,85.9716705 59.4375487,86.532577 58.0381925,86.532577 L53.1404457,86.532577 L53.1404457,76.5764866 L58.0381925,76.5764866 C60.6969693,76.5764866 62.9359393,78.8201126 62.9359393,81.4844185 C62.9359393,83.0269114 62.3761968,84.288951 61.536583,85.1303108 Z M75.1103384,98.7322934 L65.1749092,98.7322934 L65.1749092,93.8243615 C65.1749092,91.019829 67.4138792,88.9164296 70.072656,88.9164296 C71.4720122,88.9164296 72.7314328,89.4773361 73.5710465,90.3186959 C74.4106603,91.1600556 74.9704028,92.4220953 74.9704028,93.8243615 L75.1103384,98.7322934 Z M75.1103384,69.4249288 C75.1103384,72.0892346 72.8713684,74.3328606 70.2125916,74.3328606 C68.8132354,74.3328606 67.5538148,73.7719541 66.7142011,72.9305944 C65.8745873,72.0892346 65.3148448,70.827195 65.3148448,69.4249288 L65.3148448,64.5169969 L75.250274,64.5169969 L75.1103384,69.4249288 Z M87.2847375,86.6728036 L82.3869907,86.6728036 C79.5882783,86.6728036 77.489244,84.4291776 77.489244,81.7648718 C77.489244,80.3626055 78.0489865,79.1005659 78.8886002,78.2592061 C79.7282139,77.4178464 80.9876345,76.8569399 82.3869907,76.8569399 L87.2847375,76.8569399 L87.2847375,86.6728036 Z M125.767034,85.1303108 C124.92742,85.9716705 123.667999,86.532577 122.268643,86.532577 C120.869287,86.532577 119.609866,85.9716705 118.770252,85.1303108 C117.930639,84.288951 117.370896,83.0269114 117.370896,81.6246451 C117.370896,78.8201126 119.609866,76.7167133 122.268643,76.7167133 C123.667999,76.7167133 124.92742,77.2776198 125.767034,78.1189795 C126.606647,78.9603393 127.16639,80.2223789 127.16639,81.6246451 C127.16639,83.0269114 126.606647,84.288951 125.767034,85.1303108 Z M135.842398,99.5736531 C135.702463,99.5736531 135.422592,99.5736531 135.282656,99.5736531 C132.763815,99.5736531 130.66478,97.750707 130.384909,95.2266278 C130.105038,92.5623219 132.064137,90.0382426 134.722913,89.7577894 C134.862849,89.7577894 135.14272,89.7577894 135.282656,89.7577894 C137.801497,89.7577894 139.900531,91.5807355 140.180403,94.1048148 C140.180403,94.2450414 140.180403,94.5254946 140.180403,94.6657213 C140.180403,97.0495739 138.36124,99.2931999 135.842398,99.5736531 Z M138.781046,72.0892346 C137.941433,72.9305944 136.682012,73.4915009 135.282656,73.4915009 C132.483943,73.4915009 130.384909,71.2478749 130.384909,68.583569 C130.384909,67.1813028 130.944652,65.9192631 131.784265,65.0779034 C132.623879,64.2365436 133.8833,63.6756371 135.282656,63.6756371 C136.682012,63.6756371 137.941433,64.2365436 138.781046,65.0779034 C139.62066,65.9192631 140.180403,67.1813028 140.180403,68.583569 C140.180403,69.9858353 139.62066,71.2478749 138.781046,72.0892346 Z M151.655124,85.1303108 C150.81551,85.9716705 149.556089,86.532577 148.156733,86.532577 C146.757377,86.532577 145.497956,85.9716705 144.658343,85.1303108 C143.818729,84.288951 143.258986,83.0269114 143.258986,81.6246451 C143.258986,78.8201126 145.497956,76.7167133 148.156733,76.7167133 C149.556089,76.7167133 150.81551,77.2776198 151.655124,78.1189795 C152.494737,78.9603393 153.05448,80.2223789 153.05448,81.6246451 C153.194416,83.0269114 152.634673,84.288951 151.655124,85.1303108 Z" id="Shape-Copy-13" stroke="#FFFFFF" stroke-width="2.8" fill="#EC8D53" fill-rule="nonzero"></path>
    </g>
</svg>