<?xml version="1.0" encoding="UTF-8"?>
<svg width="200px" height="200px" viewBox="0 0 200 200" version="1.1" xmlns="http://www.w3.org/2000/svg" xmlns:xlink="http://www.w3.org/1999/xlink">
    <!-- Generator: Sketch 53.2 (72643) - https://sketchapp.com -->
    <title>3.3-everywhere-application</title>
    <desc>Created with Sketch.</desc>
    <g id="3.3-everywhere-application" stroke="none" stroke-width="1" fill="none" fill-rule="evenodd">
        <g id="ONLINE-SHOP-Copy-2" transform="translate(10.000000, 26.000000)">
            <path d="M164.736986,147.95183 L14.2630137,147.95183 C6.39820117,147.95183 0,141.563396 0,133.711019 L0,127.947745 L179,127.947745 L179,133.711019 C179,141.563396 172.601799,147.95183 164.736986,147.95183 Z M2.57906836,130.522387 L2.57906836,133.71067 C2.57906836,140.143085 7.82041211,145.376491 14.2633633,145.376491 L164.736986,145.376491 C171.179588,145.376491 176.421281,140.143085 176.421281,133.71067 L176.421281,130.522387 L2.57906836,130.522387 Z" id="Shape" fill="#4A555F" fill-rule="nonzero"></path>
            <path d="M14.2630137,142.372858 C9.4796582,142.372858 5.58745703,138.48716 5.58745703,133.711019 L5.58745703,133.526717 L173.412543,133.526717 L173.412543,133.711019 C173.412543,138.48716 169.520691,142.372858 164.736986,142.372858 L14.2630137,142.372858 Z" id="Path" fill="#DFDFDF" fill-rule="nonzero"></path>
            <path d="M97.9462129,138.862745 L81.0537871,138.862745 C76.9193066,138.862745 73.5557148,135.504472 73.5557148,131.376877 L73.5557148,127.947745 L105.444285,127.947745 L105.444285,131.376877 C105.444285,135.504472 102.080693,138.862745 97.9462129,138.862745 Z M76.1347832,130.522387 L76.1347832,131.376528 C76.1347832,134.084509 78.3415176,136.287755 81.0537871,136.287755 L97.9462129,136.287755 C100.658482,136.287755 102.865217,134.084509 102.865217,131.376528 L102.865217,130.522387 L76.1347832,130.522387 Z" id="Shape" fill="#4A555F" fill-rule="nonzero"></path>
            <path d="M150.563473,48.5583113 L150.563473,117.908179 L28.4505117,117.908179 L28.4505117,36.3706509 L132.554045,36.3706509 C136.14698,42.9451321 142.774875,47.631217 150.563473,48.5583113 Z" id="Path"></path>
            <path d="M153.245326,130.516453 L25.767959,130.516453 C20.1888926,130.516453 15.6502637,125.938226 15.6502637,120.311434 L15.6502637,33.0919623 C15.6502637,27.4651698 20.1888926,22.8872925 25.767959,22.8872925 L131.061213,22.8872925 L130.978006,24.2528019 C130.962623,24.5100566 130.954932,24.7676604 130.954932,25.0332925 C130.954932,26.1185094 131.034293,27.2107075 131.190918,28.280217 C131.360129,29.4390849 131.619889,30.5895755 131.963205,31.6999245 C132.405461,33.1041792 132.985812,34.4707358 133.68643,35.7559623 L134.723721,37.6586698 L29.7398711,37.6586698 L29.7398711,116.621208 L149.274113,116.621208 L149.274113,47.1065849 L150.71765,47.279717 C152.083924,47.4441226 153.452295,47.4877547 154.769973,47.3942075 C155.721959,47.3442925 156.636887,47.2308491 157.514406,47.0552736 C158.926828,46.8022075 160.288557,46.4137075 161.586656,45.8950094 L163.35498,45.1885189 L163.35498,120.311085 C163.35498,125.938226 158.820197,130.516453 153.245326,130.516453 Z M25.767959,25.461934 C21.6111035,25.461934 18.229332,28.884783 18.229332,33.0919623 L18.229332,120.311434 C18.229332,124.518962 21.6111035,127.941811 25.767959,127.941811 L153.245326,127.941811 C157.397986,127.941811 160.775912,124.518962 160.775912,120.311434 L160.775912,48.9101604 C159.86518,49.1911509 158.934869,49.4169906 157.99477,49.5852358 C157.021107,49.7800094 155.98067,49.9091604 154.929045,49.9639623 C153.964123,50.0334245 152.901311,50.0341226 151.853182,49.9681509 L151.853182,119.1955 L27.1608027,119.1955 L27.1608027,35.0833302 L130.486105,35.0833302 C130.111324,34.231283 129.781643,33.3561981 129.500906,32.4654057 C129.116336,31.222066 128.827209,29.9413774 128.63877,28.6516132 C128.485291,27.6006038 128.398238,26.5296981 128.379709,25.461934 L25.767959,25.461934 Z" id="Shape" fill="#4A555F" fill-rule="nonzero"></path>
            <path d="M154.86157,48.6783868 L154.86157,122.199481 L24.1520645,122.199481 L24.1520645,32.0793491 L130.731182,32.0793491 C131.203854,33.5813396 131.814271,35.014566 132.553695,36.3706509 C136.14698,42.944783 142.774875,47.631217 150.563473,48.5579623 C151.492035,48.6693113 152.437379,48.7296981 153.400203,48.7296981 C153.890355,48.7300472 154.380158,48.7129434 154.86157,48.6783868 Z" id="Path"></path>
            <path d="M154.86157,48.6783868 L154.86157,122.199481 L24.1520645,122.199481 L24.1520645,32.0793491 L130.731182,32.0793491 C130.370035,30.9121038 130.094893,29.7019245 129.914494,28.4659151 L25.7683086,28.4659151 C23.2668535,28.4659151 21.2380703,30.5428019 21.2380703,33.0916132 L21.2380703,120.311085 C21.2380703,122.860594 23.2668535,124.937481 25.7683086,124.937481 L153.245676,124.937481 C155.73874,124.937481 157.767523,122.860594 157.767523,120.311085 L157.767523,48.3181604 C156.82183,48.507 155.850266,48.6270755 154.86157,48.6783868 Z" id="Path" fill="#DFDFDF" fill-rule="nonzero"></path>
            <path d="M153.398105,50.0191132 C146.713574,50.0194623 140.429346,47.4203868 135.702627,42.7011415 C130.975908,37.9822453 128.373066,31.7079528 128.373066,25.0339906 C128.373066,11.2570755 139.599373,0.0485188679 153.398105,0.0481698113 C160.082637,0.0478207547 166.366865,2.64654717 171.093584,7.36579245 C175.820303,12.0846887 178.423145,18.3589811 178.423145,25.0329434 C178.423145,38.8102075 167.197187,50.0187642 153.398105,50.0191132 Z M153.398105,2.62316038 C141.021234,2.62350943 130.952135,12.6766887 130.952135,25.0339906 C130.952135,31.0199623 133.286826,36.6478019 137.526189,40.8804623 C141.766252,45.1131226 147.402654,47.4441226 153.398105,47.4441226 C165.774977,47.4437736 175.844426,37.3905943 175.844426,25.0329434 C175.844426,19.0469717 173.509734,13.4191321 169.270371,9.1864717 C165.030309,4.95381132 159.393906,2.62281132 153.398105,2.62316038 Z" id="Shape" fill="#4A555F" fill-rule="nonzero"></path>
            <path d="M153.398455,44.4404906 C148.206406,44.4404906 143.32516,42.4218962 139.654262,38.7568019 C135.983014,35.0913585 133.961223,30.2181792 133.961223,25.0343396 C133.961223,14.3333113 142.68083,5.62749057 153.398805,5.62714151 C158.590504,5.62714151 163.47175,7.64573585 167.142998,11.3108302 C170.814246,14.9762736 172.836037,19.8494528 172.836037,25.0332925 C172.835688,35.7339717 164.11608,44.4397925 153.398455,44.4404906 L153.398455,44.4404906 Z" id="Path" fill="#FFD452" fill-rule="nonzero"></path>
            <path d="M162.687576,31.1037358 L148.795848,31.1037358 L144.34602,17.9369717 L141.734088,17.9369717 L141.734088,18.0155094 C141.734088,19.3834623 140.619184,20.4966038 139.249064,20.4966038 C137.878596,20.4966038 136.763691,19.3834623 136.763691,18.0155094 L136.763691,17.8434245 C136.763691,16.4754717 137.878596,15.3623302 139.249064,15.3623302 L146.1979,15.3623302 L150.647729,28.5290943 L160.788498,28.5290943 L164.084266,17.9373208 L150.209668,17.9373208 L150.209668,15.3619811 L167.585604,15.3619811 L162.687576,31.1037358 Z" id="Path" fill="#4A555F" fill-rule="nonzero"></path>
            <path d="M160.395887,39.4706226 C158.47723,39.4706226 156.916225,37.9120849 156.916225,35.9961132 C156.916225,34.0804906 158.47723,32.5219528 160.395887,32.5219528 C162.314543,32.5219528 163.875549,34.0804906 163.875549,35.9961132 C163.875549,37.9120849 162.314543,39.4706226 160.395887,39.4706226 Z M160.395887,35.0969434 C159.899441,35.0969434 159.494943,35.5004528 159.494943,35.9964623 C159.494943,36.4924717 159.899092,36.8959811 160.395887,36.8959811 C160.892682,36.8959811 161.29683,36.4924717 161.29683,35.9964623 C161.29683,35.5004528 160.892332,35.0969434 160.395887,35.0969434 Z" id="Shape" fill="#4A555F" fill-rule="nonzero"></path>
            <path d="M150.210018,39.4706226 C148.291361,39.4706226 146.730355,37.9120849 146.730355,35.9961132 C146.730355,34.0804906 148.291361,32.5219528 150.210018,32.5219528 C152.129023,32.5219528 153.690029,34.0804906 153.690029,35.9961132 C153.690379,37.9120849 152.129373,39.4706226 150.210018,39.4706226 Z M150.210018,35.0969434 C149.713572,35.0969434 149.309074,35.5004528 149.309074,35.9964623 C149.309074,36.4924717 149.713223,36.8959811 150.210018,36.8959811 C150.707162,36.8959811 151.111311,36.4924717 151.111311,35.9964623 C151.111311,35.5004528 150.707162,35.0969434 150.210018,35.0969434 Z" id="Shape" fill="#4A555F" fill-rule="nonzero"></path>
            <path d="M131.308037,110.815698 C130.586793,110.815698 129.9089,110.535406 129.39917,110.026481 L123.140812,103.77767 C123.1076,103.744509 123.000969,103.68866 122.944682,103.813623 L121.41549,107.194236 C120.972535,108.172642 120.030338,108.780349 118.956687,108.780349 C117.800529,108.780349 116.802045,108.079094 116.41258,106.993528 L108.129984,83.903783 C107.82932,83.0663962 107.949936,82.1714151 108.460016,81.4478208 C109.150145,80.4697642 110.445797,80.0505472 111.582377,80.4571981 L134.709037,88.7263491 C135.750523,89.0987925 136.452189,90.0524151 136.49659,91.1561321 C136.54099,92.2595 135.918336,93.2665283 134.910412,93.721 L131.523746,95.2477736 C131.507664,95.2547547 131.465711,95.2736038 131.454523,95.3360849 C131.443336,95.398217 131.47585,95.4306792 131.488086,95.4432453 L137.746094,101.691708 C138.256174,102.200632 138.53726,102.877802 138.53726,103.597906 C138.53726,104.318009 138.256174,104.99483 137.746094,105.504104 L133.216904,110.026132 C132.706824,110.535406 132.028932,110.815698 131.308037,110.815698 Z M123.057605,101.167425 C123.776752,101.167425 124.453246,101.447717 124.963676,101.95734 L131.221684,108.205802 C131.267832,108.251877 131.345445,108.252575 131.393342,108.205802 L135.922531,103.683774 C135.962736,103.643283 135.962736,103.552877 135.922531,103.512736 L129.664523,97.2642736 C129.037324,96.6384151 128.758336,95.7448302 128.917408,94.873934 C129.07648,94.0030377 129.654035,93.2658302 130.462332,92.9014151 L133.848299,91.3746415 C133.879414,91.3606792 133.922416,91.3411321 133.91927,91.2598019 C133.915773,91.1781226 133.871373,91.1624151 133.83851,91.1505472 L110.71185,82.8813962 C110.624447,82.8712736 110.588787,82.9012925 110.567811,82.9302642 C110.540891,82.9686604 110.543338,82.9979811 110.556973,83.0356792 L118.839568,106.125425 C118.850756,106.157538 118.868586,106.205708 118.955988,106.205708 C119.032553,106.205708 119.050033,106.166264 119.064367,106.1345 L120.593559,102.753887 C121.029871,101.790142 121.99724,101.167425 123.057605,101.167425 Z" id="Shape" fill="#4A555F" fill-rule="nonzero"></path>
            <path d="M127.091398,99.8329811 C126.013553,98.7564906 124.580854,98.1634434 123.057955,98.1634434 C121.784328,98.1634434 120.57468,98.5885943 119.598221,99.3296415 L115.450105,87.7664434 L127.030217,91.9069528 C126.494266,92.6103019 126.121582,93.4393113 125.957615,94.3342925 C125.620592,96.1759151 126.211082,98.0653585 127.53715,99.3889811 L131.75309,103.597906 L131.307338,104.042953 L127.091398,99.8329811 Z" id="Path" fill="#F58E6F" fill-rule="nonzero"></path>
            <path d="M108.354783,93.8588774 L51.1604375,93.8588774 C47.0749023,93.8588774 43.7515156,90.5407453 43.7515156,86.4623679 L43.7515156,64.6903113 C43.7515156,60.6112358 47.075252,57.2927547 51.1604375,57.2927547 L127.109229,57.2927547 C131.194764,57.2927547 134.51815,60.6112358 134.51815,64.6903113 L134.51815,84.2559811 L131.939082,84.2559811 L131.939082,64.6903113 C131.939082,62.0308491 129.772203,59.8677453 127.108879,59.8677453 L51.1604375,59.8677453 C48.4971133,59.8677453 46.3302344,62.0311981 46.3302344,64.6903113 L46.3302344,86.4623679 C46.3302344,89.1211321 48.4971133,91.2842358 51.1604375,91.2842358 L108.354783,91.2842358 L108.354783,93.8588774 L108.354783,93.8588774 Z" id="Path" fill="#4A555F" fill-rule="nonzero"></path>
            <path d="M128.934539,64.6941509 L128.934539,83.4646698 L112.592748,77.6284434 C111.973939,77.4053962 111.32052,77.2936981 110.6671,77.2936981 C108.818715,77.2936981 107.073814,78.2036887 105.999115,79.722783 C104.933156,81.2335 104.675145,83.1732075 105.294303,84.9156981 L106.497658,88.2802547 L51.1621855,88.2802547 C50.1563594,88.2802547 49.3396719,87.4648585 49.3396719,86.4606226 L49.3396719,64.6941509 C49.3396719,63.689566 50.1563594,62.8745189 51.1621855,62.8745189 L127.112025,62.8745189 C128.117852,62.8745189 128.934539,63.6899151 128.934539,64.6941509 Z" id="Path" fill="#71CCE0" fill-rule="nonzero"></path>
            <path d="M65.8108184,76.8636604 L57.6726113,76.8636604 L57.6726113,64.5538302 L65.8108184,64.5538302 C69.2100703,64.5538302 71.9751309,67.3148679 71.9751309,70.7087453 C71.9751309,74.1026226 69.2100703,76.8636604 65.8108184,76.8636604 Z M60.2516797,74.2886698 L65.8108184,74.2886698 C67.7878594,74.2886698 69.3964121,72.6826604 69.3964121,70.7087453 C69.3964121,68.7344811 67.7878594,67.1288208 65.8108184,67.1288208 L60.2516797,67.1288208 L60.2516797,74.2886698 Z" id="Shape" fill="#4A555F" fill-rule="nonzero"></path>
            <path d="M65.8108184,86.5985 L57.6726113,86.5985 L57.6726113,74.2886698 L65.8108184,74.2886698 C69.2100703,74.2886698 71.9751309,77.0497075 71.9751309,80.4435849 C71.9754805,83.8374623 69.2100703,86.5985 65.8108184,86.5985 Z M60.2516797,84.0235094 L65.8108184,84.0235094 C67.7878594,84.0235094 69.3964121,82.4175 69.3964121,80.4435849 C69.3964121,78.4696698 67.7878594,76.8636604 65.8108184,76.8636604 L60.2516797,76.8636604 L60.2516797,84.0235094 Z" id="Shape" fill="#4A555F" fill-rule="nonzero"></path>
            <path d="M89.1346582,86.5985 C84.7239863,86.5985 81.1359453,83.015783 81.1359453,78.612434 L81.1359453,65.8411509 L83.7150137,65.8411509 L83.7150137,78.612434 C83.7150137,81.5961698 86.1461973,84.0235094 89.1350078,84.0235094 C92.1234688,84.0235094 94.5546523,81.5958208 94.5546523,78.612434 L94.5546523,65.8411509 L97.1337207,65.8411509 L97.1337207,78.612434 C97.1337207,83.015783 93.5456797,86.5985 89.1346582,86.5985 Z" id="Path" fill="#4A555F" fill-rule="nonzero"></path>
            <polygon id="Path" fill="#4A555F" fill-rule="nonzero" points="114.307582 77.7342075 106.18301 66.5993019 108.267381 65.083 114.307582 73.3615755 120.348133 65.083 122.432854 66.5993019"></polygon>
            <rect id="Rectangle" fill="#4A555F" fill-rule="nonzero" x="113.018223" y="75.547717" width="2.57906836" height="3.19980189"></rect>
            <path d="M39.5191445,67.9306038 L36.9400762,67.9306038 L36.9400762,65.3556132 L39.5191445,65.3556132 L39.5191445,67.9306038 Z M39.6806641,62.9963396 L37.134459,62.5855 C37.2844414,61.6608491 37.5218262,60.7456226 37.8403203,59.8653019 L40.2655605,60.7403868 C40.0019551,61.4706132 39.8044258,62.2294623 39.6806641,62.9963396 Z M41.2608984,58.6317358 L39.0405293,57.3224245 C39.515998,56.5178491 40.0704785,55.7523679 40.6885879,55.0465755 L42.6303184,56.7408962 C42.1167422,57.3276604 41.6563066,57.9636415 41.2608984,58.6317358 Z M44.3238262,55.1341887 L42.7271602,53.1121038 C43.4641367,52.5319717 44.2587988,52.0181604 45.0877227,51.5846321 L46.2840859,53.865717 C45.5957051,54.2255943 44.9363418,54.6524906 44.3238262,55.1341887 Z M48.4439727,52.9819057 L47.6933613,50.5186132 C48.5901094,50.2463491 49.517623,50.0564623 50.4507305,49.9548868 L50.730418,52.5145189 C49.9567324,52.5986415 49.1875918,52.756066 48.4439727,52.9819057 Z M86.6919375,52.4387736 L84.1128691,52.4387736 L84.1128691,49.863783 L86.6919375,49.863783 L86.6919375,52.4387736 Z M81.5341504,52.4387736 L78.955082,52.4387736 L78.955082,49.863783 L81.5341504,49.863783 L81.5341504,52.4387736 Z M76.3760137,52.4387736 L73.7969453,52.4387736 L73.7969453,49.863783 L76.3760137,49.863783 L76.3760137,52.4387736 Z M71.2182266,52.4387736 L68.6391582,52.4387736 L68.6391582,49.863783 L71.2182266,49.863783 L71.2182266,52.4387736 Z M66.0604395,52.4387736 L63.4813711,52.4387736 L63.4813711,49.863783 L66.0604395,49.863783 L66.0604395,52.4387736 Z M60.9023027,52.4387736 L58.3232344,52.4387736 L58.3232344,49.863783 L60.9023027,49.863783 L60.9023027,52.4387736 Z M55.7445156,52.4387736 L53.1654473,52.4387736 L53.1654473,49.863783 L55.7445156,49.863783 L55.7445156,52.4387736 Z" id="Shape" fill="#4A555F" fill-rule="nonzero"></path>
            <path d="M107.046545,100.741575 L104.467477,100.741575 L104.467477,98.1665849 L107.046545,98.1665849 L107.046545,100.741575 Z M101.888408,100.741575 L99.3093398,100.741575 L99.3093398,98.1665849 L101.888408,98.1665849 L101.888408,100.741575 Z M96.7306211,100.741575 L94.1515527,100.741575 L94.1515527,98.1665849 L96.7306211,98.1665849 L96.7306211,100.741575 Z M91.572834,100.741575 L88.9937656,100.741575 L88.9937656,98.1665849 L91.572834,98.1665849 L91.572834,100.741575 Z M86.4146973,100.741575 L83.8356289,100.741575 L83.8356289,98.1665849 L86.4146973,98.1665849 L86.4146973,100.741575 Z M81.2569102,100.741575 L78.6778418,100.741575 L78.6778418,98.1665849 L81.2569102,98.1665849 L81.2569102,100.741575 Z" id="Shape" fill="#4A555F" fill-rule="nonzero"></path>
        </g>
    </g>
</svg>