<?xml version="1.0" encoding="UTF-8"?>
<svg width="200px" height="200px" viewBox="0 0 200 200" version="1.1" xmlns="http://www.w3.org/2000/svg" xmlns:xlink="http://www.w3.org/1999/xlink">
    <!-- Generator: Sketch 53.2 (72643) - https://sketchapp.com -->
    <title>3.1-everywhere-application</title>
    <desc>Created with Sketch.</desc>
    <g id="3.1-everywhere-application" stroke="none" stroke-width="1" fill="none" fill-rule="evenodd">
        <g id="GIFTCARD-Copy-2" transform="translate(33.000000, 22.000000)" fill-rule="nonzero">
            <path d="M122.563067,6.94031351 L11.7889515,6.94031351 C9.0018855,6.94031351 6.72948,9.2139373 6.72948,12.0018259 L6.72948,75.2304649 C6.72948,78.0186551 9.002187,80.2922789 11.7889515,80.2922789 L63.2911815,80.2922789 L63.298719,71.9813968 C63.298719,66.6662205 67.605948,62.3650962 72.918981,62.3650962 C75.5754975,62.3650962 77.970915,63.4482195 79.7138865,65.1915924 C81.449019,66.9274249 82.5238665,69.3391914 82.5238665,71.9892389 L82.516329,80.2922789 L122.563368,80.2922789 C125.350434,80.2922789 127.62284,78.0186551 127.62284,75.2304649 L127.62284,12.0018259 C127.62284,9.21363568 125.350133,6.94031351 122.563067,6.94031351 Z M86.3933175,21.8102595 L61.9398585,21.8102595 L61.9398585,13.9451741 L86.3933175,13.9451741 L86.3933175,21.8102595 Z M109.9872,75.5682811 L104.290357,75.5682811 L104.290357,53.7933114 L109.9872,53.7933114 L109.9872,75.5682811 Z M120.083229,21.8102595 L93.180384,21.8102595 L93.180384,13.9451741 L120.083229,13.9451741 L120.083229,21.8102595 Z" id="Shape" fill="#71CCE0"></path>
            <path d="M86.802453,84.1482097 L86.802453,86.7668886 C86.802453,89.9242638 88.09227,91.8769622 89.623287,93.0900843 L89.623287,84.1482097 L86.802453,84.1482097 Z" id="Path" fill="#DFDFDF"></path>
            <path d="M93.9235815,82.9960151 L82.503063,82.9960151 L81.351333,84.1482097 L81.351333,86.7635708 C81.351333,99.0097103 93.681477,100.414664 93.8065995,100.427332 L95.0753115,99.2811697 L95.0753115,84.1479081 L93.9235815,82.9960151 Z M92.7718515,97.9078865 C89.9908155,97.2597016 83.6544915,94.8901622 83.6544915,86.7635708 L83.6544915,85.3001027 L92.7718515,85.3001027 L92.7718515,97.9078865 Z" id="Shape" fill="#4A555F"></path>
            <path d="M89.037171,111.249516 L83.655999,102.459658 L83.6755965,71.9958746 C83.677707,69.1193092 82.5600465,66.4137632 80.5273335,64.3784205 C78.495525,62.3424746 75.7931805,61.2204422 72.917172,61.2186324 L72.910539,61.2186324 C66.977622,61.2186324 62.1490995,66.0457849 62.144577,71.982 L62.137944,82.9815373 L43.938198,82.9697741 L35.612577,98.0203914 C33.064902,102.626455 32.9590755,108.181722 35.3318805,112.886718 L52.083522,145.705262 L52.083522,154.43027 L54.386982,154.43027 L54.386982,145.151484 L37.386,111.844012 C35.359317,107.825507 35.449767,103.074966 37.6281045,99.1360897 L45.2952495,85.2750681 L62.1364365,85.2859265 L62.1267885,99.935387 L55.002042,108.381999 L56.7625005,109.868089 L64.4302485,100.778721 L64.4483385,71.9838097 C64.4513535,67.3174216 68.24754,63.5233232 72.911142,63.5233232 L72.9162675,63.5233232 C75.1769145,63.5248314 77.300982,64.4070746 78.8986305,66.0068757 C80.495676,67.60728 81.374247,69.7337124 81.373041,71.9946681 L81.3534435,103.108748 L87.0735015,112.452684 C88.901496,115.438738 89.8647885,118.86697 89.859663,122.366987 L89.856648,124.608941 C89.853633,126.701591 89.508114,128.764683 88.82793,130.74121 L83.846547,145.23624 L83.846547,154.43027 L86.150007,154.43027 L86.150007,145.620808 L91.0062675,131.490438 C91.768761,129.273519 92.157093,126.959176 92.160108,124.611957 L92.163123,122.370003 C92.1676455,118.444398 91.0870695,114.598722 89.037171,111.249516 Z" id="Path" fill="#4A555F"></path>
            <path d="M80.528841,64.3793254 C78.4885905,62.3385535 75.7865475,61.215013 72.920187,61.215013 C66.9803355,61.215013 62.148195,66.0457849 62.148195,71.9823016 L62.1406575,84.1349384 L64.4441175,84.1349384 L64.451655,71.9835081 C64.451655,67.3159135 68.2508565,63.5191005 72.9204885,63.5191005 C75.1720905,63.5191005 77.295555,64.4031535 78.900741,66.0083838 C80.4953745,67.6042638 81.373644,69.7285849 81.373644,71.9901438 L81.3661065,84.1349384 L83.6695665,84.1349384 L83.677104,71.9913503 C83.6761995,69.1135784 82.5582375,66.4101438 80.528841,64.3793254 Z" id="Path" fill="#4A555F"></path>
            <polygon id="Path" fill="#4A555F" points="43.915887 82.9667578 43.586649 83.6098151 44.619588 84.1292076 44.618382 85.2717503 63.291483 85.287133 63.292689 82.9830454"></polygon>
            <path d="M83.7588105,113.068897 L78.2051805,103.994611 L78.222366,71.9910486 C78.222366,69.0574768 75.8402145,66.6743643 72.9162675,66.6743643 C69.9838785,66.6743643 67.601727,69.0574768 67.5929835,71.9826032 L67.575798,101.930011 L59.165154,111.901018 L52.595469,106.351784 L58.976415,98.7807795 L58.9851585,88.4312368 L47.152188,88.4227914 L40.3844175,100.66501 C39.5329815,102.204788 39.077415,103.951479 39.077415,105.715061 C39.077415,107.341103 39.464541,108.97559 40.195377,110.429406 L49.0272165,127.927985 L57.809007,144.527731 L57.809007,154.43027 L80.7836085,154.43027 L80.7836085,143.688619 L85.5503235,130.296921 C86.318244,128.139723 86.7117015,125.866703 86.713812,123.576791 C86.716827,119.868354 85.6944405,116.2314 83.7588105,113.068897 Z" id="Path" fill="#DFDFDF"></path>
            <rect id="Rectangle" fill="#FFD452" x="94.216941" y="60.0836303" width="10.073115" height="15.4843492"></rect>
            <rect id="Rectangle" fill="#FFD452" x="109.9872" y="60.0836303" width="10.073115" height="15.4843492"></rect>
            <rect id="Rectangle" fill="#FFD452" x="93.050136" y="53.7930097" width="11.2402215" height="6.29062054"></rect>
            <rect id="Rectangle" fill="#FFD452" x="109.9872" y="53.7930097" width="11.2323825" height="6.29062054"></rect>
            <path d="M122.563368,1.95028541 L11.7895545,1.95028541 C6.2479845,1.95028541 1.739655,6.46043351 1.739655,12.0042389 L1.739655,75.2325762 C1.739655,80.7766832 6.2479845,85.2868314 11.7895545,85.2868314 L64.443816,85.2868314 L64.4513535,71.9835081 C64.4513535,67.3159135 68.250555,63.5191005 72.920187,63.5191005 C75.171789,63.5191005 77.2952535,64.4031535 78.9004395,66.0083838 C80.495073,67.6039622 81.3733425,69.7282832 81.3733425,71.9901438 L81.365805,85.2868314 L122.563971,85.2868314 C128.106446,85.2868314 132.614775,80.7766832 132.614775,75.2325762 L132.614775,12.0042389 C132.614172,6.46043351 128.105843,1.95028541 122.563368,1.95028541 Z M130.311014,75.2325762 C130.311014,79.506253 126.835925,82.9827438 122.56367,82.9827438 L83.668662,82.9827438 L83.6761995,71.9913503 C83.6761995,69.1129751 82.5582375,66.4095405 80.5285395,64.3793254 C78.488289,62.3385535 75.786246,61.215013 72.9198855,61.215013 C66.980034,61.215013 62.1478935,66.0457849 62.1478935,71.9823016 L62.140356,82.9827438 L11.7895545,82.9827438 C7.518204,82.9827438 4.0428135,79.506253 4.0428135,75.2325762 L4.0428135,12.0042389 C4.0428135,7.73116541 7.5179025,4.25437297 11.7895545,4.25437297 L122.56367,4.25437297 C126.835925,4.25437297 130.311014,7.73086378 130.311014,12.0042389 L130.311014,75.2325762 Z" id="Shape" fill="#4A555F"></path>
            <rect id="Rectangle" fill="#4A555F" x="39.498912" y="42.4671178" width="94.3492995" height="2.30438919"></rect>
            <rect id="Rectangle" fill="#4A555F" x="0.017487" y="42.4671178" width="31.2923835" height="2.30438919"></rect>
            <rect id="Rectangle" fill="#4A555F" x="34.32879" y="43.6193124" width="2.30346" height="43.5369697"></rect>
            <rect id="Rectangle" fill="#4A555F" x="34.32879" y="0" width="2.30346" height="43.6193124"></rect>
            <path d="M58.6227555,31.4150984 C57.0754575,29.5486638 54.7973235,28.4782086 52.371756,28.4782086 C50.249799,28.4782086 48.2427135,29.2934919 46.70838,30.7847092 L32.6955645,44.7718086 L52.2219105,44.7699989 L52.377786,44.771507 C56.851443,44.7712054 60.4908495,41.1291243 60.4908495,36.5978627 C60.4908495,34.7091081 59.827248,32.868613 58.6227555,31.4150984 Z M52.3774845,42.4671178 L52.2436185,42.466213 L38.2654755,42.4671178 L48.32442,32.4264357 C49.415247,31.3662357 50.852799,30.7822962 52.371756,30.7822962 C54.1093005,30.7822962 55.7416215,31.5490184 56.8493325,32.886107 C57.7122255,33.9267016 58.1873895,35.2450897 58.1873895,36.6521546 C58.187691,39.8583924 55.5812235,42.4671178 52.3774845,42.4671178 Z" id="Shape" fill="#4A555F"></path>
            <path d="M24.2415045,30.7741524 C22.718025,29.2934919 20.7109395,28.4782086 18.5889825,28.4782086 C16.1637165,28.4782086 13.8855825,29.5483622 12.338586,31.4150984 C11.133792,32.868613 10.4701905,34.7094097 10.4701905,36.6521546 C10.4701905,41.1288227 14.109597,44.7712054 18.5835555,44.7712054 L18.7174215,44.7703005 L38.2660785,44.7718086 L24.2415045,30.7741524 Z M18.695412,42.4665146 L18.583254,42.4671178 C15.379515,42.4671178 12.773349,39.8586941 12.773349,36.5978627 C12.773349,35.245693 13.2488145,33.9273049 14.1117075,32.886107 C15.2194185,31.5490184 16.8517395,30.7822962 18.5889825,30.7822962 C20.1079395,30.7822962 21.5454915,31.3662357 22.6254645,32.4161805 L32.695866,42.4671178 L18.695412,42.4665146 Z" id="Shape" fill="#4A555F"></path>
            <path d="M34.5099915,42.9991784 C34.4551185,43.0851405 28.8713385,51.5812184 15.120225,51.5812184 L15.120225,53.8856076 C30.1195485,53.8856076 36.1995975,44.6336659 36.4510485,44.2400497 L34.5099915,42.9991784 Z" id="Path" fill="#4A555F"></path>
            <path d="M36.4492395,42.9964638 L35.48052,43.6193124 L34.5099915,44.2397481 C34.7614425,44.6336659 40.8414915,53.8853059 55.8405135,53.8853059 L55.8405135,51.5809168 C42.159348,51.5812184 36.6759675,43.3466465 36.4492395,42.9964638 Z" id="Path" fill="#4A555F"></path>
            <path d="M93.062799,58.9281178 L93.062799,76.7189676 L121.211743,76.7189676 L121.211743,58.9281178 L93.062799,58.9281178 Z M118.908283,74.4145784 L95.3659575,74.4145784 L95.3659575,61.2322054 L118.908283,61.2322054 L118.908283,74.4145784 Z" id="Shape" fill="#4A555F"></path>
            <path d="M116.497188,48.9314724 C114.992401,47.6254508 112.691957,47.6082584 111.170889,48.8883405 L103.979812,54.9418865 L114.545579,54.9418865 C116.264731,54.9418865 117.663993,53.4274443 117.663993,51.5658357 C117.663692,50.5345914 117.238577,49.5745297 116.497188,48.9314724 Z M114.545277,52.6377989 L110.294127,52.6377989 L112.653666,50.6519222 C113.345609,50.0694908 114.301062,50.0770314 114.988482,50.6724324 C115.220939,50.8745189 115.360232,51.2084141 115.360232,51.5658357 C115.360533,52.1467589 114.986975,52.6377989 114.545277,52.6377989 Z" id="Shape" fill="#4A555F"></path>
            <path d="M103.103654,48.8883405 C101.581682,47.6088616 99.282141,47.6260541 97.7773545,48.9314724 C97.035966,49.5745297 96.6105495,50.5345914 96.6105495,51.5658357 C96.6105495,53.4274443 98.0095095,54.9418865 99.728964,54.9418865 L110.294127,54.9418865 L103.103654,48.8883405 Z M98.9140095,51.5658357 C98.9140095,51.2084141 99.053604,50.8745189 99.285759,50.6724324 C99.63369,50.3708108 100.041619,50.2118562 100.465227,50.2118562 C100.879186,50.2118562 101.278674,50.3635719 101.620575,50.6513189 L103.979511,52.6374974 L99.728964,52.6374973 C99.2872665,52.6377989 98.9140095,52.1467589 98.9140095,51.5658357 Z" id="Shape" fill="#4A555F"></path>
            <path d="M60.7857165,12.7950908 L60.7857165,22.9618508 L87.5438415,22.9618508 L87.5438415,12.7950908 L60.7857165,12.7950908 Z M85.2403815,20.6574616 L63.088875,20.6574616 L63.088875,15.09948 L85.2403815,15.09948 L85.2403815,20.6574616 Z" id="Shape" fill="#4A555F"></path>
            <path d="M92.0259405,12.7950908 L92.0259405,22.9618508 L121.235863,22.9618508 L121.235863,12.7950908 L92.0259405,12.7950908 Z M118.932403,20.6574616 L94.329099,20.6574616 L94.329099,15.09948 L118.932403,15.09948 L118.932403,20.6574616 Z" id="Shape" fill="#4A555F"></path>
            <path d="M91.8999135,52.6377989 L91.8999135,61.232507 L122.374629,61.232507 L122.374629,52.6377989 L91.8999135,52.6377989 Z M120.071169,58.9281178 L94.203072,58.9281178 L94.203072,54.9418865 L120.071169,54.9418865 L120.071169,58.9281178 Z" id="Shape" fill="#4A555F"></path>
            <path d="M103.138929,52.6377989 L103.138929,76.7189676 L111.135312,76.7189676 L111.135312,52.6377989 L103.138929,52.6377989 Z M108.832154,74.4145784 L105.442389,74.4145784 L105.442389,54.9415849 L108.832154,54.9415849 L108.832154,74.4145784 Z" id="Shape" fill="#4A555F"></path>
        </g>
    </g>
</svg>