<?xml version="1.0" encoding="UTF-8"?>
<svg width="200px" height="200px" viewBox="0 0 200 200" version="1.1" xmlns="http://www.w3.org/2000/svg" xmlns:xlink="http://www.w3.org/1999/xlink">
    <!-- Generator: Sketch 53.2 (72643) - https://sketchapp.com -->
    <title>4.9-home-integrate-ruby-on-rails</title>
    <desc>Created with Sketch.</desc>
    <defs>
        <path d="M51.5363357,0.0119090543 C51.1881974,0.0754280761 50.8558846,0.226286261 50.5868676,0.456542207 L31.9772931,7.31659655 C31.7241016,7.39599635 31.4867356,7.52303439 31.2810165,7.69771068 L12.9246335,24.9113656 C12.7743006,25.0384036 12.6477049,25.1892618 12.5448463,25.3559987 L0.51825057,46.0631998 C0.44704097,46.1664177 0.383743098,46.2696377 0.328356953,46.3807949 L0.265059081,46.507833 C0.241321872,46.5316531 0.225498417,46.5475318 0.201761209,46.571352 C0.201761209,46.6110509 0.201761209,46.6586912 0.201761209,46.69839 C0.178024,46.7380889 0.154288817,46.7857292 0.138463336,46.8254281 C0.114726128,46.8492482 0.0989026723,46.865127 0.0751654638,46.8889471 C0.0751654638,46.9127672 0.0751654638,46.928646 0.0751654638,46.9524661 C0.0514282553,46.992165 0.0276930723,47.0398053 0.0118675915,47.0795042 C0.0118675915,47.1033243 0.0118675915,47.119203 0.0118675915,47.1430232 C0.0118675915,47.1827221 0.0118675915,47.2303623 0.0118675915,47.2700612 C0.0118675915,47.2938814 0.0118675915,47.3097601 0.0118675915,47.3335803 C0.0118675915,47.3732791 0.0118675915,47.4209194 0.0118675915,47.4606183 C0.0118675915,47.4844384 0.0118675915,47.5003172 0.0118675915,47.5241373 C-0.00395586383,47.6511754 -0.00395586383,47.7782134 0.0118675915,47.9052514 L0.0118675915,73.0587841 C0.00395586383,73.1461232 0.00395586383,73.225521 0.0118675915,73.3128601 L0.0118675915,73.3763792 C0.00395586383,73.5669362 0.0276930723,73.7654327 0.0751654638,73.9480504 C0.486601634,82.8010145 4.08666863,87.9857542 8.43048461,90.526515 C12.5606718,92.9481772 16.9915229,93.1784352 19.7608038,93.257833 C19.9744346,93.2657723 20.2671867,93.2498936 20.4570804,93.257833 L20.646974,93.257833 C20.7577463,93.2419542 20.8606048,93.2260735 20.9634633,93.1943139 L21.0267612,93.1943139 L85.9070804,88.7479824 C86.0574133,88.7638632 86.1998325,88.7638632 86.3501655,88.7479824 C86.571708,88.7162229 86.7853388,88.6527039 86.9831442,88.5574254 C87.1176517,88.485967 87.2442474,88.3986278 87.3629314,88.3033493 C87.3866686,88.3033493 87.4024921,88.3033493 87.4262293,88.3033493 C88.0433846,87.8269566 88.3440484,87.0409082 88.1858038,86.2707406 L92.9964421,22.7517188 C93.0043538,22.71202 92.9885303,22.6643797 92.9964421,22.6246808 L93.1863357,20.210958 C93.2179846,19.9330617 93.2021612,19.6551675 93.1230378,19.3852107 C93.1230378,17.3208425 92.9331442,15.272355 92.4267612,13.2873846 C90.8680516,7.20543928 86.1760973,1.95717859 77.4251655,0.393023185 C77.2985697,0.361263674 77.171974,0.337443533 77.0453782,0.329504163 C77.0058176,0.329504163 76.9583431,0.329504163 76.9187825,0.329504163 L52.1693144,0.0119090543 C52.0189814,-0.00396968478 51.8765622,-0.00396968478 51.7262293,0.0119090543 C51.6629314,0.0119090543 51.5996335,0.0119090543 51.5363357,0.0119090543 Z M58.6889953,4.14064547 L69.2597399,4.26768351 L63.4363357,7.50715362 L58.6889953,4.14064547 Z M51.852825,4.33120253 L61.0943144,10.8736618 L54.5113357,31.898458 L29.6352718,55.1464199 L9.31665483,59.7197895 L4.31612291,47.6511754 L15.8996335,27.6426835 L33.7496335,11.0006998 L51.852825,4.33120253 Z M77.171974,4.5217596 C84.3088101,5.94299822 87.2838101,9.57152183 88.5022931,14.3036889 C89.5229708,18.2815672 88.9137293,23.0454938 87.8060165,27.4521264 L66.8544208,10.2384716 L77.171974,4.5217596 Z M64.5123995,13.5414607 L83.628357,29.2941781 L59.0687825,30.9456726 L64.5123995,13.5414607 Z M86.0336761,33.1688384 C81.8006304,44.6499026 74.4264283,54.4080118 66.0315484,63.5944498 L58.815591,34.947371 L86.0336761,33.1688384 Z M55.1443144,36.8529417 L62.1703782,64.9918683 L34.5725059,56.0356862 L55.1443144,36.8529417 Z M87.552825,40.4735259 L84.3879314,82.3960802 L67.9937825,67.7231862 C75.6370016,59.5133537 82.7026261,50.692149 87.552825,40.4735259 Z M4.06293142,57.7506998 L5.89856972,62.0064743 L4.06293142,65.3729824 L4.06293142,57.7506998 Z M32.1038889,59.5292324 L60.9044208,68.8030096 C50.1675197,78.4975998 38.3308176,86.1516419 23.4320804,88.4303873 L32.1038889,59.5292324 Z M27.7996335,59.7197895 L20.140591,85.2544362 L10.8991016,63.5309308 L27.7996335,59.7197895 Z M7.86080376,66.7704009 L17.2921867,88.9385395 C15.0609378,88.7162229 12.6397931,88.2477696 10.4560165,86.9694498 C7.20408783,85.0638792 4.45854414,81.5544542 4.12622929,73.6304552 L7.86080376,66.7704009 Z M65.0187825,70.5815422 L81.2863357,85.0638792 L40.5225059,87.7951971 C49.7165229,83.5711822 57.6683176,77.3701382 65.0187825,70.5815422 Z" id="path-1"></path>
        <filter x="-12.9%" y="-9.6%" width="125.7%" height="125.7%" filterUnits="objectBoundingBox" id="filter-2">
            <feOffset dx="0" dy="3" in="SourceAlpha" result="shadowOffsetOuter1"></feOffset>
            <feGaussianBlur stdDeviation="3.5" in="shadowOffsetOuter1" result="shadowBlurOuter1"></feGaussianBlur>
            <feColorMatrix values="0 0 0 0 0   0 0 0 0 0   0 0 0 0 0  0 0 0 0.5 0" type="matrix" in="shadowBlurOuter1"></feColorMatrix>
        </filter>
    </defs>
    <g id="4.9-home-integrate-ruby-on-rails" stroke="none" stroke-width="1" fill="none" fill-rule="evenodd">
        <g id="Group-14" transform="translate(6.000000, 6.000000)">
            <circle id="Oval-Copy-15" fill="#A22716" cx="93.5" cy="93.5" r="93.5"></circle>
            <g id="icons8-ruby-programming-language-copy" transform="translate(45.900000, 45.900000)" fill-rule="nonzero">
                <g id="Shape">
                    <use fill="black" fill-opacity="1" filter="url(#filter-2)" xlink:href="#path-1"></use>
                    <use fill="#FFFFFF" xlink:href="#path-1"></use>
                </g>
            </g>
        </g>
    </g>
</svg>