<?xml version="1.0" encoding="UTF-8"?>
<svg width="200px" height="200px" viewBox="0 0 200 200" version="1.1" xmlns="http://www.w3.org/2000/svg" xmlns:xlink="http://www.w3.org/1999/xlink">
    <!-- Generator: Sketch 53.2 (72643) - https://sketchapp.com -->
    <title>4.5-home-integrate-node-js</title>
    <desc>Created with Sketch.</desc>
    <defs>
        <filter x="-20.3%" y="-18.4%" width="141.0%" height="136.9%" filterUnits="objectBoundingBox" id="filter-1">
            <feOffset dx="0" dy="3" in="SourceAlpha" result="shadowOffsetOuter1"></feOffset>
            <feGaussianBlur stdDeviation="3.5" in="shadowOffsetOuter1" result="shadowBlurOuter1"></feGaussianBlur>
            <feColorMatrix values="0 0 0 0 0   0 0 0 0 0   0 0 0 0 0  0 0 0 0.5 0" type="matrix" in="shadowBlurOuter1" result="shadowMatrixOuter1"></feColorMatrix>
            <feMerge>
                <feMergeNode in="shadowMatrixOuter1"></feMergeNode>
                <feMergeNode in="SourceGraphic"></feMergeNode>
            </feMerge>
        </filter>
    </defs>
    <g id="4.5-home-integrate-node-js" stroke="none" stroke-width="1" fill="none" fill-rule="evenodd">
        <g id="Group-7" transform="translate(6.000000, 6.000000)">
            <circle id="Oval-Copy-10" fill="#8CC84B" cx="93.5" cy="93.5" r="93.5"></circle>
            <g id="nodejs-icon-copy" filter="url(#filter-1)" transform="translate(45.900000, 40.800000)" fill="#FFFFFF" fill-rule="nonzero">
                <path d="M44.8513,1.16074275 C47.5454539,-0.383424831 51.0545873,-0.390399741 53.7464193,1.16074275 C67.2887798,8.82306893 80.8353972,16.4733828 94.3754358,24.1403589 C96.9221504,25.5768028 98.6256357,28.4148162 98.5997081,31.3531908 L98.5997081,77.4526963 C98.6186701,80.5127443 96.7468485,83.4185693 94.0600472,84.8224637 C80.5621894,92.4425529 67.0712971,100.071942 53.5757612,107.692031 C50.8258822,109.266423 47.2463184,109.145138 44.582349,107.441709 C40.5357005,105.092715 36.4820864,102.755345 32.4350509,100.408675 C31.6080749,99.9150066 30.6758404,99.5220866 30.0918878,98.719197 C30.6081189,98.022481 31.5310659,97.9356821 32.2810329,97.6314985 C33.9702,97.0936555 35.5216023,96.2303166 37.0733916,95.3925524 C37.4657892,95.1236309 37.9448703,95.2267045 38.3210147,95.4673389 C41.7813887,97.4540258 45.2111913,99.4984494 48.6831747,101.466149 C49.4238541,101.894331 50.1738211,101.325876 50.8069202,100.97248 C64.0524672,93.4763896 77.3142673,86.0085859 90.5574924,78.5101701 C91.0481829,78.2737982 91.3194558,77.7522299 91.2795969,77.2139994 C91.2888844,62.006758 91.2819188,46.7968042 91.2842406,31.5895628 C91.3403527,30.9788707 90.9874271,30.4173904 90.4359808,30.1674561 C76.9849475,22.5822415 63.5408798,14.9854019 50.0921684,7.3982498 C49.6152284,7.06992258 48.9857718,7.06899884 48.5078728,7.39592483 C35.0591614,14.9854019 21.6174156,22.5892164 8.16870417,30.1740436 C7.61919275,30.4243653 7.25040094,30.9765457 7.31580053,31.5895628 C7.31812241,46.7968042 7.31580053,62.006758 7.31580053,77.2163243 C7.26803821,77.7541904 7.55989624,78.2649261 8.04719249,78.4962203 C11.6360438,80.5340565 15.2295389,82.5575554 18.8207121,84.5884167 C20.8438428,85.6788277 23.3278666,86.3267193 25.5568707,85.4912801 C27.5238893,84.7848767 28.9026986,82.7749401 28.8651616,80.6836296 C28.8837366,65.5651246 28.8558741,50.4442946 28.8790928,35.3281146 C28.8299464,34.6569732 29.4657543,34.1024679 30.1174284,34.1656296 C31.8418107,34.1540047 33.5685149,34.1423799 35.2928972,34.1702795 C36.0126798,34.1540047 36.508014,34.8766829 36.4190086,35.5528617 C36.412043,50.767078 36.4375837,65.9816817 36.4073992,81.195898 C36.412043,85.2506457 34.7484165,89.6626638 31.0028384,91.6466382 C26.3884904,94.0401948 20.6851811,93.5325764 16.1265582,91.2374435 C12.1801375,89.2650939 8.41404941,86.9374114 4.53767205,84.8244012 C1.84390517,83.4282567 -0.0186289399,80.5108068 0.00033307371,77.4530838 L0.00033307371,31.3531908 C-0.0279164568,28.3539795 1.74329041,25.4644293 4.36933581,24.0489101 C17.8648718,16.4226209 31.3580859,8.79051935 44.8513,1.16074275 Z" id="Path"></path>
                <path d="M57.3479213,32.4503795 C63.3194298,32.0707282 69.7122024,32.2254584 75.0857748,35.1312065 C79.2462005,37.3579256 81.5527496,42.0312435 81.6261666,46.5967543 C81.5099557,47.2125728 80.8582329,47.5522813 80.2630451,47.5100116 C78.5304832,47.5076849 76.7975287,47.5332793 75.0649668,47.4983778 C74.3300119,47.526299 73.9028586,46.8569648 73.8105967,46.215164 C73.3127746,44.0307146 72.1066948,41.8672062 70.0251079,40.8135671 C66.8297031,39.2333023 63.1246981,39.3128003 59.6403367,39.3457629 C57.0966547,39.4791644 54.3613819,39.6967174 52.206378,41.1742165 C50.5519443,42.2933929 50.049411,44.5526867 50.6398876,46.372221 C51.1966002,47.6787025 52.7234376,48.1002357 53.9727039,48.4888063 C61.1691371,50.3478956 68.7950792,50.1629174 75.854101,52.6095163 C78.776646,53.6069251 81.6355891,55.5459002 82.6359443,58.5683747 C83.9444938,62.6192815 83.3708992,67.4612902 80.4530655,70.7133394 C78.0868406,73.3895128 74.6405617,74.846071 71.2033128,75.6371728 C66.6306528,76.6442765 61.885247,76.669871 57.2415256,76.2227433 C52.8749828,75.7310192 48.3309829,74.5978822 44.960084,71.6591714 C42.0775847,69.1869781 40.6697064,65.3350101 40.8094735,61.6172192 C40.8428448,60.989379 41.4757226,60.5515584 42.0846516,60.6031352 C43.8293842,60.5891746 45.5741169,60.584521 47.3188495,60.6054619 C48.0157218,60.556212 48.5323888,61.1510895 48.5681158,61.7998706 C48.8900511,63.8811665 49.6819336,66.0656159 51.5193208,67.2995797 C55.0653211,69.5592614 59.5147034,69.4045311 63.575015,69.4677417 C66.938847,69.3203796 70.7149133,69.2757832 73.4600012,67.0796999 C74.9083177,65.827122 75.337434,63.7314777 74.9460077,61.9286186 C74.5219953,60.4065231 72.9099628,59.697246 71.5256408,59.2334431 C64.4214695,57.0137044 56.7103323,57.8191547 49.6748667,55.3089574 C46.8186719,54.3119364 44.056702,52.4268648 42.9593735,49.5284848 C41.4282175,45.4263889 42.1298011,40.3524788 45.3534734,37.2101757 C48.4966618,34.0845478 53.0339874,32.880832 57.3479213,32.4499917 L57.3479213,32.4503795 Z" id="Path"></path>
            </g>
        </g>
    </g>
</svg>