<?xml version="1.0" encoding="UTF-8"?>
<svg width="200px" height="200px" viewBox="0 0 200 200" version="1.1" xmlns="http://www.w3.org/2000/svg" xmlns:xlink="http://www.w3.org/1999/xlink">
    <!-- Generator: Sketch 53.2 (72643) - https://sketchapp.com -->
    <title>4.8-home-integrate-php</title>
    <desc>Created with Sketch.</desc>
    <defs>
        <path d="M39.1,117.631707 L47.2464078,75.2146341 L66.0833787,75.2146341 C74.2292058,75.7384713 78.3024096,79.9273768 78.3024096,87.2593053 C78.3024096,99.8272164 68.6292763,107.158548 59.9735729,106.63471 L50.810316,106.63471 L48.773714,117.631707 L39.1,117.631707 Z M52.8463372,98.7801394 L52.8469179,98.7801394 L58.956143,98.7801394 C63.5380618,98.2563022 67.6112657,96.685388 68.1199807,87.7825452 C68.1199807,84.6407168 65.5746638,83.0698026 62.0107556,83.0698026 L55.3922348,83.0698026 L52.8463372,98.7801394 Z M78.3024096,105.317073 L86.4086353,62.9 L96.03532,62.9 L94.0086191,73.8965544 L103.127906,73.8965544 C111.23471,74.4203989 114.274472,78.6093634 113.261411,83.8466143 L109.714829,105.317073 L99.5819021,105.317073 L103.128484,85.9413952 C103.634726,83.3227698 103.634726,81.7518334 100.088722,81.7518334 L92.4887379,81.7518334 L87.9290944,105.317073 L78.3024096,105.317073 L78.3024096,105.317073 Z M112.09759,119 L120.243297,76.5829268 L139.080569,76.5829268 C147.226856,77.106764 151.3,81.2956695 151.3,88.627598 C151.3,101.195509 141.626429,108.52684 132.971435,108.003003 L123.807152,108.003003 L121.77058,119 L112.09759,119 Z M125.843143,100.148432 L125.843724,100.148432 L131.953439,100.148432 C136.53529,99.6245949 140.608434,98.0536807 141.117141,89.1508379 C141.117141,86.0090095 138.571862,84.4380952 135.008007,84.4380952 L128.389003,84.4380952 L125.843143,100.148432 Z" id="path-1"></path>
        <filter x="-10.7%" y="-16.0%" width="121.4%" height="142.8%" filterUnits="objectBoundingBox" id="filter-2">
            <feOffset dx="0" dy="3" in="SourceAlpha" result="shadowOffsetOuter1"></feOffset>
            <feGaussianBlur stdDeviation="3.5" in="shadowOffsetOuter1" result="shadowBlurOuter1"></feGaussianBlur>
            <feColorMatrix values="0 0 0 0 0   0 0 0 0 0   0 0 0 0 0  0 0 0 0.5 0" type="matrix" in="shadowBlurOuter1"></feColorMatrix>
        </filter>
    </defs>
    <g id="4.8-home-integrate-php" stroke="none" stroke-width="1" fill="none" fill-rule="evenodd">
        <g id="Group-12" transform="translate(6.000000, 6.000000)">
            <circle id="Oval-Copy-14" fill="#8993BE" cx="93.5" cy="93.5" r="93.5"></circle>
            <g id="Shape-Copy-4" fill-rule="nonzero">
                <use fill="black" fill-opacity="1" filter="url(#filter-2)" xlink:href="#path-1"></use>
                <use fill="#FFFFFF" xlink:href="#path-1"></use>
            </g>
        </g>
    </g>
</svg>