<?xml version="1.0" encoding="UTF-8"?>
<svg width="200px" height="200px" viewBox="0 0 200 200" version="1.1" xmlns="http://www.w3.org/2000/svg" xmlns:xlink="http://www.w3.org/1999/xlink">
    <!-- Generator: Sketch 53.2 (72643) - https://sketchapp.com -->
    <title>4.7-home-integrate-javascript</title>
    <desc>Created with Sketch.</desc>
    <defs>
        <path d="M44.200543,117.199591 L54.8385581,110.730698 C56.8912226,114.38691 58.7581698,117.480587 63.2365624,117.480587 C67.5292377,117.480587 70.2362568,115.793523 70.2362568,109.230783 L70.2362568,64.6 L83.3,64.6 L83.3,109.416294 C83.3,123.011556 75.368461,129.2 63.7964293,129.2 C53.3457606,129.2 47.2795397,123.761786 44.2,117.1985 M90.1005282,115.945717 L100.44622,109.829061 C103.169966,114.370844 106.709727,117.707202 112.971649,117.707202 C118.236924,117.707202 121.593939,115.019131 121.593939,111.311707 C121.593939,106.86323 118.145023,105.287278 112.336267,102.693052 L109.160412,101.301555 C99.993055,97.3174492 93.9122936,92.3123731 93.9122936,81.7467005 C93.9122936,72.0148477 101.172975,64.6 112.518483,64.6 C120.596236,64.6 126.404992,67.4736041 130.579607,74.9806789 L120.686024,81.4689404 C118.507344,77.4837563 116.14856,75.9083439 112.517955,75.9083439 C108.796506,75.9083439 106.436666,78.3181155 106.436666,81.4689404 C106.436666,85.3613579 108.796506,86.937849 114.241885,89.3476206 L117.418268,90.7375 C128.219239,95.464816 134.3,100.28382 134.3,111.126713 C134.3,122.805584 125.31486,129.2 113.243654,129.2 C101.44498,129.2 93.8209211,123.453871 90.1,115.946256" id="path-1"></path>
        <filter x="-13.3%" y="-13.9%" width="126.6%" height="137.2%" filterUnits="objectBoundingBox" id="filter-2">
            <feOffset dx="0" dy="3" in="SourceAlpha" result="shadowOffsetOuter1"></feOffset>
            <feGaussianBlur stdDeviation="3.5" in="shadowOffsetOuter1" result="shadowBlurOuter1"></feGaussianBlur>
            <feColorMatrix values="0 0 0 0 0   0 0 0 0 0   0 0 0 0 0  0 0 0 0.5 0" type="matrix" in="shadowBlurOuter1"></feColorMatrix>
        </filter>
    </defs>
    <g id="4.7-home-integrate-javascript" stroke="none" stroke-width="1" fill="none" fill-rule="evenodd">
        <g id="Group-9" transform="translate(6.000000, 6.000000)">
            <circle id="Oval-Copy-12" fill="#F7DF1E" cx="93.5" cy="93.5" r="93.5"></circle>
            <g id="Shape-Copy-6" fill-rule="nonzero">
                <use fill="black" fill-opacity="1" filter="url(#filter-2)" xlink:href="#path-1"></use>
                <use fill="#FFFFFF" xlink:href="#path-1"></use>
            </g>
        </g>
    </g>
</svg>