<?xml version="1.0" encoding="UTF-8"?>
<svg width="187px" height="187px" viewBox="0 0 187 187" version="1.1" xmlns="http://www.w3.org/2000/svg" xmlns:xlink="http://www.w3.org/1999/xlink">
    <!-- Generator: Sketch 57.1 (83088) - https://sketch.com -->
    <title>4.7-home-integrate-go</title>
    <desc>Created with Sketch.</desc>
    <g id="Page-1" stroke="none" stroke-width="1" fill="none" fill-rule="evenodd">
        <g id="4.7-home-integrate-go" fill-rule="nonzero">
            <circle id="Oval-Copy-13" fill="#3ABCAF" cx="93.5" cy="93.5" r="93.5"></circle>
            <path d="M20.3045685,79.8947368 C20,79.8947368 19.9238579,79.6842105 20.0761421,79.3684211 L21.6751269,76.5263158 C21.8274112,76.2105263 22.2081218,76 22.5126903,76 L49.6954314,76 C50,76 50.0761422,76.3157895 49.9238578,76.6315789 L48.6294415,79.3684211 C48.4771573,79.6842105 48.0964467,80 47.8680202,80 L20.3045685,79.8947368 Z" id="Shape" fill="#FFFFFF"></path>
            <path d="M10.2994407,88 C10,88 9.92513983,87.783784 10.0748602,87.4594597 L11.6469237,84.5405406 C11.796644,84.216216 12.1709449,84 12.4703855,84 L46.6066223,84 C46.9060629,84 47.0557833,84.3243243 46.9809231,84.6486486 L46.3820417,87.2432434 C46.3071815,87.6756757 46.007741,87.891892 45.7083002,87.891892 L10.2994407,88 Z" id="Shape" fill="#FFFFFF"></path>
            <path d="M29.2770563,95.8947369 C29,95.8947369 28.9307359,95.5789475 29.0692641,95.2631581 L30.4875667,92.6315788 C30.626095,92.3157894 30.9031512,92 31.1802075,92 L45.0330212,92 C45.3100776,92 45.4486058,92.3157894 45.4486058,92.7368419 L45.3100776,95.2631581 C45.3100776,95.6842106 45.0330212,96 44.8252291,96 L29.2770563,95.8947369 Z" id="Shape" fill="#FFFFFF"></path>
            <g id="Group" transform="translate(50.000000, 62.000000)" fill="#FFFFFF">
                <path d="M54.5630002,15.9658363 C49.9105463,17.157632 46.7350617,18.0514788 42.1564563,19.2432744 C41.048729,19.5412233 40.9748806,19.6157107 40.0148504,18.4984022 C38.9071233,17.2321192 38.0947901,16.4127597 36.5439721,15.6678874 C31.891518,13.3587833 27.3867611,14.0291683 23.1773979,16.7851959 C18.1557016,20.062634 15.5710049,24.904304 15.6448534,30.9377697 C15.7187019,36.896748 19.7803681,41.8129052 25.6143976,42.6322648 C30.636094,43.3026498 34.8454572,41.5149563 38.1686385,37.7161076 C38.8332748,36.896748 39.4240626,36.0029013 40.1625473,34.9600802 C37.5040023,34.9600802 34.1808209,34.9600802 25.9097915,34.9600802 C24.3589735,34.9600802 23.9897311,33.991746 24.5066704,32.7254632 C25.4667006,30.416359 27.2390642,26.5430231 28.2729428,24.6063551 C28.4944882,24.1594316 29.0114276,23.4145594 30.1191547,23.4145594 C33.885427,23.4145594 47.7689404,23.4145594 57,23.4145594 C56.8523031,25.4257146 56.8523031,27.4368699 56.5569092,29.4480251 C55.7445758,34.8111056 53.750667,39.7272628 50.5013341,44.0475222 C45.1842438,51.123809 38.242487,55.5185556 29.4545184,56.7103513 C22.2173677,57.6786854 15.4971564,56.263428 9.58927835,51.7941942 C4.12449113,47.6229092 1.02285514,42.1108542 0.210521902,35.2580291 C-0.749508286,27.138921 1.61364295,19.8391724 6.48764236,13.4332705 C11.7308842,6.50595807 18.672641,2.11121149 27.1652157,0.546979647 C34.1069725,-0.71930327 40.7533351,0.100056265 46.7350617,4.19685394 C50.649031,6.80390699 53.4552731,10.379294 55.3014849,14.6995534 C55.7445758,15.3699385 55.4491819,15.7423746 54.5630002,15.9658363 Z" id="Shape"></path>
                <path d="M79.4666047,58 C72.7208987,57.8496207 66.5682218,55.8946909 61.3792171,51.383314 C57.0056276,47.5486437 54.2628679,42.661319 53.3733243,36.8717187 C52.0390088,28.3752924 54.3369965,20.856331 59.3777439,14.1644555 C64.7891345,6.94625265 71.3124544,3.186772 80.1337624,1.60779011 C87.6948834,0.254377074 94.8112326,1.00627321 101.260424,5.44246038 C107.116586,9.5026995 110.74889,14.9915413 111.712562,22.2097441 C112.972749,32.360342 110.081732,40.6311994 103.187769,47.699023 C98.2952785,52.7367271 92.2908588,55.8946909 85.3968955,57.3232935 C83.3954224,57.6992416 81.3939492,57.7744311 79.4666047,58 Z M97.1092203,27.6233962 C97.0350917,26.6459313 97.0350917,25.8940351 96.8868344,25.1421391 C95.552519,17.6983673 88.806813,13.487749 81.7645924,15.1419205 C74.8706291,16.7209024 70.4229108,21.1570895 68.7920808,28.2249131 C67.4577654,34.0897029 70.2746535,40.0296825 75.6119155,42.4357501 C79.6889906,44.2403008 83.7660656,44.0147319 87.6948834,41.9846123 C93.5510456,38.9018383 96.7385772,34.0897029 97.1092203,27.6233962 Z" id="Shape"></path>
            </g>
        </g>
    </g>
</svg>