<?xml version="1.0" encoding="UTF-8"?>
<svg width="350px" height="350px" viewBox="0 0 350 350" version="1.1" xmlns="http://www.w3.org/2000/svg" xmlns:xlink="http://www.w3.org/1999/xlink">
    <!-- Generator: Sketch 53.2 (72643) - https://sketchapp.com -->
    <title>2.5-everywhere-limited-connectivity</title>
    <desc>Created with Sketch.</desc>
    <g id="2.5-everywhere-limited-connectivity" stroke="none" stroke-width="1" fill="none" fill-rule="evenodd">
        <g id="INTERNET-SERVER-ERROR-Copy" transform="translate(51.000000, 56.000000)" fill-rule="nonzero">
            <g id="Group" transform="translate(19.680000, 0.000000)" fill="#4A555F">
                <polygon id="Path" points="226.08 0.24 226.08 210.768 64.128 210.768 64.128 207.744 223.056 207.744 223.056 3.264 3.12 3.264 3.12 167.376 0.096 167.376 0.096 0.24"></polygon>
                <polygon id="Path" points="224.592 19.728 224.592 22.752 65.28 22.752 59.424 10.8 19.392 10.8 13.488 22.752 1.632 22.752 1.632 19.728 11.616 19.728 17.52 7.776 61.344 7.776 67.152 19.728"></polygon>
                <path d="M25.344,22.752 C22.56,22.752 20.256,20.496 20.256,17.664 C20.256,14.88 22.512,12.576 25.344,12.576 C28.128,12.576 30.432,14.832 30.432,17.664 C30.432,20.496 28.128,22.752 25.344,22.752 Z M25.344,15.648 C24.192,15.648 23.28,16.56 23.28,17.712 C23.28,18.864 24.192,19.776 25.344,19.776 C26.496,19.776 27.408,18.864 27.408,17.712 C27.408,16.56 26.496,15.648 25.344,15.648 Z" id="Shape"></path>
                <path d="M209.808,0.24 L209.808,14.88 L226.08,14.88 L226.08,0.24 L209.808,0.24 Z M223.056,11.856 L212.784,11.856 L212.784,3.264 L223.056,3.264 L223.056,11.856 Z" id="Shape"></path>
            </g>
            <g id="Group" transform="translate(72.480000, 53.760000)">
                <path d="M60.288,5.616 C30.144,5.616 5.664,30.144 5.664,60.24 C5.664,90.384 30.192,114.864 60.288,114.864 C90.432,114.864 114.96,90.336 114.96,60.24 C114.96,30.144 90.432,5.616 60.288,5.616 Z M69.216,101.376 L51.36,101.376 L51.36,86.544 L69.216,86.544 L69.216,101.376 Z M75.84,41.616 L68.688,77.424 L51.888,77.424 L44.736,41.616 L44.736,20.16 L75.84,20.16 L75.84,41.616 Z" id="Shape" fill="#F68F6F"></path>
                <path d="M69.936,78.912 L50.688,78.912 L43.248,41.616 L43.248,18.624 L77.376,18.624 L77.328,41.904 L69.936,78.912 Z M53.136,75.888 L67.44,75.888 L74.304,41.472 L74.304,21.648 L46.224,21.648 L46.224,41.472 L53.136,75.888 Z" id="Shape" fill="#4A555F"></path>
                <path d="M70.752,102.864 L49.872,102.864 L49.872,85.008 L70.752,85.008 L70.752,102.864 Z M52.896,99.84 L67.728,99.84 L67.728,88.032 L52.896,88.032 L52.896,99.84 Z" id="Shape" fill="#4A555F"></path>
                <path d="M60.288,120.144 C27.264,120.144 0.384,93.264 0.384,60.24 C0.384,27.216 27.264,0.336 60.288,0.336 C93.312,0.336 120.192,27.216 120.192,60.24 C120.192,93.264 93.312,120.144 60.288,120.144 Z M60.288,3.36 C28.944,3.36 3.408,28.896 3.408,60.24 C3.408,91.584 28.944,117.12 60.288,117.12 C91.632,117.12 117.168,91.584 117.168,60.24 C117.168,28.896 91.68,3.36 60.288,3.36 Z" id="Shape" fill="#4A555F"></path>
            </g>
            <polygon id="Path" fill="#71CDE1" points="39.312 185.808 54.432 185.808 53.376 188.016 39.312 188.016"></polygon>
            <polygon id="Path" fill="#71CDE1" points="79.392 171.648 79.392 188.016 60.816 188.016 64.944 179.856 45.312 179.856 48.48 171.648"></polygon>
            <polygon id="Path" fill="#71CDE1" points="49.296 196.608 41.568 213.024 39.312 213.024 39.312 196.608"></polygon>
            <path d="M52.32,193.776 L0,193.776 L0,165.888 L40.896,165.888 L32.928,184.32 L56.784,184.32 L52.32,193.776 Z M3.024,190.752 L50.4,190.752 L52.032,187.296 L28.32,187.296 L36.288,168.864 L3.024,168.864 L3.024,190.752 Z" id="Shape" fill="#4A555F"></path>
            <path d="M85.296,193.776 L56.208,193.776 L62.496,181.344 L43.104,181.344 L49.104,165.888 L85.344,165.888 L85.344,193.776 L85.296,193.776 Z M61.104,190.752 L82.272,190.752 L82.272,168.864 L51.12,168.864 L47.52,178.32 L67.392,178.32 L61.104,190.752 Z" id="Shape" fill="#4A555F"></path>
            <polygon id="Path" fill="#71CDE1" points="79.392 196.608 79.392 213.024 48.24 213.024 56.496 196.608"></polygon>
            <path d="M40.512,218.88 L0,218.88 L0,190.8 L53.76,190.8 L40.512,218.88 Z M3.024,215.856 L38.592,215.856 L49.008,193.776 L3.024,193.776 L3.024,215.856 Z" id="Shape" fill="#4A555F"></path>
            <path d="M85.296,218.88 L43.584,218.88 L57.744,190.8 L85.296,190.8 L85.296,218.88 Z M48.48,215.856 L82.272,215.856 L82.272,193.776 L59.568,193.776 L48.48,215.856 Z" id="Shape" fill="#4A555F"></path>
            <path d="M13.872,184.32 C11.376,184.32 9.36,182.304 9.36,179.808 C9.36,177.312 11.376,175.296 13.872,175.296 C16.368,175.296 18.384,177.312 18.384,179.808 C18.384,182.304 16.368,184.32 13.872,184.32 Z M13.872,178.32 C13.056,178.32 12.384,178.992 12.384,179.808 C12.384,180.624 13.056,181.296 13.872,181.296 C14.688,181.296 15.36,180.624 15.36,179.808 C15.36,178.992 14.688,178.32 13.872,178.32 Z" id="Shape" fill="#4A555F"></path>
            <path d="M73.344,184.32 C70.848,184.32 68.832,182.304 68.832,179.808 C68.832,177.312 70.848,175.296 73.344,175.296 C75.84,175.296 77.856,177.312 77.856,179.808 C77.856,182.304 75.84,184.32 73.344,184.32 Z M73.344,178.32 C72.528,178.32 71.856,178.992 71.856,179.808 C71.856,180.624 72.528,181.296 73.344,181.296 C74.16,181.296 74.832,180.624 74.832,179.808 C74.832,178.992 74.16,178.32 73.344,178.32 Z" id="Shape" fill="#4A555F"></path>
            <path d="M13.872,209.328 C11.376,209.328 9.36,207.312 9.36,204.816 C9.36,202.32 11.376,200.304 13.872,200.304 C16.368,200.304 18.384,202.32 18.384,204.816 C18.384,207.312 16.368,209.328 13.872,209.328 Z M13.872,203.328 C13.056,203.328 12.384,204 12.384,204.816 C12.384,205.632 13.056,206.304 13.872,206.304 C14.688,206.304 15.36,205.632 15.36,204.816 C15.36,204 14.688,203.328 13.872,203.328 Z" id="Shape" fill="#4A555F"></path>
            <path d="M73.344,209.328 C70.848,209.328 68.832,207.312 68.832,204.816 C68.832,202.32 70.848,200.304 73.344,200.304 C75.84,200.304 77.856,202.32 77.856,204.816 C77.856,207.312 75.84,209.328 73.344,209.328 Z M73.344,203.328 C72.528,203.328 71.856,204 71.856,204.816 C71.856,205.632 72.528,206.304 73.344,206.304 C74.16,206.304 74.832,205.632 74.832,204.816 C74.832,204 74.16,203.328 73.344,203.328 Z" id="Shape" fill="#4A555F"></path>
            <path d="M20.16,228.48 L11.52,228.48 L11.52,215.856 L20.16,215.856 L20.16,228.48 Z M14.592,225.504 L17.184,225.504 L17.184,218.88 L14.592,218.88 L14.592,225.504 Z" id="Shape" fill="#4A555F"></path>
            <path d="M75.648,228.48 L67.056,228.48 L67.056,215.856 L75.648,215.856 L75.648,228.48 Z M70.032,225.504 L72.624,225.504 L72.624,218.88 L70.032,218.88 L70.032,225.504 Z" id="Shape" fill="#4A555F"></path>
            <path d="M31.536,237.84 L0,237.84 L0,225.504 L37.392,225.504 L31.536,237.84 Z M3.024,234.816 L29.664,234.816 L32.64,228.528 L3.024,228.528 L3.024,234.816 Z" id="Shape" fill="#4A555F"></path>
            <path d="M85.296,237.84 L34.08,237.84 L40.32,225.504 L85.344,225.504 L85.344,237.84 L85.296,237.84 Z M38.976,234.816 L82.32,234.816 L82.32,228.48 L42.144,228.48 L38.976,234.816 Z" id="Shape" fill="#4A555F"></path>
        </g>
    </g>
</svg>