<?xml version="1.0" encoding="UTF-8"?>
<svg width="200px" height="200px" viewBox="0 0 200 200" version="1.1" xmlns="http://www.w3.org/2000/svg" xmlns:xlink="http://www.w3.org/1999/xlink">
    <!-- Generator: Sketch 53.2 (72643) - https://sketchapp.com -->
    <title>4.1-everywhere-device</title>
    <desc>Created with Sketch.</desc>
    <g id="4.1-everywhere-device" stroke="none" stroke-width="1" fill="none" fill-rule="evenodd">
        <g id="Group-15-Copy" transform="translate(55.000000, 22.000000)">
            <g id="Group-14" fill-rule="nonzero">
                <path d="M72.1880859,3.7658765e-13 L16.8746484,3.7658765e-13 C9.60433594,3.7658765e-13 3.68929687,5.89626116 3.68929687,13.1434933 L3.68929687,143.110757 C3.68929687,150.357989 9.60433594,156.25425 16.8746484,156.25425 L72.1880859,156.25425 C79.4583984,156.25425 85.3730859,150.358339 85.3730859,143.110757 L85.3730859,13.1434933 C85.3730859,5.89626116 79.4583984,3.7658765e-13 72.1880859,3.7658765e-13 Z M83.1803906,143.110757 C83.1803906,149.152804 78.249375,154.068516 72.1880859,154.068516 L16.8746484,154.068516 C10.8133594,154.068516 5.88199219,149.152804 5.88199219,143.110757 L5.88199219,13.1434933 C5.88199219,7.10144643 10.8133594,2.18573438 16.8746484,2.18573438 L72.1880859,2.18573438 C78.249375,2.18573438 83.1803906,7.10144643 83.1803906,13.1434933 L83.1803906,143.110757 Z" id="Shape" fill="#FFFFFF"></path>
                <path d="M71.690625,3.79568527 L63.2967187,3.79568527 C61.2639844,3.79568527 59.3869922,4.89608705 58.39875,6.66759375 L56.6022656,9.89275223 C55.9996875,10.9675714 54.8567578,11.6355223 53.6196094,11.6355223 L35.4420703,11.6355223 C34.2052734,11.6355223 33.0623437,10.9675714 32.4611719,9.8955558 L30.6632812,6.6672433 C29.6746875,4.89608705 27.7980469,3.79603571 25.7653125,3.79603571 L17.3714062,3.79603571 C12.2649609,3.79603571 8.11089844,7.80969866 8.11089844,12.742933 L8.11089844,121.99671 C8.11089844,126.929944 12.2649609,130.943607 17.3714062,130.943607 L71.6980078,130.943607 C76.8002344,130.943607 80.9514844,126.933098 80.9514844,122.003719 L80.9514844,12.7425826 C80.9511328,7.80934821 76.7970703,3.79568527 71.690625,3.79568527 Z M78.7584375,122.003719 C78.7584375,125.727913 75.5912109,128.757522 71.6976562,128.757522 L17.3714062,128.757522 C13.4743359,128.757522 10.3035937,125.724408 10.3035937,121.996359 L10.3035937,12.7425826 C10.3035937,9.01453348 13.4739844,5.98141964 17.3714062,5.98141964 L25.7653125,5.98141964 C27.0028125,5.98141964 28.1450391,6.65112277 28.7462109,7.72874554 L30.5455078,10.9591607 C31.5355078,12.7243594 33.4117969,13.8209062 35.4420703,13.8209062 L53.6196094,13.8209062 C55.6502344,13.8209062 57.5265234,12.7243594 58.5179297,10.9563571 L60.3154687,7.72944643 C60.9169922,6.65147321 62.0592187,5.98177009 63.2963672,5.98177009 L71.6902734,5.98177009 C75.5873437,5.98177009 78.7580859,9.01488393 78.7580859,12.742933 L78.7580859,122.003719 L78.7584375,122.003719 Z" id="Shape" fill="#FFFFFF"></path>
                <path d="M71.6983594,133.493806 L17.3717578,133.493806 C13.8086719,133.493806 10.60875,131.951842 8.43996094,129.517991 L8.43996094,143.111107 C8.43996094,147.747163 12.2234766,151.519018 16.8746484,151.519018 L72.1880859,151.519018 C76.8389062,151.519018 80.6227734,147.747513 80.6227734,143.111107 L80.6227734,129.522547 C78.4557422,131.953594 75.2579297,133.493806 71.6983594,133.493806 Z" id="Path" fill="#FFD351"></path>
                <path d="M32.4653906,4.73558259 C32.6207813,4.95846652 32.765625,5.18941071 32.8992188,5.42981696 L34.6918359,8.64796652 C34.8408984,8.91360491 35.1355078,9.08532366 35.4420703,9.08532366 L53.6196094,9.08532366 C53.9261719,9.08532366 54.2207813,8.91395536 54.3645703,8.65777902 L56.1635156,5.42841518 C56.2971094,5.18906027 56.4416016,4.95811607 56.5962891,4.73628348 L32.4653906,4.73628348 L32.4653906,4.73558259 Z" id="Path" fill="#FFD351"></path>
                <path d="M52.7083594,137.275824 L36.3304687,137.275824 C33.6287109,137.275824 31.438125,139.459105 31.438125,142.152636 L31.438125,142.299824 C31.438125,144.993004 33.6283594,147.176636 36.3304687,147.176636 L52.7083594,147.176636 C55.4101172,147.176636 57.6007031,144.993355 57.6007031,142.299824 L57.6007031,142.152636 C57.6007031,139.459455 55.4104687,137.275824 52.7083594,137.275824 Z" id="Path" fill="#F58E70"></path>
                <path d="M52.7083594,136.183132 L36.3304687,136.183132 C33.0282422,136.183132 30.3419531,138.861243 30.3419531,142.152636 L30.3419531,142.299824 C30.3419531,145.591567 33.0282422,148.269679 36.3304687,148.269679 L52.7083594,148.269679 C56.0105859,148.269679 58.696875,145.591917 58.696875,142.299824 L58.696875,142.152636 C58.696875,138.860893 56.0105859,136.183132 52.7083594,136.183132 Z M56.5041797,142.299824 C56.5041797,144.386382 54.8015625,146.083944 52.7083594,146.083944 L36.3304687,146.083944 C34.2372656,146.083944 32.5346484,144.386382 32.5346484,142.299824 L32.5346484,142.152636 C32.5346484,140.066429 34.2372656,138.368866 36.3304687,138.368866 L52.7083594,138.368866 C54.8015625,138.368866 56.5041797,140.066429 56.5041797,142.152636 L56.5041797,142.299824 Z" id="Shape" fill="#4B555F"></path>
                <path d="M21.4449609,137.043127 C18.5776172,137.043127 16.245,139.368339 16.245,142.22623 C16.245,145.084121 18.5776172,147.409333 21.4449609,147.409333 C24.3119531,147.409333 26.6445703,145.084121 26.6445703,142.22623 C26.6445703,139.368339 24.3116016,137.043127 21.4449609,137.043127 Z M21.4449609,145.223598 C19.7869922,145.223598 18.4376953,143.878935 18.4376953,142.22623 C18.4376953,140.573525 19.7866406,139.228862 21.4449609,139.228862 C23.1032812,139.228862 24.451875,140.573525 24.451875,142.22623 C24.4515234,143.878935 23.1029297,145.223598 21.4449609,145.223598 Z" id="Shape" fill="#4B555F"></path>
                <path d="M68.0069531,137.043127 C65.1396094,137.043127 62.8069922,139.368339 62.8069922,142.22623 C62.8069922,145.084121 65.1396094,147.409333 68.0069531,147.409333 C70.8739453,147.409333 73.2065625,145.084121 73.2065625,142.22623 C73.2065625,139.368339 70.8739453,137.043127 68.0069531,137.043127 Z M68.0069531,145.223598 C66.3489844,145.223598 64.9996875,143.878935 64.9996875,142.22623 C64.9996875,140.573525 66.3486328,139.228862 68.0069531,139.228862 C69.6652734,139.228862 71.0138672,140.573525 71.0138672,142.22623 C71.0138672,143.878935 69.6652734,145.223598 68.0069531,145.223598 Z" id="Shape" fill="#4B555F"></path>
                <path d="M2.94117187,29.6670424 C1.31941406,29.6670424 -2.84217094e-14,30.9819174 -2.84217094e-14,32.5985268 L-2.84217094e-14,38.9289911 C-2.84217094e-14,40.5456004 1.31941406,41.8604754 2.94117187,41.8604754 C4.56292969,41.8604754 5.88199219,40.54525 5.88199219,38.9289911 L5.88199219,32.5985268 C5.88164062,30.9819174 4.56257812,29.6670424 2.94117187,29.6670424 Z M3.68894531,38.9289911 C3.68894531,39.3400647 3.35355469,39.6747411 2.94082031,39.6747411 C2.52808594,39.6747411 2.19234375,39.3400647 2.19234375,38.9289911 L2.19234375,32.5985268 C2.19234375,32.1874531 2.52808594,31.8527768 2.94082031,31.8527768 C3.35355469,31.8527768 3.68894531,32.1874531 3.68894531,32.5985268 L3.68894531,38.9289911 Z" id="Shape" fill="#FFFFFF"></path>
                <path d="M2.94117187,44.9535156 C1.31941406,44.9535156 -2.84217094e-14,46.2687411 -2.84217094e-14,47.885 L-2.84217094e-14,54.2154643 C-2.84217094e-14,55.8320737 1.31941406,57.1469487 2.94117187,57.1469487 C4.56292969,57.1469487 5.88199219,55.8317232 5.88199219,54.2154643 L5.88199219,47.885 C5.88164062,46.2687411 4.56257812,44.9535156 2.94117187,44.9535156 Z M3.68894531,54.2154643 C3.68894531,54.6265379 3.35355469,54.9612143 2.94082031,54.9612143 C2.52808594,54.9612143 2.19234375,54.6265379 2.19234375,54.2154643 L2.19234375,47.885 C2.19234375,47.4735759 2.52808594,47.13925 2.94082031,47.13925 C3.35355469,47.13925 3.68894531,47.4739263 3.68894531,47.885 L3.68894531,54.2154643 Z" id="Shape" fill="#FFFFFF"></path>
                <path d="M86.1215625,86.484221 C84.4998047,86.484221 83.1803906,87.799096 83.1803906,89.4157054 L83.1803906,107.454234 C83.1803906,109.070493 84.4998047,110.385719 86.1215625,110.385719 C87.7433203,110.385719 89.0623828,109.070493 89.0623828,107.454234 L89.0623828,89.4157054 C89.0620312,87.799096 87.7433203,86.484221 86.1215625,86.484221 Z M86.8693359,107.454234 C86.8693359,107.865308 86.5339453,108.199984 86.1212109,108.199984 C85.7084766,108.199984 85.3727344,107.865308 85.3727344,107.454234 L85.3727344,89.4157054 C85.3727344,89.0046317 85.7084766,88.6699554 86.1212109,88.6699554 C86.5335937,88.6699554 86.8693359,89.0046317 86.8693359,89.4157054 L86.8693359,107.454234 Z" id="Shape" fill="#FFFFFF"></path>
                <path d="M14.6667969,41.6210201 L14.6667969,117.328163 C14.6667969,118.99054 16.0144198,120.338163 17.6767969,120.338163 L71.1517969,120.338163 C72.814174,120.338163 74.1617969,118.99054 74.1617969,117.328163 L74.1617969,41.6210201 C74.1617969,39.958643 72.814174,38.6110201 71.1517969,38.6110201 L17.6767969,38.6110201 C16.0144198,38.6110201 14.6667969,39.958643 14.6667969,41.6210201 Z" id="Path" stroke="#FFFFFF" stroke-width="2.38"></path>
                <path d="M13.0260937,18.8701384 L13.0260937,32.3276317 L64.1517187,32.3276317 L64.1517187,18.8701384 L13.0260937,18.8701384 Z M61.959375,30.1418973 L15.2191406,30.1418973 L15.2191406,21.0562232 L61.959375,21.0562232 L61.959375,30.1418973 Z" id="Shape" fill="#FFFFFF"></path>
                <rect id="Rectangle" fill="#F58E70" x="17.7771094" y="23.6060714" width="41.6239453" height="3.98562723"></rect>
                <path d="M61.959375,18.8701384 L61.959375,32.3276317 L76.0362891,32.3276317 L76.0362891,18.8701384 L61.959375,18.8701384 Z M73.8435937,30.1418973 L64.1520703,30.1418973 L64.1520703,21.0562232 L73.8435937,21.0562232 L73.8435937,30.1418973 Z" id="Shape" fill="#FFFFFF"></path>
                <path d="M69.6953563,23.044795 C69.2969147,22.6473296 68.7665996,22.4285714 68.2026696,22.4285714 C67.6392097,22.4285714 67.1095997,22.6470954 66.7109231,23.0440924 C65.8881824,23.8636159 65.8879473,25.197713 66.710688,26.017705 C67.1093647,26.4151704 67.6396798,26.6339286 68.2036098,26.6339286 C68.7670697,26.6339286 69.2966797,26.4154046 69.6953563,26.0184076 C70.518097,25.1988841 70.5183321,23.8650212 69.6953563,23.044795 Z M68.658703,24.9855129 C68.4156419,25.227927 67.9908726,25.2274585 67.7478115,24.9850445 C67.4965229,24.734667 67.4962879,24.3273645 67.7475764,24.0772213 C67.869107,23.9561314 68.0308343,23.8893797 68.2026696,23.8893797 C68.374975,23.8893797 68.5367023,23.9563656 68.6584679,24.0776898 C68.9097564,24.3280672 68.9099915,24.7353697 68.658703,24.9855129 Z" id="Shape" fill="#FFFFFF"></path>
                <polygon id="Rectangle" fill="#FFFFFF" transform="translate(69.609375, 26.633929) rotate(-45.000000) translate(-69.609375, -26.633929) " points="68.9051339 25.2287946 70.3091518 25.2310268 70.3136161 28.0390625 68.9095982 28.0368304"></polygon>
            </g>
            <rect id="Rectangle-Copy-12" fill="#EC8D53" x="21.09375" y="49.0625" width="47.8125" height="4.20535714"></rect>
            <rect id="Rectangle-Copy-15" fill="#EC8D53" x="21.09375" y="82.7053571" width="47.8125" height="4.20535714"></rect>
            <rect id="Rectangle-Copy-16" fill="#EC8D53" x="21.09375" y="93.9196429" width="47.8125" height="4.20535714"></rect>
            <rect id="Rectangle-Copy-13" fill="#EC8D53" x="21.09375" y="60.2767857" width="19.6875" height="4.20535714"></rect>
            <rect id="Rectangle-Copy-14" fill="#EC8D53" x="21.09375" y="71.4910714" width="33.75" height="4.20535714"></rect>
            <rect id="Rectangle-Copy-17" fill="#EC8D53" x="21.09375" y="106.535714" width="33.75" height="4.20535714"></rect>
        </g>
    </g>
</svg>