<?xml version="1.0" encoding="UTF-8"?>
<svg width="200px" height="200px" viewBox="0 0 200 200" version="1.1" xmlns="http://www.w3.org/2000/svg" xmlns:xlink="http://www.w3.org/1999/xlink">
    <!-- Generator: Sketch 53.2 (72643) - https://sketchapp.com -->
    <title>4.2-everywhere-device</title>
    <desc>Created with Sketch.</desc>
    <g id="4.2-everywhere-device" stroke="none" stroke-width="1" fill="none" fill-rule="evenodd">
        <g id="Group-13-Copy" transform="translate(20.000000, 19.000000)" fill-rule="nonzero">
            <path d="M148.427685,5.81126121 L12.28185,5.81126121 C8.714475,5.81126121 5.817735,8.70872198 5.817735,12.2676246 L5.817735,119.836916 C5.817735,123.387335 8.71416,126.28511 12.28185,126.28511 L148.42737,126.28511 C151.994745,126.28511 154.891485,123.387335 154.891485,119.836916 L154.891485,12.2676246 C154.891485,8.70903621 151.99506,5.81126121 148.427685,5.81126121 Z M151.577685,111.005333 L136.57959,111.005333 L139.27158,113.690692 C139.93434,114.35999 139.93434,115.437464 139.27158,116.098592 L136.53045,118.83297 L133.78932,121.559179 C133.12656,122.228476 132.046425,122.228476 131.383665,121.559179 L123.81516,114.009316 C122.972535,113.168766 121.548735,113.429886 121.05765,114.515531 L119.2086,118.596674 C118.5786,119.992457 116.56575,119.910759 116.050095,118.474126 L113.366295,111.005961 L9.13185,111.005961 L9.13185,10.5208526 L151.578,10.5208526 L151.578,111.005333 L151.577685,111.005333 Z" id="Shape-Copy" fill="#DFDFDF"></path>
            <path d="M104.60268,151.025233 L57.627045,151.025233 C57.216285,151.025233 56.83356,150.820673 56.605815,150.480054 C56.37807,150.139435 56.33649,149.707691 56.49399,149.329994 L64.403955,130.400503 C64.594845,129.94425 65.041515,129.647308 65.53701,129.647308 L96.692085,129.647308 C97.18758,129.647308 97.63425,129.944564 97.82514,130.400503 L105.735735,149.329994 C105.893235,149.707691 105.851655,150.139435 105.62391,150.480054 C105.39585,150.820673 105.013125,151.025233 104.60268,151.025233 Z M59.467905,148.576799 L102.761505,148.576799 L95.873715,132.096057 L66.355065,132.096057 L59.467905,148.576799 Z" id="Shape-Copy-2" fill="#FFFFFF"></path>
            <polygon id="Path-Copy" fill="#DFDFDF" points="64.523655 145.215229 68.601015 135.457941 93.627765 135.457941 97.705125 145.215229"></polygon>
            <path d="M125.63208,160.882759 L36.59733,160.882759 C35.919765,160.882759 35.37009,160.334438 35.37009,159.658541 L35.37009,149.801016 C35.37009,149.124806 35.919765,148.576799 36.59733,148.576799 L125.63208,148.576799 C126.309645,148.576799 126.85932,149.12512 126.85932,149.801016 L126.85932,159.658541 C126.85932,160.334438 126.309645,160.882759 125.63208,160.882759 Z M37.82457,158.43401 L124.404525,158.43401 L124.404525,151.025233 L37.82457,151.025233 L37.82457,158.43401 Z" id="Shape-Copy-3" fill="#FFFFFF"></path>
            <rect id="Rectangle-Copy-18" fill="#FFFFFF" x="5.382405" y="158.43401" width="151.46397" height="2.44874871"></rect>
            <ellipse id="Oval-Copy" fill="#FFFFFF" cx="81.23346" cy="118.799348" rx="5.963265" ry="5.94857716"></ellipse>
            <path d="M81.23346,125.972143 C77.268555,125.972143 74.04264,122.754173 74.04264,118.799034 C74.04264,114.843895 77.268555,111.625925 81.23346,111.625925 C85.198365,111.625925 88.42428,114.843895 88.42428,118.799034 C88.423965,122.754173 85.198365,125.972143 81.23346,125.972143 Z M81.23346,114.074988 C78.62211,114.074988 76.497435,116.194116 76.497435,118.799348 C76.497435,121.404266 78.62211,123.523708 81.23346,123.523708 C83.84481,123.523708 85.969485,121.404581 85.969485,118.799348 C85.969485,116.194116 83.84481,114.074988 81.23346,114.074988 Z" id="Shape-Copy-7" fill="#4A555F"></path>
            <path d="M148.43556,132.096685 L12.29004,132.096685 C8.613675,132.096685 5.15844,130.47089 2.810115,127.636274 C2.533545,127.301939 2.300445,126.991486 2.09664,126.687003 C1.856925,126.328787 1.65564,125.997281 1.481445,125.673944 C1.30473,125.355635 1.12896,124.993649 0.96516,124.609353 C0.81585,124.25805 0.677565,123.878153 0.5544,123.480345 C0.373905,122.904687 0.23562,122.304519 0.144585,121.700266 C0.049455,121.119579 4.26325641e-14,120.48736 4.26325641e-14,119.837231 L4.26325641e-14,12.2676246 C4.2457704e-14,5.50332155 5.513445,2.98427949e-13 12.29004,2.98427949e-13 L148.435245,2.98427949e-13 C155.212155,2.98427949e-13 160.7256,5.50332155 160.7256,12.2676246 L160.7256,119.836916 C160.7256,126.59682 155.212155,132.096685 148.43556,132.096685 Z M12.29004,2.44874871 C6.867,2.44874871 2.45448,6.85354267 2.45448,12.2679388 L2.45448,119.837231 C2.45448,120.3557 2.49291,120.855003 2.569455,121.321311 C2.64537,121.823756 2.751525,122.287236 2.898,122.753231 C2.997855,123.075939 3.107475,123.37728 3.22497,123.652226 C3.35601,123.959537 3.494295,124.245481 3.63636,124.501574 C3.795435,124.796944 3.96333,125.06592 4.138155,125.327983 C4.31235,125.587847 4.501035,125.832627 4.70295,126.077722 C6.58224,128.34642 9.34857,129.648251 12.29004,129.648251 L148.435245,129.648251 C153.858285,129.648251 158.270805,125.247228 158.270805,119.837231 L158.270805,12.2676246 C158.270805,6.85354267 153.858285,2.44843448 148.435245,2.44843448 L12.29004,2.44843448 L12.29004,2.44874871 Z" id="Shape-Copy-8" fill="#FFFFFF"></path>
            <path d="M132.586965,123.285526 C131.800725,123.285526 131.06394,122.977901 130.511115,122.419839 L122.947335,114.874689 C122.79393,114.721976 122.61879,114.727318 122.527125,114.743657 C122.435145,114.760311 122.26662,114.818443 122.176215,115.018918 L120.327165,119.100375 C119.83482,120.191675 118.76193,120.867257 117.53847,120.820438 C116.337375,120.773304 115.29945,120.014139 114.89436,118.886703 L104.878935,90.9949112 C104.76396,90.6919991 104.70159,90.3485522 104.70159,89.9959927 C104.70159,89.0564625 105.16905,88.1665797 105.951195,87.6154306 C106.73838,87.0611392 107.71236,86.9282224 108.621765,87.2506164 L136.58463,97.2426297 C137.71674,97.6445224 138.48093,98.6795767 138.52944,99.878656 C138.578265,101.076793 137.90133,102.16935 136.80513,102.662053 L132.715485,104.506235 C132.51483,104.596417 132.456555,104.763584 132.43986,104.855024 C132.42222,104.948348 132.41655,105.128399 132.574995,105.28771 L140.13972,112.825633 C140.141295,112.827519 140.143815,112.82909 140.14539,112.831289 C141.278445,113.976322 141.275925,115.830559 140.13972,116.964594 L134.656515,122.426752 C134.10936,122.977901 133.372575,123.285526 132.586965,123.285526 Z M122.611545,112.287367 C123.38109,112.287367 124.12827,112.590594 124.68267,113.143314 L132.251175,120.693491 C132.375915,120.818867 132.5142,120.836778 132.58665,120.836778 C132.65847,120.836778 132.796755,120.818867 132.91677,120.698519 L138.403755,115.232904 C138.588345,115.048455 138.58677,114.743657 138.39966,114.552923 L130.83588,107.015629 C130.15107,106.326221 129.84993,105.353697 130.0257,104.408825 C130.20084,103.466781 130.828635,102.668652 131.70465,102.274301 L135.794925,100.429805 C136.05228,100.314485 136.08189,100.097042 136.07685,99.9776366 C136.072125,99.8579172 136.024245,99.6426737 135.7587,99.5484065 L107.796465,89.5570216 C107.606205,89.4897776 107.457525,89.5513655 107.36649,89.6154672 C107.234505,89.7084776 107.15544,89.8508211 107.15544,89.9959927 C107.15544,90.0538099 107.163315,90.1012578 107.18253,90.1502767 L117.204255,118.060607 C117.29781,118.322042 117.514215,118.369175 117.63423,118.373575 C117.75078,118.379545 117.97317,118.348751 118.088145,118.093915 L119.937825,114.011201 C120.33504,113.134516 121.137345,112.507638 122.084865,112.335129 C122.26095,112.303078 122.43735,112.287367 122.611545,112.287367 Z" id="Shape-Copy-9" fill="#FFFFFF"></path>
            <path d="M126.70812,111.123167 C125.61381,110.031552 124.1604,109.430127 122.61627,109.430127 C120.77163,109.430127 119.058975,110.308698 117.977265,111.742817 L111.584025,93.9448474 L129.42657,100.320455 C128.278395,101.182058 127.47735,102.450581 127.209915,103.889727 C126.86373,105.754019 127.45719,107.672357 128.79657,109.021322 L134.69274,114.895113 L132.58917,116.99036 L126.70812,111.123167 Z" id="Path-Copy-2" fill="#F58E6F"></path>
            <path d="M146.987505,107.642506 L131.9724,107.642506 C131.646375,107.642506 131.333895,107.513046 131.103945,107.283034 L130.83462,107.013744 C130.151385,106.325907 129.850245,105.353383 130.026015,104.408825 C130.201155,103.466781 130.82895,102.668652 131.704965,102.274301 L135.79524,100.429805 C136.052595,100.314485 136.082205,100.097042 136.077165,99.9776366 C136.07244,99.8579172 136.02456,99.6426737 135.759015,99.5484065 L107.79678,89.5570216 C107.55234,89.4696672 107.38035,89.5909578 107.29971,89.6717134 C107.2197,89.7515263 107.1,89.9218358 107.188515,90.1672448 L112.876155,106.005398 C113.01129,106.380582 112.95459,106.797243 112.724325,107.123094 C112.49406,107.44863 112.120155,107.642506 111.720735,107.642506 L13.738095,107.642506 C13.06053,107.642506 12.510855,107.094185 12.510855,106.418289 L12.510855,15.1082108 C12.510855,14.4320004 13.06053,13.8839935 13.738095,13.8839935 L146.987505,13.8839935 C147.66507,13.8839935 148.214745,14.4323147 148.214745,15.1082108 L148.214745,106.418289 C148.21506,107.094499 147.66507,107.642506 146.987505,107.642506 Z M132.500655,105.193757 L145.760265,105.193757 L145.760265,16.332428 L14.965335,16.332428 L14.965335,105.193757 L109.97784,105.193757 L104.87988,90.9964823 C104.491485,89.924978 104.75199,88.7535504 105.56154,87.9434806 C106.37109,87.1321539 107.546355,86.8663203 108.624285,87.2515591 L136.584945,97.2423155 C137.717055,97.6442082 138.481245,98.6792625 138.529755,99.8783418 C138.57858,101.076478 137.901645,102.169036 136.805445,102.661739 L132.7158,104.505921 C132.515145,104.596103 132.45687,104.76327 132.440175,104.854709 C132.425685,104.930123 132.41907,105.062097 132.500655,105.193757 Z" id="Shape-Copy-10" fill="#4A555F"></path>
            <path d="M146.98845,107.639364 L131.97429,107.639364 C131.64921,107.639364 131.33736,107.510532 131.10741,107.281462 L130.837455,107.012487 C130.152645,106.322765 129.852135,105.349612 130.027905,104.405055 C130.203045,103.463011 130.83084,102.665196 131.706855,102.271159 L135.7965,100.426977 C136.053855,100.311343 136.084095,100.094214 136.07937,99.9748086 C136.074645,99.854775 136.026765,99.6398457 135.76059,99.5455784 L107.7993,89.5535651 C107.55234,89.4658966 107.38287,89.5887582 107.30223,89.6685711 C107.22222,89.7483841 107.101575,89.9190078 107.191035,90.1644168 L112.878675,106.002256 C113.01381,106.37744 112.95711,106.794101 112.726845,107.119951 C112.49658,107.445487 112.122675,107.639364 111.723255,107.639364 L13.73967,107.639364 C13.062105,107.639364 12.51243,107.091043 12.51243,106.415147 L12.51243,15.1050685 C12.51243,14.4288582 13.062105,13.8808513 13.73967,13.8808513 L146.98845,13.8808513 C147.666015,13.8808513 148.21569,14.4291724 148.21569,15.1050685 L148.21569,106.415147 C148.21569,107.091043 147.666015,107.639364 146.98845,107.639364 Z M132.50223,105.190615 L145.760895,105.190615 L145.760895,16.3292858 L14.96691,16.3292858 L14.96691,105.190615 L109.979415,105.190615 L104.88051,90.9933401 C104.492115,89.9215216 104.753565,88.7504082 105.5628,87.9400241 C106.37298,87.1286974 107.546985,86.863178 108.625545,87.2481026 L136.584315,97.2388591 C137.71737,97.6410659 138.48219,98.6761203 138.5307,99.8748853 C138.579525,101.073022 137.90259,102.165579 136.80639,102.658283 L132.716115,104.502464 C132.516405,104.592332 132.45813,104.7595 132.44112,104.851253 C132.42726,104.926981 132.42096,105.058955 132.50223,105.190615 Z" id="Shape-Copy-11" fill="#FFFFFF"></path>
            <path d="M27.2979,100.048023 L24.843105,100.048023 L24.843105,31.4943711 C24.843105,26.7913784 28.68264,22.9650711 33.401655,22.9650711 L127.326465,22.9650711 C132.045795,22.9650711 135.885015,26.7913784 135.885015,31.4943711 L135.885015,91.6824336 L133.43022,91.6824336 L133.43022,31.4943711 C133.43022,28.1415996 130.691925,25.4138198 127.32615,25.4138198 L33.40197,25.4138198 C30.036195,25.4138198 27.2979,28.1415996 27.2979,31.4943711 L27.2979,100.048023 Z" id="Path-Copy-3" fill="#FFFFFF"></path>
            <path d="M30.16188,44.0337996 L30.16188,100.047709 L104.50188,100.047709 L101.756655,91.7917836 C100.25379,87.2722978 104.56992,82.9815672 109.09521,84.4961276 L130.56687,91.6821194 L130.56687,44.0337996 L30.16188,44.0337996 Z" id="Path-Copy-4" fill="#FFD452"></path>
            <rect id="Rectangle-Copy-19" fill="#FFFFFF" x="26.069715" y="38.2932388" width="108.62271" height="2.44874871"></rect>
            <ellipse id="Oval-Copy-2" fill="#F58E6F" cx="37.67022" cy="31.9182595" rx="3.212055" ry="3.20414353"></ellipse>
            <ellipse id="Oval-Copy-3" fill="#F58E6F" cx="48.156255" cy="31.9182595" rx="3.21237" ry="3.20445776"></ellipse>
            <ellipse id="Oval-Copy-4" fill="#F58E6F" cx="58.64229" cy="31.9182595" rx="3.212055" ry="3.20414353"></ellipse>
            <path d="M51.55416,74.998703 C51.549435,74.998703 51.54534,74.998703 51.540615,74.998703 C51.076305,74.9936754 50.65515,74.7278418 50.45166,74.3121233 L44.720865,62.618272 L46.92618,61.542997 L51.584715,71.0485914 L54.541935,65.3372534 C54.752985,64.9303332 55.17414,64.674869 55.63278,64.674869 L55.63278,64.674869 C56.092365,64.674869 56.512575,64.9306474 56.723625,65.3375677 L59.680215,71.0485914 L64.33875,61.5433112 L66.544065,62.6185862 L60.81327,74.3124375 C60.609465,74.7284703 60.18831,74.9939897 59.724315,74.9990172 C59.242365,74.9867625 58.83255,74.7479522 58.619925,74.3363185 L55.633095,68.5671634 L52.64532,74.3366328 C52.433955,74.743553 52.0128,74.998703 51.55416,74.998703 Z" id="Path-Copy-5" fill="#4A555F"></path>
            <path d="M85.183245,74.998703 C84.724605,74.998703 84.30345,74.743553 84.0924,74.3360043 L81.10557,68.5668491 L78.11874,74.3360043 C77.905485,74.7476379 77.479605,74.9895905 77.01435,74.998703 C76.550985,74.9936754 76.128885,74.7278418 75.92508,74.3121233 L70.19334,62.618272 L72.398655,61.5426828 L77.05782,71.0482772 L80.01441,65.3372534 C80.22546,64.9303332 80.64567,64.6745547 81.105255,64.6745547 C81.56484,64.6745547 81.98505,64.9303332 82.1961,65.3372534 L85.15269,71.0482772 L89.811225,61.542997 L92.01654,62.618272 L86.285745,74.3121233 C86.08194,74.728156 85.660785,74.9936754 85.196475,74.998703 C85.19175,74.998703 85.18797,74.998703 85.183245,74.998703 Z" id="Path-Copy-6" fill="#4A555F"></path>
            <path d="M110.656035,74.998703 C110.197395,74.998703 109.77624,74.743553 109.56519,74.3360043 L106.57836,68.5668491 L103.59153,74.3360043 C103.378275,74.7476379 102.96909,74.9895905 102.48714,74.998703 C102.02283,74.9936754 101.601675,74.7278418 101.398185,74.3121233 L95.66739,62.618272 L97.872705,61.542997 L102.53124,71.0482772 L105.48783,65.3372534 C105.69888,64.9303332 106.11909,64.6745547 106.578675,64.6745547 C107.03826,64.6745547 107.45847,64.9303332 107.66952,65.3372534 L110.62611,71.0482772 L115.284645,61.542997 L117.48996,62.618272 L111.759165,74.3121233 C111.55536,74.728156 111.134205,74.9936754 110.67021,74.998703 C110.664855,74.998703 110.661075,74.998703 110.656035,74.998703 Z" id="Path-Copy-7" fill="#4A555F"></path>
            <rect id="Rectangle-Copy-20" fill="#4A555F" x="67.269195" y="72.152775" width="2.454795" height="2.35165345"></rect>
            <rect id="Rectangle-Copy-21" fill="#4A555F" x="92.9754" y="72.152775" width="2.454795" height="2.35165345"></rect>
        </g>
    </g>
</svg>