<?xml version="1.0" encoding="UTF-8"?>
<svg width="200px" height="200px" viewBox="0 0 200 200" version="1.1" xmlns="http://www.w3.org/2000/svg" xmlns:xlink="http://www.w3.org/1999/xlink">
    <!-- Generator: Sketch 53.2 (72643) - https://sketchapp.com -->
    <title>3.4-everywhere-application</title>
    <desc>Created with Sketch.</desc>
    <g id="3.4-everywhere-application" stroke="none" stroke-width="1" fill="none" fill-rule="evenodd">
        <g id="NETWORK-Copy-2" transform="translate(30.000000, 20.000000)" fill-rule="nonzero">
            <path d="M69.606152,39.5897943 C47.932192,39.5897943 30.2995,57.2001947 30.2995,78.846754 C30.2995,100.493006 47.9325,118.103406 69.606152,118.103406 C91.279188,118.103406 108.912188,100.493006 108.912188,78.846754 C108.912188,57.2005023 91.279188,39.5897943 69.606152,39.5897943 Z M69.606152,115.956592 C49.117684,115.956592 32.448416,99.3090124 32.448416,78.846754 C32.448416,58.384188 49.117376,41.7366088 69.606152,41.7366088 C90.094004,41.7366088 106.762964,58.384188 106.762964,78.846754 C106.762964,99.3090124 90.094004,115.956592 69.606152,115.956592 Z" id="Shape" fill="#4A555F"></path>
            <path d="M69.606152,44.4632694 C50.623188,44.4632694 35.178836,59.8877887 35.178836,78.846754 C35.178836,97.8057193 50.623188,113.229931 69.606152,113.229931 C88.589424,113.229931 104.032852,97.8057193 104.032852,78.846754 C104.032852,59.8877887 88.589116,44.4632694 69.606152,44.4632694 Z" id="Path" fill="#71CCE0"></path>
            <path d="M69.606152,39.6005607 C57.624028,39.6005607 47.875828,57.2063469 47.875828,78.846754 C47.875828,100.487161 57.624028,118.09264 69.606152,118.09264 C81.588276,118.09264 91.336476,100.486853 91.336476,78.846754 C91.336476,57.2060393 81.588276,39.6005607 69.606152,39.6005607 Z M69.606152,115.946133 C58.809212,115.946133 50.025052,99.3034754 50.025052,78.846754 C50.025052,58.3900326 58.80952,41.7470676 69.606152,41.7470676 C80.402784,41.7470676 89.187252,58.389725 89.187252,78.846754 C89.187252,99.3034754 80.403092,115.946133 69.606152,115.946133 Z" id="Shape" fill="#4A555F"></path>
            <rect id="Rectangle" fill="#4A555F" x="31.373804" y="77.7735005" width="76.463772" height="2.14681451"></rect>
            <path d="M97.562388,52.8530414 C97.444116,52.9650117 85.595048,64.0503756 69.299076,64.0503756 C53.053616,64.0503756 41.781124,52.9834683 41.669012,52.8718057 L40.1478,54.388326 C40.629204,54.8706595 52.136392,66.1971901 69.299076,66.1971901 C86.445744,66.1971901 98.537824,54.8894237 99.043868,54.4077055 L97.562388,52.8530414 Z" id="Path" fill="#4A555F"></path>
            <path d="M69.912304,90.8690998 C52.766252,90.8690998 40.674172,102.177174 40.168128,102.658584 L41.649916,104.213556 C41.768188,104.101586 53.617256,93.0159143 69.912304,93.0159143 C86.15838,93.0159143 97.430872,104.082822 97.543292,104.194484 L99.064504,102.677964 C98.582792,102.195938 87.075296,90.8690998 69.912304,90.8690998 Z" id="Path" fill="#4A555F"></path>
            <rect id="Rectangle" fill="#4A555F" x="68.53154" y="40.6738142" width="2.149224" height="76.345572"></rect>
            <path d="M68.464704,29.5539979 L70.7476,29.5539979 L70.7476,27.273988 L68.464704,27.273988 L68.464704,29.5539979 L68.464704,29.5539979 Z M68.464704,34.1140177 L70.7476,34.1140177 L70.7476,31.8340078 L68.464704,31.8340078 L68.464704,34.1140177 L68.464704,34.1140177 Z M68.464704,24.9939781 L70.7476,24.9939781 L70.7476,22.7139681 L68.464704,22.7139681 L68.464704,24.9939781 L68.464704,24.9939781 Z M68.464704,20.4339582 L70.7476,20.4339582 L70.7476,18.1539483 L68.464704,18.1539483 L68.464704,20.4339582 L68.464704,20.4339582 Z M68.464704,13.5939285 L68.464704,15.8739384 L70.7476,15.8739384 L70.7476,13.5939285 L68.464704,13.5939285 Z" id="Shape" fill="#4A555F"></path>
            <path d="M68.464704,143.112765 L70.7476,143.112765 L70.7476,140.832755 L68.464704,140.832755 L68.464704,143.112765 L68.464704,143.112765 Z M68.464704,133.993033 L70.7476,133.993033 L70.7476,131.713023 L68.464704,131.713023 L68.464704,133.993033 L68.464704,133.993033 Z M68.464704,138.553052 L70.7476,138.553052 L70.7476,136.273042 L68.464704,136.273042 L68.464704,138.553052 L68.464704,138.553052 Z M68.464704,129.433013 L70.7476,129.433013 L70.7476,127.153003 L68.464704,127.153003 L68.464704,129.433013 L68.464704,129.433013 Z M68.464704,122.592983 L68.464704,124.872993 L70.7476,124.872993 L70.7476,122.592983 L68.464704,122.592983 Z" id="Shape" fill="#4A555F"></path>
            <path d="M69.606152,0 C66.919776,0 64.734208,2.18249735 64.734208,4.86547717 C64.734208,7.54845699 66.919776,9.73095434 69.606152,9.73095434 C72.292528,9.73095434 74.477172,7.54845699 74.477172,4.86547717 C74.477172,2.18249735 72.292528,0 69.606152,0 Z M69.606152,7.58444743 C68.10496,7.58444743 66.883432,6.36477133 66.883432,4.86547717 C66.883432,3.36618301 68.10496,2.14681451 69.606152,2.14681451 C71.107344,2.14681451 72.328256,3.36649062 72.328256,4.86547717 C72.328256,6.36477133 71.107344,7.58444743 69.606152,7.58444743 Z" id="Shape" fill="#4A555F"></path>
            <path d="M69.606152,147.765375 C66.919776,147.765375 64.734208,149.947873 64.734208,152.630852 C64.734208,155.313832 66.919776,157.49633 69.606152,157.49633 C72.292528,157.49633 74.477172,155.313832 74.477172,152.630852 C74.477172,149.94818 72.292528,147.765375 69.606152,147.765375 Z M69.606152,155.349823 C68.10496,155.349823 66.883432,154.130147 66.883432,152.630852 C66.883432,151.131558 68.10496,149.91219 69.606152,149.91219 C71.107344,149.91219 72.328256,151.131866 72.328256,152.630852 C72.328256,154.130147 71.107344,155.349823 69.606152,155.349823 Z" id="Shape" fill="#4A555F"></path>
            <path d="M138.23348,42.633909 C137.327652,41.2785766 135.811676,40.4692531 134.178044,40.4692531 C133.214928,40.4692531 132.281072,40.7525625 131.476884,41.2884202 C130.39488,42.0100747 129.658452,43.109475 129.403428,44.3839058 C129.149328,45.6583366 129.407124,46.9558382 130.129384,48.0364743 C131.035212,49.3918067 132.551188,50.2011303 134.18482,50.2011303 C135.147936,50.2011303 136.0821,49.9178209 136.88598,49.3819632 C137.967984,48.6603087 138.704412,47.5609083 138.959128,46.2864775 C139.213536,45.0120467 138.95574,43.7148527 138.23348,42.633909 Z M136.851176,45.866589 C136.708572,46.5787076 136.2977,47.193006 135.692788,47.5962835 C135.243108,47.8958963 134.72228,48.0543158 134.18482,48.0543158 C133.2716,48.0543158 132.423676,47.6021281 131.917632,46.8447908 C131.514152,46.2409512 131.370008,45.5162205 131.511996,44.8041019 C131.6546,44.0919834 132.06578,43.477685 132.670384,43.0744074 C133.120064,42.7747947 133.640892,42.6163752 134.178044,42.6163752 C135.091264,42.6163752 135.939496,43.0685628 136.445232,43.8259002 C136.84902,44.4297398 136.993164,45.1544704 136.851176,45.866589 Z" id="Shape" fill="#4A555F"></path>
            <path d="M9.086308,109.460778 C8.18048,108.105446 6.663888,107.296737 5.030256,107.296737 C4.06714,107.296737 3.132976,107.579739 2.328788,108.115597 C1.246784,108.837251 0.510356,109.936652 0.256256,111.21139 C0.002156,112.485821 0.259952,113.783322 0.982212,114.863959 C1.88804,116.219599 3.4034,117.028615 5.03734,117.028615 C6.000456,117.028615 6.93462,116.745305 7.7385,116.209447 C8.820504,115.487793 9.556932,114.388393 9.811648,113.113962 C10.066364,111.839223 9.808568,110.541722 9.086308,109.460778 Z M7.704004,112.694073 C7.5614,113.406192 7.15022,114.02049 6.545616,114.423768 C6.095936,114.723381 5.575108,114.8818 5.037648,114.8818 C4.123504,114.8818 3.276504,114.42992 2.77046,113.672275 C2.366364,113.068128 2.222836,112.34309 2.364824,111.630971 C2.506812,110.918852 2.917684,110.304554 3.522596,109.901584 C3.972276,109.602279 4.493104,109.443552 5.030564,109.443552 C5.944708,109.443552 6.792632,109.895739 7.298676,110.653077 C7.701848,111.256916 7.845992,111.981955 7.704004,112.694073 Z" id="Shape" fill="#4A555F"></path>
            <path d="M138.956664,111.223079 C138.702564,109.948648 137.966136,108.849248 136.884132,108.127286 C136.079944,107.591121 135.14578,107.307504 134.182048,107.307504 C132.548724,107.307504 131.032748,108.11652 130.12692,109.471237 C128.635276,111.702337 129.239572,114.72984 131.473496,116.219599 C132.277684,116.755764 133.211848,117.039381 134.17558,117.039381 C135.808288,117.039381 137.324264,116.230365 138.230092,114.875648 C138.952968,113.795012 139.210764,112.497818 138.956664,111.223079 Z M136.441844,113.683349 C135.9358,114.440686 135.088492,114.892566 134.175272,114.892566 C133.63812,114.892566 133.116368,114.734147 132.666688,114.434534 C131.418364,113.60214 131.080796,111.910281 131.914552,110.663843 C132.420596,109.906506 133.26852,109.454626 134.18174,109.454626 C134.7192,109.454626 135.240644,109.613045 135.690324,109.912658 C136.29462,110.315936 136.706108,110.930234 136.848096,111.64266 C136.990084,112.354779 136.846248,113.079509 136.441844,113.683349 Z" id="Shape" fill="#4A555F"></path>
            <path d="M7.750204,41.276731 C6.94694,40.7405657 6.011852,40.4569487 5.049044,40.4569487 C3.41572,40.4569487 1.899744,41.2659646 0.993608,42.6206818 C-0.497728,44.8517816 0.10626,47.8792853 2.340184,49.3693512 C3.143448,49.9055165 4.078228,50.1891335 5.041344,50.1891335 C6.674668,50.1891335 8.190644,49.3801175 9.09678,48.0254004 C10.588116,45.7939929 9.98382,42.7664892 7.750204,41.276731 Z M7.308532,46.832794 C6.802488,47.5898237 5.95518,48.0420113 5.041344,48.0420113 C4.504808,48.0420113 3.983056,47.8835919 3.533684,47.5839791 C2.28536,46.7512772 1.947792,45.0597264 2.781548,43.8129805 C3.287592,43.0556432 4.1349,42.6037632 5.048736,42.6037632 C5.585272,42.6037632 6.107024,42.7621827 6.556396,43.0617954 C7.805028,43.8944973 8.142596,45.5860481 7.308532,46.832794 Z" id="Shape" fill="#4A555F"></path>
            <polygon id="Rectangle" fill="#4A555F" transform="translate(37.140846, 24.752726) rotate(-32.548976) translate(-37.140846, -24.752726) " points="2.811325 23.659277 71.4691345 23.6986559 71.4703669 25.8461759 2.81255738 25.806797"></polygon>
            <polygon id="Rectangle" fill="#4A555F" transform="translate(102.351281, 24.752979) rotate(-57.458936) translate(-102.351281, -24.752979) " points="101.257801 -9.577902 103.405386 -9.57666975 103.444761 59.0838606 101.297176 59.0826283"></polygon>
            <polygon id="Rectangle" fill="#4A555F" transform="translate(102.344425, 132.831759) rotate(-32.548976) translate(-102.344425, -132.831759) " points="68.0145957 131.73831 136.673021 131.777689 136.674253 133.925209 68.0158281 133.88583"></polygon>
            <polygon id="Rectangle" fill="#4A555F" transform="translate(37.141164, 132.833775) rotate(-57.458936) translate(-37.141164, -132.833775) " points="36.0476843 98.5032017 38.1952695 98.5044339 38.2346445 167.164349 36.0870594 167.163116"></polygon>
            <rect id="Rectangle" fill="#4A555F" x="3.95934" y="49.1143419" width="2.149224" height="59.2667228"></rect>
            <rect id="Rectangle" fill="#4A555F" x="133.10682" y="49.1143419" width="2.149224" height="59.2667228"></rect>
            <path d="M15.66796,104.465489 L16.704072,106.497565 L18.73872,105.463686 L17.702916,103.43161 L15.66796,104.465489 Z M11.598664,106.533248 L12.634468,108.565324 L14.669116,107.531444 L13.633312,105.499368 L11.598664,106.533248 Z M29.910804,97.2286418 L27.876156,98.2625211 L28.91196,100.294597 L30.946608,99.2607175 L29.910804,97.2286418 Z M23.80686,100.33028 L24.842664,102.362355 L26.877312,101.328476 L25.841508,99.2964004 L23.80686,100.33028 Z M19.737564,102.398038 L20.772752,104.430114 L22.808324,103.396235 L21.773136,101.364159 L19.737564,102.398038 Z" id="Shape" fill="#4A555F"></path>
            <path d="M115.479056,53.5104053 L116.514244,55.5424811 L118.549508,54.5086018 L117.51432,52.476526 L115.479056,53.5104053 Z M111.40976,55.5778563 L112.445872,57.609932 L114.48052,56.5760527 L113.444716,54.543977 L111.40976,55.5778563 Z M107.340464,57.6456149 L108.376268,59.6776906 L110.410916,58.6438113 L109.375112,56.6117356 L107.340464,57.6456149 Z M125.652296,48.3410088 L123.617648,49.3748881 L124.653452,51.4069639 L126.6881,50.3730846 L125.652296,48.3410088 Z M119.548352,51.4426467 L120.584464,53.4747225 L122.619112,52.4408432 L121.583308,50.4087674 L119.548352,51.4426467 Z" id="Shape" fill="#4A555F"></path>
            <path d="M19.73818,54.1071699 L21.772828,55.1407416 L22.8074,53.1086658 L20.772752,52.0750942 L19.73818,54.1071699 Z M11.598664,49.9719604 L13.633928,51.0058396 L14.6685,48.9737639 L12.634468,47.9398846 L11.598664,49.9719604 Z M15.66796,52.0394113 L17.702608,53.0732906 L18.738412,51.0412149 L16.703764,50.0073356 L15.66796,52.0394113 Z M23.807476,56.1746209 L25.841508,57.2085002 L26.877312,55.1764244 L24.84174,54.1425451 L23.807476,56.1746209 Z M28.911344,56.2103037 L27.87708,58.2423795 L29.912344,59.2762588 L30.946916,57.244183 L28.911344,56.2103037 Z" id="Shape" fill="#4A555F"></path>
            <path d="M115.479056,102.994803 L117.51432,104.028682 L118.549508,101.996606 L116.514244,100.962727 L115.479056,102.994803 Z M107.340464,98.8592857 L109.375112,99.893165 L110.410916,97.8610892 L108.376268,96.8272099 L107.340464,98.8592857 Z M111.40976,100.927044 L113.444408,101.960924 L114.480212,99.9288478 L112.445564,98.8949685 L111.40976,100.927044 Z M119.548968,105.062561 L121.583616,106.096133 L122.618188,104.064057 L120.58354,103.030486 L119.548968,105.062561 Z M124.65376,105.097937 L123.617956,107.130012 L125.652604,108.163892 L126.688408,106.131816 L124.65376,105.097937 Z" id="Shape" fill="#4A555F"></path>
        </g>
    </g>
</svg>