<?xml version="1.0" encoding="utf-8"?>
<!-- Generator: Adobe Illustrator 22.0.1, SVG Export Plug-In . SVG Version: 6.00 Build 0)  -->
<svg version="1.1" id="Layer_1" xmlns="http://www.w3.org/2000/svg" xmlns:xlink="http://www.w3.org/1999/xlink" x="0px" y="0px"
	 viewBox="0 0 90 89" style="enable-background:new 0 0 90 89;" xml:space="preserve">
<path d="M61.1,6.5c-4.3,0.2-9.2,2.6-12.2,5.7c-2.7,2.8-4.7,6.9-3.9,10.9c4.7,0.1,9.4-2.3,12.2-5.4C59.8,14.8,61.8,10.7,61.1,6.5z
	 M61.3,23.1c-6.7,0-9.6,4.1-14.2,4.1c-4.8,0-9.2-3.9-15-3.9c-7.9,0-19.9,7.3-19.9,24.6c0,15.7,14.2,33.1,22.3,33.1
	c4.9,0,6.1-3.1,12.7-3.1c6.6,0,8.1,3.1,12.9,3.1c5.5,0,9.8-6.1,12.9-10.9c2.3-3.4,3.2-5.2,4.9-9.1c-13-3.3-15.5-24.2,0-28.5
	C75,27.7,66.4,23.1,61.3,23.1z"/>
</svg>
