<?xml version="1.0" encoding="utf-8"?>
<!-- Generator: Adobe Illustrator 22.0.1, SVG Export Plug-In . SVG Version: 6.00 Build 0)  -->
<svg version="1.1" xmlns="http://www.w3.org/2000/svg" xmlns:xlink="http://www.w3.org/1999/xlink" x="0px" y="0px"
	 viewBox="0 0 550 550" style="enable-background:new 0 0 550 550;" xml:space="preserve">
<style type="text/css">
	.st0{fill:#EC8D53;}
	.st1{fill:#FFFFFF;}
	.st2{fill:#EC8D53;stroke:#FFFFFF;stroke-width:20;stroke-miterlimit:10;}
</style>
<g id="Layer_1">
	<g>
		<path class="st0" d="M274.2,3.5c-13.8,0-26.4,7.4-33.1,19.4c-10.2,18-3.5,41.3,14.8,51.1c5.6,3.2,12,4.6,18.3,4.6
			c13.8,0,26.4-7.4,33.1-19.4c10.2-18.3,3.5-41.3-14.8-51.1C286.6,5.2,280.2,3.5,274.2,3.5z"/>
	</g>
	<g>
		<path class="st0" d="M56.7,361c-13.8,0-26.4,7.4-33.1,19.4c-10.2,18-3.5,41.3,14.8,51.1c5.6,3.2,12,4.6,18.3,4.6
			c13.8,0,26.4-7.4,33.1-19.4c10.2-18.3,3.5-41.3-14.8-51.1C69.4,362.7,63,361,56.7,361z"/>
	</g>
	<g>
		<path class="st0" d="M481.2,380.4c-13.8,0-26.4,7.4-33.1,19.4c-10.2,18-3.5,41.3,14.8,51.1c5.6,3.2,12,4.6,18.3,4.6
			c13.8,0,26.4-7.4,33.1-19.4c10.2-18.3,3.5-41.3-14.8-51.1C493.9,381.8,487.6,380.4,481.2,380.4z"/>
	</g>
	<path class="st1" d="M368,43.3c-7.4-2.8-15.9,1.1-19,8.5c-2.8,7.4,1.1,15.9,8.5,19c66.6,25.4,114.9,78.3,136.5,141.4l-91,24.3
		c-5.6-15.2-14.1-28.9-25-41.6c-24.3-28.2-58.2-44.8-95.6-47.6c-37-2.5-71.6,9.9-98,31.7l-64.5-63.8c30.3-27.5,68-46.9,108.6-55.4
		c-3.9-9.2-4.9-19.4-2.8-29.3c-94.8,18.7-175.2,89.9-202,186.2c-8.8,32.4-11.6,65.6-8.1,98.7c0.7,7.4,7.1,13,14.5,13
		c0.7,0,1.1,0,1.8,0c8.1-1.1,13.8-8.1,13-16.2c-3.2-29.3-1.1-58.9,7.1-87.4c9.2-33.5,25.7-63.5,47.6-88.5l64.9,63.5
		c-16.9,21.5-27.9,48-30,76.9c-4.2,61,31.4,115.3,85,137.9l-26.8,88.1c-39.1-14.8-72.6-39.5-98.4-71.9c-6.7,7.8-15.2,13-25,15.5
		c33.8,43.7,81.1,76.2,136.1,91.3c23.3,6.3,46.9,9.5,70.5,9.5c56.1,0,110.7-18.3,156.9-53.2c6.3-4.9,7.8-14.1,2.8-20.5
		c-4.9-6.3-14.1-7.8-20.5-2.8c-56.1,42.3-126.6,57.1-194.3,40.5l26.8-88.5c5.3,1.1,10.9,1.8,16.6,2.1c3.2,0.4,6.3,0.4,9.9,0.4
		c72.6,0,133.6-56.8,138.6-129.8c0.7-10.6,0.4-21.2-1.4-31l91-24.3c7.1,34.9,6,71.6-3.9,108.2c-2.1,7.1-4.2,14.1-7.1,21.2
		c4.9,1.1,9.9,2.8,14.5,5.3c4.2,2.5,8.1,5.3,11.6,8.8c3.5-8.8,6.7-18,9.2-27.1C562,225.9,494.3,91.6,368,43.3z M161.4,278.5
		c3.9-58.5,53.2-104.4,111.8-104.4c2.5,0,5.3,0,7.8,0.4c30,2.1,57.1,15.5,76.9,38.1S387.1,264,385,294c-2.1,30-15.9,57.1-38.4,76.9
		C324,390.6,295,400.1,265.4,398C203.7,393.8,157.2,340.2,161.4,278.5z"/>
	<path class="st0" d="M358.2,212.2c-19.7-22.9-47.2-36.7-77.2-38.8c-2.5-0.4-5.3-0.4-7.8-0.4c-58.9,0-108.2,46.2-112.5,105.1
		c-4.2,62.1,42.7,116,104.7,120.2c62.4,4.6,116-43.4,120.2-104.7C387.8,263.7,377.9,234.8,358.2,212.2z"/>
</g>
<g id="Layer_6">
	<g>
		<path class="st2" d="M274.2,145.4c-51.2,0-98.5,27.6-123.4,72.2c-38.1,67-13.1,153.6,55.1,190.4c21,11.8,44.6,17.1,68.3,17.1
			c51.2,0,98.5-27.6,123.4-72.2c38.1-68.3,13.1-153.6-55.1-190.4C321.5,151.9,297.8,145.4,274.2,145.4z"/>
	</g>
	<g>
		<path class="st1" d="M179.7,242.5l-9.6,6.6l-9.1-14.1l20.3-13h17.8v57.3h-19.4V242.5z"/>
		<path class="st1" d="M233.3,281.1c-3.5,0-6.6-0.5-9.2-1.4c-2.6-0.9-4.9-2.2-6.8-3.7c-1.9-1.6-3.5-3.4-4.7-5.4
			c-1.3-2.1-2.3-4.2-3-6.5c-0.7-2.3-1.2-4.6-1.5-6.9c-0.3-2.3-0.4-4.6-0.4-6.7c0-2.1,0.1-4.3,0.4-6.6c0.3-2.3,0.8-4.6,1.5-6.8
			c0.7-2.2,1.7-4.3,3-6.3c1.3-2,2.8-3.8,4.7-5.3c1.9-1.5,4.2-2.7,6.8-3.6c2.6-0.9,5.7-1.3,9.2-1.3c5.3,0,9.6,1,13,2.9
			c3.3,1.9,6,4.3,7.9,7.3c1.9,2.9,3.2,6.2,3.9,9.7c0.7,3.5,1.1,6.9,1.1,10.1c0,2.1-0.1,4.3-0.4,6.7c-0.3,2.3-0.8,4.7-1.5,6.9
			c-0.7,2.3-1.7,4.4-3,6.5c-1.2,2.1-2.8,3.9-4.7,5.4c-1.9,1.6-4.2,2.8-6.8,3.7C239.9,280.6,236.8,281.1,233.3,281.1z M233.3,237.1
			c-1.2,0-2.2,0.4-2.9,1.2c-0.8,0.8-1.4,1.9-1.8,3.2c-0.4,1.3-0.7,2.7-0.9,4.3c-0.2,1.6-0.2,3.1-0.2,4.7c0,1.6,0.1,3.2,0.2,4.8
			c0.2,1.6,0.5,3.1,0.9,4.5c0.4,1.4,1,2.4,1.8,3.3c0.8,0.8,1.7,1.3,2.9,1.3c1.2,0,2.2-0.4,3-1.3c0.8-0.8,1.4-1.9,1.8-3.3
			c0.4-1.3,0.7-2.8,0.9-4.5c0.2-1.6,0.2-3.3,0.2-4.8c0-1.5-0.1-3.1-0.2-4.7c-0.2-1.6-0.4-3-0.9-4.3s-1-2.3-1.8-3.2
			C235.5,237.5,234.5,237.1,233.3,237.1z"/>
		<path class="st1" d="M290,281.1c-3.5,0-6.6-0.5-9.2-1.4c-2.6-0.9-4.9-2.2-6.8-3.7c-1.9-1.6-3.5-3.4-4.7-5.4
			c-1.3-2.1-2.3-4.2-3-6.5c-0.7-2.3-1.2-4.6-1.5-6.9c-0.3-2.3-0.4-4.6-0.4-6.7c0-2.1,0.1-4.3,0.4-6.6c0.3-2.3,0.8-4.6,1.5-6.8
			c0.7-2.2,1.7-4.3,3-6.3c1.3-2,2.8-3.8,4.7-5.3c1.9-1.5,4.2-2.7,6.8-3.6c2.6-0.9,5.7-1.3,9.2-1.3c5.3,0,9.6,1,13,2.9
			c3.3,1.9,6,4.3,7.9,7.3c1.9,2.9,3.2,6.2,3.9,9.7c0.7,3.5,1.1,6.9,1.1,10.1c0,2.1-0.2,4.3-0.4,6.7s-0.8,4.7-1.5,6.9
			c-0.7,2.3-1.7,4.4-3,6.5c-1.2,2.1-2.8,3.9-4.7,5.4c-1.9,1.6-4.2,2.8-6.8,3.7C296.6,280.6,293.5,281.1,290,281.1z M290,237.1
			c-1.2,0-2.2,0.4-2.9,1.2s-1.3,1.9-1.8,3.2c-0.4,1.3-0.7,2.7-0.9,4.3c-0.2,1.6-0.2,3.1-0.2,4.7c0,1.6,0.1,3.2,0.2,4.8
			c0.2,1.6,0.5,3.1,0.9,4.5c0.4,1.4,1,2.4,1.8,3.3c0.8,0.8,1.7,1.3,2.9,1.3c1.2,0,2.2-0.4,3-1.3c0.8-0.8,1.4-1.9,1.8-3.3
			c0.4-1.3,0.7-2.8,0.8-4.5c0.2-1.6,0.2-3.3,0.2-4.8c0-1.5-0.1-3.1-0.2-4.7c-0.2-1.6-0.4-3-0.8-4.3c-0.4-1.3-1-2.3-1.8-3.2
			S291.2,237.1,290,237.1z"/>
		<path class="st1" d="M336.5,252.5c-2.2,0-4.3-0.4-6.2-1.2c-1.9-0.8-3.6-1.9-5.1-3.4c-1.5-1.4-2.6-3.1-3.4-5
			c-0.8-1.9-1.3-3.9-1.3-6.1c0-2.2,0.4-4.3,1.3-6.2c0.8-1.9,2-3.6,3.4-5c1.5-1.4,3.1-2.5,5.1-3.3c1.9-0.8,4-1.2,6.2-1.2
			c2.2,0,4.2,0.4,6.2,1.2c1.9,0.8,3.6,1.9,5.1,3.3c1.4,1.4,2.6,3.1,3.4,5c0.8,1.9,1.3,4,1.3,6.2c0,2.2-0.4,4.2-1.3,6.1
			c-0.8,1.9-2,3.6-3.4,5c-1.4,1.4-3.1,2.6-5.1,3.4C340.7,252.1,338.6,252.5,336.5,252.5z M336.5,232c-1.3,0-2.4,0.5-3.4,1.4
			c-1,0.9-1.5,2.1-1.5,3.4c0,1.3,0.5,2.4,1.5,3.3c1,0.9,2.1,1.4,3.4,1.4c1.2,0,2.3-0.5,3.3-1.4c1-0.9,1.5-2,1.5-3.3
			c0-1.3-0.5-2.5-1.5-3.4C338.8,232.4,337.7,232,336.5,232z M335.2,278.1l34-58.6l7.9,4.5l-33.9,58.4L335.2,278.1z M375.9,280.4
			c-2.2,0-4.3-0.4-6.2-1.2c-1.9-0.8-3.6-1.9-5.1-3.4c-1.5-1.4-2.6-3.1-3.4-5c-0.8-1.9-1.3-3.9-1.3-6.1c0-2.2,0.4-4.3,1.3-6.2
			c0.8-1.9,2-3.6,3.4-5c1.5-1.4,3.1-2.5,5.1-3.3c1.9-0.8,4-1.2,6.2-1.2c2.2,0,4.2,0.4,6.2,1.2c1.9,0.8,3.6,1.9,5.1,3.3
			c1.4,1.4,2.6,3.1,3.4,5c0.8,1.9,1.3,4,1.3,6.2c0,2.2-0.4,4.2-1.3,6.1c-0.8,1.9-2,3.6-3.4,5c-1.4,1.4-3.1,2.6-5.1,3.4
			C380.1,280,378.1,280.4,375.9,280.4z M375.9,259.9c-1.3,0-2.4,0.5-3.4,1.4c-1,0.9-1.5,2.1-1.5,3.4c0,1.3,0.5,2.4,1.5,3.3
			c1,0.9,2.1,1.4,3.4,1.4c1.2,0,2.3-0.5,3.3-1.4c1-0.9,1.5-2,1.5-3.3c0-1.3-0.5-2.5-1.5-3.4C378.3,260.4,377.1,259.9,375.9,259.9z"
			/>
		<path class="st1" d="M198.1,313.3h17.5v15.8h-17.4v19.4h-19v-57.3H218v16.1h-19.8V313.3z"/>
		<path class="st1" d="M226.3,291.2H251c2.8,0,5.6,0.3,8.4,0.9c2.8,0.6,5.3,1.6,7.5,3c2.2,1.4,4,3.3,5.3,5.8c1.3,2.4,2,5.4,2,9
			c0,3.5-0.9,6.6-2.6,9.3s-4.2,4.7-7.4,6.2l14.6,23.2h-22.1l-11-20.5H245v20.5h-18.7V291.2z M244.9,315.4h3.8c0.6,0,1.4-0.1,2.1-0.2
			c0.8-0.1,1.5-0.3,2.2-0.7c0.7-0.4,1.2-0.8,1.7-1.5c0.5-0.6,0.7-1.4,0.7-2.5c0-1-0.2-1.8-0.6-2.4c-0.4-0.6-0.9-1-1.4-1.3
			c-0.6-0.3-1.2-0.5-1.9-0.6c-0.7-0.1-1.3-0.1-1.9-0.1h-4.6V315.4z"/>
		<path class="st1" d="M284.1,291.2h39.4v16h-21.3v4.9h20v15h-20v5.3H325v16h-40.8V291.2z"/>
		<path class="st1" d="M333,291.2h39.4v16h-21.3v4.9h20v15h-20v5.3h22.7v16H333V291.2z"/>
	</g>
</g>
</svg>
