<?xml version="1.0" encoding="utf-8"?>
<!-- Generator: Adobe Illustrator 23.0.0, SVG Export Plug-In . SVG Version: 6.00 Build 0)  -->
<svg version="1.1"
	 id="svg2" xmlns:cc="http://web.resource.org/cc/" xmlns:dc="http://purl.org/dc/elements/1.1/" xmlns:inkscape="http://www.inkscape.org/namespaces/inkscape" xmlns:rdf="http://www.w3.org/1999/02/22-rdf-syntax-ns#" xmlns:sodipodi="http://inkscape.sourceforge.net/DTD/sodipodi-0.dtd" xmlns:svg="http://www.w3.org/2000/svg"
	 xmlns="http://www.w3.org/2000/svg" xmlns:xlink="http://www.w3.org/1999/xlink" x="0px" y="0px" viewBox="0 0 103 102.9"
	 style="enable-background:new 0 0 103 102.9;" xml:space="preserve">
<style type="text/css">
	.st0{fill:#FFFFFF;}
</style>
<sodipodi:namedview  bordercolor="#666666" borderopacity="1.0" id="base" inkscape:current-layer="svg2" inkscape:cx="243.02499" inkscape:cy="71.887497" inkscape:pageopacity="0.0" inkscape:pageshadow="2" inkscape:window-height="543" inkscape:window-width="791" inkscape:window-x="0" inkscape:window-y="0" inkscape:zoom="1.4340089" pagecolor="#ffffff">
	</sodipodi:namedview>
<g id="g2303">
	<path id="path1948" class="st0" d="M51.3,11.4c-3.2,0-6.3,0.3-9,0.8c-8,1.4-9.4,4.4-9.4,9.8v7.2h18.8v2.4H32.8h-7.1
		c-5.5,0-10.3,3.3-11.8,9.6c-1.7,7.2-1.8,11.7,0,19.2c1.3,5.6,4.5,9.6,10,9.6h6.5v-8.6c0-6.2,5.4-11.7,11.8-11.7h18.8
		c5.2,0,9.4-4.3,9.4-9.6V22c0-5.1-4.3-8.9-9.4-9.8C57.8,11.6,54.5,11.4,51.3,11.4z M41.1,17.2c1.9,0,3.5,1.6,3.5,3.6
		c0,2-1.6,3.6-3.5,3.6c-2,0-3.5-1.6-3.5-3.6C37.5,18.8,39.1,17.2,41.1,17.2z"/>
	<path id="path1950" class="st0" d="M72.8,31.5v8.4c0,6.5-5.5,12-11.8,12H42.2c-5.2,0-9.4,4.4-9.4,9.6v17.9c0,5.1,4.4,8.1,9.4,9.6
		c6,1.8,11.7,2.1,18.8,0c4.7-1.4,9.4-4.1,9.4-9.6v-7.2H51.7v-2.4h18.8h9.4c5.5,0,7.5-3.8,9.4-9.6c2-5.9,1.9-11.6,0-19.2
		c-1.4-5.5-3.9-9.6-9.4-9.6H72.8z M62.3,77c2,0,3.5,1.6,3.5,3.6c0,2-1.6,3.6-3.5,3.6c-1.9,0-3.5-1.6-3.5-3.6
		C58.7,78.6,60.3,77,62.3,77z"/>
</g>
</svg>
