<?xml version="1.0" encoding="utf-8"?>
<!-- Generator: Adobe Illustrator 22.0.1, SVG Export Plug-In . SVG Version: 6.00 Build 0)  -->
<svg version="1.1" id="Layer_1" xmlns="http://www.w3.org/2000/svg" xmlns:xlink="http://www.w3.org/1999/xlink" x="0px" y="0px"
	 viewBox="0 0 90 89" style="enable-background:new 0 0 90 89;" xml:space="preserve">
<style type="text/css">
	.st0{fill:#617EB5;}
	.st1{fill:#FFFFFF;}
</style>
<g id="Layer_3">
</g>
<g id="Layer_4">
</g>
<g id="Layer_5">
</g>
<rect class="st0" width="90" height="89"/>
<g id="surface1_2_">
	<path class="st1" d="M45,22c-10,0-19,2.1-25.7,5.6S8.1,36.1,8.1,42s4.5,10.9,11.2,14.4S35,62,45,62s19-2.1,25.7-5.6
		S81.9,47.9,81.9,42s-4.5-10.9-11.2-14.4S55,22,45,22z M45,25.1c9.5,0,18.2,2,24.3,5.2c6.1,3.2,9.5,7.4,9.5,11.7s-3.4,8.5-9.5,11.7
		c-6.1,3.2-14.7,5.2-24.3,5.2s-18.2-2-24.3-5.2c-6.1-3.2-9.5-7.4-9.5-11.7s3.4-8.5,9.5-11.7C26.8,27.1,35.5,25.1,45,25.1z
		 M41.2,28.2l-3.9,18.4h4l1.9-9.2h3.2c1,0,1.7,0.2,2,0.5c0.3,0.3,0.4,1,0.2,1.9l-1.5,6.8h4.1l1.6-7.3c0.3-1.8,0.1-3-0.8-3.8
		c-0.9-0.8-2.4-1.1-4.7-1.1h-3.6l1.3-6.1H41.2z M23.5,34.3l-3.1,16.9h4.1l0.8-4.6h2.5c5.3,0,8.2-1.2,9.3-5.8
		c0.9-3.9-1.4-6.5-5.3-6.5H23.5z M55.8,34.3l-3.1,16.9h4.1l0.8-4.6h2.5c5.3,0,8.2-1.2,9.3-5.8c0.9-3.9-1.4-6.5-5.3-6.5H55.8z
		 M27,37.4h3.2c2.6,0,3.2,1.2,3,2.5c-0.4,3.4-2.5,3.7-4.7,3.7h-2.6L27,37.4z M59.3,37.4h3.2c2.6,0,3.2,1.2,3,2.5
		c-0.4,3.4-2.5,3.7-4.7,3.7h-2.6L59.3,37.4z"/>
</g>
</svg>
