<?xml version="1.0" encoding="utf-8"?>
<!-- Generator: Adobe Illustrator 22.0.1, SVG Export Plug-In . SVG Version: 6.00 Build 0)  -->
<svg version="1.1" xmlns="http://www.w3.org/2000/svg" xmlns:xlink="http://www.w3.org/1999/xlink" x="0px" y="0px"
	 viewBox="0 0 90 89" style="enable-background:new 0 0 90 89;" xml:space="preserve">
<style type="text/css">
	.st0{fill:#E96F00;}
	.st1{fill:#FFFFFF;}
	.st2{fill:#8EC635;}
</style>
<g id="Layer_1">
	<rect class="st0" width="90" height="89"/>
	<g id="surface1">
		<path class="st1" d="M49.5,4.5c4.2,9.8-15.2,15.8-17,24C30.9,35.9,44,44.6,44,44.6c-2-3.1-3.5-5.6-5.5-10.5
			C35.2,26,59.2,18.6,49.5,4.5z M62.3,18c0,0-17,1.1-17.9,12c-0.4,4.8,4.5,7.4,4.6,10.9c0.1,2.9-2.9,5.3-2.9,5.3s5.5-1,7.2-5.4
			c1.9-4.9-3.7-8.2-3.1-12.1C50.8,24.9,62.3,18,62.3,18z M35.6,43.1c0,0-15.6-0.2-15.6,4.2c0,4.6,20.4,4.9,34.9,2.1
			c0,0,3.9-2.7,4.9-3.7c-9.5,1.9-31.3,2.2-31.3,0.5C28.6,44.7,35.6,43.1,35.6,43.1z M65.6,43.1c-1.5,0.1-3.2,0.7-4.7,1.8
			c3.5-0.8,6.5,1.4,6.5,3.9c0,5.6-8.1,10.8-8.1,10.8S71.8,58.2,71.8,49C71.8,44.9,68.9,42.8,65.6,43.1z M31.9,51.7
			c-2.4,0-6,1.9-6,3.7c0,3.6,18,6.3,31.3,1.1l-4.6-2.8C43.6,56.5,27,55.5,31.9,51.7z M34.1,59.7c-3.3,0-5.4,2-5.4,3.5
			c0,4.6,19.5,5,27.3,0.4l-4.9-3.1C45.3,62.8,30.8,63.2,34.1,59.7z M23.2,63.8c-5.3-0.1-8.8,2.3-8.8,4.3c0,10.6,54.6,10.1,54.6-0.7
			c0-1.8-2.1-2.7-2.8-3.1c4.5,10.3-44.7,9.5-44.7,3.4c0-1.4,3.6-2.7,7-2.1L25.6,64C24.8,63.9,24,63.8,23.2,63.8z M74.7,70.9
			c-8.3,7.9-29.3,10.7-50.5,5.9C45.4,85.4,74.6,80.6,74.7,70.9z"/>
	</g>
</g>
<g id="Layer_2">
	<rect class="st2" width="90" height="89"/>
	<g>
		<path class="st1" d="M45,82.7c-1.1,0-2.1-0.3-3-0.8l-9.4-5.6c-1.4-0.8-0.7-1.1-0.3-1.2c1.9-0.6,2.3-0.8,4.2-1.9
			c0.2-0.1,0.5-0.1,0.7,0.1l7.2,4.3c0.3,0.1,0.6,0.1,0.8,0l28.2-16.3c0.3-0.1,0.4-0.4,0.4-0.8V27.9c0-0.4-0.1-0.6-0.4-0.8L45.4,10.8
			c-0.3-0.1-0.6-0.1-0.8,0L16.3,27.1c-0.3,0.1-0.4,0.5-0.4,0.8v32.6c0,0.3,0.1,0.6,0.4,0.8l7.7,4.5c4.2,2.1,6.8-0.4,6.8-2.8V30.7
			c0-0.4,0.4-0.8,0.8-0.8h3.6c0.4,0,0.8,0.4,0.8,0.8v32.2c0,5.6-3,8.8-8.4,8.8c-1.6,0-2.9,0-6.5-1.8l-7.4-4.2c-1.8-1.1-3-3-3-5.2V28
			c0-2.1,1.1-4.1,3-5.2L42,6.5c1.8-1,4.2-1,5.9,0l28.2,16.3c1.8,1.1,3,3,3,5.2v32.6c0,2.1-1.1,4.1-3,5.2L48,82.1
			C47.1,82.5,46,82.7,45,82.7L45,82.7z M53.7,60.3c-12.4,0-14.9-5.7-14.9-10.5c0-0.4,0.4-0.8,0.8-0.8h3.7c0.4,0,0.8,0.3,0.8,0.7
			c0.6,3.8,2.2,5.6,9.7,5.6c5.9,0,8.5-1.3,8.5-4.5c0-1.8-0.7-3.2-10-4.1c-7.7-0.8-12.5-2.5-12.5-8.6c0-5.7,4.8-9.1,12.9-9.1
			c9.1,0,13.5,3.1,14.1,9.9c0,0.2-0.1,0.4-0.2,0.6c-0.1,0.1-0.4,0.3-0.6,0.3h-3.7c-0.4,0-0.7-0.3-0.8-0.6c-0.8-3.9-3-5.2-8.8-5.2
			c-6.5,0-7.3,2.3-7.3,4c0,2.1,0.9,2.7,9.7,3.8c8.7,1.1,12.8,2.8,12.8,8.8C67.8,56.8,62.7,60.3,53.7,60.3L53.7,60.3z"/>
	</g>
</g>
<g id="Layer_3">
</g>
<g id="Layer_4">
</g>
<g id="Layer_5">
</g>
<g id="Layer_6">
</g>
</svg>
