<?xml version="1.0" encoding="UTF-8"?>
<svg width="90px" height="90px" viewBox="0 0 90 90" version="1.1" xmlns="http://www.w3.org/2000/svg" xmlns:xlink="http://www.w3.org/1999/xlink">
    <!-- Generator: Sketch 47.1 (45422) - http://www.bohemiancoding.com/sketch -->
    <title>Untitled</title>
    <desc>Created with Sketch.</desc>
    <defs></defs>
    <g id="Page-1" stroke="none" stroke-width="1" fill="none" fill-rule="evenodd">
        <rect id="Rectangle-Copy" x="0" y="0" width="90" height="90"></rect>
        <g id="Go-Logo_Aqua-Copy" transform="translate(3.000000, 28.000000)" fill-rule="nonzero" fill="#FFFFFF">
            <path d="M5.91977996,9.25467836 C5.76150628,9.25467836 5.72193785,9.16403509 5.8010747,9.02807018 L6.63201155,7.80438596 C6.7111484,7.66842105 6.90899051,7.57777778 7.06726419,7.57777778 L21.1931907,7.57777778 C21.3514644,7.57777778 21.3910329,7.71374269 21.311896,7.8497076 L20.6392328,9.02807018 C20.560096,9.16403509 20.3622539,9.3 20.2435486,9.3 L5.91977996,9.25467836 Z" id="Shape"></path>
            <path d="M0.159083148,12.7444444 C-1.2244263e-15,12.7444444 -0.0397707871,12.66997 0.0397707871,12.5582583 L0.874957316,11.5528529 C0.95449889,11.4411411 1.15335283,11.3666667 1.31243597,11.3666667 L19.4479149,11.3666667 C19.606998,11.3666667 19.6865396,11.4783784 19.6467688,11.5900901 L19.3286025,12.4837838 C19.2888317,12.6327327 19.1297486,12.7072072 18.9706654,12.7072072 L0.159083148,12.7444444 Z" id="Shape"></path>
            <path d="M9.64799218,16.497076 C9.48953975,16.497076 9.44992664,16.3883041 9.52915286,16.2795322 L10.0837363,15.3730994 C10.1629626,15.2643275 10.321415,15.1555556 10.4798674,15.1555556 L18.4024887,15.1555556 C18.5609412,15.1555556 18.6401674,15.2643275 18.6401674,15.4093567 L18.5609412,16.2795322 C18.5609412,16.4245614 18.4024887,16.5333333 18.2836494,16.5333333 L9.64799218,16.497076 Z" id="Shape"></path>
            <g id="CXHf1q_1_" transform="translate(21.351464, 0.000000)">
                <g id="Group">
                    <path d="M29.2277824,8.64144872 C26.7428293,9.28370513 25.0467501,9.76539744 22.6012407,10.4076538 C22.0095851,10.5682179 21.9701414,10.608359 21.4573733,10.0062436 C20.8657178,9.32384615 20.4318371,8.88229487 19.6035194,8.48088462 C17.1185662,7.23651282 14.7125005,7.59778205 12.4642095,9.083 C9.78203784,10.8492051 8.40150831,13.4583718 8.44095201,16.7097949 C8.48039571,19.9210769 10.6497993,22.5703846 13.7658516,23.0119359 C16.4480233,23.3732051 18.6963143,22.4098205 20.4712808,20.3626282 C20.8262741,19.9210769 21.1418237,19.4393846 21.5362607,18.8774103 C20.1162875,18.8774103 18.341321,18.8774103 13.9236264,18.8774103 C13.0953087,18.8774103 12.8980902,18.3555769 13.1741961,17.6731795 C13.6869642,16.4288077 14.6336131,14.3414744 15.1858249,13.2978077 C15.304156,13.0569615 15.5802619,12.6555513 16.1719174,12.6555513 C18.1835462,12.6555513 25.5989619,12.6555513 30.5294246,12.6555513 C30.4505372,13.739359 30.4505372,14.8231667 30.2927624,15.9069744 C29.8588816,18.7971282 28.7939017,21.4464359 27.0583789,23.7746154 C24.2184324,27.5880128 20.5107245,29.9563333 15.8169241,30.5985897 C11.9514414,31.1204231 8.36206461,30.3577436 5.20656853,27.9492821 C2.28773466,25.7013846 0.631099216,22.7309487 0.197218505,19.0379744 C-0.315549608,14.6626026 0.946648824,10.7287821 3.54993309,7.27665385 C6.35043586,3.54353846 10.0581438,1.17521795 14.5941694,0.33225641 C18.3018773,-0.350141026 21.8518103,0.0914102564 25.0467501,2.29916667 C27.1372663,3.70410256 28.6361269,5.63087179 29.6222194,7.95905128 C29.8588816,8.32032051 29.7011068,8.52102564 29.2277824,8.64144872 Z" id="Shape"></path>
                    <path d="M42.2836475,30.8394359 C38.6942707,30.7591538 35.4204435,29.7154872 32.6593844,27.3070256 C30.3322061,25.2598333 28.8727891,22.6506667 28.3994647,19.5598077 C27.6894781,15.0238718 28.9122328,11.0097692 31.5944045,7.43721795 C34.4737947,3.58367949 37.9448403,1.57662821 42.6386408,0.733666667 C46.6618983,0.0111282051 50.4484936,0.412538462 53.8800955,2.78085897 C56.9961479,4.94847436 58.9288893,7.87876923 59.4416574,11.7323077 C60.1122003,17.1513462 58.573896,21.566859 54.9056318,25.3401154 C52.3023475,28.0295641 49.1074077,29.7154872 45.4391435,30.4781667 C44.3741636,30.6788718 43.3091837,30.7190128 42.2836475,30.8394359 Z M51.6712483,14.6224615 C51.6318046,14.1006282 51.6318046,13.6992179 51.5529172,13.2978077 C50.8429306,9.32384615 47.2535538,7.07594872 43.5064022,7.95905128 C39.838138,8.80201282 37.4715159,11.1703333 36.6037545,14.9435897 C35.8937679,18.0745897 37.3926285,21.2457308 40.232575,22.5302436 C42.4019786,23.4936282 44.5713821,23.3732051 46.6618983,22.2893974 C49.7779506,20.6436154 51.4740298,18.0745897 51.6712483,14.6224615 Z" id="Shape"></path>
                </g>
            </g>
        </g>
    </g>
</svg>