<?xml version="1.0" encoding="utf-8"?>
<!-- Generator: Adobe Illustrator 22.0.1, SVG Export Plug-In . SVG Version: 6.00 Build 0)  -->
<svg version="1.1" id="Layer_1" xmlns="http://www.w3.org/2000/svg" xmlns:xlink="http://www.w3.org/1999/xlink" x="0px" y="0px"
	 viewBox="0 0 90 89" style="enable-background:new 0 0 90 89;" xml:space="preserve">
<style type="text/css">
	.st0{fill:#F10B1C;}
	.st1{fill:#FFFFFF;}
</style>
<g id="Layer_3">
</g>
<g id="Layer_4">
</g>
<g id="Layer_5">
</g>
<rect class="st0" width="90" height="89"/>
<g id="surface1">
	<path class="st1" d="M48.7,9.5c-0.3,0-0.5,0.2-0.7,0.3L34,15c-0.2,0.1-0.4,0.2-0.5,0.3L19.7,28.1c-0.1,0.1-0.2,0.2-0.3,0.3l-9,15.5
		c-0.1,0.1-0.1,0.2-0.1,0.2l0,0.1c0,0,0,0,0,0c0,0,0,0.1,0,0.1c0,0,0,0.1,0,0.1c0,0,0,0,0,0c0,0,0,0,0,0c0,0,0,0.1,0,0.1
		c0,0,0,0,0,0c0,0,0,0.1,0,0.1c0,0,0,0,0,0c0,0,0,0.1,0,0.1c0,0,0,0,0,0c0,0.1,0,0.2,0,0.3v18.8c0,0.1,0,0.1,0,0.2v0
		c0,0.1,0,0.3,0,0.4c0.3,6.6,3,10.5,6.3,12.4c3.1,1.8,6.4,2,8.5,2c0.2,0,0.4,0,0.5,0h0.1c0.1,0,0.2,0,0.2,0h0l48.7-3.3
		c0.1,0,0.2,0,0.3,0c0.2,0,0.3-0.1,0.5-0.1c0.1-0.1,0.2-0.1,0.3-0.2c0,0,0,0,0,0c0.5-0.4,0.7-0.9,0.6-1.5l3.6-47.5c0,0,0-0.1,0-0.1
		l0.1-1.8c0-0.2,0-0.4,0-0.6c0-1.5-0.1-3.1-0.5-4.6c-1.2-4.5-4.7-8.5-11.3-9.6c-0.1,0-0.2,0-0.3,0c0,0-0.1,0-0.1,0L49.2,9.5
		c-0.1,0-0.2,0-0.3,0C48.8,9.5,48.8,9.5,48.7,9.5z M54.1,12.6l7.9,0.1l-4.4,2.4L54.1,12.6z M48.9,12.8l6.9,4.9l-4.9,15.7L32.3,50.7
		L17,54.2l-3.8-9l8.7-15l13.4-12.4L48.9,12.8z M67.9,12.9c5.4,1.1,7.6,3.8,8.5,7.3c0.8,3,0.3,6.5-0.5,9.8L60.2,17.2L67.9,12.9z
		 M58.4,19.6l14.3,11.8l-18.4,1.2L58.4,19.6z M74.6,34.3c-3.2,8.6-8.7,15.9-15,22.7l-5.4-21.4L74.6,34.3z M51.4,37.1l5.3,21L36,51.4
		L51.4,37.1z M75.7,39.8l-2.4,31.3l-12.3-11C66.8,54,72.1,47.4,75.7,39.8z M13.1,52.7l1.4,3.2l-1.4,2.5V52.7z M34.1,54L55.7,61
		c-8.1,7.2-16.9,13-28.1,14.7L34.1,54z M30.9,54.2l-5.7,19.1L18.2,57L30.9,54.2z M16,59.4L23,76c-1.7-0.2-3.5-0.5-5.1-1.5
		c-2.4-1.4-4.5-4-4.7-10L16,59.4z M58.8,62.3L71,73.1l-30.6,2C47.3,72,53.3,67.4,58.8,62.3z"/>
</g>
</svg>
