<?xml version="1.0" encoding="utf-8"?>
<!-- Generator: Adobe Illustrator 22.0.1, SVG Export Plug-In . SVG Version: 6.00 Build 0)  -->
<svg version="1.1" id="Layer_1" xmlns="http://www.w3.org/2000/svg" xmlns:xlink="http://www.w3.org/1999/xlink" x="0px" y="0px"
	 viewBox="0 0 90 89" style="enable-background:new 0 0 90 89;" xml:space="preserve">
<style type="text/css">
	.st0{fill:#8E4EA2;}
	.st1{fill:none;}
	.st2{fill:#FFFFFF;}
</style>
<g id="Layer_3">
</g>
<g id="Layer_4">
</g>
<g id="Layer_5">
</g>
<rect class="st0" width="90" height="89"/>
<path class="st1" d="M43,37.7c-4,0-7.3,3.3-7.3,7.3s3.3,7.3,7.3,7.3c2.7,0,5-1.5,6.3-3.6L42.6,45l6.6-3.8
	C47.9,39.1,45.6,37.7,43,37.7z"/>
<g>
	<path class="st2" d="M43.9,14.7c-16.2,0-29.3,13.2-29.3,29.3c0,16.2,13.2,29.3,29.3,29.3c10.3,0,20-5.5,25.2-14.4l-12.2-6.7
		c-2.8,4.5-7.8,7.2-13,7.2c-8.5,0-15.4-6.9-15.4-15.4s6.9-15.4,15.4-15.4c5.2,0,10,2.6,12.9,7l12.1-6.9C63.6,20,54,14.7,43.9,14.7z"
		/>
</g>
<path class="st2" d="M78.3,42.1v-2.6H74v-4.3h-2.6v4.3h-3.8v-4.3H65v4.3h-4.3v2.6H65v3.8h-4.3v2.6H65v4.3h2.6v-4.3h3.8v4.3H74v-4.3
	h4.3v-2.6H74v-3.8H78.3z M71.4,42.1v3.8h-3.8v-3.8H71.4z"/>
</svg>
