<?xml version="1.0" encoding="utf-8"?>
<!-- Generator: Adobe Illustrator 22.0.1, SVG Export Plug-In . SVG Version: 6.00 Build 0)  -->
<svg version="1.1" xmlns="http://www.w3.org/2000/svg" xmlns:xlink="http://www.w3.org/1999/xlink" x="0px" y="0px"
	 viewBox="0 0 774.2 562.4" style="enable-background:new 0 0 774.2 562.4;" xml:space="preserve">
<style type="text/css">
	.st0{fill:url(#SVGID_1_);}
	.st1{fill:#000077;}
	.st2{fill:#006AFF;}
	.st3{opacity:0.6;fill:#000049;}
	.st4{fill:#006AFF;stroke:#000066;stroke-width:1.7305;}
	.st5{fill:#006AFF;stroke:#000066;stroke-width:0.7392;}
	.st6{fill:#006AFF;stroke:#000066;stroke-width:0.4004;}
	.st7{fill:#006AFF;stroke:#000066;stroke-width:1.5383;}
	.st8{fill:#006AFF;stroke:#000066;stroke-width:1.4752;stroke-linecap:round;stroke-linejoin:round;}
	.st9{fill:#006AFF;stroke:#000066;stroke-width:1.0768;stroke-linecap:round;stroke-linejoin:round;}
	.st10{fill:#006AFF;stroke:#000066;stroke-width:0.7692;}
	.st11{fill:#006AFF;stroke:#000066;stroke-width:0.8477;}
	.st12{fill:#006AFF;stroke:#000066;stroke-width:1.3073;}
	.st13{fill:#00009F;}
	.st14{fill:#006AFF;stroke:#000066;stroke-width:0.3076;}
	.st15{opacity:0.75;fill:#00B1FF;}
</style>
<g id="BG_COLOR">
	
		<radialGradient id="SVGID_1_" cx="306.6821" cy="250.3273" r="444.0917" gradientTransform="matrix(-1 0 0 1 710.2939 0)" gradientUnits="userSpaceOnUse">
		<stop  offset="3.370800e-02" style="stop-color:#004CFF"/>
		<stop  offset="0.1158" style="stop-color:#0049F6"/>
		<stop  offset="0.2524" style="stop-color:#0042DC"/>
		<stop  offset="0.4268" style="stop-color:#0035B2"/>
		<stop  offset="0.6322" style="stop-color:#002479"/>
		<stop  offset="0.8608" style="stop-color:#000E30"/>
		<stop  offset="1" style="stop-color:#000000"/>
	</radialGradient>
	<rect x="0.2" y="-1.8" class="st0" width="776" height="565.9"/>
</g>
<g id="LINE">
	<g>
		<path class="st1" d="M457.8,30.3c0.4,0.6,1.7,0.6,2.4,0.6c1.6,0.2,2.7,0.1,3.7,1.4c1.5,1.9,0.3,5.8,2.2,7.2
			c-0.8,1.8-2.2,2.7-2.3,4.9c-0.1,1.5-0.4,2.5,1,3.3c0.5,0.3,1,0.4,1.5,0.7c1.2,0.7,2,2,3.2,2.6c1.6,0.8,4,1.4,5.8,1.7
			c0.7,0.1,1.8,0,2.2,0.6c0.4,0.6,0.2,2,0.5,2.7c0.5,1.1,1.2,2,2.6,2c1.6,0,3.8-1.8,5.1-2.7c0.8-0.6,1.6-0.7,2.5-1.2
			c1.4-0.8,2.4-2.1,2.3-3.7c0-0.6-0.7-1.6-0.3-2.2c0.3-0.6,3.2-0.7,3.9-0.7c1.4,0,3,0.8,4.2,1.2c0.8,0.3,3.1,2.1,4.3,1.6
			c0.4-2.1,1-4,2.9-5.1c0.7-0.4,1.4-0.6,2.1-1.1c0.9-0.6,1.6-1.2,2.7-1.2c-0.1,3.2-2,6.1-2.2,9.2c0,0.3,0.1,2.5,0.5,2.7
			c0.1,0.1,1.9-0.3,2-0.3c1.5-0.3,2.4-0.8,4-0.6c1.1,0.2,2.2,0.5,3.1,1c0.5,0.4,0.9,0.7,1.4,1.1c0.5,0.3,1.1,0.5,1.7,0.6
			c0.4,0,0.7-0.2,0.8-0.5c0.9,0,2.6,0.5,2.9,1.7c0.3,0,0.6,0,0.8-0.1c0.8,1.7,0.3,5.9,3.3,5.7c0.4,2.5-4.4,2.7-5.8,3.2
			c-0.9,0.3-1.4,1.1-2.2,0.3c-2.2,1.5-2.4,5.6-1.4,7.7c0.5,1,0.5,2.6,1.2,3.6c0.7,1,1.1,0.9,1,2.3c-0.1,1.3,0,2.1-1.2,2.8
			c-0.8,0.4-2.8,0.1-3,1.2c-0.1,0.3,0.4,0.8,0.4,1c-0.1,0.8-0.8,0.8-1,1.8c-0.5,2.4,1.4,3.8,2.9,5.2c-0.2,0.5-0.8,0.7-0.8,1.1
			c0,0.5,0.7,1,0.8,1.6c0.1,1.6-2.4,3.6-0.5,5c1.3,0.9,4.3-0.3,5.8-0.2c1.2,0.1,2.5,0.5,3.7,0.6c0.4,0,1.7-0.1,2,0.2
			c0.5,0.4,0.5,1.3,0.6,1.9c1.9-0.2,0.6-3.8,0.9-5c0.1-0.5,0.3-1.1,0.6-1.6c0.4-0.7,1.4-2.7,2.1-3.1c1.3-0.6,2.7,1.7,3.2,2.4
			c1.4,1.8,2.6,3.7,4.2,5.4c1.3,1.4,1.5,0.3,2.8,0.9c0.1-0.9,1.2-2.8,2.1-3.2c1.1-0.5,2,0.3,3,1.1c2.5,1.9,4.3,4.6,6.5,6.8
			c0.9,0.9,1,1.1,1.3,2.1c0.1,0.6,0.4,1.2,0.4,1.8c0.1,1.3-0.6,2.5-0.4,3.9c0.8,4.6,8-2,9.5,0.6c-1,1.6-2.4,3-3.2,4.8
			c-0.4,1-0.7,1.3-0.5,2.5c0.2,0.8,0.4,1.7,0.8,2.5c0.4,1,1,1.4,1.6,2.2c0.6,0.7,0.8,1.2,1.2,2.1c0.4,1,1,3.1,2.2,3.4
			c0.3,1,0,1.9,0.1,2.9c0.1,1.6,0.8,2.9,1.8,4.1c0.7,0.8,1.5,1.7,2.6,1.9c0.6,0.1,1.3-0.3,1.9,0c0.9,0.4,1.7,1.5,2.6,1.9
			c1.6,0.8,3.5,1.2,5.3,1.3c1.7,0.1,3.1,0.7,4.5-0.3c2.6-1.8,6-5.1,4.3-8.4c-0.4-0.7-0.6-1.2-0.8-1.9c-0.2-0.7-0.6-1.3,0-1.9
			c0.3-0.3,2.4-0.5,2.9-0.6c0.9-0.3,1.9-0.6,2.7-1.1c-0.4-1.1,1-2.6,2.1-2.6c1,0,1.9,1.2,2.7,1.6c0.7,0.3,1.5,0.2,2.2,0.5
			c1.1,0.5,0.8,1,1.4,2.1c1,1.8,3.4,1.3,4.9,0.3c1.2-0.9,1-1.5,2.4-1.8c0.7-0.1,1.3-0.3,2-0.4c1.5-0.3,5.1-1.8,6.1-0.2
			c-0.3,0.9-0.8,1.9-1.2,2.8c-0.7,1.7-2.3,2.9-3.4,4.4c-1,1.4-1.3,1.8-0.1,3c0.5,0.6,1,1,1.4,1.6c0.5,0.7,0.2,1,1.2,1.4
			c0.3,0.1,0.9,0.3,1.2,0.3c0.6,0,1.3-0.4,1.9-0.5c0.6,0,0.7,0.1,1.2,0.1c0.5,0,1.8-0.3,2.3-0.1c0.4,0.2,1.4,1.4,1.5,1.9
			c0.2,1-2.8,3.7-3.3,4.4c-0.8,1.1-1.5,1.8-1.3,3.2c0.1,1.2,0.6,1.6,1.5,2.3c0.9,0.6,1.4,2,2.3,2.1c1.9,0.3,2.5-2.9,4.5-2.6
			c0.7,0.1,0.8,1.1,1.2,1.7c0.5,0.9,1.3,2.1,2.3,2.4c0.8,0.2,1.3,0.2,2.1,0.6c0.6,0.3,1,0.5,1.6,0.6c1.3,0.2,1.2,0.4,1.5,1.7
			c0.1,0.6,0.1,1.3,0.5,1.8c0.4,0.5,0.9,0.3,1.1,0.9c0.4,1.1,0,3.1,0.3,4.3c0.2,1.1,0.3,1.5,1.1,2.1c0.7,0.5,2.1,0.5,2.3,1.7
			c2.1-0.1,4.1-2.3,6.2-2.8c1-0.2,2.1-0.7,3,0c0.8,0.7,0.8,1.9,1.7,2.6c1.1,0.8,0.5,0.2,1.6,0.3c1.5,0.1,3.6,0.3,4.6-0.9
			c0.8-1,1-2.4,0.8-3.6c-0.1-0.4-0.2-0.7-0.1-1.1c0-0.1,0.6-1.8,0.6-1.9c1-1.1,3.6-0.8,4.9-1c1-0.2,2-0.5,3.1-0.6
			c2.6-0.4,2.1,1.1,1.4,3.3c2,1,3.6-4.1,5.6-4.2c0.7,0,1.1,0.7,1.7,0.9c0.4,0.2,0.9-0.1,1.3,0.3c0.5,0.5,0.4,2.2,0.5,2.9
			c0,1.2,0.1,2.5,0.1,3.6c0,1.2,0.1,2.5-0.1,3.8c-0.2,1.7-0.8,5.1,0.6,6.5c1.6,1.5,5.7,0.2,5.1,3.5c-2.4-0.9-3.9,1.4-4.5,3.2
			c-0.5,1.5-1.2,3.3-1.4,4.9c-0.1,0.7-0.1,1.5,0.3,2.1c0.7,0.9,2.5,1.4,3.5,2c1.3,0.8,1.2,1.1,2.1,2c0.9,0.8,2.5,1.3,3.5,1.9
			c1.5,0.8,0.9,2.2,2.2,3.1c1.4-1.5,2.9-3.6,4.8-4.5c1.1-0.5,1.2-0.2,2.2,0c0.5,0.1,1.5,0,2,0.3c0.8,0.5,1,2.4,1.2,3.3
			c0.2,0.9-0.1,1.5-0.1,2.3c0,1.3,1.1,2.6,1.6,3.6c0.7,1.3,0.7,1.5,2,1.4c0.8,0,1.8-0.1,2.4,0.5c1.2,1.1,0.2,2.8,2.5,1.8
			c1.4-0.7,2.4-1.9,3.7-2.7c1.9-1.1,2.3,1,4,1.1c0.9,0.1,2-1,2.8-1.5c1-0.6,3.4-3,4.6-2.5c1.4,0.6,2,7.2,4.3,4.4
			c0.7-0.8,0.7-2.3,0.7-3.2c0-0.6-0.4-1.6-0.3-2.2c0.2-0.7,0.5-1.1,1.3-1c0.5,1.9,2.1,4.2,4.1,4.7c0.8,0.2,1,0.2,1.6,0.6
			c1.2,0.7,1.9,0.9,3.1-0.1c1.7-1.4,2.4-4.2,3-6.2c0.4-1.3,1-2.8,1.2-4.2c-0.3-0.1-0.6,0-0.8,0c-1.5-2.3,0.8-5.9-0.2-8.5
			c-0.2-0.6-0.7-1-0.9-1.6c0.1-1.1,0.3-2.2,0.8-3.2c0.6-1.6,1-3.3,1.2-5.1c0.1-1.3,0.1-2.7-0.2-4c-0.4-1-1-1.7-1.9-2.1
			c0-0.4-0.2-0.5-0.5-0.5c0.2-1.2,0.4-2.5,0.6-3.7c0.6-4.5,0.4-9.7-2.2-13.7c-0.5-0.8-2-2.9-3.2-3.2c1-0.3,2-2,2-2.9
			c-0.1-1-1.4-2.1-1.8-3c-0.6-1.5-0.5-3.2-1.6-4.6c-1.9-2.5-5.7-4.4-8.5-5.6c-1.8-0.8-6.7-2.1-7.1,0.9c-0.2,1.6,1,4.5,1.9,5.8
			c0.8,1.1,1.9,1.9,2.8,2.9c-1.6-0.8-4.3,0.5-5.9,0.8c-1.1,0.2-2.2,0.5-3.3,0.7c-0.3-1-0.3-2-1-2.8c-0.7-0.8-1.5-0.9-2.4-1.3
			c-1.8-0.8-1.7-1.2-1.6-3c0.3-4-3.4-5.6-5.1-8.7c-2.1,0.8-3.8,3.2-5,5c-1.6,2.4-2.8,5-2.9,8c-1.2-1.5-3.9-4.8-6-4.9
			c-1.1,0-1.3,0.5-2.3-0.5c-2-1.9-2.2-5-3-7.4c-0.6-1.8-2.3-1.7-3.9-1.3c-3.2,0.7-5.8,1.1-9,0c-2,1.9-0.1,5.4,0,7.7
			c0.1,1.3-0.2,1.2-1.2,1.7c-0.5,0.2-0.8-0.1-0.9,0.6c-0.1,0.5,0.6,1,0.9,1.4c0.4,0.4,0.5,0.6,0.9,0.9c0.5,0.4,1.1,0,1,0.9
			c-0.2,1.5-3.2,1.4-4.1,1.9c-1.1,0.6-1.6,1.9-2.9,2.6c-1.1,0.6-1.2,0.4-1.8-0.5c-0.4-0.7-0.9-1.3-1.3-2c0.4-0.5,0.8-1.1,0.8-1.7
			c-0.9-0.5-2.2,0.1-3.1,0.1c-1,0-2-0.2-2.9-0.5c-1.4-0.4-3.3-1.4-4.7-0.4c0.2,1.4-0.4,3-0.8,4.2c-0.4,1.2-0.7,3.7-2.1,4
			c-0.3,0.1-2.4-0.2-2.7-0.3c-1-0.2-3.1-1.8-4-1.6c1.2-0.1-1.2-3.4-1.5-3.8c-0.8-1.1-2.8-2.5-2.9-4c-1.5,0.4-4,2.9-5,1.3
			c-0.1-0.1-0.3-1.4-0.3-1.6c0.2-0.7,1.1-0.7,1.2-1c0.2-0.5-0.2-0.9-0.6-1.4c-0.6-0.7-0.8-0.9-0.9-1.9c-0.1-0.4-0.6-1.5-0.4-1.8
			c0.4-1,2-0.9,2.8-1.3c1.6-0.8,3-2,3.6-3.9c0.7-2.4,0.8-3.3-1.4-4.9c-1.4-1-2.8-1.9-4.1-2.8c-0.6-0.4-0.9-0.4-1.4-1.3
			c-0.4-0.6-0.4-1.5-1.3-1.4c0.1,1.9-4.9,4-6.4,3.9c-0.8-0.1-0.5,0.1-0.9-0.6c-0.3-0.5-0.2-0.7-0.7-1.2c-1.2-1.1-2.2-0.6-3.6-0.3
			c-0.6,0.1-1.1,0.3-1.7,0.2c-0.8-0.1-1.3-0.7-2.1-0.5c0.2,1-1,1.7-1.6,2.3c-1,1-0.4,0.6-1.5,0.5c-1.6,0-3.4,1-5,0.7
			c-0.8-1.5-0.8-3.3-1.4-4.9c-0.2-0.7-0.9-1.6-0.8-2.4c0.2-2.5,4.3-3,2.3-6c-0.3-0.5-0.8-1.1-1.5-1c-0.4,0.1-0.5,0.7-1,0.8
			c-1.4,0.4-1.5-0.8-1.9-1.7c-0.6,0-1.8,0.5-2.4,0.4c-1-0.3-1-1.6-1.2-2.5c-0.2-0.9,0-1.9-0.5-2.7c-0.3-0.5-1-0.7-1.2-1.2
			c-0.1-0.4,0.1-0.6,0.1-0.9c-0.2-1.3-0.6-1.8-2.3-1.6c-1.4,0.1-2.6,0.6-3.8,1.3c-1.3,0.7-2,1.8-3.1,2.4c-1,0.6-2.2,0.7-1.8,2.2
			c-1.1-0.4-1.5-0.4-1.3,0.9c0.1,0.5,0.5,1.3,0.3,1.8c-0.1,0.2-0.8,0.4-0.9,0.7c-0.6-0.1-1.1-0.3-1.7-0.1c-1.2,0.3-1.8,2-2.9,2
			c-0.6-1.8-2.6-0.4-3.6-1.8c-0.4-0.6-0.1-1.6-0.5-2.3c-0.7-1.3-1.9-1.1-3.1-1.1c-1-0.1-0.8,0.2-1.4-0.7c-0.7-1.1-1.3-1.6-2.5-2.3
			c-1.1-0.6-4.4-2-3.2-3.9c0.6,0.1,1.4,0.8,1.9,0.8c0.5,0,0.4-0.1,0.8-0.2c1.1-0.2,1.6-0.8,2.2-1.9c1-2.1,2.4-5.3,1.5-7.5
			c-0.1-0.3-0.5-0.4-0.6-0.7c-0.2-0.5,0-1-0.5-1.5c-0.5-0.5-1.7-0.5-2.4,0c-1.1,0.7-0.8,1.9-2.3,1.5c-1.3-0.4-3.6-1.8-3.9-3.1
			c-0.3-1.2,0.4-2.1,1.6-2.3c0.2-1.2-2.5-1.4-3.3-1.4c-0.3-0.6-0.1-1.8-0.6-2.3c-0.2-0.2-1.5-0.8-1.8-0.9c-1.5-0.6-1.8,1.4-3.5,1.3
			c-1.9-0.1-0.4-2.9-2-3.6c-0.8-0.4-4.3,0.3-3.9,1.4c-1.5-1-2.9-2.4-4.2-3.5c-2-1.7-1.6-3.5-0.7-5.8c1.1-2.8,2.6,0.4,4.2,0.5
			c2.2,0.2,4.6-4.6,4-6.4c-0.3-1-2.3-2.9-0.3-3.4c0.6-0.1,1.3,0.5,1.9,0.6c0.7,0.1,1,0,1.6-0.2c2.1-0.5,3.8-1,4.5-3.3
			c0.2-0.9,0.3-2-0.1-2.9c-0.3-0.6-0.9-0.8-1.2-1.3c-0.6-1.1-0.2-2.5-0.3-3.7c-0.1-2-2.6-4-4.3-4.8c-2.5-1.2-5.6-1-7.5,1.2
			c-0.5,0.6-0.7,2.1-1.8,1c-0.5-0.5,0.1-1.4-0.5-1.8c-0.7-0.6-2.3,0-3,0.1c-1.1,0.2-3.9,0.7-4.9,0.2c-1.5-0.9-0.1-5-0.2-6.4
			c-0.8,0.5-0.7-1.1-0.7-1.6c0.1-1.5,0.5-3.7,1.6-4.7c0.8,0.2,2.6,0.8,3.1-0.2c0.3-0.7-0.7-2.5-0.5-3.4c0,0,0.1,0.5,0.1,0.7
			c0.5-1.2,0.4-2.4,1.3-3.3c1.1-1,1.7-1,2.9-0.9c0.7,0,1.9-0.1,2.6-0.4c0.6-0.3,0.6-0.8,1.4-0.8c1.1,0,1.3,1.5,2.2,1.7
			c0.4,0.1,1.6-0.5,1.9-0.7c0.7-0.5,1.1-2.1,1.5-2.8c0.6-0.9,1.7-2.2,1.7-3.4c0-1.4-0.9-0.9-1.5-1.7c0.2-0.9,0.7-1.7-0.3-2.6
			c-0.6-0.6-2-0.9-2.8-1c-1.1-0.1-1,0.5-1.4-0.7c-0.3-0.8-0.2-1.6-0.6-2.3c-0.2-0.4-0.7-0.3-0.7-0.9c0-0.7,1.4-1,1.9-1.1
			c1.1-0.3,3.5-0.3,4.2-1.4c0.4-0.6,0.1-0.5,0.1-1.1c-0.1-1.9-2.7-4.3-4.1-1.8l1.4-0.8c0.2,0,0.3,0,0.5,0c0.4,1.4-3,1.8-4.1,1.8
			c-2.2,0-3.9-1.1-6.2-0.7c-2,0.4-3.2,1.7-5.4,1.3c-3.1-0.5-5.7-1.4-8.9-0.7c-1.3,0.3-2.3,0.9-3.5,1.3c-3.2,1-6.7,1.2-9.9,2.3
			c-2.3,0.7-4.4,1.6-6.5,2.8c-0.6,0.5-1.2,1-1.9,1.3c-1.2,0.4-2.9,0.2-4.1,0.1c-4.4-0.3-8.5-0.7-12.8,0.1c-2.5,0.5-7.6,0.6-8.9,3.3
			c-0.8,1.6-1.2,2.1-2.9,2.6c-4.3,1.3-8.8,1.2-13.2,2.1c-1,0.2-1.6,0.2-2.4,0.6c-1.5,1.2-2.9,2.6-4.2,4
			C458.6,28.1,458,29.1,457.8,30.3z M725.4,186.5l-0.4,0.6c1-1,3.6-3.2,5.3-2.4c0.7,0.3,1,2,1.5,2.5c0.9,1,1.9,1.4,2.5,2.7
			c0.6,1.2,0.5,0.7-0.9,1.5c-0.6,0.4-1.5,1.3-2.1,1.6c-1.1,0.6-3.1,0.4-4.4,0.4c-0.4-0.7-0.2-1.5-0.5-2.2c-0.4-0.9-1.3-0.9-2-1.7
			C723,188.1,723.6,187.2,725.4,186.5z M708.9,159c0.7-0.4,0.5-0.7,1.4-0.8c1,0.3,2,0.6,3.1,0.7c0.6,0.2,1.1,0.1,1.5-0.3
			c1.2-0.4,7.7-1.9,7-3.2c1.7,1,3.1,0.9,4.7,0.1c1.7-0.8,8.1-1.9,9,0.5c0.3,0.8-0.5,2.2-0.7,3c-0.2,1-0.1,1.4,0.1,2.4
			c0.3,1.4,0,2.8,0.3,4.3c0.3,1.7,2,4,0.5,5.5c-2,2.1-7.6,1.3-10.1,0.6c-1.1-0.3-2.4-0.7-3.1-1.7c-0.3-0.4-0.3-1.1-0.7-1.5
			c-0.9-1-2.6-0.4-3.7-0.4c-1.3,0-1.6-0.4-2.3-1.4c-0.9-1.3-2-2.7-3-3.9c-0.5-0.6-1.2-0.9-1.7-1.4c-0.6-0.6-1-1.5-1.3-2.2L708.9,159
			z M539.1,56.2c1.1-0.3,1.7,1.4,2.7,0.9c0-0.5-0.1-1-0.2-1.5l-0.2-1c1.6,1,2.9-0.8,4.5-0.3c0.7,0.2,0.6,0.6,1.4,0.6
			c1,0,2-1.2,3-1.4c1.4-0.3,2.3,0.6,2.7,2c0.3,1.5-0.8,1.4-1.2,2.6c-0.7,2,0.8,4.3-0.3,6.3c-1.4,2.6-4.7,1.9-6.9,1
			C541.3,64.2,540.3,59,539.1,56.2z M538.8,88.2c0.3-0.1,0.6-0.2,1-0.2l0.8-1.2c0.1,0.4,0,0.7-0.2,0.9c0.6-0.4,1.1-0.7,2-0.7
			c1.4-0.1,2.9,0.1,4.1,0.8c1.2,0.7,2.2,1.8,0.9,3.1c-0.9,0.9-3.4,1.2-4.6,1.3C540.9,92.2,539.1,89.7,538.8,88.2z M535.6,86.1
			c-0.7,0.5-1.4,0-2.1,0c-0.8,0-1.4,0.2-2.2,0c-1.2-0.2-3.5-0.1-3.8-1.5l1-0.2c0.1,0.2,0.1,0.3,0.2,0.5c0.4-0.6,0.1-1.4,0.4-2
			c0.2-0.4,1.2-1,1.6-1.1C532.3,81.4,537.9,84.5,535.6,86.1z M539.8,87.9C539.8,87.9,539.7,87.9,539.8,87.9L539.8,87.9
			C539.7,87.9,539.8,87.9,539.8,87.9z"/>
	</g>
	<path class="st2" d="M695.9,245c2.3,11.7,13.7,19.2,25.4,16.9c11.7-2.4,19.2-13.7,16.9-25.4c-2.4-11.7-13.7-19.2-25.4-16.9
		C701.1,222,693.5,233.4,695.9,245z"/>
	<path class="st3" d="M696.7,248c1.9,9.4,11.1,15.5,20.5,13.6c9.4-1.9,15.5-11.1,13.6-20.5c-1.9-9.4-11.1-15.5-20.5-13.6
		C700.9,229.4,694.8,238.6,696.7,248z"/>
	<path class="st2" d="M459.5,97.6c2.3,11.7,13.7,19.2,25.4,16.9c11.7-2.4,19.2-13.7,16.9-25.4c-2.4-11.7-13.7-19.2-25.4-16.9
		C464.7,74.6,457.1,85.9,459.5,97.6z"/>
	<path class="st3" d="M460.3,100.6c1.9,9.4,11.1,15.5,20.5,13.6c9.4-1.9,15.5-11.1,13.6-20.5c-1.9-9.4-11.1-15.5-20.5-13.6
		C464.5,82,458.4,91.2,460.3,100.6z"/>
	<path class="st2" d="M631.2,193c0.8,3.8,4.4,6.2,8.2,5.5c3.8-0.8,6.2-4.4,5.5-8.2c-0.8-3.8-4.4-6.2-8.2-5.5
		C632.9,185.6,630.5,189.2,631.2,193z"/>
	<path class="st3" d="M631.9,194.5c0.5,2.7,3.2,4.5,5.9,3.9c2.7-0.5,4.5-3.2,3.9-5.9c-0.5-2.7-3.2-4.5-5.9-3.9
		C633.1,189.1,631.4,191.7,631.9,194.5z"/>
	<path class="st2" d="M647.2,213.6c1.2,6,7.1,9.9,13.1,8.7c6-1.2,9.9-7.1,8.7-13.1c-1.2-6-7.1-9.9-13.1-8.7
		C649.9,201.7,646,207.6,647.2,213.6z"/>
	<path class="st3" d="M648.3,215.9c0.9,4.3,5.1,7.1,9.4,6.3c4.3-0.9,7.1-5.1,6.3-9.4c-0.9-4.3-5.1-7.1-9.4-6.3
		C650.3,207.3,647.5,211.5,648.3,215.9z"/>
	<path class="st4" d="M23.9,89.4c0,13.4,10.8,24.2,24.2,24.2c13.4,0,24.2-10.8,24.2-24.2c0-13.4-10.8-24.2-24.2-24.2
		C34.8,65.2,23.9,76.1,23.9,89.4z"/>
	<path class="st3" d="M25.3,94.8c0,9.6,7.8,17.4,17.5,17.4c9.6,0,17.4-7.8,17.4-17.4c0-9.6-7.8-17.4-17.4-17.4
		C33.2,77.4,25.3,85.2,25.3,94.8z"/>
	<path class="st5" d="M273.3,516.2c0,5.7,4.6,10.3,10.4,10.3c5.7,0,10.3-4.6,10.3-10.3c0-5.7-4.6-10.3-10.3-10.3
		C277.9,505.8,273.3,510.5,273.3,516.2z"/>
	<path class="st3" d="M273.9,518.5c0,4.1,3.3,7.5,7.5,7.5c4.1,0,7.5-3.3,7.5-7.5c0-4.1-3.3-7.4-7.5-7.4
		C277.2,511.1,273.9,514.4,273.9,518.5z"/>
	<path class="st6" d="M256.2,511.9c0,3.1,2.5,5.6,5.6,5.6c3.1,0,5.6-2.5,5.6-5.6c0-3.1-2.5-5.6-5.6-5.6
		C258.8,506.3,256.2,508.8,256.2,511.9z"/>
	<path class="st3" d="M256.6,513.1c0,2.2,1.8,4,4,4c2.2,0,4-1.8,4-4c0-2.2-1.8-4-4-4C258.4,509.1,256.6,510.9,256.6,513.1z"/>
	<path class="st7" d="M617.7,69.9c3.9,19.2,22.5,31.6,41.7,27.7c19.2-3.9,31.6-22.5,27.7-41.7c-3.9-19.2-22.5-31.6-41.7-27.7
		C626.2,32.1,613.8,50.7,617.7,69.9z"/>
	<path class="st3" d="M623,63.3c0,2,0.2,4,0.6,6.1c3.1,15.6,18.3,25.7,33.9,22.5c9.6-1.9,17.1-8.4,20.7-16.7l0.6-1.7l-1.3-1.1
		l-0.6,2l-0.5,2.7l-1,0.2l-2,2c0,0-1.7,2.2-1.8,3c-0.1,0.8-1.9,1.2-1.9,1.2s-4.7,0.2-5.8,0.9c-1.2,0.8-6.2,1-6.6,0
		c-0.5-1-0.5-5.1-2.1-6.6c0,0,0.6,10.3-3.9,12.3c-4.6,2-7.1,0.9-7.1,0.9s-6.7-2.3-8.1-6.4c-0.7-2.1-2.7-3.1-2.7-3.1
		s-0.9-5.8,0.6-7.4c1.5-1.6-0.9-1.7-0.9-1.7l-3.4-2.5c0,0-0.5,0.4-2.6-1.3c-2.2-1.7-2.6,1.3-2.4-2.7c0.2-4-0.2-3.6,0.6-4.8
		c0.8-1.2,1.2-1.8,2.1-1.5c0.9,0.4-0.9-3.2-0.9-3.2l1.5-2.9l-2.7,3.7L623,63.3z"/>
	<path class="st2" d="M613.9,115.9c1.6,8,9.5,13.3,17.5,11.6c8-1.6,13.3-9.5,11.6-17.5c-1.6-8.1-9.5-13.3-17.5-11.6
		C617.5,100,612.3,107.8,613.9,115.9z"/>
	<path class="st3" d="M622.7,99.1c-1.8,2.6-2.6,5.9-1.9,9.2c1.3,6.5,7.6,10.7,14.1,9.4c3.2-0.7,5.9-2.6,7.6-5.1
		c0,0-0.3-9.2-6.1-12.2c-5.8-3-12.4-1.7-12.4-1.7L622.7,99.1z"/>
	<path class="st8" d="M657.9,72.7c2.9-0.6,4.7-3.4,4.1-6.2c-0.6-2.9-3.4-4.7-6.2-4.1c-2.9,0.6-4.7,3.4-4.1,6.2L657.9,72.7z"/>
	<path class="st8" d="M663.5,73.8c-0.7,0.6-0.4,1-1.3,1.4c-0.9,0.4-1.9,0.4-2.8,0.9c-1,0.6-2.7,1.5-3.5,0L663.5,73.8z"/>
	<path class="st8" d="M661.5,66.4c-1.4,0-1.9-2.4-2.9-3c-0.5-0.3-1-0.4-1.5-0.6c-0.5-0.3-0.4-0.6-1.1-0.7c-0.3,0-1,0.3-1.3,0.3
		L661.5,66.4z"/>
	<path class="st9" d="M646.4,88.5c4.5-0.9,7.4-5.3,6.5-9.8c-0.9-4.5-5.3-7.4-9.8-6.5c-4.5,0.9-7.4,5.3-6.5,9.8L646.4,88.5z"/>
	<path class="st9" d="M646.8,57.6c0.3-0.3,1.3-1,1.8-0.8c0.6,0.2,0.5,0.5,0.6,1.1c0.2,1.1,0.1,1.7-1.2,1.8L646.8,57.6z"/>
	<path class="st10" d="M642,64.6c0.4,0.1,0.8,0.1,1.2,0c1.5-0.3,2.5-1.8,2.2-3.3c-0.3-1.5-1.8-2.5-3.3-2.2c-1.5,0.3-2.5,1.8-2.2,3.3
		L642,64.6z"/>
	<path class="st11" d="M666.2,83.8c0.4,0.1,0.9,0.1,1.3,0c1.7-0.3,2.8-2,2.4-3.7c-0.3-1.7-2-2.8-3.7-2.4c-1.7,0.3-2.8,2-2.4,3.7
		L666.2,83.8z"/>
	<path class="st3" d="M643.5,80.1c0.1,0.6,0.1,1.4,0.8,1.4c0.3,0,0.9-0.5,1.2-0.2c0.3,0.2,0,0.7-0.2,0.8c-0.2,0.1-0.6,0.1-0.8,0.2
		c-0.2,0.1-0.3,0.4-0.7,0.3c-0.6-0.1-0.6-1.2-0.7-1.7L643.5,80.1z"/>
	<path class="st3" d="M638.8,76.1c0.5,0,0.5-0.2,0.7-0.5c0.3-0.4,0.4-0.5,0.9-0.6c0.7-0.2,1.6-0.4,2.3-0.5c1.1-0.1,2.3,0.9,3.3,1.3
		c0.7,0.3,1.5,0.4,2.1,0.7c0.5,0.2,0.8,0.6,1.2,0.9c0.6,0.3,1.2,0.8,1.5,1.4c0.3,0.5,0.8,1.4,0.9,2.1c0.1,0.9-0.6,1.7-0.2,2.6
		c1.4-1.5,0.6-3.3,0.7-5.1c0-1-0.1-2-0.3-3c-0.3-1.2-1.2-1.7-2.1-2.4c-1.1-0.7-1.8-0.6-3-0.4c-1.3,0.2-2.5,0.2-3.8,0.2
		C641.1,72.7,638.9,73.9,638.8,76.1c-0.1,0-0.2,0-0.2,0L638.8,76.1z"/>
	<path class="st3" d="M635,63.7c-0.2-0.7,0.8-0.8,1.2-1c0.6-0.2,1.1-0.5,1.6-0.1c0.4,0.3,1.2,2.3,0.4,2.4c-0.6,0.1-1.3-1.4-1.6-1.7
		c-0.4-0.4-2.6-0.6-2.2,0.4L635,63.7z"/>
	<path class="st3" d="M677.8,72.4c-0.5-0.4-1-0.8-1.6-0.7c-0.4,0-1.3,0.2-1.5,0.6c0.2,0.4,0.7,0.1,1,0.2c0.4,0.2,0.4,0.3,0.5,0.7
		c0.3,1.3-0.2,2-1.2,2.7c0.5,0.6,1.6,0,2.3,0.2c0-0.5-0.2-1-0.3-1.4L677.8,72.4z"/>
	<path class="st3" d="M666.5,80.9c0,0.1,0.1,0.1,0.1,0.2c0.2,0,0.6,0,0.7,0.2c0.3,0.4-0.1,0.4-0.4,0.5c-0.5,0.2-0.5,0-0.8-0.1
		c-0.3-0.1-0.7-0.3-0.7-0.7L666.5,80.9z"/>
	<path class="st3" d="M639.4,69.9c-0.7,0.1-0.8,0.3-1,0.8c-0.1,0.3-0.1,0.5-0.3,0.7c-0.2,0.2-0.6,0.1-0.8,0.3
		c-0.2,0.2-0.1,0.4-0.1,0.7c-0.1,0.3-0.3,0.5-0.5,0.8c-0.2,0.3-0.2,0.4-0.2,0.7c0,0.2,0.3,0.4,0.1,0.7c-0.5,0.7-0.9-0.6-0.9-0.9
		c-0.2-0.7-0.2-0.9,0.1-1.5c0.2-0.4,0.7-0.7,0.9-1.1c0.1-0.2-0.1-0.4,0-0.6c0.2-0.2,0.6-0.3,0.8-0.3c-0.2-1.1,1.4-1.1,2.2-0.9
		L639.4,69.9z"/>
	<path class="st3" d="M665.9,88.6c0.7,0.8,0.6,1.8-0.2,2.5c-0.4,0.4-1.7,1-2.3,0.8c-0.3-0.1-0.6-0.9-0.4-1.2
		c0.1-0.1,1.1-0.3,1.3-0.3c0.5-0.1,0.9,0,1.2-0.4c0.3-0.4,0.3-1,0.5-1.5L665.9,88.6z"/>
	<path class="st3" d="M656.6,90.5c0.1,0.9-0.5,1.3-0.8,2c-0.3,0.8-0.6,1-1.3,1.5c-1.2,0.7-2.9,1.4-4.2,0.5c-0.3-0.2-1-1.3-0.4-1.5
		c0.2-0.1,0.7,0.5,0.9,0.5c0.4,0.2,0.6,0.1,1,0.1c0.6-0.1,1.4,0.1,1.9-0.3c0.3-0.2,0.4-0.6,0.6-0.9c0.4-0.4,1.1-0.7,1.6-1
		L656.6,90.5z"/>
	<path class="st3" d="M630.9,80.8c0.3,1.3,0,2.7,0.3,4c0.1,0.3,0.1,0.9,0.3,1.1c0.3,0.4,0.8,0.3,1.1,0.8c-0.4,0.3-1.7-0.6-2-0.9
		c-0.3-0.3-0.6-0.7-0.8-1.1c-0.1-0.2-0.1-0.5-0.3-0.7c-0.3-0.5-0.6-0.3-1.1-0.6c-0.3-0.2-0.4-0.6-0.6-0.9c-0.3-0.4-0.7-0.4-0.9-0.7
		c-0.2-0.3-0.1-0.8-0.2-1.1c0-0.1-0.2-0.1-0.3-0.3c-0.1-0.3-0.1-0.7-0.2-0.9c0.3,0.1,1.5,0.7,1.9,0.6c0.4-0.8-1-1.4-1.6-1.8
		c-0.8-0.5-1.3-1.2-1.5-2.2c-0.2-0.7-0.3-1.5-0.5-2.2c-0.1-0.6-0.1-0.5,0.3-1c0.5-0.7,1.1-1.4,1.6-2.1c0.2-0.4,0.4-0.6,0.8-0.8
		c0,0.1,0,0.2,0.1,0.3L630.9,80.8z"/>
	<path class="st3" d="M644.5,91.1c0.6,0.1,1,0.3,1.7,0.3c0.4,0,1.3-0.3,1.6-0.2c0.3,0.1,1,0.5,1,0.8c-0.7,0.3-1.6,0.4-2.2,0.4
		c-0.5,0-1.3,0-1.8,0.3c-0.2,0.6,0.8,0.5,1.1,0.6c0.7,0.1,1.1,0.3,1.4,0.9c-0.7,0.6-2.4,0-3.3-0.2c-0.4-0.1-0.9-0.2-1.3-0.3
		c-0.5-0.2-0.8-0.6-1.3-0.7c-1.2-0.3-3.8,0-3.8-1.8c0.7-0.4,1.3-0.2,2-0.1c0.3,0.1,1.4,0.2,1.5-0.1c-0.3-0.6-2-0.7-2.6-0.6
		c-0.7,0.1-1,0.3-1.7,0.1c-0.8-0.2-1.7-0.3-2.4-0.8c0.1-0.6,0.3-1,0.7-1.5c0.1-0.1,0.4-0.3,0.4-0.5c0.1-0.5-0.4-0.8-0.5-1.2
		c1-0.2,2.3,0.9,3,1.4c0.5,0.3,1,0.6,1.6,0.8c0.7,0.3,1.1,0.6,1.7,1c0.5,0.4,2,1.3,2.7,1L644.5,91.1z"/>
	<path class="st3" d="M649.5,81c0,0.3,0.3,0.8,0.2,1c-0.1,0.4-0.5,0.3-0.8,0.4c-0.4,0.1-0.6,0.2-0.7-0.2c-0.2-0.5,0.5-0.9,0.9-1.1
		L649.5,81z"/>
	<path class="st3" d="M652.1,79.7c0.1,0.3,0.1,0.5-0.1,0.9c-0.2,0.4-0.7,0.5-0.8,0.9c-0.2,0.5,0.5,1.2,0.3,1.6
		c-0.1,0.2-0.3,0.1-0.4,0.3c-0.2,0.3-0.2,0.3-0.5,0.6c-0.4,0.3-1,0.4-1.4,0.6c0.3,0.2,0.6,0.4,0.6,0.8c-0.6,0.3-2.3,1.1-2.9,0.7
		c0.5,0,1.4,0,1.8,0.3c0.4,0.3,0.4,0.2,0.3,0.7c1,0.2,2.4-0.7,2.7-1.6c0.2-0.4,0.4-1.2,0.5-1.7c0.2-0.8,0.3-1.9,0.2-2.7L652.1,79.7z
		"/>
	<path class="st3" d="M646.9,74.7c-1,0.2-2.2,0.7-3-0.2c-0.5,0.5-0.6,2-1.6,1.9c-0.4,0-0.3-0.3-0.7-0.2c0,0-1,0.6-1,0.5
		c-0.1,0.2,0,0.5,0,0.8c0,0.4-0.1,1-0.3,1.4c-0.2,0.4-0.6,1.2-1.1,1.3c-0.5,0.1-0.7-0.5-1-0.8c-0.2,0.2-0.4,0.8-0.8,0.6
		c-0.6-0.3,0-1.1,0.2-1.4c0.4-0.6,0.4-0.9,0.4-1.6c0-0.5,0.1-1.5,0.4-1.9c0.5-0.7,2-1.2,2.8-1.6c0.5-0.2,1-0.3,1.4-0.6
		c0.3-0.2,0.6-0.4,1-0.5L646.9,74.7z"/>
	<path class="st3" d="M629.7,64.8c-0.6-0.9,0.8-0.9,1.3-1.1c0.9-0.2,1.2-0.3,1.8,0.6c0.4,0.6,0.9,1.2,0.8,2
		c-0.1,0.6-0.3,1.5-0.8,1.8c-0.2-0.5-0.3-1-0.2-1.4c0-0.5,0.2-0.9-0.2-1.3c-0.7-0.8-1.9,0-2.7,0c0-0.1-0.1-0.1-0.1-0.2L629.7,64.8z"
		/>
	<path class="st2" d="M705.9,93.5c0,0-6.2,4.4-1.8,10.6c0,0-5.1-4.1-7.5,1.5c0,0,1.8-6.6-6.2-7.4c0,0,6.5-0.9,6.3-8.4
		C696.7,89.8,699.9,98.7,705.9,93.5z"/>
	<path class="st2" d="M154.7,70c0,0-13,5.8-7.2,18.8c0,0-8-9.4-14.5,0c0,0,5.8-11.6-8.7-15.9c0,0,12.3,0.7,14.8-13.2
		C139.1,59.8,141.6,77.3,154.7,70z"/>
	<path class="st2" d="M683.9,101.1c0.3,1.2,1.5,2.1,2.7,1.8c1.2-0.3,2.1-1.5,1.8-2.7c-0.3-1.2-1.5-2.1-2.7-1.8
		C684.4,98.6,683.6,99.9,683.9,101.1z"/>
	<path class="st2" d="M690.9,110.7c0.1,0.6,0.7,1,1.4,0.9c0.6-0.1,1-0.7,0.9-1.4c-0.1-0.6-0.7-1-1.4-0.9
		C691.2,109.4,690.8,110,690.9,110.7z"/>
	<path class="st2" d="M638.6,248.3c0.2,0.8,1,1.4,1.8,1.2c0.8-0.2,1.4-1,1.2-1.8c-0.2-0.8-1-1.4-1.8-1.2
		C639,246.7,638.5,247.5,638.6,248.3z"/>
	<path class="st2" d="M636.3,258.2c0.1,0.6,0.7,1,1.4,0.9c0.6-0.1,1-0.7,0.9-1.4c-0.1-0.6-0.7-1-1.4-0.9
		C636.6,257,636.2,257.6,636.3,258.2z"/>
	<path class="st2" d="M617.9,229c0.3,1.5,1.7,2.4,3.2,2.1c1.5-0.3,2.4-1.7,2.1-3.2c-0.3-1.5-1.7-2.4-3.2-2.1
		C618.5,226.1,617.6,227.5,617.9,229z"/>
	<path class="st2" d="M623.4,238.8c0.1,0.6,0.7,1,1.4,0.9c0.6-0.1,1-0.7,0.9-1.4c-0.1-0.6-0.7-1-1.4-0.9
		C623.7,237.6,623.3,238.2,623.4,238.8z"/>
	<path class="st2" d="M615.1,242.5c0.2,1,1.2,1.7,2.3,1.5c1-0.2,1.7-1.2,1.5-2.3c-0.2-1-1.2-1.7-2.3-1.5
		C615.6,240.4,614.9,241.4,615.1,242.5z"/>
	<path class="st2" d="M618,254.8c0.2,1,1.2,1.7,2.3,1.5c1-0.2,1.7-1.2,1.5-2.3c-0.2-1-1.2-1.7-2.3-1.5
		C618.4,252.8,617.8,253.8,618,254.8z"/>
	<path class="st2" d="M598.7,225.4c0.3,1.7,2,2.7,3.6,2.4c1.7-0.3,2.7-2,2.4-3.6c-0.3-1.7-2-2.7-3.6-2.4
		C599.4,222.1,598.4,223.7,598.7,225.4z"/>
	<path class="st2" d="M602.8,212.8c0.2,0.8,1,1.4,1.8,1.2c0.8-0.2,1.4-1,1.2-1.8c-0.2-0.8-1-1.4-1.8-1.2
		C603.2,211.1,602.7,211.9,602.8,212.8z"/>
	<path class="st2" d="M587.5,206.8c0.2,0.8,1,1.4,1.8,1.2c0.8-0.2,1.4-1,1.2-1.8c-0.2-0.8-1-1.4-1.8-1.2
		C587.9,205.2,587.3,206,587.5,206.8z"/>
	<path class="st2" d="M604.3,181.1c0.1,0.6,0.7,1,1.4,0.9c0.6-0.1,1-0.7,0.9-1.4c-0.1-0.6-0.7-1-1.4-0.9
		C604.6,179.9,604.2,180.5,604.3,181.1z"/>
	<path class="st2" d="M609.3,188.3c0.2,0.8,1,1.4,1.8,1.2c0.8-0.2,1.4-1,1.2-1.8c-0.2-0.8-1-1.4-1.8-1.2
		C609.6,186.7,609.1,187.5,609.3,188.3z"/>
	<circle class="st2" cx="196.8" cy="454" r="7.5"/>
	<path class="st2" d="M193.7,468.9c0,2.1,1.7,3.7,3.7,3.7c2.1,0,3.7-1.7,3.7-3.7c0-2.1-1.7-3.7-3.7-3.7
		C195.4,465.2,193.7,466.8,193.7,468.9z"/>
	<path class="st2" d="M204.9,478.9c0,0.7,0.6,1.2,1.2,1.2c0.7,0,1.2-0.6,1.2-1.2c0-0.7-0.6-1.2-1.2-1.2
		C205.5,477.6,204.9,478.2,204.9,478.9z"/>
	<path class="st2" d="M212.4,465.2c0,1.4,1.1,2.5,2.5,2.5c1.4,0,2.5-1.1,2.5-2.5c0-1.4-1.1-2.5-2.5-2.5
		C213.5,462.7,212.4,463.8,212.4,465.2z"/>
	<path class="st2" d="M221.1,442.1c0,1,0.8,1.9,1.9,1.9c1,0,1.9-0.8,1.9-1.9c0-1-0.8-1.9-1.9-1.9
		C221.9,440.3,221.1,441.1,221.1,442.1z"/>
	<path class="st2" d="M279,467c0,1,0.8,1.9,1.9,1.9c1,0,1.9-0.8,1.9-1.9c0-1-0.8-1.9-1.9-1.9C279.8,465.2,279,466,279,467z"/>
	<path class="st2" d="M186.8,481.4c0,1.7,1.4,3.1,3.1,3.1c1.7,0,3.1-1.4,3.1-3.1c0-1.7-1.4-3.1-3.1-3.1
		C188.2,478.3,186.8,479.6,186.8,481.4z"/>
	<path class="st2" d="M173.8,457.1c0,2.1,1.7,3.7,3.7,3.7c2.1,0,3.7-1.7,3.7-3.7c0-2.1-1.7-3.7-3.7-3.7
		C175.4,453.3,173.8,455,173.8,457.1z"/>
	<path class="st2" d="M163.8,445.9c0,1.4,1.1,2.5,2.5,2.5s2.5-1.1,2.5-2.5c0-1.4-1.1-2.5-2.5-2.5S163.8,444.5,163.8,445.9z"/>
	<path class="st2" d="M671,393c4.1,0.6,7.9-2.3,8.4-6.4c0.6-4.1-2.3-7.9-6.4-8.4c-4.1-0.6-7.9,2.3-8.4,6.4
		C664,388.6,666.9,392.4,671,393z"/>
	<path class="st2" d="M686.4,390.7c2,0.3,3.9-1.2,4.2-3.2c0.3-2-1.2-3.9-3.2-4.2c-2-0.3-3.9,1.1-4.2,3.2
		C682.9,388.5,684.3,390.4,686.4,390.7z"/>
	<path class="st2" d="M697.8,380.9c0.7,0.1,1.3-0.4,1.4-1.1c0.1-0.7-0.4-1.3-1.1-1.4c-0.7-0.1-1.3,0.4-1.4,1.1
		C696.6,380.2,697.1,380.8,697.8,380.9z"/>
	<path class="st2" d="M685.2,371.7c1.4,0.2,2.6-0.8,2.8-2.1c0.2-1.4-0.8-2.6-2.1-2.8c-1.4-0.2-2.6,0.8-2.8,2.1
		C682.9,370.2,683.9,371.5,685.2,371.7z"/>
	<path class="st2" d="M663.6,359.9c1,0.1,2-0.6,2.1-1.6c0.1-1-0.6-2-1.6-2.1c-1-0.1-2,0.6-2.1,1.6
		C661.9,358.8,662.6,359.8,663.6,359.9z"/>
	<path class="st2" d="M697.8,399.2c1.7,0.2,3.3-1,3.5-2.7c0.2-1.7-1-3.3-2.7-3.5c-1.7-0.2-3.3,1-3.5,2.7
		C694.9,397.4,696.1,398.9,697.8,399.2z"/>
	<path class="st2" d="M672,408.8c2,0.3,3.9-1.1,4.2-3.2c0.3-2-1.1-3.9-3.2-4.2c-2-0.3-3.9,1.1-4.2,3.2
		C668.5,406.6,669.9,408.5,672,408.8z"/>
	<path class="st2" d="M659.5,417.1c1.4,0.2,2.6-0.8,2.8-2.1c0.2-1.4-0.8-2.6-2.1-2.8c-1.4-0.2-2.6,0.8-2.8,2.1
		C657.2,415.7,658.1,417,659.5,417.1z"/>
	<path class="st2" d="M109.7,403.2c0,1,0.8,1.9,1.9,1.9c1,0,1.9-0.8,1.9-1.9c0-1-0.8-1.9-1.9-1.9
		C110.6,401.3,109.7,402.1,109.7,403.2z"/>
	<path class="st2" d="M102.3,386.4c0,0.7,0.6,1.2,1.2,1.2c0.7,0,1.2-0.6,1.2-1.2c0-0.7-0.6-1.2-1.2-1.2
		C102.8,385.1,102.3,385.7,102.3,386.4z"/>
	<path class="st2" d="M97.9,399.4c0,1.4,1.1,2.5,2.5,2.5c1.4,0,2.5-1.1,2.5-2.5s-1.1-2.5-2.5-2.5C99,397,97.9,398.1,97.9,399.4z"/>
	<path class="st2" d="M48.6,346.9c0,1.4,1.1,2.5,2.5,2.5s2.5-1.1,2.5-2.5s-1.1-2.5-2.5-2.5S48.6,345.5,48.6,346.9z"/>
	<path class="st2" d="M40.6,327.6c0,1,0.8,1.9,1.9,1.9c1,0,1.9-0.8,1.9-1.9s-0.8-1.9-1.9-1.9C41.4,325.7,40.6,326.6,40.6,327.6z"/>
	<path class="st2" d="M202.5,63c0,1,0.8,1.9,1.9,1.9c1,0,1.9-0.8,1.9-1.9c0-1-0.8-1.9-1.9-1.9C203.3,61.1,202.5,61.9,202.5,63z"/>
	<path class="st2" d="M189.4,51.8c0,1,0.8,1.9,1.9,1.9c1,0,1.9-0.8,1.9-1.9c0-1-0.8-1.9-1.9-1.9C190.2,49.9,189.4,50.7,189.4,51.8z"
		/>
	<path class="st2" d="M216.8,49.9c0,1.4,1.1,2.5,2.5,2.5c1.4,0,2.5-1.1,2.5-2.5c0-1.4-1.1-2.5-2.5-2.5
		C217.9,47.4,216.8,48.5,216.8,49.9z"/>
	<path class="st2" d="M247.3,56.1c0,1.4,1.1,2.5,2.5,2.5c1.4,0,2.5-1.1,2.5-2.5s-1.1-2.5-2.5-2.5C248.4,53.6,247.3,54.8,247.3,56.1z
		"/>
	<path class="st2" d="M243.6,69.2c0,3.4,2.8,6.2,6.2,6.2c3.4,0,6.2-2.8,6.2-6.2c0-3.4-2.8-6.2-6.2-6.2
		C246.4,63,243.6,65.8,243.6,69.2z"/>
	<path class="st2" d="M232.4,68c0,1,0.8,1.9,1.9,1.9c1,0,1.9-0.8,1.9-1.9c0-1-0.8-1.9-1.9-1.9C233.2,66.1,232.4,66.9,232.4,68z"/>
	<path class="st2" d="M433.7,69.9c-0.4-1-1.4-1.5-2.4-1.1c-1,0.4-1.5,1.4-1.1,2.4c0.4,1,1.4,1.5,2.4,1.1
		C433.6,71.9,434,70.9,433.7,69.9z"/>
	<path class="st2" d="M449.9,75.8c-0.4-1-1.4-1.5-2.4-1.1c-1,0.4-1.5,1.4-1.1,2.4c0.4,1,1.4,1.5,2.4,1.1
		C449.7,77.9,450.2,76.8,449.9,75.8z"/>
	<path class="st2" d="M424.9,87.2c-0.5-1.3-1.9-1.9-3.2-1.5c-1.3,0.5-1.9,1.9-1.5,3.2c0.5,1.3,1.9,1.9,3.2,1.5
		C424.7,89.9,425.3,88.4,424.9,87.2z"/>
	<path class="st2" d="M394.1,92c-0.5-1.3-1.9-1.9-3.2-1.5c-1.3,0.5-1.9,1.9-1.5,3.2c0.5,1.3,1.9,1.9,3.2,1.5
		C393.9,94.7,394.6,93.3,394.1,92z"/>
	<path class="st2" d="M393,78.5c-1.2-3.2-4.8-4.9-8.1-3.7c-3.2,1.2-4.9,4.8-3.7,8c1.2,3.2,4.8,4.9,8,3.7
		C392.6,85.3,394.2,81.7,393,78.5z"/>
	<path class="st2" d="M404,75.7c-0.4-1-1.4-1.5-2.4-1.1c-1,0.4-1.5,1.4-1.1,2.4c0.4,1,1.4,1.5,2.4,1.1
		C403.8,77.7,404.3,76.7,404,75.7z"/>
	<path class="st2" d="M167,96c0,2.1,1.7,3.7,3.7,3.7c2.1,0,3.7-1.7,3.7-3.7c0-2.1-1.7-3.7-3.7-3.7C168.7,92.2,167,93.9,167,96z"/>
	
		<ellipse transform="matrix(0.9239 -0.3827 0.3827 0.9239 -26.4881 68.7332)" class="st2" cx="159.5" cy="100.9" rx="1.9" ry="1.9"/>
	<path class="st2" d="M444.8,508c0,0-13,5.8-7.2,18.8c0,0-8-9.4-14.5,0c0,0,5.8-11.6-8.7-15.9c0,0,12.3,0.7,14.8-13.2
		C429.2,497.7,431.8,515.2,444.8,508z"/>
	<path class="st2" d="M457.1,533.9c0,2.1,1.7,3.7,3.7,3.7c2.1,0,3.7-1.7,3.7-3.7s-1.7-3.7-3.7-3.7
		C458.8,530.2,457.1,531.8,457.1,533.9z"/>
	<path class="st2" d="M447.8,538.9c0,1,0.8,1.9,1.9,1.9c1,0,1.9-0.8,1.9-1.9c0-1-0.8-1.9-1.9-1.9C448.6,537,447.8,537.9,447.8,538.9
		z"/>
	<g>
		<path class="st12" d="M340.2,505.4c0.6-1.3-5-5.1-13.6-9.7c1.2-5.6-1.6-11.5-7-13.9c-5.4-2.5-11.7-0.7-15.1,3.8
			c-9.2-3.6-16-5.3-16.6-4.1c-0.6,1.3,5.3,5.3,14.2,10c-0.7,5.3,2.1,10.6,7.2,12.9c5.1,2.3,11,0.9,14.5-3.1
			C332.9,504.9,339.6,506.7,340.2,505.4z"/>
		<path class="st3" d="M302.8,491c0,0,14.8,8.2,21,10.4l-1.3,0.6c0,0-11.9-0.4-19.8-6.2L302.8,491z"/>
		<path class="st3" d="M318.6,480.9c0,0-9.5,1.2-8.9,8.7c0,0-7.2-2.7-7.8-3.4c-0.6-0.7,2-1,2-1s5.9-5.1,11.4-5.1L318.6,480.9z"/>
		<path class="st3" d="M325.5,497.5L325.5,497.5C325.5,497.5,334.3,502.7,325.5,497.5z"/>
		<path class="st3" d="M331.7,501.3c-1.4,0.4-7.2-2.9-7.2-2.9l1-1C325.5,497.5,333.7,500.7,331.7,501.3z"/>
	</g>
	<path class="st13" d="M106.4,505.9l-0.1,0.1c-0.2,0.2-0.4,0.4-0.5,0.6C106,506.4,106.3,506.1,106.4,505.9z M227.5,559.1
		c-0.1-0.1-0.2-0.1-0.2-0.2c-0.4,0.1-0.8,0.1-1.2,0.2C226.6,559.2,227,559.3,227.5,559.1z M15.7,408.4c0.7,2.4,2.1,4.5,3.1,6.8
		c1.2,2.7,2.6,5.3,3.7,8.1c0.7,1.6,2.2,4.2,2.2,6c0,1.3-0.8,2.1-1.3,3.1c-0.8,1.9,0.5,3.3,1.2,5c0.7,1.7-0.3,2.4-1,4
		c-1.2,2.8-1.7,5.8-1.3,8.8c0.1,0.7-0.1,0.7,0.5,1.4c0.9,0.9,1.9,1.5,2.7,2.4c2.2,2.3,5,5.3,3.4,8.8c0.2-0.7,1.8-1.4,2.4-1.8
		c1-0.6,2.4-2,3.6-1.8c0,1.4,0.1,2.7-0.6,4c-0.6,1.2-2.8,3.6-1.5,5.1c0.9,1,2.8,1.1,4,1.1c0.8,0,3.6,0.6,4.2,0
		c0.5-0.6,0.3-1.5,0.5-2.2c1.2,0,1.4-0.4,2.3-1c1.2-0.8,2.8-0.8,4.1-0.9c0.1-1.4,0.7-2.6,1-4c0.1-0.5-0.3-1.9,0-2.3
		c0.2-0.3,0.5-0.1,0.6-0.3c0.2-0.2,0.5-0.6,0.7-0.9c1.3-2.3,2.8-5.1,5.5-6c0.5,0.9,0.7,1.4,1.5,1.9c1,0.6,2.1,0.8,3.3,0.9
		c1.3,0.1,2.8-0.3,3.7,0.4c0.1,0.2,0.1,0.4,0.3,0.6c0.3,0.1,0.6,0.3,0.9,0.5c0.6,0.8,0,1.5,0,2.3c0,1.2,0.5,2.1,1,3.2
		c0.4,1,1.6,2.6,1.6,3.7c1.3,0.3,4.7-1.1,5.2,0.1c0.2,0.4-0.1,1.6-0.1,2.1c0,0.4,0.1,0.8,0,1.2c-0.1,0.3-0.4,0.5-0.5,0.7
		c-0.2,1,0.8,1.5,0.5,2.6c-0.4,1.4-2.1,1.5-3.1,2.1c-2.1,1.2-3.4,3.6-3.1,5.9c0.2,2.1,2.7,3.9,3.7,5.7c0.4,0.7,0.4,2.1,1,2.5
		c0.6,0.5,2.3-0.2,2.9-0.3c1.3-0.1,2.8-0.3,4-0.2c1.1,0.1,2.3,0.6,2.9,1.6c0.8,1.2,0.2,2.5,0.4,3.8c0.2,1.7,1.5,2.4,0.6,4.1
		c-0.4,0.7-0.4,0.5-0.5,1.2c-0.1,0.9-0.4,1.6,0.3,2.2c0.6,0.4,2,0.2,2.6,0.2c1.2,0,2.5-0.1,3.7,0.1c1.1,0.1,2.1,0.7,3.2,0.9
		c1.4,0.3,2.8,0.1,4,1c1,0.8,0.5,0.8,0.5,1.8c0,0.8,0.6,0.7,0.1,1.6c-1.3,2.2-5.1,2.7-7.3,3.1c-1.1,0.2-1.2,0.4-1,1.5
		c0,0.3-0.2,0.4-0.1,0.6c0.2,0.3,2.2,0.6,2.4,0.7c2.3,0.7,4.8,1.1,7.1,1.9c1,0.3,1.8,0.6,2.5,1.5c0.8,1.1,1.4,2.5,2.1,3.7
		c0.5,0.9,0.9,1.9,1.3,2.8c0.1,0.4,0.3,2.2,0.8,2.4c0.5,0.2,1.4-0.2,1.9-0.3c1.2-0.3,2.3-0.8,3.5-1.3c1.3-0.5,2.6-0.7,3.9-0.9
		c0.8-0.1,4.1-0.8,4.9-0.1c0.6,0.6,0.1,1.2,0.2,2c0.2,1,0.8,2,0.8,3.2c0,1.6-0.4,1.1-1.4,1.7c-0.5,0.3-0.7,0.7-1.3,1
		c-1.3,0.7-2.5,1.6-3.7,2.4c1.1,0.7,3.7,2.1,1.7,3.3c-3.1,1.8-7,0-10.2,0.9c0,0.9,0.3,2.1,0.5,2.9c0.1,0.3,0.4,0.7,0.4,1.1
		c0.2,1.1-0.1,1.9-0.7,2.9c-1,1.8-3.3,2.9-3.9,4.8c4.7,2,9.6,3.5,14.6,4.3c1.7,0.3,3.7-0.1,5.3,0.3c0,0.4,0,0.8,0,1.3
		c2.9,0.6,6.6-0.4,9.5-1.3c-0.6-0.4-0.4-0.5,0.7-0.4c0.7,0.2,1.4,0.2,2.1,0.2c3.2,0.7,6.4,1.4,9.6,2.2c4.1,1.2,8.1,2.5,12.2,3.9
		c6.7,2.1,13.4,3.8,20.4,3.9c2.1,0.1,4.2-0.1,6.3-0.5c0.4-0.6,1-0.8,1.7-0.6c9.2-1.1,18.6-2.3,27.9-3c3.2-0.3,6.5-0.5,9.7-0.4
		c2.5-0.8,4.6-0.5,6.2,0.9c10.1-1.4,20.2-2.9,30.3-4.5c-0.6,0-1.2,0-1.8,0.1c0.9,0,0.7-2,1.1-2.7c0.7-1.2,2.3-1.8,1.9-3.4l-0.5,0.5
		c-0.4-0.7-0.3-1.5-0.9-1.9c-0.6-0.4-2.1-0.4-2.8-0.5c-2.1-0.1-1.7-1.1-2.6-2.6c-0.4-0.7-0.6-0.4-0.7-1.4c0-0.7-0.1-1.4,0.2-2
		c0.5-0.7,1-0.4,0.6-1.6c-0.5-1.4-2.2-2.2-2.7-3.5c-0.6,0.6-2.2,0.3-2.4-0.6c-0.2-0.6,0.7-1.1,0.9-1.6c0.2-0.5,0.1-0.7,0.1-1.2
		c0.1-2.3-1-0.7-2.2-1.8c-0.4-0.4-0.5-1.7-0.8-2.2c-0.3-0.7-0.7-1.3-1.1-1.9c-0.6-1-1.8-2-2.7-2.4c-0.8-0.4-4.1-0.9-4.9-0.5
		c-0.5,0.3-0.5,0.6-1.1,0.9c-0.7,0.4-1.6,0.2-2.3-0.2c-1.6-1-2-2.6-2.9-4.1c-0.5-0.9-2.1-2-2.3-3c-0.9-0.2-1.8,0.1-2.7,0
		c-0.6-0.1-0.6-0.3-1.1-0.5c-0.5-0.2-1.1,0-1.6-0.2c-0.3-0.1-0.5-0.4-0.9-0.4c-0.6,0-1,0.4-1.6,0.5c-1.5,0.3-2.8-0.6-4.1-1
		c-0.4,1.2-1.4,2.3-2.4,3.1c-0.5,0.5-1.3,0.7-1.2,1.5c0.4,0.1,0.9,0.1,1.3,0c-2,0.6-4.6,1.5-6.7,1c-0.9-0.2-0.9-1-1.6-1.4
		c-0.5-0.3-1.5-0.1-2,0c0.5,2.6-5.9,0.9-7,0.9c-0.3,0.5,0.1,0.8,0,1.3c-1.4,0.2-2.8,0.2-4.2-0.1c-1.4,0-2.5-0.6-3.2-1.7
		c0-0.4-0.2-0.6-0.6-0.6c-0.3,0.1-0.6,0.1-0.9,0c0-0.3,0-1-0.1-1.2c-0.2-0.3-0.5-0.3-0.7-0.4c-0.6-0.7-0.5-0.1-0.7-1
		c-0.1-0.5,0-1.2,0.3-1.6c0.3-0.4,0.8-0.3,1-0.7c0.2-0.4,0.1-0.8,0.1-1.2c0-1.8,1.1-3.2,1.3-4.9c-1.1-0.6-2.5-0.8-3.4-1.6
		c-0.6-0.5-0.4-0.4-0.7-0.9c-0.5-0.6-1.6-1.5-2-2.2c-0.5-0.8,0-1.6-0.7-2.4c-0.7-0.8-1.9-1.3-2.8-1.9c-1.5-1-2.9-2.1-4.3-3.2
		c-1.1,0.7-1.9,2.1-2.8,3.1c-1.2,1.4-1.3,3.3-2.5,4.8c-1.1,1.4-1.9,1-3.1,0.2c-1-0.6-1.2-0.7-0.6-2.1c0.5-1.2,1.4-2.2,2.1-3.3
		c-0.5-0.3-0.8-0.2-1.4-0.4c-1-0.3-1.9-1-2.8-1.5c-1.4-0.8-1.6-1.7-3.3-1.7c-1.6,0-3.2,0-4.8,0c-1.3,0-1.9-0.2-3.1,0.3
		c-1.7,0.8-3.4,1.6-5.3,2.2c-0.3,1.4,1.7,1.9,1.5,3.5c-1.4,0.7-3.8-1.2-5.1-1.8c-0.6-0.3-1.3-0.5-1.8-0.9c-0.6,1.6-3.4,2.7-4.8,3.2
		c-1.4-1.2,0.3-4-0.4-5.1c-0.2-0.1-0.5-0.1-0.7,0c-0.1-0.2-0.2-0.4-0.4-0.6c-0.5-0.4-1.3-0.5-1.7-0.9c-0.5-0.5-0.4-0.9-0.9-1.4
		c-0.7-0.8-2.6-0.6-3.5-0.9c-1.8-0.5-3.2-1.7-4.8-2.5c-0.7-0.3-1.4-0.5-2.1-0.8c-0.4,0.5-0.5,1-1.1,1.3c-0.9,0.5-1.9,0.3-2.8,0.8
		c-0.5,0.2-0.6,0.4-1.1,0.5c-0.4,0.1-0.8-0.2-1.2-0.1c-0.7,0.2-1.5,1-2.3,1.3c-1.3,0.6-2.8,1.4-4.2,1.5c-0.7-0.8,0-1.9-0.8-2.7
		c-0.3-0.3-0.6-0.4-0.9-0.7c-0.2-0.3-0.6-1.2-0.8-1.6c-0.5-1.1,0.2-1.4-0.9-2.1c-1.1-0.7-1.9-1.2-2.5-2.5c-0.5-1.1-0.7-0.8-1.7-1.3
		c-1-0.5-0.9-1.6-1.5-2.5c-0.8-1.2-3.3-1.8-4.7-1.7c-0.8,0.1-2.9,0.7-3.2,1.6c-1.9-0.5-4.3-2-5.5-3.4c-0.6-0.7-0.5-1.4-1.2-2.2
		c-0.7-0.7-2-1.2-2.5-2c-0.2-0.3,0-0.7-0.2-1.1c-0.2-0.3-0.7-0.3-1-0.5c-0.6-0.7-1-2.8-0.8-3.7c0.3-1.1,1.9-1.6,2.6-2.5
		c0.3-0.4,0.3-1,0.6-1.4c0.5-0.8,1.3-1.3,2.1-1.9c-0.8-0.4-2.1-1-2.4-1.9c-0.3-0.8,0.2-1.3,0.4-2.1c0.3-1.2,0.1-2.8,0.1-4
		c0-0.7,0.3-2.1,0-2.7c-0.5-1-2.5-1.4-3.4-1.8c-1-0.5-2.4-1-2.9-2.1c-0.1-0.3-0.3-1.3-0.4-1.7c-0.4-1.9,1.4-4.7-1-5.7
		c-0.6-0.2-0.6-0.2-1.4-0.2c-1,0.1-1.6-0.1-2.5-0.2c-1.3-0.1-2.7,1.1-3.8,1.5c-1.1,0.4-2.3,0.2-3.4,0.7c-1.8,0.9-2.9,2.7-4.9,3.2
		c-1.4,0.4-3,0.1-4.4,0.3c0.2-2.2-0.2-3.9-1.8-5.6c-1.4-1.5-3.4-2.6-4.8-4.2c-0.5-0.6-1-1.7-1-2.6c0-1.5,0.7-2.9,1.5-4.1
		c0.9-1.2,1.9-2.9,3.2-3.8c-0.4-0.6-0.6-1.4-1-2c-0.9-1.5-1.5-3.2-1.7-5c-0.1-1,0.2-2.1,0-3c-0.2-0.9-0.5-0.8-1.4-1.2
		c-2.5-1-4.9-2.1-7.2-3.5c-0.6,0.6-0.6,0.9-1.6,1c-1.4,0.1-3.5-0.3-4.6-1.2c-2.3-1.9-2.1-3.8-0.6-6.4c0.5-1,2.9-3.5,2.2-4.7
		c-0.3-0.6-1.4-0.9-1.9-1.3c-0.7-0.5-1.2-1.2-1.5-2c-0.2-0.7-0.5-1.8-0.6-2.6c-0.2-1.1,0.5-2,0.8-3.2c0.6-2.1,0.5-4,0-6
		c-0.2-0.9-0.9-1.1-1.2-1.8c-0.8-1.9,4.5-5.7,5.5-6.7c1.1-1.1,3.3-2.7,2.5-4.4c-0.7-1.5-2.8-1.9-4.2-2.1c-0.9-0.1-4.4,0.3-4.9-0.5
		c-0.4-0.5,0.3-1.6,0.4-2.1c-0.6-0.4-1.4-0.4-1.8-1c-0.5-0.7-0.1-2.7-0.2-3.5c-0.2-1.3-0.5-2.1-0.3-3.5c0.3-1.9,1.2-3.3,2.2-4.9
		c0.3-0.5,0.8-0.7,0.6-1.4c-0.2-0.5-2.7-2-2.9-2.1c-1.4-1-4.8-3.3-4.6-5.4c0.3,1.4-1.1,4.3-1.5,5.7c-0.2,0.9-0.3,1.6-0.3,2.6
		c0,2.3,0,4.6,0,6.9c0,2.2,0.4,5-0.3,7.1c-0.6,1.9-2.5,3.8-2.6,5.8c-0.1,1.4,1.3,2.8,1.5,4.3c0.2,1.5-0.2,2.9,0.2,4.4
		c1.9,6.7-0.5,12.8-3.9,18.7c-1,1.8-2.5,3.2-3.4,5C15.2,407.2,15.4,407.2,15.7,408.4z M215.8,528.9c0.1,0,0.3,0,0.4-0.1l0.5,0.9
		c-0.3-1.3,0.6-1.3,1.3-2c0.8-0.8,0.7-2,1.9-2.2c0.6-0.1,1.3,0.1,1.9-0.1c0.7-0.2,1.2-0.7,1.7-1.2c1.1-0.9,2.5-1.8,3.1,0
		c0.6,1.6,0.4,2.4,1.9,3.5c1,0.7,1.6,1.2,2.8,1.4c1.9,0.2,5.4-0.5,6.8,1.1c0.5,0.5,0.3,1.1,0.5,1.7c0.2,0.6,0.6,0.9,0.9,1.5
		c0.8,1.5-0.5,2.4-2,2.8c-1.4,0.4-2.6-0.4-4-0.2c-2,0.2-4.5,1.8-6.5,1.3c-0.3-0.1-0.4-0.4-0.7-0.5c-0.5-0.2-1.1-0.1-1.6-0.3
		c-2-0.5-1.7-2.3-3.1-3.3c-1.3-1-2.7,0.9-4.1,0.5c-1.2-0.3-0.7-1.5-1-2.4C216.4,530.4,215.9,529.7,215.8,528.9z M103.6,508.7
		l2.7-2.7c0.8-0.9,1.7-1.5,2.7-0.4c0.2,0.4,0.4,0.7,0.5,1.1c0.2,0.3,0.5,0.5,0.8,0.8c0.7,1,0.5,2.5,1.3,3.4c1.1-0.8,4.7,0.8,4.7,2.2
		c0,1.2-3.6,3.4-4.6,3.6c-0.6,0.1-0.9-0.1-1.5-0.1c-0.7,0-1.7,0.4-2.4,0.1c-1-0.4-1.1-2-1.6-2.9c-0.6-1-1.7-1.8-2.1-3
		c-0.4-1.4,1.1-1,1.4-2.2c0.1-0.5-0.3-1-0.1-1.5c0-0.1,0.1-0.2,0.2-0.3C105,507.7,104.3,508.6,103.6,508.7z M33.7,451.6
		c0.4-1,2.3-3.5,3.6-3.1c0,0.2,0.1,0.3,0.1,0.5c0.1,0,0.2,0,0.3,0c1.8-0.2,3.7,0.1,5.5,0c0.5-0.1,1.1-0.1,1.6-0.1
		c0.5,0.1,0.9,0.3,1.1,0.8c0.5,0.2,0.8,0.1,1.3,0.2c0.9,0.2,0.9,1,1.3,1.7c0.6,1.3,1.3,2.8,0.9,4.3c-1.2,0.3-2.7,0.9-3.4,2
		c-0.4,0.7-0.3,1.2-1.4,1.5c-0.4,0.1-0.8,0.2-1.2,0.3c-0.6,0.3-1.2,1.1-1.9,1.1c-2.4,0.2-0.8-5.7-2.7-7c-1.3-0.9-3.7,0-5.2-0.3
		C33.6,452.9,33.5,452.3,33.7,451.6z"/>
	<path class="st14" d="M552.1,11.7c0-0.2-0.1-0.3-0.1-0.5L552.1,11.7z"/>
</g>
<g id="STARS">
	<path class="st15" d="M501.4,183.9c0,1.4-1.1,2.5-2.5,2.5c-1.4,0-2.5-1.1-2.5-2.5c0-1.4,1.1-2.5,2.5-2.5
		C500.3,181.4,501.4,182.5,501.4,183.9z"/>
	<path class="st15" d="M353,256.1c0,0.8-0.7,1.5-1.5,1.5s-1.5-0.7-1.5-1.5c0-0.8,0.7-1.5,1.5-1.5S353,255.3,353,256.1z"/>
	<path class="st15" d="M363.4,285.8c0,0.8-0.7,1.5-1.5,1.5c-0.8,0-1.5-0.7-1.5-1.5c0-0.8,0.7-1.5,1.5-1.5
		C362.8,284.3,363.4,285,363.4,285.8z"/>
	<path class="st15" d="M348.6,285.8c0,0.8-0.7,1.5-1.5,1.5c-0.8,0-1.5-0.7-1.5-1.5c0-0.8,0.7-1.5,1.5-1.5
		C347.9,284.3,348.6,285,348.6,285.8z"/>
	<path class="st15" d="M312.1,232.2c0,0.8-0.7,1.5-1.5,1.5c-0.8,0-1.5-0.7-1.5-1.5c0-0.8,0.7-1.5,1.5-1.5
		C311.4,230.8,312.1,231.4,312.1,232.2z"/>
	<path class="st15" d="M174.1,246.8c0,0.8-0.7,1.5-1.5,1.5c-0.8,0-1.5-0.7-1.5-1.5s0.7-1.5,1.5-1.5
		C173.4,245.4,174.1,246,174.1,246.8z"/>
	<path class="st15" d="M199.3,235c0,0.8-0.7,1.5-1.5,1.5c-0.8,0-1.5-0.7-1.5-1.5c0-0.8,0.7-1.5,1.5-1.5
		C198.6,233.5,199.3,234.2,199.3,235z"/>
	<path class="st15" d="M292.8,243.7c0,0.6-0.5,1.1-1.1,1.1c-0.6,0-1.1-0.5-1.1-1.1c0-0.6,0.5-1.1,1.1-1.1
		C292.3,242.6,292.8,243.1,292.8,243.7z"/>
	<path class="st15" d="M265.4,243.7c0,0.6-0.5,1.1-1.1,1.1c-0.6,0-1.1-0.5-1.1-1.1c0-0.6,0.5-1.1,1.1-1.1
		C264.9,242.6,265.4,243.1,265.4,243.7z"/>
	<path class="st15" d="M281.7,248.2c0,0.6-0.5,1.1-1.1,1.1c-0.6,0-1.1-0.5-1.1-1.1c0-0.6,0.5-1.1,1.1-1.1
		C281.2,247,281.7,247.5,281.7,248.2z"/>
	<path class="st15" d="M427.3,284.1c0,0.8-0.7,1.5-1.5,1.5s-1.5-0.7-1.5-1.5c0-0.8,0.7-1.5,1.5-1.5S427.3,283.3,427.3,284.1z"/>
	<path class="st15" d="M474.3,210.8c0,0.8-0.7,1.5-1.5,1.5c-0.8,0-1.5-0.7-1.5-1.5c0-0.8,0.7-1.5,1.5-1.5
		C473.6,209.3,474.3,210,474.3,210.8z"/>
	<path class="st15" d="M463.9,241.2c0,0.8-0.7,1.5-1.5,1.5c-0.8,0-1.5-0.7-1.5-1.5c0-0.8,0.7-1.5,1.5-1.5
		C463.2,239.7,463.9,240.4,463.9,241.2z"/>
	<path class="st15" d="M492.8,230.1c0,0.6-0.5,1.1-1.1,1.1c-0.6,0-1.1-0.5-1.1-1.1c0-0.6,0.5-1.1,1.1-1.1
		C492.3,228.9,492.8,229.4,492.8,230.1z"/>
	<path class="st15" d="M487.7,241.9c0,0.6-0.5,1.1-1.1,1.1c-0.6,0-1.1-0.5-1.1-1.1c0-0.6,0.5-1.1,1.1-1.1
		C487.2,240.8,487.7,241.3,487.7,241.9z"/>
	<path class="st15" d="M461,223.4c0,0.6-0.5,1.1-1.1,1.1c-0.6,0-1.1-0.5-1.1-1.1c0-0.6,0.5-1.1,1.1-1.1
		C460.5,222.3,461,222.8,461,223.4z"/>
	<path class="st15" d="M445.9,101.4c0,1.4-1.1,2.5-2.5,2.5c-1.4,0-2.5-1.1-2.5-2.5c0-1.4,1.1-2.5,2.5-2.5
		C444.8,98.9,445.9,100,445.9,101.4z"/>
	<path class="st15" d="M418.8,128.2c0,0.8-0.7,1.5-1.5,1.5c-0.8,0-1.5-0.7-1.5-1.5c0-0.8,0.7-1.5,1.5-1.5
		C418.1,126.8,418.8,127.4,418.8,128.2z"/>
	<path class="st15" d="M408.4,158.7c0,0.8-0.7,1.5-1.5,1.5c-0.8,0-1.5-0.7-1.5-1.5c0-0.8,0.7-1.5,1.5-1.5
		C407.8,157.2,408.4,157.9,408.4,158.7z"/>
	<path class="st15" d="M437.4,147.5c0,0.6-0.5,1.1-1.1,1.1c-0.6,0-1.1-0.5-1.1-1.1s0.5-1.1,1.1-1.1
		C436.9,146.4,437.4,146.9,437.4,147.5z"/>
	<path class="st15" d="M432.2,159.4c0,0.6-0.5,1.1-1.1,1.1c-0.6,0-1.1-0.5-1.1-1.1c0-0.6,0.5-1.1,1.1-1.1
		C431.7,158.3,432.2,158.8,432.2,159.4z"/>
	<path class="st15" d="M405.5,140.9c0,0.6-0.5,1.1-1.1,1.1c-0.6,0-1.1-0.5-1.1-1.1s0.5-1.1,1.1-1.1
		C405,139.7,405.5,140.2,405.5,140.9z"/>
	<path class="st15" d="M359.2,301c0,0.6-0.5,1.1-1.1,1.1c-0.6,0-1.1-0.5-1.1-1.1c0-0.6,0.5-1.1,1.1-1.1
		C358.7,299.8,359.2,300.3,359.2,301z"/>
	<path class="st15" d="M285.3,111c0.9,0,1.7,0.8,1.7,1.7c0,0.9-0.8,1.7-1.7,1.7c-0.9,0-1.7-0.8-1.7-1.7
		C283.6,111.7,284.4,110.9,285.3,111z"/>
	<path class="st15" d="M250.2,124.9c0.9,0,1.7,0.8,1.7,1.7c0,0.9-0.8,1.7-1.7,1.7c-0.9,0-1.7-0.8-1.7-1.7
		C248.5,125.7,249.3,124.9,250.2,124.9z"/>
	<path class="st15" d="M289.3,130.6c0.9,0,1.7,0.8,1.7,1.7c0,0.9-0.8,1.7-1.7,1.7c-0.9,0-1.7-0.8-1.7-1.7
		C287.6,131.3,288.3,130.6,289.3,130.6z"/>
	<path class="st15" d="M268,127.7c0.9,0,1.7,0.8,1.7,1.7c0,0.9-0.8,1.7-1.7,1.7c-0.9,0-1.7-0.8-1.7-1.7
		C266.3,128.5,267.1,127.7,268,127.7z"/>
	<path class="st15" d="M261,142.1c0.9,0,1.7,0.8,1.7,1.7c0,0.9-0.8,1.7-1.7,1.7c-0.9,0-1.7-0.8-1.7-1.7
		C259.3,142.8,260.1,142.1,261,142.1z"/>
	<path class="st15" d="M234.5,155.3c0.9,0,1.7,0.8,1.7,1.7c0,0.9-0.8,1.7-1.7,1.7c-0.9,0-1.7-0.8-1.7-1.7
		C232.8,156.1,233.6,155.3,234.5,155.3z"/>
	<path class="st15" d="M330.3,165c0.9,0.3,1.4,1.2,1.1,2.1c-0.3,0.9-1.3,1.4-2.1,1.1c-0.9-0.3-1.4-1.2-1.1-2.1
		C328.4,165.1,329.4,164.7,330.3,165z"/>
	<path class="st15" d="M167.7,404.6c-0.3,0.9-1.2,1.4-2.1,1.1c-0.9-0.3-1.4-1.2-1.1-2.1c0.3-0.9,1.2-1.4,2.1-1.1
		C167.5,402.8,168,403.8,167.7,404.6z"/>
	<path class="st15" d="M133.7,198c0,0.9-0.7,1.6-1.6,1.6c-0.9,0-1.6-0.7-1.6-1.6c0-0.9,0.7-1.6,1.6-1.6
		C132.9,196.4,133.7,197.1,133.7,198z"/>
	<path class="st15" d="M192.4,193.6c0,0.7-0.5,1.2-1.2,1.2s-1.2-0.5-1.2-1.2c0-0.7,0.5-1.2,1.2-1.2S192.4,192.9,192.4,193.6z"/>
	<path class="st15" d="M164.5,196c0,0.7-0.5,1.2-1.2,1.2c-0.7,0-1.2-0.5-1.2-1.2c0-0.7,0.5-1.2,1.2-1.2
		C163.9,194.8,164.5,195.3,164.5,196z"/>
	<path class="st15" d="M194.8,204.8c0,0.7-0.5,1.2-1.2,1.2c-0.7,0-1.2-0.5-1.2-1.2c0-0.7,0.5-1.2,1.2-1.2
		C194.3,203.6,194.8,204.1,194.8,204.8z"/>
	<path class="st15" d="M551.6,378.6c0,0.9-0.7,1.6-1.6,1.6c-0.9,0-1.6-0.7-1.6-1.6c0-0.9,0.7-1.6,1.6-1.6
		C550.9,377,551.6,377.7,551.6,378.6z"/>
	<path class="st15" d="M542.8,361c0,0.9-0.7,1.6-1.6,1.6c-0.9,0-1.6-0.7-1.6-1.6c0-0.9,0.7-1.6,1.6-1.6
		C542.1,359.4,542.8,360.1,542.8,361z"/>
	<path class="st15" d="M510.1,359.4c0,0.9-0.7,1.6-1.6,1.6s-1.6-0.7-1.6-1.6c0-0.9,0.7-1.6,1.6-1.6S510.1,358.5,510.1,359.4z"/>
	<path class="st15" d="M290.8,353.8c0.4-1.3,1.8-2,3.1-1.7c1.3,0.4,2,1.8,1.6,3.1c-0.4,1.3-1.8,2-3.1,1.6
		C291.2,356.5,290.4,355.1,290.8,353.8z"/>
	<path class="st15" d="M453.8,327.6c0.2-0.8,1.1-1.2,1.8-1c0.8,0.2,1.2,1.1,1,1.8c-0.2,0.8-1.1,1.2-1.8,1
		C454,329.2,453.5,328.4,453.8,327.6z"/>
	<path class="st15" d="M452.4,296.2c0.2-0.8,1.1-1.2,1.8-1c0.8,0.2,1.2,1.1,1,1.8c-0.2,0.8-1.1,1.2-1.8,1
		C452.6,297.8,452.2,297,452.4,296.2z"/>
	<path class="st15" d="M466.6,300.5c0.2-0.8,1.1-1.2,1.8-1c0.8,0.2,1.2,1.1,1,1.8c-0.2,0.8-1.1,1.2-1.8,1
		C466.8,302.1,466.4,301.3,466.6,300.5z"/>
	<path class="st15" d="M486.1,362.3c0.2-0.8,1.1-1.2,1.8-1c0.8,0.2,1.2,1.1,1,1.8c-0.2,0.8-1.1,1.2-1.8,1
		C486.3,363.9,485.8,363.1,486.1,362.3z"/>
	<path class="st15" d="M622.4,388.3c0.2-0.8,1.1-1.2,1.8-1c0.8,0.2,1.2,1.1,1,1.8c-0.2,0.8-1.1,1.2-1.8,1
		C622.6,389.9,622.1,389,622.4,388.3z"/>
	<path class="st15" d="M594.8,392.3c0.2-0.8,1.1-1.2,1.8-1c0.8,0.2,1.2,1.1,1,1.8c-0.2,0.8-1.1,1.2-1.8,1
		C595,393.9,594.6,393.1,594.8,392.3z"/>
	<path class="st15" d="M507.8,356.9c0.2-0.6,0.8-0.9,1.4-0.8c0.6,0.2,0.9,0.8,0.8,1.4c-0.2,0.6-0.8,0.9-1.4,0.7
		C507.9,358.1,507.6,357.5,507.8,356.9z"/>
	<path class="st15" d="M534,364.8c0.2-0.6,0.8-0.9,1.4-0.7c0.6,0.2,0.9,0.8,0.8,1.4c-0.2,0.6-0.8,0.9-1.4,0.7
		C534.2,366.1,533.9,365.4,534,364.8z"/>
	<path class="st15" d="M519.7,355.9c0.2-0.6,0.8-0.9,1.4-0.8c0.6,0.2,0.9,0.8,0.7,1.4c-0.2,0.6-0.8,0.9-1.4,0.8
		C519.9,357.1,519.5,356.4,519.7,355.9z"/>
	<path class="st15" d="M390.7,279.3c0.2-0.8,1.1-1.2,1.9-1c0.8,0.2,1.2,1.1,1,1.8c-0.2,0.8-1.1,1.2-1.9,1
		C390.9,280.9,390.5,280,390.7,279.3z"/>
	<path class="st15" d="M324.6,335.9c0.2-0.8,1.1-1.2,1.8-1c0.8,0.2,1.2,1.1,1,1.8c-0.2,0.8-1.1,1.2-1.8,1
		C324.8,337.5,324.3,336.7,324.6,335.9z"/>
	<path class="st15" d="M343.3,309.8c0.2-0.8,1.1-1.2,1.8-1c0.8,0.2,1.2,1.1,1,1.8c-0.2,0.8-1.1,1.2-1.8,1
		C343.5,311.4,343.1,310.6,343.3,309.8z"/>
	<path class="st15" d="M312.4,312.1c0.2-0.6,0.8-0.9,1.4-0.8c0.6,0.2,0.9,0.8,0.8,1.4c-0.2,0.6-0.8,0.9-1.4,0.7
		C312.5,313.3,312.2,312.7,312.4,312.1z"/>
	<path class="st15" d="M320.8,302.2c0.2-0.6,0.8-0.9,1.4-0.7c0.6,0.2,0.9,0.8,0.7,1.4c-0.2,0.6-0.8,0.9-1.4,0.7
		C320.9,303.4,320.6,302.8,320.8,302.2z"/>
	<path class="st15" d="M341,327.7c0.2-0.6,0.8-0.9,1.4-0.8c0.6,0.2,0.9,0.8,0.7,1.4c-0.2,0.6-0.8,0.9-1.4,0.8
		C341.1,328.9,340.8,328.3,341,327.7z"/>
	<path class="st15" d="M320.1,448.8c0.4-1.3,1.8-2,3.1-1.6c1.3,0.4,2,1.8,1.6,3.1c-0.4,1.3-1.8,2-3.1,1.6
		C320.4,451.5,319.7,450.1,320.1,448.8z"/>
	<path class="st15" d="M353.8,431c0.2-0.8,1.1-1.2,1.8-1c0.8,0.2,1.2,1.1,1,1.8c-0.2,0.8-1.1,1.2-1.8,1
		C354,432.6,353.6,431.7,353.8,431z"/>
	<path class="st15" d="M372.5,404.8c0.2-0.8,1.1-1.2,1.8-1c0.8,0.2,1.2,1.1,1,1.8c-0.2,0.8-1.1,1.2-1.8,1
		C372.7,406.4,372.3,405.6,372.5,404.8z"/>
	<path class="st15" d="M341.6,407.1c0.2-0.6,0.8-0.9,1.4-0.8c0.6,0.2,0.9,0.8,0.8,1.4c-0.2,0.6-0.8,0.9-1.4,0.7
		C341.8,408.3,341.4,407.7,341.6,407.1z"/>
	<path class="st15" d="M350,397.3c0.2-0.6,0.8-0.9,1.4-0.7c0.6,0.2,0.9,0.8,0.8,1.4c-0.2,0.6-0.8,0.9-1.4,0.7
		C350.2,398.5,349.8,397.9,350,397.3z"/>
	<path class="st15" d="M370.2,422.7c0.2-0.6,0.8-0.9,1.4-0.7c0.6,0.2,0.9,0.8,0.7,1.4c-0.2,0.6-0.8,0.9-1.4,0.8
		C370.3,424,370,423.3,370.2,422.7z"/>
	<path class="st15" d="M460.8,282.9c0.2-0.6,0.8-0.9,1.4-0.7c0.6,0.2,0.9,0.8,0.7,1.4c-0.2,0.6-0.8,0.9-1.4,0.7
		C461,284.1,460.6,283.5,460.8,282.9z"/>
	<path class="st15" d="M476.6,486.1c-0.9-0.3-1.4-1.2-1.1-2.1c0.3-0.9,1.2-1.4,2.1-1.1c0.9,0.3,1.4,1.2,1.1,2.1
		C478.4,485.9,477.5,486.4,476.6,486.1z"/>
	<path class="st15" d="M514.2,482.9c-0.9-0.3-1.4-1.2-1.1-2.1c0.3-0.9,1.2-1.4,2.1-1.1c0.9,0.3,1.4,1.2,1.1,2.1
		C516,482.7,515.1,483.2,514.2,482.9z"/>
	<path class="st15" d="M478.5,466.2c-0.9-0.3-1.4-1.2-1.1-2.1c0.3-0.9,1.2-1.4,2.1-1.1c0.9,0.3,1.4,1.2,1.1,2.1
		C480.3,466,479.3,466.5,478.5,466.2z"/>
	<path class="st15" d="M497.9,475.1c-0.9-0.3-1.4-1.2-1.1-2.1c0.3-0.9,1.2-1.4,2.1-1.1c0.9,0.3,1.4,1.2,1.1,2.1
		C499.8,474.9,498.8,475.4,497.9,475.1z"/>
	<path class="st15" d="M508.8,463.4c-0.9-0.3-1.4-1.2-1.1-2.1c0.3-0.9,1.2-1.4,2.1-1.1c0.9,0.3,1.4,1.2,1.1,2.1
		C510.6,463.2,509.7,463.6,508.8,463.4z"/>
	<path class="st15" d="M538,458.4c-0.9-0.3-1.4-1.2-1.1-2.1c0.3-0.9,1.2-1.4,2.1-1.1c0.9,0.3,1.4,1.2,1.1,2.1
		C539.9,458.2,538.9,458.7,538,458.4z"/>
	<path class="st15" d="M449.1,421.4c-0.8-0.5-0.9-1.6-0.4-2.4c0.5-0.8,1.6-0.9,2.4-0.4c0.8,0.5,0.9,1.6,0.4,2.3
		C451,421.8,449.9,422,449.1,421.4z"/>
	<path class="st15" d="M674.1,239.1c0.5-0.8,1.6-1,2.3-0.4c0.8,0.5,1,1.6,0.4,2.3c-0.5,0.8-1.6,1-2.3,0.4
		C673.8,240.9,673.6,239.8,674.1,239.1z"/>
	<path class="st15" d="M646.9,446.8c0.3-0.8,1.1-1.3,2-1.1c0.8,0.3,1.3,1.1,1.1,2c-0.3,0.8-1.1,1.3-2,1.1
		C647.1,448.5,646.7,447.6,646.9,446.8z"/>
	<path class="st15" d="M589.4,433.9c0.2-0.6,0.9-1,1.5-0.8c0.6,0.2,1,0.9,0.8,1.5c-0.2,0.6-0.9,1-1.5,0.8
		C589.5,435.3,589.2,434.6,589.4,433.9z"/>
	<path class="st15" d="M616.9,439.7c0.2-0.6,0.9-1,1.5-0.8c0.6,0.2,1,0.9,0.8,1.5c-0.2,0.6-0.9,1-1.5,0.8
		C617,441.1,616.7,440.4,616.9,439.7z"/>
	<path class="st15" d="M590.3,422.5c0.2-0.6,0.9-1,1.5-0.8c0.6,0.2,1,0.9,0.8,1.5c-0.2,0.6-0.9,1-1.5,0.8
		C590.5,423.8,590.1,423.2,590.3,422.5z"/>
	<path class="st15" d="M299.1,152.9c0.3-0.8,1.1-1.3,2-1.1c0.8,0.3,1.3,1.1,1.1,2c-0.3,0.8-1.1,1.3-2,1.1
		C299.3,154.6,298.8,153.7,299.1,152.9z"/>
	<path class="st15" d="M302.4,172.3c0.3-0.8,1.1-1.3,2-1.1c0.8,0.3,1.3,1.1,1.1,2c-0.3,0.8-1.1,1.3-2,1.1
		C302.6,174,302.2,173.1,302.4,172.3z"/>
	<path class="st15" d="M333.3,183.3c0.3-0.8,1.1-1.3,2-1.1c0.8,0.3,1.3,1.1,1.1,2c-0.3,0.8-1.1,1.3-2,1.1
		C333.6,185,333.1,184.1,333.3,183.3z"/>
</g>
</svg>
