<?xml version="1.0" encoding="utf-8"?>
<!-- Generator: Adobe Illustrator 22.0.1, SVG Export Plug-In . SVG Version: 6.00 Build 0)  -->
<svg version="1.1" id="Layer_1" xmlns="http://www.w3.org/2000/svg" xmlns:xlink="http://www.w3.org/1999/xlink" x="0px" y="0px"
	 viewBox="0 0 385.5 97.3" style="enable-background:new 0 0 385.5 97.3;" xml:space="preserve">
<style type="text/css">
	.st0{fill:#5B6670;}
	.st1{fill:#EC8D53;}
</style>
<g>
	<path class="st0" d="M98.4,29h27v6.5h-19.5v11.4h18.4v6.3h-18.4v17.6h-7.4V29z"/>
	<path class="st0" d="M154,70.8h-6.7v-4.5h-0.1c-0.6,1.4-1.7,2.7-3.3,3.7c-1.6,1.1-3.4,1.6-5.5,1.6c-1.8,0-3.4-0.3-4.7-1
		c-1.3-0.6-2.4-1.5-3.2-2.6c-0.8-1.1-1.5-2.3-1.9-3.7c-0.4-1.4-0.6-2.8-0.6-4.2V42.4h7.1v15.7c0,0.8,0.1,1.7,0.2,2.6
		c0.1,0.9,0.4,1.7,0.8,2.4c0.4,0.7,0.9,1.3,1.6,1.8c0.7,0.5,1.6,0.7,2.7,0.7c1.1,0,2.1-0.2,2.9-0.7c0.8-0.5,1.5-1,2.1-1.7
		c0.5-0.7,0.9-1.5,1.2-2.4c0.3-0.9,0.4-1.9,0.4-2.8V42.4h7.1V70.8z"/>
	<path class="st0" d="M176.6,50c-0.6-0.8-1.5-1.5-2.6-2.2c-1.1-0.6-2.3-0.9-3.6-0.9c-1.1,0-2.2,0.2-3.1,0.7
		c-0.9,0.5-1.4,1.3-1.4,2.4s0.5,1.9,1.6,2.3c1,0.5,2.6,0.9,4.6,1.4c1.1,0.2,2.1,0.6,3.2,0.9c1.1,0.4,2.1,0.9,3,1.6
		c0.9,0.6,1.6,1.5,2.2,2.4c0.6,1,0.8,2.1,0.8,3.5c0,1.7-0.3,3.2-1,4.4c-0.6,1.2-1.5,2.2-2.6,2.9c-1.1,0.7-2.3,1.3-3.8,1.6
		c-1.4,0.3-2.9,0.5-4.5,0.5c-2.2,0-4.3-0.4-6.4-1.2c-2.1-0.8-3.8-2-5.2-3.5l4.7-4.4c0.8,1,1.8,1.9,3.1,2.5c1.3,0.7,2.7,1,4.2,1
		c0.5,0,1-0.1,1.6-0.2c0.5-0.1,1-0.3,1.5-0.6c0.5-0.3,0.8-0.6,1.1-1c0.3-0.4,0.4-1,0.4-1.6c0-1.2-0.5-2-1.6-2.5
		c-1.1-0.5-2.7-1-4.9-1.5c-1.1-0.2-2.1-0.5-3.1-0.9c-1-0.4-1.9-0.9-2.7-1.5c-0.8-0.6-1.4-1.4-1.9-2.3c-0.5-0.9-0.7-2-0.7-3.4
		c0-1.6,0.3-2.9,1-4.1c0.6-1.1,1.5-2.1,2.6-2.8s2.3-1.3,3.6-1.6c1.3-0.4,2.7-0.5,4.1-0.5c2,0,4,0.4,6,1.1c1.9,0.7,3.5,1.8,4.6,3.2
		L176.6,50z"/>
	<path class="st0" d="M184.9,32.8c0-1.1,0.4-2.1,1.3-3c0.8-0.8,1.9-1.3,3.2-1.3c1.3,0,2.4,0.4,3.3,1.2c0.9,0.8,1.3,1.8,1.3,3
		s-0.4,2.2-1.3,3c-0.9,0.8-2,1.2-3.3,1.2c-1.3,0-2.4-0.4-3.2-1.3C185.3,35,184.9,34,184.9,32.8z M185.9,42.4h7.1v28.3h-7.1V42.4z"/>
	<path class="st0" d="M197,56.5c0-2.2,0.4-4.3,1.2-6.1c0.8-1.8,1.9-3.4,3.3-4.7c1.4-1.3,3-2.3,4.9-3s3.9-1.1,6-1.1s4.1,0.4,6,1.1
		c1.9,0.7,3.5,1.7,4.9,3c1.4,1.3,2.5,2.9,3.3,4.7c0.8,1.8,1.2,3.9,1.2,6.1c0,2.2-0.4,4.3-1.2,6.1c-0.8,1.8-1.9,3.4-3.3,4.7
		c-1.4,1.3-3,2.4-4.9,3.1c-1.9,0.7-3.9,1.1-6,1.1s-4.1-0.4-6-1.1s-3.5-1.8-4.9-3.1c-1.4-1.3-2.5-2.9-3.3-4.7
		C197.4,60.8,197,58.7,197,56.5z M204.2,56.5c0,1.1,0.2,2.2,0.5,3.3c0.3,1.1,0.8,2.1,1.5,2.9c0.7,0.9,1.5,1.6,2.5,2.1
		c1,0.6,2.2,0.8,3.7,0.8s2.6-0.3,3.7-0.8c1-0.5,1.9-1.3,2.5-2.1c0.7-0.9,1.2-1.8,1.5-2.9c0.3-1.1,0.5-2.2,0.5-3.3
		c0-1.1-0.2-2.2-0.5-3.3c-0.3-1.1-0.8-2.1-1.5-2.9c-0.7-0.9-1.5-1.6-2.5-2.1c-1-0.5-2.2-0.8-3.7-0.8s-2.6,0.3-3.7,0.8
		c-1,0.5-1.9,1.2-2.5,2.1c-0.7,0.9-1.2,1.8-1.5,2.9C204.3,54.3,204.2,55.4,204.2,56.5z"/>
	<path class="st0" d="M231.7,42.4h6.7V47h0.1c0.6-1.4,1.7-2.7,3.3-3.7c1.6-1.1,3.4-1.6,5.5-1.6c1.8,0,3.4,0.3,4.8,1
		c1.3,0.6,2.4,1.5,3.2,2.6c0.8,1.1,1.5,2.3,1.9,3.7c0.4,1.4,0.6,2.8,0.6,4.2v17.7h-7.1V55.1c0-0.8-0.1-1.7-0.2-2.6
		c-0.1-0.9-0.4-1.7-0.8-2.4c-0.4-0.7-0.9-1.3-1.6-1.8c-0.7-0.5-1.6-0.7-2.7-0.7c-1.1,0-2.1,0.2-3,0.7c-0.8,0.5-1.5,1-2,1.7
		c-0.5,0.7-0.9,1.5-1.2,2.4c-0.3,0.9-0.4,1.9-0.4,2.8v15.6h-7.1V42.4z"/>
</g>
<path class="st0" d="M61.5,7.4c-1.3-0.5-2.7,0.2-3.2,1.4c-0.5,1.3,0.2,2.7,1.4,3.2C71.1,16.5,79.3,25.5,83,36.3l-15.5,4.2
	c-1-2.6-2.4-5-4.3-7.1c-4.2-4.8-10-7.7-16.3-8.1c-6.3-0.4-12.2,1.7-16.7,5.4L19.1,19.7c5.2-4.7,11.6-8,18.5-9.4
	c-0.6-1.6-0.8-3.3-0.5-5C20.9,8.5,7.2,20.7,2.6,37.1c-1.5,5.5-2,11.2-1.4,16.8c0.1,1.3,1.2,2.2,2.5,2.2c0.1,0,0.2,0,0.3,0
	c1.4-0.2,2.4-1.4,2.2-2.8c-0.6-5-0.2-10,1.2-14.9c1.6-5.7,4.4-10.8,8.1-15.1l11.1,10.9c-2.9,3.6-4.8,8.2-5.1,13.1
	C20.8,57.7,26.9,67,36,70.8l-4.6,15.1c-6.7-2.5-12.4-6.8-16.8-12.3c-1.1,1.3-2.6,2.2-4.3,2.7c5.8,7.5,13.9,13,23.2,15.6
	c4,1.1,8,1.6,12,1.6c9.6,0,18.9-3.1,26.8-9.1c1.1-0.8,1.3-2.4,0.5-3.5c-0.8-1.1-2.4-1.3-3.5-0.5c-9.6,7.3-21.6,9.7-33.2,6.9
	l4.6-15.1c0.9,0.2,1.9,0.3,2.8,0.4c0.6,0,1.1,0.1,1.7,0.1c12.4,0,22.8-9.7,23.7-22.1c0.1-1.8,0-3.6-0.2-5.3l15.5-4.2
	c1.2,5.9,1,12.2-0.7,18.5c-0.3,1.2-0.7,2.4-1.2,3.6c0.9,0.2,1.7,0.5,2.5,0.9c0.7,0.4,1.4,0.9,2,1.5c0.6-1.5,1.1-3.1,1.6-4.6
	C94.6,38.7,83,15.7,61.5,7.4z M64.5,50.3c-0.7,10.5-9.9,18.7-20.6,17.9c-0.6,0-1.2-0.1-1.8-0.2c-1.7-0.3-3.3-0.8-4.8-1.5
	C30.2,63.3,25.4,55.9,26,47.6c0.3-3.8,1.7-7.4,3.9-10.3c1-1.3,2.2-2.5,3.5-3.6c3.3-2.6,7.4-4.1,11.9-4.1c0.4,0,0.9,0,1.3,0
	c5.1,0.4,9.8,2.7,13.2,6.6c1.4,1.6,2.5,3.4,3.3,5.3c0.6,1.5,1.1,3.2,1.3,4.8C64.5,47.7,64.6,49,64.5,50.3z"/>
<path class="st1" d="M59.9,36.2c-3.4-3.9-8.1-6.3-13.3-6.6c-0.5,0-0.9,0-1.4,0c-10.2,0-18.7,7.9-19.4,18.1c-0.7,10.7,7.4,20,18,20.7
	c10.7,0.8,20-7.5,20.7-18C65,45.1,63.3,40.1,59.9,36.2z M45.3,60.8c-2.9,0-5.3,0.3-5.3-1.4l2.3-13.2c-1.3-0.9-2.2-2.4-2.2-4.2
	c0-2.8,2.3-5.1,5.1-5.1c2.8,0,5.1,2.3,5.1,5.1c0,1.7-0.9,3.2-2.2,4.2l2.4,13c0,0,0,0.1,0,0.1C50.6,61.1,48.3,60.8,45.3,60.8z"/>
<g>
	<path class="st1" d="M45.4,0.7c-2.3,0-4.5,1.3-5.6,3.3c-1.7,3.1-0.6,7,2.5,8.7c1,0.5,2,0.8,3.1,0.8c2.3,0,4.5-1.3,5.6-3.3
		c1.7-3.1,0.6-7-2.5-8.7C47.6,0.9,46.5,0.7,45.4,0.7z"/>
</g>
<g>
	<path class="st1" d="M8.3,61.7c-2.3,0-4.5,1.3-5.6,3.3c-1.7,3.1-0.6,7,2.5,8.7c1,0.5,2,0.8,3.1,0.8c2.3,0,4.5-1.3,5.6-3.3
		c1.7-3.1,0.6-7-2.5-8.7C10.4,62,9.4,61.7,8.3,61.7z"/>
</g>
<g>
	<path class="st1" d="M80.8,65c-2.3,0-4.5,1.3-5.6,3.3c-1.7,3.1-0.6,7,2.5,8.7c1,0.5,2,0.8,3.1,0.8c2.3,0,4.5-1.3,5.6-3.3
		c1.7-3.1,0.6-7-2.5-8.7C82.9,65.3,81.9,65,80.8,65z"/>
</g>
<g>
	<path class="st1" d="M278.9,29h6.4l18,41.8h-8.5l-3.9-9.6h-18.1l-3.8,9.6h-8.3L278.9,29z M288.4,54.8l-6.4-17l-6.5,17H288.4z"/>
	<path class="st1" d="M330,70.8h-6.7v-4.5h-0.1c-0.6,1.4-1.7,2.7-3.3,3.7c-1.6,1.1-3.4,1.6-5.5,1.6c-1.8,0-3.4-0.3-4.8-1
		c-1.3-0.6-2.4-1.5-3.2-2.6c-0.8-1.1-1.5-2.3-1.9-3.7c-0.4-1.4-0.6-2.8-0.6-4.2V42.4h7.1v15.7c0,0.8,0.1,1.7,0.2,2.6
		c0.1,0.9,0.4,1.7,0.8,2.4c0.4,0.7,0.9,1.3,1.6,1.8c0.7,0.5,1.6,0.7,2.7,0.7c1.1,0,2.1-0.2,2.9-0.7c0.8-0.5,1.5-1,2.1-1.7
		c0.5-0.7,0.9-1.5,1.2-2.4c0.3-0.9,0.4-1.9,0.4-2.8V42.4h7.1V70.8z"/>
	<path class="st1" d="M333.6,48.1v-5.7h5v-8.2h7v8.2h7.1v5.7h-7.1v13.2c0,1.3,0.2,2.3,0.7,3.1c0.5,0.8,1.5,1.2,3,1.2
		c0.5,0,1,0,1.5-0.1c0.6-0.1,1-0.2,1.5-0.4l0.2,5.5c-0.6,0.2-1.4,0.4-2.2,0.6c-0.9,0.1-1.7,0.2-2.5,0.2c-1.9,0-3.4-0.3-4.6-0.8
		c-1.2-0.5-2.1-1.3-2.8-2.2c-0.7-0.9-1.2-2-1.4-3.2c-0.3-1.2-0.4-2.5-0.4-3.9V48.1H333.6z"/>
	<path class="st1" d="M372.9,41.6c1.8,0,3.4,0.3,4.7,1c1.3,0.6,2.4,1.5,3.2,2.6c0.8,1.1,1.5,2.3,1.9,3.7c0.4,1.4,0.6,2.8,0.6,4.2
		v17.7h-7.1V55.2c0-0.8-0.1-1.7-0.2-2.6s-0.4-1.7-0.7-2.4c-0.4-0.7-0.9-1.3-1.6-1.8c-0.7-0.5-1.6-0.7-2.7-0.7s-2.1,0.2-2.9,0.6
		c-0.8,0.4-1.5,1-2.1,1.7c-0.6,0.7-1,1.5-1.2,2.4c-0.3,0.9-0.4,1.8-0.4,2.8v15.5h-7.1V26.2h7.1v20.2h0.1c0.3-0.6,0.7-1.2,1.2-1.7
		c0.5-0.6,1.2-1.1,1.9-1.5c0.7-0.5,1.5-0.8,2.4-1.1C370.8,41.8,371.8,41.6,372.9,41.6z"/>
</g>
</svg>
