<?xml version="1.0" encoding="utf-8"?>
<!-- Generator: Adobe Illustrator 22.0.1, SVG Export Plug-In . SVG Version: 6.00 Build 0)  -->
<svg version="1.1" id="Layer_1" xmlns="http://www.w3.org/2000/svg" xmlns:xlink="http://www.w3.org/1999/xlink" x="0px" y="0px"
	 viewBox="0 0 396 105" style="enable-background:new 0 0 396 105;" xml:space="preserve">
<style type="text/css">
	.st0{fill:#FFFFFF;}
	.st1{fill:#EC8D53;}
</style>
<g>
	<path class="st0" d="M103.5,34h27v6.5H111V52h18.4v6.3H111v17.6h-7.4V34H103.5z"/>
	<path class="st0" d="M159.1,75.8h-6.7v-4.5h-0.1c-0.6,1.4-1.7,2.7-3.3,3.7c-1.6,1.1-3.4,1.6-5.5,1.6c-1.8,0-3.4-0.3-4.7-1
		c-1.3-0.6-2.4-1.5-3.2-2.6s-1.5-2.3-1.9-3.7c-0.4-1.4-0.6-2.8-0.6-4.2V47.4h7.1v15.7c0,0.8,0.1,1.7,0.2,2.6
		c0.1,0.9,0.4,1.7,0.8,2.4c0.4,0.7,0.9,1.3,1.6,1.8c0.7,0.5,1.6,0.7,2.7,0.7c1.1,0,2.1-0.2,2.9-0.7c0.8-0.5,1.5-1,2.1-1.7
		c0.5-0.7,0.9-1.5,1.2-2.4s0.4-1.9,0.4-2.8V47.4h7.1v28.4H159.1z"/>
	<path class="st0" d="M181.6,55.1c-0.6-0.8-1.5-1.5-2.6-2.2c-1.1-0.6-2.3-0.9-3.6-0.9c-1.1,0-2.2,0.2-3.1,0.7s-1.4,1.3-1.4,2.4
		s0.5,1.9,1.6,2.3c1,0.5,2.6,0.9,4.6,1.4c1.1,0.2,2.1,0.6,3.2,0.9c1.1,0.4,2.1,0.9,3,1.6c0.9,0.6,1.6,1.5,2.2,2.4
		c0.6,1,0.8,2.1,0.8,3.5c0,1.7-0.3,3.2-1,4.4c-0.6,1.2-1.5,2.2-2.6,2.9c-1.1,0.7-2.3,1.3-3.8,1.6c-1.4,0.3-2.9,0.5-4.5,0.5
		c-2.2,0-4.3-0.4-6.4-1.2c-2.1-0.8-3.8-2-5.2-3.5l4.7-4.4c0.8,1,1.8,1.9,3.1,2.5c1.3,0.7,2.7,1,4.2,1c0.5,0,1-0.1,1.6-0.2
		c0.5-0.1,1-0.3,1.5-0.6c0.5-0.3,0.8-0.6,1.1-1c0.3-0.4,0.4-1,0.4-1.6c0-1.2-0.5-2-1.6-2.5s-2.7-1-4.9-1.5c-1.1-0.2-2.1-0.5-3.1-0.9
		s-1.9-0.9-2.7-1.5c-0.8-0.6-1.4-1.4-1.9-2.3s-0.7-2-0.7-3.4c0-1.6,0.3-2.9,1-4.1c0.6-1.1,1.5-2.1,2.6-2.8s2.3-1.3,3.6-1.6
		c1.3-0.4,2.7-0.5,4.1-0.5c2,0,4,0.4,6,1.1c1.9,0.7,3.5,1.8,4.6,3.2L181.6,55.1z"/>
	<path class="st0" d="M189.9,37.9c0-1.1,0.4-2.1,1.3-3c0.8-0.8,1.9-1.3,3.2-1.3c1.3,0,2.4,0.4,3.3,1.2c0.9,0.8,1.3,1.8,1.3,3
		s-0.4,2.2-1.3,3s-2,1.2-3.3,1.2s-2.4-0.4-3.2-1.3C190.3,40,189.9,39,189.9,37.9z M190.9,47.5h7.1v28.3h-7.1V47.5z"/>
	<path class="st0" d="M202,61.5c0-2.2,0.4-4.3,1.2-6.1c0.8-1.8,1.9-3.4,3.3-4.7c1.4-1.3,3-2.3,4.9-3s3.9-1.1,6-1.1s4.1,0.4,6,1.1
		s3.5,1.7,4.9,3s2.5,2.9,3.3,4.7s1.2,3.9,1.2,6.1s-0.4,4.3-1.2,6.1s-1.9,3.4-3.3,4.7c-1.4,1.3-3,2.4-4.9,3.1s-3.9,1.1-6,1.1
		s-4.1-0.4-6-1.1s-3.5-1.8-4.9-3.1c-1.4-1.3-2.5-2.9-3.3-4.7C202.4,65.8,202,63.8,202,61.5z M209.2,61.5c0,1.1,0.2,2.2,0.5,3.3
		c0.3,1.1,0.8,2.1,1.5,2.9c0.7,0.9,1.5,1.6,2.5,2.1c1,0.6,2.2,0.8,3.7,0.8s2.6-0.3,3.7-0.8c1-0.5,1.9-1.3,2.5-2.1
		c0.7-0.9,1.2-1.8,1.5-2.9s0.5-2.2,0.5-3.3c0-1.1-0.2-2.2-0.5-3.3c-0.3-1.1-0.8-2.1-1.5-2.9c-0.7-0.9-1.5-1.6-2.5-2.1
		s-2.2-0.8-3.7-0.8s-2.6,0.3-3.7,0.8s-1.9,1.2-2.5,2.1c-0.7,0.9-1.2,1.8-1.5,2.9C209.4,59.4,209.2,60.4,209.2,61.5z"/>
	<path class="st0" d="M236.7,47.5h6.7V52h0.1c0.6-1.4,1.7-2.7,3.3-3.7c1.6-1.1,3.4-1.6,5.5-1.6c1.8,0,3.4,0.3,4.7,1
		c1.3,0.6,2.4,1.5,3.2,2.6c0.8,1.1,1.5,2.3,1.9,3.7c0.4,1.4,0.6,2.8,0.6,4.2v17.7h-7.1V60.2c0-0.8-0.1-1.7-0.2-2.6s-0.4-1.7-0.8-2.4
		c-0.4-0.7-0.9-1.3-1.6-1.8s-1.6-0.7-2.7-0.7s-2.1,0.2-3,0.7c-0.8,0.5-1.5,1-2,1.7s-0.9,1.5-1.2,2.4c-0.3,0.9-0.4,1.9-0.4,2.8v15.6
		h-7.1V47.5H236.7z"/>
</g>
<path class="st0" d="M66.5,12.5c-1.3-0.5-2.7,0.2-3.2,1.4c-0.5,1.3,0.2,2.7,1.4,3.2C76.1,21.5,84.4,30.5,88,41.2l-15.5,4.2
	c-1-2.6-2.4-5-4.3-7.1c-4.2-4.8-10-7.7-16.3-8.1s-12.2,1.7-16.7,5.4L24.1,24.7c5.2-4.7,11.6-8,18.5-9.4c-0.6-1.6-0.8-3.3-0.5-5
	c-16.2,3.2-30,15.3-34.5,31.8c-1.5,5.5-2,11.2-1.4,16.8c0.1,1.3,1.2,2.2,2.5,2.2c0.1,0,0.2,0,0.3,0c1.4-0.2,2.4-1.4,2.2-2.8
	c-0.6-5-0.2-10,1.2-14.9c1.6-5.7,4.4-10.8,8.1-15.1l11.1,10.9c-2.9,3.6-4.8,8.2-5.1,13.1C25.8,62.7,31.9,72,41,75.8l-4.6,15.1
	c-6.7-2.5-12.4-6.8-16.8-12.3c-1.1,1.3-2.6,2.2-4.3,2.7c5.8,7.5,13.9,13,23.2,15.6c4,1.1,8,1.6,12,1.6c9.6,0,18.9-3.1,26.8-9.1
	c1.1-0.8,1.3-2.4,0.5-3.5s-2.4-1.3-3.5-0.5c-9.6,7.3-21.6,9.7-33.2,6.9l4.6-15.1c0.9,0.2,1.9,0.3,2.8,0.4c0.6,0,1.1,0.1,1.7,0.1
	c12.4,0,22.8-9.7,23.7-22.1c0.1-1.8,0-3.6-0.2-5.3l15.5-4.2c1.2,5.9,1,12.2-0.7,18.5c-0.3,1.2-0.7,2.4-1.2,3.6
	c0.9,0.2,1.7,0.5,2.5,0.9c0.7,0.4,1.4,0.9,2,1.5c0.6-1.5,1.1-3.1,1.6-4.6C99.6,43.7,88.1,20.7,66.5,12.5z M69.5,55.3
	C68.8,65.8,59.6,74,48.9,73.2c-0.6,0-1.2-0.1-1.8-0.2c-1.7-0.3-3.3-0.8-4.8-1.5C35.2,68.3,30.4,60.9,31,52.6
	c0.3-3.8,1.7-7.4,3.9-10.3c1-1.3,2.2-2.5,3.5-3.6c3.3-2.6,7.4-4.1,11.9-4.1c0.4,0,0.9,0,1.3,0c5.1,0.4,9.8,2.7,13.2,6.6
	c1.4,1.6,2.5,3.4,3.3,5.3c0.6,1.5,1.1,3.2,1.3,4.8C69.6,52.7,69.6,54,69.5,55.3z"/>
<path class="st1" d="M64.8,41.3c-3.4-3.9-8.1-6.2-13.2-6.6c-0.5,0-0.9,0-1.3,0c-10.1,0-18.5,7.9-19.2,17.9
	C30.4,63.2,38.4,72.4,49,73.2c10.6,0.8,19.8-7.4,20.6-17.9C69.9,50.2,68.2,45.2,64.8,41.3z M50.4,65.8c-2.9,0-5.2,0.3-5.2-1.3
	l2.3-13.1c-1.3-0.9-2.1-2.4-2.1-4.1c0-2.8,2.3-5.1,5.1-5.1s5.1,2.3,5.1,5.1c0,1.7-0.8,3.2-2.1,4.1l2.4,12.9v0.1
	C55.6,66.1,53.3,65.8,50.4,65.8z"/>
<g>
	<path class="st1" d="M50.5,5.7C48.2,5.7,46,7,44.9,9c-1.7,3.1-0.6,7,2.5,8.7c1,0.5,2,0.8,3.1,0.8c2.3,0,4.5-1.3,5.6-3.3
		c1.7-3.1,0.6-7-2.5-8.7C52.6,6,51.5,5.7,50.5,5.7z"/>
</g>
<g>
	<path class="st1" d="M13.3,66.8c-2.3,0-4.5,1.3-5.6,3.3c-1.7,3.1-0.6,7,2.5,8.7c1,0.5,2,0.8,3.1,0.8c2.3,0,4.5-1.3,5.6-3.3
		c1.7-3.1,0.6-7-2.5-8.7C15.5,67,14.4,66.8,13.3,66.8z"/>
</g>
<g>
	<path class="st1" d="M85.8,70.1c-2.3,0-4.5,1.3-5.6,3.3c-1.7,3.1-0.6,7,2.5,8.7c1,0.5,2,0.8,3.1,0.8c2.3,0,4.5-1.3,5.6-3.3
		c1.7-3.1,0.6-7-2.5-8.7C88,70.3,86.9,70.1,85.8,70.1z"/>
</g>
<g>
	<path class="st1" d="M284,34h6.4l18,41.8h-8.5l-3.9-9.6h-18.1l-3.8,9.6h-8.3L284,34z M293.4,59.9l-6.4-17l-6.5,17H293.4z"/>
	<path class="st1" d="M335.1,75.8h-6.7v-4.5h-0.1c-0.6,1.4-1.7,2.7-3.3,3.7c-1.6,1.1-3.4,1.6-5.5,1.6c-1.8,0-3.4-0.3-4.7-1
		c-1.3-0.6-2.4-1.5-3.2-2.6c-0.8-1.1-1.5-2.3-1.9-3.7c-0.4-1.4-0.6-2.8-0.6-4.2V47.4h7.1v15.7c0,0.8,0.1,1.7,0.2,2.6
		s0.4,1.7,0.8,2.4c0.4,0.7,0.9,1.3,1.6,1.8s1.6,0.7,2.7,0.7s2.1-0.2,2.9-0.7s1.5-1,2.1-1.7s0.9-1.5,1.2-2.4c0.3-0.9,0.4-1.9,0.4-2.8
		V47.4h7.1v28.4H335.1z"/>
	<path class="st1" d="M338.6,53.2v-5.7h5v-8.2h7v8.2h7.1v5.7h-7.1v13.2c0,1.3,0.2,2.3,0.7,3.1c0.5,0.8,1.5,1.2,3,1.2
		c0.5,0,1,0,1.5-0.1c0.6-0.1,1-0.2,1.5-0.4l0.2,5.5c-0.6,0.2-1.4,0.4-2.2,0.6c-0.9,0.1-1.7,0.2-2.5,0.2c-1.9,0-3.4-0.3-4.6-0.8
		s-2.1-1.3-2.8-2.2c-0.7-0.9-1.2-2-1.4-3.2c-0.3-1.2-0.4-2.5-0.4-3.9V53.2L338.6,53.2L338.6,53.2z"/>
	<path class="st1" d="M377.9,46.7c1.8,0,3.4,0.3,4.8,1c1.3,0.6,2.4,1.5,3.2,2.6c0.8,1.1,1.5,2.3,1.9,3.7c0.4,1.4,0.6,2.8,0.6,4.2
		v17.7h-7.1V60.3c0-0.8-0.1-1.7-0.2-2.6s-0.4-1.7-0.7-2.4c-0.4-0.7-0.9-1.3-1.6-1.8s-1.6-0.7-2.7-0.7s-2.1,0.2-2.9,0.6
		s-1.5,1-2.1,1.7s-1,1.5-1.2,2.4c-0.3,0.9-0.4,1.8-0.4,2.8v15.5h-7.1V31.2h7.1v20.2h0.1c0.3-0.6,0.7-1.2,1.2-1.7
		c0.5-0.6,1.2-1.1,1.9-1.5c0.7-0.5,1.5-0.8,2.4-1.1C375.9,46.8,376.8,46.7,377.9,46.7z"/>
</g>
</svg>
