<?xml version="1.0" encoding="UTF-8" standalone="no"?>
<svg width="1610px" height="1610px" viewBox="0 0 1610 1610" version="1.1" xmlns="http://www.w3.org/2000/svg" xmlns:xlink="http://www.w3.org/1999/xlink" xmlns:sketch="http://www.bohemiancoding.com/sketch/ns">
    <!-- Generator: Sketch Beta 3.1.1 (8761) - http://www.bohemiancoding.com/sketch -->
    <title>slack-logo-icon</title>
    <desc>Created with Sketch Beta.</desc>
    <defs></defs>
    <g id="Page-1" stroke="none" stroke-width="1" fill="none" fill-rule="evenodd" sketch:type="MSPage">
        <g id="Group" sketch:type="MSLayerGroup">
            <path d="M338.114754,1017.45902 C338.114754,1110.57377 262.04918,1186.63934 168.934426,1186.63934 C75.8196721,1186.63934 -0.245901639,1110.57377 -0.245901639,1017.45902 C-0.245901639,924.344262 75.8196721,848.278689 168.934426,848.278689 L338.114754,848.278689 L338.114754,1017.45902 L338.114754,1017.45902 Z" id="Shape" fill="#000" sketch:type="MSShapeGroup"></path>
            <path d="M423.360656,1017.45902 C423.360656,924.344262 499.42623,848.278689 592.540984,848.278689 C685.655738,848.278689 761.721311,924.344262 761.721311,1017.45902 L761.721311,1441.06557 C761.721311,1534.18033 685.655738,1610.2459 592.540984,1610.2459 C499.42623,1610.2459 423.360656,1534.18033 423.360656,1441.06557 L423.360656,1017.45902 L423.360656,1017.45902 Z" id="Shape" fill="#000" sketch:type="MSShapeGroup"></path>
            <path d="M592.540984,338.114754 C499.42623,338.114754 423.360656,262.04918 423.360656,168.934426 C423.360656,75.8196721 499.42623,-0.245901639 592.540984,-0.245901639 C685.655738,-0.245901639 761.721311,75.8196721 761.721311,168.934426 L761.721311,338.114754 L592.540984,338.114754 L592.540984,338.114754 Z" id="Shape" fill="#000" sketch:type="MSShapeGroup"></path>
            <path d="M592.540984,423.360656 C685.655738,423.360656 761.721311,499.42623 761.721311,592.540984 C761.721311,685.655738 685.655738,761.721311 592.540984,761.721311 L168.934426,761.721311 C75.8196721,761.721311 -0.245901639,685.655738 -0.245901639,592.540984 C-0.245901639,499.42623 75.8196721,423.360656 168.934426,423.360656 L592.540984,423.360656 L592.540984,423.360656 Z" id="Shape" fill="#000" sketch:type="MSShapeGroup"></path>
            <path d="M1271.88525,592.540984 C1271.88525,499.42623 1347.95082,423.360656 1441.06557,423.360656 C1534.18033,423.360656 1610.2459,499.42623 1610.2459,592.540984 C1610.2459,685.655738 1534.18033,761.721311 1441.06557,761.721311 L1271.88525,761.721311 L1271.88525,592.540984 L1271.88525,592.540984 Z" id="Shape" fill="#000" sketch:type="MSShapeGroup"></path>
            <path d="M1186.63934,592.540984 C1186.63934,685.655738 1110.57377,761.721311 1017.45902,761.721311 C924.344262,761.721311 848.278689,685.655738 848.278689,592.540984 L848.278689,168.934426 C848.278689,75.8196721 924.344262,-0.245901639 1017.45902,-0.245901639 C1110.57377,-0.245901639 1186.63934,75.8196721 1186.63934,168.934426 L1186.63934,592.540984 L1186.63934,592.540984 Z" id="Shape" fill="#000" sketch:type="MSShapeGroup"></path>
            <path d="M1017.45902,1271.88525 C1110.57377,1271.88525 1186.63934,1347.95082 1186.63934,1441.06557 C1186.63934,1534.18033 1110.57377,1610.2459 1017.45902,1610.2459 C924.344262,1610.2459 848.278689,1534.18033 848.278689,1441.06557 L848.278689,1271.88525 L1017.45902,1271.88525 L1017.45902,1271.88525 Z" id="Shape" fill="#000" sketch:type="MSShapeGroup"></path>
            <path d="M1017.45902,1186.63934 C924.344262,1186.63934 848.278689,1110.57377 848.278689,1017.45902 C848.278689,924.344262 924.344262,848.278689 1017.45902,848.278689 L1441.06557,848.278689 C1534.18033,848.278689 1610.2459,924.344262 1610.2459,1017.45902 C1610.2459,1110.57377 1534.18033,1186.63934 1441.06557,1186.63934 L1017.45902,1186.63934 L1017.45902,1186.63934 Z" id="Shape" fill="#000" sketch:type="MSShapeGroup"></path>
        </g>
    </g>
</svg>
