<svg xmlns="http://www.w3.org/2000/svg" width="316" height="286"  fill="#3e4e50"><path d="M239 54.7V36c.1-19.4-15.6-35.2-35-35.3H35.1C16 .9.2 16.7 0 36v24.7h239v-6zm-35-36.1c4.6 0 9 1.8 12.2 5.1 3.3 3.3 5 7.6 5 12.3v6.8H17.9V36c.1-9.5 7.9-17.4 17.4-17.4H204z"/><circle cx="45.8" cy="30.8" r="5.3"/><circle cx="66.9" cy="30.8" r="5.3"/><path d="M88 36.1a5.27 5.27 0 0 0 5.3-5.3c-.1-3-2.4-5.3-5.3-5.3a5.27 5.27 0 0 0-5.3 5.3 5.27 5.27 0 0 0 5.3 5.3zm52.7 167.6v-8.8c-2.8 0-5.4 0-8-.1H35.1c-4.5 0-8.9-1.9-12.2-5.1-3.3-3.3-5-7.6-4.9-12.3V87h203.3v22.6l7.8-.1h10V69.3H0v108.3c0 9.3 3.6 18.2 10.2 24.8 6.7 6.7 15.6 10.4 25 10.4h105.5v-9.1zM34 170.1c0 4.9 3.6 8.9 8.1 8.9h98.1l1.6-3.2c.8-1.5 1.5-3 2.2-4.5l4.8-10.2H42.1c-4.5.1-8.1 4.1-8.1 9zM315 219c-.9-3.5-3.1-6.4-6.2-8.1l-6.1-3.5c.1-1.7.2-3.3.2-4.8s-.1-3.1-.2-4.8l6-3.5c6.3-3.6 8.6-11.7 4.9-18.1l-17.4-30.1c-1.6-3-4.6-5.3-8.1-6.3-3.4-.9-7.1-.4-10.2 1.4l-5.5 3.3c-2.7-1.9-5.3-3.5-8-4.8V133c0-7.3-6-13.3-13.3-13.3h-34.8c-7.3 0-13.3 6-13.3 13.3v6.6c-3 1.4-5.9 3.1-8.7 5l-6-3.4c-6.3-3.7-14.4-1.5-18.1 4.9l-17.5 30.3c-1.7 3-2.2 6.8-1.3 10 .9 3.4 3.1 6.2 6.2 8l6 3.5c-.1 1.7-.2 3.3-.2 4.8s.1 3.1.2 4.8l-6 3.5c-6.3 3.6-8.6 11.7-4.9 18.1l17.4 30.2c3.7 6.3 11.8 8.5 18 4.9l6.3-3.6c2.9 2 5.7 3.7 8.7 5.1v6.7c0 7.3 6 13.3 13.3 13.3h34.8c3.5 0 7-1.5 9.5-4s3.8-5.9 3.7-9.4v-6.6c2.8-1.3 5.4-3 8.1-4.9l5.6 3.3.2.1c3.1 1.6 6.8 2.1 9.9 1.2 3.4-.9 6.2-3.1 8.1-6.2l17.3-30.1c1.8-3.1 2.3-6.7 1.4-10.1zm-31.8 27.4l-12.3-7.2-3.2 2.6-1.7 1.4c-4.7 4-8.6 6.3-13.6 8.1l-5.8 2.1v14.3H221v-14.4l-6-2.1c-5.1-1.8-9.6-4.4-14.2-8.2l-4.8-3.9-12.7 7.2-12.8-22.2 12.3-7.1-.9-6.1c-.4-2.6-.6-5.3-.6-8.2 0-2.8.2-5.6.6-8.2l.9-6-12.4-7.2 12.9-22.3 12.6 7.2 4.8-3.9.1-.1c4.5-3.8 8.9-6.3 14.1-8.1l6-2.1v-14.4h25.6V152l5.9 2.1c5 1.8 8.9 4.2 13.6 8.1l4.9 4L283 159l12.9 22.4-12.4 7.2.9 6.1c.4 2.5.6 5.2.6 8.1s-.2 5.7-.6 8.2l-.9 6 12.4 7.1-12.7 22.3zM233 165c-20.929 0-38 17.071-38 38s17.071 38 38 38 38-17.071 38-38c-.096-20.929-17.071-38-38-38zm0 59c-11.569 0-21-9.355-21-20.951S221.431 182 233 182c11.472 0 20.903 9.452 21 21.049 0 11.596-9.431 20.951-21 20.951zm-131.3-95H42.5c-4.7 0-8.5 4-8.5 8.9s3.8 8.9 8.5 8.9h59.2c4.7 0 8.5-4 8.5-8.9s-3.8-8.9-8.5-8.9zm0-32.1H42.5c-4.7 0-8.5 4-8.5 8.9s3.8 8.9 8.5 8.9h59.2c4.7 0 8.5-4 8.5-8.9s-3.8-8.9-8.5-8.9zm35.8 0c-4.7 0-8.5 4-8.5 8.9s3.8 8.9 8.5 8.9h59.2c4.7 0 8.5-4 8.5-8.9s-3.8-8.9-8.5-8.9h-59.2z"/></svg>