<?xml version="1.0" encoding="utf-8"?>
<!-- Generator: Adobe Illustrator 24.3.0, SVG Export Plug-In . SVG Version: 6.00 Build 0)  -->
<svg version="1.1" id="Layer_1" xmlns="http://www.w3.org/2000/svg" xmlns:xlink="http://www.w3.org/1999/xlink" x="0px" y="0px"
	 viewBox="0 0 42.3 43.2" style="enable-background:new 0 0 42.3 43.2;" xml:space="preserve">
<style type="text/css">
	.st0{fill:#636466;}
</style>
<g>
	<path class="st0" d="M37.8,4.5c0-2.5-2-4.5-4.5-4.5H4.5c-2.5,0-4.5,2-4.5,4.5v2.7h37.7V4.5z M6.3,5.4C5.8,5.4,5.4,5,5.4,4.5
		s0.4-0.9,0.9-0.9c0.5,0,0.9,0.4,0.9,0.9S6.8,5.4,6.3,5.4z M9.9,5.4C9.4,5.4,9,5,9,4.5s0.4-0.9,0.9-0.9c0.5,0,0.9,0.4,0.9,0.9
		S10.4,5.4,9.9,5.4z M13.5,5.4c-0.5,0-0.9-0.4-0.9-0.9s0.4-0.9,0.9-0.9c0.5,0,0.9,0.4,0.9,0.9S14,5.4,13.5,5.4z"/>
	<path class="st0" d="M42.2,34.3c0-0.1,0-0.2,0-0.3c-0.1-0.2-0.2-0.4-0.4-0.5c0,0,0,0-0.1-0.1L40.9,33l-0.7-0.4
		c0-0.4,0.1-0.7,0.1-1.1c0,0,0,0,0,0c0,0,0,0,0,0c0-0.4,0-0.7-0.1-1.1l0,0v0l1.2-0.7l0.3-0.2c0.2-0.1,0.4-0.3,0.5-0.6
		c0.1-0.2,0-0.5-0.1-0.7l-2.5-4.3l-0.3-0.6c0-0.1-0.1-0.1-0.2-0.2c0,0,0-0.1-0.1-0.1c-0.1,0-0.1-0.1-0.2-0.1c-0.1,0-0.1-0.1-0.2-0.1
		c-0.2-0.1-0.5,0-0.7,0.1L37.8,23v0l-1.3,0.8L36,23.4c-0.3-0.2-0.7-0.4-1-0.6l-0.5-0.2v-1.8c0-0.5-0.4-1-1-1h-5.7c-0.5,0-1,0.4-1,1
		v1.8l-0.5,0.2c-0.4,0.2-0.7,0.4-1,0.6l-0.5,0.3l-1.5-0.9c-0.2-0.1-0.3-0.1-0.5-0.1l-0.6,0l-3.1,5.4C19,28.4,18.9,28.6,19,29
		l0.1,0.4l1.8,1.1l0,0.2h0c0,0.3-0.1,0.6-0.1,0.9c0,0.4,0,0.8,0.1,1.1l-1.5,0.9c-0.1,0-0.1,0.1-0.2,0.2c0,0-0.1,0.1-0.1,0.1
		c0,0.1-0.1,0.1-0.1,0.2c0,0.1-0.1,0.2-0.1,0.2c0,0.2,0,0.5,0.1,0.6l2.8,4.9l0,0.1c0.2,0.3,0.5,0.5,0.9,0.5h0c0.2,0,0.4-0.1,0.5-0.1
		l1-0.6l0.6-0.3c0.2,0.2,0.5,0.3,0.7,0.5c0.2,0.1,0.3,0.2,0.5,0.3c0.2,0.1,0.5,0.3,0.8,0.4v0v1.8c0,0.5,0.4,1,1,1h5.7
		c0.5,0,1-0.4,1-1v-1.8l0,0v0c0.3-0.1,0.5-0.2,0.7-0.4c0.2-0.1,0.3-0.2,0.5-0.3c0.2-0.1,0.5-0.3,0.7-0.4l1.5,0.9
		c0.1,0.1,0.2,0.1,0.4,0.1c0,0,0,0,0,0c0.1,0,0.2,0,0.3,0l0,0c0.2-0.1,0.5-0.3,0.6-0.5l2.8-4.9c0-0.1,0-0.1,0.1-0.2
		c0-0.1,0.1-0.1,0.1-0.2C42.2,34.4,42.2,34.4,42.2,34.3z M30.6,36.3c-2.6,0-4.8-2.2-4.8-4.8c0-2.6,2.2-4.8,4.8-4.8
		c2.6,0,4.8,2.2,4.8,4.8C35.4,34.1,33.3,36.3,30.6,36.3z"/>
	<path class="st0" d="M0.1,9v17.1c0,2.5,2,4.5,4.5,4.5h13.2l-0.1-0.1l-0.4-1c-0.2-0.8-0.1-1.6,0.2-2.2l0.3-0.5H4.6
		c-0.5,0-0.9-0.4-0.9-0.9c0-0.5,0.4-0.9,0.9-0.9h14.3l2.3-3.9l1.6-0.1c0,0,0,0,0,0c0.5,0,1,0.1,1.5,0.4l0.5,0.3
		c0.1,0,0.2-0.1,0.2-0.1v-0.7c0-1.5,1.2-2.8,2.8-2.8h5.7c1.5,0,2.8,1.2,2.8,2.8v0.7c0.1,0,0.1,0.1,0.2,0.1l1.2-0.7l0.1,0V9H0.1z
		 M14.4,20.7H4.6c-0.5,0-0.9-0.4-0.9-0.9c0-0.5,0.4-0.9,0.9-0.9h9.7c0.5,0,0.9,0.4,0.9,0.9C15.2,20.3,14.8,20.7,14.4,20.7z
		 M14.4,13.9H4.6c-0.5,0-0.9-0.4-0.9-0.9c0-0.5,0.4-0.9,0.9-0.9h9.7c0.5,0,0.9,0.4,0.9,0.9C15.2,13.5,14.8,13.9,14.4,13.9z
		 M33.2,13.9h-9.7c-0.5,0-0.9-0.4-0.9-0.9c0-0.5,0.4-0.9,0.9-0.9h9.7c0.5,0,0.9,0.4,0.9,0.9C34.1,13.5,33.7,13.9,33.2,13.9z"/>
</g>
</svg>
