<svg xmlns="http://www.w3.org/2000/svg" width="300" height="266"  fill="#3e4e50"><path d="M227.1 48.7H0V30C.2 14 13.3.9 29.2.7H198c16.1.1 29.1 13.2 29 29.3v18.7h.1zM197.9 6.6H29.3C16.5 6.7 6 17.2 5.9 30v12.8h215.301V30C221.3 17.1 210.9 6.6 198 6.6h-.1M39.8 23.3a5.27 5.27 0 0 0-5.3 5.3 5.27 5.27 0 0 0 5.3 5.3 5.27 5.27 0 0 0 5.3-5.3c0-3-2.3-5.3-5.3-5.3zm21.1 0a5.27 5.27 0 0 0-5.3 5.3 5.3 5.3 0 1 0 10.6 0 5.27 5.27 0 0 0-5.3-5.3zm21.1 0a5.27 5.27 0 0 0-5.3 5.3 5.3 5.3 0 1 0 10.6 0c-.1-3-2.4-5.3-5.3-5.3zm-82 36v102.3c0 7.8 3 15.1 8.4 20.6 5.5 5.5 12.8 8.6 20.8 8.6h123.4V185c-9 0-18 0-25.8-.1H29.1c-6.2 0-12.1-2.5-16.4-6.9-4.4-4.4-6.8-10.3-6.7-16.5V65.1h215.3v39.5h5.9V59.3H0zm199.4 35.4h-68.1c-1.6 0-2.9-1.3-2.9-2.9s1.3-2.9 2.9-2.9h68.1c1.6 0 2.9 1.3 2.9 2.9s-1.3 2.9-2.9 2.9zm-103.6 0H27.7c-1.6 0-2.9-1.3-2.9-2.9s1.3-2.9 2.9-2.9h68.1c1.6 0 2.9 1.3 2.9 2.9s-1.3 2.9-2.9 2.9zm0 32.2H27.7c-1.6 0-2.9-1.3-2.9-2.9s1.3-2.9 2.9-2.9h68.1c1.6 0 2.9 1.3 2.9 2.9 0 1.5-1.3 2.9-2.9 2.9zm51.1 26.3H27.7c-1.6 0-2.9 1.3-2.9 2.9s1.3 2.9 2.9 2.9h115.8l3.4-5.8zm94.7 112.1h-34.8c-4 0-7.3-3.3-7.3-7.3v-10.6c-5.1-2-9.7-4.7-14.3-8.3l-9.7 5.5c-3.5 2-7.9.7-9.9-2.7l-17.4-30.2c-2-3.5-.8-7.9 2.7-9.9l9.3-5.4c-.3-2.7-.5-5.4-.5-8.1 0-2.6.2-5.3.5-8.1l-9.3-5.4c-1.7-1-2.9-2.6-3.4-4.4s-.2-3.9.7-5.5l17.5-30.2c2-3.4 6.5-4.7 9.9-2.7l9.5 5.4c4.6-3.6 9.2-6.3 14.3-8.2v-10.6c0-4 3.3-7.3 7.3-7.3h34.8c4 0 7.3 3.3 7.3 7.3v10.6c4.8 1.9 9.1 4.5 13.6 8.1l9-5.3c1.7-1 3.7-1.3 5.6-.8 1.8.5 3.5 1.7 4.4 3.4l17.4 30.2c2 3.5.8 7.9-2.7 9.9l-9.3 5.4c.3 2.7.5 5.4.5 8.1s-.2 5.4-.5 8.1l9.4 5.4c3.5 2 4.7 6.5 2.7 9.9l-17.3 30.2c-1 1.7-2.5 2.9-4.4 3.4-1.8.5-3.9.2-5.6-.7l-9.1-5.3c-4.6 3.7-8.9 6.3-13.7 8.2V258c.1 4-3.2 7.3-7.2 7.3zm-55.8-33.2l1.6 1.3c5.2 4.3 10.3 7.2 16 9.2l2 .7V258c0 .8.6 1.4 1.4 1.4h34.8c.8 0 1.4-.6 1.4-1.4v-14.7l1.9-.7c5.5-2 10.1-4.7 15.4-9.2l1.6-1.3 12.7 7.4a1.39 1.39 0 0 0 1.1.2 1.27 1.27 0 0 0 .9-.7l17.3-30.2c.4-.7.2-1.6-.5-1.9l-12.8-7.4.3-2c.5-3 .7-6.1.7-9.1s-.2-6.1-.7-9.1l-.3-2 12.8-7.4c.7-.4.9-1.3.5-2l-17.4-30.2c-.2-.3-.5-.6-.9-.7s-.8-.1-1.1.1l-12.5 7.4-1.6-1.3c-5.3-4.5-9.9-7.2-15.4-9.2l-2-.7v-14.7c0-.8-.6-1.4-1.4-1.4h-34.8c-.8 0-1.4.6-1.4 1.4v14.7l-2 .7c-5.8 2-10.9 4.9-16 9.2l-1.6 1.3-13-7.4c-.7-.4-1.6-.2-1.9.5l-17.5 30.2c-.2.3-.2.7-.1 1.1a1.27 1.27 0 0 0 .7.9l12.7 7.4-.3 2c-.5 3.1-.7 6.2-.7 9.1 0 3 .2 6.1.7 9.2l.3 2-12.8 7.4c-.7.4-.9 1.3-.5 1.9l17.4 30.2c.4.7 1.3.9 1.9.5l13.1-7.4zm37.8-10.4c-18.4 0-33.4-15-33.4-33.4s15-33.4 33.4-33.4 33.4 15 33.4 33.4-15 33.4-33.4 33.4zm0-60.9c-15.2 0-27.6 12.4-27.6 27.6s12.4 27.5 27.6 27.5 27.6-12.4 27.6-27.5c-.1-15.3-12.4-27.6-27.6-27.6zM193.1 121h-61.9c-1.6 0-2.9 1.3-2.9 2.9s1.3 2.9 2.9 2.9H193l.1-5.8z"/></svg>