<svg xmlns="http://www.w3.org/2000/svg" viewBox="0 0 42.3 43.2" fill="#636466"><path d="M37.8 4.5A4.48 4.48 0 0 0 33.3 0H4.5A4.48 4.48 0 0 0 0 4.5v2.7h37.7V4.5zm-31.5.9c-.5 0-.9-.4-.9-.9s.4-.9.9-.9.9.4.9.9-.4.9-.9.9zm3.6 0c-.5 0-.9-.4-.9-.9s.4-.9.9-.9.9.4.9.9-.4.9-.9.9zm3.6 0c-.5 0-.9-.4-.9-.9s.4-.9.9-.9.9.4.9.9-.4.9-.9.9zm28.7 28.9V34c-.1-.2-.2-.4-.4-.5l-.1-.1-.8-.4-.7-.4c0-.4.1-.7.1-1.1s0-.7-.1-1.1h0l1.2-.7.3-.2c.2-.1.4-.3.5-.6.1-.2 0-.5-.1-.7l-2.5-4.3-.3-.6c0-.1-.1-.1-.2-.2 0 0 0-.1-.1-.1s-.1-.1-.2-.1-.1-.1-.2-.1c-.2-.1-.5 0-.7.1l-.1.1-1.3.8-.5-.4-1-.6-.5-.2v-1.8c0-.5-.4-1-1-1h-5.7c-.5 0-1 .4-1 1v1.8l-.5.2c-.4.2-.7.4-1 .6l-.5.3-1.5-.9c-.2-.1-.3-.1-.5-.1h-.6l-3.1 5.4c-.1.3-.2.5-.1.9l.1.4 1.8 1.1v.2c0 .3-.1.6-.1.9 0 .4 0 .8.1 1.1l-1.5.9c-.1 0-.1.1-.2.2l-.1.1c0 .1-.1.1-.1.2s-.1.2-.1.2c0 .2 0 .5.1.6l2.8 4.9v.1c.2.3.5.5.9.5h0c.2 0 .4-.1.5-.1l1-.6.6-.3c.2.2.5.3.7.5.2.1.3.2.5.3s.5.3.8.4h0v1.8c0 .5.4 1 1 1h5.7c.5 0 1-.4 1-1v-1.8c.3-.1.5-.2.7-.4.2-.1.3-.2.5-.3s.5-.3.7-.4l1.5.9c.1.1.2.1.4.1h.3c.2-.1.5-.3.6-.5l2.8-4.9c0-.1 0-.1.1-.2 0-.1.1-.1.1-.2v-.4zm-11.6 2c-2.6 0-4.8-2.2-4.8-4.8s2.2-4.8 4.8-4.8 4.8 2.2 4.8 4.8-2.1 4.8-4.8 4.8zM.1 9v17.1a4.48 4.48 0 0 0 4.5 4.5h13.2l-.1-.1-.4-1c-.2-.8-.1-1.6.2-2.2l.3-.5H4.6c-.5 0-.9-.4-.9-.9s.4-.9.9-.9h14.3l2.3-3.9 1.6-.1c.5 0 1 .1 1.5.4l.5.3c.1 0 .2-.1.2-.1v-.7c0-1.5 1.2-2.8 2.8-2.8h5.7c1.5 0 2.8 1.2 2.8 2.8v.7c.1 0 .1.1.2.1l1.2-.7h.1V9H.1zm14.3 11.7H4.6c-.5 0-.9-.4-.9-.9s.4-.9.9-.9h9.7c.5 0 .9.4.9.9s-.4.9-.8.9zm0-6.8H4.6c-.5 0-.9-.4-.9-.9s.4-.9.9-.9h9.7c.5 0 .9.4.9.9s-.4.9-.8.9zm18.8 0h-9.7c-.5 0-.9-.4-.9-.9s.4-.9.9-.9h9.7c.5 0 .9.4.9.9s-.4.9-.9.9z"/></svg>