<?xml version="1.0" encoding="utf-8"?>
<!-- Generator: Adobe Illustrator 24.0.1, SVG Export Plug-In . SVG Version: 6.00 Build 0)  -->
<svg version="1.1" id="Layer_1" xmlns="http://www.w3.org/2000/svg" xmlns:xlink="http://www.w3.org/1999/xlink" x="0px" y="0px"
	 viewBox="0 0 320 320" style="enable-background:new 0 0 320 320;" xml:space="preserve">
<style type="text/css">
	.st0{fill:#3E4E50;}
	.st1{fill:none;stroke:#3E4E50;stroke-width:16.5;stroke-linecap:round;stroke-miterlimit:10;}
</style>
<path class="st0" d="M248.2,262.9h1h0.9c1.5-0.2,18-2.7,34.7-13.2c15.9-10,34.8-29.3,34.8-64.4c0-20.4-7.8-39.7-22.1-54.3
	c-13.1-13.4-30.3-21.5-48.8-23.1c-8.6-14.6-20.8-26.9-35.5-35.8c-16.1-9.8-34.4-14.9-53-14.9c-48.8,0-90.8,34.7-100.6,81.8
	c-32.8,1.6-58.9,28.7-58.9,61.9c0,28,13.8,42.9,25.4,50.4c13,8.5,27.6,10.8,35.1,11.4h10.3c0.7,0,1.3,0,2,0c-0.1-4-0.1-9.9,0-16.5
	l-2,0h-9.3v0c-13.8-1.2-45.1-8-45.1-45.3c0-25.1,20.4-45.5,45.4-45.5c1.1,0,2.2,0,3.3,0.1l7.8,0.6l1-7.7
	c5.7-42.6,42.5-74.7,85.5-74.7c31.5,0,61.5,18,76.3,46l2.3,4.3l4.8,0.1c16,0.4,31,6.9,42.2,18.4c11.2,11.5,17.4,26.6,17.4,42.7
	c0,21.9-9,38.8-26.6,50.1c-13.3,8.5-26.9,10.9-28.4,11.1"/>
<g>
	<line class="st1" x1="160.2" y1="148.2" x2="160.2" y2="254.2"/>
	<line class="st1" x1="160.2" y1="148.2" x2="204.6" y2="192.6"/>
	<line class="st1" x1="160" y1="148.2" x2="115.7" y2="192.5"/>
</g>
<line class="st1" x1="66" y1="254.5" x2="78.7" y2="254.5"/>
<line class="st1" x1="241.5" y1="254.6" x2="249.2" y2="254.6"/>
</svg>
