<svg xmlns="http://www.w3.org/2000/svg" viewBox="0 0 42.6 42.2"><path d="M32.8 22.5a9.86 9.86 0 0 0-9.9 9.9c0 5.4 4.4 9.9 9.9 9.9a9.86 9.86 0 0 0 9.9-9.9 9.86 9.86 0 0 0-9.9-9.9zm4.9 7.3L31.1 36c-.1.1-.3.2-.5.2s-.4-.1-.6-.2l-2.2-2.2c-.3-.3-.3-.9 0-1.2s.9-.3 1.2 0l1.6 1.6 6-5.6c.3-.3.9-.3 1.2 0 .2.5.2 1-.1 1.2zm-11.1-7.5c-1.1-.5-2.4-.9-3.7-1.4l-3.1-1.1v-3.1c.8-.5 2.3-1.9 2.5-4.8.6-.4 1-1.2 1-2.3 0-.9-.3-1.7-.7-2.1.4-1 1.1-2.7.6-4.6-.5-2.2-3.6-3-6.1-3h0c-2.2 0-4.9.6-5.8 2.3-.8 0-1.6.2-2 .6-1.4 1.5-.7 3.7-.4 5-.1.1-.3.3-.5.6-.2.4-.4.9-.4 1.5 0 1 .4 1.8 1 2.2.2 2.9 1.6 4.3 2.5 4.8V20l-3.1 1.1c-3.8 1.3-6.9 2.3-7.6 4.2-.7 2.3-.8 6.6-.8 6.8s.1.5.3.5c.2.2.4.3.5.3h20.4c-.1-.5-.2-1.1-.2-1.6.2-3.8 2.3-7.2 5.6-9z" fill="#636466"/><path d="M28.2 32.9l1.9 1.9a.61.61 0 0 0 .8 0l6.5-5.9" fill="none" stroke="#fff" stroke-width="2" stroke-linecap="round" stroke-miterlimit="10"/></svg>