<svg xmlns="http://www.w3.org/2000/svg" width="286" height="304"  fill="#3e4e50"><path d="M161.4 246.6H.6v-46c0-1.3.3-2.7.9-4.1 6.2-14 44.4-32.2 76.3-45.3v-15c-3.2-2.8-5.9-6.4-8.1-10.8-2.4-4.9-4.1-10.5-5-16.8l-.2-1.2c-.2-1.9-.4-3.5-.5-5.1-.2-.2-.4-.3-.6-.5-2.9-2.8-5-6.1-6.5-10-.7-2-1.2-3.9-1.6-5.8-.4-2.4-.6-4.4-.6-6.4 0-2.2.3-4.5.8-6.8.1-.4.1-.7.2-1l.3-.8c.6-2.2 1.5-4.2 2.6-5.9.7-1.1 1.5-2.1 2.4-3-1.3-3.1-2.5-6.4-3.5-9.7-.5-1.8-.8-3.1-1.1-4.4l-.2-.9c-.2-1.2-.4-2.3-.5-3.5l-.1-1.2c-.1-1.2 0-2.3 0-3.3 0-.7.1-1 .1-1.4.1-1.1.4-2.1.6-3.2.1-.6.2-1 .3-1.3.5-1.4 1.1-2.8 1.9-4a23.48 23.48 0 0 1 1.9-2.5c1.2-1.2 2.1-1.9 3-2.5l.9-.6c1-.6 2.1-1.1 3.3-1.6l.8-.2c1.4-.4 2.8-.7 4.3-.9.7-.1 1.3-.1 2-.2.4-.6.9-1.2 1.3-1.8 1.1-1.4 2-2.5 3-3.5l.9-.8c1.4-1.3 2.6-2.4 4-3.4 2.4-1.7 4.8-3 7.6-4.4l1-.5c.9-.4 1.8-.9 2.8-1.2 6.5-2.4 13.7-4 21.2-4.6 5.2-.4 10.7-.3 15.8.1l2.4.3c2 .2 3.9.6 5.7.9 1.3.3 2.6.5 3.8.9 1.6.4 3.1.8 4.6 1.3a38.48 38.48 0 0 1 2.6.9 48.78 48.78 0 0 1 6.1 2.7l.7.4c9.6 5.3 15.9 12.7 18.1 21.5 1.1 4.3 1.4 8.8 1.1 13.7 0 .9-.1 1.3-.1 1.8-.2 2.1-.6 4.3-1.1 6.4l-.4 1.7c-.6 2.3-1.3 4.5-2.1 6.9l-.2.6c0 .1-.1.2-.1.3l-.5 1.4c.8.9 1.5 1.8 2.1 2.8 2.4 3.8 3.7 8.7 3.7 14.1 0 2.1-.2 4.1-.5 6-.4 2.5-1 4.4-1.6 6.2-1.5 4.1-3.7 7.5-6.3 10-.3.3-.6.5-.9.8-.1 1.6-.3 3.1-.5 4.5l-.2 1.8c-.9 6.3-2.6 12-5 16.7-2.2 4.4-4.9 8.1-8.1 10.9v15c15.7 6.5 36.7 15.8 52.8 25.1l8.5 5-9.6 2.2c-27 6.1-47.3 33.8-46.7 53.5.1 2.3.1 3.9.3 5.4l.5 4.3zM63.8 45.7c.2 1.1.7 3 1 4.1 1.2 4.3 2.8 8.2 4.4 11.9l1.2 2.8-2.5 1.8c-1.1.8-2 1.8-2.8 3a13.93 13.93 0 0 0-1.7 3.9l-.4 1.3c-.4 1.7-.6 3.3-.6 5 0 1.6.2 3.1.4 4.7.3 1.9.7 3.4 1.2 4.8 1.1 2.9 2.6 5.3 4.3 7 .6.5 1 .9 1.4 1.2l1.6 1.1.1 2c.1 2 .3 3.9.5 5.7l.2 1.7c.8 5.5 2.2 10.4 4.2 14.4 2.5 5.1 5.4 7.9 7.4 9.5l1.5 1.2v23.9l-2.4 1c-42.7 17.4-70.5 33.1-74.4 42-.3.6-.4 1-.4 1.3v38.2h145v-.9c-.7-21.5 17.4-48.9 43.7-59.3-16.3-8.7-35.5-16.8-46.4-21.3l-2.4-1V133l1.5-1.4c2-1.5 4.9-4.4 7.4-9.4 2-4.1 3.5-8.9 4.3-14.5l.2-1.6c.2-1.8.4-3.7.5-5.7l.1-1.9 1.6-1.1c.4-.3.8-.6 1.2-1 1.9-1.9 3.4-4.3 4.5-7.1a18.35 18.35 0 0 0 1.2-4.6c.3-1.9.5-3.5.5-5.1 0-3.9-.9-7.4-2.5-10-.7-1.2-1.6-2.1-2.6-2.9l-2.3-1.8 1.2-2.7c.5-1.1 1-2.5 1.5-3.9l.5-1.3c.7-2 1.2-3.6 1.6-5.3l.2-1c.5-2.4.9-4.3 1.1-6.1v-.8c.3-4.9 0-8.6-.9-12.1-1.7-6.7-6.6-12.4-14.2-16.6-2.3-1.2-4-1.9-5.8-2.6-.6-.2-1.3-.4-1.9-.7-1.6-.5-3-.9-4.4-1.3-1.1-.3-2.3-.5-3.4-.8-1.7-.3-3.4-.6-5.2-.8l-2.2-.2c-4.6-.7-9.6-.8-14.4-.4-6.7.5-13.2 1.9-18.8 4-1 .4-1.7.7-2.4 1.1l-1 .5a40.04 40.04 0 0 0-6 3.4c-1.4 1-2.4 1.9-3.3 2.7l-.9.9-2.1 2.4c-1 1.2-1.6 2.1-2.2 3.1l-1.1 2.1-2.4-.1c-1.1 0-2.2 0-3.2.1s-1.9.3-2.7.5c-1.4.4-2 .8-2.6 1.1-1.1.7-1.6 1.1-2 1.5-.6.7-1 1.1-1.3 1.5-.5.8-.9 1.6-1.2 2.5l-.2.8c-.2.7-.3 1.3-.4 2.1l-.1 1c0 .8-.1 1.6 0 2.4l.1.9c.1 1 .2 1.9.4 2.9m163.5 258c-32 0-58.1-26.1-58.1-58.1s26.1-58.1 58.1-58.1 58.1 26.1 58.1 58.1-26 58.1-58.1 58.1zm0-108.4c-27.7 0-50.3 22.6-50.3 50.3 0 27.8 22.6 50.3 50.3 50.3 27.8 0 50.3-22.6 50.3-50.3.1-27.8-22.5-50.3-50.3-50.3z"/><path d="M215.7 269.4c-1.5 0-2.9-.5-4.1-1.6L196.8 254c-1.6-1.5-1.6-3.9-.2-5.5 1.5-1.6 3.9-1.6 5.5-.2l13.5 12.7 36-33.8c1.6-1.5 4-1.4 5.5.2s1.4 4-.2 5.5l-37.3 34.9c-1 1-2.5 1.6-3.9 1.6z"/></svg>