<svg xmlns="http://www.w3.org/2000/svg" width="262" height="296"  fill="#3e4e50"><path d="M208.6 63L148.7 3.1c-1.9-1.9-4.1-2.9-6.7-2.9H10.5C8 0 5.7.8 3.8 2.5S.8 6.4.7 8.8v252.3c-.2 2.5.6 4.8 2.3 6.7 1.6 1.9 3.9 3 6.4 3.1h95.1l3.2-7.2H9.8c-.5 0-1-.3-1.4-.7s-.5-.9-.5-1.7V9.3c0-.5.3-1 .7-1.4.4-.3.8-.5 1.5-.5H142c.7 0 1 .1 1.7.7L203.6 68c.6.6.7 1 .7 1.7v76l5.8-5.7c-.5.5.2-.2 1.4-1.4V69.7c-.1-2.6-1-4.8-2.9-6.7zm-20.9 16.5c1.1-2.6.5-5.5-1.5-7.5l-48.6-48.6c-2-2-4.9-2.6-7.5-1.5s-4.2 3.6-4.2 6.4v48.6c0 3.8 3.1 6.9 6.9 6.9h48.6c2.7-.1 5.2-1.7 6.3-4.3zM133 76.9l-.2-48.1 48.5 47.8-48.3.3zm-32.3 145.8H41.4c-2 0-3.6-1.6-3.6-3.6s1.6-3.6 3.6-3.6h59.3c2 0 3.6 1.6 3.6 3.6s-1.6 3.6-3.6 3.6zm0-37.8H41.4c-2 0-3.6-1.6-3.6-3.6s1.6-3.6 3.6-3.6h59.3c2 0 3.6 1.6 3.6 3.6s-1.6 3.6-3.6 3.6zm0-37.7H41.4c-2 0-3.6-1.6-3.6-3.6s1.6-3.6 3.6-3.6h59.3c2 0 3.6 1.6 3.6 3.6s-1.6 3.6-3.6 3.6zm52.7-37.7h-112c-2 0-3.6-1.6-3.6-3.6s1.6-3.6 3.6-3.6h112c2 0 3.6 1.6 3.6 3.6s-1.6 3.6-3.6 3.6zm-37.1 186.3c-2.2 0-4.6-1-6.1-2.5-2.3-2.3-2.8-5.6-1.6-9.4l.1-.3 21.4-50.8 40.5 40.6-50.3 21.2c-1.6 1.2-3.2 1.2-4 1.2zm-1-9.6c-.3 1-.3 1.8-.1 1.9.1.1.6.4 1 .4l.8-.4 41-17.3-25.5-25.5-17.2 40.9zm57.6-14.8l-40.2-40.2 67.5-67.5 40.2 40.2-67.5 67.5zm-30-40.2l30.1 30.1 57.4-57.4-30.1-30.1-57.4 57.4zm98.9-28.7l-40.2-40.2 17.6-17.6c3.1-3 9.2-3 12.2 0l.1.1 27.3 28.7c1.7 1.7 2.6 3.8 2.6 6.1s-1 4.4-2.7 6.1l-16.9 16.8zm-30.1-40.2l30.1 30.1 11.8-11.8c.2-.2.6-.6.6-1.1s-.4-.8-.6-1l-27.3-28.7c-.4-.3-1.8-.3-2.1 0l-12.5 12.5z"/></svg>