<svg xmlns="http://www.w3.org/2000/svg" xmlns:xlink="http://www.w3.org/1999/xlink" width="242" height="282"><g fill="#3e4e50"><path d="M182.3 98.5c4.7-.2 8.9-3 10.8-7.3l.3-.6.2-.5c1.4-4.3.3-9.1-3-12.4L142 29.2c-3.5-3.5-8.5-4.5-13-2.7l-.8.3c-4.2 2-6.9 6.3-6.9 11v48.6c0 6.7 5.5 12.1 12.1 12.1h48.9zm-43.4-19.4l-.1-30.2 30.5 30-30.4.2z"/><use xlink:href="#B"/><use xlink:href="#B" y="75.5"/><use xlink:href="#B" y="37.7"/><path d="M166.9 123.4c0-4.9-4-8.9-8.8-8.9h-112c-4.9 0-8.9 4-8.9 8.9s4 8.9 8.9 8.9h112c4.9-.1 8.8-4.1 8.8-8.9zm33.8 61.6c-.8-.8-.8-.8-1.5 0l-61.8 61.8c-.8.8-.8.8.3 1.1.7.2 1.2.4 1.8.7 4.3 1.8 8 4.4 11.1 7.8 3 3.2 5.2 7 6.6 11.2.1.2.2.5.5.6.2-.2.4-.4.3-.4l62-62c.9-.8.9-.8 0-1.6L200.7 185zm-61.5 70.3c-1.7-.9-3.5-1.7-5.5-1.9-.4-.1-.6.1-.9.6l-1.6 4.7-4.2 12.2-3.4 10c0 .2-.2.5 0 .7s.5 0 .8-.1c3.4-1.1 6.8-2.4 10.3-3.5l15.3-5.2c2.2-.8 2.2-.8 1.5-3-2-6.7-6.1-11.4-12.3-14.5zM240 177l-6.9-6.9-5.4-5.3c-1.4-1.4-3-2-5.1-1.5-1.5.4-2.8 1.1-3.8 2.2l-12.1 12.1c-.5.6-.6.9 0 1.4l19.5 19.5c.5.6.8.5 1.2 0l12.3-12.3c1.3-1.3 2.1-2.9 2.2-4.7 0-2-.7-3.4-1.9-4.5zM17.8 18.1h127.7l58.2 58.2v87.3l17.7-17.7V75c-.2-4-1.6-7.4-4.4-10.2L157.1 4.9C154.2 2 150.7.5 146.7.5H15.4C11.5.3 8 1.5 5 4.1 2 6.8.3 10.3.2 14.1v252.3c-.2 3.8 1 7.4 3.6 10.3 2.5 3 6.2 4.7 10.2 4.9h98.6l2.5-7.3 3.6-10.4H17.8V18.1z"/></g><defs ><path id="B" d="M105.4 152.2H46.1c-4.9 0-8.9 4-8.9 8.8s4 8.9 8.9 8.9h59.3c4.9 0 8.8-4 8.8-8.9a8.75 8.75 0 0 0-8.8-8.8z"/></defs></svg>