<svg xmlns="http://www.w3.org/2000/svg" viewBox="0 0 43.3 47.9"><g fill="#636466"><path d="M22.8 36.4c-3.1-2-3-7.1-.1-8.8-.9-2.9.6-6.7 4.6-6.6 1.2 0 2.3-.4 3.4-.9-.1-2.5 1.4-4 3.3-4.5V11c0-.3-.1-.5-.3-.7l-10-10c-.2-.2-.4-.3-.7-.3H1a.94.94 0 0 0-1 1v42a.94.94 0 0 0 1 1h22.2c.2-2.1 1-6.7-.4-7.6zM23 1l10 10H23V1z"/><path d="M31 12.5c-5.4-.1-11.2.7-16.7 1.1-3.8.3-9.5 1.1-14.3.3v1.7c1.9.5 3.4 2 3.3 4.5 1.1.5 2.2.9 3.4.9 4-.1 5.5 3.7 4.6 6.6 2.9 1.7 3 6.8-.1 8.8-1.4.9-.6 5.4-.4 7.6H33a.94.94 0 0 0 1-1V12.9c-1-.1-2-.3-3-.4z"/></g><path d="M4.3 14.6H23M4.3 20.9h9.9m-9.9 6.3h9.9m-9.9 6.3h9.9" fill="#fff" stroke="#fff" stroke-width="2" stroke-linecap="round" stroke-miterlimit="10"/><path d="M37.4 19.1l3.5 3.5c-1.1 1.6-1.2 4-.2 5.7l-.6.7-6.9-6.9 2.9-2.9c.2-.2.4-.3.7-.3.2-.1.5 0 .6.2zm-5.6 4.4l6.9 6.9-12.4 12.4-6.9-6.9 12.4-12.4c0-.1 0-.1 0 0zm-7.1 20.4l-4.5 1.9c-.4 0-.7 0-1 .1-.8-.9-2-1.5-3.6-1.5h-.4l3-7 6.5 6.5z" fill="#636466"/><path d="M31.8 23.4L19.4 35.8l6.9 6.9 12.4-12.4-6.9-6.9zm9.1-.8l-3.5-3.5c-.2-.2-.4-.3-.7-.3s-.5.1-.7.3L33.1 22l6.9 6.9.7-.7c-.9-1.6-.9-3.9.2-5.6zM19.2 45.9c.3-.1.7-.1 1-.1l4.5-1.9-6.5-6.5-3 7h.4c1.6 0 2.8.6 3.6 1.5z" stroke="#fff" stroke-miterlimit="10" fill="none" stroke-width="4" stroke-linejoin="round"/><path d="M31.8 23.4L19.4 35.8l6.9 6.9 12.4-12.4-6.9-6.9zm5.6-4.3c-.2-.2-.4-.3-.7-.3s-.5.1-.7.3L33.1 22l6.9 6.9 2.9-2.9c.4-.4.4-1 0-1.4l-5.5-5.5zM14.3 46.5c-.2.4-.1.8.2 1.1.2.2.4.3.7.3.1 0 .3 0 .4-.1l9.1-3.9-6.5-6.5-3.9 9.1z" fill="#636466"/></svg>