<svg xmlns="http://www.w3.org/2000/svg" width="301" height="218"  fill="#3e4e50"><path d="M298.3 197.9l-54.3-94c-4.9-8.5-17.2-8.5-22.1 0l-54.3 94c-4.9 8.5 1.2 19.1 11 19.1h108.7c9.8 0 15.9-10.6 11-19.1zm-65.6-79.1c3.6 0 7.6.8 7.8 4.5 0 1.3-.1 3.2-.4 5.2l-4.7 50.3h-5.2c-1.2-15.9-3.6-39.3-4.7-50.1-.1-1.7-.4-4.1-.4-5.5 0-3.5 3.9-4.4 7.6-4.4zm.2 90.6c-4.8 0-8.2-3.5-8.2-8.6 0-4.8 3.3-8.6 8.2-8.6 4.8 0 8.4 3.7 8.4 8.6 0 5.2-3.6 8.6-8.4 8.6zm-.6-123.2H16.6C7.7 86.2.5 79 .5 70.1v-54C.5 7.3 7.7 0 16.6 0h215.7c8.9 0 16.1 7.2 16.1 16.1v54c0 8.9-7.2 16.1-16.1 16.1zm-212.8-19h209.9V19H19.5v48.2zm19.9 80.9l4.1 2.2 4-6.2 3.9 6.2 4.1-2.2-3.9-6.2h7.9v-4.4h-7.9l3.9-6.2-4.1-2.2-3.9 6.2-4-6.2-4.1 2.2 3.9 6.2h-7.8v4.4h7.8zm38.5 0l4.1 2.2 4-6.2 3.9 6.2 4.1-2.2-3.9-6.2H98v-4.4h-7.9l3.9-6.2-4.1-2.2-3.9 6.2-4-6.2-4.1 2.2 3.9 6.2H74v4.4h7.8zm38.5 0l4.1 2.2 3.9-6.2 4 6.2 4.1-2.2-3.9-6.2h7.8v-4.4h-7.8l3.9-6.2-4.1-2.2-4 6.2-3.9-6.2-4.1 2.2 3.9 6.2h-7.9v4.4h7.9zm38.4 0l4.2 2.2 3.9-6.2 3.9 6.2 4.2-2.2-3.9-6.2h7.8v-4.4h-7.8l3.9-6.2-4.2-2.2-3.9 6.2-3.9-6.2-4.2 2.2 4 6.2h-7.9v4.4h7.9zm57.6-51.5H16.6C7.7 96.6.5 103.8.5 112.7v54c0 8.9 7.2 16.1 16.1 16.1h146.7c.1-.1.1-.2.2-.4l10.3-17.7.6-.9H19.5v-48.2h181.9l9.5-16.3c-.2.4.5-1 1.5-2.7z"/></svg>