<svg xmlns="http://www.w3.org/2000/svg" xmlns:xlink="http://www.w3.org/1999/xlink" width="300" height="192"><g fill="#3e4e50"><path d="M107.7 158.6c0 5.6 4.6 10.2 10.1 10.2 5.6 0 10.2-4.6 10.2-10.2s-4.6-10.1-10.2-10.1a10.07 10.07 0 0 0-10.1 10.1zm14.8 0c0 2.6-2.1 4.7-4.7 4.7s-4.7-2.1-4.7-4.7 2.1-4.7 4.7-4.7 4.7 2.1 4.7 4.7zm35.6 27.9h-37.6V179h34.7l2.8-5.5H29c-8.3 0-15-7.1-15-15.8v-14.2h159.9c1-1.8 2-3.6 2.9-5.5H8.5v19.7c0 11.7 9.2 21.3 20.5 21.3h86.1v7.5H38.2a2.7 2.7 0 1 0 0 5.4h123.9c-1.5-2.1-2.9-4-4-5.4z"/><use xlink:href="#B"/><use xlink:href="#B" x="39.4"/><path d="M107.8 73.3l4.1 2.2 3.9-6.2 4 6.2 4.1-2.2-3.9-6.2h7.8v-4.4H120l3.9-6.2-4.1-2.2-4 6.2-3.9-6.2-4.1 2.2 3.9 6.2h-7.9v4.4h7.9z"/><use xlink:href="#C"/><use xlink:href="#C" x="39.4"/><path d="M8.5 86c-1.6-.9-2.8-2.6-2.8-4.6V48.3c0-2 1.1-3.7 2.8-4.6.8-.4 1.6-.8 2.6-.8h213.5c1 0 1.8.3 2.6.8 1.6.9 2.8 2.6 2.8 4.6v16.9h5.5V48.4c0-5.1-3.5-9.3-8.2-10.5a10.9 10.9 0 0 0-2.6-.3H11.1a10.9 10.9 0 0 0-2.6.3C3.8 39.1.3 43.3.3 48.4v33.1c0 5.1 3.5 9.3 8.2 10.5a10.9 10.9 0 0 0 2.6.3h194l2.4-4.4c.2-.4.4-.7.6-1.1h-197c-1 0-1.8-.3-2.6-.8zm177.4 38.4H14v-23.6H8.5v29.1h174.6l2.8-5.5zM14 21.3c0-8.7 6.7-15.8 15-15.8h177.7c8.3 0 15 7.1 15 15.8v7.9h5.5v-7.9C227.2 9.6 218 0 206.7 0H29C17.7 0 8.5 9.5 8.5 21.3v7.9H14v-7.9zm284 151.6l-54.3-94c-4.9-8.5-17.2-8.5-22.1 0l-54.3 94c-4.9 8.5 1.2 19.1 11 19.1H287c9.8 0 15.9-10.6 11-19.1zm-65.6-79.1c3.6 0 7.6.8 7.8 4.5 0 1.3-.1 3.2-.4 5.2l-4.7 50.3h-5.2c-1.2-15.9-3.6-39.3-4.7-50.1-.1-1.7-.4-4.1-.4-5.5 0-3.5 3.9-4.4 7.6-4.4zm.2 90.6c-4.8 0-8.2-3.5-8.2-8.6 0-4.8 3.3-8.6 8.2-8.6 4.8 0 8.4 3.7 8.4 8.6 0 5.2-3.6 8.6-8.4 8.6z"/></g><defs ><path id="B" d="M29 73.3l4.1 2.2 4-6.2 3.9 6.2 4.1-2.2-3.9-6.2h7.9v-4.4h-7.9l3.9-6.2-4.1-2.2-3.9 6.2-4-6.2-4.1 2.2 3.9 6.2h-7.8v4.4h7.8z"/><path id="C" d="M147.1 73.3l4.2 2.2 3.9-6.2 3.9 6.2 4.2-2.2-3.9-6.2h7.8v-4.4h-7.8l3.9-6.2-4.2-2.2-3.9 6.2-3.9-6.2-4.2 2.2 4 6.2h-7.9v4.4h7.9z"/></defs></svg>