<svg xmlns="http://www.w3.org/2000/svg" viewBox="0 0 41.2 31.7" fill="#636466"><path d="M32.1 13.5c-5.1 0-9.1 4.1-9.1 9.1 0 5.1 4.1 9.1 9.1 9.1s9.1-4.1 9.1-9.1-4.2-9.1-9.1-9.1zm4.3 13.9h-8.9c-1.1 0-1.8-1.2-1.3-2l4.5-8.5c.5-.9 1.9-.9 2.5 0l4.5 8.5c.4 1-.1 2-1.3 2zm-4.3-.9c-.4 0-.7-.2-.7-.7s.2-.7.7-.7c.4 0 .7.2.7.7-.2.3-.4.7-.7.7zm0-7.7c.2 0 .7.1.7.4v.4l-.4 4.1H32l-.4-4.1v-.5c-.1-.2.1-.3.5-.3zM28.3 13h-26v4.1h20.2c1.2-2.1 3.3-3.6 5.8-4.1zm4.2-1.5V5.7c0-.6-.6-1.2-1.2-1.2H1.2C.6 4.5 0 5.1 0 5.7v5.8c0 .6.6 1.2 1.2 1.2h30.1c.6 0 1.2-.6 1.2-1.2zM1.2 5.7h30.1v5.8H1.2V5.7zm29.1-3.1c0-1.4-1-2.5-2.3-2.6H4.5C3.3 0 2.2 1.1 2.2 2.6v1.6h28.1V2.6zM16.9 24.3v-1.2h4.3c0-.4-.1-.8-.1-1.2 0-1.3.3-2.5.8-3.7H2.2v2.3c0 1.4 1 2.5 2.3 2.6h11v1.2H8.1a.65.65 0 0 0-.6.6c0 .3.2.6.6.6h13.7c-.2-.4-.3-.9-.5-1.3h-4.4zM15.1 20c0-.6.6-1.2 1.2-1.2s1.2.6 1.2 1.2-.6 1.2-1.2 1.2-1.2-.5-1.2-1.2zM6.2 7.4a1.08 1.08 0 0 0-1 1 .94.94 0 0 0 1 1c.6 0 1-.5 1-1s-.4-1-1-1zm4.1 0a1.08 1.08 0 0 0-1 1 .94.94 0 0 0 1 1 1.08 1.08 0 0 0 1-1 1.08 1.08 0 0 0-1-1zm3.9 0a1.08 1.08 0 0 0-1 1 .94.94 0 0 0 1 1 1.08 1.08 0 0 0 1-1c0-.5-.4-1-1-1zm4.1 0a1.08 1.08 0 0 0-1 1 .94.94 0 0 0 1 1 1.08 1.08 0 0 0 1-1 1.08 1.08 0 0 0-1-1zm4 0a1.08 1.08 0 0 0-1 1 .94.94 0 0 0 1 1 1.08 1.08 0 0 0 1-1 1.08 1.08 0 0 0-1-1zm4 0a1.08 1.08 0 0 0-1 1 .94.94 0 0 0 1 1 1.08 1.08 0 0 0 1-1c0-.5-.4-1-1-1z"/></svg>