<svg xmlns="http://www.w3.org/2000/svg" viewBox="0 0 43.3 42.2"><g fill="#636466"><path d="M33 22.8c-5.1 0-9.3 4.2-9.3 9.3s4.2 9.3 9.3 9.3 9.3-4.2 9.3-9.3-4.2-9.3-9.3-9.3zm-4.9 10.1v.2-.2zm-1.5-10.6L22.8 21l-3.1-1.1v-3.1c.8-.5 2.3-1.9 2.5-4.8.6-.4 1-1.2 1-2.3 0-.9-.3-1.7-.8-2.1.4-1 1.1-2.8.6-4.6-.5-2.2-3.7-3-6.2-3h0C14.7 0 12 .6 11 2.3c-.8 0-1.5.2-2 .7-1.1 1.2-.5 3.4-.1 4.6-.2.2-.3.4-.5.6-.2.4-.3 1-.3 1.5 0 1 .4 1.9 1 2.2.2 2.9 1.7 4.3 2.5 4.8v3.1l-3.1 1.1c-3.9 1.3-6.9 2.3-7.6 4.2-.8 2.4-.9 6.8-.9 7s.1.4.2.6c.2.2.4.2.6.2h20.5c-.1-.5-.1-1.1-.1-1.6a10.2 10.2 0 0 1 5.4-9z"/><path d="M33.3 22.2c-5.6 0-10 4.4-10 10 0 5.5 4.4 10 10 10s10-4.4 10-10-4.4-10-10-10zm5 7.4l-6.7 6.2c-.1.1-.3.2-.6.2s-.4-.1-.6-.2l-2.2-2.2c-.3-.3-.3-.9 0-1.2s.9-.3 1.2 0l1.7 1.7 6.1-5.7c.3-.3.9-.3 1.2 0 .2.4.2 1-.1 1.2z"/></g><path d="M29.4 34.1l-3.5-2V32l3.5-1.9m7.8 4l3.5-2V32l-3.5-1.9m-2.8-1.9l-2.2 8" fill="none" stroke="#fff" stroke-width="2" stroke-linecap="round" stroke-miterlimit="10"/></svg>