<svg xmlns="http://www.w3.org/2000/svg" width="315" height="310"  fill="#3e4f51"><path d="M167.1 215.7c-.6-2.4-.3-4.8.9-6.9l16.1-27.8 5.1-.2h1.1c.4-.1.8-.1 1.4-.1h4.1l6.9 3.1 7.7-5.7-2.6-5.1 1.4-2 6.8-10.2-9.4-4.1c-5.1-2.3-11.6-3.7-18.4-5.2l-2-.4c-5.4-1.1-11-2.3-15.7-3.9l-15.7-5.3v-11.1c6.8-5.8 14.8-16.1 16.8-33.6 4.6-4.7 7.2-11.8 7.2-20.2 0-6.4-1.5-12-4.2-16.4 4.3-12.1 5.2-22.7 2.8-32.5C172.5 7.9 146.8.8 126.3.8 118.8.8 93.6 2 81.1 16.7c-6.4.6-11.7 3.1-15.6 7.5-9.2 10.1-7 25.2-4.1 36.2-.6.9-1.1 1.7-1.5 2.5-2.1 4.2-3.3 9.4-3.3 14.5 0 8.1 2.6 15.2 7.1 19.9 2.1 17.6 10.1 27.8 16.9 33.5v11c-4.7 1.7-9.9 3.4-15.7 5.3-29.2 9.6-52.3 17.3-58.1 34.6-6.3 18.8-6.5 50.7-6.5 51 0 3.9 1.5 7.6 4.1 10.2 2.7 2.7 6.4 4.3 10.2 4.3h151.6l.7-7.1 6.8-1.4.5-8.8-5.4-8.6-1.7-5.6zM92.6 29.4c4.6-8 20.1-11.6 33.4-11.6h1.5c7.8.2 15.9 1.6 22.1 4.2 6.2 2.7 9.9 6.3 10.9 10 2.6 10.4-1.7 21.4-3.8 26.7l-2.2 5.6 4.4 4c1.5 1.4 2.5 4.7 2.5 8.5 0 4.8-1.5 7.9-2.9 8.8l-3.7 2.3-.3 4.3c-1 16.5-8.8 24-13.3 27l-3.8 2.6v31.9l5.7 2c6.8 2.5 13.9 4.9 20.1 6.9l1.8.6c2.6.8 5.3 1.5 8 2.2l-20 34.5c-3.5 6-4.4 13.1-2.6 20.1l2.2 7.6.5.8c-.3.5-.6.9-.9 1.4l-134.9-.1c0-.5 0-1.1.1-1.7.4-9 1.5-29.1 5.3-41.2 2.9-8.5 21.5-15.2 42.2-22.1 1.4-.5 2.8-.9 4.2-1.4l.8-.3c6.4-2 14.4-4.6 21.9-7.4l5.7-2v-31.9l-3.8-2.6c-4.5-3.1-12.3-10.7-13.3-27l-.3-4.4-3.6-2.3c-1.4-.9-2.8-3.9-2.8-8.4 0-2.5.4-4.7 1.3-6.4.4-.6.8-1.3 1.2-1.6l4.5-3.5-1.6-5.5c-1.5-5.2-5.6-19.3-1-24.3 1.2-1.3 3.2-2 5.9-2h.8l5.2.3 2.6-4.6zM314 254c-1-3.7-3.6-7-6.9-8.9l-1.6-1 1.5-.9c1.4-.8 2.5-1.9 3.1-2.6l1.2-1.2c1.3-1.5 2.2-3.3 2.7-5.2 1-3.6.4-7.8-1.5-11.2l-13.6-23.6c-1.7-2.9-4.5-5.2-7.3-6.1l-1.3-.5-.4-.1c-3.6-1-7.9-.4-11.3 1.5l-1.5.9v-1.8a14.77 14.77 0 0 0-14.8-14.8h-27.1a14.85 14.85 0 0 0-10.4 4.3c-2.9 2.8-4.4 6.5-4.4 10.5v1.8l-1.8-1.1c-2.2-1.3-4.7-1.9-7.5-1.9l-8.5.2-17.7 30.6c-1.9 3.4-2.4 7.4-1.4 11.3l1.8 6 6.7 3.8-1.5.8c-4 2.2-6.7 6.3-7.3 11v.1c-.2 2.8.2 5.6 1.2 7.7l14.1 24.9c1.9 3.3 5.2 5.8 9 6.8 3.7 1.1 7.9.6 11.2-1.3l1.8-1v2a14.77 14.77 0 0 0 14.8 14.8h27.1c8.1 0 14.7-6.4 15.1-14.6v-2l1.4.8c1.7 1 3.4 1.6 5.8 1.9h.2c1.8.1 3.5 0 5.1-.4h.1c3.7-1 7.1-3.7 9-6.9l13.4-23.3c2-3.4 2.5-7.5 1.5-11.3zm-81.1 25.8c-.9-.4-1.7-.9-2.7-1.4l-1.1-.6c-.5-.3-.9-.6-1.4-.9-.5-.4-1.1-.7-1.6-1.1l-4.7-3-8.7 5.2-11.2-19.3 8.6-5-.2-9.5.2-9.7-8.7-5 11.2-19.4 8.8 5 7.2-4.3.1-.1c.5-.3 1.1-.6 1.7-1l7.6-4v-10.1h22.4v10.5l4.8 2.3 3.8 2.1c1 .5 1.9 1.2 2.8 1.8l4.5 3.2 9.1-5.3 11.2 19.3-9.2 5.3.6 5.5c.1 1.3.2 2.6.2 3.8 0 1.1-.1 2.2-.2 3.5l-.3 6 8.8 5.1-11.2 19.3-9.2-5.3-4.4 3.2c-1.1.8-2.2 1.5-2.9 1.9l-.7.4c-1 .6-2.1 1.1-3.2 1.7l-4.9 2.4v10.4h-22.1v-10.6l-5-2.3zM279 244c0-16.545-13.455-30-30-30s-30 13.455-30 30 13.455 30 30 30 30-13.455 30-30zm-30.5-14c7.984 0 14.5 6.516 14.5 14.5s-6.516 14.5-14.5 14.5-14.5-6.516-14.5-14.5 6.516-14.5 14.5-14.5z"/></svg>