<svg xmlns="http://www.w3.org/2000/svg" width="298" height="294"  fill="#3e4e50"><path d="M162.2 243.7H10.1c-2.6 0-5.1-1-6.9-2.9-1.8-1.8-2.9-4.4-2.8-6.9 0-3.4.5-33.3 6.4-50.9 5.2-15.5 27.9-22.9 56.8-32.4l.8-.2 18.9-6.4v-17.3c-6.5-4.9-15.8-15.1-17.5-34.4-4.6-3.8-7.2-10.4-7.2-18.1 0-4.6 1-9.1 2.8-12.6.7-1.4 1.6-2.6 2.6-3.7-2.6-9.3-6.4-25.4 2.4-34.9 3.7-4 8.7-6.1 15-6.2C90 4.9 109.6.5 125.6.5c19.3 0 43.5 6.3 48 24.2 3.3 13.2-.8 25.7-3.6 32.9 3.2 4 4.9 9.6 4.9 16.1 0 8-2.6 14.6-7.2 18.4-1.7 19.3-11 29.6-17.5 34.5V144l19.1 6.4c5.8 1.9 11.9 3.2 17.8 4.4 7.4 1.6 14.3 3 19.5 5.3l4.2 1.8-3.5 5.2c-1 1.4-2.8 4-3 5.3l-.7 4.7-4.5-1.7c-.9-.3-4.4-.2-5.9-.1-.9 0-1.7.1-2.4.1l-8.3.3-18 31c-1.9 3.3-2.4 7.1-1.4 11l2 6.6 5.3 7.3-2.8 2.3c-3.7 3-4.5 3.7-4.9 6.5l-.5 3.3zM81.8 24.5c-4.3 0-7.5 1.2-9.8 3.7-6.6 7.2-2.2 22.5-.1 29.8l.7 2.4-2 1.6c-1 .8-1.8 1.9-2.5 3.2-1.3 2.4-2 5.6-2 9.1 0 6 2 10.7 5.3 12.8l1.7 1 .1 2c1.2 19 10.5 27.9 15.9 31.5l1.7 1.1v26.7l-2.5.9c-7.1 2.6-14.5 5-21.7 7.4l-.8.2c-25.7 8.4-48 15.7-51.9 27.6-5.6 16.8-6 47.3-6 48.6 0 .5.2 1.1.6 1.5s.9.6 1.5.6h145.6c.9-2.5 2.3-4.2 4.1-5.8l-2.1-3.2-2.2-7.4c-1.5-5.8-.8-11.7 2.2-16.8l20.1-34.7 12.7-.4c.7 0 1.4 0 2.2-.1 1.9-.1 3.6-.1 5.1-.1l1.2-2.1c-3.9-1.2-8.7-2.2-13.6-3.2-6.1-1.3-12.4-2.6-18-4.5l-22.4-7.6-2.5-.9v-26.7l1.7-1.1C149.6 118 158.9 109 160 90l.1-1.9 1.6-1c3.3-2.1 5.3-7 5.3-13.2 0-5.4-1.6-10-4.3-12.4l-2-1.8 1-2.5c2.4-5.9 7.3-18.3 4.2-30.5-3.2-12.7-22.6-18.4-40.5-18.4-14.1 0-32.7 3.8-38.8 14.4l-1.2 2-2.4-.1c-.3-.1-.7-.1-1.2-.1zM249 293.4h-28c-5.7 0-10.3-4.6-10.3-10.2v-5.3c-.7-.4-1.4-.7-2-1.1l-.7-.4c-.7-.4-1.3-.8-1.9-1.2l-4.7 2.7c-2.3 1.3-5.1 1.6-7.8.9s-5-2.4-6.3-4.7l-14.5-25.3c-.6-1.2-.9-3.2-.7-5.1.5-3.3 2.3-6.1 5-7.6l4.5-2.6-.1-2.6.1-2.8-8.1-4.6-1.2-4.1c-.7-2.7-.4-5.5 1-7.8l16.9-29 5.9-.2c1.9 0 3.7.5 5.2 1.3l4.6 2.7 1.1-.6c.8-.5 1.7-1 2.5-1.4l1.1-.6v-5.3c0-2.7 1.1-5.3 3-7.2 2-1.9 4.5-3 7.2-3H249c5.7 0 10.3 4.6 10.3 10.2v5.3c.7.3 1.3.7 1.9 1.1l.8.5c.6.3 1.2.7 1.8 1.1l4.5-2.6c2.2-1.3 5.3-1.7 7.8-1l1.1.5c1.9.6 3.8 2.1 5.1 4.2l14.1 24.2c1.3 2.2 1.7 5.3 1 7.7-.2.8-.6 1.6-1 2.4v.2l-1.8 1.9c-.3.4-1 1.1-2.1 1.7l-4.5 2.6c.1.9.1 1.8.1 2.7s0 1.8-.1 2.7l4.6 2.6c2.2 1.3 4.1 3.7 4.8 6.2h0a10.15 10.15 0 0 1-1.1 7.8l-13.9 24c-1.3 2.2-3.8 4.1-6.2 4.8-1.1.3-2.3.4-3.7.2-2-.3-3.1-.7-4.1-1.3l-4.6-2.6c-.6.4-1.2.7-1.8 1.1l-.8.4c-.6.4-1.3.7-1.9 1v5.3c-.1 5.7-4.7 10.2-10.3 10.2zm-42.7-27l2.1 1.3c1.1.8 2.2 1.5 3.4 2.1 1.8 1 3 1.7 4.3 2.2l2.2 1v10.1a2.65 2.65 0 0 0 2.6 2.6H249a2.65 2.65 0 0 0 2.6-2.6v-10l2.2-1.2c1.2-.6 2.4-1.2 3.6-1.9l.7-.4c1.1-.7 2.3-1.4 3.3-2.1l2-1.4 8.7 5c.1.1.4.2.9.3.7.1 1 0 1.1 0 .5-.1 1.3-.7 1.6-1.2l13.9-24c.4-.6.5-1.3.3-2h0c-.1-.5-.7-1.3-1.2-1.6l-8.7-5 .1-2.5c.2-1.5.2-2.9.2-4.4 0-1.4-.1-2.9-.2-4.4l-.2-2.4 8.7-5c.1 0 .2-.2.6-.6l.5-.5c-.1 0 .1-.2.1-.5.1-.5 0-1.5-.3-1.9l-14-24.2c-.3-.6-1-.9-1.4-1l-.4-.1c-.6-.1-1.3.1-1.7.3l-8.7 5.1-2-1.4c-1.1-.8-2.2-1.5-3.4-2.1-1.8-1-3-1.7-4.2-2.2l-2.2-1v-10.1a2.65 2.65 0 0 0-2.6-2.6H221c-.7 0-1.3.3-1.8.8s-.8 1.1-.8 1.8v9.8l-5.2 2.7c-.7.4-1.5.8-2.2 1.2l-4.9 3-8.6-4.9c-.4-.2-.8-.3-1.3-.3l-1.5.1-14.7 25.3c-.3.6-.4 1.3-.2 1.9l.3 1.1 9.3 5.4-.2 7.1.2 6.9-8.4 4.8c-.8.5-1.1 1.3-1.2 1.9 0 .4 0 1 .2 1.4l.2.6 13.7 23.7c.3.5.9.9 1.6 1.1s1.4.1 1.9-.1l8.9-5zm28.6-6.6c-16 0-29.1-13-29.1-28.9s13-28.9 29.1-28.9 29.1 13 29.1 28.9-13.1 28.9-29.1 28.9zm0-50.2c-11.8 0-21.4 9.5-21.4 21.3s9.6 21.3 21.4 21.3 21.4-9.5 21.4-21.3-9.6-21.3-21.4-21.3z"/></svg>