<svg xmlns="http://www.w3.org/2000/svg" viewBox="0 0 42.8 42.8" fill-rule="evenodd" fill="#636466"><path d="M5.3 8v20.5a1.79 1.79 0 0 1-1.8 1.8 1.79 1.79 0 0 1-1.8-1.8V1.8h7.1v2.7c0 .5.4.9.9.9H32v1.8H6.2c-.5-.1-.9.3-.9.8m25.5 13.4c2.6 0 4.9 1 6.6 2.7V8c0-.5-.4-.9-.9-.9h-2.7V4.5c0-.5-.4-.9-.9-.9H10.7V.9c0-.5-.4-.9-.9-.9H.9C.4 0 0 .4 0 .9v27.6c0 2 1.6 3.6 3.6 3.6h17.9c-.1-.4-.1-.8-.1-1.2 0-5.3 4.2-9.5 9.4-9.5m0 15.3c-3.3 0-5.9-2.6-5.9-5.9s2.6-5.9 5.9-5.9 5.9 2.6 5.9 5.9-2.6 5.9-5.9 5.9m11.7 4.6l-5.7-5.7c1-1.3 1.7-3 1.7-4.8 0-4.2-3.4-7.7-7.7-7.7s-7.7 3.4-7.7 7.7 3.4 7.7 7.7 7.7c1.8 0 3.4-.6 4.8-1.7l5.7 5.7c.3.3.9.4 1.3 0 .3-.3.3-.9-.1-1.2"/></svg>