<svg xmlns="http://www.w3.org/2000/svg" width="300" height="250"  fill="#3e4e50"><path d="M227.5 189.6h-1.7l-.8-1.5c-1.1-2-2.2-3.4-3.5-4.4l-.8-.8-7.5-4.3 6.2-3.6c3.5-2 6.1-5.3 7.1-9.2 1-3.8.5-7.9-1.5-11.5l-16.3-28.2c-.6-1.1-1.3-2.1-2.3-3l-1.8-1.8c-1.1-.8-2.1-1.3-2.9-1.7l-2.5-1c-1.8-.5-3.7-.6-5.9-.3-2 .3-3.9.9-5.5 1.9l-6.1 3.5v-7.2c0-8.3-6.8-15.1-15.1-15.1h-33.1c-8.3 0-15.1 6.8-15.1 15.1v7.3l-6.1-3.5c-.6-.4-1.2-.7-1.7-.8-1.6-.7-3.1-1.1-4.6-1.2l-.8-.2-.7.1c-5.4 0-10.4 2.9-13.1 7.5l-16.5 28.5c-1.5 2.5-2.9 6.6-1.5 11.9l2 6 11.1 6.4-6.3 3.7c-2.3 1.3-4.3 3.4-5.6 5.9l-.8 1.5H58.4c-2.6 0-16-.3-29.3-6.9C16.2 176.4.8 162.9.8 134.9.8 104.2 26.4 79.2 57 80.2 64.3 34.8 103.8.9 150 .9c33.9 0 66.2 19.2 82.6 48.9 36.9 1.7 66.7 32.6 66.7 69.8 0 61.1-62.1 69.8-62.7 69.9l-1 .1h-8.1zm1.6-5.7h6.9c.4-.1 57.5-8.4 57.5-64.2 0-34.6-28.1-63.4-62.7-64.2h-1.7l-.8-1.5C213.1 25.2 182.4 6.6 150 6.6c-44.3 0-82 33.1-87.8 77l-.4 2.7-2.7-.2c-1.3-.1-2.5-.2-3.8-.2-27 0-48.9 22-48.9 49C6.4 160 20 172 31.5 177.6c12.2 6 24.5 6.3 26.8 6.3h12.3c1.3-2 2.9-3.8 4.8-5.2l-4.6-2.6-2.8-8.4c-1.9-7.2.1-12.8 2.1-16.3l16.5-28.5c3.7-6.4 10.6-10.4 18-10.4l2.4.2c1.9.2 3.9.8 5.9 1.6h.1c1.2-10.4 10-18.5 20.7-18.5h33.1c10.6 0 19.4 8 20.7 18.3 1.6-.7 3.4-1.1 5.3-1.4 3.2-.4 5.6-.2 8.1.5l2.1.6 1.5.8c.9.4 2.4 1.1 3.9 2.3l1.7 1.4.9 1.1c1.1 1.1 2.2 2.5 3 4l16.3 28.1c2.8 4.9 3.5 10.5 2 15.8-1.2 4.5-3.9 8.4-7.6 11.2l.9 1c1 1 2.3 2.5 3.5 4.4zm-62.4 65.2h-33.1c-4.7 0-8.6-3.9-8.6-8.6V232l-2.9-1.5c-1.1-.6-2.1-1.1-3.1-1.8-.9-.6-1.8-1.1-2.7-1.7l-7.4 4.3c-1.7.9-3.9 1.3-5.7 1-.3 0-.6-.1-.8-.1l-.7-.3c-1.7-.5-3.5-1.9-4.6-3.8l-16.5-28.6c-2.4-4.1-1-9.4 3.1-11.8l7.3-4.2-.1-1.5c-.1-1.2-.1-2.4-.1-3.6 0-1.8.1-3.5.2-5.1l-10-5.8-1-3c-.7-2.7-.5-5.1.7-7.1l16.5-28.6c1.5-2.6 4.4-4.3 7.4-4.3h.5a9.46 9.46 0 0 1 2.9.7c.4.2.7.3 1 .5l7.2 4.1 1.2-.8c1.9-1.3 4-2.5 6.3-3.6l1.3-.7v-8.4c0-4.7 3.9-8.6 8.6-8.6h33.1c4.7 0 8.6 3.9 8.6 8.6v8.5l1.3.7c2.1 1.1 4.1 2.2 6.1 3.5l1.2.8 7.2-4.2c1.1-.7 2.4-.9 3.2-1 1.2-.2 2.3-.1 3.3.2a8.66 8.66 0 0 1 1.2.5c.7.3 1.3.6 1.8 1l.9.9c.5.5 1.1 1.1 1.5 1.8l16.4 28.5c1.1 2 1.4 4.3.8 6.5s-2.1 4.1-4 5.2l-7.2 4.2c.1 1.6.2 3.2.2 4.9 0 1.9-.1 3.6-.2 5.2l8.1 4.9c1.2.8 2.3 2.3 2.9 3.9.3.9.4 1.8.5 2.7v1.2c-.1.6-.3 1.2-.5 1.6-.2.6-.3 1.1-.6 1.6L202.9 228c-1.1 1.8-3.1 3.4-5.1 4-1.1.3-2.2.4-3.3.2-1.5-.2-2.5-.6-3.4-1.1l-7.2-4.2-2.5 1.6c-1.1.7-2.2 1.3-3.2 1.9-1 .5-1.9 1-2.8 1.5v8.5c-.1 4.9-4 8.7-8.7 8.7zm-50.1-28.8l1.5 1.1c1.2.9 2.5 1.7 3.9 2.5.9.6 1.9 1.1 2.8 1.6 1.4.7 2.8 1.5 4.3 2.1l1.7.7v12.2c0 1.6 1.3 2.9 2.9 2.9h33.1c1.6 0 2.9-1.3 2.9-2.9v-12.1l1.7-.8c1.4-.6 2.7-1.3 4.1-2.1 1.1-.6 2-1.1 2.9-1.7 1.3-.8 2.6-1.6 3.8-2.5l1.5-1.1 10.4 6a1.69 1.69 0 0 0 1 .3c.5.1.9 0 1.2 0 .6-.2 1.4-.8 1.7-1.3l16.7-29.5v-.2l.1-.4c0-.4 0-.7-.1-.9-.2-.5-.6-1-1.1-1.4l-.6-.5-10.1-5.7.2-1.9c.3-2.1.4-4.1.4-6.1 0-2.3-.1-4.3-.4-6.4l-.2-1.8 10.5-6.1c.7-.4 1.2-1 1.4-1.8.2-.7.1-1.5-.3-2.2L198 131.9c-.1-.2-.3-.3-.4-.5l-.6-.6-1-.4s-.4-.1-1 0c-.5.1-.9.2-1.1.3l-10.3 6-1.6-1.1c-.5-.4-1-.7-1.5-1l-2.2-1.5c-1.3-.8-2.8-1.6-4.3-2.4l-4.4-2.2v-12c0-1.6-1.3-2.9-2.9-2.9h-33.1c-1.6 0-2.9 1.3-2.9 2.9v12l-4.5 2.2c-2 1-3.9 2.1-5.7 3.2l-4.1 2.7-10.2-5.9c-.9-.4-1.3-.4-1.5-.4h-.3c-.9.1-1.8.6-2.2 1.4l-16.5 28.6c-.3.5-.6 1.2-.2 2.6l.3.8 11.4 6.6-.2 1.9c-.2 2-.3 3.9-.4 5.9 0 1.4 0 2.5.1 3.6l.3 5-10.3 6c-1.4.8-1.8 2.6-1 4l16.3 28.2c.6 1 1.2 1.5 1.9 1.7h0l.5.1c.7 0 1.4-.1 1.8-.3l10.4-6.1zm33.4-10.9c-17 0-30.8-13.8-30.8-30.8s13.8-30.8 30.8-30.8 30.8 13.8 30.8 30.8c0 16.9-13.8 30.8-30.8 30.8zm0-56c-13.8 0-25.1 11.3-25.1 25.1s11.3 25.1 25.1 25.1 25.1-11.3 25.1-25.1-11.3-25.1-25.1-25.1z"/></svg>