<svg xmlns="http://www.w3.org/2000/svg" viewBox="0 0 702.3 377.4"><path d="M346.2 11.2h0c-26.9 0-48.7 21.8-48.7 48.7v47.9c0 8.3 5.9 15.2 13.8 16.8 1.9.4 3.9-.1 5.5-1.3l8.4-6.2c3.3-2.4 7.7-2.5 11-.2l6.5 4.4c3.1 2.1 7.2 2 10.3-.2l5.8-4.2c3.6-2.6 8.5-2.2 11.7.8l3.7 3.6c2.9 2.8 7.2 3.6 10.8 1.9 5.8-2.7 9.8-8.6 9.8-15.5V59.9c.1-26.9-21.7-48.7-48.6-48.7zM333 62.8a8.71 8.71 0 0 1-8.7 8.7 8.71 8.71 0 0 1-8.7-8.7V53a8.71 8.71 0 0 1 8.7-8.7A8.71 8.71 0 0 1 333 53v9.8zm43.8 0a8.71 8.71 0 0 1-8.7 8.7 8.71 8.71 0 0 1-8.7-8.7V53a8.71 8.71 0 0 1 8.7-8.7 8.71 8.71 0 0 1 8.7 8.7v9.8z" fill="#46448f"/><linearGradient id="A" gradientUnits="userSpaceOnUse" x1="190.862" y1="244.619" x2="184.458" y2="84.528"><stop offset="0" stop-color="#a39fcf"/><stop offset=".987" stop-color="#c7c4e2"/></linearGradient><path d="M358.1 104.8c-8.9-11.6-20.9-20.6-34.4-25.8-6.3-28.7-31.8-49.5-61.8-49.5-9.2 0-18.1 1.9-26.3 5.7a92.5 92.5 0 0 0-27-23.2C194.8 4.2 179 0 163.1 0c-23.1 0-45.2 8.6-62.3 24.2C86.3 37.5 76.5 54.9 72.6 74 32.2 77.3.3 111 0 152.1c-.4 43.8 36 79.7 79.8 79.7h214.7c43.6 0 79.6-35 79.9-78.6.1-17.6-5.5-34.4-16.3-48.4z" fill="url(#A)"/><linearGradient id="B" gradientUnits="userSpaceOnUse" x1="531.301" y1="316.004" x2="527.335" y2="216.849"><stop offset="0" stop-color="#a39fcf"/><stop offset=".987" stop-color="#c7c4e2"/></linearGradient><path d="M634.9 229.4c-5.5-7.2-12.9-12.7-21.3-16-3.9-17.8-19.7-30.7-38.3-30.7-5.7 0-11.2 1.2-16.3 3.5a59.12 59.12 0 0 0-16.7-14.4c-8.6-4.9-18.3-7.4-28.2-7.4a57.01 57.01 0 0 0-38.6 15c-9 8.2-15.1 19-17.5 30.8-25 2-44.7 22.9-45 48.4-.2 27.2 22.3 49.4 49.5 49.4h132.9c27 0 49.3-21.7 49.5-48.7.1-10.8-3.4-21.2-10-29.9z" fill="url(#B)"/><path d="M679.5 140.9h0c.1-7.1 5.8-12.8 12.9-12.9h0c-7.1-.1-12.8-5.8-12.9-12.9h0c-.1 7.1-5.8 12.8-12.9 12.9h0c7.1 0 12.8 5.8 12.9 12.9zm.3 8.3h0c-.2 12.5-10.2 22.5-22.6 22.6h0c12.4.1 22.4 10.2 22.5 22.6l.1-.1c.1-12.4 10.1-22.4 22.5-22.5h0c-12.4-.1-22.4-10.2-22.5-22.6zm-9.3-5.3c-21.7-.2-39.2-17.7-39.3-39.4l-.1.1c-.2 21.6-17.7 39.1-39.3 39.3h0c21.7.2 39.2 17.8 39.3 39.4l.1-.1c.2-21.6 17.6-39 39.3-39.3h0z" fill="#b1aed6"/><path d="M64.5 344.9c0-18.8 14.4-32.2 33.8-32.2 10.8 0 19.8 3.9 25.6 11l-9.3 8.5c-4.2-4.8-9.4-7.3-15.7-7.3-11.7 0-19.9 8.2-19.9 19.9s8.3 19.9 19.9 19.9c6.2 0 11.5-2.5 15.7-7.4l9.3 8.5c-5.9 7.2-14.9 11.1-25.7 11.1-19.3.2-33.7-13.2-33.7-32zm68.2-34.9h13.9v66h-13.9v-66zm23.2 42.1c0-14.4 11.1-24.7 26.3-24.7s26.3 10.2 26.3 24.7-11 24.7-26.3 24.7-26.3-10.3-26.3-24.7zm38.5 0c0-8.3-5.3-13.3-12.2-13.3s-12.3 5-12.3 13.3 5.3 13.3 12.3 13.3 12.2-5 12.2-13.3zm71.6-23.9V376h-13.2v-5.7c-3.6 4.2-9 6.4-14.9 6.4-12 0-20.5-6.8-20.5-21.5v-27.1h13.9v25c0 8 3.6 11.6 9.7 11.6 6.4 0 11-4.1 11-12.9v-23.7h14zm61.7-18.2v66h-13.3v-5.5c-3.5 4.2-8.5 6.2-15 6.2-13.5 0-23.9-9.6-23.9-24.7s10.4-24.7 23.9-24.7c5.9 0 10.9 1.9 14.3 5.8V310h14zM314 352.1c0-8.3-5.3-13.3-12.2-13.3s-12.3 5-12.3 13.3 5.3 13.3 12.3 13.3c6.9 0 12.2-5 12.2-13.3zM68.4 265.7h18.7v4.7H73.5v7.6h12.8v4.7H73.5v12h-5.1v-29zm38.3 29H102v-3.1h-.1c-.5 1-1.2 1.9-2.1 2.6-1.1.8-2.5 1.2-3.9 1.1-1.1 0-2.3-.2-3.3-.6-.9-.4-1.6-1-2.2-1.7s-1-1.6-1.2-2.5-.4-1.9-.4-2.9v-12.4h4.9v9.9c0 .5 0 1.2.1 1.8s.2 1.3.4 1.9.6 1.1 1.1 1.5c.6.4 1.3.6 2 .6s1.4-.1 2.1-.4c.5-.3 1-.6 1.4-1.1s.6-1 .8-1.6.2-1.2.2-1.9v-10.7h4.9v19.5zm15.1-14.2c-.9-1.3-2.3-2-3.8-2-.7 0-1.3.2-1.9.5s-1 .9-.9 1.6c0 .6.3 1.1.8 1.3.6.3 1.3.5 1.9.7l2.6.6c.9.2 1.8.5 2.6.9s1.4 1 1.9 1.7c.6.9.8 2 .8 3s-.2 2.1-.8 3c-.5.8-1.2 1.5-1.9 1.9a9.04 9.04 0 0 1-2.7 1.1c-1 .2-2 .3-3 .3-1.4 0-2.9-.2-4.2-.6-1.3-.5-2.5-1.3-3.4-2.4l3.2-3.1c.6.7 1.3 1.3 2 1.7.8.5 1.7.7 2.6.6.4 0 .7 0 1.1-.1s.7-.2 1.1-.4c.3-.2.6-.4.8-.7a1.69 1.69 0 0 0 .3-1c0-.6-.3-1.2-.8-1.5-.6-.4-1.3-.6-1.9-.8l-2.6-.6c-.9-.2-1.7-.5-2.6-.9-.8-.4-1.4-1-1.9-1.7-.6-.9-.8-1.9-.8-2.9s.2-2 .6-2.8 1-1.5 1.8-2 1.6-.9 2.5-1.1 1.9-.4 2.9-.4a13.2 13.2 0 0 1 3.9.6c1.3.4 2.3 1.2 3.1 2.3l-3.3 3.2zm6.1-12.1c0-.8.3-1.5.9-2.1s1.4-.9 2.2-.9 1.7.3 2.3.9c1.2 1.1 1.2 2.9.2 4l-.2.2c-.6.6-1.4.9-2.3.8-.8 0-1.6-.3-2.2-.9-.6-.5-.9-1.2-.9-2zm.7 6.7h4.9v19.6h-4.9v-19.6zm7.6 9.8a9.9 9.9 0 0 1 .9-4.2c1.1-2.5 3.1-4.4 5.7-5.3 2.7-1 5.7-1 8.3 0 2.5.9 4.6 2.8 5.7 5.3 1.1 2.7 1.1 5.7 0 8.4-1.1 2.5-3.1 4.4-5.7 5.3-2.7 1-5.7 1-8.3 0-2.5-.9-4.6-2.8-5.7-5.3-.6-1.3-.9-2.8-.9-4.2zm4.9 0c0 .8.1 1.5.4 2.2.2.7.6 1.3 1.1 1.9a5.83 5.83 0 0 0 8.2.2l.2-.2c.5-.5.9-1.2 1.1-1.9a6.64 6.64 0 0 0 0-4.4c-.2-.7-.6-1.3-1.1-1.9a5.83 5.83 0 0 0-8.2-.2l-.2.2c-.5.5-.9 1.2-1.1 1.9-.3.7-.4 1.4-.4 2.2zm19-9.8h4.7v3.1h.1c.5-1 1.2-1.9 2.1-2.6 1.1-.8 2.5-1.2 3.9-1.1 1.1 0 2.3.2 3.3.6.9.4 1.6 1 2.2 1.7s1 1.6 1.2 2.5.4 1.9.4 2.9v12.4h-4.9v-9.9c0-.5 0-1.2-.1-1.8 0-.6-.2-1.3-.4-1.9s-.6-1.1-1.1-1.5c-.6-.4-1.3-.6-2-.6s-1.4.1-2.1.4c-.5.3-1 .6-1.4 1.1s-.6 1-.8 1.6-.2 1.2-.2 1.9v10.7h-4.9v-19.5z" fill="#3e4f51"/><path d="M192.6 265.7h4.5l12.5 28.9h-5.9L201 288h-12.5l-2.6 6.6H180l12.6-28.9zm6.5 18l-4.5-11.8-4.5 11.8h9zm29.1 11h-4.7v-3.1h-.1c-.5 1-1.2 1.9-2.1 2.6-1.1.8-2.5 1.2-3.9 1.1-1.1 0-2.3-.2-3.3-.6-.9-.4-1.6-1-2.2-1.7s-1-1.6-1.2-2.5-.4-1.9-.4-2.9v-12.4h4.9v9.9c0 .5 0 1.2.1 1.8 0 .6.2 1.3.4 1.9s.6 1.1 1.1 1.5c.6.4 1.3.6 2 .6s1.4-.1 2.1-.4c.5-.3 1-.6 1.4-1.1s.6-1 .8-1.6.2-1.2.2-1.9v-10.7h4.9v19.5zm1.6-15.5V275h4v-5.7h4.9v5.7h5.4v4.2h-5.4v8.6c0 .8.1 1.6.5 2.3.4.6 1.1.9 2.2.9.5 0 1-.1 1.4-.1.4-.1.9-.2 1.2-.5v4.1c-.6.3-1.2.4-1.9.5s-1.3.1-2 .1c-1.1 0-2.2-.1-3.2-.4-.8-.2-1.4-.7-1.9-1.3s-.8-1.4-1-2.2c-.2-1-.3-2-.3-3v-9h-3.9zm21.6-1.4h0c.5-.9 1.2-1.7 2.1-2.2 1.1-.7 2.4-1.1 3.7-1 1.1 0 2.3.2 3.3.6.9.4 1.6 1 2.2 1.7s1 1.6 1.2 2.5.4 1.9.4 2.9v12.4h-4.9v-9.9c0-.5 0-1.2-.1-1.8s-.2-1.3-.4-1.9-.6-1.1-1.1-1.5c-.6-.4-1.3-.6-2-.6s-1.4.1-2.1.4c-.5.3-1 .6-1.4 1.1s-.6 1-.8 1.6-.2 1.2-.2 1.9v10.7h-4.9v-30.9h4.9v14z" fill="#f48220"/></svg>