<svg xmlns="http://www.w3.org/2000/svg" width="311" height="242"  fill="#3e4e50"><path d="M290.1 72.8c-12.8-13.4-29.7-21.6-47.9-23.2C224.3 19.6 190.8.5 156 .5 132.3.5 109.2 9 91 24.6 74.2 39 62.6 58.5 58 79.9c-14.4.8-28 6.7-38.6 17C7.4 108.5.8 124 .8 140.6c0 32.8 19.8 47.4 31.6 53.2 14.1 7 28 7.5 32 7.5h19l2.5-4.7c.8-1.5 1.9-2.7 3.2-3.4l8.5-8.8-11.3-10.6-1.2-3.6c-.8-3.3 0-5.7.9-7.2l16.5-28.5c1.6-2.8 4.7-4.5 7.9-4.5l1.1.1c.8.1 1.6.3 2.6.7l.6.3h.2l12.4 2.9 3-11.6c0-5 4.1-9.1 9.1-9.1h33.1c5 0 9.1 4.1 9.1 9.1L185 133l11.9-2.2c.8-.5 1.9-.9 3.1-1a8.39 8.39 0 0 1 3.2.1l1.9.8c.5.3 1 .5 1.5.8l1.6 1.6c.4.3.7.8 1 1.4l16.3 28.3c1.2 2.2 1.5 4.7.9 7.1-.6 2.3-2.1 4.3-4.3 5.5l-8.1 8.2 8.7 9.7.8.7c.6.5 1.2 1.3 1.9 2.5l2.5 4.7h13.7l1.3-.1h.4c3-.5 18.7-3.2 34.4-13.3 15.2-9.8 33.3-28.5 33.3-62.5.2-19.7-7.3-38.3-20.9-52.5zm-21.5 99.7c-11.8 7.7-24 10.3-27.1 10.9h-1.8c2-2.7 3.5-5.8 4.4-9 1.9-6.9 1-14.1-2.6-20.4l-16.3-28a23.19 23.19 0 0 0-3.8-5.1l-1.1-1.3-2.2-1.8c-1.9-1.5-3.7-2.4-5-3l-1.9-1-2.7-.8c-3.4-.9-6.6-1.2-10.5-.7h-.3c-4-10-13.8-17-25-17h-33.1c-11.3 0-21 7-25 17.1-.4-.1-.7-.1-1.1-.1l-2.5-.3h-.5c-9.5 0-18.4 5.1-23.2 13.4l-16.5 28.5c-3.7 6.4-4.6 13.6-2.7 20.8l2.9 8.7h-6.8c-1.3 0-12.9-.2-24.2-5.7-14.4-7-21.7-19.6-21.7-37.3 0-23.7 19.2-43 42.9-43 1 0 2 .1 3.1.2l8.5.6 1.2-8.3c5.5-40.9 40.7-71.8 82-71.8 30.2 0 58.8 17.3 73 44.2l2.5 4.7h5.2c31.3.8 56.8 26.9 56.8 58.2 0 20.6-8.4 36.5-24.9 47.3zm-88.6 11c0-12.902-10.506-23.5-23.5-23.5S133 170.506 133 183.5s10.506 23.5 23.5 23.5 23.5-10.598 23.5-23.5zm-24 8.5c-4.909 0-9-4-9-9a9 9 0 1 1 18 0c0 5-4.091 9-9 9z"/><path d="M213.5 174.4c.9-3.1.5-6.4-1.1-9.3L200.2 144c-.7-1.2-1.6-2.1-2.1-2.6l-.7-.7-.5-.4c-.9-.7-1.8-1.2-2.6-1.5a11.64 11.64 0 0 0-1.5-.6l-.2-.1c-1.6-.5-3.3-.6-5-.3-1.2.2-2.9.5-4.6 1.5l-2.1 1.2c-.2-.1-.3-.2-.5-.3v-2.7c0-6.8-5.5-12.3-12.3-12.3h-24.4c-6.8 0-12.3 5.5-12.3 12.3v2.6c-.2.1-.5.3-.7.4l-2-1.2c-.5-.3-.8-.5-1.1-.6l-.3-.2c-1.2-.5-2.6-.9-4-1h-.9c-4.4 0-8.5 2.4-10.7 6.2l-12.2 21.1c-1.2 2-2.3 5.3-1.1 9.8l1.6 4.8 6.2 3.6v.8l-2.3 1.3c-5.9 3.4-7.9 11-4.5 16.9l12.2 21.1c1.5 2.5 3.9 4.5 6.5 5.4l1.4.6h1.2c2.5.3 5.3-.2 7.6-1.4l2.5-1.5c.2.1.4.2.5.3v2.6c0 6.8 5.5 12.3 12.3 12.3H168c6.8 0 12.3-5.4 12.4-12.3v-2.8c.1-.1.3-.1.4-.2l2.2 1.3.1.1c1.4.8 2.8 1.3 4.5 1.5a10.21 10.21 0 0 0 4.9-.3h.1c2.9-.9 5.6-2.9 7.2-5.6l12.2-21.2c.5-.9.7-1.6.9-2.1.3-.7.5-1.5.7-2.3l.1-.5v-2.1c-.1-.8-.2-2-.6-3.2l-.1-.2c-.9-2.4-2.5-4.5-4.4-5.8l-3.2-1.9v-.8l2.2-1.3c3-1.5 5.1-4.2 5.9-7.3zm-44.1 39.8l-4.9 2.3v8.9h-16.7v-9.2l-5-2.1c-.5-.2-1.1-.5-1.7-.8-.3-.2-.6-.3-.9-.5l-.5-.2c-.4-.2-.8-.4-1.1-.6l-.4-.2c-1-.6-1.7-1-2.3-1.5l-4.3-3.1-7.7 4.5-8.4-14.5 7.4-4.3-.4-7.4v-2.2c.1-1.4.1-2.7.3-3.9l.6-5.3-7.7-4.5 8.3-14.4 7.4 4.3 6-4c1.4-.8 2.6-1.5 3.6-2l6.7-3.3v-8.7h16.7v8.7l6.5 3.2c.9.5 1.9 1 2.7 1.5l1.8 1.2c.2.1.4.2.5.3l4.7 3.2 7.6-4.4 8.4 14.4-7.8 4.5.4 3.9.2 1.5c.2 1.2.2 2.3.2 3.9 0 1.4-.1 2.5-.2 3.7l-.6 5.5 7.7 4.3-8.2 14.4-7.7-4.4-4.3 3.2c-.7.5-1.5 1-2.3 1.5l-.2.1-1.7 1-.1.1c-1 .6-1.8 1.1-2.6 1.4z"/></svg>