<svg xmlns="http://www.w3.org/2000/svg" width="300" height="300"  fill="#3e4e50"><path d="M101.5 135.7h97c2.6 0 5.1-1 7-2.9s3-4.5 2.9-7.2c-.1-22.7-13.5-43.4-33.9-52.8 12-9.2 17.8-24.1 15-39.4-2.9-15.7-15.3-28.5-30.9-31.8a40.11 40.11 0 0 0-33.9 8.1c-9.5 7.7-14.9 19.1-14.9 31.3 0 12.5 5.9 24.3 15.7 31.8-20.4 9.5-33.8 30.1-33.9 52.9 0 2.7 1 5.3 2.9 7.2 1.9 1.7 4.4 2.8 7 2.8zm31.2-57.6c1.9-.7 3.2-2.4 3.4-4.4a5.1 5.1 0 0 0-2.5-4.9c-9.9-5.8-16-16.6-16-28 0-9.8 4.4-19 12.1-25.3 5.8-4.7 13.1-7.2 20.5-7.2 2.3 0 4.6.2 7 .7 12.6 2.6 22.6 12.9 24.9 25.6 2.5 13.7-3.6 27-15.4 34.1-1.8 1-2.7 2.9-2.5 4.9s1.5 3.7 3.4 4.4c19.9 7.3 33.3 26.3 33.3 47.5a2.34 2.34 0 0 1-.7 1.7 2.09 2.09 0 0 1-1.5.6h-97a2.09 2.09 0 0 1-1.5-.6c-.4-.4-.701-1-.701-1.7-.099-21 13.301-40.1 33.201-47.4zM83.6 236.4c12-9.2 17.8-24.1 15-39.4-2.9-15.8-15.3-28.5-30.9-31.8-12.1-2.6-24.5.4-33.9 8.1-9.5 7.7-14.9 19.1-14.9 31.3 0 12.5 5.9 24.3 15.7 31.8C14.2 245.9.8 266.5.7 289.3c0 2.7 1 5.3 2.9 7.2s4.3 2.9 7 2.9h97c2.6 0 5.1-1 7-2.9s2.9-4.4 2.9-7.2c0-22.8-13.5-43.4-33.9-52.9zm25.5 54.5a2.09 2.09 0 0 1-1.5.6h-97a2.09 2.09 0 0 1-1.5-.6c-.4-.4-.7-1-.7-1.7.1-21.2 13.5-40.3 33.4-47.5 1.9-.7 3.2-2.4 3.4-4.3a5.1 5.1 0 0 0-2.5-4.9c-9.9-5.8-16-16.6-16-28 0-9.8 4.4-19 12.1-25.2 5.8-4.7 13.1-7.2 20.5-7.2 2.3 0 4.6.2 7 .7 12.6 2.6 22.6 12.9 24.9 25.6 2.5 13.7-3.6 27.1-15.5 34.1h0a5.1 5.1 0 0 0-2.5 4.9c.2 2 1.5 3.6 3.4 4.3 19.9 7.3 33.3 26.4 33.4 47.5-.2.7-.5 1.3-.9 1.7zm156.3-54.5c12-9.2 17.8-24.1 15-39.4-2.9-15.8-15.3-28.5-30.9-31.8-12.1-2.6-24.5.4-33.9 8.1-9.5 7.7-14.9 19.1-14.9 31.3 0 12.5 5.9 24.3 15.7 31.8-20.4 9.5-33.8 30.1-33.9 52.9 0 2.7 1 5.3 2.9 7.2s4.3 2.9 7 2.9h97c2.6 0 5.1-1 7-2.9s3-4.5 2.9-7.2c0-22.8-13.5-43.4-33.9-52.9zm25.5 54.5a2.09 2.09 0 0 1-1.5.6h-97a2.09 2.09 0 0 1-1.5-.6c-.4-.4-.7-1-.7-1.7 0-21.2 13.5-40.2 33.4-47.5 1.9-.7 3.2-2.4 3.4-4.3a5.1 5.1 0 0 0-2.5-4.9c-9.9-5.8-16-16.6-16-28 0-9.8 4.4-19 12.1-25.2 5.8-4.7 13.1-7.2 20.5-7.2 2.3 0 4.6.2 7 .7 12.6 2.6 22.6 12.9 24.9 25.6 2.5 13.6-3.5 27-15.4 34-1.8 1.1-2.7 3-2.6 5 .2 2 1.5 3.7 3.4 4.4 19.8 7.3 33.2 26.4 33.3 47.4-.1.7-.4 1.3-.8 1.7zM150 150c-2.1 0-3.9 1.7-3.9 3.9v33.4L113 203.8c-1.9 1-2.7 3.3-1.7 5.2.7 1.4 2 2.1 3.5 2.1.6 0 1.2-.1 1.7-.4L150 194l33.5 16.7a3.53 3.53 0 0 0 1.7.4c1.4 0 2.8-.8 3.5-2.1 1-1.9.2-4.2-1.7-5.2l-33.1-16.5v-33.4c0-2.2-1.8-3.9-3.9-3.9z"/></svg>