<svg xmlns="http://www.w3.org/2000/svg" width="320" height="322"  fill="#3e4e50"><path d="M96.6 131c0 4.1 1.5 7.9 4.4 10.7l.2.2c2.9 2.6 6.6 4.1 10.3 4.1h97c4 0 7.7-1.6 10.5-4.4 2.9-2.9 4.5-6.8 4.4-10.8-.1-22.1-11.8-42.4-30.3-53.8 9.7-10.4 14-24.8 11.3-39.2-3.3-17.7-17.2-32.1-34.7-35.8-13.5-2.9-27.4.4-38.1 9.1-10.6 8.6-16.8 21.5-16.8 35.2 0 11.4 4.4 22.5 12.1 30.7-18.5 11.5-30.2 31.9-30.3 54zm69.3-111.7h0c10.7 2.2 19.1 10.9 21 21.6 2.1 11.6-3 23-13 28.9-3.4 2-5.3 5.8-4.9 9.7s2.9 7.2 6.7 8.6c17 6.2 28.7 22.1 29.9 40h-91c.9-15.9 10.5-30.5 24.9-37.9 1.5-.8 3.1-1.5 4.7-2 .4-.1.8-.3 1.2-.5h.1l.2-.1c.1 0 .1-.1.2-.1 2.9-1.6 4.9-4.5 5.2-7.9h0c.4-3.9-1.5-7.7-4.9-9.7-8.3-4.9-13.5-14-13.5-23.7 0-8.3 3.7-16.1 10.2-21.4 1.8-1.4 3.8-2.7 5.9-3.6 3.5-1.6 7.3-2.4 11.3-2.4 2.1-.1 4 .1 5.8.5zM96.5 251.9c9.7-10.4 14-24.8 11.3-39.2-3.2-17.7-17.2-32.1-34.8-35.8-13.5-2.9-27.4.4-38 9.1-10.6 8.6-16.8 21.5-16.8 35.2 0 11.4 4.4 22.5 12.1 30.7C11.8 263.3.1 283.8 0 305.9c0 4.1 1.5 7.9 4.4 10.7 2.9 2.9 6.5 4.4 10.5 4.4h97c4 0 7.7-1.6 10.5-4.4s4.4-6.6 4.4-10.7c0-22-11.7-42.5-30.3-54zm-27.1-57.5c10.6 2.2 19 10.9 21 21.6 2.1 11.6-3 23-13.1 28.9-3.4 2-5.3 5.8-4.9 9.7.4 3.8 3 7.1 6.7 8.5 17 6.2 28.8 22 30 40H17.8c1.2-18 12.9-33.8 29.8-40h0c.4-.1.8-.3 1.2-.5 0 0 .1 0 .1-.1h0l.1-.1c.1 0 .1-.1.2-.1 2.9-1.6 4.8-4.5 5.2-7.8h0c.4-3.9-1.5-7.7-4.9-9.7-8.3-4.9-13.5-14-13.5-23.7 0-8.3 3.7-16.1 10.2-21.3 1.8-1.4 3.8-2.7 5.9-3.6 3.5-1.6 7.3-2.4 11.3-2.4 2.2 0 4.1.2 6 .6zm220.3 57.5c9.7-10.4 14-24.8 11.3-39.2-3.2-17.7-17.2-32.1-34.8-35.8-13.6-2.9-27.5.4-38.1 9.1-10.6 8.6-16.8 21.5-16.8 35.2 0 11.4 4.4 22.5 12.1 30.7-18.5 11.4-30.2 31.9-30.3 54 0 4.1 1.5 7.9 4.4 10.7 2.9 2.9 6.5 4.4 10.5 4.4h97c4 0 7.7-1.5 10.5-4.4 2.9-2.9 4.5-6.8 4.4-10.8.1-22-11.6-42.4-30.2-53.9zM241 263c3.6-1.3 6.2-4.7 6.6-8.5.4-3.9-1.5-7.7-4.9-9.7-8.3-4.9-13.5-14-13.5-23.7 0-8.3 3.7-16.1 10.2-21.3 4.8-3.9 11-6.1 17.3-6.1 2.1 0 4.1.2 5.9.6 10.6 2.2 19 10.9 21 21.6 2.1 11.5-3 22.8-13.1 28.8-3.5 2.1-5.4 5.9-5 9.8s2.9 7.2 6.7 8.6c17 6.3 28.8 22.1 29.8 40h-91c1.1-17.9 12.9-33.8 30-40.1zm-50.1-39.7c2.8 0 5.6-1.6 6.9-4.2 1-1.9 1.2-4 .5-6-.6-1.9-2-3.5-3.8-4.5l-26.7-13.3v-26.5c0-4.3-3.5-7.8-7.8-7.8s-7.8 3.5-7.8 7.8v26.5l-26.6 13.2h-.1c-3.8 2-5.3 6.7-3.3 10.4 1.3 2.6 3.9 4.2 7 4.2 1.3 0 2.5-.3 3.6-.9l27.3-13.6 27.4 13.7a6.11 6.11 0 0 0 3.4 1z"/></svg>