<svg xmlns="http://www.w3.org/2000/svg" viewBox="0 0 42.5 42.5" fill="#636466"><path d="M18.2 22.6L16.6 21c-.2-.2-.5-.2-.6.1-.1.2 0 .4.1.5l5 4.8a.76.76 0 0 0 .4.2c.1 0 .2-.1.3-.3 0-.2 0-.3-.2-.4l-3.4-3.3zm4.4-.8l-2.2 2.3c-.1.1-.1.2 0 .3a1.38 1.38 0 0 0 .4.3c.1.1.2.1.3 0l2.2-2.4c.2-.2.2-.5 0-.7-.2-.1-.5 0-.7.2z"/><path d="M18.1 22.1c.1.1.2.1.3 0l2.2-2.4c.2-.2.2-.5 0-.6-.2-.2-.5-.2-.6 0l-2.3 2.4c-.1.1-.1.1 0 .2l.4.4zm-4.9 8.6c.2-.2.3-.3.4-.5l1.4-1.4c.1-.1.2-.1.5.1 1 .6 2.4.5 3.3-.3l1.7-1.8c.2-.2.2-.5 0-.7l-4-3.9c-.2-.2-.5-.2-.7 0-.5.6-1 1.1-1.6 1.7-.2.2-.3.4-.4.6-.5 1.1-.4 2.1.3 3.1.1.1.1.2 0 .3l-1.7 1.8-.2.2c.3.3.6.6 1 .9-.1 0 0-.1 0-.1h0zm10.9-12.2l-2.5-2.4a.76.76 0 0 0-.4-.2c-.1 0-.2.1-.3.3 0 .2 0 .3.2.4l3.4 3.3 1.6 1.6c.2.2.5.2.6-.1.1-.2 0-.4-.1-.5l-2.5-2.4zm5.4-6.7l-1.9 1.9c-.1.1-.2.1-.5-.1-1-.6-2.4-.5-3.3.3l-1.7 1.8c-.2.2-.2.5 0 .7l4 3.9c.2.2.5.2.7 0 .5-.6 1-1.1 1.6-1.7.2-.2.3-.4.4-.6.5-1.1.4-2.1-.3-3.1-.1-.1-.1-.2 0-.3.5-.6 1.1-1.1 1.6-1.7l.2-.2s0-.1.1-.1l-.9-.9c.1 0 0 .1 0 .1h0z"/><path d="M41.6 17.7h-5.1c-.4-1.4-.8-3-1.4-4.1l3.6-3.6c.2-.2.3-.4.3-.6s-.1-.4-.2-.5l-5.1-5.1c-.3-.3-.9-.3-1.3 0l-3.6 3.6c-1.2-.6-2.7-1-4.1-1.4V.9c0-.5-.4-.9-.9-.9h-5.3c-.5 0-.9.4-.9.9V6c-1.4.4-3 .8-4.1 1.4L10 3.7c-.3-.3-.9-.3-1.3 0l-5 5c-.3.3-.3.9 0 1.3l3.6 3.6c-.6 1.2-1 2.7-1.4 4.1h-5c-.5 0-.9.4-.9.9v5.3c0 .5.4.9.9.9H6c.4 1.4.8 3 1.4 4.1l-3.6 3.6c-.2.2-.3.4-.3.6s.1.5.3.6l5 5c.3.3.9.3 1.3 0l3.6-3.6c1.2.6 2.7 1 4.1 1.4v5.1c0 .5.4.9.9.9H24c.5 0 .9-.4.9-.9v-5.1c1.4-.4 3-.8 4.1-1.4l3.6 3.6c.3.3.9.3 1.3 0l5-5c.3-.3.3-.9 0-1.3l-3.6-3.6c.6-1.2 1-2.7 1.4-4.1h5.1c.5 0 .9-.4.9-.9v-5.3c-.2-.4-.6-.8-1.1-.8zM21.3 34c-2 0-3.9-.5-5.7-1.4-1-.5-1.9-1-2.7-1.7-.3-.3-.7-.6-1-.9-2-2-3.3-4.7-3.5-7.8v-1.1c0-7 5.7-12.7 12.7-12.7 3.2 0 6.2 1.2 8.4 3.2l.9.9c2.1 2.3 3.4 5.3 3.4 8.6A12.47 12.47 0 0 1 21.3 34zM8.5 21.3v.4-.4z"/></svg>