<svg xmlns="http://www.w3.org/2000/svg" width="318" height="284"  fill="#3e4e50"><path d="M165.4 169.8l5.7 9.6c.2.3.6 1 .8 1.5l.1.3.8 2.5c.8 3.8 0 7-2.5 10-2.7 3.2-6.7 5-10.8 4.9-2.5-.1-5.1-.8-7.3-2.2-4.6-2.8-6.7-7.6-5.6-12.7.3-1.6.9-3 1.7-4.3l5.7-9.6c1.1-1.8-.2-4.1-2.3-4.1h-32.8v-17.5l.6.3c1 .4 2.1.7 3.1.9 2 .4 4 .6 5.9.5.4 0 .8 0 1.2-.1h.1c.6-.1 1.3-.1 1.9-.2.3-.1.6-.1 1-.2.2 0 .5-.1.7-.1.5-.1.9-.2 1.4-.4h.1a21.99 21.99 0 0 0 7.9-4.4l.2-.2c.4-.3.7-.7 1.1-1 1.9-1.9 3.6-4.1 4.8-6.6v-.1c.1-.2.1-.3.2-.5.1-.3.3-.6.4-.9s.2-.5.3-.8l.6-1.8v-.1a27.13 27.13 0 0 0 .9-4.1v-.1c.1-.6.1-1.1.2-1.7v-3.4c0-.6-.1-1.1-.2-1.7v-.1a27.13 27.13 0 0 0-.9-4.1v-.1l-.6-1.8c-.1-.3-.2-.5-.3-.8s-.3-.6-.4-.9c-.1-.2-.1-.3-.2-.5v-.1c-1.3-2.5-2.9-4.7-4.8-6.6-.3-.3-.7-.7-1.1-1l-.2-.2c-2.3-2-5-3.4-7.9-4.4h-.1c-.5-.1-.9-.3-1.4-.4-.2-.1-.4-.1-.7-.1-.3-.1-.6-.1-1-.2-.6-.1-1.3-.2-1.9-.2h-.1c-.4 0-.8-.1-1.2-.1-1.9-.1-3.9.1-5.9.5a15.83 15.83 0 0 0-3.1.9l-.6.3v-36H.7v218.3h218.1V165.7h-51c-2.2 0-3.5 2.3-2.4 4.1zM18.7 83.7h82.2V110c0 4.1 1.6 7.7 4.4 10.1 1.1 1.4 2.5 1.8 3.5 2.2 1.1.5 2.4.8 3.6.9.5 0 1.1.1 1.6 0h.4c.2 0 .4 0 .7-.1h.1c2.5-.3 5-1.3 7-3a15.24 15.24 0 0 1 2.3-1.6c1-.6 2.1-.9 3.3-.9h.7c1 .1 1.9.5 2.6 1.1.9.8 1.5 1.8 2 2.8.1.2.2.4.2.6 0 .1.1.3.1.4.1.3.1.6.2.9a.9.9 0 0 0 .1.5v1.4c0 .2 0 .3-.1.5 0 .3-.1.6-.2.9 0 .2-.1.3-.1.4-.1.2-.1.4-.2.6-.4 1-1.1 2-2 2.8-.7.6-1.6 1-2.6 1.1h-.7c-1.2 0-2.3-.3-3.3-.9a15.24 15.24 0 0 1-2.3-1.6c-2-1.7-4.4-2.7-7-3h-.1c-.2 0-.4-.1-.7-.1h-2c-1.2.1-2.4.4-3.6.9-.9.4-2.4.8-3.5 2.2-2.8 2.4-4.4 6-4.4 10.1v26.2H91c1-11.3-4.3-21.8-14.3-28-4.9-3.1-10.6-4.7-16.3-4.9-9.6-.2-18.7 3.9-25 11.3-5.3 6.3-7.6 13.8-6.9 21.6h-9.7V83.7h-.1zm81.8 176.6v5.6H18.7v-82.1h33c2.1 0 3.4-2.3 2.3-4.1l-5.7-9.6c-.2-.3-.6-1-.8-1.5l-.1-.3c-.3-.9-.6-1.7-.8-2.5-.8-3.8 0-7 2.5-10 2.7-3.2 6.7-5 10.8-4.9 2.5.1 5.1.8 7.3 2.2 4.6 2.8 6.7 7.6 5.6 12.7-.3 1.6-.9 3-1.7 4.3l-5.7 9.6c-1.1 1.8.2 4.1 2.3 4.1h32.7v4.6h.1v13l-.6-.3c-1-.4-2.1-.7-3.1-.9-2-.4-4-.6-5.9-.5-.4 0-.8 0-1.2.1h-.1c-.6.1-1.3.1-1.9.2-.3.1-.6.1-1 .2-.2 0-.5.1-.7.1-.5.1-.9.2-1.4.4h-.1a21.99 21.99 0 0 0-7.9 4.4l-.2.2c-.4.3-.7.7-1.1 1-1.9 1.9-3.6 4.1-4.8 6.6v.1c-.1.2-.1.3-.2.5-.1.3-.3.6-.4.9s-.2.5-.3.8L69 217v.1a27.13 27.13 0 0 0-.9 4.1v.1c-.1.6-.1 1.1-.2 1.7v3.4c0 .6.1 1.1.2 1.7v.1a27.13 27.13 0 0 0 .9 4.1v.1l.6 1.8c.1.3.2.5.3.8s.3.6.4.9c.1.2.1.3.2.5v.1c1.3 2.5 2.9 4.7 4.8 6.6.3.3.7.7 1.1 1l.2.2c2.3 2 5 3.4 7.9 4.4h.1c.5.1.9.3 1.4.4.2.1.4.1.7.1.3.1.6.1 1 .2.6.1 1.3.2 1.9.2h.1c.4 0 .8.1 1.2.1 1.9.1 3.9-.1 5.9-.5a15.83 15.83 0 0 0 3.1-.9l.6-.3v12.3zm83.5-54.9c5.3-6.3 7.6-13.8 6.9-21.6h9.8v82.1h-82.3v-26.3c0-4.1-1.6-7.7-4.4-10.1-1.1-1.4-2.5-1.8-3.5-2.2-1.1-.5-2.4-.8-3.6-.9-.5 0-1.1-.1-1.6 0h-.4c-.2 0-.4 0-.7.1h-.1c-2.5.3-5 1.3-7 3a15.24 15.24 0 0 1-2.3 1.6c-1 .6-2.1.9-3.3.9h-.7c-1-.1-1.9-.5-2.6-1.1-.9-.8-1.5-1.8-2-2.8-.1-.2-.2-.4-.2-.6 0-.1-.1-.3-.1-.4-.1-.3-.1-.6-.2-.9 0-.2 0-.3-.1-.5v-1.4c0-.2 0-.3.1-.5 0-.3.1-.6.2-.9 0-.2.1-.3.1-.4.1-.2.1-.4.2-.6.4-1 1.1-2 2-2.8.7-.6 1.6-1 2.6-1.1h.7c1.2 0 2.3.3 3.3.9a15.24 15.24 0 0 1 2.3 1.6c2 1.7 4.4 2.7 7 3h.1c.2 0 .4.1.7.1h2c1.2-.1 2.4-.4 3.6-.9.9-.4 2.4-.8 3.5-2.2 2.8-2.4 4.4-6 4.4-10.1v-26.3h9.8c-1 11.3 4.3 21.8 14.3 28 4.9 3.1 10.6 4.7 16.3 4.9 9.9-.1 19-4.2 25.2-11.6zM233.8.1l-36.1 36.1c-1.5 1.5-.8 4 1.3 4.5l10.8 2.7c.3.1 1.2.3 1.6.5l.3.1c.9.4 1.6.8 2.3 1.3 3.3 2.1 5 5 5.3 8.8.3 4.2-1.2 8.2-4.2 11.1-1.8 1.8-4.2 3-6.7 3.6-5.2 1.2-10.1-.7-13-5-.9-1.3-1.5-2.7-1.9-4.2l-2.7-10.8c-.5-2.1-3.1-2.8-4.6-1.3l-36.1 36.1 25.2 25.2-.6.2c-1 .5-1.9 1-2.8 1.6-1.7 1.1-3.2 2.4-4.5 3.8-.3.3-.5.6-.8.9 0 0 0 .1-.1.1l-1.2 1.5c-.2.3-.4.5-.5.8-.1.2-.3.4-.4.6-.2.4-.5.8-.7 1.2v.1c-1.4 2.7-2.3 5.6-2.5 8.7v1.8c0 2.7.4 5.4 1.3 8.1v.1c.1.2.1.3.2.5.1.3.2.6.4 1 .1.3.2.5.3.8.3.6.5 1.2.8 1.7v.1c.7 1.2 1.4 2.4 2.3 3.5 0 0 0 .1.1.1.3.4.7.9 1.1 1.3.1.1.2.3.4.4l1.6 1.6c.1.1.3.2.4.4.4.4.8.7 1.3 1.1 0 0 .1 0 .1.1 1.1.9 2.3 1.6 3.5 2.3h.1c.6.3 1.1.6 1.7.8.3.1.5.2.8.3s.6.3 1 .4c.2.1.3.1.5.2h.1c2.7.9 5.4 1.3 8.1 1.3h1.8c3-.2 6-1.1 8.7-2.5h.1c.4-.2.8-.5 1.2-.7.2-.1.4-.2.6-.4.3-.2.6-.4.8-.5l1.5-1.2s.1 0 .1-.1c.3-.3.6-.5.9-.8 1.4-1.3 2.7-2.8 3.8-4.5.6-.9 1.1-1.8 1.6-2.8l.2-.6 25.2 25.2 83.6-83.6L233.8.1zm38.3 103.3l-38.3 38.3-18.6-18.6c-2.9-2.9-6.6-4.3-10.3-4-1.8-.2-3.1.5-4 .9a12.89 12.89 0 0 0-3.2 1.9 5.73 5.73 0 0 0-1.1 1.1l-.3.3c-.1.2-.3.3-.4.5v.1a13.04 13.04 0 0 0-2.8 7.1c-.1.8-.3 1.8-.5 2.8-.3 1.1-.9 2.1-1.7 3-.2.2-.3.3-.5.4-.8.6-1.6 1-2.6 1.1-1.2 0-2.3-.2-3.4-.6-.2-.1-.4-.2-.6-.2a.76.76 0 0 0-.4-.2c-.3-.2-.5-.3-.8-.5-.1-.1-.3-.2-.4-.3-.2-.2-.4-.3-.6-.5s-.3-.4-.5-.6c-.1-.1-.2-.2-.3-.4-.2-.2-.3-.5-.5-.8a.76.76 0 0 1-.2-.4c-.1-.2-.2-.4-.2-.6-.4-1-.6-2.2-.6-3.4.1-1 .5-1.8 1.1-2.6.1-.2.3-.3.4-.5.8-.8 1.9-1.4 3-1.7 1-.3 1.9-.4 2.8-.5a13.04 13.04 0 0 0 7.1-2.8l.1-.1c.2-.1.3-.3.5-.4l1.4-1.4c.8-.9 1.4-2 1.9-3.2.4-1 1.1-2.2.9-4 .3-3.7-1.1-7.4-4-10.3l-18.6-18.6 7-7c7.3 8.7 18.4 12.4 30 9.7 5.7-1.3 10.8-4.1 15-8.1 6.9-6.7 10.5-16 9.7-25.7-.7-8.2-4.4-15.1-10.4-20.2l6.9-6.9 58 58-6.9 6.9-13.1 13z"/></svg>