<svg xmlns="http://www.w3.org/2000/svg" width="300" height="276"  fill="#3e4e50"><path d="M214.8 163.3h-37.1c-2.7-.2-3.8 1.3-4.2 2.3-.4.9-.9 2.7.9 4.7 1.3 1.6 2.5 3.2 3.1 5 2.2 5.9 1.5 10.8-2.2 15.1-5.3 6.3-14.4 7.6-21.6 3.2-5.4-3.3-8-9.2-6.8-15.4.5-2.5 1.7-4.9 3.9-7.8 1.8-1.8 1.3-3.7 1.1-4.5-.3-.8-1.2-2.6-4.1-2.5h-35.1v-35.3c0-.6 0-1 .1-1.4.3-1.1.8-1.6.9-1.7.1 0 .4.1.9.6 1.1 1.1 2.5 2.2 4.1 3.2 7.2 4.6 16.4 3.5 21.9-2.6 5.6-6.2 6.5-15.1 2.4-22.5-2.3-4.1-6-7-10.4-8.2-4.5-1.2-9.4-.5-13.4 1.9-1.7 1-3.1 2.2-4.4 3.4l-1 .8c-.1 0-.3-.2-.5-.4-.4-.8-.6-1.6-.6-2.9V61.2c0-.5 0-2-1.1-3.1-1.1-1.2-2.6-1.2-3.2-1.2L4.3 57C1.6 57 0 58.7 0 61.3v210.1c0 2.8 1.7 4.4 4.5 4.4h210.1c2.7 0 4.3-1.6 4.3-4.3V167.4c.1-2.4-1.6-4.1-4.1-4.1zM106.3 63.4v35c0 2.3.4 4.2 1.4 5.9 1 1.9 2.9 3.3 4.9 3.7s4-.2 5.6-1.6l.8-.6c1.1-1 2.3-2 3.5-2.7 2.5-1.5 5.6-2 8.4-1.2 1.9.5 4.6 1.8 6.4 5.1 2.8 5 2.2 10.9-1.5 15.1-3.4 3.7-9.1 4.4-13.7 1.5-1.2-.8-2.2-1.5-3-2.3-2.9-2.9-5.7-2.7-7.1-2.3-2.6.7-4.7 3.1-5.4 6.3a12.92 12.92 0 0 0-.3 2.9v35.2H75.5c1.4-2.4 2.4-4.8 2.8-7.2 1.9-9.5-2.7-18.8-11.5-23.1-9.3-4.5-19.2-3.1-26.5 3.9-5.4 5.1-7.4 11.9-5.9 19.5.5 2.3 1.4 4.6 2.8 6.9H6.4V63.6l99.9-.2zM6.4 269.5v-99.9h35c2.6.1 3.7-1.4 4.2-2.3.4-.8 1-2.7-.9-4.7-2.2-2.8-3.4-5.1-3.9-7.6-1.1-5.5.2-10 4-13.6 5.3-5.1 12.6-6.1 19.3-2.8 6.1 3 9.3 9.4 8 16.1-.5 2.6-1.7 4.9-3.8 7.8-2.2 2.2-1.3 4.4-1 5 .4.8 1.6 2.2 4 2.1h35v30.8c-1.9-1.2-4.3-2.3-7-2.8-9.7-1.9-18.8 2.6-23.3 11.4-4.9 9.7-2.6 21 5.6 28.1 6.4 5.6 16.4 6.3 24.2 1.8.2-.1.3-.2.5-.3v30.8H78.5l-72.1.1zm163.6 0h-57.4v-35.2c0-2.4-1.3-3.4-2.3-3.9-.8-.4-2.5-.8-4.3.7-1.1.9-2.3 1.7-3.5 2.4-5.5 3.2-12.4 2.7-16.8-1.1-5.9-5.2-7.6-13.4-4-20.5 3.2-6.3 9.4-9.4 16.3-8 2.5.5 4.9 1.7 7.8 4 2 1.8 3.8 1.3 4.8.8.9-.5 2.3-1.6 2.1-4.2h.1v-34.8h30.7c-1.4 2.3-2.3 4.7-2.8 7.2-1.8 8.9 2 17.3 9.7 22.1 9.9 6.1 22.4 4.2 29.8-4.5 5.2-6 6.3-13.5 3.3-21.5-.4-1.2-1-2.3-1.6-3.3h30.8v99.8H170zM299.8 51.1c-.5-1.6-1.8-2.3-2.3-2.5L205.2.7c-.5-.3-1.8-.9-3.3-.4-1.6.5-2.2 1.8-2.4 2.2l-13.2 25.4-3.9 7.6-.5 1.2c-.5 1.8.2 3 .6 3.6a3.5 3.5 0 0 0 3.2 1.4c.5 0 1-.1 1.5-.2 5-1.1 9.2-.4 12.9 2.1 2.5 1.7 4.2 3.7 5.1 6.3 3.4 9-.8 18.5-9.8 22-4.6 1.8-8.9 1.2-13.3-1.7-2.5-1.7-4.4-4.2-6.1-7.9-1-2.6-2.9-2.8-4-2.9-1 0-2.7.4-3.7 2.7l-4.8 9.2-12.3 23.6c-.2.4-.9 1.7-.4 3.3.5 1.5 1.8 2.2 2.3 2.5l33.1 17.2c1 .5 1.6 1.1 2 1.8l-.2.8-1.6.7c-.7.3-1.4.6-2 .9-6.5 3-10.1 8.2-10.5 15.1-.5 8.9 7.2 17.6 16.6 18.7.8.1 1.6.1 2.4.1 4.6 0 8.8-1.6 11.9-4.5 3.7-3.4 5.6-8.4 5.3-13.6-.1-1.8-.5-3.3-.8-4.9l-.4-1.6.4-.5c.8-.1 1.7.1 2.7.6l2 1 31.1 16.2c.5.3 1.9 1 3.4.5 1.6-.5 2.3-1.9 2.5-2.3l47.9-92.2c.7-.7 1.4-2 .9-3.6zM246.7 142l-29.4-15.3-2-1c-2.3-1.2-4.5-1.6-6.7-1.2-2 .3-3.6 1.3-4.7 2.8-1 1.5-1.4 3.4-1 5.3l.4 1.8c.3 1.2.6 2.5.7 3.8.2 3.3-1 6.4-3.3 8.6-2.4 2.2-5.6 3.1-9.3 2.7-6-.7-11.3-6.5-11-12 .3-4.5 2.5-7.7 6.8-9.7.6-.3 1.2-.5 1.8-.7s1.2-.5 1.8-.7c1.9-.9 3.3-2.3 3.8-4.1.6-1.8.3-3.8-.7-5.7-1-1.8-2.5-3.2-4.6-4.3L158 96.1l11.3-21.7 2.9-5.5c1.7 2.8 3.8 5.1 6.3 6.8 6 4.1 12.7 4.9 19.2 2.4 12.3-4.8 18.1-17.8 13.4-30.2-1.4-3.8-4-6.9-7.6-9.4-4-2.7-8.6-3.9-13.7-3.6l2-3.9L204 7.5l88.6 46-45.9 88.5z"/></svg>