<svg xmlns="http://www.w3.org/2000/svg" viewBox="0 0 48 48" fill="#636466"><path d="M26.6 11.4c2-1 3.4-3 3.4-5.4a6.02 6.02 0 0 0-6-6 6.02 6.02 0 0 0-6 6c0 2.4 1.4 4.4 3.4 5.4A8.94 8.94 0 0 0 15 20a.94.94 0 0 0 1 1h16a.94.94 0 0 0 1-1 8.94 8.94 0 0 0-6.4-8.6zm-15 27c2-1 3.4-3 3.4-5.4a6.02 6.02 0 0 0-6-6 6.02 6.02 0 0 0-6 6c0 2.4 1.4 4.4 3.4 5.4A8.94 8.94 0 0 0 0 47a.94.94 0 0 0 1 1h16a.94.94 0 0 0 1-1 8.94 8.94 0 0 0-6.4-8.6zm30 0c2-1 3.4-3 3.4-5.4a6.02 6.02 0 0 0-6-6 6.02 6.02 0 0 0-6 6c0 2.4 1.4 4.4 3.4 5.4A8.94 8.94 0 0 0 30 47a.94.94 0 0 0 1 1h16a.94.94 0 0 0 1-1 8.94 8.94 0 0 0-6.4-8.6zm-11.2-6.3L25 29.4V24a.94.94 0 0 0-1-1 .94.94 0 0 0-1 1v5.4l-5.4 2.7c-.5.2-.7.8-.4 1.3.2.4.5.6.9.6.2 0 .3 0 .4-.1l5.6-2.8 5.6 2.8c0 .1.1.1.3.1.4 0 .7-.2.9-.6s0-1-.5-1.3z"/></svg>