<svg xmlns="http://www.w3.org/2000/svg" xmlns:xlink="http://www.w3.org/1999/xlink" viewBox="0 0 44.5 37.6" fill="#636466"><path d="M0 8.2v17a4.48 4.48 0 0 0 4.5 4.5h28.8a4.48 4.48 0 0 0 4.5-4.5v-17H0zm18.9 18.6c-2.6 0-5-1-6.8-2.8l-.3-.3c.9-.5 2.9-1.5 4.2-2l.9-.3v-1.5c-.4-.2-1.1-.9-1.2-2.3-.3-.2-.5-.6-.5-1.1s.2-.8.4-1c-.2-.7-.5-1.9 0-2.6.2-.2.5-.5 1-.4.5-.9 1.8-1.2 2.9-1.2 1.2 0 2.7.4 3 1.5.2.9-.1 2.1-.3 2.7.3.2.4.6.4 1 0 .5-.2.9-.5 1.1-.1 1.5-.8 2.1-1.2 2.3v1.5c.3.1.7.3 1 .4 1.3.5 3.3 1.4 4.1 1.9-1.8 1.8-4.5 3.1-7.1 3.1zM37.8 3.7a4.48 4.48 0 0 0-4.5-4.5H4.5A4.55 4.55 0 0 0 0 3.7v2.7h37.8V3.7zm-31.5.9c-.5 0-.9-.4-.9-.9s.4-.9.9-.9.9.4.9.9-.4.9-.9.9zm3.6 0c-.5 0-.9-.4-.9-.9s.4-.9.9-.9.9.4.9.9-.4.9-.9.9zm3.6 0c-.5 0-.9-.4-.9-.9s.4-.9.9-.9.9.4.9.9-.4.9-.9.9z"/><use xlink:href="#B" stroke="#fff" stroke-width="4" stroke-linejoin="round" stroke-miterlimit="10"/><use xlink:href="#B"/><defs ><path id="B" d="M36.6 20.4l-8.7 8.7 4.9 4.9 8.7-8.7-4.9-4.9zm4-3c-.1-.1-.3-.2-.5-.2s-.4.1-.5.2l-2.1 2.1 4.9 4.9 2-2c.3-.3.3-.7 0-1l-3.8-4zM24.3 36.6c-.1.3-.1.6.1.8.1.1.3.2.5.2.1 0 .2 0 .3-.1l6.4-2.7-4.6-4.6-2.7 6.4z"/></defs></svg>