<?xml version="1.0" encoding="utf-8"?>
<!-- Generator: Adobe Illustrator 24.3.0, SVG Export Plug-In . SVG Version: 6.00 Build 0)  -->
<svg version="1.1" id="Layer_1" xmlns="http://www.w3.org/2000/svg" xmlns:xlink="http://www.w3.org/1999/xlink" x="0px" y="0px"
	 viewBox="0 0 44.5 37.6" style="enable-background:new 0 0 44.5 37.6;" xml:space="preserve">
<style type="text/css">
	.st0{fill:#636466;}
	.st1{fill:#636466;stroke:#FFFFFF;stroke-width:4;stroke-linejoin:round;stroke-miterlimit:10;}
</style>
<g>
	<path class="st0" d="M0,8.2v11.9v5.1c0,2.5,2,4.5,4.5,4.5h12.9h0.4h15.5c2.5,0,4.5-2,4.5-4.5v-5.1V8.2H0z M18.9,26.8
		c-2.6,0-5-1-6.8-2.8l-0.3-0.3c0.9-0.5,2.9-1.5,4.2-2c0.3-0.1,0.6-0.2,0.9-0.3v-1.5c-0.4-0.2-1.1-0.9-1.2-2.3
		c-0.3-0.2-0.5-0.6-0.5-1.1c0-0.5,0.2-0.8,0.4-1c-0.2-0.7-0.5-1.9,0-2.6c0.2-0.2,0.5-0.5,1-0.4c0.5-0.9,1.8-1.2,2.9-1.2
		c1.2,0,2.7,0.4,3,1.5c0.2,0.9-0.1,2.1-0.3,2.7c0.3,0.2,0.4,0.6,0.4,1c0,0.5-0.2,0.9-0.5,1.1c-0.1,1.5-0.8,2.1-1.2,2.3v1.5
		c0.3,0.1,0.7,0.3,1,0.4c1.3,0.5,3.3,1.4,4.1,1.9C24.2,25.5,21.5,26.8,18.9,26.8z"/>
	<path class="st0" d="M37.8,3.7c0-2.5-2-4.5-4.5-4.5H4.5C2-0.8,0,1.3,0,3.7v2.7h37.8V3.7z M6.3,4.6c-0.5,0-0.9-0.4-0.9-0.9
		s0.4-0.9,0.9-0.9c0.5,0,0.9,0.4,0.9,0.9S6.8,4.6,6.3,4.6z M9.9,4.6C9.4,4.6,9,4.2,9,3.7s0.4-0.9,0.9-0.9c0.5,0,0.9,0.4,0.9,0.9
		S10.4,4.6,9.9,4.6z M13.5,4.6c-0.5,0-0.9-0.4-0.9-0.9s0.4-0.9,0.9-0.9c0.5,0,0.9,0.4,0.9,0.9S14,4.6,13.5,4.6z"/>
	<g>
		<path class="st1" d="M36.6,20.4l-8.7,8.7l4.9,4.9c0,0,0,0,0,0l8.7-8.7L36.6,20.4C36.6,20.4,36.6,20.4,36.6,20.4z"/>
		<path class="st1" d="M40.6,17.4c-0.1-0.1-0.3-0.2-0.5-0.2c-0.2,0-0.4,0.1-0.5,0.2l-2.1,2.1c0,0,0,0,0,0l4.9,4.9l2-2
			c0.3-0.3,0.3-0.7,0-1L40.6,17.4z"/>
		<path class="st1" d="M24.3,36.6c-0.1,0.3-0.1,0.6,0.1,0.8c0.1,0.1,0.3,0.2,0.5,0.2c0.1,0,0.2,0,0.3-0.1l6.4-2.7l-4.6-4.6
			L24.3,36.6z"/>
		<path class="st0" d="M36.6,20.4l-8.7,8.7l4.9,4.9c0,0,0,0,0,0l8.7-8.7L36.6,20.4C36.6,20.4,36.6,20.4,36.6,20.4z"/>
		<path class="st0" d="M40.6,17.4c-0.1-0.1-0.3-0.2-0.5-0.2c-0.2,0-0.4,0.1-0.5,0.2l-2.1,2.1c0,0,0,0,0,0l4.9,4.9l2-2
			c0.3-0.3,0.3-0.7,0-1L40.6,17.4z"/>
		<path class="st0" d="M24.3,36.6c-0.1,0.3-0.1,0.6,0.1,0.8c0.1,0.1,0.3,0.2,0.5,0.2c0.1,0,0.2,0,0.3-0.1l6.4-2.7l-4.6-4.6
			L24.3,36.6z"/>
	</g>
</g>
</svg>
