<svg xmlns="http://www.w3.org/2000/svg" viewBox="0 0 43.1 27.8" fill="#636466"><path d="M19.4.1l-5.8 5.8c-1.5 1.9-1.5 4.5-.1 6.5 1.7 2.3 5 2.7 7.1.6l1.8-1.7c.2-.2.3-.2.5 0l9.8 8.5c1 .9 1.1 2.3.3 3.4-.1.2-.3.4-.4.6-.6 1-2.1 1.4-3.2.5-.4-.3-.6-.3-.8 0l-1.7 2.3c-1 1.3-2.7 1.5-3.9.3-.3-.3-.6-.7-.9-.8s-.5.4-.8.7c-1.7 1.3-4 1.2-5.5-.3l-5.7-5.6c-.3-.3-.6-.2-.9-.2-.4 0-.5-.1-.5-.5V5c0-.3.1-.5.3-.7l3-3.4c.6-.6 1.2-1 2.1-.9H19c.1 0 .2 0 .4.1-.1-.1 0 0 0 0zm15.1 18.4c-1-1-2-1.8-3.1-2.7l-6.8-6c-.4-.4-.4-.4 0-.8l1.3-1.3c.5-.5.5-1.2.1-1.6-.4-.5-1.1-.5-1.5 0l-5.1 5.1c-1.2 1.2-3 1.2-4.1-.1-.8-1-.9-2.8 0-3.7L18.7 4 22.2.6c.3-.4.7-.6 1.2-.6h6.1c.5 0 1 .2 1.3.6l3.5 3.8c.1.1.2.2.2.4v13.7zM6.1 4.6H.5c-.4 0-.5.1-.5.6v17.5c0 .3.1.5.4.4h3.7c1.4 0 2.3-1 2.3-2.5V5c.1-.3 0-.4-.3-.4zM3.3 20.8a1.11 1.11 0 0 1-1.1-1.1c0-.7.5-1.1 1.1-1.2.6 0 1 .5 1 1.1 0 .7-.4 1.2-1 1.2zm39.8-6.9V5.1c0-.4-.1-.5-.5-.5h-5.5c-.4 0-.5.1-.5.5v15.7c.1 1.4.9 2.2 2.2 2.2h3.8c.3 0 .4-.1.4-.4l.1-8.7zm-3.2 6.9a1.11 1.11 0 0 1-1.1-1.1 1.11 1.11 0 0 1 1.1-1.1c.6 0 1 .5 1 1.1s-.4 1.1-1 1.1z"/></svg>