<svg xmlns="http://www.w3.org/2000/svg" width="298" height="194"  fill="#3e4e50"><path d="M226.5 135.3l-66.3-57.5c-.8-.9-2-1.9-3.7-1.9s-2.9 1-3.7 1.8l-12.3 11.6c-6.1 6-13.9 9-22.2 8.4-8.5-.7-16.4-5.1-21.6-12.1-8.8-12.7-8.6-29 .4-40.4l42.3-41.9-3.6-1.8c-1.8-.9-2.9-1-4-1H98.9c-7.6-.8-12.5 2.9-16.7 7.1L62 30.5c-2 2-2.9 4.1-2.9 6.8v103c0 4.3 2 6.3 6.3 6.3.5 0 .9-.1 1.4-.1 1.6-.1 2-.1 2.7.6l38.6 37.9c11 11 28.3 12 41.3 2a43.76 43.76 0 0 0 2-2.5l1-1.3c.8.5 1.9 1.8 2.8 2.7.5.6 1.1 1.2 1.6 1.7 4 4 9.1 6.2 14.3 6.2.4 0 .8 0 1.3.1 5.8-.4 11.2-3.4 15.2-8.6l11.5-15.6.2-.2c.2.1.6.3 1.1.7 4.1 3.3 9.1 4.7 14.2 3.8 4.9-.8 9.3-3.8 11.9-8.1a15.26 15.26 0 0 1 1.1-1.6c.6-.9 1.2-1.7 1.4-2.1 6.4-8.8 5.4-19.8-2.5-26.9zm-2.4 23.7a15.26 15.26 0 0 1-1.1 1.6c-.6.8-1.2 1.7-1.5 2.3-1.7 2.7-4.6 4.6-7.9 5.2-3.5.6-6.8-.3-9.7-2.6-1.7-1.2-3.6-2.4-5.8-2s-3.4 2.1-3.7 2.6l-11.5 15.5c-2.9 3.8-6.8 6-11 6.3-4 .3-7.9-1.3-11.1-4.5-.4-.5-.9-1-1.4-1.5-1.8-1.9-3.6-3.9-5.8-4.6-3.4-1.1-5.5 1.7-6.9 3.6-.5.6-.9 1.3-1.2 1.6-10.4 8-24.5 7.2-33.5-1.8l-38.6-37.9c-2-2-4-2.3-5.7-2.3h-2.9V37c0-1.1.3-1.8 1.3-2.8l20.2-22.8c3.7-3.7 6.9-5.9 12.2-5.3h29.7L92.9 41.4C82.1 55 81.8 74.1 92.2 88.9c6.2 8.4 15.6 13.6 25.8 14.4 10 .8 19.4-2.8 26.6-10L156.5 82l66.2 57.4c5.6 5 6.2 12.9 1.4 19.6z"/><path d="M237.3 31L213.8 5.5c-2.4-3.3-6.6-5.2-11.1-5.2h-41.3c-4.2 0-7.8 1.8-10.1 4.9l-23.7 23.1-23 23c-7.5 7.5-6.3 21.4-.2 29 4 4.7 9.4 7.5 15.3 7.7 6.2.3 12-2.1 16.7-6.8l34.8-34.8c1.5-1.9 4-2.2 5.9.2 1.5 1.5 1.6 4.5-.7 6.8l-8.8 8.8c-1.8 1.7-2.9 2.8-2.9 4.7s1.1 3 3 4.9l46.2 40.7 1.9 1.5c6.6 5.4 12.8 10.5 18.9 16.6l4.7 4.7V35.7c0-2.6-1.4-4-2.1-4.7zm-3.4 90.9c-4.8-4.3-9.5-8.2-14.5-12.3l-47.7-42-.7-.7 9.5-9.5c4.4-4.4 4.7-10.9.9-14.7-3.6-4.6-11.1-4.3-14.4-.2l-34.5 34.6c-3.5 3.6-8 5.4-12.4 5.2-4.3-.2-8.2-2.2-11.1-5.6-4.8-6.1-4.9-16.6-.2-21.3l23-23 24-23.4c1.5-2 3.3-2.9 5.8-2.9h41.3c2.7 0 5.1 1.1 6.7 3.1L233.4 35a3.04 3.04 0 0 1 .5.7v86.2zM44.4 31.5h-38C.8 31.5.1 35 .1 38.4v118.7c0 2.3.6 3.9 2 4.9.6.4 1.5.8 2.6.8.4 0 .9 0 1.4-.2h24.7c11.1 0 18.5-7.9 18.5-19.8V37.5c.3-1 .6-2.7-.5-4.2-1.3-1.8-3.6-1.8-4.4-1.8zm-1 111.3c0 8.7-4.9 14.1-12.7 14.1H5.8V37.2h37.6v105.6z"/><circle cx="25" cy="136.7" r="9.8"/><circle cx="273" cy="136.7" r="9.8"/><path d="M249.1 33.3c-1.1 1.5-.8 3.2-.5 4.2v105.3c0 11.9 7.4 19.8 18.5 19.8h24.7c.5.2 1 .2 1.4.2 1.1 0 2-.4 2.6-.8 1.4-1 2-2.6 2-4.9V38.4c0-3.4-.7-6.9-6.3-6.9h-38c-.8 0-3.1 0-4.4 1.8zm5.4 3.9h37.6v119.7h-24.9c-7.8 0-12.7-5.4-12.7-14.1V37.2z"/></svg>