<svg xmlns="http://www.w3.org/2000/svg" width="278" height="250"  fill="#3e4e50"><path d="M239.2 54.4V35.7c.1-19.4-15.6-35.2-35-35.3H35.3C16.2.6.4 16.4.2 35.7v24.7h239v-6zm-17.8-11.9H18.1v-6.8c.1-9.5 7.9-17.4 17.4-17.4h168.7c4.6 0 9 1.8 12.2 5.1 3.3 3.3 5 7.6 5 12.3v6.8z"/><circle cx="46" cy="30.5" r="5.3"/><circle transform="matrix(.38269 -.923877 .923877 .38269 13.245695 80.822064)" cx="67.103" cy="30.499" r="5.3"/><path d="M88.2 25.2a5.27 5.27 0 0 0-5.3 5.3 5.3 5.3 0 1 0 10.6 0c-.1-3-2.4-5.3-5.3-5.3zm17.1 128.6c-6.4 2.5-16.3 7.4-20.7 9.9l1.5 1.5c8.9 8.9 20.7 13.9 33.6 13.9 12.8 0 26.2-6.4 35.1-15.3-3.9-2.5-13.9-6.9-20.3-9.4-1.5-.5-3.5-1.5-5-2V145c2-1 5.4-3.9 6-11.4 1.5-1 2.5-2.9 2.5-5.4 0-2-.5-3.9-2-5 1-2.9 2.5-8.9 1.5-13.3-1.5-5.4-8.9-7.4-14.9-7.4-5.4 0-11.8 1.5-14.3 6-2.5-.5-3.9 1-5 2-2.5 3.5-1 9.4 0 12.8-1 1-2 2.5-2 5s1 4.4 2.5 5.4c.5 6.9 3.9 10.4 6 11.4v7.4l-4.5 1.3zm60.1 47.5l6.8-6.8H35.3c-4.5 0-8.9-1.9-12.2-5.1-3.3-3.3-5-7.6-4.9-12.3V86.7h203.1V146l10.9-10.8c-.8.8 6.7-6.8 7.1-6.7V69H.2v108.3c0 9.3 3.6 18.2 10.2 24.8 6.7 6.7 15.6 10.4 25 10.4h118.8l11.2-11.2zm69-53.5c-.8-.8-.8-.8-1.6 0l-65.1 65.1c-.8.8-.8.8.3 1.2.7.2 1.3.4 1.9.7 4.5 1.9 8.4 4.6 11.7 8.2 3.2 3.4 5.5 7.4 6.9 11.8.1.2.2.5.5.6.2-.2.4-.4.3-.4l65.3-65.3c.9-.8.9-.8 0-1.7l-20.2-20.2zm-64.7 74.1c-1.8-.9-3.7-1.8-5.8-2-.4-.1-.6.1-1 .6l-1.7 4.9-8 23.4c0 .2-.2.5 0 .7s.5 0 .8-.1l26.9-9.2c2.3-.8 2.3-.8 1.6-3.2-2-6.9-6.3-11.9-12.8-15.1zm106.1-82.5l-7.3-7.3-5.7-5.6c-1.5-1.5-3.2-2.1-5.4-1.6-1.6.4-2.9 1.2-4 2.3l-12.7 12.7c-.5.6-.6.9 0 1.5l20.5 20.5c.5.6.8.5 1.3 0l13-13c1.4-1.4 2.2-3.1 2.3-4.9 0-2-.7-3.4-2-4.6z"/></svg>