<svg xmlns="http://www.w3.org/2000/svg" width="320" height="206"  fill="#3e4e50"><path d="M225.7 8.1c-3.4-4.5-9.1-7.2-15.3-7.2h-41.3c-4.5 0-8.6 1.5-11.8 4.3l-5.1-2.6c-2.8-1.4-4.7-1.6-6.5-1.6H113c-9.8-.9-16.3 4.2-20.9 8.7l-20.3 23c-2.9 3-4.4 6.5-4.4 10.6v103c0 7.4 4.4 11.8 11.8 11.8.5 0 1 0 1.3-.1l37.5 36.9c13 13 33.5 14.1 48.5 2.5h0l.1.1c5 5 11.5 7.8 18.2 7.8h.2l.7.1.7-.1c7.4-.5 14.3-4.3 19.2-10.7l8.6-11.7c4.6 2.5 9.8 3.4 14.9 2.5 6.5-1.1 12.3-5 15.7-10.7.2-.4.5-.7.7-1l.3-.4c.2-.3.4-.6.6-.8.3-.5.6-.9.9-1.4 3.4-4.7 5-10.4 5.1-16.5h0V41.8c0-4.7-2.6-7.5-3.6-8.5L225.7 8.1zM213 18.7l23.1 25.1V116l-5.4-4.5-44-38.7 5.4-5.4c3.1-3.1 4.9-7 5.1-11.2s-1.2-8.1-4-11.1c-2.7-3.3-6.8-5.2-11.3-5.2h-.1c-4.4 0-8.6 1.8-11.2 5l-34.4 34.5c-2.3 2.4-5.3 3.7-8.2 3.5-2.7-.1-5.2-1.4-7.1-3.6-3.2-4.2-3-11.5-.6-13.9l23-23 24.6-24c.5-.6.6-.7 1.4-.7h41.3c.7 0 1.7.2 2.4 1zm17.6 147.4a6.41 6.41 0 0 1-4.1 2.6c-1.9.3-3.7-.2-5.4-1.5l-.2-.2c-1.7-1.2-5.3-3.8-10-2.9-4.1.8-6.4 3.7-7.3 4.9l-11.3 15.3c-1.9 2.5-4.4 4-7 4.2-2.9.2-5.2-1.3-6.6-2.7-.5-.6-1-1.1-1.5-1.6l-.2-.3c-2-2.1-4.4-4.7-7.8-5.7-7.1-2.3-11.4 3.4-12.9 5.5-.3.4-.6.7-.8 1-8.1 5.8-18.8 5.1-25.7-1.8L91.2 145c-2.5-2.5-5-3.4-7-3.7V43.9l20-22.6c3.2-3.1 4.8-3.9 7.6-3.6h17l15.9-.1-13.3 13-23 23c-9.7 9.7-8.1 27-.6 36.3l.1.1c5.1 6 11.9 9.4 19.2 9.6 7.6.4 15.1-2.6 20.9-8.4l18.9-18.9v.7c0 4.2 2.5 6.6 4.6 8.8l46.5 40.9 2.1 1.6c5.5 4.5 11.2 9.1 16.6 14.4-.5 25.4-6.1 27.4-6.1 27.4z"/><circle cx="289.9" cy="144.3" r="8.2"/><path d="M308.2 32h-38c-4.9 0-7.5 2.2-8.8 4.1-1.7 2.3-2.2 5.1-1.6 8.1v104.6c0 14.9 9.9 25.3 24 25.3h24c.9.2 1.7.2 2.1.2 2.5 0 4.5-.9 5.7-1.7l.1-.1c2.9-2 4.3-5.2 4.3-9.4V44.4c0-11.2-8.3-12.4-11.8-12.4zm-4.9 16.7v108.7h-19.4c-6 0-7.2-4.7-7.2-8.6V48.7h26.6z"/><circle cx="30.1" cy="144.3" r="8.2"/><path d="M49.8 32h-38C8.3 32 0 33.2 0 44.4v118.7c0 4.2 1.4 7.3 4.3 9.4l.1.1c1.2.8 3.1 1.7 5.7 1.7.4 0 1.2 0 2.1-.2h24c14.1 0 24-10.4 24-25.3V44.2c.7-3 .1-5.8-1.6-8.1-1.3-1.9-3.9-4.1-8.8-4.1zm-6.5 16.7v100.1c0 3.9-1.2 8.6-7.2 8.6H16.7V48.7h26.6z"/></svg>