<svg xmlns="http://www.w3.org/2000/svg" xmlns:xlink="http://www.w3.org/1999/xlink" width="300" height="266"><g fill="#3e4e50"><path d="M254.801 54.3H.5v-21C.7 15.4 15.4.7 33.2.5h189.1c18 .1 32.6 14.8 32.501 32.8v21zM222.2 7.1h-189c-14.3.2-26 12-26.2 26.3v14.4h241.201V33.4C248.3 18.9 236.6 7.2 222.2 7.1M.5 66.1v114.7c0 8.7 3.3 16.9 9.5 23.1 6.1 6.2 14.3 9.6 23.3 9.7h133.2l2.9-6.6H33c-7 0-13.5-2.8-18.4-7.7S7 187.8 7 180.9V72.7h241.2v53.7l6.6-6.2V66.1H.5z"/><use xlink:href="#B"/><path d="M108.6 157.9c-8.5 3.3-21.6 9.8-27.5 13.1l2 2c11.8 11.8 27.5 18.4 44.6 18.4 17 0 34.7-8.5 46.5-20.3-5.2-3.3-18.4-9.2-26.9-12.5-2-.7-4.6-2-6.6-2.6v-9.8c2.6-1.3 7.2-5.2 7.9-15.1 2-1.3 3.3-3.9 3.3-7.2 0-2.6-.7-5.2-2.6-6.6 1.3-3.9 3.3-11.8 2-17.7-2-7.2-11.8-9.8-19.7-9.8-7.2 0-15.7 2-19 7.9-3.3-.7-5.2 1.3-6.6 2.6-3.3 4.6-1.3 12.5 0 17-1.3 1.3-2.6 3.3-2.6 6.6s1.3 5.9 3.3 7.2c.7 9.2 5.2 13.8 7.9 15.1v9.8l-6 1.9z"/><use xlink:href="#B" x="23.6"/><use xlink:href="#B" x="47.2"/><path d="M167 265.4c-2 0-4.2-.9-5.6-2.3-2.1-2.1-2.6-5.1-1.4-8.6l.1-.2 19.6-46.4 37 37-46 19.4c-1.5 1.1-3 1.1-3.7 1.1zm-.9-8.7c-.3.9-.3 1.6-.1 1.8.1.1.6.3.9.4l.7-.4 37.5-15.8-23.3-23.3-15.7 37.3zm52.6-13.5L182 206.4l61.7-61.7 36.8 36.8-61.8 61.7zm-27.4-36.8l27.5 27.5 52.4-52.4-27.5-27.5-52.4 52.4zm90.4-26.2l-36.8-36.8 16.1-16.1c2.8-2.8 8.4-2.8 11.2 0l.1.1 24.9 26.2c1.5 1.5 2.4 3.5 2.4 5.5s-.9 4-2.4 5.6l-15.5 15.5zm-27.5-36.7l27.5 27.5 10.8-10.8c.2-.2.5-.6.5-1s-.3-.8-.5-1L267.6 132c-.3-.3-1.7-.2-1.9 0l-11.5 11.5z"/></g><defs ><path id="B" d="M45 25.8c-3.3 0-5.9 2.6-5.9 5.9s2.6 5.9 5.9 5.9 5.9-2.6 5.9-5.9-2.6-5.9-5.9-5.9z"/></defs></svg>