<svg xmlns="http://www.w3.org/2000/svg" xmlns:xlink="http://www.w3.org/1999/xlink" viewBox="0 0 790.7 389.8"><style><![CDATA[.M{fill:#e61e25}.N{fill:#d61f26}.O{fill:#faa31b}.P{fill:#d11f26}]]></style><path d="M188.2 237.1H72c-2.2 0-3.9-1.8-3.9-3.9V127.5h124V233c0 2.4-1.8 4.1-3.9 4.1z" class="M"/><path d="M184.3 210.7H79c-.5 0-1.1-.5-1.1-1.1v-2.3c0-.5.5-1.1 1.1-1.1h105.4c.5 0 1.1.5 1.1 1.1v2.3c-.1.6-.5 1.1-1.2 1.1zm0-14.6H79c-.5 0-1.1-.5-1.1-1.1v-2.3c0-.5.5-1.1 1.1-1.1h105.4c.5 0 1.1.5 1.1 1.1v2.3c-.1.5-.5 1.1-1.2 1.1zm0 29.3H79c-.5 0-1.1-.5-1.1-1.1V222c0-.5.5-1.1 1.1-1.1h105.4c.5 0 1.1.5 1.1 1.1v2.3c-.1.6-.5 1.1-1.2 1.1z" class="N"/><path d="M190.5 23.7H69.7c-1.4 0-2.4-1.1-2.4-2.4V2.4C67.3 1 68.4 0 69.7 0h120.7c1.4 0 2.4 1.1 2.4 2.4v18.8c.1 1.4-1 2.5-2.3 2.5z" class="M"/><path d="M70.4 23.7h119.4v3.4H70.4z" class="N"/><path d="M70.4 23.7h119.4v1.2H70.4z" class="M"/><path d="M95 18.4h92.3c.5 0 1.1-.5 1.1-1.1V3c0-.5-.5-1.1-1.1-1.1H95c-.5 0-1.1.5-1.1 1.1v14.1c0 .7.6 1.3 1.1 1.3z" class="N"/><path d="M185.2 13.7h-23.4c-.5 0-1-.4-1-1V4.1c0-.5.4-1 1-1h23.4c.5 0 1 .4 1 1v8.7c-.1.5-.5.9-1 .9zm-24.4 1.8h2.9v1.9h-2.9zm15 0h2.9v1.9h-2.9zm-7.5 0h2.9v1.9h-2.9zm14.8 0h2.9v1.9h-2.9z" class="O"/><path d="M190.5 50.7H69.7c-1.4 0-2.4-1.1-2.4-2.4V29.5c0-1.4 1.1-2.4 2.4-2.4h120.7c1.4 0 2.4 1.1 2.4 2.4v18.8c.1 1.3-1 2.4-2.3 2.4z" class="M"/><path d="M70.4 50.7h119.4v3.4H70.4z" class="N"/><path d="M70.4 50.7h119.4v1.2H70.4z" class="M"/><path d="M95 45.4h92.3c.5 0 1.1-.5 1.1-1.1V30c0-.5-.5-1.1-1.1-1.1H95c-.5 0-1.1.5-1.1 1.1v14.1c0 .8.6 1.3 1.1 1.3z" class="N"/><g class="O"><use xlink:href="#H"/><path d="M160.8 42.4h2.9v1.9h-2.9zm15 0h2.9v1.9h-2.9zm-7.5 0h2.9v1.9h-2.9zm14.8 0h2.9v1.9h-2.9z"/></g><path d="M190.5 77.6H69.7c-1.4 0-2.4-1.1-2.4-2.4V56.6c0-1.4 1.1-2.4 2.4-2.4h120.7c1.4 0 2.4 1.1 2.4 2.4v18.8c.1 1.1-1 2.2-2.3 2.2z" class="M"/><path d="M70.4 77.6h119.4V81H70.4z" class="N"/><path d="M70.4 77.6h119.4v1.2H70.4z" class="M"/><path d="M95 72.3h92.3c.5 0 1.1-.5 1.1-1.1V57.1c0-.5-.5-1.1-1.1-1.1H95c-.5 0-1.1.5-1.1 1.1v14.1c0 .7.6 1.1 1.1 1.1z" class="N"/><g class="O"><use xlink:href="#H" y="27"/><path d="M160.8 69.6h2.9v1.9h-2.9zm15 0h2.9v1.9h-2.9zm-7.5 0h2.9v1.9h-2.9zm14.8 0h2.9v1.9h-2.9z"/></g><path d="M190.5 104.7H69.7c-1.4 0-2.4-1.1-2.4-2.4V83.6c0-1.4 1.1-2.4 2.4-2.4h120.7c1.4 0 2.4 1.1 2.4 2.4v18.8c.1 1.2-1 2.3-2.3 2.3z" class="M"/><path d="M70.4 104.7h119.4v3.4H70.4z" class="N"/><path d="M70.4 104.7h119.4v1.2H70.4z" class="M"/><path d="M95 99.4h92.3c.5 0 1.1-.5 1.1-1.1V84.2c0-.5-.5-1.1-1.1-1.1H95c-.5 0-1.1.5-1.1 1.1v14.1c0 .7.6 1.1 1.1 1.1z" class="N"/><path d="M185.2 94.9h-23.4c-.5 0-1-.4-1-1v-8.7c0-.5.4-1 1-1h23.4c.5 0 1 .4 1 1V94c-.1.5-.5.9-1 .9zm-24.4 1.6h2.9v1.9h-2.9zm15 0h2.9v1.9h-2.9zm-7.5 0h2.9v1.9h-2.9zm14.8 0h2.9v1.9h-2.9z" class="O"/><path d="M70.4 131.8h119.4v1.2H70.4z" class="N"/><path d="M190.5 131.8H69.7c-1.4 0-2.4-1.1-2.4-2.4v-18.8c0-1.4 1.1-2.4 2.4-2.4h120.7c1.4 0 2.4 1.1 2.4 2.4v18.8c.1 1.3-1 2.4-2.3 2.4z" class="M"/><path d="M95 126.4h92.3c.5 0 1.1-.5 1.1-1.1V111c0-.5-.5-1.1-1.1-1.1H95c-.5 0-1.1.5-1.1 1.1v14.1c0 .8.6 1.3 1.1 1.3z" class="N"/><g class="O"><use xlink:href="#H" y="81.2"/><path d="M160.8 123.6h2.9v1.9h-2.9zm15 0h2.9v1.9h-2.9zm-7.5 0h2.9v1.9h-2.9zm14.8 0h2.9v1.9h-2.9z"/><use xlink:href="#I"/></g><path d="M147.8 157.4h-35.5a.68.68 0 0 1-.7-.7v-1.9a.68.68 0 0 1 .7-.7h35.6a.68.68 0 0 1 .7.7v1.9c0 .3-.4.7-.8.7z" class="M"/><use xlink:href="#I" y="17" class="O"/><path d="M147.8 174.6h-35.5a.68.68 0 0 1-.7-.7V172a.68.68 0 0 1 .7-.7h35.6a.68.68 0 0 1 .7.7v1.9c0 .3-.4.7-.8.7z" class="M"/><path d="M246.5 11h0c0-2.2 1.8-3.8 3.9-3.9h0c-2.2 0-3.8-1.8-3.8-3.9h0c0 2.2-1.8 3.8-3.8 3.8h0c2.1.1 3.7 1.8 3.7 4zm.1 2.5h0a6.81 6.81 0 0 1-6.8 6.8h0a6.81 6.81 0 0 1 6.8 6.8h0a6.81 6.81 0 0 1 6.8-6.8h0c-3.8 0-6.8-3.2-6.8-6.8zm-2.8-1.7C237.3 11.8 232 6.5 232 0h0c0 6.5-5.3 11.7-11.8 11.8h0c6.5 0 11.8 5.3 11.8 11.8h0c.1-6.5 5.4-11.6 11.8-11.8h0z" class="O"/><path d="M31.3 19.4h0c-10.1 0-18.4 8.2-18.4 18.4v17.9c0 3.1 2.2 5.7 5.2 6.3.7.1 1.5 0 2-.4l3.1-2.3c1.2-1 2.9-1 4.1-.1l2.4 1.6c1.2.8 2.7.8 3.8 0l2.2-1.6c1.4-1 3.1-.8 4.4.3l1.4 1.4c1.1 1.1 2.7 1.4 4.1.7 2.2-1.1 3.7-3.3 3.7-5.8v-18c.2-10.1-8-18.4-18-18.4zm-5.1 19.5a3.33 3.33 0 0 1-3.3 3.3 3.33 3.33 0 0 1-3.3-3.3v-3.7a3.33 3.33 0 0 1 3.3-3.3 3.33 3.33 0 0 1 3.3 3.3v3.7zm16.5 0a3.33 3.33 0 0 1-3.3 3.3 3.33 3.33 0 0 1-3.3-3.3v-3.7a3.33 3.33 0 0 1 3.3-3.3 3.33 3.33 0 0 1 3.3 3.3v3.7z" class="P"/><linearGradient id="A" gradientUnits="userSpaceOnUse" x1="297.983" y1="66.427" x2="296.242" y2="22.913"><stop offset="0" stop-color="#faa51a"/><stop offset=".987" stop-color="#ffd900"/></linearGradient><path d="M343.4 28.4c-2.4-3.1-5.7-5.6-9.4-7.1h0C332.3 13.6 325.3 8 317.2 8c-2.4 0-4.9.5-7.2 1.5h0c-2-2.6-4.5-4.8-7.3-6.3-3.8-2.2-8-3.3-12.4-3.3-6.3.1-12.3 2.4-16.9 6.6-3.9 3.7-6.7 8.3-7.6 13.6h0c-11 1-19.6 10.1-19.7 21.2-.1 12 9.8 21.6 21.8 21.6h58.2c11.8 0 21.6-9.5 21.8-21.3-.1-4.8-1.6-9.4-4.5-13.2z" fill="url(#A)"/><path d="M423.9 52.9l-3.5-2 .3-3c0-1-.1-2-.3-3l3.5-2c.7-.4 1-1.2.5-1.9l-5.6-9.5c-.1-.3-.5-.5-.8-.7-.4-.1-.7 0-1.1.1l-3.4 2c-1.5-1.4-3.1-2.3-5.2-3.1v-4.1c0-.8-.7-1.4-1.4-1.4h-11c-.8 0-1.4.7-1.4 1.4v4.1c-1.9.7-3.7 1.6-5.4 3.1l-3.5-2c-.7-.4-1.5-.1-1.9.5l-5.6 9.5c-.1.3-.3.7-.1 1.1.1.4.3.7.7.8l3.5 2c-.1 1.1-.3 2-.3 3s.1 2 .3 3l-3.5 2c-.7.4-1 1.2-.5 1.9l5.6 9.5c.4.7 1.2 1 1.9.5l3.7-2c1.8 1.5 3.4 2.4 5.4 3.1V70c0 .8.7 1.4 1.4 1.4h11c.8 0 1.4-.7 1.4-1.4v-4.1c2-.7 3.7-1.8 5.2-3.1l3.4 2c.3.1.7.3 1.1.1.4-.1.7-.3.8-.7l5.6-9.5c0-.6-.1-1.4-.8-1.8zm-22.7 4.6c-5.3 0-9.7-4.4-9.7-9.7s4.4-9.7 9.7-9.7 9.7 4.4 9.7 9.7-4.2 9.7-9.7 9.7zm41.6-36.2l-1.9-1.1c.1-.5.1-1 .1-1.5s0-1-.1-1.5l1.9-1.1c.7-.4 1-1.2.5-1.9l-2.7-4.8c-.1-.3-.5-.5-.8-.7-.4-.1-.7 0-1.1.1l-1.9 1.1c-.8-.7-1.6-1.1-2.6-1.5v-2c0-.8-.7-1.4-1.4-1.4h-5.6c-.8 0-1.4.7-1.4 1.4v2.2c-1 .4-1.9 1-2.7 1.5L421.3 9c-.7-.4-1.5-.1-1.9.5l-2.9 4.8c-.1.3-.3.7-.1 1.1.1.4.3.7.7.8l1.9 1.1c-.1.5-.1 1.1-.1 1.5 0 .5 0 1 .1 1.5l-1.9 1.1c-.3.1-.5.5-.7.8-.1.4 0 .7.1 1.1l2.7 4.8c.4.7 1.2 1 1.9.5l2-1.1c.8.5 1.8 1.1 2.7 1.5v2.2c0 .8.7 1.4 1.4 1.4h5.6c.8 0 1.4-.7 1.4-1.4V29c1-.4 1.8-1 2.6-1.5l1.9 1.1c.3.1.7.3 1.1.1.4-.1.7-.3.8-.7l2.7-4.8c.3-.6.2-1.4-.5-1.9zm-12.9 3c-3 0-5.6-2.4-5.6-5.6s2.4-5.6 5.6-5.6c3 0 5.6 2.4 5.6 5.6s-2.5 5.6-5.6 5.6z" class="P"/><path d="M438.6 237.1h-74.8a10.93 10.93 0 0 1-10.9-10.9V71.5a10.93 10.93 0 0 1 10.9-10.9h74.8a10.93 10.93 0 0 1 10.9 10.9v154.7c0 6-4.8 10.9-10.9 10.9z" class="M"/><linearGradient id="B" gradientUnits="userSpaceOnUse" x1="400.778" y1="50.971" x2="401.383" y2="276.126"><stop offset=".001" stop-color="#faa51a"/><stop offset=".987" stop-color="#ffd900"/></linearGradient><path d="M364.5 65c-4.8 0-8.6 3.8-8.6 8.6v150.7c0 4.8 3.8 8.6 8.6 8.6h73.4c4.8 0 8.6-3.8 8.6-8.6v-20.7L365.2 64.9h-.7v.1z" fill="url(#B)"/><linearGradient id="C" gradientUnits="userSpaceOnUse" x1="365.185" y1="134.335" x2="446.493" y2="134.335"><stop offset=".001" stop-color="#faa51a"/><stop offset=".987" stop-color="#ffd900"/></linearGradient><path d="M437.9 65h-72.8l81.3 138.7V73.6c.1-4.8-3.7-8.6-8.5-8.6z" fill="url(#C)"/><path d="M409.4 63.9h-16c-.4 0-.8-.4-.8-.8h0c0-.4.4-.8.8-.8h16c.4 0 .8.4.8.8h0c0 .4-.4.8-.8.8zm3.8-.8c0 .4-.4.8-.8.8s-.8-.4-.8-.8.4-.8.8-.8.8.2.8.8z" class="O"/><g class="P"><path d="M401.2 132.2c-9.2 0-16.7 7.5-16.7 16.7 0 4.5 1.8 8.6 4.9 11.7h0c3.1 3.3 7.3 4.9 11.8 4.9s8.7-1.8 12-5c3.1-3.1 4.8-7.3 4.8-11.7a16.73 16.73 0 0 0-16.8-16.6zm11.3 27c-1.5-.8-3.7-1.6-6-2.6-.5-.3-1.2-.4-1.8-.7v-2.6c.7-.4 1.9-1.5 2-4.1.5-.3.8-1 .8-1.9 0-.8-.3-1.5-.7-1.8.3-1.1 1-3 .5-4.6-.5-1.9-3.1-2.6-5.2-2.6-1.9 0-4.2.5-5 2-1 0-1.5.4-1.8.7-1 1.2-.3 3.3 0 4.5-.4.4-.7 1-.7 1.8 0 1 .3 1.6.8 1.9.1 2.6 1.4 3.7 2 4.1v2.6c-.5.1-1.1.4-1.6.5-2.3.8-4.6 1.6-6.1 2.6-2.6-2.9-4.1-6.5-4.1-10.3 0-8.4 6.9-15.4 15.4-15.4 8.4 0 15.4 6.9 15.4 15.4.2 4.1-1.3 7.7-3.9 10.5zm-280.7-48.4h0c-1.5-1.6-3.8-2.6-6-2.8-32.9-1-51-13.4-53.1-14.8-.9-.8-1.9-1.4-3-1.8-.9-.4-1.9-.5-2.9-.5V96c.4 0 .8 0 1.1.1.5.1 1 .5 1.3.9.9.6 20.2 14.9 56.2 16.1.9 0 1.8.4 2.3 1 .6.6.9 1.5.9 2.4-1.8 26-6.3 47.3-14 65.1-10.2 23.2-25.7 39.9-46.3 49.9-.5.3-.9.4-1.4.4h0v5.1c1.3 0 2.5-.3 3.6-.9 21.7-10.5 38.1-28.1 48.7-52.4 8-18.3 12.8-40.1 14.5-66.7.4-2.1-.4-4.4-1.9-6.2z"/><path d="M65.6 231.6c-20.6-9.9-36-26.7-46.2-49.8C11.7 164 7 142.7 5.3 116.7c0-.9.3-1.8.9-2.4s1.4-1 2.3-1c36.1-1.1 55.4-15.4 56.2-16.1.6-.6 1.5-1 2.4-1v-5.1c-2.1 0-4.1.8-5.8 2.3-2.1 1.5-20.2 13.8-53.1 14.8-2.3.1-4.4 1.1-6 2.8-1.5 1.6-2.3 3.9-2.1 6.3 1.8 26.6 6.5 48.4 14.5 66.7 10.5 24.3 27 41.9 48.5 52.4 1.1.6 2.5.9 3.8.9v-5.1c-.4-.2-.9-.3-1.3-.6z"/></g><g class="M"><path d="M67 102.6h0c1 1.3 21.1 15.2 55.6 16.3C120 159 108.7 205.4 67 225.6h0v6.4c.5 0 1-.1 1.4-.4 20.6-9.9 36.1-26.7 46.3-49.9 7.8-17.8 12.4-39 14-65.1 0-.9-.3-1.8-.9-2.4s-1.4-1-2.3-1c-36-1.1-55.4-15.4-56.2-16.1-.4-.4-.8-.6-1.3-.9-.4-.1-.8-.1-1.1-.1v6.5h.1z"/><path d="M8.4 113.2c-.9 0-1.8.4-2.3 1-.6.6-.9 1.5-.9 2.4 1.8 26 6.3 47.3 14 65.1 10 23.1 25.6 39.9 46.2 49.8.5.3 1 .4 1.5.4v-6.4C25.3 205.4 14 158.9 11.3 118.9c34.4-1.1 54.4-14.9 55.6-16.3v-6.4c-.9 0-1.8.4-2.4 1s-20 14.9-56.1 16z"/></g><linearGradient id="D" gradientUnits="userSpaceOnUse" x1="11.427" y1="164.08" x2="122.672" y2="164.08"><stop offset="0" stop-color="#faa51a"/><stop offset=".987" stop-color="#ffd900"/></linearGradient><path d="M67 102.6h0c-1.3 1.4-21.2 15.2-55.6 16.3C14.1 159 25.3 205.4 67 225.6h0c41.8-20.2 53.1-66.7 55.7-106.7-34.5-1.2-54.6-15.1-55.7-16.3z" fill="url(#D)"/><path d="M40.4 150l14.7 28.1c.3.4.8.5 1.1.3l45.3-38c.8-.6-.1-1.6-.9-1.3l-41.1 24.1c-.3.1-.6.1-.9-.1l-17.1-13.9c-.6-.6-1.5 0-1.1.8z" class="P"/><path d="M316.4 232.8l-.5-.5-7.9-5h-71l-7.9 5c-.3.1-.4.3-.5.5-1.4 1.6-.3 4.5 2 4.5h83.8c2.4-.2 3.5-2.9 2-4.5zm57.5-148.4a6.06 6.06 0 0 0-6.1-6.1H176.9a6.06 6.06 0 0 0-6.1 6.1v110.3h203.1V84.4z" class="M"/><linearGradient id="E" gradientUnits="userSpaceOnUse" x1="263.663" y1="219.221" x2="254.427" y2="73.069"><stop offset=".001" stop-color="#faa51a"/><stop offset=".987" stop-color="#ffd900"/></linearGradient><path d="M179.3 85.7v109.1h165.6L261 85.7z" fill="url(#E)"/><linearGradient id="F" gradientUnits="userSpaceOnUse" x1="376.89" y1="112.686" x2="275.962" y2="156.396"><stop offset=".001" stop-color="#faa51a"/><stop offset=".987" stop-color="#ffd900"/></linearGradient><path d="M365.5 85.7H261l83.9 109.1h20.6z" fill="url(#F)"/><path d="M252.1 216.2h40.7v11h-40.7z" class="M"/><path d="M252.1 216.2h40.7v2.3h-40.7zm-21.7 17.5h83.8c1 0 1.6-.4 2-1l-.5-.5-7.9-5h-71l-7.9 5c-.3.1-.4.3-.5.5.4.6 1.1 1 2 1z" class="P"/><path d="M176.9 216.2h191a6.06 6.06 0 0 0 6.1-6.1v-15.4H170.9v15.4c0 3.4 2.7 6.1 6 6.1z" class="M"/><path d="M255.3 141.5h34.3v6.5h-34.3zm57.5-22.1h0c0-5.2-4.4-9.5-9.7-9.5h-61.7c-5.3 0-9.7 4.2-9.7 9.5v5.7h81l.1-5.7zm-67.4 1.7c-1.1 0-1.9-.8-1.9-1.9s.8-1.9 1.9-1.9 1.9.8 1.9 1.9-.8 1.9-1.9 1.9zm7.7 0c-1.1 0-1.9-.8-1.9-1.9s.8-1.9 1.9-1.9 1.9.8 1.9 1.9c.1 1.1-.9 1.9-1.9 1.9zm7.7 0c-1.1 0-1.9-.8-1.9-1.9s.8-1.9 1.9-1.9 1.9.8 1.9 1.9-.8 1.9-1.9 1.9zm-28.9 32.8v10.9c0 5.2 4.4 9.5 9.7 9.5h61.7c5.3 0 9.7-4.2 9.7-9.5v-36.1h-81l-.1 25.2zm22.1-12.4c0-.7.7-1.4 1.2-1.4h34.3c.7 0 1.4.7 1.4 1.4v6.5c0 .7-.7 1.4-1.2 1.4h-34.3c-.7 0-1.4-.7-1.4-1.4v-6.5zm-.2 13.5c0-.7.7-1.4 1.2-1.4h34.3c.7 0 1.4.7 1.4 1.4v6.5c0 .7-.7 1.4-1.2 1.4h-34.3c-.7 0-1.4-.7-1.4-1.4V155zm35.8 0h-34.3v6.5h34.3V155zm-27.6 3.5h-1.2l.5 1.1-.7.4-.5-1.1-.5 1.1-.7-.4.5-1.1h-1.2v-.7h1.2l-.5-1.1.7-.4.5 1.1.5-1.1.7.4-.5 1.1h1.2v.7zm6.1 0h-1.2l.5 1.1-.7.4-.5-1.1-.5 1.1-.7-.4.5-1.1h-1.2v-.7h1.2l-.5-1.1.7-.4.5 1.1.5-1.1.7.4-.5 1.1h1.2v.7zm6.1 0H273l.5 1.1-.7.4-.5-1.1-.5 1.1-.7-.4.5-1.1h-1.2v-.7h1.2l-.5-1.1.7-.4.5 1.1.5-1.1.7.4-.5 1.1h1.2v.7zm6.1 0h-1.2l.5 1.1-.6.4-.5-1.1-.5 1.1-.7-.4.5-1.1h-1.2v-.7h1.2l-.5-1.1.7-.4.5 1.1.5-1.1.7.4-.5 1.1h1.2v.7zm6.2 0h-1.2l.5 1.1-.7.4-.5-1.1-.6 1.1-.7-.4.5-1.1h-1.2v-.7h1.2l-.5-1.1.7-.4.5 1.1.5-1.1.7.4-.5 1.1h1.2v.7z" class="P"/><g fill="#414e50"><path d="M93.6 376.4V388H45.4v-62.3h47.1v11.6H59.7v13.5h28.9V362H59.7v14.4h33.9zm58.9-54.5v66h-13.3v-5.5c-3.5 4.2-8.5 6.2-15 6.2-13.5 0-23.9-9.6-23.9-24.7s10.4-24.7 23.9-24.7c5.9 0 10.9 1.9 14.3 5.8v-23.2h14zM138.9 364c0-8.3-5.3-13.3-12.2-13.3s-12.3 5-12.3 13.3 5.3 13.3 12.3 13.3c6.8 0 12.2-5 12.2-13.3z"/><use xlink:href="#J"/><path d="M223 385.6c-2.8 2-7 3-11.3 3-11.3 0-17.9-5.8-17.9-17.2v-19.7h-7.4V341h7.4v-11.7h13.9V341h11.9v10.7h-11.9v19.5c0 4.1 2.2 6.3 6 6.3 2 0 4.1-.6 5.6-1.8l3.7 9.9z"/><use xlink:href="#J" x="65.5"/><use xlink:href="#K"/><path d="M364.9 360.5v27.4H351v-25.3c0-7.7-3.6-11.3-9.7-11.3-6.7 0-11.5 4.1-11.5 12.9v23.7h-13.9V340h13.3v5.6c3.7-4.1 9.3-6.3 15.8-6.3 11.3.1 19.9 6.6 19.9 21.2zm7.9 23l4.6-10c4.3 2.8 10.8 4.6 16.6 4.6 6.4 0 8.8-1.7 8.8-4.4 0-7.8-28.9.2-28.9-19 0-9.1 8.2-15.5 22.2-15.5 6.6 0 13.9 1.5 18.4 4.2l-4.6 9.9c-4.7-2.7-9.4-3.6-13.8-3.6-6.2 0-8.9 2-8.9 4.5 0 8.2 28.9.3 28.9 19.1 0 8.9-8.3 15.2-22.6 15.2-8.1.2-16.3-2.1-20.7-5zm118.5-21.3h-15.5v15.1h-11.5v-15.1H449v-10.9h15.4v-15.1h11.5v15.1h15.5v10.9zm34.1-5.4c0-18.8 14.4-32.2 33.8-32.2 10.8 0 19.8 3.9 25.6 11l-9.3 8.5c-4.2-4.8-9.4-7.3-15.7-7.3-11.7 0-19.9 8.2-19.9 19.9s8.3 19.9 19.9 19.9c6.2 0 11.5-2.5 15.7-7.4l9.3 8.5C579 385.1 570 389 559.1 389c-19.3 0-33.7-13.4-33.7-32.2zm68.2-34.9h13.9v66h-13.9v-66z"/><use xlink:href="#K" x="362.7"/><path d="M726.9 340.1V388h-13.2v-5.7c-3.6 4.2-9 6.4-14.9 6.4-12 0-20.5-6.8-20.5-21.5v-27.1h13.9v25c0 8 3.6 11.6 9.7 11.6 6.4 0 11-4.1 11-12.9v-23.7h14zm61.7-18.2v66h-13.3v-5.5c-3.5 4.2-8.5 6.2-15 6.2-13.5 0-23.9-9.6-23.9-24.7s10.4-24.7 23.9-24.7c5.9 0 10.9 1.9 14.3 5.8v-23.2h14zM775 364c0-8.3-5.3-13.3-12.2-13.3s-12.3 5-12.3 13.3 5.3 13.3 12.3 13.3c6.8 0 12.2-5 12.2-13.3zM45.3 277.7H64v4.7H50.5v7.6h12.8v4.7H50.5v12h-5.1l-.1-29zm38.3 28.9H79v-3.1h-.1c-.5 1-1.2 1.9-2.1 2.6-1.1.8-2.5 1.2-3.9 1.1-1.1 0-2.3-.2-3.3-.6-.9-.4-1.6-1-2.2-1.7s-1-1.6-1.2-2.5-.4-1.9-.4-2.9V287h4.9v9.9c0 .5 0 1.2.1 1.8s.2 1.3.4 1.9.6 1.1 1.1 1.5c.6.4 1.3.6 2 .6s1.4-.1 2.1-.4c.5-.3 1-.6 1.4-1.1s.6-1 .8-1.6.2-1.2.2-1.9V287h4.9l-.1 19.6zm15.2-14.2c-.9-1.3-2.3-2-3.8-2-.7 0-1.3.2-1.9.5s-1 .9-.9 1.6c0 .6.3 1.1.8 1.3.6.3 1.3.5 1.9.7l2.6.6c.9.2 1.8.5 2.6.9s1.4 1 1.9 1.7c.6.9.8 2 .8 3s-.2 2.1-.8 3c-.5.8-1.2 1.5-1.9 1.9a9.04 9.04 0 0 1-2.7 1.1c-1 .2-2 .3-3 .3-1.4 0-2.9-.2-4.2-.6-1.3-.5-2.5-1.3-3.4-2.4l3.2-3.1c.6.7 1.3 1.3 2 1.7.8.5 1.7.7 2.6.6.4 0 .7 0 1.1-.1s.7-.2 1.1-.4c.3-.2.6-.4.8-.7a1.69 1.69 0 0 0 .3-1c0-.6-.3-1.2-.8-1.5-.6-.4-1.3-.6-1.9-.8l-2.6-.6c-.9-.2-1.7-.5-2.6-.9-.8-.4-1.4-1-1.9-1.7-.6-.9-.8-1.9-.8-2.9s.2-2 .6-2.8 1-1.5 1.8-2 1.6-.9 2.5-1.1 1.9-.4 2.9-.4a13.2 13.2 0 0 1 3.9.6c1.3.4 2.3 1.2 3.1 2.3l-3.3 3.2zm6-12.1c0-.8.3-1.5.9-2.1s1.4-.9 2.2-.9 1.7.3 2.3.9c1.2 1.1 1.2 2.9.2 4l-.2.2c-.6.6-1.4.9-2.3.8-.8 0-1.6-.3-2.2-.9-.6-.4-.9-1.2-.9-2zm.7 6.7h4.9v19.6h-4.9V287zm7.7 9.8a9.9 9.9 0 0 1 .9-4.2c1.1-2.5 3.1-4.4 5.7-5.3 2.7-1 5.7-1 8.3 0 2.5.9 4.6 2.8 5.7 5.3 1.1 2.7 1.1 5.7 0 8.4-1.1 2.5-3.1 4.4-5.7 5.3-2.7 1-5.7 1-8.3 0-2.5-.9-4.6-2.8-5.7-5.3-.7-1.3-1-2.8-.9-4.2zm4.9 0c0 .8.1 1.5.4 2.2.2.7.6 1.3 1.1 1.9a5.83 5.83 0 0 0 8.2.2l.2-.2c.5-.5.9-1.2 1.1-1.9a6.64 6.64 0 0 0 0-4.4c-.2-.7-.6-1.3-1.1-1.9a5.83 5.83 0 0 0-8.2-.2l-.2.2c-.5.5-.9 1.2-1.1 1.9-.3.7-.4 1.4-.4 2.2zm19-9.8h4.7v3.1h.1c.5-1 1.2-1.9 2.1-2.6 1.1-.8 2.5-1.2 3.9-1.1 1.1 0 2.3.2 3.3.6.9.4 1.6 1 2.2 1.7s1 1.6 1.2 2.5.4 1.9.4 2.9v12.4h-4.9v-9.9c0-.5 0-1.2-.1-1.8 0-.6-.2-1.3-.4-1.9s-.6-1.1-1.1-1.5c-.6-.4-1.3-.6-2-.6s-1.4.1-2.1.4c-.5.3-1 .6-1.4 1.1s-.6 1-.8 1.6-.2 1.2-.2 1.9v10.7h-4.9V287z"/></g><path d="M169.5 277.7h4.5l12.5 28.9h-5.9l-2.7-6.6h-12.5l-2.6 6.6H157l12.5-28.9zm6.6 17.9l-4.5-11.8-4.5 11.8h9zm29 11h-4.7v-3.1h-.1c-.5 1-1.2 1.9-2.1 2.6-1.1.8-2.5 1.2-3.9 1.1-1.1 0-2.3-.2-3.3-.6-.9-.4-1.6-1-2.2-1.7s-1-1.6-1.2-2.5-.4-1.9-.4-2.9V287h4.9v9.9c0 .5 0 1.2.1 1.8 0 .6.2 1.3.4 1.9s.6 1.1 1.1 1.5c.6.4 1.3.6 2 .6s1.4-.1 2.1-.4c.5-.3 1-.6 1.4-1.1s.6-1 .8-1.6.2-1.2.2-1.9V287h4.9v19.6zm1.7-15.5V287h4v-5.7h4.9v5.7h5.4v4.2h-5.4v8.6c0 .8.1 1.6.5 2.3.4.6 1.1.9 2.2.9.5 0 1-.1 1.4-.1.4-.1.9-.2 1.2-.5v4.1c-.6.3-1.2.4-1.9.5s-1.3.1-2 .1c-1.1 0-2.2-.1-3.2-.4-.8-.2-1.4-.7-1.9-1.3s-.8-1.4-1-2.2c-.2-1-.3-2-.3-3v-9h-3.9zm21.5-1.4h0c.5-.9 1.2-1.7 2.1-2.2 1.1-.7 2.4-1.1 3.7-1 1.1 0 2.3.2 3.3.6.9.4 1.6 1 2.2 1.7s1 1.6 1.2 2.5.4 1.9.4 2.9v12.4h-4.9v-9.9c0-.5 0-1.2-.1-1.8s-.2-1.3-.4-1.9-.6-1.1-1.1-1.5c-.6-.4-1.3-.6-2-.6s-1.4.1-2.1.4c-.5.3-1 .6-1.4 1.1s-.6 1-.8 1.6-.2 1.2-.2 1.9v10.7h-4.9v-30.9h4.9v14z" fill="#e6873c"/><defs ><path id="H" d="M185.2 40.8h-23.4c-.5 0-1-.4-1-1v-8.7c0-.5.4-1 1-1h23.4c.5 0 1 .4 1 1v8.7c-.1.6-.5 1-1 1z"/><path id="I" d="M151 160.4h-41.9a2.22 2.22 0 0 1-2.2-2.2v-4.6a2.22 2.22 0 0 1 2.2-2.2h41.7a2.22 2.22 0 0 1 2.2 2.2v4.6c.2 1.3-.7 2.2-2 2.2z"/><path id="J" d="M163.6 325.6c0-4.4 3.5-7.7 8.6-7.7s8.6 3.2 8.6 7.5c0 4.6-3.5 8-8.6 8s-8.6-3.4-8.6-7.8zm1.7 14.5h13.9V388h-13.9v-47.9z"/><path id="K" d="M254.1 364c0-14.4 11.1-24.7 26.3-24.7s26.3 10.2 26.3 24.7-11 24.7-26.3 24.7-26.3-10.3-26.3-24.7zm38.5 0c0-8.3-5.3-13.3-12.2-13.3s-12.3 5-12.3 13.3 5.3 13.3 12.3 13.3 12.2-5 12.2-13.3z"/></defs></svg>