<svg xmlns="http://www.w3.org/2000/svg" xmlns:xlink="http://www.w3.org/1999/xlink" viewBox="0 0 484.8 391.8"><path d="M95,9.1c0-5,4.1-9.1,9.1-9.1h285c5,0,9.1,4.1,9.1,9.1v164.5H95.1L95,9.1z" fill="#005a8b"/><linearGradient id="A" gradientUnits="userSpaceOnUse" x1="259.654" y1="210.199" x2="273.449" y2="-7.926"><stop offset=".001" stop-color="#00bbcd"/><stop offset=".987" stop-color="#4fc5d6"/></linearGradient><path d="M385.5 10.8v163.1H138.4L263.6 10.8z" fill="url(#A)"/><linearGradient id="B" gradientUnits="userSpaceOnUse" x1="90.613" y1="51.186" x2="241.24" y2="116.428"><stop offset=".001" stop-color="#00bbcd"/><stop offset=".987" stop-color="#4fc5d6"/></linearGradient><path d="M107.7 10.8h155.9L138.4 173.9h-30.7z" fill="url(#B)"/><g fill="#005a8b"><path d="M389.1 205.6h-285c-5 0-9.1-4.1-9.1-9.1v-22.9h303.1v22.9c0 5-4 9.1-9 9.1z"/><path d="M58.7 219c.7-.8 1.6-1.6 2.6-2.2L95 195.2h303l33.7 21.6c1 .7 1.9 1.4 2.6 2.2 6.1 7 1.4 18.9-8.9 18.9H67.6c-10.3 0-15-11.9-8.9-18.9z"/></g><path d="M425.5 223.1H67.7c-3.8 0-6.9-1.6-8.9-4.1.7-.8 1.6-1.6 2.6-2.2L95 195.2h303l33.7 21.6c1 .7 1.9 1.4 2.6 2.2-1.9 2.5-5 4.1-8.8 4.1z" fill="#094976"/><g fill="#084976"><path d="M2.1 112.5h0c1.5-1.7 3.6-2.6 5.9-2.7 32.3-1 50.2-13.2 52.1-14.6.8-.8 1.8-1.4 2.9-1.8.9-.3 1.9-.5 2.8-.5V98c-.4 0-.7 0-1.1.2-.5.2-.9.5-1.3.8-.8.6-19.8 14.7-55.3 15.8-.9 0-1.7.4-2.3 1s-.9 1.5-.8 2.4c1.7 25.6 6.2 46.5 13.9 64 9.9 22.8 25.2 39.3 45.5 49.1.4.2.9.3 1.4.3h0v5.1c-1.2 0-2.5-.3-3.6-.8-21.4-10.3-37.5-27.7-47.9-51.6C6.4 166.2 1.7 144.7 0 118.6c-.1-2.3.6-4.5 2.1-6.1z"/><path d="M67.3 231.3c20.2-9.8 35.5-26.3 45.4-49 7.6-17.5 12.2-38.4 13.9-64 .1-.9-.2-1.7-.8-2.4-.6-.6-1.4-1-2.3-1C88 113.7 68.9 99.6 68.2 99c-.6-.7-1.5-1-2.3-1v-5.1a8.21 8.21 0 0 1 5.6 2.2c2 1.5 19.9 13.6 52.1 14.6a8.79 8.79 0 0 1 5.9 2.7c1.5 1.7 2.3 3.9 2.1 6.1-1.7 26.2-6.4 47.6-14.3 65.7-10.4 23.9-26.5 41.2-47.8 51.6-1.1.6-2.4.9-3.7.9v-5.1c.6 0 1-.1 1.5-.3z"/></g><g fill="#005a8b"><path d="M65.8 104.3h0c-1 1.3-20.7 14.9-54.7 16 2.6 39.4 13.7 85.2 54.7 105h0v6.3c-.5 0-.9-.1-1.4-.3-20.2-9.8-35.5-26.3-45.4-49.1-7.6-17.5-12.2-38.4-13.9-64-.1-.9.2-1.7.8-2.4.6-.6 1.4-1 2.3-1 35.5-1.1 54.5-15.2 55.3-15.8.3-.4.8-.7 1.3-.8.4-.1.7-.2 1.1-.2l-.1 6.3z"/><path d="M123.5 114.8c.9 0 1.7.4 2.3 1s.9 1.5.8 2.4c-1.7 25.6-6.2 46.5-13.9 64-9.9 22.8-25.2 39.3-45.4 49-.5.2-.9.3-1.4.4v-6.3c41.1-19.9 52.1-65.6 54.7-105-33.9-1.1-53.5-14.6-54.7-16V98c.9 0 1.7.4 2.3 1 .7.6 19.8 14.7 55.3 15.8z"/></g><linearGradient id="C" gradientUnits="userSpaceOnUse" x1="120.5" y1="164.8" x2="11.1" y2="164.8"><stop offset="0" stop-color="#00bbcd"/><stop offset=".987" stop-color="#4fc5d6"/></linearGradient><path d="M65.8 104.3h0c1.2 1.4 20.9 14.9 54.7 16-2.6 39.4-13.6 85.1-54.7 105h0c-41.1-19.9-52.1-65.6-54.7-105 34-1.1 53.7-14.7 54.7-16z" fill="url(#C)"/><path d="M84.3 148h-2v-5.9c0-9.1-7.4-16.4-16.4-16.4-9.1 0-16.4 7.4-16.4 16.4v5.9h-2a4.48 4.48 0 0 0-4.5 4.5v31.9a4.48 4.48 0 0 0 4.5 4.5h36.9a4.48 4.48 0 0 0 4.5-4.5v-31.9c-.1-2.5-2.1-4.5-4.6-4.5zM55 142.1c0-6 4.8-10.8 10.8-10.8s10.8 4.8 10.8 10.8v5.9H55v-5.9zm12.1 36.5h-4.6v-1.9h2.1v-7.2h-.9v-1.9h.9v-6.1h-.1c-.9-.2-1.7-.8-2.2-1.5v-.1c-.1-.2-.2-.3-.3-.5 0-.1-.1-.1-.1-.2-.1-.1-.1-.3-.2-.4 0-.1-.1-.2-.1-.3s-.1-.2-.1-.3c0-.2-.1-.5-.1-.7 0-.3 0-.6.1-.8.1-.3.1-.5.2-.8.6-1.5 2.1-2.6 3.9-2.6s3.3 1.1 3.9 2.6c.1.2.2.5.2.8.1.3.1.5.1.8 0 1.8-1.1 3.3-2.7 3.9v17.2z" fill="#006994"/><path d="M221.3 91.6h50.9v9.7h-50.9zm85.4-33h0c0-7.7-6.4-14-14.3-14h-91.6c-7.9 0-14.3 6.3-14.3 14V67h120.2v-8.4zm-100.2 2.8c-1.6 0-2.9-1.3-2.9-2.8s1.3-2.8 2.9-2.8 2.9 1.3 2.9 2.8-1.3 2.8-2.9 2.8zm11.5 0c-1.6 0-2.9-1.3-2.9-2.8s1.3-2.8 2.9-2.8 2.9 1.3 2.9 2.8-1.4 2.8-2.9 2.8zm11.4 0c-1.6 0-2.9-1.3-2.9-2.8s1.3-2.8 2.9-2.8 2.9 1.3 2.9 2.8-1.3 2.8-2.9 2.8zM186.5 110v16.1c0 7.8 6.4 14 14.3 14h42.1l-.1-.1 7.4.1h42.1c7.9 0 14.3-6.3 14.3-14V72.7H186.5V110zm32.7-18.4c0-1 1-2 1.9-2H272c1 0 2 1 2 2v9.7c0 1-1 2-1.9 2h-50.9c-1 0-2-1-2-2v-9.7zm-.1 19.9c0-1 1-2 1.9-2h50.9c1 0 2 1 2 2v9.7c0 1-1 2-1.9 2h-50.9c-1 0-2-1-2-2v-9.7zm53 0h-50.9v9.7h50.9v-9.7zm-40.9 5.4h-1.8l.9 1.5-1 .5-.9-1.5-.9 1.5-1-.5.9-1.5h-1.8v-1.1h1.8l-.9-1.5 1-.5.9 1.5.9-1.5 1 .5-.9 1.5h1.8v1.1zm9 0h-1.8l.9 1.5-1 .5-.9-1.5-.9 1.5-1-.5.9-1.5h-1.8v-1.1h1.8l-.9-1.5 1-.5.9 1.5.9-1.5 1 .5-.9 1.5h1.8v1.1zm9.1 0h-1.8l.9 1.5-1 .5-.9-1.5-.9 1.5-1-.5.9-1.5h-1.8v-1.1h1.8l-.9-1.5 1-.5.9 1.5.9-1.5 1 .5-.9 1.5h1.8v1.1zm9.1 0h-1.8l.9 1.5-1 .5-.9-1.5-.9 1.5-1-.5.9-1.5h-1.8v-1.1h1.8l-.9-1.5 1-.5.9 1.5.9-1.5 1 .5-.9 1.5h1.8v1.1zm9 0h-1.8l.9 1.5-1 .5-.9-1.5-.9 1.5-1-.5.9-1.5h-1.8v-1.1h1.8l-.9-1.5 1-.5.9 1.5.9-1.5 1 .5-.9 1.5h1.8v1.1z" fill="#005f83"/><g fill="#3e4f51"><path d="M161.6 379.1v11.6h-48.2v-62.3h47.1V340h-32.8v13.5h28.9v11.2h-28.9v14.4h33.9zm59-54.4v66h-13.3v-5.5c-3.5 4.2-8.5 6.2-15 6.2-13.5 0-23.9-9.6-23.9-24.7s10.4-24.7 23.9-24.7c5.9 0 10.9 1.9 14.3 5.8v-23.2h14zm-13.7 42.1c0-8.3-5.3-13.3-12.2-13.3s-12.3 5-12.3 13.3 5.3 13.3 12.3 13.3c6.9-.1 12.2-5.1 12.2-13.3z"/><use xlink:href="#E"/><path d="M291.1 388.4c-2.8 2-7 3-11.3 3-11.3 0-17.9-5.8-17.9-17.2v-19.7h-7.4v-10.7h7.4v-11.7h13.9v11.7h11.9v10.7h-11.9V374c0 4.1 2.2 6.3 6 6.3 2 0 4.1-.6 5.6-1.8l3.7 9.9z"/><use xlink:href="#E" x="65.5"/><path d="M322.1 366.8c0-14.4 11.1-24.7 26.3-24.7s26.3 10.2 26.3 24.7-11 24.7-26.3 24.7-26.3-10.3-26.3-24.7zm38.5 0c0-8.3-5.3-13.3-12.2-13.3s-12.3 5-12.3 13.3 5.3 13.3 12.3 13.3 12.2-5.1 12.2-13.3zm72.3-3.5v27.4H419v-25.3c0-7.7-3.6-11.3-9.7-11.3-6.7 0-11.5 4.1-11.5 12.9v23.7H384v-47.9h13.3v5.6c3.7-4.1 9.3-6.3 15.8-6.3 11.3 0 19.8 6.6 19.8 21.2zm7.9 23l4.6-10c4.3 2.8 10.8 4.6 16.6 4.6 6.4 0 8.8-1.7 8.8-4.4 0-7.8-28.9.2-28.9-19 0-9.1 8.2-15.5 22.2-15.5 6.6 0 13.9 1.5 18.4 4.2l-4.6 9.9c-4.7-2.7-9.4-3.6-13.8-3.6-6.2 0-8.9 2-8.9 4.5 0 8.2 28.9.3 28.9 19.1 0 8.9-8.3 15.2-22.6 15.2-8 .1-16.2-2.1-20.7-5zM113.4 280.4h18.7v4.7h-13.5v7.6h12.8v4.7h-12.8v12h-5.1l-.1-29zm38.3 29H147v-3.1h-.1c-.5 1-1.2 1.9-2.1 2.6-1.1.8-2.5 1.2-3.9 1.1-1.1 0-2.3-.2-3.3-.6-.9-.4-1.6-1-2.2-1.7s-1-1.6-1.2-2.5-.4-1.9-.4-2.9v-12.4h4.9v9.9c0 .5 0 1.2.1 1.8s.2 1.3.4 1.9.6 1.1 1.1 1.5c.6.4 1.3.6 2 .6s1.4-.1 2.1-.4c.5-.3 1-.6 1.4-1.1s.6-1 .8-1.6.2-1.2.2-1.9v-10.7h4.9v19.5zm15.2-14.2c-.9-1.3-2.3-2-3.8-2-.7 0-1.3.2-1.9.5s-1 .9-.9 1.6c0 .6.3 1.1.8 1.3.6.3 1.3.5 1.9.7l2.6.6c.9.2 1.8.5 2.6.9s1.4 1 1.9 1.7c.6.9.8 2 .8 3s-.2 2.1-.8 3c-.5.8-1.2 1.5-1.9 1.9a9.04 9.04 0 0 1-2.7 1.1c-1 .2-2 .3-3 .3-1.4 0-2.9-.2-4.2-.6-1.3-.5-2.5-1.3-3.4-2.4l3.2-3.1c.6.7 1.3 1.3 2 1.7.8.5 1.7.7 2.6.6.4 0 .7 0 1.1-.1s.7-.2 1.1-.4c.3-.2.6-.4.8-.7a1.69 1.69 0 0 0 .3-1c0-.6-.3-1.2-.8-1.5-.6-.4-1.3-.6-1.9-.8l-2.6-.6c-.9-.2-1.7-.5-2.6-.9-.8-.4-1.4-1-1.9-1.7-.6-.9-.8-1.9-.8-2.9s.2-2 .6-2.8 1-1.5 1.8-2 1.6-.9 2.5-1.1 1.9-.4 2.9-.4a13.2 13.2 0 0 1 3.9.6c1.3.4 2.3 1.2 3.1 2.3l-3.3 3.2zm6-12.1c0-.8.3-1.5.9-2.1s1.4-.9 2.2-.9 1.7.3 2.3.9c1.2 1.1 1.2 2.9.2 4l-.2.2c-.6.6-1.4.9-2.3.8-.8 0-1.6-.3-2.2-.9-.6-.5-.9-1.2-.9-2zm.7 6.6h4.9v19.6h-4.9v-19.6zm7.6 9.8a9.9 9.9 0 0 1 .9-4.2c1.1-2.5 3.1-4.4 5.7-5.3 2.7-1 5.7-1 8.3 0 2.5.9 4.6 2.8 5.7 5.3 1.1 2.7 1.1 5.7 0 8.4-1.1 2.5-3.1 4.4-5.7 5.3-2.7 1-5.7 1-8.3 0-2.5-.9-4.6-2.8-5.7-5.3a9.9 9.9 0 0 1-.9-4.2zm4.9 0c0 .8.1 1.5.4 2.2.2.7.6 1.3 1.1 1.9a5.83 5.83 0 0 0 8.2.2l.2-.2c.5-.5.9-1.2 1.1-1.9a6.64 6.64 0 0 0 0-4.4c-.2-.7-.6-1.3-1.1-1.9a5.83 5.83 0 0 0-8.2-.2l-.2.2c-.5.5-.9 1.2-1.1 1.9-.3.7-.4 1.5-.4 2.2zm19.1-9.8h4.7v3.1h.1c.5-1 1.2-1.9 2.1-2.6 1.1-.8 2.5-1.2 3.9-1.1 1.1 0 2.3.2 3.3.6.9.4 1.6 1 2.2 1.7s1 1.6 1.2 2.5.4 1.9.4 2.9v12.4h-4.9v-9.9c0-.5 0-1.2-.1-1.8 0-.6-.2-1.3-.4-1.9s-.6-1.1-1.1-1.5c-.6-.4-1.3-.6-2-.6s-1.4.1-2.1.4c-.5.3-1 .6-1.4 1.1s-.6 1-.8 1.6-.2 1.2-.2 1.9v10.7h-4.9v-19.5z"/></g><path d="M237.6 280.4h4.5l12.5 28.9h-5.9l-2.7-6.6h-12.5l-2.6 6.6H225l12.6-28.9zm6.5 17.9l-4.5-11.8-4.5 11.8h9zm29.1 11.1h-4.7v-3.1h-.1c-.5 1-1.2 1.9-2.1 2.6-1.1.8-2.5 1.2-3.9 1.1-1.1 0-2.3-.2-3.3-.6-.9-.4-1.6-1-2.2-1.7s-1-1.6-1.2-2.5-.4-1.9-.4-2.9v-12.4h4.9v9.9c0 .5 0 1.2.1 1.8 0 .6.2 1.3.4 1.9s.6 1.1 1.1 1.5c.6.4 1.3.6 2 .6s1.4-.1 2.1-.4c.5-.3 1-.6 1.4-1.1s.6-1 .8-1.6.2-1.2.2-1.9v-10.7h4.9v19.5zm1.7-15.5v-4.2h4V284h4.9v5.7h5.4v4.2h-5.4v8.6c0 .8.1 1.6.5 2.3.4.6 1.1.9 2.2.9.5 0 1-.1 1.4-.1.4-.1.9-.2 1.2-.5v4.1c-.6.3-1.2.4-1.9.5s-1.3.1-2 .1c-1.1 0-2.2-.1-3.2-.4-.8-.2-1.4-.7-1.9-1.3s-.8-1.4-1-2.2c-.2-1-.3-2-.3-3v-9h-3.9zm21.5-1.4h0c.5-.9 1.2-1.7 2.1-2.2 1.1-.7 2.4-1.1 3.7-1 1.1 0 2.3.2 3.3.6.9.4 1.6 1 2.2 1.7s1 1.6 1.2 2.5.4 1.9.4 2.9v12.4h-4.9v-9.9c0-.5 0-1.2-.1-1.8s-.2-1.3-.4-1.9-.6-1.1-1.1-1.5c-.6-.4-1.3-.6-2-.6s-1.4.1-2.1.4c-.5.3-1 .6-1.4 1.1s-.6 1-.8 1.6-.2 1.2-.2 1.9v10.7h-4.9v-30.9h4.9v14z" fill="#f38120"/><defs ><path id="E" d="M231.7 328.4c0-4.4 3.5-7.7 8.6-7.7s8.6 3.2 8.6 7.5c0 4.6-3.5 8-8.6 8s-8.6-3.4-8.6-7.8zm1.7 14.4h13.9v47.9h-13.9v-47.9z"/></defs></svg>