<svg xmlns="http://www.w3.org/2000/svg" viewBox="0 0 42.7 42.8" fill="#fefefe" stroke="#636466" stroke-miterlimit="10"><path d="M41.2 21.4c.2 10.5-8.5 20-20.1 19.9-11.2-.1-20-9.6-19.6-20.7.4-10.2 9-19.6 20.7-19.1 10.9.5 19.1 9.6 19 19.9z" stroke-width="3"/><path d="M21.2 10.4h1.1c1.5 0 2.2.5 2.7 1.9l4.8 14.4.9 2.6c.4 1.3-.2 2.5-1.5 3-1.2.4-2.5-.2-3-1.4L25 27.4c-.2-.5-.4-.7-1-.7h-5.5c-.5 0-.7.1-.8.6l-1 3.2c-.5 1.5-1.7 2.2-3.1 1.8s-2-1.7-1.5-3.3l5.1-16.1c.7-2.2 1.2-2.6 3.5-2.6.1.1.3.1.5.1z" stroke-width="2"/></svg>