<svg xmlns="http://www.w3.org/2000/svg" width="286" height="286"  fill="#3e4f51"><path d="M142.5 285.9h-1.3c-38.2-.4-74-15.9-100.7-43.9C13.7 214-.8 175.9.6 137.3c1.5-37.6 18.5-74 46.7-100C75 11.8 111.2-1.3 149.1.3c75.9 3.5 137 67.5 136.3 142.8.7 36.9-14.2 73.5-40.9 100.4-27 27.3-63.2 42.4-102 42.4zm.4-278.2c-33.8 0-65.7 12.4-90.5 35.2C25.7 67.5 9.6 102 8.2 137.6c-1.3 37.1 12.1 72.3 37.8 99.2 25.3 26.4 59.1 41.1 95.3 41.5h1.2c36.8 0 71-14.2 96.7-40.1 25.3-25.5 39.4-60.2 38.7-95v-.2c.7-71.2-57.2-131.9-129.1-135.2-2 0-4-.1-5.9-.1zm6.6 58c10.5 0 15.4 4.2 18.8 14l33.5 100.6 6.3 18.2c2.8 9.1-1.4 17.5-10.5 21-8.4 2.8-17.5-1.4-21-9.8l-8.4-24.4c-1.4-3.5-2.8-4.9-7-4.9h-38.4c-3.5 0-4.9.7-5.6 4.2l-7 22.4c-3.5 10.5-11.9 15.4-21.7 12.6s-14-11.9-10.5-23l35.6-112.5c4.9-15.4 8.361-18.4 24.361-18.4H149.5z"/></svg>