<svg xmlns="http://www.w3.org/2000/svg" viewBox="0 0 31.7 42.2" fill="#636466"><path d="M5.4 35.2h0H0v6.2c0 .5.4.9.9.9h29.9c.5 0 .9-.4.9-.9v-6.2H5.4zm13.9 1.7h7v1.8h-7v-1.8zM30.8 7h-9.7V5.3A5.34 5.34 0 0 0 15.8 0a5.34 5.34 0 0 0-5.3 5.3V7H1c-.5 0-.9.4-.9.9v25.5h6.6v-.1c0-.1 0-2.7.5-4.1.4-1.1 2.2-1.7 4.5-2.5l1.8-.6v-1.8c-.5-.3-1.3-1.1-1.5-2.9-.4-.2-.6-.7-.6-1.3a2.39 2.39 0 0 1 .2-.9c.1-.1.2-.3.3-.4-.2-.8-.6-2.1.1-2.8.3-.3.7-.4 1.2-.4.6-1 2.2-1.3 3.5-1.3h0c1.5 0 3.3.5 3.6 1.8.3 1.1-.1 2.1-.4 2.7.3.3.5.7.5 1.3s-.2 1.1-.6 1.4c-.1 1.7-1 2.5-1.5 2.9V26l1.8.6c2.3.8 4.1 1.4 4.5 2.5.5 1.4.5 4 .5 4.1v.1h6.6V7.9c0-.5-.4-.9-.9-.9zM15.9 7a1.79 1.79 0 0 1-1.8-1.8 1.8 1.8 0 1 1 3.6 0A1.79 1.79 0 0 1 15.9 7z"/></svg>