<svg xmlns="http://www.w3.org/2000/svg" width="276" height="298"  fill="#3e4f51"><path d="M268.3 40.8c-3.5-4.2-8.8-6.7-16.6-8.1l-.4-.1h-.4c-60.8-1.8-93.3-24.3-96.1-26.4-1.9-1.8-5-4.1-9.2-5.1-3.2-1-5.4-1.1-7.9-1-6.4.3-12.2 2.5-16.4 6.5C112 12.6 79.5 31 25 32.7c-6.8 0-12.9 2.7-18.1 8.1l-.3.4C2.8 45.9.8 52.1.8 59.3v.4c3.3 51.8 12.7 94.6 28.7 130.6 21.1 48.3 53.6 83.4 96.8 104.4 3.4 2.1 7.4 3.2 11.7 3.2 3.3 0 5.8-.6 7.9-1.2l2.6-.8.4-.2c43.5-21.1 76.3-56.3 97.4-104.7 16-36.2 25.4-79.1 28.8-131v-.4c0-7.7-2.3-14-6.8-18.8zM135.1 279.7l-.6-.3c-39.6-19.2-69.5-51.5-89-96.1C30.3 149.2 21.4 108.5 18.3 59c0-3 .9-5.2 1.7-6.3 1.7-1.6 3.4-2.4 5.3-2.4h.2c60.7-2 96.7-23.1 106.3-29.5l.9-.7.5-.4c1.3-1.3 3-2 4.7-2 1.8 0 2 0 2.8.3l.6.2c.9.2 1.4.6 1.9 1.1.3.3 35.5 28.7 106.4 30.9 3.6.6 4.8 1.5 5.2 1.8l.3.5.4.4c1.6 1.6 2 4.4 2 6.4-3.3 49.8-12.2 90.6-27.3 124.7-19.3 44.3-49 76.4-88.3 95.7l-.8.2c-1.6.4-2.4.6-3.2.6-.8-.1-1.9-.2-2.8-.8zm58.2-88v-70.1c-.2-7.7-6.5-14-14.2-14h-1.6V93.5c0-21.7-17.7-39.4-39.4-39.4S98.7 71.8 98.7 93.5v14.1h-1.6c-7.7 0-14 6.3-14 14v70.1c0 7.7 6.3 14 14 14h82.2c7.7 0 14-6.3 14-14zm-51.4-51.9v41.1h-11v-4.4h5v-17.2h-2.2v-4.4h2.2v-14.7c-.1 0-.1 0-.2-.1-2.1-.6-4-1.8-5.3-3.5 0 0-.1-.1-.1-.2-.3-.4-.6-.8-.8-1.2-.1-.1-.1-.3-.2-.4-.2-.3-.3-.7-.5-1.1-.1-.3-.1-.6-.2-.8-.1-.3-.2-.5-.2-.8-.1-.6-.1-1.1-.1-1.7 0-.7.1-1.3.2-2 .1-.6.3-1.2.6-1.8 1.5-3.7 5.1-6.3 9.3-6.3s7.8 2.6 9.3 6.3l.6 1.8c.1.6.2 1.3.2 2a9.96 9.96 0 0 1-6.6 9.4zm22-32.2H112V93.5h.1A25.91 25.91 0 0 1 138 67.6a25.91 25.91 0 0 1 25.9 25.9v14.1z"/></svg>