<svg xmlns="http://www.w3.org/2000/svg" width="236" height="236"  fill="#3e4e50"><path d="M0 180.8C0 196.3 12.3 209 27.4 209l28.2.1H109v8.4H35.9a9 9 0 1 0 0 18h164.3a9 9 0 1 0 0-18H127v-8.4h53.4l28.2-.1c15.1 0 27.4-12.7 27.4-28.2v-26.5H0v26.5zm18.5-7.9h198.8v8c0 5.3-3.9 9.6-8.8 9.6H27.3c-4.8 0-8.8-4.3-8.8-9.6v-8zM236 28.7C236 13.2 223.7.5 208.6.5H27.4C12.3.5 0 13.2 0 28.7l.1 117.2H236l-.1-102.6h.1V28.7zm-18.7 74.5v24.1H18.7V28.7c0-5.3 3.9-9.6 8.8-9.6h181c4.9 0 8.8 4.3 8.8 9.6v74.5zM95.9 85.7V69.8c0-3.6.9-7.1 2.5-10.1-1.6-1-3.4-1.7-5.3-2.1a8.94 8.94 0 0 0 6.4-8.6 9 9 0 1 0-18 0c0 4 2.7 7.4 6.4 8.6-6.9 1.3-12.1 7.3-12.1 14.7v12.8a1.79 1.79 0 0 0 1.8 1.8h4.2l2.7 21.5c.1.9.9 1.6 1.8 1.6H95c.9 0 1.7-.7 1.8-1.6l2.2-18a5.02 5.02 0 0 1-3.1-4.7zm51.9-28.1a8.94 8.94 0 0 0 6.4-8.6 9 9 0 1 0-18 0c0 4 2.7 7.4 6.4 8.6-2.2.4-4.2 1.3-5.9 2.5 1.4 2.9 2.2 6.1 2.2 9.5v16.1c0 1.7-.8 3.2-2.1 4.2l2.3 18.5c.1.9.9 1.6 1.8 1.6h8.7c.9 0 1.7-.7 1.8-1.6l2.7-21.5h4.2a1.79 1.79 0 0 0 1.8-1.8v-13c-.2-7.2-5.4-13.2-12.3-14.5zm-30.4-5.9c-9.9 0-17.9 8-17.9 18.1v15.9a1.79 1.79 0 0 0 1.8 1.8h5.6l3.4 27.1c.1.9.9 1.6 1.8 1.6h10.7c.9 0 1.7-.7 1.8-1.6l3.4-27.1h5.6a1.79 1.79 0 0 0 1.8-1.8V69.6c-.2-9.8-8.2-17.9-18-17.9z"/><path d="M128.1 41c0-5.9-4.8-10.7-10.7-10.7s-10.7 4.8-10.7 10.7c-.1 5.9 4.7 10.7 10.7 10.7 5.9 0 10.7-4.8 10.7-10.7zM118 187.4a5.6 5.6 0 1 0 0-11.2 5.6 5.6 0 1 0 0 11.2zm0-8.1c1.4 0 2.6 1.1 2.6 2.6 0 1.4-1.1 2.6-2.6 2.6-1.4 0-2.6-1.1-2.6-2.6a2.65 2.65 0 0 1 2.6-2.6z"/></svg>