<svg xmlns="http://www.w3.org/2000/svg" width="264" height="288"  fill="#3e4f51"><path d="M132 287.4c-3.4 0-6.5-.9-9-2.5-41.9-20.3-73.8-54.6-94.4-101.8C12.9 147.7 3.6 105.5.3 54.3c0-5.8 1.6-10.9 4.6-14.6 4.3-4.4 9.1-6.4 14.3-6.4 56.5-1.8 90.2-21.1 99.6-27.3 3.5-3.4 8.3-5.1 13.2-5.3 2.1-.1 3.7 0 6.2.8 3.4.8 5.8 2.7 7.1 4 .1.1 33.7 25.7 99.5 27.7 6.5 1.1 10.8 3.1 13.4 6.3 3.6 3.7 5.4 8.8 5.4 15.2-3.3 51.5-12.6 93.6-28.3 129.1-20.6 47.2-52.5 81.5-94.8 102l-1.9.6c-2 .5-4 1-6.6 1zm-.2-280.3c-3.2 0-6.3 1.3-8.6 3.6l-.5.4c-9.4 6.3-44.6 26.7-103.4 28.6-3.5 0-6.7 1.4-9.5 4.3-1.8 2.3-3 6-3 10.1 3.2 50.3 12.3 91.7 27.7 126.4 20 45.8 50.8 79 91.6 98.8 1.7 1.1 3.7 1.6 5.7 1.6 1.7 0 3.1-.4 5-.9l1-.3c40.7-19.8 71.4-53 91.3-98.6 15.4-34.7 24.5-76.2 27.8-126.7 0-4.5-1.2-8.1-3.6-10.5l-.2-.3c-1.6-2-4.5-3.3-9.1-4-68.4-2-102.7-29-103-29.3-1-1-2.4-2.1-4.6-2.6-1.7-.6-2.7-.6-4.6-.6zm41.3 95.5h-1.6V88.5c0-21.7-17.7-39.4-39.4-39.4S92.7 66.8 92.7 88.5v14.1h-1.6c-7.7 0-14 6.3-14 14v70.1c0 7.7 6.3 14 14 14h82.2c7.7 0 14-6.3 14-14v-70.1c-.2-7.7-6.5-14-14.2-14zm-67-14.1A25.91 25.91 0 0 1 132 62.6a25.91 25.91 0 0 1 25.9 25.9v14.1H106V88.5h.1zm29.8 87.4h-11v-4.4h5v-17.2h-2.2v-4.4h2.2v-14.7c-.1 0-.1 0-.2-.1h0c-2.1-.6-4-1.8-5.3-3.5 0 0-.1-.1-.1-.2-.3-.4-.6-.8-.8-1.2-.1-.1-.1-.3-.2-.4-.2-.3-.3-.7-.5-1.1-.1-.3-.1-.6-.2-.8-.1-.3-.2-.5-.2-.8-.1-.6-.1-1.1-.1-1.7 0-.7.1-1.3.2-2 .1-.6.3-1.2.6-1.8 1.5-3.7 5.1-6.3 9.3-6.3s7.8 2.6 9.3 6.3l.6 1.8c.1.6.2 1.3.2 2a9.96 9.96 0 0 1-6.6 9.4v41.1z"/></svg>