<svg xmlns="http://www.w3.org/2000/svg" width="313" height="312"><path d="M311.1 36.6C306.2 17.2 289.5 2.4 270.2.7 253.6-.5 238.6 6 228.8 18.6c-2.9 3.7-5.1 7.6-6.8 11.8-1.3 3.4-2.2 6.9-2.7 10.7-28.2-8.8-60.1-1.5-81.9 19.6-7 7-13.2 15.9-18.2 26.4-.5.5-1.1 1-1.6 1.6-3 2.9-6.1 6-9.2 8.6L9.7 196c-6 6-8.9 12.6-8.9 20.5v.7C2 227 7.6 233 12.5 237.1l11.3 11.4 22.8 22.6 23.6 23.1v2.4h2.4l4.5 4.4.9.9c6.5 6.4 13.3 9.6 20.3 9.6 7.1 0 13.7-3.2 20.4-9.8l1.7-1.7 33.6-33.5 5.5-5.6 19.2-19.4 37.2-37.2c2.7-2.7 5.7-5.7 8.9-8.3 1-.7 2.3-1.7 3.6-2.8 10.6-5.1 19.5-11.2 26.7-18.4 21-21.7 28.3-53.8 19.3-82.2 7-1.3 13.4-4.1 19.3-8.5 3-2.3 8.4-7.7 8.4-7.7s15.1-14.6 9-39.8zm-22.4 28.3c-1.8 1.9-3.7 3.6-5.5 4.9-5.3 3.7-10.9 5.5-17.8 5.5h-13.3l.6 9.7c.2 3.2 1.2 5.3 1.8 6.5l.4.8c10.3 23.3 5.2 51.4-12.6 69.9-5.8 5.8-13.4 10.9-22.5 15.2l-.4.2-1.6 1.1-.3.3c-.8.7-1.9 1.5-3.6 2.8l-.3.2c-4.1 3.4-7.9 7.2-11.2 10.5l-36.2 36.2-19.6 19.7-39.6 39.5-2.3 2.2c-4.5 4-7.4 4.7-13.5-1.4l-1.6-1.6L59.7 258c-6.4-6-12.5-12.2-18.9-18.8l-9.1-9.1-6.1-6.2-.4-.4c-3.6-3-5.2-5.2-5.6-7.7.1-2.2.7-4 3.4-6.8l97.9-97.9c3.5-2.9 6.9-6.3 10.2-9.5.8-.8 1.7-1.6 2.5-2.4l.5-.4 1.2-1.8.2-.4c4.2-9.1 9.4-16.7 15.1-22.5 18.6-18 46.7-23.1 70-12.8l.7.4c1.3.7 3.7 2 7.6 2h10.2l-1.2-10.1c-.5-4.9-.8-10.7 1.4-16.2.9-2.4 2.3-4.9 4.1-7.3 5.9-7.6 15.1-11.5 25.4-10.8 11.5 1.1 21.6 10.4 24.7 22.8 0 0 3.3 14.6-4.8 22.8z" fill="#3e4f51"/><path d="M265.7 27.6c-5 0-10.1 2.3-13.9 6.3-2.5 2.6-4.1 5.7-4.9 9 2.3-.5 4.4-.8 6.4-.8 4.5 0 8.7 1.5 12.5 4.4 5.8 5.7 7.5 12.2 5.4 19.7 2.7-.5 5.3-1.7 7.6-3.7 4.1-3.5 6.8-8.8 7.1-14.4 0-10.6-9.1-19.9-20.2-20.5z" fill="#3e4e50"/><path d="M194.4 74.7c-24.4 0-44.6 19.5-44.6 43.9 0 7 1.4 13.2 4.2 20.2L90.5 201v.2l-18.1 17.4c-4.9 5.6-5.6 14.6 0 20.2s14.6 5.6 20.2 0l8.4-8.4 18.1 18.8 16-16-10.5-11.2-6.3-6.3 9.8-9.8 14.6 14.6 12.6-12.6-14.6-14.6 34.2-33.5c6.3 3.5 12.6 4.9 19.5 4.9 18.5 0 35-11.3 41.9-28.3l1.4-4.3c.7-3.5 1.2-7.4 1.2-12.2 0-4.9-1.2-9-2.5-13.2-5.1-18-21.8-32-42-32zm-.7 68.6c-12.3 0-22.3-10-22.3-22.3s10-22.3 22.3-22.3 22.3 10 22.3 22.3-10 22.3-22.3 22.3z" fill="#3e4f51"/></svg>