<svg xmlns="http://www.w3.org/2000/svg" width="300" height="300"  fill="#3e4f51"><path d="M91.6 299.5c-5.4 0-10.7-2.6-16.1-7.9l-.9-.9-30.6-30c-7.7-7.3-15.3-15-22.7-22.5L9.8 226.6C5.3 222.8.9 218 0 210.4c0-6.5 2.2-11.4 7.1-16.3l98.3-98.3c4.1-3.4 8-7.4 11.9-11.2 4.8-10.2 10.6-18.8 17.5-25.7 22.1-21.4 55.5-27.5 83.3-15.3-.2-5.3.3-11.1 2.6-17 1.4-3.6 3.4-7.1 5.9-10.3 8.5-11 21.6-16.7 36.2-15.6 16.8 1.5 31.4 14.5 35.6 31.8.5 1.1.8 2.6 1.1 4.1h0a19.72 19.72 0 0 1 .4 5.7c-.7 9.6-3.7 17.8-9 24.3-2.4 2.6-4.9 4.8-7.4 6.7-7.1 5.3-15 7.9-24 8.1 12.1 27.9 6 61.2-15.3 83.2-6.9 6.9-15.5 12.7-25.7 17.5-1.1 1-2.5 2.1-3.9 3.1-3.9 3.2-7.4 6.8-10.5 9.9l-36.2 36.2-19.5 19.7-40.6 40.5c-5.4 5.3-10.7 8-16.2 8zm-13.4-14.2l1.6 1.6c7.8 7.8 14.3 8.3 21.8 1.6l2.4-2.3 39.7-39.6 19.6-19.7 36.2-36.2c3.2-3.2 6.9-6.9 10.8-10.1 1.8-1.3 3.1-2.3 4.1-3.2l.9-.6c9.7-4.5 17.9-10 24.3-16.4 19.7-20.4 25.2-51.3 13.7-76.9l-.3-.5c-.5-1-1.2-2.2-1.3-4.3l-.2-3.4h6.9c8.1 0 15-2.2 21.3-6.9 2.2-1.6 4.4-3.6 6.4-5.7 4.3-5.3 6.8-12.3 7.4-20.6.1-1.3.1-2.3-.3-3.9h0c-.3-1.2-.6-2.4-1-3.6-3.7-15-16-26-30-27.3-12.2-.9-23.4 3.8-30.6 13.1-2.1 2.8-3.8 5.7-5 8.8-2.6 6.6-2.4 13.3-1.8 19l.4 3.5h-3.5c-2.5 0-3.8-.8-4.9-1.4l-.7-.4c-25.5-11.5-56.5-6-76.9 13.8-6.4 6.4-11.9 14.6-16.4 24.3l-.6.9c-4.2 4.1-8.3 8.3-12.5 11.8l-98.1 98.1c-3.7 3.7-5.2 7-5.2 11.4.6 4.8 3.5 8.3 7.8 11.9l11.7 11.8 22.5 22.4 29.8 29zm183-218.7c-.8 0-1.6-.1-2.5-.2l-4.4-.5 1.8-4c3.2-7.1 2.6-12.2-2.1-16.9-4.6-3.5-10-3.8-16.9-.7l-4.3 1.9-.3-4.7c-.4-6.5 2.2-13.2 7-18.3 5-5.3 11.8-8.3 18.7-8.3 14.6.8 26.4 12.9 26.4 27.1-.4 7.5-3.8 14.4-9.4 19.1a20.61 20.61 0 0 1-14 5.5zm-15.4-30.8c4.5 0 8.7 1.5 12.5 4.4 5.8 5.7 7.5 12.2 5.4 19.7 2.7-.5 5.3-1.7 7.6-3.7 4.1-3.5 6.8-8.8 7.1-14.4 0-10.6-9.1-19.9-20.2-20.5-5 0-10.1 2.3-13.9 6.3-2.5 2.6-4.1 5.7-4.9 9 2.3-.5 4.4-.8 6.4-.8zm-56.4 26.9c-24.4 0-44.6 19.5-44.6 43.9 0 7 1.4 13.2 4.2 20.2L85.5 189v.2l-18.1 17.4c-4.9 5.6-5.6 14.6 0 20.2s14.6 5.6 20.2 0l8.4-8.4 18.1 18.8 16-16-10.5-11.2-6.3-6.3 9.8-9.8 14.6 14.6 12.6-12.6-14.6-14.6 34.2-33.5c6.3 3.5 12.6 4.9 19.5 4.9 18.5 0 35-11.3 41.9-28.3l1.4-4.3c.7-3.5 1.2-7.4 1.2-12.2 0-4.9-1.2-9-2.5-13.2-5.1-18-21.8-32-42-32zm.3 66.6c-12.3 0-22.3-10-22.3-22.3s10-22.3 22.3-22.3S212 94.7 212 107s-10 22.3-22.3 22.3z"/></svg>