<svg xmlns="http://www.w3.org/2000/svg" viewBox="0 0 39.4 43" fill="#636466"><path d="M19.7 7.4a4.48 4.48 0 0 0-4.5 4.5v2.5h9v-2.5a4.48 4.48 0 0 0-4.5-4.5zm1.7 10.3c-.3-.6-.9-1.1-1.6-1.1s-1.4.5-1.6 1.1c0 .1-.1.2-.1.3v.8c0 .1.1.1.1.2v.1c0 .1.1.1.1.2.2.3.6.5.9.6h0v2.6h-.4v.8h.4v3h-.9v.8h1.9V20c.7-.2 1.1-.9 1.1-1.6v-.3c.2-.2.1-.3.1-.4zM38.7 5.8c-.4-.5-1.1-.7-1.7-.8-9.7-.3-15-3.9-15.6-4.4-.2-.2-.5-.4-.9-.5-.3-.1-.5-.1-.8-.1a2.34 2.34 0 0 0-1.7.7c-.6.4-6 4-15.6 4.3-.7 0-1.3.3-1.8.8C.2 6.3 0 7 0 7.7c.5 7.8 1.9 14.2 4.3 19.6 3.1 7.1 7.9 12.3 14.3 15.4.3.2.7.3 1.1.3s.7-.1 1.1-.2c6.4-3.1 11.2-8.3 14.3-15.4 2.4-5.4 3.8-11.8 4.3-19.6 0-.8-.2-1.5-.7-2zm-19-2.4h0zm0 36.2h0zM29.3 29c0 1.3-1.1 2.4-2.4 2.4H12.5c-1.3 0-2.4-1.1-2.4-2.4V16.8c0-1.3 1.1-2.4 2.4-2.4h.3v-2.5c0-3.8 3.1-6.9 6.9-6.9s6.9 3.1 6.9 6.9v2.5h.3c1.3 0 2.4 1.1 2.4 2.4V29z"/><path d="M36 8.2h0c-.6 0-1.3-.1-1.9-.1.7 0 1.3.1 1.9.1z"/></svg>