<svg xmlns="http://www.w3.org/2000/svg" width="310" height="325"  fill="#3e4f51"><path d="M231.5 187.8l2.4.1-18.6-10.9c-15.5-9-35.4-17.8-50.3-24.1v-9.5c2.9-2.9 5.4-6.6 7.6-10.8 2.7-5.2 4.5-11.4 5.5-18.3l.2-1.9c.1-.9.2-1.8.4-2.8 3-3 5.4-7 7.1-11.4v-.1a41.45 41.45 0 0 0 1.8-7c.4-2.4.6-4.6.6-6.8 0-6.3-1.5-12.1-4.4-16.7-.2-.4-.5-.8-.7-1.1.7-2.2 1.5-4.5 2.1-7l.4-1.8c.6-2.5 1-4.9 1.2-7.1V50c0-.3.1-.8.1-1.5.3-5.6-.1-10.5-1.2-15.1-2.5-10.1-9.6-18.6-20.5-24.6l-.9-.5c-2.2-1.2-4.4-2.1-6.7-3-.8-.3-1.7-.6-2.8-1-1.7-.5-3.2-1-4.7-1.3-1-.3-2.1-.5-3-.7-.4-.1-.7-.2-1.1-.2l-.3-.1-1.4-.3c-1.4-.2-2.9-.5-4.5-.7l-2.3-.3h-.2c-5.8-.5-11.5-.5-16.6-.1-7.8.6-15.4 2.3-22.4 4.8a12.7 12.7 0 0 0-2.6 1.1c-.2.1-.4.2-.7.3l-1.2.6c-3 1.5-5.6 2.9-8.3 4.8-1.6 1.1-2.9 2.3-4.5 3.8l-.9.8-.2.2c-1.1 1.1-2.1 2.4-3.4 3.9l-.1.1c-1.6.2-3.2.6-4.8 1l-1.1.3-.3.1c-1.2.5-2.6 1.1-4 1.9l-1.1.7c-1.3.9-2.5 1.8-3.8 3.1l-.2.2c-.8.9-1.5 1.9-2.3 3-.9 1.4-1.7 3-2.5 5.2-.2.6-.4 1.2-.5 2-.1.3-.1.6-.2 1-.2.8-.4 1.7-.5 2.7v.4c0 .3-.1.8-.1 1.5v.8c0 .8-.1 1.8 0 2.9l.1 1.2c.1 1.3.3 2.4.5 3.5l.3 1.6c.3 1.3.6 2.7 1.2 4.6v.1c.7 2.4 1.6 4.9 2.5 7.3-.3.4-.6.8-.8 1.2-1.4 2.1-2.4 4.5-3.2 7.1l-.3.8c-.2.6-.3 1-.3 1.3v.2c-.6 2.8-.9 5.4-.9 7.9 0 2.2.2 4.4.7 7.2v.2c.5 2.3 1.1 4.4 1.8 6.4l.1.1c1.7 4.4 4 8 6.9 11.1.1.6.1 1.3.2 1.9l.2 1.5.2 1.4c1 6.7 2.8 12.8 5.5 18.3 2.1 4.2 4.6 7.8 7.6 10.7v9.5c-19.9 8.2-67.9 28.7-75.9 46.7a14.89 14.89 0 0 0-1.3 6.1v51h168.7c-.2-1.9-.3-3.8-.3-5.7 0-6.5 1-12.8 2.8-18.7.6-2 1.3-3.9 2.1-5.8 0-.1.1-.2.1-.3.1-.1.1-.2.2-.4 9.7-22.3 32-38 57.8-38zm-79 51.5H17.4v-32.5c2.1-4.6 19.5-18.1 71.7-39.3l5.5-2.3v-29.6l-3.4-2.7c-2.5-2-4.4-4.5-6.1-7.8-1.7-3.4-3-7.8-3.7-12.8l-.2-1.6c-.2-1.7-.4-3.5-.5-5.4l-.2-4.5-3.5-2.4-.3-.3c-.2-.2-.4-.3-.6-.5-1.2-1.2-2.2-3-3-5-.4-1.2-.7-2.4-1-3.8v-.2c-.2-1.4-.3-2.6-.3-3.8s.1-2.4.4-3.7l.4-1.3c.2-.9.6-1.7 1.1-2.5.5-.7 1-1.3 1.5-1.7l5.8-4.1-2.8-6.5c-1.4-3.3-3-7.1-4.2-11.2-.4-1.6-.8-3-.9-3.7V50c-.2-.8-.2-1.6-.3-2.5l-.1-1V45l.1-.7c.1-.6.1-.9.2-1.3l.2-.7c.1-.3.3-.7.5-1.1l.3-.3c.2-.2.3-.4.5-.6.1-.1.3-.3.9-.6.1 0 .1-.1.2-.1.4-.2.6-.3 1.2-.5.6-.1 1.2-.3 1.9-.4s1.6-.1 2.6-.1l5.5.2 2.5-4.8a24.39 24.39 0 0 1 1.6-2.3l1.9-2.2.7-.7c.8-.7 1.6-1.5 2.7-2.2 1.6-1.1 3.4-2.1 5.3-3l1.4-.7c.4-.2.9-.5 1.7-.8 5.2-1.9 11.2-3.2 17.4-3.7 4.6-.4 9.2-.3 13.2.4l2.4.2c1.6.2 3.1.4 4.7.7.6.1 1.1.3 1.7.4l1.5.3c1.2.4 2.5.7 3.9 1.1.7.3 1.3.5 1.8.7l.2.1c1.5.6 3 1.2 5.1 2.3 6.3 3.5 10.4 8.2 11.7 13.4.8 3 1 6.3.8 10.5v.8c-.2 1.5-.5 3.1-1 5.2l-.2 1.1c-.3 1.4-.7 2.7-1.4 4.6l-.5 1.3c-.5 1.3-.9 2.6-1.4 3.6l-2.8 6.3 5.3 4.2c.7.5 1.1 1 1.4 1.5l.1.1c1.1 1.8 1.8 4.5 1.8 7.4 0 1.3-.2 2.7-.4 4.3v.2c-.1 1.1-.4 2.2-.9 3.4-.9 2.2-2 4-3.4 5.4-.1.1-.3.3-.6.5l-3.5 2.4-.2 4.4c-.1 1.9-.3 3.7-.5 5.3l-.2 1.5c-.7 4.8-2 9.2-3.8 13-2.2 4.4-4.7 6.7-5.9 7.6l-3.5 3.2V165l5.5 2.3c5.9 2.4 21.8 9 37.1 16.6-20.7 12.1-36.2 34.7-37.5 55.4zm93.4-40.8c-34.8 0-63.1 28.3-63.1 63.1s28.3 63.1 63.1 63.1 63.1-28.3 63.1-63.1-28.3-63.1-63.1-63.1zm0 108.4c-25 0-45.3-20.3-45.3-45.3s20.3-45.3 45.3-45.3c12.2 0 23.6 4.7 32.2 13.3 8.5 8.5 13.2 19.9 13.1 32 0 24.9-20.4 45.3-45.3 45.3zm33.4-67c-1.6-1.7-3.8-2.7-6.2-2.8s-4.6.8-6.4 2.4l-32.6 30.6-10.1-9.5-.1-.1c-3.7-3.2-9.1-3-12.4.5l-.1.1c-3.2 3.7-3 9.1.6 12.4l14.8 13.8c2.1 1.9 4.7 2.9 7.5 2.9 2.7 0 5.5-1.1 7.4-3l37.3-34.9c1.7-1.6 2.8-3.8 2.8-6.2 0-2.1-.8-4.4-2.5-6.2z"/></svg>