<svg xmlns="http://www.w3.org/2000/svg" viewBox="0 0 43.2 43"><path d="M9.7 41h.1c0 0-.1-.1-.1 0 0-.1 0 0 0 0z" fill="#e6e7ec"/><g fill="#636466"><path d="M43.1 4.9c0-.2-.1-.4-.1-.6C42.5 2 40.5.2 38.2 0c-2.6-.2-4.8 1.2-5.7 3.5-.4 1-.4 2-.3 3-.3 0-.4-.1-.6-.2-4-1.8-8.7-.9-11.8 2.1-1.1 1.1-1.9 2.4-2.5 3.7-.6.6-1.2 1.2-1.8 1.7L1.1 28.2c-.6.6-.9 1.2-.9 2 .1.9.6 1.5 1.3 2.1 1.7 1.7 3.3 3.4 5 5l4.6 4.5c1.4 1.4 2.7 1.4 4.1 0 3-2.9 5.9-5.9 8.8-8.8l5.3-5.3c1-1 2-2.1 3.4-2.6.7-.2 1.2-.8 1.7-1.2 1.1-.9 1.8-2.1 2.6-3.3h0l.9-2.8c.3-1.2.3-2.4 0-3.7-.3-1-.6-2.1-1.1-3.1v-.1h.8c1.8 0 3.2-.7 4.4-2a5.92 5.92 0 0 0 1.3-3.3c-.1-.1-.2-.4-.2-.7zM33.5 17v6h-8.3v6.7h-7.9l1.7 1.8-2.3 2.3-2.6-2.7-1.2 1.2c-.8.8-2.1.8-2.9 0s-.7-2.1 0-2.9l2.6-2.5v-8.6h8v-10h12.9v5.2c.2.6.2 1.1.2 1.8s-.1 1.2-.2 1.7zM41 5.6c-.1 1.8-1.6 3.3-3.3 3.1.5-1.1.5-2.1-.4-3-.9-.7-1.9-.7-3-.2-.1-1.8 1.5-3.4 3.3-3.4 1.9.1 3.4 1.7 3.4 3.5z"/><path d="M21.1 15.3c0-3.5 2.9-6.3 6.4-6.3 2.9 0 5.3 2 6 4.6V8.5H20.6v10h-8v8.6l9.1-8.9c-.4-1-.6-1.9-.6-2.9z"/><circle cx="27.4" cy="15.4" r="3.2"/><path d="M27.3 21.7c-1 0-1.9-.2-2.8-.7l-4.9 4.8 2.1 2.1-1.8 1.8-2.1-2.1-1.4 1.4.9.9h7.9v-6.7h8.3v-6a6.52 6.52 0 0 1-6.2 4.5z"/></g></svg>