<svg xmlns="http://www.w3.org/2000/svg" width="224" height="196"  fill="#3e4e50"><path d="M181.1 141H.8v20c0 12 9.4 21.7 20.9 21.7h28.2v.1h59.6v7.5H31.1c-1.5 0-2.8 1.2-2.8 2.8a2.73 2.73 0 0 0 2.8 2.8h162.4a2.73 2.73 0 0 0 2.8-2.8c0-1.6-1.3-2.8-2.8-2.8h-78.4v-7.5h59.6v-.1h28.2c11.5 0 20.9-9.7 20.9-21.7v-20h-42.7zm37.1 5.6v14.5c0 8.9-6.9 16.1-15.3 16.1H21.7c-8.4 0-15.3-7.2-15.3-16.1v-14.5h211.8zm5.6-124.7c0-12-9.4-21.7-20.9-21.7H21.7C10.2.2.8 9.9.8 21.9V30l.1 102.6h222.9L223.7 30h.1v-8.1zM196 127H6.5V21.9c0-8.9 6.9-16.1 15.3-16.1h181c8.4 0 15.3 7.2 15.3 16.1V30l.1 72.9h-.1v17.2h.1v6.9H196zm-83.7 45.3c5.7 0 10.4-4.6 10.4-10.4-.1-5.7-4.7-10.3-10.4-10.3-.8 0-1.5.1-2.2.2-4.6 1-8.1 5.1-8.2 10.1 0 5.8 4.7 10.4 10.4 10.4zm-4.7-11.4c.1-.3.1-.5.2-.8v-.1c.1-.2.2-.4.3-.7 0-.1.1-.1.1-.2a.78.78 0 0 1 .4-.4c.1-.1.1-.2.2-.3s.2-.2.3-.2l.4-.4c.1 0 .1-.1.2-.1.2-.1.4-.3.7-.3h.1c.2-.1.5-.2.8-.2.3-.1.6-.1 1-.1s.6 0 1 .1c.3.1.5.1.8.2h.1l.6.3c.1 0 .1.1.2.1a.78.78 0 0 1 .4.4c.1.1.2.2.3.2.1.1.2.2.2.3l.4.4c0 .1.1.1.1.2.1.2.3.4.4.7v.1c.1.2.2.5.2.8.1.3.1.6.1.9v.1c-.1 2.6-2.2 4.8-4.8 4.8s-4.7-2.2-4.8-4.8c0-.3 0-.6.1-1zm-17.2-82V63c0-3.6.9-7.1 2.5-10.1-1.6-1-3.4-1.7-5.3-2.1a8.94 8.94 0 0 0 6.4-8.6 9 9 0 1 0-18 0c0 4 2.7 7.4 6.4 8.6-6.9 1.3-12.1 7.3-12.1 14.7v12.8a1.79 1.79 0 0 0 1.8 1.8h4.2l2.7 21.5c.1.9.9 1.6 1.8 1.6h8.7c.9 0 1.7-.7 1.8-1.6l2.2-18a5.02 5.02 0 0 1-3.1-4.7zm51.9-28.1a8.94 8.94 0 0 0 6.4-8.6 9 9 0 1 0-18 0c0 4 2.7 7.4 6.4 8.6-2.2.4-4.2 1.3-5.9 2.5 1.4 2.9 2.2 6.1 2.2 9.5v16.1c0 1.7-.8 3.2-2.1 4.2l2.3 18.5c.1.9.9 1.6 1.8 1.6h8.7c.9 0 1.7-.7 1.8-1.6l2.7-21.5h4.2a1.79 1.79 0 0 0 1.8-1.8v-13c-.2-7.2-5.4-13.2-12.3-14.5zm-30.4-5.9c5.9 0 10.7-4.8 10.7-10.7s-4.8-10.7-10.7-10.7-10.7 4.8-10.7 10.7c-.1 5.9 4.7 10.7 10.7 10.7-9.9 0-17.9 8-17.9 18.1v15.9a1.79 1.79 0 0 0 1.8 1.8h5.6l3.4 27.1c.1.9.9 1.6 1.8 1.6h10.7c.9 0 1.7-.7 1.8-1.6l3.4-27.1h5.6a1.79 1.79 0 0 0 1.8-1.8V62.8c-.2-9.8-8.2-17.9-18-17.9z"/></svg>