<svg xmlns="http://www.w3.org/2000/svg" viewBox="0 0 42.6 37.3" fill="#636466"><path d="M39 0H3.5C1.6 0 0 1.7 0 3.7v21.1h42.6V3.7C42.6 1.7 41 0 39 0zM17 9.4a4.38 4.38 0 0 0-.6 2.3v3.6c0 .5.3.9.6 1.1l-.5 4c0 .2-.2.4-.4.4h-1.9c-.2 0-.4-.2-.4-.4l-.6-4.8h-.9c-.2 0-.4-.2-.4-.4v-2.9A3.43 3.43 0 0 1 14.6 9c-.8-.3-1.4-1-1.4-1.9 0-1.1.9-2 2-2s2 .9 2 2c0 .9-.6 1.7-1.4 1.9.4 0 .8.2 1.2.4zm8.2 5.8c0 .2-.2.4-.4.4h-1.2l-.8 6.1c0 .2-.2.4-.4.4H20c-.2 0-.4-.2-.4-.4l-.8-6.1h-1.2c-.2 0-.4-.2-.4-.4v-3.6c0-2.2 1.8-4 4-4-1.3 0-2.4-1.1-2.4-2.4s1.1-2.4 2.4-2.4 2.4 1.1 2.4 2.4-1.1 2.4-2.4 2.4c2.2 0 4 1.8 4 4v3.6zm5.5-.1c0 .2-.2.4-.4.4h-.9l-.6 4.8c0 .2-.2.4-.4.4h-1.9c-.2 0-.4-.2-.4-.4l-.5-4.1c.3-.2.5-.6.5-.9v-3.6a4.65 4.65 0 0 0-.5-2.1c.4-.3.8-.5 1.3-.6-.8-.3-1.4-1-1.4-1.9 0-1.1.9-2 2-2s2 .9 2 2c0 .9-.6 1.7-1.4 1.9 1.5.3 2.7 1.6 2.7 3.2v2.9zM1.8 26.6H0V30c0 2 1.6 3.7 3.5 3.7h16.9v1.8H8.9c-.5 0-.9.4-.9.9s.4.9.9.9h24.8c.5 0 .9-.4.9-.9s-.4-.9-.9-.9H22.2v-1.8H39c2 0 3.5-1.7 3.5-3.7v-3.4H1.8zm19.5.9a1.8 1.8 0 1 1 0 3.6 1.8 1.8 0 1 1 0-3.6z"/></svg>