<svg xmlns="http://www.w3.org/2000/svg" width="226" height="300"  fill="#3e4e50"><path d="M0 235.6v49.6A14.77 14.77 0 0 0 14.8 300h196.4a14.77 14.77 0 0 0 14.8-14.8v-49.6H0zm208.2 17.8v28.8H17.8v-28.8h190.4zm-74.2 8h51.2v13.1H134zM112 54.9h.1c6.5 0 11.7-5.3 11.7-11.8s-5.3-11.8-11.8-11.8-11.8 5.3-11.8 11.8v.1c0 6.5 5.3 11.7 11.8 11.7zm113.6 2.7c.1-3.7-1.4-7.2-4-9.8-2.8-2.8-6.7-4.5-10.7-4.5h-54.8v-1.9C155.9 18.8 136.3.2 112.4 0 88.6.2 69 18.8 68.8 41.5v1.8H15.2C7 43.3.4 49.7.4 57.6v165.8h225.2V57.6zM112.2 17.4c14.2.1 25.8 10.9 25.9 24.1v19.2h69.6v145.2h-30.9c-.1-5.6-.7-17.6-3.5-25.1-3.1-8.6-14.6-12.5-30.5-18.1l-10.7-3.6v-6.5c3.2-2.7 8.7-8.4 9.7-19 2.6-2.6 4.1-6.4 4.1-10.8 0-3.6-.9-6.5-2.7-9.1 2.8-6.5 3.5-12.4 1.9-18-2.5-10.7-16.1-14.5-27-14.5-5.6 0-18.7.9-24.8 8.6-2.6.2-5.9.9-8.5 3.6-5.5 5.5-3.5 14.1-1.9 20 0 .1-.1.1-.1.2-.2.3-.4.6-.6.8l-.7 1.1c-1 2.3-1.5 4.7-1.6 7.3 0 4.6 1.5 8.3 4.2 10.5 1.6 10.9 6.4 16.4 9.6 18.8v7.6L83 163.3c-15.9 5.5-27.4 9.5-30.5 18.1-2.6 7.2-3.3 18.6-3.4 24.4H18V60.7h68.3V41.5c.1-13.2 11.7-24 25.9-24.1z"/></svg>