<svg xmlns="http://www.w3.org/2000/svg" width="282" height="301"  fill="#3e4e50"><path d="M159.2 244.6H.2v-45.5c0-1.3.3-2.7.9-4.1 6.1-13.8 43.9-31.8 75.4-44.8v-14.8c-3.2-2.8-5.8-6.3-8-10.7-2.4-4.8-4.1-10.4-4.9-16.6l-.2-1.2c-.2-1.9-.4-3.5-.5-5-.2-.2-.4-.3-.6-.5-2.9-2.8-4.9-6-6.4-9.9-.7-2-1.2-3.9-1.6-5.7-.4-2.4-.6-4.3-.6-6.3 0-2.2.3-4.4.8-6.7.1-.4.1-.7.2-1l.3-.8c.6-2.2 1.5-4.2 2.6-5.8.7-1.1 1.5-2.1 2.4-3-1.3-3.1-2.5-6.3-3.5-9.6-.5-1.8-.8-3.1-1.1-4.3l-.2-.9c-.2-1.2-.4-2.3-.5-3.5l-.1-1.2c-.1-1.2 0-2.3 0-3.3 0-.7.1-1 .1-1.4.1-1.1.4-2.1.6-3.2.1-.6.2-1 .3-1.3.5-1.4 1.1-2.8 1.9-4a23.48 23.48 0 0 1 1.9-2.5c1.2-1.2 2.1-1.9 3-2.5l.9-.6c1-.6 2.1-1.1 3.3-1.6l.8-.2c1.4-.4 2.8-.7 4.3-.9.7-.1 1.3-.1 2-.2.4-.6.9-1.2 1.3-1.8 1.1-1.4 2-2.5 3-3.5l.9-.8c1.4-1.3 2.6-2.4 4-3.4 2.4-1.7 4.7-3 7.5-4.3l1-.5c.9-.4 1.8-.9 2.8-1.2 6.4-2.4 13.5-4 21-4.5 5.1-.4 10.6-.3 15.6.1l2.4.3c2 .2 3.9.6 5.6.9 1.3.3 2.6.5 3.8.9 1.6.4 3.1.8 4.5 1.3a38.48 38.48 0 0 1 2.6.9c2.2.8 4.2 1.7 6 2.7l.7.4c9.5 5.2 15.7 12.6 17.9 21.3 1.1 4.3 1.4 8.7 1.1 13.5 0 .9-.1 1.3-.1 1.8-.2 2.1-.6 4.3-1.1 6.3l-.4 1.7c-.6 2.3-1.3 4.4-2.1 6.8l-.2.6c0 .1-.1.2-.1.3l-.5 1.4c.8.9 1.5 1.8 2.1 2.8 2.4 3.8 3.7 8.6 3.7 13.9a36.06 36.06 0 0 1-.5 5.9c-.4 2.5-1 4.3-1.6 6.1-1.5 4.1-3.7 7.4-6.2 9.9-.3.3-.6.5-.9.8-.1 1.6-.3 3.1-.5 4.4l-.2 1.8c-.9 6.2-2.6 11.9-4.9 16.5-2.2 4.3-4.8 8-8 10.8v14.8c15.5 6.4 36.3 15.6 52.2 24.8l8.4 4.9-9.5 2.2c-26.7 6-46.8 33.4-46.2 52.9.1 2.3.1 3.9.3 5.3l.1 4.6zM62.7 45.9c.2 1.1.7 3 1 4.1 1.2 4.3 2.8 8.1 4.3 11.8l1.2 2.8-2.5 1.8c-1.1.8-2 1.8-2.8 3a13.93 13.93 0 0 0-1.7 3.9l-.4 1.3c-.4 1.7-.6 3.3-.6 4.9s.2 3.1.4 4.6c.3 1.9.7 3.4 1.2 4.7 1.1 2.9 2.6 5.2 4.3 6.9.6.5 1 .9 1.4 1.2l1.6 1.1.1 2c.1 2 .3 3.9.5 5.6l.2 1.7c.8 5.4 2.2 10.3 4.2 14.2 2.5 5 5.3 7.8 7.3 9.4l1.5 1.2v23.6l-2.4 1c-42.2 17.2-69.7 32.7-73.6 41.5-.3.6-.4 1-.4 1.3v37.8h143.3v-.9c-.7-21.3 17.2-48.3 43.2-58.6-16.1-8.6-35.1-16.6-45.9-21.1l-2.4-1v-23.4l1.5-1.4c2-1.5 4.8-4.3 7.3-9.3 2-4.1 3.5-8.8 4.3-14.3l.2-1.6c.2-1.8.4-3.7.5-5.6l.1-1.9 1.6-1.1c.4-.3.8-.6 1.2-1 1.9-1.9 3.4-4.3 4.4-7 .6-1.5 1-3 1.2-4.5.3-1.9.5-3.5.5-5 0-3.9-.9-7.3-2.5-9.9-.7-1.2-1.6-2.1-2.6-2.9l-2.3-1.8 1.2-2.7c.5-1.1 1-2.5 1.5-3.9l.5-1.3c.7-2 1.2-3.6 1.6-5.2l.2-1c.5-2.4.9-4.3 1.1-6v-.8c.3-4.8 0-8.5-.9-12-1.7-6.6-6.5-12.3-14-16.4-2.3-1.2-4-1.9-5.7-2.6-.6-.2-1.3-.4-1.9-.7l-4.3-1.3c-1.1-.3-2.3-.5-3.4-.8-1.7-.3-3.4-.6-5.1-.8l-2.2-.2c-4.5-.7-9.5-.8-14.2-.4-6.6.5-13 1.9-18.6 4-1 .4-1.7.7-2.4 1.1l-1 .5c-2.4 1.1-4.3 2.3-5.9 3.4-1.4 1-2.4 1.9-3.3 2.7l-.9.9-2.1 2.4c-1 1.2-1.6 2.1-2.2 3.1L78 29.1l-2.4-.1c-1.1 0-2.2 0-3.2.1s-1.9.3-2.7.5c-1.4.4-2 .8-2.6 1.1-1.1.7-1.6 1.1-2 1.5-.6.7-1 1.1-1.3 1.5-.5.8-.9 1.6-1.2 2.5l-.2.8c-.2.7-.3 1.3-.4 2.1l-.1 1c0 .8-.1 1.6 0 2.4l.1.9c.4.7.5 1.5.7 2.5M224.3 301c-31.6 0-57.4-25.8-57.4-57.4s25.8-57.4 57.4-57.4 57.4 25.8 57.4 57.4-25.6 57.4-57.4 57.4zm0-107.2c-27.4 0-49.7 22.3-49.7 49.7 0 27.5 22.3 49.7 49.7 49.7 27.5 0 49.7-22.3 49.7-49.7.2-27.4-22.2-49.7-49.7-49.7z"/><path d="M212.9 267.1c-1.5 0-2.9-.5-4.1-1.6l-14.6-13.6a3.81 3.81 0 1 1 5.2-5.6l13.3 12.6 35.6-33.4c1.6-1.5 4-1.4 5.4.2 1.5 1.6 1.4 4-.2 5.4l-36.9 34.5c-.9.9-2.3 1.5-3.7 1.5z"/></svg>