<svg xmlns="http://www.w3.org/2000/svg" width="296" height="297"  fill="#3e4f51"><path d="M295.4 148.1C296.1 70.2 232.8 3.9 154.3.3 115-1.4 77.6 12.3 48.9 38.6 19.8 65.5 2.2 103.2.6 142.1-.8 182 14.2 221.5 41.9 250.5c27.6 28.9 64.6 45 104.3 45.5h1.3c40.1 0 77.6-15.6 105.5-43.9 27.7-27.9 43.1-65.8 42.4-104zM147.5 278.3h-1.1c-34.8-.4-67.4-14.6-91.7-40C30 212.4 17 178.5 18.3 142.8c1.3-34.3 16.9-67.5 42.6-91.2 23.8-21.8 54.7-33.9 87.1-33.9h2.7c1 0 2 .1 3 .1C222.9 21 278.6 79.4 277.9 148v.3c.7 33.5-12.9 66.8-37.2 91.4-24.8 24.9-57.8 38.6-93.2 38.6zm59.3-93L173.3 84.7c-3.4-9.8-8.3-14-18.8-14l-11.5.2c-16 0-19.5 2.8-24.4 18.2L83 201.6c-3.5 11.1.7 20.2 10.5 23s18.2-2.1 21.7-12.6l7-22.4c.7-3.5 2.1-4.2 5.6-4.2h38.4c4.2 0 5.6 1.4 7 4.9l8.4 24.4c3.5 8.4 12.6 12.6 21 9.8 9.1-3.5 13.3-11.9 10.5-21l-6.3-18.2z"/></svg>