<svg xmlns="http://www.w3.org/2000/svg" width="216" height="292"  fill="#3e4e50"><path d="M206.2 291.2H9.8c-5.1 0-9.3-4.2-9.3-9.3v-44.1h215v44.1c0 5.1-4.2 9.3-9.3 9.3zM7.3 244.6v37.3c0 1.4 1.1 2.5 2.5 2.5h196.4c1.4 0 2.5-1.1 2.5-2.5v-37.3H7.3zM129 256.1h65.1v16.7H129zM108 50.2c-6.5 0-11.8-5.2-11.8-11.7v-.1c0-6.5 5.3-11.8 11.8-11.8s11.8 5.3 11.8 11.8-5.2 11.8-11.7 11.8h-.1zm97.9-3.4h-60.3V39c-.2-20.9-17.3-38-38.2-38.2-20.9.2-38 17.3-38.2 38.2v7.8h-59C5.1 46.8.9 51 .9 56.1v170.2h163.7c.1 0 .3-.1.4-.1v.1h50.102V56.1c.098-5.1-4.102-9.3-9.202-9.3zm2.5 172.7h-36.6c-.1-5.5-.7-17.8-3.5-25.4-3.1-8.6-14.6-12.5-30.5-18.1l-10.7-3.6v-6.5c3.2-2.7 8.7-8.4 9.7-19 2.6-2.6 4.1-6.4 4.1-10.8 0-3.6-.9-6.5-2.7-9.1 2.8-6.5 3.5-12.4 1.9-18-2.5-10.7-16.1-14.5-27-14.5-5.6 0-18.7.9-24.8 8.6-2.6.2-5.9.9-8.5 3.6-5.5 5.5-3.5 14.1-1.9 20 0 .1-.1.1-.1.2-.2.3-.4.6-.6.8l-.7 1.1c-1 2.3-1.5 4.7-1.6 7.3 0 4.6 1.5 8.3 4.2 10.5 1.6 10.9 6.4 16.4 9.6 18.8v7.6L78 176.6c-15.9 5.5-27.4 9.5-30.5 18.1-2.6 7.3-3.3 18.9-3.4 24.7H7.5V56.1c0-1.4 1.1-2.5 2.5-2.5h65.8V39C75.9 21.8 90 7.7 107.2 7.6c17.2.1 31.3 14.2 31.4 31.4v14.6h67.1c1.4 0 2.5 1.1 2.5 2.5v163.4h.2z"/></svg>