<svg xmlns="http://www.w3.org/2000/svg" width="301" height="292"  fill="#3e4e50"><path d="M290.2 234.2h-44.7c-.8 0-1.5-.6-1.5-1.3v-37.8c0-5.3-4.4-9.6-9.8-9.6h-44.7c-5.4 0-9.8 4.3-9.8 9.6v37.8c0 .7-.7 1.3-1.5 1.3h-44.7c-5.4 0-9.8 4.3-9.8 9.6v37.8c0 5.3 4.4 9.6 9.8 9.6h156.8c5.4 0 9.8-4.3 9.8-9.6v-37.8c-.1-5.3-4.5-9.6-9.9-9.6zm1.5 47.4c0 .7-.7 1.3-1.5 1.3H133.4c-.8 0-1.5-.6-1.5-1.3v-37.8c0-.7.7-1.3 1.5-1.3h44.7c5.4 0 9.8-4.3 9.8-9.6v-37.8c0-.7.7-1.3 1.5-1.3h44.7c.9 0 1.5.6 1.5 1.3v37.8c0 5.3 4.4 9.6 9.8 9.6h44.7c.8 0 1.5.6 1.5 1.3v37.8h.1zm-209-85.5H9.8c-5.4 0-9.8 4.3-9.8 9.6v75.9c0 5.3 4.4 9.6 9.8 9.6h72.8c5.4 0 9.8-4.3 9.8-9.6v-75.9c.1-5.3-4.3-9.6-9.7-9.6zm1.4 85.5c0 .7-.7 1.3-1.5 1.3H9.8c-.8 0-1.5-.6-1.5-1.3v-75.9c0-.7.7-1.3 1.5-1.3h72.8c.8 0 1.5.6 1.5 1.3v75.9zm76.2-76.3v-76.5c0-5.6-4.6-10.1-10.3-10.1H10.3c-5.7 0-10.3 4.5-10.3 10.1v35.6c0 5.6 4.6 10.1 10.3 10.1h91.3c1.1 0 2 .8 2 1.8V206c0 5.6 4.6 10.1 10.3 10.1H150c5.6 0 10.3-4.9 10.3-10.8zm-48.4.7v-29.7c0-5.6-4.6-10.1-10.3-10.1H10.3c-1.1 0-2-.8-2-1.8v-35.6c0-1 .9-1.8 2-1.8H150c1.1 0 2 .8 2 1.8v76.5c0 1.2-1 2.4-2 2.4h-36.1c-1.1.1-2-.7-2-1.7zM289.7 47.6h-36.8c-1.1 0-2-.8-2-1.8v-35c0-5.6-4.6-10.1-10.3-10.1h-48.4c-5.7 0-10.3 4.5-10.3 10.1v94.3c0 5.6 4.6 10.1 10.3 10.1H229c1.1 0 2 .8 2 1.8v35.6c0 5.6 4.6 10.1 10.3 10.1h48.4c5.7 0 10.3-4.5 10.3-10.1V57.7c0-5.6-4.6-10.1-10.3-10.1zm2 105c0 1-.9 1.8-2 1.8h-48.4c-1.1 0-2-.8-2-1.8V117c0-5.6-4.6-10.1-10.3-10.1h-36.8c-1.1 0-2-.8-2-1.8V10.8c0-1 .9-1.8 2-1.8h48.4c1.1 0 2 .8 2 1.8v34.9c0 5.6 4.6 10.1 10.3 10.1h36.8c1.1 0 2 .8 2 1.8v95zM10.3 104h145.8c5.7 0 10.3-4.5 10.3-10.1V59c0-5.6-4.6-10.1-10.3-10.1H70.9c-1.1 0-2-.8-2-1.8V17.4c0-5.6-4.6-10.1-10.3-10.1H10.3C4.6 7.4 0 11.9 0 17.4v76.5C0 99.5 4.6 104 10.3 104zm-2-86.6c0-1 .9-1.8 2-1.8h48.4c1.1 0 2 .8 2 1.8v29.7c0 5.6 4.6 10.1 10.3 10.1h85.2c1.1 0 2 .8 2 1.8v34.9c0 1-.9 1.8-2 1.8H10.3c-1.1 0-2-.8-2-1.8V17.4z"/></svg>