<svg xmlns="http://www.w3.org/2000/svg" viewBox="0 0 43.2 43.2" fill="#636466"><path d="M41.2 35h-7.1c-.5 0-.9-.4-.9-.9v-6.2c0-.5-.4-.9-.9-.9h-7.1c-.5 0-.9.4-.9.9v6.2c0 .5-.4.9-.9.9h-7.1c-.5 0-.9.4-.9.9v6.2c0 .5.4.9.9.9h24.9c.5 0 .9-.4.9-.9v-6.2c0-.5-.4-.9-.9-.9zm.9-27.7h-5.4c-.5 0-.9-.4-.9-.9V1.1c0-.5-.4-.9-.9-.9h-7.1c-.5 0-.9.4-.9.9v14.3c0 .5.4.9.9.9h5.4c.5 0 .9.4.9.9v5.4c0 .5.4.9.9.9h7.1c.5 0 .9-.4.9-.9V8.2c0-.5-.4-.9-.9-.9zm-41 7.3h21.4c.5 0 .9-.4.9-.9V8.4c0-.5-.4-.9-.9-.9H10c-.5 0-.9-.4-.9-.9V2.1c0-.5-.4-.9-.9-.9H1.1c-.5 0-.9.4-.9.9v11.6c0 .5.4.9.9.9zm20.5 16.9c.5 0 .9-.4.9-.9V19c0-.5-.4-.9-.9-.9H1.1c-.5 0-.9.4-.9.9v5.4c0 .5.4.9.9.9h13.4c.5 0 .9.4.9.9v4.5c0 .5.4.9.9.9h5.3zm-8.9-2.8H1.1c-.5 0-.9.4-.9.9v12.5c0 .5.4.9.9.9h11.6c.5 0 .9-.4.9-.9V29.6c0-.5-.4-.9-.9-.9z"/></svg>