<svg xmlns="http://www.w3.org/2000/svg" width="318" height="318"  fill="#3e4e50"><path d="M303.2 315.8H146.5c-7.9 0-14.3-6.3-14.3-14.1v-37.8c0-7.8 6.4-14.1 14.3-14.1h41.7v-34.6c0-7.8 6.4-14.1 14.3-14.1h44.7c7.9 0 14.3 6.3 14.3 14.1v34.6h41.7c7.8 0 14.3 6.3 14.4 14v37.9c-.1 7.7-6.5 14.1-14.4 14.1zm-153.8-17.3H300V267h-41.7c-7.9 0-14.3-6.3-14.3-14.1v-34.6h-38.7V253c0 7.8-6.4 14.1-14.3 14.1h-41.7v31.4h.1zm-61.9 19.3H14.8c-7.9 0-14.3-6.3-14.3-14.1v-75.9c0-7.8 6.4-14.1 14.3-14.1h72.9c3.8 0 7.6 1.6 10.2 4.3s4 6.2 4 9.9v75.8c0 7.7-6.5 14.1-14.4 14.1zm-69.7-17.3h66.8V231H17.8v69.5zm144.7-65.8h-37.9c-8.4 0-15.3-6.5-15.3-14.6v-27H15.8c-8.4 0-15.3-6.5-15.3-14.6v-35.6c0-8.1 6.9-14.6 15.3-14.6h146.8c8.4 0 15.3 6.5 15.3 14.6v76.5c-.1 8.4-6.9 15.3-15.4 15.3zM127 217.2h33.1v-71.7h-142v30.2h93.5c8.4 0 15.3 6.5 15.3 14.6v26.9h.1zm175.7-46h-48.4c-8.2 0-14.8-6.5-14.8-14.6v-32.9h-34.3c-8.2 0-14.8-6.5-14.8-14.6V14.9c0-8.1 6.6-14.6 14.8-14.6h48.4c8.2 0 14.8 6.5 14.8 14.6v32.3h34.3c8.2 0 14.8 6.5 14.8 14.6v94.9c0 8-6.7 14.5-14.8 14.5zM256.8 154h43.4V64.4h-34.3c-8.2 0-14.8-6.5-14.8-14.6V17.5h-43.4v88.9H242c8.2 0 14.8 6.5 14.8 14.6v33zM161 106.5H15.2C7.1 106.5.5 100 .5 92V15.5C.5 7.5 7.1 1 15.2.9h48.4c8.2 0 14.8 6.5 14.8 14.6v27H161c8.2 0 14.8 6.5 14.8 14.6V92c0 8-6.6 14.5-14.8 14.5zM17.8 89.2h140.9V59.8H76c-8.2 0-14.8-6.5-14.8-14.6v-27H17.8v71z"/></svg>