<svg xmlns="http://www.w3.org/2000/svg" viewBox="0 0 48 48" fill="#636466"><path d="M34 0c-6.9 0-12.7 4.5-13.8 10.8-.1.5-.2 1-.2 1.5l2 .6c2 .9 3.5 2.4 3.9 4.3.3 1.2.3 2.6-.1 4-.1.3-.1.6-.2.8.3.5.5 1.1.6 1.8 1.3.8 2.4 1.1 2.4 1.1.8.3 1.6.5 2.4.7v7.7l8.5-8.5C44.7 22.9 48 18.2 48 13c0-7.2-6.3-13-14-13zm-3.8 15H28v-2.2h2.2V15zm5.4 0h-2.2v-2.2h2.2V15zm3.2-2.2H41V15h-2.2v-2.2zm-6.9 28.8c-.9-2-7.4-4.8-10.9-6.3h0v-2.7c.4-.3.8-.8 1.2-1.5.3-.6.5-1.3.7-2.2v-.2c0-.3.1-.6.1-.9.1-.1.2-.1.2-.2h0c.3-.3.6-.7.8-1.2.1-.2.2-.5.2-.7v-.1c0-.3.1-.5.1-.8 0-.7-.2-1.3-.4-1.7-.1-.2-.3-.4-.5-.6.1-.2.2-.4.2-.6h0v-.1l.3-.9c0-.1 0-.2.1-.2.1-.3.1-.6.1-.9v-.2c0-.6 0-1.2-.1-1.8-.3-1.1-1.1-2.1-2.3-2.7h-.1c-.3-.1-.5-.3-.8-.4-.1 0-.2-.1-.3-.1-.2-.1-.4-.1-.6-.2-.2 0-.3-.1-.5-.1-.3 0-.5-.1-.8-.1h-.3c-.5-.2-.9-.2-1.3-.2h-1c-.9.1-1.9.3-2.8.6-.2.1-.3.1-.5.2-.3.2-.7.3-.9.5h-.1c-.2.1-.3.3-.5.4l-.1.1c-.1.1-.2.3-.3.4-.1.2-.3.3-.4.5h-.5c-.2 0-.3.1-.5.1h-.1c-.1.1-.3.1-.4.2 0 0-.1 0-.1.1-.1.1-.2.1-.3.2v.1c-.1.1-.2.2-.2.3-.2.3-.3.5-.3.6v.2c0 .1-.1.2-.1.4v.8c0 .1 0 .3.1.5v.1c0 .2.1.3.1.5v.1c.2.6.4 1.2.6 1.7-.2.2-.4.3-.5.6-.1.2-.2.4-.3.7v.2c-.1.3-.1.5-.1.8s0 .5.1.8v.1c0 .2.1.5.2.7.2.5.4.9.7 1.2h0c.1.1.2.1.2.2 0 .3 0 .6.1.9v.3c.1.9.4 1.6.7 2.2.4.8.8 1.2 1.2 1.5h0v2.7C7.5 36.9 1 39.8.1 41.8c-.1 0-.1.1-.1.2v6h32v-6c0-.1 0-.2-.1-.4z"/></svg>