<svg xmlns="http://www.w3.org/2000/svg" width="300" height="300"  fill="#3e4e50"><path d="M190.1 214.8v-52.2c-4.2-1-8.4-2.3-12.4-3.8-.2-.1-6.5-2.2-14.9-7.2l-1.4-.8-.2-1.6c-.5-3.6-1.6-6.9-3.2-9.6l-.7-1.3.5-1.4c.5-1.4.8-2.8 1.1-4.1l.2-.8c1.9-8 2-15.6.3-22.4-2.5-10.2-10.4-18.7-22-23.9-3.5-1.6-7.3-2.8-11.3-3.7l-2.8-.6.2-2.9c.3-3.5.7-6.6 1.2-9.5 7.2-39.6 43.8-68.3 87-68.3 48.7 0 88.2 36.9 88.2 82.2 0 32.7-20.7 62.2-52.8 75.3-5.3 5-19.7 19.3-40.9 40.5l-16.1 16.1zm-22.6-68.1c7.1 4.1 12.4 5.8 12.4 5.9 4.7 1.8 9.4 3.2 14.2 4.2l2.7.5v41.4l4.7-4.7 41.5-41.1 1-.7c29.9-12 49.2-39.2 49.2-69.3 0-41.6-36.6-75.5-81.6-75.5-40 0-73.8 26.4-80.4 62.8-.4 1.9-.6 3.9-.9 6.1 3.4.9 6.6 2.1 9.7 3.4 13.6 6 22.7 16.1 25.8 28.3 2 7.9 1.9 16.5-.3 25.6l-.2.7c-.3 1.1-.5 2.2-.8 3.3 1.4 2.7 2.4 5.8 3 9.1zm89.9-48.3h-19.8V78.6h19.8v19.8zm-13.1-6.7h6.5v-6.5h-6.5v6.5zm-19.7 6.7h-19.8V78.6h19.8v19.8zm-13.2-6.7h6.5v-6.5h-6.5v6.5zm-19.7 6.7h-19.8V78.6h19.8v19.8zm-13.1-6.7h6.5v-6.5h-6.5v6.5zm22.2 207.5H.1v-39.7c0-1.2.3-2.3.7-3.5l.3-.6c5-11.5 38-27.2 65.6-38.6v-13c-2.7-2.4-5.1-5.6-7-9.3-2.1-4.2-3.5-9.1-4.3-14.5l-.1-1c-.2-1.7-.4-3.1-.5-4.5-.2-.1-.3-.3-.5-.4-2.5-2.4-4.3-5.3-5.6-8.7-.6-1.7-1.1-3.3-1.4-5-.4-2.1-.5-3.8-.5-5.6 0-2 .2-3.9.7-5.8.1-.3.1-.6.2-.8l.2-.7c.6-1.9 1.3-3.6 2.3-5.1.6-1 1.3-1.8 2.1-2.6-1.1-2.7-2.2-5.5-3-8.4-.4-1.5-.7-2.7-.9-3.8l-.2-.8c-.2-1-.3-2-.4-3l-.1-1c-.1-1 0-1.9 0-2.9 0-.6 0-.9.1-1.2.1-.9.3-1.9.6-2.8.1-.5.2-.8.3-1.1.4-1.2 1-2.4 1.7-3.5.5-.8 1.1-1.5 1.7-2.1 1-1 1.8-1.6 2.6-2.2l.6-.4c1.1-.6 2-1.1 3.1-1.5l.7-.2c1.2-.4 2.4-.6 3.7-.7.6-.1 1.2-.1 1.8-.1.4-.5.7-1 1.1-1.5 1-1.3 1.7-2.2 2.6-3l.8-.7c1.2-1.1 2.3-2 3.4-2.9 2.1-1.5 4.1-2.6 6.6-3.8l.8-.4c.8-.4 1.6-.8 2.4-1.1 5.6-2.1 11.9-3.4 18.3-4 4.5-.3 9.2-.3 13.6.1l2.1.2c1.7.2 3.3.5 4.9.8 1.1.2 2.2.5 3.3.7 1.4.4 2.7.7 4 1.2l2.2.7c1.9.7 3.6 1.5 5.3 2.4l.6.3c8.3 4.5 13.7 10.9 15.6 18.6.9 3.7 1.2 7.6 1 11.9l-.1 1.5c-.2 1.8-.5 3.7-.9 5.6l-.3 1.5c-.5 2-1.1 3.9-1.8 5.9-.3.7-.5 1.4-.7 1.9.7.7 1.3 1.6 1.9 2.4 2.1 3.3 3.2 7.5 3.2 12.2 0 1.8-.2 3.5-.5 5.2-.4 2.1-.8 3.8-1.4 5.4-1.3 3.5-3.2 6.5-5.4 8.6-.3.3-.5.5-.8.7-.1 1.4-.2 2.7-.4 3.9l-.2 1.6c-.8 5.5-2.3 10.3-4.3 14.4l-.3.5c-1.9 3.6-4.1 6.6-6.8 8.9v13c27.6 11.4 60.6 27.1 65.8 38.9l.1.2c.5 1.2.7 2.4.7 3.5v39.8h-.2zm-194-6.6h187.4v-33.1c0-.3-.1-.6-.2-1l3-1.5-3 1.3c-3.4-7.7-27.4-21.2-64.3-36.3l-2.1-.8v-20.4l1.3-1.2c2.5-2 4.7-4.7 6.4-8.1l.2-.4c1.6-3.4 2.8-7.5 3.5-12.2l.2-1.4c.2-1.5.4-3.2.5-4.9l.1-1.7 1.4-.9c.4-.2.7-.6 1.1-.9 1.7-1.6 3-3.7 3.9-6.2.5-1.3.8-2.6 1.1-3.9.3-1.7.4-3 .4-4.4 0-3.4-.7-6.4-2.2-8.7-.6-1-1.4-1.8-2.2-2.5l-2-1.6 1-2.3c.4-1 .9-2.1 1.3-3.3.8-2.2 1.4-4 1.8-5.7l.3-1.3c.4-1.6.7-3.2.8-4.8l.1-1.3c.2-3.6 0-6.8-.8-9.8-1.4-5.8-5.7-10.8-12.3-14.4-2-1-3.5-1.7-5.1-2.3a9.83 9.83 0 0 0-1.6-.5c-1.5-.5-2.7-.8-3.9-1.1-1-.2-2-.5-3-.7-1.4-.3-2.9-.5-4.5-.7l-1.9-.2c-4-.4-8.4-.4-12.5-.1-5.8.5-11.4 1.7-16.2 3.5-.9.3-1.5.6-2.1.9l-.9.4c-2.1 1-3.8 2-5.2 3-1.2.9-2.1 1.6-2.9 2.4l-.8.7c-.7.7-1.2 1.4-1.8 2.1-.8 1.1-1.4 1.8-1.9 2.7l-1 1.9-2.1-.1c-1 0-1.9 0-2.7.1-.9.1-1.6.3-2.3.5-1.2.4-1.8.7-2.3 1-.9.6-1.3.9-1.7 1.2-.4.5-.7.8-1 1.1l-.2.4c-.4.6-.7 1.3-.9 2l-.2.7c-.2.6-.3 1.2-.4 1.8l-.1.8c0 .7-.1 1.4 0 2.1l.1.8.3 2.5-3.1 1.3 3.3-.7c.2 1 .4 1.9.7 2.9 1.1 3.7 2.5 7.1 3.8 10.2l1 2.4-2.1 1.6c-.9.7-1.8 1.6-2.4 2.6-.6.9-1.1 2.1-1.5 3.4l-.3 1.1c-.3 1.4-.5 2.9-.5 4.3s.1 2.7.4 4c.3 1.6.6 2.9 1.1 4.1 1 2.5 2.2 4.6 3.7 6 .5.4.8.8 1.2 1l1.4.9.1 1.7c.1 1.8.3 3.3.5 4.9l.2 1.5c.7 4.8 1.9 9 3.7 12.4 2.2 4.4 4.7 6.9 6.4 8.2l1.3 1v20.6l-2.1.8c-36.9 15.1-61 28.6-64.3 36.3-.2.5-.3.8-.3 1.1v33.2h-.1z"/></svg>