<svg xmlns="http://www.w3.org/2000/svg" width="308" height="312"  fill="#3e4e50"><path d="M267.9 53h14.5v14.5h-14.5zm-22.7 0h14.5v14.5h-14.5zm-22.6 0h14.5v14.5h-14.5zm18.1 201.3c-5.4-12.1-30.1-27.1-75.4-46v-9.5c2.7-2.7 5.1-6 7.2-10l.5-.8c2.6-5.4 4.5-11.5 5.4-18.1l.2-1.8a13.33 13.33 0 0 0 .3-2.8c2.9-2.9 5.3-6.8 7-11.3.9-2.4 1.4-4.8 1.9-7.1.4-2.5.7-4.7.7-6.9 0-6.3-1.5-12-4.4-16.6 0-.1-.1-.1-.1-.2l-.2-.3c-.1-.2-.3-.4-.4-.6l-.1-.1c.9-2.5 1.5-4.7 2.1-6.8l.4-1.9c.5-2.3.9-4.6 1.1-6.9l.1-2c.3-5.6-.2-10.5-1.3-15.1-2.5-10.2-9.6-18.8-20.5-24.6l-.8-.4c-2.4-1.3-4.5-2.2-6.7-3l-.1-.1c-.2-.1-.4-.1-.6-.2s-.3-.1-.5-.2c-.4-.1-.8-.3-1.3-.4-1.3-.5-2.5-.8-3.7-1.1l-1.2-.3-.5-.1c-.6-.1-1.1-.2-1.7-.4-.7-.2-1.4-.3-2.1-.4-1.9-.4-3.9-.7-6-1l-2.6-.2c-5.1-.5-10.8-.5-16.5-.1h-.1c-8.2.8-15.8 2.4-22.4 4.9-1.2.4-2.2 1-3.2 1.5l-.9.4c-3.5 1.7-5.9 3.1-8.4 4.8l-.3.2c-1.3 1.1-2.6 2.1-4.1 3.5l-.9.8c-1.4 1.3-2.4 2.6-3.6 4.1-1.9.2-3.6.5-5.2 1l-.4-.2-.4.1c-1.6.6-2.8 1.2-4.1 1.9l-1.4 1c-1 .7-2.1 1.6-3.5 3-1.1 1.1-2 2.2-2.6 3.3-1.1 1.7-1.9 3.4-2.5 5.1-.1.4-.3.8-.4 1.6-.4 1.4-.7 2.6-.8 3.6-.2.8-.2 1.6-.2 2.3v1c0 .8-.1 1.8 0 2.9l.1 1.2c.1 1.3.3 2.5.5 3.9l.2 1c.3 1.4.6 2.9 1.1 4.6.7 2.6 1.6 5.1 2.5 7.4-.3.4-.6.8-.9 1.3-1.3 1.9-2.3 4.2-3.2 7.1l-.2.7c-.2.5-.2.9-.3 1.1v.1c-.7 2.5-1 5.1-1 8 0 1.9.1 4.3.7 7.3.4 2.5 1.2 4.7 1.8 6.6v.1c1.7 4.4 4 8 6.9 11.1.1.6.1 1.2.2 1.9l.3 2.6v.2c1 6.9 2.9 13.1 5.5 18.3 2.1 4 4.6 7.7 7.5 10.6v9.5c-45.2 18.7-69.8 33.7-75 45.5l-.5.9-.1.3c-.6 1.7-1.1 3.5-1.1 5.6v50.8h241.6v-50.9c0-2.1-.4-4.1-1.2-6l-.2-.3zm-16.4 39.6H18.4v-32.7c2.2-4.6 19.5-17.9 71.3-39l5.6-2.1v-29.7l-3.5-2.7c-1.3-1-3.7-3.2-5.9-7.7l-.1-.1c-1.7-3.3-3-7.5-3.7-12.6l-.3-2.2c-.2-1.6-.4-3.1-.5-4.9l-.3-4.5-3.8-2.4h-.1c-.2-.2-.5-.4-.7-.6-.7-.7-1.8-2.1-3-5.1-.4-1-.7-2.2-1-3.7v-.2c-.2-1-.3-2.1-.3-3.5 0-1.1.2-2.4.4-3.8l.3-1c.5-1.5.9-2.2 1.1-2.5l.1-.2c.3-.5.9-1.1 1.5-1.6l5.5-4.2-2.6-6.3c-1.5-3.7-3-7.3-4.2-11.3a24.6 24.6 0 0 1-.7-2.9l-.3-1.7c-.1-.5-.1-1-.2-1.5l-.1-1v-1.4l.1-.5c.1-.5.2-.9.3-1.2l.3-1c.1-.4.2-.7.4-.9l.2-.3.5-.5c.3-.2.6-.5 1.2-.8.2-.1.6-.3 1.5-.6.6-.2 1.1-.3 1.8-.4.6-.1 1.4-.1 2.4-.1l5.5.3 2.6-4.9c.2-.4.6-.9 1-1.5.2-.3.4-.6.7-.9.2-.3.4-.5.6-.8.3-.4.6-.8 1-1.1l.8-.7.2-.2c.7-.7 1.4-1.3 2.8-2.3s3.2-2 5.1-3l1.2-.5c.6-.3 1.1-.5 1.8-.8l.2-.1c5.1-1.9 11.1-3.2 17.3-3.7 4.7-.3 9.5-.3 13.5.1l2.1.2c1.7.2 3.3.4 4.8.7.5.1 1 .2 1.5.4.6.2 1.2.3 1.8.4 1.3.3 2.5.6 4 1.1l.6.2c.1 0 .5.1 1 .3h.1c1.7.6 3.3 1.4 5.3 2.4 6.3 3.5 10.4 8.1 11.6 13.3v.1c.7 2.7 1 5.8.8 9.7l-.1 1.5c-.1 1.3-.3 2.9-.8 4.7l-.3 1.5c-.4 1.5-.9 3.3-1.9 6v.1l-.9 2.4c-.1.4-.3.7-.4 1l-2.6 6.1 5.2 4.2c.7.6 1.2 1.1 1.5 1.6l.1.2c1.1 1.7 1.7 4.3 1.7 7.3 0 1.4-.1 2.6-.4 4.1-.3 1.3-.6 2.6-1 3.7v.1c-.8 2.1-1.8 3.8-3.1 5.1-.3.2-.5.4-.6.6l-3.8 2.4-.3 4.5c-.1 2-.4 4-.5 5.2l-.2 1.6c-.7 4.8-1.9 9.1-3.6 12.6l-.2.4c-1.6 3.1-3.6 5.7-6 7.7l-3.4 3.1v29.2l5.6 2.1c50.4 20.6 68.2 33.8 71.1 38.7l.1.2v32.8h-.4zM241.7.5c-25.9 0-48.7 14-59.4 34.9-2.3 4.4-4 9.2-5.1 14.1-.1.3-.2.7-.2 1 .2.1.4.1.6.2l.1.1c2.2.8 4.3 1.8 6.7 3l.8.4a27.55 27.55 0 0 1 2.9 1.7c12.6 10.6 19.2 29.8 16.3 50.3-.2 1.3-.4 2.6-.7 3.9-.2.5-.3 1-.5 1.6l.1.1s0 .1.1.1c.1.2.2.3.4.5l.2.3c0 .1.1.1.1.2l1.3.8c3.3 1.9 6.6 3.6 9.9 4.9.3.1.6.3 1 .4l.3.1c1.8.7 3.5 1.3 5.3 1.8V165l19.6-19.6 27.4-27.2c23.5-10 38.6-31.9 38.6-56.1 0-34-29.5-61.6-65.8-61.6zm20.4 104.7l-.5.2-1.8 1.2c-2.8 2.6-10.1 9.8-23.4 23.1v-20.6l-5.9-1.1c-3-.6-5.9-1.5-9-2.7-.1-.1-.3-.1-.5-.2-.6-.2-1.7-.7-3.2-1.4 2.2-25.1-6.8-48.3-23-61.2 8.1-16.5 26-27.6 46.7-27.6 28.2 0 51.2 21.1 51.2 47 .2 18.9-11.9 35.8-30.6 43.3z"/></svg>