<svg xmlns="http://www.w3.org/2000/svg" width="231" height="298"  fill="#3e4f51"><path d="M102.7 232H65.3a8.24 8.24 0 0 1-8.2-8.2v-11.1c-5.3-2.1-10.2-4.9-15.1-8.7l-10.2 5.8c-3.9 2.2-8.8.8-11.1-3L2 174.4c-2.2-3.9-.9-8.9 3-11.1l9.8-5.7c-.3-2.8-.5-5.7-.5-8.5s.2-5.6.5-8.5L5 134.9c-1.9-1.1-3.2-2.9-3.8-4.9-.6-2.1-.3-4.3.8-6.2l19-32.5c2.2-3.9 7.2-5.2 11.1-3l10 5.7c4.9-3.8 9.7-6.6 15-8.7V74.2a8.24 8.24 0 0 1 8.2-8.2h37.4a8.24 8.24 0 0 1 8.2 8.2v11.2c5 2 9.6 4.8 14.3 8.6l9.4-5.6c1.9-1.1 4.2-1.4 6.3-.8 2 .5 3.9 1.9 4.9 3.8l18.7 32.4c2.2 3.9.9 8.9-3 11.1l-9.8 5.7c.4 2.8.5 5.7.5 8.5s-.2 5.7-.5 8.5l9.8 5.7a8.12 8.12 0 0 1 3.8 4.9c.6 2.1.3 4.3-.8 6.2L146 206.7c-1.1 1.9-2.8 3.2-5 3.8-2.1.6-4.3.3-6.2-.8l-9.6-5.6c-4.8 3.8-9.4 6.6-14.4 8.6v11.2c0 4.4-3.6 8.1-8.1 8.1zm-59.9-36.4l1.8 1.5c5.5 4.6 10.9 7.7 17.1 9.9l2.3.8v16c0 .7.5 1.2 1.2 1.2h37.4c.7 0 1.2-.5 1.2-1.2v-16l2.3-.8c5.9-2.1 10.8-5 16.4-9.8l1.9-1.6 13.8 8.1c.3.2.6.2.9.1s.6-.3.7-.6l18.6-32.4c.2-.4.2-.7.1-.9 0-.2-.2-.5-.6-.7h0l-13.9-8 .4-2.3c.5-3.2.8-6.5.8-9.8 0-3.2-.3-6.5-.8-9.8l-.4-2.4 13.9-8c.6-.3.8-1.1.4-1.6l-18.7-32.4c-.2-.3-.4-.5-.7-.5-.3-.1-.6 0-.9.1l-13.7 8.1-1.9-1.6c-5.6-4.8-10.5-7.7-16.4-9.8l-2.3-.8v-16c0-.7-.5-1.2-1.2-1.2H65.3c-.7 0-1.2.5-1.2 1.2v16l-2.4.6c-6.1 2.1-11.6 5.3-17.1 9.9l-1.9 1.5-14.1-8.1c-.6-.3-1.3-.1-1.6.5L8.2 127.2c-.2.3-.2.6-.1.9s.3.6.5.7l13.9 8.1-.4 2.4c-.5 3.3-.8 6.6-.8 9.8s.3 6.5.8 9.8l.4 2.4-13.9 8c-.6.3-.8 1.1-.4 1.6l18.7 32.4c.3.6 1.1.8 1.6.4l14.3-8.1zm40.5-10.4c-20 0-36.2-16.2-36.2-36.2s16.2-36.2 36.2-36.2 36.2 16.2 36.2 36.2-16.2 36.2-36.2 36.2zm0-65.5C67.2 119.7 54 132.8 54 149s13.1 29.3 29.3 29.3c16.1 0 29.3-13.1 29.3-29.3s-13.1-29.3-29.3-29.3zM191.5 101h-18.7a8.24 8.24 0 0 1-8.2-8.2v-5.2c-2.1-1-4.2-2.1-6-3.4l-4.9 2.7c-3.9 2.2-8.8.8-11-3l-9.4-16.2c-1.1-1.9-1.4-4.1-.8-6.2s1.9-3.9 3.8-4.9l4.5-2.6c-.1-1.1-.1-2.2-.1-3.3s.1-2.2.1-3.3l-4.4-2.6c-1.9-1.1-3.2-2.9-3.8-5-.5-2.1-.2-4.3.8-6.2l9.4-16.2c2.2-3.8 7.2-5.2 11.1-3l4.7 2.7c1.9-1.2 3.9-2.4 6-3.4v-5a8.24 8.24 0 0 1 8.2-8.2h18.7a8.24 8.24 0 0 1 8.2 8.2V14c1.8.9 3.6 2 5.3 3.1l4.1-2.5c1.8-1.1 4.1-1.5 6.2-.9s3.9 1.9 5 3.8l9.4 16.2c2.2 3.9.9 8.9-3 11.1l-4.5 2.6c.1 1.1.1 2.2.1 3.3s0 2.2-.1 3.3l4.5 2.6c3.9 2.2 5.2 7.2 3 11.1L220.5 84c-1.1 1.9-2.9 3.3-5 3.8-2.1.6-4.3.3-6.2-.8l-4.3-2.5c-1.7 1.2-3.5 2.3-5.4 3.2V93c.1 4.4-3.6 8-8.1 8zm-32.4-24.9l1.8 1.4c2.5 1.9 5.4 3.5 8.5 4.8l2.2.9V93c0 .7.5 1.2 1.2 1.2h18.7c.7 0 1.2-.5 1.2-1.2v-9.8l2.1-.9c2.8-1.2 5.4-2.8 7.8-4.7l1.9-1.5 8.3 4.9c.3.2.6.2.9.1s.6-.3.7-.6l9.3-16.2c.3-.6.1-1.3-.4-1.6l-8.5-4.9.3-2.3c.2-1.5.3-3.1.3-4.7 0-1.5-.1-3.1-.3-4.7l-.3-2.3 8.5-4.9c.6-.3.8-1.1.4-1.6l-9.4-16.2c-.2-.3-.4-.5-.8-.6-.3-.1-.6 0-.9.1l-8.2 4.9-1.9-1.5c-2.4-1.9-5-3.4-7.8-4.6l-2.1-.9V8.7c0-.7-.5-1.2-1.2-1.2h-18.7c-.7 0-1.2.5-1.2 1.2v9.8l-2.2.9c-3.1 1.3-6.1 2.9-8.5 4.8l-1.8 1.4-8.6-4.9c-.6-.3-1.3-.1-1.6.4l-9.4 16.2c-.2.3-.2.6-.1.9s.3.6.5.7l8.4 4.9-.3 2.3c-.2 1.6-.4 3.2-.4 4.7a37.08 37.08 0 0 0 .3 4.7l.3 2.3-8.5 4.9c-.3.2-.5.4-.6.7s0 .6.1.9l9.4 16.2c.3.6 1 .8 1.6.4l9-4.8zm22.4-3.1c-12.2 0-22.2-10-22.2-22.2s9.9-22.2 22.2-22.2 22.2 10 22.2 22.2S193.8 73 181.5 73zm0-37.4c-8.4 0-15.2 6.8-15.2 15.2S173.1 66 181.5 66s15.2-6.8 15.2-15.2-6.8-15.2-15.2-15.2zm10.1 261.8h-18.7c-4.5 0-8.2-3.7-8.2-8.1v-5.2c-2.1-1-4.1-2.1-6-3.4l-4.7 2.7c-3.9 2.2-8.8.8-11.1-3l-9.4-16.2c-1.1-1.9-1.4-4.1-.8-6.2s1.9-3.9 3.8-5l4.4-2.6c-.1-1.1-.1-2.2-.1-3.3s0-2.2.1-3.3l-4.5-2.6a8.12 8.12 0 0 1-3.8-4.9c-.6-2.1-.3-4.3.8-6.2l9.3-16.2c2.2-3.8 7.2-5.2 11-3l4.9 2.7c1.9-1.3 3.9-2.4 6-3.4V205c0-4.5 3.7-8.1 8.2-8.1h18.7c4.5 0 8.2 3.7 8.2 8.1v5.3c1.9.9 3.6 2 5.4 3.2l4.3-2.5c1.9-1.1 4.1-1.4 6.2-.9s3.9 1.9 5 3.8l9.3 16.2c2.2 3.9.9 8.9-3 11.1l-4.5 2.6c.1 1.1.1 2.2.1 3.3s0 2.2-.1 3.3l4.5 2.6c3.9 2.2 5.2 7.2 3 11.1l-9.4 16.2c-1.1 1.9-2.9 3.3-5 3.8s-4.4.2-6.2-.9l-4.1-2.4c-1.7 1.2-3.5 2.2-5.3 3.1v5.3c-.1 4.6-3.8 8.2-8.3 8.2zm-32.4-24.9l1.8 1.4c2.5 1.9 5.4 3.5 8.5 4.8l2.2.9v9.8c0 .7.5 1.2 1.2 1.2h18.7c.7 0 1.2-.5 1.2-1.2v-9.8l2.1-.9c2.8-1.2 5.4-2.7 7.8-4.6l1.9-1.5 8.1 4.9c.3.2.6.2.9.1s.6-.3.8-.6l9.4-16.2c.3-.6.1-1.3-.4-1.6l-8.5-4.9.3-2.3a37.08 37.08 0 0 0 .3-4.7c0-1.6-.1-3.2-.3-4.7l-.3-2.3 8.5-4.9c.6-.3.8-1.1.4-1.6l-9.3-16.2c-.2-.3-.4-.5-.7-.6s-.6 0-.9.1l-8.3 4.9-1.9-1.5c-2.4-1.9-5-3.5-7.8-4.7l-2.1-.9v-9.8c0-.7-.5-1.2-1.2-1.2h-18.7c-.7 0-1.2.5-1.2 1.2v9.8l-2.2.9c-3.1 1.3-6.1 2.9-8.5 4.8l-1.8 1.4-8.8-4.9c-.6-.3-1.3-.1-1.6.4l-9.3 16.2c-.2.3-.2.6-.1.9s.3.6.6.7l8.5 4.9-.3 2.3a37.08 37.08 0 0 0-.3 4.7c0 1.5.1 3.1.4 4.7l.3 2.3-8.4 4.9c-.3.2-.5.4-.6.7s0 .6.1.9l9.4 16.2c.3.6 1.1.8 1.6.4l8.5-4.8zm22.4-3.1c-12.2 0-22.2-10-22.2-22.2s9.9-22.2 22.2-22.2c12.2 0 22.2 10 22.2 22.2s-9.9 22.2-22.2 22.2zm0-37.4c-8.4 0-15.2 6.8-15.2 15.2s6.8 15.2 15.2 15.2 15.2-6.8 15.2-15.2S190 232 181.6 232z"/></svg>