<svg xmlns="http://www.w3.org/2000/svg" width="310" height="310"  fill="#3e4e50"><path d="M308.8 132.2c-2.5-5-7.8-10.4-15.4-10.4h-28.2c-1.7-6-3.4-12-5.7-17.5l20.3-20.4c3-3 4.6-6.6 4.6-10.3 0-3.3-1.4-8.1-5.2-11l-33.6-33.7c-5.3-5.3-14.2-5.5-20.9-.4l-.3.2L204 49.4c-5.5-2.3-11.5-4.1-17.3-5.7V15.2c0-8.3-6.7-15-14.9-15h-36.2c-8.2 0-14.9 6.7-14.9 15v28.4c-5.9 1.7-11.8 3.4-17.2 5.6L83.6 28.3c-5.3-5.3-14.2-5.5-20.9-.4l-.2.1-34.4 34.6c-5.2 5.3-5.4 14.2-.4 20.9l.2.3 20.6 20.7c-2.3 5.6-4.1 11.7-5.7 17.4H15.2c-8.2 0-14.9 6.7-14.9 15v36.4c0 8.3 6.7 15 14.9 15h28.2c1.7 6 3.4 12 5.7 17.5L28.8 226c-3 3-4.6 6.6-4.6 10.3 0 3.3 1.4 8.1 5.2 11L63 281.1c5.3 5.3 14.2 5.5 20.9.4l.3-.2 20.6-20.6c5.6 2.3 11.6 4.1 17.3 5.7v28.4c0 8.3 6.7 15 14.9 15h36.2c8.2 0 14.9-6.7 14.9-15v-28.4c6-1.7 12-3.5 17.4-5.7l20.2 20.3c5.3 5.3 14.2 5.5 20.9.4l.3-.2 34.4-34.6c5.3-5.3 5.4-14.3.4-20.9l-.2-.3-20.6-20.7c2.3-5.6 4.1-11.7 5.7-17.4h28.2c8.2 0 14.9-6.7 14.9-15V134l-.9-1.8zm-55.5 37.7l-2.6 9.1-3.5 11.8c-1.6 5.1-3.1 8.9-4.7 12.1l-2.8 5.7L267 236l-30.7 30.8-27.5-27.6-5.8 3.2c-2.6 1.4-6 2.8-10.7 4.3-3.7 1.2-7.6 2.3-11.4 3.4l-10.5 3v39h-31v-39l-8.9-2.6c-6.3-1.8-12.8-3.6-18.5-5.9-2.1-.8-3.9-1.6-5.5-2.4l-5.7-2.9-27.3 27.5-30.4-30.4L70.3 209l-3.1-5.8c-.8-1.5-1.6-3.3-2.6-5.9-1.9-4.9-3.5-10.5-5.1-16.2l-3-10.6H17.8v-31.1H56l2.6-9 2.6-8.8c1.4-4.5 3.3-10.3 5.7-15.2l2.8-5.7-27.4-27.4 30.6-30.8 26.7 28.4 6-3.3c5-2.7 12.2-4.9 19.1-6.9l13.5-3.8v-39h31v39l9.1 2.6c4.6 1.3 9.4 2.7 14 4.3 4.1 1.4 7.2 2.7 9.8 4l5.7 2.9L235 43.1l30.4 30.4-27.3 27.4 3.1 5.8c.2.4.4.9.7 1.5.1.3.3.6.4.9 2.5 5.4 4.5 12.4 6.6 19.8l3 10.6h40.2V170h-38.8v-.1zm-98.3-96c-44.7 0-81.1 36.4-81.1 81.1s36.4 81.1 81.1 81.1 81.1-36.4 81.1-81.1-36.4-81.1-81.1-81.1zm9 143.5v-45l25.1 9.1c2.4.9 4.5-1.9 2.9-4-13.6-17.9-26.2-42.3-34.6-63.6a2.57 2.57 0 0 0-4.8 0c-8.5 21.3-21 45.7-34.6 63.6-1.6 2 .5 4.8 2.9 4l25.1-9.1v45c-30.5-4.4-54.1-30.7-54.1-62.4 0-34.8 28.3-63.1 63.1-63.1s63.1 28.3 63.1 63.1c0 31.7-23.6 58-54.1 62.4z"/></svg>