<svg xmlns="http://www.w3.org/2000/svg" width="288" height="300"  fill="#3e4e50"><path d="M221.5 264.6c-2.8-3.2-7.6-3.9-11.2-1.6-19.3 12.1-42 19.1-66.3 19.1-37.4 0-71.1-16.6-94.2-42.7-3.8 4.6-8.8 8.1-14.5 10 26.2 30.7 65.1 50.2 108.6 50.2 27.7 0 53.6-7.9 75.5-21.5 4.7-3 5.7-9.4 2.1-13.5zm48.4-108.9c0 10.7-1.4 20.9-3.8 30.8 6.1.6 11.7 2.9 16.4 6.4a142.67 142.67 0 0 0 4.9-37.2c0-52.7-28.2-98.7-70.3-123.8-4.6-2.8-10.6-.9-12.7 4.1-1.7 4.1-.1 8.7 3.6 10.9 37 22 61.9 62.5 61.9 108.8zM111.7 21.2c0-2 .2-4 .6-5.9-12 2.7-23.8 7-35.2 13C30.7 52.8 3.3 99.3.7 148.4c-.3 5.4 4.2 9.8 9.5 9.3 4.4-.4 7.7-3.9 7.9-8.3 2.3-43.1 26.4-84.1 67.2-105.6 9.3-4.9 19-8.5 28.7-10.9-1.4-3.6-2.3-7.6-2.3-11.7zM144 .5c-11.4 0-20.6 9.3-20.6 20.7S132.6 42 144 42s20.6-9.3 20.6-20.7S155.4.5 144 .5zM263 198c-11.4 0-20.6 9.3-20.6 20.7 0 11.5 9.3 20.7 20.6 20.7s20.6-9.3 20.6-20.7c.1-11.4-9.1-20.7-20.6-20.7zm-238 0c-11.4 0-20.6 9.3-20.6 20.7 0 11.5 9.3 20.7 20.6 20.7s20.6-9.3 20.6-20.7c.1-11.4-9.2-20.7-20.6-20.7zm154.1-42.4h63.3c3.3 0 6-2.8 5.8-6.2-2-34-20-63.6-46.8-81.3-2.8-1.9-6.6-1-8.3 2L161 125.9c10.6 5.7 17.7 16.9 18.1 29.7zm-17 31.3c-5.3 3.2-11.5 5.1-18.1 5.1s-12.8-1.9-18-5l-31.2 54.2a5.84 5.84 0 0 0 2.5 8.2c28.6 14.4 63.1 15.3 93.5 0 3-1.5 4.2-5.3 2.5-8.2l-31.2-54.3zm-35.2-61L94.8 70.1c-1.7-2.9-5.5-3.8-8.3-2-26.6 17.7-44.8 47.3-46.8 81.3-.2 3.4 2.5 6.2 5.8 6.2h63.3c.5-12.8 7.6-24 18.1-29.7zm17.1 9.9c-11.4 0-20.6 9.3-20.6 20.7s9.3 20.7 20.6 20.7c11.4 0 20.6-9.3 20.6-20.7.1-11.3-9.2-20.7-20.6-20.7z"/></svg>