<svg xmlns="http://www.w3.org/2000/svg" viewBox="0 0 41.6 43.2" fill="#636466"><path d="M4.9 34.3c.1 0 .2-.1.2-.1s-.1.1-.2.1zm.3-.2c.1 0 .1-.1.2-.1-.1 0-.1.1-.2.1zm.9-.8c-.2.3-.4.5-.6.7.2-.2.4-.5.6-.7zm-2.2 1.3c.1 0 .2 0 .3-.1-.1.1-.2.1-.3.1zm.7-.2c.1 0 .2-.1.2-.1 0 .1-.1.1-.2.1zm27.5 3.9c-.4-.5-1.1-.6-1.6-.2-2.8 1.7-6.1 2.8-9.6 2.8-5.4 0-10.3-2.4-13.7-6.2-.5.7-1.3 1.2-2.1 1.4 3.8 4.4 9.5 7.2 15.8 7.2 4 0 7.8-1.1 10.9-3.1.6-.4.8-1.4.3-1.9z"/><path d="M4.3 34.5c.1 0 .2 0 .3-.1-.1.1-.2.1-.3.1zm34.4-5.8h-.2.2zm.3.1c-.1 0-.1 0-.2-.1.1 0 .2.1.2.1zm.3.1c-.1 0-.1-.1-.2-.1.1 0 .1.1.2.1zm-1.2-.3h0s-.1 0 0 0h0c-.1 0 0 0 0 0zm2 .8l.2.2-.2-.2z"/><path d="M39.1 22.5a17.4 17.4 0 0 1-.6 4.5c.9.1 1.7.4 2.4.9.5-1.7.7-3.5.7-5.4 0-7.6-4.1-14.3-10.2-17.9-.7-.4-1.5-.1-1.8.6-.2.6 0 1.3.5 1.6 5.4 3.2 9 9 9 15.7zm1 6.9l-.2-.2c.1.1.1.2.2.2z"/><path d="M39.6 29c-.1 0-.1-.1-.2-.1.1.1.1.1.2.1zm.3.2c-.1-.1-.1-.1-.2-.1 0 0 .1.1.2.1zM18.2 4.4c-.2-.5-.4-1-.3-1.5v.2c-.1.5 0 .9.3 1.3 0 .1 0 0 0 0zm-2.1-1.3c0-.3 0-.6.1-.9-1.7.4-3.5 1-5.1 1.9C4.4 7.7.4 14.4 0 21.5c0 .8.6 1.4 1.4 1.3.6-.1 1.1-.6 1.1-1.2.3-6.2 3.8-12.1 9.7-15.3 1.3-.7 2.7-1.2 4.2-1.6-.1-.4-.3-1-.3-1.6z"/><path d="M20.8.1c-1.7 0-3 1.3-3 3s1.3 3 3 3 3-1.3 3-3-1.3-3-3-3zm17.3 28.5c-1.7 0-3 1.3-3 3s1.3 3 3 3 3-1.3 3-3a3.01 3.01 0 0 0-3-3zm-34.5 0c-1.7 0-3 1.3-3 3s1.3 3 3 3 3-1.3 3-3a3.01 3.01 0 0 0-3-3zm22.3-6.1h9.2c.5 0 .9-.4.8-.9-.3-4.9-2.9-9.2-6.8-11.7-.4-.3-1-.1-1.2.3l-4.7 8.1c1.6.8 2.7 2.4 2.7 4.2zM23.4 27c-.8.5-1.7.7-2.6.7-1 0-1.8-.3-2.6-.7l-4.5 7.8c-.2.4-.1 1 .4 1.2 4.1 2.1 9.2 2.2 13.6 0 .4-.2.6-.8.4-1.2L23.4 27zm-5.1-8.8l-4.7-8.1c-.2-.4-.8-.5-1.2-.3-3.8 2.6-6.4 6.9-6.7 11.8 0 .5.4.9.8.9h9.2a5.37 5.37 0 0 1 2.6-4.3zm2.5 1.5c-1.7 0-3 1.3-3 3s1.3 3 3 3 3-1.3 3-3-1.3-3-3-3z"/></svg>