<svg xmlns="http://www.w3.org/2000/svg" xmlns:xlink="http://www.w3.org/1999/xlink" viewBox="0 0 160.7 49"><g fill-rule="evenodd"><g fill="#3e4e50"><path d="M5.4 38.4l.3-.1-.3.1m.3-.1l.3-.2c-.1 0-.2.1-.3.2m1-1c-.2.3-.4.6-.7.8.3-.3.5-.5.7-.8m-2.4 1.5c.1 0 .2 0 .4-.1-.1 0-.3 0-.4.1m.8-.2l.3-.1-.3.1m30.6 4.2c-.5-.5-1.2-.6-1.8-.3-3.2 2-6.9 3.1-10.7 3-6.1 0-11.5-2.6-15.2-6.8-.6.7-1.4 1.3-2.3 1.6 4.2 4.9 10.5 8 17.5 8 4.3 0 8.5-1.2 12.2-3.5.7-.3.9-1.3.3-2"/><path d="M4.7 38.7l.3-.1-.3.1m38.4-6.5h-.2.2m.4.1l-.2-.1.2.1m.3.2l-.2-.1.2.1m-1.4-.3h0m2.3.9l.2.2c0-.1-.1-.2-.2-.2m-1.2-7.7c0 1.7-.2 3.3-.6 4.9 1 .1 1.9.5 2.6 1 .5-1.9.8-3.9.8-6C46.3 17 41.8 9.6 35 5.6c-.7-.4-1.7-.1-2 .7-.3.6 0 1.4.6 1.7a20.25 20.25 0 0 1 9.9 17.4m1.2 7.6l-.2-.2.2.2"/><path d="M44.1 32.6l-.2-.1.2.1m.3.2l-.2-.2.2.2M20.2 5.3c-.3-.5-.4-1.1-.4-1.6v.2c0 .5.2 1 .4 1.4h0M18 3.9c0-.3 0-.6.1-.9-2 .4-3.9 1.1-5.7 2.1C5.1 8.8.4 16.1 0 24.2c0 .9.7 1.6 1.5 1.5.7-.1 1.2-.6 1.3-1.3.4-7.2 4.5-13.6 10.8-16.9 1.5-.8 3.1-1.4 4.6-1.7-.1-.6-.2-1.3-.2-1.9"/></g><path d="M23.2.6a3.33 3.33 0 0 0-3.3 3.3 3.33 3.33 0 0 0 3.3 3.3 3.33 3.33 0 0 0 3.3-3.3C26.5 2 25 .6 23.2.6m19.2 31.6a3.33 3.33 0 0 0-3.3 3.3 3.33 3.33 0 0 0 3.3 3.3 3.33 3.33 0 0 0 3.3-3.3c0-1.9-1.4-3.4-3.3-3.3m-38.5 0a3.33 3.33 0 0 0-3.3 3.3 3.33 3.33 0 0 0 3.3 3.3 3.33 3.33 0 0 0 3.3-3.3c.1-1.9-1.4-3.4-3.3-3.3" fill="#f58320"/><path d="M61 4.9h6.1v1.5h-4.5v2.4h4.2v1.5h-4.2v3.8H61V4.9zM72.9 14h-1.4v-1a1.41 1.41 0 0 1-.6.7c-.3.2-.7.3-1.1.3s-.7-.1-1-.2-.5-.3-.7-.5-.3-.5-.4-.7-.1-.6-.1-.8V8.2H69v3.4c0 .2.1.4.1.6.1.2.2.3.3.4.2.1.3.2.6.2.2 0 .5 0 .6-.1.2-.1.3-.2.4-.3s.2-.3.2-.5.1-.4.1-.6V8.2h1.4l.2 5.8zm4.5-4.2c-.3-.4-.7-.6-1.1-.6-.2 0-.4 0-.6.1a.55.55 0 0 0-.3.5c0 .2.1.3.2.4.2.1.3.1.6.2l.8.2c.3.1.5.1.8.3.2.1.4.3.6.5s.2.5.2.9c0 .3-.1.6-.2.9-.1.2-.3.4-.6.6-.2.1-.5.3-.8.3-.3.1-.6.1-.9.1-.4 0-.8-.1-1.2-.2s-.7-.4-1-.7l1-.9c.2.2.4.4.6.5s.5.2.8.2h.3c.1 0 .2-.1.3-.1.1-.1.2-.1.2-.2.1-.1.1-.2.1-.3 0-.2-.1-.3-.2-.4-.2-.1-.3-.2-.6-.2l-.8-.2c-.3-.1-.5-.1-.8-.3-.2-.1-.4-.3-.6-.5s-.2-.5-.2-.9c0-.3.1-.6.2-.8s.3-.4.5-.6a1.08 1.08 0 0 1 .7-.3c.3-.1.6-.1.9-.1.4 0 .8.1 1.1.2.4.1.7.4.9.7l-.9.7zm2 4.2h1.4V8.2h-1.4V14zm-.2-7.7c0-.2.1-.4.3-.6s.4-.3.7-.3c.2 0 .5.1.7.2 0 .2.1.4.1.7 0 .2-.1.5-.3.6-.2.2-.4.3-.7.2a1.08 1.08 0 0 1-.7-.3c0-.1-.1-.3-.1-.5h0zm3.9 4.8c0 .2 0 .4.1.6l.3.6c.2.2.3.3.5.4s.5.1.7.1.5 0 .7-.1.4-.2.5-.4.3-.3.3-.6c.2-.4.2-.9 0-1.3l-.3-.6c-.2-.2-.3-.3-.5-.4s-.5-.1-.7-.1-.5 0-.7.1-.4.2-.5.4-.3.3-.3.6c-.1.2-.1.4-.1.7m-1.5 0c0-.4.1-.8.2-1.2.2-.4.4-.7.7-1s.6-.5 1-.6c.5-.2.9-.3 1.3-.3s.8.1 1.2.2.7.3 1 .6.5.6.7 1 .3.8.2 1.2c0 .4-.1.8-.2 1.2-.2.4-.4.7-.7 1s-.6.5-1 .6-.8.2-1.2.2-.8-.1-1.2-.2-.7-.3-1-.6-.5-.6-.7-1c-.2-.3-.3-.7-.3-1.1m7.1-2.9h1.4v.9a1.41 1.41 0 0 1 .6-.7c.3-.2.7-.3 1.1-.3s.7.1 1 .2.5.3.7.5.3.5.4.7c.1.3.1.5.1.8V14h-1.4v-3.5c0-.2-.1-.4-.1-.6-.1-.2-.2-.3-.3-.4s-.3-.2-.6-.2c-.2 0-.5 0-.6.1-.2.1-.3.2-.4.3s-.2.3-.2.5-.1.4-.1.6v3.1h-1.4l-.2-5.7z" fill="#3e4e50"/><path d="M100.2 10.7l-1.3-3.4-1.3 3.4h2.6zm-1.9-5.2h1.3l3.7 8.5h-1.7l-.8-1.9H97l-.7 1.9h-1.7l3.7-8.5zm10.5 8.5h-1.4v-1a1.41 1.41 0 0 1-.6.7c-.3.2-.7.3-1.1.3s-.7-.1-1-.2-.5-.3-.7-.5-.3-.5-.4-.7c-.1-.3-.1-.6-.1-.8V8.2h1.4v3.4c0 .2.1.4.1.6a1.38 1.38 0 0 0 .3.4c.2.1.3.2.6.2.2 0 .5 0 .6-.1.2-.1.3-.2.4-.3s.2-.3.2-.5.1-.4.1-.6V8.2h1.4l.2 5.8zm.5-4.6V8.2h1.2V6.5h1.4v1.7h1.6v1.2h-1.6v2.5c0 .3.1.5.2.7s.3.3.6.3h.4c.1 0 .3-.1.4-.1V14c-.2.1-.4.1-.6.1h-.6c-.3 0-.6 0-.9-.1-.2-.1-.4-.2-.6-.4l-.3-.6c-.1-.3-.1-.6-.1-.9V9.4h-1.1zm6.3-.4h0c.1-.2.3-.5.6-.7s.7-.3 1.1-.3.7.1 1 .2.5.3.7.5.3.5.4.7c.1.3.1.6.1.8v3.6H118v-3.3c0-.2-.1-.4-.1-.6-.1-.2-.2-.3-.3-.4-.2-.1-.4-.2-.6-.2s-.5 0-.6.1c-.2.1-.3.2-.4.3s-.2.3-.2.5-.1.4-.1.6V14h-1.4V5h1.4l-.1 4z" fill="#f58320"/></g><g fill="#3e4e50"><path d="M69.8 34l-2.7-3.9h-2.9V34H61V20h6c3.7 0 6.1 1.9 6.1 5.1 0 2.1-1.1 3.6-2.9 4.4l3.1 4.5h-3.5zm-3-11.4h-2.6v4.9h2.6c2 0 3-.9 3-2.4 0-1.6-1-2.5-3-2.5zm18.3 6.9H77c.3 1.3 1.4 2.2 3.1 2.2 1.1 0 2-.3 2.7-1l1.7 1.8c-1 1.1-2.5 1.7-4.4 1.7-3.7 0-6.1-2.3-6.1-5.5s2.5-5.5 5.7-5.5 5.6 2.1 5.6 5.6c-.1.1-.2.4-.2.7zm-8.2-1.8h5.3c-.2-1.4-1.2-2.2-2.6-2.2-1.4-.1-2.5.8-2.7 2.2z"/><use xlink:href="#B"/><path d="M95.5 28.6c0-3.2 2.5-5.5 5.9-5.5s5.9 2.3 5.9 5.5-2.5 5.5-5.9 5.5-5.9-2.3-5.9-5.5zm8.7 0c0-1.9-1.2-3-2.7-3s-2.8 1.1-2.8 3 1.2 3 2.8 3 2.7-1.1 2.7-3zm15.3-5.4V34h-3v-1.3c-.8.9-2 1.4-3.3 1.4-2.7 0-4.6-1.5-4.6-4.8v-6.1h3.1v5.6c0 1.8.8 2.6 2.2 2.6s2.5-.9 2.5-2.9v-5.3h3.1zm8.8-.1V26h-.7c-1.7 0-2.9.9-2.9 3v5h-3.1V23.2h3v1.4c.7-1 2-1.5 3.7-1.5zm.1 5.5c0-3.2 2.5-5.5 6-5.5 2.3 0 4 1 4.8 2.7l-2.4 1.3c-.6-1-1.4-1.5-2.4-1.5-1.6 0-2.8 1.1-2.8 3s1.2 3 2.8 3c1 0 1.8-.4 2.4-1.5l2.4 1.3c-.8 1.7-2.6 2.7-4.8 2.7-3.5 0-6-2.3-6-5.5zm22.2.9h-8.1c.3 1.3 1.4 2.2 3.1 2.2 1.1 0 2-.3 2.7-1l1.7 1.8c-1 1.1-2.5 1.7-4.4 1.7-3.7 0-6.1-2.3-6.1-5.5s2.5-5.5 5.7-5.5 5.6 2.1 5.6 5.6c-.1.1-.2.4-.2.7zm-8.2-1.8h5.3c-.2-1.4-1.2-2.2-2.6-2.2-1.4-.1-2.4.8-2.7 2.2z"/><use xlink:href="#B" x="65.5"/><path d="M23.2 12.9c-6.9 0-12.4 5.6-12.4 12.4s5.6 12.4 12.4 12.4 12.4-5.6 12.4-12.4-5.5-12.4-12.4-12.4zm0 22.1c-5.3 0-9.6-4.3-9.6-9.6s4.3-9.6 9.6-9.6 9.6 4.3 9.6 9.6-4.3 9.6-9.6 9.6zM5.6 38.4c.1 0 .2-.1.3-.1-.2 0-.3.1-.3.1z"/><path d="M5.9 38.3c.1-.1.2-.1.3-.2-.2 0-.3.1-.3.2z"/><path d="M6.9 37.3c-.2.3-.4.6-.7.8.2-.3.5-.5.7-.8zm-2.4 1.5c.1 0 .2 0 .4-.1-.2 0-.3.1-.4.1zm.7-.2c.1 0 .2-.1.3-.1-.1 0-.2 0-.3.1zm30.4 4.2c-.5-.5-1.2-.6-1.8-.3-3.1 1.9-6.7 3-10.7 3-6 0-11.4-2.6-15.1-6.8-.6.7-1.4 1.3-2.3 1.6 4.2 4.9 10.5 8 17.4 8 4.4 0 8.6-1.3 12.1-3.5.9-.3 1-1.3.4-2z"/><path d="M4.9 38.7c.1 0 .2-.1.3-.1-.1 0-.2.1-.3.1zM43 32.2h-.2.2zm.3.1c-.1 0-.2 0-.2-.1.1.1.2.1.2.1zm.4.2c-.1 0-.2-.1-.2-.1s.1 0 .2.1zm-1.4-.3h0zm2.3.9l.2.2-.2-.2zm-1.2-7.7c0 1.7-.2 3.4-.6 4.9 1 .1 1.9.5 2.6 1 .5-1.9.8-3.9.8-6 0-8.4-4.5-15.8-11.3-19.8-.7-.4-1.7-.1-2 .7-.3.6 0 1.4.6 1.7 5.9 3.6 9.9 10.1 9.9 17.5zm1.1 7.6c-.1-.1-.2-.1-.2-.2l.2.2z"/><path d="M44 32.6c-.1 0-.2-.1-.2-.1s.1.1.2.1zm.3.2c-.1-.1-.2-.1-.2-.2 0 .1.1.2.2.2zm-24-27.5c-.3-.5-.4-1.1-.4-1.6v.2c0 .5.1 1 .4 1.4 0 .1 0 .1 0 0 0 .1 0 0 0 0zM18 3.9c0-.3 0-.6.1-.9-1.9.4-3.8 1.1-5.6 2.1C5 8.9.6 16.4.2 24.2c0 .9.7 1.6 1.5 1.5.7-.1 1.2-.6 1.3-1.3.4-6.9 4.2-13.5 10.8-16.9 1.5-.8 3-1.4 4.6-1.7-.3-.6-.4-1.3-.4-1.9z"/></g><path d="M23.2.6a3.33 3.33 0 0 0-3.3 3.3 3.33 3.33 0 0 0 3.3 3.3 3.33 3.33 0 0 0 3.3-3.3A3.33 3.33 0 0 0 23.2.6zm19.1 31.6a3.33 3.33 0 0 0-3.3 3.3 3.33 3.33 0 0 0 3.3 3.3 3.33 3.33 0 0 0 3.3-3.3c0-1.9-1.5-3.3-3.3-3.3zm-38.2 0a3.33 3.33 0 0 0-3.3 3.3 3.33 3.33 0 0 0 3.3 3.3 3.33 3.33 0 0 0 3.3-3.3c0-1.9-1.5-3.3-3.3-3.3zm21.8-9.1c0-1.6-1.4-2.9-3.1-2.7-1.2.1-2.2 1.1-2.4 2.3s.4 2.3 1.4 2.8l-.8 4.4c-.1.3.2.6.5.6H25c.3 0 .5-.3.5-.6l-.9-4.4c.8-.5 1.3-1.4 1.3-2.4z" fill="#f58320"/><defs ><path id="B" d="M85.4 33l1-2.2c1 .6 2.4 1 3.7 1 1.4 0 2-.4 2-1 0-1.8-6.5 0-6.5-4.3 0-2 1.8-3.5 5-3.5 1.5 0 3.1.3 4.1.9l-1 2.2c-1.1-.6-2.1-.8-3.1-.8-1.4 0-2 .4-2 1 0 1.8 6.5.1 6.5 4.3 0 2-1.9 3.4-5.1 3.4-1.7.1-3.6-.4-4.6-1z"/></defs></svg>