<svg xmlns="http://www.w3.org/2000/svg" width="300" height="304"  fill="#3e4e50"><path d="M207.1 20.9L146.7 1.5c-2.3-.8-4.8-.8-7.2 0L79 20.9c-2.8.9-5.1 2.8-6.6 5.3-1 1.8-1.6 3.8-1.6 5.8v76.5c0 6.3 4 11.8 10 13.7l57.8 18.6c1.4.5 2.9.7 4.4.7s3-.2 4.4-.7l57.8-18.6c6-1.9 10-7.4 10-13.7V32.1c.1-5.1-3.2-9.6-8.1-11.2zM141.8 8.7c.8-.3 1.7-.3 2.6 0l57.3 18.4-58.5 19.6-57.4-20 56-18zM83.2 115.1c-2.8-.9-4.7-3.5-4.7-6.5V32.2l52.1 18.1 8.8 3.1v2.1l.2 31.7v8l.2 38.1-56.6-18.2zm124.5-6.5c0 3-1.9 5.6-4.7 6.5L147.3 133l-.2-38v-8l-.2-33.7L207.7 33v75.6zM104.8 149l-46-14.8c-2-.6-4.1-.6-6 0L6.8 149c-2.3.8-4.3 2.3-5.5 4.5-.9 1.5-1.3 3.2-1.3 4.9v56.2c0 6.3 4 11.8 10 13.7l41.4 13.3c1.4.5 2.9.7 4.4.7s3-.2 4.4-.7l41.4-13.3c6-1.9 10-7.4 10-13.7v-56.3c0-4.3-2.8-8-6.8-9.3zm-49.7-7.6c.4-.1.9-.1 1.4 0l40.9 13.2-41.5 13.9-40.7-14.2 39.9-12.9zm-42.8 79.7c-2.8-.9-4.7-3.5-4.7-6.5v-54.9L52 175.2v2.2l.1 21.6v8l.1 27-39.9-12.9zm91.7-6.5c0 3-1.9 5.6-4.7 6.5L60 233.8l-.1-26.9v-8l-.1-23.7 8.8-3 35.6-11.9v54.3h-.2zm186.9-52.2l-71.1-22.9c-2.6-.8-5.4-.8-8.1 0l-71.1 22.9c-3.1 1-5.7 3.1-7.4 6-1.1 2-1.7 4.2-1.7 6.5v91.3c0 6.3 4 11.8 10 13.7l69.8 22.5c1.4.5 2.9.7 4.4.7s3-.2 4.4-.7l69.8-22.5c6-1.9 10-7.4 10-13.7v-91.3c.1-5.7-3.6-10.7-9-12.5zm-76.8-15.6c1.1-.4 2.3-.4 3.4 0l69.2 22.3-70.9 23.7-69.5-24.2 67.8-21.8zm-70.2 125.9c-2.8-.9-4.7-3.5-4.7-6.5v-91.3c0-.3.2-.5.2-.7l72.7 25.3v2l.2 39.1v7.9l.3 46.3-68.7-22.1zm148.5-6.5c0 3-1.9 5.6-4.7 6.5l-67.6 21.7-.4-95 9.1-3 63.7-21.3v91.1h-.1z"/></svg>