<svg xmlns="http://www.w3.org/2000/svg" width="310" height="314"  fill="#3e4e50"><path d="M84.3 132l57.7 18.6c1.8.6 3.8 1 6 1s4.2-.3 6-1l57.7-18.6c8.1-2.6 13.5-10 13.5-18.5V37.2c.1-7.3-4.5-13.7-11.5-16.1L153.3 1.8C150 .7 146.4.7 143 1.8L82.5 21.1c-3.9 1.2-7.2 3.9-9.4 7.5l-.1.1a16.56 16.56 0 0 0-2.2 8.2v76.5A19.48 19.48 0 0 0 84.3 132zm55.3-39.8v8l.2 31.2-50-16.1c-.7-.2-1.2-.9-1.2-1.7V44.2l50.9 17.7.1 30.3zm8.5-73.7l42.6 13.7-42.4 14.2-41.7-14.5 41.5-13.4zm8.9 43.4l50.8-17v68.7c0 .8-.5 1.5-1.2 1.7l-49.2 15.8-.2-31.2v-8l-.2-30zm-45.6 87.3l-46.1-14.8c-3-.9-6.1-.9-9 0l-46 14.8h-.1c-3.6 1.2-6.5 3.6-8.2 6.7-1.3 2.2-2 4.7-2 7.4v56.2c0 8.5 5.4 15.9 13.5 18.5l41.3 13.3c1.8.6 3.8 1 6 1s4.2-.3 6-1l41.3-13.3c8.1-2.6 13.5-10 13.5-18.5v-56.3c0-6.3-4.1-12-10.2-14zm-59.2 82.9l-33.3-10.8c-.7-.2-1.2-.9-1.2-1.7v-47.9l34.4 12 .1 48.4zm8.8-63.9l-25-8.7 24.9-8.1 25.6 8.3-25.5 8.5zm43.2 4v42.4h-.2v5c0 .8-.5 1.5-1.2 1.7L70 231.9l-.2-48.2 5.4-1.8 29-9.7zm205.701 7.8c.099-7.8-4.901-14.8-12.401-17.3l-71.2-22.9c-3.5-1.1-7.3-1.1-11 0l-71.2 22.9c-4.3 1.4-7.9 4.3-10.2 8.2l-.1.1c-1.5 2.8-2.3 5.8-2.3 8.9v91.3c0 8.5 5.4 15.9 13.5 18.5l69.7 22.5c1.8.6 3.8 1 6 1s4.2-.3 6-1l69.7-22.5c8.1-2.6 13.501-10 13.501-18.5V180zM212.6 292.9l-62.1-20c-.7-.2-1.2-.9-1.2-1.7v-85l62.9 21.9.2 37.5v7.9l.2 39.4zm79.9-26.7h0l-.1 5c0 .8-.5 1.5-1.2 1.7l-61.1 19.6-.2-39.2v-8l-.2-37.4 5.7-1.9 57.1-19.1v79.3zm-71.6-73.7l-53.8-18.7 53.8-17.3 54.9 17.7-54.9 18.3z"/></svg>