<svg xmlns="http://www.w3.org/2000/svg" viewBox="0 0 41.6 43.2" fill="#636466"><path d="M9.1 15.4V4.5l9 2.5v12.6l-8.5-3.4c-.3-.1-.5-.4-.5-.8zm9.9-10L9.6 2.8h.1L18.8 0h.5l9.1 2.7h.1L19 5.4zm9.4 10.8l-8.5 3.4V7L29 4.5v10.9c0 .4-.3.7-.6.8zM16.3 30.8c0 .3-.2.7-.5.8L9.1 35v-9l7.2-2.5v7.3zm-15.7-9l7.2-2.7c.2-.1.5-.1.7 0l7.2 2.7-7.6 2.6-7.5-2.6zM7.2 26v9L.5 31.6c-.3-.2-.5-.5-.5-.8v-7.3L7.2 26zm22.4-6c.2-.1.4-.1.6 0l9.7 3.2-10 3.9-10-3.9 9.7-3.2zm12 18.9c0 .4-.2.7-.6.9l-10.2 3.4V28.7l10.9-4.2v14.4zM29 43.2l-10.2-3.4c-.4-.1-.6-.5-.6-.9V24.4L29 28.7v14.5z"/></svg>