<svg xmlns="http://www.w3.org/2000/svg" width="252" height="290"><path d="M122.9 289.5l-4.2-1.3C18 257.7.9 193.8.8 193.2l-.1-.8v-49.3h50.4l.3 3c3.1 37.4 31.9 66.7 68.6 69.9l3 .3v73.2h-.1zM7.2 191.9c1.4 4.9 19.5 60 109.1 88.7v-58.4c-37.5-4.6-66.8-34.4-71.3-72.5H7.2v42.2zm120.7 97.6v-73.3l3-.3c37-3.1 66-32.5 69.1-69.9l.3-3H251l-.1 50.1c-.2.6-17.3 64.5-118.8 95l-4.2 1.4zm6.6-67.3v58.4c90.4-28.7 108.5-83.7 110-88.7v-42.3h-38.2c-4.5 38.2-34.1 68-71.8 72.6zm4.3-43.2h-25.6c-.8 0-3.1 0-4.6-2.7-1.2-1.5-1.2-3-1.2-3.8l4.2-29.2c-5.9-4.6-9.3-11.5-9.3-18.7 0-13.3 10.4-23.7 23.7-23.7s23.7 10.4 23.7 23.7c0 8.2-3.3 15-9.3 19.5l4.2 28.6c0 1.3 0 3.1-1.6 4.7l-1 1h-.9c-.6.3-1.4.6-2.3.6zm-24.8-6.5h23.9l-4.6-31.6 1.9-1.1c5.2-3.1 8-8.3 8-15.1 0-9.6-7.5-17.2-17.2-17.2s-17.2 7.5-17.2 17.2c0 5.7 3 11.1 8.1 14.5l1.7 1.1-4.6 32.2zm137.3-34.4h-51l-.3-3c-3.1-37.1-31.9-66.2-68.6-69.2l-3-.3V.5l5.8 7c12.3 14.7 30 23.1 50 23.7 16.7 0 33.5-6.5 52.9-20.5 1.8-1.9 6.2-2.9 9.5-.7h0c2.9 1.9 4.7 4.9 4.7 7.8v120.3zm-45-6.5h38.5V17.9c0-.6-.5-1.6-1.7-2.4h0c-.5-.3-1.3 0-1.6.2-21 15.2-39.1 22.1-57.3 22.1-19-.6-36.1-7.6-49.1-19.9v41.8c37.4 4.5 66.7 34.1 71.2 71.9zm-155.2 6.5H.7V17.9c0-3 1.7-5.9 4.7-7.8 3-2 6.7-1.4 9-.2 19.9 14.2 36.7 20.7 53.5 20.7 19.8 0 37.5-8.2 49.9-23.1l5.8-7v65.2l-3.1.2c-36.3 2.4-66.1 32.2-69.2 69.2l-.2 3zm-43.9-6.5H45c4.5-37.8 34.7-68 71.9-71.9V17.9c-13.1 12.5-30.3 19.3-49.1 19.3-18.2 0-36.3-6.9-56.9-21.7-.2-.1-1.4-.3-2 .1-1.2.8-1.7 1.8-1.7 2.4v113.6z" fill="#3e4e50"/></svg>