<svg xmlns="http://www.w3.org/2000/svg" width="269" height="319"  fill="#3e4e50"><path d="M120.7 165.9l-5 35.1h36.6l-5-34.3c6.1-4.2 9.4-10.9 9.4-19 0-12.7-10-22.7-22.7-22.7s-22.7 10-22.7 22.7c0 7 3.5 13.7 9.4 18.2z"/><path d="M135.2.4h0l-16.7 18.9-.1.1C107 33 90.8 40.5 72.6 40.5c-15.5 0-31.5-6.3-50.3-19.7l-.6-.4c-3.6-1.9-9.5-2.9-14.5.5C2.7 23.8 0 28.4 0 33.3V159l.1 56.5.2.8c2.1 7.1 22.8 68.6 122.4 98.6l11.3 3.8h0l11.3-3.8c99.5-29.9 120.2-91.3 122.4-98.6l.3-.8.1-56.5V33.3c0-4.9-2.7-9.5-7.2-12.4-5-3.3-11-2.3-14.5-.5l-.6.4C227 34.2 211 40.5 195.5 40.5c-18.1 0-34.3-7.5-45.6-21L135.4.5m16.1 293.9v-46c36.4-6.5 64.7-35.1 71.1-71.8h27.9v36c-2.7 8.2-21.1 54.7-99 81.8zm99.1-152.9H223c-6.4-36.4-35.3-65.3-71.1-71.2V44.8c12.6 8.6 27.7 13.3 43.6 13.3 17.9 0 35.5-6.1 55.1-19.3v102.7zm-233.2 0V38.8C37 51.9 54.6 58.1 72.5 58.1c15.9 0 31-4.7 43.6-13.3v25.5c-35.8 5.9-64.7 34.8-71.1 71.2H17.4zm188.7 25.4h0c-2.9 34.8-29.8 62.1-64.2 65l-7.9.8-8-.8C91.7 229 64.8 201.7 61.9 167l-.8-8H61l.5-8.1c2.9-34.3 30.4-61.9 64.1-64.1l8.5-.6 8.3.5c33.7 2.2 61.2 29.8 64.1 64.1l.5 8.1M17.5 176.6h27.9c6.4 36.7 34.7 65.3 71.1 71.8v46c-77.9-27.1-96.3-73.7-99-81.9v-35.9z"/></svg>