<svg xmlns="http://www.w3.org/2000/svg" viewBox="0 0 320 320"  fill="#3e4e50"><path d="M249.2 262.9h-91.4c-21.4 0-26.4 0-31.6-.1-6.6 0-14.1-.1-54.7-.1H61.2c-7.5-.6-22.1-2.9-35.1-11.4C14.5 243.8.7 228.9.7 200.9c0-33.2 26.1-60.3 58.9-61.9 9.8-47.1 51.8-81.8 100.6-81.8 18.6 0 36.9 5.1 53 14.9 14.7 8.9 26.9 21.2 35.5 35.8 18.5 1.6 35.7 9.7 48.8 23.1 14.3 14.6 22.1 33.9 22.1 54.3 0 35.1-18.9 54.4-34.8 64.4-16.7 10.5-33.2 13-34.7 13.2h0-.9zM62.1 246.2h9.3l86.3.2H248c1.5-.2 15.1-2.6 28.4-11.1C294 224 303 207.1 303 185.2c0-16.1-6.2-31.2-17.4-42.7s-26.2-18-42.2-18.4l-4.8-.1-2.3-4.3c-14.8-28-44.8-46-76.3-46-43 0-79.8 32.1-85.5 74.7l-1 7.7-7.8-.6c-1.1-.1-2.2-.1-3.3-.1-25 0-45.4 20.4-45.4 45.5 0 37.3 31.3 44.1 45.1 45.3zm78-19.2c18.2 0 33.1-14.8 33.1-33.1 0-4.8-1-9.4-3-13.7l12.7-12.7h7.9v-7.9l.9-.9h7.9v-7.9l.9-.9h7.9V142l4.4-4.4V121h-16.4l-42.7 42.7c-4.3-2-8.9-3-13.7-3-18.2 0-33.1 14.8-33.1 33.1s15 33.2 33.2 33.2zm-8.8-33.1c4.9 0 8.8 4 8.8 8.8 0 4.9-4 8.8-8.8 8.8-4.9 0-8.8-4-8.8-8.8 0-4.9 4-8.8 8.8-8.8z"/></svg>