<svg xmlns="http://www.w3.org/2000/svg" viewBox="0 0 36.8 47.8" fill="#636466"><path d="M25.6 26.8l-2-1.1c.1-.6.1-1.1.1-1.7s0-1.1-.1-1.7l2-1.1c.4-.2.5-.7.3-1.1l-3.1-5.3c-.1-.2-.3-.3-.5-.4s-.4 0-.6.1l-1.9 1.1c-.9-.7-1.7-1.3-2.9-1.7v-2.2c0-.4-.3-.8-.8-.8H10c-.4 0-.8.3-.8.8v2.2c-1.1.4-2 .9-3 1.7l-2-1.1c-.4-.2-.8-.1-1.1.3L.1 20c-.1.2-.1.4-.1.6.1.2.2.4.4.5l1.9 1.1c-.1.6-.1 1.1-.1 1.7s0 1.1.1 1.7l-2 1.1c-.3.3-.4.7-.2 1.1l3.1 5.3c.2.4.7.5 1 .3l2-1.1c1 .8 1.9 1.4 3 1.7v2.2c0 .4.3.8.8.8h6.2c.4 0 .8-.3.8-.8V34c1.2-.4 2-1 2.9-1.7l1.9 1.1c.2.1.4.1.6.1.2-.1.4-.2.5-.4l3.1-5.3c.1-.4 0-.8-.4-1zM13 29.3c-3 0-5.4-2.4-5.4-5.4s2.4-5.4 5.4-5.4 5.4 2.4 5.4 5.4-2.4 5.4-5.4 5.4zM36.4 9.2l-1.1-.6c0-.3.1-.6.1-.9s0-.6-.1-.9l1.1-.6c.4-.2.5-.7.3-1.1l-1.5-2.7c-.1-.2-.3-.3-.5-.4s-.4 0-.6.1l-1 .6c-.4-.3-.9-.6-1.4-.8V.8c0-.4-.3-.8-.8-.8h-3.1c-.4 0-.8.3-.8.8V2c-.6.2-1.1.5-1.5.9l-1.1-.6c-.4-.2-.8-.1-1 .3l-1.6 2.7c-.1.2-.1.4-.1.6.1.2.2.4.4.5l1.1.6c0 .3-.1.6-.1.9s0 .6.1.9l-1.2.4c-.2.1-.3.3-.4.5s0 .4.1.6l1.5 2.7c.2.4.7.5 1 .3l1.1-.6c.4.3 1 .6 1.5.9v1.2c0 .4.3.8.8.8h3.1c.4 0 .8-.3.8-.8v-1.2c.5-.2 1-.5 1.4-.8l1 .6c.2.1.4.1.6.1.2-.1.4-.2.5-.4l1.5-2.7c.4-.5.3-1-.1-1.2zm-7.2 1.6a3.12 3.12 0 0 1-3.1-3.1 3.12 3.12 0 0 1 3.1-3.1 3.12 3.12 0 0 1 3.1 3.1 3.12 3.12 0 0 1-3.1 3.1z"/><path d="M25.9 20l-3.1-5.3c-.1-.2-.3-.3-.5-.4s-.4 0-.6.1l-1.9 1.1c-.9-.7-1.7-1.3-2.9-1.7v-2.2c0-.4-.3-.8-.8-.8H10c-.4 0-.8.3-.8.8v2.2c-1.1.4-2 .9-3 1.7l-2-1.1c-.4-.2-.8-.1-1 .3L.1 20c-.2.4-.1.8.3 1.1l2 1.1c-.1.6-.1 1.1-.1 1.7s0 1.1.1 1.7L.5 26.7c-.2.1-.3.3-.4.5s0 .4.1.6l3.1 5.3c.2.4.7.5 1.1.3l2-1.1c1 .8 1.9 1.3 3 1.7v2.2c0 .4.3.8.8.8h6.2c.4 0 .8-.3.8-.8V34c1.2-.4 2-1 2.9-1.7l1.9 1.1c.2.1.4.1.6.1.2-.1.4-.2.5-.4l3.1-5.3c.2-.4.1-.8-.3-1.1l-2-1.1c.1-.6.1-1.1.1-1.7s0-1.1-.1-1.7l2-1.1c.1-.2.3-.7 0-1.1zm-7.5 3.9c0 3-2.4 5.4-5.4 5.4s-5.4-2.4-5.4-5.4 2.4-5.4 5.4-5.4 5.4 2.4 5.4 5.4zm18.3 13.7l-1.5-2.7c-.1-.2-.3-.3-.5-.4s-.4 0-.6.1l-1 .6c-.4-.3-.9-.6-1.4-.8v-1.2c0-.4-.3-.8-.8-.8h-3.1c-.4 0-.8.3-.8.8v1.2c-.6.2-1.1.5-1.5.9l-1.1-.6c-.4-.2-.8-.1-1 .3l-1.5 2.7c-.1.2-.1.4-.1.6.1.2.2.4.4.5l1.1.6c0 .3-.1.6-.1.9s0 .6.1.9l-1.1.6c-.2.1-.3.3-.4.5s0 .4.1.6l1.6 2.7c.2.4.7.5 1 .3l1.1-.6c.4.3 1 .6 1.5.9v1.2c0 .4.3.8.8.8H31c.4 0 .8-.3.8-.8v-1.2c.5-.2 1-.5 1.4-.8l1 .6c.2.1.4.1.6.1.2-.1.4-.2.5-.4l1.5-2.7c.2-.4.1-.8-.3-1.1l-1.2-.9c0-.3.1-.6.1-.9s0-.6-.1-.9l1.1-.6c.4-.1.5-.6.3-1zm-4.4 2.5a3.12 3.12 0 0 1-3.1 3.1 3.12 3.12 0 0 1-3.1-3.1 3.12 3.12 0 0 1 3.1-3.1 3.12 3.12 0 0 1 3.1 3.1z"/></svg>