<svg xmlns="http://www.w3.org/2000/svg" width="300" height="242"><path d="M227.1 86.8H15.9C7.2 86.8.1 79.6.1 70.7v-54C.1 7.9 7.2.6 15.9.6h211.3c8.7 0 15.8 7.2 15.8 16.1v54c-.1 8.9-7.2 16.1-15.9 16.1zm-208.4-19h205.6V19.6H18.7v48.2zm19.5 80.9l4 2.2 3.9-6.2 3.9 6.2 4-2.2-3.9-6.2h7.8v-4.4h-7.8l3.9-6.2-4-2.2-3.9 6.2-3.9-6.2-4 2.2 3.8 6.2h-7.6v4.4H42zm37.7 0l4 2.2 3.9-6.2 3.9 6.2 4-2.2-3.8-6.2h7.7v-4.4h-7.7l3.8-6.2-4-2.2-3.9 6.2-3.9-6.2-4 2.2 3.8 6.2h-7.6v4.4h7.6zm37.7 0l4 2.2 3.8-6.2 4 6.2 4-2.2-3.8-6.2h7.6v-4.4h-7.6l3.8-6.2-4-2.2-4 6.2-3.8-6.2-4 2.2 3.8 6.2h-7.7v4.4h7.7zm37.6 0l4.1 2.2 3.9-6.2 3.8 6.2 4.1-2.2-3.8-6.2h7.6v-4.4h-7.6l3.8-6.2-4.1-2.2-3.8 6.2-3.9-6.2-4.1 2.2 3.9 6.2h-7.7v4.4h7.7z" fill="#3e4e50"/><path d="M263 176c0-15.994-13.006-29-29-29s-29 13.006-29 29 13.006 29 29 29 29-13.006 29-29zm-29-14c7.709 0 14 6.291 14 14s-6.291 14-14 14-14-6.291-14-14 6.291-14 14-14zm65.4 23.6c-1-3.7-3.6-7-6.9-8.9l-1.6-1 1.5-.9c1.4-.8 2.5-1.9 3.1-2.6l1.2-1.2c1.3-1.5 2.2-3.3 2.7-5.2 1-3.6.4-7.8-1.5-11.2L284.3 131c-1.7-2.9-4.5-5.2-7.3-6.1l-1.3-.5-.4-.1c-3.6-1-7.9-.4-11.3 1.5l-1.5.9v-1.8a14.77 14.77 0 0 0-14.8-14.8h-27.1a14.85 14.85 0 0 0-10.4 4.3c-2.9 2.8-4.4 6.5-4.4 10.5v1.8l-1.8-1.1c-2.2-1.3-4.7-1.9-7.5-1.9l-8.5.2-17.7 30.6c-1.9 3.4-2.4 7.4-1.4 11.3l1.8 6 6.7 3.8-1.5.8c-4 2.2-6.7 6.3-7.3 11v.1c-.2 2.8.2 5.6 1.2 7.7l14.1 24.9c1.9 3.3 5.2 5.8 9 6.8 3.7 1.1 7.9.6 11.2-1.3l1.8-1v2a14.77 14.77 0 0 0 14.8 14.8h27.1c8.1 0 14.7-6.4 15.1-14.6v-2l1.4.8c1.7 1 3.4 1.6 5.8 1.9h.2c1.8.1 3.5 0 5.1-.4h.1c3.7-1 7.1-3.7 9-6.9l13.4-23.3c2-3.4 2.5-7.5 1.5-11.3zm-81.1 25.8c-.9-.4-1.7-.9-2.7-1.4l-1.1-.6c-.5-.3-.9-.6-1.4-.9-.5-.4-1.1-.7-1.6-1.1l-4.7-3-8.7 5.2-11.2-19.3 8.6-5-.2-9.5.2-9.7-8.7-5 11.2-19.4 8.8 5 7.2-4.3.1-.1c.5-.3 1.1-.6 1.7-1l7.6-4v-10.1h22.4v10.5l4.8 2.3 3.8 2.1c1 .5 1.9 1.2 2.8 1.8l4.5 3.2 9.1-5.3 11.2 19.3-9.2 5.3.6 5.5c.1 1.3.2 2.6.2 3.8 0 1.1-.1 2.2-.2 3.5l-.3 6 8.8 5.1-11.2 19.3-9.2-5.3-4.4 3.2c-1.1.8-2.2 1.5-2.9 1.9l-.7.4c-1 .6-2.1 1.1-3.2 1.7l-4.9 2.4v10.4h-22.1v-10.6l-5-2.3z" fill="#3e4f51"/><path d="M227.1 97.2H15.9C7.2 97.2.1 104.5.1 113.3v54c0 8.9 7.1 16.1 15.8 16.1h143.6a14.75 14.75 0 0 1 5.9-6.9c.2-.5.5-.9.7-1.3l-5.7-3.3-1.8-6-.3-1.5H18.2v-48.2h181.6l1.9-3.9c.7-1.4 1.6-2.7 2.7-3.8 2.6-2.7 6.3-4.3 10.1-4.3H240c-2.7-4.3-7.5-7-12.9-7z" fill="#3e4e50"/></svg>