<svg xmlns="http://www.w3.org/2000/svg" viewBox="0 0 41 31.7"><path d="M31.9 13.4c-5.1 0-9.1 4.1-9.1 9.1s4.1 9.1 9.1 9.1 9.1-4.1 9.1-9.1-4-9.1-9.1-9.1zm4.6 6.8l-6.1 5.7c-.1.1-.3.2-.5.2s-.4-.1-.5-.2l-2-2c-.3-.3-.3-.8 0-1.1s.8-.3 1.1 0l1.5 1.5 5.6-5.2c.3-.3.8-.3 1.1 0 .1.4.1.9-.2 1.1z" fill="#636466"/><path d="M27.6 23l1.8 1.8c.2.2.5.2.8 0l6-5.5" fill="none" stroke="#fff" stroke-width="1.75" stroke-linecap="round" stroke-miterlimit="10"/><path d="M28.1 12.9H2.2V17h20.1a9.5 9.5 0 0 1 5.8-4.1zm4.2-1.4V5.7c0-.6-.6-1.2-1.2-1.2h-30C.6 4.5 0 5.1 0 5.7v5.8c0 .6.6 1.2 1.2 1.2h30c.5 0 1.1-.6 1.1-1.2zM1.2 5.7h30v5.8h-30V5.7zm29-3.1c0-1.4-1-2.5-2.3-2.6H4.5C3.3 0 2.2 1.1 2.2 2.6v1.6h28V2.6zM16.8 24.2V23H21c0-.4-.1-.8-.1-1.2 0-1.3.3-2.5.8-3.7H2.2v2.3c0 1.4 1 2.5 2.3 2.6h11v1.2H8a.65.65 0 0 0-.6.6c0 .3.2.6.6.6h13.7c-.2-.4-.3-.8-.5-1.3h-4.4zm-1.7-4.3c0-.6.6-1.2 1.2-1.2s1.2.6 1.2 1.2-.6 1.2-1.2 1.2c-.7 0-1.2-.4-1.2-1.2zm-9-12.5a1.08 1.08 0 0 0-1 1 .94.94 0 0 0 1 1c.6 0 1-.5 1-1s-.4-1-1-1zm4.1 0a1.08 1.08 0 0 0-1 1 .94.94 0 0 0 1 1 1.08 1.08 0 0 0 1-1 1.08 1.08 0 0 0-1-1zm4 0a1.08 1.08 0 0 0-1 1 .94.94 0 0 0 1 1 1.08 1.08 0 0 0 1-1c-.1-.5-.5-1-1-1zm4 0a1.08 1.08 0 0 0-1 1 .94.94 0 0 0 1 1 1.08 1.08 0 0 0 1-1 1.08 1.08 0 0 0-1-1zm4 0a1.08 1.08 0 0 0-1 1 .94.94 0 0 0 1 1 1.08 1.08 0 0 0 1-1c-.1-.5-.5-1-1-1zm4 0a1.08 1.08 0 0 0-1 1 .94.94 0 0 0 1 1 1.08 1.08 0 0 0 1-1 1.08 1.08 0 0 0-1-1z" fill="#636466"/></svg>