<svg xmlns="http://www.w3.org/2000/svg" xmlns:xlink="http://www.w3.org/1999/xlink" width="274" height="212"><g fill="#3e4e50"><use xlink:href="#B"/><use xlink:href="#C"/><use xlink:href="#B" x="80.3"/><use xlink:href="#C" x="80.3"/><use xlink:href="#B" x="160.6"/><path d="M229 38.4c.9 0 1.7.2 2.6.4 4.8 1.2 8.4 5.5 8.4 10.7h0v33.7c0 5.2-3.6 9.5-8.4 10.7-.8.3-1.7.4-2.6.4h0H11.4c-.9 0-1.7-.1-2.5-.4C4.1 92.7.5 88.4.5 83.2h0V49.5c0-5.2 3.6-9.5 8.4-10.7.8-.3 1.7-.4 2.6-.4h0zm0 5.6H11.4c-.9 0-1.8.3-2.6.8-1.6 1-2.8 2.7-2.8 4.7h0v33.8c0 2 1.1 3.7 2.9 4.6.7.5 1.6.8 2.6.8H229c.9 0 1.8-.3 2.6-.8 1.6-1 2.8-2.7 2.8-4.7h0V49.5c0-2.1-1.1-3.8-2.8-4.7-.7-.5-1.6-.8-2.6-.8h0zM14.4 21.9c0-8.9 6.9-16.1 15.3-16.1h181.1c8.4 0 15.3 7.2 15.3 16.1V30h5.6v-8.1c0-12-9.4-21.7-20.9-21.7H29.7C18.2.2 8.8 9.9 8.8 21.9V30h5.6v-8.1zm105.9 129.7c-5.7 0-10.3 4.6-10.3 10.3s4.6 10.4 10.3 10.4 10.4-4.6 10.4-10.4c-.1-5.7-4.7-10.3-10.4-10.3zm0 15.1c-2.6 0-4.8-2.1-4.8-4.8 0-2.6 2.1-4.8 4.8-4.8 2.6 0 4.8 2.1 4.8 4.8-.1 2.6-2.2 4.8-4.8 4.8zm2.8 23.7v-7.6h59.6c-.6-1.8-1-3.7-1.3-5.6H29.7c-8.4 0-15.3-7.2-15.3-16.1v-14.5h171.4c1-1.9 2.1-3.8 3.3-5.6H8.8v20c0 12 9.4 21.7 20.9 21.7h87.8v7.6H39.1c-1.5 0-2.8 1.2-2.8 2.8a2.73 2.73 0 0 0 2.8 2.8h150c-1.2-1.8-2.3-3.6-3.3-5.6h-62.7v.1zM14.4 127v-24.1H8.8v29.7h187.6c2.3-2.1 4.8-4 7.5-5.6H14.4zm214.6-7h.3l2.4.1v-17.2h-5.6v17.2l2.7-.1h.2zm2.7 91.8c-23.1 0-41.9-18.8-41.9-41.9s18.8-41.9 41.9-41.9 41.9 18.8 41.9 41.9-18.8 41.9-41.9 41.9zm0-78.2c-20 0-36.3 16.3-36.3 36.3s16.3 36.3 36.3 36.3 36.3-16.3 36.3-36.3-16.3-36.3-36.3-36.3zm-8.4 53.5c-1.1 0-2.1-.4-2.9-1.2l-10.7-10c-1.1-1.1-1.2-2.8-.1-3.9s2.8-1.2 3.9-.1l9.8 9.1 26-24.3c1.1-1 2.9-1 3.9.1 1.1 1.1 1 2.9-.1 3.9l-26.9 25.2c-.8.8-1.8 1.2-2.9 1.2z"/></g><defs ><path id="B" d="M29.7 75l4.2 2.2 4-6.3 4 6.3 4.3-2.2-4-6.4h8v-4.4h-8l4-6.4-4.3-2.2-4 6.3-4-6.3-4.2 2.2 4 6.4h-8v4.4h8z"/><path id="C" d="M69.8 75l4.3 2.2 4-6.3 4 6.3 4.2-2.2-4-6.4h8v-4.4h-8l4-6.4-4.2-2.2-4 6.3-4-6.3-4.3 2.2 4 6.4h-8v4.4h8z"/></defs></svg>