<svg xmlns="http://www.w3.org/2000/svg" width="264" height="222"  fill="#3e4e50"><path d="M35.4 198.3h193.2a3.4 3.4 0 1 0 0-6.8h-15.5c.1-.6.3-1.1.3-1.7v-73.7c0-4.7-3.8-8.5-8.5-8.5h-27c-4.7 0-8.5 3.8-8.5 8.5v73.7c0 .6.2 1.1.3 1.7h-16.3c.1-.6.3-1.1.3-1.7V99.9c0-4.7-3.8-8.5-8.5-8.5h-27c-4.7 0-8.5 3.8-8.5 8.5v89.9c0 .6.2 1.1.3 1.7H93.7c.1-.6.3-1.1.3-1.7v-40.3c0-4.7-3.8-8.5-8.5-8.5H59c-4.7 0-8.5 3.8-8.5 8.5v40.3c0 .6.2 1.1.3 1.7H35.4a3.4 3.4 0 1 0 0 6.8zM229.8.9H34.4C16 1.1.8 16.3.6 34.8v21.7h262.8V34.8c.1-18.6-15-33.8-33.6-33.9zm0 6.8c14.9.1 26.9 12.2 26.801 27.1v14.9H7.4V34.8C7.6 20 19.7 7.8 34.5 7.7h195.3M46.7 27a6.06 6.06 0 0 0-6.1 6.1 6.06 6.06 0 0 0 6.1 6.1 6.06 6.06 0 0 0 6.1-6.1c0-3.4-2.8-6.1-6.1-6.1zM71 27a6.06 6.06 0 0 0-6.1 6.1 6.06 6.06 0 0 0 6.1 6.1 6.06 6.06 0 0 0 6.1-6.1A6.06 6.06 0 0 0 71 27z"/><path d="M95.4 27a6.06 6.06 0 0 0-6.1 6.1 6.1 6.1 0 1 0 12.2 0 6.06 6.06 0 0 0-6.1-6.1zM.6 68.7h0v118.5c0 9 3.4 17.5 9.8 23.9 6.3 6.4 14.8 9.9 24.1 10h195.1c9.3 0 17.8-3.6 24.1-10a33.91 33.91 0 0 0 9.8-23.9V68.7H.6zm256 118.5c0 7.2-2.7 14-7.8 19.1s-11.8 7.9-19 8H34.2c-7.2 0-14-2.9-19-8-5.1-5.1-7.8-11.9-7.8-19.1V75.4h249.2v111.8z"/></svg>