<svg xmlns="http://www.w3.org/2000/svg" viewBox="0 0 41.9 33.9" fill="#636466"><path d="M41.9 5c0-2.7-2.2-5-5-5H5a4.95 4.95 0 0 0-5 5v3h41.9V5zM7 6c-.6 0-1-.5-1-1s.4-1 1-1a.94.94 0 0 1 1 1c0 .6-.5 1-1 1zm4 0a.94.94 0 0 1-1-1 .94.94 0 0 1 1-1 .94.94 0 0 1 1 1c0 .6-.5 1-1 1zm4 0a.94.94 0 0 1-1-1 .94.94 0 0 1 1-1 .94.94 0 0 1 1 1c0 .6-.5 1-1 1zM0 10v18.9c0 2.7 2.2 5 5 5h31.8c2.7 0 5-2.2 5-5V10H0zm33 20.5H8.8c-.4 0-.8-.4-.8-.8s.3-.8.8-.8h.8v-7c0-.4.3-.8.8-.8h4.7c.4 0 .8.4.8.8v7h1.8V14.1c0-.4.4-.8.8-.8h4.7c.4 0 .8.4.8.8V29h1.8V17.3c0-.4.3-.8.8-.8h4.7c.4 0 .8.4.8.8V29h1c.4 0 .8.3.8.8-.1.4-.4.7-.9.7z"/></svg>