<svg xmlns="http://www.w3.org/2000/svg" width="240" height="213"  fill="#3e4e50"><path d="M239.3 55V36.2c.1-19.4-15.6-35.2-35-35.3H35.4C16.3 1.1.5 16.9.3 36.2V61h239v-6zm-17.8-12H18.2v-6.8c.1-9.5 7.9-17.4 17.4-17.4h168.7c4.6 0 9 1.8 12.2 5.1 3.3 3.3 5 7.6 5 12.3V43z"/><circle cx="46.1" cy="31" r="5.3"/><circle cx="67.2" cy="31" r="5.3"/><path d="M88.3 25.8a5.27 5.27 0 0 0-5.3 5.3 5.3 5.3 0 1 0 10.6 0c-.1-3.1-2.4-5.3-5.3-5.3zM.3 69.5v108.3c0 9.3 3.6 18.2 10.2 24.8 6.7 6.7 15.6 10.4 25 10.4h168.7c9.4 0 18.3-3.7 25-10.4 6.6-6.6 10.2-15.5 10.2-24.8V69.5H.3zm221.1 108.1c.1 4.7-1.6 9-4.9 12.3-3.3 3.2-7.7 5.1-12.2 5.1H35.4c-4.5 0-8.9-1.9-12.2-5.1-3.3-3.3-5-7.6-4.9-12.3V87.2h203.1v90.4zm-169 1h135c1.3 0 2.4-1 2.4-2.4 0-1.3-1-2.4-2.4-2.4h-10.8c.1-.4.2-.8.2-1.2v-51.5c0-3.3-2.7-5.9-5.9-5.9H152c-3.3 0-5.9 2.7-5.9 5.9v51.5c0 .4.1.8.2 1.2h-11.4c.1-.4.2-.8.2-1.2v-62.8c0-3.3-2.7-5.9-5.9-5.9h-18.9c-3.3 0-5.9 2.7-5.9 5.9v62.8c0 .4.1.8.2 1.2H93.2c.1-.4.2-.8.2-1.2v-28.1c0-3.3-2.7-5.9-5.9-5.9H69c-3.3 0-5.9 2.7-5.9 5.9v28.1c0 .4.1.8.2 1.2H52.4c-1.3 0-2.4 1-2.4 2.4s1.1 2.4 2.4 2.4z"/></svg>