<svg xmlns="http://www.w3.org/2000/svg" width="310" height="224"  fill="#3e4e50"><path d="M184.7 101.9l-48.8-28.5c-7.5-4.1-16.3 1.1-16.3 9.3V139c0 10 8.7 15.2 16.3 10.6l48.8-28.5c7.5-4 7.5-14.5 0-19.2zm96.4 63V58.4h27.5v-33c0-13.6-11.4-25-25-25H25.7C12.1.4.7 11.8.7 25.4v33h28.2v106.5H.7v33.7c0 13.6 11.4 25 25 25h258.6c13.6 0 25-11.4 25-25v-33.7h-28.2zM18.5 182.6l28.1.1v-142H18.4V25.4c0-3.9 3.4-7.3 7.3-7.3h258c3.9 0 7.3 3.4 7.3 7.3v15.2h-27.5v142h28.2v16c0 3.9-3.4 7.3-7.3 7.3H25.8c-3.9 0-7.3-3.4-7.3-7.3v-16zM252.8 40.7H57.2v142h195.5v-142h.1zM74.5 164.5V58.9h161.1v105.6H74.5zm-43.6 24.8h10v10h-10zm238.5 0h10v10h-10zm-23.5 0h10v10h-10zm-23.9 0h10v10h-10zm-23.9 0h10v10h-10zm-23.9 0h10v10h-10zm-23.9 0h10v10h-10zm-23.9 0h10v10h-10zm-23.9 0h10v10h-10zm-23.8 0h10v10h-10zm-23.9 0h10v10h-10zm-24-164.9h10v10h-10zm238.5 0h10v10h-10zm-23.5 0h10v10h-10zm-23.9 0h10v10h-10zm-23.9 0h10v10h-10zm-23.9 0h10v10h-10zm-23.9 0h10v10h-10zm-23.9 0h10v10h-10zm-23.9 0h10v10h-10zm-23.8 0h10v10h-10zm-23.9 0h10v10h-10z"/></svg>