<svg xmlns="http://www.w3.org/2000/svg" width="284" height="202"  fill="#3e4e50"><path d="M111.1 12.3h22.3v22.3h-22.3zm-40.2 0h22.3v22.3H70.9zm-39.6 0h22.3v22.3H31.3zm198.4 0H252v22.3h-22.3zm-79.1 0h22.3v22.3h-22.3zm39.6 0h22.3v22.3h-22.3zM229.7 168H252v22.3h-22.3zm-39.5 0h22.3v22.3h-22.3zm-39.6 0h22.3v22.3h-22.3zm-119.3 0h22.3v22.3H31.3zm79.1 0h22.3v22.3h-22.3zm-39.5 0h22.3v22.3H70.9zm53.6-23l53.6-31.3c8.3-4.5 8.3-16 0-21.1l-53.6-31.3c-8.3-4.5-17.9 1.3-17.9 10.2v61.9c0 11 9.6 16.7 17.9 11.6zm140.3 56.7H19.2c-10 0-18.4-8.4-18.4-18.4v-26.7h26.8V44.7H.8v-26C.8 8.7 9.2.3 19.2.3h245c10 0 18.4 8.4 18.4 18.4v26h-26.2v111.9h26.8v26.7c0 10-8.4 18.4-18.4 18.4zM6.9 162.8v20.5c0 6.6 5.6 12.2 12.2 12.2h245.7c6.6 0 12.2-5.6 12.2-12.2v-20.5h-26.8V38.6h26.2V18.7c0-6.6-5.6-12.2-12.2-12.2h-245C12.6 6.5 7 12.1 7 18.7v19.9h26.8v124.2H6.9zm227.2 0H49.9V44.5h184.2v118.3zm-178-6.2H228v-106H56.1v106z"/></svg>