<svg xmlns="http://www.w3.org/2000/svg" viewBox="0 0 43.2 30.6" fill="#636466"><path d="M43.2 6V2.4c0-1.3-1.1-2.4-2.4-2.4H2.4C1.1 0 0 1.1 0 2.4V6h4.2v18.5H0v3.7c0 1.3 1.1 2.4 2.4 2.4h38.5c1.3 0 2.4-1.1 2.4-2.4v-3.7h-4.2V6h4.1zm-14-4.6h3.5v3.5h-3.5V1.4zM35.6 6v18.5H7.7V6h27.9zM23 1.4h3.5v3.5H23V1.4zm-6.2 0h3.5v3.5h-3.5V1.4zm-6.3 0H14v3.5h-3.5V1.4zm-6.2 0h3.5v3.5H4.3V1.4zm3.5 27.9H4.3v-3.5h3.5v3.5zm6.2 0h-3.5v-3.5H14v3.5zm6.2 0h-3.5v-3.5h3.5v3.5zm6.3 0H23v-3.5h3.5v3.5zm6.2 0h-3.5v-3.5h3.5v3.5zm6.2 0h-3.5v-3.5h3.5v3.5zm0-24.4h-3.5V1.4h3.5v3.5zm-20 17.3l8.4-4.9c1.3-.7 1.3-2.5 0-3.3l-8.4-4.9c-1.3-.7-2.8.2-2.8 1.6v9.7c0 1.7 1.5 2.6 2.8 1.8z"/></svg>