<?xml version="1.0" encoding="UTF-8"?>
<!-- Generator: Adobe Illustrator 16.0.3, SVG Export Plug-In . SVG Version: 6.00 Build 0)  -->
<!DOCTYPE svg PUBLIC "-//W3C//DTD SVG 1.1//EN" "http://www.w3.org/Graphics/SVG/1.1/DTD/svg11.dtd">
<svg version="1.1" id="Layer_1" xmlns="http://www.w3.org/2000/svg" xmlns:xlink="http://www.w3.org/1999/xlink" x="0px" y="0px" width="594.968px" height="594.968px" viewBox="0 0 594.968 594.968" enable-background="new 0 0 594.968 594.968" xml:space="preserve">
<g>
	<path fill="#FBB164" d="M584.286,298.145c0,4.893,0.729,9.797,0.488,14.629c-0.243,4.885,0.729,9.912,0.245,14.729   c-0.489,4.863-2.565,9.578-3.293,14.367c-0.733,4.83-3.806,9.203-4.776,13.951c-0.977,4.783-1.236,9.658-2.448,14.352   c-1.221,4.727-1.181,9.797-2.631,14.426c-1.459,4.654-2.014,9.676-3.7,14.226c-1.694,4.573-6.609,7.855-8.525,12.315   c-1.925,4.479-1.575,9.983-3.717,14.342c-2.149,4.373-3.544,9.228-5.905,13.473c-2.368,4.257-5.435,8.202-8.009,12.323   c-2.58,4.131-8.267,6.186-11.047,10.172c-2.784,3.994-4.855,8.406-7.834,12.249c-2.982,3.847-4.101,9.22-7.271,12.908   c-3.171,3.691-8.433,5.492-11.784,9.017c-3.353,3.526-5.622,8.1-9.147,11.452c-3.525,3.352-7.778,5.886-11.47,9.057   c-3.688,3.17-6.203,7.806-10.051,10.788c-3.843,2.979-9.693,3.206-13.687,5.991c-3.987,2.78-6.732,7.376-10.862,9.955   c-4.122,2.574-9.037,3.779-13.295,6.147c-4.245,2.361-7.246,7.151-11.619,9.301c-4.358,2.142-10.116,1.284-14.595,3.209   c-4.46,1.916-8.132,5.791-12.704,7.485c-4.55,1.686-9.982,0.748-14.638,2.207c-4.628,1.451-9.01,3.553-13.735,4.772   c-4.694,1.212-9.565,1.398-14.35,2.377c-4.747,0.97-9.439,1.802-14.269,2.535c-4.789,0.728-9.433,2.168-14.295,2.657   c-4.817,0.484-9.62,0.681-14.504,0.924c-4.833,0.241-9.633,2.074-14.525,2.074s-9.767-0.33-14.6-0.571   c-4.884-0.243-9.837,0.296-14.654-0.188c-4.863-0.489-9.441-3.111-14.23-3.839c-4.83-0.733-10.069,0.836-14.816-0.135   c-4.784-0.978-9.441-2.715-14.136-3.927c-4.726-1.221-8.768-4.744-13.396-6.195c-4.655-1.459-10.323,0.04-14.874-1.646   c-4.573-1.694-8.675-4.711-13.135-6.628c-4.479-1.924-7.994-5.87-12.353-8.012c-4.373-2.149-9.16-3.392-13.405-5.753   c-4.257-2.368-9.04-3.857-13.161-6.432c-4.13-2.58-7.767-5.937-11.753-8.717c-3.994-2.785-9.006-4.256-12.848-7.234   c-3.847-2.982-7.803-5.979-11.491-9.148c-3.691-3.172-6.287-7.641-9.812-10.992c-3.526-3.353-8.079-5.76-11.432-9.285   c-3.352-3.525-4.727-8.882-7.898-12.573c-3.169-3.688-7.843-6.176-10.825-10.022c-2.979-3.843-6.137-7.653-8.922-11.646   c-2.78-3.987-3.492-9.375-6.072-13.506c-2.574-4.121-7.403-6.958-9.771-11.216c-2.361-4.245-3.795-9.071-5.944-13.445   c-2.142-4.357-2.353-9.616-4.277-14.095c-1.917-4.46-3.866-8.871-5.56-13.443c-1.686-4.55-5.665-8.356-7.124-13.012   c-1.451-4.628-2.353-9.509-3.573-14.233c-1.212-4.694,0.924-10.16-0.054-14.943c-0.971-4.748-2.447-9.336-3.181-14.166   c-0.728-4.789-2.087-9.468-2.576-14.33c-0.484-4.817,0.057-9.681-0.187-14.564c-0.241-4.834-1.162-9.619-1.162-14.512   s0.959-9.676,1.2-14.509c0.244-4.884-2.028-9.919-1.544-14.736c0.489-4.863,4.054-9.294,4.781-14.083   c0.734-4.83-2.358-10.326-1.388-15.074c0.978-4.783,2.576-9.503,3.788-14.198c1.22-4.726,2.265-9.579,3.716-14.208   c1.459-4.655,3.601-9.152,5.287-13.702c1.694-4.573,3.081-9.345,4.997-13.805c1.925-4.479,6.654-7.677,8.796-12.035   c2.149-4.373,4.398-8.621,6.76-12.866c2.368-4.257,3.075-9.481,5.649-13.602c2.58-4.13,5.596-8.012,8.376-11.999   c2.785-3.994,5.791-7.85,8.77-11.692c2.982-3.847,6.722-7.071,9.891-10.759c3.172-3.691,5.242-8.4,8.594-11.925   c3.353-3.526,6.479-7.378,10.005-10.731c3.525-3.352,8.151-5.558,11.842-8.729c3.688-3.169,7.28-6.49,11.127-9.472   c3.842-2.979,8.438-4.933,12.432-7.718c3.987-2.78,8.527-4.629,12.658-7.208c4.121-2.574,6.986-7.259,11.243-9.627   c4.245-2.361,8.812-4.206,13.185-6.355c4.358-2.142,9.323-2.966,13.802-4.891c4.46-1.917,8.532-4.797,13.105-6.492   c4.55-1.686,9.607-1.864,14.262-3.323c4.628-1.451,8.87-4.239,13.596-5.459c4.694-1.212,9.256-3.267,14.04-4.244   c4.747-0.971,9.811-0.477,14.64-1.211c4.789-0.728,9.653-0.937,14.516-1.426c4.817-0.484,9.637-1.032,14.521-1.276   c4.833-0.241,9.684-0.917,14.576-0.917s9.851-1.488,14.684-1.247c4.884,0.244,9.68,2.11,14.497,2.594   c4.863,0.489,9.963-0.565,14.752,0.163c4.83,0.734,9.324,3.565,14.071,4.536c4.784,0.978,9.078,3.822,13.772,5.035   c4.726,1.22,9.983,0.413,14.611,1.864c4.655,1.459,8.913,4.04,13.463,5.726c4.573,1.694,9.651,2.124,14.11,4.04   c4.479,1.925,8.886,4.092,13.244,6.233c4.373,2.149,8.285,5.206,12.53,7.567c4.257,2.368,8.76,4.332,12.881,6.906   c4.131,2.58,7.929,5.682,11.915,8.462c3.994,2.785,7.839,5.764,11.682,8.743c3.847,2.982,6.384,7.483,10.072,10.653   c3.69,3.171,8.409,5.122,11.934,8.474c3.526,3.353,7.827,5.955,11.18,9.48c3.352,3.525,6.043,7.687,9.214,11.378   c3.17,3.688,5.751,7.85,8.732,11.696c2.979,3.843,5.146,8.229,7.932,12.223c2.779,3.987,8.294,6.196,10.874,10.326   c2.574,4.122,1.747,10.264,4.115,14.521c2.361,4.245,5.653,7.945,7.802,12.318c2.143,4.358,3.578,9,5.503,13.479   c1.916,4.46,5.983,8.072,7.678,12.645c1.686,4.55,2.708,9.39,4.167,14.045c1.451,4.628,0.774,9.857,1.994,14.583   c1.212,4.694,3.168,9.18,4.146,13.964c0.971,4.748,2.744,9.366,3.478,14.196c0.728,4.789,0.347,9.731,0.836,14.594   c0.483,4.817,0.842,9.635,1.085,14.52C583.528,288.422,584.286,293.252,584.286,298.145z"/>
</g>
<g opacity="0.2">
	<path fill="#FFFFFF" d="M296.333,10.597c-4.893,0-9.801-1.204-14.634-0.963c-4.884,0.244-9.663,1.769-14.48,2.253   c-4.863,0.489-9.896-0.354-14.685,0.374c-4.83,0.734-9.376,3.083-14.124,4.054c-4.784,0.978-9.266,3.013-13.96,4.226   c-4.726,1.22-9.751,1.227-14.379,2.678c-4.655,1.459-9.402,2.657-13.952,4.343c-4.573,1.694-9.041,3.68-13.5,5.596   c-4.479,1.925-8.667,4.463-13.026,6.605c-4.373,2.149-7.888,5.809-12.133,8.17c-4.257,2.368-9.162,3.518-13.283,6.092   c-4.13,2.58-7.21,6.634-11.197,9.414c-3.994,2.785-9.054,4.027-12.897,7.005c-3.847,2.982-8.791,4.688-12.479,7.858   c-3.691,3.171-5.835,8.104-9.36,11.455c-3.526,3.353-7.721,6.042-11.074,9.568c-3.352,3.525-5.506,8.126-8.678,11.817   c-3.169,3.688-6.317,7.345-9.3,11.192c-2.978,3.842-6.571,7.219-9.356,11.213c-2.78,3.987-4.958,8.368-7.539,12.499   c-2.574,4.122-5.467,8.05-7.835,12.308c-2.361,4.245-4.728,8.503-6.877,12.876c-2.142,4.358-5.909,8.041-7.833,12.52   c-1.917,4.46-2.151,9.67-3.845,14.243c-1.686,4.55-2.118,9.528-3.577,14.183c-1.451,4.628-3.545,9.063-4.765,13.789   c-1.212,4.694-2.927,9.303-3.905,14.087c-0.971,4.748-2.673,9.436-3.407,14.266c-0.728,4.789,2.022,10.023,1.534,14.886   c-0.484,4.817-4.671,9.377-4.915,14.262c-0.241,4.833,0.835,9.788,0.835,14.681c0,4.732-0.521,9.498-0.294,14.174   c0.229,4.723,3,9.242,3.455,13.902c0.458,4.705,0.43,9.406,1.112,14.042c0.688,4.674-0.566,9.688,0.343,14.288   c0.917,4.632,2.829,9.08,3.964,13.631c1.143,4.58,3.298,8.875,4.657,13.365c1.367,4.516,2.749,9.723,4.328,14.143   c2.846-5.875,5.949-10.225,8.957-13.126c4.239-4.091,8.329-8.029,13.714-8.048c4.492-0.015,9.456,3.359,15.362,4.809   c4.534,1.112,9.318,3.553,14.977,4.879c5.171,1.211,9.686,2.182,13.707,4.424c4.465,2.488,10.142,3.463,13.443,6.953   c3.375,3.568,3.909,9.448,6.349,13.765c2.388,4.225,6.13,7.924,7.892,12.577c1.731,4.575,2.171,9.677,3.554,14.396   c1.399,4.776,4.176,9.136,5.479,13.782c1.375,4.903-0.347,10.66,1.223,15.1c1.743,4.93,6.692,8.107,9.076,12.04   c2.689,4.437,3.667,10.481,7.745,13.042c3.835,2.407,9.425,2.947,15.009,3.143c4.247,0.149,8.746-2.557,14.26-3.96   c4.761-1.211,9.151-2.79,13.361-3.765c4.842-1.122,10.041,1.156,14.227,0.333c4.956-0.974,9.314-2.356,13.469-2.935   c5.105-0.711,9.549-1.912,13.662-2.064c5.218-0.195,9.989-1.591,14.049-0.971c4.938,0.755,9.377,2.777,13.405,4.586   c4.076,1.831,7.841,4.583,11.894,7.322c3.505,2.368,7.753,4.251,11.878,7.18c3.433,2.437,5.854,6.969,10.092,9.723   c4.754,3.09,9.941,3.196,14.271,4.266c5.112,1.264,9.524,1.542,14.364,0.73c4.745-0.796,9.355-1.995,14.165-4.021   c4.382-1.847,8.479-4.757,13.172-7.026c4.317-2.088,9.926-1.785,14.706-3.768c4.439-1.841,8.482-5.275,13.479-6.655   c4.938-1.363,9.828-2.181,14.415-2.24c4.951-0.063,9.638,2.128,14.3,2.698c4.882,0.598,9.631,2.413,14.335,2.677   c4.809,0.27,9.364-3.086,14.137-4.277c4.827-1.205,10.213-1.505,13.805-4.991c3.284-3.188,4.901-8.323,7.432-12.873   c2.253-4.052,4.322-8.473,6.178-13.214c1.734-4.429,4.803-8.584,6.35-13.305c1.518-4.627,1.254-9.885,2.737-14.506   c1.524-4.748,1.688-9.954,3.333-14.394c1.783-4.813,6.762-8.028,8.879-12.104c2.442-4.701,4.184-9.18,7.358-12.339   c3.323-3.307,7.783-2.102,12.336,1.503c3.336,2.642,6.353,6.739,9.892,9.449c4.242,3.247,8.41,5.231,12.337,3.716   c3.351-1.293,7.29-4.706,9.317-10.494c1.361-3.885-0.486-9.34,0.551-14.416c0.892-4.369,2.181-8.915,2.982-13.705   c0.77-4.594,1.653-9.271,2.466-13.867c0.843-4.771,2.318-9.366,3.343-13.725c1.175-4.996,2.953-9.484,4.56-13.343   c2.203-5.293,4.255-10.576,7.733-12.306c3.519-1.749,8.412-1.264,13.784,2.322c2.029-4.102,4.507-6.645,6.281-10.797   c1.797-4.203,3.29-8.524,4.832-12.771c1.56-4.293,2.647-8.723,3.954-13.052c-0.268-4.866,1.484-9.917,0.979-14.715   c-0.512-4.843-2.977-9.472-3.725-14.24c-0.755-4.81-0.151-9.903-1.141-14.63c-0.997-4.763-2.099-9.58-3.328-14.252   c-1.237-4.704-4.208-8.942-5.674-13.548c-1.475-4.633-3.72-8.977-5.418-13.504c-1.708-4.55-4.841-8.443-6.769-12.88   c-1.936-4.456-0.716-10.36-2.866-14.695c-2.159-4.35-7.568-6.967-9.937-11.189c-2.375-4.234-1.945-10.115-4.524-14.213   c-2.585-4.107-5.05-8.388-7.833-12.352c-2.788-3.971-6.667-7.205-9.647-11.024c-2.983-3.825-6.281-7.418-9.45-11.084   c-3.171-3.669-7.919-5.857-11.269-9.361c-3.351-3.504-6.83-6.752-10.352-10.084c-3.521-3.331-6.994-6.581-10.68-9.733   c-3.684-3.149-7.365-6.164-11.206-9.126c-3.836-2.96-6.763-7.085-10.748-9.852c-3.979-2.762-6.947-7.149-11.069-9.712   c-4.111-2.558-8.964-3.993-13.211-6.346c-4.234-2.345-8.784-4.145-13.146-6.28c-4.347-2.127-9.181-3.167-13.646-5.078   c-4.447-1.903-7.84-6.568-12.398-8.25c-4.537-1.675-10.14-0.356-14.78-1.805c-4.613-1.441-9.406-2.071-14.117-3.282   c-4.679-1.204-8.677-5.442-13.445-6.413c-4.731-0.964-9.973,0.739-14.786,0.011c-4.772-0.723-9.584-0.813-14.43-1.298   c-4.801-0.481-9.529-1.449-14.396-1.69C306.012,11.178,301.209,10.597,296.333,10.597z"/>
</g>
<g>
	<path fill="#7C411E" d="M296.786,125.553c0,5.478-2.351,10.366-4.326,15.13c-2.048,4.938-4.035,9.921-7.757,13.643   c-3.721,3.721-8.82,5.427-13.759,7.475c-4.764,1.975-9.534,4.491-15.013,4.491s-11.204-0.217-15.968-2.192   c-4.938-2.048-8.834-6.302-12.556-10.023c-3.722-3.722-6.335-8.299-8.383-13.237c-1.976-4.764-3.215-9.808-3.215-15.286   s0.557-10.806,2.532-15.569c2.048-4.938,3.966-10.611,7.688-14.333s9.352-5.741,14.289-7.789c4.764-1.975,10.134-4.78,15.612-4.78   s10.728,3.094,15.491,5.07c4.938,2.047,8.129,6.338,11.851,10.06c3.721,3.721,8.396,6.752,10.443,11.69   C295.692,114.666,296.786,120.075,296.786,125.553z"/>
</g>
<g>
	<path fill="#7C411E" d="M171.5,242.008c0,5.715-0.448,11.526-3.118,16.141c-2.754,4.761-7.453,8.373-12.214,11.127   c-4.615,2.67-10.028,3.581-15.743,3.581s-10.383-2.197-14.999-4.867c-4.761-2.755-11.159-4.527-13.914-9.289   c-2.67-4.615-0.634-10.979-0.634-16.694s0.244-10.76,2.914-15.375c2.755-4.761,6.815-7.952,11.577-10.707   c4.615-2.67,9.341-6.465,15.056-6.465s11.361,2.205,15.976,4.875c4.761,2.754,7.134,7.98,9.889,12.741   C168.961,231.693,171.5,236.293,171.5,242.008z"/>
</g>
<g>
	<path fill="#7C411E" d="M330.246,282.887c0,4.77,1.397,9.767-0.322,13.914c-1.782,4.299-5.07,8.125-8.311,11.365   s-8.096,4.047-12.395,5.83c-4.147,1.719-8.115,3.448-12.885,3.448s-9.438-0.038-13.586-1.759   c-4.299-1.782-7.565-5.168-10.806-8.407c-3.239-3.239-5.699-6.891-7.481-11.19c-1.72-4.147-5.229-8.432-5.229-13.202   c0-4.769,3.275-9.152,4.995-13.299c1.782-4.299,5.084-7.245,8.323-10.485c3.24-3.24,6.324-6.208,10.623-7.991   c4.147-1.72,8.392-5.43,13.161-5.43s8.953,3.857,13.101,5.577c4.3,1.783,9.219,2.83,12.459,6.069s5.023,7.854,6.806,12.153   C330.418,273.628,330.246,278.118,330.246,282.887z"/>
</g>
<g>
	<path fill="#7C411E" d="M211.856,420.73c0,5.156-3.935,9.709-5.793,14.192c-1.928,4.647-3.186,9.881-6.689,13.384   c-3.502,3.503-8.43,5.498-13.078,7.425c-4.483,1.859-9.342,4.424-14.498,4.424s-9.353-4.159-13.836-6.019   c-4.647-1.927-10.559-2.005-14.062-5.508s-3.521-9.439-5.448-14.087c-1.859-4.483-3.928-8.655-3.928-13.812   c0-5.155-1.048-10.62,0.812-15.104c1.927-4.647,4.71-9.643,8.213-13.146c3.502-3.503,9.582-3.673,14.229-5.601   c4.483-1.859,8.864-3.408,14.02-3.408s10.08,0.24,14.563,2.099c4.648,1.927,10.004,3.587,13.507,7.089   c3.502,3.503,6.11,8.467,8.038,13.114C209.765,410.258,211.856,415.575,211.856,420.73z"/>
</g>
<g>
	<path fill="#7C411E" d="M419.152,450.201c0,4.77-0.163,9.324-1.883,13.472c-1.783,4.299-3.23,9.342-6.471,12.582   s-7.891,5.636-12.189,7.419c-4.147,1.72-9.095,2.342-13.864,2.342s-9.938-0.089-14.086-1.809   c-4.299-1.783-7.043-6.396-10.283-9.637c-3.239-3.24-7.547-6.111-9.329-10.41c-1.72-4.147-2.491-9.189-2.491-13.959   s1.362-9.566,3.082-13.714c1.783-4.299,3.967-8.947,7.207-12.188c3.239-3.239,8.61-3.683,12.909-5.465   c4.147-1.72,8.222-4.425,12.991-4.425s9.655,0.75,13.803,2.47c4.299,1.783,7.241,5.798,10.481,9.037   c3.24,3.24,4.639,7.269,6.422,11.567C417.17,441.632,419.152,445.432,419.152,450.201z"/>
</g>
<g>
	<path fill="#7C411E" d="M524.157,293.343c0,4.383-0.673,8.9-2.253,12.711c-1.639,3.95-5.442,6.58-8.419,9.557   c-2.978,2.978-6.691,4.164-10.643,5.802c-3.811,1.581-7.242,5.521-11.625,5.521s-8.034-3.41-11.845-4.99   c-3.951-1.639-8.248-2.553-11.225-5.531c-2.978-2.977-5.364-6.662-7.003-10.612c-1.58-3.812-0.921-8.074-0.921-12.457   c0-4.382-0.907-8.748,0.674-12.559c1.638-3.951,3.097-8.71,6.073-11.688c2.977-2.977,8.457-2.7,12.407-4.338   c3.811-1.581,7.456-3.393,11.839-3.393s8.883-0.246,12.693,1.334c3.949,1.638,7.188,4.808,10.164,7.786   c2.977,2.977,5.581,6.449,7.22,10.4C522.875,284.697,524.157,288.961,524.157,293.343z"/>
</g>
<g>
	<path fill="#7C411E" d="M449.01,168.808c0,5.195,0.361,10.31-2.065,14.505c-2.504,4.328-5.55,9.396-9.878,11.9   c-4.194,2.427-10.051,0.723-15.246,0.723s-9.895-0.297-14.09-2.724c-4.328-2.504-8.835-5.396-11.339-9.724   c-2.427-4.195-3.096-9.486-3.096-14.681c0-5.196,1.2-10.179,3.628-14.374c2.504-4.328,7.022-6.587,11.351-9.091   c4.195-2.427,8.351-6.73,13.546-6.73s10.659,2.042,14.854,4.47c4.328,2.504,8.261,6.606,10.765,10.934   C449.867,158.211,449.01,163.612,449.01,168.808z"/>
</g>
<g>
	<path fill="none" stroke="#63300F" stroke-width="14" stroke-miterlimit="10" d="M584.286,298.145   c0,4.893,0.729,9.797,0.488,14.629c-0.243,4.885,0.729,9.912,0.245,14.729c-0.489,4.863-2.565,9.578-3.293,14.367   c-0.733,4.83-3.806,9.203-4.776,13.951c-0.977,4.783-1.236,9.658-2.448,14.352c-1.221,4.727-1.181,9.797-2.631,14.426   c-1.459,4.654-2.014,9.676-3.7,14.226c-1.694,4.573-6.609,7.855-8.525,12.315c-1.925,4.479-1.575,9.983-3.717,14.342   c-2.149,4.373-3.544,9.228-5.905,13.473c-2.368,4.257-5.435,8.202-8.009,12.323c-2.58,4.131-8.267,6.186-11.047,10.172   c-2.784,3.994-4.855,8.406-7.834,12.249c-2.982,3.847-4.101,9.22-7.271,12.908c-3.171,3.691-8.433,5.492-11.784,9.017   c-3.353,3.526-5.622,8.1-9.147,11.452c-3.525,3.352-7.778,5.886-11.47,9.057c-3.688,3.17-6.203,7.806-10.051,10.788   c-3.843,2.979-9.693,3.206-13.687,5.991c-3.987,2.78-6.732,7.376-10.862,9.955c-4.122,2.574-9.037,3.779-13.295,6.147   c-4.245,2.361-7.246,7.151-11.619,9.301c-4.358,2.142-10.116,1.284-14.595,3.209c-4.46,1.916-8.132,5.791-12.704,7.485   c-4.55,1.686-9.982,0.748-14.638,2.207c-4.628,1.451-9.01,3.553-13.735,4.772c-4.694,1.212-9.565,1.398-14.35,2.377   c-4.747,0.97-9.439,1.802-14.269,2.535c-4.789,0.728-9.433,2.168-14.295,2.657c-4.817,0.484-9.62,0.681-14.504,0.924   c-4.833,0.241-9.633,2.074-14.525,2.074s-9.767-0.33-14.6-0.571c-4.884-0.243-9.837,0.296-14.654-0.188   c-4.863-0.489-9.441-3.111-14.23-3.839c-4.83-0.733-10.069,0.836-14.816-0.135c-4.784-0.978-9.441-2.715-14.136-3.927   c-4.726-1.221-8.768-4.744-13.396-6.195c-4.655-1.459-10.323,0.04-14.874-1.646c-4.573-1.694-8.675-4.711-13.135-6.628   c-4.479-1.924-7.994-5.87-12.353-8.012c-4.373-2.149-9.16-3.392-13.405-5.753c-4.257-2.368-9.04-3.857-13.161-6.432   c-4.13-2.58-7.767-5.937-11.753-8.717c-3.994-2.785-9.006-4.256-12.848-7.234c-3.847-2.982-7.803-5.979-11.491-9.148   c-3.691-3.172-6.287-7.641-9.812-10.992c-3.526-3.353-8.079-5.76-11.432-9.285c-3.352-3.525-4.727-8.882-7.898-12.573   c-3.169-3.688-7.843-6.176-10.825-10.022c-2.979-3.843-6.137-7.653-8.922-11.646c-2.78-3.987-3.492-9.375-6.072-13.506   c-2.574-4.121-7.403-6.958-9.771-11.216c-2.361-4.245-3.795-9.071-5.944-13.445c-2.142-4.357-2.353-9.616-4.277-14.095   c-1.917-4.46-3.866-8.871-5.56-13.443c-1.686-4.55-5.665-8.356-7.124-13.012c-1.451-4.628-2.353-9.509-3.573-14.233   c-1.212-4.694,0.924-10.16-0.054-14.943c-0.971-4.748-2.447-9.336-3.181-14.166c-0.728-4.789-2.087-9.468-2.576-14.33   c-0.484-4.817,0.057-9.681-0.187-14.564c-0.241-4.834-1.162-9.619-1.162-14.512s0.959-9.676,1.2-14.509   c0.244-4.884-2.028-9.919-1.544-14.736c0.489-4.863,4.054-9.294,4.781-14.083c0.734-4.83-2.358-10.326-1.388-15.074   c0.978-4.783,2.576-9.503,3.788-14.198c1.22-4.726,2.265-9.579,3.716-14.208c1.459-4.655,3.601-9.152,5.287-13.702   c1.694-4.573,3.081-9.345,4.997-13.805c1.925-4.479,6.654-7.677,8.796-12.035c2.149-4.373,4.398-8.621,6.76-12.866   c2.368-4.257,3.075-9.481,5.649-13.602c2.58-4.13,5.596-8.012,8.376-11.999c2.785-3.994,5.791-7.85,8.77-11.692   c2.982-3.847,6.722-7.071,9.891-10.759c3.172-3.691,5.242-8.4,8.594-11.925c3.353-3.526,6.479-7.378,10.005-10.731   c3.525-3.352,8.151-5.558,11.842-8.729c3.688-3.169,7.28-6.49,11.127-9.472c3.842-2.979,8.438-4.933,12.432-7.718   c3.987-2.78,8.527-4.629,12.658-7.208c4.121-2.574,6.986-7.259,11.243-9.627c4.245-2.361,8.812-4.206,13.185-6.355   c4.358-2.142,9.323-2.966,13.802-4.891c4.46-1.917,8.532-4.797,13.105-6.492c4.55-1.686,9.607-1.864,14.262-3.323   c4.628-1.451,8.87-4.239,13.596-5.459c4.694-1.212,9.256-3.267,14.04-4.244c4.747-0.971,9.811-0.477,14.64-1.211   c4.789-0.728,9.653-0.937,14.516-1.426c4.817-0.484,9.637-1.032,14.521-1.276c4.833-0.241,9.684-0.917,14.576-0.917   s9.851-1.488,14.684-1.247c4.884,0.244,9.68,2.11,14.497,2.594c4.863,0.489,9.963-0.565,14.752,0.163   c4.83,0.734,9.324,3.565,14.071,4.536c4.784,0.978,9.078,3.822,13.772,5.035c4.726,1.22,9.983,0.413,14.611,1.864   c4.655,1.459,8.913,4.04,13.463,5.726c4.573,1.694,9.651,2.124,14.11,4.04c4.479,1.925,8.886,4.092,13.244,6.233   c4.373,2.149,8.285,5.206,12.53,7.567c4.257,2.368,8.76,4.332,12.881,6.906c4.131,2.58,7.929,5.682,11.915,8.462   c3.994,2.785,7.839,5.764,11.682,8.743c3.847,2.982,6.384,7.483,10.072,10.653c3.69,3.171,8.409,5.122,11.934,8.474   c3.526,3.353,7.827,5.955,11.18,9.48c3.352,3.525,6.043,7.687,9.214,11.378c3.17,3.688,5.751,7.85,8.732,11.696   c2.979,3.843,5.146,8.229,7.932,12.223c2.779,3.987,8.294,6.196,10.874,10.326c2.574,4.122,1.747,10.264,4.115,14.521   c2.361,4.245,5.653,7.945,7.802,12.318c2.143,4.358,3.578,9,5.503,13.479c1.916,4.46,5.983,8.072,7.678,12.645   c1.686,4.55,2.708,9.39,4.167,14.045c1.451,4.628,0.774,9.857,1.994,14.583c1.212,4.694,3.168,9.18,4.146,13.964   c0.971,4.748,2.744,9.366,3.478,14.196c0.728,4.789,0.347,9.731,0.836,14.594c0.483,4.817,0.842,9.635,1.085,14.52   C583.528,288.422,584.286,293.252,584.286,298.145z"/>
</g>
</svg>