<svg width="344" height="80" viewBox="0 0 344 80" fill="none" xmlns="http://www.w3.org/2000/svg">
<path d="M83.3179 17.494L87.8375 18.4768C88.2305 18.4768 88.6235 19.0665 88.6235 19.4596V60.3446C88.6235 60.9343 88.2305 61.3274 87.641 61.3274H83.1214C82.5319 61.3274 82.1389 60.9343 82.1389 60.3446V18.4768C81.9424 17.8871 82.5319 17.2974 83.3179 17.494Z" fill="#2D67F7"/>
<path d="M122.422 42.4576V60.3447C122.422 60.9344 122.029 61.3275 121.44 61.3275H116.92C116.331 61.3275 115.938 60.9344 115.938 60.3447V42.0644C115.938 37.7401 113.187 35.1847 109.65 35.1847C105.523 35.1847 102.772 38.3297 102.772 42.4576V60.3447C102.772 60.9344 102.379 61.3275 101.789 61.3275H97.2698C96.6802 61.3275 96.2872 60.9344 96.2872 60.3447V30.8604C96.2872 30.2707 96.6802 29.8776 97.2698 29.8776H101.593C102.182 29.8776 102.575 30.2707 102.575 30.8604V34.0054C103.951 31.4501 107.291 29.0913 111.418 29.0913C119.475 29.0913 122.422 35.5779 122.422 42.4576Z" fill="#2D67F7"/>
<path d="M129.89 53.2684C130.283 52.8753 130.872 53.0719 131.265 53.465C132.641 55.2341 134.802 56.8066 138.143 56.8066C140.894 56.8066 142.859 55.4306 142.859 52.8753C142.859 46.7819 127.531 48.9441 127.531 38.1331C127.531 32.6294 132.248 29.2878 138.339 29.2878C143.448 29.2878 146.592 32.0397 147.968 34.2019C148.361 34.595 148.164 35.3813 147.575 35.5778L144.627 37.5435C144.234 37.74 143.645 37.74 143.252 37.3469C142.269 35.971 140.697 34.595 137.75 34.595C135.392 34.595 133.623 35.7744 133.623 37.9366C133.623 44.03 148.95 41.4747 148.95 52.4822C148.95 58.3791 144.038 62.1138 137.553 62.1138C131.855 62.1138 128.514 59.3619 126.745 56.61C126.549 56.2169 126.549 55.6272 126.942 55.2341L129.89 53.2684Z" fill="#2D67F7"/>
<path d="M156.614 23.5875L161.134 24.5703C161.527 24.5703 161.92 25.16 161.92 25.5531V29.8775H167.225C167.815 29.8775 168.208 30.2706 168.208 30.8603V34.2019C168.208 34.7916 167.815 35.1847 167.225 35.1847H161.92V49.7303C161.92 54.6444 163.688 55.6272 167.225 55.6272C167.422 55.6272 167.618 55.6272 167.815 55.6272C168.404 55.6272 168.404 56.4134 168.404 56.4134V60.3447C168.404 60.9344 168.011 61.3275 167.422 61.3275C166.832 61.3275 166.046 61.5241 165.064 61.5241C157.4 61.5241 155.239 56.4134 155.239 48.7475V35.3813H152.684C152.095 35.3813 151.702 34.9881 151.702 34.3985V31.0569C151.702 30.4672 152.095 30.0741 152.684 30.0741H155.239V24.7669C155.239 23.9806 155.828 23.5875 156.614 23.5875Z" fill="#2D67F7"/>
<path d="M184.321 41.2781C187.858 41.2781 190.609 42.4575 191.788 43.6369V40.6885C191.788 37.1503 189.234 34.9881 185.107 34.9881C181.963 34.9881 179.409 35.971 177.247 36.9538C176.854 37.1503 176.068 36.9538 175.872 36.5606L174.3 33.8088C174.103 33.4157 174.103 32.6294 174.693 32.4328C177.247 30.8603 181.177 29.2878 185.697 29.2878C194.933 29.2878 198.273 34.3985 198.273 41.0816V60.3447C198.273 60.9344 197.88 61.3275 197.291 61.3275H193.361C192.968 61.3275 192.378 60.9344 192.378 60.5413L191.985 58.9688C190.413 60.7378 187.858 62.1138 183.928 62.1138C177.247 62.1138 172.138 57.9859 172.138 51.6959C172.138 45.6025 177.051 41.2781 184.321 41.2781ZM185.304 56.8066C189.234 56.8066 191.985 54.6444 191.985 51.3028C191.985 47.9613 189.234 45.9956 185.304 45.9956C181.374 45.9956 178.623 48.3544 178.623 51.3028C178.623 54.4478 181.374 56.8066 185.304 56.8066Z" fill="#2D67F7"/>
<path d="M205.74 30.2707L209.867 31.0569C210.26 31.2535 210.653 31.6466 210.653 32.0397V34.0054C211.439 32.826 214.583 29.0913 220.675 29.0913C229.714 29.0913 236.002 35.971 236.002 45.406C236.002 55.0375 230.107 61.9172 221.068 61.9172C215.172 61.9172 211.832 58.3791 210.849 57.0032V73.1213C210.849 73.711 210.456 74.1041 209.867 74.1041H205.347C204.758 74.1041 204.365 73.711 204.365 73.1213V31.2535C204.561 30.4672 205.151 30.0741 205.74 30.2707ZM220.085 56.2169C225.587 56.2169 229.321 51.8925 229.321 45.6025C229.321 39.116 225.391 34.9882 219.889 34.9882C214.19 34.9882 210.653 39.7057 210.653 45.6025C210.849 52.2857 214.976 56.2169 220.085 56.2169Z" fill="#2D67F7"/>
<path d="M252.115 41.2781C255.652 41.2781 258.404 42.4575 259.583 43.6369V40.6885C259.583 37.1503 257.028 34.9881 252.901 34.9881C249.757 34.9881 247.203 35.971 245.041 36.9538C244.648 37.1503 244.059 36.9538 243.666 36.5606L242.094 33.8088C241.897 33.4157 241.897 32.6294 242.487 32.4328C245.041 30.8603 248.971 29.2878 253.491 29.2878C262.727 29.2878 266.067 34.3985 266.067 41.0816V60.3447C266.067 60.9344 265.674 61.3275 265.085 61.3275H261.155C260.762 61.3275 260.172 60.9344 260.172 60.5413L259.779 58.9688C258.207 60.7378 255.652 62.1138 251.722 62.1138C245.041 62.1138 239.932 57.9859 239.932 51.6959C239.932 45.6025 244.845 41.2781 252.115 41.2781ZM253.294 56.8066C257.224 56.8066 259.976 54.6444 259.976 51.3028C259.976 47.9613 257.224 45.9956 253.294 45.9956C249.364 45.9956 246.613 48.3544 246.613 51.3028C246.613 54.4478 249.168 56.8066 253.294 56.8066Z" fill="#2D67F7"/>
<path d="M277.071 67.2244C277.268 66.6347 277.857 66.4382 278.447 66.6347C280.019 67.421 283.163 68.6003 286.7 68.6003C292.006 68.6003 296.525 65.2588 296.525 59.1654V57.0032C295.739 57.986 292.595 61.9172 286.504 61.9172C277.464 61.9172 271.569 55.0375 271.569 45.6025C271.569 35.971 277.857 29.0913 286.7 29.0913C292.595 29.0913 295.936 32.6294 296.918 34.0054V31.0569C296.918 30.4672 297.508 29.8776 298.097 30.0741L302.224 30.8604C302.617 31.0569 303.01 31.4501 303.01 31.8432V57.0032C303.01 68.7969 295.936 74.1041 286.7 74.1041C282.967 74.1041 279.036 72.9247 276.285 71.5488C275.892 71.3522 275.499 70.7625 275.892 70.1728L277.071 67.2244ZM287.29 34.9882C281.788 34.9882 278.054 39.3126 278.054 45.6025C278.054 52.0891 281.984 56.2169 287.486 56.2169C293.185 56.2169 296.722 51.696 296.722 45.6025C296.722 39.116 292.792 34.9882 287.29 34.9882Z" fill="#2D67F7"/>
<path d="M322.857 29.0913C332.289 29.0913 337.988 35.5779 337.988 45.406C337.988 45.6025 337.988 45.7991 337.988 45.9957C337.988 46.5854 337.595 46.9785 337.005 46.9785H314.407C314.604 52.4822 318.534 56.2169 324.036 56.2169C328.163 56.2169 330.717 54.2513 332.093 52.6788C332.486 52.2857 333.075 52.0891 333.468 52.4822L336.219 54.4479C336.612 54.841 336.809 55.4307 336.416 55.8238C334.647 58.3791 330.521 61.9172 323.84 61.9172C314.014 61.9172 307.53 55.0375 307.53 45.6025C307.53 35.971 314.211 29.0913 322.857 29.0913ZM331.307 42.6541C331.11 37.5435 327.377 34.5951 323.054 34.5951C318.534 34.5951 314.997 37.7401 314.604 42.6541H331.307Z" fill="#2D67F7"/>
<path d="M20.633 67.2243V12.1869C20.633 11.5972 20.24 11.2041 19.847 11.2041L16.3099 10.6144C15.7204 10.6144 15.1309 11.0075 15.1309 11.5972V67.6175C15.1309 68.4037 15.7204 68.7968 16.3099 68.7968L19.6505 68.4037C20.24 68.2071 20.633 67.814 20.633 67.2243Z" fill="#2D67F7"/>
<path d="M11.0042 62.1137V17.1009C11.0042 16.5112 10.6112 16.1181 10.0217 16.1181L6.68113 15.725C6.09162 15.725 5.50211 16.1181 5.50211 16.7078V62.5068C5.50211 63.0965 6.09162 63.6862 6.68113 63.4896L10.0217 63.0965C10.6112 63.0965 11.0042 62.7034 11.0042 62.1137Z" fill="#2D67F7"/>
<path fill-rule="evenodd" clip-rule="evenodd" d="M68.5801 12.58L25.9386 5.50377C25.3491 5.3072 24.7596 5.89689 24.7596 6.48658V73.3178C24.7596 73.9075 25.3491 74.4972 25.9386 74.3006L68.5801 66.8312C68.9731 66.8312 69.3661 66.2415 69.3661 65.8484V13.5628C69.3661 12.9731 68.9731 12.58 68.5801 12.58ZM64.0605 61.1309C64.0605 61.7206 63.6675 62.1137 63.2745 62.1137L33.2093 66.4381C32.6198 66.4381 32.0302 66.045 32.0302 65.4553V15.3319C32.0302 14.7422 32.6198 14.1525 33.2093 14.3491L63.2745 18.0838C63.864 18.0838 64.257 18.6734 64.257 19.0666V61.1309H64.0605Z" fill="#2D67F7"/>
</svg>
