<svg xmlns="http://www.w3.org/2000/svg" width="200" height="200"><g fill="none" transform="translate(10 6)"><path fill="#334155" d="M50.578 165.306a79.2 79.2 0 0 1-17.77-13.934 19.816 19.816 0 0 1-5.468 4.742 20.043 20.043 0 0 1-3.646 1.605c28.287 30.907 74.124 38.244 110.634 17.708a5.563 5.563 0 0 0 0-9.647 5.465 5.465 0 0 0-5.468-.091 78.878 78.878 0 0 1-78.282-.383ZM50.56 28.597a78.728 78.728 0 0 1 20.997-8.372 19.908 19.908 0 0 1-1.385-7.295c.003-1.347.137-2.69.4-4.012C29.693 18.001.453 54.067 0 95.966a5.581 5.581 0 0 0 2.797 4.82 5.574 5.574 0 0 0 5.569-.005 5.472 5.472 0 0 0 2.789-4.669C11.453 68.223 26.43 42.56 50.56 28.597Zm118.307 68.354a78.977 78.977 0 0 1-3.244 22.378 19.786 19.786 0 0 1 6.963 2.407 22.163 22.163 0 0 1 3.262 2.28c12.547-39.968-4.064-83.318-40.098-104.648a5.574 5.574 0 0 0-5.467.164 5.582 5.582 0 0 0-2.699 4.76 5.473 5.473 0 0 0 2.643 4.742c23.96 14.225 38.647 40.04 38.64 67.917ZM90.02 59.418a37.51 37.51 0 0 1 34.668 23.157 37.55 37.55 0 0 1-8.12 40.91 37.493 37.493 0 0 1-40.88 8.144 37.535 37.535 0 0 1-23.16-34.678c.02-20.713 16.791-37.503 37.492-37.533m0-11.143c-26.866 0-48.646 21.793-48.646 48.676 0 26.883 21.78 48.676 48.646 48.676 26.867 0 48.646-21.793 48.646-48.676a48.673 48.673 0 0 0-14.243-34.425A48.613 48.613 0 0 0 90.02 48.275Z"/><ellipse cx="90.002" cy="12.985" fill="#F58320" rx="12.977" ry="12.985"/><ellipse cx="17.333" cy="138.916" fill="#F58320" rx="12.977" ry="12.985"/><ellipse cx="162.67" cy="138.916" fill="#F58320" rx="12.977" ry="12.985"/><path fill="#F58320" d="M100.774 88.07a10.753 10.753 0 0 0-20.88-3.634 10.763 10.763 0 0 0 4.84 12.99l-3.39 17.197a1.825 1.825 0 0 0 1.823 2.19h13.797a1.824 1.824 0 0 0 1.823-2.19l-3.408-17.198a10.743 10.743 0 0 0 5.395-9.356Z"/></g></svg>