<svg version="1.1" xmlns="http://www.w3.org/2000/svg" viewBox="0 0 809.0030546609328 708.1438392940221" width="1618.0061093218656" height="1416.2876785880442">
  <!-- svg-source:excalidraw -->
  
  <defs>
    <style class="style-fonts">
      @font-face {
        font-family: "Virgil";
        src: url("https://excalidraw.com/Virgil.woff2");
      }
      @font-face {
        font-family: "Cascadia";
        src: url("https://excalidraw.com/Cascadia.woff2");
      }
    </style>
  </defs>
  <rect x="0" y="0" width="809.0030546609328" height="708.1438392940221" fill="#ffffff"></rect><g stroke-linecap="round" transform="translate(537.3571990951166 10) rotate(0 98.99999999999994 140)"><path d="M7.86 8.16 C7.86 8.16, 7.86 8.16, 7.86 8.16 M7.86 8.16 C7.86 8.16, 7.86 8.16, 7.86 8.16 M3.66 19.09 C9.47 15.42, 11.56 10.75, 18.1 2.48 M3.66 19.09 C7.67 14.35, 12.6 9.92, 18.1 2.48 M2.75 26.24 C8.27 18.95, 13.86 13.92, 24.4 1.33 M2.75 26.24 C7.98 19.35, 15.42 13.47, 24.4 1.33 M2.48 32.64 C10.8 23.54, 16.31 17.58, 30.7 0.18 M2.48 32.64 C12.91 20.39, 24.86 8.19, 30.7 0.18 M2.88 38.28 C13.92 23.64, 24.57 9.31, 34.37 2.05 M2.88 38.28 C15.2 26.07, 25.44 12.1, 34.37 2.05 M2.62 44.68 C11.97 34.46, 18.94 25.51, 39.36 2.41 M2.62 44.68 C15.65 29.87, 26.87 15.62, 39.36 2.41 M2.36 51.07 C19.07 32.93, 31.56 18.67, 45 2.02 M2.36 51.07 C14 39.3, 24.8 26.01, 45 2.02 M2.75 56.72 C11.42 47.44, 20.8 33.53, 49.99 2.38 M2.75 56.72 C16.6 39.35, 31.88 24.3, 49.99 2.38 M2.49 63.11 C18.61 45.76, 30.37 30.88, 55.63 1.98 M2.49 63.11 C22 40.75, 41.01 19.52, 55.63 1.98 M2.23 69.51 C23.23 48.05, 43.28 25.07, 60.62 2.34 M2.23 69.51 C17.16 51.98, 31.95 33.38, 60.62 2.34 M2.62 75.16 C18.43 57.29, 35.53 38.31, 66.26 1.95 M2.62 75.16 C16.38 60.45, 29.44 44.41, 66.26 1.95 M2.36 81.55 C30.39 52.12, 54.61 19.73, 71.25 2.31 M2.36 81.55 C18.61 63.81, 32.64 45.17, 71.25 2.31 M2.76 87.2 C24.53 60.86, 47.27 34.66, 76.89 1.91 M2.76 87.2 C18.27 68.75, 34.36 51.22, 76.89 1.91 M2.49 93.59 C21.52 72.87, 37.01 53.28, 81.88 2.27 M2.49 93.59 C29.9 63.21, 55.4 32.58, 81.88 2.27 M2.23 99.99 C31.92 64.72, 62.47 29.53, 87.52 1.88 M2.23 99.99 C31.12 66.97, 58.71 34.03, 87.52 1.88 M2.63 105.64 C30.33 73.56, 60 42.84, 92.51 2.24 M2.63 105.64 C31.23 73.35, 59.23 41.6, 92.51 2.24 M2.37 112.03 C21.63 91.55, 39.19 70.07, 97.49 2.6 M2.37 112.03 C20.67 89.69, 41.31 67.9, 97.49 2.6 M2.76 117.68 C33.89 81.93, 67.48 44.03, 103.14 2.21 M2.76 117.68 C44.79 69.72, 83.25 24.43, 103.14 2.21 M2.5 124.07 C30.25 93.76, 55.54 64.67, 108.12 2.57 M2.5 124.07 C43.9 76.2, 85.4 28.41, 108.12 2.57 M2.24 130.47 C23.94 103.44, 46.04 74.99, 113.77 2.17 M2.24 130.47 C28.59 99.78, 53.47 68.5, 113.77 2.17 M2.63 136.11 C40.84 91.94, 80.28 48.75, 118.76 2.53 M2.63 136.11 C43.28 90.67, 83.01 43.07, 118.76 2.53 M2.37 142.51 C48.32 88.64, 94.74 35.13, 124.4 2.14 M2.37 142.51 C49.6 89.23, 96.32 35.77, 124.4 2.14 M2.11 148.91 C37.12 108.39, 67.72 68.06, 129.39 2.5 M2.11 148.91 C34.23 109.56, 66.43 71.5, 129.39 2.5 M2.5 154.55 C48.3 100.9, 97.04 44.83, 135.03 2.1 M2.5 154.55 C29.7 123.05, 55.87 92.84, 135.03 2.1 M2.24 160.95 C52.21 106.29, 96.79 53.76, 140.02 2.46 M2.24 160.95 C55.53 99.2, 107.57 38.59, 140.02 2.46 M2.64 166.59 C37.37 128.24, 71.93 87.58, 145 2.82 M2.64 166.59 C53.03 107.09, 106.16 47.3, 145 2.82 M2.38 172.99 C33.38 138.8, 64.68 102.65, 150.65 2.43 M2.38 172.99 C51.92 117.41, 100.63 60.79, 150.65 2.43 M2.11 179.39 C48.77 125.78, 95.67 72.45, 155.63 2.79 M2.11 179.39 C55.53 120.01, 108.86 59.42, 155.63 2.79 M2.51 185.03 C61.39 117.14, 122.22 47.51, 161.28 2.39 M2.51 185.03 C61.79 117.77, 120.28 50.41, 161.28 2.39 M2.25 191.43 C66.49 117.79, 133.59 40.57, 166.26 2.75 M2.25 191.43 C55.66 130.45, 110.13 67.15, 166.26 2.75 M1.99 197.83 C60.02 132.39, 116.72 66.48, 173.22 0.85 M1.99 197.83 C56.53 132.65, 113.37 68.68, 173.22 0.85 M2.38 203.47 C55.8 142.54, 105.92 83.19, 177.55 1.96 M2.38 203.47 C59.82 141.49, 114.71 77.48, 177.55 1.96 M2.12 209.87 C43.53 162.4, 83.98 115.33, 181.88 3.08 M2.12 209.87 C56.68 149.81, 109.58 89.9, 181.88 3.08 M2.51 215.51 C41.77 170.26, 80.94 125.02, 185.55 4.95 M2.51 215.51 C39.85 172.79, 76.08 130.15, 185.55 4.95 M2.25 221.91 C70.63 142.11, 143.67 61.15, 188.57 7.57 M2.25 221.91 C60.76 155.88, 116.82 90.54, 188.57 7.57 M1.99 228.31 C48.27 175.49, 96.07 122.47, 191.59 10.2 M1.99 228.31 C58.61 163.46, 114.14 97.56, 191.59 10.2 M2.39 233.95 C75.53 151.15, 147.62 67.13, 194.61 12.82 M2.39 233.95 C53.67 174.26, 105.92 114.26, 194.61 12.82 M2.12 240.35 C68.62 165.51, 132.83 89.47, 196.32 16.95 M2.12 240.35 C46.63 191.53, 88.52 142.77, 196.32 16.95 M0.55 248.26 C75.78 163.4, 147.54 79.95, 198.68 20.33 M0.55 248.26 C47.69 193.69, 95.01 139.72, 198.68 20.33 M0.95 253.9 C68.72 178.23, 132.79 100.65, 199.73 25.22 M0.95 253.9 C80.67 163.74, 158.9 73.2, 199.73 25.22 M2 258.79 C76.1 172.49, 151.96 88.25, 198.81 32.37 M2 258.79 C67.85 183.56, 133.5 109.2, 198.81 32.37 M3.7 262.92 C62.42 193.75, 120.04 126.32, 198.55 38.77 M3.7 262.92 C72.98 184.17, 142.28 105.82, 198.55 38.77 M4.75 267.81 C79.93 180.18, 157.01 94.35, 198.95 44.42 M4.75 267.81 C48.64 217, 92.09 167.99, 198.95 44.42 M7.77 270.43 C50.97 221.78, 90.05 172.25, 198.69 50.81 M7.77 270.43 C54.51 218.41, 100.56 165.1, 198.69 50.81 M10.79 273.06 C60.58 216.82, 108.64 159.24, 198.42 57.21 M10.79 273.06 C55.68 218.89, 101.59 166.54, 198.42 57.21 M13.15 276.44 C69.83 214.75, 121.13 153.32, 198.82 62.85 M13.15 276.44 C68.52 212.96, 124.02 148.41, 198.82 62.85 M16.83 278.31 C54.21 235.36, 93.99 192.29, 198.56 69.25 M16.83 278.31 C67.38 218.94, 118.87 159.68, 198.56 69.25 M20.5 280.18 C62.42 232.72, 101.83 185.59, 198.95 74.89 M20.5 280.18 C89.12 200.94, 158.21 120.72, 198.95 74.89 M25.49 280.54 C80.64 213.24, 139.59 149.3, 198.69 81.29 M25.49 280.54 C76.88 221.62, 126.47 163.02, 198.69 81.29 M29.82 281.65 C93.6 204.65, 157.41 130.78, 198.43 87.69 M29.82 281.65 C77.25 228.07, 122.07 176.52, 198.43 87.69 M34.81 282.01 C77.48 232.92, 124.56 182.3, 198.82 93.33 M34.81 282.01 C96.14 213.6, 156.81 141.99, 198.82 93.33 M39.8 282.37 C102.68 208.38, 163.45 135.29, 198.56 99.73 M39.8 282.37 C90.08 224.02, 139.95 165.67, 198.56 99.73 M45.44 281.98 C99.27 218.78, 155.89 157.15, 198.96 105.37 M45.44 281.98 C90.26 230.04, 133.6 179.62, 198.96 105.37 M50.43 282.34 C100.82 222.99, 151.22 168.21, 198.69 111.77 M50.43 282.34 C80.02 245.85, 111.67 209.55, 198.69 111.77 M56.07 281.94 C97.47 232.53, 136.67 186.79, 198.43 118.17 M56.07 281.94 C107.75 222.22, 159.41 164.4, 198.43 118.17 M61.06 282.3 C112.44 222.23, 168.44 161.3, 198.83 123.81 M61.06 282.3 C94.26 245.15, 127.9 208.51, 198.83 123.81 M66.7 281.91 C93.15 250.33, 121 216.01, 198.57 130.21 M66.7 281.91 C115.93 226.14, 164.21 169.97, 198.57 130.21 M71.69 282.27 C114.27 230.43, 160.61 180.29, 198.96 135.85 M71.69 282.27 C121.02 224.06, 171.25 166.19, 198.96 135.85 M76.67 282.63 C107.03 247.99, 136.46 214.26, 198.7 142.25 M76.67 282.63 C106.53 246.7, 135.96 211.51, 198.7 142.25 M82.32 282.23 C123.89 232.95, 164.74 186.67, 198.44 148.65 M82.32 282.23 C114.69 246.04, 146.88 208.78, 198.44 148.65 M87.3 282.59 C109.54 259.35, 131.46 232.95, 198.83 154.29 M87.3 282.59 C131.7 230.13, 175.37 180.62, 198.83 154.29 M92.95 282.2 C127.75 238.63, 163.41 197.42, 198.57 160.69 M92.95 282.2 C115.01 257.21, 136.64 232.85, 198.57 160.69 M97.93 282.56 C120.02 257.39, 144.93 229.1, 198.97 166.33 M97.93 282.56 C134.92 240.37, 171.84 197.9, 198.97 166.33 M103.58 282.16 C137.81 241.12, 172.4 204.23, 198.7 172.73 M103.58 282.16 C131.83 249.39, 158.7 217.07, 198.7 172.73 M108.56 282.52 C137.86 248.42, 171.73 212.34, 198.44 179.13 M108.56 282.52 C140.01 244.82, 173.52 207.35, 198.44 179.13 M114.21 282.13 C135.24 254.26, 158.12 228.24, 198.84 184.77 M114.21 282.13 C146.15 247.55, 177.42 210.63, 198.84 184.77 M119.19 282.49 C148.23 251.61, 176.42 216.04, 198.58 191.17 M119.19 282.49 C147.52 250.02, 174.3 217.27, 198.58 191.17 M124.84 282.1 C147.03 259.35, 168.7 233.8, 198.97 196.81 M124.84 282.1 C144.77 259.42, 163.34 235.95, 198.97 196.81 M129.82 282.46 C151.22 257.84, 176.15 231.68, 198.71 203.21 M129.82 282.46 C155.28 252.85, 180.49 224.42, 198.71 203.21 M135.47 282.06 C149.27 268.79, 159.88 254.7, 198.45 209.61 M135.47 282.06 C156.33 258.52, 176.36 235.81, 198.45 209.61 M140.45 282.42 C157.34 264.11, 173.14 246.81, 198.84 215.25 M140.45 282.42 C163.96 256.11, 186.44 230.79, 198.84 215.25 M146.1 282.03 C164.16 262.4, 180.47 239.84, 198.58 221.65 M146.1 282.03 C162.25 264.45, 176.53 246.52, 198.58 221.65 M151.08 282.39 C163.86 268.72, 177.41 252.92, 198.98 227.29 M151.08 282.39 C163.42 267.88, 176.06 254.24, 198.98 227.29 M156.73 281.99 C169.04 269.04, 178.3 258.29, 198.71 233.69 M156.73 281.99 C166.15 270.65, 177.54 259.33, 198.71 233.69 M161.71 282.35 C171.43 272.88, 176.57 264.21, 198.45 240.09 M161.71 282.35 C175.74 266.05, 189.27 250.48, 198.45 240.09 M168.01 281.2 C180.76 268.15, 191.89 255.35, 198.85 245.73 M168.01 281.2 C174.73 273.43, 182.52 266.32, 198.85 245.73 M173.66 280.81 C178.85 272.79, 184.87 267.23, 200.55 249.86 M173.66 280.81 C185.08 267.62, 194.82 257.02, 200.55 249.86 M180.61 278.9 C189.51 268.48, 196.58 263.47, 199.64 257.02 M180.61 278.9 C185.55 274.24, 189.42 269.41, 199.64 257.02" stroke="#4c6ef5" stroke-width="0.5" fill="none"></path><path d="M32 0 M32 0 C60.97 -3.14, 90.58 -2.55, 166 0 M32 0 C76.83 1.29, 120.82 1.12, 166 0 M166 0 C187.41 0.97, 197.42 10.16, 198 32 M166 0 C188.97 0.1, 199.17 12.86, 198 32 M198 32 C199.24 103.34, 198.47 174.44, 198 248 M198 32 C198.88 116.47, 199.05 201.51, 198 248 M198 248 C199.14 267.7, 185.59 278.1, 166 280 M198 248 C199.11 271.41, 187.81 280.49, 166 280 M166 280 C127.86 279.76, 89.29 281.35, 32 280 M166 280 C126.54 279.31, 85.04 278.49, 32 280 M32 280 C12.35 281.02, 1.87 267.66, 0 248 M32 280 C9.78 277.91, -0.05 271.06, 0 248 M0 248 C-0.3 177.86, 0.8 105.38, 0 32 M0 248 C-1.07 195.89, 0.46 144.56, 0 32 M0 32 C0.35 9.97, 11.54 0.35, 32 0 M0 32 C-0.3 12.12, 9.54 1.3, 32 0" stroke="#000000" stroke-width="1" fill="none"></path></g><g stroke-linecap="round" transform="translate(557.3571990951166 41.306603130202745) rotate(0 78 23)"><path d="M10.72 -1 L148.98 -0.45 L154.2 2.18 L157.02 6.91 L153.74 39.99 L151.8 45.27 L144.82 44.85 L8.07 45.69 L4.86 45.12 L1.56 37.22 L-0.7 7.41 L4.09 2.13 L13.21 0.53" stroke="none" stroke-width="0" fill="#228be6"></path><path d="M11.5 0 M11.5 0 C38.91 -2.04, 64.2 -1.05, 144.5 0 M11.5 0 C47.63 2.2, 84.09 1.31, 144.5 0 M144.5 0 C153 0.75, 154.41 3.62, 156 11.5 M144.5 0 C150.81 1.63, 154.8 3.13, 156 11.5 M156 11.5 C155.72 19.13, 156.84 22.74, 156 34.5 M156 11.5 C156.94 19.51, 155.89 28.32, 156 34.5 M156 34.5 C154.5 42.84, 152.74 45.23, 144.5 46 M156 34.5 C157.69 40.71, 151.89 44.01, 144.5 46 M144.5 46 C101.92 45.42, 61.9 47.03, 11.5 46 M144.5 46 C102.31 45.83, 60.12 46.64, 11.5 46 M11.5 46 C1.84 47.89, -1.2 43.4, 0 34.5 M11.5 46 C4.84 45.69, 1.52 39.9, 0 34.5 M0 34.5 C0.39 28.88, 0.88 21.37, 0 11.5 M0 34.5 C0.27 28.87, -0.42 23.44, 0 11.5 M0 11.5 C-1.95 5.83, 5.53 -1.75, 11.5 0 M0 11.5 C-1.7 3.61, 2.56 -1.11, 11.5 0" stroke="#000000" stroke-width="1" fill="none"></path></g><g transform="translate(604.5072006209955 51.806603130202745) rotate(0 30.849998474121094 12.5)"><text x="30.849998474121094" y="0" font-family="Virgil, Segoe UI Emoji" font-size="20px" fill="#000000" text-anchor="middle" style="white-space: pre;" direction="ltr" dominant-baseline="text-before-edge">Node 1</text></g><g stroke-linecap="round" transform="translate(557.3571990951166 106) rotate(0 78 23)"><path d="M10.89 -0.49 L150.3 0.95 L152.76 4.18 L156.57 7.38 L156.56 40.49 L149.96 46.05 L143.77 45.57 L6.61 43.79 L3.54 43.7 L-0.59 38.66 L-1.09 8.57 L1.15 3.13 L10.34 -0.74" stroke="none" stroke-width="0" fill="#228be6"></path><path d="M11.5 0 M11.5 0 C46.29 -0.08, 76.88 -0.77, 144.5 0 M11.5 0 C48.26 -0.18, 84.15 0.21, 144.5 0 M144.5 0 C153.4 0.88, 155.73 5.16, 156 11.5 M144.5 0 C149.9 -0.17, 157.4 1.68, 156 11.5 M156 11.5 C156.45 18.25, 155.32 25.47, 156 34.5 M156 11.5 C157.08 17.84, 157.09 26.98, 156 34.5 M156 34.5 C154.25 40.69, 151.97 44.89, 144.5 46 M156 34.5 C154.89 40.17, 153.7 44.26, 144.5 46 M144.5 46 C98.1 46.34, 52.49 46.04, 11.5 46 M144.5 46 C117.35 45.72, 88.24 45.16, 11.5 46 M11.5 46 C2.28 45.03, -1.25 43.37, 0 34.5 M11.5 46 C4.74 47.46, 0.49 39.94, 0 34.5 M0 34.5 C-0.84 27.71, -0.81 23.46, 0 11.5 M0 34.5 C-0.02 28.06, 0.85 20.71, 0 11.5 M0 11.5 C-0.69 5.5, 4.19 -0.09, 11.5 0 M0 11.5 C-0.65 3.68, 2.79 0.18, 11.5 0" stroke="#000000" stroke-width="1" fill="none"></path></g><g transform="translate(600.0972007735834 116.5) rotate(0 35.2599983215332 12.5)"><text x="35.2599983215332" y="0" font-family="Virgil, Segoe UI Emoji" font-size="20px" fill="#000000" text-anchor="middle" style="white-space: pre;" direction="ltr" dominant-baseline="text-before-edge">Node 2</text></g><g stroke-linecap="round" transform="translate(559.3571990951166 184) rotate(0 78 23)"><path d="M12.38 -0.27 L150.86 -1.25 L152.97 4.09 L153.95 9.34 L156.39 40.55 L151.83 43.62 L143.7 44.95 L6.83 46.07 L1.86 45.11 L-1.77 39.19 L1.87 7.05 L1.39 2.68 L10.39 -0.97" stroke="none" stroke-width="0" fill="#4c6ef5"></path><path d="M11.5 0 M11.5 0 C40.64 0.12, 70.07 -0.26, 144.5 0 M11.5 0 C44.52 0.16, 78.4 1.67, 144.5 0 M144.5 0 C154.05 -0.41, 156.75 2.28, 156 11.5 M144.5 0 C151.05 -1.44, 157.38 4.74, 156 11.5 M156 11.5 C154.86 20.42, 154.06 27.44, 156 34.5 M156 11.5 C155.89 17.42, 155.91 22.49, 156 34.5 M156 34.5 C156.78 44.08, 151.92 45.31, 144.5 46 M156 34.5 C157.91 42.57, 152.07 45.35, 144.5 46 M144.5 46 C107.19 46.1, 65.61 46.61, 11.5 46 M144.5 46 C101.42 47.6, 59.59 47.94, 11.5 46 M11.5 46 C3.24 44.34, -1.77 41.33, 0 34.5 M11.5 46 C5.83 48.23, 1.22 41.43, 0 34.5 M0 34.5 C0.27 29.09, -0.74 22.11, 0 11.5 M0 34.5 C0.45 25.61, 0.79 16.48, 0 11.5 M0 11.5 C-0.69 3.83, 4.71 -1.26, 11.5 0 M0 11.5 C-2.25 6.05, 2.09 -1.45, 11.5 0" stroke="#000000" stroke-width="1" fill="none"></path></g><g transform="translate(602.4071983321771 194.5) rotate(0 34.95000076293945 12.5)"><text x="34.95000076293945" y="0" font-family="Virgil, Segoe UI Emoji" font-size="20px" fill="#000000" text-anchor="middle" style="white-space: pre;" direction="ltr" dominant-baseline="text-before-edge">Node 3</text></g><g stroke-linecap="round" transform="translate(544.8525020588318 375.10610387388687) rotate(0 98.99999999999994 140)"><path d="M7.86 8.16 C7.86 8.16, 7.86 8.16, 7.86 8.16 M7.86 8.16 C7.86 8.16, 7.86 8.16, 7.86 8.16 M3.66 19.09 C7.37 14.35, 11.74 5.67, 18.1 2.48 M3.66 19.09 C6.85 15.7, 12.15 10.87, 18.1 2.48 M2.75 26.24 C10.93 19.97, 17.03 11.58, 24.4 1.33 M2.75 26.24 C8.9 19.35, 15.84 12.02, 24.4 1.33 M2.48 32.64 C13.67 21.65, 23.31 10.05, 30.7 0.18 M2.48 32.64 C9.72 25.66, 16 17.56, 30.7 0.18 M2.88 38.28 C9.84 25.71, 21.38 18.04, 34.37 2.05 M2.88 38.28 C14.24 26.03, 25.12 11.81, 34.37 2.05 M2.62 44.68 C14.06 29.3, 27.86 16.43, 39.36 2.41 M2.62 44.68 C17.78 28.7, 32.67 10.98, 39.36 2.41 M2.36 51.07 C9.93 39.22, 20.43 27.56, 45 2.02 M2.36 51.07 C11.76 40.62, 20.55 31.42, 45 2.02 M2.75 56.72 C13.72 42.46, 27.89 25.38, 49.99 2.38 M2.75 56.72 C14.13 45.17, 25.39 31.34, 49.99 2.38 M2.49 63.11 C19.26 44.97, 35.8 22.97, 55.63 1.98 M2.49 63.11 C19.31 43.38, 35.34 24.51, 55.63 1.98 M2.23 69.51 C18.25 52.84, 35.05 31.42, 60.62 2.34 M2.23 69.51 C17.58 52.18, 33.64 33.42, 60.62 2.34 M2.62 75.16 C17.1 56.2, 31.96 40.07, 66.26 1.95 M2.62 75.16 C24.48 49.07, 46.3 23.85, 66.26 1.95 M2.36 81.55 C24.32 57.79, 41.68 33.55, 71.25 2.31 M2.36 81.55 C15.75 64.77, 30.49 48.43, 71.25 2.31 M2.76 87.2 C29.53 53.35, 58.71 21.02, 76.89 1.91 M2.76 87.2 C27.47 60.52, 50.01 33.66, 76.89 1.91 M2.49 93.59 C30.39 65.92, 54.94 33, 81.88 2.27 M2.49 93.59 C19.28 75.21, 36.25 56.86, 81.88 2.27 M2.23 99.99 C23.47 75.19, 45.61 48.82, 87.52 1.88 M2.23 99.99 C22.38 77.81, 39.72 56.44, 87.52 1.88 M2.63 105.64 C25.5 82.44, 48.33 53.24, 92.51 2.24 M2.63 105.64 C38.04 65.49, 73.72 25.11, 92.51 2.24 M2.37 112.03 C25.17 83.35, 50.79 57.74, 97.49 2.6 M2.37 112.03 C39.54 68.97, 76.47 26.61, 97.49 2.6 M2.76 117.68 C38.94 76.22, 76.83 30.72, 103.14 2.21 M2.76 117.68 C38.82 74.53, 76.12 32.17, 103.14 2.21 M2.5 124.07 C31.59 89.36, 57.94 58.92, 108.12 2.57 M2.5 124.07 C41.21 81.41, 78.58 36.8, 108.12 2.57 M2.24 130.47 C34.04 93.57, 62.41 56.01, 113.77 2.17 M2.24 130.47 C36.42 94.1, 68.39 55.28, 113.77 2.17 M2.63 136.11 C43.01 85.76, 88 40.56, 118.76 2.53 M2.63 136.11 C47.05 83.02, 94.87 29.48, 118.76 2.53 M2.37 142.51 C27.97 114.49, 50.4 83.34, 124.4 2.14 M2.37 142.51 C27.98 112.73, 53.54 82.18, 124.4 2.14 M2.11 148.91 C28.27 113.95, 58.41 81.99, 129.39 2.5 M2.11 148.91 C51.53 93.32, 99.37 35.95, 129.39 2.5 M2.5 154.55 C37.96 116.01, 69.1 77.68, 135.03 2.1 M2.5 154.55 C46.03 104.9, 87.64 57.17, 135.03 2.1 M2.24 160.95 C49.78 108.83, 92.64 54.5, 140.02 2.46 M2.24 160.95 C44.78 111.21, 87.51 61.62, 140.02 2.46 M2.64 166.59 C52.97 104.32, 106.95 46.64, 145 2.82 M2.64 166.59 C41.43 122.57, 80.3 79.07, 145 2.82 M2.38 172.99 C62.61 105.17, 120.48 38.67, 150.65 2.43 M2.38 172.99 C31.54 139.31, 61.63 104.74, 150.65 2.43 M2.11 179.39 C58.34 110.78, 116.42 45.38, 155.63 2.79 M2.11 179.39 C49.58 123.4, 97.32 68.22, 155.63 2.79 M2.51 185.03 C47.71 132.9, 93.59 79.99, 161.28 2.39 M2.51 185.03 C63.09 116.45, 121.61 47.65, 161.28 2.39 M2.25 191.43 C54.89 130.67, 106.18 69.33, 166.26 2.75 M2.25 191.43 C59.06 126.45, 116.47 61.17, 166.26 2.75 M1.99 197.83 C61.37 129.24, 123.56 60.44, 173.22 0.85 M1.99 197.83 C65.31 123.61, 128.63 48.94, 173.22 0.85 M2.38 203.47 C64.13 130.86, 124.45 59.09, 177.55 1.96 M2.38 203.47 C44.37 156.92, 85.37 109.62, 177.55 1.96 M2.12 209.87 C52.26 153.8, 101.33 99.65, 181.88 3.08 M2.12 209.87 C50.78 152.22, 100.97 94.69, 181.88 3.08 M2.51 215.51 C44.66 166.28, 86.22 117.21, 185.55 4.95 M2.51 215.51 C60.5 149.19, 117.81 81.87, 185.55 4.95 M2.25 221.91 C39.08 176.07, 78.86 134.24, 188.57 7.57 M2.25 221.91 C68.6 143.96, 135.36 67.59, 188.57 7.57 M1.99 228.31 C46.16 175.35, 89.44 124.44, 191.59 10.2 M1.99 228.31 C55.98 165.6, 112.56 101.78, 191.59 10.2 M2.39 233.95 C50.83 176.7, 102.68 118.92, 194.61 12.82 M2.39 233.95 C44.07 185.26, 86.21 135.6, 194.61 12.82 M2.12 240.35 C44.22 192, 88.35 143.4, 196.32 16.95 M2.12 240.35 C68.01 165.73, 133.04 90.01, 196.32 16.95 M0.55 248.26 C40.14 202.06, 81.26 157.82, 198.68 20.33 M0.55 248.26 C54.62 185.21, 108.56 122.43, 198.68 20.33 M0.95 253.9 C77.34 167.96, 153.81 79.95, 199.73 25.22 M0.95 253.9 C76.11 166.8, 151.8 79.46, 199.73 25.22 M2 258.79 C73.17 179.79, 142.85 99.3, 198.81 32.37 M2 258.79 C50.49 201.09, 101.28 142.66, 198.81 32.37 M3.7 262.92 C62.02 195.81, 121.31 127.1, 198.55 38.77 M3.7 262.92 C48.7 211.31, 94.56 158.13, 198.55 38.77 M4.75 267.81 C63.9 200.31, 124.53 132.56, 198.95 44.42 M4.75 267.81 C66.6 196.18, 128.37 125.43, 198.95 44.42 M7.77 270.43 C63.06 209.59, 117.34 145.88, 198.69 50.81 M7.77 270.43 C59.43 212.59, 109.81 155.61, 198.69 50.81 M10.79 273.06 C83.83 191.97, 156.42 106.57, 198.42 57.21 M10.79 273.06 C69.83 203.55, 130.55 133.49, 198.42 57.21 M13.15 276.44 C57.96 225.93, 101.7 174.36, 198.82 62.85 M13.15 276.44 C72.48 210.02, 130.35 144.13, 198.82 62.85 M16.83 278.31 C90.61 195.12, 161.23 112.14, 198.56 69.25 M16.83 278.31 C81.66 203.7, 145.86 127.65, 198.56 69.25 M20.5 280.18 C87.12 202.87, 152.2 125.23, 198.95 74.89 M20.5 280.18 C90.59 202.9, 158.72 124.09, 198.95 74.89 M25.49 280.54 C78.81 223.04, 126.45 165.7, 198.69 81.29 M25.49 280.54 C64.33 234.28, 105.04 188.2, 198.69 81.29 M29.82 281.65 C82.71 219.13, 137.75 158.15, 198.43 87.69 M29.82 281.65 C87.8 212.89, 146.94 145.23, 198.43 87.69 M34.81 282.01 C82.24 225.03, 129.4 171.42, 198.82 93.33 M34.81 282.01 C92.45 214.19, 150.02 148.94, 198.82 93.33 M39.8 282.37 C101.17 210.87, 164.22 139.35, 198.56 99.73 M39.8 282.37 C80.99 235.89, 120.78 189.35, 198.56 99.73 M45.44 281.98 C101.43 220.88, 155.78 156.27, 198.96 105.37 M45.44 281.98 C87.55 236.1, 127.44 190.26, 198.96 105.37 M50.43 282.34 C99.06 222.99, 148.94 166.8, 198.69 111.77 M50.43 282.34 C81.43 246.68, 110.67 212.1, 198.69 111.77 M56.07 281.94 C100.59 230.16, 146.24 178.38, 198.43 118.17 M56.07 281.94 C101.19 230.23, 145.01 180.42, 198.43 118.17 M61.06 282.3 C114.26 218.61, 169.79 155.67, 198.83 123.81 M61.06 282.3 C99.01 238.62, 135.05 194.71, 198.83 123.81 M66.7 281.91 C114.12 226.8, 164.14 172.95, 198.57 130.21 M66.7 281.91 C117.19 224.83, 167.08 166.29, 198.57 130.21 M71.69 282.27 C99.7 249.29, 131.55 217.94, 198.96 135.85 M71.69 282.27 C121.95 224.9, 173.56 165.33, 198.96 135.85 M76.67 282.63 C119.36 236, 163.28 185.67, 198.7 142.25 M76.67 282.63 C117.01 234.97, 159.05 187.81, 198.7 142.25 M82.32 282.23 C125.47 231.41, 168.67 179.9, 198.44 148.65 M82.32 282.23 C117.36 242.14, 151.89 201.62, 198.44 148.65 M87.3 282.59 C115.34 249.27, 142.89 215.75, 198.83 154.29 M87.3 282.59 C109.34 253.83, 133.62 227.54, 198.83 154.29 M92.95 282.2 C118.61 254.48, 144.65 223.52, 198.57 160.69 M92.95 282.2 C130.83 239.55, 166.83 197.48, 198.57 160.69 M97.93 282.56 C134.27 240.51, 171.7 197.9, 198.97 166.33 M97.93 282.56 C118.08 257.77, 138.91 235.01, 198.97 166.33 M103.58 282.16 C129.18 252.07, 158.4 222.55, 198.7 172.73 M103.58 282.16 C129.24 251.76, 155.24 221.31, 198.7 172.73 M108.56 282.52 C132.62 252.61, 158.05 222.53, 198.44 179.13 M108.56 282.52 C132.51 253.97, 158.55 225.87, 198.44 179.13 M114.21 282.13 C147.28 244.68, 175.91 209.14, 198.84 184.77 M114.21 282.13 C141.67 252.23, 166.3 220.69, 198.84 184.77 M119.19 282.49 C143.54 255.94, 165.21 230.87, 198.58 191.17 M119.19 282.49 C147.42 249.79, 177.55 215.44, 198.58 191.17 M124.84 282.1 C149.92 254.54, 173.1 226.45, 198.97 196.81 M124.84 282.1 C141.46 263.33, 157.97 245.67, 198.97 196.81 M129.82 282.46 C142.74 264.3, 157.18 251.87, 198.71 203.21 M129.82 282.46 C154.96 255.65, 179.5 225.52, 198.71 203.21 M135.47 282.06 C156.25 258.62, 175.52 235.74, 198.45 209.61 M135.47 282.06 C150.55 264.61, 167.27 245.19, 198.45 209.61 M140.45 282.42 C161.5 261.19, 180.47 236.06, 198.84 215.25 M140.45 282.42 C159.24 260.6, 179.54 238.2, 198.84 215.25 M146.1 282.03 C160.31 266.2, 173.33 248.34, 198.58 221.65 M146.1 282.03 C157.06 268.96, 170.08 253.81, 198.58 221.65 M151.08 282.39 C166.37 263.85, 182.9 248.22, 198.98 227.29 M151.08 282.39 C166.8 265.82, 180.98 247.19, 198.98 227.29 M156.73 281.99 C171.22 269.03, 180.74 251.24, 198.71 233.69 M156.73 281.99 C165.78 271.22, 175.2 260.93, 198.71 233.69 M161.71 282.35 C173.17 272.32, 182.23 258.46, 198.45 240.09 M161.71 282.35 C174.11 268.47, 184.63 256.52, 198.45 240.09 M168.01 281.2 C176.3 272.36, 181.24 264.01, 198.85 245.73 M168.01 281.2 C177.02 272.98, 184.04 262.29, 198.85 245.73 M173.66 280.81 C181.83 271.81, 188.42 262.71, 200.55 249.86 M173.66 280.81 C180.71 273.09, 187.4 263.03, 200.55 249.86 M180.61 278.9 C186.07 271.9, 190.46 265.3, 199.64 257.02 M180.61 278.9 C185.49 272.29, 191.33 265.86, 199.64 257.02" stroke="#40c057" stroke-width="0.5" fill="none"></path><path d="M32 0 M32 0 C62.44 -1.16, 89.7 -1.68, 166 0 M32 0 C81.72 0.91, 129.04 2.11, 166 0 M166 0 C185.8 -1.72, 198.37 9.01, 198 32 M166 0 C186.7 0.62, 196.86 11.79, 198 32 M198 32 C198.63 114.47, 197.99 199.32, 198 248 M198 32 C196.3 85.96, 197.69 140.17, 198 248 M198 248 C199.45 268.85, 186.48 281.46, 166 280 M198 248 C197.49 268.18, 188.87 278.14, 166 280 M166 280 C130.8 279.09, 97.15 277.98, 32 280 M166 280 C127.7 280.25, 89.83 280.19, 32 280 M32 280 C8.74 279.7, 1.89 269.47, 0 248 M32 280 C10.46 278.81, -2.22 268.56, 0 248 M0 248 C-1.74 170.77, -1.7 92, 0 32 M0 248 C-1.58 189.94, -1.36 133.09, 0 32 M0 32 C-0.4 11.4, 11.4 -0.82, 32 0 M0 32 C1.51 11.82, 12.12 -1.05, 32 0" stroke="#000000" stroke-width="1" fill="none"></path></g><g stroke-linecap="round" transform="translate(564.8525020588318 398.10610387388687) rotate(0 78 23)"><path d="M11.14 1.41 L150.76 1.76 L154.27 3.15 L156.38 9.92 L155.74 37.68 L150.86 44.26 L145.42 45.99 L6.22 43.99 L3.87 41.21 L-1.76 36.52 L0.48 6.89 L1.6 4.68 L13.14 0.98" stroke="none" stroke-width="0" fill="#40c057"></path><path d="M11.5 0 M11.5 0 C55.01 1.15, 96.63 0.7, 144.5 0 M11.5 0 C51.63 1.74, 92.57 2.01, 144.5 0 M144.5 0 C153.66 -1.77, 156.55 4.17, 156 11.5 M144.5 0 C153.59 -0.67, 158.06 2.17, 156 11.5 M156 11.5 C156.66 16.83, 155.23 20.58, 156 34.5 M156 11.5 C155.26 20.45, 156.71 29.54, 156 34.5 M156 34.5 C156.13 40.8, 152.55 46.81, 144.5 46 M156 34.5 C155.73 39.99, 152.9 44.79, 144.5 46 M144.5 46 C108.81 44.74, 73.78 44.97, 11.5 46 M144.5 46 C103.35 47.03, 59.71 47.9, 11.5 46 M11.5 46 C2.01 44.24, -1.07 41.19, 0 34.5 M11.5 46 C2.05 43.81, -0.72 42.23, 0 34.5 M0 34.5 C0.99 25.93, 0.86 18.02, 0 11.5 M0 34.5 C-0.79 29.1, -0.88 24.27, 0 11.5 M0 11.5 C-0.44 5.77, 3.59 -0.05, 11.5 0 M0 11.5 C0.6 5.44, 2.66 -0.16, 11.5 0" stroke="#000000" stroke-width="1" fill="none"></path></g><g transform="translate(612.0025035847106 408.60610387388687) rotate(0 30.849998474121094 12.5)"><text x="30.849998474121094" y="0" font-family="Virgil, Segoe UI Emoji" font-size="20px" fill="#000000" text-anchor="middle" style="white-space: pre;" direction="ltr" dominant-baseline="text-before-edge">Node 1</text></g><g stroke-linecap="round" transform="translate(563.8525020588318 471.10610387388687) rotate(0 78 23)"><path d="M12.64 0.28 L150.09 1.83 L153.59 1.03 L155.17 8.68 L156.2 39.52 L151.26 43.09 L145.49 44.08 L4.53 44.61 L3.18 41.21 L-1.09 39 L1.82 9.79 L3.25 1.41 L12.45 1.1" stroke="none" stroke-width="0" fill="#40c057"></path><path d="M11.5 0 M11.5 0 C63.35 -1.03, 113.15 -1.84, 144.5 0 M11.5 0 C59.01 -1.93, 105.3 -0.88, 144.5 0 M144.5 0 C153.41 -0.58, 157.79 2.38, 156 11.5 M144.5 0 C149.89 -0.42, 157.13 4.64, 156 11.5 M156 11.5 C157.52 20.56, 153.98 25.14, 156 34.5 M156 11.5 C156.19 18.19, 156.32 26.66, 156 34.5 M156 34.5 C155.77 40.28, 152.8 44.95, 144.5 46 M156 34.5 C155.38 41.05, 150.5 46.73, 144.5 46 M144.5 46 C106.9 47.09, 70.36 47.72, 11.5 46 M144.5 46 C104.97 46.14, 66.74 46.53, 11.5 46 M11.5 46 C2.28 44.1, -0.63 42.22, 0 34.5 M11.5 46 C5.02 45.1, 1.32 43.2, 0 34.5 M0 34.5 C-1.95 28.82, -0.81 20.39, 0 11.5 M0 34.5 C-0.03 30.03, 0.06 23.6, 0 11.5 M0 11.5 C0.52 5.23, 2.82 -0.14, 11.5 0 M0 11.5 C1.75 2.78, 3.21 0.28, 11.5 0" stroke="#000000" stroke-width="1" fill="none"></path></g><g transform="translate(606.5925037372984 481.60610387388687) rotate(0 35.2599983215332 12.5)"><text x="35.2599983215332" y="0" font-family="Virgil, Segoe UI Emoji" font-size="20px" fill="#000000" text-anchor="middle" style="white-space: pre;" direction="ltr" dominant-baseline="text-before-edge">Node 2</text></g><g stroke-linecap="round" transform="translate(566.8525020588318 549.1061038738869) rotate(0 78 23)"><path d="M11.96 -1.85 L148.88 0.59 L154.05 2.86 L155.57 7.51 L156.27 37.62 L149.56 43.71 L144.8 44.09 L5.2 47.08 L4.52 44.11 L0.56 35.73 L1.13 9.9 L4.66 3.17 L12.84 0.11" stroke="none" stroke-width="0" fill="#40c057"></path><path d="M11.5 0 M11.5 0 C51.51 0.34, 91.04 2.12, 144.5 0 M11.5 0 C40.27 -0.51, 68.7 -0.95, 144.5 0 M144.5 0 C150.18 -0.37, 156.98 4.54, 156 11.5 M144.5 0 C152.98 -0.84, 155.81 5.68, 156 11.5 M156 11.5 C156.19 21.06, 156.88 28.52, 156 34.5 M156 11.5 C155.93 15.88, 156.36 21.63, 156 34.5 M156 34.5 C155.46 41.2, 150.71 46.64, 144.5 46 M156 34.5 C155.66 44.39, 152.09 46.37, 144.5 46 M144.5 46 C96.88 45.73, 51.18 45.35, 11.5 46 M144.5 46 C115.56 44.4, 87.85 45.38, 11.5 46 M11.5 46 C4.86 45.22, 1.15 43.07, 0 34.5 M11.5 46 C3.28 46.89, -0.35 40.03, 0 34.5 M0 34.5 C-1.19 25.22, -1.31 18.72, 0 11.5 M0 34.5 C0.29 26.07, -0.48 16.18, 0 11.5 M0 11.5 C1.52 2.91, 3.29 0.24, 11.5 0 M0 11.5 C-1.42 3.03, 3.51 -1.93, 11.5 0" stroke="#000000" stroke-width="1" fill="none"></path></g><g transform="translate(609.9025012958922 559.6061038738869) rotate(0 34.95000076293945 12.5)"><text x="34.95000076293945" y="0" font-family="Virgil, Segoe UI Emoji" font-size="20px" fill="#000000" text-anchor="middle" style="white-space: pre;" direction="ltr" dominant-baseline="text-before-edge">Node 3</text></g><g transform="translate(482.36663863335957 307.7688677100676) rotate(0 143.45001220703125 12.5)"><text x="0" y="0" font-family="Virgil, Segoe UI Emoji" font-size="20px" fill="#000000" text-anchor="start" style="white-space: pre;" direction="ltr" dominant-baseline="text-before-edge">Blue Deployment (old version)</text></g><g transform="translate(493.8630705300734 673.1438392940221) rotate(0 152.5699920654297 12.5)"><text x="0" y="0" font-family="Virgil, Segoe UI Emoji" font-size="20px" fill="#000000" text-anchor="start" style="white-space: pre;" direction="ltr" dominant-baseline="text-before-edge">Green Deployment (new version)</text></g><g stroke-linecap="round" transform="translate(168.09205930249547 272.71919600358564) rotate(269.9999999999999 130.8289993006931 40.14858179597991)"><path d="M20.62 -0.99 L242.56 1.67 L251.23 0.34 L256.43 4.59 L260.41 17.24 L260.68 58.98 L258.73 67.8 L253.11 79.46 L240.76 81.74 L19.59 79.45 L12.75 78.6 L1.82 73.79 L-1.3 63.96 L-0.33 14.13 L3.53 4.93 L9.86 0.06 L19.79 -1.58" stroke="none" stroke-width="0" fill="#ced4da"></path><path d="M20.07 0 M20.07 0 C97.64 -0.04, 171.98 0.45, 241.58 0 M20.07 0 C107.05 -0.67, 194.62 0.72, 241.58 0 M241.58 0 C255.3 -1.74, 260.03 8.3, 261.66 20.07 M241.58 0 C253.14 1.67, 260.87 7.97, 261.66 20.07 M261.66 20.07 C260.7 34.31, 261.02 49.55, 261.66 60.22 M261.66 20.07 C261.99 34.23, 261.04 46.9, 261.66 60.22 M261.66 60.22 C260.39 75.42, 255.89 78.39, 241.58 80.3 M261.66 60.22 C261.29 71.86, 256.53 78.98, 241.58 80.3 M241.58 80.3 C153.48 80.48, 65.79 80.02, 20.07 80.3 M241.58 80.3 C158.48 79.89, 74.7 79.31, 20.07 80.3 M20.07 80.3 C6.3 78.47, -1.88 73.58, 0 60.22 M20.07 80.3 C6.9 78.51, -1.8 73.81, 0 60.22 M0 60.22 C1.21 44.93, 0.86 28.53, 0 20.07 M0 60.22 C0.45 44.42, -0.43 30.76, 0 20.07 M0 20.07 C-0.44 4.81, 6.48 -1.4, 20.07 0 M0 20.07 C-0.13 5.89, 6.26 1.99, 20.07 0" stroke="#000000" stroke-width="1" fill="none"></path></g><g transform="translate(227.33105463590343 300.36777779956554) rotate(269.9999999999999 71.59000396728516 12.5)"><text x="71.59000396728516" y="0" font-family="Virgil, Segoe UI Emoji" font-size="20px" fill="#000000" text-anchor="middle" style="white-space: pre;" direction="ltr" dominant-baseline="text-before-edge">Load Balancer</text></g><g transform="translate(23.299615479656893 338.1510010318354) rotate(0 28.5 12.5)"><text x="0" y="0" font-family="Virgil, Segoe UI Emoji" font-size="20px" fill="#000000" text-anchor="start" style="white-space: pre;" direction="ltr" dominant-baseline="text-before-edge">Users</text></g><g stroke-linecap="round" transform="translate(63.74243241887635 270.8911576974985) rotate(0 9.875171816384778 8.640775339336718)"><path d="M2.19 3.23 C2.19 3.23, 2.19 3.23, 2.19 3.23 M2.19 3.23 C2.19 3.23, 2.19 3.23, 2.19 3.23 M2.98 14.51 C7 9.89, 11.02 5.26, 14.13 1.68 M2.98 14.51 C6.2 10.8, 9.43 7.09, 14.13 1.68 M10.33 18.25 C12.75 15.46, 15.18 12.67, 19.51 7.69 M10.33 18.25 C12.65 15.58, 14.97 12.91, 19.51 7.69 M3.77 15.47 C3.77 15.47, 3.77 15.47, 3.77 15.47 M3.77 15.47 C3.77 15.47, 3.77 15.47, 3.77 15.47 M15.81 15.34 C12.05 12.07, 8.29 8.8, 2.23 3.53 M15.81 15.34 C13.07 12.95, 10.32 10.56, 2.23 3.53 M20.31 8.65 C17.79 6.46, 15.27 4.27, 9.74 -0.54 M20.31 8.65 C16.35 5.21, 12.4 1.77, 9.74 -0.54" stroke="#ced4da" stroke-width="1" fill="none"></path><path d="M19.75 8.64 C19.75 9.14, 19.7 9.65, 19.6 10.14 C19.5 10.63, 19.35 11.13, 19.15 11.6 C18.96 12.07, 18.71 12.53, 18.43 12.96 C18.14 13.39, 17.81 13.81, 17.44 14.19 C17.07 14.58, 16.66 14.94, 16.22 15.26 C15.78 15.58, 15.31 15.87, 14.81 16.12 C14.32 16.37, 13.79 16.59, 13.25 16.76 C12.72 16.93, 12.15 17.06, 11.59 17.15 C11.03 17.24, 10.45 17.28, 9.88 17.28 C9.3 17.28, 8.72 17.24, 8.16 17.15 C7.6 17.06, 7.03 16.93, 6.5 16.76 C5.96 16.59, 5.43 16.37, 4.94 16.12 C4.44 15.87, 3.97 15.58, 3.53 15.26 C3.09 14.94, 2.68 14.58, 2.31 14.19 C1.94 13.81, 1.61 13.39, 1.32 12.96 C1.04 12.53, 0.79 12.07, 0.6 11.6 C0.4 11.13, 0.25 10.63, 0.15 10.14 C0.05 9.65, 0 9.14, 0 8.64 C0 8.14, 0.05 7.63, 0.15 7.14 C0.25 6.65, 0.4 6.16, 0.6 5.69 C0.79 5.22, 1.04 4.75, 1.32 4.32 C1.61 3.89, 1.94 3.47, 2.31 3.09 C2.68 2.7, 3.09 2.34, 3.53 2.02 C3.97 1.7, 4.44 1.41, 4.94 1.16 C5.43 0.91, 5.96 0.69, 6.5 0.52 C7.03 0.35, 7.6 0.22, 8.16 0.13 C8.72 0.04, 9.3 0, 9.88 0 C10.45 0, 11.03 0.04, 11.59 0.13 C12.15 0.22, 12.72 0.35, 13.25 0.52 C13.79 0.69, 14.32 0.91, 14.81 1.16 C15.31 1.41, 15.78 1.7, 16.22 2.02 C16.66 2.34, 17.07 2.7, 17.44 3.09 C17.81 3.47, 18.14 3.89, 18.43 4.32 C18.71 4.75, 18.96 5.22, 19.15 5.69 C19.35 6.16, 19.5 6.65, 19.6 7.14 C19.7 7.63, 19.73 8.39, 19.75 8.64 C19.78 8.89, 19.78 8.39, 19.75 8.64" stroke="#000000" stroke-width="2" fill="none"></path></g><g stroke-linecap="round" transform="translate(20.558758294554224 271.4742254811326) rotate(0 9.875171816384778 8.640775339336718)"><path d="M2.19 3.23 C2.19 3.23, 2.19 3.23, 2.19 3.23 M2.19 3.23 C2.19 3.23, 2.19 3.23, 2.19 3.23 M2.98 14.51 C7.15 9.71, 11.33 4.91, 14.13 1.68 M2.98 14.51 C6.26 10.74, 9.55 6.96, 14.13 1.68 M10.33 18.25 C13.34 14.78, 16.36 11.31, 19.51 7.69 M10.33 18.25 C13.27 14.87, 16.22 11.48, 19.51 7.69 M3.77 15.47 C3.77 15.47, 3.77 15.47, 3.77 15.47 M3.77 15.47 C3.77 15.47, 3.77 15.47, 3.77 15.47 M15.81 15.34 C10.5 10.72, 5.18 6.1, 2.23 3.53 M15.81 15.34 C11.06 11.21, 6.31 7.08, 2.23 3.53 M20.31 8.65 C18 6.64, 15.7 4.64, 9.74 -0.54 M20.31 8.65 C17.52 6.23, 14.74 3.8, 9.74 -0.54" stroke="#ced4da" stroke-width="1" fill="none"></path><path d="M19.75 8.64 C19.75 9.14, 19.7 9.65, 19.6 10.14 C19.5 10.63, 19.35 11.13, 19.15 11.6 C18.96 12.07, 18.71 12.53, 18.43 12.96 C18.14 13.39, 17.81 13.81, 17.44 14.19 C17.07 14.58, 16.66 14.94, 16.22 15.26 C15.78 15.58, 15.31 15.87, 14.81 16.12 C14.32 16.37, 13.79 16.59, 13.25 16.76 C12.72 16.93, 12.15 17.06, 11.59 17.15 C11.03 17.24, 10.45 17.28, 9.88 17.28 C9.3 17.28, 8.72 17.24, 8.16 17.15 C7.6 17.06, 7.03 16.93, 6.5 16.76 C5.96 16.59, 5.43 16.37, 4.94 16.12 C4.44 15.87, 3.97 15.58, 3.53 15.26 C3.09 14.94, 2.68 14.58, 2.31 14.19 C1.94 13.81, 1.61 13.39, 1.32 12.96 C1.04 12.53, 0.79 12.07, 0.6 11.6 C0.4 11.13, 0.25 10.63, 0.15 10.14 C0.05 9.65, 0 9.14, 0 8.64 C0 8.14, 0.05 7.63, 0.15 7.14 C0.25 6.65, 0.4 6.16, 0.6 5.69 C0.79 5.22, 1.04 4.75, 1.32 4.32 C1.61 3.89, 1.94 3.47, 2.31 3.09 C2.68 2.7, 3.09 2.34, 3.53 2.02 C3.97 1.7, 4.44 1.41, 4.94 1.16 C5.43 0.91, 5.96 0.69, 6.5 0.52 C7.03 0.35, 7.6 0.22, 8.16 0.13 C8.72 0.04, 9.3 0, 9.88 0 C10.45 0, 11.03 0.04, 11.59 0.13 C12.15 0.22, 12.72 0.35, 13.25 0.52 C13.79 0.69, 14.32 0.91, 14.81 1.16 C15.31 1.41, 15.78 1.7, 16.22 2.02 C16.66 2.34, 17.07 2.7, 17.44 3.09 C17.81 3.47, 18.14 3.89, 18.43 4.32 C18.71 4.75, 18.96 5.22, 19.15 5.69 C19.35 6.16, 19.5 6.65, 19.6 7.14 C19.7 7.63, 19.73 8.39, 19.75 8.64 C19.78 8.89, 19.78 8.39, 19.75 8.64" stroke="#000000" stroke-width="2" fill="none"></path></g><g stroke-linecap="round"><g transform="translate(31.01057830181864 330.4052612187822) rotate(0 21.90843989373377 -18.494048425191174)" fill-rule="evenodd"><path d="M11.93 -33.36 C11.93 -33.36, 11.93 -33.36, 11.93 -33.36 M11.93 -33.36 C11.93 -33.36, 11.93 -33.36, 11.93 -33.36 M6.81 -15.28 C13.91 -23.45, 21.01 -31.62, 25.18 -36.41 M6.81 -15.28 C12.41 -21.72, 18 -28.16, 25.18 -36.41 M2.35 2.04 C13.9 -11.24, 25.44 -24.52, 31.87 -31.92 M2.35 2.04 C10.27 -7.07, 18.19 -16.17, 31.87 -31.92 M12.98 2.01 C20.25 -6.35, 27.52 -14.71, 37.25 -25.92 M12.98 2.01 C18.57 -4.42, 24.16 -10.85, 37.25 -25.92 M23.61 1.97 C27.65 -2.68, 31.7 -7.33, 41.32 -18.4 M23.61 1.97 C29.7 -5.03, 35.8 -12.04, 41.32 -18.4 M34.9 1.19 C37.26 -1.53, 39.62 -4.24, 46.05 -11.64 M34.9 1.19 C37.89 -2.26, 40.88 -5.7, 46.05 -11.64 M0 0 C0 0, 0 0, 0 0 M0 0 C0 0, 0 0, 0 0 M12.04 -0.13 C9.55 -2.3, 7.06 -4.46, 1.47 -9.32 M12.04 -0.13 C9.46 -2.38, 6.88 -4.62, 1.47 -9.32 M24.08 -0.27 C16.97 -6.45, 9.86 -12.63, 2.95 -18.64 M24.08 -0.27 C17.96 -5.59, 11.84 -10.91, 2.95 -18.64 M34.61 -1.71 C26.93 -8.39, 19.25 -15.07, 5.93 -26.64 M34.61 -1.71 C23.82 -11.1, 13.02 -20.48, 5.93 -26.64 M43.64 -4.47 C36.36 -10.79, 29.08 -17.12, 11.18 -32.68 M43.64 -4.47 C31.61 -14.92, 19.59 -25.37, 11.18 -32.68 M42.85 -15.76 C35.5 -22.14, 28.15 -28.53, 17.19 -38.06 M42.85 -15.76 C33.23 -24.11, 23.61 -32.47, 17.19 -38.06" stroke="#ced4da" stroke-width="1" fill="none"></path><path d="M0 0 C0.78 -4.11, 1.34 -18.46, 4.68 -24.67 C8.03 -30.87, 14.94 -36.78, 20.07 -37.23 C25.2 -37.68, 31.83 -33.14, 35.45 -27.36 C39.07 -21.58, 47.71 -7.12, 41.81 -2.56 C35.9 2, 6.97 -0.43, 0 0 M0 0 C0.78 -4.11, 1.34 -18.46, 4.68 -24.67 C8.03 -30.87, 14.94 -36.78, 20.07 -37.23 C25.2 -37.68, 31.83 -33.14, 35.45 -27.36 C39.07 -21.58, 47.71 -7.12, 41.81 -2.56 C35.9 2, 6.97 -0.43, 0 0" stroke="#000000" stroke-width="2" fill="none"></path></g></g><mask></mask><g stroke-linecap="round" transform="translate(41.49670045262869 273.83074989894516) rotate(0 10.702336545928873 9.364544477687804)"><path d="M2.43 3.43 C2.43 3.43, 2.43 3.43, 2.43 3.43 M2.43 3.43 C2.43 3.43, 2.43 3.43, 2.43 3.43 M2.56 15.48 C5.33 12.28, 8.11 9.09, 15.02 1.14 M2.56 15.48 C5.85 11.69, 9.15 7.9, 15.02 1.14 M9.91 19.21 C12.33 16.43, 14.76 13.64, 21.06 6.38 M9.91 19.21 C12.3 16.46, 14.7 13.7, 21.06 6.38 M4.02 16.71 C4.02 16.71, 4.02 16.71, 4.02 16.71 M4.02 16.71 C4.02 16.71, 4.02 16.71, 4.02 16.71 M16.82 17.23 C11.07 12.24, 5.33 7.25, 1.72 4.11 M16.82 17.23 C11.08 12.25, 5.34 7.26, 1.72 4.11 M21.31 10.54 C17.49 7.22, 13.67 3.9, 9.24 0.04 M21.31 10.54 C17.24 7, 13.16 3.46, 9.24 0.04" stroke="#ced4da" stroke-width="1" fill="none"></path><path d="M21.4 9.36 C21.4 9.91, 21.35 10.46, 21.24 10.99 C21.13 11.52, 20.97 12.06, 20.76 12.57 C20.55 13.08, 20.28 13.58, 19.97 14.05 C19.66 14.52, 19.3 14.97, 18.9 15.38 C18.5 15.8, 18.06 16.19, 17.58 16.54 C17.11 16.89, 16.59 17.2, 16.05 17.47 C15.52 17.75, 14.94 17.98, 14.36 18.16 C13.78 18.35, 13.17 18.49, 12.56 18.59 C11.95 18.68, 11.32 18.73, 10.7 18.73 C10.08 18.73, 9.45 18.68, 8.84 18.59 C8.23 18.49, 7.62 18.35, 7.04 18.16 C6.46 17.98, 5.89 17.75, 5.35 17.47 C4.81 17.2, 4.3 16.89, 3.82 16.54 C3.35 16.19, 2.9 15.8, 2.5 15.38 C2.11 14.97, 1.74 14.52, 1.43 14.05 C1.12 13.58, 0.86 13.08, 0.65 12.57 C0.43 12.06, 0.27 11.52, 0.16 10.99 C0.06 10.46, 0 9.91, 0 9.36 C0 8.82, 0.06 8.27, 0.16 7.74 C0.27 7.2, 0.43 6.67, 0.65 6.16 C0.86 5.65, 1.12 5.15, 1.43 4.68 C1.74 4.21, 2.11 3.76, 2.5 3.35 C2.9 2.93, 3.35 2.54, 3.82 2.19 C4.3 1.84, 4.81 1.53, 5.35 1.25 C5.89 0.98, 6.46 0.75, 7.04 0.56 C7.62 0.38, 8.23 0.24, 8.84 0.14 C9.45 0.05, 10.08 0, 10.7 0 C11.32 0, 11.95 0.05, 12.56 0.14 C13.17 0.24, 13.78 0.38, 14.36 0.56 C14.94 0.75, 15.52 0.98, 16.05 1.25 C16.59 1.53, 17.11 1.84, 17.58 2.19 C18.06 2.54, 18.5 2.93, 18.9 3.35 C19.3 3.76, 19.66 4.21, 19.97 4.68 C20.28 5.15, 20.55 5.65, 20.76 6.16 C20.97 6.67, 21.13 7.2, 21.24 7.74 C21.35 8.27, 21.38 9.09, 21.4 9.36 C21.43 9.64, 21.43 9.09, 21.4 9.36" stroke="#000000" stroke-width="2" fill="none"></path></g><g stroke-linecap="round"><g transform="translate(60.161913756269655 296.73619653372924) rotate(0 16.71865860152218 9.921154001040179)" fill-rule="evenodd"><path d="M0 0 C0 0, 0 0, 0 0 M0 0 C0 0, 0 0, 0 0 M6.04 5.25 C8.63 2.26, 11.23 -0.72, 17.85 -8.34 M6.04 5.25 C9.44 1.34, 12.84 -2.57, 17.85 -8.34 M12.08 10.5 C16.92 4.93, 21.76 -0.64, 25.2 -4.6 M12.08 10.5 C14.86 7.29, 17.65 4.09, 25.2 -4.6 M15.49 18.76 C21.36 12.01, 27.24 5.25, 31.23 0.65 M15.49 18.76 C20.86 12.58, 26.24 6.4, 31.23 0.65 M16.93 29.3 C23.03 22.28, 29.13 15.26, 33.34 10.43 M16.93 29.3 C22.34 23.08, 27.75 16.86, 33.34 10.43 M29.53 27 C31.49 24.74, 33.45 22.49, 34.78 20.96 M29.53 27 C31.57 24.66, 33.6 22.31, 34.78 20.96 M14.43 27.6 C14.43 27.6, 14.43 27.6, 14.43 27.6 M14.43 27.6 C14.43 27.6, 14.43 27.6, 14.43 27.6 M25.72 26.82 C22.82 24.29, 19.92 21.77, 16.66 18.94 M25.72 26.82 C23.31 24.72, 20.91 22.63, 16.66 18.94 M33.98 23.4 C27.09 17.41, 20.2 11.42, 3.04 -3.5 M33.98 23.4 C26.81 17.17, 19.64 10.93, 3.04 -3.5 M36.97 15.4 C28.88 8.37, 20.8 1.34, 9.8 -8.22 M36.97 15.4 C31.4 10.56, 25.83 5.72, 9.8 -8.22" stroke="#ced4da" stroke-width="1" fill="none"></path><path d="M0 0 C0.86 -0.93, 3.58 -4.18, 5.17 -5.57 C6.77 -6.97, 7.56 -7.83, 9.55 -8.36 C11.54 -8.89, 14.99 -8.89, 17.12 -8.76 C19.24 -8.62, 20.83 -8.43, 22.29 -7.56 C23.75 -6.7, 24.88 -5.11, 25.87 -3.58 C26.87 -2.06, 27.47 -0.33, 28.26 1.59 C29.06 3.52, 29.92 5.84, 30.65 7.96 C31.38 10.08, 32.18 12.41, 32.64 14.33 C33.11 16.25, 33.44 17.78, 33.44 19.51 C33.44 21.23, 33.3 23.42, 32.64 24.68 C31.98 25.94, 30.72 26.47, 29.46 27.07 C28.2 27.67, 26.87 28, 25.08 28.26 C23.29 28.53, 20.43 28.73, 18.71 28.66 C16.98 28.59, 15.46 28.93, 14.73 27.86 C14 26.8, 14.66 23.82, 14.33 22.29 C14 20.77, 13.47 20.23, 12.74 18.71 C12.01 17.18, 11.08 15.33, 9.95 13.14 C8.82 10.95, 7.63 7.76, 5.97 5.57 C4.31 3.38, 1 0.93, 0 0 M0 0 C0.86 -0.93, 3.58 -4.18, 5.17 -5.57 C6.77 -6.97, 7.56 -7.83, 9.55 -8.36 C11.54 -8.89, 14.99 -8.89, 17.12 -8.76 C19.24 -8.62, 20.83 -8.43, 22.29 -7.56 C23.75 -6.7, 24.88 -5.11, 25.87 -3.58 C26.87 -2.06, 27.47 -0.33, 28.26 1.59 C29.06 3.52, 29.92 5.84, 30.65 7.96 C31.38 10.08, 32.18 12.41, 32.64 14.33 C33.11 16.25, 33.44 17.78, 33.44 19.51 C33.44 21.23, 33.3 23.42, 32.64 24.68 C31.98 25.94, 30.72 26.47, 29.46 27.07 C28.2 27.67, 26.87 28, 25.08 28.26 C23.29 28.53, 20.43 28.73, 18.71 28.66 C16.98 28.59, 15.46 28.93, 14.73 27.86 C14 26.8, 14.66 23.82, 14.33 22.29 C14 20.77, 13.47 20.23, 12.74 18.71 C12.01 17.18, 11.08 15.33, 9.95 13.14 C8.82 10.95, 7.63 7.76, 5.97 5.57 C4.31 3.38, 1 0.93, 0 0" stroke="#000000" stroke-width="2" fill="none"></path></g></g><mask></mask><g stroke-linecap="round"><g transform="translate(42.243127302935676 296.7243206303248) rotate(0 -16.121563651467838 12.19394740044196)" fill-rule="evenodd"><path d="M-24.42 -2.68 C-24.42 -2.68, -24.42 -2.68, -24.42 -2.68 M-24.42 -2.68 C-24.42 -2.68, -24.42 -2.68, -24.42 -2.68 M-26.26 11.62 C-20.98 5.55, -15.7 -0.52, -12.48 -4.23 M-26.26 11.62 C-22.34 7.12, -18.43 2.61, -12.48 -4.23 M-29.41 27.44 C-19.17 15.66, -8.93 3.88, -2.51 -3.51 M-29.41 27.44 C-19.18 15.67, -8.95 3.91, -2.51 -3.51 M-22.71 31.93 C-18.15 26.68, -13.58 21.42, -8.28 15.33 M-22.71 31.93 C-17.84 26.33, -12.97 20.73, -8.28 15.33 M-12.74 32.65 C-12.11 31.92, -11.48 31.2, -10.77 30.39 M-12.74 32.65 C-12.17 31.99, -11.6 31.34, -10.77 30.39 M-31.63 25.72 C-31.63 25.72, -31.63 25.72, -31.63 25.72 M-31.63 25.72 C-31.63 25.72, -31.63 25.72, -31.63 25.72 M-13.55 30.83 C-19.05 26.05, -24.55 21.27, -29.4 17.05 M-13.55 30.83 C-19.12 25.99, -24.69 21.15, -29.4 17.05 M-6.79 26.11 C-14.23 19.64, -21.67 13.18, -27.92 7.74 M-6.79 26.11 C-14.66 19.26, -22.53 12.42, -27.92 7.74 M-8.34 14.16 C-12.48 10.56, -16.62 6.97, -24.94 -0.27 M-8.34 14.16 C-12.66 10.41, -16.98 6.65, -24.94 -0.27 M-4.6 6.81 C-8.74 3.22, -12.87 -0.38, -20.45 -6.96 M-4.6 6.81 C-9.74 2.34, -14.89 -2.13, -20.45 -6.96 M-0.1 0.12 C-2.69 -2.13, -5.29 -4.38, -12.93 -11.03 M-0.1 0.12 C-4.04 -3.3, -7.98 -6.72, -12.93 -11.03" stroke="#ced4da" stroke-width="1" fill="none"></path><path d="M0 0 C-0.66 -0.73, -2.59 -3.18, -3.98 -4.38 C-5.37 -5.57, -6.37 -6.63, -8.36 -7.17 C-10.35 -7.7, -13.8 -7.7, -15.92 -7.56 C-18.05 -7.43, -19.64 -7.23, -21.1 -6.37 C-22.56 -5.51, -23.68 -3.91, -24.68 -2.39 C-25.68 -0.86, -26.27 0.86, -27.07 2.79 C-27.86 4.71, -28.73 7.03, -29.46 9.16 C-30.19 11.28, -30.98 13.6, -31.45 15.52 C-31.91 17.45, -32.24 18.97, -32.24 20.7 C-32.24 22.42, -32.11 24.61, -31.45 25.87 C-30.78 27.13, -29.46 27.53, -28.26 28.26 C-27.07 28.99, -26.01 29.72, -24.28 30.25 C-22.56 30.78, -20.1 31.25, -17.91 31.45 C-15.72 31.65, -12.41 32.64, -11.15 31.45 C-9.89 30.25, -10.62 26.07, -10.35 24.28 C-10.08 22.49, -9.89 22.29, -9.55 20.7 C-9.22 19.11, -9.16 17.05, -8.36 14.73 C-7.56 12.41, -6.17 9.22, -4.78 6.77 C-3.38 4.31, -0.8 1.13, 0 0 M0 0 C-0.66 -0.73, -2.59 -3.18, -3.98 -4.38 C-5.37 -5.57, -6.37 -6.63, -8.36 -7.17 C-10.35 -7.7, -13.8 -7.7, -15.92 -7.56 C-18.05 -7.43, -19.64 -7.23, -21.1 -6.37 C-22.56 -5.51, -23.68 -3.91, -24.68 -2.39 C-25.68 -0.86, -26.27 0.86, -27.07 2.79 C-27.86 4.71, -28.73 7.03, -29.46 9.16 C-30.19 11.28, -30.98 13.6, -31.45 15.52 C-31.91 17.45, -32.24 18.97, -32.24 20.7 C-32.24 22.42, -32.11 24.61, -31.45 25.87 C-30.78 27.13, -29.46 27.53, -28.26 28.26 C-27.07 28.99, -26.01 29.72, -24.28 30.25 C-22.56 30.78, -20.1 31.25, -17.91 31.45 C-15.72 31.65, -12.41 32.64, -11.15 31.45 C-9.89 30.25, -10.62 26.07, -10.35 24.28 C-10.08 22.49, -9.89 22.29, -9.55 20.7 C-9.22 19.11, -9.16 17.05, -8.36 14.73 C-7.56 12.41, -6.17 9.22, -4.78 6.77 C-3.38 4.31, -0.8 1.13, 0 0" stroke="#000000" stroke-width="2" fill="none"></path></g></g><mask></mask><g stroke-linecap="round"><g transform="translate(109.94583739107617 301.79230695929556) rotate(0 69.50582442546883 -0.21775699114179936)"><path d="M0.46 -1.13 C23.33 -1.4, 114.38 -1.34, 137.53 -1.27 M-0.75 0.89 C22.46 0.81, 116.46 0.92, 139.77 0.32" stroke="#000000" stroke-width="1" fill="none"></path></g><g transform="translate(109.94583739107617 301.79230695929556) rotate(0 69.50582442546883 -0.21775699114179936)"><path d="M109.8 9.35 C121 8.85, 131.08 2.86, 137.83 -1.25 M111.78 10.88 C117.49 7.38, 126.2 6.02, 140.47 0.9" stroke="#000000" stroke-width="1" fill="none"></path></g><g transform="translate(109.94583739107617 301.79230695929556) rotate(0 69.50582442546883 -0.21775699114179936)"><path d="M109.59 -11.17 C120.92 -4.98, 131.06 -4.27, 137.83 -1.25 M111.57 -9.64 C117.47 -8.16, 126.22 -4.54, 140.47 0.9" stroke="#000000" stroke-width="1" fill="none"></path></g></g><mask></mask><g stroke-linecap="round"><g transform="translate(346.6840266018544 299.023439249228) rotate(0 91.89297819086164 -68.33590292315091)"><path d="M0.9 -0.81 C31.56 -23.98, 153.71 -115.18, 183.87 -138.05 M-0.08 1.37 C30.53 -21.76, 152.78 -113.94, 183.51 -137.03" stroke="#000000" stroke-width="1" fill="none"></path></g><g transform="translate(346.6840266018544 299.023439249228) rotate(0 91.89297819086164 -68.33590292315091)"><path d="M165.81 -110 C170.08 -120.78, 174.95 -127.54, 181.61 -136.13 M168.12 -110.89 C173.61 -120.46, 178.74 -128.9, 184.02 -137.04" stroke="#000000" stroke-width="1" fill="none"></path></g><g transform="translate(346.6840266018544 299.023439249228) rotate(0 91.89297819086164 -68.33590292315091)"><path d="M153.47 -126.39 C161.47 -132.49, 169.93 -134.47, 181.61 -136.13 M155.78 -127.28 C165.69 -131.12, 175.21 -133.74, 184.02 -137.04" stroke="#000000" stroke-width="1" fill="none"></path></g></g><mask></mask><g stroke-linecap="round"><g transform="translate(345.2995927468206 337.7875871901741) rotate(0 97.23161390106503 70.46981831922541)"><path d="M0.56 -1.07 C32.89 22.77, 161.75 117.94, 193.9 142.01" stroke="#000000" stroke-width="1.5" fill="none" stroke-dasharray="8 9"></path></g><g transform="translate(345.2995927468206 337.7875871901741) rotate(0 97.23161390106503 70.46981831922541)"><path d="M163.37 133.57 C172.52 135.21, 183.21 137.65, 194.25 140.82" stroke="#000000" stroke-width="1.5" fill="none"></path></g><g transform="translate(345.2995927468206 337.7875871901741) rotate(0 97.23161390106503 70.46981831922541)"><path d="M175.61 117.09 C181.04 123.62, 188.14 130.88, 194.25 140.82" stroke="#000000" stroke-width="1.5" fill="none"></path></g></g><mask></mask><g transform="translate(344.2668979542183 413.3442172592771) rotate(36.6751652732473 77.04073370879092 7.65143055727205)"><text x="0" y="0" font-family="Virgil, Segoe UI Emoji" font-size="12.24228889163527px" fill="#000000" text-anchor="start" style="white-space: pre;" direction="ltr" dominant-baseline="text-before-edge">switch traffic when ready</text></g></svg>