<svg version="1.1" xmlns="http://www.w3.org/2000/svg" viewBox="0 0 1035.2128615642703 288.10009003177834" width="2070.4257231285405" height="576.2001800635567">
  <!-- svg-source:excalidraw -->
  
  <defs>
    <style class="style-fonts">
      @font-face {
        font-family: "Virgil";
        src: url("https://excalidraw.com/Virgil.woff2");
      }
      @font-face {
        font-family: "Cascadia";
        src: url("https://excalidraw.com/Cascadia.woff2");
      }
    </style>
  </defs>
  <rect x="0" y="0" width="1035.2128615642703" height="288.10009003177834" fill="#ffffff"></rect><g stroke-linecap="round" transform="translate(572.5859715004883 10) rotate(0 78 23)"><path d="M12.29 1.87 L150.88 2.14 L153.22 1.18 L154.64 8.07 L153.7 39.91 L152.04 44.73 L143.77 45.85 L5.31 44.12 L4.18 42.97 L0.4 38.48 L0.52 9.61 L2.2 3.43 L10.86 -1.47" stroke="none" stroke-width="0" fill="#40c057"></path><path d="M11.5 0 M11.5 0 C55.86 -0.94, 104.69 2.02, 144.5 0 M11.5 0 C52.5 -1.59, 93.8 -0.09, 144.5 0 M144.5 0 C153.34 -1.84, 156.21 3.91, 156 11.5 M144.5 0 C151.21 2.01, 158.25 6.11, 156 11.5 M156 11.5 C156.38 20.39, 157.4 27.42, 156 34.5 M156 11.5 C156.47 16.53, 156.46 23.82, 156 34.5 M156 34.5 C154.88 41.69, 151.57 46.75, 144.5 46 M156 34.5 C153.99 39.99, 151.21 46.01, 144.5 46 M144.5 46 C107.85 47.16, 73.45 44.78, 11.5 46 M144.5 46 C96.28 45.69, 48.24 45.73, 11.5 46 M11.5 46 C2.44 46.17, -0.11 43.81, 0 34.5 M11.5 46 C5.29 45.32, -1.71 40.21, 0 34.5 M0 34.5 C0.18 27.03, 0.55 23.73, 0 11.5 M0 34.5 C0.9 26.51, 0.2 17.09, 0 11.5 M0 11.5 C0.6 2.61, 3.13 -0.22, 11.5 0 M0 11.5 C-0.84 6.1, 2.16 -0.68, 11.5 0" stroke="#000000" stroke-width="1" fill="none"></path></g><g transform="translate(619.7359730263672 20.5) rotate(0 30.849998474121094 12.5)"><text x="30.849998474121094" y="0" font-family="Virgil, Segoe UI Emoji" font-size="20px" fill="#000000" text-anchor="middle" style="white-space: pre;" direction="ltr" dominant-baseline="text-before-edge">Node 1</text></g><g stroke-linecap="round" transform="translate(575.3548392105558 84.38443385503382) rotate(0 78 23)"><path d="M11.59 -1.69 L148.35 -0.01 L151.54 3.25 L156.36 9.15 L154.55 39.39 L150.35 43.23 L145.8 45.84 L6.69 46.57 L3.22 43.93 L-0.5 37.75 L-0.46 7.34 L3.82 4.75 L9.99 -1.83" stroke="none" stroke-width="0" fill="#228be6"></path><path d="M11.5 0 M11.5 0 C38.68 1.09, 66.68 -1.3, 144.5 0 M11.5 0 C41.89 -1.91, 71.22 -0.95, 144.5 0 M144.5 0 C151.34 1.75, 157.95 5.81, 156 11.5 M144.5 0 C153.62 -1, 156.37 4.38, 156 11.5 M156 11.5 C155.37 20.22, 155.58 27.19, 156 34.5 M156 11.5 C155.52 15.99, 155.78 21.32, 156 34.5 M156 34.5 C154.25 40.28, 151.33 46.01, 144.5 46 M156 34.5 C155.17 40.86, 153.07 44.2, 144.5 46 M144.5 46 C101.63 46.03, 54.75 45.61, 11.5 46 M144.5 46 C95.7 46.96, 48.24 47.69, 11.5 46 M11.5 46 C5.1 45.41, -1.49 40.47, 0 34.5 M11.5 46 C3.1 47.84, 1.38 42.59, 0 34.5 M0 34.5 C1.16 27.3, 0.05 25.09, 0 11.5 M0 34.5 C0.3 26.21, -0.35 19.03, 0 11.5 M0 11.5 C-0.73 5.8, 2.38 -0.6, 11.5 0 M0 11.5 C-0.4 5.04, 5.33 -2.23, 11.5 0" stroke="#000000" stroke-width="1" fill="none"></path></g><g transform="translate(618.0948408890226 94.88443385503382) rotate(0 35.2599983215332 12.5)"><text x="35.2599983215332" y="0" font-family="Virgil, Segoe UI Emoji" font-size="20px" fill="#000000" text-anchor="middle" style="white-space: pre;" direction="ltr" dominant-baseline="text-before-edge">Node 2</text></g><g stroke-linecap="round" transform="translate(577.3548392105558 151.3089630147635) rotate(0 78 23)"><path d="M9.92 0.38 L150.07 1.07 L152.39 2.73 L154.66 7.65 L156.58 39.38 L151.73 45.67 L144.84 46.8 L5.79 45.84 L2.24 41.66 L1.13 39.07 L-1.33 6.98 L0.93 3.68 L12.52 0.21" stroke="none" stroke-width="0" fill="#228be6"></path><path d="M11.5 0 M11.5 0 C61.59 -0.25, 116.2 1.59, 144.5 0 M11.5 0 C38.72 0.83, 67.74 0.94, 144.5 0 M144.5 0 C153.43 -0.87, 156.32 4.31, 156 11.5 M144.5 0 C152.78 1.72, 155.09 2.91, 156 11.5 M156 11.5 C154.04 20.43, 156.68 26.95, 156 34.5 M156 11.5 C155.06 16.91, 155.51 24.21, 156 34.5 M156 34.5 C155.28 41.03, 152.95 44.44, 144.5 46 M156 34.5 C156.74 41.17, 150.17 47.5, 144.5 46 M144.5 46 C97.97 48.39, 50.29 45.11, 11.5 46 M144.5 46 C104.12 46.79, 61.74 46.24, 11.5 46 M11.5 46 C3.2 47.6, 1.2 42.53, 0 34.5 M11.5 46 C2.34 46.84, 1.8 43.59, 0 34.5 M0 34.5 C0.66 29.65, -1.54 25.43, 0 11.5 M0 34.5 C-0.28 30, -0.65 23.22, 0 11.5 M0 11.5 C-0.35 4.88, 5.14 -1.94, 11.5 0 M0 11.5 C0.14 5.14, 1.87 -0.24, 11.5 0" stroke="#000000" stroke-width="1" fill="none"></path></g><g transform="translate(620.4048384476164 161.8089630147635) rotate(0 34.95000076293945 12.5)"><text x="34.95000076293945" y="0" font-family="Virgil, Segoe UI Emoji" font-size="20px" fill="#000000" text-anchor="middle" style="white-space: pre;" direction="ltr" dominant-baseline="text-before-edge">Node 3</text></g><g stroke-linecap="round" transform="translate(169.47649315752938 107.12250893510526) rotate(269.9999999999999 130.8289993006931 40.14858179597991)"><path d="M18.57 -1.83 L239.64 0.8 L251.38 1.47 L258.4 6.27 L260.72 13.85 L260.99 61.7 L261.58 67.16 L254.02 77.55 L240.75 82.05 L22.03 82.28 L12.56 78.17 L3.15 72.93 L0.85 66.43 L-0.48 14.57 L6.22 4.42 L11.95 -0.64 L20.72 0.74" stroke="none" stroke-width="0" fill="#ced4da"></path><path d="M20.07 0 M20.07 0 C74.8 -0.94, 126.59 -0.15, 241.58 0 M20.07 0 C86.95 0.41, 153.42 0.71, 241.58 0 M241.58 0 C253.23 1.31, 262.84 5.29, 261.66 20.07 M241.58 0 C255.85 1.42, 263.82 8.2, 261.66 20.07 M261.66 20.07 C263.33 30.59, 261.1 37.08, 261.66 60.22 M261.66 20.07 C262.13 28.89, 260.88 37.71, 261.66 60.22 M261.66 60.22 C263.23 74.85, 253.17 80.43, 241.58 80.3 M261.66 60.22 C263.26 74.38, 254.95 78.54, 241.58 80.3 M241.58 80.3 C168.3 78.99, 97.1 78.37, 20.07 80.3 M241.58 80.3 C182.29 80.46, 121.92 81.79, 20.07 80.3 M20.07 80.3 C4.99 80.09, 1.26 73.31, 0 60.22 M20.07 80.3 C8.3 82.59, -0.29 74.26, 0 60.22 M0 60.22 C-0.39 44.11, -0.18 29.93, 0 20.07 M0 60.22 C-0.9 47.97, 0.2 34.67, 0 20.07 M0 20.07 C-1.03 8.01, 8.05 -1.11, 20.07 0 M0 20.07 C0.42 7.75, 5.98 0.49, 20.07 0" stroke="#000000" stroke-width="1" fill="none"></path></g><g transform="translate(228.71548849093733 134.77109073108517) rotate(269.9999999999999 71.59000396728516 12.5)"><text x="71.59000396728516" y="0" font-family="Virgil, Segoe UI Emoji" font-size="20px" fill="#000000" text-anchor="middle" style="white-space: pre;" direction="ltr" dominant-baseline="text-before-edge">Load Balancer</text></g><g transform="translate(23.299615479656723 172.554313963355) rotate(0 28.5 12.5)"><text x="0" y="0" font-family="Virgil, Segoe UI Emoji" font-size="20px" fill="#000000" text-anchor="start" style="white-space: pre;" direction="ltr" dominant-baseline="text-before-edge">Users</text></g><g stroke-linecap="round" transform="translate(63.742432418876206 105.29447062901812) rotate(0 9.87517181638475 8.64077533933672)"><path d="M2.19 3.23 C2.19 3.23, 2.19 3.23, 2.19 3.23 M2.19 3.23 C2.19 3.23, 2.19 3.23, 2.19 3.23 M2.98 14.51 C6.68 10.25, 10.39 5.99, 14.13 1.68 M2.98 14.51 C5.69 11.39, 8.4 8.27, 14.13 1.68 M10.33 18.25 C13.95 14.09, 17.57 9.92, 19.51 7.69 M10.33 18.25 C13.82 14.24, 17.31 10.22, 19.51 7.69 M3.77 15.47 C3.77 15.47, 3.77 15.47, 3.77 15.47 M3.77 15.47 C3.77 15.47, 3.77 15.47, 3.77 15.47 M15.81 15.34 C11.91 11.95, 8.01 8.55, 2.23 3.53 M15.81 15.34 C12.07 12.08, 8.32 8.83, 2.23 3.53 M20.31 8.65 C17.47 6.18, 14.62 3.71, 9.74 -0.54 M20.31 8.65 C16.41 5.25, 12.5 1.86, 9.74 -0.54" stroke="#ced4da" stroke-width="1" fill="none"></path><path d="M19.75 8.64 C19.75 9.14, 19.7 9.65, 19.6 10.14 C19.5 10.63, 19.35 11.13, 19.15 11.6 C18.96 12.07, 18.71 12.53, 18.43 12.96 C18.14 13.39, 17.81 13.81, 17.44 14.19 C17.07 14.58, 16.66 14.94, 16.22 15.26 C15.78 15.58, 15.31 15.87, 14.81 16.12 C14.32 16.37, 13.79 16.59, 13.25 16.76 C12.72 16.93, 12.15 17.06, 11.59 17.15 C11.03 17.24, 10.45 17.28, 9.88 17.28 C9.3 17.28, 8.72 17.24, 8.16 17.15 C7.6 17.06, 7.03 16.93, 6.5 16.76 C5.96 16.59, 5.43 16.37, 4.94 16.12 C4.44 15.87, 3.97 15.58, 3.53 15.26 C3.09 14.94, 2.68 14.58, 2.31 14.19 C1.94 13.81, 1.61 13.39, 1.32 12.96 C1.04 12.53, 0.79 12.07, 0.6 11.6 C0.4 11.13, 0.25 10.63, 0.15 10.14 C0.05 9.65, 0 9.14, 0 8.64 C0 8.14, 0.05 7.63, 0.15 7.14 C0.25 6.65, 0.4 6.16, 0.6 5.69 C0.79 5.22, 1.04 4.75, 1.32 4.32 C1.61 3.89, 1.94 3.47, 2.31 3.09 C2.68 2.7, 3.09 2.34, 3.53 2.02 C3.97 1.7, 4.44 1.41, 4.94 1.16 C5.43 0.91, 5.96 0.69, 6.5 0.52 C7.03 0.35, 7.6 0.22, 8.16 0.13 C8.72 0.04, 9.3 0, 9.88 0 C10.45 0, 11.03 0.04, 11.59 0.13 C12.15 0.22, 12.72 0.35, 13.25 0.52 C13.79 0.69, 14.32 0.91, 14.81 1.16 C15.31 1.41, 15.78 1.7, 16.22 2.02 C16.66 2.34, 17.07 2.7, 17.44 3.09 C17.81 3.47, 18.14 3.89, 18.43 4.32 C18.71 4.75, 18.96 5.22, 19.15 5.69 C19.35 6.16, 19.5 6.65, 19.6 7.14 C19.7 7.63, 19.73 8.39, 19.75 8.64 C19.78 8.89, 19.78 8.39, 19.75 8.64" stroke="#000000" stroke-width="2" fill="none"></path></g><g stroke-linecap="round" transform="translate(20.55875829455408 105.8775384126522) rotate(0 9.87517181638475 8.64077533933672)"><path d="M2.19 3.23 C2.19 3.23, 2.19 3.23, 2.19 3.23 M2.19 3.23 C2.19 3.23, 2.19 3.23, 2.19 3.23 M2.98 14.51 C5.7 11.38, 8.42 8.25, 14.13 1.68 M2.98 14.51 C5.45 11.67, 7.93 8.82, 14.13 1.68 M10.33 18.25 C12.44 15.82, 14.56 13.39, 19.51 7.69 M10.33 18.25 C13.25 14.89, 16.17 11.53, 19.51 7.69 M3.77 15.47 C3.77 15.47, 3.77 15.47, 3.77 15.47 M3.77 15.47 C3.77 15.47, 3.77 15.47, 3.77 15.47 M15.81 15.34 C10.62 10.82, 5.42 6.3, 2.23 3.53 M15.81 15.34 C11.57 11.65, 7.33 7.96, 2.23 3.53 M20.31 8.65 C17.85 6.51, 15.39 4.37, 9.74 -0.54 M20.31 8.65 C17.13 5.88, 13.94 3.11, 9.74 -0.54" stroke="#ced4da" stroke-width="1" fill="none"></path><path d="M19.75 8.64 C19.75 9.14, 19.7 9.65, 19.6 10.14 C19.5 10.63, 19.35 11.13, 19.15 11.6 C18.96 12.07, 18.71 12.53, 18.43 12.96 C18.14 13.39, 17.81 13.81, 17.44 14.19 C17.07 14.58, 16.66 14.94, 16.22 15.26 C15.78 15.58, 15.31 15.87, 14.81 16.12 C14.32 16.37, 13.79 16.59, 13.25 16.76 C12.72 16.93, 12.15 17.06, 11.59 17.15 C11.03 17.24, 10.45 17.28, 9.88 17.28 C9.3 17.28, 8.72 17.24, 8.16 17.15 C7.6 17.06, 7.03 16.93, 6.5 16.76 C5.96 16.59, 5.43 16.37, 4.94 16.12 C4.44 15.87, 3.97 15.58, 3.53 15.26 C3.09 14.94, 2.68 14.58, 2.31 14.19 C1.94 13.81, 1.61 13.39, 1.32 12.96 C1.04 12.53, 0.79 12.07, 0.6 11.6 C0.4 11.13, 0.25 10.63, 0.15 10.14 C0.05 9.65, 0 9.14, 0 8.64 C0 8.14, 0.05 7.63, 0.15 7.14 C0.25 6.65, 0.4 6.16, 0.6 5.69 C0.79 5.22, 1.04 4.75, 1.32 4.32 C1.61 3.89, 1.94 3.47, 2.31 3.09 C2.68 2.7, 3.09 2.34, 3.53 2.02 C3.97 1.7, 4.44 1.41, 4.94 1.16 C5.43 0.91, 5.96 0.69, 6.5 0.52 C7.03 0.35, 7.6 0.22, 8.16 0.13 C8.72 0.04, 9.3 0, 9.88 0 C10.45 0, 11.03 0.04, 11.59 0.13 C12.15 0.22, 12.72 0.35, 13.25 0.52 C13.79 0.69, 14.32 0.91, 14.81 1.16 C15.31 1.41, 15.78 1.7, 16.22 2.02 C16.66 2.34, 17.07 2.7, 17.44 3.09 C17.81 3.47, 18.14 3.89, 18.43 4.32 C18.71 4.75, 18.96 5.22, 19.15 5.69 C19.35 6.16, 19.5 6.65, 19.6 7.14 C19.7 7.63, 19.73 8.39, 19.75 8.64 C19.78 8.89, 19.78 8.39, 19.75 8.64" stroke="#000000" stroke-width="2" fill="none"></path></g><g stroke-linecap="round"><g transform="translate(31.01057830181867 164.8085741503018) rotate(0 21.90843989373377 -18.494048425191174)" fill-rule="evenodd"><path d="M11.93 -33.36 C11.93 -33.36, 11.93 -33.36, 11.93 -33.36 M11.93 -33.36 C11.93 -33.36, 11.93 -33.36, 11.93 -33.36 M6.81 -15.28 C10.73 -19.78, 14.64 -24.29, 25.18 -36.41 M6.81 -15.28 C13.83 -23.35, 20.84 -31.42, 25.18 -36.41 M2.35 2.04 C13.52 -10.81, 24.69 -23.66, 31.87 -31.92 M2.35 2.04 C10.88 -7.77, 19.41 -17.58, 31.87 -31.92 M12.98 2.01 C18.19 -3.99, 23.41 -9.99, 37.25 -25.92 M12.98 2.01 C20.13 -6.21, 27.28 -14.44, 37.25 -25.92 M23.61 1.97 C28.01 -3.09, 32.42 -8.16, 41.32 -18.4 M23.61 1.97 C30.52 -5.98, 37.44 -13.93, 41.32 -18.4 M34.9 1.19 C38.82 -3.33, 42.75 -7.85, 46.05 -11.64 M34.9 1.19 C39.31 -3.89, 43.73 -8.97, 46.05 -11.64 M0 0 C0 0, 0 0, 0 0 M0 0 C0 0, 0 0, 0 0 M12.04 -0.13 C8.29 -3.39, 4.55 -6.65, 1.47 -9.32 M12.04 -0.13 C9.05 -2.73, 6.06 -5.33, 1.47 -9.32 M24.08 -0.27 C19.22 -4.49, 14.36 -8.72, 2.95 -18.64 M24.08 -0.27 C15.87 -7.4, 7.67 -14.54, 2.95 -18.64 M34.61 -1.71 C23.59 -11.29, 12.57 -20.87, 5.93 -26.64 M34.61 -1.71 C26.15 -9.06, 17.7 -16.42, 5.93 -26.64 M43.64 -4.47 C34.21 -12.66, 24.79 -20.85, 11.18 -32.68 M43.64 -4.47 C32.66 -14.01, 21.68 -23.55, 11.18 -32.68 M42.85 -15.76 C34.22 -23.25, 25.6 -30.75, 17.19 -38.06 M42.85 -15.76 C37.38 -20.5, 31.92 -25.25, 17.19 -38.06" stroke="#ced4da" stroke-width="1" fill="none"></path><path d="M0 0 C0.78 -4.11, 1.34 -18.46, 4.68 -24.67 C8.03 -30.87, 14.94 -36.78, 20.07 -37.23 C25.2 -37.68, 31.83 -33.14, 35.45 -27.36 C39.07 -21.58, 47.71 -7.12, 41.81 -2.56 C35.9 2, 6.97 -0.43, 0 0 M0 0 C0.78 -4.11, 1.34 -18.46, 4.68 -24.67 C8.03 -30.87, 14.94 -36.78, 20.07 -37.23 C25.2 -37.68, 31.83 -33.14, 35.45 -27.36 C39.07 -21.58, 47.71 -7.12, 41.81 -2.56 C35.9 2, 6.97 -0.43, 0 0" stroke="#000000" stroke-width="2" fill="none"></path></g></g><mask></mask><g stroke-linecap="round" transform="translate(41.4967004526286 108.23406283046478) rotate(0 10.702336545928915 9.364544477687808)"><path d="M2.43 3.43 C2.43 3.43, 2.43 3.43, 2.43 3.43 M2.43 3.43 C2.43 3.43, 2.43 3.43, 2.43 3.43 M2.56 15.48 C5.21 12.43, 7.86 9.38, 15.02 1.14 M2.56 15.48 C7.11 10.24, 11.67 5, 15.02 1.14 M9.91 19.21 C13.96 14.55, 18.01 9.9, 21.06 6.38 M9.91 19.21 C13.95 14.57, 17.98 9.93, 21.06 6.38 M4.02 16.71 C4.02 16.71, 4.02 16.71, 4.02 16.71 M4.02 16.71 C4.02 16.71, 4.02 16.71, 4.02 16.71 M16.82 17.23 C12.86 13.79, 8.9 10.35, 1.72 4.11 M16.82 17.23 C11.29 12.43, 5.77 7.63, 1.72 4.11 M21.31 10.54 C17.9 7.58, 14.49 4.61, 9.24 0.04 M21.31 10.54 C16.98 6.77, 12.64 3.01, 9.24 0.04" stroke="#ced4da" stroke-width="1" fill="none"></path><path d="M21.4 9.36 C21.4 9.91, 21.35 10.46, 21.24 10.99 C21.13 11.52, 20.97 12.06, 20.76 12.57 C20.55 13.08, 20.28 13.58, 19.97 14.05 C19.66 14.52, 19.3 14.97, 18.9 15.38 C18.5 15.8, 18.06 16.19, 17.58 16.54 C17.11 16.89, 16.59 17.2, 16.05 17.47 C15.52 17.75, 14.94 17.98, 14.36 18.16 C13.78 18.35, 13.17 18.49, 12.56 18.59 C11.95 18.68, 11.32 18.73, 10.7 18.73 C10.08 18.73, 9.45 18.68, 8.84 18.59 C8.23 18.49, 7.62 18.35, 7.04 18.16 C6.46 17.98, 5.89 17.75, 5.35 17.47 C4.81 17.2, 4.3 16.89, 3.82 16.54 C3.35 16.19, 2.9 15.8, 2.5 15.38 C2.11 14.97, 1.74 14.52, 1.43 14.05 C1.12 13.58, 0.86 13.08, 0.65 12.57 C0.43 12.06, 0.27 11.52, 0.16 10.99 C0.06 10.46, 0 9.91, 0 9.36 C0 8.82, 0.06 8.27, 0.16 7.74 C0.27 7.2, 0.43 6.67, 0.65 6.16 C0.86 5.65, 1.12 5.15, 1.43 4.68 C1.74 4.21, 2.11 3.76, 2.5 3.35 C2.9 2.93, 3.35 2.54, 3.82 2.19 C4.3 1.84, 4.81 1.53, 5.35 1.25 C5.89 0.98, 6.46 0.75, 7.04 0.56 C7.62 0.38, 8.23 0.24, 8.84 0.14 C9.45 0.05, 10.08 0, 10.7 0 C11.32 0, 11.95 0.05, 12.56 0.14 C13.17 0.24, 13.78 0.38, 14.36 0.56 C14.94 0.75, 15.52 0.98, 16.05 1.25 C16.59 1.53, 17.11 1.84, 17.58 2.19 C18.06 2.54, 18.5 2.93, 18.9 3.35 C19.3 3.76, 19.66 4.21, 19.97 4.68 C20.28 5.15, 20.55 5.65, 20.76 6.16 C20.97 6.67, 21.13 7.2, 21.24 7.74 C21.35 8.27, 21.38 9.09, 21.4 9.36 C21.43 9.64, 21.43 9.09, 21.4 9.36" stroke="#000000" stroke-width="2" fill="none"></path></g><g stroke-linecap="round"><g transform="translate(60.16191375626954 131.13950946524886) rotate(0 16.71865860152218 9.921154001040179)" fill-rule="evenodd"><path d="M0 0 C0 0, 0 0, 0 0 M0 0 C0 0, 0 0, 0 0 M6.04 5.25 C9.16 1.65, 12.29 -1.95, 17.85 -8.34 M6.04 5.25 C10.25 0.4, 14.46 -4.44, 17.85 -8.34 M12.08 10.5 C15.01 7.13, 17.94 3.75, 25.2 -4.6 M12.08 10.5 C14.97 7.17, 17.86 3.84, 25.2 -4.6 M15.49 18.76 C19.46 14.19, 23.44 9.62, 31.23 0.65 M15.49 18.76 C19.67 13.96, 23.85 9.15, 31.23 0.65 M16.93 29.3 C21.06 24.55, 25.19 19.8, 33.34 10.43 M16.93 29.3 C20.79 24.86, 24.64 20.43, 33.34 10.43 M29.53 27 C30.67 25.69, 31.81 24.38, 34.78 20.96 M29.53 27 C31.37 24.88, 33.21 22.77, 34.78 20.96 M14.43 27.6 C14.43 27.6, 14.43 27.6, 14.43 27.6 M14.43 27.6 C14.43 27.6, 14.43 27.6, 14.43 27.6 M25.72 26.82 C23.22 24.65, 20.73 22.48, 16.66 18.94 M25.72 26.82 C23.72 25.08, 21.73 23.35, 16.66 18.94 M33.98 23.4 C23.4 14.21, 12.83 5.01, 3.04 -3.5 M33.98 23.4 C26.2 16.64, 18.42 9.87, 3.04 -3.5 M36.97 15.4 C26.72 6.49, 16.47 -2.42, 9.8 -8.22 M36.97 15.4 C30.82 10.05, 24.67 4.71, 9.8 -8.22" stroke="#ced4da" stroke-width="1" fill="none"></path><path d="M0 0 C0.86 -0.93, 3.58 -4.18, 5.17 -5.57 C6.77 -6.97, 7.56 -7.83, 9.55 -8.36 C11.54 -8.89, 14.99 -8.89, 17.12 -8.76 C19.24 -8.62, 20.83 -8.43, 22.29 -7.56 C23.75 -6.7, 24.88 -5.11, 25.87 -3.58 C26.87 -2.06, 27.47 -0.33, 28.26 1.59 C29.06 3.52, 29.92 5.84, 30.65 7.96 C31.38 10.08, 32.18 12.41, 32.64 14.33 C33.11 16.25, 33.44 17.78, 33.44 19.51 C33.44 21.23, 33.3 23.42, 32.64 24.68 C31.98 25.94, 30.72 26.47, 29.46 27.07 C28.2 27.67, 26.87 28, 25.08 28.26 C23.29 28.53, 20.43 28.73, 18.71 28.66 C16.98 28.59, 15.46 28.93, 14.73 27.86 C14 26.8, 14.66 23.82, 14.33 22.29 C14 20.77, 13.47 20.23, 12.74 18.71 C12.01 17.18, 11.08 15.33, 9.95 13.14 C8.82 10.95, 7.63 7.76, 5.97 5.57 C4.31 3.38, 1 0.93, 0 0 M0 0 C0.86 -0.93, 3.58 -4.18, 5.17 -5.57 C6.77 -6.97, 7.56 -7.83, 9.55 -8.36 C11.54 -8.89, 14.99 -8.89, 17.12 -8.76 C19.24 -8.62, 20.83 -8.43, 22.29 -7.56 C23.75 -6.7, 24.88 -5.11, 25.87 -3.58 C26.87 -2.06, 27.47 -0.33, 28.26 1.59 C29.06 3.52, 29.92 5.84, 30.65 7.96 C31.38 10.08, 32.18 12.41, 32.64 14.33 C33.11 16.25, 33.44 17.78, 33.44 19.51 C33.44 21.23, 33.3 23.42, 32.64 24.68 C31.98 25.94, 30.72 26.47, 29.46 27.07 C28.2 27.67, 26.87 28, 25.08 28.26 C23.29 28.53, 20.43 28.73, 18.71 28.66 C16.98 28.59, 15.46 28.93, 14.73 27.86 C14 26.8, 14.66 23.82, 14.33 22.29 C14 20.77, 13.47 20.23, 12.74 18.71 C12.01 17.18, 11.08 15.33, 9.95 13.14 C8.82 10.95, 7.63 7.76, 5.97 5.57 C4.31 3.38, 1 0.93, 0 0" stroke="#000000" stroke-width="2" fill="none"></path></g></g><mask></mask><g stroke-linecap="round"><g transform="translate(42.24312730293559 131.12763356184445) rotate(0 -16.121563651467795 12.193947400441964)" fill-rule="evenodd"><path d="M-24.42 -2.68 C-24.42 -2.68, -24.42 -2.68, -24.42 -2.68 M-24.42 -2.68 C-24.42 -2.68, -24.42 -2.68, -24.42 -2.68 M-26.26 11.62 C-22.63 7.45, -19 3.27, -12.48 -4.23 M-26.26 11.62 C-22.27 7.03, -18.28 2.44, -12.48 -4.23 M-29.41 27.44 C-22.35 19.32, -15.29 11.2, -2.51 -3.51 M-29.41 27.44 C-19.56 16.11, -9.71 4.78, -2.51 -3.51 M-22.71 31.93 C-18.64 27.24, -14.56 22.56, -8.28 15.33 M-22.71 31.93 C-17.53 25.97, -12.35 20.01, -8.28 15.33 M-12.74 32.65 C-12.15 31.98, -11.57 31.3, -10.77 30.39 M-12.74 32.65 C-12.23 32.07, -11.73 31.49, -10.77 30.39 M-31.63 25.72 C-31.63 25.72, -31.63 25.72, -31.63 25.72 M-31.63 25.72 C-31.63 25.72, -31.63 25.72, -31.63 25.72 M-13.55 30.83 C-17.43 27.46, -21.3 24.09, -29.4 17.05 M-13.55 30.83 C-19.26 25.87, -24.96 20.91, -29.4 17.05 M-6.79 26.11 C-12.88 20.81, -18.98 15.52, -27.92 7.74 M-6.79 26.11 C-13.07 20.65, -19.34 15.2, -27.92 7.74 M-8.34 14.16 C-11.82 11.14, -15.3 8.11, -24.94 -0.27 M-8.34 14.16 C-12.4 10.63, -16.47 7.09, -24.94 -0.27 M-4.6 6.81 C-9.6 2.47, -14.6 -1.88, -20.45 -6.96 M-4.6 6.81 C-9 2.98, -13.41 -0.85, -20.45 -6.96 M-0.1 0.12 C-4.38 -3.6, -8.66 -7.32, -12.93 -11.03 M-0.1 0.12 C-2.96 -2.36, -5.81 -4.84, -12.93 -11.03" stroke="#ced4da" stroke-width="1" fill="none"></path><path d="M0 0 C-0.66 -0.73, -2.59 -3.18, -3.98 -4.38 C-5.37 -5.57, -6.37 -6.63, -8.36 -7.17 C-10.35 -7.7, -13.8 -7.7, -15.92 -7.56 C-18.05 -7.43, -19.64 -7.23, -21.1 -6.37 C-22.56 -5.51, -23.68 -3.91, -24.68 -2.39 C-25.68 -0.86, -26.27 0.86, -27.07 2.79 C-27.86 4.71, -28.73 7.03, -29.46 9.16 C-30.19 11.28, -30.98 13.6, -31.45 15.52 C-31.91 17.45, -32.24 18.97, -32.24 20.7 C-32.24 22.42, -32.11 24.61, -31.45 25.87 C-30.78 27.13, -29.46 27.53, -28.26 28.26 C-27.07 28.99, -26.01 29.72, -24.28 30.25 C-22.56 30.78, -20.1 31.25, -17.91 31.45 C-15.72 31.65, -12.41 32.64, -11.15 31.45 C-9.89 30.25, -10.62 26.07, -10.35 24.28 C-10.08 22.49, -9.89 22.29, -9.55 20.7 C-9.22 19.11, -9.16 17.05, -8.36 14.73 C-7.56 12.41, -6.17 9.22, -4.78 6.77 C-3.38 4.31, -0.8 1.13, 0 0 M0 0 C-0.66 -0.73, -2.59 -3.18, -3.98 -4.38 C-5.37 -5.57, -6.37 -6.63, -8.36 -7.17 C-10.35 -7.7, -13.8 -7.7, -15.92 -7.56 C-18.05 -7.43, -19.64 -7.23, -21.1 -6.37 C-22.56 -5.51, -23.68 -3.91, -24.68 -2.39 C-25.68 -0.86, -26.27 0.86, -27.07 2.79 C-27.86 4.71, -28.73 7.03, -29.46 9.16 C-30.19 11.28, -30.98 13.6, -31.45 15.52 C-31.91 17.45, -32.24 18.97, -32.24 20.7 C-32.24 22.42, -32.11 24.61, -31.45 25.87 C-30.78 27.13, -29.46 27.53, -28.26 28.26 C-27.07 28.99, -26.01 29.72, -24.28 30.25 C-22.56 30.78, -20.1 31.25, -17.91 31.45 C-15.72 31.65, -12.41 32.64, -11.15 31.45 C-9.89 30.25, -10.62 26.07, -10.35 24.28 C-10.08 22.49, -9.89 22.29, -9.55 20.7 C-9.22 19.11, -9.16 17.05, -8.36 14.73 C-7.56 12.41, -6.17 9.22, -4.78 6.77 C-3.38 4.31, -0.8 1.13, 0 0" stroke="#000000" stroke-width="2" fill="none"></path></g></g><mask></mask><g stroke-linecap="round"><g transform="translate(109.94583739107611 136.19561989081518) rotate(0 69.86077098192868 -0.628256155844543)"><path d="M0.76 -0.52 C23.9 -0.9, 116.79 -1.11, 140.02 -1.1 M-0.3 1.82 C22.6 1.56, 115.87 -2.38, 139.18 -3.07" stroke="#000000" stroke-width="1" fill="none"></path></g><g transform="translate(109.94583739107611 136.19561989081518) rotate(0 69.86077098192868 -0.628256155844543)"><path d="M110.51 8.53 C122.8 4.08, 134.88 -1.74, 138.37 -1.87 M111.7 8.58 C118.29 5.18, 126.07 2.75, 138.3 -4.02" stroke="#000000" stroke-width="1" fill="none"></path></g><g transform="translate(109.94583739107611 136.19561989081518) rotate(0 69.86077098192868 -0.628256155844543)"><path d="M109.76 -11.98 C122.55 -8.28, 134.93 -5.94, 138.37 -1.87 M110.95 -11.93 C117.82 -9.77, 125.79 -6.67, 138.3 -4.02" stroke="#000000" stroke-width="1" fill="none"></path></g></g><mask></mask><g stroke-linecap="round"><g transform="translate(349.4528943119219 141.58654175254128) rotate(0 97.18164883703821 -0.7118767047838226)"><path d="M0.19 0.29 C32.65 0.36, 163.1 0.21, 195.53 -0.08 M-1.16 -0.61 C31.1 -0.82, 162.27 -1.76, 194.75 -1.73" stroke="#000000" stroke-width="1" fill="none"></path></g><g transform="translate(349.4528943119219 141.58654175254128) rotate(0 97.18164883703821 -0.7118767047838226)"><path d="M167.07 9.17 C178.37 4.03, 186.29 2.26, 194.15 -1.07 M166.04 8.4 C172.04 6.78, 177.25 3.33, 194.33 -1.72" stroke="#000000" stroke-width="1" fill="none"></path></g><g transform="translate(349.4528943119219 141.58654175254128) rotate(0 97.18164883703821 -0.7118767047838226)"><path d="M167 -11.35 C178.23 -9.03, 186.18 -3.35, 194.15 -1.07 M165.96 -12.12 C172.05 -9.53, 177.27 -8.76, 194.33 -1.72" stroke="#000000" stroke-width="1" fill="none"></path></g></g><mask></mask><g stroke-linecap="round"><g transform="translate(352.2217620219892 90.64891427363261) rotate(0 94.69918799397601 -23.79390688422322)"><path d="M0.72 -0.36 C32.25 -8.15, 157.35 -39.68, 188.68 -47.23" stroke="#000000" stroke-width="1.5" fill="none" stroke-dasharray="8 9"></path></g><g transform="translate(352.2217620219892 90.64891427363261) rotate(0 94.69918799397601 -23.79390688422322)"><path d="M163.18 -29.85 C168.43 -34.36, 177.55 -40.48, 188.2 -47.83" stroke="#000000" stroke-width="1.5" fill="none"></path></g><g transform="translate(352.2217620219892 90.64891427363261) rotate(0 94.69918799397601 -23.79390688422322)"><path d="M158.25 -49.77 C164.71 -49.13, 175.11 -50.06, 188.2 -47.83" stroke="#000000" stroke-width="1.5" fill="none"></path></g></g><mask></mask><g transform="translate(355.64421201976756 33.634031146009704) rotate(344.9033703822942 75.51600646972656 7.65143055727205)"><text x="0" y="0" font-family="Virgil, Segoe UI Emoji" font-size="12.24228889163527px" fill="#000000" text-anchor="start" style="white-space: pre;" direction="ltr" dominant-baseline="text-before-edge">switch traffic when ready</text></g><g stroke-linecap="round"><g transform="translate(550.227658707631 76.9681642912675) rotate(0 0.4614221589972658 70.95185539230519)"><path d="M-0.16 0.1 C-0.25 23.51, 0.02 117.7, 0.42 141.24 M-1.7 -0.89 C-1.5 22.65, 2.01 118.85, 2.62 142.8" stroke="#000000" stroke-width="1" fill="none"></path></g></g><mask></mask><g stroke-linecap="round"><g transform="translate(548.8432248525971 76.9681642912675) rotate(0 23.259719931793143 -0.9142844041955271)"><path d="M-0.32 0.45 C7.51 0.25, 38.94 -0.42, 46.84 -0.58 M1.72 -0.35 C9.37 -0.95, 38.34 -1.94, 45.76 -2.28" stroke="#000000" stroke-width="1" fill="none"></path></g></g><mask></mask><g stroke-linecap="round"><g transform="translate(548.8432248525971 218.18041750471411) rotate(0 31.250096698352195 -1.775462741694696)"><path d="M1.08 -0.37 C11.33 -1.06, 52.29 -2.87, 62.31 -3.18 M0.19 -1.61 C10.2 -2.21, 50.82 -1.41, 61.37 -1.86" stroke="#000000" stroke-width="1" fill="none"></path></g></g><mask></mask><g transform="translate(745.4328322673953 17.43750852481452) rotate(0 139.8900146484375 12.5)"><text x="0" y="0" font-family="Virgil, Segoe UI Emoji" font-size="20px" fill="#000000" text-anchor="start" style="white-space: pre;" direction="ltr" dominant-baseline="text-before-edge">Upgrade one node at a time</text></g></svg>