<svg xmlns="http://www.w3.org/2000/svg" width="40" height="38.334"><path fill="#94A3B8" d="M20 0C8.95 0 0 8.8 0 19.653c0 8.685 5.73 16.05 13.675 18.647 1 .185 1.367-.423 1.367-.945 0-.467-.017-1.703-.025-3.342-5.564 1.185-6.737-2.636-6.737-2.636-.91-2.269-2.225-2.875-2.225-2.875-1.812-1.219.14-1.194.14-1.194 2.008.137 3.063 2.025 3.063 2.025 1.784 3.005 4.682 2.137 5.825 1.635.18-1.271.695-2.136 1.267-2.628-4.442-.492-9.11-2.182-9.11-9.712 0-2.145.775-3.898 2.058-5.273-.225-.497-.9-2.495.175-5.202 0 0 1.675-.526 5.5 2.015 1.6-.436 3.3-.653 5-.663 1.7.01 3.4.227 5 .663 3.8-2.541 5.475-2.015 5.475-2.015 1.075 2.707.4 4.705.2 5.202 1.275 1.375 2.05 3.128 2.05 5.273 0 7.55-4.675 9.212-9.125 9.695.7.59 1.35 1.795 1.35 3.637 0 2.63-.025 4.743-.025 5.382 0 .515.35 1.13 1.375.933C34.275 35.695 40 28.325 40 19.653 40 8.8 31.045 0 20 0Z"/></svg>