<svg xmlns="http://www.w3.org/2000/svg" width="40" height="40"><path fill="#94A3B8" d="M35.556 0H4.444A4.443 4.443 0 0 0 0 4.444v31.112A4.443 4.443 0 0 0 4.444 40h31.112A4.443 4.443 0 0 0 40 35.556V4.444A4.443 4.443 0 0 0 35.556 0ZM13.333 31.111H7.727V15.556h5.606V31.11Zm-2.902-18.407c-1.713 0-2.858-1.142-2.858-2.666 0-1.525 1.143-2.667 3.047-2.667 1.713 0 2.858 1.142 2.858 2.667 0 1.524-1.142 2.666-3.047 2.666Zm22.902 18.407h-5.426V22.61c0-2.351-1.447-2.893-1.99-2.893-.541 0-2.35.362-2.35 2.893v8.502H17.96V15.556h5.607v2.17c.722-1.266 2.169-2.17 4.882-2.17 2.713 0 4.884 2.17 4.884 7.053v8.502Z"/></svg>