<svg xmlns="http://www.w3.org/2000/svg" width="40" height="40"><path fill="#94A3B8" d="M14.737 10.526H4.21A4.21 4.21 0 0 0 0 14.736a4.21 4.21 0 0 0 4.21 4.211h10.527a4.21 4.21 0 0 0 4.21-4.21 4.21 4.21 0 0 0-4.21-4.21Zm4.21-6.315v4.21h-4.21a4.21 4.21 0 0 1-4.21-4.21A4.21 4.21 0 0 1 14.736 0a4.21 4.21 0 0 1 4.21 4.21Zm-8.42 21.052V35.79A4.21 4.21 0 0 0 14.736 40a4.21 4.21 0 0 0 4.21-4.21V25.262a4.21 4.21 0 0 0-4.21-4.21 4.21 4.21 0 0 0-4.21 4.21Zm-6.316-4.21h4.21v4.21a4.21 4.21 0 0 1-4.21 4.21A4.21 4.21 0 0 1 0 25.264a4.21 4.21 0 0 1 4.21-4.21Zm21.052 8.42H35.79A4.21 4.21 0 0 0 40 25.264a4.21 4.21 0 0 0-4.21-4.21H25.262a4.21 4.21 0 0 0 0 8.421Zm-4.21 6.316v-4.21h4.21a4.21 4.21 0 0 1 4.21 4.21 4.21 4.21 0 0 1-8.421 0Zm8.42-21.052V4.21A4.21 4.21 0 0 0 25.264 0a4.21 4.21 0 0 0-4.21 4.21v10.527a4.21 4.21 0 0 0 4.21 4.21 4.212 4.212 0 0 0 4.21-4.21Zm6.316 4.21h-4.21v-4.21a4.21 4.21 0 0 1 4.21-4.21 4.21 4.21 0 0 1 0 8.421Z"/></svg>