<svg xmlns="http://www.w3.org/2000/svg" width="40" height="32.002"><path fill="#94A3B8" d="M40 0c-1.56.926-4.69 2.188-6.53 2.552-.054.014-.098.032-.15.046A8.968 8.968 0 0 0 27 0a9 9 0 0 0-9 9c0 .262-.022.744 0 1-6.706 0-11.81-3.512-15.47-8-.398 1-.572 2.58-.572 4.064 0 2.802 2.19 5.554 5.6 7.26a8.198 8.198 0 0 1-2.04.278c-1.162 0-2.392-.306-3.518-1.234v.102c0 3.916 4.156 6.582 7.852 7.324-.75.442-2.262.486-3 .486-.52 0-2.36-.238-2.852-.33 1.028 3.21 4.736 5.014 8.27 5.078C9.506 27.196 7.588 28 1.928 28H0c3.576 2.292 8.13 4.002 12.694 4.002C27.554 32.002 36 20.676 36 10c0-.172-.004-.532-.01-.894 0-.036.01-.07.01-.106 0-.054-.016-.106-.016-.16a36.768 36.768 0 0 0-.018-.658A16.434 16.434 0 0 0 40 4a16.14 16.14 0 0 1-4.64 1.272c1.668-1 4.038-3.384 4.64-5.272Z"/></svg>