<?xml version="1.0" encoding="UTF-8"?>
<svg width="40px" height="32px" viewBox="0 0 40 32" version="1.1" xmlns="http://www.w3.org/2000/svg" xmlns:xlink="http://www.w3.org/1999/xlink">
    <title>icons8-youtube-50</title>
    <g id="Page-1" stroke="none" stroke-width="1" fill="none" fill-rule="evenodd">
        <g id="icons8-youtube-50" fill="#94A3B8" fill-rule="nonzero">
            <path d="M39.164,4.372 C38.704,2.652 37.348,1.296 35.628,0.836 C32.508,0 20,0 20,0 C20,0 7.492,0 4.372,0.836 C2.652,1.296 1.296,2.652 0.836,4.372 C0,7.492 0,16 0,16 C0,16 0,24.508 0.836,27.628 C1.296,29.348 2.652,30.704 4.372,31.164 C7.492,32 20,32 20,32 C20,32 32.508,32 35.628,31.164 C37.35,30.704 38.704,29.348 39.164,27.628 C40,24.508 40,16 40,16 C40,16 40,7.492 39.164,4.372 Z M16,22.928 L16,9.072 L28,16 L16,22.928 Z" id="Shape"></path>
        </g>
    </g>
</svg>