<svg xmlns="http://www.w3.org/2000/svg" viewBox="0 0 41.32 46.56"><path d="M35,5.56a3,3,0,0,0-3,3,3,3,0,1,1-6,0,6,6,0,0,0-12,0v4H11a1,1,0,0,0-1,1v2.18a16,16,0,1,0,12,0V13.56a1,1,0,0,0-1-1H16v-4a4,4,0,1,1,8,0,5,5,0,1,0,10,0,1,1,0,0,1,1-1,1,1,0,0,0,0-2Z" fill="#02b6d3"/><g fill="#f58320"><path d="M35.32 5.56a1 1 0 0 0 1 1l4-.13a1 1 0 1 0 0-2l-4 .14a1 1 0 0 0-1 .99z"/><path d="M33.7 5.82a1 1 0 0 0 1.72-1l-2.06-3.46A1 1 0 0 0 32 1a1 1 0 0 0-.35 1.37zm6.2 3.43a1 1 0 0 0 .65-1.89l-3.78-1.3a1 1 0 1 0-.65 1.89zm-2.2-4.1l2.73-2.92a1 1 0 0 0-.05-1.41A1 1 0 0 0 39 .86l-2.77 2.92a1 1 0 1 0 1.46 1.36z"/><path d="M35.65 6a1 1 0 0 0 1-1l-.13-4a1 1 0 0 0-2 .06l.13 4a1 1 0 0 0 1 .94z"/></g><path d="M35 5.56a3 3 0 0 0-3 3 3 3 0 1 1-6 0 6 6 0 0 0-12 0v4h-3a1 1 0 0 0-1 1v2.18a16 16 0 1 0 12 0v-2.18a1 1 0 0 0-1-1h-5v-4a4 4 0 1 1 8 0 5 5 0 1 0 10 0 1 1 0 0 1 1-1 1 1 0 0 0 0-2zm-24.72 16.8A10 10 0 0 0 7.8 36.28a1 1 0 0 1-.82 1.57 1 1 0 0 1-.82-.43 12 12 0 0 1 3-16.71 1 1 0 0 1 1.39.25 1 1 0 0 1-.27 1.39z" fill="#979797"/></svg>