<?xml version="1.0" encoding="UTF-8"?>
<svg width="200px" height="200px" viewBox="0 0 200 200" version="1.1" xmlns="http://www.w3.org/2000/svg" xmlns:xlink="http://www.w3.org/1999/xlink">
    <!-- Generator: Sketch 53.2 (72643) - https://sketchapp.com -->
    <title>4.0-everywhere-device</title>
    <desc>Created with Sketch.</desc>
    <g id="4.0-everywhere-device" stroke="none" stroke-width="1" fill="none" fill-rule="evenodd">
        <g id="WEBSITE-OPTIMIZATION-Copy" transform="translate(34.000000, 27.000000)" fill-rule="nonzero">
            <g id="Group">
                <path d="M43.7565957,13.9805825 L44.4306383,12.3029126 C44.7676596,11.4640777 44.9361702,10.5693204 44.9361702,9.67456311 C44.9361702,8.44427184 44.5991489,7.21398058 43.9812766,6.15145631 L42.9140426,4.30601942 L120.990638,4.30601942 C124.304681,4.30601942 127.000851,6.99029126 127.000851,10.2897087 L127.000851,13.9805825 L43.7565957,13.9805825 Z" id="Path" fill="#F68F6F"></path>
                <path d="M9.43659574,13.9805825 L8.76255319,12.3029126 C8.42553191,11.4640777 8.25702128,10.5693204 8.25702128,9.67456311 C8.25702128,8.44427184 8.59404255,7.21398058 9.21191489,6.15145631 L10.2791489,4.30601942 L10.2791489,4.30601942 C6.96510638,4.30601942 4.71829787,6.99029126 4.71829787,10.2897087 L4.71829787,13.9805825 L9.43659574,13.9805825 Z" id="Path" fill="#F68F6F"></path>
                <rect id="Rectangle" fill="#FFFFFF" x="1.06723404" y="16.3293204" width="129.30383" height="1.84543689"></rect>
                <path d="M15.053617,14.3720388 C12.4697872,14.3720388 10.3353191,12.2469903 10.3353191,9.67456311 C10.3353191,7.10213592 12.4697872,4.97708738 15.053617,4.97708738 C17.6374468,4.97708738 19.7719149,7.10213592 19.7719149,9.67456311 C19.7719149,12.2469903 17.6374468,14.3720388 15.053617,14.3720388 Z M15.053617,6.82252427 C13.4808511,6.82252427 12.1889362,8.10873786 12.1889362,9.67456311 C12.1889362,11.2403883 13.4808511,12.5266019 15.053617,12.5266019 C16.626383,12.5266019 17.9182979,11.2403883 17.9182979,9.67456311 C17.9182979,8.10873786 16.626383,6.82252427 15.053617,6.82252427 Z" id="Shape" fill="#FFFFFF"></path>
                <path d="M26.4,14.3720388 L26.4,14.3720388 C23.8161702,14.3720388 21.6817021,12.2469903 21.6817021,9.67456311 C21.6817021,7.10213592 23.8161702,4.97708738 26.4,4.97708738 C28.9838298,4.97708738 31.1182979,7.10213592 31.1182979,9.67456311 C31.1182979,12.2469903 29.04,14.3720388 26.4,14.3720388 Z M26.4,6.82252427 C24.827234,6.82252427 23.5353191,8.10873786 23.5353191,9.67456311 C23.5353191,11.2403883 24.827234,12.5266019 26.4,12.5266019 C27.972766,12.5266019 29.2646809,11.2403883 29.2646809,9.67456311 C29.2646809,8.10873786 27.972766,6.82252427 26.4,6.82252427 Z" id="Shape" fill="#FFFFFF"></path>
                <path d="M37.8025532,14.3720388 C35.2187234,14.3720388 33.0842553,12.2469903 33.0842553,9.67456311 C33.0842553,7.10213592 35.2187234,4.97708738 37.8025532,4.97708738 C40.386383,4.97708738 42.5208511,7.10213592 42.5208511,9.67456311 C42.5208511,12.2469903 40.386383,14.3720388 37.8025532,14.3720388 Z M37.8025532,6.82252427 C36.2297872,6.82252427 34.9378723,8.10873786 34.9378723,9.67456311 C34.9378723,11.2403883 36.2297872,12.5266019 37.8025532,12.5266019 C39.3753191,12.5266019 40.667234,11.2403883 40.667234,9.67456311 C40.6110638,8.10873786 39.3753191,6.82252427 37.8025532,6.82252427 Z" id="Shape" fill="#FFFFFF"></path>
                <polygon id="Path" fill="#4A555F" points="100.657021 120.848155 91.7821277 120.848155 85.7157447 107.03534 100.20766 101.387184 100.20766 96.7456311 85.7157447 91.0974757 91.9506383 76.8932039 87.7940426 72.7549515 73.5268085 78.9064078 67.853617 64.5343689 63.1914894 64.5343689 57.5182979 78.9064078 43.2510638 72.7549515 39.9370213 76.0543689 46.1719149 90.2027184 31.68 95.8508738 31.68 100.492427 46.1719149 106.140583 39.7685106 120.848155 31.3991489 120.848155 31.3991489 119.002718 38.532766 119.002718 43.7004255 107.203107 29.826383 101.778641 29.826383 94.6205825 43.7004255 89.1961165 37.746383 75.6629126 38.4765957 74.88 42.8017021 70.5739806 56.4510638 76.4458252 61.8995745 62.688932 69.0893617 62.688932 74.5378723 76.4458252 88.187234 70.5739806 94.1412766 76.5017476 88.187234 90.0349515 102.061277 95.5153398 102.061277 102.673398 88.187234 108.041942 93.0178723 119.002718 100.657021 119.002718"></polygon>
                <path d="M120.990638,120.848155 L107.453617,120.848155 L107.453617,119.002718 L120.990638,119.002718 C125.652766,119.002718 129.47234,115.2 129.47234,110.558447 L129.47234,10.2897087 C129.47234,8.89165049 129.135319,7.49359223 128.461277,6.26330097 C128.068085,5.53631068 127.562553,4.92116505 127.000851,4.30601942 C126.60766,3.91456311 126.214468,3.57902913 125.765106,3.24349515 C125.315745,2.9638835 124.810213,2.68427184 124.360851,2.46058252 C123.293617,2.01320388 122.226383,1.78951456 121.046809,1.78951456 L10.4476596,1.78951456 C9.32425532,1.78951456 8.20085106,2.01320388 7.13361702,2.46058252 C6.62808511,2.68427184 6.12255319,2.90796117 5.67319149,3.24349515 C5.22382979,3.57902913 4.77446809,3.91456311 4.43744681,4.25009709 C3.81957447,4.86524272 3.37021277,5.48038835 2.97702128,6.20737864 C2.30297872,7.4376699 1.96595745,8.83572816 1.96595745,10.2337864 L1.96595745,110.558447 C1.96595745,115.2 5.78553191,119.002718 10.4476596,119.002718 L23.9285106,119.002718 L23.9285106,120.848155 L10.4476596,120.848155 C4.77446809,120.848155 0.112340426,116.262524 0.112340426,110.558447 L0.112340426,10.2897087 C0.112340426,8.5561165 0.561702128,6.8784466 1.34808511,5.36854369 C1.79744681,4.52970874 2.41531915,3.69087379 3.14553191,3.01980583 C3.59489362,2.57242718 4.10042553,2.18097087 4.66212766,1.78951456 C5.22382979,1.39805825 5.84170213,1.1184466 6.40340426,0.838834951 C7.69531915,0.27961165 9.04340426,-2.44249065e-15 10.4476596,-2.44249065e-15 L120.990638,-2.44249065e-15 C122.394894,-2.44249065e-15 123.742979,0.27961165 125.034894,0.838834951 C125.652766,1.06252427 126.214468,1.39805825 126.77617,1.78951456 C127.337872,2.18097087 127.843404,2.62834951 128.292766,3.07572816 C129.022979,3.80271845 129.584681,4.58563107 130.090213,5.42446602 C130.876596,6.93436893 131.325957,8.61203883 131.325957,10.2897087 L131.325957,110.614369 C131.325957,116.206602 126.66383,120.848155 120.990638,120.848155 Z" id="Path" fill="#FFFFFF"></path>
            </g>
            <g id="Group" transform="translate(29.770213, 62.633010)">
                <path d="M40.2178723,71.9161165 L33.0280851,71.9161165 L27.5795745,58.103301 L13.8740426,64.031068 L13.3123404,63.36 L7.97617021,58.0473786 L13.9302128,44.4582524 L0.0561702128,39.1456311 L0.0561702128,31.9875728 L13.8740426,26.5631068 L7.97617021,13.0299029 L8.70638298,12.2469903 L13.0314894,7.94097087 L26.6808511,13.8687379 L32.1293617,0.11184466 L39.3191489,0.11184466 L44.7676596,13.8687379 L58.4170213,7.94097087 L64.3710638,13.8687379 L58.4170213,27.4019417 L72.2910638,32.8264078 L72.2910638,39.984466 L58.4170213,45.408932 L64.3710638,58.9980583 L63.5846809,59.7250485 L59.2595745,64.031068 L45.666383,58.1592233 L40.2178723,71.9161165 Z M34.32,70.0706796 L38.9821277,70.0706796 L44.6553191,55.6427184 L58.9225532,61.8500971 L62.2365957,58.5506796 L56.0017021,44.4023301 L70.493617,38.7541748 L70.493617,34.1126214 L56.0017021,28.464466 L62.2365957,14.3161165 L58.08,10.1778641 L43.812766,16.3293204 L38.1395745,1.95728155 L33.4774468,1.95728155 L27.8042553,16.3293204 L13.5370213,10.1778641 L10.2791489,13.4213592 L16.4578723,27.6256311 L2.02212766,33.2737864 L2.02212766,37.9153398 L16.4578723,43.5634951 L10.2791489,57.767767 L14.4357447,61.9060194 L28.6468085,55.6986408 L34.32,70.0706796 Z M36.1174468,48.4846602 C31.7923404,48.4846602 27.7480851,46.1918447 25.5012766,42.4450485 C24.3778723,40.5996117 23.76,38.4186408 23.76,36.2376699 C23.76,29.471068 29.2646809,23.9906796 36.0612766,23.9906796 C38.1957447,23.9906796 40.3302128,24.5499029 42.1838298,25.6124272 C46.0034043,27.7933981 48.4187234,31.8757282 48.4187234,36.2376699 C48.4187234,43.0042718 42.9140426,48.4846602 36.1174468,48.4846602 Z M36.1174468,25.7801942 C30.3319149,25.7801942 25.6697872,30.4776699 25.6697872,36.1817476 C25.6697872,38.0271845 26.1753191,39.8726214 27.1302128,41.4384466 C28.9838298,44.6260194 32.466383,46.583301 36.1174468,46.583301 C41.9029787,46.583301 46.5651064,41.9417476 46.5651064,36.1817476 C46.5651064,32.4349515 44.5429787,28.967767 41.2851064,27.1223301 C39.7123404,26.2834951 37.9148936,25.7801942 36.1174468,25.7801942 Z" id="Shape" fill="#FFFFFF"></path>
                <path d="M35.7804255,67.9456311 L29.7702128,52.8466019 L14.8289362,59.2776699 L12.7506383,57.2085437 L19.266383,42.3332039 L4.10042553,36.4054369 L4.10042553,34.727767 L19.266383,28.8 L12.7506383,13.9246602 L13.9302128,12.7502913 L28.8714894,19.2372816 L34.8255319,4.13825243 L36.5106383,4.13825243 L42.4646809,19.2372816 L57.4059574,12.7502913 L59.4842553,14.8194175 L53.0808511,29.638835 L68.2468085,35.6225243 L68.2468085,37.3001942 L53.0808511,43.2279612 L59.5965957,58.103301 L58.4170213,59.3335922 L43.4757447,52.8466019 L37.5217021,67.9456311 L35.7804255,67.9456311 L35.7804255,67.9456311 Z M36.1174468,21.8097087 C28.1412766,21.8097087 21.6255319,28.296699 21.6255319,36.2376699 C21.6255319,38.8100971 22.3557447,41.3825243 23.6476596,43.5634951 C26.2314894,47.9254369 31.0059574,50.6097087 36.1174468,50.6097087 C44.093617,50.6097087 50.6093617,44.1227184 50.6093617,36.1817476 C50.6093617,31.0368932 47.8008511,26.2275728 43.307234,23.6551456 C41.1165957,22.4807767 38.6451064,21.8097087 36.1174468,21.8097087 Z" id="Shape" fill="#FFD552"></path>
            </g>
            <path d="M65.9438298,143.161165 C65.6068085,143.161165 65.213617,143.161165 64.8765957,143.161165 L64.932766,141.315728 C65.5506383,141.315728 66.1685106,141.315728 66.7302128,141.315728 L66.786383,143.161165 C66.5055319,143.161165 66.2246809,143.161165 65.9438298,143.161165 Z M68.64,143.105243 L68.5276596,141.259806 C69.1455319,141.203883 69.7634043,141.147961 70.3251064,141.092039 L70.493617,142.937476 C69.9319149,142.993398 69.3140426,143.04932 68.64,143.105243 Z M62.9668085,143.04932 C62.3489362,142.993398 61.7310638,142.937476 61.0570213,142.881553 L61.2817021,141.036117 C61.8995745,141.092039 62.4612766,141.147961 63.0791489,141.203883 L62.9668085,143.04932 Z M72.4034043,142.713786 L72.1225532,140.86835 C72.7404255,140.756505 73.3021277,140.700583 73.92,140.588738 L74.2570213,142.378252 C73.6953191,142.490097 73.0774468,142.601942 72.4034043,142.713786 Z M59.2034043,142.657864 C58.5855319,142.546019 57.9676596,142.434175 57.3497872,142.32233 L57.6868085,140.532816 C58.3046809,140.64466 58.866383,140.756505 59.4842553,140.86835 L59.2034043,142.657864 Z M76.1668085,141.986796 L75.7174468,140.197282 C76.3353191,140.085437 76.8970213,139.91767 77.4587234,139.749903 L77.9642553,141.539417 C77.4025532,141.707184 76.7846809,141.874951 76.1668085,141.986796 Z M55.4961702,141.930874 C54.8782979,141.763107 54.2604255,141.651262 53.6425532,141.427573 L54.1480851,139.638058 C54.7097872,139.805825 55.3276596,139.973592 55.8893617,140.085437 L55.4961702,141.930874 Z M79.8178723,140.980194 L79.2561702,139.246602 C79.8178723,139.078835 80.3795745,138.855146 80.9412766,138.631456 L81.6153191,140.365049 C80.9974468,140.588738 80.3795745,140.812427 79.8178723,140.980194 Z M51.8451064,140.924272 C51.227234,140.700583 50.6655319,140.532816 50.0476596,140.309126 L50.7217021,138.575534 C51.2834043,138.799223 51.8451064,138.96699 52.4068085,139.19068 L51.8451064,140.924272 Z M83.3565957,139.693981 L82.626383,138.016311 C83.1880851,137.792621 83.7497872,137.51301 84.2553191,137.28932 L85.0417021,138.96699 C84.48,139.19068 83.9182979,139.414369 83.3565957,139.693981 Z M48.306383,139.582136 C47.7446809,139.358447 47.1268085,139.078835 46.5651064,138.799223 L47.3514894,137.121553 C47.9131915,137.401165 48.4748936,137.624854 48.9804255,137.848544 L48.306383,139.582136 Z M86.7829787,138.072233 L85.9404255,136.450485 C86.5021277,136.170874 87.0076596,135.891262 87.5131915,135.555728 L88.4680851,137.177476 C87.8502128,137.457087 87.2885106,137.792621 86.7829787,138.072233 Z M44.88,137.904466 C44.3182979,137.624854 43.7565957,137.28932 43.2510638,136.953786 L44.2059574,135.387961 C44.7114894,135.667573 45.2731915,136.003107 45.7787234,136.282718 L44.88,137.904466 Z M90.0408511,136.170874 L89.0297872,134.605049 C89.5353191,134.269515 90.0408511,133.933981 90.546383,133.598447 L91.613617,135.10835 C91.1080851,135.499806 90.546383,135.83534 90.0408511,136.170874 Z M41.6221277,136.003107 C41.1165957,135.667573 40.5548936,135.332039 40.0493617,134.940583 L41.1165957,133.43068 C41.6221277,133.766214 42.1276596,134.101748 42.6331915,134.437282 L41.6221277,136.003107 Z M93.1302128,133.989903 L92.0068085,132.535922 C92.5123404,132.144466 92.9617021,131.808932 93.4110638,131.417476 L94.5906383,132.815534 C94.1412766,133.20699 93.6357447,133.598447 93.1302128,133.989903 Z M38.532766,133.822136 C38.027234,133.43068 37.5217021,133.039223 37.0723404,132.647767 L38.2519149,131.249709 C38.7012766,131.641165 39.2068085,132.032621 39.6561702,132.368155 L38.532766,133.822136 Z M96.0510638,131.585243 L94.8153191,130.243107 C95.2646809,129.85165 95.7140426,129.404272 96.107234,129.012816 L97.3991489,130.299029 C96.9497872,130.746408 96.5004255,131.137864 96.0510638,131.585243 Z M35.6119149,131.361553 C35.1625532,130.914175 34.7131915,130.522718 34.2638298,130.07534 L35.5557447,128.789126 C36.0051064,129.236505 36.3982979,129.627961 36.8476596,130.019417 L35.6119149,131.361553 Z M98.747234,128.956893 L97.3991489,127.726602 C97.7923404,127.279223 98.2417021,126.831845 98.6348936,126.384466 L100.039149,127.558835 C99.5897872,128.006214 99.1404255,128.453592 98.747234,128.956893 Z M32.9719149,128.733204 C32.5225532,128.285825 32.1293617,127.782524 31.7361702,127.335146 L33.1404255,126.160777 C33.533617,126.608155 33.9268085,127.055534 34.32,127.502913 L32.9719149,128.733204 Z M101.162553,126.048932 L99.7021277,124.930485 C100.095319,124.483107 100.43234,123.979806 100.769362,123.476505 L102.285957,124.539029 C101.948936,125.04233 101.555745,125.545631 101.162553,126.048932 Z M30.5004255,125.825243 C30.107234,125.321942 29.7140426,124.818641 29.3770213,124.31534 L30.893617,123.252816 C31.2306383,123.756117 31.6238298,124.203495 31.9608511,124.706796 L30.5004255,125.825243 Z M103.409362,122.973204 L101.836596,121.966602 C102.173617,121.463301 102.510638,120.96 102.791489,120.456699 L104.364255,121.407379 C104.083404,121.966602 103.746383,122.469903 103.409362,122.973204 Z M28.3097872,122.749515 C27.972766,122.246214 27.6357447,121.68699 27.2987234,121.127767 L28.8714894,120.177087 C29.1523404,120.680388 29.4893617,121.183689 29.826383,121.742913 L28.3097872,122.749515 Z M105.319149,119.729709 L103.690213,118.834951 C103.971064,118.33165 104.251915,117.772427 104.532766,117.213204 L106.217872,117.996117 C105.937021,118.667184 105.65617,119.226408 105.319149,119.729709 Z M26.4,119.506019 C26.1191489,118.946796 25.8382979,118.387573 25.5574468,117.82835 L27.2425532,117.045437 C27.5234043,117.60466 27.8042553,118.107961 28.0851064,118.667184 L26.4,119.506019 Z M107.004255,116.374369 L105.319149,115.647379 C105.54383,115.088155 105.768511,114.528932 105.993191,113.969709 L107.734468,114.640777 C107.509787,115.2 107.228936,115.759223 107.004255,116.374369 Z M24.7710638,116.094757 C24.546383,115.535534 24.2655319,114.920388 24.0408511,114.361165 L25.7821277,113.690097 C26.0068085,114.24932 26.2314894,114.808544 26.4561702,115.367767 L24.7710638,116.094757 Z M108.35234,112.851262 L106.611064,112.236117 C106.779574,111.676893 107.004255,111.061748 107.172766,110.502524 L108.970213,111.005825 C108.745532,111.620971 108.577021,112.236117 108.35234,112.851262 Z M23.4229787,112.57165 C23.1982979,111.956505 23.0297872,111.397282 22.8612766,110.782136 L24.6587234,110.278835 C24.827234,110.838058 24.9957447,111.453204 25.1642553,112.012427 L23.4229787,112.57165 Z M109.419574,109.216311 L107.622128,108.768932 C107.790638,108.209709 107.902979,107.594563 108.015319,106.979417 L109.812766,107.314951 C109.700426,107.986019 109.588085,108.601165 109.419574,109.216311 Z M22.4119149,108.936699 C22.2434043,108.321553 22.1310638,107.706408 22.0187234,107.091262 L23.8161702,106.755728 C23.9285106,107.370874 24.0408511,107.930097 24.2093617,108.545243 L22.4119149,108.936699 Z M21.6817021,105.245825 C21.5693617,104.63068 21.5131915,104.015534 21.4570213,103.400388 L23.3106383,103.232621 C23.3668085,103.847767 23.4229787,104.40699 23.5353191,105.022136 L21.6817021,105.245825 Z M21.2885106,101.499029 C21.2323404,100.883883 21.2323404,100.268738 21.2323404,99.5976699 L23.0859574,99.5417476 C23.0859574,100.156893 23.1421277,100.772039 23.1421277,101.331262 L21.2885106,101.499029 Z M23.0859574,97.752233 L21.2323404,97.6963107 C21.2323404,97.081165 21.2885106,96.4100971 21.2885106,95.7949515 L23.1421277,95.9067961 C23.1421277,96.5219417 23.0859574,97.1370874 23.0859574,97.752233 Z M23.3106383,94.1172816 L21.4570213,93.9495146 C21.5131915,93.3343689 21.6255319,92.7192233 21.6817021,92.1040777 L23.5353191,92.3836893 C23.4229787,92.9429126 23.3668085,93.5580583 23.3106383,94.1172816 Z M23.8161702,90.5382524 L22.0187234,90.2027184 C22.1310638,89.5875728 22.2434043,88.9724272 22.4119149,88.3572816 L24.2093617,88.8046602 C24.0970213,89.3638835 23.9285106,89.9790291 23.8161702,90.5382524 Z M107.678298,88.8605825 L107.565957,88.4132039 L109.363404,87.9658252 L109.475745,88.4132039 L107.678298,88.8605825 Z M24.6587234,87.071068 L22.8612766,86.567767 C23.0297872,85.9526214 23.1982979,85.3374757 23.4229787,84.7782524 L25.1642553,85.3374757 C24.9957447,85.896699 24.827234,86.4559223 24.6587234,87.071068 Z M107.116596,86.6796117 C106.948085,86.1203883 106.779574,85.5052427 106.554894,84.9460194 L108.29617,84.3308738 C108.520851,84.9460194 108.689362,85.5052427 108.857872,86.1203883 L107.116596,86.6796117 Z M25.7821277,83.6038835 L24.0408511,82.9328155 C24.2655319,82.3176699 24.4902128,81.7584466 24.7710638,81.1992233 L26.4561702,81.9262136 C26.2314894,82.4854369 26.0068085,83.0446602 25.7821277,83.6038835 Z M105.937021,83.2683495 C105.71234,82.7091262 105.48766,82.1499029 105.262979,81.5906796 L106.948085,80.8636893 C107.172766,81.4229126 107.453617,82.0380583 107.678298,82.5972816 L105.937021,83.2683495 Z M27.2425532,80.2485437 L25.5574468,79.4656311 C25.8382979,78.9064078 26.1191489,78.3471845 26.4,77.7879612 L28.0289362,78.6267961 C27.7480851,79.1860194 27.467234,79.7452427 27.2425532,80.2485437 Z M104.532766,79.9130097 C104.251915,79.3537864 103.971064,78.8504854 103.690213,78.2912621 L105.319149,77.3965049 C105.6,77.9557282 105.880851,78.5149515 106.161702,79.0741748 L104.532766,79.9130097 Z M28.9276596,77.0609709 L27.2987234,76.1102913 C27.6357447,75.551068 27.972766,75.047767 28.3097872,74.4885437 L29.8825532,75.4951456 C29.5455319,76.0543689 29.2085106,76.5576699 28.9276596,77.0609709 Z M102.791489,76.7813592 C102.454468,76.2780583 102.173617,75.7747573 101.836596,75.2714563 L103.409362,74.2648544 C103.746383,74.7681553 104.083404,75.3273786 104.420426,75.8866019 L102.791489,76.7813592 Z M30.893617,74.041165 L29.3770213,72.9786408 C29.7140426,72.4753398 30.107234,71.9720388 30.5004255,71.4687379 L31.9608511,72.5871845 C31.6238298,73.0345631 31.2306383,73.5378641 30.893617,74.041165 Z M100.769362,73.7615534 C100.43234,73.2582524 100.039149,72.8108738 99.7021277,72.3075728 L101.162553,71.1891262 C101.555745,71.6924272 101.948936,72.1957282 102.285957,72.6990291 L100.769362,73.7615534 Z M33.1404255,71.1891262 L31.7361702,70.0147573 C32.1293617,69.5114563 32.5787234,69.0640777 32.9719149,68.616699 L34.32,69.8469903 C33.9268085,70.2384466 33.4774468,70.6858252 33.1404255,71.1891262 Z M98.5787234,70.9095146 C98.1855319,70.4621359 97.7923404,70.0147573 97.3429787,69.5673786 L98.6910638,68.281165 C99.1404255,68.7285437 99.533617,69.2318447 99.9268085,69.6792233 L98.5787234,70.9095146 Z M35.5557447,68.5048544 L34.2638298,67.2186408 C34.7131915,66.7712621 35.1625532,66.3238835 35.6119149,65.9324272 L36.8476596,67.2745631 C36.4544681,67.6660194 36.0051064,68.0574757 35.5557447,68.5048544 Z M96.107234,68.2252427 C95.6578723,67.7778641 95.2646809,67.3864078 94.8153191,66.9949515 L96.0510638,65.6528155 C96.5004255,66.1001942 96.9497872,66.4916505 97.3991489,66.9390291 L96.107234,68.2252427 Z M38.2519149,66.0442718 L37.0723404,64.6462136 C37.5778723,64.2547573 38.027234,63.863301 38.532766,63.4718447 L39.6561702,64.9258252 C39.1506383,65.2613592 38.7012766,65.6528155 38.2519149,66.0442718 Z M93.4110638,65.8205825 C92.9617021,65.4291262 92.4561702,65.0376699 92.0068085,64.7021359 L93.1302128,63.2481553 C93.6357447,63.6396117 94.1412766,64.031068 94.5906383,64.4225243 L93.4110638,65.8205825 Z M41.1165957,63.8073786 L40.0493617,62.2974757 C40.5548936,61.9060194 41.0604255,61.5704854 41.6221277,61.2349515 L42.6331915,62.8007767 C42.0714894,63.1363107 41.5659574,63.4718447 41.1165957,63.8073786 Z M90.4902128,63.6396117 C89.9846809,63.3040777 89.4791489,62.9685437 88.973617,62.6330097 L89.9846809,61.0671845 C90.4902128,61.4027184 91.0519149,61.7382524 91.5574468,62.1297087 L90.4902128,63.6396117 Z M44.1497872,61.8500971 L43.1948936,60.2842718 C43.7565957,59.9487379 44.2621277,59.6691262 44.8238298,59.3335922 L45.7225532,60.9553398 C45.1608511,61.2349515 44.6553191,61.5704854 44.1497872,61.8500971 Z M87.4570213,61.6823301 C86.9514894,61.4027184 86.3897872,61.0671845 85.8842553,60.7875728 L86.7268085,59.1658252 C87.2885106,59.4454369 87.8502128,59.7809709 88.4119149,60.0605825 L87.4570213,61.6823301 Z M47.3514894,60.1724272 L46.5651064,58.4947573 C47.1268085,58.2151456 47.6885106,57.935534 48.306383,57.7118447 L49.0365957,59.3895146 C48.4187234,59.6691262 47.8570213,59.8928155 47.3514894,60.1724272 Z M84.1991489,60.0046602 C83.6374468,59.7250485 83.0757447,59.5013592 82.5140426,59.2776699 L83.2442553,57.6 C83.8059574,57.8236893 84.4238298,58.103301 84.9855319,58.3829126 L84.1991489,60.0046602 Z M50.6655319,58.7184466 L49.9914894,56.9848544 C50.5531915,56.761165 51.1710638,56.5374757 51.7889362,56.3697087 L52.3506383,58.103301 C51.7889362,58.3269903 51.227234,58.4947573 50.6655319,58.7184466 Z M80.8851064,58.6066019 C80.3234043,58.3829126 79.7617021,58.2151456 79.1438298,57.9914563 L79.7055319,56.2578641 C80.3234043,56.4256311 80.8851064,56.6493204 81.5029787,56.8730097 L80.8851064,58.6066019 Z M54.0919149,57.6 L53.586383,55.8104854 C54.2042553,55.6427184 54.8221277,55.4749515 55.44,55.3071845 L55.8893617,57.096699 C55.2714894,57.264466 54.653617,57.432233 54.0919149,57.6 Z M77.4025532,57.4881553 C76.8408511,57.3203883 76.2229787,57.1526214 75.6612766,57.0407767 L76.0544681,55.2512621 C76.6723404,55.4190291 77.2902128,55.5308738 77.9080851,55.6986408 L77.4025532,57.4881553 Z M57.6306383,56.761165 L57.293617,54.9716505 C57.9114894,54.8598058 58.5293617,54.7479612 59.147234,54.6361165 L59.4280851,56.4815534 C58.8102128,56.5374757 58.1923404,56.5933981 57.6306383,56.761165 Z M73.8638298,56.6493204 C73.2459574,56.5374757 72.6842553,56.4256311 72.066383,56.3697087 L72.347234,54.5242718 C72.9651064,54.6361165 73.5829787,54.6920388 74.2008511,54.8038835 L73.8638298,56.6493204 Z M61.2255319,56.2019417 L61.0008511,54.3565049 C61.6187234,54.3005825 62.2365957,54.2446602 62.9106383,54.1887379 L63.0229787,56.0341748 C62.4051064,56.0900971 61.787234,56.1460194 61.2255319,56.2019417 Z M70.2689362,56.1460194 C69.6510638,56.0900971 69.0893617,56.0341748 68.4714894,55.9782524 L68.5838298,54.1328155 C69.2017021,54.1887379 69.8195745,54.2446602 70.493617,54.3005825 L70.2689362,56.1460194 Z M64.8204255,55.9223301 L64.7642553,54.0768932 C65.3821277,54.0768932 66.0561702,54.0768932 66.6740426,54.0768932 L66.6178723,55.9223301 C66.0561702,55.9223301 65.4382979,55.9223301 64.8204255,55.9223301 Z" id="Shape" fill="#FFFFFF"></path>
            <polygon id="Path" fill="#FFFFFF" points="109.082553 90.9297087 102.735319 87.1269903 103.690213 85.561165 108.408511 88.3572816 111.160851 83.3801942 112.789787 84.2749515"></polygon>
            <g id="Group" transform="translate(21.906383, 26.283495)">
                <path d="M77.0093617,25.4446602 C72.9651064,25.4446602 69.1455319,23.4873786 66.786383,20.2438835 C65.4382979,18.3425243 63.1353191,17.28 60.7761702,17.447767 L8.25702128,20.2998058 C8.08851064,20.2998058 7.86382979,20.2998058 7.69531915,20.2998058 C5.78553191,20.2998058 3.98808511,19.5728155 2.58382979,18.2306796 C1.23574468,16.8885437 0.449361702,15.0431068 0.449361702,13.1417476 C0.449361702,9.00349515 4.04425532,5.64815534 8.25702128,5.98368932 L60.3829787,8.83572816 C60.6076596,8.83572816 60.7761702,8.83572816 60.9446809,8.83572816 C63.1914894,8.83572816 65.2697872,7.71728155 66.5617021,5.87184466 C68.9208511,2.46058252 72.7965957,0.391456311 76.9531915,0.391456311 C82.0646809,0.391456311 86.6144681,3.41126214 88.5804255,8.10873786 L89.0859574,9.39495146 L77.5710638,9.39495146 C76.7846809,9.39495146 76.1106383,9.89825243 75.8297872,10.6252427 L74.8187234,13.7568932 C74.6502128,14.3161165 74.706383,14.8753398 75.0995745,15.3786408 C75.4365957,15.8260194 75.9982979,16.1056311 76.56,16.1056311 L89.1421277,16.0497087 L88.6365957,17.28 C86.8953191,22.201165 82.1770213,25.4446602 77.0093617,25.4446602 Z M61.3378723,15.6023301 C64.0902128,15.6023301 66.7302128,16.944466 68.3029787,19.1813592 C70.3251064,21.9774757 73.5829787,23.5992233 77.0093617,23.5992233 C80.9412766,23.5992233 84.5923404,21.4182524 86.4459574,18.0069903 L76.6723404,18.0069903 C75.492766,18.0069903 74.3693617,17.447767 73.6953191,16.4970874 C73.0212766,15.5464078 72.7965957,14.3720388 73.1897872,13.1976699 L74.2008511,10.0660194 C74.706383,8.5561165 76.1106383,7.54951456 77.6834043,7.54951456 L86.333617,7.54951456 C84.4238298,4.30601942 80.9412766,2.2368932 77.0655319,2.2368932 C73.5268085,2.2368932 70.212766,3.97048544 68.1906383,6.8784466 C66.4493617,9.45087379 63.4723404,10.9048544 60.3268085,10.6252427 L8.20085106,7.82912621 C8.03234043,7.82912621 7.86382979,7.82912621 7.75148936,7.82912621 C4.77446809,7.82912621 2.41531915,10.2337864 2.41531915,13.1976699 C2.41531915,14.6516505 2.97702128,15.9937864 3.98808511,17.0003883 C5.11148936,18.118835 6.62808511,18.6780583 8.20085106,18.5662136 L60.72,15.7141748 C60.8885106,15.6023301 61.1131915,15.6023301 61.3378723,15.6023301 Z" id="Shape" fill="#FFFFFF"></path>
                <path d="M77.0093617,21.4182524 C74.2570213,21.4182524 71.6731915,20.0761165 70.1004255,17.8951456 C68.0782979,15.0990291 64.8204255,13.4213592 61.3378723,13.4213592 C61.0570213,13.4213592 60.7761702,13.4213592 60.4953191,13.4772816 L7.97617021,16.3852427 C7.86382979,16.3852427 7.80765957,16.3852427 7.69531915,16.3852427 C6.85276596,16.3852427 6.06638298,16.0497087 5.44851064,15.4345631 C4.8306383,14.8194175 4.49361702,14.0365049 4.49361702,13.1976699 C4.49361702,11.4640777 5.95404255,10.0100971 7.69531915,10.0100971 C7.80765957,10.0100971 7.86382979,10.0100971 7.97617021,10.0100971 L60.2144681,12.8621359 C60.4953191,12.8621359 60.7761702,12.9180583 61.0570213,12.9180583 C64.6519149,12.9180583 67.9659574,11.1285437 69.9880851,8.16466019 C71.5608511,5.81592233 74.2008511,4.41786408 77.0655319,4.41786408 C78.5259574,4.41786408 79.9302128,4.75339806 81.1097872,5.42446602 L77.6834043,5.42446602 C75.1557447,5.42446602 72.9089362,7.04621359 72.1225532,9.45087379 L71.1114894,12.5266019 C70.5497872,14.3161165 70.8306383,16.2174757 71.9540426,17.7273786 C73.0212766,19.2372816 74.8187234,20.1320388 76.6723404,20.1320388 L81.5591489,20.1320388 C80.2110638,20.9708738 78.6382979,21.4182524 77.0093617,21.4182524 Z" id="Path" fill="#E0E0E0"></path>
            </g>
            <path d="M30.8374468,42.3332039 C29.0961702,42.3332039 27.6919149,40.9351456 27.6919149,39.2015534 C27.6919149,37.4679612 29.0961702,36.0699029 30.8374468,36.0699029 C32.5787234,36.0699029 33.9829787,37.4679612 33.9829787,39.2015534 C33.9829787,40.9351456 32.5225532,42.3332039 30.8374468,42.3332039 Z M30.8374468,37.9712621 C30.1634043,37.9712621 29.5455319,38.5304854 29.5455319,39.2574757 C29.5455319,39.984466 30.107234,40.5436893 30.8374468,40.5436893 C31.5676596,40.5436893 32.1293617,39.984466 32.1293617,39.2574757 C32.1293617,38.5304854 31.5114894,37.9712621 30.8374468,37.9712621 Z" id="Shape" fill="#4A555F"></path>
        </g>
    </g>
</svg>