<?xml version="1.0" encoding="UTF-8"?>
<svg width="200px" height="200px" viewBox="0 0 200 200" version="1.1" xmlns="http://www.w3.org/2000/svg" xmlns:xlink="http://www.w3.org/1999/xlink">
    <!-- Generator: Sketch 53.2 (72643) - https://sketchapp.com -->
    <title>4.4-everywhere-device</title>
    <desc>Created with Sketch.</desc>
    <g id="4.4-everywhere-device" stroke="none" stroke-width="1" fill="none" fill-rule="evenodd">
        <g id="INTERNET-OF-THINGS-Copy" transform="translate(10.000000, 13.000000)" fill-rule="nonzero">
            <path d="M29.9265625,74.0439024 L27.96875,73.0650407 C31.8144531,65.2341463 39.2261719,59.500813 47.7566406,57.6829268 L48.1761719,59.8504065 C40.3449219,61.4585366 33.4925781,66.7723577 29.9265625,74.0439024 Z" id="Path" fill="#FFFFFF"></path>
            <path d="M34.8910156,107.045528 C28.6679688,101.661789 25.1019531,93.8308943 25.1019531,85.5804878 L27.2695312,85.5804878 C27.2695312,93.201626 30.5558594,100.403252 36.359375,105.437398 L34.8910156,107.045528 Z" id="Path" fill="#FFFFFF"></path>
            <path d="M79.9207031,114.037398 L53.4902344,114.037398 C49.9941406,114.037398 46.5679687,113.40813 43.2816406,112.149593 L44.0507812,110.121951 C47.0574219,111.310569 50.2039062,111.869919 53.4902344,111.869919 L79.8507812,111.869919 L79.8507812,114.037398 L79.9207031,114.037398 Z" id="Path" fill="#FFFFFF"></path>
            <path d="M132.851562,114.037398 L91.0382812,114.037398 L91.0382812,111.869919 L132.851562,111.869919 C133.900391,111.869919 135.019141,111.8 136.137891,111.590244 L136.557422,113.757724 C135.298828,113.897561 134.110156,114.037398 132.851562,114.037398 Z" id="Path" fill="#FFFFFF"></path>
            <path d="M145.087891,109.912195 L143.759375,108.164228 C146.835938,105.856911 149.073437,102.570732 150.192187,98.9349593 L152.289844,99.5642276 C151.03125,103.689431 148.514063,107.325203 145.087891,109.912195 Z" id="Path" fill="#FFFFFF"></path>
            <path d="M150.332031,89.1463415 C148.304297,81.4552846 141.591797,76.1414634 133.690625,75.7918699 L132.641797,75.7219512 L132.641797,74.1837398 C132.641797,71.4569106 132.362109,68.6601626 131.732812,65.9333333 L133.900391,65.4439024 C134.459766,68.100813 134.809375,70.8276423 134.879297,73.6243902 C143.269922,74.3934959 150.262109,80.3365854 152.499609,88.5869919 L150.332031,89.1463415 Z" id="Path" fill="#FFFFFF"></path>
            <path d="M60.5523437,58.801626 L58.5246094,57.8926829 C64.9574219,43.5593496 79.2214844,34.2601626 94.9539062,34.2601626 C107.679687,34.2601626 119.776172,40.4130081 127.257812,50.7609756 L125.509766,52.0195122 C118.447656,42.2308943 107.050391,36.4276423 95.0238281,36.4276423 C80.1304687,36.497561 66.6355469,45.2373984 60.5523437,58.801626 Z" id="Path" fill="#FFFFFF"></path>
            <path d="M133.410938,78.0292683 L129.914844,77.8894309 L129.914844,74.3934959 C129.914844,74.2536585 129.914844,73.904065 129.914844,73.904065 C129.914844,54.396748 114.042578,38.5252033 94.534375,38.5252033 C80.4101563,38.5252033 67.6144531,46.9154472 62.0207031,59.9203252 L60.8320313,62.7170732 L57.8953125,62.0878049 C56.2171875,61.7382114 54.5390625,61.5284553 52.7910156,61.5284553 C39.6457031,61.5284553 28.8777344,72.2260163 28.8777344,85.4406504 C28.8777344,98.5853659 39.5757813,109.352846 52.7910156,109.352846 L132.711719,109.352846 C141.312109,109.352846 148.304297,102.360976 148.304297,93.6910569 C148.304297,85.2308943 141.731641,78.3788618 133.410938,78.0292683 Z M91.0382812,96.697561 C87.8917969,96.697561 85.3046875,94.1804878 85.3046875,91.0341463 C85.3046875,87.8878049 87.8917969,85.300813 91.0382812,85.300813 C94.1847656,85.300813 96.771875,87.8178862 96.771875,91.0341463 C96.771875,94.1105691 94.1847656,96.697561 91.0382812,96.697561 Z" id="Shape" fill="#71CCE0"></path>
            <path d="M91.0382812,97.7463415 C87.2625,97.7463415 84.2558594,94.6699187 84.2558594,90.9642276 C84.2558594,87.1886179 87.3324219,84.1821138 91.0382812,84.1821138 C94.7441406,84.1821138 97.8207031,87.2585366 97.8207031,90.9642276 C97.8207031,94.7398374 94.8140625,97.7463415 91.0382812,97.7463415 Z M91.0382812,86.4195122 C88.5210938,86.4195122 86.4234375,88.5170732 86.4234375,91.0341463 C86.4234375,93.5512195 88.5210938,95.6487805 91.0382812,95.6487805 C93.5554688,95.6487805 95.653125,93.5512195 95.653125,91.0341463 C95.653125,88.4471545 93.5554688,86.4195122 91.0382812,86.4195122 Z" id="Shape" fill="#FFFFFF"></path>
            <path d="M100.267969,82.7837398 C97.7507813,80.4065041 94.4644531,79.0780488 91.0382813,79.0780488 C87.6121094,79.0780488 84.3257813,80.4065041 81.8085938,82.7138211 L80.2703125,81.1056911 C83.2070313,78.3788618 86.9828125,76.8406504 90.9683594,76.8406504 C95.0238281,76.8406504 98.8695313,78.3788618 101.736328,81.1756098 L100.267969,82.7837398 Z" id="Path" fill="#FFFFFF"></path>
            <path d="M105.512109,77.3300813 C101.596484,73.6243902 96.4921875,71.5268293 91.1082031,71.5268293 C85.7242187,71.5268293 80.6199219,73.5544715 76.7042969,77.2601626 L75.1660156,75.6520325 C79.5011719,71.596748 85.0949219,69.2894309 91.0382813,69.2894309 C96.9816406,69.2894309 102.645313,71.5268293 106.980469,75.6520325 L105.512109,77.3300813 Z" id="Path" fill="#FFFFFF"></path>
            <path d="M110.75625,71.7365854 C105.442187,66.6325203 98.45,63.9056911 91.0382812,63.9056911 C83.6964844,63.9056911 76.7042969,66.702439 71.3902344,71.7365854 L69.8519531,70.1284553 C75.5855469,64.6747967 83.1371094,61.6682927 91.0382812,61.6682927 C98.9394531,61.6682927 106.491016,64.6747967 112.224609,70.1284553 L110.75625,71.7365854 Z" id="Path" fill="#4A555F"></path>
            <path d="M110.75625,71.7365854 C105.442187,66.6325203 98.45,63.9056911 91.0382812,63.9056911 C83.6964844,63.9056911 76.7042969,66.702439 71.3902344,71.7365854 L69.8519531,70.1284553 C75.5855469,64.6747967 83.1371094,61.6682927 91.0382812,61.6682927 C98.9394531,61.6682927 106.491016,64.6747967 112.224609,70.1284553 L110.75625,71.7365854 Z" id="Path" fill="#FFFFFF"></path>
            <polygon id="Path" fill="#FFFFFF" points="55.4480469 58.5219512 53.2105469 58.5219512 53.2105469 37.6861789 37.1285156 37.6861789 37.1285156 33.700813 39.3660156 33.700813 39.3660156 35.5186992 55.4480469 35.5186992"></polygon>
            <path d="M38.2472656,9.85853659 C35.5902344,9.85853659 33.4226562,7.69105691 33.4226562,5.03414634 C33.4226562,2.37723577 35.5902344,0.209756098 38.2472656,0.209756098 C40.9042969,0.209756098 43.071875,2.37723577 43.071875,5.03414634 C43.071875,7.69105691 40.9042969,9.85853659 38.2472656,9.85853659 Z M38.2472656,2.30731707 C36.7789062,2.30731707 35.5902344,3.49593496 35.5902344,4.96422764 C35.5902344,6.43252033 36.7789062,7.62113821 38.2472656,7.62113821 C39.715625,7.62113821 40.9042969,6.43252033 40.9042969,4.96422764 C40.9042969,3.49593496 39.715625,2.30731707 38.2472656,2.30731707 Z" id="Shape" fill="#FFFFFF"></path>
            <path d="M4.82460938,83.3430894 C2.16757813,83.3430894 0,81.1756098 0,78.5186992 C0,75.8617886 2.16757813,73.6943089 4.82460938,73.6943089 C7.48164062,73.6943089 9.64921875,75.8617886 9.64921875,78.5186992 C9.71914062,81.1756098 7.5515625,83.3430894 4.82460938,83.3430894 Z M4.82460937,75.8617886 C3.35625,75.8617886 2.16757812,77.0504065 2.16757812,78.5186992 C2.16757812,79.9869919 3.35625,81.1756098 4.82460937,81.1756098 C6.29296875,81.1756098 7.48164062,79.9869919 7.48164062,78.5186992 C7.5515625,77.0504065 6.29296875,75.8617886 4.82460937,75.8617886 Z" id="Shape" fill="#FFFFFF"></path>
            <path d="M49.9941406,148.717073 C47.3371094,148.717073 45.1695312,146.549593 45.1695312,143.892683 C45.1695312,141.235772 47.3371094,139.068293 49.9941406,139.068293 C52.6511719,139.068293 54.81875,141.235772 54.81875,143.892683 C54.81875,146.479675 52.6511719,148.717073 49.9941406,148.717073 Z M49.9941406,141.165854 C48.5257812,141.165854 47.3371094,142.354472 47.3371094,143.822764 C47.3371094,145.291057 48.5257812,146.479675 49.9941406,146.479675 C51.4625,146.479675 52.6511719,145.291057 52.6511719,143.822764 C52.6511719,142.354472 51.4625,141.165854 49.9941406,141.165854 Z" id="Shape" fill="#FFFFFF"></path>
            <path d="M85.3746094,140.047154 C82.7175781,140.047154 80.55,137.879675 80.55,135.222764 C80.55,132.565854 82.7175781,130.398374 85.3746094,130.398374 C88.0316406,130.398374 90.1992187,132.565854 90.1992187,135.222764 C90.1992187,137.879675 88.0316406,140.047154 85.3746094,140.047154 Z M85.3746094,132.495935 C83.90625,132.495935 82.7175781,133.684553 82.7175781,135.152846 C82.7175781,136.621138 83.90625,137.809756 85.3746094,137.809756 C86.8429687,137.809756 88.0316406,136.621138 88.0316406,135.152846 C88.0316406,133.684553 86.8429687,132.495935 85.3746094,132.495935 Z" id="Shape" fill="#FFFFFF"></path>
            <path d="M127.117969,171.860163 C124.460937,171.860163 122.293359,169.692683 122.293359,167.035772 C122.293359,164.378862 124.460937,162.211382 127.117969,162.211382 C129.775,162.211382 131.942578,164.378862 131.942578,167.035772 C131.942578,169.692683 129.775,171.860163 127.117969,171.860163 Z M127.117969,164.378862 C125.649609,164.378862 124.460937,165.56748 124.460937,167.035772 C124.460937,168.504065 125.649609,169.692683 127.117969,169.692683 C128.586328,169.692683 129.775,168.504065 129.775,167.035772 C129.775,165.56748 128.586328,164.378862 127.117969,164.378862 Z" id="Shape" fill="#FFFFFF"></path>
            <path d="M174.175391,98.4455285 C171.518359,98.4455285 169.350781,96.2780488 169.350781,93.6211382 C169.350781,90.9642276 171.518359,88.796748 174.175391,88.796748 C176.832422,88.796748 179,90.9642276 179,93.6211382 C179,96.2780488 176.832422,98.4455285 174.175391,98.4455285 Z M174.175391,90.9642276 C172.707031,90.9642276 171.518359,92.1528455 171.518359,93.6211382 C171.518359,95.0894309 172.707031,96.2780488 174.175391,96.2780488 C175.64375,96.2780488 176.832422,95.0894309 176.832422,93.6211382 C176.832422,92.1528455 175.64375,90.9642276 174.175391,90.9642276 Z" id="Shape" fill="#FFFFFF"></path>
            <path d="M140.333203,24.3317073 C137.676172,24.3317073 135.508594,22.1642276 135.508594,19.5073171 C135.508594,16.8504065 137.676172,14.6829268 140.333203,14.6829268 C142.990234,14.6829268 145.157812,16.8504065 145.157812,19.5073171 C145.227734,22.1642276 142.990234,24.3317073 140.333203,24.3317073 Z M140.333203,16.7804878 C138.864844,16.7804878 137.676172,17.9691057 137.676172,19.4373984 C137.676172,20.9056911 138.864844,22.0943089 140.333203,22.0943089 C141.801562,22.0943089 142.990234,20.9056911 142.990234,19.4373984 C142.990234,17.9691057 141.801562,16.7804878 140.333203,16.7804878 Z" id="Shape" fill="#FFFFFF"></path>
            <path d="M39.3660156,31.4634146 L37.1984375,31.4634146 L37.1984375,29.295935 L39.3660156,29.295935 L39.3660156,31.4634146 Z M39.3660156,27.0585366 L37.1984375,27.0585366 L37.1984375,24.8910569 L39.3660156,24.8910569 L39.3660156,27.0585366 Z M39.3660156,22.6536585 L37.1984375,22.6536585 L37.1984375,20.4861789 L39.3660156,20.4861789 L39.3660156,22.6536585 Z M39.3660156,18.3186992 L37.1984375,18.3186992 L37.1984375,16.0813008 L39.3660156,16.0813008 L39.3660156,18.3186992 Z M39.3660156,13.9138211 L37.1984375,13.9138211 L37.1984375,11.7463415 L39.3660156,11.7463415 L39.3660156,13.9138211 Z" id="Shape" fill="#FFFFFF"></path>
            <polygon id="Path" fill="#FFFFFF" points="141.451953 58.2422764 129.775 58.2422764 129.775 56.0747967 139.214453 56.0747967 139.214453 53.4878049 141.451953 53.4878049"></polygon>
            <path d="M141.451953,51.0406504 L139.284375,51.0406504 L139.284375,48.8731707 L141.451953,48.8731707 L141.451953,51.0406504 Z M141.451953,46.6357724 L139.284375,46.6357724 L139.284375,44.4682927 L141.451953,44.4682927 L141.451953,46.6357724 Z M141.451953,42.2308943 L139.284375,42.2308943 L139.284375,40.0634146 L141.451953,40.0634146 L141.451953,42.2308943 Z M141.451953,37.8260163 L139.284375,37.8260163 L139.284375,35.6585366 L141.451953,35.6585366 L141.451953,37.8260163 Z M141.451953,33.4211382 L139.284375,33.4211382 L139.284375,31.2536585 L141.451953,31.2536585 L141.451953,33.4211382 Z M141.451953,29.0162602 L139.284375,29.0162602 L139.284375,26.8487805 L141.451953,26.8487805 L141.451953,29.0162602 Z" id="Shape" fill="#FFFFFF"></path>
            <path d="M86.4234375,128.300813 L84.2558594,128.300813 L84.2558594,126.133333 L86.4234375,126.133333 L86.4234375,128.300813 Z M86.4234375,123.895935 L84.2558594,123.895935 L84.2558594,121.728455 L86.4234375,121.728455 L86.4234375,123.895935 Z M86.4234375,119.491057 L84.2558594,119.491057 L84.2558594,117.323577 L86.4234375,117.323577 L86.4234375,119.491057 Z M86.4234375,115.156098 L84.2558594,115.156098 L84.2558594,112.988618 L86.4234375,112.988618 L86.4234375,115.156098 Z" id="Shape" fill="#FFFFFF"></path>
            <path d="M128.236719,160.253659 L126.069141,160.253659 L126.069141,158.01626 L128.236719,158.01626 L128.236719,160.253659 Z M128.236719,155.84878 L126.069141,155.84878 L126.069141,153.681301 L128.236719,153.681301 L128.236719,155.84878 Z M128.236719,151.443902 L126.069141,151.443902 L126.069141,149.276423 L128.236719,149.276423 L128.236719,151.443902 Z M128.236719,147.039024 L126.069141,147.039024 L126.069141,144.871545 L128.236719,144.871545 L128.236719,147.039024 Z M128.236719,142.634146 L126.069141,142.634146 L126.069141,140.466667 L128.236719,140.466667 L128.236719,142.634146 Z M128.236719,138.229268 L126.069141,138.229268 L126.069141,136.061789 L128.236719,136.061789 L128.236719,138.229268 Z M128.236719,133.82439 L126.069141,133.82439 L126.069141,131.656911 L128.236719,131.656911 L128.236719,133.82439 Z M128.236719,129.489431 L126.069141,129.489431 L126.069141,127.252033 L128.236719,127.252033 L128.236719,129.489431 Z" id="Shape" fill="#FFFFFF"></path>
            <polygon id="Path" fill="#FFFFFF" points="51.0429688 128.790244 48.8753906 128.790244 48.8753906 126.762602 37.1285156 126.762602 37.1285156 109.073171 39.3660156 109.073171 39.3660156 124.595122 51.0429688 124.595122"></polygon>
            <polygon id="Path" fill="#FFFFFF" points="128.306641 124.385366 126.069141 124.385366 126.069141 119.630894 139.214453 119.630894 139.214453 111.100813 141.451953 111.100813 141.451953 121.868293 128.306641 121.868293"></polygon>
            <path d="M26.7101563,79.6373984 L24.5425781,79.6373984 L24.5425781,77.4699187 L26.7101563,77.4699187 L26.7101563,79.6373984 Z M22.3050781,79.6373984 L20.1375,79.6373984 L20.1375,77.4699187 L22.3050781,77.4699187 L22.3050781,79.6373984 Z M17.9699219,79.6373984 L15.8023437,79.6373984 L15.8023437,77.4699187 L17.9699219,77.4699187 L17.9699219,79.6373984 Z M13.5648437,79.6373984 L11.3972656,79.6373984 L11.3972656,77.4699187 L13.5648437,77.4699187 L13.5648437,79.6373984 Z" id="Shape" fill="#FFFFFF"></path>
            <path d="M166.763672,94.7398374 L164.596094,94.7398374 L164.596094,92.5723577 L166.763672,92.5723577 L166.763672,94.7398374 Z M162.358594,94.7398374 L160.191016,94.7398374 L160.191016,92.5723577 L162.358594,92.5723577 L162.358594,94.7398374 Z M157.953516,94.7398374 L155.785938,94.7398374 L155.785938,92.5723577 L157.953516,92.5723577 L157.953516,94.7398374 Z M153.548438,94.7398374 L151.380859,94.7398374 L151.380859,92.5723577 L153.548438,92.5723577 L153.548438,94.7398374 Z" id="Shape" fill="#FFFFFF"></path>
            <path d="M51.0429687,137.320325 L48.8753906,137.320325 L48.8753906,135.152846 L51.0429687,135.152846 L51.0429687,137.320325 Z M51.0429687,132.915447 L48.8753906,132.915447 L48.8753906,130.747967 L51.0429687,130.747967 L51.0429687,132.915447 Z" id="Shape" fill="#FFFFFF"></path>
        </g>
    </g>
</svg>