<?xml version="1.0" encoding="UTF-8"?>
<svg width="362px" height="363px" viewBox="0 0 362 363" version="1.1" xmlns="http://www.w3.org/2000/svg" xmlns:xlink="http://www.w3.org/1999/xlink">
    <!-- Generator: Sketch 58 (84663) - https://sketch.com -->
    <title>everywhere-hero</title>
    <desc>Created with Sketch.</desc>
    <g id="Page-1" stroke="none" stroke-width="1" fill="none" fill-rule="evenodd">
        <g id="everywhere-hero">
            <g id="Group" transform="translate(0.100586, 0.697898)">
                <path d="M219.186595,89.8065198 L92.1092511,216.884568 L144.644947,269.419559 L271.722291,142.342216 L219.186595,89.8065198 Z M98.5894189,216.884568 L219.186595,96.2873918 L265.241419,142.341512 L144.644243,262.938687 L98.5894189,216.884568 Z" id="Shape" fill="#FFFFFF" fill-rule="nonzero"></path>
                <path d="M249.402388,69.0819383 L221.062203,97.4222695 L264.107395,140.466608 L292.446872,112.126277 L249.402388,69.0819383 Z M227.578173,97.4215615 L249.402388,75.5977789 L285.932318,112.126277 L264.108103,133.950059 L227.578173,97.4215615 Z" id="Shape" fill="#FFFFFF" fill-rule="nonzero"></path>
                <path d="M292.151376,77.2868191 L284.241992,69.3774351 C279.597054,64.7317954 273.421359,62.1737445 266.851739,62.1737445 C260.282119,62.1737445 254.106424,64.7317954 249.461487,69.3774351 L246.392247,72.4466749 L289.082136,115.136564 L292.151376,112.067324 C296.797015,107.422387 299.355066,101.245989 299.355066,94.6770715 C299.355066,88.1074518 296.796313,81.9317565 292.151376,77.2868191 Z M289.080731,108.672974 L252.854433,72.4466749 C256.616726,68.7665363 261.578348,66.7428462 266.851037,66.7428462 C272.198859,66.7428462 277.228592,68.8255196 281.010548,72.6074747 L288.919932,80.5168587 C292.701887,84.2988138 294.785262,89.327845 294.785262,94.6763694 C294.785262,99.949058 292.761572,104.909978 289.080731,108.672974 Z" id="Shape" fill="#FFFFFF" fill-rule="nonzero"></path>
                <path d="M208.411521,200.337621 L195.732159,213.016983 L222.199228,239.484053 L234.87859,226.804691 L208.411521,200.337621 Z M202.051925,213.016297 L208.410834,206.657388 L228.558137,226.804004 L222.198542,233.1636 L202.051925,213.016297 Z" id="Shape" fill="#FFFFFF" fill-rule="nonzero"></path>
                <path d="M137.81094,125.690749 L125.690749,137.810727 L150.989941,163.110132 L163.110132,150.990154 L137.81094,125.690749 Z M131.731152,137.810727 L137.810284,131.731702 L157.068416,150.989497 L150.989285,157.068522 L131.731152,137.810727 Z" id="Shape" fill="#FFFFFF" fill-rule="nonzero"></path>
                <path d="M267.405713,188.823965 L188.823965,267.406097 L282.947767,361.528811 L361.528811,282.947383 L267.405713,188.823965 Z M195.312806,267.406097 L267.405713,195.313484 L355.040675,282.947383 L282.947767,355.039996 L195.312806,267.406097 Z" id="Shape" fill="#FFFFFF" fill-rule="nonzero"></path>
                <path d="M78.580659,0 L0,78.5817484 L94.1227766,172.704846 L172.704846,94.1230975 L78.580659,0 Z M6.48816252,78.5817484 L78.580659,6.48884111 L166.215978,94.1230975 L94.1227766,166.216005 L6.48816252,78.5817484 Z" id="Shape" fill="#FFFFFF" fill-rule="nonzero"></path>
                <path d="M115.710912,236.989427 L101.703965,250.996981 L103.363329,252.380391 C104.782521,253.563658 106.170783,254.832441 107.489298,256.150956 C108.809026,257.470684 110.077202,258.858339 111.259863,260.276925 L112.643273,261.935683 L126.65022,247.928129 L115.710912,236.989427 Z M110.194468,253.446383 C109.309708,252.561622 108.394874,251.697913 107.460793,250.865481 L115.580018,242.746256 L120.893392,248.059629 L112.774167,256.178855 C111.941734,255.245375 111.078627,254.331143 110.194468,253.446383 Z" id="Shape" fill="#FFFFFF" fill-rule="nonzero"></path>
                <path d="M108.485104,253.032959 C123.169061,267.717498 131.255683,287.247071 131.255683,308.024553 C131.255683,319.158003 128.932877,329.93946 124.351709,340.070758 L122.979271,343.10696 L18.4218502,238.54106 L21.4592021,237.168501 C31.5782789,232.593305 42.367287,230.273128 53.5273774,230.273128 C74.2909951,230.273128 93.8089374,238.356211 108.485104,253.032959 Z" id="Shape" stroke="#FFFFFF" stroke-width="4" fill="#3F2E61" fill-rule="nonzero"></path>
                <circle id="Oval" fill="#FFD552" cx="40.399414" cy="319.802102" r="10.5"></circle>
                <path d="M61.2482082,279.246696 L42.1762115,305.822171 L44.9516188,306.617084 C45.1292242,306.668088 45.3074732,306.72469 45.5931864,306.827319 C45.7392604,306.872725 45.8853345,306.922485 46.0314086,306.984685 L46.1620387,307.035066 C46.2913818,307.080472 46.4207249,307.13583 46.5513551,307.20114 L46.736039,307.283244 C46.8550862,307.329893 46.9696288,307.385873 47.0841715,307.449939 L47.2064361,307.514005 C47.3537972,307.584912 47.5011583,307.661418 47.7373221,307.801368 C48.0320442,307.959977 48.3177573,308.146576 48.6304974,308.367386 C48.8119639,308.490541 48.9863519,308.619917 49.2398901,308.824554 C49.3145359,308.879912 49.3911122,308.937758 49.4664015,309.010531 L49.632424,309.154213 C49.7997335,309.284832 49.9586775,309.435978 50.118265,309.590233 C50.3550723,309.818506 50.5828707,310.061085 50.8035905,310.311129 C50.8756623,310.391988 50.9445166,310.466006 51.0062924,310.546866 L51.1066781,310.669399 C51.1645929,310.734087 51.2102813,310.800019 51.2952231,310.914466 C51.4303577,311.088004 51.5564833,311.260919 51.6735999,311.42637 C51.8621449,311.700049 52.0358894,311.98057 52.1851809,312.243675 L52.3782304,312.601324 C52.4535196,312.740652 52.5255914,312.872515 52.5828628,313.016819 L52.6639435,313.194088 C52.7122059,313.287388 52.7540333,313.386907 52.8235311,313.554225 C52.8634279,313.643792 52.8975333,313.733982 52.9187688,313.789962 L53.0397464,314.120865 C53.0629123,314.182442 53.0847913,314.24402 53.1060267,314.30622 L53.1111747,314.833674 L54.9316308,316.666079 L81.5145374,298.834026 L61.2482082,279.246696 Z M56.0834924,310.716671 L55.8666336,310.316104 C55.6497747,309.934198 55.4136109,309.553535 55.1459157,309.166031 C54.9818237,308.932782 54.8177317,308.708862 54.6632921,308.510445 C54.5603324,308.37174 54.4560857,308.234278 54.3376821,308.095573 C54.2244264,307.951269 54.1034488,307.812564 53.9786101,307.673236 C53.6948275,307.353529 53.3930269,307.0332 53.0802868,306.73091 C52.840262,306.498282 52.5983067,306.276229 52.3499165,306.075324 C52.1626585,305.901165 51.983766,305.758727 51.8653624,305.672891 C51.5931627,305.45146 51.32225,305.249311 51.0732162,305.08075 C50.6137586,304.755445 50.1896933,304.48923 49.8666573,304.31818 C49.6227715,304.170767 49.3795292,304.041391 49.1356434,303.921968 C49.0146658,303.855414 48.8943316,303.792592 48.7727105,303.734125 L61.8325045,285.535715 L75.0094151,298.272363 L56.1819477,310.902026 C56.1497727,310.840449 56.1175978,310.778871 56.0834924,310.716671 Z" id="Shape" fill="#FFFFFF" fill-rule="nonzero"></path>
                <path d="M53.482764,306.710468 C50.0025247,303.230998 45.3754873,301.314537 40.4536002,301.314537 C35.5309887,301.314537 30.9039513,303.230998 27.4244365,306.710468 C23.9441972,310.189937 22.0273128,314.815951 22.0273128,319.73675 C22.0273128,324.657548 23.9441972,329.283563 27.4244365,332.762308 C30.9039513,336.241777 35.5309887,338.158238 40.4536002,338.158238 C45.3747628,338.158238 50.0018003,336.241777 53.482764,332.762308 C60.6670963,325.581013 60.6670963,313.893935 53.482764,306.710468 Z M50.1495873,329.430593 C47.5589679,332.019915 44.1163999,333.446034 40.4536002,333.446034 C36.7908006,333.446034 33.3475081,332.019915 30.7576132,329.430593 C28.1677182,326.84127 26.7412838,323.399464 26.7412838,319.737474 C26.7412838,316.075484 28.1677182,312.632954 30.7576132,310.043631 C33.3475081,307.454309 36.791525,306.02819 40.4536002,306.02819 C44.1156754,306.02819 47.5589679,307.454309 50.1495873,310.043631 C55.4952753,315.388861 55.4952753,324.085362 50.1495873,329.430593 Z" id="Shape" fill="#FFFFFF" fill-rule="nonzero"></path>
            </g>
            <polygon id="Rectangle" fill="#FFD552" fill-rule="nonzero" transform="translate(256.621736, 105.914744) rotate(-45.000000) translate(-256.621736, -105.914744) " points="246.592585 85.5157473 266.650887 85.5157473 266.650887 126.313741 246.592585 126.313741"></polygon>
            <path d="M284.745172,85.315124 L277.018243,77.5891682 C274.307473,74.878499 270.70363,73.385299 266.869317,73.385299 C264.928153,73.385299 263.046665,73.7680301 261.30922,74.4978256 L287.831143,101.018074 C290.011008,95.8031913 288.982809,89.5532881 284.745172,85.315124 Z" id="Path" fill="#FFD552" fill-rule="nonzero"></path>
            <polygon id="Rectangle" fill="#EC8D53" fill-rule="nonzero" transform="translate(275.147400, 275.747676) rotate(-45.000000) translate(-275.147400, -275.747676) " points="229.457164 219.051393 320.837637 219.051393 320.837637 332.443959 229.457164 332.443959"></polygon>
            <polygon id="Rectangle" fill="#EC8D53" fill-rule="nonzero" transform="translate(86.577388, 87.176828) rotate(-45.000000) translate(-86.577388, -87.176828) " points="40.8867989 30.4805457 132.267978 30.4805457 132.267978 143.87311 40.8867989 143.87311"></polygon>
            <path d="M38.8858673,89.1193525 L42.1069841,92.3436433 L45.3281008,89.1200531 L42.1069841,85.8957622 L38.8858673,89.1193525 Z M32.4429337,82.6714714 L35.6640504,85.8950616 L38.8851672,82.6714714 L35.6640504,79.4478811 L32.4429337,82.6714714 Z M26,76.2235902 L29.2211168,79.4478811 L32.4422336,76.2242909 L29.2211168,73 L26,76.2235902 Z M67.8983211,111.705503 L64.6562016,114.909475 L67.9137231,111.722318 L67.8983211,111.705503 Z M45.3288009,95.5672336 L48.5499177,98.7915245 L51.7710345,95.5679342 L48.5499177,92.3436433 L45.3288009,95.5672336 Z M51.7724346,102.015115 L54.9935514,105.239405 L58.2146682,102.015815 L54.9935514,98.7915245 L51.7724346,102.015115 Z" id="Shape" fill="#FFFFFF" fill-rule="nonzero"></path>
            <path d="M227.885867,278.119352 L231.106984,281.343643 L234.328101,278.120053 L231.106984,274.895762 L227.885867,278.119352 Z M221.442934,271.671471 L224.66405,274.895062 L227.885167,271.671471 L224.66405,268.447881 L221.442934,271.671471 Z M215,265.22359 L218.221117,268.447881 L221.442234,265.224291 L218.221117,262 L215,265.22359 Z M256.898321,300.705503 L253.656202,303.909475 L256.913723,300.722318 L256.898321,300.705503 Z M234.328801,284.567234 L237.549918,287.791524 L240.771035,284.567934 L237.549918,281.343643 L234.328801,284.567234 Z M240.772435,291.015115 L243.993551,294.239405 L247.214668,291.015815 L243.993551,287.791524 L240.772435,291.015115 Z" id="Shape-Copy-3" fill="#FFFFFF" fill-rule="nonzero"></path>
            <path d="M269.885867,320.119352 L273.106984,323.343643 L276.328101,320.120053 L273.106984,316.895762 L269.885867,320.119352 Z M263.442934,313.671471 L266.66405,316.895062 L269.885167,313.671471 L266.66405,310.447881 L263.442934,313.671471 Z M257,307.22359 L260.221117,310.447881 L263.442234,307.224291 L260.221117,304 L257,307.22359 Z M298.898321,342.705503 L295.656202,345.909475 L298.913723,342.722318 L298.898321,342.705503 Z M276.328801,326.567234 L279.549918,329.791524 L282.771035,326.567934 L279.549918,323.343643 L276.328801,326.567234 Z M282.772435,333.015115 L285.993551,336.239405 L289.214668,333.015815 L285.993551,329.791524 L282.772435,333.015115 Z" id="Shape-Copy-5" fill="#FFFFFF" fill-rule="nonzero"></path>
            <path d="M85.8858673,41.1193525 L89.1069841,44.3436433 L92.3281008,41.1200531 L89.1069841,37.8957622 L85.8858673,41.1193525 Z M79.4429337,34.6714714 L82.6640504,37.8950616 L85.8851672,34.6714714 L82.6640504,31.4478811 L79.4429337,34.6714714 Z M73,28.2235902 L76.2211168,31.4478811 L79.4422336,28.2242909 L76.2211168,25 L73,28.2235902 Z M114.898321,63.7055033 L111.656202,66.9094753 L114.913723,63.7223183 L114.898321,63.7055033 Z M92.3288009,47.5672336 L95.5499177,50.7915245 L98.7710345,47.5679342 L95.5499177,44.3436433 L92.3288009,47.5672336 Z M98.7724346,54.0151147 L101.993551,57.2394053 L105.214668,54.0158153 L101.993551,50.7915245 L98.7724346,54.0151147 Z" id="Shape-Copy" fill="#FFFFFF" fill-rule="nonzero"></path>
            <path d="M274.885867,230.119352 L278.106984,233.343643 L281.328101,230.120053 L278.106984,226.895762 L274.885867,230.119352 Z M268.442934,223.671471 L271.66405,226.895062 L274.885167,223.671471 L271.66405,220.447881 L268.442934,223.671471 Z M262,217.22359 L265.221117,220.447881 L268.442234,217.224291 L265.221117,214 L262,217.22359 Z M303.898321,252.705503 L300.656202,255.909475 L303.913723,252.722318 L303.898321,252.705503 Z M281.328801,236.567234 L284.549918,239.791524 L287.771035,236.567934 L284.549918,233.343643 L281.328801,236.567234 Z M287.772435,243.015115 L290.993551,246.239405 L294.214668,243.015815 L290.993551,239.791524 L287.772435,243.015115 Z" id="Shape-Copy-4" fill="#FFFFFF" fill-rule="nonzero"></path>
            <path d="M316.885867,272.119352 L320.106984,275.343643 L323.328101,272.120053 L320.106984,268.895762 L316.885867,272.119352 Z M310.442934,265.671471 L313.66405,268.895062 L316.885167,265.671471 L313.66405,262.447881 L310.442934,265.671471 Z M304,259.22359 L307.221117,262.447881 L310.442234,259.224291 L307.221117,256 L304,259.22359 Z M345.898321,294.705503 L342.656202,297.909475 L345.913723,294.722318 L345.898321,294.705503 Z M323.328801,278.567234 L326.549918,281.791524 L329.771035,278.567934 L326.549918,275.343643 L323.328801,278.567234 Z M329.772435,285.015115 L332.993551,288.239405 L336.214668,285.015815 L332.993551,281.791524 L329.772435,285.015115 Z" id="Shape-Copy-6" fill="#FFFFFF" fill-rule="nonzero"></path>
            <path d="M74.4476943,124.66475 L77.6711912,127.886567 L80.894688,124.66545 L77.6711912,121.443633 L74.4476943,124.66475 Z M80.8953886,131.107684 L84.1188854,134.328801 L87.3423823,131.107684 L84.1188854,127.886567 L80.8953886,131.107684 Z M68,118.221117 L71.2234969,121.442933 L74.4469937,118.221817 L71.2234969,115 L68,118.221117 Z M87.3430829,137.550618 L90.5665797,140.772434 L93.7900766,137.551318 L90.5665797,134.329501 L87.3430829,137.550618 Z M109.892147,153.640799 L106.721196,156.914423 L109.908962,153.657602 L109.892147,153.640799 Z M93.7914778,143.993551 L97.0149746,147.215368 L100.238471,143.994251 L97.0149746,140.772434 L93.7914778,143.993551 Z" id="Shape" fill="#FFFFFF" fill-rule="nonzero"></path>
            <path d="M121.447694,76.66475 L124.671191,79.886567 L127.894688,76.66545 L124.671191,73.443633 L121.447694,76.66475 Z M127.895389,83.107684 L131.118885,86.328801 L134.342382,83.107684 L131.118885,79.886567 L127.895389,83.107684 Z M115,70.221117 L118.223497,73.442933 L121.446994,70.221817 L118.223497,67 L115,70.221117 Z M134.343083,89.550618 L137.56658,92.772434 L140.790077,89.551318 L137.56658,86.329501 L134.343083,89.550618 Z M156.892147,105.640799 L153.721196,108.914423 L156.908962,105.657602 L156.892147,105.640799 Z M140.791478,95.993551 L144.014975,99.215368 L147.238471,95.994251 L144.014975,92.772434 L140.791478,95.993551 Z" id="Shape-Copy-2" fill="#FFFFFF" fill-rule="nonzero"></path>
            <polygon id="Rectangle" fill="#FFFFFF" fill-rule="nonzero" transform="translate(86.577638, 87.177002) rotate(-45.000000) translate(-86.577638, -87.177002) " points="33.2289955 84.8796916 139.926281 84.8796916 139.926281 89.4743116 33.2289955 89.4743116"></polygon>
            <polygon id="Rectangle" fill="#FFFFFF" fill-rule="nonzero" transform="translate(275.146793, 275.746649) rotate(-45.000000) translate(-275.146793, -275.746649) " points="221.797797 273.449339 328.495789 273.449339 328.495789 278.043959 221.797797 278.043959"></polygon>
        </g>
    </g>
</svg>