<?xml version="1.0" encoding="UTF-8"?>
<svg width="350px" height="350px" viewBox="0 0 350 350" version="1.1" xmlns="http://www.w3.org/2000/svg" xmlns:xlink="http://www.w3.org/1999/xlink">
    <!-- Generator: Sketch 53.2 (72643) - https://sketchapp.com -->
    <title>2.4-everywhere-geo-specific</title>
    <desc>Created with Sketch.</desc>
    <g id="2.4-everywhere-geo-specific" stroke="none" stroke-width="1" fill="none" fill-rule="evenodd">
        <g id="LOCATION-Copy" transform="translate(67.000000, 64.000000)" fill-rule="nonzero">
            <path d="M107.135568,0 C63.595152,0 28.173312,35.427456 28.173312,78.97392 C28.173312,98.963856 35.542368,117.784368 49.006944,132.396768 L48.993984,132.396768 L49.289904,132.70176 C50.004432,133.469856 50.734944,134.22456 51.484032,134.968896 L107.124768,192.44736 L162.2916,135.461808 C177.65136,120.467088 186.110784,100.406304 186.110784,78.97392 C186.110784,35.427456 150.682032,0 107.135568,0 Z M159.941952,133.122528 L107.124768,187.68024 L56.8188,135.712368 L56.964384,135.712368 L54.080784,132.873264 C39.512016,118.530432 31.488912,99.388944 31.488912,78.97392 C31.488912,37.25568 65.423808,3.315168 107.135568,3.315168 C148.853808,3.315168 182.795184,37.255248 182.795184,78.97392 C182.795184,99.505584 174.690864,118.7244 159.941952,133.122528 Z" id="Shape" fill="#4A555F"></path>
            <path d="M107.135568,34.823088 C85.631472,34.823088 68.135904,52.318656 68.135904,73.824048 C68.135904,95.329008 85.631472,112.825008 107.135568,112.825008 C128.647008,112.825008 146.148192,95.32944 146.148192,73.824048 C146.148192,52.318656 128.647008,34.823088 107.135568,34.823088 Z M107.135568,109.509408 C87.458832,109.509408 71.451072,93.500784 71.451072,73.824048 C71.451072,54.147312 87.4584,38.138688 107.135568,38.138688 C126.818784,38.138688 142.832592,54.147312 142.832592,73.824048 C142.832592,93.500784 126.818784,109.509408 107.135568,109.509408 Z" id="Shape" fill="#4A555F"></path>
            <path d="M107.136,7.183296 C67.556592,7.183296 35.356176,39.388464 35.356176,78.97392 C35.356176,98.344368 42.969312,116.507376 56.794608,130.116672 L66.395376,139.580064 L65.945232,139.580064 L107.1252,182.119104 L157.273488,130.32144 C171.237024,116.690544 178.926624,98.45496 178.926624,78.973488 C178.926624,39.388464 146.721888,7.183296 107.136,7.183296 Z M107.136,116.692704 C83.498256,116.692704 64.267344,97.46136 64.267344,73.823616 C64.267344,50.185872 83.498256,30.955392 107.136,30.955392 C130.780224,30.955392 150.015456,50.185872 150.015456,73.823616 C150.015456,97.46136 130.780224,116.692704 107.136,116.692704 Z" id="Shape" fill="#71CCE0"></path>
            <path d="M177.50448,113.727456 L177.109632,112.603824 L174.911184,112.603824 L174.449376,113.504112 C170.722944,120.753936 165.850848,127.344528 159.937632,133.124688 L107.123472,187.677216 L56.81016,135.71496 L56.96136,135.71496 L54.07344,132.874992 C48.291984,127.1916 43.49808,120.674448 39.824352,113.50584 L38.041488,110.025648 L0.168048,221.184 L214.104384,221.184 L177.50448,113.727456 Z M38.698128,118.375344 C41.596848,123.4116 45.046368,128.107008 48.9996,132.399792 L48.985776,132.399792 L49.320576,132.745824 C50.007888,133.484112 50.711616,134.210304 51.430464,134.9244 L107.123904,192.443472 L162.288576,135.463968 C167.51016,130.36032 171.969264,124.61904 175.579488,118.358064 L209.472048,217.869264 L4.799952,217.869264 L38.698128,118.375344 Z" id="Shape" fill="#4A555F"></path>
            <path d="M167.35248,135.827712 C166.600368,136.624752 165.832704,137.407104 165.052512,138.172176 L107.1252,198.008064 L48.704112,137.658096 C48.102768,137.059344 47.510496,136.451088 46.927728,135.83376 L24.278832,204.740352 L190.003968,204.740352 L167.35248,135.827712 Z" id="Path" fill="#FFD452"></path>
            <rect id="Rectangle" fill="#4A555F" transform="translate(54.608202, 177.216143) rotate(-76.243076) translate(-54.608202, -177.216143) " x="20.5906132" y="175.558366" width="68.0351775" height="3.31555446"></rect>
            <rect id="Rectangle" fill="#4A555F" transform="translate(79.851623, 187.771111) rotate(-81.715139) translate(-79.851623, -187.771111) " x="57.1139859" y="186.113251" width="45.4752751" height="3.31572097"></rect>
            <rect id="Rectangle" fill="#4A555F" transform="translate(159.869539, 177.222444) rotate(-13.768054) translate(-159.869539, -177.222444) " x="158.211682" y="143.203453" width="3.31571221" height="68.0379826"></rect>
            <rect id="Rectangle" fill="#4A555F" transform="translate(134.621030, 187.756553) rotate(-8.291357) translate(-134.621030, -187.756553) " x="132.963309" y="165.020837" width="3.31544067" height="45.4714307"></rect>
            <rect id="Rectangle" fill="#4A555F" x="105.481008" y="190.064016" width="3.3156" height="20.20248"></rect>
            <rect id="Rectangle" fill="#4A555F" x="26.451792" y="178.767648" width="71.34264" height="3.3156"></rect>
            <rect id="Rectangle" fill="#4A555F" x="116.095248" y="178.767648" width="71.343936" height="3.3156"></rect>
            <rect id="Rectangle" fill="#4A555F" x="146.399616" y="147.833856" width="31.25952" height="3.3156"></rect>
            <rect id="Rectangle" fill="#4A555F" x="36.619344" y="147.833856" width="31.141584" height="3.3156"></rect>
            <path d="M111.271536,185.808384 L107.12736,190.086912 L102.983184,185.808384 C97.123536,186.694848 92.844576,189.412992 92.844576,192.650832 C92.844576,196.582464 99.244224,199.781856 107.127792,199.781424 C115.01136,199.781424 121.410576,196.5816 121.410576,192.649968 C121.410576,189.41256 117.131616,186.694848 111.271536,185.808384 Z" id="Path" fill="#F58E6F"></path>
            <path d="M171.074592,124.143408 L170.689248,123.00336 L168.65064,123.00336 L168.154272,123.679008 C165.69792,127.017936 162.945648,130.184928 159.942384,133.12296 L107.124768,187.68024 L56.8188,135.712368 L56.962224,135.712368 L54.080784,132.873264 C51.186384,130.022496 48.511872,126.929376 46.131984,123.681168 L45.62352,123.002928 L43.582752,123.002928 L14.355792,211.923648 L199.92744,211.923648 L171.074592,124.143408 Z M45.379872,128.15496 C46.536768,129.607776 47.749824,131.02344 49.011696,132.396768 L48.994416,132.396768 L49.389264,132.804144 C50.072256,133.53768 50.7708,134.258256 51.481008,134.964576 L107.124768,192.44736 L162.292896,135.460944 C164.639088,133.16616 166.852656,130.71672 168.902064,128.15064 L195.346944,208.608048 L18.935856,208.608048 L45.379872,128.15496 Z" id="Shape" fill="#4A555F"></path>
        </g>
    </g>
</svg>