<?xml version="1.0" encoding="UTF-8"?>
<svg width="400px" height="400px" viewBox="0 0 400 400" version="1.1" xmlns="http://www.w3.org/2000/svg" xmlns:xlink="http://www.w3.org/1999/xlink">
    <!-- Generator: Sketch 53.2 (72643) - https://sketchapp.com -->
    <title>1.0-everywhere-hero-main2</title>
    <desc>Created with Sketch.</desc>
    <defs>
        <filter x="-3.3%" y="-3.3%" width="106.6%" height="106.6%" filterUnits="objectBoundingBox" id="filter-1">
            <feOffset dx="0" dy="2" in="SourceAlpha" result="shadowOffsetOuter1"></feOffset>
            <feGaussianBlur stdDeviation="2" in="shadowOffsetOuter1" result="shadowBlurOuter1"></feGaussianBlur>
            <feColorMatrix values="0 0 0 0 0   0 0 0 0 0   0 0 0 0 0  0 0 0 0.5 0" type="matrix" in="shadowBlurOuter1" result="shadowMatrixOuter1"></feColorMatrix>
            <feMerge>
                <feMergeNode in="shadowMatrixOuter1"></feMergeNode>
                <feMergeNode in="SourceGraphic"></feMergeNode>
            </feMerge>
        </filter>
    </defs>
    <g id="1.0-everywhere-hero-main2" stroke="none" stroke-width="1" fill="none" fill-rule="evenodd">
        <g id="Group-3" filter="url(#filter-1)" transform="translate(19.000000, 19.000000)" fill-rule="nonzero">
            <g id="Group" transform="translate(0.100586, 0.697898)" fill="#3F2E61">
                <path d="M219.186595,89.8065198 L92.1092511,216.884568 L144.644947,269.419559 L271.722291,142.342216 L219.186595,89.8065198 Z M98.5894189,216.884568 L219.186595,96.2873918 L265.241419,142.341512 L144.644243,262.938687 L98.5894189,216.884568 Z" id="Shape"></path>
                <path d="M249.402388,69.0819383 L221.062203,97.4222695 L264.107395,140.466608 L292.446872,112.126277 L249.402388,69.0819383 Z M227.578173,97.4215615 L249.402388,75.5977789 L285.932318,112.126277 L264.108103,133.950059 L227.578173,97.4215615 Z" id="Shape"></path>
                <path d="M292.151376,77.2868191 L284.241992,69.3774351 C279.597054,64.7317954 273.421359,62.1737445 266.851739,62.1737445 C260.282119,62.1737445 254.106424,64.7317954 249.461487,69.3774351 L246.392247,72.4466749 L289.082136,115.136564 L292.151376,112.067324 C296.797015,107.422387 299.355066,101.245989 299.355066,94.6770715 C299.355066,88.1074518 296.796313,81.9317565 292.151376,77.2868191 Z M289.080731,108.672974 L252.854433,72.4466749 C256.616726,68.7665363 261.578348,66.7428462 266.851037,66.7428462 C272.198859,66.7428462 277.228592,68.8255196 281.010548,72.6074747 L288.919932,80.5168587 C292.701887,84.2988138 294.785262,89.327845 294.785262,94.6763694 C294.785262,99.949058 292.761572,104.909978 289.080731,108.672974 Z" id="Shape"></path>
                <path d="M208.411521,200.337621 L195.732159,213.016983 L222.199228,239.484053 L234.87859,226.804691 L208.411521,200.337621 Z M202.051925,213.016297 L208.410834,206.657388 L228.558137,226.804004 L222.198542,233.1636 L202.051925,213.016297 Z" id="Shape"></path>
                <path d="M137.81094,125.690749 L125.690749,137.810727 L150.989941,163.110132 L163.110132,150.990154 L137.81094,125.690749 Z M131.731152,137.810727 L137.810284,131.731702 L157.068416,150.989497 L150.989285,157.068522 L131.731152,137.810727 Z" id="Shape"></path>
                <path d="M267.405713,188.823965 L188.823965,267.406097 L282.947767,361.528811 L361.528811,282.947383 L267.405713,188.823965 Z M195.312806,267.406097 L267.405713,195.313484 L355.040675,282.947383 L282.947767,355.039996 L195.312806,267.406097 Z" id="Shape"></path>
                <path d="M78.580659,0 L0,78.5817484 L94.1227766,172.704846 L172.704846,94.1230975 L78.580659,0 Z M6.48816252,78.5817484 L78.580659,6.48884111 L166.215978,94.1230975 L94.1227766,166.216005 L6.48816252,78.5817484 Z" id="Shape"></path>
                <path d="M115.710912,236.989427 L101.703965,250.996981 L103.363329,252.380391 C104.782521,253.563658 106.170783,254.832441 107.489298,256.150956 C108.809026,257.470684 110.077202,258.858339 111.259863,260.276925 L112.643273,261.935683 L126.65022,247.928129 L115.710912,236.989427 Z M110.194468,253.446383 C109.309708,252.561622 108.394874,251.697913 107.460793,250.865481 L115.580018,242.746256 L120.893392,248.059629 L112.774167,256.178855 C111.941734,255.245375 111.078627,254.331143 110.194468,253.446383 Z" id="Shape"></path>
                <path d="M108.485104,253.032959 C123.169061,267.717498 131.255683,287.247071 131.255683,308.024553 C131.255683,319.158003 128.932877,329.93946 124.351709,340.070758 L122.979271,343.10696 L18.4218502,238.54106 L21.4592021,237.168501 C31.5782789,232.593305 42.367287,230.273128 53.5273774,230.273128 C74.2909951,230.273128 93.8089374,238.356211 108.485104,253.032959 Z" id="Shape"></path>
                <path d="M62.2482082,278.246696 L43.1762115,304.822171 L45.9516188,305.617084 C46.1292242,305.668088 46.3074732,305.72469 46.5931864,305.827319 C46.7392604,305.872725 46.8853345,305.922485 47.0314086,305.984685 L47.1620387,306.035066 C47.2913818,306.080472 47.4207249,306.13583 47.5513551,306.20114 L47.736039,306.283244 C47.8550862,306.329893 47.9696288,306.385873 48.0841715,306.449939 L48.2064361,306.514005 C48.3537972,306.584912 48.5011583,306.661418 48.7373221,306.801368 C49.0320442,306.959977 49.3177573,307.146576 49.6304974,307.367386 C49.8119639,307.490541 49.9863519,307.619917 50.2398901,307.824554 C50.3145359,307.879912 50.3911122,307.937758 50.4664015,308.010531 L50.632424,308.154213 C50.7997335,308.284832 50.9586775,308.435978 51.118265,308.590233 C51.3550723,308.818506 51.5828707,309.061085 51.8035905,309.311129 C51.8756623,309.391988 51.9445166,309.466006 52.0062924,309.546866 L52.1066781,309.669399 C52.1645929,309.734087 52.2102813,309.800019 52.2952231,309.914466 C52.4303577,310.088004 52.5564833,310.260919 52.6735999,310.42637 C52.8621449,310.700049 53.0358894,310.98057 53.1851809,311.243675 L53.3782304,311.601324 C53.4535196,311.740652 53.5255914,311.872515 53.5828628,312.016819 L53.6639435,312.194088 C53.7122059,312.287388 53.7540333,312.386907 53.8235311,312.554225 C53.8634279,312.643792 53.8975333,312.733982 53.9187688,312.789962 L54.0397464,313.120865 C54.0629123,313.182442 54.0847913,313.24402 54.1060267,313.30622 L54.1111747,313.833674 L55.9316308,315.666079 L82.5145374,297.834026 L62.2482082,278.246696 Z M57.0834924,309.716671 L56.8666336,309.316104 C56.6497747,308.934198 56.4136109,308.553535 56.1459157,308.166031 C55.9818237,307.932782 55.8177317,307.708862 55.6632921,307.510445 C55.5603324,307.37174 55.4560857,307.234278 55.3376821,307.095573 C55.2244264,306.951269 55.1034488,306.812564 54.9786101,306.673236 C54.6948275,306.353529 54.3930269,306.0332 54.0802868,305.73091 C53.840262,305.498282 53.5983067,305.276229 53.3499165,305.075324 C53.1626585,304.901165 52.983766,304.758727 52.8653624,304.672891 C52.5931627,304.45146 52.32225,304.249311 52.0732162,304.08075 C51.6137586,303.755445 51.1896933,303.48923 50.8666573,303.31818 C50.6227715,303.170767 50.3795292,303.041391 50.1356434,302.921968 C50.0146658,302.855414 49.8943316,302.792592 49.7727105,302.734125 L62.8325045,284.535715 L76.0094151,297.272363 L57.1819477,309.902026 C57.1497727,309.840449 57.1175978,309.778871 57.0834924,309.716671 Z" id="Shape"></path>
                <path d="M54.482764,305.710468 C51.0025247,302.230998 46.3754873,300.314537 41.4536002,300.314537 C36.5309887,300.314537 31.9039513,302.230998 28.4244365,305.710468 C24.9441972,309.189937 23.0273128,313.815951 23.0273128,318.73675 C23.0273128,323.657548 24.9441972,328.283563 28.4244365,331.762308 C31.9039513,335.241777 36.5309887,337.158238 41.4536002,337.158238 C46.3747628,337.158238 51.0018003,335.241777 54.482764,331.762308 C61.6670963,324.581013 61.6670963,312.893935 54.482764,305.710468 Z M51.1495873,328.430593 C48.5589679,331.019915 45.1163999,332.446034 41.4536002,332.446034 C37.7908006,332.446034 34.3475081,331.019915 31.7576132,328.430593 C29.1677182,325.84127 27.7412838,322.399464 27.7412838,318.737474 C27.7412838,315.075484 29.1677182,311.632954 31.7576132,309.043631 C34.3475081,306.454309 37.791525,305.02819 41.4536002,305.02819 C45.1156754,305.02819 48.5589679,306.454309 51.1495873,309.043631 C56.4952753,314.388861 56.4952753,323.085362 51.1495873,328.430593 Z" id="Shape"></path>
            </g>
            <polygon id="Rectangle" fill="#EC8D53" transform="translate(256.621736, 105.914744) rotate(-45.000000) translate(-256.621736, -105.914744) " points="246.592585 85.5157473 266.650887 85.5157473 266.650887 126.313741 246.592585 126.313741"></polygon>
            <path d="M283.745172,86.315124 L276.018243,78.5891682 C273.307473,75.878499 269.70363,74.385299 265.869317,74.385299 C263.928153,74.385299 262.046665,74.7680301 260.30922,75.4978256 L286.831143,102.018074 C289.011008,96.8031913 287.982809,90.5532881 283.745172,86.315124 Z" id="Path" fill="#F58E70"></path>
            <polygon id="Rectangle" fill="#EC8D53" transform="translate(275.147401, 275.747676) rotate(-45.000000) translate(-275.147401, -275.747676) " points="229.457164 219.051393 320.837637 219.051393 320.837637 332.443958 229.457164 332.443958"></polygon>
            <path d="M257.541322,215.312453 L260.762485,218.536744 L263.983649,215.313154 L260.762485,212.088863 L257.541322,215.312453 Z M251.098295,208.864572 L254.319458,212.088863 L257.540622,208.865273 L254.319458,205.640982 L251.098295,208.864572 Z M270.428076,228.208215 L273.649239,231.432506 L276.870403,228.208916 L273.649239,224.984625 L270.428076,228.208215 Z M263.984349,221.760334 L267.205512,224.983925 L270.426676,221.760334 L267.205512,218.536744 L263.984349,221.760334 Z M299.44025,250.794366 L296.198083,253.998339 L299.455652,250.811181 L299.44025,250.794366 Z M292.97832,244.328969 L289.757156,247.552559 L292.97832,250.77685 L296.199483,247.55326 L292.97832,244.328969 Z M276.871103,234.656096 L280.092266,237.880387 L283.313429,234.656797 L280.092266,231.432506 L276.871103,234.656096 Z M283.31413,241.104678 L286.535293,244.328969 L289.756456,241.105379 L286.535293,237.881088 L283.31413,241.104678 Z" id="Shape" fill="#FFFFFF"></path>
            <path d="M224.387733,274.246225 L227.611277,277.467342 L230.83482,274.246225 L227.611277,271.025108 L224.387733,274.246225 Z M211.491457,261.359658 L214.715001,264.581475 L217.938544,261.360358 L214.715001,258.138541 L211.491457,261.359658 Z M205.043669,254.916724 L208.267213,258.138541 L211.490756,254.917424 L208.267213,251.695607 L205.043669,254.916724 Z M217.939945,267.803291 L221.163489,271.025108 L224.387032,267.803992 L221.163489,264.582175 L217.939945,267.803291 Z M243.731797,293.575026 L246.95534,296.796843 L250.178884,293.575726 L246.95534,290.353909 L243.731797,293.575026 Z M253.384211,296.779341 L250.213214,300.052964 L253.401026,296.796143 L253.384211,296.779341 Z M230.835521,280.689159 L234.059064,283.910976 L237.282608,280.689859 L234.059064,277.468042 L230.835521,280.689159 Z M237.283308,287.132092 L240.506852,290.353909 L243.730396,287.132792 L240.506852,283.910976 L237.283308,287.132092 Z" id="Shape" fill="#FFFFFF"></path>
            <path d="M316.496984,274.246225 L319.720528,277.467342 L322.944071,274.246225 L319.720528,271.025108 L316.496984,274.246225 Z M310.048496,267.803291 L313.272039,271.025108 L316.495583,267.803992 L313.272039,264.582175 L310.048496,267.803291 Z M303.600708,261.360358 L306.824252,264.582175 L310.047795,261.361058 L306.824252,258.139241 L303.600708,261.360358 Z M297.15292,254.916724 L300.376464,258.138541 L303.600008,254.917424 L300.376464,251.695607 L297.15292,254.916724 Z M335.840347,293.575026 L339.063891,296.796843 L342.287434,293.575726 L339.063891,290.353909 L335.840347,293.575026 Z M322.944772,280.689159 L326.168315,283.910976 L329.391859,280.689859 L326.168315,277.468042 L322.944772,280.689159 Z M345.493462,296.779341 L342.322465,300.052964 L345.510277,296.796143 L345.493462,296.779341 Z M329.39256,287.132092 L332.616103,290.353909 L335.839647,287.132792 L332.616103,283.910976 L329.39256,287.132092 Z" id="Shape" fill="#FFFFFF"></path>
            <path d="M270.428076,320.31714 L273.649239,323.541384 L276.870403,320.31784 L273.649239,317.093596 L270.428076,320.31714 Z M263.985049,313.870052 L267.206212,317.093596 L270.427376,313.870052 L267.206212,310.646509 L263.985049,313.870052 Z M257.541322,307.421564 L260.762485,310.645808 L263.983649,307.422265 L260.762485,304.198021 L257.541322,307.421564 Z M251.098295,300.973776 L254.319458,304.198021 L257.540622,300.974477 L254.319458,297.750233 L251.098295,300.973776 Z M276.871103,326.765628 L280.092266,329.989872 L283.313429,326.766328 L280.092266,323.542084 L276.871103,326.765628 Z M299.44025,342.903663 L296.198083,346.10759 L299.455652,342.920478 L299.44025,342.903663 Z M292.97902,336.43766 L289.757857,339.661203 L292.97902,342.885447 L296.200183,339.661904 L292.97902,336.43766 Z M283.31413,333.213416 L286.535293,336.43766 L289.756456,333.214116 L286.535293,329.989872 L283.31413,333.213416 Z" id="Shape" fill="#FFFFFF"></path>
            <polygon id="Rectangle" fill="#EC8D53" transform="translate(86.577389, 87.176828) rotate(-45.000000) translate(-86.577389, -87.176828) " points="40.886799 30.4805452 132.267978 30.4805452 132.267978 143.87311 40.886799 143.87311"></polygon>
            <path d="M62.2743301,20.0381338 L65.497827,23.2599506 L68.7213238,20.0388339 L65.497827,16.817017 L62.2743301,20.0381338 Z M81.6181136,39.3676348 L84.8416104,42.5887516 L88.0651073,39.3676348 L84.8416104,36.146518 L81.6181136,39.3676348 Z M75.1704193,32.9240011 L78.3939162,36.1458179 L81.617413,32.9247011 L78.3939162,29.7028843 L75.1704193,32.9240011 Z M68.7220244,26.4810674 L71.9455213,29.7028843 L75.1690181,26.4817675 L71.9455213,23.2599506 L68.7220244,26.4810674 Z M94.5135022,52.253502 L97.736999,55.4753189 L100.960496,52.2542021 L97.736999,49.0323853 L94.5135022,52.253502 Z M110.614872,61.9007503 L107.443921,65.1743738 L110.631687,61.9175525 L110.614872,61.9007503 Z M88.0658079,45.8098683 L91.2893047,49.0316852 L94.5128016,45.8105684 L91.2893047,42.5887516 L88.0658079,45.8098683 Z M100.961897,58.6964357 L104.185394,61.9182525 L107.408891,58.6971358 L104.185394,55.4753189 L100.961897,58.6964357 Z" id="Shape" fill="#FFFFFF"></path>
            <path d="M35.5492056,85.4388762 L38.7703224,88.663167 L41.9914391,85.4395768 L38.7703224,82.2152859 L35.5492056,85.4388762 Z M29.106272,78.9909951 L32.3273887,82.2145853 L35.5485055,78.9909951 L32.3273887,75.7674048 L29.106272,78.9909951 Z M22.6633383,72.5431139 L25.8844551,75.7674048 L29.1055719,72.5438146 L25.8844551,69.3195237 L22.6633383,72.5431139 Z M16.2197046,66.0952328 L19.4408214,69.3195237 L22.6619381,66.0959334 L19.4408214,62.8716426 L16.2197046,66.0952328 Z M64.5616594,108.025027 L61.3195399,111.228999 L64.5770614,108.041842 L64.5616594,108.025027 Z M58.0998234,101.55963 L54.8787066,104.78322 L58.0998234,108.007511 L61.3209401,104.783921 L58.0998234,101.55963 Z M41.9921392,91.8867573 L45.213256,95.1110482 L48.4343728,91.8874579 L45.213256,88.663167 L41.9921392,91.8867573 Z M48.4357729,98.3346384 L51.6568897,101.558929 L54.8780065,98.335339 L51.6568897,95.1110482 L48.4357729,98.3346384 Z" id="Shape" fill="#FFFFFF"></path>
            <path d="M156.670911,108.025073 L153.428791,111.228999 L156.686313,108.041888 L156.670911,108.025073 Z M114.771889,72.5429738 L117.993006,75.767218 L121.214123,72.5436744 L117.993006,69.3194303 L114.771889,72.5429738 Z M121.215523,78.9907615 L124.43664,82.2143051 L127.657757,78.9907615 L124.43664,75.767218 L121.215523,78.9907615 Z M108.328956,66.0951861 L111.550072,69.3194303 L114.771189,66.0958867 L111.550072,62.8716426 L108.328956,66.0951861 Z M127.658457,85.4385492 L130.879573,88.6627934 L134.10069,85.4392498 L130.879573,82.2150057 L127.658457,85.4385492 Z M150.209074,101.559069 L146.987958,104.782613 L150.209074,108.006857 L153.430191,104.783314 L150.209074,101.559069 Z M140.544324,98.3348252 L143.765441,101.559069 L146.986558,98.3355258 L143.765441,95.1112817 L140.544324,98.3348252 Z M134.10139,91.8863369 L137.322507,95.1105811 L140.543624,91.8870375 L137.322507,88.6627934 L134.10139,91.8863369 Z" id="Shape" fill="#FFFFFF"></path>
            <path d="M75.1704193,125.033952 L78.3939162,128.255769 L81.617413,125.034652 L78.3939162,121.812835 L75.1704193,125.033952 Z M81.6181136,131.476886 L84.8416104,134.698003 L88.0651073,131.476886 L84.8416104,128.255769 L81.6181136,131.476886 Z M68.722725,118.590319 L71.9462219,121.812135 L75.1697187,118.591019 L71.9462219,115.369202 L68.722725,118.590319 Z M62.2743301,112.147385 L65.497827,115.369202 L68.7213238,112.148085 L65.497827,108.926268 L62.2743301,112.147385 Z M100.961897,150.805687 L104.185394,154.027504 L107.408891,150.806387 L104.185394,147.58457 L100.961897,150.805687 Z M88.0658079,137.91982 L91.2893047,141.141636 L94.5128016,137.92052 L91.2893047,134.698703 L88.0658079,137.91982 Z M110.614872,154.010001 L107.443921,157.283625 L110.631687,154.026804 L110.614872,154.010001 Z M94.5142028,144.362753 L97.7376996,147.58457 L100.961196,144.363453 L97.7376996,141.141636 L94.5142028,144.362753 Z" id="Shape" fill="#FFFFFF"></path>
            <polygon id="Rectangle" fill="#3F2E61" transform="translate(86.577638, 87.177002) rotate(-45.000000) translate(-86.577638, -87.177002) " points="33.2289957 84.8796918 139.926281 84.8796918 139.926281 89.4743118 33.2289957 89.4743118"></polygon>
            <polygon id="Rectangle" fill="#3F2E61" transform="translate(275.146793, 275.746649) rotate(-45.000000) translate(-275.146793, -275.746649) " points="221.797797 273.449339 328.495789 273.449339 328.495789 278.043959 221.797797 278.043959"></polygon>
        </g>
    </g>
</svg>