<?xml version="1.0" encoding="UTF-8"?>
<svg width="200px" height="200px" viewBox="0 0 200 200" version="1.1" xmlns="http://www.w3.org/2000/svg" xmlns:xlink="http://www.w3.org/1999/xlink">
    <!-- Generator: Sketch 53.2 (72643) - https://sketchapp.com -->
    <title>4.9.1-home-integrate-python</title>
    <desc>Created with Sketch.</desc>
    <defs>
        <path d="M55.5575471,0 C27.1448432,0 28.9188841,12.2940165 28.9188841,12.2940165 L28.9504382,25.0309936 L56.0641656,25.0309936 L56.0641656,28.8549728 L18.1812907,28.8549728 C18.1812907,28.8549728 0,26.7975889 0,55.4020024 C0,84.0072906 15.8690772,82.9928101 15.8690772,82.9928101 L25.3396863,82.9928101 L25.3396863,69.718858 C25.3396863,69.718858 24.8291236,53.8850918 40.9554543,53.8850918 L67.8474265,53.8850918 C67.8474265,53.8850918 82.9561377,54.1286546 82.9561377,39.3154907 L82.9561377,14.8227839 C82.9561377,14.8227839 85.2508212,0 55.5575471,0 Z M40.6070445,8.56536349 C41.9010572,8.56420188 43.142405,9.07658822 44.0574105,9.98955767 C44.972416,10.9025271 45.485945,12.1411128 45.4847808,13.4322461 C45.485945,14.7233793 44.972416,15.961965 44.0574105,16.8749344 C43.142405,17.7879039 41.9010572,18.3002902 40.6070445,18.2991286 C39.3130319,18.3002902 38.0716841,17.7879039 37.1566786,16.8749344 C36.2416731,15.961965 35.7281441,14.7233793 35.7293083,13.4322461 C35.7281441,12.1411128 36.2416731,10.9025271 37.1566786,9.98955767 C38.0716841,9.07658822 39.3130319,8.56420188 40.6070445,8.56536349 L40.6070445,8.56536349 Z" id="path-1"></path>
        <filter x="-14.5%" y="-10.8%" width="128.9%" height="128.9%" filterUnits="objectBoundingBox" id="filter-2">
            <feOffset dx="0" dy="3" in="SourceAlpha" result="shadowOffsetOuter1"></feOffset>
            <feGaussianBlur stdDeviation="3.5" in="shadowOffsetOuter1" result="shadowBlurOuter1"></feGaussianBlur>
            <feColorMatrix values="0 0 0 0 0   0 0 0 0 0   0 0 0 0 0  0 0 0 0.5 0" type="matrix" in="shadowBlurOuter1"></feColorMatrix>
        </filter>
        <path d="M56.6428775,112.2 C85.0555884,112.2 83.281547,99.9059835 83.281547,99.9059835 L83.2499929,87.1694437 L56.1358207,87.1694437 L56.1358207,83.3454646 L94.0187049,83.3454646 C94.0187049,83.3454646 112.2,85.4028484 112.2,56.7975604 C112.2,28.1927096 96.3309189,29.20719 96.3309189,29.20719 L86.8603074,29.20719 L86.8603074,42.4807049 C86.8603074,42.4807049 87.3708703,58.314471 71.2445357,58.314471 L44.3525569,58.314471 C44.3525569,58.314471 29.2438419,58.0709083 29.2438419,72.8845094 L29.2438419,97.3776534 C29.2438419,97.3776534 26.9495961,112.2 56.6424392,112.2 L56.6428775,112.2 Z M71.5933837,103.635511 C70.2993708,103.636673 69.0580226,103.124286 68.1430169,102.211317 C67.2280112,101.298347 66.7144821,100.059762 66.7156463,98.7686285 C66.7143656,97.4774195 67.2278434,96.2387214 68.1428617,95.3256573 C69.0578801,94.4125932 70.2992948,93.9001469 71.5933837,93.9013087 C72.8873967,93.9001471 74.1287448,94.4125334 75.0437505,95.3255029 C75.9587562,96.2384723 76.4722854,97.477058 76.4711212,98.7681912 C76.4722854,100.059325 75.9587562,101.29791 75.0437505,102.21088 C74.1287448,103.123849 72.8873967,103.636235 71.5933837,103.635074 L71.5933837,103.635511 Z" id="path-3"></path>
        <filter x="-14.5%" y="-10.8%" width="128.9%" height="128.9%" filterUnits="objectBoundingBox" id="filter-4">
            <feOffset dx="0" dy="3" in="SourceAlpha" result="shadowOffsetOuter1"></feOffset>
            <feGaussianBlur stdDeviation="3.5" in="shadowOffsetOuter1" result="shadowBlurOuter1"></feGaussianBlur>
            <feColorMatrix values="0 0 0 0 0   0 0 0 0 0   0 0 0 0 0  0 0 0 0.5 0" type="matrix" in="shadowBlurOuter1"></feColorMatrix>
        </filter>
    </defs>
    <g id="4.9.1-home-integrate-python" stroke="none" stroke-width="1" fill="none" fill-rule="evenodd">
        <g id="Group-15" transform="translate(6.000000, 6.000000)">
            <circle id="Oval-Copy-16" fill="#366F9F" cx="93.5" cy="93.5" r="93.5"></circle>
            <g id="python-5-copy" transform="translate(35.700000, 37.400000)" fill-rule="nonzero">
                <g id="Shape">
                    <use fill="black" fill-opacity="1" filter="url(#filter-2)" xlink:href="#path-1"></use>
                    <use fill="#FFFFFF" xlink:href="#path-1"></use>
                </g>
                <g id="Shape">
                    <use fill="black" fill-opacity="1" filter="url(#filter-4)" xlink:href="#path-3"></use>
                    <use fill="#FFFFFF" xlink:href="#path-3"></use>
                </g>
            </g>
        </g>
    </g>
</svg>