<?xml version="1.0" encoding="UTF-8"?>
<svg width="200px" height="200px" viewBox="0 0 200 200" version="1.1" xmlns="http://www.w3.org/2000/svg" xmlns:xlink="http://www.w3.org/1999/xlink">
    <!-- Generator: Sketch 53.2 (72643) - https://sketchapp.com -->
    <title>4.6-home-integrate-typescript</title>
    <desc>Created with Sketch.</desc>
    <defs>
        <path d="M49.3,73.147927 L49.3,78.2028192 L64.9848829,78.2028192 L64.9848829,124.1 L76.1151171,124.1 L76.1151171,78.2028192 L91.8,78.2028192 L91.8,73.2409619 C91.8,70.4499171 91.8,68.1860697 91.6793471,68.1240464 C91.6793471,68.0310116 82.1176011,68 70.5047551,68 L49.3904897,68.0930348 L49.3904897,73.1789386 L49.3,73.147927 Z M120.418557,68.6163531 C123.505943,69.3659059 125.866885,70.8025488 127.985679,73.0824387 C129.105613,74.3316934 130.77038,76.5178891 130.891454,77.0800538 C130.891454,77.267442 125.655006,80.921512 122.476815,82.9515509 C122.355741,83.045245 121.871445,82.5143118 121.387149,81.7022962 C119.813188,79.391175 118.208958,78.3917712 115.696673,78.204383 C112.064455,77.9545321 109.642976,79.9221082 109.642976,83.2014018 C109.642976,84.2008056 109.824587,84.7629702 110.187809,85.5749858 C111.005058,87.292711 112.518482,88.3233462 117.210098,90.4470792 C125.866885,94.2885374 129.620178,96.8182782 131.890314,100.441117 C134.463136,104.501195 135.038237,110.872394 133.312933,115.650793 C131.37575,120.866431 126.653866,124.395576 119.903993,125.551137 C117.785199,125.925913 112.942241,125.86345 110.672104,125.457443 C105.829147,124.520502 101.198068,122.021992 98.3528301,118.805161 C97.2328961,117.555906 95.0838335,114.21415 95.2049074,113.995531 L96.3551099,113.245978 L100.895383,110.528849 L104.315722,108.467578 L105.102703,109.560676 C106.101563,111.184707 108.341431,113.370903 109.642976,114.120456 C113.577879,116.212958 118.844596,115.931875 121.447686,113.495829 C122.56762,112.433962 123.051916,111.309633 123.051916,109.748065 C123.051916,108.311422 122.840036,107.655563 122.143861,106.562465 C121.17527,105.188285 119.238086,104.063956 113.789759,101.565446 C107.524182,98.8170858 104.860555,97.0681292 102.378539,94.3822315 C100.95592,92.7582004 99.6543751,90.2284596 99.0490053,88.135958 C98.594978,86.3245386 98.4436356,81.8896844 98.8673944,80.1094964 C100.168939,73.8632229 104.739481,69.4908314 111.277474,68.2415767 C113.396268,67.8043375 118.390569,67.9917257 120.479094,68.5538903 L120.418557,68.6163531 L120.418557,68.6163531 Z" id="path-1"></path>
        <filter x="-14.1%" y="-15.6%" width="128.2%" height="141.5%" filterUnits="objectBoundingBox" id="filter-2">
            <feOffset dx="0" dy="3" in="SourceAlpha" result="shadowOffsetOuter1"></feOffset>
            <feGaussianBlur stdDeviation="3.5" in="shadowOffsetOuter1" result="shadowBlurOuter1"></feGaussianBlur>
            <feColorMatrix values="0 0 0 0 0   0 0 0 0 0   0 0 0 0 0  0 0 0 0.5 0" type="matrix" in="shadowBlurOuter1"></feColorMatrix>
        </filter>
    </defs>
    <g id="4.6-home-integrate-typescript" stroke="none" stroke-width="1" fill="none" fill-rule="evenodd">
        <g id="Group-8" transform="translate(6.000000, 6.000000)">
            <circle id="Oval-Copy-11" fill="#007ACC" cx="93.5" cy="93.5" r="93.5"></circle>
            <g id="Shape-Copy-5" fill-rule="nonzero">
                <use fill="black" fill-opacity="1" filter="url(#filter-2)" xlink:href="#path-1"></use>
                <use fill="#FFFFFF" xlink:href="#path-1"></use>
            </g>
        </g>
    </g>
</svg>