<?xml version="1.0" encoding="UTF-8"?>
<svg width="200px" height="200px" viewBox="0 0 200 200" version="1.1" xmlns="http://www.w3.org/2000/svg" xmlns:xlink="http://www.w3.org/1999/xlink">
    <!-- Generator: Sketch 53.2 (72643) - https://sketchapp.com -->
    <title>4.7-home-integrate-c</title>
    <desc>Created with Sketch.</desc>
    <defs>
        <path d="M35.983898,0 C47.3225742,0 57.8061651,5.21787035 64.6,14.096386 L51.457442,21.6500984 C47.5099904,17.3619155 41.8992191,14.875 35.983898,14.875 C24.4109517,14.875 14.9932909,24.2183594 14.9932909,35.7 C14.9932909,47.1816406 24.4109517,56.525 35.983898,56.525 C41.8992191,56.525 47.5099904,54.0380874 51.457442,49.7499016 L64.6,57.303614 C57.8061651,66.1821297 47.3225742,71.4 35.983898,71.4 C16.1412162,71.4 0,55.3861343 0,35.7 C0,16.0138687 16.1412162,0 35.983898,0 Z" id="path-1"></path>
        <filter x="-18.6%" y="-12.6%" width="137.2%" height="133.6%" filterUnits="objectBoundingBox" id="filter-2">
            <feOffset dx="0" dy="3" in="SourceAlpha" result="shadowOffsetOuter1"></feOffset>
            <feGaussianBlur stdDeviation="3.5" in="shadowOffsetOuter1" result="shadowBlurOuter1"></feGaussianBlur>
            <feColorMatrix values="0 0 0 0 0   0 0 0 0 0   0 0 0 0 0  0 0 0 0.5 0" type="matrix" in="shadowBlurOuter1"></feColorMatrix>
        </filter>
        <path d="M63.24,23.8 L68.68,23.8 L68.68,29.24 L74.12,29.24 L74.12,23.8 L79.56,23.8 L79.56,29.24 L85,29.24 L85,34.68 L79.56,34.68 L79.56,40.12 L85,40.12 L85,45.56 L79.56,45.56 L79.56,51 L74.12,51 L74.12,45.56 L68.68,45.56 L68.68,51 L63.24,51 L63.24,45.56 L57.8,45.56 L57.8,40.12 L63.24,40.12 L63.24,34.68 L57.8,34.68 L57.8,29.24 L63.24,29.24 L63.24,23.8 Z M68.68,34.68 L68.68,40.12 L74.12,40.12 L74.12,34.68 L68.68,34.68 Z" id="path-3"></path>
        <filter x="-44.1%" y="-33.1%" width="188.2%" height="188.2%" filterUnits="objectBoundingBox" id="filter-4">
            <feOffset dx="0" dy="3" in="SourceAlpha" result="shadowOffsetOuter1"></feOffset>
            <feGaussianBlur stdDeviation="3.5" in="shadowOffsetOuter1" result="shadowBlurOuter1"></feGaussianBlur>
            <feColorMatrix values="0 0 0 0 0   0 0 0 0 0   0 0 0 0 0  0 0 0 0.5 0" type="matrix" in="shadowBlurOuter1"></feColorMatrix>
        </filter>
    </defs>
    <g id="4.7-home-integrate-c" stroke="none" stroke-width="1" fill="none" fill-rule="evenodd">
        <g id="Group-11" transform="translate(6.000000, 6.000000)">
            <circle id="Oval-Copy-13" fill="#2F7BF6" cx="93.5" cy="93.5" r="93.5"></circle>
            <g id="Group-10-Copy-2" transform="translate(56.100000, 59.500000)" fill-rule="nonzero">
                <g id="Group-10">
                    <g id="Path">
                        <use fill="black" fill-opacity="1" filter="url(#filter-2)" xlink:href="#path-1"></use>
                        <use fill="#FFFFFF" xlink:href="#path-1"></use>
                    </g>
                    <g id="Combined-Shape">
                        <use fill="black" fill-opacity="1" filter="url(#filter-4)" xlink:href="#path-3"></use>
                        <use fill="#FFFFFF" xlink:href="#path-3"></use>
                    </g>
                </g>
            </g>
        </g>
    </g>
</svg>