<?xml version="1.0" encoding="UTF-8"?>
<svg width="200px" height="200px" viewBox="0 0 200 200" version="1.1" xmlns="http://www.w3.org/2000/svg" xmlns:xlink="http://www.w3.org/1999/xlink">
    <!-- Generator: Sketch 53.2 (72643) - https://sketchapp.com -->
    <title>4.4-home-integrate-java</title>
    <desc>Created with Sketch.</desc>
    <defs>
        <filter x="-20.3%" y="-14.9%" width="141.0%" height="130.3%" filterUnits="objectBoundingBox" id="filter-1">
            <feOffset dx="0" dy="3" in="SourceAlpha" result="shadowOffsetOuter1"></feOffset>
            <feGaussianBlur stdDeviation="3.5" in="shadowOffsetOuter1" result="shadowBlurOuter1"></feGaussianBlur>
            <feColorMatrix values="0 0 0 0 0   0 0 0 0 0   0 0 0 0 0  0 0 0 0.5 0" type="matrix" in="shadowBlurOuter1" result="shadowMatrixOuter1"></feColorMatrix>
            <feMerge>
                <feMergeNode in="shadowMatrixOuter1"></feMergeNode>
                <feMergeNode in="SourceGraphic"></feMergeNode>
            </feMerge>
        </filter>
    </defs>
    <g id="4.4-home-integrate-java" stroke="none" stroke-width="1" fill="none" fill-rule="evenodd">
        <g id="Group-6" transform="translate(6.000000, 6.000000)">
            <circle id="Oval-Copy-9" fill="#E76F00" cx="93.5" cy="93.5" r="93.5"></circle>
            <g id="java-14-copy" filter="url(#filter-1)" transform="translate(40.800000, 15.300000)" fill="#FFFFFF" fill-rule="nonzero">
                <path d="M32.4050718,104.633638 C32.4050718,104.633638 27.339794,107.583489 36.0100236,108.581634 C46.5140081,109.78156 51.8820972,109.609758 63.457627,107.41553 C63.457627,107.41553 66.5010921,109.326495 70.7508134,110.981871 C44.8022988,122.119048 12.0234502,110.336555 32.4050718,104.633638 M29.2341879,90.1 C29.2341879,90.1 23.5529251,94.3116571 32.2296791,95.2102566 C43.450202,96.3694424 52.3111759,96.4643757 67.6444065,93.5076065 C67.6444065,93.5076065 69.7652373,95.6607095 73.1,96.8383438 C41.7262114,106.025737 6.78162844,97.5628349 29.2341879,90.1" id="Shape"></path>
                <path d="M55.3689185,64.0178738 C61.9857374,71.4825604 53.6305141,78.2 53.6305141,78.2 C53.6305141,78.2 70.4311177,69.7012324 62.715335,59.0584107 C55.5091188,49.1340359 49.9825261,44.2022054 79.9,27.2 C79.9,27.2 32.93965,38.6928152 55.3689185,64.0174846" id="Path"></path>
                <path d="M90.183983,114.557738 C90.183983,114.557738 93.9668369,117.638203 86.0176925,120.021573 C70.9025438,124.547526 23.1062022,125.914154 9.8284508,120.201876 C5.05563328,118.150019 14.0063606,115.301919 16.8217149,114.703971 C19.7579098,114.074633 21.4361227,114.192155 21.4361227,114.192155 C16.1280432,110.496133 -12.8729331,121.449068 6.70518532,124.585424 C60.0969903,133.143505 104.033016,120.732067 90.183983,114.557738 M34.2316735,74.3773238 C34.2316735,74.3773238 9.91985589,80.0850082 25.6225533,82.1571542 C32.2525209,83.0345528 45.4694646,82.8362576 57.7808783,81.816454 C67.8424099,80.978102 77.9453836,79.1942113 77.9453836,79.1942113 C77.9453836,79.1942113 74.3976266,80.6959717 71.8309252,82.4281831 C47.1422553,88.8459785 -0.551836657,85.8604499 13.1786798,79.2956558 C24.7906121,73.7479855 34.2320608,74.3773238 34.2320608,74.3773238 M77.8450703,98.4720975 C102.942739,85.5821477 91.3385532,73.1952091 83.2391326,74.864257 C81.2537831,75.2723316 80.3687804,75.6260472 80.3687804,75.6260472 C80.3687804,75.6260472 81.1058308,74.485276 82.5133142,73.9914521 C98.5363168,68.423493 110.85935,90.4128164 77.3407931,99.1217249 C77.3407931,99.1221074 77.7292647,98.7791104 77.8450703,98.4720975" id="Shape"></path>
                <path d="M62.7843058,0.000385794732 C62.7843058,0.000385794732 76.4869453,13.8504167 49.7880471,35.1466717 C28.3786036,52.230434 44.9060021,61.9709794 49.779265,73.1 C37.2820546,61.7074816 28.1105608,51.6783617 34.2637092,42.344444 C43.2943087,28.6421725 68.3127846,21.999173 62.7843058,0" id="Path"></path>
                <path d="M37.3847751,133.905137 C61.1856788,135.353098 97.7344291,133.101887 98.6,122.4 C98.6,122.4 96.9362059,126.457343 78.9298822,129.679072 C58.6153695,133.311699 33.5604977,132.887711 18.7,130.559411 C18.7003827,130.559411 21.7421258,132.952073 37.3851578,133.905137" id="Path"></path>
            </g>
        </g>
    </g>
</svg>