<?xml version="1.0" encoding="UTF-8"?>
<svg width="187px" height="187px" viewBox="0 0 187 187" version="1.1" xmlns="http://www.w3.org/2000/svg" xmlns:xlink="http://www.w3.org/1999/xlink">
    <!-- Generator: Sketch 57.1 (83088) - https://sketch.com -->
    <title>4.7-home-integrate-net</title>
    <desc>Created with Sketch.</desc>
    <g id="Page-1" stroke="none" stroke-width="1" fill="none" fill-rule="evenodd">
        <g id="4.7-home-integrate-net">
            <circle id="Oval-Copy-13" fill="#632294" fill-rule="nonzero" cx="93.5" cy="93.5" r="93.5"></circle>
            <g id="Group-5" transform="translate(26.000000, 66.000000)" fill="#FFFFFF">
                <polygon id="Fill-2" points="42.3637783 0 42.3637783 39.2569553 19.030445 0 13 0 13 50 18.6368722 50 18.6368722 10.7094376 41.969555 50 48 50 48 0"></polygon>
                <polygon id="Fill-3" points="58 0 58 50 93 50 93 44.0996613 64.2067308 44.0996613 64.2067308 27.08067 90.1531593 27.08067 90.1531593 21.2145973 64.2067308 21.2145973 64.2067308 5.90033871 91.9127747 5.90033871 91.9127747 0"></polygon>
                <polygon id="Fill-4" points="98 0 98 5.90033871 112.547285 5.90033871 112.547285 50 118.391287 50 118.391287 5.90033871 133 5.90033871 133 0"></polygon>
                <circle id="Oval" cx="3.5" cy="46.5" r="3.5"></circle>
            </g>
        </g>
    </g>
</svg>