<?xml version="1.0" encoding="UTF-8"?>
<svg width="200px" height="200px" viewBox="0 0 200 200" version="1.1" xmlns="http://www.w3.org/2000/svg" xmlns:xlink="http://www.w3.org/1999/xlink">
    <!-- Generator: Sketch 53.2 (72643) - https://sketchapp.com -->
    <title>3.2-everywhere-application</title>
    <desc>Created with Sketch.</desc>
    <g id="3.2-everywhere-application" stroke="none" stroke-width="1" fill="none" fill-rule="evenodd">
        <g id="AI-KNOWLEDGE-Copy-2" transform="translate(20.000000, 19.000000)" fill-rule="nonzero">
            <polygon id="Path" fill="#FFD452" points="38.548125 143.506164 38.548125 159.68965 45.818955 151.598064 53.08947 159.68965 53.08947 143.506164"></polygon>
            <polygon id="Path" fill="#F58E6F" points="48.018285 154.053411 45.81486 151.597435 43.611435 154.053411 38.55033 159.68965 53.087265 159.68965"></polygon>
            <path d="M45.81486,149.808557 L35.87346,160.882759 L55.7676,160.882759 L45.81486,149.808557 Z M45.81486,153.386628 L50.407875,158.496226 L41.22783,158.496226 L45.81486,153.386628 Z" id="Shape" fill="#4A555F"></path>
            <path d="M28.680435,132.257254 L158.81103,132.257254 L158.81103,126.621016 L28.680435,126.621016 C24.1038,126.621016 19.963125,128.473053 16.960545,131.468237 C13.96584,134.463422 12.109545,138.593898 12.109545,143.159575 C12.109545,152.2903 19.52748,159.68965 28.680435,159.68965 L38.55222,159.68965 L38.55222,154.053411 L28.680435,154.053411 C22.65921,154.053411 17.7597,149.165969 17.7597,143.159575 C17.7597,140.252687 18.897795,137.515166 20.964195,135.446 C23.022405,133.392546 25.766685,132.257254 28.680435,132.257254 Z" id="Path" fill="#F58E6F"></path>
            <rect id="Rectangle" fill="#F58E6F" x="53.089155" y="154.053411" width="105.721875" height="5.63623836"></rect>
            <path d="M160.00614,133.450363 L160.00614,125.427906 L28.679175,125.427906 C23.93496,125.427906 19.47267,127.273345 16.11162,130.625802 C12.75813,133.979831 10.911915,138.43113 10.911915,143.15926 C10.911915,152.931945 18.88236,160.882759 28.679175,160.882759 L39.7467,160.882759 L39.7467,144.698644 L51.89121,144.698644 L51.89121,160.882759 L160.00614,160.882759 L160.005825,152.859988 L154.35504,152.859988 L154.35504,133.450363 L160.00614,133.450363 L160.00614,133.450363 Z M157.613715,155.246206 L157.613715,158.496226 L54.28395,158.496226 L54.28395,142.312112 L37.35459,142.312112 L37.35459,158.496226 L28.679175,158.496226 C20.20158,158.496226 13.30434,151.615975 13.30434,143.15926 C13.30434,139.067434 14.902965,135.214731 17.804745,132.311929 C20.71251,129.41164 24.57441,127.814439 28.679175,127.814439 L157.613715,127.814439 L157.613715,131.063831 L151.96293,131.063831 L151.96293,155.246206 L157.613715,155.246206 Z" id="Shape" fill="#4A555F"></path>
            <path d="M28.679175,131.063831 C25.44507,131.063831 22.403745,132.320413 20.11527,134.603566 C17.82333,136.89803 16.561755,139.936578 16.561755,143.15926 C16.561755,149.823954 21.997395,155.24652 28.679175,155.24652 L39.7467,155.24652 L39.7467,144.698644 L51.89121,144.698644 L51.89121,155.24652 L154.35504,155.24652 L154.35504,131.064145 L28.679175,131.064145 L28.679175,131.063831 Z M151.96293,152.859988 L54.28395,152.859988 L54.28395,142.312112 L37.35459,142.312112 L37.35459,152.859988 L28.679175,152.859988 C23.316615,152.859988 18.95418,148.508298 18.95418,143.15926 C18.95418,140.571939 19.968165,138.131988 21.808395,136.289378 C23.6439,134.458708 26.08389,133.450363 28.679175,133.450363 L151.96293,133.450363 L151.96293,152.859988 Z" id="Shape" fill="#4A555F"></path>
            <path d="M28.678545,136.283094 C26.84178,136.283094 25.11495,136.996697 23.821245,138.287529 C22.51368,139.596273 21.793905,141.326705 21.793905,143.159575 C21.793905,146.94629 24.882165,150.027572 28.678545,150.027572 L34.51455,150.027572 L34.51455,139.48001 L57.123045,139.48001 L57.123045,150.027572 L149.123835,150.027572 L149.123835,136.283408 L28.678545,136.283408 L28.678545,136.283094 Z" id="Path" fill="#DFDFDF"></path>
            <rect id="Rectangle" fill="#4A555F" x="34.2846" y="142.312741" width="36.697185" height="2.38653233"></rect>
            <rect id="Rectangle" fill="#4A555F" x="79.659405" y="145.943286" width="52.868655" height="2.38653233"></rect>
            <rect id="Rectangle" fill="#4A555F" x="116.38494" y="138.093025" width="18.76644" height="2.38653233"></rect>
            <path d="M143.063235,98.399603 C140.060655,95.4044185 135.91998,93.5523815 131.34303,93.5523815 L1.21275,93.5523815 L1.21275,99.1886198 L131.343345,99.1886198 C134.257095,99.1886198 137.00169,100.323912 139.0599,102.377052 C141.1263,104.446218 142.264395,107.184053 142.264395,110.090626 C142.264395,116.097021 137.364885,120.984463 131.343345,120.984463 L1.21275,120.984463 L1.21275,126.620701 L131.343345,126.620701 C140.496615,126.620701 147.91455,119.221351 147.91455,110.090626 C147.91455,105.525578 146.05794,101.394788 143.063235,98.399603 Z" id="Path" fill="#71CCE0"></path>
            <path d="M143.90586,97.5559112 C140.547015,94.2047108 136.084725,92.3592724 131.340825,92.3592724 L0.014175,92.3592724 L0.014175,100.382043 L5.664015,100.382043 L5.664015,119.791668 L0.014175,119.791668 L0.014175,127.814439 L131.340825,127.814439 C141.13764,127.814439 149.108085,119.863625 149.108085,110.090941 C149.108085,105.36281 147.260925,100.910882 143.90586,97.5559112 Z M131.340825,125.427906 L2.406285,125.427906 L2.406285,122.177886 L8.056125,122.177886 L8.056125,97.9955108 L2.406285,97.9955108 L2.406285,94.7454905 L131.340825,94.7454905 C135.44559,94.7454905 139.30749,96.3426918 142.21305,99.2417237 C145.117035,102.145469 146.71566,105.998485 146.71566,110.090626 C146.71566,118.547969 139.818105,125.427906 131.340825,125.427906 Z" id="Shape" fill="#4A555F"></path>
            <path d="M139.902525,101.533675 C137.61594,99.2520931 134.57493,97.9955108 131.340825,97.9955108 L5.664015,97.9955108 L5.664015,122.177886 L131.340825,122.177886 C138.02166,122.177886 143.457615,116.755634 143.457615,110.090626 C143.4573,106.867315 142.195725,103.829082 139.902525,101.533675 Z M131.340825,119.791668 L8.056125,119.791668 L8.056125,100.382043 L131.34051,100.382043 C133.93611,100.382043 136.375785,101.390388 138.209085,103.219487 C140.05089,105.063354 141.064875,107.503305 141.064875,110.090941 C141.06519,115.439664 136.70244,119.791668 131.340825,119.791668 Z" id="Shape" fill="#4A555F"></path>
            <path d="M136.203795,105.223609 C134.904735,103.927748 133.177905,103.214145 131.34051,103.214145 L10.89585,103.214774 L10.89585,116.958938 L131.340195,116.958938 C135.137205,116.958938 138.225465,113.87797 138.225465,110.090626 C138.225465,108.258385 137.50506,106.527953 136.203795,105.223609 Z" id="Path" fill="#DFDFDF"></path>
            <rect id="Rectangle" fill="#4A555F" x="98.643195" y="105.024705" width="25.848585" height="2.38653233"></rect>
            <rect id="Rectangle" fill="#4A555F" x="48.048525" y="112.874966" width="52.868655" height="2.38653233"></rect>
            <rect id="Rectangle" fill="#4A555F" x="15.64605" y="107.619882" width="14.898555" height="2.38653233"></rect>
            <path d="M128.66427,32.9790802 C127.907325,32.5935272 127.124865,32.2510228 126.327285,31.9556522 C126.641025,30.4800556 126.799785,28.9705228 126.799785,27.4547056 C126.799785,15.3655603 116.940915,5.53034483 104.82192,5.53034483 C104.783805,5.53034483 104.74569,5.53065905 104.708205,5.53097328 C102.409965,1.88534483 98.302995,-0.253893103 93.910005,0.0241952586 C87.70419,0.416975431 82.84311,5.73867543 82.84311,12.1391069 L82.84311,41.8819927 C82.84311,49.8155237 89.312895,56.2696875 97.26633,56.2696875 L126.2709,56.2696875 C128.785545,56.2696875 131.13198,55.4787853 132.878655,54.0424668 C134.820315,52.4452655 136.03275,50.2485246 136.48194,47.5132034 C137.43828,41.6915728 134.296785,35.8510888 128.66427,32.9790802 Z M134.121015,47.127022 C133.768215,49.2753724 132.838335,50.9828664 131.357205,52.2007991 C130.037985,53.2858151 128.23209,53.8831552 126.271215,53.8831552 L97.266645,53.8831552 C90.63243,53.8831552 85.235535,48.4992388 85.235535,41.8819927 L85.235535,12.1391069 C85.235535,6.99431509 89.11224,2.71898147 94.061835,2.4057 C94.27068,2.39218836 94.47858,2.38558966 94.68396,2.38558966 C98.14392,2.38558966 101.325105,4.27533362 102.98547,7.31702328 L103.343625,7.97249483 L104.09049,7.93855862 C104.328,7.92756078 104.57496,7.91656293 104.82192,7.91656293 C115.621695,7.91656293 124.407675,16.6812168 124.407675,27.4543914 C124.407675,29.136119 124.18812,30.8084198 123.754995,32.4241603 L123.45921,33.5280297 L124.552575,33.8705341 C125.58924,34.1951276 126.607005,34.6105319 127.57563,35.1038638 C132.27858,37.5017082 134.909145,42.3332185 134.121015,47.127022 Z" id="Shape" fill="#4A555F"></path>
            <path d="M126.2835,37.6267694 C125.455995,37.2053948 124.587225,36.8506358 123.7005,36.5728616 L120.01311,35.416831 L121.011975,31.6920181 C121.38084,30.3135168 121.568265,28.8878819 121.568265,27.4543914 C121.568265,18.2429108 114.055515,10.7489793 104.82129,10.7489793 C104.61717,10.7489793 104.41305,10.7590345 104.217435,10.768147 L101.698065,10.8812677 L100.4913,8.67132931 C99.328635,6.5415181 97.10442,5.21832026 94.68522,5.21832026 C94.539375,5.21832026 94.391955,5.22303362 94.241385,5.23277457 C90.783315,5.45116034 88.074945,8.48468017 88.074945,12.1391069 L88.074945,41.8816784 C88.074945,46.9372306 92.198295,51.0501103 97.266645,51.0501103 L126.271845,51.0501103 C127.574685,51.0501103 128.738295,50.6824681 129.55005,50.015056 C130.4982,49.2351517 131.076855,48.1403948 131.318775,46.6695116 C131.90625,43.0952121 129.88206,39.4612099 126.2835,37.6267694 Z" id="Path" fill="#FFD452"></path>
            <polygon id="Path" fill="#4A555F" points="95.87781 30.0985875 95.87781 1.19530862 93.4857 1.19530862 93.4857 32.4851198 105.08904 32.4851198 105.08904 42.7461091 107.48115 42.7461091 107.48115 30.0985875"></polygon>
            <rect id="Rectangle" fill="#4A555F" x="112.980105" y="8.94376164" width="2.392425" height="15.4532289"></rect>
            <rect id="Rectangle" fill="#4A555F" x="118.23588" y="45.7497776" width="2.392425" height="9.32680086"></rect>
            <path d="M106.285095,41.553 C103.959765,41.553 102.067245,43.4402302 102.067245,45.7604612 C102.067245,48.0800638 103.959765,49.967294 106.285095,49.967294 C108.610425,49.967294 110.502,48.0800638 110.502,45.7604612 C110.502,43.4402302 108.610425,41.553 106.285095,41.553 Z M106.285095,47.5807616 C105.278985,47.5807616 104.45967,46.7637789 104.45967,45.760147 C104.45967,44.7562009 105.278985,43.9392181 106.285095,43.9392181 C107.291205,43.9392181 108.109575,44.7562009 108.109575,45.760147 C108.10989,46.7640931 107.291205,47.5807616 106.285095,47.5807616 Z" id="Shape" fill="#4A555F"></path>
            <path d="M114.180255,23.2035672 C111.854925,23.2035672 109.96335,25.0911116 109.96335,27.4110284 C109.96335,29.730631 111.854925,31.6178612 114.180255,31.6178612 C116.505585,31.6178612 118.398105,29.730631 118.398105,27.4110284 C118.39779,25.0911116 116.505585,23.2035672 114.180255,23.2035672 Z M114.180255,29.2316431 C113.174145,29.2316431 112.355775,28.4146603 112.355775,27.4113427 C112.355775,26.4073966 113.174145,25.5904138 114.180255,25.5904138 C115.186365,25.5904138 116.00568,26.4073966 116.00568,27.4113427 C116.005365,28.4146603 115.186365,29.2316431 114.180255,29.2316431 Z" id="Shape" fill="#4A555F"></path>
            <path d="M104.032215,14.5759151 C101.70657,14.5759151 99.81531,16.4631453 99.81531,18.7833763 C99.81531,21.1029789 101.706885,22.9902091 104.032215,22.9902091 C106.357545,22.9902091 108.24975,21.1029789 108.24975,18.7833763 C108.250065,16.4631453 106.357545,14.5759151 104.032215,14.5759151 Z M104.032215,20.6036767 C103.02579,20.6036767 102.20742,19.786694 102.20742,18.7830621 C102.20742,17.7791159 103.02579,16.9621332 104.032215,16.9621332 C105.038325,16.9621332 105.85764,17.7791159 105.85764,18.7830621 C105.85764,19.786694 105.038325,20.6036767 104.032215,20.6036767 Z" id="Shape" fill="#4A555F"></path>
            <path d="M94.681755,36.3381362 C92.356425,36.3381362 90.463905,38.2253664 90.463905,40.544969 C90.463905,42.8648858 92.356425,44.7524302 94.681755,44.7524302 C97.007085,44.7524302 98.89866,42.8652 98.89866,40.544969 C98.89866,38.2253664 97.007085,36.3381362 94.681755,36.3381362 Z M94.681755,42.3658978 C93.675645,42.3658978 92.85633,41.5489151 92.85633,40.544969 C92.85633,39.5413371 93.675645,38.7243543 94.681755,38.7243543 C95.687865,38.7243543 96.506235,39.5413371 96.506235,40.544969 C96.506235,41.5492293 95.687865,42.3658978 94.681755,42.3658978 Z" id="Shape" fill="#4A555F"></path>
            <path d="M119.43603,38.5292211 C117.1107,38.5292211 115.21818,40.4164513 115.21818,42.7360539 C115.21818,45.0556565 117.110385,46.9428866 119.43603,46.9428866 C121.76136,46.9428866 123.653565,45.0556565 123.653565,42.7360539 C123.653565,40.4164513 121.76136,38.5292211 119.43603,38.5292211 Z M119.43603,44.5566685 C118.42992,44.5566685 117.610605,43.7396858 117.610605,42.7360539 C117.610605,41.732422 118.42992,40.9154392 119.43603,40.9154392 C120.44214,40.9154392 121.261455,41.732422 121.261455,42.7360539 C121.261455,43.7396858 120.44214,44.5566685 119.43603,44.5566685 Z" id="Shape" fill="#4A555F"></path>
            <rect id="Rectangle" fill="#4A555F" x="102.83616" y="6.74136466" width="2.392425" height="9.02765948"></rect>
            <rect id="Rectangle" fill="#4A555F" x="93.4857" y="43.5593211" width="2.392425" height="11.2652496"></rect>
            <path d="M65.40912,0.0241952586 C60.99912,-0.252950431 56.908215,1.88597328 54.61029,5.5312875 C54.572805,5.53097328 54.53469,5.53065905 54.496575,5.53065905 C42.37758,5.53065905 32.51871,15.3658746 32.51871,27.4550198 C32.51871,28.9708371 32.67747,30.4803698 32.991525,31.9559664 C32.193945,32.2513371 31.411485,32.5941556 30.65454,32.9800228 C25.02171,35.851403 21.880215,41.6922013 22.836555,47.5138319 C23.28606,50.249153 24.498495,52.445894 26.43984,54.0437237 C28.186515,55.479728 30.53295,56.2703159 33.047595,56.2703159 L62.05248,56.2703159 C70.005915,56.2703159 76.4757,49.8158379 76.4757,41.8826211 L76.4757,12.1391069 C76.47507,5.73836121 71.614305,0.416975431 65.40912,0.0241952586 Z M74.08296,41.8819927 C74.08296,48.499553 68.686065,53.8831552 62.052165,53.8831552 L33.04728,53.8831552 C31.086405,53.8831552 29.28051,53.2858151 27.96129,52.2011134 C26.48016,50.9828664 25.55028,49.2750582 25.19748,47.127022 C24.40935,42.3332185 27.039915,37.5017082 31.742865,35.1044922 C32.71149,34.6108461 33.72957,34.1954418 34.76592,33.8708483 L35.859285,33.528344 L35.5635,32.4244746 C35.130375,30.8087341 34.91082,29.1364332 34.91082,27.4547056 C34.91082,16.681531 43.6968,7.91687716 54.496575,7.91687716 C54.743535,7.91687716 54.991125,7.927875 55.22706,7.93887284 L55.974555,7.97280905 L56.33271,7.3173375 C58.091985,4.09465474 61.51761,2.1584056 65.25729,2.40632845 C70.206255,2.71929569 74.08296,6.99462931 74.08296,12.1397353 L74.08296,41.8819927 L74.08296,41.8819927 Z" id="Shape" fill="#4A555F"></path>
            <path d="M65.074905,5.23277457 C64.92654,5.22334784 64.779435,5.21863448 64.633275,5.21863448 C62.214075,5.21863448 59.988915,6.54183233 58.82562,8.67227198 L57.619485,10.8809534 L55.10043,10.768147 C54.904815,10.7590345 54.700695,10.7489793 54.496575,10.7489793 C45.26235,10.7489793 37.75023,18.2429108 37.75023,27.4543914 C37.75023,28.8900815 37.937025,30.3157164 38.30589,31.6920181 L39.30381,35.4158884 L35.617995,36.5722332 C34.729695,36.85095 33.860295,37.2057091 33.034995,37.6261409 C29.435805,39.4608957 27.411615,43.0948978 27.99972,46.6698259 C28.24101,48.1407091 28.819665,49.2351517 29.768445,50.0156845 C30.57957,50.6827823 31.74381,51.0504246 33.04665,51.0504246 L62.051535,51.0504246 C67.119255,51.0504246 71.24229,46.9372306 71.24229,41.8819927 L71.24229,12.1394211 C71.24292,8.4849944 68.53455,5.45147457 65.074905,5.23277457 Z" id="Path" fill="#FFD452"></path>
            <polygon id="Path" fill="#4A555F" points="63.44037 1.19530862 63.44037 30.0985875 51.83703 30.0985875 51.83703 42.7461091 54.22914 42.7461091 54.22914 32.4851198 65.832795 32.4851198 65.832795 1.19530862"></polygon>
            <rect id="Rectangle" fill="#4A555F" x="43.945965" y="8.94376164" width="2.392425" height="15.4532289"></rect>
            <rect id="Rectangle" fill="#4A555F" x="38.69019" y="45.7497776" width="2.392425" height="9.32680086"></rect>
            <path d="M53.033085,41.553 C50.707755,41.553 48.81618,43.4402302 48.81618,45.7604612 C48.81618,48.0800638 50.707755,49.967294 53.033085,49.967294 C55.358415,49.967294 57.250935,48.0800638 57.250935,45.7604612 C57.250935,43.4402302 55.358415,41.553 53.033085,41.553 Z M53.033085,47.5807616 C52.026975,47.5807616 51.208605,46.7637789 51.208605,45.760147 C51.208605,44.7562009 52.026975,43.9392181 53.033085,43.9392181 C54.039195,43.9392181 54.85851,44.7562009 54.85851,45.760147 C54.85851,46.7640931 54.039195,47.5807616 53.033085,47.5807616 Z" id="Shape" fill="#4A555F"></path>
            <path d="M45.13824,23.2035672 C42.81291,23.2035672 40.920705,25.0911116 40.920705,27.4110284 C40.920705,29.730631 42.81291,31.6178612 45.13824,31.6178612 C47.46357,31.6178612 49.355145,29.730631 49.355145,27.4110284 C49.355145,25.0911116 47.46357,23.2035672 45.13824,23.2035672 Z M45.13824,29.2316431 C44.13213,29.2316431 43.312815,28.4146603 43.312815,27.4113427 C43.312815,26.4073966 44.13213,25.5904138 45.13824,25.5904138 C46.14435,25.5904138 46.96272,26.4073966 46.96272,27.4113427 C46.96272,28.4146603 46.14435,29.2316431 45.13824,29.2316431 Z" id="Shape" fill="#4A555F"></path>
            <path d="M55.285965,14.5759151 C52.960635,14.5759151 51.06843,16.4631453 51.06843,18.7833763 C51.06843,21.1029789 52.960635,22.9902091 55.285965,22.9902091 C57.611295,22.9902091 59.50287,21.1029789 59.50287,18.7833763 C59.50287,16.4631453 57.61161,14.5759151 55.285965,14.5759151 Z M55.285965,20.6036767 C54.279855,20.6036767 53.46054,19.786694 53.46054,18.7830621 C53.46054,17.7791159 54.279855,16.9621332 55.285965,16.9621332 C56.292075,16.9621332 57.110445,17.7791159 57.110445,18.7830621 C57.11076,19.786694 56.29239,20.6036767 55.285965,20.6036767 Z" id="Shape" fill="#4A555F"></path>
            <path d="M64.63674,36.3381362 C62.31141,36.3381362 60.419835,38.2253664 60.419835,40.544969 C60.419835,42.8648858 62.31141,44.7524302 64.63674,44.7524302 C66.96207,44.7524302 68.85459,42.8652 68.85459,40.544969 C68.854275,38.2253664 66.96207,36.3381362 64.63674,36.3381362 Z M64.63674,42.3658978 C63.63063,42.3658978 62.81226,41.5489151 62.81226,40.544969 C62.81226,39.5413371 63.63063,38.7243543 64.63674,38.7243543 C65.64285,38.7243543 66.462165,39.5413371 66.462165,40.544969 C66.46185,41.5492293 65.64285,42.3658978 64.63674,42.3658978 Z" id="Shape" fill="#4A555F"></path>
            <path d="M39.882465,38.5292211 C37.557135,38.5292211 35.66493,40.4164513 35.66493,42.7360539 C35.66493,45.0556565 37.557135,46.9428866 39.882465,46.9428866 C42.207795,46.9428866 44.1,45.0556565 44.1,42.7360539 C44.1,40.4164513 42.207795,38.5292211 39.882465,38.5292211 Z M39.882465,44.5566685 C38.876355,44.5566685 38.05704,43.7396858 38.05704,42.7360539 C38.05704,41.732422 38.876355,40.9154392 39.882465,40.9154392 C40.888575,40.9154392 41.70789,41.732422 41.70789,42.7360539 C41.70789,43.7396858 40.888575,44.5566685 39.882465,44.5566685 Z" id="Shape" fill="#4A555F"></path>
            <rect id="Rectangle" fill="#4A555F" x="54.08991" y="6.74136466" width="2.392425" height="9.02765948"></rect>
            <rect id="Rectangle" fill="#4A555F" x="63.44037" y="43.5593211" width="2.392425" height="11.2652496"></rect>
            <path d="M72.69444,77.4603349 C70.308315,75.0354672 66.02274,72.1452336 59.15889,72.1452336 C47.824245,72.1452336 45.64602,63.7246552 45.558765,63.3664397 L43.230915,63.9157034 C43.2558,64.0222254 45.879435,74.5317659 59.15889,74.5317659 C70.60347,74.5317659 73.89774,83.2829082 74.03067,83.6518073 L76.28607,82.856506 C76.24638,82.7446422 75.289095,80.0976181 72.69444,77.4603349 Z" id="Path" fill="#4A555F"></path>
            <path d="M116.555355,62.4476483 C116.53425,62.5350026 114.36012,71.2220431 102.95523,71.2220431 C89.777205,71.2220431 85.86648,81.8258509 85.82805,81.9330013 L88.08345,82.7286168 C88.11621,82.6371776 91.449225,73.6085754 102.95523,73.6085754 C116.234685,73.6085754 118.85895,63.0987207 118.883835,62.9921987 L116.555355,62.4476483 Z" id="Path" fill="#4A555F"></path>
            <polygon id="Path" fill="#4A555F" points="43.679475 62.1827573 41.001345 69.085319 43.23186 69.9469216 45.110835 65.1034707 50.598765 66.7478056 51.287355 64.4621392"></polygon>
            <polygon id="Path" fill="#4A555F" points="92.88909 79.9854401 87.343515 81.7664625 85.427055 76.5358875 83.17953 77.3553841 85.885695 84.7415366 93.62241 82.2569664"></polygon>
        </g>
    </g>
</svg>