<?xml version="1.0" encoding="UTF-8"?>
<svg width="350px" height="350px" viewBox="0 0 350 350" version="1.1" xmlns="http://www.w3.org/2000/svg" xmlns:xlink="http://www.w3.org/1999/xlink">
    <!-- Generator: Sketch 53.2 (72643) - https://sketchapp.com -->
    <title>2.0-everywhere-managed-hosting</title>
    <desc>Created with Sketch.</desc>
    <g id="2.0-everywhere-managed-hosting" stroke="none" stroke-width="1" fill="none" fill-rule="evenodd">
        <g id="HOSTING-SERVICES-Copy" transform="translate(65.000000, 76.000000)" fill-rule="nonzero">
            <g id="Group">
                <path d="M188.784,138.672 L179.7984,138.672 L179.7984,106.9632 L186.9696,106.9632 L172.5408,92.7936 L158.112,106.9632 L165.1968,106.9632 L165.1968,138.672 L139.0176,138.672 L139.0176,129.2544 L81.9936,129.2544 L81.9936,138.672 L57.1104,138.672 L57.1104,92.1888 L42.6816,92.1888 L42.6816,138.5856 L41.2128,138.4128 C17.712,135.9936 0,116.2944 0,92.7072 C0,67.3056 20.6496,46.656 46.0512,46.656 C46.9152,46.656 47.8656,46.656 48.816,46.7424 C58.4928,19.008 84.5856,0.5184 114.048,0.5184 C152.1504,0.5184 183.168,31.536 183.168,69.6384 C183.168,71.1936 183.0816,72.8352 182.9952,74.5632 C184.9824,74.2176 186.8832,74.0448 188.8704,74.0448 C206.7552,74.0448 221.2704,88.56 221.2704,106.4448 C221.184,124.1568 206.6688,138.672 188.784,138.672 Z M182.4768,135.9936 L188.784,135.9936 C205.1136,135.9936 218.4192,122.688 218.4192,106.3584 C218.4192,90.0288 205.1136,76.7232 188.784,76.7232 C186.4512,76.7232 184.1184,76.9824 181.7856,77.5872 L179.9712,78.0192 L180.144,76.1184 C180.3168,73.872 180.4896,71.712 180.4896,69.6384 C180.4896,33.0048 150.6816,3.2832 114.1344,3.2832 C85.536,3.2832 60.2208,21.5136 51.1488,48.6432 L50.8032,49.68 L49.7664,49.5936 C48.4704,49.5072 47.2608,49.4208 46.1376,49.4208 C22.2912,49.4208 2.8512,68.8608 2.8512,92.7072 C2.8512,114.48 18.7488,132.624 40.0896,135.5616 L40.0896,89.5104 L59.9616,89.5104 L59.9616,135.9936 L79.4016,135.9936 L79.4016,126.576 L141.9552,126.576 L141.9552,135.9936 L162.6912,135.9936 L162.6912,109.6416 L151.632,109.6416 L172.6272,88.9056 L193.6224,109.6416 L182.5632,109.6416 L182.5632,135.9936 L182.4768,135.9936 Z M141.8688,121.3056 L79.3152,121.3056 L79.3152,101.6064 L141.8688,101.6064 L141.8688,121.3056 Z M81.9936,118.5408 L139.104,118.5408 L139.104,104.1984 L81.9936,104.1984 L81.9936,118.5408 Z" id="Shape" fill="#4A555F"></path>
                <path d="M188.784,79.8336 C186.7104,79.8336 184.6368,80.0928 182.4768,80.6112 L176.3424,82.08 L176.9472,75.7728 C177.12,73.6992 177.2064,71.6256 177.2064,69.6384 C177.2064,34.8192 148.8672,6.3936 113.9616,6.3936 C86.7456,6.3936 62.64,23.76 54,49.5936 L52.8768,52.9632 L49.4208,52.704 C48.2112,52.6176 47.088,52.5312 46.0512,52.5312 C23.9328,52.5312 5.8752,70.5024 5.8752,92.7072 C5.8752,113.2704 21.4272,130.2048 41.2992,132.624 L41.2992,90.9792 L58.4928,90.9792 L58.4928,132.8832 L80.6976,132.8832 L80.6976,128.0448 L140.5728,128.0448 L140.5728,132.8832 L163.9872,132.8832 L163.9872,108.3456 L154.9152,108.3456 L172.6272,90.8928 L190.3392,108.3456 L181.1808,108.3456 L181.1808,132.8832 L188.8704,132.8832 C203.472,132.8832 215.3952,120.96 215.3952,106.3584 C215.3088,91.7568 203.3856,79.8336 188.784,79.8336 Z M140.4864,119.9232 L80.6976,119.9232 L80.6976,102.9024 L140.5728,102.9024 L140.5728,119.9232 L140.4864,119.9232 Z M140.4864,94.8672 L80.6976,94.8672 L80.6976,77.8464 L140.5728,77.8464 L140.5728,94.8672 L140.4864,94.8672 Z" id="Shape" fill="#E0E0E0"></path>
            </g>
            <path d="M49.8528,180.576 L28.8576,159.9264 L39.9168,159.9264 L39.9168,89.5968 L59.7888,89.5968 L59.7888,159.9264 L70.848,159.9264 L49.8528,180.576 Z M35.5104,162.6048 L49.9392,176.7744 L64.368,162.6048 L57.2832,162.6048 L57.2832,92.2752 L42.6816,92.2752 L42.6816,162.6048 L35.5104,162.6048 Z" id="Shape" fill="#4A555F"></path>
            <polygon id="Path" fill="#71CCE0" points="43.2 165.8016 45.792 165.8016 45.792 95.3856 54 95.3856 54 165.8016 56.5056 165.8016 49.8528 172.368"></polygon>
            <path d="M182.4768,180.0576 L162.6048,180.0576 L162.6048,109.728 L151.5456,109.728 L172.5408,89.0784 L193.536,109.728 L182.4768,109.728 L182.4768,180.0576 Z M165.2832,177.2928 L179.7984,177.2928 L179.7984,106.9632 L186.9696,106.9632 L172.5408,92.7936 L158.112,106.9632 L165.1968,106.9632 L165.1968,177.2928 L165.2832,177.2928 Z" id="Shape" fill="#4A555F"></path>
            <polygon id="Path" fill="#71CCE0" points="168.48 174.1824 168.48 103.7664 165.888 103.7664 172.6272 97.2 179.28 103.7664 176.6016 103.7664 176.6016 174.1824"></polygon>
            <g id="Group" transform="translate(78.624000, 101.088000)" fill="#4A555F">
                <path d="M63.2448,70.2432 L0.6912,70.2432 L0.6912,50.544 L63.2448,50.544 L63.2448,70.2432 Z M3.3696,67.5648 L60.48,67.5648 L60.48,53.3088 L3.3696,53.3088 L3.3696,67.5648 Z" id="Shape"></path>
                <path d="M63.2448,45.2736 L0.6912,45.2736 L0.6912,25.5744 L63.2448,25.5744 L63.2448,45.2736 Z M3.3696,42.5088 L60.48,42.5088 L60.48,28.2528 L3.3696,28.2528 L3.3696,42.5088 Z" id="Shape"></path>
                <path d="M63.2448,20.2176 L0.6912,20.2176 L0.6912,0.5184 L63.2448,0.5184 L63.2448,20.2176 Z M3.3696,17.4528 L60.48,17.4528 L60.48,3.1968 L3.3696,3.1968 L3.3696,17.4528 Z" id="Shape"></path>
            </g>
            <rect id="Rectangle" fill="#4A555F" x="109.6416" y="170.0352" width="2.6784" height="16.848"></rect>
            <path d="M111.024,199.9296 C107.0496,199.9296 103.7664,196.6464 103.7664,192.672 C103.7664,188.6976 107.0496,185.4144 111.024,185.4144 C114.9984,185.4144 118.2816,188.6976 118.2816,192.672 C118.1952,196.7328 114.9984,199.9296 111.024,199.9296 Z M111.024,188.1792 C108.5184,188.1792 106.5312,190.1664 106.5312,192.672 C106.5312,195.1776 108.5184,197.1648 111.024,197.1648 C113.5296,197.1648 115.5168,195.1776 115.5168,192.672 C115.5168,190.2528 113.4432,188.1792 111.024,188.1792 Z" id="Shape" fill="#4A555F"></path>
            <rect id="Rectangle" fill="#4A555F" x="39.9168" y="191.376" width="65.232" height="2.6784"></rect>
            <rect id="Rectangle" fill="#4A555F" x="117.1584" y="191.376" width="65.232" height="2.6784"></rect>
            <rect id="Rectangle" fill="#4A555F" x="109.6416" y="144.9792" width="2.6784" height="8.0352"></rect>
            <rect id="Rectangle" fill="#4A555F" x="109.6416" y="119.9232" width="2.6784" height="8.0352"></rect>
            <path d="M90.4608,115.8624 C87.9552,115.8624 85.968,113.8752 85.968,111.3696 C85.968,108.864 87.9552,106.8768 90.4608,106.8768 C92.9664,106.8768 94.9536,108.864 94.9536,111.3696 C94.9536,113.8752 92.9664,115.8624 90.4608,115.8624 Z M90.4608,109.6416 C89.5104,109.6416 88.7328,110.4192 88.7328,111.3696 C88.7328,112.32 89.5104,113.0976 90.4608,113.0976 C91.4112,113.0976 92.1888,112.32 92.1888,111.3696 C92.2752,110.4192 91.4112,109.6416 90.4608,109.6416 Z" id="Shape" fill="#4A555F"></path>
            <path d="M90.4608,140.9184 C87.9552,140.9184 85.968,138.9312 85.968,136.4256 C85.968,133.92 87.9552,131.9328 90.4608,131.9328 C92.9664,131.9328 94.9536,133.92 94.9536,136.4256 C94.9536,138.9312 92.9664,140.9184 90.4608,140.9184 Z M90.4608,134.6976 C89.5104,134.6976 88.7328,135.4752 88.7328,136.4256 C88.7328,137.376 89.5104,138.1536 90.4608,138.1536 C91.4112,138.1536 92.1888,137.376 92.1888,136.4256 C92.2752,135.4752 91.4112,134.6976 90.4608,134.6976 Z" id="Shape" fill="#4A555F"></path>
            <path d="M90.4608,165.9744 C87.9552,165.9744 85.968,163.9872 85.968,161.4816 C85.968,158.976 87.9552,156.9888 90.4608,156.9888 C92.9664,156.9888 94.9536,158.976 94.9536,161.4816 C94.9536,163.9872 92.9664,165.9744 90.4608,165.9744 Z M90.4608,159.7536 C89.5104,159.7536 88.7328,160.5312 88.7328,161.4816 C88.7328,162.432 89.5104,163.2096 90.4608,163.2096 C91.4112,163.2096 92.1888,162.432 92.1888,161.4816 C92.2752,160.5312 91.4112,159.7536 90.4608,159.7536 Z" id="Shape" fill="#4A555F"></path>
            <rect id="Rectangle" fill="#F68F6F" x="103.0752" y="158.3712" width="32.2272" height="6.2208"></rect>
            <rect id="Rectangle" fill="#F68F6F" x="103.0752" y="133.3152" width="32.2272" height="6.2208"></rect>
            <rect id="Rectangle" fill="#F68F6F" x="103.0752" y="108.2592" width="32.2272" height="6.2208"></rect>
            <path d="M141.8688,96.2496 L79.3152,96.2496 L79.3152,76.5504 L141.8688,76.5504 L141.8688,96.2496 Z M81.9936,93.4848 L139.104,93.4848 L139.104,79.2288 L81.9936,79.2288 L81.9936,93.4848 Z" id="Shape" fill="#4A555F"></path>
            <path d="M90.4608,90.8064 C87.9552,90.8064 85.968,88.8192 85.968,86.3136 C85.968,83.808 87.9552,81.8208 90.4608,81.8208 C92.9664,81.8208 94.9536,83.808 94.9536,86.3136 C94.9536,88.8192 92.9664,90.8064 90.4608,90.8064 Z M90.4608,84.5856 C89.5104,84.5856 88.7328,85.3632 88.7328,86.3136 C88.7328,87.264 89.5104,88.0416 90.4608,88.0416 C91.4112,88.0416 92.1888,87.264 92.1888,86.3136 C92.2752,85.3632 91.4112,84.5856 90.4608,84.5856 Z" id="Shape" fill="#4A555F"></path>
            <rect id="Rectangle" fill="#F68F6F" x="103.0752" y="83.2032" width="32.2272" height="6.2208"></rect>
            <rect id="Rectangle" fill="#4A555F" x="109.6416" y="94.8672" width="2.6784" height="8.0352"></rect>
        </g>
    </g>
</svg>