<?xml version="1.0" encoding="UTF-8"?>
<svg width="350px" height="350px" viewBox="0 0 350 350" version="1.1" xmlns="http://www.w3.org/2000/svg" xmlns:xlink="http://www.w3.org/1999/xlink">
    <!-- Generator: Sketch 53.2 (72643) - https://sketchapp.com -->
    <title>2.1-everywhere-on-premise</title>
    <desc>Created with Sketch.</desc>
    <g id="2.1-everywhere-on-premise" stroke="none" stroke-width="1" fill="none" fill-rule="evenodd">
        <g id="EXPERT-SYSTEM-Copy" transform="translate(57.000000, 52.000000)" fill-rule="nonzero">
            <path d="M37.62576,10.80864 C22.9632,10.80864 11.03424,22.7376 11.03424,37.40064 C11.03424,52.06272 22.9632,63.99168 37.62576,63.99168 C52.28832,63.99168 64.21776,52.06272 64.21776,37.40064 C64.21776,22.7376 52.28832,10.80864 37.62576,10.80864 Z" id="Path" fill="#FFD452"></path>
            <path d="M191.91648,145.52064 C166.58544,145.52064 145.9776,166.12848 145.9776,191.45904 L149.6016,191.45904 C149.6016,168.1272 168.58416,149.14464 191.91648,149.14464 C215.24832,149.14464 234.2304,168.12672 234.2304,191.45904 L234.2304,207.624 L237.8544,207.624 L237.8544,191.45904 C237.8544,166.12896 217.24656,145.52064 191.91648,145.52064 Z" id="Path" fill="#4A555F"></path>
            <path d="M228.19056,204.88128 L228.19056,192.19104 C228.19056,172.36944 212.41008,155.77536 193.0128,155.20032 C183.12768,154.90608 173.76768,158.54304 166.66416,165.4392 C159.55632,172.3392 155.64144,181.57968 155.64144,191.45856 C155.64144,194.32032 153.31344,196.64832 150.45168,196.64832 L147.7896,196.64832 L147.7896,200.27232 L150.45168,200.27232 C155.31216,200.27232 159.26544,196.31856 159.26544,191.45856 C159.26544,182.56848 162.78912,174.25104 169.18848,168.03936 C175.58256,161.832 183.99792,158.55792 192.90528,158.82288 C210.36336,159.34032 224.56656,174.30912 224.56656,192.19104 L224.56656,204.88128 C224.56656,211.20912 229.71456,216.35712 236.0424,216.35712 L236.0424,212.73312 C231.7128,212.7336 228.19056,209.21088 228.19056,204.88128 Z" id="Path" fill="#4A555F"></path>
            <path d="M218.52672,204.8808 L218.52672,192.19152 C218.52672,177.54336 206.95296,165.28224 192.72768,164.85984 C185.48256,164.63088 178.5888,167.33232 173.39568,172.37376 C168.17904,177.43824 165.30576,184.21584 165.30576,191.45856 C165.30576,199.6488 158.6424,206.31264 150.45168,206.31264 L147.7896,206.31264 L147.7896,209.93664 L150.45168,209.93664 C160.64064,209.93664 168.92976,201.64752 168.92976,191.45856 C168.92976,185.20368 171.41232,179.3496 175.92,174.97344 C180.40608,170.61792 186.32352,168.28128 192.6192,168.4824 C204.90624,168.84672 214.90272,179.48256 214.90272,192.19104 L214.90272,204.88032 C214.90272,216.15984 223.72224,225.43488 234.98016,225.99456 L235.16064,222.37536 C225.8328,221.9112 218.52672,214.22688 218.52672,204.8808 Z" id="Path" fill="#4A555F"></path>
            <path d="M208.8624,204.8808 L208.8624,192.19152 C208.8624,182.71632 201.49536,174.78912 192.44496,174.52032 C192.264,174.51456 192.0888,174.51216 191.91552,174.51216 C187.43424,174.51216 183.35808,176.17008 180.12672,179.30736 C176.8008,182.53632 174.96912,186.85152 174.96912,191.45856 C174.96912,204.97776 163.9704,215.97648 150.4512,215.97648 L147.78912,215.97648 L147.78912,219.60048 L150.4512,219.60048 C165.96864,219.60048 178.59312,206.976 178.59312,191.45856 C178.59312,187.83984 180.03408,184.44768 182.65152,181.90704 C185.19264,179.43984 188.39616,178.13568 191.91552,178.13568 C192.04992,178.13568 192.1848,178.13664 192.33168,178.1424 C199.44816,178.3536 205.23792,184.656 205.23792,192.19104 L205.23792,204.88032 C205.23792,219.62112 215.73792,232.34304 230.20368,235.12992 L230.88912,231.57072 C218.12592,229.11264 208.8624,217.88736 208.8624,204.8808 Z" id="Path" fill="#4A555F"></path>
            <path d="M192.11808,186.53568 C189.6024,186.53568 187.41552,188.33088 186.91776,190.80432 C185.27232,198.98976 177.73968,225.696 149.90688,225.696 L149.90688,229.32 C180.49392,229.32 188.688,200.38704 190.4712,191.51952 C190.62912,190.73136 191.32224,190.15968 192.11856,190.15968 C193.044,190.15968 193.79712,190.9128 193.79712,191.83824 L193.79712,198.99168 L197.42112,198.99168 L197.42112,191.83824 C197.42064,188.91456 195.04176,186.53568 192.11808,186.53568 Z" id="Path" fill="#4A555F"></path>
            <path d="M200.18256,209.52912 C199.70208,207.54624 198.08592,206.10192 196.06608,205.84992 C194.05632,205.59936 192.15312,206.59632 191.208,208.38624 C186.29808,217.68816 175.24224,233.5272 156.35904,235.09392 L156.65856,238.70496 C177.26352,236.99616 189.15744,220.03584 194.41344,210.07824 C194.76384,209.41536 195.372,209.41584 195.61776,209.44656 C195.81552,209.47152 196.47312,209.6112 196.65984,210.38256 C199.11552,220.52256 205.78944,238.08192 222.89472,241.75536 L223.65552,238.21152 C215.7024,236.50368 205.1736,230.1408 200.18256,209.52912 Z" id="Path" fill="#4A555F"></path>
            <path d="M197.42256,227.51616 C196.67568,226.13424 195.29952,225.22752 193.74192,225.09072 C192.17712,224.95056 190.65696,225.60912 189.67536,226.8456 C180.15456,238.84032 166.71312,241.0608 166.57872,241.08192 L167.12928,244.66416 C167.73504,244.57152 182.0784,242.24592 192.5136,229.09872 C192.83328,228.696 193.2552,228.68736 193.42368,228.7008 C193.6272,228.71904 194.00352,228.81216 194.23344,229.23936 C197.67456,235.60608 203.26752,243.63792 210.3696,245.74368 L211.39968,242.26944 C205.17888,240.42432 199.97232,232.2336 197.42256,227.51616 Z" id="Path" fill="#4A555F"></path>
            <path d="M195.46944,240.05136 C194.76672,239.20272 193.73712,238.67808 192.64368,238.61136 C191.54496,238.548 190.45488,238.944 189.6504,239.70432 C187.67616,241.57152 185.71488,242.3952 185.69568,242.40336 L186.37968,244.07424 L187.06272,245.75952 C187.16688,245.7168 189.64512,244.69776 192.14064,242.33664 C192.24384,242.2392 192.34704,242.21712 192.42384,242.22864 C192.52464,242.2344 192.61008,242.27952 192.67872,242.36256 C193.62912,243.50928 194.68608,244.55952 195.8208,245.48448 L198.1104,242.67552 C197.1576,241.89984 196.2696,241.01664 195.46944,240.05136 Z" id="Path" fill="#4A555F"></path>
            <rect id="Rectangle" fill="#4A555F" x="37.31856" y="213.156" width="76.5504" height="3.624"></rect>
            <rect id="Rectangle" fill="#4A555F" x="127.97568" y="213.156" width="14.41296" height="3.624"></rect>
            <path d="M120.92208,206.10288 C116.03376,206.10288 112.05696,210.07968 112.05696,214.96752 C112.05696,219.85632 116.03376,223.83312 120.92208,223.83312 C125.81088,223.83312 129.78768,219.85632 129.78768,214.96752 C129.78768,210.07968 125.81088,206.10288 120.92208,206.10288 Z M120.92208,220.20912 C118.032,220.20912 115.68096,217.85808 115.68096,214.96752 C115.68096,212.07792 118.032,209.72688 120.92208,209.72688 C123.81216,209.72688 126.16368,212.07792 126.16368,214.96752 C126.16368,217.85808 123.81216,220.20912 120.92208,220.20912 Z" id="Shape" fill="#4A555F"></path>
            <rect id="Rectangle" fill="#4A555F" x="119.11008" y="184.5192" width="3.624" height="23.39616"></rect>
            <path d="M39.85824,145.52688 L39.85824,186.33264 L149.88576,186.33264 L150.1272,184.80336 C153.38448,164.14464 170.9616,149.15088 191.92128,149.15088 L191.92128,145.52688 L39.85824,145.52688 Z M146.81376,182.70864 L43.48224,182.70864 L43.48224,149.15088 L173.89056,149.15088 C160.13136,154.95984 149.76864,167.2872 146.81376,182.70864 Z" id="Shape" fill="#4A555F"></path>
            <path d="M47.71008,153.37872 L47.71008,178.4808 L143.44416,178.4808 C146.08944,168.46656 151.6464,159.80496 159.12384,153.37872 L47.71008,153.37872 Z M81.99312,172.46496 C80.84544,173.60016 79.27536,174.30096 77.54784,174.30096 C74.0808,174.30096 71.25408,171.48624 71.25408,168.0192 C71.25408,166.27968 71.95488,164.70912 73.10256,163.57392 C74.23824,162.42624 75.82032,161.72544 77.54784,161.72544 C79.27536,161.72544 80.84592,162.42624 81.99312,163.57392 C83.1288,164.70912 83.82912,166.27968 83.82912,168.0192 C83.82912,169.75872 83.1288,171.32976 81.99312,172.46496 Z" id="Shape" fill="#DFDFDF"></path>
            <path d="M39.85536,108.35376 L39.85536,149.15424 L203.71776,149.15424 L203.71776,108.35376 L39.85536,108.35376 Z M200.09376,145.53024 L43.47936,145.53024 L43.47936,111.97776 L200.09376,111.97776 L200.09376,145.53024 L200.09376,145.53024 Z" id="Shape" fill="#4A555F"></path>
            <path d="M47.71008,116.20848 L47.71008,141.29856 L195.8712,141.29856 L195.8712,116.20848 L47.71008,116.20848 Z M81.99312,134.244 C80.84544,135.37968 79.27536,136.08 77.54784,136.08 C74.0808,136.08 71.25408,133.26528 71.25408,129.79824 C71.25408,128.05872 71.95488,126.48816 73.10256,125.35296 C74.23824,124.20528 75.82032,123.50448 77.54784,123.50448 C79.27536,123.50448 80.84592,124.20528 81.99312,125.35296 C83.1288,126.48816 83.82912,128.05872 83.82912,129.79824 C83.82912,131.53776 83.1288,133.10832 81.99312,134.244 Z" id="Shape" fill="#DFDFDF"></path>
            <path d="M39.85536,71.1768 L39.85536,111.97728 L203.71776,111.97728 L203.71776,71.1768 L39.85536,71.1768 Z M200.09376,108.35376 L43.47936,108.35376 L43.47936,74.80128 L200.09376,74.80128 L200.09376,108.35376 L200.09376,108.35376 Z" id="Shape" fill="#4A555F"></path>
            <path d="M47.71008,79.02624 L47.71008,104.12832 L195.8712,104.12832 L195.8712,79.02624 L47.71008,79.02624 Z M81.99312,96.02304 C80.84544,97.15872 79.27536,97.85904 77.54784,97.85904 C74.0808,97.85904 71.25408,95.04432 71.25408,91.57728 C71.25408,89.83776 71.95488,88.2672 73.10256,87.132 C74.23824,85.99632 75.82032,85.284 77.54784,85.284 C79.27536,85.284 80.84592,85.9968 81.99312,87.132 C83.1288,88.26768 83.82912,89.83776 83.82912,91.57728 C83.8296,93.3168 83.1288,94.88736 81.99312,96.02304 Z" id="Shape" fill="#DFDFDF"></path>
            <path d="M71.27856,34.00464 L71.36448,35.8992 C71.38752,36.4032 71.39856,36.89472 71.39856,37.39872 C71.39856,54.60144 58.53072,69.02832 41.46624,70.956 L39.85776,71.1384 L39.85776,74.79888 L203.72256,74.79888 L203.72256,34.00464 L71.27856,34.00464 Z M200.09952,71.1744 L53.73552,71.1744 C66.36096,65.16288 74.93376,52.32576 75.02256,37.62816 L200.09952,37.62816 L200.09952,71.1744 L200.09952,71.1744 Z" id="Shape" fill="#4A555F"></path>
            <path d="M79.00944,41.856 C78.792,43.99392 78.39312,46.08384 77.84976,48.12576 C79.45632,48.19824 80.91792,48.88656 81.99312,49.94976 C83.1288,51.09744 83.82912,52.668 83.82912,54.40752 C83.82912,56.13504 83.12832,57.70512 81.99312,58.8528 C80.84544,59.98848 79.27536,60.6888 77.54784,60.6888 C75.8808,60.6888 74.35872,60.03648 73.23552,58.97376 C71.484,61.88496 69.38208,64.55472 66.97824,66.94656 L195.87168,66.94656 L195.87168,41.856 L79.00944,41.856 Z" id="Path" fill="#DFDFDF"></path>
            <path d="M37.62576,0 C17.00304,0 0.2256,16.77744 0.2256,37.40016 C0.2256,58.02288 17.00304,74.8008 37.62576,74.8008 C58.24848,74.8008 75.0264,58.0224 75.0264,37.40016 C75.0264,16.77744 58.24848,0 37.62576,0 Z M37.62576,71.1768 C19.00176,71.1768 3.8496,56.02416 3.8496,37.40016 C3.8496,18.77568 19.00176,3.624 37.62576,3.624 C56.25024,3.624 71.4024,18.77568 71.4024,37.40016 C71.4024,56.02464 56.24976,71.1768 37.62576,71.1768 Z" id="Shape" fill="#4A555F"></path>
            <path d="M14.2992,45.76512 L10.8888,46.99056 C11.32224,48.1968 11.84544,49.38768 12.44304,50.5296 L15.65424,48.8496 C15.13248,47.85408 14.67648,46.81584 14.2992,45.76512 Z M30.77952,13.58304 L29.7768,10.10064 C28.54032,10.4568 27.31776,10.90176 26.1408,11.424 L27.61056,14.73648 C28.63584,14.28144 29.7024,13.89312 30.77952,13.58304 Z M14.46432,53.82528 C15.2088,54.87216 16.032,55.87824 16.91088,56.8152 L19.55472,54.33696 C18.78672,53.51808 18.06768,52.6392 17.41728,51.72432 L14.46432,53.82528 Z M19.74,59.4504 C20.74032,60.26304 21.80304,61.01328 22.89936,61.68048 L24.78336,58.584 C23.8272,58.00272 22.89936,57.348 22.02624,56.63808 L19.74,59.4504 Z M24.63024,16.3104 L22.72368,13.22784 C21.63264,13.90272 20.57568,14.66016 19.58208,15.47904 L21.88704,18.27456 C22.75536,17.56032 23.67744,16.89888 24.63024,16.3104 Z M12.91008,39.18192 L9.29568,39.44016 C9.38784,40.728 9.5688,42.0168 9.8328,43.27008 L13.37904,42.52224 C13.14816,41.42928 12.99024,40.3056 12.91008,39.18192 Z M61.83408,32.0976 L65.37408,31.32144 C65.09856,30.06528 64.73376,28.81584 64.28928,27.60912 L60.88848,28.86096 C61.27632,29.91264 61.59408,31.00224 61.83408,32.0976 Z M59.5104,25.78608 L62.70864,24.08016 C62.10384,22.94784 61.41648,21.8448 60.66384,20.80224 L57.72528,22.92336 C58.38288,23.8344 58.98336,24.79728 59.5104,25.78608 Z M13.34064,32.46192 L9.78864,31.74096 C9.53328,32.99856 9.3624,34.28832 9.28032,35.57472 L12.89712,35.80608 C12.96864,34.68384 13.11744,33.5592 13.34064,32.46192 Z M19.43376,20.5944 L16.7736,18.13344 C15.9,19.07808 15.08352,20.08992 14.34624,21.14256 L17.31456,23.2224 C17.95872,22.3032 18.67152,21.41904 19.43376,20.5944 Z M15.57072,26.11056 L12.348,24.45408 C11.75856,25.60032 11.244,26.79648 10.81776,28.00896 L14.23632,29.20992 C14.60832,28.15344 15.05712,27.1104 15.57072,26.11056 Z M37.62576,62.17968 C36.49968,62.17968 35.36688,62.10288 34.25904,61.95216 L33.76944,65.54304 C35.03952,65.71584 36.33648,65.80368 37.62576,65.80368 L38.04864,65.8008 L38.00016,62.1768 L37.62576,62.17968 Z M26.33328,63.46176 C27.51552,63.97536 28.74288,64.41216 29.9808,64.75824 L30.9576,61.26864 C29.87808,60.96672 28.80864,60.58608 27.77856,60.13824 L26.33328,63.46176 Z M53.508,56.40624 L55.83456,59.18544 C56.81856,58.36128 57.75696,57.46128 58.62336,56.5104 L55.94448,54.0696 C55.18704,54.90096 54.3672,55.6872 53.508,56.40624 Z M65.94096,35.14752 L62.32752,35.43168 C62.37888,36.07824 62.4048,36.74064 62.40528,37.40016 C62.40528,37.87344 62.39232,38.3424 62.3664,38.80944 L65.98464,39.01008 C66.01392,38.47776 66.02928,37.94064 66.02928,37.39872 C66.0288,36.64416 65.99904,35.88672 65.94096,35.14752 Z M58.19424,17.82912 C57.30672,16.89744 56.34864,16.0176 55.34592,15.21552 L53.08224,18.0456 C53.95776,18.74544 54.7944,19.51344 55.5696,20.32752 L58.19424,17.82912 Z M61.0752,45.41376 L64.50336,46.5888 C64.92096,45.3696 65.25792,44.11152 65.50416,42.84864 L61.94736,42.15504 C61.73328,43.25424 61.43952,44.35104 61.0752,45.41376 Z M58.04352,51.42624 L61.02816,53.48256 C61.75824,52.42224 62.42256,51.30288 63.00096,50.15664 L59.76528,48.52416 C59.26128,49.524 58.68144,50.5008 58.04352,51.42624 Z M37.44048,12.6216 L37.41216,8.9976 C36.12192,9.00768 34.82592,9.10464 33.55872,9.28704 L34.07568,12.87456 C35.18064,12.7152 36.31248,12.63024 37.44048,12.6216 Z M45.06432,9.98448 C43.82256,9.64752 42.54624,9.3936 41.27088,9.22944 L40.80864,12.82368 C41.92032,12.96672 43.03296,13.18848 44.11584,13.48224 L45.06432,9.98448 Z M52.17024,13.00944 C51.0648,12.34848 49.90464,11.75712 48.72192,11.25408 L47.30256,14.58768 C48.3336,15.02736 49.34448,15.54192 50.30832,16.11888 L52.17024,13.00944 Z M47.81136,59.98752 L49.30464,63.28944 C50.47392,62.76048 51.6192,62.14464 52.70928,61.45872 L50.7792,58.39152 C49.82832,58.9896 48.82992,59.5272 47.81136,59.98752 Z M41.35968,61.89936 L41.90448,65.48208 C43.17792,65.28864 44.448,65.00544 45.67968,64.64112 L44.65104,61.16592 C43.57728,61.48368 42.46944,61.7304 41.35968,61.89936 Z" id="Shape" fill="#4A555F"></path>
            <path d="M77.54736,83.47776 C73.08144,83.47776 69.44832,87.11136 69.44832,91.57776 C69.44832,96.0432 73.08192,99.6768 77.54736,99.6768 C82.01376,99.6768 85.64688,96.0432 85.64688,91.57776 C85.64736,87.11088 82.01376,83.47776 77.54736,83.47776 Z M77.54736,96.05232 C75.08016,96.05232 73.07232,94.04448 73.07232,91.57728 C73.07232,89.10912 75.08016,87.10128 77.54736,87.10128 C80.01504,87.10128 82.02288,89.10912 82.02288,91.57728 C82.02336,94.04448 80.01552,96.05232 77.54736,96.05232 Z" id="Shape" fill="#4A555F"></path>
            <rect id="Rectangle" fill="#4A555F" x="97.13424" y="89.76528" width="5.55888" height="3.624"></rect>
            <rect id="Rectangle" fill="#4A555F" x="108.25248" y="89.76528" width="5.5584" height="3.624"></rect>
            <rect id="Rectangle" fill="#4A555F" x="124.83888" y="89.76528" width="45.41904" height="3.624"></rect>
            <path d="M77.54736,121.69632 C73.08144,121.69632 69.44832,125.32992 69.44832,129.79632 C69.44832,134.26272 73.08192,137.89632 77.54736,137.89632 C82.01376,137.89632 85.64688,134.26272 85.64688,129.79632 C85.64688,125.32992 82.01376,121.69632 77.54736,121.69632 Z M77.54736,134.27184 C75.08016,134.27184 73.07232,132.264 73.07232,129.79584 C73.07232,127.32768 75.08016,125.32032 77.54736,125.32032 C80.01504,125.32032 82.02288,127.32816 82.02288,129.79584 C82.02336,132.264 80.01552,134.27184 77.54736,134.27184 Z" id="Shape" fill="#4A555F"></path>
            <rect id="Rectangle" fill="#4A555F" x="97.13424" y="127.98432" width="5.55888" height="3.624"></rect>
            <rect id="Rectangle" fill="#4A555F" x="108.25248" y="127.98432" width="5.5584" height="3.624"></rect>
            <rect id="Rectangle" fill="#4A555F" x="124.83888" y="127.98432" width="45.41904" height="3.624"></rect>
            <path d="M77.54736,159.91584 C73.08144,159.91584 69.44832,163.54944 69.44832,168.01488 C69.44832,172.48128 73.08192,176.1144 77.54736,176.1144 C82.01376,176.1144 85.64688,172.4808 85.64688,168.01488 C85.64736,163.54944 82.01376,159.91584 77.54736,159.91584 Z M77.54736,172.49088 C75.08016,172.49088 73.07232,170.48304 73.07232,168.01536 C73.07232,165.54816 75.08016,163.54032 77.54736,163.54032 C80.01504,163.54032 82.02288,165.54816 82.02288,168.01536 C82.02336,170.48304 80.01552,172.49088 77.54736,172.49088 Z" id="Shape" fill="#4A555F"></path>
            <rect id="Rectangle" fill="#4A555F" x="97.13424" y="166.20336" width="5.55888" height="3.624"></rect>
            <rect id="Rectangle" fill="#4A555F" x="108.25248" y="166.20336" width="5.5584" height="3.624"></rect>
            <rect id="Rectangle" fill="#4A555F" x="124.83888" y="166.20336" width="17.54976" height="3.624"></rect>
            <path d="M77.54736,46.30128 C73.08144,46.30128 69.44832,49.93488 69.44832,54.40128 C69.44832,58.86768 73.08192,62.50128 77.54736,62.50128 C82.01376,62.50128 85.64688,58.86768 85.64688,54.40128 C85.64688,49.93488 82.01376,46.30128 77.54736,46.30128 Z M77.54736,58.8768 C75.08016,58.8768 73.07232,56.86896 73.07232,54.40128 C73.07232,51.9336 75.08016,49.92576 77.54736,49.92576 C80.01504,49.92576 82.02288,51.9336 82.02288,54.40128 C82.02288,56.86896 80.01552,58.8768 77.54736,58.8768 Z" id="Shape" fill="#4A555F"></path>
            <rect id="Rectangle" fill="#4A555F" x="97.13424" y="52.58928" width="5.55888" height="3.624"></rect>
            <rect id="Rectangle" fill="#4A555F" x="108.25248" y="52.58928" width="5.5584" height="3.624"></rect>
            <rect id="Rectangle" fill="#4A555F" x="124.83888" y="52.58928" width="45.41904" height="3.624"></rect>
            <path d="M146.5464,184.23888 L150.12624,184.80336 C153.384,164.14464 170.96112,149.15088 191.92128,149.15088 L191.92128,145.52688 C169.16592,145.52688 150.08352,161.80752 146.5464,184.23888 Z" id="Path" fill="#4A555F"></path>
            <polygon id="Path" fill="#4A555F" points="52.37472 28.11072 33.24144 46.70832 24.94992 37.40736 22.24512 39.8184 33.05376 51.94416 54.90048 30.70992"></polygon>
        </g>
    </g>
</svg>