<?xml version="1.0" encoding="UTF-8"?>
<svg width="350px" height="350px" viewBox="0 0 350 350" version="1.1" xmlns="http://www.w3.org/2000/svg" xmlns:xlink="http://www.w3.org/1999/xlink">
    <!-- Generator: Sketch 53.2 (72643) - https://sketchapp.com -->
    <title>2.2-everywhere-private-cloud</title>
    <desc>Created with Sketch.</desc>
    <g id="2.2-everywhere-private-cloud" stroke="none" stroke-width="1" fill="none" fill-rule="evenodd">
        <g id="CLOUD-COMPUTING-Copy" transform="translate(53.000000, 74.000000)" fill-rule="nonzero">
            <path d="M208.512,177.12 L32.16,177.12 C22.944,177.12 15.456,169.632 15.456,160.416 L15.456,36.864 C15.456,27.648 22.944,20.16 32.16,20.16 L162.432,20.16 L161.856,21.936 C161.088,24.432 160.704,27.072 160.704,29.712 C160.704,30.336 160.752,31.008 160.8,31.776 L160.992,34.56 L158.64,33.072 C156.624,31.776 154.32,31.104 151.92,31.104 C144.96,31.104 139.344,36.768 139.344,43.68 C139.344,44.592 139.44,45.456 139.632,46.32 C140.88,52.08 146.064,56.256 151.92,56.256 L173.424,56.256 L173.424,73.92 L166.848,73.92 L178.992,85.248 L191.136,73.92 L184.56,73.92 L184.56,56.352 L225.12,56.352 L225.12,160.416 C225.216,169.632 217.728,177.12 208.512,177.12 Z M32.16,22.944 C24.48,22.944 18.24,29.184 18.24,36.864 L18.24,160.416 C18.24,168.096 24.48,174.336 32.16,174.336 L208.464,174.336 C216.144,174.336 222.384,168.096 222.384,160.416 L222.384,59.136 L187.392,59.136 L187.392,71.136 L198.24,71.136 L179.04,89.04 L159.84,71.136 L170.64,71.136 L170.64,59.136 L151.92,59.136 C144.72,59.136 138.384,54.048 136.896,46.992 C136.656,45.936 136.56,44.832 136.56,43.728 C136.56,35.232 143.472,28.368 151.92,28.368 C153.984,28.368 156,28.8 157.92,29.568 C157.92,27.312 158.208,25.056 158.736,22.896 L32.16,22.896 L32.16,22.944 Z" id="Shape" fill="#4A555F"></path>
            <path d="M219.216,62.352 L219.216,160.416 C219.216,166.32 214.416,171.12 208.512,171.12 L32.16,171.12 C26.256,171.12 21.456,166.32 21.456,160.416 L21.456,36.864 C21.456,30.96 26.256,26.16 32.16,26.16 L145.776,26.16 C139.056,28.512 134.064,34.704 133.392,42.048 L32.736,42.048 L32.736,158.736 L207.936,158.736 L207.936,62.352 L219.216,62.352 Z" id="Path" fill="#EC8D53"></path>
            <path d="M223.872,201.216 L16.8,201.216 C7.536,201.216 0,193.68 0,184.416 L0,174.384 L240.672,174.384 L240.672,184.416 C240.672,193.68 233.136,201.216 223.872,201.216 Z M2.784,177.12 L2.784,184.416 C2.784,192.144 9.072,198.432 16.8,198.432 L223.872,198.432 C231.6,198.432 237.888,192.144 237.888,184.416 L237.888,177.12 L2.784,177.12 Z" id="Shape" fill="#4A555F"></path>
            <path d="M234.672,180.384 L234.672,184.416 C234.672,190.368 229.824,195.216 223.872,195.216 L16.8,195.216 C10.848,195.216 6,190.368 6,184.416 L6,180.384 L80.4,180.384 C82.272,186.768 88.224,191.424 95.184,191.424 L145.44,191.424 C152.448,191.424 158.352,186.768 160.272,180.384 L234.672,180.384 Z" id="Path" fill="#EC8D53"></path>
            <path d="M145.488,188.16 L95.184,188.16 C88.464,188.16 82.992,182.688 82.992,175.968 L82.992,174.576 L157.68,174.576 L157.68,175.968 C157.68,182.688 152.208,188.16 145.488,188.16 Z M85.872,177.36 C86.544,181.92 90.48,185.376 95.184,185.376 L145.44,185.376 C150.144,185.376 154.08,181.872 154.752,177.36 L85.872,177.36 Z" id="Shape" fill="#4A555F"></path>
            <path d="M204.72,155.568 L36,155.568 L36,45.312 L139.44,45.312 L139.68,46.416 C140.928,52.176 146.064,56.352 151.968,56.352 L173.472,56.352 L173.472,73.92 L166.896,73.92 L179.04,85.248 L191.184,73.92 L184.608,73.92 L184.608,56.352 L204.672,56.352 L204.672,155.568 L204.72,155.568 Z M38.736,152.784 L201.936,152.784 L201.936,59.136 L187.44,59.136 L187.44,71.136 L198.24,71.136 L179.04,89.04 L159.84,71.136 L170.64,71.136 L170.64,59.136 L151.92,59.136 C145.104,59.136 139.056,54.576 137.184,48.096 L38.736,48.096 L38.736,152.784 Z" id="Shape" fill="#4A555F"></path>
            <path d="M120.336,38.88 C117.456,38.88 115.104,36.528 115.104,33.648 C115.104,30.768 117.456,28.416 120.336,28.416 C123.216,28.416 125.568,30.768 125.568,33.648 C125.568,36.528 123.216,38.88 120.336,38.88 Z M120.336,31.152 C118.992,31.152 117.888,32.256 117.888,33.6 C117.888,34.944 118.992,36.048 120.336,36.048 C121.68,36.048 122.784,34.944 122.784,33.6 C122.784,32.256 121.68,31.152 120.336,31.152 Z" id="Shape" fill="#4A555F"></path>
            <path d="M224.736,59.136 L184.656,59.136 L184.656,41.568 L191.232,41.568 L179.088,30.24 L166.944,41.568 L173.52,41.568 L173.52,59.136 L152.016,59.136 C143.52,59.136 136.656,52.224 136.656,43.776 C136.656,35.328 143.568,28.416 152.016,28.416 C154.08,28.416 156.096,28.848 158.016,29.616 C158.112,13.488 171.264,0.384 187.392,0.384 C199.824,0.384 210.672,8.016 214.944,19.536 C217.968,17.904 221.328,17.088 224.784,17.088 C236.4,17.088 245.808,26.496 245.808,38.112 C245.808,49.728 236.352,59.136 224.736,59.136 Z M187.44,56.352 L224.736,56.352 C234.816,56.352 242.976,48.144 242.976,38.112 C242.976,28.08 234.768,19.872 224.736,19.872 C221.232,19.872 217.824,20.88 214.848,22.8 L213.312,23.808 L212.784,22.032 C209.376,10.752 199.104,3.168 187.344,3.168 C172.656,3.168 160.752,15.12 160.752,29.76 C160.752,30.384 160.8,31.056 160.848,31.824 L161.04,34.608 L158.688,33.12 C156.672,31.824 154.368,31.152 151.968,31.152 C145.008,31.152 139.392,36.816 139.392,43.728 C139.392,50.64 145.056,56.304 151.968,56.304 L170.688,56.304 L170.688,44.304 L159.888,44.304 L179.088,26.4 L198.288,44.304 L187.44,44.304 L187.44,56.352 L187.44,56.352 Z" id="Shape" fill="#4A555F"></path>
            <path d="M179.04,89.088 L159.84,71.184 L170.688,71.184 L170.688,44.352 L159.84,44.352 L179.04,26.448 L198.24,44.352 L187.392,44.352 L187.392,71.184 L198.24,71.184 L179.04,89.088 Z M166.896,73.92 L179.04,85.248 L191.184,73.92 L184.608,73.92 L184.608,41.52 L191.184,41.52 L179.04,30.192 L166.896,41.52 L173.472,41.52 L173.472,73.92 L166.896,73.92 Z" id="Shape" fill="#4A555F"></path>
            <polygon id="Path" fill="#FFD552" points="175.152 77.184 176.736 77.184 176.736 38.304 175.152 38.304 179.04 34.656 182.976 38.304 181.392 38.304 181.392 77.184 182.976 77.184 179.04 80.832"></polygon>
            <g id="Group" transform="translate(81.120000, 60.480000)">
                <path d="M47.232,79.728 L32.736,79.728 L28.512,67.632 L16.992,73.2 L6.72,62.976 L12.288,51.456 L0.192,47.232 L0.192,32.736 L12.288,28.512 L6.72,16.992 L16.992,6.72 L28.512,12.288 L32.736,0.192 L47.232,0.192 L51.456,12.288 L62.976,6.72 L73.248,16.992 L67.68,28.512 L79.776,32.736 L79.776,47.232 L67.68,51.456 L73.248,62.976 L62.976,73.248 L51.456,67.68 L47.232,79.728 Z M34.704,76.944 L45.264,76.944 L49.824,63.744 L62.4,69.84 L69.84,62.4 L63.744,49.824 L76.944,45.264 L76.944,34.704 L63.744,30.144 L69.84,17.568 L62.4,10.08 L49.824,16.176 L45.264,2.976 L34.704,2.976 L30.144,16.176 L17.568,10.08 L10.08,17.52 L16.176,30.096 L2.976,34.656 L2.976,45.216 L16.176,49.776 L10.08,62.4 L17.52,69.84 L30.096,63.744 L34.704,76.944 Z M39.984,52.896 C32.832,52.896 27.024,47.088 27.024,39.984 C27.024,32.832 32.832,27.072 39.984,27.072 C47.136,27.072 52.896,32.88 52.896,39.984 C52.896,47.088 47.136,52.896 39.984,52.896 Z M39.984,29.808 C34.368,29.808 29.808,34.368 29.808,39.984 C29.808,45.6 34.368,50.16 39.984,50.16 C45.6,50.16 50.16,45.6 50.16,39.984 C50.16,34.368 45.6,29.808 39.984,29.808 Z" id="Shape" fill="#4A555F"></path>
                <path d="M37.008,73.728 L31.968,59.28 L18.192,65.952 L13.968,61.728 L20.64,47.952 L6.24,42.912 L6.24,36.96 L20.688,31.92 L14.016,18.144 L18.24,13.92 L32.016,20.592 L37.056,6.144 L43.008,6.144 L48.048,20.592 L61.824,13.92 L66.048,18.144 L59.376,31.92 L73.824,36.96 L73.824,42.912 L59.376,47.952 L66.048,61.728 L61.824,65.952 L48.048,59.28 L43.008,73.728 L37.008,73.728 Z M39.984,23.76 C31.056,23.76 23.808,31.008 23.808,39.936 C23.808,48.864 31.056,56.112 39.984,56.112 C48.912,56.112 56.16,48.864 56.16,39.936 C56.16,31.008 48.912,23.76 39.984,23.76 Z" id="Shape" fill="#F68F6F"></path>
            </g>
        </g>
    </g>
</svg>