<?xml version="1.0" encoding="UTF-8"?>
<svg width="200px" height="200px" viewBox="0 0 200 200" version="1.1" xmlns="http://www.w3.org/2000/svg" xmlns:xlink="http://www.w3.org/1999/xlink">
    <!-- Generator: Sketch 53.2 (72643) - https://sketchapp.com -->
    <title>3.0-everywhere-application</title>
    <desc>Created with Sketch.</desc>
    <g id="3.0-everywhere-application" stroke="none" stroke-width="1" fill="none" fill-rule="evenodd">
        <g id="ONLINE-PRESENCE-Copy-2" transform="translate(10.000000, 16.000000)" fill-rule="nonzero">
            <path d="M173.755859,60.2743697 L141.521875,60.2743697 C138.585156,60.2743697 136.277734,57.8886555 136.277734,55.0117647 L136.277734,31.6457983 C136.277734,28.6987395 138.655078,26.3831933 141.521875,26.3831933 L173.755859,26.3831933 C176.692578,26.3831933 179,28.7689076 179,31.6457983 L179,55.0117647 C179,57.8886555 176.622656,60.2743697 173.755859,60.2743697 Z M173.755859,28.4180672 L141.521875,28.4180672 C139.773828,28.4180672 138.305469,29.8915966 138.305469,31.6457983 L138.305469,55.0117647 C138.305469,56.7659664 139.773828,58.2394958 141.521875,58.2394958 L173.755859,58.2394958 C175.503906,58.2394958 176.972266,56.7659664 176.972266,55.0117647 L176.972266,31.6457983 C176.972266,29.8214286 175.503906,28.4180672 173.755859,28.4180672 Z" id="Shape" fill="#4A555F"></path>
            <path d="M172.776953,30.9441176 L142.430859,30.9441176 C141.661719,30.9441176 140.9625,31.5756303 140.9625,32.4176471 L140.9625,54.310084 C140.9625,55.0819328 141.591797,55.7836134 142.430859,55.7836134 L172.776953,55.7836134 C173.546094,55.7836134 174.245312,55.1521008 174.245312,54.310084 L174.245312,32.4176471 C174.245312,31.5756303 173.546094,30.9441176 172.776953,30.9441176 Z M152.919141,49.047479 L152.919141,38.5222689 C152.919141,37.9609244 153.548437,37.539916 154.037891,37.8205882 L163.407422,43.0831933 C163.966797,43.3638655 163.966797,44.1357143 163.407422,44.4163866 L154.037891,49.6789916 C153.618359,49.9596639 152.919141,49.6088235 152.919141,49.047479 Z" id="Shape" fill="#FFD552"></path>
            <path d="M151.800391,52.4857143 L151.800391,35.1542017 L167.253125,43.7848739 L151.800391,52.4857143 Z M153.828125,38.662605 L153.828125,48.9773109 L163.057813,43.855042 L153.828125,38.662605 Z" id="Shape" fill="#4A555F"></path>
            <g id="Group" transform="translate(62.929687, 0.000000)">
                <g transform="translate(0.000000, 17.542017)">
                    <g>
                        <g transform="translate(12.585938, 2.105042)" id="Path">
                            <path d="M38.4570313,23.9273109 L36.5691406,23.9273109 L36.5691406,21.892437 L38.4570313,21.892437 C39.5058594,21.892437 40.3449219,21.0504202 40.3449219,19.9978992 L40.3449219,18.4542017 C40.3449219,17.4016807 39.5058594,16.5596639 38.4570313,16.5596639 L38.2472656,16.5596639 L38.2472656,14.5247899 L38.4570313,14.5247899 C40.6246094,14.5247899 42.4425781,16.2789916 42.4425781,18.5243697 L42.4425781,20.0680672 C42.3726563,22.1731092 40.6246094,23.9273109 38.4570313,23.9273109 Z" fill="#4A555F"></path>
                            <polygon fill="#E0E0E0" points="38.2472656 16.7701681 38.3871094 16.7701681"></polygon>
                            <path d="M37.4082031,29.260084 L8.390625,29.260084 L0.629296875,25.1903361 L0.629296875,2.38571429 L3.6359375,0 L4.89453125,1.61386555 L2.65703125,3.36806723 L2.65703125,23.997479 L8.88007813,27.2953782 L37.4082031,27.2953782 C38.0375,27.2953782 38.5269531,26.8042017 38.5269531,26.1726891 L38.5269531,25.05 C38.5269531,24.4184874 38.0375,23.9273109 37.4082031,23.9273109 L37.2683594,23.9273109 L37.2683594,21.892437 L37.4082031,21.892437 C39.15625,21.892437 40.5546875,23.2957983 40.5546875,25.05 L40.5546875,26.1726891 C40.5546875,27.8567227 39.15625,29.260084 37.4082031,29.260084 Z" fill="#4A555F"></path>
                        </g>
                        <path d="M15.2429687,30.6634454 L0.41953125,30.6634454 L0.41953125,0.561344538 L15.2429687,0.561344538 L15.2429687,30.6634454 Z M2.5171875,28.5584034 L13.2152344,28.5584034 L13.2152344,2.59621849 L2.5171875,2.59621849 L2.5171875,28.5584034 Z" id="Shape" fill="#4A555F"></path>
                        <rect id="Rectangle" fill="#FFD552" x="4.82460938" y="4.98193277" width="6.01328125" height="21.2609244"></rect>
                        <ellipse id="Oval" fill="#4A555F" cx="7.83125" cy="7.15714286" rx="1.60820312" ry="1.61386555"></ellipse>
                    </g>
                    <rect id="Rectangle" fill="#4A555F" x="26.85" y="29.3302521" width="21.5359375" height="2.03487395"></rect>
                    <rect id="Rectangle" fill="#4A555F" x="47.3371094" y="9.12184874" width="5.10429688" height="2.03487395"></rect>
                    <rect id="Rectangle" fill="#4A555F" x="45.86875" y="16.5596639" width="5.10429688" height="2.03487395"></rect>
                    <rect id="Rectangle" fill="#4A555F" x="44.3304688" y="23.997479" width="5.10429688" height="2.03487395"></rect>
                </g>
                <path d="M49.9941406,48.9071429 L20.9765625,48.9071429 L13.2152344,44.837395 L13.2152344,22.0327731 L16.221875,19.6470588 L19.6480469,16.8403361 C19.9277344,16.6298319 20.1375,16.4193277 20.3472656,16.2789916 L20.3472656,16.2789916 L20.4871094,16.2088235 C20.8367188,15.9281513 21.1164063,15.7176471 21.1164063,15.7176471 C23.9132813,13.542437 25.9410156,10.6655462 27.1296875,7.36764706 L28.7378906,2.80672269 C29.2273438,1.47352941 30.4859375,0.561344538 31.884375,0.561344538 C33.0730469,0.561344538 34.1917969,1.19285714 34.7511719,2.24537815 C36.1496094,4.77142857 36.5691406,7.78865546 35.8,10.5953782 L33.3527344,19.5067227 L52.8609375,19.5067227 C53.7699219,19.5067227 54.6789063,19.857563 55.378125,20.4189076 C55.4480469,20.4890756 55.5878906,20.5592437 55.6578125,20.6995798 C55.8675781,20.910084 56.0074219,21.0504202 56.1472656,21.2609244 C56.5667969,21.892437 56.8464844,22.6642857 56.8464844,23.5063025 L56.8464844,24.9096639 C56.8464844,25.6815126 56.6367188,26.4533613 56.1472656,27.155042 C56.0074219,27.3655462 55.8675781,27.5760504 55.6578125,27.7163866 C55.5878906,27.7865546 55.4480469,27.9268908 55.378125,27.9970588 C55.3082031,28.0672269 55.1683594,28.137395 55.0984375,28.207563 C55.7277344,28.9092437 56.0773438,29.8214286 56.0773438,30.8037815 L56.0773438,32.347479 C56.0773438,33.1193277 55.8675781,33.8911765 55.378125,34.5928571 C55.0285156,35.0840336 54.6789063,35.4348739 54.1894531,35.7155462 C54.7488281,36.4172269 55.0984375,37.2592437 55.0984375,38.2415966 L55.0984375,39.7852941 C55.0984375,41.3289916 54.1894531,42.7323529 52.8609375,43.3638655 C53.0707031,43.7848739 53.2105469,44.3462185 53.2105469,44.837395 L53.2105469,45.960084 C53.140625,47.5037815 51.7421875,48.9071429 49.9941406,48.9071429 Z M21.4660156,46.8722689 L49.9941406,46.8722689 C50.6234375,46.8722689 51.1128906,46.3810924 51.1128906,45.7495798 L51.1128906,44.6268908 C51.1128906,43.9953782 50.6234375,43.5042017 49.9941406,43.5042017 L49.9941406,41.4693277 L51.0429688,41.4693277 C52.0917969,41.4693277 52.9308594,40.6273109 52.9308594,39.5747899 L52.9308594,38.0310924 C52.9308594,36.9785714 52.1617188,36.2067227 51.1128906,36.1365546 L49.9242188,36.0663866 L50.34375,34.1016807 L51.9519531,34.1016807 C52.58125,34.1016807 53.2105469,33.7508403 53.5601563,33.2596639 C53.7699219,32.9088235 53.9097656,32.5579832 53.9097656,32.2071429 L53.9097656,30.6634454 C53.9097656,29.8214286 53.2804688,29.0495798 52.5113281,28.8390756 C52.4414063,28.8390756 52.4414063,28.8390756 52.3714844,28.8390756 L51.3226563,28.6285714 L51.6722656,26.7340336 L52.7910156,26.6638655 C53.2105469,26.6638655 53.6300781,26.5235294 53.9796875,26.2428571 C54.0496094,26.1726891 54.0496094,26.1726891 54.1195313,26.102521 C54.1894531,26.0323529 54.259375,25.8920168 54.3292969,25.8218487 C54.5390625,25.4710084 54.6789063,25.1201681 54.6789063,24.7693277 L54.6789063,23.3659664 C54.6789063,22.944958 54.5390625,22.5941176 54.3292969,22.3134454 C54.259375,22.2432773 54.1894531,22.1029412 54.1195313,22.0327731 C54.0496094,21.962605 54.0496094,21.962605 53.9796875,21.892437 C53.6300781,21.6117647 53.2105469,21.4714286 52.7910156,21.4714286 L30.5558594,21.4714286 L33.7722656,9.96386555 C34.4015625,7.71848739 34.121875,5.26260504 32.9332031,3.22773109 C32.7234375,2.80672269 32.3039063,2.59621849 31.8144531,2.59621849 C31.2550781,2.59621849 30.8355469,2.94705882 30.6257813,3.43823529 L29.0175781,7.99915966 C27.7589844,11.7180672 25.3816406,14.9457983 22.3050781,17.3315126 L21.815625,16.7 L21.815625,16.7 L22.2351563,17.3315126 C22.2351563,17.3315126 21.6757813,17.752521 20.8367188,18.4542017 L17.4105469,21.2609244 L15.1730469,23.0151261 L15.1730469,43.6445378 L21.4660156,46.8722689 Z" id="Shape" fill="#4A555F"></path>
                <path d="M22.0253906,44.5567227 L17.5503906,42.2411765 L17.5503906,24.1378151 L18.8789063,23.0852941 C19.2984375,22.7344538 19.7179688,22.4537815 20.0675781,22.1029412 C20.4871094,21.7521008 20.9066406,21.4012605 21.3261719,21.1205882 C23.2839844,19.5768908 25.3117188,18.0331933 26.9898438,16.0684874 C27.6191406,15.3668067 28.1785156,14.594958 28.7378906,13.8231092 C28.9476563,13.542437 29.2972656,13.4021008 29.646875,13.542437 L29.646875,13.542437 C29.9964844,13.6827731 30.1363281,14.0336134 30.0664063,14.4546218 L27.409375,23.9273109 L47.1972656,23.9273109 L45.5890625,25.1201681 C44.8898438,25.6113445 44.4703125,26.3831933 44.3304687,27.2252101 C44.2605469,27.5058824 44.2605469,27.7163866 44.2605469,27.9970588 C44.3304687,29.189916 45.0996094,30.242437 46.1484375,30.7336134 L47.9664062,31.6457983 L45.86875,31.9264706 C44.5402344,32.1369748 43.4214844,33.1193277 43.1417969,34.3823529 L43.1417969,34.3823529 C42.9320312,35.2945378 43.071875,36.3470588 43.63125,37.1189076 C43.9109375,37.539916 44.2605469,37.8907563 44.75,38.1012605 L46.4980469,39.0836134 L44.4703125,39.2941176 C43.071875,39.4344538 41.953125,40.4869748 41.6035156,41.8201681 L41.5335937,41.9605042 C41.39375,42.5218487 41.39375,43.1533613 41.6035156,43.7147059 L41.8832031,44.5567227 L22.0253906,44.5567227 Z" id="Path" fill="#E0E0E0"></path>
            </g>
            <g id="Group" transform="translate(47.546875, 79.991597)">
                <polygon id="Path" fill="#EC8D53" points="75.3058594 53.8189076 75.3058594 12.2092437 11.3972656 12.2092437 11.3972656 53.8189076"></polygon>
                <path d="M79.0816406,71.2205882 L7.20195312,71.2205882 C3.42617187,71.2205882 0.349609375,68.1331933 0.349609375,64.3441176 L0.349609375,7.22731092 C0.349609375,3.43823529 3.42617188,0.350840336 7.20195312,0.350840336 L79.0816406,0.350840336 C82.8574219,0.350840336 85.9339844,3.43823529 85.9339844,7.22731092 L85.9339844,64.3441176 C85.9339844,68.1331933 82.8574219,71.2205882 79.0816406,71.2205882 Z M7.20195312,2.45588235 C4.54492188,2.45588235 2.37734375,4.63109244 2.37734375,7.29747899 L2.37734375,64.4142857 C2.37734375,67.0806723 4.54492187,69.2558824 7.20195312,69.2558824 L79.0117187,69.2558824 C81.66875,69.2558824 83.8363281,67.0806723 83.8363281,64.4142857 L83.8363281,7.29747899 C83.8363281,4.63109244 81.66875,2.52605042 79.0816406,2.52605042 L7.20195312,2.52605042 L7.20195312,2.45588235 Z M79.7109375,58.2394958 L6.9921875,58.2394958 L6.9921875,7.71848739 L79.7109375,7.71848739 L79.7109375,58.2394958 Z M9.01992188,56.2046218 L77.6832031,56.2046218 L77.6832031,9.82352941 L9.01992188,9.82352941 L9.01992188,56.2046218 Z" id="Shape" fill="#4A555F"></path>
                <path d="M7.20195312,66.8 C5.8734375,66.8 4.7546875,65.6773109 4.7546875,64.3441176 L4.7546875,60.6252101 L81.3890625,60.6252101 L81.3890625,64.3441176 C81.3890625,65.6773109 80.2703125,66.8 78.9417969,66.8 L7.20195312,66.8 Z" id="Path" fill="#E0E0E0"></path>
                <path d="M57.4757812,81.2546218 L29.646875,81.2546218 L34.68125,69.1155462 L52.4414062,69.1155462 L57.4757812,81.2546218 Z M32.7234375,79.2197479 L54.3992187,79.2197479 L51.1128906,71.2205882 L36.0796875,71.2205882 L32.7234375,79.2197479 Z" id="Shape" fill="#4A555F"></path>
                <path d="M68.0339844,86.5172269 L19.01875,86.5172269 L19.01875,79.2197479 L68.0339844,79.2197479 L68.0339844,86.5172269 Z M21.1164062,84.4823529 L66.00625,84.4823529 L66.00625,81.3247899 L21.1164062,81.3247899 L21.1164062,84.4823529 Z" id="Shape" fill="#4A555F"></path>
                <rect id="Rectangle" fill="#4A555F" x="3.56601562" y="84.4823529" width="79.9207031" height="2.03487395"></rect>
                <ellipse id="Oval" fill="#FFFFFF" cx="43.63125" cy="63.7827731" rx="3.14648438" ry="3.15756303"></ellipse>
                <path d="M43.63125,67.9928571 C41.3238281,67.9928571 39.4359375,66.0983193 39.4359375,63.7827731 C39.4359375,61.4672269 41.3238281,59.5726891 43.63125,59.5726891 C45.9386719,59.5726891 47.8265625,61.4672269 47.8265625,63.7827731 C47.7566406,66.0983193 45.9386719,67.9928571 43.63125,67.9928571 Z M43.63125,61.6777311 C42.4425781,61.6777311 41.5335937,62.660084 41.5335937,63.7827731 C41.5335937,64.9756303 42.5125,65.8878151 43.63125,65.8878151 C44.8199219,65.8878151 45.7289062,64.9054622 45.7289062,63.7827731 C45.7289062,62.589916 44.75,61.6777311 43.63125,61.6777311 Z" id="Shape" fill="#4A555F"></path>
            </g>
            <g id="Group" transform="translate(0.000000, 25.962185)">
                <path d="M12.3761719,38.9432773 L1.46835937,38.9432773 L1.46835937,37.0487395 L15.6625,27.2953782 C4.61484375,23.2957983 0.209765625,12.1390756 0,11.6478992 L0,10.2445378 L26.7800781,10.2445378 C27.2695312,4.84159664 31.8144531,0.561344538 37.3382812,0.561344538 C40.9742187,0.561344538 44.3304687,2.45588235 46.2183594,5.47310924 L53.2804687,5.47310924 L53.2804687,7.36764706 L50.5535156,8.98151261 L52.9308594,8.98151261 L52.9308594,10.8058824 L48.0363281,14.594958 C47.2671875,15.1563025 46.7078125,15.8579832 46.2183594,16.7 L46.1484375,16.9105042 C45.86875,17.4016807 45.5890625,17.9630252 45.3792969,18.6647059 C39.9953125,35.4348739 24.4726562,38.9432773 12.3761719,38.9432773 Z M5.38398438,36.9084034 L12.4460938,36.9084034 C23.8433594,36.9084034 38.4570312,33.6105042 43.4214844,18.0331933 C43.7011719,17.1911765 43.9808594,16.4894958 44.4003906,15.8579832 L44.4703125,15.7176471 C45.0996094,14.6651261 45.86875,13.8231092 46.7777344,13.0512605 L49.2949219,11.0865546 L46.2882812,11.0865546 L46.2882812,9.12184874 L49.0152344,7.50798319 L45.0996094,7.50798319 L44.75,7.01680672 C43.2117187,4.35042017 40.4148437,2.66638655 37.3382812,2.66638655 C32.6535156,2.66638655 28.8078125,6.52563025 28.8078125,11.2268908 C28.8078125,11.2268908 28.8078125,11.2970588 28.8078125,11.3672269 L28.8078125,12.4197479 L2.58710938,12.4197479 C4.26523438,15.647479 9.43945312,23.6466387 18.5992187,26.0323529 L18.5992187,27.8567227 L5.38398438,36.9084034 Z" id="Shape" fill="#4A555F"></path>
                <path d="M26.0808594,25.5411765 L18.8789062,23.6466387 C13.0753906,22.1029412 9.15976562,18.0331933 6.85234375,14.7352941 L31.325,14.7352941 L31.2550781,11.1567227 L31.2550781,11.0865546 C31.325,7.71848739 34.0519531,4.98193277 37.4082031,4.98193277 C39.6457031,4.98193277 41.6734375,6.17478992 42.7921875,8.1394958 L42.9320313,8.42016807 L39.0164062,11.7180672 L43.1417969,13.4722689 C42.9320313,13.7529412 42.7222656,14.1037815 42.5125,14.4546218 L42.4425781,14.594958 C41.953125,15.3668067 41.5335938,16.2789916 41.2539062,17.2613445 C37.6878906,28.4882353 28.2484375,34.3121849 13.2152344,34.452521 L26.0808594,25.5411765 Z" id="Path" fill="#71CDE1"></path>
            </g>
            <path d="M55.7277344,70.2382353 L54.3992188,68.6945378 L55.9375,67.3613445 L57.2660156,68.905042 L55.7277344,70.2382353 Z M53.0007813,67.1508403 L51.6722656,65.6071429 L53.2105469,64.2739496 L54.5390625,65.8176471 L53.0007813,67.1508403 Z M50.2738281,63.9932773 L48.9453125,62.4495798 L50.4835938,61.1163866 L51.8121094,62.660084 L50.2738281,63.9932773 Z" id="Shape" fill="#4A555F"></path>
            <path d="M125.509766,70.8697479 L123.971484,69.5365546 L125.3,67.9928571 L126.838281,69.3260504 L125.509766,70.8697479 Z M128.166797,67.7121849 L126.628516,66.3789916 L127.957031,64.8352941 L129.495313,66.1684874 L128.166797,67.7121849 Z M130.89375,64.6247899 L129.355469,63.2915966 L130.683984,61.7478992 L132.222266,63.0810924 L130.89375,64.6247899 Z" id="Shape" fill="#4A555F"></path>
            <path d="M92.85625,69.6067227 L90.8285156,69.6067227 L90.8285156,67.5718487 L92.85625,67.5718487 L92.85625,69.6067227 Z M92.85625,65.4668067 L90.8285156,65.4668067 L90.8285156,63.4319328 L92.85625,63.4319328 L92.85625,65.4668067 Z M92.85625,61.3970588 L90.8285156,61.3970588 L90.8285156,59.3621849 L92.85625,59.3621849 L92.85625,61.3970588 Z M92.85625,57.2571429 L90.8285156,57.2571429 L90.8285156,55.2222689 L92.85625,55.2222689 L92.85625,57.2571429 Z" id="Shape" fill="#4A555F"></path>
        </g>
    </g>
</svg>