<svg height="32" viewBox="0 0 32 32" width="32" xmlns="http://www.w3.org/2000/svg"><g fill="#6366f1"><path d="m31.992 31.4074074v-.0013086h.008v-11.5186667c0-5.6350123-1.236-9.97577778-7.948-9.97577778-3.2266667 0-5.392 1.73787658-6.276 3.38545678h-.0933333v-2.8593827h-6.364v20.9683704h6.6266666v-10.3827655c0-2.7337531.528-5.3772098 3.9773334-5.3772098 3.3986666 0 3.4493333 3.1198024 3.4493333 5.5525679v10.208716z"/><path d="m.528 10.439037h6.63466667v20.9683704h-6.63466667z"/><path d="m3.84266667 0c-2.12133334 0-3.84266667 1.68945679-3.84266667 3.77150617 0 2.08204939 1.72133333 3.80683951 3.84266667 3.80683951 2.12133333 0 3.84266666-1.72479012 3.84266666-3.80683951-.00133333-2.08204938-1.72266666-3.77150617-3.84266666-3.77150617z"/></g></svg>