<svg height="32" viewBox="0 0 32 32" width="32" xmlns="http://www.w3.org/2000/svg"><path d="m15.998 0c-8.834 0-15.998 7.21373902-15.998 16.1125561 0 7.1174489 4.584 13.1556453 10.944 15.2880715.8.1484474 1.092-.3490519 1.092-.7763395 0-.3831547-.014-1.3962076-.022-2.740258-4.45.972932-5.39-2.1605108-5.39-2.1605108-.726-1.8616101-1.776-2.3571033-1.776-2.3571033-1.454-.9990105.108-.9789501.108-.9789501 1.606.1143446 2.45 1.6610056 2.45 1.6610056 1.428 2.4614176 3.746 1.7512775 4.658 1.3380322.144-1.0411375.558-1.7512776 1.016-2.1544927-3.552-.4072272-7.288-1.7893924-7.288-7.9619939 0-1.7593018.624-3.1976363 1.648-4.3250338-.166-.4072272-.714-2.0461662.156-4.2628463 0 0 1.344-.43330579 4.4 1.65097531 1.276-.35707607 2.644-.5356141 4.006-.54163224 1.358.00802419 2.728.18455617 4.006.54363829 3.054-2.0842811 4.396-1.65097531 4.396-1.65097531.872 2.21868614.324 3.85561915.16 4.26284635 1.026 1.1273975 1.644 2.565732 1.644 4.3250337 0 6.1886499-3.74 7.5507547-7.304 7.9499577.574.4974992 1.086 1.4804614 1.086 2.9829894 0 2.1544927-.02 3.8917279-.02 4.4193179 0 .4312997.288.932811 1.1.7743335 6.35-2.1344323 10.93-8.1706227 10.93-15.2860655 0-8.89881708-7.164-16.1125561-16.002-16.1125561z" fill="#6366f1"/></svg>