<svg height="91" viewBox="0 0 91 91" width="91" xmlns="http://www.w3.org/2000/svg" xmlns:xlink="http://www.w3.org/1999/xlink"><defs><circle id="a" cx="42.5" cy="42.5" r="42.5"/><filter id="b" height="111.8%" width="111.8%" x="-5.9%" y="-4.7%"><feMorphology in="SourceAlpha" operator="dilate" radius="0.5" result="shadowSpreadOuter1"/><feOffset dx="0" dy="1" in="shadowSpreadOuter1" result="shadowOffsetOuter1"/><feGaussianBlur in="shadowOffsetOuter1" result="shadowBlurOuter1" stdDeviation="1"/><feColorMatrix in="shadowBlurOuter1" type="matrix" values="0 0 0 0 0   0 0 0 0 0   0 0 0 0 0  0 0 0 0.11324369 0"/></filter><linearGradient id="c" x1="16.476305%" x2="84.454632%" y1="6.865222%" y2="91.53361%"><stop offset="0" stop-color="#6366f1"/><stop offset="1"/></linearGradient></defs><g fill="none" fill-rule="evenodd"><g transform="translate(3 2)"><use fill="#000" filter="url(#b)" xlink:href="#a"/><use fill="#fff" fill-rule="evenodd" xlink:href="#a"/></g><g fill-rule="nonzero" transform="translate(20 21)"><path d="m32.4889141 25.1022638h-30.89109225c-.88200076 0-1.59782185-.7178111-1.59782185-1.6022638s.71582109-1.6022638 1.59782185-1.6022638h30.89109225c.8820008 0 1.5978219.7178111 1.5978219 1.6022638s-.7158211 1.6022638-1.5978219 1.6022638z" fill="#6366f1"/><path d="m23.9673277 33.6475405c-.4092078 0-.8180255-.1556886-1.1293199-.4698043-.6241492-.6258844-.6241492-1.6405993 0-2.2668748l7.3926567-7.4128173-7.3926567-7.4132085c-.6241492-.6258843-.6241492-1.6409904 0-2.2668747.6245392-.6258843 1.6364411-.6258843 2.2605902 0l8.5215865 8.5456679c.6241492.6258843.6241492 1.6405992 0 2.2664835l-8.5215865 8.5452768c-.3132448.3164628-.7220625.4721514-1.1312703.4721514z" fill="#6366f1"/><path d="m25.5651495 47c-9.6957671 0-18.25558272-5.8492801-21.81128238-14.903479-.32377743-.8202996.08074932-1.7516938.9011153-2.0763712.81802556-.3203746 1.74917802.079018 2.07295544.9059675 3.07003363 7.8169039 10.46464074 12.869355 18.83721164 12.869355 11.1590069 0 20.2392068-9.1054431 20.2392068-20.2954723s-9.0801999-20.29547233-20.2392068-20.29547233c-8.3725709 0-15.76717801 5.0524511-18.83721164 12.86935503-.32611793.8269495-1.25492988 1.2263421-2.07295544.9059675-.82036598-.3246774-1.22489273-1.2560716-.9011153-2.0763712 3.55569966-9.05419886 12.11551528-14.903479 21.81128238-14.903479 12.9210579 0 23.4348505 10.5430212 23.4348505 23.5s-10.5137926 23.5-23.4348505 23.5z" fill="url(#c)"/></g></g></svg>