<svg height="91" viewBox="0 0 91 91" width="91" xmlns="http://www.w3.org/2000/svg" xmlns:xlink="http://www.w3.org/1999/xlink"><defs><circle id="a" cx="42.5" cy="42.5" r="42.5"/><filter id="b" height="111.8%" width="111.8%" x="-5.9%" y="-4.7%"><feMorphology in="SourceAlpha" operator="dilate" radius="0.5" result="shadowSpreadOuter1"/><feOffset dx="0" dy="1" in="shadowSpreadOuter1" result="shadowOffsetOuter1"/><feGaussianBlur in="shadowOffsetOuter1" result="shadowBlurOuter1" stdDeviation="1"/><feColorMatrix in="shadowBlurOuter1" type="matrix" values="0 0 0 0 0   0 0 0 0 0   0 0 0 0 0  0 0 0 0.11324369 0"/></filter><linearGradient id="c" x1="50%" x2="50%" y1="0%" y2="79.816229%"><stop offset="0" stop-color="#6366f1"/><stop offset="1"/></linearGradient></defs><g fill="none" fill-rule="evenodd"><g transform="translate(3 2)"><use fill="#000" filter="url(#b)" xlink:href="#a"/><use fill="#fff" fill-rule="evenodd" xlink:href="#a"/></g><g fill-rule="nonzero" transform="translate(20 19)"><path d="m25.5 0c-14.0834427 0-25.5 11.4165573-25.5 25.5 0 14.0830535 11.4165573 25.5 25.5 25.5 14.0830535 0 25.5-11.4169465 25.5-25.5-.0163421-14.0764389-11.4235611-25.48365789-25.5-25.5zm0 48.4498444c-12.6749039 0-22.95023348-10.2749405-22.95023348-22.9498444s10.27532958-22.95023348 22.95023348-22.95023348 22.9498444 10.27532958 22.9498444 22.95023348c-.0140077 12.6690674-10.280777 22.9358367-22.9498444 22.9498444z" fill="url(#c)" stroke="url(#c)"/><path d="m25.5301689 14.2176301c1.9745128.0083971 3.7586516.8162784 5.0470911 2.1156425 1.2884751 1.2993998 2.0812241 3.0903089 2.0728935 5.064449-.0108132 2.2946068-1.1219004 4.4527867-3.001901 5.7936911l2.927578 7.8937316c.016216.3647516-.0454238.6526757-.1843412.8523046-.1233667.1772817-.3106872.2623955-.5164893.2623955h-12.6750787c-.3474351-.111477-.5958288-.2692382-.7346651-.4687702-.1233664-.1772991-.1380762-.3825551-.0667683-.5752456l2.9536994-7.9645706c-1.8983352-1.3527307-3.0118517-3.5380466-3.0018805-5.8540415.0083644-1.9743637.816169-3.7584371 2.1154762-5.0468316 1.2992888-1.2883761 3.0900662-2.0810862 5.0643859-2.0727548zm-.0301689 1.5825255c-1.5464333 0-2.9465299.6267894-3.9600066 1.6401888-1.0134525 1.0133752-1.6403048 2.4133385-1.6403048 3.9597334-.0002137.9948006.2659938 1.9516482.7481049 2.7833046.4821201.8316719 1.1801516 1.538148 2.0435755 2.0322967.1571114.0923552.2733532.2387188.3328203.4053528.0595283.1668054.0621742.3538966-.0029502.5303248l-2.7824188 7.4987211h10.5219318l-2.7822763-7.4994915c-.0650056-.1757875-.0623577-.3627159-.0029184-.5293899.0594606-.1667334.1757442-.3131931.337767-.4084659.8585187-.4911792 1.5566598-1.1976677 2.0387848-2.029348.4821298-.8316885.7482408-1.788573.7478134-2.7835195.0000001-1.5462045-.6267746-2.9461829-1.6401496-3.9595578-1.0133751-1.013375-2.4133536-1.6401496-3.959773-1.6401496z" fill="#6366f1" stroke="#6366f1"/></g></g></svg>