<?xml version="1.0" encoding="UTF-8"?>
<svg width="24px" height="24px" viewBox="0 0 24 24" version="1.1" xmlns="http://www.w3.org/2000/svg" xmlns:xlink="http://www.w3.org/1999/xlink">
    <title>shield-outline</title>
    <g id="Nav-System" stroke="none" stroke-width="1" fill="none" fill-rule="evenodd">
        <g id="shield-outline" fill-rule="nonzero">
            <rect id="Rectangle" fill="#000000" opacity="0" x="0" y="0" width="24" height="24"></rect>
            <path d="M12,21.85 C11.6505489,21.8554716 11.3057644,21.7692754 11,21.6 L10.7,21.43 C5.94272894,18.7384968 3.00120095,13.6958774 2.99991951,8.23 L2.99991951,8.09 C2.99354631,7.36906457 3.37560992,6.70045327 4,6.34 L11,2.4 C11.6188022,2.04273441 12.3811978,2.04273441 13,2.4 L20,6.34 C20.6243901,6.70045327 21.0064537,7.36906457 21.0000805,8.09 L21.0000805,8.23 C20.9947239,13.7000521 18.0449809,18.743654 13.28,21.43 L12.98,21.6 C12.6801468,21.7659176 12.3426902,21.8520035 12,21.85 L12,21.85 Z M12,4.15 L5,8.09 L5,8.23 C5.00342722,12.9760886 7.56404584,17.3520712 11.7,19.68 L12,19.85 L12.3,19.68 C16.4359542,17.3520712 18.9965728,12.9760886 19,8.23 L19,8.09 L12,4.15 Z" id="Shape" fill="#F58320"></path>
        </g>
    </g>
</svg>