<svg height="36" viewBox="0 0 36 36" width="36" xmlns="http://www.w3.org/2000/svg" xmlns:xlink="http://www.w3.org/1999/xlink"><mask id="a" fill="#fff"><path d="m0 0h36v36h-36z" fill="#fff" fill-rule="evenodd"/></mask><g fill="#3ddc84" fill-rule="evenodd" mask="url(#a)"><path d="m9.0785505.509916c-.27077-.481358-.88048-.652078-1.36184-.381314s-.65208.880474-.38131 1.361834l1.3543 2.40765c-2.12032 1.54466-3.53998 3.99321-3.69253 6.77926h17.97265c-.1572-2.87066-1.6596-5.38302-3.8876-6.91748l1.2765-2.26943c.2708-.48136.1001-1.09107-.3813-1.361834-.4813-.270764-1.091-.100044-1.3618.381314l-1.2969 2.30559c-1.0314-.41176-2.1569-.63821-3.3352-.63821-1.2632 0-2.4655.26023-3.5565.72999zm1.41717 6.37557c0 .45145-.366.81741-.81743.81741-.45145 0-.81741-.36596-.81741-.81741 0-.45144.36596-.8174.81741-.8174.45143 0 .81743.36596.81743.8174zm7.6836.81741c.4514 0 .8174-.36596.8174-.81741 0-.45144-.366-.8174-.8174-.8174s-.8174.36596-.8174.8174c0 .45145.366.81741.8174.81741zm-16.1793205 3.92355c-1.1045695 0-2 .8955-2 2v8c0 1.1046.8954305 2 2 2 1.1045705 0 2-.8954 2-2v-8c0-1.1045-.8954295-2-2-2zm20.9288205.3036h-17.99996v8c0 2.6134 1.43225 4.8924 3.55466 6.0948v6.1525c0 1.1045.89543 2 2 2 1.1046 0 2-.8955 2-2v-5.2473h3v5.4246c0 1.1045.8954 2 2 2s2-.8955 2-2v-6.3931c2.0621-1.2179 3.4453-3.4632 3.4453-6.0315zm1.0383 1.6964c0-1.1045.8954-2 2-2 1.1045 0 2 .8955 2 2v8c0 1.1046-.8955 2-2 2-1.1046 0-2-.8954-2-2z" transform="translate(4 2)"/></g></svg>