<?xml version="1.0" encoding="UTF-8"?>
<svg width="13px" height="11px" viewBox="0 0 13 11" version="1.1" xmlns="http://www.w3.org/2000/svg" xmlns:xlink="http://www.w3.org/1999/xlink">
    <title>arrow-forward-outline copy</title>
    <g id="Nav-System" stroke="none" stroke-width="1" fill="none" fill-rule="evenodd">
        <g id="arrow-forward-outline-copy" fill="#F5821F" fill-rule="nonzero">
            <path d="M0.8125,6.28514252 L10.44875,6.28514252 L7.499375,9.71054438 C7.21218693,10.0446462 7.25947685,10.5406055 7.605,10.8183005 C7.95052315,11.0959955 8.46343693,11.0502687 8.750625,10.7161669 L12.813125,6.00231118 C12.8404569,5.96481692 12.864898,5.92542839 12.88625,5.88446478 C12.88625,5.84518265 12.926875,5.82161337 12.943125,5.78233124 C12.9799528,5.6922505 12.9992353,5.59636113 13,5.4994999 C12.9992353,5.40263867 12.9799528,5.3067493 12.943125,5.21666855 C12.943125,5.17738642 12.9025,5.15381714 12.88625,5.11453501 C12.864898,5.0735714 12.8404569,5.03418288 12.813125,4.99668861 L8.750625,0.282832847 C8.59596035,0.103282005 8.36666369,-0.000377986962 8.125,0 C7.93515762,-0.000357155224 7.75117855,0.063574796 7.605,0.180699305 C7.43883796,0.313903571 7.33431738,0.505563146 7.31450125,0.713387406 C7.29468512,0.921211667 7.36120214,1.1281194 7.499375,1.28845541 L10.44875,4.71385727 L0.8125,4.71385727 C0.363768641,4.71385727 0,5.06560145 0,5.4994999 C0,5.93339834 0.363768641,6.28514252 0.8125,6.28514252 Z" id="Path"></path>
        </g>
    </g>
</svg>