<?xml version="1.0" encoding="UTF-8"?>
<svg width="32px" height="24px" viewBox="0 0 32 24" version="1.1" xmlns="http://www.w3.org/2000/svg" xmlns:xlink="http://www.w3.org/1999/xlink">
    <title>articles</title>
    <defs>
        <rect id="path-1" x="0" y="0" width="36" height="36"></rect>
    </defs>
    <g id="Docs" stroke="none" stroke-width="1" fill="none" fill-rule="evenodd">
        <g id="docs-landing-page" transform="translate(-1041, -2861)">
            <g id="articles" transform="translate(1039, 2855)">
                <mask id="mask-2" fill="white">
                    <use xlink:href="#path-1"></use>
                </mask>
                <g id="Mask"></g>
                <g id="scroll-solid" mask="url(#mask-2)" fill-rule="nonzero">
                    <g transform="translate(2, 6)" id="Path">
                        <path d="M0,2.57142857 L0,5.14285714 C0,6.09107143 0.794444444,6.85714286 1.77777778,6.85714286 L2.66666667,6.85714286 L5.33333333,6.85714286 L5.33333333,2.57142857 C5.33333333,1.15178571 4.13888889,0 2.66666667,0 C1.19444444,0 0,1.15178571 0,2.57142857 Z" fill="#1E293B"></path>
                        <path d="M25.7777778,24 C29.2166667,24 32,21.3160714 32,18 C32,17.5285714 31.6,17.1428571 31.1111111,17.1428571 L17.4833333,17.1428571 C16.6666667,17.1428571 16,17.7803571 16,18.5732143 L16,18.8571429 C16,21.6964286 13.6111111,24 10.6666667,24 L20.4444444,24 L25.7777778,24 Z" fill="#1E293B"></path>
                        <path d="M6.22222222,0 C6.77777778,0.717857143 7.11111111,1.60714286 7.11111111,2.57142857 L7.11111111,18.8571429 C7.11111111,20.7482143 8.70555556,22.2857143 10.6666667,22.2857143 C12.6277778,22.2857143 14.2222222,20.7482143 14.2222222,18.8571429 L14.2222222,18.5732143 C14.2222222,16.8375 15.6833333,15.4285714 17.4833333,15.4285714 L26.6666667,15.4285714 L26.6666667,5.14285714 C26.6666667,2.30357143 24.2777778,0 21.3333333,0 L6.22222222,0 Z" fill="#6366F1"></path>
                    </g>
                </g>
            </g>
        </g>
    </g>
</svg>
