<?xml version="1.0" encoding="UTF-8"?>
<svg width="91px" height="91px" viewBox="0 0 91 91" version="1.1" xmlns="http://www.w3.org/2000/svg" xmlns:xlink="http://www.w3.org/1999/xlink">
    <title>backend-api-icon</title>
    <defs>
        <circle id="path-1" cx="42.5" cy="42.5" r="42.5"></circle>
        <filter x="-5.9%" y="-4.7%" width="111.8%" height="111.8%" filterUnits="objectBoundingBox" id="filter-2">
            <feMorphology radius="0.5" operator="dilate" in="SourceAlpha" result="shadowSpreadOuter1"></feMorphology>
            <feOffset dx="0" dy="1" in="shadowSpreadOuter1" result="shadowOffsetOuter1"></feOffset>
            <feGaussianBlur stdDeviation="1" in="shadowOffsetOuter1" result="shadowBlurOuter1"></feGaussianBlur>
            <feColorMatrix values="0 0 0 0 0   0 0 0 0 0   0 0 0 0 0  0 0 0 0.11324369 0" type="matrix" in="shadowBlurOuter1"></feColorMatrix>
        </filter>
        <linearGradient x1="31.7115415%" y1="17.6855056%" x2="93.7400704%" y2="71.485629%" id="linearGradient-3">
            <stop stop-color="#6366F1" offset="0%"></stop>
            <stop stop-color="#000000" offset="100%"></stop>
        </linearGradient>
    </defs>
    <g id="Docs" stroke="none" stroke-width="1" fill="none" fill-rule="evenodd">
        <g id="docs-landing-page" transform="translate(-1340.000000, -386.000000)">
            <g id="backend-api-icon" transform="translate(1343.000000, 388.000000)">
                <g id="Oval-Copy-2">
                    <use fill="black" fill-opacity="1" filter="url(#filter-2)" xlink:href="#path-1"></use>
                    <use fill="#FFFFFF" fill-rule="evenodd" xlink:href="#path-1"></use>
                </g>
                <g id="coding" transform="translate(17.000000, 22.000000)" fill="url(#linearGradient-3)" fill-rule="nonzero">
                    <path d="M50.4783791,19.1733489 L38.6845398,6.53820262 C37.9596769,5.76079462 36.7497127,5.72533886 35.9809217,6.45893078 C35.2133261,7.19191833 35.1776657,8.41604886 35.9031262,9.19285249 L46.4583135,20.5000191 L35.9031262,31.8084952 C35.1776657,32.5852988 35.2133261,33.808825 35.9809217,34.5424169 C36.3506745,34.8950607 36.8230258,35.0697207 37.293584,35.0697207 C37.8016953,35.0697207 38.3091093,34.8660515 38.6846395,34.4643537 L50.4784787,21.8286031 C51.173857,21.0828233 51.173857,19.9185244 50.4783791,19.1733489 Z M15.097459,31.8078908 L4.54296895,20.5000191 L15.097459,9.19224813 C15.8223219,8.4154445 15.7872591,7.19121325 15.0190658,6.45832642 C14.2514702,5.72533886 13.040211,5.76079462 12.3154477,6.53759826 L0.52160844,19.1727445 C-0.17386948,19.91792 -0.17386948,21.0828233 0.52160844,21.8280995 L12.3160454,34.4638501 C12.6921732,34.8667566 13.1989895,35.0698214 13.7071008,35.0698214 C14.1775594,35.0698214 14.6500103,34.8944564 15.0190658,34.5418125 C15.7879564,33.808825 15.8223219,32.5846944 15.097459,31.8078908 Z M28.5941334,0.0220973315 C27.5505181,-0.137755802 26.5738408,0.586770721 26.4144646,1.64208344 L20.8044221,38.7739419 C20.6450459,39.8298589 21.3622388,40.816879 22.4064518,40.9780416 C22.5046674,40.9928484 22.6014884,41 22.6978114,41 C23.6266759,41 24.4413871,40.3147569 24.5861206,39.3580555 L30.1961631,2.22619707 C30.3555393,1.17017926 29.6383464,0.183259911 28.5941334,0.0220973315 Z" id="Combined-Shape"></path>
                </g>
            </g>
        </g>
    </g>
</svg>