<?xml version="1.0" encoding="UTF-8"?>
<svg width="36px" height="36px" viewBox="0 0 36 36" version="1.1" xmlns="http://www.w3.org/2000/svg" xmlns:xlink="http://www.w3.org/1999/xlink">
    <title>blog</title>
    <defs>
        <rect id="path-1" x="0" y="0" width="36" height="36"></rect>
    </defs>
    <g id="Docs" stroke="none" stroke-width="1" fill="none" fill-rule="evenodd">
        <g id="docs-landing-page" transform="translate(-991.000000, -2573.000000)">
            <g id="blog" transform="translate(991.000000, 2573.000000)">
                <mask id="mask-2" fill="white">
                    <use xlink:href="#path-1"></use>
                </mask>
                <g id="Mask"></g>
                <path d="M12.75,9.25 C12.75,6.35050506 15.1005051,4 18,4 C20.8994949,4 23.25,6.35050506 23.25,9.25 C23.25,12.1494949 20.8994949,14.5 18,14.5 C15.1005051,14.5 12.75,12.1494949 12.75,9.25 Z" id="Path" fill="#1E293B" fill-rule="nonzero" mask="url(#mask-2)"></path>
                <path d="M17.125,17.5625 L17.125,32 L14.478125,30.6765625 C13.3351562,30.1078125 12.0992188,29.746875 10.825,29.6210938 L5.575,29.0960937 C4.68359375,29.003125 4,28.2539062 4,27.3515625 L4,16.25 C4,15.2820313 4.78203125,14.5 5.75,14.5 L7.40703125,14.5 C10.8851563,14.5 14.2757812,15.571875 17.125,17.5625 Z" id="Path" fill="#1E293B" fill-rule="nonzero" mask="url(#mask-2)"></path>
                <path d="M18.875,32 L18.875,17.5625 C21.7242188,15.571875 25.1148438,14.5 28.5929687,14.5 L30.25,14.5 C31.2179687,14.5 32,15.2820313 32,16.25 L32,27.3515625 C32,28.2484375 31.3164062,29.003125 30.425,29.090625 L25.175,29.615625 C23.90625,29.7414063 22.6648437,30.1023438 21.521875,30.6710938 L18.875,32 Z" id="Path" fill="#6366F1" fill-rule="nonzero" mask="url(#mask-2)"></path>
            </g>
        </g>
    </g>
</svg>