<svg height="125" viewBox="0 0 125 125" width="125" xmlns="http://www.w3.org/2000/svg" xmlns:xlink="http://www.w3.org/1999/xlink"><defs><rect id="a" height="125" rx="5" width="125"/><mask id="b" fill="#fff"><use fill="#fff" fill-rule="evenodd" xlink:href="#a"/></mask></defs><g fill="none" fill-rule="evenodd"><use fill="#f58320" xlink:href="#a"/><g fill="#1d1c21" fill-rule="nonzero" mask="url(#b)"><g transform="translate(-12 22)"><path d="m73.7027266 28.8079492c-3.9074459 0-7.0862326 3.1788965-7.0862326 7.0862012v7.201875c0 3.9073047 3.1787867 7.0859766 7.0862326 7.0859766 3.9074458 0 7.0862326-3.1788965 7.0862326-7.0859766v-7.201875c0-3.9073047-3.1787868-7.0862012-7.0862326-7.0862012zm3.7171948 14.2880762c0 2.0495605-1.6673356 3.7168359-3.7169702 3.7168359s-3.7169703-1.6672754-3.7169703-3.7168359v-7.201875c0-2.0495606 1.6673357-3.7170606 3.7169703-3.7170606s3.7169702 1.6675 3.7169702 3.7170606z"/><path d="m62.8997483 28.8077246c-.9303656 0-1.6848558.7544629-1.6848558 1.6847949v12.6035059c0 2.0495605-1.6673356 3.7168359-3.7169702 3.7168359-.9182363 0-1.79986-.3373633-2.4822479-.9503222-.6922711-.6214942-1.7574073-.5644434-2.3789239.1278027-.6217412.6922461-.5644637 1.7573437.1278074 2.3788379 1.3016584 1.1688672 2.9829203 1.8125976 4.733589 1.8125976 3.9074459 0 7.0862326-3.1788964 7.0862326-7.0859765v-12.6035059c0-.930332-.7542655-1.6845703-1.6846312-1.6845703z"/><path d="m94.0598098 37.3588281c.7091174-.8997851 1.1338691-2.0336133 1.1338691-3.2653711 0-2.9145312-2.3710623-5.2855078-5.2856988-5.2855078h-5.4018261c-.9303656 0-1.6846312.7542383-1.6846312 1.6845703v7.201875 10.8030371c0 .9303321.7542656 1.6845704 1.6846312 1.6845704h5.4018261c3.9074458 0 7.0862326-3.1788965 7.0862326-7.0859766 0-2.3575-1.1581278-4.4483887-2.9344029-5.7371973zm-7.8690246-5.1817383h3.7171949c1.0568253 0 1.9164364.8598047 1.9164364 1.9163672 0 1.0567871-.8598357 1.9163672-1.9164364 1.9163672h-3.7171949zm3.7171949 14.6357715h-3.7171949v-7.4338965h3.7171949c2.0496346 0 3.7169702 1.6675 3.7169702 3.7170606 0 2.0495605-1.6673356 3.7168359-3.7169702 3.7168359z"/><path d="m100.85359 19.5163086c-.576817-.7302051-1.636338-.8544141-2.3663449-.2778418-.7300068.5765723-.8544449 1.6360547-.2778518 2.3660352 9.0799377 11.4950585 8.1111627 27.978916-2.2529134 38.3426171-10.3643003 10.3637012-26.8483041 11.3324414-38.3440027 2.2528321-.7302315-.5765723-1.7893029-.4521387-2.3663453.2778418-.5765931.7299804-.4523796 1.7894629.2778519 2.3660351 5.8876737 4.6503125 12.9462783 6.9397559 19.9808489 6.9397559 8.3018625 0 16.5698077-3.190127 22.8341649-9.4542578 11.5720684-11.5716504 12.6531524-29.9772657 2.5145924-42.8130176z"/><path d="m95.4829862 14.1458984c-12.8364404-10.13864254-31.2427207-9.05737301-42.8147892 2.5142774-11.5722931 11.5720996-12.6533771 29.9777148-2.5145928 42.8132422.3324339.4209179.8254693.6405859 1.3232216.6405859.3656773 0 .73405-.1183691 1.0431237-.3627441.7300068-.5765723.8544449-1.6360547.2776272-2.3660352-9.0799375-11.494834-8.1113869-27.9786914 2.2529134-38.3426172 10.3643003-10.36370115 26.8485287-11.33221678 38.3440027-2.252832.7302314.5767969 1.7893029.4521387 2.3663452-.2778418.5765931-.7299805.4523797-1.7894629-.2778518-2.3660352z"/><path d="m75.503485 0c-21.7784627 0-39.4962904 17.7174121-39.4962904 39.4950879 0 10.2841894 3.952594 19.6614062 10.4166361 26.6963965l-6.0312042 6.0309863-1.3551173-1.3550684c-.9982002-.9983886-2.3256895-1.5482324-3.7376351-1.5482324-1.4119455 0-2.7392103.5498438-3.737635 1.5482324l-28.96352704 28.9622559c-3.46494941 3.4648238-3.46494941 9.1027438 0 12.5675688 1.67856651 1.678505 3.91014129 2.602773 6.28389893 2.602773 2.37375761 0 4.60555701-.924268 6.28389891-2.602773l28.963527-28.9624809c.9984248-.9983887 1.5482884-2.3256055 1.5482884-3.7375s-.5498636-2.7391113-1.5482884-3.7375l-1.3551173-1.3550684 6.0312043-6.0309863c7.0352444 6.4638086 16.4128 10.4162598 26.6973611 10.4162598 21.7784627 0 39.496515-17.7174121 39.496515-39.4950879s-17.7180523-39.4948633-39.496515-39.4948633zm-62.7192682 110.014795c-1.0422251 1.041963-2.4276658 1.616064-3.90160581 1.616064-1.47371536 0-2.85938066-.573877-3.90160582-1.616064-1.04222516-1.042188-1.61612285-2.427578-1.61612285-3.901465s.57389769-2.859277 1.61612285-3.901465l24.91704293-24.9161423 7.8032116 7.8029296zm28.963527-28.9624805-1.6639664 1.6641308-7.8032116-7.8029297 1.664191-1.6639062c.3620834-.3620703.8432141-.5612989 1.3551173-.5612989.5119033 0 .9930339.1992286 1.3551173.5612989l5.0927524 5.0925683c.3620834.3620703.5613191.8431836.5613191 1.3550684s-.1994603.9932226-.5613191 1.3550684zm33.7557412-5.4312793c-19.9206514 0-36.127028-16.2060157-36.127028-36.1259473 0-19.9199317 16.2063766-36.12594728 36.127028-36.12594728s36.127253 16.20601558 36.127253 36.12594728c0 19.919707-16.2066016 36.1259473-36.127253 36.1259473z"/></g></g></g></svg>