<?xml version="1.0" encoding="UTF-8"?>
<svg width="205px" height="205px" viewBox="0 0 205 205" version="1.1" xmlns="http://www.w3.org/2000/svg" xmlns:xlink="http://www.w3.org/1999/xlink">
    <title>clock</title>
    <defs>
        <polygon id="path-1" points="0 205 205 205 205 0 0 0"></polygon>
    </defs>
    <g id="Docs" stroke="none" stroke-width="1" fill="none" fill-rule="evenodd">
        <g id="g1744-Clipped" transform="translate(102.500000, 102.500000) scale(-1, 1) rotate(-180.000000) translate(-102.500000, -102.500000) ">
            <mask id="mask-2" fill="white">
                <use xlink:href="#path-1"></use>
            </mask>
            <g id="path1746"></g>
            <g id="g1744" mask="url(#mask-2)" stroke-linecap="round" stroke-linejoin="round">
                <g transform="translate(4.003906, 8.112637)">
                    <g id="g1750" transform="translate(43.242368, 0.000000)">
                        <path d="M118.769373,12.3999356 C88.9690991,-7.00619725 48.6665796,-3.63410741 22.5162671,22.5162051 C-7.50542236,52.5378945 -7.50542236,101.212582 22.5162671,131.233871 C52.5379565,161.255561 101.212244,161.255561 131.233933,131.233871 C157.359822,105.107982 160.749929,64.8563125 141.404656,35.0644473" id="path1752" stroke="#000000" stroke-width="7.9999998"></path>
                    </g>
                    <g id="path1756" transform="translate(174.476301, 22.516285)"></g>
                    <g id="g1758" transform="translate(62.009137, 18.766827)">
                        <path d="M58.108291,0 C26.0157812,0 0,26.0157812 0,58.108291 C0,90.2008008 26.0157812,116.216582 58.108291,116.216582 C90.2008008,116.216582 116.216582,90.2008008 116.216582,58.108291 C116.216582,26.0157812 90.2008008,0 58.108291,0 Z" id="path1760" stroke="#000000" stroke-width="7.9999998"></path>
                    </g>
                    <g id="g1762" transform="translate(96.033011, 169.555858)">
                        <path d="M9.609375,0 L38.4375,0 C43.7446777,0 48.046875,4.30219727 48.046875,9.609375 L48.046875,9.609375 C48.046875,14.9165527 43.7446777,19.21875 38.4375,19.21875 L9.609375,19.21875 C4.30219727,19.21875 0,14.9165527 0,9.609375 L0,9.609375 C0,4.30219727 4.30219727,0 9.609375,0 Z" id="path1764" stroke="#000000" stroke-width="7.9999998"></path>
                    </g>
                    <g id="g1766" transform="translate(106.360206, 153.750118)">
                        <polyline id="path1768" stroke="#000000" stroke-width="7.9999998" points="27.3923242 0 27.3923242 15.8058203 0 15.8058203 0 0"></polyline>
                    </g>
                    <g id="g1770" transform="translate(127.706632, 84.464322)">
                        <line x1="0" y1="0" x2="20.5692676" y2="20.5692676" id="path1772" stroke="#000000" stroke-width="7.9999998"></line>
                    </g>
                    <g id="g1774" transform="translate(111.679556, 68.437286)">
                        <path d="M0,8.43783203 C0,3.77768555 3.77768555,0 8.43783203,0 C13.0979785,0 16.8756641,3.77768555 16.8756641,8.43783203 C16.8756641,13.0979785 13.0979785,16.8756641 8.43783203,16.8756641 C3.77768555,16.8756641 0,13.0979785 0,8.43783203 Z" id="path1776" stroke="#000000" stroke-width="7.9999998"></path>
                    </g>
                    <g id="g1778" transform="translate(159.217574, 76.626035)">
                        <line x1="3.70921875" y1="0.39999999" x2="0" y2="0.39999999" id="path1780" stroke="#000000" stroke-width="7.9999998"></line>
                    </g>
                    <g id="g1782" transform="translate(77.308103, 76.723811)">
                        <line x1="0" y1="0.39999999" x2="3.70921875" y2="0.39999999" id="path1784" stroke="#000000" stroke-width="7.9999998"></line>
                    </g>
                    <g id="g1786" transform="translate(119.966160, 115.975265)">
                        <line x1="0.39999999" y1="3.70921875" x2="0.39999999" y2="0" id="path1788" stroke="#000000" stroke-width="7.9999998"></line>
                    </g>
                    <g id="g1790" transform="translate(119.868345, 34.065793)">
                        <line x1="0.39999999" y1="0" x2="0.39999999" y2="3.70921875" id="path1792" stroke="#000000" stroke-width="7.9999998"></line>
                    </g>
                    <g id="g1794" transform="translate(102.914885, 83.207496)">
                        <line x1="10.8702051" y1="0" x2="0" y2="10.8702051" id="path1796" stroke="#000000" stroke-width="7.9999998"></line>
                    </g>
                    <g id="g1798" transform="translate(126.083929, 82.841619)">
                        <line x1="0" y1="0" x2="21.6102832" y2="21.6098828" id="path1800" stroke="#000000" stroke-width="7.9999998"></line>
                    </g>
                    <g id="g1802" transform="translate(16.015585, 51.969260)">
                        <line x1="30.7343848" y1="0.39999999" x2="0" y2="0.39999999" id="path1804" stroke="#000000" stroke-width="7.9999998"></line>
                    </g>
                    <g id="g1806" transform="translate(21.620974, 75.366646)">
                        <line x1="21.6214941" y1="0.39999999" x2="0" y2="0.39999999" id="path1808" stroke="#000000" stroke-width="7.9999998"></line>
                    </g>
                    <g id="g1810" transform="translate(0.000080, 98.764033)">
                        <line x1="45.682168" y1="0.39999999" x2="0" y2="0.39999999" id="path1812" stroke="#000000" stroke-width="7.9999998"></line>
                    </g>
                    <g id="g1814" transform="translate(27.293268, 122.161420)">
                        <line x1="28.5322363" y1="0.39999999" x2="0" y2="0.39999999" id="path1816" stroke="#000000" stroke-width="7.9999998"></line>
                    </g>
                    <g id="path1820" transform="translate(0.000000, 52.169455)"></g>
                </g>
            </g>
        </g>
    </g>
</svg>