<svg height="54" viewBox="0 0 167 54" width="167" xmlns="http://www.w3.org/2000/svg" xmlns:xlink="http://www.w3.org/1999/xlink"><defs><rect id="a" height="54" rx="5" width="167"/><mask id="b" fill="#fff"><use fill="#fff" fill-rule="evenodd" xlink:href="#a"/></mask></defs><g fill="none" fill-rule="evenodd"><use fill="#facb3d" xlink:href="#a"/><g fill="#1d1c21" fill-rule="nonzero" mask="url(#b)"><g transform="matrix(.9612617 -.27563736 .27563736 .9612617 35.879387 1.103463)"><path d="m73.4725879 4.21018555h-33.8446582v-3.08225586c0-.62306836-.5048613-1.12792969-1.1279297-1.12792969s-1.1279297.50486133-1.1279297 1.12792969v3.08225586h-23.4140156c-.6230684 0-1.1279297.50486133-1.1279297 1.12792968 0 .62306836.5048613 1.12792969 1.1279297 1.12792969h23.4140156v8.17478318h-8.45075c-.0908359 0-.1738516-.0532383-.2119004-.1353515l-1.2225254-2.6491309c-.4054531-.8784316-1.2926074-1.4458555-2.2600703-1.4458555h-12.4109863c-.9674629 0-1.8544668.5674239-2.2599199 1.4460059l-1.2228262 2.6491309c-.03789844.0821132-.12106446.1352011-.21159961.1352011h-6.86563281v-6.90323044c0-.7011211.57043164-1.27155274 1.27155273-1.27155274h6.06931445c.62306834 0 1.12792964-.50486133 1.12792964-1.12792969s-.5048613-1.12792968-1.12792964-1.12792968h-6.06931445c-1.94515234 0-3.52741211 1.58241015-3.52741211 3.52741211v61.52465434c0 1.9451523 1.58225977 3.5274121 3.52741211 3.5274121h9.31354099c.6230684 0 1.1279297-.5048614 1.1279297-1.1279297 0-.6230684-.5048613-1.1279297-1.1279297-1.1279297h-9.31354099c-.70112109 0-1.27155274-.5704317-1.27155274-1.2715527v-52.3654141h6.86548243c.9677637 0 1.8547676-.5675742 2.2599199-1.4460059l1.2226758-2.64883c.0380488-.0824141.1212148-.135502.21175-.135502h12.4108359c.090836 0 .1738516.0532383.2119004.1353516l1.2225254 2.6491308c.4054531.8784317 1.2926074 1.4458555 2.2600703 1.4458555h8.4510508v53.6369668h-20.1697891c-.6230683 0-1.1279296.5048613-1.1279296 1.1279297 0 .6230683.5048613 1.1279297 1.1279296 1.1279297h20.1697891v3.0824062c0 .6230684.5048613 1.1279297 1.1279297 1.1279297s1.1279297-.5048613 1.1279297-1.1279297v-3.0824062h33.8446582c1.9451523 0 3.5274121-1.5822598 3.5274121-3.5274121v-40.6018594c0-.6230684-.5048613-1.1279297-1.1279297-1.1279297-.6230683 0-1.1279297.5048613-1.1279297 1.1279297v40.6018594c0 .701121-.5704316 1.2715527-1.2715527 1.2715527h-33.8446582v-53.6369668h35.1162109v7.4023769c0 .6230684.5048614 1.1279297 1.1279297 1.1279297.6230684 0 1.1279297-.5048613 1.1279297-1.1279297v-16.56161714c0-1.94500196-1.5822598-3.52741211-3.5274121-3.52741211zm-33.8446582 10.43079295v-8.17493358h33.8446582c.7011211 0 1.2715527.57043164 1.2715527 1.27155274v6.90323044h-35.1162109z"/><path d="m14.1004746 41.5843613 1.3265957-3.4830468h8.7859707l1.313211 3.4798886c.2201718.5835157.8713632.876627 1.4535253.6569063.5827637-.2198711.8769278-.8706114.6569063-1.4535254l-6.3788184-16.9028535c-.2081406-.5603555-.7644355-.9703203-1.4144238-.9703203h-.0018047c-.6396113.0007519-1.190793.3949257-1.4120176.967914l-6.4373203 16.9019512c-.2218261.5821621.0705332 1.2338047.6526953 1.4556309.5814102.2218261 1.2336543-.0703829 1.4554805-.652545zm5.7398086-15.0703437 3.5215469 9.3314375h-7.0755781z"/><path d="m56.9338301 22.6578516h-4.9797344c-.6230684 0-1.1279297.5048613-1.1279297 1.1279296v17.1434786c0 .3000293.1195606.5875761.3322129.7993261.2112988.2103965.4974922.3286036.7957168.3286036h.0049629c.0458691 0 4.5974414-.0204532 5.8444805-.0204532 3.1663242 0 5.7423652-2.576041 5.7423652-5.7425156 0-2.1639707-1.203125-4.0519746-2.9754785-5.0307168.8883574-.9140742 1.4362305-2.1608125 1.4362305-3.5331269 0-2.7969649-2.275711-5.0725254-5.0728262-5.0725254zm0 2.2558593c1.5532344 0 2.8168164 1.2635821 2.8168164 2.8166661 0 1.5532343-1.263582 2.8168164-2.8168164 2.8168164-.3937227 0 1.4260039-.0024063-3.8518047.0045117v-5.6381446h3.8518047zm.869709 14.8673164c-.8593321 0-3.2756582.0094747-4.7216641.0156407v-6.9806817c3.7396133-.0154902 1.8786797-.0042109 4.7216641-.0079707 1.9224433 0 3.4865058 1.5640625 3.4865058 3.4866563 0 1.9225937-1.5639121 3.4863554-3.4865058 3.4863554z"/><path d="m10.2422031 49.7150801c0 .6230683.5048614 1.1279297 1.1279297 1.1279297h16.8879649c.6230683 0 1.1279296-.5048614 1.1279296-1.1279297 0-.6230684-.5048613-1.1279297-1.1279296-1.1279297h-16.8879649c-.6230683 0-1.1279297.5050117-1.1279297 1.1279297z"/><path d="m15.0216172 53.8091641c-.6230684 0-1.1279297.5048613-1.1279297 1.1279297 0 .6230683.5048613 1.1279296 1.1279297 1.1279296h9.5846953c.6230684 0 1.1279297-.5048613 1.1279297-1.1279296 0-.6230684-.5048613-1.1279297-1.1279297-1.1279297z"/><path d="m11.3701328 61.2868867h16.8879649c.6230683 0 1.1279296-.5048613 1.1279296-1.1279297 0-.6230683-.5048613-1.1279297-1.1279296-1.1279297h-16.8879649c-.6230683 0-1.1279297.5048614-1.1279297 1.1279297 0 .6230684.5048614 1.1279297 1.1279297 1.1279297z"/><path d="m52.4112832 48.5871504c-.6230684 0-1.1279297.5048613-1.1279297 1.1279297 0 .6230683.5048613 1.1279297 1.1279297 1.1279297h8.0102559c.6230683 0 1.1279297-.5048614 1.1279297-1.1279297 0-.6230684-.5048614-1.1279297-1.1279297-1.1279297z"/><path d="m65.988248 54.9370938c0-.6230684-.5048613-1.1279297-1.1279296-1.1279297h-16.8879649c-.6230683 0-1.1279297.5048613-1.1279297 1.1279297 0 .6230683.5048614 1.1279296 1.1279297 1.1279296h16.8879649c.6230683 0 1.1279296-.5050117 1.1279296-1.1279296z"/><path d="m52.4112832 59.0310273c-.6230684 0-1.1279297.5048614-1.1279297 1.1279297 0 .6230684.5048613 1.1279297 1.1279297 1.1279297h8.0102559c.6230683 0 1.1279297-.5048613 1.1279297-1.1279297 0-.6230683-.5048614-1.1279297-1.1279297-1.1279297z"/></g></g></g></svg>