<?xml version="1.0" encoding="UTF-8"?>
<svg width="36px" height="36px" viewBox="0 0 36 36" version="1.1" xmlns="http://www.w3.org/2000/svg" xmlns:xlink="http://www.w3.org/1999/xlink">
    <title>consolidate-users-data-icon</title>
    <defs>
        <rect id="path-1" x="0" y="0" width="36" height="36"></rect>
    </defs>
    <g id="Docs" stroke="none" stroke-width="1" fill="none" fill-rule="evenodd">
        <g id="docs-landing-page" transform="translate(-998.000000, -2013.000000)">
            <g id="consolidate-users-data-icon" transform="translate(998.000000, 2013.000000)">
                <mask id="mask-2" fill="white">
                    <use xlink:href="#path-1"></use>
                </mask>
                <g id="Mask"></g>
                <g mask="url(#mask-2)" fill-rule="nonzero" id="Path">
                    <g transform="translate(3.000000, 3.000000)">
                        <path d="M25.7255859,0.413005272 C26.2763672,-0.137668424 27.1669922,-0.137668424 27.7119141,0.413005272 L29.5869141,2.28763913 C30.1376953,2.83831283 30.1376953,3.72876391 29.5869141,4.27357938 L24.4892578,9.37024019 L26.7744141,11.6549502 C27.1787109,12.0591681 27.2958984,12.6625659 27.0791016,13.1898067 C26.8623047,13.7170475 26.3466797,14.0568248 25.7783203,14.0568248 L17.3466797,14.0568248 C16.5673828,14.0568248 15.9404297,13.4299941 15.9404297,12.6508494 L15.9404297,4.2208553 C15.9404297,3.65260691 16.2802734,3.1370826 16.8076172,2.92032806 C17.3349609,2.70357352 17.9384766,2.82073814 18.3427734,3.22495606 L20.6279297,5.50966608 L25.7255859,0.413005272 Z" fill="#6366F1"></path>
                        <path d="M4.22167969,15.9373169 L12.6591797,15.9373169 C13.4384766,15.9373169 14.0654297,16.5641476 14.0654297,17.3432923 L14.0654297,25.7791447 C14.0654297,26.3473931 13.7255859,26.8629174 13.1982422,27.0796719 C12.6708984,27.2964265 12.0673828,27.1792619 11.6630859,26.7750439 L9.37792969,24.4903339 L4.28027344,29.5869947 C3.72949219,30.1376684 2.83886719,30.1376684 2.29394531,29.5869947 L0.413085938,27.7123609 C-0.137695312,27.1616872 -0.137695312,26.2712361 0.413085938,25.7264206 L5.51074219,20.6297598 L3.22558594,18.3391916 C2.82128906,17.9349736 2.70410156,17.3315759 2.92089844,16.8043351 C3.13769531,16.2770943 3.65332031,15.9373169 4.22167969,15.9373169 Z" fill="#1E293B"></path>
                    </g>
                </g>
            </g>
        </g>
    </g>
</svg>