<svg height="54" viewBox="0 0 167 54" width="167" xmlns="http://www.w3.org/2000/svg" xmlns:xlink="http://www.w3.org/1999/xlink"><defs><rect id="a" height="54" rx="5" width="167"/><mask id="b" fill="#fff"><use fill="#fff" fill-rule="evenodd" xlink:href="#a"/></mask></defs><g fill="none" fill-rule="evenodd"><use fill="#52e8ca" xlink:href="#a"/><g fill="#1d1c21" fill-rule="nonzero" mask="url(#b)"><g transform="matrix(.96592583 .25881905 -.25881905 .96592583 53.041151 -8.078605)"><path d="m41.9883575 22.3933857c-.7108306.1583648-1.2072372.7783341-1.2072372 1.5073993v1.7918698c0 .3853545.1515655.7472478.4264984 1.0182277.2714081.2680473.6291733.415268 1.0086747.415268h.0158614c4.29142-.0439903 7.7539292-.9677855 10.2923584-2.7449919 2.5983506-1.819437 4.1492539-4.8565241 4.1492539-8.1247067v-14.08157372c0-1.19888107-.9775391-2.17487818-2.1783142-2.17487818h-11.5354309c-1.2013626 0-2.1789017.97599711-2.1789017 2.17487818v10.31835412c0 1.1994675.9775391 2.1754646 2.1789017 2.1754646h6.8263244v2.4699062c0 3.4101245-7.0002136 5.0758888-7.7979889 5.2547826zm7.8755341-9.9769898h-6.8269119v-10.16409487h11.380928v14.00356437c0 2.5350117-1.1919631 4.8829182-3.1881638 6.2812218-2.0003127 1.4006497-4.7537536 2.1783973-8.1927642 2.3162335v-.3941527c2.6982193-.6751037 9.0052261-2.7449919 9.0052261-7.3205649v-2.547329c0-1.1994676-.9769516-2.1748782-2.1783142-2.1748782z"/><path d="m2.17831421 52h11.53543089c1.2013626 0 2.1783142-.9759971 2.1783142-2.1754647v-10.3183541c0-1.1994675-.9769516-2.1748781-2.1783142-2.1748781h-6.82691187v-2.4704927c0-3.409538 7.00080107-5.0758889 7.79857637-5.2541961.7108306-.1589513 1.2072372-.7789208 1.2072372-1.5073993v-1.7918698c0-.3853545-.1515655-.7472478-.4264984-1.0188142-.2749328-.2715666-.6332856-.4211335-1.0245361-.4148819-4.29142.0441907-7.75392919.9673994-10.29235842 2.7451923-2.59835056 1.8188503-4.14925388 4.8565241-4.14925388 8.1247067v14.0809872c0 1.1994676.97753906 2.1754647 2.17831421 2.1754647zm.07754517-16.2564519c0-2.5350118 1.19196315-4.8829182 3.18816379-6.2806353 2.00031277-1.4012362 4.75316623-2.1789839 8.19276423-2.3162335v.3935661c-2.6982193.6751038-9.00581355 2.7449918-9.00581355 7.320565v2.5473288c0 1.1994678.97753907 2.1748784 2.17890164 2.1748784h6.82691191v10.1640949h-11.38092802z"/><path d="m35.0116425 29.6066143c.7108306-.1589513 1.2072372-.7789208 1.2072372-1.5073993v-1.7918698c0-.3853545-.1515655-.7472478-.4264984-1.0188142-.2749328-.2715666-.6326981-.4211335-1.0245361-.4148819-4.29142.0441907-7.7545166.9673994-10.2923584 2.7451923-2.5977631 1.8188503-4.1492539 4.8559376-4.1492539 8.1247067v14.0809872c0 1.1994676.9775391 2.1754647 2.1789016 2.1754647h3.1358796c.6227112 0 1.1279297-.5044216 1.1279297-1.1261505 0-.6223154-.5052185-1.1261505-1.1279297-1.1261505h-3.0589218v-14.0041509c0-2.5350118 1.1919631-4.8829182 3.1887512-6.2806353 2.0003128-1.4006497 4.7525788-2.1789839 8.1921768-2.3162335v.3941527c-2.6982193.6745172-9.0052261 2.7444052-9.0052261 7.3199784v2.5473288c0 1.1994678.9769516 2.1754649 2.1783142 2.1754649h6.8269119v10.1640949h-3.0583343c-.6232987 0-1.1279297.5038351-1.1279297 1.1261505 0 .6217289.504631 1.1261505 1.1279297 1.1261505h3.1358795c1.2013627 0 2.1783142-.9759971 2.1783142-2.1754647v-10.3183541c0-1.1994675-.9769515-2.1748781-2.1783142-2.1748781h-6.8269119v-2.4704927c0-3.409538 7.0002136-5.0758889 7.7979889-5.2541961z"/><path d="m74.8216858 0h-11.5354309c-1.2013626 0-2.1783142.97599711-2.1783142 2.17487818v10.31835412c0 1.1994675.9769516 2.1754646 2.1783142 2.1754646h6.8269119v2.4699062c0 3.4101245-7.0002137 5.0758888-7.7985764 5.2547826-.7108306.1589513-1.2066497.7789208-1.2066497 1.5073993v1.7918698c0 .3853545.150978.7472478.4259109 1.0188142.2714081.2680474.6291733.4146815 1.0092621.4146815h.015274c4.29142-.0439903 7.7545166-.967199 10.2929458-2.7449919 2.5977632-1.819437 4.1486665-4.8565241 4.1486665-8.1247067v-6.0278379c0-.62172892-.5046311-1.12615051-1.1279297-1.12615051s-1.1279297.50442159-1.1279297 1.12615051v6.0278379c0 2.5350118-1.1919631 4.8829182-3.1881638 6.2806353-2.0003127 1.4006497-4.7531662 2.1789839-8.1927642 2.3162335v-.3941527c2.6982193-.6745172 9.0058135-2.7444052 9.0058135-7.3199784v-2.5479155c0-1.1988811-.977539-2.1748782-2.1789016-2.1748782h-6.8269119v-10.16409487h11.380928v2.72035741c0 .62231543.5046311 1.12615051 1.1279297 1.12615051s1.1279297-.50383508 1.1279297-1.12615051v-2.79778026c0-1.19946757-.9769516-2.17487818-2.1783142-2.17487818z"/></g></g></g></svg>