<svg height="24" viewBox="0 0 24 24" width="24" xmlns="http://www.w3.org/2000/svg"><g fill="none" transform="matrix(0 1 -1 0 24 0)"><path d="m0 0h24v24h-24z" fill="#000" opacity="0" transform="matrix(0 1 -1 0 24 0)"/><g fill="#f58320"><path d="m7 6c.55228475 0 1-.44771525 1-1s-.44771525-1-1-1h-2c-.55228475 0-1 .44771525-1 1v14c0 .5522847.44771525 1 1 1h2c.55228475 0 1-.4477153 1-1s-.44771525-1-1-1h-1v-12z"/><path d="m20.82 11.42-2.82-4c-.3183826-.44881476-.9395515-.55606695-1.39-.24-.2184476.15307413-.3666857.38707839-.4117554.64998479s.0167649.53292311.1717554.75001521l1.72 2.42h-8.09c-.55228475 0-1 .4477153-1 1s.44771525 1 1 1h8l-1.8 2.4c-.1591299.2121732-.2274568.4788704-.1899495.7414214.0375073.2625509.1777763.4994487.3899495.6585786.1730962.1298221.3836298.2.6.2.3147573 0 .6111456-.1481942.8-.4l3-4c.2627974-.3470516.2708853-.8242419.02-1.18z"/></g></g></svg>