<?xml version="1.0" encoding="UTF-8"?>
<svg width="36px" height="36px" viewBox="0 0 36 36" version="1.1" xmlns="http://www.w3.org/2000/svg" xmlns:xlink="http://www.w3.org/1999/xlink">
    <title>download</title>
    <defs>
        <rect id="path-1" x="0" y="0" width="36" height="36"></rect>
    </defs>
    <g id="Docs" stroke="none" stroke-width="1" fill="none" fill-rule="evenodd">
        <g id="docs-landing-page" transform="translate(-998.000000, -2711.000000)">
            <g id="download" transform="translate(998.000000, 2711.000000)">
                <mask id="mask-2" fill="white">
                    <use xlink:href="#path-1"></use>
                </mask>
                <g id="Mask"></g>
                <g mask="url(#mask-2)" fill-rule="nonzero" id="Path">
                    <g transform="translate(4.000000, 4.000000)">
                        <path d="M15.75,1.75 C15.75,0.78203125 14.9679687,0 14,0 C13.0320312,0 12.25,0.78203125 12.25,1.75 L12.25,15.0226562 L8.2359375,11.0085937 C7.55234375,10.325 6.4421875,10.325 5.75859375,11.0085937 C5.075,11.6921875 5.075,12.8023437 5.75859375,13.4859375 L12.7585937,20.4859375 C13.4421875,21.1695312 14.5523437,21.1695312 15.2359375,20.4859375 L22.2359375,13.4859375 C22.9195312,12.8023437 22.9195312,11.6921875 22.2359375,11.0085937 C21.5523437,10.325 20.4421875,10.325 19.7585937,11.0085937 L15.75,15.0226562 L15.75,1.75 Z" fill="#1E293B"></path>
                        <path d="M3.5,19.25 C1.56953125,19.25 0,20.8195313 0,22.75 L0,24.5 C0,26.4304687 1.56953125,28 3.5,28 L24.5,28 C26.4304687,28 28,26.4304687 28,24.5 L28,22.75 C28,20.8195313 26.4304687,19.25 24.5,19.25 L18.9492188,19.25 L16.471875,21.7273437 C15.1046875,23.0945312 12.8898437,23.0945312 11.5226562,21.7273437 L9.05078125,19.25 L3.5,19.25 Z" fill="#6366F1"></path>
                        <path d="M23.625,22.3125 C24.3498737,22.3125 24.9375,22.9001263 24.9375,23.625 C24.9375,24.3498737 24.3498737,24.9375 23.625,24.9375 C22.9001263,24.9375 22.3125,24.3498737 22.3125,23.625 C22.3125,22.9001263 22.9001263,22.3125 23.625,22.3125 Z" fill="#000000"></path>
                    </g>
                </g>
            </g>
        </g>
    </g>
</svg>