<svg height="91" viewBox="0 0 91 91" width="91" xmlns="http://www.w3.org/2000/svg" xmlns:xlink="http://www.w3.org/1999/xlink"><defs><circle id="a" cx="42.5" cy="42.5" r="42.5"/><filter id="b" height="111.8%" width="111.8%" x="-5.9%" y="-4.7%"><feMorphology in="SourceAlpha" operator="dilate" radius="0.5" result="shadowSpreadOuter1"/><feOffset dx="0" dy="1" in="shadowSpreadOuter1" result="shadowOffsetOuter1"/><feGaussianBlur in="shadowOffsetOuter1" result="shadowBlurOuter1" stdDeviation="1"/><feColorMatrix in="shadowBlurOuter1" type="matrix" values="0 0 0 0 0   0 0 0 0 0   0 0 0 0 0  0 0 0 0.11324369 0"/></filter><linearGradient id="c" x1="50%" x2="50%" y1="0%" y2="79.816229%"><stop offset="0" stop-color="#6366f1"/><stop offset="1"/></linearGradient></defs><g fill="none" fill-rule="evenodd"><g transform="translate(3 2)"><use fill="#000" filter="url(#b)" xlink:href="#a"/><use fill="#fff" fill-rule="evenodd" xlink:href="#a"/></g><g fill-rule="nonzero" transform="translate(20 15)"><path d="m27.4040078 21.2643743v-10.2845825c2.4000538-.6182515 4.1790127-2.80599615 4.1790127-5.40257852 0-3.07534807-2.4954507-5.57721328-5.562914-5.57721328-3.0672787 0-5.5627294 2.50186521-5.5627294 5.57721328 0 2.59658237 1.7789589 4.78414202 4.1788282 5.40239352v10.2845825c-2.9108057.4391769-5.3822688 2.241208-6.7453192 4.7353035l-6.0873203-4.7443682c.1489078-.4201224.2306502-.8720639.2306502-1.3426899 0-2.2180837-1.7999942-4.0227047-4.01239102-4.0227047-2.2123968 0-4.01239102 1.804621-4.01239102 4.0227047s1.79999422 4.0227048 4.01239102 4.0227048c.7329141 0 1.41988268-.1990541 2.01182342-.5444387l6.880757 5.3628046c-.1014861.5496186-.1572112 1.1149617-.1572112 1.6936244 0 2.0608384.6738676 3.9662815 1.8110654 5.5085803l-7.7799238 7.7999219c-.5404595.5418488-.5404595 1.4203875 0 1.9620513.2703221.2708319.6246008.4064329.978695.4064329s.7083729-.135416.978695-.4064329l7.7799237-7.7999218c1.1862802.8792787 2.5880799 1.4821757 4.1105558 1.7119388v10.3075219c-1.5326245.5664531-2.6284898 2.0452988-2.6284898 3.7759221 0 2.2180837 1.7999942 4.0227048 4.012391 4.0227048s4.012391-1.8046211 4.012391-4.0227048c0-1.7308082-1.0958652-3.209654-2.6284897-3.7759221v-10.3073369c4.4535787-.6717149 7.8790111-4.5334745 7.8790111-9.1825705 0-4.649466-3.4256169-8.5112256-7.8790111-9.1829405zm-19.38218282-.1039669c-.68641502 0-1.24458852-.5597932-1.24458852-1.2477877 0-.6879944.5581735-1.2477877 1.24458852-1.2477877s1.24458852.5597933 1.24458852 1.2477877c0 .6879945-.55835802 1.2477877-1.24458852 1.2477877zm15.20317002-15.58319412c0-1.54525881 1.2538146-2.80229623 2.794927-2.80229623s2.7951115 1.25703742 2.7951115 2.80229623c0 1.5452588-1.2539991 2.80229622-2.7951115 2.80229622s-2.794927-1.25703742-2.794927-2.80229622zm2.7951115 49.38371872c-.686415 0-1.2445885-.5597933-1.2445885-1.2477877 0-.602157.4275332-1.1060819.9943792-1.2224434.0811888.0149845.164592.0238642.2502093.0238642.0856174 0 .1690205-.0088797.2502094-.0238642.5668459.1163615.9943791.6202864.9943791 1.2224434 0 .6879944-.558358 1.2477877-1.2445885 1.2477877zm0-18.0021818c-3.5813519 0-6.4949253-2.9212477-6.4949253-6.5118054 0-.633606.0924446-1.2457527.2614651-1.8253404.0090414-.0286742.0175294-.0571633.0245411-.0862074.8165018-2.6605905 3.2907327-4.6002575 6.2089191-4.6002575 3.5813519 0 6.4951099 2.9212477 6.4951099 6.5118053 0 3.5907427-2.913758 6.5118054-6.4951099 6.5118054z" fill="url(#c)"/><g fill="#6366f1"><path d="m51.578974 17.3009526c-2.9528103 0-5.3549882 2.432369-5.3549882 5.4222907 0 .1393882.0069273.2769778.0172294.4136682l-9.6339343 3.3260721c-.6964611.2402872-1.068582 1.0070122-.8310996 1.7120467.1888136.56097.706408.9140269 1.2607704.9140269.1426316 0 .2875722-.0233813.4300261-.0724819l9.6335791-3.3258923c.957745 1.4769753 2.6069777 2.4550308 4.4785947 2.4550308 2.9526327 0 5.3548107-2.4323689 5.3548107-5.4222907 0-2.9899217-2.4023556-5.4224705-5.3549883-5.4224705zm0 8.1469252c-1.4836877 0-2.6906382-1.2221197-2.6906382-2.7244547 0-1.5023349 1.2071281-2.7244546 2.6906382-2.7244546s2.6904606 1.2221197 2.6904606 2.7244546c0 1.5021551-1.2069505 2.7244547-2.6904606 2.7244547z"/><path d="m5.35498825 45.0863255c-2.95281029 0-5.35498825 2.4325488-5.35498825 5.4222906 0 2.9899218 2.40217796 5.4222907 5.35498825 5.4222907 2.95263267 0 5.35481065-2.4323689 5.35481065-5.4222907.0001776-2.9897418-2.40217798-5.4222906-5.35481065-5.4222906zm0 8.1469252c-1.4836877 0-2.69063825-1.2221197-2.69063825-2.7244547 0-1.5023349 1.20712817-2.7244547 2.69063825-2.7244547s2.69046063 1.2221198 2.69046063 2.7244547c.00017762 1.5021551-1.20677293 2.7244547-2.69046063 2.7244547z"/></g></g></g></svg>