<svg height="24" viewBox="0 0 24 24" width="24" xmlns="http://www.w3.org/2000/svg"><g fill="none" fill-rule="evenodd"><path d="m0 0h24v24h-24z"/><g stroke="#f58320" stroke-linecap="round" stroke-linejoin="round" stroke-width="2"><path d="m3 12h1m8-9v1m8 8h1m-15.4-6.4.7.7m12.1-.7-.7.7"/><path d="m9 16c-1.72172163-1.2912912-2.42398672-3.5394281-1.74341649-5.5811388.68057023-2.04171073 2.59126445-3.4188612 4.74341649-3.4188612 2.152152 0 4.0628463 1.37715047 4.7434165 3.4188612.6805702 2.0417107-.0216949 4.2898476-1.7434165 5.5811388-.7918376.7838288-1.1631728 1.8978344-1 3 0 1.1045695-.8954305 2-2 2s-2-.8954305-2-2c.1631728-1.1021656-.20816241-2.2161712-1-3"/><path d="m9.7 17h4.6"/></g></g></svg>