<svg height="54" viewBox="0 0 167 54" width="167" xmlns="http://www.w3.org/2000/svg" xmlns:xlink="http://www.w3.org/1999/xlink"><defs><rect id="a" height="54" rx="5" width="167"/><mask id="b" fill="#fff"><use fill="#fff" fill-rule="evenodd" xlink:href="#a"/></mask></defs><g fill="none" fill-rule="evenodd"><use fill="#f58320" xlink:href="#a"/><g fill="#1d1c21" fill-rule="nonzero" mask="url(#b)"><g transform="matrix(.96592583 .25881905 -.25881905 .96592583 58.499932 -11.7549)"><path d="m71.8246175 0h-66.64938542c-2.85365654 0-5.17523208 2.31795919-5.17523208 5.16698599v60.66617821c0 2.8490268 2.32157554 5.1668358 5.17523208 5.1668358.8306058 0 1.50390331-.6723553 1.50390331-1.5014634s-.67329751-1.5014634-1.50390331-1.5014634c-1.19515196 0-2.16742545-.9706961-2.16742545-2.163909v-52.5136824h70.98423637v52.5136824c0 1.1932129-.9722735 2.163909-2.1674255 2.163909h-53.4118781c-.8306058 0-1.5039033.6723553-1.5039033 1.5014634s.6732975 1.5014634 1.5039033 1.5014634h53.4120285c2.8536566 0 5.1752321-2.3179592 5.1752321-5.1668358v-60.66617821c0-2.8490268-2.3217259-5.16698599-5.1753825-5.16698599zm-68.81681087 10.3164049v-5.14941891c0-1.19321296.97227349-2.16390905 2.16742545-2.16390905h66.64953582c1.195152 0 2.1674255.97069609 2.1674255 2.16390905v5.14956901h-70.98438677z"/><path d="m20.4320304 6.08483057c-.3153685-.75523609-1.2056793-1.12579726-1.9640977-.8122917-.7576665.31320526-1.1240174 1.20627569-.8121078 1.96106134.3126615.75658741 1.2055289 1.1242958 1.9625938.81214156.759772-.31335542 1.1241677-1.20372321.8136117-1.9609112z"/><path d="m14.1658669 31.0278913c3.7024595 0 6.7146275-3.0072811 6.7146275-6.7037338 0-3.6964528-3.012168-6.7035836-6.7146275-6.7035836-3.7024596 0-6.71462755 3.0071308-6.71462755 6.7035836 0 3.6964527 3.01216795 6.7037338 6.71462755 6.7037338zm0-10.4045408c2.043955 0 3.7068208 1.6601681 3.7068208 3.7006568 0 2.0404888-1.6628658 3.700807-3.7068208 3.700807s-3.7068209-1.6603182-3.7068209-3.700807c0-2.0404887 1.6630163-3.7006568 3.7068209-3.7006568z"/><path d="m14.1658669 47.3463961c3.7024595 0 6.7146275-3.0072811 6.7146275-6.7037338 0-3.6964528-3.012168-6.7037338-6.7146275-6.7037338-3.7024596 0-6.71462755 3.007281-6.71462755 6.7037338 0 3.6964527 3.01216795 6.7037338 6.71462755 6.7037338zm0-10.4045408c2.043955 0 3.7068208 1.6603182 3.7068208 3.700807 0 2.0404887-1.6628658 3.700807-3.7068208 3.700807s-3.7068209-1.6603183-3.7068209-3.700807c0-2.0404888 1.6630163-3.700807 3.7068209-3.700807z"/><path d="m20.8806448 56.9611671c0-3.6964528-3.012168-6.7037338-6.7146275-6.7037338-3.7024596 0-6.71462756 3.007281-6.71462756 6.7037338 0 3.6964527 3.01216796 6.7037338 6.71462756 6.7037338 3.7024595 0 6.7146275-3.0072811 6.7146275-6.7037338zm-6.7147779 3.700807c-2.043955 0-3.7068209-1.6603183-3.7068209-3.700807 0-2.0404888 1.6628659-3.700807 3.7068209-3.700807s3.7068208 1.6603182 3.7068208 3.700807c0 2.0404887-1.6627155 3.700807-3.7068208 3.700807z"/><path d="m26.5544208 61.9398696c0 1.1387098 1.2835815 1.8750275 2.2696909 1.2921594l4.1094158-2.4272658h31.1547106c2.2930014 0 4.1582927-1.8624152 4.1582927-4.1515463v-2.0208195c0-2.2891311-1.8654417-4.1515463-4.1582927-4.1515463h-33.3755246c-2.292851 0-4.1582927 1.8624152-4.1582927 4.1515463zm3.0078066-7.3074722c0-.6334675.5161396-1.1486195 1.1504861-1.1486195h33.3753742c.6343464 0 1.1504861.5153022 1.1504861 1.1486195v2.0208195c0 .6334674-.5161397 1.1486195-1.1504861 1.1486195h-31.5661786c-.2694994 0-.5338856.0722204-.7657875.209304l-2.1938942 1.2959131z"/><path d="m26.5544208 41.1510578c0 2.2891311 1.8654417 4.1515463 4.1582927 4.1515463h31.1547106l4.1094158 2.4272657c.2359624.139486.5007998.209304.7657876.209304.819928 0 1.5039033-.6840667 1.5039033-1.5014634v-7.3074722c0-2.2891311-1.8654417-4.1515463-4.1582927-4.1515463h-33.3755246c-2.292851 0-4.1582927 1.8624152-4.1582927 4.1515463zm3.0078066-2.0208196c0-.6334674.5161396-1.1486195 1.1504861-1.1486195h33.3753742c.6343464 0 1.1504861.5153022 1.1504861 1.1486195v4.6746561l-2.1938942-1.295913c-.2319019-.1369335-.4962881-.209304-.7657876-.209304h-31.5661785c-.6343465 0-1.1504861-.5153022-1.1504861-1.1486195z"/><path d="m58.8552561 26.8215416c-.4574873-.6806134-1.402089-.8664946-2.0859139-.4145541-.6841256.4520906-.8666994 1.4020665-.4150773 2.0810283.4532765.6816644 1.4034426.8687467 2.08441.4159053.6817194-.4534419.8712112-1.4020665.4165812-2.0823795z"/><path d="m64.0882381 18.8328554h-33.3755246c-2.292851 0-4.1582927 1.8624152-4.1582927 4.1515463v7.3076224c0 1.1388599 1.2835815 1.8748773 2.2696909 1.2921594l4.1104685-2.4280165c1.2205679-.0019519 17.6332663.0096094 17.8344886 0 .314767.0180176.6366023-.1063036.9139221-.2908335.6817193-.4534419.8712111-1.4020665.4165812-2.0823796-.2789741-.4151546-.7394693-.6450286-1.2112438-.6594427v-.003153l-18.3688254.003153c-.2687475.0004505-.5323818.1030004-.7635317.2394834l-2.1937438 1.2959131v-4.6746561c0-.6334675.5161396-1.1486195 1.1504861-1.1486195h33.3755246c.6343464 0 1.150486.5153022 1.150486 1.1486195v2.0209697c0 .6309149-.5143349 1.1459169-1.1464255 1.1480189-.8306058.0028528-1.5016474.6774603-1.49879 1.5065684.0028574.8276066.6755534 1.4963584 1.5037529 1.4963584h.0052637c2.2850307-.0078076 4.1440056-1.8699225 4.1440056-4.1509457v-2.0209697c0-2.288981-1.8654417-4.1513962-4.1582927-4.1513962z"/></g></g></g></svg>