<?xml version="1.0" encoding="UTF-8"?>
<svg width="91px" height="91px" viewBox="0 0 91 91" version="1.1" xmlns="http://www.w3.org/2000/svg" xmlns:xlink="http://www.w3.org/1999/xlink">
    <title>free-trial-cloud-icon</title>
    <defs>
        <circle id="path-1" cx="42.5" cy="42.5" r="42.5"></circle>
        <filter x="-5.9%" y="-4.7%" width="111.8%" height="111.8%" filterUnits="objectBoundingBox" id="filter-2">
            <feMorphology radius="0.5" operator="dilate" in="SourceAlpha" result="shadowSpreadOuter1"></feMorphology>
            <feOffset dx="0" dy="1" in="shadowSpreadOuter1" result="shadowOffsetOuter1"></feOffset>
            <feGaussianBlur stdDeviation="1" in="shadowOffsetOuter1" result="shadowBlurOuter1"></feGaussianBlur>
            <feColorMatrix values="0 0 0 0 0   0 0 0 0 0   0 0 0 0 0  0 0 0 0.11324369 0" type="matrix" in="shadowBlurOuter1"></feColorMatrix>
        </filter>
        <linearGradient x1="23.5758852%" y1="34.2865396%" x2="85.2749321%" y2="66.5226846%" id="linearGradient-3">
            <stop stop-color="#6366F1" offset="0%"></stop>
            <stop stop-color="#000000" offset="100%"></stop>
        </linearGradient>
    </defs>
    <g id="Docs" stroke="none" stroke-width="1" fill="none" fill-rule="evenodd">
        <g id="docs-landing-page" transform="translate(-764.000000, -876.000000)">
            <g id="free-trial-cloud-icon" transform="translate(767.000000, 878.000000)">
                <g id="Oval-Copy-4">
                    <use fill="black" fill-opacity="1" filter="url(#filter-2)" xlink:href="#path-1"></use>
                    <use fill="#FFFFFF" fill-rule="evenodd" xlink:href="#path-1"></use>
                </g>
                <g id="Group-12-Copy-2" transform="translate(17.000000, 23.878289)" fill-rule="nonzero" stroke="url(#linearGradient-3)" stroke-linejoin="round" stroke-width="3.04128">
                    <path d="M49.3864687,16.2619699 C47.8803495,14.439862 45.8293345,13.10783 43.5527783,12.4602083 C43.2907811,5.54575362 37.4861339,0 30.3886351,0 C27.3840524,0 24.4448474,1.02064322 22.1127566,2.87392586 C20.1098635,4.46562762 18.6192988,6.61274085 17.8393832,9.00327957 C16.7900578,8.59084177 15.6633241,8.37584378 14.5272333,8.37584378 C9.62900403,8.37584378 5.63998757,12.2755489 5.60547588,17.0823067 C2.22709756,18.588487 0,21.9428139 0,25.6247739 C0,30.7942811 4.27884173,35 9.53822857,35 L40.305034,35 C46.7537373,35 52,29.8432733 52,23.5048938 C52,20.8730795 51.07183,18.3008675 49.3864687,16.2619699 Z" id="Path-Copy-2"></path>
                </g>
            </g>
        </g>
    </g>
</svg>