<svg height="54" viewBox="0 0 167 54" width="167" xmlns="http://www.w3.org/2000/svg" xmlns:xlink="http://www.w3.org/1999/xlink"><defs><rect id="a" height="54" rx="5" width="167"/><mask id="b" fill="#fff"><use fill="#fff" fill-rule="evenodd" xlink:href="#a"/></mask></defs><g fill="none" fill-rule="evenodd"><use fill="#f58320" xlink:href="#a"/><g fill="#1d1c21" fill-rule="nonzero" mask="url(#b)"><g transform="translate(35 -5)"><path d="m92.344375 17.9287675-38.955278-16.82055075c-3.424802-1.47868308-7.355116-1.47752515-10.7841321.00289484l-38.94684968 16.81669101c-2.2563198.9740164-3.65811522 3.1154243-3.65811522 5.5883876 0 2.4716124 1.40083765 4.6118624 3.65581657 5.5854928l4.60381952 1.9879816c-.00478886.0478613-.00727907.0964945-.00727907.1455138v21.9494312c-1.77954079.6056-3.06487111 2.3023609-3.06487111 4.297097 0 1.1563912.43252993 2.212621 1.14223915 3.014684-.78499011.7752375-1.30620976 1.8262566-1.41386335 3.0171928l-1.10297049 12.2243205c-.0752809.8350642.20343081 1.6687774.76449378 2.2878867s1.36022811.9742094 2.19234062.9742094h5.83838788c.8321125 0 1.6312777-.3551001 2.1923406-.9742094.5612546-.6191093.8397747-1.4530155.7644938-2.2878867l-1.1029705-12.2243205c-.107462-1.1907432-.6288732-2.2417623-1.4138633-3.0171928.7097092-.8018701 1.1422391-1.8580998 1.1422391-3.014684 0-1.9945431-1.2853303-3.691304-3.0648711-4.297097v-20.8574984l7.8610113 3.3942936c-.0047888.0478613-.0072791.0963016-.0072791.1453209v11.0511393c0 4.6122484 3.134597 8.8790461 8.8266373 12.0147343 5.4175428 2.9843846 12.5893412 4.6280735 20.1938611 4.6280735s14.7763183-1.6436889 20.193861-4.6280735c5.6918488-3.1356882 8.8266373-7.4024859 8.8266373-12.0147343v-11.0511393c0-.0490193-.0024902-.0974596-.0072791-.1451279l15.3289529-6.6187568c2.2563198-.9742094 3.6581152-3.1158103 3.6581152-5.5885807 0-2.4716124-1.4006461-4.6118623-3.655625-5.5854928zm-79.6655779 58.1449376c-.02835.0314572-.0591903.0314572-.0706836.0314572h-5.83838788c-.01168482 0-.04233353 0-.07068359-.0314572-.02854161-.0314572-.0256683-.0621425-.02471053-.0737219l1.1029705-12.2243205c.09060525-1.0025788.91237381-1.7587104 1.91171335-1.7587104.99914795 0 1.82091655.7561316 1.91152185 1.7587104l1.1029704 12.2241275c.0011494.0117724.0038311.0424577-.0247105.0739149zm-2.98978175-16.9515905c-.89781568 0-1.62821278-.7358677-1.62821278-1.640408 0-.9045402.7303971-1.640408 1.62821278-1.640408.89781565 0 1.62821275.7358678 1.62821275 1.640408 0 .9045403-.7303971 1.640408-1.62821275 1.640408zm64.45807055-18.3797103c0 3.7428321-3.0575921 7.3970822-8.3887438 10.0257878-.7127741.3514333-1.0075764 1.2183407-.6587557 1.9362604.2492123.5133512.760088.8115195 1.29146.8115195.2120508 0 .4271664-.0474753.6305973-.1478297 2.9570259-1.4580332 5.3261713-3.2343056 7.0152984-5.2093569-.5386511 3.0523169-3.0543356 5.93847-7.221411 8.2340763-5.0022528 2.7556925-11.6842465 4.2731664-18.8154353 4.2731664-7.1311889 0-13.8131826-1.5174739-18.8154353-4.2731664-4.1519426-2.2873078-6.6651369-5.1609166-7.2160475-8.2010751 1.4521742 1.6865324 3.4115847 3.2289019 5.8374301 4.565352 5.4175428 2.9843846 12.5893412 4.6280734 20.1938611 4.6280734 2.1274037 0 4.2492523-.1304606 6.306547-.3875222.7874803-.0984245 1.3466277-.821169 1.248935-1.6145475-.0976928-.7933785-.8141064-1.3569069-1.6025445-1.2582894-1.9404465.2425874-3.9433398.3655215-5.9529375.3655215-7.1311888 0-13.8131825-1.5174739-18.8154353-4.2731664-4.7279468-2.604582-7.3317463-5.9693483-7.3317463-9.4748037v-3.7833599l20.758372 8.9633824c1.7113474.7389556 3.5487376 1.1083369 5.3870856 1.1083369 1.8404551 0 3.6816765-.3703463 5.3970465-1.1110387l20.7518592-8.9602946zm17.0630952-14.3003051-38.9470412 16.816498c-2.709346 1.1699004-5.8148267 1.1708653-8.5201501.0028948l-29.7656451-12.8525003 27.2733302-4.778798c1.2267147 1.462665 3.7266917 2.4204703 6.7492293 2.4204703 4.3136146 0 7.5664006-1.9497697 7.5664006-4.5352457s-3.252786-4.5352457-7.5664006-4.5352457c-3.9176715 0-6.9599392 1.6083718-7.485373 3.8404846l-31.07166331 5.4442248c-.09117992.0160181-.17833719.0409137-.26185493.0727569l-4.39310962-1.8970836c-1.19893927-.517211-1.91458667-1.6106877-1.91458667-2.9243651 0-1.3150282.71660517-2.4096628 1.91669377-2.9278388l38.94684966-16.816691c1.3560139-.58533618 2.8108699-.87810076 4.2653428-.87810076 1.4519827 0 2.9035822.29179964 4.2549988.87520592l38.9552781 16.82055084c1.1987477.5175969 1.9143951 1.6110736 1.9143951 2.924751 0 1.3154142-.7166052 2.4098558-1.9166938 2.9280318zm-47.9033608-2.9264879c0-.4216814 1.6136547-1.640408 4.6930839-1.640408 3.0794293 0 4.6930839 1.2187266 4.6930839 1.640408 0 .4216813-1.6136546 1.640408-4.6930839 1.640408-3.0794292 0-4.6930839-1.2189197-4.6930839-1.640408z"/><path d="m58.7256122 56.1936969c.107079 0 .2158819-.0121584.3246848-.0374399 1.0841982-.2524299 2.1523057-.5453875 3.1746318-.8713462.7564485-.2410435 1.1757612-1.0542999.9365097-1.8164141-.2392515-.7621143-1.0462704-1.1849536-1.803102-.9437171-.95011.3028-1.9442776.5754937-2.9547273.8107475-.7731137.1798659-1.2550647.9570334-1.076536 1.7359377.1536267.6694794.7447637 1.1222321 1.398539 1.1222321z"/></g></g></g></svg>