<?xml version="1.0" encoding="UTF-8"?>
<svg width="24px" height="24px" viewBox="0 0 24 24" version="1.1" xmlns="http://www.w3.org/2000/svg" xmlns:xlink="http://www.w3.org/1999/xlink">
    <title>fusionauth-cloud</title>
    <g id="Nav-System" stroke="none" stroke-width="1" fill="none" fill-rule="evenodd">
        <g id="fusionauth-cloud">
            <polygon id="Path" points="0 0 24 0 24 24 0 24"></polygon>
            <path d="M19,18 C20.9329966,18 22.4999999,16.4329966 22.4999999,14.5 C22.4999999,12.5670034 20.9329966,11 19,11 L18,11 C18.3969618,9.23153533 17.7154755,7.40680766 16.2122504,6.21317425 C14.7090254,5.01954084 12.6124373,4.63834299 10.7122504,5.21317425 C8.81206364,5.78800551 7.39696177,7.23153533 7,9 C4.8013654,8.91193124 2.84546398,10.3256581 2.3336723,12.3728249 C1.82188062,14.4199916 2.89756246,16.527143 4.9,17.4" id="Path" stroke="#F58320" stroke-width="2" stroke-linecap="round" stroke-linejoin="round"></path>
            <line x1="12" y1="13" x2="12" y2="22" id="Path" stroke="#F58320" stroke-width="2" stroke-linecap="round" stroke-linejoin="round"></line>
            <polyline id="Path" stroke="#F58320" stroke-width="2" stroke-linecap="round" stroke-linejoin="round" points="9 19 12 22 15 19"></polyline>
        </g>
    </g>
</svg>