<?xml version="1.0" encoding="UTF-8"?>
<svg width="60px" height="60px" viewBox="0 0 60 60" version="1.1" xmlns="http://www.w3.org/2000/svg" xmlns:xlink="http://www.w3.org/1999/xlink">
    <title>fusionauth facebook</title>
    <g id="fusionauth-facebook" stroke="none" stroke-width="1" fill="none" fill-rule="evenodd">
        <g id="003-facebook" transform="translate(5.015682, 5.015682)" fill="#F58320" fill-rule="nonzero">
            <path d="M47.2399902,0 L2.75756841,0 C1.23443607,0.000915587806 0,1.23626716 0,2.76000982 L0,47.2424316 C0.000915587806,48.7655639 1.23626716,50 2.76000982,50 L26.7089844,50 L26.7089844,30.6640625 L20.2148438,30.6640625 L20.2148438,23.0957031 L26.7089844,23.0957031 L26.7089844,17.5259399 C26.7089844,11.0668946 30.6521606,7.55126957 36.4138793,7.55126957 C39.173584,7.55126957 41.545105,7.75695801 42.2363281,7.84881598 L42.2363281,14.5996094 L38.2632446,14.5996094 C35.128479,14.5996094 34.5214844,16.0891724 34.5214844,18.2754517 L34.5214844,23.0957031 L42.0166015,23.0957031 L41.040039,30.6640625 L34.5214844,30.6640625 L34.5214844,50 L47.2399902,50 C48.7640381,50 50,48.7652587 50,47.2412109 C50,47.2409057 50,47.2406006 50,47.2399902 L50,2.75756841 C49.9993896,1.23443607 48.7637328,0 47.2399902,0 Z" id="Path"></path>
        </g>
    </g>
</svg>