<?xml version="1.0" encoding="UTF-8"?>
<svg width="60px" height="60px" viewBox="0 0 60 60" version="1.1" xmlns="http://www.w3.org/2000/svg" xmlns:xlink="http://www.w3.org/1999/xlink">
    <title>fusionauth linkedin</title>
    <g id="fusionauth-linkedin" stroke="none" stroke-width="1" fill="none" fill-rule="evenodd">
        <g id="004-linkedin" transform="translate(5.015683, 5.015683)" fill="#F58320" fill-rule="nonzero">
            <path d="M49.9875,50 L49.9875,49.9979167 L50,49.9979167 L50,31.6604167 C50,22.6895833 48.06875,15.7791667 37.58125,15.7791667 C32.5395833,15.7791667 29.15625,18.5458333 27.775,21.16875 L27.6291667,21.16875 L27.6291667,16.6166667 L17.6854167,16.6166667 L17.6854167,49.9979167 L28.0395833,49.9979167 L28.0395833,33.46875 C28.0395833,29.1166667 28.8645833,24.9083333 34.2541667,24.9083333 C39.5645833,24.9083333 39.64375,29.875 39.64375,33.7479167 L39.64375,50 L49.9875,50 Z" id="Path"></path>
            <polygon id="Path" points="0.825 16.61875 11.1916667 16.61875 11.1916667 50 0.825 50"></polygon>
            <path d="M6.00416667,0 C2.68958333,0 0,2.68958333 0,6.00416667 C0,9.31875 2.68958333,12.0645833 6.00416667,12.0645833 C9.31875,12.0645833 12.0083333,9.31875 12.0083333,6.00416667 C12.00625,2.68958333 9.31666667,0 6.00416667,0 Z" id="Path"></path>
        </g>
    </g>
</svg>