<?xml version="1.0" encoding="UTF-8"?>
<svg width="245px" height="43px" viewBox="0 0 245 43" version="1.1" xmlns="http://www.w3.org/2000/svg" xmlns:xlink="http://www.w3.org/1999/xlink">
    <title>fusionauth-docs-logo</title>
    <g id="Docs" stroke="none" stroke-width="1" fill="none" fill-rule="evenodd">
        <g id="Group-29-Copy" fill-rule="nonzero">
            <g id="Group-28-Copy-3">
                <polygon id="Path" fill="#FFFFFF" points="54.4990083 12.5248629 66.4470116 12.5248629 66.4470116 15.5053895 57.7922883 15.5053895 57.7922883 20.3690104 65.948659 20.3690104 65.948659 23.3536939 57.7922883 23.3536939 57.7922883 31.0440346 54.4990083 31.0440346"></polygon>
                <path d="M78.993038,31.0481915 L75.9987695,31.0481915 L75.9987695,29.0320752 L75.9447813,29.0320752 C75.6345075,29.6821064 75.1678846,30.244879 74.5867705,30.6699099 C73.8551299,31.1694676 72.9792834,31.4134798 72.0950076,31.364119 C71.3631145,31.3821623 70.6360876,31.240305 69.9645503,30.948425 C69.4092956,30.7012129 68.9209626,30.3249908 68.5400925,29.8509926 C68.1804154,29.3811354 67.9216708,28.8419183 67.7801048,28.2671981 C67.6207429,27.6607659 67.5411645,27.0361023 67.543342,26.4090455 L67.543342,18.4900731 L70.6830086,18.4900731 L70.6830086,24.8460357 C70.6830086,25.1952188 70.6830086,25.5859712 70.7328439,26.0099792 C70.7665457,26.4228077 70.8588378,26.8287241 71.0069378,27.215492 C71.1498127,27.5830486 71.3842772,27.9078945 71.6880196,28.1591176 C72.0614082,28.4318883 72.5181924,28.5656742 72.9795834,28.5373992 C73.4339481,28.5515803 73.8855742,28.4620209 74.3002178,28.275512 C74.6460458,28.1102676 74.9499149,27.8686437 75.1889466,27.568832 C75.428756,27.26745 75.6027702,26.9190863 75.699758,26.5462246 C75.8053702,26.154553 75.8584399,25.7505549 75.8575696,25.3448686 L75.8575696,18.4900731 L78.993038,18.4900731 L78.993038,31.0481915 Z" id="Path" fill="#FFFFFF"></path>
                <path d="M88.6901487,21.9694326 C88.1462404,21.1482697 87.219828,20.663435 86.2357622,20.6849379 C85.8008157,20.6859598 85.3728524,20.7944817 84.9898808,21.0008654 C84.6037659,21.193713 84.3724033,21.6010409 84.4043165,22.0317867 C84.3884097,22.3839837 84.5847207,22.7114841 84.9026691,22.8631749 C85.2978765,23.0627027 85.7163996,23.2121198 86.1485505,23.3079676 C86.655209,23.4285189 87.1992439,23.557384 87.7806553,23.6862492 C88.3505456,23.8130335 88.9008715,24.0157598 89.4169129,24.2890056 C89.9140826,24.556937 90.340973,24.93866 90.6627944,25.4030658 C91.0213022,25.9815716 91.1938015,26.6562733 91.156994,27.3360433 C91.1806632,28.0023086 91.0135131,28.6614567 90.6752532,29.2357653 C90.361737,29.7421809 89.9352997,30.1690292 89.4293717,30.4828476 C88.8913976,30.8047597 88.3031667,31.0338147 87.6892906,31.1604289 C87.0537576,31.3009372 86.4048721,31.372021 85.7540214,31.3724329 C84.8402489,31.3829954 83.9309983,31.2425438 83.0629174,30.9567388 C82.2099428,30.6533831 81.452103,30.129984 80.8660131,29.4394554 L82.9424822,27.4773793 C83.3168894,27.909739 83.753594,28.2838175 84.238199,28.5872825 C84.7490623,28.8841161 85.3341405,29.0283629 85.9242919,29.0029766 C86.1604269,29.0025002 86.3957925,28.9760135 86.6261384,28.9239947 C86.8664296,28.8762318 87.096782,28.7876575 87.3072203,28.6621075 C87.5073904,28.5468797 87.6813622,28.3911453 87.8180317,28.204844 C87.9491285,28.0175034 88.0174693,27.7933624 88.0132198,27.5646751 C88.0373209,27.1747287 87.8460144,26.8029174 87.5148672,26.5961078 C87.1277015,26.3637751 86.7076576,26.1913911 86.2689858,26.0848041 C85.7664802,25.9559389 85.2182924,25.8353877 84.636881,25.7189933 C84.0699726,25.6130577 83.5206286,25.4283674 83.0047763,25.1702771 C82.5107349,24.9218037 82.0834781,24.5582853 81.7588948,24.1102572 C81.4002197,23.5502877 81.227271,22.8912853 81.2646952,22.227163 C81.2426462,21.5944324 81.3857851,20.96688 81.679989,20.4064228 C81.9579917,19.9039412 82.3454995,19.4705939 82.8137412,19.1385559 C83.3063313,18.7983595 83.8565122,18.5504691 84.43754,18.4069343 C85.0437925,18.2495098 85.6675833,18.1699267 86.2939034,18.1699267 C87.1419972,18.1665404 87.9845326,18.3070983 88.7856663,18.5856827 C89.585203,18.8599769 90.2792062,19.3773478 90.7707708,20.0655537 L88.6901487,21.9694326 Z" id="Path" fill="#FFFFFF"></path>
                <path d="M92.5357695,14.2250517 C92.5277117,13.7200831 92.7309935,13.234751 93.0964162,12.8865168 C93.474001,12.5114411 93.9891807,12.3084782 94.520874,12.3253298 C95.0583551,12.3175594 95.5779034,12.5187246 95.9702494,12.8865168 C96.3457148,13.2335466 96.5592446,13.7218231 96.5592446,14.2333656 C96.5592446,14.7449082 96.3457148,15.2331846 95.9702494,15.5802145 C95.5740324,15.9389405 95.0549279,16.1310007 94.520874,16.1164598 C93.9891807,16.1333114 93.474001,15.9303485 93.0964162,15.5552728 C92.733968,15.2084333 92.5310359,14.7269454 92.5357695,14.2250517 Z M92.9801339,18.4900731 L96.1156023,18.4900731 L96.1156023,31.0481915 L92.9801339,31.0481915 L92.9801339,18.4900731 Z" id="Shape" fill="#FFFFFF"></path>
                <path d="M97.8681422,24.7670538 C97.8623527,23.8359514 98.0519406,22.9140064 98.4246359,22.0608853 C99.1050457,20.4701592 100.415246,19.2339815 102.041845,18.6480369 C103.764714,18.0163426 105.655502,18.0163426 107.378371,18.6480369 C109.00497,19.2339815 110.31517,20.4701592 110.99558,22.0608853 C111.706315,23.7919844 111.706315,25.7338094 110.99558,27.4649085 C110.31517,29.0556346 109.00497,30.2918124 107.378371,30.877757 C105.655502,31.5094512 103.764714,31.5094512 102.041845,30.877757 C100.417661,30.2946647 99.1078525,29.0633716 98.4246359,27.4773793 C98.0513705,26.6229766 97.8617703,25.6995553 97.8681422,24.7670538 L97.8681422,24.7670538 Z M101.003595,24.7670538 C101.002277,25.2492369 101.086651,25.7278126 101.252787,26.1804138 C101.412301,26.6276752 101.660974,27.0378154 101.983704,27.3859266 C102.685086,28.1294043 103.661531,28.5507503 104.683114,28.5507503 C105.704697,28.5507503 106.681141,28.1294043 107.382524,27.3859266 C107.705253,27.0378154 107.953926,26.6276752 108.113441,26.1804138 C108.445498,25.2689144 108.445498,24.2693503 108.113441,23.3578509 C107.953926,22.9105895 107.705253,22.5004492 107.382524,22.152338 C106.681141,21.4088603 105.704697,20.9875143 104.683114,20.9875143 C103.661531,20.9875143 102.685086,21.4088603 101.983704,22.152338 C101.660974,22.5004492 101.412301,22.9105895 101.252787,23.3578509 C101.086964,23.8090957 101.002593,24.2862515 101.003595,24.7670538 Z" id="Shape" fill="#FFFFFF"></path>
                <path d="M113.184178,18.4900731 L116.165988,18.4900731 L116.165988,20.5020325 L116.215823,20.5020325 C116.530436,19.8547217 116.997996,19.2939654 117.577987,18.8683547 C118.309362,18.368225 119.185406,18.1241577 120.06975,18.1741456 C120.801926,18.1526886 121.529689,18.2946894 122.200207,18.5898397 C122.751395,18.8438349 123.238285,19.2189449 123.624665,19.6872721 C123.994978,20.1486232 124.261308,20.6846327 124.405417,21.2585957 C124.564779,21.8650279 124.644358,22.4896915 124.64218,23.1167483 L124.64218,31.0481915 L121.506667,31.0481915 L121.506667,24.6922289 C121.506667,24.3430459 121.506667,23.9522934 121.452678,23.5241285 C121.422509,23.1121101 121.330094,22.7070533 121.178584,22.3227726 C121.034052,21.9528081 120.794875,21.6273868 120.485044,21.379147 C120.114565,21.1100897 119.663013,20.9765478 119.205939,21.0008654 C118.751574,20.9866844 118.299948,21.0762437 117.885304,21.2627527 C117.54016,21.42909 117.236516,21.6705345 116.996576,21.9694326 C116.75759,22.2697858 116.583634,22.6166158 116.485764,22.9878831 C116.380221,23.3809847 116.327156,23.7863468 116.327953,24.193396 L116.327953,31.0481915 L113.192484,31.0481915 L113.184178,18.4900731 Z" id="Path" fill="#FFFFFF"></path>
                <path d="M133.915646,12.5248629 L136.764562,12.5248629 L144.738203,31.0481915 L140.971488,31.0481915 L139.248019,26.8081118 L131.232848,26.8081118 L129.571673,31.0481915 L125.888016,31.0481915 L133.915646,12.5248629 Z M138.097655,23.985549 L135.248739,16.4490151 L132.341682,23.985549 L138.097655,23.985549 Z" id="Shape" fill="#F58320"></path>
                <path d="M156.682053,31.0481915 L153.700244,31.0481915 L153.700244,29.0320752 L153.658714,29.0320752 C153.345699,29.6803464 152.879584,30.2425066 152.300704,30.6699099 C151.568799,31.1688981 150.693149,31.4128556 149.808941,31.364119 C149.077048,31.3821623 148.350021,31.240305 147.678483,30.948425 C147.123229,30.7012129 146.634896,30.3249908 146.254025,29.8509926 C145.881962,29.3855031 145.614274,28.8453572 145.46912,28.2671981 C145.309758,27.6607659 145.23018,27.0361023 145.232357,26.4090455 L145.232357,18.4900731 L148.367871,18.4900731 L148.367871,24.8460357 C148.367871,25.1952188 148.367871,25.5859712 148.421859,26.0099792 C148.451548,26.4234156 148.543973,26.8299143 148.695953,27.215492 C148.838828,27.5830486 149.073293,27.9078945 149.377035,28.1591176 C149.750424,28.4318883 150.207208,28.5656742 150.668599,28.5373992 C151.126393,28.5502463 151.581032,28.4578089 151.997539,28.2671981 C152.343367,28.1019537 152.647236,27.8603298 152.886268,27.5605181 C153.126077,27.2591361 153.300091,26.9107724 153.397079,26.5379107 C153.502691,26.1462391 153.555761,25.742241 153.554891,25.3365548 L153.554891,18.4900731 L156.690359,18.4900731 L156.682053,31.0481915 Z" id="Path" fill="#F58320"></path>
                <path d="M157.753511,21.1588292 L157.753511,18.4900731 L160.340792,18.4900731 L160.340792,14.8527498 L163.480413,14.8527498 L163.480413,18.4900731 L166.948117,18.4900731 L166.948117,21.1588292 L163.501178,21.1588292 L163.501178,26.654305 C163.474495,27.1734088 163.595458,27.6894411 163.850025,28.1424899 C164.086742,28.5124576 164.551871,28.695363 165.249565,28.695363 C165.557544,28.6911405 165.864597,28.6605446 166.167364,28.6039103 C166.446872,28.5619463 166.713559,28.4582923 166.948117,28.3004536 L166.948117,30.944268 C166.563635,31.1167986 166.154399,31.2276232 165.735459,31.2726663 C165.314027,31.3281615 164.889688,31.3586988 164.46466,31.364119 C163.770497,31.3841079 163.077681,31.2914562 162.413108,31.0897609 C161.929156,30.9329581 161.497964,30.6452199 161.167227,30.2583728 C160.846752,29.8498509 160.631414,29.3687993 160.540133,28.8574837 C160.419993,28.2203326 160.36296,27.5728696 160.369863,26.9245062 L160.369863,21.1588292 L157.753511,21.1588292 Z" id="Path" fill="#F58320"></path>
                <path d="M171.516349,20.2401452 L171.570337,20.2401452 C171.865991,19.6579905 172.311948,19.1656728 172.861901,18.8143145 C173.575683,18.3624179 174.410147,18.1390996 175.253993,18.1741456 C175.986238,18.1518468 176.714184,18.2938834 177.38445,18.5898397 C177.936312,18.8427176 178.423435,19.2180068 178.808908,19.6872721 C179.17939,20.1490946 179.447,20.6848314 179.593814,21.2585957 C179.753175,21.8650279 179.832754,22.4896915 179.830576,23.1167483 L179.830576,31.0481915 L176.69091,31.0481915 L176.69091,24.6922289 C176.69091,24.3430459 176.69091,23.9522934 176.641074,23.5241285 C176.606928,23.112717 176.514644,22.7082349 176.366981,22.3227726 C176.219759,21.953183 175.979384,21.6280783 175.669287,21.379147 C175.298508,21.1107012 174.847176,20.9772246 174.390182,21.0008654 C173.935817,20.9866844 173.484191,21.0762437 173.069548,21.2627527 C172.72372,21.427997 172.419851,21.669621 172.180819,21.9694326 C171.941833,22.2697858 171.767878,22.6166158 171.670007,22.9878831 C171.564464,23.3809847 171.511399,23.7863468 171.512196,24.193396 L171.512196,31.0481915 L168.376727,31.0481915 L168.376727,11.2653098 L171.516349,11.2653098 L171.516349,20.2401452 Z" id="Path" fill="#F58320"></path>
                <path d="M11.5244036,37.6785123 C10.0300984,36.8188719 8.66654082,35.7493724 7.47528881,34.5026094 C7.12979754,34.9363756 6.70746172,35.3027527 6.22940734,35.5834141 C5.96536005,35.7326415 5.68712518,35.8551828 5.39881969,35.9492249 C11.8439389,42.9941021 22.2881161,44.6664366 30.6071547,39.9856145 C31.0005282,39.7595293 31.2430907,39.3401472 31.2430907,38.8861036 C31.2430907,38.43206 31.0005282,38.0126779 30.6071547,37.7865927 L30.6071547,37.7865927 C30.2253971,37.5573566 29.7504506,37.5494332 29.3612733,37.765808 C23.8191882,40.8984148 17.0356207,40.8652152 11.5244036,37.6785123 Z" id="Path" fill="#FFFFFF"></path>
                <path d="M11.5202506,6.51808332 C13.015034,5.65513369 14.6263517,5.01250553 16.3044355,4.61004745 C16.0959206,4.08052371 15.9888487,3.51644391 15.9888122,2.94727109 C15.9895925,2.6401857 16.0201913,2.33390327 16.0801768,2.0327441 C6.76545869,4.10306883 0.103145286,12.3235932 0,21.873823 C0.00148545994,22.3275277 0.24428519,22.7460938 0.63720035,22.972302 C1.03011551,23.1985102 1.51365643,23.1981114 1.90619865,22.9712554 L1.90619865,22.9712554 C2.29162399,22.7544964 2.53342604,22.3495226 2.54159819,21.9070785 C2.6095085,15.550248 6.02239319,9.70072139 11.5202506,6.51808332 Z" id="Path" fill="#FFFFFF"></path>
                <path d="M38.4769727,22.0982978 C38.4763952,23.8251869 38.2274336,25.5429978 37.7377497,27.1988643 C38.2962002,27.2807959 38.8343247,27.4669239 39.3241721,27.7475805 C39.5870283,27.8981247 39.8358228,28.0720313 40.067548,28.2671981 C42.9263951,19.1573125 39.1416033,9.27637314 30.9310839,4.41467123 C30.5378481,4.20846302 30.0656133,4.22260434 29.685396,4.45197402 C29.3051787,4.6813437 29.0720999,5.09268945 29.0704993,5.53704527 L29.0704993,5.53704527 C29.0659586,5.97862303 29.2949995,6.38971304 29.6727436,6.6178499 C35.1320938,9.86023522 38.4784722,15.7441618 38.4769727,22.0982978 Z" id="Path" fill="#FFFFFF"></path>
                <path d="M20.5113619,13.5433124 C23.9685757,13.5416319 27.0863041,15.6249205 28.4104868,18.8215656 C29.7346694,22.0182107 29.0044715,25.6985436 26.560446,28.146114 C24.1164205,30.5936844 20.4399866,31.3263748 17.2457763,30.0024697 C14.051566,28.6785646 11.968768,25.5588442 11.968768,22.0982978 C11.9733423,17.3770308 15.7946437,13.5501868 20.5113619,13.5433124 M20.5113619,11.0034218 C14.3897316,11.0034218 9.42716977,15.9707674 9.42716977,22.0982978 C9.42716977,28.2258282 14.3897316,33.193173 20.5113619,33.193173 C26.6329922,33.193173 31.5955548,28.2258282 31.5955548,22.0982978 C31.5966562,19.1554159 30.4292147,16.3327499 28.3502865,14.251818 C26.2713582,12.170886 23.4514102,11.0023193 20.5113619,11.0034218 Z" id="Shape" fill="#FFFFFF"></path>
                <ellipse id="Oval" fill="#F58320" cx="20.507209" cy="2.95974192" rx="2.95689202" ry="2.95974192"></ellipse>
                <ellipse id="Oval" fill="#F58320" cx="3.94944425" cy="31.6634188" rx="2.95689202" ry="2.95974192"></ellipse>
                <ellipse id="Oval" fill="#F58320" cx="37.0649737" cy="31.6634188" rx="2.95689202" ry="2.95974192"></ellipse>
                <path d="M22.9616103,20.0738676 C22.9632306,18.8802044 22.1060783,17.8587091 20.9311993,17.6541807 C19.7563204,17.4496524 18.6049514,18.121495 18.2038718,19.2456211 C17.8027921,20.3697472 18.268493,21.6196608 19.3070098,22.2063783 L18.5345633,26.1263735 C18.5092983,26.2501336 18.5416229,26.3786786 18.6224115,26.4757184 C18.7032002,26.5727582 18.8236871,26.6277638 18.9498571,26.6252918 L22.0936314,26.6252918 C22.2198014,26.6277638 22.3402883,26.5727582 22.4210769,26.4757184 C22.5018656,26.3786786 22.5341902,26.2501336 22.5089252,26.1263735 L21.7323257,22.2063783 C22.4952974,21.7684457 22.9646505,20.9542221 22.9616103,20.0738676 L22.9616103,20.0738676 Z" id="Path" fill="#F58320"></path>
            </g>
            <g id="Docs" transform="translate(190.236000, 12.592000)" fill="#FFFFFF">
                <path d="M1.872,16.692 L5.512,16.692 C6.916,16.692 8.13366667,16.4796667 9.165,16.055 C10.1963333,15.6303333 11.0543333,15.067 11.739,14.365 C12.4236667,13.663 12.9306667,12.8656667 13.26,11.973 C13.5893333,11.0803333 13.754,10.1573333 13.754,9.204 C13.754,8.25066667 13.5893333,7.32766667 13.26,6.435 C12.9306667,5.54233333 12.4236667,4.745 11.739,4.043 C11.0543333,3.341 10.1963333,2.77766667 9.165,2.353 C8.13366667,1.92833333 6.916,1.716 5.512,1.716 L1.872,1.716 L1.872,16.692 Z M0,0 L6.11,0 C7.254,0 8.40233333,0.190666667 9.555,0.572 C10.7076667,0.953333333 11.7476667,1.52966667 12.675,2.301 C13.6023333,3.07233333 14.352,4.03433333 14.924,5.187 C15.496,6.33966667 15.782,7.67866667 15.782,9.204 C15.782,10.7466667 15.496,12.09 14.924,13.234 C14.352,14.378 13.6023333,15.3356667 12.675,16.107 C11.7476667,16.8783333 10.7076667,17.4546667 9.555,17.836 C8.40233333,18.2173333 7.254,18.408 6.11,18.408 L0,18.408 L0,0 Z" id="Shape"></path>
                <path d="M29.0712889,12.324 C29.0712889,11.648 28.9629556,11.0153333 28.7462889,10.426 C28.5296223,9.83666667 28.2219556,9.32533333 27.8232889,8.892 C27.4246223,8.45866667 26.9436223,8.11633333 26.3802889,7.865 C25.8169556,7.61366667 25.1799556,7.488 24.4692889,7.488 C23.7586223,7.488 23.1216223,7.61366667 22.5582889,7.865 C21.9949556,8.11633333 21.5182889,8.45866667 21.1282889,8.892 C20.7382889,9.32533333 20.4349556,9.83666667 20.2182889,10.426 C20.0016223,11.0153333 19.8932889,11.648 19.8932889,12.324 C19.8932889,13 20.0016223,13.6326667 20.2182889,14.222 C20.4349556,14.8113333 20.7382889,15.3226667 21.1282889,15.756 C21.5182889,16.1893333 21.9949556,16.5316667 22.5582889,16.783 C23.1216223,17.0343333 23.7586223,17.16 24.4692889,17.16 C25.1799556,17.16 25.8169556,17.0343333 26.3802889,16.783 C26.9436223,16.5316667 27.4246223,16.1893333 27.8232889,15.756 C28.2219556,15.3226667 28.5296223,14.8113333 28.7462889,14.222 C28.9629556,13.6326667 29.0712889,13 29.0712889,12.324 Z M30.9432889,12.324 C30.9432889,13.2426667 30.7829556,14.092 30.4622889,14.872 C30.1416223,15.652 29.6952889,16.328 29.1232889,16.9 C28.5512889,17.472 27.8709556,17.9183333 27.0822889,18.239 C26.2936223,18.5596667 25.4226223,18.72 24.4692889,18.72 C23.5332889,18.72 22.6709556,18.5596667 21.8822889,18.239 C21.0936223,17.9183333 20.4132889,17.472 19.8412889,16.9 C19.2692889,16.328 18.8229556,15.652 18.5022889,14.872 C18.1816223,14.092 18.0212889,13.2426667 18.0212889,12.324 C18.0212889,11.4053333 18.1816223,10.556 18.5022889,9.776 C18.8229556,8.996 19.2692889,8.32 19.8412889,7.748 C20.4132889,7.176 21.0936223,6.72966667 21.8822889,6.409 C22.6709556,6.08833333 23.5332889,5.928 24.4692889,5.928 C25.4226223,5.928 26.2936223,6.08833333 27.0822889,6.409 C27.8709556,6.72966667 28.5512889,7.176 29.1232889,7.748 C29.6952889,8.32 30.1416223,8.996 30.4622889,9.776 C30.7829556,10.556 30.9432889,11.4053333 30.9432889,12.324 Z" id="Shape"></path>
                <path d="M42.6725779,9.1 C42.3779112,8.64933333 41.9662446,8.268 41.4375779,7.956 C40.9089112,7.644 40.3065779,7.488 39.6305779,7.488 C38.9199112,7.47066667 38.2829112,7.58333333 37.7195779,7.826 C37.1562446,8.06866667 36.6752446,8.40666667 36.2765779,8.84 C35.8779112,9.27333333 35.5745779,9.789 35.3665779,10.387 C35.1585779,10.985 35.0545779,11.6306667 35.0545779,12.324 C35.0545779,13.0173333 35.1585779,13.663 35.3665779,14.261 C35.5745779,14.859 35.8779112,15.3746667 36.2765779,15.808 C36.6752446,16.2413333 37.1562446,16.5793333 37.7195779,16.822 C38.2829112,17.0646667 38.9199112,17.1773333 39.6305779,17.16 C40.3065779,17.16 40.9089112,17.004 41.4375779,16.692 C41.9662446,16.38 42.3779112,15.9986667 42.6725779,15.548 L44.0765779,16.614 C43.4699112,17.3246667 42.7852446,17.849 42.0225779,18.187 C41.2599112,18.525 40.4625779,18.7026667 39.6305779,18.72 C38.6425779,18.7373333 37.7499112,18.5856667 36.9525779,18.265 C36.1552446,17.9443333 35.4749112,17.498 34.9115779,16.926 C34.3482446,16.354 33.9192446,15.6736667 33.6245779,14.885 C33.3299112,14.0963333 33.1825779,13.2426667 33.1825779,12.324 C33.1825779,11.4053333 33.3299112,10.5516667 33.6245779,9.763 C33.9192446,8.97433333 34.3482446,8.294 34.9115779,7.722 C35.4749112,7.15 36.1552446,6.70366667 36.9525779,6.383 C37.7499112,6.06233333 38.6425779,5.91066667 39.6305779,5.928 C40.4625779,5.94533333 41.2599112,6.123 42.0225779,6.461 C42.7852446,6.799 43.4699112,7.32333333 44.0765779,8.034 L42.6725779,9.1 Z" id="Path"></path>
                <path d="M52.5298668,9.126 C52.2698668,8.62333333 51.9232002,8.22466667 51.4898668,7.93 C51.0565335,7.63533333 50.5278668,7.488 49.9038668,7.488 C49.6092002,7.488 49.3102002,7.52266667 49.0068668,7.592 C48.7035335,7.66133333 48.4305335,7.76966667 48.1878668,7.917 C47.9452002,8.06433333 47.7502002,8.25066667 47.6028668,8.476 C47.4555335,8.70133333 47.3818668,8.97866667 47.3818668,9.308 C47.3818668,9.88 47.5812002,10.296 47.9798668,10.556 C48.3785335,10.816 48.9765335,11.0413333 49.7738668,11.232 L51.5158668,11.648 C52.3652002,11.8386667 53.0715335,12.2243333 53.6348668,12.805 C54.1982002,13.3856667 54.4798668,14.1093333 54.4798668,14.976 C54.4798668,15.6346667 54.3455335,16.2023333 54.0768668,16.679 C53.8082002,17.1556667 53.4528668,17.5456667 53.0108668,17.849 C52.5688668,18.1523333 52.0618668,18.3733333 51.4898668,18.512 C50.9178668,18.6506667 50.3372002,18.72 49.7478668,18.72 C48.8118668,18.72 47.9408668,18.5423333 47.1348668,18.187 C46.3288668,17.8316667 45.6398668,17.2206667 45.0678668,16.354 L46.5498668,15.34 C46.8965335,15.8946667 47.3342002,16.3366667 47.8628668,16.666 C48.3915335,16.9953333 49.0198668,17.16 49.7478668,17.16 C50.0945335,17.16 50.4412002,17.121 50.7878668,17.043 C51.1345335,16.965 51.4422002,16.8436667 51.7108668,16.679 C51.9795335,16.5143333 52.1962002,16.302 52.3608668,16.042 C52.5255335,15.782 52.6078668,15.4786667 52.6078668,15.132 C52.6078668,14.5253333 52.3825335,14.0876667 51.9318668,13.819 C51.4812002,13.5503333 50.9352002,13.338 50.2938668,13.182 L48.6298668,12.792 C48.4218668,12.74 48.1402002,12.6533333 47.7848668,12.532 C47.4295335,12.4106667 47.0828668,12.2286667 46.7448668,11.986 C46.4068668,11.7433333 46.1165335,11.427 45.8738668,11.037 C45.6312002,10.647 45.5098668,10.166 45.5098668,9.594 C45.5098668,8.97 45.6355335,8.424 45.8868668,7.956 C46.1382002,7.488 46.4762002,7.10666667 46.9008668,6.812 C47.3255335,6.51733333 47.8065335,6.29633333 48.3438668,6.149 C48.8812002,6.00166667 49.4358668,5.928 50.0078668,5.928 C50.8572002,5.928 51.6458668,6.09266667 52.3738668,6.422 C53.1018668,6.75133333 53.6652002,7.31466667 54.0638668,8.112 L52.5298668,9.126 Z" id="Path"></path>
            </g>
        </g>
    </g>
</svg>