<?xml version="1.0" encoding="UTF-8"?>
<svg width="60px" height="60px" viewBox="0 0 60 60" version="1.1" xmlns="http://www.w3.org/2000/svg" xmlns:xlink="http://www.w3.org/1999/xlink">
    <title>fusionauth youtube</title>
    <g id="fusionauth-youtube" stroke="none" stroke-width="1" fill="none" fill-rule="evenodd">
        <g id="005-youtube" transform="translate(5.000000, 5.000000)" fill="#F58320" fill-rule="nonzero">
            <polygon id="Path" points="21.2613349 19.0086593 31.0106194 24.9996969 21.2613349 30.9850531"></polygon>
            <path d="M49.1456522,8.94121627 C48.6895625,4.67673077 45.3199822,1.30833358 41.0553368,0.853741605 C30.3856397,-0.284580535 19.6251169,-0.284580535 8.95541977,0.853741605 C4.68634792,1.303327 1.31081722,4.67293988 0.853741605,8.94121627 C-0.284580535,19.6109134 -0.284580535,30.3714362 0.853741605,41.0411333 C1.30231997,45.3122588 4.67372486,48.6895826 8.94405697,49.1456522 C19.6134557,50.2895688 30.3745752,50.2895688 41.043974,49.1456522 C45.3149404,48.6955747 48.69108,45.3229865 49.1456522,41.0524961 C50.2847826,30.3790437 50.2847826,19.6146687 49.1456522,8.94121627 L49.1456522,8.94121627 Z M39.8963309,32.5190314 C39.2713768,34.439345 37.2033467,35.606873 35.3000773,35.8738989 C28.45431,36.6011263 21.5507651,36.6011263 14.7049978,35.8738989 C12.8017284,35.606873 10.728017,34.4535485 10.1087442,32.5190314 C9.13440065,27.5544428 9.13440065,22.4477917 10.1087442,17.483203 C10.7336984,15.5600487 12.8017284,14.3953615 14.7049978,14.1283356 C21.5507651,13.4011082 28.45431,13.4011082 35.3000773,14.1283356 C37.2033467,14.3953615 39.2770582,15.5486859 39.8963309,17.483203 C40.8693649,22.447056 40.8684001,27.5527059 39.8934902,32.5161907 L39.8963309,32.5190314 Z" id="Shape"></path>
        </g>
    </g>
</svg>