<?xml version="1.0" encoding="UTF-8"?>
<svg width="60px" height="60px" viewBox="0 0 60 60" version="1.1" xmlns="http://www.w3.org/2000/svg" xmlns:xlink="http://www.w3.org/1999/xlink">
    <title>fusionauth-twitter</title>
    <g id="fusionauth-twitter" stroke="none" stroke-width="1" fill="none" fill-rule="evenodd">
        <g id="002-twitter" transform="translate(5.000000, 10.000000)" fill="#F58320" fill-rule="nonzero">
            <path d="M50,4.809375 C48.140625,5.625 46.159375,6.165625 44.09375,6.428125 C46.21875,5.159375 47.840625,3.165625 48.603125,0.7625 C46.621875,1.94375 44.434375,2.778125 42.103125,3.24375 C40.221875,1.240625 37.540625,0 34.615625,0 C28.940625,0 24.371875,4.60625 24.371875,10.253125 C24.371875,11.065625 24.440625,11.846875 24.609375,12.590625 C16.0875,12.175 8.546875,8.090625 3.48125,1.86875 C2.596875,3.403125 2.078125,5.159375 2.078125,7.05 C2.078125,10.6 3.90625,13.746875 6.63125,15.56875 C4.984375,15.5375 3.36875,15.059375 2,14.30625 C2,14.3375 2,14.378125 2,14.41875 C2,19.4 5.553125,23.5375 10.2125,24.490625 C9.378125,24.71875 8.46875,24.828125 7.525,24.828125 C6.86875,24.828125 6.20625,24.790625 5.584375,24.653125 C6.9125,28.7125 10.68125,31.696875 15.1625,31.79375 C11.675,34.521875 7.246875,36.165625 2.453125,36.165625 C1.6125,36.165625 0.80625,36.128125 0,36.025 C4.540625,38.953125 9.921875,40.625 15.725,40.625 C34.5875,40.625 44.9,25 44.9,11.45625 C44.9,11.003125 44.884375,10.565625 44.8625,10.13125 C46.896875,8.6875 48.60625,6.884375 50,4.809375 Z" id="Path"></path>
        </g>
    </g>
</svg>