<svg height="60" viewBox="0 0 60 60" width="60" xmlns="http://www.w3.org/2000/svg"><path d="m25.5282946 0c-14.0965717 0-25.5282946 11.476403-25.5282946 25.633612 0 11.3232141 7.31477076 20.9294357 17.4635365 24.3219319 1.2765743.2361663 1.7425239-.5553098 1.7425239-1.2350856 0-.6095643-.0223401-2.2212393-.0351058-4.3595013-7.1009446 1.5478464-8.6009194-3.4371763-8.6009194-3.4371763-1.15849115-2.9616524-2.83399492-3.749937-2.83399492-3.749937-2.3201738-1.589335.17233753-1.5574206.17233753-1.5574206 2.56272289.1819118 3.90950879 2.6425088 3.90950879 2.6425088 2.2786851 3.9158916 5.9775592 2.7861234 7.4328539 2.1286876.2297834-1.6563552.8904106-2.7861234 1.6212494-3.427602-5.66799-.6478615-11.62959195-2.8467607-11.62959195-12.6668085 0-2.7988892.99572795-5.0871486 2.62974305-6.8807355-.2648892-.6478615-1.1393425-3.2552645.248932-6.781801 0 0 2.1446448-.68935012 7.0211587 2.6265516 2.036136-.5680755 4.219078-.8521133 6.3924458-.8616876 2.1669849.0127657 4.3531184.2936121 6.3924458.8648791 4.8733224-3.31590178 7.0147758-2.6265517 7.0147758-2.6265517 1.391466 3.529728.5170126 6.1339396.2553149 6.781801 1.6372065 1.7935869 2.6233602 4.0818464 2.6233602 6.8807355 0 9.8455793-5.9679849 12.0125642-11.6551234 12.6476599.915942.7914761 1.7329496 2.3552796 1.7329496 4.745665 0 3.427602-.0319144 6.1913854-.0319144 7.030733 0 .6861587.4595668 1.4840176 1.7552897 1.2318942 10.1328085-3.3956877 17.4411964-12.9987179 17.4411964-24.3187405 0-14.157209-11.4317229-25.633612-25.5346775-25.633612z" fill="#f58320" transform="translate(4.015683 5.344683)"/></svg>