<?xml version="1.0" encoding="UTF-8"?>
<svg width="60px" height="60px" viewBox="0 0 60 60" version="1.1" xmlns="http://www.w3.org/2000/svg" xmlns:xlink="http://www.w3.org/1999/xlink">
    <title>fusionauth rss feed</title>
    <g id="fusionauth-rss-feed" stroke="none" stroke-width="1" fill="none" fill-rule="evenodd">
        <g id="006-rss" transform="translate(5.000000, 5.000000)" fill="#F58320" fill-rule="nonzero">
            <path d="M43.1818182,0 L6.81818182,0 C3.05260398,0 0,3.05260398 0,6.81818182 L0,43.1818182 C0,46.947396 3.05260398,50 6.81818182,50 L43.1818182,50 C46.947396,50 50,46.947396 50,43.1818182 L50,6.81818182 C50,3.05260398 46.947396,0 43.1818182,0 Z M16.4602273,39.3721591 C14.8393904,40.9873972 12.2174278,40.9873972 10.5965909,39.3721591 C9.41657358,38.1885927 9.06476151,36.4111967 9.70492342,34.8673499 C10.3450853,33.3235032 11.8514198,32.3165946 13.5227273,32.3153409 C15.2001611,32.3035695 16.7179014,33.3080966 17.3625529,34.8567564 C18.0072043,36.4054162 17.6505486,38.190187 16.4602273,39.3721591 L16.4602273,39.3721591 Z M24.0028409,40.625 C24.0091206,32.5390682 17.4609287,25.9781589 9.375,25.96875 L9.375,20.0028409 C20.7545798,20.0262831 29.9737169,29.2454202 29.9971591,40.625 L24.0028409,40.625 Z M34.6420455,40.625 C34.6264328,26.6796478 23.3345268,15.3737682 9.38920455,15.3409091 L9.38920455,9.375 C26.6321754,9.4078525 40.599987,23.382016 40.625,40.625 L34.6420455,40.625 Z" id="icon"></path>
        </g>
    </g>
</svg>