<svg height="36" viewBox="0 0 36 36" width="36" xmlns="http://www.w3.org/2000/svg" xmlns:xlink="http://www.w3.org/1999/xlink"><mask id="a" fill="#fff"><path d="m0 0h36v36h-36z" fill="#fff" fill-rule="evenodd"/></mask><g fill="none" mask="url(#a)"><g transform="translate(3 3)"><circle cx="15.5" cy="15.5" fill="#639" r="15.5"/><path d="m6.86428571 24.1357143c-2.325-2.325-3.54285714-5.425-3.54285714-8.4142857l12.06785713 11.9571428c-3.1-.1107143-6.19999999-1.2178571-8.52499999-3.5428571zm11.29285719 3.2107143-14.50357147-14.5035715c1.21785714-5.42499996 6.08928571-9.52142853 11.84642857-9.52142853 4.0964286 0 7.6392857 1.99285714 9.8535714 4.98214286l-1.6607143 1.43928571c-1.8821428-2.54642857-4.8714285-4.20714285-8.1928571-4.20714285-4.3178571 0-7.97142857 2.76785714-9.41071429 6.64285711l12.73214289 12.7321429c3.2107143-1.1071429 5.6464285-3.875 6.4214285-7.1964286h-5.3142857v-2.2142857h7.75c0 5.7571429-4.0964285 10.6285714-9.5214285 11.8464286z" fill="#fff"/></g></g></svg>