<?xml version="1.0" encoding="UTF-8"?>
<svg width="36px" height="36px" viewBox="0 0 36 36" version="1.1" xmlns="http://www.w3.org/2000/svg" xmlns:xlink="http://www.w3.org/1999/xlink">
    <title>identity-authentication-authentication-icon</title>
    <defs>
        <rect id="path-1" x="0" y="0" width="36" height="36"></rect>
    </defs>
    <g id="Docs" stroke="none" stroke-width="1" fill="none" fill-rule="evenodd">
        <g id="docs-landing-page" transform="translate(-422.000000, -2012.000000)">
            <g id="identity-authentication-authentication-icon" transform="translate(422.000000, 2012.000000)">
                <mask id="mask-2" fill="white">
                    <use xlink:href="#path-1"></use>
                </mask>
                <g id="Mask"></g>
                <g mask="url(#mask-2)" fill-rule="nonzero">
                    <g transform="translate(3.000000, 4.000000)">
                        <path d="M11.6666667,13.5416667 C15.348565,13.5416667 18.3333333,10.5102613 18.3333333,6.77083333 C18.3333333,3.03140534 15.348565,0 11.6666667,0 C7.98476833,0 5,3.03140534 5,6.77083333 C5,10.5102613 7.98476833,13.5416667 11.6666667,13.5416667 Z" id="Path" fill="#1E293B"></path>
                        <path d="M9.28645833,16.0807292 C4.15625,16.0807292 0,20.3019206 0,25.5122884 C0,26.3798014 0.692708333,27.0833333 1.546875,27.0833333 L20.4479167,27.0833333 C20.1666667,26.5861003 20,26.0095215 20,25.390625 L20,18.6197917 C20,18.5087077 20.0052083,18.3976237 20.015625,18.2865397 C18.4010417,16.9112142 16.3177083,16.0807292 14.046875,16.0807292 L9.28645833,16.0807292 Z" id="Path" fill="#1E293B"></path>
                        <path d="M24.1666667,10.15625 C26.46875,10.15625 28.3333333,12.0499674 28.3333333,14.3880208 L28.3333333,16.9270833 C29.2552083,16.9270833 30,17.6835124 30,18.6197917 L30,25.390625 C30,26.3269043 29.2552083,27.0833333 28.3333333,27.0833333 L20,27.0833333 C19.078125,27.0833333 18.3333333,26.3269043 18.3333333,25.390625 L18.3333333,18.6197917 C18.3333333,17.6835124 19.078125,16.9270833 20,16.9270833 L20,14.3880208 C20,12.0499674 21.8645833,10.15625 24.1666667,10.15625 Z M24.1666667,12.6953125 C23.2447917,12.6953125 22.5,13.4517415 22.5,14.3880208 L22.5,16.9270833 L25.8333333,16.9270833 L25.8333333,14.3880208 C25.8333333,13.4517415 25.0885417,12.6953125 24.1666667,12.6953125 Z" id="Combined-Shape" fill="#6366F1"></path>
                    </g>
                </g>
            </g>
        </g>
    </g>
</svg>