<svg height="125" viewBox="0 0 125 125" width="125" xmlns="http://www.w3.org/2000/svg"><g fill="none" fill-rule="evenodd"><rect fill="#0ea5e9" height="125" rx="5" width="125"/><g fill="#1d1c21" fill-rule="nonzero" transform="translate(16 25)"><path d="m89.2306194 43.4981837c-1.1243876-.6187151-2.5511719-.4827294-3.9147569.3730635l-25.1891232 15.8136241c-.7009923.4402588-.91139 1.3634463-.4699949 2.0623172.4415952.6988709 1.367585.9086319 2.0685773.4685725l25.1891232-15.8136241c.5319942-.3339826.823191-.3094573.8661905-.2855302.0435995.0239271.2191976.2562195.2191976.8829103 0 1.6846677-1.2541862 3.9497671-2.6839705 4.8474324l-24.4195317 15.3302965c-1.2983857.8151168-2.4853727 1.039234-3.2567642.6149267-.7711915-.4245068-1.2133867-1.5452923-1.2133867-3.0752314 0-3.8757925 2.7791695-8.8949019 6.0689333-10.9600106l27.8042945-17.455223c.4361952-.273766.7005923-.7517099.7005923-1.2655445s-.2645971-.9917786-.7005923-1.2655446l-53.4262129-33.54061919c-.4883946-.30666575-1.1101878-.30666575-1.5985824 0l-28.14269077 17.66777549c-3.99915606 2.5107511-7.13192163 8.168116-7.13192163 12.8797621v.7975702c0 4.7116461 3.13276557 10.3692104 7.13192163 12.8797621l41.85793997 26.2781442c.7009923.4400593 1.6271822.230099 2.0685773-.4685725.4413952-.6988709.2309975-1.6222579-.4699948-2.0623172l-41.85794004-26.2781442c-3.10636586-1.9498598-5.73053703-6.6892214-5.73053703-10.3488724v-.7975702c0-3.659651 2.62417117-8.3988132 5.73053703-10.3488724l27.34329954-17.16590443 50.6112438 31.77320363-25.7885166 16.1898779c-4.188954 2.6297884-7.4703179 8.5557351-7.4703179 13.4910996 0 2.6908025.9813892 4.7128424 2.7635696 5.6936544.7157922.3939997 1.5051835.5894044 2.3417743.5894044 1.2461863 0 2.5969715-.4338782 3.9633564-1.2918644l24.4195317-15.3302965c2.2909748-1.4382185 4.0855551-4.6791451 4.0855551-7.3783221 0-1.6063065-.6449929-2.8824188-1.7693806-3.5013333z"/><path d="m70.7320227 36.5316072c.4983945 0 .9855892-.2474461 1.2707861-.6986715.4413951-.6988709.2308725-1.6222578-.4699949-2.0623172l-34.6596191-21.7589119c-.7011923-.4400594-1.6271821-.2301254-2.0685773.4685725-.4413951.6988709-.2308725 1.6222578.4699949 2.0623172l34.6596191 21.7589119c.2481973.1557256.5245942.230099.7977912.230099z"/><path d="m64.7352886 40.5003166c.4993945 0 .9875892-.2484431 1.272186-.7012636.4401952-.6996684.2279975-1.6226566-.4739947-2.0613202l-14.6420391-9.1531152c-.7021923-.4390624-1.6277822-.2271082-2.0675773.4725603-.4401952.6998679-.2279975 1.6226566.4739948 2.0613203l14.6420391 9.1531152c.2475972.154928.5229942.2287032.7953912.2287032z"/><path d="m44.7801079 32.5204272c-.7025923-.4374673-1.6279821-.2241172-2.0667773.4765482s-.2247975 1.6230554.4779948 2.0605227l14.7544378 9.1844198c.2471973.1537317.5215943.2271082.7929913.2271082.5001945 0 .9893891-.2494401 1.273786-.7036564.4387952-.7006654.2247976-1.6230554-.4779947-2.0605226z"/><path d="m29.0414809 15.9251843-12.465863 7.8269553c-.4373952.2745636-.7021923.754302-.7005996 1.2697318.0016072.5154298.2690043.9935731.7079995 1.2657439l14.8668366 9.2157245c.2425973.150342.5171943.225513.7919913.225513.2833969 0 .5665938-.0799564.814191-.2394705l3.3111637-2.1335003c.6957923-.4484338.8951901-1.3740141.4455951-2.0677008-.4495951-.6936867-1.3781849-.8922817-2.0739772-.4442466l-2.5123724 1.6188682-12.0236679-7.4532937 9.6398941-6.052561 11.8486698 7.4068352-1.3813849.8900884c-.6957923.4484338-.8951901 1.3740141-.4455951 2.0677007.4497951.6936867 1.3787849.8924811 2.0739772.4442467l3.3599631-2.1652038c.4305953-.2775544.6891924-.7550996.6858256-1.2663421-.0036331-.5110431-.2688302-.9849992-.7032254-1.2565719l-14.6434391-9.1539128c-.4879946-.30527-1.1083878-.3046718-1.5959824.0013958z"/><path d="m54.0172064 47.731487c.4373952-.701463.2217976-1.6234541-.4817947-2.0595257l-14.8672366-9.2161232c-.7035923-.436271-1.6285821-.2211264-2.0657773.4803366-.4373952.701463-.2217976 1.6234542.4817947 2.0595257l14.8672366 9.2161233c.2463973.1529341.5201943.2257124.7905913.2257124.5011945 0 .9911891-.2504371 1.275186-.7060491z"/><path d="m10.7052824 28.5933908c-.4373952.701463-.2217976 1.6234542.4817947 2.0595257l36.6951967 22.7469021c.2463973.1529341.5201943.2257124.7905913.2257124.5011945 0 .9911891-.2504371 1.275186-.7060491.4373952-.701463.2217976-1.6234542-.4817947-2.0595257l-36.6951967-22.746902c-.7035923-.4364703-1.6283821-.2211264-2.0657773.4803366z"/></g></g></svg>