<?xml version="1.0" encoding="UTF-8"?>
<svg width="91px" height="91px" viewBox="0 0 91 91" version="1.1" xmlns="http://www.w3.org/2000/svg" xmlns:xlink="http://www.w3.org/1999/xlink">
    <title>install-locally-icon</title>
    <defs>
        <circle id="path-1" cx="42.5" cy="42.5" r="42.5"></circle>
        <filter x="-5.9%" y="-4.7%" width="111.8%" height="111.8%" filterUnits="objectBoundingBox" id="filter-2">
            <feMorphology radius="0.5" operator="dilate" in="SourceAlpha" result="shadowSpreadOuter1"></feMorphology>
            <feOffset dx="0" dy="1" in="shadowSpreadOuter1" result="shadowOffsetOuter1"></feOffset>
            <feGaussianBlur stdDeviation="1" in="shadowOffsetOuter1" result="shadowBlurOuter1"></feGaussianBlur>
            <feColorMatrix values="0 0 0 0 0   0 0 0 0 0   0 0 0 0 0  0 0 0 0.11324369 0" type="matrix" in="shadowBlurOuter1"></feColorMatrix>
        </filter>
        <linearGradient x1="50%" y1="0%" x2="50%" y2="79.8162287%" id="linearGradient-3">
            <stop stop-color="#6366F1" offset="0%"></stop>
            <stop stop-color="#000000" offset="100%"></stop>
        </linearGradient>
        <linearGradient x1="50%" y1="25.2400549%" x2="17.6578948%" y2="71.1127148%" id="linearGradient-4">
            <stop stop-color="#6366F1" offset="0%"></stop>
            <stop stop-color="#6366F1" offset="0%"></stop>
            <stop stop-color="#000000" offset="100%"></stop>
        </linearGradient>
        <linearGradient x1="49.723614%" y1="-124.779235%" x2="50.2547262%" y2="268.994695%" id="linearGradient-5">
            <stop stop-color="#6366F1" offset="0%"></stop>
            <stop stop-color="#000000" offset="100%"></stop>
        </linearGradient>
    </defs>
    <g id="Docs" stroke="none" stroke-width="1" fill="none" fill-rule="evenodd">
        <g id="docs-landing-page" transform="translate(-477.000000, -876.000000)">
            <g id="install-locally-icon" transform="translate(480.000000, 878.000000)">
                <g id="Group-5">
                    <g id="Oval-Copy-3">
                        <use fill="black" fill-opacity="1" filter="url(#filter-2)" xlink:href="#path-1"></use>
                        <use fill="#FFFFFF" fill-rule="evenodd" xlink:href="#path-1"></use>
                    </g>
                    <circle id="Oval" stroke="url(#linearGradient-3)" stroke-width="3" cx="43" cy="43" r="28.5"></circle>
                    <path d="M48.5610231,29.4393741 L56.5605653,37.4381793 C57.0223021,37.8998525 57.1201608,38.5875537 56.8541414,39.1450339 C56.8473736,39.1585593 56.8408515,39.1717503 56.8341429,39.18483 C56.8259608,39.2012745 56.8171073,39.2177254 56.8079246,39.2340411 C56.791781,39.2624547 56.775151,39.2899611 56.7576817,39.3168732 C56.7515252,39.3263366 56.7449821,39.3361267 56.7383114,39.3458556 C56.7174193,39.3765588 56.6955863,39.406135 56.672722,39.4348546 C56.6646486,39.444432 56.6569255,39.4538436 56.6490705,39.4631821 C56.6244255,39.4932828 56.5980542,39.5224182 56.5705908,39.5504807 C56.5669722,39.5531893 56.5637776,39.556412 56.5605653,39.5596238 L48.5610231,47.558063 C48.266968,47.8542743 47.883195,48 47.4990559,48 C47.1149168,48 46.7311438,47.8542743 46.4389197,47.5602598 C45.8530068,46.9744277 45.8530068,46.0246473 46.4389197,45.4384491 L51.877,40.001 L31.4999371,40.001561 C30.6719689,40.001561 30,39.3296847 30,38.5018307 C30,37.6739768 30.6719689,37.0021005 31.4999371,37.0021005 L51.88,37.002 L46.4389197,31.5611848 C45.8530068,30.9753527 45.8530068,30.0252062 46.4389197,29.4393741 C47.0251988,28.853542 47.9751102,28.853542 48.5610231,29.4393741 Z" id="Combined-Shape" fill="url(#linearGradient-4)" fill-rule="nonzero" transform="translate(43.500000, 38.500000) rotate(-270.000000) translate(-43.500000, -38.500000) "></path>
                </g>
                <g id="Group-6" transform="translate(29.000000, 55.000000)" stroke="url(#linearGradient-5)" stroke-linecap="round" stroke-linejoin="round" stroke-width="2.85">
                    <g id="enter-copy" transform="translate(14.500000, 1.000000) rotate(-270.000000) translate(-14.500000, -1.000000) translate(13.500000, -13.500000)">
                        <line x1="1.4" y1="28.5" x2="1.5" y2="0.5" id="Line-3"></line>
                    </g>
                </g>
            </g>
        </g>
    </g>
</svg>