<svg height="36" viewBox="0 0 36 36" width="36" xmlns="http://www.w3.org/2000/svg" xmlns:xlink="http://www.w3.org/1999/xlink"><mask id="a" fill="#fff"><path d="m0 0h36v36h-36z" fill="#fff" fill-rule="evenodd"/></mask><g mask="url(#a)"><path d="m7.203122.218751v11.3437c-.00781 1.8438-.86719 2.8282-2.39843 2.8282-1.41407 0-2.39844-.8438-2.40625-2.1719h-2.398442c0 2.7031 2.031252 4.2187 4.742192 4.2187 2.9375 0 4.85937-1.7968 4.86718-4.875v-11.3437zm14.79644 4.20312h2.3282c-.0703-2.5625-2.336-4.421871-5.586-4.421871-3.2109 0-5.6718 1.835941-5.6718 4.593751 0 2.22656 1.5937 3.53125 4.164 4.22656l1.8906.51564c1.711.4531 3.0313 1.0156 3.0313 2.4375 0 1.5625-1.4922 2.5937-3.5469 2.5937-1.8594 0-3.4062-.8281-3.5469-2.5703h-2.4218c.1562 2.8985 2.3984 4.6875 5.9843 4.6875 3.7579 0 5.9219-1.9765 5.9219-4.6875 0-2.88279-2.5703-3.99998-4.6015-4.49998l-1.5625-.40625c-1.25-.32031-2.9141-.90625-2.9063-2.43749 0-1.35938 1.2422-2.36719 3.2109-2.36719 1.836 0 3.1407.85937 3.3125 2.33593z" transform="translate(6 10)"/></g></svg>