<svg height="54" viewBox="0 0 167 54" width="167" xmlns="http://www.w3.org/2000/svg" xmlns:xlink="http://www.w3.org/1999/xlink"><defs><rect id="a" height="54" rx="5" width="167"/><mask id="b" fill="#fff"><use fill="#fff" fill-rule="evenodd" xlink:href="#a"/></mask></defs><g fill="none" fill-rule="evenodd"><use fill="#facb3d" xlink:href="#a"/><path d="m38.8872615 14.7131748 6.3599069 3.6505607c.9370893.5379756 1.6734996 1.3728808 2.0738966 2.3509171.9527849 2.3268762 2.6155538 4.2221299 4.8087687 5.4808561l15.4982491 8.8949877c.8626155.4951478 1.8661707.6252236 2.8248814.3696891 1.0373487-.2763912 1.8898741-.9694389 2.3693896-1.9261408v5.5975582c-.5177934-.3822669-1.10926-.6675739-1.7511766-.8384078-1.3370058-.3558378-2.7326298-.1724261-3.930778.5161637-1.0807517.6210841-1.4516796 2.0012886-.8270601 3.0769216l5.2383146 9.0193318c.3316889.5712509 1.0664976.7669219 1.6408272.4370356.5744897-.329727.7713249-1.0600302.4396359-1.6311219l-5.1689658-8.8999232c.6140489-.3149204 1.3145836-.3903866 1.9869303-.2114329.7167108.1907354 1.3155446.647354 1.6864724 1.2861106l.8469199 1.4580589c.2717895.4679227.8260992.696232 1.3510999.5564443.5251607-.139947.8903229-.6129643.8903229-1.1534874 0-1.6766564 0-11.7649343 0-13.7926521 0-.7236163.5922673-1.3125396 1.3203493-1.3125396s1.3203493.5887641 1.3203493 1.3125396v11.2361929c0 .6594541.5378134 1.1940863 1.2011912 1.1940863.6633779 0 1.2011912-.5346322 1.2011912-1.1940863v-12.8555331c0-.7315769.5703256-1.3469294 1.2711806-1.3717664.3637207-.0114632.7058199.1174981.9659179.3669826.2602581.2496436.4037604.5851023.4037604.9446018v12.9155559c0 .6594541.5376531 1.1940863 1.2011911 1.1940863.6635381 0 1.2011912-.5346322 1.2011912-1.1940863v-11.2361929c0-.7236163.5922674-1.3125397 1.3203494-1.3125397s1.3203493.5887642 1.3203493 1.3125397v11.2361929c0 .6594541.5376532 1.1940863 1.2011912 1.1940863s1.2011912-.5346322 1.2011912-1.1940863v-7.8873381c0-.7236163.5922673-1.3125396 1.3203493-1.3125396s1.3203494.5887641 1.3203494 1.3125396v17.7899754c0 1.9817056-.6447994 3.8541922-1.8650495 5.4147834-.9776095 1.2504471-1.5163838 2.8225016-1.5165439 4.4262391l-.0004805 6.677649h-11.0062746l-.0004804-6.6792411c-.0001602-1.6081955-.5346102-3.1745183-1.5048524-4.4104772-.2133315-.271774-.4127293-.5588324-.5925876-.8533737-.3441813-.5636087-1.0828338-.7431993-1.6501164-.4008946-.5671224.3421456-.7476214 1.0767475-.4032799 1.6403562.2283865.3738286.4814374.7382638.7521058 1.0831159.6423971.8183471.9963481 1.863093.9965082 2.9414326l.0004805 7.3022357c0 .9731008.7964699 1.7648596 1.7753606 1.7648596h12.260158c.9788907 0 1.7753605-.7917588 1.7753605-1.7648596l.0004805-7.3006436c.0001602-1.075633.3590761-2.127225 1.0109225-2.9608564 1.5508179-1.9836162 2.3705108-4.3628729 2.3705108-6.8803253v-17.7898161c0-2.1227671-1.8045095-3.8245789-3.9532003-3.6935478l4.8763557-2.7986199c-.0741535.6370053-.0269066 1.2888172.1451039 1.9267777.3585956 1.3287792 1.2164063 2.4388019 2.4151951 3.1259587 1.0794705.6185367 2.468047.2507581 3.093948-.8264669l4.176142-7.1906285c.331688-.5710917.134853-1.3013949-.439636-1.6311219-.57481-.3298862-1.309299-.1340561-1.640828.4370356l-4.1069523 7.0712199c-.5815367-.3714405-.997309-.9366413-1.1776479-1.6050112-.1921906-.7123123-.093853-1.4561485.2769146-2.0947458l.8469199-1.458059c.2717897-.4680819.1936317-1.0592342-.1907492-1.441501-.3843811-.3821076-.9785704-.4601213-1.450078-.1897801l-8.5731417 4.9204316c-.5800952-.8344275-1.4958834-1.4214403-2.5516503-1.5666412l7.5774342-4.3490216c.5744897-.329727.7713249-1.0600302.439636-1.6311218-.3315287-.5710917-1.0666578-.7667627-1.6408271-.4370356l-9.6063263 5.5134945c-.6946088-.5553298-1.5553024-.8412736-2.46052-.8081577-.385182.013533-.7541879.0851782-1.0994904.206179.1010603-.3075967.3092667-.5634496.5941893-.727119l1.4612891-.8387262c.0006406-.0003184.0011211-.0006369.0017617-.0009553l9.7887472-5.6180964c.5744897-.3297271.7713249-1.0600303.439636-1.6311219-.3315288-.5712509-1.0664976-.7667626-1.6408272-.4370356l-9.7887471 5.6180964c-.6259007.3612509-1.4382263.1487036-1.8037087-.4805003-.3280053-.5647232-.1843428-1.2736921.3087862-1.6731537.003043-.0023882.0059259-.0049356.0089689-.0073238.0515711-.0410765.1068259-.0786504.1656042-.1124033 2.7635405-1.5862242 6.5356011-3.7510231 9.7887472-5.6180964.5744897-.3297271.7713249-1.0600302.439636-1.6311219-.3315288-.5712509-1.0666578-.76692184-1.6408272-.4370356l-6.8711339 3.943669c-.6302249.3617286-1.4393473.1464746-1.8037086-.4805003-.3646817-.6284078-.1487876-1.430197.4833593-1.79304l15.4982491-8.89498768c1.7265121-.99093242 3.6801294-1.37192555 5.649603-1.10190284 1.578845.21668686 3.21711-.10587565 4.614496-.90750559l5.817449-3.33850609 5.503057 9.47547284-5.81857 3.33993896c-1.400749.8041774-2.498158 2.04746-3.089784 3.5009019-.187867.4615541-.416253.9095753-.678593 1.331645-.015696.0253146-.104264.1784761-.860694 1.4809854-.331689.5710917-.134854 1.3013949.439636 1.6311219.57465.3298863 1.309299.1340561 1.640827-.4370355l.833467-1.4351326c.329446-.5317664.616131-1.0955344.852205-1.6757011.391748-.9622743 1.124955-1.7893781 2.064287-2.3286275l6.361508-3.6515159c.847721-.48670958 1.13921-1.56823334.649765-2.41109906l-6.129919-10.55476765c-.489766-.84254729-1.577564-1.13231224-2.425445-.64608029l-6.360227 3.65008301c-.93725.53765725-2.032736.7541849-3.08514.61009849-2.5031222-.34278237-4.9857441.14074297-7.1791192 1.39946915l-15.4982491 8.89498768c-1.8496743 1.06162237-2.4294492 3.46587527-1.2412309 5.25015867l-4.8765159-2.7987791c.5921072-.2547384 1.1363269-.6210841 1.6060727-1.0883699.9782501-.9729415 1.5165439-2.26653497 1.5157431-3.64196318-.0006406-1.24089448-1.0176491-2.25061386-2.266888-2.25061386h-7.9698234c-.6633778 0-1.2011912.53463224-1.2011912 1.1940863s.5378134 1.1940863 1.2011912 1.1940863h7.8316064c-.0329927.68636081-.3172747 1.3268687-.8092826 1.81628488-.52436.52157689-1.2216915.80895366-1.9635472.80895366h-1.6936795c-.5437392 0-1.0195711.3630022-1.1603507.8850568-.1406194.5220545.0888881 1.0729263.5597551 1.3431082l8.5731417 4.9204317c-.4369133.9165806-.4904063 1.9984228-.0892085 2.9799617l-7.5774343-4.3488623c-.5746498-.3298862-1.3091382-.1342153-1.6408271.4370356-.3316889.5710917-.1348537 1.3013949.439636 1.6311219l9.6064864 5.5134945c-.1057048.6796739-.0195394 1.3642834.2485665 1.9930096-.8139272-.3961182-1.7133791-.4658528-2.5231421-.2673161l-8.6521-4.9658069c-.5744897-.3298862-1.3091383-.1340561-1.6408272.4370356s-.1348537 1.3013949.439636 1.6311219l7.6725686 4.4036311c-.4100066.5944957-.6502448 1.3134949-.6502448 2.0872628v.5707733c-1.2311409-.7065807-5.8379493-3.3506062-8.3428333-4.7882861-.5746499-.3298862-1.3091383-.1340561-1.6408272.4370356s-.1348537 1.3013948.439636 1.6311219l6.8711339 3.943669c.6305453.3618878.8472402 1.1662243.4833593 1.79304-.3648418.6282486-1.1715618.8431841-1.8037087.4805003l-15.4982491-8.8949877c-1.7265121-.9909324-3.03533-2.4822666-3.7848733-4.3128805-.6005956-1.467134-1.7007266-2.7167851-3.0976318-3.5188927l-5.8172888-3.3391429 5.5032173-9.47547288 5.8190506 3.33930215c1.4010694.80401811 3.0330878 1.12673983 4.5947965.90957534.4955314-.06909779.9997114-.09616375 1.4995671-.0816755.0259457.00079605-.0916109.00047763 2.1985001.00047763.6633779 0 1.2011912-.53463224 1.2011912-1.1940863s-.5378133-1.1940863-1.2011912-1.1940863h-2.1453274c-.6283031-.01767248-1.262532.01751326-1.88571.10412432-1.0341455.14408641-2.1211435-.07371493-3.0607953-.61280509l-6.3618288-3.65071986c-.8475605-.48655036-1.9358397-.19646699-2.4251249.6460803l-6.130079 10.55476769c-.4894454.8428657-.1979563 1.9243894.6497643 2.411099z" fill="#1d1c21" fill-rule="nonzero" mask="url(#b)" transform="matrix(.99756405 .06975647 -.06975647 .99756405 2.424647 -5.432811)"/></g></svg>