<svg height="36" viewBox="0 0 36 36" width="36" xmlns="http://www.w3.org/2000/svg" xmlns:xlink="http://www.w3.org/1999/xlink"><mask id="a" fill="#fff"><path d="m0 0h36v36h-36z" fill="#fff" fill-rule="evenodd"/></mask><mask id="b" fill="#fff"><path d="m0 0h33v34h-33z" fill="#fff" fill-rule="evenodd"/></mask><g fill="none" fill-rule="evenodd" mask="url(#a)"><g transform="translate(2 1)"><path d="m31.9825 8.23924c.0115.04266.0175.08665.0175.13084v6.86872c0 .0882-.0232.1747-.0673.251-.044.0763-.1074.1396-.1837.1834l-5.7493 3.3192v6.5789c0 .179-.0949.3443-.2498.4344l-12.0013 6.9276c-.0274.0157-.0574.0257-.0874.0363-.0112.0038-.0218.0107-.0337.0138-.0839.0221-.1721.0221-.256 0-.0137-.0038-.0262-.0113-.0393-.0163-.0275-.01-.0562-.0188-.0824-.0338l-11.998823-6.9276c-.076225-.0439-.13956-.1071-.183622-.1834-.044063-.0763-.067355-.1629-.067355-.251v-20.60616c0-.04507.006243-.08889.017481-.13146.003746-.0144.012486-.02755.017481-.04195.009365-.02629.018105-.05321.03184-.07762.009365-.01628.0231-.02942.034338-.04445.014359-.02003.02747-.04069.044327-.05822.014359-.0144.033089-.02504.049321-.03756.018105-.01503.034338-.0313.05494-.0432h.000624l5.999718-3.46378c.07597-.04383.16208-.0669.24973-.0669s.17376.02307.24973.0669l5.99967 3.46378h.0013c.02.01252.0368.02817.0549.04257.0163.01252.0344.02379.0487.03756.0175.01816.03.03882.045.05885.0106.01503.025.02817.0337.04445.0144.02504.0225.05133.0325.07762.005.0144.0137.02755.0174.04257.0115.04267.0174.08665.0175.13084v12.87036l4.9996-2.8866v-6.57945c0-.04382.0062-.08827.0175-.13021.0043-.01503.0124-.02817.0174-.04257.01-.02629.0188-.05321.0325-.07763.0094-.01627.0231-.02942.0337-.04445.015-.02003.0275-.04069.045-.05822.0143-.01439.0324-.02504.0487-.03756.0187-.01502.0349-.0313.0549-.04319h.0006l6.0004-3.46378c.0759-.0439.162-.067.2497-.067s.1738.0231.2497.067l5.9997 3.46378c.0213.01252.0375.02817.0562.04257.0156.01252.0338.02379.0481.03756.0175.01815.03.03881.045.05884.0112.01503.0249.02818.0337.04445.0143.02442.0224.05134.0324.07763.0057.0144.0138.02754.0175.04257zm-.9827 6.70966v-5.71178l-2.0995 1.21198-2.9006 1.6746v5.7118l5.0008-2.8866zm-5.9997 10.3325v-5.7155l-2.8531 1.6339-8.1474 4.6626v5.7694zm-22.99994-19.44922v19.44922l10.99924 6.3498v-5.7682l-5.74621-3.2609-.00187-.0013-.0025-.0012c-.01935-.0113-.03558-.0276-.05369-.0414-.01561-.0125-.03371-.0225-.04745-.0363l-.00125-.0018c-.01623-.0157-.02747-.0351-.0412-.0526-.01249-.0169-.02747-.0313-.03746-.0489l-.00062-.0018c-.01124-.0188-.01811-.0414-.02623-.0626-.00811-.0188-.01873-.0364-.02372-.0564v-.0006c-.00624-.0238-.00749-.0488-.00999-.0733-.0025-.0187-.00749-.0375-.00749-.0563v-.0012-13.44763l-2.89997-1.67523-2.09959-1.21073zm5.50026-3.75237-4.99893 2.88533 4.99768 2.88534 4.99833-2.88596-4.99833-2.88471zm2.59967 18.00689 2.90001-1.674v-12.58052l-2.0996 1.21198-2.90062 1.67461v12.58053zm15.40011-14.60196-4.9983 2.88534 4.9983 2.88532 4.9977-2.88595zm-.5001 6.63896-2.9006-1.6746-2.0996-1.21198v5.71178l2.9 1.674 2.1002 1.2126zm-11.5012 12.8716 7.3314-4.1968 3.6647-2.0972-4.9945-2.8834-5.7506 3.3198-5.2412 3.0255z" fill="#ff2d20"/><path d="m31.9825 8.23924c.0115.04266.0175.08665.0175.13084v6.86872c0 .0882-.0232.1747-.0673.251-.044.0763-.1074.1396-.1837.1834l-5.7493 3.3192v6.5789c0 .179-.0949.3443-.2498.4344l-12.0013 6.9276c-.0274.0157-.0574.0257-.0874.0363-.0112.0038-.0218.0107-.0337.0138-.0839.0221-.1721.0221-.256 0-.0137-.0038-.0262-.0113-.0393-.0163-.0275-.01-.0562-.0188-.0824-.0338l-11.998823-6.9276c-.076225-.0439-.13956-.1071-.183622-.1834-.044063-.0763-.067355-.1629-.067355-.251v-20.60616c0-.04507.006243-.08889.017481-.13146.003746-.0144.012486-.02755.017481-.04195.009365-.02629.018105-.05321.03184-.07762.009365-.01628.0231-.02942.034338-.04445.014359-.02003.02747-.04069.044327-.05822.014359-.0144.033089-.02504.049321-.03756.018105-.01503.034338-.0313.05494-.0432h.000624l5.999718-3.46378c.07597-.04383.16208-.0669.24973-.0669s.17376.02307.24973.0669l5.99967 3.46378h.0013c.02.01252.0368.02817.0549.04257.0163.01252.0344.02379.0487.03756.0175.01816.03.03882.045.05885.0106.01503.025.02817.0337.04445.0144.02504.0225.05133.0325.07762.005.0144.0137.02755.0174.04257.0115.04267.0174.08665.0175.13084v12.87036l4.9996-2.8866v-6.57945c0-.04382.0062-.08827.0175-.13021.0043-.01503.0124-.02817.0174-.04257.01-.02629.0188-.05321.0325-.07763.0094-.01627.0231-.02942.0337-.04445.015-.02003.0275-.04069.045-.05822.0143-.01439.0324-.02504.0487-.03756.0187-.01502.0349-.0313.0549-.04319h.0006l6.0004-3.46378c.0759-.0439.162-.067.2497-.067s.1738.0231.2497.067l5.9997 3.46378c.0213.01252.0375.02817.0562.04257.0156.01252.0338.02379.0481.03756.0175.01815.03.03881.045.05884.0112.01503.0249.02818.0337.04445.0143.02442.0224.05134.0324.07763.0057.0144.0138.02754.0175.04257zm-.9827 6.70966v-5.71178l-2.0995 1.21198-2.9006 1.6746v5.7118l5.0008-2.8866zm-5.9997 10.3325v-5.7155l-2.8531 1.6339-8.1474 4.6626v5.7694zm-22.99994-19.44922v19.44922l10.99924 6.3498v-5.7682l-5.74621-3.2609-.00187-.0013-.0025-.0012c-.01935-.0113-.03558-.0276-.05369-.0414-.01561-.0125-.03371-.0225-.04745-.0363l-.00125-.0018c-.01623-.0157-.02747-.0351-.0412-.0526-.01249-.0169-.02747-.0313-.03746-.0489l-.00062-.0018c-.01124-.0188-.01811-.0414-.02623-.0626-.00811-.0188-.01873-.0364-.02372-.0564v-.0006c-.00624-.0238-.00749-.0488-.00999-.0733-.0025-.0187-.00749-.0375-.00749-.0563v-.0012-13.44763l-2.89997-1.67523-2.09959-1.21073zm5.50026-3.75237-4.99893 2.88533 4.99768 2.88534 4.99833-2.88596-4.99833-2.88471zm2.59967 18.00689 2.90001-1.674v-12.58052l-2.0996 1.21198-2.90062 1.67461v12.58053zm15.40011-14.60196-4.9983 2.88534 4.9983 2.88532 4.9977-2.88595zm-.5001 6.63896-2.9006-1.6746-2.0996-1.21198v5.71178l2.9 1.674 2.1002 1.2126zm-11.5012 12.8716 7.3314-4.1968 3.6647-2.0972-4.9945-2.8834-5.7506 3.3198-5.2412 3.0255z" fill="none" mask="url(#b)" stroke="#ff2d20" stroke-width=".5"/></g></g></svg>