<?xml version="1.0" encoding="UTF-8"?>
<svg width="26px" height="26px" viewBox="0 0 26 26" version="1.1" xmlns="http://www.w3.org/2000/svg" xmlns:xlink="http://www.w3.org/1999/xlink">
    <title>login</title>
    <g id="Nav-System" stroke="none" stroke-width="1" fill="none" fill-rule="evenodd">
        <g id="login">
            <g id="user-(1)-copy-2" transform="translate(2.000000, 2.000000)" fill="#FFFFFF" fill-rule="nonzero">
                <path d="M18.778183,3.22181703 C16.7005768,1.1442108 13.9381561,0 11,0 C8.06167605,0 5.29942321,1.1442108 3.22181703,3.22181703 C1.1442108,5.29942321 0,8.06167605 0,11 C0,13.9381561 1.1442108,16.7005768 3.22181703,18.778183 C5.29942321,20.8557892 8.06167605,22 11,22 C13.9381561,22 16.7005768,20.8557892 18.778183,18.778183 C20.8557892,16.7005768 22,13.9381561 22,11 C22,8.06167605 20.8557892,5.29942321 18.778183,3.22181703 Z M5.51460267,19.0088043 C5.97467041,16.359848 8.2701416,14.4059448 11,14.4059448 C13.7300262,14.4059448 16.0253296,16.359848 16.4853973,19.0088043 C14.923584,20.0818481 13.0339661,20.7109375 11,20.7109375 C8.96603391,20.7109375 7.07641602,20.0818481 5.51460267,19.0088043 Z M7.50241087,9.61929323 C7.50241087,7.69056703 9.07144167,6.1217041 11,6.1217041 C12.9285583,6.1217041 14.4975891,7.69073486 14.4975891,9.61929323 C14.4975891,11.5478516 12.9285583,13.1168823 11,13.1168823 C9.07144167,13.1168823 7.50241087,11.5478516 7.50241087,9.61929323 Z M17.6019134,18.1146851 C17.2549743,16.8815155 16.5659637,15.7626495 15.600174,14.8886719 C15.0076752,14.3524017 14.3332672,13.9292603 13.6081696,13.6309967 C14.9187164,12.7761536 15.7868195,11.2972565 15.7868195,9.61929323 C15.7868195,6.97990416 13.639389,4.8326416 11,4.8326416 C8.36061097,4.8326416 6.21334837,6.97990416 6.21334837,9.61929323 C6.21334837,11.2972565 7.08145144,12.7761536 8.39183043,13.6309967 C7.66690066,13.9292603 6.99232484,14.3522339 6.39982604,14.888504 C5.4342041,15.7624817 4.74502566,16.8813477 4.39808656,18.1146851 C2.48715208,16.3398743 1.2890625,13.8074036 1.2890625,11 C1.2890625,5.6453552 5.6453552,1.2890625 11,1.2890625 C16.3546448,1.2890625 20.7109375,5.6453552 20.7109375,11 C20.7109375,13.8075714 19.5128479,16.3400421 17.6019134,18.1146851 Z" id="Shape"></path>
            </g>
            <rect id="Rectangle" x="0" y="0" width="26" height="26"></rect>
        </g>
    </g>
</svg>