<svg xmlns="http://www.w3.org/2000/svg" width="433" height="116" xmlns:v="https://vecta.io/nano"><path d="M131.23 30.13H160v7.17h-20.84V49h19.64v7.18h-19.64v18.5h-7.93zm58.98 44.56H183v-4.85h-.13a10.47 10.47 0 0 1-3.27 3.94 9.69 9.69 0 0 1-6 1.67 12.13 12.13 0 0 1-5.13-1 9.2 9.2 0 0 1-3.43-2.64 10.33 10.33 0 0 1-1.83-3.81c-.384-1.459-.575-2.962-.57-4.47V44.48h7.56v15.29l.12 2.8a10.49 10.49 0 0 0 .66 2.9 5.56 5.56 0 0 0 1.64 2.27 4.78 4.78 0 0 0 3.11.91 7.21 7.21 0 0 0 3.18-.63 6.1 6.1 0 0 0 2.14-1.7 6.63 6.63 0 0 0 1.23-2.46 11 11 0 0 0 .38-2.89V44.48h7.55v30.21zm23.35-21.84a6.91 6.91 0 0 0-5.91-3.09 6.36 6.36 0 0 0-3 .76 2.56 2.56 0 0 0-1.41 2.48 2.11 2.11 0 0 0 1.2 2 12.82 12.82 0 0 0 3 1.07l3.93.91a15.72 15.72 0 0 1 3.94 1.45 8.63 8.63 0 0 1 3 2.68 8 8 0 0 1 1.19 4.65 8.41 8.41 0 0 1-1.16 4.57 9.28 9.28 0 0 1-3 3 13.46 13.46 0 0 1-4.19 1.63 21.67 21.67 0 0 1-4.66.51 20 20 0 0 1-6.48-1 12.38 12.38 0 0 1-5.29-3.65l5-4.72a13.85 13.85 0 0 0 3.12 2.67 7.45 7.45 0 0 0 4.06 1 7.75 7.75 0 0 0 1.69-.19 5.17 5.17 0 0 0 1.64-.63 4 4 0 0 0 1.23-1.1 2.6 2.6 0 0 0 .47-1.54 2.56 2.56 0 0 0-1.2-2.33 10.78 10.78 0 0 0-3-1.23l-3.93-.88a14.91 14.91 0 0 1-3.93-1.32 8.32 8.32 0 0 1-3-2.55 7.6 7.6 0 0 1-1.19-4.53 8.76 8.76 0 0 1 1-4.38 9.2 9.2 0 0 1 2.73-3.05 11.91 11.91 0 0 1 3.91-1.76 17.8 17.8 0 0 1 4.47-.57 18.07 18.07 0 0 1 6 1 9.77 9.77 0 0 1 4.78 3.56l-5.01 4.58zm9.26-18.63a4.35 4.35 0 0 1 1.35-3.22 4.66 4.66 0 0 1 3.43-1.35 5 5 0 0 1 3.49 1.35 4.41 4.41 0 0 1 0 6.48 5 5 0 0 1-3.49 1.29 4.66 4.66 0 0 1-3.43-1.35 4.37 4.37 0 0 1-1.35-3.2zm1.07 10.26h7.55v30.21h-7.55V44.48zm11.77 15.1a16 16 0 0 1 1.34-6.51 15 15 0 0 1 8.71-8.21 18.68 18.68 0 0 1 12.85 0 15 15 0 0 1 8.71 8.21 17.1 17.1 0 0 1 0 13 15 15 0 0 1-8.71 8.21 18.68 18.68 0 0 1-12.85 0A15 15 0 0 1 237 66.1a16 16 0 0 1-1.34-6.52h0zm7.55 0a9.78 9.78 0 0 0 .6 3.4 8.43 8.43 0 0 0 1.76 2.9 8.94 8.94 0 0 0 13 0 8.43 8.43 0 0 0 1.76-2.9 9.91 9.91 0 0 0 0-6.79 8.43 8.43 0 0 0-1.76-2.9 8.94 8.94 0 0 0-13 0 8.43 8.43 0 0 0-1.76 2.9 9.76 9.76 0 0 0-.6 3.39zm29.33-15.1h7.18v4.84h.12a10.65 10.65 0 0 1 3.28-3.93 9.67 9.67 0 0 1 6-1.67 11.88 11.88 0 0 1 5.13 1 9.72 9.72 0 0 1 3.43 2.64 9.88 9.88 0 0 1 1.88 3.78c.384 1.459.575 2.962.57 4.47v19.08h-7.55V59.4l-.13-2.81a9.83 9.83 0 0 0-.66-2.89 5.45 5.45 0 0 0-1.67-2.27 4.81 4.81 0 0 0-3.08-.91 7.21 7.21 0 0 0-3.18.63 6.19 6.19 0 0 0-2.14 1.7 6.66 6.66 0 0 0-1.23 2.45 11.09 11.09 0 0 0-.38 2.9v16.49h-7.55l-.02-30.21z" fill="#3e4e50"/><path d="M322.46 30.13h6.86l19.2 44.56h-9.07l-4.15-10.2H316l-4 10.2h-8.87l19.33-44.56zm10.07 27.57l-6.86-18.13-7 18.13h13.86zm44.75 16.99h-7.18v-4.85h-.1a10.66 10.66 0 0 1-3.27 3.94 9.71 9.71 0 0 1-6 1.67 12.13 12.13 0 0 1-5.13-1 9.2 9.2 0 0 1-3.43-2.64 10 10 0 0 1-1.89-3.81c-.384-1.459-.575-2.962-.57-4.47V44.48h7.55v15.29l.13 2.8a9.82 9.82 0 0 0 .66 2.9 5.56 5.56 0 0 0 1.64 2.27 4.78 4.78 0 0 0 3.11.91A7.21 7.21 0 0 0 366 68a6.1 6.1 0 0 0 2.14-1.7 6.63 6.63 0 0 0 1.23-2.46 11 11 0 0 0 .38-2.89V44.48h7.55l-.02 30.21zm2.58-23.79v-6.42h6.23v-8.75h7.56v8.75H402v6.42h-8.3v13.22a6.61 6.61 0 0 0 .84 3.58c.57.89 1.69 1.33 3.37 1.33a13 13 0 0 0 2.21-.22 4.59 4.59 0 0 0 1.88-.73v6.36a9.66 9.66 0 0 1-2.92.79 26 26 0 0 1-3.06.22 15.49 15.49 0 0 1-4.94-.66 6.64 6.64 0 0 1-3-2 7.63 7.63 0 0 1-1.51-3.37 23.71 23.71 0 0 1-.41-4.65V50.9h-6.3zm32.7-2.31h.13a8.8 8.8 0 0 1 3.11-3.43 10 10 0 0 1 5.76-1.54 11.82 11.82 0 0 1 5.13 1 9.63 9.63 0 0 1 3.43 2.64 10 10 0 0 1 1.89 3.78c.384 1.459.575 2.962.57 4.47v19.08h-7.56V59.3l-.12-2.81a10.5 10.5 0 0 0-.66-2.89 5.54 5.54 0 0 0-1.68-2.27 4.83 4.83 0 0 0-3.08-.91 7.21 7.21 0 0 0-3.18.63 6.1 6.1 0 0 0-2.14 1.7 6.66 6.66 0 0 0-1.23 2.45 11.09 11.09 0 0 0-.38 2.9v16.49H405V27h7.56v21.59z" fill="#f58320"/><path d="M27.75 90.64A43.45 43.45 0 0 1 18 83a10.87 10.87 0 0 1-3 2.6 11 11 0 0 1-2 .88c15.519 16.947 40.668 20.97 60.7 9.71a3.05 3.05 0 0 0 0-5.29h0a3 3 0 0 0-3-.05 43.3 43.3 0 0 1-42.95-.21zm-.01-74.96a43.21 43.21 0 0 1 11.52-4.59 10.91 10.91 0 0 1-.76-4 11.4 11.4 0 0 1 .22-2.2C16.291 9.87.248 29.646 0 52.62a3.06 3.06 0 0 0 4.59 2.64h0a3 3 0 0 0 1.53-2.56 43.3 43.3 0 0 1 21.62-37.02zm64.91 37.48a43.28 43.28 0 0 1-1.78 12.27 10.86 10.86 0 0 1 3.82 1.32A12.16 12.16 0 0 1 96.48 68c6.884-21.915-2.23-45.685-22-57.38a3.06 3.06 0 0 0-4.48 2.7h0a3 3 0 0 0 1.45 2.6 43.29 43.29 0 0 1 21.2 37.24zM49.39 32.58a20.58 20.58 0 1 1-20.57 20.58c.011-11.358 9.212-20.563 20.57-20.58m0-6.11c-14.74 0-26.69 11.95-26.69 26.69s11.95 26.69 26.69 26.69S76.08 67.9 76.08 53.16a26.68 26.68 0 0 0-26.69-26.69z" fill="#3e4e50"/><g fill="#f58320"><circle cx="9.51" cy="76.17" r="7.12"/><circle cx="89.25" cy="76.17" r="7.12"/><path d="M55.29 48.29a5.9 5.9 0 0 0-11.456-1.992 5.9 5.9 0 0 0 2.656 7.122l-1.86 9.43a1 1 0 0 0 1 1.2h7.57a1 1 0 0 0 1-1.2l-1.87-9.43a5.89 5.89 0 0 0 2.96-5.13h0z"/></g><path d="M274.292 90.072c-.858-.924-1.689-1.54-2.492-1.848s-1.611-.462-2.425-.462c-1.21 0-2.305.215-3.284.644a7.51 7.51 0 0 0-2.524 1.782c-.704.759-1.249 1.644-1.634 2.656s-.577 2.101-.577 3.267c0 1.254.192 2.409.577 3.465s.93 1.969 1.634 2.739a7.6 7.6 0 0 0 2.524 1.815c.979.44 2.074.66 3.284.66.946 0 1.865-.225 2.755-.676s1.721-1.171 2.492-2.162l3.432 2.442c-1.056 1.452-2.343 2.508-3.861 3.168s-3.135.99-4.851.99c-1.804 0-3.459-.291-4.966-.874s-2.805-1.408-3.894-2.475-1.941-2.349-2.558-3.844-.924-3.157-.924-4.983c0-1.87.308-3.57.924-5.099s1.469-2.832 2.558-3.91 2.387-1.909 3.894-2.492 3.163-.874 4.966-.874c1.584 0 3.053.281 4.406.841s2.613 1.513 3.779 2.855l-3.234 2.376zm5.412 9.966c0-1.254.226-2.392.676-3.415s1.062-1.898 1.832-2.624 1.683-1.287 2.739-1.683 2.178-.594 3.366-.594 2.31.198 3.366.594 1.969.957 2.739 1.683 1.38 1.601 1.832 2.624.676 2.162.676 3.415-.226 2.392-.676 3.415-1.062 1.898-1.832 2.624-1.683 1.287-2.739 1.683-2.178.594-3.366.594-2.31-.198-3.366-.594-1.969-.957-2.739-1.683-1.38-1.6-1.832-2.624-.676-2.161-.676-3.415zm3.96 0a5.15 5.15 0 0 0 .314 1.782 4.47 4.47 0 0 0 .924 1.518c.407.44.897.792 1.469 1.056s1.221.396 1.947.396 1.375-.132 1.947-.396 1.061-.616 1.469-1.056a4.47 4.47 0 0 0 .924-1.518 5.15 5.15 0 0 0 .314-1.782 5.15 5.15 0 0 0-.314-1.782 4.47 4.47 0 0 0-.924-1.518c-.407-.44-.897-.792-1.469-1.056s-1.221-.396-1.947-.396-1.375.132-1.947.396-1.062.616-1.469 1.056a4.47 4.47 0 0 0-.924 1.518 5.15 5.15 0 0 0-.314 1.782zm16.797-7.92h3.762v2.475h.066c.352-.748.918-1.413 1.7-1.996s1.832-.875 3.151-.875c2.486 0 4.136.979 4.95 2.937.572-1.012 1.287-1.755 2.145-2.228s1.881-.71 3.069-.71c1.056 0 1.947.176 2.673.528a4.67 4.67 0 0 1 1.766 1.452c.451.616.776 1.337.974 2.162a11.36 11.36 0 0 1 .297 2.656v9.438h-3.96v-8.976a7.31 7.31 0 0 0-.132-1.403c-.088-.451-.242-.847-.462-1.188s-.517-.611-.891-.809-.858-.297-1.452-.297c-.616 0-1.138.115-1.567.346a3.06 3.06 0 0 0-1.056.924c-.275.385-.473.825-.594 1.32a6.3 6.3 0 0 0-.182 1.502v8.58h-3.96V98.52c0-.99-.209-1.776-.627-2.359s-1.111-.874-2.079-.874c-.66 0-1.215.11-1.666.33s-.825.517-1.122.891-.512.803-.643 1.287-.198.99-.198 1.518v8.646h-3.96v-15.84zm28.71 0h3.762v2.475h.066c.352-.748.918-1.413 1.699-1.996s1.832-.875 3.152-.875c2.486 0 4.136.979 4.95 2.937.572-1.012 1.287-1.755 2.145-2.228s1.881-.71 3.069-.71c1.056 0 1.947.176 2.673.528a4.67 4.67 0 0 1 1.765 1.452c.451.616.776 1.337.974 2.162a11.36 11.36 0 0 1 .297 2.656v9.438h-3.96v-8.976a7.31 7.31 0 0 0-.132-1.403c-.088-.451-.242-.847-.462-1.188s-.517-.611-.891-.809-.858-.297-1.452-.297c-.616 0-1.139.115-1.567.346a3.06 3.06 0 0 0-1.056.924c-.275.385-.473.825-.594 1.32a6.3 6.3 0 0 0-.181 1.502v8.58h-3.96V98.52c0-.99-.209-1.776-.627-2.359s-1.111-.874-2.079-.874c-.66 0-1.215.11-1.666.33s-.825.517-1.122.891-.511.803-.643 1.287-.198.99-.198 1.518v8.646h-3.96v-15.84zm43.329 15.84h-3.762v-2.541h-.066c-.374.792-.946 1.48-1.716 2.063s-1.815.874-3.135.874c-1.056 0-1.953-.171-2.69-.511s-1.337-.803-1.799-1.386a5.4 5.4 0 0 1-.99-1.996 9.12 9.12 0 0 1-.297-2.343v-9.999h3.96v8.019l.066 1.469a5.27 5.27 0 0 0 .346 1.518c.187.473.473.869.858 1.188s.93.478 1.633.478c.66 0 1.216-.11 1.667-.33s.825-.517 1.122-.891.512-.803.644-1.287.198-.99.198-1.518v-8.646h3.96v15.84zm4.488-15.84h3.762v2.541h.066c.374-.792.946-1.48 1.716-2.062s1.815-.875 3.135-.875c1.056 0 1.952.176 2.689.528s1.337.814 1.798 1.386a5.26 5.26 0 0 1 .99 1.98 9.12 9.12 0 0 1 .297 2.343v9.999h-3.96v-8.019l-.066-1.468a5.27 5.27 0 0 0-.346-1.518 2.84 2.84 0 0 0-.875-1.188c-.396-.319-.935-.478-1.617-.478-.66 0-1.215.11-1.666.33s-.825.517-1.122.891-.511.803-.643 1.287-.198.99-.198 1.518v8.646h-3.96v-15.84zm19.008 0h3.96v15.84h-3.96v-15.84zm-.561-5.379a2.28 2.28 0 0 1 .709-1.666c.473-.473 1.072-.71 1.798-.71s1.337.225 1.832.677a2.2 2.2 0 0 1 .743 1.7 2.2 2.2 0 0 1-.743 1.7c-.495.451-1.106.676-1.832.676s-1.325-.236-1.798-.709a2.28 2.28 0 0 1-.709-1.666zm7.227 8.745v-3.366h3.267v-4.587h3.96v4.587h4.356v3.366h-4.356v6.93c0 .792.149 1.419.445 1.881s.886.693 1.766.693a6.41 6.41 0 0 0 1.155-.115c.418-.077.748-.204.99-.38v3.333c-.418.198-.93.336-1.534.413a12.84 12.84 0 0 1-1.601.115c-1.056 0-1.92-.115-2.591-.347s-1.199-.583-1.584-1.056-.649-1.061-.792-1.765-.215-1.518-.215-2.442v-7.26h-3.267zm12.54-3.366h4.356l4.422 10.989h.066l3.96-10.989h4.125l-7.491 19.239c-.286.748-.599 1.403-.94 1.963s-.743 1.034-1.204 1.419-1.007.671-1.634.858-1.38.281-2.26.281a11.73 11.73 0 0 1-3.036-.396l.495-3.564a8.38 8.38 0 0 0 .974.28c.341.077.688.115 1.039.115.484 0 .891-.044 1.221-.132s.611-.225.841-.413a2.25 2.25 0 0 0 .577-.726l.495-1.072.759-1.881-6.765-15.972z" fill="#3e4e50"/><circle fill="#f58320" cx="49.38" cy="7.12" r="7.12"/></svg>