<?xml version="1.0" encoding="UTF-8"?>
<svg width="36px" height="36px" viewBox="0 0 36 36" version="1.1" xmlns="http://www.w3.org/2000/svg" xmlns:xlink="http://www.w3.org/1999/xlink">
    <title>manage-compicated-permissions-icon</title>
    <defs>
        <rect id="path-1" x="0" y="0" width="36" height="36"></rect>
    </defs>
    <g id="Docs" stroke="none" stroke-width="1" fill="none" fill-rule="evenodd">
        <g id="docs-landing-page" transform="translate(-998.000000, -1866.000000)">
            <g id="manage-compicated-permissions-icon" transform="translate(998.000000, 1866.000000)">
                <mask id="mask-2" fill="white">
                    <use xlink:href="#path-1"></use>
                </mask>
                <g id="Mask"></g>
                <g mask="url(#mask-2)" fill-rule="nonzero">
                    <g transform="translate(3.000000, 8.000000)">
                        <path d="M10,-5.68434189e-14 C4.47916667,-5.68434189e-14 0,4.40193966 0,9.82758621 C0,15.2532328 4.47916667,19.6551724 10,19.6551724 L20,19.6551724 C25.5208333,19.6551724 30,15.2532328 30,9.82758621 C30,4.40193966 25.5208333,-5.68434189e-14 20,-5.68434189e-14 L10,-5.68434189e-14 Z" id="Shape" fill="#1E293B"></path>
                        <path d="M20,4.9137931 C22.7614237,4.9137931 25,7.11377321 25,9.82758621 C25,12.5413992 22.7614237,14.7413793 20,14.7413793 C17.2385763,14.7413793 15,12.5413992 15,9.82758621 C15,7.11377321 17.2385763,4.9137931 20,4.9137931 Z" id="Path" fill="#6366F1"></path>
                    </g>
                </g>
            </g>
        </g>
    </g>
</svg>