<?xml version="1.0" encoding="UTF-8"?>
<svg width="91px" height="91px" viewBox="0 0 91 91" version="1.1" xmlns="http://www.w3.org/2000/svg" xmlns:xlink="http://www.w3.org/1999/xlink">
    <title>marketplace</title>
    <defs>
        <circle id="path-1" cx="42.5" cy="42.5" r="42.5"></circle>
        <filter x="-5.9%" y="-4.7%" width="111.8%" height="111.8%" filterUnits="objectBoundingBox" id="filter-2">
            <feMorphology radius="0.5" operator="dilate" in="SourceAlpha" result="shadowSpreadOuter1"></feMorphology>
            <feOffset dx="0" dy="1" in="shadowSpreadOuter1" result="shadowOffsetOuter1"></feOffset>
            <feGaussianBlur stdDeviation="1" in="shadowOffsetOuter1" result="shadowBlurOuter1"></feGaussianBlur>
            <feColorMatrix values="0 0 0 0 0   0 0 0 0 0   0 0 0 0 0  0 0 0 0.11324369 0" type="matrix" in="shadowBlurOuter1"></feColorMatrix>
        </filter>
        <linearGradient x1="23.5758852%" y1="19.5150852%" x2="85.2749321%" y2="82.0548512%" id="linearGradient-3">
            <stop stop-color="#6366F1" offset="0%"></stop>
            <stop stop-color="#000000" offset="100%"></stop>
        </linearGradient>
    </defs>
    <g id="Docs" stroke="none" stroke-width="1" fill="none" fill-rule="evenodd">
        <g id="docs-landing-page" transform="translate(-1338, -876)">
            <g id="marketplace" transform="translate(1341, 878)">
                <g id="Oval-Copy-6">
                    <use fill="black" fill-opacity="1" filter="url(#filter-2)" xlink:href="#path-1"></use>
                    <use fill="#FFFFFF" fill-rule="evenodd" xlink:href="#path-1"></use>
                </g>
                <g id="store" transform="translate(18, 19)" fill="url(#linearGradient-3)">
                    <path d="M44.8,41.7857143 L44.8,21.2801786 C46.7296,19.9832143 48,17.7733929 48,15.2678571 C48,14.6008929 46.3456,7.64357143 45.3872,3.74625 C44.888,1.55571429 42.9472,7.13714802e-16 40.7072,7.13714802e-16 C33.76,7.13714802e-16 14.2384,7.13714802e-16 7.2912,0.00482142857 C5.056,0.00482142857 3.1168,1.55892857 2.6192,3.74785714 C1.6544,7.64357143 7.10542736e-16,14.6008929 7.10542736e-16,15.2678571 C7.10542736e-16,17.7733929 1.2704,19.9832143 3.2,21.2801786 L3.2,41.7857143 L1.6,41.7857143 C0.7168,41.7857143 7.10542736e-16,42.5057143 7.10542736e-16,43.3928571 C7.10542736e-16,44.28 0.7168,45 1.6,45 L46.4,45 C47.2832,45 48,44.28 48,43.3928571 C48,42.5057143 47.2832,41.7857143 46.4,41.7857143 L44.8,41.7857143 Z M41.6,22.455 C41.3376,22.4855357 41.0704,22.5 40.8,22.5 C38.0592,22.5 36.2944,21.0583929 35.2,19.4448214 C34.1056,21.0583929 32.3408,22.5 29.6,22.5 C26.8576,22.5 25.0928,21.0567857 23.9968,19.4416071 C22.9008,21.0567857 21.136,22.5 18.4,22.5 C15.6576,22.5 13.8928,21.0567857 12.7968,19.4416071 C11.7008,21.0567857 9.936,22.5 7.2,22.5 C6.9296,22.5 6.6624,22.4855357 6.4,22.455 L6.4,41.7857143 L17.6,41.7857143 L17.6,35.3571429 C17.6,33.5828571 19.0336,32.1428571 20.8,32.1428571 L27.2,32.1428571 C28.9664,32.1428571 30.4,33.5828571 30.4,35.3571429 L30.4,41.7857143 L41.6,41.7857143 L41.6,22.455 Z M20.8,35.3571429 L27.2,35.3571429 L27.2,41.7857143 L20.8,41.7857143 L20.8,35.3571429 Z M36.7792,15.0348214 C36.6528,14.2569643 35.984,13.6864286 35.2,13.6864286 C34.416,13.6864286 33.7472,14.2569643 33.6208,15.0348214 C33.6208,15.0348214 33.432,16.1566071 32.7776,17.2832143 C32.2064,18.2651786 31.2464,19.2857143 29.6,19.2857143 C27.9536,19.2857143 26.9936,18.2651786 26.4224,17.2832143 C25.768,16.1566071 25.5792,15.0348214 25.5792,15.0348214 C25.4528,14.2569643 24.7856,13.6864286 24.0016,13.6864286 C23.2176,13.6848214 22.5488,14.25375 22.4208,15.0316071 C22.4208,15.0316071 22.2288,16.155 21.5728,17.2816071 C21.0016,18.2635714 20.0416,19.2857143 18.4,19.2857143 C16.7536,19.2857143 15.7936,18.2651786 15.2224,17.2832143 C14.568,16.1566071 14.3792,15.0348214 14.3792,15.0348214 C14.2528,14.2569643 13.5856,13.6864286 12.8016,13.6864286 C12.0176,13.6848214 11.3488,14.25375 11.2208,15.0316071 C11.2208,15.0316071 11.0288,16.155 10.3728,17.2816071 C9.8016,18.2635714 8.8416,19.2857143 7.2,19.2857143 C4.992,19.2857143 3.2,17.4857143 3.2,15.2678571 C3.2,14.6442857 4.8272,8.14660714 5.728,4.50964286 C5.7296,4.49678571 5.7328,4.48392857 5.736,4.47267857 C5.8992,3.73982143 6.5456,3.21910714 7.2928,3.21910714 L7.2944,3.21910714 C14.24,3.21428571 33.7616,3.21428571 40.7072,3.21428571 C41.456,3.21428571 42.1056,3.73660714 42.2688,4.47107143 C42.272,4.48232143 42.2736,4.49357143 42.2768,4.50642857 C43.1728,8.145 44.8,14.6426786 44.8,15.2678571 C44.8,17.4857143 43.008,19.2857143 40.8,19.2857143 C39.1536,19.2857143 38.1936,18.2651786 37.6224,17.2832143 C36.968,16.1566071 36.7792,15.0348214 36.7792,15.0348214 Z" id="Shape"></path>
                </g>
            </g>
        </g>
    </g>
</svg>