<?xml version="1.0" encoding="UTF-8"?>
<svg width="36px" height="36px" viewBox="0 0 36 36" version="1.1" xmlns="http://www.w3.org/2000/svg" xmlns:xlink="http://www.w3.org/1999/xlink">
    <title>migrating-fusionauth-icon</title>
    <defs>
        <rect id="path-1" x="0" y="0" width="36" height="36"></rect>
    </defs>
    <g id="Docs" stroke="none" stroke-width="1" fill="none" fill-rule="evenodd">
        <g id="docs-landing-page" transform="translate(-422.000000, -2301.000000)">
            <g id="migrating-fusionauth-icon" transform="translate(422.000000, 2301.000000)">
                <mask id="mask-2" fill="white">
                    <use xlink:href="#path-1"></use>
                </mask>
                <g id="Mask"></g>
                <g mask="url(#mask-2)" fill-rule="nonzero" id="Path">
                    <g transform="translate(3.000000, 3.000000)">
                        <path d="M0,13.1248372 C0,14.1620366 0.837890625,15 1.875,15 C2.91210938,15 3.75,14.1620366 3.75,13.1248372 C3.75,10.0190989 6.26953125,7.4993489 9.375,7.4993489 L18.75,7.4993489 L18.75,9.37451168 C18.75,10.1304367 19.2070313,10.8160431 19.9101563,11.1090372 C20.6132813,11.4020314 21.4160156,11.2379547 21.9550781,10.7047053 L25.7050781,6.95437972 C26.4375,6.22189426 26.4375,5.03233788 25.7050781,4.29985242 L21.9550781,0.549526869 C21.4160156,0.010417571 20.6132813,-0.147799288 19.9101563,0.145194895 C19.2070313,0.438189079 18.75,1.11793558 18.75,1.87386058 L18.75,3.74902335 L9.375,3.74902335 C4.1953125,3.74902335 0,7.94470006 0,13.1248372 Z" fill="#1E293B"></path>
                        <path d="M30,16.8751628 C30,15.8379634 29.1621094,15 28.125,15 C27.0878906,15 26.25,15.8379634 26.25,16.8751628 C26.25,19.9809011 23.7304687,22.5006511 20.625,22.5006511 L11.25,22.5006511 L11.25,20.6254883 C11.25,19.8695633 10.7929687,19.1839569 10.0898437,18.8909628 C9.38671875,18.5979686 8.58398437,18.7620453 8.04492187,19.2952947 L4.29492187,23.0456203 C3.5625,23.7781057 3.5625,24.9676621 4.29492187,25.7001476 L8.04492187,29.4504731 C8.58398437,29.9895824 9.38671875,30.1477993 10.0898437,29.8548051 C10.7929687,29.5618109 11.25,28.8820644 11.25,28.1202795 L11.25,26.2509766 L20.625,26.2509766 C25.8046875,26.2509766 30,22.0552999 30,16.8751628 Z" fill="#6366F1"></path>
                    </g>
                </g>
            </g>
        </g>
    </g>
</svg>