<?xml version="1.0" encoding="UTF-8"?>
<svg width="24px" height="24px" viewBox="0 0 24 24" version="1.1" xmlns="http://www.w3.org/2000/svg" xmlns:xlink="http://www.w3.org/1999/xlink">
    <title>multi-factor_authenentication</title>
    <g id="Nav-System-Update" stroke="none" stroke-width="1" fill="none" fill-rule="evenodd">
        <g id="multi-factor_authenentication">
            <polygon id="Path" points="0 0 24 0 24 24 0 24"></polygon>
            <path d="M4,8 L4,6 C4,4.8954305 4.8954305,4 6,4 L8,4" id="Path" stroke="#F58320" stroke-width="2" stroke-linecap="round" stroke-linejoin="round"></path>
            <path d="M4,16 L4,18 C4,19.1045695 4.8954305,20 6,20 L8,20" id="Path" stroke="#F58320" stroke-width="2" stroke-linecap="round" stroke-linejoin="round"></path>
            <path d="M16,4 L18,4 C19.1045695,4 20,4.8954305 20,6 L20,8" id="Path" stroke="#F58320" stroke-width="2" stroke-linecap="round" stroke-linejoin="round"></path>
            <path d="M16,20 L18,20 C19.1045695,20 20,19.1045695 20,18 L20,16" id="Path" stroke="#F58320" stroke-width="2" stroke-linecap="round" stroke-linejoin="round"></path>
            <rect id="Rectangle" stroke="#F58320" stroke-width="2" stroke-linecap="round" stroke-linejoin="round" x="8" y="11" width="8" height="5" rx="1"></rect>
            <path d="M10,11 L10,9 C10,7.8954305 10.8954305,7 12,7 C13.1045695,7 14,7.8954305 14,9 L14,11" id="Path" stroke="#F58320" stroke-width="2" stroke-linecap="round" stroke-linejoin="round"></path>
        </g>
    </g>
</svg>