<?xml version="1.0" encoding="UTF-8"?>
<svg width="66px" height="66px" viewBox="0 0 66 66" version="1.1" xmlns="http://www.w3.org/2000/svg" xmlns:xlink="http://www.w3.org/1999/xlink">
    <title>native-mobile-app</title>
    <defs>
        <circle id="path-1" cx="30" cy="30" r="30"></circle>
        <filter x="-8.3%" y="-6.7%" width="116.7%" height="116.7%" filterUnits="objectBoundingBox" id="filter-2">
            <feMorphology radius="0.5" operator="dilate" in="SourceAlpha" result="shadowSpreadOuter1"></feMorphology>
            <feOffset dx="0" dy="1" in="shadowSpreadOuter1" result="shadowOffsetOuter1"></feOffset>
            <feGaussianBlur stdDeviation="1" in="shadowOffsetOuter1" result="shadowBlurOuter1"></feGaussianBlur>
            <feColorMatrix values="0 0 0 0 0   0 0 0 0 0   0 0 0 0 0  0 0 0 0.11324369 0" type="matrix" in="shadowBlurOuter1"></feColorMatrix>
        </filter>
        <linearGradient x1="31.1480456%" y1="0%" x2="68.8519544%" y2="100%" id="linearGradient-3">
            <stop stop-color="#6366F1" offset="0%"></stop>
            <stop stop-color="#000000" offset="100%"></stop>
        </linearGradient>
        <linearGradient x1="-9.32490321%" y1="-54.6501747%" x2="109.968071%" y2="153.723792%" id="linearGradient-4">
            <stop stop-color="#6366F1" offset="0%"></stop>
            <stop stop-color="#000000" offset="100%"></stop>
        </linearGradient>
    </defs>
    <g id="Docs" stroke="none" stroke-width="1" fill="none" fill-rule="evenodd">
        <g id="quickstart-secondary-page" transform="translate(-699.000000, -1681.000000)">
            <g id="native-mobile-app" transform="translate(702.000000, 1683.000000)">
                <g id="Oval-Copy-2">
                    <use fill="black" fill-opacity="1" filter="url(#filter-2)" xlink:href="#path-1"></use>
                    <use fill="#F1F5F9" fill-rule="evenodd" xlink:href="#path-1"></use>
                </g>
                <g id="smartphone" transform="translate(18.352941, 9.882353)" fill="url(#linearGradient-3)">
                    <path d="M19.9547511,0 C22.5787059,0 24.7058824,2.14452202 24.7058824,4.78991597 L24.7058824,35.4453782 C24.7058824,38.0907529 22.5787059,40.2352941 19.9547511,40.2352941 L4.75113122,40.2352941 C2.12715747,40.2352941 0,38.0907529 0,35.4453782 L0,4.78991597 C0,2.14452202 2.12715747,0 4.75113122,0 L19.9547511,0 Z M19.9547511,1.91596639 L19.004,1.915 L19.0045249,2.87394958 C19.0045249,4.46119361 17.728181,5.74789916 16.1538462,5.74789916 L8.5520362,5.74789916 C6.97764434,5.74789916 5.70135747,4.46119361 5.70135747,2.87394958 L5.701,1.915 L4.75113122,1.91596639 C3.17673937,1.91596639 1.90045249,3.20267193 1.90045249,4.78991597 L1.90045249,35.4453782 C1.90045249,37.0325647 3.17673937,38.3193277 4.75113122,38.3193277 L19.9547511,38.3193277 C21.529086,38.3193277 22.8054299,37.0325647 22.8054299,35.4453782 L22.8054299,4.78991597 C22.8054299,3.20267193 21.529086,1.91596639 19.9547511,1.91596639 Z M17.1040724,1.91596639 L7.60180995,1.91596639 L7.60180995,2.87394958 C7.60180995,3.40302454 8.02724525,3.83193277 8.5520362,3.83193277 L16.1538462,3.83193277 C16.6785611,3.83193277 17.1040724,3.40302454 17.1040724,2.87394958 L17.1040724,1.91596639 Z" id="Combined-Shape"></path>
                </g>
                <g id="Group-17" transform="translate(22.588235, 17.647059)" stroke-width="2">
                    <rect id="Rectangle" stroke="#CBD5E1" x="1" y="1" width="5.14352941" height="5.14352941" rx="1.8304"></rect>
                    <rect id="Rectangle-Copy-13" stroke="url(#linearGradient-4)" x="1" y="10.0917647" width="5.14352941" height="5.14352941" rx="1.8304"></rect>
                    <rect id="Rectangle-Copy-12" stroke="url(#linearGradient-4)" x="10.0917647" y="1" width="5.14352941" height="5.14352941" rx="1.8304"></rect>
                    <rect id="Rectangle-Copy-14" stroke="#CBD5E1" x="10.0917647" y="10.0917647" width="5.14352941" height="5.14352941" rx="1.8304"></rect>
                    <rect id="Rectangle" stroke="#CBD5E1" x="1" y="19.3529412" width="5.14352941" height="5.14352941" rx="1.8304"></rect>
                    <rect id="Rectangle-Copy-12" stroke="url(#linearGradient-4)" x="10.0917647" y="19.3529412" width="5.14352941" height="5.14352941" rx="1.8304"></rect>
                </g>
                <g id="Group-17-Copy" transform="translate(22.588235, 36.000000)"></g>
            </g>
        </g>
    </g>
</svg>