<?xml version="1.0" encoding="UTF-8"?>
<svg width="91px" height="91px" viewBox="0 0 91 91" version="1.1" xmlns="http://www.w3.org/2000/svg" xmlns:xlink="http://www.w3.org/1999/xlink">
    <title>native-mobile-app-icon</title>
    <defs>
        <circle id="path-1" cx="42.5" cy="42.5" r="42.5"></circle>
        <filter x="-5.9%" y="-4.7%" width="111.8%" height="111.8%" filterUnits="objectBoundingBox" id="filter-2">
            <feMorphology radius="0.5" operator="dilate" in="SourceAlpha" result="shadowSpreadOuter1"></feMorphology>
            <feOffset dx="0" dy="1" in="shadowSpreadOuter1" result="shadowOffsetOuter1"></feOffset>
            <feGaussianBlur stdDeviation="1" in="shadowOffsetOuter1" result="shadowBlurOuter1"></feGaussianBlur>
            <feColorMatrix values="0 0 0 0 0   0 0 0 0 0   0 0 0 0 0  0 0 0 0.11324369 0" type="matrix" in="shadowBlurOuter1"></feColorMatrix>
        </filter>
        <linearGradient x1="31.1480456%" y1="0%" x2="68.8519544%" y2="100%" id="linearGradient-3">
            <stop stop-color="#6366F1" offset="0%"></stop>
            <stop stop-color="#000000" offset="100%"></stop>
        </linearGradient>
        <linearGradient x1="-9.32490321%" y1="-54.6501747%" x2="109.968071%" y2="153.723792%" id="linearGradient-4">
            <stop stop-color="#6366F1" offset="0%"></stop>
            <stop stop-color="#000000" offset="100%"></stop>
        </linearGradient>
    </defs>
    <g id="Docs" stroke="none" stroke-width="1" fill="none" fill-rule="evenodd">
        <g id="docs-landing-page" transform="translate(-1052.000000, -386.000000)">
            <g id="native-mobile-app-icon" transform="translate(1055.000000, 388.000000)">
                <g id="Oval-Copy-2">
                    <use fill="black" fill-opacity="1" filter="url(#filter-2)" xlink:href="#path-1"></use>
                    <use fill="#FFFFFF" fill-rule="evenodd" xlink:href="#path-1"></use>
                </g>
                <g id="smartphone" transform="translate(26.000000, 14.000000)" fill="url(#linearGradient-3)">
                    <path d="M28.2692308,0 C31.9865,0 35,3.03807286 35,6.78571429 L35,50.2142857 C35,53.9619 31.9865,57 28.2692308,57 L6.73076923,57 C3.01347308,57 0,53.9619 0,50.2142857 L0,6.78571429 C0,3.03807286 3.01347308,0 6.73076923,0 L28.2692308,0 Z M28.2692308,2.71428571 L26.923,2.714 L26.9230769,4.07142857 C26.9230769,6.32002429 25.1149231,8.14285714 22.8846154,8.14285714 L12.1153846,8.14285714 C9.88499615,8.14285714 8.07692308,6.32002429 8.07692308,4.07142857 L8.076,2.714 L6.73076923,2.71428571 C4.50038077,2.71428571 2.69230769,4.53711857 2.69230769,6.78571429 L2.69230769,50.2142857 C2.69230769,52.4628 4.50038077,54.2857143 6.73076923,54.2857143 L28.2692308,54.2857143 C30.4995385,54.2857143 32.3076923,52.4628 32.3076923,50.2142857 L32.3076923,6.78571429 C32.3076923,4.53711857 30.4995385,2.71428571 28.2692308,2.71428571 Z M24.2307692,2.71428571 L10.7692308,2.71428571 L10.7692308,4.07142857 C10.7692308,4.82095143 11.3719308,5.42857143 12.1153846,5.42857143 L22.8846154,5.42857143 C23.6279615,5.42857143 24.2307692,4.82095143 24.2307692,4.07142857 L24.2307692,2.71428571 Z" id="Combined-Shape"></path>
                </g>
                <g id="Group-17" transform="translate(32.000000, 25.000000)" stroke-width="2.7456">
                    <rect id="Rectangle" stroke="#CBD5E1" x="1.3728" y="1.3728" width="7.3744" height="7.3744" rx="1.8304"></rect>
                    <rect id="Rectangle-Copy-13" stroke="url(#linearGradient-4)" x="1.3728" y="14.2528" width="7.3744" height="7.3744" rx="1.8304"></rect>
                    <rect id="Rectangle-Copy-12" stroke="url(#linearGradient-4)" x="14.2528" y="1.3728" width="7.3744" height="7.3744" rx="1.8304"></rect>
                    <rect id="Rectangle-Copy-14" stroke="#CBD5E1" x="14.2528" y="14.2528" width="7.3744" height="7.3744" rx="1.8304"></rect>
                    <rect id="Rectangle" stroke="#CBD5E1" x="1.3728" y="27.3728" width="7.3744" height="7.3744" rx="1.8304"></rect>
                    <rect id="Rectangle-Copy-12" stroke="url(#linearGradient-4)" x="14.2528" y="27.3728" width="7.3744" height="7.3744" rx="1.8304"></rect>
                </g>
                <g id="Group-17-Copy" transform="translate(32.000000, 51.000000)"></g>
            </g>
        </g>
    </g>
</svg>