<svg height="54" viewBox="0 0 167 54" width="167" xmlns="http://www.w3.org/2000/svg" xmlns:xlink="http://www.w3.org/1999/xlink"><defs><rect id="a" height="54" rx="5" width="167"/><mask id="b" fill="#fff"><use fill="#fff" fill-rule="evenodd" xlink:href="#a"/></mask></defs><g fill="none" fill-rule="evenodd"><use fill="#facb3d" xlink:href="#a"/><g fill="#1d1c21" fill-rule="nonzero" mask="url(#b)"><g transform="matrix(.83867057 .54463904 -.54463904 .83867057 71.943975 -17.457562)"><path d="m63.7304688 0h-51.2890625c-.7010352 0-1.2695313.56836914-1.2695313 1.26953125v5.5859375h-4.31640625c-.70103516 0-1.26953125.56849609-1.26953125 1.26953125v6.8554688h-4.31640625c-.70116211 0-1.26953125.568496-1.26953125 1.2695312v41.8945313c0 3.7800292 3.07543945 6.8554687 6.85546875 6.8554687h51.28906255c3.7800292 0 6.8554687-3.0754395 6.8554687-6.8554687v-56.87500005c0-.70116211-.5684961-1.26953125-1.2695312-1.26953125zm-1.2695313 58.1445313c0 2.3801171-1.9362891 4.3164062-4.3164063 4.3164062h-45.9682031c.9584961-1.1793945 1.5346094-2.6816309 1.5346094-4.3164062v-17.1382911c0-.7010351-.5684961-1.2695312-1.2695313-1.2695312-.7010351 0-1.2695312.5684961-1.2695312 1.2695312v17.1382911c0 2.3801171-1.93628906 4.3164062-4.31640625 4.3164062s-4.31640625-1.9362891-4.31640625-4.3164062v-40.625h3.046875v39.3554687c0 .7010352.56849609 1.2695313 1.26953125 1.2695313s1.26953125-.5684961 1.26953125-1.2695313v-47.48046875h3.046875v20.18592775c0 .7011621.5684961 1.2695312 1.2695312 1.2695312.7010352 0 1.2695313-.5683691 1.2695313-1.2695312v-27.0413965h48.75z"/><path d="m18.5351563 20.0585938h39.1015625c.7010351 0 1.2695312-.5683692 1.2695312-1.2695313v-9.140625c0-.70103516-.5684961-1.26953125-1.2695312-1.26953125h-39.1015625c-.7011622 0-1.2695313.56849609-1.2695313 1.26953125v9.140625c0 .7011621.5683691 1.2695313 1.2695313 1.2695313zm1.2695312-9.140625h36.5625v6.6015625h-36.5625z"/><path d="m18.5351562 50.5273437h19.5507813c.7010352 0 1.2695313-.568496 1.2695313-1.2695312v-24.375c0-.7011621-.5684961-1.2695313-1.2695313-1.2695313h-19.5507813c-.7011621 0-1.2695312.5683692-1.2695312 1.2695313v24.375c0 .7010352.5683691 1.2695312 1.2695312 1.2695312zm1.2695313-24.3749999h17.0117187v21.8359375h-17.0117187z"/><path d="m57.6367187 23.6132813h-13.4570312c-.7010352 0-1.2695313.5683691-1.2695313 1.2695312s.5684961 1.2695313 1.2695313 1.2695313h13.4570312c.7010352 0 1.2695313-.5683692 1.2695313-1.2695313s-.5684961-1.2695312-1.2695313-1.2695312z"/><path d="m57.6367187 29.7070312h-13.4570312c-.7010352 0-1.2695313.5683692-1.2695313 1.2695313s.5684961 1.2695312 1.2695313 1.2695312h13.4570312c.7010352 0 1.2695313-.5683691 1.2695313-1.2695312s-.5684961-1.2695313-1.2695313-1.2695313z"/><path d="m57.6367187 35.8007812h-13.4570312c-.7010352 0-1.2695313.5684961-1.2695313 1.2695313s.5684961 1.2695312 1.2695313 1.2695312h13.4570312c.7010352 0 1.2695313-.568496 1.2695313-1.2695312s-.5684961-1.2695313-1.2695313-1.2695313z"/><path d="m57.6367187 41.8945312h-13.4570312c-.7010352 0-1.2695313.5684961-1.2695313 1.2695313s.5684961 1.2695312 1.2695313 1.2695312h13.4570312c.7010352 0 1.2695313-.568496 1.2695313-1.2695312s-.5684961-1.2695313-1.2695313-1.2695313z"/><path d="m57.6367187 47.9882813h-13.4570312c-.7010352 0-1.2695313.568496-1.2695313 1.2695312s.5684961 1.2695313 1.2695313 1.2695313h13.4570312c.7010352 0 1.2695313-.5684961 1.2695313-1.2695313s-.5684961-1.2695312-1.2695313-1.2695312z"/><path d="m18.5351563 56.6210938h39.1015625c.7010351 0 1.2695312-.5684961 1.2695312-1.2695313s-.5684961-1.2695312-1.2695312-1.2695312h-39.1015625c-.7011622 0-1.2695313.568496-1.2695313 1.2695312s.5683691 1.2695313 1.2695313 1.2695313z"/><path d="m12.5048828 34.0234375c-.3338867 0-.6614258.1357129-.8975586.3719727-.2361328.2361328-.3719726.5636718-.3719726.8975586 0 .3351562.1357129.6614257.3719726.8974316.2361328.2374023.5636719.3720996.8975586.3720996s.6614258-.1345703.8974317-.3720996c.2361328-.2360059.3720996-.5635449.3720996-.8974316 0-.3338868-.1358399-.6614258-.3720996-.8975586-.2360059-.2362598-.563545-.3719727-.8974317-.3719727z"/></g></g></g></svg>