<svg height="36" viewBox="0 0 36 36" width="36" xmlns="http://www.w3.org/2000/svg" xmlns:xlink="http://www.w3.org/1999/xlink"><mask id="a" fill="#fff"><path d="m0 0h36v36h-36z" fill="#fff" fill-rule="evenodd"/></mask><g fill="#0070f3" mask="url(#a)"><path d="m7.6310326 0h-1.41264v6.943186h-.08771l-4.81037-6.943186h-1.3203126v9.454546h1.4264926v-6.93395h.08771l4.80575 6.93395h1.31108zm2.23088 9.454546h5.98298v-1.22798h-4.5565v-2.89453h4.1918v-1.22337h-4.1918v-2.88068h4.5011v-1.227986h-5.92758zm8.97558-9.454546h-1.6527l2.9961 4.727276-3.0146 4.72727h1.6619l2.2713-3.64702h.0739l2.2713 3.64702h1.6619l-2.9637-4.72727 2.9453-4.727276h-1.6527l-2.2621 3.697796h-.0739zm7.3494 1.227986h2.9453v8.22656h1.4219v-8.22656h2.9499v-1.227986h-7.3171z" transform="translate(1 13)"/></g></svg>