<?xml version="1.0" encoding="UTF-8"?>
<svg width="24px" height="24px" viewBox="0 0 24 24" version="1.1" xmlns="http://www.w3.org/2000/svg" xmlns:xlink="http://www.w3.org/1999/xlink">
    <title>medical-cross</title>
    <g id="Nav-System-Update" stroke="none" stroke-width="1" fill="none" fill-rule="evenodd">
        <g id="medical-cross">
            <polygon id="Path" points="0 0 24 0 24 24 0 24"></polygon>
            <path d="M13,3 C13.5522847,3 14,3.44771525 14,4 L14,8.535 L17.928,6.268 C18.4062803,5.99187066 19.0178496,6.15573184 19.294,6.634 L20.294,8.366 C20.5701293,8.84428031 20.4062682,9.45584962 19.928,9.732 L16.001,12 L19.928,14.269 C20.4062682,14.5451504 20.5701293,15.1567197 20.294,15.635 L19.294,17.367 C19.0178496,17.8452682 18.4062803,18.0091293 17.928,17.733 L14,15.464 L14,20 C14,20.5522847 13.5522847,21 13,21 L11,21 C10.4477153,21 10,20.5522847 10,20 L10,15.464 L6.072,17.732 C5.59371969,18.0081293 4.98215038,17.8442682 4.706,17.366 L3.706,15.634 C3.42987066,15.1557197 3.59373184,14.5441504 4.072,14.268 L7.999,12 L4.072,9.732 C3.59373184,9.45584962 3.42987066,8.84428031 3.706,8.366 L4.706,6.634 C4.98215038,6.15573184 5.59371969,5.99187066 6.072,6.268 L10,8.535 L10,4 C10,3.44771525 10.4477153,3 11,3 L13,3 Z" id="Path" stroke="#F58320" stroke-width="2" stroke-linecap="round" stroke-linejoin="round"></path>
        </g>
    </g>
</svg>