<svg height="36" viewBox="0 0 36 36" width="36" xmlns="http://www.w3.org/2000/svg" xmlns:xlink="http://www.w3.org/1999/xlink"><mask id="a" fill="#fff"><path d="m0 0h36v36h-36z" fill="#fff" fill-rule="evenodd"/></mask><g fill="#6082bb" fill-rule="evenodd" mask="url(#a)"><path d="m18.3486 12.950018c-.0743 0-.1447-.0341-.1919-.0932-.0473-.059-.0665-.1365-.0523-.2116l1.0393-5.50338c.0988-.52337.0745-.89903-.0686-1.05776-.0876-.09703-.3507-.25977-1.1286-.25977h-1.8828l-1.3067 6.91851c-.0227.1203-.1252.2072-.2443.2072h-2.6125c-.0743 0-.1447-.0341-.192-.0932-.0473-.059-.0664-.1366-.0523-.2116l2.3495-12.4381c.0227-.120243.1252-.207118.2443-.207118h2.6125c.0743 0 .1447.034136.192.093104.0473.059054.0664.136624.0523.211724l-.567 3.00201h2.0255c1.5431 0 2.5894.27991 3.1989.85577.6212.58747.815 1.52678.5761 2.79217l-1.0931 5.78804c-.0227.1203-.1251.2072-.2443.2072zm-12.7984-2.4747c1.01364 0 1.77036-.1899 2.24916-.5642.47367-.3705.80083-1.01228.9723-1.90756.15988-.83682.09897-1.42113-.18097-1.73646-.28624-.32206-.90509-.4854-1.83934-.4854h-1.61988l-.89803 4.69362zm-5.29822501 5.7816c-.07519199 0-.14660599-.0341-.19440949-.0932-.04789062-.059-.06729561-.1366-.05293023-.2116l2.37997473-12.4381c.02302-.12024.12677-.20712.24742-.20712h5.12944c1.61207 0 2.81193.44462 3.56613 1.32163.7583.88163.9924 2.11399.6959 3.66279-.1206.63099-.3281 1.217-.6167 1.7417-.2889.5252-.6708 1.0112-1.1351 1.4447-.55588.5284-1.18499.9116-1.86819 1.1371-.67237.2224-1.53588.3353-2.56648.3353h-2.07702l-.59314 3.0996c-.02302.1203-.1267.2072-.24734.2072zm29.23252501-6.3458c-.4972.3743-1.2829.5642-2.3354.5642h-1.3673l.9325-4.69362h1.682c.9701 0 1.6127.16334 1.9099.4854.2908.31533.354.89964.188 1.73646-.1781.89536-.5178 1.53716-1.0097 1.90756zm-8.0387 6.2526c.0496.0591.1237.0932.2018.0932h2.7698c.1254 0 .2331-.0869.257-.2072l.6157-3.0996h2.1568c1.0701 0 1.9668-.1129 2.6649-.3353.7095-.2255 1.3627-.6087 1.9399-1.1371.4821-.4335.8786-.9195 1.1786-1.4447.2997-.5247.5151-1.11071.6405-1.7417.3078-1.54888.0648-2.78125-.7225-3.66279-.7833-.87701-2.0291-1.32163-3.7031-1.32163h-5.3262c-.1254 0-.233.08688-.257.20712l-2.4713 12.4381c-.0149.075.0053.1526.0551.2116z" transform="translate(1 10)"/></g></svg>