<?xml version="1.0" encoding="UTF-8"?>
<svg width="36px" height="36px" viewBox="0 0 36 36" version="1.1" xmlns="http://www.w3.org/2000/svg" xmlns:xlink="http://www.w3.org/1999/xlink">
    <title>protecting-apis-json-icon</title>
    <defs>
        <rect id="path-1" x="0" y="0" width="36" height="36"></rect>
    </defs>
    <g id="Docs" stroke="none" stroke-width="1" fill="none" fill-rule="evenodd">
        <g id="docs-landing-page" transform="translate(-422.000000, -2155.000000)">
            <g id="protecting-apis-json-icon" transform="translate(422.000000, 2155.000000)">
                <mask id="mask-2" fill="white">
                    <use xlink:href="#path-1"></use>
                </mask>
                <g id="Mask"></g>
                <g mask="url(#mask-2)" id="Group-10">
                    <g transform="translate(3.000000, 5.000000)">
                        <path d="M12.6655629,0 C12.9083191,0 13.1510752,0.051846033 13.3727222,0.150353496 L23.3098929,4.29285153 C24.4709006,4.77501964 25.3363791,5.90007855 25.3311258,7.25844462 C25.3047153,12.4015711 23.1515737,21.8116261 14.0587722,26.0889238 C13.1774618,26.5036921 12.153664,26.5036921 11.2723536,26.0889238 C2.17955216,21.8116261 0.0264105432,12.4015711 0,7.25844462 C-0.00525330409,5.90007855 0.860225188,4.77501964 2.02123292,4.29285153 L11.963681,0.150353496 C12.1800506,0.051846033 12.4228068,0 12.6655629,0 Z" id="Path" fill="#1E293B" fill-rule="nonzero"></path>
                        <path d="M23.6423841,1.60470588 C23.7642382,1.60470588 23.8860923,1.63073056 23.9973503,1.68017744 L28.9854203,3.759549 C29.5682007,4.00157849 30.002637,4.56631394 30,5.24816044 C29.9867429,7.82980823 28.9059503,12.5532868 24.3417205,14.7003225 C23.8993373,14.9085199 23.385431,14.9085199 22.9430477,14.7003225 C18.3788179,12.5532868 17.2980253,7.82980823 17.2847682,5.24816044 C17.2821313,4.56631394 17.7165675,4.00157849 18.2993479,3.759549 L23.2900669,1.68017744 C23.398676,1.63073056 23.52053,1.60470588 23.6423841,1.60470588 Z" id="Path" fill="#6366F1" fill-rule="nonzero"></path>
                    </g>
                </g>
            </g>
        </g>
    </g>
</svg>