<svg height="36" viewBox="0 0 36 36" width="36" xmlns="http://www.w3.org/2000/svg" xmlns:xlink="http://www.w3.org/1999/xlink"><linearGradient id="a" x1="13.123813%" x2="79.507109%" y1="11.699649%" y2="78.453532%"><stop offset="0" stop-color="#387eb8"/><stop offset="1" stop-color="#366994"/></linearGradient><linearGradient id="b" x1="19.264572%" x2="90.560661%" y1="20.315974%" y2="88.773043%"><stop offset="0" stop-color="#ffe052"/><stop offset="1" stop-color="#ffc331"/></linearGradient><mask id="c" fill="#fff"><path d="m0 0h36v36h-36z" fill="#fff" fill-rule="evenodd"/></mask><g fill="none" mask="url(#c)"><g transform="translate(2 2)"><path d="m15.8846 0c-8.12355 0-7.61626 3.522876-7.61626 3.522876l.00906 3.64966h7.7521v1.09581h-10.83122s-5.19828-.58953-5.19828 7.60728c0 8.1967 4.53717 7.906 4.53717 7.906h2.70782v-3.8036s-.14596-4.5371 4.46471-4.5371h7.6888s4.3198.0698 4.3198-4.175c0-4.24472 0-7.01855 0-7.01855s.6558-4.247376-7.8337-4.247376zm-4.2745 2.454236c.7713 0 1.3947.62338 1.3947 1.39466 0 .77129-.6234 1.39466-1.3947 1.39466s-1.3947-.62337-1.3947-1.39466c0-.77128.6234-1.39466 1.3947-1.39466z" fill="url(#a)"/><path d="m16.1153 31.833226c8.1236 0 7.6163-3.5229 7.6163-3.5229l-.009-3.6496h-7.7522v-1.0958h10.8313s5.1983.5895 5.1983-7.6073c0-8.19673-4.5372-7.90606-4.5372-7.90606h-2.7078v3.80366s.146 4.5371-4.4647 4.5371-7.6888 0-7.6888 0-4.31979-.0698-4.31979 4.175v7.0185s-.65587 4.2474 7.83359 4.2474zm4.2746-2.4542c-.7713 0-1.3947-.6234-1.3947-1.3947s.6234-1.3946 1.3947-1.3946 1.3947.6233 1.3947 1.3946-.6234 1.3947-1.3947 1.3947z" fill="url(#b)"/></g></g></svg>