<svg height="36" viewBox="0 0 36 36" width="36" xmlns="http://www.w3.org/2000/svg" xmlns:xlink="http://www.w3.org/1999/xlink"><mask id="a" fill="#fff"><path d="m0 0h36v36h-36z" fill="#fff" fill-rule="evenodd"/></mask><g fill="none" fill-rule="evenodd" mask="url(#a)"><g transform="translate(3 5)"><g fill="none" stroke="#53c1de" stroke-width="1.5"><path d="m20.17711 10.2953694c2.1344 3.6968 3.4055 7.3844 3.7577 10.3379.1763 1.4781.118 2.735-.1487 3.7047-.2655.9653-.7202 1.5941-1.3069 1.9328-.5868.3388-1.3587.4182-2.3274.1655-.9731-.2539-2.0908-.8319-3.2828-1.7236-2.3816-1.7818-4.9396-4.7264-7.074-8.4232-2.13438-3.6969-3.40546-7.38449997-3.75771-10.33793997-.17629-1.47815-.11795-2.73508.14872-3.70473.26547-.96527.72017-1.59409 1.30694-1.93286s1.35869-.41815 2.32735-.16541c.9731.25388 2.0908.83181 3.2828 1.72357 2.3816 1.78177 4.9396 4.72637 7.074 8.42326997z"/><path d="m9.79511 10.2953694c-2.13443 3.6968-3.40551 7.3844-3.75776 10.3379-.1763 1.4781-.11795 2.735.14872 3.7047.26546.9653.72017 1.5941 1.30694 1.9328.58677.3388 1.35869.4182 2.3274.1655.973-.2539 2.0908-.8319 3.2827-1.7236 2.3816-1.7818 4.9396-4.7264 7.074-8.4232 2.1344-3.6969 3.4055-7.38449997 3.7578-10.33793997.1763-1.47815.1179-2.73508-.1488-3.70473-.2654-.96527-.7201-1.59409-1.3069-1.93286s-1.3587-.41815-2.3274-.16541c-.973.25388-2.0908.83181-3.2827 1.72357-2.3816 1.78177-4.9396 4.72637-7.074 8.42326997z"/><path d="m14.98621 7.29816943c-4.2688 0-8.09788.743-10.83174 1.9147-1.36827.5864-2.42763 1.26529997-3.13403 1.98109997-.70322.7125-1.02044 1.4207-1.02044 2.0983 0 .6775.31722 1.3857 1.02044 2.0983.7064.7157 1.76576 1.3947 3.13403 1.9811 2.73386 1.1717 6.56294 1.9147 10.83174 1.9147s8.0979-.743 10.8317-1.9147c1.3683-.5864 2.4277-1.2654 3.1341-1.9811.7032-.7126 1.0204-1.4208 1.0204-2.0983 0-.6776-.3172-1.3858-1.0204-2.0983-.7064-.7158-1.7658-1.39469997-3.1341-1.98109997-2.7338-1.1717-6.5629-1.9147-10.8317-1.9147z"/></g><circle cx="14.98591" cy="13.292269" fill="#53c1de" fill-rule="nonzero" r="2.81004"/></g></g></svg>