<?xml version="1.0" encoding="UTF-8"?>
<svg width="24px" height="24px" viewBox="0 0 24 24" version="1.1" xmlns="http://www.w3.org/2000/svg" xmlns:xlink="http://www.w3.org/1999/xlink">
    <title>forms</title>
    <g id="Nav-System" stroke="none" stroke-width="1" fill="none" fill-rule="evenodd">
        <g id="forms">
            <polygon id="Path" points="0 0 24 0 24 24 0 24"></polygon>
            <path d="M12,3 C10.3431458,3 9,4.34314575 9,6 L9,18 C9,19.6568542 10.3431458,21 12,21" id="Path" stroke="#F58320" stroke-width="2" stroke-linecap="round" stroke-linejoin="round"></path>
            <path d="M6,3 C7.65685425,3 9,4.34314575 9,6 L9,18 C9,19.6568542 7.65685425,21 6,21" id="Path" stroke="#F58320" stroke-width="2" stroke-linecap="round" stroke-linejoin="round"></path>
            <path d="M13,7 L20,7 C20.5522847,7 21,7.44771525 21,8 L21,16 C21,16.5522847 20.5522847,17 20,17 L13,17" id="Path" stroke="#F58320" stroke-width="2" stroke-linecap="round" stroke-linejoin="round"></path>
            <path d="M5,7 L4,7 C3.44771525,7 3,7.44771525 3,8 L3,16 C3,16.5522847 3.44771525,17 4,17 L5,17" id="Path" stroke="#F58320" stroke-width="2" stroke-linecap="round" stroke-linejoin="round"></path>
            <line x1="17" y1="12" x2="17.01" y2="12" id="Path" stroke="#F58320" stroke-width="2" stroke-linecap="round" stroke-linejoin="round"></line>
            <line x1="13" y1="12" x2="13.01" y2="12" id="Path" stroke="#F58320" stroke-width="2" stroke-linecap="round" stroke-linejoin="round"></line>
        </g>
    </g>
</svg>