<?xml version="1.0" encoding="UTF-8"?>
<svg width="36px" height="36px" viewBox="0 0 36 36" version="1.1" xmlns="http://www.w3.org/2000/svg" xmlns:xlink="http://www.w3.org/1999/xlink">
    <title>release-notes</title>
    <defs>
        <rect id="path-1" x="0" y="0" width="36" height="36"></rect>
    </defs>
    <g id="Docs" stroke="none" stroke-width="1" fill="none" fill-rule="evenodd">
        <g id="docs-landing-page" transform="translate(-422.000000, -2573.000000)">
            <g id="release-notes" transform="translate(422.000000, 2573.000000)">
                <mask id="mask-2" fill="white">
                    <use xlink:href="#path-1"></use>
                </mask>
                <g id="Mask"></g>
                <g id="note-sticky-solid" mask="url(#mask-2)" fill="#1E293B" fill-rule="nonzero">
                    <g transform="translate(4.000000, 4.000000)" id="Shape">
                        <path d="M4.14285714,0 C1.8578125,0 0,1.8578125 0,4.14285714 L0,24.8571429 C0,27.1421875 1.8578125,29 4.14285714,29 L18.6428571,29 L18.6428571,21.75 C18.6428571,20.0345982 20.0345982,18.6428571 21.75,18.6428571 L29,18.6428571 L29,4.14285714 C29,1.8578125 27.1421875,0 24.8571429,0 L4.14285714,0 Z"></path>
                    </g>
                </g>
                <path d="M33,24.7142857 L30.0676339,24.7142857 L25.75,24.7142857 C25.1803571,24.7142857 24.7142857,25.1803571 24.7142857,25.75 L24.7142857,30.0676339 L24.7142857,33 L26.7857143,30.9285714 L30.9285714,26.7857143 L33,24.7142857 Z" id="Path" fill="#6366F1" fill-rule="nonzero" mask="url(#mask-2)"></path>
            </g>
        </g>
    </g>
</svg>