<?xml version="1.0" encoding="UTF-8"?>
<svg width="24px" height="24px" viewBox="0 0 24 24" version="1.1" xmlns="http://www.w3.org/2000/svg" xmlns:xlink="http://www.w3.org/1999/xlink">
    <title>resources</title>
    <g id="Nav-System" stroke="none" stroke-width="1" fill="none" fill-rule="evenodd">
        <g id="book-open-outline" fill-rule="nonzero">
            <rect id="Rectangle" fill="#000000" opacity="0" transform="translate(12.000000, 12.000000) rotate(180.000000) translate(-12.000000, -12.000000) " x="0" y="0" width="24" height="24"></rect>
            <path d="M20.62,4.22 C20.384693,4.02965217 20.0758385,3.95611538 19.78,4.02 L12,5.77 L4.22,4 C3.91933627,3.93209492 3.60415793,4.00663987 3.3657702,4.20203964 C3.12738247,4.39743942 2.99242717,4.69185647 3,5 L3,17.2 C2.98835036,17.6766599 3.31484742,18.0952458 3.78,18.2 L11.78,20 L12.22,20 L20.22,18.2 C20.6851526,18.0952458 21.0116496,17.6766599 21,17.2 L21,5 C20.9985972,4.69572803 20.8587374,4.40864739 20.62,4.22 Z M5,6.25 L11,7.6 L11,17.75 L5,16.4 L5,6.25 Z M19,16.4 L13,17.75 L13,7.6 L19,6.25 L19,16.4 Z" id="Shape" fill="#F58320"></path>
        </g>
    </g>
</svg>