<svg height="36" viewBox="0 0 36 36" width="36" xmlns="http://www.w3.org/2000/svg" xmlns:xlink="http://www.w3.org/1999/xlink"><mask id="a" fill="#fff"><path d="m0 0h36v36h-36z" fill="#fff" fill-rule="evenodd"/></mask><g fill="#c00" fill-rule="evenodd" mask="url(#a)"><path d="m24.2407 6.536158.06-.94445c.4797.02998.9744.08995 1.4841.19489l-.0599.92945c-.4947-.10494-.9894-.1649-1.4842-.17989zm-5.3368-5.6217h-.1499c-.4348 0-.8695.015-1.3043.05997l-.2848-.884481c.4947-.059965.9744-.089947 1.4392-.089947zm.9144 6.55115-.3448-1.03439c.3748-.1649.8096-.32981 1.3193-.47972l.3298.98942c-.4348.13492-.8695.31481-1.3043.52469zm-7.8254-6.01146.6746 1.03439c-.3897.19488-.7645.41975-1.1543.65961l-.6896-1.04938c.4048-.23986.7946-.44974 1.1693-.64462zm4.4674 8.85979-.7196-1.07937c.2699-.3448.5847-.6896.9295-1.00441l.6746 1.0194c-.3298.34478-.6296.68958-.8845 1.06438zm-1.679 4.7072-1.2143-.9594c.1199-.5397.2549-1.0944.4498-1.649l1.0793.8545c-.1499.5846-.2548 1.1693-.3148 1.7539zm-8.84479-9.00967 1.06437.92945c-.35979.37478-.70458.77954-1.0194 1.1843l-1.15432-.98942c.3448-.37478.71958-.74956 1.10935-1.12433zm-5.186951 7.00087 1.723991.6296c-.23986.5547-.55468 1.2893-.74956 1.799l-1.72399-.6297c.149912-.4047.464727-1.1543.749559-1.7989zm12.772441 6.746c-.0749-.4497-.1499-1.0943-.1798-1.8889l1.619.5847c.0899.7046.2249 1.3642.3598 1.9489zm-.6296 1.1094h-11.84302s.43475-4.4374 3.5829-9.6843c3.14814-5.24694 8.51502-9.21961 12.89242-9.60938 8.6799-.86949 16.4753 6.91094 16.4753 6.91094s-.2548.17989-.5247.40476c-8.2087-6.06981-13.3384-3.5296-15.1608-2.62716-.068.03368-.1314.06507-.1902.09365-7.4956 4.18249-5.2319 14.51149-5.2319 14.51149zm12.8924-19.45858-.0599 1.00441c-.4797-.19489-.9595-.37478-1.4542-.53968l.06-.98942c.9444.26984 1.3192.44973 1.4541.52469z" transform="translate(1 8)"/></g></svg>