<?xml version="1.0" encoding="UTF-8"?>
<svg width="91px" height="91px" viewBox="0 0 91 91" version="1.1" xmlns="http://www.w3.org/2000/svg" xmlns:xlink="http://www.w3.org/1999/xlink">
    <title>sandbox-icon</title>
    <defs>
        <circle id="path-1" cx="42.5" cy="42.5" r="42.5"></circle>
        <filter x="-5.9%" y="-4.7%" width="111.8%" height="111.8%" filterUnits="objectBoundingBox" id="filter-2">
            <feMorphology radius="0.5" operator="dilate" in="SourceAlpha" result="shadowSpreadOuter1"></feMorphology>
            <feOffset dx="0" dy="1" in="shadowSpreadOuter1" result="shadowOffsetOuter1"></feOffset>
            <feGaussianBlur stdDeviation="1" in="shadowOffsetOuter1" result="shadowBlurOuter1"></feGaussianBlur>
            <feColorMatrix values="0 0 0 0 0   0 0 0 0 0   0 0 0 0 0  0 0 0 0.11324369 0" type="matrix" in="shadowBlurOuter1"></feColorMatrix>
        </filter>
        <linearGradient x1="50%" y1="17.2972202%" x2="15.3613774%" y2="68.348481%" id="linearGradient-3">
            <stop stop-color="#000000" offset="0%"></stop>
            <stop stop-color="#6366F1" offset="100%"></stop>
        </linearGradient>
    </defs>
    <g id="Docs" stroke="none" stroke-width="1" fill="none" fill-rule="evenodd">
        <g id="docs-landing-page" transform="translate(-1050.000000, -876.000000)">
            <g id="sandbox-icon" transform="translate(1053.000000, 878.000000)">
                <g id="Oval-Copy-5">
                    <use fill="black" fill-opacity="1" filter="url(#filter-2)" xlink:href="#path-1"></use>
                    <use fill="#FFFFFF" fill-rule="evenodd" xlink:href="#path-1"></use>
                </g>
                <g id="shovel" transform="translate(18.406250, 16.406250)">
                    <g id="g658" transform="translate(22.607892, 23.093750) scale(-1, 1) rotate(-180.000000) translate(-22.607892, -23.093750) ">
                        <g id="g666" transform="translate(2.906250, 5.625000)"></g>
                        <g id="g670" transform="translate(2.906250, 11.970212)" stroke="url(#linearGradient-3)" stroke-linecap="round" stroke-linejoin="round" stroke-width="2.79999993">
                            <path d="M4.89660745,2.22390937 L15.1596661,2.22390937 L16.8750187,14.3423156 L16.875,15.7485375 C16.875,19.6317563 13.7269687,22.7797875 9.84375,22.7797875 C5.9604375,22.7797875 2.8125,19.6317563 2.8125,15.7485375 L2.8125,14.3422875 L4.89660745,2.22390937 Z M0,14.3954125 L19.6875,14.3954125 M25.5,2.62725 L27.6081563,10.4952187 C28.41225,13.4959687 31.496625,15.27675 34.4974687,14.47275 C37.498125,13.6686562 39.279,10.5842812 38.4748125,7.58353125 L36.4429687,0 M39.5928937,33.4893563 L34.4973937,14.4727313 M36.8762531,34.2172875 L42.3095344,32.7614438" id="Combined-Shape"></path>
                        </g>
                        <g id="g674" transform="translate(2.906250, 25.265625)"></g>
                        <g id="g678" transform="translate(5.718750, 25.312500)"></g>
                        <g id="g682" transform="translate(28.406250, 10.970212)"></g>
                        <g id="g686" transform="translate(37.403644, 25.442944)"></g>
                        <g id="g690" transform="translate(39.782503, 43.731656)"></g>
                        <path d="M45.1875,0 L0,0 L0,5.625 L45.1875,5.625 L45.1875,0 Z M2.90625,5.625 C2.90625,5.625 5.71875,14.0625 12.75,14.0625 C16.96875,14.0625 22.59375,11.25 22.59375,11.25 C22.59375,11.25 28.21875,14.0625 32.4375,14.0625 C39.46875,14.0625 42.28125,5.625 42.28125,5.625" id="Combined-Shape" stroke="#000000" stroke-width="2.79999993" stroke-linecap="round" stroke-linejoin="round"></path>
                    </g>
                </g>
            </g>
        </g>
    </g>
</svg>