<?xml version="1.0" encoding="UTF-8"?>
<svg width="24px" height="24px" viewBox="0 0 24 24" version="1.1" xmlns="http://www.w3.org/2000/svg" xmlns:xlink="http://www.w3.org/1999/xlink">
    <title>expand-outline</title>
    <g id="Nav-System-Update" stroke="none" stroke-width="1" fill="none" fill-rule="evenodd">
        <g id="expand-outline" fill-rule="nonzero">
            <rect id="Rectangle" fill="#000000" opacity="0" transform="translate(12.000000, 12.000000) rotate(180.000000) translate(-12.000000, -12.000000) " x="0" y="0" width="24" height="24"></rect>
            <path d="M21,4.14191126 C21,3.51125109 20.4887489,3 19.8580887,3 L14.1485324,3 C13.5178723,3 13.0066212,3.51125109 13.0066212,4.14191126 C13.0066212,4.77257144 13.5178723,5.28382252 14.1485324,5.28382252 L17.0832444,5.28382252 L13.3377754,9.04071057 C13.1215972,9.25512337 13,9.54699116 13,9.85146757 C13,10.155944 13.1215972,10.4478118 13.3377754,10.6622246 C13.5521882,10.8784028 13.844056,11 14.1485324,11 C14.4530088,11 14.7448766,10.8784028 14.9592894,10.6622246 L18.7161775,6.90533651 L18.7161775,9.85146757 C18.7161775,10.4821277 19.2274286,10.9933788 19.8580887,10.9933788 C20.4887489,10.9933788 21,10.4821277 21,9.85146757 L21,4.14191126 Z" id="Path" fill="#F58320"></path>
            <path d="M10.6622246,13.3377754 C10.4478118,13.1215972 10.155944,13 9.85146757,13 C9.54699116,13 9.25512337,13.1215972 9.04071057,13.3377754 L5.28382252,17.0832444 L5.28382252,14.1485324 C5.28382252,13.5178723 4.77257144,13.0066212 4.14191126,13.0066212 C3.51125109,13.0066212 3,13.5178723 3,14.1485324 L3,19.8580887 C3,20.4887489 3.51125109,21 4.14191126,21 L9.85146757,21 C10.4821277,21 10.9933788,20.4887489 10.9933788,19.8580887 C10.9933788,19.2274286 10.4821277,18.7161775 9.85146757,18.7161775 L6.90533651,18.7161775 L10.6622246,14.9592894 C10.8784028,14.7448766 11,14.4530088 11,14.1485324 C11,13.844056 10.8784028,13.5521882 10.6622246,13.3377754 L10.6622246,13.3377754 Z" id="Path" fill="#F58320"></path>
        </g>
        <g id="expand-outline" transform="translate(12.000000, 12.000000) rotate(-270.000000) translate(-12.000000, -12.000000) translate(3.000000, 3.000000)" fill="#F58320" fill-rule="nonzero">
            <path d="M18,1.125 C18,0.503679656 17.4963203,0 16.875,0 L11.25,0 C10.6286797,0 10.125,0.503679656 10.125,1.125 C10.125,1.74632034 10.6286797,2.25 11.25,2.25 L14.14125,2.25 L10.45125,5.95125 C10.2382733,6.16248742 10.1184769,6.45003277 10.1184769,6.75 C10.1184769,7.04996723 10.2382733,7.33751258 10.45125,7.54875 C10.6624874,7.76172673 10.9500328,7.88152311 11.25,7.88152311 C11.5499672,7.88152311 11.8375126,7.76172673 12.04875,7.54875 L15.75,3.8475 L15.75,6.75 C15.75,7.37132034 16.2536797,7.875 16.875,7.875 C17.4963203,7.875 18,7.37132034 18,6.75 L18,1.125 Z" id="Path"></path>
            <path d="M7.54875,10.45125 C7.33751258,10.2382733 7.04996723,10.1184769 6.75,10.1184769 C6.45003277,10.1184769 6.16248742,10.2382733 5.95125,10.45125 L2.25,14.14125 L2.25,11.25 C2.25,10.6286797 1.74632034,10.125 1.125,10.125 C0.503679656,10.125 0,10.6286797 0,11.25 L0,16.875 C0,17.4963203 0.503679656,18 1.125,18 L6.75,18 C7.37132034,18 7.875,17.4963203 7.875,16.875 C7.875,16.2536797 7.37132034,15.75 6.75,15.75 L3.8475,15.75 L7.54875,12.04875 C7.76172673,11.8375126 7.88152311,11.5499672 7.88152311,11.25 C7.88152311,10.9500328 7.76172673,10.6624874 7.54875,10.45125 L7.54875,10.45125 Z" id="Path"></path>
        </g>
    </g>
</svg>