<svg height="54" viewBox="0 0 167 54" width="167" xmlns="http://www.w3.org/2000/svg" xmlns:xlink="http://www.w3.org/1999/xlink"><defs><rect id="a" height="54" rx="5" width="167"/><mask id="b" fill="#fff"><use fill="#fff" fill-rule="evenodd" xlink:href="#a"/></mask></defs><g fill="none" fill-rule="evenodd"><use fill="#f58320" xlink:href="#a"/><g fill="#1d1c21" fill-rule="nonzero" mask="url(#b)"><g transform="translate(45 -12)"><path d="m73.6162109 32.7097114c-1.4704208 0-2.7240676.9428715-3.1899262 2.2558422h-6.4350738v-1.315908c0-.6227064-.504631-1.127921-1.1279297-1.127921-.6227111 0-1.1279296.5052146-1.1279296 1.127921v5.4986153c0 5.624919-1.8857574 10.9214484-5.3100816 14.9132315-4.7825393 5.5732226-10.8122634 9.8111512-17.92527 12.5986436-6.359291-2.4920006-11.8691101-6.1548068-16.378479-10.8879633-.4300232-.4511684-1.1437912-.4687921-1.5949631-.0387722-.4505843.4294325-.4682083 1.1431949-.0387725 1.5943634 1.5567779 1.6337233 3.2275237 3.1434926 5.0034255 4.530483v8.5680881c-1.3123931.4652675-2.2558593 1.7189047-2.2558593 3.1899018 0 1.8657694 1.5180053 3.3837632 3.383789 3.3837632s3.3837891-1.5179938 3.3837891-3.3837632c0-1.4704097-.9428787-2.7246343-2.2558594-3.1899018v-6.9155661c3.0959321 2.1301259 6.4773712 3.9130637 10.1243438 5.3259023.2032624.0781321.4159242.1174917.6291733.1174917.2126618 0 .4253235-.0393596.6274109-.1174917 7.5447922-2.9220205 13.9405061-7.3984573 19.0097275-13.3065314 2.3451538-2.7334464 4.0346985-6.0149917 4.9793396-9.5861544h3.8126373c.4658586 1.3129707 1.7195053 2.2558422 3.1899262 2.2558422 1.8657837 0 3.3837891-1.5179938 3.3837891-3.3837632 0-1.8657695-1.5180054-3.3837633-3.3837891-3.3837633-1.4704209 0-2.7240676.9434591-3.1899262 2.2558422h-3.3221053c.2537842-1.4803965.3836135-2.9995651.3836135-4.5398824v-1.9268652h6.4350738c.4658586 1.3129707 1.7195054 2.2558422 3.1899262 2.2558422 1.8657837 0 3.3837891-1.5179938 3.3837891-3.3837633 0-1.8657694-1.5180054-3.3837632-3.3837891-3.3837632zm-46.9970703 42.033859c-.6221237 0-1.1279297-.5058021-1.1279297-1.1279211s.505806-1.1279211 1.1279297-1.1279211c.6221238 0 1.1279297.5058021 1.1279297 1.1279211s-.5058059 1.1279211-1.1279297 1.1279211zm43.5004883-31.0554271c.6221238 0 1.1279297.505802 1.1279297 1.1279211 0 .622119-.5058059 1.127921-1.1279297 1.127921-.6221237 0-1.1279297-.505802-1.1279297-1.127921 0-.6221191.505806-1.1279211 1.1279297-1.1279211zm3.496582-6.4667476c-.6221237 0-1.1279297-.505802-1.1279297-1.1279211 0-.622119.505806-1.127921 1.1279297-1.127921.6221238 0 1.1279297.505802 1.1279297 1.127921 0 .6221191-.5058059 1.1279211-1.1279297 1.1279211z"/><path d="m15.2646484 39.1482609v-20.5187644c4.1375047-.978119 8.4359742-2.801004 12.784378-5.4228331 6.4462358-3.88604061 14.4557114-3.88604061 20.9019472 0 1.9351043 1.1661059 3.8596343 2.173598 5.7647781 3.0195388.0211487.0099869.0422973.0199736.0646209.028198 2.3545532 1.0415646 4.6791459 1.836984 6.954979 2.3750963v10.1947617c0 .623294.504631 1.1279211 1.1279297 1.1279211.6232986 0 1.1279296-.5046271 1.1279296-1.1279211v-10.6089201c0-.8065812-.5557402-1.515644-1.3217925-1.6860071-2.0713959-.4605678-4.1933137-1.1525943-6.3481293-2.0655055v-7.89016036c1.3129807-.46585502 2.2558593-1.71949223 2.2558593-3.18990189 0-1.86576946-1.5180053-3.38376325-3.383789-3.38376325s-3.3837891 1.51799379-3.3837891 3.38376325c0 1.47040966.9434663 2.72404687 2.2558594 3.18990189v6.86034496c-1.307106-.6409177-2.6247864-1.3605548-3.9495163-2.1589115-7.1647034-4.31958526-16.0671234-4.31899784-23.2312393 0-4.2955323 2.5889314-8.5193939 4.3571826-12.5540925 5.2542324-.7660523.1703631-1.3217925.8794259-1.3217925 1.6860071v6.8245099h-6.43507381c-.46585858-1.3129706-1.71950535-2.2558421-3.18992623-2.2558421-1.86578369 0-3.38378906 1.5179938-3.38378906 3.3837632 0 1.8657695 1.51800537 3.3837633 3.38378906 3.3837633 1.47042088 0 2.72406765-.9428715 3.18992623-2.2558422h6.43507381v6.4667475h-2.9384918c-.46585856-1.3129706-1.71950533-2.2558421-3.18992621-2.2558421-1.86578369 0-3.38378906 1.5179938-3.38378906 3.3837632 0 1.8657695 1.51800537 3.3837633 3.38378906 3.3837633 1.47042088 0 2.72406765-.9428715 3.18992621-2.2558422h2.9384918v3.129981c0 5.4057967 1.5614775 10.4761545 4.514656 14.6623867.2197114.3113531.5686645.477604.922905.477604.2244111 0 .4517593-.0669704.649147-.2061981.5087434-.3595248.6303482-1.0633005.2714082-1.57204-2.6835328-3.8037963-4.1022569-8.4241606-4.1022569-13.3617526zm39.928711-36.89241873c.6221237 0 1.1279297.50580207 1.1279297 1.12792108s-.505806 1.12792108-1.1279297 1.12792108c-.6221238 0-1.1279297-.50580207-1.1279297-1.12792108s.5058059-1.12792108 1.1279297-1.12792108zm-51.80957034 25.03984803c-.62212375 0-1.12792968-.5058021-1.12792968-1.1279211s.50580593-1.1279211 1.12792968-1.1279211c.62212376 0 1.12792969.5058021 1.12792969 1.1279211s-.50580593 1.1279211-1.12792969 1.1279211zm3.49658203 8.7225897c-.62212375 0-1.12792968-.5058021-1.12792968-1.1279211s.50580593-1.1279211 1.12792968-1.1279211c.62212376 0 1.12792969.5058021 1.12792969 1.1279211s-.50580593 1.1279211-1.12792969 1.1279211z"/><path d="m26.0915986 19.4231536c.5580901-.2761058.7872008-.9528584.5110931-1.5109443-.2761078-.5580861-.9528656-.7871949-1.5115433-.5110893-2.1342544 1.0556636-4.2773208 1.9315648-6.3686904 2.6036178-.7190552.2308714-1.2019502.8923501-1.2019502 1.6460599v17.4974632c0 5.0868066 1.692482 9.861085 4.7655029 13.4434094 4.2068253 4.902932 9.4511109 8.7284644 15.5877534 11.3720293.1985626.085769.4123992.1286535.6262359.1286535s.4276733-.0428845.6268235-.1286535c6.1360549-2.6429775 11.3797531-6.4685098 15.5859909-11.3708543 3.0736084-3.5834994 4.7666778-8.3577778 4.7666778-13.4445844v-17.4974632c0-.7537098-.482895-1.4151885-1.2019502-1.6460599-3.4366607-1.1038352-6.9661406-2.7410831-10.4909209-4.8659221-2.8010254-1.6889442-6.0121002-2.5812943-9.2866211-2.5812943-3.2739334 0-6.4850083.8923501-9.2866211 2.5812943l-.2396851.1439275c-.5351791.3189903-.7102431 1.0116042-.3912505 1.5467793.3189925.5351751 1.0110245.7102378 1.5462036.3912475.0834198-.0499339.1668395-.0998679.2496719-.1498019 2.4497222-1.4768717 5.2583848-2.2576045 8.1216812-2.2576045 2.863884 0 5.6725464.7807328 8.1222686 2.2576045 3.5500412 2.1401128 7.114769 3.8084961 10.6013642 4.9628528v17.1138526c0 4.5486943-1.499794 8.8018967-4.2226868 11.975937-3.920143 4.5686678-8.7978515 8.1515797-14.500946 10.6523923-5.7036819-2.5014001-10.5813904-6.0843119-14.5015335-10.6529797-2.7228928-3.1740405-4.2220993-7.4266553-4.2220993-11.9753496v-17.1138526c2.0813828-.6890893 4.2038879-1.5667529 6.3152314-2.6106673z"/><path d="m38.5 26.3933533c-3.1094436 0-5.6396484 2.529598-5.6396484 5.6396054v1.8798685h-.3759766c-1.4510346 0-2.6318359 1.1807923-2.6318359 2.6318159v9.0233686c0 1.4510236 1.1808013 2.6318159 2.6318359 2.6318159h12.03125c1.4510346 0 2.6318359-1.1807923 2.6318359-2.6318159v-9.0233686c0-1.4510236-1.1808013-2.6318159-2.6318359-2.6318159h-.3759766v-1.8798685c0-3.1100074-2.5296172-5.6396054-5.6396484-5.6396054zm-3.3837891 5.6396054c0-1.8657694 1.5180054-3.3837632 3.3837891-3.3837632s3.3837891 1.5179938 3.3837891 3.3837632v1.8798685h-6.7675782zm9.7753907 4.5116844v9.0233686c0 .207373-.1686021.3759737-.3759766.3759737h-12.03125c-.2073745 0-.3759766-.1686007-.3759766-.3759737v-9.0233686c0-.207373.1686021-.3759737.3759766-.3759737h12.03125c.2073745 0 .3759766.1686007.3759766.3759737z"/><path d="m38.5 36.5446431c-1.8657837 0-3.3837891 1.5179938-3.3837891 3.3837632 0 1.4704097.9434663 2.7240469 2.2558594 3.1899019v1.3217825c0 .6227064.5052185 1.127921 1.1279297 1.127921.6232986 0 1.1279297-.5052146 1.1279297-1.127921v-1.3217825c1.3129807-.465855 2.2558594-1.7194922 2.2558594-3.1899019 0-1.8657694-1.5180054-3.3837632-3.3837891-3.3837632zm0 4.5116843c-.6221238 0-1.1279297-.5058021-1.1279297-1.1279211s.5058059-1.1279211 1.1279297-1.1279211 1.1279297.5058021 1.1279297 1.1279211-.5058059 1.1279211-1.1279297 1.1279211z"/></g></g></g></svg>