<?xml version="1.0" encoding="UTF-8"?>
<svg width="91px" height="91px" viewBox="0 0 91 91" version="1.1" xmlns="http://www.w3.org/2000/svg" xmlns:xlink="http://www.w3.org/1999/xlink">
    <title>single-page-app-icon</title>
    <defs>
        <circle id="path-1" cx="42.5" cy="42.5" r="42.5"></circle>
        <filter x="-5.9%" y="-4.7%" width="111.8%" height="111.8%" filterUnits="objectBoundingBox" id="filter-2">
            <feMorphology radius="0.5" operator="dilate" in="SourceAlpha" result="shadowSpreadOuter1"></feMorphology>
            <feOffset dx="0" dy="1" in="shadowSpreadOuter1" result="shadowOffsetOuter1"></feOffset>
            <feGaussianBlur stdDeviation="1" in="shadowOffsetOuter1" result="shadowBlurOuter1"></feGaussianBlur>
            <feColorMatrix values="0 0 0 0 0   0 0 0 0 0   0 0 0 0 0  0 0 0 0.11324369 0" type="matrix" in="shadowBlurOuter1"></feColorMatrix>
        </filter>
        <polygon id="path-3" points="0 55 55 55 55 0 0 0"></polygon>
        <linearGradient x1="97.8353838%" y1="12.6156803%" x2="0%" y2="85.513055%" id="linearGradient-5">
            <stop stop-color="#000000" offset="0%"></stop>
            <stop stop-color="#6366F1" offset="100%"></stop>
        </linearGradient>
        <linearGradient x1="40.1583279%" y1="0%" x2="73.5380926%" y2="83.2445694%" id="linearGradient-6">
            <stop stop-color="#6366F1" offset="0%"></stop>
            <stop stop-color="#000000" offset="100%"></stop>
        </linearGradient>
        <linearGradient x1="32.9968296%" y1="21.6373166%" x2="72.7260176%" y2="77.5699791%" id="linearGradient-7">
            <stop stop-color="#6366F1" offset="0%"></stop>
            <stop stop-color="#000000" offset="100%"></stop>
        </linearGradient>
    </defs>
    <g id="Docs" stroke="none" stroke-width="1" fill="none" fill-rule="evenodd">
        <g id="docs-landing-page" transform="translate(-766.000000, -386.000000)">
            <g id="single-page-app-icon" transform="translate(769.000000, 388.000000)">
                <g id="Oval-Copy-2">
                    <use fill="black" fill-opacity="1" filter="url(#filter-2)" xlink:href="#path-1"></use>
                    <use fill="#FFFFFF" fill-rule="evenodd" xlink:href="#path-1"></use>
                </g>
                <g id="browser" transform="translate(16.000000, 16.000000)">
                    <g id="g2446-Clipped" transform="translate(27.500000, 27.500000) scale(-1, 1) rotate(-180.000000) translate(-27.500000, -27.500000) ">
                        <mask id="mask-4" fill="white">
                            <use xlink:href="#path-3"></use>
                        </mask>
                        <g id="path2448"></g>
                        <g id="g2446" mask="url(#mask-4)">
                            <g transform="translate(1.620459, 5.122262)">
                                <g id="g2452" stroke-linecap="round" stroke-linejoin="round">
                                    <path d="M48.0233896,0 L3.73571387,0 C1.67256934,0 1.07421874e-05,1.67245117 1.07421874e-05,3.7355957 L1.07421874e-05,41.0197949 C1.07421874e-05,43.0829395 1.67256934,44.755498 3.73571387,44.755498 L48.0233896,44.755498 C50.0866416,44.755498 51.7590928,43.0829395 51.7590928,41.0197949 L51.7590928,3.7355957 C51.7590928,1.67245117 50.0866416,0 48.0233896,0 Z M51.759082,32.194832 L0,32.194832" id="Combined-Shape" stroke="url(#linearGradient-5)" stroke-width="3.19999992"></path>
                                </g>
                                <g id="g2456" transform="translate(0.000000, 31.994832)"></g>
                                <g id="g2460" transform="translate(4.856382, 36.684280)">
                                    <path d="M1.62207031,3.2440332 C2.51786133,3.2440332 3.2440332,2.51775391 3.2440332,1.62196289 C3.2440332,0.726171875 2.51786133,0 1.62207031,0 C0.726279297,0 0,0.726171875 0,1.62196289 C0,2.51775391 0.726279297,3.2440332 1.62207031,3.2440332 M8.21734375,3.2440332 C9.11313477,3.2440332 9.83930664,2.51775391 9.83930664,1.62196289 C9.83930664,0.726171875 9.11313477,0 8.21734375,0 C7.32155273,0 6.59527344,0.726171875 6.59527344,1.62196289 C6.59527344,2.51775391 7.32155273,3.2440332 8.21734375,3.2440332 M15.11154,3.2440332 C16.0073311,3.2440332 16.7335029,2.51775391 16.7335029,1.62196289 C16.7335029,0.726171875 16.0073311,0 15.11154,0 C14.215749,0 13.4894697,0.726171875 13.4894697,1.62196289 C13.4894697,2.51775391 14.215749,3.2440332 15.11154,3.2440332" id="Combined-Shape" fill="#4338CA" fill-rule="nonzero"></path>
                                </g>
                                <g id="g2464" transform="translate(11.451655, 36.684280)"></g>
                                <g id="g2468" transform="translate(18.345852, 36.684280)"></g>
                            </g>
                        </g>
                    </g>
                </g>
                <g id="coding-copy" transform="translate(31.000000, 39.000000)" fill-rule="nonzero">
                    <path d="M25.7340756,9.82049577 L19.7215301,3.34883549 C19.3519922,2.95065091 18.7351477,2.93249063 18.343215,3.30823284 C17.9518917,3.68366549 17.9337119,4.31065917 18.3035545,4.7085342 L23.6846304,10.5000098 L18.3035545,16.2921561 C17.9337119,16.6900311 17.9518917,17.3167152 18.343215,17.6924574 C18.5317164,17.8730799 18.7725229,17.9625399 19.0124154,17.9625399 C19.2714525,17.9625399 19.5301341,17.8582215 19.7215809,17.6524739 L25.7341264,11.180504 C26.088633,10.7985192 26.088633,10.202171 25.7340756,9.82049577 Z M14.5774013,0.0113181454 C14.0453622,-0.07055785 13.5474482,0.300541101 13.4661976,0.841067128 L10.606176,19.8598239 C10.5249254,20.4006595 10.8905531,20.9062063 11.422897,20.988753 C11.4729677,20.996337 11.5223274,21 11.5714333,21 C12.044972,21 12.460315,20.6490218 12.5341007,20.159004 L15.3941224,1.14024728 C15.475373,0.599360109 15.1097452,0.0938648327 14.5774013,0.0113181454 Z" id="Combined-Shape" stroke="url(#linearGradient-7)" fill="url(#linearGradient-6)"></path>
                    <path d="M7.6967438,16.2918465 L2.31602339,10.5000098 L7.6967438,4.70822465 C8.06628175,4.31034962 8.04840662,3.68330435 7.65677865,3.30792329 C7.26545538,2.93249063 6.6479507,2.95065091 6.27846353,3.34852594 L0.265918028,9.82018622 C-0.0886393427,10.2018615 -0.0886393427,10.7985192 0.265918028,11.1802461 L6.27876822,17.6522159 C6.47051967,17.8585826 6.72889663,17.9625915 6.98793375,17.9625915 C7.22777541,17.9625915 7.4686327,17.8727703 7.65677865,17.6921479 C8.04876209,17.3167152 8.06628175,16.6897215 7.6967438,16.2918465 Z" id="Path" stroke="#4338CA" fill="#4338CA"></path>
                </g>
            </g>
        </g>
    </g>
</svg>