<svg height="91" viewBox="0 0 91 91" width="91" xmlns="http://www.w3.org/2000/svg" xmlns:xlink="http://www.w3.org/1999/xlink"><defs><circle id="a" cx="42.5" cy="42.5" r="42.5"/><filter id="b" height="111.8%" width="111.8%" x="-5.9%" y="-4.7%"><feMorphology in="SourceAlpha" operator="dilate" radius="0.5" result="shadowSpreadOuter1"/><feOffset dx="0" dy="1" in="shadowSpreadOuter1" result="shadowOffsetOuter1"/><feGaussianBlur in="shadowOffsetOuter1" result="shadowBlurOuter1" stdDeviation="1"/><feColorMatrix in="shadowBlurOuter1" type="matrix" values="0 0 0 0 0   0 0 0 0 0   0 0 0 0 0  0 0 0 0.11324369 0"/></filter><linearGradient id="c" x1="50%" x2="50%" y1="0%" y2="79.816229%"><stop offset="0" stop-color="#6366f1"/><stop offset="1"/></linearGradient></defs><g fill="none" fill-rule="evenodd" transform="translate(3 2)"><use fill="#000" filter="url(#b)" xlink:href="#a"/><use fill="#fff" fill-rule="evenodd" xlink:href="#a"/><path d="m38.044553 25.4120369c-2.7209517.0010259-5.2526672 1.3642372-6.7119691 3.614084l-15.6111608-6.2480535c.3382729-1.4870264.2243977-3.0385654-.3275534-4.4628828l15.8493243-6.3560456c2.2157832 3.3728762 6.6904952 4.5351728 10.3209544 2.6808453s5.219735-6.11392354 3.6656758-9.82478806c-1.5540592-3.71086453-5.7390937-5.64955797-9.6528114-4.47160997-3.9137177 1.17794799-6.2658 5.08417828-5.4250943 9.00974746l-16.2757007 6.52714317c-2.2724577-2.4830958-5.90595921-3.2741644-9.03804575-1.9677201-3.13208654 1.3064442-5.06830711 4.4207344-4.81619458 7.746549s2.63665938 6.1257489 5.93137053 6.9646138c3.29471114.8388648 6.7690782-.4693342 8.6422115-3.254041l15.6559905 6.2665362c-.6777374 3.2291024.7916318 6.5266941 3.6695119 8.235202s6.5417349 1.4583516 9.1498847-.624725c2.6081499-2.0830765 3.596406-5.548467 2.4680098-8.6542524-1.1283962-3.1057853-4.1293527-5.1801292-7.4944034-5.1803384zm-.1060102-22.63425357c2.054766 0 3.9072266 1.21254105 4.6935767 3.07230355s.3517301 4.00045941-1.101196 5.42388042c-1.4529261 1.423421-3.638027 1.8492453-5.5363867 1.0789105-1.8983596-.7703349-3.1361256-2.58512342-3.1361256-4.5981269.0031685-2.74738214 2.2757514-4.97381487 5.0801316-4.97696757zm-29.98164364 23.28027007c-2.80567035-.000243-5.07993764-2.2286149-5.07977226-4.9772609.00016539-2.748646 2.27470081-4.9766742 5.08037117-4.9766742 2.80567033 0 5.08007173 2.2283216 5.08007173 4.9769676-.0031197 2.7476081-2.2760594 4.9741542-5.08067064 4.9769675zm30.08765384 12.1242514c-2.054766 0-3.9072266-1.212541-4.6935767-3.0723035s-.3517301-4.0004595 1.101196-5.4238805c1.4529261-1.4234209 3.638027-1.8492453 5.5363867-1.0789104 1.8983597.7703348 3.1361256 2.5851234 3.1361256 4.5981268-.0031685 2.7473822-2.2757514 4.9738149-5.0801316 4.9769676z" fill="url(#c)" fill-rule="nonzero" transform="translate(17 24)"/></g></svg>