<svg height="36" viewBox="0 0 36 36" width="36" xmlns="http://www.w3.org/2000/svg" xmlns:xlink="http://www.w3.org/1999/xlink"><mask id="a" fill="#fff"><path d="m0 0h36v36h-36z" fill="#fff" fill-rule="evenodd"/></mask><g fill="none" mask="url(#a)"><g transform="translate(2 2)"><circle cx="16" cy="16" fill="#87b940" r="16"/><g fill="#fff"><path d="m7.69228 24.9233c-1.02564-.5128-3.07692-2.3385-3.07692-5.5385 0-4 2.15384-7.0769 8.00004-8.3077 5.8461-1.23074 11.6923.3077 16.6153-8.61543 0 0 6.2578 15.28963-1.2307 22.15393-3.6923 3.3845-11.6923 2.1538-14.4616 2.1538-1.4652 0-2.7869.0897-3.57326.1802-.25516.0491-.50039.0915-.7344.1275.06946-.0347.33178-.0812.7344-.1275 5.56046-1.0698 15.84436-5.2999 17.72716-14.9494 0 0-4.3077 11.0769-20.00002 12.9231z" stroke="#87b940"/><circle cx="7.07691" cy="26.7691" r="1.53846"/></g></g></g></svg>