<svg height="54" viewBox="0 0 167 54" width="167" xmlns="http://www.w3.org/2000/svg" xmlns:xlink="http://www.w3.org/1999/xlink"><defs><rect id="a" height="54" rx="5" width="167"/><mask id="b" fill="#fff"><use fill="#fff" fill-rule="evenodd" xlink:href="#a"/></mask></defs><g fill="none" fill-rule="evenodd" opacity=".993846"><use fill="#0ea5e9" xlink:href="#a"/><g fill="#1d1c21" fill-rule="nonzero" mask="url(#b)"><path d="m58.1578947 0c.9446976 0 1.7105264.76582872 1.7105264 1.71052632 0 .94469759-.7658288 1.71052631-1.7105264 1.71052631-9.0308978 0-15.0634433 2.72021388-18.3459441 8.13745297 5.0566368 1.8478523 9.3704891 5.5602488 12.3374117 10.4202581 3.2779394-2.5923601 4.974536-3.9319637 5.0897898-4.0188111.754477-.5685227 1.8269801-.4177765 2.3955028.3367005.5685225.7544771.4177764 1.8269802-.3367007 2.3955027l-5.522577 4.3644262c1.4924739 3.291602 2.4159034 6.9711939 2.6260239 10.8660354l6.8880726-.0015648c.9446975 0 1.7105263.7658288 1.7105263 1.7105263 0 .8772192-.6770641 1.7106798-1.7105263 1.7106798h-6.8881653c-.2504457 4.6376102-1.5122091 8.9699979-3.5399041 12.7059944l6.3228062 4.7412206c.7557581.5668185.9089238 1.6389787.3421053 2.3947368-.5232172.6976228-1.559845.9733844-2.3947369.3421053l-6.0888515-4.5690944c-4.2819845 6.1240347-11.0453872 10.0427786-18.5427274 10.0427786s-14.1596671-3.9187439-18.541504-10.0410693l-6.09007495 4.5673851c-.82072587.6101748-1.87151972.3555175-2.39473684-.3421053-.52321712-.6976227-.45456563-1.8001257.34210526-2.3947368l6.32373263-4.7395138c-2.028237-3.7363838-3.29034667-8.0693847-3.54083049-12.7077012l-6.88816529-.0001534c-.9446976 0-1.71052632-.7658288-1.71052632-1.7105264 0-.8772191.7164333-1.7089615 1.71052632-1.7105263l6.88807257.0015648c.21019324-3.8961881 1.1341886-7.5769778 2.62648531-10.8697213-3.45587208-2.7358055-5.23551493-4.1429648-5.33892851-4.2214782-.75241652-.5712468-.89928359-1.6442879-.32803677-2.3967044.57124682-.7524166 1.64428796-.8992836 2.39670449-.3280367l4.89883659 3.8748836c2.9639003-4.862806 7.2777526-8.5752025 12.3339426-10.4225947-3.2824288-5.41769919-9.3149741-8.13791307-18.34587204-8.13791307-.9446976 0-1.71052632-.76582872-1.71052632-1.71052631 0-.9446976.76582872-1.71052632 1.71052632-1.71052632 10.57515254 0 17.91956804 3.53268837 21.75237724 10.6242945 1.2691309-.2375283 2.5743422-.3611366 3.9058922-.3611366s2.6367613.1236083 3.9075361.3612161c3.8307907-7.09168563 11.1752062-10.624374 21.7503586-10.624374zm-44.1280942 27.182839c-1.4347755 3.3880407-2.0561163 6.8453012-2.0561163 10.4487399 0 12.6356566 8.3782198 22.9121338 18.9099873 23.8738314v-27.3432525c-5.8111589-.352605-10.8610927-2.636926-16.853871-6.9793188zm36.9421328-.0039624c-6.1054293 4.3908152-11.0350363 6.5875348-16.6660094 6.9710733l.0003582 27.3370982c10.4422946-1.0670393 18.7200337-11.2958115 18.7200337-23.8554692 0-3.7531302-.7391684-7.2981221-2.0543825-10.4527023zm-18.4719333-13.4946661c-6.9955658 0-13.2104286 4.1061607-16.9214038 10.3930017 6.2138602 4.57423 11.1393016 6.7122615 16.9214038 6.7122615s10.7075436-2.1380315 16.9190046-6.710463c-3.708576-6.2886395-9.9234388-10.3948002-16.9190046-10.3948002z" transform="matrix(.5591929 .82903757 -.82903757 .5591929 92.269952 -17.61749)"/></g></g></svg>