<svg height="24" viewBox="0 0 24 24" width="24" xmlns="http://www.w3.org/2000/svg"><g fill="none"><path d="m0 0h24v24h-24z" fill="#000" opacity="0"/><g fill="#f58320"><path d="m9 11c2.209139 0 4-1.790861 4-4s-1.790861-4-4-4-4 1.790861-4 4 1.790861 4 4 4zm0-6c1.1045695 0 2 .8954305 2 2s-.8954305 2-2 2-2-.8954305-2-2 .8954305-2 2-2z"/><path d="m17 13c1.6568542 0 3-1.3431458 3-3 0-1.65685425-1.3431458-3-3-3s-3 1.34314575-3 3c0 1.6568542 1.3431458 3 3 3zm0-4c.5522847 0 1 .44771525 1 1 0 .5522847-.4477153 1-1 1s-1-.4477153-1-1c0-.55228475.4477153-1 1-1z"/><path d="m17 14c-1.1081746.0012275-2.1845422.3705693-3.06 1.05-2.0029228-1.9950625-5.00929048-2.5895156-7.62077342-1.5068656-2.61148295 1.08265-4.31540228 3.6298602-4.31922658 6.4568656 0 .5522847.44771525 1 1 1s1-.4477153 1-1c0-2.7614237 2.23857625-5 5-5 2.7614237 0 5 2.2385763 5 5 0 .5522847.4477153 1 1 1s1-.4477153 1-1c.0023853-1.171569-.2935789-2.3244529-.86-3.35.901728-.7125558 2.1312874-.8473297 3.1659589-.3470256 1.0346714.5003041 1.692584 1.5477445 1.6940411 2.6970256 0 .5522847.4477153 1 1 1s1-.4477153 1-1c0-2.7614237-2.2385763-5-5-5z"/></g></g></svg>