<?xml version="1.0" encoding="UTF-8"?>
<svg width="24px" height="24px" viewBox="0 0 24 24" version="1.1" xmlns="http://www.w3.org/2000/svg" xmlns:xlink="http://www.w3.org/1999/xlink">
    <title>web_auth_biometric_authentication</title>
    <g id="Nav-System-Update" stroke="none" stroke-width="1" fill="none" fill-rule="evenodd">
        <g id="web_auth_biometric_authentication">
            <polygon id="Path" points="0 0 24 0 24 24 0 24"></polygon>
            <path d="M18.9,7 C19.8044534,8.50118198 20.1909174,10.2578364 20,12 L20,13 C19.99883,14.0528705 20.2747345,15.0875123 20.8,16" id="Path" stroke="#F58320" stroke-width="2" stroke-linecap="round" stroke-linejoin="round"></path>
            <path d="M8,11 C8,8.790861 9.790861,7 12,7 C14.209139,7 16,8.790861 16,11 L16,12 C16,14.1637021 16.7017787,16.2690383 18,18" id="Path" stroke="#F58320" stroke-width="2" stroke-linecap="round" stroke-linejoin="round"></path>
            <path d="M11.9999913,11 L11.9999913,13 C11.9968081,15.8593975 12.8692494,18.6512095 14.4999913,21" id="Path" stroke="#F58320" stroke-width="2" stroke-linecap="round" stroke-linejoin="round"></path>
            <path d="M8,15 C8.24470314,17.089833 8.85392664,19.120578 9.8,21" id="Path" stroke="#F58320" stroke-width="2" stroke-linecap="round" stroke-linejoin="round"></path>
            <path d="M4.9,19 C4.22524833,16.7303048 3.92133863,14.3665626 4,12 L4,11 C3.99219599,8.13798274 5.51390447,5.4898207 7.99054311,4.05543415 C10.4671818,2.62104761 13.5214173,2.61897541 16,4.05" id="Path" stroke="#F58320" stroke-width="2" stroke-linecap="round" stroke-linejoin="round"></path>
        </g>
    </g>
</svg>