<svg height="54" viewBox="0 0 167 54" width="167" xmlns="http://www.w3.org/2000/svg" xmlns:xlink="http://www.w3.org/1999/xlink"><defs><rect id="a" height="54" rx="5" width="167"/><mask id="b" fill="#fff"><use fill="#fff" fill-rule="evenodd" xlink:href="#a"/></mask></defs><g fill="none" fill-rule="evenodd"><use fill="#0ea5e9" xlink:href="#a"/><g fill="#1d1c21" fill-rule="nonzero" mask="url(#b)"><g transform="matrix(.93358043 -.35836795 .35836795 .93358043 38.753048 3.316876)"><path d="m52.9031952 61.3306915c.2696931-.2192553.4425815-.555.4425815-.9317553 0-.0105319 0-54.41489365 0-54.41489365 0-.66111702-.5310029-1.19680851-1.1863335-1.19680851h-34.3222081c-.8464094-2.76909574-3.406517-4.78723404-6.4253401-4.78723404-2.97026261 0-5.5692819 1.99691489-6.42423287 4.78723404h-3.80132869c-.65533059 0-1.18633344.53569149-1.18633344 1.19680851v67.81914895c0 .661117.53100285 1.1968085 1.18633344 1.1968085h37.67589366c.3835812 0 .7160709-.1742553.9335654-.4458511zm-12.8443531 9.5727128v-9.3076596h9.2260361zm-28.6469471-68.50978728c1.6866498 0 3.1512179.97420213 3.8725087 2.39361702h-7.74533379c.72825056-1.42787234 2.21053465-2.39361702 3.87282509-2.39361702zm-9.03922812 4.78723404h13.38911732v8.37765954c0 1.0999468-.8869028 1.9946809-1.9772224 1.9946809-1.0903195 0-1.9772224-.8947341-1.9772224-1.9946809v-4.787234c0-.661117-.5310028-1.19680851-1.1863334-1.19680851-.65533058 0-1.18633343.53569151-1.18633343 1.19680851v4.787234c0 2.4196277 1.95143943 4.3882979 4.34988923 4.3882979 2.3984499 0 4.3498893-1.9686702 4.3498893-4.3882979v-8.37765954h32.8386587v52.02127664h-12.1006011c-.6553306 0-1.1863334.5356914-1.1863334 1.1968085v12.2074468h-35.31350842z"/><path d="m42.6687757 55.1329787c.6553306 0 1.1863334-.5356915 1.1863334-1.1968085s-.5310028-1.1968085-1.1863334-1.1968085h-31.9917748c-.6553305 0-1.18633339.5356915-1.18633339 1.1968085s.53100289 1.1968085 1.18633339 1.1968085z"/><path d="m10.6770009 47.9521277h31.9917748c.6553306 0 1.1863334-.5356915 1.1863334-1.1968086 0-.661117-.5310028-1.1968085-1.1863334-1.1968085h-31.9917748c-.6553305 0-1.18633339.5356915-1.18633339 1.1968085 0 .6611171.53100289 1.1968086 1.18633339 1.1968086z"/><path d="m10.6770009 40.7712766h31.9917748c.6553306 0 1.1863334-.5356915 1.1863334-1.1968085s-.5310028-1.1968085-1.1863334-1.1968085h-31.9917748c-.6553305 0-1.18633339.5356915-1.18633339 1.1968085s.53100289 1.1968085 1.18633339 1.1968085z"/><path d="m10.6770009 33.5904255h31.9917748c.6553306 0 1.1863334-.5356915 1.1863334-1.1968085s-.5310028-1.1968085-1.1863334-1.1968085h-31.9917748c-.6553305 0-1.18633339.5356915-1.18633339 1.1968085s.53100289 1.1968085 1.18633339 1.1968085z"/><path d="m10.6770009 26.4095745h31.9917748c.6553306 0 1.1863334-.5356915 1.1863334-1.1968085 0-.6611171-.5310028-1.1968086-1.1863334-1.1968086h-31.9917748c-.6553305 0-1.18633339.5356915-1.18633339 1.1968086 0 .661117.53100289 1.1968085 1.18633339 1.1968085z"/><path d="m58.4865549 4.78723404h-1.5817779c-.6553306 0-1.1863335.53569149-1.1863335 1.19680851s.5310029 1.19680851 1.1863335 1.19680851h.3954444v65.42553194h-12.6656121c-.6553306 0-1.1863334.5356915-1.1863334 1.1968085s.5310028 1.1968085 1.1863334 1.1968085h13.8519456c.6553306 0 1.1863334-.5356915 1.1863334-1.1968085v-67.81914895c0-.66111702-.5310028-1.19680851-1.1863334-1.19680851z"/><path d="m64.8136666 4.78723404h-1.581778c-.6553305 0-1.1863334.53569149-1.1863334 1.19680851s.5310029 1.19680851 1.1863334 1.19680851h.3954445v65.42553194h-.3954445c-.6553305 0-1.1863334.5356915-1.1863334 1.1968085s.5310029 1.1968085 1.1863334 1.1968085h1.581778c.6553306 0 1.1863334-.5356915 1.1863334-1.1968085v-67.81914895c0-.66111702-.5310028-1.19680851-1.1863334-1.19680851z"/></g></g></g></svg>