<?xml version="1.0" encoding="UTF-8"?>
<svg width="825px" height="412px" viewBox="0 0 825 412" version="1.1" xmlns="http://www.w3.org/2000/svg" xmlns:xlink="http://www.w3.org/1999/xlink">
    <title>Blog Header Graphic Blue Copy 2</title>
    <defs>
        <linearGradient x1="50%" y1="100%" x2="50%" y2="0%" id="linearGradient-1">
            <stop stop-color="#08A3BF" offset="0%"></stop>
            <stop stop-color="#1D5974" offset="100%"></stop>
        </linearGradient>
        <rect id="path-2" x="0" y="0" width="825" height="412"></rect>
        <linearGradient x1="50.930581%" y1="81.968111%" x2="45.3504245%" y2="22.8021166%" id="linearGradient-4">
            <stop stop-color="#12D5E0" offset="0%"></stop>
            <stop stop-color="#4EF9F9" offset="99%"></stop>
        </linearGradient>
        <linearGradient x1="105.052573%" y1="24.7654595%" x2="17.7805549%" y2="64.7684858%" id="linearGradient-5">
            <stop stop-color="#12D5E0" offset="0%"></stop>
            <stop stop-color="#4EF9F9" offset="99%"></stop>
        </linearGradient>
        <linearGradient x1="50.9278683%" y1="82.1200927%" x2="45.3499005%" y2="22.6749239%" id="linearGradient-6">
            <stop stop-color="#12D5E0" offset="0%"></stop>
            <stop stop-color="#4EF9F9" offset="99%"></stop>
        </linearGradient>
        <linearGradient x1="104.224914%" y1="24.7718383%" x2="18.2613617%" y2="64.7734681%" id="linearGradient-7">
            <stop stop-color="#12D5E0" offset="0%"></stop>
            <stop stop-color="#4EF9F9" offset="99%"></stop>
        </linearGradient>
    </defs>
    <g id="Blog-Header-Graphic-Blue-Copy-2" stroke="none" stroke-width="1" fill="none" fill-rule="evenodd">
        <mask id="mask-3" fill="white">
            <use xlink:href="#path-2"></use>
        </mask>
        <use id="Mask" fill="url(#linearGradient-1)" xlink:href="#path-2"></use>
        <text id="User-Registration-an" mask="url(#mask-3)" font-family="Montserrat-SemiBold, Montserrat" font-size="38" font-weight="500" line-spacing="61" letter-spacing="-1.10833333" fill="#FFFFFF">
            <tspan x="398" y="142">User Registration</tspan>
            <tspan x="398" y="203">and Sign-in with</tspan>
            <tspan x="398" y="264">Laravel and</tspan>
            <tspan x="398" y="325">FusionAuth</tspan>
        </text>
        <text id="TUTORIAL" mask="url(#mask-3)" font-family="Montserrat-SemiBold, Montserrat" font-size="21" font-weight="500" line-spacing="46" letter-spacing="1.5" fill="#FFFFFF">
            <tspan x="397" y="84">TUTORIAL</tspan>
        </text>
        <g id="Asset-111" mask="url(#mask-3)">
            <g transform="translate(-200.000000, 67.000000)">
                <path d="M490.992908,27 L375.021277,27 C373.909322,27.0038718 373.007769,27.9048173 373,29.0199147 L373,93.7852063 C373.003907,94.9019238 373.90772,95.8051278 375.021277,95.8051209 L408.971631,95.8051209 L408.971631,109.972973 C408.971624,111.089697 409.872266,111.996082 410.985816,112 C411.517049,111.995009 412.025597,111.783361 412.404255,111.409673 L427.957447,95.8051209 L490.978723,95.8051209 C491.514146,95.8070116 492.028286,95.5950347 492.407554,95.2160221 C492.786822,94.8370095 493,94.3221555 493,93.7852063 L493,29.0199147 C492.996139,27.9087247 492.100925,27.0077911 490.992908,27 Z M395.205674,47.2418208 L454.666667,47.2418208 C455.41608,47.1972444 456.128393,47.5728707 456.516523,48.2173115 C456.904653,48.8617522 456.904653,49.668831 456.516523,50.3132718 C456.128393,50.9577125 455.41608,51.3333388 454.666667,51.2887624 L395.205674,51.2887624 C394.456261,51.3333388 393.743947,50.9577125 393.355817,50.3132718 C392.967687,49.668831 392.967687,48.8617522 393.355817,48.2173115 C393.743947,47.5728707 394.456261,47.1972444 395.205674,47.2418208 Z M470.815603,75.5775249 L395.205674,75.5775249 C394.456261,75.6221013 393.743947,75.246475 393.355817,74.6020342 C392.967687,73.9575934 392.967687,73.1505147 393.355817,72.5060739 C393.743947,71.8616331 394.456261,71.4860068 395.205674,71.5305832 L470.815603,71.5305832 C471.883564,71.5941073 472.717202,72.4811728 472.717202,73.5540541 C472.717202,74.6269353 471.883564,75.5140008 470.815603,75.5775249 L470.815603,75.5775249 Z M470.815603,63.4366999 L395.205674,63.4366999 C394.089354,63.4366999 393.184397,62.5291689 393.184397,61.4096728 C393.184397,60.2901767 394.089354,59.3826458 395.205674,59.3826458 L470.815603,59.3826458 C471.931923,59.3826458 472.836879,60.2901767 472.836879,61.4096728 C472.836879,62.5291689 471.931923,63.4366999 470.815603,63.4366999 Z" id="Shape" fill="#0B5D7F" fill-rule="nonzero"></path>
                <polygon id="Path" fill="#0B5D7F" fill-rule="evenodd" points="204 179.917889 200.116576 180 200 179.082111 203.832423 179"></polygon>
                <path d="M225,176.778338 C223.784722,176.861461 222.5625,176.924433 221.347222,177 L221,176.219144 C222.201389,176.143577 223.409722,176.080605 224.611111,176 L225,176.778338 Z" id="Path" fill="#0B5D7F" fill-rule="evenodd"></path>
                <polygon id="Path" fill="#0B5D7F" fill-rule="evenodd" points="217 178.82058 213.274648 179 213 178.176781 216.676056 178"></polygon>
                <polygon id="Path" fill="#0B5D7F" fill-rule="evenodd" points="211 179.864266 207.193202 180 207 179.132964 210.749553 179"></polygon>
                <polygon id="Path" fill="#0B5D7F" fill-rule="evenodd" points="244 173.67713 240.544538 174 240 173.320628 243.415126 173"></polygon>
                <path d="M236,174.706977 C234.827119,174.809302 233.661017,174.913953 232.481356,175 L232,174.288372 C233.166102,174.202326 234.318644,174.1 235.477966,174 L236,174.706977 Z" id="Path" fill="#0B5D7F" fill-rule="evenodd"></path>
                <path d="M231,176.739759 C229.815068,176.838554 228.616438,176.915663 227.417808,177 L227,176.255422 C228.184932,176.173494 229.369863,176.098795 230.541096,176 L231,176.739759 Z" id="Path" fill="#0B5D7F" fill-rule="evenodd"></path>
                <path d="M264,168.380567 C262.92459,168.939271 261.836066,169.473684 260.721311,170 L260,167.619433 C261.068852,167.109312 262.137705,166.582996 263.193443,166 L264,168.380567 Z" id="Path" fill="#0B5D7F" fill-rule="evenodd"></path>
                <polygon id="Path" fill="#0B5D7F" fill-rule="evenodd" points="257 169.494715 253.668874 171 253 168.488372 256.291391 167"></polygon>
                <path d="M251,171.611354 C249.88,172.10917 248.74,172.545852 247.606667,173 L247,170.379913 C248.12,169.925764 249.246667,169.50655 250.333333,169 L251,171.611354 Z" id="Path" fill="#0B5D7F" fill-rule="evenodd"></path>
                <ellipse id="Oval" fill="#078AAB" fill-rule="nonzero" cx="346" cy="271" rx="312" ry="8"></ellipse>
                <circle id="Oval" fill="#0B5D7F" fill-rule="nonzero" cx="204.5" cy="46.5" r="6.5"></circle>
                <path d="M194.419162,37.7262442 C193.860279,38.2459405 193.860279,39.0840786 194.419162,39.6037749 C194.675743,39.8565535 195.034392,40 195.409815,40 C195.785238,40 196.143887,39.8565535 196.400468,39.6037749 C198.397652,37.7155554 201.136593,36.6508012 203.996607,36.6508012 C206.856621,36.6508012 209.595562,37.7155554 211.592747,39.6037749 C211.856782,39.8485461 212.215833,39.9859707 212.590185,39.9855394 C212.96326,39.9893016 213.321558,39.8512256 213.580838,39.6037749 C214.139721,39.0840786 214.139721,38.2459405 213.580838,37.7262442 C211.062431,35.3436591 207.607644,34 204,34 C200.392356,34 196.937569,35.3436591 194.419162,37.7262442 L194.419162,37.7262442 Z" id="Path" fill="#0B5D7F" fill-rule="nonzero"></path>
                <path d="M203.503529,24 C198.204438,23.9927132 193.129167,26.7628347 189.436036,31.6781603 C188.854655,32.4362912 188.854655,33.6589637 189.436036,34.4170946 C189.703125,34.7888146 190.077764,35 190.470099,35 C190.862434,35 191.237073,34.7888146 191.504162,34.4170946 C194.658086,30.2319489 198.985059,27.8716669 203.503529,27.8716669 C208.022,27.8716669 212.348973,30.2319489 215.502896,34.4170946 C215.769807,34.785847 216.142894,34.9951062 216.53343,34.9951062 C216.923966,34.9951062 217.297053,34.785847 217.563964,34.4170946 C218.145345,33.6589637 218.145345,32.4362912 217.563964,31.6781603 C213.873004,26.7642298 208.800335,23.9941383 203.503529,24 L203.503529,24 Z" id="Path" fill="#0B5D7F" fill-rule="nonzero"></path>
                <path d="M222.557305,25.1395349 C217.943866,19.9353491 211.6122,17 205,17 C198.3878,17 192.056134,19.9353491 187.442695,25.1395349 C186.852435,25.7933312 186.852435,26.8477385 187.442695,27.5015348 C187.713682,27.8195392 188.092467,28 188.488967,28 C188.885467,28 189.264252,27.8195392 189.535239,27.5015348 C193.596211,22.9152584 199.172582,20.327977 204.996417,20.327977 C210.820252,20.327977 216.396623,22.9152584 220.457595,27.5015348 C220.735726,27.811619 221.114789,27.9872709 221.511033,27.9896814 C221.905115,27.9869211 222.281833,27.8111603 222.557305,27.5015348 C223.147565,26.8477385 223.147565,25.7933312 222.557305,25.1395349 L222.557305,25.1395349 Z" id="Path" fill="#0B5D7F" fill-rule="nonzero"></path>
                <path d="M350.495792,39 L350.495792,39 C350.527755,35.9771355 352.974777,33.5357232 356,33.5084098 L356,33.5084098 C352.968288,33.4809547 350.518636,31.0294329 350.495792,28 L350.495792,28 C350.463907,31.0196262 348.021937,33.4597302 345,33.4915902 L345,33.4915902 C348.030318,33.5191054 350.477523,35.9719289 350.495792,39 Z" id="Path" fill="#20F2F5" fill-rule="nonzero"></path>
                <path d="M351.015721,39 L351.015721,39 C350.985683,43.9580895 346.96675,47.9700151 342,48 L342,48 C346.955769,48.0470005 350.958036,52.0527666 350.99214,57 L350.99214,57 C351.034839,52.0515341 355.04289,48.0504714 360,48.0078466 L360,48.0078466 C355.04249,47.9607373 351.041273,43.9490242 351.015721,39 L351.015721,39 Z" id="Path" fill="#20F2F5" fill-rule="nonzero"></path>
                <path d="M348,40.4746693 C340.033721,40.4078049 333.592195,33.9662786 333.525331,26 L333.474669,26.0506613 C333.403938,34.0153186 326.964657,40.4545994 319,40.5253307 L319,40.5253307 C326.966279,40.5921951 333.407805,47.0337214 333.474669,55 L333.525331,54.9493387 C333.58444,46.9798117 340.030473,40.5337783 348,40.4746693 L348,40.4746693 Z" id="Path" fill="#20F2F5" fill-rule="nonzero"></path>
                <path d="M324.206357,263.263592 C323.977649,263.006158 323.717516,262.779643 323.43231,262.589577 L313.348587,256 L222.651373,256 L212.56765,262.589577 C212.282445,262.779643 212.022312,263.006158 211.793603,263.263592 C210.939867,264.309804 210.758725,265.765451 211.32918,266.995682 C211.899635,268.225913 213.118234,269.007627 214.453511,269 L321.539413,269 C322.875962,269.010441 324.09708,268.229787 324.66932,266.998961 C325.241561,265.768135 325.060938,264.3108 324.206357,263.263592 L324.206357,263.263592 Z" id="Path" fill="#045887" fill-rule="nonzero"></path>
                <path d="M399,71.7677725 C399,67.4777502 395.512209,64 391.209801,64 L145.790199,64 C141.487791,64 138,67.4777502 138,71.7677725 L138,213 L399,213 L399,71.7677725 Z" id="Path" fill="#045887" fill-rule="nonzero"></path>
                <polygon id="Path" fill="url(#linearGradient-4)" fill-rule="nonzero" points="148 74 148 215 360 215 252.591843 74"></polygon>
                <polygon id="Path" fill="url(#linearGradient-5)" fill-rule="nonzero" points="387 74 253 74 360.597383 215 387 215"></polygon>
                <rect id="Rectangle" fill="#045887" fill-rule="nonzero" x="243" y="242" width="51" height="15"></rect>
                <rect id="Rectangle" fill="#044674" fill-rule="nonzero" x="243" y="243" width="51" height="1"></rect>
                <path d="M213.650141,262.999449 L320.342848,262.999449 C321.36679,263.016417 322.344408,262.640772 323,261.97845 C322.772131,261.766564 322.512953,261.580125 322.228795,261.423688 L312.182097,256 L221.817903,256 L211.771205,261.423688 C211.487047,261.580125 211.227869,261.766564 211,261.97845 C211.654044,262.639141 212.628639,263.014616 213.650141,262.999449 Z" id="Path" fill="#044674" fill-rule="nonzero"></path>
                <path d="M145.790634,242 L391.209378,242 C395.51202,242 399,238.581711 399,234.365039 L399,215 L138,215 L138,234.351157 C137.996252,236.378479 138.815386,238.324029 140.276819,239.758866 C141.738252,241.193703 143.721977,242 145.790634,242 L145.790634,242 Z" id="Path" fill="#045887" fill-rule="nonzero"></path>
                <path d="M272.765105,152 L304.234895,152 C306.339913,151.91957 308,150.376371 308,148.5 C308,146.623629 306.339913,145.08043 304.234895,145 L272.765105,145 C270.660087,145.08043 269,146.623629 269,148.5 C269,150.376371 270.660087,151.91957 272.765105,152 L272.765105,152 Z" id="Path" fill="#0B5D7F" fill-rule="nonzero"></path>
                <path d="M227.135556,167.827378 C228.641461,169.390874 231.081636,169.390874 232.587541,167.827378 L251.871546,147.788595 C253.376151,146.223749 253.376151,143.688064 251.871546,142.123218 L232.587541,122.091802 C231.069868,120.604798 228.689482,120.641146 227.214511,122.173847 C225.73954,123.706548 225.704561,126.180104 227.135556,127.757179 L243.690023,144.95959 L227.135556,162.147267 C226.408642,162.899361 226,163.921385 226,164.987323 C226,166.05326 226.408642,167.075284 227.135556,167.827378 Z" id="Path" fill="#0B5D7F" fill-rule="nonzero"></path>
                <path d="M535,149.803925 C535,148.528625 534.488758,147.30566 533.578938,146.404548 C532.669118,145.503435 531.435395,144.998135 530.149658,145 L377.850342,145 C376.564605,144.998135 375.330882,145.503435 374.421062,146.404548 C373.511242,147.30566 373,148.528625 373,149.803925 L373,237 L535,237 L535,149.803925 Z" id="Path" fill="#045887" fill-rule="nonzero"></path>
                <polygon id="Path" fill="url(#linearGradient-6)" fill-rule="nonzero" points="379 149 379 237 511 237 444.123124 149"></polygon>
                <polygon id="Path" fill="url(#linearGradient-7)" fill-rule="nonzero" points="526 149 443 149 509.647656 237 526 237"></polygon>
                <path d="M377.849492,254 L530.150508,254 C531.43602,254.001979 532.669526,253.465745 533.579187,252.509469 C534.488848,251.553192 535,250.255361 535,248.901989 L535,236 L373,236 L373,248.901989 C373,250.255361 373.511152,251.553192 374.420813,252.509469 C375.330474,253.465745 376.56398,254.001979 377.849492,254 L377.849492,254 Z" id="Path" fill="#045887" fill-rule="nonzero"></path>
                <path d="M553.555584,261.280641 C553.155669,260.836851 552.690717,260.45153 552.175382,260.136822 L534.14026,249 L371.85974,249 L353.824618,260.136822 C353.309283,260.45153 352.844331,260.836851 352.444416,261.280641 C350.898096,263.04758 350.562904,265.519923 351.586334,267.609768 C352.609764,269.699612 354.804181,271.02381 357.20398,270.999676 L548.79602,270.999676 C551.195819,271.02381 553.390236,269.699612 554.413666,267.609768 C555.437096,265.519923 555.101904,263.04758 553.555584,261.280641 L553.555584,261.280641 Z" id="Path" fill="#045887" fill-rule="nonzero"></path>
                <path d="M357.756934,262.998969 L549.243066,262.998969 C551.075088,263.032832 552.823919,262.231197 554,260.81847 C553.600305,260.355245 553.13561,259.953049 552.62056,259.624558 L534.595408,248 L372.404592,248 L354.37944,259.624558 C353.86439,259.953049 353.399695,260.355245 353,260.81847 C354.176081,262.231197 355.924912,263.032832 357.756934,262.998969 L357.756934,262.998969 Z" id="Path" fill="#044674" fill-rule="nonzero"></path>
                <path d="M467.879862,185.719188 L476.101592,185.719188 C477.236659,188.238671 477.873702,190.946924 477.978828,193.699855 L468.536189,193.699855 C468.510012,191.027741 468.290685,188.36082 467.879862,185.719188 L467.879862,185.719188 Z M464.28065,174.440954 C468.996677,176.310232 472.896899,179.741746 475.304119,184.139681 L467.611686,184.139681 C467.008352,180.759772 465.88518,177.489516 464.28065,174.440954 L464.28065,174.440954 Z M457.385688,184.139681 L457.385688,173 C459.057352,173.070818 460.715063,173.33118 462.325784,173.775898 C464.148345,176.995936 465.403396,180.49519 466.037912,184.125826 L457.385688,184.139681 Z M446.919744,203.266957 C446.506577,200.627705 446.282547,197.963251 446.249302,195.293217 L455.797801,195.293217 L455.797801,203.266957 L446.919744,203.266957 Z M446.919744,185.719188 L455.811915,185.719188 L455.811915,193.699855 L446.242245,193.699855 C446.270211,191.027552 446.4919,188.360592 446.905629,185.719188 L446.919744,185.719188 Z M450.907107,173.748188 C452.518057,173.308751 454.17624,173.057616 455.847202,173 L455.847202,184.125826 L447.173806,184.125826 C447.806794,180.48505 449.064362,176.976059 450.892992,173.748188 L450.907107,173.748188 Z M437.660594,184.139681 C440.12595,179.675887 444.128383,176.218435 448.95224,174.385532 C447.332815,177.450564 446.197727,180.73956 445.585918,184.139681 L437.660594,184.139681 Z M444.661415,193.71371 L435.007057,193.71371 C435.10035,190.962951 435.725426,188.254666 436.849007,185.733043 L445.317742,185.733043 C444.902599,188.36974 444.678556,191.032028 444.6473,193.699855 L444.661415,193.71371 Z M445.367143,203.280812 L436.912523,203.280812 C435.757883,200.768594 435.10848,198.061083 435,195.307073 L444.654357,195.307073 C444.68009,197.973129 444.90654,200.633672 445.331856,203.266957 L445.367143,203.280812 Z M445.621205,204.874174 C446.22724,208.286135 447.372566,211.58421 449.015756,214.649106 C444.183542,212.818936 440.178142,209.351548 437.72411,204.874174 L445.621205,204.874174 Z M455.833087,204.874174 L455.833087,216 C454.193351,215.946615 452.565859,215.70244 450.984737,215.272595 C449.132239,212.047818 447.864266,208.531757 447.237322,204.881102 L455.833087,204.874174 Z M466.023798,204.874174 C465.39605,208.52165 464.135701,212.036427 462.297555,215.265668 C460.706256,215.693955 459.069884,215.940365 457.420975,216 L457.420975,204.91574 L466.023798,204.874174 Z M457.420975,195.307073 L466.969473,195.307073 C466.942972,197.977415 466.718902,200.642341 466.299032,203.280812 L457.385688,203.280812 L457.420975,195.307073 Z M466.97653,193.71371 L457.385688,193.71371 L457.385688,185.719188 L466.27786,185.719188 C466.69159,188.360592 466.913278,191.027552 466.941244,193.699855 L466.97653,193.71371 Z M468.564418,195.307073 L478,195.307073 C477.88387,198.060058 477.234804,200.76616 476.087477,203.280812 L467.85869,203.280812 C468.279242,200.637768 468.503314,197.968188 468.529132,195.293217 L468.564418,195.307073 Z M475.290005,204.860319 C472.88604,209.273635 468.968505,212.709384 464.231249,214.559046 C465.862252,211.518465 466.998119,208.24591 467.597571,204.860319 L475.290005,204.860319 Z" id="Shape" fill="#0B5D7F" fill-rule="evenodd"></path>
            </g>
        </g>
    </g>
</svg>