<?xml version="1.0" encoding="UTF-8"?>
<svg width="24px" height="24px" viewBox="0 0 24 24" version="1.1" xmlns="http://www.w3.org/2000/svg" xmlns:xlink="http://www.w3.org/1999/xlink">
    <title>basic-authentication-api-key</title>
    <defs>
        <linearGradient x1="2.77555756e-15%" y1="100%" x2="100%" y2="2.77555756e-15%" id="linearGradient-1">
            <stop stop-color="#134E4A" offset="0%"></stop>
            <stop stop-color="#2DD4BF" offset="100%"></stop>
        </linearGradient>
    </defs>
    <g id="API-Style-Guide" stroke="none" stroke-width="1" fill="none" fill-rule="evenodd">
        <g id="basic-authentication-api-key">
            <rect id="Rectangle-Copy-8" fill="url(#linearGradient-1)" opacity="0" x="0" y="-1.95399252e-14" width="24" height="24" rx="2"></rect>
            <path d="M11.8142447,5.01744701 C11.0667999,5.33600925 7.10868473,6.90856614 6.39131268,7.22355865 C6.17281739,7.28022195 6.0039604,7.52333948 6.0039604,7.9589292 C6.0039604,10.8633528 6.13529261,12.2326012 6.77866496,13.8418936 C7.51095008,15.8737114 9.04196461,17.5189315 11.8142447,18.9894871 C11.8630754,19.020226 12.1527662,19.020226 12.2015969,18.9894871 C14.9971424,17.5063569 16.5349159,15.8667259 17.2371766,13.8418936 C17.896314,12.2437787 18.0118812,10.9415965 18.0118812,7.9589292 C18.0118812,7.52473658 17.8415229,7.28092067 17.6245289,7.22355865 L12.2015969,5.01744701 C12.1475042,4.99858477 11.9156098,4.99858477 11.8142447,5.01744701 Z" id="Combined-Shape" fill="#FCD34D" fill-rule="nonzero"></path>
        </g>
    </g>
</svg>