<?xml version="1.0" encoding="UTF-8"?>
<svg width="24px" height="24px" viewBox="0 0 24 24" version="1.1" xmlns="http://www.w3.org/2000/svg" xmlns:xlink="http://www.w3.org/1999/xlink">
    <title>client-credentials</title>
    <g id="API-Style-Guide" stroke="none" stroke-width="1" fill="none" fill-rule="evenodd">
        <g id="client-credentials">
            <g id="Rectangle">
                <rect x="0" y="-1.95399252e-14" width="24" height="24" rx="2"></rect>
            </g>
            <g id="Group" transform="translate(6, 5.0059)" fill-rule="nonzero">
                <path d="M10.5,0 L1.5,0 C0.67275,0 0,0.628644453 0,1.40165987 L0,12.6149388 C0,13.3879543 0.67275,14.0165987 1.5,14.0165987 L10.5,14.0165987 C11.32725,14.0165987 12,13.3879543 12,12.6149388 L12,1.40165987 C12,0.628644453 11.32725,0 10.5,0 Z" id="Shape" fill="#0EA5E9"></path>
                <path d="M3,2.00237125 L5,2.00237125 C5.552,2.00237125 6,2.4509024 6,3.00355687 C6,3.55621133 5.552,4.00474249 5,4.00474249 L3,4.00474249 C2.448,4.00474249 2,3.55621133 2,3.00355687 C2,2.4509024 2.448,2.00237125 3,2.00237125 Z" id="Path" fill="#7DD3FC"></path>
                <path d="M9,12.0142275 L3,12.0142275 C2.448,12.0142275 2,11.5656963 2,11.0130419 C2,10.4603874 2.448,10.0118562 3,10.0118562 L9,10.0118562 C9.552,10.0118562 10,10.4603874 10,11.0130419 C10,11.5656963 9.552,12.0142275 9,12.0142275 Z" id="Path" fill="#7DD3FC"></path>
                <path d="M9,9.0106706 L3,9.0106706 C2.448,9.0106706 2,8.56213945 2,8.00948498 C2,7.45683052 2.448,7.00829936 3,7.00829936 L9,7.00829936 C9.552,7.00829936 10,7.45683052 10,8.00948498 C10,8.56213945 9.552,9.0106706 9,9.0106706 Z" id="Path" fill="#7DD3FC"></path>
                <path d="M10,3.50414968 C10,3.78047691 9.776,4.00474249 9.5,4.00474249 L8.5,4.00474249 C8.224,4.00474249 8,3.78047691 8,3.50414968 L8,2.50296406 C8,2.22663683 8.224,2.00237125 8.5,2.00237125 L9.5,2.00237125 C9.776,2.00237125 10,2.22663683 10,2.50296406 L10,3.50414968 Z" id="Path" fill="#7DD3FC"></path>
            </g>
        </g>
    </g>
</svg>