<?xml version="1.0" encoding="UTF-8"?>
<svg width="24px" height="24px" viewBox="0 0 24 24" version="1.1" xmlns="http://www.w3.org/2000/svg" xmlns:xlink="http://www.w3.org/1999/xlink">
    <title>jwt-authentication</title>
    <g id="API-Style-Guide" stroke="none" stroke-width="1" fill="none" fill-rule="evenodd">
        <g id="Group-Copy-2">
            <rect id="Rectangle-Copy-10" opacity="0.343982515" x="0" y="-2.30926389e-14" width="24" height="24" rx="2"></rect>
            <g id="Group-Copy-3" transform="translate(5, 5.0059)">
                <path d="M6.31226932,7.71515426 C5.59945193,8.42752617 1.40266695,12.6247705 0.532287871,13.4948269 C1.2425483,14.2050672 2.66306892,14.2050672 3.37332927,13.4948269 C4.08358962,12.7845865 3.6422341,11.8051651 4.08358979,11.3641057 C4.79385047,10.6538646 5.50411099,11.3641048 6.21437134,10.6538637 C6.80305824,10.0652718 7.28330338,9.8560632 7.71501286,9.81663632 C8.02478206,9.78834593 8.29583635,9.84391663 8.4958369,9.89323159 C7.98740146,9.3863396 7.2595456,8.66031382 6.31226932,7.71515426 Z" id="Vector" fill="#BE123C" fill-rule="nonzero"></path>
                <path d="M7.70152656,0.000145799905 C11.0683038,0.328387866 13.698967,2.95912424 14.0273604,6.32566544 C14.0410654,6.46676637 13.0940143,7.43600672 11.1862073,9.23338651 C10.1208236,10.2987409 9.41063664,10.1211902 8.70041626,9.94363147 C8.63012631,9.92605873 8.55983569,9.90848533 8.4892006,9.89211724 L6.31226966,7.71519707 C5.77461708,8.25285304 5.27447481,8.75299813 4.81184286,9.21563234 L4.36171435,9.66576292 C3.92408927,10.1033899 3.52397451,10.5035059 3.16137006,10.8661111 L2.81126906,11.2162127 C2.69873653,11.3287453 2.59037182,11.4371101 2.48617492,11.541307 L1.91100729,12.1164739 C1.735956,12.2915246 1.57757595,12.4499039 1.43586716,12.5916117 L1.23580741,12.7916697 C1.17328864,12.8541879 1.11493768,12.9125381 1.06075453,12.9667205 L0.910708537,13.116764 C0.864861017,13.1626107 0.82318131,13.2042894 0.785669415,13.2418003 L0.532453461,13.4949988 C-0.177806973,12.7847438 -0.177961819,11.3641053 0.534855577,10.6517334 L3.37334232,7.81290528 C4.43882172,6.74567936 4.26113836,6.03452071 4.08355835,5.32377643 C3.90600811,4.61314987 3.7285612,3.90293768 4.79386335,2.83766522 C6.59134255,0.932328148 7.56056362,-0.0135116577 7.70152656,0.000145799905 Z M9.05635544,3.46504034 C8.24086299,3.46504034 7.57977575,4.12612759 7.57977575,4.94162003 C7.57977575,5.75711248 8.24086299,6.41819972 9.05635544,6.41819972 C9.87184788,6.41819972 10.5329351,5.75711248 10.5329351,4.94162003 C10.5329351,4.12612759 9.87184788,3.46504034 9.05635544,3.46504034 Z" id="Combined-Shape" fill="#F43F5E"></path>
            </g>
        </g>
    </g>
</svg>