<?xml version="1.0" encoding="UTF-8"?>
<svg width="24px" height="24px" viewBox="0 0 24 24" version="1.1" xmlns="http://www.w3.org/2000/svg" xmlns:xlink="http://www.w3.org/1999/xlink">
    <title>no-authentication-required</title>
    <g id="API-Style-Guide" stroke="none" stroke-width="1" fill="none" fill-rule="evenodd">
        <g id="no-authentication-required">
            <g id="lock-duotone-2" transform="translate(6, 5.0059)" fill-rule="nonzero">
                <g id="lock-duotone">
                    <path d="M6,1.6686427 C4.77222222,1.6686427 3.77777778,2.60203972 3.77777778,3.75444609 L3.77777778,5.00592811 L2,5.00592811 L2,3.75444609 C2,1.68167898 3.79166667,0 6,0 C7.93585676,0 9.55152486,1.29229087 9.92078138,3.00748319 C9.92270911,3.01656639 8.07929631,3.01656639 8.07859703,3.01483479 C7.76075763,2.22777846 6.95026602,1.6686427 6,1.6686427 Z" id="Path" fill="#5EEAD4"></path>
                    <path d="M0,6.80806223 C0,5.81407263 0.76875,5.00592811 1.71428571,5.00592811 L10.2857143,5.00592811 C11.23125,5.00592811 12,5.81407263 12,6.80806223 L12,12.2144646 C12,13.2084542 11.23125,14.0165987 10.2857143,14.0165987 L1.71428571,14.0165987 C0.76875,14.0165987 0,13.2084542 0,12.2144646 L0,6.80806223 Z" id="Path" fill="#14B8A6"></path>
                </g>
            </g>
            <rect id="Rectangle-Copy-9" opacity="0.339587984" x="0" y="0" width="24" height="24" rx="2"></rect>
        </g>
    </g>
</svg>