<?xml version="1.0" encoding="UTF-8" standalone="no"?><svg xmlns="http://www.w3.org/2000/svg" xmlns:xlink="http://www.w3.org/1999/xlink" contentScriptType="application/ecmascript" contentStyleType="text/css" height="2632px" preserveAspectRatio="none" style="width:1129px;height:2632px;" version="1.1" viewBox="0 0 1129 2632" width="1129px" zoomAndPan="magnify"><defs/><g><rect fill="#D8D8D8" height="40.4883" rx="4" ry="4" style="stroke: #979797; stroke-width: 1.0;" width="76" x="613.5" y="1480.4902"/><text fill="#000000" font-family="sans-serif" font-size="14" lengthAdjust="spacingAndGlyphs" textLength="52" x="625.5" y="1506.0254">Forums</text><line style="stroke: #CDCDCD; stroke-width: 1.0; stroke-dasharray: 5.0,5.0;" x1="97" x2="97" y1="44.4883" y2="2582.0527"/><line style="stroke: #CDCDCD; stroke-width: 1.0; stroke-dasharray: 5.0,5.0;" x1="573.5" x2="573.5" y1="44.4883" y2="2582.0527"/><line style="stroke: #CDCDCD; stroke-width: 1.0; stroke-dasharray: 5.0,5.0;" x1="651.5" x2="651.5" y1="1514.668" y2="2582.0527"/><line style="stroke: #CDCDCD; stroke-width: 1.0; stroke-dasharray: 5.0,5.0;" x1="929" x2="929" y1="44.4883" y2="2582.0527"/><line style="stroke: #CDCDCD; stroke-width: 1.0; stroke-dasharray: 5.0,5.0;" x1="1076" x2="1076" y1="44.4883" y2="2582.0527"/><rect fill="#D8D8D8" height="40.4883" rx="4" ry="4" style="stroke: #979797; stroke-width: 1.0;" width="79" x="58" y="3"/><text fill="#000000" font-family="sans-serif" font-size="14" lengthAdjust="spacingAndGlyphs" textLength="55" x="70" y="28.5352">Browser</text><rect fill="#D8D8D8" height="40.4883" rx="4" ry="4" style="stroke: #979797; stroke-width: 1.0;" width="79" x="58" y="2581.0527"/><text fill="#000000" font-family="sans-serif" font-size="14" lengthAdjust="spacingAndGlyphs" textLength="55" x="70" y="2606.5879">Browser</text><rect fill="#D8D8D8" height="40.4883" rx="4" ry="4" style="stroke: #979797; stroke-width: 1.0;" width="60" x="543.5" y="3"/><text fill="#000000" font-family="sans-serif" font-size="14" lengthAdjust="spacingAndGlyphs" textLength="36" x="555.5" y="28.5352">Store</text><rect fill="#D8D8D8" height="40.4883" rx="4" ry="4" style="stroke: #979797; stroke-width: 1.0;" width="60" x="543.5" y="2581.0527"/><text fill="#000000" font-family="sans-serif" font-size="14" lengthAdjust="spacingAndGlyphs" textLength="36" x="555.5" y="2606.5879">Store</text><rect fill="#D8D8D8" height="40.4883" rx="4" ry="4" style="stroke: #979797; stroke-width: 1.0;" width="76" x="613.5" y="2581.0527"/><text fill="#000000" font-family="sans-serif" font-size="14" lengthAdjust="spacingAndGlyphs" textLength="52" x="625.5" y="2606.5879">Forums</text><rect fill="#D8D8D8" height="40.4883" rx="4" ry="4" style="stroke: #979797; stroke-width: 1.0;" width="103" x="878" y="3"/><text fill="#000000" font-family="sans-serif" font-size="14" lengthAdjust="spacingAndGlyphs" textLength="79" x="890" y="28.5352">FusionAuth</text><rect fill="#D8D8D8" height="40.4883" rx="4" ry="4" style="stroke: #979797; stroke-width: 1.0;" width="103" x="878" y="2581.0527"/><text fill="#000000" font-family="sans-serif" font-size="14" lengthAdjust="spacingAndGlyphs" textLength="79" x="890" y="2606.5879">FusionAuth</text><rect fill="#D8D8D8" height="40.4883" rx="4" ry="4" style="stroke: #979797; stroke-width: 1.0;" width="71" x="1041" y="3"/><text fill="#000000" font-family="sans-serif" font-size="14" lengthAdjust="spacingAndGlyphs" textLength="47" x="1053" y="28.5352">Hacker</text><rect fill="#D8D8D8" height="40.4883" rx="4" ry="4" style="stroke: #979797; stroke-width: 1.0;" width="71" x="1041" y="2581.0527"/><text fill="#000000" font-family="sans-serif" font-size="14" lengthAdjust="spacingAndGlyphs" textLength="47" x="1053" y="2606.5879">Hacker</text><rect fill="#3F2C61" height="3" style="stroke: #3F2C61; stroke-width: 1.0;" width="1114" x="3" y="80.1436"/><line style="stroke: #FFFFFF; stroke-width: 0.5;" x1="3" x2="1117" y1="80.1436" y2="80.1436"/><line style="stroke: #FFFFFF; stroke-width: 0.5;" x1="3" x2="1117" y1="83.1436" y2="83.1436"/><rect fill="#3F2C61" height="33.3105" style="stroke: #FFFFFF; stroke-width: 1.0;" width="86" x="517" y="64.4883"/><text fill="#FFFFFF" font-family="sans-serif" font-size="13" font-weight="bold" lengthAdjust="spacingAndGlyphs" textLength="58" x="528" y="86.0566">Initialize</text><polygon fill="#56666F" points="561.5,135.1094,571.5,139.1094,561.5,143.1094,565.5,139.1094" style="stroke: #56666F; stroke-width: 1.0;"/><line style="stroke: #56666F; stroke-width: 1.0;" x1="97.5" x2="567.5" y1="139.1094" y2="139.1094"/><text fill="#000000" font-family="sans-serif" font-size="13" font-weight="bold" lengthAdjust="spacingAndGlyphs" textLength="9" x="109.5" y="129.3672">1</text><text fill="#000000" font-family="sans-serif" font-size="13" lengthAdjust="spacingAndGlyphs" textLength="35" x="132.5" y="129.3672">GET /</text><polygon fill="#56666F" points="108.5,174.4199,98.5,178.4199,108.5,182.4199,104.5,178.4199" style="stroke: #56666F; stroke-width: 1.0;"/><line style="stroke: #56666F; stroke-width: 1.0;" x1="102.5" x2="572.5" y1="178.4199" y2="178.4199"/><text fill="#000000" font-family="sans-serif" font-size="13" font-weight="bold" lengthAdjust="spacingAndGlyphs" textLength="9" x="119.5" y="168.6777">2</text><text fill="#000000" font-family="sans-serif" font-size="13" lengthAdjust="spacingAndGlyphs" textLength="260" x="142.5" y="168.6777">(HTML, CSS &amp; JavaScript - with login link)</text><rect fill="#3F2C61" height="3" style="stroke: #3F2C61; stroke-width: 1.0;" width="1114" x="3" y="212.0752"/><line style="stroke: #FFFFFF; stroke-width: 0.5;" x1="3" x2="1117" y1="212.0752" y2="212.0752"/><line style="stroke: #FFFFFF; stroke-width: 0.5;" x1="3" x2="1117" y1="215.0752" y2="215.0752"/><rect fill="#3F2C61" height="33.3105" style="stroke: #FFFFFF; stroke-width: 1.0;" width="182" x="469" y="196.4199"/><text fill="#FFFFFF" font-family="sans-serif" font-size="13" font-weight="bold" lengthAdjust="spacingAndGlyphs" textLength="154" x="480" y="217.9883">Login (inside WebApp)</text><polygon fill="#56666F" points="561.5,267.041,571.5,271.041,561.5,275.041,565.5,271.041" style="stroke: #56666F; stroke-width: 1.0;"/><line style="stroke: #56666F; stroke-width: 1.0;" x1="97.5" x2="567.5" y1="271.041" y2="271.041"/><text fill="#000000" font-family="sans-serif" font-size="13" font-weight="bold" lengthAdjust="spacingAndGlyphs" textLength="9" x="109.5" y="261.2988">3</text><text fill="#000000" font-family="sans-serif" font-size="13" lengthAdjust="spacingAndGlyphs" textLength="67" x="132.5" y="261.2988">GET /login</text><polygon fill="#56666F" points="108.5,306.3516,98.5,310.3516,108.5,314.3516,104.5,310.3516" style="stroke: #56666F; stroke-width: 1.0;"/><line style="stroke: #56666F; stroke-width: 1.0;" x1="102.5" x2="572.5" y1="310.3516" y2="310.3516"/><text fill="#000000" font-family="sans-serif" font-size="13" font-weight="bold" lengthAdjust="spacingAndGlyphs" textLength="9" x="119.5" y="300.6094">4</text><text fill="#000000" font-family="sans-serif" font-size="13" lengthAdjust="spacingAndGlyphs" textLength="117" x="142.5" y="300.6094">(Login form HTML)</text><polygon fill="#56666F" points="561.5,345.6621,571.5,349.6621,561.5,353.6621,565.5,349.6621" style="stroke: #56666F; stroke-width: 1.0;"/><line style="stroke: #56666F; stroke-width: 1.0;" x1="97.5" x2="567.5" y1="349.6621" y2="349.6621"/><text fill="#000000" font-family="sans-serif" font-size="13" font-weight="bold" lengthAdjust="spacingAndGlyphs" textLength="9" x="109.5" y="339.9199">5</text><text fill="#000000" font-family="sans-serif" font-size="13" lengthAdjust="spacingAndGlyphs" textLength="75" x="132.5" y="339.9199">POST /login</text><polygon fill="#56666F" points="917.5,384.9727,927.5,388.9727,917.5,392.9727,921.5,388.9727" style="stroke: #56666F; stroke-width: 1.0;"/><line style="stroke: #56666F; stroke-width: 1.0;" x1="573.5" x2="923.5" y1="388.9727" y2="388.9727"/><text fill="#000000" font-family="sans-serif" font-size="13" font-weight="bold" lengthAdjust="spacingAndGlyphs" textLength="9" x="585.5" y="379.2305">6</text><text fill="#000000" font-family="sans-serif" font-size="13" lengthAdjust="spacingAndGlyphs" textLength="101" x="608.5" y="379.2305">POST /api/login</text><polygon fill="#56666F" points="584.5,424.2832,574.5,428.2832,584.5,432.2832,580.5,428.2832" style="stroke: #56666F; stroke-width: 1.0;"/><line style="stroke: #56666F; stroke-width: 1.0;" x1="578.5" x2="928.5" y1="428.2832" y2="428.2832"/><text fill="#000000" font-family="sans-serif" font-size="13" font-weight="bold" lengthAdjust="spacingAndGlyphs" textLength="9" x="595.5" y="418.541">7</text><text fill="#000000" font-family="sans-serif" font-size="13" lengthAdjust="spacingAndGlyphs" textLength="188" x="618.5" y="418.541">(User, Refresh Token and JWT)</text><polygon fill="#56666F" points="108.5,478.9043,98.5,482.9043,108.5,486.9043,104.5,482.9043" style="stroke: #56666F; stroke-width: 1.0;"/><line style="stroke: #56666F; stroke-width: 1.0;" x1="102.5" x2="572.5" y1="482.9043" y2="482.9043"/><text fill="#000000" font-family="sans-serif" font-size="13" font-weight="bold" lengthAdjust="spacingAndGlyphs" textLength="9" x="119.5" y="465.5068">8</text><text fill="#000000" font-family="sans-serif" font-size="13" lengthAdjust="spacingAndGlyphs" textLength="188" x="142.5" y="457.8516">302 Location: /shopping-cart</text><text fill="#000000" font-family="sans-serif" font-size="13" lengthAdjust="spacingAndGlyphs" textLength="413" x="142.5" y="473.1621">[Refresh Token and JWT HttpOnly w/ domain: Store.Example.com]</text><rect fill="#3F2C61" height="3" style="stroke: #3F2C61; stroke-width: 1.0;" width="1114" x="3" y="516.5596"/><line style="stroke: #FFFFFF; stroke-width: 0.5;" x1="3" x2="1117" y1="516.5596" y2="516.5596"/><line style="stroke: #FFFFFF; stroke-width: 0.5;" x1="3" x2="1117" y1="519.5596" y2="519.5596"/><rect fill="#3F2C61" height="33.3105" style="stroke: #FFFFFF; stroke-width: 1.0;" width="155" x="482.5" y="500.9043"/><text fill="#FFFFFF" font-family="sans-serif" font-size="13" font-weight="bold" lengthAdjust="spacingAndGlyphs" textLength="127" x="493.5" y="522.4727">Shopping cart load</text><polygon fill="#56666F" points="561.5,586.8359,571.5,590.8359,561.5,594.8359,565.5,590.8359" style="stroke: #56666F; stroke-width: 1.0;"/><line style="stroke: #56666F; stroke-width: 1.0;" x1="97.5" x2="567.5" y1="590.8359" y2="590.8359"/><text fill="#000000" font-family="sans-serif" font-size="13" font-weight="bold" lengthAdjust="spacingAndGlyphs" textLength="9" x="109.5" y="573.4385">9</text><text fill="#000000" font-family="sans-serif" font-size="13" lengthAdjust="spacingAndGlyphs" textLength="126" x="132.5" y="565.7832">GET /shopping-cart</text><text fill="#000000" font-family="sans-serif" font-size="13" lengthAdjust="spacingAndGlyphs" textLength="410" x="132.5" y="581.0938">[Refresh token and JWT HttpOnly w/ domain: Store.Example.com]</text><polygon fill="#56666F" points="108.5,626.1465,98.5,630.1465,108.5,634.1465,104.5,630.1465" style="stroke: #56666F; stroke-width: 1.0;"/><line style="stroke: #56666F; stroke-width: 1.0;" x1="102.5" x2="572.5" y1="630.1465" y2="630.1465"/><text fill="#000000" font-family="sans-serif" font-size="13" font-weight="bold" lengthAdjust="spacingAndGlyphs" textLength="18" x="119.5" y="620.4043">10</text><text fill="#000000" font-family="sans-serif" font-size="13" lengthAdjust="spacingAndGlyphs" textLength="135" x="151.5" y="620.4043">(Shopping cart HTML)</text><path d="M42,647.1465 L42,674.1465 A4,4 0 0 0 46,678.1465 L149,678.1465 A4,4 0 0 0 153,674.1465 L153,653.1465 L143,643.1465 L46,643.1465 A4,4 0 0 0 42,647.1465 " fill="#EB8C52" style="stroke: #FFFFFF; stroke-width: 1.0;"/><path d="M143,643.1465 L143,651.1465 A2,2 0 0 0 145,653.1465 L153,653.1465 L143,643.1465 " fill="#EB8C52" style="stroke: #FFFFFF; stroke-width: 1.0;"/><text fill="#FFFFFF" font-family="sans-serif" font-size="13" font-style="italic" font-weight="bold" lengthAdjust="spacingAndGlyphs" textLength="80" x="53" y="665.7148">JWT expires</text><rect fill="#3F2C61" height="3" style="stroke: #3F2C61; stroke-width: 1.0;" width="1114" x="3" y="709.1123"/><line style="stroke: #FFFFFF; stroke-width: 0.5;" x1="3" x2="1117" y1="709.1123" y2="709.1123"/><line style="stroke: #FFFFFF; stroke-width: 0.5;" x1="3" x2="1117" y1="712.1123" y2="712.1123"/><rect fill="#3F2C61" height="33.3105" style="stroke: #FFFFFF; stroke-width: 1.0;" width="155" x="482.5" y="693.457"/><text fill="#FFFFFF" font-family="sans-serif" font-size="13" font-weight="bold" lengthAdjust="spacingAndGlyphs" textLength="127" x="493.5" y="715.0254">Shopping cart load</text><polygon fill="#56666F" points="561.5,779.3887,571.5,783.3887,561.5,787.3887,565.5,783.3887" style="stroke: #56666F; stroke-width: 1.0;"/><line style="stroke: #56666F; stroke-width: 1.0;" x1="97.5" x2="567.5" y1="783.3887" y2="783.3887"/><text fill="#000000" font-family="sans-serif" font-size="13" font-weight="bold" lengthAdjust="spacingAndGlyphs" textLength="18" x="109.5" y="765.9912">11</text><text fill="#000000" font-family="sans-serif" font-size="13" lengthAdjust="spacingAndGlyphs" textLength="126" x="141.5" y="758.3359">GET /shopping-cart</text><text fill="#000000" font-family="sans-serif" font-size="13" lengthAdjust="spacingAndGlyphs" textLength="410" x="141.5" y="773.6465">[Refresh token and JWT HttpOnly w/ domain: Store.Example.com]</text><polygon fill="#56666F" points="917.5,834.0098,927.5,838.0098,917.5,842.0098,921.5,838.0098" style="stroke: #56666F; stroke-width: 1.0;"/><line style="stroke: #56666F; stroke-width: 1.0;" x1="573.5" x2="923.5" y1="838.0098" y2="838.0098"/><text fill="#000000" font-family="sans-serif" font-size="13" font-weight="bold" lengthAdjust="spacingAndGlyphs" textLength="18" x="585.5" y="820.6123">12</text><text fill="#000000" font-family="sans-serif" font-size="13" lengthAdjust="spacingAndGlyphs" textLength="290" x="617.5" y="812.957">POST /oauth2/token or POST /api/jwt/refresh</text><text fill="#000000" font-family="sans-serif" font-size="13" lengthAdjust="spacingAndGlyphs" textLength="244" x="617.5" y="828.2676">(grant_type=refresh and refresh token)</text><polygon fill="#56666F" points="584.5,873.3203,574.5,877.3203,584.5,881.3203,580.5,877.3203" style="stroke: #56666F; stroke-width: 1.0;"/><line style="stroke: #56666F; stroke-width: 1.0;" x1="578.5" x2="928.5" y1="877.3203" y2="877.3203"/><text fill="#000000" font-family="sans-serif" font-size="13" font-weight="bold" lengthAdjust="spacingAndGlyphs" textLength="18" x="595.5" y="867.5781">13</text><text fill="#000000" font-family="sans-serif" font-size="13" lengthAdjust="spacingAndGlyphs" textLength="31" x="627.5" y="867.5781">(JWT)</text><polygon fill="#56666F" points="108.5,927.9414,98.5,931.9414,108.5,935.9414,104.5,931.9414" style="stroke: #56666F; stroke-width: 1.0;"/><line style="stroke: #56666F; stroke-width: 1.0;" x1="102.5" x2="572.5" y1="931.9414" y2="931.9414"/><text fill="#000000" font-family="sans-serif" font-size="13" font-weight="bold" lengthAdjust="spacingAndGlyphs" textLength="18" x="119.5" y="914.5439">14</text><text fill="#000000" font-family="sans-serif" font-size="13" lengthAdjust="spacingAndGlyphs" textLength="135" x="151.5" y="906.8887">(Shopping cart HTML)</text><text fill="#000000" font-family="sans-serif" font-size="13" lengthAdjust="spacingAndGlyphs" textLength="323" x="151.5" y="922.1992">[New JWT HttpOnly w/ domain: Store.Example.com]</text><path d="M8,948.9414 L8,975.9414 A4,4 0 0 0 12,979.9414 L183,979.9414 A4,4 0 0 0 187,975.9414 L187,954.9414 L177,944.9414 L12,944.9414 A4,4 0 0 0 8,948.9414 " fill="#EB8C52" style="stroke: #FFFFFF; stroke-width: 1.0;"/><path d="M177,944.9414 L177,952.9414 A2,2 0 0 0 179,954.9414 L187,954.9414 L177,944.9414 " fill="#EB8C52" style="stroke: #FFFFFF; stroke-width: 1.0;"/><text fill="#FFFFFF" font-family="sans-serif" font-size="13" font-style="italic" font-weight="bold" lengthAdjust="spacingAndGlyphs" textLength="148" x="19" y="967.5098">Refresh token expires</text><rect fill="#3F2C61" height="3" style="stroke: #3F2C61; stroke-width: 1.0;" width="1114" x="3" y="1010.9072"/><line style="stroke: #FFFFFF; stroke-width: 0.5;" x1="3" x2="1117" y1="1010.9072" y2="1010.9072"/><line style="stroke: #FFFFFF; stroke-width: 0.5;" x1="3" x2="1117" y1="1013.9072" y2="1013.9072"/><rect fill="#3F2C61" height="33.3105" style="stroke: #FFFFFF; stroke-width: 1.0;" width="87" x="516.5" y="995.252"/><text fill="#FFFFFF" font-family="sans-serif" font-size="13" font-weight="bold" lengthAdjust="spacingAndGlyphs" textLength="59" x="527.5" y="1016.8203">Re-login</text><polygon fill="#56666F" points="561.5,1081.1836,571.5,1085.1836,561.5,1089.1836,565.5,1085.1836" style="stroke: #56666F; stroke-width: 1.0;"/><line style="stroke: #56666F; stroke-width: 1.0;" x1="97.5" x2="567.5" y1="1085.1836" y2="1085.1836"/><text fill="#000000" font-family="sans-serif" font-size="13" font-weight="bold" lengthAdjust="spacingAndGlyphs" textLength="18" x="109.5" y="1067.7861">15</text><text fill="#000000" font-family="sans-serif" font-size="13" lengthAdjust="spacingAndGlyphs" textLength="126" x="141.5" y="1060.1309">GET /shopping-cart</text><text fill="#000000" font-family="sans-serif" font-size="13" lengthAdjust="spacingAndGlyphs" textLength="410" x="141.5" y="1075.4414">[Refresh token and JWT HttpOnly w/ domain: Store.Example.com]</text><polygon fill="#56666F" points="917.5,1135.8047,927.5,1139.8047,917.5,1143.8047,921.5,1139.8047" style="stroke: #56666F; stroke-width: 1.0;"/><line style="stroke: #56666F; stroke-width: 1.0;" x1="573.5" x2="923.5" y1="1139.8047" y2="1139.8047"/><text fill="#000000" font-family="sans-serif" font-size="13" font-weight="bold" lengthAdjust="spacingAndGlyphs" textLength="18" x="585.5" y="1122.4072">16</text><text fill="#000000" font-family="sans-serif" font-size="13" lengthAdjust="spacingAndGlyphs" textLength="290" x="617.5" y="1114.752">POST /oauth2/token or POST /api/jwt/refresh</text><text fill="#000000" font-family="sans-serif" font-size="13" lengthAdjust="spacingAndGlyphs" textLength="244" x="617.5" y="1130.0625">(grant_type=refresh and refresh token)</text><polygon fill="#EB8C52" points="584.5,1175.1152,574.5,1179.1152,584.5,1183.1152,580.5,1179.1152" style="stroke: #EB8C52; stroke-width: 1.0;"/><line style="stroke: #EB8C52; stroke-width: 1.0;" x1="578.5" x2="928.5" y1="1179.1152" y2="1179.1152"/><text fill="#000000" font-family="sans-serif" font-size="13" font-weight="bold" lengthAdjust="spacingAndGlyphs" textLength="18" x="595.5" y="1169.373">17</text><text fill="#EB8C52" font-family="sans-serif" font-size="13" lengthAdjust="spacingAndGlyphs" textLength="77" x="627.5" y="1169.373">404 Missing</text><polygon fill="#56666F" points="108.5,1214.4258,98.5,1218.4258,108.5,1222.4258,104.5,1218.4258" style="stroke: #56666F; stroke-width: 1.0;"/><line style="stroke: #56666F; stroke-width: 1.0;" x1="102.5" x2="572.5" y1="1218.4258" y2="1218.4258"/><text fill="#000000" font-family="sans-serif" font-size="13" font-weight="bold" lengthAdjust="spacingAndGlyphs" textLength="18" x="119.5" y="1208.6836">18</text><text fill="#000000" font-family="sans-serif" font-size="13" lengthAdjust="spacingAndGlyphs" textLength="129" x="151.5" y="1208.6836">302 Location: /login</text><line style="stroke: #56666F; stroke-width: 1.0;" x1="97.5" x2="139.5" y1="1257.7363" y2="1257.7363"/><line style="stroke: #56666F; stroke-width: 1.0;" x1="139.5" x2="139.5" y1="1257.7363" y2="1270.7363"/><line style="stroke: #56666F; stroke-width: 1.0;" x1="98.5" x2="139.5" y1="1270.7363" y2="1270.7363"/><polygon fill="#56666F" points="108.5,1266.7363,98.5,1270.7363,108.5,1274.7363,104.5,1270.7363" style="stroke: #56666F; stroke-width: 1.0;"/><text fill="#000000" font-family="sans-serif" font-size="13" font-weight="bold" lengthAdjust="spacingAndGlyphs" textLength="18" x="109.5" y="1247.9941">19</text><text fill="#000000" font-family="sans-serif" font-size="13" lengthAdjust="spacingAndGlyphs" textLength="131" x="141.5" y="1247.9941">Login same as above</text><path d="M62,1337.7363 L62,1364.7363 A4,4 0 0 0 66,1368.7363 L1107,1368.7363 A4,4 0 0 0 1111,1364.7363 L1111,1343.7363 L1101,1333.7363 L66,1333.7363 A4,4 0 0 0 62,1337.7363 " fill="#8B80A1" style="stroke: #FFFFFF; stroke-width: 1.0;"/><path d="M1101,1333.7363 L1101,1341.7363 A2,2 0 0 0 1103,1343.7363 L1111,1343.7363 L1101,1333.7363 " fill="#8B80A1" style="stroke: #FFFFFF; stroke-width: 1.0;"/><text fill="#FFFFFF" font-family="sans-serif" font-size="13" font-style="italic" lengthAdjust="spacingAndGlyphs" textLength="429" x="367.5" y="1356.3047">SSO login to forums - not provided by FusionAuth for this workflow</text><rect fill="#3F2C61" height="3" style="stroke: #3F2C61; stroke-width: 1.0;" width="1114" x="3" y="1449.7021"/><line style="stroke: #FFFFFF; stroke-width: 0.5;" x1="3" x2="1117" y1="1449.7021" y2="1449.7021"/><line style="stroke: #FFFFFF; stroke-width: 0.5;" x1="3" x2="1117" y1="1452.7021" y2="1452.7021"/><rect fill="#3F2C61" height="33.3105" style="stroke: #FFFFFF; stroke-width: 1.0;" width="86" x="517" y="1434.0469"/><text fill="#FFFFFF" font-family="sans-serif" font-size="13" font-weight="bold" lengthAdjust="spacingAndGlyphs" textLength="58" x="528" y="1455.6152">Initialize</text><polygon fill="#56666F" points="601.5,1519.9785,611.5,1523.9785,601.5,1527.9785,605.5,1523.9785" style="stroke: #56666F; stroke-width: 1.0;"/><line style="stroke: #56666F; stroke-width: 1.0;" x1="97.5" x2="607.5" y1="1523.9785" y2="1523.9785"/><text fill="#000000" font-family="sans-serif" font-size="13" font-weight="bold" lengthAdjust="spacingAndGlyphs" textLength="18" x="109.5" y="1506.5811">20</text><text fill="#000000" font-family="sans-serif" font-size="13" lengthAdjust="spacingAndGlyphs" textLength="35" x="141.5" y="1498.9258">GET /</text><text fill="#000000" font-family="sans-serif" font-size="13" lengthAdjust="spacingAndGlyphs" textLength="79" x="141.5" y="1514.2363">[No cookies]</text><rect fill="#D8D8D8" height="40.4883" rx="4" ry="4" style="stroke: #979797; stroke-width: 1.0;" width="76" x="613.5" y="1480.4902"/><text fill="#000000" font-family="sans-serif" font-size="14" lengthAdjust="spacingAndGlyphs" textLength="52" x="625.5" y="1506.0254">Forums</text><polygon fill="#56666F" points="108.5,1559.2891,98.5,1563.2891,108.5,1567.2891,104.5,1563.2891" style="stroke: #56666F; stroke-width: 1.0;"/><line style="stroke: #56666F; stroke-width: 1.0;" x1="102.5" x2="650.5" y1="1563.2891" y2="1563.2891"/><text fill="#000000" font-family="sans-serif" font-size="13" font-weight="bold" lengthAdjust="spacingAndGlyphs" textLength="18" x="119.5" y="1553.5469">21</text><text fill="#000000" font-family="sans-serif" font-size="13" lengthAdjust="spacingAndGlyphs" textLength="260" x="151.5" y="1553.5469">(HTML, CSS &amp; JavaScript - with login link)</text><rect fill="#3F2C61" height="3" style="stroke: #3F2C61; stroke-width: 1.0;" width="1114" x="3" y="1596.9443"/><line style="stroke: #FFFFFF; stroke-width: 0.5;" x1="3" x2="1117" y1="1596.9443" y2="1596.9443"/><line style="stroke: #FFFFFF; stroke-width: 0.5;" x1="3" x2="1117" y1="1599.9443" y2="1599.9443"/><rect fill="#3F2C61" height="33.3105" style="stroke: #FFFFFF; stroke-width: 1.0;" width="182" x="469" y="1581.2891"/><text fill="#FFFFFF" font-family="sans-serif" font-size="13" font-weight="bold" lengthAdjust="spacingAndGlyphs" textLength="154" x="480" y="1602.8574">Login (inside WebApp)</text><polygon fill="#56666F" points="639.5,1651.9102,649.5,1655.9102,639.5,1659.9102,643.5,1655.9102" style="stroke: #56666F; stroke-width: 1.0;"/><line style="stroke: #56666F; stroke-width: 1.0;" x1="97.5" x2="645.5" y1="1655.9102" y2="1655.9102"/><text fill="#000000" font-family="sans-serif" font-size="13" font-weight="bold" lengthAdjust="spacingAndGlyphs" textLength="18" x="109.5" y="1646.168">22</text><text fill="#000000" font-family="sans-serif" font-size="13" lengthAdjust="spacingAndGlyphs" textLength="67" x="141.5" y="1646.168">GET /login</text><polygon fill="#56666F" points="108.5,1691.2207,98.5,1695.2207,108.5,1699.2207,104.5,1695.2207" style="stroke: #56666F; stroke-width: 1.0;"/><line style="stroke: #56666F; stroke-width: 1.0;" x1="102.5" x2="650.5" y1="1695.2207" y2="1695.2207"/><text fill="#000000" font-family="sans-serif" font-size="13" font-weight="bold" lengthAdjust="spacingAndGlyphs" textLength="18" x="119.5" y="1685.4785">23</text><text fill="#000000" font-family="sans-serif" font-size="13" lengthAdjust="spacingAndGlyphs" textLength="117" x="151.5" y="1685.4785">(Login form HTML)</text><polygon fill="#56666F" points="639.5,1730.5313,649.5,1734.5313,639.5,1738.5313,643.5,1734.5313" style="stroke: #56666F; stroke-width: 1.0;"/><line style="stroke: #56666F; stroke-width: 1.0;" x1="97.5" x2="645.5" y1="1734.5313" y2="1734.5313"/><text fill="#000000" font-family="sans-serif" font-size="13" font-weight="bold" lengthAdjust="spacingAndGlyphs" textLength="18" x="109.5" y="1724.7891">24</text><text fill="#000000" font-family="sans-serif" font-size="13" lengthAdjust="spacingAndGlyphs" textLength="75" x="141.5" y="1724.7891">POST /login</text><polygon fill="#56666F" points="917.5,1769.8418,927.5,1773.8418,917.5,1777.8418,921.5,1773.8418" style="stroke: #56666F; stroke-width: 1.0;"/><line style="stroke: #56666F; stroke-width: 1.0;" x1="651.5" x2="923.5" y1="1773.8418" y2="1773.8418"/><text fill="#000000" font-family="sans-serif" font-size="13" font-weight="bold" lengthAdjust="spacingAndGlyphs" textLength="18" x="663.5" y="1764.0996">25</text><text fill="#000000" font-family="sans-serif" font-size="13" lengthAdjust="spacingAndGlyphs" textLength="101" x="695.5" y="1764.0996">POST /api/login</text><polygon fill="#56666F" points="662.5,1809.1523,652.5,1813.1523,662.5,1817.1523,658.5,1813.1523" style="stroke: #56666F; stroke-width: 1.0;"/><line style="stroke: #56666F; stroke-width: 1.0;" x1="656.5" x2="928.5" y1="1813.1523" y2="1813.1523"/><text fill="#000000" font-family="sans-serif" font-size="13" font-weight="bold" lengthAdjust="spacingAndGlyphs" textLength="18" x="673.5" y="1803.4102">26</text><text fill="#000000" font-family="sans-serif" font-size="13" lengthAdjust="spacingAndGlyphs" textLength="188" x="705.5" y="1803.4102">(User, Refresh Token and JWT)</text><polygon fill="#56666F" points="108.5,1863.7734,98.5,1867.7734,108.5,1871.7734,104.5,1867.7734" style="stroke: #56666F; stroke-width: 1.0;"/><line style="stroke: #56666F; stroke-width: 1.0;" x1="102.5" x2="650.5" y1="1867.7734" y2="1867.7734"/><text fill="#000000" font-family="sans-serif" font-size="13" font-weight="bold" lengthAdjust="spacingAndGlyphs" textLength="18" x="119.5" y="1850.376">27</text><text fill="#000000" font-family="sans-serif" font-size="13" lengthAdjust="spacingAndGlyphs" textLength="132" x="151.5" y="1842.7207">302 Location: /posts</text><text fill="#000000" font-family="sans-serif" font-size="13" lengthAdjust="spacingAndGlyphs" textLength="428" x="151.5" y="1858.0313">[Refresh Token and JWT HttpOnly w/ domain: Forums.Example.com]</text><rect fill="#3F2C61" height="3" style="stroke: #3F2C61; stroke-width: 1.0;" width="1114" x="3" y="1901.4287"/><line style="stroke: #FFFFFF; stroke-width: 0.5;" x1="3" x2="1117" y1="1901.4287" y2="1901.4287"/><line style="stroke: #FFFFFF; stroke-width: 0.5;" x1="3" x2="1117" y1="1904.4287" y2="1904.4287"/><rect fill="#3F2C61" height="33.3105" style="stroke: #FFFFFF; stroke-width: 1.0;" width="104" x="508" y="1885.7734"/><text fill="#FFFFFF" font-family="sans-serif" font-size="13" font-weight="bold" lengthAdjust="spacingAndGlyphs" textLength="76" x="519" y="1907.3418">Forum load</text><polygon fill="#56666F" points="639.5,1971.7051,649.5,1975.7051,639.5,1979.7051,643.5,1975.7051" style="stroke: #56666F; stroke-width: 1.0;"/><line style="stroke: #56666F; stroke-width: 1.0;" x1="97.5" x2="645.5" y1="1975.7051" y2="1975.7051"/><text fill="#000000" font-family="sans-serif" font-size="13" font-weight="bold" lengthAdjust="spacingAndGlyphs" textLength="18" x="109.5" y="1958.3076">28</text><text fill="#000000" font-family="sans-serif" font-size="13" lengthAdjust="spacingAndGlyphs" textLength="70" x="141.5" y="1950.6523">GET /posts</text><text fill="#000000" font-family="sans-serif" font-size="13" lengthAdjust="spacingAndGlyphs" textLength="425" x="141.5" y="1965.9629">[Refresh token and JWT HttpOnly w/ domain: Forums.Example.com]</text><polygon fill="#56666F" points="108.5,2011.0156,98.5,2015.0156,108.5,2019.0156,104.5,2015.0156" style="stroke: #56666F; stroke-width: 1.0;"/><line style="stroke: #56666F; stroke-width: 1.0;" x1="102.5" x2="650.5" y1="2015.0156" y2="2015.0156"/><text fill="#000000" font-family="sans-serif" font-size="13" font-weight="bold" lengthAdjust="spacingAndGlyphs" textLength="18" x="119.5" y="2005.2734">29</text><text fill="#000000" font-family="sans-serif" font-size="13" lengthAdjust="spacingAndGlyphs" textLength="127" x="151.5" y="2005.2734">(Forum posts HTML)</text><path d="M62,2082.0156 L62,2109.0156 A4,4 0 0 0 66,2113.0156 L1107,2113.0156 A4,4 0 0 0 1111,2109.0156 L1111,2088.0156 L1101,2078.0156 L66,2078.0156 A4,4 0 0 0 62,2082.0156 " fill="#8B80A1" style="stroke: #FFFFFF; stroke-width: 1.0;"/><path d="M1101,2078.0156 L1101,2086.0156 A2,2 0 0 0 1103,2088.0156 L1111,2088.0156 L1101,2078.0156 " fill="#8B80A1" style="stroke: #FFFFFF; stroke-width: 1.0;"/><text fill="#FFFFFF" font-family="sans-serif" font-size="13" font-style="italic" lengthAdjust="spacingAndGlyphs" textLength="91" x="536.5" y="2100.584">Attack vectors</text><rect fill="#3F2C61" height="3" style="stroke: #3F2C61; stroke-width: 1.0;" width="1114" x="3" y="2193.9814"/><line style="stroke: #FFFFFF; stroke-width: 0.5;" x1="3" x2="1117" y1="2193.9814" y2="2193.9814"/><line style="stroke: #FFFFFF; stroke-width: 0.5;" x1="3" x2="1117" y1="2196.9814" y2="2196.9814"/><rect fill="#3F2C61" height="33.3105" style="stroke: #FFFFFF; stroke-width: 1.0;" width="164" x="478" y="2178.3262"/><text fill="#FFFFFF" font-family="sans-serif" font-size="13" font-weight="bold" lengthAdjust="spacingAndGlyphs" textLength="136" x="489" y="2199.8945">Stolen refresh token</text><polygon fill="#56666F" points="584.5,2264.2578,574.5,2268.2578,584.5,2272.2578,580.5,2268.2578" style="stroke: #56666F; stroke-width: 1.0;"/><line style="stroke: #56666F; stroke-width: 1.0;" x1="578.5" x2="1075.5" y1="2268.2578" y2="2268.2578"/><text fill="#000000" font-family="sans-serif" font-size="13" font-weight="bold" lengthAdjust="spacingAndGlyphs" textLength="18" x="595.5" y="2250.8604">30</text><text fill="#000000" font-family="sans-serif" font-size="13" lengthAdjust="spacingAndGlyphs" textLength="126" x="627.5" y="2243.2051">GET /shopping-cart</text><text fill="#000000" font-family="sans-serif" font-size="13" lengthAdjust="spacingAndGlyphs" textLength="437" x="627.5" y="2258.5156">[Refresh token and bad JWT HttpOnly w/ domain: Store.Example.com]</text><polygon fill="#56666F" points="917.5,2318.8789,927.5,2322.8789,917.5,2326.8789,921.5,2322.8789" style="stroke: #56666F; stroke-width: 1.0;"/><line style="stroke: #56666F; stroke-width: 1.0;" x1="573.5" x2="923.5" y1="2322.8789" y2="2322.8789"/><text fill="#000000" font-family="sans-serif" font-size="13" font-weight="bold" lengthAdjust="spacingAndGlyphs" textLength="18" x="585.5" y="2305.4814">31</text><text fill="#000000" font-family="sans-serif" font-size="13" lengthAdjust="spacingAndGlyphs" textLength="290" x="617.5" y="2297.8262">POST /oauth2/token or POST /api/jwt/refresh</text><text fill="#000000" font-family="sans-serif" font-size="13" lengthAdjust="spacingAndGlyphs" textLength="244" x="617.5" y="2313.1367">(grant_type=refresh and refresh token)</text><polygon fill="#56666F" points="584.5,2358.1895,574.5,2362.1895,584.5,2366.1895,580.5,2362.1895" style="stroke: #56666F; stroke-width: 1.0;"/><line style="stroke: #56666F; stroke-width: 1.0;" x1="578.5" x2="928.5" y1="2362.1895" y2="2362.1895"/><text fill="#000000" font-family="sans-serif" font-size="13" font-weight="bold" lengthAdjust="spacingAndGlyphs" textLength="18" x="595.5" y="2352.4473">32</text><text fill="#000000" font-family="sans-serif" font-size="13" lengthAdjust="spacingAndGlyphs" textLength="31" x="627.5" y="2352.4473">(JWT)</text><polygon fill="#56666F" points="1064.5,2412.8105,1074.5,2416.8105,1064.5,2420.8105,1068.5,2416.8105" style="stroke: #56666F; stroke-width: 1.0;"/><line style="stroke: #56666F; stroke-width: 1.0;" x1="573.5" x2="1070.5" y1="2416.8105" y2="2416.8105"/><text fill="#000000" font-family="sans-serif" font-size="13" font-weight="bold" lengthAdjust="spacingAndGlyphs" textLength="18" x="585.5" y="2399.4131">33</text><text fill="#000000" font-family="sans-serif" font-size="13" lengthAdjust="spacingAndGlyphs" textLength="135" x="617.5" y="2391.7578">(Shopping cart HTML)</text><text fill="#000000" font-family="sans-serif" font-size="13" lengthAdjust="spacingAndGlyphs" textLength="323" x="617.5" y="2407.0684">[New JWT HttpOnly w/ domain: Store.Example.com]</text><rect fill="#3F2C61" height="3" style="stroke: #3F2C61; stroke-width: 1.0;" width="1114" x="3" y="2450.4658"/><line style="stroke: #FFFFFF; stroke-width: 0.5;" x1="3" x2="1117" y1="2450.4658" y2="2450.4658"/><line style="stroke: #FFFFFF; stroke-width: 0.5;" x1="3" x2="1117" y1="2453.4658" y2="2453.4658"/><rect fill="#3F2C61" height="33.3105" style="stroke: #FFFFFF; stroke-width: 1.0;" width="99" x="510.5" y="2434.8105"/><text fill="#FFFFFF" font-family="sans-serif" font-size="13" font-weight="bold" lengthAdjust="spacingAndGlyphs" textLength="71" x="521.5" y="2456.3789">Stolen JWT</text><polygon fill="#56666F" points="584.5,2520.7422,574.5,2524.7422,584.5,2528.7422,580.5,2524.7422" style="stroke: #56666F; stroke-width: 1.0;"/><line style="stroke: #56666F; stroke-width: 1.0;" x1="578.5" x2="1075.5" y1="2524.7422" y2="2524.7422"/><text fill="#000000" font-family="sans-serif" font-size="13" font-weight="bold" lengthAdjust="spacingAndGlyphs" textLength="18" x="595.5" y="2507.3447">34</text><text fill="#000000" font-family="sans-serif" font-size="13" lengthAdjust="spacingAndGlyphs" textLength="126" x="627.5" y="2499.6895">GET /shopping-cart</text><text fill="#000000" font-family="sans-serif" font-size="13" lengthAdjust="spacingAndGlyphs" textLength="292" x="627.5" y="2515">[JWT HttpOnly w/ domain: Store.Example.com]</text><polygon fill="#56666F" points="1064.5,2560.0527,1074.5,2564.0527,1064.5,2568.0527,1068.5,2564.0527" style="stroke: #56666F; stroke-width: 1.0;"/><line style="stroke: #56666F; stroke-width: 1.0;" x1="573.5" x2="1070.5" y1="2564.0527" y2="2564.0527"/><text fill="#000000" font-family="sans-serif" font-size="13" font-weight="bold" lengthAdjust="spacingAndGlyphs" textLength="18" x="585.5" y="2554.3105">35</text><text fill="#000000" font-family="sans-serif" font-size="13" lengthAdjust="spacingAndGlyphs" textLength="135" x="617.5" y="2554.3105">(Shopping cart HTML)</text></g></svg>