<?xml version="1.0" encoding="UTF-8" standalone="no"?><svg xmlns="http://www.w3.org/2000/svg" xmlns:xlink="http://www.w3.org/1999/xlink" contentScriptType="application/ecmascript" contentStyleType="text/css" height="2241px" preserveAspectRatio="none" style="width:1144px;height:2241px;" version="1.1" viewBox="0 0 1144 2241" width="1144px" zoomAndPan="magnify"><defs/><g><rect fill="#D8D8D8" height="40.4883" rx="4" ry="4" style="stroke: #979797; stroke-width: 1.0;" width="76" x="695.5" y="1189.3848"/><text fill="#000000" font-family="sans-serif" font-size="14" lengthAdjust="spacingAndGlyphs" textLength="52" x="707.5" y="1214.9199">Forums</text><line style="stroke: #CDCDCD; stroke-width: 1.0; stroke-dasharray: 5.0,5.0;" x1="75" x2="75" y1="44.4883" y2="2191.3945"/><line style="stroke: #CDCDCD; stroke-width: 1.0; stroke-dasharray: 5.0,5.0;" x1="470.5" x2="470.5" y1="44.4883" y2="2191.3945"/><line style="stroke: #CDCDCD; stroke-width: 1.0; stroke-dasharray: 5.0,5.0;" x1="733.5" x2="733.5" y1="1223.5625" y2="2191.3945"/><line style="stroke: #CDCDCD; stroke-width: 1.0; stroke-dasharray: 5.0,5.0;" x1="994" x2="994" y1="44.4883" y2="2191.3945"/><line style="stroke: #CDCDCD; stroke-width: 1.0; stroke-dasharray: 5.0,5.0;" x1="1091" x2="1091" y1="44.4883" y2="2191.3945"/><rect fill="#D8D8D8" height="40.4883" rx="4" ry="4" style="stroke: #979797; stroke-width: 1.0;" width="79" x="36" y="3"/><text fill="#000000" font-family="sans-serif" font-size="14" lengthAdjust="spacingAndGlyphs" textLength="55" x="48" y="28.5352">Browser</text><rect fill="#D8D8D8" height="40.4883" rx="4" ry="4" style="stroke: #979797; stroke-width: 1.0;" width="79" x="36" y="2190.3945"/><text fill="#000000" font-family="sans-serif" font-size="14" lengthAdjust="spacingAndGlyphs" textLength="55" x="48" y="2215.9297">Browser</text><rect fill="#D8D8D8" height="40.4883" rx="4" ry="4" style="stroke: #979797; stroke-width: 1.0;" width="60" x="440.5" y="3"/><text fill="#000000" font-family="sans-serif" font-size="14" lengthAdjust="spacingAndGlyphs" textLength="36" x="452.5" y="28.5352">Store</text><rect fill="#D8D8D8" height="40.4883" rx="4" ry="4" style="stroke: #979797; stroke-width: 1.0;" width="60" x="440.5" y="2190.3945"/><text fill="#000000" font-family="sans-serif" font-size="14" lengthAdjust="spacingAndGlyphs" textLength="36" x="452.5" y="2215.9297">Store</text><rect fill="#D8D8D8" height="40.4883" rx="4" ry="4" style="stroke: #979797; stroke-width: 1.0;" width="76" x="695.5" y="2190.3945"/><text fill="#000000" font-family="sans-serif" font-size="14" lengthAdjust="spacingAndGlyphs" textLength="52" x="707.5" y="2215.9297">Forums</text><rect fill="#D8D8D8" height="40.4883" rx="4" ry="4" style="stroke: #979797; stroke-width: 1.0;" width="103" x="943" y="3"/><text fill="#000000" font-family="sans-serif" font-size="14" lengthAdjust="spacingAndGlyphs" textLength="79" x="955" y="28.5352">FusionAuth</text><rect fill="#D8D8D8" height="40.4883" rx="4" ry="4" style="stroke: #979797; stroke-width: 1.0;" width="103" x="943" y="2190.3945"/><text fill="#000000" font-family="sans-serif" font-size="14" lengthAdjust="spacingAndGlyphs" textLength="79" x="955" y="2215.9297">FusionAuth</text><rect fill="#D8D8D8" height="40.4883" rx="4" ry="4" style="stroke: #979797; stroke-width: 1.0;" width="71" x="1056" y="3"/><text fill="#000000" font-family="sans-serif" font-size="14" lengthAdjust="spacingAndGlyphs" textLength="47" x="1068" y="28.5352">Hacker</text><rect fill="#D8D8D8" height="40.4883" rx="4" ry="4" style="stroke: #979797; stroke-width: 1.0;" width="71" x="1056" y="2190.3945"/><text fill="#000000" font-family="sans-serif" font-size="14" lengthAdjust="spacingAndGlyphs" textLength="47" x="1068" y="2215.9297">Hacker</text><rect fill="#3F2C61" height="3" style="stroke: #3F2C61; stroke-width: 1.0;" width="1129" x="3" y="80.1436"/><line style="stroke: #FFFFFF; stroke-width: 0.5;" x1="3" x2="1132" y1="80.1436" y2="80.1436"/><line style="stroke: #FFFFFF; stroke-width: 0.5;" x1="3" x2="1132" y1="83.1436" y2="83.1436"/><rect fill="#3F2C61" height="33.3105" style="stroke: #FFFFFF; stroke-width: 1.0;" width="86" x="524.5" y="64.4883"/><text fill="#FFFFFF" font-family="sans-serif" font-size="13" font-weight="bold" lengthAdjust="spacingAndGlyphs" textLength="58" x="535.5" y="86.0566">Initialize</text><polygon fill="#56666F" points="458.5,135.1094,468.5,139.1094,458.5,143.1094,462.5,139.1094" style="stroke: #56666F; stroke-width: 1.0;"/><line style="stroke: #56666F; stroke-width: 1.0;" x1="75.5" x2="464.5" y1="139.1094" y2="139.1094"/><text fill="#000000" font-family="sans-serif" font-size="13" font-weight="bold" lengthAdjust="spacingAndGlyphs" textLength="9" x="87.5" y="129.3672">1</text><text fill="#000000" font-family="sans-serif" font-size="13" lengthAdjust="spacingAndGlyphs" textLength="35" x="110.5" y="129.3672">GET /</text><polygon fill="#56666F" points="86.5,174.4199,76.5,178.4199,86.5,182.4199,82.5,178.4199" style="stroke: #56666F; stroke-width: 1.0;"/><line style="stroke: #56666F; stroke-width: 1.0;" x1="80.5" x2="469.5" y1="178.4199" y2="178.4199"/><text fill="#000000" font-family="sans-serif" font-size="13" font-weight="bold" lengthAdjust="spacingAndGlyphs" textLength="9" x="97.5" y="168.6777">2</text><text fill="#000000" font-family="sans-serif" font-size="13" lengthAdjust="spacingAndGlyphs" textLength="260" x="120.5" y="168.6777">(HTML, CSS &amp; JavaScript - with login link)</text><rect fill="#3F2C61" height="3" style="stroke: #3F2C61; stroke-width: 1.0;" width="1129" x="3" y="212.0752"/><line style="stroke: #FFFFFF; stroke-width: 0.5;" x1="3" x2="1132" y1="212.0752" y2="212.0752"/><line style="stroke: #FFFFFF; stroke-width: 0.5;" x1="3" x2="1132" y1="215.0752" y2="215.0752"/><rect fill="#3F2C61" height="33.3105" style="stroke: #FFFFFF; stroke-width: 1.0;" width="182" x="476.5" y="196.4199"/><text fill="#FFFFFF" font-family="sans-serif" font-size="13" font-weight="bold" lengthAdjust="spacingAndGlyphs" textLength="154" x="487.5" y="217.9883">Login (inside WebApp)</text><polygon fill="#56666F" points="458.5,267.041,468.5,271.041,458.5,275.041,462.5,271.041" style="stroke: #56666F; stroke-width: 1.0;"/><line style="stroke: #56666F; stroke-width: 1.0;" x1="75.5" x2="464.5" y1="271.041" y2="271.041"/><text fill="#000000" font-family="sans-serif" font-size="13" font-weight="bold" lengthAdjust="spacingAndGlyphs" textLength="9" x="87.5" y="261.2988">3</text><text fill="#000000" font-family="sans-serif" font-size="13" lengthAdjust="spacingAndGlyphs" textLength="67" x="110.5" y="261.2988">GET /login</text><polygon fill="#56666F" points="86.5,306.3516,76.5,310.3516,86.5,314.3516,82.5,310.3516" style="stroke: #56666F; stroke-width: 1.0;"/><line style="stroke: #56666F; stroke-width: 1.0;" x1="80.5" x2="469.5" y1="310.3516" y2="310.3516"/><text fill="#000000" font-family="sans-serif" font-size="13" font-weight="bold" lengthAdjust="spacingAndGlyphs" textLength="9" x="97.5" y="300.6094">4</text><text fill="#000000" font-family="sans-serif" font-size="13" lengthAdjust="spacingAndGlyphs" textLength="117" x="120.5" y="300.6094">(Login form HTML)</text><polygon fill="#56666F" points="458.5,345.6621,468.5,349.6621,458.5,353.6621,462.5,349.6621" style="stroke: #56666F; stroke-width: 1.0;"/><line style="stroke: #56666F; stroke-width: 1.0;" x1="75.5" x2="464.5" y1="349.6621" y2="349.6621"/><text fill="#000000" font-family="sans-serif" font-size="13" font-weight="bold" lengthAdjust="spacingAndGlyphs" textLength="9" x="87.5" y="339.9199">5</text><text fill="#000000" font-family="sans-serif" font-size="13" lengthAdjust="spacingAndGlyphs" textLength="75" x="110.5" y="339.9199">POST /login</text><polygon fill="#56666F" points="982.5,384.9727,992.5,388.9727,982.5,392.9727,986.5,388.9727" style="stroke: #56666F; stroke-width: 1.0;"/><line style="stroke: #56666F; stroke-width: 1.0;" x1="470.5" x2="988.5" y1="388.9727" y2="388.9727"/><text fill="#000000" font-family="sans-serif" font-size="13" font-weight="bold" lengthAdjust="spacingAndGlyphs" textLength="9" x="482.5" y="379.2305">6</text><text fill="#000000" font-family="sans-serif" font-size="13" lengthAdjust="spacingAndGlyphs" textLength="101" x="505.5" y="379.2305">POST /api/login</text><polygon fill="#56666F" points="481.5,424.2832,471.5,428.2832,481.5,432.2832,477.5,428.2832" style="stroke: #56666F; stroke-width: 1.0;"/><line style="stroke: #56666F; stroke-width: 1.0;" x1="475.5" x2="993.5" y1="428.2832" y2="428.2832"/><text fill="#000000" font-family="sans-serif" font-size="13" font-weight="bold" lengthAdjust="spacingAndGlyphs" textLength="9" x="492.5" y="418.541">7</text><text fill="#000000" font-family="sans-serif" font-size="13" lengthAdjust="spacingAndGlyphs" textLength="188" x="515.5" y="418.541">(User, Refresh Token and JWT)</text><line style="stroke: #56666F; stroke-width: 1.0;" x1="470.5" x2="512.5" y1="467.5938" y2="467.5938"/><line style="stroke: #56666F; stroke-width: 1.0;" x1="512.5" x2="512.5" y1="467.5938" y2="480.5938"/><line style="stroke: #56666F; stroke-width: 1.0;" x1="471.5" x2="512.5" y1="480.5938" y2="480.5938"/><polygon fill="#56666F" points="481.5,476.5938,471.5,480.5938,481.5,484.5938,477.5,480.5938" style="stroke: #56666F; stroke-width: 1.0;"/><text fill="#000000" font-family="sans-serif" font-size="13" font-weight="bold" lengthAdjust="spacingAndGlyphs" textLength="9" x="482.5" y="457.8516">8</text><text fill="#000000" font-family="sans-serif" font-size="13" lengthAdjust="spacingAndGlyphs" textLength="216" x="505.5" y="457.8516">Create session and store User in it</text><polygon fill="#56666F" points="86.5,531.2148,76.5,535.2148,86.5,539.2148,82.5,535.2148" style="stroke: #56666F; stroke-width: 1.0;"/><line style="stroke: #56666F; stroke-width: 1.0;" x1="80.5" x2="469.5" y1="535.2148" y2="535.2148"/><text fill="#000000" font-family="sans-serif" font-size="13" font-weight="bold" lengthAdjust="spacingAndGlyphs" textLength="9" x="97.5" y="517.8174">9</text><text fill="#000000" font-family="sans-serif" font-size="13" lengthAdjust="spacingAndGlyphs" textLength="188" x="120.5" y="510.1621">302 Location: /shopping-cart</text><text fill="#000000" font-family="sans-serif" font-size="13" lengthAdjust="spacingAndGlyphs" textLength="322" x="120.5" y="525.4727">[SesionId HttpOnly w/ domain: Store.Example.com]</text><rect fill="#3F2C61" height="3" style="stroke: #3F2C61; stroke-width: 1.0;" width="1129" x="3" y="568.8701"/><line style="stroke: #FFFFFF; stroke-width: 0.5;" x1="3" x2="1132" y1="568.8701" y2="568.8701"/><line style="stroke: #FFFFFF; stroke-width: 0.5;" x1="3" x2="1132" y1="571.8701" y2="571.8701"/><rect fill="#3F2C61" height="33.3105" style="stroke: #FFFFFF; stroke-width: 1.0;" width="155" x="490" y="553.2148"/><text fill="#FFFFFF" font-family="sans-serif" font-size="13" font-weight="bold" lengthAdjust="spacingAndGlyphs" textLength="127" x="501" y="574.7832">Shopping cart load</text><polygon fill="#56666F" points="458.5,639.1465,468.5,643.1465,458.5,647.1465,462.5,643.1465" style="stroke: #56666F; stroke-width: 1.0;"/><line style="stroke: #56666F; stroke-width: 1.0;" x1="75.5" x2="464.5" y1="643.1465" y2="643.1465"/><text fill="#000000" font-family="sans-serif" font-size="13" font-weight="bold" lengthAdjust="spacingAndGlyphs" textLength="18" x="87.5" y="625.749">10</text><text fill="#000000" font-family="sans-serif" font-size="13" lengthAdjust="spacingAndGlyphs" textLength="126" x="119.5" y="618.0938">GET /shopping-cart</text><text fill="#000000" font-family="sans-serif" font-size="13" lengthAdjust="spacingAndGlyphs" textLength="329" x="119.5" y="633.4043">[SessionId HttpOnly w/ domain: Store.Example.com]</text><line style="stroke: #56666F; stroke-width: 1.0;" x1="470.5" x2="512.5" y1="682.457" y2="682.457"/><line style="stroke: #56666F; stroke-width: 1.0;" x1="512.5" x2="512.5" y1="682.457" y2="695.457"/><line style="stroke: #56666F; stroke-width: 1.0;" x1="471.5" x2="512.5" y1="695.457" y2="695.457"/><polygon fill="#56666F" points="481.5,691.457,471.5,695.457,481.5,699.457,477.5,695.457" style="stroke: #56666F; stroke-width: 1.0;"/><text fill="#000000" font-family="sans-serif" font-size="13" font-weight="bold" lengthAdjust="spacingAndGlyphs" textLength="18" x="482.5" y="672.7148">11</text><text fill="#000000" font-family="sans-serif" font-size="13" lengthAdjust="spacingAndGlyphs" textLength="110" x="514.5" y="672.7148">Session extended</text><polygon fill="#56666F" points="86.5,730.7676,76.5,734.7676,86.5,738.7676,82.5,734.7676" style="stroke: #56666F; stroke-width: 1.0;"/><line style="stroke: #56666F; stroke-width: 1.0;" x1="80.5" x2="469.5" y1="734.7676" y2="734.7676"/><text fill="#000000" font-family="sans-serif" font-size="13" font-weight="bold" lengthAdjust="spacingAndGlyphs" textLength="18" x="97.5" y="725.0254">12</text><text fill="#000000" font-family="sans-serif" font-size="13" lengthAdjust="spacingAndGlyphs" textLength="135" x="129.5" y="725.0254">(Shopping cart HTML)</text><path d="M8,751.7676 L8,778.7676 A4,4 0 0 0 12,782.7676 L139,782.7676 A4,4 0 0 0 143,778.7676 L143,757.7676 L133,747.7676 L12,747.7676 A4,4 0 0 0 8,751.7676 " fill="#EB8C52" style="stroke: #FFFFFF; stroke-width: 1.0;"/><path d="M133,747.7676 L133,755.7676 A2,2 0 0 0 135,757.7676 L143,757.7676 L133,747.7676 " fill="#EB8C52" style="stroke: #FFFFFF; stroke-width: 1.0;"/><text fill="#FFFFFF" font-family="sans-serif" font-size="13" font-style="italic" font-weight="bold" lengthAdjust="spacingAndGlyphs" textLength="104" x="19" y="770.3359">Session expires</text><rect fill="#3F2C61" height="3" style="stroke: #3F2C61; stroke-width: 1.0;" width="1129" x="3" y="813.7334"/><line style="stroke: #FFFFFF; stroke-width: 0.5;" x1="3" x2="1132" y1="813.7334" y2="813.7334"/><line style="stroke: #FFFFFF; stroke-width: 0.5;" x1="3" x2="1132" y1="816.7334" y2="816.7334"/><rect fill="#3F2C61" height="33.3105" style="stroke: #FFFFFF; stroke-width: 1.0;" width="87" x="524" y="798.0781"/><text fill="#FFFFFF" font-family="sans-serif" font-size="13" font-weight="bold" lengthAdjust="spacingAndGlyphs" textLength="59" x="535" y="819.6465">Re-login</text><polygon fill="#56666F" points="458.5,884.0098,468.5,888.0098,458.5,892.0098,462.5,888.0098" style="stroke: #56666F; stroke-width: 1.0;"/><line style="stroke: #56666F; stroke-width: 1.0;" x1="75.5" x2="464.5" y1="888.0098" y2="888.0098"/><text fill="#000000" font-family="sans-serif" font-size="13" font-weight="bold" lengthAdjust="spacingAndGlyphs" textLength="18" x="87.5" y="870.6123">13</text><text fill="#000000" font-family="sans-serif" font-size="13" lengthAdjust="spacingAndGlyphs" textLength="126" x="119.5" y="862.957">GET /shopping-cart</text><text fill="#000000" font-family="sans-serif" font-size="13" lengthAdjust="spacingAndGlyphs" textLength="329" x="119.5" y="878.2676">[SessionId HttpOnly w/ domain: Store.Example.com]</text><polygon fill="#56666F" points="86.5,923.3203,76.5,927.3203,86.5,931.3203,82.5,927.3203" style="stroke: #56666F; stroke-width: 1.0;"/><line style="stroke: #56666F; stroke-width: 1.0;" x1="80.5" x2="469.5" y1="927.3203" y2="927.3203"/><text fill="#000000" font-family="sans-serif" font-size="13" font-weight="bold" lengthAdjust="spacingAndGlyphs" textLength="18" x="97.5" y="917.5781">14</text><text fill="#000000" font-family="sans-serif" font-size="13" lengthAdjust="spacingAndGlyphs" textLength="129" x="129.5" y="917.5781">302 Location: /login</text><line style="stroke: #56666F; stroke-width: 1.0;" x1="75.5" x2="117.5" y1="966.6309" y2="966.6309"/><line style="stroke: #56666F; stroke-width: 1.0;" x1="117.5" x2="117.5" y1="966.6309" y2="979.6309"/><line style="stroke: #56666F; stroke-width: 1.0;" x1="76.5" x2="117.5" y1="979.6309" y2="979.6309"/><polygon fill="#56666F" points="86.5,975.6309,76.5,979.6309,86.5,983.6309,82.5,979.6309" style="stroke: #56666F; stroke-width: 1.0;"/><text fill="#000000" font-family="sans-serif" font-size="13" font-weight="bold" lengthAdjust="spacingAndGlyphs" textLength="18" x="87.5" y="956.8887">15</text><text fill="#000000" font-family="sans-serif" font-size="13" lengthAdjust="spacingAndGlyphs" textLength="131" x="119.5" y="956.8887">Login same as above</text><path d="M40,1046.6309 L40,1073.6309 A4,4 0 0 0 44,1077.6309 L1122,1077.6309 A4,4 0 0 0 1126,1073.6309 L1126,1052.6309 L1116,1042.6309 L44,1042.6309 A4,4 0 0 0 40,1046.6309 " fill="#8B80A1" style="stroke: #FFFFFF; stroke-width: 1.0;"/><path d="M1116,1042.6309 L1116,1050.6309 A2,2 0 0 0 1118,1052.6309 L1126,1052.6309 L1116,1042.6309 " fill="#8B80A1" style="stroke: #FFFFFF; stroke-width: 1.0;"/><text fill="#FFFFFF" font-family="sans-serif" font-size="13" font-style="italic" lengthAdjust="spacingAndGlyphs" textLength="429" x="364" y="1065.1992">SSO login to forums - not provided by FusionAuth for this workflow</text><rect fill="#3F2C61" height="3" style="stroke: #3F2C61; stroke-width: 1.0;" width="1129" x="3" y="1158.5967"/><line style="stroke: #FFFFFF; stroke-width: 0.5;" x1="3" x2="1132" y1="1158.5967" y2="1158.5967"/><line style="stroke: #FFFFFF; stroke-width: 0.5;" x1="3" x2="1132" y1="1161.5967" y2="1161.5967"/><rect fill="#3F2C61" height="33.3105" style="stroke: #FFFFFF; stroke-width: 1.0;" width="86" x="524.5" y="1142.9414"/><text fill="#FFFFFF" font-family="sans-serif" font-size="13" font-weight="bold" lengthAdjust="spacingAndGlyphs" textLength="58" x="535.5" y="1164.5098">Initialize</text><polygon fill="#56666F" points="683.5,1228.873,693.5,1232.873,683.5,1236.873,687.5,1232.873" style="stroke: #56666F; stroke-width: 1.0;"/><line style="stroke: #56666F; stroke-width: 1.0;" x1="75.5" x2="689.5" y1="1232.873" y2="1232.873"/><text fill="#000000" font-family="sans-serif" font-size="13" font-weight="bold" lengthAdjust="spacingAndGlyphs" textLength="18" x="87.5" y="1215.4756">16</text><text fill="#000000" font-family="sans-serif" font-size="13" lengthAdjust="spacingAndGlyphs" textLength="35" x="119.5" y="1207.8203">GET /</text><text fill="#000000" font-family="sans-serif" font-size="13" lengthAdjust="spacingAndGlyphs" textLength="79" x="119.5" y="1223.1309">[No cookies]</text><rect fill="#D8D8D8" height="40.4883" rx="4" ry="4" style="stroke: #979797; stroke-width: 1.0;" width="76" x="695.5" y="1189.3848"/><text fill="#000000" font-family="sans-serif" font-size="14" lengthAdjust="spacingAndGlyphs" textLength="52" x="707.5" y="1214.9199">Forums</text><polygon fill="#56666F" points="86.5,1268.1836,76.5,1272.1836,86.5,1276.1836,82.5,1272.1836" style="stroke: #56666F; stroke-width: 1.0;"/><line style="stroke: #56666F; stroke-width: 1.0;" x1="80.5" x2="732.5" y1="1272.1836" y2="1272.1836"/><text fill="#000000" font-family="sans-serif" font-size="13" font-weight="bold" lengthAdjust="spacingAndGlyphs" textLength="18" x="97.5" y="1262.4414">17</text><text fill="#000000" font-family="sans-serif" font-size="13" lengthAdjust="spacingAndGlyphs" textLength="260" x="129.5" y="1262.4414">(HTML, CSS &amp; JavaScript - with login link)</text><rect fill="#3F2C61" height="3" style="stroke: #3F2C61; stroke-width: 1.0;" width="1129" x="3" y="1305.8389"/><line style="stroke: #FFFFFF; stroke-width: 0.5;" x1="3" x2="1132" y1="1305.8389" y2="1305.8389"/><line style="stroke: #FFFFFF; stroke-width: 0.5;" x1="3" x2="1132" y1="1308.8389" y2="1308.8389"/><rect fill="#3F2C61" height="33.3105" style="stroke: #FFFFFF; stroke-width: 1.0;" width="182" x="476.5" y="1290.1836"/><text fill="#FFFFFF" font-family="sans-serif" font-size="13" font-weight="bold" lengthAdjust="spacingAndGlyphs" textLength="154" x="487.5" y="1311.752">Login (inside WebApp)</text><polygon fill="#56666F" points="721.5,1360.8047,731.5,1364.8047,721.5,1368.8047,725.5,1364.8047" style="stroke: #56666F; stroke-width: 1.0;"/><line style="stroke: #56666F; stroke-width: 1.0;" x1="75.5" x2="727.5" y1="1364.8047" y2="1364.8047"/><text fill="#000000" font-family="sans-serif" font-size="13" font-weight="bold" lengthAdjust="spacingAndGlyphs" textLength="18" x="87.5" y="1355.0625">18</text><text fill="#000000" font-family="sans-serif" font-size="13" lengthAdjust="spacingAndGlyphs" textLength="67" x="119.5" y="1355.0625">GET /login</text><polygon fill="#56666F" points="86.5,1400.1152,76.5,1404.1152,86.5,1408.1152,82.5,1404.1152" style="stroke: #56666F; stroke-width: 1.0;"/><line style="stroke: #56666F; stroke-width: 1.0;" x1="80.5" x2="732.5" y1="1404.1152" y2="1404.1152"/><text fill="#000000" font-family="sans-serif" font-size="13" font-weight="bold" lengthAdjust="spacingAndGlyphs" textLength="18" x="97.5" y="1394.373">19</text><text fill="#000000" font-family="sans-serif" font-size="13" lengthAdjust="spacingAndGlyphs" textLength="117" x="129.5" y="1394.373">(Login form HTML)</text><polygon fill="#56666F" points="721.5,1439.4258,731.5,1443.4258,721.5,1447.4258,725.5,1443.4258" style="stroke: #56666F; stroke-width: 1.0;"/><line style="stroke: #56666F; stroke-width: 1.0;" x1="75.5" x2="727.5" y1="1443.4258" y2="1443.4258"/><text fill="#000000" font-family="sans-serif" font-size="13" font-weight="bold" lengthAdjust="spacingAndGlyphs" textLength="18" x="87.5" y="1433.6836">20</text><text fill="#000000" font-family="sans-serif" font-size="13" lengthAdjust="spacingAndGlyphs" textLength="75" x="119.5" y="1433.6836">POST /login</text><polygon fill="#56666F" points="982.5,1478.7363,992.5,1482.7363,982.5,1486.7363,986.5,1482.7363" style="stroke: #56666F; stroke-width: 1.0;"/><line style="stroke: #56666F; stroke-width: 1.0;" x1="733.5" x2="988.5" y1="1482.7363" y2="1482.7363"/><text fill="#000000" font-family="sans-serif" font-size="13" font-weight="bold" lengthAdjust="spacingAndGlyphs" textLength="18" x="745.5" y="1472.9941">21</text><text fill="#000000" font-family="sans-serif" font-size="13" lengthAdjust="spacingAndGlyphs" textLength="101" x="777.5" y="1472.9941">POST /api/login</text><polygon fill="#56666F" points="744.5,1518.0469,734.5,1522.0469,744.5,1526.0469,740.5,1522.0469" style="stroke: #56666F; stroke-width: 1.0;"/><line style="stroke: #56666F; stroke-width: 1.0;" x1="738.5" x2="993.5" y1="1522.0469" y2="1522.0469"/><text fill="#000000" font-family="sans-serif" font-size="13" font-weight="bold" lengthAdjust="spacingAndGlyphs" textLength="18" x="755.5" y="1512.3047">22</text><text fill="#000000" font-family="sans-serif" font-size="13" lengthAdjust="spacingAndGlyphs" textLength="188" x="787.5" y="1512.3047">(User, Refresh Token and JWT)</text><line style="stroke: #56666F; stroke-width: 1.0;" x1="733.5" x2="775.5" y1="1561.3574" y2="1561.3574"/><line style="stroke: #56666F; stroke-width: 1.0;" x1="775.5" x2="775.5" y1="1561.3574" y2="1574.3574"/><line style="stroke: #56666F; stroke-width: 1.0;" x1="734.5" x2="775.5" y1="1574.3574" y2="1574.3574"/><polygon fill="#56666F" points="744.5,1570.3574,734.5,1574.3574,744.5,1578.3574,740.5,1574.3574" style="stroke: #56666F; stroke-width: 1.0;"/><text fill="#000000" font-family="sans-serif" font-size="13" font-weight="bold" lengthAdjust="spacingAndGlyphs" textLength="18" x="745.5" y="1551.6152">23</text><text fill="#000000" font-family="sans-serif" font-size="13" lengthAdjust="spacingAndGlyphs" textLength="205" x="777.5" y="1551.6152">Create session and put User in it</text><polygon fill="#56666F" points="86.5,1624.9785,76.5,1628.9785,86.5,1632.9785,82.5,1628.9785" style="stroke: #56666F; stroke-width: 1.0;"/><line style="stroke: #56666F; stroke-width: 1.0;" x1="80.5" x2="732.5" y1="1628.9785" y2="1628.9785"/><text fill="#000000" font-family="sans-serif" font-size="13" font-weight="bold" lengthAdjust="spacingAndGlyphs" textLength="18" x="97.5" y="1611.5811">24</text><text fill="#000000" font-family="sans-serif" font-size="13" lengthAdjust="spacingAndGlyphs" textLength="132" x="129.5" y="1603.9258">302 Location: /posts</text><text fill="#000000" font-family="sans-serif" font-size="13" lengthAdjust="spacingAndGlyphs" textLength="344" x="129.5" y="1619.2363">[SessionId HttpOnly w/ domain: Forums.Example.com]</text><rect fill="#3F2C61" height="3" style="stroke: #3F2C61; stroke-width: 1.0;" width="1129" x="3" y="1662.6338"/><line style="stroke: #FFFFFF; stroke-width: 0.5;" x1="3" x2="1132" y1="1662.6338" y2="1662.6338"/><line style="stroke: #FFFFFF; stroke-width: 0.5;" x1="3" x2="1132" y1="1665.6338" y2="1665.6338"/><rect fill="#3F2C61" height="33.3105" style="stroke: #FFFFFF; stroke-width: 1.0;" width="104" x="515.5" y="1646.9785"/><text fill="#FFFFFF" font-family="sans-serif" font-size="13" font-weight="bold" lengthAdjust="spacingAndGlyphs" textLength="76" x="526.5" y="1668.5469">Forum load</text><polygon fill="#56666F" points="721.5,1732.9102,731.5,1736.9102,721.5,1740.9102,725.5,1736.9102" style="stroke: #56666F; stroke-width: 1.0;"/><line style="stroke: #56666F; stroke-width: 1.0;" x1="75.5" x2="727.5" y1="1736.9102" y2="1736.9102"/><text fill="#000000" font-family="sans-serif" font-size="13" font-weight="bold" lengthAdjust="spacingAndGlyphs" textLength="18" x="87.5" y="1719.5127">25</text><text fill="#000000" font-family="sans-serif" font-size="13" lengthAdjust="spacingAndGlyphs" textLength="70" x="119.5" y="1711.8574">GET /posts</text><text fill="#000000" font-family="sans-serif" font-size="13" lengthAdjust="spacingAndGlyphs" textLength="344" x="119.5" y="1727.168">[SessionId HttpOnly w/ domain: Forums.Example.com]</text><line style="stroke: #56666F; stroke-width: 1.0;" x1="733.5" x2="775.5" y1="1776.2207" y2="1776.2207"/><line style="stroke: #56666F; stroke-width: 1.0;" x1="775.5" x2="775.5" y1="1776.2207" y2="1789.2207"/><line style="stroke: #56666F; stroke-width: 1.0;" x1="734.5" x2="775.5" y1="1789.2207" y2="1789.2207"/><polygon fill="#56666F" points="744.5,1785.2207,734.5,1789.2207,744.5,1793.2207,740.5,1789.2207" style="stroke: #56666F; stroke-width: 1.0;"/><text fill="#000000" font-family="sans-serif" font-size="13" font-weight="bold" lengthAdjust="spacingAndGlyphs" textLength="18" x="745.5" y="1766.4785">26</text><text fill="#000000" font-family="sans-serif" font-size="13" lengthAdjust="spacingAndGlyphs" textLength="110" x="777.5" y="1766.4785">Session extended</text><polygon fill="#56666F" points="86.5,1824.5313,76.5,1828.5313,86.5,1832.5313,82.5,1828.5313" style="stroke: #56666F; stroke-width: 1.0;"/><line style="stroke: #56666F; stroke-width: 1.0;" x1="80.5" x2="732.5" y1="1828.5313" y2="1828.5313"/><text fill="#000000" font-family="sans-serif" font-size="13" font-weight="bold" lengthAdjust="spacingAndGlyphs" textLength="18" x="97.5" y="1818.7891">27</text><text fill="#000000" font-family="sans-serif" font-size="13" lengthAdjust="spacingAndGlyphs" textLength="127" x="129.5" y="1818.7891">(Forum posts HTML)</text><path d="M40,1895.5313 L40,1922.5313 A4,4 0 0 0 44,1926.5313 L1122,1926.5313 A4,4 0 0 0 1126,1922.5313 L1126,1901.5313 L1116,1891.5313 L44,1891.5313 A4,4 0 0 0 40,1895.5313 " fill="#8B80A1" style="stroke: #FFFFFF; stroke-width: 1.0;"/><path d="M1116,1891.5313 L1116,1899.5313 A2,2 0 0 0 1118,1901.5313 L1126,1901.5313 L1116,1891.5313 " fill="#8B80A1" style="stroke: #FFFFFF; stroke-width: 1.0;"/><text fill="#FFFFFF" font-family="sans-serif" font-size="13" font-style="italic" lengthAdjust="spacingAndGlyphs" textLength="91" x="533" y="1914.0996">Attack vectors</text><rect fill="#3F2C61" height="3" style="stroke: #3F2C61; stroke-width: 1.0;" width="1129" x="3" y="2007.4971"/><line style="stroke: #FFFFFF; stroke-width: 0.5;" x1="3" x2="1132" y1="2007.4971" y2="2007.4971"/><line style="stroke: #FFFFFF; stroke-width: 0.5;" x1="3" x2="1132" y1="2010.4971" y2="2010.4971"/><rect fill="#3F2C61" height="33.3105" style="stroke: #FFFFFF; stroke-width: 1.0;" width="140" x="497.5" y="1991.8418"/><text fill="#FFFFFF" font-family="sans-serif" font-size="13" font-weight="bold" lengthAdjust="spacingAndGlyphs" textLength="112" x="508.5" y="2013.4102">Stolen session id</text><polygon fill="#56666F" points="481.5,2077.7734,471.5,2081.7734,481.5,2085.7734,477.5,2081.7734" style="stroke: #56666F; stroke-width: 1.0;"/><line style="stroke: #56666F; stroke-width: 1.0;" x1="475.5" x2="1090.5" y1="2081.7734" y2="2081.7734"/><text fill="#000000" font-family="sans-serif" font-size="13" font-weight="bold" lengthAdjust="spacingAndGlyphs" textLength="18" x="492.5" y="2064.376">28</text><text fill="#000000" font-family="sans-serif" font-size="13" lengthAdjust="spacingAndGlyphs" textLength="126" x="524.5" y="2056.7207">GET /shopping-cart</text><text fill="#000000" font-family="sans-serif" font-size="13" lengthAdjust="spacingAndGlyphs" textLength="329" x="524.5" y="2072.0313">[SessionId HttpOnly w/ domain: Store.Example.com]</text><line style="stroke: #56666F; stroke-width: 1.0;" x1="470.5" x2="512.5" y1="2121.084" y2="2121.084"/><line style="stroke: #56666F; stroke-width: 1.0;" x1="512.5" x2="512.5" y1="2121.084" y2="2134.084"/><line style="stroke: #56666F; stroke-width: 1.0;" x1="471.5" x2="512.5" y1="2134.084" y2="2134.084"/><polygon fill="#56666F" points="481.5,2130.084,471.5,2134.084,481.5,2138.084,477.5,2134.084" style="stroke: #56666F; stroke-width: 1.0;"/><text fill="#000000" font-family="sans-serif" font-size="13" font-weight="bold" lengthAdjust="spacingAndGlyphs" textLength="18" x="482.5" y="2111.3418">29</text><text fill="#000000" font-family="sans-serif" font-size="13" lengthAdjust="spacingAndGlyphs" textLength="110" x="514.5" y="2111.3418">Session extended</text><polygon fill="#56666F" points="1079.5,2169.3945,1089.5,2173.3945,1079.5,2177.3945,1083.5,2173.3945" style="stroke: #56666F; stroke-width: 1.0;"/><line style="stroke: #56666F; stroke-width: 1.0;" x1="470.5" x2="1085.5" y1="2173.3945" y2="2173.3945"/><text fill="#000000" font-family="sans-serif" font-size="13" font-weight="bold" lengthAdjust="spacingAndGlyphs" textLength="18" x="482.5" y="2163.6523">30</text><text fill="#000000" font-family="sans-serif" font-size="13" lengthAdjust="spacingAndGlyphs" textLength="135" x="514.5" y="2163.6523">(Shopping cart HTML)</text></g></svg>