<?xml version="1.0" encoding="UTF-8" standalone="no"?><svg xmlns="http://www.w3.org/2000/svg" xmlns:xlink="http://www.w3.org/1999/xlink" contentScriptType="application/ecmascript" contentStyleType="text/css" height="2977px" preserveAspectRatio="none" style="width:1338px;height:2977px;" version="1.1" viewBox="0 0 1338 2977" width="1338px" zoomAndPan="magnify"><defs/><g><rect fill="#D8D8D8" height="40.4883" rx="4" ry="4" style="stroke: #979797; stroke-width: 1.0;" width="76" x="878.5" y="1668.043"/><text fill="#000000" font-family="sans-serif" font-size="14" lengthAdjust="spacingAndGlyphs" textLength="52" x="890.5" y="1693.5781">Forums</text><line style="stroke: #CDCDCD; stroke-width: 1.0; stroke-dasharray: 5.0,5.0;" x1="102" x2="102" y1="44.4883" y2="2926.5371"/><line style="stroke: #CDCDCD; stroke-width: 1.0; stroke-dasharray: 5.0,5.0;" x1="615.5" x2="615.5" y1="44.4883" y2="2926.5371"/><line style="stroke: #CDCDCD; stroke-width: 1.0; stroke-dasharray: 5.0,5.0;" x1="916.5" x2="916.5" y1="1702.2207" y2="2926.5371"/><line style="stroke: #CDCDCD; stroke-width: 1.0; stroke-dasharray: 5.0,5.0;" x1="1188" x2="1188" y1="44.4883" y2="2926.5371"/><line style="stroke: #CDCDCD; stroke-width: 1.0; stroke-dasharray: 5.0,5.0;" x1="1285" x2="1285" y1="44.4883" y2="2926.5371"/><rect fill="#D8D8D8" height="40.4883" rx="4" ry="4" style="stroke: #979797; stroke-width: 1.0;" width="79" x="63" y="3"/><text fill="#000000" font-family="sans-serif" font-size="14" lengthAdjust="spacingAndGlyphs" textLength="55" x="75" y="28.5352">Browser</text><rect fill="#D8D8D8" height="40.4883" rx="4" ry="4" style="stroke: #979797; stroke-width: 1.0;" width="79" x="63" y="2925.5371"/><text fill="#000000" font-family="sans-serif" font-size="14" lengthAdjust="spacingAndGlyphs" textLength="55" x="75" y="2951.0723">Browser</text><rect fill="#D8D8D8" height="40.4883" rx="4" ry="4" style="stroke: #979797; stroke-width: 1.0;" width="60" x="585.5" y="3"/><text fill="#000000" font-family="sans-serif" font-size="14" lengthAdjust="spacingAndGlyphs" textLength="36" x="597.5" y="28.5352">Store</text><rect fill="#D8D8D8" height="40.4883" rx="4" ry="4" style="stroke: #979797; stroke-width: 1.0;" width="60" x="585.5" y="2925.5371"/><text fill="#000000" font-family="sans-serif" font-size="14" lengthAdjust="spacingAndGlyphs" textLength="36" x="597.5" y="2951.0723">Store</text><rect fill="#D8D8D8" height="40.4883" rx="4" ry="4" style="stroke: #979797; stroke-width: 1.0;" width="76" x="878.5" y="2925.5371"/><text fill="#000000" font-family="sans-serif" font-size="14" lengthAdjust="spacingAndGlyphs" textLength="52" x="890.5" y="2951.0723">Forums</text><rect fill="#D8D8D8" height="40.4883" rx="4" ry="4" style="stroke: #979797; stroke-width: 1.0;" width="103" x="1137" y="3"/><text fill="#000000" font-family="sans-serif" font-size="14" lengthAdjust="spacingAndGlyphs" textLength="79" x="1149" y="28.5352">FusionAuth</text><rect fill="#D8D8D8" height="40.4883" rx="4" ry="4" style="stroke: #979797; stroke-width: 1.0;" width="103" x="1137" y="2925.5371"/><text fill="#000000" font-family="sans-serif" font-size="14" lengthAdjust="spacingAndGlyphs" textLength="79" x="1149" y="2951.0723">FusionAuth</text><rect fill="#D8D8D8" height="40.4883" rx="4" ry="4" style="stroke: #979797; stroke-width: 1.0;" width="71" x="1250" y="3"/><text fill="#000000" font-family="sans-serif" font-size="14" lengthAdjust="spacingAndGlyphs" textLength="47" x="1262" y="28.5352">Hacker</text><rect fill="#D8D8D8" height="40.4883" rx="4" ry="4" style="stroke: #979797; stroke-width: 1.0;" width="71" x="1250" y="2925.5371"/><text fill="#000000" font-family="sans-serif" font-size="14" lengthAdjust="spacingAndGlyphs" textLength="47" x="1262" y="2951.0723">Hacker</text><rect fill="#3F2C61" height="3" style="stroke: #3F2C61; stroke-width: 1.0;" width="1323" x="3" y="80.1436"/><line style="stroke: #FFFFFF; stroke-width: 0.5;" x1="3" x2="1326" y1="80.1436" y2="80.1436"/><line style="stroke: #FFFFFF; stroke-width: 0.5;" x1="3" x2="1326" y1="83.1436" y2="83.1436"/><rect fill="#3F2C61" height="33.3105" style="stroke: #FFFFFF; stroke-width: 1.0;" width="86" x="621.5" y="64.4883"/><text fill="#FFFFFF" font-family="sans-serif" font-size="13" font-weight="bold" lengthAdjust="spacingAndGlyphs" textLength="58" x="632.5" y="86.0566">Initialize</text><polygon fill="#56666F" points="603.5,135.1094,613.5,139.1094,603.5,143.1094,607.5,139.1094" style="stroke: #56666F; stroke-width: 1.0;"/><line style="stroke: #56666F; stroke-width: 1.0;" x1="102.5" x2="609.5" y1="139.1094" y2="139.1094"/><text fill="#000000" font-family="sans-serif" font-size="13" font-weight="bold" lengthAdjust="spacingAndGlyphs" textLength="9" x="114.5" y="129.3672">1</text><text fill="#000000" font-family="sans-serif" font-size="13" lengthAdjust="spacingAndGlyphs" textLength="35" x="137.5" y="129.3672">GET /</text><polygon fill="#56666F" points="113.5,174.4199,103.5,178.4199,113.5,182.4199,109.5,178.4199" style="stroke: #56666F; stroke-width: 1.0;"/><line style="stroke: #56666F; stroke-width: 1.0;" x1="107.5" x2="614.5" y1="178.4199" y2="178.4199"/><text fill="#000000" font-family="sans-serif" font-size="13" font-weight="bold" lengthAdjust="spacingAndGlyphs" textLength="9" x="124.5" y="168.6777">2</text><text fill="#000000" font-family="sans-serif" font-size="13" lengthAdjust="spacingAndGlyphs" textLength="260" x="147.5" y="168.6777">(HTML, CSS &amp; JavaScript - with login link)</text><rect fill="#3F2C61" height="3" style="stroke: #3F2C61; stroke-width: 1.0;" width="1323" x="3" y="212.0752"/><line style="stroke: #FFFFFF; stroke-width: 0.5;" x1="3" x2="1326" y1="212.0752" y2="212.0752"/><line style="stroke: #FFFFFF; stroke-width: 0.5;" x1="3" x2="1326" y1="215.0752" y2="215.0752"/><rect fill="#3F2C61" height="33.3105" style="stroke: #FFFFFF; stroke-width: 1.0;" width="182" x="573.5" y="196.4199"/><text fill="#FFFFFF" font-family="sans-serif" font-size="13" font-weight="bold" lengthAdjust="spacingAndGlyphs" textLength="154" x="584.5" y="217.9883">Login (inside WebApp)</text><polygon fill="#56666F" points="603.5,267.041,613.5,271.041,603.5,275.041,607.5,271.041" style="stroke: #56666F; stroke-width: 1.0;"/><line style="stroke: #56666F; stroke-width: 1.0;" x1="102.5" x2="609.5" y1="271.041" y2="271.041"/><text fill="#000000" font-family="sans-serif" font-size="13" font-weight="bold" lengthAdjust="spacingAndGlyphs" textLength="9" x="114.5" y="261.2988">3</text><text fill="#000000" font-family="sans-serif" font-size="13" lengthAdjust="spacingAndGlyphs" textLength="67" x="137.5" y="261.2988">GET /login</text><polygon fill="#56666F" points="113.5,306.3516,103.5,310.3516,113.5,314.3516,109.5,310.3516" style="stroke: #56666F; stroke-width: 1.0;"/><line style="stroke: #56666F; stroke-width: 1.0;" x1="107.5" x2="614.5" y1="310.3516" y2="310.3516"/><text fill="#000000" font-family="sans-serif" font-size="13" font-weight="bold" lengthAdjust="spacingAndGlyphs" textLength="9" x="124.5" y="300.6094">4</text><text fill="#000000" font-family="sans-serif" font-size="13" lengthAdjust="spacingAndGlyphs" textLength="117" x="147.5" y="300.6094">(Login form HTML)</text><polygon fill="#56666F" points="603.5,345.6621,613.5,349.6621,603.5,353.6621,607.5,349.6621" style="stroke: #56666F; stroke-width: 1.0;"/><line style="stroke: #56666F; stroke-width: 1.0;" x1="102.5" x2="609.5" y1="349.6621" y2="349.6621"/><text fill="#000000" font-family="sans-serif" font-size="13" font-weight="bold" lengthAdjust="spacingAndGlyphs" textLength="9" x="114.5" y="339.9199">5</text><text fill="#000000" font-family="sans-serif" font-size="13" lengthAdjust="spacingAndGlyphs" textLength="75" x="137.5" y="339.9199">POST /login</text><polygon fill="#56666F" points="1176.5,384.9727,1186.5,388.9727,1176.5,392.9727,1180.5,388.9727" style="stroke: #56666F; stroke-width: 1.0;"/><line style="stroke: #56666F; stroke-width: 1.0;" x1="615.5" x2="1182.5" y1="388.9727" y2="388.9727"/><text fill="#000000" font-family="sans-serif" font-size="13" font-weight="bold" lengthAdjust="spacingAndGlyphs" textLength="9" x="627.5" y="379.2305">6</text><text fill="#000000" font-family="sans-serif" font-size="13" lengthAdjust="spacingAndGlyphs" textLength="101" x="650.5" y="379.2305">POST /api/login</text><polygon fill="#56666F" points="626.5,424.2832,616.5,428.2832,626.5,432.2832,622.5,428.2832" style="stroke: #56666F; stroke-width: 1.0;"/><line style="stroke: #56666F; stroke-width: 1.0;" x1="620.5" x2="1187.5" y1="428.2832" y2="428.2832"/><text fill="#000000" font-family="sans-serif" font-size="13" font-weight="bold" lengthAdjust="spacingAndGlyphs" textLength="9" x="637.5" y="418.541">7</text><text fill="#000000" font-family="sans-serif" font-size="13" lengthAdjust="spacingAndGlyphs" textLength="188" x="660.5" y="418.541">(User, Refresh Token and JWT)</text><line style="stroke: #56666F; stroke-width: 1.0;" x1="615.5" x2="657.5" y1="467.5938" y2="467.5938"/><line style="stroke: #56666F; stroke-width: 1.0;" x1="657.5" x2="657.5" y1="467.5938" y2="480.5938"/><line style="stroke: #56666F; stroke-width: 1.0;" x1="616.5" x2="657.5" y1="480.5938" y2="480.5938"/><polygon fill="#56666F" points="626.5,476.5938,616.5,480.5938,626.5,484.5938,622.5,480.5938" style="stroke: #56666F; stroke-width: 1.0;"/><text fill="#000000" font-family="sans-serif" font-size="13" font-weight="bold" lengthAdjust="spacingAndGlyphs" textLength="9" x="627.5" y="457.8516">8</text><text fill="#000000" font-family="sans-serif" font-size="13" lengthAdjust="spacingAndGlyphs" textLength="216" x="650.5" y="457.8516">Create session and store User in it</text><polygon fill="#56666F" points="113.5,531.2148,103.5,535.2148,113.5,539.2148,109.5,535.2148" style="stroke: #56666F; stroke-width: 1.0;"/><line style="stroke: #56666F; stroke-width: 1.0;" x1="107.5" x2="614.5" y1="535.2148" y2="535.2148"/><text fill="#000000" font-family="sans-serif" font-size="13" font-weight="bold" lengthAdjust="spacingAndGlyphs" textLength="9" x="124.5" y="517.8174">9</text><text fill="#000000" font-family="sans-serif" font-size="13" lengthAdjust="spacingAndGlyphs" textLength="188" x="147.5" y="510.1621">302 Location: /shopping-cart</text><text fill="#000000" font-family="sans-serif" font-size="13" lengthAdjust="spacingAndGlyphs" textLength="440" x="147.5" y="525.4727">[SesionId and Refresh token HttpOnly w/ domain: Store.Example.com]</text><rect fill="#3F2C61" height="3" style="stroke: #3F2C61; stroke-width: 1.0;" width="1323" x="3" y="568.8701"/><line style="stroke: #FFFFFF; stroke-width: 0.5;" x1="3" x2="1326" y1="568.8701" y2="568.8701"/><line style="stroke: #FFFFFF; stroke-width: 0.5;" x1="3" x2="1326" y1="571.8701" y2="571.8701"/><rect fill="#3F2C61" height="33.3105" style="stroke: #FFFFFF; stroke-width: 1.0;" width="155" x="587" y="553.2148"/><text fill="#FFFFFF" font-family="sans-serif" font-size="13" font-weight="bold" lengthAdjust="spacingAndGlyphs" textLength="127" x="598" y="574.7832">Shopping cart load</text><polygon fill="#56666F" points="603.5,639.1465,613.5,643.1465,603.5,647.1465,607.5,643.1465" style="stroke: #56666F; stroke-width: 1.0;"/><line style="stroke: #56666F; stroke-width: 1.0;" x1="102.5" x2="609.5" y1="643.1465" y2="643.1465"/><text fill="#000000" font-family="sans-serif" font-size="13" font-weight="bold" lengthAdjust="spacingAndGlyphs" textLength="18" x="114.5" y="625.749">10</text><text fill="#000000" font-family="sans-serif" font-size="13" lengthAdjust="spacingAndGlyphs" textLength="126" x="146.5" y="618.0938">GET /shopping-cart</text><text fill="#000000" font-family="sans-serif" font-size="13" lengthAdjust="spacingAndGlyphs" textLength="447" x="146.5" y="633.4043">[SessionId and Refresh token HttpOnly w/ domain: Store.Example.com]</text><line style="stroke: #56666F; stroke-width: 1.0;" x1="615.5" x2="657.5" y1="682.457" y2="682.457"/><line style="stroke: #56666F; stroke-width: 1.0;" x1="657.5" x2="657.5" y1="682.457" y2="695.457"/><line style="stroke: #56666F; stroke-width: 1.0;" x1="616.5" x2="657.5" y1="695.457" y2="695.457"/><polygon fill="#56666F" points="626.5,691.457,616.5,695.457,626.5,699.457,622.5,695.457" style="stroke: #56666F; stroke-width: 1.0;"/><text fill="#000000" font-family="sans-serif" font-size="13" font-weight="bold" lengthAdjust="spacingAndGlyphs" textLength="18" x="627.5" y="672.7148">11</text><text fill="#000000" font-family="sans-serif" font-size="13" lengthAdjust="spacingAndGlyphs" textLength="110" x="659.5" y="672.7148">Session extended</text><polygon fill="#56666F" points="113.5,730.7676,103.5,734.7676,113.5,738.7676,109.5,734.7676" style="stroke: #56666F; stroke-width: 1.0;"/><line style="stroke: #56666F; stroke-width: 1.0;" x1="107.5" x2="614.5" y1="734.7676" y2="734.7676"/><text fill="#000000" font-family="sans-serif" font-size="13" font-weight="bold" lengthAdjust="spacingAndGlyphs" textLength="18" x="124.5" y="725.0254">12</text><text fill="#000000" font-family="sans-serif" font-size="13" lengthAdjust="spacingAndGlyphs" textLength="135" x="156.5" y="725.0254">(Shopping cart HTML)</text><path d="M8,751.7676 L8,793.7676 A4,4 0 0 0 12,797.7676 L194,797.7676 A4,4 0 0 0 198,793.7676 L198,757.7676 L188,747.7676 L12,747.7676 A4,4 0 0 0 8,751.7676 " fill="#EB8C52" style="stroke: #FFFFFF; stroke-width: 1.0;"/><path d="M188,747.7676 L188,755.7676 A2,2 0 0 0 190,757.7676 L198,757.7676 L188,747.7676 " fill="#EB8C52" style="stroke: #FFFFFF; stroke-width: 1.0;"/><text fill="#FFFFFF" font-family="sans-serif" font-size="13" font-style="italic" font-weight="bold" lengthAdjust="spacingAndGlyphs" textLength="104" x="19" y="770.3359">Session expires</text><text fill="#FFFFFF" font-family="sans-serif" font-size="13" font-style="italic" font-weight="bold" lengthAdjust="spacingAndGlyphs" textLength="159" x="19" y="785.6465">Refresh token still valid</text><rect fill="#3F2C61" height="3" style="stroke: #3F2C61; stroke-width: 1.0;" width="1323" x="3" y="829.0439"/><line style="stroke: #FFFFFF; stroke-width: 0.5;" x1="3" x2="1326" y1="829.0439" y2="829.0439"/><line style="stroke: #FFFFFF; stroke-width: 0.5;" x1="3" x2="1326" y1="832.0439" y2="832.0439"/><rect fill="#3F2C61" height="33.3105" style="stroke: #FFFFFF; stroke-width: 1.0;" width="155" x="587" y="813.3887"/><text fill="#FFFFFF" font-family="sans-serif" font-size="13" font-weight="bold" lengthAdjust="spacingAndGlyphs" textLength="127" x="598" y="834.957">Shopping cart load</text><polygon fill="#56666F" points="603.5,899.3203,613.5,903.3203,603.5,907.3203,607.5,903.3203" style="stroke: #56666F; stroke-width: 1.0;"/><line style="stroke: #56666F; stroke-width: 1.0;" x1="102.5" x2="609.5" y1="903.3203" y2="903.3203"/><text fill="#000000" font-family="sans-serif" font-size="13" font-weight="bold" lengthAdjust="spacingAndGlyphs" textLength="18" x="114.5" y="885.9229">13</text><text fill="#000000" font-family="sans-serif" font-size="13" lengthAdjust="spacingAndGlyphs" textLength="126" x="146.5" y="878.2676">GET /shopping-cart</text><text fill="#000000" font-family="sans-serif" font-size="13" lengthAdjust="spacingAndGlyphs" textLength="447" x="146.5" y="893.5781">[SessionId and Refresh token HttpOnly w/ domain: Store.Example.com]</text><polygon fill="#56666F" points="1176.5,953.9414,1186.5,957.9414,1176.5,961.9414,1180.5,957.9414" style="stroke: #56666F; stroke-width: 1.0;"/><line style="stroke: #56666F; stroke-width: 1.0;" x1="615.5" x2="1182.5" y1="957.9414" y2="957.9414"/><text fill="#000000" font-family="sans-serif" font-size="13" font-weight="bold" lengthAdjust="spacingAndGlyphs" textLength="18" x="627.5" y="940.5439">14</text><text fill="#000000" font-family="sans-serif" font-size="13" lengthAdjust="spacingAndGlyphs" textLength="290" x="659.5" y="932.8887">POST /oauth2/token or POST /api/jwt/refresh</text><text fill="#000000" font-family="sans-serif" font-size="13" lengthAdjust="spacingAndGlyphs" textLength="244" x="659.5" y="948.1992">(grant_type=refresh and refresh token)</text><polygon fill="#56666F" points="626.5,993.252,616.5,997.252,626.5,1001.252,622.5,997.252" style="stroke: #56666F; stroke-width: 1.0;"/><line style="stroke: #56666F; stroke-width: 1.0;" x1="620.5" x2="1187.5" y1="997.252" y2="997.252"/><text fill="#000000" font-family="sans-serif" font-size="13" font-weight="bold" lengthAdjust="spacingAndGlyphs" textLength="18" x="637.5" y="987.5098">15</text><text fill="#000000" font-family="sans-serif" font-size="13" lengthAdjust="spacingAndGlyphs" textLength="31" x="669.5" y="987.5098">(JWT)</text><line style="stroke: #56666F; stroke-width: 1.0;" x1="615.5" x2="657.5" y1="1036.5625" y2="1036.5625"/><line style="stroke: #56666F; stroke-width: 1.0;" x1="657.5" x2="657.5" y1="1036.5625" y2="1049.5625"/><line style="stroke: #56666F; stroke-width: 1.0;" x1="616.5" x2="657.5" y1="1049.5625" y2="1049.5625"/><polygon fill="#56666F" points="626.5,1045.5625,616.5,1049.5625,626.5,1053.5625,622.5,1049.5625" style="stroke: #56666F; stroke-width: 1.0;"/><text fill="#000000" font-family="sans-serif" font-size="13" font-weight="bold" lengthAdjust="spacingAndGlyphs" textLength="18" x="627.5" y="1026.8203">16</text><text fill="#000000" font-family="sans-serif" font-size="13" lengthAdjust="spacingAndGlyphs" textLength="245" x="659.5" y="1026.8203">Create new session and store User in it</text><polygon fill="#56666F" points="113.5,1100.1836,103.5,1104.1836,113.5,1108.1836,109.5,1104.1836" style="stroke: #56666F; stroke-width: 1.0;"/><line style="stroke: #56666F; stroke-width: 1.0;" x1="107.5" x2="614.5" y1="1104.1836" y2="1104.1836"/><text fill="#000000" font-family="sans-serif" font-size="13" font-weight="bold" lengthAdjust="spacingAndGlyphs" textLength="18" x="124.5" y="1086.7861">17</text><text fill="#000000" font-family="sans-serif" font-size="13" lengthAdjust="spacingAndGlyphs" textLength="154" x="156.5" y="1079.1309">(Shopping cart contents)</text><text fill="#000000" font-family="sans-serif" font-size="13" lengthAdjust="spacingAndGlyphs" textLength="360" x="156.5" y="1094.4414">[New SessionId HttpOnly w/ domain: Store.Example.com]</text><path d="M13,1121.1836 L13,1163.1836 A4,4 0 0 0 17,1167.1836 L188,1167.1836 A4,4 0 0 0 192,1163.1836 L192,1127.1836 L182,1117.1836 L17,1117.1836 A4,4 0 0 0 13,1121.1836 " fill="#EB8C52" style="stroke: #FFFFFF; stroke-width: 1.0;"/><path d="M182,1117.1836 L182,1125.1836 A2,2 0 0 0 184,1127.1836 L192,1127.1836 L182,1117.1836 " fill="#EB8C52" style="stroke: #FFFFFF; stroke-width: 1.0;"/><text fill="#FFFFFF" font-family="sans-serif" font-size="13" font-style="italic" font-weight="bold" lengthAdjust="spacingAndGlyphs" textLength="104" x="24" y="1139.752">Session expires</text><text fill="#FFFFFF" font-family="sans-serif" font-size="13" font-style="italic" font-weight="bold" lengthAdjust="spacingAndGlyphs" textLength="148" x="24" y="1155.0625">Refresh token expires</text><rect fill="#3F2C61" height="3" style="stroke: #3F2C61; stroke-width: 1.0;" width="1323" x="3" y="1198.46"/><line style="stroke: #FFFFFF; stroke-width: 0.5;" x1="3" x2="1326" y1="1198.46" y2="1198.46"/><line style="stroke: #FFFFFF; stroke-width: 0.5;" x1="3" x2="1326" y1="1201.46" y2="1201.46"/><rect fill="#3F2C61" height="33.3105" style="stroke: #FFFFFF; stroke-width: 1.0;" width="87" x="621" y="1182.8047"/><text fill="#FFFFFF" font-family="sans-serif" font-size="13" font-weight="bold" lengthAdjust="spacingAndGlyphs" textLength="59" x="632" y="1204.373">Re-login</text><polygon fill="#56666F" points="603.5,1268.7363,613.5,1272.7363,603.5,1276.7363,607.5,1272.7363" style="stroke: #56666F; stroke-width: 1.0;"/><line style="stroke: #56666F; stroke-width: 1.0;" x1="102.5" x2="609.5" y1="1272.7363" y2="1272.7363"/><text fill="#000000" font-family="sans-serif" font-size="13" font-weight="bold" lengthAdjust="spacingAndGlyphs" textLength="18" x="114.5" y="1255.3389">18</text><text fill="#000000" font-family="sans-serif" font-size="13" lengthAdjust="spacingAndGlyphs" textLength="126" x="146.5" y="1247.6836">GET /shopping-cart</text><text fill="#000000" font-family="sans-serif" font-size="13" lengthAdjust="spacingAndGlyphs" textLength="447" x="146.5" y="1262.9941">[SessionId and Refresh token HttpOnly w/ domain: Store.Example.com]</text><polygon fill="#56666F" points="1176.5,1323.3574,1186.5,1327.3574,1176.5,1331.3574,1180.5,1327.3574" style="stroke: #56666F; stroke-width: 1.0;"/><line style="stroke: #56666F; stroke-width: 1.0;" x1="615.5" x2="1182.5" y1="1327.3574" y2="1327.3574"/><text fill="#000000" font-family="sans-serif" font-size="13" font-weight="bold" lengthAdjust="spacingAndGlyphs" textLength="18" x="627.5" y="1309.96">19</text><text fill="#000000" font-family="sans-serif" font-size="13" lengthAdjust="spacingAndGlyphs" textLength="290" x="659.5" y="1302.3047">POST /oauth2/token or POST /api/jwt/refresh</text><text fill="#000000" font-family="sans-serif" font-size="13" lengthAdjust="spacingAndGlyphs" textLength="244" x="659.5" y="1317.6152">(grant_type=refresh and refresh token)</text><polygon fill="#EB8C52" points="626.5,1362.668,616.5,1366.668,626.5,1370.668,622.5,1366.668" style="stroke: #EB8C52; stroke-width: 1.0;"/><line style="stroke: #EB8C52; stroke-width: 1.0;" x1="620.5" x2="1187.5" y1="1366.668" y2="1366.668"/><text fill="#000000" font-family="sans-serif" font-size="13" font-weight="bold" lengthAdjust="spacingAndGlyphs" textLength="18" x="637.5" y="1356.9258">20</text><text fill="#EB8C52" font-family="sans-serif" font-size="13" lengthAdjust="spacingAndGlyphs" textLength="77" x="669.5" y="1356.9258">404 Missing</text><polygon fill="#56666F" points="113.5,1401.9785,103.5,1405.9785,113.5,1409.9785,109.5,1405.9785" style="stroke: #56666F; stroke-width: 1.0;"/><line style="stroke: #56666F; stroke-width: 1.0;" x1="107.5" x2="614.5" y1="1405.9785" y2="1405.9785"/><text fill="#000000" font-family="sans-serif" font-size="13" font-weight="bold" lengthAdjust="spacingAndGlyphs" textLength="18" x="124.5" y="1396.2363">21</text><text fill="#000000" font-family="sans-serif" font-size="13" lengthAdjust="spacingAndGlyphs" textLength="129" x="156.5" y="1396.2363">302 Location: /login</text><line style="stroke: #56666F; stroke-width: 1.0;" x1="102.5" x2="144.5" y1="1445.2891" y2="1445.2891"/><line style="stroke: #56666F; stroke-width: 1.0;" x1="144.5" x2="144.5" y1="1445.2891" y2="1458.2891"/><line style="stroke: #56666F; stroke-width: 1.0;" x1="103.5" x2="144.5" y1="1458.2891" y2="1458.2891"/><polygon fill="#56666F" points="113.5,1454.2891,103.5,1458.2891,113.5,1462.2891,109.5,1458.2891" style="stroke: #56666F; stroke-width: 1.0;"/><text fill="#000000" font-family="sans-serif" font-size="13" font-weight="bold" lengthAdjust="spacingAndGlyphs" textLength="18" x="114.5" y="1435.5469">22</text><text fill="#000000" font-family="sans-serif" font-size="13" lengthAdjust="spacingAndGlyphs" textLength="131" x="146.5" y="1435.5469">Login same as above</text><path d="M67,1525.2891 L67,1552.2891 A4,4 0 0 0 71,1556.2891 L1316,1556.2891 A4,4 0 0 0 1320,1552.2891 L1320,1531.2891 L1310,1521.2891 L71,1521.2891 A4,4 0 0 0 67,1525.2891 " fill="#8B80A1" style="stroke: #FFFFFF; stroke-width: 1.0;"/><path d="M1310,1521.2891 L1310,1529.2891 A2,2 0 0 0 1312,1531.2891 L1320,1531.2891 L1310,1521.2891 " fill="#8B80A1" style="stroke: #FFFFFF; stroke-width: 1.0;"/><text fill="#FFFFFF" font-family="sans-serif" font-size="13" font-style="italic" lengthAdjust="spacingAndGlyphs" textLength="429" x="474.5" y="1543.8574">SSO login to forums - not provided by FusionAuth for this workflow</text><rect fill="#3F2C61" height="3" style="stroke: #3F2C61; stroke-width: 1.0;" width="1323" x="3" y="1637.2549"/><line style="stroke: #FFFFFF; stroke-width: 0.5;" x1="3" x2="1326" y1="1637.2549" y2="1637.2549"/><line style="stroke: #FFFFFF; stroke-width: 0.5;" x1="3" x2="1326" y1="1640.2549" y2="1640.2549"/><rect fill="#3F2C61" height="33.3105" style="stroke: #FFFFFF; stroke-width: 1.0;" width="86" x="621.5" y="1621.5996"/><text fill="#FFFFFF" font-family="sans-serif" font-size="13" font-weight="bold" lengthAdjust="spacingAndGlyphs" textLength="58" x="632.5" y="1643.168">Initialize</text><polygon fill="#56666F" points="866.5,1707.5313,876.5,1711.5313,866.5,1715.5313,870.5,1711.5313" style="stroke: #56666F; stroke-width: 1.0;"/><line style="stroke: #56666F; stroke-width: 1.0;" x1="102.5" x2="872.5" y1="1711.5313" y2="1711.5313"/><text fill="#000000" font-family="sans-serif" font-size="13" font-weight="bold" lengthAdjust="spacingAndGlyphs" textLength="18" x="114.5" y="1694.1338">23</text><text fill="#000000" font-family="sans-serif" font-size="13" lengthAdjust="spacingAndGlyphs" textLength="35" x="146.5" y="1686.4785">GET /</text><text fill="#000000" font-family="sans-serif" font-size="13" lengthAdjust="spacingAndGlyphs" textLength="79" x="146.5" y="1701.7891">[No cookies]</text><rect fill="#D8D8D8" height="40.4883" rx="4" ry="4" style="stroke: #979797; stroke-width: 1.0;" width="76" x="878.5" y="1668.043"/><text fill="#000000" font-family="sans-serif" font-size="14" lengthAdjust="spacingAndGlyphs" textLength="52" x="890.5" y="1693.5781">Forums</text><polygon fill="#56666F" points="113.5,1746.8418,103.5,1750.8418,113.5,1754.8418,109.5,1750.8418" style="stroke: #56666F; stroke-width: 1.0;"/><line style="stroke: #56666F; stroke-width: 1.0;" x1="107.5" x2="915.5" y1="1750.8418" y2="1750.8418"/><text fill="#000000" font-family="sans-serif" font-size="13" font-weight="bold" lengthAdjust="spacingAndGlyphs" textLength="18" x="124.5" y="1741.0996">24</text><text fill="#000000" font-family="sans-serif" font-size="13" lengthAdjust="spacingAndGlyphs" textLength="260" x="156.5" y="1741.0996">(HTML, CSS &amp; JavaScript - with login link)</text><rect fill="#3F2C61" height="3" style="stroke: #3F2C61; stroke-width: 1.0;" width="1323" x="3" y="1784.4971"/><line style="stroke: #FFFFFF; stroke-width: 0.5;" x1="3" x2="1326" y1="1784.4971" y2="1784.4971"/><line style="stroke: #FFFFFF; stroke-width: 0.5;" x1="3" x2="1326" y1="1787.4971" y2="1787.4971"/><rect fill="#3F2C61" height="33.3105" style="stroke: #FFFFFF; stroke-width: 1.0;" width="182" x="573.5" y="1768.8418"/><text fill="#FFFFFF" font-family="sans-serif" font-size="13" font-weight="bold" lengthAdjust="spacingAndGlyphs" textLength="154" x="584.5" y="1790.4102">Login (inside WebApp)</text><polygon fill="#56666F" points="904.5,1839.4629,914.5,1843.4629,904.5,1847.4629,908.5,1843.4629" style="stroke: #56666F; stroke-width: 1.0;"/><line style="stroke: #56666F; stroke-width: 1.0;" x1="102.5" x2="910.5" y1="1843.4629" y2="1843.4629"/><text fill="#000000" font-family="sans-serif" font-size="13" font-weight="bold" lengthAdjust="spacingAndGlyphs" textLength="18" x="114.5" y="1833.7207">25</text><text fill="#000000" font-family="sans-serif" font-size="13" lengthAdjust="spacingAndGlyphs" textLength="67" x="146.5" y="1833.7207">GET /login</text><polygon fill="#56666F" points="113.5,1878.7734,103.5,1882.7734,113.5,1886.7734,109.5,1882.7734" style="stroke: #56666F; stroke-width: 1.0;"/><line style="stroke: #56666F; stroke-width: 1.0;" x1="107.5" x2="915.5" y1="1882.7734" y2="1882.7734"/><text fill="#000000" font-family="sans-serif" font-size="13" font-weight="bold" lengthAdjust="spacingAndGlyphs" textLength="18" x="124.5" y="1873.0313">26</text><text fill="#000000" font-family="sans-serif" font-size="13" lengthAdjust="spacingAndGlyphs" textLength="117" x="156.5" y="1873.0313">(Login form HTML)</text><polygon fill="#56666F" points="904.5,1918.084,914.5,1922.084,904.5,1926.084,908.5,1922.084" style="stroke: #56666F; stroke-width: 1.0;"/><line style="stroke: #56666F; stroke-width: 1.0;" x1="102.5" x2="910.5" y1="1922.084" y2="1922.084"/><text fill="#000000" font-family="sans-serif" font-size="13" font-weight="bold" lengthAdjust="spacingAndGlyphs" textLength="18" x="114.5" y="1912.3418">27</text><text fill="#000000" font-family="sans-serif" font-size="13" lengthAdjust="spacingAndGlyphs" textLength="75" x="146.5" y="1912.3418">POST /login</text><polygon fill="#56666F" points="1176.5,1957.3945,1186.5,1961.3945,1176.5,1965.3945,1180.5,1961.3945" style="stroke: #56666F; stroke-width: 1.0;"/><line style="stroke: #56666F; stroke-width: 1.0;" x1="916.5" x2="1182.5" y1="1961.3945" y2="1961.3945"/><text fill="#000000" font-family="sans-serif" font-size="13" font-weight="bold" lengthAdjust="spacingAndGlyphs" textLength="18" x="928.5" y="1951.6523">28</text><text fill="#000000" font-family="sans-serif" font-size="13" lengthAdjust="spacingAndGlyphs" textLength="101" x="960.5" y="1951.6523">POST /api/login</text><polygon fill="#56666F" points="927.5,1996.7051,917.5,2000.7051,927.5,2004.7051,923.5,2000.7051" style="stroke: #56666F; stroke-width: 1.0;"/><line style="stroke: #56666F; stroke-width: 1.0;" x1="921.5" x2="1187.5" y1="2000.7051" y2="2000.7051"/><text fill="#000000" font-family="sans-serif" font-size="13" font-weight="bold" lengthAdjust="spacingAndGlyphs" textLength="18" x="938.5" y="1990.9629">29</text><text fill="#000000" font-family="sans-serif" font-size="13" lengthAdjust="spacingAndGlyphs" textLength="188" x="970.5" y="1990.9629">(User, Refresh Token and JWT)</text><line style="stroke: #56666F; stroke-width: 1.0;" x1="916.5" x2="958.5" y1="2040.0156" y2="2040.0156"/><line style="stroke: #56666F; stroke-width: 1.0;" x1="958.5" x2="958.5" y1="2040.0156" y2="2053.0156"/><line style="stroke: #56666F; stroke-width: 1.0;" x1="917.5" x2="958.5" y1="2053.0156" y2="2053.0156"/><polygon fill="#56666F" points="927.5,2049.0156,917.5,2053.0156,927.5,2057.0156,923.5,2053.0156" style="stroke: #56666F; stroke-width: 1.0;"/><text fill="#000000" font-family="sans-serif" font-size="13" font-weight="bold" lengthAdjust="spacingAndGlyphs" textLength="18" x="928.5" y="2030.2734">30</text><text fill="#000000" font-family="sans-serif" font-size="13" lengthAdjust="spacingAndGlyphs" textLength="216" x="960.5" y="2030.2734">Create session and store User in it</text><polygon fill="#56666F" points="113.5,2103.6367,103.5,2107.6367,113.5,2111.6367,109.5,2107.6367" style="stroke: #56666F; stroke-width: 1.0;"/><line style="stroke: #56666F; stroke-width: 1.0;" x1="107.5" x2="915.5" y1="2107.6367" y2="2107.6367"/><text fill="#000000" font-family="sans-serif" font-size="13" font-weight="bold" lengthAdjust="spacingAndGlyphs" textLength="18" x="124.5" y="2090.2393">31</text><text fill="#000000" font-family="sans-serif" font-size="13" lengthAdjust="spacingAndGlyphs" textLength="132" x="156.5" y="2082.584">302 Location: /posts</text><text fill="#000000" font-family="sans-serif" font-size="13" lengthAdjust="spacingAndGlyphs" textLength="465" x="156.5" y="2097.8945">[SessionId and Refresh Token HttpOnly w/ domain: Forums.Example.com]</text><rect fill="#3F2C61" height="3" style="stroke: #3F2C61; stroke-width: 1.0;" width="1323" x="3" y="2141.292"/><line style="stroke: #FFFFFF; stroke-width: 0.5;" x1="3" x2="1326" y1="2141.292" y2="2141.292"/><line style="stroke: #FFFFFF; stroke-width: 0.5;" x1="3" x2="1326" y1="2144.292" y2="2144.292"/><rect fill="#3F2C61" height="33.3105" style="stroke: #FFFFFF; stroke-width: 1.0;" width="104" x="612.5" y="2125.6367"/><text fill="#FFFFFF" font-family="sans-serif" font-size="13" font-weight="bold" lengthAdjust="spacingAndGlyphs" textLength="76" x="623.5" y="2147.2051">Forum load</text><polygon fill="#56666F" points="904.5,2211.5684,914.5,2215.5684,904.5,2219.5684,908.5,2215.5684" style="stroke: #56666F; stroke-width: 1.0;"/><line style="stroke: #56666F; stroke-width: 1.0;" x1="102.5" x2="910.5" y1="2215.5684" y2="2215.5684"/><text fill="#000000" font-family="sans-serif" font-size="13" font-weight="bold" lengthAdjust="spacingAndGlyphs" textLength="18" x="114.5" y="2198.1709">32</text><text fill="#000000" font-family="sans-serif" font-size="13" lengthAdjust="spacingAndGlyphs" textLength="70" x="146.5" y="2190.5156">GET /posts</text><text fill="#000000" font-family="sans-serif" font-size="13" lengthAdjust="spacingAndGlyphs" textLength="462" x="146.5" y="2205.8262">[SessionId and Refresh token HttpOnly w/ domain: Forums.Example.com]</text><line style="stroke: #56666F; stroke-width: 1.0;" x1="916.5" x2="958.5" y1="2254.8789" y2="2254.8789"/><line style="stroke: #56666F; stroke-width: 1.0;" x1="958.5" x2="958.5" y1="2254.8789" y2="2267.8789"/><line style="stroke: #56666F; stroke-width: 1.0;" x1="917.5" x2="958.5" y1="2267.8789" y2="2267.8789"/><polygon fill="#56666F" points="927.5,2263.8789,917.5,2267.8789,927.5,2271.8789,923.5,2267.8789" style="stroke: #56666F; stroke-width: 1.0;"/><text fill="#000000" font-family="sans-serif" font-size="13" font-weight="bold" lengthAdjust="spacingAndGlyphs" textLength="18" x="928.5" y="2245.1367">33</text><text fill="#000000" font-family="sans-serif" font-size="13" lengthAdjust="spacingAndGlyphs" textLength="110" x="960.5" y="2245.1367">Session extended</text><polygon fill="#56666F" points="113.5,2303.1895,103.5,2307.1895,113.5,2311.1895,109.5,2307.1895" style="stroke: #56666F; stroke-width: 1.0;"/><line style="stroke: #56666F; stroke-width: 1.0;" x1="107.5" x2="915.5" y1="2307.1895" y2="2307.1895"/><text fill="#000000" font-family="sans-serif" font-size="13" font-weight="bold" lengthAdjust="spacingAndGlyphs" textLength="18" x="124.5" y="2297.4473">34</text><text fill="#000000" font-family="sans-serif" font-size="13" lengthAdjust="spacingAndGlyphs" textLength="127" x="156.5" y="2297.4473">(Forum posts HTML)</text><path d="M67,2374.1895 L67,2401.1895 A4,4 0 0 0 71,2405.1895 L1316,2405.1895 A4,4 0 0 0 1320,2401.1895 L1320,2380.1895 L1310,2370.1895 L71,2370.1895 A4,4 0 0 0 67,2374.1895 " fill="#8B80A1" style="stroke: #FFFFFF; stroke-width: 1.0;"/><path d="M1310,2370.1895 L1310,2378.1895 A2,2 0 0 0 1312,2380.1895 L1320,2380.1895 L1310,2370.1895 " fill="#8B80A1" style="stroke: #FFFFFF; stroke-width: 1.0;"/><text fill="#FFFFFF" font-family="sans-serif" font-size="13" font-style="italic" lengthAdjust="spacingAndGlyphs" textLength="91" x="643.5" y="2392.7578">Attack vectors</text><rect fill="#3F2C61" height="3" style="stroke: #3F2C61; stroke-width: 1.0;" width="1323" x="3" y="2486.1553"/><line style="stroke: #FFFFFF; stroke-width: 0.5;" x1="3" x2="1326" y1="2486.1553" y2="2486.1553"/><line style="stroke: #FFFFFF; stroke-width: 0.5;" x1="3" x2="1326" y1="2489.1553" y2="2489.1553"/><rect fill="#3F2C61" height="33.3105" style="stroke: #FFFFFF; stroke-width: 1.0;" width="164" x="582.5" y="2470.5"/><text fill="#FFFFFF" font-family="sans-serif" font-size="13" font-weight="bold" lengthAdjust="spacingAndGlyphs" textLength="136" x="593.5" y="2492.0684">Stolen refresh token</text><polygon fill="#56666F" points="626.5,2556.4316,616.5,2560.4316,626.5,2564.4316,622.5,2560.4316" style="stroke: #56666F; stroke-width: 1.0;"/><line style="stroke: #56666F; stroke-width: 1.0;" x1="620.5" x2="1284.5" y1="2560.4316" y2="2560.4316"/><text fill="#000000" font-family="sans-serif" font-size="13" font-weight="bold" lengthAdjust="spacingAndGlyphs" textLength="18" x="637.5" y="2543.0342">35</text><text fill="#000000" font-family="sans-serif" font-size="13" lengthAdjust="spacingAndGlyphs" textLength="126" x="669.5" y="2535.3789">GET /shopping-cart</text><text fill="#000000" font-family="sans-serif" font-size="13" lengthAdjust="spacingAndGlyphs" textLength="478" x="669.5" y="2550.6895">[Refresh token and bad session id HttpOnly w/ domain: Store.Example.com]</text><polygon fill="#56666F" points="1176.5,2611.0527,1186.5,2615.0527,1176.5,2619.0527,1180.5,2615.0527" style="stroke: #56666F; stroke-width: 1.0;"/><line style="stroke: #56666F; stroke-width: 1.0;" x1="615.5" x2="1182.5" y1="2615.0527" y2="2615.0527"/><text fill="#000000" font-family="sans-serif" font-size="13" font-weight="bold" lengthAdjust="spacingAndGlyphs" textLength="18" x="627.5" y="2597.6553">36</text><text fill="#000000" font-family="sans-serif" font-size="13" lengthAdjust="spacingAndGlyphs" textLength="290" x="659.5" y="2590">POST /oauth2/token or POST /api/jwt/refresh</text><text fill="#000000" font-family="sans-serif" font-size="13" lengthAdjust="spacingAndGlyphs" textLength="244" x="659.5" y="2605.3105">(grant_type=refresh and refresh token)</text><polygon fill="#56666F" points="626.5,2650.3633,616.5,2654.3633,626.5,2658.3633,622.5,2654.3633" style="stroke: #56666F; stroke-width: 1.0;"/><line style="stroke: #56666F; stroke-width: 1.0;" x1="620.5" x2="1187.5" y1="2654.3633" y2="2654.3633"/><text fill="#000000" font-family="sans-serif" font-size="13" font-weight="bold" lengthAdjust="spacingAndGlyphs" textLength="18" x="637.5" y="2644.6211">37</text><text fill="#000000" font-family="sans-serif" font-size="13" lengthAdjust="spacingAndGlyphs" textLength="31" x="669.5" y="2644.6211">(JWT)</text><polygon fill="#56666F" points="1273.5,2704.9844,1283.5,2708.9844,1273.5,2712.9844,1277.5,2708.9844" style="stroke: #56666F; stroke-width: 1.0;"/><line style="stroke: #56666F; stroke-width: 1.0;" x1="615.5" x2="1279.5" y1="2708.9844" y2="2708.9844"/><text fill="#000000" font-family="sans-serif" font-size="13" font-weight="bold" lengthAdjust="spacingAndGlyphs" textLength="18" x="627.5" y="2691.5869">38</text><text fill="#000000" font-family="sans-serif" font-size="13" lengthAdjust="spacingAndGlyphs" textLength="135" x="659.5" y="2683.9316">(Shopping cart HTML)</text><text fill="#000000" font-family="sans-serif" font-size="13" lengthAdjust="spacingAndGlyphs" textLength="323" x="659.5" y="2699.2422">[New JWT HttpOnly w/ domain: Store.Example.com]</text><rect fill="#3F2C61" height="3" style="stroke: #3F2C61; stroke-width: 1.0;" width="1323" x="3" y="2742.6396"/><line style="stroke: #FFFFFF; stroke-width: 0.5;" x1="3" x2="1326" y1="2742.6396" y2="2742.6396"/><line style="stroke: #FFFFFF; stroke-width: 0.5;" x1="3" x2="1326" y1="2745.6396" y2="2745.6396"/><rect fill="#3F2C61" height="33.3105" style="stroke: #FFFFFF; stroke-width: 1.0;" width="140" x="594.5" y="2726.9844"/><text fill="#FFFFFF" font-family="sans-serif" font-size="13" font-weight="bold" lengthAdjust="spacingAndGlyphs" textLength="112" x="605.5" y="2748.5527">Stolen session id</text><polygon fill="#56666F" points="626.5,2812.916,616.5,2816.916,626.5,2820.916,622.5,2816.916" style="stroke: #56666F; stroke-width: 1.0;"/><line style="stroke: #56666F; stroke-width: 1.0;" x1="620.5" x2="1284.5" y1="2816.916" y2="2816.916"/><text fill="#000000" font-family="sans-serif" font-size="13" font-weight="bold" lengthAdjust="spacingAndGlyphs" textLength="18" x="637.5" y="2799.5186">39</text><text fill="#000000" font-family="sans-serif" font-size="13" lengthAdjust="spacingAndGlyphs" textLength="126" x="669.5" y="2791.8633">GET /shopping-cart</text><text fill="#000000" font-family="sans-serif" font-size="13" lengthAdjust="spacingAndGlyphs" textLength="329" x="669.5" y="2807.1738">[SessionId HttpOnly w/ domain: Store.Example.com]</text><line style="stroke: #56666F; stroke-width: 1.0;" x1="615.5" x2="657.5" y1="2856.2266" y2="2856.2266"/><line style="stroke: #56666F; stroke-width: 1.0;" x1="657.5" x2="657.5" y1="2856.2266" y2="2869.2266"/><line style="stroke: #56666F; stroke-width: 1.0;" x1="616.5" x2="657.5" y1="2869.2266" y2="2869.2266"/><polygon fill="#56666F" points="626.5,2865.2266,616.5,2869.2266,626.5,2873.2266,622.5,2869.2266" style="stroke: #56666F; stroke-width: 1.0;"/><text fill="#000000" font-family="sans-serif" font-size="13" font-weight="bold" lengthAdjust="spacingAndGlyphs" textLength="18" x="627.5" y="2846.4844">40</text><text fill="#000000" font-family="sans-serif" font-size="13" lengthAdjust="spacingAndGlyphs" textLength="110" x="659.5" y="2846.4844">Session extended</text><polygon fill="#56666F" points="1273.5,2904.5371,1283.5,2908.5371,1273.5,2912.5371,1277.5,2908.5371" style="stroke: #56666F; stroke-width: 1.0;"/><line style="stroke: #56666F; stroke-width: 1.0;" x1="615.5" x2="1279.5" y1="2908.5371" y2="2908.5371"/><text fill="#000000" font-family="sans-serif" font-size="13" font-weight="bold" lengthAdjust="spacingAndGlyphs" textLength="18" x="627.5" y="2898.7949">41</text><text fill="#000000" font-family="sans-serif" font-size="13" lengthAdjust="spacingAndGlyphs" textLength="135" x="659.5" y="2898.7949">(Shopping cart HTML)</text></g></svg>