<?xml version="1.0" encoding="UTF-8" standalone="no"?><svg xmlns="http://www.w3.org/2000/svg" xmlns:xlink="http://www.w3.org/1999/xlink" contentScriptType="application/ecmascript" contentStyleType="text/css" height="2663px" preserveAspectRatio="none" style="width:1129px;height:2663px;" version="1.1" viewBox="0 0 1129 2663" width="1129px" zoomAndPan="magnify"><defs/><g><rect fill="#D8D8D8" height="40.4883" rx="4" ry="4" style="stroke: #979797; stroke-width: 1.0;" width="76" x="613.5" y="1495.8008"/><text fill="#000000" font-family="sans-serif" font-size="14" lengthAdjust="spacingAndGlyphs" textLength="52" x="625.5" y="1521.3359">Forums</text><line style="stroke: #CDCDCD; stroke-width: 1.0; stroke-dasharray: 5.0,5.0;" x1="97" x2="97" y1="44.4883" y2="2612.6738"/><line style="stroke: #CDCDCD; stroke-width: 1.0; stroke-dasharray: 5.0,5.0;" x1="573.5" x2="573.5" y1="44.4883" y2="2612.6738"/><line style="stroke: #CDCDCD; stroke-width: 1.0; stroke-dasharray: 5.0,5.0;" x1="651.5" x2="651.5" y1="1529.9785" y2="2612.6738"/><line style="stroke: #CDCDCD; stroke-width: 1.0; stroke-dasharray: 5.0,5.0;" x1="929" x2="929" y1="44.4883" y2="2612.6738"/><line style="stroke: #CDCDCD; stroke-width: 1.0; stroke-dasharray: 5.0,5.0;" x1="1076" x2="1076" y1="44.4883" y2="2612.6738"/><rect fill="#D8D8D8" height="40.4883" rx="4" ry="4" style="stroke: #979797; stroke-width: 1.0;" width="79" x="58" y="3"/><text fill="#000000" font-family="sans-serif" font-size="14" lengthAdjust="spacingAndGlyphs" textLength="55" x="70" y="28.5352">Browser</text><rect fill="#D8D8D8" height="40.4883" rx="4" ry="4" style="stroke: #979797; stroke-width: 1.0;" width="79" x="58" y="2611.6738"/><text fill="#000000" font-family="sans-serif" font-size="14" lengthAdjust="spacingAndGlyphs" textLength="55" x="70" y="2637.209">Browser</text><rect fill="#D8D8D8" height="40.4883" rx="4" ry="4" style="stroke: #979797; stroke-width: 1.0;" width="60" x="543.5" y="3"/><text fill="#000000" font-family="sans-serif" font-size="14" lengthAdjust="spacingAndGlyphs" textLength="36" x="555.5" y="28.5352">Store</text><rect fill="#D8D8D8" height="40.4883" rx="4" ry="4" style="stroke: #979797; stroke-width: 1.0;" width="60" x="543.5" y="2611.6738"/><text fill="#000000" font-family="sans-serif" font-size="14" lengthAdjust="spacingAndGlyphs" textLength="36" x="555.5" y="2637.209">Store</text><rect fill="#D8D8D8" height="40.4883" rx="4" ry="4" style="stroke: #979797; stroke-width: 1.0;" width="76" x="613.5" y="2611.6738"/><text fill="#000000" font-family="sans-serif" font-size="14" lengthAdjust="spacingAndGlyphs" textLength="52" x="625.5" y="2637.209">Forums</text><rect fill="#D8D8D8" height="40.4883" rx="4" ry="4" style="stroke: #979797; stroke-width: 1.0;" width="103" x="878" y="3"/><text fill="#000000" font-family="sans-serif" font-size="14" lengthAdjust="spacingAndGlyphs" textLength="79" x="890" y="28.5352">FusionAuth</text><rect fill="#D8D8D8" height="40.4883" rx="4" ry="4" style="stroke: #979797; stroke-width: 1.0;" width="103" x="878" y="2611.6738"/><text fill="#000000" font-family="sans-serif" font-size="14" lengthAdjust="spacingAndGlyphs" textLength="79" x="890" y="2637.209">FusionAuth</text><rect fill="#D8D8D8" height="40.4883" rx="4" ry="4" style="stroke: #979797; stroke-width: 1.0;" width="71" x="1041" y="3"/><text fill="#000000" font-family="sans-serif" font-size="14" lengthAdjust="spacingAndGlyphs" textLength="47" x="1053" y="28.5352">Hacker</text><rect fill="#D8D8D8" height="40.4883" rx="4" ry="4" style="stroke: #979797; stroke-width: 1.0;" width="71" x="1041" y="2611.6738"/><text fill="#000000" font-family="sans-serif" font-size="14" lengthAdjust="spacingAndGlyphs" textLength="47" x="1053" y="2637.209">Hacker</text><rect fill="#3F2C61" height="3" style="stroke: #3F2C61; stroke-width: 1.0;" width="1114" x="3" y="80.1436"/><line style="stroke: #FFFFFF; stroke-width: 0.5;" x1="3" x2="1117" y1="80.1436" y2="80.1436"/><line style="stroke: #FFFFFF; stroke-width: 0.5;" x1="3" x2="1117" y1="83.1436" y2="83.1436"/><rect fill="#3F2C61" height="33.3105" style="stroke: #FFFFFF; stroke-width: 1.0;" width="86" x="517" y="64.4883"/><text fill="#FFFFFF" font-family="sans-serif" font-size="13" font-weight="bold" lengthAdjust="spacingAndGlyphs" textLength="58" x="528" y="86.0566">Initialize</text><polygon fill="#56666F" points="561.5,135.1094,571.5,139.1094,561.5,143.1094,565.5,139.1094" style="stroke: #56666F; stroke-width: 1.0;"/><line style="stroke: #56666F; stroke-width: 1.0;" x1="97.5" x2="567.5" y1="139.1094" y2="139.1094"/><text fill="#000000" font-family="sans-serif" font-size="13" font-weight="bold" lengthAdjust="spacingAndGlyphs" textLength="9" x="109.5" y="129.3672">1</text><text fill="#000000" font-family="sans-serif" font-size="13" lengthAdjust="spacingAndGlyphs" textLength="35" x="132.5" y="129.3672">GET /</text><polygon fill="#56666F" points="108.5,174.4199,98.5,178.4199,108.5,182.4199,104.5,178.4199" style="stroke: #56666F; stroke-width: 1.0;"/><line style="stroke: #56666F; stroke-width: 1.0;" x1="102.5" x2="572.5" y1="178.4199" y2="178.4199"/><text fill="#000000" font-family="sans-serif" font-size="13" font-weight="bold" lengthAdjust="spacingAndGlyphs" textLength="9" x="119.5" y="168.6777">2</text><text fill="#000000" font-family="sans-serif" font-size="13" lengthAdjust="spacingAndGlyphs" textLength="260" x="142.5" y="168.6777">(HTML, CSS &amp; JavaScript - with login link)</text><rect fill="#3F2C61" height="3" style="stroke: #3F2C61; stroke-width: 1.0;" width="1114" x="3" y="212.0752"/><line style="stroke: #FFFFFF; stroke-width: 0.5;" x1="3" x2="1117" y1="212.0752" y2="212.0752"/><line style="stroke: #FFFFFF; stroke-width: 0.5;" x1="3" x2="1117" y1="215.0752" y2="215.0752"/><rect fill="#3F2C61" height="33.3105" style="stroke: #FFFFFF; stroke-width: 1.0;" width="182" x="469" y="196.4199"/><text fill="#FFFFFF" font-family="sans-serif" font-size="13" font-weight="bold" lengthAdjust="spacingAndGlyphs" textLength="154" x="480" y="217.9883">Login (inside WebApp)</text><polygon fill="#56666F" points="561.5,267.041,571.5,271.041,561.5,275.041,565.5,271.041" style="stroke: #56666F; stroke-width: 1.0;"/><line style="stroke: #56666F; stroke-width: 1.0;" x1="97.5" x2="567.5" y1="271.041" y2="271.041"/><text fill="#000000" font-family="sans-serif" font-size="13" font-weight="bold" lengthAdjust="spacingAndGlyphs" textLength="9" x="109.5" y="261.2988">3</text><text fill="#000000" font-family="sans-serif" font-size="13" lengthAdjust="spacingAndGlyphs" textLength="67" x="132.5" y="261.2988">GET /login</text><polygon fill="#56666F" points="108.5,306.3516,98.5,310.3516,108.5,314.3516,104.5,310.3516" style="stroke: #56666F; stroke-width: 1.0;"/><line style="stroke: #56666F; stroke-width: 1.0;" x1="102.5" x2="572.5" y1="310.3516" y2="310.3516"/><text fill="#000000" font-family="sans-serif" font-size="13" font-weight="bold" lengthAdjust="spacingAndGlyphs" textLength="9" x="119.5" y="300.6094">4</text><text fill="#000000" font-family="sans-serif" font-size="13" lengthAdjust="spacingAndGlyphs" textLength="117" x="142.5" y="300.6094">(Login form HTML)</text><polygon fill="#56666F" points="561.5,345.6621,571.5,349.6621,561.5,353.6621,565.5,349.6621" style="stroke: #56666F; stroke-width: 1.0;"/><line style="stroke: #56666F; stroke-width: 1.0;" x1="97.5" x2="567.5" y1="349.6621" y2="349.6621"/><text fill="#000000" font-family="sans-serif" font-size="13" font-weight="bold" lengthAdjust="spacingAndGlyphs" textLength="9" x="109.5" y="339.9199">5</text><text fill="#000000" font-family="sans-serif" font-size="13" lengthAdjust="spacingAndGlyphs" textLength="75" x="132.5" y="339.9199">POST /login</text><polygon fill="#56666F" points="917.5,400.2832,927.5,404.2832,917.5,408.2832,921.5,404.2832" style="stroke: #56666F; stroke-width: 1.0;"/><line style="stroke: #56666F; stroke-width: 1.0;" x1="573.5" x2="923.5" y1="404.2832" y2="404.2832"/><text fill="#000000" font-family="sans-serif" font-size="13" font-weight="bold" lengthAdjust="spacingAndGlyphs" textLength="9" x="585.5" y="386.8857">6</text><text fill="#000000" font-family="sans-serif" font-size="13" lengthAdjust="spacingAndGlyphs" textLength="130" x="608.5" y="379.2305">POST /oauth2/token</text><text fill="#000000" font-family="sans-serif" font-size="13" lengthAdjust="spacingAndGlyphs" textLength="145" x="608.5" y="394.541">(grant_type=password)</text><polygon fill="#56666F" points="584.5,439.5938,574.5,443.5938,584.5,447.5938,580.5,443.5938" style="stroke: #56666F; stroke-width: 1.0;"/><line style="stroke: #56666F; stroke-width: 1.0;" x1="578.5" x2="928.5" y1="443.5938" y2="443.5938"/><text fill="#000000" font-family="sans-serif" font-size="13" font-weight="bold" lengthAdjust="spacingAndGlyphs" textLength="9" x="595.5" y="433.8516">7</text><text fill="#000000" font-family="sans-serif" font-size="13" lengthAdjust="spacingAndGlyphs" textLength="152" x="618.5" y="433.8516">(Refresh Token and JWT)</text><polygon fill="#56666F" points="108.5,494.2148,98.5,498.2148,108.5,502.2148,104.5,498.2148" style="stroke: #56666F; stroke-width: 1.0;"/><line style="stroke: #56666F; stroke-width: 1.0;" x1="102.5" x2="572.5" y1="498.2148" y2="498.2148"/><text fill="#000000" font-family="sans-serif" font-size="13" font-weight="bold" lengthAdjust="spacingAndGlyphs" textLength="9" x="119.5" y="480.8174">8</text><text fill="#000000" font-family="sans-serif" font-size="13" lengthAdjust="spacingAndGlyphs" textLength="188" x="142.5" y="473.1621">302 Location: /shopping-cart</text><text fill="#000000" font-family="sans-serif" font-size="13" lengthAdjust="spacingAndGlyphs" textLength="413" x="142.5" y="488.4727">[Refresh Token and JWT HttpOnly w/ domain: Store.Example.com]</text><rect fill="#3F2C61" height="3" style="stroke: #3F2C61; stroke-width: 1.0;" width="1114" x="3" y="531.8701"/><line style="stroke: #FFFFFF; stroke-width: 0.5;" x1="3" x2="1117" y1="531.8701" y2="531.8701"/><line style="stroke: #FFFFFF; stroke-width: 0.5;" x1="3" x2="1117" y1="534.8701" y2="534.8701"/><rect fill="#3F2C61" height="33.3105" style="stroke: #FFFFFF; stroke-width: 1.0;" width="155" x="482.5" y="516.2148"/><text fill="#FFFFFF" font-family="sans-serif" font-size="13" font-weight="bold" lengthAdjust="spacingAndGlyphs" textLength="127" x="493.5" y="537.7832">Shopping cart load</text><polygon fill="#56666F" points="561.5,602.1465,571.5,606.1465,561.5,610.1465,565.5,606.1465" style="stroke: #56666F; stroke-width: 1.0;"/><line style="stroke: #56666F; stroke-width: 1.0;" x1="97.5" x2="567.5" y1="606.1465" y2="606.1465"/><text fill="#000000" font-family="sans-serif" font-size="13" font-weight="bold" lengthAdjust="spacingAndGlyphs" textLength="9" x="109.5" y="588.749">9</text><text fill="#000000" font-family="sans-serif" font-size="13" lengthAdjust="spacingAndGlyphs" textLength="126" x="132.5" y="581.0938">GET /shopping-cart</text><text fill="#000000" font-family="sans-serif" font-size="13" lengthAdjust="spacingAndGlyphs" textLength="410" x="132.5" y="596.4043">[Refresh token and JWT HttpOnly w/ domain: Store.Example.com]</text><polygon fill="#56666F" points="108.5,641.457,98.5,645.457,108.5,649.457,104.5,645.457" style="stroke: #56666F; stroke-width: 1.0;"/><line style="stroke: #56666F; stroke-width: 1.0;" x1="102.5" x2="572.5" y1="645.457" y2="645.457"/><text fill="#000000" font-family="sans-serif" font-size="13" font-weight="bold" lengthAdjust="spacingAndGlyphs" textLength="18" x="119.5" y="635.7148">10</text><text fill="#000000" font-family="sans-serif" font-size="13" lengthAdjust="spacingAndGlyphs" textLength="135" x="151.5" y="635.7148">(Shopping cart HTML)</text><path d="M42,662.457 L42,689.457 A4,4 0 0 0 46,693.457 L149,693.457 A4,4 0 0 0 153,689.457 L153,668.457 L143,658.457 L46,658.457 A4,4 0 0 0 42,662.457 " fill="#EB8C52" style="stroke: #FFFFFF; stroke-width: 1.0;"/><path d="M143,658.457 L143,666.457 A2,2 0 0 0 145,668.457 L153,668.457 L143,658.457 " fill="#EB8C52" style="stroke: #FFFFFF; stroke-width: 1.0;"/><text fill="#FFFFFF" font-family="sans-serif" font-size="13" font-style="italic" font-weight="bold" lengthAdjust="spacingAndGlyphs" textLength="80" x="53" y="681.0254">JWT expires</text><rect fill="#3F2C61" height="3" style="stroke: #3F2C61; stroke-width: 1.0;" width="1114" x="3" y="724.4229"/><line style="stroke: #FFFFFF; stroke-width: 0.5;" x1="3" x2="1117" y1="724.4229" y2="724.4229"/><line style="stroke: #FFFFFF; stroke-width: 0.5;" x1="3" x2="1117" y1="727.4229" y2="727.4229"/><rect fill="#3F2C61" height="33.3105" style="stroke: #FFFFFF; stroke-width: 1.0;" width="155" x="482.5" y="708.7676"/><text fill="#FFFFFF" font-family="sans-serif" font-size="13" font-weight="bold" lengthAdjust="spacingAndGlyphs" textLength="127" x="493.5" y="730.3359">Shopping cart load</text><polygon fill="#56666F" points="561.5,794.6992,571.5,798.6992,561.5,802.6992,565.5,798.6992" style="stroke: #56666F; stroke-width: 1.0;"/><line style="stroke: #56666F; stroke-width: 1.0;" x1="97.5" x2="567.5" y1="798.6992" y2="798.6992"/><text fill="#000000" font-family="sans-serif" font-size="13" font-weight="bold" lengthAdjust="spacingAndGlyphs" textLength="18" x="109.5" y="781.3018">11</text><text fill="#000000" font-family="sans-serif" font-size="13" lengthAdjust="spacingAndGlyphs" textLength="126" x="141.5" y="773.6465">GET /shopping-cart</text><text fill="#000000" font-family="sans-serif" font-size="13" lengthAdjust="spacingAndGlyphs" textLength="410" x="141.5" y="788.957">[Refresh token and JWT HttpOnly w/ domain: Store.Example.com]</text><polygon fill="#56666F" points="917.5,849.3203,927.5,853.3203,917.5,857.3203,921.5,853.3203" style="stroke: #56666F; stroke-width: 1.0;"/><line style="stroke: #56666F; stroke-width: 1.0;" x1="573.5" x2="923.5" y1="853.3203" y2="853.3203"/><text fill="#000000" font-family="sans-serif" font-size="13" font-weight="bold" lengthAdjust="spacingAndGlyphs" textLength="18" x="585.5" y="835.9229">12</text><text fill="#000000" font-family="sans-serif" font-size="13" lengthAdjust="spacingAndGlyphs" textLength="290" x="617.5" y="828.2676">POST /oauth2/token or POST /api/jwt/refresh</text><text fill="#000000" font-family="sans-serif" font-size="13" lengthAdjust="spacingAndGlyphs" textLength="244" x="617.5" y="843.5781">(grant_type=refresh and refresh token)</text><polygon fill="#56666F" points="584.5,888.6309,574.5,892.6309,584.5,896.6309,580.5,892.6309" style="stroke: #56666F; stroke-width: 1.0;"/><line style="stroke: #56666F; stroke-width: 1.0;" x1="578.5" x2="928.5" y1="892.6309" y2="892.6309"/><text fill="#000000" font-family="sans-serif" font-size="13" font-weight="bold" lengthAdjust="spacingAndGlyphs" textLength="18" x="595.5" y="882.8887">13</text><text fill="#000000" font-family="sans-serif" font-size="13" lengthAdjust="spacingAndGlyphs" textLength="31" x="627.5" y="882.8887">(JWT)</text><polygon fill="#56666F" points="108.5,943.252,98.5,947.252,108.5,951.252,104.5,947.252" style="stroke: #56666F; stroke-width: 1.0;"/><line style="stroke: #56666F; stroke-width: 1.0;" x1="102.5" x2="572.5" y1="947.252" y2="947.252"/><text fill="#000000" font-family="sans-serif" font-size="13" font-weight="bold" lengthAdjust="spacingAndGlyphs" textLength="18" x="119.5" y="929.8545">14</text><text fill="#000000" font-family="sans-serif" font-size="13" lengthAdjust="spacingAndGlyphs" textLength="135" x="151.5" y="922.1992">(Shopping cart HTML)</text><text fill="#000000" font-family="sans-serif" font-size="13" lengthAdjust="spacingAndGlyphs" textLength="323" x="151.5" y="937.5098">[New JWT HttpOnly w/ domain: Store.Example.com]</text><path d="M8,964.252 L8,991.252 A4,4 0 0 0 12,995.252 L183,995.252 A4,4 0 0 0 187,991.252 L187,970.252 L177,960.252 L12,960.252 A4,4 0 0 0 8,964.252 " fill="#EB8C52" style="stroke: #FFFFFF; stroke-width: 1.0;"/><path d="M177,960.252 L177,968.252 A2,2 0 0 0 179,970.252 L187,970.252 L177,960.252 " fill="#EB8C52" style="stroke: #FFFFFF; stroke-width: 1.0;"/><text fill="#FFFFFF" font-family="sans-serif" font-size="13" font-style="italic" font-weight="bold" lengthAdjust="spacingAndGlyphs" textLength="148" x="19" y="982.8203">Refresh token expires</text><rect fill="#3F2C61" height="3" style="stroke: #3F2C61; stroke-width: 1.0;" width="1114" x="3" y="1026.2178"/><line style="stroke: #FFFFFF; stroke-width: 0.5;" x1="3" x2="1117" y1="1026.2178" y2="1026.2178"/><line style="stroke: #FFFFFF; stroke-width: 0.5;" x1="3" x2="1117" y1="1029.2178" y2="1029.2178"/><rect fill="#3F2C61" height="33.3105" style="stroke: #FFFFFF; stroke-width: 1.0;" width="87" x="516.5" y="1010.5625"/><text fill="#FFFFFF" font-family="sans-serif" font-size="13" font-weight="bold" lengthAdjust="spacingAndGlyphs" textLength="59" x="527.5" y="1032.1309">Re-login</text><polygon fill="#56666F" points="561.5,1096.4941,571.5,1100.4941,561.5,1104.4941,565.5,1100.4941" style="stroke: #56666F; stroke-width: 1.0;"/><line style="stroke: #56666F; stroke-width: 1.0;" x1="97.5" x2="567.5" y1="1100.4941" y2="1100.4941"/><text fill="#000000" font-family="sans-serif" font-size="13" font-weight="bold" lengthAdjust="spacingAndGlyphs" textLength="18" x="109.5" y="1083.0967">15</text><text fill="#000000" font-family="sans-serif" font-size="13" lengthAdjust="spacingAndGlyphs" textLength="126" x="141.5" y="1075.4414">GET /shopping-cart</text><text fill="#000000" font-family="sans-serif" font-size="13" lengthAdjust="spacingAndGlyphs" textLength="410" x="141.5" y="1090.752">[Refresh token and JWT HttpOnly w/ domain: Store.Example.com]</text><polygon fill="#56666F" points="917.5,1151.1152,927.5,1155.1152,917.5,1159.1152,921.5,1155.1152" style="stroke: #56666F; stroke-width: 1.0;"/><line style="stroke: #56666F; stroke-width: 1.0;" x1="573.5" x2="923.5" y1="1155.1152" y2="1155.1152"/><text fill="#000000" font-family="sans-serif" font-size="13" font-weight="bold" lengthAdjust="spacingAndGlyphs" textLength="18" x="585.5" y="1137.7178">16</text><text fill="#000000" font-family="sans-serif" font-size="13" lengthAdjust="spacingAndGlyphs" textLength="290" x="617.5" y="1130.0625">POST /oauth2/token or POST /api/jwt/refresh</text><text fill="#000000" font-family="sans-serif" font-size="13" lengthAdjust="spacingAndGlyphs" textLength="244" x="617.5" y="1145.373">(grant_type=refresh and refresh token)</text><polygon fill="#EB8C52" points="584.5,1190.4258,574.5,1194.4258,584.5,1198.4258,580.5,1194.4258" style="stroke: #EB8C52; stroke-width: 1.0;"/><line style="stroke: #EB8C52; stroke-width: 1.0;" x1="578.5" x2="928.5" y1="1194.4258" y2="1194.4258"/><text fill="#000000" font-family="sans-serif" font-size="13" font-weight="bold" lengthAdjust="spacingAndGlyphs" textLength="18" x="595.5" y="1184.6836">17</text><text fill="#EB8C52" font-family="sans-serif" font-size="13" lengthAdjust="spacingAndGlyphs" textLength="77" x="627.5" y="1184.6836">404 Missing</text><polygon fill="#56666F" points="108.5,1229.7363,98.5,1233.7363,108.5,1237.7363,104.5,1233.7363" style="stroke: #56666F; stroke-width: 1.0;"/><line style="stroke: #56666F; stroke-width: 1.0;" x1="102.5" x2="572.5" y1="1233.7363" y2="1233.7363"/><text fill="#000000" font-family="sans-serif" font-size="13" font-weight="bold" lengthAdjust="spacingAndGlyphs" textLength="18" x="119.5" y="1223.9941">18</text><text fill="#000000" font-family="sans-serif" font-size="13" lengthAdjust="spacingAndGlyphs" textLength="129" x="151.5" y="1223.9941">302 Location: /login</text><line style="stroke: #56666F; stroke-width: 1.0;" x1="97.5" x2="139.5" y1="1273.0469" y2="1273.0469"/><line style="stroke: #56666F; stroke-width: 1.0;" x1="139.5" x2="139.5" y1="1273.0469" y2="1286.0469"/><line style="stroke: #56666F; stroke-width: 1.0;" x1="98.5" x2="139.5" y1="1286.0469" y2="1286.0469"/><polygon fill="#56666F" points="108.5,1282.0469,98.5,1286.0469,108.5,1290.0469,104.5,1286.0469" style="stroke: #56666F; stroke-width: 1.0;"/><text fill="#000000" font-family="sans-serif" font-size="13" font-weight="bold" lengthAdjust="spacingAndGlyphs" textLength="18" x="109.5" y="1263.3047">19</text><text fill="#000000" font-family="sans-serif" font-size="13" lengthAdjust="spacingAndGlyphs" textLength="131" x="141.5" y="1263.3047">Login same as above</text><path d="M62,1353.0469 L62,1380.0469 A4,4 0 0 0 66,1384.0469 L1107,1384.0469 A4,4 0 0 0 1111,1380.0469 L1111,1359.0469 L1101,1349.0469 L66,1349.0469 A4,4 0 0 0 62,1353.0469 " fill="#8B80A1" style="stroke: #FFFFFF; stroke-width: 1.0;"/><path d="M1101,1349.0469 L1101,1357.0469 A2,2 0 0 0 1103,1359.0469 L1111,1359.0469 L1101,1349.0469 " fill="#8B80A1" style="stroke: #FFFFFF; stroke-width: 1.0;"/><text fill="#FFFFFF" font-family="sans-serif" font-size="13" font-style="italic" lengthAdjust="spacingAndGlyphs" textLength="429" x="367.5" y="1371.6152">SSO login to forums - not provided by FusionAuth for this workflow</text><rect fill="#3F2C61" height="3" style="stroke: #3F2C61; stroke-width: 1.0;" width="1114" x="3" y="1465.0127"/><line style="stroke: #FFFFFF; stroke-width: 0.5;" x1="3" x2="1117" y1="1465.0127" y2="1465.0127"/><line style="stroke: #FFFFFF; stroke-width: 0.5;" x1="3" x2="1117" y1="1468.0127" y2="1468.0127"/><rect fill="#3F2C61" height="33.3105" style="stroke: #FFFFFF; stroke-width: 1.0;" width="86" x="517" y="1449.3574"/><text fill="#FFFFFF" font-family="sans-serif" font-size="13" font-weight="bold" lengthAdjust="spacingAndGlyphs" textLength="58" x="528" y="1470.9258">Initialize</text><polygon fill="#56666F" points="601.5,1535.2891,611.5,1539.2891,601.5,1543.2891,605.5,1539.2891" style="stroke: #56666F; stroke-width: 1.0;"/><line style="stroke: #56666F; stroke-width: 1.0;" x1="97.5" x2="607.5" y1="1539.2891" y2="1539.2891"/><text fill="#000000" font-family="sans-serif" font-size="13" font-weight="bold" lengthAdjust="spacingAndGlyphs" textLength="18" x="109.5" y="1521.8916">20</text><text fill="#000000" font-family="sans-serif" font-size="13" lengthAdjust="spacingAndGlyphs" textLength="35" x="141.5" y="1514.2363">GET /</text><text fill="#000000" font-family="sans-serif" font-size="13" lengthAdjust="spacingAndGlyphs" textLength="79" x="141.5" y="1529.5469">[No cookies]</text><rect fill="#D8D8D8" height="40.4883" rx="4" ry="4" style="stroke: #979797; stroke-width: 1.0;" width="76" x="613.5" y="1495.8008"/><text fill="#000000" font-family="sans-serif" font-size="14" lengthAdjust="spacingAndGlyphs" textLength="52" x="625.5" y="1521.3359">Forums</text><polygon fill="#56666F" points="108.5,1574.5996,98.5,1578.5996,108.5,1582.5996,104.5,1578.5996" style="stroke: #56666F; stroke-width: 1.0;"/><line style="stroke: #56666F; stroke-width: 1.0;" x1="102.5" x2="650.5" y1="1578.5996" y2="1578.5996"/><text fill="#000000" font-family="sans-serif" font-size="13" font-weight="bold" lengthAdjust="spacingAndGlyphs" textLength="18" x="119.5" y="1568.8574">21</text><text fill="#000000" font-family="sans-serif" font-size="13" lengthAdjust="spacingAndGlyphs" textLength="260" x="151.5" y="1568.8574">(HTML, CSS &amp; JavaScript - with login link)</text><rect fill="#3F2C61" height="3" style="stroke: #3F2C61; stroke-width: 1.0;" width="1114" x="3" y="1612.2549"/><line style="stroke: #FFFFFF; stroke-width: 0.5;" x1="3" x2="1117" y1="1612.2549" y2="1612.2549"/><line style="stroke: #FFFFFF; stroke-width: 0.5;" x1="3" x2="1117" y1="1615.2549" y2="1615.2549"/><rect fill="#3F2C61" height="33.3105" style="stroke: #FFFFFF; stroke-width: 1.0;" width="182" x="469" y="1596.5996"/><text fill="#FFFFFF" font-family="sans-serif" font-size="13" font-weight="bold" lengthAdjust="spacingAndGlyphs" textLength="154" x="480" y="1618.168">Login (inside WebApp)</text><polygon fill="#56666F" points="639.5,1667.2207,649.5,1671.2207,639.5,1675.2207,643.5,1671.2207" style="stroke: #56666F; stroke-width: 1.0;"/><line style="stroke: #56666F; stroke-width: 1.0;" x1="97.5" x2="645.5" y1="1671.2207" y2="1671.2207"/><text fill="#000000" font-family="sans-serif" font-size="13" font-weight="bold" lengthAdjust="spacingAndGlyphs" textLength="18" x="109.5" y="1661.4785">22</text><text fill="#000000" font-family="sans-serif" font-size="13" lengthAdjust="spacingAndGlyphs" textLength="67" x="141.5" y="1661.4785">GET /login</text><polygon fill="#56666F" points="108.5,1706.5313,98.5,1710.5313,108.5,1714.5313,104.5,1710.5313" style="stroke: #56666F; stroke-width: 1.0;"/><line style="stroke: #56666F; stroke-width: 1.0;" x1="102.5" x2="650.5" y1="1710.5313" y2="1710.5313"/><text fill="#000000" font-family="sans-serif" font-size="13" font-weight="bold" lengthAdjust="spacingAndGlyphs" textLength="18" x="119.5" y="1700.7891">23</text><text fill="#000000" font-family="sans-serif" font-size="13" lengthAdjust="spacingAndGlyphs" textLength="117" x="151.5" y="1700.7891">(Login form HTML)</text><polygon fill="#56666F" points="639.5,1745.8418,649.5,1749.8418,639.5,1753.8418,643.5,1749.8418" style="stroke: #56666F; stroke-width: 1.0;"/><line style="stroke: #56666F; stroke-width: 1.0;" x1="97.5" x2="645.5" y1="1749.8418" y2="1749.8418"/><text fill="#000000" font-family="sans-serif" font-size="13" font-weight="bold" lengthAdjust="spacingAndGlyphs" textLength="18" x="109.5" y="1740.0996">24</text><text fill="#000000" font-family="sans-serif" font-size="13" lengthAdjust="spacingAndGlyphs" textLength="75" x="141.5" y="1740.0996">POST /login</text><polygon fill="#56666F" points="917.5,1800.4629,927.5,1804.4629,917.5,1808.4629,921.5,1804.4629" style="stroke: #56666F; stroke-width: 1.0;"/><line style="stroke: #56666F; stroke-width: 1.0;" x1="651.5" x2="923.5" y1="1804.4629" y2="1804.4629"/><text fill="#000000" font-family="sans-serif" font-size="13" font-weight="bold" lengthAdjust="spacingAndGlyphs" textLength="18" x="663.5" y="1787.0654">25</text><text fill="#000000" font-family="sans-serif" font-size="13" lengthAdjust="spacingAndGlyphs" textLength="130" x="695.5" y="1779.4102">POST /oauth2/token</text><text fill="#000000" font-family="sans-serif" font-size="13" lengthAdjust="spacingAndGlyphs" textLength="145" x="695.5" y="1794.7207">(grant_type=password)</text><polygon fill="#56666F" points="662.5,1839.7734,652.5,1843.7734,662.5,1847.7734,658.5,1843.7734" style="stroke: #56666F; stroke-width: 1.0;"/><line style="stroke: #56666F; stroke-width: 1.0;" x1="656.5" x2="928.5" y1="1843.7734" y2="1843.7734"/><text fill="#000000" font-family="sans-serif" font-size="13" font-weight="bold" lengthAdjust="spacingAndGlyphs" textLength="18" x="673.5" y="1834.0313">26</text><text fill="#000000" font-family="sans-serif" font-size="13" lengthAdjust="spacingAndGlyphs" textLength="152" x="705.5" y="1834.0313">(Refresh Token and JWT)</text><polygon fill="#56666F" points="108.5,1894.3945,98.5,1898.3945,108.5,1902.3945,104.5,1898.3945" style="stroke: #56666F; stroke-width: 1.0;"/><line style="stroke: #56666F; stroke-width: 1.0;" x1="102.5" x2="650.5" y1="1898.3945" y2="1898.3945"/><text fill="#000000" font-family="sans-serif" font-size="13" font-weight="bold" lengthAdjust="spacingAndGlyphs" textLength="18" x="119.5" y="1880.9971">27</text><text fill="#000000" font-family="sans-serif" font-size="13" lengthAdjust="spacingAndGlyphs" textLength="132" x="151.5" y="1873.3418">302 Location: /posts</text><text fill="#000000" font-family="sans-serif" font-size="13" lengthAdjust="spacingAndGlyphs" textLength="428" x="151.5" y="1888.6523">[Refresh Token and JWT HttpOnly w/ domain: Forums.Example.com]</text><rect fill="#3F2C61" height="3" style="stroke: #3F2C61; stroke-width: 1.0;" width="1114" x="3" y="1932.0498"/><line style="stroke: #FFFFFF; stroke-width: 0.5;" x1="3" x2="1117" y1="1932.0498" y2="1932.0498"/><line style="stroke: #FFFFFF; stroke-width: 0.5;" x1="3" x2="1117" y1="1935.0498" y2="1935.0498"/><rect fill="#3F2C61" height="33.3105" style="stroke: #FFFFFF; stroke-width: 1.0;" width="104" x="508" y="1916.3945"/><text fill="#FFFFFF" font-family="sans-serif" font-size="13" font-weight="bold" lengthAdjust="spacingAndGlyphs" textLength="76" x="519" y="1937.9629">Forum load</text><polygon fill="#56666F" points="639.5,2002.3262,649.5,2006.3262,639.5,2010.3262,643.5,2006.3262" style="stroke: #56666F; stroke-width: 1.0;"/><line style="stroke: #56666F; stroke-width: 1.0;" x1="97.5" x2="645.5" y1="2006.3262" y2="2006.3262"/><text fill="#000000" font-family="sans-serif" font-size="13" font-weight="bold" lengthAdjust="spacingAndGlyphs" textLength="18" x="109.5" y="1988.9287">28</text><text fill="#000000" font-family="sans-serif" font-size="13" lengthAdjust="spacingAndGlyphs" textLength="70" x="141.5" y="1981.2734">GET /posts</text><text fill="#000000" font-family="sans-serif" font-size="13" lengthAdjust="spacingAndGlyphs" textLength="425" x="141.5" y="1996.584">[Refresh token and JWT HttpOnly w/ domain: Forums.Example.com]</text><polygon fill="#56666F" points="108.5,2041.6367,98.5,2045.6367,108.5,2049.6367,104.5,2045.6367" style="stroke: #56666F; stroke-width: 1.0;"/><line style="stroke: #56666F; stroke-width: 1.0;" x1="102.5" x2="650.5" y1="2045.6367" y2="2045.6367"/><text fill="#000000" font-family="sans-serif" font-size="13" font-weight="bold" lengthAdjust="spacingAndGlyphs" textLength="18" x="119.5" y="2035.8945">29</text><text fill="#000000" font-family="sans-serif" font-size="13" lengthAdjust="spacingAndGlyphs" textLength="127" x="151.5" y="2035.8945">(Forum posts HTML)</text><path d="M62,2112.6367 L62,2139.6367 A4,4 0 0 0 66,2143.6367 L1107,2143.6367 A4,4 0 0 0 1111,2139.6367 L1111,2118.6367 L1101,2108.6367 L66,2108.6367 A4,4 0 0 0 62,2112.6367 " fill="#8B80A1" style="stroke: #FFFFFF; stroke-width: 1.0;"/><path d="M1101,2108.6367 L1101,2116.6367 A2,2 0 0 0 1103,2118.6367 L1111,2118.6367 L1101,2108.6367 " fill="#8B80A1" style="stroke: #FFFFFF; stroke-width: 1.0;"/><text fill="#FFFFFF" font-family="sans-serif" font-size="13" font-style="italic" lengthAdjust="spacingAndGlyphs" textLength="91" x="536.5" y="2131.2051">Attack vectors</text><rect fill="#3F2C61" height="3" style="stroke: #3F2C61; stroke-width: 1.0;" width="1114" x="3" y="2224.6025"/><line style="stroke: #FFFFFF; stroke-width: 0.5;" x1="3" x2="1117" y1="2224.6025" y2="2224.6025"/><line style="stroke: #FFFFFF; stroke-width: 0.5;" x1="3" x2="1117" y1="2227.6025" y2="2227.6025"/><rect fill="#3F2C61" height="33.3105" style="stroke: #FFFFFF; stroke-width: 1.0;" width="164" x="478" y="2208.9473"/><text fill="#FFFFFF" font-family="sans-serif" font-size="13" font-weight="bold" lengthAdjust="spacingAndGlyphs" textLength="136" x="489" y="2230.5156">Stolen refresh token</text><polygon fill="#56666F" points="584.5,2294.8789,574.5,2298.8789,584.5,2302.8789,580.5,2298.8789" style="stroke: #56666F; stroke-width: 1.0;"/><line style="stroke: #56666F; stroke-width: 1.0;" x1="578.5" x2="1075.5" y1="2298.8789" y2="2298.8789"/><text fill="#000000" font-family="sans-serif" font-size="13" font-weight="bold" lengthAdjust="spacingAndGlyphs" textLength="18" x="595.5" y="2281.4814">30</text><text fill="#000000" font-family="sans-serif" font-size="13" lengthAdjust="spacingAndGlyphs" textLength="126" x="627.5" y="2273.8262">GET /shopping-cart</text><text fill="#000000" font-family="sans-serif" font-size="13" lengthAdjust="spacingAndGlyphs" textLength="437" x="627.5" y="2289.1367">[Refresh token and bad JWT HttpOnly w/ domain: Store.Example.com]</text><polygon fill="#56666F" points="917.5,2349.5,927.5,2353.5,917.5,2357.5,921.5,2353.5" style="stroke: #56666F; stroke-width: 1.0;"/><line style="stroke: #56666F; stroke-width: 1.0;" x1="573.5" x2="923.5" y1="2353.5" y2="2353.5"/><text fill="#000000" font-family="sans-serif" font-size="13" font-weight="bold" lengthAdjust="spacingAndGlyphs" textLength="18" x="585.5" y="2336.1025">31</text><text fill="#000000" font-family="sans-serif" font-size="13" lengthAdjust="spacingAndGlyphs" textLength="290" x="617.5" y="2328.4473">POST /oauth2/token or POST /api/jwt/refresh</text><text fill="#000000" font-family="sans-serif" font-size="13" lengthAdjust="spacingAndGlyphs" textLength="244" x="617.5" y="2343.7578">(grant_type=refresh and refresh token)</text><polygon fill="#56666F" points="584.5,2388.8105,574.5,2392.8105,584.5,2396.8105,580.5,2392.8105" style="stroke: #56666F; stroke-width: 1.0;"/><line style="stroke: #56666F; stroke-width: 1.0;" x1="578.5" x2="928.5" y1="2392.8105" y2="2392.8105"/><text fill="#000000" font-family="sans-serif" font-size="13" font-weight="bold" lengthAdjust="spacingAndGlyphs" textLength="18" x="595.5" y="2383.0684">32</text><text fill="#000000" font-family="sans-serif" font-size="13" lengthAdjust="spacingAndGlyphs" textLength="31" x="627.5" y="2383.0684">(JWT)</text><polygon fill="#56666F" points="1064.5,2443.4316,1074.5,2447.4316,1064.5,2451.4316,1068.5,2447.4316" style="stroke: #56666F; stroke-width: 1.0;"/><line style="stroke: #56666F; stroke-width: 1.0;" x1="573.5" x2="1070.5" y1="2447.4316" y2="2447.4316"/><text fill="#000000" font-family="sans-serif" font-size="13" font-weight="bold" lengthAdjust="spacingAndGlyphs" textLength="18" x="585.5" y="2430.0342">33</text><text fill="#000000" font-family="sans-serif" font-size="13" lengthAdjust="spacingAndGlyphs" textLength="135" x="617.5" y="2422.3789">(Shopping cart HTML)</text><text fill="#000000" font-family="sans-serif" font-size="13" lengthAdjust="spacingAndGlyphs" textLength="323" x="617.5" y="2437.6895">[New JWT HttpOnly w/ domain: Store.Example.com]</text><rect fill="#3F2C61" height="3" style="stroke: #3F2C61; stroke-width: 1.0;" width="1114" x="3" y="2481.0869"/><line style="stroke: #FFFFFF; stroke-width: 0.5;" x1="3" x2="1117" y1="2481.0869" y2="2481.0869"/><line style="stroke: #FFFFFF; stroke-width: 0.5;" x1="3" x2="1117" y1="2484.0869" y2="2484.0869"/><rect fill="#3F2C61" height="33.3105" style="stroke: #FFFFFF; stroke-width: 1.0;" width="99" x="510.5" y="2465.4316"/><text fill="#FFFFFF" font-family="sans-serif" font-size="13" font-weight="bold" lengthAdjust="spacingAndGlyphs" textLength="71" x="521.5" y="2487">Stolen JWT</text><polygon fill="#56666F" points="584.5,2551.3633,574.5,2555.3633,584.5,2559.3633,580.5,2555.3633" style="stroke: #56666F; stroke-width: 1.0;"/><line style="stroke: #56666F; stroke-width: 1.0;" x1="578.5" x2="1075.5" y1="2555.3633" y2="2555.3633"/><text fill="#000000" font-family="sans-serif" font-size="13" font-weight="bold" lengthAdjust="spacingAndGlyphs" textLength="18" x="595.5" y="2537.9658">34</text><text fill="#000000" font-family="sans-serif" font-size="13" lengthAdjust="spacingAndGlyphs" textLength="126" x="627.5" y="2530.3105">GET /shopping-cart</text><text fill="#000000" font-family="sans-serif" font-size="13" lengthAdjust="spacingAndGlyphs" textLength="292" x="627.5" y="2545.6211">[JWT HttpOnly w/ domain: Store.Example.com]</text><polygon fill="#56666F" points="1064.5,2590.6738,1074.5,2594.6738,1064.5,2598.6738,1068.5,2594.6738" style="stroke: #56666F; stroke-width: 1.0;"/><line style="stroke: #56666F; stroke-width: 1.0;" x1="573.5" x2="1070.5" y1="2594.6738" y2="2594.6738"/><text fill="#000000" font-family="sans-serif" font-size="13" font-weight="bold" lengthAdjust="spacingAndGlyphs" textLength="18" x="585.5" y="2584.9316">35</text><text fill="#000000" font-family="sans-serif" font-size="13" lengthAdjust="spacingAndGlyphs" textLength="135" x="617.5" y="2584.9316">(Shopping cart HTML)</text></g></svg>