<?xml version="1.0" encoding="UTF-8" standalone="no"?><svg xmlns="http://www.w3.org/2000/svg" xmlns:xlink="http://www.w3.org/1999/xlink" contentScriptType="application/ecmascript" contentStyleType="text/css" height="2383px" preserveAspectRatio="none" style="width:1065px;height:2383px;" version="1.1" viewBox="0 0 1065 2383" width="1065px" zoomAndPan="magnify"><defs/><g><rect fill="#D8D8D8" height="40.4883" rx="4" ry="4" style="stroke: #979797; stroke-width: 1.0;" width="76" x="598.5" y="1322.248"/><text fill="#000000" font-family="sans-serif" font-size="14" lengthAdjust="spacingAndGlyphs" textLength="52" x="610.5" y="1347.7832">Forums</text><line style="stroke: #CDCDCD; stroke-width: 1.0; stroke-dasharray: 5.0,5.0;" x1="75" x2="75" y1="44.4883" y2="2333.1895"/><line style="stroke: #CDCDCD; stroke-width: 1.0; stroke-dasharray: 5.0,5.0;" x1="470.5" x2="470.5" y1="44.4883" y2="2333.1895"/><line style="stroke: #CDCDCD; stroke-width: 1.0; stroke-dasharray: 5.0,5.0;" x1="636.5" x2="636.5" y1="1356.4258" y2="2333.1895"/><line style="stroke: #CDCDCD; stroke-width: 1.0; stroke-dasharray: 5.0,5.0;" x1="915" x2="915" y1="44.4883" y2="2333.1895"/><line style="stroke: #CDCDCD; stroke-width: 1.0; stroke-dasharray: 5.0,5.0;" x1="1012" x2="1012" y1="44.4883" y2="2333.1895"/><rect fill="#D8D8D8" height="40.4883" rx="4" ry="4" style="stroke: #979797; stroke-width: 1.0;" width="79" x="36" y="3"/><text fill="#000000" font-family="sans-serif" font-size="14" lengthAdjust="spacingAndGlyphs" textLength="55" x="48" y="28.5352">Browser</text><rect fill="#D8D8D8" height="40.4883" rx="4" ry="4" style="stroke: #979797; stroke-width: 1.0;" width="79" x="36" y="2332.1895"/><text fill="#000000" font-family="sans-serif" font-size="14" lengthAdjust="spacingAndGlyphs" textLength="55" x="48" y="2357.7246">Browser</text><rect fill="#D8D8D8" height="40.4883" rx="4" ry="4" style="stroke: #979797; stroke-width: 1.0;" width="60" x="440.5" y="3"/><text fill="#000000" font-family="sans-serif" font-size="14" lengthAdjust="spacingAndGlyphs" textLength="36" x="452.5" y="28.5352">Store</text><rect fill="#D8D8D8" height="40.4883" rx="4" ry="4" style="stroke: #979797; stroke-width: 1.0;" width="60" x="440.5" y="2332.1895"/><text fill="#000000" font-family="sans-serif" font-size="14" lengthAdjust="spacingAndGlyphs" textLength="36" x="452.5" y="2357.7246">Store</text><rect fill="#D8D8D8" height="40.4883" rx="4" ry="4" style="stroke: #979797; stroke-width: 1.0;" width="76" x="598.5" y="2332.1895"/><text fill="#000000" font-family="sans-serif" font-size="14" lengthAdjust="spacingAndGlyphs" textLength="52" x="610.5" y="2357.7246">Forums</text><rect fill="#D8D8D8" height="40.4883" rx="4" ry="4" style="stroke: #979797; stroke-width: 1.0;" width="103" x="864" y="3"/><text fill="#000000" font-family="sans-serif" font-size="14" lengthAdjust="spacingAndGlyphs" textLength="79" x="876" y="28.5352">FusionAuth</text><rect fill="#D8D8D8" height="40.4883" rx="4" ry="4" style="stroke: #979797; stroke-width: 1.0;" width="103" x="864" y="2332.1895"/><text fill="#000000" font-family="sans-serif" font-size="14" lengthAdjust="spacingAndGlyphs" textLength="79" x="876" y="2357.7246">FusionAuth</text><rect fill="#D8D8D8" height="40.4883" rx="4" ry="4" style="stroke: #979797; stroke-width: 1.0;" width="71" x="977" y="3"/><text fill="#000000" font-family="sans-serif" font-size="14" lengthAdjust="spacingAndGlyphs" textLength="47" x="989" y="28.5352">Hacker</text><rect fill="#D8D8D8" height="40.4883" rx="4" ry="4" style="stroke: #979797; stroke-width: 1.0;" width="71" x="977" y="2332.1895"/><text fill="#000000" font-family="sans-serif" font-size="14" lengthAdjust="spacingAndGlyphs" textLength="47" x="989" y="2357.7246">Hacker</text><rect fill="#3F2C61" height="3" style="stroke: #3F2C61; stroke-width: 1.0;" width="1050" x="3" y="80.1436"/><line style="stroke: #FFFFFF; stroke-width: 0.5;" x1="3" x2="1053" y1="80.1436" y2="80.1436"/><line style="stroke: #FFFFFF; stroke-width: 0.5;" x1="3" x2="1053" y1="83.1436" y2="83.1436"/><rect fill="#3F2C61" height="33.3105" style="stroke: #FFFFFF; stroke-width: 1.0;" width="86" x="485" y="64.4883"/><text fill="#FFFFFF" font-family="sans-serif" font-size="13" font-weight="bold" lengthAdjust="spacingAndGlyphs" textLength="58" x="496" y="86.0566">Initialize</text><polygon fill="#56666F" points="458.5,135.1094,468.5,139.1094,458.5,143.1094,462.5,139.1094" style="stroke: #56666F; stroke-width: 1.0;"/><line style="stroke: #56666F; stroke-width: 1.0;" x1="75.5" x2="464.5" y1="139.1094" y2="139.1094"/><text fill="#000000" font-family="sans-serif" font-size="13" font-weight="bold" lengthAdjust="spacingAndGlyphs" textLength="9" x="87.5" y="129.3672">1</text><text fill="#000000" font-family="sans-serif" font-size="13" lengthAdjust="spacingAndGlyphs" textLength="35" x="110.5" y="129.3672">GET /</text><polygon fill="#56666F" points="86.5,174.4199,76.5,178.4199,86.5,182.4199,82.5,178.4199" style="stroke: #56666F; stroke-width: 1.0;"/><line style="stroke: #56666F; stroke-width: 1.0;" x1="80.5" x2="469.5" y1="178.4199" y2="178.4199"/><text fill="#000000" font-family="sans-serif" font-size="13" font-weight="bold" lengthAdjust="spacingAndGlyphs" textLength="9" x="97.5" y="168.6777">2</text><text fill="#000000" font-family="sans-serif" font-size="13" lengthAdjust="spacingAndGlyphs" textLength="260" x="120.5" y="168.6777">(HTML, CSS &amp; JavaScript - with login link)</text><rect fill="#3F2C61" height="3" style="stroke: #3F2C61; stroke-width: 1.0;" width="1050" x="3" y="212.0752"/><line style="stroke: #FFFFFF; stroke-width: 0.5;" x1="3" x2="1053" y1="212.0752" y2="212.0752"/><line style="stroke: #FFFFFF; stroke-width: 0.5;" x1="3" x2="1053" y1="215.0752" y2="215.0752"/><rect fill="#3F2C61" height="33.3105" style="stroke: #FFFFFF; stroke-width: 1.0;" width="341" x="357.5" y="196.4199"/><text fill="#FFFFFF" font-family="sans-serif" font-size="13" font-weight="bold" lengthAdjust="spacingAndGlyphs" textLength="313" x="368.5" y="217.9883">Login (browser navigates away from WebApp)</text><polygon fill="#56666F" points="903.5,267.041,913.5,271.041,903.5,275.041,907.5,271.041" style="stroke: #56666F; stroke-width: 1.0;"/><line style="stroke: #56666F; stroke-width: 1.0;" x1="75.5" x2="909.5" y1="271.041" y2="271.041"/><text fill="#000000" font-family="sans-serif" font-size="13" font-weight="bold" lengthAdjust="spacingAndGlyphs" textLength="9" x="87.5" y="261.2988">3</text><text fill="#000000" font-family="sans-serif" font-size="13" lengthAdjust="spacingAndGlyphs" textLength="288" x="110.5" y="261.2988">GET /oauth2/authorize {response_type=code}</text><polygon fill="#56666F" points="86.5,306.3516,76.5,310.3516,86.5,314.3516,82.5,310.3516" style="stroke: #56666F; stroke-width: 1.0;"/><line style="stroke: #56666F; stroke-width: 1.0;" x1="80.5" x2="914.5" y1="310.3516" y2="310.3516"/><text fill="#000000" font-family="sans-serif" font-size="13" font-weight="bold" lengthAdjust="spacingAndGlyphs" textLength="9" x="97.5" y="300.6094">4</text><text fill="#000000" font-family="sans-serif" font-size="13" lengthAdjust="spacingAndGlyphs" textLength="117" x="120.5" y="300.6094">(Login form HTML)</text><polygon fill="#56666F" points="903.5,360.9727,913.5,364.9727,903.5,368.9727,907.5,364.9727" style="stroke: #56666F; stroke-width: 1.0;"/><line style="stroke: #56666F; stroke-width: 1.0;" x1="75.5" x2="909.5" y1="364.9727" y2="364.9727"/><text fill="#000000" font-family="sans-serif" font-size="13" font-weight="bold" lengthAdjust="spacingAndGlyphs" textLength="9" x="87.5" y="347.5752">5</text><text fill="#000000" font-family="sans-serif" font-size="13" lengthAdjust="spacingAndGlyphs" textLength="153" x="110.5" y="339.9199">POST /oauth2/authorize</text><text fill="#000000" font-family="sans-serif" font-size="13" lengthAdjust="spacingAndGlyphs" textLength="139" x="110.5" y="355.2305">(response_type=code)</text><polygon fill="#56666F" points="86.5,415.5938,76.5,419.5938,86.5,423.5938,82.5,419.5938" style="stroke: #56666F; stroke-width: 1.0;"/><line style="stroke: #56666F; stroke-width: 1.0;" x1="80.5" x2="914.5" y1="419.5938" y2="419.5938"/><text fill="#000000" font-family="sans-serif" font-size="13" font-weight="bold" lengthAdjust="spacingAndGlyphs" textLength="9" x="97.5" y="402.1963">6</text><text fill="#000000" font-family="sans-serif" font-size="13" lengthAdjust="spacingAndGlyphs" textLength="225" x="120.5" y="394.541">302 Location: {redirect_uri w/ code}</text><text fill="#000000" font-family="sans-serif" font-size="13" lengthAdjust="spacingAndGlyphs" textLength="329" x="120.5" y="409.8516">[SessionId HttpOnly w/ domain: login.fusionauth.io]</text><polygon fill="#56666F" points="458.5,454.9043,468.5,458.9043,458.5,462.9043,462.5,458.9043" style="stroke: #56666F; stroke-width: 1.0;"/><line style="stroke: #56666F; stroke-width: 1.0;" x1="75.5" x2="464.5" y1="458.9043" y2="458.9043"/><text fill="#000000" font-family="sans-serif" font-size="13" font-weight="bold" lengthAdjust="spacingAndGlyphs" textLength="9" x="87.5" y="449.1621">7</text><text fill="#000000" font-family="sans-serif" font-size="13" lengthAdjust="spacingAndGlyphs" textLength="163" x="110.5" y="449.1621">GET {redirect_uri w/ code}</text><polygon fill="#56666F" points="903.5,509.5254,913.5,513.5254,903.5,517.5254,907.5,513.5254" style="stroke: #56666F; stroke-width: 1.0;"/><line style="stroke: #56666F; stroke-width: 1.0;" x1="470.5" x2="909.5" y1="513.5254" y2="513.5254"/><text fill="#000000" font-family="sans-serif" font-size="13" font-weight="bold" lengthAdjust="spacingAndGlyphs" textLength="9" x="482.5" y="496.1279">8</text><text fill="#000000" font-family="sans-serif" font-size="13" lengthAdjust="spacingAndGlyphs" textLength="130" x="505.5" y="488.4727">POST /oauth2/token</text><text fill="#000000" font-family="sans-serif" font-size="13" lengthAdjust="spacingAndGlyphs" textLength="126" x="505.5" y="503.7832">(code, client_secret)</text><polygon fill="#56666F" points="481.5,564.1465,471.5,568.1465,481.5,572.1465,477.5,568.1465" style="stroke: #56666F; stroke-width: 1.0;"/><line style="stroke: #56666F; stroke-width: 1.0;" x1="475.5" x2="914.5" y1="568.1465" y2="568.1465"/><text fill="#000000" font-family="sans-serif" font-size="13" font-weight="bold" lengthAdjust="spacingAndGlyphs" textLength="9" x="492.5" y="550.749">9</text><text fill="#000000" font-family="sans-serif" font-size="13" lengthAdjust="spacingAndGlyphs" textLength="46" x="515.5" y="543.0938">200 Ok</text><text fill="#000000" font-family="sans-serif" font-size="13" lengthAdjust="spacingAndGlyphs" textLength="213" x="515.5" y="558.4043">(Refresh token and JWT - ignored)</text><polygon fill="#56666F" points="86.5,618.7676,76.5,622.7676,86.5,626.7676,82.5,622.7676" style="stroke: #56666F; stroke-width: 1.0;"/><line style="stroke: #56666F; stroke-width: 1.0;" x1="80.5" x2="469.5" y1="622.7676" y2="622.7676"/><text fill="#000000" font-family="sans-serif" font-size="13" font-weight="bold" lengthAdjust="spacingAndGlyphs" textLength="18" x="97.5" y="605.3701">10</text><text fill="#000000" font-family="sans-serif" font-size="13" lengthAdjust="spacingAndGlyphs" textLength="188" x="129.5" y="597.7148">302 Location: /shopping-cart</text><text fill="#000000" font-family="sans-serif" font-size="13" lengthAdjust="spacingAndGlyphs" textLength="329" x="129.5" y="613.0254">[SessionId HttpOnly w/ domain: Store.Example.com]</text><rect fill="#3F2C61" height="3" style="stroke: #3F2C61; stroke-width: 1.0;" width="1050" x="3" y="656.4229"/><line style="stroke: #FFFFFF; stroke-width: 0.5;" x1="3" x2="1053" y1="656.4229" y2="656.4229"/><line style="stroke: #FFFFFF; stroke-width: 0.5;" x1="3" x2="1053" y1="659.4229" y2="659.4229"/><rect fill="#3F2C61" height="33.3105" style="stroke: #FFFFFF; stroke-width: 1.0;" width="155" x="450.5" y="640.7676"/><text fill="#FFFFFF" font-family="sans-serif" font-size="13" font-weight="bold" lengthAdjust="spacingAndGlyphs" textLength="127" x="461.5" y="662.3359">Shopping cart load</text><polygon fill="#56666F" points="458.5,726.6992,468.5,730.6992,458.5,734.6992,462.5,730.6992" style="stroke: #56666F; stroke-width: 1.0;"/><line style="stroke: #56666F; stroke-width: 1.0;" x1="75.5" x2="464.5" y1="730.6992" y2="730.6992"/><text fill="#000000" font-family="sans-serif" font-size="13" font-weight="bold" lengthAdjust="spacingAndGlyphs" textLength="18" x="87.5" y="713.3018">11</text><text fill="#000000" font-family="sans-serif" font-size="13" lengthAdjust="spacingAndGlyphs" textLength="126" x="119.5" y="705.6465">GET /shopping-cart</text><text fill="#000000" font-family="sans-serif" font-size="13" lengthAdjust="spacingAndGlyphs" textLength="329" x="119.5" y="720.957">[SessionId HttpOnly w/ domain: Store.Example.com]</text><line style="stroke: #56666F; stroke-width: 1.0;" x1="470.5" x2="512.5" y1="770.0098" y2="770.0098"/><line style="stroke: #56666F; stroke-width: 1.0;" x1="512.5" x2="512.5" y1="770.0098" y2="783.0098"/><line style="stroke: #56666F; stroke-width: 1.0;" x1="471.5" x2="512.5" y1="783.0098" y2="783.0098"/><polygon fill="#56666F" points="481.5,779.0098,471.5,783.0098,481.5,787.0098,477.5,783.0098" style="stroke: #56666F; stroke-width: 1.0;"/><text fill="#000000" font-family="sans-serif" font-size="13" font-weight="bold" lengthAdjust="spacingAndGlyphs" textLength="18" x="482.5" y="760.2676">12</text><text fill="#000000" font-family="sans-serif" font-size="13" lengthAdjust="spacingAndGlyphs" textLength="110" x="514.5" y="760.2676">Session extended</text><polygon fill="#56666F" points="86.5,818.3203,76.5,822.3203,86.5,826.3203,82.5,822.3203" style="stroke: #56666F; stroke-width: 1.0;"/><line style="stroke: #56666F; stroke-width: 1.0;" x1="80.5" x2="469.5" y1="822.3203" y2="822.3203"/><text fill="#000000" font-family="sans-serif" font-size="13" font-weight="bold" lengthAdjust="spacingAndGlyphs" textLength="18" x="97.5" y="812.5781">13</text><text fill="#000000" font-family="sans-serif" font-size="13" lengthAdjust="spacingAndGlyphs" textLength="135" x="129.5" y="812.5781">(Shopping cart HTML)</text><path d="M8,839.3203 L8,866.3203 A4,4 0 0 0 12,870.3203 L139,870.3203 A4,4 0 0 0 143,866.3203 L143,845.3203 L133,835.3203 L12,835.3203 A4,4 0 0 0 8,839.3203 " fill="#EB8C52" style="stroke: #FFFFFF; stroke-width: 1.0;"/><path d="M133,835.3203 L133,843.3203 A2,2 0 0 0 135,845.3203 L143,845.3203 L133,835.3203 " fill="#EB8C52" style="stroke: #FFFFFF; stroke-width: 1.0;"/><text fill="#FFFFFF" font-family="sans-serif" font-size="13" font-style="italic" font-weight="bold" lengthAdjust="spacingAndGlyphs" textLength="104" x="19" y="857.8887">Session expires</text><rect fill="#3F2C61" height="3" style="stroke: #3F2C61; stroke-width: 1.0;" width="1050" x="3" y="901.2861"/><line style="stroke: #FFFFFF; stroke-width: 0.5;" x1="3" x2="1053" y1="901.2861" y2="901.2861"/><line style="stroke: #FFFFFF; stroke-width: 0.5;" x1="3" x2="1053" y1="904.2861" y2="904.2861"/><rect fill="#3F2C61" height="33.3105" style="stroke: #FFFFFF; stroke-width: 1.0;" width="87" x="484.5" y="885.6309"/><text fill="#FFFFFF" font-family="sans-serif" font-size="13" font-weight="bold" lengthAdjust="spacingAndGlyphs" textLength="59" x="495.5" y="907.1992">Re-login</text><polygon fill="#56666F" points="458.5,971.5625,468.5,975.5625,458.5,979.5625,462.5,975.5625" style="stroke: #56666F; stroke-width: 1.0;"/><line style="stroke: #56666F; stroke-width: 1.0;" x1="75.5" x2="464.5" y1="975.5625" y2="975.5625"/><text fill="#000000" font-family="sans-serif" font-size="13" font-weight="bold" lengthAdjust="spacingAndGlyphs" textLength="18" x="87.5" y="958.165">14</text><text fill="#000000" font-family="sans-serif" font-size="13" lengthAdjust="spacingAndGlyphs" textLength="126" x="119.5" y="950.5098">GET /shopping-cart</text><text fill="#000000" font-family="sans-serif" font-size="13" lengthAdjust="spacingAndGlyphs" textLength="329" x="119.5" y="965.8203">[SessionId HttpOnly w/ domain: Store.Example.com]</text><polygon fill="#56666F" points="86.5,1010.873,76.5,1014.873,86.5,1018.873,82.5,1014.873" style="stroke: #56666F; stroke-width: 1.0;"/><line style="stroke: #56666F; stroke-width: 1.0;" x1="80.5" x2="469.5" y1="1014.873" y2="1014.873"/><text fill="#000000" font-family="sans-serif" font-size="13" font-weight="bold" lengthAdjust="spacingAndGlyphs" textLength="18" x="97.5" y="1005.1309">15</text><text fill="#000000" font-family="sans-serif" font-size="13" lengthAdjust="spacingAndGlyphs" textLength="129" x="129.5" y="1005.1309">302 Location: /login</text><line style="stroke: #56666F; stroke-width: 1.0;" x1="75.5" x2="117.5" y1="1054.1836" y2="1054.1836"/><line style="stroke: #56666F; stroke-width: 1.0;" x1="117.5" x2="117.5" y1="1054.1836" y2="1067.1836"/><line style="stroke: #56666F; stroke-width: 1.0;" x1="76.5" x2="117.5" y1="1067.1836" y2="1067.1836"/><polygon fill="#56666F" points="86.5,1063.1836,76.5,1067.1836,86.5,1071.1836,82.5,1067.1836" style="stroke: #56666F; stroke-width: 1.0;"/><text fill="#000000" font-family="sans-serif" font-size="13" font-weight="bold" lengthAdjust="spacingAndGlyphs" textLength="18" x="87.5" y="1044.4414">16</text><text fill="#000000" font-family="sans-serif" font-size="13" lengthAdjust="spacingAndGlyphs" textLength="131" x="119.5" y="1044.4414">Login same as above</text><path d="M8,1084.1836 L8,1111.1836 A4,4 0 0 0 12,1115.1836 L139,1115.1836 A4,4 0 0 0 143,1111.1836 L143,1090.1836 L133,1080.1836 L12,1080.1836 A4,4 0 0 0 8,1084.1836 " fill="#EB8C52" style="stroke: #FFFFFF; stroke-width: 1.0;"/><path d="M133,1080.1836 L133,1088.1836 A2,2 0 0 0 135,1090.1836 L143,1090.1836 L133,1080.1836 " fill="#EB8C52" style="stroke: #FFFFFF; stroke-width: 1.0;"/><text fill="#FFFFFF" font-family="sans-serif" font-size="13" font-style="italic" font-weight="bold" lengthAdjust="spacingAndGlyphs" textLength="104" x="19" y="1102.752">Session expires</text><path d="M40,1179.4941 L40,1206.4941 A4,4 0 0 0 44,1210.4941 L1043,1210.4941 A4,4 0 0 0 1047,1206.4941 L1047,1185.4941 L1037,1175.4941 L44,1175.4941 A4,4 0 0 0 40,1179.4941 " fill="#8B80A1" style="stroke: #FFFFFF; stroke-width: 1.0;"/><path d="M1037,1175.4941 L1037,1183.4941 A2,2 0 0 0 1039,1185.4941 L1047,1185.4941 L1037,1175.4941 " fill="#8B80A1" style="stroke: #FFFFFF; stroke-width: 1.0;"/><text fill="#FFFFFF" font-family="sans-serif" font-size="13" font-style="italic" lengthAdjust="spacingAndGlyphs" textLength="126" x="476" y="1198.0625">SSO login to forums</text><rect fill="#3F2C61" height="3" style="stroke: #3F2C61; stroke-width: 1.0;" width="1050" x="3" y="1291.46"/><line style="stroke: #FFFFFF; stroke-width: 0.5;" x1="3" x2="1053" y1="1291.46" y2="1291.46"/><line style="stroke: #FFFFFF; stroke-width: 0.5;" x1="3" x2="1053" y1="1294.46" y2="1294.46"/><rect fill="#3F2C61" height="33.3105" style="stroke: #FFFFFF; stroke-width: 1.0;" width="86" x="485" y="1275.8047"/><text fill="#FFFFFF" font-family="sans-serif" font-size="13" font-weight="bold" lengthAdjust="spacingAndGlyphs" textLength="58" x="496" y="1297.373">Initialize</text><polygon fill="#56666F" points="586.5,1361.7363,596.5,1365.7363,586.5,1369.7363,590.5,1365.7363" style="stroke: #56666F; stroke-width: 1.0;"/><line style="stroke: #56666F; stroke-width: 1.0;" x1="75.5" x2="592.5" y1="1365.7363" y2="1365.7363"/><text fill="#000000" font-family="sans-serif" font-size="13" font-weight="bold" lengthAdjust="spacingAndGlyphs" textLength="18" x="87.5" y="1348.3389">17</text><text fill="#000000" font-family="sans-serif" font-size="13" lengthAdjust="spacingAndGlyphs" textLength="35" x="119.5" y="1340.6836">GET /</text><text fill="#000000" font-family="sans-serif" font-size="13" lengthAdjust="spacingAndGlyphs" textLength="79" x="119.5" y="1355.9941">[No cookies]</text><rect fill="#D8D8D8" height="40.4883" rx="4" ry="4" style="stroke: #979797; stroke-width: 1.0;" width="76" x="598.5" y="1322.248"/><text fill="#000000" font-family="sans-serif" font-size="14" lengthAdjust="spacingAndGlyphs" textLength="52" x="610.5" y="1347.7832">Forums</text><polygon fill="#56666F" points="86.5,1401.0469,76.5,1405.0469,86.5,1409.0469,82.5,1405.0469" style="stroke: #56666F; stroke-width: 1.0;"/><line style="stroke: #56666F; stroke-width: 1.0;" x1="80.5" x2="635.5" y1="1405.0469" y2="1405.0469"/><text fill="#000000" font-family="sans-serif" font-size="13" font-weight="bold" lengthAdjust="spacingAndGlyphs" textLength="18" x="97.5" y="1395.3047">18</text><text fill="#000000" font-family="sans-serif" font-size="13" lengthAdjust="spacingAndGlyphs" textLength="260" x="129.5" y="1395.3047">(HTML, CSS &amp; JavaScript - with login link)</text><rect fill="#3F2C61" height="3" style="stroke: #3F2C61; stroke-width: 1.0;" width="1050" x="3" y="1438.7021"/><line style="stroke: #FFFFFF; stroke-width: 0.5;" x1="3" x2="1053" y1="1438.7021" y2="1438.7021"/><line style="stroke: #FFFFFF; stroke-width: 0.5;" x1="3" x2="1053" y1="1441.7021" y2="1441.7021"/><rect fill="#3F2C61" height="33.3105" style="stroke: #FFFFFF; stroke-width: 1.0;" width="621" x="217.5" y="1423.0469"/><text fill="#FFFFFF" font-family="sans-serif" font-size="13" font-weight="bold" lengthAdjust="spacingAndGlyphs" textLength="593" x="228.5" y="1444.6152">Login (browser navigates away from WebApp but auto-logs-in since the session exists)</text><polygon fill="#56666F" points="903.5,1508.9785,913.5,1512.9785,903.5,1516.9785,907.5,1512.9785" style="stroke: #56666F; stroke-width: 1.0;"/><line style="stroke: #56666F; stroke-width: 1.0;" x1="75.5" x2="909.5" y1="1512.9785" y2="1512.9785"/><text fill="#000000" font-family="sans-serif" font-size="13" font-weight="bold" lengthAdjust="spacingAndGlyphs" textLength="18" x="87.5" y="1495.5811">19</text><text fill="#000000" font-family="sans-serif" font-size="13" lengthAdjust="spacingAndGlyphs" textLength="288" x="119.5" y="1487.9258">GET /oauth2/authorize {response_type=code}</text><text fill="#000000" font-family="sans-serif" font-size="13" lengthAdjust="spacingAndGlyphs" textLength="329" x="119.5" y="1503.2363">[SessionId HttpOnly w/ domain: login.fusionauth.io]</text><polygon fill="#56666F" points="86.5,1563.5996,76.5,1567.5996,86.5,1571.5996,82.5,1567.5996" style="stroke: #56666F; stroke-width: 1.0;"/><line style="stroke: #56666F; stroke-width: 1.0;" x1="80.5" x2="914.5" y1="1567.5996" y2="1567.5996"/><text fill="#000000" font-family="sans-serif" font-size="13" font-weight="bold" lengthAdjust="spacingAndGlyphs" textLength="18" x="97.5" y="1550.2021">20</text><text fill="#000000" font-family="sans-serif" font-size="13" lengthAdjust="spacingAndGlyphs" textLength="225" x="129.5" y="1542.5469">302 Location: {redirect_uri w/ code}</text><text fill="#000000" font-family="sans-serif" font-size="13" lengthAdjust="spacingAndGlyphs" textLength="329" x="129.5" y="1557.8574">[SessionId HttpOnly w/ domain: login.fusionauth.io]</text><polygon fill="#56666F" points="624.5,1602.9102,634.5,1606.9102,624.5,1610.9102,628.5,1606.9102" style="stroke: #56666F; stroke-width: 1.0;"/><line style="stroke: #56666F; stroke-width: 1.0;" x1="75.5" x2="630.5" y1="1606.9102" y2="1606.9102"/><text fill="#000000" font-family="sans-serif" font-size="13" font-weight="bold" lengthAdjust="spacingAndGlyphs" textLength="18" x="87.5" y="1597.168">21</text><text fill="#000000" font-family="sans-serif" font-size="13" lengthAdjust="spacingAndGlyphs" textLength="163" x="119.5" y="1597.168">GET {redirect_uri w/ code}</text><polygon fill="#56666F" points="903.5,1657.5313,913.5,1661.5313,903.5,1665.5313,907.5,1661.5313" style="stroke: #56666F; stroke-width: 1.0;"/><line style="stroke: #56666F; stroke-width: 1.0;" x1="636.5" x2="909.5" y1="1661.5313" y2="1661.5313"/><text fill="#000000" font-family="sans-serif" font-size="13" font-weight="bold" lengthAdjust="spacingAndGlyphs" textLength="18" x="648.5" y="1644.1338">22</text><text fill="#000000" font-family="sans-serif" font-size="13" lengthAdjust="spacingAndGlyphs" textLength="130" x="680.5" y="1636.4785">POST /oauth2/token</text><text fill="#000000" font-family="sans-serif" font-size="13" lengthAdjust="spacingAndGlyphs" textLength="126" x="680.5" y="1651.7891">(code, client_secret)</text><polygon fill="#56666F" points="647.5,1712.1523,637.5,1716.1523,647.5,1720.1523,643.5,1716.1523" style="stroke: #56666F; stroke-width: 1.0;"/><line style="stroke: #56666F; stroke-width: 1.0;" x1="641.5" x2="914.5" y1="1716.1523" y2="1716.1523"/><text fill="#000000" font-family="sans-serif" font-size="13" font-weight="bold" lengthAdjust="spacingAndGlyphs" textLength="18" x="658.5" y="1698.7549">23</text><text fill="#000000" font-family="sans-serif" font-size="13" lengthAdjust="spacingAndGlyphs" textLength="46" x="690.5" y="1691.0996">200 Ok</text><text fill="#000000" font-family="sans-serif" font-size="13" lengthAdjust="spacingAndGlyphs" textLength="213" x="690.5" y="1706.4102">(Refresh token and JWT - ignored)</text><polygon fill="#56666F" points="86.5,1766.7734,76.5,1770.7734,86.5,1774.7734,82.5,1770.7734" style="stroke: #56666F; stroke-width: 1.0;"/><line style="stroke: #56666F; stroke-width: 1.0;" x1="80.5" x2="635.5" y1="1770.7734" y2="1770.7734"/><text fill="#000000" font-family="sans-serif" font-size="13" font-weight="bold" lengthAdjust="spacingAndGlyphs" textLength="18" x="97.5" y="1753.376">24</text><text fill="#000000" font-family="sans-serif" font-size="13" lengthAdjust="spacingAndGlyphs" textLength="132" x="129.5" y="1745.7207">302 Location: /posts</text><text fill="#000000" font-family="sans-serif" font-size="13" lengthAdjust="spacingAndGlyphs" textLength="329" x="129.5" y="1761.0313">[SessionId HttpOnly w/ domain: Store.Example.com]</text><rect fill="#3F2C61" height="3" style="stroke: #3F2C61; stroke-width: 1.0;" width="1050" x="3" y="1804.4287"/><line style="stroke: #FFFFFF; stroke-width: 0.5;" x1="3" x2="1053" y1="1804.4287" y2="1804.4287"/><line style="stroke: #FFFFFF; stroke-width: 0.5;" x1="3" x2="1053" y1="1807.4287" y2="1807.4287"/><rect fill="#3F2C61" height="33.3105" style="stroke: #FFFFFF; stroke-width: 1.0;" width="104" x="476" y="1788.7734"/><text fill="#FFFFFF" font-family="sans-serif" font-size="13" font-weight="bold" lengthAdjust="spacingAndGlyphs" textLength="76" x="487" y="1810.3418">Forum load</text><polygon fill="#56666F" points="624.5,1874.7051,634.5,1878.7051,624.5,1882.7051,628.5,1878.7051" style="stroke: #56666F; stroke-width: 1.0;"/><line style="stroke: #56666F; stroke-width: 1.0;" x1="75.5" x2="630.5" y1="1878.7051" y2="1878.7051"/><text fill="#000000" font-family="sans-serif" font-size="13" font-weight="bold" lengthAdjust="spacingAndGlyphs" textLength="18" x="87.5" y="1861.3076">25</text><text fill="#000000" font-family="sans-serif" font-size="13" lengthAdjust="spacingAndGlyphs" textLength="70" x="119.5" y="1853.6523">GET /posts</text><text fill="#000000" font-family="sans-serif" font-size="13" lengthAdjust="spacingAndGlyphs" textLength="344" x="119.5" y="1868.9629">[SessionId HttpOnly w/ domain: Forums.Example.com]</text><line style="stroke: #56666F; stroke-width: 1.0;" x1="636.5" x2="678.5" y1="1918.0156" y2="1918.0156"/><line style="stroke: #56666F; stroke-width: 1.0;" x1="678.5" x2="678.5" y1="1918.0156" y2="1931.0156"/><line style="stroke: #56666F; stroke-width: 1.0;" x1="637.5" x2="678.5" y1="1931.0156" y2="1931.0156"/><polygon fill="#56666F" points="647.5,1927.0156,637.5,1931.0156,647.5,1935.0156,643.5,1931.0156" style="stroke: #56666F; stroke-width: 1.0;"/><text fill="#000000" font-family="sans-serif" font-size="13" font-weight="bold" lengthAdjust="spacingAndGlyphs" textLength="18" x="648.5" y="1908.2734">26</text><text fill="#000000" font-family="sans-serif" font-size="13" lengthAdjust="spacingAndGlyphs" textLength="110" x="680.5" y="1908.2734">Session extended</text><polygon fill="#56666F" points="86.5,1966.3262,76.5,1970.3262,86.5,1974.3262,82.5,1970.3262" style="stroke: #56666F; stroke-width: 1.0;"/><line style="stroke: #56666F; stroke-width: 1.0;" x1="80.5" x2="635.5" y1="1970.3262" y2="1970.3262"/><text fill="#000000" font-family="sans-serif" font-size="13" font-weight="bold" lengthAdjust="spacingAndGlyphs" textLength="18" x="97.5" y="1960.584">27</text><text fill="#000000" font-family="sans-serif" font-size="13" lengthAdjust="spacingAndGlyphs" textLength="127" x="129.5" y="1960.584">(Forum posts HTML)</text><path d="M40,2037.3262 L40,2064.3262 A4,4 0 0 0 44,2068.3262 L1043,2068.3262 A4,4 0 0 0 1047,2064.3262 L1047,2043.3262 L1037,2033.3262 L44,2033.3262 A4,4 0 0 0 40,2037.3262 " fill="#8B80A1" style="stroke: #FFFFFF; stroke-width: 1.0;"/><path d="M1037,2033.3262 L1037,2041.3262 A2,2 0 0 0 1039,2043.3262 L1047,2043.3262 L1037,2033.3262 " fill="#8B80A1" style="stroke: #FFFFFF; stroke-width: 1.0;"/><text fill="#FFFFFF" font-family="sans-serif" font-size="13" font-style="italic" lengthAdjust="spacingAndGlyphs" textLength="91" x="493.5" y="2055.8945">Attack vectors</text><rect fill="#3F2C61" height="3" style="stroke: #3F2C61; stroke-width: 1.0;" width="1050" x="3" y="2149.292"/><line style="stroke: #FFFFFF; stroke-width: 0.5;" x1="3" x2="1053" y1="2149.292" y2="2149.292"/><line style="stroke: #FFFFFF; stroke-width: 0.5;" x1="3" x2="1053" y1="2152.292" y2="2152.292"/><rect fill="#3F2C61" height="33.3105" style="stroke: #FFFFFF; stroke-width: 1.0;" width="140" x="458" y="2133.6367"/><text fill="#FFFFFF" font-family="sans-serif" font-size="13" font-weight="bold" lengthAdjust="spacingAndGlyphs" textLength="112" x="469" y="2155.2051">Stolen session id</text><polygon fill="#56666F" points="481.5,2219.5684,471.5,2223.5684,481.5,2227.5684,477.5,2223.5684" style="stroke: #56666F; stroke-width: 1.0;"/><line style="stroke: #56666F; stroke-width: 1.0;" x1="475.5" x2="1011.5" y1="2223.5684" y2="2223.5684"/><text fill="#000000" font-family="sans-serif" font-size="13" font-weight="bold" lengthAdjust="spacingAndGlyphs" textLength="18" x="492.5" y="2206.1709">28</text><text fill="#000000" font-family="sans-serif" font-size="13" lengthAdjust="spacingAndGlyphs" textLength="126" x="524.5" y="2198.5156">GET /shopping-cart</text><text fill="#000000" font-family="sans-serif" font-size="13" lengthAdjust="spacingAndGlyphs" textLength="329" x="524.5" y="2213.8262">[SessionId HttpOnly w/ domain: Store.Example.com]</text><line style="stroke: #56666F; stroke-width: 1.0;" x1="470.5" x2="512.5" y1="2262.8789" y2="2262.8789"/><line style="stroke: #56666F; stroke-width: 1.0;" x1="512.5" x2="512.5" y1="2262.8789" y2="2275.8789"/><line style="stroke: #56666F; stroke-width: 1.0;" x1="471.5" x2="512.5" y1="2275.8789" y2="2275.8789"/><polygon fill="#56666F" points="481.5,2271.8789,471.5,2275.8789,481.5,2279.8789,477.5,2275.8789" style="stroke: #56666F; stroke-width: 1.0;"/><text fill="#000000" font-family="sans-serif" font-size="13" font-weight="bold" lengthAdjust="spacingAndGlyphs" textLength="18" x="482.5" y="2253.1367">29</text><text fill="#000000" font-family="sans-serif" font-size="13" lengthAdjust="spacingAndGlyphs" textLength="110" x="514.5" y="2253.1367">Session extended</text><polygon fill="#56666F" points="1000.5,2311.1895,1010.5,2315.1895,1000.5,2319.1895,1004.5,2315.1895" style="stroke: #56666F; stroke-width: 1.0;"/><line style="stroke: #56666F; stroke-width: 1.0;" x1="470.5" x2="1006.5" y1="2315.1895" y2="2315.1895"/><text fill="#000000" font-family="sans-serif" font-size="13" font-weight="bold" lengthAdjust="spacingAndGlyphs" textLength="18" x="482.5" y="2305.4473">30</text><text fill="#000000" font-family="sans-serif" font-size="13" lengthAdjust="spacingAndGlyphs" textLength="135" x="514.5" y="2305.4473">(Shopping cart HTML)</text></g></svg>