<?xml version="1.0" encoding="UTF-8" standalone="no"?><svg xmlns="http://www.w3.org/2000/svg" xmlns:xlink="http://www.w3.org/1999/xlink" contentScriptType="application/ecmascript" contentStyleType="text/css" height="2272px" preserveAspectRatio="none" style="width:1144px;height:2272px;" version="1.1" viewBox="0 0 1144 2272" width="1144px" zoomAndPan="magnify"><defs/><g><rect fill="#D8D8D8" height="40.4883" rx="4" ry="4" style="stroke: #979797; stroke-width: 1.0;" width="76" x="695.5" y="1204.6953"/><text fill="#000000" font-family="sans-serif" font-size="14" lengthAdjust="spacingAndGlyphs" textLength="52" x="707.5" y="1230.2305">Forums</text><line style="stroke: #CDCDCD; stroke-width: 1.0; stroke-dasharray: 5.0,5.0;" x1="75" x2="75" y1="44.4883" y2="2222.0156"/><line style="stroke: #CDCDCD; stroke-width: 1.0; stroke-dasharray: 5.0,5.0;" x1="470.5" x2="470.5" y1="44.4883" y2="2222.0156"/><line style="stroke: #CDCDCD; stroke-width: 1.0; stroke-dasharray: 5.0,5.0;" x1="733.5" x2="733.5" y1="1238.873" y2="2222.0156"/><line style="stroke: #CDCDCD; stroke-width: 1.0; stroke-dasharray: 5.0,5.0;" x1="994" x2="994" y1="44.4883" y2="2222.0156"/><line style="stroke: #CDCDCD; stroke-width: 1.0; stroke-dasharray: 5.0,5.0;" x1="1091" x2="1091" y1="44.4883" y2="2222.0156"/><rect fill="#D8D8D8" height="40.4883" rx="4" ry="4" style="stroke: #979797; stroke-width: 1.0;" width="79" x="36" y="3"/><text fill="#000000" font-family="sans-serif" font-size="14" lengthAdjust="spacingAndGlyphs" textLength="55" x="48" y="28.5352">Browser</text><rect fill="#D8D8D8" height="40.4883" rx="4" ry="4" style="stroke: #979797; stroke-width: 1.0;" width="79" x="36" y="2221.0156"/><text fill="#000000" font-family="sans-serif" font-size="14" lengthAdjust="spacingAndGlyphs" textLength="55" x="48" y="2246.5508">Browser</text><rect fill="#D8D8D8" height="40.4883" rx="4" ry="4" style="stroke: #979797; stroke-width: 1.0;" width="60" x="440.5" y="3"/><text fill="#000000" font-family="sans-serif" font-size="14" lengthAdjust="spacingAndGlyphs" textLength="36" x="452.5" y="28.5352">Store</text><rect fill="#D8D8D8" height="40.4883" rx="4" ry="4" style="stroke: #979797; stroke-width: 1.0;" width="60" x="440.5" y="2221.0156"/><text fill="#000000" font-family="sans-serif" font-size="14" lengthAdjust="spacingAndGlyphs" textLength="36" x="452.5" y="2246.5508">Store</text><rect fill="#D8D8D8" height="40.4883" rx="4" ry="4" style="stroke: #979797; stroke-width: 1.0;" width="76" x="695.5" y="2221.0156"/><text fill="#000000" font-family="sans-serif" font-size="14" lengthAdjust="spacingAndGlyphs" textLength="52" x="707.5" y="2246.5508">Forums</text><rect fill="#D8D8D8" height="40.4883" rx="4" ry="4" style="stroke: #979797; stroke-width: 1.0;" width="103" x="943" y="3"/><text fill="#000000" font-family="sans-serif" font-size="14" lengthAdjust="spacingAndGlyphs" textLength="79" x="955" y="28.5352">FusionAuth</text><rect fill="#D8D8D8" height="40.4883" rx="4" ry="4" style="stroke: #979797; stroke-width: 1.0;" width="103" x="943" y="2221.0156"/><text fill="#000000" font-family="sans-serif" font-size="14" lengthAdjust="spacingAndGlyphs" textLength="79" x="955" y="2246.5508">FusionAuth</text><rect fill="#D8D8D8" height="40.4883" rx="4" ry="4" style="stroke: #979797; stroke-width: 1.0;" width="71" x="1056" y="3"/><text fill="#000000" font-family="sans-serif" font-size="14" lengthAdjust="spacingAndGlyphs" textLength="47" x="1068" y="28.5352">Hacker</text><rect fill="#D8D8D8" height="40.4883" rx="4" ry="4" style="stroke: #979797; stroke-width: 1.0;" width="71" x="1056" y="2221.0156"/><text fill="#000000" font-family="sans-serif" font-size="14" lengthAdjust="spacingAndGlyphs" textLength="47" x="1068" y="2246.5508">Hacker</text><rect fill="#3F2C61" height="3" style="stroke: #3F2C61; stroke-width: 1.0;" width="1129" x="3" y="80.1436"/><line style="stroke: #FFFFFF; stroke-width: 0.5;" x1="3" x2="1132" y1="80.1436" y2="80.1436"/><line style="stroke: #FFFFFF; stroke-width: 0.5;" x1="3" x2="1132" y1="83.1436" y2="83.1436"/><rect fill="#3F2C61" height="33.3105" style="stroke: #FFFFFF; stroke-width: 1.0;" width="86" x="524.5" y="64.4883"/><text fill="#FFFFFF" font-family="sans-serif" font-size="13" font-weight="bold" lengthAdjust="spacingAndGlyphs" textLength="58" x="535.5" y="86.0566">Initialize</text><polygon fill="#56666F" points="458.5,135.1094,468.5,139.1094,458.5,143.1094,462.5,139.1094" style="stroke: #56666F; stroke-width: 1.0;"/><line style="stroke: #56666F; stroke-width: 1.0;" x1="75.5" x2="464.5" y1="139.1094" y2="139.1094"/><text fill="#000000" font-family="sans-serif" font-size="13" font-weight="bold" lengthAdjust="spacingAndGlyphs" textLength="9" x="87.5" y="129.3672">1</text><text fill="#000000" font-family="sans-serif" font-size="13" lengthAdjust="spacingAndGlyphs" textLength="35" x="110.5" y="129.3672">GET /</text><polygon fill="#56666F" points="86.5,174.4199,76.5,178.4199,86.5,182.4199,82.5,178.4199" style="stroke: #56666F; stroke-width: 1.0;"/><line style="stroke: #56666F; stroke-width: 1.0;" x1="80.5" x2="469.5" y1="178.4199" y2="178.4199"/><text fill="#000000" font-family="sans-serif" font-size="13" font-weight="bold" lengthAdjust="spacingAndGlyphs" textLength="9" x="97.5" y="168.6777">2</text><text fill="#000000" font-family="sans-serif" font-size="13" lengthAdjust="spacingAndGlyphs" textLength="260" x="120.5" y="168.6777">(HTML, CSS &amp; JavaScript - with login link)</text><rect fill="#3F2C61" height="3" style="stroke: #3F2C61; stroke-width: 1.0;" width="1129" x="3" y="212.0752"/><line style="stroke: #FFFFFF; stroke-width: 0.5;" x1="3" x2="1132" y1="212.0752" y2="212.0752"/><line style="stroke: #FFFFFF; stroke-width: 0.5;" x1="3" x2="1132" y1="215.0752" y2="215.0752"/><rect fill="#3F2C61" height="33.3105" style="stroke: #FFFFFF; stroke-width: 1.0;" width="182" x="476.5" y="196.4199"/><text fill="#FFFFFF" font-family="sans-serif" font-size="13" font-weight="bold" lengthAdjust="spacingAndGlyphs" textLength="154" x="487.5" y="217.9883">Login (inside WebApp)</text><polygon fill="#56666F" points="458.5,267.041,468.5,271.041,458.5,275.041,462.5,271.041" style="stroke: #56666F; stroke-width: 1.0;"/><line style="stroke: #56666F; stroke-width: 1.0;" x1="75.5" x2="464.5" y1="271.041" y2="271.041"/><text fill="#000000" font-family="sans-serif" font-size="13" font-weight="bold" lengthAdjust="spacingAndGlyphs" textLength="9" x="87.5" y="261.2988">3</text><text fill="#000000" font-family="sans-serif" font-size="13" lengthAdjust="spacingAndGlyphs" textLength="67" x="110.5" y="261.2988">GET /login</text><polygon fill="#56666F" points="86.5,306.3516,76.5,310.3516,86.5,314.3516,82.5,310.3516" style="stroke: #56666F; stroke-width: 1.0;"/><line style="stroke: #56666F; stroke-width: 1.0;" x1="80.5" x2="469.5" y1="310.3516" y2="310.3516"/><text fill="#000000" font-family="sans-serif" font-size="13" font-weight="bold" lengthAdjust="spacingAndGlyphs" textLength="9" x="97.5" y="300.6094">4</text><text fill="#000000" font-family="sans-serif" font-size="13" lengthAdjust="spacingAndGlyphs" textLength="117" x="120.5" y="300.6094">(Login form HTML)</text><polygon fill="#56666F" points="458.5,345.6621,468.5,349.6621,458.5,353.6621,462.5,349.6621" style="stroke: #56666F; stroke-width: 1.0;"/><line style="stroke: #56666F; stroke-width: 1.0;" x1="75.5" x2="464.5" y1="349.6621" y2="349.6621"/><text fill="#000000" font-family="sans-serif" font-size="13" font-weight="bold" lengthAdjust="spacingAndGlyphs" textLength="9" x="87.5" y="339.9199">5</text><text fill="#000000" font-family="sans-serif" font-size="13" lengthAdjust="spacingAndGlyphs" textLength="75" x="110.5" y="339.9199">POST /login</text><polygon fill="#56666F" points="982.5,400.2832,992.5,404.2832,982.5,408.2832,986.5,404.2832" style="stroke: #56666F; stroke-width: 1.0;"/><line style="stroke: #56666F; stroke-width: 1.0;" x1="470.5" x2="988.5" y1="404.2832" y2="404.2832"/><text fill="#000000" font-family="sans-serif" font-size="13" font-weight="bold" lengthAdjust="spacingAndGlyphs" textLength="9" x="482.5" y="386.8857">6</text><text fill="#000000" font-family="sans-serif" font-size="13" lengthAdjust="spacingAndGlyphs" textLength="130" x="505.5" y="379.2305">POST /oauth2/token</text><text fill="#000000" font-family="sans-serif" font-size="13" lengthAdjust="spacingAndGlyphs" textLength="145" x="505.5" y="394.541">(grant_type=password)</text><polygon fill="#56666F" points="481.5,439.5938,471.5,443.5938,481.5,447.5938,477.5,443.5938" style="stroke: #56666F; stroke-width: 1.0;"/><line style="stroke: #56666F; stroke-width: 1.0;" x1="475.5" x2="993.5" y1="443.5938" y2="443.5938"/><text fill="#000000" font-family="sans-serif" font-size="13" font-weight="bold" lengthAdjust="spacingAndGlyphs" textLength="9" x="492.5" y="433.8516">7</text><text fill="#000000" font-family="sans-serif" font-size="13" lengthAdjust="spacingAndGlyphs" textLength="152" x="515.5" y="433.8516">(Refresh Token and JWT)</text><line style="stroke: #56666F; stroke-width: 1.0;" x1="470.5" x2="512.5" y1="482.9043" y2="482.9043"/><line style="stroke: #56666F; stroke-width: 1.0;" x1="512.5" x2="512.5" y1="482.9043" y2="495.9043"/><line style="stroke: #56666F; stroke-width: 1.0;" x1="471.5" x2="512.5" y1="495.9043" y2="495.9043"/><polygon fill="#56666F" points="481.5,491.9043,471.5,495.9043,481.5,499.9043,477.5,495.9043" style="stroke: #56666F; stroke-width: 1.0;"/><text fill="#000000" font-family="sans-serif" font-size="13" font-weight="bold" lengthAdjust="spacingAndGlyphs" textLength="9" x="482.5" y="473.1621">8</text><text fill="#000000" font-family="sans-serif" font-size="13" lengthAdjust="spacingAndGlyphs" textLength="216" x="505.5" y="473.1621">Create session and store User in it</text><polygon fill="#56666F" points="86.5,546.5254,76.5,550.5254,86.5,554.5254,82.5,550.5254" style="stroke: #56666F; stroke-width: 1.0;"/><line style="stroke: #56666F; stroke-width: 1.0;" x1="80.5" x2="469.5" y1="550.5254" y2="550.5254"/><text fill="#000000" font-family="sans-serif" font-size="13" font-weight="bold" lengthAdjust="spacingAndGlyphs" textLength="9" x="97.5" y="533.1279">9</text><text fill="#000000" font-family="sans-serif" font-size="13" lengthAdjust="spacingAndGlyphs" textLength="188" x="120.5" y="525.4727">302 Location: /shopping-cart</text><text fill="#000000" font-family="sans-serif" font-size="13" lengthAdjust="spacingAndGlyphs" textLength="322" x="120.5" y="540.7832">[SesionId HttpOnly w/ domain: Store.Example.com]</text><rect fill="#3F2C61" height="3" style="stroke: #3F2C61; stroke-width: 1.0;" width="1129" x="3" y="584.1807"/><line style="stroke: #FFFFFF; stroke-width: 0.5;" x1="3" x2="1132" y1="584.1807" y2="584.1807"/><line style="stroke: #FFFFFF; stroke-width: 0.5;" x1="3" x2="1132" y1="587.1807" y2="587.1807"/><rect fill="#3F2C61" height="33.3105" style="stroke: #FFFFFF; stroke-width: 1.0;" width="155" x="490" y="568.5254"/><text fill="#FFFFFF" font-family="sans-serif" font-size="13" font-weight="bold" lengthAdjust="spacingAndGlyphs" textLength="127" x="501" y="590.0938">Shopping cart load</text><polygon fill="#56666F" points="458.5,654.457,468.5,658.457,458.5,662.457,462.5,658.457" style="stroke: #56666F; stroke-width: 1.0;"/><line style="stroke: #56666F; stroke-width: 1.0;" x1="75.5" x2="464.5" y1="658.457" y2="658.457"/><text fill="#000000" font-family="sans-serif" font-size="13" font-weight="bold" lengthAdjust="spacingAndGlyphs" textLength="18" x="87.5" y="641.0596">10</text><text fill="#000000" font-family="sans-serif" font-size="13" lengthAdjust="spacingAndGlyphs" textLength="126" x="119.5" y="633.4043">GET /shopping-cart</text><text fill="#000000" font-family="sans-serif" font-size="13" lengthAdjust="spacingAndGlyphs" textLength="329" x="119.5" y="648.7148">[SessionId HttpOnly w/ domain: Store.Example.com]</text><line style="stroke: #56666F; stroke-width: 1.0;" x1="470.5" x2="512.5" y1="697.7676" y2="697.7676"/><line style="stroke: #56666F; stroke-width: 1.0;" x1="512.5" x2="512.5" y1="697.7676" y2="710.7676"/><line style="stroke: #56666F; stroke-width: 1.0;" x1="471.5" x2="512.5" y1="710.7676" y2="710.7676"/><polygon fill="#56666F" points="481.5,706.7676,471.5,710.7676,481.5,714.7676,477.5,710.7676" style="stroke: #56666F; stroke-width: 1.0;"/><text fill="#000000" font-family="sans-serif" font-size="13" font-weight="bold" lengthAdjust="spacingAndGlyphs" textLength="18" x="482.5" y="688.0254">11</text><text fill="#000000" font-family="sans-serif" font-size="13" lengthAdjust="spacingAndGlyphs" textLength="110" x="514.5" y="688.0254">Session extended</text><polygon fill="#56666F" points="86.5,746.0781,76.5,750.0781,86.5,754.0781,82.5,750.0781" style="stroke: #56666F; stroke-width: 1.0;"/><line style="stroke: #56666F; stroke-width: 1.0;" x1="80.5" x2="469.5" y1="750.0781" y2="750.0781"/><text fill="#000000" font-family="sans-serif" font-size="13" font-weight="bold" lengthAdjust="spacingAndGlyphs" textLength="18" x="97.5" y="740.3359">12</text><text fill="#000000" font-family="sans-serif" font-size="13" lengthAdjust="spacingAndGlyphs" textLength="135" x="129.5" y="740.3359">(Shopping cart HTML)</text><path d="M8,767.0781 L8,794.0781 A4,4 0 0 0 12,798.0781 L139,798.0781 A4,4 0 0 0 143,794.0781 L143,773.0781 L133,763.0781 L12,763.0781 A4,4 0 0 0 8,767.0781 " fill="#EB8C52" style="stroke: #FFFFFF; stroke-width: 1.0;"/><path d="M133,763.0781 L133,771.0781 A2,2 0 0 0 135,773.0781 L143,773.0781 L133,763.0781 " fill="#EB8C52" style="stroke: #FFFFFF; stroke-width: 1.0;"/><text fill="#FFFFFF" font-family="sans-serif" font-size="13" font-style="italic" font-weight="bold" lengthAdjust="spacingAndGlyphs" textLength="104" x="19" y="785.6465">Session expires</text><rect fill="#3F2C61" height="3" style="stroke: #3F2C61; stroke-width: 1.0;" width="1129" x="3" y="829.0439"/><line style="stroke: #FFFFFF; stroke-width: 0.5;" x1="3" x2="1132" y1="829.0439" y2="829.0439"/><line style="stroke: #FFFFFF; stroke-width: 0.5;" x1="3" x2="1132" y1="832.0439" y2="832.0439"/><rect fill="#3F2C61" height="33.3105" style="stroke: #FFFFFF; stroke-width: 1.0;" width="87" x="524" y="813.3887"/><text fill="#FFFFFF" font-family="sans-serif" font-size="13" font-weight="bold" lengthAdjust="spacingAndGlyphs" textLength="59" x="535" y="834.957">Re-login</text><polygon fill="#56666F" points="458.5,899.3203,468.5,903.3203,458.5,907.3203,462.5,903.3203" style="stroke: #56666F; stroke-width: 1.0;"/><line style="stroke: #56666F; stroke-width: 1.0;" x1="75.5" x2="464.5" y1="903.3203" y2="903.3203"/><text fill="#000000" font-family="sans-serif" font-size="13" font-weight="bold" lengthAdjust="spacingAndGlyphs" textLength="18" x="87.5" y="885.9229">13</text><text fill="#000000" font-family="sans-serif" font-size="13" lengthAdjust="spacingAndGlyphs" textLength="126" x="119.5" y="878.2676">GET /shopping-cart</text><text fill="#000000" font-family="sans-serif" font-size="13" lengthAdjust="spacingAndGlyphs" textLength="329" x="119.5" y="893.5781">[SessionId HttpOnly w/ domain: Store.Example.com]</text><polygon fill="#56666F" points="86.5,938.6309,76.5,942.6309,86.5,946.6309,82.5,942.6309" style="stroke: #56666F; stroke-width: 1.0;"/><line style="stroke: #56666F; stroke-width: 1.0;" x1="80.5" x2="469.5" y1="942.6309" y2="942.6309"/><text fill="#000000" font-family="sans-serif" font-size="13" font-weight="bold" lengthAdjust="spacingAndGlyphs" textLength="18" x="97.5" y="932.8887">14</text><text fill="#000000" font-family="sans-serif" font-size="13" lengthAdjust="spacingAndGlyphs" textLength="129" x="129.5" y="932.8887">302 Location: /login</text><line style="stroke: #56666F; stroke-width: 1.0;" x1="75.5" x2="117.5" y1="981.9414" y2="981.9414"/><line style="stroke: #56666F; stroke-width: 1.0;" x1="117.5" x2="117.5" y1="981.9414" y2="994.9414"/><line style="stroke: #56666F; stroke-width: 1.0;" x1="76.5" x2="117.5" y1="994.9414" y2="994.9414"/><polygon fill="#56666F" points="86.5,990.9414,76.5,994.9414,86.5,998.9414,82.5,994.9414" style="stroke: #56666F; stroke-width: 1.0;"/><text fill="#000000" font-family="sans-serif" font-size="13" font-weight="bold" lengthAdjust="spacingAndGlyphs" textLength="18" x="87.5" y="972.1992">15</text><text fill="#000000" font-family="sans-serif" font-size="13" lengthAdjust="spacingAndGlyphs" textLength="131" x="119.5" y="972.1992">Login same as above</text><path d="M40,1061.9414 L40,1088.9414 A4,4 0 0 0 44,1092.9414 L1122,1092.9414 A4,4 0 0 0 1126,1088.9414 L1126,1067.9414 L1116,1057.9414 L44,1057.9414 A4,4 0 0 0 40,1061.9414 " fill="#8B80A1" style="stroke: #FFFFFF; stroke-width: 1.0;"/><path d="M1116,1057.9414 L1116,1065.9414 A2,2 0 0 0 1118,1067.9414 L1126,1067.9414 L1116,1057.9414 " fill="#8B80A1" style="stroke: #FFFFFF; stroke-width: 1.0;"/><text fill="#FFFFFF" font-family="sans-serif" font-size="13" font-style="italic" lengthAdjust="spacingAndGlyphs" textLength="429" x="364" y="1080.5098">SSO login to forums - not provided by FusionAuth for this workflow</text><rect fill="#3F2C61" height="3" style="stroke: #3F2C61; stroke-width: 1.0;" width="1129" x="3" y="1173.9072"/><line style="stroke: #FFFFFF; stroke-width: 0.5;" x1="3" x2="1132" y1="1173.9072" y2="1173.9072"/><line style="stroke: #FFFFFF; stroke-width: 0.5;" x1="3" x2="1132" y1="1176.9072" y2="1176.9072"/><rect fill="#3F2C61" height="33.3105" style="stroke: #FFFFFF; stroke-width: 1.0;" width="86" x="524.5" y="1158.252"/><text fill="#FFFFFF" font-family="sans-serif" font-size="13" font-weight="bold" lengthAdjust="spacingAndGlyphs" textLength="58" x="535.5" y="1179.8203">Initialize</text><polygon fill="#56666F" points="683.5,1244.1836,693.5,1248.1836,683.5,1252.1836,687.5,1248.1836" style="stroke: #56666F; stroke-width: 1.0;"/><line style="stroke: #56666F; stroke-width: 1.0;" x1="75.5" x2="689.5" y1="1248.1836" y2="1248.1836"/><text fill="#000000" font-family="sans-serif" font-size="13" font-weight="bold" lengthAdjust="spacingAndGlyphs" textLength="18" x="87.5" y="1230.7861">16</text><text fill="#000000" font-family="sans-serif" font-size="13" lengthAdjust="spacingAndGlyphs" textLength="35" x="119.5" y="1223.1309">GET /</text><text fill="#000000" font-family="sans-serif" font-size="13" lengthAdjust="spacingAndGlyphs" textLength="79" x="119.5" y="1238.4414">[No cookies]</text><rect fill="#D8D8D8" height="40.4883" rx="4" ry="4" style="stroke: #979797; stroke-width: 1.0;" width="76" x="695.5" y="1204.6953"/><text fill="#000000" font-family="sans-serif" font-size="14" lengthAdjust="spacingAndGlyphs" textLength="52" x="707.5" y="1230.2305">Forums</text><polygon fill="#56666F" points="86.5,1283.4941,76.5,1287.4941,86.5,1291.4941,82.5,1287.4941" style="stroke: #56666F; stroke-width: 1.0;"/><line style="stroke: #56666F; stroke-width: 1.0;" x1="80.5" x2="732.5" y1="1287.4941" y2="1287.4941"/><text fill="#000000" font-family="sans-serif" font-size="13" font-weight="bold" lengthAdjust="spacingAndGlyphs" textLength="18" x="97.5" y="1277.752">17</text><text fill="#000000" font-family="sans-serif" font-size="13" lengthAdjust="spacingAndGlyphs" textLength="260" x="129.5" y="1277.752">(HTML, CSS &amp; JavaScript - with login link)</text><rect fill="#3F2C61" height="3" style="stroke: #3F2C61; stroke-width: 1.0;" width="1129" x="3" y="1321.1494"/><line style="stroke: #FFFFFF; stroke-width: 0.5;" x1="3" x2="1132" y1="1321.1494" y2="1321.1494"/><line style="stroke: #FFFFFF; stroke-width: 0.5;" x1="3" x2="1132" y1="1324.1494" y2="1324.1494"/><rect fill="#3F2C61" height="33.3105" style="stroke: #FFFFFF; stroke-width: 1.0;" width="182" x="476.5" y="1305.4941"/><text fill="#FFFFFF" font-family="sans-serif" font-size="13" font-weight="bold" lengthAdjust="spacingAndGlyphs" textLength="154" x="487.5" y="1327.0625">Login (inside WebApp)</text><polygon fill="#56666F" points="721.5,1376.1152,731.5,1380.1152,721.5,1384.1152,725.5,1380.1152" style="stroke: #56666F; stroke-width: 1.0;"/><line style="stroke: #56666F; stroke-width: 1.0;" x1="75.5" x2="727.5" y1="1380.1152" y2="1380.1152"/><text fill="#000000" font-family="sans-serif" font-size="13" font-weight="bold" lengthAdjust="spacingAndGlyphs" textLength="18" x="87.5" y="1370.373">18</text><text fill="#000000" font-family="sans-serif" font-size="13" lengthAdjust="spacingAndGlyphs" textLength="67" x="119.5" y="1370.373">GET /login</text><polygon fill="#56666F" points="86.5,1415.4258,76.5,1419.4258,86.5,1423.4258,82.5,1419.4258" style="stroke: #56666F; stroke-width: 1.0;"/><line style="stroke: #56666F; stroke-width: 1.0;" x1="80.5" x2="732.5" y1="1419.4258" y2="1419.4258"/><text fill="#000000" font-family="sans-serif" font-size="13" font-weight="bold" lengthAdjust="spacingAndGlyphs" textLength="18" x="97.5" y="1409.6836">19</text><text fill="#000000" font-family="sans-serif" font-size="13" lengthAdjust="spacingAndGlyphs" textLength="117" x="129.5" y="1409.6836">(Login form HTML)</text><polygon fill="#56666F" points="721.5,1454.7363,731.5,1458.7363,721.5,1462.7363,725.5,1458.7363" style="stroke: #56666F; stroke-width: 1.0;"/><line style="stroke: #56666F; stroke-width: 1.0;" x1="75.5" x2="727.5" y1="1458.7363" y2="1458.7363"/><text fill="#000000" font-family="sans-serif" font-size="13" font-weight="bold" lengthAdjust="spacingAndGlyphs" textLength="18" x="87.5" y="1448.9941">20</text><text fill="#000000" font-family="sans-serif" font-size="13" lengthAdjust="spacingAndGlyphs" textLength="75" x="119.5" y="1448.9941">POST /login</text><polygon fill="#56666F" points="982.5,1509.3574,992.5,1513.3574,982.5,1517.3574,986.5,1513.3574" style="stroke: #56666F; stroke-width: 1.0;"/><line style="stroke: #56666F; stroke-width: 1.0;" x1="733.5" x2="988.5" y1="1513.3574" y2="1513.3574"/><text fill="#000000" font-family="sans-serif" font-size="13" font-weight="bold" lengthAdjust="spacingAndGlyphs" textLength="18" x="745.5" y="1495.96">21</text><text fill="#000000" font-family="sans-serif" font-size="13" lengthAdjust="spacingAndGlyphs" textLength="130" x="777.5" y="1488.3047">POST /oauth2/token</text><text fill="#000000" font-family="sans-serif" font-size="13" lengthAdjust="spacingAndGlyphs" textLength="145" x="777.5" y="1503.6152">(grant_type=password)</text><polygon fill="#56666F" points="744.5,1548.668,734.5,1552.668,744.5,1556.668,740.5,1552.668" style="stroke: #56666F; stroke-width: 1.0;"/><line style="stroke: #56666F; stroke-width: 1.0;" x1="738.5" x2="993.5" y1="1552.668" y2="1552.668"/><text fill="#000000" font-family="sans-serif" font-size="13" font-weight="bold" lengthAdjust="spacingAndGlyphs" textLength="18" x="755.5" y="1542.9258">22</text><text fill="#000000" font-family="sans-serif" font-size="13" lengthAdjust="spacingAndGlyphs" textLength="152" x="787.5" y="1542.9258">(Refresh Token and JWT)</text><line style="stroke: #56666F; stroke-width: 1.0;" x1="733.5" x2="775.5" y1="1591.9785" y2="1591.9785"/><line style="stroke: #56666F; stroke-width: 1.0;" x1="775.5" x2="775.5" y1="1591.9785" y2="1604.9785"/><line style="stroke: #56666F; stroke-width: 1.0;" x1="734.5" x2="775.5" y1="1604.9785" y2="1604.9785"/><polygon fill="#56666F" points="744.5,1600.9785,734.5,1604.9785,744.5,1608.9785,740.5,1604.9785" style="stroke: #56666F; stroke-width: 1.0;"/><text fill="#000000" font-family="sans-serif" font-size="13" font-weight="bold" lengthAdjust="spacingAndGlyphs" textLength="18" x="745.5" y="1582.2363">23</text><text fill="#000000" font-family="sans-serif" font-size="13" lengthAdjust="spacingAndGlyphs" textLength="205" x="777.5" y="1582.2363">Create session and put User in it</text><polygon fill="#56666F" points="86.5,1655.5996,76.5,1659.5996,86.5,1663.5996,82.5,1659.5996" style="stroke: #56666F; stroke-width: 1.0;"/><line style="stroke: #56666F; stroke-width: 1.0;" x1="80.5" x2="732.5" y1="1659.5996" y2="1659.5996"/><text fill="#000000" font-family="sans-serif" font-size="13" font-weight="bold" lengthAdjust="spacingAndGlyphs" textLength="18" x="97.5" y="1642.2021">24</text><text fill="#000000" font-family="sans-serif" font-size="13" lengthAdjust="spacingAndGlyphs" textLength="132" x="129.5" y="1634.5469">302 Location: /posts</text><text fill="#000000" font-family="sans-serif" font-size="13" lengthAdjust="spacingAndGlyphs" textLength="344" x="129.5" y="1649.8574">[SessionId HttpOnly w/ domain: Forums.Example.com]</text><rect fill="#3F2C61" height="3" style="stroke: #3F2C61; stroke-width: 1.0;" width="1129" x="3" y="1693.2549"/><line style="stroke: #FFFFFF; stroke-width: 0.5;" x1="3" x2="1132" y1="1693.2549" y2="1693.2549"/><line style="stroke: #FFFFFF; stroke-width: 0.5;" x1="3" x2="1132" y1="1696.2549" y2="1696.2549"/><rect fill="#3F2C61" height="33.3105" style="stroke: #FFFFFF; stroke-width: 1.0;" width="104" x="515.5" y="1677.5996"/><text fill="#FFFFFF" font-family="sans-serif" font-size="13" font-weight="bold" lengthAdjust="spacingAndGlyphs" textLength="76" x="526.5" y="1699.168">Forum load</text><polygon fill="#56666F" points="721.5,1763.5313,731.5,1767.5313,721.5,1771.5313,725.5,1767.5313" style="stroke: #56666F; stroke-width: 1.0;"/><line style="stroke: #56666F; stroke-width: 1.0;" x1="75.5" x2="727.5" y1="1767.5313" y2="1767.5313"/><text fill="#000000" font-family="sans-serif" font-size="13" font-weight="bold" lengthAdjust="spacingAndGlyphs" textLength="18" x="87.5" y="1750.1338">25</text><text fill="#000000" font-family="sans-serif" font-size="13" lengthAdjust="spacingAndGlyphs" textLength="70" x="119.5" y="1742.4785">GET /posts</text><text fill="#000000" font-family="sans-serif" font-size="13" lengthAdjust="spacingAndGlyphs" textLength="344" x="119.5" y="1757.7891">[SessionId HttpOnly w/ domain: Forums.Example.com]</text><line style="stroke: #56666F; stroke-width: 1.0;" x1="733.5" x2="775.5" y1="1806.8418" y2="1806.8418"/><line style="stroke: #56666F; stroke-width: 1.0;" x1="775.5" x2="775.5" y1="1806.8418" y2="1819.8418"/><line style="stroke: #56666F; stroke-width: 1.0;" x1="734.5" x2="775.5" y1="1819.8418" y2="1819.8418"/><polygon fill="#56666F" points="744.5,1815.8418,734.5,1819.8418,744.5,1823.8418,740.5,1819.8418" style="stroke: #56666F; stroke-width: 1.0;"/><text fill="#000000" font-family="sans-serif" font-size="13" font-weight="bold" lengthAdjust="spacingAndGlyphs" textLength="18" x="745.5" y="1797.0996">26</text><text fill="#000000" font-family="sans-serif" font-size="13" lengthAdjust="spacingAndGlyphs" textLength="110" x="777.5" y="1797.0996">Session extended</text><polygon fill="#56666F" points="86.5,1855.1523,76.5,1859.1523,86.5,1863.1523,82.5,1859.1523" style="stroke: #56666F; stroke-width: 1.0;"/><line style="stroke: #56666F; stroke-width: 1.0;" x1="80.5" x2="732.5" y1="1859.1523" y2="1859.1523"/><text fill="#000000" font-family="sans-serif" font-size="13" font-weight="bold" lengthAdjust="spacingAndGlyphs" textLength="18" x="97.5" y="1849.4102">27</text><text fill="#000000" font-family="sans-serif" font-size="13" lengthAdjust="spacingAndGlyphs" textLength="127" x="129.5" y="1849.4102">(Forum posts HTML)</text><path d="M40,1926.1523 L40,1953.1523 A4,4 0 0 0 44,1957.1523 L1122,1957.1523 A4,4 0 0 0 1126,1953.1523 L1126,1932.1523 L1116,1922.1523 L44,1922.1523 A4,4 0 0 0 40,1926.1523 " fill="#8B80A1" style="stroke: #FFFFFF; stroke-width: 1.0;"/><path d="M1116,1922.1523 L1116,1930.1523 A2,2 0 0 0 1118,1932.1523 L1126,1932.1523 L1116,1922.1523 " fill="#8B80A1" style="stroke: #FFFFFF; stroke-width: 1.0;"/><text fill="#FFFFFF" font-family="sans-serif" font-size="13" font-style="italic" lengthAdjust="spacingAndGlyphs" textLength="91" x="533" y="1944.7207">Attack vectors</text><rect fill="#3F2C61" height="3" style="stroke: #3F2C61; stroke-width: 1.0;" width="1129" x="3" y="2038.1182"/><line style="stroke: #FFFFFF; stroke-width: 0.5;" x1="3" x2="1132" y1="2038.1182" y2="2038.1182"/><line style="stroke: #FFFFFF; stroke-width: 0.5;" x1="3" x2="1132" y1="2041.1182" y2="2041.1182"/><rect fill="#3F2C61" height="33.3105" style="stroke: #FFFFFF; stroke-width: 1.0;" width="140" x="497.5" y="2022.4629"/><text fill="#FFFFFF" font-family="sans-serif" font-size="13" font-weight="bold" lengthAdjust="spacingAndGlyphs" textLength="112" x="508.5" y="2044.0313">Stolen session id</text><polygon fill="#56666F" points="481.5,2108.3945,471.5,2112.3945,481.5,2116.3945,477.5,2112.3945" style="stroke: #56666F; stroke-width: 1.0;"/><line style="stroke: #56666F; stroke-width: 1.0;" x1="475.5" x2="1090.5" y1="2112.3945" y2="2112.3945"/><text fill="#000000" font-family="sans-serif" font-size="13" font-weight="bold" lengthAdjust="spacingAndGlyphs" textLength="18" x="492.5" y="2094.9971">28</text><text fill="#000000" font-family="sans-serif" font-size="13" lengthAdjust="spacingAndGlyphs" textLength="126" x="524.5" y="2087.3418">GET /shopping-cart</text><text fill="#000000" font-family="sans-serif" font-size="13" lengthAdjust="spacingAndGlyphs" textLength="329" x="524.5" y="2102.6523">[SessionId HttpOnly w/ domain: Store.Example.com]</text><line style="stroke: #56666F; stroke-width: 1.0;" x1="470.5" x2="512.5" y1="2151.7051" y2="2151.7051"/><line style="stroke: #56666F; stroke-width: 1.0;" x1="512.5" x2="512.5" y1="2151.7051" y2="2164.7051"/><line style="stroke: #56666F; stroke-width: 1.0;" x1="471.5" x2="512.5" y1="2164.7051" y2="2164.7051"/><polygon fill="#56666F" points="481.5,2160.7051,471.5,2164.7051,481.5,2168.7051,477.5,2164.7051" style="stroke: #56666F; stroke-width: 1.0;"/><text fill="#000000" font-family="sans-serif" font-size="13" font-weight="bold" lengthAdjust="spacingAndGlyphs" textLength="18" x="482.5" y="2141.9629">29</text><text fill="#000000" font-family="sans-serif" font-size="13" lengthAdjust="spacingAndGlyphs" textLength="110" x="514.5" y="2141.9629">Session extended</text><polygon fill="#56666F" points="1079.5,2200.0156,1089.5,2204.0156,1079.5,2208.0156,1083.5,2204.0156" style="stroke: #56666F; stroke-width: 1.0;"/><line style="stroke: #56666F; stroke-width: 1.0;" x1="470.5" x2="1085.5" y1="2204.0156" y2="2204.0156"/><text fill="#000000" font-family="sans-serif" font-size="13" font-weight="bold" lengthAdjust="spacingAndGlyphs" textLength="18" x="482.5" y="2194.2734">30</text><text fill="#000000" font-family="sans-serif" font-size="13" lengthAdjust="spacingAndGlyphs" textLength="135" x="514.5" y="2194.2734">(Shopping cart HTML)</text></g></svg>