<?xml version="1.0" encoding="UTF-8" standalone="no"?><svg xmlns="http://www.w3.org/2000/svg" xmlns:xlink="http://www.w3.org/1999/xlink" contentScriptType="application/ecmascript" contentStyleType="text/css" height="2818px" preserveAspectRatio="none" style="width:1129px;height:2818px;" version="1.1" viewBox="0 0 1129 2818" width="1129px" zoomAndPan="magnify"><defs/><g><rect fill="#D8D8D8" height="40.4883" rx="4" ry="4" style="stroke: #979797; stroke-width: 1.0;" width="76" x="613.5" y="1605.043"/><text fill="#000000" font-family="sans-serif" font-size="14" lengthAdjust="spacingAndGlyphs" textLength="52" x="625.5" y="1630.5781">Forums</text><line style="stroke: #CDCDCD; stroke-width: 1.0; stroke-dasharray: 5.0,5.0;" x1="97" x2="97" y1="44.4883" y2="2767.8477"/><line style="stroke: #CDCDCD; stroke-width: 1.0; stroke-dasharray: 5.0,5.0;" x1="573.5" x2="573.5" y1="44.4883" y2="2767.8477"/><line style="stroke: #CDCDCD; stroke-width: 1.0; stroke-dasharray: 5.0,5.0;" x1="651.5" x2="651.5" y1="1639.2207" y2="2767.8477"/><line style="stroke: #CDCDCD; stroke-width: 1.0; stroke-dasharray: 5.0,5.0;" x1="929" x2="929" y1="44.4883" y2="2767.8477"/><line style="stroke: #CDCDCD; stroke-width: 1.0; stroke-dasharray: 5.0,5.0;" x1="1076" x2="1076" y1="44.4883" y2="2767.8477"/><rect fill="#D8D8D8" height="40.4883" rx="4" ry="4" style="stroke: #979797; stroke-width: 1.0;" width="79" x="58" y="3"/><text fill="#000000" font-family="sans-serif" font-size="14" lengthAdjust="spacingAndGlyphs" textLength="55" x="70" y="28.5352">Browser</text><rect fill="#D8D8D8" height="40.4883" rx="4" ry="4" style="stroke: #979797; stroke-width: 1.0;" width="79" x="58" y="2766.8477"/><text fill="#000000" font-family="sans-serif" font-size="14" lengthAdjust="spacingAndGlyphs" textLength="55" x="70" y="2792.3828">Browser</text><rect fill="#D8D8D8" height="40.4883" rx="4" ry="4" style="stroke: #979797; stroke-width: 1.0;" width="60" x="543.5" y="3"/><text fill="#000000" font-family="sans-serif" font-size="14" lengthAdjust="spacingAndGlyphs" textLength="36" x="555.5" y="28.5352">Store</text><rect fill="#D8D8D8" height="40.4883" rx="4" ry="4" style="stroke: #979797; stroke-width: 1.0;" width="60" x="543.5" y="2766.8477"/><text fill="#000000" font-family="sans-serif" font-size="14" lengthAdjust="spacingAndGlyphs" textLength="36" x="555.5" y="2792.3828">Store</text><rect fill="#D8D8D8" height="40.4883" rx="4" ry="4" style="stroke: #979797; stroke-width: 1.0;" width="76" x="613.5" y="2766.8477"/><text fill="#000000" font-family="sans-serif" font-size="14" lengthAdjust="spacingAndGlyphs" textLength="52" x="625.5" y="2792.3828">Forums</text><rect fill="#D8D8D8" height="40.4883" rx="4" ry="4" style="stroke: #979797; stroke-width: 1.0;" width="103" x="878" y="3"/><text fill="#000000" font-family="sans-serif" font-size="14" lengthAdjust="spacingAndGlyphs" textLength="79" x="890" y="28.5352">FusionAuth</text><rect fill="#D8D8D8" height="40.4883" rx="4" ry="4" style="stroke: #979797; stroke-width: 1.0;" width="103" x="878" y="2766.8477"/><text fill="#000000" font-family="sans-serif" font-size="14" lengthAdjust="spacingAndGlyphs" textLength="79" x="890" y="2792.3828">FusionAuth</text><rect fill="#D8D8D8" height="40.4883" rx="4" ry="4" style="stroke: #979797; stroke-width: 1.0;" width="71" x="1041" y="3"/><text fill="#000000" font-family="sans-serif" font-size="14" lengthAdjust="spacingAndGlyphs" textLength="47" x="1053" y="28.5352">Hacker</text><rect fill="#D8D8D8" height="40.4883" rx="4" ry="4" style="stroke: #979797; stroke-width: 1.0;" width="71" x="1041" y="2766.8477"/><text fill="#000000" font-family="sans-serif" font-size="14" lengthAdjust="spacingAndGlyphs" textLength="47" x="1053" y="2792.3828">Hacker</text><rect fill="#3F2C61" height="3" style="stroke: #3F2C61; stroke-width: 1.0;" width="1114" x="3" y="80.1436"/><line style="stroke: #FFFFFF; stroke-width: 0.5;" x1="3" x2="1117" y1="80.1436" y2="80.1436"/><line style="stroke: #FFFFFF; stroke-width: 0.5;" x1="3" x2="1117" y1="83.1436" y2="83.1436"/><rect fill="#3F2C61" height="33.3105" style="stroke: #FFFFFF; stroke-width: 1.0;" width="86" x="517" y="64.4883"/><text fill="#FFFFFF" font-family="sans-serif" font-size="13" font-weight="bold" lengthAdjust="spacingAndGlyphs" textLength="58" x="528" y="86.0566">Initialize</text><polygon fill="#56666F" points="561.5,135.1094,571.5,139.1094,561.5,143.1094,565.5,139.1094" style="stroke: #56666F; stroke-width: 1.0;"/><line style="stroke: #56666F; stroke-width: 1.0;" x1="97.5" x2="567.5" y1="139.1094" y2="139.1094"/><text fill="#000000" font-family="sans-serif" font-size="13" font-weight="bold" lengthAdjust="spacingAndGlyphs" textLength="9" x="109.5" y="129.3672">1</text><text fill="#000000" font-family="sans-serif" font-size="13" lengthAdjust="spacingAndGlyphs" textLength="35" x="132.5" y="129.3672">GET /</text><polygon fill="#56666F" points="108.5,174.4199,98.5,178.4199,108.5,182.4199,104.5,178.4199" style="stroke: #56666F; stroke-width: 1.0;"/><line style="stroke: #56666F; stroke-width: 1.0;" x1="102.5" x2="572.5" y1="178.4199" y2="178.4199"/><text fill="#000000" font-family="sans-serif" font-size="13" font-weight="bold" lengthAdjust="spacingAndGlyphs" textLength="9" x="119.5" y="168.6777">2</text><text fill="#000000" font-family="sans-serif" font-size="13" lengthAdjust="spacingAndGlyphs" textLength="260" x="142.5" y="168.6777">(HTML, CSS &amp; JavaScript - with login link)</text><rect fill="#3F2C61" height="3" style="stroke: #3F2C61; stroke-width: 1.0;" width="1114" x="3" y="212.0752"/><line style="stroke: #FFFFFF; stroke-width: 0.5;" x1="3" x2="1117" y1="212.0752" y2="212.0752"/><line style="stroke: #FFFFFF; stroke-width: 0.5;" x1="3" x2="1117" y1="215.0752" y2="215.0752"/><rect fill="#3F2C61" height="33.3105" style="stroke: #FFFFFF; stroke-width: 1.0;" width="341" x="389.5" y="196.4199"/><text fill="#FFFFFF" font-family="sans-serif" font-size="13" font-weight="bold" lengthAdjust="spacingAndGlyphs" textLength="313" x="400.5" y="217.9883">Login (browser navigates away from WebApp)</text><polygon fill="#56666F" points="917.5,267.041,927.5,271.041,917.5,275.041,921.5,271.041" style="stroke: #56666F; stroke-width: 1.0;"/><line style="stroke: #56666F; stroke-width: 1.0;" x1="97.5" x2="923.5" y1="271.041" y2="271.041"/><text fill="#000000" font-family="sans-serif" font-size="13" font-weight="bold" lengthAdjust="spacingAndGlyphs" textLength="9" x="109.5" y="261.2988">3</text><text fill="#000000" font-family="sans-serif" font-size="13" lengthAdjust="spacingAndGlyphs" textLength="288" x="132.5" y="261.2988">GET /oauth2/authorize {response_type=code}</text><polygon fill="#56666F" points="108.5,306.3516,98.5,310.3516,108.5,314.3516,104.5,310.3516" style="stroke: #56666F; stroke-width: 1.0;"/><line style="stroke: #56666F; stroke-width: 1.0;" x1="102.5" x2="928.5" y1="310.3516" y2="310.3516"/><text fill="#000000" font-family="sans-serif" font-size="13" font-weight="bold" lengthAdjust="spacingAndGlyphs" textLength="9" x="119.5" y="300.6094">4</text><text fill="#000000" font-family="sans-serif" font-size="13" lengthAdjust="spacingAndGlyphs" textLength="117" x="142.5" y="300.6094">(Login form HTML)</text><polygon fill="#56666F" points="917.5,345.6621,927.5,349.6621,917.5,353.6621,921.5,349.6621" style="stroke: #56666F; stroke-width: 1.0;"/><line style="stroke: #56666F; stroke-width: 1.0;" x1="97.5" x2="923.5" y1="349.6621" y2="349.6621"/><text fill="#000000" font-family="sans-serif" font-size="13" font-weight="bold" lengthAdjust="spacingAndGlyphs" textLength="9" x="109.5" y="339.9199">5</text><text fill="#000000" font-family="sans-serif" font-size="13" lengthAdjust="spacingAndGlyphs" textLength="296" x="132.5" y="339.9199">POST /oauth2/authorize {response_type=code}</text><polygon fill="#56666F" points="108.5,400.2832,98.5,404.2832,108.5,408.2832,104.5,404.2832" style="stroke: #56666F; stroke-width: 1.0;"/><line style="stroke: #56666F; stroke-width: 1.0;" x1="102.5" x2="928.5" y1="404.2832" y2="404.2832"/><text fill="#000000" font-family="sans-serif" font-size="13" font-weight="bold" lengthAdjust="spacingAndGlyphs" textLength="9" x="119.5" y="386.8857">6</text><text fill="#000000" font-family="sans-serif" font-size="13" lengthAdjust="spacingAndGlyphs" textLength="225" x="142.5" y="379.2305">302 Location: {redirect_uri w/ code}</text><text fill="#000000" font-family="sans-serif" font-size="13" lengthAdjust="spacingAndGlyphs" textLength="329" x="142.5" y="394.541">[SessionId HttpOnly w/ domain: login.fusionauth.io]</text><polygon fill="#56666F" points="561.5,439.5938,571.5,443.5938,561.5,447.5938,565.5,443.5938" style="stroke: #56666F; stroke-width: 1.0;"/><line style="stroke: #56666F; stroke-width: 1.0;" x1="97.5" x2="567.5" y1="443.5938" y2="443.5938"/><text fill="#000000" font-family="sans-serif" font-size="13" font-weight="bold" lengthAdjust="spacingAndGlyphs" textLength="9" x="109.5" y="433.8516">7</text><text fill="#000000" font-family="sans-serif" font-size="13" lengthAdjust="spacingAndGlyphs" textLength="163" x="132.5" y="433.8516">GET {redirect_uri w/ code}</text><polygon fill="#56666F" points="917.5,494.2148,927.5,498.2148,917.5,502.2148,921.5,498.2148" style="stroke: #56666F; stroke-width: 1.0;"/><line style="stroke: #56666F; stroke-width: 1.0;" x1="573.5" x2="923.5" y1="498.2148" y2="498.2148"/><text fill="#000000" font-family="sans-serif" font-size="13" font-weight="bold" lengthAdjust="spacingAndGlyphs" textLength="9" x="585.5" y="480.8174">8</text><text fill="#000000" font-family="sans-serif" font-size="13" lengthAdjust="spacingAndGlyphs" textLength="130" x="608.5" y="473.1621">POST /oauth2/token</text><text fill="#000000" font-family="sans-serif" font-size="13" lengthAdjust="spacingAndGlyphs" textLength="126" x="608.5" y="488.4727">(code, client_secret)</text><polygon fill="#56666F" points="584.5,548.8359,574.5,552.8359,584.5,556.8359,580.5,552.8359" style="stroke: #56666F; stroke-width: 1.0;"/><line style="stroke: #56666F; stroke-width: 1.0;" x1="578.5" x2="928.5" y1="552.8359" y2="552.8359"/><text fill="#000000" font-family="sans-serif" font-size="13" font-weight="bold" lengthAdjust="spacingAndGlyphs" textLength="9" x="595.5" y="535.4385">9</text><text fill="#000000" font-family="sans-serif" font-size="13" lengthAdjust="spacingAndGlyphs" textLength="46" x="618.5" y="527.7832">200 Ok</text><text fill="#000000" font-family="sans-serif" font-size="13" lengthAdjust="spacingAndGlyphs" textLength="149" x="618.5" y="543.0938">(Refresh token and JWT)</text><polygon fill="#56666F" points="108.5,603.457,98.5,607.457,108.5,611.457,104.5,607.457" style="stroke: #56666F; stroke-width: 1.0;"/><line style="stroke: #56666F; stroke-width: 1.0;" x1="102.5" x2="572.5" y1="607.457" y2="607.457"/><text fill="#000000" font-family="sans-serif" font-size="13" font-weight="bold" lengthAdjust="spacingAndGlyphs" textLength="18" x="119.5" y="590.0596">10</text><text fill="#000000" font-family="sans-serif" font-size="13" lengthAdjust="spacingAndGlyphs" textLength="188" x="151.5" y="582.4043">302 Location: /shopping-cart</text><text fill="#000000" font-family="sans-serif" font-size="13" lengthAdjust="spacingAndGlyphs" textLength="410" x="151.5" y="597.7148">[Refresh token and JWT HttpOnly w/ domain: Store.Example.com]</text><rect fill="#3F2C61" height="3" style="stroke: #3F2C61; stroke-width: 1.0;" width="1114" x="3" y="641.1123"/><line style="stroke: #FFFFFF; stroke-width: 0.5;" x1="3" x2="1117" y1="641.1123" y2="641.1123"/><line style="stroke: #FFFFFF; stroke-width: 0.5;" x1="3" x2="1117" y1="644.1123" y2="644.1123"/><rect fill="#3F2C61" height="33.3105" style="stroke: #FFFFFF; stroke-width: 1.0;" width="155" x="482.5" y="625.457"/><text fill="#FFFFFF" font-family="sans-serif" font-size="13" font-weight="bold" lengthAdjust="spacingAndGlyphs" textLength="127" x="493.5" y="647.0254">Shopping cart load</text><polygon fill="#56666F" points="561.5,711.3887,571.5,715.3887,561.5,719.3887,565.5,715.3887" style="stroke: #56666F; stroke-width: 1.0;"/><line style="stroke: #56666F; stroke-width: 1.0;" x1="97.5" x2="567.5" y1="715.3887" y2="715.3887"/><text fill="#000000" font-family="sans-serif" font-size="13" font-weight="bold" lengthAdjust="spacingAndGlyphs" textLength="18" x="109.5" y="697.9912">11</text><text fill="#000000" font-family="sans-serif" font-size="13" lengthAdjust="spacingAndGlyphs" textLength="126" x="141.5" y="690.3359">GET /shopping-cart</text><text fill="#000000" font-family="sans-serif" font-size="13" lengthAdjust="spacingAndGlyphs" textLength="410" x="141.5" y="705.6465">[Refresh token and JWT HttpOnly w/ domain: Store.Example.com]</text><polygon fill="#56666F" points="108.5,750.6992,98.5,754.6992,108.5,758.6992,104.5,754.6992" style="stroke: #56666F; stroke-width: 1.0;"/><line style="stroke: #56666F; stroke-width: 1.0;" x1="102.5" x2="572.5" y1="754.6992" y2="754.6992"/><text fill="#000000" font-family="sans-serif" font-size="13" font-weight="bold" lengthAdjust="spacingAndGlyphs" textLength="18" x="119.5" y="744.957">12</text><text fill="#000000" font-family="sans-serif" font-size="13" lengthAdjust="spacingAndGlyphs" textLength="135" x="151.5" y="744.957">(Shopping cart HTML)</text><path d="M42,771.6992 L42,798.6992 A4,4 0 0 0 46,802.6992 L149,802.6992 A4,4 0 0 0 153,798.6992 L153,777.6992 L143,767.6992 L46,767.6992 A4,4 0 0 0 42,771.6992 " fill="#EB8C52" style="stroke: #FFFFFF; stroke-width: 1.0;"/><path d="M143,767.6992 L143,775.6992 A2,2 0 0 0 145,777.6992 L153,777.6992 L143,767.6992 " fill="#EB8C52" style="stroke: #FFFFFF; stroke-width: 1.0;"/><text fill="#FFFFFF" font-family="sans-serif" font-size="13" font-style="italic" font-weight="bold" lengthAdjust="spacingAndGlyphs" textLength="80" x="53" y="790.2676">JWT expires</text><rect fill="#3F2C61" height="3" style="stroke: #3F2C61; stroke-width: 1.0;" width="1114" x="3" y="833.665"/><line style="stroke: #FFFFFF; stroke-width: 0.5;" x1="3" x2="1117" y1="833.665" y2="833.665"/><line style="stroke: #FFFFFF; stroke-width: 0.5;" x1="3" x2="1117" y1="836.665" y2="836.665"/><rect fill="#3F2C61" height="33.3105" style="stroke: #FFFFFF; stroke-width: 1.0;" width="155" x="482.5" y="818.0098"/><text fill="#FFFFFF" font-family="sans-serif" font-size="13" font-weight="bold" lengthAdjust="spacingAndGlyphs" textLength="127" x="493.5" y="839.5781">Shopping cart load</text><polygon fill="#56666F" points="561.5,903.9414,571.5,907.9414,561.5,911.9414,565.5,907.9414" style="stroke: #56666F; stroke-width: 1.0;"/><line style="stroke: #56666F; stroke-width: 1.0;" x1="97.5" x2="567.5" y1="907.9414" y2="907.9414"/><text fill="#000000" font-family="sans-serif" font-size="13" font-weight="bold" lengthAdjust="spacingAndGlyphs" textLength="18" x="109.5" y="890.5439">13</text><text fill="#000000" font-family="sans-serif" font-size="13" lengthAdjust="spacingAndGlyphs" textLength="126" x="141.5" y="882.8887">GET /shopping-cart</text><text fill="#000000" font-family="sans-serif" font-size="13" lengthAdjust="spacingAndGlyphs" textLength="410" x="141.5" y="898.1992">[Refresh token and JWT HttpOnly w/ domain: Store.Example.com]</text><polygon fill="#56666F" points="917.5,958.5625,927.5,962.5625,917.5,966.5625,921.5,962.5625" style="stroke: #56666F; stroke-width: 1.0;"/><line style="stroke: #56666F; stroke-width: 1.0;" x1="573.5" x2="923.5" y1="962.5625" y2="962.5625"/><text fill="#000000" font-family="sans-serif" font-size="13" font-weight="bold" lengthAdjust="spacingAndGlyphs" textLength="18" x="585.5" y="945.165">14</text><text fill="#000000" font-family="sans-serif" font-size="13" lengthAdjust="spacingAndGlyphs" textLength="290" x="617.5" y="937.5098">POST /oauth2/token or POST /api/jwt/refresh</text><text fill="#000000" font-family="sans-serif" font-size="13" lengthAdjust="spacingAndGlyphs" textLength="244" x="617.5" y="952.8203">(grant_type=refresh and refresh token)</text><polygon fill="#56666F" points="584.5,997.873,574.5,1001.873,584.5,1005.873,580.5,1001.873" style="stroke: #56666F; stroke-width: 1.0;"/><line style="stroke: #56666F; stroke-width: 1.0;" x1="578.5" x2="928.5" y1="1001.873" y2="1001.873"/><text fill="#000000" font-family="sans-serif" font-size="13" font-weight="bold" lengthAdjust="spacingAndGlyphs" textLength="18" x="595.5" y="992.1309">15</text><text fill="#000000" font-family="sans-serif" font-size="13" lengthAdjust="spacingAndGlyphs" textLength="31" x="627.5" y="992.1309">(JWT)</text><polygon fill="#56666F" points="108.5,1052.4941,98.5,1056.4941,108.5,1060.4941,104.5,1056.4941" style="stroke: #56666F; stroke-width: 1.0;"/><line style="stroke: #56666F; stroke-width: 1.0;" x1="102.5" x2="572.5" y1="1056.4941" y2="1056.4941"/><text fill="#000000" font-family="sans-serif" font-size="13" font-weight="bold" lengthAdjust="spacingAndGlyphs" textLength="18" x="119.5" y="1039.0967">16</text><text fill="#000000" font-family="sans-serif" font-size="13" lengthAdjust="spacingAndGlyphs" textLength="135" x="151.5" y="1031.4414">(Shopping cart HTML)</text><text fill="#000000" font-family="sans-serif" font-size="13" lengthAdjust="spacingAndGlyphs" textLength="323" x="151.5" y="1046.752">[New JWT HttpOnly w/ domain: Store.Example.com]</text><path d="M8,1073.4941 L8,1100.4941 A4,4 0 0 0 12,1104.4941 L183,1104.4941 A4,4 0 0 0 187,1100.4941 L187,1079.4941 L177,1069.4941 L12,1069.4941 A4,4 0 0 0 8,1073.4941 " fill="#EB8C52" style="stroke: #FFFFFF; stroke-width: 1.0;"/><path d="M177,1069.4941 L177,1077.4941 A2,2 0 0 0 179,1079.4941 L187,1079.4941 L177,1069.4941 " fill="#EB8C52" style="stroke: #FFFFFF; stroke-width: 1.0;"/><text fill="#FFFFFF" font-family="sans-serif" font-size="13" font-style="italic" font-weight="bold" lengthAdjust="spacingAndGlyphs" textLength="148" x="19" y="1092.0625">Refresh token expires</text><rect fill="#3F2C61" height="3" style="stroke: #3F2C61; stroke-width: 1.0;" width="1114" x="3" y="1135.46"/><line style="stroke: #FFFFFF; stroke-width: 0.5;" x1="3" x2="1117" y1="1135.46" y2="1135.46"/><line style="stroke: #FFFFFF; stroke-width: 0.5;" x1="3" x2="1117" y1="1138.46" y2="1138.46"/><rect fill="#3F2C61" height="33.3105" style="stroke: #FFFFFF; stroke-width: 1.0;" width="87" x="516.5" y="1119.8047"/><text fill="#FFFFFF" font-family="sans-serif" font-size="13" font-weight="bold" lengthAdjust="spacingAndGlyphs" textLength="59" x="527.5" y="1141.373">Re-login</text><polygon fill="#56666F" points="561.5,1205.7363,571.5,1209.7363,561.5,1213.7363,565.5,1209.7363" style="stroke: #56666F; stroke-width: 1.0;"/><line style="stroke: #56666F; stroke-width: 1.0;" x1="97.5" x2="567.5" y1="1209.7363" y2="1209.7363"/><text fill="#000000" font-family="sans-serif" font-size="13" font-weight="bold" lengthAdjust="spacingAndGlyphs" textLength="18" x="109.5" y="1192.3389">17</text><text fill="#000000" font-family="sans-serif" font-size="13" lengthAdjust="spacingAndGlyphs" textLength="126" x="141.5" y="1184.6836">GET /shopping-cart</text><text fill="#000000" font-family="sans-serif" font-size="13" lengthAdjust="spacingAndGlyphs" textLength="410" x="141.5" y="1199.9941">[Refresh token and JWT HttpOnly w/ domain: Store.Example.com]</text><polygon fill="#56666F" points="917.5,1260.3574,927.5,1264.3574,917.5,1268.3574,921.5,1264.3574" style="stroke: #56666F; stroke-width: 1.0;"/><line style="stroke: #56666F; stroke-width: 1.0;" x1="573.5" x2="923.5" y1="1264.3574" y2="1264.3574"/><text fill="#000000" font-family="sans-serif" font-size="13" font-weight="bold" lengthAdjust="spacingAndGlyphs" textLength="18" x="585.5" y="1246.96">18</text><text fill="#000000" font-family="sans-serif" font-size="13" lengthAdjust="spacingAndGlyphs" textLength="290" x="617.5" y="1239.3047">POST /oauth2/token or POST /api/jwt/refresh</text><text fill="#000000" font-family="sans-serif" font-size="13" lengthAdjust="spacingAndGlyphs" textLength="244" x="617.5" y="1254.6152">(grant_type=refresh and refresh token)</text><polygon fill="#EB8C52" points="584.5,1299.668,574.5,1303.668,584.5,1307.668,580.5,1303.668" style="stroke: #EB8C52; stroke-width: 1.0;"/><line style="stroke: #EB8C52; stroke-width: 1.0;" x1="578.5" x2="928.5" y1="1303.668" y2="1303.668"/><text fill="#000000" font-family="sans-serif" font-size="13" font-weight="bold" lengthAdjust="spacingAndGlyphs" textLength="18" x="595.5" y="1293.9258">19</text><text fill="#EB8C52" font-family="sans-serif" font-size="13" lengthAdjust="spacingAndGlyphs" textLength="77" x="627.5" y="1293.9258">404 Missing</text><polygon fill="#56666F" points="108.5,1338.9785,98.5,1342.9785,108.5,1346.9785,104.5,1342.9785" style="stroke: #56666F; stroke-width: 1.0;"/><line style="stroke: #56666F; stroke-width: 1.0;" x1="102.5" x2="572.5" y1="1342.9785" y2="1342.9785"/><text fill="#000000" font-family="sans-serif" font-size="13" font-weight="bold" lengthAdjust="spacingAndGlyphs" textLength="18" x="119.5" y="1333.2363">20</text><text fill="#000000" font-family="sans-serif" font-size="13" lengthAdjust="spacingAndGlyphs" textLength="129" x="151.5" y="1333.2363">302 Location: /login</text><line style="stroke: #56666F; stroke-width: 1.0;" x1="97.5" x2="139.5" y1="1382.2891" y2="1382.2891"/><line style="stroke: #56666F; stroke-width: 1.0;" x1="139.5" x2="139.5" y1="1382.2891" y2="1395.2891"/><line style="stroke: #56666F; stroke-width: 1.0;" x1="98.5" x2="139.5" y1="1395.2891" y2="1395.2891"/><polygon fill="#56666F" points="108.5,1391.2891,98.5,1395.2891,108.5,1399.2891,104.5,1395.2891" style="stroke: #56666F; stroke-width: 1.0;"/><text fill="#000000" font-family="sans-serif" font-size="13" font-weight="bold" lengthAdjust="spacingAndGlyphs" textLength="18" x="109.5" y="1372.5469">21</text><text fill="#000000" font-family="sans-serif" font-size="13" lengthAdjust="spacingAndGlyphs" textLength="131" x="141.5" y="1372.5469">Login same as above</text><path d="M62,1462.2891 L62,1489.2891 A4,4 0 0 0 66,1493.2891 L1107,1493.2891 A4,4 0 0 0 1111,1489.2891 L1111,1468.2891 L1101,1458.2891 L66,1458.2891 A4,4 0 0 0 62,1462.2891 " fill="#8B80A1" style="stroke: #FFFFFF; stroke-width: 1.0;"/><path d="M1101,1458.2891 L1101,1466.2891 A2,2 0 0 0 1103,1468.2891 L1111,1468.2891 L1101,1458.2891 " fill="#8B80A1" style="stroke: #FFFFFF; stroke-width: 1.0;"/><text fill="#FFFFFF" font-family="sans-serif" font-size="13" font-style="italic" lengthAdjust="spacingAndGlyphs" textLength="126" x="519" y="1480.8574">SSO login to forums</text><rect fill="#3F2C61" height="3" style="stroke: #3F2C61; stroke-width: 1.0;" width="1114" x="3" y="1574.2549"/><line style="stroke: #FFFFFF; stroke-width: 0.5;" x1="3" x2="1117" y1="1574.2549" y2="1574.2549"/><line style="stroke: #FFFFFF; stroke-width: 0.5;" x1="3" x2="1117" y1="1577.2549" y2="1577.2549"/><rect fill="#3F2C61" height="33.3105" style="stroke: #FFFFFF; stroke-width: 1.0;" width="86" x="517" y="1558.5996"/><text fill="#FFFFFF" font-family="sans-serif" font-size="13" font-weight="bold" lengthAdjust="spacingAndGlyphs" textLength="58" x="528" y="1580.168">Initialize</text><polygon fill="#56666F" points="601.5,1644.5313,611.5,1648.5313,601.5,1652.5313,605.5,1648.5313" style="stroke: #56666F; stroke-width: 1.0;"/><line style="stroke: #56666F; stroke-width: 1.0;" x1="97.5" x2="607.5" y1="1648.5313" y2="1648.5313"/><text fill="#000000" font-family="sans-serif" font-size="13" font-weight="bold" lengthAdjust="spacingAndGlyphs" textLength="18" x="109.5" y="1631.1338">22</text><text fill="#000000" font-family="sans-serif" font-size="13" lengthAdjust="spacingAndGlyphs" textLength="35" x="141.5" y="1623.4785">GET /</text><text fill="#000000" font-family="sans-serif" font-size="13" lengthAdjust="spacingAndGlyphs" textLength="79" x="141.5" y="1638.7891">[No cookies]</text><rect fill="#D8D8D8" height="40.4883" rx="4" ry="4" style="stroke: #979797; stroke-width: 1.0;" width="76" x="613.5" y="1605.043"/><text fill="#000000" font-family="sans-serif" font-size="14" lengthAdjust="spacingAndGlyphs" textLength="52" x="625.5" y="1630.5781">Forums</text><polygon fill="#56666F" points="108.5,1683.8418,98.5,1687.8418,108.5,1691.8418,104.5,1687.8418" style="stroke: #56666F; stroke-width: 1.0;"/><line style="stroke: #56666F; stroke-width: 1.0;" x1="102.5" x2="650.5" y1="1687.8418" y2="1687.8418"/><text fill="#000000" font-family="sans-serif" font-size="13" font-weight="bold" lengthAdjust="spacingAndGlyphs" textLength="18" x="119.5" y="1678.0996">23</text><text fill="#000000" font-family="sans-serif" font-size="13" lengthAdjust="spacingAndGlyphs" textLength="260" x="151.5" y="1678.0996">(HTML, CSS &amp; JavaScript - with login link)</text><rect fill="#3F2C61" height="3" style="stroke: #3F2C61; stroke-width: 1.0;" width="1114" x="3" y="1721.4971"/><line style="stroke: #FFFFFF; stroke-width: 0.5;" x1="3" x2="1117" y1="1721.4971" y2="1721.4971"/><line style="stroke: #FFFFFF; stroke-width: 0.5;" x1="3" x2="1117" y1="1724.4971" y2="1724.4971"/><rect fill="#3F2C61" height="33.3105" style="stroke: #FFFFFF; stroke-width: 1.0;" width="621" x="249.5" y="1705.8418"/><text fill="#FFFFFF" font-family="sans-serif" font-size="13" font-weight="bold" lengthAdjust="spacingAndGlyphs" textLength="593" x="260.5" y="1727.4102">Login (browser navigates away from WebApp but auto-logs-in since the session exists)</text><polygon fill="#56666F" points="917.5,1791.7734,927.5,1795.7734,917.5,1799.7734,921.5,1795.7734" style="stroke: #56666F; stroke-width: 1.0;"/><line style="stroke: #56666F; stroke-width: 1.0;" x1="97.5" x2="923.5" y1="1795.7734" y2="1795.7734"/><text fill="#000000" font-family="sans-serif" font-size="13" font-weight="bold" lengthAdjust="spacingAndGlyphs" textLength="18" x="109.5" y="1778.376">24</text><text fill="#000000" font-family="sans-serif" font-size="13" lengthAdjust="spacingAndGlyphs" textLength="288" x="141.5" y="1770.7207">GET /oauth2/authorize {response_type=code}</text><text fill="#000000" font-family="sans-serif" font-size="13" lengthAdjust="spacingAndGlyphs" textLength="329" x="141.5" y="1786.0313">[SessionId HttpOnly w/ domain: login.fusionauth.io]</text><polygon fill="#56666F" points="108.5,1846.3945,98.5,1850.3945,108.5,1854.3945,104.5,1850.3945" style="stroke: #56666F; stroke-width: 1.0;"/><line style="stroke: #56666F; stroke-width: 1.0;" x1="102.5" x2="928.5" y1="1850.3945" y2="1850.3945"/><text fill="#000000" font-family="sans-serif" font-size="13" font-weight="bold" lengthAdjust="spacingAndGlyphs" textLength="18" x="119.5" y="1832.9971">25</text><text fill="#000000" font-family="sans-serif" font-size="13" lengthAdjust="spacingAndGlyphs" textLength="225" x="151.5" y="1825.3418">302 Location: {redirect_uri w/ code}</text><text fill="#000000" font-family="sans-serif" font-size="13" lengthAdjust="spacingAndGlyphs" textLength="329" x="151.5" y="1840.6523">[SessionId HttpOnly w/ domain: login.fusionauth.io]</text><polygon fill="#56666F" points="639.5,1885.7051,649.5,1889.7051,639.5,1893.7051,643.5,1889.7051" style="stroke: #56666F; stroke-width: 1.0;"/><line style="stroke: #56666F; stroke-width: 1.0;" x1="97.5" x2="645.5" y1="1889.7051" y2="1889.7051"/><text fill="#000000" font-family="sans-serif" font-size="13" font-weight="bold" lengthAdjust="spacingAndGlyphs" textLength="18" x="109.5" y="1879.9629">26</text><text fill="#000000" font-family="sans-serif" font-size="13" lengthAdjust="spacingAndGlyphs" textLength="163" x="141.5" y="1879.9629">GET {redirect_uri w/ code}</text><polygon fill="#56666F" points="917.5,1940.3262,927.5,1944.3262,917.5,1948.3262,921.5,1944.3262" style="stroke: #56666F; stroke-width: 1.0;"/><line style="stroke: #56666F; stroke-width: 1.0;" x1="651.5" x2="923.5" y1="1944.3262" y2="1944.3262"/><text fill="#000000" font-family="sans-serif" font-size="13" font-weight="bold" lengthAdjust="spacingAndGlyphs" textLength="18" x="663.5" y="1926.9287">27</text><text fill="#000000" font-family="sans-serif" font-size="13" lengthAdjust="spacingAndGlyphs" textLength="130" x="695.5" y="1919.2734">POST /oauth2/token</text><text fill="#000000" font-family="sans-serif" font-size="13" lengthAdjust="spacingAndGlyphs" textLength="126" x="695.5" y="1934.584">(code, client_secret)</text><polygon fill="#56666F" points="662.5,1994.9473,652.5,1998.9473,662.5,2002.9473,658.5,1998.9473" style="stroke: #56666F; stroke-width: 1.0;"/><line style="stroke: #56666F; stroke-width: 1.0;" x1="656.5" x2="928.5" y1="1998.9473" y2="1998.9473"/><text fill="#000000" font-family="sans-serif" font-size="13" font-weight="bold" lengthAdjust="spacingAndGlyphs" textLength="18" x="673.5" y="1981.5498">28</text><text fill="#000000" font-family="sans-serif" font-size="13" lengthAdjust="spacingAndGlyphs" textLength="46" x="705.5" y="1973.8945">200 Ok</text><text fill="#000000" font-family="sans-serif" font-size="13" lengthAdjust="spacingAndGlyphs" textLength="149" x="705.5" y="1989.2051">(Refresh token and JWT)</text><polygon fill="#56666F" points="108.5,2049.5684,98.5,2053.5684,108.5,2057.5684,104.5,2053.5684" style="stroke: #56666F; stroke-width: 1.0;"/><line style="stroke: #56666F; stroke-width: 1.0;" x1="102.5" x2="650.5" y1="2053.5684" y2="2053.5684"/><text fill="#000000" font-family="sans-serif" font-size="13" font-weight="bold" lengthAdjust="spacingAndGlyphs" textLength="18" x="119.5" y="2036.1709">29</text><text fill="#000000" font-family="sans-serif" font-size="13" lengthAdjust="spacingAndGlyphs" textLength="132" x="151.5" y="2028.5156">302 Location: /posts</text><text fill="#000000" font-family="sans-serif" font-size="13" lengthAdjust="spacingAndGlyphs" textLength="425" x="151.5" y="2043.8262">[Refresh token and JWT HttpOnly w/ domain: Forums.Example.com]</text><rect fill="#3F2C61" height="3" style="stroke: #3F2C61; stroke-width: 1.0;" width="1114" x="3" y="2087.2236"/><line style="stroke: #FFFFFF; stroke-width: 0.5;" x1="3" x2="1117" y1="2087.2236" y2="2087.2236"/><line style="stroke: #FFFFFF; stroke-width: 0.5;" x1="3" x2="1117" y1="2090.2236" y2="2090.2236"/><rect fill="#3F2C61" height="33.3105" style="stroke: #FFFFFF; stroke-width: 1.0;" width="104" x="508" y="2071.5684"/><text fill="#FFFFFF" font-family="sans-serif" font-size="13" font-weight="bold" lengthAdjust="spacingAndGlyphs" textLength="76" x="519" y="2093.1367">Forum load</text><polygon fill="#56666F" points="639.5,2157.5,649.5,2161.5,639.5,2165.5,643.5,2161.5" style="stroke: #56666F; stroke-width: 1.0;"/><line style="stroke: #56666F; stroke-width: 1.0;" x1="97.5" x2="645.5" y1="2161.5" y2="2161.5"/><text fill="#000000" font-family="sans-serif" font-size="13" font-weight="bold" lengthAdjust="spacingAndGlyphs" textLength="18" x="109.5" y="2144.1025">30</text><text fill="#000000" font-family="sans-serif" font-size="13" lengthAdjust="spacingAndGlyphs" textLength="70" x="141.5" y="2136.4473">GET /posts</text><text fill="#000000" font-family="sans-serif" font-size="13" lengthAdjust="spacingAndGlyphs" textLength="425" x="141.5" y="2151.7578">[Refresh token and JWT HttpOnly w/ domain: Forums.Example.com]</text><polygon fill="#56666F" points="108.5,2196.8105,98.5,2200.8105,108.5,2204.8105,104.5,2200.8105" style="stroke: #56666F; stroke-width: 1.0;"/><line style="stroke: #56666F; stroke-width: 1.0;" x1="102.5" x2="650.5" y1="2200.8105" y2="2200.8105"/><text fill="#000000" font-family="sans-serif" font-size="13" font-weight="bold" lengthAdjust="spacingAndGlyphs" textLength="18" x="119.5" y="2191.0684">31</text><text fill="#000000" font-family="sans-serif" font-size="13" lengthAdjust="spacingAndGlyphs" textLength="127" x="151.5" y="2191.0684">(Forum posts HTML)</text><path d="M62,2267.8105 L62,2294.8105 A4,4 0 0 0 66,2298.8105 L1107,2298.8105 A4,4 0 0 0 1111,2294.8105 L1111,2273.8105 L1101,2263.8105 L66,2263.8105 A4,4 0 0 0 62,2267.8105 " fill="#8B80A1" style="stroke: #FFFFFF; stroke-width: 1.0;"/><path d="M1101,2263.8105 L1101,2271.8105 A2,2 0 0 0 1103,2273.8105 L1111,2273.8105 L1101,2263.8105 " fill="#8B80A1" style="stroke: #FFFFFF; stroke-width: 1.0;"/><text fill="#FFFFFF" font-family="sans-serif" font-size="13" font-style="italic" lengthAdjust="spacingAndGlyphs" textLength="91" x="536.5" y="2286.3789">Attack vectors</text><rect fill="#3F2C61" height="3" style="stroke: #3F2C61; stroke-width: 1.0;" width="1114" x="3" y="2379.7764"/><line style="stroke: #FFFFFF; stroke-width: 0.5;" x1="3" x2="1117" y1="2379.7764" y2="2379.7764"/><line style="stroke: #FFFFFF; stroke-width: 0.5;" x1="3" x2="1117" y1="2382.7764" y2="2382.7764"/><rect fill="#3F2C61" height="33.3105" style="stroke: #FFFFFF; stroke-width: 1.0;" width="164" x="478" y="2364.1211"/><text fill="#FFFFFF" font-family="sans-serif" font-size="13" font-weight="bold" lengthAdjust="spacingAndGlyphs" textLength="136" x="489" y="2385.6895">Stolen refresh token</text><polygon fill="#56666F" points="584.5,2450.0527,574.5,2454.0527,584.5,2458.0527,580.5,2454.0527" style="stroke: #56666F; stroke-width: 1.0;"/><line style="stroke: #56666F; stroke-width: 1.0;" x1="578.5" x2="1075.5" y1="2454.0527" y2="2454.0527"/><text fill="#000000" font-family="sans-serif" font-size="13" font-weight="bold" lengthAdjust="spacingAndGlyphs" textLength="18" x="595.5" y="2436.6553">32</text><text fill="#000000" font-family="sans-serif" font-size="13" lengthAdjust="spacingAndGlyphs" textLength="126" x="627.5" y="2429">GET /shopping-cart</text><text fill="#000000" font-family="sans-serif" font-size="13" lengthAdjust="spacingAndGlyphs" textLength="437" x="627.5" y="2444.3105">[Refresh token and bad JWT HttpOnly w/ domain: Store.Example.com]</text><polygon fill="#56666F" points="917.5,2504.6738,927.5,2508.6738,917.5,2512.6738,921.5,2508.6738" style="stroke: #56666F; stroke-width: 1.0;"/><line style="stroke: #56666F; stroke-width: 1.0;" x1="573.5" x2="923.5" y1="2508.6738" y2="2508.6738"/><text fill="#000000" font-family="sans-serif" font-size="13" font-weight="bold" lengthAdjust="spacingAndGlyphs" textLength="18" x="585.5" y="2491.2764">33</text><text fill="#000000" font-family="sans-serif" font-size="13" lengthAdjust="spacingAndGlyphs" textLength="290" x="617.5" y="2483.6211">POST /oauth2/token or POST /api/jwt/refresh</text><text fill="#000000" font-family="sans-serif" font-size="13" lengthAdjust="spacingAndGlyphs" textLength="244" x="617.5" y="2498.9316">(grant_type=refresh and refresh token)</text><polygon fill="#56666F" points="584.5,2543.9844,574.5,2547.9844,584.5,2551.9844,580.5,2547.9844" style="stroke: #56666F; stroke-width: 1.0;"/><line style="stroke: #56666F; stroke-width: 1.0;" x1="578.5" x2="928.5" y1="2547.9844" y2="2547.9844"/><text fill="#000000" font-family="sans-serif" font-size="13" font-weight="bold" lengthAdjust="spacingAndGlyphs" textLength="18" x="595.5" y="2538.2422">34</text><text fill="#000000" font-family="sans-serif" font-size="13" lengthAdjust="spacingAndGlyphs" textLength="31" x="627.5" y="2538.2422">(JWT)</text><polygon fill="#56666F" points="1064.5,2598.6055,1074.5,2602.6055,1064.5,2606.6055,1068.5,2602.6055" style="stroke: #56666F; stroke-width: 1.0;"/><line style="stroke: #56666F; stroke-width: 1.0;" x1="573.5" x2="1070.5" y1="2602.6055" y2="2602.6055"/><text fill="#000000" font-family="sans-serif" font-size="13" font-weight="bold" lengthAdjust="spacingAndGlyphs" textLength="18" x="585.5" y="2585.208">35</text><text fill="#000000" font-family="sans-serif" font-size="13" lengthAdjust="spacingAndGlyphs" textLength="135" x="617.5" y="2577.5527">(Shopping cart HTML)</text><text fill="#000000" font-family="sans-serif" font-size="13" lengthAdjust="spacingAndGlyphs" textLength="323" x="617.5" y="2592.8633">[New JWT HttpOnly w/ domain: Store.Example.com]</text><rect fill="#3F2C61" height="3" style="stroke: #3F2C61; stroke-width: 1.0;" width="1114" x="3" y="2636.2607"/><line style="stroke: #FFFFFF; stroke-width: 0.5;" x1="3" x2="1117" y1="2636.2607" y2="2636.2607"/><line style="stroke: #FFFFFF; stroke-width: 0.5;" x1="3" x2="1117" y1="2639.2607" y2="2639.2607"/><rect fill="#3F2C61" height="33.3105" style="stroke: #FFFFFF; stroke-width: 1.0;" width="99" x="510.5" y="2620.6055"/><text fill="#FFFFFF" font-family="sans-serif" font-size="13" font-weight="bold" lengthAdjust="spacingAndGlyphs" textLength="71" x="521.5" y="2642.1738">Stolen JWT</text><polygon fill="#56666F" points="584.5,2706.5371,574.5,2710.5371,584.5,2714.5371,580.5,2710.5371" style="stroke: #56666F; stroke-width: 1.0;"/><line style="stroke: #56666F; stroke-width: 1.0;" x1="578.5" x2="1075.5" y1="2710.5371" y2="2710.5371"/><text fill="#000000" font-family="sans-serif" font-size="13" font-weight="bold" lengthAdjust="spacingAndGlyphs" textLength="18" x="595.5" y="2693.1396">36</text><text fill="#000000" font-family="sans-serif" font-size="13" lengthAdjust="spacingAndGlyphs" textLength="126" x="627.5" y="2685.4844">GET /shopping-cart</text><text fill="#000000" font-family="sans-serif" font-size="13" lengthAdjust="spacingAndGlyphs" textLength="292" x="627.5" y="2700.7949">[JWT HttpOnly w/ domain: Store.Example.com]</text><polygon fill="#56666F" points="1064.5,2745.8477,1074.5,2749.8477,1064.5,2753.8477,1068.5,2749.8477" style="stroke: #56666F; stroke-width: 1.0;"/><line style="stroke: #56666F; stroke-width: 1.0;" x1="573.5" x2="1070.5" y1="2749.8477" y2="2749.8477"/><text fill="#000000" font-family="sans-serif" font-size="13" font-weight="bold" lengthAdjust="spacingAndGlyphs" textLength="18" x="585.5" y="2740.1055">37</text><text fill="#000000" font-family="sans-serif" font-size="13" lengthAdjust="spacingAndGlyphs" textLength="135" x="617.5" y="2740.1055">(Shopping cart HTML)</text></g></svg>