<?xml version="1.0" encoding="UTF-8" standalone="no"?><svg xmlns="http://www.w3.org/2000/svg" xmlns:xlink="http://www.w3.org/1999/xlink" contentScriptType="application/ecmascript" contentStyleType="text/css" height="2751px" preserveAspectRatio="none" style="width:1338px;height:2751px;" version="1.1" viewBox="0 0 1338 2751" width="1338px" zoomAndPan="magnify"><defs/><g><rect fill="#D8D8D8" height="40.4883" rx="4" ry="4" style="stroke: #979797; stroke-width: 1.0;" width="76" x="878.5" y="1683.3535"/><text fill="#000000" font-family="sans-serif" font-size="14" lengthAdjust="spacingAndGlyphs" textLength="52" x="890.5" y="1708.8887">Forums</text><line style="stroke: #CDCDCD; stroke-width: 1.0; stroke-dasharray: 5.0,5.0;" x1="102" x2="102" y1="44.4883" y2="2700.6738"/><line style="stroke: #CDCDCD; stroke-width: 1.0; stroke-dasharray: 5.0,5.0;" x1="615.5" x2="615.5" y1="44.4883" y2="2700.6738"/><line style="stroke: #CDCDCD; stroke-width: 1.0; stroke-dasharray: 5.0,5.0;" x1="916.5" x2="916.5" y1="1717.5313" y2="2700.6738"/><line style="stroke: #CDCDCD; stroke-width: 1.0; stroke-dasharray: 5.0,5.0;" x1="1188" x2="1188" y1="44.4883" y2="2700.6738"/><line style="stroke: #CDCDCD; stroke-width: 1.0; stroke-dasharray: 5.0,5.0;" x1="1285" x2="1285" y1="44.4883" y2="2700.6738"/><rect fill="#D8D8D8" height="40.4883" rx="4" ry="4" style="stroke: #979797; stroke-width: 1.0;" width="79" x="63" y="3"/><text fill="#000000" font-family="sans-serif" font-size="14" lengthAdjust="spacingAndGlyphs" textLength="55" x="75" y="28.5352">Browser</text><rect fill="#D8D8D8" height="40.4883" rx="4" ry="4" style="stroke: #979797; stroke-width: 1.0;" width="79" x="63" y="2699.6738"/><text fill="#000000" font-family="sans-serif" font-size="14" lengthAdjust="spacingAndGlyphs" textLength="55" x="75" y="2725.209">Browser</text><rect fill="#D8D8D8" height="40.4883" rx="4" ry="4" style="stroke: #979797; stroke-width: 1.0;" width="60" x="585.5" y="3"/><text fill="#000000" font-family="sans-serif" font-size="14" lengthAdjust="spacingAndGlyphs" textLength="36" x="597.5" y="28.5352">Store</text><rect fill="#D8D8D8" height="40.4883" rx="4" ry="4" style="stroke: #979797; stroke-width: 1.0;" width="60" x="585.5" y="2699.6738"/><text fill="#000000" font-family="sans-serif" font-size="14" lengthAdjust="spacingAndGlyphs" textLength="36" x="597.5" y="2725.209">Store</text><rect fill="#D8D8D8" height="40.4883" rx="4" ry="4" style="stroke: #979797; stroke-width: 1.0;" width="76" x="878.5" y="2699.6738"/><text fill="#000000" font-family="sans-serif" font-size="14" lengthAdjust="spacingAndGlyphs" textLength="52" x="890.5" y="2725.209">Forums</text><rect fill="#D8D8D8" height="40.4883" rx="4" ry="4" style="stroke: #979797; stroke-width: 1.0;" width="103" x="1137" y="3"/><text fill="#000000" font-family="sans-serif" font-size="14" lengthAdjust="spacingAndGlyphs" textLength="79" x="1149" y="28.5352">FusionAuth</text><rect fill="#D8D8D8" height="40.4883" rx="4" ry="4" style="stroke: #979797; stroke-width: 1.0;" width="103" x="1137" y="2699.6738"/><text fill="#000000" font-family="sans-serif" font-size="14" lengthAdjust="spacingAndGlyphs" textLength="79" x="1149" y="2725.209">FusionAuth</text><rect fill="#D8D8D8" height="40.4883" rx="4" ry="4" style="stroke: #979797; stroke-width: 1.0;" width="71" x="1250" y="3"/><text fill="#000000" font-family="sans-serif" font-size="14" lengthAdjust="spacingAndGlyphs" textLength="47" x="1262" y="28.5352">Hacker</text><rect fill="#D8D8D8" height="40.4883" rx="4" ry="4" style="stroke: #979797; stroke-width: 1.0;" width="71" x="1250" y="2699.6738"/><text fill="#000000" font-family="sans-serif" font-size="14" lengthAdjust="spacingAndGlyphs" textLength="47" x="1262" y="2725.209">Hacker</text><rect fill="#3F2C61" height="3" style="stroke: #3F2C61; stroke-width: 1.0;" width="1323" x="3" y="80.1436"/><line style="stroke: #FFFFFF; stroke-width: 0.5;" x1="3" x2="1326" y1="80.1436" y2="80.1436"/><line style="stroke: #FFFFFF; stroke-width: 0.5;" x1="3" x2="1326" y1="83.1436" y2="83.1436"/><rect fill="#3F2C61" height="33.3105" style="stroke: #FFFFFF; stroke-width: 1.0;" width="86" x="621.5" y="64.4883"/><text fill="#FFFFFF" font-family="sans-serif" font-size="13" font-weight="bold" lengthAdjust="spacingAndGlyphs" textLength="58" x="632.5" y="86.0566">Initialize</text><polygon fill="#56666F" points="603.5,135.1094,613.5,139.1094,603.5,143.1094,607.5,139.1094" style="stroke: #56666F; stroke-width: 1.0;"/><line style="stroke: #56666F; stroke-width: 1.0;" x1="102.5" x2="609.5" y1="139.1094" y2="139.1094"/><text fill="#000000" font-family="sans-serif" font-size="13" font-weight="bold" lengthAdjust="spacingAndGlyphs" textLength="9" x="114.5" y="129.3672">1</text><text fill="#000000" font-family="sans-serif" font-size="13" lengthAdjust="spacingAndGlyphs" textLength="35" x="137.5" y="129.3672">GET /</text><polygon fill="#56666F" points="113.5,174.4199,103.5,178.4199,113.5,182.4199,109.5,178.4199" style="stroke: #56666F; stroke-width: 1.0;"/><line style="stroke: #56666F; stroke-width: 1.0;" x1="107.5" x2="614.5" y1="178.4199" y2="178.4199"/><text fill="#000000" font-family="sans-serif" font-size="13" font-weight="bold" lengthAdjust="spacingAndGlyphs" textLength="9" x="124.5" y="168.6777">2</text><text fill="#000000" font-family="sans-serif" font-size="13" lengthAdjust="spacingAndGlyphs" textLength="260" x="147.5" y="168.6777">(HTML, CSS &amp; JavaScript - with login link)</text><rect fill="#3F2C61" height="3" style="stroke: #3F2C61; stroke-width: 1.0;" width="1323" x="3" y="212.0752"/><line style="stroke: #FFFFFF; stroke-width: 0.5;" x1="3" x2="1326" y1="212.0752" y2="212.0752"/><line style="stroke: #FFFFFF; stroke-width: 0.5;" x1="3" x2="1326" y1="215.0752" y2="215.0752"/><rect fill="#3F2C61" height="33.3105" style="stroke: #FFFFFF; stroke-width: 1.0;" width="182" x="573.5" y="196.4199"/><text fill="#FFFFFF" font-family="sans-serif" font-size="13" font-weight="bold" lengthAdjust="spacingAndGlyphs" textLength="154" x="584.5" y="217.9883">Login (inside WebApp)</text><polygon fill="#56666F" points="603.5,267.041,613.5,271.041,603.5,275.041,607.5,271.041" style="stroke: #56666F; stroke-width: 1.0;"/><line style="stroke: #56666F; stroke-width: 1.0;" x1="102.5" x2="609.5" y1="271.041" y2="271.041"/><text fill="#000000" font-family="sans-serif" font-size="13" font-weight="bold" lengthAdjust="spacingAndGlyphs" textLength="9" x="114.5" y="261.2988">3</text><text fill="#000000" font-family="sans-serif" font-size="13" lengthAdjust="spacingAndGlyphs" textLength="67" x="137.5" y="261.2988">GET /login</text><polygon fill="#56666F" points="113.5,306.3516,103.5,310.3516,113.5,314.3516,109.5,310.3516" style="stroke: #56666F; stroke-width: 1.0;"/><line style="stroke: #56666F; stroke-width: 1.0;" x1="107.5" x2="614.5" y1="310.3516" y2="310.3516"/><text fill="#000000" font-family="sans-serif" font-size="13" font-weight="bold" lengthAdjust="spacingAndGlyphs" textLength="9" x="124.5" y="300.6094">4</text><text fill="#000000" font-family="sans-serif" font-size="13" lengthAdjust="spacingAndGlyphs" textLength="117" x="147.5" y="300.6094">(Login form HTML)</text><polygon fill="#56666F" points="603.5,345.6621,613.5,349.6621,603.5,353.6621,607.5,349.6621" style="stroke: #56666F; stroke-width: 1.0;"/><line style="stroke: #56666F; stroke-width: 1.0;" x1="102.5" x2="609.5" y1="349.6621" y2="349.6621"/><text fill="#000000" font-family="sans-serif" font-size="13" font-weight="bold" lengthAdjust="spacingAndGlyphs" textLength="9" x="114.5" y="339.9199">5</text><text fill="#000000" font-family="sans-serif" font-size="13" lengthAdjust="spacingAndGlyphs" textLength="75" x="137.5" y="339.9199">POST /login</text><polygon fill="#56666F" points="1176.5,400.2832,1186.5,404.2832,1176.5,408.2832,1180.5,404.2832" style="stroke: #56666F; stroke-width: 1.0;"/><line style="stroke: #56666F; stroke-width: 1.0;" x1="615.5" x2="1182.5" y1="404.2832" y2="404.2832"/><text fill="#000000" font-family="sans-serif" font-size="13" font-weight="bold" lengthAdjust="spacingAndGlyphs" textLength="9" x="627.5" y="386.8857">6</text><text fill="#000000" font-family="sans-serif" font-size="13" lengthAdjust="spacingAndGlyphs" textLength="130" x="650.5" y="379.2305">POST /oauth2/token</text><text fill="#000000" font-family="sans-serif" font-size="13" lengthAdjust="spacingAndGlyphs" textLength="145" x="650.5" y="394.541">(grant_type=password)</text><polygon fill="#56666F" points="626.5,439.5938,616.5,443.5938,626.5,447.5938,622.5,443.5938" style="stroke: #56666F; stroke-width: 1.0;"/><line style="stroke: #56666F; stroke-width: 1.0;" x1="620.5" x2="1187.5" y1="443.5938" y2="443.5938"/><text fill="#000000" font-family="sans-serif" font-size="13" font-weight="bold" lengthAdjust="spacingAndGlyphs" textLength="9" x="637.5" y="433.8516">7</text><text fill="#000000" font-family="sans-serif" font-size="13" lengthAdjust="spacingAndGlyphs" textLength="152" x="660.5" y="433.8516">(Refresh Token and JWT)</text><line style="stroke: #56666F; stroke-width: 1.0;" x1="615.5" x2="657.5" y1="482.9043" y2="482.9043"/><line style="stroke: #56666F; stroke-width: 1.0;" x1="657.5" x2="657.5" y1="482.9043" y2="495.9043"/><line style="stroke: #56666F; stroke-width: 1.0;" x1="616.5" x2="657.5" y1="495.9043" y2="495.9043"/><polygon fill="#56666F" points="626.5,491.9043,616.5,495.9043,626.5,499.9043,622.5,495.9043" style="stroke: #56666F; stroke-width: 1.0;"/><text fill="#000000" font-family="sans-serif" font-size="13" font-weight="bold" lengthAdjust="spacingAndGlyphs" textLength="9" x="627.5" y="473.1621">8</text><text fill="#000000" font-family="sans-serif" font-size="13" lengthAdjust="spacingAndGlyphs" textLength="216" x="650.5" y="473.1621">Create session and store User in it</text><polygon fill="#56666F" points="113.5,546.5254,103.5,550.5254,113.5,554.5254,109.5,550.5254" style="stroke: #56666F; stroke-width: 1.0;"/><line style="stroke: #56666F; stroke-width: 1.0;" x1="107.5" x2="614.5" y1="550.5254" y2="550.5254"/><text fill="#000000" font-family="sans-serif" font-size="13" font-weight="bold" lengthAdjust="spacingAndGlyphs" textLength="9" x="124.5" y="533.1279">9</text><text fill="#000000" font-family="sans-serif" font-size="13" lengthAdjust="spacingAndGlyphs" textLength="188" x="147.5" y="525.4727">302 Location: /shopping-cart</text><text fill="#000000" font-family="sans-serif" font-size="13" lengthAdjust="spacingAndGlyphs" textLength="440" x="147.5" y="540.7832">[SesionId and Refresh token HttpOnly w/ domain: Store.Example.com]</text><rect fill="#3F2C61" height="3" style="stroke: #3F2C61; stroke-width: 1.0;" width="1323" x="3" y="584.1807"/><line style="stroke: #FFFFFF; stroke-width: 0.5;" x1="3" x2="1326" y1="584.1807" y2="584.1807"/><line style="stroke: #FFFFFF; stroke-width: 0.5;" x1="3" x2="1326" y1="587.1807" y2="587.1807"/><rect fill="#3F2C61" height="33.3105" style="stroke: #FFFFFF; stroke-width: 1.0;" width="155" x="587" y="568.5254"/><text fill="#FFFFFF" font-family="sans-serif" font-size="13" font-weight="bold" lengthAdjust="spacingAndGlyphs" textLength="127" x="598" y="590.0938">Shopping cart load</text><polygon fill="#56666F" points="603.5,654.457,613.5,658.457,603.5,662.457,607.5,658.457" style="stroke: #56666F; stroke-width: 1.0;"/><line style="stroke: #56666F; stroke-width: 1.0;" x1="102.5" x2="609.5" y1="658.457" y2="658.457"/><text fill="#000000" font-family="sans-serif" font-size="13" font-weight="bold" lengthAdjust="spacingAndGlyphs" textLength="18" x="114.5" y="641.0596">10</text><text fill="#000000" font-family="sans-serif" font-size="13" lengthAdjust="spacingAndGlyphs" textLength="126" x="146.5" y="633.4043">GET /shopping-cart</text><text fill="#000000" font-family="sans-serif" font-size="13" lengthAdjust="spacingAndGlyphs" textLength="447" x="146.5" y="648.7148">[SessionId and Refresh token HttpOnly w/ domain: Store.Example.com]</text><line style="stroke: #56666F; stroke-width: 1.0;" x1="615.5" x2="657.5" y1="697.7676" y2="697.7676"/><line style="stroke: #56666F; stroke-width: 1.0;" x1="657.5" x2="657.5" y1="697.7676" y2="710.7676"/><line style="stroke: #56666F; stroke-width: 1.0;" x1="616.5" x2="657.5" y1="710.7676" y2="710.7676"/><polygon fill="#56666F" points="626.5,706.7676,616.5,710.7676,626.5,714.7676,622.5,710.7676" style="stroke: #56666F; stroke-width: 1.0;"/><text fill="#000000" font-family="sans-serif" font-size="13" font-weight="bold" lengthAdjust="spacingAndGlyphs" textLength="18" x="627.5" y="688.0254">11</text><text fill="#000000" font-family="sans-serif" font-size="13" lengthAdjust="spacingAndGlyphs" textLength="110" x="659.5" y="688.0254">Session extended</text><polygon fill="#56666F" points="113.5,746.0781,103.5,750.0781,113.5,754.0781,109.5,750.0781" style="stroke: #56666F; stroke-width: 1.0;"/><line style="stroke: #56666F; stroke-width: 1.0;" x1="107.5" x2="614.5" y1="750.0781" y2="750.0781"/><text fill="#000000" font-family="sans-serif" font-size="13" font-weight="bold" lengthAdjust="spacingAndGlyphs" textLength="18" x="124.5" y="740.3359">12</text><text fill="#000000" font-family="sans-serif" font-size="13" lengthAdjust="spacingAndGlyphs" textLength="135" x="156.5" y="740.3359">(Shopping cart HTML)</text><path d="M8,767.0781 L8,809.0781 A4,4 0 0 0 12,813.0781 L194,813.0781 A4,4 0 0 0 198,809.0781 L198,773.0781 L188,763.0781 L12,763.0781 A4,4 0 0 0 8,767.0781 " fill="#EB8C52" style="stroke: #FFFFFF; stroke-width: 1.0;"/><path d="M188,763.0781 L188,771.0781 A2,2 0 0 0 190,773.0781 L198,773.0781 L188,763.0781 " fill="#EB8C52" style="stroke: #FFFFFF; stroke-width: 1.0;"/><text fill="#FFFFFF" font-family="sans-serif" font-size="13" font-style="italic" font-weight="bold" lengthAdjust="spacingAndGlyphs" textLength="104" x="19" y="785.6465">Session expires</text><text fill="#FFFFFF" font-family="sans-serif" font-size="13" font-style="italic" font-weight="bold" lengthAdjust="spacingAndGlyphs" textLength="159" x="19" y="800.957">Refresh token still valid</text><rect fill="#3F2C61" height="3" style="stroke: #3F2C61; stroke-width: 1.0;" width="1323" x="3" y="844.3545"/><line style="stroke: #FFFFFF; stroke-width: 0.5;" x1="3" x2="1326" y1="844.3545" y2="844.3545"/><line style="stroke: #FFFFFF; stroke-width: 0.5;" x1="3" x2="1326" y1="847.3545" y2="847.3545"/><rect fill="#3F2C61" height="33.3105" style="stroke: #FFFFFF; stroke-width: 1.0;" width="155" x="587" y="828.6992"/><text fill="#FFFFFF" font-family="sans-serif" font-size="13" font-weight="bold" lengthAdjust="spacingAndGlyphs" textLength="127" x="598" y="850.2676">Shopping cart load</text><polygon fill="#56666F" points="603.5,914.6309,613.5,918.6309,603.5,922.6309,607.5,918.6309" style="stroke: #56666F; stroke-width: 1.0;"/><line style="stroke: #56666F; stroke-width: 1.0;" x1="102.5" x2="609.5" y1="918.6309" y2="918.6309"/><text fill="#000000" font-family="sans-serif" font-size="13" font-weight="bold" lengthAdjust="spacingAndGlyphs" textLength="18" x="114.5" y="901.2334">13</text><text fill="#000000" font-family="sans-serif" font-size="13" lengthAdjust="spacingAndGlyphs" textLength="126" x="146.5" y="893.5781">GET /shopping-cart</text><text fill="#000000" font-family="sans-serif" font-size="13" lengthAdjust="spacingAndGlyphs" textLength="447" x="146.5" y="908.8887">[SessionId and Refresh token HttpOnly w/ domain: Store.Example.com]</text><polygon fill="#56666F" points="1176.5,969.252,1186.5,973.252,1176.5,977.252,1180.5,973.252" style="stroke: #56666F; stroke-width: 1.0;"/><line style="stroke: #56666F; stroke-width: 1.0;" x1="615.5" x2="1182.5" y1="973.252" y2="973.252"/><text fill="#000000" font-family="sans-serif" font-size="13" font-weight="bold" lengthAdjust="spacingAndGlyphs" textLength="18" x="627.5" y="955.8545">14</text><text fill="#000000" font-family="sans-serif" font-size="13" lengthAdjust="spacingAndGlyphs" textLength="290" x="659.5" y="948.1992">POST /oauth2/token or POST /api/jwt/refresh</text><text fill="#000000" font-family="sans-serif" font-size="13" lengthAdjust="spacingAndGlyphs" textLength="244" x="659.5" y="963.5098">(grant_type=refresh and refresh token)</text><polygon fill="#56666F" points="626.5,1008.5625,616.5,1012.5625,626.5,1016.5625,622.5,1012.5625" style="stroke: #56666F; stroke-width: 1.0;"/><line style="stroke: #56666F; stroke-width: 1.0;" x1="620.5" x2="1187.5" y1="1012.5625" y2="1012.5625"/><text fill="#000000" font-family="sans-serif" font-size="13" font-weight="bold" lengthAdjust="spacingAndGlyphs" textLength="18" x="637.5" y="1002.8203">15</text><text fill="#000000" font-family="sans-serif" font-size="13" lengthAdjust="spacingAndGlyphs" textLength="31" x="669.5" y="1002.8203">(JWT)</text><line style="stroke: #56666F; stroke-width: 1.0;" x1="615.5" x2="657.5" y1="1051.873" y2="1051.873"/><line style="stroke: #56666F; stroke-width: 1.0;" x1="657.5" x2="657.5" y1="1051.873" y2="1064.873"/><line style="stroke: #56666F; stroke-width: 1.0;" x1="616.5" x2="657.5" y1="1064.873" y2="1064.873"/><polygon fill="#56666F" points="626.5,1060.873,616.5,1064.873,626.5,1068.873,622.5,1064.873" style="stroke: #56666F; stroke-width: 1.0;"/><text fill="#000000" font-family="sans-serif" font-size="13" font-weight="bold" lengthAdjust="spacingAndGlyphs" textLength="18" x="627.5" y="1042.1309">16</text><text fill="#000000" font-family="sans-serif" font-size="13" lengthAdjust="spacingAndGlyphs" textLength="245" x="659.5" y="1042.1309">Create new session and store User in it</text><polygon fill="#56666F" points="113.5,1115.4941,103.5,1119.4941,113.5,1123.4941,109.5,1119.4941" style="stroke: #56666F; stroke-width: 1.0;"/><line style="stroke: #56666F; stroke-width: 1.0;" x1="107.5" x2="614.5" y1="1119.4941" y2="1119.4941"/><text fill="#000000" font-family="sans-serif" font-size="13" font-weight="bold" lengthAdjust="spacingAndGlyphs" textLength="18" x="124.5" y="1102.0967">17</text><text fill="#000000" font-family="sans-serif" font-size="13" lengthAdjust="spacingAndGlyphs" textLength="154" x="156.5" y="1094.4414">(Shopping cart contents)</text><text fill="#000000" font-family="sans-serif" font-size="13" lengthAdjust="spacingAndGlyphs" textLength="360" x="156.5" y="1109.752">[New SessionId HttpOnly w/ domain: Store.Example.com]</text><path d="M13,1136.4941 L13,1178.4941 A4,4 0 0 0 17,1182.4941 L188,1182.4941 A4,4 0 0 0 192,1178.4941 L192,1142.4941 L182,1132.4941 L17,1132.4941 A4,4 0 0 0 13,1136.4941 " fill="#EB8C52" style="stroke: #FFFFFF; stroke-width: 1.0;"/><path d="M182,1132.4941 L182,1140.4941 A2,2 0 0 0 184,1142.4941 L192,1142.4941 L182,1132.4941 " fill="#EB8C52" style="stroke: #FFFFFF; stroke-width: 1.0;"/><text fill="#FFFFFF" font-family="sans-serif" font-size="13" font-style="italic" font-weight="bold" lengthAdjust="spacingAndGlyphs" textLength="104" x="24" y="1155.0625">Session expires</text><text fill="#FFFFFF" font-family="sans-serif" font-size="13" font-style="italic" font-weight="bold" lengthAdjust="spacingAndGlyphs" textLength="148" x="24" y="1170.373">Refresh token expires</text><rect fill="#3F2C61" height="3" style="stroke: #3F2C61; stroke-width: 1.0;" width="1323" x="3" y="1213.7705"/><line style="stroke: #FFFFFF; stroke-width: 0.5;" x1="3" x2="1326" y1="1213.7705" y2="1213.7705"/><line style="stroke: #FFFFFF; stroke-width: 0.5;" x1="3" x2="1326" y1="1216.7705" y2="1216.7705"/><rect fill="#3F2C61" height="33.3105" style="stroke: #FFFFFF; stroke-width: 1.0;" width="87" x="621" y="1198.1152"/><text fill="#FFFFFF" font-family="sans-serif" font-size="13" font-weight="bold" lengthAdjust="spacingAndGlyphs" textLength="59" x="632" y="1219.6836">Re-login</text><polygon fill="#56666F" points="603.5,1284.0469,613.5,1288.0469,603.5,1292.0469,607.5,1288.0469" style="stroke: #56666F; stroke-width: 1.0;"/><line style="stroke: #56666F; stroke-width: 1.0;" x1="102.5" x2="609.5" y1="1288.0469" y2="1288.0469"/><text fill="#000000" font-family="sans-serif" font-size="13" font-weight="bold" lengthAdjust="spacingAndGlyphs" textLength="18" x="114.5" y="1270.6494">18</text><text fill="#000000" font-family="sans-serif" font-size="13" lengthAdjust="spacingAndGlyphs" textLength="126" x="146.5" y="1262.9941">GET /shopping-cart</text><text fill="#000000" font-family="sans-serif" font-size="13" lengthAdjust="spacingAndGlyphs" textLength="447" x="146.5" y="1278.3047">[SessionId and Refresh token HttpOnly w/ domain: Store.Example.com]</text><polygon fill="#56666F" points="1176.5,1338.668,1186.5,1342.668,1176.5,1346.668,1180.5,1342.668" style="stroke: #56666F; stroke-width: 1.0;"/><line style="stroke: #56666F; stroke-width: 1.0;" x1="615.5" x2="1182.5" y1="1342.668" y2="1342.668"/><text fill="#000000" font-family="sans-serif" font-size="13" font-weight="bold" lengthAdjust="spacingAndGlyphs" textLength="18" x="627.5" y="1325.2705">19</text><text fill="#000000" font-family="sans-serif" font-size="13" lengthAdjust="spacingAndGlyphs" textLength="290" x="659.5" y="1317.6152">POST /oauth2/token or POST /api/jwt/refresh</text><text fill="#000000" font-family="sans-serif" font-size="13" lengthAdjust="spacingAndGlyphs" textLength="244" x="659.5" y="1332.9258">(grant_type=refresh and refresh token)</text><polygon fill="#EB8C52" points="626.5,1377.9785,616.5,1381.9785,626.5,1385.9785,622.5,1381.9785" style="stroke: #EB8C52; stroke-width: 1.0;"/><line style="stroke: #EB8C52; stroke-width: 1.0;" x1="620.5" x2="1187.5" y1="1381.9785" y2="1381.9785"/><text fill="#000000" font-family="sans-serif" font-size="13" font-weight="bold" lengthAdjust="spacingAndGlyphs" textLength="18" x="637.5" y="1372.2363">20</text><text fill="#EB8C52" font-family="sans-serif" font-size="13" lengthAdjust="spacingAndGlyphs" textLength="77" x="669.5" y="1372.2363">404 Missing</text><polygon fill="#56666F" points="113.5,1417.2891,103.5,1421.2891,113.5,1425.2891,109.5,1421.2891" style="stroke: #56666F; stroke-width: 1.0;"/><line style="stroke: #56666F; stroke-width: 1.0;" x1="107.5" x2="614.5" y1="1421.2891" y2="1421.2891"/><text fill="#000000" font-family="sans-serif" font-size="13" font-weight="bold" lengthAdjust="spacingAndGlyphs" textLength="18" x="124.5" y="1411.5469">21</text><text fill="#000000" font-family="sans-serif" font-size="13" lengthAdjust="spacingAndGlyphs" textLength="129" x="156.5" y="1411.5469">302 Location: /login</text><line style="stroke: #56666F; stroke-width: 1.0;" x1="102.5" x2="144.5" y1="1460.5996" y2="1460.5996"/><line style="stroke: #56666F; stroke-width: 1.0;" x1="144.5" x2="144.5" y1="1460.5996" y2="1473.5996"/><line style="stroke: #56666F; stroke-width: 1.0;" x1="103.5" x2="144.5" y1="1473.5996" y2="1473.5996"/><polygon fill="#56666F" points="113.5,1469.5996,103.5,1473.5996,113.5,1477.5996,109.5,1473.5996" style="stroke: #56666F; stroke-width: 1.0;"/><text fill="#000000" font-family="sans-serif" font-size="13" font-weight="bold" lengthAdjust="spacingAndGlyphs" textLength="18" x="114.5" y="1450.8574">22</text><text fill="#000000" font-family="sans-serif" font-size="13" lengthAdjust="spacingAndGlyphs" textLength="131" x="146.5" y="1450.8574">Login same as above</text><path d="M67,1540.5996 L67,1567.5996 A4,4 0 0 0 71,1571.5996 L1316,1571.5996 A4,4 0 0 0 1320,1567.5996 L1320,1546.5996 L1310,1536.5996 L71,1536.5996 A4,4 0 0 0 67,1540.5996 " fill="#8B80A1" style="stroke: #FFFFFF; stroke-width: 1.0;"/><path d="M1310,1536.5996 L1310,1544.5996 A2,2 0 0 0 1312,1546.5996 L1320,1546.5996 L1310,1536.5996 " fill="#8B80A1" style="stroke: #FFFFFF; stroke-width: 1.0;"/><text fill="#FFFFFF" font-family="sans-serif" font-size="13" font-style="italic" lengthAdjust="spacingAndGlyphs" textLength="429" x="474.5" y="1559.168">SSO login to forums - not provided by FusionAuth for this workflow</text><rect fill="#3F2C61" height="3" style="stroke: #3F2C61; stroke-width: 1.0;" width="1323" x="3" y="1652.5654"/><line style="stroke: #FFFFFF; stroke-width: 0.5;" x1="3" x2="1326" y1="1652.5654" y2="1652.5654"/><line style="stroke: #FFFFFF; stroke-width: 0.5;" x1="3" x2="1326" y1="1655.5654" y2="1655.5654"/><rect fill="#3F2C61" height="33.3105" style="stroke: #FFFFFF; stroke-width: 1.0;" width="86" x="621.5" y="1636.9102"/><text fill="#FFFFFF" font-family="sans-serif" font-size="13" font-weight="bold" lengthAdjust="spacingAndGlyphs" textLength="58" x="632.5" y="1658.4785">Initialize</text><polygon fill="#56666F" points="866.5,1722.8418,876.5,1726.8418,866.5,1730.8418,870.5,1726.8418" style="stroke: #56666F; stroke-width: 1.0;"/><line style="stroke: #56666F; stroke-width: 1.0;" x1="102.5" x2="872.5" y1="1726.8418" y2="1726.8418"/><text fill="#000000" font-family="sans-serif" font-size="13" font-weight="bold" lengthAdjust="spacingAndGlyphs" textLength="18" x="114.5" y="1709.4443">23</text><text fill="#000000" font-family="sans-serif" font-size="13" lengthAdjust="spacingAndGlyphs" textLength="35" x="146.5" y="1701.7891">GET /</text><text fill="#000000" font-family="sans-serif" font-size="13" lengthAdjust="spacingAndGlyphs" textLength="79" x="146.5" y="1717.0996">[No cookies]</text><rect fill="#D8D8D8" height="40.4883" rx="4" ry="4" style="stroke: #979797; stroke-width: 1.0;" width="76" x="878.5" y="1683.3535"/><text fill="#000000" font-family="sans-serif" font-size="14" lengthAdjust="spacingAndGlyphs" textLength="52" x="890.5" y="1708.8887">Forums</text><polygon fill="#56666F" points="113.5,1762.1523,103.5,1766.1523,113.5,1770.1523,109.5,1766.1523" style="stroke: #56666F; stroke-width: 1.0;"/><line style="stroke: #56666F; stroke-width: 1.0;" x1="107.5" x2="915.5" y1="1766.1523" y2="1766.1523"/><text fill="#000000" font-family="sans-serif" font-size="13" font-weight="bold" lengthAdjust="spacingAndGlyphs" textLength="18" x="124.5" y="1756.4102">24</text><text fill="#000000" font-family="sans-serif" font-size="13" lengthAdjust="spacingAndGlyphs" textLength="260" x="156.5" y="1756.4102">(HTML, CSS &amp; JavaScript - with login link)</text><rect fill="#3F2C61" height="3" style="stroke: #3F2C61; stroke-width: 1.0;" width="1323" x="3" y="1799.8076"/><line style="stroke: #FFFFFF; stroke-width: 0.5;" x1="3" x2="1326" y1="1799.8076" y2="1799.8076"/><line style="stroke: #FFFFFF; stroke-width: 0.5;" x1="3" x2="1326" y1="1802.8076" y2="1802.8076"/><rect fill="#3F2C61" height="33.3105" style="stroke: #FFFFFF; stroke-width: 1.0;" width="182" x="573.5" y="1784.1523"/><text fill="#FFFFFF" font-family="sans-serif" font-size="13" font-weight="bold" lengthAdjust="spacingAndGlyphs" textLength="154" x="584.5" y="1805.7207">Login (inside WebApp)</text><polygon fill="#56666F" points="904.5,1854.7734,914.5,1858.7734,904.5,1862.7734,908.5,1858.7734" style="stroke: #56666F; stroke-width: 1.0;"/><line style="stroke: #56666F; stroke-width: 1.0;" x1="102.5" x2="910.5" y1="1858.7734" y2="1858.7734"/><text fill="#000000" font-family="sans-serif" font-size="13" font-weight="bold" lengthAdjust="spacingAndGlyphs" textLength="18" x="114.5" y="1849.0313">25</text><text fill="#000000" font-family="sans-serif" font-size="13" lengthAdjust="spacingAndGlyphs" textLength="67" x="146.5" y="1849.0313">GET /login</text><polygon fill="#56666F" points="113.5,1894.084,103.5,1898.084,113.5,1902.084,109.5,1898.084" style="stroke: #56666F; stroke-width: 1.0;"/><line style="stroke: #56666F; stroke-width: 1.0;" x1="107.5" x2="915.5" y1="1898.084" y2="1898.084"/><text fill="#000000" font-family="sans-serif" font-size="13" font-weight="bold" lengthAdjust="spacingAndGlyphs" textLength="18" x="124.5" y="1888.3418">26</text><text fill="#000000" font-family="sans-serif" font-size="13" lengthAdjust="spacingAndGlyphs" textLength="117" x="156.5" y="1888.3418">(Login form HTML)</text><polygon fill="#56666F" points="904.5,1933.3945,914.5,1937.3945,904.5,1941.3945,908.5,1937.3945" style="stroke: #56666F; stroke-width: 1.0;"/><line style="stroke: #56666F; stroke-width: 1.0;" x1="102.5" x2="910.5" y1="1937.3945" y2="1937.3945"/><text fill="#000000" font-family="sans-serif" font-size="13" font-weight="bold" lengthAdjust="spacingAndGlyphs" textLength="18" x="114.5" y="1927.6523">27</text><text fill="#000000" font-family="sans-serif" font-size="13" lengthAdjust="spacingAndGlyphs" textLength="75" x="146.5" y="1927.6523">POST /login</text><polygon fill="#56666F" points="1176.5,1988.0156,1186.5,1992.0156,1176.5,1996.0156,1180.5,1992.0156" style="stroke: #56666F; stroke-width: 1.0;"/><line style="stroke: #56666F; stroke-width: 1.0;" x1="916.5" x2="1182.5" y1="1992.0156" y2="1992.0156"/><text fill="#000000" font-family="sans-serif" font-size="13" font-weight="bold" lengthAdjust="spacingAndGlyphs" textLength="18" x="928.5" y="1974.6182">28</text><text fill="#000000" font-family="sans-serif" font-size="13" lengthAdjust="spacingAndGlyphs" textLength="130" x="960.5" y="1966.9629">POST /oauth2/token</text><text fill="#000000" font-family="sans-serif" font-size="13" lengthAdjust="spacingAndGlyphs" textLength="145" x="960.5" y="1982.2734">(grant_type=password)</text><polygon fill="#56666F" points="927.5,2027.3262,917.5,2031.3262,927.5,2035.3262,923.5,2031.3262" style="stroke: #56666F; stroke-width: 1.0;"/><line style="stroke: #56666F; stroke-width: 1.0;" x1="921.5" x2="1187.5" y1="2031.3262" y2="2031.3262"/><text fill="#000000" font-family="sans-serif" font-size="13" font-weight="bold" lengthAdjust="spacingAndGlyphs" textLength="18" x="938.5" y="2021.584">29</text><text fill="#000000" font-family="sans-serif" font-size="13" lengthAdjust="spacingAndGlyphs" textLength="152" x="970.5" y="2021.584">(Refresh Token and JWT)</text><line style="stroke: #56666F; stroke-width: 1.0;" x1="916.5" x2="958.5" y1="2070.6367" y2="2070.6367"/><line style="stroke: #56666F; stroke-width: 1.0;" x1="958.5" x2="958.5" y1="2070.6367" y2="2083.6367"/><line style="stroke: #56666F; stroke-width: 1.0;" x1="917.5" x2="958.5" y1="2083.6367" y2="2083.6367"/><polygon fill="#56666F" points="927.5,2079.6367,917.5,2083.6367,927.5,2087.6367,923.5,2083.6367" style="stroke: #56666F; stroke-width: 1.0;"/><text fill="#000000" font-family="sans-serif" font-size="13" font-weight="bold" lengthAdjust="spacingAndGlyphs" textLength="18" x="928.5" y="2060.8945">30</text><text fill="#000000" font-family="sans-serif" font-size="13" lengthAdjust="spacingAndGlyphs" textLength="216" x="960.5" y="2060.8945">Create session and store User in it</text><polygon fill="#56666F" points="113.5,2134.2578,103.5,2138.2578,113.5,2142.2578,109.5,2138.2578" style="stroke: #56666F; stroke-width: 1.0;"/><line style="stroke: #56666F; stroke-width: 1.0;" x1="107.5" x2="915.5" y1="2138.2578" y2="2138.2578"/><text fill="#000000" font-family="sans-serif" font-size="13" font-weight="bold" lengthAdjust="spacingAndGlyphs" textLength="18" x="124.5" y="2120.8604">31</text><text fill="#000000" font-family="sans-serif" font-size="13" lengthAdjust="spacingAndGlyphs" textLength="132" x="156.5" y="2113.2051">302 Location: /posts</text><text fill="#000000" font-family="sans-serif" font-size="13" lengthAdjust="spacingAndGlyphs" textLength="465" x="156.5" y="2128.5156">[SessionId and Refresh Token HttpOnly w/ domain: Forums.Example.com]</text><rect fill="#3F2C61" height="3" style="stroke: #3F2C61; stroke-width: 1.0;" width="1323" x="3" y="2171.9131"/><line style="stroke: #FFFFFF; stroke-width: 0.5;" x1="3" x2="1326" y1="2171.9131" y2="2171.9131"/><line style="stroke: #FFFFFF; stroke-width: 0.5;" x1="3" x2="1326" y1="2174.9131" y2="2174.9131"/><rect fill="#3F2C61" height="33.3105" style="stroke: #FFFFFF; stroke-width: 1.0;" width="104" x="612.5" y="2156.2578"/><text fill="#FFFFFF" font-family="sans-serif" font-size="13" font-weight="bold" lengthAdjust="spacingAndGlyphs" textLength="76" x="623.5" y="2177.8262">Forum load</text><polygon fill="#56666F" points="904.5,2242.1895,914.5,2246.1895,904.5,2250.1895,908.5,2246.1895" style="stroke: #56666F; stroke-width: 1.0;"/><line style="stroke: #56666F; stroke-width: 1.0;" x1="102.5" x2="910.5" y1="2246.1895" y2="2246.1895"/><text fill="#000000" font-family="sans-serif" font-size="13" font-weight="bold" lengthAdjust="spacingAndGlyphs" textLength="18" x="114.5" y="2228.792">32</text><text fill="#000000" font-family="sans-serif" font-size="13" lengthAdjust="spacingAndGlyphs" textLength="70" x="146.5" y="2221.1367">GET /posts</text><text fill="#000000" font-family="sans-serif" font-size="13" lengthAdjust="spacingAndGlyphs" textLength="462" x="146.5" y="2236.4473">[SessionId and Refresh token HttpOnly w/ domain: Forums.Example.com]</text><line style="stroke: #56666F; stroke-width: 1.0;" x1="916.5" x2="958.5" y1="2285.5" y2="2285.5"/><line style="stroke: #56666F; stroke-width: 1.0;" x1="958.5" x2="958.5" y1="2285.5" y2="2298.5"/><line style="stroke: #56666F; stroke-width: 1.0;" x1="917.5" x2="958.5" y1="2298.5" y2="2298.5"/><polygon fill="#56666F" points="927.5,2294.5,917.5,2298.5,927.5,2302.5,923.5,2298.5" style="stroke: #56666F; stroke-width: 1.0;"/><text fill="#000000" font-family="sans-serif" font-size="13" font-weight="bold" lengthAdjust="spacingAndGlyphs" textLength="18" x="928.5" y="2275.7578">33</text><text fill="#000000" font-family="sans-serif" font-size="13" lengthAdjust="spacingAndGlyphs" textLength="110" x="960.5" y="2275.7578">Session extended</text><polygon fill="#56666F" points="113.5,2333.8105,103.5,2337.8105,113.5,2341.8105,109.5,2337.8105" style="stroke: #56666F; stroke-width: 1.0;"/><line style="stroke: #56666F; stroke-width: 1.0;" x1="107.5" x2="915.5" y1="2337.8105" y2="2337.8105"/><text fill="#000000" font-family="sans-serif" font-size="13" font-weight="bold" lengthAdjust="spacingAndGlyphs" textLength="18" x="124.5" y="2328.0684">34</text><text fill="#000000" font-family="sans-serif" font-size="13" lengthAdjust="spacingAndGlyphs" textLength="127" x="156.5" y="2328.0684">(Forum posts HTML)</text><path d="M67,2404.8105 L67,2431.8105 A4,4 0 0 0 71,2435.8105 L1316,2435.8105 A4,4 0 0 0 1320,2431.8105 L1320,2410.8105 L1310,2400.8105 L71,2400.8105 A4,4 0 0 0 67,2404.8105 " fill="#8B80A1" style="stroke: #FFFFFF; stroke-width: 1.0;"/><path d="M1310,2400.8105 L1310,2408.8105 A2,2 0 0 0 1312,2410.8105 L1320,2410.8105 L1310,2400.8105 " fill="#8B80A1" style="stroke: #FFFFFF; stroke-width: 1.0;"/><text fill="#FFFFFF" font-family="sans-serif" font-size="13" font-style="italic" lengthAdjust="spacingAndGlyphs" textLength="91" x="643.5" y="2423.3789">Attack vectors</text><rect fill="#3F2C61" height="3" style="stroke: #3F2C61; stroke-width: 1.0;" width="1323" x="3" y="2516.7764"/><line style="stroke: #FFFFFF; stroke-width: 0.5;" x1="3" x2="1326" y1="2516.7764" y2="2516.7764"/><line style="stroke: #FFFFFF; stroke-width: 0.5;" x1="3" x2="1326" y1="2519.7764" y2="2519.7764"/><rect fill="#3F2C61" height="33.3105" style="stroke: #FFFFFF; stroke-width: 1.0;" width="140" x="594.5" y="2501.1211"/><text fill="#FFFFFF" font-family="sans-serif" font-size="13" font-weight="bold" lengthAdjust="spacingAndGlyphs" textLength="112" x="605.5" y="2522.6895">Stolen session id</text><polygon fill="#56666F" points="626.5,2587.0527,616.5,2591.0527,626.5,2595.0527,622.5,2591.0527" style="stroke: #56666F; stroke-width: 1.0;"/><line style="stroke: #56666F; stroke-width: 1.0;" x1="620.5" x2="1284.5" y1="2591.0527" y2="2591.0527"/><text fill="#000000" font-family="sans-serif" font-size="13" font-weight="bold" lengthAdjust="spacingAndGlyphs" textLength="18" x="637.5" y="2573.6553">35</text><text fill="#000000" font-family="sans-serif" font-size="13" lengthAdjust="spacingAndGlyphs" textLength="126" x="669.5" y="2566">GET /shopping-cart</text><text fill="#000000" font-family="sans-serif" font-size="13" lengthAdjust="spacingAndGlyphs" textLength="329" x="669.5" y="2581.3105">[SessionId HttpOnly w/ domain: Store.Example.com]</text><line style="stroke: #56666F; stroke-width: 1.0;" x1="615.5" x2="657.5" y1="2630.3633" y2="2630.3633"/><line style="stroke: #56666F; stroke-width: 1.0;" x1="657.5" x2="657.5" y1="2630.3633" y2="2643.3633"/><line style="stroke: #56666F; stroke-width: 1.0;" x1="616.5" x2="657.5" y1="2643.3633" y2="2643.3633"/><polygon fill="#56666F" points="626.5,2639.3633,616.5,2643.3633,626.5,2647.3633,622.5,2643.3633" style="stroke: #56666F; stroke-width: 1.0;"/><text fill="#000000" font-family="sans-serif" font-size="13" font-weight="bold" lengthAdjust="spacingAndGlyphs" textLength="18" x="627.5" y="2620.6211">36</text><text fill="#000000" font-family="sans-serif" font-size="13" lengthAdjust="spacingAndGlyphs" textLength="110" x="659.5" y="2620.6211">Session extended</text><polygon fill="#56666F" points="1273.5,2678.6738,1283.5,2682.6738,1273.5,2686.6738,1277.5,2682.6738" style="stroke: #56666F; stroke-width: 1.0;"/><line style="stroke: #56666F; stroke-width: 1.0;" x1="615.5" x2="1279.5" y1="2682.6738" y2="2682.6738"/><text fill="#000000" font-family="sans-serif" font-size="13" font-weight="bold" lengthAdjust="spacingAndGlyphs" textLength="18" x="627.5" y="2672.9316">37</text><text fill="#000000" font-family="sans-serif" font-size="13" lengthAdjust="spacingAndGlyphs" textLength="135" x="659.5" y="2672.9316">(Shopping cart HTML)</text></g></svg>