<?xml version="1.0" encoding="utf-8"?>
<!-- Generator: Adobe Illustrator 24.0.1, SVG Export Plug-In . SVG Version: 6.00 Build 0)  -->
<svg version="1.1" id="Layer_1" xmlns="http://www.w3.org/2000/svg" xmlns:xlink="http://www.w3.org/1999/xlink" x="0px" y="0px"
	 viewBox="0 0 4096 385" style="enable-background:new 0 0 4096 385;" xml:space="preserve">
<style type="text/css">
	.st0{fill:#0B5D7F;}
	.st1{fill-rule:evenodd;clip-rule:evenodd;fill:#20F2F5;}
	.st2{fill-rule:evenodd;clip-rule:evenodd;fill:#0B5D7F;}
	.st3{fill:#078AAB;}
	.st4{fill:#055681;}
	.st5{fill:#044674;}
	.st6{fill:#13B4C5;}
	.st7{fill:#045887;}
	.st8{fill:url(#SVGID_1_);}
	.st9{fill:url(#SVGID_2_);}
	.st10{fill:url(#SVGID_3_);}
	.st11{fill:url(#SVGID_4_);}
	.st12{fill:#20F2F5;}
	.st13{fill:none;stroke:#2E2D77;stroke-width:1.5;stroke-miterlimit:10;stroke-dasharray:5;}
	.st14{fill:none;stroke:#045887;stroke-width:6;stroke-linecap:round;stroke-miterlimit:10;}
	.st15{fill:#0A8FAE;}
	.st16{fill:#2E3192;}
	.st17{fill:url(#SVGID_5_);}
</style>
<path class="st0" d="M2183.4,78.4L2183.4,78.4c-11.5,0-20.8,9.3-20.8,20.8v20.5c0,3.6,2.5,6.5,5.9,7.2c0.8,0.2,1.7,0,2.3-0.5
	l3.6-2.6c1.4-1,3.3-1.1,4.7-0.1l2.8,1.9c1.3,0.9,3.1,0.9,4.4-0.1l2.5-1.8c1.5-1.1,3.6-1,5,0.4l1.6,1.5c1.2,1.2,3.1,1.5,4.6,0.8
	c2.5-1.2,4.2-3.7,4.2-6.6V99.3C2204.2,87.8,2194.9,78.4,2183.4,78.4z M2177.7,100.5c0,2.1-1.7,3.7-3.7,3.7c-2.1,0-3.7-1.7-3.7-3.7
	v-4.2c0-2.1,1.7-3.7,3.7-3.7c2.1,0,3.7,1.7,3.7,3.7V100.5z M2196.5,100.5c0,2.1-1.7,3.7-3.7,3.7s-3.7-1.7-3.7-3.7v-4.2
	c0-2.1,1.7-3.7,3.7-3.7s3.7,1.7,3.7,3.7V100.5z"/>
<g>
	<g>
		<path class="st1" d="M2516.5,1.6l-10.8,42.7l-20.9-6.7l18.6-22.7l-24.1,21.1l-19.5-6.1L2516.5,1.6z"/>
		<path class="st1" d="M2491.1,43.1l-6.9,9.7V41L2491.1,43.1z"/>
	</g>
	<g>
		<polygon class="st2" points="2465.6,80.1 2468.6,75.7 2471.2,77.4 2468.2,81.8 		"/>
		<polygon class="st2" points="2473.5,73.9 2470.9,72.1 2473.8,67.7 2476.4,69.4 		"/>
		<polygon class="st2" points="2478.8,59.7 2481.5,61.3 2478.6,65.8 2476,64.2 		"/>
		<polygon class="st2" points="2449.1,103.4 2452.3,99.1 2454.8,101 2451.7,105.3 		"/>
		<polygon class="st2" points="2457.3,97.6 2454.7,95.7 2457.8,91.4 2460.4,93.2 		"/>
		<polygon class="st2" points="2463.2,83.6 2465.8,85.4 2462.8,89.8 2460.2,88 		"/>
		<polygon class="st2" points="2434.9,121.8 2437.3,123.8 2433.9,127.9 2431.5,125.9 		"/>
		<polygon class="st2" points="2437.5,118.5 2440.8,114.4 2443.3,116.3 2440,120.5 		"/>
		<polygon class="st2" points="2443.4,111.1 2446.6,106.8 2449.1,108.7 2445.9,113 		"/>
		<polygon class="st2" points="2412.3,147 2416,143.2 2418.3,145.4 2414.5,149.2 		"/>
		<polygon class="st2" points="2418.9,140.1 2422.5,136.2 2424.8,138.3 2421.2,142.3 		"/>
		<polygon class="st2" points="2428.7,129.1 2431.1,131.2 2427.6,135.2 2425.3,133.1 		"/>
		<path class="st2" d="M2397,164.9c-1.4,1.1-2.8,2.2-4.3,3.2l-1.8-2.5c1.4-1,2.8-2.1,4.2-3.2L2397,164.9z"/>
		<path class="st2" d="M2404.4,158.7c-0.3,0.2-0.6,0.5-0.9,0.7c0.6,0.9,1.2,1.8,1.8,2.7l-2.6,1.7c-0.5-0.8-1.1-1.6-1.6-2.4
			c-0.3,0.2-0.5,0.5-0.8,0.7l-2-2.4c1.4-1.1,2.7-2.3,4-3.4L2404.4,158.7z"/>
		<path class="st2" d="M2405.4,153.6c1.3-1.2,2.6-2.4,3.8-3.6l2.2,2.3c-1.3,1.3-2.6,2.5-3.9,3.7L2405.4,153.6z"/>
		<path class="st2" d="M2370.7,176.5l1,3c-0.9,0.3-1.7,0.6-2.6,0.8c-0.9,0.2-1.8,0.5-2.7,0.7l-0.7-3.1c0.8-0.1,1.7-0.4,2.5-0.6
			C2369.1,177.1,2369.9,176.8,2370.7,176.5z"/>
		<path class="st2" d="M2380.7,175.6c-1.6,0.9-3.3,1.6-4.9,2.4l-1.2-2.9c1.6-0.7,3.2-1.4,4.7-2.3L2380.7,175.6z"/>
		<path class="st2" d="M2389.1,170.6c-1.5,1-3,2-4.6,2.9l-1.6-2.7c1.5-0.9,3-1.8,4.4-2.8L2389.1,170.6z"/>
		<path class="st2" d="M2344.1,174.8l-1.7,2.7c-1.6-1-3.1-2.1-4.5-3.4l2.1-2.4C2341.3,172.9,2342.7,173.9,2344.1,174.8z"/>
		<path class="st2" d="M2352.5,178.2l-0.7,3.1c-1.9-0.4-3.7-1-5.4-1.7l1.2-2.9C2349.2,177.3,2350.9,177.9,2352.5,178.2z"/>
		<path class="st2" d="M2361.6,178.6l0.3,3.1c-1.9,0.2-3.8,0.3-5.6,0.1l0.2-3.1C2358.2,178.9,2359.9,178.8,2361.6,178.6z"/>
		<path class="st2" d="M2325.7,153.8l-2.7,1.7c-1-1.5-1.9-3.1-2.8-4.7l2.7-1.5C2323.9,150.8,2324.7,152.4,2325.7,153.8z"/>
		<path class="st2" d="M2331.1,161.6l-2.5,1.9c-1.1-1.4-2.1-2.9-3.2-4.4l2.6-1.8C2329,158.7,2330,160.2,2331.1,161.6z"/>
		<path class="st2" d="M2337,168.8l-2.3,2.1c-1.2-1.4-2.4-2.7-3.5-4.1l2.4-2C2334.7,166.2,2335.9,167.5,2337,168.8z"/>
		<path class="st2" d="M2315,127.9l-3.1,0.6c-0.3-1.8-0.6-3.6-0.7-5.5l3.1-0.2C2314.4,124.5,2314.7,126.2,2315,127.9z"/>
		<path class="st2" d="M2317.4,136.9l-3,1c-0.6-1.7-1.1-3.5-1.6-5.2l3-0.8C2316.3,133.6,2316.8,135.3,2317.4,136.9z"/>
		<path class="st2" d="M2321,145.6l-2.8,1.4c-0.8-1.6-1.6-3.3-2.3-5l2.9-1.2C2319.5,142.4,2320.3,144,2321,145.6z"/>
		<path class="st2" d="M2319.8,100.3c1.7-1.1,3.5-1.9,5.4-2.5l0.8,3c-1.6,0.4-3.1,1.1-4.5,2L2319.8,100.3z"/>
		<path class="st2" d="M2313.2,108.5c0.8-1.8,1.8-3.5,3-5.1l2.4,2c-1,1.3-1.9,2.7-2.5,4.3L2313.2,108.5z"/>
		<path class="st2" d="M2314.3,118.6l-3.1-0.1c0.1-1.9,0.3-3.8,0.7-5.6l3.1,0.7C2314.5,115.2,2314.3,116.9,2314.3,118.6z"/>
		<path class="st2" d="M2347.5,105.5l1.5-2.8c1.6,0.9,3.2,1.8,4.7,2.8l-1.7,2.6C2350.5,107.2,2349,106.3,2347.5,105.5z"/>
		<path class="st2" d="M2339,101.7l1-3c1.8,0.6,3.5,1.2,5.2,2l-1.3,2.9C2342.2,102.9,2340.6,102.3,2339,101.7z"/>
		<path class="st2" d="M2330,100.3l-0.1-3.1c1.9-0.1,3.9,0.1,5.7,0.5l-0.6,3.1C2333.4,100.4,2331.7,100.2,2330,100.3z"/>
		<path class="st2" d="M2372,120.5c1.3,1.2,2.5,2.6,3.8,3.8l-2.3,2.2c-1.2-1.2-2.4-2.5-3.7-3.8L2372,120.5z"/>
		<path class="st2" d="M2368.9,117.6l-2.1,2.3c-1.3-1.2-2.6-2.4-3.9-3.5l2.1-2.4C2366.2,115.1,2367.6,116.4,2368.9,117.6z"/>
		<path class="st2" d="M2361.6,111.3l-2,2.5c-1.4-1.1-2.8-2.2-4.2-3.2l1.8-2.5C2358.7,109,2360.2,110.1,2361.6,111.3z"/>
		<path class="st2" d="M2388.6,144.2l2.5-1.9c1.1,1.4,2.2,2.8,3.2,4.2l-2.5,1.9C2390.7,146.9,2389.6,145.5,2388.6,144.2z"/>
		<path class="st2" d="M2388.4,138.9l-2.4,2c-1.1-1.4-2.2-2.8-3.4-4.1l2.4-2C2386.2,136.1,2387.3,137.5,2388.4,138.9z"/>
		<polygon class="st2" points="2376.4,129.7 2378.7,127.5 2382.3,131.5 2379.9,133.6 		"/>
		<polygon class="st2" points="2410.6,170.2 2408,171.8 2405.1,167.4 2407.7,165.7 		"/>
		<polygon class="st2" points="2396.8,149.9 2400,154.3 2397.4,156.1 2394.3,151.8 		"/>
		<polygon class="st2" points="2427.4,193 2425,195 2421.7,190.8 2424.1,188.9 		"/>
		<path class="st2" d="M2421.5,185.6l-2.5,1.9c-1.1-1.4-2.3-2.7-3.2-4.2l2.5-1.8C2419.3,182.9,2420.4,184.2,2421.5,185.6z"/>
		<polygon class="st2" points="2416,178 2413.4,179.8 2410.4,175.4 2413,173.7 		"/>
		<path class="st2" d="M2447.3,213.1l-2,2.4c-1.4-1.1-2.6-2.4-3.9-3.6l2.1-2.3C2444.7,210.7,2446,211.9,2447.3,213.1z"/>
		<path class="st2" d="M2440.4,206.7l-2.2,2.3c-1.3-1.2-2.7-2.4-3.9-3.7l2.2-2.2C2437.8,204.4,2439.1,205.5,2440.4,206.7z"/>
		<polygon class="st2" points="2433.8,200 2431.5,202.2 2427.9,198.2 2430.2,196.2 		"/>
		<path class="st2" d="M2470.3,229.4l-1.6,2.7c-1.5-0.9-3.1-1.7-4.6-2.7l1.7-2.7C2467.2,227.8,2468.8,228.5,2470.3,229.4z"/>
		<polygon class="st2" points="2462.4,224.4 2460.6,227 2456.2,224 2458,221.4 		"/>
		<polygon class="st2" points="2454.7,219 2452.8,221.5 2448.6,218.1 2450.6,215.7 		"/>
		<polygon class="st2" points="2495.8,241.7 2494.6,244.6 2489.7,242.6 2490.9,239.7 		"/>
		<polygon class="st2" points="2487,238.1 2485.7,241 2480.9,238.7 2482.3,235.9 		"/>
		<path class="st2" d="M2478.6,234.1l-1.4,2.8c-1.6-0.7-3.2-1.7-4.7-2.5l1.5-2.7C2475.5,232.4,2477,233.3,2478.6,234.1z"/>
		<path class="st2" d="M2522.9,249.4l-0.6,3.1c-1.7-0.4-3.5-0.6-5.2-1.1l0.7-3.1C2519.5,248.8,2521.2,249,2522.9,249.4z"/>
		<polygon class="st2" points="2513.8,247.3 2513,250.3 2507.8,249 2508.7,246 		"/>
		<polygon class="st2" points="2504.7,244.7 2503.8,247.7 2498.7,246.1 2499.7,243.1 		"/>
		<path class="st2" d="M2551,252.9l-0.2,3.1c-1.8,0-3.6-0.3-5.3-0.4l0.2-3.1C2547.5,252.6,2549.3,252.9,2551,252.9z"/>
		<path class="st2" d="M2541.6,252.2l-0.3,3.1c-1.8-0.1-3.5-0.4-5.3-0.6l0.4-3.1C2538.1,251.8,2539.9,252.1,2541.6,252.2z"/>
		<path class="st2" d="M2532.3,251l-0.5,3.1c-1.8-0.2-3.5-0.5-5.3-0.8l0.5-3.1C2528.8,250.5,2530.5,250.8,2532.3,251z"/>
		<polygon class="st2" points="2579.6,255.7 2574.3,256 2574.1,252.9 2579.4,252.6 		"/>
		<polygon class="st2" points="2570,256.2 2564.7,256.3 2564.7,253.2 2569.9,253.1 		"/>
		<polygon class="st2" points="2560.5,253.2 2560.5,256.4 2555.2,256.2 2555.3,253 		"/>
		<path class="st2" d="M2608.1,252.1c-1.7,0.3-3.5,0.6-5.3,0.9l-0.5-3.1c1.7-0.3,3.5-0.5,5.2-0.9L2608.1,252.1z"/>
		<polygon class="st2" points="2598.7,253.7 2593.4,254.4 2593,251.2 2598.2,250.6 		"/>
		<polygon class="st2" points="2589.2,254.9 2583.9,255.4 2583.6,252.2 2588.9,251.8 		"/>
		<polygon class="st2" points="2636.1,245.6 2630.9,247 2630.1,244 2635.2,242.5 		"/>
		<path class="st2" d="M2626.8,248c-1.7,0.4-3.4,0.9-5.2,1.3l-0.7-3.1c1.7-0.4,3.4-0.8,5.1-1.2L2626.8,248z"/>
		<path class="st2" d="M2617.5,250.2c-1.7,0.4-3.5,0.7-5.2,1.1l-0.6-3.1c1.7-0.3,3.5-0.7,5.2-1.1L2617.5,250.2z"/>
		<path class="st2" d="M2663.2,236.2c-1.6,0.7-3.3,1.3-5,2l-1.1-2.9c1.6-0.6,3.3-1.3,4.9-2L2663.2,236.2z"/>
		<polygon class="st2" points="2654.3,239.7 2649.3,241.4 2648.3,238.5 2653.2,236.7 		"/>
		<path class="st2" d="M2645.3,242.7c-1.7,0.6-3.4,1.1-5.1,1.6l-0.9-3c1.7-0.5,3.4-1,5-1.6L2645.3,242.7z"/>
	</g>
</g>
<ellipse class="st3" cx="2435.2" cy="374" rx="440.8" ry="11"/>
<g>
	<path class="st4" d="M2747.3,374.7h-146.5c-2.8,0-5-2.3-5-5V236.4h156.5v133.2C2752.3,372.4,2750.1,374.7,2747.3,374.7
		L2747.3,374.7L2747.3,374.7z"/>
	<g>
		<path class="st5" d="M2605.6,335.6h136.9c0.8,0,1.4,0.6,1.4,1.4v2.9c0,0.8-0.6,1.4-1.4,1.4h-136.9c-0.8,0-1.4-0.6-1.4-1.4V337
			C2604.3,336.3,2604.9,335.6,2605.6,335.6z"/>
		<path class="st5" d="M2605.6,317.1h136.9c0.8,0,1.4,0.6,1.4,1.4v2.9c0,0.8-0.6,1.4-1.4,1.4h-136.9c-0.8,0-1.4-0.6-1.4-1.4v-2.9
			C2604.3,317.7,2604.9,317.1,2605.6,317.1z"/>
		<path class="st5" d="M2605.6,354.1h136.9c0.8,0,1.4,0.6,1.4,1.4v2.9c0,0.8-0.6,1.4-1.4,1.4h-136.9c-0.8,0-1.4-0.6-1.4-1.4v-2.9
			C2604.3,354.8,2604.9,354.1,2605.6,354.1z"/>
	</g>
	<path class="st4" d="M2597.9,75.5h152.3c1.7,0,3,1.4,3,3v23.6c0,1.7-1.4,3-3,3h-152.3c-1.7,0-3-1.4-3-3V78.6
		C2594.9,76.9,2596.2,75.5,2597.9,75.5z"/>
	<path class="st5" d="M2598.7,105.2h150.7v4.3h-150.7V105.2z"/>
	<path class="st4" d="M2598.7,105.2h150.7v1.5h-150.7V105.2z"/>
	<path class="st5" d="M2617.5,77.9h113.1c1.7,0,3.1,1.4,3.1,3.1v14.4c0,1.7-1.4,3.1-3.1,3.1h-113.1c-1.7,0-3.1-1.4-3.1-3.1V81
		C2614.4,79.3,2615.8,77.9,2617.5,77.9z"/>
	<g>
		<path class="st6" d="M2659.4,79.4h29.5c0.7,0,1.3,0.6,1.3,1.3v10.9c0,0.7-0.6,1.3-1.3,1.3h-29.5c-0.7,0-1.3-0.6-1.3-1.3v-11
			C2658.1,79.9,2658.7,79.4,2659.4,79.4z"/>
		<g>
			<path id="H_39_" class="st6" d="M2658.2,94.9h3.6v2.4h-3.6V94.9z"/>
		</g>
		<g>
			<path id="H_38_" class="st6" d="M2677,94.9h3.6v2.4h-3.6V94.9z"/>
		</g>
		<g>
			<path id="H_37_" class="st6" d="M2667.6,94.9h3.6v2.4h-3.6V94.9z"/>
		</g>
		<g>
			<path id="H_36_" class="st6" d="M2686.4,94.9h3.6v2.4h-3.6V94.9z"/>
		</g>
	</g>
	<path class="st4" d="M2597.9,109.6h152.3c1.7,0,3,1.4,3,3v23.6c0,1.7-1.4,3-3,3h-152.3c-1.7,0-3-1.4-3-3v-23.6
		C2594.9,111,2596.2,109.6,2597.9,109.6z"/>
	<path class="st5" d="M2598.7,139.3h150.7v4.3h-150.7V139.3z"/>
	<path class="st4" d="M2598.7,139.3h150.7v1.5h-150.7V139.3z"/>
	<path class="st5" d="M2617.5,112h113.1c1.7,0,3.1,1.4,3.1,3.1v14.4c0,1.7-1.4,3.1-3.1,3.1h-113.1c-1.7,0-3.1-1.4-3.1-3.1v-14.4
		C2614.4,113.4,2615.8,112,2617.5,112z"/>
	<g>
		<path class="st6" d="M2659.4,113.5h29.5c0.7,0,1.3,0.6,1.3,1.3v10.9c0,0.7-0.6,1.3-1.3,1.3h-29.5c-0.7,0-1.3-0.6-1.3-1.3v-10.9
			C2658.1,114,2658.7,113.5,2659.4,113.5z"/>
		<g>
			<path id="H_35_" class="st6" d="M2658.2,129h3.6v2.4h-3.6V129z"/>
		</g>
		<g>
			<path id="H_34_" class="st6" d="M2677,129h3.6v2.4h-3.6V129z"/>
		</g>
		<g>
			<path id="H_33_" class="st6" d="M2667.6,129h3.6v2.4h-3.6V129z"/>
		</g>
		<g>
			<path id="H_32_" class="st6" d="M2686.4,129h3.6v2.4h-3.6V129z"/>
		</g>
	</g>
	<path class="st4" d="M2597.9,143.7h152.3c1.7,0,3,1.4,3,3v23.6c0,1.7-1.4,3-3,3h-152.3c-1.7,0-3-1.4-3-3v-23.6
		C2594.9,145.1,2596.2,143.7,2597.9,143.7z"/>
	<path class="st5" d="M2598.7,173.4h150.7v4.3h-150.7V173.4z"/>
	<path class="st4" d="M2598.7,173.4h150.7v1.5h-150.7V173.4z"/>
	<path class="st5" d="M2617.5,146.1h113.1c1.7,0,3.1,1.4,3.1,3.1v14.4c0,1.7-1.4,3.1-3.1,3.1h-113.1c-1.7,0-3.1-1.4-3.1-3.1v-14.4
		C2614.4,147.5,2615.8,146.1,2617.5,146.1z"/>
	<g>
		<path class="st6" d="M2659.4,147.6h29.5c0.7,0,1.3,0.6,1.3,1.3v10.9c0,0.7-0.6,1.3-1.3,1.3h-29.5c-0.7,0-1.3-0.6-1.3-1.3v-10.9
			C2658.1,148.1,2658.7,147.6,2659.4,147.6z"/>
		<g>
			<path id="H_31_" class="st6" d="M2658.2,163.1h3.6v2.4h-3.6V163.1z"/>
		</g>
		<g>
			<path id="H_30_" class="st6" d="M2677,163.1h3.6v2.4h-3.6V163.1z"/>
		</g>
		<g>
			<path id="H_29_" class="st6" d="M2667.6,163.1h3.6v2.4h-3.6V163.1z"/>
		</g>
		<g>
			<path id="H_28_" class="st6" d="M2686.4,163.1h3.6v2.4h-3.6V163.1z"/>
		</g>
	</g>
	<path class="st4" d="M2597.9,177.8h152.3c1.7,0,3,1.4,3,3v23.6c0,1.7-1.4,3-3,3h-152.3c-1.7,0-3-1.4-3-3v-23.6
		C2594.9,179.2,2596.2,177.8,2597.9,177.8z"/>
	<path class="st5" d="M2598.7,207.5h150.7v4.3h-150.7V207.5z"/>
	<path class="st4" d="M2598.7,207.5h150.7v1.5h-150.7V207.5z"/>
	<path class="st5" d="M2617.5,180.2h113.1c1.7,0,3.1,1.4,3.1,3.1v14.4c0,1.7-1.4,3.1-3.1,3.1h-113.1c-1.7,0-3.1-1.4-3.1-3.1v-14.4
		C2614.4,181.6,2615.8,180.2,2617.5,180.2z"/>
	<g>
		<path class="st6" d="M2659.4,181.7h29.5c0.7,0,1.3,0.6,1.3,1.3v10.9c0,0.7-0.6,1.3-1.3,1.3h-29.5c-0.7,0-1.3-0.6-1.3-1.3V183
			C2658.1,182.2,2658.7,181.7,2659.4,181.7z"/>
		<g>
			<path id="H_27_" class="st6" d="M2658.2,197.2h3.6v2.4h-3.6V197.2z"/>
		</g>
		<g>
			<path id="H_26_" class="st6" d="M2677,197.2h3.6v2.4h-3.6V197.2z"/>
		</g>
		<g>
			<path id="H_25_" class="st6" d="M2667.6,197.2h3.6v2.4h-3.6V197.2z"/>
		</g>
		<g>
			<path id="H_24_" class="st6" d="M2686.4,197.2h3.6v2.4h-3.6V197.2z"/>
		</g>
	</g>
	<path class="st5" d="M2598.7,241.6h150.7v1.5h-150.7V241.6z"/>
	<path class="st4" d="M2597.9,211.9h152.3c1.7,0,3,1.4,3,3v23.6c0,1.7-1.4,3-3,3h-152.3c-1.7,0-3-1.4-3-3V215
		C2594.9,213.3,2596.2,211.9,2597.9,211.9z"/>
	<path class="st5" d="M2617.5,214.3h113.1c1.7,0,3.1,1.4,3.1,3.1v14.4c0,1.7-1.4,3.1-3.1,3.1h-113.1c-1.7,0-3.1-1.4-3.1-3.1v-14.4
		C2614.4,215.7,2615.8,214.3,2617.5,214.3z"/>
	<g>
		<path class="st6" d="M2659.4,215.8h29.5c0.7,0,1.3,0.6,1.3,1.3V228c0,0.7-0.6,1.3-1.3,1.3h-29.5c-0.7,0-1.3-0.6-1.3-1.3v-11
			C2658.1,216.4,2658.7,215.8,2659.4,215.8z"/>
		<g>
			<path id="H_23_" class="st6" d="M2658.2,231.3h3.6v2.4h-3.6V231.3z"/>
		</g>
		<g>
			<path id="H_22_" class="st6" d="M2677,231.3h3.6v2.4h-3.6V231.3z"/>
		</g>
		<g>
			<path id="H_21_" class="st6" d="M2667.6,231.3h3.6v2.4h-3.6V231.3z"/>
		</g>
		<g>
			<path id="H_20_" class="st6" d="M2686.4,231.3h3.6v2.4h-3.6V231.3z"/>
		</g>
		<path class="st6" d="M2647.7,266.5h52.8c1.5,0,2.7,1.2,2.7,2.7v5.8c0,1.5-1.2,2.7-2.7,2.7h-52.8c-1.5,0-2.7-1.2-2.7-2.7v-5.8
			C2645,267.7,2646.2,266.5,2647.7,266.5z"/>
	</g>
	<path class="st4" d="M2651.5,269.7h44.9c0.5,0,0.9,0.4,0.9,0.9v2.5c0,0.5-0.4,0.9-0.9,0.9h-44.9c-0.5,0-0.9-0.4-0.9-0.9v-2.5
		C2650.6,270.2,2651,269.7,2651.5,269.7z"/>
	<path class="st6" d="M2647.7,288.1h52.8c1.5,0,2.7,1.2,2.7,2.7v5.8c0,1.5-1.2,2.7-2.7,2.7h-52.8c-1.5,0-2.7-1.2-2.7-2.7v-5.8
		C2645,289.3,2646.2,288.1,2647.7,288.1z"/>
	<path class="st4" d="M2651.5,291.4h44.9c0.5,0,0.9,0.4,0.9,0.9v2.5c0,0.5-0.4,0.9-0.9,0.9h-44.9c-0.5,0-0.9-0.4-0.9-0.9v-2.5
		C2650.6,291.8,2651,291.4,2651.5,291.4z"/>
</g>
<g>
	<g>
		<path class="st7" d="M2355.7,196.7c0-3.9-3.2-7.1-7.1-7.1l0,0H2127c-3.9,0-7.1,3.2-7.1,7.1v127.9h235.8L2355.7,196.7L2355.7,196.7
			z"/>
		
			<linearGradient id="SVGID_1_" gradientUnits="userSpaceOnUse" x1="3256.5793" y1="1.1092" x2="3256.5359" y2="0.656" gradientTransform="matrix(247.0701 0 0 163.09 -802380.75 120.8649)">
			<stop  offset="0" style="stop-color:#12D5E0"/>
			<stop  offset="0.99" style="stop-color:#4EF9F9"/>
		</linearGradient>
		<path class="st8" d="M2129.9,198.1v126.8H2322l-97.3-126.8L2129.9,198.1z"/>
		
			<linearGradient id="SVGID_2_" gradientUnits="userSpaceOnUse" x1="3248.7844" y1="0.6663" x2="3248.0979" y2="0.9773" gradientTransform="matrix(155.8999 0 0 163.08 -504132.375 120.8605)">
			<stop  offset="0" style="stop-color:#12D5E0"/>
			<stop  offset="0.99" style="stop-color:#4EF9F9"/>
		</linearGradient>
		<path class="st9" d="M2345.9,198.1h-121.2l97.3,126.8h23.9V198.1z"/>
		<g>
			<path class="st7" d="M2127,349.4h221.6c3.9,0,7.1-3.2,7.1-7.1l0,0v-17.8h-235.8v17.8C2119.9,346.2,2123.1,349.4,2127,349.4
				L2127,349.4L2127,349.4L2127,349.4z"/>
			<path class="st7" d="M2383.8,359.8c-0.6-0.7-1.3-1.3-2-1.7l-26.2-16.8h-235.7l-26.2,16.8c-0.8,0.5-1.4,1.1-2,1.7
				c-3.2,3.8-2.7,9.4,1.1,12.6c1.6,1.4,3.7,2.1,5.8,2.1h278.3c4.9,0.1,9-3.9,9-8.8C2386,363.5,2385.2,361.4,2383.8,359.8
				L2383.8,359.8z"/>
		</g>
		<path class="st5" d="M2098.7,363.2H2377c2.7,0.1,5.2-1.1,6.9-3.2c-0.6-0.7-1.3-1.3-2-1.7l-26.2-16.8H2120l-26.2,16.8
			c-0.8,0.5-1.4,1.1-2,1.7C2093.5,362.1,2096,363.2,2098.7,363.2L2098.7,363.2z"/>
	</g>
</g>
<g>
	<g>
		<g>
			<path class="st7" d="M2630.4,368.6c-0.2-0.3-0.5-0.5-0.8-0.7l-10.8-6.9h-42.6h-12.4h-42.6l-10.8,6.9c-0.3,0.2-0.6,0.5-0.8,0.7
				c-2,2.2-0.5,6.1,2.9,6.1h51.4h12.4h51.4C2630.9,374.7,2632.4,370.9,2630.4,368.6z"/>
			<path class="st7" d="M2709.4,165.2c0-4.6-3.7-8.3-8.3-8.3H2439c-4.6,0-8.3,3.7-8.3,8.3v151.3h278.8V165.2H2709.4z"/>
			
				<linearGradient id="SVGID_3_" gradientUnits="userSpaceOnUse" x1="2558.0112" y1="35.8951" x2="2545.3352" y2="236.4709" gradientTransform="matrix(1 0 0 -1 0 386)">
				<stop  offset="5.051200e-04" style="stop-color:#12D5E0"/>
				<stop  offset="0.9872" style="stop-color:#4EF9F9"/>
			</linearGradient>
			<polygon class="st10" points="2442.3,166.7 2442.3,316.7 2669.5,316.7 2554.4,166.7 			"/>
			
				<linearGradient id="SVGID_4_" gradientUnits="userSpaceOnUse" x1="2713.4199" y1="182.1384" x2="2574.9094" y2="122.152" gradientTransform="matrix(1 0 0 -1 0 386)">
				<stop  offset="5.051200e-04" style="stop-color:#12D5E0"/>
				<stop  offset="0.9872" style="stop-color:#4EF9F9"/>
			</linearGradient>
			<polygon class="st11" points="2697.7,166.7 2554.4,166.7 2669.5,316.7 2697.7,316.7 			"/>
			<rect x="2542.1" y="345.9" class="st7" width="55.9" height="15"/>
			<rect x="2542.1" y="345.9" class="st5" width="55.9" height="3.1"/>
			<path class="st5" d="M2512.5,369.9h51.4h12.4h51.4c1.2,0,2.2-0.5,2.9-1.3c-0.2-0.3-0.5-0.5-0.8-0.7L2619,361h-42.6H2564h-42.6
				l-10.8,6.9c-0.3,0.2-0.6,0.5-0.8,0.7C2510.3,369.4,2511.2,369.9,2512.5,369.9z"/>
			<path class="st7" d="M2439,345.9h262.1c4.6,0,8.3-3.7,8.3-8.3v-21.1h-278.8v21.1C2430.6,342.1,2434.4,345.9,2439,345.9z"/>
		</g>
	</g>
</g>
<g>
	<ellipse class="st0" cx="2393.3" cy="70.7" rx="7.2" ry="7.3"/>
	<path class="st0" d="M2381.4,59.9c-0.7,0.7-0.7,1.8,0,2.5c0.7,0.7,1.7,0.7,2.4,0c5.2-5.2,13.5-5.2,18.6,0c0.3,0.3,0.7,0.5,1.2,0.5
		c0.4,0,0.9-0.2,1.2-0.5c0.7-0.7,0.7-1.8,0-2.5C2398.4,53.3,2387.8,53.3,2381.4,59.9z"/>
	<path class="st0" d="M2393.1,46.2c-6.2,0-12.1,2.5-16.6,7c-0.7,0.7-0.7,1.8,0,2.5c0.7,0.7,1.7,0.7,2.4,0c3.7-3.8,8.8-6,14.1-6
		c5.3,0,10.4,2.1,14.1,6c0.3,0.3,0.7,0.5,1.2,0.5c0.4,0,0.9-0.2,1.2-0.5c0.7-0.7,0.7-1.8,0-2.5C2405.3,48.6,2399.4,46.2,2393.1,46.2
		z"/>
	<path class="st0" d="M2413.5,46.4c-5.4-5.6-12.6-8.6-20.4-8.6c-7.7,0-14.9,3.1-20.4,8.6c-0.7,0.7-0.7,1.8,0,2.5
		c0.7,0.7,1.7,0.7,2.4,0c4.8-4.9,11.1-7.6,18-7.6c6.7,0,13.1,2.7,18,7.6c0.3,0.3,0.7,0.5,1.2,0.5c0.4,0,0.9-0.2,1.2-0.5
		C2414.2,48.1,2414.2,47.1,2413.5,46.4z"/>
</g>
<g>
	<path class="st12" d="M2254.4,30L2254.4,30c0.1-3.6,3-6.5,6.6-6.6l0,0c-3.6,0-6.5-2.9-6.5-6.6l0,0c0,3.6-2.9,6.5-6.5,6.5l0,0
		C2251.4,23.4,2254.4,26.4,2254.4,30z"/>
	<path class="st12" d="M2254.6,34.2L2254.6,34.2c-0.1,6.3-5.2,11.4-11.5,11.5l0,0c6.3,0.1,11.4,5.2,11.4,11.5l0,0
		c0.1-6.3,5.1-11.4,11.4-11.4l0,0C2259.8,45.6,2254.7,40.5,2254.6,34.2z"/>
	<path class="st12" d="M2249.9,31.5c-11-0.1-19.9-9-20-20l-0.1,0.1c-0.1,11-9,19.8-19.9,19.9l0,0c11,0.1,19.9,9,20,20l0.1-0.1
		C2229.9,40.5,2238.9,31.6,2249.9,31.5L2249.9,31.5z"/>
</g>
<g>
	<path class="st1" d="M2687.3,17.4h9.7c1.3,2.9,2.1,6.2,2.2,9.6h-11.1C2688,23.4,2687.7,20.3,2687.3,17.4z M2683,3.9
		c5.6,2.2,10.1,6.4,13,11.6h-9.1C2685.9,10.2,2684.4,6.4,2683,3.9z M2674.9,15.5V2.2c2,0.1,3.9,0.4,5.8,0.9
		c1.4,2.4,3.2,6.4,4.4,12.4H2674.9z M2662.6,38.5c-0.4-2.8-0.7-6-0.8-9.6h11.2v9.6H2662.6z M2662.6,17.4h10.5V27h-11.3
		C2661.8,23.4,2662.1,20.3,2662.6,17.4z M2667.3,3.1c1.9-0.5,3.8-0.8,5.8-0.9v13.4h-10.2C2664,9.5,2665.9,5.5,2667.3,3.1z
		 M2651.7,15.5c2.9-5.3,7.6-9.5,13.3-11.7c-1.3,2.5-2.9,6.3-4,11.7H2651.7z M2659.9,27h-11.4c0.1-3.4,0.9-6.6,2.2-9.6h10
		C2660.2,20.3,2659.9,23.4,2659.9,27z M2660.7,38.5h-9.9c-1.3-2.9-2.1-6.2-2.3-9.6h11.4C2660,32.5,2660.3,35.7,2660.7,38.5z
		 M2661,40.4c1.1,5.5,2.7,9.3,4,11.7c-5.7-2.2-10.4-6.4-13.3-11.7H2661z M2673,40.4v13.4c-2-0.1-3.9-0.4-5.7-0.9
		c-1.4-2.4-3.3-6.4-4.4-12.5H2673z M2685,40.4c-1.2,6-3,10.1-4.4,12.4c-1.8,0.5-3.8,0.8-5.7,0.9V40.4H2685z M2674.9,28.9h11.2
		c0,3.6-0.4,6.8-0.8,9.6h-10.5v-9.6H2674.9z M2686.2,27h-11.3v-9.6h10.5C2685.8,20.3,2686.1,23.4,2686.2,27z M2688,28.9h11.1
		c-0.1,3.4-1,6.6-2.2,9.6h-9.7C2687.7,35.7,2688,32.5,2688,28.9z M2696,40.4c-2.8,5.3-7.4,9.5-13,11.7c1.3-2.4,2.9-6.2,4-11.7H2696z
		"/>
</g>
<path class="st13" d="M2419.8,107.7"/>
<g>
	<path class="st14" d="M2372.7,265.5h40.3"/>
	<line class="st14" x1="2413.6" y1="265.5" x2="2403.4" y2="275.8"/>
	<line class="st14" x1="2413.6" y1="265.5" x2="2403.4" y2="255.3"/>
</g>
<g>
	<path id="Path_7_" class="st0" d="M2550.4,277.8c-3.3-1.9-6.3-4.3-8.9-7c-0.8,1-1.7,1.8-2.7,2.4c-0.6,0.3-1.2,0.6-1.8,0.8
		c14.2,15.6,37.1,19.2,55.4,8.9c0.9-0.5,1.4-1.4,1.4-2.4s-0.5-1.9-1.4-2.4l0,0c-0.8-0.5-1.9-0.5-2.7,0
		C2577.4,284.9,2562.5,284.8,2550.4,277.8z"/>
	<path id="Path_8_" class="st0" d="M2550.4,209.5c3.3-1.9,6.8-3.3,10.5-4.2c-0.5-1.2-0.7-2.4-0.7-3.6c0-0.7,0.1-1.3,0.2-2
		c-20.5,4.5-35.1,22.6-35.4,43.5c0,1,0.5,1.9,1.4,2.4c0.9,0.5,1.9,0.5,2.8,0l0,0c0.8-0.5,1.4-1.4,1.4-2.3
		C2530.8,229.3,2538.3,216.4,2550.4,209.5z"/>
	<path id="Path_9_" class="st0" d="M2609.5,243.7c0,3.8-0.5,7.6-1.6,11.2c1.2,0.2,2.4,0.6,3.5,1.2c0.6,0.3,1.1,0.7,1.6,1.1
		c6.2-20.1-2-41.9-19.9-52.6c-0.9-0.5-1.9-0.4-2.7,0.1c-0.8,0.5-1.3,1.4-1.3,2.4l0,0c0,1,0.5,1.9,1.3,2.4
		C2602.2,216.7,2609.5,229.7,2609.5,243.7z"/>
	<path id="Shape_3_" class="st0" d="M2570.1,224.9c7.6,0,14.5,4.6,17.4,11.6c2.9,7,1.3,15.1-4.1,20.5c-5.4,5.4-13.5,7-20.5,4.1
		s-11.6-9.8-11.6-17.4C2551.3,233.3,2559.7,224.9,2570.1,224.9 M2570,219.5c-13.5,0-24.4,10.9-24.4,24.4s10.9,24.4,24.4,24.4
		c13.5,0,24.4-10.9,24.4-24.4c0-6.5-2.6-12.7-7.1-17.2S2576.5,219.5,2570,219.5z"/>
	<circle id="Oval" class="st15" cx="2570" cy="201.6" r="6.4"/>
	<ellipse id="Oval_1_" class="st15" cx="2533.7" cy="264.6" rx="6.6" ry="6.4"/>
	<circle id="Oval_2_" class="st15" cx="2606.5" cy="264.6" r="6.4"/>
	<path id="Path_10_" class="st15" d="M2575.5,239.1c0-2.7-1.9-4.9-4.5-5.4c-2.6-0.5-5.1,1-6,3.5c-0.9,2.5,0.1,5.3,2.4,6.6l-1.7,8.7
		c-0.1,0.3,0,0.6,0.2,0.8c0.2,0.2,0.4,0.3,0.7,0.3h6.9c0.3,0,0.5-0.1,0.7-0.3c0.2-0.2,0.2-0.5,0.2-0.8l-1.7-8.7
		C2574.5,242.9,2575.5,241.1,2575.5,239.1L2575.5,239.1z"/>
</g>
<g>
	<g>
		<path class="st5" d="M2155.6,245.5v-3.7v-3.5v-2.9c0-1.2,1-2.2,2.2-2.2h12.5c0.9,0,1.6,0.5,2,1.3l1.3,2.6c0.4,0.8,1.1,1.3,2,1.3
			h30.8c1.2,0,2.2,1,2.2,2.2v5H2155.6z"/>
		<g>
			<rect x="2178.3" y="225.1" class="st12" width="47" height="62.7"/>
			<g>
				<rect x="2181.3" y="236.6" class="st5" width="40.9" height="2"/>
				<rect x="2181.3" y="243.4" class="st5" width="40.9" height="2"/>
				<rect x="2181.3" y="250.1" class="st16" width="40.9" height="2"/>
				<rect x="2181.3" y="256.9" class="st16" width="40.9" height="2"/>
				<rect x="2181.3" y="263.7" class="st16" width="40.9" height="2"/>
				<rect x="2181.3" y="270.4" class="st16" width="40.9" height="2"/>
				<rect x="2181.3" y="229.8" class="st5" width="40.9" height="2"/>
				<rect x="2181.3" y="277.2" class="st16" width="40.9" height="2"/>
			</g>
		</g>
		<path class="st5" d="M2222.8,249.5h-32.8h-31.2c-2.7,0-4.9,2.2-4.9,4.9V297c0,0.2,0,0.4,0,0.5h36h37.6c0-0.2,0-0.4,0-0.5v-42.7
			C2227.7,251.6,2225.5,249.5,2222.8,249.5z"/>
	</g>
	<g>
		<path class="st5" d="M2299.9,277.4l-3.8-2.2c0.2-1.1,0.3-2.2,0.3-3.3c0-1.1-0.1-2.2-0.3-3.3l3.8-2.2c0.7-0.4,1-1.3,0.6-2.1
			l-6-10.5c-0.2-0.3-0.5-0.6-0.9-0.7c-0.4-0.1-0.8,0-1.2,0.2l-3.7,2.2c-1.7-1.4-3.4-2.6-5.6-3.4v-4.4c0-0.8-0.7-1.5-1.5-1.5h-12.1
			c-0.8,0-1.5,0.7-1.5,1.5v4.4c-2.1,0.7-4,1.8-5.9,3.4l-3.9-2.2c-0.7-0.4-1.6-0.2-2.1,0.6l-6.1,10.5c-0.2,0.3-0.3,0.8-0.2,1.1
			c0.1,0.4,0.4,0.7,0.7,0.9l3.8,2.2c-0.2,1.1-0.3,2.2-0.3,3.3c0,1.1,0.1,2.2,0.3,3.3l-3.8,2.2c-0.7,0.4-1,1.3-0.6,2.1l6,10.5
			c0.4,0.7,1.3,1,2.1,0.6l3.9-2.2c1.9,1.6,3.8,2.6,5.9,3.4v4.4c0,0.8,0.7,1.5,1.5,1.5h12.1c0.8,0,1.5-0.7,1.5-1.5v-4.4
			c2.3-0.8,4-1.9,5.7-3.4l3.8,2.2c0.3,0.2,0.8,0.3,1.2,0.2c0.4-0.1,0.7-0.4,0.9-0.7l6-10.5C2300.9,278.7,2300.6,277.8,2299.9,277.4z
			 M2275.2,282.4c-5.8,0-10.6-4.7-10.6-10.6s4.7-10.6,10.6-10.6c5.8,0,10.6,4.7,10.6,10.6S2281,282.4,2275.2,282.4z"/>
		<path class="st5" d="M2321,243l-2.1-1.2c0.1-0.5,0.1-1.1,0.1-1.7c0-0.5,0-1.1-0.1-1.7l2.1-1.2c0.7-0.4,1-1.3,0.6-2.1l-3-5.2
			c-0.2-0.4-0.5-0.6-0.9-0.7c-0.4-0.1-0.8,0-1.2,0.2l-2,1.2c-0.9-0.7-1.8-1.2-2.8-1.6v-2.4c0-0.8-0.7-1.5-1.5-1.5h-6
			c-0.8,0-1.5,0.7-1.5,1.5v2.4c-1.1,0.4-2.1,1-3,1.7l-2.2-1.2c-0.7-0.4-1.6-0.2-2,0.6l-3,5.2c-0.2,0.3-0.3,0.8-0.2,1.1
			c0.1,0.4,0.4,0.7,0.7,0.9l2.1,1.2c-0.1,0.6-0.1,1.1-0.1,1.7c0,0.6,0,1.1,0.1,1.7l-2.1,1.2c-0.3,0.2-0.6,0.5-0.7,0.9
			c-0.1,0.4,0,0.8,0.2,1.1l3,5.2c0.4,0.7,1.3,1,2,0.6l2.2-1.2c0.9,0.7,1.9,1.2,3,1.7v2.4c0,0.8,0.7,1.5,1.5,1.5h6
			c0.8,0,1.5-0.7,1.5-1.5v-2.4c1-0.4,1.9-1,2.8-1.7l2,1.2c0.3,0.2,0.8,0.3,1.2,0.2c0.4-0.1,0.7-0.4,0.9-0.7l3-5.2
			C2321.9,244.4,2321.7,243.4,2321,243z M2306.9,246.2c-3.3,0-6-2.7-6-6s2.7-6,6-6s6,2.7,6,6S2310.2,246.2,2306.9,246.2z"/>
	</g>
</g>
<g>
	<path class="st12" d="M2548,116.5L2548,116.5c0.1-3.1,2.6-5.7,5.7-5.7l0,0c-3.1,0-5.7-2.6-5.7-5.7l0,0c0,3.1-2.6,5.7-5.7,5.7l0,0
		C2545.5,110.8,2548,113.3,2548,116.5z"/>
	<path class="st12" d="M2548.2,120.1L2548.2,120.1c-0.1,5.5-4.5,9.9-10,10l0,0c5.5,0,9.9,4.5,10,10l0,0c0.1-5.5,4.5-9.9,9.9-9.9l0,0
		C2552.7,130.1,2548.2,125.6,2548.2,120.1z"/>
	<path class="st12" d="M2544.1,117.8c-9.6-0.1-17.3-7.8-17.4-17.4l-0.1,0.1c-0.1,9.5-7.8,17.3-17.4,17.4l0,0
		c9.6,0.1,17.3,7.8,17.4,17.4l0.1-0.1C2526.8,125.6,2534.5,117.9,2544.1,117.8L2544.1,117.8z"/>
</g>
<linearGradient id="SVGID_5_" gradientUnits="userSpaceOnUse" x1="2121.1992" y1="172.0466" x2="2118.9348" y2="115.4368">
	<stop  offset="0" style="stop-color:#12D5E0"/>
	<stop  offset="0.9872" style="stop-color:#4EF9F9"/>
</linearGradient>
<path class="st17" d="M2180.4,122.6c-3.1-4.1-7.4-7.3-12.2-9.1c0,0,0,0,0,0c-2.2-10.1-11.2-17.5-21.9-17.5c-3.2,0-6.4,0.7-9.3,2
	c0,0,0,0,0,0c-2.6-3.3-5.9-6.1-9.5-8.2c-4.9-2.8-10.5-4.2-16.1-4.2c-8.2,0-16,3-22,8.5c-5.1,4.7-8.6,10.9-10,17.6c0,0,0,0,0,0
	c-14.3,1.2-25.5,13.1-25.7,27.6c-0.1,15.5,12.7,28.2,28.2,28.2h71.8h2.7h1.4c15.4,0,28.2-12.4,28.2-27.8
	C2186.1,133.5,2184.1,127.6,2180.4,122.6z"/>
</svg>
