<?xml version="1.0" encoding="utf-8"?>
<!-- Generator: Adobe Illustrator 24.3.0, SVG Export Plug-In . SVG Version: 6.00 Build 0)  -->
<svg version="1.1" id="Layer_1" xmlns="http://www.w3.org/2000/svg" xmlns:xlink="http://www.w3.org/1999/xlink" x="0px" y="0px"
	 viewBox="0 0 4096 662.2" style="enable-background:new 0 0 4096 662.2;" xml:space="preserve">
<style type="text/css">
	.st0{fill:url(#SVGID_1_);}
	.st1{fill-rule:evenodd;clip-rule:evenodd;fill:none;stroke:#0E5D7F;stroke-width:4;stroke-miterlimit:10;stroke-dasharray:6;}
	.st2{fill:#0E5D7F;}
	.st3{fill:url(#SVGID_2_);}
	.st4{fill:url(#SVGID_3_);}
	.st5{fill:url(#SVGID_4_);}
	.st6{fill:url(#SVGID_5_);}
	.st7{fill:url(#SVGID_6_);}
	.st8{fill:#0C4874;}
	.st9{fill:url(#SVGID_7_);}
	.st10{fill:none;stroke:#0E5D7F;stroke-width:3;stroke-linecap:round;stroke-miterlimit:10;}
</style>
<linearGradient id="SVGID_1_" gradientUnits="userSpaceOnUse" x1="1437.658" y1="921.2023" x2="1437.6409" y2="921.4667" gradientTransform="matrix(133.5112 0 0 -82.6212 -189222.0781 76438.3906)">
	<stop  offset="0" style="stop-color:#48C3D2"/>
	<stop  offset="0.9872" style="stop-color:#7DCFDC"/>
</linearGradient>
<path class="st0" d="M2781.9,306c-3.2-4.1-7.4-7.3-12.3-9.2l0,0c-2.7-12.2-14.8-19.8-27-17.1c-1.5,0.3-3,0.8-4.4,1.5l0,0
	c-2.6-3.3-5.9-6.1-9.6-8.3c-15.8-9-35.9-3.4-44.9,12.4c-1.7,3-2.9,6.3-3.6,9.7c-15.1,1.2-26.6,14.2-25.9,29.4
	c0.7,15.2,13.3,27.1,28.5,26.9h76.5c15.6,0.1,28.3-12.4,28.5-28C2787.7,317,2785.7,310.9,2781.9,306
	C2781.9,306,2781.9,306,2781.9,306z"/>
<path class="st1" d="M2585.9,461.4c0,0,67.5-42.4,97.6-81.5s52.7-69.7,99.2-64.7s-13.2,86.5-55.1,63
	c-41.9-23.4-54.2-64.5-58.9-192.2"/>
<path class="st2" d="M2526,445.1l-12.9-7.4c0.6-3.7,0.9-7.4,0.9-11.1c0-3.7-0.3-7.5-0.9-11.2l12.8-7.4c2.4-1.4,3.2-4.5,1.9-6.9
	l-20.2-35c-0.7-1.2-1.8-2-3.1-2.4c-1.3-0.3-2.7-0.2-3.9,0.5l-12.4,7.4c-5.5-4.9-12-8.7-18.9-11.2v-14.7c0-2.8-2.3-5-5.1-5h-40.4
	c-2.8,0-5,2.2-5.1,5v14.7c-7.2,2.5-13.9,6.4-19.7,11.3l-13-7.4c-2.4-1.4-5.5-0.6-6.9,1.9l-20.3,35c-1.4,2.4-0.6,5.5,1.8,6.9
	l12.8,7.4c-0.6,3.7-0.9,7.4-0.9,11.2c0,3.7,0.3,7.5,0.9,11.1l-12.8,7.4c-2.4,1.4-3.2,4.5-1.9,6.9l20.2,35c1.4,2.4,4.5,3.2,6.9,1.9
	l13.2-7.4c5.8,5,12.5,8.8,19.7,11.3v14.7c0,2.8,2.3,5.1,5.1,5.1l0,0h40.4c2.8,0,5.1-2.3,5.1-5.1c0,0,0,0,0,0v-14.7
	c7-2.5,13.4-6.4,18.9-11.3l12.6,7.4c2.4,1.4,5.4,0.6,6.9-1.7c0,0,0-0.1,0.1-0.1l20.1-35C2529.3,449.6,2528.5,446.5,2526,445.1
	C2526.1,445.1,2526,445.1,2526,445.1L2526,445.1L2526,445.1z M2443.2,461.9c-19.6,0-35.4-15.8-35.4-35.4s15.8-35.4,35.4-35.4
	c19.6,0,35.4,15.8,35.4,35.4c0,0,0,0,0,0C2478.6,446.1,2462.8,461.9,2443.2,461.9L2443.2,461.9L2443.2,461.9z M2596.5,330l-7-4
	c0.2-1.9,0.4-3.7,0.4-5.6c0-1.9-0.1-3.7-0.4-5.6l6.9-4c2.4-1.4,3.2-4.5,1.9-6.9l-10.1-17.5c-0.7-1.2-1.8-2-3.1-2.4
	c-1.3-0.3-2.7-0.2-3.9,0.6l-6.6,3.9c-2.8-2.2-6-4.1-9.3-5.5v-8.1c0-2.8-2.3-5.1-5-5.1c0,0,0,0,0,0H2540c-2.8,0-5,2.3-5,5.1v8
	c-3.6,1.4-6.9,3.3-10,5.6l-7.2-4.1c-2.4-1.4-5.4-0.6-6.8,1.8c0,0,0,0,0,0l-10.2,17.5c-1.4,2.4-0.6,5.4,1.7,6.9c0,0,0.1,0,0.1,0.1
	l6.9,4c-0.3,1.9-0.4,3.7-0.4,5.6c0,1.9,0.1,3.7,0.4,5.6l-7,4c-2.4,1.4-3.3,4.5-1.9,6.9c0,0,0,0,0,0l10.1,17.5
	c1.4,2.4,4.4,3.2,6.9,1.9l7.4-4.1c3.1,2.3,6.5,4.3,10.1,5.7v8c0,2.8,2.3,5.1,5.1,5.1l0,0h20.2c2.8,0,5.1-2.3,5.1-5c0,0,0,0,0,0v-8
	c3.3-1.4,6.5-3.3,9.3-5.5l6.8,4c2.4,1.4,5.4,0.7,6.9-1.6c0-0.1,0.1-0.1,0.1-0.2l10-17.5C2599.8,334.4,2599,331.4,2596.5,330
	C2596.5,330,2596.5,330,2596.5,330L2596.5,330z M2549.4,340.6c-11.2,0-20.2-9.1-20.2-20.2c0-11.2,9.1-20.2,20.2-20.2
	s20.2,9.1,20.2,20.2C2569.6,331.5,2560.6,340.6,2549.4,340.6L2549.4,340.6z M2268.2,338.2L2268.2,338.2c-16.3,0-29.4,13.2-29.4,29.4
	c0,0,0,0,0,0v28.9c0,4.9,3.5,9.2,8.3,10.1c1.2,0.2,2.4-0.1,3.3-0.8l5.1-3.7c2-1.4,4.6-1.5,6.6-0.1l4,2.7c1.9,1.3,4.4,1.2,6.2-0.1
	l3.5-2.5c2.2-1.6,5.1-1.4,7.1,0.5l2.2,2.2c1.7,1.7,4.3,2.1,6.6,1.1c3.6-1.7,6-5.3,6-9.4v-28.9
	C2297.7,351.3,2284.5,338.2,2268.2,338.2C2268.2,338.2,2268.2,338.2,2268.2,338.2L2268.2,338.2z M2260.2,369.4
	c-0.1,2.9-2.6,5.2-5.5,5c-2.7-0.1-4.9-2.3-5-5v-5.9c0.1-2.9,2.6-5.2,5.5-5c2.7,0.1,4.9,2.3,5,5V369.4z M2286.7,369.4
	c-0.1,2.9-2.6,5.2-5.5,5c-2.7-0.1-4.9-2.3-5-5v-5.9c0.1-2.9,2.6-5.2,5.5-5c2.7,0.1,4.9,2.3,5,5V369.4z"/>
<linearGradient id="SVGID_2_" gradientUnits="userSpaceOnUse" x1="1444.9755" y1="920.9896" x2="1444.9584" y2="921.2545" gradientTransform="matrix(410.4238 0 0 -254.17 -590453.3125 234677.2188)">
	<stop  offset="0" style="stop-color:#48C3D2"/>
	<stop  offset="0.9872" style="stop-color:#7DCFDC"/>
</linearGradient>
<path class="st3" d="M2785,522.8c-9.8-12.7-22.8-22.4-37.7-28.2l0,0c-8.4-37.5-45.6-61-83.1-52.6c-4.7,1-9.2,2.6-13.5,4.5
	c-19.2-24.4-48.5-38.6-79.5-38.6c-48.1,0-89.6,33.9-99.2,81.1c-44.7,3.7-79.2,40.8-79.6,85.7c-0.4,48.1,39.5,87.4,87.6,87.4h235.3
	c47.8,0,87.3-38.4,87.6-86.2C2803,556.7,2796.7,538,2785,522.8L2785,522.8z"/>
<linearGradient id="SVGID_3_" gradientUnits="userSpaceOnUse" x1="1441.8091" y1="921.0813" x2="1441.792" y2="921.3462" gradientTransform="matrix(216.2977 0 0 -133.96 -309703.125 123814.8438)">
	<stop  offset="0" style="stop-color:#48C3D2"/>
	<stop  offset="0.9872" style="stop-color:#7DCFDC"/>
</linearGradient>
<path class="st4" d="M2254.9,391.8c-5.1-6.7-12-11.9-19.9-14.9c-4.4-19.7-24-32.1-43.7-27.7c-2.5,0.6-4.9,1.4-7.2,2.4
	c-10.1-12.9-25.6-20.4-41.9-20.3c-25.4,0-47.2,17.9-52.2,42.7c-23.6,1.9-41.8,21.5-42,45.2c-0.2,25.3,20.8,46.1,46.1,46.1h124
	c25.2,0,46-20.2,46.2-45.4C2264.4,409.6,2261.1,399.8,2254.9,391.8L2254.9,391.8z"/>
<linearGradient id="SVGID_4_" gradientUnits="userSpaceOnUse" x1="2184.48" y1="309.9206" x2="2249.6099" y2="309.9206">
	<stop  offset="0" style="stop-color:#48C3D2"/>
	<stop  offset="0.9872" style="stop-color:#7DCFDC"/>
</linearGradient>
<path class="st5" d="M2236.2,304.9L2236.2,304.9c0-4.2,3.4-7.5,7.6-7.6l0,0c-4.2,0-7.6-3.4-7.6-7.6l0,0c0,4.2-3.4,7.5-7.6,7.6l0,0
	C2232.8,297.3,2236.2,300.7,2236.2,304.9L2236.2,304.9z M2236.4,309.8L2236.4,309.8c-0.1,7.3-6,13.2-13.2,13.3l0,0
	c7.3,0.1,13.2,6.1,13.2,13.4l0,0c0.1-7.3,6-13.2,13.3-13.3l0,0C2242.3,323.1,2236.4,317.1,2236.4,309.8L2236.4,309.8L2236.4,309.8z
	 M2230.9,306.7c-12.8-0.1-23.1-10.5-23.2-23.2l-0.1,0.1c-0.1,12.7-10.4,23-23.2,23.2l0,0c12.8,0.1,23.1,10.5,23.2,23.2l0.1-0.1
	C2207.9,317.1,2218.2,306.8,2230.9,306.7L2230.9,306.7L2230.9,306.7z"/>
<g>
	
		<linearGradient id="SVGID_5_" gradientUnits="userSpaceOnUse" x1="740.5688" y1="862.6491" x2="747.467" y2="862.6491" gradientTransform="matrix(-0.9999 1.180553e-02 1.180553e-02 0.9999 3402.1238 -689.4272)">
		<stop  offset="5.051200e-04" style="stop-color:#46C2D2"/>
		<stop  offset="0.9872" style="stop-color:#7DCFDB"/>
	</linearGradient>
	<polygon class="st6" points="2665,187 2671.8,186.9 2671.7,176.9 2664.8,177 	"/>
	
		<linearGradient id="SVGID_6_" gradientUnits="userSpaceOnUse" x1="738.583" y1="817.8363" x2="749.4134" y2="817.8363" gradientTransform="matrix(-0.9999 1.180553e-02 1.180553e-02 0.9999 3402.1238 -689.4272)">
		<stop  offset="5.051200e-04" style="stop-color:#46C2D2"/>
		<stop  offset="0.9872" style="stop-color:#7DCFDB"/>
	</linearGradient>
	<polygon class="st7" points="2662.7,158.2 2673.5,158.1 2673,116 2662.2,116.2 	"/>
	
		<rect x="2662.4" y="120" transform="matrix(-0.9999 1.180553e-02 -1.180553e-02 -0.9999 5331.7056 243.5418)" class="st8" width="5.4" height="34.9"/>
	
		<rect x="2667.8" y="120" transform="matrix(-0.9999 1.180553e-02 -1.180553e-02 -0.9999 5342.5142 243.3504)" class="st2" width="5.4" height="34.9"/>
	
		<rect x="2662.1" y="105.9" transform="matrix(-0.9999 1.180553e-02 -1.180553e-02 -0.9999 5330.7637 191.4644)" class="st8" width="5.4" height="11.1"/>
	
		<rect x="2667.5" y="105.9" transform="matrix(-0.9999 1.180553e-02 -1.180553e-02 -0.9999 5341.5723 191.2793)" class="st2" width="5.4" height="11.1"/>
	
		<linearGradient id="SVGID_7_" gradientUnits="userSpaceOnUse" x1="738.5928" y1="775.0316" x2="749.4233" y2="775.0316" gradientTransform="matrix(-0.9999 1.180553e-02 1.180553e-02 0.9999 3402.1238 -689.4272)">
		<stop  offset="5.051200e-04" style="stop-color:#46C2D2"/>
		<stop  offset="0.9872" style="stop-color:#7DCFDB"/>
	</linearGradient>
	<path class="st9" d="M2672.9,105.8L2662,106c0,0,1.8-24.1,5.1-23.1S2672.9,105.8,2672.9,105.8z"/>
	<g>
		<g>
			<path class="st8" d="M2668.1,159.7l0.2,20.3c0,0.9,0.1,1.7-0.6,2.2c-0.5,0.3-1.8,1-2.7,2.2c-1.4,1.9-2.7,3.3-3.4,4.1
				c-0.5,0.5-1.2,0.7-1.8,0.4l-4.5-1.7c-0.5-0.2-0.9-0.6-1-1.2l-2-7.8c-0.1-0.4-0.1-0.8,0.1-1.2l9.2-18c0.3-0.6,0.9-0.9,1.5-0.9
				l3.4,0C2667.3,158,2668.1,158.8,2668.1,159.7z"/>
		</g>
		
			<rect x="2662.7" y="158" transform="matrix(-0.9999 1.180553e-02 -1.180553e-02 -0.9999 5332.6089 295.673)" class="st8" width="5.4" height="11.1"/>
		
			<rect x="2668.1" y="158" transform="matrix(-0.9999 1.180553e-02 -1.180553e-02 -0.9999 5343.418 295.4815)" class="st8" width="5.4" height="11.1"/>
	</g>
	<path class="st2" d="M2668.1,159.7l0.2,20.3c0,0.9-0.1,1.7,0.7,2.2c0.5,0.3,1.8,0.9,2.8,2.1c1.5,1.8,2.8,3.2,3.5,4
		c0.5,0.5,1.2,0.6,1.8,0.4l4.5-1.8c0.5-0.2,0.9-0.7,1-1.2l1.8-7.9c0.1-0.4,0-0.8-0.2-1.2l-9.6-17.8c-0.3-0.6-0.9-0.9-1.5-0.9l-3.4,0
		C2668.8,158,2668.1,158.8,2668.1,159.7z"/>
</g>
<g>
	<line class="st10" x1="2779.7" y1="25.8" x2="2772.4" y2="25.8"/>
	<line class="st10" x1="2727.4" y1="25.8" x2="2720.1" y2="25.8"/>
	<line class="st10" x1="2724.5" y1="10.4" x2="2735.6" y2="21.4"/>
	<line class="st10" x1="2772.3" y1="10.4" x2="2761.2" y2="21.4"/>
	<line class="st10" x1="2745" y1="11.2" x2="2739.8" y2="6"/>
	<line class="st10" x1="2753.1" y1="11.2" x2="2758.3" y2="6"/>
	<line class="st10" x1="2724.5" y1="41.1" x2="2735.6" y2="30.1"/>
	<line class="st10" x1="2772.3" y1="41.1" x2="2761.2" y2="30.1"/>
	<line class="st10" x1="2745" y1="40.4" x2="2739.8" y2="45.6"/>
	<line class="st10" x1="2753.1" y1="40.4" x2="2758.3" y2="45.6"/>
</g>
<path class="st2" d="M2693.6,23.4c-3.2,0.6-3.6-1.1-3.3-3.7c0.2-1.6-0.3-2.8-2.3-2.5c-2.5,0.4-3.1-0.7-2.8-2.9
	c0.3-2-0.7-2.9-2.7-2.7c-0.4,0-0.8,0-1.2,0c-1.1,0-1.3-0.7-1.3-1.6c0-0.9,0.3-1.2,1.3-1.4c3.9-0.5,3.9-0.5,3.9-4.6
	c0-0.7,0-1.5,0-2.2c0-1.2-0.5-1.8-1.7-1.8c-0.7,0-1.5,0-2.2,0c-3.7,0-3.7,0-3.8,3.6c0,0.9,0.2,1.7-1.2,1.9c-3.7,0.5-3.7,0.5-3.7,4.1
	c0,1.5-0.5,2-2,1.9c-2.6-0.1-5.2-0.2-7.8,0c-2.4,0.2-3.4-0.5-3.1-3c0.3-1.8-0.4-3.3-2.6-3c-2.1,0.3-2.6-0.7-2.3-2.5
	c0.3-2.3-0.5-3.2-2.9-3.1c-5.2,0.2-4.8-0.6-4.8,4.9c0,3.6,0,3.7,3.5,3.7c1.1,0,1.8,0.2,1.8,1.6c0,1.3-0.7,1.4-1.7,1.4
	c-3.5,0.2-3.5,0.2-3.5,3.7c0,1.2-0.1,1.9-1.6,1.9c-3.3,0-3.4,0.1-3.3,3.5c0.1,2-0.4,2.9-2.5,2.6c-2.1-0.3-2.6,0.7-2.5,2.7
	c0.1,4.2,0,8.4,0,12.7c0,5.8,0,4.7,5.1,4.9c1.9,0.1,2.5-0.8,2.4-2.4c0-2.6,0-5.2,0-7.8c0-1,0.3-1.5,1.4-1.5c1.1,0,1.1,0.8,1.1,1.5
	c0,2.2,0,4.4,0,6.6c0,3.4,0.1,3.5,3.5,3.6c0.9,0,1.7-0.2,1.8,1.3c0.3,4.4,0.4,4.4,4.7,4.4c0.6,0,1.1,0,1.7,0
	c7.2-0.1,6.1,1.2,6.2-6.6c0-1.5-0.6-2-2-2c-2.2,0-4.4,0-6.6,0c-1.1,0-1.6-0.3-1.6-1.5c0-1.2,0.6-1.5,1.6-1.5c3.2,0,6.5,0,9.7,0
	c3.3,0,6.6,0,10,0c1.2,0,1.5,0.6,1.5,1.7c0,1.1-0.5,1.4-1.5,1.3c-0.8,0-1.6,0-2.4,0c-7.5,0.2-6-1.3-6.2,6.5c0,1.6,0.6,2.2,2.2,2.2
	c2.3,0,4.7,0,7,0c3.5,0,3.6,0,3.5-3.5c0-1.7,0.4-2.4,2.2-2.1c2.4,0.4,3.1-0.9,3-3.1c-0.1-2.3,0-4.7,0-7.1c0-0.8,0-1.5,1.1-1.5
	c1.1,0,1.3,0.6,1.3,1.5c0,1.6,0,3.2,0,4.9c-0.1,6.6,0.4,5,5.2,5.3c1.9,0.1,2.5-0.8,2.5-2.4c0-5.3,0-10.5,0-15.8
	C2695.4,24,2694.9,23.1,2693.6,23.4z M2656.1,24.6c-2.2,0-2.7-0.8-2.6-2.8c0.1-1.7-0.1-3,2.4-2.9c2.1,0.1,3,0.6,2.5,2.7
	C2658.8,23.5,2658.5,24.6,2656.1,24.6z M2676.4,24.6c-2.5,0.1-2.6-1-2.7-3c-0.1-2.2,0.6-2.6,2.7-2.7c2.3,0,2.8,0.9,2.4,2.8
	C2679.2,23.7,2678.6,24.5,2676.4,24.6z"/>
</svg>
