<svg xmlns="http://www.w3.org/2000/svg" viewBox="0 0 4096 338"><style><![CDATA[.B{fill:#d62e0d}.C{fill:#c61d06}.D{fill:#f4a636}.E{fill:#c22810}]]></style><defs><linearGradient x1="49.8592279%" y1="-8.36099782%" x2="50.0537493%" y2="125.822821%" id="A"><stop stop-color="#f5a936" offset="0%"/><stop stop-color="#fcd93c" offset="99%"/></linearGradient><linearGradient x1="0%" y1="50%" x2="100%" y2="50%" id="B"><stop stop-color="#f5a936" offset="0%"/><stop stop-color="#fcd93c" offset="99%"/></linearGradient><linearGradient x1="-0.0197980598%" y1="50.0059694%" x2="100%" y2="50.0059694%" id="C"><stop stop-color="#f5a936" offset="0%"/><stop stop-color="#fcd93c" offset="99%"/></linearGradient><linearGradient x1="50.9791714%" y1="71.2912057%" x2="49.2652823%" y2="44.8152251%" id="D"><stop stop-color="#f5a936" offset="0%"/><stop stop-color="#fcd93c" offset="99%"/></linearGradient><linearGradient x1="50.9301543%" y1="81.4897065%" x2="45.3492285%" y2="23.2128071%" id="E"><stop stop-color="#f5a936" offset="0%"/><stop stop-color="#fcd93c" offset="99%"/></linearGradient><linearGradient x1="105.686363%" y1="24.7669677%" x2="17.4081128%" y2="64.7684241%" id="F"><stop stop-color="#f5a936" offset="0%"/><stop stop-color="#fcd93c" offset="99%"/></linearGradient></defs><path d="M2652.54 86.26l-5.54-3.2a32.22 32.22 0 0 0 .37-4.83 30.31 30.31 0 0 0-.39-4.82l5.54-3.2a2.18 2.18 0 0 0 .8-3l-8.75-15.16a2.18 2.18 0 0 0-1.34-1 2.12 2.12 0 0 0-1.67.23l-5.4 3.18a25.37 25.37 0 0 0-8.17-4.88v-6.35a2.19 2.19 0 0 0-2.23-2.22h-17.5a2.19 2.19 0 0 0-2.19 2.19v6.35a26.94 26.94 0 0 0-8.52 4.9l-5.64-3.23a2.19 2.19 0 0 0-3 .8l-8.8 15.17a2.19 2.19 0 0 0-.22 1.66 2.17 2.17 0 0 0 1 1.33l5.52 3.2a30.63 30.63 0 0 0-.39 4.83 31.25 31.25 0 0 0 .38 4.83l-5.55 3.2a2.19 2.19 0 0 0-.8 3l8.75 15.17a2.19 2.19 0 0 0 3 .81l5.73-3.23a26.91 26.91 0 0 0 8.52 4.9v6.35a2.19 2.19 0 0 0 2.19 2.19h17.5a2.19 2.19 0 0 0 2.19-2.19v-6.33a25.62 25.62 0 0 0 8.2-4.88l5.47 3.2a2.15 2.15 0 0 0 1.66.23 2.17 2.17 0 0 0 1.34-1l8.7-15.16a2.2 2.2 0 0 0-.79-3.02h0zm-35.83 7.3A15.32 15.32 0 1 1 2632 78.23c-.005 8.447-6.843 15.298-15.3 15.32h0zm66.3-57.13l-3-1.74a17.53 17.53 0 0 0 .17-2.41 16.77 16.77 0 0 0-.18-2.43l3-1.74a2.2 2.2 0 0 0 .8-3l-4.38-7.58a2.2 2.2 0 0 0-3-.78l-2.85 1.7a17.75 17.75 0 0 0-4-2.38v-3.5a2.19 2.19 0 0 0-2.18-2.19h-8.78a2.19 2.19 0 0 0-2.19 2.19v3.5a19.39 19.39 0 0 0-4.34 2.43l-3.07-1.76a2.19 2.19 0 0 0-3 .8l-4.42 7.6a2.19 2.19 0 0 0 .8 3l3 1.73a17 17 0 0 0-.18 2.44 18 18 0 0 0 .17 2.42l-3 1.74a2.2 2.2 0 0 0-.81 3l4.34 7.55a2.19 2.19 0 0 0 3 .82l3.2-1.8a19.3 19.3 0 0 0 4.35 2.45V52a2.19 2.19 0 0 0 2.19 2.19h8.76a2.19 2.19 0 0 0 2.14-2.19v-3.5a18 18 0 0 0 4-2.39l2.92 1.72a2.18 2.18 0 0 0 3-.8l4.34-7.58a2.19 2.19 0 0 0-.8-3.02h0zM2662.67 41a8.76 8.76 0 1 1 8.75-8.75 8.77 8.77 0 0 1-8.75 8.75z" class="E"/><ellipse fill="#db6226" cx="2400.85" cy="327.59" rx="345.42" ry="10.4"/><path d="M2351.78 325H2206a5 5 0 0 1-5-5V187.35h155.8V320a5 5 0 0 1-5.01 5z" class="B"/><path d="M2347.05 291.83h-132.5a1.36 1.36 0 0 1-1.35-1.38v-2.93a1.36 1.36 0 0 1 1.35-1.38h132.5a1.37 1.37 0 0 1 1.35 1.38v2.93a1.37 1.37 0 0 1-1.35 1.38h0zm0-18.43h-132.5a1.36 1.36 0 0 1-1.35-1.38v-2.93a1.36 1.36 0 0 1 1.35-1.38h132.5a1.37 1.37 0 0 1 1.35 1.38v2.9a1.37 1.37 0 0 1-1.35 1.4zm0 36.86h-132.5a1.36 1.36 0 0 1-1.35-1.38V306a1.36 1.36 0 0 1 1.35-1.38h132.5a1.37 1.37 0 0 1 1.35 1.38v2.93a1.37 1.37 0 0 1-1.35 1.33z" class="C"/><rect x="2200.01" y="27.16" width="157.72" height="29.57" rx="3.03" class="B"/><path d="M2203.85 56.74h150.05V61h-150.05z" class="C"/><path d="M2203.85 56.74h150.05v1.5h-150.05z" class="B"/><rect x="2233.44" y="29.49" width="118.79" height="20.59" rx="1.37" class="C"/><g class="D"><rect x="2317.37" y="31" width="31.83" height="13.35" rx="1.24"/><path d="M2317.43 46.52h3.6v2.36h-3.6zm18.74-.08h3.6v2.36h-3.6zm-9.37 0h3.6v2.36h-3.6zm18.74 0h3.6v2.36h-3.6z"/></g><rect x="2200.01" y="61.11" width="157.72" height="29.57" rx="3.03" class="B"/><path d="M2203.85 90.7h150.05v4.27h-150.05z" class="C"/><path d="M2203.85 90.7h150.05v1.5h-150.05z" class="B"/><rect x="2233.44" y="63.45" width="118.79" height="20.59" rx="1.37" class="C"/><g class="D"><rect x="2317.37" y="64.95" width="31.83" height="13.35" rx="1.24"/><path d="M2317.43 80.4h3.6v2.36h-3.6zm18.74 0h3.6v2.36h-3.6zm-9.37 0h3.6v2.36h-3.6zm18.74 0h3.6v2.36h-3.6z"/></g><rect x="2200.01" y="95.07" width="157.72" height="29.57" rx="3.03" class="B"/><path d="M2203.85 124.65h150.05v4.27h-150.05z" class="C"/><path d="M2203.85 124.65h150.05v1.5h-150.05z" class="B"/><rect x="2233.44" y="97.41" width="118.79" height="20.59" rx="1.37" class="C"/><g class="D"><rect x="2317.37" y="99.01" width="31.83" height="13.35" rx="1.24"/><path d="M2317.43 114.45h3.6v2.36h-3.6zm18.74 0h3.6v2.36h-3.6zm-9.37 0h3.6v2.36h-3.6zm18.74 0h3.6v2.36h-3.6z"/></g><rect x="2200.01" y="129.03" width="157.72" height="29.57" rx="3.03" class="B"/><path d="M2203.85 158.6h150.05v4.27h-150.05z" class="C"/><path d="M2203.85 158.6h150.05v1.5h-150.05z" class="B"/><rect x="2233.44" y="131.37" width="118.79" height="20.59" rx="1.37" class="C"/><g class="D"><rect x="2317.37" y="132.96" width="31.83" height="13.35" rx="1.24"/><path d="M2317.43 148.4h3.6v2.36h-3.6zm18.74 0h3.6v2.36h-3.6zm-9.37 0h3.6v2.36h-3.6zm18.74 0h3.6v2.36h-3.6z"/></g><path d="M2203.85 192.57h150.05v1.5h-150.05z" class="C"/><rect x="2200.01" y="162.98" width="157.72" height="29.57" rx="3.03" class="B"/><rect x="2233.44" y="165.32" width="118.79" height="20.59" rx="1.37" class="C"/><g class="D"><rect x="2317.37" y="166.92" width="31.83" height="13.35" rx="1.24"/><path d="M2317.43 182.37h3.6v2.36h-3.6zm18.74 0h3.6v2.36h-3.6zm-9.37 0h3.6v2.36h-3.6zm18.74-.1h3.6v2.36h-3.6z"/><rect x="2249.88" y="217.43" width="57.98" height="11.22" rx="2.73"/></g><rect x="2255.47" y="220.55" width="46.57" height="4.32" rx=".92" class="B"/><rect x="2249.88" y="238.79" width="57.98" height="11.22" rx="2.73" class="D"/><g class="B"><rect x="2255.47" y="242.05" width="46.57" height="4.32" rx=".92"/><rect x="2564.94" y="102.03" width="121.32" height="221.77" rx="13.65"/></g><path d="M2579.45 107.48c-5.937 0-10.75 4.813-10.75 10.75V307.6c0 5.937 4.813 10.75 10.75 10.75h92.3c5.937 0 10.75-4.813 10.75-10.75v-25.9l-102.2-174.2h-.86z" fill="url(#A)"/><path d="M2671.75 107.48h-91.44l102.2 174.2V118.23c0-5.937-4.813-10.75-10.75-10.75z" fill="url(#B)"/><g class="D"><rect x="2614.41" y="103.95" width="22.37" height="2.13" rx=".95"/><path d="M2640.54 105a1.07 1.07 0 0 1-1.827.767 1.07 1.07 0 0 1 .767-1.827 1.06 1.06 0 0 1 1.06 1.06z"/></g><path d="M2619.87 188.1v31.78a13.78 13.78 0 0 0-5.33 2.13c-3.73 2.4-5.84 5.75-4.7 7.5s5.06 1.24 8.78-1.15c3-1.93 4.95-4.48 5-6.32h0v-22.27l17-5.43v20.2a13.61 13.61 0 0 0-5.34 2.13c-3.72 2.4-5.83 5.75-4.7 7.5s5.06 1.24 8.78-1.15c3-1.93 5-4.48 5-6.32h0v-36.46l-24.47 7.86z" class="B"/><path d="M2228.33 154.37h0a11.52 11.52 0 0 0-8.13-3.76c-44.74-1.44-69.44-18.23-72.2-20.2a11.46 11.46 0 0 0-4-2.41c-1.24-.435-2.546-.648-3.86-.63v7a4.67 4.67 0 0 1 1.51.24 4.36 4.36 0 0 1 1.76 1.17c1.12.87 27.46 20.3 76.57 21.9a4.4 4.4 0 0 1 4.27 4.7c-2.33 35.38-8.6 64.36-19.2 88.6-13.77 31.55-35 54.4-63 68a4.49 4.49 0 0 1-1.92.44h0v7.05a11.46 11.46 0 0 0 5-1.15c29.58-14.3 51.9-38.35 66.37-71.48 10.9-25 17.37-54.76 19.76-91a11.53 11.53 0 0 0-2.94-8.46zm-90.2 164.5c-27.97-13.55-49.13-36.4-62.87-67.87-10.58-24.28-16.86-53.26-19.2-88.64a4.41 4.41 0 0 1 4.26-4.71c49.2-1.58 75.54-21.07 76.58-21.9a4.44 4.44 0 0 1 3.21-1.4v-7a11.42 11.42 0 0 0-7.82 3.07c-2.83 2-27.55 18.78-72.2 20.2a11.48 11.48 0 0 0-11.1 12.19c2.4 36.2 8.86 65.95 19.77 90.95 14.44 33.08 36.7 57.1 66.2 71.4 1.592.8 3.348 1.22 5.13 1.22v-7.05a4.47 4.47 0 0 1-1.97-.49z" class="E"/><path d="M2140.15 143.08h0c1.43 1.75 28.7 20.65 75.78 22.16-3.6 54.6-18.93 117.9-75.78 145.4h0v8.74a4.49 4.49 0 0 0 1.92-.44c28-13.55 49.2-36.4 63-68 10.58-24.24 16.86-53.22 19.2-88.6a4.4 4.4 0 0 0-4.27-4.7c-49.1-1.6-75.45-21-76.57-21.9a4.36 4.36 0 0 0-1.76-1.17 4.68 4.68 0 0 0-1.5-.24v8.75zm-79.82 14.57a4.41 4.41 0 0 0-4.26 4.71c2.33 35.38 8.6 64.36 19.2 88.6 13.75 31.5 34.9 54.36 62.87 67.9a4.47 4.47 0 0 0 2 .49v-8.74c-56.86-27.5-72.13-90.78-75.76-145.38 46.88-1.5 74.12-20.24 75.75-22.14v-8.74a4.44 4.44 0 0 0-3.21 1.4c-1.04.82-27.4 20.3-76.58 21.9z" class="B"/><path d="M2140.15 143.08h0c-1.63 1.9-28.87 20.63-75.75 22.14 3.6 54.6 18.9 117.87 75.75 145.38h0c56.87-27.5 72.17-90.78 75.78-145.4-47.07-1.48-74.35-20.38-75.78-22.13z" fill="url(#C)"/><path d="M2165.7 203.63h-2.8v-8.16c0-12.564-10.186-22.75-22.75-22.75s-22.75 10.186-22.75 22.75v8.16h-2.8a6.21 6.21 0 0 0-6.21 6.2V254a6.21 6.21 0 0 0 6.21 6.21h51.12a6.21 6.21 0 0 0 6.2-6.21v-44.17a6.21 6.21 0 0 0-6.2-6.2h0zm-40.52-8.16a15 15 0 0 1 22.774-13.899 15 15 0 0 1 7.146 13.899v8.16h-29.92v-8.16zm16.73 50.45h-6.35v-2.56h2.88v-9.9h-1.3v-2.56h1.3v-8.5h-.1a5.75 5.75 0 0 1-3-2l-.06-.1a6.15 6.15 0 0 1-.45-.68c0-.08-.07-.17-.1-.25a4.72 4.72 0 0 1-.27-.61c0-.16-.1-.32-.13-.48s-.08-.3-.1-.45a5.33 5.33 0 0 1-.08-1 6 6 0 0 1 .11-1.14 5.93 5.93 0 0 1 .32-1.06 5.81 5.81 0 0 1 10.75 0 5.22 5.22 0 0 1 .32 1.06 6 6 0 0 1 .12 1.14 5.81 5.81 0 0 1-3.79 5.44V246l-.05-.07z" class="E"/><path d="M2420.16 86.6h0a6.19 6.19 0 0 1 6.12-6.12h0a6.19 6.19 0 0 1-6.13-6.15h0a6.19 6.19 0 0 1-6.15 6.12h0a6.18 6.18 0 0 1 6.16 6.15h0zm.14 3.97h0c-.054 5.892-4.818 10.656-10.7 10.7h0c5.9.06 10.682 4.85 10.72 10.76h0c.065-5.876 4.804-10.63 10.68-10.7h0c-5.902-.07-10.658-4.858-10.7-10.76zm-4.43-2.5c-10.325-.093-18.665-8.455-18.73-18.78l-.06.07c-.108 10.288-8.422 18.602-18.7 18.7h0c10.325.093 18.665 8.455 18.73 18.78l.06-.07c.108-10.292 8.428-18.607 18.72-18.7h-.01z" class="D"/><path d="M2160.07 62.1h0c-12.703 0-23 10.297-23 23v22.62a8.06 8.06 0 0 0 6.51 7.91 3.31 3.31 0 0 0 2.58-.59l4-2.9a4.53 4.53 0 0 1 5.2-.09l3.1 2.08a4.24 4.24 0 0 0 4.86-.07l2.75-2a4.33 4.33 0 0 1 5.52.39l1.75 1.7a4.59 4.59 0 0 0 5.11.89 8.08 8.08 0 0 0 4.66-7.31V85.1a23 23 0 0 0-23.03-23.01zm-6.25 24.4a4.11 4.11 0 0 1-6.218 3.728 4.11 4.11 0 0 1-1.992-3.728v-4.64a4.11 4.11 0 0 1 8.21 0v4.64zm20.7 0a4.11 4.11 0 0 1-6.218 3.728 4.11 4.11 0 0 1-1.992-3.728v-4.64a4.11 4.11 0 0 1 8.21 0v4.64z" class="E"/><path d="M2600.23 40.36a29.89 29.89 0 0 0-12.92-9.68h0a23.82 23.82 0 0 0-33.08-16.46h0A34.67 34.67 0 0 0 2493 28.78h0c-15.933 1.3-27.976 14.983-27.243 30.952s13.978 28.49 29.963 28.328h80.62c16.407.062 29.797-13.114 30-29.52a29.37 29.37 0 0 0-6.111-18.18h0z" fill="url(#D)"/><path d="M2519 322.84a3.47 3.47 0 0 0-.76-.65l-9.93-6.36H2419l-9.92 6.36a3.47 3.47 0 0 0-.76.65 3.38 3.38 0 0 0 2.68 5.56h105.4a3.38 3.38 0 0 0 2.6-5.56h0zm72.27-186.3a7.63 7.63 0 0 0-7.63-7.64h-240a7.64 7.64 0 0 0-7.64 7.64v138.52h255.27V136.55z" class="B"/><path fill="url(#E)" d="M2346.7 138V275.3h208.03L2449.34 138z"/><path fill="url(#F)" d="M2580.6 138h-131.25l105.4 137.32h25.86z"/><path d="M2438.07 302.02h51.16v13.76h-51.16z" class="B"/><path d="M2438.07 302.02h51.16v2.88h-51.16zM2411 324h105.4a3.34 3.34 0 0 0 2.62-1.2 3.47 3.47 0 0 0-.76-.65l-9.93-6.36H2419l-9.92 6.36a3.47 3.47 0 0 0-.76.65 3.34 3.34 0 0 0 2.68 1.2h0z" class="E"/><path d="M2343.66 302h240a7.63 7.63 0 0 0 7.63-7.64v-19.3H2336v19.3a7.64 7.64 0 0 0 7.66 7.64zm125.77-84.8h30.13a3.77 3.77 0 1 0 0-7.54h-30.13a3.77 3.77 0 0 0 0 7.54h0zm-44.1 13.95a3.78 3.78 0 0 0 5.33 0l18.83-18.83a3.77 3.77 0 0 0 0-5.33l-18.83-18.83a3.77 3.77 0 0 0-5.33 5.32l16.17 16.17-16.17 16.17a3.77 3.77 0 0 0 0 5.33h0z" class="B"/></svg>