<svg xmlns="http://www.w3.org/2000/svg" xmlns:xlink="http://www.w3.org/1999/xlink" width="4096" height="397"><style><![CDATA[.B{fill:#252575}.C{fill:#2f2f89}.D{fill:#aeaef5}.E{fill:#454589}.F{fill:#3b3b89}]]></style><defs><linearGradient x1="49.8566842%" y1="-8.36446609%" x2="50.0513106%" y2="125.847262%" id="A"><stop stop-color="#a1a1dd" offset="0%"/><stop stop-color="#c6c6ed" offset="99%"/></linearGradient><linearGradient x1="0%" y1="49.9961253%" x2="99.9324324%" y2="49.9961253%" id="B"><stop stop-color="#a1a1dd" offset="0%"/><stop stop-color="#c6c6ed" offset="99%"/></linearGradient><linearGradient x1="51.0266491%" y1="71.2259035%" x2="49.3193578%" y2="44.8118675%" id="C"><stop stop-color="#a1a1dd" offset="0%"/><stop stop-color="#c6c6ed" offset="99%"/></linearGradient><linearGradient x1="50.926276%" y1="81.4895316%" x2="45.3497164%" y2="23.2086292%" id="D"><stop stop-color="#a1a1dd" offset="0%"/><stop stop-color="#c6c6ed" offset="99%"/></linearGradient><linearGradient x1="105.691602%" y1="24.7637457%" x2="17.4103023%" y2="64.7694731%" id="E"><stop stop-color="#a1a1dd" offset="0%"/><stop stop-color="#c6c6ed" offset="99%"/></linearGradient><linearGradient x1="50.97904%" y1="71.2891382%" x2="49.2663389%" y2="44.8124271%" id="F"><stop stop-color="#a1a1dd" offset="0%"/><stop stop-color="#c6c6ed" offset="99%"/></linearGradient><linearGradient x1="-0.0119260584%" y1="50.016183%" x2="100%" y2="50.016183%" id="G"><stop stop-color="#a1a1dd" offset="0%"/><stop stop-color="#c6c6ed" offset="99%"/></linearGradient><path id="H" d="M2253.05 113.4h3.45v2.27h-3.45z"/><path id="I" d="M2669.73 306.86h52.64v2.62h-52.64z"/></defs><g fill-rule="nonzero"><path d="M2510.82 173.2l-10.07-5.8a57.69 57.69 0 0 0 .67-8.75 55.21 55.21 0 0 0-.71-8.75l10.05-5.8a4 4 0 0 0 1.45-5.42l-15.87-27.5a4 4 0 0 0-2.43-1.85 3.9 3.9 0 0 0-3 .42l-9.77 5.77a45.9 45.9 0 0 0-14.84-8.82V95.18a4 4 0 0 0-4-4h-31.72a4 4 0 0 0-4 4v11.5a49 49 0 0 0-15.42 8.87L2401 109.7a4 4 0 0 0-5.4 1.45l-15.94 27.5a4 4 0 0 0 1.44 5.43l10 5.8a55 55 0 0 0 0 17.5l-10.1 5.8a4 4 0 0 0-1.45 5.42l15.86 27.48a4 4 0 0 0 5.39 1.48l10.38-5.87a48.55 48.55 0 0 0 15.43 8.89v11.5a4 4 0 0 0 4 4h31.73a4 4 0 0 0 4-4v-11.5a46.06 46.06 0 0 0 14.86-8.85l9.9 5.8a3.94 3.94 0 0 0 3 .42 4 4 0 0 0 2.42-1.86l15.8-27.5a4 4 0 0 0-1.5-5.41zm-64.94 13.2a27.77 27.77 0 1 1 27.77-27.77c-.017 15.33-12.44 27.753-27.77 27.77zm120.24-103.52l-5.5-3.16a31.8 31.8 0 0 0 .3-4.38 31.3 31.3 0 0 0-.32-4.34l5.45-3.15a4 4 0 0 0 1.45-5.42l-7.93-13.74a3.94 3.94 0 0 0-2.44-1.86 3.88 3.88 0 0 0-3 .44l-5.17 3.1a32.37 32.37 0 0 0-7.31-4.36v-6.36a4 4 0 0 0-4-4h-15.83a4 4 0 0 0-4 4V46a34.86 34.86 0 0 0-7.82 4.38l-5.65-3.2a4 4 0 0 0-5.39 1.45l-8 13.75a4 4 0 0 0 1.43 5.43l5.43 3.14a30.23 30.23 0 0 0-.33 4.4 30.86 30.86 0 0 0 .31 4.39l-5.46 3.15a4 4 0 0 0-1.46 5.42l7.93 13.75a4 4 0 0 0 5.37 1.48l5.82-3.23a36 36 0 0 0 7.9 4.43V111a4 4 0 0 0 4 4h15.86a4 4 0 0 0 4-4v-6.3a32.72 32.72 0 0 0 7.31-4.34l5.3 3.12a4 4 0 0 0 5.43-1.44l7.86-13.75a4 4 0 0 0-1.54-5.41zm-36.94 8.33c-8.765 0-15.87-7.105-15.87-15.87s7.105-15.87 15.87-15.87 15.87 7.105 15.87 15.87c-.01 8.76-7.1 15.86-15.87 15.87h0z" class="E"/><ellipse fill="#6564ba" cx="2533.27" cy="385.42" rx="441.03" ry="10.97"/><rect x="2571.02" y="220.12" width="87.79" height="160.47" rx="9.87" class="E"/><path d="M2581.52 224.07a7.77 7.77 0 0 0-7.78 7.77v137a7.78 7.78 0 0 0 7.78 7.78h66.8a7.78 7.78 0 0 0 7.78-7.78v-18.72l-74-126-.57-.05z" fill="url(#A)"/><path d="M2648.3 224.07h-66.17l74 126.05V231.84a7.77 7.77 0 0 0-7.83-7.77z" fill="url(#B)"/><g class="D"><rect x="2606.82" y="221.51" width="16.19" height="1.54" rx=".77"/><path d="M2625.72 222.28a.77.77 0 0 1-1.54 0 .77.77 0 0 1 1.54 0h0z"/></g><path d="M2617 278.1a13.82 13.82 0 0 0-9.83 23.54h0a13.82 13.82 0 0 0 23.181-13.269A13.82 13.82 0 0 0 2617 278.1zm9.32 22.37a32.59 32.59 0 0 0-5-2.08l-1.47-.54v-2.12a4 4 0 0 0 1.72-3.38 1.77 1.77 0 0 0 .72-1.58 1.84 1.84 0 0 0-.59-1.49 7.45 7.45 0 0 0 .44-3.83c-.4-1.6-2.57-2.16-4.3-2.16-1.55 0-3.43.44-4.1 1.67a1.69 1.69 0 0 0-1.49.61c-.73 1-.24 2.73 0 3.7a1.84 1.84 0 0 0-.61 1.5 1.77 1.77 0 0 0 .72 1.58 4 4 0 0 0 1.72 3.38v2.12l-1.36.5a34.08 34.08 0 0 0-5.07 2.14c-4.643-5.044-4.427-12.868.487-17.648s12.74-4.78 17.655 0 5.13 12.604.487 17.648l.05-.02z" fill="#6b6aba"/><g class="D"><ellipse cx="2675.91" cy="185.5" rx="7.67" ry="7.81"/><path d="M2663.27 174a1.89 1.89 0 0 0 0 2.63 1.79 1.79 0 0 0 2.58 0 13.82 13.82 0 0 1 19.76 0 1.79 1.79 0 0 0 2.58 0 1.89 1.89 0 0 0 0-2.63 17.41 17.41 0 0 0-24.92 0h0zm12.46-14.54a24.46 24.46 0 0 0-17.58 7.42 1.89 1.89 0 0 0 0 2.63 1.81 1.81 0 0 0 2.58 0 20.94 20.94 0 0 1 30 0 1.81 1.81 0 0 0 2.58 0 1.89 1.89 0 0 0 0-2.63 24.46 24.46 0 0 0-17.58-7.42h0zm21.62.24a30.19 30.19 0 0 0-43.24 0 1.89 1.89 0 0 0 0 2.63 1.82 1.82 0 0 0 2.59 0 26.58 26.58 0 0 1 38.07 0 1.79 1.79 0 0 0 1.29.54 1.83 1.83 0 0 0 1.29-.54 1.89 1.89 0 0 0 0-2.63h0zm-290.63-91.18h0a6.6 6.6 0 0 1 6.56-6.52h0a6.6 6.6 0 0 1-6.53-6.56h0a6.6 6.6 0 0 1-6.56 6.56h0a6.6 6.6 0 0 1 6.53 6.52zm.16 4.22h0c-.06 6.288-5.142 11.37-11.43 11.43h0c6.307.055 11.402 5.163 11.44 11.47h0a11.55 11.55 0 0 1 11.43-11.43h0c-6.305-.06-11.397-5.165-11.44-11.47zm-4.73-2.68c-11.007-.092-19.908-8.993-20-20l-.07.07c-.092 11.007-8.993 19.908-20 20h0c11.007.092 19.908 8.993 20 20l.07-.07c.092-11.007 8.993-19.908 20-20h0zM2161.8 232.9h0a5 5 0 0 1 4.92-4.93h0a5 5 0 0 1-4.93-4.94h0a5 5 0 0 1-4.92 4.93h0a5 5 0 0 1 4.93 4.94h0zm.12 3.2h0a8.71 8.71 0 0 1-8.62 8.62h0a8.71 8.71 0 0 1 8.62 8.65h0a8.71 8.71 0 0 1 8.62-8.62h0a8.72 8.72 0 0 1-8.62-8.65zm-3.57-2.03c-8.3-.076-15-6.78-15.06-15.07l-.06.06c-.108 8.24-6.76 14.892-15 15h0c8.305.076 15 6.805 15.06 15.1l.06-.06c.113-8.237 6.763-14.887 15-15v-.04z"/></g><path d="M2153.68 172.8a23.22 23.22 0 0 0-10.06-7.53h0a18.53 18.53 0 0 0-25.75-12.81 27 27 0 0 0-47.63 11.34c-12.448.952-21.888 11.622-21.315 24.093s10.952 22.23 23.435 22.037h62.72c12.78.05 23.207-10.22 23.35-23 .037-5.108-1.635-10.082-4.75-14.13z" fill="url(#C)"/><path d="M2338.14 380.43h-139.78a4.8 4.8 0 0 1-4.8-4.8V248.46h149.38v127.17a4.8 4.8 0 0 1-4.8 4.8z" class="C"/><g class="B"><rect x="2201.61" y="343.16" width="133.28" height="5.45" rx="1.32"/><rect x="2201.61" y="325.49" width="133.28" height="5.45" rx="1.32"/><rect x="2201.61" y="360.82" width="133.28" height="5.45" rx="1.32"/></g><rect x="2192.66" y="94.91" width="151.18" height="28.35" rx="2.9" class="C"/><path d="M2196.33 123.27h143.83v4.1h-143.83z" class="F"/><path fill="#33339a" d="M2196.33 123.27h143.83v1.43h-143.83z"/><rect x="2211.32" y="97.15" width="113.87" height="19.73" rx="2.97" class="B"/><g class="D"><rect x="2253" y="98.59" width="30.51" height="12.79" rx="1.19"/><use xlink:href="#H"/><use xlink:href="#H" x="17.97"/><use xlink:href="#H" x="8.98"/><path d="M2280 113.4h3.45v2.27H2280z"/></g><rect x="2192.66" y="127.46" width="151.18" height="28.35" rx="2.9" class="C"/><path d="M2196.33 155.82h143.83v4.1h-143.83z" class="F"/><path d="M2196.33 155.82h143.83v1.43h-143.83z" class="C"/><rect x="2211.32" y="129.7" width="113.87" height="19.73" rx="2.97" class="B"/><g class="D"><rect x="2253" y="131.14" width="30.51" height="12.79" rx="1.19"/><use xlink:href="#H" y="32.55"/><use xlink:href="#H" x="17.97" y="32.55"/><use xlink:href="#H" x="8.98" y="32.55"/><path d="M2280 145.95h3.45v2.27H2280z"/></g><rect x="2192.66" y="160.01" width="151.18" height="28.35" rx="2.9" class="C"/><path d="M2196.33 188.37h143.83v4.1h-143.83z" class="F"/><path d="M2196.33 188.37h143.83v1.43h-143.83z" class="C"/><rect x="2211.32" y="162.25" width="113.87" height="19.73" rx="2.97" class="B"/><g class="D"><rect x="2253" y="163.69" width="30.51" height="12.79" rx="1.19"/><use xlink:href="#H" y="65.1"/><use xlink:href="#H" x="17.97" y="65.1"/><use xlink:href="#H" x="8.98" y="65.1"/><path d="M2280 178.5h3.45v2.27H2280z"/></g><rect x="2192.66" y="192.56" width="151.18" height="28.35" rx="2.9" class="C"/><path d="M2196.33 220.9h143.83v4.1h-143.83z" class="F"/><path d="M2196.33 220.9h143.83v1.43h-143.83z" class="C"/><rect x="2211.32" y="194.8" width="113.87" height="19.73" rx="2.97" class="B"/><g class="D"><rect x="2253" y="196.24" width="30.51" height="12.79" rx="1.19"/><use xlink:href="#H" y="97.65"/><use xlink:href="#H" x="17.97" y="97.65"/><use xlink:href="#H" x="8.98" y="97.65"/><path d="M2280 211.05h3.45v2.27H2280z"/></g><path d="M2196.33 253.46h143.83v1.43h-143.83z" class="B"/><rect x="2192.66" y="225.11" width="151.18" height="28.35" rx="2.9" class="C"/><rect x="2211.32" y="227.35" width="113.87" height="19.73" rx="2.97" class="B"/><g class="D"><rect x="2253" y="228.79" width="30.51" height="12.79" rx="1.19"/><use xlink:href="#H" y="130.2"/><use xlink:href="#H" x="17.97" y="130.2"/><use xlink:href="#H" x="8.98" y="130.2"/><path d="M2280 243.6h3.45v2.27H2280z"/><rect x="2240.46" y="277.15" width="55.58" height="10.76" rx="2.61"/></g><rect x="2245.81" y="280.29" width="44.64" height="4.14" rx=".89" class="B"/><rect x="2240.46" y="297.77" width="55.58" height="10.76" rx="2.61" class="D"/><rect x="2245.81" y="300.9" width="44.64" height="4.14" rx=".89" class="B"/><path d="M2582.6 189.76a7.77 7.77 0 0 0-7.77-7.77h-244.1a7.77 7.77 0 0 0-7.77 7.77v140.9h259.64v-140.9z" class="E"/><path fill="url(#D)" d="M2333.83 191.23V330.9h211.6l-107.2-139.68z"/><path fill="url(#E)" d="M2571.73 191.23h-133.5l107.2 139.68h26.3z"/><g class="E"><path d="M2330.73 358.06h244.1a7.77 7.77 0 0 0 7.77-7.77v-19.63H2323v19.63a7.77 7.77 0 0 0 7.73 7.77z"/><path d="M2613.66 369.6a10 10 0 0 0-2.21-1.9l-28.86-18.5H2323l-28.86 18.5a10 10 0 0 0-2.21 1.9 9.82 9.82 0 0 0 7.62 16.15H2606a9.82 9.82 0 0 0 7.66-16.15z"/></g><path d="M2299.52 373.06H2606a9.69 9.69 0 0 0 7.62-3.47 10 10 0 0 0-2.21-1.9l-28.86-18.5H2323l-28.86 18.5a10 10 0 0 0-2.21 1.9 9.67 9.67 0 0 0 7.59 3.47h0z" class="B"/><path d="M2458.47 268.83h30.18a3.77 3.77 0 1 0 0-7.54h-30.18a3.77 3.77 0 1 0 0 7.54h0zm-44.17 13.97a3.77 3.77 0 0 0 5.34 0l18.86-18.8a3.77 3.77 0 0 0 0-5.33l-18.86-18.86c-1.472-1.475-3.86-1.477-5.335-.005s-1.477 3.86-.005 5.335l16.2 16.2-16.2 16.2a3.77 3.77 0 0 0 0 5.28h0zM2229.84 61.54h-3.7v-3.7a1.23 1.23 0 0 0-1.24-1.24h-3.7v-3.7a1.23 1.23 0 0 0-1.2-1.23h-3.7V49.2h3.7a1.24 1.24 0 0 0 1.2-1.2v-5a1.23 1.23 0 0 0-1.2-1.21h-5a1.24 1.24 0 0 0-1.21 1.21v3.7h-3.7a1.23 1.23 0 0 0-1.23 1.29v3.7h-12.35V48a1.23 1.23 0 0 0-1.23-1.23h-3.7V43a1.24 1.24 0 0 0-1.24-1.23h-4.94a1.23 1.23 0 0 0-1.23 1.23v5a1.24 1.24 0 0 0 1.23 1.24h3.7v2.47h-3.7a1.23 1.23 0 0 0-1.23 1.23v3.7h-3.7a1.23 1.23 0 0 0-1.24 1.24v3.7h-3.7a1.23 1.23 0 0 0-1.23 1.23v14.8a1.23 1.23 0 0 0 1.23 1.23h4.94a1.23 1.23 0 0 0 1.23-1.23V69h2.47v8.64a1.23 1.23 0 0 0 1.23 1.23h3.7v3.7a1.23 1.23 0 0 0 1.23 1.24h9.88a1.23 1.23 0 0 0 1.23-1.24V77.6a1.23 1.23 0 0 0-1.23-1.24h-8.64V73.9h22.2v2.47h-8.64a1.23 1.23 0 0 0-1.23 1.24v4.93a1.23 1.23 0 0 0 1.23 1.24h9.85a1.23 1.23 0 0 0 1.23-1.24v-3.7h3.77a1.23 1.23 0 0 0 1.23-1.23V69h2.47v8.64a1.23 1.23 0 0 0 1.23 1.23h4.94a1.24 1.24 0 0 0 1.24-1.23V62.77a1.24 1.24 0 0 0-1.27-1.23h0zm-34.56 1.23h-4.94v-4.93h4.94v4.93zm19.75 0h-4.94v-4.93h4.9l.03 4.93z" class="E"/><path d="M2742.9 60.48A46 46 0 0 0 2723 45.6a36.58 36.58 0 0 0-50.81-25.3h0A53.16 53.16 0 0 0 2630.34 0c-25.34.005-47.17 17.85-52.22 42.68h0c-23.51 1.956-41.66 21.49-41.892 45.08-.208 25.3 20.772 46 46.072 46h123.86c25.17 0 46-20.2 46.1-45.36a45.21 45.21 0 0 0-9.371-27.92h0z" fill="url(#F)"/><g class="C"><path d="M2232.44 291.64h0a6.35 6.35 0 0 0-4.5-2.08c-24.75-.8-38.42-10.1-39.94-11.18a6.52 6.52 0 0 0-2.22-1.36 6.69 6.69 0 0 0-2.14-.35v3.9a2.62 2.62 0 0 1 .83.13 2.52 2.52 0 0 1 1 .65c.62.48 15.2 11.24 42.37 12.1a2.45 2.45 0 0 1 1.73.8 2.48 2.48 0 0 1 .63 1.8c-1.3 19.58-4.77 35.62-10.62 49-7.62 17.46-19.34 30.1-34.84 37.6a2.49 2.49 0 0 1-1.07.24h0v3.9a6.49 6.49 0 0 0 2.77-.63c16.36-7.92 28.7-21.22 36.72-39.56 6-13.83 9.6-30.3 10.93-50.32a6.37 6.37 0 0 0-1.65-4.66z"/><path d="M2182.53 382.66c-15.47-7.5-27.17-20.14-34.78-37.57-5.86-13.4-9.33-29.45-10.62-49a2.39 2.39 0 0 1 .63-1.8 2.43 2.43 0 0 1 1.73-.8c27.22-.88 41.8-11.66 42.37-12.1a2.4 2.4 0 0 1 1.78-.78v-3.9a6.35 6.35 0 0 0-4.33 1.71c-1.56 1.12-15.24 10.38-39.95 11.18a6.34 6.34 0 0 0-6.13 6.76c1.32 20 4.9 36.5 10.94 50.33 8 18.3 20.3 31.6 36.63 39.5a6.35 6.35 0 0 0 2.84.68v-3.9a2.42 2.42 0 0 1-1.11-.3z"/></g><g class="E"><path d="M2183.65 285.4h0c.8 1 15.9 11.43 41.93 12.27-2 30.2-10.46 65.23-41.93 80.45h0v4.83c.37 0 .736-.08 1.07-.24 15.5-7.5 27.22-20.14 34.84-37.6 5.85-13.4 9.33-29.45 10.62-49a2.48 2.48 0 0 0-.63-1.8 2.45 2.45 0 0 0-1.73-.8c-27.18-.87-41.75-11.63-42.37-12.1a2.52 2.52 0 0 0-1-.65 2.62 2.62 0 0 0-.83-.13v4.82l.03-.04z"/><path d="M2139.5 293.46a2.43 2.43 0 0 0-1.73.8 2.39 2.39 0 0 0-.63 1.8c1.3 19.58 4.76 35.62 10.62 49 7.6 17.43 19.3 30.08 34.78 37.57a2.42 2.42 0 0 0 1.11.27v-4.8c-31.46-15.22-39.92-50.23-41.92-80.44 25.94-.84 41-11.2 41.92-12.25v-4.84a2.4 2.4 0 0 0-1.78.78c-.58.45-15.15 11.23-42.37 12.1z"/></g><path d="M2183.65 285.4h0c-.9 1-16 11.4-41.92 12.25 2 30.2 10.46 65.22 41.92 80.44h0c31.47-15.22 39.94-50.24 41.93-80.45-26.04-.8-41.14-11.27-41.93-12.24z" fill="url(#G)"/><path d="M2197.8 318.9h-1.56v-4.52c0-6.953-5.637-12.6-12.6-12.6s-12.6 5.637-12.6 12.6v4.52h-1.55a3.42 3.42 0 0 0-3.43 3.43v24.45a3.43 3.43 0 0 0 3.43 3.43h28.3a3.44 3.44 0 0 0 3.43-3.43v-24.45a3.43 3.43 0 0 0-3.43-3.43h0zm-22.42-4.52a8.28 8.28 0 0 1 16.55 0v4.52h-16.55v-4.52zm9.25 27.92h-3.5v-1.4h1.6v-5.5h-.7V334h.7v-4.7h-.05a3.19 3.19 0 0 1-1.69-1.13v-.05a2.49 2.49 0 0 1-.25-.38.75.75 0 0 1-.06-.13 2.07 2.07 0 0 1-.15-.34 2.68 2.68 0 0 1-.07-.27c0-.08 0-.16-.07-.24a3.54 3.54 0 0 1 0-1.18 3.09 3.09 0 0 1 .18-.59 3.22 3.22 0 0 1 6 0 4 4 0 0 1 .17.59 2.65 2.65 0 0 1 .07.63 3.2 3.2 0 0 1-2.1 3v13.1h-.06z" fill="#6b6aba"/><path d="M2636.56 318.38v-12.92a2.86 2.86 0 0 1 2.86-2.86h16.16a2.86 2.86 0 0 1 2.58 1.61l1.6 3.32a2.88 2.88 0 0 0 2.58 1.61h39.73A2.86 2.86 0 0 1 2705 312v6.38h-68.44z" class="B"/><path d="M2665.76 292.03h60.58v80.7h-60.58z" class="D"/><g fill="#41419d"><use xlink:href="#I"/><use xlink:href="#I" y="8.74"/></g><g fill="#2e3192"><use xlink:href="#I" y="17.44"/><use xlink:href="#I" y="26.18"/><use xlink:href="#I" y="34.9"/><use xlink:href="#I" y="43.62"/></g><use xlink:href="#I" y="-8.72" fill="#41419d"/><use xlink:href="#I" y="52.34" fill="#2e3192"/><path d="M2723.18 323.46h-82.32a6.25 6.25 0 0 0-6.25 6.25v55a5.52 5.52 0 0 0 0 .71h94.73v-55.7a6.25 6.25 0 0 0-6.16-6.25z" class="E"/></g></svg>