<svg xmlns="http://www.w3.org/2000/svg" xmlns:xlink="http://www.w3.org/1999/xlink" viewBox="0 0 4096 391"><defs><linearGradient x1="50.6519742%" y1="71.5554977%" x2="48.9335682%" y2="44.7277715%" id="A"><stop stop-color="#12d5e0" offset="0%"/><stop stop-color="#4ef9f9" offset="99%"/></linearGradient><linearGradient x1="50.930581%" y1="81.4894737%" x2="45.3504245%" y2="23.2093325%" id="B"><stop stop-color="#12d5e0" offset="0%"/><stop stop-color="#4ef9f9" offset="99%"/></linearGradient><linearGradient x1="105.692961%" y1="24.7654595%" x2="17.4057686%" y2="64.7684858%" id="C"><stop stop-color="#12d5e0" offset="0%"/><stop stop-color="#4ef9f9" offset="99%"/></linearGradient><linearGradient x1="50.9278683%" y1="81.4908584%" x2="45.3499005%" y2="23.2102236%" id="D"><stop stop-color="#12d5e0" offset="0%"/><stop stop-color="#4ef9f9" offset="99%"/></linearGradient><linearGradient x1="105.689505%" y1="24.7718383%" x2="17.4041147%" y2="64.7734681%" id="E"><stop stop-color="#12d5e0" offset="0%"/><stop stop-color="#4ef9f9" offset="99%"/></linearGradient><path id="F" d="M2215.8 279.58h64.98v3.23h-64.98z"/></defs><path d="M2741.27 36.16h-163.52a2.86 2.86 0 0 0-2.85 2.84v91.06a2.85 2.85 0 0 0 2.85 2.84h47.87v19.92a2.85 2.85 0 0 0 2.84 2.85 2.89 2.89 0 0 0 2-.83l21.93-21.94h88.86a2.84 2.84 0 0 0 2.85-2.84V39a2.85 2.85 0 0 0-2.83-2.84zM2606.2 64.62h83.84a2.85 2.85 0 0 1 2.608 4.318 2.85 2.85 0 0 1-2.608 1.372h-83.84a2.85 2.85 0 0 1-2.608-4.318 2.85 2.85 0 0 1 2.608-1.372zm106.6 39.84h-106.6a2.85 2.85 0 0 1-2.608-4.318 2.85 2.85 0 0 1 2.608-1.372h106.6a2.85 2.85 0 0 1 0 5.69h0zm0-17.07h-106.6a2.85 2.85 0 1 1 0-5.7h106.6a2.85 2.85 0 1 1 0 5.7z" fill="#0b5d7f"/><path d="M2275.38 0l-10.76 42.7-20.9-6.65 18.64-22.74-24.06 21.1-19.54-6.1zm-25.44 41.43l-6.88 9.7V39.4z" fill="#20f2f5"/><path d="M2224.5 78.44l2.94-4.42 2.62 1.73-2.96 4.44zm7.88-6.22l-2.63-1.72 2.87-4.45 2.65 1.7zm5.27-14.22l2.68 1.64-2.8 4.54-2.66-1.67zM2208 101.78l3.15-4.28 2.53 1.85-3.15 4.3zm8.17-5.86l-2.55-1.83 3.07-4.32 2.57 1.8zm5.93-13.95l2.6 1.78-3.02 4.4-2.58-1.8zm-28.37 38.16l2.44 2-3.4 4.12-2.4-2.02zm2.65-3.27l3.3-4.15 2.47 1.94-3.32 4.18zm5.86-7.46l3.2-4.2 2.5 1.9-3.23 4.24zm-31.08 35.9l3.7-3.78 2.26 2.18-3.75 3.82zm6.6-6.8l3.58-3.9 2.34 2.1-3.62 3.93zm9.84-11.02l2.4 2.04-3.5 4.04-2.36-2.08zm-31.76 35.75l-4.3 3.24-1.84-2.55 4.2-3.16 1.94 2.47zm7.42-6.16l-.86.73 1.84 2.7-2.6 1.75-1.63-2.4-.83.7-2-2.42 4-3.43 2.1 2.36zm1-5.15l3.85-3.62 2.18 2.26-3.9 3.68-2.13-2.32zm-34.7 22.98l1 3-2.63.83-2.7.68-.67-3.07c.85-.15 1.67-.4 2.5-.63l2.5-.8zm10.02-.97c-1.6.87-3.26 1.62-4.93 2.36l-1.24-2.9 4.7-2.26 1.46 2.8zm8.4-4.93l-4.6 2.88-1.6-2.7 4.45-2.8 1.74 2.6zm-45 4.16l-1.66 2.67a32.63 32.63 0 0 1-4.52-3.38l2.08-2.36a29.21 29.21 0 0 0 4.1 3.07zm8.4 3.4l-.65 3.08a29.4 29.4 0 0 1-5.44-1.72l1.24-2.92a25.55 25.55 0 0 0 4.85 1.56h0zm9.1.44l.32 3.13a35.35 35.35 0 0 1-5.64.13l.2-3.14a31.31 31.31 0 0 0 5.12-.12h0zm-35.95-24.82l-2.66 1.67-2.77-4.66 2.74-1.52 2.7 4.5zm5.37 7.75l-2.5 1.9-3.18-4.38 2.6-1.78 3.1 4.26zm5.98 7.25l-2.33 2.1-3.52-4.1 2.43-2 3.42 4zm-22.05-40.9l-3.1.56a45.75 45.75 0 0 1-.69-5.49l3.13-.2a44.57 44.57 0 0 0 .65 5.14zm2.42 9.03l-3 1-1.6-5.24 3-.8 1.6 5.03zm3.63 8.62l-2.82 1.4-2.26-5 2.9-1.2 2.18 4.8zm-1.27-45.3a18 18 0 0 1 5.43-2.47l.82 3a15 15 0 0 0-4.47 2l-1.78-2.53zm-6.53 8.26a20.71 20.71 0 0 1 3-5.07l2.4 2a18 18 0 0 0-2.48 4.29l-2.9-1.22zm1.05 10.12l-3.15-.17a29.82 29.82 0 0 1 .72-5.61l3.06.68a26.85 26.85 0 0 0-.63 5.1h0zm33.2-13.2l1.5-2.75 4.7 2.8-1.7 2.64-4.48-2.7zm-8.52-3.73l1-3a50.31 50.31 0 0 1 5.17 2l-1.35 2.93a47.12 47.12 0 0 0-4.82-1.93h0zm-8.97-1.4l-.1-3.14a26.43 26.43 0 0 1 5.71.47l-.57 3.1a23.33 23.33 0 0 0-5.05-.42zm41.97 20.24l3.78 3.83-2.27 2.17-3.7-3.76 2.2-2.24zm-3.08-2.96l-2.14 2.3-3.92-3.52 2-2.38 4.06 3.6zm-7.28-6.34l-2 2.46-4.18-3.2 1.84-2.55 4.34 3.28zm26.95 32.9l2.48-1.94 3.25 4.25-2.5 1.9-3.22-4.2zm-.15-5.26l-2.45 2-3.36-4.1 2.4-2 3.4 4.1zm-12.02-9.24l2.3-2.1 3.58 4-2.38 2.06zm34.23 40.5l-2.65 1.7-2.88-4.45 2.63-1.72zm-13.76-20.2l3.12 4.34-2.57 1.8-3.1-4.3zm30.54 43.04l-2.4 2.04-3.33-4.18 2.45-1.97zm-5.88-7.34l-2.5 1.9-3.23-4.25 2.54-1.85c.94 1.46 2.1 2.77 3.18 4.2zm-5.53-7.64l-2.57 1.8-3.02-4.4 2.62-1.74zm31.32 35.06l-2 2.38-3.95-3.6 2.12-2.33 3.83 3.55zm-6.93-6.42l-2.17 2.27-3.85-3.7 2.23-2.2c1.17 1.35 2.55 2.46 3.8 3.64zm-6.6-6.63l-2.28 2.15-3.63-3.93 2.34-2.08zm36.53 29.43l-1.6 2.7-4.6-2.74 1.7-2.65c1.43 1 3 1.78 4.5 2.7zm-7.94-5.04l-1.76 2.6-4.42-3 1.84-2.55zm-7.65-5.43l-1.9 2.5-4.18-3.34 1.98-2.44zm41.04 22.67l-1.1 2.94-4.96-2 1.2-2.9zm-8.72-3.5l-1.27 2.87-4.82-2.33 1.37-2.83zm-8.45-4.1l-1.45 2.8a53.34 53.34 0 0 1-4.7-2.55l1.53-2.75a50 50 0 0 0 4.62 2.5h0zm44.35 15.32l-.62 3.08-5.24-1.07.7-3.06c1.7.44 3.43.7 5.15 1.05zm-9.18-2.1l-.78 3.05-5.17-1.34.86-3.02zm-9.02-2.56l-.94 3-5.08-1.65 1.03-2.97zm46.3 8.2l-.17 3.13c-1.78 0-3.55-.26-5.32-.4l.24-3.13 5.25.4zm-9.42-.74l-.3 3.13c-1.78-.1-3.54-.38-5.3-.62l.4-3.1 5.22.6zm-9.33-1.16l-.45 3.1-5.28-.85.55-3.1c1.7.37 3.45.6 5.18.83zm47.32 4.74l-5.33.28-.16-3.13 5.26-.28zm-9.57.5l-5.34.06-.03-3.14 5.27-.06zm-9.5-3.04l-.03 3.15-5.34-.17.1-3.14zm47.6-1.1l-5.26.88-.5-3.1 5.2-.87.56 3.1zm-9.47 1.56l-5.3.68-.4-3.12 5.22-.67zm-9.46 1.2l-5.32.5-.27-3.13 5.24-.48zm46.87-9.33l-5.14 1.44-.8-3.03 5.08-1.43zm-9.24 2.5l-5.2 1.26-.7-3.06 5.13-1.24.77 3.04zm-9.28 2.17l-5.23 1.08-.6-3.1 5.17-1.06.67 3.07zm45.68-14.05l-5 2-1.1-2.94 4.87-2 1.23 2.94zm-8.93 3.48l-5.03 1.78-1-2.97 4.97-1.76zm-9.02 3.1l-5.1 1.6-.9-3 5-1.58 1 3z" fill="#0b5d7f"/><ellipse fill="#078aab" cx="2540.27" cy="379.31" rx="441.03" ry="10.97"/><g fill="#0b5d7f"><ellipse cx="2338.47" cy="62.62" rx="8.69" ry="8.85"/><path d="M2324.15 49.64a2.13 2.13 0 0 0 0 3 2 2 0 0 0 2.92 0 15.64 15.64 0 0 1 22.39 0 2.07 2.07 0 0 0 1.47.61 2 2 0 0 0 1.46-.61 2.13 2.13 0 0 0 0-3 19.72 19.72 0 0 0-28.24 0h0zm14.12-16.54a27.75 27.75 0 0 0-19.93 8.41 2.13 2.13 0 0 0 0 3 2 2 0 0 0 2.93 0 23.74 23.74 0 0 1 34 0 2 2 0 0 0 2.92 0 2.13 2.13 0 0 0 0-3 27.74 27.74 0 0 0-19.92-8.41h0zm24.5.3a34.2 34.2 0 0 0-49 0 2.13 2.13 0 0 0 0 3 2 2 0 0 0 2.92 0 30.1 30.1 0 0 1 43.15 0 2.08 2.08 0 0 0 1.47.62 2.06 2.06 0 0 0 1.46-.62 2.13 2.13 0 0 0 0-3h0z"/></g><path d="M2545.3 53.67h0a6.6 6.6 0 0 1 6.54-6.53h0a6.6 6.6 0 0 1-6.54-6.55h0a6.6 6.6 0 0 1-6.53 6.53h0a6.59 6.59 0 0 1 6.53 6.55zm.17 4.23h0A11.54 11.54 0 0 1 2534 69.37h0c6.305.06 11.397 5.165 11.44 11.47h0a11.56 11.56 0 0 1 11.46-11.46h0c-6.307-.06-11.397-5.173-11.43-11.48h0zm-4.73-2.68c-11.007-.092-19.908-8.993-20-20l-.07.07c-.098 11.005-8.995 19.902-20 20h0c11.007.092 19.908 8.993 20 20l.07-.07c.082-11.012 8.988-19.918 20-20h0zM2139.7 266.65h0a5.73 5.73 0 0 1 5.71-5.65h0a5.74 5.74 0 0 1-5.68-5.7h0a5.73 5.73 0 0 1-5.72 5.64h0a5.73 5.73 0 0 1 5.69 5.71zm.14 3.67h0a10 10 0 0 1-9.94 9.94h0a10 10 0 0 1 10 10h0a10 10 0 0 1 9.94-9.94h0a10 10 0 0 1-10-10zm-4.12-2.32a17.57 17.57 0 0 1-17.4-17.43l-.06.07c-.092 9.55-7.8 17.268-17.36 17.36h0c9.582.087 17.32 7.848 17.38 17.43l.07-.06c.087-9.545 7.795-17.267 17.34-17.37h.02z" fill="#20f2f5"/><path d="M2174.64 193a28.23 28.23 0 0 0-12.17-9.12h0a22.42 22.42 0 0 0-31.15-15.49h0a32.59 32.59 0 0 0-25.64-12.44c-15.528.007-28.906 10.943-32 26.16h0c-14.624 1.68-25.45 14.395-24.776 29.1s12.62 26.376 27.336 26.7h75.9c15.445.056 28.048-12.347 28.24-27.8a27.65 27.65 0 0 0-5.751-17.13z" fill="url(#A)"/><path d="M2508.15 369.4a5.67 5.67 0 0 0-1.1-.94l-14.33-9.2h-128.9l-14.33 9.2a5.67 5.67 0 0 0-1.1.94 4.88 4.88 0 0 0 3.78 8h152.18a4.88 4.88 0 0 0 3.79-8h0zm104.4-268.97c0-6.075-4.925-11-11-11H2255c-6.075 0-11 4.925-11 11v200h368.54v-200z" fill="#045887"/><path fill="url(#B)" d="M2259.43 102.52v198.26h300.35L2407.6 102.52z"/><path fill="url(#C)" d="M2597.12 102.52h-189.5l152.17 198.26h37.34z"/><path fill="#045887" d="M2391.34 339.35h73.86v19.87h-73.86z"/><path d="M2391.34 339.35h73.86v4.16h-73.86zm-39.16 31.78h152.18a4.81 4.81 0 0 0 3.79-1.73 5.67 5.67 0 0 0-1.1-.94l-14.33-9.2h-128.9l-14.33 9.2a5.67 5.67 0 0 0-1.1.94 4.81 4.81 0 0 0 3.78 1.73z" fill="#044674"/><path d="M2255 339.32h346.52c6.075 0 11-4.925 11-11v-27.9H2244v27.88a11 11 0 0 0 11 11.02h0z" fill="#045887"/><path d="M2436.05 214.54h43.52a5.44 5.44 0 0 0 0-10.87h-43.52a5.44 5.44 0 0 0 0 10.87h0zm-63.67 20.16a5.44 5.44 0 0 0 7.69 0l27.2-27.2a5.44 5.44 0 0 0 0-7.69l-27.2-27.2a5.44 5.44 0 0 0-7.69 7.69l23.35 23.35-23.35 23.33a5.44 5.44 0 0 0 0 7.71z" fill="#0b5d7f"/><path d="M2803.8 209.34a6.82 6.82 0 0 0-6.83-6.82H2582.5a6.82 6.82 0 0 0-6.83 6.82v123.8h228.12v-123.8z" fill="#045887"/><path fill="url(#D)" d="M2585.22 210.63v122.72h185.9l-94.2-122.72z"/><path fill="url(#E)" d="M2794.24 210.63h-117.3l94.2 122.72h23.1z"/><g fill="#045887"><path d="M2582.5 357.2H2797a6.82 6.82 0 0 0 6.83-6.82v-17.26h-228.16v17.26a6.82 6.82 0 0 0 6.83 6.82h0z"/><path d="M2831.07 367.34a8.83 8.83 0 0 0-1.94-1.67l-25.35-16.26h-228.1l-25.35 16.26a8.83 8.83 0 0 0-1.94 1.67 8.63 8.63 0 0 0 6.69 14.19h269.3a8.63 8.63 0 0 0 6.69-14.19h0z"/></g><path d="M2555.08 370.4h269.3a8.52 8.52 0 0 0 6.69-3.05 8.83 8.83 0 0 0-1.94-1.67l-25.35-16.26h-228.1l-25.35 16.26a8.83 8.83 0 0 0-1.94 1.67 8.52 8.52 0 0 0 6.69 3.05h0z" fill="#044674"/><path d="M2711.5 260.72h11.65a31.39 31.39 0 0 1 2.66 11.52h-13.38a81.53 81.53 0 0 0-.93-11.52h0zm-5.1-16.28a30.84 30.84 0 0 1 15.62 14h-10.9a48.88 48.88 0 0 0-4.72-14h0zm-9.77 14v-16.08a30.75 30.75 0 0 1 7 1.12 47.19 47.19 0 0 1 5.26 14.94l-12.26.02zm-14.83 27.6a82.41 82.41 0 0 1-.95-11.51h13.53v11.5h-12.58zm0-25.33h12.6v11.52h-13.56a81.3 81.3 0 0 1 .94-11.52h.02zm5.65-17.28a30.09 30.09 0 0 1 7-1.08v16.06h-12.3a47.14 47.14 0 0 1 5.27-14.98h.02zm-18.77 15a30.88 30.88 0 0 1 16-14.08 49.15 49.15 0 0 0-4.77 14.08h-11.23zm9.92 13.82h-13.68a31.35 31.35 0 0 1 2.61-11.52h12a81.42 81.42 0 0 0-.95 11.5l.02.02zm1 13.8h-11.98a30.89 30.89 0 0 1-2.71-11.51h13.68a78.1 78.1 0 0 0 .96 11.49l.05.02zm.36 2.3a48 48 0 0 0 4.81 14.11 30.73 30.73 0 0 1-16-14.11h11.2zm14.47 0v16.06a29.39 29.39 0 0 1-6.87-1.05 46.16 46.16 0 0 1-5.31-15l12.18-.01zm14.44 0a46.7 46.7 0 0 1-5.28 15 30.36 30.36 0 0 1-6.91 1.06v-16l12.2-.06zm-12.2-13.8h13.53a79.6 79.6 0 0 1-.95 11.51h-12.63l.05-11.5zm13.54-2.3h-13.6v-11.54h12.6a81.3 81.3 0 0 1 .94 11.52l.05.02zm2.25 2.3h13.37a31.33 31.33 0 0 1-2.71 11.51h-11.66a79.6 79.6 0 0 0 .95-11.53l.05.02zm9.53 13.8a30.59 30.59 0 0 1-15.67 14 47.51 47.51 0 0 0 4.77-14h10.9z" fill="#0b5d7f"/><path d="M2174.86 293.8v-15.94a3.54 3.54 0 0 1 3.54-3.53h19.94a3.54 3.54 0 0 1 3.18 2l2 4.1a3.54 3.54 0 0 0 3.18 2h49.05a3.53 3.53 0 0 1 3.53 3.53v7.87l-84.42-.03z" fill="#044674"/><path fill="#20f2f5" d="M2210.9 261.27h74.77v99.6h-74.77z"/><g fill="#044674"><use xlink:href="#F"/><use xlink:href="#F" y="10.77"/></g><g fill="#2e3192"><use xlink:href="#F" y="21.54"/><use xlink:href="#F" y="32.3"/><use xlink:href="#F" y="43.07"/><use xlink:href="#F" y="53.84"/></g><use xlink:href="#F" y="-10.78" fill="#044674"/><use xlink:href="#F" y="64.62" fill="#2e3192"/><path d="M2281.77 300.06h-101.6a7.71 7.71 0 0 0-7.71 7.71v67.83a7.86 7.86 0 0 0 .05.87h116.92a6.24 6.24 0 0 0 .06-.87v-67.83a7.72 7.72 0 0 0-7.72-7.71z" fill="#044674"/></svg>