<svg xmlns="http://www.w3.org/2000/svg" xmlns:xlink="http://www.w3.org/1999/xlink" viewBox="0 0 4096 385"><style><![CDATA[.B{fill:#055681}.C{fill:#044674}.D{fill:#13b4c5}.E{fill:#045887}]]></style><defs><linearGradient x1="50.976464%" y1="71.3001224%" x2="49.2699743%" y2="44.7920452%" id="A"><stop stop-color="#12d5e0" offset="0%"/><stop stop-color="#4ef9f9" offset="99%"/></linearGradient><linearGradient x1="51.0444246%" y1="71.2578817%" x2="49.3268699%" y2="44.8299019%" id="B"><stop stop-color="#12d5e0" offset="0%"/><stop stop-color="#4ef9f9" offset="99%"/></linearGradient><linearGradient x1="50.9248391%" y1="81.4926356%" x2="45.3474724%" y2="23.2175673%" id="C"><stop stop-color="#12d5e0" offset="0%"/><stop stop-color="#4ef9f9" offset="99%"/></linearGradient><linearGradient x1="105.69994%" y1="24.7731175%" x2="17.4065227%" y2="64.7718911%" id="D"><stop stop-color="#12d5e0" offset="0%"/><stop stop-color="#4ef9f9" offset="99%"/></linearGradient><linearGradient x1="-0.0191497511%" y1="49.9913435%" x2="100.01915%" y2="49.9913435%" id="E"><stop stop-color="#12d5e0" offset="0%"/><stop stop-color="#4ef9f9" offset="99%"/></linearGradient><linearGradient x1="49.8583392%" y1="-8.36215009%" x2="50.0549977%" y2="125.821392%" id="F"><stop stop-color="#12d5e0" offset="0%"/><stop stop-color="#4ef9f9" offset="99%"/></linearGradient><linearGradient x1="0%" y1="49.9962645%" x2="100%" y2="49.9962645%" id="G"><stop stop-color="#12d5e0" offset="0%"/><stop stop-color="#4ef9f9" offset="99%"/></linearGradient><path id="H" d="M2600.93 50.35h4.07v2.68h-4.07z"/></defs><ellipse fill="#078aab" cx="2546.87" cy="373.38" rx="441.03" ry="10.97"/><g fill="#0b5d7f"><path d="M2202.38 89.3h24.2a65.48 65.48 0 0 1 5.51 23.92h-27.78a168.62 168.62 0 0 0-1.94-23.92zm-10.6-33.82a64 64 0 0 1 32.45 29h-22.65c-2.6-13.34-6.47-22.85-9.8-29zm-20.28 29V51.15a63.76 63.76 0 0 1 14.49 2.34c3.53 6 8.06 16.1 10.93 31l-25.42-.02zm-30.8 57.42a167.54 167.54 0 0 1-2-23.91h28.1v23.9h-26.1zm0-52.6h26.16v23.92h-28.16a168.26 168.26 0 0 1 1.95-23.92h.05zm11.74-35.9a61.81 61.81 0 0 1 14.42-2.22V84.5h-25.43c2.87-15 7.44-25.1 10.96-31.12h.05zm-39 31.12a64.08 64.08 0 0 1 33.19-29.24c-3.34 6.15-7.3 15.74-9.9 29.24h-23.3zm20.54 28.7h-28.34a65.4 65.4 0 0 1 5.41-23.92H2136a168.62 168.62 0 0 0-2 23.92h0zm2 28.68h-24.75a65 65 0 0 1-5.62-23.89H2134a166.25 166.25 0 0 0 2 23.89h0zm.75 4.77c2.63 13.66 6.64 23.22 10 29.3a63.74 63.74 0 0 1-33.27-29.3h23.27zm30.05 0V180a61 61 0 0 1-14.26-2.18c-3.54-5.9-8.14-16-11-31.18l25.26.02zm30 0c-2.9 15-7.46 25.15-11 31.06a62.27 62.27 0 0 1-14.34 2.21v-33.27h25.34zM2171.5 118h28.1a167.9 167.9 0 0 1-2 23.91h-26.1V118zm28.1-4.77h-28.1V89.3h26.17a168.36 168.36 0 0 1 1.94 23.92v.02zm4.68 4.77h27.75a65.26 65.26 0 0 1-5.61 23.91h-24.1a167.9 167.9 0 0 0 1.97-23.91zm19.9 28.68a63.46 63.46 0 0 1-32.53 29.1c3.36-6.08 7.3-15.57 9.9-29.1h22.63z"/><ellipse cx="2490.26" cy="98.06" rx="8.69" ry="8.85"/><path d="M2475.93 85.07a2.13 2.13 0 0 0 0 3 2 2 0 0 0 2.92 0 15.65 15.65 0 0 1 22.4 0 2 2 0 0 0 2.92 0 2.13 2.13 0 0 0 0-3 19.73 19.73 0 0 0-28.24 0h0zm14.12-16.53a27.68 27.68 0 0 0-19.92 8.46 2.13 2.13 0 0 0 0 3 2 2 0 0 0 2.92 0 23.72 23.72 0 0 1 34 0 2 2 0 0 0 1.46.61 2.07 2.07 0 0 0 1.47-.61 2.15 2.15 0 0 0 0-3 27.72 27.72 0 0 0-19.93-8.46zm24.5.28a34.2 34.2 0 0 0-49 0 2.13 2.13 0 0 0 0 3 2.05 2.05 0 0 0 2.93 0 30.13 30.13 0 0 1 43.15 0 2 2 0 0 0 2.92 0 2.13 2.13 0 0 0 0-3h0z"/></g><path d="M2701.4 365.68h-165.06a5.67 5.67 0 0 1-5.67-5.67V209.84h176.4V360a5.67 5.67 0 0 1-5.67 5.68h0z" class="B"/><g class="C"><rect x="2540.18" y="321.67" width="157.39" height="6.44" rx="1.56"/><rect x="2540.18" y="300.81" width="157.39" height="6.44" rx="1.56"/><rect x="2540.18" y="342.53" width="157.39" height="6.44" rx="1.56"/></g><rect x="2529.61" y="28.52" width="178.52" height="33.47" rx="3.43" class="B"/><path d="M2533.95 62h169.84v4.83h-169.84z" class="C"/><path d="M2533.95 62h169.84v1.7h-169.84z" class="B"/><rect x="2551.64" y="31.17" width="134.46" height="23.3" rx="3.51" class="C"/><g class="D"><rect x="2600.86" y="32.87" width="36.02" height="15.11" rx="1.41"/><use xlink:href="#H"/><use xlink:href="#H" x="21.21"/><use xlink:href="#H" x="10.6"/><use xlink:href="#H" x="31.82"/></g><rect x="2529.61" y="66.96" width="178.52" height="33.47" rx="3.43" class="B"/><path d="M2533.95 100.44h169.84v4.83h-169.84z" class="C"/><path d="M2533.95 100.44h169.84v1.7h-169.84z" class="B"/><rect x="2551.64" y="69.61" width="134.46" height="23.3" rx="3.51" class="C"/><g class="D"><rect x="2600.86" y="71.31" width="36.02" height="15.11" rx="1.41"/><use xlink:href="#H" y="38.45"/><use xlink:href="#H" x="21.21" y="38.45"/><use xlink:href="#H" x="10.6" y="38.45"/><use xlink:href="#H" x="31.82" y="38.45"/></g><rect x="2529.61" y="105.39" width="178.52" height="33.47" rx="3.43" class="B"/><path d="M2533.95 138.88h169.84v4.83h-169.84z" class="C"/><path d="M2533.95 138.88h169.84v1.7h-169.84z" class="B"/><rect x="2551.64" y="108.04" width="134.46" height="23.3" rx="3.51" class="C"/><g class="D"><rect x="2600.86" y="109.74" width="36.02" height="15.11" rx="1.41"/><use xlink:href="#H" y="76.87"/><use xlink:href="#H" x="21.21" y="76.87"/><use xlink:href="#H" x="10.6" y="76.87"/><use xlink:href="#H" x="31.82" y="76.87"/></g><rect x="2529.61" y="143.83" width="178.52" height="33.47" rx="3.43" class="B"/><path d="M2533.95 177.3h169.84v4.83h-169.84z" class="C"/><path d="M2533.95 177.3h169.84v1.7h-169.84z" class="B"/><rect x="2551.64" y="146.48" width="134.46" height="23.3" rx="3.51" class="C"/><g class="D"><rect x="2600.86" y="148.18" width="36.02" height="15.11" rx="1.41"/><use xlink:href="#H" y="115.31"/><use xlink:href="#H" x="21.21" y="115.31"/><use xlink:href="#H" x="10.6" y="115.31"/><use xlink:href="#H" x="31.82" y="115.31"/></g><path d="M2533.95 215.75h169.84v1.7h-169.84z" class="C"/><rect x="2529.61" y="182.27" width="178.52" height="33.47" rx="3.43" class="B"/><rect x="2551.64" y="184.91" width="134.46" height="23.3" rx="3.51" class="C"/><g class="D"><rect x="2600.86" y="186.62" width="36.02" height="15.11" rx="1.41"/><use xlink:href="#H" y="153.75"/><use xlink:href="#H" x="21.21" y="153.75"/><use xlink:href="#H" x="10.6" y="153.75"/><use xlink:href="#H" x="31.82" y="153.75"/><rect x="2586.06" y="243.72" width="65.63" height="12.7" rx="3.09"/></g><rect x="2592.38" y="247.42" width="52.71" height="4.89" rx="1.05" class="B"/><rect x="2586.06" y="268.07" width="65.63" height="12.7" rx="3.09" class="D"/><rect x="2592.38" y="271.77" width="52.71" height="4.89" rx="1.05" class="B"/><path d="M2230.84 74h0a6.61 6.61 0 0 1 6.54-6.53h0a6.61 6.61 0 0 1-6.54-6.56h0a6.6 6.6 0 0 1-6.53 6.53h0a6.6 6.6 0 0 1 6.53 6.56h0zm.16 4.2h0c-.06 6.288-5.142 11.37-11.43 11.43h0a11.54 11.54 0 0 1 11.43 11.52h0c.07-6.283 5.147-11.36 11.43-11.43h0c-6.32-.066-11.414-5.2-11.43-11.52h0zm-4.73-2.7c-11.007-.092-19.908-8.993-20-20l-.07.07c-.092 11.007-8.993 19.908-20 20h0c11.007.092 19.908 8.993 20 20l.07-.08c.092-11.007 8.993-19.908 20-20h0z" fill="#20f2f5"/><path d="M2441.72 49.9a38 38 0 0 0-16.38-12.28h0a30.17 30.17 0 0 0-41.94-20.86h0a43.94 43.94 0 0 0-77.57 18.47h0c-19.392 1.616-34.364 17.732-34.55 37.2-.17 20.87 17.14 38 38 38h102.14c20.77 0 37.9-16.66 38-37.42a37.28 37.28 0 0 0-7.7-23.1z" fill="url(#A)"/><path d="M2154.17 175.47a23.47 23.47 0 0 0-10.11-7.58h0a18.61 18.61 0 0 0-25.87-12.89h0a27 27 0 0 0-21.29-10.33c-12.89.01-23.996 9.09-26.57 21.72h0c-12.513.952-22.003 11.678-21.424 24.214s11.017 22.34 23.564 22.136h63c12.828.05 23.296-10.253 23.45-23.08.042-5.127-1.63-10.122-4.75-14.2z" fill="url(#B)"/><path d="M2558.87 145.14a9.07 9.07 0 0 0-9.07-9.07h-285a9.08 9.08 0 0 0-9.08 9.07v164.52h303.16l-.01-164.52z" class="E"/><path fill="url(#C)" d="M2268.4 146.87l.01 163.08 247.06-.01-125.18-163.08z"/><path fill="url(#D)" d="M2546.2 146.86h-155.9l125.18 163.08h30.7z"/><g class="E"><path d="M2264.8 341.66h285a9.07 9.07 0 0 0 9.07-9.07v-22.94h-303.15v22.93a9.08 9.08 0 0 0 9.08 9.08h0z"/><path d="M2595.14 355.1a11.72 11.72 0 0 0-2.58-2.22l-33.7-21.6h-303.12l-33.7 21.6a12 12 0 0 0-2.59 2.22 11.48 11.48 0 0 0 8.9 18.86h357.88a11.47 11.47 0 0 0 8.89-18.86z"/></g><path d="M2228.37 359.18h357.88a11.28 11.28 0 0 0 8.89-4.06 11.72 11.72 0 0 0-2.58-2.22l-33.7-21.6h-303.12l-33.7 21.6a12 12 0 0 0-2.59 2.22 11.35 11.35 0 0 0 8.9 4.06z" class="C"/><path d="M2428.8 248.16l-5.25-3a29.91 29.91 0 0 0 .35-4.55 29.53 29.53 0 0 0-.37-4.57l5.24-3a2.07 2.07 0 0 0 .75-2.83l-8.27-14.32a2 2 0 0 0-1.26-1 2.07 2.07 0 0 0-1.58.22l-5.1 3a23.85 23.85 0 0 0-7.74-4.6v-6a2.06 2.06 0 0 0-2.07-2.07H2387a2.06 2.06 0 0 0-2.06 2.07v6a25.36 25.36 0 0 0-8 4.62l-5.34-3a2.05 2.05 0 0 0-2.81.76l-8.3 14.32a2.12 2.12 0 0 0-.21 1.58 2.06 2.06 0 0 0 1 1.25l5.22 3a28.32 28.32 0 0 0-.37 4.56 29.1 29.1 0 0 0 .36 4.56l-5.25 3a2.08 2.08 0 0 0-.75 2.83l8.27 14.33a2.06 2.06 0 0 0 2.8.76l5.4-3.05a25.33 25.33 0 0 0 8.05 4.63v6a2.07 2.07 0 0 0 2.07 2.07h16.54a2.07 2.07 0 0 0 2.07-2.07v-6a23.89 23.89 0 0 0 7.74-4.62l5.16 3a2.13 2.13 0 0 0 1.58.21 2 2 0 0 0 1.26-1l8.13-14.25a2.06 2.06 0 0 0-.76-2.84h0zm-33.8 6.9a14.48 14.48 0 1 1 14.48-14.47c-.006 7.993-6.487 14.47-14.48 14.47zm62.62-53.98l-2.86-1.64a17.35 17.35 0 0 0 .15-2.28 16.15 16.15 0 0 0-.17-2.29l2.84-1.65a2.06 2.06 0 0 0 .76-2.82l-4.13-7.16a2.09 2.09 0 0 0-1.28-1 2 2 0 0 0-1.58.23l-2.7 1.6a16.62 16.62 0 0 0-3.8-2.25v-3.3a2.07 2.07 0 0 0-2.06-2.07h-8.27a2.07 2.07 0 0 0-2.07 2.07v3.3a18.67 18.67 0 0 0-4.1 2.3l-2.95-1.67a2.07 2.07 0 0 0-2.81.76l-4.17 7.17a2.08 2.08 0 0 0-.21 1.56 2 2 0 0 0 1 1.26l2.83 1.64a16.51 16.51 0 0 0-.17 2.3 16.13 16.13 0 0 0 .16 2.29l-2.85 1.64a2 2 0 0 0-1 1.25 2.09 2.09 0 0 0 .2 1.57l4.14 7.17a2.08 2.08 0 0 0 2.8.77l3-1.7a18 18 0 0 0 4.11 2.31v3.3a2.07 2.07 0 0 0 2.07 2.07h8.27a2.07 2.07 0 0 0 2.07-2.07v-3.3a17.56 17.56 0 0 0 3.81-2.26l2.76 1.62a2.07 2.07 0 0 0 2.85-.75l4.1-7.16a2.07 2.07 0 0 0-.74-2.8zm-19.25 4.35a8.27 8.27 0 1 1 8.27-8.27 8.28 8.28 0 0 1-8.27 8.27z" fill="#0b5d7f"/><path d="M2273 254.26h0a8 8 0 0 0-5.6-2.6c-30.84-1-47.88-12.57-49.77-13.92a7.79 7.79 0 0 0-5.43-2.13v4.86a2.86 2.86 0 0 1 1 .16 3.08 3.08 0 0 1 1.22.81c.76.6 18.92 14 52.78 15.1a3 3 0 0 1 2.16 1 3.07 3.07 0 0 1 .78 2.25c-1.6 24.4-5.94 44.37-13.23 61.08-9.5 21.75-24.1 37.5-43.4 46.84a2.94 2.94 0 0 1-1.32.31h0v4.87a7.88 7.88 0 0 0 3.44-.79c20.4-9.86 35.78-26.44 45.75-49.28 7.52-17.23 12-37.74 13.62-62.7a7.91 7.91 0 0 0-1.99-5.85zm-62.23 113.4c-19.28-9.34-33.86-25.1-43.34-46.8-7.3-16.7-11.62-36.7-13.23-61.08a3 3 0 0 1 .78-2.25 3.05 3.05 0 0 1 2.16-1c33.9-1.1 52.07-14.52 52.8-15.1a3 3 0 0 1 2.21-1v-4.86a7.85 7.85 0 0 0-5.39 2.12c-1.95 1.4-19 12.94-49.77 13.93a7.93 7.93 0 0 0-7.64 8.43c1.65 25 6.1 45.47 13.63 62.7 10 22.8 25.3 39.36 45.63 49.23 1.1.55 2.3.84 3.54.84V368a3 3 0 0 1-1.37-.34h0z" fill="#054774"/><g class="E"><path d="M2212.16 246.47h0c1 1.2 19.8 14.23 52.24 15.27-2.5 37.65-13 81.27-52.24 100.23h0v6a2.95 2.95 0 0 0 1.32-.31c19.32-9.33 33.92-25.1 43.4-46.84 7.3-16.7 11.62-36.7 13.23-61.08a3.07 3.07 0 0 0-.78-2.25 3 3 0 0 0-2.16-1c-33.86-1.1-52-14.5-52.78-15.1a3.08 3.08 0 0 0-1.22-.81c-.32-.112-.66-.167-1-.16v6l-.02.04z"/><path d="M2157.14 256.52a3.05 3.05 0 0 0-2.16 1 3 3 0 0 0-.78 2.25c1.6 24.4 5.93 44.37 13.23 61.08 9.48 21.72 24.06 37.47 43.34 46.8.424.217.894.33 1.37.33v-6c-39.2-19-49.73-62.58-52.22-100.22 32.32-1 51.1-14 52.22-15.26v-6a3 3 0 0 0-2.21 1c-.72.5-18.88 13.92-52.8 15z"/></g><path d="M2212.16 246.48h0c-1.12 1.3-19.9 14.22-52.22 15.26C2162.4 299.4 2173 343 2212.14 362h0c39.2-19 49.75-62.58 52.24-100.23-32.38-1.06-51.24-14.08-52.22-15.3z" fill="url(#E)"/><path d="M2188.14 291.65l13.55 26.1a.7.7 0 0 0 1.06.21l42-35.2a.69.69 0 0 0-.79-1.13l-38.18 22.28a.69.69 0 0 1-.79-.06l-15.76-13a.7.7 0 0 0-1.09.82h0z" fill="#06678f"/><rect x="2655.33" y="204.72" width="93.15" height="170.29" rx="10.48" class="E"/><path d="M2666.47 208.9a8.25 8.25 0 0 0-8.26 8.25v145.4a8.26 8.26 0 0 0 8.26 8.26h70.87a8.26 8.26 0 0 0 8.26-8.26v-19.9l-78.47-133.77h-.66z" fill="url(#F)"/><path d="M2737.34 208.9h-70.2l78.47 133.77V217.16a8.25 8.25 0 0 0-8.26-8.25z" fill="url(#G)"/><g fill="#20f2f5"><rect x="2693.31" y="206.2" width="17.18" height="1.63" rx=".815"/><path d="M2713.38 207a.82.82 0 1 1-1.64 0 .82.82 0 0 1 1.4-.58.82.82 0 0 1 .24.58z"/></g><path d="M2712.36 278.43h-.36v-3.6a10.05 10.05 0 0 0-10.045-10.045 10.05 10.05 0 0 0-10.045 10.045v3.6h-.4a3.57 3.57 0 0 0-3.57 3.56v17.86a3.56 3.56 0 0 0 3.56 3.56h20.92a3.56 3.56 0 0 0 3.57-3.56V282a3.57 3.57 0 0 0-3.62-3.57h0zm-17.06-3.6a6.61 6.61 0 0 1 9.984-5.938 6.61 6.61 0 0 1 3.226 5.938v3.6h-13.2v-3.6zm7.6 22.27h-2.8V296h1.27v-4.38h-.57v-1.13h.57v-3.75a2.55 2.55 0 0 1-1.34-.9h0a2.23 2.23 0 0 1-.2-.3v-.1l-.12-.27c0-.07 0-.14-.05-.2a1.46 1.46 0 0 1 0-.2 2.09 2.09 0 0 1 0-.43 2.84 2.84 0 0 1 0-.51 2.24 2.24 0 0 1 .14-.46 2.56 2.56 0 0 1 4.75 0 2.24 2.24 0 0 1 .14.46 2.84 2.84 0 0 1 .05.51 2.55 2.55 0 0 1-1.67 2.4v10.38h-.17z" fill="#06678f"/></svg>