<?xml version="1.0" encoding="UTF-8"?>
<svg viewBox="0 0 4096 400" version="1.1" xmlns="http://www.w3.org/2000/svg"><defs><linearGradient x1="50.9706433%" y1="71.1667002%" x2="49.2625661%" y2="44.8345265%" id="linearGradient-1"><stop stop-color="#A1A1DD" offset="0%"></stop><stop stop-color="#C6C6ED" offset="99%"></stop></linearGradient><linearGradient x1="50.9638814%" y1="71.6821509%" x2="49.2548854%" y2="44.7094343%" id="linearGradient-2"><stop stop-color="#A1A1DD" offset="0%"></stop><stop stop-color="#C6C6ED" offset="99%"></stop></linearGradient><linearGradient x1="50.9305958%" y1="81.3564538%" x2="45.351484%" y2="23.3229571%" id="linearGradient-3"><stop stop-color="#A1A1DD" offset="0%"></stop><stop stop-color="#C6C6ED" offset="99%"></stop></linearGradient><linearGradient x1="105.923464%" y1="24.7667343%" x2="17.2714369%" y2="64.7667343%" id="linearGradient-4"><stop stop-color="#A1A1DD" offset="0%"></stop><stop stop-color="#C6C6ED" offset="99%"></stop></linearGradient><linearGradient x1="-0.0174809894%" y1="50.0158128%" x2="100%" y2="50.0158128%" id="linearGradient-5"><stop stop-color="#A1A1DD" offset="0%"></stop><stop stop-color="#C6C6ED" offset="99%"></stop></linearGradient><linearGradient x1="49.8555507%" y1="-8.35612032%" x2="50.051046%" y2="125.820331%" id="linearGradient-6"><stop stop-color="#A1A1DD" offset="0%"></stop><stop stop-color="#C6C6ED" offset="99%"></stop></linearGradient><linearGradient x1="0%" y1="50%" x2="100%" y2="50%" id="linearGradient-7"><stop stop-color="#A1A1DD" offset="0%"></stop><stop stop-color="#C6C6ED" offset="99%"></stop></linearGradient><linearGradient x1="50.9274682%" y1="81.6244629%" x2="45.3475167%" y2="23.0960556%" id="linearGradient-8"><stop stop-color="#A1A1DD" offset="0%"></stop><stop stop-color="#C6C6ED" offset="99%"></stop></linearGradient><linearGradient x1="105.452736%" y1="24.769169%" x2="17.5481825%" y2="64.770316%" id="linearGradient-9"><stop stop-color="#A1A1DD" offset="0%"></stop><stop stop-color="#C6C6ED" offset="99%"></stop></linearGradient></defs><g id="image" transform="translate(2048.000000, 0.001796)"><ellipse id="Oval" fill="#6564BA" fill-rule="nonzero" cx="450.5" cy="388.998204" rx="450.5" ry="11"></ellipse><g id="airplane" transform="translate(731.000000, 65.998204)" fill="#AEAEF5"><polygon id="Path" points="67.9735065 34.7919718 44.5090909 42.2898592 15.6135065 16.3622535 38.0005195 44.3129577 12.9111688 52.4940845 -5.01993829e-14 0"></polygon><polygon id="Path" points="38.8041558 48.4212676 38.8041558 62.8669014 30.5381818 50.9235211"></polygon></g><path d="M191.768865,144.683232 L201.711081,144.683232 C203.084251,147.788611 203.855021,151.127042 203.982325,154.520655 L192.581917,154.520655 C192.54673,151.226248 192.275012,147.938634 191.768865,144.683232 L191.768865,144.683232 Z M187.420802,130.776372 C193.121387,133.075167 197.836973,137.301016 200.747791,142.719286 L191.468389,142.719286 C190.737511,138.556871 189.37868,134.529884 187.438477,130.776372 L187.420802,130.776372 Z M179.087016,142.719286 L179.087016,128.998204 C181.09985,129.091194 183.095414,129.41473 185.03467,129.962484 C187.2366,133.93202 188.754349,138.244704 189.524133,142.719286 L179.087016,142.719286 Z M166.431679,166.313177 C165.932163,163.060097 165.663419,159.775689 165.627464,156.484601 L177.186948,156.484601 L177.186948,166.313177 L166.431679,166.313177 Z M166.431679,144.683232 L177.186948,144.683232 L177.186948,154.520655 L165.636302,154.520655 C165.665243,151.226656 165.931056,147.939016 166.431679,144.683232 L166.431679,144.683232 Z M171.256968,129.918251 C173.191357,129.387908 175.182137,129.090915 177.186948,129.033591 L177.186948,142.745826 L166.74983,142.745826 C167.516291,138.245475 169.040317,133.90801 171.256968,129.918251 L171.256968,129.918251 Z M155.243372,142.719286 C158.21725,137.213732 163.055597,132.950735 168.888511,130.696752 C166.929839,134.473698 165.558945,138.527957 164.823249,142.719286 L155.243372,142.719286 Z M163.700884,154.520655 L152.053025,154.520655 C152.163572,151.130504 152.916316,147.792214 154.271244,144.683232 L164.505099,144.683232 C164.005988,147.939329 163.737248,151.22665 163.700884,154.520655 L163.700884,154.520655 Z M164.531611,166.313177 L154.350782,166.313177 C152.950078,163.216392 152.152231,159.880607 152,156.484601 L163.674371,156.484601 C163.722823,159.777207 164.009319,163.061983 164.531611,166.313177 L164.531611,166.313177 Z M164.840925,168.277123 C165.570922,172.483174 166.954562,176.548806 168.941536,180.326196 C163.092349,178.074341 158.242276,173.799884 155.269884,168.277123 L164.840925,168.277123 Z M177.21346,168.277123 L177.21346,181.998204 C175.232255,181.936701 173.26537,181.639732 171.354181,181.113544 C169.109322,177.134112 167.575111,172.793194 166.82053,168.285969 L177.21346,168.277123 Z M189.524133,168.277123 C188.763495,172.760939 187.242114,177.081433 185.025833,181.051618 C183.101412,181.572115 181.123497,181.868959 179.131203,181.936278 L179.131203,168.277123 L189.524133,168.277123 Z M179.131203,156.484601 L190.673012,156.484601 C190.63887,159.776121 190.367145,163.060869 189.859959,166.313177 L179.104691,166.313177 L179.131203,156.484601 Z M190.681849,154.520655 L179.104691,154.520655 L179.104691,144.683232 L189.859959,144.683232 C190.356169,147.939533 190.621957,151.226856 190.655337,154.520655 L190.681849,154.520655 Z M192.599592,156.484601 L204,156.484601 C203.863853,159.877038 203.084065,163.212556 201.702243,166.313177 L191.768865,166.313177 C192.272785,163.060617 192.541555,159.775893 192.57308,156.484601 L192.599592,156.484601 Z M200.774303,168.277123 C197.858141,173.733495 193.100559,177.975509 187.350102,180.246577 C189.318609,176.492597 190.690179,172.454248 191.415364,168.277123 L200.774303,168.277123 Z" id="globe" fill="#454589"></path><g id="signal" transform="translate(271.000000, -0.001796)" fill="#AEAEF5" fill-rule="nonzero"><ellipse id="Oval" cx="25.8820342" cy="40.2703547" rx="8.8840678" ry="9.00877193"></ellipse><path d="M11.2338986,27.0598284 C10.4040677,27.8995508 10.4040677,29.2464217 11.2338986,30.0861442 C11.6256975,30.4886484 12.1647184,30.7158589 12.7277969,30.7158589 C13.2908755,30.7158589 13.8298963,30.4886484 14.2216952,30.0861442 C17.2339417,27.0124964 21.3652963,25.2792373 25.6793224,25.2792373 C29.9933485,25.2792373 34.124703,27.0124964 37.1369495,30.0861442 C37.5302773,30.4891514 38.0707487,30.716554 38.6352546,30.716554 C39.1997604,30.716554 39.7402318,30.4891514 40.1335597,30.0861442 C40.9540552,29.2426396 40.9540552,27.9033329 40.1335597,27.0598284 C36.3361784,23.1806792 31.1253344,20.9928157 25.6837291,20.9928157 C20.2421238,20.9928157 15.0312799,23.1806792 11.2338986,27.0598284 L11.2338986,27.0598284 Z" id="Path"></path><path d="M25.6705088,10.2352277 C17.9979079,10.2249143 10.648857,13.3107993 5.30237322,18.7878985 C4.4761732,19.6325054 4.4761732,20.9783794 5.30237322,21.8229863 C5.69539199,22.2232485 6.23395677,22.4488945 6.79627152,22.4488945 C7.35858627,22.4488945 7.89715105,22.2232485 8.29016983,21.8229863 C12.8589367,17.1561184 19.1281226,14.5240007 25.6749156,14.5240007 C32.2217086,14.5240007 38.4908945,17.1561184 43.0596614,21.8229863 C43.4514603,22.2254905 43.9904811,22.452701 44.5535597,22.452701 C45.1166382,22.452701 45.6556591,22.2254905 46.047458,21.8229863 C46.873658,20.9783794 46.873658,19.6325054 46.047458,18.7878985 C40.6988448,13.3086107 33.3461671,10.2225382 25.6705088,10.2352277 L25.6705088,10.2352277 Z" id="Path"></path><path d="M50.727458,10.5247406 C44.1456293,3.79569433 35.110557,0 25.6749156,0 C16.2392742,0 7.20420183,3.79569433 0.622373216,10.5247406 C-0.207457739,11.3644631 -0.207457739,12.711334 0.622373216,13.5510564 C1.01417212,13.9535607 1.55319299,14.1807712 2.11627152,14.1807712 C2.67935005,14.1807712 3.21837092,13.9535607 3.61016983,13.5510564 C9.40686668,7.62751537 17.3624485,4.28642871 25.6705088,4.28642871 C33.9785691,4.28642871 41.9341509,7.62751537 47.7308478,13.5510564 C48.1241756,13.9540637 48.664647,14.1814663 49.2291529,14.1814663 C49.7936587,14.1814663 50.3341301,13.9540637 50.727458,13.5510564 C51.5572889,12.711334 51.5572889,11.3644631 50.727458,10.5247406 Z" id="Path"></path></g><g id="tower" transform="translate(677.000000, 207.998204)" fill-rule="nonzero"><path d="M89.9764486,176.982388 L3.52280374,176.982388 C1.88287934,176.982388 0.553457944,175.6498 0.553457944,174.00597 L0.553457944,95.1837313 L92.9282243,95.1837313 L92.9282243,174.00597 C92.9282243,175.642947 91.6095073,176.972702 89.9764486,176.982388 L89.9764486,176.982388 Z" id="Path" fill="#2F2F89"></path><rect id="Rectangle" fill="#252575" x="5.52579439" y="153.875522" width="82.4213084" height="3.38149254" rx="0.93"></rect><rect id="Rectangle" fill="#252575" x="5.52579439" y="142.929701" width="82.4213084" height="3.38149254" rx="0.93"></rect><rect id="Rectangle" fill="#252575" x="5.52579439" y="164.830149" width="82.4213084" height="3.38149254" rx="0.93"></rect><rect id="Rectangle" fill="#2F2F89" x="3.12107557e-14" y="-4.69276359e-15" width="93.4904673" height="17.5679104" rx="2.04"></rect><rect id="Rectangle" fill="#3B3B89" x="2.26654206" y="17.5767164" width="88.9398131" height="2.5361194"></rect><rect id="Rectangle" fill="#33339A" x="2.26654206" y="17.5767164" width="88.9398131" height="1"></rect><rect id="Rectangle" fill="#252575" x="11.5347664" y="1.39134328" width="70.4121495" height="12.2314925" rx="2.09"></rect><rect id="Rectangle" fill="#AEAEF5" x="37.3100935" y="2.28074627" width="18.8614953" height="7.9341791" rx="0.84"></rect><rect id="Rectangle" fill="#AEAEF5" x="37.3452336" y="11.4565672" width="2.13476636" height="1.40895522"></rect><rect id="Rectangle" fill="#AEAEF5" x="48.4495327" y="11.4565672" width="2.13476636" height="1.40895522"></rect><rect id="Rectangle" fill="#AEAEF5" x="42.8973832" y="11.4565672" width="2.13476636" height="1.40895522"></rect><rect id="Rectangle" fill="#AEAEF5" x="54.0016822" y="11.4565672" width="2.13476636" height="1.40895522"></rect><rect id="Rectangle" fill="#2F2F89" x="3.12107557e-14" y="20.1744776" width="93.4904673" height="17.5679104" rx="2.04"></rect><rect id="Rectangle" fill="#3B3B89" x="2.26654206" y="37.751194" width="88.9398131" height="2.5361194"></rect><rect id="Rectangle" fill="#2F2F89" x="2.26654206" y="37.751194" width="88.9398131" height="1"></rect><rect id="Rectangle" fill="#252575" x="11.5347664" y="21.5658209" width="70.4121495" height="12.2314925" rx="2.09"></rect><rect id="Rectangle" fill="#AEAEF5" x="37.3100935" y="22.4552239" width="18.8614953" height="7.9341791" rx="0.84"></rect><rect id="Rectangle" fill="#AEAEF5" x="37.3452336" y="31.6310448" width="2.13476636" height="1.40895522"></rect><rect id="Rectangle" fill="#AEAEF5" x="48.4495327" y="31.6310448" width="2.13476636" height="1.40895522"></rect><rect id="Rectangle" fill="#AEAEF5" x="42.8973832" y="31.6310448" width="2.13476636" height="1.40895522"></rect><rect id="Rectangle" fill="#AEAEF5" x="54.0016822" y="31.6310448" width="2.13476636" height="1.40895522"></rect><rect id="Rectangle" fill="#2F2F89" x="3.12107557e-14" y="40.3489552" width="93.4904673" height="17.5679104" rx="2.04"></rect><rect id="Rectangle" fill="#3B3B89" x="2.26654206" y="57.9256716" width="88.9398131" height="2.5361194"></rect><rect id="Rectangle" fill="#2F2F89" x="2.26654206" y="57.9256716" width="88.9398131" height="1"></rect><rect id="Rectangle" fill="#252575" x="11.5347664" y="41.7402985" width="70.4121495" height="12.2314925" rx="2.09"></rect><rect id="Rectangle" fill="#AEAEF5" x="37.3100935" y="42.6385075" width="18.8614953" height="7.9341791" rx="0.84"></rect><rect id="Rectangle" fill="#AEAEF5" x="37.3452336" y="51.8143284" width="2.13476636" height="1.40895522"></rect><rect id="Rectangle" fill="#AEAEF5" x="48.4495327" y="51.8143284" width="2.13476636" height="1.40895522"></rect><rect id="Rectangle" fill="#AEAEF5" x="42.8973832" y="51.8143284" width="2.13476636" height="1.40895522"></rect><rect id="Rectangle" fill="#AEAEF5" x="54.0016822" y="51.8143284" width="2.13476636" height="1.40895522"></rect><rect id="Rectangle" fill="#2F2F89" x="3.12107557e-14" y="60.5322388" width="93.4904673" height="17.5679104" rx="2.04"></rect><rect id="Rectangle" fill="#3B3B89" x="2.26654206" y="78.1089552" width="88.9398131" height="2.5361194"></rect><rect id="Rectangle" fill="#2F2F89" x="2.26654206" y="78.1089552" width="88.9398131" height="1"></rect><rect id="Rectangle" fill="#252575" x="11.5347664" y="61.9147761" width="70.4121495" height="12.2314925" rx="2.09"></rect><rect id="Rectangle" fill="#AEAEF5" x="37.3100935" y="62.8129851" width="18.8614953" height="7.9341791" rx="0.84"></rect><rect id="Rectangle" fill="#AEAEF5" x="37.3452336" y="71.988806" width="2.13476636" height="1.40895522"></rect><rect id="Rectangle" fill="#AEAEF5" x="48.4495327" y="71.988806" width="2.13476636" height="1.40895522"></rect><rect id="Rectangle" fill="#AEAEF5" x="42.8973832" y="71.988806" width="2.13476636" height="1.40895522"></rect><rect id="Rectangle" fill="#AEAEF5" x="54.0016822" y="71.988806" width="2.13476636" height="1.40895522"></rect><rect id="Rectangle" fill="#252575" x="2.26654206" y="98.2834328" width="88.9398131" height="1"></rect><rect id="Rectangle" fill="#2F2F89" x="3.12107557e-14" y="80.7067164" width="93.4904673" height="17.5679104" rx="2.04"></rect><rect id="Rectangle" fill="#252575" x="11.5347664" y="82.0980597" width="70.4121495" height="12.2314925" rx="2.09"></rect><rect id="Rectangle" fill="#AEAEF5" x="37.3100935" y="82.9874627" width="18.8614953" height="7.9341791" rx="0.84"></rect><rect id="Rectangle" fill="#AEAEF5" x="37.3452336" y="92.1632836" width="2.13476636" height="1.40895522"></rect><rect id="Rectangle" fill="#AEAEF5" x="48.4495327" y="92.1632836" width="2.13476636" height="1.40895522"></rect><rect id="Rectangle" fill="#AEAEF5" x="42.8973832" y="92.1632836" width="2.13476636" height="1.40895522"></rect><rect id="Rectangle" fill="#AEAEF5" x="54.0016822" y="92.1632836" width="2.13476636" height="1.40895522"></rect><rect id="Rectangle" fill="#AEAEF5" x="29.5528972" y="112.962985" width="34.3671028" height="6.6661194" rx="1.84"></rect><rect id="Rectangle" fill="#252575" x="32.8648598" y="114.909104" width="27.6026168" height="2.56253731" rx="0.62"></rect><rect id="Rectangle" fill="#AEAEF5" x="29.5528972" y="125.740448" width="34.3671028" height="6.6661194" rx="1.84"></rect><rect id="Rectangle" fill="#252575" x="32.8648598" y="127.686567" width="27.6026168" height="2.56253731" rx="0.62"></rect></g><path d="M752,330.998204 L752,320.35718 C752,319.054355 753.086078,317.998204 754.425822,317.998204 L768.163358,317.998204 C769.093154,317.997183 769.942359,318.511238 770.351871,319.322992 L771.714199,322.058034 C772.123712,322.869789 772.972917,323.383843 773.902713,323.382821 L807.574178,323.382821 C808.911921,323.387509 809.995179,324.440916 810,325.741795 L810,330.998204 L752,330.998204 Z" id="Path" fill="#41419D" fill-rule="nonzero"></path><g id="lined-paper" transform="translate(777.000000, 308.998204)" fill-rule="nonzero"><rect id="Rectangle" fill="#AEAEF5" x="3.75744633e-14" y="-2.51422814e-14" width="51.48" height="68.8319231"></rect><rect id="Rectangle" fill="#41419D" x="3.36677966" y="12.65" width="44.7376271" height="2.22923077"></rect><rect id="Rectangle" fill="#41419D" x="3.36677966" y="20.0896154" width="44.7376271" height="2.22923077"></rect><rect id="Rectangle" fill="#2E3192" x="3.36677966" y="27.5292308" width="44.7376271" height="2.22923077"></rect><rect id="Rectangle" fill="#2E3192" x="3.36677966" y="34.9688462" width="44.7376271" height="2.22923077"></rect><rect id="Rectangle" fill="#2E3192" x="3.36677966" y="42.4084615" width="44.7376271" height="2.22923077"></rect><rect id="Rectangle" fill="#2E3192" x="3.36677966" y="49.8569231" width="44.7376271" height="2.22923077"></rect><rect id="Rectangle" fill="#41419D" x="3.36677966" y="5.21038462" width="44.7376271" height="2.22923077"></rect><rect id="Rectangle" fill="#2E3192" x="3.36677966" y="57.2965385" width="44.7376271" height="2.22923077"></rect></g><path d="M825.770682,334.998204 L756.264366,334.998204 C753.362468,334.998204 751.010015,337.383818 751.010015,340.326623 L751.010015,387.394317 C750.996662,387.595385 750.996662,387.797136 751.010015,387.998204 L830.990005,387.998204 C831.003332,387.797135 831.003332,387.595386 830.990005,387.394317 L830.990005,340.326623 C830.990069,337.397635 828.658892,335.017731 825.770682,334.998204 Z" id="Path" fill="#6B6ABA" fill-rule="nonzero"></path><path d="M677.996105,87.7787009 C678.043352,87.2357953 677.655595,86.7514944 677.115127,86.6783769 L670.014445,85.8949462 C669.590064,84.4100477 668.99899,82.9778627 668.252489,81.6256892 L672.719047,76.0536486 C673.067865,75.6253825 673.004875,74.996003 672.57809,74.6452339 C670.687899,73.0573553 668.939879,71.3078161 667.353891,69.4164944 C666.99968,68.9889845 666.367009,68.9261617 665.935517,69.2756529 L660.358926,73.7385669 C659.005649,72.9926744 657.572294,72.4020827 656.086183,71.9780486 C655.833636,69.6306908 655.572279,67.2657277 655.302113,64.8831596 C655.228936,64.3431327 654.744239,63.955692 654.20089,64.0029004 C651.74162,64.2140475 649.268756,64.2140475 646.809485,64.0029004 C646.262884,63.9507002 645.772699,64.3394185 645.699453,64.8831596 C645.441033,67.2305174 645.179676,69.5954804 644.915383,71.9780486 C643.432645,72.4036931 642.002387,72.9942267 640.65145,73.7385669 L635.074859,69.2756529 C634.643367,68.9261617 634.010696,68.9889845 633.656485,69.4164944 C632.068186,71.3057022 630.320357,73.0550498 628.432285,74.6452339 C628.007259,74.9958452 627.940715,75.621628 628.282519,76.0536486 L632.757887,81.6256892 C632.007696,82.9760897 631.416444,84.4087067 630.995931,85.8949462 L623.886439,86.6783769 C623.343565,86.7472279 622.95352,87.2343858 623.005461,87.7787009 C623.216781,90.2359649 623.216781,92.7068114 623.005461,95.1640754 C622.948674,95.7098234 623.341102,96.1999582 623.886439,96.2643994 L630.995931,97.0566327 C631.418118,98.5394848 632.009308,99.9689978 632.757887,101.317087 L628.25609,106.933141 C627.913291,107.368012 627.97972,107.996612 628.405856,108.350358 C630.293789,109.937489 632.041628,111.683902 633.630055,113.570295 C633.98409,113.996084 634.613203,114.062458 635.04843,113.719939 L640.62502,109.248222 C641.97421,109.996191 643.404891,110.586899 644.888954,111.008741 C645.153247,113.356099 645.414604,115.723996 645.673024,118.112432 C645.74193,118.658626 646.23505,119.049672 646.783056,118.992691 C649.242327,118.781544 651.715191,118.781544 654.174461,118.992691 C654.719221,119.04459 655.206776,118.654864 655.275684,118.112432 C655.539977,115.765074 655.801334,113.397177 656.059754,111.008741 C657.547207,110.588571 658.980994,109.997801 660.332497,109.248222 L665.909087,113.719939 C666.344314,114.062458 666.973427,113.996084 667.327462,113.570295 C668.913576,111.681783 670.661607,109.935178 672.551661,108.350358 C672.97952,107.996435 673.042394,107.364281 672.692618,106.933141 L668.226059,101.3611 C668.971007,100.011265 669.562023,98.5821734 669.988015,97.1006456 L677.088698,96.3084124 C677.634035,96.2439711 678.026463,95.7538364 677.969676,95.2080884 C677.764617,92.7354756 677.77346,90.2497947 677.996105,87.7787009 L677.996105,87.7787009 Z M650.474354,103.165684 C644.011572,103.146194 638.786849,97.8981694 638.801399,91.4406475 C638.816009,84.9831257 644.064378,79.7587095 650.527181,79.768395 C656.989985,79.7781075 662.222623,85.018253 662.217793,91.4757894 C662.215464,94.5830475 660.976057,97.561728 658.772971,99.7547595 C656.569885,101.947791 653.584136,103.174984 650.474354,103.165684 Z" id="gear" fill="#454589" fill-rule="nonzero"></path><g id="left-stars" transform="translate(256.000000, 124.998204)" fill="#AEAEF5" fill-rule="nonzero"><path d="M45.459697,19.0216981 L45.459697,19.0216981 C45.4977572,15.3253281 48.4579041,12.3382183 52.1209091,12.2998113 L52.1209091,12.2998113 C48.4457214,12.2708013 45.4748182,9.26888741 45.4509091,5.56018868 L45.4509091,5.56018868 C45.4127679,9.25507635 42.4512801,12.2395967 38.789697,12.2732075 L38.789697,12.2732075 C42.4663048,12.3070352 45.43585,15.3115251 45.459697,19.0216981 L45.459697,19.0216981 Z" id="Path"></path><path d="M45.6266667,23.3669811 L45.5827273,23.4113208 C45.5159595,29.8843505 40.3271189,35.1125687 33.9124242,35.1701887 L33.9124242,35.1701887 C40.3406365,35.2329786 45.531064,40.486472 45.5739394,46.9733962 L45.6178788,46.9733962 C45.6797328,40.5086319 50.8554562,35.2818229 57.2618182,35.2145283 L57.2618182,35.2145283 C50.824895,35.1417734 45.6406856,29.862928 45.6266667,23.3669811 Z" id="Path"></path><path d="M40.7933333,20.6179245 C29.5650828,20.5068593 20.4992361,11.3308081 20.4230303,-1.26020787e-14 L20.3527273,0.0798113208 C20.2338423,11.3726325 11.1908872,20.4979567 2.49766537e-14,20.6179245 L2.49766537e-14,20.6179245 C11.2288094,20.7194312 20.2987404,29.8956679 20.370303,41.2269811 L20.4406061,41.1560377 C20.5548277,29.8612386 29.600486,20.7331866 40.7933333,20.6179245 L40.7933333,20.6179245 Z" id="Path"></path></g><g id="right-stars" transform="translate(678.000000, 131.998204)" fill="#AEAEF5" fill-rule="nonzero"><path d="M39.9294828,16.4261702 L39.9294828,16.4261702 C39.9580513,13.2327193 42.5579768,10.6495236 45.7768966,10.616383 L45.7768966,10.616383 C42.5497278,10.583168 39.9444933,7.9908225 39.9206897,4.78914894 L39.9206897,4.78914894 C39.8873654,7.97919373 37.2888088,10.5571527 34.0732759,10.5902128 L34.0732759,10.5902128 C37.30583,10.6188158 39.9151797,13.219143 39.9294828,16.4261702 Z" id="Path"></path><path d="M40.0789655,20.177234 L40.0789655,20.177234 C40.0215151,25.7749627 35.4512386,30.293485 29.8086207,30.3312766 L29.8086207,30.3312766 C35.4545106,30.3835425 40.0144229,34.9189595 40.0525862,40.5202128 L40.0525862,40.5202128 C40.1097367,34.9359434 44.6588714,30.4228677 50.2877586,30.3661702 L50.2877586,30.3661702 C44.6556159,30.2950215 40.1168259,25.7650599 40.0789655,20.177234 L40.0789655,20.177234 Z" id="Path"></path><path d="M35.8406897,17.7957447 C25.9769683,17.710139 18.0088081,9.78571646 17.9467241,-1.2396703e-14 L17.8763793,0.0610638298 C17.7763698,9.81426505 9.8311284,17.6965279 4.99830062e-14,17.7957447 L4.99830062e-14,17.7957447 C9.86316201,17.8907562 17.827233,25.8149945 17.8939655,35.6002128 L17.9555172,35.5304255 C18.0555268,25.7772243 26.0007682,17.8949615 35.8318966,17.7957447 L35.8406897,17.7957447 Z" id="Path"></path></g><path d="M513.15874,86.953879 C508.311523,80.6622136 501.82431,75.8175624 494.404312,72.948071 C494.404312,72.948071 494.404312,72.948071 494.404312,72.948071 C492.123198,62.8348596 485.393006,54.2836122 476.081191,49.6670794 C466.769375,45.0505466 455.866532,44.8598374 446.397918,49.1478687 L446.397918,49.1478687 C434.275681,33.7750711 414.289873,26.8326062 395.206702,31.3655898 C376.123532,35.8985734 361.427966,51.0791924 357.565799,70.2488977 C335.361176,72.0912825 318.21629,90.4821112 318,112.688342 C317.79865,136.506129 337.620475,155.998204 361.517814,155.998204 L478.463931,155.998204 C502.281878,155.998204 521.874344,136.989694 521.997844,113.294997 C522.093838,103.775892 518.981244,94.5001558 513.15874,86.953879 L513.15874,86.953879 Z" id="large-cloud" fill="url(#linearGradient-1)" fill-rule="nonzero"></path><path d="M274.117696,78.6424986 C271.455054,75.1454534 267.892559,72.4534509 263.818565,70.8599523 L263.818565,70.8599523 C262.567262,65.2391737 258.874367,60.4865411 253.764854,57.921161 C248.65534,55.3557809 242.672937,55.2506478 237.478076,57.6349419 C232.24706,50.9246571 224.258234,47.0048227 215.799853,46.9982043 C202.664654,47.0020247 191.347633,56.3406674 188.730611,69.3353532 C176.037222,70.3765025 166.440936,81.3797424 167.025329,94.2229407 C167.609723,107.066139 178.16483,117.134863 190.899311,116.996801 L255.108643,116.996801 C268.176552,117.046441 278.840487,106.450875 279,93.2591488 C279.034766,87.973273 277.316185,82.8276202 274.117696,78.6424986 Z" id="small-cloud" fill="url(#linearGradient-2)" fill-rule="nonzero"></path><g id="login-laptop" transform="translate(79.000000, 198.998204)" fill-rule="nonzero"><path d="M273.483051,7.23935185 C273.483051,3.24116823 270.23498,0 266.228282,0 L38.3950449,0 C34.3903604,0.00484679043 31.1451332,3.24317755 31.1402761,7.23935185 L31.1402761,138.471296 L273.483051,138.471296 L273.483051,7.23935185 Z" id="Path" fill="#454589"></path><polygon id="Path" fill="url(#linearGradient-3)" points="41.2863744 8.61157407 41.2863744 138.708796 238.787097 138.708796 138.727704 8.61157407"></polygon><polygon id="Path" fill="url(#linearGradient-4)" points="263.336952 8.61157407 138.727704 8.61157407 238.787097 138.708796 263.336952 138.708796"></polygon><path d="M38.3950449,163.998154 L266.228282,163.998154 C268.153084,164.000486 269.999724,163.238522 271.360765,161.880373 C272.721807,160.522224 273.483056,158.679508 273.483056,156.758796 L273.483056,138.471296 L31.1402761,138.471296 L31.1402761,156.758796 C31.1402761,160.75698 34.3883468,163.998154 38.3950449,163.998154 Z" id="Path" fill="#454589"></path><path d="M302.475681,174.72963 C301.872948,174.04746 301.175345,173.455016 300.404149,172.97037 L273.474236,155.720833 L31.1579062,155.720833 L4.21917787,172.961574 C3.45237104,173.44862 2.75800154,174.040837 2.15646111,174.720833 C-0.152008017,177.455247 -0.652516935,181.281072 0.875123902,184.51521 C2.40276474,187.749347 5.67855596,189.799015 9.2613744,189.7625 L295.361952,189.7625 C298.942939,189.799546 302.217716,187.752466 303.746859,184.52105 C305.276002,181.289635 304.779536,177.465536 302.475681,174.72963 L302.475681,174.72963 Z" id="Path" fill="#454589"></path><path d="M9.2613744,177.966667 L295.361952,177.966667 C298.101961,178.017699 300.717657,176.827451 302.475681,174.72963 C301.872948,174.04746 301.175345,173.455016 300.404149,172.97037 L273.474236,155.720833 L31.1579062,155.720833 L4.21917787,172.961574 C3.45237104,173.44862 2.75800154,174.040837 2.15646111,174.720833 C3.90922547,176.821589 6.52243501,178.015417 9.2613744,177.966667 L9.2613744,177.966667 Z" id="Path" fill="#252575"></path><rect id="Rectangle" fill="#6B6ABA" x="109.100392" y="77.8648148" width="86.4313584" height="17.425463" rx="3"></rect><ellipse id="Oval" fill="#AEAEF5" cx="120.180883" cy="86.5819444" rx="2.3183526" ry="2.31342593"></ellipse><ellipse id="Oval" fill="#AEAEF5" cx="129.339698" cy="86.5819444" rx="2.3183526" ry="2.31342593"></ellipse><ellipse id="Oval" fill="#AEAEF5" cx="138.498513" cy="86.5819444" rx="2.3183526" ry="2.31342593"></ellipse><ellipse id="Oval" fill="#AEAEF5" cx="147.657328" cy="86.5819444" rx="2.3183526" ry="2.31342593"></ellipse><ellipse id="Oval" fill="#AEAEF5" cx="156.816143" cy="86.5819444" rx="2.3183526" ry="2.31342593"></ellipse><ellipse id="Oval" fill="#AEAEF5" cx="165.974958" cy="86.5819444" rx="2.3183526" ry="2.31342593"></ellipse><rect id="Rectangle" fill="#6B6ABA" x="109.100392" y="54.7481481" width="86.4313584" height="17.425463" rx="3"></rect><ellipse id="Oval" fill="#AEAEF5" cx="120.180883" cy="63.4564815" rx="2.3183526" ry="2.31342593"></ellipse><ellipse id="Oval" fill="#AEAEF5" cx="129.339698" cy="63.4564815" rx="2.3183526" ry="2.31342593"></ellipse><ellipse id="Oval" fill="#AEAEF5" cx="138.498513" cy="63.4564815" rx="2.3183526" ry="2.31342593"></ellipse><ellipse id="Oval" fill="#AEAEF5" cx="147.657328" cy="63.4564815" rx="2.3183526" ry="2.31342593"></ellipse><ellipse id="Oval" fill="#AEAEF5" cx="156.816143" cy="63.4564815" rx="2.3183526" ry="2.31342593"></ellipse><ellipse id="Oval" fill="#AEAEF5" cx="165.974958" cy="63.4564815" rx="2.3183526" ry="2.31342593"></ellipse></g><g id="shield-lock" transform="translate(22.000000, 255.998204)" fill-rule="nonzero"><path d="M119.703085,17.9949064 L119.703085,17.9949064 C118.30863,16.467806 116.354695,15.5658989 114.28381,15.4934495 C84.4114909,14.5333832 67.9149692,3.38252231 66.0938098,2.05252231 C65.3292388,1.33653743 64.4270472,0.782239567 63.4416359,0.423052115 C62.6148455,0.135925151 61.7445737,-0.00709495989 60.8690272,2.50336911e-14 L60.8690272,4.68609847 C61.2086461,4.68199687 61.5464813,4.73561267 61.8680127,4.84464152 C62.3201938,5.00336002 62.7267842,5.26938899 63.0526504,5.61974086 C63.7952591,6.20106536 81.3791721,19.1311316 114.160042,20.1792773 C114.959557,20.2013436 115.715405,20.5475322 116.252759,21.1377694 C116.790113,21.7280066 117.062424,22.5111647 117.006708,23.3060985 C115.450766,46.832125 111.260332,66.112721 104.196708,82.231264 C95.011346,103.211794 80.8664185,118.41431 62.1685924,127.42484 C61.768352,127.615619 61.3303959,127.714924 60.8867083,127.715502 L60.8867083,127.715502 L60.8867083,132.410138 L60.8867083,132.410138 C62.0403703,132.40755 63.1789462,132.148781 64.2196069,131.652655 C83.9606214,122.140072 98.8658388,106.109608 108.519752,84.0897409 C115.795549,67.4691448 120.118592,47.6776879 121.709897,23.6055687 C121.830776,21.5418137 121.106689,19.5174049 119.703085,17.9949064 L119.703085,17.9949064 Z" id="Path" fill="#2F2F89"></path><path d="M59.4898967,127.389608 C40.827433,118.379079 26.7090272,103.18537 17.5236649,82.231264 C10.4512011,66.112721 6.27844746,46.832125 4.71366485,23.3060985 C4.66049626,22.5117773 4.93368703,21.7300446 5.47051193,21.1403882 C6.00733684,20.5507317 6.76167604,20.20381 7.56033152,20.1792773 C40.3942446,19.1223236 57.9516359,6.16583357 58.6765634,5.61974086 C59.2218068,5.03197392 59.986182,4.69421368 60.789462,4.68609847 L60.789462,0.000254464523 C58.8516863,-0.00372128716 56.9856813,0.730472427 55.5735199,2.05252231 C53.7169982,3.38252231 37.2116359,14.5333832 7.41004167,15.4846415 C5.32978271,15.5489271 3.36568867,16.4552018 1.97100479,17.9943288 C0.5763209,19.5334557 -0.128454297,21.5724567 0.0193170282,23.6408005 C1.61062138,47.7217276 5.92482427,67.5043766 13.209462,84.1337806 C22.8456938,106.153648 37.7155489,122.10484 57.4123605,131.626231 C58.4775742,132.156676 59.6516509,132.434038 60.8425054,132.436562 L60.8425054,127.741926 C60.3692009,127.738708 59.9042211,127.617593 59.4898967,127.389608 L59.4898967,127.389608 Z" id="Path" fill="#2F2F89"></path><path d="M60.8425054,10.4817276 L60.8425054,10.4817276 C61.797288,11.6531846 80.0088822,24.213317 111.419462,25.2262309 C109.014824,61.5413965 98.8039547,103.616959 60.8425054,121.911065 L60.8425054,121.911065 L60.8425054,127.72431 L60.8425054,127.72431 C61.286193,127.72431 61.7241491,127.624427 62.1243895,127.433648 C80.8222156,118.423118 94.9671431,103.220602 104.152505,82.240072 C111.224969,66.1215289 115.406563,46.8409329 116.962505,23.3149064 C117.018221,22.5199726 116.74591,21.7368146 116.208556,21.1465774 C115.671203,20.5563401 114.915354,20.2101515 114.115839,20.1880852 C81.3349692,19.1399395 63.7245344,6.20987331 63.0084475,5.6285488 C62.6825813,5.27819694 62.2759909,5.01216797 61.8238098,4.85344947 C61.5022784,4.74442062 61.1644432,4.69080481 60.8248243,4.69468771 L60.8248243,10.5081515 L60.8425054,10.4817276 Z" id="Path" fill="#454589"></path><path d="M7.56033152,20.1792773 C6.76167604,20.20381 6.00733684,20.5507317 5.47051193,21.1403882 C4.93368703,21.7300446 4.66049626,22.5117773 4.71366485,23.3060985 C6.27844746,46.832125 10.4688822,66.112721 17.5236649,82.231264 C26.7090272,103.18537 40.827433,118.343847 59.4898967,127.389608 C59.9013479,127.605578 60.359768,127.717492 60.8248243,127.715529 L60.8248243,121.902257 C22.8722156,103.608151 12.661346,61.5149726 10.2567083,25.217423 C41.5523605,24.222125 59.7639547,11.750072 60.8248243,10.4993435 L60.8248243,4.68609249 C60.0092286,4.68445109 59.2301793,5.02302887 58.6765634,5.61974086 C57.9869982,6.16583357 40.3942446,19.1223236 7.56033152,20.1792773 Z" id="Path" fill="#454589"></path><path d="M60.8425054,10.4817276 L60.8425054,10.4817276 L60.8425054,10.4817276 C59.7551141,11.7324561 41.5700417,24.2045091 10.2743895,25.1998071 C12.6790272,61.5149726 22.8898967,103.590536 60.8425054,121.884642 L60.8425054,121.884642 C98.8039547,103.625767 109.014824,61.5149726 111.419462,25.2262309 C80.0088822,24.213317 61.797288,11.6531846 60.8425054,10.4817276 Z" id="Path" fill="url(#linearGradient-5)"></path><path d="M77.9048243,50.7516614 L76.0306214,50.7516614 L76.0306214,45.325966 C76.0306214,36.9687639 69.2306702,30.193913 60.8425054,30.193913 C52.4543406,30.193913 45.6543895,36.9687639 45.6543895,45.325966 L45.6543895,50.7516614 L43.7801866,50.7516614 C41.493734,50.7516562 39.6388299,52.595773 39.6339547,54.8737806 L39.6339547,84.2570919 C39.6339547,86.5385399 41.490286,88.388019 43.7801866,88.388019 L77.9048243,88.388019 C80.1912717,88.3831618 82.0422156,86.5351046 82.0422156,84.2570919 L82.0422156,54.8737806 C82.0373529,52.5992068 80.1878252,50.7565061 77.9048243,50.7516614 Z M50.8526504,45.325966 C50.7443815,41.7010961 52.6235602,38.3044452 55.7576129,36.4601539 C58.8916656,34.6158625 62.7845047,34.6158625 65.9185574,36.4601539 C69.0526101,38.3044452 70.9317888,41.7010961 70.8235199,45.325966 L70.8235199,50.7516614 L50.8526504,50.7516614 L50.8526504,45.325966 Z M62.0271431,78.8754362 L57.7836649,78.8754362 L57.7836649,77.1666945 L59.7020707,77.1666945 L59.7020707,70.5783501 L58.8180127,70.5783501 L58.8180127,68.8696084 L59.7020707,68.8696084 L59.7020707,63.2237144 L59.6401866,63.2237144 C58.8314314,63.0060015 58.1169638,62.5293846 57.6068533,61.8672905 L57.5626504,61.8056349 C57.4503607,61.6611924 57.349847,61.5080329 57.2620707,61.3476217 L57.191346,61.1890786 C57.1234226,61.058095 57.064354,60.9227387 57.0145344,60.783913 C56.9768698,60.677655 56.9473171,60.5687136 56.9261286,60.458019 C56.9261286,60.3611316 56.8642446,60.2642442 56.8465634,60.1673568 C56.8106477,59.9489898 56.7929062,59.7280392 56.7935045,59.5067607 C56.7933,59.2521847 56.8199685,58.9982922 56.8730851,58.7492773 C57.2441695,56.9516324 58.8324649,55.6615318 60.6745344,55.6615318 C62.516604,55.6615318 64.1048993,56.9516324 64.4759837,58.7492773 C64.5247675,58.9989559 64.5513921,59.2524291 64.5555489,59.5067607 C64.5537941,61.1209696 63.5457504,62.5642445 62.0271431,63.1268269 L62.0271431,78.9018601 L62.0271431,78.8754362 Z" id="Shape" fill="#6B6ABA"></path></g><g id="music-server" transform="translate(565.000000, 159.998204)" fill-rule="nonzero"><rect id="Rectangle" fill="#454589" x="-2.50663687e-14" y="0" width="126.179792" height="230.585611" rx="16.09"></rect><path d="M15.0900694,5.66038168 C8.9138384,5.66038168 3.90701389,10.6657015 3.90701389,16.8400763 L3.90701389,213.736718 C3.90701389,219.911092 8.9138384,224.916412 15.0900694,224.916412 L111.133819,224.916412 C117.306606,224.911546 122.308056,219.907651 122.308056,213.736718 L122.308056,186.792595 L15.9808333,5.66038168 L15.0900694,5.66038168 Z" id="Path" fill="url(#linearGradient-6)"></path><path d="M111.133819,5.66038168 L15.9808333,5.66038168 L122.272778,186.792595 L122.272778,16.8400763 C122.272778,10.6828764 117.292822,5.68466086 111.133819,5.66038168 Z" id="Path" fill="url(#linearGradient-7)"></path><rect id="Rectangle" fill="#AEAEF5" x="51.4614583" y="2.00141221" width="23.2745139" height="2.21301527" rx="1.10650763"></rect><path d="M78.6341667,3.10351145 C78.6377401,3.55362015 78.3692702,3.96139856 77.9543203,4.13612871 C77.5393703,4.31085885 77.0599626,4.21800223 76.740316,3.90098787 C76.4206695,3.58397351 76.323968,3.10546494 76.4954388,2.68926062 C76.6669096,2.27305629 77.0726585,2.00141221 77.5229167,2.00141221 C78.1332153,2.00141221 78.629323,2.49341543 78.6341667,3.10351145 Z" id="Path" fill="#AEAEF5"></path><path d="M57.1323611,89.490458 L57.1323611,122.535802 C55.148916,122.87809 53.2591909,123.631951 51.5849306,124.748817 C47.7131944,127.235153 45.5171528,130.726603 46.6901389,132.551679 C47.863125,134.376756 51.9818056,133.838931 55.8182639,131.352595 C58.9403472,129.351183 60.9688194,126.697328 61.0305556,124.784084 L61.0305556,124.784084 L61.0305556,101.631183 L78.6694444,95.9708015 L78.6694444,116.981221 C76.6831458,117.323086 74.7904548,118.076931 73.1131944,119.194237 C69.2414583,121.680573 67.0454167,125.172023 68.2184028,126.997099 C69.3913889,128.822176 73.5100694,128.284351 77.3553472,125.798015 C80.4774306,123.796603 82.5059028,121.133931 82.5588194,119.229504 L82.5588194,119.229504 L82.5588194,81.3172901 L57.1323611,89.490458 Z" id="Path" fill="#6B6ABA"></path></g><g id="calendar" transform="translate(538.000000, 75.998204)" fill-rule="nonzero"><path d="M3.162,14.6845455 L56.1985714,14.6845455 C56.8657046,14.6845455 57.5055137,14.9474906 57.977248,15.4155359 C58.4489824,15.8835813 58.714,16.518387 58.714,17.1803031 L58.714,57.2442424 L3.162,57.2442424 L3.162,14.6845455 Z" id="Path" fill="#AEAEF5"></path><rect id="Rectangle" fill="#454589" x="-5.03470281e-14" y="3.51515154" width="61.8848571" height="18.1381818" rx="5.43"></rect><path d="M9.14057143,11.89 L9.14057143,11.89 C9.51407202,11.89 9.872275,11.7427878 10.1363798,11.4807483 C10.4004846,11.2187088 10.5488571,10.8633071 10.5488571,10.4927273 L10.5488571,1.42363639 C10.5559921,1.04851005 10.4107753,0.686297653 10.1458932,0.418528291 C9.88101115,0.150758928 9.51872173,0 9.14057143,0 L9.14057143,0 C8.36279671,0 7.73228571,0.625580331 7.73228571,1.39727275 L7.73228571,10.4927273 C7.73228571,10.8633071 7.88065825,11.2187088 8.14476305,11.4807483 C8.40886785,11.7427878 8.76707083,11.89 9.14057143,11.89 Z" id="Path" fill="#2F2F89"></path><path d="M51.336,1.42363639 L51.336,10.4927273 C51.3358634,11.2542402 51.9503359,11.8756319 52.7177143,11.89 L52.7177143,11.89 C53.4920279,11.8851681 54.1171582,11.2610008 54.1171429,10.4927273 L54.1171429,1.42363639 C54.1242559,1.05002913 53.9802461,0.689161418 53.7172856,0.421652117 C53.454325,0.154142816 53.0943264,0.00228352122 52.7177143,2.21730806e-08 L52.7177143,2.21730806e-08 C52.3441921,0.00692650822 51.9887495,0.160823981 51.7296137,0.42782216 C51.4704779,0.694820339 51.3288859,1.05303764 51.336,1.42363639 Z" id="Path" fill="#2F2F89"></path><rect id="Rectangle" fill="#454589" x="9.84028571" y="24.4478788" width="4.216" height="4.1830303"></rect><rect id="Rectangle" fill="#454589" x="19.3351429" y="24.4478788" width="4.216" height="4.1830303"></rect><rect id="Rectangle" fill="#454589" x="28.83" y="24.4478788" width="4.216" height="4.1830303"></rect><rect id="Rectangle" fill="#454589" x="38.3248571" y="24.4478788" width="4.216" height="4.1830303"></rect><rect id="Rectangle" fill="#454589" x="47.8197143" y="24.4478788" width="4.216" height="4.1830303"></rect><rect id="Rectangle" fill="#454589" x="9.84028571" y="31.6627273" width="4.216" height="4.1830303"></rect><rect id="Rectangle" fill="#454589" x="19.3351429" y="31.6627273" width="4.216" height="4.1830303"></rect><rect id="Rectangle" fill="#454589" x="28.83" y="31.6627273" width="4.216" height="4.1830303"></rect><rect id="Rectangle" fill="#454589" x="38.3248571" y="31.6627273" width="4.216" height="4.1830303"></rect><rect id="Rectangle" fill="#454589" x="47.8197143" y="31.6627273" width="4.216" height="4.1830303"></rect><rect id="Rectangle" fill="#454589" x="9.84028571" y="38.8687879" width="4.216" height="4.1830303"></rect><rect id="Rectangle" fill="#454589" x="19.3351429" y="38.8687879" width="4.216" height="4.1830303"></rect><rect id="Rectangle" fill="#454589" x="28.83" y="38.8687879" width="4.216" height="4.1830303"></rect><rect id="Rectangle" fill="#454589" x="38.3248571" y="38.8687879" width="4.216" height="4.1830303"></rect><rect id="Rectangle" fill="#454589" x="47.8197143" y="38.8687879" width="4.216" height="4.1830303"></rect><rect id="Rectangle" fill="#454589" x="9.84028571" y="46.0748485" width="4.216" height="4.1830303"></rect><rect id="Rectangle" fill="#454589" x="19.3351429" y="46.0748485" width="4.216" height="4.1830303"></rect><rect id="Rectangle" fill="#454589" x="28.83" y="46.0748485" width="4.216" height="4.1830303"></rect><rect id="Rectangle" fill="#454589" x="38.3248571" y="46.0748485" width="4.216" height="4.1830303"></rect><rect id="Rectangle" fill="#454589" x="47.8197143" y="46.0748485" width="4.216" height="4.1830303"></rect></g><g id="imac" transform="translate(310.000000, 165.998204)" fill-rule="nonzero"><path d="M204.4328,217.165354 C204.173125,216.883368 203.8772,216.637223 203.5528,216.433386 L192.4648,209.316535 L92.7432,209.316535 L81.6552,216.433386 C81.3313407,216.637971 81.0355091,216.884038 80.7752,217.165354 C79.8204374,218.296656 79.6125237,219.882369 80.2432465,221.222448 C80.8739692,222.562528 82.2272278,223.410299 83.7056,223.391496 L201.5112,223.391496 C202.987979,223.406794 204.338055,222.557708 204.966532,221.218378 C205.595009,219.879047 205.386468,218.295441 204.4328,217.165354 L204.4328,217.165354 Z" id="Path" fill="#2F2F89"></path><path d="M285.2344,8.54551181 C285.229543,3.82452978 281.409268,1.25324073e-14 276.6984,1.25324073e-14 L8.536,1.25324073e-14 C3.82513185,1.25324073e-14 0.0048565651,3.82452978 2.50111043e-14,8.54551181 L2.50111043e-14,163.67874 L285.2344,163.67874 L285.2344,8.54551181 Z" id="Path" fill="#2F2F89"></path><polygon id="Path" fill="url(#linearGradient-8)" points="11.9416 10.168189 11.9416 163.943307 244.4024 163.943307 126.6232 10.168189"></polygon><polygon id="Path" fill="url(#linearGradient-9)" points="273.2928 10.168189 126.6232 10.168189 244.4024 163.943307 273.2928 163.943307"></polygon><rect id="Rectangle" fill="#2F2F89" x="114.0392" y="193.857008" width="57.1648" height="15.4066142"></rect><rect id="Rectangle" fill="#252575" x="114.0392" y="193.857008" width="57.1648" height="3.22771654"></rect><path d="M83.732,218.505827 L201.5112,218.505827 C202.638076,218.52881 203.71383,218.035238 204.4328,217.165354 C204.173125,216.883368 203.8772,216.637223 203.5528,216.433386 L192.4648,209.316535 L92.7432,209.316535 L81.6552,216.433386 C81.3313407,216.637971 81.0355091,216.884038 80.7752,217.165354 C81.5027007,218.044025 82.5931591,218.538387 83.732,218.505827 L83.732,218.505827 Z" id="Path" fill="#252575"></path><path d="M8.536,193.83937 L276.6984,193.83937 C281.412703,193.83937 285.2344,190.009466 285.2344,185.285039 L285.2344,163.67874 L2.50111043e-14,163.67874 L2.50111043e-14,185.285039 C2.50111043e-14,190.009466 3.82169738,193.83937 8.536,193.83937 Z" id="Path" fill="#2F2F89"></path><path d="M148.9136,98.2513386 L182.4592,98.2513386 C184.003113,98.3222371 185.46101,97.5371686 186.254115,96.2077997 C187.047221,94.8784307 187.047221,93.219837 186.254115,91.890468 C185.46101,90.5610991 184.003113,89.7760307 182.4592,89.8469291 L148.9136,89.8469291 C147.369687,89.7760307 145.91179,90.5610991 145.118685,91.890468 C144.325579,93.219837 144.325579,94.8784307 145.118685,96.2077997 C145.91179,97.5371686 147.369687,98.3222371 148.9136,98.2513386 Z" id="Path" fill="#6B6ABA"></path><path d="M99.8096,113.834331 C100.595449,114.623823 101.662461,115.06752 102.7752,115.06752 C103.887939,115.06752 104.954951,114.623823 105.7408,113.834331 L126.7112,92.8188976 C128.347066,91.1766993 128.347066,88.517159 126.7112,86.8749606 L105.7408,65.8595276 C104.084794,64.3321896 101.521495,64.3854566 99.9300913,65.9802776 C98.3386877,67.5750987 98.2855349,70.1439021 99.8096,71.8034646 L117.8144,89.8469291 L99.8096,107.890394 C98.1737342,109.532592 98.1737342,112.192132 99.8096,113.834331 Z" id="Path" fill="#6B6ABA"></path></g></g></svg>