<svg xmlns="http://www.w3.org/2000/svg" xmlns:xlink="http://www.w3.org/1999/xlink" viewBox="0 0 4096 442"><style><![CDATA[.B{fill:#055681}.C{fill:#044674}.D{fill:#2f353f}.E{fill:#13b4c5}.F{fill:#39414e}.G{fill:#7acdf5}.H{fill:#1b75bc}.I{fill:#0b5d7f}.J{fill:#20f2f5}.K{fill:#636b76}.L{fill:#045887}.M{fill:#06678f}]]></style><defs><linearGradient x1="50.9279176%" y1="81.4916337%" x2="45.3504077%" y2="23.2074272%" id="A"><stop stop-color="#12d5e0" offset="0%"/><stop stop-color="#4ef9f9" offset="99%"/></linearGradient><linearGradient x1="105.682121%" y1="24.7707812%" x2="17.4077077%" y2="64.7647193%" id="B"><stop stop-color="#12d5e0" offset="0%"/><stop stop-color="#4ef9f9" offset="99%"/></linearGradient><linearGradient x1="-0.0178284899%" y1="50.0134387%" x2="100%" y2="50.0134387%" id="C"><stop stop-color="#12d5e0" offset="0%"/><stop stop-color="#4ef9f9" offset="99%"/></linearGradient><path id="D" d="M1575.22 428.38H1407a5.78 5.78 0 0 1-5.78-5.78V269.5H1581v153.1a5.78 5.78 0 0 1-5.78 5.78h0z"/><path id="E" d="M1404.52 118.8h173.14v4.93h-173.14z"/><path id="F" d="M1404.52 118.8h173.14v1.72h-173.14z"/><path id="G" d="M1535.58 106.92h4.15v2.73h-4.15z"/><path id="H" d="M1569.76 368.8h-152.88a1.58 1.58 0 0 1-1.55-1.6v-3.37a1.58 1.58 0 0 1 1.55-1.6h152.88a1.58 1.58 0 0 1 1.55 1.6v3.37a1.58 1.58 0 0 1-1.55 1.6h0z"/><path id="I" d="M1640.43 281.58h58.48v2.9h-58.48z"/></defs><ellipse fill="#078aab" cx="1618.14" cy="430.94" rx="418.14" ry="10.4"/><path d="M1418.35 0l-10.76 42.7-20.9-6.65 18.64-22.74-24.06 21.1-19.54-6.1zm-25.45 41.43l-6.9 9.7V39.4z" class="J"/><path d="M1367.47 78.44l2.94-4.42 2.62 1.73-2.96 4.44zm7.88-6.22l-2.63-1.72 2.87-4.45 2.65 1.7zm5.27-14.22l2.68 1.64-2.8 4.54-2.67-1.67zM1351 101.78l3.13-4.28 2.54 1.85-3.15 4.3zm8.14-5.86l-2.55-1.83 3.07-4.32 2.57 1.8zm5.92-13.95l2.6 1.78-3.02 4.4-2.58-1.8zm-28.36 38.16l2.44 2-3.4 4.12-2.4-2.02zm2.65-3.27l3.3-4.15 2.48 1.94-3.32 4.18zm5.85-7.46l3.2-4.2 2.5 1.9-3.24 4.24zm-31.07 35.9l3.7-3.78 2.26 2.18-3.75 3.82zm6.6-6.8l3.58-3.9 2.33 2.1-3.62 3.93zm9.83-11.02l2.4 2.04-3.5 4.04-2.36-2.08zm-31.76 35.75l-4.3 3.24-1.84-2.55 4.2-3.16 1.94 2.47zm7.43-6.16l-.86.73 1.84 2.7-2.6 1.75-1.63-2.4-.83.7-2-2.42 4-3.43 2.1 2.36zm1-5.15l3.85-3.62 2.18 2.26-3.9 3.68-2.13-2.32zm-34.7 22.98l1 3-2.64.83-2.7.68-.67-3.07c.85-.15 1.67-.4 2.5-.63l2.5-.8zm10.03-.97c-1.6.87-3.26 1.62-4.93 2.36l-1.24-2.9 4.7-2.26 1.46 2.8zm8.34-4.93l-4.6 2.88-1.6-2.7 4.45-2.8 1.74 2.6zm-44.98 4.16l-1.66 2.67a32.63 32.63 0 0 1-4.52-3.38l2.08-2.36a29.21 29.21 0 0 0 4.1 3.07h0zm8.43 3.4l-.65 3.08a29.4 29.4 0 0 1-5.44-1.72l1.24-2.92a25.55 25.55 0 0 0 4.85 1.56h0zm9.1.44l.32 3.13a35.35 35.35 0 0 1-5.64.13l.2-3.14a31.31 31.31 0 0 0 5.12-.12zm-35.97-24.82l-2.66 1.67-2.76-4.66 2.74-1.52 2.68 4.5zm5.4 7.75l-2.5 1.9-3.18-4.38 2.6-1.78 3.1 4.26zm5.98 7.25l-2.34 2.1-3.5-4.1 2.43-2 3.42 4zm-22.06-40.9l-3.1.56a43.81 43.81 0 0 1-.69-5.49l3.13-.2a44.57 44.57 0 0 0 .65 5.14zm2.42 9.03l-3 1-1.6-5.24 3-.8 1.6 5.03zm3.64 8.62l-2.82 1.4-2.26-5 2.9-1.2 2.18 4.8zm-1.28-45.3a18 18 0 0 1 5.4-2.47l.82 3a15 15 0 0 0-4.47 2l-1.75-2.53zm-6.54 8.26a21 21 0 0 1 3-5.07l2.4 2a18 18 0 0 0-2.46 4.29l-2.94-1.22zm1.06 10.12l-3.12-.17a29.82 29.82 0 0 1 .72-5.61l3.06.68a26.85 26.85 0 0 0-.66 5.1h0zm33.2-13.2l1.5-2.75 4.7 2.8-1.7 2.64-4.48-2.7zm-8.52-3.73l1-3a50.31 50.31 0 0 1 5.17 2l-1.35 2.93a47.12 47.12 0 0 0-4.82-1.93h0zm-8.97-1.4l-.1-3.14a26.43 26.43 0 0 1 5.71.47l-.58 3.1a23.19 23.19 0 0 0-5.04-.42zm41.97 20.24l3.78 3.83-2.27 2.17-3.7-3.76 2.2-2.24zm-3.08-2.96l-2.14 2.3-3.93-3.52 2.06-2.38 4 3.6zm-7.28-6.34l-2 2.46-4.18-3.2 1.84-2.55 4.34 3.28zm26.96 32.9l2.48-1.94 3.25 4.25-2.5 1.9-3.22-4.2zm-.16-5.26l-2.45 2-3.36-4.1 2.4-2 3.4 4.1zM1278.2 128l2.32-2.1 3.57 4-2.37 2.06zm34.25 40.5l-2.65 1.7-2.88-4.45 2.63-1.72zm-13.75-20.2l3.12 4.34-2.57 1.8-3.1-4.3zm30.53 43.04l-2.4 2.04-3.33-4.18 2.45-1.97zm-5.88-7.34l-2.5 1.9-3.23-4.25 2.54-1.85c.94 1.46 2.1 2.77 3.18 4.2zm-5.53-7.64l-2.57 1.8-3.02-4.4 2.62-1.74zm31.32 35.06l-2 2.38-3.95-3.6 2.1-2.33 3.84 3.55zm-6.94-6.42l-2.2 2.3-3.85-3.7 2.23-2.2c1.2 1.3 2.62 2.42 3.83 3.6zm-6.6-6.63l-2.3 2.15-3.63-3.93 2.35-2.08zm36.54 29.43l-1.6 2.7-4.6-2.74 1.7-2.65c1.43 1 3 1.78 4.5 2.7zm-7.94-5.04l-1.76 2.6-4.42-3 1.84-2.55zm-7.65-5.43l-1.9 2.5-4.18-3.34 1.98-2.44zM1397.6 240l-1.1 2.94-4.96-2 1.2-2.9zm-8.74-3.5l-1.28 2.87-4.8-2.33 1.36-2.83zm-8.44-4.1l-1.42 2.8a52 52 0 0 1-4.7-2.55l1.53-2.75a48.71 48.71 0 0 0 4.59 2.5h0zm44.35 15.32l-.6 3.08-5.24-1.07.7-3.06c1.7.44 3.43.7 5.14 1.05zm-9.17-2.1l-.78 3.05-5.18-1.34.87-3.02zm-9.04-2.56l-.94 3-5.1-1.65 1.04-2.97zm46.3 8.2l-.17 3.13c-1.78 0-3.55-.26-5.33-.4l.25-3.13 5.25.4zm-9.4-.74l-.3 3.13c-1.78-.1-3.54-.38-5.3-.62l.4-3.1 5.22.6zm-9.33-1.16l-.46 3.1-5.27-.85.54-3.1c1.72.37 3.46.6 5.2.83zm47.32 4.74l-5.33.28-.16-3.13 5.26-.28zm-9.56.5l-5.34.06-.03-3.14 5.27-.06zm-9.52-3.04l-.03 3.15-5.34-.17.1-3.14zm47.58-1.1l-5.26.88-.5-3.1 5.2-.87.56 3.1zm-9.44 1.56l-5.3.68-.4-3.12 5.23-.67zm-9.46 1.2l-5.32.5-.28-3.13 5.25-.48zm46.86-9.33l-5.14 1.44-.8-3.03 5.08-1.43zm-9.23 2.5l-5.2 1.26-.7-3.06 5.13-1.24.77 3.04zm-9.27 2.17l-5.23 1.08-.6-3.1 5.17-1.06.67 3.07zm45.67-14.05l-5 2-1.07-2.94 4.87-2 1.2 2.94zm-8.93 3.48l-5.03 1.78-1-2.97 4.96-1.76zm-9.02 3.1l-5.1 1.6-.9-3 5-1.58 1 3z" class="E"/><use xlink:href="#D" class="F"/><g class="D"><rect x="1410.87" y="383.51" width="160.45" height="6.56" rx="1.59"/><rect x="1410.87" y="362.24" width="160.45" height="6.56" rx="1.59"/><rect x="1410.87" y="404.77" width="160.45" height="6.56" rx="1.59"/></g><rect x="1400.09" y="84.67" width="181.99" height="34.12" rx="3.49" class="F"/><use xlink:href="#E" class="K"/><g class="D"><use xlink:href="#F"/><rect x="1438.67" y="87.36" width="137.07" height="23.76" rx="1.59"/></g><rect x="1535.51" y="89.1" width="36.72" height="15.4" rx="1.43" class="G"/><g class="H"><use xlink:href="#G"/><use xlink:href="#G" x="21.62"/><use xlink:href="#G" x="10.82"/><use xlink:href="#G" x="32.44"/></g><rect x="1400.09" y="123.85" width="181.99" height="34.12" rx="3.49" class="F"/><use xlink:href="#E" y="39.18" class="K"/><g class="D"><use xlink:href="#F" y="39.18"/><rect x="1438.67" y="126.55" width="137.07" height="23.76" rx="1.59"/></g><rect x="1535.51" y="128.28" width="36.72" height="15.4" rx="1.43" class="G"/><g class="H"><use xlink:href="#G" y="39.18"/><use xlink:href="#G" x="21.62" y="39.18"/><use xlink:href="#G" x="10.82" y="39.18"/><use xlink:href="#G" x="32.44" y="39.18"/></g><rect x="1400.09" y="163.03" width="181.99" height="34.12" rx="3.49" class="F"/><use xlink:href="#E" y="78.37" class="K"/><g class="D"><use xlink:href="#F" y="78.37"/><rect x="1438.67" y="165.73" width="137.07" height="23.76" rx="1.59"/></g><rect x="1535.51" y="167.47" width="36.72" height="15.4" rx="1.43" class="G"/><g class="H"><use xlink:href="#G" y="78.38"/><use xlink:href="#G" x="21.62" y="78.38"/><use xlink:href="#G" x="10.82" y="78.38"/><use xlink:href="#G" x="32.44" y="78.38"/></g><rect x="1400.09" y="202.21" width="181.99" height="34.12" rx="3.49" class="F"/><use xlink:href="#E" y="117.55" class="K"/><g class="D"><use xlink:href="#F" y="117.55"/><rect x="1438.67" y="204.91" width="137.07" height="23.76" rx="1.59"/></g><rect x="1535.51" y="206.65" width="36.72" height="15.4" rx="1.43" class="G"/><g class="H"><use xlink:href="#G" y="117.55"/><use xlink:href="#G" x="21.62" y="117.55"/><use xlink:href="#G" x="10.82" y="117.55"/><use xlink:href="#G" x="32.44" y="117.55"/></g><use xlink:href="#F" y="156.73" class="D"/><rect x="1400.09" y="241.4" width="181.99" height="34.12" rx="3.49" class="F"/><rect x="1438.67" y="244.1" width="137.07" height="23.76" rx="1.59" class="D"/><rect x="1535.51" y="245.83" width="36.72" height="15.4" rx="1.43" class="G"/><g class="H"><use xlink:href="#G" y="156.73"/><use xlink:href="#G" x="21.62" y="156.73"/><use xlink:href="#G" x="10.82" y="156.73"/><use xlink:href="#G" x="32.44" y="156.73"/></g><rect fill="#fbb040" x="1457.64" y="304.05" width="66.9" height="12.95" rx="3.15"/><rect x="1464.08" y="307.82" width="53.74" height="4.98" rx="1.07" class="D"/><rect fill="#fbb040" x="1457.64" y="328.87" width="66.9" height="12.95" rx="3.15"/><rect x="1464.08" y="332.64" width="53.74" height="4.98" rx="1.07" class="D"/><use xlink:href="#D" class="B"/><g class="C"><path d="M1569.76 390.07h-152.88a1.57 1.57 0 0 1-1.55-1.59v-3.38a1.57 1.57 0 0 1 1.55-1.59h152.88a1.57 1.57 0 0 1 1.55 1.59v3.38a1.57 1.57 0 0 1-1.55 1.59z"/><use xlink:href="#H"/><use xlink:href="#H" y="42.54"/></g><rect x="1400.09" y="84.67" width="181.99" height="34.12" rx="3.49" class="B"/><use xlink:href="#E" class="C"/><use xlink:href="#F" class="B"/><rect x="1438.67" y="87.36" width="137.07" height="23.76" rx="1.59" class="C"/><g class="E"><rect x="1535.51" y="89.1" width="36.72" height="15.4" rx="1.43"/><use xlink:href="#G"/><use xlink:href="#G" x="21.62"/><use xlink:href="#G" x="10.82"/><use xlink:href="#G" x="32.44"/></g><rect x="1400.09" y="123.85" width="181.99" height="34.12" rx="3.49" class="B"/><use xlink:href="#E" y="39.18" class="C"/><use xlink:href="#F" y="39.18" class="B"/><rect x="1438.67" y="126.55" width="137.07" height="23.76" rx="1.59" class="C"/><g class="E"><rect x="1535.51" y="128.28" width="36.72" height="15.4" rx="1.43"/><use xlink:href="#G" y="39.18"/><use xlink:href="#G" x="21.62" y="39.18"/><use xlink:href="#G" x="10.82" y="39.18"/><use xlink:href="#G" x="32.44" y="39.18"/></g><rect x="1400.09" y="163.03" width="181.99" height="34.12" rx="3.49" class="B"/><use xlink:href="#E" y="78.37" class="C"/><use xlink:href="#F" y="78.37" class="B"/><rect x="1438.67" y="165.73" width="137.07" height="23.76" rx="1.59" class="C"/><g class="E"><rect x="1535.51" y="167.47" width="36.72" height="15.4" rx="1.43"/><use xlink:href="#G" y="78.38"/><use xlink:href="#G" x="21.62" y="78.38"/><use xlink:href="#G" x="10.82" y="78.38"/><use xlink:href="#G" x="32.44" y="78.38"/></g><rect x="1400.09" y="202.21" width="181.99" height="34.12" rx="3.49" class="B"/><use xlink:href="#E" y="117.55" class="C"/><use xlink:href="#F" y="117.55" class="B"/><rect x="1438.67" y="204.91" width="137.07" height="23.76" rx="1.59" class="C"/><g class="E"><rect x="1535.51" y="206.65" width="36.72" height="15.4" rx="1.43"/><use xlink:href="#G" y="117.55"/><use xlink:href="#G" x="21.62" y="117.55"/><use xlink:href="#G" x="10.82" y="117.55"/><use xlink:href="#G" x="32.44" y="117.55"/></g><use xlink:href="#F" y="156.73" class="C"/><rect x="1400.09" y="241.4" width="181.99" height="34.12" rx="3.49" class="B"/><rect x="1438.67" y="244.1" width="137.07" height="23.76" rx="1.59" class="C"/><g class="E"><rect x="1535.51" y="245.83" width="36.72" height="15.4" rx="1.43"/><use xlink:href="#G" y="156.73"/><use xlink:href="#G" x="21.62" y="156.73"/><use xlink:href="#G" x="10.82" y="156.73"/><use xlink:href="#G" x="32.44" y="156.73"/><rect x="1457.64" y="304.05" width="66.9" height="12.95" rx="3.15"/></g><rect x="1464.08" y="307.82" width="53.74" height="4.98" rx="1.07" class="B"/><rect x="1457.64" y="328.87" width="66.9" height="12.95" rx="3.15" class="E"/><rect x="1464.08" y="332.64" width="53.74" height="4.98" rx="1.07" class="B"/><path d="M1385.32 156a.94.94 0 0 0-.82-1l-6.52-.72a18.2 18.2 0 0 0-1.62-3.91l4.1-5.12a.93.93 0 0 0-.14-1.3 39.4 39.4 0 0 1-4.79-4.79.94.94 0 0 0-1.3-.14l-5.1 4.1a19 19 0 0 0-3.92-1.62l-.72-6.52a.93.93 0 0 0-1-.82 38.38 38.38 0 0 1-6.78 0 .93.93 0 0 0-1 .82l-.72 6.52a18.72 18.72 0 0 0-3.91 1.62l-5.12-4.1a.94.94 0 0 0-1.3.14 39.4 39.4 0 0 1-4.79 4.79.93.93 0 0 0-.14 1.3l4.1 5.12a18.72 18.72 0 0 0-1.62 3.91l-6.52.72a.94.94 0 0 0-.82 1 38.38 38.38 0 0 1 0 6.78.93.93 0 0 0 .82 1l6.52.72a19 19 0 0 0 1.62 3.92l-4.1 5.1a.93.93 0 0 0 .14 1.3 40.13 40.13 0 0 1 4.79 4.79.93.93 0 0 0 1.3.14l5.12-4.1a18.2 18.2 0 0 0 3.91 1.62l.72 6.52a.93.93 0 0 0 1 .82 38.38 38.38 0 0 1 6.78 0 .93.93 0 0 0 1-.82l.72-6.52a18.5 18.5 0 0 0 3.92-1.62l5.1 4.1a.93.93 0 0 0 1.3-.14 40.13 40.13 0 0 1 4.79-4.79.93.93 0 0 0 .14-1.3l-4.1-5.1a18.5 18.5 0 0 0 1.62-3.92l6.52-.72a.93.93 0 0 0 .82-1 38.38 38.38 0 0 1 0-6.78h0zm-25.24 14.13a10.74 10.74 0 0 1-7.608-18.331 10.74 10.74 0 0 1 18.338 7.591 10.73 10.73 0 0 1-10.73 10.74h0z" class="I"/><path d="M1821 243.22a7.34 7.34 0 0 0-7.34-7.34H1583a7.34 7.34 0 0 0-7.34 7.34v133.12H1821V243.22z" class="L"/><path fill="url(#A)" d="M1585.97 244.6v131.97h199.9L1684.6 244.6z"/><path fill="url(#B)" d="M1810.74 244.6H1684.6l101.28 131.97h24.86z"/><g class="L"><path d="M1583 402.23h230.66a7.33 7.33 0 0 0 7.34-7.34v-18.55h-245.3v18.55a7.34 7.34 0 0 0 7.3 7.34h0z"/><path d="M1850.34 413.12a9.5 9.5 0 0 0-2.09-1.8L1821 393.85h-245.3l-27.26 17.47a10 10 0 0 0-2.09 1.8 9.28 9.28 0 0 0 7.2 15.26h289.6a9.28 9.28 0 0 0 7.19-15.26z"/></g><path d="M1553.56 416.4h289.6a9.15 9.15 0 0 0 7.19-3.29 9.5 9.5 0 0 0-2.09-1.8L1821 393.85h-245.3l-27.26 17.47a10 10 0 0 0-2.09 1.8 9.17 9.17 0 0 0 7.2 3.29h0z" class="C"/><path d="M1603.6 294.38V280a3.18 3.18 0 0 1 3.18-3.18h18a3.17 3.17 0 0 1 2.86 1.79l1.8 3.68a3.19 3.19 0 0 0 2.87 1.79h44.13a3.19 3.19 0 0 1 3.19 3.18v7.1l-76.02.03z" class="M"/><path fill="#4ef9f9" d="M1636.03 265.1h67.3v89.64h-67.3z"/><g class="M"><use xlink:href="#I"/><use xlink:href="#I" y="9.7"/></g><g fill="#2e3192"><use xlink:href="#I" y="19.39"/><use xlink:href="#I" y="29.08"/><use xlink:href="#I" y="38.77"/><use xlink:href="#I" y="48.46"/></g><use xlink:href="#I" y="-9.68" class="M"/><use xlink:href="#I" y="58.15" fill="#2e3192"/><path d="M1699.8 300h-91.44a6.93 6.93 0 0 0-6.94 6.94v61a6.85 6.85 0 0 0 0 .79h105.27a6.9 6.9 0 0 0 .05-.79V307a6.94 6.94 0 0 0-6.94-7h0z" fill="#0a8fae"/><path d="M1617.47 51.36h0a6.19 6.19 0 0 1 6.12-6.12h0a6.19 6.19 0 0 1-6.13-6.15h0a6.2 6.2 0 0 1-6.12 6.12h0a6.19 6.19 0 0 1 6.13 6.15zm.15 3.94h0a10.83 10.83 0 0 1-10.7 10.72h0a10.82 10.82 0 0 1 10.72 10.75h0c.054-5.892 4.818-10.656 10.7-10.7h0c-5.9-.06-10.682-4.85-10.72-10.76zm-4.44-2.5c-10.334-.098-18.676-8.475-18.73-18.8l-.07.06c-.087 10.302-8.408 18.637-18.7 18.74h0c10.327.104 18.66 8.473 18.72 18.8l.06-.07c.114-10.286 8.424-18.596 18.7-18.7l.02-.01zm172.02 141.87h0a6.2 6.2 0 0 1 6.12-6.13h0a6.19 6.19 0 0 1-6.13-6.15h0a6.19 6.19 0 0 1-6.12 6.12h0a6.19 6.19 0 0 1 6.13 6.16h0zm.14 3.95h0a10.83 10.83 0 0 1-10.7 10.72h0c5.912.05 10.687 4.838 10.72 10.75h0a10.8 10.8 0 0 1 10.7-10.7h0c-5.9-.06-10.682-4.85-10.72-10.76zm-4.44-2.5c-10.32-.103-18.65-8.46-18.72-18.78l-.07.06c-.113 10.288-8.423 18.6-18.7 18.72h0c10.323.098 18.66 8.457 18.73 18.78l.07-.07c.108-10.288 8.422-18.602 18.7-18.7h-.01z" class="J"/><path d="M1638.22 161.46h0c-13.63 0-24.68 11.05-24.68 24.68v24.25a8.64 8.64 0 0 0 7 8.49 3.53 3.53 0 0 0 2.76-.63l4.3-3.12a4.83 4.83 0 0 1 5.57-.1l3.32 2.24a4.56 4.56 0 0 0 5.21-.09l3-2.13a4.62 4.62 0 0 1 5.91.42l1.88 1.82a4.94 4.94 0 0 0 5.49 1 8.66 8.66 0 0 0 5-7.85v-24.3a24.68 24.68 0 0 0-24.75-24.68zm-6.7 26.16a4.41 4.41 0 0 1-8.81 0v-5a4.41 4.41 0 0 1 8.81 0v5zm22.2 0a4.41 4.41 0 0 1-8.81 0v-5a4.41 4.41 0 0 1 8.81 0v5z" class="I"/><path d="M1900.42 362.7l-31.52 54.6a7.39 7.39 0 0 0 6.4 11.09h63a7.4 7.4 0 0 0 6.41-11.09l-31.48-54.6a7.4 7.4 0 0 0-12.81 0h0z" class="L"/><path d="M1906.74 424a4.63 4.63 0 0 1-4.73-5 4.72 4.72 0 0 1 4.73-5 4.85 4.85 0 0 1 4.9 5 4.76 4.76 0 0 1-4.9 5h0zm-.07-52.65c2.1 0 4.42.47 4.5 2.64a25.26 25.26 0 0 1-.23 3l-2.72 29.2h-3c-.7-9.24-2.1-22.83-2.72-29.12-.07-1-.23-2.4-.23-3.18-.03-2 2.22-2.56 4.4-2.56v.02zm-49.4-247.55a6 6 0 1 0 8.37.29c1.72-2.77 3.66-4.48 4.43-4.3l.52-2.34c-2.78-.6-5.6 3.22-6.9 5.26a6.1 6.1 0 0 0-2.38-.49 6 6 0 0 0-2 .35c-1.34-2.08-4.1-5.7-6.82-5.1l.52 2.33c.76-.17 2.6 1.4 4.27 4zm7.62 4.4a3.59 3.59 0 1 1-3.59-3.58 3.58 3.58 0 0 1 3.59 3.58h0zm21.25 37.06l-4.42-14.68h-5.32a30.55 30.55 0 0 0-.7-5.07h4.93l2.7 2.7a3 3 0 1 0 2.6-1.51 2.7 2.7 0 0 0-.63.07l-3.66-3.65h-6.55l-.53-1.57-1-2.4c7.3-5.62 7.3-5.8 7.3-6.5v-6.74a3 3 0 1 0-2.39.14v6.14l-6.1 4.86a16.11 16.11 0 0 0-3.88-4.34l-1-.78-.7 1.08a6.42 6.42 0 0 1-10.84 0l-.68-1.08-1 .76a15.65 15.65 0 0 0-3.67 4l-5.55-4.42v-6.14a3 3 0 1 0-2.39-.13v6.75c0 .7 0 .87 6.73 6a26.36 26.36 0 0 0-1.74 4.42h-5.77l-3.65 3.66a2.59 2.59 0 0 0-.63-.07 3 3 0 1 0 2.59 1.49l2.68-2.7h4.17a30.08 30.08 0 0 0-.65 5.08h-4.6l-4.38 14.7a3 3 0 1 0 2.32.57l3.73-12.9h2.85a15 15 0 0 0 9.7 12.78h0l2.4.74v-.1a15.07 15.07 0 0 0 6 0v.1l2.43-.8a15 15 0 0 0 9.52-12.73h3.58l3.88 12.86a3 3 0 1 0 2.32-.57v-.03zm.67-15.6a.9.9 0 1 1-.9-.89.9.9 0 0 1 .9.89zm-7.36-27.33a.9.9 0 1 1 0 1.8.9.9 0 0 1 0-1.8h0zm-35.58 0a.9.9 0 1 1-.89.9.89.89 0 0 1 .89-.85v-.05zm-6.4 28.24a.9.9 0 1 1 .9-.89.89.89 0 0 1-.9.94v-.05zm.33 18.53a.9.9 0 1 1 .89-.9.9.9 0 0 1-.89.95v-.05zm20.63-5.1v-18.5h6v18.45a12.82 12.82 0 0 1-6 .04h0zm8.36-.9v-20H1856v20.06a12.61 12.61 0 0 1-7.41-11.53c0-7.48 3-13.46 6-16.34a8.82 8.82 0 0 0 13.25 0c4 3.76 6.12 10.83 6.12 16.26a12.64 12.64 0 0 1-7.17 11.57v-.02zm18.83 6a.9.9 0 1 1 .9-.9.89.89 0 0 1-.9.91h0zm-382.26-139h11.12a30.07 30.07 0 0 1 2.54 11h-12.77a77.59 77.59 0 0 0-.89-11zm-4.86-15.53a29.39 29.39 0 0 1 14.9 13.34H1503a46.36 46.36 0 0 0-4.51-13.34h0zm-9.32 13.34V12.6a29.71 29.71 0 0 1 6.65 1.08 45.06 45.06 0 0 1 5 14.25h-11.65zM1475 54.28a75.57 75.57 0 0 1-.91-11h12.9v11h-12zm0-24.17h12v11h-12.9a77.46 77.46 0 0 1 .89-11h0zm5.4-16.5a28.4 28.4 0 0 1 6.62-1v15.3h-11.66a45 45 0 0 1 5.04-14.3h0zm-17.9 14.3a29.37 29.37 0 0 1 15.26-13.43 46.7 46.7 0 0 0-4.54 13.43h-10.72zm9.5 13.18h-13a30 30 0 0 1 2.49-11h11.44a77.48 77.48 0 0 0-.93 11h0zm.93 13.18h-11.44a29.76 29.76 0 0 1-2.58-11h13a75.59 75.59 0 0 0 .97 11h.05zm.34 2.2a46 46 0 0 0 4.59 13.46 29.27 29.27 0 0 1-15.28-13.46h10.7zm13.8 0V71.8a28.32 28.32 0 0 1-6.55-1 44 44 0 0 1-5.06-14.32h11.6zm13.78 0a44.66 44.66 0 0 1-5 14.27 29.22 29.22 0 0 1-6.59 1V56.47h11.6zm-11.68-13.18h12.9a77.12 77.12 0 0 1-.91 11h-12v-11zm12.92-2.2h-12.92v-11h12a77.36 77.36 0 0 1 .92 11h0zm2.15 2.2H1517a30 30 0 0 1-2.57 11h-11.1a78.61 78.61 0 0 0 .91-11zm9.13 13.18a29.2 29.2 0 0 1-14.94 13.37 45.51 45.51 0 0 0 4.57-13.37h10.37z" class="J"/><path d="M1988.88 150.64a.38.38 0 0 1 0-.1v-6.22l-.12.08a.91.91 0 0 1-.16.11h0l-.17.1h-.05l-.12.07h-.06l-.12.06h-.06l-.14.08-.18.1-.15.07h-.07l-.13.06h-.07l-.13.05h-.06l-.16.06-.2.07-.15.05h-.45l-.2.06a35.55 35.55 0 0 1-17.47 0l-.2-.06h-.46l-.14-.05h-.05l-.2-.07-.16-.06h-.06l-.14-.05h-.06l-.13-.06h-.07l-.15-.07-.18-.1-.14-.08h-.06l-.12-.06h-.06l-.12-.07-.16-.1a.91.91 0 0 1-.16-.11h0l-.1-.08v6.22a.38.38 0 0 1 0 .1.49.49 0 0 0 0 .12c0 .75 1.25 1.6 3.27 2.24a34.3 34.3 0 0 0 17.31 0c2-.63 3.27-1.5 3.27-2.24-.5-.05-.52-.1-.52-.13zm0-8.5a.28.28 0 0 1 0-.09v-6.22l-.1.1-.32.2h-.05l-.12.07h-.06l-.12.07h-.06l-.32.16-.15.07h-.07l-.13.06h-.07l-.13.06h-.06l-.16.07-.2.07-.15.05h-.45l-.2.05a35.23 35.23 0 0 1-17.47 0l-.2-.05h-.46l-.13-.05h-.06l-.2-.07h-.05l-.15-.06h-.07l-.12-.05h-.08l-.12-.05h-.07l-.14-.06-.18-.08h-.06l-.12-.07h-.07a.41.41 0 0 1-.11-.07h-.07l-.1-.07h-.07l-.14-.1-.16-.1a.39.39 0 0 1-.1-.08h0v6.1a.28.28 0 0 1 0 .09.53.53 0 0 0 0 .12v.06a.17.17 0 0 1 0 .07c.05.28.45 1.28 3.5 2.18a34.33 34.33 0 0 0 16.85 0c3-.9 3.44-1.9 3.5-2.18h0a.17.17 0 0 1 0-.07v-.06s-.42-.04-.42-.08zm-3.26-18.76a34 34 0 0 0-17.31 0c-2 .63-3.27 1.48-3.27 2.23h0v.46h.95l.1.05h.48l.12.05h.57l.17.06h.1l.27.08a34.33 34.33 0 0 0 16.85 0l.27-.08h.1l.17-.06h.57l.12-.05h.48l.1-.05a.2.2 0 0 0 .08 0h.77v-.4c1.62-.8.36-1.66-1.65-2.3zm3.26 10.43a.28.28 0 0 1 0-.09v-6.23l-.12.08a.91.91 0 0 1-.16.11h0l-.17.1h-.05l-.12.07h-.06l-.2.17h-.06l-.32.16-.15.07h-.27l-.13.05h-.06l-.16.06-.2.07h-.4l-.13.05h-.06l-.2.06a35.55 35.55 0 0 1-17.47 0l-.2-.06h-.2l-.13-.05h-.46l-.2-.07-.16-.06h-.06l-.14-.05h-.26l-.15-.07-.32-.16h-.06l-.12-.06h-.06l-.12-.07-.16-.1a.91.91 0 0 1-.16-.11h0l-.1-.08v6.23a.28.28 0 0 1 0 .09v.42h.35l.06.05h.2a.2.2 0 0 1 .08 0h.43l.1.05h.5l.13.05h.1l.14.05h.1l.17.06h.1l.27.1a34.65 34.65 0 0 0 16.85 0l.27-.1h.1l.17-.06h.1l.14-.05h.1l.13-.05h.5l.1-.05h.35a.2.2 0 0 1 .08 0h.3l.06-.05h.25V134l1.32-.2zm-21.64-.63a1 1 0 1 1 0-2 1 1 0 1 1 0 2z" class="I"/><path d="M1874.06 216.9h-.5v-4.3c0-6.627-5.373-12-12-12s-12 5.373-12 12v4.3h-.5a4.25 4.25 0 0 0-4.26 4.26v21.34a4.25 4.25 0 0 0 4.26 4.26h25a4.26 4.26 0 0 0 4.26-4.26v-21.34a4.26 4.26 0 0 0-4.27-4.26zm-20.4-4.3a7.9 7.9 0 0 1 11.926-7.075 7.9 7.9 0 0 1 3.864 7.075v4.3h-15.8v-4.3zm9.1 26.63h-3.35v-1.35h1.52v-5.23h-.68v-1.35h.68v-4.5a3 3 0 0 1-1.61-1.07v-.05a3.75 3.75 0 0 1-.24-.36l-.06-.13a3.27 3.27 0 0 1-.14-.33c0-.08 0-.16-.07-.25l-.06-.23a3 3 0 0 1 0-.52 3.08 3.08 0 0 1 .06-.61 3.62 3.62 0 0 1 .17-.56 3.07 3.07 0 0 1 5.67 0 3.62 3.62 0 0 1 .17.56 3.07 3.07 0 0 1-1.94 3.48v12.52l-.12-.03z" class="J"/><g class="I"><ellipse cx="1763.19" cy="313.81" rx="6.43" ry="6.55"/><path d="M1752.6 304.2a1.57 1.57 0 0 0 0 2.2 1.5 1.5 0 0 0 2.16 0 11.58 11.58 0 0 1 16.57 0 1.49 1.49 0 0 0 1.08.46 1.48 1.48 0 0 0 1.08-.46 1.57 1.57 0 0 0 0-2.2 14.59 14.59 0 0 0-20.89 0h0zM1763 292a20.51 20.51 0 0 0-14.74 6.22 1.57 1.57 0 0 0 0 2.2 1.5 1.5 0 0 0 2.16 0 17.54 17.54 0 0 1 25.15 0 1.51 1.51 0 0 0 2.17 0 1.57 1.57 0 0 0 0-2.2A20.52 20.52 0 0 0 1763 292h0zm18.16.18a25.3 25.3 0 0 0-36.25 0 1.57 1.57 0 0 0 0 2.2 1.52 1.52 0 0 0 2.17 0 22.27 22.27 0 0 1 31.92 0 1.5 1.5 0 0 0 2.16 0 1.57 1.57 0 0 0 0-2.2h0zm164.64-6.26h6.56a17.77 17.77 0 0 1 1.5 6.48h-7.53a45 45 0 0 0-.53-6.48zm-2.8-9.16a17.35 17.35 0 0 1 8.79 7.87h-6.2a27.62 27.62 0 0 0-2.6-7.87zm-5.5 7.87v-9a17.35 17.35 0 0 1 3.92.63 26.32 26.32 0 0 1 3 8.41l-6.92-.04zm-8.34 15.54a46.13 46.13 0 0 1-.54-6.48h7.6v6.48h-7.07zm0-14.25h7.08v6.48h-7.6a44.88 44.88 0 0 1 .47-6.48h.06zm3.18-9.72a16.2 16.2 0 0 1 3.9-.61v9h-6.87a26.39 26.39 0 0 1 2.91-8.39h.06zm-10.56 8.43a17.27 17.27 0 0 1 9-7.92 27.16 27.16 0 0 0-2.68 7.92h-6.32zm5.58 7.77h-7.7a17.69 17.69 0 0 1 1.47-6.48h6.74a46.61 46.61 0 0 0-.58 6.48h.06zm.54 7.77h-6.7a17.65 17.65 0 0 1-1.53-6.48h7.7a44.67 44.67 0 0 0 .48 6.48h.06zm.2 1.3a27.25 27.25 0 0 0 2.71 7.94 17.25 17.25 0 0 1-9-7.94h6.3zm8.14 0v9a16.44 16.44 0 0 1-3.86-.59 26 26 0 0 1-3-8.45l6.86.04zm8.13 0a26.42 26.42 0 0 1-3 8.42 17.25 17.25 0 0 1-3.89.6v-9l6.9-.02zm-6.86-7.77h7.6a46.24 46.24 0 0 1-.53 6.48h-7.08v-6.48zm7.62-1.3h-7.62v-6.48h7.1a44.9 44.9 0 0 1 .47 6.48h.06zm1.27 1.3h7.5a17.49 17.49 0 0 1-1.52 6.48h-6.6a46.13 46.13 0 0 0 .54-6.48h.06zm5.38 7.77a17.19 17.19 0 0 1-8.81 7.89 26.69 26.69 0 0 0 2.68-7.89h6.13z"/></g><path d="M1976 113.45a26 26 0 0 0-19 43.74l-64.66 51.72a36.45 36.45 0 0 0-53.78-10.38l-61.5-44.53c9.013-17.703 2.273-39.363-15.193-48.826s-39.292-3.28-49.2 13.94-4.284 39.195 12.675 49.54 39.073 5.286 49.848-11.402L1835.6 201c-13.29 12.66-15.084 33.23-4.2 48l-45.3 37.5c-10.412-12.498-28.868-14.468-41.682-4.447s-15.353 28.407-5.733 41.525 27.92 16.223 41.328 7.014 17.078-27.404 8.287-41.09l45.46-37.64a36.45 36.45 0 0 0 54.09 0l31 27.16c-7.592 9.43-6.397 23.17 2.7 31.146s22.884 7.352 31.232-1.416 8.295-22.56-.12-31.264-22.196-9.223-31.242-1.177L1890.23 249a36.43 36.43 0 0 0 3.81-36.7l65.66-52.52a26 26 0 0 0 41.07-27.936A26 26 0 0 0 1976 113.45zm-231.6 56.88c-18.16 0-32.88-14.72-32.88-32.88s14.72-32.88 32.88-32.88 32.88 14.72 32.88 32.88c-.022 18.134-14.706 32.836-32.84 32.88h-.04zm44.87 135.42a26.63 26.63 0 0 1-45.46 18.84 26.63 26.63 0 0 1 18.84-45.46c14.71-.006 26.643 11.91 26.66 26.62h-.04zm147.13-31.42a18.81 18.81 0 0 1 13.297 32.114 18.81 18.81 0 0 1-32.107-13.314c.017-10.38 8.43-18.79 18.8-18.8zm-75.57-13.64c-18.39 0-33.3-14.91-33.3-33.3s14.91-33.3 33.3-33.3 33.3 14.91 33.3 33.3c-.022 18.382-14.918 33.278-33.3 33.3zM1976 161.8a22.32 22.32 0 0 1-15.793-38.103 22.32 22.32 0 0 1 38.103 15.793c-.017 12.315-9.995 22.293-22.3 22.3h0z" fill="#054774"/><path d="M1745 130.5a4.9 4.9 0 1 0 4.89 4.89 4.89 4.89 0 0 0-4.89-4.89h0zm25.4.8a11.88 11.88 0 0 0-5.09-3.82h0a9.37 9.37 0 0 0-13-6.48h0a13.65 13.65 0 0 0-24.1 5.74h0c-6.27.517-11.006 5.902-10.718 12.186S1723 150.15 1729.3 150.1h31.7c6.462.028 11.738-5.16 11.82-11.62a11.61 11.61 0 0 0-2.41-7.16zm-13.94 5.7a.42.42 0 0 1-.37.46l-3 .33a8.54 8.54 0 0 1-.74 1.79l1.87 2.33a.42.42 0 0 1-.06.59 18 18 0 0 0-2.18 2.19.43.43 0 0 1-.6.06l-2.33-1.87a8.54 8.54 0 0 1-1.79.74l-.33 3a.42.42 0 0 1-.46.38 17.72 17.72 0 0 0-3.09 0 .42.42 0 0 1-.46-.38l-.33-3a8.24 8.24 0 0 1-1.78-.74l-2.34 1.87a.42.42 0 0 1-.59-.06 18.12 18.12 0 0 0-2.19-2.19.43.43 0 0 1-.06-.59l1.87-2.33a8.54 8.54 0 0 1-.74-1.79l-3-.33a.42.42 0 0 1-.38-.46 17.72 17.72 0 0 0 0-3.09.42.42 0 0 1 .38-.46l3-.33a8.54 8.54 0 0 1 .74-1.79l-1.85-2.33a.43.43 0 0 1 .06-.59 18.12 18.12 0 0 0 2.19-2.19.42.42 0 0 1 .59-.06l2.34 1.87a8.24 8.24 0 0 1 1.78-.74l.33-3a.42.42 0 0 1 .46-.38 17.72 17.72 0 0 0 3.09 0 .42.42 0 0 1 .46.38l.33 3a8.54 8.54 0 0 1 1.79.74l2.33-1.87a.42.42 0 0 1 .59.06 18.87 18.87 0 0 0 2.19 2.19.42.42 0 0 1 .06.59l-1.87 2.33a8.54 8.54 0 0 1 .74 1.79l3 .33a.42.42 0 0 1 .37.46 17.72 17.72 0 0 0-.02 3.09z" class="I"/><path d="M1497.46 237.32h0a12.84 12.84 0 0 0-9-4.18c-49.68-1.6-77.12-20.25-80.17-22.43-2.362-2.233-5.5-3.463-8.75-3.43v7.82a5.08 5.08 0 0 1 1.67.27 5 5 0 0 1 2 1.3c1.24 1 30.5 22.55 85 24.3a4.91 4.91 0 0 1 4.74 5.23c-2.6 39.3-9.56 71.47-21.3 98.4-15.3 35-38.82 60.43-69.93 75.47a5 5 0 0 1-2.13.49h0v7.84a12.85 12.85 0 0 0 5.55-1.27c32.84-15.88 57.63-42.6 73.7-79.38 12.12-27.76 19.3-60.8 22-101a12.8 12.8 0 0 0-3.36-9.42zM1397.3 420c-31-15-54.54-40.42-69.8-75.4-11.75-26.92-18.72-59.1-21.32-98.4a4.92 4.92 0 0 1 4.74-5.2c54.63-1.76 83.88-23.4 85-24.3a4.9 4.9 0 0 1 3.57-1.56v-7.82a12.68 12.68 0 0 0-8.68 3.42c-3.15 2.25-30.6 20.85-80.18 22.44a12.74 12.74 0 0 0-12.3 13.57c2.65 40.2 9.83 73.25 21.94 101 16 36.73 40.77 63.4 73.52 79.3a12.69 12.69 0 0 0 5.7 1.36v-7.84a4.85 4.85 0 0 1-2.18-.56z" fill="#054774"/><g class="L"><path d="M1399.54 224.78h0c1.6 1.95 31.9 22.93 84.15 24.62-4 60.64-21 130.92-84.15 161.46h0v9.7a5 5 0 0 0 2.13-.49c31.1-15 54.64-40.43 69.93-75.47 11.75-26.92 18.72-59.1 21.3-98.4a4.91 4.91 0 0 0-4.74-5.23c-54.54-1.75-83.8-23.33-85-24.3a5 5 0 0 0-2-1.3c-.538-.183-1.102-.274-1.67-.27v9.7l.04-.04z"/><path d="M1310.9 241a4.92 4.92 0 0 0-4.74 5.23c2.6 39.3 9.57 71.47 21.32 98.4 15.27 35 38.76 60.37 69.8 75.4a4.84 4.84 0 0 0 2.22.54v-9.7C1336.37 380.3 1319.4 310 1315.4 249.4c52.05-1.67 82.3-22.5 84.12-24.58v-9.7a4.9 4.9 0 0 0-3.57 1.56c-1.16.9-30.4 22.55-85.04 24.34z"/></g><path d="M1399.54 224.78h0c-1.8 2.1-32.07 22.9-84.12 24.58 4 60.64 21 130.9 84.12 161.45h0c63.16-30.5 80.15-100.8 84.15-161.4-52.26-1.7-82.56-22.67-84.15-24.62z" fill="url(#C)"/><path d="M1360.85 297.55l21.83 42a1.12 1.12 0 0 0 1.71.34l67.6-56.7a1.12 1.12 0 0 0-1.28-1.82l-61.5 35.9a1.11 1.11 0 0 1-1.28-.1l-25.4-21a1.11 1.11 0 0 0-1.7 1.37z" class="M"/></svg>