<svg xmlns="http://www.w3.org/2000/svg" viewBox="0 0 4096 394"><defs><linearGradient x1="50.9684219%" y1="71.2860447%" x2="49.2579657%" y2="44.7969472%" id="A"><stop stop-color="#a1a1dd" offset="0%"/><stop stop-color="#c6c6ed" offset="99%"/></linearGradient><linearGradient x1="50.9915683%" y1="71.2953761%" x2="49.2763081%" y2="44.8085963%" id="B"><stop stop-color="#a1a1dd" offset="0%"/><stop stop-color="#c6c6ed" offset="99%"/></linearGradient><linearGradient x1="50.9850551%" y1="71.2525235%" x2="49.277343%" y2="44.8115839%" id="C"><stop stop-color="#a1a1dd" offset="0%"/><stop stop-color="#c6c6ed" offset="99%"/></linearGradient></defs><path d="M2526 176.48l-12.85-7.4a72.38 72.38 0 0 0 .86-11.15 70.35 70.35 0 0 0-.9-11.16l12.8-7.4a5.07 5.07 0 0 0 1.86-6.91l-20.23-35a5.05 5.05 0 0 0-3.1-2.36 5 5 0 0 0-3.85.53l-12.45 7.36a58.45 58.45 0 0 0-18.91-11.25V77a5.06 5.06 0 0 0-5.06-5h-40.45a5.06 5.06 0 0 0-5.06 5v14.7A62.25 62.25 0 0 0 2399 103l-13-7.44a5.06 5.06 0 0 0-6.89 1.85l-20.3 35a5.06 5.06 0 0 0 1.84 6.91l12.77 7.4a70.66 70.66 0 0 0-.91 11.16 71.93 71.93 0 0 0 .88 11.15l-12.82 7.4a5.06 5.06 0 0 0-1.85 6.91l20.22 35a5.07 5.07 0 0 0 6.87 1.87l13.2-7.38a62.41 62.41 0 0 0 19.68 11.34v14.66a5.06 5.06 0 0 0 5.06 5.06h40.45a5.06 5.06 0 0 0 5.06-5.06v-14.67a58.88 58.88 0 0 0 18.94-11.28l12.63 7.4a5 5 0 0 0 6.93-1.85l20.14-35a5.05 5.05 0 0 0-1.89-6.94h0zm-82.78 16.84a35.4 35.4 0 1 1 35.39-35.39c-.028 19.53-15.85 35.357-35.38 35.4h-.01zM2596.5 61.35l-7-4a41.44 41.44 0 0 0 .37-5.59 39.58 39.58 0 0 0-.4-5.6l6.95-4a5.07 5.07 0 0 0 1.85-6.91l-10.1-17.55a5.07 5.07 0 0 0-3.15-2.36 5 5 0 0 0-3.87.55l-6.58 3.94a41.62 41.62 0 0 0-9.29-5.51V6.24a5.05 5.05 0 0 0-5.06-5.06H2540a5.06 5.06 0 0 0-5 5.06v8a45.28 45.28 0 0 0-10 5.63l-7.2-4.1a5 5 0 0 0-6.86 1.86l-10.2 17.52a5 5 0 0 0 1.83 6.91l6.92 4a37.33 37.33 0 0 0-.43 5.61 40.67 40.67 0 0 0 .4 5.6l-7 4a5.06 5.06 0 0 0-1.86 6.91l10.1 17.52a5.07 5.07 0 0 0 6.85 1.88l7.38-4.12A44.77 44.77 0 0 0 2535 89.2v8a5.06 5.06 0 0 0 5.06 5.06h20.22a5.05 5.05 0 0 0 5.06-5.06v-8.03a41.63 41.63 0 0 0 9.32-5.54l6.76 4a5 5 0 0 0 7-1.84l10-17.52a5.06 5.06 0 0 0-1.93-6.92zM2549.4 72c-11.173 0-20.23-9.057-20.23-20.23s9.057-20.23 20.23-20.23 20.23 9.057 20.23 20.23c-.006 11.17-9.06 20.224-20.23 20.23h0zm-281.23-2.44h0A29.44 29.44 0 0 0 2238.72 99v28.94a10.32 10.32 0 0 0 8.33 10.13 4.24 4.24 0 0 0 3.3-.76l5.1-3.72a5.77 5.77 0 0 1 6.65-.12l4 2.67a5.43 5.43 0 0 0 6.22-.1l3.52-2.54a5.52 5.52 0 0 1 7.06.5l2.24 2.16a5.9 5.9 0 0 0 6.55 1.14 10.34 10.34 0 0 0 6-9.36V99a29.44 29.44 0 0 0-29.53-29.44zm-8 31.2a5.26 5.26 0 0 1-10.51 0v-5.94a5.26 5.26 0 0 1 10.51 0v5.94zm26.5 0a5.26 5.26 0 0 1-10.51 0v-5.94a5.26 5.26 0 0 1 10.51 0v5.94z" fill="#454589"/><path d="M2785 254.22a87.48 87.48 0 0 0-37.73-28.22h0a69.51 69.51 0 0 0-96.58-48.05 101.08 101.08 0 0 0-79.48-38.56c-48.15 0-89.64 33.91-99.22 81.1-44.67 3.726-79.156 40.848-79.593 85.67-.397 48.07 39.473 87.4 87.553 87.4h235.27c47.84 0 87.33-38.36 87.594-86.2.178-19.214-6.093-37.933-17.814-53.16z" fill="url(#A)"/><path d="M2254.94 123.15a46 46 0 0 0-19.88-14.9 36.62 36.62 0 0 0-50.9-25.32 53.22 53.22 0 0 0-41.91-20.34c-25.36.024-47.2 17.89-52.25 42.74-23.57 1.928-41.784 21.51-42.002 45.16-.208 25.33 20.802 46.06 46.142 46.06h124c25.2 0 46-20.2 46.152-45.42.097-10.1-3.195-19.96-9.352-27.98z" fill="url(#B)"/><path d="M2781.88 37.35a28.43 28.43 0 0 0-12.26-9.19h0a22.58 22.58 0 0 0-31.39-15.61h0a33.42 33.42 0 0 0-9.61-8.26 32.92 32.92 0 0 0-48.48 22.09c-15.15 1.197-26.62 14.197-25.92 29.378s13.314 27.072 28.51 26.872h76.5c15.566.062 28.273-12.435 28.47-28 .047-6.25-2.002-12.333-5.82-17.28h0z" fill="url(#C)"/><path d="M2236.2 36.28h0a7.65 7.65 0 0 1 7.58-7.58h0a7.65 7.65 0 0 1-7.59-7.6h0a7.65 7.65 0 0 1-7.57 7.57h0a7.65 7.65 0 0 1 7.58 7.61h0zm.2 4.9h0c-.07 7.3-5.96 13.184-13.25 13.26h0a13.39 13.39 0 0 1 13.2 13.37h0c.076-7.292 5.968-13.184 13.26-13.26h0a13.4 13.4 0 0 1-13.22-13.37h0zm-5.5-3.1c-12.78-.12-23.1-10.47-23.18-23.25l-.08.1c-.135 12.734-10.426 23.025-23.16 23.16h0c12.778.114 23.1 10.462 23.18 23.24l.08-.08c.13-12.737 10.423-23.03 23.16-23.16h0z" fill="#aeaef5"/></svg>