<svg xmlns="http://www.w3.org/2000/svg" viewBox="0 0 4096 316"><defs><linearGradient x1="50.9715483%" y1="71.2997034%" x2="49.2617777%" y2="44.8100532%" id="A"><stop stop-color="#12d5e0" offset="0%"/><stop stop-color="#4ef9f9" offset="99%"/></linearGradient><linearGradient x1="50.9814134%" y1="71.2999406%" x2="49.2705323%" y2="44.8156626%" id="B"><stop stop-color="#12d5e0" offset="0%"/><stop stop-color="#4ef9f9" offset="99%"/></linearGradient><linearGradient x1="51.0556916%" y1="71.2477995%" x2="49.3443628%" y2="44.8360214%" id="C"><stop stop-color="#12d5e0" offset="0%"/><stop stop-color="#4ef9f9" offset="99%"/></linearGradient></defs><path d="M2244.17 84.7h-.7v-6.2c-.225-9.35-7.87-16.815-17.225-16.815s-17 7.463-17.225 16.815v6.18h-.7a6.12 6.12 0 0 0-6.12 6.11v30.62a6.12 6.12 0 0 0 6.12 6.12h35.87a6.11 6.11 0 0 0 6.11-6.12V90.8a6.11 6.11 0 0 0-6.11-6.11h0zm-29.26-6.18c.182-6.124 5.2-10.993 11.325-10.993s11.143 4.87 11.325 10.993v6.18h-22.65v-6.2zm13.1 38.2h-4.8v-1.94h2.18v-7.5h-1v-1.94h1V98.9h-.08a4.46 4.46 0 0 1-2.31-1.55v-.06a5.8 5.8 0 0 1-.34-.52c0-.06-.05-.13-.08-.2a3.82 3.82 0 0 1-.21-.46c0-.12-.06-.24-.1-.37l-.1-.33a4.74 4.74 0 0 1-.06-.75 4.82 4.82 0 0 1 .08-.86 4.14 4.14 0 0 1 .25-.8 4.39 4.39 0 0 1 8.13 0 4.14 4.14 0 0 1 .25.8 4.82 4.82 0 0 1 .08.86 4.39 4.39 0 0 1-2.9 4.09v17.96zm188.1-8.84h25.73a69.4 69.4 0 0 1 5.86 25.41h-29.52a180.57 180.57 0 0 0-2.07-25.41zm-11.25-35.95a68 68 0 0 1 34.48 30.86h-24.06c-2.74-14.22-6.88-24.32-10.42-30.86zm-21.55 30.86V67.34a68.25 68.25 0 0 1 15.38 2.49c3.74 6.4 8.56 17.1 11.6 33l-27-.04zm-32.73 61a178.37 178.37 0 0 1-2.09-25.41h29.85v25.4h-27.76zm-.05-55.9h27.8v25.4h-29.87a178.94 178.94 0 0 1 2.06-25.43v.02zM2363 69.73a65.22 65.22 0 0 1 15.33-2.37v35.43h-27c3.08-15.95 7.94-26.67 11.67-33.06zm-41.43 33.06a68.09 68.09 0 0 1 35.31-31.07c-3.55 6.54-7.75 16.73-10.52 31.07h-24.8zm21.9 30.5h-30.13a69.31 69.31 0 0 1 5.75-25.41h26.46a180.57 180.57 0 0 0-2.07 25.41h-.01zm2.14 30.48h-26.33a68.91 68.91 0 0 1-6-25.41h30.2a175.43 175.43 0 0 0 2.14 25.41h-.01zm.8 5.07c2.8 14.52 7.06 24.68 10.63 31.14a67.71 67.71 0 0 1-35.36-31.14h24.73zm31.94 0v35.45a65.16 65.16 0 0 1-15.14-2.29c-3.77-6.27-8.66-17-11.72-33.14l26.86-.02zm31.86 0c-3.07 16-7.92 26.73-11.65 33a66.66 66.66 0 0 1-15.24 2.35v-35.35h26.9zm-26.9-30.48h29.85a178.62 178.62 0 0 1-2.09 25.41h-27.75v-25.4zm29.87-5.07h-29.86v-25.4h27.8a178.94 178.94 0 0 1 2.06 25.41h-.01zm5 5.07h29.5a69.39 69.39 0 0 1-6 25.41h-25.6a178.52 178.52 0 0 0 2.1-25.41h.01zm21.13 30.48a67.47 67.47 0 0 1-34.57 30.93c3.57-6.46 7.77-16.55 10.53-30.93h24.04z" fill="#0b5d7f"/><path d="M2651.15 204.6a69.42 69.42 0 0 0-29.95-22.44h0a55.16 55.16 0 0 0-76.68-38.17 80.19 80.19 0 0 0-63.09-30.62c-38.218.006-71.146 26.926-78.75 64.38h0c-35.455 2.957-62.828 32.423-63.172 68-.318 38.16 31.322 69.38 69.482 69.38h186.77c38 0 69.3-30.45 69.522-68.4.122-15.224-4.852-30.05-14.132-42.12h0z" fill="url(#A)"/><path d="M2211.27 117.46a36.35 36.35 0 0 0-15.69-11.76 28.87 28.87 0 0 0-40.15-20 42.09 42.09 0 0 0-74.33 17.7h0c-18.57 1.543-32.91 16.968-33.1 35.6-.16 20 16.41 36.35 36.4 36.35h97.85c19.92.073 36.173-15.923 36.42-35.84a35.71 35.71 0 0 0-7.401-22.05z" fill="url(#B)"/><path d="M2617.14 28a20.6 20.6 0 0 0-8.85-6.63h0a16.28 16.28 0 0 0-22.66-11.32h0A23.74 23.74 0 0 0 2543.7 20h0c-10.965.825-19.288 10.218-18.784 21.203s9.65 19.578 20.644 19.397h55.2c11.236.04 20.403-8.985 20.54-20.22a20.14 20.14 0 0 0-4.17-12.38z" fill="url(#C)"/><path d="M2475.74 47h0a5.48 5.48 0 0 1 5.43-5.43h0a5.48 5.48 0 0 1-5.43-5.45h0a5.49 5.49 0 0 1-5.43 5.43h0a5.48 5.48 0 0 1 5.43 5.45h0zm.13 3.47h0a9.6 9.6 0 0 1-9.54 9.53h0a9.6 9.6 0 0 1 9.52 9.54h0a9.6 9.6 0 0 1 9.51-9.5h0a9.61 9.61 0 0 1-9.49-9.57zm-3.93-2.23c-9.16-.082-16.56-7.5-16.62-16.66l-.06.06c-.092 9.13-7.47 16.508-16.6 16.6h0c9.16.082 16.56 7.5 16.62 16.66l.06-.06c.092-9.13 7.47-16.508 16.6-16.6h0z" fill="#20f2f5"/></svg>