<?xml version="1.0" encoding="utf-8"?>
<!-- Generator: Adobe Illustrator 24.0.1, SVG Export Plug-In . SVG Version: 6.00 Build 0)  -->
<svg version="1.1" id="Layer_1" xmlns="http://www.w3.org/2000/svg" xmlns:xlink="http://www.w3.org/1999/xlink" x="0px" y="0px"
	 viewBox="0 0 997.2 465.5" style="enable-background:new 0 0 997.2 465.5;" xml:space="preserve">
<style type="text/css">
	.st0{fill:#008BAE;}
	.st1{fill:#005784;}
	.st2{fill:#004678;}
	.st3{fill:#00B6C7;}
	.st4{fill:#00598A;}
	.st5{fill:url(#SVGID_1_);}
	.st6{fill:url(#SVGID_2_);}
	.st7{fill:#00F5F6;}
	.st8{fill:url(#SVGID_3_);}
	.st9{fill:url(#SVGID_4_);}
	.st10{fill:#005E81;}
	.st11{fill:#006892;}
	.st12{fill:#302E97;}
	.st13{fill-rule:evenodd;clip-rule:evenodd;fill:#005E81;}
	.st14{fill:#004778;}
	.st15{fill:none;}
	.st16{font-family:'Montserrat-Bold';}
	.st17{font-size:51px;}
	.st18{fill-rule:evenodd;clip-rule:evenodd;fill:#00F5F6;}
</style>
<ellipse class="st0" cx="556.1" cy="439.1" rx="441" ry="11"/>
<g>
	<path class="st1" d="M710.7,431.4H545.6c-3.1,0-5.7-2.5-5.7-5.7V275.6h176.4v150.2C716.3,428.9,713.8,431.4,710.7,431.4z"/>
	<path class="st2" d="M705.3,393.9H551c-0.9,0-1.6-0.7-1.6-1.6V389c0-0.9,0.7-1.6,1.6-1.6h154.3c0.9,0,1.6,0.7,1.6,1.6v3.3
		C706.8,393.2,706.1,393.9,705.3,393.9z"/>
	<path class="st2" d="M705.3,373H551c-0.9,0-1.6-0.7-1.6-1.6v-3.3c0-0.9,0.7-1.6,1.6-1.6h154.3c0.9,0,1.6,0.7,1.6,1.6v3.3
		C706.8,372.3,706.1,373,705.3,373z"/>
	<path class="st2" d="M705.3,414.7H551c-0.9,0-1.6-0.7-1.6-1.6v-3.3c0-0.9,0.7-1.6,1.6-1.6h154.3c0.9,0,1.6,0.7,1.6,1.6v3.3
		C706.8,414,706.1,414.7,705.3,414.7z"/>
	<g>
		<path class="st1" d="M714,127.7H542.3c-1.9,0-3.4-1.5-3.4-3.4V97.7c0-1.9,1.5-3.4,3.4-3.4H714c1.9,0,3.4,1.5,3.4,3.4v26.6
			C717.4,126.2,715.9,127.7,714,127.7z"/>
		<g>
			<rect x="543.2" y="127.8" class="st2" width="169.8" height="4.8"/>
			<rect x="543.2" y="127.8" class="st1" width="169.8" height="1.7"/>
		</g>
		<path class="st2" d="M564.4,120.2h127.4c1.9,0,3.5-1.6,3.5-3.5v-16.3c0-1.9-1.6-3.5-3.5-3.5H564.4c-1.9,0-3.5,1.6-3.5,3.5v16.3
			C560.9,118.7,562.5,120.2,564.4,120.2z"/>
		<g>
			<path class="st3" d="M644.7,113.7h-33.2c-0.8,0-1.4-0.6-1.4-1.4V100c0-0.8,0.6-1.4,1.4-1.4h33.2c0.8,0,1.4,0.6,1.4,1.4v12.3
				C646.1,113.1,645.5,113.7,644.7,113.7z"/>
			<g>
				<rect x="610.2" y="116.1" class="st3" width="4.1" height="2.7"/>
				<rect x="631.4" y="116.1" class="st3" width="4.1" height="2.7"/>
				<rect x="620.8" y="116.1" class="st3" width="4.1" height="2.7"/>
				<rect x="642" y="116.1" class="st3" width="4.1" height="2.7"/>
			</g>
		</g>
	</g>
	<g>
		<path class="st1" d="M714,166.2H542.3c-1.9,0-3.4-1.5-3.4-3.4v-26.6c0-1.9,1.5-3.4,3.4-3.4H714c1.9,0,3.4,1.5,3.4,3.4v26.6
			C717.4,164.6,715.9,166.2,714,166.2z"/>
		<g>
			<rect x="543.2" y="166.2" class="st2" width="169.8" height="4.8"/>
			<rect x="543.2" y="166.2" class="st1" width="169.8" height="1.7"/>
		</g>
		<path class="st2" d="M564.4,158.7h127.4c1.9,0,3.5-1.6,3.5-3.5v-16.3c0-1.9-1.6-3.5-3.5-3.5H564.4c-1.9,0-3.5,1.6-3.5,3.5v16.3
			C560.9,157.1,562.5,158.7,564.4,158.7z"/>
		<g>
			<path class="st3" d="M644.7,152.2h-33.2c-0.8,0-1.4-0.6-1.4-1.4v-12.3c0-0.8,0.6-1.4,1.4-1.4h33.2c0.8,0,1.4,0.6,1.4,1.4v12.3
				C646.1,151.5,645.5,152.2,644.7,152.2z"/>
			<g>
				<rect x="610.2" y="154.5" class="st3" width="4.1" height="2.7"/>
				<rect x="631.4" y="154.5" class="st3" width="4.1" height="2.7"/>
				<rect x="620.8" y="154.5" class="st3" width="4.1" height="2.7"/>
				<rect x="642" y="154.5" class="st3" width="4.1" height="2.7"/>
			</g>
		</g>
	</g>
	<g>
		<path class="st1" d="M714,204.6H542.3c-1.9,0-3.4-1.5-3.4-3.4v-26.6c0-1.9,1.5-3.4,3.4-3.4H714c1.9,0,3.4,1.5,3.4,3.4v26.6
			C717.4,203.1,715.9,204.6,714,204.6z"/>
		<g>
			<rect x="543.2" y="204.6" class="st2" width="169.8" height="4.8"/>
			<rect x="543.2" y="204.6" class="st1" width="169.8" height="1.7"/>
		</g>
		<path class="st2" d="M564.4,197.1h127.4c1.9,0,3.5-1.6,3.5-3.5v-16.3c0-1.9-1.6-3.5-3.5-3.5H564.4c-1.9,0-3.5,1.6-3.5,3.5v16.3
			C560.9,195.5,562.5,197.1,564.4,197.1z"/>
		<g>
			<path class="st3" d="M644.7,190.6h-33.2c-0.8,0-1.4-0.6-1.4-1.4v-12.3c0-0.8,0.6-1.4,1.4-1.4h33.2c0.8,0,1.4,0.6,1.4,1.4v12.3
				C646.1,190,645.5,190.6,644.7,190.6z"/>
			<g>
				<rect x="610.2" y="193" class="st3" width="4.1" height="2.7"/>
				<rect x="631.4" y="193" class="st3" width="4.1" height="2.7"/>
				<rect x="620.8" y="193" class="st3" width="4.1" height="2.7"/>
				<rect x="642" y="193" class="st3" width="4.1" height="2.7"/>
			</g>
		</g>
	</g>
	<g>
		<path class="st1" d="M714,243.1H542.3c-1.9,0-3.4-1.5-3.4-3.4V213c0-1.9,1.5-3.4,3.4-3.4H714c1.9,0,3.4,1.5,3.4,3.4v26.6
			C717.4,241.5,715.9,243.1,714,243.1z"/>
		<g>
			<rect x="543.2" y="243.1" class="st2" width="169.8" height="4.8"/>
			<rect x="543.2" y="243.1" class="st1" width="169.8" height="1.7"/>
		</g>
		<path class="st2" d="M564.4,235.5h127.4c1.9,0,3.5-1.6,3.5-3.5v-16.3c0-1.9-1.6-3.5-3.5-3.5H564.4c-1.9,0-3.5,1.6-3.5,3.5V232
			C560.9,234,562.5,235.5,564.4,235.5z"/>
		<g>
			<path class="st3" d="M644.7,229h-33.2c-0.8,0-1.4-0.6-1.4-1.4v-12.3c0-0.8,0.6-1.4,1.4-1.4h33.2c0.8,0,1.4,0.6,1.4,1.4v12.3
				C646.1,228.4,645.5,229,644.7,229z"/>
			<g>
				<rect x="610.2" y="231.4" class="st3" width="4.1" height="2.7"/>
				<rect x="631.4" y="231.4" class="st3" width="4.1" height="2.7"/>
				<rect x="620.8" y="231.4" class="st3" width="4.1" height="2.7"/>
				<rect x="642" y="231.4" class="st3" width="4.1" height="2.7"/>
			</g>
		</g>
	</g>
	<rect x="543.2" y="281.5" class="st2" width="169.8" height="1.7"/>
	<g>
		<path class="st1" d="M714,281.5H542.3c-1.9,0-3.4-1.5-3.4-3.4v-26.6c0-1.9,1.5-3.4,3.4-3.4H714c1.9,0,3.4,1.5,3.4,3.4v26.6
			C717.4,280,715.9,281.5,714,281.5z"/>
		<path class="st2" d="M564.4,274h127.4c1.9,0,3.5-1.6,3.5-3.5v-16.3c0-1.9-1.6-3.5-3.5-3.5H564.4c-1.9,0-3.5,1.6-3.5,3.5v16.3
			C560.9,272.4,562.5,274,564.4,274z"/>
		<g>
			<path class="st3" d="M644.7,267.5h-33.2c-0.8,0-1.4-0.6-1.4-1.4v-12.3c0-0.8,0.6-1.4,1.4-1.4h33.2c0.8,0,1.4,0.6,1.4,1.4v12.3
				C646.1,266.8,645.5,267.5,644.7,267.5z"/>
			<g>
				<rect x="610.2" y="269.8" class="st3" width="4.1" height="2.7"/>
				<rect x="631.4" y="269.8" class="st3" width="4.1" height="2.7"/>
				<rect x="620.8" y="269.8" class="st3" width="4.1" height="2.7"/>
				<rect x="642" y="269.8" class="st3" width="4.1" height="2.7"/>
			</g>
		</g>
	</g>
	<g>
		<path class="st3" d="M657.9,322.2h-59.5c-1.7,0-3.1-1.4-3.1-3.1v-6.5c0-1.7,1.4-3.1,3.1-3.1h59.5c1.7,0,3.1,1.4,3.1,3.1v6.5
			C660.9,320.8,659.6,322.2,657.9,322.2z"/>
		<path class="st1" d="M653.3,318.1h-50.6c-0.6,0-1-0.5-1-1v-2.8c0-0.6,0.5-1,1-1h50.6c0.6,0,1,0.5,1,1v2.8
			C654.4,317.6,653.9,318.1,653.3,318.1z"/>
	</g>
	<g>
		<path class="st3" d="M657.9,346.5h-59.5c-1.7,0-3.1-1.4-3.1-3.1v-6.5c0-1.7,1.4-3.1,3.1-3.1h59.5c1.7,0,3.1,1.4,3.1,3.1v6.5
			C660.9,345.1,659.6,346.5,657.9,346.5z"/>
		<path class="st1" d="M653.3,342.4h-50.6c-0.6,0-1-0.5-1-1v-2.8c0-0.6,0.5-1,1-1h50.6c0.6,0,1,0.5,1,1v2.8
			C654.4,341.9,653.9,342.4,653.3,342.4z"/>
	</g>
</g>
<g>
	<g>
		<path class="st4" d="M747.3,440.8h-72.2c-5.8,0-10.5-4.7-10.5-10.5V281c0-5.8,4.7-10.5,10.5-10.5h72.2c5.8,0,10.5,4.7,10.5,10.5
			v149.3C757.7,436.1,753.1,440.8,747.3,440.8z"/>
		<g>
			<linearGradient id="SVGID_1_" gradientUnits="userSpaceOnUse" x1="710.7419" y1="261.1257" x2="711.3258" y2="478.3888">
				<stop  offset="5.051200e-04" style="stop-color:#00D8E2"/>
				<stop  offset="0.9872" style="stop-color:#00FCFA"/>
			</linearGradient>
			<path class="st5" d="M675.7,274.7c-4.6,0-8.3,3.7-8.3,8.3v145.4c0,4.6,3.7,8.3,8.3,8.3h70.9c4.6,0,8.3-3.7,8.3-8.3v-19.9
				l-78.5-133.8H675.7z"/>
			<linearGradient id="SVGID_2_" gradientUnits="userSpaceOnUse" x1="676.3853" y1="341.5431" x2="754.8581" y2="341.5431">
				<stop  offset="5.051200e-04" style="stop-color:#00D8E2"/>
				<stop  offset="0.9872" style="stop-color:#00FCFA"/>
			</linearGradient>
			<path class="st6" d="M746.6,274.7h-16.9h-1.4h-33.8h-4.4h-13.8l78.5,133.8V282.9C754.9,278.4,751.2,274.7,746.6,274.7z"/>
		</g>
		<path class="st7" d="M718.9,273.6h-15.5c-0.5,0-0.8-0.4-0.8-0.8v0c0-0.5,0.4-0.8,0.8-0.8h15.5c0.5,0,0.8,0.4,0.8,0.8l0,0
			C719.8,273.2,719.4,273.6,718.9,273.6z"/>
		<path class="st7" d="M722.6,272.8c0,0.5-0.4,0.8-0.8,0.8s-0.8-0.4-0.8-0.8c0-0.5,0.4-0.8,0.8-0.8S722.6,272.3,722.6,272.8z"/>
	</g>
</g>
<g>
	<g>
		<path class="st4" d="M504,432.1c-0.3-0.3-0.7-0.7-1.1-0.9l-14.3-9.2h-56.3H416h-56.3l-14.3,9.2c-0.4,0.3-0.8,0.6-1.1,0.9
			c-2.6,3-0.6,8,3.8,8H416h16.3h67.9C504.6,440.1,506.6,435.1,504,432.1z"/>
		<path class="st4" d="M608.4,163.1c0-6.1-4.9-11-11-11H250.9c-6.1,0-11,4.9-11,11v200h368.5V163.1z"/>
		<linearGradient id="SVGID_3_" gradientUnits="userSpaceOnUse" x1="408.2542" y1="407.6334" x2="391.4959" y2="142.4576">
			<stop  offset="5.051200e-04" style="stop-color:#00D8E2"/>
			<stop  offset="0.9872" style="stop-color:#00FCFA"/>
		</linearGradient>
		<polygon class="st8" points="255.3,165.2 255.3,363.5 555.6,363.5 403.5,165.2 		"/>
		<linearGradient id="SVGID_4_" gradientUnits="userSpaceOnUse" x1="613.7335" y1="214.3284" x2="430.6127" y2="293.6348">
			<stop  offset="5.051200e-04" style="stop-color:#00D8E2"/>
			<stop  offset="0.9872" style="stop-color:#00FCFA"/>
		</linearGradient>
		<polygon class="st9" points="593,165.2 403.5,165.2 555.6,363.5 593,363.5 		"/>
		<rect x="387.2" y="402.1" class="st4" width="73.9" height="19.9"/>
		<rect x="387.2" y="402.1" class="st2" width="73.9" height="4.2"/>
		<path class="st2" d="M348,433.8H416h16.3h67.9c1.6,0,2.9-0.7,3.8-1.7c-0.3-0.3-0.7-0.7-1.1-0.9l-14.3-9.2h-56.3H416h-56.3
			l-14.3,9.2c-0.4,0.3-0.8,0.6-1.1,0.9C345.1,433.1,346.4,433.8,348,433.8z"/>
		<path class="st4" d="M250.9,402h346.5c6.1,0,11-4.9,11-11v-27.9H239.9V391C239.9,397.1,244.8,402,250.9,402z"/>
	</g>
</g>
<g>
	<ellipse class="st10" cx="386.3" cy="275.4" rx="7.8" ry="8"/>
	<polygon class="st2" points="456.7,242.8 464.6,242.8 460.7,233.2 	"/>
	<path class="st2" d="M509.8,211.2h-97.2c-0.9,0-1.7,0.8-1.7,1.7v54.1c0,0.9,0.8,1.7,1.7,1.7h52.8l13,13c0.3,0.3,0.8,0.5,1.2,0.5
		c0.2,0,0.4,0,0.6-0.1c0.6-0.3,1-0.9,1-1.6v-11.8h28.5c0.9,0,1.7-0.8,1.7-1.7v-54.1C511.5,212,510.7,211.2,509.8,211.2z
		 M468.7,252.5l-2.2-5.4h-11.6l-2.2,5.4h-5.9l11.1-25h5.7l11.2,25H468.7z"/>
	<path class="st10" d="M435.7,246.8h-97.2c-0.9,0-1.7,0.8-1.7,1.7v54.1c0,0.9,0.8,1.7,1.7,1.7h28.5v11.8c0,0.7,0.4,1.3,1,1.6
		c0.2,0.1,0.4,0.1,0.6,0.1c0.4,0,0.9-0.2,1.2-0.5l13-13h52.8c0.9,0,1.7-0.8,1.7-1.7v-54.1C437.4,247.5,436.6,246.8,435.7,246.8z
		 M394.4,293.6c-3.7,0-6.3-1.4-10.2-5.4c-6.8-0.9-11.7-6-11.7-12.8c0-7.4,5.8-12.9,13.7-12.9c7.8,0,13.7,5.5,13.7,12.9
		c0,5.9-3.6,10.5-8.9,12.2c1.2,1.3,2.3,1.7,3.5,1.7c1.5,0,2.9-0.6,4.1-1.9l2.6,3.1C399.5,292.6,397.2,293.6,394.4,293.6z"/>
</g>
<path class="st11" d="M711.2,341.8c-7.6,0-13.8,6.2-13.8,13.8c0,3.7,1.4,7.1,4,9.7l0,0c2.6,2.6,6.1,4.1,9.8,4.1
	c3.7,0,7.2-1.5,9.8-4.1c2.6-2.6,4-6,4-9.7C725,348,718.8,341.8,711.2,341.8z M720.5,364.2c-1.2-0.7-3-1.4-5-2.1
	c-0.5-0.2-1-0.4-1.5-0.5v-2.1c0.6-0.4,1.6-1.3,1.7-3.4c0.4-0.3,0.7-0.8,0.7-1.6c0-0.7-0.2-1.2-0.6-1.5c0.3-0.9,0.8-2.5,0.4-3.8
	c-0.4-1.6-2.6-2.2-4.3-2.2c-1.5,0-3.4,0.4-4.1,1.7c-0.8,0-1.3,0.3-1.5,0.6c-0.7,1-0.2,2.7,0,3.7c-0.4,0.3-0.6,0.8-0.6,1.5
	c0,0.7,0.3,1.3,0.7,1.6c0.1,2.1,1.1,3,1.7,3.4v2.1c-0.4,0.2-0.9,0.3-1.4,0.5c-1.9,0.7-3.8,1.4-5.1,2.1c-2.2-2.3-3.4-5.4-3.4-8.6
	c0-7,5.7-12.7,12.7-12.7c7,0,12.7,5.7,12.7,12.7C723.8,358.8,722.6,361.8,720.5,364.2z"/>
<g>
	<path class="st2" d="M200.5,357.9V352v-5.5V342c0-2,1.6-3.5,3.5-3.5H224c1.4,0,2.6,0.8,3.2,2l2,4.1c0.6,1.2,1.8,2,3.2,2h49
		c2,0,3.5,1.6,3.5,3.5v7.9H200.5z"/>
	<g>
		<rect x="236.6" y="325.4" class="st7" width="74.8" height="99.6"/>
		<g>
			<rect x="241.4" y="343.7" class="st2" width="65" height="3.2"/>
			<rect x="241.4" y="354.5" class="st2" width="65" height="3.2"/>
			<rect x="241.4" y="365.2" class="st12" width="65" height="3.2"/>
			<rect x="241.4" y="376" class="st12" width="65" height="3.2"/>
			<rect x="241.4" y="386.8" class="st12" width="65" height="3.2"/>
			<rect x="241.4" y="397.5" class="st12" width="65" height="3.2"/>
			<rect x="241.4" y="332.9" class="st2" width="65" height="3.2"/>
			<rect x="241.4" y="408.3" class="st12" width="65" height="3.2"/>
		</g>
	</g>
	<path class="st2" d="M307.4,364.2h-52.1h-49.5c-4.3,0-7.7,3.5-7.7,7.7v67.8c0,0.3,0,0.6,0.1,0.9h57.2h59.7c0-0.3,0.1-0.6,0.1-0.9
		v-67.8C315.1,367.6,311.7,364.2,307.4,364.2z"/>
</g>
<g>
	<g>
		<g>
			<path class="st7" d="M340.5,54.5C340.5,54.4,340.5,54.4,340.5,54.5l0-6.3c0,0,0,0,0,0c0,0-0.1,0.1-0.1,0.1c0,0,0,0,0,0
				c-0.1,0-0.1,0.1-0.2,0.1c0,0,0,0,0,0c-0.1,0-0.1,0.1-0.2,0.1c0,0,0,0-0.1,0c0,0-0.1,0-0.1,0.1c0,0,0,0-0.1,0c0,0-0.1,0-0.1,0.1
				c0,0,0,0-0.1,0c0,0-0.1,0-0.1,0.1c0,0,0,0,0,0c-0.1,0-0.1,0.1-0.2,0.1c0,0,0,0,0,0c-0.1,0-0.1,0-0.2,0.1c0,0,0,0-0.1,0
				c0,0-0.1,0-0.1,0.1c0,0,0,0-0.1,0c0,0-0.1,0-0.1,0.1c0,0,0,0-0.1,0c-0.1,0-0.1,0-0.2,0.1c0,0,0,0,0,0c-0.1,0-0.1,0-0.2,0.1
				c0,0,0,0-0.1,0c0,0-0.1,0-0.1,0c0,0,0,0-0.1,0c0,0-0.1,0-0.1,0c0,0,0,0-0.1,0c0,0-0.1,0-0.1,0c0,0,0,0-0.1,0
				c-0.1,0-0.1,0-0.2,0.1c-2.4,0.7-5.5,1.1-8.7,1.1c-3.3,0-6.4-0.4-8.7-1.1c-0.1,0-0.1,0-0.2-0.1c0,0,0,0-0.1,0c0,0-0.1,0-0.1,0
				c0,0,0,0-0.1,0c0,0-0.1,0-0.1,0c0,0,0,0-0.1,0c0,0-0.1,0-0.1,0c0,0,0,0-0.1,0c-0.1,0-0.1,0-0.2-0.1c0,0,0,0,0,0
				c-0.1,0-0.1,0-0.2-0.1c0,0,0,0-0.1,0c0,0-0.1,0-0.1-0.1c0,0,0,0-0.1,0c0,0-0.1,0-0.1-0.1c0,0,0,0-0.1,0c-0.1,0-0.1,0-0.2-0.1
				c0,0,0,0,0,0c-0.1,0-0.1-0.1-0.2-0.1c0,0,0,0,0,0c0,0-0.1,0-0.1-0.1c0,0,0,0-0.1,0c0,0-0.1,0-0.1-0.1c0,0,0,0-0.1,0
				c0,0-0.1,0-0.1-0.1c0,0,0,0-0.1,0c-0.1,0-0.1-0.1-0.2-0.1c0,0,0,0,0,0c-0.1,0-0.1-0.1-0.2-0.1c0,0,0,0,0,0c0,0-0.1-0.1-0.1-0.1
				c0,0,0,0,0,0v6.2c0,0,0,0.1,0,0.1c0,0,0,0.1,0,0.1c0,0.8,1.3,1.6,3.3,2.2c2.3,0.7,5.4,1.1,8.7,1.1c3.3,0,6.3-0.4,8.7-1.1
				c2-0.6,3.3-1.5,3.3-2.2C340.5,54.5,340.5,54.5,340.5,54.5z"/>
			<path class="st7" d="M340.5,46C340.5,45.9,340.5,45.9,340.5,46l0-6.3c0,0,0,0,0,0c0,0-0.1,0.1-0.1,0.1c0,0,0,0,0,0
				c-0.1,0-0.1,0.1-0.2,0.1c0,0,0,0,0,0c-0.1,0-0.1,0.1-0.2,0.1c0,0,0,0-0.1,0c0,0-0.1,0-0.1,0.1c0,0,0,0-0.1,0c0,0-0.1,0-0.1,0.1
				c0,0,0,0-0.1,0c0,0-0.1,0-0.1,0.1c0,0,0,0,0,0c-0.1,0-0.1,0.1-0.2,0.1c0,0,0,0,0,0c-0.1,0-0.1,0-0.2,0.1c0,0,0,0-0.1,0
				c0,0-0.1,0-0.1,0.1c0,0,0,0-0.1,0c0,0-0.1,0-0.1,0.1c0,0,0,0-0.1,0c-0.1,0-0.1,0-0.2,0.1c0,0,0,0,0,0c-0.1,0-0.1,0-0.2,0.1
				c0,0,0,0-0.1,0c0,0-0.1,0-0.1,0c0,0,0,0-0.1,0c0,0-0.1,0-0.1,0c0,0,0,0-0.1,0c0,0-0.1,0-0.1,0c0,0,0,0-0.1,0
				c-0.1,0-0.1,0-0.2,0.1c-2.4,0.7-5.5,1.1-8.7,1.1c-3.3,0-6.4-0.4-8.7-1.1c-0.1,0-0.1,0-0.2-0.1c0,0,0,0-0.1,0c0,0-0.1,0-0.1,0
				c0,0,0,0-0.1,0c0,0-0.1,0-0.1,0c0,0,0,0-0.1,0c0,0-0.1,0-0.1,0c0,0,0,0-0.1,0c-0.1,0-0.1,0-0.2-0.1c0,0,0,0,0,0
				c-0.1,0-0.1,0-0.2-0.1c0,0,0,0-0.1,0c0,0-0.1,0-0.1-0.1c0,0-0.1,0-0.1,0c0,0-0.1,0-0.1-0.1c0,0,0,0-0.1,0c0,0-0.1,0-0.1-0.1
				c0,0,0,0-0.1,0c-0.1,0-0.1-0.1-0.2-0.1c0,0,0,0-0.1,0c0,0-0.1,0-0.1-0.1c0,0,0,0-0.1,0c0,0-0.1,0-0.1-0.1c0,0,0,0-0.1,0
				c0,0-0.1,0-0.1-0.1c0,0,0,0-0.1,0c0,0-0.1-0.1-0.1-0.1c0,0,0,0,0,0c-0.1,0-0.1-0.1-0.2-0.1c0,0,0,0-0.1,0c0,0-0.1-0.1-0.1-0.1
				c0,0,0,0,0,0v6.2c0,0,0,0.1,0,0.1c0,0,0,0.1,0,0.1c0,0,0,0,0,0.1c0,0,0,0,0,0.1c0,0.3,0.4,1.3,3.5,2.2c2.3,0.7,5.3,1,8.4,1
				c3.2,0,6.2-0.4,8.4-1c3-0.9,3.4-1.9,3.5-2.2c0,0,0,0,0,0c0,0,0,0,0-0.1c0,0,0,0,0-0.1C340.5,46,340.5,46,340.5,46z"/>
			<path class="st7" d="M337.3,27.2c-2.3-0.7-5.4-1.1-8.7-1.1c-3.3,0-6.3,0.4-8.7,1.1c-2,0.6-3.3,1.5-3.3,2.2c0,0,0,0,0,0h0v0.2
				c0,0,0,0,0,0c0,0,0,0,0,0c0,0,0,0,0,0c0,0,0,0,0,0c0,0,0,0,0,0c0,0,0,0,0,0c0,0,0,0,0,0c0,0,0,0,0,0c0,0,0,0,0,0c0,0,0,0,0,0
				c0,0,0,0,0,0c0,0,0,0,0,0c0,0,0,0,0,0c0,0,0,0,0,0c0,0,0,0,0,0.1c0,0,0,0,0,0c0,0,0,0,0,0c0,0,0,0,0,0c0,0,0,0,0,0c0,0,0,0,0,0
				c0,0,0,0,0,0c0,0,0,0,0,0c0,0,0,0,0,0c0,0,0,0,0,0c0,0,0,0,0,0c0,0,0,0,0,0c0,0,0,0,0,0c0,0,0,0,0,0c0,0,0,0,0,0c0,0,0,0,0,0
				c0,0,0,0,0,0c0,0,0,0,0,0c0,0,0,0,0.1,0c0,0,0,0,0.1,0c0,0,0,0,0.1,0c0,0,0,0,0.1,0c0,0,0,0,0.1,0c0,0,0,0,0.1,0c0,0,0,0,0.1,0
				c0,0,0,0,0.1,0c0,0,0,0,0.1,0c0,0,0,0,0.1,0c0,0,0.1,0,0.1,0c0,0,0.1,0,0.1,0c0,0,0.1,0,0.1,0c0,0,0.1,0,0.1,0c0,0,0.1,0,0.1,0
				c0,0,0.1,0,0.1,0c0,0,0.1,0,0.1,0c0,0,0.1,0,0.1,0c0,0,0.1,0,0.1,0c0,0,0.1,0,0.1,0c0,0,0.1,0,0.1,0c0,0,0.1,0,0.1,0
				c0,0,0.1,0,0.1,0c0,0,0.1,0,0.1,0c0,0,0.1,0,0.1,0c0,0,0.1,0,0.1,0c0.1,0,0.1,0,0.2,0.1c0,0,0.1,0,0.1,0c0.1,0,0.2,0.1,0.3,0.1
				c2.3,0.7,5.3,1,8.4,1c3.2,0,6.2-0.4,8.4-1c0.1,0,0.2-0.1,0.3-0.1c0,0,0.1,0,0.1,0c0.1,0,0.1,0,0.2-0.1c0,0,0.1,0,0.1,0
				c0,0,0.1,0,0.1,0c0,0,0.1,0,0.1,0c0,0,0.1,0,0.1,0c0,0,0.1,0,0.1,0c0,0,0.1,0,0.1,0c0,0,0.1,0,0.1,0c0,0,0.1,0,0.1,0
				c0,0,0.1,0,0.1,0c0,0,0.1,0,0.1,0c0,0,0.1,0,0.1,0c0,0,0.1,0,0.1,0c0,0,0.1,0,0.1,0c0,0,0.1,0,0.1,0c0,0,0.1,0,0.1,0
				c0,0,0.1,0,0.1,0c0,0,0,0,0.1,0c0,0,0,0,0.1,0c0,0,0,0,0.1,0c0,0,0,0,0.1,0c0,0,0,0,0.1,0c0,0,0,0,0.1,0c0,0,0,0,0.1,0
				c0,0,0,0,0.1,0c0,0,0,0,0.1,0c0,0,0,0,0.1,0c0,0,0,0,0,0c0,0,0,0,0,0c0,0,0,0,0,0c0,0,0,0,0,0c0,0,0,0,0,0c0,0,0,0,0,0
				c0,0,0,0,0,0c0,0,0,0,0,0c0,0,0,0,0,0c0,0,0,0,0,0c0,0,0,0,0,0c0,0,0,0,0,0c0,0,0,0,0,0c0,0,0,0,0,0c0,0,0,0,0,0c0,0,0,0,0,0
				c0,0,0,0,0,0c0,0,0,0,0-0.1c0,0,0,0,0,0c0,0,0,0,0,0c0,0,0,0,0,0c0,0,0,0,0,0c0,0,0,0,0,0c0,0,0,0,0,0c0,0,0,0,0,0c0,0,0,0,0,0
				c0,0,0,0,0,0c0,0,0,0,0,0c0,0,0,0,0,0c0,0,0,0,0,0c0,0,0,0,0,0c0,0,0,0,0,0v-0.2h0c0,0,0,0,0,0C340.5,28.7,339.3,27.8,337.3,27.2
				z"/>
			<path class="st7" d="M340.5,37.6C340.5,37.6,340.5,37.5,340.5,37.6l0-6.3c0,0,0,0,0,0c0,0-0.1,0.1-0.1,0.1c0,0,0,0,0,0
				c-0.1,0-0.1,0.1-0.2,0.1c0,0,0,0,0,0c-0.1,0-0.1,0.1-0.2,0.1c0,0,0,0-0.1,0c0,0-0.1,0-0.1,0.1c0,0,0,0-0.1,0c0,0-0.1,0-0.1,0.1
				c0,0,0,0-0.1,0c0,0-0.1,0-0.1,0.1c0,0,0,0,0,0c-0.1,0-0.1,0.1-0.2,0.1c0,0,0,0,0,0c-0.1,0-0.1,0-0.2,0.1c0,0,0,0-0.1,0
				c0,0-0.1,0-0.1,0.1c0,0,0,0-0.1,0c0,0-0.1,0-0.1,0.1c0,0,0,0-0.1,0c-0.1,0-0.1,0-0.2,0.1c0,0,0,0,0,0c-0.1,0-0.1,0-0.2,0.1
				c0,0,0,0-0.1,0c0,0-0.1,0-0.1,0c0,0,0,0-0.1,0c0,0-0.1,0-0.1,0c0,0,0,0-0.1,0c0,0-0.1,0-0.1,0c0,0,0,0-0.1,0
				c-0.1,0-0.1,0-0.2,0.1c-2.4,0.7-5.5,1.1-8.7,1.1c-3.3,0-6.4-0.4-8.7-1.1c-0.1,0-0.1,0-0.2-0.1c0,0,0,0-0.1,0c0,0-0.1,0-0.1,0
				c0,0,0,0-0.1,0c0,0-0.1,0-0.1,0c0,0,0,0-0.1,0c0,0-0.1,0-0.1,0c0,0,0,0-0.1,0c-0.1,0-0.1,0-0.2-0.1c0,0,0,0,0,0
				c-0.1,0-0.1,0-0.2-0.1c0,0,0,0-0.1,0c0,0-0.1,0-0.1-0.1c0,0,0,0-0.1,0c0,0-0.1,0-0.1-0.1c0,0,0,0-0.1,0c-0.1,0-0.1,0-0.2-0.1
				c0,0,0,0,0,0c-0.1,0-0.1-0.1-0.2-0.1c0,0,0,0,0,0c0,0-0.1,0-0.1-0.1c0,0,0,0-0.1,0c0,0-0.1,0-0.1-0.1c0,0,0,0-0.1,0
				c0,0-0.1,0-0.1-0.1c0,0,0,0-0.1,0c-0.1,0-0.1-0.1-0.2-0.1c0,0,0,0,0,0c-0.1,0-0.1-0.1-0.2-0.1c0,0,0,0,0,0c0,0-0.1-0.1-0.1-0.1
				c0,0,0,0,0,0v6.2c0,0,0,0.1,0,0.1c0,0,0,0.1,0,0.1c0,0,0,0,0,0c0,0,0,0,0,0h0v0.1c0,0,0,0,0,0c0,0,0,0,0,0c0,0,0,0,0,0
				c0,0,0,0,0,0c0,0,0,0,0,0c0,0,0,0,0,0c0,0,0,0,0,0c0,0,0,0,0,0c0,0,0,0,0,0c0,0,0,0,0,0c0,0,0,0,0,0c0,0,0,0,0,0c0,0,0,0,0,0
				c0,0,0,0,0,0c0,0,0,0,0,0.1c0,0,0,0,0,0c0,0,0,0,0,0c0,0,0,0,0,0c0,0,0,0,0,0c0,0,0,0,0,0c0,0,0,0,0,0c0,0,0,0,0,0c0,0,0,0,0,0
				c0,0,0,0,0,0c0,0,0,0,0,0c0,0,0,0,0,0c0,0,0,0,0,0c0,0,0,0,0,0c0,0,0,0,0,0c0,0,0,0,0,0c0,0,0,0,0,0c0,0,0,0,0,0c0,0,0,0,0.1,0
				c0,0,0,0,0.1,0c0,0,0,0,0.1,0c0,0,0,0,0.1,0c0,0,0,0,0.1,0c0,0,0,0,0.1,0c0,0,0,0,0.1,0c0,0,0,0,0.1,0c0,0,0,0,0.1,0
				c0,0,0,0,0.1,0c0,0,0.1,0,0.1,0c0,0,0.1,0,0.1,0c0,0,0.1,0,0.1,0c0,0,0.1,0,0.1,0c0,0,0.1,0,0.1,0c0,0,0.1,0,0.1,0
				c0,0,0.1,0,0.1,0c0,0,0.1,0,0.1,0c0,0,0.1,0,0.1,0c0,0,0.1,0,0.1,0c0,0,0.1,0,0.1,0c0,0,0.1,0,0.1,0c0,0,0.1,0,0.1,0
				c0,0,0.1,0,0.1,0c0,0,0.1,0,0.1,0c0,0,0.1,0,0.1,0c0.1,0,0.1,0,0.2,0.1c0,0,0.1,0,0.1,0c0.1,0,0.2,0.1,0.3,0.1
				c2.3,0.7,5.3,1,8.4,1c3.2,0,6.2-0.4,8.4-1c0.1,0,0.2-0.1,0.3-0.1c0,0,0.1,0,0.1,0c0.1,0,0.1,0,0.2-0.1c0,0,0.1,0,0.1,0
				c0,0,0.1,0,0.1,0c0,0,0.1,0,0.1,0c0,0,0.1,0,0.1,0c0,0,0.1,0,0.1,0c0,0,0.1,0,0.1,0c0,0,0.1,0,0.1,0c0,0,0.1,0,0.1,0
				c0,0,0.1,0,0.1,0c0,0,0.1,0,0.1,0c0,0,0.1,0,0.1,0c0,0,0.1,0,0.1,0c0,0,0.1,0,0.1,0c0,0,0.1,0,0.1,0c0,0,0.1,0,0.1,0
				c0,0,0.1,0,0.1,0c0,0,0,0,0.1,0c0,0,0,0,0.1,0c0,0,0,0,0.1,0c0,0,0,0,0.1,0c0,0,0,0,0.1,0c0,0,0,0,0.1,0c0,0,0,0,0.1,0
				c0,0,0,0,0.1,0c0,0,0,0,0.1,0c0,0,0,0,0.1,0c0,0,0,0,0,0c0,0,0,0,0,0c0,0,0,0,0,0c0,0,0,0,0,0c0,0,0,0,0,0c0,0,0,0,0,0
				c0,0,0,0,0,0c0,0,0,0,0,0c0,0,0,0,0,0c0,0,0,0,0,0c0,0,0,0,0,0c0,0,0,0,0,0c0,0,0,0,0,0c0,0,0,0,0,0c0,0,0,0,0,0c0,0,0,0,0,0
				c0,0,0,0,0,0c0,0,0,0,0-0.1c0,0,0,0,0,0c0,0,0,0,0,0c0,0,0,0,0,0c0,0,0,0,0,0c0,0,0,0,0,0c0,0,0,0,0,0c0,0,0,0,0,0c0,0,0,0,0,0
				c0,0,0,0,0,0c0,0,0,0,0,0c0,0,0,0,0,0c0,0,0,0,0,0c0,0,0,0,0,0c0,0,0,0,0,0v-0.1h0c0,0,0,0,0,0l0,0
				C340.5,37.7,340.5,37.6,340.5,37.6z M318.9,37c-0.6,0-1-0.5-1-1c0-0.6,0.5-1,1-1c0.6,0,1,0.5,1,1C319.9,36.5,319.5,37,318.9,37z"
				/>
		</g>
	</g>
	<path class="st7" d="M124.5,201.8h-0.4v-3.5c0-5.3-4.3-9.7-9.7-9.7c-5.3,0-9.7,4.3-9.7,9.7v3.5h-0.4c-1.9,0-3.4,1.5-3.4,3.4v17.2
		c0,1.9,1.5,3.4,3.4,3.4h20.1c1.9,0,3.4-1.5,3.4-3.4v-17.2C127.9,203.3,126.4,201.8,124.5,201.8z M108.1,198.3
		c0-3.5,2.9-6.4,6.4-6.4c3.5,0,6.4,2.9,6.4,6.4v3.5h-12.7V198.3z M115.4,219.8h-1.5v0h-1.2v-1.1h1.2v-4.2h-0.5v-1.1h0.5v-3.6
		c0,0,0,0,0,0h0c-0.5-0.1-1-0.5-1.3-0.9c0,0,0,0,0,0c-0.1-0.1-0.1-0.2-0.2-0.3c0,0,0-0.1,0-0.1c0-0.1-0.1-0.2-0.1-0.3
		c0-0.1,0-0.1-0.1-0.2c0-0.1,0-0.1,0-0.2c0-0.1,0-0.3,0-0.4c0-0.2,0-0.3,0-0.5c0-0.2,0.1-0.3,0.1-0.4c0.4-0.9,1.3-1.5,2.3-1.5
		s1.9,0.6,2.3,1.5c0.1,0.1,0.1,0.3,0.1,0.4c0,0.2,0,0.3,0,0.5c0,1.1-0.7,2-1.6,2.3v0.1V219.8z"/>
	<g>
		<path class="st13" d="M297.5,189.7h6.6c0.9,2,1.4,4.2,1.5,6.5H298C298,193.8,297.8,191.6,297.5,189.7z M294.6,180.6
			c3.8,1.5,6.8,4.3,8.8,7.9h-6.1C296.6,184.8,295.5,182.2,294.6,180.6z M289.1,188.4v-9c1.4,0.1,2.7,0.3,3.9,0.6
			c1,1.6,2.2,4.4,3,8.4H289.1z M280.8,204c-0.3-1.9-0.5-4-0.5-6.5h7.6v6.5H280.8z M280.7,189.7h7.1v6.5h-7.6
			C280.3,193.8,280.5,191.6,280.7,189.7z M283.9,180c1.3-0.3,2.6-0.6,3.9-0.6v9H281C281.7,184.4,283,181.6,283.9,180z M273.4,188.4
			c2-3.6,5.2-6.4,9-7.9c-0.9,1.7-2,4.3-2.7,7.9H273.4z M278.9,196.2h-7.7c0.1-2.3,0.6-4.5,1.5-6.5h6.7
			C279.2,191.6,279,193.8,278.9,196.2z M279.5,204h-6.7c-0.9-2-1.4-4.2-1.5-6.5h7.7C279,200,279.2,202.1,279.5,204z M279.7,205.3
			c0.7,3.7,1.8,6.3,2.7,7.9c-3.9-1.5-7-4.3-9-7.9H279.7z M287.8,205.3v9c-1.3,0-2.6-0.3-3.9-0.6c-1-1.6-2.2-4.3-3-8.4H287.8z
			 M296,205.3c-0.8,4.1-2,6.8-3,8.4c-1.2,0.4-2.5,0.5-3.9,0.6v-9H296z M289.1,197.5h7.6c0,2.4-0.2,4.6-0.5,6.5h-7.1V197.5z
			 M296.7,196.2h-7.6v-6.5h7.1C296.5,191.6,296.7,193.8,296.7,196.2z M298,197.5h7.5c-0.1,2.3-0.6,4.5-1.5,6.5h-6.5
			C297.7,202.1,298,200,298,197.5z M303.4,205.3c-1.9,3.6-5,6.4-8.8,7.9c0.9-1.6,2-4.2,2.7-7.9H303.4z"/>
	</g>
	<path class="st14" d="M327.7,17.3c-14.4,0-26,11.7-26,26c0,6.8,2.6,13,6.9,17.7l-64.7,51.7c-6.4-10.8-18.1-18-31.5-18
		c-8.4,0-16.1,2.9-22.3,7.6l-61.5-44.5c2.5-5,4-10.6,4-16.6c0-20.2-16.4-36.6-36.6-36.6c-20.2,0-36.6,16.4-36.6,36.6
		c0,20.2,16.4,36.6,36.6,36.6c12.9,0,24.2-6.7,30.7-16.8l60.4,43.7c-6.9,6.6-11.3,16-11.3,26.4c0,8.1,2.6,15.5,7.1,21.6l-45.3,37.5
		c-5.6-6.8-14-11.1-23.4-11.1c-16.7,0-30.4,13.6-30.4,30.4c0,16.7,13.6,30.4,30.4,30.4c16.7,0,30.4-13.6,30.4-30.4
		c0-6-1.7-11.5-4.7-16.2l45.5-37.6c6.7,7.4,16.3,12,27,12c10.7,0,20.4-4.6,27-12l31,27.2c-3.1,3.9-5,8.8-5,14.1
		c0,12.4,10.1,22.5,22.5,22.5c12.4,0,22.5-10.1,22.5-22.5c0-12.4-10.1-22.5-22.5-22.5c-5.7,0-11,2.2-15,5.7l-31.2-27.3
		c4.5-6.1,7.1-13.5,7.1-21.6c0-5.4-1.2-10.5-3.3-15.1l65.7-52.5c4.5,3.6,10.2,5.8,16.3,5.8c14.4,0,26-11.7,26-26
		C353.7,29,342,17.3,327.7,17.3z M96.1,74.1c-18.1,0-32.9-14.7-32.9-32.9C63.2,23.1,78,8.4,96.1,8.4S129,23.1,129,41.3
		C129,59.4,114.2,74.1,96.1,74.1z M141,209.6c0,14.7-11.9,26.6-26.6,26.6s-26.6-11.9-26.6-26.6c0-14.7,11.9-26.6,26.6-26.6
		S141,194.9,141,209.6z M288,178.1c10.4,0,18.8,8.4,18.8,18.8c0,10.4-8.4,18.8-18.8,18.8s-18.8-8.4-18.8-18.8
		C269.2,186.6,277.7,178.1,288,178.1z M212.5,164.5c-18.4,0-33.3-14.9-33.3-33.3c0-18.4,14.9-33.3,33.3-33.3
		c18.4,0,33.3,14.9,33.3,33.3C245.8,149.6,230.8,164.5,212.5,164.5z M327.7,65.6c-12.3,0-22.3-10-22.3-22.3
		c0-12.3,10-22.3,22.3-22.3C340,21,350,31,350,43.3C350,55.6,340,65.6,327.7,65.6z"/>
	<g>
		<path class="st7" d="M96.6,34.3c-2.7,0-4.9,2.2-4.9,4.9s2.2,4.9,4.9,4.9c2.7,0,4.9-2.2,4.9-4.9S99.3,34.3,96.6,34.3z"/>
		<path class="st7" d="M122.1,35.1c-1.3-1.7-3.1-3-5.1-3.8c0,0,0,0,0,0c-0.9-4.2-4.7-7.3-9.1-7.3c-1.4,0-2.7,0.3-3.9,0.8
			c0,0,0,0,0,0c-1.1-1.4-2.5-2.6-4-3.4c-2-1.2-4.4-1.8-6.7-1.8c-3.4,0-6.7,1.3-9.2,3.6c-2.2,2-3.6,4.5-4.2,7.4c0,0,0,0,0,0
			c-6,0.5-10.7,5.5-10.7,11.6c-0.1,6.5,5.3,11.8,11.8,11.8h30h1.1h0.6c6.5,0,11.8-5.2,11.8-11.6C124.5,39.7,123.6,37.2,122.1,35.1z
			 M108.1,40.8c0,0.2-0.1,0.4-0.4,0.5c-1,0.1-2,0.2-3,0.3c-0.2,0.6-0.4,1.2-0.7,1.8c0.6,0.8,1.2,1.6,1.9,2.3
			c0.1,0.2,0.1,0.4-0.1,0.6c-0.8,0.7-1.5,1.4-2.2,2.2c-0.1,0.2-0.4,0.2-0.6,0.1c-0.8-0.6-1.6-1.2-2.3-1.9c-0.6,0.3-1.2,0.6-1.8,0.7
			c-0.1,1-0.2,2-0.3,3c0,0.2-0.2,0.4-0.5,0.4c-1-0.1-2.1-0.1-3.1,0c-0.2,0-0.4-0.1-0.5-0.4c-0.1-1-0.2-2-0.3-3
			c-0.6-0.2-1.2-0.4-1.8-0.7c-0.8,0.6-1.6,1.2-2.3,1.9c-0.2,0.1-0.4,0.1-0.6-0.1c-0.7-0.8-1.4-1.5-2.2-2.2c-0.2-0.1-0.2-0.4-0.1-0.6
			c0.6-0.8,1.2-1.6,1.9-2.3c-0.3-0.6-0.6-1.2-0.7-1.8c-1-0.1-2-0.2-3-0.3c-0.2,0-0.4-0.2-0.4-0.5c0.1-1,0.1-2.1,0-3.1
			c0-0.2,0.1-0.4,0.4-0.5c1-0.1,2-0.2,3-0.3c0.2-0.6,0.4-1.2,0.7-1.8c-0.6-0.8-1.2-1.6-1.9-2.3c-0.1-0.2-0.1-0.4,0.1-0.6
			c0.8-0.7,1.5-1.4,2.2-2.2c0.1-0.2,0.4-0.2,0.6-0.1c0.8,0.6,1.6,1.2,2.3,1.9c0.6-0.3,1.2-0.6,1.8-0.7c0.1-1,0.2-2,0.3-3
			c0-0.2,0.2-0.4,0.5-0.4c1,0.1,2.1,0.1,3.1,0c0.2,0,0.4,0.1,0.5,0.4c0.1,1,0.2,2,0.3,3c0.6,0.2,1.2,0.4,1.8,0.7
			c0.8-0.6,1.6-1.2,2.3-1.9c0.2-0.1,0.4-0.1,0.6,0.1c0.7,0.8,1.4,1.5,2.2,2.2c0.2,0.1,0.2,0.4,0.1,0.6c-0.6,0.8-1.2,1.6-1.9,2.3
			c0.3,0.6,0.6,1.2,0.7,1.8c1,0.1,2,0.2,3,0.3c0.2,0,0.4,0.2,0.4,0.5C108,38.7,108,39.7,108.1,40.8z"/>
	</g>
	<rect x="197.4" y="112.1" class="st15" width="30.2" height="38.3"/>
	<text transform="matrix(1 0 0 1 197.3623 149.9829)" class="st7 st16 st17">?</text>
</g>
<g>
	<path class="st7" d="M408.7,102.1L408.7,102.1c-0.1-3.4-2.8-6.1-6.1-6.1l0,0c3.4,0,6.1-2.8,6.1-6.1l0,0c0,3.4,2.8,6.1,6.1,6.1l0,0
		C411.4,96,408.7,98.7,408.7,102.1z"/>
	<path class="st7" d="M408.5,106.1L408.5,106.1c0.1,5.9,4.9,10.7,10.8,10.8l0,0c-5.9,0.1-10.7,4.8-10.7,10.8l0,0
		c-0.1-5.9-4.8-10.7-10.7-10.7l0,0C403.7,116.8,408.5,112,408.5,106.1z"/>
	<path class="st7" d="M412.9,103.6c10.3-0.1,18.7-8.5,18.7-18.8l0.1,0.1c0.1,10.3,8.4,18.6,18.7,18.7l0,0
		c-10.3,0.1-18.7,8.5-18.7,18.8l-0.1-0.1C431.6,112,423.3,103.7,412.9,103.6L412.9,103.6z"/>
</g>
<g>
	<path class="st7" d="M98.8,298.8L98.8,298.8c-0.1-3.4-2.8-6.1-6.1-6.1l0,0c3.4,0,6.1-2.8,6.1-6.1l0,0c0,3.4,2.8,6.1,6.1,6.1l0,0
		C101.6,292.7,98.8,295.4,98.8,298.8z"/>
	<path class="st7" d="M98.7,302.8L98.7,302.8c0.1,5.9,4.9,10.7,10.8,10.8l0,0c-5.9,0.1-10.7,4.8-10.7,10.8l0,0
		c-0.1-5.9-4.8-10.7-10.7-10.7l0,0C93.9,313.5,98.6,308.7,98.7,302.8z"/>
	<path class="st7" d="M103.1,300.3c10.3-0.1,18.7-8.5,18.7-18.8l0.1,0.1c0.1,10.3,8.4,18.6,18.7,18.7l0,0
		c-10.3,0.1-18.7,8.5-18.7,18.8l-0.1-0.1C121.7,308.7,113.4,300.4,103.1,300.3L103.1,300.3z"/>
</g>
<g>
	<path class="st18" d="M609.7,42.2h-12.8c0.1-3.9,1-7.6,2.5-11h11.1C610.1,34.4,609.7,38,609.7,42.2z M610.9,29h-10.4
		c3.3-6,8.5-10.8,14.9-13.3C613.9,18.5,612.1,22.8,610.9,29z M613.1,29c1.3-6.9,3.4-11.5,5-14.2c2.1-0.6,4.3-1,6.6-1.1V29H613.1z
		 M626.9,55.4v-11h12.9c-0.1,4.1-0.4,7.8-0.9,11H626.9z M639.8,42.2h-12.9v-11h12C639.4,34.4,639.8,38,639.8,42.2z M638.6,29h-11.7
		V13.7c2.3,0.1,4.5,0.4,6.6,1C635.1,17.5,637.2,22.1,638.6,29z M640.7,29c-1.2-6.2-3-10.6-4.5-13.4c6.5,2.5,11.9,7.3,15.3,13.4
		H640.7z M641.1,31.2h11.4c1.5,3.4,2.3,7.1,2.5,11h-13C641.9,38,641.6,34.4,641.1,31.2z M642,44.4H655c-0.1,3.9-1.1,7.6-2.6,11H641
		C641.6,52.1,641.9,48.5,642,44.4z M651.4,57.5c-3.3,6.2-8.7,11-15.3,13.5c1.5-2.8,3.4-7.2,4.6-13.5H651.4z M638.5,57.5
		c-1.3,7-3.4,11.6-5.1,14.3c-2.1,0.6-4.3,0.9-6.5,1V57.5H638.5z M624.7,57.5v15.3c-2.3-0.1-4.5-0.4-6.6-1c-1.6-2.7-3.7-7.4-5-14.3
		H624.7z M624.7,55.4h-12c-0.5-3.2-0.9-6.8-0.9-11h12.9V55.4z M612.7,31.2h12v11h-12.9C611.9,38,612.2,34.4,612.7,31.2z M610.6,55.4
		h-11.1c-1.5-3.4-2.4-7.1-2.6-11h12.7C609.7,48.5,610.1,52.1,610.6,55.4z M610.9,57.5c1.2,6.2,3,10.6,4.5,13.4
		c-6.4-2.5-11.7-7.3-14.9-13.4H610.9z"/>
</g>
</svg>
