<?xml version="1.0" encoding="utf-8"?>
<!-- Generator: Adobe Illustrator 24.0.1, SVG Export Plug-In . SVG Version: 6.00 Build 0)  -->
<svg version="1.1" id="Layer_1" xmlns="http://www.w3.org/2000/svg" xmlns:xlink="http://www.w3.org/1999/xlink" x="0px" y="0px"
	 viewBox="0 0 4096 385" style="enable-background:new 0 0 4096 385;" xml:space="preserve">
<style type="text/css">
	.st0{fill:#008BAE;}
	.st1{fill:#005784;}
	.st2{fill:#004678;}
	.st3{fill:#00B6C7;}
	.st4{fill:#00598A;}
	.st5{fill:url(#SVGID_1_);}
	.st6{fill:url(#SVGID_2_);}
	.st7{fill:#00F5F6;}
	.st8{fill:url(#SVGID_3_);}
	.st9{fill:url(#SVGID_4_);}
	.st10{fill:#005E81;}
	.st11{fill:#006892;}
	.st12{fill:#302E97;}
	.st13{fill-rule:evenodd;clip-rule:evenodd;fill:#005E81;}
	.st14{fill:#004778;}
	.st15{fill:none;}
	.st16{font-family:'Montserrat-Bold';}
	.st17{font-size:44.0462px;}
	.st18{fill-rule:evenodd;clip-rule:evenodd;fill:#00F5F6;}
</style>
<g>
	<ellipse class="st0" cx="2540.1" cy="375.5" rx="380.9" ry="9.5"/>
	<g>
		<path class="st1" d="M2673.5,368.9H2531c-2.7,0-4.9-2.2-4.9-4.9V234.3h152.3V364C2678.4,366.7,2676.2,368.9,2673.5,368.9z"/>
		<path class="st2" d="M2668.9,336.4h-133.2c-0.7,0-1.4-0.6-1.4-1.4v-2.9c0-0.7,0.6-1.4,1.4-1.4h133.2c0.7,0,1.4,0.6,1.4,1.4v2.9
			C2670.2,335.8,2669.6,336.4,2668.9,336.4z"/>
		<path class="st2" d="M2668.9,318.4h-133.2c-0.7,0-1.4-0.6-1.4-1.4v-2.9c0-0.7,0.6-1.4,1.4-1.4h133.2c0.7,0,1.4,0.6,1.4,1.4v2.9
			C2670.2,317.8,2669.6,318.4,2668.9,318.4z"/>
		<path class="st2" d="M2668.9,354.4h-133.2c-0.7,0-1.4-0.6-1.4-1.4v-2.9c0-0.7,0.6-1.4,1.4-1.4h133.2c0.7,0,1.4,0.6,1.4,1.4v2.9
			C2670.2,353.8,2669.6,354.4,2668.9,354.4z"/>
		<g>
			<path class="st1" d="M2676.4,106.6h-148.3c-1.6,0-3-1.3-3-3v-23c0-1.6,1.3-3,3-3h148.3c1.6,0,3,1.3,3,3v23
				C2679.3,105.3,2678,106.6,2676.4,106.6z"/>
			<g>
				<rect x="2528.9" y="106.6" class="st2" width="146.7" height="4.2"/>
				<rect x="2528.9" y="106.6" class="st1" width="146.7" height="1.5"/>
			</g>
			<path class="st2" d="M2547.2,100.1h110.1c1.7,0,3-1.4,3-3V83c0-1.7-1.4-3-3-3h-110.1c-1.7,0-3,1.4-3,3v14.1
				C2544.2,98.7,2545.6,100.1,2547.2,100.1z"/>
			<g>
				<path class="st3" d="M2616.6,94.5h-28.7c-0.7,0-1.2-0.5-1.2-1.2V82.7c0-0.7,0.5-1.2,1.2-1.2h28.7c0.7,0,1.2,0.5,1.2,1.2v10.6
					C2617.8,94,2617.3,94.5,2616.6,94.5z"/>
				<g>
					<rect x="2586.8" y="96.5" class="st3" width="3.5" height="2.3"/>
					<rect x="2605.1" y="96.5" class="st3" width="3.5" height="2.3"/>
					<rect x="2595.9" y="96.5" class="st3" width="3.5" height="2.3"/>
					<rect x="2614.2" y="96.5" class="st3" width="3.5" height="2.3"/>
				</g>
			</g>
		</g>
		<g>
			<path class="st1" d="M2676.4,139.8h-148.3c-1.6,0-3-1.3-3-3v-23c0-1.6,1.3-3,3-3h148.3c1.6,0,3,1.3,3,3v23
				C2679.3,138.5,2678,139.8,2676.4,139.8z"/>
			<g>
				<rect x="2528.9" y="139.8" class="st2" width="146.7" height="4.2"/>
				<rect x="2528.9" y="139.8" class="st1" width="146.7" height="1.5"/>
			</g>
			<path class="st2" d="M2547.2,133.3h110.1c1.7,0,3-1.4,3-3v-14.1c0-1.7-1.4-3-3-3h-110.1c-1.7,0-3,1.4-3,3v14.1
				C2544.2,131.9,2545.6,133.3,2547.2,133.3z"/>
			<g>
				<path class="st3" d="M2616.6,127.7h-28.7c-0.7,0-1.2-0.5-1.2-1.2v-10.6c0-0.7,0.5-1.2,1.2-1.2h28.7c0.7,0,1.2,0.5,1.2,1.2v10.6
					C2617.8,127.1,2617.3,127.7,2616.6,127.7z"/>
				<g>
					<rect x="2586.8" y="129.7" class="st3" width="3.5" height="2.3"/>
					<rect x="2605.1" y="129.7" class="st3" width="3.5" height="2.3"/>
					<rect x="2595.9" y="129.7" class="st3" width="3.5" height="2.3"/>
					<rect x="2614.2" y="129.7" class="st3" width="3.5" height="2.3"/>
				</g>
			</g>
		</g>
		<g>
			<path class="st1" d="M2676.4,173h-148.3c-1.6,0-3-1.3-3-3v-23c0-1.6,1.3-3,3-3h148.3c1.6,0,3,1.3,3,3v23
				C2679.3,171.7,2678,173,2676.4,173z"/>
			<g>
				<rect x="2528.9" y="173" class="st2" width="146.7" height="4.2"/>
				<rect x="2528.9" y="173" class="st1" width="146.7" height="1.5"/>
			</g>
			<path class="st2" d="M2547.2,166.5h110.1c1.7,0,3-1.4,3-3v-14.1c0-1.7-1.4-3-3-3h-110.1c-1.7,0-3,1.4-3,3v14.1
				C2544.2,165.1,2545.6,166.5,2547.2,166.5z"/>
			<g>
				<path class="st3" d="M2616.6,160.9h-28.7c-0.7,0-1.2-0.5-1.2-1.2v-10.6c0-0.7,0.5-1.2,1.2-1.2h28.7c0.7,0,1.2,0.5,1.2,1.2v10.6
					C2617.8,160.3,2617.3,160.9,2616.6,160.9z"/>
				<g>
					<rect x="2586.8" y="162.9" class="st3" width="3.5" height="2.3"/>
					<rect x="2605.1" y="162.9" class="st3" width="3.5" height="2.3"/>
					<rect x="2595.9" y="162.9" class="st3" width="3.5" height="2.3"/>
					<rect x="2614.2" y="162.9" class="st3" width="3.5" height="2.3"/>
				</g>
			</g>
		</g>
		<g>
			<path class="st1" d="M2676.4,206.2h-148.3c-1.6,0-3-1.3-3-3v-23c0-1.6,1.3-3,3-3h148.3c1.6,0,3,1.3,3,3v23
				C2679.3,204.9,2678,206.2,2676.4,206.2z"/>
			<g>
				<rect x="2528.9" y="206.2" class="st2" width="146.7" height="4.2"/>
				<rect x="2528.9" y="206.2" class="st1" width="146.7" height="1.5"/>
			</g>
			<path class="st2" d="M2547.2,199.7h110.1c1.7,0,3-1.4,3-3v-14.1c0-1.7-1.4-3-3-3h-110.1c-1.7,0-3,1.4-3,3v14.1
				C2544.2,198.3,2545.6,199.7,2547.2,199.7z"/>
			<g>
				<path class="st3" d="M2616.6,194.1h-28.7c-0.7,0-1.2-0.5-1.2-1.2v-10.6c0-0.7,0.5-1.2,1.2-1.2h28.7c0.7,0,1.2,0.5,1.2,1.2v10.6
					C2617.8,193.5,2617.3,194.1,2616.6,194.1z"/>
				<g>
					<rect x="2586.8" y="196.1" class="st3" width="3.5" height="2.3"/>
					<rect x="2605.1" y="196.1" class="st3" width="3.5" height="2.3"/>
					<rect x="2595.9" y="196.1" class="st3" width="3.5" height="2.3"/>
					<rect x="2614.2" y="196.1" class="st3" width="3.5" height="2.3"/>
				</g>
			</g>
		</g>
		<rect x="2528.9" y="239.4" class="st2" width="146.7" height="1.5"/>
		<g>
			<path class="st1" d="M2676.4,239.4h-148.3c-1.6,0-3-1.3-3-3v-23c0-1.6,1.3-3,3-3h148.3c1.6,0,3,1.3,3,3v23
				C2679.3,238.1,2678,239.4,2676.4,239.4z"/>
			<path class="st2" d="M2547.2,232.9h110.1c1.7,0,3-1.4,3-3v-14.1c0-1.7-1.4-3-3-3h-110.1c-1.7,0-3,1.4-3,3v14.1
				C2544.2,231.5,2545.6,232.9,2547.2,232.9z"/>
			<g>
				<path class="st3" d="M2616.6,227.3h-28.7c-0.7,0-1.2-0.5-1.2-1.2v-10.6c0-0.7,0.5-1.2,1.2-1.2h28.7c0.7,0,1.2,0.5,1.2,1.2v10.6
					C2617.8,226.7,2617.3,227.3,2616.6,227.3z"/>
				<g>
					<rect x="2586.8" y="229.3" class="st3" width="3.5" height="2.3"/>
					<rect x="2605.1" y="229.3" class="st3" width="3.5" height="2.3"/>
					<rect x="2595.9" y="229.3" class="st3" width="3.5" height="2.3"/>
					<rect x="2614.2" y="229.3" class="st3" width="3.5" height="2.3"/>
				</g>
			</g>
		</g>
		<g>
			<path class="st3" d="M2627.9,274.5h-51.3c-1.5,0-2.7-1.2-2.7-2.7v-5.6c0-1.5,1.2-2.7,2.7-2.7h51.3c1.5,0,2.7,1.2,2.7,2.7v5.6
				C2630.6,273.3,2629.4,274.5,2627.9,274.5z"/>
			<path class="st1" d="M2624,271h-43.7c-0.5,0-0.9-0.4-0.9-0.9v-2.4c0-0.5,0.4-0.9,0.9-0.9h43.7c0.5,0,0.9,0.4,0.9,0.9v2.4
				C2624.9,270.6,2624.5,271,2624,271z"/>
		</g>
		<g>
			<path class="st3" d="M2627.9,295.5h-51.3c-1.5,0-2.7-1.2-2.7-2.7v-5.6c0-1.5,1.2-2.7,2.7-2.7h51.3c1.5,0,2.7,1.2,2.7,2.7v5.6
				C2630.6,294.3,2629.4,295.5,2627.9,295.5z"/>
			<path class="st1" d="M2624,292h-43.7c-0.5,0-0.9-0.4-0.9-0.9v-2.4c0-0.5,0.4-0.9,0.9-0.9h43.7c0.5,0,0.9,0.4,0.9,0.9v2.4
				C2624.9,291.6,2624.5,292,2624,292z"/>
		</g>
	</g>
	<g>
		<g>
			<path class="st4" d="M2705.1,376.9h-62.4c-5,0-9.1-4.1-9.1-9.1v-129c0-5,4.1-9.1,9.1-9.1h62.4c5,0,9.1,4.1,9.1,9.1v129
				C2714.2,372.9,2710.1,376.9,2705.1,376.9z"/>
			<g>
				<linearGradient id="SVGID_1_" gradientUnits="userSpaceOnUse" x1="2673.6055" y1="221.7937" x2="2674.1099" y2="409.4332">
					<stop  offset="5.051200e-04" style="stop-color:#00D8E2"/>
					<stop  offset="0.9872" style="stop-color:#00FCFA"/>
				</linearGradient>
				<path class="st5" d="M2643.4,233.5c-3.9,0-7.1,3.2-7.1,7.1v125.6c0,3.9,3.2,7.1,7.1,7.1h61.2c3.9,0,7.1-3.2,7.1-7.1V349
					l-67.8-115.5H2643.4z"/>
				<linearGradient id="SVGID_2_" gradientUnits="userSpaceOnUse" x1="2643.9336" y1="291.2462" x2="2711.7065" y2="291.2462">
					<stop  offset="5.051200e-04" style="stop-color:#00D8E2"/>
					<stop  offset="0.9872" style="stop-color:#00FCFA"/>
				</linearGradient>
				<path class="st6" d="M2704.6,233.5H2690h-1.2h-29.2h-3.8h-11.9l67.8,115.5V240.6C2711.7,236.7,2708.5,233.5,2704.6,233.5z"/>
			</g>
			<path class="st7" d="M2680.7,232.6h-13.4c-0.4,0-0.7-0.3-0.7-0.7v0c0-0.4,0.3-0.7,0.7-0.7h13.4c0.4,0,0.7,0.3,0.7,0.7v0
				C2681.4,232.2,2681.1,232.6,2680.7,232.6z"/>
			<path class="st7" d="M2683.9,231.9c0,0.4-0.3,0.7-0.7,0.7c-0.4,0-0.7-0.3-0.7-0.7s0.3-0.7,0.7-0.7
				C2683.6,231.1,2683.9,231.5,2683.9,231.9z"/>
		</g>
	</g>
	<g>
		<g>
			<path class="st4" d="M2495.1,369.5c-0.3-0.3-0.6-0.6-0.9-0.8l-12.4-7.9h-48.6H2419h-48.6l-12.4,7.9c-0.4,0.2-0.7,0.5-0.9,0.8
				c-2.2,2.6-0.5,6.9,3.3,6.9h58.7h14.1h58.7C2495.6,376.4,2497.3,372,2495.1,369.5z"/>
			<path class="st4" d="M2585.2,137.2c0-5.3-4.3-9.5-9.5-9.5h-299.2c-5.3,0-9.5,4.3-9.5,9.5v172.7h318.3V137.2z"/>
			<linearGradient id="SVGID_3_" gradientUnits="userSpaceOnUse" x1="2412.3618" y1="348.3252" x2="2397.8884" y2="119.3059">
				<stop  offset="5.051200e-04" style="stop-color:#00D8E2"/>
				<stop  offset="0.9872" style="stop-color:#00FCFA"/>
			</linearGradient>
			<polygon class="st8" points="2280.3,139 2280.3,310.2 2539.7,310.2 2408.2,139 			"/>
			<linearGradient id="SVGID_4_" gradientUnits="userSpaceOnUse" x1="2589.8242" y1="181.3772" x2="2431.6719" y2="249.8702">
				<stop  offset="5.051200e-04" style="stop-color:#00D8E2"/>
				<stop  offset="0.9872" style="stop-color:#00FCFA"/>
			</linearGradient>
			<polygon class="st9" points="2571.9,139 2408.2,139 2539.7,310.2 2571.9,310.2 			"/>
			<rect x="2394.2" y="343.5" class="st4" width="63.8" height="17.2"/>
			<rect x="2394.2" y="343.5" class="st2" width="63.8" height="3.6"/>
			<path class="st2" d="M2360.4,371h58.7h14.1h58.7c1.4,0,2.5-0.6,3.3-1.5c-0.3-0.3-0.6-0.6-0.9-0.8l-12.4-7.9h-48.6H2419h-48.6
				l-12.4,7.9c-0.4,0.2-0.7,0.5-0.9,0.8C2357.8,370.4,2358.9,371,2360.4,371z"/>
			<path class="st4" d="M2276.5,343.5h299.2c5.3,0,9.5-4.3,9.5-9.5v-24.1h-318.3V334C2266.9,339.2,2271.2,343.5,2276.5,343.5z"/>
		</g>
	</g>
	<g>
		<ellipse class="st10" cx="2393.4" cy="234.1" rx="6.7" ry="6.9"/>
		<polygon class="st2" points="2454.2,205.9 2461.1,205.9 2457.6,197.7 		"/>
		<path class="st2" d="M2500,178.7h-84c-0.8,0-1.5,0.7-1.5,1.5v46.8c0,0.8,0.7,1.5,1.5,1.5h45.6l11.3,11.3c0.3,0.3,0.7,0.4,1,0.4
			c0.2,0,0.4,0,0.6-0.1c0.5-0.2,0.9-0.8,0.9-1.3v-10.2h24.6c0.8,0,1.5-0.7,1.5-1.5v-46.8C2501.5,179.4,2500.8,178.7,2500,178.7z
			 M2464.5,214.4l-1.9-4.6h-10l-1.9,4.6h-5.1l9.6-21.6h4.9l9.6,21.6H2464.5z"/>
		<path class="st10" d="M2436.1,209.4h-84c-0.8,0-1.5,0.7-1.5,1.5v46.8c0,0.8,0.7,1.5,1.5,1.5h24.6v10.2c0,0.6,0.4,1.1,0.9,1.3
			c0.2,0.1,0.4,0.1,0.6,0.1c0.4,0,0.8-0.1,1-0.4l11.3-11.3h45.6c0.8,0,1.5-0.7,1.5-1.5v-46.8C2437.5,210,2436.9,209.4,2436.1,209.4z
			 M2400.4,249.9c-3.2,0-5.5-1.2-8.8-4.7c-5.9-0.7-10.1-5.2-10.1-11.1c0-6.4,5-11.2,11.8-11.2c6.8,0,11.8,4.7,11.8,11.2
			c0,5.1-3.1,9.1-7.7,10.5c1,1.1,2,1.5,3,1.5c1.3,0,2.5-0.5,3.5-1.6l2.2,2.6C2404.8,248.9,2402.8,249.9,2400.4,249.9z"/>
	</g>
	<path class="st11" d="M2674,291.5c-6.6,0-11.9,5.4-11.9,11.9c0,3.2,1.2,6.1,3.4,8.4l0,0c2.3,2.3,5.3,3.5,8.5,3.5
		c3.2,0,6.2-1.3,8.5-3.6c2.2-2.2,3.4-5.2,3.4-8.4C2685.9,296.8,2680.6,291.5,2674,291.5z M2682,310.8c-1-0.6-2.6-1.2-4.3-1.8
		c-0.4-0.2-0.8-0.3-1.3-0.5v-1.8c0.5-0.3,1.4-1.1,1.5-2.9c0.4-0.2,0.6-0.7,0.6-1.4c0-0.6-0.2-1-0.5-1.3c0.2-0.8,0.7-2.1,0.4-3.3
		c-0.3-1.4-2.2-1.9-3.7-1.9c-1.3,0-3,0.4-3.5,1.4c-0.7,0-1.1,0.3-1.3,0.5c-0.6,0.8-0.2,2.4,0,3.2c-0.3,0.2-0.5,0.7-0.5,1.3
		c0,0.6,0.2,1.1,0.6,1.4c0.1,1.8,1,2.6,1.5,2.9v1.8c-0.4,0.1-0.8,0.3-1.2,0.4c-1.6,0.6-3.3,1.2-4.4,1.8c-1.9-2-2.9-4.6-2.9-7.4
		c0-6,4.9-10.9,10.9-10.9c6,0,10.9,4.9,10.9,10.9C2684.9,306.2,2683.9,308.8,2682,310.8z"/>
	<g>
		<path class="st2" d="M2232.9,305.4v-5.1v-4.8v-3.9c0-1.7,1.4-3.1,3.1-3.1h17.2c1.2,0,2.2,0.7,2.7,1.7l1.7,3.5
			c0.5,1.1,1.6,1.7,2.7,1.7h42.4c1.7,0,3.1,1.4,3.1,3.1v6.8H2232.9z"/>
		<g>
			<rect x="2264.1" y="277.3" class="st7" width="64.6" height="86"/>
			<g>
				<rect x="2268.3" y="293.1" class="st2" width="56.1" height="2.8"/>
				<rect x="2268.3" y="302.4" class="st2" width="56.1" height="2.8"/>
				<rect x="2268.3" y="311.7" class="st12" width="56.1" height="2.8"/>
				<rect x="2268.3" y="321" class="st12" width="56.1" height="2.8"/>
				<rect x="2268.3" y="330.3" class="st12" width="56.1" height="2.8"/>
				<rect x="2268.3" y="339.6" class="st12" width="56.1" height="2.8"/>
				<rect x="2268.3" y="283.8" class="st2" width="56.1" height="2.8"/>
				<rect x="2268.3" y="348.9" class="st12" width="56.1" height="2.8"/>
			</g>
		</g>
		<path class="st2" d="M2325.3,310.8h-45h-42.8c-3.7,0-6.7,3-6.7,6.7V376c0,0.3,0,0.5,0,0.8h49.4h51.6c0-0.2,0-0.5,0-0.8v-58.6
			C2331.9,313.8,2329,310.8,2325.3,310.8z"/>
	</g>
	<g>
		<g>
			<g>
				<path class="st7" d="M2353.9,43.3C2353.9,43.3,2353.9,43.2,2353.9,43.3l0-5.5c0,0,0,0,0,0c0,0-0.1,0-0.1,0.1c0,0,0,0,0,0
					c0,0-0.1,0.1-0.1,0.1c0,0,0,0,0,0c0,0-0.1,0.1-0.1,0.1c0,0,0,0,0,0c0,0-0.1,0-0.1,0.1c0,0,0,0-0.1,0c0,0-0.1,0-0.1,0.1
					c0,0,0,0-0.1,0c0,0-0.1,0-0.1,0.1c0,0,0,0,0,0c-0.1,0-0.1,0.1-0.2,0.1c0,0,0,0,0,0c0,0-0.1,0-0.1,0.1c0,0,0,0-0.1,0
					c0,0-0.1,0-0.1,0c0,0,0,0-0.1,0c0,0-0.1,0-0.1,0c0,0,0,0-0.1,0c0,0-0.1,0-0.1,0.1c0,0,0,0,0,0c-0.1,0-0.1,0-0.2,0.1c0,0,0,0,0,0
					c0,0-0.1,0-0.1,0c0,0,0,0-0.1,0c0,0-0.1,0-0.1,0c0,0,0,0-0.1,0c0,0-0.1,0-0.1,0c0,0,0,0-0.1,0c-0.1,0-0.1,0-0.2,0
					c-2,0.6-4.7,0.9-7.5,0.9c-2.8,0-5.5-0.3-7.5-0.9c-0.1,0-0.1,0-0.2,0c0,0,0,0-0.1,0c0,0-0.1,0-0.1,0c0,0,0,0-0.1,0
					c0,0-0.1,0-0.1,0c0,0,0,0-0.1,0c0,0-0.1,0-0.1,0c0,0,0,0,0,0c-0.1,0-0.1,0-0.2-0.1c0,0,0,0,0,0c0,0-0.1,0-0.1-0.1c0,0,0,0-0.1,0
					c0,0-0.1,0-0.1,0c0,0,0,0-0.1,0c0,0-0.1,0-0.1,0c0,0,0,0-0.1,0c0,0-0.1,0-0.1-0.1c0,0,0,0,0,0c-0.1,0-0.1-0.1-0.2-0.1
					c0,0,0,0,0,0c0,0-0.1,0-0.1-0.1c0,0,0,0-0.1,0c0,0-0.1,0-0.1-0.1c0,0,0,0-0.1,0c0,0-0.1,0-0.1-0.1c0,0,0,0,0,0
					c0,0-0.1-0.1-0.1-0.1c0,0,0,0,0,0c0,0-0.1-0.1-0.1-0.1c0,0,0,0,0,0c0,0-0.1,0-0.1-0.1c0,0,0,0,0,0v5.4c0,0,0,0.1,0,0.1
					c0,0,0,0.1,0,0.1c0,0.6,1.1,1.4,2.8,1.9c2,0.6,4.6,1,7.5,1c2.8,0,5.5-0.3,7.5-1c1.7-0.5,2.8-1.3,2.8-1.9
					C2353.9,43.4,2353.9,43.3,2353.9,43.3z"/>
				<path class="st7" d="M2353.9,36C2353.9,35.9,2353.9,35.9,2353.9,36l0-5.5c0,0,0,0,0,0c0,0-0.1,0-0.1,0.1c0,0,0,0,0,0
					c0,0-0.1,0.1-0.1,0.1c0,0,0,0,0,0c0,0-0.1,0.1-0.1,0.1c0,0,0,0,0,0c0,0-0.1,0-0.1,0.1c0,0,0,0-0.1,0c0,0-0.1,0-0.1,0.1
					c0,0,0,0-0.1,0c0,0-0.1,0-0.1,0.1c0,0,0,0,0,0c-0.1,0-0.1,0.1-0.2,0.1c0,0,0,0,0,0c0,0-0.1,0-0.1,0.1c0,0,0,0-0.1,0
					c0,0-0.1,0-0.1,0c0,0,0,0-0.1,0c0,0-0.1,0-0.1,0c0,0,0,0-0.1,0c0,0-0.1,0-0.1,0.1c0,0,0,0,0,0c-0.1,0-0.1,0-0.2,0.1c0,0,0,0,0,0
					c0,0-0.1,0-0.1,0c0,0,0,0-0.1,0c0,0-0.1,0-0.1,0c0,0,0,0-0.1,0c0,0-0.1,0-0.1,0c0,0,0,0-0.1,0c-0.1,0-0.1,0-0.2,0
					c-2,0.6-4.7,0.9-7.5,0.9c-2.8,0-5.5-0.3-7.5-0.9c-0.1,0-0.1,0-0.2,0c0,0,0,0-0.1,0c0,0-0.1,0-0.1,0c0,0,0,0-0.1,0
					c0,0-0.1,0-0.1,0c0,0,0,0-0.1,0c0,0-0.1,0-0.1,0c0,0,0,0-0.1,0c-0.1,0-0.1,0-0.2-0.1c0,0,0,0,0,0c0,0-0.1,0-0.1-0.1
					c0,0,0,0-0.1,0c0,0-0.1,0-0.1,0c0,0,0,0-0.1,0c0,0-0.1,0-0.1,0c0,0,0,0-0.1,0c0,0-0.1,0-0.1-0.1c0,0,0,0,0,0
					c-0.1,0-0.1-0.1-0.2-0.1c0,0,0,0,0,0c0,0-0.1,0-0.1-0.1c0,0,0,0-0.1,0c0,0-0.1,0-0.1-0.1c0,0,0,0-0.1,0c0,0-0.1,0-0.1-0.1
					c0,0,0,0-0.1,0c0,0-0.1-0.1-0.1-0.1c0,0,0,0,0,0c0,0-0.1-0.1-0.1-0.1c0,0,0,0,0,0c0,0-0.1,0-0.1-0.1c0,0,0,0,0,0v5.4
					c0,0,0,0.1,0,0.1c0,0,0,0.1,0,0.1c0,0,0,0,0,0c0,0,0,0,0,0.1c0,0.2,0.4,1.1,3,1.9c2,0.6,4.6,0.9,7.3,0.9c2.7,0,5.3-0.3,7.3-0.9
					c2.6-0.8,3-1.6,3-1.9c0,0,0,0,0,0c0,0,0,0,0-0.1c0,0,0,0,0,0C2353.9,36,2353.9,36,2353.9,36z"/>
				<path class="st7" d="M2351.1,19.8c-2-0.6-4.6-1-7.5-1c-2.8,0-5.5,0.3-7.5,1c-1.7,0.5-2.8,1.3-2.8,1.9c0,0,0,0,0,0h0v0.1
					c0,0,0,0,0,0c0,0,0,0,0,0c0,0,0,0,0,0c0,0,0,0,0,0c0,0,0,0,0,0c0,0,0,0,0,0c0,0,0,0,0,0c0,0,0,0,0,0c0,0,0,0,0,0c0,0,0,0,0,0
					c0,0,0,0,0,0c0,0,0,0,0,0c0,0,0,0,0,0c0,0,0,0,0,0c0,0,0,0,0,0c0,0,0,0,0,0c0,0,0,0,0,0c0,0,0,0,0,0c0,0,0,0,0,0c0,0,0,0,0,0
					c0,0,0,0,0,0c0,0,0,0,0,0c0,0,0,0,0,0c0,0,0,0,0,0c0,0,0,0,0,0c0,0,0,0,0,0c0,0,0,0,0,0c0,0,0,0,0,0c0,0,0,0,0,0c0,0,0,0,0,0
					c0,0,0,0,0,0c0,0,0,0,0,0c0,0,0,0,0,0c0,0,0,0,0,0c0,0,0,0,0,0c0,0,0,0,0,0c0,0,0,0,0.1,0c0,0,0,0,0.1,0c0,0,0,0,0.1,0
					c0,0,0,0,0.1,0c0,0,0,0,0.1,0c0,0,0,0,0.1,0c0,0,0,0,0.1,0c0,0,0,0,0.1,0c0,0,0,0,0.1,0c0,0,0,0,0.1,0c0,0,0.1,0,0.1,0
					c0,0,0,0,0.1,0c0,0,0.1,0,0.1,0c0,0,0.1,0,0.1,0c0,0,0.1,0,0.1,0c0,0,0.1,0,0.1,0c0,0,0.1,0,0.1,0c0,0,0.1,0,0.1,0
					c0,0,0.1,0,0.1,0c0,0,0.1,0,0.1,0c0,0,0.1,0,0.1,0c0,0,0.1,0,0.1,0c0,0,0.1,0,0.1,0c0,0,0,0,0.1,0c0.1,0,0.2,0,0.2,0.1
					c2,0.6,4.6,0.9,7.3,0.9c2.7,0,5.3-0.3,7.3-0.9c0.1,0,0.2,0,0.2-0.1c0,0,0.1,0,0.1,0c0,0,0.1,0,0.1,0c0,0,0.1,0,0.1,0
					c0,0,0.1,0,0.1,0c0,0,0.1,0,0.1,0c0,0,0.1,0,0.1,0c0,0,0.1,0,0.1,0c0,0,0.1,0,0.1,0c0,0,0.1,0,0.1,0c0,0,0.1,0,0.1,0
					c0,0,0.1,0,0.1,0c0,0,0.1,0,0.1,0c0,0,0,0,0.1,0c0,0,0.1,0,0.1,0c0,0,0,0,0.1,0c0,0,0.1,0,0.1,0c0,0,0,0,0.1,0c0,0,0,0,0.1,0
					c0,0,0,0,0.1,0c0,0,0,0,0.1,0c0,0,0,0,0.1,0c0,0,0,0,0.1,0c0,0,0,0,0.1,0c0,0,0,0,0.1,0c0,0,0,0,0,0c0,0,0,0,0,0c0,0,0,0,0,0
					c0,0,0,0,0,0c0,0,0,0,0,0c0,0,0,0,0,0c0,0,0,0,0,0c0,0,0,0,0,0c0,0,0,0,0,0c0,0,0,0,0,0c0,0,0,0,0,0c0,0,0,0,0,0c0,0,0,0,0,0
					c0,0,0,0,0,0c0,0,0,0,0,0c0,0,0,0,0,0c0,0,0,0,0,0c0,0,0,0,0,0c0,0,0,0,0,0c0,0,0,0,0,0c0,0,0,0,0,0c0,0,0,0,0,0c0,0,0,0,0,0
					c0,0,0,0,0,0c0,0,0,0,0,0c0,0,0,0,0,0c0,0,0,0,0,0c0,0,0,0,0,0c0,0,0,0,0,0c0,0,0,0,0,0c0,0,0,0,0,0c0,0,0,0,0,0c0,0,0,0,0,0
					c0,0,0,0,0,0c0,0,0,0,0,0c0,0,0,0,0,0v-0.1h0c0,0,0,0,0,0C2353.9,21,2352.8,20.3,2351.1,19.8z"/>
				<path class="st7" d="M2353.9,28.8C2353.9,28.7,2353.9,28.7,2353.9,28.8l0-5.5c0,0,0,0,0,0c0,0-0.1,0-0.1,0.1c0,0,0,0,0,0
					c0,0-0.1,0.1-0.1,0.1c0,0,0,0,0,0c0,0-0.1,0.1-0.1,0.1c0,0,0,0,0,0c0,0-0.1,0-0.1,0.1c0,0,0,0-0.1,0c0,0-0.1,0-0.1,0.1
					c0,0,0,0-0.1,0c0,0-0.1,0-0.1,0.1c0,0,0,0,0,0c-0.1,0-0.1,0.1-0.2,0.1c0,0,0,0,0,0c0,0-0.1,0-0.1,0.1c0,0,0,0-0.1,0
					c0,0-0.1,0-0.1,0c0,0,0,0-0.1,0c0,0-0.1,0-0.1,0c0,0,0,0-0.1,0c0,0-0.1,0-0.1,0.1c0,0,0,0,0,0c-0.1,0-0.1,0-0.2,0.1c0,0,0,0,0,0
					c0,0-0.1,0-0.1,0c0,0,0,0-0.1,0c0,0-0.1,0-0.1,0c0,0,0,0-0.1,0c0,0-0.1,0-0.1,0c0,0,0,0-0.1,0c-0.1,0-0.1,0-0.2,0
					c-2,0.6-4.7,0.9-7.5,0.9c-2.8,0-5.5-0.3-7.5-0.9c-0.1,0-0.1,0-0.2,0c0,0,0,0-0.1,0c0,0-0.1,0-0.1,0c0,0,0,0-0.1,0
					c0,0-0.1,0-0.1,0c0,0,0,0-0.1,0c0,0-0.1,0-0.1,0c0,0,0,0,0,0c-0.1,0-0.1,0-0.2-0.1c0,0,0,0,0,0c0,0-0.1,0-0.1-0.1c0,0,0,0-0.1,0
					c0,0-0.1,0-0.1,0c0,0,0,0-0.1,0c0,0-0.1,0-0.1,0c0,0,0,0-0.1,0c0,0-0.1,0-0.1-0.1c0,0,0,0,0,0c-0.1,0-0.1-0.1-0.2-0.1
					c0,0,0,0,0,0c0,0-0.1,0-0.1-0.1c0,0,0,0-0.1,0c0,0-0.1,0-0.1-0.1c0,0,0,0-0.1,0c0,0-0.1,0-0.1-0.1c0,0,0,0,0,0
					c0,0-0.1-0.1-0.1-0.1c0,0,0,0,0,0c0,0-0.1-0.1-0.1-0.1c0,0,0,0,0,0c0,0-0.1,0-0.1-0.1c0,0,0,0,0,0v5.4c0,0,0,0.1,0,0.1
					c0,0,0,0.1,0,0.1c0,0,0,0,0,0c0,0,0,0,0,0h0V29c0,0,0,0,0,0c0,0,0,0,0,0c0,0,0,0,0,0c0,0,0,0,0,0c0,0,0,0,0,0c0,0,0,0,0,0
					c0,0,0,0,0,0c0,0,0,0,0,0c0,0,0,0,0,0c0,0,0,0,0,0c0,0,0,0,0,0c0,0,0,0,0,0c0,0,0,0,0,0c0,0,0,0,0,0c0,0,0,0,0,0c0,0,0,0,0,0
					c0,0,0,0,0,0c0,0,0,0,0,0c0,0,0,0,0,0c0,0,0,0,0,0c0,0,0,0,0,0c0,0,0,0,0,0c0,0,0,0,0,0c0,0,0,0,0,0c0,0,0,0,0,0c0,0,0,0,0,0
					c0,0,0,0,0,0c0,0,0,0,0,0c0,0,0,0,0,0c0,0,0,0,0,0c0,0,0,0,0,0c0,0,0,0,0,0c0,0,0,0,0,0c0,0,0,0,0,0c0,0,0,0,0,0c0,0,0,0,0,0
					c0,0,0,0,0.1,0c0,0,0,0,0.1,0c0,0,0,0,0.1,0c0,0,0,0,0.1,0c0,0,0,0,0.1,0c0,0,0,0,0.1,0c0,0,0,0,0.1,0c0,0,0,0,0.1,0
					c0,0,0,0,0.1,0c0,0,0,0,0.1,0c0,0,0.1,0,0.1,0c0,0,0,0,0.1,0c0,0,0.1,0,0.1,0c0,0,0.1,0,0.1,0c0,0,0.1,0,0.1,0c0,0,0.1,0,0.1,0
					c0,0,0.1,0,0.1,0c0,0,0.1,0,0.1,0c0,0,0.1,0,0.1,0c0,0,0.1,0,0.1,0c0,0,0.1,0,0.1,0c0,0,0.1,0,0.1,0c0,0,0.1,0,0.1,0
					c0,0,0,0,0.1,0c0.1,0,0.2,0,0.2,0.1c2,0.6,4.6,0.9,7.3,0.9c2.7,0,5.3-0.3,7.3-0.9c0.1,0,0.2,0,0.2-0.1c0,0,0.1,0,0.1,0
					c0,0,0.1,0,0.1,0c0,0,0.1,0,0.1,0c0,0,0.1,0,0.1,0c0,0,0.1,0,0.1,0c0,0,0.1,0,0.1,0c0,0,0.1,0,0.1,0c0,0,0.1,0,0.1,0
					c0,0,0.1,0,0.1,0c0,0,0.1,0,0.1,0c0,0,0.1,0,0.1,0c0,0,0.1,0,0.1,0c0,0,0,0,0.1,0c0,0,0.1,0,0.1,0c0,0,0,0,0.1,0c0,0,0,0,0.1,0
					c0,0,0,0,0.1,0c0,0,0,0,0.1,0c0,0,0,0,0.1,0c0,0,0,0,0.1,0c0,0,0,0,0.1,0c0,0,0,0,0.1,0c0,0,0,0,0.1,0c0,0,0,0,0.1,0
					c0,0,0,0,0,0c0,0,0,0,0,0c0,0,0,0,0,0c0,0,0,0,0,0c0,0,0,0,0,0c0,0,0,0,0,0c0,0,0,0,0,0c0,0,0,0,0,0c0,0,0,0,0,0c0,0,0,0,0,0
					c0,0,0,0,0,0c0,0,0,0,0,0c0,0,0,0,0,0c0,0,0,0,0,0c0,0,0,0,0,0c0,0,0,0,0,0c0,0,0,0,0,0c0,0,0,0,0,0c0,0,0,0,0,0c0,0,0,0,0,0
					c0,0,0,0,0,0c0,0,0,0,0,0c0,0,0,0,0,0c0,0,0,0,0,0c0,0,0,0,0,0c0,0,0,0,0,0c0,0,0,0,0,0c0,0,0,0,0,0c0,0,0,0,0,0c0,0,0,0,0,0
					c0,0,0,0,0,0c0,0,0,0,0,0c0,0,0,0,0,0c0,0,0,0,0,0c0,0,0,0,0,0c0,0,0,0,0,0v-0.1h0c0,0,0,0,0,0l0,0
					C2353.9,28.8,2353.9,28.8,2353.9,28.8z M2335.2,28.2c-0.5,0-0.9-0.4-0.9-0.9s0.4-0.9,0.9-0.9c0.5,0,0.9,0.4,0.9,0.9
					S2335.7,28.2,2335.2,28.2z"/>
			</g>
		</g>
		<path class="st7" d="M2167.3,170.6h-0.3v-3c0-4.6-3.7-8.4-8.4-8.4c-4.6,0-8.4,3.7-8.4,8.4v3h-0.3c-1.6,0-3,1.3-3,3v14.9
			c0,1.6,1.3,3,3,3h17.4c1.6,0,3-1.3,3-3v-14.9C2170.3,171.9,2168.9,170.6,2167.3,170.6z M2153.1,167.6c0-3,2.5-5.5,5.5-5.5
			s5.5,2.5,5.5,5.5v3h-11V167.6z M2159.4,186.1h-1.3v0h-1.1v-0.9h1.1v-3.6h-0.5v-0.9h0.5v-3.1c0,0,0,0,0,0h0
			c-0.5-0.1-0.8-0.4-1.1-0.8c0,0,0,0,0,0c-0.1-0.1-0.1-0.2-0.2-0.3c0,0,0-0.1,0-0.1c0-0.1-0.1-0.1-0.1-0.2c0-0.1,0-0.1,0-0.2
			c0-0.1,0-0.1,0-0.2c0-0.1,0-0.2,0-0.4c0-0.1,0-0.3,0-0.4c0-0.1,0.1-0.3,0.1-0.4c0.3-0.8,1.1-1.3,2-1.3c0.9,0,1.7,0.5,2,1.3
			c0.1,0.1,0.1,0.3,0.1,0.4c0,0.1,0,0.3,0,0.4c0,0.9-0.6,1.7-1.4,2v0.1V186.1z"/>
		<g>
			<path class="st13" d="M2316.7,160.1h5.7c0.8,1.7,1.2,3.6,1.3,5.6h-6.5C2317.1,163.6,2316.9,161.8,2316.7,160.1z M2314.2,152.2
				c3.3,1.3,5.9,3.7,7.6,6.8h-5.3C2315.9,155.9,2315,153.7,2314.2,152.2z M2309.5,159v-7.8c1.2,0.1,2.3,0.2,3.4,0.5
				c0.8,1.4,1.9,3.8,2.6,7.3H2309.5z M2302.3,172.4c-0.3-1.6-0.4-3.5-0.5-5.6h6.6v5.6H2302.3z M2302.2,160.1h6.1v5.6h-6.6
				C2301.8,163.6,2302,161.8,2302.2,160.1z M2305,151.7c1.1-0.3,2.2-0.5,3.4-0.5v7.8h-5.9C2303.1,155.5,2304.2,153.2,2305,151.7z
				 M2295.9,159c1.7-3.1,4.5-5.6,7.8-6.8c-0.8,1.4-1.7,3.7-2.3,6.8H2295.9z M2300.7,165.7h-6.6c0.1-2,0.5-3.9,1.3-5.6h5.8
				C2300.9,161.8,2300.7,163.6,2300.7,165.7z M2301.2,172.4h-5.8c-0.8-1.7-1.2-3.6-1.3-5.6h6.6
				C2300.7,169,2300.9,170.8,2301.2,172.4z M2301.3,173.6c0.6,3.2,1.6,5.4,2.3,6.9c-3.3-1.3-6.1-3.7-7.8-6.9H2301.3z M2308.4,173.6
				v7.8c-1.2,0-2.3-0.2-3.3-0.5c-0.8-1.4-1.9-3.8-2.6-7.3H2308.4z M2315.4,173.6c-0.7,3.5-1.7,5.9-2.6,7.3c-1.1,0.3-2.2,0.5-3.4,0.5
				v-7.8H2315.4z M2309.5,166.9h6.6c0,2.1-0.2,4-0.5,5.6h-6.1V166.9z M2316,165.7h-6.6v-5.6h6.1C2315.8,161.8,2316,163.6,2316,165.7
				z M2317.1,166.9h6.5c-0.1,2-0.6,3.9-1.3,5.6h-5.6C2316.9,170.8,2317.1,169,2317.1,166.9z M2321.8,173.6c-1.7,3.1-4.3,5.5-7.6,6.8
				c0.8-1.4,1.7-3.6,2.3-6.8H2321.8z"/>
		</g>
		<path class="st14" d="M2342.8,11.2c-12.4,0-22.5,10.1-22.5,22.5c0,5.9,2.3,11.3,6,15.3l-55.8,44.7c-5.5-9.3-15.6-15.6-27.2-15.6
			c-7.3,0-13.9,2.5-19.3,6.6l-53.1-38.4c2.2-4.3,3.4-9.2,3.4-14.3c0-17.4-14.2-31.6-31.6-31.6c-17.4,0-31.6,14.2-31.6,31.6
			c0,17.4,14.2,31.6,31.6,31.6c11.1,0,20.9-5.8,26.6-14.5l52.2,37.8c-6,5.7-9.7,13.8-9.7,22.8c0,7,2.3,13.4,6.1,18.7l-39.1,32.4
			c-4.8-5.8-12.1-9.6-20.2-9.6c-14.5,0-26.2,11.8-26.2,26.2c0,14.5,11.8,26.2,26.2,26.2s26.2-11.8,26.2-26.2c0-5.2-1.5-10-4.1-14
			l39.3-32.5c5.8,6.4,14.1,10.4,23.4,10.4c9.3,0,17.6-4,23.4-10.4l26.8,23.4c-2.7,3.3-4.3,7.6-4.3,12.2c0,10.7,8.7,19.5,19.5,19.5
			s19.5-8.7,19.5-19.5c0-10.7-8.7-19.5-19.5-19.5c-5,0-9.5,1.9-12.9,4.9l-26.9-23.6c3.8-5.2,6.1-11.7,6.1-18.6c0-4.7-1-9.1-2.8-13
			l56.7-45.4c3.9,3.1,8.8,5,14.1,5c12.4,0,22.5-10.1,22.5-22.5C2365.3,21.3,2355.2,11.2,2342.8,11.2z M2142.8,60.3
			c-15.7,0-28.4-12.7-28.4-28.4c0-15.7,12.7-28.4,28.4-28.4c15.7,0,28.4,12.7,28.4,28.4C2171.2,47.6,2158.4,60.3,2142.8,60.3z
			 M2181.5,177.3c0,12.7-10.3,23-23,23s-23-10.3-23-23c0-12.7,10.3-23,23-23S2181.5,164.6,2181.5,177.3z M2308.5,150.1
			c9,0,16.2,7.3,16.2,16.2c0,9-7.3,16.2-16.2,16.2s-16.2-7.3-16.2-16.2C2292.3,157.4,2299.6,150.1,2308.5,150.1z M2243.3,138.4
			c-15.9,0-28.8-12.9-28.8-28.8c0-15.9,12.9-28.8,28.8-28.8s28.8,12.9,28.8,28.8C2272,125.4,2259.1,138.4,2243.3,138.4z M2342.8,53
			c-10.6,0-19.3-8.6-19.3-19.3c0-10.6,8.6-19.3,19.3-19.3s19.3,8.6,19.3,19.3C2362.1,44.3,2353.4,53,2342.8,53z"/>
		<g>
			<path class="st7" d="M2143.2,25.9c-2.3,0-4.2,1.9-4.2,4.2s1.9,4.2,4.2,4.2s4.2-1.9,4.2-4.2S2145.5,25.9,2143.2,25.9z"/>
			<path class="st7" d="M2165.2,26.6c-1.1-1.5-2.7-2.6-4.4-3.3c0,0,0,0,0,0c-0.8-3.7-4.1-6.3-7.9-6.3c-1.2,0-2.3,0.2-3.4,0.7
				c0,0,0,0,0,0c-0.9-1.2-2.1-2.2-3.4-3c-1.8-1-3.8-1.5-5.8-1.5c-3,0-5.8,1.1-8,3.1c-1.9,1.7-3.1,3.9-3.6,6.4c0,0,0,0,0,0
				c-5.2,0.4-9.2,4.7-9.3,10c0,5.6,4.6,10.2,10.2,10.2h25.9h1h0.5c5.6,0,10.2-4.5,10.2-10C2167.3,30.5,2166.6,28.4,2165.2,26.6z
				 M2153.2,31.5c0,0.2-0.1,0.4-0.3,0.4c-0.9,0.1-1.7,0.2-2.6,0.3c-0.2,0.5-0.4,1.1-0.6,1.5c0.5,0.7,1.1,1.3,1.6,2
				c0.1,0.2,0.1,0.4-0.1,0.5c-0.7,0.6-1.3,1.2-1.9,1.9c-0.1,0.2-0.4,0.2-0.5,0.1c-0.7-0.5-1.3-1.1-2-1.6c-0.5,0.3-1,0.5-1.5,0.6
				c-0.1,0.9-0.2,1.7-0.3,2.6c0,0.2-0.2,0.3-0.4,0.3c-0.9-0.1-1.8-0.1-2.7,0c-0.2,0-0.4-0.1-0.4-0.3c-0.1-0.9-0.2-1.7-0.3-2.6
				c-0.5-0.2-1.1-0.4-1.5-0.6c-0.7,0.5-1.3,1.1-2,1.6c-0.2,0.1-0.4,0.1-0.5-0.1c-0.6-0.7-1.2-1.3-1.9-1.9c-0.2-0.1-0.2-0.4-0.1-0.5
				c0.5-0.7,1.1-1.3,1.6-2c-0.3-0.5-0.5-1-0.6-1.5c-0.9-0.1-1.7-0.2-2.6-0.3c-0.2,0-0.3-0.2-0.3-0.4c0.1-0.9,0.1-1.8,0-2.7
				c0-0.2,0.1-0.4,0.3-0.4c0.9-0.1,1.7-0.2,2.6-0.3c0.2-0.5,0.4-1.1,0.6-1.5c-0.5-0.7-1.1-1.3-1.6-2c-0.1-0.2-0.1-0.4,0.1-0.5
				c0.7-0.6,1.3-1.2,1.9-1.9c0.1-0.2,0.4-0.2,0.5-0.1c0.7,0.5,1.3,1.1,2,1.6c0.5-0.3,1-0.5,1.5-0.6c0.1-0.9,0.2-1.7,0.3-2.6
				c0-0.2,0.2-0.3,0.4-0.3c0.9,0.1,1.8,0.1,2.7,0c0.2,0,0.4,0.1,0.4,0.3c0.1,0.9,0.2,1.7,0.3,2.6c0.5,0.2,1.1,0.4,1.5,0.6
				c0.7-0.5,1.3-1.1,2-1.6c0.2-0.1,0.4-0.1,0.5,0.1c0.6,0.7,1.2,1.3,1.9,1.9c0.2,0.1,0.2,0.4,0.1,0.5c-0.5,0.7-1.1,1.3-1.6,2
				c0.3,0.5,0.5,1,0.6,1.5c0.9,0.1,1.7,0.2,2.6,0.3c0.2,0,0.3,0.2,0.3,0.4C2153.1,29.7,2153.1,30.6,2153.2,31.5z"/>
		</g>
		<rect x="2230.2" y="93.1" class="st15" width="26.1" height="33.1"/>
		<text transform="matrix(1 0 0 1 2230.2256 125.8047)" class="st7 st16 st17">?</text>
	</g>
	<g>
		<path class="st7" d="M2412.7,84.5L2412.7,84.5c0-2.9-2.4-5.3-5.3-5.3l0,0c2.9,0,5.3-2.4,5.3-5.3l0,0c0,2.9,2.4,5.3,5.3,5.3l0,0
			C2415.1,79.2,2412.7,81.5,2412.7,84.5z"/>
		<path class="st7" d="M2412.6,87.9L2412.6,87.9c0.1,5.1,4.2,9.2,9.3,9.3l0,0c-5.1,0-9.2,4.2-9.3,9.3l0,0c-0.1-5.1-4.2-9.2-9.3-9.3
			l0,0C2408.4,97.1,2412.6,93,2412.6,87.9z"/>
		<path class="st7" d="M2416.4,85.7c8.9-0.1,16.1-7.3,16.2-16.2l0.1,0.1c0.1,8.9,7.3,16.1,16.2,16.2l0,0
			c-8.9,0.1-16.1,7.3-16.2,16.2l-0.1-0.1C2432.5,93,2425.3,85.8,2416.4,85.7L2416.4,85.7z"/>
	</g>
	<g>
		<path class="st7" d="M2145.1,254.3L2145.1,254.3c0-2.9-2.4-5.3-5.3-5.3l0,0c2.9,0,5.3-2.4,5.3-5.3l0,0c0,2.9,2.4,5.3,5.3,5.3l0,0
			C2147.5,249.1,2145.1,251.4,2145.1,254.3z"/>
		<path class="st7" d="M2145,257.8L2145,257.8c0.1,5.1,4.2,9.2,9.3,9.3l0,0c-5.1,0-9.2,4.2-9.3,9.3l0,0c-0.1-5.1-4.2-9.2-9.3-9.3
			l0,0C2140.8,267,2145,262.9,2145,257.8z"/>
		<path class="st7" d="M2148.8,255.6c8.9-0.1,16.1-7.3,16.2-16.2l0.1,0.1c0.1,8.9,7.3,16.1,16.2,16.2l0,0
			c-8.9,0.1-16.1,7.3-16.2,16.2l-0.1-0.1C2164.9,262.9,2157.7,255.7,2148.8,255.6L2148.8,255.6z"/>
	</g>
	<g>
		<path class="st18" d="M2586.3,32.7h-11c0.1-3.4,0.9-6.6,2.2-9.5h9.6C2586.7,26,2586.4,29.1,2586.3,32.7z M2587.4,21.3h-9
			c2.8-5.2,7.4-9.3,12.9-11.5C2590,12.2,2588.4,16,2587.4,21.3z M2589.3,21.3c1.1-5.9,2.9-9.9,4.3-12.3c1.8-0.5,3.8-0.8,5.7-0.9
			v13.2H2589.3z M2601.2,44.1v-9.5h11.1c0,3.6-0.3,6.7-0.8,9.5H2601.2z M2612.3,32.7h-11.2v-9.5h10.4
			C2612,26,2612.3,29.1,2612.3,32.7z M2611.3,21.3h-10.1V8.1c2,0.1,3.9,0.4,5.7,0.9C2608.3,11.4,2610.1,15.4,2611.3,21.3z
			 M2613.1,21.3c-1-5.4-2.6-9.2-3.9-11.6c5.6,2.2,10.3,6.3,13.2,11.6H2613.1z M2613.4,23.2h9.9c1.3,2.9,2,6.1,2.1,9.5h-11.3
			C2614.2,29.1,2613.9,26,2613.4,23.2z M2614.2,34.6h11.3c-0.1,3.4-0.9,6.6-2.2,9.5h-9.8C2613.9,41.3,2614.2,38.2,2614.2,34.6z
			 M2622.4,46c-2.9,5.3-7.5,9.5-13.2,11.6c1.3-2.4,2.9-6.2,4-11.6H2622.4z M2611.2,46c-1.1,6-3,10-4.4,12.4
			c-1.8,0.5-3.7,0.8-5.7,0.9V46H2611.2z M2599.3,46v13.2c-2-0.1-3.9-0.4-5.7-0.9c-1.4-2.3-3.2-6.4-4.3-12.3H2599.3z M2599.3,44.1
			H2589c-0.4-2.8-0.7-5.9-0.8-9.5h11.1V44.1z M2589,23.2h10.4v9.5h-11.2C2588.2,29.1,2588.5,26,2589,23.2z M2587.1,44.1h-9.6
			c-1.3-2.9-2.1-6.1-2.2-9.5h11C2586.4,38.2,2586.7,41.3,2587.1,44.1z M2587.4,46c1,5.4,2.6,9.1,3.9,11.5
			c-5.5-2.2-10.1-6.3-12.9-11.5H2587.4z"/>
	</g>
</g>
</svg>
