<?xml version="1.0" encoding="utf-8"?>
<!-- Generator: Adobe Illustrator 24.0.1, SVG Export Plug-In . SVG Version: 6.00 Build 0)  -->
<svg version="1.1" id="Layer_1" xmlns="http://www.w3.org/2000/svg" xmlns:xlink="http://www.w3.org/1999/xlink" x="0px" y="0px"
	 viewBox="0 0 4096 385" style="enable-background:new 0 0 4096 385;" xml:space="preserve">
<style type="text/css">
	.st0{fill:#078AAB;}
	.st1{fill:#055681;}
	.st2{fill:#044674;}
	.st3{fill:#13B4C5;}
	.st4{fill:#045887;}
	.st5{fill:url(#SVGID_1_);}
	.st6{fill:url(#SVGID_2_);}
	.st7{fill:#0A8FAE;}
	.st8{fill:url(#SVGID_3_);}
	.st9{fill:url(#SVGID_4_);}
	.st10{fill:#4EF9F9;}
	.st11{fill:url(#SVGID_5_);}
	.st12{fill:url(#SVGID_6_);}
	.st13{fill:#20F2F5;}
	.st14{fill:#054774;}
	.st15{fill-rule:evenodd;clip-rule:evenodd;fill:#0B5D7F;}
	.st16{fill:#0B5D7F;}
	.st17{fill:url(#SVGID_7_);}
	.st18{fill-rule:evenodd;clip-rule:evenodd;fill:#20F2F5;}
	.st19{fill:url(#SVGID_8_);}
	.st20{fill:none;stroke:#2E2D77;stroke-width:1.5;stroke-miterlimit:10;stroke-dasharray:5;}
	.st21{fill:url(#SVGID_9_);}
	.st22{fill:#06678F;}
</style>
<ellipse class="st0" cx="2435.2" cy="374" rx="440.8" ry="11"/>
<g>
	<path class="st1" d="M2747.3,374.7h-146.5c-2.8,0-5-2.3-5-5V236.4h156.5v133.2C2752.3,372.4,2750.1,374.7,2747.3,374.7
		C2747.3,374.7,2747.3,374.7,2747.3,374.7L2747.3,374.7z"/>
	<g>
		<path class="st2" d="M2605.6,335.6h136.9c0.8,0,1.4,0.6,1.4,1.4v2.9c0,0.8-0.6,1.4-1.4,1.4h-136.9c-0.8,0-1.4-0.6-1.4-1.4V337
			C2604.3,336.3,2604.9,335.6,2605.6,335.6z"/>
		<path class="st2" d="M2605.6,317.1h136.9c0.8,0,1.4,0.6,1.4,1.4v2.9c0,0.8-0.6,1.4-1.4,1.4h-136.9c-0.8,0-1.4-0.6-1.4-1.4v-2.9
			C2604.3,317.7,2604.9,317.1,2605.6,317.1z"/>
		<path class="st2" d="M2605.6,354.1h136.9c0.8,0,1.4,0.6,1.4,1.4v2.9c0,0.8-0.6,1.4-1.4,1.4h-136.9c-0.8,0-1.4-0.6-1.4-1.4v-2.9
			C2604.3,354.8,2604.9,354.1,2605.6,354.1z"/>
	</g>
	<path class="st1" d="M2597.9,75.5h152.3c1.7,0,3,1.4,3,3v23.6c0,1.7-1.4,3-3,3h-152.3c-1.7,0-3-1.4-3-3V78.6
		C2594.9,76.9,2596.2,75.5,2597.9,75.5z"/>
	<path class="st2" d="M2598.7,105.2h150.7v4.3h-150.7V105.2z"/>
	<path class="st1" d="M2598.7,105.2h150.7v1.5h-150.7V105.2z"/>
	<path class="st2" d="M2617.5,77.9h113.1c1.7,0,3.1,1.4,3.1,3.1v14.4c0,1.7-1.4,3.1-3.1,3.1h-113.1c-1.7,0-3.1-1.4-3.1-3.1V81
		C2614.4,79.3,2615.8,77.9,2617.5,77.9z"/>
	<g>
		<path class="st3" d="M2659.4,79.4h29.5c0.7,0,1.3,0.6,1.3,1.3v10.9c0,0.7-0.6,1.3-1.3,1.3h-29.5c-0.7,0-1.3-0.6-1.3-1.3V80.6
			C2658.1,79.9,2658.7,79.4,2659.4,79.4z"/>
		<g>
			<path id="H_39_" class="st3" d="M2658.2,94.9h3.6v2.4h-3.6V94.9z"/>
		</g>
		<g>
			<path id="H_38_" class="st3" d="M2677,94.9h3.6v2.4h-3.6V94.9z"/>
		</g>
		<g>
			<path id="H_37_" class="st3" d="M2667.6,94.9h3.6v2.4h-3.6V94.9z"/>
		</g>
		<g>
			<path id="H_36_" class="st3" d="M2686.4,94.9h3.6v2.4h-3.6V94.9z"/>
		</g>
	</g>
	<path class="st1" d="M2597.9,109.6h152.3c1.7,0,3,1.4,3,3v23.6c0,1.7-1.4,3-3,3h-152.3c-1.7,0-3-1.4-3-3v-23.6
		C2594.9,111,2596.2,109.6,2597.9,109.6z"/>
	<path class="st2" d="M2598.7,139.3h150.7v4.3h-150.7V139.3z"/>
	<path class="st1" d="M2598.7,139.3h150.7v1.5h-150.7V139.3z"/>
	<path class="st2" d="M2617.5,112h113.1c1.7,0,3.1,1.4,3.1,3.1v14.4c0,1.7-1.4,3.1-3.1,3.1h-113.1c-1.7,0-3.1-1.4-3.1-3.1v-14.4
		C2614.4,113.4,2615.8,112,2617.5,112z"/>
	<g>
		<path class="st3" d="M2659.4,113.5h29.5c0.7,0,1.3,0.6,1.3,1.3v10.9c0,0.7-0.6,1.3-1.3,1.3h-29.5c-0.7,0-1.3-0.6-1.3-1.3v-10.9
			C2658.1,114,2658.7,113.5,2659.4,113.5z"/>
		<g>
			<path id="H_35_" class="st3" d="M2658.2,129h3.6v2.4h-3.6V129z"/>
		</g>
		<g>
			<path id="H_34_" class="st3" d="M2677,129h3.6v2.4h-3.6V129z"/>
		</g>
		<g>
			<path id="H_33_" class="st3" d="M2667.6,129h3.6v2.4h-3.6V129z"/>
		</g>
		<g>
			<path id="H_32_" class="st3" d="M2686.4,129h3.6v2.4h-3.6V129z"/>
		</g>
	</g>
	<path class="st1" d="M2597.9,143.7h152.3c1.7,0,3,1.4,3,3v23.6c0,1.7-1.4,3-3,3h-152.3c-1.7,0-3-1.4-3-3v-23.6
		C2594.9,145.1,2596.2,143.7,2597.9,143.7z"/>
	<path class="st2" d="M2598.7,173.4h150.7v4.3h-150.7V173.4z"/>
	<path class="st1" d="M2598.7,173.4h150.7v1.5h-150.7V173.4z"/>
	<path class="st2" d="M2617.5,146.1h113.1c1.7,0,3.1,1.4,3.1,3.1v14.4c0,1.7-1.4,3.1-3.1,3.1h-113.1c-1.7,0-3.1-1.4-3.1-3.1v-14.4
		C2614.4,147.5,2615.8,146.1,2617.5,146.1z"/>
	<g>
		<path class="st3" d="M2659.4,147.6h29.5c0.7,0,1.3,0.6,1.3,1.3v10.9c0,0.7-0.6,1.3-1.3,1.3h-29.5c-0.7,0-1.3-0.6-1.3-1.3v-10.9
			C2658.1,148.1,2658.7,147.6,2659.4,147.6z"/>
		<g>
			<path id="H_31_" class="st3" d="M2658.2,163.1h3.6v2.4h-3.6V163.1z"/>
		</g>
		<g>
			<path id="H_30_" class="st3" d="M2677,163.1h3.6v2.4h-3.6V163.1z"/>
		</g>
		<g>
			<path id="H_29_" class="st3" d="M2667.6,163.1h3.6v2.4h-3.6V163.1z"/>
		</g>
		<g>
			<path id="H_28_" class="st3" d="M2686.4,163.1h3.6v2.4h-3.6V163.1z"/>
		</g>
	</g>
	<path class="st1" d="M2597.9,177.8h152.3c1.7,0,3,1.4,3,3v23.6c0,1.7-1.4,3-3,3h-152.3c-1.7,0-3-1.4-3-3v-23.6
		C2594.9,179.2,2596.2,177.8,2597.9,177.8z"/>
	<path class="st2" d="M2598.7,207.5h150.7v4.3h-150.7V207.5z"/>
	<path class="st1" d="M2598.7,207.5h150.7v1.5h-150.7V207.5z"/>
	<path class="st2" d="M2617.5,180.2h113.1c1.7,0,3.1,1.4,3.1,3.1v14.4c0,1.7-1.4,3.1-3.1,3.1h-113.1c-1.7,0-3.1-1.4-3.1-3.1v-14.4
		C2614.4,181.6,2615.8,180.2,2617.5,180.2z"/>
	<g>
		<path class="st3" d="M2659.4,181.7h29.5c0.7,0,1.3,0.6,1.3,1.3v10.9c0,0.7-0.6,1.3-1.3,1.3h-29.5c-0.7,0-1.3-0.6-1.3-1.3v-10.9
			C2658.1,182.2,2658.7,181.7,2659.4,181.7z"/>
		<g>
			<path id="H_27_" class="st3" d="M2658.2,197.2h3.6v2.4h-3.6V197.2z"/>
		</g>
		<g>
			<path id="H_26_" class="st3" d="M2677,197.2h3.6v2.4h-3.6V197.2z"/>
		</g>
		<g>
			<path id="H_25_" class="st3" d="M2667.6,197.2h3.6v2.4h-3.6V197.2z"/>
		</g>
		<g>
			<path id="H_24_" class="st3" d="M2686.4,197.2h3.6v2.4h-3.6V197.2z"/>
		</g>
	</g>
	<path class="st2" d="M2598.7,241.6h150.7v1.5h-150.7V241.6z"/>
	<path class="st1" d="M2597.9,211.9h152.3c1.7,0,3,1.4,3,3v23.6c0,1.7-1.4,3-3,3h-152.3c-1.7,0-3-1.4-3-3V215
		C2594.9,213.3,2596.2,211.9,2597.9,211.9z"/>
	<path class="st2" d="M2617.5,214.3h113.1c1.7,0,3.1,1.4,3.1,3.1v14.4c0,1.7-1.4,3.1-3.1,3.1h-113.1c-1.7,0-3.1-1.4-3.1-3.1v-14.4
		C2614.4,215.7,2615.8,214.3,2617.5,214.3z"/>
	<g>
		<path class="st3" d="M2659.4,215.8h29.5c0.7,0,1.3,0.6,1.3,1.3V228c0,0.7-0.6,1.3-1.3,1.3h-29.5c-0.7,0-1.3-0.6-1.3-1.3V217
			C2658.1,216.4,2658.7,215.8,2659.4,215.8z"/>
		<g>
			<path id="H_23_" class="st3" d="M2658.2,231.3h3.6v2.4h-3.6V231.3z"/>
		</g>
		<g>
			<path id="H_22_" class="st3" d="M2677,231.3h3.6v2.4h-3.6V231.3z"/>
		</g>
		<g>
			<path id="H_21_" class="st3" d="M2667.6,231.3h3.6v2.4h-3.6V231.3z"/>
		</g>
		<g>
			<path id="H_20_" class="st3" d="M2686.4,231.3h3.6v2.4h-3.6V231.3z"/>
		</g>
		<path class="st3" d="M2647.7,266.5h52.8c1.5,0,2.7,1.2,2.7,2.7v5.8c0,1.5-1.2,2.7-2.7,2.7h-52.8c-1.5,0-2.7-1.2-2.7-2.7v-5.8
			C2645,267.7,2646.2,266.5,2647.7,266.5z"/>
	</g>
	<path class="st1" d="M2651.5,269.7h44.9c0.5,0,0.9,0.4,0.9,0.9v2.5c0,0.5-0.4,0.9-0.9,0.9h-44.9c-0.5,0-0.9-0.4-0.9-0.9v-2.5
		C2650.6,270.2,2651,269.7,2651.5,269.7z"/>
	<path class="st3" d="M2647.7,288.1h52.8c1.5,0,2.7,1.2,2.7,2.7v5.8c0,1.5-1.2,2.7-2.7,2.7h-52.8c-1.5,0-2.7-1.2-2.7-2.7v-5.8
		C2645,289.3,2646.2,288.1,2647.7,288.1z"/>
	<path class="st1" d="M2651.5,291.4h44.9c0.5,0,0.9,0.4,0.9,0.9v2.5c0,0.5-0.4,0.9-0.9,0.9h-44.9c-0.5,0-0.9-0.4-0.9-0.9v-2.5
		C2650.6,291.8,2651,291.4,2651.5,291.4z"/>
</g>
<g>
	<g>
		<path class="st4" d="M2435.7,196.7c0-3.9-3.2-7.1-7.1-7.1l0,0h-221.6c-3.9,0-7.1,3.2-7.1,7.1v127.9h235.8L2435.7,196.7
			L2435.7,196.7z"/>
		
			<linearGradient id="SVGID_1_" gradientUnits="userSpaceOnUse" x1="1628.5208" y1="397.9705" x2="1628.4774" y2="398.4237" gradientTransform="matrix(247.0701 0 0 -163.09 -400056.1562 65206.7734)">
			<stop  offset="0" style="stop-color:#12D5E0"/>
			<stop  offset="0.99" style="stop-color:#4EF9F9"/>
		</linearGradient>
		<path class="st5" d="M2209.9,198.1l0,126.8l192.1,0l-97.3-126.8L2209.9,198.1z"/>
		
			<linearGradient id="SVGID_2_" gradientUnits="userSpaceOnUse" x1="1624.785" y1="398.4136" x2="1624.0985" y2="398.1026" gradientTransform="matrix(155.8999 0 0 -163.08 -250871.0469 65202.7812)">
			<stop  offset="0" style="stop-color:#12D5E0"/>
			<stop  offset="0.99" style="stop-color:#4EF9F9"/>
		</linearGradient>
		<path class="st6" d="M2425.9,198.1h-121.2l97.3,126.8h23.9L2425.9,198.1z"/>
		<g>
			<path class="st4" d="M2207.1,349.6h221.6c3.9,0,7.1-3.2,7.1-7.1c0,0,0,0,0,0v-17.8H2200v17.8
				C2200,346.4,2203.2,349.6,2207.1,349.6L2207.1,349.6L2207.1,349.6L2207.1,349.6z"/>
			<path class="st4" d="M2463.9,360c-0.6-0.7-1.3-1.3-2-1.7l-26.2-16.8H2200l-26.2,16.8c-0.8,0.5-1.4,1.1-2,1.7
				c-3.2,3.8-2.7,9.4,1.1,12.6c1.6,1.4,3.7,2.1,5.8,2.1H2457c4.9,0.1,9-3.9,9-8.8C2466.1,363.7,2465.3,361.6,2463.9,360L2463.9,360z
				"/>
		</g>
		<path class="st2" d="M2178.7,363.2H2457c2.7,0.1,5.2-1.1,6.9-3.2c-0.6-0.7-1.3-1.3-2-1.7l-26.2-16.8H2200l-26.2,16.8
			c-0.8,0.5-1.4,1.1-2,1.7C2173.5,362.1,2176,363.2,2178.7,363.2L2178.7,363.2z"/>
	</g>
	<g>
		<path class="st7" d="M2342.8,251.9v-4.2c0-1.5-1.2-2.7-2.7-2.7h-44.3c-1.5,0-2.7,1.2-2.7,2.7v4.2h4.8v21.3h-4.8v4.2
			c0,1.5,1.2,2.7,2.7,2.7h44.3c1.5,0,2.7-1.2,2.7-2.7v-4.2h-4.8v-21.3H2342.8z M2326.6,246.6h4v4h-4V246.6z M2333.9,251.9v21.3
			h-32.2v-21.3H2333.9z M2319.4,246.6h4v4h-4V246.6z M2312.3,246.6h4v4h-4V246.6z M2305.1,246.6h4v4h-4V246.6z M2297.9,246.6h4v4h-4
			V246.6z M2301.9,278.8h-4v-4h4V278.8z M2309.1,278.8h-4v-4h4V278.8z M2316.3,278.8h-4v-4h4V278.8z M2323.5,278.8h-4v-4h4V278.8z
			 M2330.6,278.8h-4v-4h4V278.8z M2337.8,278.8h-4v-4h4V278.8z M2337.8,250.6h-4v-4h4V250.6z"/>
		<path class="st7" d="M2314.7,270.6l9.7-5.6c1.4-0.8,1.4-2.9,0-3.7l-9.7-5.6c-1.4-0.8-3.2,0.2-3.2,1.9v11.2
			C2311.5,270.4,2313.3,271.4,2314.7,270.6z"/>
	</g>
</g>
<g>
	<g>
		<g>
			<path class="st4" d="M2594.4,368.6c-0.2-0.3-0.5-0.5-0.8-0.7l-10.8-6.9h-42.6h-12.4h-42.6l-10.8,6.9c-0.3,0.2-0.6,0.5-0.8,0.7
				c-2,2.2-0.5,6.1,2.9,6.1h51.4h12.4h51.4C2594.9,374.7,2596.4,370.9,2594.4,368.6z"/>
			<path class="st4" d="M2673.4,165.2c0-4.6-3.7-8.3-8.3-8.3H2403c-4.6,0-8.3,3.7-8.3,8.3v151.3h278.8V165.2z"/>
			<linearGradient id="SVGID_3_" gradientUnits="userSpaceOnUse" x1="2522.0105" y1="350.1049" x2="2509.3347" y2="149.5291">
				<stop  offset="5.051200e-04" style="stop-color:#12D5E0"/>
				<stop  offset="0.9872" style="stop-color:#4EF9F9"/>
			</linearGradient>
			<polygon class="st8" points="2406.3,166.7 2406.3,316.7 2633.5,316.7 2518.4,166.7 			"/>
			<linearGradient id="SVGID_4_" gradientUnits="userSpaceOnUse" x1="2677.4329" y1="203.8913" x2="2538.9224" y2="263.8777">
				<stop  offset="5.051200e-04" style="stop-color:#12D5E0"/>
				<stop  offset="0.9872" style="stop-color:#4EF9F9"/>
			</linearGradient>
			<polygon class="st9" points="2661.7,166.7 2518.4,166.7 2633.5,316.7 2661.7,316.7 			"/>
			<rect x="2506.1" y="345.9" class="st4" width="55.9" height="15"/>
			<rect x="2506.1" y="345.9" class="st2" width="55.9" height="3.1"/>
			<path class="st2" d="M2476.5,369.9h51.4h12.4h51.4c1.2,0,2.2-0.5,2.9-1.3c-0.2-0.3-0.5-0.5-0.8-0.7l-10.8-6.9h-42.6h-12.4h-42.6
				l-10.8,6.9c-0.3,0.2-0.6,0.5-0.8,0.7C2474.3,369.4,2475.2,369.9,2476.5,369.9z"/>
			<path class="st4" d="M2403,345.9h262.1c4.6,0,8.3-3.7,8.3-8.3v-21.1h-278.8v21.1C2394.6,342.1,2398.4,345.9,2403,345.9z"/>
		</g>
	</g>
	<g>
		<path class="st10" d="M2532.7,255.3l19.9-19.1l13.9,12.4v-24c0-2.4-2-4.4-4.4-4.4h-55.8c-2.4,0-4.4,2-4.4,4.4v29.9
			c8-3.6,21.1-9.6,21.1-9.6L2532.7,255.3z"/>
		<path class="st7" d="M2566.5,263.5v-14.9l-13.9-12.4l-19.9,19.1l-9.6-10.4c0,0-13.1,6-21.1,9.6v8.9c0,1.9,1.5,3.4,3.4,3.4h57.8
			C2565,266.9,2566.5,265.4,2566.5,263.5z"/>
		<path class="st7" d="M2515.9,237.8c0,1.8-1.4,3.2-3.2,3.2c-1.8,0-3.2-1.4-3.2-3.2c0-1.8,1.4-3.2,3.2-3.2
			C2514.5,234.6,2515.9,236,2515.9,237.8z"/>
	</g>
</g>
<g>
	<g>
		<g>
			<g>
				<path class="st4" d="M2200.7,374.7h-52.3c-4.2,0-7.6-3.4-7.6-7.6V258.9c0-4.2,3.4-7.6,7.6-7.6h52.3c4.2,0,7.6,3.4,7.6,7.6v108.2
					C2208.3,371.3,2204.9,374.7,2200.7,374.7z"/>
				<g>
					<linearGradient id="SVGID_5_" gradientUnits="userSpaceOnUse" x1="2174.269" y1="244.5598" x2="2174.6921" y2="401.9398">
						<stop  offset="5.051200e-04" style="stop-color:#12D5E0"/>
						<stop  offset="0.9872" style="stop-color:#4EF9F9"/>
					</linearGradient>
					<path class="st11" d="M2148.9,254.4c-3.3,0-6,2.7-6,6v105.3c0,3.3,2.7,6,6,6h51.3c3.3,0,6-2.7,6-6v-14.4l-56.8-96.9H2148.9z"/>
					<linearGradient id="SVGID_6_" gradientUnits="userSpaceOnUse" x1="2149.3821" y1="302.8122" x2="2206.2258" y2="302.8122">
						<stop  offset="5.051200e-04" style="stop-color:#12D5E0"/>
						<stop  offset="0.9872" style="stop-color:#4EF9F9"/>
					</linearGradient>
					<path class="st12" d="M2200.2,254.4H2188h-1h-24.5h-3.2h-10l56.8,96.9v-90.9C2206.2,257,2203.5,254.4,2200.2,254.4z"/>
				</g>
				<path class="st13" d="M2180.4,253.6h-11.6c-0.2,0-0.4-0.2-0.4-0.4v-0.4c0-0.2,0.2-0.4,0.4-0.4h11.6c0.2,0,0.4,0.2,0.4,0.4v0.4
					C2180.8,253.4,2180.6,253.6,2180.4,253.6z"/>
				<path class="st13" d="M2182.9,253c0,0.3-0.3,0.6-0.6,0.6s-0.6-0.3-0.6-0.6c0-0.3,0.3-0.6,0.6-0.6S2182.9,252.7,2182.9,253z"/>
			</g>
		</g>
	</g>
	<path class="st7" d="M2169.8,301.4v5.9v2.4V322c-1,0.1-2.3,0.6-3.5,1.4c-2.4,1.5-3.8,3.7-3,4.9c0.7,1.1,3.3,0.8,5.7-0.7
		c1.9-1.2,3.2-2.9,3.2-4.1h0V309l11-3.5v13.1c-1,0.1-2.3,0.6-3.5,1.4c-2.4,1.5-3.8,3.7-3,4.9c0.7,1.1,3.3,0.8,5.7-0.7
		c1.9-1.2,3.2-2.9,3.2-4.1h0v-15.3v-0.8v-7.5L2169.8,301.4z"/>
</g>
<path class="st14" d="M2535,177.4l-1.5,0l0-4.3l1.5,0L2535,177.4z M2535,168.1l-1.5,0l0-5l1.5,0L2535,168.1z M2535,158.1l-1.5,0l0-5
	l1.5,0L2535,158.1z M2535,148.1l-1.5,0l0-5l1.5,0L2535,148.1z M2530.9,142.2h-5v-1.5h5V142.2z M2520.9,142.2h-5v-1.5h5V142.2z
	 M2510.9,142.2h-5v-1.5h5V142.2z M2500.9,142.2h-5v-1.5h5V142.2z M2490.9,142.2h-5v-1.5h5V142.2z M2485.5,137.7h-1.5v-5h1.5V137.7z
	 M2485.5,127.7h-1.5v-5h1.5V127.7z M2485.5,117.7h-1.5v-5h1.5V117.7z M2485.5,107.7h-1.5v-5h1.5V107.7z M2485.5,97.7h-1.5v-5h1.5
	V97.7z M2485.5,87.7h-1.5v-5h1.5V87.7z M2485.5,77.7h-1.5v-5h1.5V77.7z M2482.1,71.1h-5v-1.5h5V71.1z M2472.1,71.1h-5v-1.5h5V71.1z
	 M2462.1,71.1h-5v-1.5h5V71.1z"/>
<g>
	<path class="st15" d="M2156,135.5h9.7c1.3,2.9,2.1,6.2,2.2,9.6h-11.1C2156.7,141.5,2156.4,138.3,2156,135.5z M2151.7,121.9
		c5.6,2.2,10.1,6.4,13,11.6h-9.1C2154.6,128.2,2153,124.4,2151.7,121.9z M2143.6,133.6v-13.4c2,0.1,3.9,0.4,5.8,0.9
		c1.4,2.4,3.2,6.4,4.4,12.4H2143.6z M2131.3,156.5c-0.4-2.8-0.7-6-0.8-9.6h11.2v9.6H2131.3z M2131.2,135.5h10.5v9.6h-11.3
		C2130.5,141.4,2130.8,138.3,2131.2,135.5z M2135.9,121.1c1.9-0.5,3.8-0.8,5.8-0.9v13.4h-10.2
		C2132.7,127.5,2134.5,123.5,2135.9,121.1z M2120.3,133.6c2.9-5.3,7.6-9.5,13.3-11.7c-1.3,2.5-2.9,6.3-4,11.7H2120.3z M2128.6,145.1
		h-11.4c0.1-3.4,0.9-6.6,2.2-9.6h10C2128.9,138.3,2128.6,141.5,2128.6,145.1z M2129.4,156.5h-9.9c-1.3-2.9-2.1-6.2-2.3-9.6h11.4
		C2128.6,150.6,2128.9,153.7,2129.4,156.5z M2129.7,158.5c1.1,5.5,2.7,9.3,4,11.7c-5.7-2.2-10.4-6.4-13.3-11.7H2129.7z
		 M2141.7,158.5v13.4c-2-0.1-3.9-0.4-5.7-0.9c-1.4-2.4-3.3-6.4-4.4-12.5H2141.7z M2153.7,158.5c-1.2,6-3,10.1-4.4,12.4
		c-1.8,0.5-3.8,0.8-5.7,0.9v-13.3H2153.7z M2143.6,147h11.2c0,3.6-0.4,6.8-0.8,9.6h-10.5V147z M2154.9,145.1h-11.3v-9.6h10.5
		C2154.5,138.3,2154.8,141.4,2154.9,145.1z M2156.7,147h11.1c-0.1,3.4-1,6.6-2.2,9.6h-9.7C2156.4,153.7,2156.7,150.6,2156.7,147z
		 M2164.7,158.5c-2.8,5.3-7.4,9.5-13,11.7c1.3-2.4,2.9-6.2,4-11.7H2164.7z"/>
</g>
<g>
	<ellipse class="st16" cx="2285.6" cy="44.3" rx="8.7" ry="8.8"/>
	<path class="st16" d="M2271.3,31.3c-0.8,0.8-0.8,2.2,0,3c0.8,0.8,2.1,0.8,2.9,0c6.2-6.3,16.2-6.3,22.4,0c0.4,0.4,0.9,0.6,1.5,0.6
		c0.5,0,1.1-0.2,1.5-0.6c0.8-0.8,0.8-2.2,0-3C2291.7,23.4,2279,23.4,2271.3,31.3z"/>
	<path class="st16" d="M2285.4,14.8c-7.5,0-14.6,3-19.9,8.4c-0.8,0.8-0.8,2.2,0,3c0.8,0.8,2.1,0.8,2.9,0c4.5-4.6,10.6-7.2,17-7.2
		s12.5,2.5,17,7.2c0.4,0.4,0.9,0.6,1.5,0.6c0.5,0,1.1-0.2,1.5-0.6c0.8-0.8,0.8-2.2,0-3C2300,17.8,2292.9,14.8,2285.4,14.8z"/>
	<path class="st16" d="M2309.9,15.1c-6.5-6.7-15.2-10.3-24.5-10.3c-9.2,0-17.9,3.7-24.5,10.3c-0.8,0.8-0.8,2.2,0,3
		c0.8,0.8,2.1,0.8,2.9,0c5.8-5.9,13.4-9.1,21.6-9.1c8.1,0,15.8,3.2,21.6,9.1c0.4,0.4,0.9,0.6,1.5,0.6c0.5,0,1.1-0.2,1.5-0.6
		C2310.7,17.2,2310.7,15.9,2309.9,15.1z"/>
</g>
<g>
	<path class="st13" d="M2256.9,135.1L2256.9,135.1c0.1-3.6,3-6.5,6.6-6.6l0,0c-3.6,0-6.5-2.9-6.5-6.6l0,0c0,3.6-2.9,6.5-6.5,6.5l0,0
		C2253.9,128.5,2256.9,131.5,2256.9,135.1z"/>
	<path class="st13" d="M2257,139.3L2257,139.3c-0.1,6.3-5.2,11.4-11.5,11.5l0,0c6.3,0.1,11.4,5.2,11.4,11.5l0,0
		c0.1-6.3,5.1-11.4,11.4-11.4l0,0C2262.2,150.7,2257.1,145.6,2257,139.3z"/>
	<path class="st13" d="M2252.3,136.6c-11-0.1-19.9-9-20-20l-0.1,0.1c-0.1,11-9,19.8-19.9,19.9l0,0c11,0.1,19.9,9,20,20l0.1-0.1
		C2232.4,145.6,2241.3,136.7,2252.3,136.6L2252.3,136.6z"/>
</g>
<g>
	<path class="st13" d="M2596.4,24.3L2596.4,24.3c0.1-3.2,2.6-5.7,5.8-5.8l0,0c-3.2,0-5.7-2.6-5.7-5.8l0,0c0,3.2-2.6,5.7-5.7,5.7l0,0
		C2593.9,18.6,2596.4,21.1,2596.4,24.3z"/>
	<path class="st13" d="M2596.6,28L2596.6,28c-0.1,5.5-4.6,10-10.1,10.1l0,0c5.5,0,10,4.5,10,10.1l0,0c0.1-5.5,4.5-10,10-10l0,0
		C2601.1,38,2596.6,33.5,2596.6,28z"/>
	<path class="st13" d="M2592.4,25.6c-9.7-0.1-17.5-7.9-17.5-17.6l-0.1,0.1c-0.1,9.6-7.9,17.4-17.5,17.5l0,0
		c9.7,0.1,17.5,7.9,17.5,17.6l0.1-0.1C2575,33.5,2582.8,25.7,2592.4,25.6L2592.4,25.6z"/>
</g>
<linearGradient id="SVGID_7_" gradientUnits="userSpaceOnUse" x1="2187.3147" y1="111.8162" x2="2185.4353" y2="64.8352">
	<stop  offset="0" style="stop-color:#12D5E0"/>
	<stop  offset="0.99" style="stop-color:#4EF9F9"/>
</linearGradient>
<path class="st17" d="M2236.4,70.8c-2.6-3.4-6.1-6-10.1-7.6c0,0,0,0,0,0c-1.9-8.4-9.3-14.5-18.1-14.5c-2.7,0-5.3,0.6-7.7,1.7
	c0,0,0,0,0,0c-2.2-2.7-4.9-5.1-7.9-6.8c-4.1-2.3-8.7-3.5-13.4-3.5c-6.8,0-13.3,2.5-18.3,7.1c-4.3,3.9-7.2,9-8.3,14.6c0,0,0,0,0,0
	c-11.8,1-21.2,10.9-21.3,22.9c-0.1,12.9,10.6,23.4,23.4,23.4h59.6h2.2h1.1c12.8,0,23.4-10.3,23.4-23.1
	C2241.2,79.8,2239.5,74.9,2236.4,70.8z"/>
<path class="st4" d="M2317.9,237.8c-9.3,0-16.8-7.5-16.8-16.8s7.5-16.8,16.8-16.8s16.8,7.5,16.8,16.8S2327.2,237.8,2317.9,237.8z
	 M2317.9,206.2c-8.2,0-14.8,6.6-14.8,14.8c0,8.1,6.6,14.8,14.8,14.8c8.1,0,14.8-6.6,14.8-14.8
	C2332.7,212.9,2326.1,206.2,2317.9,206.2z"/>
<path class="st4" d="M2323.2,217h-0.2v-1.8c0-2.8-2.3-5.1-5.1-5.1s-5.1,2.3-5.1,5.1v1.8h-0.2c-1,0-1.8,0.8-1.8,1.8v9.1
	c0,1,0.8,1.8,1.8,1.8h10.6c1,0,1.8-0.8,1.8-1.8v-9.1C2325,217.8,2324.2,217,2323.2,217z M2314.6,215.2c0-1.8,1.5-3.3,3.3-3.3
	s3.3,1.5,3.3,3.3v1.8h-6.7V215.2z M2318.4,226.5h-0.8v0h-0.6v-0.6h0.6v-2.2h-0.3v-0.6h0.3v-1.9c0,0,0,0,0,0h0
	c-0.3-0.1-0.5-0.2-0.7-0.5c0,0,0,0,0,0c0,0-0.1-0.1-0.1-0.2c0,0,0,0,0-0.1c0,0,0-0.1-0.1-0.1c0,0,0-0.1,0-0.1c0,0,0-0.1,0-0.1
	c0-0.1,0-0.1,0-0.2c0-0.1,0-0.2,0-0.3c0-0.1,0-0.2,0.1-0.2c0.2-0.5,0.7-0.8,1.2-0.8c0.5,0,1,0.3,1.2,0.8c0,0.1,0.1,0.2,0.1,0.2
	c0,0.1,0,0.2,0,0.3c0,0.6-0.4,1-0.8,1.2v0V226.5z"/>
<g>
	<path class="st4" d="M2539.6,189.2h-0.2v-1.8c0-2.8-2.3-5.1-5.1-5.1s-5.1,2.3-5.1,5.1v1.8h-0.2c-1,0-1.8,0.8-1.8,1.8v9.1
		c0,1,0.8,1.8,1.8,1.8h10.6c1,0,1.8-0.8,1.8-1.8V191C2541.4,190,2540.6,189.2,2539.6,189.2z M2530.9,187.3c0-1.8,1.5-3.3,3.3-3.3
		s3.3,1.5,3.3,3.3v1.8h-6.7V187.3z M2534.8,198.6h-0.8v0h-0.6v-0.6h0.6v-2.2h-0.3v-0.6h0.3v-1.9c0,0,0,0,0,0l0,0
		c-0.3-0.1-0.5-0.2-0.7-0.5c0,0,0,0,0,0c0,0-0.1-0.1-0.1-0.2c0,0,0,0,0-0.1c0,0,0-0.1-0.1-0.1c0,0,0-0.1,0-0.1c0,0,0-0.1,0-0.1
		c0-0.1,0-0.1,0-0.2c0-0.1,0-0.2,0-0.3c0-0.1,0-0.2,0.1-0.2c0.2-0.5,0.7-0.8,1.2-0.8c0.5,0,1,0.3,1.2,0.8c0,0.1,0.1,0.2,0.1,0.2
		c0,0.1,0,0.2,0,0.3c0,0.6-0.4,1-0.8,1.2v0V198.6z"/>
	<path class="st4" d="M2534.2,210c-9.3,0-16.8-7.5-16.8-16.8c0-9.3,7.5-16.8,16.8-16.8s16.8,7.5,16.8,16.8
		C2551,202.5,2543.5,210,2534.2,210z M2534.2,178.4c-8.2,0-14.8,6.6-14.8,14.8c0,8.1,6.6,14.8,14.8,14.8c8.1,0,14.8-6.6,14.8-14.8
		C2549,185.1,2542.4,178.4,2534.2,178.4z"/>
</g>
<g>
	<path class="st18" d="M2687.3,17.4h9.7c1.3,2.9,2.1,6.2,2.2,9.6h-11.1C2688,23.4,2687.7,20.3,2687.3,17.4z M2683,3.9
		c5.6,2.2,10.1,6.4,13,11.6h-9.1C2685.9,10.2,2684.4,6.4,2683,3.9z M2674.9,15.5V2.2c2,0.1,3.9,0.4,5.8,0.9
		c1.4,2.4,3.2,6.4,4.4,12.4H2674.9z M2662.6,38.5c-0.4-2.8-0.7-6-0.8-9.6h11.2v9.6H2662.6z M2662.6,17.4h10.5V27h-11.3
		C2661.8,23.4,2662.1,20.3,2662.6,17.4z M2667.3,3.1c1.9-0.5,3.8-0.8,5.8-0.9v13.4h-10.2C2664,9.5,2665.9,5.5,2667.3,3.1z
		 M2651.7,15.5c2.9-5.3,7.6-9.5,13.3-11.7c-1.3,2.5-2.9,6.3-4,11.7H2651.7z M2659.9,27h-11.4c0.1-3.4,0.9-6.6,2.2-9.6h10
		C2660.2,20.3,2659.9,23.4,2659.9,27z M2660.7,38.5h-9.9c-1.3-2.9-2.1-6.2-2.3-9.6h11.4C2660,32.5,2660.3,35.7,2660.7,38.5z
		 M2661,40.4c1.1,5.5,2.7,9.3,4,11.7c-5.7-2.2-10.4-6.4-13.3-11.7H2661z M2673,40.4v13.4c-2-0.1-3.9-0.4-5.7-0.9
		c-1.4-2.4-3.3-6.4-4.4-12.5H2673z M2685,40.4c-1.2,6-3,10.1-4.4,12.4c-1.8,0.5-3.8,0.8-5.7,0.9V40.4H2685z M2674.9,28.9h11.2
		c0,3.6-0.4,6.8-0.8,9.6h-10.5V28.9z M2686.2,27h-11.3v-9.6h10.5C2685.8,20.3,2686.1,23.4,2686.2,27z M2688,28.9h11.1
		c-0.1,3.4-1,6.6-2.2,9.6h-9.7C2687.7,35.7,2688,32.5,2688,28.9z M2696,40.4c-2.8,5.3-7.4,9.5-13,11.7c1.3-2.4,2.9-6.2,4-11.7H2696z
		"/>
</g>
<linearGradient id="SVGID_8_" gradientUnits="userSpaceOnUse" x1="2421.7302" y1="130.4446" x2="2418.3218" y2="45.2325">
	<stop  offset="0" style="stop-color:#12D5E0"/>
	<stop  offset="0.99" style="stop-color:#4EF9F9"/>
</linearGradient>
<path class="st19" d="M2510.8,56c-4.7-6.2-11.1-10.9-18.3-13.7c0,0,0,0,0,0c-3.4-15.3-16.9-26.3-32.9-26.3c-4.9,0-9.6,1-14,3
	c0,0,0,0,0,0c-3.9-5-8.8-9.2-14.4-12.3c-7.4-4.2-15.7-6.4-24.2-6.4c-12.3,0-24.1,4.6-33.1,12.9c-7.7,7.1-13,16.4-15,26.5
	c0,0,0,0,0,0c-21.5,1.7-38.5,19.7-38.6,41.6c-0.2,23.3,19.2,42.4,42.5,42.4h108.1h4.1h2.1c23.2,0,42.4-18.6,42.5-41.8
	C2519.5,72.4,2516.5,63.5,2510.8,56z"/>
<path class="st14" d="M2419.8,109.2c-21.4,0-38.8-17.4-38.8-38.8c0-21.4,17.4-38.8,38.8-38.8s38.8,17.4,38.8,38.8
	C2458.6,91.7,2441.2,109.2,2419.8,109.2z M2419.8,34.5c-19.8,0-35.8,16.1-35.8,35.8s16.1,35.8,35.8,35.8c19.8,0,35.8-16.1,35.8-35.8
	S2439.5,34.5,2419.8,34.5z"/>
<path class="st20" d="M2419.8,107.7"/>
<path class="st14" d="M2318.7,201.4l-1.5,0l0-5l1.5,0L2318.7,201.4z M2318.8,191.4l-1.5,0l0-5l1.5,0L2318.8,191.4z M2318.9,181.4
	l-1.5,0l0-5l1.5,0L2318.9,181.4z M2319,171.4l-1.5,0l0-5l1.5,0L2319,171.4z M2319.1,161.4l-1.5,0l0-5l1.5,0L2319.1,161.4z
	 M2319.2,151.4l-1.5,0l0-5l1.5,0L2319.2,151.4z M2415.2,143.8h-5v-1.5h5V143.8z M2405.2,143.8h-5v-1.5h5V143.8z M2395.2,143.8h-5
	v-1.5h5V143.8z M2385.2,143.8h-5v-1.5h5V143.8z M2375.2,143.8h-5v-1.5h5V143.8z M2365.2,143.8h-5v-1.5h5V143.8z M2355.2,143.8h-5
	v-1.5h5V143.8z M2345.2,143.8h-5v-1.5h5V143.8z M2335.2,143.8h-5v-1.5h5V143.8z M2325.2,143.8h-5v-1.5h5V143.8z M2420.5,142.7h-1.5
	v-5h1.5V142.7z M2420.5,132.7h-1.5v-5h1.5V132.7z M2420.5,122.7h-1.5v-5h1.5V122.7z M2420.5,112.7h-1.5v-5h1.5V112.7z"/>
<path class="st14" d="M2175.1,264.7h-1.5l0-2.4h1.5L2175.1,264.7z M2175.1,257.3h-1.5l0-5h1.5L2175.1,257.3z M2175.1,247.3h-1.5l0-5
	h1.5L2175.1,247.3z M2175.1,237.3h-1.5l0-5h1.5L2175.1,237.3z M2175.1,227.3h-1.5l0-5h1.5L2175.1,227.3z M2175.1,217.3h-1.5l0-5h1.5
	L2175.1,217.3z M2175.2,207.3h-1.5l0-5h1.5L2175.2,207.3z M2175.2,197.3h-1.5l0-5l1.5,0L2175.2,197.3z M2175.2,187.3l-1.5,0l0-5
	l1.5,0L2175.2,187.3z M2281.4,180.1h-5v-1.5h5V180.1z M2271.4,180.1h-5v-1.5h5V180.1z M2261.4,180.1h-5v-1.5h5V180.1z M2251.4,180.1
	h-5v-1.5h5V180.1z M2241.4,180.1h-5v-1.5h5V180.1z M2231.4,180.1h-5v-1.5h5V180.1z M2221.4,180.1h-5v-1.5h5V180.1z M2211.4,180.1h-5
	v-1.5h5V180.1z M2201.4,180.1h-5v-1.5h5V180.1z M2191.4,180.1h-5v-1.5h5V180.1z M2181.4,180.1h-5v-1.5h5V180.1z M2286.1,178.3h-1.5
	v-5h1.5V178.3z M2286.1,168.3h-1.5v-5h1.5V168.3z M2286.1,158.3h-1.5v-5h1.5V158.3z M2286.1,148.3h-1.5v-5h1.5V148.3z M2286.1,138.3
	h-1.5v-5h1.5V138.3z M2286.1,128.3h-1.5v-5h1.5V128.3z M2286.1,118.3h-1.5v-5h1.5V118.3z M2286.1,108.3h-1.5v-5h1.5V108.3z
	 M2286.1,98.3h-1.5v-5h1.5V98.3z M2286.1,88.3h-1.5v-5h1.5V88.3z M2286.1,78.3h-1.5v-5h1.5V78.3z M2382.4,71.1h-5v-1.5h5V71.1z
	 M2372.4,71.1h-5v-1.5h5V71.1z M2362.4,71.1h-5v-1.5h5V71.1z M2352.4,71.1h-5v-1.5h5V71.1z M2342.4,71.1h-5v-1.5h5V71.1z
	 M2332.4,71.1h-5v-1.5h5V71.1z M2322.4,71.1h-5v-1.5h5V71.1z M2312.4,71.1h-5v-1.5h5V71.1z M2302.4,71.1h-5v-1.5h5V71.1z
	 M2292.4,71.1h-5v-1.5h5V71.1z"/>
<g>
	<g>
		<g>
			<path class="st14" d="M2441.6,52.3C2441.6,52.3,2441.6,52.3,2441.6,52.3c-0.5-0.6-1.2-0.9-2-0.9c-11.1-0.4-17.2-4.5-17.9-5
				c-0.3-0.3-0.6-0.5-1-0.6c-0.3-0.1-0.6-0.2-1-0.2v1.7c0.1,0,0.3,0,0.4,0.1c0.2,0.1,0.3,0.2,0.4,0.3c0.3,0.2,6.8,5,19,5.4
				c0.3,0,0.6,0.1,0.8,0.4c0.2,0.2,0.3,0.5,0.3,0.8c-0.6,8.8-2.1,15.9-4.8,22c-3.4,7.8-8.7,13.5-15.6,16.8c-0.2,0.1-0.3,0.1-0.5,0.1
				c0,0,0,0,0,0V95c0,0,0,0,0,0c0.4,0,0.9-0.1,1.2-0.3c7.3-3.5,12.9-9.5,16.4-17.7c2.7-6.2,4.3-13.6,4.9-22.5
				C2442.4,53.7,2442.1,52.9,2441.6,52.3z"/>
			<path class="st14" d="M2419.3,93.1c-6.9-3.4-12.2-9-15.6-16.8c-2.6-6-4.2-13.2-4.8-22c0-0.3,0.1-0.6,0.3-0.8
				c0.2-0.2,0.5-0.3,0.8-0.4c12.2-0.4,18.7-5.2,19-5.4c0.2-0.2,0.5-0.3,0.8-0.3v-1.7c-0.7,0-1.4,0.3-1.9,0.8
				c-0.7,0.5-6.8,4.7-17.9,5c-0.8,0-1.5,0.4-2,0.9c-0.5,0.6-0.8,1.3-0.7,2.1c0.6,9,2.2,16.3,4.9,22.5c3.6,8.2,9.1,14.1,16.4,17.7
				c0.4,0.2,0.8,0.3,1.3,0.3v-1.7C2419.6,93.2,2419.4,93.2,2419.3,93.1z"/>
			<path class="st4" d="M2419.8,49.5L2419.8,49.5c0.4,0.4,7.1,5.1,18.8,5.5c-0.9,13.5-4.7,29.2-18.8,36v0c0,0,0,0,0,0v2.2
				c0,0,0,0,0,0c0.2,0,0.3,0,0.5-0.1c6.9-3.4,12.2-9,15.6-16.8c2.6-6,4.2-13.2,4.8-22c0-0.3-0.1-0.6-0.3-0.8
				c-0.2-0.2-0.5-0.3-0.8-0.4c-12.2-0.4-18.7-5.2-19-5.4c-0.1-0.1-0.3-0.2-0.4-0.3c-0.1,0-0.2-0.1-0.4-0.1L2419.8,49.5
				C2419.8,49.6,2419.8,49.6,2419.8,49.5z"/>
			<path class="st4" d="M2400,53.2c-0.3,0-0.6,0.1-0.8,0.4c-0.2,0.2-0.3,0.5-0.3,0.8c0.6,8.8,2.1,15.9,4.8,22
				c3.4,7.8,8.6,13.5,15.6,16.8c0.2,0.1,0.3,0.1,0.5,0.1v-2.2c-14.1-6.8-17.9-22.5-18.8-36c11.6-0.4,18.4-5,18.8-5.5v-2.2
				c-0.3,0-0.6,0.1-0.8,0.3C2418.7,47.9,2412.2,52.8,2400,53.2z"/>
			<linearGradient id="SVGID_9_" gradientUnits="userSpaceOnUse" x1="2400.9983" y1="70.3082" x2="2438.5498" y2="70.3082">
				<stop  offset="0" style="stop-color:#12D5E0"/>
				<stop  offset="0.9872" style="stop-color:#4EF9F9"/>
			</linearGradient>
			<path class="st21" d="M2419.8,49.6L2419.8,49.6C2419.8,49.6,2419.8,49.6,2419.8,49.6c-0.4,0.5-7.2,5.1-18.8,5.5
				c0.9,13.5,4.7,29.2,18.8,36c0,0,0,0,0,0v0c14.1-6.8,17.9-22.5,18.8-36C2426.9,54.7,2420.1,50,2419.8,49.6z"/>
		</g>
	</g>
	<path class="st22" d="M2411.1,65.8l4.9,9.4c0.1,0.1,0.3,0.2,0.4,0.1l15.1-12.7c0.2-0.2,0-0.6-0.3-0.4l-13.7,8c-0.1,0.1-0.2,0-0.3,0
		l-5.7-4.7C2411.3,65.3,2411,65.5,2411.1,65.8z"/>
</g>
<path class="st4" d="M2174.4,288.2c-6.6,0-12-5.4-12-12c0-6.6,5.4-12,12-12s12,5.4,12,12C2186.4,282.8,2181,288.2,2174.4,288.2z
	 M2174.4,265.4c-5.9,0-10.8,4.8-10.8,10.8c0,5.9,4.8,10.8,10.8,10.8s10.8-4.8,10.8-10.8C2185.1,270.2,2180.3,265.4,2174.4,265.4z"/>
<path class="st4" d="M2178,273.2h-0.1V272c0-1.9-1.6-3.5-3.5-3.5c-1.9,0-3.5,1.6-3.5,3.5v1.2h-0.1c-0.7,0-1.2,0.6-1.2,1.2v6.2
	c0,0.7,0.6,1.2,1.2,1.2h7.2c0.7,0,1.2-0.6,1.2-1.2v-6.2C2179.2,273.8,2178.7,273.2,2178,273.2z M2172.1,272c0-1.3,1-2.3,2.3-2.3
	s2.3,1,2.3,2.3v1.2h-4.6V272z M2174.7,279.7h-0.5v0h-0.4v-0.4h0.4v-1.5h-0.2v-0.4h0.2v-1.3c0,0,0,0,0,0l0,0
	c-0.2-0.1-0.3-0.2-0.5-0.3c0,0,0,0,0,0c0,0,0-0.1-0.1-0.1c0,0,0,0,0,0c0,0,0-0.1,0-0.1c0,0,0,0,0-0.1c0,0,0,0,0-0.1c0,0,0-0.1,0-0.2
	c0-0.1,0-0.1,0-0.2c0-0.1,0-0.1,0-0.2c0.1-0.3,0.4-0.6,0.8-0.6c0.4,0,0.7,0.2,0.8,0.6c0,0.1,0,0.1,0,0.2c0,0.1,0,0.1,0,0.2
	c0,0.4-0.2,0.7-0.6,0.8v0V279.7z"/>
</svg>
