<?xml version="1.0" encoding="UTF-8"?>
<svg width="400px" height="400px" viewBox="0 0 400 400" version="1.1" xmlns="http://www.w3.org/2000/svg" xmlns:xlink="http://www.w3.org/1999/xlink">
    <!-- Generator: Sketch 53.2 (72643) - https://sketchapp.com -->
    <title>1.0-pricing-hero-main</title>
    <desc>Created with Sketch.</desc>
    <g id="1.0-pricing-hero-main" stroke="none" stroke-width="1" fill="none" fill-rule="evenodd">
        <g id="Group-16" transform="translate(38.000000, 17.000000)" fill-rule="nonzero">
            <g id="Group" transform="translate(222.000000, 0.000000)">
                <path d="M58.66,98.77 L40.11,98.77 L35,84.07 L21,90.86 L7.91,77.77 L14.7,63.77 L0,58.66 L0,40.11 L14.7,35 L7.91,21 L21,7.91 L35,14.7 L40.11,0 L58.66,0 L63.77,14.7 L77.77,7.91 L90.86,21 L84.07,35 L98.77,40.11 L98.77,58.66 L84.07,63.77 L90.86,77.77 L77.77,90.86 L63.77,84.07 L58.66,98.77 Z M43.26,94.29 L55.51,94.29 L61.18,77.91 L76.79,85.47 L85.47,76.79 L77.91,61.18 L94.29,55.51 L94.29,43.26 L77.91,37.59 L85.47,21.98 L76.86,13.3 L61.25,20.86 L55.58,4.41 L43.33,4.41 L37.66,20.86 L21.98,13.3 L13.3,21.91 L20.86,37.52 L4.48,43.19 L4.48,55.44 L20.86,61.11 L13.3,76.86 L21.98,85.54 L37.59,77.98 L43.26,94.29 Z M49.42,65.8 C40.39,65.8 33.04,58.45 33.04,49.42 C33.04,40.39 40.39,33.04 49.42,33.04 C58.45,33.04 65.8,40.39 65.8,49.42 C65.8,58.45 58.45,65.8 49.42,65.8 Z M49.42,37.45 C42.84,37.45 37.45,42.84 37.45,49.42 C37.45,56 42.84,61.39 49.42,61.39 C56,61.39 61.39,56 61.39,49.42 C61.39,42.84 56,37.45 49.42,37.45 Z" id="Shape" fill="#FFFFFF"></path>
                <path d="M47.11,88.9 L40.67,70.35 L23.03,78.89 L19.81,75.67 L28.42,58.1 L9.87,51.66 L9.87,47.11 L28.42,40.67 L19.88,23.03 L23.1,19.81 L40.74,28.35 L47.18,9.8 L51.73,9.8 L58.17,28.35 L75.81,19.81 L79.03,23.03 L70.49,40.67 L89.04,47.11 L89.04,51.66 L70.42,58.1 L78.96,75.74 L75.74,78.96 L58.1,70.42 L51.66,88.97 L47.11,88.97 L47.11,88.9 Z M49.42,27.58 C37.38,27.58 27.58,37.38 27.58,49.42 C27.58,61.46 37.38,71.26 49.42,71.26 C61.46,71.26 71.26,61.46 71.26,49.42 C71.26,37.38 61.46,27.58 49.42,27.58 Z" id="Shape" fill="#FFD552"></path>
            </g>
            <path d="M46,96 C20.6544901,96 0,75.3455099 0,50 C0,24.6544901 20.6544901,4 46,4 C71.3455099,4 92,24.6544901 92,50 C92,75.3455099 71.3455099,96 46,96 Z M46,8.48097412 C23.1050228,8.48097412 4.48097412,27.1050228 4.48097412,50 C4.48097412,72.8949772 23.1050228,91.5190259 46,91.5190259 C68.8949772,91.5190259 87.5190259,72.8949772 87.5190259,50 C87.5190259,27.1050228 68.8949772,8.48097412 46,8.48097412 Z" id="Shape" fill="#FFFFFF"></path>
            <path d="M46,86 C26.1475728,86 10,69.8524272 10,50 C10,30.1475728 26.1475728,14 46,14 C65.8524272,14 82,30.1475728 82,50 C82,69.8524272 65.8524272,86 46,86 Z" id="Path" fill="#EC8D53"></path>
            <path d="M46,227 C20.6544901,227 0,206.34551 0,181 C0,155.65449 20.6544901,135 46,135 C71.3455099,135 92,155.65449 92,181 C92,206.34551 71.3455099,227 46,227 Z M46,139.480974 C23.1050228,139.480974 4.48097412,158.105023 4.48097412,181 C4.48097412,203.894977 23.1050228,222.519026 46,222.519026 C68.8949772,222.519026 87.5190259,203.894977 87.5190259,181 C87.5190259,158.105023 68.8949772,139.480974 46,139.480974 Z" id="Shape" fill="#5C666F"></path>
            <path d="M46,217 C26.1475728,217 10,200.852427 10,181 C10,161.147573 26.1475728,145 46,145 C65.8524272,145 82,161.147573 82,181 C82,200.852427 65.8524272,217 46,217 Z" id="Path" fill="#4F397B"></path>
            <path d="M46,358 C20.6544901,358 0,337.34551 0,312 C0,286.65449 20.6544901,266 46,266 C71.3455099,266 92,286.65449 92,312 C92,337.34551 71.3455099,358 46,358 Z M46,270.480974 C23.1050228,270.480974 4.48097412,289.105023 4.48097412,312 C4.48097412,334.894977 23.1050228,353.519026 46,353.519026 C68.8949772,353.519026 87.5190259,334.894977 87.5190259,312 C87.5190259,289.105023 68.8949772,270.480974 46,270.480974 Z" id="Shape" fill="#5C666F"></path>
            <path d="M46,348 C26.1475728,348 10,331.852427 10,312 C10,292.147573 26.1475728,276 46,276 C65.8524272,276 82,292.147573 82,312 C82,331.852427 65.8524272,348 46,348 Z" id="Path" fill="#FFFFFF"></path>
            <rect id="Rectangle" fill="#FFFFFF" x="268" y="97" width="4" height="34"></rect>
            <rect id="Rectangle" fill="#FFFFFF" x="111" y="48" width="112" height="4"></rect>
            <rect id="Rectangle" fill="#FFFFFF" x="268" y="233" width="4" height="29"></rect>
            <circle id="Oval" fill="#FFFFFF" cx="270" cy="181" r="35"></circle>
            <g id="Group-7" transform="translate(216.000000, 259.000000)">
                <path d="M53.9,107.8 C24.206,107.8 0,83.594 0,53.9 C0,24.206 24.206,0 53.9,0 C83.594,0 107.8,24.206 107.8,53.9 C107.8,83.594 83.594,107.8 53.9,107.8 Z M53.9,6.272 C27.636,6.272 6.272,27.636 6.272,53.9 C6.272,80.164 27.636,101.528 53.9,101.528 C80.164,101.528 101.528,80.164 101.528,53.9 C101.528,27.636 80.164,6.272 53.9,6.272 Z" id="Shape" fill="#FFFFFF"></path>
                <path d="M53.9,93.884 C31.85,93.884 13.916,75.95 13.916,53.9 C13.916,31.85 31.85,13.916 53.9,13.916 C75.95,13.916 93.884,31.85 93.884,53.9 C93.884,64.582 89.768,74.676 82.124,82.222 C74.578,89.768 64.582,93.884 53.9,93.884 L53.9,93.884 Z" id="Path" fill="#EC8D53"></path>
            </g>
            <path d="M270.5,220 C249.29,220 232,202.71 232,181.5 C232,160.29 249.29,143 270.5,143 C291.71,143 309,160.29 309,181.5 C309,202.71 291.71,220 270.5,220 Z M270.5,147.48 C251.74,147.48 236.48,162.74 236.48,181.5 C236.48,200.26 251.74,215.52 270.5,215.52 L270.5,215.52 C289.26,215.52 304.52,200.26 304.52,181.5 C304.52,162.74 289.26,147.48 270.5,147.48 Z" id="Shape" fill="#EC8D53"></path>
            <polygon id="Path" fill="#4A555F" points="272 183 252 183 252 178.530726 267.616438 178.530726 267.616438 158 272 158"></polygon>
            <polygon id="Path" fill="#FFFFFF" points="178 185 117 185 117 180.604651 173.497116 180.604651 173.497116 50 178 50"></polygon>
            <polygon id="Path" fill="#FFFFFF" points="178 316 117 316 117 311.534884 173.497116 311.534884 173.497116 181 178 181"></polygon>
            <g id="mdi-light:thumb-up-copy" transform="translate(242.000000, 284.000000)" fill="#FFFFFF">
                <g id="Icon">
                    <path d="M2.8,21.4694128 L11.2,21.4694128 C12.7463973,21.4694128 14,22.6957695 14,24.2085571 L14,48.8608556 C14,50.3736432 12.7463973,51.5999999 11.2,51.5999999 L2.8,51.5999999 C1.2536027,51.5999999 0,50.3736432 0,48.8608556 L0,24.2085571 C-3.10862447e-16,22.6957695 1.2536027,21.4694128 2.8,21.4694128 Z M2.8,24.2085571 L2.8,48.8608556 L11.2,48.8608556 L11.2,24.2085571 L2.8,24.2085571 Z M46.8048,46.19019 L55.2076,32.4944686 C55.7116,31.6727253 56,30.7140248 56,29.6868457 L56,26.9477014 C56,23.9221262 53.4927946,21.4694128 50.4,21.4694128 L34.692,21.4694128 L38.7716,6.56846798 L38.7856,6.51916338 C39.0451709,5.57424427 38.7698048,4.56563062 38.0632,3.87315001 L21.238,20.332668 C20.1864927,21.3599004 19.5969782,22.7548288 19.6,24.2085571 L19.6,43.3825671 C19.6,46.4081423 22.1072054,48.8608556 25.2,48.8608556 L42,48.8608556 C44.044,48.8608556 45.8304,47.7925894 46.8048,46.19019 Z M58.8,29.6868457 C58.8,31.3138974 58.3184,32.8286442 57.484,34.1023463 L49.3472,47.368022 C47.8663619,49.9801206 45.0532744,51.6004554 42,51.5999999 L25.2,51.5999999 C20.5608081,51.5999999 16.8,47.9209299 16.8,43.3825671 L16.8,24.2085571 C16.8,21.9405457 17.738,19.8889266 19.2556,18.4015713 L38.0632,0 L40.0428,1.936575 C41.4855389,3.34797323 42.0294084,5.41530319 41.4624,7.33268923 L38.3404,18.7302686 L50.4,18.7302686 C55.0391919,18.7302686 58.8,22.4093386 58.8,26.9477014 L58.8,29.6868457 Z" id="Icon-Shape"></path>
                </g>
            </g>
        </g>
    </g>
</svg>