<?xml version="1.0" encoding="UTF-8" standalone="no"?><svg xmlns="http://www.w3.org/2000/svg" xmlns:xlink="http://www.w3.org/1999/xlink" contentScriptType="application/ecmascript" contentStyleType="text/css" height="1658px" preserveAspectRatio="none" style="width:896px;height:1658px;" version="1.1" viewBox="0 0 896 1658" width="896px" zoomAndPan="magnify"><defs/><g><line style="stroke: #CDCDCD; stroke-width: 1.0; stroke-dasharray: 5.0,5.0;" x1="97" x2="97" y1="44.4883" y2="1608.2891"/><line style="stroke: #CDCDCD; stroke-width: 1.0; stroke-dasharray: 5.0,5.0;" x1="391" x2="391" y1="44.4883" y2="1608.2891"/><line style="stroke: #CDCDCD; stroke-width: 1.0; stroke-dasharray: 5.0,5.0;" x1="746.5" x2="746.5" y1="44.4883" y2="1608.2891"/><line style="stroke: #CDCDCD; stroke-width: 1.0; stroke-dasharray: 5.0,5.0;" x1="843.5" x2="843.5" y1="44.4883" y2="1608.2891"/><rect fill="#D8D8D8" height="40.4883" rx="4" ry="4" style="stroke: #979797; stroke-width: 1.0;" width="70" x="62" y="3"/><text fill="#000000" font-family="sans-serif" font-size="14" lengthAdjust="spacingAndGlyphs" textLength="46" x="74" y="28.5352">Mobile</text><rect fill="#D8D8D8" height="40.4883" rx="4" ry="4" style="stroke: #979797; stroke-width: 1.0;" width="70" x="62" y="1607.2891"/><text fill="#000000" font-family="sans-serif" font-size="14" lengthAdjust="spacingAndGlyphs" textLength="46" x="74" y="1632.8242">Mobile</text><rect fill="#D8D8D8" height="40.4883" rx="4" ry="4" style="stroke: #979797; stroke-width: 1.0;" width="60" x="361" y="3"/><text fill="#000000" font-family="sans-serif" font-size="14" lengthAdjust="spacingAndGlyphs" textLength="36" x="373" y="28.5352">Store</text><rect fill="#D8D8D8" height="40.4883" rx="4" ry="4" style="stroke: #979797; stroke-width: 1.0;" width="60" x="361" y="1607.2891"/><text fill="#000000" font-family="sans-serif" font-size="14" lengthAdjust="spacingAndGlyphs" textLength="36" x="373" y="1632.8242">Store</text><rect fill="#D8D8D8" height="40.4883" rx="4" ry="4" style="stroke: #979797; stroke-width: 1.0;" width="103" x="695.5" y="3"/><text fill="#000000" font-family="sans-serif" font-size="14" lengthAdjust="spacingAndGlyphs" textLength="79" x="707.5" y="28.5352">FusionAuth</text><rect fill="#D8D8D8" height="40.4883" rx="4" ry="4" style="stroke: #979797; stroke-width: 1.0;" width="103" x="695.5" y="1607.2891"/><text fill="#000000" font-family="sans-serif" font-size="14" lengthAdjust="spacingAndGlyphs" textLength="79" x="707.5" y="1632.8242">FusionAuth</text><rect fill="#D8D8D8" height="40.4883" rx="4" ry="4" style="stroke: #979797; stroke-width: 1.0;" width="71" x="808.5" y="3"/><text fill="#000000" font-family="sans-serif" font-size="14" lengthAdjust="spacingAndGlyphs" textLength="47" x="820.5" y="28.5352">Hacker</text><rect fill="#D8D8D8" height="40.4883" rx="4" ry="4" style="stroke: #979797; stroke-width: 1.0;" width="71" x="808.5" y="1607.2891"/><text fill="#000000" font-family="sans-serif" font-size="14" lengthAdjust="spacingAndGlyphs" textLength="47" x="820.5" y="1632.8242">Hacker</text><rect fill="#3F2C61" height="3" style="stroke: #3F2C61; stroke-width: 1.0;" width="881.5" x="3" y="80.1436"/><line style="stroke: #FFFFFF; stroke-width: 0.5;" x1="3" x2="884.5" y1="80.1436" y2="80.1436"/><line style="stroke: #FFFFFF; stroke-width: 0.5;" x1="3" x2="884.5" y1="83.1436" y2="83.1436"/><rect fill="#3F2C61" height="33.3105" style="stroke: #FFFFFF; stroke-width: 1.0;" width="86" x="400.75" y="64.4883"/><text fill="#FFFFFF" font-family="sans-serif" font-size="13" font-weight="bold" lengthAdjust="spacingAndGlyphs" textLength="58" x="411.75" y="86.0566">Initialize</text><line style="stroke: #56666F; stroke-width: 1.0;" x1="97" x2="139" y1="139.1094" y2="139.1094"/><line style="stroke: #56666F; stroke-width: 1.0;" x1="139" x2="139" y1="139.1094" y2="152.1094"/><line style="stroke: #56666F; stroke-width: 1.0;" x1="98" x2="139" y1="152.1094" y2="152.1094"/><polygon fill="#56666F" points="108,148.1094,98,152.1094,108,156.1094,104,152.1094" style="stroke: #56666F; stroke-width: 1.0;"/><text fill="#000000" font-family="sans-serif" font-size="13" font-weight="bold" lengthAdjust="spacingAndGlyphs" textLength="9" x="109" y="129.3672">1</text><text fill="#000000" font-family="sans-serif" font-size="13" lengthAdjust="spacingAndGlyphs" textLength="201" x="132" y="129.3672">Open app and render login form</text><rect fill="#3F2C61" height="3" style="stroke: #3F2C61; stroke-width: 1.0;" width="881.5" x="3" y="185.7646"/><line style="stroke: #FFFFFF; stroke-width: 0.5;" x1="3" x2="884.5" y1="185.7646" y2="185.7646"/><line style="stroke: #FFFFFF; stroke-width: 0.5;" x1="3" x2="884.5" y1="188.7646" y2="188.7646"/><rect fill="#3F2C61" height="33.3105" style="stroke: #FFFFFF; stroke-width: 1.0;" width="66" x="410.75" y="170.1094"/><text fill="#FFFFFF" font-family="sans-serif" font-size="13" font-weight="bold" lengthAdjust="spacingAndGlyphs" textLength="38" x="421.75" y="191.6777">Login</text><polygon fill="#56666F" points="735,240.7305,745,244.7305,735,248.7305,739,244.7305" style="stroke: #56666F; stroke-width: 1.0;"/><line style="stroke: #56666F; stroke-width: 1.0;" x1="97" x2="741" y1="244.7305" y2="244.7305"/><text fill="#000000" font-family="sans-serif" font-size="13" font-weight="bold" lengthAdjust="spacingAndGlyphs" textLength="9" x="109" y="234.9883">2</text><text fill="#000000" font-family="sans-serif" font-size="13" lengthAdjust="spacingAndGlyphs" textLength="101" x="132" y="234.9883">POST /api/login</text><polygon fill="#56666F" points="108,280.041,98,284.041,108,288.041,104,284.041" style="stroke: #56666F; stroke-width: 1.0;"/><line style="stroke: #56666F; stroke-width: 1.0;" x1="102" x2="746" y1="284.041" y2="284.041"/><text fill="#000000" font-family="sans-serif" font-size="13" font-weight="bold" lengthAdjust="spacingAndGlyphs" textLength="9" x="119" y="274.2988">3</text><text fill="#000000" font-family="sans-serif" font-size="13" lengthAdjust="spacingAndGlyphs" textLength="188" x="142" y="274.2988">(User, Refresh Token and JWT)</text><rect fill="#3F2C61" height="3" style="stroke: #3F2C61; stroke-width: 1.0;" width="881.5" x="3" y="317.6963"/><line style="stroke: #FFFFFF; stroke-width: 0.5;" x1="3" x2="884.5" y1="317.6963" y2="317.6963"/><line style="stroke: #FFFFFF; stroke-width: 0.5;" x1="3" x2="884.5" y1="320.6963" y2="320.6963"/><rect fill="#3F2C61" height="33.3105" style="stroke: #FFFFFF; stroke-width: 1.0;" width="155" x="366.25" y="302.041"/><text fill="#FFFFFF" font-family="sans-serif" font-size="13" font-weight="bold" lengthAdjust="spacingAndGlyphs" textLength="127" x="377.25" y="323.6094">Shopping cart load</text><polygon fill="#56666F" points="379,387.9727,389,391.9727,379,395.9727,383,391.9727" style="stroke: #56666F; stroke-width: 1.0;"/><line style="stroke: #56666F; stroke-width: 1.0;" x1="97" x2="385" y1="391.9727" y2="391.9727"/><text fill="#000000" font-family="sans-serif" font-size="13" font-weight="bold" lengthAdjust="spacingAndGlyphs" textLength="9" x="109" y="374.5752">4</text><text fill="#000000" font-family="sans-serif" font-size="13" lengthAdjust="spacingAndGlyphs" textLength="187" x="132" y="366.9199">GET /api/load-shopping-cart</text><text fill="#000000" font-family="sans-serif" font-size="13" lengthAdjust="spacingAndGlyphs" textLength="149" x="132" y="382.2305">(Refresh token and JWT)</text><polygon fill="#56666F" points="108,427.2832,98,431.2832,108,435.2832,104,431.2832" style="stroke: #56666F; stroke-width: 1.0;"/><line style="stroke: #56666F; stroke-width: 1.0;" x1="102" x2="390" y1="431.2832" y2="431.2832"/><text fill="#000000" font-family="sans-serif" font-size="13" font-weight="bold" lengthAdjust="spacingAndGlyphs" textLength="9" x="119" y="421.541">5</text><text fill="#000000" font-family="sans-serif" font-size="13" lengthAdjust="spacingAndGlyphs" textLength="154" x="142" y="421.541">(Shopping cart contents)</text><path d="M41,448.2832 L41,475.2832 A4,4 0 0 0 45,479.2832 L148,479.2832 A4,4 0 0 0 152,475.2832 L152,454.2832 L142,444.2832 L45,444.2832 A4,4 0 0 0 41,448.2832 " fill="#EB8C52" style="stroke: #FFFFFF; stroke-width: 1.0;"/><path d="M142,444.2832 L142,452.2832 A2,2 0 0 0 144,454.2832 L152,454.2832 L142,444.2832 " fill="#EB8C52" style="stroke: #FFFFFF; stroke-width: 1.0;"/><text fill="#FFFFFF" font-family="sans-serif" font-size="13" font-style="italic" font-weight="bold" lengthAdjust="spacingAndGlyphs" textLength="80" x="52" y="466.8516">JWT expires</text><rect fill="#3F2C61" height="3" style="stroke: #3F2C61; stroke-width: 1.0;" width="881.5" x="3" y="510.249"/><line style="stroke: #FFFFFF; stroke-width: 0.5;" x1="3" x2="884.5" y1="510.249" y2="510.249"/><line style="stroke: #FFFFFF; stroke-width: 0.5;" x1="3" x2="884.5" y1="513.249" y2="513.249"/><rect fill="#3F2C61" height="33.3105" style="stroke: #FFFFFF; stroke-width: 1.0;" width="155" x="366.25" y="494.5938"/><text fill="#FFFFFF" font-family="sans-serif" font-size="13" font-weight="bold" lengthAdjust="spacingAndGlyphs" textLength="127" x="377.25" y="516.1621">Shopping cart load</text><polygon fill="#56666F" points="379,580.5254,389,584.5254,379,588.5254,383,584.5254" style="stroke: #56666F; stroke-width: 1.0;"/><line style="stroke: #56666F; stroke-width: 1.0;" x1="97" x2="385" y1="584.5254" y2="584.5254"/><text fill="#000000" font-family="sans-serif" font-size="13" font-weight="bold" lengthAdjust="spacingAndGlyphs" textLength="9" x="109" y="567.1279">6</text><text fill="#000000" font-family="sans-serif" font-size="13" lengthAdjust="spacingAndGlyphs" textLength="187" x="132" y="559.4727">GET /api/load-shopping-cart</text><text fill="#000000" font-family="sans-serif" font-size="13" lengthAdjust="spacingAndGlyphs" textLength="149" x="132" y="574.7832">(Refresh token and JWT)</text><polygon fill="#56666F" points="735,635.1465,745,639.1465,735,643.1465,739,639.1465" style="stroke: #56666F; stroke-width: 1.0;"/><line style="stroke: #56666F; stroke-width: 1.0;" x1="391" x2="741" y1="639.1465" y2="639.1465"/><text fill="#000000" font-family="sans-serif" font-size="13" font-weight="bold" lengthAdjust="spacingAndGlyphs" textLength="9" x="403" y="621.749">7</text><text fill="#000000" font-family="sans-serif" font-size="13" lengthAdjust="spacingAndGlyphs" textLength="290" x="426" y="614.0938">POST /oauth2/token or POST /api/jwt/refresh</text><text fill="#000000" font-family="sans-serif" font-size="13" lengthAdjust="spacingAndGlyphs" textLength="244" x="426" y="629.4043">(grant_type=refresh and refresh token)</text><polygon fill="#56666F" points="402,674.457,392,678.457,402,682.457,398,678.457" style="stroke: #56666F; stroke-width: 1.0;"/><line style="stroke: #56666F; stroke-width: 1.0;" x1="396" x2="746" y1="678.457" y2="678.457"/><text fill="#000000" font-family="sans-serif" font-size="13" font-weight="bold" lengthAdjust="spacingAndGlyphs" textLength="9" x="413" y="668.7148">8</text><text fill="#000000" font-family="sans-serif" font-size="13" lengthAdjust="spacingAndGlyphs" textLength="31" x="436" y="668.7148">(JWT)</text><polygon fill="#56666F" points="108,713.7676,98,717.7676,108,721.7676,104,717.7676" style="stroke: #56666F; stroke-width: 1.0;"/><line style="stroke: #56666F; stroke-width: 1.0;" x1="102" x2="390" y1="717.7676" y2="717.7676"/><text fill="#000000" font-family="sans-serif" font-size="13" font-weight="bold" lengthAdjust="spacingAndGlyphs" textLength="9" x="119" y="708.0254">9</text><text fill="#000000" font-family="sans-serif" font-size="13" lengthAdjust="spacingAndGlyphs" textLength="237" x="142" y="708.0254">(Shopping cart contents and new JWT)</text><path d="M8,734.7676 L8,761.7676 A4,4 0 0 0 12,765.7676 L183,765.7676 A4,4 0 0 0 187,761.7676 L187,740.7676 L177,730.7676 L12,730.7676 A4,4 0 0 0 8,734.7676 " fill="#EB8C52" style="stroke: #FFFFFF; stroke-width: 1.0;"/><path d="M177,730.7676 L177,738.7676 A2,2 0 0 0 179,740.7676 L187,740.7676 L177,730.7676 " fill="#EB8C52" style="stroke: #FFFFFF; stroke-width: 1.0;"/><text fill="#FFFFFF" font-family="sans-serif" font-size="13" font-style="italic" font-weight="bold" lengthAdjust="spacingAndGlyphs" textLength="148" x="19" y="753.3359">Refresh token expires</text><rect fill="#3F2C61" height="3" style="stroke: #3F2C61; stroke-width: 1.0;" width="881.5" x="3" y="796.7334"/><line style="stroke: #FFFFFF; stroke-width: 0.5;" x1="3" x2="884.5" y1="796.7334" y2="796.7334"/><line style="stroke: #FFFFFF; stroke-width: 0.5;" x1="3" x2="884.5" y1="799.7334" y2="799.7334"/><rect fill="#3F2C61" height="33.3105" style="stroke: #FFFFFF; stroke-width: 1.0;" width="87" x="400.25" y="781.0781"/><text fill="#FFFFFF" font-family="sans-serif" font-size="13" font-weight="bold" lengthAdjust="spacingAndGlyphs" textLength="59" x="411.25" y="802.6465">Re-login</text><polygon fill="#56666F" points="379,867.0098,389,871.0098,379,875.0098,383,871.0098" style="stroke: #56666F; stroke-width: 1.0;"/><line style="stroke: #56666F; stroke-width: 1.0;" x1="97" x2="385" y1="871.0098" y2="871.0098"/><text fill="#000000" font-family="sans-serif" font-size="13" font-weight="bold" lengthAdjust="spacingAndGlyphs" textLength="18" x="109" y="853.6123">10</text><text fill="#000000" font-family="sans-serif" font-size="13" lengthAdjust="spacingAndGlyphs" textLength="187" x="141" y="845.957">GET /api/load-shopping-cart</text><text fill="#000000" font-family="sans-serif" font-size="13" lengthAdjust="spacingAndGlyphs" textLength="149" x="141" y="861.2676">(Refresh token and JWT)</text><polygon fill="#56666F" points="735,921.6309,745,925.6309,735,929.6309,739,925.6309" style="stroke: #56666F; stroke-width: 1.0;"/><line style="stroke: #56666F; stroke-width: 1.0;" x1="391" x2="741" y1="925.6309" y2="925.6309"/><text fill="#000000" font-family="sans-serif" font-size="13" font-weight="bold" lengthAdjust="spacingAndGlyphs" textLength="18" x="403" y="908.2334">11</text><text fill="#000000" font-family="sans-serif" font-size="13" lengthAdjust="spacingAndGlyphs" textLength="290" x="435" y="900.5781">POST /oauth2/token or POST /api/jwt/refresh</text><text fill="#000000" font-family="sans-serif" font-size="13" lengthAdjust="spacingAndGlyphs" textLength="244" x="435" y="915.8887">(grant_type=refresh and refresh token)</text><polygon fill="#EB8C52" points="402,960.9414,392,964.9414,402,968.9414,398,964.9414" style="stroke: #EB8C52; stroke-width: 1.0;"/><line style="stroke: #EB8C52; stroke-width: 1.0;" x1="396" x2="746" y1="964.9414" y2="964.9414"/><text fill="#000000" font-family="sans-serif" font-size="13" font-weight="bold" lengthAdjust="spacingAndGlyphs" textLength="18" x="413" y="955.1992">12</text><text fill="#EB8C52" font-family="sans-serif" font-size="13" lengthAdjust="spacingAndGlyphs" textLength="77" x="445" y="955.1992">404 Missing</text><polygon fill="#EB8C52" points="108,1000.252,98,1004.252,108,1008.252,104,1004.252" style="stroke: #EB8C52; stroke-width: 1.0;"/><line style="stroke: #EB8C52; stroke-width: 1.0;" x1="102" x2="390" y1="1004.252" y2="1004.252"/><text fill="#000000" font-family="sans-serif" font-size="13" font-weight="bold" lengthAdjust="spacingAndGlyphs" textLength="18" x="119" y="994.5098">13</text><text fill="#EB8C52" font-family="sans-serif" font-size="13" lengthAdjust="spacingAndGlyphs" textLength="124" x="151" y="994.5098">401 Not Authorized</text><line style="stroke: #56666F; stroke-width: 1.0;" x1="97" x2="139" y1="1043.5625" y2="1043.5625"/><line style="stroke: #56666F; stroke-width: 1.0;" x1="139" x2="139" y1="1043.5625" y2="1056.5625"/><line style="stroke: #56666F; stroke-width: 1.0;" x1="98" x2="139" y1="1056.5625" y2="1056.5625"/><polygon fill="#56666F" points="108,1052.5625,98,1056.5625,108,1060.5625,104,1056.5625" style="stroke: #56666F; stroke-width: 1.0;"/><text fill="#000000" font-family="sans-serif" font-size="13" font-weight="bold" lengthAdjust="spacingAndGlyphs" textLength="18" x="109" y="1033.8203">14</text><text fill="#000000" font-family="sans-serif" font-size="13" lengthAdjust="spacingAndGlyphs" textLength="131" x="141" y="1033.8203">Login same as above</text><path d="M64,1123.5625 L64,1150.5625 A4,4 0 0 0 68,1154.5625 L872,1154.5625 A4,4 0 0 0 876,1150.5625 L876,1129.5625 L866,1119.5625 L68,1119.5625 A4,4 0 0 0 64,1123.5625 " fill="#8B80A1" style="stroke: #FFFFFF; stroke-width: 1.0;"/><path d="M866,1119.5625 L866,1127.5625 A2,2 0 0 0 868,1129.5625 L876,1129.5625 L866,1119.5625 " fill="#8B80A1" style="stroke: #FFFFFF; stroke-width: 1.0;"/><text fill="#FFFFFF" font-family="sans-serif" font-size="13" font-style="italic" lengthAdjust="spacingAndGlyphs" textLength="91" x="420.25" y="1142.1309">Attack vectors</text><rect fill="#3F2C61" height="3" style="stroke: #3F2C61; stroke-width: 1.0;" width="881.5" x="3" y="1235.5283"/><line style="stroke: #FFFFFF; stroke-width: 0.5;" x1="3" x2="884.5" y1="1235.5283" y2="1235.5283"/><line style="stroke: #FFFFFF; stroke-width: 0.5;" x1="3" x2="884.5" y1="1238.5283" y2="1238.5283"/><rect fill="#3F2C61" height="33.3105" style="stroke: #FFFFFF; stroke-width: 1.0;" width="164" x="361.75" y="1219.873"/><text fill="#FFFFFF" font-family="sans-serif" font-size="13" font-weight="bold" lengthAdjust="spacingAndGlyphs" textLength="136" x="372.75" y="1241.4414">Stolen refresh token</text><polygon fill="#56666F" points="402,1305.8047,392,1309.8047,402,1313.8047,398,1309.8047" style="stroke: #56666F; stroke-width: 1.0;"/><line style="stroke: #56666F; stroke-width: 1.0;" x1="396" x2="843" y1="1309.8047" y2="1309.8047"/><text fill="#000000" font-family="sans-serif" font-size="13" font-weight="bold" lengthAdjust="spacingAndGlyphs" textLength="18" x="413" y="1292.4072">15</text><text fill="#000000" font-family="sans-serif" font-size="13" lengthAdjust="spacingAndGlyphs" textLength="187" x="445" y="1284.752">GET /api/load-shopping-cart</text><text fill="#000000" font-family="sans-serif" font-size="13" lengthAdjust="spacingAndGlyphs" textLength="149" x="445" y="1300.0625">(Refresh token and JWT)</text><polygon fill="#56666F" points="735,1360.4258,745,1364.4258,735,1368.4258,739,1364.4258" style="stroke: #56666F; stroke-width: 1.0;"/><line style="stroke: #56666F; stroke-width: 1.0;" x1="391" x2="741" y1="1364.4258" y2="1364.4258"/><text fill="#000000" font-family="sans-serif" font-size="13" font-weight="bold" lengthAdjust="spacingAndGlyphs" textLength="18" x="403" y="1347.0283">16</text><text fill="#000000" font-family="sans-serif" font-size="13" lengthAdjust="spacingAndGlyphs" textLength="290" x="435" y="1339.373">POST /oauth2/token or POST /api/jwt/refresh</text><text fill="#000000" font-family="sans-serif" font-size="13" lengthAdjust="spacingAndGlyphs" textLength="244" x="435" y="1354.6836">(grant_type=refresh and refresh token)</text><polygon fill="#56666F" points="402,1399.7363,392,1403.7363,402,1407.7363,398,1403.7363" style="stroke: #56666F; stroke-width: 1.0;"/><line style="stroke: #56666F; stroke-width: 1.0;" x1="396" x2="746" y1="1403.7363" y2="1403.7363"/><text fill="#000000" font-family="sans-serif" font-size="13" font-weight="bold" lengthAdjust="spacingAndGlyphs" textLength="18" x="413" y="1393.9941">17</text><text fill="#000000" font-family="sans-serif" font-size="13" lengthAdjust="spacingAndGlyphs" textLength="31" x="445" y="1393.9941">(JWT)</text><polygon fill="#56666F" points="832,1439.0469,842,1443.0469,832,1447.0469,836,1443.0469" style="stroke: #56666F; stroke-width: 1.0;"/><line style="stroke: #56666F; stroke-width: 1.0;" x1="391" x2="838" y1="1443.0469" y2="1443.0469"/><text fill="#000000" font-family="sans-serif" font-size="13" font-weight="bold" lengthAdjust="spacingAndGlyphs" textLength="18" x="403" y="1433.3047">18</text><text fill="#000000" font-family="sans-serif" font-size="13" lengthAdjust="spacingAndGlyphs" textLength="237" x="435" y="1433.3047">(Shopping cart contents and new JWT)</text><rect fill="#3F2C61" height="3" style="stroke: #3F2C61; stroke-width: 1.0;" width="881.5" x="3" y="1476.7021"/><line style="stroke: #FFFFFF; stroke-width: 0.5;" x1="3" x2="884.5" y1="1476.7021" y2="1476.7021"/><line style="stroke: #FFFFFF; stroke-width: 0.5;" x1="3" x2="884.5" y1="1479.7021" y2="1479.7021"/><rect fill="#3F2C61" height="33.3105" style="stroke: #FFFFFF; stroke-width: 1.0;" width="99" x="394.25" y="1461.0469"/><text fill="#FFFFFF" font-family="sans-serif" font-size="13" font-weight="bold" lengthAdjust="spacingAndGlyphs" textLength="71" x="405.25" y="1482.6152">Stolen JWT</text><polygon fill="#56666F" points="402,1546.9785,392,1550.9785,402,1554.9785,398,1550.9785" style="stroke: #56666F; stroke-width: 1.0;"/><line style="stroke: #56666F; stroke-width: 1.0;" x1="396" x2="843" y1="1550.9785" y2="1550.9785"/><text fill="#000000" font-family="sans-serif" font-size="13" font-weight="bold" lengthAdjust="spacingAndGlyphs" textLength="18" x="413" y="1533.5811">19</text><text fill="#000000" font-family="sans-serif" font-size="13" lengthAdjust="spacingAndGlyphs" textLength="187" x="445" y="1525.9258">GET /api/load-shopping-cart</text><text fill="#000000" font-family="sans-serif" font-size="13" lengthAdjust="spacingAndGlyphs" textLength="31" x="445" y="1541.2363">(JWT)</text><polygon fill="#56666F" points="832,1586.2891,842,1590.2891,832,1594.2891,836,1590.2891" style="stroke: #56666F; stroke-width: 1.0;"/><line style="stroke: #56666F; stroke-width: 1.0;" x1="391" x2="838" y1="1590.2891" y2="1590.2891"/><text fill="#000000" font-family="sans-serif" font-size="13" font-weight="bold" lengthAdjust="spacingAndGlyphs" textLength="18" x="403" y="1580.5469">20</text><text fill="#000000" font-family="sans-serif" font-size="13" lengthAdjust="spacingAndGlyphs" textLength="154" x="435" y="1580.5469">(Shopping cart contents)</text></g></svg>