<?xml version="1.0" encoding="UTF-8" standalone="no"?><svg xmlns="http://www.w3.org/2000/svg" xmlns:xlink="http://www.w3.org/1999/xlink" contentScriptType="application/ecmascript" contentStyleType="text/css" height="1737px" preserveAspectRatio="none" style="width:905px;height:1737px;" version="1.1" viewBox="0 0 905 1737" width="905px" zoomAndPan="magnify"><defs/><g><line style="stroke: #CDCDCD; stroke-width: 1.0; stroke-dasharray: 5.0,5.0;" x1="97" x2="97" y1="44.4883" y2="1686.9102"/><line style="stroke: #CDCDCD; stroke-width: 1.0; stroke-dasharray: 5.0,5.0;" x1="400" x2="400" y1="44.4883" y2="1686.9102"/><line style="stroke: #CDCDCD; stroke-width: 1.0; stroke-dasharray: 5.0,5.0;" x1="755.5" x2="755.5" y1="44.4883" y2="1686.9102"/><line style="stroke: #CDCDCD; stroke-width: 1.0; stroke-dasharray: 5.0,5.0;" x1="852.5" x2="852.5" y1="44.4883" y2="1686.9102"/><rect fill="#D8D8D8" height="40.4883" rx="4" ry="4" style="stroke: #979797; stroke-width: 1.0;" width="70" x="62" y="3"/><text fill="#000000" font-family="sans-serif" font-size="14" lengthAdjust="spacingAndGlyphs" textLength="46" x="74" y="28.5352">Mobile</text><rect fill="#D8D8D8" height="40.4883" rx="4" ry="4" style="stroke: #979797; stroke-width: 1.0;" width="70" x="62" y="1685.9102"/><text fill="#000000" font-family="sans-serif" font-size="14" lengthAdjust="spacingAndGlyphs" textLength="46" x="74" y="1711.4453">Mobile</text><rect fill="#D8D8D8" height="40.4883" rx="4" ry="4" style="stroke: #979797; stroke-width: 1.0;" width="60" x="370" y="3"/><text fill="#000000" font-family="sans-serif" font-size="14" lengthAdjust="spacingAndGlyphs" textLength="36" x="382" y="28.5352">Store</text><rect fill="#D8D8D8" height="40.4883" rx="4" ry="4" style="stroke: #979797; stroke-width: 1.0;" width="60" x="370" y="1685.9102"/><text fill="#000000" font-family="sans-serif" font-size="14" lengthAdjust="spacingAndGlyphs" textLength="36" x="382" y="1711.4453">Store</text><rect fill="#D8D8D8" height="40.4883" rx="4" ry="4" style="stroke: #979797; stroke-width: 1.0;" width="103" x="704.5" y="3"/><text fill="#000000" font-family="sans-serif" font-size="14" lengthAdjust="spacingAndGlyphs" textLength="79" x="716.5" y="28.5352">FusionAuth</text><rect fill="#D8D8D8" height="40.4883" rx="4" ry="4" style="stroke: #979797; stroke-width: 1.0;" width="103" x="704.5" y="1685.9102"/><text fill="#000000" font-family="sans-serif" font-size="14" lengthAdjust="spacingAndGlyphs" textLength="79" x="716.5" y="1711.4453">FusionAuth</text><rect fill="#D8D8D8" height="40.4883" rx="4" ry="4" style="stroke: #979797; stroke-width: 1.0;" width="71" x="817.5" y="3"/><text fill="#000000" font-family="sans-serif" font-size="14" lengthAdjust="spacingAndGlyphs" textLength="47" x="829.5" y="28.5352">Hacker</text><rect fill="#D8D8D8" height="40.4883" rx="4" ry="4" style="stroke: #979797; stroke-width: 1.0;" width="71" x="817.5" y="1685.9102"/><text fill="#000000" font-family="sans-serif" font-size="14" lengthAdjust="spacingAndGlyphs" textLength="47" x="829.5" y="1711.4453">Hacker</text><rect fill="#3F2C61" height="3" style="stroke: #3F2C61; stroke-width: 1.0;" width="890.5" x="3" y="80.1436"/><line style="stroke: #FFFFFF; stroke-width: 0.5;" x1="3" x2="893.5" y1="80.1436" y2="80.1436"/><line style="stroke: #FFFFFF; stroke-width: 0.5;" x1="3" x2="893.5" y1="83.1436" y2="83.1436"/><rect fill="#3F2C61" height="33.3105" style="stroke: #FFFFFF; stroke-width: 1.0;" width="86" x="405.25" y="64.4883"/><text fill="#FFFFFF" font-family="sans-serif" font-size="13" font-weight="bold" lengthAdjust="spacingAndGlyphs" textLength="58" x="416.25" y="86.0566">Initialize</text><line style="stroke: #56666F; stroke-width: 1.0;" x1="97" x2="139" y1="139.1094" y2="139.1094"/><line style="stroke: #56666F; stroke-width: 1.0;" x1="139" x2="139" y1="139.1094" y2="152.1094"/><line style="stroke: #56666F; stroke-width: 1.0;" x1="98" x2="139" y1="152.1094" y2="152.1094"/><polygon fill="#56666F" points="108,148.1094,98,152.1094,108,156.1094,104,152.1094" style="stroke: #56666F; stroke-width: 1.0;"/><text fill="#000000" font-family="sans-serif" font-size="13" font-weight="bold" lengthAdjust="spacingAndGlyphs" textLength="9" x="109" y="129.3672">1</text><text fill="#000000" font-family="sans-serif" font-size="13" lengthAdjust="spacingAndGlyphs" textLength="201" x="132" y="129.3672">Open app and render login form</text><rect fill="#3F2C61" height="3" style="stroke: #3F2C61; stroke-width: 1.0;" width="890.5" x="3" y="185.7646"/><line style="stroke: #FFFFFF; stroke-width: 0.5;" x1="3" x2="893.5" y1="185.7646" y2="185.7646"/><line style="stroke: #FFFFFF; stroke-width: 0.5;" x1="3" x2="893.5" y1="188.7646" y2="188.7646"/><rect fill="#3F2C61" height="33.3105" style="stroke: #FFFFFF; stroke-width: 1.0;" width="66" x="415.25" y="170.1094"/><text fill="#FFFFFF" font-family="sans-serif" font-size="13" font-weight="bold" lengthAdjust="spacingAndGlyphs" textLength="38" x="426.25" y="191.6777">Login</text><polygon fill="#56666F" points="388,240.7305,398,244.7305,388,248.7305,392,244.7305" style="stroke: #56666F; stroke-width: 1.0;"/><line style="stroke: #56666F; stroke-width: 1.0;" x1="97" x2="394" y1="244.7305" y2="244.7305"/><text fill="#000000" font-family="sans-serif" font-size="13" font-weight="bold" lengthAdjust="spacingAndGlyphs" textLength="9" x="109" y="234.9883">2</text><text fill="#000000" font-family="sans-serif" font-size="13" lengthAdjust="spacingAndGlyphs" textLength="101" x="132" y="234.9883">POST /api/login</text><polygon fill="#56666F" points="744,280.041,754,284.041,744,288.041,748,284.041" style="stroke: #56666F; stroke-width: 1.0;"/><line style="stroke: #56666F; stroke-width: 1.0;" x1="400" x2="750" y1="284.041" y2="284.041"/><text fill="#000000" font-family="sans-serif" font-size="13" font-weight="bold" lengthAdjust="spacingAndGlyphs" textLength="9" x="412" y="274.2988">3</text><text fill="#000000" font-family="sans-serif" font-size="13" lengthAdjust="spacingAndGlyphs" textLength="101" x="435" y="274.2988">POST /api/login</text><polygon fill="#56666F" points="411,319.3516,401,323.3516,411,327.3516,407,323.3516" style="stroke: #56666F; stroke-width: 1.0;"/><line style="stroke: #56666F; stroke-width: 1.0;" x1="405" x2="755" y1="323.3516" y2="323.3516"/><text fill="#000000" font-family="sans-serif" font-size="13" font-weight="bold" lengthAdjust="spacingAndGlyphs" textLength="9" x="422" y="313.6094">4</text><text fill="#000000" font-family="sans-serif" font-size="13" lengthAdjust="spacingAndGlyphs" textLength="188" x="445" y="313.6094">(User, Refresh Token and JWT)</text><polygon fill="#56666F" points="108,358.6621,98,362.6621,108,366.6621,104,362.6621" style="stroke: #56666F; stroke-width: 1.0;"/><line style="stroke: #56666F; stroke-width: 1.0;" x1="102" x2="399" y1="362.6621" y2="362.6621"/><text fill="#000000" font-family="sans-serif" font-size="13" font-weight="bold" lengthAdjust="spacingAndGlyphs" textLength="9" x="119" y="352.9199">5</text><text fill="#000000" font-family="sans-serif" font-size="13" lengthAdjust="spacingAndGlyphs" textLength="188" x="142" y="352.9199">(User, Refresh Token and JWT)</text><rect fill="#3F2C61" height="3" style="stroke: #3F2C61; stroke-width: 1.0;" width="890.5" x="3" y="396.3174"/><line style="stroke: #FFFFFF; stroke-width: 0.5;" x1="3" x2="893.5" y1="396.3174" y2="396.3174"/><line style="stroke: #FFFFFF; stroke-width: 0.5;" x1="3" x2="893.5" y1="399.3174" y2="399.3174"/><rect fill="#3F2C61" height="33.3105" style="stroke: #FFFFFF; stroke-width: 1.0;" width="155" x="370.75" y="380.6621"/><text fill="#FFFFFF" font-family="sans-serif" font-size="13" font-weight="bold" lengthAdjust="spacingAndGlyphs" textLength="127" x="381.75" y="402.2305">Shopping cart load</text><polygon fill="#56666F" points="388,466.5938,398,470.5938,388,474.5938,392,470.5938" style="stroke: #56666F; stroke-width: 1.0;"/><line style="stroke: #56666F; stroke-width: 1.0;" x1="97" x2="394" y1="470.5938" y2="470.5938"/><text fill="#000000" font-family="sans-serif" font-size="13" font-weight="bold" lengthAdjust="spacingAndGlyphs" textLength="9" x="109" y="453.1963">6</text><text fill="#000000" font-family="sans-serif" font-size="13" lengthAdjust="spacingAndGlyphs" textLength="187" x="132" y="445.541">GET /api/load-shopping-cart</text><text fill="#000000" font-family="sans-serif" font-size="13" lengthAdjust="spacingAndGlyphs" textLength="149" x="132" y="460.8516">(Refresh token and JWT)</text><polygon fill="#56666F" points="108,505.9043,98,509.9043,108,513.9043,104,509.9043" style="stroke: #56666F; stroke-width: 1.0;"/><line style="stroke: #56666F; stroke-width: 1.0;" x1="102" x2="399" y1="509.9043" y2="509.9043"/><text fill="#000000" font-family="sans-serif" font-size="13" font-weight="bold" lengthAdjust="spacingAndGlyphs" textLength="9" x="119" y="500.1621">7</text><text fill="#000000" font-family="sans-serif" font-size="13" lengthAdjust="spacingAndGlyphs" textLength="154" x="142" y="500.1621">(Shopping cart contents)</text><path d="M41,526.9043 L41,553.9043 A4,4 0 0 0 45,557.9043 L148,557.9043 A4,4 0 0 0 152,553.9043 L152,532.9043 L142,522.9043 L45,522.9043 A4,4 0 0 0 41,526.9043 " fill="#EB8C52" style="stroke: #FFFFFF; stroke-width: 1.0;"/><path d="M142,522.9043 L142,530.9043 A2,2 0 0 0 144,532.9043 L152,532.9043 L142,522.9043 " fill="#EB8C52" style="stroke: #FFFFFF; stroke-width: 1.0;"/><text fill="#FFFFFF" font-family="sans-serif" font-size="13" font-style="italic" font-weight="bold" lengthAdjust="spacingAndGlyphs" textLength="80" x="52" y="545.4727">JWT expires</text><rect fill="#3F2C61" height="3" style="stroke: #3F2C61; stroke-width: 1.0;" width="890.5" x="3" y="588.8701"/><line style="stroke: #FFFFFF; stroke-width: 0.5;" x1="3" x2="893.5" y1="588.8701" y2="588.8701"/><line style="stroke: #FFFFFF; stroke-width: 0.5;" x1="3" x2="893.5" y1="591.8701" y2="591.8701"/><rect fill="#3F2C61" height="33.3105" style="stroke: #FFFFFF; stroke-width: 1.0;" width="155" x="370.75" y="573.2148"/><text fill="#FFFFFF" font-family="sans-serif" font-size="13" font-weight="bold" lengthAdjust="spacingAndGlyphs" textLength="127" x="381.75" y="594.7832">Shopping cart load</text><polygon fill="#56666F" points="388,659.1465,398,663.1465,388,667.1465,392,663.1465" style="stroke: #56666F; stroke-width: 1.0;"/><line style="stroke: #56666F; stroke-width: 1.0;" x1="97" x2="394" y1="663.1465" y2="663.1465"/><text fill="#000000" font-family="sans-serif" font-size="13" font-weight="bold" lengthAdjust="spacingAndGlyphs" textLength="9" x="109" y="645.749">8</text><text fill="#000000" font-family="sans-serif" font-size="13" lengthAdjust="spacingAndGlyphs" textLength="187" x="132" y="638.0938">GET /api/load-shopping-cart</text><text fill="#000000" font-family="sans-serif" font-size="13" lengthAdjust="spacingAndGlyphs" textLength="149" x="132" y="653.4043">(Refresh token and JWT)</text><polygon fill="#56666F" points="744,713.7676,754,717.7676,744,721.7676,748,717.7676" style="stroke: #56666F; stroke-width: 1.0;"/><line style="stroke: #56666F; stroke-width: 1.0;" x1="400" x2="750" y1="717.7676" y2="717.7676"/><text fill="#000000" font-family="sans-serif" font-size="13" font-weight="bold" lengthAdjust="spacingAndGlyphs" textLength="9" x="412" y="700.3701">9</text><text fill="#000000" font-family="sans-serif" font-size="13" lengthAdjust="spacingAndGlyphs" textLength="290" x="435" y="692.7148">POST /oauth2/token or POST /api/jwt/refresh</text><text fill="#000000" font-family="sans-serif" font-size="13" lengthAdjust="spacingAndGlyphs" textLength="244" x="435" y="708.0254">(grant_type=refresh and refresh token)</text><polygon fill="#56666F" points="411,753.0781,401,757.0781,411,761.0781,407,757.0781" style="stroke: #56666F; stroke-width: 1.0;"/><line style="stroke: #56666F; stroke-width: 1.0;" x1="405" x2="755" y1="757.0781" y2="757.0781"/><text fill="#000000" font-family="sans-serif" font-size="13" font-weight="bold" lengthAdjust="spacingAndGlyphs" textLength="18" x="422" y="747.3359">10</text><text fill="#000000" font-family="sans-serif" font-size="13" lengthAdjust="spacingAndGlyphs" textLength="31" x="454" y="747.3359">(JWT)</text><polygon fill="#56666F" points="108,792.3887,98,796.3887,108,800.3887,104,796.3887" style="stroke: #56666F; stroke-width: 1.0;"/><line style="stroke: #56666F; stroke-width: 1.0;" x1="102" x2="399" y1="796.3887" y2="796.3887"/><text fill="#000000" font-family="sans-serif" font-size="13" font-weight="bold" lengthAdjust="spacingAndGlyphs" textLength="18" x="119" y="786.6465">11</text><text fill="#000000" font-family="sans-serif" font-size="13" lengthAdjust="spacingAndGlyphs" textLength="237" x="151" y="786.6465">(Shopping cart contents and new JWT)</text><path d="M8,813.3887 L8,840.3887 A4,4 0 0 0 12,844.3887 L183,844.3887 A4,4 0 0 0 187,840.3887 L187,819.3887 L177,809.3887 L12,809.3887 A4,4 0 0 0 8,813.3887 " fill="#EB8C52" style="stroke: #FFFFFF; stroke-width: 1.0;"/><path d="M177,809.3887 L177,817.3887 A2,2 0 0 0 179,819.3887 L187,819.3887 L177,809.3887 " fill="#EB8C52" style="stroke: #FFFFFF; stroke-width: 1.0;"/><text fill="#FFFFFF" font-family="sans-serif" font-size="13" font-style="italic" font-weight="bold" lengthAdjust="spacingAndGlyphs" textLength="148" x="19" y="831.957">Refresh token expires</text><rect fill="#3F2C61" height="3" style="stroke: #3F2C61; stroke-width: 1.0;" width="890.5" x="3" y="875.3545"/><line style="stroke: #FFFFFF; stroke-width: 0.5;" x1="3" x2="893.5" y1="875.3545" y2="875.3545"/><line style="stroke: #FFFFFF; stroke-width: 0.5;" x1="3" x2="893.5" y1="878.3545" y2="878.3545"/><rect fill="#3F2C61" height="33.3105" style="stroke: #FFFFFF; stroke-width: 1.0;" width="87" x="404.75" y="859.6992"/><text fill="#FFFFFF" font-family="sans-serif" font-size="13" font-weight="bold" lengthAdjust="spacingAndGlyphs" textLength="59" x="415.75" y="881.2676">Re-login</text><polygon fill="#56666F" points="388,945.6309,398,949.6309,388,953.6309,392,949.6309" style="stroke: #56666F; stroke-width: 1.0;"/><line style="stroke: #56666F; stroke-width: 1.0;" x1="97" x2="394" y1="949.6309" y2="949.6309"/><text fill="#000000" font-family="sans-serif" font-size="13" font-weight="bold" lengthAdjust="spacingAndGlyphs" textLength="18" x="109" y="932.2334">12</text><text fill="#000000" font-family="sans-serif" font-size="13" lengthAdjust="spacingAndGlyphs" textLength="187" x="141" y="924.5781">GET /api/load-shopping-cart</text><text fill="#000000" font-family="sans-serif" font-size="13" lengthAdjust="spacingAndGlyphs" textLength="149" x="141" y="939.8887">(Refresh token and JWT)</text><polygon fill="#56666F" points="744,1000.252,754,1004.252,744,1008.252,748,1004.252" style="stroke: #56666F; stroke-width: 1.0;"/><line style="stroke: #56666F; stroke-width: 1.0;" x1="400" x2="750" y1="1004.252" y2="1004.252"/><text fill="#000000" font-family="sans-serif" font-size="13" font-weight="bold" lengthAdjust="spacingAndGlyphs" textLength="18" x="412" y="986.8545">13</text><text fill="#000000" font-family="sans-serif" font-size="13" lengthAdjust="spacingAndGlyphs" textLength="290" x="444" y="979.1992">POST /oauth2/token or POST /api/jwt/refresh</text><text fill="#000000" font-family="sans-serif" font-size="13" lengthAdjust="spacingAndGlyphs" textLength="244" x="444" y="994.5098">(grant_type=refresh and refresh token)</text><polygon fill="#EB8C52" points="411,1039.5625,401,1043.5625,411,1047.5625,407,1043.5625" style="stroke: #EB8C52; stroke-width: 1.0;"/><line style="stroke: #EB8C52; stroke-width: 1.0;" x1="405" x2="755" y1="1043.5625" y2="1043.5625"/><text fill="#000000" font-family="sans-serif" font-size="13" font-weight="bold" lengthAdjust="spacingAndGlyphs" textLength="18" x="422" y="1033.8203">14</text><text fill="#EB8C52" font-family="sans-serif" font-size="13" lengthAdjust="spacingAndGlyphs" textLength="77" x="454" y="1033.8203">404 Missing</text><polygon fill="#EB8C52" points="108,1078.873,98,1082.873,108,1086.873,104,1082.873" style="stroke: #EB8C52; stroke-width: 1.0;"/><line style="stroke: #EB8C52; stroke-width: 1.0;" x1="102" x2="399" y1="1082.873" y2="1082.873"/><text fill="#000000" font-family="sans-serif" font-size="13" font-weight="bold" lengthAdjust="spacingAndGlyphs" textLength="18" x="119" y="1073.1309">15</text><text fill="#EB8C52" font-family="sans-serif" font-size="13" lengthAdjust="spacingAndGlyphs" textLength="124" x="151" y="1073.1309">401 Not Authorized</text><line style="stroke: #56666F; stroke-width: 1.0;" x1="97" x2="139" y1="1122.1836" y2="1122.1836"/><line style="stroke: #56666F; stroke-width: 1.0;" x1="139" x2="139" y1="1122.1836" y2="1135.1836"/><line style="stroke: #56666F; stroke-width: 1.0;" x1="98" x2="139" y1="1135.1836" y2="1135.1836"/><polygon fill="#56666F" points="108,1131.1836,98,1135.1836,108,1139.1836,104,1135.1836" style="stroke: #56666F; stroke-width: 1.0;"/><text fill="#000000" font-family="sans-serif" font-size="13" font-weight="bold" lengthAdjust="spacingAndGlyphs" textLength="18" x="109" y="1112.4414">16</text><text fill="#000000" font-family="sans-serif" font-size="13" lengthAdjust="spacingAndGlyphs" textLength="131" x="141" y="1112.4414">Login same as above</text><path d="M64,1202.1836 L64,1229.1836 A4,4 0 0 0 68,1233.1836 L881,1233.1836 A4,4 0 0 0 885,1229.1836 L885,1208.1836 L875,1198.1836 L68,1198.1836 A4,4 0 0 0 64,1202.1836 " fill="#8B80A1" style="stroke: #FFFFFF; stroke-width: 1.0;"/><path d="M875,1198.1836 L875,1206.1836 A2,2 0 0 0 877,1208.1836 L885,1208.1836 L875,1198.1836 " fill="#8B80A1" style="stroke: #FFFFFF; stroke-width: 1.0;"/><text fill="#FFFFFF" font-family="sans-serif" font-size="13" font-style="italic" lengthAdjust="spacingAndGlyphs" textLength="91" x="424.75" y="1220.752">Attack vectors</text><rect fill="#3F2C61" height="3" style="stroke: #3F2C61; stroke-width: 1.0;" width="890.5" x="3" y="1314.1494"/><line style="stroke: #FFFFFF; stroke-width: 0.5;" x1="3" x2="893.5" y1="1314.1494" y2="1314.1494"/><line style="stroke: #FFFFFF; stroke-width: 0.5;" x1="3" x2="893.5" y1="1317.1494" y2="1317.1494"/><rect fill="#3F2C61" height="33.3105" style="stroke: #FFFFFF; stroke-width: 1.0;" width="164" x="366.25" y="1298.4941"/><text fill="#FFFFFF" font-family="sans-serif" font-size="13" font-weight="bold" lengthAdjust="spacingAndGlyphs" textLength="136" x="377.25" y="1320.0625">Stolen refresh token</text><polygon fill="#56666F" points="411,1384.4258,401,1388.4258,411,1392.4258,407,1388.4258" style="stroke: #56666F; stroke-width: 1.0;"/><line style="stroke: #56666F; stroke-width: 1.0;" x1="405" x2="852" y1="1388.4258" y2="1388.4258"/><text fill="#000000" font-family="sans-serif" font-size="13" font-weight="bold" lengthAdjust="spacingAndGlyphs" textLength="18" x="422" y="1371.0283">17</text><text fill="#000000" font-family="sans-serif" font-size="13" lengthAdjust="spacingAndGlyphs" textLength="187" x="454" y="1363.373">GET /api/load-shopping-cart</text><text fill="#000000" font-family="sans-serif" font-size="13" lengthAdjust="spacingAndGlyphs" textLength="149" x="454" y="1378.6836">(Refresh token and JWT)</text><polygon fill="#56666F" points="744,1439.0469,754,1443.0469,744,1447.0469,748,1443.0469" style="stroke: #56666F; stroke-width: 1.0;"/><line style="stroke: #56666F; stroke-width: 1.0;" x1="400" x2="750" y1="1443.0469" y2="1443.0469"/><text fill="#000000" font-family="sans-serif" font-size="13" font-weight="bold" lengthAdjust="spacingAndGlyphs" textLength="18" x="412" y="1425.6494">18</text><text fill="#000000" font-family="sans-serif" font-size="13" lengthAdjust="spacingAndGlyphs" textLength="290" x="444" y="1417.9941">POST /oauth2/token or POST /api/jwt/refresh</text><text fill="#000000" font-family="sans-serif" font-size="13" lengthAdjust="spacingAndGlyphs" textLength="244" x="444" y="1433.3047">(grant_type=refresh and refresh token)</text><polygon fill="#56666F" points="411,1478.3574,401,1482.3574,411,1486.3574,407,1482.3574" style="stroke: #56666F; stroke-width: 1.0;"/><line style="stroke: #56666F; stroke-width: 1.0;" x1="405" x2="755" y1="1482.3574" y2="1482.3574"/><text fill="#000000" font-family="sans-serif" font-size="13" font-weight="bold" lengthAdjust="spacingAndGlyphs" textLength="18" x="422" y="1472.6152">19</text><text fill="#000000" font-family="sans-serif" font-size="13" lengthAdjust="spacingAndGlyphs" textLength="31" x="454" y="1472.6152">(JWT)</text><polygon fill="#56666F" points="841,1517.668,851,1521.668,841,1525.668,845,1521.668" style="stroke: #56666F; stroke-width: 1.0;"/><line style="stroke: #56666F; stroke-width: 1.0;" x1="400" x2="847" y1="1521.668" y2="1521.668"/><text fill="#000000" font-family="sans-serif" font-size="13" font-weight="bold" lengthAdjust="spacingAndGlyphs" textLength="18" x="412" y="1511.9258">20</text><text fill="#000000" font-family="sans-serif" font-size="13" lengthAdjust="spacingAndGlyphs" textLength="237" x="444" y="1511.9258">(Shopping cart contents and new JWT)</text><rect fill="#3F2C61" height="3" style="stroke: #3F2C61; stroke-width: 1.0;" width="890.5" x="3" y="1555.3232"/><line style="stroke: #FFFFFF; stroke-width: 0.5;" x1="3" x2="893.5" y1="1555.3232" y2="1555.3232"/><line style="stroke: #FFFFFF; stroke-width: 0.5;" x1="3" x2="893.5" y1="1558.3232" y2="1558.3232"/><rect fill="#3F2C61" height="33.3105" style="stroke: #FFFFFF; stroke-width: 1.0;" width="99" x="398.75" y="1539.668"/><text fill="#FFFFFF" font-family="sans-serif" font-size="13" font-weight="bold" lengthAdjust="spacingAndGlyphs" textLength="71" x="409.75" y="1561.2363">Stolen JWT</text><polygon fill="#56666F" points="411,1625.5996,401,1629.5996,411,1633.5996,407,1629.5996" style="stroke: #56666F; stroke-width: 1.0;"/><line style="stroke: #56666F; stroke-width: 1.0;" x1="405" x2="852" y1="1629.5996" y2="1629.5996"/><text fill="#000000" font-family="sans-serif" font-size="13" font-weight="bold" lengthAdjust="spacingAndGlyphs" textLength="18" x="422" y="1612.2021">21</text><text fill="#000000" font-family="sans-serif" font-size="13" lengthAdjust="spacingAndGlyphs" textLength="187" x="454" y="1604.5469">GET /api/load-shopping-cart</text><text fill="#000000" font-family="sans-serif" font-size="13" lengthAdjust="spacingAndGlyphs" textLength="31" x="454" y="1619.8574">(JWT)</text><polygon fill="#56666F" points="841,1664.9102,851,1668.9102,841,1672.9102,845,1668.9102" style="stroke: #56666F; stroke-width: 1.0;"/><line style="stroke: #56666F; stroke-width: 1.0;" x1="400" x2="847" y1="1668.9102" y2="1668.9102"/><text fill="#000000" font-family="sans-serif" font-size="13" font-weight="bold" lengthAdjust="spacingAndGlyphs" textLength="18" x="412" y="1659.168">22</text><text fill="#000000" font-family="sans-serif" font-size="13" lengthAdjust="spacingAndGlyphs" textLength="154" x="444" y="1659.168">(Shopping cart contents)</text></g></svg>