<?xml version="1.0" encoding="UTF-8" standalone="no"?><svg xmlns="http://www.w3.org/2000/svg" xmlns:xlink="http://www.w3.org/1999/xlink" contentScriptType="application/ecmascript" contentStyleType="text/css" height="1752px" preserveAspectRatio="none" style="width:905px;height:1752px;" version="1.1" viewBox="0 0 905 1752" width="905px" zoomAndPan="magnify"><defs/><g><line style="stroke: #CDCDCD; stroke-width: 1.0; stroke-dasharray: 5.0,5.0;" x1="97" x2="97" y1="44.4883" y2="1702.2207"/><line style="stroke: #CDCDCD; stroke-width: 1.0; stroke-dasharray: 5.0,5.0;" x1="400" x2="400" y1="44.4883" y2="1702.2207"/><line style="stroke: #CDCDCD; stroke-width: 1.0; stroke-dasharray: 5.0,5.0;" x1="755.5" x2="755.5" y1="44.4883" y2="1702.2207"/><line style="stroke: #CDCDCD; stroke-width: 1.0; stroke-dasharray: 5.0,5.0;" x1="852.5" x2="852.5" y1="44.4883" y2="1702.2207"/><rect fill="#D8D8D8" height="40.4883" rx="4" ry="4" style="stroke: #979797; stroke-width: 1.0;" width="70" x="62" y="3"/><text fill="#000000" font-family="sans-serif" font-size="14" lengthAdjust="spacingAndGlyphs" textLength="46" x="74" y="28.5352">Mobile</text><rect fill="#D8D8D8" height="40.4883" rx="4" ry="4" style="stroke: #979797; stroke-width: 1.0;" width="70" x="62" y="1701.2207"/><text fill="#000000" font-family="sans-serif" font-size="14" lengthAdjust="spacingAndGlyphs" textLength="46" x="74" y="1726.7559">Mobile</text><rect fill="#D8D8D8" height="40.4883" rx="4" ry="4" style="stroke: #979797; stroke-width: 1.0;" width="60" x="370" y="3"/><text fill="#000000" font-family="sans-serif" font-size="14" lengthAdjust="spacingAndGlyphs" textLength="36" x="382" y="28.5352">Store</text><rect fill="#D8D8D8" height="40.4883" rx="4" ry="4" style="stroke: #979797; stroke-width: 1.0;" width="60" x="370" y="1701.2207"/><text fill="#000000" font-family="sans-serif" font-size="14" lengthAdjust="spacingAndGlyphs" textLength="36" x="382" y="1726.7559">Store</text><rect fill="#D8D8D8" height="40.4883" rx="4" ry="4" style="stroke: #979797; stroke-width: 1.0;" width="103" x="704.5" y="3"/><text fill="#000000" font-family="sans-serif" font-size="14" lengthAdjust="spacingAndGlyphs" textLength="79" x="716.5" y="28.5352">FusionAuth</text><rect fill="#D8D8D8" height="40.4883" rx="4" ry="4" style="stroke: #979797; stroke-width: 1.0;" width="103" x="704.5" y="1701.2207"/><text fill="#000000" font-family="sans-serif" font-size="14" lengthAdjust="spacingAndGlyphs" textLength="79" x="716.5" y="1726.7559">FusionAuth</text><rect fill="#D8D8D8" height="40.4883" rx="4" ry="4" style="stroke: #979797; stroke-width: 1.0;" width="71" x="817.5" y="3"/><text fill="#000000" font-family="sans-serif" font-size="14" lengthAdjust="spacingAndGlyphs" textLength="47" x="829.5" y="28.5352">Hacker</text><rect fill="#D8D8D8" height="40.4883" rx="4" ry="4" style="stroke: #979797; stroke-width: 1.0;" width="71" x="817.5" y="1701.2207"/><text fill="#000000" font-family="sans-serif" font-size="14" lengthAdjust="spacingAndGlyphs" textLength="47" x="829.5" y="1726.7559">Hacker</text><rect fill="#3F2C61" height="3" style="stroke: #3F2C61; stroke-width: 1.0;" width="890.5" x="3" y="80.1436"/><line style="stroke: #FFFFFF; stroke-width: 0.5;" x1="3" x2="893.5" y1="80.1436" y2="80.1436"/><line style="stroke: #FFFFFF; stroke-width: 0.5;" x1="3" x2="893.5" y1="83.1436" y2="83.1436"/><rect fill="#3F2C61" height="33.3105" style="stroke: #FFFFFF; stroke-width: 1.0;" width="86" x="405.25" y="64.4883"/><text fill="#FFFFFF" font-family="sans-serif" font-size="13" font-weight="bold" lengthAdjust="spacingAndGlyphs" textLength="58" x="416.25" y="86.0566">Initialize</text><line style="stroke: #56666F; stroke-width: 1.0;" x1="97" x2="139" y1="139.1094" y2="139.1094"/><line style="stroke: #56666F; stroke-width: 1.0;" x1="139" x2="139" y1="139.1094" y2="152.1094"/><line style="stroke: #56666F; stroke-width: 1.0;" x1="98" x2="139" y1="152.1094" y2="152.1094"/><polygon fill="#56666F" points="108,148.1094,98,152.1094,108,156.1094,104,152.1094" style="stroke: #56666F; stroke-width: 1.0;"/><text fill="#000000" font-family="sans-serif" font-size="13" font-weight="bold" lengthAdjust="spacingAndGlyphs" textLength="9" x="109" y="129.3672">1</text><text fill="#000000" font-family="sans-serif" font-size="13" lengthAdjust="spacingAndGlyphs" textLength="201" x="132" y="129.3672">Open app and render login form</text><rect fill="#3F2C61" height="3" style="stroke: #3F2C61; stroke-width: 1.0;" width="890.5" x="3" y="185.7646"/><line style="stroke: #FFFFFF; stroke-width: 0.5;" x1="3" x2="893.5" y1="185.7646" y2="185.7646"/><line style="stroke: #FFFFFF; stroke-width: 0.5;" x1="3" x2="893.5" y1="188.7646" y2="188.7646"/><rect fill="#3F2C61" height="33.3105" style="stroke: #FFFFFF; stroke-width: 1.0;" width="150" x="373.25" y="170.1094"/><text fill="#FFFFFF" font-family="sans-serif" font-size="13" font-weight="bold" lengthAdjust="spacingAndGlyphs" textLength="122" x="384.25" y="191.6777">Login (inside SPA)</text><polygon fill="#56666F" points="388,240.7305,398,244.7305,388,248.7305,392,244.7305" style="stroke: #56666F; stroke-width: 1.0;"/><line style="stroke: #56666F; stroke-width: 1.0;" x1="97" x2="394" y1="244.7305" y2="244.7305"/><text fill="#000000" font-family="sans-serif" font-size="13" font-weight="bold" lengthAdjust="spacingAndGlyphs" textLength="9" x="109" y="234.9883">2</text><text fill="#000000" font-family="sans-serif" font-size="13" lengthAdjust="spacingAndGlyphs" textLength="101" x="132" y="234.9883">POST /api/login</text><polygon fill="#56666F" points="744,295.3516,754,299.3516,744,303.3516,748,299.3516" style="stroke: #56666F; stroke-width: 1.0;"/><line style="stroke: #56666F; stroke-width: 1.0;" x1="400" x2="750" y1="299.3516" y2="299.3516"/><text fill="#000000" font-family="sans-serif" font-size="13" font-weight="bold" lengthAdjust="spacingAndGlyphs" textLength="9" x="412" y="281.9541">3</text><text fill="#000000" font-family="sans-serif" font-size="13" lengthAdjust="spacingAndGlyphs" textLength="130" x="435" y="274.2988">POST /oauth2/token</text><text fill="#000000" font-family="sans-serif" font-size="13" lengthAdjust="spacingAndGlyphs" textLength="145" x="435" y="289.6094">(grant_type=password)</text><polygon fill="#56666F" points="411,334.6621,401,338.6621,411,342.6621,407,338.6621" style="stroke: #56666F; stroke-width: 1.0;"/><line style="stroke: #56666F; stroke-width: 1.0;" x1="405" x2="755" y1="338.6621" y2="338.6621"/><text fill="#000000" font-family="sans-serif" font-size="13" font-weight="bold" lengthAdjust="spacingAndGlyphs" textLength="9" x="422" y="328.9199">4</text><text fill="#000000" font-family="sans-serif" font-size="13" lengthAdjust="spacingAndGlyphs" textLength="152" x="445" y="328.9199">(Refresh Token and JWT)</text><polygon fill="#56666F" points="108,373.9727,98,377.9727,108,381.9727,104,377.9727" style="stroke: #56666F; stroke-width: 1.0;"/><line style="stroke: #56666F; stroke-width: 1.0;" x1="102" x2="399" y1="377.9727" y2="377.9727"/><text fill="#000000" font-family="sans-serif" font-size="13" font-weight="bold" lengthAdjust="spacingAndGlyphs" textLength="9" x="119" y="368.2305">5</text><text fill="#000000" font-family="sans-serif" font-size="13" lengthAdjust="spacingAndGlyphs" textLength="152" x="142" y="368.2305">(Refresh Token and JWT)</text><rect fill="#3F2C61" height="3" style="stroke: #3F2C61; stroke-width: 1.0;" width="890.5" x="3" y="411.6279"/><line style="stroke: #FFFFFF; stroke-width: 0.5;" x1="3" x2="893.5" y1="411.6279" y2="411.6279"/><line style="stroke: #FFFFFF; stroke-width: 0.5;" x1="3" x2="893.5" y1="414.6279" y2="414.6279"/><rect fill="#3F2C61" height="33.3105" style="stroke: #FFFFFF; stroke-width: 1.0;" width="155" x="370.75" y="395.9727"/><text fill="#FFFFFF" font-family="sans-serif" font-size="13" font-weight="bold" lengthAdjust="spacingAndGlyphs" textLength="127" x="381.75" y="417.541">Shopping cart load</text><polygon fill="#56666F" points="388,481.9043,398,485.9043,388,489.9043,392,485.9043" style="stroke: #56666F; stroke-width: 1.0;"/><line style="stroke: #56666F; stroke-width: 1.0;" x1="97" x2="394" y1="485.9043" y2="485.9043"/><text fill="#000000" font-family="sans-serif" font-size="13" font-weight="bold" lengthAdjust="spacingAndGlyphs" textLength="9" x="109" y="468.5068">6</text><text fill="#000000" font-family="sans-serif" font-size="13" lengthAdjust="spacingAndGlyphs" textLength="187" x="132" y="460.8516">GET /api/load-shopping-cart</text><text fill="#000000" font-family="sans-serif" font-size="13" lengthAdjust="spacingAndGlyphs" textLength="149" x="132" y="476.1621">(Refresh token and JWT)</text><polygon fill="#56666F" points="108,521.2148,98,525.2148,108,529.2148,104,525.2148" style="stroke: #56666F; stroke-width: 1.0;"/><line style="stroke: #56666F; stroke-width: 1.0;" x1="102" x2="399" y1="525.2148" y2="525.2148"/><text fill="#000000" font-family="sans-serif" font-size="13" font-weight="bold" lengthAdjust="spacingAndGlyphs" textLength="9" x="119" y="515.4727">7</text><text fill="#000000" font-family="sans-serif" font-size="13" lengthAdjust="spacingAndGlyphs" textLength="154" x="142" y="515.4727">(Shopping cart contents)</text><path d="M41,542.2148 L41,569.2148 A4,4 0 0 0 45,573.2148 L148,573.2148 A4,4 0 0 0 152,569.2148 L152,548.2148 L142,538.2148 L45,538.2148 A4,4 0 0 0 41,542.2148 " fill="#EB8C52" style="stroke: #FFFFFF; stroke-width: 1.0;"/><path d="M142,538.2148 L142,546.2148 A2,2 0 0 0 144,548.2148 L152,548.2148 L142,538.2148 " fill="#EB8C52" style="stroke: #FFFFFF; stroke-width: 1.0;"/><text fill="#FFFFFF" font-family="sans-serif" font-size="13" font-style="italic" font-weight="bold" lengthAdjust="spacingAndGlyphs" textLength="80" x="52" y="560.7832">JWT expires</text><rect fill="#3F2C61" height="3" style="stroke: #3F2C61; stroke-width: 1.0;" width="890.5" x="3" y="604.1807"/><line style="stroke: #FFFFFF; stroke-width: 0.5;" x1="3" x2="893.5" y1="604.1807" y2="604.1807"/><line style="stroke: #FFFFFF; stroke-width: 0.5;" x1="3" x2="893.5" y1="607.1807" y2="607.1807"/><rect fill="#3F2C61" height="33.3105" style="stroke: #FFFFFF; stroke-width: 1.0;" width="155" x="370.75" y="588.5254"/><text fill="#FFFFFF" font-family="sans-serif" font-size="13" font-weight="bold" lengthAdjust="spacingAndGlyphs" textLength="127" x="381.75" y="610.0938">Shopping cart load</text><polygon fill="#56666F" points="388,674.457,398,678.457,388,682.457,392,678.457" style="stroke: #56666F; stroke-width: 1.0;"/><line style="stroke: #56666F; stroke-width: 1.0;" x1="97" x2="394" y1="678.457" y2="678.457"/><text fill="#000000" font-family="sans-serif" font-size="13" font-weight="bold" lengthAdjust="spacingAndGlyphs" textLength="9" x="109" y="661.0596">8</text><text fill="#000000" font-family="sans-serif" font-size="13" lengthAdjust="spacingAndGlyphs" textLength="187" x="132" y="653.4043">GET /api/load-shopping-cart</text><text fill="#000000" font-family="sans-serif" font-size="13" lengthAdjust="spacingAndGlyphs" textLength="149" x="132" y="668.7148">(Refresh token and JWT)</text><polygon fill="#56666F" points="744,729.0781,754,733.0781,744,737.0781,748,733.0781" style="stroke: #56666F; stroke-width: 1.0;"/><line style="stroke: #56666F; stroke-width: 1.0;" x1="400" x2="750" y1="733.0781" y2="733.0781"/><text fill="#000000" font-family="sans-serif" font-size="13" font-weight="bold" lengthAdjust="spacingAndGlyphs" textLength="9" x="412" y="715.6807">9</text><text fill="#000000" font-family="sans-serif" font-size="13" lengthAdjust="spacingAndGlyphs" textLength="290" x="435" y="708.0254">POST /oauth2/token or POST /api/jwt/refresh</text><text fill="#000000" font-family="sans-serif" font-size="13" lengthAdjust="spacingAndGlyphs" textLength="244" x="435" y="723.3359">(grant_type=refresh and refresh token)</text><polygon fill="#56666F" points="411,768.3887,401,772.3887,411,776.3887,407,772.3887" style="stroke: #56666F; stroke-width: 1.0;"/><line style="stroke: #56666F; stroke-width: 1.0;" x1="405" x2="755" y1="772.3887" y2="772.3887"/><text fill="#000000" font-family="sans-serif" font-size="13" font-weight="bold" lengthAdjust="spacingAndGlyphs" textLength="18" x="422" y="762.6465">10</text><text fill="#000000" font-family="sans-serif" font-size="13" lengthAdjust="spacingAndGlyphs" textLength="31" x="454" y="762.6465">(JWT)</text><polygon fill="#56666F" points="108,807.6992,98,811.6992,108,815.6992,104,811.6992" style="stroke: #56666F; stroke-width: 1.0;"/><line style="stroke: #56666F; stroke-width: 1.0;" x1="102" x2="399" y1="811.6992" y2="811.6992"/><text fill="#000000" font-family="sans-serif" font-size="13" font-weight="bold" lengthAdjust="spacingAndGlyphs" textLength="18" x="119" y="801.957">11</text><text fill="#000000" font-family="sans-serif" font-size="13" lengthAdjust="spacingAndGlyphs" textLength="237" x="151" y="801.957">(Shopping cart contents and new JWT)</text><path d="M8,828.6992 L8,855.6992 A4,4 0 0 0 12,859.6992 L183,859.6992 A4,4 0 0 0 187,855.6992 L187,834.6992 L177,824.6992 L12,824.6992 A4,4 0 0 0 8,828.6992 " fill="#EB8C52" style="stroke: #FFFFFF; stroke-width: 1.0;"/><path d="M177,824.6992 L177,832.6992 A2,2 0 0 0 179,834.6992 L187,834.6992 L177,824.6992 " fill="#EB8C52" style="stroke: #FFFFFF; stroke-width: 1.0;"/><text fill="#FFFFFF" font-family="sans-serif" font-size="13" font-style="italic" font-weight="bold" lengthAdjust="spacingAndGlyphs" textLength="148" x="19" y="847.2676">Refresh token expires</text><rect fill="#3F2C61" height="3" style="stroke: #3F2C61; stroke-width: 1.0;" width="890.5" x="3" y="890.665"/><line style="stroke: #FFFFFF; stroke-width: 0.5;" x1="3" x2="893.5" y1="890.665" y2="890.665"/><line style="stroke: #FFFFFF; stroke-width: 0.5;" x1="3" x2="893.5" y1="893.665" y2="893.665"/><rect fill="#3F2C61" height="33.3105" style="stroke: #FFFFFF; stroke-width: 1.0;" width="87" x="404.75" y="875.0098"/><text fill="#FFFFFF" font-family="sans-serif" font-size="13" font-weight="bold" lengthAdjust="spacingAndGlyphs" textLength="59" x="415.75" y="896.5781">Re-login</text><polygon fill="#56666F" points="388,960.9414,398,964.9414,388,968.9414,392,964.9414" style="stroke: #56666F; stroke-width: 1.0;"/><line style="stroke: #56666F; stroke-width: 1.0;" x1="97" x2="394" y1="964.9414" y2="964.9414"/><text fill="#000000" font-family="sans-serif" font-size="13" font-weight="bold" lengthAdjust="spacingAndGlyphs" textLength="18" x="109" y="947.5439">12</text><text fill="#000000" font-family="sans-serif" font-size="13" lengthAdjust="spacingAndGlyphs" textLength="187" x="141" y="939.8887">GET /api/load-shopping-cart</text><text fill="#000000" font-family="sans-serif" font-size="13" lengthAdjust="spacingAndGlyphs" textLength="149" x="141" y="955.1992">(Refresh token and JWT)</text><polygon fill="#56666F" points="744,1015.5625,754,1019.5625,744,1023.5625,748,1019.5625" style="stroke: #56666F; stroke-width: 1.0;"/><line style="stroke: #56666F; stroke-width: 1.0;" x1="400" x2="750" y1="1019.5625" y2="1019.5625"/><text fill="#000000" font-family="sans-serif" font-size="13" font-weight="bold" lengthAdjust="spacingAndGlyphs" textLength="18" x="412" y="1002.165">13</text><text fill="#000000" font-family="sans-serif" font-size="13" lengthAdjust="spacingAndGlyphs" textLength="290" x="444" y="994.5098">POST /oauth2/token or POST /api/jwt/refresh</text><text fill="#000000" font-family="sans-serif" font-size="13" lengthAdjust="spacingAndGlyphs" textLength="244" x="444" y="1009.8203">(grant_type=refresh and refresh token)</text><polygon fill="#EB8C52" points="411,1054.873,401,1058.873,411,1062.873,407,1058.873" style="stroke: #EB8C52; stroke-width: 1.0;"/><line style="stroke: #EB8C52; stroke-width: 1.0;" x1="405" x2="755" y1="1058.873" y2="1058.873"/><text fill="#000000" font-family="sans-serif" font-size="13" font-weight="bold" lengthAdjust="spacingAndGlyphs" textLength="18" x="422" y="1049.1309">14</text><text fill="#EB8C52" font-family="sans-serif" font-size="13" lengthAdjust="spacingAndGlyphs" textLength="77" x="454" y="1049.1309">404 Missing</text><polygon fill="#EB8C52" points="108,1094.1836,98,1098.1836,108,1102.1836,104,1098.1836" style="stroke: #EB8C52; stroke-width: 1.0;"/><line style="stroke: #EB8C52; stroke-width: 1.0;" x1="102" x2="399" y1="1098.1836" y2="1098.1836"/><text fill="#000000" font-family="sans-serif" font-size="13" font-weight="bold" lengthAdjust="spacingAndGlyphs" textLength="18" x="119" y="1088.4414">15</text><text fill="#EB8C52" font-family="sans-serif" font-size="13" lengthAdjust="spacingAndGlyphs" textLength="124" x="151" y="1088.4414">401 Not Authorized</text><line style="stroke: #56666F; stroke-width: 1.0;" x1="97" x2="139" y1="1137.4941" y2="1137.4941"/><line style="stroke: #56666F; stroke-width: 1.0;" x1="139" x2="139" y1="1137.4941" y2="1150.4941"/><line style="stroke: #56666F; stroke-width: 1.0;" x1="98" x2="139" y1="1150.4941" y2="1150.4941"/><polygon fill="#56666F" points="108,1146.4941,98,1150.4941,108,1154.4941,104,1150.4941" style="stroke: #56666F; stroke-width: 1.0;"/><text fill="#000000" font-family="sans-serif" font-size="13" font-weight="bold" lengthAdjust="spacingAndGlyphs" textLength="18" x="109" y="1127.752">16</text><text fill="#000000" font-family="sans-serif" font-size="13" lengthAdjust="spacingAndGlyphs" textLength="131" x="141" y="1127.752">Login same as above</text><path d="M64,1217.4941 L64,1244.4941 A4,4 0 0 0 68,1248.4941 L881,1248.4941 A4,4 0 0 0 885,1244.4941 L885,1223.4941 L875,1213.4941 L68,1213.4941 A4,4 0 0 0 64,1217.4941 " fill="#8B80A1" style="stroke: #FFFFFF; stroke-width: 1.0;"/><path d="M875,1213.4941 L875,1221.4941 A2,2 0 0 0 877,1223.4941 L885,1223.4941 L875,1213.4941 " fill="#8B80A1" style="stroke: #FFFFFF; stroke-width: 1.0;"/><text fill="#FFFFFF" font-family="sans-serif" font-size="13" font-style="italic" lengthAdjust="spacingAndGlyphs" textLength="91" x="424.75" y="1236.0625">Attack vectors</text><rect fill="#3F2C61" height="3" style="stroke: #3F2C61; stroke-width: 1.0;" width="890.5" x="3" y="1329.46"/><line style="stroke: #FFFFFF; stroke-width: 0.5;" x1="3" x2="893.5" y1="1329.46" y2="1329.46"/><line style="stroke: #FFFFFF; stroke-width: 0.5;" x1="3" x2="893.5" y1="1332.46" y2="1332.46"/><rect fill="#3F2C61" height="33.3105" style="stroke: #FFFFFF; stroke-width: 1.0;" width="164" x="366.25" y="1313.8047"/><text fill="#FFFFFF" font-family="sans-serif" font-size="13" font-weight="bold" lengthAdjust="spacingAndGlyphs" textLength="136" x="377.25" y="1335.373">Stolen refresh token</text><polygon fill="#56666F" points="411,1399.7363,401,1403.7363,411,1407.7363,407,1403.7363" style="stroke: #56666F; stroke-width: 1.0;"/><line style="stroke: #56666F; stroke-width: 1.0;" x1="405" x2="852" y1="1403.7363" y2="1403.7363"/><text fill="#000000" font-family="sans-serif" font-size="13" font-weight="bold" lengthAdjust="spacingAndGlyphs" textLength="18" x="422" y="1386.3389">17</text><text fill="#000000" font-family="sans-serif" font-size="13" lengthAdjust="spacingAndGlyphs" textLength="187" x="454" y="1378.6836">GET /api/load-shopping-cart</text><text fill="#000000" font-family="sans-serif" font-size="13" lengthAdjust="spacingAndGlyphs" textLength="149" x="454" y="1393.9941">(Refresh token and JWT)</text><polygon fill="#56666F" points="744,1454.3574,754,1458.3574,744,1462.3574,748,1458.3574" style="stroke: #56666F; stroke-width: 1.0;"/><line style="stroke: #56666F; stroke-width: 1.0;" x1="400" x2="750" y1="1458.3574" y2="1458.3574"/><text fill="#000000" font-family="sans-serif" font-size="13" font-weight="bold" lengthAdjust="spacingAndGlyphs" textLength="18" x="412" y="1440.96">18</text><text fill="#000000" font-family="sans-serif" font-size="13" lengthAdjust="spacingAndGlyphs" textLength="290" x="444" y="1433.3047">POST /oauth2/token or POST /api/jwt/refresh</text><text fill="#000000" font-family="sans-serif" font-size="13" lengthAdjust="spacingAndGlyphs" textLength="244" x="444" y="1448.6152">(grant_type=refresh and refresh token)</text><polygon fill="#56666F" points="411,1493.668,401,1497.668,411,1501.668,407,1497.668" style="stroke: #56666F; stroke-width: 1.0;"/><line style="stroke: #56666F; stroke-width: 1.0;" x1="405" x2="755" y1="1497.668" y2="1497.668"/><text fill="#000000" font-family="sans-serif" font-size="13" font-weight="bold" lengthAdjust="spacingAndGlyphs" textLength="18" x="422" y="1487.9258">19</text><text fill="#000000" font-family="sans-serif" font-size="13" lengthAdjust="spacingAndGlyphs" textLength="31" x="454" y="1487.9258">(JWT)</text><polygon fill="#56666F" points="841,1532.9785,851,1536.9785,841,1540.9785,845,1536.9785" style="stroke: #56666F; stroke-width: 1.0;"/><line style="stroke: #56666F; stroke-width: 1.0;" x1="400" x2="847" y1="1536.9785" y2="1536.9785"/><text fill="#000000" font-family="sans-serif" font-size="13" font-weight="bold" lengthAdjust="spacingAndGlyphs" textLength="18" x="412" y="1527.2363">20</text><text fill="#000000" font-family="sans-serif" font-size="13" lengthAdjust="spacingAndGlyphs" textLength="237" x="444" y="1527.2363">(Shopping cart contents and new JWT)</text><rect fill="#3F2C61" height="3" style="stroke: #3F2C61; stroke-width: 1.0;" width="890.5" x="3" y="1570.6338"/><line style="stroke: #FFFFFF; stroke-width: 0.5;" x1="3" x2="893.5" y1="1570.6338" y2="1570.6338"/><line style="stroke: #FFFFFF; stroke-width: 0.5;" x1="3" x2="893.5" y1="1573.6338" y2="1573.6338"/><rect fill="#3F2C61" height="33.3105" style="stroke: #FFFFFF; stroke-width: 1.0;" width="99" x="398.75" y="1554.9785"/><text fill="#FFFFFF" font-family="sans-serif" font-size="13" font-weight="bold" lengthAdjust="spacingAndGlyphs" textLength="71" x="409.75" y="1576.5469">Stolen JWT</text><polygon fill="#56666F" points="411,1640.9102,401,1644.9102,411,1648.9102,407,1644.9102" style="stroke: #56666F; stroke-width: 1.0;"/><line style="stroke: #56666F; stroke-width: 1.0;" x1="405" x2="852" y1="1644.9102" y2="1644.9102"/><text fill="#000000" font-family="sans-serif" font-size="13" font-weight="bold" lengthAdjust="spacingAndGlyphs" textLength="18" x="422" y="1627.5127">21</text><text fill="#000000" font-family="sans-serif" font-size="13" lengthAdjust="spacingAndGlyphs" textLength="187" x="454" y="1619.8574">GET /api/load-shopping-cart</text><text fill="#000000" font-family="sans-serif" font-size="13" lengthAdjust="spacingAndGlyphs" textLength="31" x="454" y="1635.168">(JWT)</text><polygon fill="#56666F" points="841,1680.2207,851,1684.2207,841,1688.2207,845,1684.2207" style="stroke: #56666F; stroke-width: 1.0;"/><line style="stroke: #56666F; stroke-width: 1.0;" x1="400" x2="847" y1="1684.2207" y2="1684.2207"/><text fill="#000000" font-family="sans-serif" font-size="13" font-weight="bold" lengthAdjust="spacingAndGlyphs" textLength="18" x="412" y="1674.4785">22</text><text fill="#000000" font-family="sans-serif" font-size="13" lengthAdjust="spacingAndGlyphs" textLength="154" x="444" y="1674.4785">(Shopping cart contents)</text></g></svg>