<svg xmlns="http://www.w3.org/2000/svg" xmlns:xlink="http://www.w3.org/1999/xlink" width="83" height="60"><g fill="#3e4e50" fill-rule="evenodd"><path d="M82.12 22.885c-.23-.192-2.308-1.77-6.77-1.77a21.44 21.44 0 0 0-3.5.308c-.846-5.885-5.73-8.73-5.923-8.885l-1.192-.692-.77 1.115a16.43 16.43 0 0 0-2.115 4.923c-.808 3.346-.308 6.5 1.385 9.192-2.038 1.154-5.346 1.423-6.038 1.462H2.582a2.58 2.58 0 0 0-2.577 2.577A38.92 38.92 0 0 0 2.39 45.154c1.885 4.923 4.692 8.577 8.308 10.808 4.077 2.5 10.73 3.923 18.23 3.923 3.385 0 6.77-.308 10.115-.923a41.74 41.74 0 0 0 13.23-4.808 36.22 36.22 0 0 0 9-7.385c4.346-4.885 6.923-10.346 8.808-15.192h.77c4.73 0 7.654-1.885 9.27-3.5 1.077-1 1.885-2.23 2.462-3.615l.346-1-.808-.577zM7.66 26.962h7.308a.65.65 0 0 0 .654-.654V19.77a.65.65 0 0 0-.654-.654H7.66a.65.65 0 0 0-.654.654v6.538c.038.385.308.654.654.654"/><use xlink:href="#A"/><path d="M28.005 26.962h7.308a.65.65 0 0 0 .654-.654V19.77a.65.65 0 0 0-.654-.654h-7.308a.65.65 0 0 0-.654.654v6.538c0 .385.27.654.654.654m10.115 0h7.308a.65.65 0 0 0 .654-.654V19.77a.65.65 0 0 0-.654-.654H38.12a.65.65 0 0 0-.654.654v6.538c0 .385.308.654.654.654m-20.384-9.347h7.308c.346 0 .654-.308.654-.654v-6.538a.65.65 0 0 0-.654-.654h-7.308a.65.65 0 0 0-.654.654v6.538c.038.346.308.654.654.654m10.27 0h7.308c.346 0 .654-.308.654-.654v-6.538a.65.65 0 0 0-.654-.654h-7.308a.65.65 0 0 0-.654.654v6.538a.65.65 0 0 0 .654.654m10.115 0h7.308c.346 0 .654-.308.654-.654v-6.538c0-.346-.308-.654-.654-.654H38.12a.65.65 0 0 0-.654.654v6.538c0 .346.308.654.654.654m0-9.385h7.308a.65.65 0 0 0 .654-.654V1.038c0-.346-.308-.654-.654-.654H38.12a.65.65 0 0 0-.654.654v6.538c0 .346.308.654.654.654"/><use xlink:href="#A" x="30.577"/></g><defs><path id="A" d="M17.736 26.962h7.308a.65.65 0 0 0 .654-.654V19.77a.65.65 0 0 0-.654-.654h-7.308a.65.65 0 0 0-.654.654v6.538c.038.385.308.654.654.654"/></defs></svg>