<svg xmlns="http://www.w3.org/2000/svg" width="51" height="60"><path d="M37.94 1.2c0 3-1.097 5.802-3.285 8.396-2.64 3.083-5.832 4.864-9.294 4.583a9.37 9.37 0 0 1-.07-1.137c0-2.88 1.255-5.964 3.484-8.484 1.113-1.276 2.528-2.337 4.245-3.184C34.733.54 36.353.08 37.876 0a10.88 10.88 0 0 1 .063 1.2h0zm11.6 45.558c-.908 2.096-1.983 4.026-3.23 5.8-1.698 2.418-3.088 4.092-4.16 5.022-1.66 1.526-3.44 2.307-5.346 2.352-1.368 0-3.018-.4-4.938-1.178-1.927-.785-3.697-1.174-5.316-1.174-1.698 0-3.52.4-5.467 1.174s-3.522 1.2-4.724 1.24c-1.827.078-3.65-.726-5.467-2.415-1.16-1-2.612-2.744-4.35-5.2-1.865-2.622-3.4-5.663-4.6-9.13C.645 39.507 0 35.88 0 32.37c0-4.02.87-7.5 2.612-10.395a15.4 15.4 0 0 1 5.47-5.528c2.27-1.352 4.743-2.04 7.395-2.085 1.45 0 3.355.45 5.72 1.33s3.873 1.333 4.537 1.333c.496 0 2.18-.524 5.03-1.57 2.697-.97 4.973-1.37 6.838-1.213 5.053.407 8.85 2.397 11.374 5.982-4.52 2.735-6.754 6.567-6.7 11.482.04 3.828 1.43 7.014 4.163 9.544 1.238 1.174 2.62 2.08 4.16 2.726a44.87 44.87 0 0 1-1.06 2.781h0z" fill="#3e4e50" fill-rule="evenodd"/></svg>