<svg xmlns="http://www.w3.org/2000/svg" width="298" height="254"><g fill="#3e4f51"><path d="M198.9 115.1c-2.9-1.2-6.2.2-7.4 3.1s.2 6.2 3.1 7.4 6.2-.2 7.4-3.1c1.2-2.8-.2-6.2-3.1-7.4z"/><circle transform="matrix(.38269 -.923877 .923877 .38269 7.739423 279.870759)" cx="213.3" cy="134.144" r="5.7"/><circle cx="180.2" cy="138.5" r="5.7"/><path d="M102.1 128.6c-3.1.5-5.2 3.4-4.7 6.5s3.4 5.2 6.5 4.7 5.2-3.4 4.7-6.5c-.4-3.1-3.4-5.2-6.5-4.7z"/></g><path d="M296.2 155.1l-26.9-45.9c-3.1-5.4-8.8-8.7-15-8.7h-16.9c-2.7-3.2-5.5-6.1-8.4-8.7l26.6-37.4 17.3 4.1c1 .3 1.9.3 2.4.3 3.1 0 6.1-1.5 7.9-4l9.3-12.3c3.3-4.4 2.5-10.5-1.8-13.9L256.2 2.5c-4.4-3.3-10.5-2.5-13.9 1.8l-9 12c-2.4 3.1-2.7 7.3-.9 10.7l8.8 17-27 38.1c-4.2-1.9-8.6-3.2-12.9-3.7-24.6-3.2-44.4 16.3-52.9 26.6-16.9-10.2-34.2-13.3-51.4-9-4.5 1.1-9 2.7-13.3 4.8H45.2c-6.1 0-11.6 3.1-14.8 8.3l-28.3 46L.3 158v18.1c0 4.7 2.5 9 6.3 11.5v57.9c0 4.6 3.8 8.4 8.4 8.4h266.3c5.6 0 10.1-4.6 10.1-10.1v-56.1a13.64 13.64 0 0 0 6.3-11.5v-18l-1.5-3.1zM251.8 21.3l22 16.7-1.7 2.2-14.6-3.4-7.2-13.6 1.5-1.9zM273.7 236H24.4v-42.7l249.3.4V236zm0-58.9H24.4v-8.9h249.3v8.9zm-249.2-25l20.8-33.9h13.5c-3.4 3.3-6.7 7-9.9 10.9a8.06 8.06 0 0 0-1 8.9c1.4 3 4.3 4.8 7.6 4.8a10.61 10.61 0 0 0 8.4-4c8.1-9.7 21.1-22.1 37.3-26.1 12.9-3.2 26.2-.5 39.6 7.9 6.7 4.2 15.3 2.8 20.1-3.3 4.5-5.7 20.5-24.2 38.1-21.9 14.6 1.9 28.6 16.6 41.8 43.6 1.1 2.3 3.5 3.8 6 3.8h1.8c3 0 5.7-1.5 7.2-4 1.6-2.5 1.7-5.6.4-8.3-2.2-4.5-4.4-8.6-6.7-12.5h4.5l20 34.1H24.5z" fill="#3e4e50"/></svg>