<svg xmlns="http://www.w3.org/2000/svg" width="300" height="254"><g fill="#3e4f51"><path d="M298.7 159l-28.1-47.9c-2.2-3.8-6.3-6.2-10.7-6.2h-20.4c-4.5-5.6-9.1-10.2-13.8-13.8l33.2-46.7-1.9-.4c-1.3-.3-2.5-1.2-3.1-2.4l-.7-1.4-33.3 46.9c-5.2-3-10.5-4.9-16-5.6-24.4-3.2-44.2 18.2-51.6 27.6-1 1.2-2.7 1.5-4.1.6-17-10.8-34.2-14.1-51.2-9.9-4.9 1.2-9.6 3-13.9 5.2H41.5c-4.4 0-8.3 2.2-10.6 5.9L1.3 159l-1 1.6v17.3c0 4.1 2.9 7.4 6.6 8.4v67.1H293v-67.1c3.8-1 6.6-4.3 6.6-8.4v-17.3l-.9-1.6zM36.8 114.5c1-1.6 2.7-2.6 4.6-2.6h30c-18.7 13.5-29.7 32.1-30.3 33.2-1 1.7-.4 3.8 1.3 4.8.6.3 1.2.5 1.8.5 1.2 0 2.4-.6 3-1.8.2-.3 20.2-34.5 51.4-42.2 15-3.7 30.4-.7 45.8 9 4.4 2.8 10.2 1.9 13.4-2.2 6.6-8.4 24.4-27.7 45.1-25 19.2 2.5 37 22.4 52.9 59.3.8 1.8 2.8 2.6 4.6 1.8s2.6-2.8 1.8-4.6c-5.6-13-11.5-24-17.7-33h15.3c1.9 0 3.7 1 4.7 2.7l26 44.4H9.6l27.2-44.3zM286 246.4H14v-59.7h272v59.7zm6.6-68.5a1.79 1.79 0 0 1-1.8 1.8H9.1a1.79 1.79 0 0 1-1.8-1.8V166h285.3v11.9z"/><circle transform="matrix(.38269 -.923877 .923877 .38269 13.352718 254.715536)" cx="197.282" cy="117.366" r="5.7"/><path d="M213.9 125.4c-3.2 0-5.7 2.6-5.7 5.7s2.6 5.7 5.7 5.7c3.2 0 5.7-2.6 5.7-5.7s-2.5-5.7-5.7-5.7z"/><circle transform="matrix(.707107 -.707107 .707107 .707107 -42.87192 167.472989)" cx="180.722" cy="135.487" r="5.7"/><circle transform="matrix(.987085 -.160198 .160198 .987085 -21.33269 17.779871)" cx="99.604" cy="141.195" r="5.7"/></g><path d="M256.374 44.248l1.813.404 22.255 5.247c.403.101.705.101 1.108.101 1.41 0 2.82-.706 3.726-1.917l9.768-13.017c1.611-2.119 1.108-5.045-.906-6.66L257.985.959c-2.115-1.615-5.035-1.11-6.646.908l-9.365 12.512c-1.108 1.413-1.309 3.431-.403 5.045l10.876 20.888.705 1.413c.806 1.312 1.913 2.22 3.222 2.523zM256.226 8L289 32.898 281.468 43l-21.883-5.102L249 17.694 256.226 8z" fill="#3e4e50"/></svg>