<svg xmlns="http://www.w3.org/2000/svg" width="61" height="59" fill="#3e4e50" fill-rule="evenodd"><path d="M54.793 55.285v.358h.975v3.027h.397v-3.027h.978v-.358zm5.597 0l-1.06 2.352-.163.415h-.013c-.024-.1-.076-.225-.156-.407l-1.04-2.36h-.524v3.386h.382v-2.267l-.02-.663h.01a2.13 2.13 0 0 0 .102.347l1.155 2.584h.193l1.157-2.602a2.07 2.07 0 0 0 .102-.328h.01l-.033.66v2.272h.394v-3.386H60.4zM0 48.392l19.026 3.764v-21.3H0zm0-19.9h19.026V7.245L0 11.013zm22.002 0h30.675V.58L22.002 6.657zm0 24.255l30.675 6.076v-27.96H22.002z"/></svg>