<svg xmlns="http://www.w3.org/2000/svg" width="130" height="130" viewBox="0 0 130 130">
    <g>
        <path fill="#cad5e2"
              d="M98.855 114.785c-1.24-1.401-3.314-1.691-4.91-.706a55.2 55.2 0 0 1-29.095 8.246c-16.426 0-31.173-7.165-41.292-18.485a14.2 14.2 0 0 1-6.351 4.337c11.523 13.282 28.579 21.714 47.643 21.714 12.153 0 23.493-3.427 33.108-9.348 2.027-1.247 2.471-3.981.897-5.758M120.065 67.615a54 54 0 0 1-1.681 13.341c2.679.25 5.135 1.25 7.173 2.776a61.5 61.5 0 0 0 2.144-16.117c0-22.805-12.378-42.735-30.835-53.583-2.025-1.19-4.64-.374-5.544 1.778-.736 1.75-.05 3.757 1.596 4.724 16.234 9.537 27.147 27.064 27.147 47.081M50.697 9.421c0-.87.092-1.72.246-2.547a63 63 0 0 0-15.427 5.628C15.146 23.117 3.104 43.25 2.006 64.485c-.121 2.329 1.825 4.242 4.169 4.034a3.81 3.81 0 0 0 3.476-3.598c.962-18.675 11.54-36.405 29.42-45.721a55 55 0 0 1 12.599-4.71 13.8 13.8 0 0 1-.973-5.069"/>
        <path fill="#f58320"
              d="M64.851.442c-5.006 0-9.063 4.02-9.063 8.98 0 4.959 4.057 8.98 9.063 8.98 5.004 0 9.062-4.021 9.062-8.98S69.855.441 64.85.441M117.05 85.934c-5.005 0-9.062 4.02-9.062 8.979 0 4.96 4.057 8.978 9.062 8.978s9.061-4.019 9.061-8.978-4.056-8.98-9.061-8.98M12.652 85.934c-5.006 0-9.062 4.02-9.062 8.979 0 4.96 4.056 8.978 9.062 8.978 5.004 0 9.062-4.019 9.062-8.978s-4.058-8.98-9.062-8.98"/>
        <path fill="#cad5e2"
              d="M80.253 67.575h27.766c1.465 0 2.634-1.223 2.55-2.671-.863-14.718-8.81-27.545-20.51-35.203-1.227-.803-2.887-.419-3.624.844l-14.073 24.15c4.588 2.548 7.724 7.347 7.891 12.88M72.756 81.133a15.4 15.4 0 0 1-7.905 2.184c-2.887 0-5.583-.804-7.897-2.178L43.28 104.607a2.527 2.527 0 0 0 1.075 3.533c12.537 6.205 27.712 6.615 41.001.008 1.318-.655 1.82-2.27 1.082-3.535zM57.339 54.696 43.266 30.545c-.735-1.263-2.396-1.648-3.624-.844-11.698 7.657-19.646 20.485-20.51 35.203-.084 1.448 1.086 2.671 2.55 2.671h27.766c.168-5.532 3.303-10.332 7.89-12.88"/>
        <path fill="#f58320" d="M64.851 59.054c-5.006 0-9.062 4.02-9.062 8.979 0 4.96 4.056 8.979 9.062 8.979 5.004 0 9.062-4.02 9.062-8.98 0-4.958-4.058-8.978-9.062-8.978"/>
    </g>
</svg>