<?xml version="1.0" encoding="UTF-8"?>
<svg width="798.710371px" height="82.07496px" viewBox="0 0 798.710371 82.07496" version="1.1" xmlns="http://www.w3.org/2000/svg" xmlns:xlink="http://www.w3.org/1999/xlink">
    <title>security-ux-spectrum</title>
    <g id="Page-1" stroke="none" stroke-width="1" fill="none" fill-rule="evenodd">
        <g id="security-ux-spectrum" transform="translate(-0.000000, -0.000000)">
            <path d="M58.130284,13.578125 L58.130284,0.21875 L60.786534,0.21875 L63.942784,9.671875 C64.2344507,10.5572917 64.4479923,11.21875 64.583409,11.65625 C64.739659,11.1666667 64.974034,10.453125 65.286534,9.515625 L68.489659,0.21875 L70.864659,0.21875 L70.864659,13.578125 L69.161534,13.578125 L69.161534,2.40625 L65.286534,13.578125 L63.692784,13.578125 L59.833409,2.203125 L59.833409,13.578125 L58.130284,13.578125 Z M72.905461,8.734375 C72.905461,6.94270833 73.4002527,5.61979167 74.389836,4.765625 C75.2231693,4.046875 76.2387943,3.6875 77.436711,3.6875 C78.7700443,3.6875 79.858586,4.125 80.702336,5 C81.546086,5.86458333 81.967961,7.06770833 81.967961,8.609375 C81.967961,9.84895833 81.780461,10.828125 81.405461,11.546875 C81.030461,12.2552083 80.483586,12.8072917 79.764836,13.203125 C79.0565027,13.5989583 78.280461,13.796875 77.436711,13.796875 C76.0825443,13.796875 74.9887943,13.3645833 74.155461,12.5 C73.3221277,11.625 72.905461,10.3697917 72.905461,8.734375 Z M74.592961,8.734375 C74.592961,9.97395833 74.858586,10.90625 75.389836,11.53125 C75.9315027,12.1458333 76.6137943,12.453125 77.436711,12.453125 C78.249211,12.453125 78.9262943,12.1458333 79.467961,11.53125 C80.0096277,10.90625 80.280461,9.95833333 80.280461,8.6875 C80.280461,7.48958333 80.0096277,6.58333333 79.467961,5.96875 C78.9262943,5.35416667 78.249211,5.046875 77.436711,5.046875 C76.6137943,5.046875 75.9315027,5.35416667 75.389836,5.96875 C74.858586,6.57291667 74.592961,7.49479167 74.592961,8.734375 Z M83.874928,13.578125 L83.874928,3.90625 L85.343678,3.90625 L85.343678,5.375 C85.718678,4.6875 86.062428,4.234375 86.374928,4.015625 C86.6978447,3.796875 87.0520113,3.6875 87.437428,3.6875 C87.9895113,3.6875 88.5520113,3.86458333 89.124928,4.21875 L88.562428,5.734375 C88.156178,5.49479167 87.7551363,5.375 87.359303,5.375 C86.9947197,5.375 86.671803,5.484375 86.390553,5.703125 C86.109303,5.921875 85.906178,6.21875 85.781178,6.59375 C85.593678,7.17708333 85.499928,7.81770833 85.499928,8.515625 L85.499928,13.578125 L83.874928,13.578125 Z M96.72823,10.46875 L98.41573,10.671875 C98.1448967,11.6614583 97.650105,12.4322917 96.931355,12.984375 C96.212605,13.5260417 95.29073,13.796875 94.16573,13.796875 C92.7490633,13.796875 91.6240633,13.3645833 90.79073,12.5 C89.9678133,11.625 89.556355,10.4010417 89.556355,8.828125 C89.556355,7.19270833 89.9730217,5.92708333 90.806355,5.03125 C91.650105,4.13541667 92.7386467,3.6875 94.07198,3.6875 C95.3636467,3.6875 96.41573,4.13020833 97.22823,5.015625 C98.0511467,5.890625 98.462605,7.125 98.462605,8.71875 C98.462605,8.82291667 98.462605,8.96875 98.462605,9.15625 L91.243855,9.15625 C91.306355,10.21875 91.6084383,11.0364583 92.150105,11.609375 C92.6917717,12.171875 93.3636467,12.453125 94.16573,12.453125 C94.7698967,12.453125 95.2855217,12.296875 95.712605,11.984375 C96.1396883,11.6614583 96.47823,11.15625 96.72823,10.46875 Z M91.337605,7.8125 L96.743855,7.8125 C96.6709383,7 96.462605,6.390625 96.118855,5.984375 C95.5980217,5.34895833 94.9209383,5.03125 94.087605,5.03125 C93.337605,5.03125 92.7021883,5.28645833 92.181355,5.796875 C91.6709383,6.296875 91.3896883,6.96875 91.337605,7.8125 Z M105.271626,9.28125 L106.927876,9.140625 C107.011209,9.80729167 107.193501,10.3541667 107.474751,10.78125 C107.766418,11.2083333 108.214334,11.5572917 108.818501,11.828125 C109.433084,12.0885417 110.120584,12.21875 110.881001,12.21875 C111.547668,12.21875 112.141418,12.1197917 112.662251,11.921875 C113.183084,11.7239583 113.568501,11.453125 113.818501,11.109375 C114.068501,10.7552083 114.193501,10.3697917 114.193501,9.953125 C114.193501,9.53645833 114.068501,9.171875 113.818501,8.859375 C113.578918,8.546875 113.183084,8.28125 112.631001,8.0625 C112.266418,7.92708333 111.469543,7.71354167 110.240376,7.421875 C109.021626,7.11979167 108.167459,6.83854167 107.677876,6.578125 C107.032043,6.24479167 106.552876,5.83333333 106.240376,5.34375 C105.927876,4.84375 105.771626,4.28645833 105.771626,3.671875 C105.771626,3.00520833 105.964334,2.38020833 106.349751,1.796875 C106.735168,1.203125 107.292459,0.755208333 108.021626,0.453125 C108.761209,0.151041667 109.578918,1.42108547e-14 110.474751,1.42108547e-14 C111.464334,1.42108547e-14 112.334126,0.161458333 113.084126,0.484375 C113.844543,0.796875 114.427876,1.265625 114.834126,1.890625 C115.240376,2.50520833 115.459126,3.203125 115.490376,3.984375 L113.802876,4.109375 C113.709126,3.265625 113.396626,2.63020833 112.865376,2.203125 C112.344543,1.765625 111.573709,1.546875 110.552876,1.546875 C109.479959,1.546875 108.698709,1.74479167 108.209126,2.140625 C107.719543,2.53645833 107.474751,3.01041667 107.474751,3.5625 C107.474751,4.04166667 107.651834,4.43229167 108.006001,4.734375 C108.339334,5.046875 109.224751,5.36979167 110.662251,5.703125 C112.099751,6.02604167 113.084126,6.30729167 113.615376,6.546875 C114.396626,6.90104167 114.969543,7.35416667 115.334126,7.90625 C115.709126,8.45833333 115.896626,9.09375 115.896626,9.8125 C115.896626,10.5208333 115.693501,11.1927083 115.287251,11.828125 C114.881001,12.453125 114.297668,12.9427083 113.537251,13.296875 C112.776834,13.640625 111.917459,13.8125 110.959126,13.8125 C109.750793,13.8125 108.735168,13.6354167 107.912251,13.28125 C107.099751,12.9270833 106.459126,12.3958333 105.990376,11.6875 C105.532043,10.9791667 105.292459,10.1770833 105.271626,9.28125 Z M124.730824,10.46875 L126.418324,10.671875 C126.147491,11.6614583 125.652699,12.4322917 124.933949,12.984375 C124.215199,13.5260417 123.293324,13.796875 122.168324,13.796875 C120.751657,13.796875 119.626657,13.3645833 118.793324,12.5 C117.970407,11.625 117.558949,10.4010417 117.558949,8.828125 C117.558949,7.19270833 117.975616,5.92708333 118.808949,5.03125 C119.652699,4.13541667 120.741241,3.6875 122.074574,3.6875 C123.366241,3.6875 124.418324,4.13020833 125.230824,5.015625 C126.053741,5.890625 126.465199,7.125 126.465199,8.71875 C126.465199,8.82291667 126.465199,8.96875 126.465199,9.15625 L119.246449,9.15625 C119.308949,10.21875 119.611032,11.0364583 120.152699,11.609375 C120.694366,12.171875 121.366241,12.453125 122.168324,12.453125 C122.772491,12.453125 123.288116,12.296875 123.715199,11.984375 C124.142282,11.6614583 124.480824,11.15625 124.730824,10.46875 Z M119.340199,7.8125 L124.746449,7.8125 C124.673532,7 124.465199,6.390625 124.121449,5.984375 C123.600616,5.34895833 122.923532,5.03125 122.090199,5.03125 C121.340199,5.03125 120.704782,5.28645833 120.183949,5.796875 C119.673532,6.296875 119.392282,6.96875 119.340199,7.8125 Z M134.794041,10.03125 L136.403416,10.25 C136.226333,11.3541667 135.773208,12.2239583 135.044041,12.859375 C134.325291,13.484375 133.434666,13.796875 132.372166,13.796875 C131.049249,13.796875 129.986749,13.3645833 129.184666,12.5 C128.382583,11.6354167 127.981541,10.3958333 127.981541,8.78125 C127.981541,7.72916667 128.153416,6.8125 128.497166,6.03125 C128.840916,5.25 129.366958,4.66666667 130.075291,4.28125 C130.783624,3.88541667 131.554458,3.6875 132.387791,3.6875 C133.439874,3.6875 134.299249,3.953125 134.965916,4.484375 C135.632583,5.015625 136.059666,5.77083333 136.247166,6.75 L134.653416,6.984375 C134.497166,6.33854167 134.226333,5.85416667 133.840916,5.53125 C133.455499,5.19791667 132.991958,5.03125 132.450291,5.03125 C131.627374,5.03125 130.955499,5.328125 130.434666,5.921875 C129.913833,6.515625 129.653416,7.453125 129.653416,8.734375 C129.653416,10.0364583 129.903416,10.984375 130.403416,11.578125 C130.903416,12.1614583 131.554458,12.453125 132.356541,12.453125 C133.002374,12.453125 133.538833,12.2552083 133.965916,11.859375 C134.403416,11.4635417 134.679458,10.8541667 134.794041,10.03125 Z M144.137791,13.578125 L144.137791,12.15625 C143.387791,13.25 142.366958,13.796875 141.075291,13.796875 C140.502374,13.796875 139.965916,13.6875 139.465916,13.46875 C138.976333,13.25 138.611749,12.9739583 138.372166,12.640625 C138.132583,12.3072917 137.965916,11.9010417 137.872166,11.421875 C137.799249,11.109375 137.762791,10.5989583 137.762791,9.890625 L137.762791,3.90625 L139.403416,3.90625 L139.403416,9.265625 C139.403416,10.1197917 139.439874,10.6979167 139.512791,11 C139.616958,11.4270833 139.835708,11.765625 140.169041,12.015625 C140.502374,12.265625 140.913833,12.390625 141.403416,12.390625 C141.892999,12.390625 142.351333,12.265625 142.778416,12.015625 C143.215916,11.7552083 143.523208,11.4114583 143.700291,10.984375 C143.877374,10.546875 143.965916,9.91666667 143.965916,9.09375 L143.965916,3.90625 L145.606541,3.90625 L145.606541,13.578125 L144.137791,13.578125 Z M148.169758,13.578125 L148.169758,3.90625 L149.638508,3.90625 L149.638508,5.375 C150.013508,4.6875 150.357258,4.234375 150.669758,4.015625 C150.992675,3.796875 151.346841,3.6875 151.732258,3.6875 C152.284341,3.6875 152.846841,3.86458333 153.419758,4.21875 L152.857258,5.734375 C152.451008,5.49479167 152.049966,5.375 151.654133,5.375 C151.28955,5.375 150.966633,5.484375 150.685383,5.703125 C150.404133,5.921875 150.201008,6.21875 150.076008,6.59375 C149.888508,7.17708333 149.794758,7.81770833 149.794758,8.515625 L149.794758,13.578125 L148.169758,13.578125 Z M161.02306,10.46875 L162.71056,10.671875 C162.439727,11.6614583 161.944935,12.4322917 161.226185,12.984375 C160.507435,13.5260417 159.58556,13.796875 158.46056,13.796875 C157.043893,13.796875 155.918893,13.3645833 155.08556,12.5 C154.262643,11.625 153.851185,10.4010417 153.851185,8.828125 C153.851185,7.19270833 154.267852,5.92708333 155.101185,5.03125 C155.944935,4.13541667 157.033477,3.6875 158.36681,3.6875 C159.658477,3.6875 160.71056,4.13020833 161.52306,5.015625 C162.345977,5.890625 162.757435,7.125 162.757435,8.71875 C162.757435,8.82291667 162.757435,8.96875 162.757435,9.15625 L155.538685,9.15625 C155.601185,10.21875 155.903268,11.0364583 156.444935,11.609375 C156.986602,12.171875 157.658477,12.453125 158.46056,12.453125 C159.064727,12.453125 159.580352,12.296875 160.007435,11.984375 C160.434518,11.6614583 160.77306,11.15625 161.02306,10.46875 Z M155.632435,7.8125 L161.038685,7.8125 C160.965768,7 160.757435,6.390625 160.413685,5.984375 C159.892852,5.34895833 159.215768,5.03125 158.382435,5.03125 C157.632435,5.03125 156.997018,5.28645833 156.476185,5.796875 C155.965768,6.296875 155.684518,6.96875 155.632435,7.8125 Z" id="Shape" fill="#000000" fill-rule="nonzero"></path>
            <path d="M53.575598,81.840585 L53.575598,68.48121 L55.341223,68.48121 L55.341223,73.965585 L62.2787154,73.965585 L62.2787154,68.48121 L64.0443404,68.48121 L64.0443404,81.840585 L62.2787154,81.840585 L62.2787154,75.54371 L55.341223,75.54371 L55.341223,81.840585 L53.575598,81.840585 Z M73.095412,80.653085 C72.4808287,81.1635017 71.892287,81.528085 71.329787,81.746835 C70.7777037,81.9551683 70.1787453,82.059335 69.532912,82.059335 C68.470412,82.059335 67.6527037,81.7989183 67.079787,81.278085 C66.5068703,80.7572517 66.220412,80.0957933 66.220412,79.29371 C66.220412,78.8145433 66.329787,78.3822517 66.548537,77.996835 C66.767287,77.6010017 67.048537,77.2885017 67.392287,77.059335 C67.7464537,76.8197517 68.142287,76.63746 68.579787,76.51246 C68.892287,76.4291267 69.376662,76.3457933 70.032912,76.26246 C71.3558287,76.10621 72.329787,75.91871 72.954787,75.69996 C72.9652037,75.4707933 72.970412,75.3301683 72.970412,75.278085 C72.970412,74.6114183 72.814162,74.13746 72.501662,73.85621 C72.0849953,73.4916267 71.4599953,73.309335 70.626662,73.309335 C69.8558287,73.309335 69.2881203,73.4447517 68.923537,73.715585 C68.5589537,73.9864183 68.2881203,74.4603767 68.111037,75.13746 L66.501662,74.91871 C66.6474953,74.2416267 66.8870787,73.6947517 67.220412,73.278085 C67.5537453,72.8510017 68.0381203,72.5228767 68.673537,72.29371 C69.3089537,72.0645433 70.0381203,71.94996 70.861037,71.94996 C71.6943703,71.94996 72.3662453,72.0489183 72.876662,72.246835 C73.3974953,72.434335 73.7777037,72.6791267 74.017287,72.98121 C74.267287,73.2728767 74.439162,73.6426683 74.532912,74.090585 C74.5849953,74.371835 74.611037,74.8770433 74.611037,75.60621 L74.611037,77.79371 C74.611037,79.3145433 74.6474953,80.278085 74.720412,80.684335 C74.7933287,81.0801683 74.9287453,81.465585 75.126662,81.840585 L73.423537,81.840585 C73.2464537,81.496835 73.1370787,81.1010017 73.095412,80.653085 Z M72.954787,76.98121 C72.361037,77.23121 71.470412,77.4395433 70.282912,77.60621 C69.6058287,77.69996 69.126662,77.809335 68.845412,77.934335 C68.564162,78.059335 68.345412,78.2364183 68.189162,78.465585 C68.0433287,78.6947517 67.970412,78.9551683 67.970412,79.246835 C67.970412,79.684335 68.1370787,80.0489183 68.470412,80.340585 C68.8037453,80.6322517 69.2881203,80.778085 69.923537,80.778085 C70.548537,80.778085 71.1058287,80.6426683 71.595412,80.371835 C72.095412,80.090585 72.4599953,79.7103767 72.689162,79.23121 C72.8662453,78.85621 72.954787,78.309335 72.954787,77.590585 L72.954787,76.98121 Z M77.143004,81.840585 L77.143004,72.16871 L78.611754,72.16871 L78.611754,73.63746 C78.986754,72.94996 79.330504,72.496835 79.643004,72.278085 C79.9659207,72.059335 80.3200873,71.94996 80.705504,71.94996 C81.2575873,71.94996 81.8200873,72.1270433 82.393004,72.48121 L81.830504,73.996835 C81.424254,73.7572517 81.0232123,73.63746 80.627379,73.63746 C80.2627957,73.63746 79.939879,73.746835 79.658629,73.965585 C79.377379,74.184335 79.174254,74.48121 79.049254,74.85621 C78.861754,75.4395433 78.768004,76.0801683 78.768004,76.778085 L78.768004,81.840585 L77.143004,81.840585 Z M89.636931,81.840585 L89.636931,80.621835 C89.0327643,81.5801683 88.1317227,82.059335 86.933806,82.059335 C86.1629727,82.059335 85.4546393,81.8457933 84.808806,81.41871 C84.1629727,80.9916267 83.6629727,80.3978767 83.308806,79.63746 C82.9546393,78.8770433 82.777556,78.0020433 82.777556,77.01246 C82.777556,76.04371 82.9390143,75.16871 83.261931,74.38746 C83.5848477,73.5957933 84.0640143,72.9916267 84.699431,72.57496 C85.3452643,72.1582933 86.0692227,71.94996 86.871306,71.94996 C87.4546393,71.94996 87.9702643,72.07496 88.418181,72.32496 C88.8765143,72.5645433 89.246306,72.8822517 89.527556,73.278085 L89.527556,68.48121 L91.168181,68.48121 L91.168181,81.840585 L89.636931,81.840585 Z M84.465056,77.01246 C84.465056,78.2520433 84.7254727,79.1791267 85.246306,79.79371 C85.7671393,80.4082933 86.3817227,80.715585 87.090056,80.715585 C87.808806,80.715585 88.418181,80.4239183 88.918181,79.840585 C89.418181,79.246835 89.668181,78.3510017 89.668181,77.153085 C89.668181,75.8301683 89.4129727,74.8614183 88.902556,74.246835 C88.3921393,73.621835 87.761931,73.309335 87.011931,73.309335 C86.293181,73.309335 85.6890143,73.60621 85.199431,74.19996 C84.7098477,74.79371 84.465056,75.73121 84.465056,77.01246 Z M100.372023,78.73121 L102.059523,78.934335 C101.78869,79.9239183 101.293898,80.6947517 100.575148,81.246835 C99.856398,81.7885017 98.934523,82.059335 97.809523,82.059335 C96.3928563,82.059335 95.2678563,81.6270433 94.434523,80.76246 C93.6116063,79.88746 93.200148,78.6635017 93.200148,77.090585 C93.200148,75.4551683 93.6168147,74.1895433 94.450148,73.29371 C95.293898,72.3978767 96.3824397,71.94996 97.715773,71.94996 C99.0074397,71.94996 100.059523,72.3926683 100.872023,73.278085 C101.69494,74.153085 102.106398,75.38746 102.106398,76.98121 C102.106398,77.0853767 102.106398,77.23121 102.106398,77.41871 L94.887648,77.41871 C94.950148,78.48121 95.2522313,79.2989183 95.793898,79.871835 C96.3355647,80.434335 97.0074397,80.715585 97.809523,80.715585 C98.4136897,80.715585 98.9293147,80.559335 99.356398,80.246835 C99.7834813,79.9239183 100.122023,79.41871 100.372023,78.73121 Z M94.981398,76.07496 L100.387648,76.07496 C100.314731,75.26246 100.106398,74.653085 99.762648,74.246835 C99.2418147,73.6114183 98.5647313,73.29371 97.731398,73.29371 C96.981398,73.29371 96.3459813,73.5489183 95.825148,74.059335 C95.3147313,74.559335 95.0334813,75.23121 94.981398,76.07496 Z M104.107115,81.840585 L104.107115,72.16871 L105.575865,72.16871 L105.575865,73.63746 C105.950865,72.94996 106.294615,72.496835 106.607115,72.278085 C106.930032,72.059335 107.284198,71.94996 107.669615,71.94996 C108.221698,71.94996 108.784198,72.1270433 109.357115,72.48121 L108.794615,73.996835 C108.388365,73.7572517 107.987323,73.63746 107.59149,73.63746 C107.226907,73.63746 106.90399,73.746835 106.62274,73.965585 C106.34149,74.184335 106.138365,74.48121 106.013365,74.85621 C105.825865,75.4395433 105.732115,76.0801683 105.732115,76.778085 L105.732115,81.840585 L104.107115,81.840585 Z M119.096846,80.371835 L119.331221,81.82496 C118.872888,81.91871 118.461429,81.965585 118.096846,81.965585 C117.503096,81.965585 117.039554,81.871835 116.706221,81.684335 C116.383304,81.496835 116.154138,81.2520433 116.018721,80.94996 C115.883304,80.63746 115.815596,79.9916267 115.815596,79.01246 L115.815596,73.434335 L114.612471,73.434335 L114.612471,72.16871 L115.815596,72.16871 L115.815596,69.778085 L117.440596,68.79371 L117.440596,72.16871 L119.096846,72.16871 L119.096846,73.434335 L117.440596,73.434335 L117.440596,79.10621 C117.440596,79.5645433 117.466638,79.8614183 117.518721,79.996835 C117.581221,80.1322517 117.674971,80.2416267 117.799971,80.32496 C117.935388,80.3978767 118.128096,80.434335 118.378096,80.434335 C118.555179,80.434335 118.794763,80.4135017 119.096846,80.371835 Z M120.09265,76.996835 C120.09265,75.2051683 120.587441,73.8822517 121.577025,73.028085 C122.410358,72.309335 123.425983,71.94996 124.6239,71.94996 C125.957233,71.94996 127.045775,72.38746 127.889525,73.26246 C128.733275,74.1270433 129.15515,75.3301683 129.15515,76.871835 C129.15515,78.1114183 128.96765,79.090585 128.59265,79.809335 C128.21765,80.5176683 127.670775,81.0697517 126.952025,81.465585 C126.243691,81.8614183 125.46765,82.059335 124.6239,82.059335 C123.269733,82.059335 122.175983,81.6270433 121.34265,80.76246 C120.509316,79.88746 120.09265,78.6322517 120.09265,76.996835 Z M121.78015,76.996835 C121.78015,78.2364183 122.045775,79.16871 122.577025,79.79371 C123.118691,80.4082933 123.800983,80.715585 124.6239,80.715585 C125.4364,80.715585 126.113483,80.4082933 126.65515,79.79371 C127.196816,79.16871 127.46765,78.2207933 127.46765,76.94996 C127.46765,75.7520433 127.196816,74.8457933 126.65515,74.23121 C126.113483,73.6166267 125.4364,73.309335 124.6239,73.309335 C123.800983,73.309335 123.118691,73.6166267 122.577025,74.23121 C122.045775,74.8353767 121.78015,75.7572517 121.78015,76.996835 Z M145.229796,68.48121 L146.995421,68.48121 L146.995421,76.19996 C146.995421,77.54371 146.844379,78.6114183 146.542296,79.403085 C146.240212,80.1947517 145.693337,80.840585 144.901671,81.340585 C144.110004,81.8301683 143.068337,82.07496 141.776671,82.07496 C140.526671,82.07496 139.500629,81.8614183 138.698546,81.434335 C137.906879,80.996835 137.339171,80.371835 136.995421,79.559335 C136.662087,78.7364183 136.495421,77.6166267 136.495421,76.19996 L136.495421,68.48121 L138.261046,68.48121 L138.261046,76.19996 C138.261046,77.35621 138.365212,78.2103767 138.573546,78.76246 C138.792296,79.3041267 139.162087,79.7260017 139.682921,80.028085 C140.214171,80.3301683 140.860004,80.48121 141.620421,80.48121 C142.922504,80.48121 143.849587,80.184335 144.401671,79.590585 C144.953754,78.996835 145.229796,77.8666267 145.229796,76.19996 L145.229796,68.48121 Z M149.077742,78.94996 L150.702742,78.69996 C150.786075,79.3457933 151.036075,79.8457933 151.452742,80.19996 C151.869409,80.54371 152.452742,80.715585 153.202742,80.715585 C153.952742,80.715585 154.510034,80.5645433 154.874617,80.26246 C155.2392,79.94996 155.421492,79.5853767 155.421492,79.16871 C155.421492,78.8041267 155.260034,78.51246 154.937117,78.29371 C154.718367,78.1478767 154.161075,77.965585 153.265242,77.746835 C152.056909,77.434335 151.218367,77.16871 150.749617,76.94996 C150.291284,76.73121 149.942325,76.4291267 149.702742,76.04371 C149.463159,75.6478767 149.343367,75.2103767 149.343367,74.73121 C149.343367,74.3041267 149.442325,73.9082933 149.640242,73.54371 C149.838159,73.16871 150.108992,72.8614183 150.452742,72.621835 C150.702742,72.434335 151.046492,72.278085 151.483992,72.153085 C151.931909,72.0176683 152.405867,71.94996 152.905867,71.94996 C153.666284,71.94996 154.33295,72.059335 154.905867,72.278085 C155.478784,72.496835 155.900659,72.79371 156.171492,73.16871 C156.452742,73.54371 156.64545,74.04371 156.749617,74.66871 L155.140242,74.88746 C155.067325,74.38746 154.853784,73.996835 154.499617,73.715585 C154.155867,73.434335 153.666284,73.29371 153.030867,73.29371 C152.27045,73.29371 151.728784,73.41871 151.405867,73.66871 C151.093367,73.91871 150.937117,74.2103767 150.937117,74.54371 C150.937117,74.7520433 150.999617,74.9447517 151.124617,75.121835 C151.260034,75.2989183 151.473575,75.4447517 151.765242,75.559335 C151.921492,75.621835 152.400659,75.76246 153.202742,75.98121 C154.369409,76.2832933 155.181909,76.5332933 155.640242,76.73121 C156.098575,76.9291267 156.45795,77.215585 156.718367,77.590585 C156.978784,77.965585 157.108992,78.434335 157.108992,78.996835 C157.108992,79.5489183 156.947534,80.0645433 156.624617,80.54371 C156.312117,81.0228767 155.853784,81.3978767 155.249617,81.66871 C154.64545,81.9291267 153.963159,82.059335 153.202742,82.059335 C151.952742,82.059335 150.994409,81.7989183 150.327742,81.278085 C149.671492,80.7572517 149.254825,79.98121 149.077742,78.94996 Z M165.687117,78.73121 L167.374617,78.934335 C167.103784,79.9239183 166.608992,80.6947517 165.890242,81.246835 C165.171492,81.7885017 164.249617,82.059335 163.124617,82.059335 C161.70795,82.059335 160.58295,81.6270433 159.749617,80.76246 C158.9267,79.88746 158.515242,78.6635017 158.515242,77.090585 C158.515242,75.4551683 158.931909,74.1895433 159.765242,73.29371 C160.608992,72.3978767 161.697534,71.94996 163.030867,71.94996 C164.322534,71.94996 165.374617,72.3926683 166.187117,73.278085 C167.010034,74.153085 167.421492,75.38746 167.421492,76.98121 C167.421492,77.0853767 167.421492,77.23121 167.421492,77.41871 L160.202742,77.41871 C160.265242,78.48121 160.567325,79.2989183 161.108992,79.871835 C161.650659,80.434335 162.322534,80.715585 163.124617,80.715585 C163.728784,80.715585 164.244409,80.559335 164.671492,80.246835 C165.098575,79.9239183 165.437117,79.41871 165.687117,78.73121 Z M160.296492,76.07496 L165.702742,76.07496 C165.629825,75.26246 165.421492,74.653085 165.077742,74.246835 C164.556909,73.6114183 163.879825,73.29371 163.046492,73.29371 C162.296492,73.29371 161.661075,73.5489183 161.140242,74.059335 C160.629825,74.559335 160.348575,75.23121 160.296492,76.07496 Z" id="Shape" fill="#000000" fill-rule="nonzero"></path>
            <path d="M629.739484,81.840585 L629.739484,68.48121 L631.520734,68.48121 L631.520734,80.26246 L638.083234,80.26246 L638.083234,81.840585 L629.739484,81.840585 Z M646.615216,78.73121 L648.302716,78.934335 C648.031883,79.9239183 647.537091,80.6947517 646.818341,81.246835 C646.099591,81.7885017 645.177716,82.059335 644.052716,82.059335 C642.636049,82.059335 641.511049,81.6270433 640.677716,80.76246 C639.854799,79.88746 639.443341,78.6635017 639.443341,77.090585 C639.443341,75.4551683 639.860008,74.1895433 640.693341,73.29371 C641.537091,72.3978767 642.625633,71.94996 643.958966,71.94996 C645.250633,71.94996 646.302716,72.3926683 647.115216,73.278085 C647.938133,74.153085 648.349591,75.38746 648.349591,76.98121 C648.349591,77.0853767 648.349591,77.23121 648.349591,77.41871 L641.130841,77.41871 C641.193341,78.48121 641.495424,79.2989183 642.037091,79.871835 C642.578758,80.434335 643.250633,80.715585 644.052716,80.715585 C644.656883,80.715585 645.172508,80.559335 645.599591,80.246835 C646.026674,79.9239183 646.365216,79.41871 646.615216,78.73121 Z M641.224591,76.07496 L646.630841,76.07496 C646.557924,75.26246 646.349591,74.653085 646.005841,74.246835 C645.485008,73.6114183 644.807924,73.29371 643.974591,73.29371 C643.224591,73.29371 642.589174,73.5489183 642.068341,74.059335 C641.557924,74.559335 641.276674,75.23121 641.224591,76.07496 Z M649.709698,78.94996 L651.334698,78.69996 C651.418031,79.3457933 651.668031,79.8457933 652.084698,80.19996 C652.501365,80.54371 653.084698,80.715585 653.834698,80.715585 C654.584698,80.715585 655.14199,80.5645433 655.506573,80.26246 C655.871156,79.94996 656.053448,79.5853767 656.053448,79.16871 C656.053448,78.8041267 655.89199,78.51246 655.569073,78.29371 C655.350323,78.1478767 654.793031,77.965585 653.897198,77.746835 C652.688865,77.434335 651.850323,77.16871 651.381573,76.94996 C650.92324,76.73121 650.574281,76.4291267 650.334698,76.04371 C650.095115,75.6478767 649.975323,75.2103767 649.975323,74.73121 C649.975323,74.3041267 650.074281,73.9082933 650.272198,73.54371 C650.470115,73.16871 650.740948,72.8614183 651.084698,72.621835 C651.334698,72.434335 651.678448,72.278085 652.115948,72.153085 C652.563865,72.0176683 653.037823,71.94996 653.537823,71.94996 C654.29824,71.94996 654.964906,72.059335 655.537823,72.278085 C656.11074,72.496835 656.532615,72.79371 656.803448,73.16871 C657.084698,73.54371 657.277406,74.04371 657.381573,74.66871 L655.772198,74.88746 C655.699281,74.38746 655.48574,73.996835 655.131573,73.715585 C654.787823,73.434335 654.29824,73.29371 653.662823,73.29371 C652.902406,73.29371 652.36074,73.41871 652.037823,73.66871 C651.725323,73.91871 651.569073,74.2103767 651.569073,74.54371 C651.569073,74.7520433 651.631573,74.9447517 651.756573,75.121835 C651.89199,75.2989183 652.105531,75.4447517 652.397198,75.559335 C652.553448,75.621835 653.032615,75.76246 653.834698,75.98121 C655.001365,76.2832933 655.813865,76.5332933 656.272198,76.73121 C656.730531,76.9291267 657.089906,77.215585 657.350323,77.590585 C657.61074,77.965585 657.740948,78.434335 657.740948,78.996835 C657.740948,79.5489183 657.57949,80.0645433 657.256573,80.54371 C656.944073,81.0228767 656.48574,81.3978767 655.881573,81.66871 C655.277406,81.9291267 654.595115,82.059335 653.834698,82.059335 C652.584698,82.059335 651.626365,81.7989183 650.959698,81.278085 C650.303448,80.7572517 649.886781,79.98121 649.709698,78.94996 Z M659.037823,78.94996 L660.662823,78.69996 C660.746156,79.3457933 660.996156,79.8457933 661.412823,80.19996 C661.82949,80.54371 662.412823,80.715585 663.162823,80.715585 C663.912823,80.715585 664.470115,80.5645433 664.834698,80.26246 C665.199281,79.94996 665.381573,79.5853767 665.381573,79.16871 C665.381573,78.8041267 665.220115,78.51246 664.897198,78.29371 C664.678448,78.1478767 664.121156,77.965585 663.225323,77.746835 C662.01699,77.434335 661.178448,77.16871 660.709698,76.94996 C660.251365,76.73121 659.902406,76.4291267 659.662823,76.04371 C659.42324,75.6478767 659.303448,75.2103767 659.303448,74.73121 C659.303448,74.3041267 659.402406,73.9082933 659.600323,73.54371 C659.79824,73.16871 660.069073,72.8614183 660.412823,72.621835 C660.662823,72.434335 661.006573,72.278085 661.444073,72.153085 C661.89199,72.0176683 662.365948,71.94996 662.865948,71.94996 C663.626365,71.94996 664.293031,72.059335 664.865948,72.278085 C665.438865,72.496835 665.86074,72.79371 666.131573,73.16871 C666.412823,73.54371 666.605531,74.04371 666.709698,74.66871 L665.100323,74.88746 C665.027406,74.38746 664.813865,73.996835 664.459698,73.715585 C664.115948,73.434335 663.626365,73.29371 662.990948,73.29371 C662.230531,73.29371 661.688865,73.41871 661.365948,73.66871 C661.053448,73.91871 660.897198,74.2103767 660.897198,74.54371 C660.897198,74.7520433 660.959698,74.9447517 661.084698,75.121835 C661.220115,75.2989183 661.433656,75.4447517 661.725323,75.559335 C661.881573,75.621835 662.36074,75.76246 663.162823,75.98121 C664.32949,76.2832933 665.14199,76.5332933 665.600323,76.73121 C666.058656,76.9291267 666.418031,77.215585 666.678448,77.590585 C666.938865,77.965585 667.069073,78.434335 667.069073,78.996835 C667.069073,79.5489183 666.907615,80.0645433 666.584698,80.54371 C666.272198,81.0228767 665.813865,81.3978767 665.209698,81.66871 C664.605531,81.9291267 663.92324,82.059335 663.162823,82.059335 C661.912823,82.059335 660.95449,81.7989183 660.287823,81.278085 C659.631573,80.7572517 659.214906,79.98121 659.037823,78.94996 Z M673.814862,77.54371 L675.471112,77.403085 C675.554445,78.0697517 675.736737,78.6166267 676.017987,79.04371 C676.309654,79.4707933 676.75757,79.8197517 677.361737,80.090585 C677.97632,80.3510017 678.66382,80.48121 679.424237,80.48121 C680.090904,80.48121 680.684654,80.3822517 681.205487,80.184335 C681.72632,79.9864183 682.111737,79.715585 682.361737,79.371835 C682.611737,79.0176683 682.736737,78.6322517 682.736737,78.215585 C682.736737,77.7989183 682.611737,77.434335 682.361737,77.121835 C682.122154,76.809335 681.72632,76.54371 681.174237,76.32496 C680.809654,76.1895433 680.012779,75.9760017 678.783612,75.684335 C677.564862,75.3822517 676.710695,75.1010017 676.221112,74.840585 C675.575279,74.5072517 675.096112,74.0957933 674.783612,73.60621 C674.471112,73.10621 674.314862,72.5489183 674.314862,71.934335 C674.314862,71.2676683 674.50757,70.6426683 674.892987,70.059335 C675.278404,69.465585 675.835695,69.0176683 676.564862,68.715585 C677.304445,68.4135017 678.122154,68.26246 679.017987,68.26246 C680.00757,68.26246 680.877362,68.4239183 681.627362,68.746835 C682.387779,69.059335 682.971112,69.528085 683.377362,70.153085 C683.783612,70.7676683 684.002362,71.465585 684.033612,72.246835 L682.346112,72.371835 C682.252362,71.528085 681.939862,70.8926683 681.408612,70.465585 C680.887779,70.028085 680.116945,69.809335 679.096112,69.809335 C678.023195,69.809335 677.241945,70.0072517 676.752362,70.403085 C676.262779,70.7989183 676.017987,71.2728767 676.017987,71.82496 C676.017987,72.3041267 676.19507,72.6947517 676.549237,72.996835 C676.88257,73.309335 677.767987,73.6322517 679.205487,73.965585 C680.642987,74.2885017 681.627362,74.5697517 682.158612,74.809335 C682.939862,75.1635017 683.512779,75.6166267 683.877362,76.16871 C684.252362,76.7207933 684.439862,77.35621 684.439862,78.07496 C684.439862,78.7832933 684.236737,79.4551683 683.830487,80.090585 C683.424237,80.715585 682.840904,81.2051683 682.080487,81.559335 C681.32007,81.903085 680.460695,82.07496 679.502362,82.07496 C678.294029,82.07496 677.278404,81.8978767 676.455487,81.54371 C675.642987,81.1895433 675.002362,80.6582933 674.533612,79.94996 C674.075279,79.2416267 673.835695,78.4395433 673.814862,77.54371 Z M693.274091,78.73121 L694.961591,78.934335 C694.690758,79.9239183 694.195966,80.6947517 693.477216,81.246835 C692.758466,81.7885017 691.836591,82.059335 690.711591,82.059335 C689.294924,82.059335 688.169924,81.6270433 687.336591,80.76246 C686.513674,79.88746 686.102216,78.6635017 686.102216,77.090585 C686.102216,75.4551683 686.518883,74.1895433 687.352216,73.29371 C688.195966,72.3978767 689.284508,71.94996 690.617841,71.94996 C691.909508,71.94996 692.961591,72.3926683 693.774091,73.278085 C694.597008,74.153085 695.008466,75.38746 695.008466,76.98121 C695.008466,77.0853767 695.008466,77.23121 695.008466,77.41871 L687.789716,77.41871 C687.852216,78.48121 688.154299,79.2989183 688.695966,79.871835 C689.237633,80.434335 689.909508,80.715585 690.711591,80.715585 C691.315758,80.715585 691.831383,80.559335 692.258466,80.246835 C692.685549,79.9239183 693.024091,79.41871 693.274091,78.73121 Z M687.883466,76.07496 L693.289716,76.07496 C693.216799,75.26246 693.008466,74.653085 692.664716,74.246835 C692.143883,73.6114183 691.466799,73.29371 690.633466,73.29371 C689.883466,73.29371 689.248049,73.5489183 688.727216,74.059335 C688.216799,74.559335 687.935549,75.23121 687.883466,76.07496 Z M703.337262,78.29371 L704.946637,78.51246 C704.769554,79.6166267 704.316429,80.4864183 703.587262,81.121835 C702.868512,81.746835 701.977887,82.059335 700.915387,82.059335 C699.59247,82.059335 698.52997,81.6270433 697.727887,80.76246 C696.925804,79.8978767 696.524762,78.6582933 696.524762,77.04371 C696.524762,75.9916267 696.696637,75.07496 697.040387,74.29371 C697.384137,73.51246 697.910179,72.9291267 698.618512,72.54371 C699.326845,72.1478767 700.097679,71.94996 700.931012,71.94996 C701.983095,71.94996 702.84247,72.215585 703.509137,72.746835 C704.175804,73.278085 704.602887,74.0332933 704.790387,75.01246 L703.196637,75.246835 C703.040387,74.6010017 702.769554,74.1166267 702.384137,73.79371 C701.99872,73.4603767 701.535179,73.29371 700.993512,73.29371 C700.170595,73.29371 699.49872,73.590585 698.977887,74.184335 C698.457054,74.778085 698.196637,75.715585 698.196637,76.996835 C698.196637,78.2989183 698.446637,79.246835 698.946637,79.840585 C699.446637,80.4239183 700.097679,80.715585 700.899762,80.715585 C701.545595,80.715585 702.082054,80.5176683 702.509137,80.121835 C702.946637,79.7260017 703.222679,79.1166267 703.337262,78.29371 Z M712.681012,81.840585 L712.681012,80.41871 C711.931012,81.51246 710.910179,82.059335 709.618512,82.059335 C709.045595,82.059335 708.509137,81.94996 708.009137,81.73121 C707.519554,81.51246 707.15497,81.2364183 706.915387,80.903085 C706.675804,80.5697517 706.509137,80.1635017 706.415387,79.684335 C706.34247,79.371835 706.306012,78.8614183 706.306012,78.153085 L706.306012,72.16871 L707.946637,72.16871 L707.946637,77.528085 C707.946637,78.3822517 707.983095,78.9603767 708.056012,79.26246 C708.160179,79.6895433 708.378929,80.028085 708.712262,80.278085 C709.045595,80.528085 709.457054,80.653085 709.946637,80.653085 C710.43622,80.653085 710.894554,80.528085 711.321637,80.278085 C711.759137,80.0176683 712.066429,79.6739183 712.243512,79.246835 C712.420595,78.809335 712.509137,78.1791267 712.509137,77.35621 L712.509137,72.16871 L714.149762,72.16871 L714.149762,81.840585 L712.681012,81.840585 Z M716.712994,81.840585 L716.712994,72.16871 L718.181744,72.16871 L718.181744,73.63746 C718.556744,72.94996 718.900494,72.496835 719.212994,72.278085 C719.535911,72.059335 719.890078,71.94996 720.275494,71.94996 C720.827578,71.94996 721.390078,72.1270433 721.962994,72.48121 L721.400494,73.996835 C720.994244,73.7572517 720.593203,73.63746 720.197369,73.63746 C719.832786,73.63746 719.509869,73.746835 719.228619,73.965585 C718.947369,74.184335 718.744244,74.48121 718.619244,74.85621 C718.431744,75.4395433 718.337994,76.0801683 718.337994,76.778085 L718.337994,81.840585 L716.712994,81.840585 Z M729.566327,78.73121 L731.253827,78.934335 C730.982994,79.9239183 730.488202,80.6947517 729.769452,81.246835 C729.050702,81.7885017 728.128827,82.059335 727.003827,82.059335 C725.58716,82.059335 724.46216,81.6270433 723.628827,80.76246 C722.80591,79.88746 722.394452,78.6635017 722.394452,77.090585 C722.394452,75.4551683 722.811119,74.1895433 723.644452,73.29371 C724.488202,72.3978767 725.576744,71.94996 726.910077,71.94996 C728.201744,71.94996 729.253827,72.3926683 730.066327,73.278085 C730.889244,74.153085 731.300702,75.38746 731.300702,76.98121 C731.300702,77.0853767 731.300702,77.23121 731.300702,77.41871 L724.081952,77.41871 C724.144452,78.48121 724.446535,79.2989183 724.988202,79.871835 C725.529869,80.434335 726.201744,80.715585 727.003827,80.715585 C727.607994,80.715585 728.123619,80.559335 728.550702,80.246835 C728.977785,79.9239183 729.316327,79.41871 729.566327,78.73121 Z M724.175702,76.07496 L729.581952,76.07496 C729.509035,75.26246 729.300702,74.653085 728.956952,74.246835 C728.436119,73.6114183 727.759035,73.29371 726.925702,73.29371 C726.175702,73.29371 725.540285,73.5489183 725.019452,74.059335 C724.509035,74.559335 724.227785,75.23121 724.175702,76.07496 Z" id="Shape" fill="#000000" fill-rule="nonzero"></path>
            <path d="M625.708584,13.578125 L625.708584,0.21875 L635.364834,0.21875 L635.364834,1.796875 L627.489834,1.796875 L627.489834,5.890625 L634.864834,5.890625 L634.864834,7.453125 L627.489834,7.453125 L627.489834,12 L635.677334,12 L635.677334,13.578125 L625.708584,13.578125 Z M644.230313,12.390625 C643.61573,12.9010417 643.027188,13.265625 642.464688,13.484375 C641.912605,13.6927083 641.313646,13.796875 640.667813,13.796875 C639.605313,13.796875 638.787605,13.5364583 638.214688,13.015625 C637.641771,12.4947917 637.355313,11.8333333 637.355313,11.03125 C637.355313,10.5520833 637.464688,10.1197917 637.683438,9.734375 C637.902188,9.33854167 638.183438,9.02604167 638.527188,8.796875 C638.881355,8.55729167 639.277188,8.375 639.714688,8.25 C640.027188,8.16666667 640.511563,8.08333333 641.167813,8 C642.49073,7.84375 643.464688,7.65625 644.089688,7.4375 C644.100105,7.20833333 644.105313,7.06770833 644.105313,7.015625 C644.105313,6.34895833 643.949063,5.875 643.636563,5.59375 C643.219896,5.22916667 642.594896,5.046875 641.761563,5.046875 C640.99073,5.046875 640.423021,5.18229167 640.058438,5.453125 C639.693855,5.72395833 639.423021,6.19791667 639.245938,6.875 L637.636563,6.65625 C637.782396,5.97916667 638.02198,5.43229167 638.355313,5.015625 C638.688646,4.58854167 639.173021,4.26041667 639.808438,4.03125 C640.443855,3.80208333 641.173021,3.6875 641.995938,3.6875 C642.829271,3.6875 643.501146,3.78645833 644.011563,3.984375 C644.532396,4.171875 644.912605,4.41666667 645.152188,4.71875 C645.402188,5.01041667 645.574063,5.38020833 645.667813,5.828125 C645.719896,6.109375 645.745938,6.61458333 645.745938,7.34375 L645.745938,9.53125 C645.745938,11.0520833 645.782396,12.015625 645.855313,12.421875 C645.92823,12.8177083 646.063646,13.203125 646.261563,13.578125 L644.558438,13.578125 C644.381355,13.234375 644.27198,12.8385417 644.230313,12.390625 Z M644.089688,8.71875 C643.495938,8.96875 642.605313,9.17708333 641.417813,9.34375 C640.74073,9.4375 640.261563,9.546875 639.980313,9.671875 C639.699063,9.796875 639.480313,9.97395833 639.324063,10.203125 C639.17823,10.4322917 639.105313,10.6927083 639.105313,10.984375 C639.105313,11.421875 639.27198,11.7864583 639.605313,12.078125 C639.938646,12.3697917 640.423021,12.515625 641.058438,12.515625 C641.683438,12.515625 642.24073,12.3802083 642.730313,12.109375 C643.230313,11.828125 643.594896,11.4479167 643.824063,10.96875 C644.001146,10.59375 644.089688,10.046875 644.089688,9.328125 L644.089688,8.71875 Z M647.637295,10.6875 L649.262295,10.4375 C649.345629,11.0833333 649.595629,11.5833333 650.012295,11.9375 C650.428962,12.28125 651.012295,12.453125 651.762295,12.453125 C652.512295,12.453125 653.069587,12.3020833 653.43417,12 C653.798754,11.6875 653.981045,11.3229167 653.981045,10.90625 C653.981045,10.5416667 653.819587,10.25 653.49667,10.03125 C653.27792,9.88541667 652.720629,9.703125 651.824795,9.484375 C650.616462,9.171875 649.77792,8.90625 649.30917,8.6875 C648.850837,8.46875 648.501879,8.16666667 648.262295,7.78125 C648.022712,7.38541667 647.90292,6.94791667 647.90292,6.46875 C647.90292,6.04166667 648.001879,5.64583333 648.199795,5.28125 C648.397712,4.90625 648.668545,4.59895833 649.012295,4.359375 C649.262295,4.171875 649.606045,4.015625 650.043545,3.890625 C650.491462,3.75520833 650.96542,3.6875 651.46542,3.6875 C652.225837,3.6875 652.892504,3.796875 653.46542,4.015625 C654.038337,4.234375 654.460212,4.53125 654.731045,4.90625 C655.012295,5.28125 655.205004,5.78125 655.30917,6.40625 L653.699795,6.625 C653.626879,6.125 653.413337,5.734375 653.05917,5.453125 C652.71542,5.171875 652.225837,5.03125 651.59042,5.03125 C650.830004,5.03125 650.288337,5.15625 649.96542,5.40625 C649.65292,5.65625 649.49667,5.94791667 649.49667,6.28125 C649.49667,6.48958333 649.55917,6.68229167 649.68417,6.859375 C649.819587,7.03645833 650.033129,7.18229167 650.324795,7.296875 C650.481045,7.359375 650.960212,7.5 651.762295,7.71875 C652.928962,8.02083333 653.741462,8.27083333 654.199795,8.46875 C654.658129,8.66666667 655.017504,8.953125 655.27792,9.328125 C655.538337,9.703125 655.668545,10.171875 655.668545,10.734375 C655.668545,11.2864583 655.507087,11.8020833 655.18417,12.28125 C654.87167,12.7604167 654.413337,13.1354167 653.80917,13.40625 C653.205004,13.6666667 652.522712,13.796875 651.762295,13.796875 C650.512295,13.796875 649.553962,13.5364583 648.887295,13.015625 C648.231045,12.4947917 647.814379,11.71875 647.637295,10.6875 Z M657.62167,2.109375 L657.62167,0.21875 L659.262295,0.21875 L659.262295,2.109375 L657.62167,2.109375 Z M657.62167,13.578125 L657.62167,3.90625 L659.262295,3.90625 L659.262295,13.578125 L657.62167,13.578125 Z M668.391445,10.46875 L670.078945,10.671875 C669.808112,11.6614583 669.31332,12.4322917 668.59457,12.984375 C667.87582,13.5260417 666.953945,13.796875 665.828945,13.796875 C664.412279,13.796875 663.287279,13.3645833 662.453945,12.5 C661.631029,11.625 661.21957,10.4010417 661.21957,8.828125 C661.21957,7.19270833 661.636237,5.92708333 662.46957,5.03125 C663.31332,4.13541667 664.401862,3.6875 665.735195,3.6875 C667.026862,3.6875 668.078945,4.13020833 668.891445,5.015625 C669.714362,5.890625 670.12582,7.125 670.12582,8.71875 C670.12582,8.82291667 670.12582,8.96875 670.12582,9.15625 L662.90707,9.15625 C662.96957,10.21875 663.271654,11.0364583 663.81332,11.609375 C664.354987,12.171875 665.026862,12.453125 665.828945,12.453125 C666.433112,12.453125 666.948737,12.296875 667.37582,11.984375 C667.802904,11.6614583 668.141445,11.15625 668.391445,10.46875 Z M663.00082,7.8125 L668.40707,7.8125 C668.334154,7 668.12582,6.390625 667.78207,5.984375 C667.261237,5.34895833 666.584154,5.03125 665.75082,5.03125 C665.00082,5.03125 664.365404,5.28645833 663.84457,5.796875 C663.334154,6.296875 663.052904,6.96875 663.00082,7.8125 Z M672.126552,13.578125 L672.126552,3.90625 L673.595302,3.90625 L673.595302,5.375 C673.970302,4.6875 674.314052,4.234375 674.626552,4.015625 C674.949469,3.796875 675.303636,3.6875 675.689052,3.6875 C676.241136,3.6875 676.803636,3.86458333 677.376552,4.21875 L676.814052,5.734375 C676.407802,5.49479167 676.006761,5.375 675.610927,5.375 C675.246344,5.375 674.923427,5.484375 674.642177,5.703125 C674.360927,5.921875 674.157802,6.21875 674.032802,6.59375 C673.845302,7.17708333 673.751552,7.81770833 673.751552,8.515625 L673.751552,13.578125 L672.126552,13.578125 Z M687.116298,12.109375 L687.350673,13.5625 C686.89234,13.65625 686.480882,13.703125 686.116298,13.703125 C685.522548,13.703125 685.059007,13.609375 684.725673,13.421875 C684.402757,13.234375 684.17359,12.9895833 684.038173,12.6875 C683.902757,12.375 683.835048,11.7291667 683.835048,10.75 L683.835048,5.171875 L682.631923,5.171875 L682.631923,3.90625 L683.835048,3.90625 L683.835048,1.515625 L685.460048,0.53125 L685.460048,3.90625 L687.116298,3.90625 L687.116298,5.171875 L685.460048,5.171875 L685.460048,10.84375 C685.460048,11.3020833 685.48609,11.5989583 685.538173,11.734375 C685.600673,11.8697917 685.694423,11.9791667 685.819423,12.0625 C685.95484,12.1354167 686.147548,12.171875 686.397548,12.171875 C686.574632,12.171875 686.814215,12.1510417 687.116298,12.109375 Z M688.112087,8.734375 C688.112087,6.94270833 688.606879,5.61979167 689.596462,4.765625 C690.429795,4.046875 691.44542,3.6875 692.643337,3.6875 C693.97667,3.6875 695.065212,4.125 695.908962,5 C696.752712,5.86458333 697.174587,7.06770833 697.174587,8.609375 C697.174587,9.84895833 696.987087,10.828125 696.612087,11.546875 C696.237087,12.2552083 695.690212,12.8072917 694.971462,13.203125 C694.263129,13.5989583 693.487087,13.796875 692.643337,13.796875 C691.28917,13.796875 690.19542,13.3645833 689.362087,12.5 C688.528754,11.625 688.112087,10.3697917 688.112087,8.734375 Z M689.799587,8.734375 C689.799587,9.97395833 690.065212,10.90625 690.596462,11.53125 C691.138129,12.1458333 691.82042,12.453125 692.643337,12.453125 C693.455837,12.453125 694.13292,12.1458333 694.674587,11.53125 C695.216254,10.90625 695.487087,9.95833333 695.487087,8.6875 C695.487087,7.48958333 695.216254,6.58333333 694.674587,5.96875 C694.13292,5.35416667 693.455837,5.046875 692.643337,5.046875 C691.82042,5.046875 691.138129,5.35416667 690.596462,5.96875 C690.065212,6.57291667 689.799587,7.49479167 689.799587,8.734375 Z M713.249233,0.21875 L715.014858,0.21875 L715.014858,7.9375 C715.014858,9.28125 714.863816,10.3489583 714.561733,11.140625 C714.25965,11.9322917 713.712775,12.578125 712.921108,13.078125 C712.129441,13.5677083 711.087775,13.8125 709.796108,13.8125 C708.546108,13.8125 707.520066,13.5989583 706.717983,13.171875 C705.926316,12.734375 705.358608,12.109375 705.014858,11.296875 C704.681525,10.4739583 704.514858,9.35416667 704.514858,7.9375 L704.514858,0.21875 L706.280483,0.21875 L706.280483,7.9375 C706.280483,9.09375 706.38465,9.94791667 706.592983,10.5 C706.811733,11.0416667 707.181525,11.4635417 707.702358,11.765625 C708.233608,12.0677083 708.879441,12.21875 709.639858,12.21875 C710.941941,12.21875 711.869025,11.921875 712.421108,11.328125 C712.973191,10.734375 713.249233,9.60416667 713.249233,7.9375 L713.249233,0.21875 Z M717.097194,10.6875 L718.722194,10.4375 C718.805528,11.0833333 719.055528,11.5833333 719.472194,11.9375 C719.888861,12.28125 720.472194,12.453125 721.222194,12.453125 C721.972194,12.453125 722.529486,12.3020833 722.894069,12 C723.258653,11.6875 723.440944,11.3229167 723.440944,10.90625 C723.440944,10.5416667 723.279486,10.25 722.956569,10.03125 C722.737819,9.88541667 722.180528,9.703125 721.284694,9.484375 C720.076361,9.171875 719.237819,8.90625 718.769069,8.6875 C718.310736,8.46875 717.961778,8.16666667 717.722194,7.78125 C717.482611,7.38541667 717.362819,6.94791667 717.362819,6.46875 C717.362819,6.04166667 717.461778,5.64583333 717.659694,5.28125 C717.857611,4.90625 718.128444,4.59895833 718.472194,4.359375 C718.722194,4.171875 719.065944,4.015625 719.503444,3.890625 C719.951361,3.75520833 720.425319,3.6875 720.925319,3.6875 C721.685736,3.6875 722.352403,3.796875 722.925319,4.015625 C723.498236,4.234375 723.920111,4.53125 724.190944,4.90625 C724.472194,5.28125 724.664903,5.78125 724.769069,6.40625 L723.159694,6.625 C723.086778,6.125 722.873236,5.734375 722.519069,5.453125 C722.175319,5.171875 721.685736,5.03125 721.050319,5.03125 C720.289903,5.03125 719.748236,5.15625 719.425319,5.40625 C719.112819,5.65625 718.956569,5.94791667 718.956569,6.28125 C718.956569,6.48958333 719.019069,6.68229167 719.144069,6.859375 C719.279486,7.03645833 719.493028,7.18229167 719.784694,7.296875 C719.940944,7.359375 720.420111,7.5 721.222194,7.71875 C722.388861,8.02083333 723.201361,8.27083333 723.659694,8.46875 C724.118028,8.66666667 724.477403,8.953125 724.737819,9.328125 C724.998236,9.703125 725.128444,10.171875 725.128444,10.734375 C725.128444,11.2864583 724.966986,11.8020833 724.644069,12.28125 C724.331569,12.7604167 723.873236,13.1354167 723.269069,13.40625 C722.664903,13.6666667 721.982611,13.796875 721.222194,13.796875 C719.972194,13.796875 719.013861,13.5364583 718.347194,13.015625 C717.690944,12.4947917 717.274278,11.71875 717.097194,10.6875 Z M733.706569,10.46875 L735.394069,10.671875 C735.123236,11.6614583 734.628444,12.4322917 733.909694,12.984375 C733.190944,13.5260417 732.269069,13.796875 731.144069,13.796875 C729.727403,13.796875 728.602403,13.3645833 727.769069,12.5 C726.946153,11.625 726.534694,10.4010417 726.534694,8.828125 C726.534694,7.19270833 726.951361,5.92708333 727.784694,5.03125 C728.628444,4.13541667 729.716986,3.6875 731.050319,3.6875 C732.341986,3.6875 733.394069,4.13020833 734.206569,5.015625 C735.029486,5.890625 735.440944,7.125 735.440944,8.71875 C735.440944,8.82291667 735.440944,8.96875 735.440944,9.15625 L728.222194,9.15625 C728.284694,10.21875 728.586778,11.0364583 729.128444,11.609375 C729.670111,12.171875 730.341986,12.453125 731.144069,12.453125 C731.748236,12.453125 732.263861,12.296875 732.690944,11.984375 C733.118028,11.6614583 733.456569,11.15625 733.706569,10.46875 Z M728.315944,7.8125 L733.722194,7.8125 C733.649278,7 733.440944,6.390625 733.097194,5.984375 C732.576361,5.34895833 731.899278,5.03125 731.065944,5.03125 C730.315944,5.03125 729.680528,5.28645833 729.159694,5.796875 C728.649278,6.296875 728.368028,6.96875 728.315944,7.8125 Z" id="Shape" fill="#000000" fill-rule="nonzero"></path>
            <polygon id="Path" fill="#000000" fill-rule="nonzero" points="26.7132522 43.1043524 42 27.817591 2.84217094e-14 43.1043524 42 58.3911138"></polygon>
            <polygon id="Path" fill="#000000" fill-rule="nonzero" points="771.99708 43.1043524 756.710371 58.3911138 798.710371 43.1043524 756.710371 27.817591"></polygon>
            <line x1="15.721474" y1="42.814265" x2="777.707004" y2="42.814265" id="Path" stroke="#000000" stroke-width="8" stroke-linejoin="round"></line>
        </g>
    </g>
</svg>