<svg xmlns="http://www.w3.org/2000/svg" width="798.71" height="82.075"><g fill="none" fill-rule="evenodd"><path fill="#000" fill-rule="nonzero" d="M58.13 13.578V.218h2.657l3.156 9.454c.291.885.505 1.547.64 1.984.157-.49.391-1.203.704-2.14L68.49.219h2.375v13.36h-1.703V2.405l-3.875 11.172h-1.594l-3.86-11.375v11.375H58.13Zm14.775-4.844c0-1.791.495-3.114 1.485-3.968.833-.72 1.849-1.079 3.047-1.079 1.333 0 2.422.438 3.265 1.313.844.865 1.266 2.068 1.266 3.61 0 1.239-.188 2.218-.563 2.937a3.99 3.99 0 0 1-1.64 1.656 4.692 4.692 0 0 1-2.328.594c-1.354 0-2.448-.432-3.282-1.297-.833-.875-1.25-2.13-1.25-3.766Zm1.688 0c0 1.24.266 2.172.797 2.797.542.615 1.224.922 2.047.922.812 0 1.49-.307 2.031-.922.542-.625.812-1.573.812-2.844 0-1.197-.27-2.104-.812-2.718-.542-.615-1.219-.922-2.031-.922-.823 0-1.505.307-2.047.922-.531.604-.797 1.526-.797 2.765Zm9.282 4.844V3.906h1.469v1.469c.375-.688.718-1.14 1.03-1.36a1.855 1.855 0 0 1 1.063-.327c.553 0 1.115.177 1.688.53l-.563 1.516c-.406-.24-.807-.359-1.203-.359-.364 0-.687.11-.968.328a1.827 1.827 0 0 0-.61.89 6.253 6.253 0 0 0-.281 1.923v5.062h-1.625Zm12.853-3.11 1.688.204c-.271.99-.766 1.76-1.485 2.312-.718.542-1.64.813-2.765.813-1.417 0-2.542-.432-3.375-1.297-.823-.875-1.235-2.099-1.235-3.672 0-1.635.417-2.9 1.25-3.797.844-.896 1.933-1.343 3.266-1.343 1.292 0 2.344.442 3.156 1.328.823.875 1.235 2.109 1.235 3.703v.437h-7.22c.063 1.063.365 1.88.907 2.453.542.563 1.214.844 2.016.844.604 0 1.12-.156 1.547-.469.427-.323.765-.828 1.015-1.515Zm-5.39-2.655h5.406c-.073-.813-.281-1.422-.625-1.829-.521-.635-1.198-.953-2.031-.953-.75 0-1.386.255-1.907.766-.51.5-.791 1.172-.843 2.016Zm13.934 1.468 1.656-.14c.083.666.266 1.213.547 1.64.291.427.74.776 1.344 1.047.614.26 1.302.39 2.062.39.667 0 1.26-.098 1.781-.296.521-.198.907-.469 1.157-.813.25-.354.375-.74.375-1.156a1.7 1.7 0 0 0-.375-1.094c-.24-.312-.636-.578-1.188-.796-.365-.136-1.161-.35-2.39-.641-1.22-.302-2.074-.583-2.563-.844-.646-.333-1.125-.745-1.438-1.234a3.09 3.09 0 0 1-.468-1.672c0-.667.192-1.292.578-1.875.385-.594.942-1.042 1.672-1.344.74-.302 1.557-.453 2.453-.453.99 0 1.86.161 2.61.484.76.313 1.343.782 1.75 1.407.405.614.624 1.312.655 2.093l-1.687.125c-.094-.843-.406-1.479-.938-1.906-.52-.437-1.291-.656-2.312-.656-1.073 0-1.854.198-2.344.594-.49.395-.734.87-.734 1.421 0 .48.177.87.531 1.172.333.313 1.219.636 2.656.97 1.438.322 2.422.603 2.953.843.782.354 1.355.807 1.72 1.36.374.551.562 1.187.562 1.905 0 .709-.203 1.38-.61 2.016-.406.625-.99 1.115-1.75 1.469-.76.344-1.62.515-2.578.515-1.208 0-2.224-.177-3.047-.53a4.315 4.315 0 0 1-1.922-1.595c-.458-.708-.698-1.51-.718-2.406Zm19.459 1.188 1.687.203c-.27.99-.765 1.76-1.484 2.312-.719.542-1.64.813-2.766.813-1.416 0-2.541-.432-3.375-1.297-.823-.875-1.234-2.099-1.234-3.672 0-1.635.417-2.9 1.25-3.797.844-.896 1.932-1.343 3.266-1.343 1.291 0 2.343.442 3.156 1.328.823.875 1.234 2.109 1.234 3.703v.437h-7.219c.063 1.063.365 1.88.907 2.453.541.563 1.213.844 2.015.844.604 0 1.12-.156 1.547-.469.427-.323.766-.828 1.016-1.515Zm-5.39-2.656h5.405c-.072-.813-.28-1.422-.625-1.829-.52-.635-1.197-.953-2.03-.953-.75 0-1.386.255-1.907.766-.51.5-.792 1.172-.844 2.016Zm15.453 2.218 1.61.219c-.178 1.104-.63 1.974-1.36 2.61-.719.624-1.61.937-2.672.937-1.323 0-2.385-.432-3.187-1.297s-1.203-2.104-1.203-3.719c0-1.052.171-1.969.515-2.75.344-.781.87-1.364 1.578-1.75a4.662 4.662 0 0 1 2.313-.593c1.052 0 1.911.265 2.578.796.667.532 1.094 1.287 1.281 2.266l-1.594.234c-.156-.645-.427-1.13-.812-1.453a2.056 2.056 0 0 0-1.39-.5c-.824 0-1.496.297-2.016.89-.521.595-.782 1.532-.782 2.813 0 1.302.25 2.25.75 2.844.5.583 1.151.875 1.954.875.645 0 1.182-.198 1.609-.594.437-.395.713-1.005.828-1.828Zm9.344 3.547v-1.422c-.75 1.094-1.771 1.64-3.063 1.64a3.97 3.97 0 0 1-1.61-.327c-.489-.219-.853-.495-1.093-.828-.24-.334-.406-.74-.5-1.22-.073-.312-.11-.822-.11-1.53V3.906h1.641v5.36c0 .854.037 1.432.11 1.734.104.427.323.766.656 1.016s.745.375 1.234.375c.49 0 .948-.125 1.375-.375.438-.26.745-.605.922-1.032.177-.437.266-1.067.266-1.89V3.906h1.64v9.672h-1.468Zm4.032 0V3.906h1.469v1.469c.375-.688.718-1.14 1.03-1.36a1.855 1.855 0 0 1 1.063-.327c.552 0 1.115.177 1.688.53l-.563 1.516c-.406-.24-.807-.359-1.203-.359-.364 0-.687.11-.969.328a1.827 1.827 0 0 0-.609.89 6.253 6.253 0 0 0-.281 1.923v5.062h-1.625Zm12.853-3.11 1.688.204c-.271.99-.766 1.76-1.485 2.312-.719.542-1.64.813-2.765.813-1.417 0-2.542-.432-3.375-1.297-.823-.875-1.235-2.099-1.235-3.672 0-1.635.417-2.9 1.25-3.797.844-.896 1.932-1.343 3.266-1.343 1.291 0 2.344.442 3.156 1.328.823.875 1.234 2.109 1.234 3.703v.437h-7.218c.062 1.063.364 1.88.906 2.453.542.563 1.213.844 2.016.844.604 0 1.12-.156 1.546-.469.428-.323.766-.828 1.016-1.515Zm-5.39-2.655h5.406c-.073-.813-.282-1.422-.625-1.829-.521-.635-1.198-.953-2.032-.953-.75 0-1.385.255-1.906.766-.51.5-.791 1.172-.844 2.016ZM53.576 81.84V68.482h1.765v5.485h6.938V68.48h1.765v13.36H62.28v-6.297h-6.94v6.297h-1.765Zm19.52-1.187c-.615.51-1.204.875-1.766 1.094a5.049 5.049 0 0 1-1.797.312c-1.063 0-1.88-.26-2.453-.78-.573-.522-.86-1.183-.86-1.985 0-.48.11-.912.329-1.297.218-.396.5-.708.843-.938a4.11 4.11 0 0 1 1.188-.547c.312-.083.797-.166 1.453-.25 1.323-.156 2.297-.343 2.922-.562.01-.23.015-.37.015-.422 0-.667-.156-1.14-.468-1.422-.417-.364-1.042-.547-1.875-.547-.771 0-1.339.136-1.703.407-.365.27-.636.744-.813 1.421l-1.61-.218c.146-.677.386-1.224.72-1.64.333-.428.817-.756 1.453-.985.635-.23 1.364-.344 2.187-.344.833 0 1.505.099 2.016.297.52.187.9.432 1.14.734.25.292.422.662.516 1.11.052.28.078.786.078 1.515v2.188c0 1.52.036 2.484.11 2.89.072.396.208.782.406 1.157h-1.703a3.222 3.222 0 0 1-.329-1.188Zm-.141-3.672c-.594.25-1.485.459-2.672.625-.677.094-1.156.203-1.438.328-.28.125-.5.302-.656.532-.146.229-.219.49-.219.78 0 .438.167.803.5 1.095.334.291.818.437 1.454.437.625 0 1.182-.135 1.671-.406.5-.281.865-.662 1.094-1.14.177-.376.266-.923.266-1.641v-.61Zm4.188 4.86v-9.672h1.469v1.468c.375-.687.719-1.14 1.031-1.359a1.855 1.855 0 0 1 1.063-.328c.552 0 1.114.177 1.687.531l-.562 1.516c-.407-.24-.808-.36-1.204-.36-.364 0-.687.11-.968.329a1.827 1.827 0 0 0-.61.89 6.253 6.253 0 0 0-.281 1.922v5.063h-1.625Zm12.494 0v-1.22c-.604.96-1.505 1.438-2.703 1.438-.771 0-1.48-.213-2.125-.64-.646-.427-1.146-1.021-1.5-1.782-.354-.76-.531-1.635-.531-2.625 0-.968.161-1.843.484-2.625.323-.791.802-1.395 1.437-1.812a3.92 3.92 0 0 1 2.172-.625c.584 0 1.1.125 1.547.375.459.24.828.557 1.11.953v-4.797h1.64v13.36h-1.531Zm-5.172-4.829c0 1.24.26 2.167.781 2.782.521.614 1.136.922 1.844.922.719 0 1.328-.292 1.828-.875.5-.594.75-1.49.75-2.688 0-1.323-.255-2.292-.765-2.906-.51-.625-1.141-.938-1.891-.938-.719 0-1.323.297-1.813.891-.49.594-.734 1.531-.734 2.812Zm15.907 1.72 1.688.202c-.271.99-.766 1.76-1.485 2.313-.719.542-1.64.812-2.765.812-1.417 0-2.542-.432-3.375-1.297-.823-.875-1.235-2.098-1.235-3.671 0-1.636.417-2.901 1.25-3.797.844-.896 1.932-1.344 3.266-1.344 1.291 0 2.344.443 3.156 1.328.823.875 1.234 2.11 1.234 3.703v.438h-7.218c.062 1.062.364 1.88.906 2.453.542.562 1.213.844 2.016.844.604 0 1.12-.157 1.546-.47.427-.322.766-.827 1.016-1.515Zm-5.39-2.657h5.406c-.073-.813-.282-1.422-.625-1.828-.521-.636-1.198-.953-2.032-.953-.75 0-1.385.255-1.906.765-.51.5-.792 1.172-.844 2.016Zm9.125 5.766v-9.672h1.469v1.468c.375-.687.719-1.14 1.031-1.359a1.855 1.855 0 0 1 1.063-.328c.552 0 1.114.177 1.687.531l-.562 1.516c-.407-.24-.808-.36-1.204-.36-.364 0-.687.11-.968.329a1.827 1.827 0 0 0-.61.89 6.253 6.253 0 0 0-.28 1.922v5.063h-1.626Zm14.99-1.47.234 1.454a6.2 6.2 0 0 1-1.234.14c-.594 0-1.057-.093-1.39-.28a1.606 1.606 0 0 1-.688-.735c-.136-.313-.203-.958-.203-1.938v-5.578h-1.204V72.17h1.204v-2.39l1.625-.985v3.375h1.656v1.265h-1.656v5.672c0 .459.026.755.078.89a.78.78 0 0 0 .281.329c.135.073.328.11.578.11.177 0 .417-.021.719-.063Zm.996-3.374c0-1.792.494-3.115 1.484-3.969.833-.719 1.849-1.078 3.047-1.078 1.333 0 2.422.437 3.266 1.312.843.865 1.265 2.068 1.265 3.61 0 1.24-.187 2.219-.562 2.937a3.99 3.99 0 0 1-1.641 1.657 4.692 4.692 0 0 1-2.328.593c-1.354 0-2.448-.432-3.281-1.297-.834-.875-1.25-2.13-1.25-3.765Zm1.687 0c0 1.24.266 2.172.797 2.797a2.615 2.615 0 0 0 2.047.922c.812 0 1.49-.308 2.031-.922.542-.625.813-1.573.813-2.844 0-1.198-.271-2.104-.813-2.719-.542-.614-1.219-.922-2.031-.922-.823 0-1.505.308-2.047.922-.531.604-.797 1.526-.797 2.766Zm23.45-8.516h1.765V76.2c0 1.344-.15 2.411-.453 3.203-.302.792-.849 1.438-1.64 1.938-.792.49-1.834.734-3.125.734-1.25 0-2.276-.214-3.078-.64a3.773 3.773 0 0 1-1.704-1.876c-.333-.823-.5-1.942-.5-3.359v-7.719h1.766V76.2c0 1.156.104 2.01.313 2.562.218.542.588.964 1.109 1.266.531.302 1.177.453 1.937.453 1.303 0 2.23-.297 2.782-.89.552-.594.828-1.724.828-3.391v-7.719Zm3.848 10.469 1.625-.25c.083.646.333 1.146.75 1.5.416.344 1 .516 1.75.516s1.307-.151 1.672-.454c.364-.312.546-.677.546-1.093 0-.365-.161-.657-.484-.875-.219-.146-.776-.328-1.672-.547-1.208-.313-2.047-.578-2.515-.797-.459-.219-.808-.52-1.047-.906a2.486 2.486 0 0 1-.36-1.313c0-.427.1-.823.297-1.187.198-.375.469-.683.813-.922.25-.188.593-.344 1.031-.469a4.888 4.888 0 0 1 1.422-.203c.76 0 1.427.11 2 .328.573.219.995.516 1.265.89.282.376.474.876.579 1.5l-1.61.22c-.073-.5-.286-.891-.64-1.172-.344-.282-.834-.422-1.47-.422-.76 0-1.301.125-1.624.375-.313.25-.469.541-.469.875 0 .208.063.4.188.578.135.177.349.323.64.437.156.063.636.203 1.438.422 1.166.302 1.979.552 2.437.75.459.198.818.485 1.078.86.26.375.391.843.391 1.406 0 .552-.161 1.068-.484 1.547-.313.479-.771.854-1.375 1.125-.605.26-1.287.39-2.047.39-1.25 0-2.209-.26-2.875-.78-.657-.522-1.073-1.298-1.25-2.329Zm16.61-.219 1.687.203c-.271.99-.766 1.76-1.485 2.313-.719.542-1.64.812-2.765.812-1.417 0-2.542-.432-3.375-1.297-.823-.875-1.235-2.098-1.235-3.671 0-1.636.417-2.901 1.25-3.797.844-.896 1.933-1.344 3.266-1.344 1.292 0 2.344.443 3.156 1.328.823.875 1.234 2.11 1.234 3.703v.438h-7.218c.062 1.062.364 1.88.906 2.453.542.562 1.214.844 2.016.844.604 0 1.12-.157 1.546-.47.428-.322.766-.827 1.016-1.515Zm-5.392-2.656h5.407c-.073-.813-.282-1.422-.625-1.828-.521-.636-1.198-.953-2.032-.953-.75 0-1.385.255-1.906.765-.51.5-.791 1.172-.844 2.016ZM629.74 81.84V68.482h1.78v11.781h6.563v1.579h-8.344Zm16.875-3.109 1.688.203c-.271.99-.766 1.76-1.485 2.313-.718.542-1.64.812-2.765.812-1.417 0-2.542-.432-3.375-1.297-.823-.875-1.235-2.098-1.235-3.671 0-1.636.417-2.901 1.25-3.797.844-.896 1.933-1.344 3.266-1.344 1.292 0 2.344.443 3.156 1.328.823.875 1.235 2.11 1.235 3.703v.438h-7.22c.063 1.062.365 1.88.907 2.453.542.562 1.214.844 2.016.844.604 0 1.12-.157 1.547-.47.427-.322.765-.827 1.015-1.515Zm-5.39-2.656h5.406c-.073-.813-.281-1.422-.625-1.828-.521-.636-1.198-.953-2.031-.953-.75 0-1.386.255-1.907.765-.51.5-.791 1.172-.843 2.016Zm8.485 2.875 1.625-.25c.083.646.333 1.146.75 1.5.416.344 1 .516 1.75.516s1.307-.151 1.672-.454c.364-.312.546-.677.546-1.093 0-.365-.161-.657-.484-.875-.219-.146-.776-.328-1.672-.547-1.208-.313-2.047-.578-2.515-.797-.459-.219-.808-.52-1.047-.906a2.486 2.486 0 0 1-.36-1.313c0-.427.1-.823.297-1.187.198-.375.469-.683.813-.922.25-.188.593-.344 1.03-.469a4.888 4.888 0 0 1 1.423-.203c.76 0 1.427.11 2 .328.573.219.995.516 1.265.89.282.376.474.876.579 1.5l-1.61.22c-.073-.5-.286-.891-.64-1.172-.344-.282-.834-.422-1.47-.422-.76 0-1.301.125-1.624.375-.313.25-.469.541-.469.875 0 .208.063.4.188.578.135.177.349.323.64.437.156.063.636.203 1.438.422 1.166.302 1.979.552 2.437.75.459.198.818.485 1.078.86.26.375.39.843.39 1.406 0 .552-.16 1.068-.483 1.547-.313.479-.771.854-1.375 1.125-.605.26-1.287.39-2.047.39-1.25 0-2.209-.26-2.875-.78-.657-.522-1.073-1.298-1.25-2.329Zm9.328 0 1.625-.25c.083.646.333 1.146.75 1.5.416.344 1 .516 1.75.516s1.307-.151 1.672-.454c.364-.312.547-.677.547-1.093 0-.365-.162-.657-.485-.875-.219-.146-.776-.328-1.672-.547-1.208-.313-2.047-.578-2.515-.797-.459-.219-.808-.52-1.047-.906a2.486 2.486 0 0 1-.36-1.313c0-.427.1-.823.297-1.187.198-.375.47-.683.813-.922.25-.188.594-.344 1.031-.469a4.888 4.888 0 0 1 1.422-.203c.76 0 1.427.11 2 .328.573.219.995.516 1.266.89.28.376.474.876.578 1.5l-1.61.22c-.073-.5-.286-.891-.64-1.172-.344-.282-.834-.422-1.47-.422-.76 0-1.301.125-1.624.375-.313.25-.469.541-.469.875 0 .208.063.4.188.578.135.177.349.323.64.437.157.063.636.203 1.438.422 1.166.302 1.979.552 2.437.75.459.198.818.485 1.078.86.26.375.391.843.391 1.406 0 .552-.161 1.068-.484 1.547-.313.479-.771.854-1.375 1.125-.604.26-1.287.39-2.047.39-1.25 0-2.209-.26-2.875-.78-.656-.522-1.073-1.298-1.25-2.329Zm14.777-1.406 1.656-.14c.083.666.266 1.213.547 1.64.292.427.74.776 1.344 1.047.614.26 1.302.39 2.062.39.667 0 1.26-.099 1.781-.297.521-.198.907-.468 1.157-.812.25-.354.375-.74.375-1.156a1.7 1.7 0 0 0-.375-1.094c-.24-.313-.636-.578-1.188-.797-.364-.135-1.161-.349-2.39-.64-1.22-.303-2.073-.584-2.563-.844-.646-.334-1.125-.745-1.437-1.235a3.09 3.09 0 0 1-.47-1.672c0-.666.194-1.291.579-1.875.385-.593.943-1.041 1.672-1.343.74-.302 1.557-.454 2.453-.454.99 0 1.86.162 2.61.485.76.312 1.343.781 1.75 1.406.406.615.624 1.313.656 2.094l-1.688.125c-.094-.844-.406-1.48-.937-1.906-.521-.438-1.292-.657-2.313-.657-1.073 0-1.854.198-2.344.594-.49.396-.734.87-.734 1.422 0 .48.177.87.531 1.172.334.312 1.219.635 2.656.969 1.438.323 2.422.604 2.954.843.78.355 1.354.808 1.718 1.36.375.552.563 1.187.563 1.906 0 .708-.203 1.38-.61 2.016-.406.625-.99 1.114-1.75 1.468-.76.344-1.62.516-2.578.516-1.208 0-2.224-.177-3.047-.531a4.315 4.315 0 0 1-1.921-1.594c-.459-.708-.698-1.51-.72-2.406Zm19.46 1.187 1.687.203c-.271.99-.766 1.76-1.485 2.313-.719.542-1.64.812-2.765.812-1.417 0-2.542-.432-3.375-1.297-.823-.875-1.235-2.098-1.235-3.671 0-1.636.417-2.901 1.25-3.797.844-.896 1.933-1.344 3.266-1.344 1.292 0 2.344.443 3.156 1.328.823.875 1.234 2.11 1.234 3.703v.438h-7.218c.062 1.062.364 1.88.906 2.453.542.562 1.214.844 2.016.844.604 0 1.12-.157 1.546-.47.428-.322.766-.827 1.016-1.515Zm-5.392-2.656h5.407c-.073-.813-.282-1.422-.625-1.828-.521-.636-1.198-.953-2.032-.953-.75 0-1.385.255-1.906.765-.51.5-.791 1.172-.844 2.016Zm15.454 2.219 1.61.218c-.177 1.105-.63 1.974-1.36 2.61-.718.625-1.61.937-2.672.937-1.323 0-2.385-.432-3.187-1.297-.802-.864-1.203-2.104-1.203-3.718 0-1.052.172-1.969.515-2.75.344-.782.87-1.365 1.579-1.75a4.662 4.662 0 0 1 2.312-.594c1.052 0 1.911.266 2.578.797.667.531 1.094 1.286 1.281 2.265l-1.593.235c-.157-.646-.427-1.13-.813-1.453-.385-.334-.849-.5-1.39-.5-.823 0-1.495.297-2.016.89-.52.594-.781 1.532-.781 2.813 0 1.302.25 2.25.75 2.844.5.583 1.15.875 1.953.875.646 0 1.182-.198 1.61-.594.437-.396.713-1.005.827-1.828Zm9.344 3.547v-1.422c-.75 1.093-1.77 1.64-3.062 1.64a3.97 3.97 0 0 1-1.61-.328c-.49-.219-.854-.495-1.094-.828-.24-.333-.406-.74-.5-1.219-.073-.312-.109-.823-.109-1.53v-5.985h1.64v5.36c0 .853.037 1.431.11 1.733.104.428.323.766.656 1.016.334.25.745.375 1.235.375.49 0 .948-.125 1.375-.375.437-.26.744-.604.922-1.031.177-.438.265-1.068.265-1.89v-5.188h1.64v9.672h-1.468Zm4.032 0v-9.672h1.469v1.468c.375-.687.718-1.14 1.031-1.359a1.855 1.855 0 0 1 1.062-.328c.553 0 1.115.177 1.688.531l-.563 1.516c-.406-.24-.807-.36-1.203-.36-.364 0-.687.11-.968.329a1.827 1.827 0 0 0-.61.89 6.253 6.253 0 0 0-.281 1.922v5.063h-1.625Zm12.853-3.11 1.688.203c-.271.99-.766 1.76-1.485 2.313-.718.542-1.64.812-2.765.812-1.417 0-2.542-.432-3.375-1.297-.823-.875-1.235-2.098-1.235-3.671 0-1.636.417-2.901 1.25-3.797.844-.896 1.933-1.344 3.266-1.344 1.292 0 2.344.443 3.156 1.328.823.875 1.235 2.11 1.235 3.703v.438h-7.219c.062 1.062.365 1.88.906 2.453.542.562 1.214.844 2.016.844.604 0 1.12-.157 1.547-.47.427-.322.765-.827 1.015-1.515Zm-5.39-2.656h5.406c-.073-.813-.281-1.422-.625-1.828-.52-.636-1.198-.953-2.031-.953-.75 0-1.386.255-1.907.765-.51.5-.791 1.172-.843 2.016Zm-98.467-62.497V.218h9.656v1.579h-7.875V5.89h7.375v1.562h-7.375V12h8.187v1.578h-9.968Zm18.521-1.187c-.614.51-1.203.875-1.765 1.093a5.049 5.049 0 0 1-1.797.313c-1.063 0-1.88-.26-2.453-.781s-.86-1.183-.86-1.985c0-.479.11-.911.328-1.297.22-.395.5-.708.844-.937a4.11 4.11 0 0 1 1.188-.547c.312-.083.797-.167 1.453-.25 1.323-.156 2.297-.344 2.922-.563.01-.229.015-.37.015-.421 0-.667-.156-1.141-.468-1.422-.417-.365-1.042-.547-1.875-.547-.771 0-1.339.135-1.704.406-.364.271-.635.745-.812 1.422l-1.61-.219c.146-.677.386-1.224.72-1.64.333-.427.817-.756 1.452-.985.636-.229 1.365-.343 2.188-.343.833 0 1.505.098 2.016.296.52.188.9.433 1.14.735.25.291.422.661.516 1.11.052.28.078.786.078 1.515V9.53c0 1.521.036 2.485.11 2.89.072.397.208.782.406 1.157h-1.704a3.222 3.222 0 0 1-.328-1.187Zm-.14-3.672c-.594.25-1.485.458-2.672.625-.677.094-1.156.203-1.438.328-.28.125-.5.302-.656.531-.146.23-.219.49-.219.781 0 .438.167.802.5 1.094.334.292.818.438 1.453.438.625 0 1.183-.136 1.672-.407.5-.28.865-.661 1.094-1.14.177-.375.266-.922.266-1.64v-.61Zm3.547 1.969 1.625-.25c.084.645.334 1.145.75 1.5.417.343 1 .515 1.75.515s1.308-.15 1.672-.453c.365-.313.547-.677.547-1.094 0-.364-.161-.656-.484-.875-.22-.146-.776-.328-1.672-.547-1.209-.312-2.047-.578-2.516-.796-.458-.22-.807-.521-1.047-.907a2.486 2.486 0 0 1-.36-1.312c0-.427.1-.823.298-1.188.198-.375.469-.682.812-.922.25-.187.594-.343 1.032-.468a4.888 4.888 0 0 1 1.421-.204c.76 0 1.428.11 2 .329.573.218.995.515 1.266.89.281.375.474.875.578 1.5l-1.61.219c-.072-.5-.286-.89-.64-1.172-.344-.281-.833-.422-1.469-.422-.76 0-1.302.125-1.625.375-.312.25-.468.542-.468.875a.98.98 0 0 0 .187.578c.136.177.35.323.64.438.157.062.636.203 1.438.422 1.167.302 1.98.552 2.438.75.458.198.818.484 1.078.86.26.374.39.843.39 1.405 0 .552-.16 1.068-.484 1.547-.312.48-.77.854-1.375 1.125-.604.26-1.286.39-2.047.39-1.25 0-2.208-.26-2.875-.78-.656-.521-1.073-1.297-1.25-2.329Zm9.985-8.579V.22h1.64v1.89h-1.64Zm0 11.47V3.905h1.64v9.672h-1.64Zm10.77-3.11 1.687.203c-.27.99-.766 1.76-1.484 2.312-.72.542-1.641.813-2.766.813-1.417 0-2.542-.432-3.375-1.297-.823-.875-1.234-2.099-1.234-3.672 0-1.635.416-2.9 1.25-3.797.843-.896 1.932-1.343 3.265-1.343 1.292 0 2.344.442 3.156 1.328.823.875 1.235 2.109 1.235 3.703v.437h-7.219c.063 1.063.365 1.88.906 2.453.542.563 1.214.844 2.016.844.604 0 1.12-.156 1.547-.469.427-.323.765-.828 1.015-1.515ZM663 7.813h5.406c-.073-.813-.281-1.422-.625-1.829-.52-.635-1.198-.953-2.031-.953-.75 0-1.386.255-1.906.766-.51.5-.792 1.172-.844 2.016Zm9.126 5.765V3.906h1.468v1.469c.375-.688.72-1.14 1.032-1.36a1.855 1.855 0 0 1 1.062-.327c.552 0 1.115.177 1.688.53l-.563 1.516c-.406-.24-.807-.359-1.203-.359-.365 0-.688.11-.969.328a1.827 1.827 0 0 0-.61.89 6.253 6.253 0 0 0-.28 1.923v5.062h-1.625Zm14.99-1.469.234 1.454c-.459.093-.87.14-1.235.14-.593 0-1.057-.094-1.39-.281a1.606 1.606 0 0 1-.688-.735c-.135-.312-.203-.958-.203-1.937V5.172h-1.203V3.906h1.203v-2.39L685.46.53v3.375h1.656v1.266h-1.656v5.672c0 .458.026.755.078.89a.78.78 0 0 0 .281.329c.136.072.329.109.579.109.177 0 .416-.021.718-.063Zm.995-3.375c0-1.791.495-3.114 1.484-3.968.834-.72 1.85-1.079 3.047-1.079 1.334 0 2.422.438 3.266 1.313.844.865 1.266 2.068 1.266 3.61 0 1.239-.188 2.218-.563 2.937a3.99 3.99 0 0 1-1.64 1.656 4.692 4.692 0 0 1-2.329.594c-1.354 0-2.448-.432-3.28-1.297-.834-.875-1.25-2.13-1.25-3.766Zm1.688 0c0 1.24.265 2.172.796 2.797.542.615 1.224.922 2.047.922.813 0 1.49-.307 2.032-.922.541-.625.812-1.573.812-2.844 0-1.197-.27-2.104-.812-2.718-.542-.615-1.22-.922-2.032-.922-.823 0-1.505.307-2.047.922-.53.604-.796 1.526-.796 2.765ZM713.25.22h1.765v7.718c0 1.344-.151 2.412-.453 3.204-.302.791-.85 1.437-1.64 1.937-.793.49-1.834.735-3.126.735-1.25 0-2.276-.214-3.078-.641a3.773 3.773 0 0 1-1.703-1.875c-.333-.823-.5-1.943-.5-3.36V.22h1.765v7.718c0 1.157.105 2.01.313 2.563.219.542.589.964 1.11 1.266.53.302 1.176.453 1.937.453 1.302 0 2.229-.297 2.781-.89.552-.595.828-1.725.828-3.392V.22Zm3.847 10.469 1.625-.25c.084.645.334 1.145.75 1.5.417.343 1 .515 1.75.515s1.307-.15 1.672-.453c.365-.313.547-.677.547-1.094 0-.364-.162-.656-.484-.875-.22-.146-.776-.328-1.672-.547-1.209-.312-2.047-.578-2.516-.796-.458-.22-.807-.521-1.047-.907a2.486 2.486 0 0 1-.36-1.312c0-.427.1-.823.298-1.188.198-.375.468-.682.812-.922.25-.187.594-.343 1.031-.468a4.888 4.888 0 0 1 1.422-.204c.76 0 1.427.11 2 .329.573.218.995.515 1.266.89.281.375.474.875.578 1.5l-1.61.219c-.072-.5-.286-.89-.64-1.172-.344-.281-.833-.422-1.469-.422-.76 0-1.302.125-1.625.375-.312.25-.468.542-.468.875a.98.98 0 0 0 .187.578c.135.177.349.323.64.438.157.062.636.203 1.438.422 1.167.302 1.98.552 2.438.75.458.198.817.484 1.078.86.26.374.39.843.39 1.405 0 .552-.161 1.068-.484 1.547-.312.48-.77.854-1.375 1.125-.604.26-1.286.39-2.047.39-1.25 0-2.208-.26-2.875-.78-.656-.521-1.073-1.297-1.25-2.329Zm16.61-.22 1.687.204c-.27.99-.766 1.76-1.484 2.312-.72.542-1.64.813-2.766.813-1.417 0-2.542-.432-3.375-1.297-.823-.875-1.234-2.099-1.234-3.672 0-1.635.416-2.9 1.25-3.797.843-.896 1.932-1.343 3.265-1.343 1.292 0 2.344.442 3.157 1.328.822.875 1.234 2.109 1.234 3.703v.437h-7.219c.063 1.063.365 1.88.906 2.453.542.563 1.214.844 2.016.844.604 0 1.12-.156 1.547-.469.427-.323.766-.828 1.016-1.515Zm-5.391-2.655h5.406c-.073-.813-.281-1.422-.625-1.829-.52-.635-1.198-.953-2.031-.953-.75 0-1.385.255-1.906.766-.51.5-.792 1.172-.844 2.016ZM26.713 43.104 42 27.818 0 43.104l42 15.287zm745.284 0L756.71 58.391l42-15.287-42-15.286z"/><path stroke="#000" stroke-linejoin="round" stroke-width="8" d="M15.721 42.814h761.986"/></g></svg>